# Blender 4.0.2
# www.blender.org
o double_coat_hook_01
v 0.000000 0.093788 0.047238
v -0.003188 0.093356 0.045992
v -0.004508 0.092312 0.042984
v -0.003188 0.091268 0.039976
v 0.000000 0.090836 0.038730
v 0.000000 0.084550 0.049006
v -0.002741 0.084337 0.047891
v -0.003877 0.083824 0.045198
v -0.002741 0.083310 0.042506
v 0.000000 0.083098 0.041390
v 0.000000 0.070171 0.049905
v -0.002194 0.070174 0.048996
v -0.003103 0.070179 0.046802
v -0.002194 0.070184 0.044608
v 0.000000 0.070186 0.043699
v 0.000000 0.056591 0.047952
v -0.001995 0.056807 0.047155
v -0.002822 0.057330 0.045229
v -0.001995 0.057852 0.043303
v 0.000000 0.058069 0.042506
v 0.000000 0.045558 0.042811
v -0.001748 0.045925 0.042187
v -0.002472 0.046812 0.040681
v -0.001748 0.047699 0.039175
v 0.000000 0.048066 0.038551
v 0.003188 0.093356 0.045992
v 0.004508 0.092312 0.042984
v 0.000000 0.036430 0.035511
v -0.001591 0.036865 0.035019
v -0.002251 0.037916 0.033831
v -0.001591 0.038966 0.032643
v 0.000000 0.039401 0.032151
v 0.003188 0.091268 0.039976
v 0.000000 0.027846 0.026533
v -0.001809 0.028420 0.026054
v -0.002559 0.029805 0.024896
v -0.001809 0.031190 0.023739
v 0.000000 0.031764 0.023259
v 0.000000 0.020188 0.017823
v -0.002519 0.020984 0.017148
v -0.003562 0.022766 0.015611
v -0.002519 0.024503 0.014166
v 0.000000 0.025298 0.013492
v 0.002741 0.084337 0.047891
v -0.003089 0.021102 0.005935
v -0.004313 0.017733 0.007261
v -0.002954 0.015187 0.010665
v 0.000000 0.014264 0.011470
v 0.003877 0.083824 0.045198
v 0.002741 0.083310 0.042506
v 0.000000 0.022629 0.005455
v 0.000000 -0.022318 0.004635
v -0.002429 -0.021407 0.005061
v -0.003435 -0.017927 0.006592
v -0.002429 -0.015095 0.008761
v 0.000000 -0.014526 0.009590
v 0.002194 0.070174 0.048996
v 0.000000 -0.018658 0.014037
v -0.002415 -0.019567 0.013626
v -0.003415 -0.021762 0.012634
v -0.002415 -0.023957 0.011642
v 0.000000 -0.024867 0.011232
v 0.003103 0.070179 0.046802
v 0.000000 -0.021651 0.021188
v -0.002081 -0.022511 0.021136
v -0.002942 -0.024588 0.021011
v -0.002081 -0.026664 0.020885
v 0.000000 -0.027525 0.020833
v 0.002194 0.070184 0.044608
v 0.000000 -0.020132 0.028256
v -0.002118 -0.020914 0.028656
v -0.002996 -0.022800 0.029620
v -0.002118 -0.024686 0.030584
v 0.000000 -0.025468 0.030984
v 0.001995 0.056807 0.047155
v 0.000000 -0.014984 0.033441
v -0.002314 -0.015533 0.034226
v -0.003272 -0.016858 0.036124
v -0.002314 -0.018183 0.038021
v 0.000000 -0.018731 0.038806
v 0.002822 0.057330 0.045229
v 0.001995 0.057852 0.043303
v 0.000000 -0.008476 0.035095
v -0.002981 -0.008704 0.036308
v -0.004216 -0.009255 0.039238
v -0.002981 -0.009807 0.042168
v 0.000000 -0.010035 0.043382
v 0.000000 0.000306 0.036246
v -0.002002 0.000320 0.037075
v -0.002831 0.000354 0.039077
v -0.002002 0.000387 0.041078
v 0.000000 0.000401 0.041907
v -0.004608 0.015703 0.002952
v -0.004195 -0.000389 0.003673
v 0.001748 0.045925 0.042187
v 0.000000 -0.000389 0.006020
v -0.002967 -0.000389 0.005203
v -0.004799 -0.000401 0.002952
v 0.002472 0.046812 0.040681
v 0.001748 0.047699 0.039175
v 0.000000 0.006366 0.007214
v -0.004263 0.007216 0.004284
v -0.003037 0.006827 0.006403
v -0.004852 0.007205 0.002952
v -0.003915 -0.008285 0.004388
v -0.002750 -0.007959 0.005857
v -0.004506 -0.008247 0.002952
v 0.000000 -0.007666 0.006681
v -0.003184 0.020351 0.002952
v 0.000000 -0.022318 0.002952
v 0.000000 0.022024 0.002952
v -0.002429 -0.021407 0.002952
v -0.003632 -0.017295 0.002952
v 0.001591 0.036865 0.035019
v 0.002251 0.037916 0.033831
v 0.001591 0.038966 0.032643
v 0.001809 0.028420 0.026054
v 0.002559 0.029805 0.024896
v 0.001809 0.031190 0.023739
v 0.002519 0.020984 0.017148
v 0.003562 0.022766 0.015611
v 0.002519 0.024503 0.014166
v 0.003089 0.021102 0.005935
v 0.004313 0.017733 0.007261
v 0.002954 0.015187 0.010665
v 0.002429 -0.021407 0.005061
v 0.003435 -0.017927 0.006592
v 0.002429 -0.015095 0.008761
v 0.002415 -0.019567 0.013626
v 0.003415 -0.021762 0.012634
v 0.002415 -0.023957 0.011642
v 0.000000 -0.001502 0.034534
v -0.003234 -0.001479 0.035873
v -0.004573 -0.001425 0.039107
v -0.003234 -0.001370 0.042340
v 0.000000 -0.001348 0.043679
v 0.002081 -0.022511 0.021136
v 0.002942 -0.024588 0.021011
v 0.000000 0.000844 0.039077
v 0.002081 -0.026664 0.020885
v 0.002118 -0.020914 0.028656
v 0.002996 -0.022800 0.029620
v 0.002118 -0.024686 0.030584
v 0.002314 -0.015533 0.034226
v 0.003272 -0.016858 0.036124
v 0.002314 -0.018183 0.038021
v 0.002981 -0.008704 0.036308
v 0.004216 -0.009255 0.039238
v 0.002981 -0.009807 0.042168
v 0.002002 0.000320 0.037075
v 0.002831 0.000354 0.039077
v 0.002002 0.000387 0.041078
v 0.004608 0.015703 0.002952
v 0.004195 -0.000389 0.003673
v 0.002967 -0.000389 0.005203
v 0.004799 -0.000401 0.002952
v 0.004263 0.007216 0.004284
v 0.003037 0.006827 0.006403
v 0.004852 0.007205 0.002952
v 0.003915 -0.008285 0.004388
v 0.002750 -0.007959 0.005857
v 0.004506 -0.008247 0.002952
v 0.003184 0.020351 0.002952
v 0.002429 -0.021407 0.002952
v 0.003632 -0.017295 0.002952
v 0.003234 -0.001479 0.035873
v 0.004573 -0.001425 0.039107
v 0.003234 -0.001370 0.042340
v 0.001696 0.097078 0.038706
v 0.002399 0.098183 0.040001
v 0.001696 0.098847 0.041601
v 0.000000 0.096933 0.037953
v -0.001696 0.097078 0.038706
v -0.002399 0.098183 0.040001
v -0.001696 0.098847 0.041601
v 0.000000 0.099434 0.042048
v 0.002819 0.095454 0.038435
v 0.000000 0.094865 0.037427
v 0.000000 0.098890 0.044309
v 0.002819 0.098300 0.043301
v 0.003987 0.096877 0.040868
v -0.002819 0.095454 0.038435
v -0.003987 0.096877 0.040868
v -0.002819 0.098300 0.043301
v 0.000000 0.098571 0.039754
v 0.013335 0.000000 -0.000000
v 0.013335 0.000000 0.002952
v 0.012320 -0.008690 -0.000000
v 0.012320 -0.008690 0.002952
v 0.009429 -0.016056 -0.000000
v 0.009429 -0.016056 0.002952
v 0.005103 -0.020979 -0.000000
v 0.005103 -0.020979 0.002952
v -0.000000 -0.022707 0.000000
v -0.000000 -0.022707 0.002952
v -0.005103 -0.020979 0.000000
v -0.005103 -0.020979 0.002952
v -0.009429 -0.016056 0.000000
v -0.009429 -0.016056 0.002952
v -0.012320 -0.008690 0.000000
v -0.012320 -0.008690 0.002952
v -0.013335 0.000000 0.000000
v -0.013335 0.000000 0.002952
v -0.012320 0.008690 -0.000000
v -0.012320 0.008690 0.002952
v -0.009429 0.016056 -0.000000
v -0.009429 0.016056 0.002952
v -0.005103 0.020979 -0.000000
v -0.005103 0.020979 0.002952
v 0.000000 0.022707 -0.000000
v 0.000000 0.022707 0.002952
v 0.005103 0.020979 -0.000000
v 0.005103 0.020979 0.002952
v 0.009429 0.016056 -0.000000
v 0.009429 0.016056 0.002952
v 0.012320 0.008690 -0.000000
v 0.012320 0.008690 0.002952
v 0.000000 0.016056 -0.000000
v 0.000000 0.008690 -0.000000
v 0.000000 0.000000 0.000000
v -0.000000 -0.008690 0.000000
v -0.000000 -0.016056 0.000000
vn 0.5047 0.8632 -0.0145
vn 0.9449 0.3273 -0.0078
vn 0.6658 0.3122 -0.6777
vn 0.3683 0.8474 -0.3826
vn -0.0000 0.8548 -0.5190
vn -0.0000 0.9999 -0.0163
vn -0.6995 0.2525 0.6686
vn -0.6967 0.0723 0.7137
vn -0.0000 0.1260 0.9920
vn -0.0000 0.3475 0.9377
vn -0.9998 0.0198 0.0091
vn -0.9978 -0.0596 0.0290
vn -0.7146 -0.2178 -0.6648
vn -0.7139 -0.1949 -0.6726
vn -0.0000 -0.3176 -0.9482
vn -0.0000 -0.2519 -0.9678
vn 0.9998 0.0198 0.0091
vn 0.6995 0.2525 0.6686
vn 0.6967 0.0723 0.7137
vn 0.9978 -0.0596 0.0290
vn -0.6918 -0.0392 0.7211
vn -0.0000 -0.0394 0.9992
vn -0.9988 -0.0391 0.0305
vn -0.7223 -0.0397 -0.6905
vn -0.0000 -0.0402 -0.9992
vn 0.7146 -0.2178 -0.6648
vn 0.7139 -0.1949 -0.6726
vn 0.6918 -0.0392 0.7211
vn 0.9988 -0.0391 0.0305
vn -0.6905 -0.2128 0.6913
vn -0.0000 -0.2848 0.9586
vn -0.9991 -0.0339 0.0264
vn -0.7249 0.1537 -0.6715
vn -0.0000 0.2345 -0.9721
vn 0.7223 -0.0397 -0.6905
vn 0.6905 -0.2128 0.6913
vn 0.9991 -0.0339 0.0264
vn -0.6915 -0.3865 0.6103
vn -0.0000 -0.5268 0.8500
vn -0.9992 -0.0373 0.0144
vn -0.7228 0.3279 -0.6084
vn -0.0000 0.4844 -0.8749
vn 0.7249 0.1537 -0.6715
vn 0.6915 -0.3865 0.6103
vn 0.9992 -0.0373 0.0144
vn -0.6949 -0.4851 0.5308
vn -0.0000 -0.6750 0.7378
vn -0.9997 -0.0140 0.0191
vn -0.7184 0.4742 -0.5090
vn -0.0000 0.6811 -0.7322
vn 0.7228 0.3279 -0.6084
vn 0.6949 -0.4851 0.5308
vn 0.9997 -0.0140 0.0191
vn -0.6971 -0.5174 0.4963
vn -0.0000 -0.7373 0.6756
vn -0.9985 0.0286 0.0471
vn -0.7049 0.5766 -0.4132
vn -0.0000 0.7981 -0.6025
vn 0.7184 0.4742 -0.5090
vn 0.6971 -0.5174 0.4963
vn 0.9985 0.0286 0.0471
vn -0.7141 -0.5062 0.4836
vn -0.0000 -0.7413 0.6712
vn -0.9960 0.0499 0.0735
vn -0.7249 0.6240 -0.2918
vn -0.0000 0.8972 -0.4416
vn 0.7049 0.5766 -0.4132
vn -0.7546 0.6312 -0.1795
vn -0.9907 0.0891 0.1025
vn 0.6864 -0.2044 0.6980
vn 0.9960 -0.0852 0.0266
vn 0.6674 0.3381 0.6635
vn -0.0000 0.9588 -0.2841
vn 0.7141 -0.5062 0.4836
vn -0.9079 0.0123 0.4190
vn -0.9918 -0.0606 0.1128
vn -0.7256 0.3581 0.5875
vn -0.6284 0.1455 0.7642
vn 0.7272 0.0349 -0.6855
vn -0.0000 0.0844 -0.9964
vn -0.0000 0.3048 -0.9524
vn -0.6621 -0.2193 0.7166
vn -0.0000 -0.3141 0.9494
vn -0.0000 -0.5980 0.8015
vn -0.7357 -0.3950 0.5502
vn 0.9954 -0.0948 0.0106
vn 0.7370 0.3143 -0.5984
vn 0.9960 0.0499 0.0735
vn 0.7249 0.6240 -0.2918
vn -0.7418 0.5672 0.3578
vn -0.0000 0.8386 0.5447
vn -0.0000 0.5682 0.8229
vn -0.9989 -0.0361 0.0307
vn -0.7170 -0.6617 -0.2192
vn -0.7656 -0.6307 -0.1267
vn 0.9907 0.0891 0.1025
vn 0.7546 0.6312 -0.1795
vn -0.0000 -0.9490 -0.3153
vn -0.0000 -0.9852 -0.1716
vn 0.7357 -0.3950 0.5502
vn -0.7458 0.6626 0.0684
vn -0.0000 0.9957 0.0928
vn -0.9973 -0.0710 0.0199
vn -0.6756 -0.7370 -0.0207
vn -0.0000 -0.9993 -0.0365
vn 0.9079 0.0123 0.4190
vn 0.6284 0.1455 0.7642
vn 0.7256 0.3581 0.5875
vn 0.9918 -0.0606 0.1128
vn 0.6621 -0.2193 0.7166
vn 0.7170 -0.6617 -0.2192
vn 0.7656 -0.6307 -0.1267
vn 0.9989 -0.0361 0.0307
vn 0.7418 0.5672 0.3578
vn -0.7435 0.5851 -0.3238
vn -0.0000 0.8789 -0.4770
vn -0.9975 -0.0687 0.0145
vn -0.6755 -0.6639 0.3207
vn -0.0000 -0.8977 0.4406
vn 0.9973 -0.0710 0.0199
vn 0.6756 -0.7370 -0.0207
vn -0.7370 0.3143 -0.5984
vn -0.0000 0.4941 -0.8694
vn -0.9954 -0.0948 0.0106
vn -0.6752 -0.4726 0.5664
vn -0.0000 -0.6212 0.7837
vn 0.7458 0.6626 0.0684
vn 0.9975 -0.0687 0.0145
vn 0.6755 -0.6639 0.3207
vn -0.7272 0.0349 -0.6855
vn -0.9960 -0.0852 0.0266
vn -0.6864 -0.2044 0.6980
vn -0.0000 -0.2532 0.9674
vn 0.7435 0.5851 -0.3238
vn 0.9916 0.1014 0.0806
vn 0.7920 0.5949 -0.1371
vn -0.6658 0.3122 -0.6777
vn -0.9449 0.3273 -0.0078
vn -0.6674 0.3381 0.6635
vn -0.0000 0.3415 0.9399
vn 0.9843 -0.1557 0.0830
vn 0.9449 -0.0319 0.3259
vn -0.9202 -0.0617 0.3865
vn -0.9916 0.1014 0.0806
vn -0.9408 -0.0214 0.3384
vn -0.8421 -0.0208 0.5389
vn -0.8695 -0.0185 0.4935
vn -0.9449 -0.0319 0.3259
vn -0.0000 0.2288 0.9735
vn -0.0000 -0.0445 0.9990
vn -0.5874 -0.0343 0.8086
vn -0.0000 -1.0000 -0.0000
vn 0.7333 -0.6799 0.0012
vn 0.8695 -0.0185 0.4935
vn 0.8421 -0.0208 0.5389
vn -0.9843 -0.1557 0.0830
vn -0.7920 0.5949 -0.1371
vn -0.0000 0.9728 -0.2316
vn -0.7333 -0.6799 0.0012
vn 0.6752 -0.4726 0.5664
vn 0.9202 -0.0617 0.3865
vn 0.9408 -0.0214 0.3384
vn 0.5874 -0.0343 0.8086
vn -0.3683 0.8474 -0.3826
vn -0.5047 0.8632 -0.0145
vn -0.3684 0.8596 0.3540
vn -0.0000 0.8716 0.4902
vn 0.3684 0.8596 0.3540
vn -0.0000 0.8524 -0.5229
vn -0.4877 0.7457 -0.4540
vn -0.3848 0.9171 -0.1038
vn -0.0000 0.9994 -0.0358
vn 0.6423 0.0726 -0.7630
vn 0.9054 0.3763 -0.1963
vn -0.0000 -0.0378 -0.9993
vn -0.6423 0.0726 -0.7630
vn -0.0000 0.7944 0.6074
vn -0.6432 0.6655 0.3787
vn 0.6432 0.6655 0.3787
vn -0.9054 0.3763 -0.1963
vn -0.0000 0.4936 -0.8697
vn 0.3863 0.5176 -0.7635
vn 0.3848 0.9171 -0.1038
vn 0.4877 0.7457 -0.4540
vn -0.3863 0.5176 -0.7635
vn 1.0000 -0.0000 -0.0000
vn 0.9701 -0.2427 -0.0000
vn 0.8538 -0.5205 -0.0000
vn 0.5548 -0.8320 -0.0000
vn -0.5548 -0.8320 -0.0000
vn -0.8538 -0.5205 -0.0000
vn -0.9701 -0.2427 -0.0000
vn -1.0000 -0.0000 -0.0000
vn -0.9701 0.2427 -0.0000
vn -0.8538 0.5205 -0.0000
vn -0.5548 0.8320 -0.0000
vn -0.0000 1.0000 -0.0000
vn 0.5548 0.8320 -0.0000
vn 0.8538 0.5205 -0.0000
vn 0.9701 0.2427 -0.0000
vn -0.0000 -0.0000 -1.0000
vn -0.0000 -0.0000 1.0000
vt 0.871144 0.222244
vt 0.893594 0.223711
vt 0.879307 0.254975
vt 0.864467 0.238437
vt 0.848161 0.245453
vt 0.848334 0.222244
vt 0.107566 0.345865
vt 0.181142 0.345865
vt 0.181142 0.367080
vt 0.107566 0.367080
vt 0.107566 0.323731
vt 0.181142 0.323731
vt 0.107566 0.302201
vt 0.181142 0.302201
vt 0.107566 0.280752
vt 0.181142 0.280752
vt 0.107566 0.410430
vt 0.107566 0.388296
vt 0.181142 0.388296
vt 0.181142 0.410430
vt 0.296240 0.345865
vt 0.296240 0.367080
vt 0.296240 0.323731
vt 0.296240 0.302201
vt 0.296240 0.280752
vt 0.107566 0.431959
vt 0.181142 0.431959
vt 0.296240 0.388296
vt 0.296240 0.410430
vt 0.107566 0.453409
vt 0.181142 0.453409
vt 0.404482 0.345865
vt 0.404482 0.367080
vt 0.404482 0.323731
vt 0.404482 0.302201
vt 0.404482 0.280752
vt 0.296240 0.431959
vt 0.404482 0.388296
vt 0.404482 0.410430
vt 0.296240 0.453409
vt 0.500338 0.345865
vt 0.500338 0.367080
vt 0.500338 0.323731
vt 0.500338 0.302201
vt 0.500338 0.280752
vt 0.404482 0.431959
vt 0.500338 0.388296
vt 0.500338 0.410430
vt 0.404482 0.453409
vt 0.593479 0.345865
vt 0.593479 0.367080
vt 0.593479 0.323731
vt 0.593479 0.302201
vt 0.593479 0.280752
vt 0.500338 0.431959
vt 0.593479 0.388296
vt 0.593479 0.410430
vt 0.500338 0.453409
vt 0.694241 0.345865
vt 0.694241 0.367080
vt 0.694241 0.323731
vt 0.694241 0.302201
vt 0.694241 0.280752
vt 0.593479 0.431959
vt 0.694241 0.388296
vt 0.694241 0.410430
vt 0.593479 0.453409
vt 0.791351 0.345865
vt 0.791351 0.367080
vt 0.791351 0.323731
vt 0.791351 0.302201
vt 0.791351 0.280752
vt 0.694241 0.431959
vt 0.866936 0.302201
vt 0.866936 0.323731
vt 0.701106 0.627065
vt 0.701106 0.603881
vt 0.767681 0.603881
vt 0.767681 0.627065
vt 0.866936 0.280752
vt 0.791351 0.388296
vt 0.172392 0.199413
vt 0.084457 0.214086
vt 0.096978 0.181918
vt 0.171835 0.182751
vt 0.701106 0.580697
vt 0.701106 0.557506
vt 0.767681 0.557506
vt 0.767681 0.580697
vt 0.307589 0.184475
vt 0.306029 0.155595
vt 0.382656 0.155595
vt 0.386992 0.179927
vt 0.629857 0.603881
vt 0.629857 0.580697
vt 0.694241 0.453409
vt 0.866936 0.345865
vt 0.866936 0.367080
vt 0.791351 0.410430
vt 0.791351 0.431959
vt 0.791351 0.453409
vt 0.038344 0.174989
vt 0.042332 0.155595
vt 0.096738 0.155595
vt 0.028766 0.192952
vt 0.018208 0.210172
vt 0.065537 0.243286
vt 0.866936 0.410430
vt 0.866936 0.431959
vt 0.006699 0.226842
vt 0.051717 0.260144
vt 0.866936 0.388296
vt 0.866936 0.453409
vt 0.407983 0.534316
vt 0.482423 0.534316
vt 0.482423 0.557506
vt 0.407983 0.557506
vt 0.407983 0.511132
vt 0.482423 0.511132
vt 0.407983 0.487947
vt 0.482423 0.487947
vt 0.407983 0.464757
vt 0.482423 0.464757
vt 0.172392 0.111777
vt 0.171835 0.128439
vt 0.096978 0.129272
vt 0.084457 0.097104
vt 0.307589 0.126715
vt 0.386992 0.131264
vt 0.018208 0.101018
vt 0.065537 0.067904
vt 0.028766 0.118238
vt 0.038344 0.136201
vt 0.556031 0.534316
vt 0.556031 0.557506
vt 0.556031 0.511132
vt 0.556031 0.487947
vt 0.556031 0.464757
vt 0.407983 0.627065
vt 0.407983 0.603881
vt 0.482423 0.603881
vt 0.482423 0.627065
vt 0.006699 0.084348
vt 0.051718 0.051046
vt 0.629857 0.534316
vt 0.629857 0.557506
vt 0.629857 0.511132
vt 0.629857 0.487947
vt 0.629857 0.464757
vt 0.407983 0.580697
vt 0.482423 0.580697
vt 0.556031 0.603881
vt 0.556031 0.627065
vt 0.407983 0.650256
vt 0.482423 0.650256
vt 0.701106 0.534316
vt 0.701106 0.511132
vt 0.701106 0.487947
vt 0.701106 0.464757
vt 0.556031 0.580697
vt 0.395482 0.096912
vt 0.367906 0.070696
vt 0.404007 0.056610
vt 0.418212 0.076618
vt 0.556031 0.650256
vt 0.767681 0.534316
vt 0.767681 0.511132
vt 0.767681 0.487947
vt 0.767681 0.464757
vt 0.104495 0.072588
vt 0.175849 0.098807
vt 0.305536 0.205401
vt 0.395482 0.214278
vt 0.367906 0.240494
vt 0.302429 0.217198
vt 0.240980 0.200352
vt 0.240677 0.208292
vt 0.175849 0.212383
vt 0.172066 0.155595
vt 0.241778 0.155595
vt 0.241499 0.183103
vt 0.060285 0.040753
vt 0.076155 0.053961
vt 0.847998 0.267252
vt 0.240677 0.102898
vt 0.240980 0.110838
vt 0.701106 0.650256
vt 0.767681 0.650256
vt 0.104495 0.238602
vt 0.418212 0.234572
vt 0.404007 0.254581
vt 0.440845 0.250609
vt 0.429501 0.267719
vt 0.076154 0.257228
vt 0.060285 0.270437
vt 0.629857 0.627065
vt 0.629857 0.650256
vt 0.305537 0.105789
vt 0.302429 0.093992
vt 0.241499 0.128087
vt 0.831961 0.238195
vt 0.816875 0.254509
vt 0.825526 0.221903
vt 0.803056 0.223035
vt 0.832494 0.205942
vt 0.815765 0.190522
vt 0.848499 0.200070
vt 0.848672 0.176868
vt 0.429501 0.043472
vt 0.440845 0.060581
vt 0.881372 0.191011
vt 0.864415 0.206180
vt 0.850051 0.081722
vt 0.850445 0.100502
vt 0.835742 0.096609
vt 0.831239 0.082243
vt 0.066238 0.431959
vt 0.066238 0.410430
vt 0.066238 0.453409
vt 0.066238 0.302201
vt 0.066238 0.280752
vt 0.066238 0.367080
vt 0.066238 0.345865
vt 0.066238 0.388296
vt 0.066238 0.323731
vt 0.868795 0.081203
vt 0.864005 0.066736
vt 0.876094 0.053436
vt 0.887893 0.080674
vt 0.834941 0.067649
vt 0.810501 0.082817
vt 0.820900 0.054863
vt 0.849406 0.062949
vt 0.848303 0.043041
vt 0.864813 0.095913
vt 0.877619 0.108524
vt 0.850445 0.120440
vt 0.822431 0.110153
vt 0.253567 0.006978
vt 0.253567 0.032515
vt 0.177882 0.032515
vt 0.177882 0.006978
vt 0.109422 0.032515
vt 0.109422 0.006978
vt 0.052730 0.032515
vt 0.052730 0.006978
vt 0.006119 0.032515
vt 0.006119 0.006978
vt 0.995912 0.006978
vt 0.995912 0.032515
vt 0.949302 0.032515
vt 0.949302 0.006978
vt 0.892609 0.032515
vt 0.892609 0.006978
vt 0.824149 0.032515
vt 0.824149 0.006978
vt 0.748464 0.032515
vt 0.748464 0.006978
vt 0.672779 0.032515
vt 0.672779 0.006978
vt 0.604318 0.032515
vt 0.604318 0.006978
vt 0.547626 0.032515
vt 0.547626 0.006978
vt 0.501015 0.032515
vt 0.501015 0.006978
vt 0.454404 0.032515
vt 0.454404 0.006978
vt 0.397712 0.032515
vt 0.397712 0.006978
vt 0.329252 0.032515
vt 0.329252 0.006978
vt 0.746937 0.154153
vt 0.804473 0.154153
vt 0.789520 0.198301
vt 0.746937 0.235727
vt 0.469128 0.072579
vt 0.469128 0.154153
vt 0.411592 0.154153
vt 0.426545 0.110005
vt 0.532858 0.047571
vt 0.532858 0.154153
vt 0.469128 0.235727
vt 0.426545 0.198301
vt 0.746937 0.072579
vt 0.789520 0.110005
vt 0.532858 0.260735
vt 0.608033 0.154153
vt 0.608032 0.269516
vt 0.608033 0.038790
vt 0.683207 0.154153
vt 0.683207 0.260735
vt 0.683207 0.047571
vt 0.139267 0.538173
vt 0.065746 0.540287
vt 0.062693 0.498577
vt 0.126422 0.473571
vt 0.205064 0.538633
vt 0.201596 0.464790
vt 0.272937 0.541172
vt 0.276769 0.473572
vt 0.351212 0.548735
vt 0.340498 0.498580
vt 0.386782 0.559140
vt 0.383080 0.536006
vt 0.394667 0.580153
vt 0.398032 0.580153
vt 0.386782 0.601166
vt 0.383079 0.624300
vt 0.351211 0.611570
vt 0.340497 0.661726
vt 0.272936 0.619132
vt 0.276767 0.686732
vt 0.205064 0.621670
vt 0.201594 0.695513
vt 0.139266 0.622129
vt 0.126421 0.686731
vt 0.065746 0.620013
vt 0.062692 0.661723
vt 0.025541 0.607699
vt 0.020110 0.624297
vt 0.011067 0.580150
vt 0.005157 0.580150
vt 0.025542 0.552602
vt 0.020111 0.536003
s 1
f 151/1/1 167/2/2 166/3/3 150/4/4
f 150/4/4 88/5/5 139/6/6 151/1/1
f 2/7/7 7/8/8 6/9/9 1/10/10
f 3/11/11 8/12/12 7/8/8 2/7/7
f 4/13/13 9/14/14 8/12/12 3/11/11
f 5/15/15 10/16/16 9/14/14 4/13/13
f 27/17/17 26/18/18 44/19/19 49/20/20
f 7/8/8 12/21/21 11/22/22 6/9/9
f 8/12/12 13/23/23 12/21/21 7/8/8
f 9/14/14 14/24/24 13/23/23 8/12/12
f 10/16/16 15/25/25 14/24/24 9/14/14
f 26/18/18 1/10/10 6/9/9 44/19/19
f 33/26/26 27/17/17 49/20/20 50/27/27
f 49/20/20 44/19/19 57/28/28 63/29/29
f 5/30/15 33/26/26 50/27/27 10/31/16
f 12/21/21 17/32/30 16/33/31 11/22/22
f 13/23/23 18/34/32 17/32/30 12/21/21
f 14/24/24 19/35/33 18/34/32 13/23/23
f 15/25/25 20/36/34 19/35/33 14/24/24
f 44/19/19 6/9/9 11/22/22 57/28/28
f 50/27/27 49/20/20 63/29/29 69/37/35
f 63/29/29 57/28/28 75/38/36 81/39/37
f 10/31/16 50/27/27 69/37/35 15/40/25
f 17/32/30 22/41/38 21/42/39 16/33/31
f 18/34/32 23/43/40 22/41/38 17/32/30
f 19/35/33 24/44/41 23/43/40 18/34/32
f 20/36/34 25/45/42 24/44/41 19/35/33
f 57/28/28 11/22/22 16/33/31 75/38/36
f 69/37/35 63/29/29 81/39/37 82/46/43
f 81/39/37 75/38/36 95/47/44 99/48/45
f 15/40/25 69/37/35 82/46/43 20/49/34
f 22/41/38 29/50/46 28/51/47 21/42/39
f 23/43/40 30/52/48 29/50/46 22/41/38
f 24/44/41 31/53/49 30/52/48 23/43/40
f 25/45/42 32/54/50 31/53/49 24/44/41
f 75/38/36 16/33/31 21/42/39 95/47/44
f 82/46/43 81/39/37 99/48/45 100/55/51
f 99/48/45 95/47/44 114/56/52 115/57/53
f 20/49/34 82/46/43 100/55/51 25/58/42
f 29/50/46 35/59/54 34/60/55 28/51/47
f 30/52/48 36/61/56 35/59/54 29/50/46
f 31/53/49 37/62/57 36/61/56 30/52/48
f 32/54/50 38/63/58 37/62/57 31/53/49
f 95/47/44 21/42/39 28/51/47 114/56/52
f 100/55/51 99/48/45 115/57/53 116/64/59
f 115/57/53 114/56/52 117/65/60 118/66/61
f 25/58/42 100/55/51 116/64/59 32/67/50
f 35/59/54 40/68/62 39/69/63 34/60/55
f 36/61/56 41/70/64 40/68/62 35/59/54
f 37/62/57 42/71/65 41/70/64 36/61/56
f 38/63/58 43/72/66 42/71/65 37/62/57
f 114/56/52 28/51/47 34/60/55 117/65/60
f 116/64/59 115/57/53 118/66/61 119/73/67
f 41/70/64 42/71/65 45/74/68 46/75/69
f 149/76/70 148/77/71 167/78/2 168/79/72
f 42/71/65 43/72/66 51/80/73 45/74/68
f 117/65/60 34/60/55 39/69/63 120/81/74
f 105/82/75 54/83/76 55/84/77 106/85/78
f 147/86/79 83/87/80 132/88/81 166/89/3
f 103/90/82 101/91/83 48/92/84 47/93/85
f 145/94/86 144/95/87 147/86/79 148/77/71
f 32/67/50 116/64/59 119/73/67 38/96/58
f 39/69/63 40/68/62 47/97/85 48/98/84
f 40/68/62 41/70/64 46/75/69 47/97/85
f 118/66/61 117/65/60 120/81/74 121/99/88
f 38/96/58 119/73/67 122/100/89 43/101/66
f 59/102/90 58/103/91 56/104/92 55/84/77
f 60/105/93 59/102/90 55/84/77 54/83/76
f 61/106/94 60/105/93 54/83/76 53/107/95
f 121/99/88 124/108/96 123/109/97 122/100/89
f 62/110/98 61/106/94 53/107/95 52/111/99
f 119/73/67 118/66/61 121/99/88 122/100/89
f 39/69/63 48/98/84 125/112/100 120/81/74
f 122/100/89 123/109/97 51/113/73 43/101/66
f 59/114/90 65/115/101 64/116/102 58/117/91
f 60/118/93 66/119/103 65/115/101 59/114/90
f 61/120/94 67/121/104 66/119/103 60/118/93
f 62/122/98 68/123/105 67/121/104 61/120/94
f 160/124/106 161/125/107 128/126/108 127/127/109
f 158/128/110 125/129/100 48/92/84 101/91/83
f 131/130/111 126/131/112 127/127/109 130/132/113
f 129/133/114 128/126/108 56/104/92 58/103/91
f 65/115/101 71/134/115 70/135/116 64/116/102
f 66/119/103 72/136/117 71/134/115 65/115/101
f 67/121/104 73/137/118 72/136/117 66/119/103
f 68/123/105 74/138/119 73/137/118 67/121/104
f 120/81/74 125/112/100 124/108/96 121/99/88
f 130/132/113 127/127/109 128/126/108 129/133/114
f 131/139/111 130/140/113 138/141/120 140/142/121
f 62/143/98 52/144/99 126/131/112 131/130/111
f 71/134/115 77/145/122 76/146/123 70/135/116
f 72/136/117 78/147/124 77/145/122 71/134/115
f 73/137/118 79/148/125 78/147/124 72/136/117
f 74/138/119 80/149/126 79/148/125 73/137/118
f 129/150/114 58/117/91 64/116/102 137/151/127
f 130/140/113 129/150/114 137/151/127 138/141/120
f 140/142/121 138/141/120 142/152/128 143/153/129
f 62/154/98 131/139/111 140/142/121 68/155/105
f 77/145/122 84/156/130 83/87/80 76/146/123
f 78/147/124 85/157/131 84/156/130 77/145/122
f 79/148/125 86/158/132 85/157/131 78/147/124
f 80/149/126 87/159/133 86/158/132 79/148/125
f 137/151/127 64/116/102 70/135/116 141/160/134
f 138/141/120 137/151/127 141/160/134 142/152/128
f 124/161/96 153/162/135 163/163/136 123/164/97
f 68/155/105 140/142/121 143/153/129 74/165/119
f 84/156/130 133/166/137 132/88/81 83/87/80
f 85/157/131 134/167/138 133/166/137 84/156/130
f 86/158/132 135/168/139 134/167/138 85/157/131
f 87/159/133 136/169/140 135/168/139 86/158/132
f 141/160/134 70/135/116 76/146/123 144/95/87
f 127/127/109 165/170/141 162/171/142 160/124/106
f 102/172/143 46/173/69 93/174/144 104/175/145
f 105/82/75 94/176/146 98/177/147 107/178/148
f 106/85/78 108/179/149 96/180/150 97/181/151
f 144/95/87 76/146/123 83/87/80 147/86/79
f 102/172/143 94/176/146 97/181/151 103/90/82
f 46/173/69 102/172/143 103/90/82 47/93/85
f 94/176/146 102/172/143 104/175/145 98/177/147
f 97/181/151 96/180/150 101/91/83 103/90/82
f 52/144/99 110/182/152 164/183/153 126/131/112
f 150/4/4 166/3/3 132/184/81 88/5/5
f 160/124/106 162/171/142 156/185/154 154/186/155
f 87/187/133 149/76/70 168/79/72 136/188/140
f 55/84/77 56/104/92 108/179/149 106/85/78
f 54/83/76 105/82/75 107/178/148 113/189/156
f 94/176/146 105/82/75 106/85/78 97/181/151
f 46/173/69 45/190/68 109/191/157 93/174/144
f 45/190/68 51/192/73 111/193/158 109/191/157
f 53/107/95 54/83/76 113/189/156 112/194/159
f 52/111/99 53/107/95 112/194/159 110/195/152
f 146/196/160 145/94/86 148/77/71 149/76/70
f 80/197/126 146/196/160 149/76/70 87/187/133
f 74/165/119 143/153/129 146/196/160 80/197/126
f 157/198/161 159/199/162 153/162/135 124/161/96
f 155/200/163 158/128/110 101/91/83 96/180/150
f 148/77/71 147/86/79 166/89/3 167/78/2
f 161/125/107 155/200/163 96/180/150 108/179/149
f 157/198/161 158/128/110 155/200/163 154/186/155
f 154/186/155 156/185/154 159/199/162 157/198/161
f 124/161/96 125/129/100 158/128/110 157/198/161
f 143/153/129 142/152/128 145/94/86 146/196/160
f 89/201/164 88/5/5 132/184/81 133/202/137
f 90/203/165 89/201/164 133/202/137 134/204/138
f 91/205/166 90/203/165 134/204/138 135/206/139
f 92/207/167 91/205/166 135/206/139 136/208/140
f 154/186/155 155/200/163 161/125/107 160/124/106
f 126/131/112 164/183/153 165/170/141 127/127/109
f 128/126/108 161/125/107 108/179/149 56/104/92
f 123/164/97 163/163/136 111/209/158 51/210/73
f 90/203/165 91/205/166 92/207/167 139/6/6
f 142/152/128 141/160/134 144/95/87 145/94/86
f 89/201/164 90/203/165 139/6/6 88/5/5
f 92/207/167 136/208/140 168/211/72 152/212/168
f 151/1/1 139/6/6 92/207/167 152/212/168
f 152/212/168 168/211/72 167/2/2 151/1/1
f 185/213/169 174/214/170 175/215/171 176/216/172
f 27/17/17 33/26/26 177/217/173 181/218/174
f 33/26/26 5/30/15 178/219/175 177/217/173
f 5/15/15 4/13/13 182/220/176 178/221/175
f 2/7/7 1/10/10 179/222/177 184/223/178
f 26/18/18 27/17/17 181/218/174 180/224/179
f 1/10/10 26/18/18 180/224/179 179/222/177
f 4/13/13 3/11/11 183/225/180 182/220/176
f 3/11/11 2/7/7 184/223/178 183/225/180
f 172/226/181 169/227/182 177/228/173 178/229/175
f 171/230/183 176/216/172 179/231/177 180/232/179
f 169/227/182 170/233/184 181/234/174 177/228/173
f 170/233/184 171/230/183 180/232/179 181/234/174
f 173/235/185 172/226/181 178/229/175 182/236/176
f 174/214/170 173/235/185 182/236/176 183/237/180
f 175/215/171 174/214/170 183/237/180 184/238/178
f 176/216/172 175/215/171 184/238/178 179/231/177
f 172/226/181 173/235/185 174/214/170 185/213/169
f 170/233/184 185/213/169 176/216/172 171/230/183
f 169/227/182 172/226/181 185/213/169 170/233/184
f 186/239/186 187/240/186 189/241/187 188/242/187
f 188/242/187 189/241/187 191/243/188 190/244/188
f 190/244/188 191/243/188 193/245/189 192/246/189
f 192/246/189 193/245/189 195/247/152 194/248/152
f 194/249/152 195/250/152 197/251/190 196/252/190
f 196/252/190 197/251/190 199/253/191 198/254/191
f 198/254/191 199/253/191 201/255/192 200/256/192
f 200/256/192 201/255/192 203/257/193 202/258/193
f 202/258/193 203/257/193 205/259/194 204/260/194
f 204/260/194 205/259/194 207/261/195 206/262/195
f 206/262/195 207/261/195 209/263/196 208/264/196
f 208/264/196 209/263/196 211/265/197 210/266/197
f 210/266/197 211/265/197 213/267/198 212/268/198
f 212/268/198 213/267/198 215/269/199 214/270/199
f 214/270/199 215/269/199 217/271/200 216/272/200
f 216/272/200 217/271/200 187/240/186 186/239/186
f 222/273/201 194/274/201 196/275/201 198/276/201
f 214/277/201 218/278/201 210/279/201 212/280/201
f 216/281/201 219/282/201 218/278/201 214/277/201
f 210/279/201 218/278/201 206/283/201 208/284/201
f 190/285/201 192/286/201 194/274/201 222/273/201
f 218/278/201 219/282/201 204/287/201 206/283/201
f 219/282/201 220/288/201 202/289/201 204/287/201
f 216/281/201 186/290/201 220/288/201 219/282/201
f 220/288/201 221/291/201 200/292/201 202/289/201
f 186/290/201 188/293/201 221/291/201 220/288/201
f 221/291/201 222/273/201 198/276/201 200/292/201
f 188/293/201 190/285/201 222/273/201 221/291/201
f 104/294/202 93/295/202 207/296/202 205/297/202
f 98/298/202 104/294/202 205/297/202 203/299/202
f 107/300/202 98/298/202 203/299/202 201/301/202
f 113/302/202 107/300/202 201/301/202 199/303/202
f 112/304/202 113/302/202 199/303/202 197/305/202
f 110/306/202 112/304/202 197/305/202 195/307/202
f 164/308/202 110/306/202 195/307/202 193/309/202
f 165/310/202 164/308/202 193/309/202 191/311/202
f 162/312/202 165/310/202 191/311/202 189/313/202
f 156/314/202 162/312/202 189/313/202 187/315/202
f 159/316/202 156/314/202 187/315/202 217/317/202
f 153/318/202 159/316/202 217/317/202 215/319/202
f 163/320/202 153/318/202 215/319/202 213/321/202
f 111/322/202 163/320/202 213/321/202 211/323/202
f 109/324/202 111/322/202 211/323/202 209/325/202
f 93/295/202 109/324/202 209/325/202 207/296/202
