# Blender 4.0.2
# www.blender.org
o medieval_bookcase
v 0.458906 0.000000 0.150000
v 0.458906 0.000000 -0.150000
v 0.500000 0.000000 0.150000
v 0.500000 0.000000 -0.150000
v 0.458906 1.102116 0.150000
v 0.458906 1.400000 0.000000
v 0.458906 1.195408 0.138903
v 0.458906 1.273536 0.111171
v 0.458906 1.341541 0.066131
v 0.458906 1.377856 0.027583
v 0.458906 1.102116 -0.150000
v 0.458906 1.377856 -0.027583
v 0.458906 1.341541 -0.066131
v 0.458906 1.273536 -0.111171
v 0.458906 1.195408 -0.138903
v 0.500000 1.400000 0.000000
v 0.500000 1.102116 0.150000
v 0.500000 1.377856 0.027583
v 0.500000 1.341541 0.066131
v 0.500000 1.273536 0.111171
v 0.500000 1.195408 0.138903
v 0.500000 1.102116 -0.150000
v 0.500000 1.195408 -0.138903
v 0.500000 1.273536 -0.111171
v 0.500000 1.341541 -0.066131
v 0.500000 1.377856 -0.027583
v 0.500000 1.102116 0.000000
v 0.458906 1.102116 0.000000
v 0.500000 0.000000 0.083841
v 0.458906 0.000000 0.083841
v 0.500000 0.000000 -0.083841
v 0.458906 0.000000 -0.083841
v 0.500000 0.019777 -0.080534
v 0.500000 0.053412 -0.061638
v 0.500000 0.019777 0.080534
v 0.500000 0.053412 0.061638
v 0.458906 0.053412 -0.061638
v 0.458906 0.019777 -0.080534
v 0.458906 0.019777 0.080534
v 0.458906 0.053412 0.061638
v 0.500000 0.145081 0.000000
v 0.500000 0.132367 -0.030694
v 0.500000 0.141777 -0.016611
v 0.500000 0.101673 -0.043407
v 0.500000 0.085062 -0.040103
v 0.500000 0.118285 -0.040103
v 0.500000 0.075567 -0.033759
v 0.500000 0.132367 0.030694
v 0.500000 0.141777 0.016611
v 0.500000 0.101673 0.043407
v 0.500000 0.085062 0.040103
v 0.500000 0.118285 0.040103
v 0.500000 0.075567 0.033759
v 0.458906 0.145081 0.000000
v 0.458906 0.075567 -0.033759
v 0.458906 0.101673 -0.043407
v 0.458906 0.118285 -0.040103
v 0.458906 0.085062 -0.040103
v 0.458906 0.141777 -0.016611
v 0.458906 0.132367 -0.030694
v 0.458906 0.132367 0.030694
v 0.458906 0.141777 0.016611
v 0.458906 0.101673 0.043407
v 0.458906 0.075567 0.033759
v 0.458906 0.085062 0.040103
v 0.458906 0.118285 0.040103
v 0.500000 1.195408 0.000000
v 0.500000 1.273536 0.000000
v 0.500000 1.341541 0.000000
v 0.458906 1.341541 0.000000
v 0.458906 1.273536 0.000000
v 0.458906 1.195408 0.000000
v 0.458906 0.019777 0.150000
v 0.500000 0.019777 0.150000
v 0.458906 0.019777 -0.150000
v 0.500000 0.019777 -0.150000
v 0.458906 0.053412 -0.150000
v 0.500000 0.053412 -0.150000
v 0.458906 0.053412 0.150000
v 0.500000 0.053412 0.150000
v 0.458906 0.075567 -0.150000
v 0.500000 0.075567 -0.150000
v 0.458906 0.075567 0.150000
v 0.500000 0.075567 0.150000
v 0.500000 0.188045 -0.150000
v 0.458906 0.188045 0.150000
v 0.458906 0.188045 0.000000
v 0.458906 0.188045 -0.150000
v 0.500000 0.188045 0.000000
v 0.500000 0.188045 0.150000
v 0.500000 0.085062 -0.150000
v 0.458906 0.085062 -0.150000
v 0.458906 0.085062 0.150000
v 0.500000 0.085062 0.150000
v 0.458906 0.101673 0.150000
v 0.500000 0.101673 0.150000
v 0.500000 0.101673 -0.150000
v 0.458906 0.101673 -0.150000
v 0.500000 0.118285 -0.150000
v 0.458906 0.118285 -0.150000
v 0.458906 0.118285 0.150000
v 0.500000 0.118285 0.150000
v 0.500000 0.132367 -0.150000
v 0.458906 0.132367 -0.150000
v 0.458906 0.132367 0.150000
v 0.500000 0.132367 0.150000
v -0.458906 0.000000 0.150000
v -0.458906 0.000000 -0.150000
v -0.500000 0.000000 0.150000
v -0.500000 0.000000 -0.150000
v -0.458906 1.102116 0.150000
v -0.458906 1.400000 0.000000
v -0.458906 1.195408 0.138903
v -0.458906 1.273536 0.111171
v -0.458906 1.341541 0.066131
v -0.458906 1.377856 0.027583
v -0.458906 1.102116 -0.150000
v -0.458906 1.377856 -0.027583
v -0.458906 1.341541 -0.066131
v -0.458906 1.273536 -0.111171
v -0.458906 1.195408 -0.138903
v -0.500000 1.400000 0.000000
v -0.500000 1.102116 0.150000
v -0.500000 1.377856 0.027583
v -0.500000 1.341541 0.066131
v -0.500000 1.273536 0.111171
v -0.500000 1.195408 0.138903
v -0.500000 1.102116 -0.150000
v -0.500000 1.195408 -0.138903
v -0.500000 1.273536 -0.111171
v -0.500000 1.341541 -0.066131
v -0.500000 1.377856 -0.027583
v -0.500000 1.102116 0.000000
v -0.458906 1.102116 0.000000
v -0.500000 0.000000 0.083841
v -0.458906 0.000000 0.083841
v -0.500000 0.000000 -0.083841
v -0.458906 0.000000 -0.083841
v -0.500000 0.019777 -0.080534
v -0.500000 0.053412 -0.061638
v -0.500000 0.019777 0.080534
v -0.500000 0.053412 0.061638
v -0.458906 0.053412 -0.061638
v -0.458906 0.019777 -0.080534
v -0.458906 0.019777 0.080534
v -0.458906 0.053412 0.061638
v -0.500000 0.145081 0.000000
v -0.500000 0.132367 -0.030694
v -0.500000 0.141777 -0.016611
v -0.500000 0.101673 -0.043407
v -0.500000 0.085062 -0.040103
v -0.500000 0.118285 -0.040103
v -0.500000 0.075567 -0.033759
v -0.500000 0.132367 0.030694
v -0.500000 0.141777 0.016611
v -0.500000 0.101673 0.043407
v -0.500000 0.085062 0.040103
v -0.500000 0.118285 0.040103
v -0.500000 0.075567 0.033759
v -0.458906 0.145081 0.000000
v -0.458906 0.075567 -0.033759
v -0.458906 0.101673 -0.043407
v -0.458906 0.118285 -0.040103
v -0.458906 0.085062 -0.040103
v -0.458906 0.141777 -0.016611
v -0.458906 0.132367 -0.030694
v -0.458906 0.132367 0.030694
v -0.458906 0.141777 0.016611
v -0.458906 0.101673 0.043407
v -0.458906 0.075567 0.033759
v -0.458906 0.085062 0.040103
v -0.458906 0.118285 0.040103
v -0.500000 1.195408 0.000000
v -0.500000 1.273536 0.000000
v -0.500000 1.341541 0.000000
v -0.458906 1.341541 0.000000
v -0.458906 1.273536 0.000000
v -0.458906 1.195408 0.000000
v -0.458906 0.019777 0.150000
v -0.500000 0.019777 0.150000
v -0.458906 0.019777 -0.150000
v -0.500000 0.019777 -0.150000
v -0.458906 0.053412 -0.150000
v -0.500000 0.053412 -0.150000
v -0.458906 0.053412 0.150000
v -0.500000 0.053412 0.150000
v -0.458906 0.075567 -0.150000
v -0.500000 0.075567 -0.150000
v -0.458906 0.075567 0.150000
v -0.500000 0.075567 0.150000
v -0.500000 0.188045 -0.150000
v -0.458906 0.188045 0.150000
v -0.458906 0.188045 0.000000
v -0.458906 0.188045 -0.150000
v -0.500000 0.188045 0.000000
v -0.500000 0.188045 0.150000
v -0.500000 0.085062 -0.150000
v -0.458906 0.085062 -0.150000
v -0.458906 0.085062 0.150000
v -0.500000 0.085062 0.150000
v -0.458906 0.101673 0.150000
v -0.500000 0.101673 0.150000
v -0.500000 0.101673 -0.150000
v -0.458906 0.101673 -0.150000
v -0.500000 0.118285 -0.150000
v -0.458906 0.118285 -0.150000
v -0.458906 0.118285 0.150000
v -0.500000 0.118285 0.150000
v -0.500000 0.132367 -0.150000
v -0.458906 0.132367 -0.150000
v -0.458906 0.132367 0.150000
v -0.500000 0.132367 0.150000
v -0.458906 1.112347 0.127359
v -0.458906 1.112347 -0.127359
v -0.458906 1.138900 0.127359
v -0.458906 1.138900 -0.127359
v 0.458906 1.112347 0.127359
v 0.458906 1.112347 -0.127359
v 0.458906 1.138900 0.127359
v 0.458906 1.138900 -0.127359
v -0.458906 0.843101 0.127359
v -0.458906 0.843101 -0.127359
v -0.458906 0.869654 0.127359
v -0.458906 0.869654 -0.127359
v 0.458906 0.843101 0.127359
v 0.458906 0.843101 -0.127359
v 0.458906 0.869654 0.127359
v 0.458906 0.869654 -0.127359
v -0.458906 0.573855 0.127359
v -0.458906 0.573855 -0.127359
v -0.458906 0.600408 0.127359
v -0.458906 0.600408 -0.127359
v 0.458906 0.573855 0.127359
v 0.458906 0.573855 -0.127359
v 0.458906 0.600408 0.127359
v 0.458906 0.600408 -0.127359
v -0.458906 0.304609 0.127359
v -0.458906 0.304609 -0.127359
v -0.458906 0.331162 0.127359
v -0.458906 0.331162 -0.127359
v 0.458906 0.304609 0.127359
v 0.458906 0.304609 -0.127359
v 0.458906 0.331162 0.127359
v 0.458906 0.331162 -0.127359
vn -0.0000 -0.0000 -1.0000
vn 1.0000 -0.0000 -0.0000
vn -0.0000 -1.0000 -0.0000
vn -1.0000 -0.0000 -0.0000
vn -0.0000 -0.0000 1.0000
vn -0.0000 0.7798 -0.6260
vn -0.0000 0.7544 -0.6564
vn -0.0000 0.6443 -0.7648
vn -0.0000 0.4467 -0.8947
vn -0.0000 0.2277 -0.9737
vn -0.0000 0.0592 -0.9982
vn -0.0000 0.7798 0.6260
vn -0.0000 0.7544 0.6564
vn -0.0000 0.6443 0.7648
vn -0.0000 0.4467 0.8947
vn -0.0000 0.2277 0.9737
vn -0.0000 0.0592 0.9982
vn -0.0000 -0.1650 -0.9863
vn -0.0000 -0.3323 -0.9432
vn -0.0000 -0.6485 -0.7612
vn -0.0000 -0.7829 -0.6222
vn -0.0000 -0.6485 0.7612
vn -0.0000 -0.7829 0.6222
vn -0.0000 -0.3323 0.9432
vn -0.0000 -0.1650 0.9863
vn -0.0000 0.3827 0.9239
vn -0.0000 0.5556 0.8315
vn -0.0000 0.5556 -0.8315
vn -0.0000 0.3827 -0.9239
vn -0.0000 -0.3827 -0.9239
vn -0.0000 -0.7071 -0.7071
vn -0.0000 -0.9239 -0.3827
vn -0.0000 -0.9239 0.3827
vn -0.0000 -0.7071 0.7071
vn -0.0000 -0.3827 0.9239
vn -0.0000 1.0000 -0.0000
vt 0.985199 0.004885
vt 0.985199 0.013537
vt 0.967221 0.013537
vt 0.967221 0.004885
vt 0.591785 0.482511
vt 0.617360 0.482511
vt 0.607672 0.494579
vt 0.591785 0.511443
vt 0.591785 0.453580
vt 0.607672 0.470444
vt 0.795253 0.112593
vt 0.813231 0.112593
vt 0.813230 0.141535
vt 0.795253 0.141535
vt 0.591785 0.908510
vt 0.617360 0.908510
vt 0.607672 0.920578
vt 0.591785 0.937442
vt 0.795372 0.006738
vt 0.813349 0.006738
vt 0.813349 0.035680
vt 0.795372 0.035680
vt 0.901962 0.004885
vt 0.901962 0.013537
vt 0.883985 0.013537
vt 0.883985 0.004885
vt 0.985199 0.638717
vt 0.967221 0.638717
vt 0.967221 0.623242
vt 0.985199 0.623242
vt 0.967221 0.600074
vt 0.985199 0.600074
vt 0.967221 0.564391
vt 0.985199 0.564391
vt 0.967221 0.528124
vt 0.985199 0.528124
vt 0.967221 0.487024
vt 0.985199 0.487024
vt 0.901962 0.638715
vt 0.883985 0.638715
vt 0.883985 0.623241
vt 0.901962 0.623241
vt 0.883985 0.600073
vt 0.901962 0.600073
vt 0.883985 0.564390
vt 0.901962 0.564390
vt 0.883985 0.528122
vt 0.901962 0.528122
vt 0.883985 0.487022
vt 0.901962 0.487022
vt 0.591785 0.879579
vt 0.607672 0.896443
vt 0.028247 0.455545
vt 0.028247 0.416888
vt 0.037940 0.416888
vt 0.037940 0.467742
vt 0.066905 0.489778
vt 0.087147 0.548134
vt 0.062789 0.548134
vt 0.062789 0.495939
vt 0.487040 0.908510
vt 0.487040 0.974133
vt 0.087147 0.974133
vt 0.087147 0.908510
vt 0.037939 0.893741
vt 0.037940 0.842887
vt 0.042093 0.842887
vt 0.042093 0.890965
vt 0.789805 0.346017
vt 0.771828 0.346017
vt 0.771828 0.337245
vt 0.789805 0.337245
vt 0.771828 0.320368
vt 0.789805 0.320368
vt 0.771828 0.304789
vt 0.789805 0.304789
vt 0.771828 0.205128
vt 0.789805 0.205128
vt 0.789805 0.220706
vt 0.771828 0.220706
vt 0.789805 0.188251
vt 0.771828 0.188251
vt 0.789805 0.179479
vt 0.771828 0.179479
vt 0.789805 0.225702
vt 0.789805 0.233111
vt 0.771828 0.233111
vt 0.771828 0.225702
vt 0.771828 0.299794
vt 0.789805 0.299794
vt 0.771828 0.292385
vt 0.789805 0.292385
vt 0.771828 0.284975
vt 0.789805 0.284975
vt 0.771828 0.277566
vt 0.789805 0.277566
vt 0.771828 0.270157
vt 0.789805 0.270157
vt 0.789805 0.262748
vt 0.771828 0.262748
vt 0.771828 0.255338
vt 0.789805 0.255338
vt 0.771828 0.247929
vt 0.789805 0.247929
vt 0.771828 0.240520
vt 0.789805 0.240520
vt 0.487040 0.482511
vt 0.487040 0.416888
vt 0.527854 0.421743
vt 0.527854 0.482511
vt 0.527854 0.543279
vt 0.487040 0.548134
vt 0.562034 0.433875
vt 0.562034 0.482511
vt 0.562034 0.531147
vt 0.562033 0.908510
vt 0.562033 0.957146
vt 0.562034 0.859874
vt 0.527854 0.908510
vt 0.527854 0.969278
vt 0.527854 0.847742
vt 0.487040 0.842888
vt 0.013532 0.517744
vt 0.013532 0.548134
vt 0.004880 0.548134
vt 0.004880 0.519191
vt 0.901962 0.028251
vt 0.883985 0.028251
vt 0.013532 0.842887
vt 0.013532 0.873278
vt 0.004880 0.871831
vt 0.004880 0.842887
vt 0.013532 0.943743
vt 0.013532 0.974133
vt 0.004880 0.974133
vt 0.004880 0.945190
vt 0.985199 0.028251
vt 0.967221 0.028251
vt 0.013532 0.416888
vt 0.013532 0.447279
vt 0.004880 0.445832
vt 0.004880 0.416888
vt 0.985199 0.037943
vt 0.967221 0.037943
vt 0.028247 0.935476
vt 0.028247 0.974133
vt 0.028247 0.509477
vt 0.028247 0.548134
vt 0.901962 0.037943
vt 0.883985 0.037943
vt 0.028247 0.842887
vt 0.028247 0.881544
vt 0.037940 0.923280
vt 0.037940 0.974133
vt 0.042094 0.416888
vt 0.042094 0.464967
vt 0.985199 0.042097
vt 0.967221 0.042097
vt 0.901962 0.042097
vt 0.883985 0.042097
vt 0.037940 0.497280
vt 0.037940 0.548134
vt 0.087147 0.482511
vt 0.087147 0.416888
vt 0.967221 0.087149
vt 0.985199 0.087149
vt 0.062788 0.974133
vt 0.062788 0.921938
vt 0.066905 0.915777
vt 0.883985 0.087148
vt 0.901962 0.087149
vt 0.087147 0.842887
vt 0.049361 0.416888
vt 0.049361 0.463521
vt 0.985199 0.049364
vt 0.967221 0.049364
vt 0.042093 0.926055
vt 0.042093 0.974133
vt 0.042094 0.500056
vt 0.042094 0.548134
vt 0.901962 0.049364
vt 0.883985 0.049364
vt 0.049360 0.842887
vt 0.049360 0.889520
vt 0.049361 0.501501
vt 0.049361 0.548134
vt 0.901962 0.056631
vt 0.883985 0.056631
vt 0.056628 0.842887
vt 0.056628 0.890965
vt 0.056628 0.416888
vt 0.056628 0.464967
vt 0.049360 0.927500
vt 0.049360 0.974133
vt 0.985199 0.056631
vt 0.967221 0.056631
vt 0.056628 0.926055
vt 0.056628 0.974133
vt 0.985199 0.062791
vt 0.967221 0.062791
vt 0.062789 0.416888
vt 0.062789 0.469083
vt 0.056628 0.500056
vt 0.056628 0.548134
vt 0.901962 0.062791
vt 0.883985 0.062791
vt 0.062789 0.842887
vt 0.062788 0.895082
vt 0.066905 0.475244
vt 0.068351 0.482511
vt 0.066905 0.901243
vt 0.068351 0.908510
vt 0.487036 0.624507
vt 0.487036 0.558885
vt 0.527849 0.563739
vt 0.527849 0.624507
vt 0.790464 0.095561
vt 0.790464 0.102971
vt 0.772487 0.102971
vt 0.772487 0.095561
vt 0.772487 0.088152
vt 0.790464 0.088152
vt 0.939474 0.564392
vt 0.939474 0.528124
vt 0.957451 0.528124
vt 0.957451 0.564392
vt 0.790464 0.065924
vt 0.790464 0.073334
vt 0.772487 0.073334
vt 0.772487 0.065924
vt 0.939474 0.487024
vt 0.957451 0.487024
vt 0.562029 0.624507
vt 0.591780 0.624507
vt 0.591780 0.653438
vt 0.562029 0.673143
vt 0.939474 0.623243
vt 0.939474 0.600075
vt 0.957451 0.600075
vt 0.957451 0.623243
vt 0.939474 0.638717
vt 0.957451 0.638717
vt 0.911736 0.004885
vt 0.929713 0.004885
vt 0.929713 0.013537
vt 0.911736 0.013537
vt 0.812673 0.043958
vt 0.812673 0.072900
vt 0.794696 0.072900
vt 0.794696 0.043958
vt 0.939474 0.004885
vt 0.957451 0.004885
vt 0.957451 0.013537
vt 0.939474 0.013537
vt 0.591783 0.766504
vt 0.591783 0.737572
vt 0.607670 0.754437
vt 0.617358 0.766504
vt 0.607670 0.778571
vt 0.591783 0.795435
vt 0.591780 0.595575
vt 0.607667 0.612440
vt 0.617354 0.624507
vt 0.794032 0.107029
vt 0.794032 0.078087
vt 0.812009 0.078087
vt 0.812009 0.107029
vt 0.772487 0.058515
vt 0.790464 0.058515
vt 0.028247 0.597541
vt 0.013532 0.589275
vt 0.013532 0.558885
vt 0.028247 0.558885
vt 0.062788 0.637935
vt 0.066905 0.631774
vt 0.087147 0.690129
vt 0.062788 0.690129
vt 0.929713 0.037944
vt 0.929713 0.042097
vt 0.911736 0.042097
vt 0.911736 0.037944
vt 0.957451 0.042097
vt 0.957451 0.049364
vt 0.939474 0.049364
vt 0.939474 0.042097
vt 0.911736 0.600073
vt 0.911736 0.564390
vt 0.929713 0.564390
vt 0.929713 0.600073
vt 0.911736 0.528122
vt 0.929713 0.528122
vt 0.790464 0.030532
vt 0.790464 0.046111
vt 0.772487 0.046111
vt 0.772487 0.030532
vt 0.911736 0.487023
vt 0.929713 0.487023
vt 0.911736 0.638715
vt 0.911736 0.623241
vt 0.929713 0.623241
vt 0.929713 0.638715
vt 0.028247 0.793469
vt 0.037940 0.781273
vt 0.037940 0.832127
vt 0.028247 0.832127
vt 0.066905 0.759237
vt 0.062789 0.753076
vt 0.062789 0.700881
vt 0.087147 0.700881
vt 0.772487 0.004883
vt 0.790464 0.004883
vt 0.790464 0.013655
vt 0.772487 0.013655
vt 0.772487 0.051106
vt 0.790464 0.051106
vt 0.790464 0.145772
vt 0.790464 0.162649
vt 0.772487 0.162649
vt 0.772487 0.145772
vt 0.772487 0.130194
vt 0.790464 0.130194
vt 0.087146 0.624507
vt 0.087146 0.558885
vt 0.037939 0.639276
vt 0.042093 0.642051
vt 0.042093 0.690129
vt 0.037940 0.690129
vt 0.772487 0.171421
vt 0.790464 0.171421
vt 0.607667 0.636574
vt 0.772487 0.125198
vt 0.790464 0.125198
vt 0.790464 0.117789
vt 0.772487 0.117789
vt 0.790464 0.110380
vt 0.772487 0.110380
vt 0.790464 0.080743
vt 0.772487 0.080743
vt 0.487038 0.766504
vt 0.527852 0.766504
vt 0.527852 0.827272
vt 0.487038 0.832127
vt 0.487038 0.700881
vt 0.527852 0.705736
vt 0.562032 0.766504
vt 0.562032 0.815140
vt 0.562032 0.717868
vt 0.562029 0.575871
vt 0.957451 0.028251
vt 0.939474 0.028251
vt 0.527849 0.685274
vt 0.929713 0.028251
vt 0.911736 0.028251
vt 0.487036 0.690129
vt 0.013532 0.832127
vt 0.013532 0.801736
vt 0.013532 0.731272
vt 0.004880 0.729824
vt 0.004880 0.700881
vt 0.013532 0.700881
vt 0.013532 0.690129
vt 0.004880 0.690129
vt 0.004880 0.661186
vt 0.013532 0.659739
vt 0.004880 0.832127
vt 0.004880 0.803183
vt 0.004880 0.587828
vt 0.004880 0.558885
vt 0.957451 0.037944
vt 0.939474 0.037944
vt 0.929713 0.087149
vt 0.911736 0.087149
vt 0.042093 0.606963
vt 0.037939 0.609738
vt 0.037939 0.558885
vt 0.042093 0.558885
vt 0.028247 0.690129
vt 0.028247 0.651472
vt 0.028247 0.739538
vt 0.028247 0.700881
vt 0.957451 0.087149
vt 0.939474 0.087149
vt 0.037940 0.751735
vt 0.037940 0.700881
vt 0.066905 0.773771
vt 0.068351 0.766504
vt 0.087147 0.766504
vt 0.087147 0.832127
vt 0.066905 0.617240
vt 0.062788 0.611079
vt 0.062788 0.558885
vt 0.929713 0.049364
vt 0.929713 0.056631
vt 0.911736 0.056631
vt 0.911736 0.049364
vt 0.049360 0.643496
vt 0.056627 0.642051
vt 0.056627 0.690129
vt 0.049360 0.690129
vt 0.042093 0.784048
vt 0.049361 0.785494
vt 0.049361 0.832127
vt 0.042094 0.832127
vt 0.042093 0.748959
vt 0.042094 0.700881
vt 0.049361 0.747514
vt 0.049361 0.700881
vt 0.056628 0.784048
vt 0.062789 0.779932
vt 0.062789 0.832127
vt 0.056628 0.832127
vt 0.957451 0.056631
vt 0.957451 0.062792
vt 0.939474 0.062792
vt 0.939474 0.056631
vt 0.049360 0.605517
vt 0.049360 0.558885
vt 0.056628 0.606963
vt 0.056628 0.558885
vt 0.929713 0.062792
vt 0.911736 0.062792
vt 0.056628 0.748959
vt 0.056628 0.700881
vt 0.068350 0.624507
vt 0.016497 0.406414
vt 0.016498 0.004880
vt 0.127934 0.004880
vt 0.127934 0.406414
vt 0.139550 0.004880
vt 0.139551 0.406414
vt 0.250987 0.004880
vt 0.250987 0.406414
vt 0.004880 0.406414
vt 0.004881 0.004880
vt 0.751104 0.004886
vt 0.751104 0.406420
vt 0.639668 0.406420
vt 0.639668 0.004886
vt 0.628051 0.406420
vt 0.628051 0.004886
vt 0.516615 0.406420
vt 0.516615 0.004886
vt 0.762721 0.004886
vt 0.762721 0.406420
vt 0.639734 0.818414
vt 0.639734 0.416880
vt 0.751171 0.416880
vt 0.751171 0.818414
vt 0.762787 0.416880
vt 0.762788 0.818414
vt 0.874223 0.416880
vt 0.874224 0.818414
vt 0.628117 0.818414
vt 0.628118 0.416880
vt 0.495237 0.004880
vt 0.495237 0.406414
vt 0.383801 0.406414
vt 0.383801 0.004880
vt 0.372184 0.406414
vt 0.372184 0.004880
vt 0.260748 0.406414
vt 0.260748 0.004880
vt 0.506854 0.004880
vt 0.506854 0.406414
s 1
f 2/1/1 75/2/1 76/3/1 4/4/1
f 69/5/2 16/6/2 18/7/2 19/8/2
f 69/5/2 25/9/2 26/10/2 16/6/2
f 3/11/3 1/12/3 30/13/3 29/14/3
f 70/15/4 6/16/4 12/17/4 13/18/4
f 2/19/3 4/20/3 31/21/3 32/22/3
f 3/23/5 74/24/5 73/25/5 1/26/5
f 6/27/6 16/28/6 26/29/7 12/30/7
f 12/30/7 26/29/7 25/31/8 13/32/8
f 13/32/8 25/31/8 24/33/9 14/34/9
f 14/34/9 24/33/9 23/35/10 15/36/10
f 15/36/10 23/35/10 22/37/11 11/38/11
f 16/39/12 6/40/12 10/41/13 18/42/13
f 18/42/13 10/41/13 9/43/14 19/44/14
f 19/44/14 9/43/14 8/45/15 20/46/15
f 20/46/15 8/45/15 7/47/16 21/48/16
f 21/48/16 7/47/16 5/49/17 17/50/17
f 70/15/4 9/51/4 10/52/4 6/16/4
f 34/53/2 78/54/2 82/55/2 47/56/2
f 49/57/2 90/58/2 106/59/2 48/60/2
f 28/61/4 11/62/4 88/63/4 87/64/4
f 64/65/4 83/66/4 93/67/4 65/68/4
f 29/69/18 30/70/18 39/71/19 35/72/19
f 40/73/20 36/74/20 35/72/19 39/71/19
f 36/74/20 40/73/20 64/75/21 53/76/21
f 37/77/22 34/78/22 47/79/23 55/80/23
f 33/81/24 34/78/22 37/77/22 38/82/24
f 31/83/25 33/81/24 38/82/24 32/84/25
f 45/85/26 44/86/5 56/87/5 58/88/26
f 47/79/27 45/85/26 58/88/26 55/80/27
f 64/75/28 65/89/29 51/90/29 53/76/28
f 63/91/1 50/92/1 51/90/29 65/89/29
f 66/93/30 52/94/30 50/92/1 63/91/1
f 52/94/30 66/93/30 61/95/31 48/96/31
f 62/97/32 49/98/32 48/96/31 61/95/31
f 41/99/3 49/98/32 62/97/32 54/100/3
f 59/101/33 43/102/33 41/99/3 54/100/3
f 60/103/34 42/104/34 43/102/33 59/101/33
f 57/105/35 46/106/35 42/104/34 60/103/34
f 44/86/5 46/106/35 57/105/35 56/87/5
f 27/107/2 22/108/2 23/109/2 67/110/2
f 27/107/2 67/110/2 21/111/2 17/112/2
f 67/110/2 23/109/2 24/113/2 68/114/2
f 67/110/2 68/114/2 20/115/2 21/111/2
f 68/114/2 24/113/2 25/9/2 69/5/2
f 68/114/2 69/5/2 19/8/2 20/115/2
f 71/116/4 70/15/4 13/18/4 14/117/4
f 71/116/4 8/118/4 9/51/4 70/15/4
f 72/119/4 71/116/4 14/117/4 15/120/4
f 72/119/4 7/121/4 8/118/4 71/116/4
f 28/61/4 72/119/4 15/120/4 11/62/4
f 28/61/4 5/122/4 7/121/4 72/119/4
f 35/123/2 74/124/2 3/125/2 29/126/2
f 73/25/5 74/24/5 80/127/5 79/128/5
f 73/129/4 39/130/4 30/131/4 1/132/4
f 38/133/4 75/134/4 2/135/4 32/136/4
f 76/3/1 75/2/1 77/137/1 78/138/1
f 76/139/2 33/140/2 31/141/2 4/142/2
f 78/138/1 77/137/1 81/143/1 82/144/1
f 37/145/4 77/146/4 75/134/4 38/133/4
f 78/54/2 34/53/2 33/140/2 76/139/2
f 36/147/2 80/148/2 74/124/2 35/123/2
f 79/128/5 80/127/5 84/149/5 83/150/5
f 79/151/4 40/152/4 39/130/4 73/129/4
f 55/153/4 81/154/4 77/146/4 37/145/4
f 47/56/2 82/55/2 91/155/2 45/156/2
f 82/144/1 81/143/1 92/157/1 91/158/1
f 83/150/5 84/149/5 94/159/5 93/160/5
f 53/161/2 84/162/2 80/148/2 36/147/2
f 83/66/4 64/65/4 40/152/4 79/151/4
f 89/163/2 85/164/2 22/108/2 27/107/2
f 90/58/2 89/163/2 27/107/2 17/112/2
f 85/165/1 88/166/1 11/38/11 22/37/11
f 88/63/4 104/167/4 60/168/4 59/169/4
f 86/170/5 90/171/5 17/50/17 5/49/17
f 87/64/4 86/172/4 5/122/4 28/61/4
f 45/156/2 91/155/2 97/173/2 44/174/2
f 91/158/1 92/157/1 98/175/1 97/176/1
f 58/177/4 92/178/4 81/154/4 55/153/4
f 51/179/2 94/180/2 84/162/2 53/161/2
f 93/160/5 94/159/5 96/181/5 95/182/5
f 65/68/4 93/67/4 95/183/4 63/184/4
f 50/185/2 96/186/2 94/180/2 51/179/2
f 95/182/5 96/181/5 102/187/5 101/188/5
f 63/184/4 95/183/4 101/189/4 66/190/4
f 44/174/2 97/173/2 99/191/2 46/192/2
f 56/193/4 98/194/4 92/178/4 58/177/4
f 97/176/1 98/175/1 100/195/1 99/196/1
f 57/197/4 100/198/4 98/194/4 56/193/4
f 99/196/1 100/195/1 104/199/1 103/200/1
f 46/192/2 99/191/2 103/201/2 42/202/2
f 52/203/2 102/204/2 96/186/2 50/185/2
f 101/188/5 102/187/5 106/205/5 105/206/5
f 66/190/4 101/189/4 105/207/4 61/208/4
f 103/200/1 104/199/1 88/166/1 85/165/1
f 60/168/4 104/167/4 100/198/4 57/197/4
f 43/209/2 85/164/2 89/163/2 41/210/2
f 48/60/2 106/59/2 102/204/2 52/203/2
f 62/211/4 86/172/4 87/64/4 54/212/4
f 105/206/5 106/205/5 90/171/5 86/170/5
f 41/210/2 89/163/2 90/58/2 49/57/2
f 42/202/2 103/201/2 85/164/2 43/209/2
f 61/208/4 105/207/4 86/172/4 62/211/4
f 87/64/4 88/63/4 59/169/4 54/212/4
f 134/213/2 117/214/2 121/215/2 178/216/2
f 168/217/32 167/218/31 154/219/31 155/220/32
f 147/221/3 160/222/3 168/217/32 155/220/32
f 120/223/9 121/224/10 129/225/10 130/226/9
f 163/227/35 166/228/34 148/229/34 152/230/35
f 121/224/10 117/231/11 128/232/11 129/225/10
f 177/233/2 176/234/2 115/235/2 114/236/2
f 118/237/7 119/238/8 131/239/8 132/240/7
f 119/238/8 120/223/9 130/226/9 131/239/8
f 112/241/6 118/237/7 132/240/7 122/242/6
f 109/243/5 107/244/5 179/245/5 180/246/5
f 108/247/3 138/248/3 137/249/3 110/250/3
f 108/251/1 110/252/1 182/253/1 181/254/1
f 175/255/4 125/256/4 124/257/4 122/258/4
f 175/255/4 122/258/4 132/259/4 131/260/4
f 176/234/2 119/261/2 118/262/2 112/263/2
f 109/264/3 135/265/3 136/266/3 107/267/3
f 150/268/5 162/269/5 163/227/35 152/230/35
f 143/270/2 144/271/2 181/272/2 183/273/2
f 167/274/2 168/275/2 192/276/2 211/277/2
f 189/278/5 199/279/5 200/280/5 190/281/5
f 197/282/1 203/283/1 204/284/1 198/285/1
f 125/286/14 126/287/15 114/288/15 115/289/14
f 126/287/15 127/290/16 113/291/16 114/288/15
f 143/292/22 161/293/23 153/294/23 140/295/22
f 127/290/16 123/296/17 111/297/17 113/291/16
f 122/298/12 124/299/13 116/300/13 112/301/12
f 124/299/13 125/286/14 115/289/14 116/300/13
f 140/302/4 153/303/4 188/304/4 184/305/4
f 155/306/4 154/307/4 212/308/4 196/309/4
f 137/310/25 138/311/25 144/312/24 139/313/24
f 139/313/24 144/312/24 143/292/22 140/295/22
f 151/314/26 164/315/26 162/269/5 150/268/5
f 153/294/27 161/293/27 164/315/26 151/314/26
f 146/316/20 145/317/19 141/318/19 142/319/20
f 142/319/20 159/320/21 170/321/21 146/316/20
f 134/213/2 193/322/2 194/323/2 117/214/2
f 170/324/2 171/325/2 199/326/2 189/327/2
f 135/328/18 141/318/19 145/317/19 136/329/18
f 176/234/2 112/263/2 116/330/2 115/235/2
f 170/321/28 159/320/28 157/331/29 171/332/29
f 169/333/1 171/332/29 157/331/29 156/334/1
f 172/335/30 169/333/1 156/334/1 158/336/30
f 158/336/30 154/219/31 167/218/31 172/335/30
f 165/337/33 160/222/3 147/221/3 149/338/33
f 166/228/34 165/337/33 149/338/33 148/229/34
f 133/339/4 173/340/4 129/341/4 128/342/4
f 133/339/4 123/343/4 127/344/4 173/340/4
f 173/340/4 174/345/4 130/346/4 129/341/4
f 173/340/4 127/344/4 126/347/4 174/345/4
f 174/345/4 175/255/4 131/260/4 130/346/4
f 174/345/4 126/347/4 125/256/4 175/255/4
f 178/216/2 121/215/2 120/348/2 177/233/2
f 182/253/1 184/349/1 183/350/1 181/254/1
f 177/233/2 120/348/2 119/261/2 176/234/2
f 178/216/2 177/233/2 114/236/2 113/351/2
f 179/245/5 185/352/5 186/353/5 180/246/5
f 134/213/2 178/216/2 113/351/2 111/354/2
f 184/305/4 182/355/4 139/356/4 140/302/4
f 141/357/4 135/358/4 109/359/4 180/360/4
f 179/361/2 107/362/2 136/363/2 145/364/2
f 182/355/4 110/365/4 137/366/4 139/356/4
f 185/352/5 189/278/5 190/281/5 186/353/5
f 144/271/2 138/367/2 108/368/2 181/272/2
f 184/349/1 188/369/1 187/370/1 183/350/1
f 192/371/5 111/297/17 123/296/17 196/372/5
f 193/322/2 134/213/2 111/354/2 192/276/2
f 164/373/2 161/374/2 187/375/2 198/376/2
f 185/377/2 179/361/2 145/364/2 146/378/2
f 142/379/4 141/357/4 180/360/4 186/380/4
f 189/327/2 185/377/2 146/378/2 170/324/2
f 191/381/1 128/232/11 117/231/11 194/382/1
f 159/383/4 142/379/4 186/380/4 190/384/4
f 149/385/4 147/386/4 195/387/4 191/388/4
f 194/323/2 165/389/2 166/390/2 210/391/2
f 161/374/2 143/270/2 183/273/2 187/375/2
f 201/392/5 207/393/5 208/394/5 202/395/5
f 169/396/2 172/397/2 207/398/2 201/399/2
f 151/400/4 150/401/4 203/402/4 197/403/4
f 157/404/4 159/383/4 190/384/4 200/405/4
f 171/325/2 169/396/2 201/399/2 199/326/2
f 199/279/5 201/392/5 202/395/5 200/280/5
f 156/406/4 157/404/4 200/405/4 202/407/4
f 152/408/4 148/409/4 209/410/4 205/411/4
f 205/412/1 209/413/1 210/414/1 206/415/1
f 162/416/2 164/373/2 198/376/2 204/417/2
f 150/401/4 152/408/4 205/411/4 203/402/4
f 203/283/1 205/412/1 206/415/1 204/284/1
f 163/418/2 162/416/2 204/417/2 206/419/2
f 209/413/1 191/381/1 194/382/1 210/414/1
f 207/393/5 211/420/5 212/421/5 208/394/5
f 158/422/4 156/406/4 202/407/4 208/423/4
f 147/386/4 155/306/4 196/309/4 195/387/4
f 168/275/2 160/424/2 193/322/2 192/276/2
f 154/307/4 158/422/4 208/423/4 212/308/4
f 166/390/2 163/418/2 206/419/2 210/391/2
f 195/387/4 133/339/4 128/342/4 191/388/4
f 148/409/4 149/385/4 191/388/4 209/410/4
f 153/303/4 151/400/4 197/403/4 188/304/4
f 193/322/2 160/424/2 165/389/2 194/323/2
f 196/309/4 123/343/4 133/339/4 195/387/4
f 172/397/2 167/274/2 211/277/2 207/398/2
f 211/420/5 192/371/5 196/372/5 212/421/5
f 188/369/1 197/282/1 198/285/1 187/370/1
f 220/425/36 216/426/36 215/427/36 219/428/36
f 215/427/5 213/429/5 217/430/5 219/428/5
f 217/430/3 213/429/3 214/431/3 218/432/3
f 218/433/1 214/434/1 216/426/1 220/425/1
f 228/435/36 224/436/36 223/437/36 227/438/36
f 223/437/5 221/439/5 225/440/5 227/438/5
f 225/440/3 221/439/3 222/441/3 226/442/3
f 226/443/1 222/444/1 224/436/1 228/435/1
f 236/445/36 232/446/36 231/447/36 235/448/36
f 231/447/5 229/449/5 233/450/5 235/448/5
f 233/450/3 229/449/3 230/451/3 234/452/3
f 234/453/1 230/454/1 232/446/1 236/445/1
f 244/455/36 240/456/36 239/457/36 243/458/36
f 239/457/5 237/459/5 241/460/5 243/458/5
f 241/460/3 237/459/3 238/461/3 242/462/3
f 242/463/1 238/464/1 240/456/1 244/455/1
