# Blender 4.0.2
# www.blender.org
o magnet
v -0.007641 0.049294 0.004247
v -0.007204 0.047099 0.006280
v -0.014988 0.047066 0.004247
v -0.014131 0.044997 0.006280
v -0.021759 0.043446 0.004247
v -0.020516 0.041585 0.006280
v -0.027694 0.038576 0.004247
v -0.026111 0.036993 0.006280
v -0.032565 0.032640 0.004247
v -0.030704 0.031397 0.006280
v -0.036184 0.025869 0.004247
v -0.034116 0.025013 0.006280
v -0.038413 0.018522 0.004247
v -0.036218 0.018085 0.006280
v -0.039166 0.010881 0.004247
v -0.036932 0.010833 0.006280
v -0.038593 0.000493 0.004247
v -0.036371 0.000666 0.006280
v -0.028607 -0.050047 0.005915
v -0.030846 -0.050047 0.003882
v 0.000000 0.047808 0.006280
v 0.000000 0.050047 0.004247
v 0.007641 0.049294 0.004247
v 0.007204 0.047099 0.006280
v 0.014131 0.044997 0.006280
v 0.014988 0.047066 0.004247
v 0.020516 0.041585 0.006280
v 0.021759 0.043446 0.004247
v 0.026111 0.036993 0.006280
v 0.027694 0.038576 0.004247
v 0.030704 0.031397 0.006280
v 0.032565 0.032640 0.004247
v 0.034116 0.025013 0.006280
v 0.036184 0.025869 0.004247
v 0.036218 0.018085 0.006280
v 0.038413 0.018522 0.004247
v 0.036932 0.010833 0.006280
v 0.039166 0.010881 0.004247
v 0.036371 0.000666 0.006280
v 0.038593 0.000493 0.004247
v 0.030846 -0.050047 0.003882
v 0.028607 -0.050047 0.005915
v -0.007204 0.047099 -0.006280
v -0.007641 0.049294 -0.004247
v -0.014131 0.044997 -0.006280
v -0.014988 0.047066 -0.004247
v -0.020516 0.041585 -0.006280
v -0.021759 0.043446 -0.004247
v -0.026111 0.036993 -0.006280
v -0.027694 0.038576 -0.004247
v -0.030704 0.031397 -0.006280
v -0.032565 0.032640 -0.004247
v -0.034116 0.025013 -0.006280
v -0.036184 0.025869 -0.004247
v -0.036218 0.018085 -0.006280
v -0.038413 0.018522 -0.004247
v -0.036932 0.010833 -0.006280
v -0.039166 0.010881 -0.004247
v -0.036371 0.000666 -0.006280
v -0.038593 0.000493 -0.004247
v -0.030846 -0.050047 -0.003882
v -0.028607 -0.050047 -0.005915
v 0.000000 0.050047 -0.004247
v 0.000000 0.047808 -0.006280
v 0.007204 0.047099 -0.006280
v 0.007641 0.049294 -0.004247
v 0.014988 0.047066 -0.004247
v 0.014131 0.044997 -0.006280
v 0.021759 0.043446 -0.004247
v 0.020516 0.041585 -0.006280
v 0.027694 0.038576 -0.004247
v 0.026111 0.036993 -0.006280
v 0.032565 0.032640 -0.004247
v 0.030704 0.031397 -0.006280
v 0.036184 0.025869 -0.004247
v 0.034116 0.025013 -0.006280
v 0.038413 0.018522 -0.004247
v 0.036218 0.018085 -0.006280
v 0.039166 0.010881 -0.004247
v 0.036932 0.010833 -0.006280
v 0.038593 0.000493 -0.004247
v 0.036371 0.000666 -0.006280
v 0.028607 -0.050047 -0.005915
v 0.030846 -0.050047 -0.003882
v -0.004976 0.035896 0.006280
v -0.004539 0.033700 0.004247
v -0.009760 0.034444 0.006280
v -0.008904 0.032376 0.004247
v -0.014170 0.032088 0.006280
v -0.012926 0.030226 0.004247
v -0.018034 0.028916 0.006280
v -0.016452 0.027333 0.004247
v -0.021206 0.025051 0.006280
v -0.019345 0.023807 0.004247
v -0.023563 0.020641 0.006280
v -0.021495 0.019785 0.004247
v -0.025015 0.015857 0.006280
v -0.022819 0.015420 0.004247
v -0.025534 0.010587 0.006280
v -0.023300 0.010539 0.004247
v -0.025035 0.001553 0.006280
v -0.022814 0.001726 0.004247
v -0.015304 -0.050047 0.003882
v -0.017542 -0.050047 0.005915
v 0.000000 0.034147 0.004247
v 0.000000 0.036386 0.006280
v 0.004976 0.035896 0.006280
v 0.004539 0.033700 0.004247
v 0.008904 0.032376 0.004247
v 0.009760 0.034444 0.006280
v 0.012926 0.030226 0.004247
v 0.014170 0.032088 0.006280
v 0.016452 0.027333 0.004247
v 0.018034 0.028916 0.006280
v 0.019345 0.023807 0.004247
v 0.021206 0.025051 0.006280
v 0.021495 0.019785 0.004247
v 0.023563 0.020641 0.006280
v 0.022819 0.015420 0.004247
v 0.025015 0.015857 0.006280
v 0.023300 0.010539 0.004247
v 0.025534 0.010587 0.006280
v 0.022814 0.001726 0.004247
v 0.025035 0.001553 0.006280
v 0.017542 -0.050047 0.005915
v 0.015304 -0.050047 0.003882
v -0.004539 0.033700 -0.004247
v -0.004976 0.035896 -0.006280
v -0.008904 0.032376 -0.004247
v -0.009760 0.034444 -0.006280
v -0.012926 0.030226 -0.004247
v -0.014170 0.032088 -0.006280
v -0.016452 0.027333 -0.004247
v -0.018034 0.028916 -0.006280
v -0.019345 0.023807 -0.004247
v -0.021206 0.025051 -0.006280
v -0.021495 0.019785 -0.004247
v -0.023563 0.020641 -0.006280
v -0.022819 0.015420 -0.004247
v -0.025015 0.015857 -0.006280
v -0.023300 0.010539 -0.004247
v -0.025534 0.010587 -0.006280
v -0.022814 0.001726 -0.004247
v -0.025035 0.001553 -0.006280
v -0.017542 -0.050047 -0.005915
v -0.015304 -0.050047 -0.003882
v 0.000000 0.036386 -0.006280
v 0.000000 0.034147 -0.004247
v 0.004539 0.033700 -0.004247
v 0.004976 0.035896 -0.006280
v 0.009760 0.034444 -0.006280
v 0.008904 0.032376 -0.004247
v 0.014170 0.032088 -0.006280
v 0.012926 0.030226 -0.004247
v 0.018034 0.028916 -0.006280
v 0.016452 0.027333 -0.004247
v 0.021206 0.025051 -0.006280
v 0.019345 0.023807 -0.004247
v 0.023563 0.020641 -0.006280
v 0.021495 0.019785 -0.004247
v 0.025015 0.015857 -0.006280
v 0.022819 0.015420 -0.004247
v 0.025534 0.010587 -0.006280
v 0.023300 0.010539 -0.004247
v 0.025035 0.001553 -0.006280
v 0.022814 0.001726 -0.004247
v 0.015304 -0.050047 -0.003882
v 0.017542 -0.050047 -0.005915
v -0.035037 -0.022705 0.004080
v 0.019270 -0.022705 -0.004075
v 0.021513 -0.022705 0.006108
v 0.021513 -0.022705 -0.006108
v 0.032793 -0.022705 -0.006112
v 0.019270 -0.022705 0.004075
v 0.035037 -0.022705 0.004080
v 0.035037 -0.022705 -0.004080
v -0.021513 -0.022705 -0.006108
v 0.032793 -0.022705 0.006112
v -0.019270 -0.022705 0.004075
v -0.019270 -0.022705 -0.004075
v -0.035037 -0.022705 -0.004080
v -0.021513 -0.022705 0.006108
v -0.032793 -0.022705 0.006112
v -0.032793 -0.022705 -0.006112
vn -0.0000 -0.0000 1.0000
vn 0.0002 -0.0035 1.0000
vn 0.0002 -0.0036 1.0000
vn 0.0003 -0.0071 1.0000
vn -0.0002 -0.0035 1.0000
vn -0.0002 -0.0036 1.0000
vn -0.0000 -1.0000 -0.0000
vn -0.0002 -0.0071 1.0000
vn -0.0003 -0.0071 1.0000
vn 0.8315 -0.5556 -0.0000
vn 0.9239 -0.3827 -0.0000
vn -0.1951 -0.9808 -0.0000
vn -0.3827 -0.9239 -0.0000
vn -0.7071 -0.7071 -0.0000
vn -0.8315 -0.5556 -0.0000
vn 0.9808 -0.1951 -0.0000
vn -0.9239 -0.3827 -0.0000
vn 0.9998 -0.0216 -0.0000
vn -0.9808 -0.1951 -0.0000
vn 0.9951 0.0993 -0.0000
vn 0.1951 -0.9808 -0.0000
vn 0.3827 -0.9239 -0.0000
vn -0.9998 -0.0216 -0.0000
vn 0.9896 0.1436 -0.0000
vn 0.5556 -0.8315 -0.0000
vn -0.9951 0.0993 -0.0000
vn 0.7071 -0.7071 -0.0000
vn -0.9896 0.1436 -0.0000
vn -0.5556 -0.8315 -0.0000
vn -0.0000 1.0000 -0.0000
vn -0.1951 0.9808 -0.0000
vn -0.3827 0.9239 -0.0000
vn -0.5556 0.8315 -0.0000
vn -0.7071 0.7071 -0.0000
vn -0.8315 0.5556 -0.0000
vn -0.9239 0.3827 -0.0000
vn -0.9808 0.1951 -0.0000
vn -0.9998 0.0216 -0.0000
vn -0.9947 -0.1033 -0.0000
vn -0.9885 -0.1515 -0.0000
vn 0.1951 0.9808 -0.0000
vn 0.3827 0.9239 -0.0000
vn 0.5556 0.8315 -0.0000
vn 0.7071 0.7071 -0.0000
vn 0.8315 0.5556 -0.0000
vn 0.9239 0.3827 -0.0000
vn 0.9808 0.1951 -0.0000
vn 0.9998 0.0216 -0.0000
vn 0.9947 -0.1033 -0.0000
vn 0.9885 -0.1515 -0.0000
vn -0.0000 -0.0000 -1.0000
vn 0.0002 -0.0035 -1.0000
vn 0.0002 -0.0036 -1.0000
vn 0.0002 -0.0071 -1.0000
vn 0.0003 -0.0071 -1.0000
vn -0.0002 -0.0035 -1.0000
vn -0.0002 -0.0036 -1.0000
vn -0.0003 -0.0071 -1.0000
vn -0.1311 0.6593 0.7403
vn -0.0000 0.6722 0.7403
vn -0.2573 0.6211 0.7403
vn -0.3735 0.5590 0.7403
vn -0.4754 0.4754 0.7403
vn -0.5590 0.3735 0.7403
vn -0.6211 0.2573 0.7403
vn -0.6593 0.1311 0.7403
vn -0.6728 0.0145 0.7397
vn -0.6704 -0.0727 0.7385
vn -0.6704 -0.0720 0.7385
vn -0.6678 -0.1076 0.7365
vn -0.6674 -0.1075 0.7369
vn -0.6673 -0.1075 0.7370
vn 0.2573 0.6211 0.7403
vn 0.1311 0.6593 0.7403
vn 0.3735 0.5590 0.7403
vn 0.4754 0.4754 0.7403
vn 0.5590 0.3735 0.7403
vn 0.6211 0.2573 0.7403
vn 0.6593 0.1311 0.7403
vn 0.6728 0.0145 0.7397
vn 0.6704 -0.0720 0.7385
vn 0.6704 -0.0727 0.7385
vn 0.6678 -0.1076 0.7365
vn 0.6673 -0.1075 0.7370
vn 0.6674 -0.1075 0.7369
vn -0.1311 0.6593 -0.7403
vn -0.0000 0.6722 -0.7403
vn -0.2573 0.6211 -0.7403
vn -0.3735 0.5590 -0.7403
vn -0.4754 0.4754 -0.7403
vn -0.5590 0.3735 -0.7403
vn -0.6211 0.2573 -0.7403
vn -0.6593 0.1311 -0.7403
vn -0.6728 0.0145 -0.7397
vn -0.6704 -0.0720 -0.7385
vn -0.6704 -0.0727 -0.7385
vn -0.6678 -0.1076 -0.7365
vn -0.6673 -0.1075 -0.7370
vn -0.6674 -0.1075 -0.7369
vn 0.2573 0.6211 -0.7403
vn 0.1311 0.6593 -0.7403
vn 0.3735 0.5590 -0.7403
vn 0.4754 0.4754 -0.7403
vn 0.5590 0.3735 -0.7403
vn 0.6211 0.2573 -0.7403
vn 0.6593 0.1311 -0.7403
vn 0.6728 0.0145 -0.7397
vn 0.6704 -0.0727 -0.7385
vn 0.6704 -0.0720 -0.7385
vn 0.6678 -0.1076 -0.7365
vn 0.6674 -0.1075 -0.7369
vn 0.6673 -0.1075 -0.7370
vn 0.1311 -0.6593 0.7403
vn -0.0000 -0.6723 0.7403
vn 0.2573 -0.6211 0.7403
vn 0.3735 -0.5590 0.7403
vn 0.4754 -0.4754 0.7403
vn 0.5590 -0.3735 0.7403
vn 0.6211 -0.2573 0.7403
vn 0.6593 -0.1311 0.7403
vn 0.6728 -0.0145 0.7397
vn 0.6710 0.0648 0.7386
vn 0.6711 0.0642 0.7386
vn 0.6691 0.0919 0.7374
vn 0.6689 0.0919 0.7377
vn 0.6688 0.0919 0.7377
vn -0.2573 -0.6211 0.7403
vn -0.1311 -0.6593 0.7403
vn -0.3735 -0.5590 0.7403
vn -0.4754 -0.4754 0.7403
vn -0.5590 -0.3735 0.7403
vn -0.6211 -0.2573 0.7403
vn -0.6593 -0.1311 0.7403
vn -0.6728 -0.0145 0.7397
vn -0.6711 0.0642 0.7386
vn -0.6710 0.0648 0.7386
vn -0.6691 0.0919 0.7374
vn -0.6688 0.0919 0.7377
vn -0.6689 0.0919 0.7377
vn 0.1311 -0.6593 -0.7403
vn -0.0000 -0.6722 -0.7403
vn 0.2573 -0.6211 -0.7403
vn 0.3735 -0.5590 -0.7403
vn 0.4754 -0.4754 -0.7403
vn 0.5590 -0.3735 -0.7403
vn 0.6211 -0.2573 -0.7403
vn 0.6593 -0.1311 -0.7403
vn 0.6728 -0.0145 -0.7397
vn 0.6711 0.0642 -0.7386
vn 0.6710 0.0648 -0.7386
vn 0.6691 0.0919 -0.7374
vn 0.6688 0.0919 -0.7377
vn 0.6689 0.0919 -0.7377
vn -0.2573 -0.6211 -0.7403
vn -0.1311 -0.6593 -0.7403
vn -0.3735 -0.5590 -0.7403
vn -0.4754 -0.4754 -0.7403
vn -0.5590 -0.3735 -0.7403
vn -0.6211 -0.2573 -0.7403
vn -0.6593 -0.1311 -0.7403
vn -0.6728 -0.0145 -0.7397
vn -0.6710 0.0648 -0.7386
vn -0.6711 0.0642 -0.7386
vn -0.6691 0.0919 -0.7374
vn -0.6689 0.0919 -0.7377
vn -0.6688 0.0919 -0.7377
vn -0.0002 -0.0071 -1.0000
vn 0.0002 -0.0071 1.0000
vt 0.170945 0.361091
vt 0.170945 0.333482
vt 0.221234 0.333482
vt 0.221234 0.361091
vt 0.170945 0.554788
vt 0.170945 0.526963
vt 0.221234 0.526963
vt 0.221234 0.554788
vt 0.170945 0.638262
vt 0.170945 0.610437
vt 0.221234 0.610437
vt 0.221234 0.638262
vt 0.170945 0.305873
vt 0.221234 0.305873
vt 0.170945 0.666087
vt 0.221234 0.666087
vt 0.170945 0.277565
vt 0.221234 0.277565
vt 0.170945 0.693912
vt 0.221234 0.693912
vt 0.170945 0.234769
vt 0.221234 0.234769
vt 0.170945 0.471529
vt 0.170945 0.443919
vt 0.221234 0.443919
vt 0.221234 0.471529
vt 0.170945 0.722412
vt 0.221234 0.722412
vt 0.170945 0.128510
vt 0.221234 0.128510
vt 0.170945 0.416310
vt 0.221234 0.416310
vt 0.170945 0.765318
vt 0.221234 0.765318
vt 0.299923 0.098141
vt 0.247115 0.098141
vt 0.256189 0.088150
vt 0.290850 0.088150
vt 0.170945 0.388701
vt 0.221234 0.388701
vt 0.170945 0.993743
vt 0.170945 0.871490
vt 0.221234 0.871490
vt 0.221234 0.993743
vt 0.170945 0.582613
vt 0.221234 0.582613
vt 0.299923 0.016248
vt 0.247115 0.016248
vt 0.256189 0.006257
vt 0.290850 0.006257
vt 0.006257 0.361091
vt 0.006257 0.333482
vt 0.043404 0.333482
vt 0.043404 0.361091
vt 0.006257 0.526963
vt 0.043404 0.526963
vt 0.043404 0.554788
vt 0.006257 0.554788
vt 0.006257 0.610437
vt 0.043404 0.610437
vt 0.043404 0.638262
vt 0.006257 0.638262
vt 0.006257 0.305873
vt 0.043404 0.305873
vt 0.043404 0.666087
vt 0.006257 0.666087
vt 0.006257 0.277565
vt 0.043404 0.277565
vt 0.043404 0.693912
vt 0.006257 0.693912
vt 0.006257 0.234769
vt 0.043404 0.234769
vt 0.006257 0.471529
vt 0.006257 0.443919
vt 0.043404 0.443919
vt 0.043404 0.471529
vt 0.043404 0.722412
vt 0.006257 0.722412
vt 0.006257 0.128510
vt 0.043404 0.128510
vt 0.006257 0.416310
vt 0.043404 0.416310
vt 0.043404 0.765318
vt 0.006257 0.765318
vt 0.006257 0.499138
vt 0.043404 0.499138
vt 0.006257 0.388701
vt 0.043404 0.388701
vt 0.043404 0.871490
vt 0.006257 0.871490
vt 0.043404 0.582613
vt 0.006257 0.582613
vt 0.157577 0.499138
vt 0.120427 0.499138
vt 0.120427 0.471529
vt 0.157577 0.471529
vt 0.120427 0.443919
vt 0.157577 0.443919
vt 0.120427 0.416310
vt 0.157577 0.416310
vt 0.120427 0.388701
vt 0.157577 0.388701
vt 0.120427 0.361091
vt 0.157577 0.361091
vt 0.120427 0.333482
vt 0.157577 0.333482
vt 0.120427 0.305873
vt 0.157577 0.305873
vt 0.120427 0.277565
vt 0.157577 0.277565
vt 0.120427 0.234769
vt 0.157577 0.234769
vt 0.120427 0.128510
vt 0.157577 0.128510
vt 0.157577 0.526963
vt 0.157577 0.554788
vt 0.120427 0.554788
vt 0.120427 0.526963
vt 0.157577 0.582613
vt 0.120427 0.582613
vt 0.157577 0.610437
vt 0.120427 0.610437
vt 0.157577 0.638262
vt 0.120427 0.638262
vt 0.157577 0.666087
vt 0.120427 0.666087
vt 0.157577 0.693912
vt 0.120427 0.693912
vt 0.157577 0.722412
vt 0.120427 0.722412
vt 0.157577 0.765318
vt 0.120427 0.765318
vt 0.157577 0.871490
vt 0.120427 0.871490
vt 0.107060 0.443919
vt 0.107060 0.471529
vt 0.056771 0.471529
vt 0.056771 0.443919
vt 0.107060 0.416310
vt 0.056771 0.416310
vt 0.107060 0.388701
vt 0.056771 0.388701
vt 0.107060 0.361091
vt 0.056771 0.361091
vt 0.107060 0.333482
vt 0.056771 0.333482
vt 0.107060 0.305873
vt 0.056771 0.305873
vt 0.107060 0.277565
vt 0.056771 0.277565
vt 0.107060 0.234769
vt 0.056771 0.234769
vt 0.107060 0.006257
vt 0.107060 0.128510
vt 0.056771 0.128510
vt 0.056771 0.006257
vt 0.107060 0.499138
vt 0.107060 0.526963
vt 0.056771 0.526963
vt 0.056771 0.499138
vt 0.107060 0.554788
vt 0.107060 0.582613
vt 0.056771 0.582613
vt 0.056771 0.554788
vt 0.107060 0.610437
vt 0.056771 0.610437
vt 0.107060 0.638262
vt 0.056771 0.638262
vt 0.107060 0.666087
vt 0.056771 0.666087
vt 0.107060 0.693912
vt 0.056771 0.693912
vt 0.107060 0.722412
vt 0.056771 0.722412
vt 0.107060 0.765318
vt 0.056771 0.765318
vt 0.107060 0.871490
vt 0.056771 0.871490
vt 0.170945 0.499138
vt 0.221234 0.499138
vt 0.170945 0.006257
vt 0.157577 0.006257
vt 0.157577 0.993743
vt 0.120427 0.006257
vt 0.107060 0.993743
vt 0.120427 0.993743
vt 0.234601 0.471529
vt 0.234601 0.499138
vt 0.234601 0.443919
vt 0.234601 0.416310
vt 0.234601 0.388701
vt 0.234601 0.361091
vt 0.234601 0.333482
vt 0.234601 0.305873
vt 0.234601 0.277565
vt 0.234601 0.234769
vt 0.234601 0.006257
vt 0.234601 0.128510
vt 0.221234 0.006257
vt 0.234601 0.526963
vt 0.234601 0.554788
vt 0.234601 0.582613
vt 0.234601 0.610437
vt 0.234601 0.638262
vt 0.234601 0.666087
vt 0.234601 0.693912
vt 0.234601 0.722412
vt 0.234601 0.765318
vt 0.234601 0.871490
vt 0.234601 0.993743
vt 0.043404 0.006257
vt 0.043404 0.993743
vt 0.056771 0.993743
vt 0.299923 0.065641
vt 0.290850 0.075636
vt 0.256189 0.075636
vt 0.247115 0.065641
vt 0.299923 0.147533
vt 0.290850 0.157528
vt 0.256189 0.157528
vt 0.247115 0.147533
vt 0.006257 0.006257
vt 0.006257 0.993743
s 1
f 10/1/1 12/2/1 95/3/1 93/4/1
f 25/5/1 24/6/1 107/7/1 110/8/1
f 31/9/1 29/10/1 114/11/1 116/12/1
f 12/2/1 14/13/1 97/14/1 95/3/1
f 33/15/1 31/9/1 116/12/1 118/16/1
f 14/13/1 16/17/1 99/18/1 97/14/1
f 35/19/1 33/15/1 118/16/1 120/20/1
f 16/17/1 18/21/2 101/22/3 99/18/1
f 2/23/1 4/24/1 87/25/1 85/26/1
f 37/27/1 35/19/1 120/20/1 122/28/1
f 18/21/2 183/29/4 182/30/4 101/22/3
f 4/24/1 6/31/1 89/32/1 87/25/1
f 39/33/5 37/27/1 122/28/1 124/34/6
f 104/35/7 145/36/7 146/37/7 103/38/7
f 6/31/1 8/39/1 91/40/1 89/32/1
f 42/41/8 178/42/9 171/43/9 125/44/8
f 27/45/1 25/5/1 110/8/1 112/46/1
f 8/39/1 10/1/1 93/4/1 91/40/1
f 168/47/7 125/48/7 126/49/7 167/50/7
f 29/10/1 27/45/1 112/46/1 114/11/1
f 94/51/10 96/52/11 137/53/11 135/54/10
f 108/55/12 149/56/12 152/57/13 109/58/13
f 113/59/14 156/60/14 158/61/15 115/62/15
f 96/52/11 98/63/16 139/64/16 137/53/11
f 115/62/15 158/61/15 160/65/17 117/66/17
f 98/63/16 100/67/18 141/68/18 139/64/16
f 117/66/17 160/65/17 162/69/19 119/70/19
f 100/67/18 102/71/20 143/72/20 141/68/18
f 86/73/21 88/74/22 129/75/22 127/76/21
f 119/70/19 162/69/19 164/77/23 121/78/23
f 102/71/20 179/79/24 180/80/24 143/72/20
f 88/74/22 90/81/25 131/82/25 129/75/22
f 121/78/23 164/77/23 166/83/26 123/84/26
f 105/85/7 148/86/7 149/56/12 108/55/12
f 90/81/25 92/87/27 133/88/27 131/82/25
f 123/84/26 166/83/26 170/89/28 174/90/28
f 109/58/13 152/57/13 154/91/29 111/92/29
f 92/87/27 94/51/10 135/54/10 133/88/27
f 111/92/29 154/91/29 156/60/14 113/59/14
f 22/93/30 63/94/30 44/95/31 1/96/31
f 1/96/31 44/95/31 46/97/32 3/98/32
f 3/98/32 46/97/32 48/99/33 5/100/33
f 5/100/33 48/99/33 50/101/34 7/102/34
f 7/102/34 50/101/34 52/103/35 9/104/35
f 9/104/35 52/103/35 54/105/36 11/106/36
f 11/106/36 54/105/36 56/107/37 13/108/37
f 13/108/37 56/107/37 58/109/38 15/110/38
f 15/110/38 58/109/38 60/111/39 17/112/39
f 17/112/39 60/111/39 181/113/40 169/114/40
f 23/115/41 26/116/42 67/117/42 66/118/41
f 26/116/42 28/119/43 69/120/43 67/117/42
f 28/119/43 30/121/44 71/122/44 69/120/43
f 30/121/44 32/123/45 73/124/45 71/122/44
f 32/123/45 34/125/46 75/126/46 73/124/45
f 34/125/46 36/127/47 77/128/47 75/126/46
f 36/127/47 38/129/48 79/130/48 77/128/47
f 38/129/48 40/131/49 81/132/49 79/130/48
f 40/131/49 175/133/50 176/134/50 81/132/49
f 22/93/30 23/115/41 66/118/41 63/94/30
f 45/135/51 43/136/51 128/137/51 130/138/51
f 47/139/51 45/135/51 130/138/51 132/140/51
f 49/141/51 47/139/51 132/140/51 134/142/51
f 51/143/51 49/141/51 134/142/51 136/144/51
f 53/145/51 51/143/51 136/144/51 138/146/51
f 55/147/51 53/145/51 138/146/51 140/148/51
f 57/149/51 55/147/51 140/148/51 142/150/51
f 59/151/52 57/149/51 142/150/51 144/152/53
f 62/153/54 184/154/55 177/155/55 145/156/54
f 64/157/51 65/158/51 150/159/51 147/160/51
f 68/161/51 70/162/51 153/163/51 151/164/51
f 70/162/51 72/165/51 155/166/51 153/163/51
f 72/165/51 74/167/51 157/168/51 155/166/51
f 74/167/51 76/169/51 159/170/51 157/168/51
f 76/169/51 78/171/51 161/172/51 159/170/51
f 78/171/51 80/173/51 163/174/51 161/172/51
f 80/173/51 82/175/56 165/176/57 163/174/51
f 82/175/56 173/177/58 172/178/58 165/176/57
f 105/85/7 86/73/21 127/76/21 148/86/7
f 65/158/51 68/161/51 151/164/51 150/159/51
f 24/6/1 21/179/1 106/180/1 107/7/1
f 43/136/51 64/157/51 147/160/51 128/137/51
f 2/23/59 21/179/60 22/93/60 1/96/59
f 4/24/61 2/23/59 1/96/59 3/98/61
f 6/31/62 4/24/61 3/98/61 5/100/62
f 8/39/63 6/31/62 5/100/62 7/102/63
f 10/1/64 8/39/63 7/102/63 9/104/64
f 12/2/65 10/1/64 9/104/64 11/106/65
f 14/13/66 12/2/65 11/106/65 13/108/66
f 16/17/67 14/13/66 13/108/66 15/110/67
f 18/21/68 16/17/67 15/110/67 17/112/69
f 19/181/70 183/29/71 169/114/72 20/182/70
f 26/116/73 23/115/74 24/6/74 25/5/73
f 28/119/75 26/116/73 25/5/73 27/45/75
f 30/121/76 28/119/75 27/45/75 29/10/76
f 32/123/77 30/121/76 29/10/76 31/9/77
f 34/125/78 32/123/77 31/9/77 33/15/78
f 36/127/79 34/125/78 33/15/78 35/19/79
f 38/129/80 36/127/79 35/19/79 37/27/80
f 40/131/81 38/129/80 37/27/80 39/33/82
f 41/183/83 175/133/84 178/42/85 42/41/83
f 23/115/74 22/93/60 21/179/60 24/6/74
f 44/95/86 63/94/87 64/157/87 43/136/86
f 46/97/88 44/95/86 43/136/86 45/135/88
f 48/99/89 46/97/88 45/135/88 47/139/89
f 50/101/90 48/99/89 47/139/89 49/141/90
f 52/103/91 50/101/90 49/141/90 51/143/91
f 54/105/92 52/103/91 51/143/91 53/145/92
f 56/107/93 54/105/92 53/145/92 55/147/93
f 58/109/94 56/107/93 55/147/93 57/149/94
f 60/111/95 58/109/94 57/149/94 59/151/96
f 61/184/97 181/113/98 184/154/99 62/153/97
f 68/161/100 65/158/101 66/118/101 67/117/100
f 70/162/102 68/161/100 67/117/100 69/120/102
f 72/165/103 70/162/102 69/120/102 71/122/103
f 74/167/104 72/165/103 71/122/103 73/124/104
f 76/169/105 74/167/104 73/124/104 75/126/105
f 78/171/106 76/169/105 75/126/105 77/128/106
f 80/173/107 78/171/106 77/128/106 79/130/107
f 82/175/108 80/173/107 79/130/107 81/132/109
f 83/185/110 173/177/111 176/134/112 84/186/110
f 65/158/101 64/157/87 63/94/87 66/118/101
f 86/187/113 105/188/114 106/180/114 85/26/113
f 88/189/115 86/187/113 85/26/113 87/25/115
f 90/190/116 88/189/115 87/25/115 89/32/116
f 92/191/117 90/190/116 89/32/116 91/40/117
f 94/192/118 92/191/117 91/40/117 93/4/118
f 96/193/119 94/192/118 93/4/118 95/3/119
f 98/194/120 96/193/119 95/3/119 97/14/120
f 100/195/121 98/194/120 97/14/120 99/18/121
f 102/196/122 100/195/121 99/18/121 101/22/123
f 103/197/124 179/198/125 182/30/126 104/199/124
f 110/8/127 107/7/128 108/200/128 109/201/127
f 112/46/129 110/8/127 109/201/127 111/202/129
f 114/11/130 112/46/129 111/202/129 113/203/130
f 116/12/131 114/11/130 113/203/130 115/204/131
f 118/16/132 116/12/131 115/204/131 117/205/132
f 120/20/133 118/16/132 117/205/132 119/206/133
f 122/28/134 120/20/133 119/206/133 121/207/134
f 124/34/135 122/28/134 121/207/134 123/208/136
f 125/44/137 171/43/138 174/209/139 126/210/137
f 107/7/128 106/180/114 105/188/114 108/200/128
f 128/137/140 147/160/141 148/86/141 127/76/140
f 130/138/142 128/137/140 127/76/140 129/75/142
f 132/140/143 130/138/142 129/75/142 131/82/143
f 134/142/144 132/140/143 131/82/143 133/88/144
f 136/144/145 134/142/144 133/88/144 135/54/145
f 138/146/146 136/144/145 135/54/145 137/53/146
f 140/148/147 138/146/146 137/53/146 139/64/147
f 142/150/148 140/148/147 139/64/147 141/68/148
f 144/152/149 142/150/148 141/68/148 143/72/150
f 145/156/151 177/155/152 180/80/153 146/211/151
f 152/57/154 149/56/155 150/159/155 151/164/154
f 154/91/156 152/57/154 151/164/154 153/163/156
f 156/60/157 154/91/156 153/163/156 155/166/157
f 158/61/158 156/60/157 155/166/157 157/168/158
f 160/65/159 158/61/158 157/168/158 159/170/159
f 162/69/160 160/65/159 159/170/159 161/172/160
f 164/77/161 162/69/160 161/172/160 163/174/161
f 166/83/162 164/77/161 163/174/161 165/176/163
f 167/212/164 170/89/165 172/178/166 168/213/164
f 149/56/155 148/86/141 147/160/141 150/159/155
f 21/179/1 2/23/1 85/26/1 106/180/1
f 83/214/7 84/215/7 41/216/7 42/217/7
f 168/47/7 83/214/7 42/217/7 125/48/7
f 19/218/7 20/219/7 61/220/7 62/221/7
f 104/35/7 19/218/7 62/221/7 145/36/7
f 174/209/139 171/43/138 124/34/135 123/208/136
f 177/155/55 184/154/55 59/151/52 144/152/53
f 180/80/24 179/79/24 103/222/24 146/211/24
f 184/154/99 181/113/98 60/111/95 59/151/96
f 169/114/40 181/113/40 61/184/40 20/182/40
f 171/43/9 178/42/9 39/33/5 124/34/6
f 172/178/166 170/89/165 166/83/162 165/176/163
f 182/30/126 179/198/125 102/196/122 101/22/123
f 178/42/85 175/133/84 40/131/81 39/33/82
f 174/90/28 170/89/28 167/212/28 126/223/28
f 172/178/58 173/177/58 83/185/167 168/213/167
f 176/134/112 173/177/111 82/175/108 81/132/109
f 182/30/4 183/29/4 19/181/168 104/199/168
f 169/114/72 183/29/71 18/21/68 17/112/69
f 176/134/50 175/133/50 41/183/50 84/186/50
f 180/80/153 177/155/152 144/152/149 143/72/150
