# Blender 4.0.2
# www.blender.org
o bowtie
v 0.012064 0.001875 -0.011928
v 0.012064 0.000388 -0.005754
v 0.005633 0.001563 -0.006731
v 0.021483 0.002244 -0.017735
v 0.021483 -0.000043 -0.007717
v 0.032606 0.004257 -0.022193
v 0.041071 0.006114 -0.024303
v 0.032606 0.000222 -0.009246
v 0.032606 0.002231 0.002418
v 0.044322 0.002412 -0.010681
v 0.045291 0.003722 0.001549
v 0.050534 0.010354 -0.011770
v 0.051629 0.009784 0.001716
v 0.044612 0.016461 -0.009573
v 0.046651 0.011689 -0.024696
v 0.041403 0.017886 -0.021568
v 0.033100 0.018820 -0.019071
v 0.022292 0.013549 -0.016593
v 0.034085 0.017318 -0.007796
v 0.034058 0.014067 0.002642
v 0.022964 0.013949 -0.006709
v 0.023155 0.010847 0.002153
v 0.012194 0.007393 -0.005061
v 0.012194 0.007791 -0.010971
v 0.005919 0.005181 -0.002802
v 0.012194 0.004124 0.000731
v 0.005969 0.004278 0.001341
v 0.012194 0.006123 0.007533
v 0.022962 0.013173 0.010234
v 0.012194 0.006406 0.012664
v 0.006039 0.004453 0.004934
v 0.006099 0.004381 0.007822
v 0.001963 0.003569 0.004585
v 0.001844 0.003160 0.001458
v 0.002058 0.003175 0.006770
v 0.022292 0.014946 0.017740
v 0.033100 0.018840 0.022124
v 0.002033 0.002326 0.006804
v 0.005932 0.002277 0.007753
v 0.001937 0.002454 0.004625
v 0.005870 0.001860 0.004921
v 0.001816 0.002477 0.001497
v 0.005797 0.002036 0.001378
v 0.001683 0.002703 -0.001616
v 0.005713 0.001663 -0.002664
v 0.001555 0.002886 -0.004750
v 0.012064 0.001286 0.000545
v 0.012064 0.000552 0.006028
v 0.021483 0.000689 0.001703
v 0.021483 0.000116 0.009524
v 0.021483 0.002537 0.017099
v 0.032606 0.000632 0.012485
v 0.032606 0.004359 0.021958
v 0.044255 0.003297 0.012968
v 0.049702 0.010693 0.013703
v 0.042688 0.007932 0.023688
v 0.047323 0.012750 0.024721
v 0.042074 0.017144 0.024793
v 0.044149 0.015744 0.013529
v 0.045688 0.013642 0.002535
v 0.033656 0.016404 0.012428
v 0.012064 0.002671 0.012827
v 0.001722 0.003438 -0.001669
v 0.001594 0.003281 -0.004803
v 0.005820 0.004119 -0.006899
v 0.012044 0.004183 -0.011723
v 0.012102 0.002719 -0.005712
v 0.005763 0.002563 -0.006637
v 0.021395 0.005014 -0.017483
v 0.021341 0.002767 -0.007647
v 0.032504 0.007265 -0.021910
v 0.040591 0.009067 -0.023967
v 0.032491 0.003288 -0.009168
v 0.032464 0.005281 0.002409
v 0.043822 0.005430 -0.010538
v 0.044756 0.006717 0.001515
v 0.046349 0.010307 -0.011545
v 0.047388 0.009712 0.001659
v 0.043037 0.013830 -0.009650
v 0.042560 0.011714 -0.024284
v 0.039796 0.015266 -0.021551
v 0.033204 0.015529 -0.019169
v 0.023421 0.010439 -0.016669
v 0.034202 0.014045 -0.007990
v 0.034174 0.010755 0.002617
v 0.024088 0.010842 -0.006909
v 0.024310 0.007689 0.002116
v 0.013085 0.005309 -0.005261
v 0.013090 0.005711 -0.011022
v 0.006263 0.004189 -0.002937
v 0.012815 0.002699 0.000707
v 0.006172 0.003247 0.001252
v 0.013070 0.004041 0.007681
v 0.024081 0.010072 0.010463
v 0.013116 0.004352 0.012777
v 0.006268 0.003429 0.004996
v 0.006470 0.003382 0.007796
v 0.001906 0.002566 0.004591
v 0.001842 0.002148 0.001383
v 0.002017 0.002180 0.006680
v 0.023384 0.011822 0.017963
v 0.033114 0.015568 0.022328
v 0.001855 0.003300 0.006662
v 0.006030 0.003281 0.007532
v 0.001740 0.003438 0.004578
v 0.005889 0.002893 0.004859
v 0.001632 0.003460 0.001507
v 0.005802 0.003057 0.001381
v 0.001580 0.003700 -0.001616
v 0.005764 0.002678 -0.002678
v 0.001523 0.003885 -0.004731
v 0.012084 0.003616 0.000528
v 0.012126 0.002891 0.005947
v 0.021306 0.003484 0.001700
v 0.021357 0.002934 0.009409
v 0.021445 0.005287 0.016772
v 0.032478 0.003698 0.012330
v 0.032471 0.007337 0.021583
v 0.043746 0.006292 0.012768
v 0.045492 0.010596 0.013467
v 0.042147 0.010815 0.023307
v 0.043122 0.012439 0.024411
v 0.040523 0.014525 0.024877
v 0.042616 0.013115 0.013627
v 0.044137 0.010995 0.002510
v 0.033737 0.013145 0.012651
v 0.012103 0.004953 0.012533
v 0.001838 0.002419 -0.001719
v 0.001764 0.002316 -0.004605
v 0.006315 0.003201 -0.006816
v 0.011909 0.003034 -0.012192
v 0.005553 0.002067 -0.007051
v 0.021294 0.003634 -0.017976
v 0.032410 0.005766 -0.022418
v 0.040686 0.007595 -0.024501
v 0.044460 0.011706 -0.024857
v 0.040454 0.016581 -0.021926
v 0.033007 0.017179 -0.019486
v 0.022711 0.011998 -0.016998
v 0.012496 0.006756 -0.011363
v 0.001394 0.003390 -0.005107
v 0.001534 0.002803 -0.005070
v 0.005922 0.003665 -0.007224
v 0.012464 0.005388 0.013272
v 0.006094 0.003890 0.008361
v 0.001847 0.002687 0.007276
v 0.022647 0.013393 0.018403
v 0.032916 0.017213 0.022777
v 0.001754 0.002822 0.007284
v 0.005790 0.002788 0.008194
v 0.021273 0.003921 0.017487
v 0.032348 0.005857 0.022322
v 0.042227 0.009382 0.024049
v 0.045032 0.012603 0.025117
v 0.041107 0.015843 0.025387
v 0.011893 0.003821 0.013231
v -0.012064 0.001875 -0.011928
v -0.012064 0.000388 -0.005754
v -0.005633 0.001563 -0.006731
v -0.021483 0.002244 -0.017735
v -0.021483 -0.000043 -0.007717
v -0.032606 0.004257 -0.022193
v -0.041071 0.006114 -0.024303
v -0.032606 0.000222 -0.009246
v -0.032606 0.002231 0.002418
v -0.044322 0.002412 -0.010681
v -0.045291 0.003722 0.001549
v -0.050534 0.010354 -0.011770
v -0.051629 0.009784 0.001716
v -0.044612 0.016461 -0.009573
v -0.046651 0.011689 -0.024696
v -0.041403 0.017886 -0.021568
v -0.033100 0.018820 -0.019071
v -0.022292 0.013549 -0.016593
v -0.034085 0.017318 -0.007796
v -0.034058 0.014067 0.002642
v -0.022964 0.013949 -0.006709
v -0.023155 0.010847 0.002153
v -0.012194 0.007393 -0.005061
v -0.012194 0.007791 -0.010971
v -0.005919 0.005181 -0.002802
v -0.012194 0.004124 0.000731
v -0.005969 0.004278 0.001341
v -0.012194 0.006123 0.007533
v -0.022962 0.013173 0.010234
v -0.012194 0.006406 0.012664
v -0.006039 0.004453 0.004934
v -0.006099 0.004381 0.007822
v -0.001963 0.003569 0.004585
v -0.001844 0.003160 0.001458
v -0.002058 0.003175 0.006770
v -0.022292 0.014946 0.017740
v -0.033100 0.018840 0.022124
v -0.002033 0.002326 0.006804
v -0.005932 0.002277 0.007753
v -0.001937 0.002454 0.004625
v -0.005870 0.001860 0.004921
v -0.001816 0.002477 0.001497
v -0.005797 0.002036 0.001378
v -0.001683 0.002703 -0.001616
v -0.005713 0.001663 -0.002664
v -0.001555 0.002886 -0.004750
v -0.012064 0.001286 0.000545
v -0.012064 0.000552 0.006028
v -0.021483 0.000689 0.001703
v -0.021483 0.000116 0.009524
v -0.021483 0.002537 0.017099
v -0.032606 0.000632 0.012485
v -0.032606 0.004359 0.021958
v -0.044255 0.003297 0.012968
v -0.049702 0.010693 0.013703
v -0.042688 0.007932 0.023688
v -0.047323 0.012750 0.024721
v -0.042074 0.017144 0.024793
v -0.044149 0.015744 0.013529
v -0.045688 0.013642 0.002535
v -0.033656 0.016404 0.012428
v -0.012064 0.002671 0.012827
v -0.001722 0.003438 -0.001669
v -0.001594 0.003281 -0.004803
v -0.005820 0.004119 -0.006899
v -0.012044 0.004183 -0.011723
v -0.012102 0.002719 -0.005712
v -0.005763 0.002563 -0.006637
v -0.021395 0.005014 -0.017483
v -0.021341 0.002767 -0.007647
v -0.032504 0.007265 -0.021910
v -0.040591 0.009067 -0.023967
v -0.032491 0.003288 -0.009168
v -0.032464 0.005281 0.002409
v -0.043822 0.005430 -0.010538
v -0.044756 0.006717 0.001515
v -0.046349 0.010307 -0.011545
v -0.047388 0.009712 0.001659
v -0.043037 0.013830 -0.009650
v -0.042560 0.011714 -0.024284
v -0.039796 0.015266 -0.021551
v -0.033204 0.015529 -0.019169
v -0.023421 0.010439 -0.016669
v -0.034202 0.014045 -0.007990
v -0.034174 0.010755 0.002617
v -0.024088 0.010842 -0.006909
v -0.024310 0.007689 0.002116
v -0.013085 0.005309 -0.005261
v -0.013090 0.005711 -0.011022
v -0.006263 0.004189 -0.002937
v -0.012815 0.002699 0.000707
v -0.006172 0.003247 0.001252
v -0.013070 0.004041 0.007681
v -0.024081 0.010072 0.010463
v -0.013116 0.004352 0.012777
v -0.006268 0.003429 0.004996
v -0.006470 0.003382 0.007796
v -0.001906 0.002566 0.004591
v -0.001842 0.002148 0.001383
v -0.002017 0.002180 0.006680
v -0.023384 0.011822 0.017963
v -0.033114 0.015568 0.022328
v -0.001855 0.003300 0.006662
v -0.006030 0.003281 0.007532
v -0.001740 0.003438 0.004578
v -0.005889 0.002893 0.004859
v -0.001632 0.003460 0.001507
v -0.005802 0.003057 0.001381
v -0.001580 0.003700 -0.001616
v -0.005764 0.002678 -0.002678
v -0.001523 0.003885 -0.004731
v -0.012084 0.003616 0.000528
v -0.012126 0.002891 0.005947
v -0.021306 0.003484 0.001700
v -0.021357 0.002934 0.009409
v -0.021445 0.005287 0.016772
v -0.032478 0.003698 0.012330
v -0.032471 0.007337 0.021583
v -0.043746 0.006292 0.012768
v -0.045492 0.010596 0.013467
v -0.042147 0.010815 0.023307
v -0.043122 0.012439 0.024411
v -0.040523 0.014525 0.024877
v -0.042616 0.013115 0.013627
v -0.044137 0.010995 0.002510
v -0.033737 0.013145 0.012651
v -0.012103 0.004953 0.012533
v -0.001838 0.002419 -0.001719
v -0.001764 0.002316 -0.004605
v -0.006315 0.003201 -0.006816
v -0.011909 0.003034 -0.012192
v -0.005553 0.002067 -0.007051
v -0.021294 0.003634 -0.017976
v -0.032410 0.005766 -0.022418
v -0.040686 0.007595 -0.024501
v -0.044460 0.011706 -0.024857
v -0.040454 0.016581 -0.021926
v -0.033007 0.017179 -0.019486
v -0.022711 0.011998 -0.016998
v -0.012496 0.006756 -0.011363
v -0.001394 0.003390 -0.005107
v -0.001534 0.002803 -0.005070
v -0.005922 0.003665 -0.007224
v -0.012464 0.005388 0.013272
v -0.006094 0.003890 0.008361
v -0.001847 0.002687 0.007276
v -0.022647 0.013393 0.018403
v -0.032916 0.017213 0.022777
v -0.001754 0.002822 0.007284
v -0.005790 0.002788 0.008194
v -0.021273 0.003921 0.017487
v -0.032348 0.005857 0.022322
v -0.042227 0.009382 0.024049
v -0.045032 0.012603 0.025117
v -0.041107 0.015843 0.025387
v -0.011893 0.003821 0.013231
v 0.005300 0.002191 -0.005999
v 0.003189 0.001416 -0.008279
v 0.003189 0.002905 -0.009152
v 0.005412 0.002928 -0.006674
v 0.005330 0.003715 -0.006037
v 0.003189 0.004458 -0.008354
v 0.003189 0.005659 -0.004889
v 0.000000 0.004582 -0.008585
v 0.000000 0.005844 -0.004919
v 0.000000 0.002953 -0.009371
v 0.000000 0.001387 -0.008506
v 0.000000 0.000309 -0.004781
v 0.000000 0.000000 0.000000
v 0.003189 0.000389 -0.004759
v 0.003189 0.000101 0.000022
v 0.003189 0.000623 0.004710
v 0.005082 0.001584 0.000051
v 0.005121 0.001696 -0.003614
v 0.005052 0.001881 0.003707
v 0.005296 0.002499 0.006310
v 0.005448 0.003286 0.006946
v 0.005326 0.004023 0.006273
v 0.005105 0.004520 0.003642
v 0.005143 0.004631 -0.000023
v 0.005173 0.004335 -0.003679
v 0.003189 0.006185 -0.000128
v 0.000000 0.006391 -0.000158
v 0.003189 0.005892 0.004579
v 0.000000 0.006082 0.004623
v 0.003189 0.004876 0.008571
v 0.000000 0.004915 0.008349
v 0.003189 0.003386 0.009442
v 0.000000 0.003437 0.009232
v 0.003189 0.001833 0.008647
v 0.000000 0.001894 0.008429
v 0.000000 0.000547 0.004760
v 0.005630 0.001606 -0.007974
v 0.005856 0.001964 -0.006824
v 0.006079 0.001741 -0.007589
v 0.005655 0.001319 -0.004131
v 0.005362 0.000726 -0.004749
v 0.005823 0.000936 -0.004390
v 0.005623 0.002872 -0.008856
v 0.005867 0.002901 -0.007499
v 0.006080 0.002875 -0.008412
v 0.005631 0.004201 -0.008038
v 0.005866 0.003885 -0.006861
v 0.006082 0.004068 -0.007644
v 0.005365 0.005247 -0.004861
v 0.005670 0.004663 -0.004200
v 0.005828 0.005037 -0.004481
v 0.005221 0.000488 0.000030
v 0.005551 0.001179 0.000043
v 0.005700 0.000764 0.000041
v 0.005642 0.001513 0.004225
v 0.005361 0.000963 0.004770
v 0.005819 0.001155 0.004453
v 0.005632 0.002009 0.008312
v 0.005858 0.002310 0.007148
v 0.006080 0.002124 0.007918
v 0.005625 0.003338 0.009128
v 0.005884 0.003299 0.007759
v 0.006085 0.003319 0.008678
v 0.005633 0.004603 0.008247
v 0.005868 0.004233 0.007090
v 0.006083 0.004452 0.007858
v 0.005364 0.005484 0.004658
v 0.005656 0.004887 0.004130
v 0.005824 0.005259 0.004342
v 0.005225 0.005724 -0.000100
v 0.005568 0.005007 -0.000050
v 0.005706 0.005428 -0.000074
v -0.005300 0.002191 -0.005999
v -0.003189 0.001416 -0.008279
v -0.003189 0.002905 -0.009152
v -0.005412 0.002928 -0.006674
v -0.005330 0.003715 -0.006037
v -0.003189 0.004458 -0.008354
v -0.003189 0.005659 -0.004889
v -0.003189 0.000389 -0.004759
v -0.003189 0.000101 0.000022
v -0.003189 0.000623 0.004710
v -0.005082 0.001584 0.000051
v -0.005121 0.001696 -0.003614
v -0.005052 0.001881 0.003707
v -0.005296 0.002499 0.006310
v -0.005448 0.003286 0.006946
v -0.005326 0.004023 0.006273
v -0.005105 0.004520 0.003642
v -0.005143 0.004631 -0.000023
v -0.005173 0.004335 -0.003679
v -0.003189 0.006185 -0.000128
v -0.003189 0.005892 0.004579
v -0.003189 0.004876 0.008571
v -0.003189 0.003386 0.009442
v -0.003189 0.001833 0.008647
v -0.005630 0.001606 -0.007974
v -0.005856 0.001964 -0.006824
v -0.006079 0.001741 -0.007589
v -0.005655 0.001319 -0.004131
v -0.005362 0.000726 -0.004749
v -0.005823 0.000936 -0.004390
v -0.005623 0.002872 -0.008856
v -0.005867 0.002901 -0.007499
v -0.006080 0.002875 -0.008412
v -0.005631 0.004201 -0.008038
v -0.005866 0.003885 -0.006861
v -0.006082 0.004068 -0.007644
v -0.005365 0.005247 -0.004861
v -0.005670 0.004663 -0.004200
v -0.005828 0.005037 -0.004481
v -0.005221 0.000488 0.000030
v -0.005551 0.001179 0.000043
v -0.005700 0.000764 0.000041
v -0.005642 0.001513 0.004225
v -0.005361 0.000963 0.004770
v -0.005819 0.001155 0.004453
v -0.005632 0.002009 0.008312
v -0.005858 0.002310 0.007148
v -0.006080 0.002124 0.007918
v -0.005625 0.003338 0.009128
v -0.005884 0.003299 0.007759
v -0.006085 0.003319 0.008678
v -0.005633 0.004603 0.008247
v -0.005868 0.004233 0.007090
v -0.006083 0.004452 0.007858
v -0.005364 0.005484 0.004658
v -0.005656 0.004887 0.004130
v -0.005824 0.005259 0.004342
v -0.005225 0.005724 -0.000100
v -0.005568 0.005007 -0.000050
v -0.005706 0.005428 -0.000074
vn -0.2596 -0.6948 -0.6708
vn -0.0087 -0.9976 -0.0682
vn -0.1082 -0.9933 -0.0409
vn -0.3832 -0.7196 -0.5791
vn -0.1867 -0.9822 0.0199
vn -0.3890 -0.8273 -0.4054
vn -0.1088 -0.6697 -0.7346
vn 0.1035 -0.9917 -0.0764
vn 0.4641 -0.8758 -0.1327
vn 0.2360 -0.6215 -0.7471
vn 0.1323 -0.9912 0.0088
vn 0.0294 -0.9996 0.0021
vn 0.5023 -0.8641 0.0318
vn 0.9980 0.0489 0.0394
vn 0.9868 0.0328 -0.1587
vn 0.6845 0.0871 -0.7238
vn 0.4232 0.9032 0.0716
vn 0.3999 0.9162 0.0238
vn 0.2328 0.8300 -0.5069
vn -0.2313 0.8495 -0.4741
vn -0.1049 0.9766 0.1880
vn -0.5232 0.6507 -0.5503
vn -0.4021 0.8965 0.1863
vn -0.1010 0.9946 0.0239
vn -0.3986 0.9164 0.0357
vn -0.4163 0.8933 0.1694
vn -0.2858 0.9537 0.0934
vn -0.6228 0.6105 -0.4892
vn -0.5243 0.6943 -0.4931
vn -0.2779 0.9548 0.1051
vn -0.1780 0.9821 0.0620
vn -0.3848 0.8946 -0.2273
vn -0.3709 0.9155 -0.1563
vn -0.2052 0.9768 -0.0618
vn -0.5483 0.7594 0.3502
vn -0.6367 0.6574 0.4030
vn -0.4006 0.8590 0.3189
vn -0.2692 0.9621 0.0427
vn -0.2489 0.9685 0.0029
vn -0.3270 0.8716 0.3651
vn -0.1442 -0.9888 0.0387
vn -0.2533 -0.8623 0.4385
vn -0.1382 -0.9081 0.3952
vn -0.1116 -0.9937 0.0140
vn -0.1482 -0.9890 0.0022
vn -0.1539 -0.9881 0.0002
vn -0.2237 -0.9746 0.0130
vn -0.4182 -0.8399 -0.3459
vn -0.0907 -0.9958 0.0160
vn -0.1304 -0.9885 0.0769
vn -0.0243 -0.9936 0.1106
vn 0.1150 -0.9821 0.1491
vn -0.0553 -0.6717 0.7388
vn -0.2386 -0.7101 0.6625
vn -0.3565 -0.7145 0.6020
vn 0.3138 -0.6230 0.7166
vn 0.4751 -0.8600 0.1860
vn 0.9842 0.0676 0.1634
vn 0.7744 0.1183 0.6215
vn 0.3894 0.9163 -0.0937
vn 0.2764 0.7857 0.5534
vn -0.0700 0.9732 -0.2191
vn -0.2056 0.8922 0.4021
vn -0.3209 0.9467 0.0278
vn -0.4296 0.7796 -0.4557
vn -0.3301 0.8480 -0.4146
vn -0.3483 0.8763 -0.3328
vn -0.0187 0.9989 0.0420
vn -0.0270 0.9973 0.0689
vn -0.1757 0.9185 -0.3543
vn 0.0795 0.9967 -0.0177
vn -0.3110 0.8487 -0.4278
vn -0.1154 0.9904 0.0765
vn -0.5255 0.8401 0.1345
vn -0.5669 0.6567 -0.4973
vn -0.1433 0.9896 -0.0085
vn -0.0654 0.9979 -0.0021
vn -0.5743 0.8180 -0.0321
vn -0.9857 -0.1643 -0.0383
vn -0.9805 -0.1117 0.1619
vn -0.7501 0.1747 -0.6379
vn -0.3839 -0.9198 -0.0818
vn -0.3270 -0.9449 -0.0175
vn -0.5524 -0.5166 -0.6543
vn 0.1410 -0.9714 -0.1910
vn -0.0724 -0.7101 -0.7003
vn 0.3696 -0.9116 -0.1798
vn 0.0988 -0.7626 -0.6393
vn 0.1367 -0.9904 -0.0223
vn 0.3503 -0.9359 -0.0380
vn 0.1851 -0.9783 -0.0931
vn 0.3015 -0.9417 -0.1494
vn 0.0620 -0.8577 -0.5104
vn 0.2060 -0.9750 -0.0829
vn 0.0577 -0.9333 -0.3544
vn 0.1207 -0.9906 -0.0638
vn 0.3505 -0.9103 0.2201
vn 0.2536 -0.9574 0.1378
vn 0.1308 -0.9906 0.0406
vn 0.0611 -0.7353 0.6750
vn 0.0645 -0.8526 0.5186
vn 0.0114 -0.9488 0.3157
vn 0.2302 -0.9731 -0.0042
vn 0.2533 -0.9667 -0.0367
vn 0.1665 -0.9505 0.2622
vn 0.0329 0.9988 -0.0363
vn 0.0955 0.9954 -0.0126
vn -0.0147 0.9687 0.2479
vn -0.1583 0.9738 0.1632
vn 0.0385 0.9993 -0.0006
vn 0.1390 0.9903 0.0019
vn 0.2111 0.9774 -0.0089
vn 0.1185 0.9359 -0.3318
vn -0.0381 0.9991 -0.0159
vn 0.0032 0.9969 -0.0789
vn -0.0106 0.9936 -0.1122
vn -0.1267 0.9807 -0.1488
vn -0.3374 0.8738 0.3502
vn -0.2385 0.9196 0.3122
vn -0.2676 0.9281 0.2591
vn -0.7353 0.6031 0.3094
vn -0.5473 0.8166 -0.1834
vn -0.9698 -0.1975 -0.1428
vn -0.6996 -0.3125 0.6425
vn -0.3623 -0.6489 0.6691
vn -0.3396 -0.9352 0.1003
vn 0.1022 -0.9699 0.2212
vn -0.1778 -0.6992 0.6925
vn 0.3094 -0.9506 -0.0260
vn 0.1315 -0.9661 -0.2223
vn -0.5861 0.0719 -0.8070
vn -0.5590 0.0091 -0.8291
vn -0.4547 0.0529 -0.8891
vn -0.3208 0.0674 -0.9447
vn -0.1649 0.0225 -0.9861
vn -0.1051 0.1786 -0.9783
vn -0.2503 0.2662 -0.9308
vn -0.2752 0.0728 -0.9586
vn -0.3310 -0.0747 -0.9407
vn -0.4630 -0.1070 0.8799
vn -0.2026 -0.1790 0.9628
vn -0.2165 0.1899 0.9576
vn -0.4955 0.0772 0.8652
vn -0.3719 0.1730 -0.9120
vn -0.1726 -0.0472 0.9839
vn 0.0187 -0.0966 0.9951
vn -0.3023 0.0690 0.9507
vn -0.1312 0.0643 0.9893
vn -0.3410 0.1022 0.9345
vn -0.4136 0.0712 0.9077
vn -0.5328 0.1097 0.8391
vn -0.4139 -0.0162 0.9102
vn -0.4662 -0.1824 0.8657
vn -0.3992 -0.2045 -0.8937
vn -0.4351 -0.2227 -0.8724
vn -0.4489 -0.1653 -0.8782
vn 0.2596 -0.6948 -0.6708
vn 0.3832 -0.7196 -0.5791
vn 0.1082 -0.9933 -0.0409
vn 0.0087 -0.9976 -0.0682
vn 0.3890 -0.8273 -0.4054
vn 0.1867 -0.9822 0.0199
vn 0.1088 -0.6697 -0.7346
vn -0.1035 -0.9917 -0.0764
vn -0.4641 -0.8758 -0.1327
vn -0.2360 -0.6215 -0.7471
vn -0.1323 -0.9912 0.0088
vn -0.0294 -0.9996 0.0021
vn -0.5023 -0.8641 0.0318
vn -0.9980 0.0489 0.0394
vn -0.9868 0.0328 -0.1587
vn -0.6845 0.0871 -0.7238
vn -0.4232 0.9032 0.0716
vn -0.3999 0.9162 0.0238
vn -0.2328 0.8300 -0.5069
vn 0.1049 0.9766 0.1880
vn 0.2313 0.8495 -0.4741
vn 0.4021 0.8965 0.1863
vn 0.5232 0.6507 -0.5503
vn 0.1010 0.9946 0.0239
vn 0.3986 0.9164 0.0357
vn 0.2858 0.9537 0.0934
vn 0.4163 0.8933 0.1694
vn 0.6228 0.6105 -0.4892
vn 0.2779 0.9548 0.1051
vn 0.5243 0.6943 -0.4931
vn 0.1780 0.9821 0.0620
vn 0.3848 0.8946 -0.2273
vn 0.3709 0.9155 -0.1563
vn 0.2052 0.9768 -0.0618
vn 0.5483 0.7594 0.3502
vn 0.6367 0.6574 0.4030
vn 0.4006 0.8590 0.3189
vn 0.2489 0.9685 0.0029
vn 0.2692 0.9621 0.0427
vn 0.3270 0.8716 0.3651
vn 0.1442 -0.9888 0.0387
vn 0.1116 -0.9937 0.0140
vn 0.1382 -0.9081 0.3952
vn 0.2533 -0.8623 0.4385
vn 0.1482 -0.9890 0.0022
vn 0.1539 -0.9881 0.0002
vn 0.2237 -0.9746 0.0130
vn 0.4182 -0.8399 -0.3459
vn 0.0907 -0.9958 0.0160
vn 0.1304 -0.9885 0.0769
vn 0.0243 -0.9936 0.1106
vn -0.1150 -0.9821 0.1491
vn 0.0553 -0.6717 0.7388
vn 0.2386 -0.7101 0.6625
vn 0.3565 -0.7145 0.6020
vn -0.3138 -0.6230 0.7166
vn -0.4751 -0.8600 0.1860
vn -0.9842 0.0676 0.1634
vn -0.7744 0.1183 0.6215
vn -0.2764 0.7857 0.5534
vn -0.3894 0.9163 -0.0937
vn 0.0700 0.9732 -0.2191
vn 0.2056 0.8922 0.4021
vn 0.3209 0.9467 0.0278
vn 0.4296 0.7796 -0.4557
vn 0.3301 0.8480 -0.4146
vn 0.0270 0.9973 0.0689
vn 0.0187 0.9989 0.0420
vn 0.3483 0.8763 -0.3328
vn -0.0795 0.9967 -0.0177
vn 0.1757 0.9185 -0.3543
vn 0.3110 0.8487 -0.4278
vn 0.1154 0.9904 0.0765
vn 0.5255 0.8401 0.1345
vn 0.5669 0.6567 -0.4973
vn 0.1433 0.9896 -0.0085
vn 0.0654 0.9979 -0.0021
vn 0.5743 0.8180 -0.0321
vn 0.9857 -0.1643 -0.0383
vn 0.9805 -0.1117 0.1619
vn 0.7501 0.1747 -0.6379
vn 0.3839 -0.9198 -0.0818
vn 0.3270 -0.9449 -0.0175
vn 0.5524 -0.5166 -0.6543
vn 0.0724 -0.7101 -0.7003
vn -0.1410 -0.9714 -0.1910
vn -0.0988 -0.7626 -0.6393
vn -0.3696 -0.9116 -0.1798
vn -0.1367 -0.9904 -0.0223
vn -0.3503 -0.9359 -0.0380
vn -0.3015 -0.9417 -0.1494
vn -0.1851 -0.9783 -0.0931
vn -0.0620 -0.8577 -0.5104
vn -0.0577 -0.9333 -0.3544
vn -0.2060 -0.9750 -0.0829
vn -0.1207 -0.9906 -0.0638
vn -0.3505 -0.9103 0.2201
vn -0.2536 -0.9574 0.1378
vn -0.1308 -0.9906 0.0406
vn -0.0611 -0.7353 0.6750
vn -0.0645 -0.8526 0.5186
vn -0.0114 -0.9488 0.3157
vn -0.2533 -0.9667 -0.0367
vn -0.2302 -0.9731 -0.0042
vn -0.1665 -0.9505 0.2622
vn -0.0329 0.9988 -0.0363
vn 0.1583 0.9738 0.1632
vn 0.0147 0.9687 0.2479
vn -0.0955 0.9954 -0.0126
vn -0.0385 0.9993 -0.0006
vn -0.1390 0.9903 0.0019
vn -0.2111 0.9774 -0.0089
vn -0.1185 0.9359 -0.3318
vn 0.0381 0.9991 -0.0159
vn -0.0032 0.9969 -0.0789
vn 0.0106 0.9936 -0.1122
vn 0.1267 0.9807 -0.1488
vn 0.3374 0.8738 0.3502
vn 0.2385 0.9196 0.3122
vn 0.2676 0.9281 0.2591
vn 0.7353 0.6031 0.3094
vn 0.5473 0.8166 -0.1834
vn 0.9698 -0.1975 -0.1428
vn 0.6996 -0.3125 0.6425
vn 0.3396 -0.9352 0.1003
vn 0.3623 -0.6489 0.6691
vn -0.1022 -0.9699 0.2212
vn 0.1778 -0.6992 0.6925
vn -0.3094 -0.9506 -0.0260
vn -0.1315 -0.9661 -0.2223
vn 0.5861 0.0719 -0.8070
vn 0.5590 0.0091 -0.8291
vn 0.4547 0.0529 -0.8891
vn 0.3208 0.0674 -0.9447
vn 0.1649 0.0225 -0.9861
vn 0.1051 0.1786 -0.9783
vn 0.2503 0.2662 -0.9308
vn 0.2752 0.0728 -0.9586
vn 0.3310 -0.0747 -0.9407
vn 0.4630 -0.1070 0.8799
vn 0.2026 -0.1790 0.9628
vn 0.2165 0.1899 0.9576
vn 0.4955 0.0772 0.8652
vn 0.3719 0.1730 -0.9120
vn 0.1726 -0.0472 0.9839
vn -0.0187 -0.0966 0.9951
vn 0.3023 0.0690 0.9507
vn 0.1312 0.0643 0.9893
vn 0.3410 0.1022 0.9345
vn 0.4136 0.0712 0.9077
vn 0.5328 0.1097 0.8391
vn 0.4139 -0.0162 0.9102
vn 0.4662 -0.1824 0.8657
vn 0.3992 -0.2045 -0.8937
vn 0.4351 -0.2227 -0.8724
vn 0.4489 -0.1653 -0.8782
vn 0.3104 -0.9385 -0.1515
vn 0.3163 -0.9484 0.0235
vn 0.0988 -0.9948 0.0250
vn 0.0888 -0.9823 -0.1650
vn 0.4124 -0.0282 -0.9106
vn 0.3714 -0.7431 -0.5566
vn 0.0886 -0.7914 -0.6048
vn 0.1113 -0.0280 -0.9934
vn 0.8991 0.3440 0.2709
vn 0.9487 0.0052 0.3161
vn 0.8717 0.0060 0.4900
vn 0.7338 0.6108 0.2974
vn 0.9018 -0.3264 0.2831
vn 0.7328 -0.5983 0.3240
vn 0.8315 -0.5355 0.1475
vn 0.6429 -0.7556 0.1255
vn 0.3400 0.9199 -0.1956
vn 0.3918 0.7053 -0.5909
vn 0.1144 0.7561 -0.6444
vn 0.1214 0.9695 -0.2129
vn 0.8154 -0.5787 0.0170
vn 0.6234 -0.7816 0.0223
vn -0.0000 0.7468 -0.6650
vn -0.0000 0.9754 -0.2203
vn -0.0000 -0.0229 -0.9997
vn -0.0000 -0.9997 0.0247
vn -0.0000 -0.9851 -0.1719
vn -0.0000 -0.7776 -0.6288
vn 0.8057 0.5922 -0.0124
vn 0.8235 0.5540 0.1223
vn 0.6391 0.7638 0.0900
vn 0.6190 0.7852 -0.0172
vn 0.0790 -0.9759 0.2033
vn -0.0000 -0.9761 0.2175
vn 0.8070 0.5722 -0.1457
vn 0.6210 0.7741 -0.1231
vn 0.8981 0.3338 -0.2864
vn 0.7255 0.6062 -0.3258
vn 0.3026 -0.9352 0.1839
vn 0.3713 -0.7203 0.5859
vn 0.0466 -0.7614 0.6466
vn 0.4174 0.0232 0.9084
vn 0.0432 0.0280 0.9987
vn 0.3898 0.7434 0.5435
vn 0.0717 0.7928 0.6053
vn 0.3313 0.9336 0.1365
vn 0.1118 0.9816 0.1548
vn 0.3466 0.9377 -0.0232
vn 0.1322 0.9909 -0.0242
vn -0.0000 0.9997 -0.0249
vn -0.0000 0.9856 0.1690
vn -0.0000 0.8011 0.5985
vn 0.8141 -0.5690 -0.1161
vn 0.6225 -0.7783 -0.0820
vn 0.8988 -0.3487 -0.2656
vn 0.7201 -0.6302 -0.2904
vn -0.0000 0.0340 0.9994
vn 0.9495 -0.0137 -0.3134
vn 0.8718 -0.0251 -0.4893
vn -0.0000 -0.7650 0.6440
vn 0.8988 -0.4094 -0.1570
vn 0.9181 -0.3960 0.0148
vn 0.9076 -0.0171 -0.4194
vn 0.9041 0.3889 -0.1771
vn 0.9203 0.3911 -0.0058
vn 0.9241 -0.3822 0.0051
vn 0.9265 -0.3762 0.0112
vn 0.9276 0.3734 -0.0074
vn 0.9260 0.3774 -0.0130
vn 0.8988 0.4108 0.1530
vn 0.9083 0.0087 0.4181
vn 0.8927 -0.4148 0.1762
vn -0.3104 -0.9385 -0.1515
vn -0.0888 -0.9823 -0.1650
vn -0.0988 -0.9948 0.0250
vn -0.3163 -0.9484 0.0235
vn -0.4124 -0.0282 -0.9106
vn -0.1113 -0.0280 -0.9934
vn -0.0886 -0.7914 -0.6048
vn -0.3714 -0.7431 -0.5566
vn -0.8991 0.3440 0.2709
vn -0.7338 0.6108 0.2974
vn -0.8717 0.0060 0.4900
vn -0.9487 0.0052 0.3161
vn -0.7328 -0.5983 0.3240
vn -0.9018 -0.3264 0.2831
vn -0.6429 -0.7556 0.1255
vn -0.8315 -0.5355 0.1475
vn -0.3400 0.9199 -0.1956
vn -0.1214 0.9695 -0.2129
vn -0.1144 0.7561 -0.6444
vn -0.3918 0.7053 -0.5909
vn -0.6234 -0.7816 0.0223
vn -0.8154 -0.5787 0.0170
vn -0.8057 0.5922 -0.0124
vn -0.6190 0.7852 -0.0172
vn -0.6391 0.7638 0.0900
vn -0.8235 0.5540 0.1223
vn -0.0790 -0.9759 0.2033
vn -0.8070 0.5722 -0.1457
vn -0.6210 0.7741 -0.1231
vn -0.8981 0.3338 -0.2864
vn -0.7255 0.6062 -0.3258
vn -0.3026 -0.9352 0.1839
vn -0.0466 -0.7614 0.6466
vn -0.3713 -0.7203 0.5859
vn -0.0432 0.0280 0.9987
vn -0.4174 0.0232 0.9084
vn -0.0717 0.7928 0.6053
vn -0.3898 0.7434 0.5435
vn -0.1118 0.9816 0.1548
vn -0.3313 0.9336 0.1365
vn -0.1322 0.9909 -0.0242
vn -0.3466 0.9377 -0.0232
vn -0.6225 -0.7783 -0.0820
vn -0.8141 -0.5690 -0.1161
vn -0.7201 -0.6302 -0.2904
vn -0.8988 -0.3487 -0.2656
vn -0.8718 -0.0251 -0.4893
vn -0.9495 -0.0137 -0.3134
vn -0.9181 -0.3960 0.0148
vn -0.8988 -0.4094 -0.1570
vn -0.9076 -0.0171 -0.4194
vn -0.9041 0.3889 -0.1771
vn -0.9203 0.3911 -0.0058
vn -0.9265 -0.3762 0.0112
vn -0.9241 -0.3822 0.0051
vn -0.9276 0.3734 -0.0074
vn -0.9260 0.3774 -0.0130
vn -0.8988 0.4108 0.1530
vn -0.9083 0.0087 0.4181
vn -0.8927 -0.4148 0.1762
vt 0.559704 0.177872
vt 0.494929 0.166634
vt 0.487848 0.101278
vt 0.534152 0.106580
vt 0.467635 0.049613
vt 0.500620 0.051342
vt 0.569617 0.252870
vt 0.496603 0.231881
vt 0.495972 0.288423
vt 0.557253 0.297093
vt 0.433861 0.231164
vt 0.434867 0.165367
vt 0.441511 0.293963
vt 0.442950 0.333166
vt 0.497868 0.330333
vt 0.544498 0.330095
vt 0.496823 0.369301
vt 0.439191 0.365275
vt 0.552952 0.366978
vt 0.558616 0.410793
vt 0.497983 0.422683
vt 0.563756 0.485795
vt 0.499290 0.491496
vt 0.438005 0.427800
vt 0.438305 0.499270
vt 0.494402 0.582371
vt 0.445108 0.591488
vt 0.539790 0.576144
vt 0.515174 0.641386
vt 0.478456 0.637671
vt 0.442295 0.639942
vt 0.383432 0.490050
vt 0.391332 0.585076
vt 0.411087 0.640214
vt 0.335837 0.479700
vt 0.350832 0.578787
vt 0.385134 0.640434
vt 0.442541 0.676050
vt 0.416219 0.675198
vt 0.397973 0.676255
vt 0.404185 0.049671
vt 0.378432 0.050016
vt 0.389133 0.016663
vt 0.407454 0.016034
vt 0.434221 0.048985
vt 0.434014 0.015389
vt 0.460595 0.014822
vt 0.487270 0.015112
vt 0.441218 0.099344
vt 0.400019 0.102236
vt 0.384918 0.169835
vt 0.379675 0.237485
vt 0.326250 0.255689
vt 0.333530 0.179972
vt 0.348604 0.110452
vt 0.338029 0.312793
vt 0.390026 0.294518
vt 0.391381 0.335305
vt 0.349848 0.342331
vt 0.386519 0.370105
vt 0.336442 0.366252
vt 0.381872 0.422335
vt 0.331459 0.410601
vt 0.468824 0.675696
vt 0.494843 0.677183
vt 0.628579 0.140915
vt 0.663796 0.078543
vt 0.703541 0.078280
vt 0.692733 0.136611
vt 0.697648 0.037654
vt 0.723003 0.037811
vt 0.606103 0.217782
vt 0.687059 0.203416
vt 0.685055 0.265049
vt 0.605023 0.273168
vt 0.753757 0.203274
vt 0.750394 0.136186
vt 0.747483 0.271332
vt 0.748093 0.292961
vt 0.679992 0.293349
vt 0.604729 0.293539
vt 0.686069 0.320005
vt 0.753953 0.311554
vt 0.614695 0.325110
vt 0.691584 0.369134
vt 0.622865 0.368305
vt 0.699272 0.431605
vt 0.639059 0.437531
vt 0.757337 0.370381
vt 0.757337 0.434323
vt 0.752274 0.510499
vt 0.712996 0.506766
vt 0.676866 0.507109
vt 0.728870 0.549249
vt 0.704388 0.551456
vt 0.755497 0.550239
vt 0.810705 0.428502
vt 0.794537 0.506283
vt 0.778952 0.549188
vt 0.858463 0.426336
vt 0.826151 0.504850
vt 0.796295 0.547545
vt 0.776927 0.576865
vt 0.756878 0.578208
vt 0.790146 0.576427
vt 0.771539 0.038968
vt 0.770022 0.012168
vt 0.783403 0.013159
vt 0.788830 0.039953
vt 0.749182 0.038173
vt 0.750379 0.011231
vt 0.730342 0.010401
vt 0.710348 0.009376
vt 0.743504 0.078358
vt 0.778130 0.078895
vt 0.797999 0.137427
vt 0.811539 0.205086
vt 0.871438 0.215450
vt 0.846787 0.140809
vt 0.822331 0.079403
vt 0.872097 0.281806
vt 0.807386 0.268041
vt 0.812698 0.293374
vt 0.878795 0.292946
vt 0.886566 0.311793
vt 0.818448 0.313950
vt 0.820077 0.365849
vt 0.880870 0.360151
vt 0.737554 0.578286
vt 0.719558 0.579570
vt 0.542285 0.103318
vt 0.505130 0.049550
vt 0.509751 0.046432
vt 0.550270 0.098665
vt 0.569166 0.176146
vt 0.579334 0.173835
vt 0.579196 0.254713
vt 0.589334 0.257242
vt 0.563247 0.301818
vt 0.569365 0.308896
vt 0.553818 0.329715
vt 0.564088 0.330540
vt 0.561493 0.365902
vt 0.570343 0.365211
vt 0.568367 0.411443
vt 0.579207 0.411560
vt 0.574899 0.488306
vt 0.587335 0.490925
vt 0.378941 0.642256
vt 0.393347 0.679745
vt 0.387427 0.683132
vt 0.372313 0.645637
vt 0.384195 0.013674
vt 0.372514 0.048436
vt 0.365700 0.045043
vt 0.378543 0.011363
vt 0.491496 0.012463
vt 0.495691 0.009376
vt 0.331442 0.318399
vt 0.340258 0.342039
vt 0.328930 0.340072
vt 0.323292 0.325126
vt 0.316957 0.257564
vt 0.306901 0.260034
vt 0.327965 0.364817
vt 0.319663 0.361928
vt 0.321619 0.410780
vt 0.311409 0.410933
vt 0.323577 0.178834
vt 0.312596 0.176934
vt 0.340116 0.108257
vt 0.331158 0.104015
vt 0.325173 0.482139
vt 0.313344 0.485493
vt 0.342075 0.581191
vt 0.333072 0.585663
vt 0.498717 0.679572
vt 0.519834 0.642665
vt 0.525409 0.645377
vt 0.503529 0.683132
vt 0.548217 0.579163
vt 0.557156 0.583267
vt 0.038703 0.177872
vt 0.064255 0.106580
vt 0.110559 0.101278
vt 0.103478 0.166634
vt 0.097786 0.051342
vt 0.130771 0.049613
vt 0.028790 0.252870
vt 0.101804 0.231882
vt 0.102435 0.288423
vt 0.041154 0.297093
vt 0.164546 0.231164
vt 0.163540 0.165367
vt 0.156896 0.293963
vt 0.155457 0.333166
vt 0.100540 0.330334
vt 0.053910 0.330095
vt 0.101585 0.369301
vt 0.159217 0.365275
vt 0.045455 0.366979
vt 0.100425 0.422683
vt 0.039791 0.410793
vt 0.099118 0.491497
vt 0.034652 0.485795
vt 0.160403 0.427800
vt 0.160103 0.499270
vt 0.153300 0.591488
vt 0.104006 0.582371
vt 0.058618 0.576144
vt 0.119952 0.637671
vt 0.083234 0.641386
vt 0.156113 0.639942
vt 0.214976 0.490050
vt 0.207076 0.585076
vt 0.187321 0.640214
vt 0.262571 0.479700
vt 0.247576 0.578787
vt 0.213274 0.640433
vt 0.182190 0.675198
vt 0.155867 0.676050
vt 0.200435 0.676255
vt 0.194221 0.049671
vt 0.190953 0.016033
vt 0.209274 0.016663
vt 0.219975 0.050015
vt 0.164186 0.048985
vt 0.164392 0.015388
vt 0.137811 0.014822
vt 0.111137 0.015113
vt 0.157189 0.099344
vt 0.198388 0.102236
vt 0.213489 0.169835
vt 0.218732 0.237485
vt 0.272157 0.255689
vt 0.264877 0.179972
vt 0.249803 0.110451
vt 0.260378 0.312793
vt 0.208381 0.294518
vt 0.207027 0.335305
vt 0.248559 0.342331
vt 0.261966 0.366252
vt 0.211889 0.370105
vt 0.216535 0.422335
vt 0.266949 0.410601
vt 0.129584 0.675696
vt 0.103566 0.677183
vt 0.463975 0.935360
vt 0.465063 0.871072
vt 0.522779 0.857358
vt 0.524505 0.897066
vt 0.562223 0.835895
vt 0.563649 0.861210
vt 0.388330 0.961654
vt 0.398626 0.880083
vt 0.337171 0.885169
vt 0.333068 0.965505
vt 0.395429 0.813462
vt 0.462601 0.813462
vt 0.327772 0.823135
vt 0.306139 0.823607
vt 0.309160 0.891642
vt 0.312737 0.966818
vt 0.282235 0.886906
vt 0.287276 0.818686
vt 0.280708 0.958445
vt 0.237159 0.952447
vt 0.232892 0.883857
vt 0.167212 0.939738
vt 0.170116 0.879306
vt 0.228355 0.818251
vt 0.164496 0.821451
vt 0.094364 0.869361
vt 0.088670 0.830320
vt 0.095830 0.905462
vt 0.050163 0.880195
vt 0.051141 0.855634
vt 0.048820 0.829091
vt 0.167637 0.767860
vt 0.090765 0.787901
vt 0.048696 0.805613
vt 0.167410 0.720055
vt 0.090614 0.756256
vt 0.049468 0.788211
vt 0.020818 0.829111
vt 0.021156 0.809021
vt 0.020931 0.795797
vt 0.558638 0.787478
vt 0.556788 0.770257
vt 0.583820 0.774337
vt 0.585480 0.787651
vt 0.560551 0.809767
vt 0.587399 0.807223
vt 0.589231 0.827193
vt 0.591256 0.847110
vt 0.520701 0.817449
vt 0.518431 0.782894
vt 0.458978 0.765980
vt 0.390727 0.755844
vt 0.377378 0.696539
vt 0.453159 0.717422
vt 0.515712 0.738773
vt 0.311073 0.699203
vt 0.328060 0.763143
vt 0.302493 0.759106
vt 0.299611 0.693071
vt 0.281655 0.754393
vt 0.280400 0.686254
vt 0.229741 0.755364
vt 0.232388 0.694363
vt 0.021707 0.848414
vt 0.021325 0.866452
vt 0.056122 0.103318
vt 0.048137 0.098666
vt 0.088656 0.046432
vt 0.093277 0.049550
vt 0.029241 0.176146
vt 0.019073 0.173835
vt 0.019212 0.254713
vt 0.009073 0.257242
vt 0.035161 0.301819
vt 0.029042 0.308896
vt 0.044590 0.329716
vt 0.034319 0.330541
vt 0.036915 0.365903
vt 0.028064 0.365211
vt 0.030041 0.411444
vt 0.019201 0.411560
vt 0.023508 0.488306
vt 0.011073 0.490926
vt 0.219467 0.642256
vt 0.226096 0.645636
vt 0.210981 0.683132
vt 0.205061 0.679745
vt 0.214212 0.013674
vt 0.219863 0.011363
vt 0.232707 0.045043
vt 0.225893 0.048435
vt 0.102716 0.009376
vt 0.106910 0.012463
vt 0.266966 0.318399
vt 0.275116 0.325126
vt 0.269477 0.340072
vt 0.258150 0.342038
vt 0.281450 0.257564
vt 0.291506 0.260034
vt 0.278745 0.361928
vt 0.270442 0.364816
vt 0.286999 0.410933
vt 0.276789 0.410779
vt 0.274831 0.178834
vt 0.285811 0.176934
vt 0.258291 0.108257
vt 0.267249 0.104014
vt 0.285063 0.485493
vt 0.273235 0.482139
vt 0.265336 0.585663
vt 0.256333 0.581191
vt 0.099692 0.679572
vt 0.094880 0.683132
vt 0.073000 0.645377
vt 0.078575 0.642665
vt 0.041252 0.583268
vt 0.050192 0.579163
vt 0.965340 0.158930
vt 0.971797 0.187321
vt 0.958497 0.188745
vt 0.954558 0.162074
vt 0.958050 0.140570
vt 0.959398 0.144822
vt 0.951137 0.146706
vt 0.950563 0.140502
vt 0.964899 0.146022
vt 0.963482 0.140580
vt 0.969178 0.140549
vt 0.970533 0.147900
vt 0.964909 0.135051
vt 0.970357 0.133111
vt 0.971798 0.121204
vt 0.976379 0.119679
vt 0.965303 0.122206
vt 0.959373 0.136244
vt 0.951099 0.134229
vt 0.954548 0.118955
vt 0.978365 0.094997
vt 0.982159 0.095573
vt 0.939329 0.133836
vt 0.939381 0.117393
vt 0.939309 0.140353
vt 0.939152 0.189801
vt 0.939236 0.163487
vt 0.939288 0.146845
vt 0.978230 0.186418
vt 0.971782 0.159932
vt 0.976672 0.161468
vt 0.982399 0.185795
vt 0.960400 0.219150
vt 0.939055 0.219909
vt 0.981487 0.215255
vt 0.986060 0.211375
vt 0.984047 0.236127
vt 0.987900 0.229970
vt 0.975277 0.218945
vt 0.978470 0.243125
vt 0.962345 0.247103
vt 0.982756 0.253426
vt 0.964541 0.259791
vt 0.983120 0.028624
vt 0.978798 0.038705
vt 0.962660 0.034848
vt 0.965049 0.022477
vt 0.975453 0.062734
vt 0.960612 0.062563
vt 0.971889 0.094060
vt 0.958602 0.092543
vt 0.939462 0.091568
vt 0.939556 0.061726
vt 0.939641 0.034615
vt 0.981652 0.066484
vt 0.985868 0.070237
vt 0.984323 0.045763
vt 0.987913 0.051831
vt 0.939683 0.021184
vt 0.989645 0.039267
vt 0.991840 0.045704
vt 0.938919 0.261425
vt 0.938965 0.247665
vt 0.989467 0.242748
vt 0.991840 0.236316
vt 0.961611 0.144699
vt 0.968897 0.159588
vt 0.959941 0.140585
vt 0.961608 0.136404
vt 0.968915 0.121546
vt 0.978743 0.216757
vt 0.975363 0.186838
vt 0.975506 0.094567
vt 0.978942 0.064971
vt 0.981963 0.041064
vt 0.986586 0.032434
vt 0.986234 0.249570
vt 0.981604 0.240771
vt 0.913162 0.158765
vt 0.923923 0.161977
vt 0.919815 0.188621
vt 0.906525 0.187112
vt 0.920567 0.140452
vt 0.928054 0.140431
vt 0.927441 0.146631
vt 0.919192 0.144695
vt 0.913684 0.145861
vt 0.908039 0.147703
vt 0.909440 0.140361
vt 0.915136 0.140428
vt 0.908307 0.132916
vt 0.913743 0.134890
vt 0.902369 0.119447
vt 0.906941 0.121000
vt 0.913429 0.122043
vt 0.924204 0.118860
vt 0.927558 0.134155
vt 0.919271 0.136118
vt 0.896741 0.095305
vt 0.900539 0.094753
vt 0.900098 0.186169
vt 0.895934 0.185519
vt 0.901815 0.161231
vt 0.906714 0.159726
vt 0.917717 0.219012
vt 0.896657 0.214981
vt 0.892109 0.211072
vt 0.893963 0.235833
vt 0.890150 0.229653
vt 0.902842 0.218711
vt 0.915590 0.246950
vt 0.899493 0.242867
vt 0.913311 0.259621
vt 0.895141 0.253138
vt 0.896200 0.028351
vt 0.914309 0.022318
vt 0.916620 0.034703
vt 0.900458 0.038459
vt 0.918495 0.062431
vt 0.903653 0.062509
vt 0.920316 0.092422
vt 0.907020 0.093856
vt 0.893191 0.069946
vt 0.897430 0.066219
vt 0.891261 0.051528
vt 0.894889 0.045482
vt 0.887372 0.045376
vt 0.889608 0.038953
vt 0.888500 0.242418
vt 0.886169 0.235972
vt 0.909600 0.159400
vt 0.916980 0.144559
vt 0.918675 0.140455
vt 0.917036 0.136264
vt 0.909821 0.121361
vt 0.902962 0.186606
vt 0.899391 0.216501
vt 0.903400 0.094340
vt 0.900149 0.064724
vt 0.897278 0.040798
vt 0.892710 0.032139
vt 0.896375 0.240493
vt 0.891689 0.249260
s 1
f 4/1/1 5/2/2 2/3/3 1/4/4
f 1/4/4 2/3/3 45/5/5 3/6/6
f 6/7/7 8/8/8 5/2/2 4/1/1
f 10/9/9 8/8/8 6/7/7 7/10/10
f 9/11/11 49/12/12 5/2/2 8/8/8
f 11/13/13 9/11/11 8/8/8 10/9/9
f 13/14/14 11/13/13 10/9/9 12/15/15
f 15/16/16 12/15/15 10/9/9 7/10/10
f 14/17/17 60/18/18 13/14/14 12/15/15
f 16/19/19 14/17/17 12/15/15 15/16/16
f 16/19/19 17/20/20 19/21/21 14/17/17
f 17/20/20 18/22/22 21/23/23 19/21/21
f 19/21/21 20/24/24 60/18/18 14/17/17
f 19/21/21 21/23/23 22/25/25 20/24/24
f 22/25/25 21/23/23 23/26/26 26/27/27
f 23/26/26 21/23/23 18/22/22 24/28/28
f 23/26/26 24/28/28 65/29/29 25/30/30
f 26/27/27 23/26/26 25/30/30 27/31/31
f 29/32/32 22/25/25 26/27/27 28/33/33
f 26/27/27 27/31/31 31/34/34 28/33/33
f 36/35/35 29/32/32 28/33/33 30/36/36
f 30/36/36 28/33/33 31/34/34 32/37/37
f 31/34/34 27/31/31 34/38/38 33/39/39
f 32/37/37 31/34/34 33/39/39 35/40/40
f 41/41/41 39/42/42 38/43/43 40/44/44
f 43/45/45 41/41/41 40/44/44 42/46/46
f 45/5/5 43/45/45 42/46/46 44/47/47
f 3/6/6 45/5/5 44/47/47 46/48/48
f 2/3/3 47/49/49 43/45/45 45/5/5
f 47/49/49 48/50/50 41/41/41 43/45/45
f 49/12/12 50/51/51 48/50/50 47/49/49
f 5/2/2 49/12/12 47/49/49 2/3/3
f 52/52/52 50/51/51 49/12/12 9/11/11
f 53/53/53 51/54/54 50/51/51 52/52/52
f 50/51/51 51/54/54 62/55/55 48/50/50
f 56/56/56 53/53/53 52/52/52 54/57/57
f 54/57/57 52/52/52 9/11/11 11/13/13
f 55/58/58 54/57/57 11/13/13 13/14/14
f 56/56/56 54/57/57 55/58/58 57/59/59
f 57/59/59 55/58/58 59/60/60 58/61/61
f 61/62/62 37/63/63 58/61/61 59/60/60
f 20/24/24 61/62/62 59/60/60 60/18/18
f 60/18/18 59/60/60 55/58/58 13/14/14
f 61/62/62 29/32/32 36/35/35 37/63/63
f 29/32/32 61/62/62 20/24/24 22/25/25
f 48/50/50 62/55/55 39/42/42 41/41/41
f 27/31/31 25/30/30 63/64/64 34/38/38
f 25/30/30 65/29/29 64/65/65 63/64/64
f 69/66/66 66/67/67 67/68/68 70/69/69
f 66/67/67 68/70/70 110/71/71 67/68/68
f 71/72/72 69/66/66 70/69/69 73/73/73
f 75/74/74 72/75/75 71/72/72 73/73/73
f 74/76/76 73/73/73 70/69/69 114/77/77
f 76/78/78 75/74/74 73/73/73 74/76/76
f 78/79/79 77/80/80 75/74/74 76/78/78
f 80/81/81 72/75/75 75/74/74 77/80/80
f 79/82/82 77/80/80 78/79/79 125/83/83
f 81/84/84 80/81/81 77/80/80 79/82/82
f 81/84/84 79/82/82 84/85/85 82/86/86
f 82/86/86 84/85/85 86/87/87 83/88/88
f 84/85/85 79/82/82 125/83/83 85/89/89
f 84/85/85 85/89/89 87/90/90 86/87/87
f 87/90/90 91/91/91 88/92/92 86/87/87
f 88/92/92 89/93/93 83/88/88 86/87/87
f 88/92/92 90/94/94 130/95/95 89/93/93
f 91/91/91 92/96/96 90/94/94 88/92/92
f 94/97/97 93/98/98 91/91/91 87/90/90
f 91/91/91 93/98/98 96/99/99 92/96/96
f 101/100/100 95/101/101 93/98/98 94/97/97
f 95/101/101 97/102/102 96/99/99 93/98/98
f 96/99/99 98/103/103 99/104/104 92/96/96
f 97/102/102 100/105/105 98/103/103 96/99/99
f 106/106/106 105/107/107 103/108/108 104/109/109
f 108/110/110 107/111/111 105/107/107 106/106/106
f 110/71/71 109/112/112 107/111/111 108/110/110
f 68/70/70 111/113/113 109/112/112 110/71/71
f 67/68/68 110/71/71 108/110/110 112/114/114
f 112/114/114 108/110/110 106/106/106 113/115/115
f 114/77/77 112/114/114 113/115/115 115/116/116
f 70/69/69 67/68/68 112/114/114 114/77/77
f 117/117/117 74/76/76 114/77/77 115/116/116
f 118/118/118 117/117/117 115/116/116 116/119/119
f 115/116/116 113/115/115 127/120/120 116/119/119
f 121/121/121 119/122/122 117/117/117 118/118/118
f 119/122/122 76/78/78 74/76/76 117/117/117
f 120/123/123 78/79/79 76/78/78 119/122/122
f 121/121/121 122/124/124 120/123/123 119/122/122
f 122/124/124 123/125/125 124/126/126 120/123/123
f 126/127/127 124/126/126 123/125/125 102/128/128
f 85/89/89 125/83/83 124/126/126 126/127/127
f 125/83/83 78/79/79 120/123/123 124/126/126
f 126/127/127 102/128/128 101/100/100 94/97/97
f 94/97/97 87/90/90 85/89/89 126/127/127
f 113/115/115 106/106/106 104/109/109 127/120/120
f 92/96/96 99/104/104 128/129/129 90/94/94
f 90/94/94 128/129/129 129/130/130 130/95/95
f 131/131/131 132/132/132 68/133/70 66/134/67
f 133/135/133 131/131/131 66/134/67 69/136/66
f 134/137/134 133/135/133 69/136/66 71/138/72
f 135/139/135 134/137/134 71/138/72 72/140/75
f 136/141/136 135/139/135 72/140/75 80/142/81
f 137/143/137 136/141/136 80/142/81 81/144/84
f 138/145/138 137/143/137 81/144/84 82/146/86
f 139/147/139 138/145/138 82/146/86 83/148/88
f 145/149/140 146/150/141 100/151/105 97/152/102
f 149/153/142 150/154/143 104/155/109 103/156/108
f 132/132/132 141/157/144 111/158/113 68/133/70
f 153/159/145 154/160/146 122/161/124 121/162/121
f 152/163/147 153/159/145 121/162/121 118/164/118
f 154/160/146 155/165/148 123/166/125 122/161/124
f 155/165/148 148/167/149 102/168/128 123/166/125
f 151/169/150 152/163/147 118/164/118 116/170/119
f 156/171/151 151/169/150 116/170/119 127/172/120
f 150/154/143 156/171/151 127/172/120 104/155/109
f 148/167/149 147/173/152 101/174/100 102/168/128
f 147/173/152 144/175/153 95/176/101 101/174/100
f 142/177/154 143/178/155 130/179/95 129/180/130
f 143/178/155 140/181/156 89/182/93 130/179/95
f 144/175/153 145/149/140 97/152/102 95/176/101
f 140/181/156 139/147/139 83/148/88 89/182/93
f 24/28/28 18/22/22 139/147/139 140/181/156
f 65/29/29 24/28/28 140/181/156 143/178/155
f 64/65/65 65/29/29 143/178/155 142/177/154
f 3/6/6 46/48/48 141/157/144 132/132/132
f 18/22/22 17/20/20 138/145/138 139/147/139
f 17/20/20 16/19/19 137/143/137 138/145/138
f 16/19/19 15/16/16 136/141/136 137/143/137
f 15/16/16 7/10/10 135/139/135 136/141/136
f 7/10/10 6/7/7 134/137/134 135/139/135
f 6/7/7 4/1/1 133/135/133 134/137/134
f 4/1/1 1/4/4 131/131/131 133/135/133
f 1/4/4 3/6/6 132/132/132 131/131/131
f 30/36/36 32/37/37 145/149/140 144/175/153
f 36/35/35 30/36/36 144/175/153 147/173/152
f 37/63/63 36/35/35 147/173/152 148/167/149
f 39/42/42 62/55/55 156/171/151 150/154/143
f 62/55/55 51/54/54 151/169/150 156/171/151
f 51/54/54 53/53/53 152/163/147 151/169/150
f 58/61/61 37/63/63 148/167/149 155/165/148
f 57/59/59 58/61/61 155/165/148 154/160/146
f 53/53/53 56/56/56 153/159/145 152/163/147
f 56/56/56 57/59/59 154/160/146 153/159/145
f 38/43/43 39/42/42 150/154/143 149/153/142
f 32/37/37 35/40/40 146/150/141 145/149/140
f 160/183/157 157/184/158 158/185/159 161/186/160
f 157/184/158 159/187/161 201/188/162 158/185/159
f 162/189/163 160/183/157 161/186/160 164/190/164
f 166/191/165 163/192/166 162/189/163 164/190/164
f 165/193/167 164/190/164 161/186/160 205/194/168
f 167/195/169 166/191/165 164/190/164 165/193/167
f 169/196/170 168/197/171 166/191/165 167/195/169
f 171/198/172 163/192/166 166/191/165 168/197/171
f 170/199/173 168/197/171 169/196/170 216/200/174
f 172/201/175 171/198/172 168/197/171 170/199/173
f 172/201/175 170/199/173 175/202/176 173/203/177
f 173/203/177 175/202/176 177/204/178 174/205/179
f 175/202/176 170/199/173 216/200/174 176/206/180
f 175/202/176 176/206/180 178/207/181 177/204/178
f 178/207/181 182/208/182 179/209/183 177/204/178
f 179/209/183 180/210/184 174/205/179 177/204/178
f 179/209/183 181/211/185 221/212/186 180/210/184
f 182/208/182 183/213/187 181/211/185 179/209/183
f 185/214/188 184/215/189 182/208/182 178/207/181
f 182/208/182 184/215/189 187/216/190 183/213/187
f 192/217/191 186/218/192 184/215/189 185/214/188
f 186/218/192 188/219/193 187/216/190 184/215/189
f 187/216/190 189/220/194 190/221/195 183/213/187
f 188/219/193 191/222/196 189/220/194 187/216/190
f 197/223/197 196/224/198 194/225/199 195/226/200
f 199/227/201 198/228/202 196/224/198 197/223/197
f 201/188/162 200/229/203 198/228/202 199/227/201
f 159/187/161 202/230/204 200/229/203 201/188/162
f 158/185/159 201/188/162 199/227/201 203/231/205
f 203/231/205 199/227/201 197/223/197 204/232/206
f 205/194/168 203/231/205 204/232/206 206/233/207
f 161/186/160 158/185/159 203/231/205 205/194/168
f 208/234/208 165/193/167 205/194/168 206/233/207
f 209/235/209 208/234/208 206/233/207 207/236/210
f 206/233/207 204/232/206 218/237/211 207/236/210
f 212/238/212 210/239/213 208/234/208 209/235/209
f 210/239/213 167/195/169 165/193/167 208/234/208
f 211/240/214 169/196/170 167/195/169 210/239/213
f 212/238/212 213/241/215 211/240/214 210/239/213
f 213/241/215 214/242/216 215/243/217 211/240/214
f 217/244/218 215/243/217 214/242/216 193/245/219
f 176/206/180 216/200/174 215/243/217 217/244/218
f 216/200/174 169/196/170 211/240/214 215/243/217
f 217/244/218 193/245/219 192/217/191 185/214/188
f 185/214/188 178/207/181 176/206/180 217/244/218
f 204/232/206 197/223/197 195/226/200 218/237/211
f 183/213/187 190/221/195 219/246/220 181/211/185
f 181/211/185 219/246/220 220/247/221 221/212/186
f 225/248/222 226/249/223 223/250/224 222/251/225
f 222/251/225 223/250/224 266/252/226 224/253/227
f 227/254/228 229/255/229 226/249/223 225/248/222
f 231/256/230 229/255/229 227/254/228 228/257/231
f 230/258/232 270/259/233 226/249/223 229/255/229
f 232/260/234 230/258/232 229/255/229 231/256/230
f 234/261/235 232/260/234 231/256/230 233/262/236
f 236/263/237 233/262/236 231/256/230 228/257/231
f 235/264/238 281/265/239 234/261/235 233/262/236
f 237/266/240 235/264/238 233/262/236 236/263/237
f 237/266/240 238/267/241 240/268/242 235/264/238
f 238/267/241 239/269/243 242/270/244 240/268/242
f 240/268/242 241/271/245 281/265/239 235/264/238
f 240/268/242 242/270/244 243/272/246 241/271/245
f 243/272/246 242/270/244 244/273/247 247/274/248
f 244/273/247 242/270/244 239/269/243 245/275/249
f 244/273/247 245/275/249 286/276/250 246/277/251
f 247/274/248 244/273/247 246/277/251 248/278/252
f 250/279/253 243/272/246 247/274/248 249/280/254
f 247/274/248 248/278/252 252/281/255 249/280/254
f 257/282/256 250/279/253 249/280/254 251/283/257
f 251/283/257 249/280/254 252/281/255 253/284/258
f 252/281/255 248/278/252 255/285/259 254/286/260
f 253/284/258 252/281/255 254/286/260 256/287/261
f 262/288/262 260/289/263 259/290/264 261/291/265
f 264/292/266 262/288/262 261/291/265 263/293/267
f 266/252/226 264/292/266 263/293/267 265/294/268
f 224/253/227 266/252/226 265/294/268 267/295/269
f 223/250/224 268/296/270 264/292/266 266/252/226
f 268/296/270 269/297/271 262/288/262 264/292/266
f 270/259/233 271/298/272 269/297/271 268/296/270
f 226/249/223 270/259/233 268/296/270 223/250/224
f 273/299/273 271/298/272 270/259/233 230/258/232
f 274/300/274 272/301/275 271/298/272 273/299/273
f 271/298/272 272/301/275 283/302/276 269/297/271
f 277/303/277 274/300/274 273/299/273 275/304/278
f 275/304/278 273/299/273 230/258/232 232/260/234
f 276/305/279 275/304/278 232/260/234 234/261/235
f 277/303/277 275/304/278 276/305/279 278/306/280
f 278/306/280 276/305/279 280/307/281 279/308/282
f 282/309/283 258/310/284 279/308/282 280/307/281
f 241/271/245 282/309/283 280/307/281 281/265/239
f 281/265/239 280/307/281 276/305/279 234/261/235
f 282/309/283 250/279/253 257/282/256 258/310/284
f 250/279/253 282/309/283 241/271/245 243/272/246
f 269/297/271 283/302/276 260/289/263 262/288/262
f 248/278/252 246/277/251 284/311/285 255/285/259
f 246/277/251 286/276/250 285/312/286 284/311/285
f 287/313/287 222/314/225 224/315/227 288/316/288
f 289/317/289 225/318/222 222/314/225 287/313/287
f 290/319/290 227/320/228 225/318/222 289/317/289
f 291/321/291 228/322/231 227/320/228 290/319/290
f 292/323/292 236/324/237 228/322/231 291/321/291
f 293/325/293 237/326/240 236/324/237 292/323/292
f 294/327/294 238/328/241 237/326/240 293/325/293
f 295/329/295 239/330/243 238/328/241 294/327/294
f 301/331/296 253/332/258 256/333/261 302/334/297
f 305/335/298 259/336/264 260/337/263 306/338/299
f 288/316/288 224/315/227 267/339/269 297/340/300
f 309/341/301 277/342/277 278/343/280 310/344/302
f 308/345/303 274/346/274 277/342/277 309/341/301
f 310/344/302 278/343/280 279/347/282 311/348/304
f 311/348/304 279/347/282 258/349/284 304/350/305
f 307/351/306 272/352/275 274/346/274 308/345/303
f 312/353/307 283/354/276 272/352/275 307/351/306
f 306/338/299 260/337/263 283/354/276 312/353/307
f 304/350/305 258/349/284 257/355/256 303/356/308
f 303/356/308 257/355/256 251/357/257 300/358/309
f 298/359/310 285/360/286 286/361/250 299/362/311
f 299/362/311 286/361/250 245/363/249 296/364/312
f 300/358/309 251/357/257 253/332/258 301/331/296
f 296/364/312 245/363/249 239/330/243 295/329/295
f 180/210/184 296/364/312 295/329/295 174/205/179
f 221/212/186 299/362/311 296/364/312 180/210/184
f 220/247/221 298/359/310 299/362/311 221/212/186
f 159/187/161 288/316/288 297/340/300 202/230/204
f 174/205/179 295/329/295 294/327/294 173/203/177
f 173/203/177 294/327/294 293/325/293 172/201/175
f 172/201/175 293/325/293 292/323/292 171/198/172
f 171/198/172 292/323/292 291/321/291 163/192/166
f 163/192/166 291/321/291 290/319/290 162/189/163
f 162/189/163 290/319/290 289/317/289 160/183/157
f 160/183/157 289/317/289 287/313/287 157/184/158
f 157/184/158 287/313/287 288/316/288 159/187/161
f 186/218/192 300/358/309 301/331/296 188/219/193
f 192/217/191 303/356/308 300/358/309 186/218/192
f 193/245/219 304/350/305 303/356/308 192/217/191
f 195/226/200 306/338/299 312/353/307 218/237/211
f 218/237/211 312/353/307 307/351/306 207/236/210
f 207/236/210 307/351/306 308/345/303 209/235/209
f 214/242/216 311/348/304 304/350/305 193/245/219
f 213/241/215 310/344/302 311/348/304 214/242/216
f 209/235/209 308/345/303 309/341/301 212/238/212
f 212/238/212 309/341/301 310/344/302 213/241/215
f 194/225/199 305/335/298 306/338/299 195/226/200
f 188/219/193 301/331/296 302/334/297 191/222/196
f 353/365/313 364/366/314 327/367/315 326/368/316
f 355/369/317 349/370/318 314/371/319 315/372/320
f 349/370/318 353/365/313 326/368/316 314/371/319
f 350/373/321 356/374/322 316/375/323 313/376/324
f 356/374/322 359/377/325 317/378/326 316/375/323
f 359/377/325 362/379/327 337/380/328 317/378/326
f 361/381/329 358/382/330 318/383/331 319/384/332
f 362/379/327 383/385/333 336/386/334 337/380/328
f 319/384/332 318/383/331 320/387/335 321/388/336
f 318/383/331 315/372/320 322/389/337 320/387/335
f 326/368/316 327/367/315 325/390/338 324/391/339
f 314/371/319 326/368/316 324/391/339 323/392/340
f 365/393/341 352/394/342 330/395/343 329/396/344
f 327/367/315 328/397/345 348/398/346 325/390/338
f 367/399/347 365/393/341 329/396/344 331/400/348
f 371/401/349 367/399/347 331/400/348 332/402/350
f 358/382/330 355/369/317 315/372/320 318/383/331
f 368/403/351 370/404/352 346/405/353 328/397/345
f 370/404/352 373/406/354 344/407/355 346/405/353
f 373/408/354 376/409/356 342/410/357 344/411/355
f 376/409/356 379/412/358 340/413/359 342/410/357
f 379/412/358 382/414/360 338/415/361 340/413/359
f 382/414/360 361/381/329 319/384/332 338/415/361
f 364/366/314 368/403/351 328/397/345 327/367/315
f 338/415/361 319/384/332 321/388/336 339/416/362
f 340/413/359 338/415/361 339/416/362 341/417/363
f 342/410/357 340/413/359 341/417/363 343/418/364
f 383/385/333 380/419/365 335/420/366 336/386/334
f 380/419/365 377/421/367 334/422/368 335/420/366
f 344/411/355 342/410/357 343/418/364 345/423/369
f 377/421/367 374/424/370 333/425/371 334/422/368
f 346/405/353 344/407/355 345/426/369 347/427/372
f 328/397/345 346/405/353 347/427/372 348/398/346
f 374/428/370 371/401/349 332/402/350 333/429/371
f 315/372/320 314/371/319 323/392/340 322/389/337
f 353/365/313 349/370/318 351/430/373 354/431/374
f 354/431/374 351/430/373 350/373/321 352/394/342
f 356/374/322 350/373/321 351/430/373 357/432/375
f 357/432/375 351/430/373 349/370/318 355/369/317
f 355/369/317 358/382/330 360/433/376 357/432/375
f 357/432/375 360/433/376 359/377/325 356/374/322
f 358/382/330 361/381/329 363/434/377 360/433/376
f 360/433/376 363/434/377 362/379/327 359/377/325
f 365/393/341 367/399/347 369/435/378 366/436/379
f 366/436/379 369/435/378 368/403/351 364/366/314
f 352/394/342 365/393/341 366/436/379 354/431/374
f 354/431/374 366/436/379 364/366/314 353/365/313
f 383/385/333 362/379/327 363/434/377 384/437/380
f 384/437/380 363/434/377 361/381/329 382/414/360
f 380/419/365 383/385/333 384/437/380 381/438/381
f 381/438/381 384/437/380 382/414/360 379/412/358
f 377/421/367 380/419/365 381/438/381 378/439/382
f 378/439/382 381/438/381 379/412/358 376/409/356
f 374/424/370 377/421/367 378/439/382 375/440/383
f 375/440/383 378/439/382 376/409/356 373/408/354
f 371/401/349 374/428/370 375/441/383 372/442/384
f 372/442/384 375/441/383 373/406/354 370/404/352
f 367/399/347 371/401/349 372/442/384 369/435/378
f 369/435/378 372/442/384 370/404/352 368/403/351
f 352/394/342 350/373/321 313/376/324 330/395/343
f 413/443/385 392/444/386 393/445/387 424/446/388
f 415/447/389 387/448/390 386/449/391 409/450/392
f 409/450/392 386/449/391 392/444/386 413/443/385
f 410/451/393 385/452/394 388/453/395 416/454/396
f 416/454/396 388/453/395 389/455/397 419/456/398
f 419/456/398 389/455/397 403/457/399 422/458/400
f 421/459/401 391/460/402 390/461/403 418/462/404
f 422/458/400 403/457/399 402/463/405 443/464/406
f 391/460/402 321/388/336 320/387/335 390/461/403
f 390/461/403 320/387/335 322/389/337 387/448/390
f 392/444/386 324/391/339 325/390/338 393/445/387
f 386/449/391 323/392/340 324/391/339 392/444/386
f 425/465/407 395/466/408 396/467/409 412/468/410
f 393/445/387 325/390/338 348/398/346 394/469/411
f 427/470/412 397/471/413 395/466/408 425/465/407
f 431/472/414 398/473/415 397/471/413 427/470/412
f 418/462/404 390/461/403 387/448/390 415/447/389
f 428/474/416 394/469/411 408/475/417 430/476/418
f 430/476/418 408/475/417 407/477/419 433/478/420
f 433/479/420 407/480/419 406/481/421 436/482/422
f 436/482/422 406/481/421 405/483/423 439/484/424
f 439/484/424 405/483/423 404/485/425 442/486/426
f 442/486/426 404/485/425 391/460/402 421/459/401
f 424/446/388 393/445/387 394/469/411 428/474/416
f 404/485/425 339/416/362 321/388/336 391/460/402
f 405/483/423 341/417/363 339/416/362 404/485/425
f 406/481/421 343/418/364 341/417/363 405/483/423
f 443/464/406 402/463/405 401/487/427 440/488/428
f 440/488/428 401/487/427 400/489/429 437/490/430
f 407/480/419 345/423/369 343/418/364 406/481/421
f 437/490/430 400/489/429 399/491/431 434/492/432
f 408/475/417 347/427/372 345/426/369 407/477/419
f 394/469/411 348/398/346 347/427/372 408/475/417
f 434/493/432 399/494/431 398/473/415 431/472/414
f 387/448/390 322/389/337 323/392/340 386/449/391
f 413/443/385 414/495/433 411/496/434 409/450/392
f 414/495/433 412/468/410 410/451/393 411/496/434
f 416/454/396 417/497/435 411/496/434 410/451/393
f 417/497/435 415/447/389 409/450/392 411/496/434
f 415/447/389 417/497/435 420/498/436 418/462/404
f 417/497/435 416/454/396 419/456/398 420/498/436
f 418/462/404 420/498/436 423/499/437 421/459/401
f 420/498/436 419/456/398 422/458/400 423/499/437
f 425/465/407 426/500/438 429/501/439 427/470/412
f 426/500/438 424/446/388 428/474/416 429/501/439
f 412/468/410 414/495/433 426/500/438 425/465/407
f 414/495/433 413/443/385 424/446/388 426/500/438
f 443/464/406 444/502/440 423/499/437 422/458/400
f 444/502/440 442/486/426 421/459/401 423/499/437
f 440/488/428 441/503/441 444/502/440 443/464/406
f 441/503/441 439/484/424 442/486/426 444/502/440
f 437/490/430 438/504/442 441/503/441 440/488/428
f 438/504/442 436/482/422 439/484/424 441/503/441
f 434/492/432 435/505/443 438/504/442 437/490/430
f 435/505/443 433/479/420 436/482/422 438/504/442
f 431/472/414 432/506/444 435/507/443 434/493/432
f 432/506/444 430/476/418 433/478/420 435/507/443
f 427/470/412 429/501/439 432/506/444 431/472/414
f 429/501/439 428/474/416 430/476/418 432/506/444
f 412/468/410 396/467/409 385/452/394 410/451/393
