# Blender 4.0.2
# www.blender.org
o dog_food_bowl
v -0.000000 0.005395 -0.092452
v 0.023928 0.005395 -0.089302
v 0.046226 0.005395 -0.080066
v 0.065373 0.005395 -0.065373
v 0.080066 0.005395 -0.046226
v 0.089302 0.005395 -0.023928
v 0.092452 0.005395 0.000000
v 0.089302 0.005395 0.023928
v 0.080066 0.005395 0.046226
v 0.065373 0.005395 0.065373
v 0.046226 0.005395 0.080066
v 0.023928 0.005395 0.089302
v -0.000000 0.005395 0.092452
v -0.023928 0.005395 0.089302
v -0.046226 0.005395 0.080066
v -0.065373 0.005395 0.065373
v -0.080066 0.005395 0.046226
v -0.089302 0.005395 0.023928
v -0.092452 0.005395 -0.000000
v -0.089302 0.005395 -0.023928
v -0.080066 0.005395 -0.046226
v -0.065373 0.005395 -0.065373
v -0.046226 0.005395 -0.080066
v -0.023928 0.005395 -0.089302
v 0.019537 0.038905 -0.072914
v -0.000000 0.038905 -0.075486
v 0.037743 0.038905 -0.065373
v 0.053377 0.038905 -0.053377
v 0.065373 0.038905 -0.037743
v 0.072914 0.038905 -0.019537
v 0.075486 0.038905 0.000000
v 0.072914 0.038905 0.019537
v 0.065373 0.038905 0.037743
v 0.053377 0.038905 0.053377
v 0.037743 0.038905 0.065373
v 0.019537 0.038905 0.072914
v -0.000000 0.038905 0.075486
v -0.019537 0.038905 0.072914
v -0.037743 0.038905 0.065373
v -0.053377 0.038905 0.053377
v -0.065373 0.038905 0.037743
v -0.072914 0.038905 0.019537
v -0.075486 0.038905 -0.000000
v -0.072914 0.038905 -0.019537
v -0.065373 0.038905 -0.037743
v -0.053377 0.038905 -0.053377
v -0.037743 0.038905 -0.065373
v -0.019537 0.038905 -0.072914
v 0.017692 0.038905 -0.066027
v -0.000000 0.038905 -0.068356
v 0.034178 0.038905 -0.059198
v 0.048335 0.038905 -0.048335
v 0.059198 0.038905 -0.034178
v 0.066027 0.038905 -0.017692
v 0.068356 0.038905 0.000000
v 0.066027 0.038905 0.017692
v 0.059198 0.038905 0.034178
v 0.048335 0.038905 0.048335
v 0.034178 0.038905 0.059198
v 0.017692 0.038905 0.066027
v -0.000000 0.038905 0.068356
v -0.017692 0.038905 0.066027
v -0.034178 0.038905 0.059198
v -0.048335 0.038905 0.048335
v -0.059198 0.038905 0.034178
v -0.066027 0.038905 0.017692
v -0.068356 0.038905 0.000000
v -0.066027 0.038905 -0.017692
v -0.059198 0.038905 -0.034178
v -0.048335 0.038905 -0.048335
v -0.034178 0.038905 -0.059198
v -0.017692 0.038905 -0.066027
v 0.016315 0.032668 -0.060890
v -0.000000 0.032668 -0.063038
v 0.031519 0.032668 -0.054593
v 0.044575 0.032668 -0.044575
v 0.054593 0.032668 -0.031519
v 0.060890 0.032668 -0.016315
v 0.063038 0.032668 0.000000
v 0.060890 0.032668 0.016315
v 0.054593 0.032668 0.031519
v 0.044575 0.032668 0.044575
v 0.031519 0.032668 0.054593
v 0.016315 0.032668 0.060890
v -0.000000 0.032668 0.063038
v -0.016315 0.032668 0.060890
v -0.031519 0.032668 0.054593
v -0.044575 0.032668 0.044575
v -0.054593 0.032668 0.031519
v -0.060890 0.032668 0.016315
v -0.063038 0.032668 0.000000
v -0.060890 0.032668 -0.016315
v -0.054593 0.032668 -0.031519
v -0.044575 0.032668 -0.044575
v -0.031519 0.032668 -0.054593
v -0.016315 0.032668 -0.060890
v -0.000000 0.022293 -0.058928
v -0.000000 0.011427 -0.041838
v -0.000000 0.014354 -0.051736
v 0.010828 0.011427 -0.040412
v 0.015252 0.022293 -0.056920
v 0.013390 0.014354 -0.049973
v 0.020919 0.011427 -0.036233
v 0.029464 0.022293 -0.051033
v 0.025868 0.014354 -0.044805
v 0.029584 0.011427 -0.029584
v 0.041668 0.022293 -0.041668
v 0.036583 0.014354 -0.036583
v 0.036233 0.011427 -0.020919
v 0.051033 0.022293 -0.029464
v 0.044805 0.014354 -0.025868
v 0.040412 0.011427 -0.010828
v 0.056920 0.022293 -0.015252
v 0.049973 0.014354 -0.013390
v 0.041838 0.011427 -0.000000
v 0.058928 0.022293 0.000000
v 0.051736 0.014354 0.000000
v 0.040412 0.011427 0.010828
v 0.056920 0.022293 0.015252
v 0.049973 0.014354 0.013390
v 0.036233 0.011427 0.020919
v 0.051033 0.022293 0.029464
v 0.044805 0.014354 0.025868
v 0.029584 0.011427 0.029584
v 0.041668 0.022293 0.041668
v 0.036583 0.014354 0.036583
v 0.020919 0.011427 0.036233
v 0.029464 0.022293 0.051033
v 0.025868 0.014354 0.044805
v 0.010828 0.011427 0.040412
v 0.015252 0.022293 0.056920
v 0.013390 0.014354 0.049973
v -0.000000 0.011427 0.041838
v -0.000000 0.022293 0.058928
v -0.000000 0.014354 0.051736
v -0.010828 0.011427 0.040412
v -0.015252 0.022293 0.056920
v -0.013390 0.014354 0.049973
v -0.020919 0.011427 0.036233
v -0.029464 0.022293 0.051033
v -0.025868 0.014354 0.044805
v -0.029584 0.011427 0.029584
v -0.041668 0.022293 0.041668
v -0.036583 0.014354 0.036583
v -0.036233 0.011427 0.020919
v -0.051033 0.022293 0.029464
v -0.044805 0.014354 0.025868
v -0.040412 0.011427 0.010828
v -0.056920 0.022293 0.015252
v -0.049973 0.014354 0.013390
v -0.041838 0.011427 -0.000000
v -0.058928 0.022293 0.000000
v -0.051736 0.014354 -0.000000
v -0.040412 0.011427 -0.010828
v -0.056920 0.022293 -0.015252
v -0.049973 0.014354 -0.013390
v -0.036233 0.011427 -0.020919
v -0.051033 0.022293 -0.029464
v -0.044805 0.014354 -0.025868
v -0.029584 0.011427 -0.029584
v -0.041668 0.022293 -0.041668
v -0.036583 0.014354 -0.036583
v -0.020919 0.011427 -0.036233
v -0.029464 0.022293 -0.051033
v -0.025868 0.014354 -0.044805
v -0.010828 0.011427 -0.040412
v -0.015252 0.022293 -0.056920
v -0.013390 0.014354 -0.049973
v -0.000000 0.000000 -0.090580
v 0.000000 0.004249 -0.105000
v -0.000000 0.002070 -0.104089
v 0.023444 0.000000 -0.087494
v 0.027176 0.004249 -0.101422
v 0.026940 0.002070 -0.100543
v 0.045290 0.000000 -0.078445
v 0.052500 0.004249 -0.090933
v 0.052045 0.002070 -0.090144
v 0.064050 0.000000 -0.064050
v 0.074246 0.004249 -0.074246
v 0.073602 0.002070 -0.073602
v 0.078445 0.000000 -0.045290
v 0.090933 0.004249 -0.052500
v 0.090144 0.002070 -0.052045
v 0.087494 0.000000 -0.023444
v 0.101422 0.004249 -0.027176
v 0.100543 0.002070 -0.026940
v 0.090580 0.000000 0.000000
v 0.105000 0.004249 0.000000
v 0.104089 0.002070 0.000000
v 0.087494 0.000000 0.023444
v 0.101422 0.004249 0.027176
v 0.100543 0.002070 0.026940
v 0.078445 0.000000 0.045290
v 0.090933 0.004249 0.052500
v 0.090144 0.002070 0.052045
v 0.064050 0.000000 0.064050
v 0.074246 0.004249 0.074246
v 0.073602 0.002070 0.073602
v 0.045290 0.000000 0.078445
v 0.052500 0.004249 0.090933
v 0.052045 0.002070 0.090144
v 0.023444 0.000000 0.087494
v 0.027176 0.004249 0.101422
v 0.026940 0.002070 0.100543
v -0.000000 0.000000 0.090580
v -0.000000 0.004249 0.105000
v -0.000000 0.002070 0.104089
v -0.023444 0.000000 0.087494
v -0.027176 0.004249 0.101422
v -0.026940 0.002070 0.100543
v -0.045290 0.000000 0.078445
v -0.052500 0.004249 0.090933
v -0.052045 0.002070 0.090144
v -0.064050 0.000000 0.064050
v -0.074246 0.004249 0.074246
v -0.073602 0.002070 0.073602
v -0.078445 0.000000 0.045290
v -0.090933 0.004249 0.052500
v -0.090144 0.002070 0.052045
v -0.087494 0.000000 0.023444
v -0.101422 0.004249 0.027176
v -0.100543 0.002070 0.026940
v -0.090580 0.000000 0.000000
v -0.105000 0.004249 -0.000000
v -0.104089 0.002070 -0.000000
v -0.087494 0.000000 -0.023444
v -0.101422 0.004249 -0.027176
v -0.100543 0.002070 -0.026940
v -0.078445 0.000000 -0.045290
v -0.090933 0.004249 -0.052500
v -0.090144 0.002070 -0.052045
v -0.064050 0.000000 -0.064050
v -0.074246 0.004249 -0.074246
v -0.073602 0.002070 -0.073602
v -0.045290 0.000000 -0.078445
v -0.052500 0.004249 -0.090933
v -0.052045 0.002070 -0.090144
v -0.023444 0.000000 -0.087494
v -0.027176 0.004249 -0.101422
v -0.026940 0.002070 -0.100543
v -0.000000 0.007566 -0.101900
v -0.000000 0.006497 -0.104092
v 0.026374 0.007566 -0.098428
v 0.026941 0.006497 -0.100545
v 0.050950 0.007566 -0.088248
v 0.052046 0.006497 -0.090146
v 0.072054 0.007566 -0.072054
v 0.073604 0.006497 -0.073604
v 0.088248 0.007566 -0.050950
v 0.090146 0.006497 -0.052046
v 0.098428 0.007566 -0.026374
v 0.100545 0.006497 -0.026941
v 0.101900 0.007566 0.000000
v 0.104092 0.006497 0.000000
v 0.098428 0.007566 0.026374
v 0.100545 0.006497 0.026941
v 0.088248 0.007566 0.050950
v 0.090146 0.006497 0.052046
v 0.072054 0.007566 0.072054
v 0.073604 0.006497 0.073604
v 0.050950 0.007566 0.088248
v 0.052046 0.006497 0.090146
v 0.026374 0.007566 0.098428
v 0.026941 0.006497 0.100545
v -0.000000 0.007566 0.101900
v -0.000000 0.006497 0.104092
v -0.026374 0.007566 0.098428
v -0.026941 0.006497 0.100545
v -0.050950 0.007566 0.088248
v -0.052046 0.006497 0.090146
v -0.072054 0.007566 0.072054
v -0.073604 0.006497 0.073604
v -0.088248 0.007566 0.050950
v -0.090146 0.006497 0.052046
v -0.098428 0.007566 0.026374
v -0.100545 0.006497 0.026941
v -0.101900 0.007566 -0.000000
v -0.104092 0.006497 -0.000000
v -0.098428 0.007566 -0.026374
v -0.100545 0.006497 -0.026941
v -0.088248 0.007566 -0.050950
v -0.090146 0.006497 -0.052046
v -0.072054 0.007566 -0.072054
v -0.073604 0.006497 -0.073604
v -0.050950 0.007566 -0.088248
v -0.052046 0.006497 -0.090146
v -0.026374 0.007566 -0.098428
v -0.026941 0.006497 -0.100545
v -0.024365 0.006670 -0.090930
v -0.000000 0.006670 -0.094137
v 0.024365 0.006670 -0.090930
v 0.047069 0.006670 -0.081525
v 0.066565 0.006670 -0.066565
v 0.081525 0.006670 -0.047069
v 0.090930 0.006670 -0.024365
v 0.094137 0.006670 0.000000
v 0.090930 0.006670 0.024365
v 0.081525 0.006670 0.047069
v 0.066565 0.006670 0.066565
v 0.047069 0.006670 0.081525
v 0.024365 0.006670 0.090930
v -0.000000 0.006670 0.094137
v -0.024365 0.006670 0.090930
v -0.047069 0.006670 0.081525
v -0.066565 0.006670 0.066565
v -0.081525 0.006670 0.047069
v -0.090930 0.006670 0.024365
v -0.094137 0.006670 -0.000000
v -0.090930 0.006670 -0.024365
v -0.081525 0.006670 -0.047069
v -0.066565 0.006670 -0.066565
v -0.047069 0.006670 -0.081525
v -0.000000 0.011427 -0.036233
v -0.000000 0.011427 -0.029584
v -0.000000 0.011427 -0.020919
v -0.000000 0.011427 -0.010828
v -0.000000 0.011427 -0.000000
v -0.000000 0.011427 0.010828
v -0.000000 0.011427 0.020919
v -0.000000 0.011427 0.029584
v -0.000000 0.011427 0.036233
v -0.000000 0.040000 -0.071921
v 0.018615 0.040000 -0.069470
v 0.035960 0.040000 -0.062285
v 0.050856 0.040000 -0.050856
v 0.062285 0.040000 -0.035960
v 0.069470 0.040000 -0.018615
v 0.071921 0.040000 0.000000
v 0.069470 0.040000 0.018615
v 0.062285 0.040000 0.035960
v 0.050856 0.040000 0.050856
v 0.035960 0.040000 0.062285
v 0.018615 0.040000 0.069470
v -0.000000 0.040000 0.071921
v -0.018615 0.040000 0.069470
v -0.035960 0.040000 0.062285
v -0.050856 0.040000 0.050856
v -0.062285 0.040000 0.035960
v -0.069470 0.040000 0.018615
v -0.071921 0.040000 -0.000000
v -0.069470 0.040000 -0.018615
v -0.062285 0.040000 -0.035960
v -0.050856 0.040000 -0.050856
v -0.035960 0.040000 -0.062285
v -0.018614 0.040000 -0.069470
v 0.026371 0.000000 -0.098419
v -0.000000 0.000000 -0.101891
v 0.050946 0.000000 -0.088240
v 0.072048 0.000000 -0.072048
v 0.088240 0.000000 -0.050946
v 0.098419 0.000000 -0.026371
v 0.101891 0.000000 0.000000
v 0.098419 0.000000 0.026371
v 0.088240 0.000000 0.050946
v 0.072048 0.000000 0.072048
v 0.050946 0.000000 0.088240
v 0.026371 0.000000 0.098419
v -0.000000 0.000000 0.101891
v -0.026371 0.000000 0.098419
v -0.050946 0.000000 0.088240
v -0.072048 0.000000 0.072048
v -0.088240 0.000000 0.050946
v -0.098419 0.000000 0.026371
v -0.101891 0.000000 -0.000000
v -0.098419 0.000000 -0.026371
v -0.088240 0.000000 -0.050946
v -0.072048 0.000000 -0.072048
v -0.050946 0.000000 -0.088240
v -0.026371 0.000000 -0.098419
v 0.018995 0.035660 -0.070891
v -0.000000 0.035660 -0.073392
v 0.036696 0.035660 -0.063559
v 0.051896 0.035660 -0.051896
v 0.063559 0.035660 -0.036696
v 0.070891 0.035660 -0.018995
v 0.073392 0.035660 0.000000
v 0.070891 0.035660 0.018995
v 0.063559 0.035660 0.036696
v 0.051896 0.035660 0.051896
v 0.036696 0.035660 0.063559
v 0.018995 0.035660 0.070891
v -0.000000 0.035660 0.073392
v -0.018995 0.035660 0.070891
v -0.036696 0.035660 0.063559
v -0.051896 0.035660 0.051896
v -0.063559 0.035660 0.036696
v -0.070891 0.035660 0.018995
v -0.073392 0.035660 0.000000
v -0.070891 0.035660 -0.018995
v -0.063559 0.035660 -0.036696
v -0.051896 0.035660 -0.051896
v -0.036696 0.035660 -0.063559
v -0.018995 0.035660 -0.070891
v 0.010870 0.007465 -0.040567
v -0.000000 0.007465 -0.041998
v 0.020999 0.007465 -0.036372
v 0.029697 0.007465 -0.029697
v 0.036372 0.007465 -0.020999
v 0.040567 0.007465 -0.010870
v 0.041998 0.007465 0.000000
v 0.040567 0.007465 0.010870
v 0.036372 0.007465 0.020999
v 0.029697 0.007465 0.029697
v 0.020999 0.007465 0.036372
v 0.010870 0.007465 0.040567
v -0.000000 0.007465 0.041998
v -0.010870 0.007465 0.040567
v -0.020999 0.007465 0.036372
v -0.029697 0.007465 0.029697
v -0.036372 0.007465 0.020999
v -0.040567 0.007465 0.010870
v -0.041998 0.007465 0.000000
v -0.040567 0.007465 -0.010870
v -0.036372 0.007465 -0.020999
v -0.029697 0.007465 -0.029697
v -0.020999 0.007465 -0.036372
v -0.010870 0.007465 -0.040567
v 0.011991 0.010355 -0.044750
v -0.000000 0.010355 -0.046328
v 0.023164 0.010355 -0.040121
v 0.032759 0.010355 -0.032759
v 0.040121 0.010355 -0.023164
v 0.044750 0.010355 -0.011991
v 0.046328 0.010355 -0.000000
v 0.044750 0.010355 0.011991
v 0.040121 0.010355 0.023164
v 0.032759 0.010355 0.032759
v 0.023164 0.010355 0.040121
v 0.011991 0.010355 0.044750
v -0.000000 0.010355 0.046328
v -0.011991 0.010355 0.044750
v -0.023164 0.010355 0.040121
v -0.032759 0.010355 0.032759
v -0.040122 0.010355 0.023164
v -0.044750 0.010355 0.011991
v -0.046328 0.010355 -0.000000
v -0.044750 0.010355 -0.011991
v -0.040122 0.010355 -0.023164
v -0.032759 0.010355 -0.032759
v -0.023164 0.010355 -0.040121
v -0.011991 0.010355 -0.044750
v -0.011606 0.007465 -0.043313
v -0.022420 0.007465 -0.038833
v -0.031707 0.007465 -0.031707
v -0.038833 0.007465 -0.022420
v -0.043313 0.007465 -0.011606
v -0.044841 0.007465 0.000000
v -0.043313 0.007465 0.011606
v -0.038833 0.007465 0.022420
v -0.031707 0.007465 0.031707
v -0.022420 0.007465 0.038833
v -0.011606 0.007465 0.043313
v -0.000000 0.007465 0.044841
v 0.011606 0.007465 0.043313
v 0.022420 0.007465 0.038833
v 0.031707 0.007465 0.031707
v 0.038833 0.007465 0.022420
v 0.043313 0.007465 0.011606
v 0.044841 0.007465 0.000000
v 0.043313 0.007465 -0.011606
v 0.038833 0.007465 -0.022420
v 0.031707 0.007465 -0.031707
v 0.022420 0.007465 -0.038833
v -0.000000 0.007465 -0.044841
v 0.011606 0.007465 -0.043313
v 0.012190 0.008251 -0.045492
v -0.000000 0.008251 -0.047097
v 0.023549 0.008251 -0.040787
v 0.033303 0.008251 -0.033303
v 0.040787 0.008251 -0.023549
v 0.045492 0.008251 -0.012190
v 0.047097 0.008251 0.000000
v 0.045492 0.008251 0.012190
v 0.040787 0.008251 0.023549
v 0.033303 0.008251 0.033303
v 0.023549 0.008251 0.040787
v 0.012190 0.008251 0.045492
v -0.000000 0.008251 0.047097
v -0.012190 0.008251 0.045492
v -0.023549 0.008251 0.040787
v -0.033303 0.008251 0.033303
v -0.040787 0.008251 0.023549
v -0.045492 0.008251 0.012190
v -0.047097 0.008251 0.000000
v -0.045492 0.008251 -0.012190
v -0.040787 0.008251 -0.023549
v -0.033303 0.008251 -0.033303
v -0.023549 0.008251 -0.040787
v -0.012190 0.008251 -0.045492
v 0.014102 0.010513 -0.052630
v 0.012517 0.007465 -0.046715
v 0.013392 0.008358 -0.049981
v -0.000000 0.007465 -0.048362
v -0.000000 0.010513 -0.054487
v -0.000000 0.008358 -0.051744
v 0.027243 0.010513 -0.047187
v 0.024181 0.007465 -0.041883
v 0.025872 0.008358 -0.044812
v 0.038528 0.010513 -0.038528
v 0.034197 0.007465 -0.034197
v 0.036589 0.008358 -0.036589
v 0.047187 0.010513 -0.027243
v 0.041883 0.007465 -0.024181
v 0.044812 0.008358 -0.025872
v 0.052630 0.010513 -0.014102
v 0.046715 0.007465 -0.012517
v 0.049981 0.008358 -0.013392
v 0.054487 0.010513 0.000000
v 0.048362 0.007465 0.000000
v 0.051744 0.008358 0.000000
v 0.052630 0.010513 0.014102
v 0.046715 0.007465 0.012517
v 0.049981 0.008358 0.013392
v 0.047187 0.010513 0.027243
v 0.041883 0.007465 0.024181
v 0.044812 0.008358 0.025872
v 0.038528 0.010513 0.038528
v 0.034197 0.007465 0.034197
v 0.036589 0.008358 0.036589
v 0.027243 0.010513 0.047187
v 0.024181 0.007465 0.041883
v 0.025872 0.008358 0.044812
v 0.014102 0.010513 0.052630
v 0.012517 0.007465 0.046715
v 0.013392 0.008358 0.049981
v -0.000000 0.010513 0.054487
v -0.000000 0.007465 0.048362
v -0.000000 0.008358 0.051744
v -0.014102 0.010513 0.052630
v -0.012517 0.007465 0.046715
v -0.013392 0.008358 0.049981
v -0.027243 0.010513 0.047187
v -0.024181 0.007465 0.041883
v -0.025872 0.008358 0.044812
v -0.038528 0.010513 0.038528
v -0.034197 0.007465 0.034197
v -0.036589 0.008358 0.036589
v -0.047187 0.010513 0.027243
v -0.041883 0.007465 0.024181
v -0.044812 0.008358 0.025872
v -0.052630 0.010513 0.014102
v -0.046715 0.007465 0.012517
v -0.049981 0.008358 0.013392
v -0.054487 0.010513 0.000000
v -0.048362 0.007465 0.000000
v -0.051744 0.008358 0.000000
v -0.052630 0.010513 -0.014102
v -0.046715 0.007465 -0.012517
v -0.049981 0.008358 -0.013392
v -0.047187 0.010513 -0.027243
v -0.041883 0.007465 -0.024181
v -0.044812 0.008358 -0.025872
v -0.038528 0.010513 -0.038528
v -0.034197 0.007465 -0.034197
v -0.036589 0.008358 -0.036589
v -0.027243 0.010513 -0.047187
v -0.024181 0.007465 -0.041883
v -0.025872 0.008358 -0.044812
v -0.014102 0.010513 -0.052630
v -0.012517 0.007465 -0.046715
v -0.013392 0.008358 -0.049981
v -0.000000 0.007465 -0.036372
v -0.000000 0.007465 -0.029584
v -0.000000 0.007465 -0.020919
v -0.000000 0.007465 -0.010870
v -0.000000 0.007465 0.000000
v -0.000000 0.007465 0.010870
v -0.000000 0.007465 0.020919
v -0.000000 0.007465 0.029584
v -0.000000 0.007465 0.036233
vn -0.0000 0.4517 -0.8922
vn 0.2309 0.4517 -0.8618
vn 0.4461 0.4517 -0.7726
vn 0.6309 0.4517 -0.6309
vn 0.7726 0.4517 -0.4461
vn 0.8618 0.4517 -0.2309
vn 0.8922 0.4517 -0.0000
vn 0.8618 0.4517 0.2309
vn 0.7726 0.4517 0.4461
vn 0.6309 0.4517 0.6309
vn 0.4461 0.4517 0.7726
vn 0.2309 0.4517 0.8618
vn -0.0000 0.4517 0.8922
vn -0.2309 0.4517 0.8618
vn -0.4461 0.4517 0.7726
vn -0.6309 0.4517 0.6309
vn -0.7726 0.4517 0.4461
vn -0.8618 0.4517 0.2309
vn -0.8922 0.4517 -0.0000
vn -0.8618 0.4517 -0.2309
vn -0.7726 0.4517 -0.4461
vn -0.6309 0.4517 -0.6309
vn -0.4461 0.4517 -0.7726
vn 0.2214 0.5177 0.8264
vn -0.0000 0.5177 0.8556
vn -0.0000 0.4988 0.8667
vn 0.2243 0.4988 0.8372
vn -0.2309 0.4517 -0.8618
vn 0.0568 0.9756 0.2122
vn 0.1561 0.7976 0.5826
vn -0.0000 0.7976 0.6032
vn -0.0000 0.9756 0.2197
vn 0.8701 -0.4342 0.2331
vn 0.7801 -0.4342 0.4504
vn -0.1561 0.7976 0.5826
vn -0.0569 0.9756 0.2122
vn 0.1098 0.9756 0.1903
vn 0.3016 0.7976 0.5224
vn 0.1553 0.9756 0.1554
vn 0.4265 0.7976 0.4265
vn 0.1902 0.9756 0.1099
vn 0.5224 0.7976 0.3016
vn 0.2122 0.9756 0.0569
vn 0.5826 0.7976 0.1561
vn 0.2197 0.9756 -0.0000
vn 0.6032 0.7976 -0.0000
vn 0.2122 0.9756 -0.0568
vn 0.5826 0.7976 -0.1561
vn 0.1903 0.9756 -0.1098
vn 0.5224 0.7976 -0.3016
vn 0.1554 0.9756 -0.1553
vn 0.4265 0.7976 -0.4265
vn 0.1099 0.9756 -0.1902
vn 0.3016 0.7976 -0.5224
vn 0.0569 0.9756 -0.2122
vn 0.1561 0.7976 -0.5826
vn -0.0000 0.9756 -0.2197
vn -0.0000 0.7976 -0.6032
vn -0.0569 0.9756 -0.2122
vn -0.1561 0.7976 -0.5826
vn -0.1098 0.9756 -0.1903
vn -0.3016 0.7976 -0.5224
vn -0.1553 0.9756 -0.1554
vn -0.4265 0.7976 -0.4265
vn -0.1902 0.9756 -0.1099
vn -0.5224 0.7976 -0.3016
vn -0.2122 0.9756 -0.0569
vn -0.5826 0.7976 -0.1561
vn -0.2197 0.9756 -0.0000
vn -0.6032 0.7976 -0.0000
vn -0.2122 0.9756 0.0568
vn -0.5826 0.7976 0.1561
vn -0.1903 0.9756 0.1098
vn -0.5224 0.7976 0.3016
vn -0.1554 0.9756 0.1553
vn -0.4265 0.7976 0.4265
vn -0.1099 0.9756 0.1902
vn -0.3016 0.7976 0.5224
vn -0.0000 1.0000 -0.0076
vn 0.0020 1.0000 -0.0074
vn 0.0760 0.9560 -0.2835
vn -0.0000 0.9560 -0.2935
vn 0.0038 1.0000 -0.0066
vn 0.1467 0.9560 -0.2542
vn 0.0054 1.0000 -0.0054
vn 0.2075 0.9560 -0.2075
vn 0.0066 1.0000 -0.0038
vn 0.2542 0.9560 -0.1467
vn 0.0074 1.0000 -0.0020
vn 0.2835 0.9560 -0.0760
vn 0.0076 1.0000 -0.0000
vn 0.2935 0.9560 -0.0000
vn 0.0073 1.0000 0.0020
vn 0.2835 0.9560 0.0760
vn 0.0066 1.0000 0.0038
vn 0.2542 0.9560 0.1467
vn 0.0054 1.0000 0.0054
vn 0.2075 0.9560 0.2075
vn 0.0038 1.0000 0.0066
vn 0.1467 0.9560 0.2542
vn 0.0020 1.0000 0.0073
vn 0.0760 0.9560 0.2835
vn -0.0000 1.0000 0.0076
vn -0.0000 0.9560 0.2935
vn -0.0020 1.0000 0.0074
vn -0.0760 0.9560 0.2835
vn -0.0038 1.0000 0.0066
vn -0.1467 0.9560 0.2542
vn -0.0054 1.0000 0.0054
vn -0.2075 0.9560 0.2075
vn -0.0066 1.0000 0.0038
vn -0.2542 0.9560 0.1467
vn -0.0074 1.0000 0.0020
vn -0.2835 0.9560 0.0760
vn -0.0076 1.0000 -0.0000
vn -0.2935 0.9560 -0.0000
vn -0.0074 1.0000 -0.0020
vn -0.2835 0.9560 -0.0760
vn -0.0066 1.0000 -0.0038
vn -0.2542 0.9560 -0.1467
vn -0.0054 1.0000 -0.0054
vn -0.2075 0.9560 -0.2075
vn -0.0038 1.0000 -0.0066
vn -0.1467 0.9560 -0.2542
vn -0.0020 1.0000 -0.0074
vn -0.0760 0.9560 -0.2835
vn -0.2243 0.4988 0.8372
vn -0.1631 0.7764 0.6088
vn -0.0000 0.7764 0.6302
vn -0.4333 0.4988 0.7506
vn -0.3151 0.7764 0.5458
vn -0.6128 0.4988 0.6129
vn -0.4456 0.7764 0.4456
vn -0.7506 0.4988 0.4334
vn -0.5458 0.7764 0.3151
vn -0.8372 0.4988 0.2243
vn -0.6088 0.7764 0.1631
vn -0.8667 0.4988 -0.0000
vn -0.6302 0.7764 -0.0000
vn -0.8372 0.4988 -0.2243
vn -0.6088 0.7764 -0.1631
vn -0.7506 0.4988 -0.4333
vn -0.5458 0.7764 -0.3151
vn -0.6129 0.4988 -0.6128
vn -0.4456 0.7764 -0.4456
vn -0.4334 0.4988 -0.7506
vn -0.3151 0.7764 -0.5458
vn -0.2243 0.4988 -0.8372
vn -0.1631 0.7764 -0.6088
vn -0.0000 0.4988 -0.8667
vn -0.0000 0.7764 -0.6302
vn 0.2243 0.4988 -0.8372
vn 0.1631 0.7764 -0.6088
vn 0.4333 0.4988 -0.7506
vn 0.3151 0.7764 -0.5458
vn 0.6128 0.4988 -0.6129
vn 0.4456 0.7764 -0.4456
vn 0.7506 0.4988 -0.4334
vn 0.5458 0.7764 -0.3151
vn 0.8372 0.4988 -0.2243
vn 0.6088 0.7764 -0.1631
vn 0.8667 0.4988 -0.0000
vn 0.6302 0.7764 -0.0000
vn 0.8372 0.4988 0.2243
vn 0.6088 0.7764 0.1631
vn 0.7506 0.4988 0.4333
vn 0.5458 0.7764 0.3151
vn 0.6129 0.4988 0.6128
vn 0.4456 0.7764 0.4456
vn 0.4334 0.4988 0.7506
vn 0.3151 0.7764 0.5458
vn 0.1631 0.7764 0.6088
vn -0.4278 0.5177 0.7409
vn -0.6050 0.5177 0.6050
vn -0.7410 0.5177 0.4278
vn -0.8264 0.5177 0.2214
vn -0.8556 0.5177 -0.0000
vn -0.8264 0.5177 -0.2214
vn -0.7409 0.5177 -0.4278
vn -0.6050 0.5177 -0.6050
vn -0.4278 0.5177 -0.7410
vn -0.2214 0.5177 -0.8264
vn -0.0000 0.5177 -0.8555
vn 0.2214 0.5177 -0.8264
vn 0.4278 0.5177 -0.7409
vn 0.6050 0.5177 -0.6050
vn 0.7409 0.5177 -0.4278
vn 0.8264 0.5177 -0.2214
vn 0.8556 0.5177 -0.0000
vn 0.8264 0.5177 0.2214
vn 0.7409 0.5177 0.4278
vn 0.6050 0.5177 0.6050
vn 0.4278 0.5177 0.7409
vn -0.2214 0.5177 0.8264
vn -0.0000 0.7220 0.6919
vn -0.1791 0.7220 0.6683
vn 0.0601 0.9727 -0.2242
vn -0.0000 0.9727 -0.2321
vn -0.0000 0.9953 -0.0971
vn 0.0355 0.9905 -0.1326
vn -0.3459 0.7220 0.5992
vn 0.1161 0.9727 -0.2010
vn 0.0354 0.9975 -0.0613
vn -0.4892 0.7220 0.4892
vn 0.1642 0.9727 -0.1642
vn 0.0311 0.9990 -0.0311
vn -0.5992 0.7220 0.3459
vn 0.2010 0.9727 -0.1161
vn 0.0274 0.9995 -0.0158
vn -0.6683 0.7220 0.1791
vn 0.2242 0.9727 -0.0601
vn 0.0253 0.9997 -0.0068
vn -0.6919 0.7220 -0.0000
vn 0.2321 0.9727 -0.0000
vn 0.0246 0.9997 -0.0000
vn -0.6683 0.7220 -0.1791
vn 0.2242 0.9727 0.0601
vn 0.0253 0.9997 0.0067
vn -0.5992 0.7220 -0.3459
vn 0.2010 0.9727 0.1161
vn 0.0273 0.9995 0.0158
vn -0.4892 0.7220 -0.4892
vn 0.1642 0.9727 0.1642
vn 0.0311 0.9990 0.0311
vn -0.3459 0.7220 -0.5992
vn 0.1161 0.9727 0.2010
vn 0.0354 0.9975 0.0613
vn -0.1791 0.7220 -0.6683
vn 0.0601 0.9727 0.2242
vn 0.0355 0.9905 0.1326
vn -0.0000 0.7220 -0.6919
vn -0.0000 0.9727 0.2321
vn -0.0000 0.9953 0.0971
vn 0.1791 0.7220 -0.6683
vn -0.0601 0.9727 0.2242
vn -0.0355 0.9905 0.1325
vn 0.3459 0.7220 -0.5992
vn -0.1161 0.9727 0.2010
vn -0.0354 0.9975 0.0613
vn 0.4892 0.7220 -0.4892
vn -0.1642 0.9727 0.1642
vn -0.0311 0.9990 0.0311
vn 0.5992 0.7220 -0.3459
vn -0.2010 0.9727 0.1161
vn -0.0274 0.9995 0.0158
vn 0.6683 0.7220 -0.1791
vn -0.2242 0.9727 0.0601
vn -0.0253 0.9997 0.0068
vn 0.6919 0.7220 -0.0000
vn -0.2321 0.9727 -0.0000
vn -0.0246 0.9997 -0.0000
vn 0.6683 0.7220 0.1791
vn -0.2242 0.9727 -0.0601
vn -0.0253 0.9997 -0.0068
vn 0.5992 0.7220 0.3459
vn -0.2010 0.9727 -0.1161
vn -0.0274 0.9995 -0.0158
vn 0.4892 0.7220 0.4892
vn -0.1642 0.9727 -0.1642
vn -0.0311 0.9990 -0.0311
vn 0.3459 0.7220 0.5992
vn -0.1161 0.9727 -0.2010
vn -0.0354 0.9975 -0.0613
vn 0.1791 0.7220 0.6683
vn -0.0601 0.9727 -0.2242
vn -0.0355 0.9905 -0.1326
vn -0.0000 -0.0006 -1.0000
vn 0.2588 -0.0006 -0.9659
vn 0.2091 -0.5892 -0.7804
vn -0.0000 -0.5892 -0.8080
vn 0.0414 -0.9871 -0.1546
vn -0.0000 -0.9871 -0.1600
vn 0.5000 -0.0006 -0.8660
vn 0.4040 -0.5892 -0.6997
vn 0.0800 -0.9871 -0.1386
vn 0.7071 -0.0006 -0.7071
vn 0.5713 -0.5892 -0.5713
vn 0.1132 -0.9871 -0.1131
vn 0.8660 -0.0006 -0.5000
vn 0.6997 -0.5892 -0.4040
vn 0.1386 -0.9871 -0.0800
vn 0.9659 -0.0006 -0.2588
vn 0.7804 -0.5892 -0.2091
vn 0.1546 -0.9871 -0.0414
vn 1.0000 -0.0006 -0.0000
vn 0.8080 -0.5892 -0.0000
vn 0.1600 -0.9871 -0.0000
vn 0.9659 -0.0006 0.2588
vn 0.7804 -0.5892 0.2091
vn 0.1546 -0.9871 0.0414
vn 0.8660 -0.0006 0.5000
vn 0.6997 -0.5892 0.4040
vn 0.1386 -0.9871 0.0800
vn 0.7071 -0.0006 0.7071
vn 0.5713 -0.5892 0.5713
vn 0.1131 -0.9871 0.1132
vn 0.5000 -0.0006 0.8660
vn 0.4040 -0.5892 0.6997
vn 0.0800 -0.9871 0.1386
vn 0.2588 -0.0006 0.9659
vn 0.2091 -0.5892 0.7804
vn 0.0414 -0.9871 0.1546
vn -0.0000 -0.0006 1.0000
vn -0.0000 -0.5892 0.8080
vn -0.0000 -0.9871 0.1600
vn -0.2588 -0.0006 0.9659
vn -0.2091 -0.5892 0.7804
vn -0.0414 -0.9871 0.1546
vn -0.5000 -0.0006 0.8660
vn -0.4040 -0.5892 0.6997
vn -0.0800 -0.9871 0.1386
vn -0.7071 -0.0006 0.7071
vn -0.5713 -0.5892 0.5713
vn -0.1132 -0.9871 0.1131
vn -0.8660 -0.0006 0.5000
vn -0.6997 -0.5892 0.4040
vn -0.1386 -0.9871 0.0800
vn -0.9659 -0.0006 0.2588
vn -0.7804 -0.5892 0.2091
vn -0.1546 -0.9871 0.0414
vn -1.0000 -0.0006 -0.0000
vn -0.8080 -0.5892 -0.0000
vn -0.1600 -0.9871 -0.0000
vn -0.9659 -0.0006 -0.2588
vn -0.7804 -0.5892 -0.2091
vn -0.1546 -0.9871 -0.0414
vn -0.8660 -0.0006 -0.5000
vn -0.6997 -0.5892 -0.4040
vn -0.1386 -0.9871 -0.0800
vn -0.7071 -0.0006 -0.7071
vn -0.5713 -0.5892 -0.5713
vn -0.1131 -0.9871 -0.1132
vn -0.5000 -0.0006 -0.8660
vn -0.4040 -0.5892 -0.6997
vn -0.0800 -0.9871 -0.1386
vn -0.2588 -0.0006 -0.9659
vn -0.2091 -0.5892 -0.7804
vn -0.0414 -0.9871 -0.1546
vn -0.0058 0.9997 -0.0218
vn -0.0000 0.9997 -0.0225
vn -0.0000 0.6807 -0.7326
vn -0.1896 0.6807 -0.7076
vn -0.0113 0.9997 -0.0195
vn -0.3663 0.6807 -0.6344
vn -0.0159 0.9997 -0.0159
vn -0.5180 0.6807 -0.5180
vn -0.0195 0.9997 -0.0113
vn -0.6344 0.6807 -0.3663
vn -0.0218 0.9997 -0.0058
vn -0.7076 0.6807 -0.1896
vn -0.0225 0.9997 -0.0000
vn -0.7326 0.6807 -0.0000
vn -0.0218 0.9997 0.0058
vn -0.7076 0.6807 0.1896
vn -0.0195 0.9997 0.0113
vn -0.6344 0.6807 0.3663
vn -0.0159 0.9997 0.0159
vn -0.5180 0.6807 0.5180
vn -0.0113 0.9997 0.0195
vn -0.3663 0.6807 0.6344
vn -0.0058 0.9997 0.0218
vn -0.1896 0.6807 0.7076
vn -0.0000 0.9997 0.0225
vn -0.0000 0.6807 0.7326
vn 0.0058 0.9997 0.0218
vn 0.1896 0.6807 0.7076
vn 0.0113 0.9997 0.0195
vn 0.3663 0.6807 0.6344
vn 0.0159 0.9997 0.0159
vn 0.5180 0.6807 0.5180
vn 0.0195 0.9997 0.0113
vn 0.6344 0.6807 0.3663
vn 0.0218 0.9997 0.0058
vn 0.7076 0.6807 0.1896
vn 0.0225 0.9997 -0.0000
vn 0.7326 0.6807 -0.0000
vn 0.0218 0.9997 -0.0058
vn 0.7076 0.6807 -0.1896
vn 0.0195 0.9997 -0.0113
vn 0.6344 0.6807 -0.3663
vn 0.0159 0.9997 -0.0159
vn 0.5180 0.6807 -0.5180
vn 0.0112 0.9997 -0.0195
vn 0.3663 0.6807 -0.6344
vn 0.0058 0.9997 -0.0218
vn 0.1896 0.6807 -0.7076
vn -0.0000 1.0000 -0.0000
vn -0.0000 -1.0000 -0.0000
vn -0.2636 -0.8497 -0.4566
vn -0.3728 -0.8497 -0.3728
vn -0.0000 -0.4342 -0.9008
vn 0.2331 -0.4342 -0.8701
vn -0.8701 -0.4342 0.2331
vn -0.9008 -0.4342 -0.0000
vn 0.6370 -0.4342 0.6370
vn 0.4504 -0.4342 -0.7801
vn -0.8701 -0.4342 -0.2331
vn 0.4504 -0.4342 0.7801
vn 0.6370 -0.4342 -0.6370
vn -0.7801 -0.4342 -0.4504
vn 0.2331 -0.4342 0.8701
vn -0.0000 -0.4342 0.9008
vn -0.2331 -0.4342 0.8701
vn 0.7801 -0.4342 -0.4504
vn -0.6370 -0.4342 -0.6370
vn -0.4504 -0.4342 0.7801
vn 0.8701 -0.4342 -0.2331
vn -0.4504 -0.4342 -0.7801
vn -0.6370 -0.4342 0.6370
vn 0.9008 -0.4342 -0.0000
vn -0.2331 -0.4342 -0.8701
vn -0.7801 -0.4342 0.4504
vn -0.3728 -0.8497 0.3728
vn -0.2636 -0.8497 0.4566
vn -0.0000 -0.8497 0.5273
vn 0.1365 -0.8497 0.5093
vn 0.5273 -0.8497 -0.0000
vn 0.5093 -0.8497 -0.1365
vn -0.1365 -0.8497 -0.5093
vn -0.4566 -0.8497 0.2636
vn 0.5093 -0.8497 0.1365
vn -0.0000 -0.8497 -0.5273
vn -0.5093 -0.8497 0.1365
vn 0.4566 -0.8497 0.2636
vn 0.1365 -0.8497 -0.5093
vn -0.5273 -0.8497 -0.0000
vn 0.3728 -0.8497 0.3728
vn 0.2636 -0.8497 -0.4566
vn -0.5093 -0.8497 -0.1365
vn 0.2636 -0.8497 0.4566
vn 0.3728 -0.8497 -0.3728
vn -0.4566 -0.8497 -0.2636
vn 0.4566 -0.8497 -0.2636
vn -0.0406 -0.9876 -0.1516
vn -0.0000 -0.9876 -0.1570
vn -0.1365 -0.8497 0.5093
vn 0.1539 0.8040 0.5743
vn -0.0000 0.8040 0.5946
vn 0.2973 0.8040 0.5149
vn 0.4205 0.8040 0.4205
vn 0.5149 0.8040 0.2973
vn 0.5743 0.8040 0.1539
vn 0.5946 0.8040 -0.0000
vn 0.5743 0.8040 -0.1539
vn 0.5149 0.8040 -0.2973
vn 0.4205 0.8040 -0.4205
vn 0.2973 0.8040 -0.5149
vn 0.1539 0.8040 -0.5743
vn -0.0000 0.8040 -0.5946
vn -0.1539 0.8040 -0.5743
vn -0.2973 0.8040 -0.5149
vn -0.4205 0.8040 -0.4205
vn -0.5149 0.8040 -0.2973
vn -0.5743 0.8040 -0.1539
vn -0.5946 0.8040 -0.0000
vn -0.5743 0.8040 0.1539
vn -0.5149 0.8040 0.2973
vn -0.4205 0.8040 0.4205
vn -0.2973 0.8040 0.5149
vn -0.1539 0.8040 0.5743
vn -0.0000 -0.6009 -0.7993
vn 0.2069 -0.6009 -0.7721
vn 0.2034 -0.6182 -0.7593
vn -0.0000 -0.6182 -0.7860
vn 0.3997 -0.6009 -0.6922
vn 0.3930 -0.6182 -0.6807
vn 0.5652 -0.6009 -0.5652
vn 0.5558 -0.6182 -0.5558
vn 0.6922 -0.6009 -0.3997
vn 0.6807 -0.6182 -0.3930
vn 0.7721 -0.6009 -0.2069
vn 0.7593 -0.6182 -0.2034
vn 0.7993 -0.6009 -0.0000
vn 0.7860 -0.6182 -0.0000
vn 0.7721 -0.6009 0.2069
vn 0.7593 -0.6182 0.2034
vn 0.6922 -0.6009 0.3997
vn 0.6807 -0.6182 0.3930
vn 0.5652 -0.6009 0.5652
vn 0.5558 -0.6182 0.5558
vn 0.3997 -0.6009 0.6922
vn 0.3930 -0.6182 0.6807
vn 0.2069 -0.6009 0.7721
vn 0.2034 -0.6182 0.7593
vn -0.0000 -0.6009 0.7993
vn -0.0000 -0.6182 0.7860
vn -0.2069 -0.6009 0.7721
vn -0.2034 -0.6182 0.7593
vn -0.3997 -0.6009 0.6922
vn -0.3930 -0.6182 0.6807
vn -0.5652 -0.6009 0.5652
vn -0.5558 -0.6182 0.5558
vn -0.6922 -0.6009 0.3997
vn -0.6807 -0.6182 0.3930
vn -0.7721 -0.6009 0.2069
vn -0.7593 -0.6182 0.2034
vn -0.7993 -0.6009 -0.0000
vn -0.7860 -0.6182 -0.0000
vn -0.7721 -0.6009 -0.2069
vn -0.7593 -0.6182 -0.2034
vn -0.6922 -0.6009 -0.3997
vn -0.6807 -0.6182 -0.3930
vn -0.5652 -0.6009 -0.5652
vn -0.5558 -0.6182 -0.5558
vn -0.3997 -0.6009 -0.6922
vn -0.3930 -0.6182 -0.6807
vn -0.2069 -0.6009 -0.7721
vn -0.2034 -0.6182 -0.7593
vn 0.0406 -0.9876 -0.1516
vn -0.0000 -0.9444 -0.3287
vn 0.0851 -0.9444 -0.3175
vn 0.0785 -0.9876 -0.1359
vn 0.1643 -0.9444 -0.2846
vn 0.1110 -0.9876 -0.1110
vn 0.2324 -0.9444 -0.2324
vn 0.1359 -0.9876 -0.0785
vn 0.2846 -0.9444 -0.1643
vn 0.1516 -0.9876 -0.0406
vn 0.3175 -0.9444 -0.0851
vn 0.1570 -0.9876 -0.0000
vn 0.3287 -0.9444 -0.0000
vn 0.1516 -0.9876 0.0406
vn 0.3175 -0.9444 0.0851
vn 0.1359 -0.9876 0.0785
vn 0.2846 -0.9444 0.1643
vn 0.1110 -0.9876 0.1110
vn 0.2324 -0.9444 0.2324
vn 0.0785 -0.9876 0.1359
vn 0.1643 -0.9444 0.2846
vn 0.0406 -0.9876 0.1516
vn 0.0851 -0.9444 0.3175
vn -0.0000 -0.9876 0.1570
vn -0.0000 -0.9444 0.3287
vn -0.0406 -0.9876 0.1516
vn -0.0851 -0.9444 0.3175
vn -0.0785 -0.9876 0.1359
vn -0.1643 -0.9444 0.2846
vn -0.1110 -0.9876 0.1110
vn -0.2324 -0.9444 0.2324
vn -0.1359 -0.9876 0.0785
vn -0.2846 -0.9444 0.1643
vn -0.1516 -0.9876 0.0406
vn -0.3175 -0.9444 0.0851
vn -0.1570 -0.9876 -0.0000
vn -0.3287 -0.9444 -0.0000
vn -0.1516 -0.9876 -0.0406
vn -0.3175 -0.9444 -0.0851
vn -0.1359 -0.9876 -0.0785
vn -0.2846 -0.9444 -0.1643
vn -0.1110 -0.9876 -0.1110
vn -0.2324 -0.9444 -0.2324
vn -0.0785 -0.9876 -0.1359
vn -0.1643 -0.9444 -0.2846
vn -0.0851 -0.9444 -0.3175
vn 0.0661 -0.9669 -0.2465
vn -0.0000 -0.9669 -0.2552
vn -0.0000 -0.8925 -0.4510
vn 0.1167 -0.8925 -0.4356
vn 0.1276 -0.9669 -0.2210
vn 0.2255 -0.8925 -0.3905
vn 0.1805 -0.9669 -0.1805
vn 0.3189 -0.8925 -0.3189
vn 0.2210 -0.9669 -0.1276
vn 0.3905 -0.8925 -0.2255
vn 0.2465 -0.9669 -0.0661
vn 0.4356 -0.8925 -0.1167
vn 0.2552 -0.9669 -0.0000
vn 0.4510 -0.8925 -0.0000
vn 0.2465 -0.9669 0.0661
vn 0.4356 -0.8925 0.1167
vn 0.2210 -0.9669 0.1276
vn 0.3905 -0.8925 0.2255
vn 0.1805 -0.9669 0.1805
vn 0.3189 -0.8925 0.3189
vn 0.1276 -0.9669 0.2210
vn 0.2255 -0.8925 0.3905
vn 0.0661 -0.9669 0.2465
vn 0.1167 -0.8925 0.4356
vn -0.0000 -0.9669 0.2552
vn -0.0000 -0.8925 0.4510
vn -0.0661 -0.9669 0.2465
vn -0.1167 -0.8925 0.4356
vn -0.1276 -0.9669 0.2210
vn -0.2255 -0.8925 0.3905
vn -0.1805 -0.9669 0.1805
vn -0.3189 -0.8925 0.3189
vn -0.2210 -0.9669 0.1276
vn -0.3905 -0.8925 0.2255
vn -0.2465 -0.9669 0.0661
vn -0.4356 -0.8925 0.1167
vn -0.2552 -0.9669 -0.0000
vn -0.4510 -0.8925 -0.0000
vn -0.2465 -0.9669 -0.0661
vn -0.4356 -0.8925 -0.1167
vn -0.2210 -0.9669 -0.1276
vn -0.3905 -0.8925 -0.2255
vn -0.1805 -0.9669 -0.1805
vn -0.3189 -0.8925 -0.3189
vn -0.1276 -0.9669 -0.2210
vn -0.2255 -0.8925 -0.3905
vn -0.0661 -0.9669 -0.2465
vn -0.1167 -0.8925 -0.4356
vt 0.420203 0.201910
vt 0.420203 0.142710
vt 0.454752 0.142710
vt 0.454752 0.201910
vt 0.489301 0.142710
vt 0.489301 0.201910
vt 0.523850 0.142710
vt 0.523850 0.201910
vt 0.558399 0.142710
vt 0.558399 0.201910
vt 0.592948 0.142710
vt 0.592948 0.201910
vt 0.627498 0.142710
vt 0.627497 0.201910
vt 0.662047 0.142710
vt 0.662047 0.201910
vt 0.696596 0.142710
vt 0.696596 0.201910
vt 0.731145 0.142710
vt 0.731145 0.201910
vt 0.765694 0.142710
vt 0.765694 0.201910
vt 0.800243 0.142710
vt 0.800243 0.201910
vt 0.834792 0.142710
vt 0.834792 0.201910
vt 0.005613 0.201910
vt 0.005613 0.142710
vt 0.040162 0.142710
vt 0.040162 0.201910
vt 0.074711 0.142710
vt 0.074711 0.201910
vt 0.109260 0.142710
vt 0.109260 0.201910
vt 0.143809 0.142710
vt 0.143809 0.201910
vt 0.178358 0.142710
vt 0.178358 0.201910
vt 0.212908 0.142710
vt 0.212908 0.201910
vt 0.247457 0.142710
vt 0.247457 0.201910
vt 0.282006 0.142710
vt 0.282006 0.201910
vt 0.316555 0.142710
vt 0.316555 0.201910
vt 0.351104 0.142710
vt 0.351104 0.201910
vt 0.504721 0.371379
vt 0.507752 0.347894
vt 0.526075 0.347738
vt 0.522460 0.375972
vt 0.385654 0.142710
vt 0.385654 0.201910
vt 0.459455 0.036300
vt 0.459455 0.032977
vt 0.500714 0.032977
vt 0.500713 0.036300
vt 0.241761 0.072508
vt 0.275496 0.072508
vt 0.275496 0.134905
vt 0.241761 0.134905
vt 0.541972 0.032977
vt 0.541972 0.036300
vt 0.418197 0.036300
vt 0.418197 0.032977
vt 0.376939 0.036300
vt 0.376939 0.032977
vt 0.335681 0.036300
vt 0.335681 0.032977
vt 0.294422 0.036300
vt 0.294422 0.032977
vt 0.253164 0.036300
vt 0.253164 0.032977
vt 0.211906 0.036300
vt 0.211906 0.032977
vt 0.170648 0.036300
vt 0.170648 0.032977
vt 0.129389 0.036300
vt 0.129389 0.032977
vt 0.088131 0.036300
vt 0.088131 0.032977
vt 0.046873 0.036300
vt 0.046873 0.032977
vt 0.005614 0.036300
vt 0.005614 0.032977
vt 0.954555 0.036300
vt 0.954555 0.032977
vt 0.995813 0.032977
vt 0.995813 0.036300
vt 0.913296 0.036300
vt 0.913296 0.032977
vt 0.872038 0.036300
vt 0.872038 0.032977
vt 0.830780 0.036300
vt 0.830780 0.032977
vt 0.789521 0.036300
vt 0.789521 0.032977
vt 0.748263 0.036300
vt 0.748263 0.032977
vt 0.707005 0.036300
vt 0.707005 0.032977
vt 0.665747 0.036300
vt 0.665747 0.032977
vt 0.624488 0.036300
vt 0.624488 0.032977
vt 0.583230 0.036300
vt 0.583230 0.032977
vt 0.547226 0.347703
vt 0.542678 0.314021
vt 0.549205 0.312247
vt 0.553990 0.347679
vt 0.529565 0.282665
vt 0.535410 0.279263
vt 0.508784 0.255774
vt 0.513549 0.250975
vt 0.481750 0.235177
vt 0.485111 0.229308
vt 0.450309 0.222277
vt 0.452036 0.215739
vt 0.416599 0.217952
vt 0.416576 0.211189
vt 0.382919 0.222497
vt 0.381147 0.215970
vt 0.351562 0.235602
vt 0.348161 0.229756
vt 0.324664 0.256375
vt 0.319866 0.251609
vt 0.304058 0.283403
vt 0.298190 0.280040
vt 0.291151 0.314844
vt 0.284612 0.313115
vt 0.286824 0.348555
vt 0.280060 0.348578
vt 0.291372 0.382237
vt 0.284845 0.384010
vt 0.304484 0.413592
vt 0.298640 0.416994
vt 0.325266 0.440484
vt 0.320501 0.445283
vt 0.352299 0.461081
vt 0.348938 0.466949
vt 0.383741 0.473981
vt 0.382013 0.480519
vt 0.417450 0.478306
vt 0.417473 0.485068
vt 0.451130 0.473761
vt 0.452902 0.480288
vt 0.482488 0.460657
vt 0.485888 0.466502
vt 0.509386 0.439883
vt 0.514184 0.444650
vt 0.529992 0.412855
vt 0.535860 0.416218
vt 0.542899 0.381414
vt 0.549438 0.383143
vt 0.522257 0.319530
vt 0.536198 0.315769
vt 0.540514 0.347714
vt 0.511267 0.293274
vt 0.523759 0.286032
vt 0.493854 0.270756
vt 0.504046 0.260528
vt 0.471207 0.253513
vt 0.478405 0.240995
vt 0.444869 0.242716
vt 0.448582 0.228763
vt 0.416634 0.239103
vt 0.416610 0.224664
vt 0.388425 0.242918
vt 0.384667 0.228977
vt 0.362165 0.253903
vt 0.354927 0.241409
vt 0.339642 0.271309
vt 0.329417 0.261114
vt 0.322392 0.293951
vt 0.309876 0.286750
vt 0.311590 0.320286
vt 0.297637 0.316571
vt 0.307975 0.348520
vt 0.293536 0.348544
vt 0.311793 0.376727
vt 0.297852 0.380488
vt 0.322783 0.402984
vt 0.310291 0.410225
vt 0.340195 0.425501
vt 0.330004 0.435729
vt 0.362842 0.442745
vt 0.355645 0.455262
vt 0.389180 0.453541
vt 0.385467 0.467494
vt 0.417415 0.457155
vt 0.417439 0.471594
vt 0.445624 0.453339
vt 0.449383 0.467281
vt 0.471884 0.442355
vt 0.479123 0.454849
vt 0.494408 0.424949
vt 0.504633 0.435144
vt 0.511658 0.402307
vt 0.524174 0.409508
vt 0.536413 0.379687
vt 0.495478 0.302573
vt 0.481010 0.283826
vt 0.462183 0.269461
vt 0.440278 0.260457
vt 0.416790 0.257428
vt 0.393318 0.260579
vt 0.371461 0.269695
vt 0.352708 0.284157
vt 0.338337 0.302979
vt 0.329329 0.324878
vt 0.326298 0.348364
vt 0.329450 0.371832
vt 0.338572 0.393685
vt 0.353039 0.412431
vt 0.371867 0.426796
vt 0.393771 0.435800
vt 0.417259 0.438830
vt 0.440732 0.435679
vt 0.462589 0.426562
vt 0.481342 0.412101
vt 0.495712 0.393279
vt 0.504600 0.324425
vt 0.491729 0.348066
vt 0.489167 0.328740
vt 0.479888 0.331283
vt 0.482108 0.348120
vt 0.475619 0.348130
vt 0.473623 0.332974
vt 0.481688 0.310737
vt 0.473383 0.315596
vt 0.467768 0.318852
vt 0.469802 0.295282
vt 0.463037 0.302126
vt 0.458456 0.306726
vt 0.454320 0.283429
vt 0.449556 0.291791
vt 0.446321 0.297419
vt 0.436298 0.275984
vt 0.433859 0.285294
vt 0.432189 0.291569
vt 0.416962 0.273456
vt 0.417016 0.283079
vt 0.417026 0.289572
vt 0.397631 0.276016
vt 0.400173 0.285298
vt 0.401862 0.291567
vt 0.379621 0.283490
vt 0.384478 0.291798
vt 0.387731 0.297416
vt 0.364160 0.295370
vt 0.371000 0.302137
vt 0.375596 0.306722
vt 0.352301 0.310845
vt 0.360659 0.315611
vt 0.366284 0.318848
vt 0.344852 0.328861
vt 0.354158 0.331300
vt 0.360429 0.332970
vt 0.342321 0.348191
vt 0.351941 0.348138
vt 0.358431 0.348127
vt 0.344883 0.367517
vt 0.354162 0.364974
vt 0.360427 0.363283
vt 0.352362 0.385521
vt 0.360667 0.380661
vt 0.366281 0.377405
vt 0.364248 0.400975
vt 0.371012 0.394131
vt 0.375594 0.389532
vt 0.379729 0.412829
vt 0.384493 0.404467
vt 0.387729 0.398838
vt 0.397752 0.420273
vt 0.400190 0.410963
vt 0.401860 0.404689
vt 0.417087 0.422802
vt 0.417034 0.413178
vt 0.417024 0.406686
vt 0.436419 0.420242
vt 0.433877 0.410959
vt 0.432187 0.404691
vt 0.454428 0.412767
vt 0.449572 0.404459
vt 0.446318 0.398841
vt 0.469890 0.400888
vt 0.463049 0.394120
vt 0.458454 0.389536
vt 0.481749 0.385413
vt 0.473391 0.380647
vt 0.467766 0.377409
vt 0.489198 0.367397
vt 0.479892 0.364958
vt 0.473621 0.363287
vt 0.500713 0.056235
vt 0.541972 0.056235
vt 0.541972 0.059949
vt 0.500713 0.059949
vt 0.541972 0.064697
vt 0.500714 0.064697
vt 0.583230 0.056235
vt 0.583230 0.059949
vt 0.583230 0.064697
vt 0.624488 0.056235
vt 0.624488 0.059949
vt 0.624488 0.064697
vt 0.665747 0.056235
vt 0.665747 0.059949
vt 0.665747 0.064697
vt 0.707005 0.056235
vt 0.707005 0.059949
vt 0.707005 0.064697
vt 0.748263 0.056235
vt 0.748263 0.059949
vt 0.748263 0.064697
vt 0.789521 0.056235
vt 0.789521 0.059949
vt 0.789521 0.064697
vt 0.830780 0.056235
vt 0.830780 0.059949
vt 0.830780 0.064697
vt 0.872038 0.056235
vt 0.872038 0.059949
vt 0.872038 0.064697
vt 0.913296 0.056235
vt 0.913296 0.059949
vt 0.913296 0.064697
vt 0.954555 0.056235
vt 0.954555 0.059949
vt 0.954555 0.064697
vt 0.995813 0.056235
vt 0.995813 0.059949
vt 0.995813 0.064697
vt 0.005614 0.056235
vt 0.046873 0.056235
vt 0.046873 0.059949
vt 0.005614 0.059949
vt 0.046873 0.064697
vt 0.005614 0.064697
vt 0.088131 0.056235
vt 0.088131 0.059949
vt 0.088131 0.064697
vt 0.129389 0.056235
vt 0.129389 0.059949
vt 0.129389 0.064697
vt 0.170648 0.056235
vt 0.170648 0.059949
vt 0.170648 0.064697
vt 0.211906 0.056235
vt 0.211906 0.059949
vt 0.211906 0.064697
vt 0.253164 0.056235
vt 0.253164 0.059949
vt 0.253164 0.064697
vt 0.294422 0.056235
vt 0.294422 0.059949
vt 0.294422 0.064697
vt 0.335681 0.056235
vt 0.335681 0.059949
vt 0.335681 0.064697
vt 0.376939 0.056235
vt 0.376939 0.059949
vt 0.376939 0.064697
vt 0.418197 0.056235
vt 0.418197 0.059949
vt 0.418197 0.064697
vt 0.459455 0.056235
vt 0.459455 0.059949
vt 0.459455 0.064697
vt 0.459455 0.048588
vt 0.500713 0.048588
vt 0.500713 0.052422
vt 0.459455 0.052422
vt 0.418197 0.048588
vt 0.418197 0.052422
vt 0.376939 0.048588
vt 0.376939 0.052422
vt 0.335681 0.048588
vt 0.335681 0.052422
vt 0.294422 0.048588
vt 0.294422 0.052422
vt 0.253164 0.048588
vt 0.253164 0.052422
vt 0.211906 0.048588
vt 0.211906 0.052422
vt 0.170648 0.048588
vt 0.170648 0.052422
vt 0.129389 0.048588
vt 0.129389 0.052422
vt 0.088131 0.048588
vt 0.088131 0.052422
vt 0.046873 0.048588
vt 0.046873 0.052422
vt 0.005614 0.048588
vt 0.005614 0.052422
vt 0.954555 0.048588
vt 0.995813 0.048588
vt 0.995813 0.052422
vt 0.954555 0.052422
vt 0.913296 0.048588
vt 0.913296 0.052422
vt 0.872038 0.048588
vt 0.872038 0.052422
vt 0.830780 0.048588
vt 0.830780 0.052422
vt 0.789521 0.048588
vt 0.789521 0.052422
vt 0.748263 0.048588
vt 0.748263 0.052422
vt 0.707005 0.048588
vt 0.707005 0.052422
vt 0.665747 0.048588
vt 0.665747 0.052422
vt 0.624488 0.048588
vt 0.624488 0.052422
vt 0.583230 0.048588
vt 0.583230 0.052422
vt 0.541972 0.048588
vt 0.541972 0.052422
vt 0.467768 0.348130
vt 0.458456 0.348129
vt 0.446321 0.348129
vt 0.432191 0.348129
vt 0.417024 0.348129
vt 0.401859 0.348129
vt 0.387728 0.348129
vt 0.375594 0.348128
vt 0.366282 0.348128
vt 0.518573 0.025167
vt 0.479114 0.025167
vt 0.479114 0.007401
vt 0.518573 0.007401
vt 0.558031 0.025167
vt 0.558031 0.007401
vt 0.597490 0.025167
vt 0.597490 0.007401
vt 0.636948 0.025167
vt 0.636948 0.007401
vt 0.676407 0.025167
vt 0.676407 0.007401
vt 0.715865 0.025167
vt 0.715865 0.007401
vt 0.755324 0.025167
vt 0.755324 0.007401
vt 0.794782 0.025167
vt 0.794782 0.007401
vt 0.834241 0.025167
vt 0.834241 0.007401
vt 0.873699 0.025167
vt 0.873699 0.007401
vt 0.913158 0.025167
vt 0.913158 0.007401
vt 0.952616 0.025167
vt 0.952616 0.007401
vt 0.045071 0.025167
vt 0.005612 0.025167
vt 0.005612 0.007401
vt 0.045071 0.007401
vt 0.084529 0.025167
vt 0.084529 0.007401
vt 0.123988 0.025167
vt 0.123988 0.007401
vt 0.163446 0.025167
vt 0.163446 0.007401
vt 0.202905 0.025167
vt 0.202905 0.007401
vt 0.242363 0.025167
vt 0.242363 0.007401
vt 0.281822 0.025167
vt 0.281822 0.007401
vt 0.321280 0.025167
vt 0.321280 0.007401
vt 0.360739 0.025167
vt 0.360739 0.007401
vt 0.400197 0.025167
vt 0.400197 0.007401
vt 0.439656 0.025167
vt 0.439656 0.007401
vt 0.198842 0.312116
vt 0.187849 0.297791
vt 0.189401 0.296236
vt 0.200744 0.311016
vt 0.005613 0.072508
vt 0.039348 0.072508
vt 0.039348 0.134905
vt 0.005613 0.134905
vt 0.579115 0.072508
vt 0.612851 0.072508
vt 0.612851 0.134905
vt 0.579115 0.134905
vt 0.309232 0.072508
vt 0.309232 0.134905
vt 0.073083 0.072508
vt 0.073083 0.134905
vt 0.646586 0.072508
vt 0.646586 0.134905
vt 0.342967 0.072508
vt 0.342967 0.134905
vt 0.106819 0.072508
vt 0.106819 0.134905
vt 0.680322 0.072508
vt 0.680322 0.134905
vt 0.376703 0.072508
vt 0.376703 0.134905
vt 0.410438 0.072508
vt 0.444173 0.072508
vt 0.444173 0.134905
vt 0.410438 0.134905
vt 0.140555 0.072508
vt 0.140555 0.134905
vt 0.714057 0.072508
vt 0.714057 0.134905
vt 0.477909 0.072508
vt 0.477909 0.134905
vt 0.174290 0.072508
vt 0.174290 0.134905
vt 0.747792 0.072508
vt 0.747792 0.134905
vt 0.511644 0.072508
vt 0.511644 0.134905
vt 0.208025 0.072508
vt 0.208025 0.134905
vt 0.781528 0.072508
vt 0.781528 0.134905
vt 0.545380 0.072508
vt 0.545380 0.134905
vt 0.815263 0.072508
vt 0.815264 0.134905
vt 0.090026 0.297797
vt 0.079034 0.312122
vt 0.077131 0.311026
vt 0.088471 0.296244
vt 0.069769 0.346707
vt 0.072127 0.364609
vt 0.070006 0.365180
vt 0.067572 0.346709
vt 0.138944 0.415872
vt 0.156846 0.413514
vt 0.157417 0.415636
vt 0.138946 0.418069
vt 0.205753 0.328798
vt 0.207875 0.328227
vt 0.104351 0.286804
vt 0.103251 0.284902
vt 0.121041 0.413516
vt 0.120474 0.415639
vt 0.208111 0.346700
vt 0.210308 0.346698
vt 0.121034 0.279893
vt 0.120463 0.277771
vt 0.104358 0.406607
vt 0.103261 0.408511
vt 0.205755 0.364602
vt 0.207878 0.365169
vt 0.138936 0.277535
vt 0.138934 0.275338
vt 0.090031 0.395616
vt 0.088479 0.397171
vt 0.198846 0.381285
vt 0.200749 0.382382
vt 0.156839 0.279891
vt 0.157406 0.277768
vt 0.079038 0.381291
vt 0.077137 0.382391
vt 0.187854 0.395611
vt 0.189409 0.397163
vt 0.173522 0.286800
vt 0.174619 0.284896
vt 0.173529 0.406604
vt 0.174629 0.408505
vt 0.077449 0.346704
vt 0.079545 0.362618
vt 0.075521 0.363697
vt 0.073284 0.346704
vt 0.072125 0.328805
vt 0.070003 0.328238
vt 0.005645 0.347613
vt 0.009952 0.313083
vt 0.059936 0.325560
vt 0.057156 0.346727
vt 0.023049 0.280844
vt 0.068101 0.305833
vt 0.044043 0.253094
vt 0.081093 0.288891
vt 0.071505 0.231723
vt 0.098027 0.275890
vt 0.103563 0.218187
vt 0.117750 0.267714
vt 0.138031 0.213410
vt 0.138916 0.264921
vt 0.172561 0.217717
vt 0.160085 0.267702
vt 0.204800 0.230813
vt 0.179812 0.275866
vt 0.232551 0.251808
vt 0.196754 0.288858
vt 0.253922 0.279269
vt 0.209756 0.305792
vt 0.267458 0.311326
vt 0.217932 0.325514
vt 0.272235 0.345794
vt 0.220725 0.346680
vt 0.267929 0.380324
vt 0.217944 0.367848
vt 0.254832 0.412563
vt 0.209779 0.387575
vt 0.233837 0.440314
vt 0.196787 0.404516
vt 0.206375 0.461685
vt 0.179853 0.417518
vt 0.174317 0.475220
vt 0.160130 0.425694
vt 0.139849 0.479997
vt 0.138964 0.428486
vt 0.105319 0.475691
vt 0.117795 0.425706
vt 0.073080 0.462594
vt 0.098068 0.417541
vt 0.045329 0.441599
vt 0.081126 0.404549
vt 0.023958 0.414138
vt 0.068124 0.387615
vt 0.010423 0.382081
vt 0.059948 0.367893
vt 0.075521 0.329712
vt 0.082080 0.313877
vt 0.092514 0.300280
vt 0.106111 0.289846
vt 0.121946 0.283287
vt 0.138939 0.281050
vt 0.155932 0.283287
vt 0.171768 0.289845
vt 0.185366 0.300279
vt 0.195800 0.313876
vt 0.202359 0.329710
vt 0.204596 0.346703
vt 0.202360 0.363695
vt 0.195801 0.379530
vt 0.185367 0.393127
vt 0.171769 0.403561
vt 0.155934 0.410120
vt 0.138941 0.412357
vt 0.121948 0.410121
vt 0.106113 0.403562
vt 0.092515 0.393128
vt 0.082080 0.379531
vt 0.062397 0.346711
vt 0.065003 0.326900
vt 0.072648 0.308439
vt 0.084811 0.292586
vt 0.100662 0.280421
vt 0.119122 0.272773
vt 0.138933 0.270163
vt 0.158744 0.272769
vt 0.177205 0.280414
vt 0.193059 0.292576
vt 0.205225 0.308427
vt 0.212873 0.326886
vt 0.215483 0.346696
vt 0.212877 0.366507
vt 0.205232 0.384968
vt 0.193069 0.400821
vt 0.177218 0.412986
vt 0.158758 0.420634
vt 0.138947 0.423245
vt 0.119136 0.420638
vt 0.100675 0.412993
vt 0.084821 0.400831
vt 0.072656 0.384980
vt 0.065007 0.366521
vt 0.085688 0.377448
vt 0.095459 0.390182
vt 0.108195 0.399954
vt 0.123025 0.406097
vt 0.138940 0.408192
vt 0.154855 0.406097
vt 0.169685 0.399954
vt 0.182421 0.390182
vt 0.192193 0.377448
vt 0.198336 0.362618
vt 0.200431 0.346704
vt 0.198336 0.330789
vt 0.192193 0.315959
vt 0.182421 0.303225
vt 0.169685 0.293453
vt 0.154855 0.287310
vt 0.138940 0.285215
vt 0.123025 0.287310
vt 0.108195 0.293453
vt 0.095460 0.303225
vt 0.085688 0.315959
vt 0.079545 0.330789
vt 0.085688 0.346704
vt 0.095626 0.346704
vt 0.108312 0.346704
vt 0.123025 0.346704
vt 0.138939 0.346704
vt 0.154856 0.346704
vt 0.169569 0.346704
vt 0.182255 0.346704
vt 0.191989 0.346704
s 1
f 1/1/1 26/2/1 25/3/2 2/4/2
f 2/4/2 25/3/2 27/5/3 3/6/3
f 3/6/3 27/5/3 28/7/4 4/8/4
f 4/8/4 28/7/4 29/9/5 5/10/5
f 5/10/5 29/9/5 30/11/6 6/12/6
f 6/12/6 30/11/6 31/13/7 7/14/7
f 7/14/7 31/13/7 32/15/8 8/16/8
f 8/16/8 32/15/8 33/17/9 9/18/9
f 9/18/9 33/17/9 34/19/10 10/20/10
f 10/20/10 34/19/10 35/21/11 11/22/11
f 11/22/11 35/21/11 36/23/12 12/24/12
f 12/24/12 36/23/12 37/25/13 13/26/13
f 13/27/13 37/28/13 38/29/14 14/30/14
f 14/30/14 38/29/14 39/31/15 15/32/15
f 15/32/15 39/31/15 40/33/16 16/34/16
f 16/34/16 40/33/16 41/35/17 17/36/17
f 17/36/17 41/35/17 42/37/18 18/38/18
f 18/38/18 42/37/18 43/39/19 19/40/19
f 19/40/19 43/39/19 44/41/20 20/42/20
f 20/42/20 44/41/20 45/43/21 21/44/21
f 21/44/21 45/43/21 46/45/22 22/46/22
f 22/46/22 46/45/22 47/47/23 23/48/23
f 167/49/24 97/50/25 74/51/26 96/52/27
f 23/48/23 47/47/23 48/53/28 24/54/28
f 24/54/28 48/53/28 26/2/1 1/1/1
f 289/55/29 24/56/30 1/57/31 290/58/32
f 226/59/33 229/60/34 390/61/34 389/62/33
f 290/58/32 1/57/31 2/63/35 291/64/36
f 312/65/37 23/66/38 24/56/30 289/55/29
f 311/67/39 22/68/40 23/66/38 312/65/37
f 310/69/41 21/70/42 22/68/40 311/67/39
f 309/71/43 20/72/44 21/70/42 310/69/41
f 308/73/45 19/74/46 20/72/44 309/71/43
f 307/75/47 18/76/48 19/74/46 308/73/45
f 306/77/49 17/78/50 18/76/48 307/75/47
f 305/79/51 16/80/52 17/78/50 306/77/49
f 304/81/53 15/82/54 16/80/52 305/79/51
f 303/83/55 14/84/56 15/82/54 304/81/53
f 302/85/57 13/86/58 14/84/56 303/83/55
f 301/87/59 12/88/60 13/89/58 302/90/57
f 300/91/61 11/92/62 12/88/60 301/87/59
f 299/93/63 10/94/64 11/92/62 300/91/61
f 298/95/65 9/96/66 10/94/64 299/93/63
f 297/97/67 8/98/68 9/96/66 298/95/65
f 296/99/69 7/100/70 8/98/68 297/97/67
f 295/101/71 6/102/72 7/100/70 296/99/69
f 294/103/73 5/104/74 6/102/72 295/101/71
f 293/105/75 4/106/76 5/104/74 294/103/73
f 292/107/77 3/108/78 4/106/76 293/105/75
f 291/64/36 2/63/35 3/108/78 292/107/77
f 322/109/79 323/110/80 25/111/81 26/112/82
f 323/110/80 324/113/83 27/114/84 25/111/81
f 324/113/83 325/115/85 28/116/86 27/114/84
f 325/115/85 326/117/87 29/118/88 28/116/86
f 326/117/87 327/119/89 30/120/90 29/118/88
f 327/119/89 328/121/91 31/122/92 30/120/90
f 328/121/91 329/123/93 32/124/94 31/122/92
f 329/123/93 330/125/95 33/126/96 32/124/94
f 330/125/95 331/127/97 34/128/98 33/126/96
f 331/127/97 332/129/99 35/130/100 34/128/98
f 332/129/99 333/131/101 36/132/102 35/130/100
f 333/131/101 334/133/103 37/134/104 36/132/102
f 334/133/103 335/135/105 38/136/106 37/134/104
f 335/135/105 336/137/107 39/138/108 38/136/106
f 336/137/107 337/139/109 40/140/110 39/138/108
f 337/139/109 338/141/111 41/142/112 40/140/110
f 338/141/111 339/143/113 42/144/114 41/142/112
f 339/143/113 340/145/115 43/146/116 42/144/114
f 340/145/115 341/147/117 44/148/118 43/146/116
f 341/147/117 342/149/119 45/150/120 44/148/118
f 342/149/119 343/151/121 46/152/122 45/150/120
f 343/151/121 344/153/123 47/154/124 46/152/122
f 344/153/123 345/155/125 48/156/126 47/154/124
f 345/155/125 322/109/79 26/112/82 48/156/126
f 74/51/26 73/157/127 49/158/128 50/159/129
f 73/157/127 75/160/130 51/161/131 49/158/128
f 75/160/130 76/162/132 52/163/133 51/161/131
f 76/162/132 77/164/134 53/165/135 52/163/133
f 77/164/134 78/166/136 54/167/137 53/165/135
f 78/166/136 79/168/138 55/169/139 54/167/137
f 79/168/138 80/170/140 56/171/141 55/169/139
f 80/170/140 81/172/142 57/173/143 56/171/141
f 81/172/142 82/174/144 58/175/145 57/173/143
f 82/174/144 83/176/146 59/177/147 58/175/145
f 83/176/146 84/178/148 60/179/149 59/177/147
f 84/178/148 85/180/150 61/181/151 60/179/149
f 85/180/150 86/182/152 62/183/153 61/181/151
f 86/182/152 87/184/154 63/185/155 62/183/153
f 87/184/154 88/186/156 64/187/157 63/185/155
f 88/186/156 89/188/158 65/189/159 64/187/157
f 89/188/158 90/190/160 66/191/161 65/189/159
f 90/190/160 91/192/162 67/193/163 66/191/161
f 91/192/162 92/194/164 68/195/165 67/193/163
f 92/194/164 93/196/166 69/197/167 68/195/165
f 93/196/166 94/198/168 70/199/169 69/197/167
f 94/198/168 95/200/170 71/201/171 70/199/169
f 95/200/170 96/52/27 72/202/172 71/201/171
f 96/52/27 74/51/26 50/159/129 72/202/172
f 104/203/173 107/204/174 76/162/132 75/160/130
f 107/204/174 110/205/175 77/164/134 76/162/132
f 110/205/175 113/206/176 78/166/136 77/164/134
f 113/206/176 116/207/177 79/168/138 78/166/136
f 116/207/177 119/208/178 80/170/140 79/168/138
f 119/208/178 122/209/179 81/172/142 80/170/140
f 122/209/179 125/210/180 82/174/144 81/172/142
f 125/210/180 128/211/181 83/176/146 82/174/144
f 128/211/181 131/212/182 84/178/148 83/176/146
f 131/212/182 134/213/183 85/180/150 84/178/148
f 134/213/183 137/214/184 86/182/152 85/180/150
f 137/214/184 140/215/185 87/184/154 86/182/152
f 140/215/185 143/216/186 88/186/156 87/184/154
f 143/216/186 146/217/187 89/188/158 88/186/156
f 146/217/187 149/218/188 90/190/160 89/188/158
f 149/218/188 152/219/189 91/192/162 90/190/160
f 152/219/189 155/220/190 92/194/164 91/192/162
f 155/220/190 158/221/191 93/196/166 92/194/164
f 158/221/191 161/222/192 94/198/168 93/196/166
f 161/222/192 164/223/193 95/200/170 94/198/168
f 164/223/193 167/49/24 96/52/27 95/200/170
f 101/224/194 104/203/173 75/160/130 73/157/127
f 101/224/194 97/50/25 99/225/195 102/226/196
f 418/227/197 419/228/198 98/229/199 100/230/200
f 104/203/173 101/224/194 102/226/196 105/231/201
f 420/232/202 418/227/197 100/230/200 103/233/203
f 107/204/174 104/203/173 105/231/201 108/234/204
f 421/235/205 420/232/202 103/233/203 106/236/206
f 110/205/175 107/204/174 108/234/204 111/237/207
f 422/238/208 421/235/205 106/236/206 109/239/209
f 113/206/176 110/205/175 111/237/207 114/240/210
f 423/241/211 422/238/208 109/239/209 112/242/212
f 116/207/177 113/206/176 114/240/210 117/243/213
f 424/244/214 423/241/211 112/242/212 115/245/215
f 119/208/178 116/207/177 117/243/213 120/246/216
f 425/247/217 424/244/214 115/245/215 118/248/218
f 122/209/179 119/208/178 120/246/216 123/249/219
f 426/250/220 425/247/217 118/248/218 121/251/221
f 125/210/180 122/209/179 123/249/219 126/252/222
f 427/253/223 426/250/220 121/251/221 124/254/224
f 128/211/181 125/210/180 126/252/222 129/255/225
f 428/256/226 427/253/223 124/254/224 127/257/227
f 131/212/182 128/211/181 129/255/225 132/258/228
f 429/259/229 428/256/226 127/257/227 130/260/230
f 134/213/183 131/212/182 132/258/228 135/261/231
f 430/262/232 429/259/229 130/260/230 133/263/233
f 137/214/184 134/213/183 135/261/231 138/264/234
f 431/265/235 430/262/232 133/263/233 136/266/236
f 140/215/185 137/214/184 138/264/234 141/267/237
f 432/268/238 431/265/235 136/266/236 139/269/239
f 143/216/186 140/215/185 141/267/237 144/270/240
f 433/271/241 432/268/238 139/269/239 142/272/242
f 146/217/187 143/216/186 144/270/240 147/273/243
f 434/274/244 433/271/241 142/272/242 145/275/245
f 149/218/188 146/217/187 147/273/243 150/276/246
f 435/277/247 434/274/244 145/275/245 148/278/248
f 152/219/189 149/218/188 150/276/246 153/279/249
f 436/280/250 435/277/247 148/278/248 151/281/251
f 155/220/190 152/219/189 153/279/249 156/282/252
f 437/283/253 436/280/250 151/281/251 154/284/254
f 158/221/191 155/220/190 156/282/252 159/285/255
f 438/286/256 437/283/253 154/284/254 157/287/257
f 161/222/192 158/221/191 159/285/255 162/288/258
f 439/289/259 438/286/256 157/287/257 160/290/260
f 164/223/193 161/222/192 162/288/258 165/291/261
f 440/292/262 439/289/259 160/290/260 163/293/263
f 167/49/24 164/223/193 165/291/261 168/294/264
f 441/295/265 440/292/262 163/293/263 166/296/266
f 97/50/25 167/49/24 168/294/264 99/225/195
f 419/228/198 441/295/265 166/296/266 98/229/199
f 97/50/25 101/224/194 73/157/127 74/51/26
f 170/297/267 173/298/268 174/299/269 171/300/270
f 171/300/270 174/299/269 346/301/271 347/302/272
f 173/298/268 176/303/273 177/304/274 174/299/269
f 174/299/269 177/304/274 348/305/275 346/301/271
f 176/303/273 179/306/276 180/307/277 177/304/274
f 177/304/274 180/307/277 349/308/278 348/305/275
f 179/306/276 182/309/279 183/310/280 180/307/277
f 180/307/277 183/310/280 350/311/281 349/308/278
f 182/309/279 185/312/282 186/313/283 183/310/280
f 183/310/280 186/313/283 351/314/284 350/311/281
f 185/312/282 188/315/285 189/316/286 186/313/283
f 186/313/283 189/316/286 352/317/287 351/314/284
f 188/315/285 191/318/288 192/319/289 189/316/286
f 189/316/286 192/319/289 353/320/290 352/317/287
f 191/318/288 194/321/291 195/322/292 192/319/289
f 192/319/289 195/322/292 354/323/293 353/320/290
f 194/321/291 197/324/294 198/325/295 195/322/292
f 195/322/292 198/325/295 355/326/296 354/323/293
f 197/324/294 200/327/297 201/328/298 198/325/295
f 198/325/295 201/328/298 356/329/299 355/326/296
f 200/327/297 203/330/300 204/331/301 201/328/298
f 201/328/298 204/331/301 357/332/302 356/329/299
f 203/330/300 206/333/303 207/334/304 204/331/301
f 204/331/301 207/334/304 358/335/305 357/332/302
f 206/336/303 209/337/306 210/338/307 207/339/304
f 207/339/304 210/338/307 359/340/308 358/341/305
f 209/337/306 212/342/309 213/343/310 210/338/307
f 210/338/307 213/343/310 360/344/311 359/340/308
f 212/342/309 215/345/312 216/346/313 213/343/310
f 213/343/310 216/346/313 361/347/314 360/344/311
f 215/345/312 218/348/315 219/349/316 216/346/313
f 216/346/313 219/349/316 362/350/317 361/347/314
f 218/348/315 221/351/318 222/352/319 219/349/316
f 219/349/316 222/352/319 363/353/320 362/350/317
f 221/351/318 224/354/321 225/355/322 222/352/319
f 222/352/319 225/355/322 364/356/323 363/353/320
f 224/354/321 227/357/324 228/358/325 225/355/322
f 225/355/322 228/358/325 365/359/326 364/356/323
f 227/357/324 230/360/327 231/361/328 228/358/325
f 228/358/325 231/361/328 366/362/329 365/359/326
f 230/360/327 233/363/330 234/364/331 231/361/328
f 231/361/328 234/364/331 367/365/332 366/362/329
f 233/363/330 236/366/333 237/367/334 234/364/331
f 234/364/331 237/367/334 368/368/335 367/365/332
f 236/366/333 239/369/336 240/370/337 237/367/334
f 237/367/334 240/370/337 369/371/338 368/368/335
f 239/369/336 170/297/267 171/300/270 240/370/337
f 240/370/337 171/300/270 347/302/272 369/371/338
f 287/372/339 241/373/340 242/374/341 288/375/342
f 288/375/342 242/374/341 170/297/267 239/369/336
f 285/376/343 287/372/339 288/375/342 286/377/344
f 286/377/344 288/375/342 239/369/336 236/366/333
f 283/378/345 285/376/343 286/377/344 284/379/346
f 284/379/346 286/377/344 236/366/333 233/363/330
f 281/380/347 283/378/345 284/379/346 282/381/348
f 282/381/348 284/379/346 233/363/330 230/360/327
f 279/382/349 281/380/347 282/381/348 280/383/350
f 280/383/350 282/381/348 230/360/327 227/357/324
f 277/384/351 279/382/349 280/383/350 278/385/352
f 278/385/352 280/383/350 227/357/324 224/354/321
f 275/386/353 277/384/351 278/385/352 276/387/354
f 276/387/354 278/385/352 224/354/321 221/351/318
f 273/388/355 275/386/353 276/387/354 274/389/356
f 274/389/356 276/387/354 221/351/318 218/348/315
f 271/390/357 273/388/355 274/389/356 272/391/358
f 272/391/358 274/389/356 218/348/315 215/345/312
f 269/392/359 271/390/357 272/391/358 270/393/360
f 270/393/360 272/391/358 215/345/312 212/342/309
f 267/394/361 269/392/359 270/393/360 268/395/362
f 268/395/362 270/393/360 212/342/309 209/337/306
f 265/396/363 267/394/361 268/395/362 266/397/364
f 266/397/364 268/395/362 209/337/306 206/336/303
f 263/398/365 265/399/363 266/400/364 264/401/366
f 264/401/366 266/400/364 206/333/303 203/330/300
f 261/402/367 263/398/365 264/401/366 262/403/368
f 262/403/368 264/401/366 203/330/300 200/327/297
f 259/404/369 261/402/367 262/403/368 260/405/370
f 260/405/370 262/403/368 200/327/297 197/324/294
f 257/406/371 259/404/369 260/405/370 258/407/372
f 258/407/372 260/405/370 197/324/294 194/321/291
f 255/408/373 257/406/371 258/407/372 256/409/374
f 256/409/374 258/407/372 194/321/291 191/318/288
f 253/410/375 255/408/373 256/409/374 254/411/376
f 254/411/376 256/409/374 191/318/288 188/315/285
f 251/412/377 253/410/375 254/411/376 252/413/378
f 252/413/378 254/411/376 188/315/285 185/312/282
f 249/414/379 251/412/377 252/413/378 250/415/380
f 250/415/380 252/413/378 185/312/282 182/309/279
f 247/416/381 249/414/379 250/415/380 248/417/382
f 248/417/382 250/415/380 182/309/279 179/306/276
f 245/418/383 247/416/381 248/417/382 246/419/384
f 246/419/384 248/417/382 179/306/276 176/303/273
f 243/420/385 245/418/383 246/419/384 244/421/386
f 244/421/386 246/419/384 176/303/273 173/298/268
f 241/373/340 243/420/385 244/421/386 242/374/341
f 242/374/341 244/421/386 173/298/268 170/297/267
f 243/420/385 291/64/36 292/107/77 245/418/383
f 245/418/383 292/107/77 293/105/75 247/416/381
f 247/416/381 293/105/75 294/103/73 249/414/379
f 249/414/379 294/103/73 295/101/71 251/412/377
f 251/412/377 295/101/71 296/99/69 253/410/375
f 253/410/375 296/99/69 297/97/67 255/408/373
f 255/408/373 297/97/67 298/95/65 257/406/371
f 257/406/371 298/95/65 299/93/63 259/404/369
f 259/404/369 299/93/63 300/91/61 261/402/367
f 261/402/367 300/91/61 301/87/59 263/398/365
f 263/398/365 301/87/59 302/90/57 265/399/363
f 265/396/363 302/85/57 303/83/55 267/394/361
f 267/394/361 303/83/55 304/81/53 269/392/359
f 269/392/359 304/81/53 305/79/51 271/390/357
f 271/390/357 305/79/51 306/77/49 273/388/355
f 273/388/355 306/77/49 307/75/47 275/386/353
f 275/386/353 307/75/47 308/73/45 277/384/351
f 277/384/351 308/73/45 309/71/43 279/382/349
f 279/382/349 309/71/43 310/69/41 281/380/347
f 281/380/347 310/69/41 311/67/39 283/378/345
f 283/378/345 311/67/39 312/65/37 285/376/343
f 285/376/343 312/65/37 289/55/29 287/372/339
f 241/373/340 290/58/32 291/64/36 243/420/385
f 287/372/339 289/55/29 290/58/32 241/373/340
f 98/229/199 313/422/387 103/233/203 100/230/200
f 313/422/387 314/423/387 106/236/206 103/233/203
f 314/423/387 315/424/387 109/239/209 106/236/206
f 315/424/387 316/425/387 112/242/212 109/239/209
f 316/425/387 317/426/387 115/245/215 112/242/212
f 317/426/387 318/427/387 118/248/218 115/245/215
f 318/427/387 319/428/387 121/251/221 118/248/218
f 319/428/387 320/429/387 124/254/224 121/251/221
f 320/429/387 321/430/387 127/257/227 124/254/224
f 321/430/387 133/263/233 130/260/230 127/257/227
f 166/296/266 163/293/263 313/422/387 98/229/199
f 163/293/263 160/290/260 314/423/387 313/422/387
f 160/290/260 157/287/257 315/424/387 314/423/387
f 157/287/257 154/284/254 316/425/387 315/424/387
f 154/284/254 151/281/251 317/426/387 316/425/387
f 151/281/251 148/278/248 318/427/387 317/426/387
f 148/278/248 145/275/245 319/428/387 318/427/387
f 145/275/245 142/272/242 320/429/387 319/428/387
f 142/272/242 139/269/239 321/430/387 320/429/387
f 139/269/239 136/266/236 133/263/233 321/430/387
f 72/202/172 50/159/129 322/109/79 345/155/125
f 71/201/171 72/202/172 345/155/125 344/153/123
f 70/199/169 71/201/171 344/153/123 343/151/121
f 69/197/167 70/199/169 343/151/121 342/149/119
f 68/195/165 69/197/167 342/149/119 341/147/117
f 67/193/163 68/195/165 341/147/117 340/145/115
f 66/191/161 67/193/163 340/145/115 339/143/113
f 65/189/159 66/191/161 339/143/113 338/141/111
f 64/187/157 65/189/159 338/141/111 337/139/109
f 63/185/155 64/187/157 337/139/109 336/137/107
f 62/183/153 63/185/155 336/137/107 335/135/105
f 61/181/151 62/183/153 335/135/105 334/133/103
f 60/179/149 61/181/151 334/133/103 333/131/101
f 59/177/147 60/179/149 333/131/101 332/129/99
f 58/175/145 59/177/147 332/129/99 331/127/97
f 57/173/143 58/175/145 331/127/97 330/125/95
f 56/171/141 57/173/143 330/125/95 329/123/93
f 55/169/139 56/171/141 329/123/93 328/121/91
f 54/167/137 55/169/139 328/121/91 327/119/89
f 53/165/135 54/167/137 327/119/89 326/117/87
f 52/163/133 53/165/135 326/117/87 325/115/85
f 51/161/131 52/163/133 325/115/85 324/113/83
f 49/158/128 51/161/131 324/113/83 323/110/80
f 50/159/129 49/158/128 323/110/80 322/109/79
f 172/431/388 169/432/388 347/433/272 346/434/271
f 175/435/388 172/431/388 346/434/271 348/436/275
f 178/437/388 175/435/388 348/436/275 349/438/278
f 181/439/388 178/437/388 349/438/278 350/440/281
f 184/441/388 181/439/388 350/440/281 351/442/284
f 187/443/388 184/441/388 351/442/284 352/444/287
f 190/445/388 187/443/388 352/444/287 353/446/290
f 193/447/388 190/445/388 353/446/290 354/448/293
f 196/449/388 193/447/388 354/448/293 355/450/296
f 199/451/388 196/449/388 355/450/296 356/452/299
f 202/453/388 199/451/388 356/452/299 357/454/302
f 205/455/388 202/453/388 357/454/302 358/456/305
f 208/457/388 205/458/388 358/459/305 359/460/308
f 211/461/388 208/457/388 359/460/308 360/462/311
f 214/463/388 211/461/388 360/462/311 361/464/314
f 217/465/388 214/463/388 361/464/314 362/466/317
f 220/467/388 217/465/388 362/466/317 363/468/320
f 223/469/388 220/467/388 363/468/320 364/470/323
f 226/471/388 223/469/388 364/470/323 365/472/326
f 229/473/388 226/471/388 365/472/326 366/474/329
f 232/475/388 229/473/388 366/474/329 367/476/332
f 235/477/388 232/475/388 367/476/332 368/478/335
f 238/479/388 235/477/388 368/478/335 369/480/338
f 169/432/388 238/479/388 369/480/338 347/433/272
f 476/481/389 475/482/390 518/483/390 521/484/389
f 205/485/391 208/486/392 383/487/392 382/488/391
f 184/489/393 187/490/394 376/491/394 375/492/393
f 229/60/34 232/493/395 391/494/395 390/61/34
f 208/486/392 211/495/396 384/496/396 383/487/392
f 187/490/394 190/497/397 377/498/397 376/491/394
f 232/493/395 235/499/398 392/500/398 391/494/395
f 211/495/396 214/501/399 385/502/399 384/496/396
f 190/497/397 193/503/400 378/504/400 377/498/397
f 235/499/398 238/505/401 393/506/401 392/500/398
f 169/507/402 172/508/403 370/509/403 371/510/402
f 214/501/399 217/511/404 386/512/404 385/502/399
f 193/503/400 196/513/405 379/514/405 378/504/400
f 238/505/401 169/507/402 371/510/402 393/506/401
f 172/508/403 175/515/406 372/516/406 370/509/403
f 217/511/404 220/517/407 387/518/407 386/512/404
f 196/513/405 199/519/408 380/520/408 379/514/405
f 175/515/406 178/521/409 373/522/409 372/516/406
f 220/517/407 223/523/410 388/524/410 387/518/407
f 199/519/408 202/525/411 381/526/411 380/520/408
f 178/521/409 181/527/412 374/528/412 373/522/409
f 223/523/410 226/59/33 389/62/33 388/524/410
f 202/525/411 205/529/391 382/530/391 381/526/411
f 181/527/412 184/489/393 375/492/393 374/528/412
f 469/531/413 468/532/414 497/533/414 500/534/413
f 467/535/415 489/536/416 560/537/416 493/538/415
f 484/539/417 483/540/418 542/541/418 545/542/417
f 477/543/419 476/481/389 521/484/389 524/544/419
f 470/545/420 469/531/413 500/534/413 503/546/420
f 485/547/421 484/539/417 545/542/417 548/548/421
f 478/549/422 477/543/419 524/544/419 527/550/422
f 471/551/423 470/545/420 503/546/420 506/552/423
f 486/553/424 485/547/421 548/548/421 551/554/424
f 479/555/425 478/549/422 527/550/422 530/556/425
f 472/557/426 471/551/423 506/552/423 509/558/426
f 487/559/427 486/553/424 551/554/424 554/560/427
f 480/561/428 479/555/425 530/556/425 533/562/428
f 473/563/429 472/557/426 509/558/426 512/564/429
f 488/565/430 487/559/427 554/560/427 557/566/430
f 481/567/431 480/561/428 533/562/428 536/568/431
f 474/569/432 473/563/429 512/564/429 515/570/432
f 489/536/416 488/565/430 557/566/430 560/537/416
f 482/571/433 481/567/431 536/568/431 539/572/433
f 475/482/390 474/569/432 515/570/432 518/483/390
f 395/573/388 417/574/388 442/575/434 464/576/435
f 468/532/414 466/577/436 491/578/436 497/533/414
f 483/540/418 482/571/433 539/572/433 542/541/418
f 99/225/195 168/294/264 441/295/437 419/228/438
f 168/294/264 165/291/261 440/292/439 441/295/437
f 165/291/261 162/288/258 439/289/440 440/292/439
f 162/288/258 159/285/255 438/286/441 439/289/440
f 159/285/255 156/282/252 437/283/442 438/286/441
f 156/282/252 153/279/249 436/280/443 437/283/442
f 153/279/249 150/276/246 435/277/444 436/280/443
f 150/276/246 147/273/243 434/274/445 435/277/444
f 147/273/243 144/270/240 433/271/446 434/274/445
f 144/270/240 141/267/237 432/268/447 433/271/446
f 141/267/237 138/264/234 431/265/448 432/268/447
f 138/264/234 135/261/231 430/262/449 431/265/448
f 135/261/231 132/258/228 429/259/450 430/262/449
f 132/258/228 129/255/225 428/256/451 429/259/450
f 129/255/225 126/252/222 427/253/452 428/256/451
f 126/252/222 123/249/219 426/250/453 427/253/452
f 123/249/219 120/246/216 425/247/454 426/250/453
f 120/246/216 117/243/213 424/244/455 425/247/454
f 117/243/213 114/240/210 423/241/456 424/244/455
f 114/240/210 111/237/207 422/238/457 423/241/456
f 111/237/207 108/234/204 421/235/458 422/238/457
f 108/234/204 105/231/201 420/232/459 421/235/458
f 105/231/201 102/226/196 418/227/460 420/232/459
f 102/226/196 99/225/195 419/228/438 418/227/460
f 371/579/461 370/580/462 490/581/463 494/582/464
f 370/580/462 372/583/465 496/584/466 490/581/463
f 372/583/465 373/585/467 499/586/468 496/584/466
f 373/585/467 374/587/469 502/588/470 499/586/468
f 374/587/469 375/589/471 505/590/472 502/588/470
f 375/589/471 376/591/473 508/592/474 505/590/472
f 376/591/473 377/593/475 511/594/476 508/592/474
f 377/593/475 378/595/477 514/596/478 511/594/476
f 378/595/477 379/597/479 517/598/480 514/596/478
f 379/597/479 380/599/481 520/600/482 517/598/480
f 380/599/481 381/601/483 523/602/484 520/600/482
f 381/601/483 382/603/485 526/604/486 523/602/484
f 382/603/485 383/605/487 529/606/488 526/604/486
f 383/605/487 384/607/489 532/608/490 529/606/488
f 384/607/489 385/609/491 535/610/492 532/608/490
f 385/609/491 386/611/493 538/612/494 535/610/492
f 386/611/493 387/613/495 541/614/496 538/612/494
f 387/613/495 388/615/497 544/616/498 541/614/496
f 388/615/497 389/617/499 547/618/500 544/616/498
f 389/617/499 390/619/501 550/620/502 547/618/500
f 390/619/501 391/621/503 553/622/504 550/620/502
f 391/621/503 392/623/505 556/624/506 553/622/504
f 392/623/505 393/625/507 559/626/508 556/624/506
f 393/625/507 371/579/461 494/582/464 559/626/508
f 465/627/509 464/576/435 467/535/510 466/577/511
f 463/628/512 465/627/509 466/577/511 468/532/513
f 462/629/514 463/628/512 468/532/513 469/531/515
f 461/630/516 462/629/514 469/531/515 470/545/517
f 460/631/518 461/630/516 470/545/517 471/551/519
f 459/632/520 460/631/518 471/551/519 472/557/521
f 458/633/522 459/632/520 472/557/521 473/563/523
f 457/634/524 458/633/522 473/563/523 474/569/525
f 456/635/526 457/634/524 474/569/525 475/482/527
f 455/636/528 456/635/526 475/482/527 476/481/529
f 454/637/530 455/636/528 476/481/529 477/543/531
f 453/638/532 454/637/530 477/543/531 478/549/533
f 452/639/534 453/638/532 478/549/533 479/555/535
f 451/640/536 452/639/534 479/555/535 480/561/537
f 450/641/538 451/640/536 480/561/537 481/567/539
f 449/642/540 450/641/538 481/567/539 482/571/541
f 448/643/542 449/642/540 482/571/541 483/540/543
f 447/644/544 448/643/542 483/540/543 484/539/545
f 446/645/546 447/644/544 484/539/545 485/547/547
f 445/646/548 446/645/546 485/547/547 486/553/549
f 444/647/550 445/646/548 486/553/549 487/559/551
f 443/648/552 444/647/550 487/559/551 488/565/553
f 442/575/434 443/648/552 488/565/553 489/536/554
f 464/576/435 442/575/434 489/536/554 467/535/510
f 491/578/555 493/538/556 495/649/557 492/650/558
f 492/650/558 495/649/557 494/582/464 490/581/463
f 497/533/559 491/578/555 492/650/558 498/651/560
f 498/651/560 492/650/558 490/581/463 496/584/466
f 500/534/561 497/533/559 498/651/560 501/652/562
f 501/652/562 498/651/560 496/584/466 499/586/468
f 503/546/563 500/534/561 501/652/562 504/653/564
f 504/653/564 501/652/562 499/586/468 502/588/470
f 506/552/565 503/546/563 504/653/564 507/654/566
f 507/654/566 504/653/564 502/588/470 505/590/472
f 509/558/567 506/552/565 507/654/566 510/655/568
f 510/655/568 507/654/566 505/590/472 508/592/474
f 512/564/569 509/558/567 510/655/568 513/656/570
f 513/656/570 510/655/568 508/592/474 511/594/476
f 515/570/571 512/564/569 513/656/570 516/657/572
f 516/657/572 513/656/570 511/594/476 514/596/478
f 518/483/573 515/570/571 516/657/572 519/658/574
f 519/658/574 516/657/572 514/596/478 517/598/480
f 521/484/575 518/483/573 519/658/574 522/659/576
f 522/659/576 519/658/574 517/598/480 520/600/482
f 524/544/577 521/484/575 522/659/576 525/660/578
f 525/660/578 522/659/576 520/600/482 523/602/484
f 527/550/579 524/544/577 525/660/578 528/661/580
f 528/661/580 525/660/578 523/602/484 526/604/486
f 530/556/581 527/550/579 528/661/580 531/662/582
f 531/662/582 528/661/580 526/604/486 529/606/488
f 533/562/583 530/556/581 531/662/582 534/663/584
f 534/663/584 531/662/582 529/606/488 532/608/490
f 536/568/585 533/562/583 534/663/584 537/664/586
f 537/664/586 534/663/584 532/608/490 535/610/492
f 539/572/587 536/568/585 537/664/586 540/665/588
f 540/665/588 537/664/586 535/610/492 538/612/494
f 542/541/589 539/572/587 540/665/588 543/666/590
f 543/666/590 540/665/588 538/612/494 541/614/496
f 545/542/591 542/541/589 543/666/590 546/667/592
f 546/667/592 543/666/590 541/614/496 544/616/498
f 548/548/593 545/542/591 546/667/592 549/668/594
f 549/668/594 546/667/592 544/616/498 547/618/500
f 551/554/595 548/548/593 549/668/594 552/669/596
f 552/669/596 549/668/594 547/618/500 550/620/502
f 554/560/597 551/554/595 552/669/596 555/670/598
f 555/670/598 552/669/596 550/620/502 553/622/504
f 557/566/599 554/560/597 555/670/598 558/671/600
f 558/671/600 555/670/598 553/622/504 556/624/506
f 560/537/601 557/566/599 558/671/600 561/672/602
f 561/672/602 558/671/600 556/624/506 559/626/508
f 493/538/556 560/537/601 561/672/602 495/649/557
f 495/649/557 561/672/602 559/626/508 494/582/464
f 466/577/436 467/535/415 493/538/415 491/578/436
f 417/574/388 416/673/388 443/648/552 442/575/434
f 416/673/388 415/674/388 444/647/550 443/648/552
f 415/674/388 414/675/388 445/646/548 444/647/550
f 414/675/388 413/676/388 446/645/546 445/646/548
f 413/676/388 412/677/388 447/644/544 446/645/546
f 412/677/388 411/678/388 448/643/542 447/644/544
f 411/678/388 410/679/388 449/642/540 448/643/542
f 410/679/388 409/680/388 450/641/538 449/642/540
f 409/680/388 408/681/388 451/640/536 450/641/538
f 408/681/388 407/682/388 452/639/534 451/640/536
f 407/682/388 406/683/388 453/638/532 452/639/534
f 406/683/388 405/684/388 454/637/530 453/638/532
f 405/684/388 404/685/388 455/636/528 454/637/530
f 404/685/388 403/686/388 456/635/526 455/636/528
f 403/686/388 402/687/388 457/634/524 456/635/526
f 402/687/388 401/688/388 458/633/522 457/634/524
f 401/688/388 400/689/388 459/632/520 458/633/522
f 400/689/388 399/690/388 460/631/518 459/632/520
f 399/690/388 398/691/388 461/630/516 460/631/518
f 398/691/388 397/692/388 462/629/514 461/630/516
f 397/692/388 396/693/388 463/628/512 462/629/514
f 396/693/388 394/694/388 465/627/509 463/628/512
f 394/694/388 395/573/388 464/576/435 465/627/509
f 396/693/388 562/695/388 395/573/388 394/694/388
f 562/695/388 416/673/388 417/574/388 395/573/388
f 397/692/388 563/696/388 562/695/388 396/693/388
f 563/696/388 415/674/388 416/673/388 562/695/388
f 398/691/388 564/697/388 563/696/388 397/692/388
f 564/697/388 414/675/388 415/674/388 563/696/388
f 399/690/388 565/698/388 564/697/388 398/691/388
f 565/698/388 413/676/388 414/675/388 564/697/388
f 400/689/388 566/699/388 565/698/388 399/690/388
f 566/699/388 412/677/388 413/676/388 565/698/388
f 401/688/388 567/700/388 566/699/388 400/689/388
f 567/700/388 411/678/388 412/677/388 566/699/388
f 402/687/388 568/701/388 567/700/388 401/688/388
f 568/701/388 410/679/388 411/678/388 567/700/388
f 403/686/388 569/702/388 568/701/388 402/687/388
f 569/702/388 409/680/388 410/679/388 568/701/388
f 404/685/388 570/703/388 569/702/388 403/686/388
f 570/703/388 408/681/388 409/680/388 569/702/388
f 405/684/388 406/683/388 570/703/388 404/685/388
f 406/683/388 407/682/388 408/681/388 570/703/388
