# Blender 4.0.2
# www.blender.org
o golf_iron
v -0.000000 0.300000 -0.005000
v 0.000000 -0.300000 -0.005000
v -0.001913 0.300000 -0.004619
v -0.001913 -0.300000 -0.004619
v -0.003536 0.300000 -0.003536
v -0.003535 -0.300000 -0.003536
v -0.004619 0.300000 -0.001913
v -0.004619 -0.300000 -0.001913
v -0.005000 0.300000 0.000000
v -0.005000 -0.300000 0.000000
v -0.004619 0.300000 0.001913
v -0.004619 -0.300000 0.001913
v -0.003536 0.300000 0.003536
v -0.003535 -0.300000 0.003536
v -0.001913 0.300000 0.004619
v -0.001913 -0.300000 0.004619
v -0.000000 0.300000 0.005000
v 0.000000 -0.300000 0.005000
v 0.001913 0.300000 0.004619
v 0.001913 -0.300000 0.004619
v 0.003535 0.300000 0.003536
v 0.003536 -0.300000 0.003536
v 0.004619 0.300000 0.001913
v 0.004619 -0.300000 0.001913
v 0.005000 0.300000 0.000000
v 0.005000 -0.300000 0.000000
v 0.004619 0.300000 -0.001913
v 0.004619 -0.300000 -0.001913
v 0.003535 0.300000 -0.003536
v 0.003536 -0.300000 -0.003536
v 0.001913 0.300000 -0.004619
v 0.001913 -0.300000 -0.004619
v -0.000000 0.300000 -0.007646
v -0.002926 0.300000 -0.007064
v -0.005406 0.300000 -0.005406
v -0.007064 0.300000 -0.002926
v -0.007646 0.300000 0.000000
v -0.007064 0.300000 0.002926
v -0.005406 0.300000 0.005406
v -0.002926 0.300000 0.007064
v -0.000000 0.300000 0.007646
v 0.002926 0.300000 0.007064
v 0.005406 0.300000 0.005406
v 0.007064 0.300000 0.002926
v 0.007646 0.300000 0.000000
v 0.007064 0.300000 -0.002926
v 0.005406 0.300000 -0.005406
v 0.002926 0.300000 -0.007064
v -0.000000 0.569932 -0.011557
v -0.004423 0.569932 -0.010677
v -0.008172 0.569932 -0.008172
v -0.010677 0.569932 -0.004423
v -0.011557 0.569932 0.000000
v -0.010677 0.569932 0.004423
v -0.008172 0.569932 0.008172
v -0.004423 0.569932 0.010677
v -0.000000 0.569932 0.011557
v 0.004422 0.569932 0.010677
v 0.008172 0.569932 0.008172
v 0.010677 0.569932 0.004423
v 0.011557 0.569932 0.000000
v 0.010677 0.569932 -0.004423
v 0.008172 0.569932 -0.008172
v 0.004422 0.569932 -0.010677
v -0.000000 0.569932 0.000000
v 0.000000 -0.300070 -0.005517
v -0.000000 -0.314800 -0.007070
v -0.002111 -0.300070 -0.005098
v -0.002705 -0.314800 -0.006531
v -0.003901 -0.300070 -0.003901
v -0.004999 -0.314800 -0.004999
v -0.005097 -0.300070 -0.002111
v -0.006531 -0.314800 -0.002705
v -0.005517 -0.300070 0.000000
v -0.007070 -0.314800 -0.000000
v -0.005097 -0.300070 0.002111
v -0.006531 -0.314800 0.002705
v -0.003901 -0.300070 0.003901
v -0.004999 -0.314800 0.004999
v -0.002111 -0.300070 0.005098
v -0.002705 -0.314800 0.006531
v 0.000000 -0.300070 0.005517
v -0.000000 -0.314800 0.007070
v 0.002112 -0.300070 0.005098
v 0.002705 -0.314800 0.006531
v 0.003902 -0.300070 0.003901
v 0.004999 -0.314800 0.004999
v 0.005098 -0.300070 0.002111
v 0.006531 -0.314800 0.002705
v 0.005518 -0.300070 0.000000
v 0.007070 -0.314800 -0.000000
v 0.005098 -0.300070 -0.002111
v 0.006531 -0.314800 -0.002705
v 0.003902 -0.300070 -0.003901
v 0.004999 -0.314800 -0.004999
v 0.002112 -0.300070 -0.005098
v 0.002705 -0.314800 -0.006531
v -0.002605 -0.340761 0.006289
v 0.000000 -0.340761 0.006807
v 0.002605 -0.340761 0.006289
v 0.004813 -0.340761 0.004813
v 0.006289 -0.340761 0.002605
v 0.006807 -0.340761 0.000000
v 0.006289 -0.340761 -0.002605
v -0.000065 -0.349812 0.006637
v -0.000889 -0.354816 0.005189
v -0.003484 -0.361346 0.003686
v -0.006442 -0.366351 0.003260
v -0.014828 -0.374611 0.005916
v -0.031673 -0.386795 0.012644
v -0.040940 -0.392758 0.015959
v -0.051589 -0.399001 0.019449
v -0.060258 -0.403237 0.021849
v -0.067562 -0.405351 0.023111
v -0.074068 -0.404786 0.022957
v -0.079326 -0.402398 0.021823
v -0.084675 -0.398006 0.019645
v -0.088205 -0.393147 0.017183
v -0.090695 -0.387759 0.014423
v -0.092581 -0.382161 0.011540
v -0.093756 -0.376409 0.008562
v -0.093520 -0.370558 0.005501
v -0.091621 -0.365039 0.002577
v -0.086991 -0.359965 -0.000168
v -0.080024 -0.356631 -0.002032
v -0.071809 -0.353412 -0.003799
v -0.060650 -0.352026 -0.004889
v -0.049510 -0.350677 -0.005834
v -0.038367 -0.349838 -0.006513
v -0.029791 -0.349411 -0.006922
v -0.021897 -0.349679 -0.006753
v -0.015598 -0.350259 -0.005896
v -0.011371 -0.349826 -0.004266
v -0.009096 -0.348573 -0.001388
v -0.007499 -0.346257 0.000000
v 0.000007 -0.344093 0.006796
v -0.006807 -0.340761 0.000000
v -0.023411 -0.381085 0.009483
v -0.010335 -0.370628 0.003739
v -0.005491 -0.358765 0.002270
v -0.007372 -0.356203 0.000624
v -0.009055 -0.353559 -0.001323
v -0.008635 -0.362496 0.001066
v -0.010825 -0.358647 -0.001123
v -0.012953 -0.354907 -0.003252
v -0.056658 -0.388068 0.013849
v -0.061740 -0.377107 0.008234
v -0.066797 -0.366202 0.002648
v -0.065252 -0.391340 0.015743
v -0.070138 -0.380188 0.010024
v -0.075017 -0.369050 0.004313
v -0.045886 -0.383022 0.010981
v -0.050988 -0.372978 0.005845
v -0.055957 -0.363128 0.000808
v -0.036150 -0.378201 0.008252
v -0.040837 -0.369201 0.003653
v -0.045275 -0.360612 -0.000737
v -0.025800 -0.356743 -0.003179
v -0.022338 -0.362711 -0.000136
v -0.018583 -0.368661 0.002890
v -0.003377 -0.353575 0.004547
v -0.005663 -0.352072 0.003148
v -0.007321 -0.350576 0.001387
v -0.002586 -0.348295 0.006049
v -0.004877 -0.347582 0.004639
v -0.006420 -0.346923 0.002522
v 0.006247 -0.344157 0.002667
v -0.004813 -0.340761 0.004813
v -0.006238 -0.340761 0.002608
v -0.034909 -0.358320 -0.002158
v -0.031103 -0.365926 0.001732
v -0.027167 -0.373685 0.005699
v -0.018814 -0.355964 -0.003736
v -0.016144 -0.360772 -0.001283
v -0.013236 -0.365608 0.001180
v -0.004313 -0.365012 -0.009116
v -0.014867 -0.374377 -0.012473
v -0.031714 -0.386612 -0.011632
v -0.040971 -0.392321 -0.010117
v -0.051602 -0.398140 -0.007943
v -0.060262 -0.401850 -0.006208
v -0.067546 -0.403733 -0.004899
v -0.074051 -0.403200 -0.003934
v -0.079310 -0.401261 -0.003698
v -0.084667 -0.397806 -0.004033
v -0.088203 -0.393081 -0.004842
v -0.090698 -0.387839 -0.005740
v -0.092588 -0.382315 -0.006687
v -0.093764 -0.376579 -0.007669
v -0.093528 -0.370735 -0.008777
v -0.091625 -0.365136 -0.010232
v -0.086986 -0.359869 -0.011834
v -0.080021 -0.356673 -0.013020
v -0.071835 -0.354521 -0.013682
v -0.060764 -0.353189 -0.013770
v -0.049596 -0.352168 -0.013740
v -0.038384 -0.351165 -0.013528
v -0.029795 -0.350380 -0.013426
v -0.021868 -0.350084 -0.013077
v -0.023455 -0.380980 -0.012247
v -0.009292 -0.370055 -0.011260
v -0.002949 -0.343671 -0.006289
v 0.000339 -0.359816 -0.006114
v -0.002534 -0.340761 -0.006289
v 0.004385 -0.353429 -0.002807
v -0.004492 -0.347015 -0.006880
v 0.006267 -0.344201 -0.002362
v 0.005734 -0.348981 -0.002211
v -0.015609 -0.350101 -0.012335
v -0.010880 -0.350267 -0.010662
v -0.007574 -0.349555 -0.008562
v 0.002605 -0.340761 -0.006289
v 0.002341 -0.344012 -0.006171
v 0.001108 -0.348143 -0.005801
v -0.031128 -0.365290 -0.016257
v -0.040903 -0.368539 -0.016152
v -0.022212 -0.362162 -0.015609
v -0.015603 -0.360005 -0.013868
v -0.009769 -0.357825 -0.011596
v -0.005271 -0.355042 -0.008761
v -0.001237 -0.351772 -0.006354
v -0.051105 -0.372203 -0.015300
v -0.061896 -0.376120 -0.013844
v -0.069830 -0.379208 -0.012459
v -0.060374 -0.403352 0.002779
v -0.060371 -0.403820 0.012491
v -0.067939 -0.405916 0.013959
v -0.067935 -0.405368 0.004439
v -0.049652 -0.351122 -0.011087
v -0.049664 -0.350513 -0.008553
v -0.038339 -0.349601 -0.008927
v -0.038347 -0.350151 -0.011137
v -0.095100 -0.376703 -0.002275
v -0.095098 -0.376646 0.003223
v -0.094851 -0.370568 0.000809
v -0.094853 -0.370628 -0.003992
v -0.074722 -0.405336 0.014213
v -0.074717 -0.404798 0.005103
v -0.029598 -0.349039 -0.009105
v -0.029613 -0.349468 -0.011104
v -0.004035 -0.365760 -0.005357
v -0.005045 -0.366223 -0.000660
v -0.009109 -0.370852 -0.001255
v -0.008761 -0.370662 -0.006337
v -0.092869 -0.364789 -0.001680
v -0.092871 -0.364823 -0.005998
v -0.080172 -0.402871 0.013480
v -0.080154 -0.402348 0.004781
v -0.021545 -0.348969 -0.008867
v -0.021567 -0.349063 -0.010857
v -0.014067 -0.375037 -0.000243
v -0.014084 -0.374961 -0.006518
v -0.088020 -0.359405 -0.004107
v -0.088020 -0.359375 -0.008060
v -0.085714 -0.398790 0.011956
v -0.085700 -0.398732 0.003934
v -0.022827 -0.381640 -0.005868
v -0.022813 -0.381676 0.001893
v -0.031227 -0.387465 0.004109
v -0.031243 -0.387404 -0.004648
v -0.080811 -0.355990 -0.005822
v -0.080802 -0.356001 -0.009550
v -0.089383 -0.393795 0.010021
v -0.089381 -0.393775 0.002560
v -0.040661 -0.393451 0.006865
v -0.040674 -0.393305 -0.002502
v -0.072394 -0.353058 -0.007381
v -0.072396 -0.353431 -0.010750
v -0.091950 -0.388299 0.007848
v -0.091950 -0.388327 0.001017
v -0.051507 -0.399668 0.010137
v -0.051517 -0.399380 0.000501
v -0.061004 -0.351769 -0.007981
v -0.060998 -0.352267 -0.010930
v -0.093887 -0.382578 0.005575
v -0.093889 -0.382630 -0.000600
v -0.006289 -0.340761 -0.002605
v -0.004813 -0.340761 -0.004813
v 0.000051 -0.360546 -0.002678
v -0.001570 -0.361068 0.000998
v 0.004225 -0.354321 0.000113
v 0.002199 -0.354959 0.003572
v 0.004813 -0.344198 0.004813
v -0.005690 -0.346434 -0.004827
v -0.006706 -0.346265 -0.002454
v -0.010617 -0.349313 -0.008765
v -0.010836 -0.349238 -0.006541
v -0.008371 -0.348207 -0.003594
v -0.007729 -0.348459 -0.006278
v -0.015147 -0.349356 -0.010262
v -0.015158 -0.349410 -0.008123
v 0.005947 -0.349912 0.000482
v 0.003624 -0.350769 0.004510
v 0.006637 -0.344189 0.000186
v -0.076708 -0.381979 -0.010750
v -0.082435 -0.384381 -0.009002
v -0.087079 -0.386367 -0.007468
v 0.004813 -0.340761 -0.004813
v 0.004664 -0.344205 -0.004541
v 0.003756 -0.348576 -0.004123
v -0.018459 -0.368293 -0.014585
v -0.012448 -0.365030 -0.012791
v -0.006933 -0.361562 -0.010517
v -0.002466 -0.357429 -0.007650
v 0.001749 -0.352461 -0.004938
v -0.027120 -0.373434 -0.015354
v -0.036170 -0.377922 -0.015185
v -0.045949 -0.382618 -0.013976
v -0.056729 -0.387411 -0.011876
v -0.064823 -0.390500 -0.010161
v -0.071666 -0.392799 -0.008476
v -0.077994 -0.393996 -0.006971
v -0.083253 -0.393746 -0.006120
v -0.034822 -0.358173 -0.015048
v -0.045278 -0.360310 -0.015137
v -0.055917 -0.362771 -0.014866
v -0.066966 -0.365153 -0.014276
v -0.074759 -0.367971 -0.013173
v 0.000000 -0.340761 -0.006807
v -0.000284 -0.343840 -0.006751
v -0.002043 -0.347508 -0.006705
v -0.026044 -0.356267 -0.014659
v -0.018671 -0.354885 -0.013931
v -0.012573 -0.354107 -0.012142
v -0.008075 -0.352655 -0.009816
v -0.004406 -0.350523 -0.007788
v -0.081365 -0.370823 -0.011792
v -0.086879 -0.374545 -0.010081
v -0.090381 -0.378622 -0.008498
v -0.076842 -0.382649 0.011455
v -0.082489 -0.384729 0.012663
v -0.086556 -0.386230 0.013536
v -0.081443 -0.371992 0.005989
v -0.086474 -0.375660 0.008013
v -0.089813 -0.378751 0.009699
v -0.072236 -0.393315 0.016926
v -0.078507 -0.393790 0.017309
v -0.083354 -0.393405 0.017213
v 0.002705 -0.340155 0.006531
v 0.004999 -0.340155 0.004999
v -0.002705 -0.340155 0.006531
v -0.000000 -0.340155 0.007070
v 0.007070 -0.340155 -0.000000
v 0.006531 -0.340155 -0.002705
v 0.006531 -0.340155 0.002705
v -0.007070 -0.340155 -0.000000
v -0.006505 -0.340131 0.002707
v 0.004999 -0.340155 -0.004999
v 0.002705 -0.340155 -0.006531
v -0.004999 -0.340155 -0.004999
v -0.006531 -0.340155 -0.002705
v -0.000000 -0.340155 -0.007070
v -0.002669 -0.340155 -0.006531
v -0.004999 -0.340155 0.004999
v 0.002605 -0.344091 0.006289
v -0.007137 -0.343590 0.000000
v -0.006325 -0.343776 0.002567
v -0.004844 -0.343993 0.004730
v -0.002597 -0.344077 0.006181
v -0.006488 -0.343592 -0.002533
v -0.005231 -0.343643 -0.004820
v 0.004403 -0.347614 0.004813
v 0.005642 -0.347328 0.002498
v 0.002360 -0.347344 0.006006
vn -0.0000 -0.0000 -1.0000
vn -0.3827 -0.0000 -0.9239
vn -0.7071 -0.0000 -0.7071
vn -0.9239 -0.0000 -0.3827
vn -1.0000 -0.0000 -0.0000
vn -0.9239 -0.0000 0.3827
vn -0.7071 -0.0000 0.7071
vn -0.3827 -0.0000 0.9239
vn -0.0000 -0.0000 1.0000
vn 0.3827 -0.0000 0.9239
vn 0.7071 -0.0000 0.7071
vn 0.9239 -0.0000 0.3827
vn 1.0000 -0.0000 -0.0000
vn 0.9239 -0.0000 -0.3827
vn 0.7071 -0.0000 -0.7071
vn -0.0946 0.9910 0.0946
vn -0.1235 0.9910 0.0512
vn 0.3827 -0.0000 -0.9239
vn -0.0000 -1.0000 -0.0000
vn 0.9999 -0.0145 -0.0000
vn 0.9238 -0.0145 -0.3826
vn -0.0000 -0.0145 -0.9999
vn -0.3826 -0.0145 -0.9238
vn -0.9238 -0.0145 0.3826
vn -0.7070 -0.0145 0.7070
vn 0.7070 -0.0145 0.7070
vn 0.9238 -0.0145 0.3826
vn 0.3826 -0.0145 -0.9238
vn -0.9238 -0.0145 -0.3826
vn -0.9999 -0.0145 -0.0000
vn -0.0000 -0.0145 0.9999
vn 0.3826 -0.0145 0.9238
vn 0.7070 -0.0145 -0.7070
vn -0.7070 -0.0145 -0.7070
vn -0.3826 -0.0145 0.9238
vn -0.0000 1.0000 -0.0000
vn -0.0000 0.1048 -0.9945
vn -0.3806 0.1048 -0.9188
vn -0.7032 0.1048 -0.7032
vn -0.9188 0.1048 -0.3806
vn -0.9945 0.1048 -0.0000
vn -0.9188 0.1048 0.3806
vn -0.7032 0.1048 0.7032
vn -0.3806 0.1048 0.9188
vn -0.0000 0.1048 0.9945
vn 0.3806 0.1048 0.9188
vn 0.7032 0.1048 0.7032
vn 0.9188 0.1048 0.3806
vn 0.9945 0.1048 -0.0000
vn 0.9188 0.1048 -0.3806
vn 0.7032 0.1048 -0.7032
vn -0.8451 -0.4042 0.3499
vn -0.9152 -0.4029 0.0095
vn -0.8450 -0.4042 0.3501
vn 0.3806 0.1048 -0.9188
vn 0.6487 -0.3980 0.6487
vn 0.3511 -0.3980 0.8476
vn 0.3511 -0.3980 0.8475
vn 0.3511 -0.3980 -0.8475
vn 0.6487 -0.3980 -0.6487
vn -0.8475 -0.3981 -0.3510
vn -0.6421 -0.4045 -0.6512
vn -0.0000 -0.3981 0.9174
vn -0.3511 -0.3981 0.8475
vn -0.3497 -0.4058 -0.8444
vn -0.0001 -0.4004 -0.9164
vn -0.0000 -0.4004 -0.9164
vn 0.8476 -0.3980 -0.3511
vn 0.9174 -0.3980 -0.0000
vn -0.6527 -0.4015 0.6425
vn -0.6527 -0.4015 0.6424
vn 0.8476 -0.3980 0.3511
vn -0.6393 0.1363 0.7568
vn -0.6233 0.1804 0.7609
vn -0.2407 0.3744 0.8955
vn -0.2701 0.3557 0.8947
vn 0.0192 0.4629 0.8862
vn 0.0199 0.4611 0.8871
vn 0.0210 0.4595 0.8880
vn 0.0174 0.4594 0.8880
vn 0.0182 0.4609 0.8872
vn -0.0474 0.4346 0.8994
vn -0.0409 0.4332 0.9004
vn 0.0146 0.4568 0.8894
vn 0.0167 0.4596 0.8879
vn -0.0803 0.4233 0.9024
vn -0.0895 0.4191 0.9035
vn -0.3415 0.2782 0.8978
vn -0.3381 0.2859 0.8966
vn 0.0189 0.4625 0.8864
vn 0.0185 0.4619 0.8867
vn -0.8068 -0.0022 0.5909
vn -0.8270 0.0532 0.5596
vn -0.4232 -0.1151 0.8987
vn -0.5197 -0.1387 0.8430
vn -0.4200 -0.1422 0.8963
vn 0.1120 -0.1937 0.9746
vn -0.8935 0.0357 0.4477
vn -0.8432 0.0412 0.5359
vn -0.6745 -0.0656 0.7353
vn -0.6881 -0.0101 0.7255
vn -0.9088 0.0356 0.4157
vn -0.7006 -0.0095 0.7135
vn -0.0109 -0.0284 0.9995
vn -0.0101 -0.0098 0.9999
vn -0.3863 -0.0205 0.9221
vn -0.3794 -0.0233 0.9249
vn -0.9643 0.0938 -0.2477
vn -0.9714 0.0880 -0.2207
vn -0.9229 0.0881 -0.3749
vn -0.9249 0.0953 -0.3680
vn -0.8813 0.4059 -0.2419
vn -0.8433 0.4394 -0.3095
vn -0.8835 0.1075 0.4560
vn -0.6972 -0.1009 0.7098
vn -0.5370 0.0402 0.8426
vn -0.4811 0.0470 0.8754
vn -0.6248 0.0569 0.7787
vn -0.0633 0.4319 0.8997
vn -0.3206 0.3127 0.8941
vn 0.0223 0.4618 0.8867
vn 0.0205 0.4624 0.8864
vn 0.3228 -0.9418 -0.0944
vn 0.0844 -0.9902 -0.1114
vn 0.0702 -0.9829 -0.1700
vn 0.3024 -0.9411 -0.1511
vn -0.0917 0.9526 -0.2900
vn -0.0784 0.9477 -0.3094
vn -0.0769 0.9236 -0.3757
vn -0.0854 0.9299 -0.3579
vn -0.9861 -0.1144 -0.1202
vn -0.9810 0.1390 -0.1352
vn -0.9587 0.1000 -0.2664
vn -0.9606 -0.1400 -0.2403
vn -0.2324 -0.9656 -0.1166
vn -0.2276 -0.9575 -0.1770
vn -0.0515 0.9551 -0.2917
vn -0.0526 0.9230 -0.3811
vn 0.7596 -0.6502 -0.0147
vn 0.6809 -0.7291 -0.0691
vn 0.6745 -0.7196 -0.1649
vn 0.7602 -0.6325 -0.1486
vn -0.8707 0.4708 -0.1420
vn -0.8630 0.4192 -0.2819
vn -0.4727 -0.8751 -0.1040
vn -0.4523 -0.8760 -0.1676
vn 0.0124 0.9688 -0.2477
vn 0.0121 0.9209 -0.3895
vn 0.6131 -0.7864 -0.0758
vn 0.6070 -0.7800 -0.1518
vn -0.6138 0.7784 -0.1317
vn -0.6205 0.7364 -0.2695
vn -0.6683 -0.7379 -0.0937
vn -0.6475 -0.7427 -0.1708
vn 0.5806 -0.8113 -0.0685
vn 0.5381 -0.8404 -0.0638
vn 0.5251 -0.8407 -0.1324
vn 0.5735 -0.8069 -0.1414
vn -0.3740 0.9154 -0.1491
vn -0.3699 0.8855 -0.2813
vn -0.8424 -0.5310 -0.0918
vn -0.8213 -0.5407 -0.1820
vn 0.4955 -0.8659 -0.0681
vn 0.4779 -0.8685 -0.1317
vn -0.2018 0.9566 -0.2103
vn -0.1921 0.9248 -0.3283
vn -0.9138 -0.3944 -0.0971
vn -0.8913 -0.4091 -0.1955
vn 0.4373 -0.8959 -0.0785
vn 0.4167 -0.8985 -0.1379
vn -0.1056 0.9617 -0.2530
vn -0.1003 0.9349 -0.3403
vn -0.9524 -0.2858 -0.1065
vn -0.9280 -0.3044 -0.2146
vn 0.8229 -0.5597 -0.0972
vn 0.7977 -0.5980 0.0781
vn 0.8875 -0.4526 -0.0862
vn 0.8517 -0.5008 0.1543
vn 0.8776 -0.1906 -0.4400
vn 0.9470 -0.2636 0.1837
vn 0.7103 -0.0582 0.7014
vn 0.3760 -0.0376 0.9259
vn 0.4005 -0.1190 0.9085
vn 0.7056 -0.1874 0.6833
vn -0.9485 0.0689 0.3093
vn 0.0162 -0.0172 -0.9997
vn 0.0706 -0.0281 -0.9971
vn -0.1080 0.0592 -0.9924
vn -0.1850 0.0125 -0.9827
vn 0.6626 -0.1392 -0.7360
vn 0.9131 -0.1061 -0.3937
vn 0.5926 -0.1502 -0.7914
vn 0.3835 -0.0007 0.9235
vn 0.0028 0.9711 -0.2385
vn -0.3205 0.8894 -0.3261
vn -0.1956 0.8678 -0.4569
vn 0.1307 0.8960 -0.4244
vn 0.0638 0.9751 -0.2123
vn 0.0993 0.9116 -0.3989
vn -0.6880 0.5283 -0.4976
vn -0.5701 0.5669 -0.5947
vn -0.0124 0.1681 -0.9857
vn -0.0375 0.1168 -0.9925
vn -0.0225 0.1508 -0.9883
vn -0.0093 0.1925 -0.9813
vn 0.0381 0.1885 -0.9813
vn 0.0162 0.2119 -0.9772
vn 0.1508 0.1802 -0.9720
vn 0.1003 0.2132 -0.9718
vn 0.3061 0.1690 -0.9369
vn 0.2559 0.1982 -0.9462
vn 0.4116 0.1781 -0.8938
vn 0.3804 0.2275 -0.8964
vn 0.3661 0.1464 -0.9190
vn 0.3172 0.2711 -0.9088
vn 0.2089 0.0367 -0.9773
vn 0.0970 0.1789 -0.9791
vn -0.0227 -0.2618 -0.9649
vn 0.0402 -0.2262 -0.9732
vn 0.0945 -0.3334 -0.9380
vn 0.0210 -0.3547 -0.9347
vn -0.0581 -0.2842 -0.9570
vn -0.0259 -0.3576 -0.9335
vn -0.0929 -0.2999 -0.9494
vn -0.0685 -0.3533 -0.9330
vn -0.2709 -0.1980 -0.9420
vn -0.3303 -0.2334 -0.9146
vn -0.3424 -0.1937 -0.9194
vn -0.2936 -0.1619 -0.9421
vn -0.1340 -0.0828 -0.9875
vn -0.0845 -0.0212 -0.9962
vn -0.0947 -0.1405 -0.9855
vn -0.1283 -0.1849 -0.9743
vn -0.0562 0.0450 -0.9974
vn -0.0710 -0.0879 -0.9936
vn -0.0320 -0.0236 -0.9992
vn 0.5319 -0.0052 -0.8468
vn 0.4275 0.0378 -0.9032
vn 0.3961 -0.1169 -0.9107
vn 0.5025 0.0690 -0.8618
vn 0.4472 0.1250 -0.8857
vn 0.4340 0.0290 -0.9004
vn 0.3817 0.0995 -0.9189
vn 0.3380 -0.0395 -0.9403
vn 0.2587 0.0734 -0.9632
vn 0.2113 -0.1297 -0.9688
vn 0.1199 0.0533 -0.9914
vn 0.1182 -0.1873 -0.9752
vn 0.0271 0.0228 -0.9994
vn 0.3916 -0.1319 -0.9106
vn 0.7004 -0.0740 -0.7099
vn 0.3977 -0.0655 -0.9152
vn -0.2105 -0.3309 -0.9199
vn -0.2639 -0.3401 -0.9026
vn -0.3047 -0.2848 -0.9089
vn -0.2373 -0.2581 -0.9365
vn -0.6075 0.7919 -0.0608
vn -0.5227 0.8432 -0.1258
vn 0.0180 0.9568 0.2903
vn -0.0523 0.9485 0.3125
vn -0.0165 0.9864 0.1634
vn 0.0156 0.9928 0.1190
vn -0.3079 0.9347 0.1774
vn -0.2181 0.9736 0.0673
vn 0.9273 -0.0799 0.3656
vn 0.9269 -0.0122 0.3750
vn 0.7068 -0.0000 0.7074
vn -0.7491 0.1441 -0.6466
vn 0.9960 -0.0883 0.0147
vn 0.9034 -0.1825 0.3880
vn -0.6053 0.1836 -0.7745
vn 0.9995 -0.0316 0.0016
vn 0.9221 -0.0519 -0.3836
vn 0.5101 -0.4255 0.7475
vn 0.6832 -0.4913 0.5403
vn 0.6759 -0.3194 0.6641
vn 0.6739 -0.5328 0.5119
vn 0.7290 -0.5869 0.3524
vn 0.7432 -0.6084 0.2782
vn 0.7481 -0.6374 0.1848
vn -0.9615 -0.1621 0.2217
vn -0.9698 0.0250 0.2428
vn -0.9919 -0.0315 0.1229
vn -0.9702 -0.2148 0.1120
vn -0.1093 0.9895 0.0947
vn -0.0925 0.9924 0.0805
vn -0.0964 0.9932 -0.0652
vn -0.1106 0.9933 -0.0322
vn 0.4852 -0.8718 0.0670
vn 0.3734 -0.9260 0.0562
vn 0.3570 -0.9341 0.0059
vn 0.4698 -0.8826 0.0192
vn -0.9368 -0.2857 0.2019
vn -0.9374 -0.3333 0.1011
vn -0.2041 0.9684 0.1433
vn -0.2075 0.9779 0.0269
vn 0.5354 -0.8408 0.0795
vn 0.5223 -0.8522 0.0312
vn -0.8784 -0.4410 0.1844
vn -0.8716 -0.4819 0.0901
vn -0.3394 0.9181 0.2049
vn -0.3574 0.9292 0.0942
vn 0.5701 -0.8162 0.0932
vn 0.5590 -0.8281 0.0417
vn -0.7331 -0.6623 0.1546
vn -0.7118 -0.6992 0.0674
vn 0.6407 -0.7562 0.1326
vn 0.6045 -0.7891 0.1094
vn 0.5954 -0.8019 0.0505
vn 0.6294 -0.7746 0.0621
vn -0.5168 0.8210 0.2428
vn -0.5599 0.8190 0.1260
vn -0.5401 -0.8337 0.1148
vn -0.5166 -0.8555 0.0348
vn -0.7679 0.5851 0.2608
vn -0.8213 0.5546 0.1334
vn 0.6989 -0.6899 0.1883
vn 0.6919 -0.7147 0.1025
vn -0.0251 0.9827 0.1836
vn -0.0377 0.9993 0.0077
vn -0.2433 -0.9667 0.0791
vn -0.2403 -0.9707 0.0088
vn -0.9231 0.2849 0.2584
vn -0.9636 0.2330 0.1310
vn -0.0650 0.9929 0.0997
vn -0.0730 0.9953 -0.0630
vn 0.1170 -0.9913 0.0597
vn 0.1073 -0.9942 0.0008
vn -0.7100 0.0844 -0.6991
vn -0.1798 -0.1271 -0.9755
vn -0.1812 -0.0920 -0.9791
vn -0.1292 -0.0417 -0.9907
vn -0.1379 -0.3133 -0.9396
vn -0.1664 -0.2162 -0.9621
vn -0.2182 -0.1611 -0.9625
vn -0.2342 -0.1284 -0.9637
vn -0.1695 -0.3225 -0.9313
vn -0.1890 -0.2347 -0.9535
vn -0.1634 -0.3698 -0.9146
vn -0.1959 -0.3789 -0.9045
vn -0.1214 -0.3572 -0.9261
vn 0.1702 -0.2865 -0.9428
vn 0.2457 -0.2046 -0.9475
vn 0.3607 -0.0794 -0.9293
vn 0.4563 -0.0007 -0.8898
vn 0.5380 0.0327 -0.8423
vn 0.5922 -0.0280 -0.8053
vn -0.0364 0.0916 -0.9951
vn -0.0704 0.0280 -0.9971
vn -0.2335 -0.3791 -0.8954
vn 0.0191 0.4628 0.8863
vn 0.0190 0.4627 0.8863
vn -0.7085 -0.0002 0.7058
vn -0.7080 -0.0002 0.7062
vn -0.7058 -0.0002 -0.7084
vn -0.3827 -0.0003 -0.9239
vn -0.7056 -0.0002 -0.7087
vn -1.0000 -0.0003 0.0023
vn -0.0000 -0.0001 -1.0000
vn -0.9239 -0.0005 0.3827
vn -0.9634 0.0669 0.2595
vn -0.5404 0.0787 -0.8377
vn -0.1337 0.9910 -0.0000
vn -0.1236 0.9910 -0.0512
vn -0.0946 0.9910 -0.0946
vn -0.0512 0.9910 -0.1235
vn -0.0000 0.9910 -0.1337
vn 0.0512 0.9910 -0.1235
vn 0.0946 0.9910 -0.0946
vn 0.1236 0.9910 -0.0512
vn 0.1337 0.9910 -0.0000
vn 0.1235 0.9910 0.0512
vn 0.0946 0.9910 0.0946
vn 0.0512 0.9910 0.1235
vn -0.0000 0.9910 0.1337
vn -0.0511 0.9910 0.1235
vt 0.004888 0.043500
vt 0.994702 0.043500
vt 0.994702 0.046719
vt 0.004887 0.046719
vt 0.994702 0.049937
vt 0.004887 0.049937
vt 0.994702 0.053156
vt 0.004887 0.053155
vt 0.994702 0.056374
vt 0.004887 0.056374
vt 0.004888 0.004880
vt 0.994702 0.004880
vt 0.994702 0.008098
vt 0.004888 0.008098
vt 0.994702 0.011317
vt 0.004888 0.011316
vt 0.994702 0.014535
vt 0.004888 0.014535
vt 0.994702 0.017753
vt 0.004888 0.017753
vt 0.994702 0.020972
vt 0.004888 0.020971
vt 0.994702 0.024190
vt 0.004888 0.024190
vt 0.994702 0.027408
vt 0.004888 0.027408
vt 0.994702 0.030627
vt 0.004888 0.030627
vt 0.994702 0.033845
vt 0.004888 0.033845
vt 0.994702 0.037064
vt 0.004888 0.037063
vt 0.905816 0.075276
vt 0.905816 0.071092
vt 0.906709 0.071092
vt 0.906709 0.075275
vt 0.994702 0.040282
vt 0.004888 0.040282
vt 0.136761 0.117159
vt 0.139733 0.115928
vt 0.142157 0.119556
vt 0.137612 0.121439
vt 0.143240 0.107462
vt 0.142008 0.104490
vt 0.145637 0.102065
vt 0.147519 0.106611
vt 0.127064 0.107462
vt 0.127064 0.110680
vt 0.122784 0.111531
vt 0.122784 0.106611
vt 0.133543 0.100983
vt 0.130570 0.102214
vt 0.128146 0.098586
vt 0.132692 0.096704
vt 0.133543 0.117159
vt 0.132692 0.121439
vt 0.143240 0.110680
vt 0.147519 0.111531
vt 0.136761 0.100983
vt 0.137612 0.096704
vt 0.130570 0.115928
vt 0.128146 0.119556
vt 0.450739 0.116319
vt 0.450739 0.110139
vt 0.896058 0.110139
vt 0.896058 0.116319
vt 0.450739 0.091601
vt 0.450739 0.085421
vt 0.896058 0.085421
vt 0.896058 0.091601
vt 0.450739 0.159576
vt 0.450739 0.153397
vt 0.896058 0.153397
vt 0.896058 0.159576
vt 0.450739 0.128678
vt 0.450739 0.122499
vt 0.896058 0.122499
vt 0.896058 0.128678
vt 0.450739 0.097780
vt 0.896058 0.097780
vt 0.450739 0.073062
vt 0.450739 0.066882
vt 0.896058 0.066882
vt 0.896058 0.073062
vt 0.450739 0.141037
vt 0.450739 0.134858
vt 0.896058 0.134858
vt 0.896058 0.141037
vt 0.450739 0.103960
vt 0.896058 0.103960
vt 0.450739 0.079241
vt 0.896058 0.079241
vt 0.450739 0.147217
vt 0.896058 0.147217
vt 0.450739 0.165756
vt 0.896058 0.165756
vt 0.128295 0.104490
vt 0.124667 0.102065
vt 0.128295 0.113653
vt 0.124667 0.116077
vt 0.139733 0.102214
vt 0.142157 0.098586
vt 0.142008 0.113653
vt 0.145637 0.116077
vt 0.176771 0.116983
vt 0.163290 0.130464
vt 0.159157 0.124279
vt 0.157706 0.116983
vt 0.176771 0.136048
vt 0.169475 0.134596
vt 0.163290 0.103502
vt 0.169475 0.099370
vt 0.176771 0.097919
vt 0.195835 0.116983
vt 0.190251 0.103502
vt 0.194384 0.109687
vt 0.194384 0.124279
vt 0.190251 0.130464
vt 0.159157 0.109687
vt 0.184067 0.099370
vt 0.184067 0.134596
vt 0.906709 0.117272
vt 0.932044 0.117272
vt 0.932044 0.121436
vt 0.906709 0.121436
vt 0.932044 0.125666
vt 0.906709 0.125666
vt 0.932044 0.129866
vt 0.906709 0.129866
vt 0.932044 0.134066
vt 0.906709 0.134066
vt 0.906709 0.066885
vt 0.932044 0.066885
vt 0.932044 0.071092
vt 0.932044 0.075275
vt 0.932044 0.079475
vt 0.906709 0.079475
vt 0.932044 0.083675
vt 0.906709 0.083675
vt 0.932044 0.087874
vt 0.906709 0.087874
vt 0.932044 0.092074
vt 0.906709 0.092074
vt 0.932044 0.096274
vt 0.906709 0.096274
vt 0.932044 0.100474
vt 0.906709 0.100474
vt 0.932044 0.104673
vt 0.906709 0.104673
vt 0.932044 0.108873
vt 0.906709 0.108873
vt 0.975411 0.071092
vt 0.975411 0.066885
vt 0.976544 0.066885
vt 0.976544 0.071092
vt 0.932044 0.113073
vt 0.906709 0.113073
vt 0.975411 0.092074
vt 0.975411 0.087874
vt 0.976544 0.087875
vt 0.976544 0.092074
vt 0.975411 0.113073
vt 0.975411 0.108873
vt 0.976544 0.108873
vt 0.976544 0.113073
vt 0.975411 0.129866
vt 0.975411 0.125666
vt 0.976544 0.125667
vt 0.976544 0.129866
vt 0.975411 0.083675
vt 0.975411 0.079475
vt 0.976544 0.079475
vt 0.976544 0.083675
vt 0.975411 0.121436
vt 0.975411 0.117272
vt 0.976544 0.117272
vt 0.976544 0.121436
vt 0.975411 0.104673
vt 0.975411 0.100474
vt 0.976544 0.100474
vt 0.976544 0.104673
vt 0.975411 0.075275
vt 0.976544 0.075276
vt 0.975411 0.096274
vt 0.976544 0.096274
vt 0.975411 0.134066
vt 0.976544 0.134066
vt 0.025509 0.110313
vt 0.031828 0.104208
vt 0.039148 0.105767
vt 0.032581 0.113144
vt 0.047070 0.152376
vt 0.037731 0.164166
vt 0.026955 0.148916
vt 0.035627 0.139718
vt 0.113688 0.155452
vt 0.127465 0.134578
vt 0.139121 0.143751
vt 0.125505 0.164027
vt 0.072706 0.177044
vt 0.087599 0.190647
vt 0.074556 0.208246
vt 0.060404 0.192538
vt 0.059361 0.164278
vt 0.048326 0.177913
vt 0.041790 0.116835
vt 0.049587 0.106965
vt 0.062315 0.109671
vt 0.052591 0.121205
vt 0.028437 0.131969
vt 0.021562 0.139876
vt 0.016626 0.131681
vt 0.021931 0.125426
vt 0.066409 0.127885
vt 0.075787 0.114043
vt 0.093169 0.120224
vt 0.081902 0.136364
vt 0.134418 0.172021
vt 0.148721 0.152657
vt 0.020316 0.105162
vt 0.025846 0.102034
vt 0.009460 0.101237
vt 0.011802 0.109982
vt 0.007648 0.112173
vt 0.005319 0.103837
vt 0.018001 0.093927
vt 0.018089 0.099088
vt 0.013809 0.100073
vt 0.013711 0.094249
vt 0.017903 0.088970
vt 0.013609 0.088970
vt 0.004943 0.094463
vt 0.004904 0.088970
vt 0.009259 0.088970
vt 0.009335 0.094384
vt 0.010627 0.080355
vt 0.005954 0.080032
vt 0.006121 0.075668
vt 0.010878 0.075939
vt 0.015082 0.080928
vt 0.015604 0.076359
vt 0.022595 0.098039
vt 0.016241 0.107519
vt 0.016665 0.118839
vt 0.012454 0.123019
vt 0.021051 0.114670
vt 0.056871 0.140014
vt 0.070920 0.150000
vt 0.035289 0.124404
vt 0.027301 0.119171
vt 0.044329 0.130529
vt 0.110320 0.127317
vt 0.097795 0.145373
vt 0.085399 0.161060
vt 0.100676 0.173005
vt 0.099821 0.200142
vt 0.086460 0.219509
vt 0.112671 0.182072
vt 0.274608 0.081397
vt 0.262098 0.082168
vt 0.264649 0.066884
vt 0.277538 0.066884
vt 0.096341 0.071645
vt 0.077427 0.071247
vt 0.077678 0.066884
vt 0.096463 0.066884
vt 0.195251 0.075715
vt 0.185302 0.074949
vt 0.183361 0.066884
vt 0.193350 0.066884
vt 0.251738 0.082030
vt 0.253408 0.066884
vt 0.062754 0.071125
vt 0.063276 0.066884
vt 0.393262 0.073235
vt 0.381164 0.075013
vt 0.379589 0.066884
vt 0.392013 0.066884
vt 0.175116 0.073907
vt 0.173169 0.066884
vt 0.243026 0.081003
vt 0.243973 0.066884
vt 0.049031 0.071012
vt 0.050019 0.066884
vt 0.368989 0.076602
vt 0.367591 0.066884
vt 0.162933 0.073009
vt 0.160896 0.066884
vt 0.233299 0.079858
vt 0.233205 0.066884
vt 0.349373 0.077875
vt 0.331391 0.078619
vt 0.332640 0.066884
vt 0.349435 0.066884
vt 0.149495 0.072717
vt 0.147855 0.066884
vt 0.224046 0.078541
vt 0.223180 0.066884
vt 0.311930 0.079476
vt 0.314223 0.066884
vt 0.134638 0.072102
vt 0.133755 0.066884
vt 0.214700 0.077434
vt 0.213298 0.066884
vt 0.290571 0.080632
vt 0.293582 0.066884
vt 0.115435 0.071967
vt 0.115177 0.066884
vt 0.205080 0.076525
vt 0.203341 0.066884
vt 0.404762 0.066884
vt 0.405698 0.073058
vt 0.418567 0.066884
vt 0.418595 0.072295
vt 0.426429 0.066884
vt 0.425668 0.071324
vt 0.433957 0.077889
vt 0.433857 0.081458
vt 0.429438 0.081239
vt 0.429274 0.077966
vt 0.022414 0.093629
vt 0.418545 0.096886
vt 0.418171 0.101963
vt 0.413683 0.101739
vt 0.414341 0.096886
vt 0.427248 0.102511
vt 0.431735 0.102708
vt 0.430996 0.110754
vt 0.426371 0.109948
vt 0.438302 0.081886
vt 0.437983 0.085421
vt 0.433550 0.085010
vt 0.029141 0.069701
vt 0.022141 0.070962
vt 0.024260 0.066884
vt 0.031017 0.066884
vt 0.037719 0.070211
vt 0.039471 0.066884
vt 0.016078 0.071477
vt 0.016841 0.066884
vt 0.358804 0.127802
vt 0.341676 0.131813
vt 0.334021 0.118404
vt 0.352616 0.116070
vt 0.373207 0.124389
vt 0.366915 0.114465
vt 0.385385 0.121977
vt 0.380169 0.113825
vt 0.395845 0.120380
vt 0.390713 0.113762
vt 0.404169 0.117548
vt 0.399107 0.113733
vt 0.411102 0.113607
vt 0.405550 0.112048
vt 0.415379 0.108258
vt 0.411190 0.107461
vt 0.341717 0.168639
vt 0.357485 0.160317
vt 0.365410 0.175469
vt 0.350290 0.185653
vt 0.324158 0.177471
vt 0.332836 0.196221
vt 0.310874 0.183331
vt 0.318529 0.203116
vt 0.267849 0.165770
vt 0.264029 0.172456
vt 0.261845 0.162885
vt 0.261953 0.153034
vt 0.293449 0.146392
vt 0.306189 0.141131
vt 0.315215 0.158855
vt 0.302265 0.164579
vt 0.324266 0.136481
vt 0.332789 0.151687
vt 0.349326 0.145157
vt 0.422780 0.116617
vt 0.417111 0.115551
vt 0.421035 0.109206
vt 0.414499 0.125270
vt 0.409337 0.121383
vt 0.405895 0.132462
vt 0.400699 0.126429
vt 0.396193 0.138434
vt 0.390524 0.130324
vt 0.386006 0.143939
vt 0.379497 0.134113
vt 0.372028 0.152613
vt 0.365108 0.139476
vt 0.422599 0.102151
vt 0.427225 0.096886
vt 0.422881 0.096886
vt 0.280223 0.190689
vt 0.271720 0.190355
vt 0.267381 0.181654
vt 0.273667 0.178468
vt 0.020455 0.080373
vt 0.020788 0.076075
vt 0.048713 0.078613
vt 0.036211 0.078347
vt 0.036624 0.073809
vt 0.048541 0.074499
vt 0.027141 0.077985
vt 0.027811 0.073456
vt 0.434250 0.074370
vt 0.439026 0.074703
vt 0.438652 0.078327
vt 0.010931 0.071415
vt 0.434294 0.070771
vt 0.429659 0.074258
vt 0.010214 0.066884
vt 0.439516 0.070960
vt 0.434216 0.066884
vt 0.440162 0.066884
vt 0.418025 0.084123
vt 0.418278 0.078669
vt 0.424749 0.078299
vt 0.425753 0.084468
vt 0.406090 0.086434
vt 0.406038 0.080309
vt 0.394847 0.090408
vt 0.394115 0.082002
vt 0.208582 0.094636
vt 0.198714 0.092475
vt 0.196988 0.084077
vt 0.206772 0.085715
vt 0.114854 0.082393
vt 0.095927 0.080567
vt 0.096213 0.076005
vt 0.115386 0.077078
vt 0.284277 0.110796
vt 0.269032 0.110329
vt 0.271772 0.096293
vt 0.287471 0.096063
vt 0.217767 0.096674
vt 0.216149 0.087366
vt 0.134454 0.084093
vt 0.134897 0.077797
vt 0.305819 0.110690
vt 0.309084 0.095180
vt 0.226206 0.098835
vt 0.225049 0.089169
vt 0.150386 0.085538
vt 0.150262 0.078981
vt 0.326783 0.109527
vt 0.329460 0.093910
vt 0.234020 0.101266
vt 0.233606 0.091165
vt 0.369749 0.100612
vt 0.347206 0.106690
vt 0.348732 0.091917
vt 0.369861 0.087987
vt 0.164609 0.086266
vt 0.164061 0.079467
vt 0.242532 0.104284
vt 0.242705 0.093406
vt 0.177588 0.088010
vt 0.176550 0.080725
vt 0.382639 0.094866
vt 0.382196 0.084238
vt 0.062873 0.078490
vt 0.062588 0.074652
vt 0.249440 0.106706
vt 0.250555 0.095144
vt 0.188290 0.090177
vt 0.186896 0.082435
vt 0.077336 0.079150
vt 0.077299 0.075079
vt 0.257935 0.108987
vt 0.259975 0.096232
vt 0.005990 0.071318
vt 0.282617 0.151728
vt 0.272426 0.134115
vt 0.283821 0.128176
vt 0.299557 0.187890
vt 0.290944 0.169864
vt 0.273563 0.158523
vt 0.264928 0.143394
vt 0.289008 0.190605
vt 0.281431 0.174551
vt 0.295534 0.206611
vt 0.286704 0.203742
vt 0.306455 0.206850
vt 0.431585 0.096886
vt 0.378888 0.165660
vt 0.392771 0.154088
vt 0.402134 0.146670
vt 0.410978 0.138065
vt 0.419950 0.129130
vt 0.428516 0.118220
vt 0.315543 0.120875
vt 0.297278 0.123937
vt 0.277729 0.198170
vt 0.140778 0.180740
vt 0.153804 0.163739
vt 0.144700 0.187709
vt 0.154329 0.174486
vt 0.147568 0.195017
vt 0.152052 0.185135
vt 0.127754 0.211435
vt 0.119848 0.210102
vt 0.130308 0.195427
vt 0.136114 0.199836
vt 0.110063 0.206624
vt 0.122246 0.189314
vt 0.135607 0.212998
vt 0.142021 0.204322
vt 0.117250 0.225969
vt 0.107782 0.228078
vt 0.097151 0.226376
vt 0.127773 0.220284
vt 0.022272 0.088970
vt 0.005473 0.066884
vt 0.905816 0.066885
vt 0.905816 0.134066
vt 0.905816 0.129866
vt 0.905816 0.125667
vt 0.905816 0.121436
vt 0.905816 0.117272
vt 0.905816 0.113073
vt 0.905816 0.108873
vt 0.905816 0.104673
vt 0.905816 0.100474
vt 0.905816 0.096274
vt 0.905816 0.092074
vt 0.905816 0.087875
vt 0.905816 0.083675
vt 0.905816 0.079475
s 1
f 1/1/1 2/2/1 4/3/2 3/4/2
f 3/4/2 4/3/2 6/5/3 5/6/3
f 5/6/3 6/5/3 8/7/4 7/8/4
f 7/8/4 8/7/4 10/9/5 9/10/5
f 9/11/5 10/12/5 12/13/6 11/14/6
f 11/14/6 12/13/6 14/15/7 13/16/7
f 13/16/7 14/15/7 16/17/8 15/18/8
f 15/18/8 16/17/8 18/19/9 17/20/9
f 17/20/9 18/19/9 20/21/10 19/22/10
f 19/22/10 20/21/10 22/23/11 21/24/11
f 21/24/11 22/23/11 24/25/12 23/26/12
f 23/26/12 24/25/12 26/27/13 25/28/13
f 25/28/13 26/27/13 28/29/14 27/30/14
f 27/30/14 28/29/14 30/31/15 29/32/15
f 14/33/16 12/34/17 76/35/17 78/36/16
f 29/32/15 30/31/15 32/37/18 31/38/18
f 31/38/18 32/37/18 2/2/1 1/1/1
f 11/39/19 13/40/19 39/41/19 38/42/19
f 19/43/19 21/44/19 43/45/19 42/46/19
f 1/47/19 3/48/19 34/49/19 33/50/19
f 27/51/19 29/52/19 47/53/19 46/54/19
f 9/55/19 11/39/19 38/42/19 37/56/19
f 17/57/19 19/43/19 42/46/19 41/58/19
f 25/59/19 27/51/19 46/54/19 45/60/19
f 7/61/19 9/55/19 37/56/19 36/62/19
f 45/63/20 46/64/21 62/65/21 61/66/20
f 33/67/22 34/68/23 50/69/23 49/70/22
f 38/71/24 39/72/25 55/73/25 54/74/24
f 43/75/26 44/76/27 60/77/27 59/78/26
f 48/79/28 33/67/22 49/70/22 64/80/28
f 36/81/29 37/82/30 53/83/30 52/84/29
f 41/85/31 42/86/32 58/87/32 57/88/31
f 46/64/21 47/89/33 63/90/33 62/65/21
f 34/68/23 35/91/34 51/92/34 50/69/23
f 39/72/25 40/93/35 56/94/35 55/73/25
f 44/76/27 45/63/20 61/66/20 60/77/27
f 37/95/30 38/71/24 54/74/24 53/96/30
f 42/86/32 43/75/26 59/78/26 58/87/32
f 47/89/33 48/79/28 64/80/28 63/90/33
f 35/91/34 36/81/29 52/84/29 51/92/34
f 40/93/35 41/85/31 57/88/31 56/94/35
f 29/52/19 31/97/19 48/98/19 47/53/19
f 3/48/19 5/99/19 35/100/19 34/49/19
f 21/44/19 23/101/19 44/102/19 43/45/19
f 13/40/19 15/103/19 40/104/19 39/41/19
f 31/97/19 1/47/19 33/50/19 48/98/19
f 5/99/19 7/61/19 36/62/19 35/100/19
f 23/101/19 25/59/19 45/60/19 44/102/19
f 65/105/36 53/106/36 54/107/36 55/108/36
f 15/103/19 17/57/19 41/58/19 40/104/19
f 65/105/36 51/109/36 52/110/36 53/106/36
f 65/105/36 57/111/36 58/112/36 59/113/36
f 63/114/36 65/105/36 61/115/36 62/116/36
f 64/117/36 49/118/36 65/105/36 63/114/36
f 57/111/36 65/105/36 55/108/36 56/119/36
f 61/115/36 65/105/36 59/113/36 60/120/36
f 49/118/36 50/121/36 51/109/36 65/105/36
f 66/122/37 67/123/37 69/124/38 68/125/38
f 68/125/38 69/124/38 71/126/39 70/127/39
f 70/127/39 71/126/39 73/128/40 72/129/40
f 72/129/40 73/128/40 75/130/41 74/131/41
f 74/132/41 75/133/41 77/134/42 76/35/42
f 76/35/42 77/134/42 79/135/43 78/36/43
f 78/36/43 79/135/43 81/136/44 80/137/44
f 80/137/44 81/136/44 83/138/45 82/139/45
f 82/139/45 83/138/45 85/140/46 84/141/46
f 84/141/46 85/140/46 87/142/47 86/143/47
f 86/143/47 87/142/47 89/144/48 88/145/48
f 88/145/48 89/144/48 91/146/49 90/147/49
f 90/147/49 91/146/49 93/148/50 92/149/50
f 92/149/50 93/148/50 95/150/51 94/151/51
f 347/152/52 346/153/53 137/154/53 169/155/54
f 94/151/51 95/150/51 97/156/55 96/157/55
f 96/157/55 97/156/55 67/123/37 66/122/37
f 340/158/56 339/159/57 100/160/58 101/161/56
f 349/162/59 348/163/60 298/164/60 212/165/59
f 351/166/61 350/167/62 278/168/62 277/169/61
f 342/170/63 341/171/64 98/172/64 99/173/63
f 353/174/65 352/175/66 319/176/67 204/177/65
f 344/178/68 343/179/69 103/180/69 104/181/68
f 354/182/70 347/152/52 169/155/54 168/183/71
f 345/184/72 340/158/56 101/161/56 102/185/72
f 352/175/66 349/162/59 212/165/59 319/176/67
f 346/186/53 351/166/61 277/169/61 137/187/53
f 339/159/57 342/170/63 99/173/63 100/160/58
f 348/163/60 344/178/68 104/181/68 298/164/60
f 350/167/62 353/174/65 204/177/65 278/168/62
f 341/171/64 354/182/70 168/183/71 98/172/64
f 343/179/69 345/184/72 102/185/72 103/180/69
f 142/188/73 133/189/74 132/190/75 145/191/76
f 172/192/77 138/193/77 109/194/77 160/195/77
f 148/196/78 126/197/79 125/198/80 151/199/81
f 152/200/77 146/201/77 112/202/77 111/203/77
f 155/204/77 152/200/77 111/203/77 110/205/77
f 173/206/82 131/207/83 130/208/84 158/209/85
f 175/210/86 139/211/87 108/212/88 143/213/89
f 170/214/77 129/215/77 128/216/77 157/217/77
f 333/218/90 151/199/81 125/198/80 124/219/91
f 163/220/92 134/221/93 133/189/74 142/188/73
f 164/222/94 161/223/95 106/224/96 105/225/97
f 357/226/98 166/227/99 165/228/100 358/229/101
f 169/230/102 357/226/98 358/229/101 168/231/103
f 136/232/104 99/233/105 98/234/106 359/235/107
f 356/236/108 137/237/109 277/238/110 360/239/111
f 105/225/97 136/232/104 359/235/107 164/222/94
f 135/240/112 356/236/108 360/239/111 285/241/113
f 358/229/101 165/228/100 164/222/94 359/235/107
f 135/242/114 134/221/93 163/220/92 166/227/99
f 166/227/99 163/220/92 162/243/115 165/228/100
f 165/228/100 162/243/115 161/223/95 164/222/94
f 106/224/96 161/223/95 140/244/116 107/245/117
f 161/223/95 162/243/115 141/246/118 140/244/116
f 162/243/115 163/220/92 142/188/73 141/246/118
f 138/193/77 172/192/77 155/204/77 110/205/77
f 172/192/77 171/247/77 156/248/77 155/204/77
f 171/247/77 170/214/77 157/217/77 156/248/77
f 131/207/83 173/206/82 145/191/76 132/190/75
f 173/206/82 174/249/119 144/250/120 145/191/76
f 174/249/119 175/210/86 143/213/89 144/250/120
f 139/211/87 175/210/86 160/195/77 109/194/77
f 175/210/86 174/249/119 159/251/77 160/195/77
f 174/249/119 173/206/82 158/209/85 159/251/77
f 128/216/77 127/252/121 154/253/122 157/217/77
f 157/217/77 154/253/122 153/254/77 156/248/77
f 156/248/77 153/254/77 152/200/77 155/204/77
f 127/252/121 126/197/79 148/196/78 154/253/122
f 154/253/122 148/196/78 147/255/77 153/254/77
f 153/254/77 147/255/77 146/201/77 152/200/77
f 112/202/77 146/201/77 149/256/77 113/257/77
f 146/201/77 147/255/77 150/258/77 149/256/77
f 147/255/77 148/196/78 151/199/81 150/258/77
f 129/215/77 170/214/77 158/209/85 130/208/84
f 170/214/77 171/247/77 159/251/77 158/209/85
f 171/247/77 172/192/77 160/195/77 159/251/77
f 107/245/117 140/244/116 143/213/89 108/212/88
f 140/244/116 141/246/118 144/250/120 143/213/89
f 141/246/118 142/188/73 145/191/76 144/250/120
f 225/259/123 228/260/124 182/261/125 181/262/126
f 229/263/127 232/264/128 197/265/129 196/266/130
f 233/267/131 236/268/132 190/269/133 189/270/134
f 228/260/124 238/271/135 183/272/136 182/261/125
f 232/264/128 240/273/137 198/274/138 197/265/129
f 241/275/139 244/276/140 201/277/141 176/278/142
f 236/268/132 246/279/143 191/280/144 190/269/133
f 238/271/135 248/281/145 184/282/146 183/272/136
f 240/273/137 250/283/147 199/284/148 198/274/138
f 244/276/140 252/285/149 177/286/150 201/277/141
f 246/279/143 254/287/151 192/288/152 191/280/144
f 248/281/145 256/289/153 185/290/154 184/282/146
f 257/291/155 260/292/156 178/293/157 200/294/158
f 254/287/151 262/295/159 193/296/160 192/288/152
f 252/285/149 257/291/155 200/294/158 177/286/150
f 256/289/153 264/297/161 186/298/162 185/290/154
f 260/292/156 266/299/163 179/300/164 178/293/157
f 262/295/159 268/301/165 194/302/166 193/296/160
f 264/297/161 270/303/167 187/304/168 186/298/162
f 266/299/163 272/305/169 180/306/170 179/300/164
f 268/301/165 274/307/171 195/308/172 194/302/166
f 270/303/167 276/309/173 188/310/174 187/304/168
f 272/305/169 225/259/123 181/262/126 180/306/170
f 274/307/171 229/263/127 196/266/130 195/308/172
f 276/309/173 233/267/131 189/270/134 188/310/174
f 241/275/139 176/278/142 203/311/175 279/312/176
f 279/312/176 203/311/175 205/313/177 281/314/178
f 281/314/178 205/313/177 208/315/179 292/316/180
f 283/317/181 355/318/182 364/319/183 362/320/184
f 135/242/114 166/227/99 357/226/98 356/321/185
f 319/322/186 320/323/187 202/324/188 204/325/189
f 299/326/190 207/327/191 208/328/179 300/329/192
f 355/318/182 100/330/193 99/331/105 136/332/104
f 286/333/194 289/334/195 211/335/196 210/336/197
f 290/337/198 286/333/194 210/336/197 209/338/199
f 250/283/147 290/337/198 209/338/199 199/284/148
f 289/334/195 284/339/200 206/340/201 211/335/196
f 314/341/202 315/342/203 196/343/204 197/344/205
f 322/345/206 314/341/202 197/344/205 198/346/207
f 323/347/208 322/345/206 198/346/207 199/348/209
f 324/349/210 323/347/208 199/348/209 209/350/211
f 325/351/212 324/349/210 209/350/211 210/352/213
f 326/353/214 325/351/212 210/352/213 211/354/215
f 321/355/216 326/353/214 211/354/215 206/356/217
f 308/357/218 307/358/219 178/359/220 179/360/221
f 309/361/222 308/357/218 179/360/221 180/362/223
f 310/363/224 309/361/222 180/362/223 181/364/225
f 329/365/226 188/366/227 189/367/228 190/368/229
f 318/369/230 317/370/231 223/371/232 224/372/233
f 317/370/231 316/373/234 222/374/235 223/371/232
f 316/373/234 315/342/203 216/375/236 222/374/235
f 300/329/192 305/376/237 221/377/238 214/378/239
f 305/376/237 304/379/240 220/380/241 221/377/238
f 304/379/240 303/381/242 219/382/243 220/380/241
f 303/381/242 302/383/244 218/384/245 219/382/243
f 302/383/244 301/385/246 217/386/247 218/384/245
f 301/385/246 306/387/248 215/388/249 217/386/247
f 306/387/248 307/358/219 216/375/236 215/388/249
f 320/323/187 213/389/250 214/378/239 321/355/216
f 298/390/251 299/326/190 213/389/250 212/391/252
f 313/392/253 186/393/254 187/394/255 297/395/256
f 134/396/257 135/240/112 285/241/113 288/397/258
f 288/397/258 285/241/113 284/339/200 289/334/195
f 131/398/259 132/399/260 291/400/261 249/401/262
f 249/401/262 291/400/261 290/337/198 250/283/147
f 132/399/260 133/402/263 287/403/264 291/400/261
f 291/400/261 287/403/264 286/333/194 290/337/198
f 133/402/263 134/396/257 288/397/258 287/403/264
f 287/403/264 288/397/258 289/334/195 286/333/194
f 167/404/265 102/405/266 101/406/267 283/317/181
f 360/239/111 361/407/268 284/339/200 285/241/113
f 168/231/103 358/229/101 359/235/107 98/234/106
f 292/316/180 294/408/269 167/404/265 363/409/270
f 202/410/271 206/340/201 284/339/200 361/407/268
f 294/408/269 103/411/272 102/405/266 167/404/265
f 103/411/272 294/408/269 207/412/191 104/413/273
f 106/414/274 282/415/275 293/416/276 105/417/97
f 282/415/275 281/314/178 292/316/180 293/416/276
f 107/418/277 280/419/278 282/415/275 106/414/274
f 280/419/278 279/312/176 281/314/178 282/415/275
f 108/420/279 242/421/280 280/419/278 107/418/277
f 242/421/280 241/275/139 279/312/176 280/419/278
f 120/422/281 121/423/282 234/424/283 275/425/284
f 275/425/284 234/424/283 233/267/131 276/309/173
f 127/426/285 128/427/286 230/428/287 273/429/288
f 273/429/288 230/428/287 229/263/127 274/307/171
f 112/430/289 113/431/290 226/432/291 271/433/292
f 271/433/292 226/432/291 225/259/123 272/305/169
f 119/434/293 120/422/281 275/425/284 269/435/294
f 269/435/294 275/425/284 276/309/173 270/303/167
f 126/436/295 127/426/285 273/429/288 267/437/296
f 267/437/296 273/429/288 274/307/171 268/301/165
f 111/438/297 112/430/289 271/433/292 265/439/298
f 265/439/298 271/433/292 272/305/169 266/299/163
f 118/440/299 119/434/293 269/435/294 263/441/300
f 263/441/300 269/435/294 270/303/167 264/297/161
f 125/442/301 126/436/295 267/437/296 261/443/302
f 261/443/302 267/437/296 268/301/165 262/295/159
f 110/444/303 111/438/297 265/439/298 259/445/304
f 259/445/304 265/439/298 266/299/163 260/292/156
f 117/446/305 118/440/299 263/441/300 255/447/306
f 255/447/306 263/441/300 264/297/161 256/289/153
f 109/448/307 138/449/308 258/450/309 251/451/310
f 251/451/310 258/450/309 257/291/155 252/285/149
f 124/452/311 125/442/301 261/443/302 253/453/312
f 253/453/312 261/443/302 262/295/159 254/287/151
f 138/449/308 110/444/303 259/445/304 258/450/309
f 258/450/309 259/445/304 260/292/156 257/291/155
f 116/454/313 117/446/305 255/447/306 247/455/314
f 247/455/314 255/447/306 256/289/153 248/281/145
f 123/456/315 124/452/311 253/453/312 245/457/316
f 245/457/316 253/453/312 254/287/151 246/279/143
f 139/458/317 109/448/307 251/451/310 243/459/318
f 243/459/318 251/451/310 252/285/149 244/276/140
f 130/460/319 131/398/259 249/401/262 239/461/320
f 239/461/320 249/401/262 250/283/147 240/273/137
f 115/462/321 116/454/313 247/455/314 237/463/322
f 237/463/322 247/455/314 248/281/145 238/271/135
f 122/464/323 123/456/315 245/457/316 235/465/324
f 235/465/324 245/457/316 246/279/143 236/268/132
f 108/420/279 139/458/317 243/459/318 242/421/280
f 242/421/280 243/459/318 244/276/140 241/275/139
f 129/466/325 130/460/319 239/461/320 231/467/326
f 231/467/326 239/461/320 240/273/137 232/264/128
f 114/468/327 115/462/321 237/463/322 227/469/328
f 227/469/328 237/463/322 238/271/135 228/260/124
f 121/423/282 122/464/323 235/465/324 234/424/283
f 234/424/283 235/465/324 236/268/132 233/267/131
f 128/427/286 129/466/325 231/467/326 230/428/287
f 230/428/287 231/467/326 232/264/128 229/263/127
f 113/431/290 114/468/327 227/469/328 226/432/291
f 226/432/291 227/469/328 228/260/124 225/259/123
f 294/408/269 292/316/180 208/315/179 207/412/191
f 100/330/193 355/318/182 283/317/181 101/406/267
f 277/238/110 278/470/329 361/407/268 360/239/111
f 318/369/230 327/471/330 192/472/331 193/473/332
f 310/363/224 311/474/333 295/475/334 224/372/233
f 327/471/330 328/476/335 191/477/336 192/472/331
f 311/474/333 312/478/337 296/479/338 295/475/334
f 328/476/335 329/365/226 190/368/229 191/477/336
f 312/478/337 313/392/253 297/395/256 296/479/338
f 183/480/339 184/481/340 313/392/253 312/478/337
f 182/482/341 183/480/339 312/478/337 311/474/333
f 181/364/225 182/482/341 311/474/333 310/363/224
f 104/483/273 207/327/191 299/326/190 298/390/251
f 200/484/342 178/359/220 307/358/219 306/387/248
f 177/485/343 200/484/342 306/387/248 301/385/246
f 201/486/344 177/485/343 301/385/246 302/383/244
f 176/487/345 201/486/344 302/383/244 303/381/242
f 203/488/346 176/487/345 303/381/242 304/379/240
f 205/489/347 203/488/346 304/379/240 305/376/237
f 208/328/179 205/489/347 305/376/237 300/329/192
f 224/372/233 223/371/232 309/361/222 310/363/224
f 223/371/232 222/374/235 308/357/218 309/361/222
f 222/374/235 216/375/236 307/358/219 308/357/218
f 213/389/250 299/326/190 300/329/192 214/378/239
f 296/479/338 297/395/256 329/365/226 328/476/335
f 295/475/334 296/479/338 328/476/335 327/471/330
f 224/372/233 295/475/334 327/471/330 318/369/230
f 202/324/188 320/323/187 321/355/216 206/356/217
f 195/490/348 196/343/204 315/342/203 316/373/234
f 194/491/349 195/490/348 316/373/234 317/370/231
f 193/473/332 194/491/349 317/370/231 318/369/230
f 214/378/239 221/377/238 326/353/214 321/355/216
f 221/377/238 220/380/241 325/351/212 326/353/214
f 220/380/241 219/382/243 324/349/210 325/351/212
f 219/382/243 218/384/245 323/347/208 324/349/210
f 218/384/245 217/386/247 322/345/206 323/347/208
f 217/386/247 215/388/249 314/341/202 322/345/206
f 215/388/249 216/375/236 315/342/203 314/341/202
f 212/391/252 213/389/250 320/323/187 319/322/186
f 297/395/256 187/394/255 188/366/227 329/365/226
f 184/481/340 185/492/350 186/393/254 313/392/253
f 334/493/351 333/218/90 124/219/91 123/494/352
f 335/495/77 334/493/351 123/494/352 122/496/77
f 120/497/77 335/495/77 122/496/77 121/498/77
f 338/499/77 337/500/77 331/501/77 332/502/77
f 337/500/77 336/503/77 330/504/77 331/501/77
f 336/503/77 149/256/77 150/258/77 330/504/77
f 118/505/77 338/499/77 332/502/77 119/506/77
f 332/502/77 331/501/77 334/493/351 335/495/77
f 331/501/77 330/504/77 333/218/90 334/493/351
f 330/504/77 150/258/77 151/199/81 333/218/90
f 119/506/77 332/502/77 335/495/77 120/497/77
f 116/507/77 115/508/77 337/500/77 338/499/77
f 115/508/77 114/509/77 336/503/77 337/500/77
f 114/509/77 113/257/77 149/256/77 336/503/77
f 117/510/77 116/507/77 338/499/77 118/505/77
f 91/146/13 89/144/12 345/184/12 343/179/13
f 81/136/8 79/135/353 354/182/354 341/171/8
f 71/126/355 69/124/356 353/174/356 350/167/357
f 95/150/15 93/148/14 344/178/14 348/163/15
f 85/140/10 83/138/9 342/170/9 339/159/10
f 75/130/358 73/128/4 351/166/4 346/186/358
f 67/123/359 97/156/18 349/162/18 352/175/359
f 89/144/12 87/142/11 340/158/11 345/184/12
f 79/135/353 77/134/360 347/152/360 354/182/354
f 93/148/14 91/146/13 343/179/13 344/178/14
f 69/124/356 67/123/359 352/175/359 353/174/356
f 83/138/9 81/136/8 341/171/8 342/170/9
f 73/128/4 71/126/355 350/167/357 351/166/4
f 97/156/18 95/150/15 348/163/15 349/162/18
f 87/142/11 85/140/10 339/159/10 340/158/11
f 77/134/360 75/133/358 346/153/358 347/152/360
f 356/321/185 357/226/98 169/230/102 137/511/361
f 204/512/362 202/410/271 361/407/268 278/470/329
f 362/320/184 364/319/183 105/417/97 293/416/276
f 362/320/184 363/409/270 167/404/265 283/317/181
f 364/319/183 355/318/182 136/332/104 105/417/97
f 293/416/276 292/316/180 363/409/270 362/320/184
f 74/132/363 76/35/17 12/34/17 10/513/363
f 72/129/364 74/131/363 10/514/363 8/515/364
f 70/127/365 72/129/364 8/515/364 6/516/365
f 68/125/366 70/127/365 6/516/365 4/517/366
f 66/122/367 68/125/366 4/517/366 2/518/367
f 96/157/368 66/122/367 2/518/367 32/519/368
f 94/151/369 96/157/368 32/519/368 30/520/369
f 92/149/370 94/151/369 30/520/369 28/521/370
f 90/147/371 92/149/370 28/521/370 26/522/371
f 88/145/372 90/147/371 26/522/371 24/523/372
f 86/143/373 88/145/372 24/523/372 22/524/373
f 84/141/374 86/143/373 22/524/373 20/525/374
f 82/139/375 84/141/374 20/525/374 18/526/375
f 80/137/376 82/139/375 18/526/375 16/527/376
f 78/36/16 80/137/376 16/527/376 14/33/16
