# Blender 4.0.2
# www.blender.org
o sandal_01
v 0.038242 0.017391 -0.124530
v 0.061509 0.012115 0.030358
v 0.016738 0.017732 -0.141605
v 0.052015 0.014788 -0.015777
v -0.030056 0.018486 -0.129255
v -0.034378 0.017966 -0.021677
v 0.044349 0.017765 -0.077982
v -0.036238 0.019582 -0.068704
v 0.058792 0.015396 0.077157
v -0.045790 0.015248 0.023775
v -0.015911 0.024646 0.141605
v -0.044265 0.023675 0.128387
v -0.058153 0.017167 0.084443
v -0.056259 0.013967 0.053252
v 0.048993 0.019218 0.106608
v 0.029397 0.023190 0.130979
v 0.015155 0.024270 0.137737
v -0.000171 0.024564 0.141381
v -0.052301 0.021800 0.114934
v -0.056329 0.019457 0.099968
v -0.058117 0.015199 0.068828
v 0.040713 0.021179 0.120026
v -0.051862 0.014173 0.038244
v 0.054582 0.017335 0.092173
v -0.040386 0.016154 0.009060
v -0.036069 0.017099 -0.006012
v 0.062875 0.012363 0.046041
v 0.061830 0.013579 0.061677
v 0.058923 0.012520 0.014879
v 0.055586 0.013465 -0.000451
v -0.034833 0.019461 -0.053048
v -0.034016 0.018880 -0.037362
v -0.037420 0.019306 -0.084374
v -0.038187 0.018736 -0.100080
v -0.036736 0.018517 -0.115598
v 0.045934 0.017433 -0.062392
v 0.046885 0.016809 -0.046709
v 0.049053 0.015871 -0.031175
v -0.016918 0.018283 -0.138346
v -0.001350 0.017666 -0.142562
v 0.041978 0.017308 -0.109310
v 0.043394 0.017581 -0.093654
v 0.030359 0.017695 -0.135530
v -0.031812 0.024418 0.137565
v 0.024910 0.013592 -0.118190
v 0.047198 0.008218 0.032375
v 0.013308 0.013965 -0.127156
v 0.037919 0.010919 -0.012554
v -0.018757 0.014315 -0.119341
v -0.019978 0.013499 -0.020551
v 0.029979 0.013851 -0.076614
v -0.021871 0.015057 -0.069690
v 0.044760 0.011352 0.073995
v -0.032366 0.010917 0.029245
v -0.014208 0.020003 0.127366
v -0.034223 0.018697 0.117281
v -0.043734 0.012652 0.083851
v -0.042088 0.009558 0.056359
v 0.036030 0.015070 0.100357
v 0.021062 0.018804 0.119177
v 0.010334 0.019771 0.124265
v -0.001966 0.019989 0.127190
v -0.039278 0.016849 0.108041
v -0.042256 0.014376 0.096403
v -0.043705 0.010731 0.069926
v 0.029388 0.016928 0.111123
v -0.038252 0.009826 0.043271
v 0.040892 0.013252 0.087796
v -0.026668 0.011795 0.013727
v -0.021866 0.012685 -0.003046
v 0.048417 0.008422 0.046373
v 0.047509 0.009580 0.059978
v 0.044766 0.008644 0.017815
v 0.041530 0.009600 0.002941
v -0.020452 0.014940 -0.053876
v -0.019592 0.014380 -0.037385
v -0.023030 0.014789 -0.085060
v -0.023738 0.014251 -0.099553
v -0.022627 0.014137 -0.111431
v 0.031564 0.013518 -0.061018
v 0.032532 0.012902 -0.045060
v 0.034831 0.011987 -0.028596
v -0.010749 0.014307 -0.124884
v 0.000197 0.013811 -0.127847
v 0.027719 0.013424 -0.106732
v 0.029018 0.013665 -0.092372
v 0.020927 0.013969 -0.123759
v -0.025517 0.019719 0.124496
v -0.002239 0.018905 0.121180
v -0.001977 0.017384 0.113367
v -0.001411 0.015376 0.102649
v -0.000652 0.013271 0.090754
v 0.000393 0.011431 0.077584
v 0.001612 0.009706 0.064735
v 0.002833 0.008510 0.050986
v 0.004102 0.008549 0.037332
v 0.005794 0.009341 0.022957
v 0.006981 0.010294 0.007677
v 0.007522 0.011433 -0.008560
v 0.006844 0.012388 -0.025487
v 0.005804 0.013288 -0.042317
v 0.004859 0.013831 -0.057886
v 0.003445 0.014038 -0.072369
v 0.002265 0.013856 -0.087798
v 0.001192 0.013477 -0.102387
v 0.000336 0.013425 -0.113606
v 0.000039 0.013632 -0.121079
v 0.039855 0.000229 -0.124732
v 0.063023 -0.000041 0.030626
v 0.017094 0.001012 -0.143102
v 0.053611 -0.000031 -0.015624
v -0.031346 0.000536 -0.129960
v -0.036171 0.002476 -0.021147
v 0.046080 -0.000204 -0.077366
v -0.038006 0.000834 -0.067678
v 0.060297 0.002213 0.078249
v -0.047292 0.000908 0.023534
v -0.015951 0.013384 0.144385
v -0.045374 0.011071 0.130475
v -0.059661 0.003092 0.085190
v -0.057749 -0.000037 0.053385
v 0.050447 0.006300 0.108187
v 0.030370 0.010951 0.133396
v 0.015754 0.012478 0.140425
v 0.000140 0.013302 0.144159
v -0.053705 0.008534 0.116500
v -0.057825 0.005584 0.100984
v -0.059625 0.001030 0.069292
v 0.042014 0.008709 0.121999
v -0.053322 0.000118 0.038074
v 0.056084 0.004112 0.093475
v -0.041998 0.001798 0.008965
v -0.037802 0.002307 -0.005815
v 0.064390 0.000041 0.046580
v 0.063340 0.000754 0.062545
v 0.060435 0.000000 0.015034
v 0.057134 -0.000079 -0.000363
v -0.036620 0.001582 -0.052104
v -0.035818 0.002221 -0.036596
v -0.039177 0.000475 -0.083385
v -0.039939 0.000126 -0.099243
v -0.038424 0.000000 -0.115397
v 0.047646 -0.000004 -0.061797
v 0.048581 -0.000000 -0.046212
v 0.050703 0.000031 -0.030871
v -0.017629 0.000957 -0.139664
v -0.001539 0.000920 -0.144110
v 0.043715 0.000039 -0.108906
v 0.045138 -0.000039 -0.093031
v 0.031451 0.000766 -0.136553
v -0.032362 0.012665 0.140160
v -0.029103 0.013330 -0.086537
v -0.041321 0.029787 -0.073122
v -0.047065 0.040017 -0.061389
v -0.051194 0.050539 -0.049138
v -0.053137 0.060526 -0.035844
v -0.052826 0.068743 -0.021233
v -0.049389 0.075716 -0.006223
v -0.042207 0.081209 0.008298
v -0.031054 0.082277 0.021484
v -0.022198 0.079437 0.026672
v -0.014921 0.081462 0.021165
v -0.005339 0.082291 0.012841
v 0.005132 0.081243 0.002279
v 0.014864 0.078409 -0.008630
v 0.023544 0.073868 -0.019823
v 0.030720 0.067789 -0.031265
v 0.036591 0.060562 -0.042792
v 0.041315 0.052190 -0.054150
v 0.044242 0.042361 -0.065132
v 0.044465 0.031099 -0.075383
v 0.040435 0.019544 -0.084489
v 0.034526 0.012819 -0.090958
v -0.026543 0.013668 -0.036137
v -0.039581 0.024813 -0.019865
v -0.046710 0.031727 -0.008958
v -0.051708 0.038856 0.003543
v -0.054186 0.046536 0.016555
v -0.052284 0.053959 0.031885
v -0.046990 0.059136 0.047103
v -0.038062 0.060381 0.060795
v -0.020763 0.046858 0.085162
v -0.007378 0.064004 0.063882
v -0.000375 0.066109 0.055282
v 0.008024 0.065175 0.044186
v 0.015487 0.062601 0.032899
v 0.023568 0.058957 0.021417
v 0.031606 0.054246 0.009812
v 0.038859 0.048444 -0.001648
v 0.044675 0.040988 -0.013174
v 0.047050 0.030937 -0.023962
v 0.044308 0.021324 -0.032709
v 0.038203 0.011435 -0.041451
v -0.023932 0.053816 0.080092
v -0.016570 0.054294 0.079418
v -0.017655 0.046998 0.084579
v -0.020442 0.053346 0.077488
v -0.019240 0.046640 0.083451
v -0.013497 0.059980 0.072557
v -0.021164 0.057722 0.069974
v -0.029536 0.058847 0.072196
v 0.041657 0.020179 -0.069050
v 0.043033 0.020718 -0.049880
v 0.037441 0.012287 -0.057776
v 0.035961 0.012759 -0.076360
v 0.045275 0.031079 -0.059782
v 0.046203 0.030852 -0.041241
v 0.044409 0.041932 -0.049233
v 0.044589 0.041381 -0.030742
v 0.040588 0.051036 -0.037952
v 0.039714 0.049742 -0.019494
v 0.035077 0.058602 -0.026513
v 0.033299 0.056438 -0.008088
v 0.028502 0.065007 -0.014848
v 0.025991 0.061922 0.003436
v 0.020957 0.070223 -0.003160
v 0.018223 0.066239 0.014739
v 0.012657 0.074212 0.008368
v 0.010469 0.069860 0.025742
v 0.003283 0.076488 0.019686
v 0.001500 0.071448 0.037170
v -0.006335 0.076971 0.030871
v -0.006945 0.070801 0.047743
v -0.015253 0.075429 0.037789
v -0.014914 0.068067 0.054572
v -0.022002 0.073517 0.040929
v -0.021616 0.064387 0.056063
v -0.029387 0.075250 0.037755
v -0.028779 0.067134 0.054595
v -0.041102 0.074415 0.027004
v -0.039782 0.067626 0.043743
v -0.048628 0.070099 0.011824
v -0.047976 0.065094 0.027647
v -0.052663 0.063823 -0.003494
v -0.052516 0.059242 0.012717
v -0.053493 0.055790 -0.018186
v -0.053813 0.051352 -0.002013
v -0.051370 0.046694 -0.031907
v -0.051494 0.042802 -0.015185
v -0.046974 0.037609 -0.044848
v -0.046786 0.034861 -0.027112
v -0.040833 0.028561 -0.056987
v -0.040159 0.027008 -0.038642
v -0.029273 0.013993 -0.071988
v -0.027747 0.014152 -0.052309
v -0.026954 0.014970 -0.086529
v -0.039107 0.031338 -0.073086
v -0.044647 0.041221 -0.061266
v -0.048601 0.051286 -0.048977
v -0.050446 0.060771 -0.035750
v -0.050140 0.068449 -0.021321
v -0.046883 0.074771 -0.006593
v -0.040203 0.079537 0.007594
v -0.030203 0.079923 0.020461
v -0.022244 0.076932 0.025657
v -0.015158 0.078918 0.020280
v -0.006187 0.079847 0.012054
v 0.003796 0.079013 0.001536
v 0.013102 0.076483 -0.009336
v 0.021466 0.072256 -0.020453
v 0.028448 0.066408 -0.031757
v 0.034190 0.059360 -0.043113
v 0.038771 0.051285 -0.054283
v 0.041565 0.041990 -0.065095
v 0.041811 0.031598 -0.075248
v 0.038131 0.020948 -0.084326
v 0.032370 0.014442 -0.090794
v -0.024576 0.015522 -0.036096
v -0.037504 0.026536 -0.019705
v -0.044359 0.033043 -0.008728
v -0.049100 0.039543 0.003729
v -0.051488 0.046374 0.016526
v -0.049770 0.053019 0.031559
v -0.045027 0.057425 0.046377
v -0.036898 0.058156 0.059794
v -0.022069 0.045146 0.083527
v -0.007529 0.061517 0.062833
v -0.001202 0.063694 0.054394
v 0.006606 0.063000 0.043433
v 0.013690 0.060695 0.032229
v 0.021716 0.057075 0.020835
v 0.029635 0.052451 0.009365
v 0.036723 0.046809 -0.001920
v 0.042261 0.039773 -0.013250
v 0.044362 0.030666 -0.023873
v 0.041749 0.022183 -0.032553
v 0.035871 0.012795 -0.041297
v -0.024951 0.051737 0.078695
v -0.015470 0.052425 0.077804
v -0.016505 0.045489 0.082652
v -0.020397 0.051174 0.075879
v -0.019337 0.044827 0.081448
v -0.012667 0.057705 0.071356
v -0.020998 0.055321 0.068744
v -0.029871 0.056424 0.071043
v 0.039210 0.021316 -0.068887
v 0.040549 0.021773 -0.049722
v 0.035155 0.013721 -0.057611
v 0.033774 0.014339 -0.076195
v 0.042585 0.031315 -0.059665
v 0.043505 0.030979 -0.041126
v 0.041778 0.041312 -0.049242
v 0.042026 0.040522 -0.030762
v 0.038140 0.049906 -0.038143
v 0.037418 0.048330 -0.019704
v 0.032782 0.057225 -0.026890
v 0.031184 0.054801 -0.008483
v 0.026354 0.063457 -0.015390
v 0.024015 0.060162 0.002884
v 0.019012 0.068464 -0.003818
v 0.016370 0.064382 0.014087
v 0.011011 0.072192 0.007648
v 0.008872 0.067803 0.025019
v 0.002078 0.074192 0.018922
v 0.000355 0.069137 0.036359
v -0.006997 0.074497 0.030007
v -0.007403 0.068319 0.046775
v -0.015232 0.072926 0.036767
v -0.014570 0.065635 0.053446
v -0.021952 0.071083 0.039753
v -0.021466 0.061977 0.054846
v -0.028967 0.072825 0.036637
v -0.028519 0.064712 0.053423
v -0.039426 0.072475 0.026146
v -0.038306 0.065563 0.042807
v -0.046254 0.068897 0.011343
v -0.045702 0.063739 0.027095
v -0.050016 0.063299 -0.003672
v -0.049903 0.058581 0.012499
v -0.050793 0.055917 -0.018129
v -0.051112 0.051463 -0.001962
v -0.048764 0.047396 -0.031742
v -0.048923 0.043616 -0.014992
v -0.044556 0.038810 -0.044699
v -0.044459 0.036223 -0.026916
v -0.038612 0.030102 -0.056930
v -0.038050 0.028697 -0.038553
v -0.027143 0.015658 -0.071981
v -0.025701 0.015919 -0.052295
v -0.014600 0.012071 0.090540
v -0.020030 0.046501 0.077382
v -0.016573 0.012071 0.091684
v -0.022067 0.046585 0.078403
v -0.017742 0.012360 0.093921
v -0.023386 0.047199 0.080487
v -0.017795 0.012861 0.096653
v -0.023633 0.048178 0.083075
v -0.016717 0.013440 0.099147
v -0.022743 0.049259 0.085473
v -0.014798 0.013941 0.100735
v -0.020953 0.050154 0.087040
v -0.018826 0.050359 0.086717
v -0.010578 0.014231 0.099847
v -0.016707 0.050539 0.086333
v -0.009409 0.013942 0.097610
v -0.015388 0.049925 0.084250
v -0.009356 0.013441 0.094878
v -0.015141 0.048946 0.081662
v -0.010433 0.012862 0.092384
v -0.016031 0.047864 0.079263
v -0.012353 0.012361 0.090796
v -0.017821 0.046969 0.077697
v -0.018530 0.036141 0.082525
v -0.016588 0.024102 0.087175
v -0.018623 0.024182 0.088200
v -0.020567 0.036229 0.083544
v -0.019937 0.024784 0.090289
v -0.021888 0.036851 0.085624
v -0.020179 0.025747 0.092881
v -0.022136 0.037834 0.088209
v -0.019283 0.026817 0.095282
v -0.021245 0.038912 0.090610
v -0.017491 0.027703 0.096848
v -0.019454 0.039798 0.092181
v -0.013245 0.028085 0.096136
v -0.015208 0.040183 0.091474
v -0.011930 0.027477 0.094049
v -0.013890 0.039577 0.089386
v -0.011688 0.026510 0.091458
v -0.013643 0.038602 0.086796
v -0.012584 0.025444 0.089056
v -0.014533 0.037516 0.084400
v -0.014378 0.024563 0.087488
v -0.016321 0.036613 0.082838
v -0.014532 0.014259 0.102100
v -0.012285 0.014548 0.102357
v -0.018580 0.051196 0.088651
v -0.020790 0.050728 0.088336
v -0.010313 0.014548 0.101213
v -0.016543 0.051112 0.087630
v -0.013079 0.028651 0.097435
v -0.015044 0.040756 0.092771
v -0.015114 0.028734 0.098459
v -0.017080 0.040836 0.093794
v -0.017324 0.028270 0.098146
v -0.019290 0.040372 0.093477
v -0.019066 0.049592 0.084861
v -0.019387 0.048562 0.082368
v -0.019709 0.047531 0.079875
v -0.000830 0.012312 0.138037
v -0.001600 0.010479 0.127008
v -0.001635 0.008039 0.112679
v -0.000954 0.005465 0.097201
v 0.000167 0.003414 0.081371
v 0.001645 0.001532 0.065283
v 0.003049 0.000531 0.049109
v 0.004526 0.000525 0.033307
v 0.006202 0.000995 0.018117
v 0.007141 0.001316 0.003012
v 0.007408 0.001668 -0.012143
v 0.006683 0.001748 -0.027613
v 0.005704 0.001643 -0.043218
v 0.004739 0.001242 -0.059005
v 0.003152 0.000616 -0.074819
v 0.001992 0.000348 -0.090754
v 0.000796 0.000193 -0.106861
v -0.000477 0.000420 -0.123031
v -0.001201 0.000828 -0.136225
vn 0.2900 0.9545 0.0691
vn 0.1689 0.9837 0.0612
vn 0.1723 0.9842 0.0414
vn 0.2970 0.9541 0.0385
vn 0.1599 0.9836 0.0840
vn 0.2751 0.9557 0.1046
vn 0.2577 0.9561 0.1395
vn 0.1551 0.9823 0.1053
vn 0.2452 0.9561 0.1606
vn 0.1470 0.9820 0.1188
vn 0.2564 0.9570 0.1354
vn 0.1507 0.9846 0.0884
vn 0.2885 0.9571 0.0271
vn 0.1617 0.9868 -0.0076
vn 0.2998 0.9503 -0.0838
vn 0.1615 0.9819 -0.0984
vn 0.2948 0.9442 -0.1469
vn 0.1582 0.9770 -0.1428
vn 0.2729 0.9399 -0.2055
vn 0.1474 0.9717 -0.1846
vn 0.2237 0.9410 -0.2541
vn 0.1283 0.9658 -0.2254
vn 0.1666 0.9463 -0.2770
vn 0.1029 0.9659 -0.2378
vn 0.1006 0.9499 -0.2961
vn 0.0641 0.9677 -0.2438
vn 0.0295 0.9509 -0.3080
vn 0.0193 0.9702 -0.2414
vn -0.0273 0.9522 -0.3042
vn -0.0170 0.9690 -0.2464
vn -0.0591 0.9520 -0.3002
vn -0.0404 0.9665 -0.2534
vn -0.0830 0.9503 -0.3001
vn -0.0499 0.9641 -0.2606
vn -0.1354 0.9511 -0.2778
vn -0.0747 0.9689 -0.2357
vn -0.1898 0.9535 -0.2341
vn -0.1033 0.9738 -0.2024
vn -0.2189 0.9546 -0.2018
vn -0.1176 0.9773 -0.1760
vn -0.2354 0.9555 -0.1778
vn -0.1262 0.9795 -0.1572
vn -0.2519 0.9590 -0.1301
vn -0.1356 0.9836 -0.1186
vn -0.2617 0.9642 -0.0437
vn -0.1384 0.9894 -0.0441
vn -0.2570 0.9656 0.0387
vn -0.1274 0.9914 0.0284
vn -0.2454 0.9651 0.0911
vn -0.1147 0.9908 0.0717
vn -0.2358 0.9637 0.1250
vn -0.1056 0.9897 0.0970
vn -0.2368 0.9636 0.1243
vn -0.1049 0.9898 0.0964
vn -0.2453 0.9641 0.1013
vn -0.1108 0.9907 0.0790
vn -0.2534 0.9647 0.0717
vn -0.1152 0.9916 0.0584
vn -0.2577 0.9649 0.0501
vn -0.1247 0.9914 0.0386
vn -0.2605 0.9651 0.0255
vn -0.1257 0.9920 0.0138
vn -0.2622 0.9650 0.0059
vn -0.1321 0.9912 -0.0056
vn -0.2544 0.9663 0.0386
vn -0.1343 0.9908 0.0162
vn -0.2152 0.9690 0.1212
vn -0.1225 0.9895 0.0773
vn -0.0860 0.9871 0.1347
vn -0.1417 0.9695 0.2000
vn -0.0600 0.9689 0.2399
vn -0.0395 0.9884 0.1464
vn 0.0428 0.9683 0.2460
vn 0.0299 0.9880 0.1515
vn 0.1325 0.9646 0.2280
vn 0.0947 0.9846 0.1472
vn 0.2054 0.9632 0.1735
vn 0.1364 0.9838 0.1160
vn 0.2729 0.9593 0.0732
vn 0.1676 0.9849 0.0441
vn 0.2958 0.9551 -0.0167
vn 0.1703 0.9852 -0.0192
vn 0.2975 0.9537 -0.0444
vn 0.1683 0.9851 -0.0351
vn 0.2983 0.9540 -0.0295
vn 0.1713 0.9851 -0.0175
vn 0.2991 0.9542 -0.0009
vn 0.1728 0.9849 0.0099
vn -0.0005 0.9824 -0.1866
vn 0.0052 0.9817 -0.1905
vn 0.0027 0.9835 -0.1807
vn -0.0006 0.9878 -0.1557
vn -0.0009 0.9908 -0.1355
vn 0.0011 0.9941 -0.1089
vn 0.0101 0.9992 -0.0391
vn 0.0248 0.9991 0.0337
vn 0.0365 0.9974 0.0621
vn 0.0416 0.9968 0.0690
vn 0.0395 0.9972 0.0640
vn 0.0365 0.9979 0.0540
vn 0.0344 0.9985 0.0426
vn 0.0299 0.9993 0.0225
vn 0.0243 0.9997 -0.0013
vn 0.0183 0.9996 -0.0211
vn 0.0151 0.9998 -0.0143
vn 0.0157 0.9997 0.0188
vn 0.0175 0.9991 0.0383
vn -0.9289 0.1037 -0.3554
vn -0.9281 0.1035 -0.3576
vn -0.9399 0.1013 -0.3259
vn -0.9387 0.1013 -0.3297
vn 0.9826 0.0992 -0.1573
vn 0.9822 0.0994 -0.1595
vn 0.9905 0.0975 -0.0971
vn 0.9908 0.0975 -0.0940
vn -0.9479 0.1074 -0.2999
vn -0.9468 0.1072 -0.3034
vn -0.1190 0.2350 0.9647
vn -0.1168 0.2351 0.9649
vn 0.1267 0.2378 0.9630
vn 0.1244 0.2378 0.9633
vn -0.4249 0.0847 -0.9013
vn -0.4245 0.0847 -0.9015
vn -0.7632 0.0818 -0.6409
vn -0.7575 0.0818 -0.6477
vn -0.9772 0.1113 -0.1807
vn -0.9758 0.1111 -0.1886
vn -0.9930 0.1094 0.0445
vn -0.9933 0.1090 0.0379
vn -0.9796 0.1187 0.1623
vn -0.9779 0.1196 0.1717
vn -0.1071 0.0904 -0.9901
vn -0.1058 0.0904 -0.9903
vn 0.9925 0.1213 -0.0142
vn 0.9925 0.1213 -0.0133
vn 0.9853 0.1186 -0.1233
vn 0.9850 0.1185 -0.1252
vn -0.9742 0.1019 -0.2012
vn -0.9919 0.1040 -0.0723
vn -0.9922 0.1041 -0.0681
vn 0.9818 0.0947 -0.1648
vn 0.9824 0.0948 -0.1611
vn 0.9086 0.0907 -0.4077
vn 0.9039 0.0904 -0.4181
vn -0.9920 0.1115 -0.0588
vn -0.9918 0.1116 -0.0624
vn 0.9850 0.1247 0.1195
vn 0.9852 0.1246 0.1172
vn 0.8933 0.1533 0.4226
vn 0.8969 0.1524 0.4152
vn 0.9463 0.1371 0.2927
vn 0.9451 0.1376 0.2965
vn 0.9926 0.0956 -0.0753
vn 0.9926 0.0956 -0.0746
vn 0.9708 0.1087 -0.2139
vn 0.9709 0.1089 -0.2134
vn 0.9739 0.1033 -0.2023
vn 0.9742 0.1030 -0.2006
vn 0.9762 0.1149 -0.1837
vn 0.9760 0.1147 -0.1853
vn 0.5732 0.2036 0.7937
vn 0.5833 0.2025 0.7866
vn 0.7874 0.1750 0.5911
vn 0.7802 0.1762 0.6002
vn 0.6383 0.0885 -0.7647
vn 0.6302 0.0885 -0.7714
vn 0.2358 0.0897 -0.9677
vn 0.2362 0.0897 -0.9675
vn 0.3361 0.2250 0.9145
vn 0.3399 0.2246 0.9132
vn -0.7403 0.1753 0.6491
vn -0.7474 0.1742 0.6411
vn -0.4317 0.2123 0.8767
vn -0.4318 0.2123 0.8766
vn 0.9924 0.0940 -0.0794
vn 0.9923 0.0939 -0.0805
vn -0.9919 0.0989 0.0793
vn -0.9919 0.0989 0.0796
vn -0.9923 0.1033 0.0689
vn -0.9922 0.1032 0.0697
vn -0.9940 0.1081 0.0151
vn -0.9940 0.1080 0.0176
vn -0.9179 0.1408 0.3709
vn -0.9235 0.1394 0.3573
vn -0.9608 0.0858 -0.2637
vn -0.9585 0.0855 -0.2719
vn -0.9936 0.0962 0.0588
vn -0.9936 0.0962 0.0591
vn -0.9954 0.0925 -0.0252
vn -0.9954 0.0926 -0.0228
vn 0.9679 0.1294 0.2154
vn 0.9685 0.1292 0.2127
vn 0.9923 0.0949 -0.0799
vn 0.9924 0.0950 -0.0784
vn 0.9907 0.1352 -0.0143
vn 0.9738 0.2273 0.0028
vn 0.9952 -0.0877 -0.0436
vn 0.9815 -0.1846 -0.0504
vn 0.7993 -0.5980 -0.0593
vn 0.8540 -0.5168 -0.0595
vn 0.9060 -0.4191 -0.0601
vn 0.8111 -0.5818 -0.0602
vn 0.9414 0.3338 0.0490
vn 0.9060 0.4173 0.0705
vn 0.8880 0.4442 0.1186
vn 0.8492 0.5093 0.1396
vn 0.8402 0.5107 0.1822
vn 0.7944 0.5732 0.2007
vn 0.7680 0.5965 0.2331
vn 0.7192 0.6508 0.2434
vn 0.6513 0.7126 0.2609
vn 0.6087 0.7475 0.2661
vn 0.4940 0.8249 0.2746
vn 0.4459 0.8492 0.2829
vn 0.3131 0.9040 0.2912
vn 0.2443 0.9154 0.3200
vn 0.0889 0.9407 0.3273
vn -0.0050 0.9262 0.3770
vn 0.4268 0.7608 0.4888
vn 0.5581 0.6220 0.5492
vn -0.0214 0.8152 0.5787
vn -0.0629 0.8899 0.4517
vn -0.4598 0.6705 0.5823
vn -0.3184 0.8391 0.4410
vn -0.9935 0.1092 0.0329
vn -0.9789 0.1935 0.0660
vn -0.8776 0.4450 0.1786
vn -0.9264 0.3505 0.1376
vn -0.9953 -0.0908 -0.0346
vn -0.9987 -0.0473 -0.0208
vn -0.9592 -0.2763 -0.0596
vn -0.9637 -0.2598 -0.0609
vn -0.8944 -0.4449 -0.0460
vn -0.8942 -0.4443 -0.0556
vn -0.8193 -0.5732 -0.0135
vn -0.8137 -0.5811 -0.0147
vn -0.7950 -0.6066 -0.0029
vn -0.7805 -0.6251 0.0033
vn -0.7294 -0.6840 0.0066
vn -0.6979 -0.7159 -0.0193
vn -0.7611 -0.6459 -0.0593
vn -0.7678 -0.6399 -0.0311
vn -0.8698 -0.4861 -0.0842
vn -0.8613 -0.5030 -0.0724
vn -0.9650 -0.2536 -0.0675
vn -0.9512 -0.3003 -0.0704
vn -0.9982 0.0589 0.0107
vn -0.9990 -0.0407 -0.0179
vn -0.9296 0.3478 0.1218
vn -0.9661 0.2449 0.0812
vn -0.7261 0.6330 0.2684
vn -0.8394 0.5030 0.2059
vn -0.4258 0.8235 0.3750
vn -0.5436 0.7644 0.3466
vn 0.1264 0.8968 0.4241
vn -0.0965 0.8944 0.4367
vn -0.0599 0.8926 0.4468
vn -0.1306 0.8982 0.4197
vn 0.0529 0.9195 0.3895
vn 0.1677 0.9182 0.3588
vn 0.3058 0.8935 0.3289
vn 0.4216 0.8554 0.3008
vn 0.5239 0.8047 0.2791
vn 0.5903 0.7614 0.2680
vn 0.6633 0.7060 0.2483
vn 0.6848 0.6877 0.2412
vn 0.6848 0.6963 0.2152
vn 0.7311 0.6510 0.2042
vn 0.7292 0.6640 0.1653
vn 0.7826 0.6052 0.1460
vn 0.7905 0.6043 0.0998
vn 0.8497 0.5216 0.0769
vn 0.8942 0.4469 0.0270
vn 0.9487 0.3162 0.0069
vn 0.9947 0.0975 -0.0329
vn 0.9981 -0.0460 -0.0417
vn 0.8474 -0.5275 -0.0607
vn 0.9199 -0.3880 -0.0576
vn 0.9479 -0.3136 -0.0556
vn 0.8639 -0.5006 -0.0562
vn -0.5070 0.5336 0.6770
vn -0.7386 0.6211 0.2620
vn -0.6190 0.7182 0.3177
vn -0.1608 0.8968 0.4122
vn -0.3160 0.8707 0.3768
vn -0.0241 0.9001 0.4349
vn 0.0096 0.9274 0.3739
vn -0.9904 -0.1374 0.0136
vn -0.9816 0.1844 0.0498
vn -0.9952 0.0873 0.0433
vn -0.9733 -0.2294 -0.0030
vn -0.7975 0.6003 0.0606
vn -0.8091 0.5845 0.0612
vn -0.9053 0.4206 0.0602
vn -0.8524 0.5193 0.0603
vn -0.9411 -0.3346 -0.0494
vn -0.9056 -0.4182 -0.0708
vn -0.8879 -0.4445 -0.1188
vn -0.8491 -0.5094 -0.1397
vn -0.8402 -0.5108 -0.1820
vn -0.7945 -0.5732 -0.2006
vn -0.7683 -0.5961 -0.2330
vn -0.7193 -0.6507 -0.2434
vn -0.6517 -0.7122 -0.2610
vn -0.6089 -0.7473 -0.2661
vn -0.4940 -0.8249 -0.2747
vn -0.4459 -0.8493 -0.2827
vn -0.3139 -0.9038 -0.2909
vn -0.2450 -0.9154 -0.3195
vn -0.0874 -0.9408 -0.3275
vn 0.0064 -0.9258 -0.3780
vn -0.3770 -0.7687 -0.5166
vn 0.0166 -0.8035 -0.5951
vn -0.0357 -0.6706 -0.7409
vn -0.4830 -0.6333 -0.6047
vn 0.0609 -0.8886 -0.4547
vn 0.3069 -0.8418 -0.4440
vn 0.4069 -0.6913 -0.5971
vn 0.9935 -0.1089 -0.0324
vn 0.9269 -0.3495 -0.1368
vn 0.8780 -0.4444 -0.1777
vn 0.9788 -0.1939 -0.0658
vn 0.9953 0.0907 0.0348
vn 0.9987 0.0470 0.0211
vn 0.9593 0.2762 0.0595
vn 0.9638 0.2596 0.0610
vn 0.8943 0.4452 0.0457
vn 0.8941 0.4444 0.0554
vn 0.8190 0.5737 0.0134
vn 0.8136 0.5813 0.0144
vn 0.7949 0.6067 0.0029
vn 0.7805 0.6252 -0.0033
vn 0.7289 0.6846 -0.0072
vn 0.7673 0.6406 0.0309
vn 0.7603 0.6468 0.0599
vn 0.6972 0.7166 0.0191
vn 0.8608 0.5038 0.0728
vn 0.8694 0.4867 0.0851
vn 0.9509 0.3011 0.0712
vn 0.9647 0.2542 0.0690
vn 0.9990 0.0413 0.0188
vn 0.9981 -0.0601 -0.0104
vn 0.9663 -0.2445 -0.0805
vn 0.9298 -0.3477 -0.1205
vn 0.8409 -0.5011 -0.2043
vn 0.7261 -0.6329 -0.2686
vn 0.5462 -0.7629 -0.3458
vn 0.4330 -0.8217 -0.3706
vn 0.0982 -0.8945 -0.4361
vn -0.1243 -0.8958 -0.4267
vn 0.0559 -0.8918 -0.4489
vn 0.1275 -0.8986 -0.4199
vn -0.1689 -0.9183 -0.3581
vn -0.0559 -0.9199 -0.3881
vn -0.4232 -0.8549 -0.3000
vn -0.3060 -0.8935 -0.3287
vn -0.5909 -0.7611 -0.2676
vn -0.5243 -0.8047 -0.2784
vn -0.6854 -0.6871 -0.2411
vn -0.6645 -0.7050 -0.2477
vn -0.7311 -0.6509 -0.2043
vn -0.6847 -0.6963 -0.2153
vn -0.7824 -0.6053 -0.1463
vn -0.7292 -0.6640 -0.1655
vn -0.8491 -0.5225 -0.0775
vn -0.7901 -0.6047 -0.1005
vn -0.9481 -0.3179 -0.0073
vn -0.8930 -0.4493 -0.0283
vn -0.9980 0.0467 0.0425
vn -0.9944 -0.1004 0.0331
vn -0.8457 0.5301 0.0611
vn -0.8624 0.5030 0.0571
vn -0.9465 0.3176 0.0575
vn -0.9188 0.3905 0.0583
vn 0.4250 -0.5581 -0.7127
vn 0.7413 -0.6186 -0.2603
vn 0.3148 -0.8705 -0.3783
vn 0.1563 -0.8968 -0.4138
vn 0.6201 -0.7175 -0.3173
vn -0.0173 -0.9266 -0.3757
vn 0.0182 -0.8997 -0.4362
vn -0.3348 0.5374 -0.7740
vn -0.3354 0.5410 -0.7713
vn -0.3187 0.4472 -0.8357
vn -0.2942 0.6650 -0.6865
vn -0.2909 0.6674 -0.6856
vn -0.1802 0.7496 -0.6368
vn -0.1772 0.7519 -0.6350
vn -0.0571 0.8377 -0.5432
vn -0.0547 0.8393 -0.5409
vn 0.0892 0.8837 -0.4594
vn 0.0926 0.8839 -0.4584
vn 0.2649 0.8525 -0.4506
vn 0.2700 0.8505 -0.4514
vn 0.4713 0.7332 -0.4902
vn 0.4811 0.7254 -0.4923
vn 0.5883 0.5280 -0.6125
vn 0.5879 0.5137 -0.6248
vn 0.5780 0.3952 -0.7140
vn -0.6336 0.3355 -0.6971
vn -0.6336 0.3357 -0.6970
vn -0.6278 0.3049 -0.7161
vn -0.6224 0.4293 -0.6545
vn -0.6231 0.4271 -0.6553
vn -0.5641 0.5469 -0.6186
vn -0.5656 0.5448 -0.6191
vn -0.4735 0.6447 -0.6001
vn -0.4756 0.6430 -0.6004
vn -0.3847 0.7058 -0.5948
vn -0.3857 0.7053 -0.5948
vn -0.3226 0.7298 -0.6027
vn -0.2760 0.7317 -0.6232
vn -0.2758 0.7317 -0.6234
vn -0.2080 0.7253 -0.6563
vn -0.2080 0.7253 -0.6562
vn -0.0846 0.7051 -0.7041
vn -0.0865 0.7055 -0.7034
vn 0.0888 0.6380 -0.7649
vn 0.0829 0.6411 -0.7629
vn 0.2391 0.5540 -0.7974
vn 0.2353 0.5561 -0.7971
vn 0.2955 0.5218 -0.8002
vn 0.4415 -0.5395 0.7170
vn 0.4179 -0.5954 0.6862
vn 0.4161 -0.5995 0.6838
vn 0.3370 -0.7248 0.6009
vn 0.3326 -0.7303 0.5967
vn 0.1777 -0.8329 0.5241
vn 0.1701 -0.8355 0.5225
vn -0.0400 -0.8820 0.4695
vn -0.0495 -0.8831 0.4666
vn -0.2769 -0.8656 0.4173
vn -0.2832 -0.8639 0.4164
vn -0.5029 -0.7574 0.4165
vn -0.5089 -0.7529 0.4174
vn -0.7063 -0.5326 0.4663
vn -0.7123 -0.5229 0.4682
vn 0.8951 0.1595 0.4164
vn 0.8884 0.1269 0.4413
vn 0.8883 0.1265 0.4416
vn -0.8324 -0.0004 0.5542
vn -0.8327 -0.0018 0.5537
vn -0.8211 0.0489 0.5686
vn 0.8227 -0.2389 0.5158
vn 0.8218 -0.2416 0.5160
vn 0.7265 -0.4414 0.5267
vn 0.7276 -0.4397 0.5265
vn 0.6258 -0.5788 0.5229
vn 0.6274 -0.5767 0.5232
vn 0.5387 -0.6495 0.5366
vn 0.5381 -0.6497 0.5370
vn 0.4839 -0.6593 0.5755
vn 0.4838 -0.6592 0.5757
vn 0.4569 -0.6564 0.6003
vn 0.4567 -0.6565 0.6004
vn 0.4117 -0.6711 0.6166
vn 0.2934 -0.6986 0.6527
vn 0.2977 -0.6980 0.6513
vn 0.0776 -0.7021 0.7079
vn 0.0896 -0.7030 0.7055
vn -0.1312 -0.6354 0.7609
vn -0.1267 -0.6382 0.7594
vn -0.2134 -0.5803 0.7860
vn 0.8719 -0.0155 0.4894
vn 0.8729 -0.0071 0.4878
vn -0.8295 -0.1961 0.5229
vn -0.8248 -0.2254 0.5185
vn 0.4436 -0.1650 -0.8809
vn -0.1485 -0.2890 -0.9457
vn -0.1399 -0.3324 -0.9327
vn 0.4516 -0.2095 -0.8673
vn -0.9489 -0.2309 -0.2154
vn -0.9703 -0.1180 0.2110
vn -0.9766 -0.1069 0.1867
vn -0.9440 -0.2381 -0.2285
vn -0.8025 0.0181 0.5964
vn -0.8230 0.0448 0.5662
vn -0.8754 -0.0343 0.4822
vn -0.8797 0.0007 0.4756
vn 0.9682 0.2090 0.1376
vn 0.9837 0.0808 -0.1604
vn 0.9764 0.1138 -0.1835
vn 0.9691 0.2134 0.1234
vn -0.1447 0.9172 -0.3713
vn -0.1459 0.9133 -0.3802
vn -0.1493 0.9130 -0.3796
vn -0.1459 0.9178 -0.3693
vn 0.9698 0.2160 0.1129
vn 0.9432 0.2371 0.2329
vn 0.9397 0.2421 0.2415
vn 0.9744 0.1253 -0.1865
vn 0.9783 0.1105 -0.1751
vn 0.8207 -0.0105 -0.5713
vn 0.8286 -0.0426 -0.5583
vn -0.1436 0.9210 -0.3622
vn -0.6887 -0.3058 -0.6574
vn -0.6780 -0.3331 -0.6552
vn 0.8437 -0.1025 -0.5269
vn 0.4743 -0.2930 -0.8302
vn 0.4736 -0.3357 -0.8143
vn 0.8401 -0.1387 -0.5244
vn 0.9844 0.0830 -0.1551
vn 0.9845 0.0611 -0.1641
vn 0.9357 0.2524 0.2465
vn 0.9411 0.2495 0.2282
vn 0.9624 0.2191 0.1606
vn -0.9764 -0.1140 0.1836
vn -0.9837 -0.0808 0.1604
vn -0.8947 0.0572 0.4430
vn 0.9859 0.0664 -0.1539
vn -0.8387 0.1064 0.5341
vn -0.8898 0.0929 0.4468
vn -0.8499 0.1304 0.5106
vn -0.9831 -0.0777 0.1656
vn -0.9869 -0.0711 0.1446
vn -0.9401 -0.2473 -0.2347
vn -0.9329 -0.2591 -0.2499
vn -0.6625 -0.3846 -0.6428
vn -0.6435 -0.4131 -0.6444
vn -0.1161 -0.4153 -0.9022
vn -0.1012 -0.4541 -0.8852
vn -0.9859 -0.0664 0.1539
vn -0.1621 0.2346 0.9585
vn 0.1688 0.2921 0.9414
vn 0.1324 0.3322 0.9339
vn -0.1814 0.2802 0.9426
vn 0.4564 0.3160 0.8318
vn 0.4424 0.3496 0.8259
vn 0.1100 0.4140 0.9036
vn 0.4210 0.4192 0.8044
vn 0.4146 0.4521 0.7898
vn 0.1110 0.4548 0.8837
vn -0.2068 0.3674 0.9068
vn -0.2132 0.4095 0.8870
vn -0.9701 -0.1346 0.2020
vn -0.1431 0.9180 -0.3698
vn -0.1425 0.9136 -0.3807
vn 0.9701 0.1345 -0.2019
vn -0.0009 -0.9864 0.1643
vn -0.0003 -0.9865 0.1635
vn -0.0086 -0.9858 0.1675
vn -0.0081 -0.9856 0.1686
vn -0.0189 -0.9853 0.1700
vn -0.0151 -0.9848 0.1728
vn 0.0014 -0.9854 0.1702
vn -0.0091 -0.9858 0.1676
vn -0.0198 -0.9860 0.1653
vn 0.0048 -0.9847 0.1739
vn -0.0068 -0.9861 0.1663
vn -0.0176 -0.9876 0.1561
vn 0.0090 -0.9875 0.1571
vn -0.0032 -0.9889 0.1482
vn -0.0152 -0.9908 0.1345
vn 0.0128 -0.9911 0.1325
vn 0.0001 -0.9924 0.1230
vn -0.0125 -0.9937 0.1114
vn 0.0140 -0.9952 0.0968
vn 0.0020 -0.9963 0.0858
vn -0.0095 -0.9971 0.0749
vn 0.0111 -0.9992 0.0375
vn 0.0010 -0.9996 0.0287
vn -0.0084 -0.9996 0.0272
vn 0.0053 -0.9998 -0.0174
vn -0.0037 -0.9999 -0.0155
vn -0.0115 -0.9999 -0.0062
vn -0.0026 -0.9991 -0.0423
vn -0.0117 -0.9996 -0.0268
vn -0.0186 -0.9998 -0.0116
vn -0.0112 -0.9992 -0.0384
vn -0.0203 -0.9996 -0.0218
vn -0.0276 -0.9996 -0.0077
vn -0.0163 -0.9996 -0.0221
vn -0.0260 -0.9996 -0.0119
vn -0.0351 -0.9994 -0.0053
vn -0.0154 -0.9999 0.0003
vn -0.0266 -0.9996 0.0031
vn -0.0379 -0.9993 0.0038
vn -0.0100 -0.9997 0.0217
vn -0.0224 -0.9996 0.0174
vn -0.0354 -0.9993 0.0115
vn -0.0026 -0.9993 0.0383
vn -0.0150 -0.9994 0.0302
vn -0.0275 -0.9994 0.0216
vn -0.0000 -0.9995 0.0325
vn -0.0089 -0.9997 0.0237
vn -0.0181 -0.9997 0.0165
vn 0.0006 -0.9998 0.0179
vn -0.0046 -0.9999 0.0106
vn -0.0100 -0.9999 0.0036
vn 0.0036 -1.0000 0.0076
vn -0.0007 -1.0000 0.0004
vn -0.0055 -1.0000 -0.0041
vn 0.0050 -0.9999 -0.0130
vn -0.0000 -0.9998 -0.0219
vn -0.0046 -0.9998 -0.0209
vn 0.0029 -0.9995 -0.0327
vn -0.0004 -0.9995 -0.0309
vn -0.0036 -0.9994 -0.0342
vn -0.0015 -0.9995 -0.0303
vn -0.0002 -0.9996 -0.0272
vn 0.0009 -0.9997 -0.0244
vt 0.680722 0.790726
vt 0.674883 0.751796
vt 0.718762 0.748275
vt 0.721466 0.787570
vt 0.629545 0.759340
vt 0.640226 0.797354
vt 0.601566 0.810492
vt 0.586529 0.774141
vt 0.563950 0.826350
vt 0.546962 0.790923
vt 0.526824 0.843554
vt 0.511369 0.807637
vt 0.488336 0.856795
vt 0.478270 0.818965
vt 0.447830 0.864182
vt 0.443669 0.825137
vt 0.406771 0.866779
vt 0.407603 0.827578
vt 0.365611 0.864421
vt 0.374849 0.825748
vt 0.325686 0.856141
vt 0.343771 0.820189
vt 0.289304 0.837225
vt 0.318635 0.808735
vt 0.263723 0.806184
vt 0.298457 0.787408
vt 0.250823 0.765583
vt 0.289248 0.758679
vt 0.248915 0.724725
vt 0.287768 0.727066
vt 0.255884 0.684369
vt 0.293382 0.694818
vt 0.271435 0.646393
vt 0.305131 0.666292
vt 0.298559 0.615376
vt 0.325269 0.643619
vt 0.332399 0.591679
vt 0.352449 0.624893
vt 0.369295 0.574787
vt 0.384438 0.610443
vt 0.407992 0.561547
vt 0.419796 0.598431
vt 0.448072 0.551409
vt 0.455795 0.589387
vt 0.488749 0.546329
vt 0.490763 0.585107
vt 0.529895 0.547234
vt 0.526925 0.586015
vt 0.570653 0.551427
vt 0.564828 0.589816
vt 0.611096 0.557509
vt 0.603831 0.595656
vt 0.651595 0.564070
vt 0.644723 0.602382
vt 0.692126 0.569163
vt 0.687030 0.607797
vt 0.732875 0.572194
vt 0.730356 0.611136
vt 0.773806 0.572192
vt 0.772140 0.611173
vt 0.814595 0.573887
vt 0.813043 0.612868
vt 0.855520 0.574255
vt 0.854169 0.613171
vt 0.896497 0.576027
vt 0.891483 0.614609
vt 0.936594 0.583876
vt 0.921350 0.620193
vt 0.936328 0.629545
vt 0.966266 0.602786
vt 0.984104 0.637213
vt 0.946186 0.648648
vt 0.989331 0.684088
vt 0.949848 0.682185
vt 0.980992 0.725276
vt 0.944077 0.710789
vt 0.959455 0.760804
vt 0.931095 0.732218
vt 0.925198 0.780504
vt 0.911373 0.743348
vt 0.885163 0.787300
vt 0.881072 0.748282
vt 0.844178 0.788489
vt 0.843520 0.749197
vt 0.803253 0.788280
vt 0.803386 0.748930
vt 0.762354 0.787282
vt 0.761940 0.747906
vt 0.303570 0.726812
vt 0.324063 0.724896
vt 0.352088 0.721745
vt 0.383128 0.717930
vt 0.417187 0.713218
vt 0.450379 0.708135
vt 0.485785 0.702945
vt 0.520833 0.697673
vt 0.557750 0.691211
vt 0.597189 0.685865
vt 0.639317 0.682005
vt 0.683479 0.681145
vt 0.727504 0.681229
vt 0.768208 0.681229
vt 0.806113 0.682588
vt 0.846316 0.683165
vt 0.884204 0.683596
vt 0.913251 0.684030
vt 0.932516 0.683635
vt 0.496490 0.946487
vt 0.496490 0.906629
vt 0.537310 0.906629
vt 0.537310 0.946487
vt 0.543012 0.992792
vt 0.543012 0.954641
vt 0.583414 0.954641
vt 0.583414 0.992792
vt 0.456009 0.946487
vt 0.456009 0.906629
vt 0.869723 0.946487
vt 0.869723 0.906629
vt 0.910992 0.906629
vt 0.910992 0.946487
vt 0.047448 0.946487
vt 0.047448 0.906629
vt 0.089949 0.906629
vt 0.089949 0.946487
vt 0.415719 0.946487
vt 0.415719 0.906629
vt 0.660637 0.946487
vt 0.660637 0.906629
vt 0.701979 0.906629
vt 0.701979 0.946487
vt 0.004885 0.946487
vt 0.004885 0.906629
vt 0.339164 0.992792
vt 0.339164 0.954641
vt 0.380287 0.954641
vt 0.380287 0.992792
vt 0.578246 0.946487
vt 0.578246 0.906629
vt 0.619452 0.906629
vt 0.619452 0.946487
vt 0.746210 0.992792
vt 0.746210 0.954641
vt 0.787598 0.954641
vt 0.787598 0.992792
vt 0.375277 0.946487
vt 0.375277 0.906629
vt 0.298071 0.992792
vt 0.298071 0.954641
vt 0.174962 0.992792
vt 0.174962 0.954641
vt 0.215753 0.954641
vt 0.215752 0.992792
vt 0.705210 0.992792
vt 0.705210 0.954641
vt 0.461827 0.992792
vt 0.461827 0.954641
vt 0.502558 0.954641
vt 0.502558 0.992792
vt 0.421082 0.954641
vt 0.421082 0.992792
vt 0.091345 0.992792
vt 0.091345 0.954641
vt 0.133202 0.954641
vt 0.133202 0.992792
vt 0.823920 0.954641
vt 0.823920 0.992792
vt 0.863671 0.992792
vt 0.863671 0.954641
vt 0.911291 0.954641
vt 0.911291 0.992792
vt 0.049790 0.992792
vt 0.049790 0.954641
vt 0.785262 0.946487
vt 0.785262 0.906629
vt 0.826466 0.906629
vt 0.826466 0.946487
vt 0.664554 0.992792
vt 0.664554 0.954641
vt 0.253677 0.946487
vt 0.253677 0.906629
vt 0.294346 0.906629
vt 0.294346 0.946487
vt 0.008570 0.992792
vt 0.008570 0.954641
vt 0.334869 0.906629
vt 0.334869 0.946487
vt 0.743457 0.946487
vt 0.743457 0.906629
vt 0.130657 0.906629
vt 0.130657 0.946487
vt 0.212880 0.946487
vt 0.212880 0.906629
vt 0.171897 0.946487
vt 0.171897 0.906629
vt 0.256707 0.992792
vt 0.256707 0.954641
vt 0.623992 0.992792
vt 0.623992 0.954641
vt 0.892704 0.372508
vt 0.881656 0.333046
vt 0.916505 0.350744
vt 0.928133 0.389245
vt 0.991339 0.413420
vt 0.964836 0.403159
vt 0.951511 0.365552
vt 0.979621 0.377542
vt 0.859109 0.353387
vt 0.848657 0.312794
vt 0.826941 0.332635
vt 0.817044 0.291325
vt 0.795655 0.310838
vt 0.786146 0.268567
vt 0.764804 0.288442
vt 0.755988 0.244861
vt 0.734275 0.265329
vt 0.726780 0.220508
vt 0.704235 0.241505
vt 0.698043 0.195251
vt 0.674622 0.217085
vt 0.670845 0.168892
vt 0.649097 0.196569
vt 0.647600 0.151120
vt 0.621479 0.028249
vt 0.630041 0.006346
vt 0.635264 0.009088
vt 0.632044 0.032920
vt 0.630796 0.056462
vt 0.643720 0.030711
vt 0.652066 0.053383
vt 0.509205 0.285404
vt 0.514853 0.238318
vt 0.546690 0.208088
vt 0.541799 0.256565
vt 0.475383 0.312230
vt 0.481251 0.265487
vt 0.438397 0.334364
vt 0.445784 0.289457
vt 0.399991 0.353519
vt 0.409593 0.311496
vt 0.361258 0.371526
vt 0.372333 0.331288
vt 0.299918 0.386138
vt 0.314139 0.351449
vt 0.329210 0.302938
vt 0.340325 0.262678
vt 0.395927 0.237807
vt 0.384504 0.285265
vt 0.429301 0.219700
vt 0.419585 0.266208
vt 0.461411 0.197181
vt 0.452681 0.245710
vt 0.492988 0.173586
vt 0.486423 0.222567
vt 0.526033 0.144348
vt 0.519831 0.195189
vt 0.556661 0.113365
vt 0.550866 0.165509
vt 0.585145 0.082157
vt 0.581591 0.129989
vt 0.608042 0.053245
vt 0.611286 0.103347
vt 0.630025 0.096295
vt 0.648415 0.103879
vt 0.667736 0.077816
vt 0.668917 0.122794
vt 0.686149 0.100252
vt 0.692226 0.148647
vt 0.711081 0.126048
vt 0.719279 0.174689
vt 0.736280 0.150940
vt 0.746534 0.198009
vt 0.764483 0.175351
vt 0.775235 0.221478
vt 0.794482 0.199124
vt 0.805433 0.244538
vt 0.825013 0.221667
vt 0.836513 0.266443
vt 0.856679 0.243339
vt 0.868923 0.286992
vt 0.890226 0.262122
vt 0.903200 0.304775
vt 0.966092 0.331488
vt 0.935643 0.318648
vt 0.921156 0.276707
vt 0.955918 0.290608
vt 0.640196 0.007896
vt 0.574923 0.227533
vt 0.578611 0.176440
vt 0.611145 0.151630
vt 0.607610 0.197276
vt 0.630025 0.141873
vt 0.630177 0.181738
vt 0.379577 0.559973
vt 0.346284 0.576990
vt 0.357411 0.538375
vt 0.390137 0.520462
vt 0.286041 0.601707
vt 0.297779 0.565831
vt 0.324674 0.553609
vt 0.311936 0.591376
vt 0.411776 0.540978
vt 0.421755 0.500374
vt 0.443080 0.520568
vt 0.452611 0.479279
vt 0.473793 0.499163
vt 0.482932 0.456900
vt 0.503898 0.477026
vt 0.512393 0.433412
vt 0.533374 0.453943
vt 0.540682 0.409094
vt 0.562182 0.430058
vt 0.568203 0.383814
vt 0.590537 0.405668
vt 0.594038 0.357638
vt 0.614547 0.385389
vt 0.615601 0.340300
vt 0.644886 0.219768
vt 0.631731 0.224429
vt 0.629558 0.202430
vt 0.637609 0.199515
vt 0.632741 0.246418
vt 0.609545 0.243026
vt 0.617802 0.222209
vt 0.743382 0.475040
vt 0.712812 0.446118
vt 0.708919 0.397660
vt 0.738579 0.427950
vt 0.775605 0.502083
vt 0.770261 0.455316
vt 0.811184 0.524687
vt 0.804107 0.479720
vt 0.848334 0.544534
vt 0.838906 0.502428
vt 0.886061 0.563266
vt 0.875183 0.522943
vt 0.947049 0.578306
vt 0.932917 0.543607
vt 0.917749 0.495155
vt 0.862751 0.476978
vt 0.851375 0.429362
vt 0.906517 0.454905
vt 0.828633 0.457170
vt 0.819224 0.410518
vt 0.797096 0.436006
vt 0.788901 0.387358
vt 0.765315 0.412395
vt 0.759681 0.363339
vt 0.734153 0.384785
vt 0.728970 0.333935
vt 0.705421 0.355109
vt 0.701121 0.303034
vt 0.677768 0.319675
vt 0.675347 0.271884
vt 0.651548 0.293143
vt 0.656479 0.243214
vt 0.633147 0.286118
vt 0.614208 0.293360
vt 0.595649 0.311768
vt 0.596239 0.266906
vt 0.574055 0.337324
vt 0.579478 0.289004
vt 0.548232 0.363275
vt 0.556089 0.314618
vt 0.521722 0.386490
vt 0.531987 0.339456
vt 0.493370 0.409684
vt 0.503870 0.363559
vt 0.463633 0.432346
vt 0.474218 0.386958
vt 0.433301 0.453866
vt 0.444275 0.409088
vt 0.402454 0.474281
vt 0.413900 0.430517
vt 0.370640 0.492361
vt 0.382811 0.449510
vt 0.311063 0.519701
vt 0.321178 0.478814
vt 0.354649 0.464654
vt 0.340514 0.506702
vt 0.621811 0.201434
vt 0.682260 0.417041
vt 0.653248 0.386752
vt 0.651023 0.341282
vt 0.679922 0.366059
vt 0.633043 0.370991
vt 0.633147 0.331582
vt 0.333719 0.895493
vt 0.333719 0.888521
vt 0.396797 0.888521
vt 0.396797 0.895493
vt 0.291212 0.895493
vt 0.291212 0.888521
vt 0.248609 0.895493
vt 0.248609 0.888521
vt 0.205901 0.895493
vt 0.205901 0.888521
vt 0.163201 0.895493
vt 0.163201 0.888521
vt 0.120315 0.895493
vt 0.120315 0.888521
vt 0.077123 0.895493
vt 0.077123 0.888521
vt 0.033793 0.895493
vt 0.033793 0.888521
vt 0.007212 0.895493
vt 0.007212 0.888521
vt 0.506837 0.888084
vt 0.506837 0.895074
vt 0.482971 0.895074
vt 0.482971 0.888084
vt 0.539059 0.888084
vt 0.539059 0.895074
vt 0.577108 0.888084
vt 0.577108 0.895074
vt 0.615145 0.888084
vt 0.615145 0.895073
vt 0.653168 0.888084
vt 0.653168 0.895073
vt 0.691079 0.888084
vt 0.691079 0.895073
vt 0.729038 0.888084
vt 0.729038 0.895073
vt 0.767049 0.888084
vt 0.767049 0.895073
vt 0.805255 0.888084
vt 0.805255 0.895073
vt 0.843726 0.888084
vt 0.843726 0.895073
vt 0.882149 0.888084
vt 0.882149 0.895073
vt 0.910430 0.888084
vt 0.910430 0.895074
vt 0.926714 0.868018
vt 0.926714 0.874967
vt 0.866001 0.874967
vt 0.866001 0.868018
vt 0.828432 0.874967
vt 0.828432 0.868018
vt 0.789799 0.874967
vt 0.789799 0.868018
vt 0.751232 0.874967
vt 0.751232 0.868018
vt 0.707973 0.874967
vt 0.707973 0.868018
vt 0.665447 0.874967
vt 0.665447 0.868018
vt 0.624201 0.874967
vt 0.624201 0.868018
vt 0.976181 0.846799
vt 0.976181 0.853771
vt 0.953576 0.853771
vt 0.953576 0.846799
vt 0.561440 0.868018
vt 0.561440 0.874967
vt 0.538514 0.874967
vt 0.538514 0.868018
vt 0.901700 0.846799
vt 0.901700 0.853771
vt 0.873253 0.853771
vt 0.873253 0.846799
vt 0.837889 0.853771
vt 0.837889 0.846799
vt 0.802777 0.853771
vt 0.802777 0.846799
vt 0.765502 0.853771
vt 0.765502 0.846799
vt 0.727373 0.853771
vt 0.727373 0.846799
vt 0.689688 0.853771
vt 0.689688 0.846799
vt 0.651838 0.853771
vt 0.651838 0.846799
vt 0.614333 0.853771
vt 0.614333 0.846799
vt 0.581194 0.853771
vt 0.581194 0.846799
vt 0.544242 0.853771
vt 0.544242 0.846799
vt 0.930082 0.853771
vt 0.930082 0.846799
vt 0.588612 0.868018
vt 0.588612 0.874967
vt 0.111780 0.800347
vt 0.111780 0.806237
vt 0.076193 0.806237
vt 0.076193 0.800347
vt 0.111780 0.818690
vt 0.111780 0.825864
vt 0.076193 0.825864
vt 0.076193 0.818690
vt 0.111780 0.833039
vt 0.076193 0.833039
vt 0.111780 0.839603
vt 0.076193 0.839603
vt 0.042365 0.772871
vt 0.042365 0.769184
vt 0.076193 0.769184
vt 0.076193 0.772871
vt 0.013278 0.030776
vt 0.012132 0.036153
vt 0.007049 0.033142
vt 0.007820 0.029526
vt 0.111780 0.772871
vt 0.111780 0.779435
vt 0.076193 0.779435
vt 0.111780 0.786610
vt 0.076193 0.786610
vt 0.111780 0.793784
vt 0.076193 0.793784
vt 0.014369 0.025653
vt 0.004886 0.023632
vt 0.111780 0.812127
vt 0.076193 0.812127
vt 0.042365 0.793784
vt 0.042365 0.800347
vt 0.012260 0.800347
vt 0.012260 0.793784
vt 0.042365 0.786610
vt 0.012260 0.786610
vt 0.042365 0.779435
vt 0.012260 0.779435
vt 0.012260 0.772871
vt 0.076193 0.843289
vt 0.042365 0.843289
vt 0.042365 0.839603
vt 0.012260 0.769184
vt 0.042365 0.833039
vt 0.012260 0.839603
vt 0.012260 0.833039
vt 0.042365 0.825864
vt 0.012260 0.825864
vt 0.042365 0.818690
vt 0.012260 0.818690
vt 0.042365 0.812127
vt 0.012260 0.812127
vt 0.042365 0.806237
vt 0.012260 0.806237
vt 0.012260 0.843289
vt 0.012356 0.872240
vt 0.012356 0.866335
vt 0.050914 0.866335
vt 0.050914 0.872240
vt 0.012356 0.860429
vt 0.050914 0.860429
vt 0.084892 0.866335
vt 0.084892 0.860429
vt 0.115091 0.860429
vt 0.115091 0.866335
vt 0.084892 0.872240
vt 0.115091 0.872240
vt 0.111780 0.843289
vt 0.018771 0.031859
vt 0.018000 0.035476
vt 0.111780 0.769184
vt 0.015837 0.018769
vt 0.004886 0.016436
vt 0.023853 0.027674
vt 0.026787 0.021103
vt 0.017304 0.011886
vt 0.007820 0.009865
vt 0.026787 0.013907
vt 0.018771 0.005002
vt 0.012902 0.005680
vt 0.023853 0.008013
vt 0.230815 0.007258
vt 0.272432 0.021356
vt 0.190551 0.021110
vt 0.189191 0.004904
vt 0.109025 0.027736
vt 0.148134 0.011879
vt 0.304247 0.049111
vt 0.190478 0.050148
vt 0.076771 0.055578
vt 0.323167 0.087343
vt 0.187881 0.087730
vt 0.052374 0.090237
vt 0.330923 0.128903
vt 0.183219 0.128173
vt 0.035051 0.127622
vt 0.332738 0.170552
vt 0.177375 0.169246
vt 0.021326 0.166487
vt 0.329702 0.211969
vt 0.170563 0.210863
vt 0.010549 0.206672
vt 0.321905 0.252809
vt 0.163936 0.252515
vt 0.004886 0.247766
vt 0.307610 0.291542
vt 0.157192 0.293108
vt 0.005475 0.289242
vt 0.289317 0.328040
vt 0.150046 0.332092
vt 0.009278 0.330007
vt 0.272930 0.364772
vt 0.144819 0.370978
vt 0.014947 0.370404
vt 0.259341 0.402207
vt 0.141325 0.410110
vt 0.021213 0.410489
vt 0.252268 0.441522
vt 0.140317 0.450218
vt 0.025886 0.450429
vt 0.248458 0.481381
vt 0.139927 0.490719
vt 0.028505 0.490466
vt 0.247607 0.521636
vt 0.139444 0.531704
vt 0.028011 0.530908
vt 0.248253 0.562181
vt 0.140559 0.572895
vt 0.029135 0.571433
vt 0.248321 0.602992
vt 0.140559 0.614297
vt 0.028642 0.612084
vt 0.247309 0.644117
vt 0.140623 0.656146
vt 0.029340 0.653368
vt 0.240362 0.685570
vt 0.140872 0.698174
vt 0.036341 0.694983
vt 0.219330 0.721887
vt 0.140262 0.732422
vt 0.055833 0.727132
vt 0.182063 0.744403
vt 0.139653 0.752859
vt 0.091700 0.746759
s 1
f 6/1/1 50/2/2 76/3/3 32/4/4
f 70/5/5 50/2/2 6/1/1 26/6/6
f 25/7/7 69/8/8 70/5/5 26/6/6
f 10/9/9 54/10/10 69/8/8 25/7/7
f 23/11/11 67/12/12 54/10/10 10/9/9
f 14/13/13 58/14/14 67/12/12 23/11/11
f 21/15/15 65/16/16 58/14/14 14/13/13
f 13/17/17 57/18/18 65/16/16 21/15/15
f 20/19/19 64/20/20 57/18/18 13/17/17
f 19/21/21 63/22/22 64/20/20 20/19/19
f 12/23/23 56/24/24 63/22/22 19/21/21
f 44/25/25 88/26/26 56/24/24 12/23/23
f 11/27/27 55/28/28 88/26/26 44/25/25
f 18/29/29 62/30/30 55/28/28 11/27/27
f 17/31/31 61/32/32 62/30/30 18/29/29
f 16/33/33 60/34/34 61/32/32 17/31/31
f 22/35/35 66/36/36 60/34/34 16/33/33
f 15/37/37 59/38/38 66/36/36 22/35/35
f 24/39/39 68/40/40 59/38/38 15/37/37
f 9/41/41 53/42/42 68/40/40 24/39/39
f 28/43/43 72/44/44 53/42/42 9/41/41
f 27/45/45 71/46/46 72/44/44 28/43/43
f 2/47/47 46/48/48 71/46/46 27/45/45
f 29/49/49 73/50/50 46/48/48 2/47/47
f 30/51/51 74/52/52 73/50/50 29/49/49
f 4/53/53 48/54/54 74/52/52 30/51/51
f 38/55/55 82/56/56 48/54/54 4/53/53
f 37/57/57 81/58/58 82/56/56 38/55/55
f 36/59/59 80/60/60 81/58/58 37/57/57
f 7/61/61 51/62/62 80/60/60 36/59/59
f 42/63/63 86/64/64 51/62/62 7/61/61
f 41/65/65 85/66/66 86/64/64 42/63/63
f 1/67/67 45/68/68 85/66/66 41/65/65
f 87/69/69 45/68/68 1/67/67 43/70/70
f 3/71/71 47/72/72 87/69/69 43/70/70
f 40/73/73 84/74/74 47/72/72 3/71/71
f 39/75/75 83/76/76 84/74/74 40/73/73
f 5/77/77 49/78/78 83/76/76 39/75/75
f 35/79/79 79/80/80 49/78/78 5/77/77
f 34/81/81 78/82/82 79/80/80 35/79/79
f 33/83/83 77/84/84 78/82/82 34/81/81
f 8/85/85 52/86/86 77/84/84 33/83/83
f 31/87/87 75/88/88 52/86/86 8/85/85
f 32/4/4 76/3/3 75/88/88 31/87/87
f 88/26/26 55/28/28 62/30/30 89/89/89
f 89/89/89 62/30/30 61/32/32 60/34/34
f 56/24/24 88/26/26 89/89/89 90/90/90
f 90/90/90 89/89/89 60/34/34 66/36/36
f 63/22/22 56/24/24 90/90/90 91/91/91
f 91/91/91 90/90/90 66/36/36 59/38/38
f 64/20/20 63/22/22 91/91/91 92/92/92
f 92/92/92 91/91/91 59/38/38 68/40/40
f 57/18/18 64/20/20 92/92/92 93/93/93
f 93/93/93 92/92/92 68/40/40 53/42/42
f 65/16/16 57/18/18 93/93/93 94/94/94
f 94/94/94 93/93/93 53/42/42 72/44/44
f 58/14/14 65/16/16 94/94/94 95/95/95
f 95/95/95 94/94/94 72/44/44 71/46/46
f 67/12/12 58/14/14 95/95/95 96/96/96
f 96/96/96 95/95/95 71/46/46 46/48/48
f 54/10/10 67/12/12 96/96/96 97/97/97
f 97/97/97 96/96/96 46/48/48 73/50/50
f 69/8/8 54/10/10 97/97/97 98/98/98
f 98/98/98 97/97/97 73/50/50 74/52/52
f 70/5/5 69/8/8 98/98/98 99/99/99
f 99/99/99 98/98/98 74/52/52 48/54/54
f 50/2/2 70/5/5 99/99/99 100/100/100
f 100/100/100 99/99/99 48/54/54 82/56/56
f 76/3/3 50/2/2 100/100/100 101/101/101
f 101/101/101 100/100/100 82/56/56 81/58/58
f 75/88/88 76/3/3 101/101/101 102/102/102
f 102/102/102 101/101/101 81/58/58 80/60/60
f 52/86/86 75/88/88 102/102/102 103/103/103
f 103/103/103 102/102/102 80/60/60 51/62/62
f 77/84/84 52/86/86 103/103/103 104/104/104
f 104/104/104 103/103/103 51/62/62 86/64/64
f 78/82/82 77/84/84 104/104/104 105/105/105
f 105/105/105 104/104/104 86/64/64 85/66/66
f 79/80/80 78/82/82 105/105/105 106/106/106
f 106/106/106 105/105/105 85/66/66 45/68/68
f 49/78/78 79/80/80 106/106/106 107/107/107
f 107/107/107 106/106/106 45/68/68 87/69/69
f 83/76/76 49/78/78 107/107/107 84/74/74
f 84/74/74 107/107/107 87/69/69 47/72/72
f 10/108/108 117/109/109 130/110/110 23/111/111
f 38/112/112 145/113/113 144/114/114 37/115/115
f 25/116/116 132/117/117 117/109/109 10/108/108
f 11/118/118 118/119/119 125/120/120 18/121/121
f 39/122/122 146/123/123 112/124/124 5/125/125
f 26/126/126 133/127/127 132/117/117 25/116/116
f 13/128/128 120/129/129 127/130/130 20/131/131
f 40/132/132 147/133/133 146/123/123 39/122/122
f 27/134/134 134/135/135 109/136/136 2/137/137
f 14/138/138 121/139/138 128/140/139 21/141/140
f 41/142/141 148/143/142 108/144/143 1/145/144
f 6/146/145 113/147/146 133/127/127 26/126/126
f 28/148/147 135/149/148 134/135/135 27/134/134
f 15/150/149 122/151/150 131/152/151 24/153/152
f 42/154/153 149/155/154 148/143/142 41/142/141
f 30/156/155 137/157/156 111/158/157 4/159/158
f 2/137/137 109/136/136 136/160/159 29/161/160
f 16/162/161 123/163/162 129/164/163 22/165/164
f 1/145/144 108/144/143 150/166/165 43/167/166
f 3/168/167 110/169/168 147/170/133 40/171/132
f 29/161/160 136/160/159 137/157/156 30/156/155
f 17/172/169 124/173/170 123/163/162 16/162/161
f 12/174/171 119/175/172 151/176/173 44/177/174
f 7/178/175 114/179/176 149/155/154 42/154/153
f 8/180/177 115/181/178 138/182/179 31/183/180
f 18/184/121 125/185/120 124/173/170 17/172/169
f 43/167/166 150/166/165 110/169/168 3/168/167
f 31/183/180 138/182/179 139/186/181 32/187/182
f 19/188/183 126/189/184 119/175/172 12/174/171
f 5/125/125 112/124/124 142/190/185 35/191/186
f 33/192/187 140/193/188 115/181/178 8/180/177
f 20/131/131 127/130/130 126/189/184 19/188/183
f 32/187/182 139/186/181 113/147/146 6/146/145
f 34/194/189 141/195/190 140/193/188 33/192/187
f 21/141/140 128/140/139 120/129/129 13/128/128
f 4/159/158 111/158/157 145/113/113 38/112/112
f 35/191/186 142/190/185 141/195/190 34/194/189
f 22/165/164 129/164/163 122/151/150 15/150/149
f 9/196/191 116/197/192 135/149/148 28/148/147
f 36/198/193 143/199/194 114/179/176 7/178/175
f 23/111/111 130/110/110 121/139/138 14/138/138
f 44/177/174 151/176/173 118/119/119 11/118/118
f 37/115/115 144/114/114 143/199/194 36/198/193
f 24/153/152 131/152/151 116/197/192 9/196/191
f 170/200/195 208/201/196 206/202/197 171/203/198
f 173/204/199 172/205/200 202/206/201 205/207/202
f 169/208/203 210/209/204 208/201/196 170/200/195
f 168/210/205 212/211/206 210/209/204 169/208/203
f 167/212/207 214/213/208 212/211/206 168/210/205
f 166/214/209 216/215/210 214/213/208 167/212/207
f 165/216/211 218/217/212 216/215/210 166/214/209
f 164/218/213 220/219/214 218/217/212 165/216/211
f 163/220/215 222/221/216 220/219/214 164/218/213
f 162/222/217 224/223/218 222/221/216 163/220/215
f 194/224/219 182/225/220 198/226/220 197/227/221
f 200/228/222 197/227/221 195/229/223 199/230/224
f 157/231/225 234/232/226 232/233/227 158/234/228
f 156/235/229 236/236/230 234/232/226 157/231/225
f 155/237/231 238/238/232 236/236/230 156/235/229
f 154/239/233 240/240/234 238/238/232 155/237/231
f 153/241/235 242/242/236 240/240/234 154/239/233
f 152/243/237 244/244/238 242/242/236 153/241/235
f 245/245/239 174/246/240 175/247/241 243/248/242
f 243/248/242 175/247/241 176/249/243 241/250/244
f 241/250/244 176/249/243 177/251/245 239/252/246
f 239/252/246 177/251/245 178/253/247 237/254/248
f 237/254/248 178/253/247 179/255/249 235/256/250
f 235/256/250 179/255/249 180/257/251 233/258/252
f 233/258/252 180/257/251 181/259/253 231/260/254
f 231/260/254 181/259/253 201/261/255 229/262/256
f 229/262/256 201/261/255 200/228/222 227/263/257
f 227/263/257 200/228/222 199/230/224 225/264/258
f 225/264/258 199/230/224 183/265/259 223/266/260
f 223/266/260 183/265/259 184/267/261 221/268/262
f 221/268/262 184/267/261 185/269/263 219/270/264
f 219/270/264 185/269/263 186/271/265 217/272/266
f 217/272/266 186/271/265 187/273/267 215/274/268
f 215/274/268 187/273/267 188/275/269 213/276/270
f 213/276/270 188/275/269 189/277/271 211/278/272
f 211/278/272 189/277/271 190/279/273 209/280/274
f 209/280/274 190/279/273 191/281/275 207/282/276
f 204/283/277 203/284/278 192/285/279 193/286/280
f 171/203/198 206/202/197 202/206/201 172/205/200
f 201/261/255 194/224/219 197/227/221 200/228/222
f 198/226/281 196/287/281 195/229/223 197/227/221
f 159/288/282 230/289/283 228/290/284 160/291/285
f 160/291/285 228/290/284 226/292/286 161/293/287
f 161/293/287 226/292/286 224/223/218 162/222/217
f 158/234/228 232/233/227 230/289/283 159/288/282
f 243/248/242 242/242/236 244/244/238 245/245/239
f 241/250/244 240/240/234 242/242/236 243/248/242
f 239/252/246 238/238/232 240/240/234 241/250/244
f 237/254/248 236/236/230 238/238/232 239/252/246
f 235/256/250 234/232/226 236/236/230 237/254/248
f 233/258/252 232/233/227 234/232/226 235/256/250
f 231/260/254 230/289/283 232/233/227 233/258/252
f 229/262/256 228/290/284 230/289/283 231/260/254
f 227/263/257 226/292/286 228/290/284 229/262/256
f 225/264/258 224/223/218 226/292/286 227/263/257
f 223/266/260 222/221/216 224/223/218 225/264/258
f 221/268/262 220/219/214 222/221/216 223/266/260
f 219/270/264 218/217/212 220/219/214 221/268/262
f 217/272/266 216/215/210 218/217/212 219/270/264
f 215/274/268 214/213/208 216/215/210 217/272/266
f 213/276/270 212/211/206 214/213/208 215/274/268
f 211/278/272 210/209/204 212/211/206 213/276/270
f 209/280/274 208/201/196 210/209/204 211/278/272
f 207/282/276 206/202/197 208/201/196 209/280/274
f 203/284/278 202/206/201 206/202/197 207/282/276
f 204/283/277 205/207/202 202/206/201 203/284/278
f 207/282/276 191/281/275 192/285/279 203/284/278
f 264/294/288 265/295/289 300/296/290 302/297/291
f 267/298/292 299/299/293 296/300/294 266/301/295
f 263/302/296 264/294/288 302/297/291 304/303/297
f 262/304/298 263/302/296 304/303/297 306/305/299
f 261/306/300 262/304/298 306/305/299 308/307/301
f 260/308/302 261/306/300 308/307/301 310/309/303
f 259/310/304 260/308/302 310/309/303 312/311/305
f 258/312/306 259/310/304 312/311/305 314/313/307
f 257/314/308 258/312/306 314/313/307 316/315/309
f 256/316/310 257/314/308 316/315/309 318/317/311
f 288/318/312 291/319/313 292/320/314 276/321/315
f 294/322/316 293/323/317 289/324/318 291/319/313
f 251/325/319 252/326/320 326/327/321 328/328/322
f 250/329/323 251/325/319 328/328/322 330/330/324
f 249/331/325 250/329/323 330/330/324 332/332/326
f 248/333/327 249/331/325 332/332/326 334/334/328
f 247/335/329 248/333/327 334/334/328 336/336/330
f 246/337/331 247/335/329 336/336/330 338/338/332
f 339/339/333 337/340/334 269/341/335 268/342/336
f 337/340/334 335/343/337 270/344/338 269/341/335
f 335/343/337 333/345/339 271/346/340 270/344/338
f 333/345/339 331/347/341 272/348/342 271/346/340
f 331/347/341 329/349/343 273/350/344 272/348/342
f 329/349/343 327/351/345 274/352/346 273/350/344
f 327/351/345 325/353/347 275/354/348 274/352/346
f 325/353/347 323/355/349 295/356/350 275/354/348
f 323/355/349 321/357/351 294/322/316 295/356/350
f 321/357/351 319/358/352 293/323/317 294/322/316
f 319/358/352 317/359/353 277/360/354 293/323/317
f 317/359/353 315/361/355 278/362/356 277/360/354
f 315/361/355 313/363/357 279/364/358 278/362/356
f 313/363/357 311/365/359 280/366/360 279/364/358
f 311/365/359 309/367/361 281/368/362 280/366/360
f 309/367/361 307/369/363 282/370/364 281/368/362
f 307/369/363 305/371/365 283/372/366 282/370/364
f 305/371/365 303/373/367 284/374/368 283/372/366
f 303/373/367 301/375/369 285/376/370 284/374/368
f 298/377/371 287/378/372 286/379/373 297/380/374
f 265/295/289 266/301/295 296/300/294 300/296/290
f 295/356/350 294/322/316 291/319/313 288/318/312
f 292/320/314 291/319/313 289/324/318 290/381/375
f 253/382/376 254/383/377 322/384/378 324/385/379
f 254/383/377 255/386/380 320/387/381 322/384/378
f 255/386/380 256/316/310 318/317/311 320/387/381
f 252/326/320 253/382/376 324/385/379 326/327/321
f 337/340/334 339/339/333 338/338/332 336/336/330
f 335/343/337 337/340/334 336/336/330 334/334/328
f 333/345/339 335/343/337 334/334/328 332/332/326
f 331/347/341 333/345/339 332/332/326 330/330/324
f 329/349/343 331/347/341 330/330/324 328/328/322
f 327/351/345 329/349/343 328/328/322 326/327/321
f 325/353/347 327/351/345 326/327/321 324/385/379
f 323/355/349 325/353/347 324/385/379 322/384/378
f 321/357/351 323/355/349 322/384/378 320/387/381
f 319/358/352 321/357/351 320/387/381 318/317/311
f 317/359/353 319/358/352 318/317/311 316/315/309
f 315/361/355 317/359/353 316/315/309 314/313/307
f 313/363/357 315/361/355 314/313/307 312/311/305
f 311/365/359 313/363/357 312/311/305 310/309/303
f 309/367/361 311/365/359 310/309/303 308/307/301
f 307/369/363 309/367/361 308/307/301 306/305/299
f 305/371/365 307/369/363 306/305/299 304/303/297
f 303/373/367 305/371/365 304/303/297 302/297/291
f 301/375/369 303/373/367 302/297/291 300/296/290
f 297/380/374 301/375/369 300/296/290 296/300/294
f 298/377/371 297/380/374 296/300/294 299/299/293
f 301/375/369 297/380/374 286/379/373 285/376/370
f 153/388/382 247/389/383 246/390/384 152/391/384
f 154/392/385 248/393/386 247/389/383 153/388/382
f 155/394/387 249/395/388 248/393/386 154/392/385
f 156/396/389 250/397/390 249/395/388 155/394/387
f 157/398/391 251/399/392 250/397/390 156/396/389
f 158/400/393 252/401/394 251/399/392 157/398/391
f 159/402/395 253/403/396 252/401/394 158/400/393
f 160/404/397 254/405/398 253/403/396 159/402/395
f 161/406/399 255/407/399 254/405/398 160/404/397
f 162/408/400 256/409/401 255/410/402 161/411/402
f 163/412/403 257/413/404 256/409/401 162/408/400
f 164/414/405 258/415/406 257/413/404 163/412/403
f 165/416/407 259/417/408 258/415/406 164/414/405
f 166/418/409 260/419/410 259/417/408 165/416/407
f 167/420/411 261/421/411 260/419/410 166/418/409
f 168/422/412 262/423/413 261/421/411 167/420/411
f 169/424/414 263/425/415 262/423/413 168/422/412
f 170/426/416 264/427/417 263/425/415 169/424/414
f 171/428/418 265/429/419 264/427/417 170/426/416
f 172/430/420 266/431/421 265/429/419 171/428/418
f 173/432/422 267/433/422 266/431/421 172/430/420
f 174/434/423 268/435/423 269/436/424 175/437/425
f 175/437/425 269/436/424 270/438/426 176/439/427
f 176/439/427 270/438/426 271/440/428 177/441/429
f 177/441/429 271/440/428 272/442/430 178/443/431
f 178/443/431 272/442/430 273/444/432 179/445/433
f 179/445/433 273/444/432 274/446/434 180/447/435
f 180/447/435 274/446/434 275/448/436 181/449/437
f 196/450/438 290/451/438 289/452/439 195/453/440
f 194/454/441 288/455/442 276/456/443 182/457/443
f 183/458/444 277/459/445 278/460/446 184/461/447
f 184/461/447 278/460/446 279/462/448 185/463/449
f 185/463/449 279/462/448 280/464/450 186/465/451
f 186/465/451 280/464/450 281/466/452 187/467/453
f 187/467/453 281/466/452 282/468/454 188/469/455
f 188/469/455 282/468/454 283/470/456 189/471/456
f 189/471/456 283/470/456 284/472/457 190/473/458
f 190/473/458 284/472/457 285/474/459 191/475/460
f 191/475/460 285/474/459 286/476/461 192/477/462
f 192/477/462 286/476/461 287/478/463 193/479/463
f 195/453/440 289/452/439 293/480/464 199/481/465
f 201/482/466 295/483/467 288/455/442 194/454/441
f 199/481/465 293/480/464 277/459/445 183/458/444
f 181/449/437 275/448/436 295/483/467 201/482/466
f 361/484/468 340/485/469 364/486/470 383/487/471
f 344/488/472 346/489/473 369/490/474 367/491/475
f 346/489/473 348/492/476 371/493/477 369/490/474
f 348/492/476 350/494/478 373/495/479 371/493/477
f 376/496/480 392/497/481 391/498/482 375/499/483
f 352/500/484 387/501/485 390/502/486 354/503/487
f 353/504/488 355/505/489 377/506/490 375/499/483
f 355/505/489 357/507/491 379/508/492 377/506/490
f 357/507/491 359/509/493 381/510/494 379/508/492
f 359/509/493 361/484/468 383/487/471 381/510/494
f 397/511/495 352/500/484 354/503/487 356/512/495
f 340/485/469 342/513/496 365/514/497 364/486/470
f 342/513/496 344/488/472 367/491/475 365/514/497
f 382/515/498 384/516/499 362/517/500 360/518/501
f 380/519/502 382/515/498 360/518/501 358/520/503
f 378/521/504 380/519/502 358/520/503 356/522/505
f 376/496/480 378/521/504 356/522/505 354/523/506
f 373/495/479 395/524/507 396/525/508 374/526/509
f 354/523/506 390/527/510 392/497/481 376/496/480
f 372/528/511 374/526/509 351/529/512 349/530/513
f 370/531/514 372/528/511 349/530/513 347/532/515
f 368/533/516 370/531/514 347/532/515 345/534/517
f 366/535/518 368/533/516 345/534/517 343/536/519
f 363/537/520 366/535/518 343/536/519 341/538/521
f 384/516/499 383/487/471 364/486/470 363/537/520
f 382/515/498 381/510/494 383/487/471 384/516/499
f 380/519/502 379/508/492 381/510/494 382/515/498
f 378/521/504 377/506/490 379/508/492 380/519/502
f 376/496/480 375/499/483 377/506/490 378/521/504
f 374/526/509 396/525/508 388/539/522 351/529/512
f 372/528/511 371/493/477 373/495/479 374/526/509
f 370/531/514 369/490/474 371/493/477 372/528/511
f 368/533/516 367/491/475 369/490/474 370/531/514
f 366/535/518 365/514/497 367/491/475 368/533/516
f 363/537/520 364/486/470 365/514/497 366/535/518
f 384/516/499 363/537/520 341/538/521 362/517/500
f 385/540/523 386/541/524 393/542/525 395/543/526
f 386/541/524 389/544/527 391/545/528 393/542/525
f 394/546/529 392/547/530 390/548/531 387/549/532
f 396/550/533 394/546/529 387/549/532 388/551/534
f 394/546/529 393/542/525 391/545/528 392/547/530
f 396/550/533 395/543/526 393/542/525 394/546/529
f 350/494/478 385/552/535 395/524/507 373/495/479
f 351/553/536 388/554/537 387/501/485 352/500/484
f 375/499/483 391/498/482 389/555/538 353/504/488
f 398/556/495 397/511/495 356/512/495 358/557/495
f 349/558/495 351/553/536 352/500/484 397/511/495
f 347/559/495 349/558/495 397/511/495 398/556/495
f 399/560/495 398/556/495 358/557/495 360/561/495
f 345/562/495 347/559/495 398/556/495 399/560/495
f 341/563/495 399/560/495 360/561/495 362/564/495
f 343/565/495 345/562/495 399/560/495 341/563/495
f 118/566/539 151/567/540 400/568/541 125/569/542
f 125/569/542 400/568/541 123/570/543 124/571/544
f 151/567/540 119/572/545 401/573/546 400/568/541
f 400/568/541 401/573/546 129/574/547 123/570/543
f 119/572/545 126/575/548 402/576/549 401/573/546
f 401/573/546 402/576/549 122/577/550 129/574/547
f 126/575/548 127/578/551 403/579/552 402/576/549
f 402/576/549 403/579/552 131/580/553 122/577/550
f 127/578/551 120/581/554 404/582/555 403/579/552
f 403/579/552 404/582/555 116/583/556 131/580/553
f 120/581/554 128/584/557 405/585/558 404/582/555
f 404/582/555 405/585/558 135/586/559 116/583/556
f 128/584/557 121/587/560 406/588/561 405/585/558
f 405/585/558 406/588/561 134/589/562 135/586/559
f 121/587/560 130/590/563 407/591/564 406/588/561
f 406/588/561 407/591/564 109/592/565 134/589/562
f 130/590/563 117/593/566 408/594/567 407/591/564
f 407/591/564 408/594/567 136/595/568 109/592/565
f 117/593/566 132/596/569 409/597/570 408/594/567
f 408/594/567 409/597/570 137/598/571 136/595/568
f 132/596/569 133/599/572 410/600/573 409/597/570
f 409/597/570 410/600/573 111/601/574 137/598/571
f 133/599/572 113/602/575 411/603/576 410/600/573
f 410/600/573 411/603/576 145/604/577 111/601/574
f 113/602/575 139/605/578 412/606/579 411/603/576
f 411/603/576 412/606/579 144/607/580 145/604/577
f 139/605/578 138/608/581 413/609/582 412/606/579
f 412/606/579 413/609/582 143/610/583 144/607/580
f 138/608/581 115/611/584 414/612/585 413/609/582
f 413/609/582 414/612/585 114/613/586 143/610/583
f 115/611/584 140/614/587 415/615/588 414/612/585
f 414/612/585 415/615/588 149/616/589 114/613/586
f 140/614/587 141/617/590 416/618/591 415/615/588
f 415/615/588 416/618/591 148/619/592 149/616/589
f 141/617/590 142/620/593 417/621/594 416/618/591
f 416/618/591 417/621/594 108/622/595 148/619/592
f 142/620/593 112/623/596 418/624/597 417/621/594
f 417/621/594 418/624/597 150/625/598 108/622/595
f 112/623/596 146/626/599 147/627/600 418/624/597
f 418/624/597 147/627/600 110/628/601 150/625/598
