# Blender 4.0.2
# www.blender.org
o mushroom_03
v 0.008052 0.089283 -0.008052
v 0.004358 0.089283 -0.010521
v -0.000000 0.089283 -0.011388
v -0.004358 0.089283 -0.010521
v 0.006754 0.092439 -0.006754
v 0.003655 0.092439 -0.008824
v -0.000000 0.092439 -0.009551
v -0.003655 0.092439 -0.008824
v -0.008052 0.089283 -0.008052
v -0.010521 0.089283 -0.004358
v -0.011388 0.089283 -0.000000
v -0.010521 0.089283 0.004358
v -0.006754 0.092439 -0.006754
v -0.008824 0.092439 -0.003655
v -0.009551 0.092439 -0.000000
v -0.008824 0.092439 0.003655
v -0.008052 0.089283 0.008052
v -0.004358 0.089283 0.010521
v -0.000000 0.089283 0.011388
v 0.004358 0.089283 0.010521
v -0.006754 0.092439 0.006754
v -0.003655 0.092439 0.008824
v -0.000000 0.092439 0.009551
v 0.003655 0.092439 0.008824
v 0.008052 0.089283 0.008052
v 0.010521 0.089283 0.004358
v 0.011388 0.089283 0.000000
v 0.010521 0.089283 -0.004358
v 0.006754 0.092439 0.006754
v 0.008824 0.092439 0.003655
v 0.009551 0.092439 -0.000000
v 0.008824 0.092439 -0.003655
v 0.005843 0.094513 -0.005843
v 0.002922 0.095348 -0.006852
v 0.000000 0.095600 -0.007157
v -0.002922 0.095348 -0.006852
v -0.005843 0.094513 -0.005843
v 0.006852 0.095348 -0.002922
v 0.003426 0.097031 -0.003426
v 0.000000 0.097513 -0.003578
v -0.003426 0.097031 -0.003426
v -0.006852 0.095348 -0.002922
v 0.007157 0.095600 -0.000000
v 0.003578 0.097513 -0.000000
v 0.000000 0.098054 -0.000000
v -0.003578 0.097513 -0.000000
v -0.007157 0.095600 -0.000000
v 0.006852 0.095348 0.002922
v 0.003426 0.097031 0.003426
v 0.000000 0.097513 0.003578
v -0.003426 0.097031 0.003426
v -0.006852 0.095348 0.002922
v 0.005843 0.094513 0.005843
v 0.002922 0.095348 0.006852
v 0.000000 0.095600 0.007157
v -0.002922 0.095348 0.006852
v -0.005843 0.094513 0.005843
v 0.012675 0.081916 -0.012675
v 0.006860 0.081916 -0.016561
v 0.000000 0.081916 -0.017925
v -0.006860 0.081916 -0.016561
v -0.012675 0.081916 -0.012675
v -0.016561 0.081916 -0.006860
v -0.017925 0.081916 -0.000000
v -0.016561 0.081916 0.006860
v -0.012675 0.081916 0.012675
v -0.006860 0.081916 0.016561
v -0.000000 0.081916 0.017925
v 0.006860 0.081916 0.016561
v 0.012675 0.081916 0.012675
v 0.016561 0.081916 0.006860
v 0.017925 0.081916 -0.000000
v 0.016561 0.081916 -0.006860
v 0.017202 0.078196 -0.017202
v 0.009310 0.078196 -0.022476
v 0.000000 0.078196 -0.024328
v -0.009310 0.078196 -0.022476
v -0.017202 0.078196 -0.017202
v -0.022476 0.078196 -0.009310
v -0.024328 0.078196 -0.000000
v -0.022476 0.078196 0.009310
v -0.017202 0.078196 0.017202
v -0.009310 0.078196 0.022476
v -0.000000 0.078196 0.024328
v 0.009310 0.078196 0.022476
v 0.017202 0.078196 0.017202
v 0.022476 0.078196 0.009310
v 0.024328 0.078196 0.000000
v 0.022476 0.078196 -0.009310
v 0.016332 0.064451 -0.016332
v 0.008839 0.064451 -0.021338
v 0.000000 0.064451 -0.023096
v -0.008839 0.064451 -0.021338
v -0.016332 0.064451 -0.016332
v -0.021338 0.064451 -0.008839
v -0.023096 0.064451 -0.000000
v -0.021338 0.064451 0.008839
v -0.016332 0.064451 0.016332
v -0.008839 0.064451 0.021338
v -0.000000 0.064451 0.023096
v 0.008839 0.064451 0.021338
v 0.016332 0.064451 0.016332
v 0.021338 0.064451 0.008839
v 0.023096 0.064451 0.000000
v 0.021338 0.064451 -0.008839
v 0.010562 0.070660 0.025499
v -0.000000 0.070660 0.027600
v 0.019516 0.070660 0.019516
v 0.025499 0.070660 0.010562
v 0.027600 0.070660 0.000000
v 0.025499 0.070660 -0.010562
v 0.010562 0.070660 -0.025499
v 0.019516 0.070660 -0.019516
v 0.000000 0.070660 -0.027600
v -0.010562 0.070660 -0.025499
v -0.019516 0.070660 -0.019516
v -0.025499 0.070660 -0.010562
v -0.027600 0.070660 -0.000000
v -0.025499 0.070660 0.010562
v -0.019516 0.070660 0.019516
v -0.010562 0.070660 0.025499
v 0.010320 0.074780 0.024915
v 0.019069 0.074780 0.019069
v 0.024915 0.074780 0.010320
v 0.026967 0.074780 0.000000
v 0.024915 0.074780 -0.010320
v 0.010320 0.074780 -0.024915
v 0.000000 0.074780 -0.026967
v -0.010320 0.074780 -0.024915
v -0.019069 0.074780 -0.019069
v -0.024915 0.074780 -0.010320
v -0.026967 0.074780 -0.000000
v -0.024915 0.074780 0.010320
v -0.019069 0.074780 0.019069
v -0.010320 0.074780 0.024915
v -0.000000 0.074780 0.026967
v 0.019069 0.074780 -0.019069
v -0.000000 0.067009 0.026570
v 0.018788 0.067009 -0.018788
v 0.010168 0.067009 0.024548
v 0.018788 0.067009 0.018788
v 0.024548 0.067009 0.010168
v 0.026570 0.067009 0.000000
v 0.024548 0.067009 -0.010168
v 0.010168 0.067009 -0.024548
v 0.000000 0.067009 -0.026570
v -0.010168 0.067009 -0.024548
v -0.018788 0.067009 -0.018788
v -0.024548 0.067009 -0.010168
v -0.026570 0.067009 -0.000000
v -0.024548 0.067009 0.010168
v -0.018788 0.067009 0.018788
v -0.010168 0.067009 0.024548
v -0.012754 0.085796 0.005283
v -0.013805 0.085796 -0.000000
v -0.005283 0.085796 -0.012754
v -0.000000 0.085796 -0.013805
v 0.009762 0.085796 -0.009762
v 0.012754 0.085796 -0.005283
v 0.005283 0.085796 -0.012754
v 0.009762 0.085796 0.009762
v 0.005283 0.085796 0.012754
v 0.013805 0.085796 -0.000000
v 0.012754 0.085796 0.005283
v -0.009762 0.085796 0.009762
v -0.000000 0.085796 0.013805
v -0.005283 0.085796 0.012754
v -0.009762 0.085796 -0.009762
v -0.012754 0.085796 -0.005283
v 0.005605 0.069228 -0.005605
v 0.003034 0.069228 -0.007324
v -0.000000 0.069228 -0.007927
v -0.003034 0.069228 -0.007324
v -0.005605 0.069228 -0.005605
v -0.007324 0.069228 -0.003034
v -0.007927 0.069228 -0.000000
v -0.007324 0.069228 0.003034
v -0.005605 0.069228 0.005605
v -0.003034 0.069228 0.007324
v -0.000000 0.069228 0.007927
v 0.003034 0.069228 0.007324
v 0.005605 0.069228 0.005605
v 0.007324 0.069228 0.003034
v 0.007927 0.069228 -0.000000
v 0.007324 0.069228 -0.003034
v 0.007353 -0.000000 -0.007353
v 0.003979 -0.000000 -0.009607
v 0.000000 -0.000000 -0.010398
v -0.003979 -0.000000 -0.009607
v -0.007353 -0.000000 -0.007353
v -0.009607 -0.000000 -0.003979
v -0.010398 -0.000000 -0.000000
v -0.009607 -0.000000 0.003979
v -0.007353 -0.000000 0.007353
v -0.003979 -0.000000 0.009607
v -0.000000 -0.000000 0.010398
v 0.003979 -0.000000 0.009607
v 0.007353 -0.000000 0.007353
v 0.009607 -0.000000 0.003979
v 0.010398 -0.000000 0.000000
v 0.009607 -0.000000 -0.003979
v -0.009764 0.039709 -0.000000
v -0.009021 0.039709 -0.003736
v -0.009021 0.039709 0.003736
v -0.006904 0.039709 0.006904
v -0.003736 0.039709 0.009021
v -0.000000 0.039709 0.009764
v 0.003736 0.039709 0.009021
v 0.006904 0.039709 0.006904
v 0.009021 0.039709 0.003736
v 0.009764 0.039709 -0.000000
v 0.009021 0.039709 -0.003736
v 0.003736 0.039709 -0.009021
v 0.006904 0.039709 -0.006904
v -0.000000 0.039709 -0.009764
v -0.003736 0.039709 -0.009021
v -0.006904 0.039709 -0.006904
v -0.012457 0.022666 -0.005160
v 0.009534 0.022666 -0.009534
v -0.013483 0.022666 -0.000000
v -0.012457 0.022666 0.005160
v -0.009534 0.022666 0.009534
v -0.005160 0.022666 0.012457
v -0.000000 0.022666 0.013483
v 0.005160 0.022666 0.012457
v 0.009534 0.022666 0.009534
v 0.012457 0.022666 0.005160
v 0.013483 0.022666 -0.000000
v 0.012457 0.022666 -0.005160
v 0.005160 0.022666 -0.012457
v -0.000000 0.022666 -0.013483
v -0.005160 0.022666 -0.012457
v -0.009534 0.022666 -0.009534
v -0.011337 0.031138 -0.000000
v -0.010474 0.031138 0.004339
v -0.008017 0.031138 0.008017
v -0.004339 0.031138 0.010474
v -0.000000 0.031138 0.011337
v 0.004339 0.031138 0.010474
v 0.008017 0.031138 0.008017
v 0.010474 0.031138 0.004339
v 0.011337 0.031138 -0.000000
v 0.010474 0.031138 -0.004339
v 0.004339 0.031138 -0.010474
v -0.000000 0.031138 -0.011337
v -0.004339 0.031138 -0.010474
v -0.008017 0.031138 -0.008017
v -0.010474 0.031138 -0.004339
v 0.008017 0.031138 -0.008017
v -0.013491 0.007857 -0.005588
v 0.010326 0.007857 -0.010326
v -0.014603 0.007857 -0.000000
v -0.013491 0.007857 0.005588
v -0.010326 0.007857 0.010326
v -0.005588 0.007857 0.013491
v -0.000000 0.007857 0.014603
v 0.005588 0.007857 0.013491
v 0.010326 0.007857 0.010326
v 0.013491 0.007857 0.005588
v 0.014603 0.007857 -0.000000
v 0.013491 0.007857 -0.005588
v 0.005588 0.007857 -0.013491
v -0.000000 0.007857 -0.014603
v -0.005588 0.007857 -0.013491
v -0.010326 0.007857 -0.010326
v -0.014776 0.014871 -0.000000
v -0.013651 0.014871 0.005654
v -0.010448 0.014871 0.010448
v -0.005654 0.014871 0.013651
v -0.000000 0.014871 0.014776
v 0.005654 0.014871 0.013651
v 0.010448 0.014871 0.010448
v 0.013651 0.014871 0.005654
v 0.014776 0.014871 -0.000000
v 0.013651 0.014871 -0.005654
v 0.005654 0.014871 -0.013651
v -0.000000 0.014871 -0.014776
v -0.005654 0.014871 -0.013651
v -0.010448 0.014871 -0.010448
v -0.013651 0.014871 -0.005654
v 0.010448 0.014871 -0.010448
v -0.011719 0.002608 -0.004854
v 0.008969 0.002608 -0.008969
v -0.012685 0.002608 -0.000000
v -0.011719 0.002608 0.004854
v -0.008969 0.002608 0.008969
v -0.004854 0.002608 0.011719
v -0.000000 0.002608 0.012685
v 0.004854 0.002608 0.011719
v 0.008969 0.002608 0.008969
v 0.011719 0.002608 0.004854
v 0.012685 0.002608 -0.000000
v 0.011719 0.002608 -0.004854
v 0.004854 0.002608 -0.011719
v -0.000000 0.002608 -0.012685
v -0.004854 0.002608 -0.011719
v -0.008969 0.002608 -0.008969
v -0.008374 0.052499 -0.000000
v -0.007736 0.052499 0.003204
v -0.005921 0.052499 0.005921
v -0.003204 0.052499 0.007736
v -0.000000 0.052499 0.008374
v 0.003204 0.052499 0.007736
v 0.005921 0.052499 0.005921
v 0.007736 0.052499 0.003204
v 0.008374 0.052499 -0.000000
v 0.007736 0.052499 -0.003204
v 0.003204 0.052499 -0.007736
v -0.000000 0.052499 -0.008374
v -0.003204 0.052499 -0.007736
v -0.005921 0.052499 -0.005921
v -0.007736 0.052499 -0.003204
v 0.005921 0.052499 -0.005921
v 0.015525 0.067570 -0.006431
v 0.016804 0.067570 -0.000000
v 0.006431 0.067570 -0.015525
v 0.011882 0.067570 -0.011882
v -0.000000 0.067570 -0.016804
v -0.006431 0.067570 -0.015525
v -0.011882 0.067570 -0.011882
v -0.015525 0.067570 -0.006431
v -0.016804 0.067570 -0.000000
v -0.015525 0.067570 0.006431
v -0.011882 0.067570 0.011882
v -0.006431 0.067570 0.015525
v -0.000000 0.067570 0.016804
v 0.006431 0.067570 0.015525
v 0.011882 0.067570 0.011882
v 0.015525 0.067570 0.006431
v 0.019079 0.064474 -0.007903
v 0.007903 0.064474 -0.019079
v 0.000000 0.064474 -0.020651
v -0.007903 0.064474 -0.019079
v -0.014603 0.064474 -0.014603
v -0.019079 0.064474 -0.007903
v -0.020651 0.064474 -0.000000
v -0.019079 0.064474 0.007903
v -0.014603 0.064474 0.014603
v -0.007903 0.064474 0.019079
v -0.000000 0.064474 0.020651
v 0.007903 0.064474 0.019079
v 0.014603 0.064474 0.014603
v 0.019079 0.064474 0.007903
v 0.020651 0.064474 -0.000000
v 0.014603 0.064474 -0.014603
v -0.007082 -0.001089 -0.000000
v -0.003708 -0.001880 -0.000000
v 0.000000 -0.002243 -0.000000
v 0.003708 -0.001880 0.000000
v 0.007082 -0.001089 0.000000
vn 0.5956 0.5390 -0.5956
vn 0.3223 0.5390 -0.7782
vn 0.3141 0.5389 -0.7817
vn 0.5988 0.5319 -0.5988
vn -0.0000 0.5390 -0.8423
vn -0.0000 0.5470 -0.8371
vn -0.3223 0.5390 -0.7782
vn -0.3141 0.5389 -0.7817
vn -0.5956 0.5390 -0.5956
vn -0.5988 0.5319 -0.5988
vn 0.2727 0.7329 -0.6232
vn 0.5338 0.6558 -0.5338
vn -0.0000 0.7578 -0.6525
vn -0.2727 0.7329 -0.6232
vn -0.5338 0.6558 -0.5338
vn -0.7782 0.5390 -0.3223
vn -0.7817 0.5389 -0.3141
vn -0.8423 0.5390 -0.0000
vn -0.8371 0.5470 -0.0000
vn -0.7782 0.5390 0.3223
vn -0.7817 0.5389 0.3141
vn -0.5956 0.5390 0.5956
vn -0.5988 0.5319 0.5988
vn -0.6232 0.7329 -0.2727
vn -0.6525 0.7578 -0.0000
vn -0.6232 0.7329 0.2727
vn -0.5338 0.6558 0.5338
vn -0.3223 0.5390 0.7782
vn -0.3141 0.5389 0.7817
vn -0.0000 0.5390 0.8423
vn -0.0000 0.5470 0.8371
vn 0.3223 0.5390 0.7782
vn 0.3141 0.5389 0.7817
vn 0.5956 0.5390 0.5956
vn 0.5988 0.5319 0.5988
vn -0.2727 0.7329 0.6232
vn -0.0000 0.7578 0.6525
vn 0.2727 0.7329 0.6232
vn 0.5338 0.6558 0.5338
vn 0.7782 0.5390 0.3223
vn 0.7817 0.5389 0.3141
vn 0.8423 0.5390 -0.0000
vn 0.8371 0.5470 -0.0000
vn 0.7782 0.5390 -0.3223
vn 0.7817 0.5389 -0.3141
vn 0.6232 0.7329 0.2727
vn 0.6525 0.7578 -0.0000
vn 0.6232 0.7329 -0.2727
vn 0.2964 0.9079 -0.2964
vn -0.0000 0.9506 -0.3103
vn -0.2964 0.9079 -0.2964
vn 0.3103 0.9506 -0.0000
vn -0.0000 1.0000 -0.0000
vn -0.3103 0.9506 -0.0000
vn 0.2964 0.9079 0.2964
vn -0.0000 0.9506 0.3103
vn -0.2964 0.9079 0.2964
vn -0.6949 0.6589 0.2878
vn -0.7522 0.6589 -0.0000
vn -0.5886 0.8084 -0.0000
vn -0.5438 0.8084 0.2252
vn -0.2878 0.6589 -0.6949
vn -0.0000 0.6589 -0.7522
vn -0.0000 0.8084 -0.5886
vn -0.2252 0.8084 -0.5438
vn 0.5319 0.6589 -0.5319
vn 0.6949 0.6589 -0.2878
vn 0.5438 0.8084 -0.2252
vn 0.4162 0.8084 -0.4162
vn 0.2878 0.6589 -0.6949
vn 0.2252 0.8084 -0.5438
vn 0.5319 0.6589 0.5319
vn 0.2878 0.6589 0.6949
vn 0.2252 0.8084 0.5438
vn 0.4162 0.8084 0.4162
vn 0.7522 0.6589 -0.0000
vn 0.6949 0.6589 0.2878
vn 0.5438 0.8084 0.2252
vn 0.5886 0.8084 -0.0000
vn -0.5319 0.6589 0.5319
vn -0.4162 0.8084 0.4162
vn -0.0000 0.6589 0.7522
vn -0.2878 0.6589 0.6949
vn -0.2252 0.8084 0.5438
vn -0.0000 0.8084 0.5886
vn -0.5319 0.6589 -0.5319
vn -0.4162 0.8084 -0.4162
vn -0.6949 0.6589 -0.2878
vn -0.5438 0.8084 -0.2252
vn 0.4754 0.7403 -0.4754
vn 0.2573 0.7403 -0.6211
vn 0.6211 0.7403 -0.2573
vn -0.0000 0.7403 -0.6723
vn -0.2573 0.7403 -0.6211
vn -0.4754 0.7403 -0.4754
vn -0.6211 0.7403 -0.2573
vn -0.6723 0.7403 -0.0000
vn -0.6211 0.7403 0.2573
vn -0.4754 0.7403 0.4754
vn -0.2573 0.7403 0.6211
vn -0.0000 0.7403 0.6723
vn 0.2573 0.7403 0.6211
vn 0.4754 0.7403 0.4754
vn 0.6211 0.7403 0.2573
vn 0.6723 0.7403 -0.0000
vn 0.3194 -0.5510 0.7710
vn -0.0000 -0.5510 0.8345
vn -0.0000 -0.9395 0.3425
vn 0.1311 -0.9395 0.3165
vn 0.5901 -0.5510 0.5901
vn 0.2422 -0.9395 0.2422
vn 0.7710 -0.5510 0.3194
vn 0.3165 -0.9395 0.1311
vn 0.8345 -0.5510 -0.0000
vn 0.3425 -0.9395 -0.0000
vn 0.7710 -0.5510 -0.3194
vn 0.3165 -0.9395 -0.1311
vn 0.3194 -0.5510 -0.7710
vn 0.5901 -0.5510 -0.5901
vn 0.2422 -0.9395 -0.2422
vn 0.1311 -0.9395 -0.3165
vn -0.0000 -0.5510 -0.8345
vn -0.0000 -0.9395 -0.3425
vn -0.3194 -0.5510 -0.7710
vn -0.1311 -0.9395 -0.3165
vn -0.5901 -0.5510 -0.5901
vn -0.2422 -0.9395 -0.2422
vn -0.7710 -0.5510 -0.3194
vn -0.3165 -0.9395 -0.1311
vn -0.8345 -0.5510 -0.0000
vn -0.3425 -0.9395 -0.0000
vn -0.7710 -0.5510 0.3194
vn -0.3165 -0.9395 0.1311
vn -0.5901 -0.5510 0.5901
vn -0.2422 -0.9395 0.2422
vn -0.3194 -0.5510 0.7710
vn -0.1311 -0.9395 0.3165
vn -0.0000 0.3832 0.9237
vn -0.3535 0.3832 0.8533
vn -0.3820 -0.0597 0.9222
vn -0.0000 -0.0597 0.9982
vn -0.6531 0.3832 0.6531
vn -0.7058 -0.0597 0.7058
vn -0.8533 0.3832 0.3535
vn -0.9222 -0.0597 0.3820
vn -0.9237 0.3832 -0.0000
vn -0.9982 -0.0597 -0.0000
vn -0.8533 0.3832 -0.3535
vn -0.9222 -0.0597 -0.3820
vn -0.6531 0.3832 -0.6531
vn -0.7058 -0.0597 -0.7058
vn -0.3535 0.3832 -0.8533
vn -0.3820 -0.0597 -0.9222
vn -0.0000 0.3832 -0.9237
vn -0.0000 -0.0597 -0.9982
vn 0.3535 0.3832 -0.8533
vn 0.3820 -0.0597 -0.9222
vn 0.6531 0.3832 -0.6531
vn 0.8533 0.3832 -0.3535
vn 0.9222 -0.0597 -0.3820
vn 0.7058 -0.0597 -0.7058
vn 0.9237 0.3832 -0.0000
vn 0.9982 -0.0597 -0.0000
vn 0.8533 0.3832 0.3535
vn 0.9222 -0.0597 0.3820
vn 0.6531 0.3832 0.6531
vn 0.7058 -0.0597 0.7058
vn 0.3535 0.3832 0.8533
vn 0.3820 -0.0597 0.9222
vn -0.4088 -0.8968 0.1693
vn -0.4424 -0.8968 -0.0000
vn -0.1836 -0.9830 -0.0000
vn -0.1696 -0.9830 0.0703
vn -0.1693 -0.8968 0.4088
vn -0.3129 -0.8968 0.3129
vn -0.1298 -0.9830 0.1298
vn -0.0703 -0.9830 0.1696
vn -0.0000 -0.8968 0.4424
vn -0.0000 -0.9830 0.1836
vn 0.1693 -0.8968 0.4088
vn 0.0703 -0.9830 0.1696
vn 0.3129 -0.8968 0.3129
vn 0.1298 -0.9830 0.1298
vn 0.4088 -0.8968 0.1693
vn 0.1696 -0.9830 0.0703
vn 0.4424 -0.8968 -0.0000
vn 0.1836 -0.9830 -0.0000
vn 0.4088 -0.8968 -0.1693
vn 0.1696 -0.9830 -0.0703
vn 0.3129 -0.8968 -0.3129
vn 0.1298 -0.9830 -0.1298
vn 0.1693 -0.8968 -0.4088
vn 0.0703 -0.9830 -0.1696
vn -0.0000 -0.8968 -0.4424
vn -0.0000 -0.9830 -0.1836
vn -0.1693 -0.8968 -0.4088
vn -0.0703 -0.9830 -0.1696
vn -0.3129 -0.8968 -0.3129
vn -0.1298 -0.9830 -0.1298
vn -0.4088 -0.8968 -0.1693
vn -0.1696 -0.9830 -0.0703
vn -0.8659 -0.5001 -0.0000
vn -0.8000 -0.5001 -0.3314
vn -0.5162 -0.8294 -0.2138
vn -0.5511 -0.8345 -0.0000
vn -0.8000 -0.5001 0.3314
vn -0.5162 -0.8294 0.2138
vn -0.6123 -0.5001 0.6123
vn -0.3951 -0.8376 0.3774
vn -0.3314 -0.5001 0.8000
vn -0.2161 -0.8441 0.4907
vn -0.0000 -0.5001 0.8659
vn -0.0000 -0.8471 0.5314
vn 0.3314 -0.5001 0.8000
vn 0.2161 -0.8441 0.4907
vn 0.6123 -0.5001 0.6123
vn 0.3951 -0.8376 0.3774
vn 0.8000 -0.5001 0.3314
vn 0.5162 -0.8294 0.2138
vn 0.8659 -0.5001 -0.0000
vn 0.5511 -0.8345 -0.0000
vn 0.8000 -0.5001 -0.3314
vn 0.5162 -0.8294 -0.2138
vn 0.3314 -0.5001 -0.8000
vn 0.6123 -0.5001 -0.6123
vn 0.3951 -0.8376 -0.3774
vn 0.2161 -0.8441 -0.4907
vn -0.0000 -0.5001 -0.8659
vn -0.0000 -0.8471 -0.5314
vn -0.3314 -0.5001 -0.8000
vn -0.2161 -0.8441 -0.4907
vn -0.6123 -0.5001 -0.6123
vn -0.3951 -0.8376 -0.3774
vn -0.9218 0.0678 -0.3818
vn -0.7055 0.0678 -0.7055
vn -0.6996 0.1451 -0.6996
vn -0.9141 0.1451 -0.3786
vn -0.3818 0.0678 -0.9218
vn -0.3786 0.1451 -0.9141
vn -0.0000 0.0678 -0.9977
vn -0.0000 0.1451 -0.9894
vn 0.3818 0.0678 -0.9218
vn 0.3786 0.1451 -0.9141
vn 0.7055 0.0678 -0.7055
vn 0.9218 0.0678 -0.3818
vn 0.9141 0.1451 -0.3786
vn 0.6996 0.1451 -0.6996
vn 0.9977 0.0678 -0.0000
vn 0.9894 0.1451 -0.0000
vn 0.9218 0.0678 0.3818
vn 0.9141 0.1451 0.3786
vn 0.7055 0.0678 0.7055
vn 0.6996 0.1451 0.6996
vn 0.3818 0.0678 0.9218
vn 0.3786 0.1451 0.9141
vn -0.0000 0.0678 0.9977
vn -0.0000 0.1451 0.9894
vn -0.3818 0.0678 0.9218
vn -0.3786 0.1451 0.9141
vn -0.7055 0.0678 0.7055
vn -0.6996 0.1451 0.6996
vn -0.9218 0.0678 0.3818
vn -0.9141 0.1451 0.3786
vn -0.9977 0.0678 -0.0000
vn -0.9894 0.1451 -0.0000
vn -0.9025 0.2141 -0.3738
vn -0.6907 0.2141 -0.6907
vn -0.6923 0.2037 -0.6923
vn -0.9045 0.2037 -0.3747
vn -0.3738 0.2141 -0.9025
vn -0.3747 0.2037 -0.9045
vn -0.0000 0.2141 -0.9768
vn -0.0000 0.2037 -0.9790
vn 0.3738 0.2141 -0.9025
vn 0.3747 0.2037 -0.9045
vn 0.6907 0.2141 -0.6907
vn 0.9025 0.2141 -0.3738
vn 0.9045 0.2037 -0.3747
vn 0.6923 0.2037 -0.6923
vn 0.9768 0.2141 -0.0000
vn 0.9790 0.2037 -0.0000
vn 0.9025 0.2141 0.3738
vn 0.9045 0.2037 0.3747
vn 0.6907 0.2141 0.6907
vn 0.6923 0.2037 0.6923
vn 0.3738 0.2141 0.9025
vn 0.3747 0.2037 0.9045
vn -0.0000 0.2141 0.9768
vn -0.0000 0.2037 0.9790
vn -0.3738 0.2141 0.9025
vn -0.3747 0.2037 0.9045
vn -0.6907 0.2141 0.6907
vn -0.6923 0.2037 0.6923
vn -0.9025 0.2141 0.3738
vn -0.9045 0.2037 0.3747
vn -0.9768 0.2141 -0.0000
vn -0.9790 0.2037 -0.0000
vn -0.9217 0.0690 -0.3818
vn -0.7054 0.0690 -0.7054
vn -0.6952 -0.1828 -0.6952
vn -0.9083 -0.1828 -0.3762
vn -0.3818 0.0690 -0.9217
vn -0.3762 -0.1828 -0.9083
vn -0.0000 0.0690 -0.9976
vn -0.0000 -0.1828 -0.9831
vn 0.3818 0.0690 -0.9217
vn 0.3762 -0.1828 -0.9083
vn 0.7054 0.0690 -0.7054
vn 0.9217 0.0690 -0.3818
vn 0.9083 -0.1828 -0.3762
vn 0.6952 -0.1828 -0.6952
vn 0.9976 0.0690 -0.0000
vn 0.9831 -0.1828 -0.0000
vn 0.9217 0.0690 0.3818
vn 0.9083 -0.1828 0.3762
vn 0.7054 0.0690 0.7054
vn 0.6952 -0.1828 0.6952
vn 0.3818 0.0690 0.9217
vn 0.3762 -0.1828 0.9083
vn -0.0000 0.0690 0.9976
vn -0.0000 -0.1828 0.9831
vn -0.3818 0.0690 0.9217
vn -0.3762 -0.1828 0.9083
vn -0.7054 0.0690 0.7054
vn -0.6952 -0.1828 0.6952
vn -0.9217 0.0690 0.3818
vn -0.9083 -0.1828 0.3762
vn -0.9976 0.0690 -0.0000
vn -0.9831 -0.1828 -0.0000
vn -0.9996 0.0267 -0.0000
vn -0.9236 0.0267 -0.3825
vn -0.9236 0.0267 0.3825
vn -0.7069 0.0267 0.7069
vn -0.3825 0.0267 0.9236
vn -0.0000 0.0267 0.9996
vn 0.3825 0.0267 0.9236
vn 0.7069 0.0267 0.7069
vn 0.9236 0.0267 0.3825
vn 0.9996 0.0267 -0.0000
vn 0.9236 0.0267 -0.3825
vn 0.3825 0.0267 -0.9236
vn 0.7069 0.0267 -0.7069
vn -0.0000 0.0267 -0.9996
vn -0.3825 0.0267 -0.9236
vn -0.7069 0.0267 -0.7069
vn -0.6270 -0.7790 -0.0000
vn -0.5793 -0.7790 -0.2399
vn -0.4434 -0.7790 -0.4434
vn -0.2399 -0.7790 -0.5793
vn -0.0000 -0.7790 -0.6270
vn 0.2399 -0.7790 -0.5793
vn 0.4434 -0.7790 -0.4434
vn 0.5793 -0.7790 -0.2399
vn 0.6270 -0.7790 -0.0000
vn 0.5793 -0.7790 0.2399
vn 0.4434 -0.7790 0.4434
vn 0.2399 -0.7790 0.5793
vn -0.0000 -0.7790 0.6270
vn -0.2399 -0.7790 0.5793
vn -0.4434 -0.7790 0.4434
vn -0.5793 -0.7790 0.2399
vn -0.0092 -1.0000 -0.0000
vn -0.0085 -1.0000 0.0035
vn -0.0065 -1.0000 0.0065
vn -0.0035 -1.0000 0.0085
vn -0.0000 -1.0000 0.0092
vn 0.0035 -1.0000 0.0085
vn 0.0065 -1.0000 0.0065
vn 0.0085 -1.0000 0.0035
vn 0.0092 -1.0000 -0.0000
vn 0.0085 -1.0000 -0.0035
vn 0.0065 -1.0000 -0.0065
vn 0.0035 -1.0000 -0.0085
vn -0.0000 -1.0000 -0.0092
vn -0.0035 -1.0000 -0.0085
vn -0.0065 -1.0000 -0.0065
vn -0.0085 -1.0000 -0.0035
vn -0.2103 -0.9776 -0.0000
vn -0.1182 -0.9930 -0.0000
vn -0.0000 -1.0000 -0.0000
vn 0.1182 -0.9930 -0.0000
vn 0.2103 -0.9776 -0.0000
vt 0.734825 0.733282
vt 0.719723 0.743940
vt 0.713890 0.731187
vt 0.724540 0.723695
vt 0.701657 0.748004
vt 0.701143 0.734003
vt 0.683408 0.744826
vt 0.688307 0.731685
vt 0.667786 0.734914
vt 0.677378 0.724633
vt 0.709456 0.720520
vt 0.718784 0.718172
vt 0.700903 0.721205
vt 0.692321 0.720857
vt 0.682903 0.718878
vt 0.657135 0.719807
vt 0.669890 0.713980
vt 0.653080 0.701745
vt 0.667077 0.701235
vt 0.656262 0.683504
vt 0.669398 0.688403
vt 0.666172 0.667890
vt 0.676449 0.677478
vt 0.680557 0.709550
vt 0.679874 0.700998
vt 0.680223 0.692418
vt 0.682202 0.683002
vt 0.681272 0.657243
vt 0.687098 0.669992
vt 0.699327 0.653185
vt 0.699840 0.667178
vt 0.717565 0.656360
vt 0.712670 0.669495
vt 0.733181 0.666263
vt 0.723597 0.676543
vt 0.691528 0.680656
vt 0.700079 0.679972
vt 0.708659 0.680320
vt 0.718075 0.682297
vt 0.743835 0.681358
vt 0.731086 0.687190
vt 0.747900 0.699415
vt 0.733904 0.699932
vt 0.744729 0.717659
vt 0.731589 0.712765
vt 0.720423 0.691622
vt 0.721108 0.700173
vt 0.720761 0.708754
vt 0.709954 0.709687
vt 0.700677 0.710119
vt 0.691390 0.710050
vt 0.710023 0.700401
vt 0.700491 0.700587
vt 0.690959 0.700773
vt 0.709591 0.691125
vt 0.700305 0.691055
vt 0.691029 0.691487
vt 0.638385 0.676860
vt 0.634022 0.702441
vt 0.605449 0.703490
vt 0.611585 0.666901
vt 0.676764 0.762713
vt 0.702362 0.767068
vt 0.703427 0.795658
vt 0.666803 0.789535
vt 0.748816 0.746263
vt 0.762616 0.724291
vt 0.789435 0.734228
vt 0.769796 0.765714
vt 0.727668 0.761286
vt 0.739599 0.787288
vt 0.746156 0.652281
vt 0.724199 0.638484
vt 0.734139 0.611685
vt 0.765596 0.631319
vt 0.766956 0.698704
vt 0.761171 0.673415
vt 0.787152 0.661489
vt 0.795528 0.697626
vt 0.652196 0.654908
vt 0.631247 0.635454
vt 0.698624 0.634135
vt 0.673337 0.639906
vt 0.661431 0.613924
vt 0.697561 0.605576
vt 0.654795 0.748897
vt 0.635325 0.769861
vt 0.639788 0.727741
vt 0.613784 0.739647
vt 0.799304 0.792892
vt 0.756451 0.823702
vt 0.827086 0.748036
vt 0.705046 0.835750
vt 0.652943 0.827191
vt 0.608108 0.799333
vt 0.577370 0.756447
vt 0.565391 0.705077
vt 0.573975 0.653048
vt 0.601801 0.608273
vt 0.644627 0.577551
vt 0.695945 0.565543
vt 0.747955 0.574075
vt 0.792750 0.601849
vt 0.823521 0.644648
vt 0.835583 0.695979
vt 0.776005 0.496372
vt 0.692153 0.483024
vt 0.692153 0.438952
vt 0.792855 0.455645
vt 0.848390 0.540769
vt 0.879535 0.509573
vt 0.898309 0.609483
vt 0.939028 0.592562
vt 0.918164 0.692093
vt 0.962277 0.692029
vt 0.904906 0.776052
vt 0.945712 0.792878
vt 0.791673 0.898635
vt 0.860507 0.848591
vt 0.891791 0.879776
vt 0.808642 0.939469
vt 0.708855 0.918452
vt 0.708855 0.962793
vt 0.624745 0.905046
vt 0.607777 0.945879
vt 0.552272 0.860417
vt 0.520989 0.891602
vt 0.502446 0.791486
vt 0.461640 0.808311
vt 0.482799 0.708782
vt 0.438686 0.708719
vt 0.496275 0.624891
vt 0.455556 0.607970
vt 0.540791 0.552555
vt 0.509646 0.521360
vt 0.609567 0.502748
vt 0.592717 0.462022
vt 0.694725 0.540245
vt 0.633825 0.554640
vt 0.622000 0.529747
vt 0.693318 0.512722
vt 0.583055 0.591233
vt 0.562606 0.572751
vt 0.550132 0.644472
vt 0.524162 0.635213
vt 0.540072 0.706274
vt 0.512526 0.707653
vt 0.554427 0.767245
vt 0.529493 0.779063
vt 0.591038 0.818100
vt 0.572517 0.838574
vt 0.644359 0.851073
vt 0.635087 0.877093
vt 0.706270 0.861097
vt 0.707683 0.888680
vt 0.767295 0.846645
vt 0.779173 0.871582
vt 0.818100 0.809927
vt 0.850960 0.756575
vt 0.876969 0.765788
vt 0.838613 0.828403
vt 0.860898 0.694734
vt 0.888441 0.693296
vt 0.846428 0.633818
vt 0.871317 0.621958
vt 0.809769 0.583084
vt 0.828225 0.562612
vt 0.756502 0.550231
vt 0.765726 0.524261
vt 0.347545 0.726559
vt 0.322063 0.763710
vt 0.279076 0.719890
vt 0.291057 0.702520
vt 0.348618 0.638193
vt 0.356870 0.682483
vt 0.295481 0.681888
vt 0.291674 0.661133
vt 0.324045 0.600433
vt 0.280218 0.643414
vt 0.286893 0.574953
vt 0.262855 0.631430
vt 0.242821 0.565634
vt 0.242230 0.627004
vt 0.198541 0.573893
vt 0.221486 0.630811
vt 0.160795 0.598469
vt 0.203780 0.642270
vt 0.135328 0.635617
vt 0.191810 0.659639
vt 0.126010 0.679678
vt 0.187405 0.680278
vt 0.134255 0.723959
vt 0.191192 0.701035
vt 0.158815 0.761717
vt 0.202634 0.718752
vt 0.195955 0.787201
vt 0.219990 0.730735
vt 0.240022 0.796529
vt 0.240614 0.735159
vt 0.284306 0.788281
vt 0.261363 0.731351
vt 0.273487 0.052109
vt 0.242494 0.052205
vt 0.242758 0.028033
vt 0.273638 0.027711
vt 0.304747 0.051905
vt 0.304808 0.027268
vt 0.336332 0.051605
vt 0.336274 0.026702
vt 0.368327 0.051155
vt 0.368060 0.025938
vt 0.400860 0.050423
vt 0.400207 0.024813
vt 0.434137 0.049156
vt 0.432777 0.023037
vt 0.468503 0.046889
vt 0.465841 0.020100
vt 0.504605 0.042712
vt 0.499409 0.015070
vt 0.543912 0.034262
vt 0.533136 0.006097
vt 0.058849 0.038643
vt 0.027488 0.027390
vt 0.039061 0.006097
vt 0.065506 0.016319
vt 0.120183 0.048725
vt 0.089643 0.045090
vt 0.093595 0.022209
vt 0.122528 0.025507
vt 0.150635 0.050707
vt 0.152010 0.027224
vt 0.181120 0.051704
vt 0.181914 0.027981
vt 0.211721 0.052120
vt 0.212176 0.028170
vt 0.242302 0.385967
vt 0.216223 0.386458
vt 0.213185 0.285967
vt 0.241842 0.285506
vt 0.190201 0.387566
vt 0.184468 0.287132
vt 0.164286 0.389300
vt 0.155674 0.289070
vt 0.138543 0.391670
vt 0.126809 0.291886
vt 0.113056 0.394677
vt 0.087934 0.398315
vt 0.069137 0.300783
vt 0.097923 0.295728
vt 0.063314 0.402541
vt 0.040635 0.307244
vt 0.472081 0.408839
vt 0.447753 0.403938
vt 0.469677 0.308856
vt 0.497029 0.316382
vt 0.422935 0.399584
vt 0.441712 0.302629
vt 0.397707 0.395808
vt 0.413381 0.297573
vt 0.372171 0.392639
vt 0.384865 0.293555
vt 0.346411 0.390083
vt 0.356275 0.290449
vt 0.320495 0.388141
vt 0.327668 0.288152
vt 0.294476 0.386810
vt 0.299064 0.286590
vt 0.268399 0.386085
vt 0.270460 0.285715
vt 0.241940 0.222780
vt 0.211883 0.223014
vt 0.211480 0.167148
vt 0.242351 0.167208
vt 0.181637 0.223820
vt 0.180359 0.167369
vt 0.151073 0.225272
vt 0.148755 0.167873
vt 0.120048 0.227520
vt 0.116337 0.168718
vt 0.088416 0.230819
vt 0.056074 0.235593
vt 0.046949 0.172295
vt 0.082633 0.170064
vt 0.023032 0.242474
vt 0.008246 0.176310
vt 0.517413 0.255698
vt 0.486309 0.246573
vt 0.501205 0.186111
vt 0.538282 0.194735
vt 0.454955 0.239664
vt 0.465740 0.180249
vt 0.423776 0.234443
vt 0.431713 0.176132
vt 0.392902 0.230502
vt 0.398796 0.173152
vt 0.362337 0.227558
vt 0.366695 0.170968
vt 0.332034 0.225418
vt 0.335174 0.169383
vt 0.301922 0.223955
vt 0.304048 0.168278
vt 0.271920 0.223090
vt 0.273155 0.167572
vt 0.242553 0.122837
vt 0.211455 0.122598
vt 0.211500 0.084714
vt 0.242500 0.084961
vt 0.180178 0.122338
vt 0.180482 0.084229
vt 0.148473 0.121941
vt 0.149274 0.083292
vt 0.115965 0.121265
vt 0.117609 0.081577
vt 0.082048 0.120133
vt 0.045672 0.118366
vt 0.050766 0.073375
vt 0.085043 0.078561
vt 0.004901 0.116019
vt 0.013033 0.064684
vt 0.551265 0.136182
vt 0.509106 0.132064
vt 0.509562 0.083404
vt 0.552994 0.080381
vt 0.470910 0.129415
vt 0.471183 0.084764
vt 0.435310 0.127539
vt 0.435593 0.085326
vt 0.401386 0.126117
vt 0.401659 0.085477
vt 0.368569 0.125021
vt 0.368783 0.085437
vt 0.336495 0.124188
vt 0.336618 0.085330
vt 0.304919 0.123575
vt 0.304944 0.085214
vt 0.273656 0.123141
vt 0.273611 0.085102
vt 0.266140 0.516414
vt 0.242731 0.516257
vt 0.289538 0.517053
vt 0.312916 0.518172
vt 0.336260 0.519762
vt 0.359561 0.521810
vt 0.382809 0.524293
vt 0.405994 0.527179
vt 0.429110 0.530421
vt 0.452256 0.533965
vt 0.102816 0.524986
vt 0.079704 0.527848
vt 0.149260 0.520340
vt 0.126003 0.522468
vt 0.172576 0.518635
vt 0.195935 0.517376
vt 0.219325 0.516580
vt 0.346913 0.788557
vt 0.297755 0.820745
vt 0.240022 0.831668
vt 0.182507 0.819662
vt 0.133968 0.786559
vt 0.101794 0.737402
vt 0.090878 0.679680
vt 0.102868 0.622180
vt 0.135944 0.573634
vt 0.185084 0.541435
vt 0.242812 0.530495
vt 0.300335 0.542484
vt 0.348892 0.575580
vt 0.381085 0.624741
vt 0.392013 0.682480
vt 0.380013 0.740005
vt 0.994281 0.692177
vt 0.975243 0.805263
vt 0.914355 0.902537
vt 0.820780 0.969171
vt 0.708653 0.994892
vt 0.595268 0.975427
vt 0.498142 0.914080
vt 0.431955 0.820326
vt 0.406682 0.708466
vt 0.426095 0.595505
vt 0.487195 0.498586
vt 0.580680 0.432401
vt 0.692353 0.406980
vt 0.805262 0.426177
vt 0.902269 0.487082
vt 0.968642 0.580467
vt 0.662452 0.363969
vt 0.659584 0.312275
vt 0.683765 0.312275
vt 0.678166 0.340221
vt 0.662452 0.260580
vt 0.678166 0.284329
vt 0.638746 0.379949
vt 0.635928 0.312275
vt 0.638746 0.244601
vt 0.610628 0.385558
vt 0.610629 0.312275
vt 0.610629 0.238992
vt 0.582511 0.379949
vt 0.585329 0.312275
vt 0.582511 0.244601
vt 0.558805 0.363969
vt 0.561673 0.312275
vt 0.558805 0.260580
vt 0.543091 0.340220
vt 0.537492 0.312275
vt 0.543091 0.284329
s 1
f 1/1/1 2/2/2 6/3/3 5/4/4
f 2/2/2 3/5/5 7/6/6 6/3/3
f 3/5/5 4/7/7 8/8/8 7/6/6
f 4/7/7 9/9/9 13/10/10 8/8/8
f 5/4/4 6/3/3 34/11/11 33/12/12
f 6/3/3 7/6/6 35/13/13 34/11/11
f 7/6/6 8/8/8 36/14/14 35/13/13
f 8/8/8 13/10/10 37/15/15 36/14/14
f 9/9/9 10/16/16 14/17/17 13/10/10
f 10/16/16 11/18/18 15/19/19 14/17/17
f 11/18/18 12/20/20 16/21/21 15/19/19
f 12/20/20 17/22/22 21/23/23 16/21/21
f 13/10/10 14/17/17 42/24/24 37/15/15
f 14/17/17 15/19/19 47/25/25 42/24/24
f 15/19/19 16/21/21 52/26/26 47/25/25
f 16/21/21 21/23/23 57/27/27 52/26/26
f 17/22/22 18/28/28 22/29/29 21/23/23
f 18/28/28 19/30/30 23/31/31 22/29/29
f 19/30/30 20/32/32 24/33/33 23/31/31
f 20/32/32 25/34/34 29/35/35 24/33/33
f 21/23/23 22/29/29 56/36/36 57/27/27
f 22/29/29 23/31/31 55/37/37 56/36/36
f 23/31/31 24/33/33 54/38/38 55/37/37
f 24/33/33 29/35/35 53/39/39 54/38/38
f 25/34/34 26/40/40 30/41/41 29/35/35
f 26/40/40 27/42/42 31/43/43 30/41/41
f 27/42/42 28/44/44 32/45/45 31/43/43
f 28/44/44 1/1/1 5/4/4 32/45/45
f 29/35/35 30/41/41 48/46/46 53/39/39
f 30/41/41 31/43/43 43/47/47 48/46/46
f 31/43/43 32/45/45 38/48/48 43/47/47
f 32/45/45 5/4/4 33/12/12 38/48/48
f 33/12/12 34/11/11 39/49/49 38/48/48
f 34/11/11 35/13/13 40/50/50 39/49/49
f 35/13/13 36/14/14 41/51/51 40/50/50
f 36/14/14 37/15/15 42/24/24 41/51/51
f 38/48/48 39/49/49 44/52/52 43/47/47
f 39/49/49 40/50/50 45/53/53 44/52/52
f 40/50/50 41/51/51 46/54/54 45/53/53
f 41/51/51 42/24/24 47/25/25 46/54/54
f 43/47/47 44/52/52 49/55/55 48/46/46
f 44/52/52 45/53/53 50/56/56 49/55/55
f 45/53/53 46/54/54 51/57/57 50/56/56
f 46/54/54 47/25/25 52/26/26 51/57/57
f 48/46/46 49/55/55 54/38/38 53/39/39
f 49/55/55 50/56/56 55/37/37 54/38/38
f 50/56/56 51/57/57 56/36/36 55/37/37
f 51/57/57 52/26/26 57/27/27 56/36/36
f 154/58/58 155/59/59 64/60/60 65/61/61
f 156/62/62 157/63/63 60/64/64 61/65/65
f 158/66/66 159/67/67 73/68/68 58/69/69
f 157/63/63 160/70/70 59/71/71 60/64/64
f 161/72/72 162/73/73 69/74/74 70/75/75
f 163/76/76 164/77/77 71/78/78 72/79/79
f 165/80/80 154/58/58 65/61/61 66/81/81
f 164/77/77 161/72/72 70/75/75 71/78/78
f 166/82/82 167/83/83 67/84/84 68/85/85
f 159/67/67 163/76/76 72/79/79 73/68/68
f 168/86/86 156/62/62 61/65/65 62/87/87
f 167/83/83 165/80/80 66/81/81 67/84/84
f 155/59/59 169/88/88 63/89/89 64/60/60
f 162/73/73 166/82/82 68/85/85 69/74/74
f 169/88/88 168/86/86 62/87/87 63/89/89
f 160/70/70 158/66/66 58/69/69 59/71/71
f 59/71/71 58/69/69 74/90/90 75/91/91
f 58/69/69 73/68/68 89/92/92 74/90/90
f 60/64/64 59/71/71 75/91/91 76/93/93
f 61/65/65 60/64/64 76/93/93 77/94/94
f 62/87/87 61/65/65 77/94/94 78/95/95
f 63/89/89 62/87/87 78/95/95 79/96/96
f 64/60/60 63/89/89 79/96/96 80/97/97
f 65/61/61 64/60/60 80/97/97 81/98/98
f 66/81/81 65/61/61 81/98/98 82/99/99
f 67/84/84 66/81/81 82/99/99 83/100/100
f 68/85/85 67/84/84 83/100/100 84/101/101
f 69/74/74 68/85/85 84/101/101 85/102/102
f 70/75/75 69/74/74 85/102/102 86/103/103
f 71/78/78 70/75/75 86/103/103 87/104/104
f 72/79/79 71/78/78 87/104/104 88/105/105
f 73/68/68 72/79/79 88/105/105 89/92/92
f 140/106/106 138/107/107 100/108/108 101/109/109
f 141/110/110 140/106/106 101/109/109 102/111/111
f 142/112/112 141/110/110 102/111/111 103/113/113
f 143/114/114 142/112/112 103/113/113 104/115/115
f 144/116/116 143/114/114 104/115/115 105/117/117
f 145/118/118 139/119/119 90/120/120 91/121/121
f 139/119/119 144/116/116 105/117/117 90/120/120
f 146/122/122 145/118/118 91/121/121 92/123/123
f 147/124/124 146/122/122 92/123/123 93/125/125
f 148/126/126 147/124/124 93/125/125 94/127/127
f 149/128/128 148/126/126 94/127/127 95/129/129
f 150/130/130 149/128/128 95/129/129 96/131/131
f 151/132/132 150/130/130 96/131/131 97/133/133
f 152/134/134 151/132/132 97/133/133 98/135/135
f 153/136/136 152/134/134 98/135/135 99/137/137
f 138/107/107 153/136/136 99/137/137 100/108/108
f 136/138/138 135/139/139 121/140/140 107/141/141
f 135/139/139 134/142/142 120/143/143 121/140/140
f 134/142/142 133/144/144 119/145/145 120/143/143
f 133/144/144 132/146/146 118/147/147 119/145/145
f 132/146/146 131/148/148 117/149/149 118/147/147
f 131/148/148 130/150/150 116/151/151 117/149/149
f 130/150/150 129/152/152 115/153/153 116/151/151
f 129/152/152 128/154/154 114/155/155 115/153/153
f 128/154/154 127/156/156 112/157/157 114/155/155
f 137/158/158 126/159/159 111/160/160 113/161/161
f 127/156/156 137/158/158 113/161/161 112/157/157
f 126/159/159 125/162/162 110/163/163 111/160/160
f 125/162/162 124/164/164 109/165/165 110/163/163
f 124/164/164 123/166/166 108/167/167 109/165/165
f 123/166/166 122/168/168 106/169/169 108/167/167
f 122/168/168 136/138/138 107/141/141 106/169/169
f 85/102/102 84/101/101 136/138/138 122/168/168
f 86/103/103 85/102/102 122/168/168 123/166/166
f 87/104/104 86/103/103 123/166/166 124/164/164
f 88/105/105 87/104/104 124/164/164 125/162/162
f 89/92/92 88/105/105 125/162/162 126/159/159
f 75/91/91 74/90/90 137/158/158 127/156/156
f 74/90/90 89/92/92 126/159/159 137/158/158
f 76/93/93 75/91/91 127/156/156 128/154/154
f 77/94/94 76/93/93 128/154/154 129/152/152
f 78/95/95 77/94/94 129/152/152 130/150/150
f 79/96/96 78/95/95 130/150/150 131/148/148
f 80/97/97 79/96/96 131/148/148 132/146/146
f 81/98/98 80/97/97 132/146/146 133/144/144
f 82/99/99 81/98/98 133/144/144 134/142/142
f 83/100/100 82/99/99 134/142/142 135/139/139
f 84/101/101 83/100/100 135/139/139 136/138/138
f 107/141/141 121/140/140 153/136/136 138/107/107
f 121/140/140 120/143/143 152/134/134 153/136/136
f 120/143/143 119/145/145 151/132/132 152/134/134
f 119/145/145 118/147/147 150/130/130 151/132/132
f 118/147/147 117/149/149 149/128/128 150/130/130
f 117/149/149 116/151/151 148/126/126 149/128/128
f 116/151/151 115/153/153 147/124/124 148/126/126
f 115/153/153 114/155/155 146/122/122 147/124/124
f 114/155/155 112/157/157 145/118/118 146/122/122
f 113/161/161 111/160/160 144/116/116 139/119/119
f 112/157/157 113/161/161 139/119/119 145/118/118
f 111/160/160 110/163/163 143/114/114 144/116/116
f 110/163/163 109/165/165 142/112/112 143/114/114
f 109/165/165 108/167/167 141/110/110 142/112/112
f 108/167/167 106/169/169 140/106/106 141/110/110
f 106/169/169 107/141/141 138/107/107 140/106/106
f 2/2/2 1/1/1 158/66/66 160/70/70
f 10/16/16 9/9/9 168/86/86 169/88/88
f 20/32/32 19/30/30 166/82/82 162/73/73
f 11/18/18 10/16/16 169/88/88 155/59/59
f 18/28/28 17/22/22 165/80/80 167/83/83
f 9/9/9 4/7/7 156/62/62 168/86/86
f 28/44/44 27/42/42 163/76/76 159/67/67
f 19/30/30 18/28/28 167/83/83 166/82/82
f 26/40/40 25/34/34 161/72/72 164/77/77
f 17/22/22 12/20/20 154/58/58 165/80/80
f 27/42/42 26/40/40 164/77/77 163/76/76
f 25/34/34 20/32/32 162/73/73 161/72/72
f 3/5/5 2/2/2 160/70/70 157/63/63
f 1/1/1 28/44/44 159/67/67 158/66/66
f 4/7/7 3/5/5 157/63/63 156/62/62
f 12/20/20 11/18/18 155/59/59 154/58/58
f 314/170/170 315/171/171 184/172/172 185/173/173
f 316/174/174 317/175/175 170/176/176 171/177/177
f 317/175/175 314/170/170 185/173/173 170/176/176
f 318/178/178 316/174/174 171/177/177 172/179/179
f 319/180/180 318/178/178 172/179/179 173/181/181
f 320/182/182 319/180/180 173/181/181 174/183/183
f 321/184/184 320/182/182 174/183/183 175/185/185
f 322/186/186 321/184/184 175/185/185 176/187/187
f 323/188/188 322/186/186 176/187/187 177/189/189
f 324/190/190 323/188/188 177/189/189 178/191/191
f 325/192/192 324/190/190 178/191/191 179/193/193
f 326/194/194 325/192/192 179/193/193 180/195/195
f 327/196/196 326/194/194 180/195/195 181/197/197
f 328/198/198 327/196/196 181/197/197 182/199/199
f 329/200/200 328/198/198 182/199/199 183/201/201
f 315/171/171 329/200/200 183/201/201 184/172/172
f 284/202/202 282/203/203 191/204/204 192/205/205
f 285/206/206 284/202/202 192/205/205 193/207/207
f 286/208/208 285/206/206 193/207/207 194/209/209
f 287/210/210 286/208/208 194/209/209 195/211/211
f 288/212/212 287/210/210 195/211/211 196/213/213
f 289/214/214 288/212/212 196/213/213 197/215/215
f 290/216/216 289/214/214 197/215/215 198/217/217
f 291/218/218 290/216/216 198/217/217 199/219/219
f 292/220/220 291/218/218 199/219/219 200/221/221
f 293/222/222 292/223/220 200/224/221 201/225/223
f 294/226/224 283/227/225 186/228/226 187/229/227
f 283/227/225 293/222/222 201/225/223 186/228/226
f 295/230/228 294/226/224 187/229/227 188/231/229
f 296/232/230 295/230/228 188/231/229 189/233/231
f 297/234/232 296/232/230 189/233/231 190/235/233
f 282/203/203 297/234/232 190/235/233 191/204/204
f 312/236/234 311/237/235 217/238/236 203/239/237
f 311/237/235 310/240/238 216/241/239 217/238/236
f 310/240/238 309/242/240 215/243/241 216/241/239
f 309/242/240 308/244/242 213/245/243 215/243/241
f 313/246/244 307/247/245 212/248/246 214/249/247
f 308/244/242 313/246/244 214/249/247 213/245/243
f 307/247/245 306/250/248 211/251/249 212/248/246
f 306/252/248 305/253/250 210/254/251 211/255/249
f 305/253/250 304/256/252 209/257/253 210/254/251
f 304/256/252 303/258/254 208/259/255 209/257/253
f 303/258/254 302/260/256 207/261/257 208/259/255
f 302/260/256 301/262/258 206/263/259 207/261/257
f 301/262/258 300/264/260 205/265/261 206/263/259
f 300/264/260 299/266/262 204/267/263 205/265/261
f 299/266/262 298/268/264 202/269/265 204/267/263
f 298/268/264 312/236/234 203/239/237 202/269/265
f 248/270/266 247/271/267 233/272/268 218/273/269
f 247/271/267 246/274/270 232/275/271 233/272/268
f 246/274/270 245/276/272 231/277/273 232/275/271
f 245/276/272 244/278/274 230/279/275 231/277/273
f 249/280/276 243/281/277 229/282/278 219/283/279
f 244/278/274 249/280/276 219/283/279 230/279/275
f 243/281/277 242/284/280 228/285/281 229/282/278
f 242/286/280 241/287/282 227/288/283 228/289/281
f 241/287/282 240/290/284 226/291/285 227/288/283
f 240/290/284 239/292/286 225/293/287 226/291/285
f 239/292/286 238/294/288 224/295/289 225/293/287
f 238/294/288 237/296/290 223/297/291 224/295/289
f 237/296/290 236/298/292 222/299/293 223/297/291
f 236/298/292 235/300/294 221/301/295 222/299/293
f 235/300/294 234/302/296 220/303/297 221/301/295
f 234/302/296 248/270/266 218/273/269 220/303/297
f 202/269/265 203/239/237 248/270/266 234/302/296
f 204/267/263 202/269/265 234/302/296 235/300/294
f 205/265/261 204/267/263 235/300/294 236/298/292
f 206/263/259 205/265/261 236/298/292 237/296/290
f 207/261/257 206/263/259 237/296/290 238/294/288
f 208/259/255 207/261/257 238/294/288 239/292/286
f 209/257/253 208/259/255 239/292/286 240/290/284
f 210/254/251 209/257/253 240/290/284 241/287/282
f 211/255/249 210/254/251 241/287/282 242/286/280
f 212/248/246 211/251/249 242/284/280 243/281/277
f 213/245/243 214/249/247 249/280/276 244/278/274
f 214/249/247 212/248/246 243/281/277 249/280/276
f 215/243/241 213/245/243 244/278/274 245/276/272
f 216/241/239 215/243/241 245/276/272 246/274/270
f 217/238/236 216/241/239 246/274/270 247/271/267
f 203/239/237 217/238/236 247/271/267 248/270/266
f 280/304/298 279/305/299 265/306/300 250/307/301
f 279/305/299 278/308/302 264/309/303 265/306/300
f 278/308/302 277/310/304 263/311/305 264/309/303
f 277/310/304 276/312/306 262/313/307 263/311/305
f 281/314/308 275/315/309 261/316/310 251/317/311
f 276/312/306 281/314/308 251/317/311 262/313/307
f 275/315/309 274/318/312 260/319/313 261/316/310
f 274/320/312 273/321/314 259/322/315 260/323/313
f 273/321/314 272/324/316 258/325/317 259/322/315
f 272/324/316 271/326/318 257/327/319 258/325/317
f 271/326/318 270/328/320 256/329/321 257/327/319
f 270/328/320 269/330/322 255/331/323 256/329/321
f 269/330/322 268/332/324 254/333/325 255/331/323
f 268/332/324 267/334/326 253/335/327 254/333/325
f 267/334/326 266/336/328 252/337/329 253/335/327
f 266/336/328 280/304/298 250/307/301 252/337/329
f 220/303/297 218/273/269 280/304/298 266/336/328
f 221/301/295 220/303/297 266/336/328 267/334/326
f 222/299/293 221/301/295 267/334/326 268/332/324
f 223/297/291 222/299/293 268/332/324 269/330/322
f 224/295/289 223/297/291 269/330/322 270/328/320
f 225/293/287 224/295/289 270/328/320 271/326/318
f 226/291/285 225/293/287 271/326/318 272/324/316
f 227/288/283 226/291/285 272/324/316 273/321/314
f 228/289/281 227/288/283 273/321/314 274/320/312
f 229/282/278 228/285/281 274/318/312 275/315/309
f 230/279/275 219/283/279 281/314/308 276/312/306
f 219/283/279 229/282/278 275/315/309 281/314/308
f 231/277/273 230/279/275 276/312/306 277/310/304
f 232/275/271 231/277/273 277/310/304 278/308/302
f 233/272/268 232/275/271 278/308/302 279/305/299
f 218/273/269 233/272/268 279/305/299 280/304/298
f 250/307/301 265/306/300 297/234/232 282/203/203
f 265/306/300 264/309/303 296/232/230 297/234/232
f 264/309/303 263/311/305 295/230/228 296/232/230
f 263/311/305 262/313/307 294/226/224 295/230/228
f 251/317/311 261/316/310 293/222/222 283/227/225
f 262/313/307 251/317/311 283/227/225 294/226/224
f 261/316/310 260/319/313 292/223/220 293/222/222
f 260/323/313 259/322/315 291/218/218 292/220/220
f 259/322/315 258/325/317 290/216/216 291/218/218
f 258/325/317 257/327/319 289/214/214 290/216/216
f 257/327/319 256/329/321 288/212/212 289/214/214
f 256/329/321 255/331/323 287/210/210 288/212/212
f 255/331/323 254/333/325 286/208/208 287/210/210
f 254/333/325 253/335/327 285/206/206 286/208/208
f 253/335/327 252/337/329 284/202/202 285/206/206
f 252/337/329 250/307/301 282/203/203 284/202/202
f 176/338/330 175/339/331 312/236/234 298/268/264
f 177/340/332 176/338/330 298/268/264 299/266/262
f 178/341/333 177/340/332 299/266/262 300/264/260
f 179/342/334 178/341/333 300/264/260 301/262/258
f 180/343/335 179/342/334 301/262/258 302/260/256
f 181/344/336 180/343/335 302/260/256 303/258/254
f 182/345/337 181/344/336 303/258/254 304/256/252
f 183/346/338 182/345/337 304/256/252 305/253/250
f 184/347/339 183/346/338 305/253/250 306/252/248
f 185/348/340 184/349/339 306/250/248 307/247/245
f 171/350/341 170/351/342 313/246/244 308/244/242
f 170/351/342 185/348/340 307/247/245 313/246/244
f 172/352/343 171/350/341 308/244/242 309/242/240
f 173/353/344 172/352/343 309/242/240 310/240/238
f 174/354/345 173/353/344 310/240/238 311/237/235
f 175/339/331 174/354/345 311/237/235 312/236/234
f 344/355/346 343/356/347 329/200/200 315/171/171
f 343/356/347 342/357/348 328/198/198 329/200/200
f 342/357/348 341/358/349 327/196/196 328/198/198
f 341/358/349 340/359/350 326/194/194 327/196/196
f 340/359/350 339/360/351 325/192/192 326/194/194
f 339/360/351 338/361/352 324/190/190 325/192/192
f 338/361/352 337/362/353 323/188/188 324/190/190
f 337/362/353 336/363/354 322/186/186 323/188/188
f 336/363/354 335/364/355 321/184/184 322/186/186
f 335/364/355 334/365/356 320/182/182 321/184/184
f 334/365/356 333/366/357 319/180/180 320/182/182
f 333/366/357 332/367/358 318/178/178 319/180/180
f 332/367/358 331/368/359 316/174/174 318/178/178
f 345/369/360 330/370/361 314/170/170 317/175/175
f 331/368/359 345/369/360 317/175/175 316/174/174
f 330/370/361 344/355/346 315/171/171 314/170/170
f 105/117/117 104/115/115 344/371/362 330/372/363
f 91/121/121 90/120/120 345/373/364 331/374/365
f 90/120/120 105/117/117 330/372/363 345/373/364
f 92/123/123 91/121/121 331/374/365 332/375/366
f 93/125/125 92/123/123 332/375/366 333/376/367
f 94/127/127 93/125/125 333/376/367 334/377/368
f 95/129/129 94/127/127 334/377/368 335/378/369
f 96/131/131 95/129/129 335/378/369 336/379/370
f 97/133/133 96/131/131 336/379/370 337/380/371
f 98/135/135 97/133/133 337/380/371 338/381/372
f 99/137/137 98/135/135 338/381/372 339/382/373
f 100/108/108 99/137/137 339/382/373 340/383/374
f 101/109/109 100/108/108 340/383/374 341/384/375
f 102/111/111 101/109/109 341/384/375 342/385/376
f 103/113/113 102/111/111 342/385/376 343/386/377
f 104/115/115 103/113/113 343/386/377 344/371/362
f 190/387/233 346/388/378 192/389/205 191/390/204
f 346/388/378 194/391/209 193/392/207 192/389/205
f 189/393/231 347/394/379 346/388/378 190/387/233
f 347/394/379 195/395/211 194/391/209 346/388/378
f 188/396/229 348/397/380 347/394/379 189/393/231
f 348/397/380 196/398/213 195/395/211 347/394/379
f 187/399/227 349/400/381 348/397/380 188/396/229
f 349/400/381 197/401/215 196/398/213 348/397/380
f 186/402/226 350/403/382 349/400/381 187/399/227
f 350/403/382 198/404/217 197/401/215 349/400/381
f 201/405/223 200/406/221 350/403/382 186/402/226
f 200/406/221 199/407/219 198/404/217 350/403/382
