# Blender 4.0.2
# www.blender.org
o take_away_box_01
v 0.058136 0.109464 0.060091
v 0.058136 0.109464 -0.059961
v 0.103632 0.136429 0.060091
v 0.103632 0.136429 -0.059961
v 0.119381 0.138318 0.044394
v 0.119381 0.138318 -0.044264
v 0.058782 0.108982 0.060091
v 0.038619 -0.000082 -0.038507
v 0.058782 0.108982 -0.059961
v 0.103923 0.135734 0.060091
v 0.103923 0.135734 -0.059961
v 0.119468 0.137590 0.044394
v 0.119468 0.137590 -0.044264
v 0.037807 0.001174 -0.037352
v 0.059548 0.108915 -0.062130
v -0.059555 0.108907 -0.062129
v 0.060026 0.120162 -0.113909
v -0.060026 0.120162 -0.113909
v 0.044329 0.118061 -0.129597
v -0.044329 0.118061 -0.129597
v 0.000000 0.001173 -0.037352
v -0.000000 0.108786 -0.062119
v 0.000000 0.120162 -0.113953
v 0.000000 0.118061 -0.129597
v -0.056998 0.083416 0.004756
v -0.061777 0.109878 -0.014376
v 0.055911 0.083642 0.004781
v 0.060922 0.110055 -0.014360
v 0.060026 0.108170 -0.062730
v -0.038603 -0.000082 -0.038507
v -0.060026 0.108170 -0.062730
v 0.060026 0.119418 -0.113984
v -0.060026 0.119418 -0.113984
v 0.044329 0.117334 -0.129499
v -0.044329 0.117334 -0.129499
v 0.000000 -0.000082 -0.038507
v 0.000000 0.108170 -0.062730
v 0.000000 0.119418 -0.113984
v 0.000000 0.117334 -0.129499
v -0.057715 0.083263 0.004725
v -0.062494 0.109726 -0.014408
v 0.056629 0.083492 0.004763
v 0.061640 0.109905 -0.014378
v -0.059596 0.108814 0.062195
v 0.037807 0.001173 0.037125
v 0.059584 0.108828 0.062193
v -0.060026 0.130758 0.110424
v 0.060026 0.130758 0.110424
v -0.044329 0.126697 0.125909
v 0.044329 0.126697 0.125909
v 0.000000 0.001173 0.037125
v 0.000000 0.108686 0.062226
v 0.000000 0.130758 0.110519
v 0.000000 0.126697 0.125909
v 0.056998 0.083416 -0.004627
v 0.061777 0.109878 0.014506
v -0.058884 0.083013 -0.004536
v -0.063259 0.109563 0.014572
v -0.038608 0.000082 0.038285
v -0.060026 0.108170 0.062860
v 0.038619 -0.000082 0.038285
v 0.060026 0.108170 0.062860
v -0.060026 0.129982 0.110585
v 0.060026 0.129982 0.110585
v -0.044329 0.125988 0.125722
v 0.044329 0.125988 0.125722
v 0.000000 0.000082 0.038285
v 0.000000 0.108170 0.062860
v 0.000000 0.129982 0.110585
v 0.000000 0.125988 0.125722
v 0.057715 0.083263 -0.004595
v 0.062494 0.109726 0.014538
v -0.059598 0.082856 -0.004481
v -0.063973 0.109406 0.014627
v -0.037833 0.001173 -0.037352
v -0.058120 0.109395 -0.059961
v -0.037833 0.001173 0.037175
v -0.058120 0.109395 0.060091
v -0.098917 0.142983 -0.059961
v -0.098917 0.142983 0.060091
v -0.114505 0.146122 -0.044264
v -0.114505 0.146122 0.044394
v -0.037833 0.001173 0.010193
v -0.037833 0.001173 -0.002855
v -0.058111 0.109379 -0.002855
v -0.058111 0.109379 0.010193
v -0.098976 0.143007 -0.002855
v -0.098976 0.143007 0.010193
v -0.114507 0.146122 0.010193
v -0.120958 0.147363 -0.015903
v -0.120958 0.147363 0.010193
v -0.123457 0.147844 0.009942
v -0.125861 0.148306 0.009199
v -0.128076 0.148732 0.007994
v -0.130018 0.149105 0.006371
v -0.131611 0.149412 0.004394
v -0.132795 0.149639 0.002138
v -0.133525 0.149780 -0.000310
v -0.133771 0.149827 -0.002855
v -0.133525 0.149780 -0.005401
v -0.132795 0.149639 -0.007849
v -0.114507 0.146122 -0.002855
v -0.131611 0.149412 -0.010105
v -0.117978 0.146790 -0.002855
v -0.130018 0.149105 -0.012082
v -0.120958 0.147363 -0.002855
v -0.128076 0.148732 -0.013704
v -0.117978 0.146790 0.010193
v -0.125861 0.148306 -0.014910
v -0.117978 0.146790 -0.015903
v -0.123457 0.147844 -0.015653
v -0.123457 0.147844 -0.002855
v -0.125861 0.148306 -0.002855
v -0.128076 0.148732 -0.002855
v -0.130018 0.149105 -0.002855
v -0.131611 0.149412 -0.002855
v -0.132795 0.149639 -0.002855
v -0.058782 0.108982 -0.059961
v -0.058782 0.108982 0.060091
v -0.099300 0.142324 -0.059961
v -0.099300 0.142324 0.060091
v -0.114649 0.145403 -0.044264
v -0.114649 0.145403 0.044394
v -0.038608 0.000082 0.010193
v -0.038608 0.000082 -0.002855
v -0.058782 0.108982 -0.002855
v -0.058782 0.108982 0.010193
v -0.099300 0.142324 -0.002855
v -0.099300 0.142324 0.010193
v -0.114649 0.145403 0.010193
v -0.121096 0.146643 -0.015903
v -0.121096 0.146643 0.010193
v -0.123596 0.147123 0.009942
v -0.126000 0.147586 0.009199
v -0.128215 0.148012 0.007994
v -0.130156 0.148385 0.006371
v -0.131750 0.148692 0.004394
v -0.132934 0.148919 0.002138
v -0.133663 0.149060 -0.000310
v -0.133909 0.149107 -0.002855
v -0.133663 0.149060 -0.005401
v -0.132934 0.148919 -0.007849
v -0.114649 0.145403 -0.002855
v -0.131750 0.148692 -0.010105
v -0.118117 0.146070 -0.002855
v -0.130156 0.148385 -0.012082
v -0.121096 0.146643 -0.002855
v -0.128215 0.148012 -0.013704
v -0.118117 0.146070 0.010193
v -0.126000 0.147586 -0.014910
v -0.118117 0.146070 -0.015903
v -0.123596 0.147123 -0.015653
v -0.123596 0.147123 -0.002855
v -0.126000 0.147586 -0.002855
v -0.128215 0.148012 -0.002855
v -0.130156 0.148385 -0.002855
v -0.131750 0.148692 -0.002855
v -0.132934 0.148919 -0.002855
v -0.010000 0.001173 -0.002855
v -0.010000 0.001173 0.010193
v -0.012921 -0.000012 -0.002855
v -0.012921 0.000016 0.010193
vn -0.9828 0.1845 -0.0000
vn -0.5099 0.8603 -0.0000
vn -0.1191 0.9929 -0.0000
vn 0.9833 -0.1818 -0.0000
vn 0.5098 -0.8603 -0.0000
vn 0.1186 -0.9929 -0.0000
vn -0.6482 -0.0359 0.7606
vn -0.6455 -0.0344 -0.7630
vn -0.0000 -0.0000 1.0000
vn -0.0000 -0.0000 -1.0000
vn 0.9929 0.1185 -0.0000
vn 0.6854 0.1823 0.7050
vn 0.6854 0.1823 -0.7050
vn -0.0000 1.0000 -0.0000
vn 0.0002 0.2242 0.9745
vn 0.0001 0.9911 -0.1330
vn -0.0011 0.9770 0.2133
vn -0.0001 0.9911 -0.1330
vn 0.0010 0.9770 0.2134
vn -0.0002 0.2242 0.9745
vn 0.9776 0.2066 0.0414
vn -0.9789 0.2029 0.0234
vn -0.0000 -0.2184 -0.9759
vn -0.0000 -0.9911 0.1331
vn -0.0000 -0.9768 -0.2144
vn -0.9782 -0.2037 -0.0417
vn 0.9795 -0.1998 -0.0238
vn -0.9591 0.2755 0.0646
vn -0.0000 -0.1331 -0.9911
vn -0.7057 -0.0110 -0.7085
vn 0.9584 0.2780 0.0651
vn 0.7057 -0.0110 -0.7085
vn -0.1553 0.5602 0.8136
vn -0.2154 -0.4862 0.8469
vn -0.5818 0.8118 -0.0498
vn 0.1388 0.5637 0.8142
vn 0.2087 -0.4828 0.8505
vn 0.5846 0.8102 -0.0424
vn -0.0007 0.2271 -0.9739
vn -0.0002 0.9671 0.2545
vn 0.0014 0.9099 -0.4149
vn 0.0002 0.9671 0.2545
vn -0.0015 0.9099 -0.4148
vn 0.0001 0.2269 -0.9739
vn -0.9775 0.2070 -0.0409
vn 0.9743 0.2135 -0.0722
vn -0.0004 -0.2215 0.9752
vn -0.0000 -0.9669 -0.2551
vn -0.0000 -0.9095 0.4157
vn -0.0000 -0.2217 0.9751
vn 0.9782 -0.2037 0.0417
vn -0.9749 -0.2104 0.0729
vn 0.9660 0.2337 -0.1110
vn -0.0000 -0.2551 0.9669
vn 0.6999 -0.0127 0.7142
vn -0.9672 0.2294 -0.1089
vn -0.6999 -0.0127 0.7142
vn 0.1553 0.5602 -0.8136
vn 0.2160 -0.4835 -0.8483
vn 0.5522 0.8322 0.0494
vn -0.1840 0.5540 -0.8119
vn -0.2426 -0.4913 -0.8365
vn -0.5470 0.8349 0.0607
vn 0.9829 0.1842 0.0001
vn 0.6355 0.7721 0.0002
vn 0.1970 0.9804 -0.0001
vn 0.1970 0.9804 0.0001
vn 0.1967 0.9805 -0.0000
vn 0.6355 0.7721 -0.0003
vn 0.6354 0.7722 -0.0000
vn 0.9829 0.1842 -0.0001
vn 0.9829 0.1842 -0.0000
vn 0.1889 0.9820 -0.0000
vn 0.1888 0.9820 -0.0000
vn -0.9833 -0.1822 -0.0000
vn -0.6354 -0.7722 -0.0000
vn -0.1967 -0.9805 -0.0000
vn -0.9833 -0.1820 0.0003
vn -0.1889 -0.9820 -0.0000
vn 0.6504 -0.0328 -0.7589
vn 0.6369 -0.0399 0.7699
vn -0.9807 0.1954 -0.0000
vn -0.6633 0.2539 -0.7040
vn -0.6633 0.2539 0.7040
vn -0.0963 0.0185 0.9952
vn -0.2851 0.0548 0.9569
vn -0.4629 0.0890 0.8819
vn -0.6230 0.1198 0.7730
vn -0.7591 0.1460 0.6344
vn -0.8660 0.1666 0.4714
vn -0.9397 0.1807 0.2903
vn -0.9773 0.1880 0.0980
vn -0.9773 0.1880 -0.0980
vn -0.9397 0.1807 -0.2903
vn -0.8661 0.1666 -0.4714
vn -0.7591 0.1460 -0.6344
vn -0.6230 0.1198 -0.7730
vn -0.4629 0.0890 -0.8819
vn 0.9820 -0.1889 -0.0000
vn -0.2851 0.0548 -0.9569
vn -0.0963 0.0185 -0.9952
vn -0.0021 -1.0000 0.0011
vn -0.0031 -1.0000 0.0011
vn 0.0005 -1.0000 0.0021
vn -0.0015 -1.0000 0.0030
vn -0.0010 -1.0000 0.0014
vt 0.874670 0.004865
vt 0.917541 0.210551
vt 0.693431 0.210551
vt 0.735637 0.004866
vt 0.917541 0.309277
vt 0.693431 0.309277
vt 0.888239 0.338888
vt 0.722733 0.338888
vt 0.504455 0.004008
vt 0.647810 0.004008
vt 0.687860 0.211057
vt 0.463749 0.211057
vt 0.687860 0.309014
vt 0.463749 0.309013
vt 0.658558 0.338238
vt 0.493051 0.338238
vt 0.522088 0.914748
vt 0.320095 0.914748
vt 0.320095 0.912885
vt 0.522088 0.912885
vt 0.206020 0.904749
vt 0.004879 0.904749
vt 0.004879 0.902882
vt 0.206020 0.902882
vt 0.346002 0.962885
vt 0.442707 0.962885
vt 0.442707 0.964287
vt 0.346002 0.964287
vt 0.004882 0.962885
vt 0.101587 0.962885
vt 0.101587 0.964287
vt 0.004882 0.964287
vt 0.142418 0.962885
vt 0.305171 0.962885
vt 0.305171 0.964288
vt 0.142418 0.964287
vt 0.778009 0.911178
vt 0.753651 0.911178
vt 0.753651 0.859220
vt 0.778009 0.859220
vt 0.231089 0.556420
vt 0.231103 0.762566
vt 0.119925 0.762798
vt 0.160462 0.556426
vt 0.895948 0.570448
vt 0.866400 0.541145
vt 0.866401 0.458390
vt 0.895868 0.458390
vt 0.994865 0.569556
vt 0.994935 0.458390
vt 0.895948 0.346333
vt 0.866400 0.375636
vt 0.994870 0.347212
vt 0.301668 0.556417
vt 0.342268 0.762798
vt 0.037246 0.729159
vt 0.024817 0.668817
vt 0.437328 0.668785
vt 0.424913 0.729131
vt 0.652512 0.555759
vt 0.724575 0.555759
vt 0.764567 0.762841
vt 0.652512 0.762841
vt 0.234845 0.866173
vt 0.346899 0.866173
vt 0.346899 0.895397
vt 0.264146 0.895397
vt 0.234845 0.768218
vt 0.346899 0.768218
vt 0.458953 0.866173
vt 0.429651 0.895397
vt 0.458953 0.768218
vt 0.540456 0.762841
vt 0.580419 0.555759
vt 0.861931 0.670333
vt 0.848979 0.730565
vt 0.456038 0.730582
vt 0.443073 0.670353
vt 0.004883 0.952882
vt 0.100060 0.952882
vt 0.100060 0.954384
vt 0.004883 0.954384
vt 0.140183 0.952882
vt 0.220193 0.952882
vt 0.220193 0.954384
vt 0.140183 0.954384
vt 0.340326 0.952882
vt 0.435500 0.952882
vt 0.435500 0.954384
vt 0.340326 0.954384
vt 0.300202 0.952882
vt 0.300202 0.954384
vt 0.149403 0.924734
vt 0.090603 0.924734
vt 0.090603 0.922888
vt 0.149403 0.922888
vt 0.318823 0.924734
vt 0.318823 0.922888
vt 0.004882 0.924734
vt 0.004882 0.922888
vt 0.434587 0.904749
vt 0.375698 0.904749
vt 0.375698 0.902882
vt 0.434587 0.902882
vt 0.520428 0.904749
vt 0.520428 0.902882
vt 0.231356 0.344741
vt 0.231335 0.550843
vt 0.120104 0.551074
vt 0.160778 0.344734
vt 0.227280 0.866695
vt 0.197975 0.896576
vt 0.115223 0.896570
vt 0.115223 0.866856
vt 0.226477 0.767779
vt 0.115223 0.767732
vt 0.003165 0.866695
vt 0.032470 0.896576
vt 0.003991 0.767785
vt 0.301982 0.344769
vt 0.342589 0.551074
vt 0.037598 0.517339
vt 0.025368 0.456956
vt 0.437433 0.457027
vt 0.425163 0.517402
vt 0.651675 0.343804
vt 0.723769 0.343505
vt 0.763732 0.550733
vt 0.651675 0.550733
vt 0.896418 0.574868
vt 0.896418 0.686925
vt 0.867193 0.686925
vt 0.867193 0.604171
vt 0.994376 0.574868
vt 0.994376 0.686925
vt 0.896418 0.798983
vt 0.867194 0.769680
vt 0.994376 0.798983
vt 0.539618 0.550733
vt 0.579601 0.343804
vt 0.860839 0.457954
vt 0.848054 0.518222
vt 0.455321 0.518157
vt 0.442583 0.457879
vt 0.004880 0.932880
vt 0.100356 0.932880
vt 0.100356 0.934391
vt 0.004880 0.934391
vt 0.140724 0.932880
vt 0.220989 0.932880
vt 0.220989 0.934391
vt 0.140724 0.934391
vt 0.341623 0.932880
vt 0.437101 0.932880
vt 0.437101 0.934391
vt 0.341623 0.934391
vt 0.301255 0.932880
vt 0.301255 0.934391
vt 0.150086 0.914748
vt 0.090984 0.914748
vt 0.090984 0.912885
vt 0.150086 0.912885
vt 0.004881 0.914748
vt 0.004881 0.912885
vt 0.438084 0.944686
vt 0.378650 0.944686
vt 0.378650 0.942882
vt 0.438084 0.942882
vt 0.207797 0.944686
vt 0.207797 0.942882
vt 0.524689 0.944686
vt 0.524689 0.942882
vt 0.327669 0.005602
vt 0.327668 0.211116
vt 0.234519 0.211149
vt 0.277299 0.005602
vt 0.352026 0.211116
vt 0.458631 0.211149
vt 0.458631 0.309798
vt 0.352026 0.309911
vt 0.429327 0.339481
vt 0.352026 0.339482
vt 0.234519 0.309798
vt 0.327668 0.309911
vt 0.327669 0.339482
vt 0.263822 0.339480
vt 0.416425 0.005602
vt 0.352027 0.005602
vt 0.352026 0.346081
vt 0.327669 0.346081
vt 0.352026 0.374247
vt 0.352026 0.376102
vt 0.347274 0.375634
vt 0.342705 0.374248
vt 0.361347 0.374247
vt 0.356778 0.375634
vt 0.376383 0.351744
vt 0.352026 0.351744
vt 0.376383 0.346081
vt 0.327669 0.351744
vt 0.375915 0.356496
vt 0.352026 0.356496
vt 0.328137 0.356496
vt 0.374529 0.361066
vt 0.352026 0.361065
vt 0.329523 0.361066
vt 0.372278 0.365277
vt 0.352026 0.365277
vt 0.331774 0.365277
vt 0.369249 0.368967
vt 0.352026 0.368968
vt 0.334803 0.368968
vt 0.365558 0.371997
vt 0.352026 0.371997
vt 0.338494 0.371997
vt 0.135519 0.004739
vt 0.187963 0.004739
vt 0.228670 0.211492
vt 0.135520 0.211492
vt 0.111161 0.211492
vt 0.111161 0.309450
vt 0.004556 0.309450
vt 0.004556 0.211492
vt 0.111161 0.338675
vt 0.033859 0.338675
vt 0.228670 0.309450
vt 0.199367 0.338675
vt 0.135520 0.338675
vt 0.135519 0.309450
vt 0.044607 0.004435
vt 0.111161 0.004739
vt 0.111161 0.345267
vt 0.135519 0.345266
vt 0.111161 0.373434
vt 0.120483 0.373434
vt 0.115913 0.374820
vt 0.111161 0.375289
vt 0.101840 0.373434
vt 0.106409 0.374820
vt 0.086803 0.350931
vt 0.086803 0.345266
vt 0.111161 0.350930
vt 0.135519 0.350931
vt 0.111161 0.355682
vt 0.087271 0.355682
vt 0.135051 0.355683
vt 0.111161 0.360252
vt 0.088657 0.360252
vt 0.133665 0.360252
vt 0.111161 0.364463
vt 0.090908 0.364463
vt 0.131414 0.364463
vt 0.111161 0.368154
vt 0.093938 0.368154
vt 0.128385 0.368154
vt 0.111161 0.371184
vt 0.097629 0.371184
vt 0.124694 0.371184
vt 0.519598 0.924734
vt 0.519598 0.922888
vt 0.004886 0.944686
vt 0.004886 0.942882
vt 0.239168 0.970228
vt 0.338069 0.970228
vt 0.337605 0.971612
vt 0.239398 0.971634
vt 0.342286 0.970409
vt 0.440948 0.970409
vt 0.440718 0.971813
vt 0.342749 0.971790
vt 0.069492 0.971135
vt 0.005710 0.971145
vt 0.005710 0.969777
vt 0.069492 0.969768
vt 0.192417 0.970055
vt 0.234091 0.970044
vt 0.233766 0.971428
vt 0.192416 0.971422
vt 0.111157 0.971145
vt 0.110832 0.969761
vt 0.118936 0.977614
vt 0.114168 0.977613
vt 0.114168 0.976247
vt 0.118936 0.976247
vt 0.109399 0.977613
vt 0.109399 0.976247
vt 0.104630 0.977613
vt 0.104630 0.976246
vt 0.099861 0.977613
vt 0.099861 0.976246
vt 0.095093 0.977613
vt 0.095093 0.976246
vt 0.090324 0.977613
vt 0.090324 0.976246
vt 0.085555 0.977613
vt 0.085555 0.976246
vt 0.080786 0.977613
vt 0.080786 0.976246
vt 0.076018 0.977613
vt 0.076018 0.976246
vt 0.071249 0.977613
vt 0.071249 0.976246
vt 0.066480 0.977613
vt 0.066480 0.976246
vt 0.061711 0.977613
vt 0.061711 0.976246
vt 0.012654 0.977614
vt 0.006064 0.977614
vt 0.006071 0.976247
vt 0.012654 0.976247
vt 0.056942 0.977613
vt 0.056942 0.976246
vt 0.052174 0.977613
vt 0.052174 0.976246
vt 0.036980 0.977613
vt 0.036980 0.976246
vt 0.047405 0.977613
vt 0.047405 0.976246
vt 0.124593 0.977614
vt 0.124593 0.976247
vt 0.042636 0.977613
vt 0.042636 0.976246
vt 0.115179 0.970044
vt 0.115178 0.971412
vt 0.131183 0.977614
vt 0.131176 0.976247
vt 0.703280 0.911178
vt 0.703372 0.840551
vt 0.842408 0.911178
vt 0.842408 0.840551
vt 0.551692 0.842705
vt 0.551692 0.770612
vt 0.695046 0.770612
vt 0.695047 0.842705
vt 0.842408 0.769973
vt 0.703372 0.769973
vt 0.618245 0.866825
vt 0.642603 0.866826
vt 0.642603 0.914779
vt 0.618246 0.914779
vt 0.551692 0.914768
vt 0.695047 0.914779
s 0
f 45/1/1 1/2/1 2/3/1 14/4/1
f 2/3/2 1/2/2 3/5/2 4/6/2
f 4/6/3 3/5/3 5/7/3 6/8/3
f 61/9/4 8/10/4 9/11/4 7/12/4
f 9/11/5 11/13/5 10/14/5 7/12/5
f 11/13/6 13/15/6 12/16/6 10/14/6
f 1/17/7 45/18/7 61/19/7 7/20/7
f 14/21/8 2/22/8 9/23/8 8/24/8
f 3/25/9 1/26/9 7/27/9 10/28/9
f 2/29/10 4/30/10 11/31/10 9/32/10
f 6/33/11 5/34/11 12/35/11 13/36/11
f 5/34/12 3/25/12 10/28/12 12/35/12
f 4/30/13 6/33/13 13/36/13 11/31/13
f 84/37/14 83/38/14 160/39/14 159/40/14
f 21/41/15 22/42/15 16/43/15 75/44/15
f 17/45/16 19/46/16 24/47/16 23/48/16
f 15/49/17 17/45/17 23/48/17 22/50/17
f 18/51/18 23/48/18 24/47/18 20/52/18
f 16/53/19 22/50/19 23/48/19 18/51/19
f 21/41/20 14/54/20 15/55/20 22/42/20
f 75/44/21 16/43/21 26/56/21 25/57/21
f 14/54/22 27/58/22 28/59/22 15/55/22
f 36/60/23 30/61/23 31/62/23 37/63/23
f 32/64/24 38/65/24 39/66/24 34/67/24
f 29/68/25 37/69/25 38/65/25 32/64/25
f 33/70/24 35/71/24 39/66/24 38/65/24
f 31/72/25 33/70/25 38/65/25 37/69/25
f 36/60/23 37/63/23 29/73/23 8/74/23
f 30/61/26 40/75/26 41/76/26 31/62/26
f 8/74/27 29/73/27 43/77/27 42/78/27
f 16/79/28 18/80/28 33/81/28 31/82/28
f 20/83/29 24/84/29 39/85/29 35/86/29
f 18/80/30 20/83/30 35/86/30 33/81/30
f 17/87/31 15/88/31 29/89/31 32/90/31
f 19/91/32 17/87/32 32/90/32 34/92/32
f 25/93/33 26/94/33 41/95/33 40/96/33
f 75/97/34 25/93/34 40/96/34 30/98/34
f 26/94/35 16/99/35 31/100/35 41/95/35
f 28/101/36 27/102/36 42/103/36 43/104/36
f 27/102/37 14/21/37 8/24/37 42/103/37
f 15/105/38 28/101/38 43/104/38 29/106/38
f 24/84/29 19/91/29 34/92/29 39/85/29
f 51/107/39 52/108/39 46/109/39 45/110/39
f 47/111/40 49/112/40 54/113/40 53/114/40
f 44/115/41 47/111/41 53/114/41 52/116/41
f 48/117/42 53/114/42 54/113/42 50/118/42
f 46/119/43 52/116/43 53/114/43 48/117/43
f 51/107/44 77/120/44 44/121/44 52/108/44
f 45/110/45 46/109/45 56/122/45 55/123/45
f 77/120/46 57/124/46 58/125/46 44/121/46
f 67/126/47 61/127/47 62/128/47 68/129/47
f 63/130/48 69/131/48 70/132/48 65/133/48
f 60/134/49 68/135/49 69/131/49 63/130/49
f 64/136/48 66/137/48 70/132/48 69/131/48
f 62/138/49 64/136/49 69/131/49 68/135/49
f 67/126/50 68/129/50 60/139/50 59/140/50
f 61/127/51 71/141/51 72/142/51 62/128/51
f 59/140/52 60/139/52 74/143/52 73/144/52
f 46/145/53 48/146/53 64/147/53 62/148/53
f 50/149/54 54/150/54 70/151/54 66/152/54
f 48/146/55 50/149/55 66/152/55 64/147/55
f 47/153/56 44/154/56 60/155/56 63/156/56
f 49/157/57 47/153/57 63/156/57 65/158/57
f 55/159/58 56/160/58 72/161/58 71/162/58
f 45/18/59 55/159/59 71/162/59 61/19/59
f 56/160/60 46/163/60 62/164/60 72/161/60
f 58/165/61 57/166/61 73/167/61 74/168/61
f 57/166/62 77/169/62 59/170/62 73/167/62
f 44/171/63 58/165/63 74/168/63 60/172/63
f 54/150/54 49/157/54 65/158/54 70/151/54
f 83/173/64 86/174/64 78/175/64 77/176/64
f 85/177/65 76/178/65 79/179/65 87/180/65
f 87/180/66 79/179/66 81/181/66 102/182/66
f 80/183/67 88/184/67 89/185/67 82/186/67
f 88/184/68 87/180/68 102/182/68 89/185/68
f 78/175/69 86/174/69 88/184/69 80/183/69
f 86/174/70 85/177/70 87/180/70 88/184/70
f 75/187/71 76/178/71 85/177/71 84/188/71
f 84/188/72 85/177/72 86/174/72 83/173/72
f 104/189/73 108/190/73 89/185/73 102/182/73
f 117/191/73 99/192/73 98/193/73 97/194/73
f 101/195/73 100/196/73 99/192/73 117/191/73
f 90/197/73 106/198/73 104/189/73 110/199/73
f 106/198/73 91/200/73 108/190/73 104/189/73
f 90/197/73 111/201/73 112/202/73 106/198/73
f 106/198/73 112/202/73 92/203/73 91/200/73
f 111/201/73 109/204/73 113/205/73 112/202/73
f 112/202/73 113/205/73 93/206/73 92/203/73
f 109/204/73 107/207/73 114/208/73 113/205/73
f 113/205/73 114/208/73 94/209/73 93/206/73
f 107/207/73 105/210/73 115/211/73 114/208/73
f 114/208/73 115/211/73 95/212/73 94/209/73
f 105/210/73 103/213/73 116/214/73 115/211/73
f 115/211/73 116/214/73 96/215/73 95/212/73
f 103/213/73 101/195/73 117/191/73 116/214/73
f 116/214/74 117/191/74 97/194/74 96/215/74
f 124/216/75 59/217/75 119/218/75 127/219/75
f 126/220/76 128/221/76 120/222/76 118/223/76
f 128/221/77 143/224/77 122/225/77 120/222/77
f 121/226/77 123/227/77 130/228/77 129/229/77
f 129/229/77 130/228/77 143/224/77 128/221/77
f 119/218/76 121/226/76 129/229/76 127/219/76
f 127/219/76 129/229/76 128/221/76 126/220/76
f 30/230/78 125/231/78 126/220/78 118/223/78
f 125/231/75 124/216/75 127/219/75 126/220/75
f 145/232/79 143/224/79 130/228/79 149/233/79
f 158/234/79 138/235/79 139/236/79 140/237/79
f 142/238/79 158/234/79 140/237/79 141/239/79
f 131/240/79 151/241/79 145/232/79 147/242/79
f 147/242/79 145/232/79 149/233/79 132/243/79
f 131/240/79 147/242/79 153/244/79 152/245/79
f 147/242/79 132/243/79 133/246/79 153/244/79
f 152/245/79 153/244/79 154/247/79 150/248/79
f 153/244/79 133/246/79 134/249/79 154/247/79
f 150/248/79 154/247/79 155/250/79 148/251/79
f 154/247/79 134/249/79 135/252/79 155/250/79
f 148/251/79 155/250/79 156/253/79 146/254/79
f 155/250/79 135/252/79 136/255/79 156/253/79
f 146/254/79 156/253/79 157/256/79 144/257/79
f 156/253/79 136/255/79 137/258/79 157/256/79
f 144/257/79 157/256/79 158/234/79 142/238/79
f 157/256/79 137/258/79 138/235/79 158/234/79
f 76/259/80 75/97/80 30/98/80 118/260/80
f 77/169/81 78/261/81 119/262/81 59/170/81
f 79/263/10 76/264/10 118/265/10 120/266/10
f 78/267/9 80/268/9 121/269/9 119/270/9
f 82/271/82 89/272/82 130/273/82 123/274/82
f 81/275/83 79/276/83 120/277/83 122/278/83
f 80/279/84 82/271/84 123/274/84 121/280/84
f 91/281/85 92/282/85 133/283/85 132/284/85
f 92/282/86 93/285/86 134/286/86 133/283/86
f 93/285/87 94/287/87 135/288/87 134/286/87
f 94/287/88 95/289/88 136/290/88 135/288/88
f 95/289/89 96/291/89 137/292/89 136/290/89
f 96/291/90 97/293/90 138/294/90 137/292/90
f 97/293/91 98/295/91 139/296/91 138/294/91
f 98/295/92 99/297/92 140/298/92 139/296/92
f 99/297/93 100/299/93 141/300/93 140/298/93
f 100/299/94 101/301/94 142/302/94 141/300/94
f 101/301/95 103/303/95 144/304/95 142/302/95
f 103/303/96 105/305/96 146/306/96 144/304/96
f 104/307/10 102/308/10 143/309/10 145/310/10
f 105/305/97 107/311/97 148/312/97 146/306/97
f 107/311/98 109/313/98 150/314/98 148/312/98
f 110/315/99 104/307/99 145/310/99 151/316/99
f 109/313/100 111/317/100 152/318/100 150/314/100
f 108/319/9 91/281/9 132/284/9 149/320/9
f 90/321/10 110/315/10 151/316/10 131/322/10
f 111/317/101 90/321/101 131/322/101 152/318/101
f 102/323/82 81/275/82 122/278/82 143/324/82
f 89/325/9 108/319/9 149/320/9 130/326/9
f 83/38/14 77/327/14 51/328/14 160/39/14
f 75/329/14 84/37/14 159/40/14 21/330/14
f 36/331/102 8/332/102 61/333/102 67/334/102
f 14/335/14 21/330/14 51/328/14 45/336/14
f 160/39/14 51/328/14 21/330/14 159/40/14
f 161/337/103 162/338/103 124/339/103 125/340/103
f 36/331/104 67/334/104 162/338/104 161/337/104
f 161/337/105 125/340/105 30/341/105 36/331/105
f 124/339/106 162/338/106 67/334/106 59/342/106
