# Blender 4.0.2
# www.blender.org
o cake_stand
v 0.000063 0.000000 -0.040904
v 0.000000 0.064389 -0.022119
v 0.015700 0.000000 -0.037794
v 0.008464 0.064389 -0.020435
v 0.028957 0.000000 -0.028936
v 0.015640 0.064389 -0.015640
v 0.037814 0.000000 -0.015679
v 0.020435 0.064389 -0.008464
v 0.040925 0.000000 -0.000042
v 0.022119 0.064389 0.000000
v 0.037814 0.000000 0.015596
v 0.020435 0.064389 0.008464
v 0.028957 0.000000 0.028852
v 0.015640 0.064389 0.015640
v 0.015700 0.000000 0.037710
v 0.008464 0.064389 0.020435
v 0.000063 0.000000 0.040821
v -0.000000 0.064389 0.022119
v -0.015575 0.000000 0.037710
v -0.008464 0.064389 0.020435
v -0.028831 0.000000 0.028852
v -0.015640 0.064389 0.015640
v -0.037689 0.000000 0.015596
v -0.020435 0.064389 0.008464
v -0.040800 0.000000 -0.000042
v -0.022119 0.064389 -0.000000
v -0.037689 0.000000 -0.015679
v -0.020435 0.064389 -0.008464
v -0.028831 0.000000 -0.028936
v -0.015640 0.064389 -0.015640
v -0.015575 0.000000 -0.037794
v -0.008464 0.064389 -0.020435
v 0.000000 0.049735 -0.022844
v 0.008742 0.049735 -0.021105
v 0.016153 0.049735 -0.016153
v 0.021105 0.049735 -0.008742
v 0.022844 0.049735 0.000000
v 0.021105 0.049735 0.008742
v 0.016153 0.049735 0.016153
v 0.008742 0.049735 0.021105
v -0.000000 0.049735 0.022844
v -0.008742 0.049735 0.021105
v -0.016153 0.049735 0.016153
v -0.021105 0.049735 0.008742
v -0.022844 0.049735 -0.000000
v -0.021105 0.049735 -0.008742
v -0.016153 0.049735 -0.016153
v -0.008742 0.049735 -0.021105
v 0.011703 0.013667 -0.030115
v 0.022528 0.013667 -0.022882
v 0.029761 0.013667 -0.012057
v 0.032301 0.013667 0.000712
v 0.029761 0.013667 0.013481
v 0.022528 0.013667 0.024307
v 0.011703 0.013667 0.031540
v -0.001066 0.013667 0.034080
v -0.013835 0.013667 0.031540
v -0.024660 0.013667 0.024307
v -0.031894 0.013667 0.013481
v -0.034433 0.013667 0.000712
v -0.031894 0.013667 -0.012057
v -0.024660 0.013667 -0.022882
v -0.013835 0.013667 -0.030115
v -0.001066 0.013667 -0.032655
v 0.000063 0.000000 -0.000042
v -0.000533 0.032317 -0.026029
v 0.009564 0.032317 -0.024020
v 0.018124 0.032317 -0.018301
v 0.023843 0.032317 -0.009741
v 0.025852 0.032317 0.000356
v 0.023843 0.032317 0.010453
v 0.018124 0.032317 0.019013
v 0.009564 0.032317 0.024733
v -0.000533 0.032317 0.026741
v -0.010630 0.032317 0.024733
v -0.019190 0.032317 0.019013
v -0.024910 0.032317 0.010453
v -0.026918 0.032317 0.000356
v -0.024910 0.032317 -0.009741
v -0.019190 0.032317 -0.018301
v -0.010630 0.032317 -0.024020
v 0.000000 0.063709 -0.125000
v 0.000000 0.073709 -0.125000
v 0.032352 0.063709 -0.120741
v 0.032352 0.073709 -0.120741
v 0.062500 0.063709 -0.108253
v 0.062500 0.073709 -0.108253
v 0.088388 0.063709 -0.088388
v 0.088388 0.073709 -0.088388
v 0.108253 0.063709 -0.062500
v 0.108253 0.073709 -0.062500
v 0.120741 0.063709 -0.032352
v 0.120741 0.073709 -0.032352
v 0.125000 0.063709 0.000000
v 0.125000 0.073709 0.000000
v 0.120741 0.063709 0.032352
v 0.120741 0.073709 0.032352
v 0.108253 0.063709 0.062500
v 0.108253 0.073709 0.062500
v 0.088388 0.063709 0.088388
v 0.088388 0.073709 0.088388
v 0.062500 0.063709 0.108253
v 0.062500 0.073709 0.108253
v 0.032352 0.063709 0.120741
v 0.032352 0.073709 0.120741
v -0.000000 0.063709 0.125000
v -0.000000 0.073709 0.125000
v -0.032352 0.063709 0.120741
v -0.032352 0.073709 0.120741
v -0.062500 0.063709 0.108253
v -0.062500 0.073709 0.108253
v -0.088388 0.063709 0.088388
v -0.088388 0.073709 0.088388
v -0.108253 0.063709 0.062500
v -0.108253 0.073709 0.062500
v -0.120741 0.063709 0.032352
v -0.120741 0.073709 0.032352
v -0.125000 0.063709 -0.000000
v -0.125000 0.073709 -0.000000
v -0.120741 0.063709 -0.032352
v -0.120741 0.073709 -0.032352
v -0.108253 0.063709 -0.062500
v -0.108253 0.073709 -0.062500
v -0.088388 0.063709 -0.088388
v -0.088388 0.073709 -0.088388
v -0.062500 0.063709 -0.108253
v -0.062500 0.073709 -0.108253
v -0.032352 0.063709 -0.120741
v -0.032352 0.073709 -0.120741
v 0.000000 0.073709 -0.000000
v -0.000000 0.063709 -0.000000
vn 0.0019 0.1158 -0.9933
vn -0.0000 0.0495 -0.9988
vn 0.3822 0.0495 -0.9227
vn 0.3815 0.1108 -0.9177
vn 0.7062 0.0495 -0.7062
vn 0.7033 0.1081 -0.7026
vn 0.9227 0.0495 -0.3822
vn 0.9183 0.1081 -0.3809
vn 0.9988 0.0495 -0.0000
vn 0.9938 0.1108 -0.0013
vn 0.9227 0.0495 0.3822
vn 0.9184 0.1158 0.3783
vn 0.7062 0.0495 0.7062
vn 0.7034 0.1223 0.7002
vn 0.3822 0.0495 0.9227
vn 0.3816 0.1293 0.9153
vn -0.0000 0.0495 0.9988
vn 0.0019 0.1357 0.9907
vn -0.3822 0.0495 0.9227
vn -0.3777 0.1407 0.9152
vn -0.7062 0.0495 0.7062
vn -0.6995 0.1434 0.7001
vn -0.9227 0.0495 0.3822
vn -0.9145 0.1434 0.3783
vn -0.9988 0.0495 -0.0000
vn -0.9901 0.1407 -0.0013
vn -0.9227 0.0495 -0.3822
vn -0.9146 0.1357 -0.3809
vn -0.7062 0.0495 -0.7062
vn -0.6996 0.1293 -0.7028
vn -0.0000 -1.0000 -0.0000
vn -0.3822 0.0495 -0.9227
vn -0.3777 0.1223 -0.9178
vn -0.3682 0.2722 -0.8890
vn -0.0000 0.2607 -0.9654
vn -0.6779 0.2846 -0.6779
vn -0.8825 0.2959 -0.3656
vn -0.9525 0.3044 -0.0000
vn -0.8787 0.3090 0.3639
vn -0.6725 0.3090 0.6725
vn -0.3645 0.3044 0.8800
vn -0.0000 0.2959 0.9552
vn 0.3669 0.2846 0.8857
vn 0.6804 0.2722 0.6804
vn 0.8919 0.2607 0.3694
vn 0.9678 0.2518 -0.0000
vn 0.8953 0.2469 -0.3708
vn 0.6852 0.2469 -0.6852
vn 0.3704 0.2518 -0.8941
vn 0.0069 0.5171 -0.8559
vn -0.0058 0.4326 -0.9016
vn 0.3404 0.4386 -0.8317
vn 0.3277 0.5338 -0.7795
vn 0.6334 0.4418 -0.6353
vn 0.5951 0.5425 -0.5929
vn 0.8293 0.4418 -0.3421
vn 0.7755 0.5425 -0.3229
vn 0.8987 0.4386 0.0038
vn 0.8456 0.5338 -0.0045
vn 0.8307 0.4326 0.3504
vn 0.7933 0.5171 0.3212
vn 0.6353 0.4244 0.6452
vn 0.6206 0.4943 0.6087
vn 0.3416 0.4151 0.8432
vn 0.3461 0.4683 0.8130
vn -0.0061 0.4062 0.9137
vn 0.0076 0.4428 0.8966
vn -0.3547 0.3992 0.8455
vn -0.3420 0.4225 0.8394
vn -0.6505 0.3954 0.6485
vn -0.6433 0.4111 0.6459
vn -0.8481 0.3954 0.3528
vn -0.8429 0.4111 0.3471
vn -0.9168 0.3992 0.0041
vn -0.9064 0.4225 -0.0052
vn -0.8465 0.4062 -0.3441
vn -0.8254 0.4428 -0.3501
vn -0.6483 0.4151 -0.6383
vn -0.6186 0.4683 -0.6309
vn -0.3529 0.4244 -0.8339
vn -0.3249 0.4943 -0.8063
vn -0.2588 -0.0000 -0.9659
vn -0.0000 -0.0000 -1.0000
vn 0.5000 -0.0000 -0.8660
vn 0.7071 -0.0000 -0.7071
vn 0.8660 -0.0000 -0.5000
vn 0.9659 -0.0000 -0.2588
vn 1.0000 -0.0000 -0.0000
vn 0.9659 -0.0000 0.2588
vn 0.8660 -0.0000 0.5000
vn 0.7071 -0.0000 0.7071
vn 0.5000 -0.0000 0.8660
vn 0.2588 -0.0000 0.9659
vn -0.0000 -0.0000 1.0000
vn -0.2588 -0.0000 0.9659
vn -0.5000 -0.0000 0.8660
vn -0.7071 -0.0000 0.7071
vn -0.8660 -0.0000 0.5000
vn -0.9659 -0.0000 0.2588
vn -1.0000 -0.0000 -0.0000
vn -0.9659 -0.0000 -0.2588
vn -0.8660 -0.0000 -0.5000
vn -0.7071 -0.0000 -0.7071
vn -0.5000 -0.0000 -0.8660
vn 0.2588 -0.0000 -0.9659
vn -0.0000 1.0000 -0.0000
vt 0.691365 0.176307
vt 0.691365 0.208966
vt 0.666079 0.208966
vt 0.666079 0.176307
vt 0.640792 0.208966
vt 0.640792 0.176307
vt 0.615506 0.208966
vt 0.615506 0.176307
vt 0.590220 0.208966
vt 0.590220 0.176307
vt 0.994802 0.176307
vt 0.994802 0.208966
vt 0.969516 0.208966
vt 0.969516 0.176307
vt 0.944229 0.208966
vt 0.944229 0.176307
vt 0.918943 0.208966
vt 0.918943 0.176307
vt 0.893656 0.208966
vt 0.893656 0.176307
vt 0.868370 0.208966
vt 0.868370 0.176307
vt 0.843084 0.208966
vt 0.843084 0.176307
vt 0.817797 0.208966
vt 0.817797 0.176307
vt 0.792511 0.208966
vt 0.792511 0.176307
vt 0.767224 0.208966
vt 0.767224 0.176307
vt 0.741938 0.208966
vt 0.741938 0.176307
vt 0.795045 0.343557
vt 0.788046 0.308372
vt 0.879991 0.308372
vt 0.814976 0.373386
vt 0.716652 0.208966
vt 0.716652 0.176307
vt 0.844805 0.393317
vt 0.879991 0.400316
vt 0.716652 0.136728
vt 0.691365 0.136728
vt 0.741938 0.136728
vt 0.767224 0.136728
vt 0.792511 0.136728
vt 0.817797 0.136728
vt 0.843084 0.136728
vt 0.868370 0.136728
vt 0.893656 0.136728
vt 0.918943 0.136728
vt 0.944229 0.136728
vt 0.969516 0.136728
vt 0.994802 0.136728
vt 0.615506 0.136728
vt 0.590220 0.136728
vt 0.640792 0.136728
vt 0.666079 0.136728
vt 0.691365 0.057581
vt 0.691365 0.092410
vt 0.666079 0.092410
vt 0.666079 0.057581
vt 0.640792 0.092410
vt 0.640792 0.057581
vt 0.615506 0.092410
vt 0.615506 0.057581
vt 0.590220 0.092410
vt 0.590220 0.057581
vt 0.994802 0.057581
vt 0.994802 0.092410
vt 0.969516 0.092410
vt 0.969516 0.057581
vt 0.944229 0.092410
vt 0.944229 0.057581
vt 0.918943 0.092410
vt 0.918943 0.057581
vt 0.893656 0.092410
vt 0.893656 0.057581
vt 0.868370 0.092410
vt 0.868370 0.057581
vt 0.843084 0.092410
vt 0.843084 0.057581
vt 0.817797 0.092410
vt 0.817797 0.057581
vt 0.792511 0.092410
vt 0.792511 0.057581
vt 0.767224 0.092410
vt 0.767224 0.057581
vt 0.741938 0.092410
vt 0.741938 0.057581
vt 0.716652 0.092410
vt 0.716652 0.057581
vt 0.795045 0.273186
vt 0.814976 0.243357
vt 0.844805 0.223426
vt 0.879991 0.216427
vt 0.915177 0.223426
vt 0.945006 0.243357
vt 0.964937 0.273186
vt 0.971935 0.308372
vt 0.964936 0.343558
vt 0.945005 0.373386
vt 0.915176 0.393318
vt 0.372028 0.051686
vt 0.372028 0.029184
vt 0.445458 0.029184
vt 0.445458 0.051686
vt 0.592317 0.051687
vt 0.592317 0.029184
vt 0.665746 0.029184
vt 0.665746 0.051687
vt 0.739176 0.029184
vt 0.739176 0.051687
vt 0.812605 0.029184
vt 0.812605 0.051687
vt 0.886035 0.029184
vt 0.886035 0.051687
vt 0.886035 0.006681
vt 0.886035 0.029184
vt 0.812605 0.029184
vt 0.812605 0.006681
vt 0.739176 0.029184
vt 0.739176 0.006681
vt 0.665746 0.029184
vt 0.665746 0.006681
vt 0.592317 0.029184
vt 0.592317 0.006681
vt 0.518887 0.029184
vt 0.518887 0.006681
vt 0.445458 0.029184
vt 0.445458 0.006681
vt 0.372028 0.029184
vt 0.372028 0.006681
vt 0.298599 0.029184
vt 0.298599 0.006681
vt 0.225169 0.029184
vt 0.225169 0.006681
vt 0.151740 0.029184
vt 0.151740 0.006681
vt 0.078310 0.029184
vt 0.078310 0.006681
vt 0.004880 0.029184
vt 0.004880 0.006681
vt 0.004880 0.051686
vt 0.004880 0.029184
vt 0.078310 0.029184
vt 0.078310 0.051686
vt 0.151739 0.029184
vt 0.151739 0.051686
vt 0.225169 0.029184
vt 0.225169 0.051686
vt 0.298599 0.029184
vt 0.298599 0.051686
vt 0.518887 0.051686
vt 0.518887 0.029184
vt 0.954675 0.852742
vt 0.711095 0.712112
vt 0.992356 0.712112
vt 0.982773 0.784908
vt 0.286176 0.620143
vt 0.286176 0.338881
vt 0.426807 0.582461
vt 0.358972 0.610559
vt 0.145546 0.582461
vt 0.213381 0.610559
vt 0.042597 0.479512
vt 0.087294 0.537763
vt 0.004915 0.338881
vt 0.014499 0.411677
vt 0.042597 0.198250
vt 0.014499 0.266085
vt 0.145546 0.095302
vt 0.087294 0.139999
vt 0.286176 0.057620
vt 0.213381 0.067203
vt 0.426807 0.095302
vt 0.358973 0.067204
vt 0.529756 0.198250
vt 0.485058 0.139999
vt 0.567438 0.338881
vt 0.557854 0.266085
vt 0.529756 0.479512
vt 0.557854 0.411677
vt 0.485058 0.537763
vt 0.954675 0.571481
vt 0.982773 0.639315
vt 0.851726 0.955691
vt 0.909977 0.910994
vt 0.711095 0.993373
vt 0.783891 0.983789
vt 0.570464 0.955691
vt 0.638299 0.983789
vt 0.467515 0.852742
vt 0.512213 0.910994
vt 0.429833 0.712112
vt 0.439417 0.784907
vt 0.467515 0.571481
vt 0.439417 0.639316
vt 0.570464 0.468532
vt 0.512213 0.513230
vt 0.711095 0.430850
vt 0.638299 0.440434
vt 0.851726 0.468532
vt 0.783891 0.440434
vt 0.909977 0.513229
s 1
f 33/1/1 2/2/2 4/3/3 34/4/4
f 34/4/4 4/3/3 6/5/5 35/6/6
f 35/6/6 6/5/5 8/7/7 36/8/8
f 36/8/8 8/7/7 10/9/9 37/10/10
f 37/11/10 10/12/9 12/13/11 38/14/12
f 38/14/12 12/13/11 14/15/13 39/16/14
f 39/16/14 14/15/13 16/17/15 40/18/16
f 40/18/16 16/17/15 18/19/17 41/20/18
f 41/20/18 18/19/17 20/21/19 42/22/20
f 42/22/20 20/21/19 22/23/21 43/24/22
f 43/24/22 22/23/21 24/25/23 44/26/24
f 44/26/24 24/25/23 26/27/25 45/28/26
f 45/28/26 26/27/25 28/29/27 46/30/28
f 46/30/28 28/29/27 30/31/29 47/32/30
f 7/33/31 9/34/31 65/35/31 5/36/31
f 47/32/30 30/31/29 32/37/32 48/38/33
f 48/38/33 32/37/32 2/2/2 33/1/1
f 3/39/31 5/36/31 65/35/31 1/40/31
f 81/41/34 48/38/33 33/1/1 66/42/35
f 80/43/36 47/32/30 48/38/33 81/41/34
f 79/44/37 46/30/28 47/32/30 80/43/36
f 78/45/38 45/28/26 46/30/28 79/44/37
f 77/46/39 44/26/24 45/28/26 78/45/38
f 76/47/40 43/24/22 44/26/24 77/46/39
f 75/48/41 42/22/20 43/24/22 76/47/40
f 74/49/42 41/20/18 42/22/20 75/48/41
f 73/50/43 40/18/16 41/20/18 74/49/42
f 72/51/44 39/16/14 40/18/16 73/50/43
f 71/52/45 38/14/12 39/16/14 72/51/44
f 70/53/46 37/11/10 38/14/12 71/52/45
f 69/54/47 36/8/8 37/10/10 70/55/46
f 68/56/48 35/6/6 36/8/8 69/54/47
f 67/57/49 34/4/4 35/6/6 68/56/48
f 66/42/35 33/1/1 34/4/4 67/57/49
f 1/58/50 64/59/51 49/60/52 3/61/53
f 3/61/53 49/60/52 50/62/54 5/63/55
f 5/63/55 50/62/54 51/64/56 7/65/57
f 7/65/57 51/64/56 52/66/58 9/67/59
f 9/68/59 52/69/58 53/70/60 11/71/61
f 11/71/61 53/70/60 54/72/62 13/73/63
f 13/73/63 54/72/62 55/74/64 15/75/65
f 15/75/65 55/74/64 56/76/66 17/77/67
f 17/77/67 56/76/66 57/78/68 19/79/69
f 19/79/69 57/78/68 58/80/70 21/81/71
f 21/81/71 58/80/70 59/82/72 23/83/73
f 23/83/73 59/82/72 60/84/74 25/85/75
f 25/85/75 60/84/74 61/86/76 27/87/77
f 27/87/77 61/86/76 62/88/78 29/89/79
f 29/89/79 62/88/78 63/90/80 31/91/81
f 31/91/81 63/90/80 64/59/51 1/58/50
f 11/92/31 13/93/31 65/35/31 9/34/31
f 15/94/31 17/95/31 65/35/31 13/93/31
f 19/96/31 21/97/31 65/35/31 17/95/31
f 23/98/31 25/99/31 65/35/31 21/97/31
f 27/100/31 29/101/31 65/35/31 25/99/31
f 31/102/31 1/40/31 65/35/31 29/101/31
f 64/59/51 66/42/35 67/57/49 49/60/52
f 49/60/52 67/57/49 68/56/48 50/62/54
f 50/62/54 68/56/48 69/54/47 51/64/56
f 51/64/56 69/54/47 70/55/46 52/66/58
f 52/69/58 70/53/46 71/52/45 53/70/60
f 53/70/60 71/52/45 72/51/44 54/72/62
f 54/72/62 72/51/44 73/50/43 55/74/64
f 55/74/64 73/50/43 74/49/42 56/76/66
f 56/76/66 74/49/42 75/48/41 57/78/68
f 57/78/68 75/48/41 76/47/40 58/80/70
f 58/80/70 76/47/40 77/46/39 59/82/72
f 59/82/72 77/46/39 78/45/38 60/84/74
f 60/84/74 78/45/38 79/44/37 61/86/76
f 61/86/76 79/44/37 80/43/36 62/88/78
f 62/88/78 80/43/36 81/41/34 63/90/80
f 63/90/80 81/41/34 66/42/35 64/59/51
f 128/103/82 129/104/82 83/105/83 82/106/83
f 86/107/84 87/108/84 89/109/85 88/110/85
f 88/110/85 89/109/85 91/111/86 90/112/86
f 90/112/86 91/111/86 93/113/87 92/114/87
f 92/114/87 93/113/87 95/115/88 94/116/88
f 94/117/88 95/118/88 97/119/89 96/120/89
f 96/120/89 97/119/89 99/121/90 98/122/90
f 98/122/90 99/121/90 101/123/91 100/124/91
f 100/124/91 101/123/91 103/125/92 102/126/92
f 102/126/92 103/125/92 105/127/93 104/128/93
f 104/128/93 105/127/93 107/129/94 106/130/94
f 106/130/94 107/129/94 109/131/95 108/132/95
f 108/132/95 109/131/95 111/133/96 110/134/96
f 110/134/96 111/133/96 113/135/97 112/136/97
f 112/136/97 113/135/97 115/137/98 114/138/98
f 114/138/98 115/137/98 117/139/99 116/140/99
f 116/140/99 117/139/99 119/141/100 118/142/100
f 118/143/100 119/144/100 121/145/101 120/146/101
f 120/146/101 121/145/101 123/147/102 122/148/102
f 122/148/102 123/147/102 125/149/103 124/150/103
f 124/150/103 125/149/103 127/151/104 126/152/104
f 126/152/104 127/151/104 129/104/82 128/103/82
f 84/153/105 85/154/105 87/108/84 86/107/84
f 90/155/31 131/156/31 86/157/31 88/158/31
f 82/106/83 83/105/83 85/154/105 84/153/105
f 83/159/106 130/160/106 87/161/106 85/162/106
f 127/163/106 130/160/106 83/159/106 129/164/106
f 123/165/106 130/160/106 127/163/106 125/166/106
f 119/167/106 130/160/106 123/165/106 121/168/106
f 115/169/106 130/160/106 119/167/106 117/170/106
f 111/171/106 130/160/106 115/169/106 113/172/106
f 107/173/106 130/160/106 111/171/106 109/174/106
f 103/175/106 130/160/106 107/173/106 105/176/106
f 99/177/106 130/160/106 103/175/106 101/178/106
f 95/179/106 130/160/106 99/177/106 97/180/106
f 91/181/106 130/160/106 95/179/106 93/182/106
f 87/161/106 130/160/106 91/181/106 89/183/106
f 86/157/31 131/156/31 82/184/31 84/185/31
f 94/186/31 131/156/31 90/155/31 92/187/31
f 98/188/31 131/156/31 94/186/31 96/189/31
f 102/190/31 131/156/31 98/188/31 100/191/31
f 106/192/31 131/156/31 102/190/31 104/193/31
f 110/194/31 131/156/31 106/192/31 108/195/31
f 114/196/31 131/156/31 110/194/31 112/197/31
f 118/198/31 131/156/31 114/196/31 116/199/31
f 122/200/31 131/156/31 118/198/31 120/201/31
f 126/202/31 131/156/31 122/200/31 124/203/31
f 82/184/31 131/156/31 126/202/31 128/204/31
