# Blender 4.0.2
# www.blender.org
o horn
v -0.060898 0.190545 0.199391
v -0.046609 0.202716 0.181808
v -0.025225 0.210848 0.170059
v 0.000000 0.213704 0.165934
v 0.025225 0.210848 0.170059
v 0.046609 0.202716 0.181808
v 0.060898 0.190545 0.199391
v 0.065915 0.176189 0.220132
v 0.060898 0.161832 0.240872
v 0.046609 0.149661 0.258456
v 0.025225 0.141529 0.270204
v -0.000000 0.138673 0.274330
v -0.025225 0.141529 0.270204
v -0.046609 0.149661 0.258456
v -0.060898 0.161832 0.240872
v -0.065915 0.176189 0.220132
v -0.056952 0.165518 0.184055
v -0.043589 0.176913 0.167621
v -0.023590 0.184528 0.156640
v 0.000000 0.187202 0.152784
v 0.023590 0.184528 0.156640
v 0.043589 0.176913 0.167621
v 0.056952 0.165518 0.184055
v 0.061644 0.152076 0.203441
v 0.056952 0.138633 0.222827
v 0.043589 0.127238 0.239261
v 0.023590 0.119623 0.250242
v -0.000000 0.116950 0.254098
v -0.023590 0.119623 0.250242
v -0.043589 0.127238 0.239261
v -0.056952 0.138633 0.222827
v -0.061644 0.152076 0.203441
v -0.053485 0.141112 0.168860
v -0.040936 0.152230 0.153723
v -0.022154 0.159659 0.143609
v 0.000000 0.162267 0.140057
v 0.022154 0.159659 0.143609
v 0.040936 0.152230 0.153723
v 0.053485 0.141111 0.168860
v 0.057892 0.127997 0.186715
v 0.053485 0.114882 0.204570
v 0.040936 0.103764 0.219707
v 0.022154 0.096335 0.229821
v -0.000000 0.093726 0.233373
v -0.022154 0.096335 0.229821
v -0.040936 0.103764 0.219707
v -0.053485 0.114882 0.204570
v -0.057892 0.127997 0.186715
v -0.050314 0.118034 0.152614
v -0.038509 0.129220 0.138938
v -0.020841 0.136694 0.129800
v 0.000000 0.139319 0.126591
v 0.020841 0.136694 0.129800
v 0.038509 0.129220 0.138938
v 0.050314 0.118034 0.152614
v 0.054460 0.104840 0.168746
v 0.050314 0.091645 0.184878
v 0.038509 0.080459 0.198554
v 0.020841 0.072985 0.207692
v -0.000000 0.070361 0.210901
v -0.020841 0.072985 0.207692
v -0.038509 0.080459 0.198554
v -0.050314 0.091645 0.184878
v -0.054460 0.104840 0.168746
v -0.047307 0.095734 0.135040
v -0.036207 0.106843 0.122689
v -0.019595 0.114266 0.114436
v 0.000000 0.116873 0.111538
v 0.019595 0.114266 0.114436
v 0.036207 0.106843 0.122689
v 0.047307 0.095734 0.135040
v 0.051205 0.082631 0.149609
v 0.047307 0.069527 0.164179
v 0.036207 0.058418 0.176530
v 0.019595 0.050995 0.184783
v -0.000000 0.048388 0.187681
v -0.019595 0.050995 0.184783
v -0.036207 0.058418 0.176530
v -0.047307 0.069527 0.164179
v -0.051205 0.082631 0.149609
v -0.044392 0.074539 0.116829
v -0.033976 0.085786 0.106036
v -0.018388 0.093302 0.098824
v 0.000000 0.095941 0.096291
v 0.018388 0.093302 0.098824
v 0.033976 0.085786 0.106036
v 0.044392 0.074539 0.116829
v 0.048050 0.061271 0.129560
v 0.044392 0.048004 0.142291
v 0.033976 0.036756 0.153084
v 0.018388 0.029241 0.160296
v -0.000000 0.026602 0.162828
v -0.018388 0.029241 0.160296
v -0.033976 0.036756 0.153084
v -0.044392 0.048004 0.142291
v -0.048050 0.061271 0.129560
v -0.041602 0.055957 0.097116
v -0.031841 0.067659 0.088372
v -0.017232 0.075479 0.082529
v 0.000000 0.078225 0.080477
v 0.017232 0.075479 0.082529
v 0.031841 0.067659 0.088372
v 0.041602 0.055957 0.097116
v 0.045030 0.042153 0.107431
v 0.041602 0.028348 0.117745
v 0.031841 0.016646 0.126489
v 0.017232 0.008827 0.132332
v -0.000000 0.006081 0.134384
v -0.017232 0.008827 0.132332
v -0.031841 0.016646 0.126489
v -0.041602 0.028349 0.117745
v -0.045030 0.042153 0.107431
v -0.038885 0.040379 0.074912
v -0.029761 0.052272 0.068204
v -0.016107 0.060219 0.063722
v 0.000000 0.063010 0.062148
v 0.016107 0.060219 0.063722
v 0.029761 0.052272 0.068204
v 0.038885 0.040379 0.074912
v 0.042089 0.026350 0.082824
v 0.038885 0.012321 0.090737
v 0.029761 0.000428 0.097445
v 0.016107 -0.007519 0.101927
v -0.000000 -0.010310 0.103501
v -0.016107 -0.007519 0.101927
v -0.029761 0.000428 0.097445
v -0.038885 0.012321 0.090737
v -0.042089 0.026350 0.082824
v -0.036227 0.027343 0.050861
v -0.027727 0.039111 0.046029
v -0.015006 0.046974 0.042800
v 0.000000 0.049735 0.041666
v 0.015006 0.046974 0.042800
v 0.027727 0.039111 0.046029
v 0.036227 0.027343 0.050861
v 0.039212 0.013462 0.056561
v 0.036227 -0.000419 0.062261
v 0.027727 -0.012187 0.067094
v 0.015006 -0.020050 0.070322
v -0.000000 -0.022811 0.071456
v -0.015006 -0.020050 0.070322
v -0.027727 -0.012187 0.067094
v -0.036227 -0.000419 0.062261
v -0.039212 0.013462 0.056561
v -0.033655 0.017752 0.025643
v -0.025758 0.029249 0.022907
v -0.013940 0.036931 0.021079
v 0.000000 0.039629 0.020437
v 0.013940 0.036931 0.021079
v 0.025758 0.029249 0.022907
v 0.033655 0.017752 0.025643
v 0.036428 0.004190 0.028870
v 0.033655 -0.009371 0.032097
v 0.025758 -0.020868 0.034833
v 0.013940 -0.028550 0.036661
v -0.000000 -0.031248 0.037303
v -0.013940 -0.028550 0.036661
v -0.025758 -0.020868 0.034833
v -0.033655 -0.009371 0.032097
v -0.036428 0.004191 0.028870
v -0.031113 0.012865 -0.000766
v -0.023813 0.023771 -0.001416
v -0.012887 0.031058 -0.001850
v 0.000000 0.033617 -0.002003
v 0.012887 0.031058 -0.001850
v 0.023813 0.023770 -0.001416
v 0.031113 0.012865 -0.000766
v 0.033676 -0.000000 0.000000
v 0.031113 -0.012865 0.000766
v 0.023813 -0.023771 0.001416
v 0.012887 -0.031058 0.001850
v -0.000000 -0.033617 0.002003
v -0.012887 -0.031058 0.001850
v -0.023813 -0.023771 0.001416
v -0.031113 -0.012865 0.000766
v -0.033676 0.000000 -0.000000
v -0.028659 0.012549 -0.028040
v -0.021934 0.022564 -0.027058
v -0.011871 0.029256 -0.026402
v 0.000000 0.031606 -0.026172
v 0.011871 0.029256 -0.026402
v 0.021934 0.022564 -0.027058
v 0.028659 0.012549 -0.028040
v 0.031020 0.000734 -0.029198
v 0.028659 -0.011080 -0.030355
v 0.021934 -0.021095 -0.031337
v 0.011871 -0.027788 -0.031993
v -0.000000 -0.030138 -0.032223
v -0.011871 -0.027788 -0.031993
v -0.021934 -0.021095 -0.031337
v -0.028659 -0.011080 -0.030355
v -0.031020 0.000734 -0.029198
v -0.026223 0.016217 -0.055340
v -0.020070 0.025146 -0.053090
v -0.010862 0.031112 -0.051586
v 0.000000 0.033207 -0.051058
v 0.010862 0.031112 -0.051586
v 0.020070 0.025146 -0.053090
v 0.026223 0.016217 -0.055340
v 0.028383 0.005685 -0.057995
v 0.026223 -0.004848 -0.060650
v 0.020070 -0.013777 -0.062901
v 0.010862 -0.019743 -0.064404
v -0.000000 -0.021838 -0.064932
v -0.010862 -0.019743 -0.064404
v -0.020070 -0.013777 -0.062901
v -0.026223 -0.004848 -0.060650
v -0.028383 0.005685 -0.057995
v -0.023875 0.024064 -0.081797
v -0.018273 0.031773 -0.078500
v -0.009889 0.036924 -0.076298
v 0.000000 0.038732 -0.075524
v 0.009889 0.036924 -0.076298
v 0.018273 0.031773 -0.078500
v 0.023875 0.024064 -0.081797
v 0.025842 0.014971 -0.085685
v 0.023875 0.005878 -0.089573
v 0.018273 -0.001830 -0.092869
v 0.009889 -0.006981 -0.095072
v -0.000000 -0.008790 -0.095845
v -0.009889 -0.006981 -0.095072
v -0.018273 -0.001830 -0.092869
v -0.023875 0.005878 -0.089573
v -0.025842 0.014971 -0.085685
v -0.021542 0.036108 -0.106743
v -0.016488 0.042495 -0.102691
v -0.008923 0.046763 -0.099983
v 0.000000 0.048262 -0.099032
v 0.008923 0.046763 -0.099983
v 0.016488 0.042495 -0.102691
v 0.021542 0.036108 -0.106743
v 0.023317 0.028573 -0.111524
v 0.021542 0.021039 -0.116304
v 0.016488 0.014651 -0.120357
v 0.008923 0.010383 -0.123065
v 0.000000 0.008884 -0.124016
v -0.008923 0.010383 -0.123065
v -0.016488 0.014651 -0.120357
v -0.021542 0.021039 -0.116304
v -0.023317 0.028573 -0.111524
v -0.019300 0.052079 -0.129465
v -0.014772 0.057107 -0.124921
v -0.007994 0.060466 -0.121884
v 0.000000 0.061645 -0.120817
v 0.007994 0.060466 -0.121884
v 0.014772 0.057107 -0.124921
v 0.019300 0.052079 -0.129465
v 0.020890 0.046149 -0.134827
v 0.019300 0.040219 -0.140188
v 0.014772 0.035191 -0.144733
v 0.007994 0.031832 -0.147769
v 0.000000 0.030652 -0.148836
v -0.007994 0.031832 -0.147769
v -0.014772 0.035191 -0.144733
v -0.019300 0.040219 -0.140188
v -0.020890 0.046149 -0.134827
v -0.017073 0.071818 -0.149001
v -0.013067 0.075443 -0.144226
v -0.007072 0.077865 -0.141036
v 0.000000 0.078716 -0.139915
v 0.007072 0.077865 -0.141036
v 0.013067 0.075443 -0.144226
v 0.017073 0.071818 -0.149001
v 0.018480 0.067542 -0.154634
v 0.017073 0.063265 -0.160266
v 0.013067 0.059640 -0.165041
v 0.007072 0.057218 -0.168232
v 0.000000 0.056367 -0.169352
v -0.007072 0.057218 -0.168232
v -0.013067 0.059640 -0.165041
v -0.017073 0.063265 -0.160266
v -0.018480 0.067542 -0.154634
v -0.014943 0.095133 -0.164378
v -0.011437 0.097477 -0.159684
v -0.006190 0.099043 -0.156547
v 0.000000 0.099593 -0.155446
v 0.006190 0.099043 -0.156547
v 0.011437 0.097477 -0.159684
v 0.014943 0.095133 -0.164378
v 0.016174 0.092368 -0.169916
v 0.014943 0.089602 -0.175454
v 0.011437 0.087258 -0.180148
v 0.006190 0.085692 -0.183285
v 0.000000 0.085142 -0.184387
v -0.006190 0.085692 -0.183285
v -0.011437 0.087258 -0.180148
v -0.014943 0.089602 -0.175454
v -0.016174 0.092368 -0.169916
v -0.012830 0.121147 -0.175529
v -0.009819 0.122503 -0.171233
v -0.005314 0.123410 -0.168363
v 0.000000 0.123728 -0.167355
v 0.005314 0.123410 -0.168363
v 0.009819 0.122503 -0.171233
v 0.012830 0.121147 -0.175529
v 0.013887 0.119546 -0.180597
v 0.012830 0.117945 -0.185664
v 0.009819 0.116589 -0.189960
v 0.005314 0.115682 -0.192831
v 0.000000 0.115364 -0.193839
v -0.005314 0.115682 -0.192831
v -0.009819 0.116589 -0.189960
v -0.012830 0.117945 -0.185664
v -0.013887 0.119546 -0.180597
v -0.010830 0.148866 -0.183080
v -0.008289 0.149611 -0.179351
v -0.004486 0.150108 -0.176859
v 0.000000 0.150283 -0.175984
v 0.004486 0.150108 -0.176859
v 0.008289 0.149611 -0.179351
v 0.010830 0.148866 -0.183080
v 0.011723 0.147987 -0.187479
v 0.010830 0.147109 -0.191878
v 0.008289 0.146364 -0.195608
v 0.004486 0.145867 -0.198100
v 0.000000 0.145692 -0.198975
v -0.004486 0.145867 -0.198100
v -0.008289 0.146364 -0.195608
v -0.010830 0.147109 -0.191878
v -0.011723 0.147987 -0.187479
v -0.008844 0.177509 -0.188436
v -0.006769 0.177994 -0.185368
v -0.003663 0.178318 -0.183319
v 0.000000 0.178431 -0.182599
v 0.003663 0.178318 -0.183319
v 0.006769 0.177994 -0.185368
v 0.008844 0.177509 -0.188436
v 0.009573 0.176937 -0.192054
v 0.008844 0.176365 -0.195673
v 0.006769 0.175880 -0.198741
v 0.003663 0.175556 -0.200790
v 0.000000 0.175443 -0.201510
v -0.003663 0.175556 -0.200790
v -0.006769 0.175880 -0.198741
v -0.008844 0.176365 -0.195673
v -0.009573 0.176937 -0.192054
v -0.057171 0.190150 0.200995
v -0.043757 0.201576 0.184488
v -0.023681 0.209211 0.173459
v 0.000000 0.211892 0.169585
v 0.023681 0.209211 0.173459
v 0.043757 0.201576 0.184488
v 0.057171 0.190150 0.200995
v 0.061881 0.176672 0.220466
v 0.057171 0.163194 0.239937
v 0.043756 0.151767 0.256444
v 0.023681 0.144133 0.267474
v -0.000000 0.141452 0.271347
v -0.023681 0.144133 0.267474
v -0.043756 0.151768 0.256444
v -0.057171 0.163194 0.239937
v -0.061881 0.176672 0.220466
v -0.053221 0.165095 0.185644
v -0.040734 0.175749 0.170289
v -0.022046 0.182868 0.160028
v 0.000000 0.185368 0.156425
v 0.022046 0.182868 0.160028
v 0.040734 0.175749 0.170289
v 0.053221 0.165095 0.185644
v 0.057605 0.152529 0.203757
v 0.053218 0.139964 0.221869
v 0.040731 0.129312 0.237224
v 0.022043 0.122196 0.247483
v -0.000000 0.119697 0.251085
v -0.022043 0.122196 0.247483
v -0.040731 0.129312 0.237224
v -0.053219 0.139964 0.221869
v -0.057605 0.152529 0.203757
v -0.049754 0.140597 0.170423
v -0.038085 0.150953 0.156345
v -0.020613 0.157875 0.146937
v 0.000000 0.160306 0.143633
v 0.020613 0.157875 0.146937
v 0.038085 0.150953 0.156345
v 0.049754 0.140596 0.170423
v 0.053845 0.128386 0.187023
v 0.049748 0.116194 0.203600
v 0.038079 0.105844 0.217673
v 0.020609 0.098927 0.227079
v -0.000000 0.096498 0.230382
v -0.020609 0.098927 0.227079
v -0.038079 0.105844 0.217673
v -0.049748 0.116194 0.203600
v -0.053845 0.128386 0.187023
v -0.046579 0.117414 0.154128
v -0.035655 0.127783 0.141472
v -0.019298 0.134714 0.133014
v 0.000000 0.137148 0.130044
v 0.019298 0.134714 0.133014
v 0.035655 0.127783 0.141472
v 0.046579 0.117414 0.154128
v 0.050409 0.105192 0.169045
v 0.046576 0.092983 0.183948
v 0.035652 0.082617 0.196602
v 0.019296 0.075690 0.205060
v -0.000000 0.073257 0.208030
v -0.019296 0.075690 0.205060
v -0.035652 0.082617 0.196602
v -0.046576 0.092983 0.183947
v -0.050409 0.105192 0.169045
v -0.043570 0.095032 0.136511
v -0.033352 0.105279 0.125144
v -0.018051 0.112129 0.117547
v 0.000000 0.114534 0.114879
v 0.018051 0.112129 0.117547
v 0.033352 0.105279 0.125144
v 0.043570 0.095032 0.136511
v 0.047152 0.082956 0.149911
v 0.043565 0.070889 0.163304
v 0.033346 0.060650 0.174670
v 0.018048 0.053807 0.182267
v -0.000000 0.051404 0.184935
v -0.018048 0.053807 0.182267
v -0.033346 0.060650 0.174670
v -0.043565 0.070889 0.163304
v -0.047152 0.082956 0.149911
v -0.040661 0.073712 0.118253
v -0.031129 0.084041 0.108380
v -0.016850 0.090948 0.101782
v 0.000000 0.093374 0.099465
v 0.016850 0.090948 0.101782
v 0.031129 0.084041 0.108380
v 0.040661 0.073712 0.118253
v 0.043994 0.061559 0.129877
v 0.040653 0.049424 0.141490
v 0.031119 0.039109 0.151367
v 0.016843 0.032217 0.157968
v -0.000000 0.029796 0.160287
v -0.016843 0.032217 0.157968
v -0.031119 0.039109 0.151367
v -0.040653 0.049424 0.141490
v -0.043994 0.061559 0.129877
v -0.037872 0.054949 0.098425
v -0.028995 0.065630 0.090482
v -0.015694 0.072771 0.085175
v 0.000000 0.075279 0.083312
v 0.015694 0.072771 0.085175
v 0.028995 0.065630 0.090482
v 0.037872 0.054949 0.098425
v 0.040973 0.042397 0.107764
v 0.037866 0.029856 0.117100
v 0.028987 0.019185 0.125049
v 0.015689 0.012056 0.130361
v -0.000000 0.009552 0.132227
v -0.015689 0.012056 0.130361
v -0.028987 0.019185 0.125049
v -0.037866 0.029856 0.117100
v -0.040973 0.042397 0.107764
v -0.035151 0.039212 0.076067
v -0.026912 0.049985 0.070021
v -0.014567 0.057187 0.065982
v 0.000000 0.059717 0.064564
v 0.014567 0.057187 0.065982
v 0.026912 0.049985 0.070021
v 0.035151 0.039212 0.076067
v 0.038031 0.026546 0.083177
v 0.035147 0.013891 0.090285
v 0.026907 0.003125 0.096335
v 0.014563 -0.004070 0.100380
v -0.000000 -0.006596 0.101801
v -0.014563 -0.004070 0.100380
v -0.026907 0.003125 0.096335
v -0.035147 0.013891 0.090285
v -0.038031 0.026546 0.083177
v -0.032495 0.026032 0.051857
v -0.024880 0.036610 0.047546
v -0.013468 0.043682 0.044666
v 0.000000 0.046167 0.043656
v 0.013468 0.043682 0.044666
v 0.024880 0.036610 0.047546
v 0.032495 0.026032 0.051857
v 0.035153 0.013605 0.056927
v 0.032489 0.001193 0.061997
v 0.024872 -0.009374 0.066318
v 0.013462 -0.016436 0.069208
v -0.000000 -0.018916 0.070223
v -0.013462 -0.016436 0.069208
v -0.024872 -0.009374 0.066318
v -0.032489 0.001193 0.061997
v -0.035153 0.013605 0.056927
v -0.029925 0.016290 0.026420
v -0.022913 0.026534 0.024015
v -0.012402 0.033382 0.022410
v 0.000000 0.035786 0.021848
v 0.012402 0.033382 0.022410
v 0.022913 0.026534 0.024015
v 0.029925 0.016290 0.026420
v 0.032368 0.004277 0.029245
v 0.029919 -0.007728 0.032074
v 0.022905 -0.017964 0.034491
v 0.012396 -0.024803 0.036107
v -0.000000 -0.027203 0.036674
v -0.012396 -0.024803 0.036107
v -0.022905 -0.017964 0.034491
v -0.029919 -0.007728 0.032074
v -0.032368 0.004277 0.029245
v -0.027380 0.011293 -0.000268
v -0.020963 0.020905 -0.000814
v -0.011347 0.027328 -0.001177
v 0.000000 0.029583 -0.001305
v 0.011347 0.027328 -0.001177
v 0.020963 0.020905 -0.000814
v 0.027380 0.011293 -0.000268
v 0.029615 0.000020 0.000375
v 0.027377 -0.011241 0.001020
v 0.020960 -0.020850 0.001573
v 0.011345 -0.027271 0.001944
v -0.000000 -0.029525 0.002075
v -0.011345 -0.027271 0.001944
v -0.020960 -0.020850 0.001573
v -0.027377 -0.011241 0.001020
v -0.029615 0.000020 0.000375
v -0.024923 0.010924 -0.027806
v -0.019083 0.019644 -0.026930
v -0.010330 0.025472 -0.026343
v 0.000000 0.027518 -0.026137
v 0.010330 0.025472 -0.026343
v 0.019083 0.019644 -0.026930
v 0.024923 0.010924 -0.027806
v 0.026958 0.000699 -0.028832
v 0.024921 -0.009522 -0.029855
v 0.019080 -0.018239 -0.030725
v 0.010328 -0.024066 -0.031306
v -0.000000 -0.026112 -0.031510
v -0.010328 -0.024066 -0.031306
v -0.019080 -0.018239 -0.030725
v -0.024921 -0.009522 -0.029855
v -0.026958 0.000699 -0.028832
v -0.022487 0.014576 -0.055361
v -0.017219 0.022239 -0.053409
v -0.009320 0.027361 -0.052103
v 0.000000 0.029159 -0.051644
v 0.009320 0.027361 -0.052103
v 0.017219 0.022239 -0.053409
v 0.022487 0.014576 -0.055362
v 0.024321 0.005592 -0.057648
v 0.022485 -0.003379 -0.059929
v 0.017216 -0.011042 -0.061874
v 0.009318 -0.016163 -0.063173
v -0.000000 -0.017962 -0.063629
v -0.009318 -0.016163 -0.063173
v -0.017216 -0.011042 -0.061874
v -0.022485 -0.003379 -0.059929
v -0.024321 0.005592 -0.057648
v -0.020140 0.022448 -0.082084
v -0.015422 0.028955 -0.079282
v -0.008348 0.033303 -0.077408
v 0.000000 0.034830 -0.076750
v 0.008348 0.033303 -0.077408
v 0.015422 0.028955 -0.079282
v 0.020140 0.022448 -0.082084
v 0.021779 0.014833 -0.085361
v 0.020137 0.007220 -0.088636
v 0.015419 0.000714 -0.091432
v 0.008346 -0.003635 -0.093300
v -0.000000 -0.005162 -0.093955
v -0.008346 -0.003635 -0.093300
v -0.015419 0.000714 -0.091432
v -0.020137 0.007220 -0.088636
v -0.021779 0.014833 -0.085361
v -0.017806 0.034563 -0.107295
v -0.013636 0.039844 -0.103924
v -0.007381 0.043373 -0.101671
v 0.000000 0.044612 -0.100880
v 0.007381 0.043373 -0.101671
v 0.013636 0.039844 -0.103924
v 0.017806 0.034563 -0.107295
v 0.019253 0.028385 -0.111236
v 0.017804 0.022217 -0.115168
v 0.013634 0.016935 -0.118534
v 0.007380 0.013404 -0.120782
v 0.000000 0.012164 -0.121571
v -0.007380 0.013404 -0.120782
v -0.013634 0.016935 -0.118533
v -0.017804 0.022217 -0.115168
v -0.019253 0.028385 -0.111236
v -0.015565 0.050652 -0.130279
v -0.011920 0.054705 -0.126593
v -0.006453 0.057413 -0.124129
v 0.000000 0.058364 -0.123264
v 0.006453 0.057413 -0.124129
v 0.011920 0.054705 -0.126593
v 0.015565 0.050652 -0.130279
v 0.016826 0.045923 -0.134578
v 0.015562 0.041195 -0.138872
v 0.011917 0.037140 -0.142552
v 0.006451 0.034429 -0.145011
v 0.000000 0.033478 -0.145874
v -0.006451 0.034429 -0.145011
v -0.011917 0.037140 -0.142552
v -0.015562 0.041195 -0.138872
v -0.016826 0.045923 -0.134578
v -0.013337 0.070573 -0.150074
v -0.010214 0.073401 -0.146325
v -0.005528 0.075290 -0.143821
v 0.000000 0.075953 -0.142942
v 0.005528 0.075290 -0.143821
v 0.010214 0.073401 -0.146325
v 0.013337 0.070573 -0.150074
v 0.014414 0.067279 -0.154438
v 0.013336 0.063991 -0.158792
v 0.010214 0.061159 -0.162539
v 0.005528 0.059267 -0.165042
v 0.000000 0.058602 -0.165920
v -0.005528 0.059267 -0.165042
v -0.010214 0.061159 -0.162539
v -0.013336 0.063991 -0.158792
v -0.014414 0.067279 -0.154438
v -0.011205 0.094121 -0.165664
v -0.008582 0.095875 -0.162129
v -0.004645 0.097047 -0.159768
v 0.000000 0.097458 -0.158939
v 0.004645 0.097047 -0.159768
v 0.008582 0.095875 -0.162129
v 0.011205 0.094121 -0.165664
v 0.012108 0.092084 -0.169771
v 0.011205 0.090047 -0.173876
v 0.008584 0.088291 -0.177412
v 0.004647 0.087118 -0.179775
v 0.000000 0.086706 -0.180604
v -0.004647 0.087118 -0.179775
v -0.008584 0.088291 -0.177412
v -0.011205 0.090047 -0.173876
v -0.012108 0.092084 -0.169771
v -0.009086 0.120365 -0.176952
v -0.006960 0.121324 -0.173899
v -0.003768 0.121964 -0.171859
v 0.000000 0.122189 -0.171142
v 0.003768 0.121964 -0.171859
v 0.006960 0.121324 -0.173899
v 0.009086 0.120365 -0.176952
v 0.009820 0.119251 -0.180505
v 0.009090 0.118141 -0.184046
v 0.006965 0.117182 -0.187102
v 0.003771 0.116541 -0.189147
v 0.000000 0.116316 -0.189864
v -0.003771 0.116541 -0.189147
v -0.006965 0.117182 -0.187102
v -0.009090 0.118141 -0.184046
v -0.009820 0.119251 -0.180505
v -0.007081 0.148260 -0.184567
v -0.005424 0.148746 -0.182123
v -0.002936 0.149071 -0.180489
v 0.000000 0.149185 -0.179915
v 0.002936 0.149071 -0.180489
v 0.005424 0.148746 -0.182123
v 0.007081 0.148260 -0.184567
v 0.007655 0.147695 -0.187416
v 0.007085 0.147130 -0.190264
v 0.005429 0.146645 -0.192712
v 0.002940 0.146320 -0.194351
v 0.000000 0.146206 -0.194926
v -0.002940 0.146320 -0.194351
v -0.005429 0.146645 -0.192712
v -0.007085 0.147130 -0.190264
v -0.007655 0.147695 -0.187416
v -0.005085 0.176970 -0.189922
v -0.003891 0.177248 -0.188159
v -0.002105 0.177433 -0.186982
v -0.000000 0.177498 -0.186569
v 0.002105 0.177433 -0.186982
v 0.003891 0.177248 -0.188159
v 0.005085 0.176970 -0.189922
v 0.005506 0.176643 -0.192002
v 0.005089 0.176316 -0.194084
v 0.003897 0.176039 -0.195850
v 0.002110 0.175854 -0.197032
v 0.000000 0.175789 -0.197447
v -0.002110 0.175854 -0.197032
v -0.003897 0.176039 -0.195850
v -0.005089 0.176316 -0.194084
v -0.005506 0.176643 -0.192002
vn -0.9142 0.0970 -0.3935
vn -0.9149 0.1037 -0.3901
vn -0.9907 -0.1112 -0.0779
vn -0.9896 -0.1185 -0.0821
vn -0.6997 0.2796 -0.6575
vn -0.6999 0.2856 -0.6546
vn -0.3787 0.4016 -0.8339
vn -0.3787 0.4070 -0.8312
vn -0.0000 0.4445 -0.8958
vn -0.0000 0.4496 -0.8932
vn 0.3787 0.4016 -0.8339
vn 0.3787 0.4070 -0.8312
vn 0.6997 0.2796 -0.6575
vn 0.6999 0.2856 -0.6546
vn 0.9142 0.0970 -0.3935
vn 0.9149 0.1037 -0.3901
vn 0.9896 -0.1185 -0.0821
vn 0.9907 -0.1112 -0.0779
vn 0.9143 -0.3339 0.2294
vn 0.9157 -0.3263 0.2346
vn 0.6998 -0.5166 0.4934
vn 0.7010 -0.5089 0.4995
vn 0.3787 -0.6387 0.6698
vn 0.3795 -0.6310 0.6766
vn -0.0000 -0.6815 0.7318
vn -0.0000 -0.6739 0.7388
vn -0.3787 -0.6387 0.6698
vn -0.3795 -0.6310 0.6766
vn -0.6998 -0.5166 0.4934
vn -0.7010 -0.5089 0.4995
vn -0.9143 -0.3339 0.2294
vn -0.9157 -0.3263 0.2346
vn -0.9176 0.1223 -0.3783
vn -0.9926 -0.0997 -0.0698
vn -0.7026 0.3106 -0.6402
vn -0.3804 0.4364 -0.8154
vn -0.0000 0.4805 -0.8770
vn 0.3804 0.4364 -0.8154
vn 0.7026 0.3106 -0.6402
vn 0.9176 0.1223 -0.3783
vn 0.9926 -0.0997 -0.0698
vn 0.9164 -0.3217 0.2381
vn 0.7010 -0.5099 0.4986
vn 0.3792 -0.6355 0.6725
vn -0.0000 -0.6797 0.7335
vn -0.3792 -0.6355 0.6725
vn -0.7010 -0.5099 0.4986
vn -0.9164 -0.3217 0.2381
vn -0.9187 0.1478 -0.3661
vn -0.9936 -0.0900 -0.0690
vn -0.7037 0.3495 -0.6186
vn -0.3810 0.4844 -0.7875
vn -0.0000 0.5318 -0.8469
vn 0.3810 0.4844 -0.7875
vn 0.7037 0.3495 -0.6186
vn 0.9187 0.1478 -0.3661
vn 0.9936 -0.0900 -0.0690
vn 0.9171 -0.3275 0.2274
vn 0.7014 -0.5286 0.4782
vn 0.3794 -0.6629 0.6455
vn -0.0000 -0.7100 0.7042
vn -0.3794 -0.6629 0.6455
vn -0.7014 -0.5286 0.4782
vn -0.9171 -0.3275 0.2274
vn -0.9186 0.1690 -0.3572
vn -0.9941 -0.0823 -0.0711
vn -0.7031 0.3816 -0.6000
vn -0.3805 0.5235 -0.7624
vn -0.0000 0.5732 -0.8194
vn 0.3805 0.5235 -0.7624
vn 0.7031 0.3816 -0.6000
vn 0.9186 0.1690 -0.3572
vn 0.9941 -0.0823 -0.0711
vn 0.9180 -0.3338 0.2143
vn 0.7022 -0.5470 0.4558
vn 0.3799 -0.6894 0.6168
vn -0.0000 -0.7394 0.6733
vn -0.3799 -0.6894 0.6168
vn -0.7022 -0.5470 0.4558
vn -0.9180 -0.3338 0.2143
vn -0.9200 0.1936 -0.3407
vn -0.9945 -0.0766 -0.0718
vn -0.7048 0.4223 -0.5700
vn -0.3816 0.5748 -0.7238
vn -0.0000 0.6283 -0.7780
vn 0.3816 0.5748 -0.7238
vn 0.7048 0.4223 -0.5700
vn 0.9200 0.1936 -0.3407
vn 0.9945 -0.0766 -0.0718
vn 0.9173 -0.3469 0.1954
vn 0.7011 -0.5758 0.4206
vn 0.3790 -0.7286 0.5705
vn -0.0000 -0.7823 0.6229
vn -0.3790 -0.7286 0.5705
vn -0.7011 -0.5758 0.4206
vn -0.9173 -0.3469 0.1954
vn -0.9216 0.2329 -0.3104
vn -0.9948 -0.0678 -0.0757
vn -0.7071 0.4885 -0.5113
vn -0.3833 0.6596 -0.6466
vn -0.0000 0.7197 -0.6943
vn 0.3833 0.6596 -0.6466
vn 0.7071 0.4885 -0.5113
vn 0.9216 0.2329 -0.3104
vn 0.9948 -0.0678 -0.0757
vn 0.9167 -0.3676 0.1570
vn 0.7000 -0.6209 0.3527
vn 0.3783 -0.7898 0.4828
vn -0.0000 -0.8490 0.5284
vn -0.3783 -0.7898 0.4828
vn -0.7000 -0.6209 0.3527
vn -0.9167 -0.3676 0.1570
vn -0.9213 0.2738 -0.2762
vn -0.9951 -0.0551 -0.0823
vn -0.7063 0.5532 -0.4417
vn -0.3826 0.7401 -0.5530
vn -0.0000 0.8058 -0.5922
vn 0.3826 0.7401 -0.5530
vn 0.7063 0.5532 -0.4417
vn 0.9213 0.2738 -0.2762
vn 0.9951 -0.0551 -0.0823
vn 0.9172 -0.3829 0.1100
vn 0.7005 -0.6598 0.2718
vn 0.3786 -0.8443 0.3793
vn -0.0000 -0.9089 0.4169
vn -0.3786 -0.8443 0.3793
vn -0.7005 -0.6598 0.2718
vn -0.9172 -0.3829 0.1100
vn -0.9216 0.3065 -0.2380
vn -0.9953 -0.0439 -0.0860
vn -0.7065 0.6042 -0.3686
vn -0.3827 0.8031 -0.4567
vn -0.0000 0.8730 -0.4878
vn 0.3827 0.8031 -0.4567
vn 0.7065 0.6042 -0.3686
vn 0.9216 0.3065 -0.2380
vn 0.9953 -0.0439 -0.0860
vn 0.9173 -0.3931 0.0641
vn 0.7004 -0.6880 0.1899
vn 0.3785 -0.8843 0.2733
vn -0.0000 -0.9532 0.3025
vn -0.3785 -0.8843 0.2733
vn -0.7004 -0.6880 0.1899
vn -0.9173 -0.3931 0.0641
vn -0.9230 0.3371 -0.1853
vn -0.9955 -0.0326 -0.0889
vn -0.7086 0.6523 -0.2688
vn -0.3843 0.8638 -0.3257
vn -0.0000 0.9383 -0.3459
vn 0.3843 0.8638 -0.3257
vn 0.7086 0.6523 -0.2688
vn 0.9230 0.3371 -0.1853
vn 0.9955 -0.0326 -0.0889
vn 0.9165 -0.4000 0.0055
vn 0.6994 -0.7097 0.0842
vn 0.3778 -0.9158 0.1362
vn -0.0000 -0.9880 0.1544
vn -0.3778 -0.9158 0.1362
vn -0.6994 -0.7097 0.0842
vn -0.9165 -0.4000 0.0055
vn -0.9234 0.3643 -0.1210
vn -0.9957 -0.0168 -0.0910
vn -0.7090 0.6896 -0.1473
vn -0.3846 0.9082 -0.1653
vn -0.0000 0.9851 -0.1718
vn 0.3846 0.9082 -0.1653
vn 0.7090 0.6896 -0.1473
vn 0.9234 0.3643 -0.1210
vn 0.9957 -0.0168 -0.0910
vn 0.9165 -0.3952 -0.0620
vn 0.6993 -0.7138 -0.0380
vn 0.3777 -0.9257 -0.0223
vn -0.0000 -0.9999 -0.0168
vn -0.3777 -0.9257 -0.0223
vn -0.6993 -0.7138 -0.0380
vn -0.9165 -0.3952 -0.0620
vn -0.9229 0.3804 -0.0591
vn -0.9959 -0.0007 -0.0904
vn -0.7082 0.7053 -0.0329
vn -0.3839 0.9233 -0.0156
vn -0.0000 1.0000 -0.0096
vn 0.3839 0.9233 -0.0156
vn 0.7082 0.7053 -0.0329
vn 0.9229 0.3804 -0.0591
vn 0.9959 -0.0007 -0.0904
vn 0.9172 -0.3794 -0.1221
vn 0.7000 -0.6984 -0.1492
vn 0.3781 -0.9105 -0.1673
vn -0.0000 -0.9848 -0.1737
vn -0.3781 -0.9105 -0.1673
vn -0.7000 -0.6984 -0.1492
vn -0.9172 -0.3794 -0.1221
vn -0.9233 0.3841 0.0005
vn -0.9961 0.0120 -0.0877
vn -0.7086 0.7016 0.0751
vn -0.3842 0.9148 0.1249
vn -0.0000 0.9898 0.1424
vn 0.3842 0.9148 0.1249
vn 0.7086 0.7016 0.0751
vn 0.9233 0.3841 0.0005
vn 0.9961 0.0120 -0.0877
vn 0.9172 -0.3575 -0.1759
vn 0.7000 -0.6687 -0.2506
vn 0.3781 -0.8756 -0.3005
vn -0.0000 -0.9481 -0.3180
vn -0.3781 -0.8756 -0.3005
vn -0.7000 -0.6687 -0.2506
vn -0.9172 -0.3575 -0.1759
vn -0.9237 0.3780 0.0625
vn -0.9962 0.0244 -0.0832
vn -0.7091 0.6800 0.1865
vn -0.3845 0.8829 0.2695
vn -0.0000 0.9544 0.2986
vn 0.3845 0.8829 0.2695
vn 0.7091 0.6800 0.1865
vn 0.9237 0.3780 0.0625
vn 0.9962 0.0244 -0.0832
vn 0.9172 -0.3266 -0.2284
vn 0.6999 -0.6221 -0.3510
vn 0.3780 -0.8185 -0.4327
vn -0.0000 -0.8872 -0.4613
vn -0.3780 -0.8185 -0.4327
vn -0.6999 -0.6221 -0.3510
vn -0.9172 -0.3266 -0.2284
vn -0.9239 0.3619 0.1244
vn -0.9964 0.0363 -0.0767
vn -0.7092 0.6400 0.2956
vn -0.3846 0.8268 0.4104
vn -0.0000 0.8927 0.4507
vn 0.3846 0.8268 0.4104
vn 0.7092 0.6400 0.2956
vn 0.9239 0.3619 0.1244
vn 0.9964 0.0363 -0.0767
vn 0.9172 -0.2867 -0.2767
vn 0.6998 -0.5585 -0.4454
vn 0.3780 -0.7390 -0.5576
vn -0.0000 -0.8023 -0.5970
vn -0.3780 -0.7390 -0.5576
vn -0.6998 -0.5585 -0.4454
vn -0.9172 -0.2867 -0.2767
vn -0.9243 0.3338 0.1849
vn -0.9965 0.0469 -0.0685
vn -0.7098 0.5791 0.4010
vn -0.3850 0.7442 0.5459
vn -0.0000 0.8023 0.5969
vn 0.3850 0.7442 0.5459
vn 0.7098 0.5791 0.4010
vn 0.9243 0.3338 0.1849
vn 0.9965 0.0469 -0.0685
vn 0.9171 -0.2374 -0.3203
vn 0.6996 -0.4765 -0.5325
vn 0.3778 -0.6353 -0.6736
vn -0.0000 -0.6908 -0.7230
vn -0.3778 -0.6353 -0.6736
vn -0.6996 -0.4765 -0.5325
vn -0.9171 -0.2374 -0.3203
vn -0.9252 0.2909 0.2439
vn -0.9967 0.0562 -0.0587
vn -0.7110 0.4919 0.5024
vn -0.3859 0.6274 0.6764
vn -0.0000 0.6751 0.7377
vn 0.3859 0.6274 0.6764
vn 0.7110 0.4919 0.5024
vn 0.9252 0.2909 0.2439
vn 0.9967 0.0562 -0.0587
vn 0.9167 -0.1762 -0.3586
vn 0.6990 -0.3714 -0.6111
vn 0.3774 -0.5010 -0.7788
vn -0.0000 -0.5464 -0.8375
vn -0.3774 -0.5010 -0.7788
vn -0.6990 -0.3714 -0.6111
vn -0.9167 -0.1762 -0.3586
vn -0.9251 0.2384 0.2956
vn -0.9969 0.0645 -0.0457
vn -0.7108 0.3871 0.5873
vn -0.3857 0.4871 0.7836
vn -0.0000 0.5224 0.8527
vn 0.3857 0.4871 0.7835
vn 0.7108 0.3871 0.5873
vn 0.9251 0.2384 0.2956
vn 0.9969 0.0645 -0.0457
vn 0.9170 -0.1079 -0.3840
vn 0.6994 -0.2528 -0.6686
vn 0.3776 -0.3491 -0.8576
vn -0.0000 -0.3828 -0.9238
vn -0.3776 -0.3491 -0.8576
vn -0.6994 -0.2528 -0.6686
vn -0.9170 -0.1079 -0.3840
vn -0.9246 0.1865 0.3322
vn -0.9971 0.0692 -0.0323
vn -0.7099 0.2865 0.6434
vn -0.3850 0.3536 0.8525
vn -0.0000 0.3772 0.9261
vn 0.3850 0.3536 0.8525
vn 0.7099 0.2865 0.6434
vn 0.9246 0.1865 0.3322
vn 0.9971 0.0692 -0.0323
vn 0.9179 -0.0473 -0.3941
vn 0.7004 -0.1455 -0.6988
vn 0.3783 -0.2108 -0.9014
vn -0.0000 -0.2337 -0.9723
vn -0.3783 -0.2108 -0.9014
vn -0.7004 -0.1455 -0.6988
vn -0.9179 -0.0473 -0.3941
vn -0.9236 0.1466 0.3543
vn -0.9973 0.0707 -0.0207
vn -0.7083 0.2111 0.6736
vn -0.3838 0.2543 0.8877
vn -0.0000 0.2694 0.9630
vn 0.3838 0.2543 0.8877
vn 0.7083 0.2111 0.6736
vn 0.9236 0.1466 0.3543
vn 0.9973 0.0707 -0.0207
vn 0.9191 -0.0049 -0.3939
vn 0.7020 -0.0688 -0.7088
vn 0.3794 -0.1114 -0.9185
vn -0.0000 -0.1263 -0.9920
vn -0.3794 -0.1114 -0.9185
vn -0.7020 -0.0688 -0.7088
vn -0.9191 -0.0049 -0.3939
vn -0.9219 0.1320 0.3643
vn -0.9973 0.0720 -0.0130
vn -0.7058 0.1829 0.6844
vn -0.3820 0.2168 0.8983
vn -0.0000 0.2287 0.9735
vn 0.3820 0.2168 0.8983
vn 0.7058 0.1829 0.6844
vn 0.9219 0.1320 0.3643
vn 0.9973 0.0720 -0.0130
vn 0.9208 0.0120 -0.3898
vn 0.7043 -0.0389 -0.7088
vn 0.3810 -0.0729 -0.9217
vn -0.0000 -0.0849 -0.9964
vn -0.3810 -0.0729 -0.9217
vn -0.7043 -0.0389 -0.7088
vn -0.9208 0.0120 -0.3898
vn 0.9142 -0.0970 0.3935
vn 0.9896 0.1185 0.0821
vn 0.9908 0.1111 0.0778
vn 0.9149 -0.1037 0.3901
vn 0.6997 -0.2796 0.6575
vn 0.6999 -0.2856 0.6546
vn 0.3787 -0.4016 0.8339
vn 0.3787 -0.4070 0.8312
vn -0.0000 -0.4445 0.8958
vn -0.0000 -0.4496 0.8932
vn -0.3787 -0.4016 0.8339
vn -0.3787 -0.4070 0.8312
vn -0.6997 -0.2796 0.6575
vn -0.6999 -0.2856 0.6546
vn -0.9142 -0.0970 0.3935
vn -0.9149 -0.1037 0.3901
vn -0.9896 0.1185 0.0821
vn -0.9908 0.1111 0.0778
vn -0.9143 0.3339 -0.2294
vn -0.9157 0.3263 -0.2346
vn -0.6998 0.5166 -0.4934
vn -0.7011 0.5089 -0.4995
vn -0.3787 0.6387 -0.6698
vn -0.3795 0.6310 -0.6766
vn -0.0000 0.6815 -0.7318
vn -0.0000 0.6739 -0.7388
vn 0.3787 0.6387 -0.6698
vn 0.3795 0.6310 -0.6766
vn 0.6998 0.5166 -0.4934
vn 0.7011 0.5089 -0.4995
vn 0.9143 0.3339 -0.2294
vn 0.9157 0.3263 -0.2346
vn 0.9926 0.0998 0.0697
vn 0.9177 -0.1222 0.3781
vn 0.7027 -0.3105 0.6401
vn 0.3805 -0.4363 0.8154
vn -0.0000 -0.4805 0.8770
vn -0.3805 -0.4363 0.8154
vn -0.7027 -0.3105 0.6401
vn -0.9177 -0.1222 0.3781
vn -0.9926 0.0998 0.0697
vn -0.9165 0.3217 -0.2380
vn -0.7011 0.5098 -0.4986
vn -0.3793 0.6355 -0.6725
vn -0.0000 0.6797 -0.7335
vn 0.3793 0.6355 -0.6725
vn 0.7011 0.5098 -0.4986
vn 0.9165 0.3217 -0.2380
vn 0.9936 0.0900 0.0689
vn 0.9188 -0.1476 0.3660
vn 0.7039 -0.3494 0.6185
vn 0.3811 -0.4844 0.7875
vn -0.0000 -0.5318 0.8469
vn -0.3811 -0.4844 0.7875
vn -0.7039 -0.3494 0.6185
vn -0.9188 -0.1476 0.3659
vn -0.9936 0.0900 0.0689
vn -0.9171 0.3274 -0.2273
vn -0.7015 0.5285 -0.4781
vn -0.3795 0.6628 -0.6455
vn -0.0000 0.7100 -0.7042
vn 0.3795 0.6628 -0.6455
vn 0.7015 0.5285 -0.4781
vn 0.9171 0.3274 -0.2273
vn 0.9941 0.0823 0.0710
vn 0.9187 -0.1688 0.3570
vn 0.7033 -0.3815 0.5999
vn 0.3806 -0.5234 0.7624
vn -0.0000 -0.5732 0.8194
vn -0.3806 -0.5234 0.7624
vn -0.7033 -0.3815 0.5999
vn -0.9187 -0.1688 0.3570
vn -0.9941 0.0823 0.0710
vn -0.9180 0.3337 -0.2143
vn -0.7024 0.5468 -0.4557
vn -0.3800 0.6893 -0.6168
vn -0.0000 0.7393 -0.6733
vn 0.3800 0.6893 -0.6168
vn 0.7024 0.5468 -0.4557
vn 0.9180 0.3337 -0.2143
vn 0.9945 0.0767 0.0717
vn 0.9202 -0.1933 0.3404
vn 0.7050 -0.4221 0.5699
vn 0.3818 -0.5747 0.7238
vn -0.0000 -0.6282 0.7780
vn -0.3818 -0.5747 0.7238
vn -0.7050 -0.4221 0.5699
vn -0.9202 -0.1933 0.3404
vn -0.9945 0.0767 0.0717
vn -0.9175 0.3467 -0.1952
vn -0.7013 0.5756 -0.4205
vn -0.3792 0.7286 -0.5704
vn -0.0000 0.7823 -0.6230
vn 0.3792 0.7286 -0.5704
vn 0.7013 0.5756 -0.4205
vn 0.9175 0.3467 -0.1952
vn 0.9948 0.0678 0.0756
vn 0.9219 -0.2325 0.3101
vn 0.7074 -0.4882 0.5111
vn 0.3835 -0.6594 0.6466
vn -0.0000 -0.7196 0.6944
vn -0.3835 -0.6594 0.6466
vn -0.7074 -0.4882 0.5111
vn -0.9219 -0.2325 0.3101
vn -0.9948 0.0678 0.0756
vn -0.9169 0.3672 -0.1567
vn -0.7004 0.6206 -0.3525
vn -0.3785 0.7897 -0.4828
vn -0.0000 0.8490 -0.5284
vn 0.3785 0.7897 -0.4828
vn 0.7004 0.6206 -0.3525
vn 0.9169 0.3672 -0.1567
vn 0.9951 0.0551 0.0823
vn 0.9215 -0.2733 0.2759
vn 0.7066 -0.5529 0.4416
vn 0.3828 -0.7400 0.5530
vn -0.0000 -0.8057 0.5923
vn -0.3828 -0.7400 0.5530
vn -0.7066 -0.5529 0.4416
vn -0.9215 -0.2733 0.2759
vn -0.9951 0.0551 0.0823
vn -0.9174 0.3825 -0.1098
vn -0.7009 0.6595 -0.2716
vn -0.3788 0.8442 -0.3793
vn -0.0000 0.9089 -0.4170
vn 0.3788 0.8442 -0.3793
vn 0.7009 0.6595 -0.2716
vn 0.9174 0.3825 -0.1098
vn 0.9953 0.0439 0.0859
vn 0.9219 -0.3060 0.2378
vn 0.7069 -0.6038 0.3684
vn 0.3829 -0.8030 0.4567
vn -0.0000 -0.8729 0.4879
vn -0.3829 -0.8030 0.4567
vn -0.7069 -0.6038 0.3684
vn -0.9219 -0.3060 0.2378
vn -0.9953 0.0439 0.0859
vn -0.9175 0.3926 -0.0639
vn -0.7009 0.6876 -0.1898
vn -0.3787 0.8842 -0.2733
vn -0.0000 0.9531 -0.3025
vn 0.3787 0.8842 -0.2733
vn 0.7009 0.6876 -0.1898
vn 0.9175 0.3926 -0.0639
vn 0.9955 0.0326 0.0889
vn 0.9233 -0.3364 0.1851
vn 0.7091 -0.6518 0.2688
vn 0.3846 -0.8637 0.3258
vn -0.0000 -0.9382 0.3460
vn -0.3846 -0.8637 0.3258
vn -0.7091 -0.6518 0.2688
vn -0.9233 -0.3364 0.1851
vn -0.9955 0.0326 0.0889
vn -0.9168 0.3993 -0.0054
vn -0.6999 0.7093 -0.0841
vn -0.3781 0.9157 -0.1362
vn -0.0000 0.9880 -0.1544
vn 0.3781 0.9157 -0.1362
vn 0.6999 0.7093 -0.0841
vn 0.9168 0.3993 -0.0054
vn 0.9957 0.0169 0.0910
vn 0.9237 -0.3635 0.1209
vn 0.7096 -0.6891 0.1473
vn 0.3848 -0.9080 0.1654
vn -0.0000 -0.9851 0.1719
vn -0.3849 -0.9080 0.1654
vn -0.7096 -0.6891 0.1473
vn -0.9237 -0.3635 0.1209
vn -0.9957 0.0169 0.0910
vn -0.9169 0.3944 0.0620
vn -0.6999 0.7133 0.0380
vn -0.3780 0.9255 0.0223
vn -0.0000 0.9999 0.0168
vn 0.3780 0.9255 0.0223
vn 0.6999 0.7133 0.0380
vn 0.9169 0.3944 0.0620
vn 0.9959 0.0007 0.0904
vn 0.9233 -0.3795 0.0591
vn 0.7087 -0.7047 0.0330
vn 0.3842 -0.9231 0.0157
vn -0.0000 -1.0000 0.0097
vn -0.3842 -0.9231 0.0157
vn -0.7087 -0.7047 0.0330
vn -0.9233 -0.3795 0.0591
vn -0.9959 0.0007 0.0904
vn -0.9175 0.3785 0.1220
vn -0.7006 0.6978 0.1491
vn -0.3785 0.9104 0.1673
vn -0.0000 0.9848 0.1737
vn 0.3785 0.9104 0.1673
vn 0.7006 0.6978 0.1491
vn 0.9175 0.3785 0.1220
vn 0.9961 -0.0119 0.0877
vn 0.9237 -0.3831 -0.0002
vn 0.7093 -0.7009 -0.0749
vn 0.3846 -0.9146 -0.1248
vn -0.0000 -0.9898 -0.1423
vn -0.3846 -0.9146 -0.1248
vn -0.7093 -0.7009 -0.0749
vn -0.9237 -0.3831 -0.0002
vn -0.9961 -0.0119 0.0877
vn -0.9176 0.3566 0.1757
vn -0.7007 0.6681 0.2504
vn -0.3785 0.8755 0.3004
vn -0.0000 0.9481 0.3179
vn 0.3785 0.8755 0.3004
vn 0.7007 0.6681 0.2504
vn 0.9176 0.3566 0.1757
vn 0.9962 -0.0243 0.0832
vn 0.9241 -0.3770 -0.0621
vn 0.7098 -0.6793 -0.1861
vn 0.3849 -0.8828 -0.2693
vn -0.0000 -0.9544 -0.2985
vn -0.3849 -0.8828 -0.2693
vn -0.7098 -0.6793 -0.1861
vn -0.9241 -0.3770 -0.0621
vn -0.9962 -0.0243 0.0832
vn -0.9176 0.3256 0.2279
vn -0.7006 0.6214 0.3507
vn -0.3784 0.8183 0.4326
vn -0.0000 0.8873 0.4613
vn 0.3784 0.8183 0.4326
vn 0.7006 0.6214 0.3507
vn 0.9176 0.3256 0.2279
vn 0.9964 -0.0362 0.0767
vn 0.9244 -0.3608 -0.1237
vn 0.7101 -0.6393 -0.2951
vn 0.3850 -0.8267 -0.4102
vn -0.0000 -0.8927 -0.4506
vn -0.3850 -0.8267 -0.4102
vn -0.7101 -0.6393 -0.2951
vn -0.9244 -0.3608 -0.1237
vn -0.9964 -0.0362 0.0767
vn -0.9177 0.2857 0.2760
vn -0.7007 0.5578 0.4449
vn -0.3784 0.7389 0.5575
vn 0.3784 0.7389 0.5575
vn 0.7007 0.5578 0.4449
vn 0.9177 0.2857 0.2760
vn 0.9966 -0.0468 0.0685
vn 0.9249 -0.3327 -0.1839
vn 0.7108 -0.5784 -0.4003
vn 0.3855 -0.7441 -0.5457
vn -0.0000 -0.8024 -0.5968
vn -0.3855 -0.7441 -0.5457
vn -0.7108 -0.5784 -0.4003
vn -0.9249 -0.3327 -0.1839
vn -0.9966 -0.0468 0.0685
vn -0.9177 0.2364 0.3193
vn -0.7005 0.4758 0.5318
vn -0.3783 0.6351 0.6734
vn -0.0000 0.6909 0.7230
vn 0.3783 0.6351 0.6734
vn 0.7005 0.4758 0.5318
vn 0.9177 0.2364 0.3193
vn 0.9967 -0.0561 0.0587
vn 0.9259 -0.2898 -0.2425
vn 0.7121 -0.4913 -0.5015
vn 0.3864 -0.6273 -0.6761
vn -0.0000 -0.6752 -0.7376
vn -0.3864 -0.6273 -0.6761
vn -0.7121 -0.4913 -0.5015
vn -0.9259 -0.2898 -0.2425
vn -0.9967 -0.0561 0.0587
vn -0.9174 0.1752 0.3572
vn -0.7002 0.3708 0.6101
vn -0.3780 0.5009 0.7786
vn -0.0000 0.5464 0.8375
vn 0.3780 0.5009 0.7786
vn 0.7002 0.3708 0.6101
vn 0.9174 0.1752 0.3572
vn 0.9969 -0.0645 0.0456
vn 0.9259 -0.2375 -0.2939
vn 0.7120 -0.3866 -0.5862
vn 0.3863 -0.4871 -0.7833
vn -0.0000 -0.5225 -0.8527
vn -0.3863 -0.4871 -0.7833
vn -0.7120 -0.3866 -0.5862
vn -0.9259 -0.2375 -0.2939
vn -0.9969 -0.0645 0.0456
vn -0.9179 0.1070 0.3821
vn -0.7008 0.2522 0.6673
vn -0.3784 0.3490 0.8573
vn -0.0000 0.3828 0.9238
vn 0.3784 0.3490 0.8573
vn 0.7008 0.2522 0.6673
vn 0.9179 0.1070 0.3821
vn 0.9971 -0.0692 0.0321
vn 0.9253 -0.1859 -0.3304
vn 0.7112 -0.2861 -0.6421
vn 0.3857 -0.3536 -0.8522
vn -0.0000 -0.3773 -0.9261
vn -0.3857 -0.3536 -0.8522
vn -0.7112 -0.2861 -0.6421
vn -0.9253 -0.1859 -0.3304
vn -0.9971 -0.0692 0.0321
vn -0.9189 0.0466 0.3918
vn -0.7021 0.1450 0.6972
vn -0.3793 0.2107 0.9010
vn -0.0000 0.2337 0.9723
vn 0.3793 0.2107 0.9010
vn 0.7021 0.1450 0.6972
vn 0.9189 0.0466 0.3918
vn 0.9973 -0.0708 0.0202
vn 0.9241 -0.1463 -0.3531
vn 0.7092 -0.2109 -0.6727
vn 0.3844 -0.2542 -0.8875
vn -0.0000 -0.2695 -0.9630
vn -0.3844 -0.2542 -0.8875
vn -0.7092 -0.2109 -0.6727
vn -0.9241 -0.1463 -0.3531
vn -0.9973 -0.0708 0.0202
vn -0.9201 0.0045 0.3917
vn -0.7036 0.0685 0.7073
vn -0.3804 0.1113 0.9181
vn -0.0000 0.1263 0.9920
vn 0.3804 0.1113 0.9181
vn 0.7036 0.0685 0.7073
vn 0.9201 0.0045 0.3917
vn 0.9973 -0.0722 0.0123
vn 0.9221 -0.1320 -0.3638
vn 0.7063 -0.1828 -0.6839
vn 0.3824 -0.2168 -0.8982
vn -0.0000 -0.2287 -0.9735
vn -0.3824 -0.2168 -0.8982
vn -0.7063 -0.1828 -0.6839
vn -0.9221 -0.1320 -0.3638
vn -0.9973 -0.0722 0.0123
vn -0.9215 -0.0122 0.3881
vn -0.7056 0.0388 0.7076
vn -0.3818 0.0729 0.9214
vn -0.0000 0.0849 0.9964
vn 0.3818 0.0729 0.9214
vn 0.7056 0.0388 0.7076
vn 0.9215 -0.0122 0.3881
vn -0.1332 0.8451 0.5178
vn -0.1441 0.8137 0.5632
vn -0.1020 0.8717 0.4793
vn -0.0552 0.8895 0.4535
vn -0.0000 0.8958 0.4445
vn 0.0552 0.8895 0.4535
vn 0.1020 0.8717 0.4793
vn 0.1332 0.8451 0.5178
vn 0.1441 0.8137 0.5632
vn 0.1331 0.7823 0.6085
vn 0.1018 0.7557 0.6469
vn 0.0551 0.7380 0.6725
vn -0.0000 0.7318 0.6815
vn -0.0551 0.7380 0.6725
vn -0.1018 0.7557 0.6469
vn -0.1331 0.7823 0.6085
vn 0.0731 0.9851 -0.1555
vn 0.0680 0.9807 -0.1833
vn 0.0679 0.9807 -0.1833
vn 0.0522 0.9769 -0.2071
vn 0.0283 0.9744 -0.2231
vn -0.0000 0.9735 -0.2287
vn -0.0283 0.9744 -0.2231
vn -0.0522 0.9769 -0.2071
vn -0.0680 0.9807 -0.1833
vn -0.0679 0.9807 -0.1833
vn -0.0731 0.9851 -0.1555
vn -0.0670 0.9895 -0.1280
vn -0.0509 0.9932 -0.1051
vn -0.0274 0.9956 -0.0900
vn -0.0000 0.9964 -0.0848
vn 0.0274 0.9956 -0.0900
vn 0.0509 0.9932 -0.1051
vn 0.0670 0.9895 -0.1280
vt 0.993977 0.120320
vt 0.943870 0.120320
vt 0.943870 0.097232
vt 0.993977 0.097232
vt 0.993977 0.143408
vt 0.943870 0.143408
vt 0.993977 0.166496
vt 0.943870 0.166496
vt 0.993977 0.189584
vt 0.943870 0.189584
vt 0.993977 0.212672
vt 0.943870 0.212672
vt 0.993977 0.235760
vt 0.943870 0.235760
vt 0.993977 0.258848
vt 0.943870 0.258848
vt 0.993977 0.281936
vt 0.943870 0.281936
vt 0.993977 0.305024
vt 0.943870 0.305024
vt 0.993977 0.328112
vt 0.943870 0.328112
vt 0.993977 0.351200
vt 0.943870 0.351200
vt 0.993977 0.374288
vt 0.943870 0.374288
vt 0.993977 0.027969
vt 0.943870 0.027969
vt 0.943870 0.004881
vt 0.993977 0.004881
vt 0.993977 0.051057
vt 0.943870 0.051057
vt 0.993977 0.074144
vt 0.943870 0.074144
vt 0.893745 0.120320
vt 0.893745 0.097232
vt 0.893745 0.143408
vt 0.893745 0.166496
vt 0.893745 0.189584
vt 0.893745 0.212672
vt 0.893745 0.235760
vt 0.893745 0.258848
vt 0.893745 0.281936
vt 0.893745 0.305024
vt 0.893745 0.328112
vt 0.893745 0.351200
vt 0.893745 0.374288
vt 0.893745 0.027969
vt 0.893745 0.004881
vt 0.893745 0.051057
vt 0.893745 0.074144
vt 0.844048 0.120320
vt 0.844048 0.097232
vt 0.844048 0.143408
vt 0.844048 0.166496
vt 0.844048 0.189584
vt 0.844048 0.212672
vt 0.844048 0.235760
vt 0.844048 0.258848
vt 0.844048 0.281936
vt 0.844048 0.305024
vt 0.844048 0.328112
vt 0.844047 0.351200
vt 0.844047 0.374288
vt 0.844048 0.027969
vt 0.844048 0.004881
vt 0.844048 0.051057
vt 0.844048 0.074144
vt 0.794345 0.120320
vt 0.794345 0.097232
vt 0.794345 0.143408
vt 0.794345 0.166496
vt 0.794345 0.189584
vt 0.794345 0.212672
vt 0.794345 0.235760
vt 0.794345 0.258848
vt 0.794345 0.281936
vt 0.794345 0.305024
vt 0.794345 0.328112
vt 0.794345 0.351200
vt 0.794345 0.374288
vt 0.794345 0.027969
vt 0.794345 0.004881
vt 0.794345 0.051057
vt 0.794345 0.074144
vt 0.744768 0.120320
vt 0.744768 0.097232
vt 0.744768 0.143408
vt 0.744768 0.166496
vt 0.744768 0.189584
vt 0.744768 0.212672
vt 0.744768 0.235760
vt 0.744768 0.258848
vt 0.744768 0.281936
vt 0.744768 0.305024
vt 0.744768 0.328112
vt 0.744768 0.351200
vt 0.744768 0.374288
vt 0.744768 0.027969
vt 0.744768 0.004881
vt 0.744768 0.051057
vt 0.744768 0.074144
vt 0.695445 0.120320
vt 0.695445 0.097232
vt 0.695445 0.143408
vt 0.695445 0.166496
vt 0.695445 0.189584
vt 0.695445 0.212672
vt 0.695445 0.235760
vt 0.695445 0.258848
vt 0.695445 0.281936
vt 0.695445 0.305024
vt 0.695445 0.328112
vt 0.695445 0.351200
vt 0.695445 0.374288
vt 0.695445 0.027969
vt 0.695445 0.004881
vt 0.695445 0.051057
vt 0.695445 0.074144
vt 0.646139 0.120320
vt 0.646139 0.097232
vt 0.646139 0.143408
vt 0.646139 0.166496
vt 0.646139 0.189584
vt 0.646139 0.212672
vt 0.646139 0.235760
vt 0.646139 0.258848
vt 0.646139 0.281936
vt 0.646139 0.305024
vt 0.646139 0.328112
vt 0.646139 0.351200
vt 0.646139 0.374288
vt 0.646139 0.027969
vt 0.646139 0.004881
vt 0.646139 0.051057
vt 0.646139 0.074144
vt 0.596780 0.120320
vt 0.596780 0.097232
vt 0.596780 0.143408
vt 0.596780 0.166496
vt 0.596780 0.189584
vt 0.596780 0.212672
vt 0.596780 0.235760
vt 0.596780 0.258848
vt 0.596780 0.281936
vt 0.596780 0.305024
vt 0.596780 0.328112
vt 0.596780 0.351200
vt 0.596780 0.374288
vt 0.596780 0.027969
vt 0.596780 0.004881
vt 0.596780 0.051057
vt 0.596780 0.074144
vt 0.547579 0.120320
vt 0.547579 0.097232
vt 0.547579 0.143408
vt 0.547579 0.166496
vt 0.547579 0.189584
vt 0.547579 0.212672
vt 0.547579 0.235760
vt 0.547579 0.258848
vt 0.547579 0.281936
vt 0.547579 0.305024
vt 0.547579 0.328112
vt 0.547579 0.351200
vt 0.547579 0.374288
vt 0.547579 0.027969
vt 0.547579 0.004881
vt 0.547579 0.051057
vt 0.547579 0.074144
vt 0.498457 0.120320
vt 0.498457 0.097232
vt 0.498457 0.143408
vt 0.498457 0.166496
vt 0.498457 0.189584
vt 0.498457 0.212672
vt 0.498457 0.235760
vt 0.498457 0.258848
vt 0.498457 0.281936
vt 0.498457 0.305024
vt 0.498457 0.328112
vt 0.498457 0.351200
vt 0.498457 0.374288
vt 0.498457 0.027969
vt 0.498457 0.004881
vt 0.498457 0.051057
vt 0.498457 0.074144
vt 0.449224 0.120320
vt 0.449224 0.097232
vt 0.449224 0.143408
vt 0.449224 0.166496
vt 0.449224 0.189584
vt 0.449224 0.212672
vt 0.449224 0.235760
vt 0.449224 0.258848
vt 0.449224 0.281936
vt 0.449224 0.305024
vt 0.449224 0.328112
vt 0.449224 0.351200
vt 0.449224 0.374288
vt 0.449224 0.027969
vt 0.449224 0.004881
vt 0.449224 0.051057
vt 0.449224 0.074144
vt 0.399922 0.120320
vt 0.399922 0.097232
vt 0.399922 0.143408
vt 0.399922 0.166496
vt 0.399922 0.189584
vt 0.399922 0.212672
vt 0.399922 0.235760
vt 0.399922 0.258848
vt 0.399922 0.281936
vt 0.399922 0.305024
vt 0.399922 0.328112
vt 0.399922 0.351200
vt 0.399922 0.374288
vt 0.399922 0.027969
vt 0.399922 0.004881
vt 0.399922 0.051057
vt 0.399922 0.074144
vt 0.350649 0.120320
vt 0.350649 0.097232
vt 0.350649 0.143408
vt 0.350649 0.166496
vt 0.350649 0.189584
vt 0.350649 0.212672
vt 0.350649 0.235760
vt 0.350649 0.258848
vt 0.350649 0.281936
vt 0.350649 0.305024
vt 0.350649 0.328112
vt 0.350649 0.351200
vt 0.350649 0.374288
vt 0.350649 0.027969
vt 0.350649 0.004881
vt 0.350649 0.051057
vt 0.350649 0.074144
vt 0.301366 0.120320
vt 0.301366 0.097232
vt 0.301366 0.143408
vt 0.301366 0.166496
vt 0.301366 0.189584
vt 0.301366 0.212672
vt 0.301366 0.235760
vt 0.301366 0.258848
vt 0.301366 0.281936
vt 0.301366 0.305024
vt 0.301366 0.328112
vt 0.301365 0.351200
vt 0.301365 0.374288
vt 0.301366 0.027969
vt 0.301366 0.004881
vt 0.301366 0.051057
vt 0.301366 0.074144
vt 0.251840 0.120320
vt 0.251840 0.097232
vt 0.251840 0.143408
vt 0.251840 0.166496
vt 0.251840 0.189584
vt 0.251840 0.212672
vt 0.251840 0.235760
vt 0.251840 0.258848
vt 0.251840 0.281936
vt 0.251840 0.305024
vt 0.251840 0.328112
vt 0.251840 0.351200
vt 0.251840 0.374288
vt 0.251840 0.027969
vt 0.251840 0.004881
vt 0.251840 0.051057
vt 0.251840 0.074144
vt 0.202629 0.120320
vt 0.202629 0.097232
vt 0.202629 0.143408
vt 0.202629 0.166496
vt 0.202629 0.189584
vt 0.202629 0.212672
vt 0.202629 0.235760
vt 0.202629 0.258848
vt 0.202629 0.281936
vt 0.202629 0.305024
vt 0.202629 0.328112
vt 0.202629 0.351200
vt 0.202629 0.374288
vt 0.202629 0.027969
vt 0.202629 0.004881
vt 0.202629 0.051057
vt 0.202629 0.074144
vt 0.153409 0.120320
vt 0.153409 0.097232
vt 0.153409 0.143408
vt 0.153409 0.166496
vt 0.153409 0.189584
vt 0.153409 0.212672
vt 0.153409 0.235760
vt 0.153409 0.258848
vt 0.153409 0.281936
vt 0.153409 0.305024
vt 0.153409 0.328112
vt 0.153409 0.351200
vt 0.153409 0.374288
vt 0.153409 0.027969
vt 0.153409 0.004881
vt 0.153409 0.051057
vt 0.153409 0.074144
vt 0.104049 0.120320
vt 0.104049 0.097232
vt 0.104049 0.143408
vt 0.104049 0.166496
vt 0.104049 0.189584
vt 0.104049 0.212672
vt 0.104049 0.235760
vt 0.104049 0.258848
vt 0.104049 0.281936
vt 0.104049 0.305024
vt 0.104049 0.328112
vt 0.104049 0.351200
vt 0.104049 0.374288
vt 0.104049 0.027969
vt 0.104049 0.004881
vt 0.104049 0.051057
vt 0.104049 0.074144
vt 0.054535 0.120320
vt 0.054535 0.097232
vt 0.054535 0.143408
vt 0.054535 0.166496
vt 0.054535 0.189584
vt 0.054535 0.212672
vt 0.054535 0.235760
vt 0.054535 0.258848
vt 0.054535 0.281936
vt 0.054535 0.305024
vt 0.054535 0.328112
vt 0.054535 0.351200
vt 0.054535 0.374288
vt 0.054535 0.027969
vt 0.054535 0.004881
vt 0.054535 0.051057
vt 0.054535 0.074144
vt 0.004878 0.120320
vt 0.004878 0.097232
vt 0.004878 0.143408
vt 0.004878 0.166496
vt 0.004878 0.189584
vt 0.004878 0.212672
vt 0.004878 0.235760
vt 0.004878 0.258848
vt 0.004878 0.281936
vt 0.004878 0.305024
vt 0.004878 0.328112
vt 0.004878 0.351200
vt 0.004878 0.374288
vt 0.004878 0.027969
vt 0.004878 0.004881
vt 0.004878 0.051057
vt 0.004878 0.074144
vt 0.004879 0.486798
vt 0.004879 0.466450
vt 0.055013 0.466450
vt 0.055013 0.486798
vt 0.004879 0.507213
vt 0.055013 0.507213
vt 0.004879 0.527629
vt 0.055013 0.527629
vt 0.004879 0.548045
vt 0.055013 0.548045
vt 0.004879 0.568461
vt 0.055013 0.568461
vt 0.004879 0.588878
vt 0.055013 0.588878
vt 0.004879 0.609292
vt 0.055013 0.609292
vt 0.004879 0.629640
vt 0.055013 0.629640
vt 0.004879 0.649973
vt 0.055013 0.649973
vt 0.004879 0.670385
vt 0.055013 0.670385
vt 0.004879 0.690798
vt 0.055013 0.690798
vt 0.004879 0.711211
vt 0.055013 0.711211
vt 0.004879 0.405292
vt 0.004879 0.384879
vt 0.055013 0.384879
vt 0.055013 0.405292
vt 0.004879 0.425706
vt 0.055013 0.425706
vt 0.004879 0.446117
vt 0.055013 0.446117
vt 0.104955 0.466450
vt 0.104955 0.486798
vt 0.104955 0.507213
vt 0.104955 0.527629
vt 0.104955 0.548045
vt 0.104955 0.568461
vt 0.104955 0.588878
vt 0.104955 0.609292
vt 0.104955 0.629640
vt 0.104955 0.649973
vt 0.104955 0.670385
vt 0.104955 0.690798
vt 0.104955 0.711211
vt 0.104955 0.384879
vt 0.104955 0.405292
vt 0.104955 0.425706
vt 0.104955 0.446117
vt 0.154695 0.466450
vt 0.154695 0.486798
vt 0.154695 0.507213
vt 0.154695 0.527629
vt 0.154695 0.548045
vt 0.154695 0.568461
vt 0.154695 0.588878
vt 0.154695 0.609292
vt 0.154695 0.629640
vt 0.154695 0.649973
vt 0.154695 0.670385
vt 0.154695 0.690798
vt 0.154695 0.711211
vt 0.154695 0.384879
vt 0.154695 0.405292
vt 0.154695 0.425706
vt 0.154695 0.446117
vt 0.204408 0.466450
vt 0.204408 0.486798
vt 0.204408 0.507213
vt 0.204408 0.527629
vt 0.204408 0.548045
vt 0.204408 0.568461
vt 0.204408 0.588878
vt 0.204408 0.609292
vt 0.204408 0.629640
vt 0.204408 0.649973
vt 0.204408 0.670385
vt 0.204408 0.690798
vt 0.204408 0.711211
vt 0.204408 0.384879
vt 0.204408 0.405292
vt 0.204408 0.425706
vt 0.204408 0.446117
vt 0.253994 0.466450
vt 0.253994 0.486798
vt 0.253994 0.507213
vt 0.253994 0.527629
vt 0.253994 0.548045
vt 0.253994 0.568461
vt 0.253994 0.588878
vt 0.253994 0.609292
vt 0.253994 0.629640
vt 0.253994 0.649973
vt 0.253994 0.670385
vt 0.253994 0.690798
vt 0.253994 0.711211
vt 0.253994 0.384879
vt 0.253994 0.405292
vt 0.253994 0.425706
vt 0.253994 0.446117
vt 0.303349 0.466450
vt 0.303349 0.486798
vt 0.303349 0.507213
vt 0.303349 0.527629
vt 0.303349 0.548045
vt 0.303349 0.568461
vt 0.303349 0.588878
vt 0.303349 0.609292
vt 0.303349 0.629640
vt 0.303349 0.649973
vt 0.303349 0.670385
vt 0.303349 0.690798
vt 0.303349 0.711211
vt 0.303349 0.384879
vt 0.303349 0.405292
vt 0.303349 0.425706
vt 0.303349 0.446117
vt 0.353499 0.466450
vt 0.353499 0.486798
vt 0.353499 0.507213
vt 0.353499 0.527629
vt 0.353499 0.548045
vt 0.353499 0.568461
vt 0.353499 0.588878
vt 0.353499 0.609292
vt 0.353499 0.629640
vt 0.353499 0.649973
vt 0.353499 0.670385
vt 0.353499 0.690798
vt 0.353499 0.711211
vt 0.353499 0.384879
vt 0.353499 0.405292
vt 0.353499 0.425706
vt 0.353499 0.446117
vt 0.402876 0.466450
vt 0.402876 0.486798
vt 0.402876 0.507213
vt 0.402876 0.527629
vt 0.402876 0.548045
vt 0.402876 0.568461
vt 0.402876 0.588878
vt 0.402876 0.609292
vt 0.402876 0.629640
vt 0.402876 0.649973
vt 0.402876 0.670385
vt 0.402876 0.690798
vt 0.402876 0.711211
vt 0.402876 0.384879
vt 0.402876 0.405292
vt 0.402876 0.425706
vt 0.402876 0.446117
vt 0.452107 0.466450
vt 0.452107 0.486798
vt 0.452107 0.507213
vt 0.452107 0.527629
vt 0.452107 0.548045
vt 0.452107 0.568461
vt 0.452107 0.588878
vt 0.452107 0.609292
vt 0.452107 0.629640
vt 0.452107 0.649973
vt 0.452107 0.670385
vt 0.452107 0.690798
vt 0.452107 0.711211
vt 0.452107 0.384879
vt 0.452107 0.405292
vt 0.452107 0.425706
vt 0.452107 0.446117
vt 0.501273 0.466450
vt 0.501273 0.486798
vt 0.501273 0.507213
vt 0.501273 0.527629
vt 0.501273 0.548045
vt 0.501273 0.568461
vt 0.501273 0.588878
vt 0.501273 0.609292
vt 0.501273 0.629640
vt 0.501273 0.649973
vt 0.501273 0.670385
vt 0.501273 0.690798
vt 0.501273 0.711211
vt 0.501273 0.384879
vt 0.501273 0.405292
vt 0.501273 0.425706
vt 0.501273 0.446117
vt 0.550537 0.466450
vt 0.550537 0.486798
vt 0.550537 0.507213
vt 0.550537 0.527629
vt 0.550537 0.548045
vt 0.550537 0.568461
vt 0.550537 0.588878
vt 0.550537 0.609292
vt 0.550537 0.629640
vt 0.550537 0.649973
vt 0.550537 0.670385
vt 0.550537 0.690798
vt 0.550537 0.711211
vt 0.550537 0.384879
vt 0.550537 0.405292
vt 0.550537 0.425706
vt 0.550537 0.446117
vt 0.599865 0.466450
vt 0.599865 0.486798
vt 0.599865 0.507213
vt 0.599865 0.527629
vt 0.599865 0.548045
vt 0.599865 0.568461
vt 0.599865 0.588878
vt 0.599865 0.609292
vt 0.599865 0.629640
vt 0.599865 0.649973
vt 0.599865 0.670385
vt 0.599865 0.690798
vt 0.599865 0.711211
vt 0.599865 0.384879
vt 0.599865 0.405292
vt 0.599865 0.425706
vt 0.599865 0.446117
vt 0.649169 0.466450
vt 0.649169 0.486798
vt 0.649169 0.507213
vt 0.649169 0.527629
vt 0.649169 0.548045
vt 0.649169 0.568461
vt 0.649169 0.588878
vt 0.649169 0.609292
vt 0.649169 0.629640
vt 0.649169 0.649973
vt 0.649168 0.670385
vt 0.649168 0.690798
vt 0.649168 0.711211
vt 0.649169 0.384879
vt 0.649169 0.405292
vt 0.649169 0.425706
vt 0.649169 0.446117
vt 0.698482 0.466450
vt 0.698482 0.486798
vt 0.698482 0.507213
vt 0.698482 0.527629
vt 0.698482 0.548045
vt 0.698482 0.568461
vt 0.698482 0.588878
vt 0.698482 0.609292
vt 0.698482 0.629640
vt 0.698482 0.649973
vt 0.698482 0.670385
vt 0.698482 0.690798
vt 0.698482 0.711211
vt 0.698482 0.384879
vt 0.698482 0.405292
vt 0.698482 0.425706
vt 0.698482 0.446117
vt 0.747778 0.466450
vt 0.747778 0.486798
vt 0.747778 0.507213
vt 0.747778 0.527629
vt 0.747778 0.548045
vt 0.747778 0.568461
vt 0.747778 0.588878
vt 0.747778 0.609292
vt 0.747778 0.629640
vt 0.747778 0.649973
vt 0.747778 0.670385
vt 0.747778 0.690798
vt 0.747778 0.711211
vt 0.747778 0.384879
vt 0.747778 0.405292
vt 0.747778 0.425706
vt 0.747778 0.446117
vt 0.797030 0.466450
vt 0.797030 0.486798
vt 0.797030 0.507213
vt 0.797030 0.527629
vt 0.797030 0.548045
vt 0.797030 0.568461
vt 0.797030 0.588878
vt 0.797030 0.609292
vt 0.797030 0.629640
vt 0.797030 0.649973
vt 0.797029 0.670385
vt 0.797029 0.690798
vt 0.797029 0.711211
vt 0.797030 0.384879
vt 0.797030 0.405292
vt 0.797030 0.425706
vt 0.797030 0.446117
vt 0.846292 0.466450
vt 0.846292 0.486798
vt 0.846292 0.507213
vt 0.846292 0.527629
vt 0.846292 0.548045
vt 0.846292 0.568461
vt 0.846292 0.588878
vt 0.846292 0.609292
vt 0.846292 0.629640
vt 0.846292 0.649973
vt 0.846292 0.670385
vt 0.846292 0.690798
vt 0.846292 0.711211
vt 0.846292 0.384879
vt 0.846292 0.405292
vt 0.846292 0.425706
vt 0.846292 0.446117
vt 0.895685 0.466450
vt 0.895685 0.486798
vt 0.895685 0.507213
vt 0.895685 0.527629
vt 0.895685 0.548045
vt 0.895685 0.568461
vt 0.895685 0.588878
vt 0.895685 0.609292
vt 0.895685 0.629640
vt 0.895685 0.649973
vt 0.895685 0.670384
vt 0.895685 0.690798
vt 0.895685 0.711211
vt 0.895685 0.384879
vt 0.895685 0.405292
vt 0.895685 0.425706
vt 0.895685 0.446117
vt 0.945217 0.466450
vt 0.945217 0.486798
vt 0.945217 0.507213
vt 0.945217 0.527629
vt 0.945217 0.548045
vt 0.945217 0.568461
vt 0.945217 0.588878
vt 0.945217 0.609292
vt 0.945217 0.629640
vt 0.945217 0.649973
vt 0.945217 0.670384
vt 0.945217 0.690798
vt 0.945217 0.711211
vt 0.945217 0.384879
vt 0.945217 0.405292
vt 0.945217 0.425706
vt 0.945217 0.446117
vt 0.994899 0.466450
vt 0.994899 0.486798
vt 0.994899 0.507213
vt 0.994899 0.527629
vt 0.994899 0.548045
vt 0.994899 0.568461
vt 0.994899 0.588878
vt 0.994899 0.609292
vt 0.994899 0.629640
vt 0.994899 0.649973
vt 0.994899 0.670384
vt 0.994899 0.690798
vt 0.994899 0.711211
vt 0.994899 0.384879
vt 0.994899 0.405292
vt 0.994899 0.425706
vt 0.994899 0.446117
vt 0.213573 0.729712
vt 0.171835 0.729712
vt 0.171835 0.722888
vt 0.213573 0.722888
vt 0.255311 0.729712
vt 0.255311 0.722888
vt 0.297049 0.729712
vt 0.297049 0.722888
vt 0.338787 0.729712
vt 0.338787 0.722888
vt 0.380525 0.729712
vt 0.380525 0.722888
vt 0.422263 0.729712
vt 0.422263 0.722888
vt 0.464001 0.729712
vt 0.464001 0.722888
vt 0.505739 0.729712
vt 0.505739 0.722888
vt 0.547477 0.729712
vt 0.547477 0.722888
vt 0.589214 0.729712
vt 0.589214 0.722888
vt 0.630952 0.729712
vt 0.630952 0.722888
vt 0.672690 0.729712
vt 0.672690 0.722888
vt 0.046622 0.729712
vt 0.004884 0.729712
vt 0.004884 0.722888
vt 0.046622 0.722888
vt 0.088360 0.729712
vt 0.088360 0.722888
vt 0.130097 0.729712
vt 0.130097 0.722888
vt 0.741574 0.729708
vt 0.736647 0.729708
vt 0.736647 0.722878
vt 0.741574 0.722878
vt 0.731722 0.729708
vt 0.731722 0.722878
vt 0.726796 0.729708
vt 0.726796 0.722878
vt 0.721870 0.729708
vt 0.721870 0.722878
vt 0.716945 0.729708
vt 0.716945 0.722878
vt 0.712019 0.729708
vt 0.712019 0.722878
vt 0.707093 0.729708
vt 0.707093 0.722878
vt 0.702167 0.729708
vt 0.702167 0.722878
vt 0.697240 0.729708
vt 0.697240 0.722878
vt 0.692312 0.729708
vt 0.692312 0.722878
vt 0.687383 0.729708
vt 0.687383 0.722878
vt 0.682454 0.729708
vt 0.682454 0.722878
vt 0.761287 0.729708
vt 0.756357 0.729708
vt 0.756357 0.722878
vt 0.761287 0.722878
vt 0.751428 0.729708
vt 0.751428 0.722878
vt 0.746501 0.729708
vt 0.746501 0.722878
s 1
f 1/1/1 17/2/2 32/3/3 16/4/4
f 2/5/5 18/6/6 17/2/2 1/1/1
f 3/7/7 19/8/8 18/6/6 2/5/5
f 4/9/9 20/10/10 19/8/8 3/7/7
f 5/11/11 21/12/12 20/10/10 4/9/9
f 6/13/13 22/14/14 21/12/12 5/11/11
f 7/15/15 23/16/16 22/14/14 6/13/13
f 8/17/17 24/18/18 23/16/16 7/15/15
f 9/19/19 25/20/20 24/18/18 8/17/17
f 10/21/21 26/22/22 25/20/20 9/19/19
f 11/23/23 27/24/24 26/22/22 10/21/21
f 12/25/25 28/26/26 27/24/24 11/23/23
f 13/27/27 29/28/28 28/29/26 12/30/25
f 14/31/29 30/32/30 29/28/28 13/27/27
f 15/33/31 31/34/32 30/32/30 14/31/29
f 16/4/4 32/3/3 31/34/32 15/33/31
f 17/2/2 33/35/33 48/36/34 32/3/3
f 18/6/6 34/37/35 33/35/33 17/2/2
f 19/8/8 35/38/36 34/37/35 18/6/6
f 20/10/10 36/39/37 35/38/36 19/8/8
f 21/12/12 37/40/38 36/39/37 20/10/10
f 22/14/14 38/41/39 37/40/38 21/12/12
f 23/16/16 39/42/40 38/41/39 22/14/14
f 24/18/18 40/43/41 39/42/40 23/16/16
f 25/20/20 41/44/42 40/43/41 24/18/18
f 26/22/22 42/45/43 41/44/42 25/20/20
f 27/24/24 43/46/44 42/45/43 26/22/22
f 28/26/26 44/47/45 43/46/44 27/24/24
f 29/28/28 45/48/46 44/49/45 28/29/26
f 30/32/30 46/50/47 45/48/46 29/28/28
f 31/34/32 47/51/48 46/50/47 30/32/30
f 32/3/3 48/36/34 47/51/48 31/34/32
f 33/35/33 49/52/49 64/53/50 48/36/34
f 34/37/35 50/54/51 49/52/49 33/35/33
f 35/38/36 51/55/52 50/54/51 34/37/35
f 36/39/37 52/56/53 51/55/52 35/38/36
f 37/40/38 53/57/54 52/56/53 36/39/37
f 38/41/39 54/58/55 53/57/54 37/40/38
f 39/42/40 55/59/56 54/58/55 38/41/39
f 40/43/41 56/60/57 55/59/56 39/42/40
f 41/44/42 57/61/58 56/60/57 40/43/41
f 42/45/43 58/62/59 57/61/58 41/44/42
f 43/46/44 59/63/60 58/62/59 42/45/43
f 44/47/45 60/64/61 59/63/60 43/46/44
f 45/48/46 61/65/62 60/66/61 44/49/45
f 46/50/47 62/67/63 61/65/62 45/48/46
f 47/51/48 63/68/64 62/67/63 46/50/47
f 48/36/34 64/53/50 63/68/64 47/51/48
f 49/52/49 65/69/65 80/70/66 64/53/50
f 50/54/51 66/71/67 65/69/65 49/52/49
f 51/55/52 67/72/68 66/71/67 50/54/51
f 52/56/53 68/73/69 67/72/68 51/55/52
f 53/57/54 69/74/70 68/73/69 52/56/53
f 54/58/55 70/75/71 69/74/70 53/57/54
f 55/59/56 71/76/72 70/75/71 54/58/55
f 56/60/57 72/77/73 71/76/72 55/59/56
f 57/61/58 73/78/74 72/77/73 56/60/57
f 58/62/59 74/79/75 73/78/74 57/61/58
f 59/63/60 75/80/76 74/79/75 58/62/59
f 60/64/61 76/81/77 75/80/76 59/63/60
f 61/65/62 77/82/78 76/83/77 60/66/61
f 62/67/63 78/84/79 77/82/78 61/65/62
f 63/68/64 79/85/80 78/84/79 62/67/63
f 64/53/50 80/70/66 79/85/80 63/68/64
f 65/69/65 81/86/81 96/87/82 80/70/66
f 66/71/67 82/88/83 81/86/81 65/69/65
f 67/72/68 83/89/84 82/88/83 66/71/67
f 68/73/69 84/90/85 83/89/84 67/72/68
f 69/74/70 85/91/86 84/90/85 68/73/69
f 70/75/71 86/92/87 85/91/86 69/74/70
f 71/76/72 87/93/88 86/92/87 70/75/71
f 72/77/73 88/94/89 87/93/88 71/76/72
f 73/78/74 89/95/90 88/94/89 72/77/73
f 74/79/75 90/96/91 89/95/90 73/78/74
f 75/80/76 91/97/92 90/96/91 74/79/75
f 76/81/77 92/98/93 91/97/92 75/80/76
f 77/82/78 93/99/94 92/100/93 76/83/77
f 78/84/79 94/101/95 93/99/94 77/82/78
f 79/85/80 95/102/96 94/101/95 78/84/79
f 80/70/66 96/87/82 95/102/96 79/85/80
f 81/86/81 97/103/97 112/104/98 96/87/82
f 82/88/83 98/105/99 97/103/97 81/86/81
f 83/89/84 99/106/100 98/105/99 82/88/83
f 84/90/85 100/107/101 99/106/100 83/89/84
f 85/91/86 101/108/102 100/107/101 84/90/85
f 86/92/87 102/109/103 101/108/102 85/91/86
f 87/93/88 103/110/104 102/109/103 86/92/87
f 88/94/89 104/111/105 103/110/104 87/93/88
f 89/95/90 105/112/106 104/111/105 88/94/89
f 90/96/91 106/113/107 105/112/106 89/95/90
f 91/97/92 107/114/108 106/113/107 90/96/91
f 92/98/93 108/115/109 107/114/108 91/97/92
f 93/99/94 109/116/110 108/117/109 92/100/93
f 94/101/95 110/118/111 109/116/110 93/99/94
f 95/102/96 111/119/112 110/118/111 94/101/95
f 96/87/82 112/104/98 111/119/112 95/102/96
f 97/103/97 113/120/113 128/121/114 112/104/98
f 98/105/99 114/122/115 113/120/113 97/103/97
f 99/106/100 115/123/116 114/122/115 98/105/99
f 100/107/101 116/124/117 115/123/116 99/106/100
f 101/108/102 117/125/118 116/124/117 100/107/101
f 102/109/103 118/126/119 117/125/118 101/108/102
f 103/110/104 119/127/120 118/126/119 102/109/103
f 104/111/105 120/128/121 119/127/120 103/110/104
f 105/112/106 121/129/122 120/128/121 104/111/105
f 106/113/107 122/130/123 121/129/122 105/112/106
f 107/114/108 123/131/124 122/130/123 106/113/107
f 108/115/109 124/132/125 123/131/124 107/114/108
f 109/116/110 125/133/126 124/134/125 108/117/109
f 110/118/111 126/135/127 125/133/126 109/116/110
f 111/119/112 127/136/128 126/135/127 110/118/111
f 112/104/98 128/121/114 127/136/128 111/119/112
f 113/120/113 129/137/129 144/138/130 128/121/114
f 114/122/115 130/139/131 129/137/129 113/120/113
f 115/123/116 131/140/132 130/139/131 114/122/115
f 116/124/117 132/141/133 131/140/132 115/123/116
f 117/125/118 133/142/134 132/141/133 116/124/117
f 118/126/119 134/143/135 133/142/134 117/125/118
f 119/127/120 135/144/136 134/143/135 118/126/119
f 120/128/121 136/145/137 135/144/136 119/127/120
f 121/129/122 137/146/138 136/145/137 120/128/121
f 122/130/123 138/147/139 137/146/138 121/129/122
f 123/131/124 139/148/140 138/147/139 122/130/123
f 124/132/125 140/149/141 139/148/140 123/131/124
f 125/133/126 141/150/142 140/151/141 124/134/125
f 126/135/127 142/152/143 141/150/142 125/133/126
f 127/136/128 143/153/144 142/152/143 126/135/127
f 128/121/114 144/138/130 143/153/144 127/136/128
f 129/137/129 145/154/145 160/155/146 144/138/130
f 130/139/131 146/156/147 145/154/145 129/137/129
f 131/140/132 147/157/148 146/156/147 130/139/131
f 132/141/133 148/158/149 147/157/148 131/140/132
f 133/142/134 149/159/150 148/158/149 132/141/133
f 134/143/135 150/160/151 149/159/150 133/142/134
f 135/144/136 151/161/152 150/160/151 134/143/135
f 136/145/137 152/162/153 151/161/152 135/144/136
f 137/146/138 153/163/154 152/162/153 136/145/137
f 138/147/139 154/164/155 153/163/154 137/146/138
f 139/148/140 155/165/156 154/164/155 138/147/139
f 140/149/141 156/166/157 155/165/156 139/148/140
f 141/150/142 157/167/158 156/168/157 140/151/141
f 142/152/143 158/169/159 157/167/158 141/150/142
f 143/153/144 159/170/160 158/169/159 142/152/143
f 144/138/130 160/155/146 159/170/160 143/153/144
f 145/154/145 161/171/161 176/172/162 160/155/146
f 146/156/147 162/173/163 161/171/161 145/154/145
f 147/157/148 163/174/164 162/173/163 146/156/147
f 148/158/149 164/175/165 163/174/164 147/157/148
f 149/159/150 165/176/166 164/175/165 148/158/149
f 150/160/151 166/177/167 165/176/166 149/159/150
f 151/161/152 167/178/168 166/177/167 150/160/151
f 152/162/153 168/179/169 167/178/168 151/161/152
f 153/163/154 169/180/170 168/179/169 152/162/153
f 154/164/155 170/181/171 169/180/170 153/163/154
f 155/165/156 171/182/172 170/181/171 154/164/155
f 156/166/157 172/183/173 171/182/172 155/165/156
f 157/167/158 173/184/174 172/185/173 156/168/157
f 158/169/159 174/186/175 173/184/174 157/167/158
f 159/170/160 175/187/176 174/186/175 158/169/159
f 160/155/146 176/172/162 175/187/176 159/170/160
f 161/171/161 177/188/177 192/189/178 176/172/162
f 162/173/163 178/190/179 177/188/177 161/171/161
f 163/174/164 179/191/180 178/190/179 162/173/163
f 164/175/165 180/192/181 179/191/180 163/174/164
f 165/176/166 181/193/182 180/192/181 164/175/165
f 166/177/167 182/194/183 181/193/182 165/176/166
f 167/178/168 183/195/184 182/194/183 166/177/167
f 168/179/169 184/196/185 183/195/184 167/178/168
f 169/180/170 185/197/186 184/196/185 168/179/169
f 170/181/171 186/198/187 185/197/186 169/180/170
f 171/182/172 187/199/188 186/198/187 170/181/171
f 172/183/173 188/200/189 187/199/188 171/182/172
f 173/184/174 189/201/190 188/202/189 172/185/173
f 174/186/175 190/203/191 189/201/190 173/184/174
f 175/187/176 191/204/192 190/203/191 174/186/175
f 176/172/162 192/189/178 191/204/192 175/187/176
f 177/188/177 193/205/193 208/206/194 192/189/178
f 178/190/179 194/207/195 193/205/193 177/188/177
f 179/191/180 195/208/196 194/207/195 178/190/179
f 180/192/181 196/209/197 195/208/196 179/191/180
f 181/193/182 197/210/198 196/209/197 180/192/181
f 182/194/183 198/211/199 197/210/198 181/193/182
f 183/195/184 199/212/200 198/211/199 182/194/183
f 184/196/185 200/213/201 199/212/200 183/195/184
f 185/197/186 201/214/202 200/213/201 184/196/185
f 186/198/187 202/215/203 201/214/202 185/197/186
f 187/199/188 203/216/204 202/215/203 186/198/187
f 188/200/189 204/217/205 203/216/204 187/199/188
f 189/201/190 205/218/206 204/219/205 188/202/189
f 190/203/191 206/220/207 205/218/206 189/201/190
f 191/204/192 207/221/208 206/220/207 190/203/191
f 192/189/178 208/206/194 207/221/208 191/204/192
f 193/205/193 209/222/209 224/223/210 208/206/194
f 194/207/195 210/224/211 209/222/209 193/205/193
f 195/208/196 211/225/212 210/224/211 194/207/195
f 196/209/197 212/226/213 211/225/212 195/208/196
f 197/210/198 213/227/214 212/226/213 196/209/197
f 198/211/199 214/228/215 213/227/214 197/210/198
f 199/212/200 215/229/216 214/228/215 198/211/199
f 200/213/201 216/230/217 215/229/216 199/212/200
f 201/214/202 217/231/218 216/230/217 200/213/201
f 202/215/203 218/232/219 217/231/218 201/214/202
f 203/216/204 219/233/220 218/232/219 202/215/203
f 204/217/205 220/234/221 219/233/220 203/216/204
f 205/218/206 221/235/222 220/236/221 204/219/205
f 206/220/207 222/237/223 221/235/222 205/218/206
f 207/221/208 223/238/224 222/237/223 206/220/207
f 208/206/194 224/223/210 223/238/224 207/221/208
f 209/222/209 225/239/225 240/240/226 224/223/210
f 210/224/211 226/241/227 225/239/225 209/222/209
f 211/225/212 227/242/228 226/241/227 210/224/211
f 212/226/213 228/243/229 227/242/228 211/225/212
f 213/227/214 229/244/230 228/243/229 212/226/213
f 214/228/215 230/245/231 229/244/230 213/227/214
f 215/229/216 231/246/232 230/245/231 214/228/215
f 216/230/217 232/247/233 231/246/232 215/229/216
f 217/231/218 233/248/234 232/247/233 216/230/217
f 218/232/219 234/249/235 233/248/234 217/231/218
f 219/233/220 235/250/236 234/249/235 218/232/219
f 220/234/221 236/251/237 235/250/236 219/233/220
f 221/235/222 237/252/238 236/253/237 220/236/221
f 222/237/223 238/254/239 237/252/238 221/235/222
f 223/238/224 239/255/240 238/254/239 222/237/223
f 224/223/210 240/240/226 239/255/240 223/238/224
f 225/239/225 241/256/241 256/257/242 240/240/226
f 226/241/227 242/258/243 241/256/241 225/239/225
f 227/242/228 243/259/244 242/258/243 226/241/227
f 228/243/229 244/260/245 243/259/244 227/242/228
f 229/244/230 245/261/246 244/260/245 228/243/229
f 230/245/231 246/262/247 245/261/246 229/244/230
f 231/246/232 247/263/248 246/262/247 230/245/231
f 232/247/233 248/264/249 247/263/248 231/246/232
f 233/248/234 249/265/250 248/264/249 232/247/233
f 234/249/235 250/266/251 249/265/250 233/248/234
f 235/250/236 251/267/252 250/266/251 234/249/235
f 236/251/237 252/268/253 251/267/252 235/250/236
f 237/252/238 253/269/254 252/270/253 236/253/237
f 238/254/239 254/271/255 253/269/254 237/252/238
f 239/255/240 255/272/256 254/271/255 238/254/239
f 240/240/226 256/257/242 255/272/256 239/255/240
f 241/256/241 257/273/257 272/274/258 256/257/242
f 242/258/243 258/275/259 257/273/257 241/256/241
f 243/259/244 259/276/260 258/275/259 242/258/243
f 244/260/245 260/277/261 259/276/260 243/259/244
f 245/261/246 261/278/262 260/277/261 244/260/245
f 246/262/247 262/279/263 261/278/262 245/261/246
f 247/263/248 263/280/264 262/279/263 246/262/247
f 248/264/249 264/281/265 263/280/264 247/263/248
f 249/265/250 265/282/266 264/281/265 248/264/249
f 250/266/251 266/283/267 265/282/266 249/265/250
f 251/267/252 267/284/268 266/283/267 250/266/251
f 252/268/253 268/285/269 267/284/268 251/267/252
f 253/269/254 269/286/270 268/287/269 252/270/253
f 254/271/255 270/288/271 269/286/270 253/269/254
f 255/272/256 271/289/272 270/288/271 254/271/255
f 256/257/242 272/274/258 271/289/272 255/272/256
f 257/273/257 273/290/273 288/291/274 272/274/258
f 258/275/259 274/292/275 273/290/273 257/273/257
f 259/276/260 275/293/276 274/292/275 258/275/259
f 260/277/261 276/294/277 275/293/276 259/276/260
f 261/278/262 277/295/278 276/294/277 260/277/261
f 262/279/263 278/296/279 277/295/278 261/278/262
f 263/280/264 279/297/280 278/296/279 262/279/263
f 264/281/265 280/298/281 279/297/280 263/280/264
f 265/282/266 281/299/282 280/298/281 264/281/265
f 266/283/267 282/300/283 281/299/282 265/282/266
f 267/284/268 283/301/284 282/300/283 266/283/267
f 268/285/269 284/302/285 283/301/284 267/284/268
f 269/286/270 285/303/286 284/304/285 268/287/269
f 270/288/271 286/305/287 285/303/286 269/286/270
f 271/289/272 287/306/288 286/305/287 270/288/271
f 272/274/258 288/291/274 287/306/288 271/289/272
f 273/290/273 289/307/289 304/308/290 288/291/274
f 274/292/275 290/309/291 289/307/289 273/290/273
f 275/293/276 291/310/292 290/309/291 274/292/275
f 276/294/277 292/311/293 291/310/292 275/293/276
f 277/295/278 293/312/294 292/311/293 276/294/277
f 278/296/279 294/313/295 293/312/294 277/295/278
f 279/297/280 295/314/296 294/313/295 278/296/279
f 280/298/281 296/315/297 295/314/296 279/297/280
f 281/299/282 297/316/298 296/315/297 280/298/281
f 282/300/283 298/317/299 297/316/298 281/299/282
f 283/301/284 299/318/300 298/317/299 282/300/283
f 284/302/285 300/319/301 299/318/300 283/301/284
f 285/303/286 301/320/302 300/321/301 284/304/285
f 286/305/287 302/322/303 301/320/302 285/303/286
f 287/306/288 303/323/304 302/322/303 286/305/287
f 288/291/274 304/308/290 303/323/304 287/306/288
f 289/307/289 305/324/305 320/325/306 304/308/290
f 290/309/291 306/326/307 305/324/305 289/307/289
f 291/310/292 307/327/308 306/326/307 290/309/291
f 292/311/293 308/328/309 307/327/308 291/310/292
f 293/312/294 309/329/310 308/328/309 292/311/293
f 294/313/295 310/330/311 309/329/310 293/312/294
f 295/314/296 311/331/312 310/330/311 294/313/295
f 296/315/297 312/332/313 311/331/312 295/314/296
f 297/316/298 313/333/314 312/332/313 296/315/297
f 298/317/299 314/334/315 313/333/314 297/316/298
f 299/318/300 315/335/316 314/334/315 298/317/299
f 300/319/301 316/336/317 315/335/316 299/318/300
f 301/320/302 317/337/318 316/338/317 300/321/301
f 302/322/303 318/339/319 317/337/318 301/320/302
f 303/323/304 319/340/320 318/339/319 302/322/303
f 304/308/290 320/325/306 319/340/320 303/323/304
f 305/324/305 321/341/321 336/342/322 320/325/306
f 306/326/307 322/343/323 321/341/321 305/324/305
f 307/327/308 323/344/324 322/343/323 306/326/307
f 308/328/309 324/345/325 323/344/324 307/327/308
f 309/329/310 325/346/326 324/345/325 308/328/309
f 310/330/311 326/347/327 325/346/326 309/329/310
f 311/331/312 327/348/328 326/347/327 310/330/311
f 312/332/313 328/349/329 327/348/328 311/331/312
f 313/333/314 329/350/330 328/349/329 312/332/313
f 314/334/315 330/351/331 329/350/330 313/333/314
f 315/335/316 331/352/332 330/351/331 314/334/315
f 316/336/317 332/353/333 331/352/332 315/335/316
f 317/337/318 333/354/334 332/355/333 316/338/317
f 318/339/319 334/356/335 333/354/334 317/337/318
f 319/340/320 335/357/336 334/356/335 318/339/319
f 320/325/306 336/342/322 335/357/336 319/340/320
f 337/358/337 352/359/338 368/360/339 353/361/340
f 338/362/341 337/358/337 353/361/340 354/363/342
f 339/364/343 338/362/341 354/363/342 355/365/344
f 340/366/345 339/364/343 355/365/344 356/367/346
f 341/368/347 340/366/345 356/367/346 357/369/348
f 342/370/349 341/368/347 357/369/348 358/371/350
f 343/372/351 342/370/349 358/371/350 359/373/352
f 344/374/353 343/372/351 359/373/352 360/375/354
f 345/376/355 344/374/353 360/375/354 361/377/356
f 346/378/357 345/376/355 361/377/356 362/379/358
f 347/380/359 346/378/357 362/379/358 363/381/360
f 348/382/361 347/380/359 363/381/360 364/383/362
f 349/384/363 348/385/361 364/386/362 365/387/364
f 350/388/365 349/384/363 365/387/364 366/389/366
f 351/390/367 350/388/365 366/389/366 367/391/368
f 352/359/338 351/390/367 367/391/368 368/360/339
f 353/361/340 368/360/339 384/392/369 369/393/370
f 354/363/342 353/361/340 369/393/370 370/394/371
f 355/365/344 354/363/342 370/394/371 371/395/372
f 356/367/346 355/365/344 371/395/372 372/396/373
f 357/369/348 356/367/346 372/396/373 373/397/374
f 358/371/350 357/369/348 373/397/374 374/398/375
f 359/373/352 358/371/350 374/398/375 375/399/376
f 360/375/354 359/373/352 375/399/376 376/400/377
f 361/377/356 360/375/354 376/400/377 377/401/378
f 362/379/358 361/377/356 377/401/378 378/402/379
f 363/381/360 362/379/358 378/402/379 379/403/380
f 364/383/362 363/381/360 379/403/380 380/404/381
f 365/387/364 364/386/362 380/405/381 381/406/382
f 366/389/366 365/387/364 381/406/382 382/407/383
f 367/391/368 366/389/366 382/407/383 383/408/384
f 368/360/339 367/391/368 383/408/384 384/392/369
f 369/393/370 384/392/369 400/409/385 385/410/386
f 370/394/371 369/393/370 385/410/386 386/411/387
f 371/395/372 370/394/371 386/411/387 387/412/388
f 372/396/373 371/395/372 387/412/388 388/413/389
f 373/397/374 372/396/373 388/413/389 389/414/390
f 374/398/375 373/397/374 389/414/390 390/415/391
f 375/399/376 374/398/375 390/415/391 391/416/392
f 376/400/377 375/399/376 391/416/392 392/417/393
f 377/401/378 376/400/377 392/417/393 393/418/394
f 378/402/379 377/401/378 393/418/394 394/419/395
f 379/403/380 378/402/379 394/419/395 395/420/396
f 380/404/381 379/403/380 395/420/396 396/421/397
f 381/406/382 380/405/381 396/422/397 397/423/398
f 382/407/383 381/406/382 397/423/398 398/424/399
f 383/408/384 382/407/383 398/424/399 399/425/400
f 384/392/369 383/408/384 399/425/400 400/409/385
f 385/410/386 400/409/385 416/426/401 401/427/402
f 386/411/387 385/410/386 401/427/402 402/428/403
f 387/412/388 386/411/387 402/428/403 403/429/404
f 388/413/389 387/412/388 403/429/404 404/430/405
f 389/414/390 388/413/389 404/430/405 405/431/406
f 390/415/391 389/414/390 405/431/406 406/432/407
f 391/416/392 390/415/391 406/432/407 407/433/408
f 392/417/393 391/416/392 407/433/408 408/434/409
f 393/418/394 392/417/393 408/434/409 409/435/410
f 394/419/395 393/418/394 409/435/410 410/436/411
f 395/420/396 394/419/395 410/436/411 411/437/412
f 396/421/397 395/420/396 411/437/412 412/438/413
f 397/423/398 396/422/397 412/439/413 413/440/414
f 398/424/399 397/423/398 413/440/414 414/441/415
f 399/425/400 398/424/399 414/441/415 415/442/416
f 400/409/385 399/425/400 415/442/416 416/426/401
f 401/427/402 416/426/401 432/443/417 417/444/418
f 402/428/403 401/427/402 417/444/418 418/445/419
f 403/429/404 402/428/403 418/445/419 419/446/420
f 404/430/405 403/429/404 419/446/420 420/447/421
f 405/431/406 404/430/405 420/447/421 421/448/422
f 406/432/407 405/431/406 421/448/422 422/449/423
f 407/433/408 406/432/407 422/449/423 423/450/424
f 408/434/409 407/433/408 423/450/424 424/451/425
f 409/435/410 408/434/409 424/451/425 425/452/426
f 410/436/411 409/435/410 425/452/426 426/453/427
f 411/437/412 410/436/411 426/453/427 427/454/428
f 412/438/413 411/437/412 427/454/428 428/455/429
f 413/440/414 412/439/413 428/456/429 429/457/430
f 414/441/415 413/440/414 429/457/430 430/458/431
f 415/442/416 414/441/415 430/458/431 431/459/432
f 416/426/401 415/442/416 431/459/432 432/443/417
f 417/444/418 432/443/417 448/460/433 433/461/434
f 418/445/419 417/444/418 433/461/434 434/462/435
f 419/446/420 418/445/419 434/462/435 435/463/436
f 420/447/421 419/446/420 435/463/436 436/464/437
f 421/448/422 420/447/421 436/464/437 437/465/438
f 422/449/423 421/448/422 437/465/438 438/466/439
f 423/450/424 422/449/423 438/466/439 439/467/440
f 424/451/425 423/450/424 439/467/440 440/468/441
f 425/452/426 424/451/425 440/468/441 441/469/442
f 426/453/427 425/452/426 441/469/442 442/470/443
f 427/454/428 426/453/427 442/470/443 443/471/444
f 428/455/429 427/454/428 443/471/444 444/472/445
f 429/457/430 428/456/429 444/473/445 445/474/446
f 430/458/431 429/457/430 445/474/446 446/475/447
f 431/459/432 430/458/431 446/475/447 447/476/448
f 432/443/417 431/459/432 447/476/448 448/460/433
f 433/461/434 448/460/433 464/477/449 449/478/450
f 434/462/435 433/461/434 449/478/450 450/479/451
f 435/463/436 434/462/435 450/479/451 451/480/452
f 436/464/437 435/463/436 451/480/452 452/481/453
f 437/465/438 436/464/437 452/481/453 453/482/454
f 438/466/439 437/465/438 453/482/454 454/483/455
f 439/467/440 438/466/439 454/483/455 455/484/456
f 440/468/441 439/467/440 455/484/456 456/485/457
f 441/469/442 440/468/441 456/485/457 457/486/458
f 442/470/443 441/469/442 457/486/458 458/487/459
f 443/471/444 442/470/443 458/487/459 459/488/460
f 444/472/445 443/471/444 459/488/460 460/489/461
f 445/474/446 444/473/445 460/490/461 461/491/462
f 446/475/447 445/474/446 461/491/462 462/492/463
f 447/476/448 446/475/447 462/492/463 463/493/464
f 448/460/433 447/476/448 463/493/464 464/477/449
f 449/478/450 464/477/449 480/494/465 465/495/466
f 450/479/451 449/478/450 465/495/466 466/496/467
f 451/480/452 450/479/451 466/496/467 467/497/468
f 452/481/453 451/480/452 467/497/468 468/498/469
f 453/482/454 452/481/453 468/498/469 469/499/470
f 454/483/455 453/482/454 469/499/470 470/500/471
f 455/484/456 454/483/455 470/500/471 471/501/472
f 456/485/457 455/484/456 471/501/472 472/502/473
f 457/486/458 456/485/457 472/502/473 473/503/474
f 458/487/459 457/486/458 473/503/474 474/504/475
f 459/488/460 458/487/459 474/504/475 475/505/476
f 460/489/461 459/488/460 475/505/476 476/506/477
f 461/491/462 460/490/461 476/507/477 477/508/478
f 462/492/463 461/491/462 477/508/478 478/509/479
f 463/493/464 462/492/463 478/509/479 479/510/480
f 464/477/449 463/493/464 479/510/480 480/494/465
f 465/495/466 480/494/465 496/511/481 481/512/482
f 466/496/467 465/495/466 481/512/482 482/513/483
f 467/497/468 466/496/467 482/513/483 483/514/484
f 468/498/469 467/497/468 483/514/484 484/515/485
f 469/499/470 468/498/469 484/515/485 485/516/486
f 470/500/471 469/499/470 485/516/486 486/517/487
f 471/501/472 470/500/471 486/517/487 487/518/488
f 472/502/473 471/501/472 487/518/488 488/519/489
f 473/503/474 472/502/473 488/519/489 489/520/490
f 474/504/475 473/503/474 489/520/490 490/521/491
f 475/505/476 474/504/475 490/521/491 491/522/492
f 476/506/477 475/505/476 491/522/492 492/523/493
f 477/508/478 476/507/477 492/524/493 493/525/494
f 478/509/479 477/508/478 493/525/494 494/526/495
f 479/510/480 478/509/479 494/526/495 495/527/496
f 480/494/465 479/510/480 495/527/496 496/511/481
f 481/512/482 496/511/481 512/528/497 497/529/498
f 482/513/483 481/512/482 497/529/498 498/530/499
f 483/514/484 482/513/483 498/530/499 499/531/500
f 484/515/485 483/514/484 499/531/500 500/532/501
f 485/516/486 484/515/485 500/532/501 501/533/502
f 486/517/487 485/516/486 501/533/502 502/534/503
f 487/518/488 486/517/487 502/534/503 503/535/504
f 488/519/489 487/518/488 503/535/504 504/536/505
f 489/520/490 488/519/489 504/536/505 505/537/506
f 490/521/491 489/520/490 505/537/506 506/538/507
f 491/522/492 490/521/491 506/538/507 507/539/508
f 492/523/493 491/522/492 507/539/508 508/540/509
f 493/525/494 492/524/493 508/541/509 509/542/510
f 494/526/495 493/525/494 509/542/510 510/543/511
f 495/527/496 494/526/495 510/543/511 511/544/512
f 496/511/481 495/527/496 511/544/512 512/528/497
f 497/529/498 512/528/497 528/545/513 513/546/514
f 498/530/499 497/529/498 513/546/514 514/547/515
f 499/531/500 498/530/499 514/547/515 515/548/516
f 500/532/501 499/531/500 515/548/516 516/549/517
f 501/533/502 500/532/501 516/549/517 517/550/518
f 502/534/503 501/533/502 517/550/518 518/551/519
f 503/535/504 502/534/503 518/551/519 519/552/520
f 504/536/505 503/535/504 519/552/520 520/553/521
f 505/537/506 504/536/505 520/553/521 521/554/522
f 506/538/507 505/537/506 521/554/522 522/555/523
f 507/539/508 506/538/507 522/555/523 523/556/524
f 508/540/509 507/539/508 523/556/524 524/557/525
f 509/542/510 508/541/509 524/558/525 525/559/526
f 510/543/511 509/542/510 525/559/526 526/560/527
f 511/544/512 510/543/511 526/560/527 527/561/528
f 512/528/497 511/544/512 527/561/528 528/545/513
f 513/546/514 528/545/513 544/562/529 529/563/530
f 514/547/515 513/546/514 529/563/530 530/564/531
f 515/548/516 514/547/515 530/564/531 531/565/532
f 516/549/517 515/548/516 531/565/532 532/566/533
f 517/550/518 516/549/517 532/566/533 533/567/534
f 518/551/519 517/550/518 533/567/534 534/568/535
f 519/552/520 518/551/519 534/568/535 535/569/536
f 520/553/521 519/552/520 535/569/536 536/570/537
f 521/554/522 520/553/521 536/570/537 537/571/538
f 522/555/523 521/554/522 537/571/538 538/572/539
f 523/556/524 522/555/523 538/572/539 539/573/540
f 524/557/525 523/556/524 539/573/540 540/574/541
f 525/559/526 524/558/525 540/575/541 541/576/542
f 526/560/527 525/559/526 541/576/542 542/577/543
f 527/561/528 526/560/527 542/577/543 543/578/544
f 528/545/513 527/561/528 543/578/544 544/562/529
f 529/563/530 544/562/529 560/579/545 545/580/546
f 530/564/531 529/563/530 545/580/546 546/581/547
f 531/565/532 530/564/531 546/581/547 547/582/548
f 532/566/533 531/565/532 547/582/548 548/583/549
f 533/567/534 532/566/533 548/583/549 549/584/550
f 534/568/535 533/567/534 549/584/550 550/585/551
f 535/569/536 534/568/535 550/585/551 551/586/552
f 536/570/537 535/569/536 551/586/552 552/587/553
f 537/571/538 536/570/537 552/587/553 553/588/554
f 538/572/539 537/571/538 553/588/554 554/589/555
f 539/573/540 538/572/539 554/589/555 555/590/556
f 540/574/541 539/573/540 555/590/556 556/591/557
f 541/576/542 540/575/541 556/592/557 557/593/558
f 542/577/543 541/576/542 557/593/558 558/594/559
f 543/578/544 542/577/543 558/594/559 559/595/560
f 544/562/529 543/578/544 559/595/560 560/579/545
f 545/580/546 560/579/545 576/596/561 561/597/562
f 546/581/547 545/580/546 561/597/562 562/598/563
f 547/582/548 546/581/547 562/598/563 563/599/564
f 548/583/549 547/582/548 563/599/564 564/600/565
f 549/584/550 548/583/549 564/600/565 565/601/566
f 550/585/551 549/584/550 565/601/566 566/602/567
f 551/586/552 550/585/551 566/602/567 567/603/568
f 552/587/553 551/586/552 567/603/568 568/604/569
f 553/588/554 552/587/553 568/604/569 569/605/570
f 554/589/555 553/588/554 569/605/570 570/606/571
f 555/590/556 554/589/555 570/606/571 571/607/572
f 556/591/557 555/590/556 571/607/572 572/608/245
f 557/593/558 556/592/557 572/609/245 573/610/573
f 558/594/559 557/593/558 573/610/573 574/611/574
f 559/595/560 558/594/559 574/611/574 575/612/575
f 560/579/545 559/595/560 575/612/575 576/596/561
f 561/597/562 576/596/561 592/613/576 577/614/577
f 562/598/563 561/597/562 577/614/577 578/615/578
f 563/599/564 562/598/563 578/615/578 579/616/579
f 564/600/565 563/599/564 579/616/579 580/617/580
f 565/601/566 564/600/565 580/617/580 581/618/581
f 566/602/567 565/601/566 581/618/581 582/619/582
f 567/603/568 566/602/567 582/619/582 583/620/583
f 568/604/569 567/603/568 583/620/583 584/621/584
f 569/605/570 568/604/569 584/621/584 585/622/585
f 570/606/571 569/605/570 585/622/585 586/623/586
f 571/607/572 570/606/571 586/623/586 587/624/587
f 572/608/245 571/607/572 587/624/587 588/625/588
f 573/610/573 572/609/245 588/626/588 589/627/589
f 574/611/574 573/610/573 589/627/589 590/628/590
f 575/612/575 574/611/574 590/628/590 591/629/591
f 576/596/561 575/612/575 591/629/591 592/613/576
f 577/614/577 592/613/576 608/630/592 593/631/593
f 578/615/578 577/614/577 593/631/593 594/632/594
f 579/616/579 578/615/578 594/632/594 595/633/595
f 580/617/580 579/616/579 595/633/595 596/634/596
f 581/618/581 580/617/580 596/634/596 597/635/597
f 582/619/582 581/618/581 597/635/597 598/636/598
f 583/620/583 582/619/582 598/636/598 599/637/599
f 584/621/584 583/620/583 599/637/599 600/638/600
f 585/622/585 584/621/584 600/638/600 601/639/601
f 586/623/586 585/622/585 601/639/601 602/640/602
f 587/624/587 586/623/586 602/640/602 603/641/603
f 588/625/588 587/624/587 603/641/603 604/642/604
f 589/627/589 588/626/588 604/643/604 605/644/605
f 590/628/590 589/627/589 605/644/605 606/645/606
f 591/629/591 590/628/590 606/645/606 607/646/607
f 592/613/576 591/629/591 607/646/607 608/630/592
f 593/631/593 608/630/592 624/647/608 609/648/609
f 594/632/594 593/631/593 609/648/609 610/649/610
f 595/633/595 594/632/594 610/649/610 611/650/611
f 596/634/596 595/633/595 611/650/611 612/651/612
f 597/635/597 596/634/596 612/651/612 613/652/613
f 598/636/598 597/635/597 613/652/613 614/653/614
f 599/637/599 598/636/598 614/653/614 615/654/615
f 600/638/600 599/637/599 615/654/615 616/655/616
f 601/639/601 600/638/600 616/655/616 617/656/617
f 602/640/602 601/639/601 617/656/617 618/657/618
f 603/641/603 602/640/602 618/657/618 619/658/619
f 604/642/604 603/641/603 619/658/619 620/659/620
f 605/644/605 604/643/604 620/660/620 621/661/621
f 606/645/606 605/644/605 621/661/621 622/662/622
f 607/646/607 606/645/606 622/662/622 623/663/623
f 608/630/592 607/646/607 623/663/623 624/647/608
f 609/648/609 624/647/608 640/664/624 625/665/625
f 610/649/610 609/648/609 625/665/625 626/666/626
f 611/650/611 610/649/610 626/666/626 627/667/627
f 612/651/612 611/650/611 627/667/627 628/668/628
f 613/652/613 612/651/612 628/668/628 629/669/629
f 614/653/614 613/652/613 629/669/629 630/670/630
f 615/654/615 614/653/614 630/670/630 631/671/631
f 616/655/616 615/654/615 631/671/631 632/672/632
f 617/656/617 616/655/616 632/672/632 633/673/633
f 618/657/618 617/656/617 633/673/633 634/674/634
f 619/658/619 618/657/618 634/674/634 635/675/635
f 620/659/620 619/658/619 635/675/635 636/676/636
f 621/661/621 620/660/620 636/677/636 637/678/637
f 622/662/622 621/661/621 637/678/637 638/679/638
f 623/663/623 622/662/622 638/679/638 639/680/639
f 624/647/608 623/663/623 639/680/639 640/664/624
f 625/665/625 640/664/624 656/681/640 641/682/641
f 626/666/626 625/665/625 641/682/641 642/683/642
f 627/667/627 626/666/626 642/683/642 643/684/643
f 628/668/628 627/667/627 643/684/643 644/685/644
f 629/669/629 628/668/628 644/685/644 645/686/645
f 630/670/630 629/669/629 645/686/645 646/687/646
f 631/671/631 630/670/630 646/687/646 647/688/647
f 632/672/632 631/671/631 647/688/647 648/689/648
f 633/673/633 632/672/632 648/689/648 649/690/649
f 634/674/634 633/673/633 649/690/649 650/691/650
f 635/675/635 634/674/634 650/691/650 651/692/651
f 636/676/636 635/675/635 651/692/651 652/693/652
f 637/678/637 636/677/636 652/694/652 653/695/653
f 638/679/638 637/678/637 653/695/653 654/696/654
f 639/680/639 638/679/638 654/696/654 655/697/655
f 640/664/624 639/680/639 655/697/655 656/681/640
f 641/682/641 656/681/640 672/698/656 657/699/657
f 642/683/642 641/682/641 657/699/657 658/700/658
f 643/684/643 642/683/642 658/700/658 659/701/659
f 644/685/644 643/684/643 659/701/659 660/702/660
f 645/686/645 644/685/644 660/702/660 661/703/661
f 646/687/646 645/686/645 661/703/661 662/704/662
f 647/688/647 646/687/646 662/704/662 663/705/663
f 648/689/648 647/688/647 663/705/663 664/706/664
f 649/690/649 648/689/648 664/706/664 665/707/665
f 650/691/650 649/690/649 665/707/665 666/708/666
f 651/692/651 650/691/650 666/708/666 667/709/667
f 652/693/652 651/692/651 667/709/667 668/710/668
f 653/695/653 652/694/652 668/711/668 669/712/669
f 654/696/654 653/695/653 669/712/669 670/713/670
f 655/697/655 654/696/654 670/713/670 671/714/671
f 656/681/640 655/697/655 671/714/671 672/698/656
f 1/715/672 16/716/673 352/717/673 337/718/672
f 2/719/674 1/715/672 337/718/672 338/720/674
f 3/721/675 2/719/674 338/720/674 339/722/675
f 4/723/676 3/721/675 339/722/675 340/724/676
f 5/725/677 4/723/676 340/724/676 341/726/677
f 6/727/678 5/725/677 341/726/677 342/728/678
f 7/729/679 6/727/678 342/728/678 343/730/679
f 8/731/680 7/729/679 343/730/679 344/732/680
f 9/733/681 8/731/680 344/732/680 345/734/681
f 10/735/682 9/733/681 345/734/681 346/736/682
f 11/737/683 10/735/682 346/736/682 347/738/683
f 12/739/684 11/737/683 347/738/683 348/740/684
f 13/741/685 12/742/684 348/743/684 349/744/685
f 14/745/686 13/741/685 349/744/685 350/746/686
f 15/747/687 14/745/686 350/746/686 351/748/687
f 16/716/673 15/747/687 351/748/687 352/717/673
f 336/749/688 321/750/689 657/751/690 672/752/688
f 321/750/689 322/753/691 658/754/691 657/751/690
f 322/753/691 323/755/692 659/756/692 658/754/691
f 323/755/692 324/757/693 660/758/693 659/756/692
f 324/757/693 325/759/694 661/760/694 660/758/693
f 325/759/694 326/761/695 662/762/695 661/760/694
f 326/761/695 327/763/696 663/764/697 662/762/695
f 327/763/696 328/765/698 664/766/698 663/764/697
f 328/765/698 329/767/699 665/768/699 664/766/698
f 329/767/699 330/769/700 666/770/700 665/768/699
f 330/769/700 331/771/701 667/772/701 666/770/700
f 331/771/701 332/773/702 668/774/702 667/772/701
f 332/775/702 333/776/703 669/777/703 668/778/702
f 333/776/703 334/779/704 670/780/704 669/777/703
f 334/779/704 335/781/705 671/782/705 670/780/704
f 335/781/705 336/749/688 672/752/688 671/782/705
