# Blender 4.0.2
# www.blender.org
o drawer_key_hole
v -0.002171 0.006675 -0.003624
v -0.002171 0.001170 -0.005477
v -0.002170 0.005611 -0.002948
v -0.002175 0.006675 -0.010197
v -0.003468 0.006675 -0.002740
v -0.008465 0.006675 -0.011651
v -0.011651 0.006675 -0.008465
v -0.013696 0.006675 -0.004450
v -0.004226 0.006675 -0.001398
v -0.003845 0.006228 -0.000869
v -0.004410 0.006675 0.000054
v -0.003984 0.006103 0.000046
v -0.003392 0.005317 0.000036
v -0.003822 0.006228 0.001126
v -0.003071 0.005858 0.002254
v -0.002162 0.005611 0.002904
v -0.003459 0.006675 0.002697
v -0.011651 0.006675 0.008465
v -0.002161 0.006675 0.003644
v -0.004221 0.006675 0.001431
v -0.013696 0.006675 0.004450
v -0.014969 0.004967 0.004864
v -0.014401 0.006675 -0.000000
v -0.015739 0.004967 -0.000000
v -0.014969 0.004967 -0.004864
v -0.012733 0.004967 -0.009251
v -0.009251 0.004967 -0.012733
v -0.004864 0.004967 -0.014969
v -0.004450 0.006675 -0.013696
v 0.000000 0.004967 -0.015739
v 0.004864 0.004967 -0.014969
v 0.000000 0.006675 -0.014401
v 0.004450 0.006675 -0.013696
v 0.002171 0.006675 -0.010197
v 0.008465 0.006675 -0.011651
v 0.009251 0.004967 -0.012733
v 0.011651 0.006675 -0.008465
v 0.003464 0.006675 -0.002740
v 0.012733 0.004967 -0.009251
v 0.013696 0.006675 -0.004450
v 0.014969 0.004967 -0.004864
v 0.014401 0.006675 -0.000000
v 0.004406 0.006675 0.000054
v 0.015739 0.004967 0.000000
v 0.013696 0.006675 0.004450
v 0.014969 0.004967 0.004864
v 0.011651 0.006675 0.008465
v 0.003454 0.006675 0.002697
v 0.012733 0.004967 0.009251
v 0.008465 0.006675 0.011651
v 0.002156 0.006675 0.003644
v 0.009251 0.004967 0.012733
v 0.004450 0.006675 0.013696
v 0.004864 0.004967 0.014969
v -0.000000 0.006675 0.014401
v -0.000000 0.004967 0.015739
v -0.004450 0.006675 0.013696
v -0.002162 0.006675 0.009559
v -0.004864 0.004967 0.014969
v -0.008465 0.006675 0.011651
v -0.009251 0.004967 0.012733
v -0.012733 0.004967 0.009251
v -0.002162 0.001170 0.009559
v -0.000002 0.006675 0.009547
v 0.002158 0.006675 0.009559
v -0.000002 0.001170 0.009547
v -0.000002 0.001170 0.005498
v 0.002158 0.001170 0.009559
v 0.002156 0.001170 0.005498
v 0.002158 0.001149 0.002904
v 0.002158 0.005611 0.002904
v 0.004217 0.006675 0.001431
v 0.003067 0.005858 0.002254
v 0.003387 0.005317 0.000036
v 0.003818 0.006228 0.001126
v 0.003979 0.006103 0.000046
v 0.003841 0.006228 -0.000869
v 0.004222 0.006675 -0.001398
v 0.003055 0.005840 -0.002273
v 0.002167 0.006675 -0.003624
v 0.002167 0.001170 -0.005477
v 0.002166 0.005611 -0.002948
v 0.002166 0.001149 -0.002948
v 0.002162 0.004847 0.000010
v 0.002162 0.001129 0.000010
v 0.000000 0.001129 0.000010
v -0.000001 0.001149 -0.002948
v -0.000001 0.001149 0.002904
v -0.002166 0.001129 0.000010
v -0.002170 0.001149 -0.002948
v -0.002162 0.001149 0.002904
v -0.002166 0.004847 0.000010
v -0.002161 0.001170 0.005498
v -0.000002 0.001170 -0.005477
v -0.000002 0.001170 -0.010191
v 0.002171 0.001170 -0.010197
v -0.002175 0.001170 -0.010197
v -0.000002 0.006675 -0.010191
v -0.003059 0.005840 -0.002273
v -0.002266 0.006390 -0.010553
v -0.002266 0.000889 -0.005494
v 0.002252 0.005768 -0.007290
v 0.002252 0.000889 -0.005494
v 0.002252 0.006390 -0.010553
v -0.002266 0.005768 -0.007290
v -0.002266 0.006390 0.009885
v -0.002266 0.005768 0.006622
v 0.002252 0.006390 0.009885
v 0.002252 0.005768 0.006622
v 0.002252 0.000889 0.004826
v -0.002266 0.000889 0.004826
v 0.000000 0.004967 -0.015739
v 0.004864 0.004967 -0.014969
v -0.004864 0.004967 -0.014969
v 0.000000 0.004967 -0.015933
v 0.004923 0.004967 -0.015153
v -0.004923 0.004967 -0.015153
v 0.000000 0.007468 -0.017215
v 0.005320 0.007468 -0.016372
v -0.005320 0.007468 -0.016372
v 0.000000 0.004029 -0.023489
v 0.000000 0.001192 -0.025003
v -0.007259 0.004029 -0.022339
v 0.007259 0.004029 -0.022339
v 0.007726 0.001192 -0.023779
v 0.013807 0.004029 -0.019003
v 0.014696 0.001192 -0.020228
v 0.010119 0.007468 -0.013927
v 0.019003 0.004029 -0.013807
v 0.020228 0.001192 -0.014696
v 0.013927 0.007468 -0.010119
v 0.022339 0.004029 -0.007259
v 0.023779 0.001192 -0.007726
v 0.016372 0.007468 -0.005320
v 0.023489 0.004029 0.000000
v 0.025003 0.001192 0.000000
v 0.017215 0.007468 0.000000
v 0.022339 0.004029 0.007259
v 0.016372 0.007468 0.005320
v 0.023779 0.001192 0.007726
v 0.019003 0.004029 0.013807
v 0.020228 0.001192 0.014696
v 0.013927 0.007468 0.010119
v 0.013807 0.004029 0.019003
v 0.014696 0.001192 0.020228
v 0.010119 0.007468 0.013927
v 0.007259 0.004029 0.022339
v 0.007726 0.001192 0.023779
v 0.005320 0.007468 0.016372
v -0.000000 0.004029 0.023489
v -0.000000 0.001192 0.025003
v -0.000000 0.007468 0.017215
v -0.007259 0.004029 0.022339
v -0.007726 0.001192 0.023779
v -0.005320 0.007468 0.016372
v -0.013807 0.004029 0.019003
v -0.014696 0.001192 0.020228
v -0.010119 0.007468 0.013927
v -0.019003 0.004029 0.013807
v -0.013927 0.007468 0.010119
v -0.020228 0.001192 0.014696
v -0.022339 0.004029 0.007259
v -0.023779 0.001192 0.007726
v -0.016372 0.007468 0.005320
v -0.023489 0.004029 -0.000000
v -0.025003 0.001192 -0.000000
v -0.017215 0.007468 0.000000
v -0.022339 0.004029 -0.007259
v -0.023779 0.001192 -0.007726
v -0.016372 0.007468 -0.005320
v -0.019003 0.004029 -0.013807
v -0.020228 0.001192 -0.014696
v -0.013927 0.007468 -0.010119
v -0.013807 0.004029 -0.019003
v -0.014696 0.001192 -0.020228
v -0.010119 0.007468 -0.013927
v -0.009365 0.004967 -0.012890
v -0.012890 0.004967 -0.009365
v -0.009251 0.004967 -0.012733
v -0.012733 0.004967 -0.009251
v -0.014969 0.004967 -0.004864
v -0.015739 0.004967 -0.000000
v -0.015153 0.004967 -0.004923
v -0.015933 0.004967 -0.000000
v -0.015153 0.004967 0.004923
v -0.012890 0.004967 0.009365
v -0.014969 0.004967 0.004864
v -0.012733 0.004967 0.009251
v -0.009251 0.004967 0.012733
v -0.004864 0.004967 0.014969
v -0.009365 0.004967 0.012890
v -0.004923 0.004967 0.015153
v -0.000000 0.004967 0.015933
v 0.004923 0.004967 0.015153
v -0.000000 0.004967 0.015739
v 0.004864 0.004967 0.014969
v 0.009251 0.004967 0.012733
v 0.012733 0.004967 0.009251
v 0.009365 0.004967 0.012890
v 0.012890 0.004967 0.009365
v 0.015153 0.004967 0.004923
v 0.015933 0.004967 0.000000
v 0.014969 0.004967 0.004864
v 0.015739 0.004967 0.000000
v 0.014969 0.004967 -0.004864
v 0.012733 0.004967 -0.009251
v 0.015153 0.004967 -0.004923
v 0.012890 0.004967 -0.009365
v 0.009365 0.004967 -0.012890
v 0.009251 0.004967 -0.012733
v -0.007726 0.001192 -0.023779
v -0.014696 -0.000000 -0.020228
v -0.020228 -0.000000 -0.014696
v -0.007726 -0.000000 -0.023779
v 0.000000 -0.000000 -0.025003
v 0.007726 -0.000000 -0.023779
v 0.014696 -0.000000 -0.020228
v 0.020228 -0.000000 -0.014696
v 0.023779 -0.000000 -0.007726
v 0.025003 -0.000000 0.000000
v 0.023779 -0.000000 0.007726
v 0.020228 -0.000000 0.014696
v 0.014696 -0.000000 0.020228
v 0.007726 0.000000 0.023779
v -0.000000 -0.000000 0.025003
v -0.007726 0.000000 0.023779
v -0.014696 -0.000000 0.020228
v -0.020228 -0.000000 0.014696
v -0.023779 -0.000000 0.007726
v -0.025003 -0.000000 -0.000000
v -0.023779 -0.000000 -0.007726
vn 1.0000 0.0001 -0.0006
vn 1.0000 0.0001 -0.0009
vn 1.0000 0.0001 -0.0010
vn 0.5600 0.7290 0.3937
vn 0.4944 0.6869 0.5327
vn 0.5320 0.5180 0.6698
vn 0.6234 0.5983 0.5033
vn -0.0000 1.0000 -0.0000
vn 0.7525 0.6586 -0.0028
vn 0.7613 0.6484 -0.0016
vn 0.7399 0.6383 0.2121
vn 0.7111 0.6589 0.2454
vn 0.7209 0.6432 -0.2582
vn 0.7324 0.6394 -0.2340
vn 0.5927 0.8054 -0.0037
vn 0.5596 0.7224 -0.4063
vn 0.6228 0.5874 -0.5168
vn 0.3865 0.9223 -0.0018
vn 0.4940 0.6924 -0.5259
vn 0.5365 0.5254 -0.6604
vn -0.6369 0.6167 0.4627
vn -0.7487 0.6167 0.2433
vn -0.7872 0.6167 -0.0000
vn -0.7487 0.6167 -0.2433
vn -0.6369 0.6167 -0.4627
vn -0.4627 0.6167 -0.6369
vn -0.2433 0.6167 -0.7487
vn -0.0000 0.6167 -0.7872
vn 0.2433 0.6167 -0.7487
vn 0.4627 0.6167 -0.6369
vn 0.6369 0.6167 -0.4627
vn 0.7487 0.6167 -0.2433
vn 0.7872 0.6167 -0.0000
vn 0.7487 0.6167 0.2433
vn 0.6369 0.6167 0.4627
vn 0.4627 0.6167 0.6369
vn 0.2433 0.6167 0.7487
vn -0.0000 0.6167 0.7872
vn -0.2433 0.6167 0.7487
vn -0.4627 0.6167 0.6369
vn 1.0000 -0.0000 -0.0001
vn 1.0000 0.0001 0.0003
vn -0.0000 -0.0000 -1.0000
vn -0.0052 -0.0000 -1.0000
vn 0.0052 -0.0000 -1.0000
vn -0.0000 1.0000 -0.0040
vn -1.0000 0.0001 0.0003
vn -1.0000 -0.0000 -0.0001
vn -0.0000 1.0000 -0.0075
vn -1.0000 -0.0001 -0.0009
vn -1.0000 -0.0001 -0.0011
vn -0.4940 0.6924 -0.5259
vn -0.5365 0.5254 -0.6604
vn -0.6228 0.5874 -0.5167
vn -0.5595 0.7224 -0.4063
vn -0.7209 0.6432 -0.2581
vn -0.7324 0.6394 -0.2340
vn -0.5927 0.8054 -0.0037
vn -0.7613 0.6484 -0.0016
vn -0.3865 0.9223 -0.0018
vn -0.7525 0.6586 -0.0028
vn -0.7399 0.6383 0.2121
vn -0.5600 0.7290 0.3937
vn -0.7111 0.6589 0.2454
vn -0.6234 0.5983 0.5033
vn -0.5320 0.5180 0.6698
vn -0.4944 0.6869 0.5327
vn -1.0000 0.0001 -0.0006
vn -1.0000 0.0001 -0.0010
vn -1.0000 0.0001 -0.0009
vn -1.0000 -0.0000 -0.0014
vn -0.0000 1.0000 0.0076
vn -0.0000 1.0000 -0.0001
vn 1.0000 -0.0000 -0.0014
vn 1.0000 -0.0001 -0.0009
vn 1.0000 -0.0001 -0.0011
vn -0.0000 1.0000 0.0041
vn 0.0026 -0.0000 1.0000
vn -0.0000 -0.0000 1.0000
vn -0.0026 -0.0000 1.0000
vn -0.0000 0.9823 0.1873
vn -0.0000 0.3454 0.9385
vn -0.0000 0.9823 -0.1873
vn -0.0000 0.3454 -0.9385
vn -0.0000 0.4562 0.8899
vn -0.2750 0.4562 0.8463
vn 0.2750 0.4562 0.8463
vn -0.0000 0.8769 -0.4807
vn 0.1485 0.8769 -0.4571
vn 0.2239 0.6891 -0.6892
vn -0.0000 0.6891 -0.7247
vn -0.1485 0.8769 -0.4571
vn -0.2239 0.6891 -0.6892
vn -0.0000 0.2371 -0.9715
vn -0.3002 0.2371 -0.9239
vn 0.3002 0.2371 -0.9239
vn 0.4259 0.6891 -0.5863
vn 0.5710 0.2371 -0.7860
vn 0.2825 0.8769 -0.3889
vn 0.5863 0.6891 -0.4259
vn 0.7860 0.2371 -0.5710
vn 0.3889 0.8769 -0.2825
vn 0.6892 0.6891 -0.2239
vn 0.9239 0.2371 -0.3002
vn 0.4571 0.8769 -0.1485
vn 0.7247 0.6891 -0.0000
vn 0.9715 0.2371 -0.0000
vn 0.4807 0.8769 -0.0000
vn 0.6892 0.6891 0.2239
vn 0.9239 0.2371 0.3002
vn 0.4571 0.8769 0.1485
vn 0.3889 0.8769 0.2825
vn 0.5863 0.6891 0.4259
vn 0.7860 0.2371 0.5710
vn 0.4259 0.6891 0.5863
vn 0.5710 0.2371 0.7860
vn 0.2825 0.8769 0.3889
vn 0.2239 0.6891 0.6892
vn 0.3002 0.2371 0.9239
vn 0.1485 0.8769 0.4571
vn -0.0000 0.6891 0.7247
vn -0.0000 0.2371 0.9715
vn -0.0000 0.8769 0.4807
vn -0.2239 0.6891 0.6892
vn -0.3002 0.2371 0.9239
vn -0.1485 0.8769 0.4571
vn -0.4259 0.6891 0.5863
vn -0.5710 0.2371 0.7860
vn -0.2825 0.8769 0.3889
vn -0.5863 0.6891 0.4259
vn -0.7860 0.2371 0.5710
vn -0.3889 0.8769 0.2825
vn -0.4571 0.8769 0.1485
vn -0.6892 0.6891 0.2239
vn -0.9239 0.2371 0.3002
vn -0.7247 0.6891 -0.0000
vn -0.9715 0.2371 -0.0000
vn -0.4807 0.8769 -0.0000
vn -0.6892 0.6891 -0.2239
vn -0.9239 0.2371 -0.3002
vn -0.4571 0.8769 -0.1485
vn -0.5863 0.6891 -0.4259
vn -0.7860 0.2371 -0.5710
vn -0.3889 0.8769 -0.2825
vn -0.4259 0.6891 -0.5863
vn -0.5710 0.2371 -0.7860
vn -0.2825 0.8769 -0.3889
vn 0.7199 0.4562 0.5231
vn 0.5231 0.4562 0.7199
vn 0.8899 0.4562 -0.0000
vn 0.8463 0.4562 0.2750
vn 0.8463 0.4562 -0.2750
vn 0.7199 0.4562 -0.5231
vn 0.2750 0.4562 -0.8463
vn 0.5231 0.4562 -0.7199
vn -0.0000 0.4562 -0.8899
vn -0.2750 0.4562 -0.8463
vn -0.7199 0.4562 -0.5231
vn -0.5231 0.4562 -0.7199
vn -0.8463 0.4562 -0.2750
vn -0.8899 0.4562 -0.0000
vn -0.7199 0.4562 0.5231
vn -0.8463 0.4562 0.2750
vn -0.5231 0.4562 0.7199
vn -0.5878 -0.0000 -0.8090
vn -0.8090 -0.0000 -0.5878
vn -0.3090 -0.0000 -0.9511
vn 0.3090 -0.0000 -0.9511
vn 0.5878 -0.0000 -0.8090
vn 0.8090 -0.0000 -0.5878
vn 0.9511 -0.0000 -0.3090
vn 1.0000 -0.0000 -0.0000
vn 0.9511 -0.0000 0.3090
vn 0.8090 -0.0000 0.5878
vn 0.5878 -0.0000 0.8090
vn 0.3090 -0.0000 0.9511
vn -0.3090 -0.0000 0.9511
vn -0.5878 -0.0000 0.8090
vn -0.8090 -0.0000 0.5878
vn -0.9511 -0.0000 0.3090
vn -1.0000 -0.0000 -0.0000
vn -0.9511 -0.0000 -0.3090
vt 0.470448 0.319845
vt 0.530896 0.333548
vt 0.530895 0.368919
vt 0.470522 0.368980
vt 0.482092 0.314761
vt 0.530959 0.314626
vt 0.414852 0.271468
vt 0.420923 0.265065
vt 0.430475 0.274767
vt 0.420259 0.280882
vt 0.255479 0.383058
vt 0.229199 0.410435
vt 0.181057 0.342045
vt 0.188504 0.330893
vt 0.272201 0.349423
vt 0.243336 0.330744
vt 0.195606 0.428283
vt 0.169696 0.348586
vt 0.157878 0.434154
vt 0.157402 0.350157
vt 0.396653 0.285866
vt 0.396653 0.278448
vt 0.404021 0.279067
vt 0.408558 0.284867
vt 0.385381 0.285069
vt 0.387982 0.279088
vt 0.396653 0.269142
vt 0.379144 0.272056
vt 0.374197 0.281394
vt 0.396653 0.258793
vt 0.373072 0.265598
vt 0.363455 0.275545
vt 0.086554 0.410472
vt 0.060269 0.383101
vt 0.127013 0.330835
vt 0.135017 0.341980
vt 0.120152 0.428307
vt 0.145737 0.348546
vt 0.071148 0.432361
vt 0.111753 0.454621
vt 0.157886 0.462787
vt 0.204015 0.454593
vt 0.244610 0.432319
vt 0.276181 0.398612
vt 0.295930 0.357153
vt 0.277907 0.312406
vt 0.302177 0.312407
vt 0.272199 0.275386
vt 0.295934 0.267654
vt 0.243246 0.312427
vt 0.243334 0.294112
vt 0.255469 0.241742
vt 0.188521 0.293982
vt 0.276177 0.226179
vt 0.229175 0.214357
vt 0.181054 0.282839
vt 0.244587 0.192462
vt 0.195567 0.196515
vt 0.169674 0.276296
vt 0.203970 0.170192
vt 0.157828 0.190662
vt 0.157368 0.274703
vt 0.157821 0.162019
vt 0.120091 0.196536
vt 0.145706 0.276310
vt 0.111675 0.170221
vt 0.086498 0.214398
vt 0.134998 0.282880
vt 0.071077 0.192519
vt 0.060230 0.241787
vt 0.127014 0.294040
vt 0.039519 0.226251
vt 0.043536 0.275451
vt 0.077587 0.294221
vt 0.019804 0.267725
vt 0.037817 0.312453
vt 0.077731 0.312453
vt 0.013561 0.312453
vt 0.043554 0.349447
vt 0.077595 0.330686
vt 0.019824 0.357187
vt 0.039566 0.398653
vt 0.530932 0.251673
vt 0.470470 0.265362
vt 0.470547 0.221176
vt 0.530906 0.221239
vt 0.545824 0.221266
vt 0.530873 0.160806
vt 0.545785 0.160798
vt 0.560746 0.221209
vt 0.560674 0.160785
vt 0.545851 0.251644
vt 0.560774 0.251643
vt 0.621137 0.221061
vt 0.621273 0.265274
vt 0.560727 0.271067
vt 0.545872 0.271054
vt 0.609633 0.270858
vt 0.419480 0.227512
vt 0.429098 0.237458
vt 0.418355 0.243308
vt 0.413408 0.233970
vt 0.407171 0.246983
vt 0.404571 0.241002
vt 0.395900 0.231056
vt 0.395900 0.240362
vt 0.395900 0.220707
vt 0.395900 0.247780
vt 0.388531 0.240981
vt 0.377700 0.233382
vt 0.383994 0.246781
vt 0.372293 0.242795
vt 0.362077 0.236681
vt 0.371629 0.226979
vt 0.560895 0.368918
vt 0.560888 0.333549
vt 0.621348 0.319788
vt 0.621301 0.368953
vt 0.560807 0.314611
vt 0.609695 0.314712
vt 0.560684 0.292611
vt 0.601324 0.292550
vt 0.545893 0.314642
vt 0.545890 0.292600
vt 0.531063 0.292625
vt 0.530997 0.271081
vt 0.490440 0.292604
vt 0.482111 0.270932
vt 0.545890 0.333563
vt 0.545895 0.368895
vt 0.560878 0.429325
vt 0.545895 0.429323
vt 0.530912 0.429325
vt 0.409945 0.206877
vt 0.383066 0.206877
vt 0.383066 0.173832
vt 0.409945 0.173832
vt 0.324567 0.206877
vt 0.324567 0.173832
vt 0.505050 0.173832
vt 0.505050 0.206877
vt 0.478172 0.206877
vt 0.478172 0.173832
vt 0.419673 0.206877
vt 0.419673 0.173832
vt 0.573707 0.150156
vt 0.614187 0.150156
vt 0.614187 0.151801
vt 0.573707 0.151801
vt 0.533227 0.150156
vt 0.533227 0.151801
vt 0.499752 0.142444
vt 0.452164 0.142444
vt 0.452164 0.112581
vt 0.499752 0.112581
vt 0.547339 0.142444
vt 0.547339 0.112581
vt 0.452164 0.051843
vt 0.499752 0.051843
vt 0.547339 0.051843
vt 0.499752 0.017824
vt 0.547339 0.017824
vt 0.452164 0.017824
vt 0.403823 0.051843
vt 0.403823 0.017824
vt 0.403823 0.112581
vt 0.354289 0.051843
vt 0.354289 0.017824
vt 0.354289 0.112581
vt 0.303590 0.051843
vt 0.303590 0.017824
vt 0.303590 0.112581
vt 0.252183 0.051843
vt 0.252184 0.017824
vt 0.252183 0.112581
vt 0.200777 0.051843
vt 0.200777 0.017824
vt 0.200777 0.112581
vt 0.150077 0.112581
vt 0.150077 0.051843
vt 0.150077 0.017824
vt 0.100543 0.051843
vt 0.100543 0.017824
vt 0.100543 0.112581
vt 0.052203 0.051843
vt 0.052203 0.017824
vt 0.052203 0.112581
vt 0.004615 0.051843
vt 0.004615 0.017824
vt 0.004615 0.112581
vt 0.994888 0.051843
vt 0.947300 0.051843
vt 0.947300 0.017824
vt 0.994888 0.017824
vt 0.994888 0.112581
vt 0.947300 0.112581
vt 0.898959 0.051843
vt 0.898960 0.017824
vt 0.898960 0.112581
vt 0.849425 0.051843
vt 0.849425 0.017824
vt 0.849425 0.112581
vt 0.798726 0.112581
vt 0.798726 0.051843
vt 0.798726 0.017824
vt 0.747320 0.051843
vt 0.747320 0.017824
vt 0.747320 0.112581
vt 0.695913 0.051843
vt 0.695913 0.017824
vt 0.695913 0.112581
vt 0.645214 0.051843
vt 0.645214 0.017824
vt 0.645214 0.112581
vt 0.595680 0.051843
vt 0.595680 0.017824
vt 0.595680 0.112581
vt 0.645214 0.142444
vt 0.595680 0.142444
vt 0.449972 0.150156
vt 0.492107 0.150156
vt 0.492107 0.151801
vt 0.449972 0.151801
vt 0.406845 0.150156
vt 0.406845 0.151801
vt 0.363117 0.150156
vt 0.363117 0.151801
vt 0.747320 0.142444
vt 0.695913 0.142444
vt 0.798726 0.142444
vt 0.319389 0.150156
vt 0.319389 0.151801
vt 0.849425 0.142444
vt 0.276262 0.150156
vt 0.276262 0.151801
vt 0.234127 0.150156
vt 0.234127 0.151801
vt 0.193006 0.150156
vt 0.193006 0.151801
vt 0.947300 0.142444
vt 0.898960 0.142444
vt 0.994888 0.142444
vt 0.152527 0.150156
vt 0.152527 0.151801
vt 0.052203 0.142444
vt 0.004615 0.142444
vt 0.954408 0.150156
vt 0.994888 0.150156
vt 0.994888 0.151801
vt 0.954408 0.151801
vt 0.913288 0.150156
vt 0.913288 0.151801
vt 0.871152 0.150156
vt 0.871152 0.151801
vt 0.150077 0.142444
vt 0.100543 0.142444
vt 0.200777 0.142444
vt 0.828026 0.150156
vt 0.828026 0.151801
vt 0.252183 0.142444
vt 0.784297 0.150156
vt 0.784297 0.151801
vt 0.740569 0.150156
vt 0.740569 0.151801
vt 0.697442 0.150156
vt 0.697442 0.151801
vt 0.354289 0.142444
vt 0.303590 0.142444
vt 0.403823 0.142444
vt 0.655307 0.150156
vt 0.655307 0.151801
vt 0.595680 0.004337
vt 0.645214 0.004337
vt 0.547339 0.004337
vt 0.499752 0.004337
vt 0.452164 0.004337
vt 0.403823 0.004337
vt 0.354289 0.004337
vt 0.303590 0.004337
vt 0.252183 0.004337
vt 0.200777 0.004337
vt 0.150077 0.004337
vt 0.100543 0.004337
vt 0.052203 0.004337
vt 0.004615 0.004337
vt 0.947300 0.004337
vt 0.994888 0.004337
vt 0.898959 0.004337
vt 0.849425 0.004337
vt 0.798726 0.004337
vt 0.747320 0.004337
vt 0.695913 0.004337
s 1
f 1/1/1 2/2/1 97/3/1 4/4/1
f 2/2/1 1/1/1 3/5/2 90/6/3
f 99/7/4 3/8/5 1/9/6 5/10/7
f 6/11/8 7/12/8 5/13/8 1/14/8
f 29/15/8 6/11/8 1/14/8 4/16/8
f 7/12/8 8/17/8 9/18/8 5/13/8
f 8/17/8 23/19/8 11/20/8 9/18/8
f 11/21/9 12/22/10 10/23/11 9/24/12
f 9/24/12 10/23/11 99/7/4 5/10/7
f 11/21/9 20/25/13 14/26/14 12/22/10
f 13/27/15 12/22/10 14/26/14 15/28/16
f 12/22/10 13/27/15 99/7/4 10/23/11
f 14/26/14 20/25/13 17/29/17 15/28/16
f 92/30/18 13/27/15 15/28/16 16/31/19
f 15/28/16 17/29/17 19/32/20 16/31/19
f 18/33/8 60/34/8 19/35/8 17/36/8
f 21/37/8 18/33/8 17/36/8 20/38/8
f 23/19/8 21/37/8 20/38/8 11/20/8
f 62/39/21 18/33/21 21/37/22 22/40/22
f 22/40/22 21/37/22 23/19/23 24/41/23
f 24/41/23 23/19/23 8/17/24 25/42/24
f 25/42/24 8/17/24 7/12/25 26/43/25
f 26/43/25 7/12/25 6/11/26 27/44/26
f 27/44/26 6/11/26 29/15/27 28/45/27
f 28/45/27 29/15/27 32/46/28 30/47/28
f 30/47/28 32/46/28 33/48/29 31/49/29
f 32/46/8 29/15/8 4/16/8 98/50/8
f 33/48/8 32/46/8 98/50/8 34/51/8
f 35/52/8 33/48/8 34/51/8 80/53/8
f 31/49/29 33/48/29 35/52/30 36/54/30
f 37/55/8 35/52/8 80/53/8 38/56/8
f 36/54/30 35/52/30 37/55/31 39/57/31
f 40/58/8 37/55/8 38/56/8 78/59/8
f 39/57/31 37/55/31 40/58/32 41/60/32
f 42/61/8 40/58/8 78/59/8 43/62/8
f 41/60/32 40/58/32 42/61/33 44/63/33
f 45/64/8 42/61/8 43/62/8 72/65/8
f 44/63/33 42/61/33 45/64/34 46/66/34
f 47/67/8 45/64/8 72/65/8 48/68/8
f 46/66/34 45/64/34 47/67/35 49/69/35
f 50/70/8 47/67/8 48/68/8 51/71/8
f 49/69/35 47/67/35 50/70/36 52/72/36
f 53/73/8 50/70/8 51/71/8 65/74/8
f 52/72/36 50/70/36 53/73/37 54/75/37
f 55/76/8 53/73/8 65/74/8 64/77/8
f 54/75/37 53/73/37 55/76/38 56/78/38
f 57/79/8 55/76/8 64/77/8 58/80/8
f 56/78/38 55/76/38 57/79/39 59/81/39
f 60/34/8 57/79/8 58/80/8 19/35/8
f 59/81/39 57/79/39 60/34/40 61/82/40
f 61/82/40 60/34/40 18/33/21 62/39/21
f 93/83/41 19/84/41 58/85/42 63/86/42
f 66/87/43 63/86/44 58/88/44 64/89/43
f 68/90/45 66/87/43 64/89/43 65/91/45
f 93/83/46 63/86/8 66/87/8 67/92/46
f 68/90/8 69/93/46 67/92/46 66/87/8
f 65/94/47 51/95/48 69/93/48 68/90/47
f 67/92/46 69/93/46 70/96/49 88/97/49
f 71/98/50 70/96/51 69/93/48 51/95/48
f 71/99/52 51/100/53 48/101/54 73/102/55
f 73/102/55 48/101/54 72/103/56 75/104/57
f 74/105/58 73/102/55 75/104/57 76/106/59
f 84/107/60 71/99/52 73/102/55 74/105/58
f 75/104/57 72/103/56 43/108/61 76/106/59
f 76/106/59 77/109/62 79/110/63 74/105/58
f 77/109/62 76/106/59 43/108/61 78/111/64
f 38/112/65 79/110/63 77/109/62 78/111/64
f 79/110/63 38/112/65 80/113/66 82/114/67
f 96/115/68 81/116/68 80/117/68 34/118/68
f 83/119/69 82/120/70 80/117/68 81/116/68
f 82/120/70 83/119/69 85/121/71 84/122/71
f 74/105/58 79/110/63 82/114/67 84/107/60
f 84/122/71 85/121/71 70/96/51 71/98/50
f 83/119/72 87/123/72 86/124/73 85/121/73
f 88/97/49 70/96/49 85/121/73 86/124/73
f 87/123/72 90/6/72 89/125/73 86/124/73
f 86/124/73 89/125/73 91/126/49 88/97/49
f 90/6/3 3/5/2 92/127/74 89/125/74
f 16/128/75 91/126/76 89/125/74 92/127/74
f 13/27/15 92/30/18 3/8/5 99/7/4
f 88/97/49 91/126/49 93/83/46 67/92/46
f 91/126/76 16/128/75 19/84/41 93/83/41
f 90/6/72 87/123/72 94/129/77 2/2/77
f 94/129/77 87/123/72 83/119/72 81/116/77
f 94/129/77 95/130/8 97/3/8 2/2/77
f 94/129/77 81/116/77 96/115/8 95/130/8
f 96/115/78 34/131/78 98/132/79 95/130/79
f 98/132/79 4/133/80 97/3/80 95/130/79
f 100/134/81 105/135/81 102/136/81 104/137/81
f 101/138/82 103/139/82 102/136/82 105/135/82
f 106/140/83 108/141/83 109/142/83 107/143/83
f 107/143/84 109/142/84 110/144/84 111/145/84
f 112/146/8 113/147/8 116/148/8 115/149/8
f 114/150/8 112/146/8 115/149/8 117/151/8
f 115/152/85 116/153/86 119/154/86 118/155/85
f 117/156/87 115/152/85 118/155/85 120/157/87
f 118/155/88 119/154/89 124/158/90 121/159/91
f 120/157/92 118/155/88 121/159/91 123/160/93
f 123/160/93 121/159/91 122/161/94 211/162/95
f 121/159/91 124/158/90 125/163/96 122/161/94
f 124/158/90 126/164/97 127/165/98 125/163/96
f 119/154/89 128/166/99 126/164/97 124/158/90
f 126/164/97 129/167/100 130/168/101 127/165/98
f 128/166/99 131/169/102 129/167/100 126/164/97
f 129/167/100 132/170/103 133/171/104 130/168/101
f 131/169/102 134/172/105 132/170/103 129/167/100
f 132/170/103 135/173/106 136/174/107 133/171/104
f 134/172/105 137/175/108 135/173/106 132/170/103
f 135/173/106 138/176/109 140/177/110 136/174/107
f 137/175/108 139/178/111 138/176/109 135/173/106
f 139/178/111 143/179/112 141/180/113 138/176/109
f 138/176/109 141/180/113 142/181/114 140/177/110
f 141/180/113 144/182/115 145/183/116 142/181/114
f 143/179/112 146/184/117 144/182/115 141/180/113
f 144/182/115 147/185/118 148/186/119 145/183/116
f 146/184/117 149/187/120 147/185/118 144/182/115
f 147/185/118 150/188/121 151/189/122 148/186/119
f 149/187/120 152/190/123 150/188/121 147/185/118
f 150/191/121 153/192/124 154/193/125 151/194/122
f 152/195/123 155/196/126 153/192/124 150/191/121
f 153/192/124 156/197/127 157/198/128 154/193/125
f 155/196/126 158/199/129 156/197/127 153/192/124
f 156/197/127 159/200/130 161/201/131 157/198/128
f 158/199/129 160/202/132 159/200/130 156/197/127
f 160/202/132 164/203/133 162/204/134 159/200/130
f 159/200/130 162/204/134 163/205/135 161/201/131
f 162/204/134 165/206/136 166/207/137 163/205/135
f 164/203/133 167/208/138 165/206/136 162/204/134
f 165/206/136 168/209/139 169/210/140 166/207/137
f 167/208/138 170/211/141 168/209/139 165/206/136
f 168/209/139 171/212/142 172/213/143 169/210/140
f 170/211/141 173/214/144 171/212/142 168/209/139
f 171/212/142 174/215/145 175/216/146 172/213/143
f 173/214/144 176/217/147 174/215/145 171/212/142
f 174/215/145 123/160/93 211/162/95 175/216/146
f 176/217/147 120/157/92 123/160/93 174/215/145
f 178/218/148 177/219/149 176/217/149 173/214/148
f 177/219/149 117/156/87 120/157/87 176/217/149
f 180/220/8 179/221/8 177/222/8 178/223/8
f 179/221/8 114/150/8 117/151/8 177/222/8
f 181/224/8 180/220/8 178/223/8 183/225/8
f 182/226/8 181/224/8 183/225/8 184/227/8
f 184/228/150 183/229/151 170/211/151 167/208/150
f 183/229/151 178/218/148 173/214/148 170/211/151
f 185/230/152 184/228/150 167/208/150 164/203/152
f 187/231/8 182/226/8 184/227/8 185/232/8
f 186/233/153 185/230/152 164/203/152 160/202/153
f 188/234/8 187/231/8 185/232/8 186/235/8
f 189/236/8 188/234/8 186/235/8 191/237/8
f 190/238/8 189/236/8 191/237/8 192/239/8
f 192/240/154 191/241/155 158/199/155 155/196/154
f 191/241/155 186/233/153 160/202/153 158/199/155
f 193/242/156 192/240/154 155/196/154 152/195/156
f 195/243/8 190/238/8 192/239/8 193/244/8
f 194/245/157 193/246/156 152/190/156 149/187/157
f 196/247/8 195/248/8 193/249/8 194/250/8
f 197/251/8 196/247/8 194/250/8 199/252/8
f 198/253/8 197/251/8 199/252/8 200/254/8
f 200/255/158 199/256/159 146/184/159 143/179/158
f 199/256/159 194/245/157 149/187/157 146/184/159
f 201/257/160 200/255/158 143/179/158 139/178/160
f 203/258/8 198/253/8 200/254/8 201/259/8
f 202/260/161 201/257/160 139/178/160 137/175/161
f 204/261/8 203/258/8 201/259/8 202/262/8
f 205/263/8 204/261/8 202/262/8 207/264/8
f 206/265/8 205/263/8 207/264/8 208/266/8
f 208/267/162 207/268/163 134/172/163 131/169/162
f 207/268/163 202/260/161 137/175/161 134/172/163
f 209/269/164 208/267/162 131/169/162 128/166/164
f 210/270/8 206/265/8 208/266/8 209/271/8
f 116/153/86 209/269/164 128/166/164 119/154/86
f 113/147/8 210/270/8 209/271/8 116/148/8
f 172/213/143 175/216/146 212/272/165 213/273/166
f 175/216/146 211/162/95 214/274/167 212/272/165
f 211/162/95 122/161/94 215/275/43 214/274/167
f 122/161/94 125/163/96 216/276/168 215/275/43
f 125/163/96 127/165/98 217/277/169 216/276/168
f 127/165/98 130/168/101 218/278/170 217/277/169
f 130/168/101 133/171/104 219/279/171 218/278/170
f 133/171/104 136/174/107 220/280/172 219/279/171
f 136/174/107 140/177/110 221/281/173 220/280/172
f 140/177/110 142/181/114 222/282/174 221/281/173
f 142/181/114 145/183/116 223/283/175 222/282/174
f 145/183/116 148/186/119 224/284/176 223/283/175
f 148/186/119 151/189/122 225/285/79 224/284/176
f 151/194/122 154/193/125 226/286/177 225/287/79
f 154/193/125 157/198/128 227/288/178 226/286/177
f 157/198/128 161/201/131 228/289/179 227/288/178
f 161/201/131 163/205/135 229/290/180 228/289/179
f 163/205/135 166/207/137 230/291/181 229/290/180
f 166/207/137 169/210/140 231/292/182 230/291/181
f 169/210/140 172/213/143 213/273/166 231/292/182
