# Blender 4.0.2
# www.blender.org
o interpretation_panel_01
v -0.500000 0.711412 0.256189
v -0.500000 0.746767 0.291544
v -0.500000 1.135676 -0.168075
v -0.500000 1.171031 -0.132720
v 0.500000 0.711412 0.256189
v 0.500000 0.746767 0.291544
v 0.500000 1.135676 -0.168075
v 0.500000 1.171031 -0.132720
v 0.470375 -0.000000 0.035000
v 0.470375 -0.000000 -0.035000
v 0.400610 -0.000078 -0.035094
v 0.400610 -0.000078 0.034906
v 0.400610 0.833736 0.034906
v 0.400603 0.910856 -0.022104
v -0.470375 -0.000000 0.035000
v -0.470375 -0.000000 -0.035000
v -0.416065 0.000000 -0.035000
v -0.416065 0.000000 0.035000
v 0.400604 0.902288 0.065410
v 0.400603 0.862764 0.025895
v 0.400604 0.950553 0.017145
v 0.400610 1.078329 -0.209688
v 0.400610 1.127826 -0.160190
v 0.470375 1.078407 -0.209593
v 0.470375 1.127904 -0.160096
v 0.400610 0.670848 0.197794
v 0.400610 0.720345 0.247291
v 0.470375 0.670925 0.197888
v 0.470375 0.720423 0.247385
v 0.400610 0.903458 -0.034817
v 0.470375 0.903536 -0.034723
v 0.400610 1.000767 -0.033131
v 0.470375 0.953033 0.014775
v 0.400610 0.883001 0.084635
v 0.470375 0.883079 0.084730
v 0.470375 0.833581 0.035232
v 0.400610 0.436280 0.034906
v 0.470375 0.436357 -0.034861
v 0.470375 0.436357 0.035116
v 0.400610 0.436280 -0.034956
v 0.400611 0.374674 0.034906
v 0.470375 0.374752 -0.034931
v 0.470375 0.374752 0.035058
v 0.400611 0.374674 -0.035025
v -0.416065 0.833814 0.035000
v -0.416058 0.910933 -0.022009
v -0.416059 0.902366 0.065504
v -0.416058 0.862841 0.025989
v 0.400610 0.449759 0.025544
v 0.400610 0.449759 -0.022435
v 0.000000 0.950631 0.017240
v 0.000000 0.902366 0.065504
v 0.000000 0.862841 0.025989
v 0.000000 0.911100 -0.022266
v 0.000000 0.374752 -0.034998
v 0.000000 0.374752 0.035000
v 0.000000 0.436357 0.035000
v 0.000000 0.436357 -0.034995
v -0.416059 0.950631 0.017240
v -0.416065 1.078407 -0.209593
v -0.416065 1.127904 -0.160096
v -0.470375 1.078407 -0.209593
v -0.470375 1.127904 -0.160096
v -0.416065 0.670925 0.197888
v -0.416065 0.720423 0.247385
v -0.470375 0.670925 0.197888
v -0.470375 0.720423 0.247385
v -0.416065 0.903536 -0.034723
v -0.470375 0.903536 -0.034723
v -0.416065 1.000845 -0.033037
v -0.470375 0.953033 0.014775
v -0.416065 0.883079 0.084730
v -0.470375 0.883079 0.084730
v -0.470375 0.833581 0.035232
v -0.416065 0.436357 0.035000
v -0.470375 0.436357 -0.034861
v -0.470375 0.436357 0.035116
v -0.416065 0.436357 -0.034861
v -0.416064 0.374752 0.035000
v -0.470374 0.374752 -0.034931
v -0.470374 0.374752 0.035058
v -0.416064 0.374752 -0.034931
v -0.416065 0.449836 0.025639
v -0.416065 0.449836 -0.022340
v 0.397593 0.806176 0.157241
v 0.397642 0.784009 0.179338
v 0.473408 0.736175 0.128440
v 0.473357 0.757484 0.107061
v 0.473345 0.784093 0.179430
v 0.473389 0.806247 0.157338
v 0.397581 0.736212 0.128227
v 0.397624 0.757529 0.106850
v 0.380992 0.806164 0.157230
v 0.380992 0.784032 0.179362
v 0.489993 0.784114 0.179451
v 0.489993 0.806237 0.157328
v 0.400610 0.808285 0.159351
v 0.400610 0.786154 0.181482
v 0.470375 0.738274 0.130539
v 0.470375 0.759618 0.109195
v 0.470375 0.786236 0.181573
v 0.470375 0.808359 0.159450
v 0.400610 0.738313 0.130328
v 0.400610 0.759660 0.108981
v 0.380992 0.808285 0.159351
v 0.380992 0.786154 0.181483
v 0.489993 0.786236 0.181572
v 0.489993 0.808359 0.159449
v 0.397639 1.055972 -0.092660
v 0.397688 1.033805 -0.070563
v 0.473454 0.985971 -0.121461
v 0.473403 1.007280 -0.142840
v 0.473392 1.033888 -0.070472
v 0.473436 1.056043 -0.092563
v 0.397627 0.986007 -0.121674
v 0.397670 1.007325 -0.143052
v 0.381038 1.055960 -0.092671
v 0.381038 1.033828 -0.070540
v 0.490039 1.033910 -0.070451
v 0.490039 1.056033 -0.092574
v 0.400656 1.058081 -0.090550
v 0.400656 1.035949 -0.068419
v 0.470421 0.988070 -0.119362
v 0.470421 1.009414 -0.140706
v 0.470421 1.036031 -0.068329
v 0.470421 1.058154 -0.090452
v 0.400656 0.988109 -0.119573
v 0.400656 1.009456 -0.140920
v 0.381038 1.058081 -0.090550
v 0.381038 1.035949 -0.068418
v 0.490039 1.036031 -0.068329
v 0.490039 1.058154 -0.090452
v -0.413048 0.806253 0.157336
v -0.413096 0.784087 0.179432
v -0.473408 0.736175 0.128440
v -0.473357 0.757484 0.107061
v -0.473345 0.784093 0.179430
v -0.473389 0.806247 0.157338
v -0.413035 0.736289 0.128321
v -0.413078 0.757607 0.106944
v -0.396447 0.806242 0.157324
v -0.396446 0.784110 0.179456
v -0.489993 0.784114 0.179451
v -0.489993 0.806237 0.157328
v -0.416065 0.808363 0.159445
v -0.416065 0.786231 0.181577
v -0.470375 0.738274 0.130539
v -0.470375 0.759618 0.109195
v -0.470375 0.786236 0.181573
v -0.470375 0.808359 0.159450
v -0.416065 0.738391 0.130423
v -0.416065 0.759738 0.109075
v -0.396447 0.808363 0.159446
v -0.396446 0.786231 0.181577
v -0.489993 0.786236 0.181572
v -0.489993 0.808359 0.159449
v -0.413094 1.056049 -0.092566
v -0.413142 1.033882 -0.070469
v -0.473454 0.985971 -0.121461
v -0.473403 1.007280 -0.142840
v -0.473392 1.033888 -0.070472
v -0.473436 1.056043 -0.092563
v -0.413081 0.986085 -0.121580
v -0.413125 1.007402 -0.142957
v -0.396493 1.056037 -0.092577
v -0.396492 1.033906 -0.070445
v -0.490039 1.033910 -0.070451
v -0.490039 1.056033 -0.092574
v -0.416111 1.058159 -0.090456
v -0.416111 1.036027 -0.068324
v -0.470421 0.988070 -0.119362
v -0.470421 1.009414 -0.140706
v -0.470421 1.036031 -0.068329
v -0.470421 1.058154 -0.090452
v -0.416111 0.988186 -0.119479
v -0.416111 1.009534 -0.140826
v -0.396493 1.058159 -0.090456
v -0.396492 1.036027 -0.068324
v -0.490039 1.036031 -0.068329
v -0.490039 1.058154 -0.090452
vn -1.0000 -0.0000 -0.0000
vn -0.0000 0.7071 -0.7071
vn 1.0000 -0.0000 -0.0000
vn -0.0000 -0.7071 0.7071
vn -0.0000 -0.7071 -0.7071
vn -0.0000 0.7071 0.7071
vn 0.0014 0.0003 -1.0000
vn -0.0038 -0.0001 1.0000
vn 0.0005 -0.0001 1.0000
vn 0.0011 -1.0000 -0.0000
vn -0.0002 -0.7068 -0.7075
vn -0.0000 -0.7070 0.7072
vn 0.0017 -0.7071 -0.7071
vn 0.0002 0.7071 -0.7071
vn -0.0002 -0.7071 0.7071
vn -0.0000 0.0003 -1.0000
vn -1.0000 0.0001 -0.0002
vn -1.0000 -0.0002 0.0002
vn -0.0026 -0.0005 1.0000
vn 0.0014 0.0011 -1.0000
vn -0.0000 0.0006 -1.0000
vn -0.0002 -1.0000 -0.0000
vn 0.0002 -0.0000 1.0000
vn -1.0000 -0.0000 -0.0003
vn -1.0000 -0.0000 0.0004
vn 0.0002 1.0000 -0.0000
vn -0.0001 -0.7068 -0.7075
vn -0.0000 -1.0000 -0.0000
vn 0.0032 -0.0001 1.0000
vn 0.0003 0.7050 -0.7092
vn 1.0000 0.0001 -0.0002
vn 1.0000 -0.0002 0.0002
vn 0.0016 -0.0005 1.0000
vn -0.0000 0.0011 -1.0000
vn -0.0018 -0.0001 1.0000
vn -0.0000 0.0002 -1.0000
vn -0.0002 0.0006 -1.0000
vn -0.0000 -0.0000 1.0000
vn 1.0000 -0.0000 -0.0003
vn 1.0000 -0.0000 0.0004
vn -0.0000 1.0000 -0.0000
vn -0.0004 0.7050 -0.7092
vn 0.0014 0.0002 -1.0000
vn -0.0310 -0.7284 0.6845
vn 0.0016 -0.7082 -0.7060
vn 1.0000 0.0002 0.0001
vn -0.0005 -0.7065 -0.7077
vn 0.0005 -0.7066 -0.7076
vn -1.0000 0.0001 0.0002
vn 0.0153 0.7178 -0.6961
vn 0.0335 -0.7300 0.6827
vn -0.0024 -0.7071 0.7071
vn 0.0025 0.7071 -0.7071
vn -0.0176 0.7193 -0.6944
vn 0.0310 -0.7284 0.6845
vn -0.0000 -0.7082 -0.7060
vn -1.0000 0.0002 0.0001
vn 0.0005 -0.7065 -0.7077
vn -0.0005 -0.7066 -0.7076
vn 1.0000 0.0001 0.0002
vn -0.0153 0.7178 -0.6961
vn -0.0335 -0.7300 0.6827
vn 0.0029 -0.7071 0.7071
vn -0.0030 0.7071 -0.7071
vn 0.0176 0.7193 -0.6944
vt 0.004883 0.032390
vt 0.032388 0.032390
vt 0.032388 0.362446
vt 0.004883 0.362446
vt 0.032388 0.389951
vt 0.582481 0.362447
vt 0.582481 0.389951
vt 0.609985 0.362447
vt 0.582481 0.032391
vt 0.609986 0.032391
vt 0.582481 0.004886
vt 0.032388 0.004886
vt 0.554977 0.728948
vt 0.004877 0.728948
vt 0.004877 0.398889
vt 0.554977 0.398888
vt 0.656179 0.324918
vt 0.656180 0.581898
vt 0.617805 0.581941
vt 0.617804 0.324961
vt 0.952414 0.245036
vt 0.952079 0.463546
vt 0.913702 0.463573
vt 0.914037 0.244935
vt 0.961432 0.590277
vt 0.960972 0.384140
vt 0.990846 0.384073
vt 0.991306 0.590210
vt 0.663998 0.527390
vt 0.663998 0.488886
vt 0.702373 0.488938
vt 0.702373 0.527442
vt 0.753396 0.168375
vt 0.753397 0.386889
vt 0.714903 0.386900
vt 0.714902 0.129904
vt 0.418389 0.813496
vt 0.638753 0.813596
vt 0.638763 0.850974
vt 0.418390 0.851036
vt 0.638763 0.881720
vt 0.418386 0.881782
vt 0.742123 0.102667
vt 0.780616 0.141138
vt 0.702369 0.480922
vt 0.663993 0.480916
vt 0.663993 0.344881
vt 0.702369 0.344887
vt 0.663990 0.575468
vt 0.663990 0.536956
vt 0.702373 0.536889
vt 0.702373 0.575401
vt 0.784557 0.884276
vt 0.747361 0.922784
vt 0.648512 0.922784
vt 0.648512 0.884276
vt 0.618677 0.033736
vt 0.645897 0.006499
vt 0.952083 0.646952
vt 0.952083 0.685459
vt 0.913707 0.685392
vt 0.913707 0.646885
vt 0.653146 0.735223
vt 0.563694 0.645718
vt 0.590931 0.618497
vt 0.680383 0.708003
vt 0.952783 0.590083
vt 0.914406 0.590290
vt 0.838797 0.884276
vt 0.965515 0.884276
vt 0.965515 0.922782
vt 0.838978 0.922782
vt 0.616185 0.930886
vt 0.616185 0.960759
vt 0.359218 0.960759
vt 0.359218 0.930886
vt 0.786624 0.892098
vt 0.786451 0.922808
vt 0.823998 0.922807
vt 0.824001 0.892063
vt 0.714874 0.420790
vt 0.753375 0.420778
vt 0.189507 0.881730
vt 0.189515 0.850985
vt 0.952467 0.211148
vt 0.914089 0.211046
vt 0.656179 0.291031
vt 0.617804 0.291074
vt 0.194585 0.735215
vt 0.400740 0.735244
vt 0.400728 0.773746
vt 0.194574 0.773723
vt 0.902006 0.004889
vt 0.902006 0.043397
vt 0.695849 0.043397
vt 0.695849 0.004927
vt 0.702501 0.337054
vt 0.663990 0.337054
vt 0.664029 0.130882
vt 0.702501 0.130882
vt 0.761183 0.489260
vt 0.761211 0.268878
vt 0.795101 0.268875
vt 0.795073 0.489257
vt 0.833571 0.268883
vt 0.833579 0.489261
vt 0.867461 0.268889
vt 0.867468 0.489265
vt 0.993397 0.729675
vt 0.984513 0.731277
vt 0.965850 0.712615
vt 0.966222 0.702501
vt 0.905893 0.268879
vt 0.905972 0.489261
vt 0.189523 0.813607
vt 0.691617 0.773717
vt 0.434618 0.773718
vt 0.434630 0.735222
vt 0.959894 0.646888
vt 0.989771 0.646888
vt 0.989771 0.685396
vt 0.959894 0.685396
vt 0.990770 0.350187
vt 0.960897 0.350253
vt 0.960408 0.131628
vt 0.990282 0.131688
vt 0.638763 0.782886
vt 0.418384 0.782754
vt 0.718855 0.746497
vt 0.869931 0.082758
vt 0.733879 0.082759
vt 0.733879 0.052881
vt 0.869931 0.052881
vt 0.904464 0.184881
vt 0.904464 0.214758
vt 0.865955 0.214759
vt 0.865955 0.184881
vt 0.215339 0.920271
vt 0.351405 0.920272
vt 0.351405 0.958785
vt 0.252541 0.958785
vt 0.815024 0.842723
vt 0.787787 0.869944
vt 0.761208 0.220881
vt 0.791086 0.220881
vt 0.791086 0.259390
vt 0.761209 0.259390
vt 0.213271 0.928095
vt 0.213445 0.958809
vt 0.175898 0.958802
vt 0.160918 0.958778
vt 0.161099 0.920273
vt 0.175894 0.928059
vt 0.650070 0.930886
vt 0.650070 0.960758
vt 0.952783 0.004999
vt 0.914406 0.004897
vt 0.714897 0.626942
vt 0.753404 0.626930
vt 0.856198 0.960759
vt 0.856198 0.930886
vt 0.795100 0.718140
vt 0.761209 0.718144
vt 0.833570 0.718141
vt 0.867460 0.718143
vt 0.006496 0.765670
vt 0.033670 0.738496
vt 0.034043 0.748609
vt 0.015380 0.767271
vt 0.034386 0.958778
vt 0.034386 0.920273
vt 0.961433 0.004920
vt 0.991306 0.005162
vt 0.905892 0.718144
vt 0.189503 0.782897
vt 0.870121 0.230590
vt 0.842900 0.257826
vt 0.656180 0.084892
vt 0.617805 0.084934
vt 0.922957 0.639021
vt 0.922921 0.600542
vt 0.924552 0.598874
vt 0.924622 0.637387
vt 0.850366 0.107847
vt 0.808913 0.107847
vt 0.808913 0.090881
vt 0.850366 0.090881
vt 0.888662 0.107847
vt 0.888662 0.090881
vt 0.770615 0.090881
vt 0.770615 0.107847
vt 0.761520 0.107847
vt 0.761520 0.090881
vt 0.897756 0.090881
vt 0.897756 0.107847
vt 0.682566 0.618521
vt 0.682493 0.657043
vt 0.680855 0.655381
vt 0.680911 0.616877
vt 0.964592 0.600554
vt 0.964656 0.639034
vt 0.962988 0.637402
vt 0.962957 0.598889
vt 0.640840 0.657053
vt 0.642484 0.655397
vt 0.640867 0.618529
vt 0.642529 0.616891
vt 0.899397 0.090881
vt 0.899397 0.107847
vt 0.759879 0.107847
vt 0.759879 0.090881
vt 0.631736 0.618526
vt 0.631739 0.616877
vt 0.973748 0.600523
vt 0.973745 0.598874
vt 0.913766 0.600538
vt 0.913763 0.598888
vt 0.691699 0.618541
vt 0.691701 0.616891
vt 0.859500 0.126078
vt 0.898015 0.126043
vt 0.899685 0.127675
vt 0.861136 0.127746
vt 0.819193 0.743846
vt 0.777765 0.743846
vt 0.777765 0.726889
vt 0.819193 0.726889
vt 0.857465 0.743846
vt 0.857465 0.726889
vt 0.739492 0.726889
vt 0.739492 0.743846
vt 0.730403 0.743846
vt 0.730403 0.726889
vt 0.866553 0.726889
vt 0.866553 0.743846
vt 0.851691 0.118541
vt 0.851612 0.157103
vt 0.849973 0.155440
vt 0.850034 0.116895
vt 0.898003 0.167752
vt 0.859487 0.167816
vt 0.861121 0.166146
vt 0.899670 0.166116
vt 0.809920 0.157107
vt 0.811566 0.155450
vt 0.809953 0.118551
vt 0.811617 0.116911
vt 0.868193 0.726889
vt 0.868193 0.743846
vt 0.728763 0.743846
vt 0.728763 0.726889
vt 0.800815 0.118546
vt 0.800817 0.116895
vt 0.898034 0.176917
vt 0.899686 0.176914
vt 0.898019 0.116879
vt 0.899671 0.116877
vt 0.860832 0.118563
vt 0.860835 0.116911
vt 0.562803 0.535160
vt 0.564433 0.533495
vt 0.602888 0.533512
vt 0.601225 0.535143
vt 0.611811 0.607853
vt 0.611811 0.590888
vt 0.644808 0.590888
vt 0.644808 0.607853
vt 0.573519 0.607853
vt 0.573519 0.590888
vt 0.683102 0.590888
vt 0.692196 0.590888
vt 0.692196 0.607853
vt 0.683102 0.607853
vt 0.564424 0.607854
vt 0.564424 0.590888
vt 0.564442 0.483165
vt 0.562802 0.481509
vt 0.601261 0.481506
vt 0.602919 0.483145
vt 0.601223 0.502019
vt 0.602888 0.503649
vt 0.564432 0.503672
vt 0.562800 0.502008
vt 0.601263 0.451670
vt 0.602919 0.450029
vt 0.562799 0.451661
vt 0.564438 0.450003
vt 0.562784 0.607853
vt 0.562784 0.590888
vt 0.693837 0.590888
vt 0.693837 0.607853
vt 0.562800 0.440883
vt 0.564448 0.440883
vt 0.601241 0.492877
vt 0.602888 0.492877
vt 0.602889 0.544283
vt 0.601242 0.544283
vt 0.564449 0.492286
vt 0.562801 0.492286
vt 0.562792 0.431299
vt 0.564428 0.429628
vt 0.603003 0.429645
vt 0.601334 0.431282
vt 0.803828 0.769859
vt 0.803828 0.752884
vt 0.836844 0.752884
vt 0.836844 0.769859
vt 0.765515 0.769859
vt 0.765515 0.752884
vt 0.875159 0.752884
vt 0.884258 0.752884
vt 0.884258 0.769859
vt 0.875159 0.769859
vt 0.756416 0.769859
vt 0.756416 0.752884
vt 0.723479 0.673366
vt 0.721823 0.675007
vt 0.721820 0.636545
vt 0.723458 0.634887
vt 0.601337 0.398055
vt 0.603008 0.399690
vt 0.564427 0.399712
vt 0.562789 0.398044
vt 0.691983 0.636544
vt 0.690343 0.634888
vt 0.691976 0.675006
vt 0.690318 0.673367
vt 0.754774 0.769859
vt 0.754774 0.752884
vt 0.885900 0.752884
vt 0.885900 0.769859
vt 0.681198 0.675006
vt 0.681198 0.673358
vt 0.601355 0.388883
vt 0.603008 0.388883
vt 0.603004 0.440451
vt 0.601351 0.440452
vt 0.732602 0.673359
vt 0.732602 0.675007
s 0
f 1/1/1 2/2/1 4/3/1 3/4/1
f 3/5/2 4/3/2 8/6/2 7/7/2
f 7/8/3 8/6/3 6/9/3 5/10/3
f 5/11/4 6/9/4 2/2/4 1/12/4
f 3/13/5 7/14/5 5/15/5 1/16/5
f 8/6/6 4/3/6 2/2/6 6/9/6
f 40/17/7 30/18/7 31/19/7 38/20/7
f 39/21/8 36/22/8 13/23/8 37/24/8
f 18/25/9 79/26/9 81/27/9 15/28/9
f 10/29/10 9/30/10 12/31/10 11/32/10
f 36/33/3 39/34/3 38/35/3 31/36/3
f 54/37/11 14/38/11 20/39/11 53/40/11
f 53/40/12 20/39/12 19/41/12 52/42/12
f 33/43/3 35/44/3 36/33/3 31/36/3
f 31/45/13 30/46/13 22/47/13 24/48/13
f 22/49/14 23/50/14 25/51/14 24/52/14
f 30/53/1 32/54/1 23/55/1 22/56/1
f 33/43/3 31/36/3 24/57/3 25/58/3
f 27/59/15 26/60/15 28/61/15 29/62/15
f 74/63/1 66/64/1 67/65/1 73/66/1
f 36/22/13 28/67/13 26/68/13 13/23/13
f 13/69/1 26/70/1 27/71/1 34/72/1
f 78/73/16 76/74/16 69/75/16 68/76/16
f 14/77/17 21/78/17 32/54/17 30/53/17
f 19/79/18 20/80/18 13/69/18 34/72/18
f 42/81/3 38/35/3 39/34/3 43/82/3
f 53/40/12 52/42/12 47/83/12 48/84/12
f 43/85/19 39/21/19 37/24/19 41/86/19
f 44/87/20 40/17/20 38/20/20 42/88/20
f 15/89/1 81/90/1 80/91/1 16/92/1
f 11/93/1 12/94/1 41/95/1 44/96/1
f 18/97/3 17/98/3 82/99/3 79/100/3
f 58/101/21 40/102/21 44/103/21 55/104/21
f 55/104/22 44/103/22 41/105/22 56/106/22
f 56/106/23 41/105/23 37/107/23 57/108/23
f 37/109/1 49/110/1 50/111/1 40/112/1
f 14/77/24 30/53/24 40/112/24 50/111/24
f 13/69/25 20/80/25 49/110/25 37/109/25
f 20/80/1 14/77/1 50/111/1 49/110/1
f 37/107/26 40/113/26 58/114/26 57/108/26
f 54/37/27 53/40/27 48/84/27 46/115/27
f 74/63/1 69/116/1 76/117/1 77/118/1
f 16/119/28 17/120/28 18/121/28 15/122/28
f 77/123/29 75/124/29 45/125/29 74/126/29
f 21/127/30 14/38/30 54/37/30 51/128/30
f 71/129/1 69/116/1 74/63/1 73/66/1
f 69/130/5 62/131/5 60/132/5 68/133/5
f 60/134/2 62/135/2 63/136/2 61/137/2
f 68/138/3 60/139/3 61/140/3 70/141/3
f 71/129/1 63/142/1 62/143/1 69/116/1
f 65/144/4 67/145/4 66/146/4 64/147/4
f 46/148/31 68/138/31 70/141/31 59/149/31
f 47/150/32 72/151/32 45/152/32 48/153/32
f 80/91/1 81/90/1 77/118/1 76/117/1
f 81/27/33 79/26/33 75/124/33 77/123/33
f 82/154/34 80/155/34 76/74/34 78/73/34
f 9/156/35 43/85/35 41/86/35 12/157/35
f 10/158/3 42/81/3 43/82/3 9/159/3
f 16/160/36 80/155/36 82/154/36 17/161/36
f 58/101/37 55/104/37 82/162/37 78/163/37
f 55/104/28 56/106/28 79/164/28 82/162/28
f 56/106/38 57/108/38 75/165/38 79/164/38
f 75/166/3 78/167/3 84/168/3 83/169/3
f 46/148/39 84/168/39 78/167/39 68/138/39
f 45/152/40 75/166/40 83/169/40 48/153/40
f 48/153/3 83/169/3 84/168/3 46/148/3
f 72/151/3 65/170/3 64/171/3 45/152/3
f 45/125/5 64/172/5 66/173/5 74/126/5
f 75/165/41 57/108/41 58/114/41 78/174/41
f 59/175/42 51/128/42 54/37/42 46/115/42
f 35/44/3 29/176/3 28/177/3 36/33/3
f 11/178/43 44/87/43 42/88/43 10/179/43
f 87/180/44 89/181/44 101/182/44 99/183/44
f 87/184/45 91/185/45 92/186/45 88/187/45
f 89/188/46 87/184/46 88/187/46 90/189/46
f 85/190/47 86/191/47 94/192/47 93/193/47
f 89/188/48 90/189/48 96/194/48 95/195/48
f 91/185/49 86/191/49 85/190/49 92/186/49
f 90/196/50 88/197/50 100/198/50 102/199/50
f 86/200/51 91/201/51 103/202/51 98/203/51
f 91/201/52 87/180/52 99/183/52 103/202/52
f 88/197/53 92/204/53 104/205/53 100/198/53
f 92/204/54 85/206/54 97/207/54 104/205/54
f 95/195/3 96/194/3 108/208/3 107/209/3
f 93/193/1 94/192/1 106/210/1 105/211/1
f 85/206/2 93/212/2 105/213/2 97/207/2
f 94/214/4 86/200/4 98/203/4 106/215/4
f 89/181/4 95/216/4 107/217/4 101/182/4
f 96/218/2 90/196/2 102/199/2 108/219/2
f 111/220/44 113/221/44 125/222/44 123/223/44
f 111/224/45 115/225/45 116/226/45 112/227/45
f 113/228/46 111/224/46 112/227/46 114/229/46
f 109/230/47 110/231/47 118/232/47 117/233/47
f 113/228/48 114/229/48 120/234/48 119/235/48
f 115/225/49 110/231/49 109/230/49 116/226/49
f 114/236/50 112/237/50 124/238/50 126/239/50
f 110/240/51 115/241/51 127/242/51 122/243/51
f 115/241/52 111/220/52 123/223/52 127/242/52
f 112/237/53 116/244/53 128/245/53 124/238/53
f 116/244/54 109/246/54 121/247/54 128/245/54
f 119/235/3 120/234/3 132/248/3 131/249/3
f 117/233/1 118/232/1 130/250/1 129/251/1
f 109/246/2 117/252/2 129/253/2 121/247/2
f 118/254/4 110/240/4 122/243/4 130/255/4
f 113/221/4 119/256/4 131/257/4 125/222/4
f 120/258/2 114/236/2 126/239/2 132/259/2
f 135/260/55 147/261/55 149/262/55 137/263/55
f 135/264/56 136/265/56 140/266/56 139/267/56
f 137/268/57 138/269/57 136/265/57 135/264/57
f 133/270/58 141/271/58 142/272/58 134/273/58
f 137/268/59 143/274/59 144/275/59 138/269/59
f 139/267/60 140/266/60 133/270/60 134/273/60
f 138/276/61 150/277/61 148/278/61 136/279/61
f 134/280/62 146/281/62 151/282/62 139/283/62
f 139/283/63 151/282/63 147/261/63 135/260/63
f 136/279/64 148/278/64 152/284/64 140/285/64
f 140/285/65 152/284/65 145/286/65 133/287/65
f 143/274/1 155/288/1 156/289/1 144/275/1
f 141/271/3 153/290/3 154/291/3 142/272/3
f 133/287/2 145/286/2 153/292/2 141/293/2
f 142/294/4 154/295/4 146/281/4 134/280/4
f 137/263/4 149/262/4 155/296/4 143/297/4
f 144/298/2 156/299/2 150/277/2 138/276/2
f 159/300/55 171/301/55 173/302/55 161/303/55
f 159/304/56 160/305/56 164/306/56 163/307/56
f 161/308/57 162/309/57 160/305/57 159/304/57
f 157/310/58 165/311/58 166/312/58 158/313/58
f 161/308/59 167/314/59 168/315/59 162/309/59
f 163/307/60 164/306/60 157/310/60 158/313/60
f 162/316/61 174/317/61 172/318/61 160/319/61
f 158/320/62 170/321/62 175/322/62 163/323/62
f 163/323/63 175/322/63 171/301/63 159/300/63
f 160/319/64 172/318/64 176/324/64 164/325/64
f 164/325/65 176/324/65 169/326/65 157/327/65
f 167/314/1 179/328/1 180/329/1 168/315/1
f 165/311/3 177/330/3 178/331/3 166/312/3
f 157/327/2 169/326/2 177/332/2 165/333/2
f 166/334/4 178/335/4 170/321/4 158/320/4
f 161/303/4 173/302/4 179/336/4 167/337/4
f 168/338/2 180/339/2 174/317/2 162/316/2
