# Blender 4.1.1
# www.blender.org
o gear_01
v 0.091135 0.011034 -0.021118
v 0.070652 0.011034 -0.061317
v 0.061317 0.011034 -0.070652
v 0.021118 0.011034 -0.091135
v 0.008078 0.011034 -0.093200
v -0.036483 0.011034 -0.086142
v -0.048246 0.011034 -0.080149
v -0.080149 0.011034 -0.048246
v -0.086142 0.011034 -0.036483
v -0.093200 0.011034 0.008078
v -0.091135 0.011034 0.021118
v -0.070652 0.011034 0.061317
v -0.061317 0.011034 0.070652
v -0.021118 0.011034 0.091135
v -0.008078 0.011034 0.093200
v 0.036483 0.011034 0.086142
v 0.048246 0.011034 0.080149
v 0.080149 0.011034 0.048246
v 0.086142 0.011034 0.036483
v 0.093200 0.011034 -0.008078
v 0.107837 0.005308 -0.064315
v 0.115417 0.005308 -0.049439
v 0.049439 0.005308 -0.115417
v 0.064315 0.005308 -0.107837
v -0.027843 0.005308 -0.122433
v -0.011354 0.005308 -0.125045
v -0.094490 0.005308 -0.082685
v -0.082685 0.005308 -0.094490
v -0.125045 0.005308 -0.011354
v -0.122433 0.005308 -0.027843
v -0.107837 0.005308 0.064315
v -0.115417 0.005308 0.049439
v -0.049439 0.005308 0.115417
v -0.064315 0.005308 0.107837
v 0.027843 0.005308 0.122433
v 0.011354 0.005308 0.125045
v 0.094490 0.005308 0.082685
v 0.082685 0.005308 0.094490
v 0.125045 0.005308 0.011354
v 0.122433 0.005308 0.027843
v 0.080756 0.020422 -0.026668
v 0.068563 0.020422 -0.050317
v 0.049658 0.020422 -0.069042
v 0.025893 0.020422 -0.081008
v -0.000407 0.020422 -0.085044
v -0.026668 0.020422 -0.080756
v -0.050317 0.020422 -0.068563
v -0.069042 0.020422 -0.049658
v -0.081008 0.020422 -0.025893
v -0.085044 0.020422 0.000407
v -0.080756 0.020422 0.026668
v -0.068563 0.020422 0.050317
v -0.049658 0.020422 0.069042
v -0.025893 0.020422 0.081008
v 0.000407 0.020422 0.085044
v 0.026668 0.020422 0.080756
v 0.050317 0.020422 0.068563
v 0.069042 0.020422 0.049658
v 0.081008 0.020422 0.025893
v 0.085044 0.020422 -0.000407
v -0.000000 0.011034 -0.046386
v 0.014334 0.011034 -0.044116
v 0.027265 0.011034 -0.037527
v 0.037527 0.011034 -0.027265
v 0.044116 0.011034 -0.014334
v 0.046386 0.011034 -0.000000
v 0.044116 0.011034 0.014334
v 0.037527 0.011034 0.027265
v 0.027265 0.011034 0.037527
v 0.014334 0.011034 0.044116
v -0.000000 0.011034 0.046386
v -0.014334 0.011034 0.044116
v -0.027265 0.011034 0.037527
v -0.037527 0.011034 0.027265
v -0.044116 0.011034 0.014334
v -0.046386 0.011034 0.000000
v -0.044116 0.011034 -0.014334
v -0.037527 0.011034 -0.027265
v -0.027265 0.011034 -0.037527
v -0.014334 0.011034 -0.044116
v -0.000000 0.020422 -0.055737
v 0.017224 0.020422 -0.053009
v 0.032761 0.020422 -0.045092
v 0.045092 0.020422 -0.032762
v 0.053009 0.020422 -0.017224
v 0.055737 0.020422 -0.000000
v 0.053009 0.020422 0.017224
v 0.045092 0.020422 0.032762
v 0.032762 0.020422 0.045092
v 0.017224 0.020422 0.053009
v -0.000000 0.020422 0.055737
v -0.017224 0.020422 0.053009
v -0.032762 0.020422 0.045092
v -0.045092 0.020422 0.032762
v -0.053009 0.020422 0.017224
v -0.055737 0.020422 0.000000
v -0.053009 0.020422 -0.017224
v -0.045092 0.020422 -0.032762
v -0.032762 0.020422 -0.045092
v -0.017224 0.020422 -0.053009
v 0.091135 -0.011034 -0.021118
v 0.070652 -0.011034 -0.061317
v 0.061317 -0.011034 -0.070652
v 0.021118 -0.011034 -0.091135
v 0.008078 -0.011034 -0.093200
v -0.036483 -0.011034 -0.086142
v -0.048246 -0.011034 -0.080149
v -0.080149 -0.011034 -0.048246
v -0.086142 -0.011034 -0.036483
v -0.093200 -0.011034 0.008078
v -0.091135 -0.011034 0.021118
v -0.070652 -0.011034 0.061317
v -0.061317 -0.011034 0.070652
v -0.021118 -0.011034 0.091135
v -0.008078 -0.011034 0.093200
v 0.036483 -0.011034 0.086142
v 0.048246 -0.011034 0.080149
v 0.080149 -0.011034 0.048246
v 0.086142 -0.011034 0.036483
v 0.093200 -0.011034 -0.008078
v 0.107837 -0.005308 -0.064315
v 0.115417 -0.005308 -0.049439
v 0.049439 -0.005308 -0.115417
v 0.064315 -0.005308 -0.107837
v -0.027843 -0.005308 -0.122433
v -0.011354 -0.005308 -0.125045
v -0.094490 -0.005308 -0.082685
v -0.082685 -0.005308 -0.094490
v -0.125045 -0.005308 -0.011354
v -0.122433 -0.005308 -0.027843
v -0.107837 -0.005308 0.064315
v -0.115417 -0.005308 0.049439
v -0.049439 -0.005308 0.115417
v -0.064315 -0.005308 0.107837
v 0.027843 -0.005308 0.122433
v 0.011354 -0.005308 0.125045
v 0.094490 -0.005308 0.082685
v 0.082685 -0.005308 0.094490
v 0.125045 -0.005308 0.011354
v 0.122433 -0.005308 0.027843
v 0.080756 -0.020422 -0.026668
v 0.068563 -0.020422 -0.050317
v 0.049658 -0.020422 -0.069042
v 0.025893 -0.020422 -0.081008
v -0.000407 -0.020422 -0.085044
v -0.026668 -0.020422 -0.080756
v -0.050317 -0.020422 -0.068563
v -0.069042 -0.020422 -0.049658
v -0.081008 -0.020422 -0.025893
v -0.085044 -0.020422 0.000407
v -0.080756 -0.020422 0.026668
v -0.068563 -0.020422 0.050317
v -0.049658 -0.020422 0.069042
v -0.025893 -0.020422 0.081008
v 0.000407 -0.020422 0.085044
v 0.026668 -0.020422 0.080756
v 0.050317 -0.020422 0.068563
v 0.069042 -0.020422 0.049658
v 0.081008 -0.020422 0.025893
v 0.085044 -0.020422 -0.000407
v -0.000000 -0.011034 -0.046386
v 0.014334 -0.011034 -0.044116
v 0.027265 -0.011034 -0.037527
v 0.037527 -0.011034 -0.027265
v 0.044116 -0.011034 -0.014334
v 0.046386 -0.011034 -0.000000
v 0.044116 -0.011034 0.014334
v 0.037527 -0.011034 0.027265
v 0.027265 -0.011034 0.037527
v 0.014334 -0.011034 0.044116
v -0.000000 -0.011034 0.046386
v -0.014334 -0.011034 0.044116
v -0.027265 -0.011034 0.037527
v -0.037527 -0.011034 0.027265
v -0.044116 -0.011034 0.014334
v -0.046386 -0.011034 0.000000
v -0.044116 -0.011034 -0.014334
v -0.037527 -0.011034 -0.027265
v -0.027265 -0.011034 -0.037527
v -0.014334 -0.011034 -0.044116
v -0.000000 -0.020422 -0.055737
v 0.017224 -0.020422 -0.053009
v 0.032761 -0.020422 -0.045092
v 0.045092 -0.020422 -0.032762
v 0.053009 -0.020422 -0.017224
v 0.055737 -0.020422 -0.000000
v 0.053009 -0.020422 0.017224
v 0.045092 -0.020422 0.032762
v 0.032762 -0.020422 0.045092
v 0.017224 -0.020422 0.053009
v -0.000000 -0.020422 0.055737
v -0.017224 -0.020422 0.053009
v -0.032762 -0.020422 0.045092
v -0.045092 -0.020422 0.032762
v -0.053009 -0.020422 0.017224
v -0.055737 -0.020422 0.000000
v -0.053009 -0.020422 -0.017224
v -0.045092 -0.020422 -0.032762
v -0.032762 -0.020422 -0.045092
v -0.017224 -0.020422 -0.053009
v -0.083145 0.011034 -0.042365
v -0.075960 0.020422 -0.038246
v -0.041330 0.011034 -0.021059
v -0.049662 0.020422 -0.025304
v -0.083145 -0.011034 -0.042365
v -0.075960 -0.020422 -0.038246
v -0.041330 -0.011034 -0.021059
v -0.049662 -0.020422 -0.025304
v -0.065957 0.011034 -0.065957
v -0.088588 0.005308 -0.088588
v -0.060423 0.020422 -0.059847
v -0.032800 0.011034 -0.032800
v -0.039412 0.020422 -0.039412
v -0.065957 -0.011034 -0.065957
v -0.088588 -0.005308 -0.088588
v -0.060423 -0.020422 -0.059847
v -0.032800 -0.011034 -0.032800
v -0.039412 -0.020422 -0.039412
v -0.042365 0.011034 -0.083145
v -0.038972 0.020422 -0.075590
v -0.021059 0.011034 -0.041330
v -0.025304 0.020422 -0.049662
v -0.042365 -0.011034 -0.083145
v -0.038972 -0.020422 -0.075590
v -0.021059 -0.011034 -0.041330
v -0.025304 -0.020422 -0.049662
v -0.014592 0.011034 -0.092130
v -0.019598 0.005308 -0.123739
v -0.013706 0.020422 -0.083933
v -0.007256 0.011034 -0.045815
v -0.008719 0.020422 -0.055051
v -0.014592 -0.011034 -0.092130
v -0.019598 -0.005308 -0.123739
v -0.013706 -0.020422 -0.083933
v -0.007256 -0.011034 -0.045815
v -0.008719 -0.020422 -0.055051
v 0.014598 0.011034 -0.092167
v 0.012901 0.020422 -0.084061
v 0.007256 0.011034 -0.045815
v 0.008719 0.020422 -0.055051
v 0.014598 -0.011034 -0.092167
v 0.012901 -0.020422 -0.084061
v 0.007256 -0.011034 -0.045815
v 0.008719 -0.020422 -0.055051
v 0.042347 0.011034 -0.083111
v 0.056877 0.005308 -0.111627
v 0.038246 0.020422 -0.075960
v 0.021059 0.011034 -0.041330
v 0.025304 0.020422 -0.049662
v 0.042347 -0.011034 -0.083111
v 0.056877 -0.005308 -0.111627
v 0.038246 -0.020422 -0.075960
v 0.021059 -0.011034 -0.041330
v 0.025304 -0.020422 -0.049662
v 0.065985 0.011034 -0.065985
v 0.059847 0.020422 -0.060423
v 0.032800 0.011034 -0.032800
v 0.039412 0.020422 -0.039412
v 0.065985 -0.011034 -0.065985
v 0.059847 -0.020422 -0.060423
v 0.032800 -0.011034 -0.032800
v 0.039412 -0.020422 -0.039412
v 0.083111 0.011034 -0.042347
v 0.111627 0.005308 -0.056877
v 0.075590 0.020422 -0.038972
v 0.041330 0.011034 -0.021059
v 0.049662 0.020422 -0.025304
v 0.083111 -0.011034 -0.042347
v 0.111627 -0.005308 -0.056877
v 0.075590 -0.020422 -0.038972
v 0.041330 -0.011034 -0.021059
v 0.049662 -0.020422 -0.025304
v 0.092167 0.011034 -0.014598
v 0.083933 0.020422 -0.013706
v 0.045815 0.011034 -0.007256
v 0.055051 0.020422 -0.008719
v 0.092167 -0.011034 -0.014598
v 0.083933 -0.020422 -0.013706
v 0.045815 -0.011034 -0.007256
v 0.055051 -0.020422 -0.008719
v 0.092129 0.011034 0.014592
v 0.123739 0.005308 0.019598
v 0.084061 0.020422 0.012901
v 0.045815 0.011034 0.007256
v 0.055051 0.020422 0.008719
v 0.092129 -0.011034 0.014592
v 0.123739 -0.005308 0.019598
v 0.084061 -0.020422 0.012901
v 0.045815 -0.011034 0.007256
v 0.055051 -0.020422 0.008719
v 0.083145 0.011034 0.042365
v 0.075960 0.020422 0.038246
v 0.041330 0.011034 0.021059
v 0.049662 0.020422 0.025304
v 0.083145 -0.011034 0.042365
v 0.075960 -0.020422 0.038246
v 0.041330 -0.011034 0.021059
v 0.049662 -0.020422 0.025304
v 0.065957 0.011034 0.065957
v 0.088588 0.005308 0.088588
v 0.060423 0.020422 0.059847
v 0.032800 0.011034 0.032800
v 0.039412 0.020422 0.039412
v 0.065957 -0.011034 0.065957
v 0.088588 -0.005308 0.088588
v 0.060423 -0.020422 0.059847
v 0.032800 -0.011034 0.032800
v 0.039412 -0.020422 0.039412
v 0.042365 0.011034 0.083145
v 0.038972 0.020422 0.075590
v 0.021059 0.011034 0.041330
v 0.025304 0.020422 0.049662
v 0.042365 -0.011034 0.083145
v 0.038972 -0.020422 0.075590
v 0.021059 -0.011034 0.041330
v 0.025304 -0.020422 0.049662
v 0.014592 0.011034 0.092129
v 0.019598 0.005308 0.123739
v 0.013706 0.020422 0.083933
v 0.007256 0.011034 0.045815
v 0.008719 0.020422 0.055051
v 0.014592 -0.011034 0.092129
v 0.019598 -0.005308 0.123739
v 0.013706 -0.020422 0.083933
v 0.007256 -0.011034 0.045815
v 0.008719 -0.020422 0.055051
v -0.014598 0.011034 0.092167
v -0.012901 0.020422 0.084061
v -0.007256 0.011034 0.045815
v -0.008719 0.020422 0.055051
v -0.014598 -0.011034 0.092167
v -0.012901 -0.020422 0.084061
v -0.007256 -0.011034 0.045815
v -0.008719 -0.020422 0.055051
v -0.042347 0.011034 0.083111
v -0.056877 0.005308 0.111627
v -0.038246 0.020422 0.075960
v -0.021059 0.011034 0.041330
v -0.025304 0.020422 0.049662
v -0.042347 -0.011034 0.083111
v -0.056877 -0.005308 0.111627
v -0.038246 -0.020422 0.075960
v -0.021059 -0.011034 0.041330
v -0.025304 -0.020422 0.049662
v -0.065985 0.011034 0.065985
v -0.059847 0.020422 0.060423
v -0.032800 0.011034 0.032800
v -0.039412 0.020422 0.039412
v -0.065985 -0.011034 0.065985
v -0.059847 -0.020422 0.060423
v -0.032800 -0.011034 0.032800
v -0.039412 -0.020422 0.039412
v -0.083111 0.011034 0.042347
v -0.111627 0.005308 0.056877
v -0.075590 0.020422 0.038972
v -0.041330 0.011034 0.021059
v -0.049662 0.020422 0.025304
v -0.083111 -0.011034 0.042347
v -0.111627 -0.005308 0.056877
v -0.075590 -0.020422 0.038972
v -0.041330 -0.011034 0.021059
v -0.049662 -0.020422 0.025304
v -0.092167 0.011034 0.014598
v -0.083933 0.020422 0.013706
v -0.045815 0.011034 0.007256
v -0.055051 0.020422 0.008719
v -0.092167 -0.011034 0.014598
v -0.083933 -0.020422 0.013706
v -0.045815 -0.011034 0.007256
v -0.055051 -0.020422 0.008719
v -0.092129 0.011034 -0.014592
v -0.123739 0.005308 -0.019598
v -0.084061 0.020422 -0.012901
v -0.045815 0.011034 -0.007256
v -0.055051 0.020422 -0.008719
v -0.092129 -0.011034 -0.014592
v -0.123739 -0.005308 -0.019598
v -0.084061 -0.020422 -0.012901
v -0.045815 -0.011034 -0.007256
v -0.055051 -0.020422 -0.008719
vn -0.0263 -0.9992 0.0313
vn -0.0309 -0.9992 0.0268
vn -0.0000 -1.0000 -0.0000
vn -0.4928 -0.6705 0.5546
vn -0.5497 -0.6722 0.4960
vn -0.4718 -0.6520 0.5935
vn -0.5024 -0.6635 0.5544
vn 0.8910 -0.0000 0.4540
vn 0.8090 -0.0000 0.5878
vn -0.5732 -0.7057 -0.4164
vn -0.6313 -0.7057 -0.3216
vn 0.8910 -0.0000 -0.4540
vn 0.0217 -0.9992 0.0347
vn 0.0160 -0.9992 0.0376
vn 0.9968 -0.0000 0.0804
vn -0.3089 -0.6631 -0.6818
vn -0.2707 -0.6526 -0.7077
vn -0.3019 -0.6722 -0.6761
vn -0.3752 -0.6705 -0.6400
vn -0.0392 -0.9992 -0.0093
vn 0.9511 -0.0000 0.3090
vn -0.4540 -0.0000 0.8910
vn -0.0727 -0.6705 0.7383
vn -0.1532 -0.6722 0.7244
vn -0.0328 -0.6520 0.7575
vn -0.0806 -0.6635 0.7438
vn -0.0000 -0.7057 0.7085
vn 0.1108 -0.7057 0.6998
vn -0.9877 -0.0000 -0.1564
vn -0.9511 -0.0000 -0.3090
vn 0.5010 -0.7057 0.5010
vn 0.5732 -0.7057 0.4164
vn -0.8090 -0.0000 0.5878
vn -0.8910 -0.0000 0.4540
vn -0.7071 -0.0000 -0.7071
vn -0.6825 -0.6635 -0.3065
vn -0.7103 -0.6520 -0.2653
vn -0.7622 -0.6429 -0.0756
vn -0.7481 -0.6431 -0.1633
vn 0.6507 -0.6631 0.3700
vn 0.6350 -0.6526 0.4134
vn 0.6416 -0.6722 0.3695
vn 0.6797 -0.6705 0.2973
vn 0.1538 0.9850 -0.0784
vn 0.1601 0.9849 -0.0660
vn 0.0784 0.9850 -0.1538
vn 0.0907 0.9849 -0.1475
vn 0.9877 -0.0000 -0.1564
vn -0.0270 0.9850 -0.1705
vn -0.0133 0.9849 -0.1726
vn 0.7071 -0.0000 -0.7071
vn -0.1220 0.9850 -0.1220
vn -0.1122 0.9849 -0.1319
vn 0.1564 -0.0000 -0.9877
vn -0.1705 0.9850 -0.0270
vn -0.1683 0.9849 -0.0407
vn -0.4540 -0.0000 -0.8910
vn -0.1538 0.9850 0.0784
vn -0.1601 0.9849 0.0660
vn -0.8910 -0.0000 -0.4540
vn -0.0784 0.9850 0.1538
vn -0.0907 0.9849 0.1475
vn -0.9877 -0.0000 0.1564
vn 0.0270 0.9850 0.1705
vn 0.0133 0.9849 0.1726
vn -0.7071 -0.0000 0.7071
vn 0.1220 0.9850 0.1220
vn 0.1122 0.9849 0.1319
vn -0.1564 -0.0000 0.9877
vn 0.1705 0.9850 0.0270
vn 0.1683 0.9849 0.0407
vn 0.6613 0.6432 -0.3860
vn 0.6086 0.6630 -0.4360
vn 0.6384 0.6522 -0.4088
vn 0.6991 0.6429 -0.3130
vn 0.5524 0.6706 -0.4951
vn 0.4344 0.6633 -0.6094
vn 0.4050 0.6517 -0.6413
vn 0.4912 0.6722 -0.5540
vn 0.3081 0.6432 -0.7010
vn 0.2361 0.6630 -0.7105
vn 0.2762 0.6522 -0.7059
vn 0.3816 0.6429 -0.6642
vn 0.1560 0.6706 -0.7252
vn -0.0068 0.6633 -0.7484
vn -0.0493 0.6517 -0.7568
vn 0.0717 0.6722 -0.7369
vn -0.1628 0.6432 -0.7482
vn -0.2266 0.6630 -0.7135
vn -0.1915 0.6522 -0.7334
vn -0.0817 0.6429 -0.7616
vn -0.3001 0.6706 -0.6784
vn -0.4454 0.6633 -0.6014
vn -0.4847 0.6517 -0.5833
vn -0.3751 0.6722 -0.6383
vn -0.5715 0.6432 -0.5097
vn -0.6027 0.6630 -0.4441
vn -0.5860 0.6522 -0.4808
vn -0.5137 0.6429 -0.5682
vn -0.6415 0.6706 -0.3724
vn -0.7138 0.6633 -0.2248
vn -0.7350 0.6517 -0.1870
vn -0.6787 0.6722 -0.2959
vn -0.7619 0.6432 -0.0764
vn -0.7486 0.6630 -0.0050
vn -0.7567 0.6522 -0.0445
vn -0.7496 0.6429 -0.1577
vn -0.7379 0.6706 0.0758
vn -0.7096 0.6633 0.2377
vn -0.7046 0.6517 0.2808
vn -0.7230 0.6722 0.1595
vn -0.6613 0.6432 0.3860
vn -0.6086 0.6630 0.4360
vn -0.6384 0.6522 0.4088
vn -0.6991 0.6429 0.3130
vn -0.5524 0.6706 0.4951
vn -0.4344 0.6633 0.6094
vn -0.4050 0.6517 0.6413
vn -0.4912 0.6722 0.5540
vn -0.3081 0.6432 0.7010
vn -0.2361 0.6630 0.7105
vn -0.2762 0.6522 0.7059
vn -0.3816 0.6429 0.6642
vn -0.1560 0.6706 0.7252
vn 0.0068 0.6633 0.7484
vn 0.0493 0.6517 0.7568
vn -0.0717 0.6722 0.7369
vn 0.1628 0.6432 0.7482
vn 0.2266 0.6630 0.7135
vn 0.1915 0.6522 0.7334
vn 0.0817 0.6429 0.7616
vn 0.3001 0.6706 0.6784
vn 0.4454 0.6633 0.6014
vn 0.4848 0.6517 0.5833
vn 0.3751 0.6722 0.6383
vn 0.5715 0.6432 0.5097
vn 0.6027 0.6630 0.4441
vn 0.5860 0.6522 0.4808
vn 0.5137 0.6429 0.5682
vn 0.6415 0.6706 0.3724
vn 0.7138 0.6633 0.2248
vn 0.7350 0.6517 0.1870
vn 0.6787 0.6722 0.2959
vn 0.7619 0.6432 0.0764
vn 0.7486 0.6630 0.0050
vn 0.7567 0.6522 0.0445
vn 0.7496 0.6429 0.1577
vn 0.7379 0.6706 -0.0758
vn 0.7096 0.6633 -0.2377
vn 0.7046 0.6517 -0.2808
vn 0.7230 0.6722 -0.1595
vn -0.4164 -0.7057 0.5732
vn -0.3216 -0.7057 0.6313
vn -0.3216 -0.7057 -0.6313
vn -0.4164 -0.7057 -0.5732
vn 0.0759 -0.6431 0.7620
vn 0.1636 -0.6429 0.7483
vn 0.2707 -0.6526 0.7077
vn 0.3089 -0.6631 0.6818
vn -0.3090 -0.0000 -0.9511
vn 0.8090 -0.0000 -0.5878
vn -0.6509 -0.0000 -0.7592
vn -0.7323 -0.6635 0.1532
vn -0.7306 -0.6520 0.2028
vn -0.6611 -0.6429 0.3868
vn -0.7012 -0.6431 0.3076
vn 0.0210 -0.9992 -0.0344
vn -0.7246 -0.6705 0.1590
vn -0.7363 -0.6722 0.0782
vn -0.0263 -0.9992 -0.0306
vn -0.0212 -0.9992 -0.0343
vn -0.0000 -0.7057 -0.7085
vn -0.1108 -0.7057 -0.6998
vn 0.3090 -0.0000 -0.9511
vn -0.5093 -0.6431 -0.5719
vn -0.5722 -0.6429 -0.5092
vn -0.6350 -0.6526 -0.4134
vn -0.6507 -0.6631 -0.3700
vn 0.0804 -0.0000 0.9968
vn 0.3019 -0.6722 0.6761
vn 0.3752 -0.6705 0.6400
vn -0.5010 -0.7057 -0.5010
vn -0.1319 -0.9849 -0.1122
vn -0.1220 -0.9850 -0.1220
vn -0.1475 -0.9849 0.0907
vn -0.1538 -0.9850 0.0784
vn -0.3865 -0.6431 0.6610
vn -0.3075 -0.6429 0.7015
vn -0.1970 -0.6526 0.7317
vn -0.1508 -0.6631 0.7332
vn -0.0000 -0.0000 1.0000
vn -0.0350 -0.9992 -0.0211
vn 0.0392 -0.9992 0.0093
vn 0.4540 -0.0000 -0.8910
vn 0.5878 -0.0000 -0.8090
vn -0.1108 0.7057 -0.6998
vn -0.2189 0.7057 -0.6738
vn -0.6797 -0.6705 -0.2973
vn -0.6416 -0.6722 -0.3695
vn -0.6998 0.7057 0.1108
vn -0.6738 0.7057 0.2189
vn 0.6998 0.7057 -0.1108
vn 0.6738 0.7057 -0.2189
vn 0.1108 0.7057 0.6998
vn 0.2189 0.7057 0.6738
vn -0.5010 0.7057 0.5010
vn -0.4164 0.7057 0.5732
vn -0.5010 0.7057 -0.5010
vn -0.5732 0.7057 -0.4164
vn -0.1108 0.7057 0.6998
vn -0.0000 0.7057 0.7085
vn 0.5010 0.7057 -0.5010
vn 0.4164 0.7057 -0.5732
vn 0.5010 0.7057 0.5010
vn 0.5732 0.7057 0.4164
vn -0.6998 0.7057 -0.1108
vn -0.7085 0.7057 -0.0000
vn 0.1108 0.7057 -0.6998
vn -0.0000 0.7057 -0.7085
vn 0.6998 0.7057 0.1108
vn 0.7085 0.7057 -0.0000
vn -0.6313 0.7057 0.3216
vn -0.5732 0.7057 0.4164
vn -0.3216 0.7057 -0.6313
vn -0.4164 0.7057 -0.5732
vn 0.6313 0.7057 -0.3216
vn 0.5732 0.7057 -0.4164
vn 0.3216 0.7057 0.6313
vn 0.4164 0.7057 0.5732
vn -0.3216 0.7057 0.6313
vn -0.2189 0.7057 0.6738
vn -0.6313 0.7057 -0.3216
vn -0.6738 0.7057 -0.2189
vn 0.3216 0.7057 -0.6313
vn 0.2189 0.7057 -0.6738
vn 0.6313 0.7057 0.3216
vn 0.6738 0.7057 0.2189
vn 0.0017 0.9998 0.0201
vn -0.0000 1.0000 -0.0000
vn -0.0015 0.9998 0.0201
vn 0.0308 0.9992 0.0260
vn 0.0264 0.9992 0.0305
vn -0.0349 0.9992 -0.0213
vn -0.0311 0.9992 -0.0265
vn 0.0097 0.9992 0.0391
vn 0.0034 0.9992 0.0402
vn -0.0157 0.9992 -0.0378
vn -0.0096 0.9992 -0.0397
vn -0.0152 0.9992 0.0373
vn -0.0208 0.9992 0.0345
vn 0.0095 0.9992 -0.0398
vn 0.0156 0.9992 -0.0378
vn -0.0342 0.9992 0.0213
vn -0.0371 0.9992 0.0157
vn 0.0311 0.9992 -0.0266
vn 0.0348 0.9992 -0.0214
vn -0.0402 0.9992 -0.0029
vn -0.0393 0.9992 -0.0091
vn 0.0408 0.9992 -0.0032
vn 0.0408 0.9992 0.0032
vn -0.0308 0.9992 -0.0260
vn -0.0264 0.9992 -0.0305
vn 0.0349 0.9992 0.0213
vn 0.0311 0.9992 0.0265
vn 0.0186 0.9998 -0.0078
vn 0.0195 0.9998 -0.0048
vn -0.0165 0.9998 0.0120
vn 0.4164 -0.7057 0.5732
vn -0.7567 -0.6526 0.0388
vn -0.7439 -0.6631 0.0831
vn -0.6998 -0.7057 -0.1108
vn -0.7085 -0.7057 -0.0000
vn 0.6509 -0.0000 0.7592
vn 0.2189 -0.7057 -0.6738
vn 0.1108 -0.7057 -0.6998
vn 1.0000 -0.0000 -0.0000
vn 0.9877 -0.0000 0.1564
vn 0.7085 -0.7057 -0.0000
vn 0.6998 -0.7057 -0.1108
vn 0.6998 -0.7057 0.1108
vn -0.5530 -0.6631 0.5045
vn -0.5894 -0.6526 0.4762
vn 0.5732 -0.7057 -0.4164
vn 0.5010 -0.7057 -0.5010
vn -0.1726 -0.9849 -0.0133
vn -0.1705 -0.9850 -0.0270
vn 0.0261 -0.9992 -0.0307
vn 0.9728 -0.0000 0.2316
vn -0.3090 -0.0000 0.9511
vn 0.3720 -0.6635 0.6491
vn 0.4187 -0.6520 0.6322
vn 0.5722 -0.6429 0.5092
vn 0.5093 -0.6431 0.5719
vn -0.0397 -0.9992 0.0099
vn -0.0407 -0.9992 0.0036
vn 0.2316 -0.0000 0.9728
vn 0.7481 -0.6431 0.1633
vn 0.7622 -0.6429 0.0756
vn 0.7567 -0.6526 -0.0388
vn 0.7439 -0.6631 -0.0831
vn 0.4540 -0.0000 0.8910
vn 0.3090 -0.0000 0.9511
vn -0.9968 -0.0000 -0.0804
vn 0.7363 -0.6722 -0.0782
vn 0.7246 -0.6705 -0.1590
vn -0.1564 -0.0000 -0.9877
vn 0.0373 -0.9992 0.0153
vn -0.0217 -0.9992 -0.0347
vn 0.0186 -0.9998 -0.0078
vn 0.0806 -0.6635 -0.7438
vn 0.0328 -0.6520 -0.7575
vn -0.1636 -0.6429 -0.7483
vn -0.0759 -0.6431 -0.7620
vn -0.0379 -0.9992 -0.0153
vn 0.6313 -0.7057 0.3216
vn 0.6738 -0.7057 0.2189
vn -0.5878 -0.0000 0.8090
vn -0.5878 -0.0000 -0.8090
vn 0.0031 -0.9992 -0.0402
vn -0.5732 -0.7057 0.4164
vn -0.5010 -0.7057 0.5010
vn 0.0201 -0.9998 -0.0033
vn 0.0194 -0.9998 -0.0064
vn 0.0660 -0.9849 -0.1601
vn 0.0784 -0.9850 -0.1538
vn 0.5878 -0.0000 0.8090
vn -0.9728 -0.0000 -0.2316
vn -0.6998 -0.7057 0.1108
vn -0.6738 -0.7057 0.2189
vn 0.7592 -0.0000 0.6509
vn -0.9511 -0.0000 0.3090
vn -0.8090 -0.0000 -0.5878
vn 0.0727 -0.6705 -0.7383
vn 0.1532 -0.6722 -0.7244
vn 0.3216 -0.7057 -0.6313
vn -0.6313 -0.7057 0.3216
vn 0.1319 -0.9849 0.1122
vn 0.1220 -0.9850 0.1220
vn 0.9232 -0.0000 -0.3844
vn 0.1564 -0.0000 0.9877
vn 0.6825 -0.6635 0.3065
vn 0.7103 -0.6520 0.2653
vn 0.2189 -0.7057 0.6738
vn 0.0907 -0.9849 -0.1475
vn -1.0000 -0.0000 -0.0000
vn 0.7071 -0.0000 0.7071
vn 0.7323 -0.6635 -0.1532
vn 0.7306 -0.6520 -0.2028
vn 0.6611 -0.6429 -0.3868
vn 0.7012 -0.6431 -0.3076
vn 0.9511 -0.0000 -0.3090
vn -0.6738 -0.7057 -0.2189
vn -0.0092 -0.9992 0.0398
vn -0.0033 -0.9992 -0.0402
vn 0.5209 -0.0000 -0.8536
vn -0.0804 -0.0000 -0.9968
vn -0.1319 0.9849 -0.1122
vn -0.9232 -0.0000 0.3844
vn -0.0160 -0.9992 -0.0376
vn -0.0182 0.9998 0.0093
vn -0.2189 -0.7057 0.6738
vn -0.1108 -0.7057 0.6998
vn -0.7592 -0.0000 -0.6509
vn 0.0017 -0.9998 0.0201
vn -0.0407 0.9849 -0.1683
vn -0.3720 -0.6635 -0.6491
vn -0.4187 -0.6520 -0.6322
vn -0.5209 -0.0000 0.8536
vn -0.8536 -0.0000 0.5209
vn 0.0407 -0.9849 0.1683
vn 0.0270 -0.9850 0.1705
vn 0.6738 -0.7057 -0.2189
vn 0.5894 -0.6526 -0.4762
vn 0.5530 -0.6631 -0.5045
vn 0.0660 0.9849 -0.1601
vn -0.2189 -0.7057 -0.6738
vn 0.0171 -0.9998 -0.0106
vn 0.3216 -0.7057 0.6313
vn -0.0373 -0.9992 -0.0153
vn 0.5024 -0.6635 -0.5544
vn 0.4718 -0.6520 -0.5935
vn 0.3075 -0.6429 -0.7015
vn 0.3865 -0.6431 -0.6610
vn 0.1475 -0.9849 -0.0907
vn 0.1538 -0.9850 -0.0784
vn -0.0407 -0.9849 -0.1683
vn -0.0270 -0.9850 -0.1705
vn 0.1475 0.9849 -0.0907
vn 0.4164 -0.7057 -0.5732
vn 0.0392 -0.9992 -0.0095
vn 0.1726 -0.9849 0.0133
vn 0.1705 -0.9850 0.0270
vn -0.1565 -0.0000 -0.9877
vn 0.1565 -0.0000 0.9877
vn 0.1726 0.9849 0.0133
vn -0.2316 -0.0000 -0.9728
vn -0.0000 -0.0000 -1.0000
vn 0.1319 0.9849 0.1122
vn -0.0660 -0.9849 0.1601
vn -0.0784 -0.9850 0.1538
vn -0.3844 -0.0000 0.9232
vn 0.0407 0.9849 0.1683
vn 0.0048 -0.9998 0.0196
vn 0.5497 -0.6722 -0.4960
vn 0.4928 -0.6705 -0.5546
vn 0.0372 -0.9992 -0.0155
vn 0.6313 -0.7057 -0.3216
vn -0.0660 0.9849 0.1601
vn 0.3844 -0.0000 -0.9232
vn 0.1508 -0.6631 -0.7332
vn 0.1970 -0.6526 -0.7317
vn -0.0907 -0.9849 0.1475
vn 0.0133 -0.9849 0.1726
vn 0.1683 -0.9849 0.0407
vn 0.1122 -0.9849 0.1319
vn -0.1475 0.9849 0.0907
vn -0.0029 -0.9992 0.0408
vn -0.0133 -0.9849 -0.1726
vn -0.1683 -0.9849 -0.0407
vn -0.1122 -0.9849 -0.1319
vn -0.1601 -0.9849 0.0660
vn 0.8536 -0.0000 -0.5209
vn 0.1601 -0.9849 -0.0660
vn -0.1726 0.9849 -0.0133
vt 0.648188 0.236576
vt 0.627969 0.236576
vt 0.627969 0.170676
vt 0.648188 0.170676
vt 0.351278 0.267247
vt 0.351278 0.236576
vt 0.371497 0.236576
vt 0.371497 0.267247
vt 0.568417 0.327135
vt 0.568417 0.276884
vt 0.584992 0.276884
vt 0.584992 0.327135
vt 0.627969 0.140884
vt 0.648188 0.140884
vt 0.119365 0.629058
vt 0.119365 0.604886
vt 0.138370 0.604886
vt 0.138370 0.629058
vt 0.846128 0.236576
vt 0.825909 0.236576
vt 0.825909 0.170676
vt 0.846128 0.170676
vt 0.353330 0.505523
vt 0.353330 0.555776
vt 0.268378 0.542738
vt 0.268378 0.518561
vt 0.034148 0.267247
vt 0.034148 0.236576
vt 0.054367 0.236576
vt 0.054367 0.267247
vt 0.924879 0.236576
vt 0.895613 0.236576
vt 0.895613 0.170676
vt 0.924879 0.170676
vt 0.551843 0.327135
vt 0.551843 0.276884
vt 0.856363 0.615059
vt 0.856363 0.590886
vt 0.875370 0.590886
vt 0.875370 0.615059
vt 0.450248 0.267247
vt 0.450248 0.236576
vt 0.470467 0.236576
vt 0.470467 0.267247
vt 0.965318 0.140884
vt 0.994583 0.140884
vt 0.994583 0.170677
vt 0.965318 0.170677
vt 0.173557 0.236576
vt 0.173557 0.170676
vt 0.202822 0.170676
vt 0.202822 0.236576
vt 0.203778 0.327135
vt 0.203778 0.276884
vt 0.220352 0.276884
vt 0.220352 0.327135
vt 0.103852 0.140884
vt 0.133118 0.140884
vt 0.133118 0.170676
vt 0.103852 0.170676
vt 0.120905 0.327135
vt 0.120905 0.276884
vt 0.137479 0.276884
vt 0.137479 0.327135
vt 0.817797 0.467892
vt 0.841977 0.467892
vt 0.841977 0.486905
vt 0.817797 0.486905
vt 0.173557 0.267247
vt 0.202822 0.267247
vt 0.627969 0.267247
vt 0.648188 0.267247
vt 0.988682 0.378437
vt 0.994263 0.429814
vt 0.914650 0.397445
vt 0.914649 0.378437
vt 0.646345 0.410921
vt 0.594965 0.416502
vt 0.627336 0.336883
vt 0.646345 0.336883
vt 0.295576 0.579915
vt 0.345826 0.579915
vt 0.345826 0.594945
vt 0.295576 0.594945
vt 0.200115 0.496917
vt 0.148737 0.502499
vt 0.181107 0.422883
vt 0.200116 0.422883
vt 0.994991 0.301914
vt 0.944727 0.301914
vt 0.944727 0.286879
vt 0.994991 0.286879
vt 0.453963 0.343148
vt 0.505341 0.337566
vt 0.472971 0.417182
vt 0.453963 0.417182
vt 0.124224 0.426884
vt 0.124224 0.477142
vt 0.109191 0.477142
vt 0.109191 0.426884
vt 0.358447 0.496925
vt 0.307068 0.502507
vt 0.339438 0.422889
vt 0.358447 0.422888
vt 0.537518 0.599912
vt 0.487264 0.599912
vt 0.487264 0.584880
vt 0.537518 0.584880
vt 0.137551 0.343153
vt 0.188930 0.337572
vt 0.156560 0.417189
vt 0.137551 0.417189
vt 0.942026 0.583914
vt 0.891776 0.583914
vt 0.891776 0.568884
vt 0.942026 0.568884
vt 0.058437 0.496917
vt 0.007060 0.502498
vt 0.039429 0.422882
vt 0.058437 0.422882
vt 0.977855 0.532885
vt 0.977855 0.583140
vt 0.962823 0.583140
vt 0.962823 0.532885
vt 0.279343 0.429149
vt 0.330720 0.423568
vt 0.298351 0.503182
vt 0.279343 0.503181
vt 0.450515 0.441913
vt 0.400260 0.441913
vt 0.400260 0.426880
vt 0.450515 0.426880
vt 0.729228 0.283154
vt 0.780609 0.277572
vt 0.748237 0.357193
vt 0.729228 0.357193
vt 0.055135 0.579917
vt 0.004880 0.579917
vt 0.004880 0.564885
vt 0.055135 0.564885
vt 0.510297 0.466918
vt 0.458921 0.472500
vt 0.491289 0.392887
vt 0.510297 0.392887
vt 0.202820 0.131248
vt 0.173554 0.131248
vt 0.173554 0.100576
vt 0.202820 0.100576
vt 0.153335 0.131248
vt 0.133115 0.131248
vt 0.133115 0.100576
vt 0.153335 0.100576
vt 0.103850 0.131248
vt 0.074584 0.131248
vt 0.074584 0.100576
vt 0.103850 0.100576
vt 0.054365 0.131248
vt 0.034145 0.131248
vt 0.034145 0.100576
vt 0.054365 0.100576
vt 0.994580 0.131248
vt 0.965315 0.131248
vt 0.965315 0.100576
vt 0.994580 0.100576
vt 0.945095 0.131248
vt 0.924876 0.131248
vt 0.924876 0.100576
vt 0.945095 0.100576
vt 0.895610 0.131248
vt 0.866344 0.131248
vt 0.866344 0.100576
vt 0.895610 0.100576
vt 0.846125 0.131248
vt 0.825906 0.131248
vt 0.825906 0.100576
vt 0.846125 0.100576
vt 0.796640 0.131248
vt 0.767374 0.131248
vt 0.767374 0.100576
vt 0.796640 0.100576
vt 0.747155 0.131248
vt 0.726936 0.131248
vt 0.726936 0.100576
vt 0.747155 0.100576
vt 0.697670 0.131248
vt 0.668404 0.131248
vt 0.668404 0.100576
vt 0.697670 0.100576
vt 0.648185 0.131248
vt 0.627966 0.131248
vt 0.627966 0.100576
vt 0.648185 0.100576
vt 0.598700 0.131248
vt 0.569434 0.131248
vt 0.569434 0.100576
vt 0.598700 0.100576
vt 0.549215 0.131248
vt 0.528996 0.131248
vt 0.528996 0.100576
vt 0.549215 0.100576
vt 0.499730 0.131248
vt 0.470464 0.131248
vt 0.470464 0.100576
vt 0.499730 0.100576
vt 0.450245 0.131248
vt 0.430026 0.131248
vt 0.430026 0.100576
vt 0.450245 0.100576
vt 0.400760 0.131248
vt 0.371494 0.131248
vt 0.371494 0.100576
vt 0.400760 0.100576
vt 0.351275 0.131248
vt 0.331056 0.131248
vt 0.331056 0.100576
vt 0.351275 0.100576
vt 0.301790 0.131248
vt 0.272524 0.131248
vt 0.272524 0.100576
vt 0.301790 0.100576
vt 0.252305 0.131248
vt 0.232086 0.131248
vt 0.232086 0.100576
vt 0.252305 0.100576
vt 0.866347 0.140884
vt 0.895613 0.140884
vt 0.866347 0.170676
vt 0.153337 0.236576
vt 0.153337 0.170676
vt 0.549218 0.140884
vt 0.569437 0.140884
vt 0.569437 0.170676
vt 0.549218 0.170676
vt 0.499733 0.267247
vt 0.499733 0.236576
vt 0.528999 0.236576
vt 0.528999 0.267247
vt 0.303225 0.327135
vt 0.303225 0.276884
vt 0.319799 0.276884
vt 0.319799 0.327135
vt 0.452396 0.327135
vt 0.452396 0.276884
vt 0.468970 0.276884
vt 0.468970 0.327135
vt 0.287761 0.554569
vt 0.287761 0.578745
vt 0.202811 0.591783
vt 0.202811 0.541531
vt 0.450515 0.456946
vt 0.400260 0.456946
vt 0.272527 0.267247
vt 0.272527 0.236576
vt 0.301793 0.236576
vt 0.301793 0.267247
vt 0.598703 0.236576
vt 0.598703 0.170676
vt 0.252308 0.267247
vt 0.252308 0.236576
vt 0.796643 0.236576
vt 0.767377 0.236576
vt 0.767377 0.170676
vt 0.796643 0.170676
vt 0.945099 0.170677
vt 0.945098 0.236576
vt 0.470467 0.140884
vt 0.499733 0.140884
vt 0.499733 0.170676
vt 0.470467 0.170676
vt 0.250626 0.592880
vt 0.274803 0.592880
vt 0.274803 0.611889
vt 0.250626 0.611889
vt 0.595581 0.599915
vt 0.545332 0.599915
vt 0.545332 0.584884
vt 0.595581 0.584884
vt 0.369523 0.327135
vt 0.369523 0.276884
vt 0.386098 0.276884
vt 0.386098 0.327135
vt 0.103852 0.267247
vt 0.103852 0.236576
vt 0.133118 0.236576
vt 0.133118 0.267247
vt 0.725026 0.482744
vt 0.725026 0.458565
vt 0.809989 0.445525
vt 0.809989 0.495784
vt 0.549218 0.236576
vt 0.549218 0.267247
vt 0.598703 0.140884
vt 0.007060 0.416499
vt 0.039430 0.336881
vt 0.058439 0.336881
vt 0.058439 0.410917
vt 0.871608 0.389064
vt 0.951221 0.421432
vt 0.951221 0.440440
vt 0.877189 0.440440
vt 0.400763 0.267247
vt 0.400763 0.236576
vt 0.430029 0.236576
vt 0.430029 0.267247
vt 0.021458 0.327135
vt 0.021458 0.276884
vt 0.038032 0.276884
vt 0.038032 0.327135
vt 0.400763 0.170676
vt 0.430029 0.170676
vt 0.402672 0.327135
vt 0.402672 0.276884
vt 0.419247 0.276884
vt 0.419247 0.327135
vt 0.499730 0.004885
vt 0.499730 0.034677
vt 0.470464 0.034677
vt 0.470464 0.004885
vt 0.153337 0.267247
vt 0.252305 0.004885
vt 0.252305 0.034677
vt 0.232086 0.034677
vt 0.232086 0.004885
vt 0.747155 0.004885
vt 0.747155 0.034677
vt 0.726936 0.034677
vt 0.726936 0.004885
vt 0.994580 0.004885
vt 0.994580 0.034677
vt 0.965315 0.034677
vt 0.965315 0.004885
vt 0.153335 0.004885
vt 0.153335 0.034677
vt 0.133115 0.034677
vt 0.133115 0.004885
vt 0.400760 0.004885
vt 0.400760 0.034677
vt 0.371494 0.034677
vt 0.371494 0.004885
vt 0.054365 0.004885
vt 0.054365 0.034677
vt 0.034145 0.034677
vt 0.034145 0.004885
vt 0.648185 0.004885
vt 0.648185 0.034677
vt 0.627966 0.034677
vt 0.627966 0.004885
vt 0.895610 0.004885
vt 0.895610 0.034677
vt 0.866344 0.034677
vt 0.866344 0.004885
vt 0.301790 0.004885
vt 0.301790 0.034677
vt 0.272524 0.034677
vt 0.272524 0.004885
vt 0.549215 0.004885
vt 0.549215 0.034677
vt 0.528996 0.034677
vt 0.528996 0.004885
vt 0.796640 0.004885
vt 0.796640 0.034677
vt 0.767374 0.034677
vt 0.767374 0.004885
vt 0.202820 0.004885
vt 0.202820 0.034677
vt 0.173554 0.034677
vt 0.173554 0.004885
vt 0.450245 0.004885
vt 0.450245 0.034677
vt 0.430026 0.034677
vt 0.430026 0.004885
vt 0.697670 0.004885
vt 0.697670 0.034677
vt 0.668404 0.034677
vt 0.668404 0.004885
vt 0.945095 0.004885
vt 0.945095 0.034677
vt 0.924876 0.034677
vt 0.924876 0.004885
vt 0.103850 0.004885
vt 0.103850 0.034677
vt 0.074584 0.034677
vt 0.074584 0.004885
vt 0.351275 0.004885
vt 0.351275 0.034677
vt 0.331056 0.034677
vt 0.331056 0.004885
vt 0.598700 0.004885
vt 0.598700 0.034677
vt 0.569434 0.034677
vt 0.569434 0.004885
vt 0.846125 0.004885
vt 0.846125 0.034677
vt 0.825906 0.034677
vt 0.825906 0.004885
vt 0.004880 0.100576
vt 0.004880 0.034677
vt 0.074587 0.140884
vt 0.074587 0.170676
vt 0.232088 0.236576
vt 0.232088 0.267247
vt 0.697673 0.140884
vt 0.726939 0.140884
vt 0.726939 0.170676
vt 0.697673 0.170676
vt 0.611331 0.478881
vt 0.635508 0.478881
vt 0.648547 0.563837
vt 0.598292 0.563837
vt 0.430029 0.140884
vt 0.450248 0.140884
vt 0.450248 0.170676
vt 0.502119 0.327135
vt 0.502119 0.276884
vt 0.518694 0.276884
vt 0.518694 0.327135
vt 0.535268 0.327135
vt 0.535268 0.276884
vt 0.232088 0.140884
vt 0.252308 0.140884
vt 0.252308 0.170676
vt 0.232088 0.170676
vt 0.202822 0.140884
vt 0.331058 0.267247
vt 0.331058 0.236576
vt 0.331058 0.140884
vt 0.351278 0.140884
vt 0.351278 0.170676
vt 0.331058 0.170676
vt 0.165267 0.416503
vt 0.197640 0.336878
vt 0.216651 0.336879
vt 0.216650 0.410920
vt 0.817797 0.448880
vt 0.841977 0.448880
vt 0.569437 0.236576
vt 0.861455 0.554569
vt 0.861455 0.578744
vt 0.776505 0.591783
vt 0.776505 0.541530
vt 0.054607 0.276884
vt 0.054607 0.327135
vt 0.569437 0.267247
vt 0.598703 0.267247
vt 0.528999 0.170676
vt 0.479444 0.553527
vt 0.479444 0.603782
vt 0.394488 0.590743
vt 0.394488 0.566566
vt 0.697673 0.267247
vt 0.697673 0.236576
vt 0.726939 0.236576
vt 0.726939 0.267247
vt 0.634716 0.327135
vt 0.634716 0.276884
vt 0.651290 0.276884
vt 0.651290 0.327135
vt 0.650069 0.421529
vt 0.650069 0.471782
vt 0.565116 0.458744
vt 0.565116 0.434567
vt 0.994991 0.316949
vt 0.944727 0.316949
vt 0.747158 0.236576
vt 0.747158 0.267247
vt 0.641410 0.584880
vt 0.641410 0.609057
vt 0.622400 0.609057
vt 0.622400 0.584880
vt 0.371497 0.170676
vt 0.272527 0.170676
vt 0.965318 0.267247
vt 0.965318 0.236576
vt 0.994583 0.236576
vt 0.994583 0.267247
vt 0.153337 0.140884
vt 0.173557 0.140884
vt 0.071181 0.327135
vt 0.071181 0.276884
vt 0.087756 0.276884
vt 0.087756 0.327135
vt 0.270076 0.327135
vt 0.270076 0.276884
vt 0.286650 0.276884
vt 0.286650 0.327135
vt 0.668407 0.236576
vt 0.668407 0.170676
vt 0.942026 0.598945
vt 0.891776 0.598945
vt 0.825909 0.140884
vt 0.846128 0.140884
vt 0.034148 0.170676
vt 0.054367 0.170676
vt 0.756954 0.356499
vt 0.789324 0.276883
vt 0.808333 0.276882
vt 0.808333 0.350917
vt 0.618141 0.327135
vt 0.618141 0.276884
vt 0.741850 0.562563
vt 0.741850 0.586741
vt 0.656895 0.599780
vt 0.656895 0.549524
vt 0.747158 0.140884
vt 0.767377 0.140884
vt 0.747158 0.170676
vt 0.579113 0.523527
vt 0.579113 0.573786
vt 0.494151 0.560746
vt 0.494151 0.536567
vt 0.435821 0.327135
vt 0.435821 0.276884
vt 0.154054 0.327135
vt 0.154054 0.276884
vt 0.170629 0.276884
vt 0.170629 0.327135
vt 0.253501 0.327135
vt 0.253501 0.276884
vt 0.945098 0.267247
vt 0.400763 0.140884
vt 0.796643 0.140884
vt 0.347133 0.337567
vt 0.314763 0.417183
vt 0.295755 0.417183
vt 0.295755 0.343148
vt 0.777286 0.532742
vt 0.777286 0.508566
vt 0.862238 0.495528
vt 0.862238 0.545781
vt 0.667865 0.276884
vt 0.667865 0.327135
vt 0.336374 0.276884
vt 0.336374 0.327135
vt 0.295576 0.564884
vt 0.345826 0.564884
vt 0.668407 0.267247
vt 0.055135 0.594950
vt 0.004880 0.594950
vt 0.004882 0.140884
vt 0.034148 0.140884
vt 0.004882 0.170676
vt 0.992887 0.532885
vt 0.992887 0.583140
vt 0.827341 0.276882
vt 0.859711 0.356499
vt 0.187203 0.327135
vt 0.187203 0.276884
vt 0.601567 0.276884
vt 0.601567 0.327135
vt 0.767377 0.267247
vt 0.796643 0.267247
vt 0.368669 0.623141
vt 0.368669 0.572881
vt 0.383703 0.572881
vt 0.383703 0.623141
vt 0.139258 0.426884
vt 0.139258 0.477142
vt 0.004882 0.267247
vt 0.004882 0.236576
vt 0.485545 0.276884
vt 0.485545 0.327135
vt 0.668407 0.140884
vt 0.074587 0.236576
vt 0.597930 0.488562
vt 0.597930 0.512738
vt 0.512978 0.525776
vt 0.512978 0.475523
vt 0.683743 0.544738
vt 0.683743 0.520562
vt 0.768695 0.507524
vt 0.768695 0.557776
vt 0.402585 0.337567
vt 0.434955 0.417182
vt 0.353636 0.623141
vt 0.353636 0.572881
vt 0.110048 0.542745
vt 0.110048 0.518569
vt 0.194999 0.505531
vt 0.194999 0.555783
vt 0.924879 0.140884
vt 0.945099 0.140884
vt 0.870047 0.563783
vt 0.870047 0.513524
vt 0.955010 0.526564
vt 0.955010 0.550743
vt 0.104330 0.327135
vt 0.104330 0.276884
vt 0.004880 0.004885
vt 0.004880 0.131248
vt 0.251494 0.502499
vt 0.219124 0.422883
vt 0.074586 0.267247
vt 0.221956 0.535065
vt 0.221956 0.510888
vt 0.240965 0.510888
vt 0.240965 0.535065
vt 0.004887 0.546742
vt 0.004887 0.522569
vt 0.089829 0.509532
vt 0.089829 0.559779
vt 0.991105 0.473524
vt 0.991105 0.523784
vt 0.906141 0.510744
vt 0.906141 0.486564
vt 0.042897 0.604884
vt 0.042897 0.629057
vt 0.023890 0.629057
vt 0.023890 0.604884
vt 0.323482 0.416498
vt 0.355853 0.336880
vt 0.374862 0.336880
vt 0.374862 0.410916
vt 0.272527 0.140884
vt 0.825909 0.267247
vt 0.697725 0.416502
vt 0.665354 0.336884
vt 0.528999 0.140884
vt 0.301793 0.170676
vt 0.054367 0.140884
vt 0.866347 0.236576
vt 0.866347 0.267247
vt 0.895613 0.267247
vt 0.787401 0.363568
vt 0.755032 0.443185
vt 0.736023 0.443184
vt 0.736023 0.369150
vt 0.938813 0.277572
vt 0.906444 0.357187
vt 0.887435 0.357187
vt 0.887435 0.283154
vt 0.994263 0.327061
vt 0.914649 0.359429
vt 0.371497 0.140884
vt 0.618626 0.337561
vt 0.586257 0.417178
vt 0.567248 0.417178
vt 0.567248 0.343143
vt 0.603391 0.609057
vt 0.603391 0.584880
vt 0.595581 0.614945
vt 0.545332 0.614945
vt 0.537518 0.614944
vt 0.487264 0.614944
vt 0.202946 0.535065
vt 0.202946 0.510888
vt 0.004883 0.629057
vt 0.004884 0.604884
vt 0.561673 0.472500
vt 0.529305 0.392886
vt 0.236927 0.327135
vt 0.236927 0.276884
vt 0.097646 0.599781
vt 0.097646 0.549525
vt 0.182603 0.562564
vt 0.182603 0.586741
vt 0.157376 0.604886
vt 0.157376 0.629058
vt 0.974013 0.611893
vt 0.949836 0.611893
vt 0.949836 0.592884
vt 0.974013 0.592884
vt 0.352949 0.327135
vt 0.352949 0.276884
vt 0.677847 0.277572
vt 0.710218 0.357193
vt 0.004883 0.327135
vt 0.004883 0.276884
vt 0.763746 0.442500
vt 0.796114 0.362887
vt 0.815122 0.362887
vt 0.815122 0.436919
vt 0.087126 0.587890
vt 0.062952 0.587890
vt 0.062952 0.568883
vt 0.087126 0.568883
vt 0.702835 0.509843
vt 0.652579 0.509843
vt 0.665618 0.424885
vt 0.689796 0.424885
vt 0.165186 0.629057
vt 0.165186 0.604880
vt 0.184195 0.604880
vt 0.184195 0.629057
vt 0.227967 0.423568
vt 0.260335 0.503181
vt 0.274803 0.630899
vt 0.250626 0.630899
vt 0.846128 0.267247
vt 0.203204 0.604880
vt 0.203204 0.629057
vt 0.301793 0.140884
vt 0.109815 0.502498
vt 0.077445 0.422883
vt 0.505165 0.475523
vt 0.505165 0.525779
vt 0.420208 0.512739
vt 0.420208 0.488562
vt 0.924879 0.267247
vt 0.834130 0.362887
vt 0.866498 0.442500
vt 0.393871 0.336880
vt 0.426241 0.416498
vt 0.548239 0.417177
vt 0.515870 0.337561
vt 0.974013 0.630903
vt 0.949836 0.630903
vt 0.276746 0.417183
vt 0.244376 0.337567
vt 0.086172 0.337571
vt 0.118542 0.417189
vt 0.868427 0.357187
vt 0.836058 0.277572
vt 0.235661 0.336879
vt 0.268033 0.416502
vt 0.077448 0.336881
vt 0.109818 0.416499
vt 0.951221 0.459448
vt 0.871608 0.491816
vt 0.361146 0.563778
vt 0.361146 0.513528
vt 0.446093 0.526566
vt 0.446093 0.550740
vt 0.717015 0.443184
vt 0.684645 0.363568
vt 0.409826 0.502507
vt 0.377456 0.422888
vt 0.837356 0.615059
vt 0.837356 0.590886
vt 0.087126 0.606897
vt 0.062952 0.606897
s 1
f 296/1/1 158/2/2 188/3/3 298/4/3
f 349/5/4 350/6/5 153/7/6 113/8/7
f 203/9/8 207/10/8 178/11/9 78/12/9
f 168/13/10 297/14/11 298/4/11 188/3/10
f 22/15/12 122/16/12 269/17/12 264/18/12
f 260/19/13 142/20/14 184/21/3 262/22/3
f 3/23/15 103/24/15 124/25/15 24/26/15
f 106/27/16 146/28/17 224/29/18 223/30/19
f 144/31/3 252/32/20 254/33/3 182/34/3
f 77/35/21 177/36/21 207/10/8 203/9/8
f 336/37/22 341/38/22 133/39/22 33/40/22
f 331/41/23 332/42/24 155/43/25 115/44/26
f 161/45/27 235/46/28 236/47/28 181/48/27
f 149/49/3 197/50/3 380/51/3 378/52/3
f 284/53/29 289/54/29 167/55/30 67/56/30
f 217/57/31 178/58/32 198/59/32 218/60/31
f 64/61/33 164/62/33 271/63/34 266/64/34
f 210/65/35 215/66/35 127/67/35 27/68/35
f 109/69/36 149/49/37 378/52/38 376/70/39
f 118/71/40 158/2/41 296/1/42 295/72/43
f 263/73/44 1/74/45 22/75/45 264/76/44
f 245/77/46 3/78/47 24/79/47 246/80/46
f 273/81/48 277/82/48 101/83/48 1/84/48
f 227/85/49 5/86/50 26/87/50 228/88/49
f 255/89/51 259/90/51 103/91/51 3/92/51
f 209/93/52 7/94/53 28/95/53 210/96/52
f 237/97/54 241/98/54 105/99/54 5/100/54
f 371/101/55 9/102/56 30/103/56 372/104/55
f 219/105/57 223/106/57 107/107/57 7/108/57
f 353/109/58 11/110/59 32/111/59 354/112/58
f 201/113/60 205/114/60 109/115/60 9/116/60
f 335/117/61 13/118/62 34/119/62 336/120/61
f 363/121/63 367/122/63 111/123/63 11/124/63
f 317/125/64 15/126/65 36/127/65 318/128/64
f 345/129/66 349/130/66 113/131/66 13/132/66
f 299/133/67 17/134/68 38/135/68 300/136/67
f 327/137/69 331/138/69 115/139/69 15/140/69
f 281/141/70 19/142/71 40/143/71 282/144/70
f 263/145/72 2/146/73 42/147/74 265/148/75
f 255/149/76 3/150/77 43/151/78 256/152/79
f 245/153/80 4/154/81 44/155/82 247/156/83
f 237/157/84 5/158/85 45/159/86 238/160/87
f 227/161/88 6/162/89 46/163/90 229/164/91
f 219/165/92 7/166/93 47/167/94 220/168/95
f 209/169/96 8/170/97 48/171/98 211/172/99
f 201/173/100 9/174/101 49/175/102 202/176/103
f 371/177/104 10/178/105 50/179/106 373/180/107
f 363/181/108 11/182/109 51/183/110 364/184/111
f 353/185/112 12/186/113 52/187/114 355/188/115
f 345/189/116 13/190/117 53/191/118 346/192/119
f 335/193/120 14/194/121 54/195/122 337/196/123
f 327/197/124 15/198/125 55/199/126 328/200/127
f 317/201/128 16/202/129 56/203/130 319/204/131
f 309/205/132 17/206/133 57/207/134 310/208/135
f 299/209/136 18/210/137 58/211/138 301/212/139
f 291/213/140 19/214/141 59/215/142 292/216/143
f 281/217/144 20/218/145 60/219/146 283/220/147
f 273/221/148 1/222/149 41/223/150 274/224/151
f 163/225/152 253/226/153 254/33/153 183/227/152
f 206/228/3 208/229/3 197/50/3 149/49/3
f 315/230/154 169/231/155 189/232/155 316/233/154
f 322/234/156 324/235/157 156/236/158 116/237/159
f 311/238/57 315/239/57 170/240/160 70/241/160
f 74/242/161 174/243/161 361/244/12 356/245/12
f 23/246/162 123/247/162 104/248/162 4/249/162
f 12/250/66 112/251/66 349/130/66 345/129/66
f 111/252/163 151/253/164 360/254/165 358/255/166
f 158/2/2 306/256/167 308/257/3 188/3/3
f 367/258/168 368/259/169 151/253/164 111/252/163
f 270/260/170 141/261/171 185/262/3 272/263/3
f 144/31/3 182/34/3 244/264/3 242/265/3
f 171/266/172 325/267/173 326/268/173 191/269/172
f 30/270/29 130/271/29 377/272/29 372/273/29
f 291/274/8 295/275/8 119/276/8 19/277/8
f 329/278/54 333/279/54 172/280/174 72/281/174
f 214/282/175 216/283/176 148/284/177 108/285/178
f 31/286/179 131/287/179 112/288/179 12/289/179
f 116/237/159 156/236/158 314/290/180 313/291/181
f 169/231/155 307/292/182 308/257/182 189/232/155
f 108/293/183 127/294/183 215/295/184 214/296/184
f 112/297/185 131/298/185 359/299/186 358/300/186
f 340/301/187 342/302/188 154/303/189 114/304/190
f 61/305/191 161/306/191 243/307/69 239/308/69
f 307/292/182 168/13/10 188/3/10 308/257/182
f 154/303/192 342/302/193 344/309/3 192/310/3
f 338/311/194 343/312/194 173/313/195 73/314/195
f 320/315/196 321/316/196 90/317/197 70/318/197
f 205/319/198 206/228/199 149/49/37 109/69/36
f 275/320/200 276/321/200 85/322/201 65/323/201
f 365/324/202 366/325/202 95/326/203 75/327/203
f 230/328/204 231/329/204 100/330/205 80/331/205
f 257/332/206 258/333/206 83/334/207 63/335/207
f 302/336/208 303/337/208 88/338/209 68/339/209
f 239/340/210 240/341/210 81/342/211 61/343/211
f 347/344/212 348/345/212 93/346/213 73/347/213
f 212/348/214 213/349/214 98/350/215 78/351/215
f 284/352/216 285/353/216 86/354/217 66/355/217
f 329/356/218 330/357/218 91/358/219 71/359/219
f 374/360/220 375/361/220 96/362/221 76/363/221
f 266/364/222 267/365/222 84/366/223 64/367/223
f 311/368/224 312/369/224 89/370/225 69/371/225
f 356/372/226 357/373/226 94/374/227 74/375/227
f 221/376/228 222/377/228 99/378/229 79/379/229
f 248/380/230 249/381/230 82/382/231 62/383/231
f 293/384/232 294/385/232 87/386/233 67/387/233
f 338/388/234 339/389/234 92/390/235 72/391/235
f 203/392/236 204/393/236 97/394/237 77/395/237
f 229/396/238 231/397/239 81/342/239 45/159/240
f 238/160/239 45/159/240 81/342/239 240/341/239
f 247/156/241 249/381/239 83/334/239 43/151/242
f 256/152/243 258/333/239 84/366/239 42/147/244
f 265/148/245 267/365/239 85/322/239 41/223/246
f 274/224/247 276/321/239 86/354/239 60/219/248
f 283/220/249 285/353/239 87/386/239 59/215/250
f 292/216/251 294/385/239 88/338/239 58/211/252
f 301/212/253 303/337/239 89/370/239 57/207/254
f 310/208/255 312/369/239 90/317/239 56/203/256
f 319/204/257 321/316/239 91/358/239 55/199/258
f 328/200/259 330/357/239 92/390/239 54/195/260
f 337/196/261 339/389/239 93/346/239 53/191/262
f 346/192/263 348/345/239 94/374/239 52/187/264
f 355/188/265 357/373/239 95/326/239 51/183/266
f 364/184/239 51/183/266 95/326/239 366/325/239
f 373/180/239 50/179/239 96/362/239 375/361/239
f 202/176/239 49/175/239 97/394/239 204/393/239
f 211/172/239 48/171/239 98/350/239 213/349/239
f 220/168/267 47/167/239 99/378/239 222/377/239
f 179/398/268 217/57/31 218/60/31 199/399/268
f 376/70/39 378/52/38 150/400/269 110/401/270
f 289/402/271 166/403/272 186/404/272 290/405/271
f 33/406/273 133/407/273 114/408/273 14/409/273
f 114/304/190 154/303/189 332/42/24 331/41/23
f 172/410/274 333/411/275 334/412/275 192/310/274
f 148/284/3 198/59/3 208/229/3 206/228/3
f 365/413/48 369/414/48 176/415/276 76/416/276
f 374/417/277 379/418/277 177/36/21 77/35/21
f 176/419/278 369/420/279 370/421/279 196/422/278
f 378/52/3 380/51/3 196/422/3 150/400/3
f 379/423/280 176/419/278 196/422/278 380/51/280
f 333/411/275 171/266/172 191/269/172 334/412/275
f 112/424/281 152/425/282 350/6/5 349/5/4
f 174/426/283 351/427/284 352/428/284 194/429/283
f 110/430/285 129/431/285 377/432/286 376/433/286
f 28/434/35 128/435/35 215/66/35 210/65/35
f 306/256/167 157/436/287 189/232/3 308/257/3
f 35/437/288 135/438/288 116/439/288 16/440/288
f 239/308/69 243/307/69 162/441/289 62/442/289
f 117/443/290 157/436/291 306/256/292 304/444/293
f 216/283/3 218/60/3 198/59/3 148/284/3
f 314/290/294 156/236/295 190/445/3 316/233/3
f 113/8/7 153/7/6 342/302/188 340/301/187
f 19/446/296 119/447/296 140/448/296 40/449/296
f 286/450/297 288/451/298 160/452/299 120/453/300
f 221/454/301 225/455/301 180/456/302 80/457/302
f 13/458/303 113/459/303 134/460/303 34/461/303
f 2/462/51 102/463/51 259/90/51 255/89/51
f 120/453/300 160/452/299 278/464/304 277/465/305
f 26/466/306 126/467/306 233/468/306 228/469/306
f 153/7/307 350/6/308 352/428/3 193/470/3
f 368/259/3 370/421/3 195/471/3 151/253/309
f 105/472/310 145/473/311 234/474/312 232/475/313
f 332/42/314 154/303/192 192/310/3 334/412/3
f 207/476/315 177/477/316 197/50/316 208/229/315
f 248/478/22 253/479/22 163/480/317 63/481/317
f 302/482/35 307/483/35 169/484/318 69/485/318
f 159/486/319 296/1/1 298/4/3 187/487/3
f 8/488/60 108/489/60 205/114/60 201/113/60
f 164/490/320 261/491/321 262/22/321 184/21/320
f 146/28/322 200/492/3 226/493/3 224/29/323
f 104/494/324 123/495/324 251/496/325 250/497/325
f 79/498/326 179/499/326 225/455/301 221/454/301
f 25/500/327 125/501/327 106/502/327 6/503/327
f 72/281/174 172/280/174 343/312/194 338/311/194
f 279/504/328 165/505/329 185/262/329 280/506/328
f 1/507/330 101/508/330 122/509/330 22/510/330
f 347/511/51 351/512/51 174/243/161 74/242/161
f 65/513/331 165/514/331 279/515/63 275/516/63
f 342/302/193 153/7/307 193/470/3 344/309/3
f 68/517/332 168/518/332 307/483/35 302/482/35
f 241/519/333 242/265/334 145/473/311 105/472/310
f 343/520/335 172/410/274 192/310/274 344/309/335
f 165/505/329 271/521/336 272/263/336 185/262/329
f 118/522/337 137/523/337 305/524/338 304/525/338
f 37/526/339 137/527/339 118/528/339 18/529/339
f 73/314/195 173/313/195 351/512/51 347/511/51
f 80/457/302 180/456/302 235/530/340 230/531/340
f 70/241/160 170/240/160 325/532/306 320/533/306
f 20/534/48 120/535/48 277/82/48 273/81/48
f 119/536/341 159/486/342 288/451/298 286/450/297
f 14/537/69 114/538/69 331/138/69 327/137/69
f 235/539/28 180/540/343 200/492/343 236/541/28
f 10/542/63 110/543/63 367/122/63 363/121/63
f 250/497/325 251/496/325 124/544/344 103/545/344
f 166/403/272 279/504/328 280/506/328 186/404/272
f 66/546/345 166/547/345 289/54/29 284/53/29
f 78/12/9 178/11/9 217/548/346 212/549/346
f 101/550/347 141/261/348 270/260/349 268/551/350
f 309/552/301 313/553/301 117/554/301 17/555/301
f 4/556/54 104/557/54 241/98/54 237/97/54
f 232/558/313 234/559/312 146/28/17 106/27/16
f 356/245/12 361/244/12 175/560/351 75/561/351
f 297/14/11 167/562/352 187/487/352 298/4/11
f 48/171/239 202/176/239 204/393/239 98/350/239
f 78/351/215 98/350/215 204/393/236 203/392/236
f 313/291/181 314/290/180 157/436/291 117/443/290
f 8/170/97 201/173/100 202/176/103 48/171/98
f 224/29/323 226/493/3 199/399/3 147/563/3
f 160/452/353 288/451/354 290/405/3 186/404/3
f 39/564/355 139/565/355 120/566/355 20/567/355
f 110/401/270 150/400/269 368/259/169 367/258/168
f 21/568/356 121/569/356 102/570/356 2/571/356
f 47/167/239 211/172/239 213/349/239 99/378/239
f 79/379/229 99/378/229 213/349/214 212/348/214
f 157/436/287 314/290/294 316/233/3 189/232/3
f 7/166/93 209/169/96 211/172/99 47/167/94
f 8/572/357 209/93/52 210/96/52 27/573/357
f 16/574/301 116/575/301 313/553/301 309/552/301
f 115/44/26 155/43/25 324/235/157 322/234/156
f 27/576/358 127/577/358 108/578/358 8/579/358
f 350/6/308 152/425/359 194/429/3 352/428/3
f 46/163/360 220/168/267 222/377/239 100/330/239
f 80/331/205 100/330/205 222/377/228 221/376/228
f 277/465/305 278/464/304 141/261/348 101/550/347
f 6/162/89 219/165/92 220/168/95 46/163/90
f 162/580/361 243/581/362 244/264/362 182/34/361
f 142/20/14 270/260/170 272/263/3 184/21/3
f 108/285/178 148/284/177 206/228/199 205/319/198
f 11/582/363 111/583/363 132/584/363 32/585/363
f 257/586/66 261/587/66 164/62/33 64/61/33
f 46/163/360 100/330/239 231/329/239 229/164/238
f 61/343/211 81/342/211 231/397/204 230/588/204
f 242/265/3 244/264/3 181/48/3 145/473/364
f 5/158/85 227/589/88 229/396/91 45/159/86
f 6/590/365 227/85/49 228/88/49 25/591/365
f 107/592/366 147/563/367 216/283/176 214/282/175
f 318/593/340 323/594/340 135/595/340 35/596/340
f 29/597/368 129/598/368 110/599/368 10/600/368
f 15/601/369 115/602/369 136/603/369 36/604/369
f 38/605/346 138/606/346 305/607/346 300/608/346
f 44/155/239 238/160/239 240/341/239 82/382/239
f 62/383/231 82/382/231 240/341/210 239/340/210
f 4/154/81 237/157/84 238/160/87 44/155/82
f 116/609/370 135/610/370 323/611/371 322/612/371
f 304/444/293 306/256/292 158/2/41 118/71/40
f 369/420/279 175/613/372 195/471/372 370/421/279
f 268/551/350 270/260/349 142/20/373 102/614/374
f 44/155/239 82/382/239 249/381/239 247/156/241
f 63/335/207 83/334/207 249/381/230 248/380/230
f 358/255/166 360/254/165 152/425/282 112/424/281
f 3/150/77 245/153/80 247/156/83 43/151/78
f 4/615/375 245/77/46 246/80/46 23/616/375
f 325/267/173 170/617/376 190/445/376 326/268/173
f 360/254/377 151/253/309 195/471/3 362/618/3
f 225/619/378 179/398/268 199/399/268 226/493/378
f 243/581/362 161/45/27 181/48/27 244/264/362
f 43/151/242 83/334/239 258/333/239 256/152/243
f 64/367/223 84/366/223 258/333/206 257/332/206
f 252/32/20 143/620/379 183/227/3 254/33/3
f 2/146/73 255/149/76 256/152/79 42/147/74
f 271/521/336 164/490/320 184/21/320 272/263/336
f 103/621/380 143/620/381 252/32/382 250/622/383
f 102/623/384 121/624/384 269/625/385 268/626/385
f 106/627/386 125/628/386 233/629/387 232/630/387
f 147/563/3 199/399/3 218/60/3 216/283/3
f 42/147/244 84/366/239 267/365/239 265/148/245
f 65/323/201 85/322/201 267/365/222 266/364/222
f 180/540/343 225/619/378 226/493/378 200/492/343
f 1/222/149 263/145/72 265/148/75 41/223/150
f 2/631/388 263/73/44 264/76/44 21/632/388
f 173/633/389 343/520/335 344/309/335 193/470/389
f 152/425/359 360/254/377 362/618/3 194/429/3
f 155/43/390 332/42/314 334/412/3 191/269/3
f 41/223/246 85/322/239 276/321/239 274/224/247
f 66/355/217 86/354/217 276/321/200 275/320/200
f 170/617/376 315/230/154 316/233/154 190/445/376
f 20/218/145 273/221/148 274/224/151 60/219/146
f 120/634/391 139/635/391 287/636/392 286/637/392
f 228/469/306 233/468/306 125/638/393 25/639/393
f 18/640/8 118/641/8 295/275/8 291/274/8
f 6/642/57 106/643/57 223/106/57 219/105/57
f 36/644/394 136/645/394 323/594/340 318/593/340
f 60/219/248 86/354/239 285/353/239 283/220/249
f 67/387/233 87/386/233 285/353/216 284/352/216
f 300/608/346 305/607/346 137/646/346 37/647/346
f 19/214/141 281/217/144 283/220/147 59/215/142
f 20/648/395 281/141/70 282/144/70 39/649/395
f 150/400/3 196/422/3 370/421/3 368/259/3
f 293/650/60 297/651/60 168/518/332 68/517/332
f 212/549/346 217/548/346 179/499/326 79/498/326
f 9/652/396 109/653/396 130/654/396 30/655/396
f 59/215/250 87/386/239 294/385/239 292/216/251
f 68/339/209 88/338/209 294/385/232 293/384/232
f 264/18/12 269/17/12 121/656/12 21/657/12
f 18/210/137 291/213/140 292/216/143 58/211/138
f 354/658/34 359/659/34 131/660/34 31/661/34
f 295/72/43 296/1/42 159/486/342 119/536/341
f 75/561/351 175/560/351 369/414/48 365/413/48
f 71/662/397 171/663/397 333/279/54 329/278/54
f 275/516/63 279/515/63 166/547/345 66/546/345
f 58/211/252 88/338/239 303/337/239 301/212/253
f 69/371/225 89/370/225 303/337/208 302/336/208
f 320/533/306 325/532/306 171/663/397 71/662/397
f 17/206/133 299/209/136 301/212/139 57/207/134
f 18/664/398 299/133/67 300/136/67 37/665/398
f 69/485/318 169/484/318 315/239/57 311/238/57
f 63/481/317 163/480/317 261/587/66 257/586/66
f 67/56/30 167/55/30 297/651/60 293/650/60
f 230/666/340 235/667/340 161/306/191 61/305/191
f 57/207/254 89/370/239 312/369/239 310/208/255
f 70/318/197 90/317/197 312/369/224 311/368/224
f 266/64/34 271/63/34 165/514/331 65/513/331
f 16/202/129 309/205/132 310/208/135 56/203/130
f 223/30/19 224/29/18 147/563/367 107/592/366
f 114/668/399 133/669/399 341/670/400 340/671/400
f 177/477/316 379/423/280 380/51/280 197/50/316
f 282/672/277 287/673/277 139/674/277 39/675/277
f 17/676/401 117/677/401 138/678/401 38/679/401
f 56/203/256 90/317/239 321/316/239 319/204/257
f 71/359/219 91/358/219 321/316/196 320/315/196
f 24/680/194 124/681/194 251/682/194 246/683/194
f 15/198/125 317/201/128 319/204/131 55/199/126
f 16/684/402 317/125/64 318/128/64 35/685/402
f 372/273/29 377/272/29 129/686/29 29/687/29
f 178/58/32 207/476/315 208/229/315 198/59/32
f 146/28/322 234/559/403 236/541/3 200/492/3
f 167/562/352 289/402/271 290/405/271 187/487/352
f 55/199/258 91/358/239 330/357/239 328/200/259
f 72/391/235 92/390/235 330/357/218 329/356/218
f 102/614/374 142/20/373 260/19/404 259/688/405
f 14/194/121 327/197/124 328/200/127 54/195/122
f 156/236/295 324/235/406 326/268/3 190/445/3
f 62/442/289 162/441/289 253/479/22 248/478/22
f 246/683/194 251/682/194 123/689/194 23/690/194
f 324/235/406 155/43/390 191/269/3 326/268/3
f 54/195/260 92/390/239 339/389/239 337/196/261
f 73/347/213 93/346/213 339/389/234 338/388/234
f 175/613/372 361/691/407 362/618/407 195/471/372
f 13/190/117 335/193/120 337/196/123 53/191/118
f 14/692/408 335/117/61 336/120/61 33/693/408
f 234/474/403 145/473/364 181/48/3 236/47/3
f 7/694/409 107/695/409 128/696/409 28/697/409
f 259/688/405 260/19/404 143/620/381 103/621/380
f 104/698/410 144/31/411 242/265/334 241/519/333
f 53/191/262 93/346/239 348/345/239 346/192/263
f 74/375/227 94/374/227 348/345/212 347/344/212
f 288/451/354 159/486/319 187/487/3 290/405/3
f 12/186/113 345/189/116 346/192/119 52/187/114
f 361/691/407 174/426/283 194/429/283 362/618/407
f 340/671/400 341/670/400 134/699/412 113/700/412
f 322/612/371 323/611/371 136/701/413 115/702/413
f 286/637/392 287/636/392 140/703/414 119/704/414
f 32/705/34 132/706/34 359/659/34 354/658/34
f 52/187/264 94/374/239 357/373/239 355/188/265
f 75/327/203 95/326/203 357/373/226 356/372/226
f 304/525/338 305/524/338 138/707/415 117/708/415
f 11/182/109 353/185/112 355/188/115 51/183/110
f 12/709/416 353/109/58 354/112/58 31/710/416
f 141/261/171 278/464/417 280/506/3 185/262/3
f 253/226/153 162/580/361 182/34/361 254/33/153
f 232/630/387 233/629/387 126/711/418 105/712/418
f 376/433/286 377/432/286 130/713/419 109/714/419
f 50/179/239 364/184/239 366/325/239 96/362/239
f 76/363/221 96/362/221 366/325/202 365/324/202
f 214/296/184 215/295/184 128/715/420 107/716/420
f 10/178/105 363/181/108 364/184/111 50/179/106
f 358/300/186 359/299/186 132/717/421 111/718/421
f 261/491/321 163/225/152 183/227/152 262/22/321
f 278/464/417 160/452/353 186/404/3 280/506/3
f 5/719/422 105/720/422 126/721/422 26/722/422
f 268/626/385 269/625/385 122/723/423 101/724/423
f 49/175/239 373/180/239 375/361/239 97/394/239
f 77/395/237 97/394/237 375/361/220 374/360/220
f 250/622/383 252/32/382 144/31/411 104/698/410
f 9/174/101 371/177/104 373/180/107 49/175/102
f 10/725/424 371/101/55 372/104/55 29/726/424
f 34/727/22 134/728/22 341/38/22 336/37/22
f 143/620/379 260/19/13 262/22/3 183/227/3
f 351/427/284 173/633/389 193/470/389 352/428/284
f 40/729/277 140/730/277 287/673/277 282/672/277
f 76/416/276 176/415/276 379/418/277 374/417/277
