# Blender 4.0.2
# www.blender.org
o glider
v 0.049231 0.486368 -5.764606
v 0.024616 0.476685 -5.777880
v 0.000000 0.473759 -5.781889
v -0.049231 0.486368 -5.764606
v 0.057728 0.514417 -5.777880
v 0.028864 0.509576 -5.804649
v 0.000000 0.508113 -5.812301
v -0.024616 0.476685 -5.777880
v 0.060295 0.542467 -5.781889
v 0.030148 0.542467 -5.812301
v 0.000000 0.542467 -5.820904
v 0.057728 0.570516 -5.777880
v 0.028864 0.575358 -5.804649
v 0.000000 0.576820 -5.812301
v -0.057728 0.514417 -5.777880
v -0.028864 0.509576 -5.804649
v -0.060295 0.542467 -5.781889
v -0.030148 0.542467 -5.812301
v -0.057728 0.570516 -5.777880
v -0.028864 0.575358 -5.804649
v -0.022349 0.181632 2.681359
v -0.026207 0.209807 2.713010
v -0.027372 0.245079 2.720087
v -0.026207 0.276802 2.713719
v -0.044699 0.190971 2.670312
v -0.065326 0.180573 2.627182
v 0.000000 0.178811 2.684695
v 0.022349 0.181632 2.681359
v -0.252662 0.214454 -0.310299
v -0.057728 0.476685 -5.726154
v 0.000000 0.208397 2.719377
v 0.026207 0.209807 2.713010
v -0.052414 0.214477 2.690733
v -0.084729 0.219614 2.627182
v 0.000000 0.245079 2.727247
v 0.027372 0.245079 2.720087
v -0.334125 0.389658 -0.310299
v -0.074865 0.509576 -5.732791
v 0.000000 0.278213 2.720087
v 0.026207 0.276802 2.713719
v 0.044699 0.190971 2.670312
v 0.065326 0.180573 2.627182
v 0.252662 0.214454 -0.310299
v 0.057728 0.476685 -5.726154
v 0.052414 0.214477 2.690733
v 0.084729 0.219614 2.627182
v 0.334125 0.389658 -0.310299
v 0.074865 0.509576 -5.732791
v 0.054745 0.245079 2.694779
v 0.090274 0.255108 2.627182
v 0.357174 0.564862 -0.310299
v 0.079763 0.542467 -5.734796
v 0.052414 0.276390 2.691442
v 0.084729 0.294859 2.627182
v 0.334125 0.740067 -0.310299
v 0.074865 0.575358 -5.732791
v 0.032663 0.160890 2.627182
v 0.000000 0.154859 2.627182
v -0.054745 0.245079 2.694779
v 0.126331 0.101471 -0.310299
v 0.000000 0.069504 -0.310299
v -0.090274 0.255108 2.627182
v 0.028864 0.457157 -5.732791
v 0.000000 0.451576 -5.734796
v -0.357174 0.564862 -0.310299
v 0.049231 0.598566 -5.764606
v 0.024616 0.608249 -5.777880
v 0.000000 0.611174 -5.781889
v -0.079763 0.542467 -5.734796
v -0.052414 0.276390 2.691442
v 0.057728 0.608249 -5.726154
v 0.028864 0.627777 -5.732791
v 0.000000 0.633358 -5.734796
v -0.084729 0.294859 2.627182
v -0.334125 0.740067 -0.310299
v 0.252662 0.915271 -0.310299
v 0.126331 1.028254 -0.310299
v 0.000000 1.060221 -0.310299
v -0.074865 0.575358 -5.732791
v -0.032663 0.160890 2.627182
v 0.065326 0.339646 2.627182
v 0.032663 0.360748 2.627182
v 0.000000 0.366779 2.627182
v -0.126331 0.101471 -0.310299
v 0.048394 0.302024 2.680395
v 0.022349 0.311363 2.691442
v 0.000000 0.314185 2.694779
v -0.028864 0.457157 -5.732791
v 0.211758 0.839906 -0.943452
v 0.211758 0.298285 -0.943452
v 0.279403 0.433690 -0.943452
v 0.298563 0.569096 -0.943452
v 0.279403 0.704501 -0.943452
v 0.000000 0.187265 -0.943452
v -0.049231 0.598566 -5.764606
v 0.000000 0.950926 -0.943452
v -0.024616 0.608249 -5.777880
v -0.057728 0.608249 -5.726154
v -0.028864 0.627777 -5.732791
v 0.105879 0.211770 -0.943452
v 0.105879 0.926421 -0.943452
v 0.166497 0.375015 -1.619902
v 0.219015 0.471692 -1.619902
v 0.233913 0.568370 -1.619902
v 0.219015 0.665047 -1.619902
v 0.000000 0.296724 -1.619902
v -0.252662 0.915271 -0.310299
v 0.083249 0.314025 -1.619902
v 0.166497 0.761725 -1.619902
v -0.126331 1.028254 -0.310299
v 0.000000 0.840016 -1.619902
v -0.065326 0.339646 2.627182
v -0.032663 0.360748 2.627182
v 0.083249 0.822714 -1.619902
v -0.048394 0.302024 2.680395
v 0.141123 0.408641 -2.198377
v 0.184993 0.482221 -2.198377
v 0.197461 0.555801 -2.198377
v 0.184993 0.629381 -2.198377
v 0.000000 0.349894 -2.198377
v -0.022349 0.311363 2.691442
v 0.070562 0.362895 -2.198377
v 0.141123 0.702961 -2.198377
v 0.000000 0.761708 -2.198377
v -0.211758 0.839906 -0.943452
v -0.211758 0.298285 -0.943452
v -0.279403 0.433690 -0.943452
v -0.298563 0.569096 -0.943452
v 0.070562 0.748707 -2.198377
v -0.279403 0.704501 -0.943452
v -0.105879 0.211770 -0.943452
v -0.105879 0.926421 -0.943452
v 0.141328 0.032571 0.937556
v -0.166497 0.375015 -1.619902
v 0.141328 0.995681 0.937556
v -0.219015 0.471692 -1.619902
v 0.282656 0.147265 0.936170
v 0.371021 0.330696 0.937556
v 0.396116 0.514126 0.937974
v 0.371021 0.697556 0.937556
v 0.000000 -0.000000 0.937974
v 0.282656 0.880987 0.936170
v 0.000000 1.028252 0.937974
v -0.233913 0.568370 -1.619902
v 0.140617 0.050433 0.287378
v -0.219015 0.665047 -1.619902
v 0.281235 0.171924 0.287378
v 0.370740 0.362799 0.287378
v 0.396104 0.553674 0.287378
v 0.370740 0.744548 0.287378
v 0.000000 0.016005 0.287378
v -0.083249 0.314025 -1.619902
v -0.166497 0.761725 -1.619902
v 0.140617 1.056914 0.287378
v -0.083249 0.822714 -1.619902
v 0.281235 0.935423 0.287378
v 0.000000 1.091342 0.287378
v -0.141123 0.408641 -2.198377
v -0.184993 0.482221 -2.198377
v -0.197461 0.555801 -2.198377
v -0.184993 0.629381 -2.198377
v 0.128149 0.867443 1.530383
v -0.070562 0.362895 -2.198377
v 0.256297 0.769652 1.530159
v 0.000000 0.895286 1.530451
v -0.141123 0.702961 -2.198377
v 0.128149 0.033135 1.530383
v 0.256297 0.130926 1.530159
v 0.334764 0.290607 1.530383
v 0.357105 0.450289 1.530451
v 0.334764 0.609971 1.530383
v 0.000000 0.005292 1.530451
v -0.070562 0.748707 -2.198377
v -0.141328 0.032571 0.937556
v -0.141328 0.995681 0.937556
v -0.282656 0.147265 0.936170
v 0.103319 0.686648 2.042562
v -0.371021 0.330696 0.937556
v 0.206638 0.615150 2.042562
v 0.000000 0.707042 2.042562
v -0.396116 0.514126 0.937974
v 0.103319 0.069835 2.042562
v -0.371021 0.697556 0.937556
v 0.206638 0.141333 2.042562
v 0.269029 0.259787 2.042563
v 0.286824 0.378242 2.042563
v 0.269029 0.496696 2.042563
v 0.000000 0.049441 2.042562
v -0.282656 0.880987 0.936170
v -0.140617 0.050433 0.287378
v 0.066984 0.496311 2.414124
v -0.281235 0.171924 0.287378
v 0.133969 0.453078 2.414124
v 0.000000 0.508653 2.414124
v -0.370740 0.362799 0.287378
v 0.066984 0.115523 2.414124
v -0.396104 0.553674 0.287378
v 0.133969 0.158757 2.414124
v 0.174130 0.230896 2.414124
v 0.185595 0.303035 2.414124
v 0.174130 0.375175 2.414124
v 0.000000 0.103181 2.414124
v 0.469721 0.711522 -0.422320
v 9.846785 1.339886 -0.221710
v 9.302977 1.205566 -0.191566
v 6.964279 0.961620 -0.188963
v 3.466657 0.814999 -0.304906
v 0.327397 0.713644 -0.438532
v 9.907945 1.376264 -0.239232
v 9.951249 1.447818 -0.270579
v 9.981074 1.848477 -0.382216
v 7.776756 0.981100 -0.168296
v 0.471885 0.533743 -0.422305
v 9.876415 1.285212 -0.221710
v 3.471104 0.674196 -0.301484
v 9.322851 1.129949 -0.191566
v 7.781158 0.869582 -0.168296
v 6.969006 0.827630 -0.188963
v 9.956733 1.342554 -0.239232
v 9.997019 1.435379 -0.270579
v 10.000517 1.848677 -0.382216
v 8.419989 1.004449 -0.169769
v 8.753026 1.055503 -0.176341
v 8.587755 1.022070 -0.172537
v 8.765012 0.971387 -0.176265
v 8.432923 0.913366 -0.169807
v 8.600117 0.935170 -0.172526
v 9.972786 1.437917 -0.122752
v 9.929273 1.356634 -0.076153
v 9.312894 1.167752 -0.389849
v 0.332037 0.620804 -1.017989
v 0.417418 0.620801 -0.970906
v 3.468872 0.747213 -0.765844
v 6.966643 0.894529 -0.549153
v 9.990794 1.848577 -0.446195
v 9.975159 1.444396 -0.364479
v 9.312936 1.167763 0.039691
v 9.862446 1.312872 -0.352851
v 9.934666 1.361517 -0.350438
v 9.860485 1.312124 -0.049081
v 0.265727 0.620804 -1.121816
v 7.778957 0.924255 0.216251
v 6.966640 0.894529 0.249429
v 7.778957 0.924254 -0.486461
v 8.426577 0.958922 -0.448366
v 8.594057 0.978637 -0.438088
v 8.759140 1.013466 -0.427349
v 8.426316 0.958890 0.155117
v 8.593795 0.978600 0.137185
v 8.758877 1.013421 0.116490
v 0.498075 0.620497 0.156562
v 0.497572 0.687759 0.089162
v 0.497364 0.668058 0.136817
v 9.302074 1.209002 -0.027937
v 9.305255 1.196924 0.019883
v 6.964064 0.955331 0.181968
v 6.964898 0.935651 0.229670
v 3.468884 0.746910 0.226199
v 3.466167 0.814112 0.158760
v 3.466963 0.794429 0.206442
v 0.360509 0.687759 0.089177
v 0.360509 0.668148 0.136818
v 7.776508 0.985061 0.148748
v 7.777301 0.965383 0.196480
v 0.500255 0.553851 0.089182
v 0.499268 0.573566 0.136830
v 9.323784 1.126521 -0.027924
v 9.320611 1.138603 0.019888
v 7.781420 0.863205 0.141170
v 7.780612 0.883153 0.196482
v 3.471577 0.680315 0.158781
v 3.470781 0.700015 0.206456
v 6.969227 0.833155 0.172861
v 6.968380 0.853428 0.229671
v 0.360509 0.620805 0.156552
v 0.360509 0.553852 0.089179
v 0.360509 0.573462 0.136819
v 8.752462 1.059321 0.048719
v 8.755201 1.039717 0.096598
v 8.419396 1.008587 0.087683
v 8.422126 0.988984 0.135402
v 8.587181 1.026017 0.069585
v 8.589914 1.006416 0.117382
v 8.433293 0.909201 0.087452
v 8.430527 0.928768 0.135262
v 8.765358 0.967531 0.049028
v 8.762575 0.987110 0.096774
v 8.600471 0.931192 0.069609
v 8.597696 0.950765 0.117396
v 9.845362 1.342341 -0.088477
v 9.848435 1.336199 -0.056702
v 9.905516 1.377604 -0.114804
v 9.910886 1.372864 -0.083781
v 9.949076 1.448130 -0.152654
v 9.955638 1.445304 -0.130386
v 9.990794 1.848577 -0.297997
v 9.980191 1.848469 -0.324051
v 9.983297 1.848500 -0.305628
v 9.876415 1.281395 -0.086077
v 9.872505 1.288337 -0.056550
v 9.954396 1.336900 -0.112756
v 9.947852 1.340738 -0.083711
v 9.997137 1.429454 -0.158304
v 9.990142 1.430874 -0.130346
v 10.001400 1.848686 -0.323402
v 9.998294 1.848655 -0.305439
v 0.327397 0.531711 -0.440131
v 9.990794 1.848577 -0.323726
v 0.487934 0.714155 -0.119882
v 3.465967 0.827517 -0.050019
v 9.300348 1.215635 -0.100864
v 8.750880 1.065991 -0.052516
v 6.963823 0.968375 0.012961
v 7.776283 0.993122 0.008052
v 0.348358 0.714155 -0.125697
v 8.418913 1.015425 -0.028477
v 0.490674 0.529067 -0.120193
v 3.471726 0.665671 -0.042563
v 9.324996 1.122165 -0.100818
v 8.766553 0.963161 -0.052282
v 6.969419 0.823121 0.012938
v 7.781662 0.858932 0.008046
v 8.433846 0.904713 -0.028590
v 0.348341 0.529069 -0.126964
v 8.586143 1.032793 -0.039513
v 8.601347 0.926751 -0.039460
v 9.845612 1.341908 -0.156434
v 9.905944 1.377367 -0.178645
v 9.949267 1.448102 -0.211175
v 9.980218 1.848469 -0.351187
v 9.878749 1.278279 -0.142269
v 9.956365 1.338683 -0.165542
v 9.997984 1.431770 -0.205362
v 10.001373 1.848686 -0.350873
v 9.990795 1.848577 -0.351084
v 9.990794 1.848577 -0.382604
v 9.308019 1.186338 -0.292390
v 0.441703 0.662924 -0.716190
v 6.965482 0.927505 -0.372114
v 9.853904 1.329750 -0.281322
v 9.920092 1.371095 -0.289782
v 8.590960 0.999985 -0.307566
v 8.756135 1.034128 -0.303975
v 3.467783 0.780554 -0.539128
v 9.985493 1.848523 -0.411298
v 9.959220 1.446263 -0.313263
v 7.777853 0.952741 -0.327021
v 8.423338 0.981299 -0.311432
v 0.302621 0.670982 -0.746941
v 3.469949 0.711998 -0.541892
v 9.996098 1.848632 -0.411298
v 9.987147 1.439612 -0.318462
v 7.779999 0.898381 -0.335891
v 8.429545 0.937612 -0.318066
v 9.317422 1.150562 -0.299685
v 0.442708 0.580378 -0.716182
v 6.967804 0.861647 -0.372114
v 9.869496 1.298914 -0.286676
v 9.947222 1.350647 -0.296169
v 8.596891 0.958305 -0.313868
v 8.761887 0.993783 -0.309901
v 0.302621 0.572651 -0.747804
v -0.370740 0.744548 0.287378
v -0.140617 1.056914 0.287378
v -0.281235 0.935423 0.287378
v -0.128149 0.867443 1.530383
v -0.256297 0.769652 1.530159
v -0.128149 0.033135 1.530383
v -0.256297 0.130926 1.530159
v -0.334764 0.290607 1.530383
v -0.357105 0.450289 1.530451
v -0.334764 0.609971 1.530383
v -0.103319 0.686648 2.042562
v -0.206638 0.615150 2.042562
v -0.103319 0.069835 2.042562
v -0.206638 0.141333 2.042562
v -0.269029 0.259787 2.042563
v -0.286824 0.378242 2.042563
v -0.269029 0.496696 2.042563
v -0.066984 0.496311 2.414124
v -0.133969 0.453078 2.414124
v -0.066984 0.115523 2.414124
v -0.133969 0.158757 2.414124
v -0.174130 0.230896 2.414124
v -0.185595 0.303035 2.414124
v -0.174130 0.375175 2.414124
v -0.469721 0.711522 -0.422320
v -9.846785 1.339886 -0.221710
v -9.302977 1.205566 -0.191566
v -6.964279 0.961620 -0.188963
v -3.466657 0.814999 -0.304906
v -0.327397 0.713644 -0.438532
v -9.907945 1.376264 -0.239232
v -9.951249 1.447818 -0.270579
v -9.981022 1.848477 -0.380326
v -7.776756 0.981100 -0.168296
v -0.471885 0.533743 -0.422305
v -9.876415 1.285212 -0.221710
v -3.471104 0.674196 -0.301484
v -9.322851 1.129949 -0.191566
v -7.781158 0.869582 -0.168296
v -6.969006 0.827630 -0.188963
v -9.956733 1.342554 -0.239232
v -9.997019 1.435379 -0.270579
v -10.000569 1.848678 -0.380307
v -8.419989 1.004449 -0.169769
v -8.753026 1.055503 -0.176341
v -8.587755 1.022070 -0.172537
v -8.765012 0.971387 -0.176265
v -8.432923 0.913366 -0.169807
v -8.600117 0.935170 -0.172526
v -9.972786 1.437917 -0.122752
v -9.929273 1.356634 -0.076153
v -9.312894 1.167752 -0.389849
v -0.332037 0.620804 -1.017989
v -0.417418 0.620801 -0.970906
v -3.468872 0.747213 -0.765844
v -6.966643 0.894529 -0.549153
v -9.990794 1.848577 -0.446195
v -9.975159 1.444396 -0.364479
v -9.312936 1.167763 0.039691
v -9.862446 1.312872 -0.352851
v -9.934666 1.361517 -0.350438
v -9.860485 1.312124 -0.049081
v -0.265727 0.620804 -1.121816
v -7.778957 0.924255 0.216251
v -6.966640 0.894529 0.249429
v -7.778957 0.924254 -0.486461
v -8.426577 0.958922 -0.448366
v -8.594057 0.978637 -0.438088
v -8.759140 1.013466 -0.427349
v -8.426316 0.958890 0.155117
v -8.593795 0.978600 0.137185
v -8.758877 1.013421 0.116490
v -0.498075 0.620497 0.156562
v -0.497572 0.687759 0.089162
v -0.497364 0.668058 0.136817
v -9.302074 1.209002 -0.027937
v -9.305255 1.196924 0.019883
v -6.964064 0.955331 0.181968
v -6.964898 0.935651 0.229670
v -3.468884 0.746910 0.226199
v -3.466167 0.814112 0.158760
v -3.466963 0.794429 0.206442
v -0.360509 0.687759 0.089177
v -0.360509 0.668148 0.136818
v -7.776508 0.985061 0.148748
v -7.777301 0.965383 0.196480
v -0.500255 0.553851 0.089182
v -0.499268 0.573566 0.136830
v -9.323784 1.126521 -0.027924
v -9.320611 1.138603 0.019888
v -7.781420 0.863205 0.141170
v -7.780612 0.883153 0.196482
v -3.471577 0.680315 0.158781
v -3.470781 0.700015 0.206456
v -6.969227 0.833155 0.172861
v -6.968380 0.853428 0.229671
v -0.360509 0.620805 0.156552
v -0.360509 0.553852 0.089179
v -0.360509 0.573462 0.136819
v -8.752462 1.059321 0.048719
v -8.755201 1.039717 0.096598
v -8.419396 1.008587 0.087683
v -8.422126 0.988984 0.135402
v -8.587181 1.026017 0.069585
v -8.589914 1.006416 0.117382
v -8.433293 0.909201 0.087452
v -8.430527 0.928768 0.135262
v -8.765358 0.967531 0.049028
v -8.762575 0.987110 0.096774
v -8.600471 0.931192 0.069609
v -8.597696 0.950765 0.117396
v -9.845362 1.342341 -0.088477
v -9.848435 1.336199 -0.056702
v -9.905516 1.377604 -0.114804
v -9.910886 1.372864 -0.083781
v -9.949076 1.448130 -0.152654
v -9.955638 1.445304 -0.130386
v -9.990794 1.848577 -0.297997
v -9.980191 1.848469 -0.324051
v -9.983297 1.848500 -0.305628
v -9.876415 1.281395 -0.086077
v -9.872505 1.288337 -0.056550
v -9.954396 1.336900 -0.112756
v -9.947852 1.340738 -0.083711
v -9.997137 1.429454 -0.158304
v -9.990142 1.430874 -0.130346
v -10.001400 1.848686 -0.323402
v -9.998294 1.848655 -0.305439
v -0.327397 0.531711 -0.440131
v -9.990794 1.848577 -0.323726
v -0.487934 0.714155 -0.119882
v -3.465967 0.827517 -0.050019
v -9.300348 1.215635 -0.100864
v -8.750880 1.065991 -0.052516
v -6.963823 0.968375 0.012961
v -7.776283 0.993122 0.008052
v -0.348358 0.714155 -0.125697
v -8.418913 1.015425 -0.028477
v -0.490674 0.529067 -0.120193
v -3.471726 0.665671 -0.042563
v -9.324996 1.122165 -0.100818
v -8.766553 0.963161 -0.052282
v -6.969419 0.823121 0.012938
v -7.781662 0.858932 0.008046
v -8.433846 0.904713 -0.028590
v -0.348341 0.529069 -0.126964
v -8.586143 1.032793 -0.039513
v -8.601347 0.926751 -0.039460
v -9.845612 1.341908 -0.156434
v -9.905944 1.377367 -0.178645
v -9.949267 1.448102 -0.211175
v -9.980191 1.848468 -0.350226
v 0.000000 2.142563 -5.095212
v 0.000000 0.624641 -5.740429
v 0.000000 2.142563 -5.688814
v 0.041228 0.637025 -4.679520
v 0.000000 0.637545 -4.634977
v 0.029870 0.637392 -4.648024
v 0.039731 2.142563 -5.139815
v 0.029431 2.142563 -5.108276
v -9.878749 1.278279 -0.142269
v -9.956365 1.338683 -0.165542
v -9.997984 1.431770 -0.205362
v 0.000000 2.142563 -5.139815
v -10.001400 1.848686 -0.349902
v -9.990795 1.848577 -0.350108
v -9.990794 1.848577 -0.380684
v 0.993296 2.144485 -5.679028
v 1.606088 2.144485 -5.637735
v -9.308019 1.186338 -0.292390
v -0.441703 0.662924 -0.716190
v 1.577079 2.178285 -5.393198
v 1.573448 2.170864 -5.362589
v 0.000000 2.184268 -5.075101
v 0.000000 2.172616 -5.046787
v 0.972179 2.144485 -5.146031
v 0.963509 2.181701 -5.185004
v 0.969640 2.171864 -5.157446
v -6.965482 0.927505 -0.372114
v -9.853904 1.329750 -0.281322
v 0.963509 2.107268 -5.185004
v 0.969640 2.117105 -5.157446
v 1.577079 2.110684 -5.393198
v 1.571944 2.144485 -5.349911
v 1.573448 2.118106 -5.362589
v -9.920092 1.371095 -0.289782
v -8.590960 0.999985 -0.307566
v -8.756135 1.034128 -0.303975
v 0.000000 2.144485 -5.035059
v 0.000000 2.104701 -5.075101
v 0.000000 2.116354 -5.046787
v -3.467783 0.780554 -0.539128
v -9.985493 1.848523 -0.411298
v 1.593315 2.169103 -5.530065
v 0.983239 2.164068 -5.512232
v 0.000000 2.164934 -5.502477
v -9.959220 1.446263 -0.313263
v 0.981672 2.123157 -5.486244
v 1.593131 2.121600 -5.528516
v 1.577079 2.144485 -5.393198
v 0.075053 2.144485 -5.717199
v 0.000000 2.125165 -5.502477
v -7.777853 0.952741 -0.327021
v -8.423338 0.981299 -0.311432
v -0.302621 0.670982 -0.746941
v -3.469949 0.711998 -0.541892
v -9.996098 1.848632 -0.411298
v -9.987147 1.439612 -0.318462
v 1.593220 2.144485 -5.529263
v -7.779999 0.898381 -0.335891
v -8.429545 0.937612 -0.318066
v -9.317422 1.150562 -0.299685
v -0.442708 0.580378 -0.716182
v -6.967804 0.861647 -0.372114
v -9.869496 1.298914 -0.286676
v -9.947222 1.350647 -0.296169
v 1.599702 2.156794 -5.583900
v 0.988267 2.154276 -5.595630
v 0.037527 2.154710 -5.609838
v 0.987484 2.133821 -5.582635
v 1.599610 2.133043 -5.583126
v 0.037527 2.134825 -5.609838
v -8.596891 0.958305 -0.313868
v -8.761887 0.993783 -0.309901
v -0.302621 0.572651 -0.747804
v -0.041228 0.637025 -4.679520
v -0.029870 0.637392 -4.648024
v -0.039731 2.142563 -5.139815
v -0.029431 2.142563 -5.108276
v -0.993296 2.144485 -5.679028
v -1.606088 2.144485 -5.637735
v -1.577079 2.178285 -5.393198
v -1.573448 2.170864 -5.362589
v -0.972179 2.144485 -5.146031
v -0.963509 2.181701 -5.185004
v -0.969640 2.171864 -5.157446
v -0.963509 2.107268 -5.185004
v -0.969640 2.117105 -5.157446
v -1.577079 2.110684 -5.393198
v -1.571944 2.144485 -5.349911
v -1.573448 2.118106 -5.362589
v -1.593315 2.169103 -5.530065
v -0.983239 2.164068 -5.512232
v -0.981672 2.123157 -5.486244
v -1.593131 2.121600 -5.528516
v -1.577079 2.144485 -5.393198
v -0.075053 2.144485 -5.717199
v -1.593220 2.144485 -5.529263
v -1.599702 2.156794 -5.583900
v -0.988267 2.154276 -5.595630
v -0.037527 2.154710 -5.609838
v -0.987484 2.133821 -5.582635
v -1.599610 2.133043 -5.583126
v -0.037527 2.134825 -5.609838
v 0.000000 2.145050 -5.502477
v 0.037527 2.144767 -5.609838
v -0.037527 2.144767 -5.609838
vn 0.6755 -0.5964 -0.4335
vn 0.3817 -0.7367 -0.5581
vn 0.4560 -0.4081 -0.7909
vn 0.7850 -0.3209 -0.5299
vn -0.0000 -0.7951 -0.6065
vn -0.0000 -0.4515 -0.8923
vn -0.6755 -0.5964 -0.4335
vn -0.7850 -0.3209 -0.5299
vn -0.4560 -0.4081 -0.7909
vn -0.3817 -0.7367 -0.5581
vn -0.4927 -0.0000 -0.8702
vn -0.0000 -0.0000 -1.0000
vn 0.4927 -0.0000 -0.8702
vn 0.8274 -0.0000 -0.5616
vn -0.4560 0.4081 -0.7909
vn -0.0000 0.4515 -0.8923
vn 0.4560 0.4081 -0.7909
vn 0.7850 0.3209 -0.5299
vn -0.8274 -0.0000 -0.5616
vn -0.3817 0.7367 -0.5581
vn -0.0000 0.7951 -0.6065
vn 0.3817 0.7367 -0.5581
vn 0.6755 0.5964 -0.4335
vn -0.9418 -0.3328 -0.0473
vn -0.9988 -0.0009 -0.0486
vn -0.9775 -0.0002 -0.2110
vn -0.9250 -0.3235 -0.1992
vn -0.7850 0.3209 -0.5299
vn -0.7945 -0.6051 -0.0515
vn -0.7910 -0.6026 -0.1056
vn -0.4547 -0.8817 -0.1260
vn -0.4550 -0.8887 -0.0566
vn -0.7175 -0.6559 0.2344
vn -0.7476 -0.6511 0.1307
vn -0.3929 -0.9124 0.1150
vn -0.3666 -0.9093 0.1967
vn -0.3396 -0.7956 0.5016
vn -0.4305 -0.4624 0.7752
vn -0.7425 -0.3636 0.5625
vn -0.6206 -0.6435 0.4481
vn -0.6755 0.5964 -0.4335
vn -0.0000 -0.9909 -0.1347
vn -0.0000 -0.9983 -0.0578
vn -0.9427 -0.0027 0.3337
vn -0.8796 0.2774 0.3865
vn -0.9202 0.2970 0.2552
vn -0.9797 0.0020 0.2005
vn -0.0000 0.0006 1.0000
vn -0.0000 0.3908 0.9205
vn -0.4255 0.3462 0.8361
vn -0.4646 -0.0019 0.8855
vn -0.0000 -0.8487 0.5289
vn -0.0000 -0.4982 0.8670
vn -0.7333 -0.6780 -0.0514
vn -0.7239 -0.6688 -0.1695
vn -0.3757 -0.9018 -0.2136
vn -0.3824 -0.9222 -0.0570
vn -0.9093 -0.3057 0.2824
vn -0.9396 -0.3029 0.1592
vn -0.3328 0.6330 0.6990
vn -0.6300 0.4879 0.6042
vn -0.7328 0.2660 0.6263
vn -0.9995 0.0018 -0.0319
vn -0.9582 0.2854 -0.0196
vn -0.9553 0.2847 -0.0801
vn -0.9969 0.0005 -0.0790
vn -0.0000 -0.9728 -0.2316
vn -0.0000 -0.9982 -0.0596
vn -0.9015 -0.0095 0.4327
vn -0.8484 0.2442 0.4697
vn -0.9420 0.3309 -0.0556
vn -0.7338 0.6759 -0.0685
vn -0.7238 0.6681 -0.1724
vn -0.9249 0.3231 -0.2003
vn -0.7872 -0.0111 0.6166
vn 0.3396 -0.7956 0.5016
vn 0.4305 -0.4624 0.7752
vn 0.6206 -0.6435 0.4481
vn 0.7425 -0.3636 0.5625
vn -0.0000 0.6834 0.7301
vn 0.4646 -0.0019 0.8855
vn 0.7872 -0.0111 0.6166
vn -0.9587 -0.2813 -0.0423
vn -0.9550 -0.2834 -0.0872
vn -0.8696 -0.3004 0.3919
vn -0.6751 -0.6484 0.3518
vn 0.4255 0.3462 0.8361
vn 0.7328 0.2660 0.6263
vn -0.6396 0.5487 0.5384
vn 0.3328 0.6330 0.6990
vn 0.6300 0.4879 0.6042
vn 0.6751 -0.6484 0.3518
vn 0.8696 -0.3004 0.3919
vn 0.7945 -0.6051 -0.0515
vn 0.7910 -0.6026 -0.1056
vn 0.9550 -0.2834 -0.0872
vn 0.9587 -0.2813 -0.0423
vn 0.7333 -0.6780 -0.0514
vn 0.7239 -0.6688 -0.1695
vn 0.9250 -0.3235 -0.1992
vn 0.9418 -0.3328 -0.0473
vn 0.9015 -0.0095 0.4327
vn 0.9969 0.0005 -0.0790
vn 0.9995 0.0018 -0.0319
vn 0.9775 -0.0002 -0.2110
vn 0.9988 -0.0009 -0.0486
vn 0.8484 0.2442 0.4697
vn 0.9553 0.2847 -0.0801
vn 0.9582 0.2854 -0.0196
vn 0.9249 0.3231 -0.2003
vn 0.9420 0.3309 -0.0556
vn 0.6396 0.5487 0.5384
vn 0.7914 0.6046 -0.0904
vn 0.7928 0.6095 -0.0029
vn 0.7238 0.6681 -0.1724
vn 0.7338 0.6759 -0.0685
vn 0.3428 -0.8831 0.3205
vn -0.0000 -0.9511 0.3088
vn 0.4550 -0.8887 -0.0566
vn 0.4547 -0.8817 -0.1260
vn -0.3828 0.9203 -0.0804
vn -0.3757 0.9010 -0.2170
vn -0.4067 -0.9061 -0.1166
vn -0.0000 -0.9922 -0.1246
vn 0.3824 -0.9222 -0.0570
vn 0.3757 -0.9018 -0.2136
vn -0.7495 0.6522 -0.1133
vn -0.7760 0.6184 -0.1242
vn -0.4373 0.8864 -0.1520
vn -0.4048 0.9041 -0.1370
vn -0.4374 -0.8855 -0.1568
vn -0.0000 -0.9855 -0.1698
vn 0.3757 0.9010 -0.2170
vn -0.0000 0.9720 -0.2351
vn 0.7760 0.6184 -0.1242
vn 0.4373 0.8864 -0.1520
vn 0.4550 0.8844 -0.1038
vn -0.0000 0.9864 -0.1643
vn -0.0000 0.9940 -0.1098
vn 0.6694 0.5885 0.4535
vn 0.3286 0.8030 0.4973
vn 0.3101 0.7560 0.5765
vn -0.0000 0.8600 0.5103
vn -0.0000 0.8109 0.5853
vn -0.7532 0.6247 0.2059
vn -0.7136 0.6186 0.3288
vn -0.3660 0.8470 0.3856
vn -0.4044 0.8771 0.2592
vn -0.6694 0.5885 0.4535
vn -0.7928 0.6095 -0.0029
vn -0.7914 0.6046 -0.0904
vn -0.3101 0.7560 0.5765
vn 0.4048 0.9041 -0.1370
vn -0.0000 0.9892 -0.1467
vn 0.7495 0.6522 -0.1133
vn -0.3428 -0.8831 0.3205
vn 0.4374 -0.8855 -0.1568
vn 0.7762 -0.6175 -0.1275
vn 0.9500 0.2954 -0.1016
vn 0.9955 0.0003 -0.0948
vn 0.9500 -0.2946 -0.1031
vn -0.3286 0.8030 0.4973
vn -0.4550 0.8844 -0.1038
vn -0.9500 0.2954 -0.1016
vn -0.9955 0.0003 -0.0948
vn -0.9500 -0.2946 -0.1031
vn -0.7762 -0.6175 -0.1275
vn -0.7520 -0.6518 -0.0982
vn 0.3828 0.9203 -0.0804
vn -0.0000 0.9964 -0.0850
vn -0.9968 0.0010 -0.0803
vn -0.9450 -0.3163 -0.0828
vn 0.4067 -0.9061 -0.1166
vn 0.7520 -0.6518 -0.0982
vn 0.9438 0.3181 -0.0903
vn 0.9968 0.0010 -0.0803
vn 0.9450 -0.3163 -0.0828
vn -0.9438 0.3181 -0.0903
vn -0.9529 -0.2947 0.0720
vn -0.9948 0.0013 0.1018
vn -0.9994 0.0020 0.0336
vn -0.9581 -0.2861 0.0129
vn -0.7695 -0.6364 0.0530
vn -0.7859 -0.6183 -0.0024
vn -0.4396 -0.8981 -0.0087
vn -0.4173 -0.9076 0.0457
vn 0.4535 0.8912 0.0139
vn -0.0000 0.9998 0.0210
vn -0.0000 0.9879 0.1554
vn 0.4341 0.8899 0.1400
vn 0.7792 0.6186 0.1012
vn 0.4173 -0.9076 0.0457
vn -0.0000 -0.9990 0.0454
vn -0.0000 -1.0000 -0.0093
vn 0.4396 -0.8981 -0.0087
vn 0.7695 -0.6364 0.0530
vn 0.7859 -0.6183 -0.0024
vn 0.9446 0.2948 0.1445
vn 0.9551 0.2898 0.0614
vn 0.7532 0.6247 0.2059
vn 0.9948 0.0013 0.1018
vn 0.9994 0.0020 0.0336
vn 0.9529 -0.2947 0.0720
vn 0.9581 -0.2861 0.0129
vn -0.7792 0.6186 0.1012
vn -0.4341 0.8899 0.1400
vn -0.4535 0.8912 0.0139
vn -0.9446 0.2948 0.1445
vn -0.9551 0.2898 0.0614
vn 0.7476 -0.6511 0.1307
vn 0.9396 -0.3029 0.1592
vn 0.9797 0.0020 0.2005
vn 0.9202 0.2970 0.2552
vn 0.7136 0.6186 0.3288
vn 0.3929 -0.9124 0.1150
vn -0.0000 -0.9937 0.1124
vn -0.0000 0.9604 0.2787
vn 0.4044 0.8771 0.2592
vn -0.0000 0.9145 0.4045
vn 0.3666 -0.9093 0.1967
vn -0.0000 -0.9822 0.1880
vn 0.7175 -0.6559 0.2344
vn 0.8796 0.2774 0.3865
vn 0.9427 -0.0027 0.3337
vn 0.9093 -0.3057 0.2824
vn 0.3660 0.8470 0.3856
vn -0.2290 0.9734 -0.0090
vn -0.2472 0.9689 -0.0142
vn -0.2531 0.9577 -0.1368
vn -0.2322 0.9638 -0.1313
vn 0.7785 -0.6274 -0.0145
vn 0.9767 -0.2143 -0.0071
vn 0.9777 -0.1741 0.1173
vn 0.7964 -0.5872 0.1449
vn -0.0349 0.9993 0.0119
vn -0.0318 0.9995 0.0021
vn -0.0305 0.9926 -0.1175
vn -0.0304 0.9936 -0.1085
vn 0.2451 -0.9694 -0.0113
vn 0.2396 -0.9633 -0.1210
vn 0.2646 -0.9546 -0.1371
vn 0.2725 -0.9621 -0.0128
vn 0.0372 -0.9953 -0.0894
vn 0.0878 -0.9836 -0.1575
vn 0.0622 -0.9856 -0.1571
vn 0.0404 -0.9956 -0.0847
vn 0.0236 -0.9988 0.0438
vn 0.0486 -0.9943 -0.0950
vn 0.0444 -0.9986 0.0276
vn 0.9999 -0.0107 -0.0075
vn 0.9958 0.0243 0.0881
vn 0.0946 -0.9818 -0.1647
vn 0.0962 -0.9889 -0.1130
vn 0.0584 -0.9922 -0.1105
vn 0.0582 -0.9835 -0.1714
vn -0.0005 0.9965 -0.0833
vn 0.0228 0.9872 -0.1578
vn 0.0907 0.9824 -0.1634
vn 0.0380 0.9953 -0.0892
vn 0.0513 -0.9838 -0.1719
vn 0.0492 -0.9935 -0.1031
vn 0.0511 -0.9853 -0.1630
vn 0.9772 -0.0690 -0.2009
vn 0.9923 -0.0417 -0.1166
vn 0.9645 -0.2379 -0.1147
vn 0.9370 -0.2645 -0.2280
vn 0.2643 -0.9451 -0.1921
vn 0.2407 -0.9554 -0.1712
vn -0.0103 0.9999 -0.0000
vn 0.3984 -0.8897 -0.2228
vn 0.4183 -0.8971 -0.1423
vn 0.7169 -0.6525 -0.2454
vn 0.7559 -0.6419 -0.1286
vn 0.0446 -0.9989 0.0125
vn 0.0574 -0.9983 -0.0034
vn 0.1682 -0.9720 -0.1639
vn 0.1686 -0.9791 -0.1139
vn -0.0685 0.9976 -0.0080
vn -0.1497 0.9887 -0.0090
vn -0.1532 0.9805 -0.1229
vn -0.0720 0.9900 -0.1212
vn 0.1002 -0.9949 -0.0118
vn 0.1732 -0.9848 -0.0110
vn -0.1511 0.9748 -0.1639
vn -0.2273 0.9586 -0.1714
vn -0.2237 0.9595 -0.1711
vn -0.1485 0.9752 -0.1639
vn -0.0726 0.9834 -0.1663
vn -0.0723 0.9834 -0.1664
vn -0.9499 0.2081 -0.2333
vn -0.9509 0.1653 -0.2617
vn -0.7480 0.6024 -0.2786
vn -0.7397 0.6250 -0.2493
vn -0.0398 0.9989 0.0245
vn -0.0348 0.9948 -0.0961
vn 0.2294 -0.9622 -0.1465
vn 0.1848 -0.9708 -0.1529
vn -0.0315 0.9870 -0.1579
vn -0.0313 0.9870 -0.1576
vn 0.0456 0.9853 -0.1645
vn -0.0300 0.9842 -0.1747
vn -0.0308 0.9841 -0.1749
vn -0.0272 0.9850 -0.1706
vn -0.0272 0.9849 -0.1710
vn -0.0183 0.9987 0.0475
vn 0.0180 -0.9695 0.2445
vn -0.0013 -0.9686 0.2487
vn 0.0031 -0.9989 0.0474
vn -0.3769 0.9261 -0.0203
vn -0.3416 0.9305 0.1323
vn -0.6501 0.7497 0.1238
vn -0.7052 0.7087 -0.0206
vn -0.3893 0.8895 -0.2390
vn -0.3967 0.8910 -0.2207
vn -0.2480 0.9485 -0.1970
vn -0.2504 0.9490 -0.1916
vn -0.9775 0.0086 -0.2106
vn -0.9709 -0.0029 -0.2394
vn -0.9247 0.3592 0.1264
vn -0.9533 0.3014 -0.0192
vn 0.4411 -0.8974 -0.0128
vn 0.4553 -0.8763 0.1574
vn 0.1915 0.9686 -0.1585
vn -0.9896 0.1135 0.0889
vn -0.9974 0.0699 -0.0201
vn -0.0434 0.9708 0.2357
vn -0.0401 0.7104 0.7027
vn -0.0160 0.7191 0.6947
vn -0.0331 0.9725 0.2305
vn -0.0148 -0.0022 0.9999
vn 0.0170 0.0008 0.9999
vn -0.0238 0.9686 0.2474
vn -0.0231 0.7064 0.7075
vn -0.0115 -0.0075 0.9999
vn -0.0000 -0.7090 0.7052
vn 0.0070 -0.7129 0.7012
vn 0.0001 -0.0006 1.0000
vn 0.0177 0.7351 0.6777
vn -0.0196 0.9735 0.2278
vn 0.0687 0.0015 0.9976
vn 0.0204 -0.7167 0.6971
vn 0.0408 -0.7303 0.6819
vn 0.0390 -0.9726 0.2291
vn 0.0435 -0.9773 0.2074
vn 0.0030 0.9985 0.0549
vn -0.0012 0.9676 0.2525
vn 0.0827 -0.7434 0.6637
vn 0.0658 -0.9776 0.1998
vn 0.1190 0.0013 0.9929
vn -0.0462 0.7761 0.6289
vn 0.0100 0.7597 0.6501
vn 0.1037 0.0010 0.9946
vn -0.1211 0.9662 0.2276
vn -0.0454 0.9733 0.2248
vn 0.1286 0.0152 0.9916
vn -0.1068 0.7816 0.6145
vn -0.2010 0.9562 0.2128
vn 0.2026 -0.7582 0.6197
vn 0.2648 -0.7523 0.6033
vn 0.1922 -0.9576 0.2145
vn 0.2618 -0.9443 0.1994
vn 0.1379 -0.7564 0.6394
vn 0.1179 -0.9710 0.2081
vn 0.1318 0.0417 0.9904
vn -0.1227 0.7831 0.6097
vn -0.2277 0.9591 0.1682
vn 0.2854 -0.9432 0.1702
vn 0.2888 -0.7324 0.6166
vn -0.1146 0.7402 0.6626
vn -0.2476 0.7006 0.6692
vn 0.2100 0.0830 0.9742
vn 0.2826 0.2519 0.9256
vn -0.5766 0.5094 0.6388
vn 0.2363 0.3806 0.8940
vn -0.8024 0.2822 0.5258
vn 0.0967 0.3928 0.9145
vn 0.4291 -0.6215 0.6555
vn 0.7015 -0.3179 0.6378
vn 0.8331 0.0351 0.5520
vn 0.8679 0.1772 0.4640
vn 0.2377 0.9594 -0.1518
vn -0.3885 0.9128 -0.1257
vn -0.9587 0.2564 -0.1235
vn -0.9927 0.0415 -0.1136
vn -0.7218 0.6804 -0.1266
vn 0.0005 0.7082 0.7060
vn 0.1674 -0.9722 -0.1638
vn 0.2419 -0.9551 -0.1708
vn 0.0929 -0.9820 -0.1647
vn 0.9373 -0.2465 -0.2463
vn 0.7138 -0.6446 -0.2739
vn 0.0514 -0.9853 -0.1629
vn 0.0757 -0.9838 -0.1625
vn 0.0568 -0.9835 -0.1716
vn 0.0510 -0.9838 -0.1719
vn 0.3953 -0.8888 -0.2321
vn 0.2670 -0.9444 -0.1918
vn 0.9743 -0.0751 -0.2126
vn -0.0070 -0.7129 0.7012
vn -0.0180 -0.9695 0.2445
vn 0.0013 -0.9686 0.2487
vn 0.3769 0.9261 -0.0203
vn 0.3416 0.9305 0.1323
vn 0.2277 0.9591 0.1682
vn 0.2472 0.9689 -0.0142
vn 0.0160 0.7191 0.6947
vn -0.0177 0.7351 0.6777
vn -0.0687 0.0015 0.9976
vn -0.0170 0.0008 0.9999
vn -0.0408 -0.7303 0.6819
vn -0.0827 -0.7434 0.6637
vn -0.0658 -0.9776 0.1998
vn -0.0435 -0.9773 0.2074
vn 0.0012 0.9676 0.2525
vn 0.0238 0.9686 0.2474
vn 0.0231 0.7064 0.7075
vn -0.0005 0.7082 0.7060
vn -0.2888 -0.7324 0.6166
vn -0.1318 0.0417 0.9904
vn -0.2100 0.0830 0.9742
vn -0.4291 -0.6215 0.6555
vn 0.9929 0.0423 -0.1113
vn 0.9587 0.2566 -0.1228
vn 0.9501 0.2084 -0.2323
vn 0.9779 0.0091 -0.2091
vn -0.7559 -0.6419 -0.1286
vn -0.7785 -0.6274 -0.0145
vn -0.9767 -0.2143 -0.0069
vn -0.9646 -0.2376 -0.1141
vn 0.7218 0.6804 -0.1266
vn 0.3885 0.9128 -0.1257
vn 0.3967 0.8910 -0.2207
vn 0.7397 0.6250 -0.2493
vn 0.0720 0.9900 -0.1212
vn 0.0305 0.9926 -0.1175
vn 0.0300 0.9842 -0.1747
vn 0.0726 0.9834 -0.1663
vn -0.3953 -0.8888 -0.2321
vn -0.2670 -0.9444 -0.1918
vn -0.2643 -0.9451 -0.1921
vn -0.3984 -0.8897 -0.2228
vn 0.0103 0.9999 -0.0000
vn 0.1511 0.9748 -0.1639
vn 0.1532 0.9805 -0.1229
vn -0.1674 -0.9722 -0.1638
vn -0.1682 -0.9720 -0.1639
vn -0.2407 -0.9554 -0.1712
vn -0.2419 -0.9551 -0.1708
vn -0.1190 0.0013 0.9929
vn -0.1286 0.0152 0.9916
vn -0.2648 -0.7523 0.6033
vn -0.2026 -0.7582 0.6197
vn 0.0304 0.9936 -0.1085
vn 0.0272 0.9849 -0.1710
vn 0.2531 0.9577 -0.1368
vn 0.2322 0.9638 -0.1313
vn 0.2273 0.9586 -0.1714
vn 0.2504 0.9490 -0.1916
vn 0.0462 0.7761 0.6289
vn -0.0100 0.7597 0.6501
vn 0.0454 0.9733 0.2248
vn 0.1211 0.9662 0.2276
vn -0.0929 -0.9820 -0.1647
vn -0.0946 -0.9818 -0.1647
vn -0.0568 -0.9835 -0.1716
vn -0.0510 -0.9838 -0.1719
vn -0.0513 -0.9838 -0.1719
vn -0.0582 -0.9835 -0.1714
vn -0.1379 -0.7564 0.6394
vn -0.1037 0.0010 0.9946
vn 0.1068 0.7816 0.6145
vn 0.1227 0.7831 0.6097
vn 0.1146 0.7402 0.6626
vn -0.4183 -0.8971 -0.1423
vn -0.4411 -0.8974 -0.0128
vn -0.0390 -0.9726 0.2291
vn -0.0444 -0.9986 0.0276
vn -0.0236 -0.9988 0.0438
vn -0.0204 -0.7167 0.6971
vn 0.0685 0.9976 -0.0080
vn 0.1497 0.9887 -0.0090
vn -0.0001 -0.0006 1.0000
vn 0.0115 -0.0075 0.9999
vn -0.0757 -0.9838 -0.1625
vn -0.1848 -0.9708 -0.1529
vn -0.0878 -0.9836 -0.1575
vn -0.0622 -0.9856 -0.1571
vn 0.0196 0.9735 0.2278
vn 0.0318 0.9995 0.0021
vn 0.0401 0.7104 0.7027
vn 0.0148 -0.0022 0.9999
vn 0.2476 0.7006 0.6692
vn 0.5766 0.5094 0.6388
vn -0.2363 0.3806 0.8940
vn -0.2826 0.2519 0.9256
vn -0.0404 -0.9956 -0.0847
vn -0.0372 -0.9953 -0.0894
vn -0.0031 -0.9989 0.0474
vn -0.2646 -0.9546 -0.1371
vn -0.2725 -0.9621 -0.0128
vn -0.2618 -0.9443 0.1994
vn -0.2451 -0.9694 -0.0113
vn -0.1732 -0.9848 -0.0110
vn -0.1922 -0.9576 0.2145
vn 0.9533 0.3014 -0.0192
vn 0.7052 0.7087 -0.0206
vn -0.0446 -0.9989 0.0125
vn 0.8024 0.2822 0.5258
vn -0.0967 0.3928 0.9145
vn -0.8679 0.1772 0.4641
vn -0.8331 0.0351 0.5520
vn -0.1002 -0.9949 -0.0118
vn -0.1179 -0.9710 0.2081
vn 0.0331 0.9725 0.2305
vn 0.0349 0.9993 0.0119
vn -0.2854 -0.9432 0.1702
vn -0.7015 -0.3179 0.6378
vn -0.7964 -0.5872 0.1449
vn -0.4553 -0.8763 0.1574
vn -0.9777 -0.1741 0.1174
vn -0.2396 -0.9633 -0.1210
vn 0.2290 0.9734 -0.0090
vn -0.7169 -0.6525 -0.2454
vn -0.0574 -0.9983 -0.0034
vn -0.0584 -0.9922 -0.1105
vn -0.0492 -0.9935 -0.1031
vn -0.9958 0.0244 0.0884
vn -0.9999 -0.0106 -0.0072
vn -0.0486 -0.9943 -0.0950
vn -0.0962 -0.9889 -0.1130
vn 0.0005 0.9965 -0.0833
vn -0.0380 0.9953 -0.0892
vn -0.0907 0.9824 -0.1634
vn -0.0228 0.9872 -0.1578
vn -0.0511 -0.9853 -0.1630
vn -0.9775 -0.0684 -0.1993
vn -0.9374 -0.2641 -0.2269
vn -0.9926 -0.0408 -0.1142
vn -0.1686 -0.9791 -0.1139
vn 0.7480 0.6024 -0.2786
vn 0.9509 0.1653 -0.2617
vn 0.0398 0.9989 0.0245
vn 0.0348 0.9948 -0.0961
vn 0.0723 0.9834 -0.1664
vn 0.1485 0.9752 -0.1639
vn 0.2237 0.9595 -0.1711
vn -0.2294 -0.9622 -0.1465
vn 0.0183 0.9987 0.0475
vn 0.0272 0.9850 -0.1706
vn 0.0308 0.9841 -0.1749
vn 0.6501 0.7497 0.1238
vn 0.2480 0.9485 -0.1970
vn 0.3893 0.8895 -0.2390
vn 0.9709 -0.0029 -0.2394
vn 0.9247 0.3592 0.1265
vn 0.0315 0.9870 -0.1579
vn 0.0313 0.9870 -0.1576
vn -0.1915 0.9686 -0.1585
vn -0.0456 0.9853 -0.1645
vn 0.0102 0.9999 -0.0000
vn 0.2010 0.9562 0.2128
vn 0.9973 0.0700 -0.0200
vn 0.9895 0.1136 0.0890
vn 0.0434 0.9708 0.2357
vn -0.0030 0.9985 0.0549
vn -0.2377 0.9594 -0.1518
vn -0.9742 -0.0751 -0.2126
vn -0.9373 -0.2465 -0.2463
vn -0.7138 -0.6446 -0.2739
vn -0.0514 -0.9853 -0.1629
vn -0.0000 1.0000 -0.0000
vn -0.0000 0.7339 0.6793
vn 0.5574 0.6955 0.4535
vn -0.5574 0.6955 0.4535
vn -0.9834 0.0569 0.1725
vn -0.6867 0.2129 0.6951
vn -0.9939 0.0376 0.1042
vn 0.9987 -0.0063 -0.0502
vn 0.9939 0.0376 0.1042
vn 0.9834 0.0569 0.1725
vn 0.6867 0.2129 0.6951
vn -0.0000 0.2925 0.9563
vn -0.9987 -0.0063 -0.0502
vn -0.0001 -0.9925 -0.1220
vn 0.0010 -0.9894 -0.1449
vn -0.0042 -0.9895 -0.1445
vn -0.0036 -0.9926 -0.1217
vn 0.0001 -0.9925 -0.1220
vn 0.0036 -0.9926 -0.1217
vn 0.0042 -0.9895 -0.1445
vn -0.0010 -0.9894 -0.1449
vn 0.9930 -0.0000 0.1178
vn -0.0000 0.9854 0.1705
vn -0.0354 0.9885 0.1470
vn -0.1517 0.7189 0.6784
vn -0.0000 0.7062 0.7080
vn 0.0016 -0.9951 -0.0989
vn 0.0029 -0.9951 -0.0986
vn -0.2188 -0.0000 0.9758
vn -0.3221 -0.0000 0.9467
vn -0.1964 -0.7971 0.5710
vn -0.1517 -0.7189 0.6784
vn -0.0000 -0.0000 1.0000
vn 0.0004 0.9913 -0.1316
vn -0.0007 0.9873 -0.1591
vn 0.0048 0.9873 -0.1586
vn 0.0040 0.9913 -0.1313
vn -0.0288 -0.9977 0.0621
vn -0.0354 -0.9886 0.1461
vn 0.0018 0.9946 -0.1040
vn 0.0031 0.9946 -0.1037
vn -0.9930 -0.0000 0.1178
vn 0.0354 0.9885 0.1470
vn 0.1517 0.7189 0.6784
vn 0.1964 0.7971 0.5710
vn 0.0282 0.9975 0.0644
vn 0.2188 -0.0000 0.9758
vn 0.3221 -0.0000 0.9467
vn -0.0000 0.9973 -0.0731
vn -0.0018 0.9946 -0.1040
vn -0.0004 0.9913 -0.1316
vn 0.0049 0.9957 -0.0921
vn 0.0007 0.9873 -0.1591
vn 0.0093 0.9935 -0.1139
vn 0.1517 -0.7189 0.6784
vn 0.1964 -0.7971 0.5710
vn 0.0354 -0.9886 0.1461
vn 0.0288 -0.9977 0.0621
vn -0.0016 -0.9951 -0.0989
vn -0.0029 -0.9951 -0.0986
vn -0.0031 0.9946 -0.1037
vn -0.0040 0.9913 -0.1313
vn -0.0000 -0.9854 0.1701
vn 0.0050 -0.9961 -0.0878
vn -0.0000 -0.9974 -0.0719
vn -0.0000 -0.7062 0.7080
vn -0.1964 0.7971 0.5710
vn -0.0049 0.9957 -0.0921
vn -0.0093 0.9935 -0.1139
vn -0.0282 0.9975 0.0644
vn -0.0048 0.9873 -0.1586
vn -0.0050 -0.9961 -0.0878
vn -0.0088 -0.9940 -0.1088
vn -0.9440 -0.0000 -0.3300
vn 0.9440 -0.0000 -0.3300
vn 0.0088 -0.9940 -0.1088
vt 0.526276 0.750617
vt 0.523583 0.750903
vt 0.523486 0.747538
vt 0.526645 0.747685
vt 0.521409 0.750940
vt 0.521409 0.747465
vt 0.516541 0.750617
vt 0.516172 0.747685
vt 0.519332 0.747538
vt 0.519235 0.750903
vt 0.519390 0.745201
vt 0.521409 0.745201
vt 0.523428 0.745201
vt 0.526715 0.745201
vt 0.519331 0.742864
vt 0.521409 0.742937
vt 0.523486 0.742864
vt 0.526645 0.742716
vt 0.516102 0.745201
vt 0.519235 0.739498
vt 0.521409 0.739461
vt 0.523583 0.739498
vt 0.526276 0.739784
vt 0.438360 0.070434
vt 0.438834 0.078999
vt 0.006018 0.085585
vt 0.006373 0.078066
vt 0.511277 0.749521
vt 0.510581 0.745201
vt 0.516172 0.742716
vt 0.666616 0.032677
vt 0.617583 0.034078
vt 0.616737 0.019680
vt 0.667543 0.017341
vt 0.826013 0.083508
vt 0.799975 0.066829
vt 0.805891 0.058252
vt 0.830926 0.078624
vt 0.556845 0.734133
vt 0.557212 0.738208
vt 0.553921 0.737885
vt 0.554092 0.734536
vt 0.516541 0.739784
vt 0.615475 0.008307
vt 0.668037 0.004897
vt 0.818244 0.093565
vt 0.815316 0.098503
vt 0.786390 0.091412
vt 0.790169 0.083638
vt 0.559545 0.741317
vt 0.559610 0.744189
vt 0.557178 0.744219
vt 0.557195 0.741334
vt 0.559378 0.733896
vt 0.559476 0.738244
vt 0.437764 0.060660
vt 0.007584 0.070549
vt 0.005986 0.063126
vt 0.437067 0.051126
vt 0.821638 0.088764
vt 0.794498 0.075780
vt 0.557121 0.748400
vt 0.553973 0.747738
vt 0.553789 0.744698
vt 0.664375 0.063863
vt 0.663463 0.077930
vt 0.619059 0.078236
vt 0.618531 0.064277
vt 0.005264 0.055624
vt 0.436418 0.043037
vt 0.837406 0.101574
vt 0.835534 0.104813
vt 0.439316 0.087586
vt 0.439807 0.097506
vt 0.007925 0.100573
vt 0.006548 0.093091
vt 0.553634 0.741244
vt 0.561920 0.734019
vt 0.561736 0.738106
vt 0.564688 0.734298
vt 0.565009 0.737635
vt 0.559710 0.748638
vt 0.561893 0.741229
vt 0.565447 0.740979
vt 0.665419 0.049290
vt 0.618111 0.050040
vt 0.845607 0.098557
vt 0.845643 0.101758
vt 0.839309 0.098829
vt 0.841859 0.095725
vt 0.562040 0.744109
vt 0.565447 0.744436
vt 0.511277 0.740880
vt 0.513446 0.736404
vt 0.842644 0.107361
vt 0.840505 0.109394
vt 0.833461 0.108887
vt 0.562285 0.748284
vt 0.565400 0.747482
vt 0.845607 0.132570
vt 0.841859 0.135402
vt 0.839309 0.132298
vt 0.845643 0.129369
vt 0.666616 0.198450
vt 0.617583 0.197049
vt 0.618111 0.181087
vt 0.665419 0.181838
vt 0.437765 0.170466
vt 0.007584 0.160579
vt 0.006373 0.153061
vt 0.438361 0.160693
vt 0.529372 0.753997
vt 0.531540 0.749521
vt 0.837406 0.129554
vt 0.844414 0.126502
vt 0.618531 0.166850
vt 0.664375 0.167264
vt 0.006018 0.145542
vt 0.438834 0.152128
vt 0.532237 0.745201
vt 0.835534 0.126314
vt 0.842644 0.123766
vt 0.619059 0.152891
vt 0.663463 0.153197
vt 0.006547 0.138037
vt 0.439316 0.143541
vt 0.531541 0.740880
vt 0.833461 0.122240
vt 0.840505 0.121734
vt 0.619717 0.138028
vt 0.662662 0.138322
vt 0.007924 0.130554
vt 0.439807 0.133621
vt 0.529372 0.736404
vt 0.848115 0.133244
vt 0.844574 0.137655
vt 0.850130 0.134149
vt 0.847180 0.139424
vt 0.513446 0.753998
vt 0.667543 0.213786
vt 0.616737 0.211448
vt 0.668037 0.226230
vt 0.615474 0.222820
vt 0.440086 0.107266
vt 0.006469 0.108063
vt 0.498055 0.044071
vt 0.496723 0.035691
vt 0.437067 0.180000
vt 0.005986 0.168001
vt 0.436418 0.188089
vt 0.005264 0.175503
vt 0.503310 0.096426
vt 0.567816 0.094093
vt 0.568691 0.106055
vt 0.503956 0.106915
vt 0.561287 0.030684
vt 0.559389 0.020909
vt 0.525146 0.755918
vt 0.521409 0.756473
vt 0.844414 0.104626
vt 0.525146 0.734483
vt 0.521409 0.733928
vt 0.567816 0.137034
vt 0.568691 0.125072
vt 0.620199 0.125308
vt 0.569045 0.115564
vt 0.620377 0.115564
vt 0.517671 0.755918
vt 0.812418 0.126544
vt 0.810955 0.120678
vt 0.832641 0.118685
vt 0.810524 0.115564
vt 0.832435 0.115564
vt 0.746918 0.096381
vt 0.782945 0.100113
vt 0.780963 0.108466
vt 0.744950 0.106947
vt 0.812418 0.104583
vt 0.841503 0.118359
vt 0.842061 0.115564
vt 0.662662 0.092805
vt 0.619717 0.093099
vt 0.841503 0.112768
vt 0.832641 0.112442
vt 0.503956 0.124212
vt 0.504190 0.115564
vt 0.503310 0.134701
vt 0.848115 0.097883
vt 0.844574 0.093472
vt 0.847180 0.091704
vt 0.850130 0.096978
vt 0.559389 0.210218
vt 0.561287 0.200443
vt 0.562946 0.188138
vt 0.566614 0.150320
vt 0.565491 0.162409
vt 0.564333 0.174577
vt 0.810955 0.110449
vt 0.620199 0.105819
vt 0.566614 0.080807
vt 0.565491 0.068718
vt 0.564333 0.056550
vt 0.562946 0.042990
vt 0.499339 0.054367
vt 0.440086 0.123861
vt 0.440164 0.115564
vt 0.501441 0.075331
vt 0.500473 0.065452
vt 0.517671 0.734483
vt 0.496723 0.195436
vt 0.498055 0.187056
vt 0.499339 0.176760
vt 0.502360 0.145871
vt 0.501441 0.155796
vt 0.500473 0.165675
vt 0.502360 0.085256
vt 0.006469 0.123065
vt 0.005868 0.115564
vt 0.758033 0.062689
vt 0.753913 0.073838
vt 0.711704 0.067108
vt 0.714517 0.053691
vt 0.763102 0.049910
vt 0.717848 0.038246
vt 0.721237 0.023757
vt 0.768283 0.037822
vt 0.662236 0.125459
vt 0.662107 0.115564
vt 0.705042 0.115564
vt 0.705462 0.125174
vt 0.706763 0.137302
vt 0.768283 0.193305
vt 0.772907 0.203580
vt 0.723982 0.219473
vt 0.721237 0.207371
vt 0.763102 0.181218
vt 0.717848 0.192881
vt 0.750266 0.146457
vt 0.709154 0.151090
vt 0.746918 0.134747
vt 0.753913 0.157289
vt 0.711704 0.164019
vt 0.758033 0.168438
vt 0.714517 0.177436
vt 0.706763 0.093825
vt 0.705462 0.105953
vt 0.662236 0.105669
vt 0.750266 0.084670
vt 0.709154 0.080037
vt 0.723982 0.011655
vt 0.772907 0.027547
vt 0.799975 0.164298
vt 0.794498 0.155347
vt 0.790169 0.147489
vt 0.786390 0.139715
vt 0.782945 0.131014
vt 0.805891 0.172875
vt 0.811426 0.180247
vt 0.744282 0.115564
vt 0.744950 0.124180
vt 0.780319 0.115564
vt 0.830926 0.152503
vt 0.835586 0.156587
vt 0.826013 0.147620
vt 0.815316 0.132625
vt 0.818244 0.137563
vt 0.821638 0.142363
vt 0.780963 0.122661
vt 0.811426 0.050880
vt 0.835586 0.074540
vt 0.820708 0.398022
vt 0.877098 0.406219
vt 0.876572 0.415252
vt 0.820020 0.410475
vt 0.943205 0.543403
vt 0.952541 0.540510
vt 0.951968 0.544776
vt 0.942714 0.547982
vt 0.642752 0.385046
vt 0.723142 0.387874
vt 0.722399 0.405254
vt 0.642385 0.404300
vt 0.824289 0.555453
vt 0.824079 0.543438
vt 0.880441 0.540945
vt 0.880587 0.549837
vt 0.013825 0.547916
vt 0.010472 0.517521
vt 0.024358 0.520072
vt 0.028075 0.549178
vt 0.031012 0.578756
vt 0.322923 0.549178
vt 0.324110 0.573909
vt 0.993621 0.530878
vt 0.993336 0.533523
vt 0.791039 0.530279
vt 0.791501 0.544860
vt 0.728259 0.547031
vt 0.727681 0.530562
vt 0.027863 0.403991
vt 0.024093 0.432833
vt 0.010435 0.435148
vt 0.013982 0.405058
vt 0.648829 0.530291
vt 0.649366 0.548013
vt 0.322011 0.525937
vt 0.994209 0.524933
vt 0.993936 0.527806
vt 0.953244 0.534530
vt 0.953721 0.529925
vt 0.880334 0.530218
vt 0.823990 0.530260
vt 0.599119 0.740027
vt 0.598182 0.740066
vt 0.598605 0.737263
vt 0.599113 0.733899
vt 0.935182 0.531600
vt 0.934871 0.537944
vt 0.944248 0.531464
vt 0.943889 0.536865
vt 0.649896 0.567263
vt 0.728909 0.564120
vt 0.807501 0.530287
vt 0.807777 0.544207
vt 0.786976 0.393949
vt 0.803850 0.395839
vt 0.803169 0.409242
vt 0.786317 0.408128
vt 0.791873 0.558513
vt 0.808059 0.557033
vt 0.802463 0.422885
vt 0.819185 0.423340
vt 0.818382 0.435681
vt 0.801788 0.435928
vt 0.785748 0.422396
vt 0.785202 0.436111
vt 0.949161 0.433097
vt 0.948779 0.438606
vt 0.940079 0.436218
vt 0.940561 0.429943
vt 0.320912 0.379896
vt 0.319798 0.403991
vt 0.005642 0.480651
vt 0.012628 0.490519
vt 0.318863 0.426342
vt 0.318062 0.447991
vt 0.020783 0.457802
vt 0.721696 0.421112
vt 0.720953 0.437030
vt 0.641180 0.439096
vt 0.641853 0.422010
vt 0.030595 0.374611
vt 0.032908 0.599423
vt 0.019078 0.600130
vt 0.016968 0.578655
vt 0.933623 0.415048
vt 0.933830 0.407980
vt 0.941363 0.410808
vt 0.941042 0.417801
vt 0.931956 0.435372
vt 0.932763 0.428129
vt 0.875341 0.435211
vt 0.875956 0.425373
vt 0.599627 0.737262
vt 0.600055 0.740064
vt 0.989704 0.448281
vt 0.989293 0.451905
vt 0.950492 0.415389
vt 0.949984 0.421957
vt 0.934524 0.545167
vt 0.934454 0.550235
vt 0.012296 0.461988
vt 0.990807 0.439282
vt 0.990441 0.442099
vt 0.321862 0.360170
vt 0.322080 0.354885
vt 0.643014 0.363504
vt 0.642876 0.368868
vt 0.322244 0.349588
vt 0.643221 0.358536
vt 0.032069 0.354076
vt 0.032160 0.349019
vt 0.032238 0.343968
vt 0.019338 0.605249
vt 0.033090 0.604522
vt 0.019605 0.610347
vt 0.033277 0.609603
vt 0.723900 0.368856
vt 0.723697 0.373973
vt 0.724238 0.364313
vt 0.325541 0.603890
vt 0.325344 0.598529
vt 0.650408 0.588360
vt 0.650609 0.593284
vt 0.325109 0.593172
vt 0.650240 0.582555
vt 0.017013 0.374788
vt 0.018702 0.353816
vt 0.729653 0.582731
vt 0.730031 0.587161
vt 0.729402 0.577020
vt 0.804984 0.376215
vt 0.804683 0.379625
vt 0.787841 0.377136
vt 0.788345 0.373553
vt 0.804407 0.384814
vt 0.787473 0.382288
vt 0.821563 0.379363
vt 0.821451 0.382657
vt 0.821282 0.387842
vt 0.808830 0.575782
vt 0.808502 0.572463
vt 0.824766 0.570238
vt 0.825235 0.573429
vt 0.808286 0.567492
vt 0.824448 0.565241
vt 0.792499 0.578210
vt 0.792335 0.574690
vt 0.792208 0.569695
vt 0.878223 0.390525
vt 0.877816 0.394085
vt 0.877516 0.398982
vt 0.880724 0.556947
vt 0.880863 0.561848
vt 0.881167 0.565313
vt 0.933931 0.404679
vt 0.941508 0.407427
vt 0.934657 0.401968
vt 0.942519 0.405037
vt 0.950650 0.412826
vt 0.951192 0.410828
vt 0.991104 0.437364
vt 0.991437 0.436328
vt 0.934867 0.555596
vt 0.934492 0.553066
vt 0.942513 0.550610
vt 0.942964 0.552953
vt 0.951729 0.547432
vt 0.952262 0.549301
vt 0.993145 0.535287
vt 0.993134 0.536333
vt 0.005276 0.471666
vt 0.599127 0.748181
vt 0.598403 0.747464
vt 0.598102 0.745733
vt 0.599124 0.745701
vt 0.600146 0.745669
vt 0.599848 0.747444
vt 0.933167 0.421878
vt 0.949499 0.428463
vt 0.990048 0.445270
vt 0.940628 0.424405
vt 0.599121 0.743065
vt 0.600141 0.743054
vt 0.018781 0.348822
vt 0.018845 0.343845
vt 0.598102 0.743086
vt 0.807248 0.517950
vt 0.823914 0.518586
vt 0.790604 0.517375
vt 0.954255 0.525286
vt 0.944649 0.525859
vt 0.321261 0.504290
vt 0.021164 0.494842
vt 0.727148 0.515727
vt 0.648214 0.513185
vt 0.935598 0.524839
vt 0.880271 0.521257
vt 0.994540 0.521488
vt 0.018948 0.623116
vt 0.032700 0.623843
vt 0.032518 0.628942
vt 0.018688 0.628235
vt 0.933594 0.263278
vt 0.933801 0.270346
vt 0.877490 0.279344
vt 0.877072 0.272108
vt 0.642996 0.314821
vt 0.723880 0.309469
vt 0.724217 0.314012
vt 0.643203 0.319789
vt 0.650026 0.640007
vt 0.729272 0.645636
vt 0.729020 0.651346
vt 0.649858 0.645811
vt 0.018698 0.324508
vt 0.032065 0.324248
vt 0.032156 0.329306
vt 0.018777 0.329503
vt 0.650228 0.635081
vt 0.729649 0.641206
vt 0.880481 0.666519
vt 0.880786 0.663054
vt 0.934485 0.672771
vt 0.934110 0.675301
vt 0.990042 0.233248
vt 0.949470 0.249864
vt 0.949131 0.245231
vt 0.989674 0.230046
vt 0.943507 0.691501
vt 0.942823 0.684964
vt 0.952159 0.687857
vt 0.952862 0.693837
vt 0.940600 0.253922
vt 0.933138 0.256449
vt 0.932735 0.250198
vt 0.940532 0.248385
vt 0.786294 0.270198
vt 0.722379 0.273073
vt 0.721675 0.257215
vt 0.785725 0.255931
vt 0.935216 0.703528
vt 0.879890 0.707109
vt 0.879952 0.698149
vt 0.934800 0.696767
vt 0.618939 0.743138
vt 0.618939 0.740195
vt 0.619880 0.740231
vt 0.619960 0.743158
vt 0.802439 0.255442
vt 0.803145 0.269085
vt 0.806867 0.710417
vt 0.807120 0.698079
vt 0.823609 0.698107
vt 0.823533 0.709781
vt 0.808448 0.652585
vt 0.824854 0.654938
vt 0.824384 0.658129
vt 0.808121 0.655904
vt 0.642367 0.274026
vt 0.641835 0.256317
vt 0.876546 0.263075
vt 0.819996 0.267852
vt 0.819161 0.254987
vt 0.875930 0.252954
vt 0.804660 0.298700
vt 0.787818 0.301189
vt 0.787450 0.296038
vt 0.804383 0.293512
vt 0.790222 0.710992
vt 0.790658 0.698088
vt 0.726766 0.712640
vt 0.647832 0.715182
vt 0.648447 0.698075
vt 0.727299 0.697805
vt 0.791953 0.653677
vt 0.792118 0.650157
vt 0.878197 0.287801
vt 0.821539 0.298962
vt 0.821427 0.295668
vt 0.877790 0.284241
vt 0.933902 0.273647
vt 0.934489 0.690423
vt 0.934142 0.683200
vt 0.324723 0.635194
vt 0.323724 0.654456
vt 0.030623 0.649609
vt 0.324958 0.629837
vt 0.786954 0.284377
vt 0.803826 0.282488
vt 0.019215 0.618017
vt 0.032887 0.618762
vt 0.020774 0.733524
vt 0.012238 0.737847
vt 0.010082 0.710846
vt 0.023969 0.708294
vt 0.723676 0.304352
vt 0.723121 0.290452
vt 0.032233 0.334357
vt 0.018841 0.334479
vt 0.322068 0.323440
vt 0.322232 0.328737
vt 0.941480 0.270900
vt 0.950621 0.265501
vt 0.951163 0.267498
vt 0.942490 0.273290
vt 0.027685 0.679187
vt 0.013435 0.680449
vt 0.016579 0.649710
vt 0.880060 0.687421
vt 0.880205 0.678530
vt 0.824067 0.663127
vt 0.823908 0.672914
vt 0.807678 0.671333
vt 0.807905 0.660875
vt 0.949955 0.256370
vt 0.941013 0.260526
vt 0.649514 0.661103
vt 0.991074 0.240962
vt 0.991407 0.241998
vt 0.951879 0.679065
vt 0.992750 0.692033
vt 0.992761 0.693079
vt 0.951347 0.680934
vt 0.791492 0.669854
vt 0.791826 0.658672
vt 0.642858 0.309457
vt 0.642734 0.293280
vt 0.880343 0.671420
vt 0.942131 0.677756
vt 0.942331 0.680385
vt 0.934072 0.678132
vt 0.951586 0.683591
vt 0.823698 0.684929
vt 0.820684 0.280304
vt 0.943866 0.696902
vt 0.728528 0.664246
vt 0.727878 0.681336
vt 0.648984 0.680354
vt 0.992951 0.694843
vt 0.993226 0.697393
vt 0.322536 0.679187
vt 0.618939 0.733890
vt 0.619449 0.737248
vt 0.791119 0.683507
vt 0.027859 0.274336
vt 0.013978 0.273268
vt 0.010431 0.243179
vt 0.024089 0.245494
vt 0.325154 0.624475
vt 0.321624 0.702429
vt 0.993825 0.703430
vt 0.953339 0.698442
vt 0.993532 0.700372
vt 0.807396 0.684160
vt 0.940051 0.242110
vt 0.948750 0.239722
vt 0.320900 0.298430
vt 0.319786 0.274336
vt 0.785179 0.242216
vt 0.801764 0.242400
vt 0.818358 0.242647
vt 0.005252 0.747715
vt 0.030590 0.303715
vt 0.641162 0.239232
vt 0.720932 0.241297
vt 0.941334 0.267518
vt 0.875315 0.243116
vt 0.931928 0.242956
vt 0.989264 0.226422
vt 0.950463 0.262937
vt 0.318851 0.251985
vt 0.318050 0.230337
vt 0.012292 0.216340
vt 0.020779 0.220526
vt 0.934629 0.276359
vt 0.617998 0.740229
vt 0.618429 0.737248
vt 0.821258 0.290484
vt 0.990423 0.236326
vt 0.990777 0.239044
vt 0.321851 0.318156
vt 0.942581 0.675414
vt 0.017010 0.303537
vt 0.788322 0.304772
vt 0.804960 0.302110
vt 0.005272 0.206662
vt 0.618939 0.748153
vt 0.618939 0.745677
vt 0.619960 0.745708
vt 0.619661 0.747437
vt 0.618217 0.747419
vt 0.617919 0.745646
vt 0.617918 0.743126
vt 0.994156 0.706875
vt 0.953873 0.703080
vt 0.944267 0.702508
vt 0.320874 0.724076
vt 0.629812 0.734596
vt 0.629812 0.787511
vt 0.625982 0.787511
vt 0.629812 0.791810
vt 0.626975 0.790551
vt 0.633641 0.787511
vt 0.632648 0.790551
vt 0.410445 0.733957
vt 0.413605 0.733957
vt 0.413605 0.882431
vt 0.410445 0.882431
vt 0.499328 0.733957
vt 0.499328 0.882431
vt 0.422907 0.882431
vt 0.422907 0.733957
vt 0.419748 0.882431
vt 0.419748 0.733957
vt 0.416676 0.882431
vt 0.416676 0.733957
vt 0.334024 0.733957
vt 0.334024 0.882431
vt 0.066030 0.763644
vt 0.006683 0.781085
vt 0.004444 0.775798
vt 0.063397 0.754212
vt 0.261586 0.763624
vt 0.264218 0.754186
vt 0.323219 0.775772
vt 0.320979 0.781063
vt 0.576336 0.751729
vt 0.578541 0.751657
vt 0.577439 0.756957
vt 0.576336 0.762256
vt 0.163796 0.810955
vt 0.076218 0.810408
vt 0.076304 0.807709
vt 0.163795 0.807981
vt 0.167716 0.748210
vt 0.172914 0.737942
vt 0.076394 0.805001
vt 0.016259 0.805001
vt 0.015754 0.802095
vt 0.076369 0.802230
vt 0.163794 0.805001
vt 0.262449 0.846918
vt 0.320820 0.828431
vt 0.323016 0.833595
vt 0.264837 0.854994
vt 0.014512 0.799229
vt 0.076347 0.799467
vt 0.575150 0.757032
vt 0.573964 0.751807
vt 0.169276 0.863900
vt 0.174765 0.873940
vt 0.542742 0.751732
vt 0.542742 0.762262
vt 0.541639 0.756961
vt 0.540536 0.751660
vt 0.251396 0.810410
vt 0.251309 0.807710
vt 0.311839 0.807725
vt 0.313019 0.810400
vt 0.251219 0.805001
vt 0.311409 0.805001
vt 0.163794 0.853843
vt 0.158311 0.863896
vt 0.065167 0.846896
vt 0.067527 0.838931
vt 0.542742 0.734322
vt 0.542742 0.738524
vt 0.539483 0.738524
vt 0.540199 0.735553
vt 0.006841 0.828410
vt 0.009025 0.823271
vt 0.251244 0.802229
vt 0.311910 0.802092
vt 0.251268 0.799465
vt 0.313149 0.799222
vt 0.159870 0.748214
vt 0.154671 0.737950
vt 0.545285 0.735553
vt 0.546000 0.738524
vt 0.152821 0.873933
vt 0.062778 0.854968
vt 0.163796 0.799662
vt 0.068622 0.772884
vt 0.163794 0.758786
vt 0.163795 0.802328
vt 0.015825 0.807721
vt 0.260088 0.838948
vt 0.318636 0.823287
vt 0.014641 0.810394
vt 0.004646 0.833569
vt 0.258994 0.772869
vt 0.545115 0.751810
vt 0.543928 0.757036
vt 0.318748 0.786329
vt 0.576336 0.734325
vt 0.578878 0.735555
vt 0.579593 0.738525
vt 0.576336 0.738525
vt 0.573079 0.738525
vt 0.573794 0.735555
vt 0.608075 0.744856
vt 0.609061 0.733894
vt 0.609992 0.744856
vt 0.609034 0.744856
vt 0.588026 0.744842
vt 0.588983 0.744842
vt 0.589941 0.744842
vt 0.589011 0.755793
vt 0.008914 0.786346
vt 0.609006 0.755819
vt 0.610923 0.755819
vt 0.588956 0.733891
vt 0.590871 0.733891
vt 0.587041 0.733891
vt 0.607090 0.755819
s 1
f 1/1/1 2/2/2 6/3/3 5/4/4
f 2/2/2 3/5/5 7/6/6 6/3/3
f 4/7/7 15/8/8 16/9/9 8/10/10
f 16/9/9 18/11/11 11/12/12 7/6/6
f 5/4/4 6/3/3 10/13/13 9/14/14
f 6/3/3 7/6/6 11/12/12 10/13/13
f 8/10/10 16/9/9 7/6/6 3/5/5
f 18/11/11 20/15/15 14/16/16 11/12/12
f 9/14/14 10/13/13 13/17/17 12/18/18
f 10/13/13 11/12/12 14/16/16 13/17/17
f 15/8/8 17/19/19 18/11/11 16/9/9
f 20/15/15 97/20/20 68/21/21 14/16/16
f 12/18/18 13/17/17 67/22/22 66/23/23
f 13/17/17 14/16/16 68/21/21 67/22/22
f 159/24/24 160/25/25 69/26/26 38/27/27
f 38/28/27 69/29/26 17/19/19 15/8/8
f 17/19/19 19/30/28 20/15/15 18/11/11
f 192/31/29 29/32/30 84/33/31 190/34/32
f 383/35/33 376/36/34 375/37/35 382/38/36
f 21/39/37 22/40/38 33/41/39 25/42/40
f 19/30/28 95/43/41 97/20/20 20/15/15
f 190/34/32 84/33/31 61/44/42 151/45/43
f 385/46/44 386/47/45 379/48/46 378/49/47
f 35/50/48 39/51/49 24/52/50 23/53/51
f 27/54/52 31/55/53 22/40/38 21/39/37
f 158/56/54 30/57/55 88/58/56 163/59/57
f 383/35/33 384/60/58 377/61/59 376/36/34
f 24/52/50 121/62/60 115/63/61 70/64/62
f 197/65/63 363/66/64 75/67/65 65/68/66
f 163/59/57 88/58/56 64/69/67 120/70/68
f 62/71/69 74/72/70 386/47/45 385/46/44
f 161/73/71 166/74/72 98/75/73 79/76/74
f 22/40/38 23/53/51 59/77/75 33/41/39
f 31/55/53 35/50/48 23/53/51 22/40/38
f 27/54/52 28/78/76 32/79/77 31/55/53
f 28/78/76 41/80/78 45/81/79 32/79/77
f 39/51/49 87/82/80 121/62/60 24/52/50
f 23/53/51 24/52/50 70/64/62 59/77/75
f 31/55/53 32/79/77 36/83/81 35/50/48
f 32/79/77 45/81/79 49/84/82 36/83/81
f 192/31/29 195/85/83 37/86/84 29/32/30
f 25/87/40 33/88/39 34/89/85 26/90/86
f 35/50/48 36/83/81 40/91/87 39/51/49
f 36/83/81 49/84/82 53/92/88 40/91/87
f 79/93/74 98/94/73 95/43/41 19/30/28
f 70/95/62 115/96/61 112/97/89 74/72/70
f 39/51/49 40/91/87 86/98/90 87/82/80
f 40/91/87 53/92/88 85/99/91 86/98/90
f 41/100/78 42/101/92 46/102/93 45/103/79
f 147/104/94 43/105/95 47/106/96 148/107/97
f 116/108/98 44/109/99 48/110/100 117/111/101
f 44/112/99 1/1/1 5/4/4 48/113/100
f 45/103/79 46/102/93 50/114/102 49/115/82
f 148/107/97 47/106/96 51/116/103 149/117/104
f 117/111/101 48/110/100 52/118/105 118/119/106
f 48/113/100 5/4/4 9/14/14 52/120/105
f 49/115/82 50/114/102 54/121/107 53/122/88
f 149/117/104 51/116/103 55/123/108 150/124/109
f 118/119/106 52/118/105 56/125/110 119/126/111
f 52/120/105 9/14/14 12/18/18 56/127/110
f 53/122/88 54/121/107 81/128/112 85/129/91
f 150/124/109 55/123/108 76/130/113 156/131/114
f 119/126/111 56/125/110 71/132/115 123/133/116
f 56/127/110 12/18/18 66/23/23 71/134/115
f 41/100/78 28/135/76 57/136/117 42/101/92
f 28/135/76 27/137/52 58/138/118 57/136/117
f 30/139/55 38/28/27 15/8/8 4/7/7
f 158/56/54 159/24/24 38/27/27 30/57/55
f 147/104/94 145/140/119 60/141/120 43/105/95
f 145/140/119 151/142/43 61/143/42 60/141/120
f 98/75/73 166/74/72 173/144/121 99/145/122
f 152/146/123 163/59/57 120/70/68 106/147/124
f 116/108/98 122/148/125 63/149/126 44/109/99
f 122/148/125 120/150/68 64/151/67 63/149/126
f 153/152/127 125/153/128 132/154/129 155/155/130
f 84/33/31 131/156/131 94/157/132 61/44/42
f 44/112/99 63/158/126 2/2/2 1/1/1
f 63/158/126 64/159/67 3/5/5 2/2/2
f 33/88/39 59/160/75 62/71/69 34/89/85
f 195/85/83 197/65/63 65/68/66 37/86/84
f 66/23/23 67/22/22 72/161/133 71/134/115
f 67/22/22 68/21/21 73/162/134 72/161/133
f 59/160/75 70/95/62 74/72/70 62/71/69
f 160/25/25 161/73/71 79/76/74 69/26/26
f 89/163/135 101/164/136 77/165/137 76/130/113
f 101/164/136 96/166/138 78/167/139 77/165/137
f 30/139/55 4/7/7 8/10/10 88/168/56
f 88/168/56 8/10/10 3/5/5 64/159/67
f 193/169/140 191/170/141 82/171/142 81/128/112
f 191/170/141 194/172/143 83/173/144 82/171/142
f 367/174/145 374/175/146 373/176/147 366/177/148
f 74/72/70 112/97/89 381/178/149 386/47/45
f 81/128/112 82/171/142 86/179/90 85/129/91
f 82/171/142 83/173/144 87/180/80 86/179/90
f 69/29/26 79/93/74 19/30/28 17/19/19
f 363/66/64 365/181/150 107/182/151 75/67/65
f 112/97/89 115/96/61 121/183/60 113/184/152
f 113/184/152 121/183/60 87/180/80 83/173/144
f 114/185/153 111/186/154 96/166/138 101/164/136
f 109/187/155 114/185/153 101/164/136 89/163/135
f 21/188/37 80/189/156 58/190/118 27/191/52
f 25/87/40 26/90/86 80/189/156 21/188/37
f 60/141/120 61/143/42 94/192/132 100/193/157
f 43/105/95 60/141/120 100/193/157 90/194/158
f 55/123/108 93/195/159 89/163/135 76/130/113
f 51/116/103 92/196/160 93/195/159 55/123/108
f 47/106/96 91/197/161 92/196/160 51/116/103
f 43/105/95 90/194/158 91/197/161 47/106/96
f 381/178/149 112/97/89 113/184/152 380/198/162
f 380/198/162 113/184/152 83/173/144 194/172/143
f 132/154/129 110/199/163 78/167/139 96/166/138
f 125/153/128 107/182/151 110/199/163 132/154/129
f 65/68/66 75/67/65 130/200/164 128/201/165
f 29/32/30 37/86/84 127/202/166 126/203/167
f 131/156/131 152/146/123 106/147/124 94/157/132
f 126/203/167 134/204/168 152/146/123 131/156/131
f 123/133/116 129/205/169 114/185/153 109/187/155
f 129/205/169 124/206/170 111/186/154 114/185/153
f 127/202/166 128/201/165 144/207/171 136/208/172
f 126/203/167 127/202/166 136/208/172 134/204/168
f 97/20/20 99/209/122 73/162/134 68/21/21
f 95/43/41 98/94/73 99/209/122 97/20/20
f 100/193/157 94/192/132 106/210/124 108/211/173
f 90/194/158 100/193/157 108/211/173 102/212/174
f 93/195/159 105/213/175 109/187/155 89/163/135
f 92/196/160 104/214/176 105/213/175 93/195/159
f 91/197/161 103/215/177 104/214/176 92/196/160
f 90/194/158 102/212/174 103/215/177 91/197/161
f 130/200/164 125/153/128 153/152/127 146/216/178
f 128/201/165 130/200/164 146/216/178 144/207/171
f 72/217/133 73/218/134 124/206/170 129/205/169
f 71/132/115 72/217/133 129/205/169 123/133/116
f 166/74/72 153/152/127 155/155/130 173/144/121
f 173/144/121 155/155/130 111/186/154 124/206/170
f 37/86/84 65/68/66 128/201/165 127/202/166
f 75/67/65 107/182/151 125/153/128 130/200/164
f 29/32/30 126/203/167 131/156/131 84/33/31
f 155/155/130 132/154/129 96/166/138 111/186/154
f 108/211/173 106/210/124 120/150/68 122/148/125
f 102/212/174 108/211/173 122/148/125 116/108/98
f 105/213/175 119/126/111 123/133/116 109/187/155
f 104/214/176 118/119/106 119/126/111 105/213/175
f 103/215/177 117/111/101 118/119/106 104/214/176
f 102/212/174 116/108/98 117/111/101 103/215/177
f 370/219/179 371/220/180 181/221/181 178/222/182
f 369/223/183 176/224/184 174/225/185 368/226/186
f 154/227/187 157/228/188 143/229/189 135/230/190
f 156/131/114 154/227/187 135/230/190 142/231/191
f 178/222/182 181/221/181 197/65/63 195/85/83
f 176/224/184 178/222/182 195/85/83 192/31/29
f 167/232/192 172/233/193 141/234/194 133/235/195
f 168/236/196 167/232/192 133/235/195 137/237/197
f 171/238/198 140/239/199 142/231/191 164/240/200
f 170/241/201 139/242/202 140/239/199 171/238/198
f 169/243/203 138/244/204 139/242/202 170/241/201
f 168/236/196 137/237/197 138/244/204 169/243/203
f 369/223/183 370/219/179 178/222/182 176/224/184
f 365/181/150 189/245/205 175/246/206 364/247/207
f 134/204/168 136/208/172 159/24/24 158/56/54
f 144/207/171 146/216/178 161/73/71 160/25/25
f 146/216/178 153/152/127 166/74/72 161/73/71
f 136/208/172 144/207/171 160/25/25 159/24/24
f 364/247/207 175/246/206 143/229/189 157/228/188
f 372/248/208 367/174/145 189/245/205 183/249/209
f 76/130/113 77/165/137 154/227/187 156/131/114
f 77/165/137 78/167/139 157/228/188 154/227/187
f 368/226/186 174/225/185 141/250/194 172/251/193
f 371/220/180 372/248/208 183/249/209 181/221/181
f 134/204/168 158/56/54 163/59/57 152/146/123
f 99/145/122 173/144/121 124/206/170 73/218/134
f 133/235/195 141/234/194 151/142/43 145/140/119
f 137/237/197 133/235/195 145/140/119 147/104/94
f 140/239/199 150/124/109 156/131/114 142/231/191
f 139/242/202 149/117/104 150/124/109 140/239/199
f 138/244/204 148/107/97 149/117/104 139/242/202
f 137/237/197 147/104/94 148/107/97 138/244/204
f 184/252/210 168/236/196 169/243/203 185/253/211
f 185/253/211 169/243/203 170/241/201 186/254/212
f 186/254/212 170/241/201 171/238/198 187/255/213
f 187/255/213 171/238/198 164/240/200 179/256/214
f 184/252/210 182/257/215 167/232/192 168/236/196
f 182/257/215 188/258/216 172/233/193 167/232/192
f 175/246/206 366/177/148 165/259/217 143/229/189
f 189/245/205 367/174/145 366/177/148 175/246/206
f 183/249/209 189/245/205 365/181/150 363/66/64
f 176/224/184 192/31/29 190/34/32 174/225/185
f 135/230/190 143/229/189 165/259/217 162/260/218
f 142/231/191 135/230/190 162/260/218 164/240/200
f 181/221/181 183/249/209 363/66/64 197/65/63
f 174/225/185 190/34/32 151/45/43 141/250/194
f 110/199/163 364/247/207 157/228/188 78/167/139
f 107/182/151 365/181/150 364/247/207 110/199/163
f 373/176/147 380/198/162 194/172/143 180/261/219
f 374/175/146 381/178/149 380/198/162 373/176/147
f 196/262/220 202/263/221 188/258/216 182/257/215
f 198/264/222 196/262/220 182/257/215 184/252/210
f 201/265/223 187/255/213 179/256/214 193/169/140
f 200/266/224 186/254/212 187/255/213 201/265/223
f 199/267/225 185/253/211 186/254/212 200/266/224
f 198/264/222 184/252/210 185/253/211 199/267/225
f 376/36/34 369/223/183 368/226/186 375/37/35
f 379/48/46 374/175/146 367/174/145 372/248/208
f 162/260/218 165/259/217 180/261/219 177/268/226
f 164/240/200 162/260/218 177/268/226 179/256/214
f 375/37/35 368/226/186 172/251/193 188/269/216
f 378/49/47 379/48/46 372/248/208 371/220/180
f 377/61/59 378/49/47 371/220/180 370/219/179
f 376/36/34 377/61/59 370/219/179 369/223/183
f 42/101/92 198/264/222 199/267/225 46/102/93
f 46/102/93 199/267/225 200/266/224 50/114/102
f 50/114/102 200/266/224 201/265/223 54/121/107
f 54/121/107 201/265/223 193/169/140 81/128/112
f 42/101/92 57/136/117 196/262/220 198/264/222
f 57/136/117 58/138/118 202/263/221 196/262/220
f 26/90/86 383/35/33 382/38/36 80/189/156
f 80/189/156 382/38/36 202/270/221 58/190/118
f 26/90/86 34/89/85 384/60/58 383/35/33
f 366/177/148 373/176/147 180/261/219 165/259/217
f 177/268/226 180/261/219 194/172/143 191/170/141
f 179/256/214 177/268/226 191/170/141 193/169/140
f 34/89/85 62/71/69 385/46/44 384/60/58
f 384/60/58 385/46/44 378/49/47 377/61/59
f 386/47/45 381/178/149 374/175/146 379/48/46
f 382/38/36 375/37/35 188/269/216 202/270/221
f 312/271/227 311/272/228 205/273/229 223/274/230
f 332/275/231 333/276/232 303/277/233 301/278/234
f 313/279/235 314/280/236 212/281/237 206/282/238
f 320/283/239 225/284/240 216/285/241 319/286/242
f 307/287/243 362/288/244 356/289/245 213/290/246
f 317/291/247 213/290/246 215/292/248 318/293/249
f 333/276/232 334/294/250 305/295/251 303/277/233
f 354/296/252 226/297/253 217/298/254 353/299/255
f 203/300/256 338/301/257 349/302/258 208/303/259
f 357/304/260 218/305/261 215/292/248 350/306/262
f 351/307/263 221/308/264 220/309/265 352/310/266
f 355/311/267 216/285/241 225/284/240 361/312/268
f 336/313/269 221/314/269 351/315/269 235/316/269
f 358/317/270 214/318/271 216/285/241 355/311/267
f 359/319/272 219/320/273 214/318/271 358/317/270
f 321/321/274 218/305/261 217/298/254 322/322/275
f 353/299/255 217/298/254 218/305/261 357/304/260
f 350/306/262 215/292/248 213/290/246 356/289/245
f 318/293/249 215/292/248 218/305/261 321/321/274
f 352/310/266 220/309/265 219/320/273 359/319/272
f 354/296/252 360/323/276 227/324/277 226/297/253
f 360/323/276 361/312/268 225/284/240 227/324/277
f 316/325/278 325/326/279 224/327/280 222/328/281
f 325/326/279 312/271/227 223/274/230 224/327/280
f 322/322/275 217/298/254 226/297/253 323/329/282
f 320/283/239 326/330/283 227/324/277 225/284/240
f 326/330/283 323/329/282 226/297/253 227/324/277
f 342/331/284 343/332/285 247/333/286 246/334/287
f 348/335/288 342/331/284 246/334/287 245/336/289
f 314/280/236 316/325/278 222/328/281 212/281/237
f 346/337/290 236/338/291 239/339/292 341/340/293
f 310/341/294 313/279/235 206/282/238 207/342/295
f 362/288/244 241/343/296 231/344/297
f 344/345/298 233/346/299 232/347/300 338/301/257
f 347/348/301 244/349/302 234/350/303 339/351/304
f 309/352/305 310/341/294 207/342/295 203/300/256
f 317/291/247 265/353/306 276/354/307 324/355/308
f 327/356/309 290/357/310 292/358/311 328/359/312
f 341/340/293 239/339/292 238/360/313 340/361/314
f 340/361/314 238/360/313 230/362/315 337/363/316
f 336/313/269 235/316/269 345/364/269 211/365/269
f 337/363/316 230/362/315 247/333/286 343/332/285
f 345/366/317 235/367/318 236/338/291 346/337/290
f 328/359/312 292/358/311 294/368/319 329/369/320
f 331/370/321 332/275/231 301/278/234 299/371/322
f 339/351/304 234/350/303 233/346/299 344/345/298
f 338/301/257 232/347/300 231/372/323 349/302/258
f 348/335/288 245/336/289 244/349/302 347/348/301
f 329/369/320 294/368/319 297/373/324 330/374/325
f 259/375/326 260/376/327 257/377/328 256/378/329
f 260/376/327 258/379/330 243/380/331 257/377/328
f 252/381/332 253/382/333 260/376/327 259/375/326
f 253/382/333 251/383/334 258/379/330 260/376/327
f 277/384/335 276/354/307 265/353/306 266/385/336
f 275/386/337 277/384/335 266/385/336 251/387/334
f 256/378/329 257/377/328 264/388/338 263/389/339
f 257/377/328 243/380/331 242/390/340 264/388/338
f 258/391/330 272/392/341 274/393/342 243/394/331
f 272/392/341 271/395/343 273/396/344 274/393/342
f 251/387/334 266/385/336 272/392/341 258/391/330
f 266/385/336 265/353/306 271/395/343 272/392/341
f 252/381/332 309/352/305 315/397/345 261/398/346
f 309/352/305 203/300/256 208/303/259 315/397/345
f 243/394/331 274/393/342 270/399/347 242/400/340
f 274/393/342 273/396/344 269/401/348 270/399/347
f 249/402/349 283/403/350 281/404/351 248/405/352
f 283/403/350 282/406/353 280/407/354 281/404/351
f 250/408/355 279/409/356 283/403/350 249/402/349
f 279/409/356 278/410/357 282/406/353 283/403/350
f 249/411/349 289/412/358 287/413/359 250/414/355
f 289/412/358 288/415/360 286/416/361 287/413/359
f 248/417/352 285/418/362 289/412/358 249/411/349
f 285/418/362 284/419/363 288/415/360 289/412/358
f 263/389/339 264/388/338 281/404/351 280/407/354
f 264/388/338 242/390/340 248/405/352 281/404/351
f 284/419/363 285/418/362 270/399/347 269/401/348
f 285/418/362 248/417/352 242/400/340 270/399/347
f 237/420/364 255/421/365 279/409/356 250/408/355
f 255/421/365 254/422/366 278/410/357 279/409/356
f 267/423/367 268/424/368 287/413/359 286/416/361
f 268/424/368 237/425/364 250/414/355 287/413/359
f 255/421/365 291/426/369 290/357/310 254/422/366
f 290/357/310 291/426/369 293/427/370 292/358/311
f 291/426/369 240/428/371 229/429/372 293/427/370
f 292/358/311 293/427/370 295/430/373 294/368/319
f 293/427/370 229/429/372 228/431/374 295/430/373
f 294/368/319 295/430/373 298/432/375 297/373/324
f 295/430/373 228/431/374 296/433/376 298/432/375
f 240/434/371 300/435/377 302/436/378 229/437/372
f 300/435/377 299/371/322 301/278/234 302/436/378
f 229/437/372 302/436/378 304/438/379 228/439/374
f 302/436/378 301/278/234 303/277/233 304/438/379
f 228/439/374 304/438/379 306/440/380 296/441/376
f 304/438/379 303/277/233 305/295/251 306/440/380
f 327/356/309 311/272/228 254/422/366 290/357/310
f 237/420/364 240/428/371 291/426/369 255/421/365
f 268/424/368 300/435/377 240/434/371 237/425/364
f 267/423/367 299/371/322 300/435/377 268/424/368
f 319/286/242 331/370/321 299/371/322 267/423/367
f 349/302/258 231/372/323 241/442/381
f 296/443/269 306/444/269 305/445/269 308/446/269
f 296/443/269 308/446/269 297/447/269 298/448/269
f 216/285/241 214/318/271 331/370/321 319/286/242
f 204/449/382 205/273/229 311/272/228 327/356/309
f 317/291/247 324/355/308 307/287/243 213/290/246
f 210/450/383 329/369/320 330/374/325 211/451/384
f 214/318/271 219/320/273 332/275/231 331/370/321
f 209/452/385 328/359/312 329/369/320 210/450/383
f 308/446/269 335/453/269 330/454/269 297/447/269
f 204/449/382 327/356/309 328/359/312 209/452/385
f 252/381/332 259/375/326 310/341/294 309/352/305
f 259/375/326 256/378/329 313/279/235 310/341/294
f 263/389/339 280/407/354 316/325/278 314/280/236
f 288/415/360 284/419/363 323/329/282 326/330/283
f 286/416/361 288/415/360 326/330/283 320/283/239
f 269/401/348 322/322/275 323/329/282 284/419/363
f 282/406/353 278/410/357 312/271/227 325/326/279
f 280/407/354 282/406/353 325/326/279 316/325/278
f 271/395/343 318/293/249 321/321/274 273/396/344
f 273/396/344 321/321/274 322/322/275 269/401/348
f 262/455/386 275/456/337 251/383/334 253/382/333
f 308/446/269 305/445/269 334/457/269 335/453/269
f 220/309/265 221/308/264 334/294/250 333/276/232
f 265/353/306 317/291/247 318/293/249 271/395/343
f 286/416/361 320/283/239 319/286/242 267/423/367
f 256/378/329 263/389/339 314/280/236 313/279/235
f 219/320/273 220/309/265 333/276/232 332/275/231
f 278/410/357 254/422/366 311/272/228 312/271/227
f 335/453/269 334/457/269 221/314/269 336/313/269
f 335/453/269 336/313/269 211/365/269 330/454/269
f 222/328/281 348/335/288 347/348/301 212/281/237
f 206/282/238 339/351/304 344/345/298 207/342/295
f 211/451/384 345/366/317 346/337/290 210/450/383
f 205/273/229 337/363/316 343/332/285 223/274/230
f 204/449/382 340/361/314 337/363/316 205/273/229
f 209/452/385 341/340/293 340/361/314 204/449/382
f 212/281/237 347/348/301 339/351/304 206/282/238
f 207/342/295 344/345/298 338/301/257 203/300/256
f 210/450/383 346/337/290 341/340/293 209/452/385
f 222/328/281 224/327/280 342/331/284 348/335/288
f 224/327/280 223/274/230 343/332/285 342/331/284
f 246/458/387 247/459/388 361/312/268 360/323/276
f 245/460/389 246/458/387 360/323/276 354/296/252
f 236/461/390 352/310/266 359/319/272 239/462/391
f 233/463/392 350/306/262 356/289/245 232/464/393
f 244/465/394 353/299/255 357/304/260 234/466/395
f 239/462/391 359/319/272 358/317/270 238/467/396
f 238/467/396 358/317/270 355/311/267 230/468/397
f 230/468/397 355/311/267 361/312/268 247/459/388
f 235/469/398 351/307/263 352/310/266 236/461/390
f 234/466/395 357/304/260 350/306/262 233/463/392
f 232/464/393 356/289/245 362/288/244 231/344/297
f 245/460/389 354/296/252 353/299/255 244/465/394
f 261/398/346 262/455/386 253/382/333 252/381/332
f 461/470/335 450/471/399 449/472/400 460/473/401
f 511/474/402 474/475/403 438/476/404 495/477/405
f 441/478/406 448/479/407 426/480/408 427/481/409
f 458/482/410 454/483/411 453/484/412 457/485/413
f 445/486/414 436/487/415 437/488/416 446/489/417
f 427/490/409 426/491/408 454/483/411 458/482/410
f 452/492/418 421/493/419 424/494/420 484/495/421
f 395/496/422 394/497/423 559/498/424 555/499/425
f 403/500/426 524/501/427 525/502/428 404/503/429
f 393/504/430 388/505/431 542/506/432 548/507/433
f 406/508/434 396/509/435 565/510/436 566/511/437
f 422/512/438 414/513/439 574/514/440 577/515/441
f 528/516/442 529/517/442 405/518/442 527/519/442
f 406/508/434 566/511/437 549/520/443 408/521/444
f 430/522/445 585/523/446 586/524/447 431/525/448
f 433/526/449 434/527/450 471/528/451 473/529/452
f 396/509/435 390/530/453 541/531/454 565/510/436
f 389/532/455 407/533/456 550/534/457 532/535/458
f 467/536/459 465/537/460 464/538/461 466/539/462
f 429/540/463 573/541/464 585/523/446 430/522/445
f 428/542/465 418/543/466 576/544/467 572/545/468
f 414/513/439 431/525/448 586/524/447 574/514/440
f 469/546/469 454/483/411 426/491/408 432/547/470
f 421/548/419 434/549/450 463/550/471 439/551/472
f 432/547/470 433/526/449 473/529/452 469/546/469
f 452/492/418 471/528/451 434/527/450 421/493/419
f 439/551/472 438/476/404 474/475/403 475/552/473
f 398/553/474 523/554/475 524/501/427 403/500/426
f 449/472/400 455/555/476 502/556/477 501/557/478
f 450/471/399 456/558/479 455/555/476 449/472/400
f 464/538/461 500/559/480 509/560/481 466/539/462
f 459/561/482 435/562/483 450/471/399 461/470/335
f 416/563/484 415/564/485 587/565/486 575/566/487
f 447/567/488 498/568/489 500/559/480 464/538/461
f 446/489/417 437/488/416 435/569/483 459/570/482
f 444/571/490 441/478/406 427/481/409 442/572/491
f 447/567/488 464/538/461 465/537/460 448/479/407
f 477/573/492 479/574/493 412/575/494 413/576/495
f 501/557/478 397/577/496 491/578/497 508/579/498
f 400/580/499 503/581/500 523/554/475 398/553/474
f 470/582/501 504/583/502 510/584/503 472/585/504
f 393/504/430 394/497/423 513/586/505 512/587/506
f 455/555/476 457/485/413 505/588/507 502/556/477
f 479/574/493 482/589/508 480/590/509 412/575/494
f 412/591/494 480/592/509 490/593/510 488/594/511
f 472/585/504 510/584/503 507/595/512 468/596/513
f 440/597/514 497/598/515 498/568/489 447/567/488
f 470/582/501 451/599/516 503/581/500 504/583/502
f 484/495/421 486/600/517 485/601/518 483/602/519
f 497/598/515 390/530/453 396/509/435 498/568/489
f 524/501/427 485/601/518 487/603/520 525/502/428
f 504/583/502 503/581/500 400/580/499 409/604/521
f 496/605/522 407/533/456 389/532/455 495/477/405
f 578/606/523 577/515/441 398/553/474 403/500/426
f 505/588/507 506/607/524 401/608/525 402/609/526
f 525/502/428 487/603/520 489/610/527 527/611/528
f 501/557/478 502/556/477 399/612/529 397/577/496
f 574/514/440 586/524/447 409/604/521 400/580/499
f 529/517/442 419/613/442 569/614/442 405/518/442
f 573/541/464 572/545/468 401/608/525 410/615/530
f 387/616/531 392/617/532 567/618/533 533/619/534
f 456/558/479 458/482/410 457/485/413 455/555/476
f 435/562/483 442/620/491 456/558/479 450/471/399
f 576/544/467 568/621/535 399/612/529 402/609/526
f 569/622/536 570/623/537 404/503/429 405/624/538
f 500/559/480 406/508/434 408/521/444 509/560/481
f 509/560/481 408/521/444 407/533/456 496/605/522
f 573/541/464 410/615/530 411/625/539 585/523/446
f 585/523/446 411/625/539 409/604/521 586/524/447
f 559/498/424 548/507/433 423/626/540 420/627/541
f 494/628/542 391/629/543 390/530/453 497/598/515
f 566/511/437 429/630/544 430/631/545 549/520/443
f 498/568/489 396/509/435 406/508/434 500/559/480
f 570/623/537 578/606/523 403/500/426 404/503/429
f 502/556/477 505/588/507 402/609/526 399/612/529
f 504/583/502 409/604/521 411/625/539 510/584/503
f 506/607/524 507/595/512 410/615/530 401/608/525
f 572/545/468 576/544/467 402/609/526 401/608/525
f 568/621/535 575/566/487 397/577/496 399/612/529
f 510/584/503 411/625/539 410/615/530 507/595/512
f 549/520/443 430/631/545 431/632/546 550/534/457
f 587/565/486 415/564/485 425/633/547
f 493/634/548 387/616/531 391/629/543 494/628/542
f 565/510/436 541/531/454 418/635/549 428/636/550
f 511/474/402 512/587/506 476/637/551 474/475/403
f 501/557/478 508/579/498 460/473/401 449/472/400
f 542/506/432 532/535/458 414/638/552 422/639/553
f 548/507/433 542/506/432 422/639/553 423/626/540
f 555/499/425 559/498/424 420/627/541 419/640/554
f 512/587/506 513/586/505 478/641/555 476/637/551
f 523/554/475 483/602/519 485/601/518 524/501/427
f 541/531/454 554/642/556 417/643/557 418/635/549
f 533/619/534 567/618/533 415/644/558 416/645/559
f 566/511/437 565/510/436 428/636/550 429/630/544
f 475/552/473 477/573/492 413/576/495 424/646/420
f 554/642/556 533/619/534 416/645/559 417/643/557
f 529/517/442 395/647/442 555/648/560 419/613/442
f 532/535/458 550/534/457 431/632/546 414/638/552
f 486/600/517 488/594/511 487/603/520 485/601/518
f 462/649/561 496/605/522 495/477/405 438/476/404
f 513/586/505 514/650/562 481/651/563 478/641/555
f 443/652/564 440/597/514 441/478/406 444/571/490
f 413/653/495 412/591/494 488/594/511 486/600/517
f 474/475/403 476/637/551 477/573/492 475/552/473
f 469/546/469 473/529/452 472/585/504 468/596/513
f 424/494/420 413/653/495 486/600/517 484/495/421
f 488/594/511 490/593/510 489/610/527 487/603/520
f 478/641/555 481/651/563 482/589/508 479/574/493
f 503/581/500 451/599/516 483/602/519 523/554/475
f 476/637/551 478/641/555 479/574/493 477/573/492
f 436/487/415 443/652/564 444/571/490 437/488/416
f 440/597/514 447/567/488 448/479/407 441/478/406
f 436/487/415 445/486/414 499/654/565 493/634/548
f 439/551/472 463/550/471 462/649/561 438/476/404
f 451/599/516 470/582/501 471/528/451 452/492/418
f 473/529/452 471/528/451 470/582/501 472/585/504
f 448/479/407 465/537/460 432/655/470 426/480/408
f 468/596/513 453/484/412 454/483/411 469/546/469
f 434/549/450 433/656/449 467/536/459 463/550/471
f 463/550/471 467/536/459 466/539/462 462/649/561
f 577/515/441 574/514/440 400/580/499 398/553/474
f 567/618/533 425/657/566 415/644/558
f 451/599/516 452/492/418 484/495/421 483/602/519
f 493/634/548 499/654/565 392/617/532 387/616/531
f 433/656/449 432/655/470 465/537/460 467/536/459
f 442/620/491 427/490/409 458/482/410 456/558/479
f 421/548/419 439/551/472 475/552/473 424/646/420
f 437/488/416 444/571/490 442/572/491 435/569/483
f 480/658/442 492/659/442 489/660/442 490/661/442
f 480/658/442 482/662/442 481/663/442 492/659/442
f 492/659/442 528/516/442 527/519/442 489/660/442
f 436/487/415 493/634/548 494/628/542 443/652/564
f 453/484/412 468/596/513 507/595/512 506/607/524
f 492/659/442 481/663/442 514/664/442 528/516/442
f 388/505/431 511/474/402 495/477/405 389/532/455
f 394/497/423 395/496/422 514/650/562 513/586/505
f 457/485/413 453/484/412 506/607/524 505/588/507
f 443/652/564 494/628/542 497/598/515 440/597/514
f 466/539/462 509/560/481 496/605/522 462/649/561
f 404/503/429 525/502/428 527/611/528 405/624/538
f 388/505/431 393/504/430 512/587/506 511/474/402
f 419/665/567 420/666/568 570/623/537 569/622/536
f 423/667/569 422/512/438 577/515/441 578/606/523
f 420/666/568 423/667/569 578/606/523 570/623/537
f 388/505/431 389/532/455 532/535/458 542/506/432
f 391/629/543 387/616/531 533/619/534 554/642/556
f 417/668/570 416/563/484 575/566/487 568/621/535
f 408/521/444 549/520/443 550/534/457 407/533/456
f 418/543/466 417/668/570 568/621/535 576/544/467
f 528/516/442 514/664/442 395/647/442 529/517/442
f 394/497/423 393/504/430 548/507/433 559/498/424
f 429/540/463 428/542/465 572/545/468 573/541/464
f 390/530/453 391/629/543 554/642/556 541/531/454
f 491/578/497 397/577/496 575/566/487 587/565/486
f 517/669/571 526/670/571 521/671/571
f 526/670/571 515/672/572 522/673/573 521/671/571
f 526/670/571 590/674/571 591/675/574 515/672/572
f 588/676/575 589/677/576 591/678/574 590/679/577
f 516/680/578 517/681/578 521/682/579 518/683/580
f 518/683/580 521/682/579 522/684/573 520/685/581
f 520/685/581 522/684/573 515/686/572 519/687/582
f 516/688/583 588/676/575 590/679/577 517/689/583
f 589/677/576 519/687/582 515/686/572 591/678/574
f 517/669/571 590/674/571 526/670/571
f 614/690/584 615/691/585 593/692/586 592/693/587
f 582/694/588 530/695/589 531/696/590 583/697/591
f 571/698/592 561/699/592 583/700/592 531/701/592
f 536/702/593 597/703/594 598/704/595 537/705/596
f 584/706/597 563/707/598 530/695/589 582/694/588
f 596/708/599 602/709/600 603/710/601 600/711/602
f 537/705/596 598/704/595 596/708/599 551/712/603
f 580/713/604 579/714/605 531/715/606 530/716/607
f 600/711/602 603/710/601 601/717/608 599/718/609
f 571/698/592 531/701/592 579/719/592 556/720/592
f 581/721/610 580/713/604 530/716/607 563/722/611
f 610/723/612 593/724/612 615/725/612 607/726/612
f 539/727/613 540/728/614 535/729/615 534/730/616
f 540/728/614 538/731/617 546/732/618 535/729/615
f 558/733/619 613/734/620 612/735/621 605/736/622
f 602/737/612 608/738/612 601/739/612 603/740/612
f 608/738/612 610/723/612 607/726/612 601/739/612
f 605/736/622 612/735/621 611/741/623 604/742/624
f 536/702/593 537/705/596 540/728/614 539/727/613
f 537/705/596 551/712/603 538/731/617 540/728/614
f 538/731/617 544/743/625 547/744/626 546/732/618
f 544/743/625 543/745/627 545/746/628 547/744/626
f 616/747/629 614/690/584 592/693/587 609/748/630
f 602/737/612 595/749/612 594/750/612 608/738/612
f 613/734/620 609/751/631 592/752/632 612/735/621
f 552/753/633 599/718/609 606/754/634 564/755/635
f 551/712/603 553/756/636 544/743/625 538/731/617
f 553/756/636 552/753/633 543/745/627 544/743/625
f 598/704/595 595/757/637 602/709/600 596/708/599
f 536/702/593 539/727/613 557/758/638 558/733/619
f 539/727/613 534/730/616 556/759/639 557/758/638
f 597/703/594 594/760/640 595/757/637 598/704/595
f 612/735/621 592/752/632 593/761/641 611/741/623
f 552/753/633 564/755/635 560/762/642 543/745/627
f 610/723/612 604/763/612 611/764/612 593/724/612
f 543/745/627 560/762/642 561/765/643 545/746/628
f 551/712/603 596/708/599 600/711/602 553/756/636
f 553/756/636 600/711/602 599/718/609 552/753/633
f 546/766/592 547/767/592 545/768/592 562/769/592
f 546/766/592 562/769/592 534/770/592 535/771/592
f 581/772/644 563/773/644 584/774/644 618/775/644
f 564/755/635 606/754/634 614/690/584 616/747/629
f 562/769/592 545/768/592 561/699/592 571/698/592
f 562/769/592 571/698/592 556/720/592 534/770/592
f 536/702/593 558/733/619 605/736/622 597/703/594
f 597/703/594 605/736/622 604/742/624 594/760/640
f 613/776/645 619/777/645 616/778/645 609/779/645
f 599/718/609 601/717/608 607/780/646 606/754/634
f 606/754/634 607/780/646 615/691/585 614/690/584
f 608/738/612 594/750/612 604/763/612 610/723/612
f 558/733/619 557/758/638 580/713/604 581/721/610
f 557/758/638 556/759/639 579/714/605 580/713/604
f 564/755/635 584/706/597 582/694/588 560/762/642
f 560/762/642 582/694/588 583/697/591 561/765/643
f 617/781/644 618/775/644 584/774/644 564/782/644
f 617/783/645 564/784/645 616/778/645 619/777/645
f 558/785/645 617/783/645 619/777/645 613/776/645
f 558/786/644 581/772/644 618/775/644 617/781/644
