# Blender 4.0.2
# www.blender.org
o mushroom_01
v 0.020710 0.080028 -0.020710
v 0.010909 0.080465 -0.026988
v 0.000000 0.080596 -0.029052
v -0.010909 0.080465 -0.026988
v 0.018823 0.085379 -0.018823
v 0.009412 0.086805 -0.023982
v 0.000000 0.087235 -0.025466
v -0.009412 0.086805 -0.023982
v -0.020710 0.080028 -0.020710
v -0.026988 0.080465 -0.010909
v -0.029052 0.080596 -0.000000
v -0.026988 0.080465 0.010909
v -0.018823 0.085379 -0.018823
v -0.023982 0.086805 -0.009412
v -0.025466 0.087235 -0.000000
v -0.023982 0.086805 0.009412
v -0.020710 0.080028 0.020710
v -0.010909 0.080465 0.026988
v 0.000000 0.080596 0.029052
v 0.010909 0.080465 0.026988
v -0.018823 0.085379 0.018823
v -0.009412 0.086805 0.023982
v 0.000000 0.087235 0.025466
v 0.009412 0.086805 0.023982
v 0.027779 0.074947 -0.011507
v 0.030068 0.074947 0.000000
v 0.027779 0.074947 0.011507
v 0.021261 0.074947 0.021261
v 0.011507 0.074947 0.027779
v 0.000000 0.074947 0.030068
v -0.011507 0.074947 0.027779
v 0.020710 0.080028 0.020710
v 0.026988 0.080465 0.010909
v 0.029052 0.080596 -0.000000
v 0.026988 0.080465 -0.010909
v 0.018823 0.085379 0.018823
v 0.023982 0.086805 0.009412
v 0.025466 0.087235 -0.000000
v 0.023982 0.086805 -0.009412
v -0.021261 0.074947 0.021261
v -0.027779 0.074947 0.011507
v -0.030068 0.074947 0.000000
v -0.027779 0.074947 -0.011507
v -0.021261 0.074947 -0.021261
v -0.011507 0.074947 -0.027779
v 0.000000 0.074947 -0.030068
v 0.011507 0.074947 -0.027779
v 0.021261 0.074947 -0.021261
v 0.016131 0.089819 -0.016131
v 0.008065 0.092161 -0.018915
v 0.000000 0.092869 -0.019756
v -0.008065 0.092161 -0.018915
v -0.016131 0.089819 -0.016131
v 0.018915 0.092161 -0.008065
v 0.009458 0.096885 -0.009458
v 0.000000 0.098235 -0.009878
v -0.009458 0.096885 -0.009458
v -0.018915 0.092161 -0.008065
v 0.019756 0.092869 -0.000000
v 0.009878 0.098235 -0.000000
v 0.000000 0.099753 -0.000000
v -0.009878 0.098235 -0.000000
v -0.019756 0.092869 -0.000000
v 0.018915 0.092161 0.008065
v 0.009458 0.096885 0.009458
v 0.000000 0.098235 0.009878
v -0.009458 0.096885 0.009458
v -0.018915 0.092161 0.008065
v 0.016131 0.089819 0.016131
v 0.008065 0.092161 0.018915
v 0.000000 0.092869 0.019756
v -0.008065 0.092161 0.018915
v -0.016131 0.089819 0.016131
v 0.009464 0.069260 0.022849
v 0.017488 0.069260 0.017488
v 0.022849 0.069260 0.009464
v 0.024731 0.069260 0.000000
v 0.022849 0.069260 -0.009464
v 0.000000 0.069260 0.024731
v -0.009464 0.069260 0.022849
v -0.017488 0.069260 0.017488
v -0.022849 0.069260 0.009464
v -0.024731 0.069260 0.000000
v -0.022849 0.069260 -0.009464
v -0.017488 0.069260 -0.017488
v -0.009464 0.069260 -0.022849
v 0.000000 0.069260 -0.024731
v 0.009464 0.069260 -0.022849
v 0.017488 0.069260 -0.017488
v 0.010979 0.071157 0.026504
v 0.000000 0.071157 0.028688
v -0.020286 0.071157 0.020286
v -0.026504 0.071157 0.010979
v 0.020286 0.071157 0.020286
v -0.010978 0.071157 0.026504
v -0.010978 0.071157 -0.026504
v 0.000000 0.071157 -0.028688
v -0.028688 0.071157 0.000000
v -0.026504 0.071157 -0.010978
v 0.010979 0.071157 -0.026504
v 0.020286 0.071157 -0.020286
v -0.020286 0.071157 -0.020286
v 0.026504 0.071157 -0.010978
v 0.028688 0.071157 0.000000
v 0.026504 0.071157 0.010979
v 0.002672 0.073973 0.006451
v 0.004938 0.073973 0.004938
v 0.006451 0.073973 0.002672
v 0.006983 0.073973 -0.000000
v 0.006451 0.073973 -0.002672
v 0.000000 0.073973 0.006983
v -0.002672 0.073973 0.006451
v -0.004938 0.073973 0.004938
v -0.006451 0.073973 0.002672
v -0.006983 0.073973 0.000000
v -0.006451 0.073973 -0.002672
v -0.004938 0.073973 -0.004938
v -0.002672 0.073973 -0.006451
v 0.000000 0.073973 -0.006983
v 0.002672 0.073973 -0.006451
v 0.004938 0.073973 -0.004938
v 0.002493 0.046773 0.006018
v 0.004606 0.046773 0.004606
v 0.006018 0.046773 0.002493
v 0.006514 0.046773 -0.000000
v 0.006018 0.046773 -0.002493
v 0.000000 0.046773 0.006514
v -0.002493 0.046773 0.006018
v -0.004606 0.046773 0.004606
v -0.006018 0.046773 0.002493
v -0.006514 0.046773 0.000000
v -0.006018 0.046773 -0.002493
v -0.004606 0.046773 -0.004606
v -0.002493 0.046773 -0.006018
v 0.000000 0.046773 -0.006514
v 0.002493 0.046773 -0.006018
v 0.004606 0.046773 -0.004606
v 0.003025 0.033813 0.007303
v 0.005590 0.033813 0.005590
v 0.007303 0.033813 0.003025
v 0.007905 0.033813 0.000000
v 0.007303 0.033813 -0.003025
v 0.000000 0.033813 0.007905
v -0.003025 0.033813 0.007303
v -0.005590 0.033813 0.005590
v -0.007303 0.033813 0.003025
v -0.007905 0.033813 0.000000
v -0.007303 0.033813 -0.003025
v -0.005590 0.033813 -0.005590
v -0.003025 0.033813 -0.007303
v 0.000000 0.033813 -0.007905
v 0.003025 0.033813 -0.007303
v 0.005590 0.033813 -0.005590
v 0.005118 0.009842 0.012356
v 0.009457 0.009842 0.009457
v 0.012356 0.009842 0.005118
v 0.013374 0.009842 0.000000
v 0.012356 0.009842 -0.005118
v 0.000000 0.009842 0.013374
v -0.005118 0.009842 0.012356
v -0.009457 0.009842 0.009457
v -0.012356 0.009842 0.005118
v -0.013374 0.009842 0.000000
v -0.012356 0.009842 -0.005118
v -0.009457 0.009842 -0.009457
v -0.005118 0.009842 -0.012356
v 0.000000 0.009842 -0.013374
v 0.005118 0.009842 -0.012356
v 0.009457 0.009842 -0.009457
v 0.002299 0.000000 0.005550
v 0.004248 0.000000 0.004248
v 0.005550 0.000000 0.002299
v 0.006008 0.000000 0.000000
v 0.005550 0.000000 -0.002299
v 0.000000 0.000000 0.006008
v -0.002299 0.000000 0.005550
v -0.004248 0.000000 0.004248
v -0.005550 0.000000 0.002299
v -0.006007 0.000000 0.000000
v -0.005550 0.000000 -0.002299
v -0.004248 0.000000 -0.004248
v -0.002299 0.000000 -0.005550
v 0.000000 0.000000 -0.006008
v 0.002299 0.000000 -0.005550
v 0.004248 0.000000 -0.004248
v 0.011926 0.005616 -0.004940
v 0.012909 0.005616 0.000000
v 0.004940 0.005616 -0.011926
v 0.009128 0.005616 -0.009128
v 0.000000 0.005616 -0.012909
v -0.004940 0.005616 -0.011926
v -0.009128 0.005616 -0.009128
v -0.011926 0.005616 -0.004940
v -0.012909 0.005616 0.000000
v -0.011926 0.005616 0.004940
v -0.009128 0.005616 0.009128
v -0.004940 0.005616 0.011926
v 0.000000 0.005616 0.012909
v 0.004940 0.005616 0.011926
v 0.009128 0.005616 0.009128
v 0.011926 0.005616 0.004940
v 0.010413 0.002253 0.000000
v 0.007363 0.002253 -0.007363
v 0.009621 0.002253 -0.003985
v 0.003985 0.002253 -0.009621
v 0.000000 0.002253 -0.010413
v -0.003985 0.002253 -0.009621
v -0.007363 0.002253 -0.007363
v -0.009621 0.002253 -0.003985
v -0.010413 0.002253 0.000000
v -0.009621 0.002253 0.003985
v -0.007363 0.002253 0.007363
v -0.003985 0.002253 0.009621
v 0.000000 0.002253 0.010413
v 0.003985 0.002253 0.009621
v 0.007363 0.002253 0.007363
v 0.009621 0.002253 0.003985
v -0.009486 0.021790 -0.003929
v -0.007260 0.021790 -0.007260
v -0.010268 0.021790 0.000000
v -0.009486 0.021790 0.003929
v -0.007260 0.021790 0.007260
v -0.003929 0.021790 0.009486
v 0.000000 0.021790 0.010268
v 0.003929 0.021790 0.009486
v 0.007260 0.021790 0.007260
v 0.009486 0.021790 0.003929
v 0.010268 0.021790 0.000000
v 0.009486 0.021790 -0.003929
v 0.003929 0.021790 -0.009486
v 0.007260 0.021790 -0.007260
v 0.000000 0.021790 -0.010268
v -0.003929 0.021790 -0.009486
v -0.008775 0.014677 -0.008775
v 0.008775 0.014677 -0.008775
v -0.011466 0.014677 -0.004749
v -0.012410 0.014677 0.000000
v -0.011466 0.014677 0.004749
v -0.008775 0.014677 0.008775
v -0.004749 0.014677 0.011466
v 0.000000 0.014677 0.012410
v 0.004749 0.014677 0.011466
v 0.008775 0.014677 0.008775
v 0.011466 0.014677 0.004749
v 0.012410 0.014677 0.000000
v 0.011466 0.014677 -0.004749
v 0.004749 0.014677 -0.011466
v 0.000000 0.014677 -0.012410
v -0.004749 0.014677 -0.011466
v 0.005531 0.059631 -0.002291
v 0.005987 0.059631 -0.000000
v 0.002291 0.059631 -0.005531
v 0.004234 0.059631 -0.004234
v 0.000000 0.059631 -0.005987
v -0.002291 0.059631 -0.005531
v -0.004234 0.059631 -0.004234
v -0.005531 0.059631 -0.002291
v -0.005987 0.059631 0.000000
v -0.005531 0.059631 0.002291
v -0.004234 0.059631 0.004234
v -0.002291 0.059631 0.005531
v 0.000000 0.059631 0.005987
v 0.002291 0.059631 0.005531
v 0.004234 0.059631 0.004234
v 0.005531 0.059631 0.002291
v -0.004248 -0.000275 0.000000
v -0.002299 -0.000524 0.000000
v 0.000000 -0.000579 -0.000000
v 0.002299 -0.000524 -0.000000
v 0.004248 -0.000275 0.000000
v -0.019334 0.070204 0.008008
v -0.020927 0.070204 0.000000
v -0.014798 0.070204 0.014798
v -0.008008 0.070204 0.019334
v 0.000000 0.070204 0.020927
v 0.008008 0.070204 0.019334
v 0.014798 0.070204 0.014798
v 0.019334 0.070204 0.008008
v 0.020927 0.070204 0.000000
v 0.019334 0.070204 -0.008008
v 0.008008 0.070204 -0.019334
v 0.014798 0.070204 -0.014798
v 0.000000 0.070204 -0.020927
v -0.008008 0.070204 -0.019334
v -0.014798 0.070204 -0.014798
v -0.019334 0.070204 -0.008008
v -0.016895 0.072055 0.000000
v 0.011946 0.072055 -0.011946
v -0.015609 0.072055 0.006465
v -0.011946 0.072055 0.011946
v -0.006465 0.072055 0.015609
v 0.000000 0.072055 0.016895
v 0.006465 0.072055 0.015609
v 0.011946 0.072055 0.011946
v 0.015609 0.072055 0.006465
v 0.016895 0.072055 0.000000
v 0.015609 0.072055 -0.006465
v 0.006465 0.072055 -0.015609
v 0.000000 0.072055 -0.016895
v -0.006465 0.072055 -0.015609
v -0.011946 0.072055 -0.011946
v -0.015609 0.072055 -0.006465
v 0.005818 0.068665 -0.002410
v 0.002410 0.068665 -0.005818
v 0.000000 0.068665 -0.006297
v -0.002410 0.068665 -0.005818
v -0.004453 0.068665 -0.004453
v -0.005818 0.068665 -0.002410
v -0.006297 0.068665 0.000000
v -0.005818 0.068665 0.002410
v -0.004453 0.068665 0.004453
v -0.002410 0.068665 0.005818
v 0.000000 0.068665 0.006297
v 0.002410 0.068665 0.005818
v 0.004453 0.068665 0.004453
v 0.005818 0.068665 0.002410
v 0.006297 0.068665 -0.000000
v 0.004453 0.068665 -0.004453
vn 0.6727 0.3083 -0.6727
vn 0.3562 0.3157 -0.8795
vn 0.3051 0.5786 -0.7563
vn 0.5895 0.5523 -0.5895
vn -0.0000 0.3184 -0.9479
vn -0.0000 0.5910 -0.8067
vn -0.3562 0.3157 -0.8795
vn -0.3051 0.5786 -0.7563
vn -0.6727 0.3083 -0.6727
vn -0.5895 0.5523 -0.5895
vn 0.2679 0.7777 -0.5686
vn 0.4929 0.7170 -0.4929
vn -0.0000 0.8026 -0.5966
vn -0.2679 0.7777 -0.5686
vn -0.4929 0.7170 -0.4929
vn -0.8795 0.3157 -0.3562
vn -0.7563 0.5786 -0.3051
vn -0.9479 0.3184 -0.0000
vn -0.8067 0.5910 -0.0000
vn -0.8795 0.3157 0.3562
vn -0.7563 0.5786 0.3051
vn -0.6727 0.3083 0.6727
vn -0.5895 0.5523 0.5895
vn -0.5686 0.7777 -0.2679
vn -0.5966 0.8026 -0.0000
vn -0.5686 0.7777 0.2679
vn -0.4929 0.7170 0.4929
vn -0.3562 0.3157 0.8795
vn -0.3051 0.5786 0.7563
vn -0.0000 0.3184 0.9479
vn -0.0000 0.5910 0.8067
vn 0.3562 0.3157 0.8795
vn 0.3051 0.5786 0.7563
vn 0.6727 0.3083 0.6727
vn 0.5895 0.5523 0.5895
vn -0.2679 0.7777 0.5686
vn -0.0000 0.8026 0.5966
vn 0.2679 0.7777 0.5686
vn 0.4929 0.7170 0.4929
vn 0.8795 0.3157 0.3562
vn 0.7563 0.5786 0.3051
vn 0.9479 0.3184 -0.0000
vn 0.8067 0.5910 -0.0000
vn 0.8795 0.3157 -0.3562
vn 0.7563 0.5786 -0.3051
vn 0.5686 0.7777 0.2679
vn 0.5966 0.8026 -0.0000
vn 0.5686 0.7777 -0.2679
vn 0.9202 -0.0873 0.3815
vn 0.9963 -0.0864 -0.0000
vn -0.3815 -0.0873 -0.9202
vn -0.7044 -0.0879 -0.7044
vn -0.9202 -0.0873 0.3815
vn -0.7044 -0.0879 0.7044
vn 0.3815 -0.0873 0.9202
vn 0.7044 -0.0879 0.7044
vn -0.9963 -0.0864 -0.0000
vn -0.0000 -0.0864 -0.9963
vn -0.0000 -0.0864 0.9963
vn 0.9202 -0.0873 -0.3815
vn 0.7044 -0.0879 -0.7044
vn 0.3815 -0.0873 -0.9202
vn -0.9202 -0.0873 -0.3815
vn -0.3815 -0.0873 0.9202
vn 0.3001 0.9055 -0.3001
vn -0.0000 0.9493 -0.3145
vn -0.3001 0.9055 -0.3001
vn 0.3145 0.9493 -0.0000
vn -0.0000 1.0000 -0.0000
vn -0.3145 0.9493 -0.0000
vn 0.3001 0.9055 0.3001
vn -0.0000 0.9493 0.3145
vn -0.3001 0.9055 0.3001
vn -0.7028 -0.6492 0.2911
vn -0.7607 -0.6492 -0.0000
vn -0.1432 -0.9897 -0.0000
vn -0.1323 -0.9897 0.0548
vn -0.7028 -0.6492 -0.2911
vn -0.5379 -0.6492 -0.5379
vn -0.1012 -0.9897 -0.1012
vn -0.1323 -0.9897 -0.0548
vn -0.0000 -0.6492 -0.7607
vn 0.2911 -0.6492 -0.7028
vn 0.0548 -0.9897 -0.1323
vn -0.0000 -0.9897 -0.1432
vn -0.0000 -0.6492 0.7607
vn -0.2911 -0.6492 0.7028
vn -0.0548 -0.9897 0.1323
vn -0.0000 -0.9897 0.1432
vn -0.2911 -0.6492 -0.7028
vn -0.0548 -0.9897 -0.1323
vn 0.5379 -0.6492 -0.5379
vn 0.1012 -0.9897 -0.1012
vn -0.5379 -0.6492 0.5379
vn -0.1012 -0.9897 0.1012
vn 0.5379 -0.6492 0.5379
vn 0.2911 -0.6492 0.7028
vn 0.0548 -0.9897 0.1323
vn 0.1012 -0.9897 0.1012
vn 0.7028 -0.6492 -0.2911
vn 0.7607 -0.6492 -0.0000
vn 0.1432 -0.9897 -0.0000
vn 0.1323 -0.9897 -0.0548
vn 0.7028 -0.6492 0.2911
vn 0.1323 -0.9897 0.0548
vn 0.2949 -0.9477 -0.1221
vn 0.3192 -0.9477 -0.0000
vn 0.1899 -0.9818 -0.0000
vn 0.1755 -0.9818 -0.0727
vn 0.2257 -0.9477 -0.2257
vn 0.1343 -0.9818 -0.1343
vn 0.1221 -0.9477 -0.2949
vn 0.0727 -0.9818 -0.1755
vn -0.0000 -0.9477 -0.3192
vn -0.0000 -0.9818 -0.1899
vn -0.1221 -0.9477 -0.2949
vn -0.0727 -0.9818 -0.1755
vn -0.2257 -0.9477 -0.2257
vn -0.1343 -0.9818 -0.1343
vn -0.2949 -0.9477 -0.1221
vn -0.1755 -0.9818 -0.0727
vn -0.3192 -0.9477 -0.0000
vn -0.1899 -0.9818 -0.0000
vn -0.2949 -0.9477 0.1221
vn -0.1755 -0.9818 0.0727
vn -0.1221 -0.9477 0.2949
vn -0.2257 -0.9477 0.2257
vn -0.1343 -0.9818 0.1343
vn -0.0727 -0.9818 0.1755
vn -0.0000 -0.9477 0.3192
vn -0.0000 -0.9818 0.1899
vn 0.1221 -0.9477 0.2949
vn 0.0727 -0.9818 0.1755
vn 0.2257 -0.9477 0.2257
vn 0.1343 -0.9818 0.1343
vn 0.2949 -0.9477 0.1221
vn 0.1755 -0.9818 0.0727
vn 0.9239 0.0033 -0.3827
vn 1.0000 0.0033 -0.0000
vn 0.9972 0.0742 -0.0000
vn 0.9213 0.0742 -0.3816
vn 0.3827 0.0033 -0.9239
vn 0.7071 0.0033 -0.7071
vn 0.7052 0.0742 -0.7052
vn 0.3816 0.0742 -0.9213
vn -0.0000 0.0033 -1.0000
vn -0.0000 0.0742 -0.9972
vn -0.3827 0.0033 -0.9239
vn -0.3816 0.0742 -0.9213
vn -0.7071 0.0033 -0.7071
vn -0.7052 0.0742 -0.7052
vn -0.9239 0.0033 -0.3827
vn -0.9213 0.0742 -0.3816
vn -1.0000 0.0033 -0.0000
vn -0.9972 0.0742 -0.0000
vn -0.9239 0.0033 0.3827
vn -0.9213 0.0742 0.3816
vn -0.7071 0.0033 0.7071
vn -0.7052 0.0742 0.7052
vn -0.3827 0.0033 0.9239
vn -0.3816 0.0742 0.9213
vn -0.0000 0.0033 1.0000
vn -0.0000 0.0742 0.9972
vn 0.3827 0.0033 0.9239
vn 0.3816 0.0742 0.9213
vn 0.7071 0.0033 0.7071
vn 0.7052 0.0742 0.7052
vn 0.9239 0.0033 0.3827
vn 0.9213 0.0742 0.3816
vn -0.3783 0.1507 0.9133
vn -0.0000 0.1507 0.9886
vn 0.3783 0.1507 0.9133
vn 0.6990 0.1507 0.6990
vn 0.9133 0.1507 0.3783
vn 0.9886 0.1507 -0.0000
vn 0.9133 0.1507 -0.3783
vn 0.6990 0.1507 -0.6990
vn 0.3783 0.1507 -0.9133
vn -0.0000 0.1507 -0.9886
vn -0.3783 0.1507 -0.9133
vn -0.6990 0.1507 -0.6990
vn -0.9133 0.1507 -0.3783
vn -0.9886 0.1507 -0.0000
vn -0.9133 0.1507 0.3783
vn -0.6990 0.1507 0.6990
vn -0.8967 0.2408 -0.3714
vn -0.6863 0.2408 -0.6863
vn -0.7065 0.0427 -0.7065
vn -0.9230 0.0427 -0.3823
vn -0.9706 0.2408 -0.0000
vn -0.9991 0.0427 -0.0000
vn -0.8967 0.2408 0.3714
vn -0.9230 0.0427 0.3823
vn -0.6863 0.2408 0.6863
vn -0.7065 0.0427 0.7065
vn -0.3714 0.2408 0.8967
vn -0.3823 0.0427 0.9230
vn -0.0000 0.2408 0.9706
vn -0.0000 0.0427 0.9991
vn 0.3714 0.2408 0.8967
vn 0.3823 0.0427 0.9230
vn 0.6863 0.2408 0.6863
vn 0.7065 0.0427 0.7065
vn 0.8967 0.2408 0.3714
vn 0.9230 0.0427 0.3823
vn 0.9706 0.2408 -0.0000
vn 0.9991 0.0427 -0.0000
vn 0.8967 0.2408 -0.3714
vn 0.9230 0.0427 -0.3823
vn 0.3714 0.2408 -0.8967
vn 0.6863 0.2408 -0.6863
vn 0.7065 0.0427 -0.7065
vn 0.3823 0.0427 -0.9230
vn -0.0000 0.2408 -0.9706
vn -0.0000 0.0427 -0.9991
vn -0.3714 0.2408 -0.8967
vn -0.3823 0.0427 -0.9230
vn 0.6118 -0.7494 -0.2534
vn 0.6622 -0.7494 -0.0000
vn 0.3126 -0.9499 -0.0000
vn 0.2926 -0.9485 -0.1212
vn 0.2534 -0.7494 -0.6118
vn 0.4682 -0.7494 -0.4682
vn 0.2260 -0.9499 -0.2159
vn 0.1197 -0.9527 -0.2794
vn -0.0000 -0.7494 -0.6622
vn -0.0000 -0.9535 -0.3015
vn -0.2534 -0.7494 -0.6118
vn -0.1197 -0.9527 -0.2794
vn -0.4682 -0.7494 -0.4682
vn -0.2260 -0.9499 -0.2159
vn -0.6118 -0.7494 -0.2534
vn -0.2926 -0.9485 -0.1212
vn -0.6622 -0.7494 -0.0000
vn -0.3126 -0.9499 -0.0000
vn -0.6118 -0.7494 0.2534
vn -0.2926 -0.9485 0.1212
vn -0.4682 -0.7494 0.4682
vn -0.2260 -0.9499 0.2159
vn -0.2534 -0.7494 0.6118
vn -0.1197 -0.9527 0.2794
vn -0.0000 -0.7494 0.6622
vn -0.0000 -0.9535 0.3015
vn 0.2534 -0.7494 0.6118
vn 0.1197 -0.9527 0.2794
vn 0.4682 -0.7494 0.4682
vn 0.2260 -0.9499 0.2159
vn 0.6118 -0.7494 0.2534
vn 0.2926 -0.9485 0.1212
vn 0.8638 -0.3548 0.3578
vn 0.9350 -0.3548 -0.0000
vn 0.6611 -0.3548 0.6611
vn 0.3578 -0.3548 0.8638
vn -0.0000 -0.3548 0.9350
vn -0.3578 -0.3548 0.8638
vn -0.6611 -0.3548 0.6611
vn -0.8638 -0.3548 0.3578
vn -0.9350 -0.3548 -0.0000
vn -0.8638 -0.3548 -0.3578
vn -0.6611 -0.3548 -0.6611
vn -0.3578 -0.3548 -0.8638
vn -0.0000 -0.3548 -0.9350
vn 0.3578 -0.3548 -0.8638
vn 0.8638 -0.3548 -0.3578
vn 0.6611 -0.3548 -0.6611
vn -0.3713 0.2424 -0.8963
vn -0.6860 0.2424 -0.6860
vn -0.0000 0.2424 -0.9702
vn 0.3713 0.2424 -0.8963
vn 0.8963 0.2424 -0.3713
vn 0.6860 0.2424 -0.6860
vn 0.9702 0.2424 -0.0000
vn 0.8963 0.2424 0.3713
vn 0.6860 0.2424 0.6860
vn 0.3713 0.2424 0.8963
vn -0.0000 0.2424 0.9702
vn -0.3713 0.2424 0.8963
vn -0.6860 0.2424 0.6860
vn -0.8963 0.2424 0.3713
vn -0.9702 0.2424 -0.0000
vn -0.8963 0.2424 -0.3713
vn 0.9967 -0.0818 -0.0000
vn 0.9208 -0.0818 0.3814
vn 0.7047 -0.0818 0.7047
vn 0.3814 -0.0818 0.9208
vn -0.0000 -0.0818 0.9967
vn -0.3814 -0.0818 0.9208
vn -0.7047 -0.0818 0.7047
vn -0.9208 -0.0818 0.3814
vn -0.9967 -0.0818 -0.0000
vn -0.9208 -0.0818 -0.3814
vn -0.7047 -0.0818 -0.7047
vn -0.3814 -0.0818 -0.9208
vn -0.0000 -0.0818 -0.9967
vn 0.3814 -0.0818 -0.9208
vn 0.7047 -0.0818 -0.7047
vn 0.9208 -0.0818 -0.3814
vn -0.1059 -0.9944 -0.0000
vn -0.0559 -0.9984 -0.0000
vn -0.0000 -1.0000 -0.0000
vn 0.0559 -0.9984 -0.0000
vn 0.1059 -0.9944 -0.0000
vn 0.2224 -0.9706 0.0921
vn 0.2407 -0.9706 -0.0000
vn 0.1702 -0.9706 0.1702
vn 0.0921 -0.9706 0.2224
vn -0.0000 -0.9706 0.2407
vn -0.0921 -0.9706 0.2224
vn -0.2224 -0.9706 0.0921
vn -0.1702 -0.9706 0.1702
vn -0.2407 -0.9706 -0.0000
vn -0.2224 -0.9706 -0.0921
vn -0.1702 -0.9706 -0.1702
vn -0.0921 -0.9706 -0.2224
vn -0.0000 -0.9706 -0.2407
vn 0.0921 -0.9706 -0.2224
vn 0.1702 -0.9706 -0.1702
vn 0.2224 -0.9706 -0.0921
vn 0.4173 -0.9088 -0.0000
vn 0.3855 -0.9088 0.1597
vn 0.2951 -0.9088 0.2951
vn 0.1597 -0.9088 0.3855
vn -0.0000 -0.9088 0.4173
vn -0.1597 -0.9088 0.3855
vn -0.2951 -0.9088 0.2951
vn -0.3855 -0.9088 0.1597
vn -0.4173 -0.9088 -0.0000
vn -0.3855 -0.9088 -0.1597
vn -0.2951 -0.9088 -0.2951
vn -0.1597 -0.9088 -0.3855
vn -0.0000 -0.9088 -0.4173
vn 0.1597 -0.9088 -0.3855
vn 0.2951 -0.9088 -0.2951
vn 0.3855 -0.9088 -0.1597
vn 0.9163 -0.1281 -0.3795
vn 0.9918 -0.1281 -0.0000
vn 0.3795 -0.1281 -0.9163
vn 0.7013 -0.1281 -0.7013
vn -0.0000 -0.1281 -0.9918
vn -0.3795 -0.1281 -0.9163
vn -0.7013 -0.1281 -0.7013
vn -0.9163 -0.1281 -0.3795
vn -0.9918 -0.1281 -0.0000
vn -0.9163 -0.1281 0.3795
vn -0.7013 -0.1281 0.7013
vn -0.3795 -0.1281 0.9163
vn -0.0000 -0.1281 0.9918
vn 0.3795 -0.1281 0.9163
vn 0.7013 -0.1281 0.7013
vn 0.9163 -0.1281 0.3795
vt 0.781740 0.779625
vt 0.730808 0.809709
vt 0.715005 0.773778
vt 0.757839 0.755816
vt 0.675824 0.819213
vt 0.675824 0.778231
vt 0.620941 0.810490
vt 0.636625 0.774214
vt 0.569666 0.780614
vt 0.593663 0.756473
vt 0.705020 0.742541
vt 0.738319 0.736352
vt 0.675824 0.743913
vt 0.646600 0.742799
vt 0.613246 0.736806
vt 0.539574 0.729337
vt 0.575785 0.713500
vt 0.530580 0.674235
vt 0.571590 0.674252
vt 0.539907 0.619353
vt 0.575914 0.635075
vt 0.569908 0.568444
vt 0.593809 0.592252
vt 0.607146 0.703455
vt 0.605925 0.674230
vt 0.607214 0.645021
vt 0.613329 0.611717
vt 0.620839 0.538360
vt 0.636642 0.574290
vt 0.675824 0.528855
vt 0.675824 0.569837
vt 0.730707 0.537579
vt 0.715022 0.573854
vt 0.781981 0.567455
vt 0.757985 0.591595
vt 0.646627 0.605528
vt 0.675824 0.604155
vt 0.705047 0.605270
vt 0.738402 0.611263
vt 0.812074 0.618732
vt 0.775863 0.634568
vt 0.821067 0.673834
vt 0.780057 0.673817
vt 0.811741 0.728716
vt 0.775733 0.712994
vt 0.744501 0.644614
vt 0.745723 0.673838
vt 0.744433 0.703047
vt 0.848001 0.602300
vt 0.862040 0.673925
vt 0.604693 0.846560
vt 0.544247 0.806172
vt 0.504290 0.602942
vt 0.544718 0.543312
vt 0.746954 0.501509
vt 0.807401 0.541897
vt 0.489608 0.674144
vt 0.675824 0.860147
vt 0.675824 0.487921
vt 0.847358 0.745127
vt 0.806930 0.804756
vt 0.747286 0.845163
vt 0.503647 0.745768
vt 0.604362 0.502905
vt 0.706257 0.704381
vt 0.675824 0.705035
vt 0.645357 0.704583
vt 0.706832 0.673943
vt 0.675824 0.674034
vt 0.644815 0.674126
vt 0.706291 0.643485
vt 0.675824 0.643034
vt 0.645390 0.643687
vt 0.472058 0.589482
vt 0.454490 0.673986
vt 0.410274 0.671748
vt 0.432369 0.570695
vt 0.470994 0.759205
vt 0.519203 0.831373
vt 0.486292 0.861721
vt 0.429066 0.774294
vt 0.675824 0.895234
vt 0.760898 0.877172
vt 0.776527 0.917989
vt 0.675824 0.939470
vt 0.675824 0.452834
vt 0.590750 0.470896
vt 0.575120 0.430080
vt 0.675824 0.408598
vt 0.591496 0.879460
vt 0.573265 0.920324
vt 0.831632 0.829369
vt 0.861218 0.861528
vt 0.520015 0.518700
vt 0.490429 0.486541
vt 0.832445 0.516695
vt 0.760152 0.468609
vt 0.778382 0.427745
vt 0.865356 0.486348
vt 0.879589 0.758586
vt 0.897158 0.674083
vt 0.941373 0.676321
vt 0.919279 0.777373
vt 0.880654 0.588863
vt 0.922581 0.573775
vt 0.472955 0.171571
vt 0.496443 0.136624
vt 0.541723 0.181950
vt 0.532133 0.196122
vt 0.464630 0.212844
vt 0.528693 0.212885
vt 0.472731 0.254156
vt 0.531926 0.229688
vt 0.496018 0.289219
vt 0.541339 0.243974
vt 0.530945 0.312708
vt 0.555497 0.253568
vt 0.572233 0.321064
vt 0.572233 0.257015
vt 0.613531 0.312988
vt 0.589038 0.253788
vt 0.648610 0.289695
vt 0.603317 0.244366
vt 0.672101 0.254746
vt 0.612901 0.230187
vt 0.672340 0.172148
vt 0.680432 0.213473
vt 0.616329 0.213414
vt 0.613119 0.196611
vt 0.649054 0.137064
vt 0.603716 0.182324
vt 0.614114 0.113564
vt 0.589558 0.172730
vt 0.572840 0.105229
vt 0.572803 0.169290
vt 0.531518 0.113327
vt 0.556005 0.172528
vt 0.115635 0.468753
vt 0.100352 0.469323
vt 0.089065 0.367149
vt 0.105630 0.364331
vt 0.147061 0.467766
vt 0.131211 0.468232
vt 0.122541 0.361855
vt 0.139770 0.359734
vt 0.163137 0.467363
vt 0.157261 0.357977
vt 0.179393 0.467029
vt 0.174961 0.356589
vt 0.195783 0.466769
vt 0.192816 0.355574
vt 0.212262 0.466588
vt 0.210774 0.354933
vt 0.228786 0.466488
vt 0.228786 0.354668
vt 0.245379 0.466471
vt 0.246757 0.354779
vt 0.261932 0.466536
vt 0.264680 0.355266
vt 0.278402 0.466678
vt 0.282502 0.356131
vt 0.294744 0.466890
vt 0.300170 0.357369
vt 0.310912 0.467163
vt 0.317631 0.358977
vt 0.326857 0.467487
vt 0.334829 0.360947
vt 0.342525 0.467854
vt 0.351708 0.363268
vt 0.357886 0.468264
vt 0.368245 0.365933
vt 0.291893 0.245941
vt 0.312724 0.248300
vt 0.333346 0.251398
vt 0.353675 0.255265
vt 0.373603 0.259932
vt 0.393038 0.265431
vt 0.063241 0.265998
vt 0.082953 0.260427
vt 0.103108 0.255695
vt 0.123611 0.251769
vt 0.144372 0.248610
vt 0.165318 0.246182
vt 0.186398 0.244456
vt 0.207566 0.243411
vt 0.228786 0.243036
vt 0.249869 0.243326
vt 0.270922 0.244290
vt 0.202995 0.093723
vt 0.177105 0.094656
vt 0.175570 0.063323
vt 0.202193 0.062424
vt 0.228786 0.093436
vt 0.228786 0.062096
vt 0.254928 0.093795
vt 0.255582 0.062349
vt 0.281097 0.094819
vt 0.282452 0.063189
vt 0.307420 0.096544
vt 0.309518 0.064613
vt 0.334029 0.099025
vt 0.336927 0.066618
vt 0.361101 0.102363
vt 0.364905 0.069212
vt 0.388879 0.106751
vt 0.393843 0.072427
vt 0.417677 0.112592
vt 0.424472 0.076397
vt 0.447695 0.120693
vt 0.458160 0.081493
vt 0.041947 0.108785
vt 0.010975 0.114689
vt 0.004896 0.074578
vt 0.037545 0.072785
vt 0.098136 0.101087
vt 0.070694 0.104486
vt 0.066981 0.070791
vt 0.094896 0.068637
vt 0.124821 0.098349
vt 0.122070 0.066553
vt 0.151081 0.096205
vt 0.148894 0.064733
vt 0.163902 0.695920
vt 0.158341 0.668936
vt 0.191714 0.668471
vt 0.194528 0.682729
vt 0.202151 0.733893
vt 0.179293 0.718685
vt 0.202581 0.694826
vt 0.214696 0.702974
vt 0.229052 0.739353
vt 0.229052 0.705921
vt 0.256257 0.734020
vt 0.243249 0.703164
vt 0.279259 0.718599
vt 0.255359 0.695163
vt 0.294529 0.695557
vt 0.263480 0.683145
vt 0.299764 0.668440
vt 0.266390 0.668906
vt 0.294202 0.641457
vt 0.263576 0.654648
vt 0.278811 0.618692
vt 0.255522 0.642551
vt 0.255953 0.603484
vt 0.243408 0.634403
vt 0.229052 0.598024
vt 0.229052 0.631456
vt 0.201847 0.603357
vt 0.214855 0.634213
vt 0.178845 0.618778
vt 0.202745 0.642214
vt 0.163575 0.641820
vt 0.194624 0.654231
vt 0.426939 0.044187
vt 0.461325 0.044859
vt 0.396156 0.042324
vt 0.366968 0.040274
vt 0.338625 0.038368
vt 0.310777 0.036784
vt 0.283235 0.035622
vt 0.255901 0.034939
vt 0.228786 0.034776
vt 0.201380 0.035166
vt 0.174157 0.036111
vt 0.147030 0.037524
vt 0.119939 0.039240
vt 0.092761 0.040990
vt 0.036807 0.042564
vt 0.065236 0.042344
vt 0.006167 0.040459
vt 0.426864 0.010951
vt 0.456799 0.009314
vt 0.397612 0.010503
vt 0.368888 0.009268
vt 0.340525 0.007854
vt 0.312408 0.006577
vt 0.284461 0.005603
vt 0.256618 0.005016
vt 0.228786 0.004887
vt 0.200907 0.005358
vt 0.173122 0.006447
vt 0.145556 0.008066
vt 0.118279 0.010012
vt 0.091332 0.011965
vt 0.038454 0.013478
vt 0.064724 0.013410
vt 0.012743 0.010512
vt 0.155195 0.148347
vt 0.179774 0.146516
vt 0.130494 0.150990
vt 0.105608 0.154536
vt 0.055075 0.165071
vt 0.080476 0.159143
vt 0.029472 0.172702
vt 0.402028 0.166964
vt 0.426604 0.175181
vt 0.377110 0.160516
vt 0.352169 0.155495
vt 0.327310 0.151635
vt 0.302559 0.148763
vt 0.277903 0.146764
vt 0.253318 0.145567
vt 0.228786 0.145131
vt 0.204288 0.145450
vt 0.360811 0.539854
vt 0.344828 0.541054
vt 0.328583 0.541962
vt 0.312143 0.542619
vt 0.295576 0.543075
vt 0.278928 0.543376
vt 0.262234 0.543561
vt 0.245516 0.543660
vt 0.228786 0.543694
vt 0.212134 0.543633
vt 0.195506 0.543499
vt 0.178933 0.543279
vt 0.162448 0.542956
vt 0.146089 0.542507
vt 0.129903 0.541900
vt 0.113948 0.541095
vt 0.098303 0.540042
vt 0.255312 0.668848
vt 0.243184 0.668776
vt 0.229052 0.668688
vt 0.214920 0.668601
vt 0.202792 0.668529
vt 0.377824 0.791388
vt 0.356768 0.667681
vt 0.445534 0.897597
vt 0.550051 0.969646
vt 0.675824 0.993091
vt 0.794533 0.967322
vt 0.966639 0.801303
vt 0.895922 0.900982
vt 0.994880 0.680387
vt 0.973824 0.556680
vt 0.906114 0.450472
vt 0.801597 0.378423
vt 0.675824 0.354977
vt 0.557114 0.380747
vt 0.455725 0.447087
vt 0.385009 0.546766
vt 0.475059 0.115417
vt 0.519879 0.085549
vt 0.572719 0.075112
vt 0.625531 0.085695
vt 0.670268 0.115686
vt 0.700121 0.160516
vt 0.710548 0.213354
vt 0.699974 0.266159
vt 0.669996 0.310913
vt 0.625149 0.340792
vt 0.572233 0.351176
vt 0.519517 0.340540
vt 0.474821 0.310584
vt 0.444966 0.265792
vt 0.434519 0.212970
vt 0.445085 0.160164
vt 0.110229 0.582160
vt 0.093411 0.580399
vt 0.143984 0.584450
vt 0.127092 0.583473
vt 0.160899 0.585172
vt 0.177835 0.585695
vt 0.194795 0.586055
vt 0.211780 0.586269
vt 0.228786 0.586336
vt 0.245655 0.586373
vt 0.262599 0.586350
vt 0.279627 0.586227
vt 0.296745 0.585949
vt 0.313954 0.585451
vt 0.331249 0.584643
vt 0.348614 0.583409
vt 0.366059 0.581576
s 1
f 1/1/1 2/2/2 6/3/3 5/4/4
f 2/2/2 3/5/5 7/6/6 6/3/3
f 3/5/5 4/7/7 8/8/8 7/6/6
f 4/7/7 9/9/9 13/10/10 8/8/8
f 5/4/4 6/3/3 50/11/11 49/12/12
f 6/3/3 7/6/6 51/13/13 50/11/11
f 7/6/6 8/8/8 52/14/14 51/13/13
f 8/8/8 13/10/10 53/15/15 52/14/14
f 9/9/9 10/16/16 14/17/17 13/10/10
f 10/16/16 11/18/18 15/19/19 14/17/17
f 11/18/18 12/20/20 16/21/21 15/19/19
f 12/20/20 17/22/22 21/23/23 16/21/21
f 13/10/10 14/17/17 58/24/24 53/15/15
f 14/17/17 15/19/19 63/25/25 58/24/24
f 15/19/19 16/21/21 68/26/26 63/25/25
f 16/21/21 21/23/23 73/27/27 68/26/26
f 17/22/22 18/28/28 22/29/29 21/23/23
f 18/28/28 19/30/30 23/31/31 22/29/29
f 19/30/30 20/32/32 24/33/33 23/31/31
f 20/32/32 32/34/34 36/35/35 24/33/33
f 21/23/23 22/29/29 72/36/36 73/27/27
f 22/29/29 23/31/31 71/37/37 72/36/36
f 23/31/31 24/33/33 70/38/38 71/37/37
f 24/33/33 36/35/35 69/39/39 70/38/38
f 32/34/34 33/40/40 37/41/41 36/35/35
f 33/40/40 34/42/42 38/43/43 37/41/41
f 34/42/42 35/44/44 39/45/45 38/43/43
f 35/44/44 1/1/1 5/4/4 39/45/45
f 36/35/35 37/41/41 64/46/46 69/39/39
f 37/41/41 38/43/43 59/47/47 64/46/46
f 38/43/43 39/45/45 54/48/48 59/47/47
f 39/45/45 5/4/4 49/12/12 54/48/48
f 34/42/42 33/40/40 27/49/49 26/50/50
f 9/9/9 4/7/7 45/51/51 44/52/52
f 17/22/22 12/20/20 41/53/53 40/54/54
f 32/34/34 20/32/32 29/55/55 28/56/56
f 12/20/20 11/18/18 42/57/57 41/53/53
f 4/7/7 3/5/5 46/58/58 45/51/51
f 20/32/32 19/30/30 30/59/59 29/55/55
f 1/1/1 35/44/44 25/60/60 48/61/61
f 3/5/5 2/2/2 47/62/62 46/58/58
f 35/44/44 34/42/42 26/50/50 25/60/60
f 10/16/16 9/9/9 44/52/52 43/63/63
f 2/2/2 1/1/1 48/61/61 47/62/62
f 18/28/28 17/22/22 40/54/54 31/64/64
f 11/18/18 10/16/16 43/63/63 42/57/57
f 33/40/40 32/34/34 28/56/56 27/49/49
f 19/30/30 18/28/28 31/64/64 30/59/59
f 49/12/12 50/11/11 55/65/65 54/48/48
f 50/11/11 51/13/13 56/66/66 55/65/65
f 51/13/13 52/14/14 57/67/67 56/66/66
f 52/14/14 53/15/15 58/24/24 57/67/67
f 54/48/48 55/65/65 60/68/68 59/47/47
f 55/65/65 56/66/66 61/69/69 60/68/68
f 56/66/66 57/67/67 62/70/70 61/69/69
f 57/67/67 58/24/24 63/25/25 62/70/70
f 59/47/47 60/68/68 65/71/71 64/46/46
f 60/68/68 61/69/69 66/72/72 65/71/71
f 61/69/69 62/70/70 67/73/73 66/72/72
f 62/70/70 63/25/25 68/26/26 67/73/73
f 64/46/46 65/71/71 70/38/38 69/39/39
f 65/71/71 66/72/72 71/37/37 70/38/38
f 66/72/72 67/73/73 72/36/36 71/37/37
f 67/73/73 68/26/26 73/27/27 72/36/36
f 93/74/74 98/75/75 83/76/76 82/77/77
f 99/78/78 102/79/79 85/80/80 84/81/81
f 97/82/82 100/83/83 88/84/84 87/85/85
f 91/86/86 95/87/87 80/88/88 79/89/89
f 102/79/79 96/90/90 86/91/91 85/80/80
f 100/83/83 101/92/92 89/93/93 88/84/84
f 98/75/75 99/78/78 84/81/81 83/76/76
f 96/90/90 97/82/82 87/85/85 86/91/91
f 95/87/87 92/94/94 81/95/95 80/88/88
f 94/96/96 90/97/97 74/98/98 75/99/99
f 92/94/94 93/74/74 82/77/77 81/95/95
f 90/97/97 91/86/86 79/89/89 74/98/98
f 103/100/100 104/101/101 77/102/102 78/103/103
f 101/92/92 103/100/100 78/103/103 89/93/93
f 104/101/101 105/104/104 76/105/105 77/102/102
f 105/104/104 94/96/96 75/99/99 76/105/105
f 27/49/49 28/56/56 94/96/96 105/104/104
f 26/50/50 27/49/49 105/104/104 104/101/101
f 48/61/61 25/60/60 103/100/100 101/92/92
f 25/60/60 26/50/50 104/101/101 103/100/100
f 29/55/55 30/59/59 91/86/86 90/97/97
f 40/54/54 41/53/53 93/74/74 92/94/94
f 28/56/56 29/55/55 90/97/97 94/96/96
f 31/64/64 40/54/54 92/94/94 95/87/87
f 45/51/51 46/58/58 97/82/82 96/90/90
f 42/57/57 43/63/63 99/78/78 98/75/75
f 47/62/62 48/61/61 101/92/92 100/83/83
f 44/52/52 45/51/51 96/90/90 102/79/79
f 30/59/59 31/64/64 95/87/87 91/86/86
f 46/58/58 47/62/62 100/83/83 97/82/82
f 43/63/63 44/52/52 102/79/79 99/78/78
f 41/53/53 42/57/57 98/75/75 93/74/74
f 289/106/106 287/107/107 115/108/108 114/109/109
f 290/110/110 289/106/106 114/109/109 113/111/111
f 291/112/112 290/110/110 113/111/111 112/113/113
f 292/114/114 291/112/112 112/113/113 111/115/115
f 293/116/116 292/114/114 111/115/115 106/117/117
f 294/118/118 293/116/116 106/117/117 107/119/119
f 295/120/120 294/118/118 107/119/119 108/121/121
f 296/122/122 295/120/120 108/121/121 109/123/123
f 297/124/124 296/122/122 109/123/123 110/125/125
f 298/126/126 288/127/127 121/128/128 120/129/129
f 288/127/127 297/124/124 110/125/125 121/128/128
f 299/130/130 298/126/126 120/129/129 119/131/131
f 300/132/132 299/130/130 119/131/131 118/133/133
f 301/134/134 300/132/132 118/133/133 117/135/135
f 302/136/136 301/134/134 117/135/135 116/137/137
f 287/107/107 302/136/136 116/137/137 115/108/108
f 250/138/138 251/139/139 125/140/140 126/141/141
f 252/142/142 253/143/143 137/144/144 136/145/145
f 253/143/143 250/138/138 126/141/141 137/144/144
f 254/146/146 252/142/142 136/145/145 135/147/147
f 255/148/148 254/146/146 135/147/147 134/149/149
f 256/150/150 255/148/148 134/149/149 133/151/151
f 257/152/152 256/150/150 133/151/151 132/153/153
f 258/154/154 257/152/152 132/153/153 131/155/155
f 259/156/156 258/154/154 131/155/155 130/157/157
f 260/158/158 259/156/156 130/157/157 129/159/159
f 261/160/160 260/158/158 129/159/159 128/161/161
f 262/162/162 261/160/160 128/161/161 127/163/163
f 263/164/164 262/162/162 127/163/163 122/165/165
f 264/166/166 263/164/164 122/165/165 123/167/167
f 265/168/168 264/166/166 123/167/167 124/169/169
f 251/170/139 265/168/168 124/169/169 125/171/140
f 127/163/163 128/161/161 144/172/170 143/173/171
f 122/165/165 127/163/163 143/173/171 138/174/172
f 123/167/167 122/165/165 138/174/172 139/175/173
f 124/169/169 123/167/167 139/175/173 140/176/174
f 125/171/140 124/169/169 140/176/174 141/177/175
f 126/141/141 125/140/140 141/178/175 142/179/176
f 136/145/145 137/144/144 153/180/177 152/181/178
f 137/144/144 126/141/141 142/179/176 153/180/177
f 135/147/147 136/145/145 152/181/178 151/182/179
f 134/149/149 135/147/147 151/182/179 150/183/180
f 133/151/151 134/149/149 150/183/180 149/184/181
f 132/153/153 133/151/151 149/184/181 148/185/182
f 131/155/155 132/153/153 148/185/182 147/186/183
f 130/157/157 131/155/155 147/186/183 146/187/184
f 129/159/159 130/157/157 146/187/184 145/188/185
f 128/161/161 129/159/159 145/188/185 144/172/170
f 236/189/186 234/190/187 165/191/188 164/192/189
f 237/193/190 236/189/186 164/192/189 163/194/191
f 238/195/192 237/193/190 163/194/191 162/196/193
f 239/197/194 238/195/192 162/196/193 161/198/195
f 240/199/196 239/197/194 161/198/195 160/200/197
f 241/201/198 240/199/196 160/200/197 159/202/199
f 242/203/200 241/201/198 159/202/199 154/204/201
f 243/205/202 242/203/200 154/204/201 155/206/203
f 244/207/204 243/205/202 155/206/203 156/208/205
f 245/209/206 244/207/204 156/208/205 157/210/207
f 246/211/208 245/212/206 157/213/207 158/214/209
f 247/215/210 235/216/211 169/217/212 168/218/213
f 235/216/211 246/211/208 158/214/209 169/217/212
f 248/219/214 247/215/210 168/218/213 167/220/215
f 249/221/216 248/219/214 167/220/215 166/222/217
f 234/190/187 249/221/216 166/222/217 165/191/188
f 204/223/218 202/224/219 173/225/220 174/226/221
f 205/227/222 203/228/223 185/229/224 184/230/225
f 203/228/223 204/223/218 174/226/221 185/229/224
f 206/231/226 205/227/222 184/230/225 183/232/227
f 207/233/228 206/231/226 183/232/227 182/234/229
f 208/235/230 207/233/228 182/234/229 181/236/231
f 209/237/232 208/235/230 181/236/231 180/238/233
f 210/239/234 209/237/232 180/238/233 179/240/235
f 211/241/236 210/239/234 179/240/235 178/242/237
f 212/243/238 211/241/236 178/242/237 177/244/239
f 213/245/240 212/243/238 177/244/239 176/246/241
f 214/247/242 213/245/240 176/246/241 175/248/243
f 215/249/244 214/247/242 175/248/243 170/250/245
f 216/251/246 215/249/244 170/250/245 171/252/247
f 217/253/248 216/251/246 171/252/247 172/254/249
f 202/224/219 217/253/248 172/254/249 173/225/220
f 157/210/207 156/208/205 201/255/250 187/256/251
f 156/208/205 155/206/203 200/257/252 201/255/250
f 155/206/203 154/204/201 199/258/253 200/257/252
f 154/204/201 159/202/199 198/259/254 199/258/253
f 159/202/199 160/200/197 197/260/255 198/259/254
f 160/200/197 161/198/195 196/261/256 197/260/255
f 161/198/195 162/196/193 195/262/257 196/261/256
f 162/196/193 163/194/191 194/263/258 195/262/257
f 163/194/191 164/192/189 193/264/259 194/263/258
f 164/192/189 165/191/188 192/265/260 193/264/259
f 165/191/188 166/222/217 191/266/261 192/265/260
f 166/222/217 167/220/215 190/267/262 191/266/261
f 167/220/215 168/218/213 188/268/263 190/267/262
f 169/217/212 158/214/209 186/269/264 189/270/265
f 168/218/213 169/217/212 189/270/265 188/268/263
f 158/214/209 157/213/207 187/271/251 186/269/264
f 187/256/251 201/255/250 217/272/248 202/273/219
f 201/255/250 200/257/252 216/274/246 217/272/248
f 200/257/252 199/258/253 215/275/244 216/274/246
f 199/258/253 198/259/254 214/276/242 215/275/244
f 198/259/254 197/260/255 213/277/240 214/276/242
f 197/260/255 196/261/256 212/278/238 213/277/240
f 196/261/256 195/262/257 211/279/236 212/278/238
f 195/262/257 194/263/258 210/280/234 211/279/236
f 194/263/258 193/264/259 209/281/232 210/280/234
f 193/264/259 192/265/260 208/282/230 209/281/232
f 192/265/260 191/266/261 207/283/228 208/282/230
f 191/266/261 190/267/262 206/284/226 207/283/228
f 190/267/262 188/268/263 205/285/222 206/284/226
f 189/270/265 186/269/264 204/286/218 203/287/223
f 188/268/263 189/270/265 203/287/223 205/285/222
f 186/269/264 187/271/251 202/288/219 204/286/218
f 149/184/181 150/183/180 233/289/266 219/290/267
f 150/183/180 151/182/179 232/291/268 233/289/266
f 151/182/179 152/181/178 230/292/269 232/291/268
f 153/180/177 142/179/176 229/293/270 231/294/271
f 152/181/178 153/180/177 231/294/271 230/292/269
f 142/179/176 141/178/175 228/295/272 229/293/270
f 141/177/175 140/176/174 227/296/273 228/297/272
f 140/176/174 139/175/173 226/298/274 227/296/273
f 139/175/173 138/174/172 225/299/275 226/298/274
f 138/174/172 143/173/171 224/300/276 225/299/275
f 143/173/171 144/172/170 223/301/277 224/300/276
f 144/172/170 145/188/185 222/302/278 223/301/277
f 145/188/185 146/187/184 221/303/279 222/302/278
f 146/187/184 147/186/183 220/304/280 221/303/279
f 147/186/183 148/185/182 218/305/281 220/304/280
f 148/185/182 149/184/181 219/290/267 218/305/281
f 219/290/267 233/289/266 249/221/216 234/190/187
f 233/289/266 232/291/268 248/219/214 249/221/216
f 232/291/268 230/292/269 247/215/210 248/219/214
f 231/294/271 229/293/270 246/211/208 235/216/211
f 230/292/269 231/294/271 235/216/211 247/215/210
f 229/293/270 228/295/272 245/212/206 246/211/208
f 228/297/272 227/296/273 244/207/204 245/209/206
f 227/296/273 226/298/274 243/205/202 244/207/204
f 226/298/274 225/299/275 242/203/200 243/205/202
f 225/299/275 224/300/276 241/201/198 242/203/200
f 224/300/276 223/301/277 240/199/196 241/201/198
f 223/301/277 222/302/278 239/197/194 240/199/196
f 222/302/278 221/303/279 238/195/192 239/197/194
f 221/303/279 220/304/280 237/193/190 238/195/192
f 220/304/280 218/305/281 236/189/186 237/193/190
f 218/305/281 219/290/267 234/190/187 236/189/186
f 317/306/282 316/307/283 265/168/168 251/170/139
f 316/307/283 315/308/284 264/166/166 265/168/168
f 315/308/284 314/309/285 263/164/164 264/166/166
f 314/309/285 313/310/286 262/162/162 263/164/164
f 313/310/286 312/311/287 261/160/160 262/162/162
f 312/311/287 311/312/288 260/158/158 261/160/160
f 311/312/288 310/313/289 259/156/156 260/158/158
f 310/313/289 309/314/290 258/154/154 259/156/156
f 309/314/290 308/315/291 257/152/152 258/154/154
f 308/315/291 307/316/292 256/150/150 257/152/152
f 307/316/292 306/317/293 255/148/148 256/150/150
f 306/317/293 305/318/294 254/146/146 255/148/148
f 305/318/294 304/319/295 252/142/142 254/146/146
f 318/320/296 303/321/297 250/138/138 253/143/143
f 304/319/295 318/320/296 253/143/143 252/142/142
f 303/321/297 317/322/282 251/139/139 250/138/138
f 179/240/235 266/323/298 177/244/239 178/242/237
f 266/323/298 267/324/299 176/246/241 177/244/239
f 267/324/299 268/325/300 175/248/243 176/246/241
f 268/325/300 269/326/301 170/250/245 175/248/243
f 269/326/301 270/327/302 171/252/247 170/250/245
f 270/327/302 173/225/220 172/254/249 171/252/247
f 180/238/233 181/236/231 266/323/298 179/240/235
f 181/236/231 182/234/229 267/324/299 266/323/298
f 182/234/229 183/232/227 268/325/300 267/324/299
f 183/232/227 184/230/225 269/326/301 268/325/300
f 184/230/225 185/229/224 270/327/302 269/326/301
f 185/229/224 174/226/221 173/225/220 270/327/302
f 83/76/76 84/81/81 286/328/303 272/329/304
f 84/81/81 85/80/80 285/330/305 286/328/303
f 85/80/80 86/91/91 284/331/306 285/330/305
f 86/91/91 87/85/85 283/332/307 284/331/306
f 87/85/85 88/84/84 281/333/308 283/332/307
f 89/93/93 78/103/103 280/334/309 282/335/310
f 88/84/84 89/93/93 282/335/310 281/333/308
f 78/103/103 77/102/102 279/336/311 280/334/309
f 77/102/102 76/105/105 278/337/312 279/336/311
f 76/105/105 75/99/99 277/338/313 278/337/312
f 75/99/99 74/98/98 276/339/314 277/338/313
f 74/98/98 79/89/89 275/340/315 276/339/314
f 79/89/89 80/88/88 274/341/316 275/340/315
f 80/88/88 81/95/95 273/342/317 274/341/316
f 81/95/95 82/77/77 271/343/318 273/342/317
f 82/77/77 83/76/76 272/329/304 271/343/318
f 272/344/319 286/345/320 302/136/136 287/107/107
f 286/345/320 285/346/321 301/134/134 302/136/136
f 285/346/321 284/347/322 300/132/132 301/134/134
f 284/347/322 283/348/323 299/130/130 300/132/132
f 283/348/323 281/349/324 298/126/126 299/130/130
f 282/350/325 280/351/326 297/124/124 288/127/127
f 281/349/324 282/350/325 288/127/127 298/126/126
f 280/351/326 279/352/327 296/122/122 297/124/124
f 279/352/327 278/353/328 295/120/120 296/122/122
f 278/353/328 277/354/329 294/118/118 295/120/120
f 277/354/329 276/355/330 293/116/116 294/118/118
f 276/355/330 275/356/331 292/114/114 293/116/116
f 275/356/331 274/357/332 291/112/112 292/114/114
f 274/357/332 273/358/333 290/110/110 291/112/112
f 273/358/333 271/359/334 289/106/106 290/110/110
f 271/359/334 272/344/319 287/107/107 289/106/106
f 110/360/335 109/361/336 317/322/282 303/321/297
f 120/362/337 121/363/338 318/320/296 304/319/295
f 121/363/338 110/360/335 303/321/297 318/320/296
f 119/364/339 120/362/337 304/319/295 305/318/294
f 118/365/340 119/364/339 305/318/294 306/317/293
f 117/366/341 118/365/340 306/317/293 307/316/292
f 116/367/342 117/366/341 307/316/292 308/315/291
f 115/368/343 116/367/342 308/315/291 309/314/290
f 114/369/344 115/368/343 309/314/290 310/313/289
f 113/370/345 114/369/344 310/313/289 311/312/288
f 112/371/346 113/370/345 311/312/288 312/311/287
f 111/372/347 112/371/346 312/311/287 313/310/286
f 106/373/348 111/372/347 313/310/286 314/309/285
f 107/374/349 106/373/348 314/309/285 315/308/284
f 108/375/350 107/374/349 315/308/284 316/307/283
f 109/376/336 108/375/350 316/307/283 317/306/282
