# Blender 4.0.2
# www.blender.org
o pizza_box
v -0.129297 0.002923 0.128612
v -0.102082 0.005411 0.130351
v -0.102082 0.030886 0.130351
v -0.103452 0.005660 -0.130937
v -0.103452 0.028001 -0.130937
v -0.135553 0.056074 -0.146029
v -0.138239 0.064387 -0.150985
v -0.137452 0.061975 -0.149457
v -0.136135 0.025601 -0.386648
v -0.138786 0.035735 -0.376893
v -0.138019 0.032280 -0.383596
v -0.121451 0.032757 -0.398648
v -0.127773 0.000779 0.128185
v -0.130408 0.000779 0.128185
v -0.130115 0.001077 0.129580
v -0.130408 0.000779 -0.128185
v -0.127895 0.000779 -0.128185
v -0.130131 0.001559 -0.130408
v -0.129297 0.034213 0.130634
v -0.129297 0.032770 0.131504
v -0.129523 0.034146 0.129567
v -0.130408 0.034281 0.128185
v -0.130408 0.034281 -0.128185
v -0.130043 0.034146 -0.130171
v -0.129180 0.036370 -0.133881
v -0.129356 0.033695 -0.131980
v -0.129760 0.038013 -0.134825
v -0.129180 0.002183 -0.388976
v -0.129823 0.004274 -0.387980
v -0.129297 0.002551 0.131241
v -0.129342 0.001763 0.129887
v -0.128854 0.034083 0.129879
v -0.128875 0.033358 -0.131206
v -0.128875 0.002864 -0.131320
v -0.129297 0.033928 0.131430
v -0.129297 0.034045 0.129687
v -0.128058 0.033695 -0.131980
v -0.127713 0.001559 -0.130937
v -0.128051 0.035735 -0.133710
v -0.127043 0.001030 -0.388822
v -0.129356 0.003035 -0.131980
v -0.127704 0.003192 -0.131980
v -0.127955 0.034213 0.130634
v -0.127955 0.032770 0.131504
v -0.127767 0.000779 0.129865
v -0.127543 0.002085 0.131504
v -0.127955 0.033928 0.131430
v -0.127955 0.034045 0.129687
v -0.128045 0.002923 0.128612
v -0.126660 0.002052 -0.390780
v -0.128686 0.002844 -0.390983
v -0.129261 0.035114 -0.132738
v -0.128054 0.035114 -0.132738
v -0.119793 0.031065 -0.398214
v -0.129297 0.002950 0.127836
v -0.102095 0.005412 0.131126
v -0.102095 0.030886 0.131126
v -0.103442 0.005662 -0.131713
v -0.103442 0.028003 -0.131713
v -0.136296 0.055853 -0.145999
v -0.138981 0.064164 -0.150955
v -0.138194 0.061752 -0.149427
v -0.136878 0.025380 -0.386618
v -0.139529 0.035512 -0.376862
v -0.138762 0.032058 -0.383566
v -0.121451 0.032565 -0.399399
v -0.127786 0.000002 0.128204
v -0.131164 0.000011 0.128349
v -0.130769 0.000468 0.130159
v -0.131157 0.000000 -0.128349
v -0.127902 0.000003 -0.128299
v -0.130733 0.000980 -0.130963
v -0.129297 0.035012 0.130702
v -0.129330 0.032793 0.132280
v -0.130137 0.034154 0.130149
v -0.131185 0.034285 0.128326
v -0.131184 0.034281 -0.128242
v -0.130801 0.034149 -0.130533
v -0.129758 0.035647 -0.134024
v -0.129356 0.033505 -0.132757
v -0.130500 0.037779 -0.134794
v -0.129709 0.001491 -0.389081
v -0.130562 0.004040 -0.387948
v -0.129436 0.002218 0.132004
v -0.129532 0.001767 0.130656
v -0.129020 0.034086 0.130650
v -0.129202 0.033361 -0.131971
v -0.129207 0.002867 -0.132086
v -0.129297 0.034487 0.132171
v -0.129297 0.034700 0.128934
v -0.128058 0.033501 -0.132756
v -0.127736 0.000898 -0.131423
v -0.128199 0.034927 -0.133961
v -0.127233 0.000230 -0.388953
v -0.129394 0.002718 -0.132744
v -0.127720 0.002949 -0.132760
v -0.127955 0.035012 0.130702
v -0.127972 0.032794 0.132280
v -0.127834 0.000019 0.130206
v -0.127610 0.001750 0.132274
v -0.127955 0.034487 0.132171
v -0.127955 0.034700 0.128934
v -0.128045 0.002950 0.127836
v -0.126751 0.001494 -0.391429
v -0.128847 0.002340 -0.391662
v -0.129320 0.034632 -0.133361
v -0.128085 0.034598 -0.133344
v -0.119793 0.030873 -0.398966
v 0.129297 0.002923 0.128612
v 0.102082 0.005411 0.130351
v 0.102082 0.030886 0.130351
v 0.103452 0.005660 -0.130937
v 0.103452 0.028001 -0.130937
v 0.135553 0.056074 -0.146029
v 0.138239 0.064387 -0.150985
v 0.137452 0.061975 -0.149457
v 0.136135 0.025601 -0.386648
v 0.138786 0.035735 -0.376893
v 0.138019 0.032280 -0.383596
v 0.121451 0.032757 -0.398648
v 0.127773 0.000779 0.128185
v 0.130408 0.000779 0.128185
v 0.130115 0.001077 0.129580
v 0.130408 0.000779 -0.128185
v 0.127895 0.000779 -0.128185
v 0.130131 0.001559 -0.130408
v 0.129297 0.034213 0.130634
v 0.129297 0.032770 0.131504
v 0.129523 0.034146 0.129567
v 0.130408 0.034281 0.128185
v 0.130408 0.034281 -0.128185
v 0.130043 0.034146 -0.130171
v 0.129180 0.036370 -0.133881
v 0.129356 0.033695 -0.131980
v 0.129760 0.038013 -0.134825
v 0.129180 0.002183 -0.388976
v 0.129823 0.004274 -0.387980
v 0.129297 0.002551 0.131241
v 0.129342 0.001763 0.129887
v 0.128854 0.034083 0.129879
v 0.128875 0.033358 -0.131206
v 0.128875 0.002864 -0.131320
v 0.129297 0.033928 0.131430
v 0.129297 0.034045 0.129687
v 0.128058 0.033695 -0.131980
v 0.127713 0.001559 -0.130937
v 0.128051 0.035735 -0.133710
v 0.127043 0.001030 -0.388822
v 0.129356 0.003035 -0.131980
v 0.127704 0.003192 -0.131980
v 0.127955 0.034213 0.130634
v 0.127955 0.032770 0.131504
v 0.127767 0.000779 0.129865
v 0.127543 0.002085 0.131504
v 0.127955 0.033928 0.131430
v 0.127955 0.034045 0.129687
v 0.128045 0.002923 0.128612
v 0.126660 0.002052 -0.390780
v 0.128686 0.002844 -0.390983
v 0.129261 0.035114 -0.132738
v 0.128054 0.035114 -0.132738
v 0.119793 0.031065 -0.398214
v 0.129297 0.002950 0.127836
v 0.102095 0.005412 0.131126
v 0.102095 0.030886 0.131126
v 0.103442 0.005662 -0.131713
v 0.103442 0.028003 -0.131713
v 0.136296 0.055853 -0.145999
v 0.138981 0.064164 -0.150955
v 0.138194 0.061752 -0.149427
v 0.136878 0.025380 -0.386618
v 0.139529 0.035512 -0.376862
v 0.138762 0.032058 -0.383566
v 0.121451 0.032565 -0.399399
v 0.127786 0.000002 0.128204
v 0.131164 0.000011 0.128349
v 0.130769 0.000468 0.130159
v 0.131157 0.000000 -0.128349
v 0.127902 0.000003 -0.128299
v 0.130733 0.000980 -0.130963
v 0.129297 0.035012 0.130702
v 0.129330 0.032793 0.132280
v 0.130137 0.034154 0.130149
v 0.131185 0.034285 0.128326
v 0.131184 0.034281 -0.128242
v 0.130801 0.034149 -0.130533
v 0.129758 0.035647 -0.134024
v 0.129356 0.033505 -0.132757
v 0.130500 0.037779 -0.134794
v 0.129709 0.001491 -0.389081
v 0.130562 0.004040 -0.387948
v 0.129436 0.002218 0.132004
v 0.129532 0.001767 0.130656
v 0.129020 0.034086 0.130650
v 0.129202 0.033361 -0.131971
v 0.129207 0.002867 -0.132086
v 0.129297 0.034487 0.132171
v 0.129297 0.034700 0.128934
v 0.128058 0.033501 -0.132756
v 0.127736 0.000898 -0.131423
v 0.128199 0.034927 -0.133961
v 0.127233 0.000230 -0.388953
v 0.129394 0.002718 -0.132744
v 0.127720 0.002949 -0.132760
v 0.127955 0.035012 0.130702
v 0.127972 0.032794 0.132280
v 0.127834 0.000019 0.130206
v 0.127610 0.001750 0.132274
v 0.127955 0.034487 0.132171
v 0.127955 0.034700 0.128934
v 0.128045 0.002950 0.127836
v 0.126751 0.001494 -0.391429
v 0.128847 0.002340 -0.391662
v 0.129320 0.034632 -0.133361
v 0.128085 0.034598 -0.133344
v 0.119793 0.030873 -0.398966
vn 0.7747 0.6267 -0.0839
vn 0.0035 0.9913 -0.1319
vn 0.0035 0.9915 -0.1299
vn 0.7734 0.6287 -0.0812
vn 0.0294 -0.0005 -0.9996
vn 0.0173 -0.0003 -0.9999
vn 0.0006 0.0513 -0.9987
vn 0.1000 0.0688 -0.9926
vn 0.0827 0.0027 -0.9966
vn 0.0005 -0.0023 -1.0000
vn -0.0000 -0.0345 0.9994
vn 0.9571 0.2870 -0.0387
vn 0.9572 0.2868 -0.0387
vn 0.9569 0.2877 -0.0388
vn 0.9577 0.2852 -0.0384
vn 0.9576 0.2855 -0.0384
vn -0.0005 -0.0023 -1.0000
vn -0.0006 0.0513 -0.9987
vn -0.0000 0.0238 0.9997
vn -0.0004 0.6466 0.7629
vn 0.0004 0.6466 0.7629
vn 0.9571 0.2871 -0.0386
vn 0.0311 -0.0024 0.9995
vn -0.0129 -0.0022 0.9999
vn 0.0703 0.6026 0.7949
vn 0.1517 0.7363 0.6594
vn -0.0000 1.0000 -0.0000
vn -0.0000 1.0000 0.0030
vn 1.0000 -0.0000 -0.0023
vn 1.0000 -0.0000 0.0012
vn 1.0000 -0.0001 -0.0023
vn -0.0014 0.9304 -0.3666
vn 0.0014 0.9304 -0.3666
vn -0.0000 -0.9978 -0.0670
vn -0.0000 -0.9416 -0.3366
vn -0.0035 0.9915 -0.1299
vn -0.0002 0.2998 0.9540
vn 0.0002 0.2998 0.9540
vn 0.0003 1.0000 0.0029
vn 0.0004 1.0000 -0.0006
vn 0.7950 -0.0083 -0.6066
vn 0.7950 -0.0083 -0.6065
vn 0.8992 -0.0035 0.4376
vn -0.0000 -0.0641 -0.9979
vn 0.0064 0.0529 0.9986
vn -0.0000 0.0325 0.9995
vn -0.0000 0.0203 0.9998
vn -0.0035 0.9913 -0.1319
vn -0.0000 -0.9847 0.1741
vn 0.1589 0.8872 -0.4333
vn 0.0004 0.8441 0.5363
vn -0.0004 0.8441 0.5363
vn 0.0514 0.8616 0.5050
vn 0.3515 0.8312 0.4308
vn -0.0005 -0.2484 -0.9687
vn -0.0000 -0.2485 -0.9686
vn 0.0005 -0.2484 -0.9687
vn -0.0000 0.2482 0.9687
vn -0.7594 -0.6449 0.0864
vn -0.7579 -0.6471 0.0831
vn -0.0039 -0.9917 0.1288
vn -0.0038 -0.9911 0.1332
vn -0.0366 0.0006 0.9993
vn -0.0174 0.0003 0.9998
vn -0.0006 -0.0633 0.9980
vn -0.0005 0.0031 1.0000
vn -0.0816 -0.0018 0.9967
vn -0.0996 -0.0885 0.9911
vn -0.0000 0.0345 -0.9994
vn -0.9571 -0.2870 0.0387
vn -0.9569 -0.2877 0.0388
vn -0.9571 -0.2871 0.0387
vn -0.9577 -0.2850 0.0383
vn -0.9578 -0.2850 0.0383
vn 0.0006 -0.0633 0.9980
vn 0.0005 0.0031 1.0000
vn -0.0004 -0.6454 -0.7639
vn 0.0004 -0.6454 -0.7639
vn -0.0000 -0.0185 -0.9998
vn -0.9565 -0.2891 0.0388
vn -0.0445 0.0025 -0.9990
vn 0.0124 0.0022 -0.9999
vn -0.0777 -0.5880 -0.8051
vn -0.1740 -0.7154 -0.6767
vn -0.0000 -1.0000 0.0001
vn -0.0000 -1.0000 -0.0034
vn -1.0000 -0.0006 0.0027
vn -1.0000 -0.0006 0.0028
vn -1.0000 -0.0007 -0.0015
vn -1.0000 -0.0004 -0.0015
vn 0.0014 -0.9187 0.3950
vn -0.0014 -0.9187 0.3950
vn -0.0000 0.9978 0.0656
vn -0.0000 0.9416 0.3366
vn 0.0038 -0.9917 0.1288
vn -0.0003 -0.3123 -0.9500
vn 0.0003 -0.3123 -0.9500
vn -0.0012 -1.0000 -0.0034
vn -0.0014 -1.0000 0.0010
vn -0.7790 0.0086 0.6270
vn -0.7789 0.0086 0.6270
vn -0.8900 0.0027 -0.4560
vn 0.0001 0.0643 0.9979
vn -0.0001 0.0643 0.9979
vn -0.0112 -0.0696 -0.9975
vn -0.0048 -0.0162 -0.9999
vn -0.0001 -0.0410 -0.9992
vn 0.0001 -0.0410 -0.9992
vn 0.0038 -0.9911 0.1332
vn -0.0000 0.9847 -0.1741
vn -0.1341 -0.8860 0.4438
vn 0.0005 -0.8348 -0.5505
vn -0.0005 -0.8348 -0.5505
vn -0.0445 -0.8601 -0.5081
vn -0.0001 0.0642 0.9979
vn -0.3474 -0.8289 -0.4385
vn -0.0000 0.9687 -0.2482
vn 0.0036 -0.2490 -0.9685
vn 0.9999 -0.0000 0.0173
vn 0.9999 -0.0000 0.0129
vn -0.2229 0.6451 -0.7309
vn -0.0797 0.1313 -0.9881
vn -0.0800 0.1312 -0.9881
vn -0.2229 0.6453 -0.7307
vn -0.2903 0.9479 -0.1311
vn -0.2901 0.9480 -0.1311
vn -0.2903 0.9494 -0.1197
vn -0.1095 0.4827 0.8689
vn -0.1167 0.5040 0.8558
vn -0.1096 0.4827 0.8689
vn -0.1144 0.4906 0.8638
vn -0.1144 0.4907 0.8638
vn -0.5687 0.2842 0.7719
vn -0.1340 0.4800 0.8670
vn -0.0710 0.0780 -0.9944
vn -0.2045 0.3529 -0.9130
vn -0.0710 0.0781 -0.9944
vn 0.0466 0.9978 0.0480
vn 0.0032 1.0000 0.0004
vn 0.0465 0.9978 0.0481
vn 0.0030 1.0000 -0.0005
vn 0.1478 0.9757 -0.1616
vn 0.1479 0.9757 -0.1616
vn -1.0000 -0.0000 -0.0000
vn -0.9999 0.0054 -0.0140
vn -0.9942 0.0030 -0.1073
vn -0.9925 0.0581 -0.1078
vn 0.6791 -0.7274 0.0985
vn 0.1616 -0.9866 0.0241
vn 0.1181 0.9929 0.0115
vn 0.1161 0.9932 0.0121
vn -0.8263 0.5630 0.0185
vn -0.9985 0.0489 0.0244
vn -0.9985 0.0489 0.0245
vn 0.2113 0.9758 -0.0557
vn 0.1089 -0.9937 -0.0262
vn 0.1639 -0.9857 -0.0404
vn -0.9997 0.0032 0.0242
vn -0.9660 0.1312 0.2229
vn -0.9997 0.0033 0.0242
vn -0.8424 0.5338 -0.0733
vn -0.9660 0.2582 -0.0102
vn -0.8012 0.5957 -0.0561
vn 0.1318 -0.9911 0.0198
vn 0.2051 0.9780 -0.0389
vn 0.6839 -0.7082 -0.1754
vn -0.0000 -0.9994 -0.0345
vn -0.9719 0.2352 -0.0052
vn -0.7747 0.6267 -0.0839
vn -0.7734 0.6287 -0.0812
vn -0.0294 -0.0005 -0.9996
vn -0.0173 -0.0003 -0.9999
vn -0.0827 0.0027 -0.9966
vn -0.1000 0.0688 -0.9926
vn -0.9571 0.2870 -0.0387
vn -0.9569 0.2877 -0.0388
vn -0.9572 0.2868 -0.0387
vn -0.9577 0.2852 -0.0384
vn -0.9576 0.2855 -0.0384
vn -0.9571 0.2871 -0.0386
vn -0.0311 -0.0024 0.9995
vn 0.0129 -0.0022 0.9999
vn -0.0703 0.6027 0.7949
vn -0.1517 0.7363 0.6594
vn -1.0000 -0.0000 -0.0023
vn -1.0000 -0.0001 -0.0023
vn -1.0000 -0.0000 0.0012
vn -0.0003 1.0000 0.0029
vn -0.0004 1.0000 -0.0006
vn -0.7950 -0.0083 -0.6066
vn -0.8992 -0.0035 0.4376
vn -0.0064 0.0529 0.9986
vn -0.1589 0.8872 -0.4333
vn -0.0514 0.8616 0.5050
vn -0.3515 0.8312 0.4308
vn 0.7594 -0.6449 0.0864
vn 0.7579 -0.6471 0.0831
vn 0.0366 0.0006 0.9993
vn 0.0174 0.0003 0.9998
vn 0.0996 -0.0885 0.9911
vn 0.0816 -0.0018 0.9967
vn 0.9571 -0.2870 0.0387
vn 0.9572 -0.2868 0.0387
vn 0.9569 -0.2877 0.0388
vn 0.9577 -0.2852 0.0384
vn 0.9565 -0.2891 0.0388
vn 0.0445 0.0025 -0.9990
vn -0.0124 0.0022 -0.9999
vn 0.0777 -0.5880 -0.8051
vn 0.1740 -0.7154 -0.6767
vn 1.0000 -0.0006 0.0027
vn 1.0000 -0.0007 -0.0015
vn 1.0000 -0.0004 -0.0015
vn 1.0000 -0.0006 0.0028
vn 0.0012 -1.0000 -0.0034
vn 0.0014 -1.0000 0.0010
vn 0.7790 0.0086 0.6270
vn 0.7789 0.0086 0.6270
vn 0.8900 0.0027 -0.4560
vn 0.8900 0.0027 -0.4559
vn 0.0112 -0.0696 -0.9975
vn 0.0048 -0.0162 -0.9999
vn 0.1341 -0.8860 0.4438
vn 0.0445 -0.8601 -0.5081
vn 0.0001 0.0642 0.9979
vn 0.3474 -0.8289 -0.4385
vn -0.0036 -0.2490 -0.9685
vn -0.9999 -0.0000 0.0173
vn -0.9999 -0.0000 0.0129
vn 0.2229 0.6451 -0.7309
vn 0.2229 0.6453 -0.7307
vn 0.0797 0.1313 -0.9881
vn 0.0800 0.1312 -0.9881
vn 0.2901 0.9480 -0.1311
vn 0.2903 0.9479 -0.1311
vn 0.2903 0.9494 -0.1197
vn 0.1096 0.4827 0.8689
vn 0.1095 0.4827 0.8689
vn 0.1167 0.5040 0.8558
vn 0.1144 0.4906 0.8638
vn 0.1144 0.4907 0.8638
vn 0.5687 0.2842 0.7719
vn 0.1340 0.4800 0.8670
vn 0.0710 0.0780 -0.9944
vn 0.0710 0.0781 -0.9944
vn 0.2045 0.3529 -0.9130
vn -0.0466 0.9978 0.0480
vn -0.0465 0.9978 0.0481
vn -0.0032 1.0000 0.0004
vn -0.0030 1.0000 -0.0005
vn -0.1478 0.9757 -0.1616
vn 1.0000 -0.0000 -0.0000
vn 0.9999 0.0054 -0.0140
vn 0.9999 0.0054 -0.0139
vn 0.9942 0.0030 -0.1073
vn 0.9925 0.0581 -0.1078
vn -0.6791 -0.7274 0.0985
vn -0.1616 -0.9866 0.0241
vn -0.1181 0.9929 0.0115
vn -0.1161 0.9932 0.0121
vn 0.8263 0.5630 0.0185
vn 0.9985 0.0489 0.0245
vn 0.9985 0.0489 0.0244
vn -0.2113 0.9758 -0.0557
vn -0.1089 -0.9937 -0.0262
vn -0.1639 -0.9857 -0.0404
vn 0.9997 0.0032 0.0242
vn 0.9997 0.0033 0.0241
vn 0.9660 0.1312 0.2229
vn 0.8424 0.5338 -0.0733
vn 0.9660 0.2582 -0.0102
vn 0.8012 0.5957 -0.0561
vn -0.1318 -0.9911 0.0198
vn -0.2051 0.9780 -0.0389
vn -0.6839 -0.7082 -0.1754
vn 0.9719 0.2352 -0.0052
vt 0.054835 0.535190
vt 0.056668 0.534854
vt 0.058138 0.906616
vt 0.054670 0.907046
vt 0.055553 0.430555
vt 0.055408 0.477653
vt 0.016338 0.473464
vt 0.015892 0.436348
vt 0.053509 0.425607
vt 0.053118 0.428298
vt 0.009168 0.428164
vt 0.009178 0.426216
vt 0.981956 0.534698
vt 0.981956 0.904433
vt 0.936996 0.904303
vt 0.936995 0.534828
vt 0.013408 0.552560
vt 0.010703 0.893546
vt 0.006881 0.883288
vt 0.009490 0.554285
vt 0.022922 0.548789
vt 0.020086 0.899203
vt 0.009221 0.056576
vt 0.053545 0.057195
vt 0.056859 0.530838
vt 0.426279 0.530837
vt 0.426334 0.533145
vt 0.056805 0.533151
vt 0.052165 0.536225
vt 0.051715 0.905217
vt 0.434077 0.476457
vt 0.434356 0.431873
vt 0.471503 0.436196
vt 0.471297 0.468860
vt 0.055167 0.533001
vt 0.058894 0.056924
vt 0.429030 0.056769
vt 0.429013 0.426076
vt 0.058869 0.425878
vt 0.058882 0.429579
vt 0.428778 0.429468
vt 0.428837 0.477799
vt 0.058878 0.477921
vt 0.056509 0.056908
vt 0.056478 0.425893
vt 0.006320 0.056577
vt 0.007542 0.056576
vt 0.007494 0.426214
vt 0.006274 0.426213
vt 0.425021 0.906606
vt 0.424632 0.909666
vt 0.058527 0.909676
vt 0.056485 0.477734
vt 0.056753 0.429542
vt 0.432086 0.429957
vt 0.431790 0.477601
vt 0.054987 0.486629
vt 0.057370 0.486842
vt 0.055036 0.530819
vt 0.425769 0.486842
vt 0.426471 0.534844
vt 0.004884 0.426211
vt 0.004929 0.056578
vt 0.057366 0.484047
vt 0.425772 0.484047
vt 0.006268 0.428152
vt 0.004880 0.428148
vt 0.053844 0.483540
vt 0.433259 0.426111
vt 0.007488 0.428156
vt 0.936995 0.532891
vt 0.981956 0.532888
vt 0.055445 0.910555
vt 0.439134 0.065523
vt 0.441669 0.067926
vt 0.441667 0.414222
vt 0.439131 0.416627
vt 0.068430 0.952970
vt 0.066026 0.955505
vt 0.414732 0.952960
vt 0.433272 0.056732
vt 0.860861 0.428630
vt 0.489017 0.428744
vt 0.489411 0.424763
vt 0.860945 0.426166
vt 0.925249 0.910857
vt 0.965229 0.916638
vt 0.964801 0.953811
vt 0.925451 0.958016
vt 0.921681 0.377056
vt 0.966219 0.377056
vt 0.966219 0.379527
vt 0.921681 0.379527
vt 0.531089 0.534760
vt 0.531089 0.904353
vt 0.485223 0.904353
vt 0.485223 0.534760
vt 0.843824 0.470784
vt 0.842100 0.474701
vt 0.513064 0.477258
vt 0.502794 0.473431
vt 0.847598 0.461272
vt 0.497139 0.464048
vt 0.921681 0.007354
vt 0.966219 0.007354
vt 0.861993 0.425890
vt 0.861994 0.056265
vt 0.863791 0.056380
vt 0.863790 0.425776
vt 0.860168 0.432008
vt 0.491129 0.432395
vt 0.544086 0.956628
vt 0.506277 0.948921
vt 0.506146 0.916159
vt 0.543917 0.911909
vt 0.862159 0.427577
vt 0.920717 0.535063
vt 0.920666 0.904069
vt 0.550326 0.904177
vt 0.550378 0.534840
vt 0.920636 0.908842
vt 0.920597 0.958261
vt 0.550647 0.957979
vt 0.550595 0.908574
vt 0.923699 0.534870
vt 0.923649 0.904262
vt 0.970928 0.007354
vt 0.970928 0.377056
vt 0.968672 0.377056
vt 0.968672 0.007354
vt 0.489414 0.057387
vt 0.485511 0.424252
vt 0.485513 0.057897
vt 0.917650 0.007354
vt 0.917650 0.377056
vt 0.923664 0.958087
vt 0.923318 0.908946
vt 0.546689 0.909136
vt 0.547242 0.957779
vt 0.908168 0.427703
vt 0.863834 0.427588
vt 0.907853 0.425286
vt 0.907854 0.056869
vt 0.860948 0.055989
vt 0.973523 0.007354
vt 0.973523 0.377056
vt 0.917650 0.379527
vt 0.911384 0.056855
vt 0.911385 0.425301
vt 0.973523 0.379527
vt 0.970928 0.379527
vt 0.911733 0.429644
vt 0.545495 0.904308
vt 0.968672 0.379527
vt 0.485223 0.532888
vt 0.531089 0.532888
vt 0.484554 0.427451
vt 0.004880 0.972001
vt 0.004880 0.970881
vt 0.355337 0.970878
vt 0.355337 0.972006
vt 0.545544 0.534708
vt 0.496274 0.006002
vt 0.459380 0.006002
vt 0.459380 0.004878
vt 0.496274 0.004878
vt 0.994528 0.321687
vt 0.994528 0.353130
vt 0.993395 0.353130
vt 0.993395 0.321687
vt 0.389771 0.962885
vt 0.400535 0.962885
vt 0.400535 0.964026
vt 0.389771 0.964026
vt 0.379007 0.962885
vt 0.379007 0.964026
vt 0.055661 0.962885
vt 0.055661 0.964026
vt 0.051454 0.962885
vt 0.051454 0.964026
vt 0.041398 0.962885
vt 0.041398 0.964026
vt 0.007008 0.962885
vt 0.010109 0.962885
vt 0.010109 0.964026
vt 0.007008 0.964026
vt 0.432183 0.962885
vt 0.435960 0.962885
vt 0.435960 0.964026
vt 0.432183 0.964026
vt 0.865077 0.964181
vt 0.862409 0.964181
vt 0.862409 0.963034
vt 0.865077 0.963034
vt 0.497857 0.964181
vt 0.494765 0.964181
vt 0.494765 0.963034
vt 0.497857 0.963034
vt 0.993393 0.093413
vt 0.993393 0.091768
vt 0.994573 0.091768
vt 0.994573 0.093413
vt 0.993393 0.089813
vt 0.993393 0.048224
vt 0.994573 0.048224
vt 0.994573 0.089813
vt 0.993393 0.044641
vt 0.993393 0.042630
vt 0.994573 0.042630
vt 0.994573 0.044641
vt 0.904914 0.964181
vt 0.866475 0.964181
vt 0.866475 0.963034
vt 0.904914 0.963034
vt 0.898173 0.010061
vt 0.894635 0.010061
vt 0.894635 0.008884
vt 0.898173 0.008884
vt 0.491894 0.964181
vt 0.491894 0.963034
vt 0.994528 0.389370
vt 0.993395 0.389370
vt 0.993393 0.138332
vt 0.993393 0.095299
vt 0.994573 0.095299
vt 0.994573 0.138332
vt 0.852156 0.010061
vt 0.850157 0.010061
vt 0.850157 0.008884
vt 0.852156 0.008884
vt 0.439525 0.962885
vt 0.439525 0.964026
vt 0.993393 0.004877
vt 0.994573 0.004877
vt 0.994528 0.284887
vt 0.993395 0.284887
vt 0.901422 0.010061
vt 0.901422 0.008884
vt 0.983085 0.534698
vt 0.983076 0.904433
vt 0.983080 0.532885
vt 0.484807 0.962885
vt 0.484807 0.964026
vt 0.004886 0.962885
vt 0.004886 0.964026
vt 0.428307 0.535180
vt 0.428489 0.907035
vt 0.055582 0.052250
vt 0.015923 0.046454
vt 0.016372 0.009338
vt 0.055441 0.005152
vt 0.009218 0.054629
vt 0.053153 0.054506
vt 0.469733 0.552548
vt 0.473651 0.554272
vt 0.476277 0.883275
vt 0.472456 0.893533
vt 0.460220 0.548777
vt 0.463073 0.899191
vt 0.430976 0.536214
vt 0.431444 0.905207
vt 0.434095 0.006395
vt 0.471308 0.014004
vt 0.471503 0.046664
vt 0.434358 0.050974
vt 0.427971 0.532994
vt 0.058909 0.053225
vt 0.058911 0.004885
vt 0.428856 0.005051
vt 0.428792 0.053380
vt 0.056518 0.005072
vt 0.056783 0.053263
vt 0.432096 0.052890
vt 0.431809 0.005250
vt 0.428152 0.486628
vt 0.428101 0.530817
vt 0.004927 0.054638
vt 0.006317 0.054636
vt 0.429294 0.483540
vt 0.007539 0.054634
vt 0.981956 0.906240
vt 0.936996 0.906240
vt 0.427714 0.910544
vt 0.417136 0.955494
vt 0.860864 0.053527
vt 0.489020 0.053404
vt 0.925287 0.528275
vt 0.925512 0.481155
vt 0.964818 0.485385
vt 0.965229 0.522519
vt 0.921681 0.004883
vt 0.966219 0.004883
vt 0.843829 0.011374
vt 0.502800 0.008715
vt 0.513070 0.004888
vt 0.842104 0.007455
vt 0.847603 0.020886
vt 0.497145 0.018097
vt 0.860172 0.050150
vt 0.491134 0.049750
vt 0.544156 0.482382
vt 0.543961 0.527095
vt 0.506198 0.522823
vt 0.506348 0.490065
vt 0.862161 0.054579
vt 0.920684 0.530296
vt 0.550648 0.530439
vt 0.550718 0.481034
vt 0.920661 0.480887
vt 0.923727 0.481073
vt 0.923362 0.530188
vt 0.546738 0.529874
vt 0.547312 0.481232
vt 0.908169 0.054454
vt 0.863835 0.054568
vt 0.917650 0.004883
vt 0.970928 0.004883
vt 0.973523 0.004883
vt 0.911733 0.052513
vt 0.968672 0.004883
vt 0.531089 0.906225
vt 0.485223 0.906225
vt 0.484556 0.054697
vt 0.853325 0.017999
vt 0.853326 0.016882
vt 0.890028 0.016882
vt 0.890028 0.017999
vt 0.994855 0.521181
vt 0.993717 0.521181
vt 0.993717 0.489580
vt 0.994855 0.489580
vt 0.979387 0.389922
vt 0.980529 0.389922
vt 0.980529 0.400690
vt 0.979387 0.400690
vt 0.979387 0.379154
vt 0.980529 0.379154
vt 0.979387 0.055676
vt 0.980529 0.055676
vt 0.979387 0.051468
vt 0.980529 0.051468
vt 0.979387 0.041407
vt 0.980529 0.041407
vt 0.979387 0.007004
vt 0.980529 0.007004
vt 0.980529 0.010106
vt 0.979387 0.010106
vt 0.979387 0.432351
vt 0.980529 0.432351
vt 0.980529 0.436130
vt 0.979387 0.436130
vt 0.987529 0.375868
vt 0.986388 0.375868
vt 0.986388 0.373215
vt 0.987529 0.373215
vt 0.987529 0.010811
vt 0.986388 0.010811
vt 0.986388 0.007737
vt 0.987529 0.007737
vt 0.994575 0.233827
vt 0.993390 0.233827
vt 0.993390 0.232174
vt 0.994575 0.232174
vt 0.994575 0.230210
vt 0.993390 0.230210
vt 0.993390 0.188432
vt 0.994575 0.188432
vt 0.994575 0.184832
vt 0.993390 0.184832
vt 0.993390 0.182812
vt 0.994575 0.182812
vt 0.987529 0.415470
vt 0.986388 0.415470
vt 0.986388 0.377257
vt 0.987529 0.377257
vt 0.994568 0.444899
vt 0.993391 0.444899
vt 0.993391 0.441362
vt 0.994568 0.441362
vt 0.986388 0.004883
vt 0.987529 0.004883
vt 0.993717 0.453160
vt 0.994855 0.453160
vt 0.994575 0.278952
vt 0.993390 0.278952
vt 0.993390 0.235722
vt 0.994575 0.235722
vt 0.994568 0.398879
vt 0.993391 0.398879
vt 0.993391 0.396881
vt 0.994568 0.396881
vt 0.980529 0.439696
vt 0.979387 0.439696
vt 0.993390 0.144887
vt 0.994575 0.144887
vt 0.994855 0.558165
vt 0.993717 0.558165
vt 0.994568 0.448150
vt 0.993391 0.448150
vt 0.983076 0.906240
vt 0.980529 0.484996
vt 0.979387 0.484996
vt 0.979387 0.004881
vt 0.980529 0.004881
s 1
f 25/1/1 39/2/2 40/3/3 28/4/4
f 31/5/5 32/6/5 3/7/6 2/8/6
f 46/9/7 30/10/8 20/11/9 44/12/10
f 49/13/11 157/14/11 156/15/11 48/16/11
f 8/17/12 11/18/13 10/19/14 7/20/14
f 6/21/15 9/22/16 11/18/13 8/17/12
f 44/12/10 152/23/17 154/24/18 46/9/7
f 37/25/19 145/26/19 161/27/20 53/28/21
f 27/29/22 25/1/1 28/4/4 29/30/22
f 33/31/23 34/32/23 4/33/24 5/34/24
f 52/35/25 53/28/21 39/2/2 25/1/26
f 121/36/27 125/37/28 17/38/28 13/39/27
f 14/40/29 16/41/30 23/42/30 22/43/31
f 153/44/32 121/36/27 13/39/27 45/45/33
f 151/46/34 155/47/35 47/48/35 43/49/34
f 148/50/36 158/51/37 50/52/38 40/3/3
f 16/41/39 14/40/40 13/39/27 17/38/28
f 153/44/32 45/45/33 46/9/7 154/24/18
f 21/53/41 15/54/42 14/40/29 22/43/31
f 18/55/43 24/56/43 23/42/30 16/41/30
f 47/48/44 155/47/44 152/23/17 44/12/10
f 41/57/45 42/58/46 37/25/19 26/59/47
f 150/60/46 145/26/19 37/25/19 42/58/46
f 53/28/21 161/27/20 147/61/48 39/2/2
f 6/21/15 27/29/22 29/30/22 9/22/16
f 151/46/34 43/49/34 48/62/49 156/63/49
f 45/45/33 15/54/50 30/10/8 46/9/7
f 15/54/42 21/53/41 32/6/5 31/5/5
f 24/56/43 18/55/43 34/32/23 33/31/23
f 38/64/51 146/65/52 150/60/46 42/58/46
f 43/49/34 19/66/34 36/67/49 48/62/49
f 147/61/48 148/50/36 40/3/3 39/2/2
f 18/68/53 38/64/51 42/58/46 41/57/45
f 17/38/28 38/69/51 18/55/53 16/41/39
f 19/66/34 43/49/34 47/48/35 35/70/35
f 35/70/44 47/48/44 44/12/10 20/11/9
f 15/54/50 45/45/33 13/39/27 14/40/40
f 49/13/11 48/16/11 36/71/11 1/72/11
f 28/4/4 40/3/3 50/52/38 51/73/54
f 174/74/55 216/75/56 108/76/56 66/77/57
f 54/78/58 12/79/58 51/73/58 50/52/38
f 50/52/38 158/51/37 162/80/58 54/78/58
f 26/59/47 37/25/19 53/28/21 52/35/25
f 17/38/28 125/37/28 146/81/52 38/69/51
f 79/82/59 82/83/60 94/84/61 93/85/62
f 85/86/63 56/87/64 57/88/64 86/89/63
f 100/90/65 98/91/66 74/92/67 84/93/68
f 102/94/69 210/95/69 211/96/69 103/97/69
f 62/98/70 61/99/71 64/100/71 65/101/72
f 60/102/73 62/98/70 65/101/72 63/103/74
f 100/90/65 208/104/75 206/105/76 98/91/66
f 107/106/77 215/107/78 199/108/79 91/109/79
f 81/110/80 83/111/80 82/83/60 79/82/59
f 87/112/81 59/113/82 58/114/82 88/115/81
f 106/116/83 79/82/84 93/85/62 107/106/77
f 175/117/85 67/118/85 71/119/86 179/120/86
f 68/121/87 76/122/88 77/123/89 70/124/90
f 207/125/91 99/126/92 67/118/85 175/117/85
f 205/127/93 97/128/93 101/129/94 209/130/94
f 202/131/95 94/84/61 104/132/96 212/133/97
f 70/124/98 71/119/86 67/118/85 68/121/99
f 207/134/91 208/104/75 100/90/65 99/135/92
f 75/136/100 76/122/88 68/121/87 69/137/101
f 72/138/102 70/124/90 77/123/89 78/139/102
f 98/91/66 206/105/76 209/130/103 101/129/104
f 95/140/105 80/141/106 91/109/79 96/142/107
f 204/143/108 96/142/107 91/109/79 199/108/79
f 93/85/62 201/144/109 215/107/78 107/106/77
f 60/102/73 63/103/74 83/111/80 81/110/80
f 205/127/93 210/145/110 102/146/110 97/128/93
f 99/135/92 100/90/65 84/93/68 69/147/111
f 69/137/101 85/86/63 86/89/63 75/136/100
f 78/139/102 87/112/81 88/115/81 72/138/102
f 96/142/107 204/143/108 200/148/112 92/149/113
f 97/128/93 102/146/110 90/150/110 73/151/93
f 201/144/109 93/85/62 94/84/61 202/131/95
f 72/152/114 95/140/105 96/142/107 92/149/113
f 71/119/86 70/124/98 72/138/114 92/153/113
f 73/151/93 89/154/94 101/129/94 97/128/93
f 89/154/115 74/92/67 98/91/66 101/129/104
f 69/137/111 68/121/99 67/118/85 99/126/92
f 103/97/69 55/155/69 90/156/69 102/94/69
f 82/83/60 105/157/116 104/132/96 94/84/61
f 120/158/117 174/159/117 66/160/117 12/161/117
f 108/76/56 104/132/96 105/157/118 66/77/57
f 108/76/56 216/75/56 212/133/97 104/132/96
f 80/141/106 106/116/83 107/106/77 91/109/79
f 92/153/113 200/162/112 179/120/86 71/119/86
f 2/163/119 3/164/119 57/165/119 56/166/119
f 5/167/120 4/168/120 58/169/120 59/170/120
f 11/171/121 9/172/122 63/173/123 65/174/124
f 10/175/125 11/171/121 65/174/124 64/176/126
f 7/177/127 10/175/125 64/176/126 61/178/127
f 8/179/128 7/177/129 61/178/129 62/180/130
f 6/181/131 8/179/128 62/180/130 60/182/132
f 25/183/133 27/184/134 81/185/134 79/186/133
f 29/187/135 28/188/136 82/189/136 83/190/137
f 21/191/138 22/192/139 76/193/139 75/194/140
f 23/195/141 24/196/142 78/197/143 77/198/141
f 19/199/144 35/200/145 89/201/145 73/202/144
f 22/192/139 23/195/141 77/198/141 76/193/139
f 20/203/146 30/204/147 84/205/147 74/206/146
f 15/207/148 31/208/149 85/209/149 69/210/148
f 3/211/150 32/212/151 86/213/151 57/214/150
f 18/215/152 41/216/153 95/217/154 72/218/152
f 24/196/142 33/219/155 87/220/155 78/197/143
f 4/168/156 34/221/157 88/222/157 58/169/156
f 1/223/144 36/224/144 90/225/144 55/226/144
f 26/227/158 52/228/159 106/229/159 80/230/160
f 27/184/134 6/181/131 60/182/132 81/185/134
f 9/172/122 29/187/135 83/190/137 63/173/123
f 28/188/161 51/231/162 105/232/162 82/189/161
f 30/204/147 15/207/163 69/210/163 84/205/147
f 31/208/149 2/233/164 56/234/164 85/209/149
f 32/212/151 21/191/138 75/194/140 86/213/151
f 33/235/155 5/167/165 59/170/165 87/236/155
f 34/237/157 18/215/166 72/218/166 88/238/157
f 35/200/145 20/203/146 74/206/146 89/201/145
f 36/224/144 19/199/144 73/202/144 90/225/144
f 41/216/153 26/227/158 80/230/160 95/217/154
f 103/239/167 211/240/167 157/14/167 49/13/167
f 49/13/167 1/72/167 55/241/167 103/239/167
f 51/231/162 12/242/168 66/243/168 105/232/162
f 52/244/159 25/183/133 79/186/133 106/245/159
f 133/246/169 136/247/170 148/50/36 147/61/48
f 139/248/171 110/249/172 111/250/172 140/251/171
f 154/24/18 152/23/17 128/252/173 138/253/174
f 116/254/175 115/255/176 118/256/176 119/257/177
f 114/258/178 116/254/175 119/257/177 117/259/179
f 135/260/180 137/261/180 136/247/170 133/246/169
f 141/262/181 113/263/182 112/264/182 142/265/181
f 160/266/183 133/246/184 147/61/48 161/27/20
f 122/267/185 130/268/186 131/269/187 124/270/187
f 124/270/188 125/37/28 121/36/27 122/267/189
f 129/271/190 130/268/186 122/267/185 123/272/190
f 126/273/191 124/270/187 131/269/187 132/274/191
f 149/275/192 134/276/47 145/26/19 150/60/46
f 114/258/178 117/259/179 137/261/180 135/260/180
f 153/44/32 154/24/18 138/253/174 123/272/193
f 123/272/190 139/248/171 140/251/171 129/271/190
f 132/274/191 141/262/181 142/265/181 126/273/191
f 151/46/34 156/63/49 144/277/49 127/278/34
f 126/279/194 149/275/192 150/60/46 146/65/52
f 125/37/28 124/270/188 126/273/194 146/81/52
f 127/278/34 143/280/35 155/47/35 151/46/34
f 143/280/44 128/252/173 152/23/17 155/47/44
f 123/272/193 122/267/189 121/36/27 153/44/32
f 157/14/11 109/281/11 144/282/11 156/15/11
f 136/247/170 159/283/195 158/51/37 148/50/36
f 162/80/58 158/51/37 159/283/58 120/284/58
f 134/276/47 160/266/183 161/27/20 145/26/19
f 187/285/196 201/144/109 202/131/95 190/286/197
f 193/287/198 194/288/198 165/289/199 164/290/199
f 208/104/75 192/291/200 182/292/201 206/105/76
f 170/293/202 173/294/203 172/295/204 169/296/204
f 168/297/205 171/298/205 173/294/203 170/293/202
f 189/299/206 187/285/196 190/286/197 191/300/206
f 195/301/207 196/302/207 166/303/208 167/304/208
f 214/305/209 215/107/78 201/144/109 187/285/210
f 176/306/211 178/307/212 185/308/213 184/309/214
f 178/307/215 176/306/216 175/117/85 179/120/86
f 183/310/217 177/311/218 176/306/211 184/309/214
f 180/312/219 186/313/220 185/308/213 178/307/212
f 203/314/221 204/143/108 199/108/79 188/315/222
f 168/297/205 189/299/206 191/300/206 171/298/205
f 207/134/91 177/316/223 192/291/200 208/104/75
f 177/311/218 183/310/217 194/288/198 193/287/198
f 186/313/220 180/312/219 196/302/207 195/301/207
f 205/127/93 181/317/93 198/318/110 210/145/110
f 180/319/224 200/148/112 204/143/108 203/314/221
f 179/120/86 200/162/112 180/312/224 178/307/215
f 181/317/93 205/127/93 209/130/94 197/320/94
f 197/320/225 209/130/103 206/105/76 182/292/201
f 177/311/223 207/125/91 175/117/85 176/306/216
f 211/96/69 210/95/69 198/321/69 163/322/69
f 190/286/197 202/131/95 212/133/97 213/323/226
f 216/75/56 174/74/55 213/323/227 212/133/97
f 188/315/222 199/108/79 215/107/78 214/305/209
f 110/324/228 164/325/228 165/326/228 111/327/228
f 113/328/229 167/329/229 166/330/229 112/331/229
f 119/332/230 173/333/231 171/334/232 117/335/233
f 118/336/234 172/337/235 173/333/231 119/332/230
f 115/338/236 169/339/236 172/337/235 118/336/234
f 116/340/237 170/341/238 169/339/239 115/338/239
f 114/342/240 168/343/241 170/341/238 116/340/237
f 133/344/242 187/345/242 189/346/243 135/347/243
f 137/348/244 191/349/245 190/350/246 136/351/246
f 129/352/247 183/353/248 184/354/249 130/355/249
f 131/356/250 185/357/250 186/358/251 132/359/251
f 127/360/252 181/361/252 197/362/253 143/363/254
f 130/355/249 184/354/249 185/357/250 131/356/250
f 128/364/255 182/365/255 192/366/256 138/367/256
f 123/368/257 177/369/257 193/370/258 139/371/258
f 111/372/259 165/373/259 194/374/260 140/375/260
f 126/376/261 180/377/261 203/378/262 149/379/263
f 132/359/251 186/358/251 195/380/264 141/381/264
f 112/331/265 166/330/265 196/382/266 142/383/266
f 109/384/252 163/385/252 198/386/252 144/387/252
f 134/388/267 188/389/268 214/390/269 160/391/269
f 135/347/243 189/346/243 168/343/241 114/342/240
f 117/335/233 171/334/232 191/349/245 137/348/244
f 136/351/270 190/350/270 213/392/271 159/393/271
f 138/367/256 192/366/256 177/369/272 123/368/272
f 139/371/258 193/370/258 164/394/273 110/395/273
f 140/375/260 194/374/260 183/353/248 129/352/247
f 141/396/264 195/397/264 167/329/274 113/328/274
f 142/398/266 196/399/266 180/377/275 126/376/275
f 143/363/254 197/362/253 182/365/255 128/364/255
f 144/387/252 198/386/252 181/361/252 127/360/252
f 149/379/263 203/378/262 188/389/268 134/388/267
f 157/14/167 211/240/167 163/400/167 109/281/167
f 159/393/271 213/392/271 174/401/276 120/402/276
f 160/403/269 214/404/269 187/345/242 133/344/242
f 120/284/58 12/79/58 54/78/58 162/80/58
