# Blender 4.0.2
# www.blender.org
o deer_head
v 0.033942 0.014473 0.068666
v 0.035957 -0.005748 0.051024
v 0.046914 0.031160 0.058003
v 0.048317 0.012810 0.041299
v 0.032379 0.032376 0.082302
v 0.045247 0.049245 0.071499
v 0.030844 0.051448 0.095540
v 0.042262 0.068256 0.085019
v 0.028809 0.073723 0.120465
v 0.000000 0.039557 0.102775
v 0.000000 0.064056 0.123641
v 0.000000 0.001664 0.078044
v 0.000000 0.020170 0.091822
v 0.037947 -0.026060 0.032745
v 0.000000 -0.021048 0.058576
v 0.000000 -0.043704 0.037293
v 0.042382 -0.047242 0.010651
v 0.000000 -0.066275 0.013799
v 0.050443 -0.002915 0.024607
v 0.054328 -0.020117 0.006166
v 0.045643 0.087364 0.070216
v 0.045082 0.103006 0.079204
v 0.040519 0.105598 0.057491
v 0.039878 0.120809 0.066164
v 0.000000 0.135362 0.042230
v 0.000000 0.150104 0.050997
v 0.043109 0.074676 0.035078
v 0.000000 0.109804 0.022650
v 0.016528 0.146890 0.054015
v 0.016154 0.131698 0.044625
v 0.017095 0.103961 0.024871
v 0.000000 0.122317 0.032468
v 0.042153 0.090752 0.046723
v 0.016933 0.117901 0.034731
v 0.048129 0.070798 0.058866
v 0.049616 0.052715 0.045078
v 0.000000 0.097058 0.012148
v 0.016883 0.090757 0.014159
v 0.044162 0.059109 0.022844
v 0.050343 0.036304 0.030867
v 0.015861 0.042576 0.101238
v 0.014025 0.067408 0.122197
v 0.017775 0.005098 0.076002
v 0.016722 0.023639 0.089650
v 0.019121 -0.017846 0.057249
v 0.021078 -0.040206 0.037260
v 0.023975 -0.062082 0.013105
v 0.000000 0.066408 0.151241
v 0.014167 0.070967 0.150208
v 0.000000 0.060803 0.179095
v 0.014991 0.064289 0.178285
v 0.000000 0.048892 0.220884
v 0.011973 0.052843 0.220893
v 0.000000 0.041541 0.237447
v 0.010760 0.046048 0.237771
v 0.030382 0.082980 0.231464
v 0.027624 0.072626 0.250427
v 0.027899 0.093328 0.236195
v 0.026411 0.081334 0.254922
v 0.014760 0.110941 0.251000
v 0.014453 0.098435 0.265732
v 0.000000 0.115732 0.257913
v 0.000000 0.101570 0.271006
v 0.018670 0.052693 0.238383
v 0.021342 0.059968 0.221902
v 0.026766 0.078525 0.149387
v 0.027314 0.072854 0.178180
v 0.000000 0.067586 0.136720
v 0.013808 0.071356 0.135369
v 0.026242 0.078812 0.134087
v 0.031816 0.107627 0.218800
v 0.016311 0.124990 0.237775
v 0.028274 0.127040 0.221011
v 0.031634 0.137162 0.215102
v 0.038831 0.124016 0.206497
v 0.037419 0.137644 0.208497
v 0.047455 0.132116 0.192913
v 0.043633 0.141666 0.201095
v 0.049168 0.140354 0.188017
v 0.045400 0.144019 0.198736
v 0.050497 0.150847 0.188505
v 0.045275 0.147926 0.199472
v 0.049453 0.161839 0.192175
v 0.044604 0.151955 0.200405
v 0.034069 0.137010 0.212359
v 0.033424 0.123528 0.214703
v 0.020025 0.138851 0.226975
v 0.029985 0.142881 0.216663
v 0.041469 0.172277 0.197998
v 0.042439 0.152560 0.203431
v 0.025718 0.162571 0.215976
v 0.035149 0.149181 0.211325
v 0.022560 0.151552 0.222463
v 0.032068 0.145818 0.214674
v 0.034183 0.168859 0.208461
v 0.038829 0.151594 0.207231
v 0.040967 0.139285 0.204633
v 0.043489 0.126827 0.199171
v 0.030255 0.133982 0.217076
v 0.038390 0.132001 0.207795
v 0.045314 0.137689 0.198275
v 0.047370 0.142887 0.195467
v 0.047895 0.149340 0.195651
v 0.047031 0.155835 0.198282
v 0.033839 0.131972 0.212858
v 0.026982 0.142422 0.220149
v 0.044171 0.160706 0.203473
v 0.032908 0.155335 0.214137
v 0.029055 0.149006 0.217891
v 0.038668 0.159510 0.209301
v 0.042364 0.133945 0.202694
v 0.012954 0.164002 0.219857
v 0.011935 0.153444 0.226490
v 0.010792 0.141839 0.233633
v 0.000000 0.164193 0.220616
v 0.000000 0.153908 0.228091
v 0.007722 0.100314 0.269258
v 0.000000 0.142279 0.235584
v 0.008440 0.114531 0.255821
v 0.009136 0.128460 0.242898
v 0.000000 0.130003 0.245975
v 0.013693 0.183644 0.206810
v 0.000000 0.185407 0.206961
v 0.015463 0.193940 0.198115
v 0.000000 0.196493 0.198210
v 0.017092 0.203546 0.186498
v 0.000000 0.206455 0.186388
v 0.018149 0.209715 0.170696
v 0.000000 0.212393 0.170363
v 0.020281 0.212458 0.150571
v 0.000000 0.215090 0.151622
v 0.015868 0.209607 0.116444
v 0.000000 0.210424 0.116366
v 0.021292 0.188739 0.087811
v 0.000000 0.191499 0.083226
v 0.018099 0.173650 0.075918
v 0.000000 0.177096 0.072769
v 0.000000 0.163356 0.061106
v 0.016936 0.159851 0.064085
v 0.031163 0.213707 0.116704
v 0.037812 0.199651 0.095295
v 0.035115 0.175291 0.086912
v 0.046308 0.187918 0.094394
v 0.048758 0.155841 0.102222
v 0.057777 0.170544 0.108088
v 0.051297 0.151247 0.116270
v 0.060405 0.167103 0.119281
v 0.051805 0.164493 0.147538
v 0.058289 0.176147 0.140487
v 0.048699 0.176921 0.153978
v 0.053542 0.184919 0.145967
v 0.041788 0.207214 0.147046
v 0.023154 0.088747 0.259139
v 0.023747 0.100954 0.241997
v 0.026268 0.114787 0.228362
v 0.034357 0.202374 0.156706
v 0.034597 0.214091 0.140498
v 0.043903 0.164081 0.092002
v 0.053359 0.177650 0.099160
v 0.025533 0.178132 0.206529
v 0.029344 0.185609 0.197489
v 0.041629 0.184621 0.169806
v 0.022031 0.171821 0.212425
v 0.000000 0.174418 0.213767
v 0.012521 0.173850 0.213663
v 0.042867 0.189658 0.156845
v 0.047930 0.196046 0.148349
v 0.000000 0.204364 0.099892
v 0.016951 0.203985 0.101305
v 0.032393 0.210324 0.103497
v 0.042368 0.179781 0.183986
v 0.051565 0.150574 0.135216
v 0.031454 0.193295 0.185424
v 0.051333 0.152005 0.176347
v 0.049524 0.166339 0.180400
v 0.032767 0.199122 0.171440
v 0.060038 0.168670 0.131391
v 0.047526 0.170769 0.166554
v 0.049631 0.156743 0.161296
v 0.035265 0.092373 0.214508
v 0.000000 0.054302 0.205233
v 0.023560 0.065741 0.205605
v 0.012806 0.059229 0.205245
v 0.039103 0.111400 0.204480
v 0.046738 0.122846 0.183909
v 0.043264 0.115823 0.193569
v 0.000000 0.058236 0.191837
v 0.049487 0.134572 0.173297
v 0.014406 0.061914 0.191078
v 0.026596 0.069700 0.191250
v 0.041592 0.102639 0.187438
v 0.039561 0.097601 0.200038
v 0.000000 0.064639 0.165749
v 0.014652 0.068035 0.164821
v 0.027449 0.075843 0.164307
v 0.043862 0.108993 0.175446
v 0.046732 0.116399 0.162116
v 0.049205 0.141150 0.154048
v 0.047968 0.122564 0.145375
v 0.046175 0.139434 0.094261
v 0.047772 0.128629 0.127596
v 0.047042 0.132776 0.109992
v 0.031382 0.162079 0.077367
v 0.041054 0.150684 0.083709
v 0.040118 0.136062 0.074837
v 0.045648 0.121613 0.087055
v 0.029699 0.134687 0.058076
v 0.045261 0.108085 0.121339
v 0.030127 0.148738 0.067320
v 0.030118 0.120447 0.049328
v 0.031587 0.091891 0.028478
v 0.031207 0.106592 0.039228
v 0.031852 0.077866 0.017365
v 0.045140 0.104181 0.138253
v 0.030112 0.074001 0.227486
v 0.026165 0.064982 0.245911
v 0.035304 0.081271 0.210494
v 0.038628 0.086092 0.195891
v 0.038607 0.090974 0.182596
v 0.040175 0.095790 0.169215
v 0.043447 0.100158 0.154501
v 0.030738 0.066121 0.108311
v 0.046855 0.111917 0.103630
v 0.000000 0.055846 0.112341
v 0.015120 0.058036 0.111530
v 0.037373 0.088931 0.134485
v 0.023254 0.058780 0.241665
v 0.038304 0.089023 0.118180
v 0.027401 0.066728 0.224235
v 0.030639 0.073821 0.207396
v 0.034091 0.077719 0.192881
v 0.034734 0.081590 0.179568
v 0.035095 0.085301 0.165632
v 0.036594 0.087587 0.150409
v 0.041513 0.087003 0.098791
v 0.052062 0.021809 0.016208
v 0.055501 0.008877 0.001372
v 0.045980 0.045409 0.010206
v 0.049020 0.034482 -0.002862
v 0.000000 0.084788 0.001556
v 0.000000 0.075090 -0.009576
v 0.016868 0.078554 0.002965
v 0.017484 0.068389 -0.008468
v 0.032613 0.065450 0.005694
v 0.033623 0.055578 -0.006350
v 0.019820 0.106564 0.246807
v 0.021587 0.120201 0.233766
v 0.024333 0.131777 0.224960
v 0.030772 0.139951 0.215952
v 0.027963 0.137523 0.219370
v 0.019038 0.094159 0.262454
v 0.039773 0.145152 0.205957
v 0.036472 0.143331 0.209678
v 0.033371 0.141538 0.213086
v 0.042749 0.146702 0.202500
v 0.000000 0.042412 0.268144
v 0.010787 0.044421 0.265178
v 0.000000 0.089563 0.281487
v 0.007668 0.089399 0.279964
v 0.000000 0.072192 0.291629
v 0.011374 0.074024 0.287269
v 0.000000 0.054655 0.287160
v 0.014158 0.056071 0.283306
v 0.000000 0.047009 0.279593
v 0.012828 0.048694 0.275627
v 0.000000 0.039309 0.254099
v 0.009614 0.043243 0.252984
v 0.013535 0.065261 0.287046
v 0.000000 0.063366 0.291089
v 0.012898 0.089812 0.275150
v 0.009085 0.081475 0.284999
v 0.000000 0.080579 0.288343
v 0.019746 0.079453 0.275230
v 0.016056 0.085372 0.275928
v 0.023495 0.063252 0.268865
v 0.022758 0.071735 0.272964
v 0.018442 0.051355 0.256140
v 0.021902 0.055965 0.263088
v 0.015871 0.048469 0.250124
v 0.060100 0.194057 0.142841
v 0.055012 0.203282 0.145139
v 0.068948 0.191229 0.139070
v 0.075291 0.181416 0.122947
v 0.073824 0.183284 0.132734
v 0.073494 0.184530 0.112746
v 0.068908 0.191615 0.104506
v 0.054333 0.212395 0.100998
v 0.061854 0.201427 0.100700
v 0.046199 0.223525 0.120166
v 0.048129 0.221031 0.108344
v 0.053058 0.216939 0.146800
v 0.047558 0.223689 0.139295
v 0.000000 0.214533 0.133118
v 0.016276 0.213907 0.131729
v 0.031556 0.215844 0.128802
v 0.045598 0.225485 0.129968
v 0.058958 0.238504 0.126676
v 0.056263 0.238773 0.145703
v 0.055784 0.241134 0.135799
v 0.081648 0.265703 0.142563
v 0.078506 0.262045 0.159168
v 0.078445 0.266015 0.151284
v 0.105686 0.279356 0.156848
v 0.102552 0.276027 0.170399
v 0.103386 0.280639 0.164097
v 0.115618 0.283291 0.160886
v 0.112992 0.279971 0.175027
v 0.114845 0.283675 0.168269
v 0.127636 0.268310 0.155434
v 0.126763 0.263470 0.165659
v 0.129251 0.266089 0.161162
v 0.124219 0.258254 0.147936
v 0.124131 0.252831 0.157265
v 0.126975 0.254516 0.153200
v 0.102796 0.218084 0.126246
v 0.103303 0.213130 0.141487
v 0.104700 0.214296 0.133827
v 0.112829 0.233455 0.132902
v 0.116373 0.228474 0.139189
v 0.113104 0.227325 0.146570
v 0.088762 0.198688 0.136105
v 0.088501 0.201436 0.119991
v 0.091194 0.197465 0.128077
v 0.082815 0.207899 0.114951
v 0.075938 0.215820 0.113313
v 0.069271 0.224590 0.114387
v 0.063445 0.232755 0.119047
v 0.060944 0.232376 0.153898
v 0.081804 0.254719 0.164859
v 0.103027 0.268364 0.173569
v 0.111575 0.272142 0.176862
v 0.120530 0.262462 0.167882
v 0.118427 0.253273 0.161556
v 0.106568 0.231078 0.149720
v 0.097367 0.217914 0.145398
v 0.084165 0.204653 0.140420
v 0.096148 0.224301 0.123160
v 0.088909 0.231167 0.123367
v 0.082269 0.238671 0.125347
v 0.076275 0.246504 0.128926
v 0.120653 0.262327 0.144708
v 0.106543 0.239321 0.130261
v 0.108105 0.276224 0.150968
v 0.087360 0.259961 0.136452
v 0.124515 0.269058 0.151098
v 0.115045 0.279484 0.156070
v 0.070670 0.252810 0.134943
v 0.066641 0.254958 0.143526
v 0.066612 0.251808 0.152773
v 0.070723 0.244774 0.160141
v 0.093692 0.274303 0.150196
v 0.090629 0.274945 0.158225
v 0.090542 0.270184 0.165170
v 0.120408 0.246796 0.139570
v 0.122549 0.242743 0.145998
v 0.119627 0.240167 0.152163
v 0.093221 0.262587 0.168208
v 0.113066 0.242689 0.155045
v 0.114042 0.251967 0.138012
v 0.098060 0.269667 0.144144
v 0.128014 0.276535 0.159412
v 0.123246 0.281971 0.161511
v 0.122188 0.278428 0.175381
v 0.127400 0.271999 0.172749
v 0.130282 0.275762 0.166988
v 0.124671 0.282760 0.169661
v 0.122614 0.267708 0.175027
v 0.118497 0.272171 0.176574
v 0.115920 0.266935 0.146010
v 0.111845 0.271774 0.147950
v 0.093364 0.252675 0.132916
v 0.099592 0.245592 0.131148
v 0.122995 0.274093 0.152436
v 0.118908 0.277520 0.154925
v 0.102946 0.263492 0.140844
v 0.108197 0.257539 0.138804
v 0.063167 0.200791 0.143067
v 0.060165 0.206272 0.144958
v 0.068862 0.204111 0.142761
v 0.062903 0.213561 0.147248
v 0.070856 0.225047 0.150403
v 0.089984 0.246207 0.160802
v 0.106372 0.260302 0.170945
v 0.112233 0.264969 0.174790
v 0.116104 0.262341 0.169887
v 0.112188 0.255319 0.165031
v 0.099286 0.237374 0.153947
v 0.090177 0.226147 0.149218
v 0.079246 0.214195 0.145040
v 0.080592 0.236753 0.154708
v 0.098734 0.254222 0.165695
v 0.106521 0.246862 0.159624
v 0.118098 0.265740 0.173644
v 0.116048 0.267565 0.176099
v -0.033942 0.014473 0.068666
v -0.035957 -0.005748 0.051024
v -0.046914 0.031160 0.058003
v -0.048317 0.012810 0.041299
v -0.032379 0.032376 0.082302
v -0.045247 0.049245 0.071499
v -0.030844 0.051448 0.095540
v -0.042262 0.068256 0.085019
v -0.028809 0.073723 0.120465
v -0.037947 -0.026060 0.032745
v -0.042382 -0.047242 0.010651
v -0.050443 -0.002915 0.024607
v -0.054328 -0.020117 0.006166
v -0.045643 0.087364 0.070216
v -0.045082 0.103006 0.079204
v -0.040519 0.105598 0.057491
v -0.039878 0.120809 0.066164
v -0.043109 0.074676 0.035078
v -0.016528 0.146890 0.054015
v -0.016154 0.131698 0.044625
v -0.017095 0.103961 0.024871
v -0.042153 0.090752 0.046723
v -0.016933 0.117901 0.034731
v -0.048129 0.070798 0.058866
v -0.049616 0.052715 0.045078
v -0.016883 0.090757 0.014159
v -0.044162 0.059109 0.022844
v -0.050343 0.036304 0.030867
v -0.015861 0.042576 0.101238
v -0.014025 0.067408 0.122197
v -0.017775 0.005098 0.076002
v -0.016722 0.023639 0.089650
v -0.019121 -0.017846 0.057249
v -0.021078 -0.040206 0.037260
v -0.023975 -0.062082 0.013105
v -0.014167 0.070967 0.150208
v -0.014991 0.064289 0.178285
v -0.011973 0.052843 0.220893
v -0.010760 0.046048 0.237771
v -0.030382 0.082980 0.231464
v -0.027624 0.072626 0.250427
v -0.027899 0.093328 0.236195
v -0.026411 0.081334 0.254922
v -0.014760 0.110941 0.251000
v -0.014453 0.098435 0.265732
v -0.018670 0.052693 0.238383
v -0.021342 0.059968 0.221902
v -0.026766 0.078525 0.149387
v -0.027314 0.072854 0.178180
v -0.013808 0.071356 0.135369
v -0.026242 0.078812 0.134087
v -0.031816 0.107627 0.218800
v -0.016311 0.124990 0.237775
v -0.028274 0.127040 0.221011
v -0.031634 0.137162 0.215102
v -0.038831 0.124016 0.206497
v -0.037419 0.137644 0.208497
v -0.047455 0.132116 0.192913
v -0.043633 0.141666 0.201095
v -0.049168 0.140354 0.188017
v -0.045400 0.144019 0.198736
v -0.050497 0.150847 0.188505
v -0.045275 0.147926 0.199472
v -0.049453 0.161839 0.192175
v -0.044604 0.151955 0.200405
v -0.034069 0.137010 0.212359
v -0.033424 0.123528 0.214703
v -0.020025 0.138851 0.226975
v -0.029985 0.142881 0.216663
v -0.041469 0.172277 0.197998
v -0.042439 0.152560 0.203431
v -0.025718 0.162571 0.215976
v -0.035149 0.149181 0.211325
v -0.022560 0.151552 0.222463
v -0.032068 0.145818 0.214674
v -0.034183 0.168859 0.208461
v -0.038829 0.151594 0.207231
v -0.040967 0.139285 0.204633
v -0.043489 0.126827 0.199171
v -0.030255 0.133982 0.217076
v -0.038390 0.132001 0.207795
v -0.045314 0.137689 0.198275
v -0.047370 0.142887 0.195467
v -0.047895 0.149340 0.195651
v -0.047031 0.155835 0.198282
v -0.033839 0.131972 0.212858
v -0.026982 0.142422 0.220149
v -0.044171 0.160706 0.203473
v -0.032908 0.155335 0.214137
v -0.029055 0.149006 0.217891
v -0.038668 0.159510 0.209301
v -0.042364 0.133945 0.202694
v -0.012954 0.164002 0.219857
v -0.011935 0.153444 0.226490
v -0.010792 0.141839 0.233633
v -0.007722 0.100314 0.269258
v -0.008440 0.114531 0.255821
v -0.009136 0.128460 0.242898
v -0.013693 0.183644 0.206810
v -0.015463 0.193940 0.198115
v -0.017092 0.203546 0.186498
v -0.018149 0.209715 0.170696
v -0.020281 0.212458 0.150571
v -0.015868 0.209607 0.116444
v -0.021292 0.188739 0.087811
v -0.018099 0.173650 0.075918
v -0.016936 0.159851 0.064085
v -0.031163 0.213707 0.116704
v -0.037812 0.199651 0.095295
v -0.035115 0.175291 0.086912
v -0.046308 0.187918 0.094394
v -0.048758 0.155841 0.102222
v -0.057777 0.170544 0.108088
v -0.051297 0.151247 0.116270
v -0.060405 0.167103 0.119281
v -0.051805 0.164493 0.147538
v -0.058289 0.176147 0.140487
v -0.048699 0.176921 0.153978
v -0.053542 0.184919 0.145967
v -0.041788 0.207214 0.147046
v -0.023154 0.088747 0.259139
v -0.023747 0.100954 0.241997
v -0.026268 0.114787 0.228362
v -0.034357 0.202374 0.156706
v -0.034597 0.214091 0.140498
v -0.043903 0.164081 0.092002
v -0.053359 0.177650 0.099160
v -0.025533 0.178132 0.206529
v -0.029344 0.185609 0.197489
v -0.041629 0.184621 0.169806
v -0.022031 0.171821 0.212425
v -0.012521 0.173850 0.213663
v -0.042867 0.189658 0.156845
v -0.047930 0.196046 0.148349
v -0.016951 0.203985 0.101305
v -0.032393 0.210324 0.103497
v -0.042368 0.179781 0.183986
v -0.051565 0.150574 0.135216
v -0.031454 0.193295 0.185424
v -0.051333 0.152005 0.176347
v -0.049524 0.166339 0.180400
v -0.032767 0.199122 0.171440
v -0.060038 0.168670 0.131391
v -0.047526 0.170769 0.166554
v -0.049631 0.156743 0.161296
v -0.035265 0.092373 0.214508
v -0.023560 0.065741 0.205605
v -0.012806 0.059229 0.205245
v -0.039103 0.111400 0.204480
v -0.046738 0.122846 0.183909
v -0.043264 0.115823 0.193569
v -0.049487 0.134572 0.173297
v -0.014406 0.061914 0.191078
v -0.026596 0.069700 0.191250
v -0.041592 0.102639 0.187438
v -0.039561 0.097601 0.200038
v -0.014652 0.068035 0.164821
v -0.027449 0.075843 0.164307
v -0.043862 0.108993 0.175446
v -0.046732 0.116399 0.162116
v -0.049205 0.141150 0.154048
v -0.047968 0.122564 0.145375
v -0.046175 0.139434 0.094261
v -0.047772 0.128629 0.127596
v -0.047042 0.132776 0.109992
v -0.031382 0.162079 0.077367
v -0.041054 0.150684 0.083709
v -0.040118 0.136062 0.074837
v -0.045648 0.121613 0.087055
v -0.029699 0.134687 0.058076
v -0.045261 0.108085 0.121339
v -0.030127 0.148738 0.067320
v -0.030118 0.120447 0.049328
v -0.031587 0.091891 0.028478
v -0.031207 0.106592 0.039228
v -0.031852 0.077866 0.017365
v -0.045140 0.104181 0.138253
v -0.030112 0.074001 0.227486
v -0.026165 0.064982 0.245911
v -0.035304 0.081271 0.210494
v -0.038628 0.086092 0.195891
v -0.038607 0.090974 0.182596
v -0.040175 0.095790 0.169215
v -0.043447 0.100158 0.154501
v -0.030738 0.066121 0.108311
v -0.046855 0.111917 0.103630
v -0.015120 0.058036 0.111530
v -0.037373 0.088931 0.134485
v -0.023254 0.058780 0.241665
v -0.038304 0.089023 0.118180
v -0.027401 0.066728 0.224235
v -0.030639 0.073821 0.207396
v -0.034091 0.077719 0.192881
v -0.034734 0.081590 0.179568
v -0.035095 0.085301 0.165632
v -0.036594 0.087587 0.150409
v -0.041513 0.087003 0.098791
v -0.052062 0.021809 0.016208
v -0.055501 0.008877 0.001372
v -0.045980 0.045409 0.010206
v -0.049020 0.034482 -0.002862
v -0.016868 0.078554 0.002965
v -0.017484 0.068389 -0.008468
v -0.032613 0.065450 0.005694
v -0.033623 0.055578 -0.006350
v -0.019820 0.106564 0.246807
v -0.021587 0.120201 0.233766
v -0.024333 0.131777 0.224960
v -0.030772 0.139951 0.215952
v -0.027963 0.137523 0.219370
v -0.019038 0.094159 0.262454
v -0.039773 0.145152 0.205957
v -0.036472 0.143331 0.209678
v -0.033371 0.141538 0.213086
v -0.042749 0.146702 0.202500
v -0.010787 0.044421 0.265178
v -0.007668 0.089399 0.279964
v -0.011374 0.074024 0.287269
v -0.014158 0.056071 0.283306
v -0.012828 0.048694 0.275627
v -0.009614 0.043243 0.252984
v -0.013535 0.065261 0.287046
v -0.012898 0.089812 0.275150
v -0.009085 0.081475 0.284999
v -0.019746 0.079453 0.275230
v -0.016056 0.085372 0.275928
v -0.023495 0.063252 0.268865
v -0.022758 0.071735 0.272964
v -0.018442 0.051355 0.256140
v -0.021902 0.055965 0.263088
v -0.015871 0.048469 0.250124
v -0.060100 0.194057 0.142841
v -0.055012 0.203282 0.145139
v -0.068948 0.191229 0.139070
v -0.075291 0.181416 0.122947
v -0.073824 0.183284 0.132734
v -0.073494 0.184530 0.112746
v -0.068908 0.191615 0.104506
v -0.054333 0.212395 0.100998
v -0.061854 0.201427 0.100700
v -0.046199 0.223525 0.120166
v -0.048129 0.221031 0.108344
v -0.053058 0.216939 0.146800
v -0.047558 0.223689 0.139295
v -0.016276 0.213907 0.131729
v -0.031556 0.215844 0.128802
v -0.045598 0.225485 0.129968
v -0.058958 0.238504 0.126676
v -0.056263 0.238773 0.145703
v -0.055784 0.241134 0.135799
v -0.081648 0.265703 0.142563
v -0.078506 0.262045 0.159168
v -0.078445 0.266015 0.151284
v -0.105686 0.279356 0.156848
v -0.102552 0.276027 0.170399
v -0.103386 0.280639 0.164097
v -0.115618 0.283291 0.160886
v -0.112912 0.280197 0.175314
v -0.114845 0.283675 0.168269
v -0.127636 0.268310 0.155434
v -0.126049 0.263986 0.165189
v -0.129251 0.266089 0.161162
v -0.124219 0.258254 0.147936
v -0.124566 0.254055 0.157759
v -0.126975 0.254516 0.153200
v -0.102796 0.218084 0.126246
v -0.103303 0.213130 0.141487
v -0.104700 0.214296 0.133827
v -0.112829 0.233455 0.132902
v -0.116373 0.228474 0.139189
v -0.113104 0.227325 0.146570
v -0.088762 0.198688 0.136105
v -0.088501 0.201436 0.119991
v -0.091194 0.197465 0.128077
v -0.082815 0.207899 0.114951
v -0.075938 0.215820 0.113313
v -0.069271 0.224590 0.114387
v -0.063445 0.232755 0.119047
v -0.060944 0.232376 0.153898
v -0.081804 0.254719 0.164859
v -0.103027 0.268364 0.173569
v -0.111575 0.272142 0.176862
v -0.120530 0.262462 0.167882
v -0.118427 0.253273 0.161556
v -0.106568 0.231078 0.149720
v -0.097367 0.217914 0.145398
v -0.084165 0.204653 0.140420
v -0.096148 0.224301 0.123160
v -0.088909 0.231167 0.123367
v -0.082269 0.238671 0.125347
v -0.076275 0.246504 0.128926
v -0.120653 0.262327 0.144708
v -0.106543 0.239321 0.130261
v -0.108105 0.276224 0.150968
v -0.087360 0.259961 0.136452
v -0.124515 0.269058 0.151098
v -0.115045 0.279484 0.156070
v -0.070670 0.252810 0.134943
v -0.066641 0.254958 0.143526
v -0.066612 0.251808 0.152773
v -0.070723 0.244774 0.160141
v -0.093692 0.274303 0.150196
v -0.090629 0.274945 0.158225
v -0.090542 0.270184 0.165170
v -0.120408 0.246796 0.139570
v -0.122549 0.242743 0.145998
v -0.119627 0.240167 0.152163
v -0.093221 0.262587 0.168208
v -0.113066 0.242689 0.155045
v -0.114042 0.251967 0.138012
v -0.098060 0.269667 0.144144
v -0.128014 0.276535 0.159412
v -0.123246 0.281971 0.161511
v -0.123552 0.280073 0.178580
v -0.127400 0.271999 0.172749
v -0.130282 0.275762 0.166988
v -0.124811 0.282989 0.169741
v -0.122614 0.267708 0.175027
v -0.118497 0.272171 0.176574
v -0.115920 0.266935 0.146010
v -0.111845 0.271774 0.147950
v -0.093364 0.252675 0.132916
v -0.099592 0.245592 0.131148
v -0.122995 0.274093 0.152436
v -0.118908 0.277520 0.154925
v -0.102946 0.263492 0.140844
v -0.108197 0.257539 0.138804
v -0.063167 0.200791 0.143067
v -0.060165 0.206272 0.144958
v -0.068862 0.204111 0.142761
v -0.062903 0.213561 0.147248
v -0.070856 0.225047 0.150403
v -0.089984 0.246207 0.160802
v -0.106372 0.260302 0.170945
v -0.112233 0.264969 0.174790
v -0.116104 0.262341 0.169887
v -0.112188 0.255319 0.165031
v -0.099286 0.237374 0.153947
v -0.090177 0.226147 0.149218
v -0.079246 0.214195 0.145040
v -0.080592 0.236753 0.154708
v -0.098734 0.254222 0.165695
v -0.106521 0.246862 0.159624
v -0.118098 0.265740 0.173644
v -0.116048 0.267565 0.176099
v 0.000000 0.055578 -0.006350
v 0.000000 0.034482 -0.002862
v 0.000000 0.008877 0.001372
v 0.000000 -0.020117 0.006166
v 0.000000 -0.047242 0.010651
vn 0.7088 -0.4066 0.5765
vn 0.7249 -0.4196 0.5463
vn 0.9356 -0.1865 0.2997
vn 0.9285 -0.1868 0.3208
vn 0.9223 -0.1555 0.3537
vn 0.6977 -0.3739 0.6111
vn 0.9325 -0.1582 0.3247
vn 0.6985 -0.3883 0.6011
vn 0.7154 -0.4902 0.4979
vn 0.3291 -0.6345 0.6994
vn 0.3566 -0.4987 0.7900
vn 0.3436 -0.8187 0.4600
vn -0.0000 -0.8851 0.4655
vn -0.0000 -0.6550 0.7556
vn 0.3968 -0.5543 0.7317
vn 0.3893 -0.5023 0.7721
vn -0.0000 -0.5508 0.8346
vn -0.0000 -0.6164 0.7874
vn -0.0000 -0.5149 0.8572
vn 0.3832 -0.5916 0.7094
vn -0.0000 -0.6567 0.7542
vn -0.0000 -0.7024 0.7118
vn 0.3652 -0.6336 0.6821
vn -0.0000 -0.7271 0.6865
vn 0.3418 -0.6637 0.6654
vn 0.7231 -0.4269 0.5430
vn 0.6875 -0.4644 0.5583
vn 0.9026 -0.2010 0.3805
vn 0.9330 -0.1629 0.3207
vn 0.9857 0.0268 -0.1665
vn 0.9721 0.0157 -0.2342
vn 0.9939 -0.0892 -0.0646
vn 0.9921 -0.1249 0.0079
vn 0.9966 0.0138 -0.0808
vn 0.9971 0.0736 0.0198
vn 0.9178 0.2630 -0.2975
vn 0.9011 0.2196 -0.3739
vn 0.4244 0.5046 -0.7519
vn 0.4267 0.5067 -0.7491
vn -0.0000 0.5540 -0.8325
vn -0.0000 0.5643 -0.8256
vn 0.7196 0.4351 -0.5412
vn 0.9123 0.2899 -0.2893
vn 0.9034 0.2922 -0.3138
vn 0.7072 0.4414 -0.5524
vn -0.0000 0.5967 -0.8024
vn 0.4367 0.5420 -0.7180
vn 0.4436 0.5480 -0.7091
vn -0.0000 0.6129 -0.7902
vn 0.7041 0.3767 -0.6019
vn 0.7219 0.4078 -0.5591
vn 0.9953 0.0935 0.0262
vn 0.9967 0.0803 -0.0139
vn 0.4510 0.5809 -0.6776
vn -0.0000 0.6461 -0.7632
vn 0.9960 0.0894 0.0005
vn 0.9049 0.3188 -0.2820
vn 0.7079 0.4788 -0.5192
vn 0.6720 -0.6501 0.3547
vn -0.0000 -0.9945 0.1044
vn 0.3895 -0.9116 0.1313
vn 0.3936 -0.9128 -0.1089
vn -0.0000 -0.9935 -0.1140
vn -0.0000 -0.9747 -0.2234
vn 0.3799 -0.9020 -0.2052
vn 0.3846 -0.9002 -0.2044
vn -0.0000 -0.9739 -0.2271
vn -0.0000 -0.9584 -0.2855
vn 0.4289 -0.8745 -0.2265
vn 0.4635 -0.8350 -0.2965
vn -0.0000 -0.9318 -0.3631
vn 0.4915 -0.8435 -0.2166
vn -0.0000 -0.9663 -0.2573
vn 0.9429 -0.3291 0.0507
vn 0.9548 -0.2811 0.0972
vn 0.9779 -0.0101 0.2089
vn 0.9864 -0.0774 0.1447
vn 0.9427 0.1754 0.2838
vn 0.9579 0.1591 0.2388
vn 0.7933 0.4410 0.4197
vn 0.8181 0.3872 0.4251
vn 0.7046 0.4830 0.5198
vn 0.6558 0.5371 0.5306
vn 0.3997 0.6319 0.6641
vn 0.4702 0.5947 0.6521
vn -0.0000 0.6685 0.7437
vn -0.0000 0.6788 0.7343
vn 0.6875 -0.7029 -0.1825
vn 0.7150 -0.6863 -0.1332
vn 0.6134 -0.7854 -0.0831
vn 0.6442 -0.7491 -0.1545
vn 0.6212 -0.7741 0.1217
vn 0.6535 -0.7469 -0.1231
vn 0.8929 0.2891 0.3452
vn 0.9069 0.0844 0.4129
vn 0.8660 0.1953 0.4603
vn 0.7780 0.0530 0.6261
vn 0.8369 0.0522 0.5448
vn 0.8623 -0.0510 0.5039
vn 0.7910 -0.0071 0.6117
vn 0.8294 -0.0556 0.5558
vn 0.9002 -0.1438 0.4110
vn 0.9498 -0.1479 0.2756
vn 0.8779 -0.0651 0.4745
vn 0.9776 -0.1200 0.1728
vn 0.9079 -0.0833 0.4108
vn 0.9830 -0.0353 0.1799
vn 0.8978 -0.0759 0.4337
vn 0.9345 0.2311 0.2706
vn 0.8741 0.0169 0.4854
vn 0.7749 0.0860 0.6262
vn 0.8149 0.1333 0.5641
vn 0.7441 0.0989 0.6607
vn 0.7457 0.0269 0.6657
vn 0.7394 0.0013 0.6733
vn 0.6973 0.0839 0.7119
vn 0.7357 0.4847 0.4731
vn 0.7889 0.1676 0.5912
vn 0.6683 0.1405 0.7305
vn 0.7392 -0.0867 0.6679
vn 0.7644 -0.1090 0.6355
vn 0.6632 0.0938 0.7425
vn 0.7362 -0.0204 0.6764
vn 0.7381 -0.0463 0.6730
vn 0.6270 0.1218 0.7695
vn 0.7512 0.0104 0.6600
vn 0.7790 -0.0055 0.6270
vn 0.4112 0.3919 0.8230
vn 0.5255 0.4523 0.7206
vn 0.6405 0.2583 0.7232
vn 0.5097 0.2876 0.8109
vn 0.7927 -0.0981 0.6016
vn 0.7605 0.1975 0.6186
vn 0.7552 0.0387 0.6544
vn 0.7503 0.0240 0.6606
vn 0.8074 -0.0647 0.5864
vn 0.8250 -0.0615 0.5617
vn 0.8107 -0.0302 0.5847
vn 0.1936 0.5076 0.8396
vn 0.2816 0.4629 0.8405
vn 0.4009 0.4573 0.7938
vn -0.0000 0.5516 0.8341
vn -0.0000 0.5422 0.8402
vn -0.0000 0.5643 0.8256
vn 0.4787 0.5274 0.7019
vn -0.0000 0.6289 0.7775
vn 0.7024 0.3823 0.6004
vn -0.0000 0.5463 0.8376
vn 0.1512 0.5368 0.8300
vn 0.1931 0.5895 0.7844
vn -0.0000 0.5903 0.8072
vn 0.2716 0.6797 0.6814
vn -0.0000 0.7032 0.7110
vn 0.3322 0.8070 0.4882
vn -0.0000 0.8650 0.5018
vn 0.3446 0.9004 0.2655
vn -0.0000 0.9680 0.2508
vn 0.2033 0.9568 0.2079
vn -0.0000 0.9966 0.0820
vn -0.0000 0.9935 -0.1137
vn -0.0319 0.9960 -0.0839
vn -0.1002 0.9525 -0.2876
vn -0.0000 0.9540 -0.2997
vn -0.0000 0.8531 -0.5218
vn -0.0317 0.8244 -0.5651
vn 0.2102 0.5520 -0.8069
vn -0.0000 0.6665 -0.7455
vn 0.3671 0.5433 -0.7550
vn -0.0000 0.6142 -0.7891
vn -0.0000 0.6257 -0.7800
vn 0.4116 0.5523 -0.7249
vn -0.3757 0.8940 -0.2441
vn -0.2525 0.7657 -0.5915
vn 0.0592 0.4317 -0.9001
vn 0.3618 0.1132 -0.9254
vn 0.4984 0.2825 -0.8197
vn 0.7711 0.0370 -0.6356
vn 0.6094 -0.1841 -0.7712
vn 0.7551 -0.4382 -0.4877
vn 0.9141 -0.1774 -0.3647
vn 0.8123 -0.5687 -0.1293
vn 0.9477 -0.2930 -0.1266
vn 0.9700 -0.2318 0.0728
vn 0.8112 -0.5034 0.2976
vn 0.7152 -0.2586 0.6493
vn 0.9511 -0.0920 0.2949
vn 0.6411 0.0128 0.7673
vn 0.8966 0.1647 0.4110
vn 0.8033 0.3864 0.4533
vn 0.5182 0.1901 0.8339
vn 0.1850 0.4883 0.8528
vn 0.5909 0.6803 0.4337
vn 0.7999 0.2921 0.5243
vn 0.8847 0.3298 0.3295
vn -0.1772 0.8686 0.4627
vn -0.3516 0.9360 -0.0154
vn 0.6890 0.6758 0.2619
vn 0.5330 0.6151 0.5810
vn 0.6459 0.6522 0.3968
vn 0.3940 0.5618 0.7274
vn 0.3033 0.5061 0.8074
vn 0.8252 0.5099 0.2430
vn 0.9546 0.2889 0.0726
vn 0.9998 0.0161 -0.0082
vn 0.8670 0.4601 0.1916
vn 0.9602 0.2623 0.0961
vn 0.9991 0.0302 0.0286
vn 0.9571 -0.0202 0.2891
vn 0.8479 -0.5281 -0.0467
vn 0.8195 -0.5729 -0.0116
vn 0.4031 -0.9008 -0.1614
vn 0.6549 -0.7490 -0.1007
vn -0.0000 -0.9794 -0.2019
vn 0.9279 -0.0581 0.3683
vn 0.9546 -0.1784 0.2385
vn 0.9704 -0.2061 0.1256
vn 0.9919 -0.1251 0.0203
vn 0.6597 -0.7346 -0.1587
vn 0.9739 -0.1007 0.2033
vn 0.8272 -0.5592 -0.0558
vn 0.8487 -0.5174 -0.1096
vn 0.9757 -0.2004 0.0885
vn 0.8355 -0.5461 -0.0601
vn 0.9666 -0.2447 0.0761
vn 0.9811 -0.1891 0.0421
vn 0.9376 -0.3458 0.0375
vn 0.9351 -0.3533 0.0272
vn 0.9909 -0.1348 -0.0025
vn 0.9958 -0.0910 0.0047
vn 0.9919 -0.1254 -0.0191
vn 0.8528 0.1894 -0.4867
vn 0.6295 0.3924 -0.6706
vn 0.8811 0.2127 -0.4224
vn 0.6828 0.3969 -0.6134
vn 0.8309 -0.5553 0.0340
vn 0.8962 -0.4201 0.1427
vn 0.9758 -0.2178 0.0179
vn 0.9567 -0.2908 -0.0101
vn 0.8061 -0.5913 -0.0242
vn 0.9500 -0.3107 -0.0324
vn 0.9519 -0.3037 0.0408
vn 0.9438 -0.3007 0.1369
vn 0.8500 -0.5256 -0.0348
vn 0.9564 -0.2296 0.1805
vn 0.9852 0.0822 0.1503
vn 0.9908 0.1139 0.0728
vn 0.9355 0.3418 -0.0897
vn 0.9109 0.3636 -0.1949
vn 0.4569 0.6430 -0.6147
vn 0.4843 0.6753 -0.5562
vn -0.0000 0.7551 -0.6556
vn -0.0000 0.7059 -0.7083
vn 0.7133 0.5409 -0.4457
vn 0.7376 0.5626 -0.3735
vn 0.7560 -0.0187 0.6543
vn 0.7470 -0.0123 0.6647
vn 0.7406 -0.0054 0.6719
vn 0.7786 -0.0354 0.6265
vn -0.0000 -0.9999 0.0134
vn 0.4952 -0.8687 -0.0136
vn 0.4945 -0.8517 0.1733
vn -0.0000 -0.9637 0.2669
vn -0.0000 0.6307 0.7760
vn 0.3702 0.5945 0.7138
vn 0.4361 0.4577 0.7748
vn -0.0000 0.4652 0.8852
vn -0.0000 0.1630 0.9866
vn 0.5374 0.2153 0.8154
vn 0.6046 -0.1112 0.7887
vn -0.0000 -0.2056 0.9786
vn -0.0000 -0.5597 0.8287
vn 0.6064 -0.4575 0.6504
vn -0.0000 -0.8343 0.5513
vn 0.5475 -0.7323 0.4049
vn 0.5972 0.5375 0.5953
vn 0.6962 0.4441 0.5640
vn 0.8119 0.2914 0.5059
vn 0.9301 -0.2251 0.2902
vn 0.9078 0.0577 0.4155
vn 0.7736 -0.6332 0.0268
vn 0.8643 -0.4835 0.1387
vn 0.7046 -0.7082 -0.0445
vn 0.3643 -0.1274 0.9225
vn 0.1896 -0.0647 0.9797
vn 0.3636 -0.3397 0.8674
vn 0.7270 -0.6812 -0.0870
vn 0.5941 -0.6191 0.5135
vn 0.5685 -0.1520 -0.8085
vn 0.6933 -0.4692 -0.5470
vn 0.1496 0.4482 -0.8813
vn 0.3942 0.1514 -0.9065
vn -0.5321 0.7894 -0.3061
vn -0.2336 0.7487 -0.6204
vn -0.2820 0.0626 0.9574
vn -0.7021 0.5076 0.4994
vn -0.6945 0.7193 -0.0163
vn -0.7746 0.6238 -0.1041
vn -0.4862 0.7079 -0.5123
vn -0.8300 0.3701 0.4173
vn -0.3976 0.6986 -0.5949
vn -0.7112 0.6978 -0.0859
vn -0.6420 0.7664 0.0223
vn -0.3548 0.7699 -0.5304
vn -0.7577 0.4623 0.4607
vn -0.6614 0.4950 0.5635
vn -0.2576 0.8620 -0.4366
vn -0.5263 0.8436 0.1064
vn -0.4019 0.9049 0.1397
vn -0.1778 0.9075 -0.3805
vn -0.5843 0.4919 0.6455
vn -0.5126 0.5430 0.6651
vn -0.1194 0.9690 0.2165
vn 0.0007 0.9387 -0.3447
vn -0.2159 0.6046 0.7667
vn 0.7769 0.4692 -0.4200
vn 0.8807 0.1368 -0.4535
vn 0.6439 0.3162 -0.6967
vn 0.4555 0.5303 -0.7150
vn 0.3431 0.4380 0.8309
vn -0.2250 0.0311 0.9739
vn 0.1493 -0.0550 0.9873
vn 0.4962 0.8182 0.2905
vn 0.4025 0.8463 -0.3490
vn 0.7164 -0.5119 0.4740
vn 0.7337 -0.1329 0.6664
vn 0.3866 -0.4717 0.7925
vn 0.3647 -0.6753 0.6410
vn 0.9853 -0.1707 0.0047
vn 0.9685 -0.2433 -0.0535
vn 0.8274 0.0940 -0.5536
vn 0.6637 -0.5256 0.5321
vn 0.6766 -0.0657 -0.7334
vn 0.8746 -0.4484 -0.1843
vn 0.8008 -0.5709 -0.1813
vn 0.6657 -0.2128 -0.7152
vn 0.5691 -0.5795 0.5833
vn 0.5264 -0.6377 0.5623
vn 0.9418 -0.3150 -0.1171
vn 0.6007 -0.5381 0.5912
vn 0.7383 0.0571 -0.6721
vn 0.7589 -0.6419 -0.1098
vn 0.6999 -0.3335 -0.6316
vn 0.5073 -0.6401 0.5770
vn 0.3977 0.2847 -0.8722
vn 0.5293 0.0306 -0.8479
vn -0.1160 0.6748 -0.7288
vn 0.2345 0.4853 -0.8423
vn -0.4479 -0.0980 0.8887
vn -0.3985 -0.0894 0.9128
vn -0.4015 -0.0523 0.9144
vn -0.3470 -0.0714 0.9351
vn -0.3701 -0.0753 0.9259
vn 0.0431 0.7412 -0.6699
vn 0.1744 0.5894 -0.7888
vn 0.1644 0.5099 -0.8444
vn 0.0128 0.6705 -0.7418
vn 0.3050 -0.5894 0.7481
vn 0.2087 -0.5317 0.8208
vn 0.1330 -0.4334 0.8913
vn 0.1753 -0.4126 0.8939
vn 0.1490 -0.4584 0.8762
vn 0.3944 0.3242 -0.8599
vn 0.3553 0.2491 -0.9009
vn 0.2257 0.4373 -0.8705
vn 0.2057 0.3780 -0.9026
vn 0.1498 0.4391 -0.8859
vn 0.2516 0.3301 -0.9098
vn -0.0629 0.5653 -0.8225
vn 0.3961 0.1433 -0.9069
vn -0.0369 0.5819 -0.8124
vn 0.2431 0.6894 -0.6823
vn 0.0937 0.7692 -0.6320
vn 0.5077 0.3347 -0.7938
vn 0.9555 0.2521 0.1533
vn 0.1290 0.4475 -0.8849
vn 0.2547 0.4953 -0.8305
vn 0.0892 -0.4276 0.8996
vn 0.2101 -0.6955 0.6871
vn 0.0743 -0.4212 0.9039
vn 0.1052 -0.3669 0.9243
vn 0.1732 -0.3046 0.9366
vn 0.2171 -0.2266 0.9495
vn 0.0103 -0.5313 0.8471
vn -0.0295 -0.5142 0.8571
vn -0.0472 -0.5480 0.8352
vn 0.0495 -0.4608 0.8861
vn 0.0219 -0.4950 0.8686
vn 0.0555 -0.3842 0.9216
vn 0.0511 -0.3016 0.9521
vn 0.1001 -0.2263 0.9689
vn 0.2370 -0.7094 0.6638
vn 0.1881 -0.6348 0.7495
vn 0.1285 -0.5831 0.8022
vn 0.0918 -0.5017 0.8602
vn -0.7088 -0.4066 0.5765
vn -0.9285 -0.1868 0.3208
vn -0.9356 -0.1865 0.2997
vn -0.7249 -0.4196 0.5463
vn -0.6977 -0.3739 0.6111
vn -0.9223 -0.1555 0.3537
vn -0.6985 -0.3883 0.6011
vn -0.9325 -0.1582 0.3247
vn -0.3566 -0.4987 0.7900
vn -0.3291 -0.6345 0.6994
vn -0.7154 -0.4902 0.4979
vn -0.3436 -0.8187 0.4600
vn -0.3968 -0.5543 0.7317
vn -0.3893 -0.5023 0.7721
vn -0.3832 -0.5916 0.7094
vn -0.3652 -0.6336 0.6821
vn -0.3418 -0.6637 0.6654
vn -0.7231 -0.4269 0.5430
vn -0.9330 -0.1629 0.3207
vn -0.9026 -0.2010 0.3805
vn -0.6875 -0.4644 0.5583
vn -0.9857 0.0268 -0.1665
vn -0.9921 -0.1249 0.0079
vn -0.9939 -0.0892 -0.0646
vn -0.9721 0.0157 -0.2342
vn -0.9966 0.0138 -0.0808
vn -0.9011 0.2196 -0.3739
vn -0.9178 0.2630 -0.2975
vn -0.9971 0.0736 0.0198
vn -0.4244 0.5046 -0.7519
vn -0.4267 0.5067 -0.7491
vn -0.7196 0.4351 -0.5412
vn -0.7072 0.4414 -0.5524
vn -0.9034 0.2922 -0.3138
vn -0.9123 0.2899 -0.2893
vn -0.4436 0.5480 -0.7091
vn -0.4367 0.5420 -0.7180
vn -0.7041 0.3767 -0.6019
vn -0.7219 0.4078 -0.5591
vn -0.9953 0.0935 0.0262
vn -0.9967 0.0803 -0.0139
vn -0.4510 0.5809 -0.6776
vn -0.9049 0.3188 -0.2820
vn -0.9960 0.0894 0.0005
vn -0.7079 0.4788 -0.5192
vn -0.6720 -0.6501 0.3547
vn -0.3936 -0.9128 -0.1089
vn -0.3895 -0.9116 0.1313
vn -0.3846 -0.9002 -0.2044
vn -0.3799 -0.9020 -0.2052
vn -0.4635 -0.8350 -0.2965
vn -0.4289 -0.8745 -0.2265
vn -0.4915 -0.8435 -0.2166
vn -0.9429 -0.3291 0.0507
vn -0.9864 -0.0774 0.1447
vn -0.9779 -0.0101 0.2089
vn -0.9548 -0.2811 0.0972
vn -0.9579 0.1591 0.2388
vn -0.9427 0.1754 0.2838
vn -0.7933 0.4410 0.4197
vn -0.6558 0.5371 0.5306
vn -0.7046 0.4830 0.5198
vn -0.8181 0.3872 0.4251
vn -0.3997 0.6319 0.6641
vn -0.4702 0.5947 0.6521
vn -0.7150 -0.6863 -0.1332
vn -0.6875 -0.7029 -0.1825
vn -0.6442 -0.7491 -0.1545
vn -0.6134 -0.7854 -0.0831
vn -0.6212 -0.7741 0.1217
vn -0.6535 -0.7469 -0.1231
vn -0.8929 0.2891 0.3452
vn -0.8660 0.1953 0.4603
vn -0.9069 0.0844 0.4129
vn -0.7780 0.0530 0.6261
vn -0.7910 -0.0071 0.6117
vn -0.8623 -0.0510 0.5039
vn -0.8369 0.0522 0.5448
vn -0.8294 -0.0556 0.5558
vn -0.8779 -0.0651 0.4745
vn -0.9498 -0.1479 0.2756
vn -0.9002 -0.1438 0.4110
vn -0.9079 -0.0833 0.4108
vn -0.9776 -0.1200 0.1728
vn -0.8978 -0.0759 0.4337
vn -0.9830 -0.0353 0.1799
vn -0.8741 0.0169 0.4854
vn -0.9345 0.2311 0.2706
vn -0.7749 0.0860 0.6262
vn -0.8149 0.1333 0.5641
vn -0.7441 0.0989 0.6607
vn -0.6973 0.0839 0.7119
vn -0.7394 0.0013 0.6733
vn -0.7457 0.0269 0.6657
vn -0.7889 0.1676 0.5912
vn -0.7357 0.4847 0.4731
vn -0.6683 0.1405 0.7305
vn -0.7644 -0.1090 0.6355
vn -0.7392 -0.0867 0.6679
vn -0.6632 0.0938 0.7425
vn -0.6270 0.1218 0.7695
vn -0.7381 -0.0463 0.6730
vn -0.7362 -0.0204 0.6764
vn -0.7512 0.0104 0.6600
vn -0.7790 -0.0055 0.6270
vn -0.4112 0.3919 0.8230
vn -0.5255 0.4523 0.7206
vn -0.6405 0.2583 0.7232
vn -0.5097 0.2876 0.8109
vn -0.7927 -0.0981 0.6016
vn -0.7605 0.1975 0.6186
vn -0.7552 0.0387 0.6544
vn -0.7503 0.0240 0.6606
vn -0.8074 -0.0647 0.5864
vn -0.8250 -0.0615 0.5617
vn -0.8107 -0.0302 0.5847
vn -0.2816 0.4629 0.8405
vn -0.1936 0.5076 0.8396
vn -0.4009 0.4573 0.7938
vn -0.4787 0.5274 0.7019
vn -0.7024 0.3823 0.6004
vn -0.1931 0.5895 0.7844
vn -0.1512 0.5368 0.8300
vn -0.2716 0.6797 0.6814
vn -0.3322 0.8070 0.4882
vn -0.3446 0.9004 0.2655
vn -0.2033 0.9568 0.2079
vn 0.1002 0.9525 -0.2876
vn 0.0319 0.9960 -0.0839
vn -0.2102 0.5520 -0.8069
vn 0.0317 0.8244 -0.5651
vn -0.3671 0.5433 -0.7550
vn -0.4116 0.5523 -0.7249
vn 0.2525 0.7657 -0.5915
vn 0.3757 0.8940 -0.2441
vn -0.4984 0.2825 -0.8197
vn -0.3618 0.1132 -0.9254
vn -0.0592 0.4317 -0.9001
vn -0.7711 0.0370 -0.6356
vn -0.9141 -0.1774 -0.3647
vn -0.7551 -0.4382 -0.4877
vn -0.6094 -0.1841 -0.7712
vn -0.9477 -0.2930 -0.1266
vn -0.8123 -0.5687 -0.1293
vn -0.9700 -0.2318 0.0728
vn -0.9511 -0.0920 0.2949
vn -0.7152 -0.2586 0.6493
vn -0.8112 -0.5034 0.2976
vn -0.8966 0.1647 0.4110
vn -0.6411 0.0128 0.7673
vn -0.8033 0.3864 0.4533
vn -0.5909 0.6803 0.4337
vn -0.1850 0.4883 0.8528
vn -0.5182 0.1901 0.8339
vn -0.7999 0.2921 0.5243
vn -0.8847 0.3298 0.3295
vn 0.1772 0.8686 0.4627
vn 0.3516 0.9360 -0.0154
vn -0.6890 0.6758 0.2619
vn -0.6459 0.6522 0.3968
vn -0.5330 0.6151 0.5810
vn -0.3940 0.5618 0.7274
vn -0.3033 0.5061 0.8074
vn -0.8252 0.5099 0.2430
vn -0.9546 0.2889 0.0726
vn -0.9998 0.0161 -0.0082
vn -0.8670 0.4601 0.1916
vn -0.9602 0.2623 0.0961
vn -0.9991 0.0302 0.0286
vn -0.9571 -0.0202 0.2891
vn -0.8479 -0.5281 -0.0467
vn -0.8195 -0.5729 -0.0116
vn -0.4031 -0.9008 -0.1614
vn -0.6549 -0.7490 -0.1007
vn -0.9546 -0.1784 0.2385
vn -0.9279 -0.0581 0.3683
vn -0.9704 -0.2061 0.1256
vn -0.9919 -0.1251 0.0203
vn -0.6597 -0.7346 -0.1587
vn -0.9739 -0.1007 0.2033
vn -0.8272 -0.5592 -0.0558
vn -0.8487 -0.5174 -0.1096
vn -0.9757 -0.2004 0.0885
vn -0.8355 -0.5461 -0.0601
vn -0.9666 -0.2447 0.0761
vn -0.9811 -0.1891 0.0421
vn -0.9376 -0.3458 0.0375
vn -0.9351 -0.3533 0.0272
vn -0.9958 -0.0910 0.0047
vn -0.9909 -0.1348 -0.0025
vn -0.9919 -0.1254 -0.0191
vn -0.6295 0.3924 -0.6706
vn -0.8528 0.1894 -0.4867
vn -0.8811 0.2127 -0.4224
vn -0.6828 0.3969 -0.6134
vn -0.8309 -0.5553 0.0340
vn -0.9567 -0.2908 -0.0101
vn -0.9758 -0.2178 0.0179
vn -0.8962 -0.4201 0.1427
vn -0.8061 -0.5913 -0.0242
vn -0.9500 -0.3107 -0.0324
vn -0.9519 -0.3037 0.0408
vn -0.9438 -0.3007 0.1369
vn -0.8500 -0.5256 -0.0348
vn -0.9564 -0.2296 0.1805
vn -0.9908 0.1139 0.0728
vn -0.9852 0.0822 0.1503
vn -0.9109 0.3636 -0.1949
vn -0.9355 0.3418 -0.0897
vn -0.4569 0.6430 -0.6147
vn -0.4843 0.6753 -0.5562
vn -0.7133 0.5409 -0.4457
vn -0.7376 0.5626 -0.3735
vn -0.7560 -0.0187 0.6543
vn -0.7470 -0.0123 0.6647
vn -0.7406 -0.0054 0.6719
vn -0.7786 -0.0354 0.6265
vn -0.4945 -0.8517 0.1733
vn -0.4952 -0.8687 -0.0136
vn -0.3702 0.5945 0.7138
vn -0.4361 0.4577 0.7748
vn -0.5374 0.2153 0.8154
vn -0.6046 -0.1112 0.7887
vn -0.6064 -0.4575 0.6504
vn -0.5475 -0.7323 0.4049
vn -0.5972 0.5375 0.5953
vn -0.8119 0.2914 0.5059
vn -0.6962 0.4441 0.5640
vn -0.9078 0.0577 0.4155
vn -0.9301 -0.2251 0.2902
vn -0.8643 -0.4835 0.1387
vn -0.7736 -0.6332 0.0268
vn -0.7046 -0.7082 -0.0445
vn -0.1896 -0.0647 0.9797
vn -0.3643 -0.1274 0.9225
vn -0.3636 -0.3397 0.8674
vn -0.5941 -0.6191 0.5135
vn -0.7270 -0.6812 -0.0870
vn -0.6933 -0.4692 -0.5470
vn -0.5685 -0.1520 -0.8085
vn -0.3942 0.1514 -0.9065
vn -0.1496 0.4482 -0.8813
vn 0.2336 0.7487 -0.6204
vn 0.5321 0.7894 -0.3061
vn 0.7021 0.5076 0.4994
vn 0.2820 0.0626 0.9574
vn 0.6945 0.7193 -0.0163
vn 0.4862 0.7079 -0.5123
vn 0.7746 0.6238 -0.1041
vn 0.8300 0.3701 0.4173
vn 0.3976 0.6986 -0.5949
vn 0.3548 0.7699 -0.5304
vn 0.6420 0.7664 0.0223
vn 0.7112 0.6978 -0.0859
vn 0.6614 0.4950 0.5635
vn 0.7577 0.4623 0.4607
vn 0.2576 0.8620 -0.4366
vn 0.1778 0.9075 -0.3805
vn 0.4035 0.9052 0.1334
vn 0.5263 0.8436 0.1064
vn 0.5193 0.5410 0.6616
vn 0.5843 0.4919 0.6455
vn 0.0026 0.9374 -0.3483
vn 0.1519 0.9773 0.1479
vn 0.3061 0.6051 0.7350
vn -0.7768 0.4658 -0.4238
vn -0.4555 0.5303 -0.7150
vn -0.6439 0.3162 -0.6967
vn -0.8807 0.1368 -0.4535
vn -0.4821 0.0536 0.8745
vn -0.0810 -0.1954 0.9774
vn 0.2691 -0.0159 0.9630
vn -0.4003 0.8434 -0.3583
vn -0.5103 0.8410 0.1797
vn -0.7146 -0.5168 0.4714
vn -0.4055 -0.6714 0.6204
vn -0.3929 -0.5464 0.7396
vn -0.7730 -0.2371 0.5884
vn -0.8274 0.0940 -0.5536
vn -0.9680 -0.2485 -0.0359
vn -0.9801 -0.1951 0.0357
vn -0.6668 -0.5105 0.5430
vn -0.6766 -0.0657 -0.7334
vn -0.6657 -0.2128 -0.7152
vn -0.8008 -0.5709 -0.1813
vn -0.8746 -0.4484 -0.1843
vn -0.5264 -0.6377 0.5623
vn -0.5691 -0.5795 0.5833
vn -0.9419 -0.3151 -0.1161
vn -0.6020 -0.5369 0.5910
vn -0.7383 0.0571 -0.6721
vn -0.7589 -0.6419 -0.1098
vn -0.6999 -0.3335 -0.6316
vn -0.5073 -0.6401 0.5770
vn -0.5293 0.0306 -0.8479
vn -0.3977 0.2847 -0.8722
vn -0.2345 0.4853 -0.8423
vn 0.1160 0.6748 -0.7288
vn 0.3985 -0.0894 0.9128
vn 0.4479 -0.0980 0.8887
vn 0.4033 -0.0572 0.9133
vn 0.3701 -0.0753 0.9259
vn 0.3470 -0.0714 0.9351
vn 0.0473 0.9299 0.3648
vn -0.0431 0.7412 -0.6699
vn -0.0128 0.6705 -0.7418
vn -0.1644 0.5099 -0.8444
vn -0.1744 0.5894 -0.7888
vn -0.2111 -0.5312 0.8205
vn -0.3268 -0.5787 0.7472
vn -0.1753 -0.4126 0.8939
vn -0.1330 -0.4334 0.8913
vn -0.1490 -0.4584 0.8762
vn -0.3944 0.3242 -0.8599
vn -0.3553 0.2491 -0.9009
vn -0.2257 0.4373 -0.8705
vn -0.2057 0.3780 -0.9026
vn -0.2516 0.3301 -0.9098
vn -0.1498 0.4391 -0.8859
vn 0.0629 0.5653 -0.8225
vn -0.3961 0.1433 -0.9069
vn 0.0369 0.5819 -0.8124
vn -0.0937 0.7692 -0.6320
vn -0.2431 0.6894 -0.6823
vn -0.5077 0.3347 -0.7938
vn -0.9726 0.2121 0.0949
vn -0.1290 0.4475 -0.8849
vn -0.2547 0.4953 -0.8305
vn -0.2101 -0.6955 0.6871
vn -0.0892 -0.4276 0.8996
vn -0.1052 -0.3669 0.9243
vn -0.0743 -0.4212 0.9039
vn -0.2171 -0.2266 0.9495
vn -0.1732 -0.3046 0.9366
vn -0.0103 -0.5313 0.8471
vn 0.0472 -0.5480 0.8352
vn 0.0295 -0.5142 0.8571
vn -0.0219 -0.4950 0.8686
vn -0.0495 -0.4608 0.8861
vn -0.0555 -0.3842 0.9216
vn -0.0511 -0.3016 0.9521
vn -0.1001 -0.2263 0.9689
vn -0.2370 -0.7094 0.6638
vn -0.1285 -0.5831 0.8022
vn -0.1881 -0.6348 0.7495
vn -0.0918 -0.5017 0.8602
vn -0.0000 -0.1631 -0.9866
vt 0.192009 0.607133
vt 0.139002 0.606235
vt 0.152773 0.559907
vt 0.202348 0.561453
vt 0.247514 0.559944
vt 0.236561 0.606105
vt 0.295078 0.559018
vt 0.283157 0.604046
vt 0.322019 0.603928
vt 0.314836 0.638328
vt 0.278129 0.640502
vt 0.234647 0.866017
vt 0.269934 0.868356
vt 0.265959 0.903905
vt 0.232128 0.903001
vt 0.189188 0.646478
vt 0.234319 0.644261
vt 0.234596 0.678190
vt 0.189236 0.682306
vt 0.278287 0.672668
vt 0.131114 0.648060
vt 0.130400 0.686277
vt 0.069227 0.689349
vt 0.072439 0.647639
vt 0.005175 0.691283
vt 0.008465 0.643504
vt 0.085011 0.605452
vt 0.024313 0.599236
vt 0.056540 0.549553
vt 0.106929 0.555381
vt 0.387044 0.498365
vt 0.427084 0.492668
vt 0.430011 0.527232
vt 0.388384 0.537368
vt 0.345387 0.506110
vt 0.307701 0.509986
vt 0.323247 0.463899
vt 0.360987 0.460230
vt 0.392853 0.385121
vt 0.353686 0.385224
vt 0.357134 0.348146
vt 0.394944 0.348146
vt 0.301913 0.424970
vt 0.283892 0.465330
vt 0.241996 0.466916
vt 0.262682 0.425642
vt 0.321007 0.348146
vt 0.316204 0.386710
vt 0.278859 0.387373
vt 0.285919 0.348147
vt 0.376001 0.421562
vt 0.339355 0.423625
vt 0.265733 0.512247
vt 0.219075 0.513338
vt 0.242004 0.386567
vt 0.249836 0.348147
vt 0.174720 0.512584
vt 0.200486 0.467926
vt 0.224495 0.425635
vt 0.240153 0.823408
vt 0.275868 0.827132
vt 0.298010 0.909717
vt 0.304582 0.874322
vt 0.340751 0.885441
vt 0.331519 0.921282
vt 0.364808 0.934295
vt 0.375152 0.898944
vt 0.405967 0.911871
vt 0.396176 0.947367
vt 0.457650 0.968882
vt 0.464718 0.937228
vt 0.500473 0.951975
vt 0.495458 0.980747
vt 0.539000 0.964712
vt 0.536864 0.991388
vt 0.551844 0.914270
vt 0.519677 0.893711
vt 0.530509 0.878536
vt 0.559082 0.901710
vt 0.544812 0.863036
vt 0.567390 0.889852
vt 0.585385 0.875800
vt 0.573384 0.849020
vt 0.585716 0.845652
vt 0.593874 0.872311
vt 0.603672 0.871844
vt 0.599613 0.844714
vt 0.613367 0.844814
vt 0.613376 0.871532
vt 0.505048 0.926560
vt 0.539679 0.942524
vt 0.350491 0.849768
vt 0.384984 0.864075
vt 0.313258 0.837394
vt 0.471248 0.909437
vt 0.560501 0.854197
vt 0.523527 0.826744
vt 0.548014 0.821755
vt 0.530736 0.778626
vt 0.527340 0.794972
vt 0.510007 0.786393
vt 0.518841 0.773215
vt 0.509230 0.764565
vt 0.496823 0.774019
vt 0.488711 0.758180
vt 0.503341 0.753650
vt 0.486686 0.739337
vt 0.502038 0.741831
vt 0.496850 0.721929
vt 0.507696 0.731196
vt 0.513050 0.708848
vt 0.517520 0.723404
vt 0.541975 0.779222
vt 0.544407 0.794683
vt 0.550219 0.775372
vt 0.544283 0.767949
vt 0.548204 0.763656
vt 0.555813 0.767696
vt 0.535925 0.699555
vt 0.530191 0.720873
vt 0.541236 0.728449
vt 0.532946 0.739786
vt 0.525403 0.734212
vt 0.555089 0.754296
vt 0.545400 0.756597
vt 0.540166 0.747723
vt 0.550387 0.740134
vt 0.525350 0.764402
vt 0.517710 0.757435
vt 0.566596 0.731804
vt 0.552306 0.714996
vt 0.570558 0.780614
vt 0.570196 0.755099
vt 0.519102 0.732100
vt 0.557621 0.790324
vt 0.540143 0.771897
vt 0.533670 0.769413
vt 0.513869 0.737509
vt 0.509369 0.743316
vt 0.512259 0.749740
vt 0.590162 0.734398
vt 0.591199 0.757098
vt 0.592726 0.782519
vt 0.613338 0.735257
vt 0.613343 0.758278
vt 0.613349 0.783970
vt 0.595722 0.812677
vt 0.613357 0.813623
vt 0.578393 0.813221
vt 0.613334 0.713385
vt 0.591451 0.713910
vt 0.589670 0.693176
vt 0.613331 0.690922
vt 0.586610 0.670004
vt 0.613328 0.666668
vt 0.583089 0.643873
vt 0.613325 0.639858
vt 0.577891 0.612485
vt 0.613323 0.608943
vt 0.567248 0.570238
vt 0.613321 0.569585
vt 0.629056 0.348146
vt 0.626244 0.381915
vt 0.592892 0.382019
vt 0.592802 0.348146
vt 0.554998 0.348146
vt 0.557735 0.385534
vt 0.512174 0.396272
vt 0.509518 0.348146
vt 0.468992 0.389921
vt 0.470621 0.348146
vt 0.431011 0.348146
vt 0.428715 0.386510
vt 0.597619 0.414917
vt 0.569889 0.419429
vt 0.542649 0.429967
vt 0.521875 0.450671
vt 0.487221 0.431989
vt 0.472253 0.462681
vt 0.508757 0.473697
vt 0.503602 0.497253
vt 0.466553 0.492842
vt 0.505748 0.520892
vt 0.469201 0.523701
vt 0.396101 0.661938
vt 0.409197 0.614161
vt 0.437677 0.611192
vt 0.439304 0.647749
vt 0.464228 0.604367
vt 0.471203 0.633391
vt 0.500954 0.615706
vt 0.490878 0.589359
vt 0.514244 0.569390
vt 0.531798 0.595638
vt 0.563981 0.817269
vt 0.576938 0.881269
vt 0.532280 0.547781
vt 0.574918 0.525341
vt 0.538202 0.519426
vt 0.544565 0.626913
vt 0.560564 0.680485
vt 0.553295 0.655395
vt 0.568424 0.700402
vt 0.574526 0.715259
vt 0.525627 0.672790
vt 0.500705 0.689231
vt 0.477905 0.707961
vt 0.513431 0.645032
vt 0.355410 0.640168
vt 0.381612 0.603888
vt 0.485034 0.663161
vt 0.456509 0.681476
vt 0.503455 0.851508
vt 0.511577 0.908258
vt 0.479362 0.887230
vt 0.433938 0.923653
vt 0.442442 0.891949
vt 0.425875 0.957945
vt 0.496467 0.808129
vt 0.478071 0.790437
vt 0.464769 0.768354
vt 0.454948 0.736311
vt 0.415160 0.878317
vt 0.478088 0.831414
vt 0.451684 0.869611
vt 0.425383 0.854033
vt 0.456409 0.812362
vt 0.396449 0.837234
vt 0.436782 0.789802
vt 0.415915 0.762290
vt 0.385047 0.790643
vt 0.413049 0.813943
vt 0.387028 0.733166
vt 0.424084 0.703301
vt 0.355191 0.701836
vt 0.321267 0.674435
vt 0.436695 0.458616
vt 0.450166 0.424908
vt 0.399051 0.458143
vt 0.412990 0.421764
vt 0.327977 0.801528
vt 0.291098 0.782991
vt 0.319842 0.740756
vt 0.353357 0.766301
vt 0.363828 0.819276
vt 0.438270 0.834074
vt 0.462935 0.851792
vt 0.489219 0.870581
vt 0.545002 0.927081
vt 0.285363 0.712922
vt 0.315231 0.668443
vt 0.246611 0.762092
vt 0.341775 0.558047
vt 0.093160 0.504412
vt 0.132789 0.509525
vt 0.126973 0.463639
vt 0.161720 0.467280
vt 0.206884 0.385453
vt 0.175667 0.384160
vt 0.184676 0.348147
vt 0.214897 0.348147
vt 0.188770 0.424527
vt 0.157334 0.420902
vt 0.525403 0.749040
vt 0.532303 0.755909
vt 0.538791 0.762389
vt 0.519185 0.742821
vt 0.613427 0.973504
vt 0.585065 0.964422
vt 0.596879 0.940900
vt 0.613408 0.941372
vt 0.613383 0.888373
vt 0.606097 0.888127
vt 0.605916 0.896443
vt 0.613387 0.897806
vt 0.613391 0.904269
vt 0.604792 0.902730
vt 0.603509 0.909422
vt 0.613393 0.910293
vt 0.613396 0.917245
vt 0.601996 0.917066
vt 0.613401 0.926554
vt 0.600288 0.926783
vt 0.574290 0.969830
vt 0.576299 0.994337
vt 0.599390 0.885979
vt 0.596501 0.890839
vt 0.592630 0.896677
vt 0.584521 0.913687
vt 0.588524 0.904303
vt 0.574705 0.937772
vt 0.580438 0.924736
vt 0.566903 0.950748
vt 0.918072 0.564809
vt 0.893716 0.574621
vt 0.893453 0.549601
vt 0.916341 0.541869
vt 0.871077 0.581761
vt 0.872687 0.541625
vt 0.848185 0.591467
vt 0.822616 0.595027
vt 0.827195 0.550943
vt 0.848679 0.548209
vt 0.719616 0.234887
vt 0.745844 0.236102
vt 0.740436 0.280307
vt 0.716317 0.280073
vt 0.693697 0.282479
vt 0.694017 0.237680
vt 0.773963 0.240874
vt 0.803593 0.250436
vt 0.790754 0.293292
vt 0.765598 0.284639
vt 0.829346 0.268642
vt 0.851545 0.288143
vt 0.833023 0.322954
vt 0.813109 0.306725
vt 0.967870 0.560107
vt 0.942880 0.555992
vt 0.943324 0.521472
vt 0.971724 0.522656
vt 0.869896 0.306850
vt 0.849361 0.337153
vt 0.993782 0.526571
vt 0.994709 0.564602
vt 0.622888 0.413909
vt 0.613321 0.527737
vt 0.838765 0.377863
vt 0.820492 0.366258
vt 0.973683 0.479818
vt 0.994709 0.483887
vt 0.813163 0.409078
vt 0.831692 0.418438
vt 0.822686 0.455515
vt 0.805758 0.446406
vt 0.992068 0.443892
vt 0.972014 0.442892
vt 0.966586 0.409285
vt 0.984734 0.407046
vt 0.794667 0.477495
vt 0.808989 0.487855
vt 0.791015 0.514345
vt 0.780228 0.502625
vt 0.974495 0.373428
vt 0.957870 0.378845
vt 0.946279 0.353542
vt 0.959947 0.344333
vt 0.771813 0.532439
vt 0.766030 0.518903
vt 0.933511 0.337771
vt 0.941130 0.324816
vt 0.740297 0.518306
vt 0.730205 0.504691
vt 0.737214 0.497182
vt 0.744900 0.503230
vt 0.921433 0.331056
vt 0.927557 0.348331
vt 0.919995 0.341658
vt 0.752198 0.539416
vt 0.752755 0.523457
vt 0.893417 0.344118
vt 0.908665 0.333239
vt 0.911225 0.342825
vt 0.901702 0.353049
vt 0.720202 0.512943
vt 0.710153 0.484965
vt 0.723688 0.480123
vt 0.885588 0.336397
vt 0.876203 0.364274
vt 0.867426 0.358443
vt 0.714711 0.418526
vt 0.696431 0.420506
vt 0.694605 0.379842
vt 0.712856 0.378345
vt 0.839926 0.416403
vt 0.856121 0.420529
vt 0.850791 0.456469
vt 0.834635 0.455582
vt 0.852394 0.383933
vt 0.865270 0.390949
vt 0.718463 0.451586
vt 0.702987 0.455501
vt 0.693697 0.332028
vt 0.713855 0.330123
vt 0.849160 0.500674
vt 0.831226 0.501996
vt 0.757820 0.333449
vt 0.735265 0.329976
vt 0.801918 0.352586
vt 0.780622 0.340937
vt 0.949508 0.478008
vt 0.950089 0.443187
vt 0.934307 0.362542
vt 0.947212 0.412718
vt 0.941629 0.384975
vt 0.921275 0.317057
vt 0.770680 0.492587
vt 0.759843 0.486512
vt 0.765520 0.460106
vt 0.780256 0.467803
vt 0.889261 0.369615
vt 0.879924 0.394477
vt 0.868184 0.455987
vt 0.867692 0.496881
vt 0.872627 0.422388
vt 0.734799 0.451481
vt 0.733080 0.418500
vt 0.750524 0.454548
vt 0.751732 0.421664
vt 0.774268 0.388106
vt 0.753730 0.381312
vt 0.794124 0.398092
vt 0.732937 0.378158
vt 0.788062 0.436661
vt 0.754772 0.507194
vt 0.763017 0.508092
vt 0.735947 0.478456
vt 0.902470 0.321353
vt 0.769973 0.427920
vt 0.748254 0.481625
vt 0.733850 0.532546
vt 0.918205 0.349097
vt 0.912768 0.349939
vt 0.891607 0.451918
vt 0.891290 0.487383
vt 0.893302 0.519769
vt 0.898156 0.533772
vt 0.919518 0.356203
vt 0.921826 0.390898
vt 0.920313 0.370199
vt 0.922478 0.445999
vt 0.922734 0.416417
vt 0.922290 0.479311
vt 0.919561 0.511485
vt 0.912293 0.528871
vt 0.908687 0.357609
vt 0.902911 0.373236
vt 0.897824 0.394746
vt 0.893834 0.420863
vt 0.192008 0.089160
vt 0.202348 0.134841
vt 0.152772 0.136387
vt 0.139002 0.090059
vt 0.236561 0.090188
vt 0.247513 0.136349
vt 0.283156 0.092247
vt 0.295078 0.137276
vt 0.278129 0.055791
vt 0.314835 0.057966
vt 0.322018 0.092366
vt 0.991929 0.865802
vt 0.994462 0.902758
vt 0.960655 0.903676
vt 0.956667 0.868153
vt 0.189187 0.049815
vt 0.189235 0.013987
vt 0.234595 0.018104
vt 0.234318 0.052033
vt 0.278286 0.023625
vt 0.131113 0.048234
vt 0.130400 0.010016
vt 0.072439 0.048655
vt 0.069227 0.006945
vt 0.008465 0.052790
vt 0.005175 0.005012
vt 0.085010 0.090842
vt 0.106929 0.140913
vt 0.056541 0.146741
vt 0.024313 0.097057
vt 0.387043 0.197928
vt 0.388383 0.158925
vt 0.430010 0.169061
vt 0.427084 0.203625
vt 0.345387 0.190183
vt 0.360987 0.236063
vt 0.323246 0.232394
vt 0.307700 0.186307
vt 0.392853 0.311171
vt 0.353685 0.311069
vt 0.301913 0.271323
vt 0.262682 0.270652
vt 0.241996 0.229377
vt 0.283892 0.230963
vt 0.278859 0.308920
vt 0.316204 0.309583
vt 0.376000 0.274730
vt 0.339355 0.272668
vt 0.265733 0.184046
vt 0.219074 0.182955
vt 0.242004 0.309726
vt 0.200486 0.228368
vt 0.174720 0.183709
vt 0.224495 0.270659
vt 0.986409 0.823225
vt 0.950720 0.826960
vt 0.928630 0.909499
vt 0.895150 0.921072
vt 0.885906 0.885260
vt 0.922046 0.874131
vt 0.861891 0.934094
vt 0.830551 0.947177
vt 0.820744 0.911710
vt 0.851533 0.898772
vt 0.769131 0.968723
vt 0.731354 0.980613
vt 0.726317 0.951859
vt 0.762043 0.937092
vt 0.689979 0.991285
vt 0.687820 0.964624
vt 0.674935 0.914214
vt 0.667689 0.901663
vt 0.696236 0.878473
vt 0.707076 0.893635
vt 0.659372 0.889814
vt 0.681925 0.862987
vt 0.641369 0.875778
vt 0.632878 0.872296
vt 0.641016 0.845633
vt 0.653349 0.848993
vt 0.623081 0.871836
vt 0.627120 0.844705
vt 0.687122 0.942447
vt 0.721725 0.926460
vt 0.841688 0.863929
vt 0.876153 0.849613
vt 0.913359 0.837230
vt 0.755496 0.909320
vt 0.666233 0.854160
vt 0.678698 0.821716
vt 0.703183 0.826690
vt 0.695950 0.778587
vt 0.707840 0.773172
vt 0.716678 0.786342
vt 0.699353 0.794928
vt 0.717445 0.764519
vt 0.723328 0.753606
vt 0.737956 0.758128
vt 0.729853 0.773966
vt 0.724627 0.741789
vt 0.739973 0.739289
vt 0.718966 0.731158
vt 0.729806 0.721891
vt 0.709141 0.723371
vt 0.713606 0.708818
vt 0.684714 0.779188
vt 0.682290 0.794648
vt 0.676470 0.775343
vt 0.670872 0.767670
vt 0.678479 0.763628
vt 0.682401 0.767919
vt 0.696472 0.720846
vt 0.690733 0.699532
vt 0.685432 0.728423
vt 0.701264 0.734180
vt 0.693725 0.739756
vt 0.671591 0.754272
vt 0.676287 0.740109
vt 0.686509 0.747694
vt 0.681280 0.756568
vt 0.701329 0.764364
vt 0.708964 0.757395
vt 0.660076 0.731787
vt 0.674359 0.714976
vt 0.656135 0.780594
vt 0.656485 0.755081
vt 0.707563 0.732066
vt 0.669076 0.790296
vt 0.686542 0.771864
vt 0.693012 0.769377
vt 0.712797 0.737472
vt 0.717298 0.743276
vt 0.714410 0.749699
vt 0.635486 0.757089
vt 0.636514 0.734389
vt 0.633970 0.782509
vt 0.630991 0.812667
vt 0.648318 0.813201
vt 0.636992 0.693170
vt 0.635217 0.713903
vt 0.640046 0.669998
vt 0.643561 0.643867
vt 0.648754 0.612481
vt 0.659394 0.570236
vt 0.592892 0.314273
vt 0.626244 0.314376
vt 0.512174 0.300020
vt 0.557735 0.310758
vt 0.468992 0.306371
vt 0.428715 0.309782
vt 0.569889 0.276863
vt 0.597618 0.281374
vt 0.487220 0.264304
vt 0.521874 0.245621
vt 0.542648 0.266325
vt 0.472252 0.233611
vt 0.466552 0.203451
vt 0.503601 0.199040
vt 0.508756 0.222595
vt 0.469200 0.172591
vt 0.505747 0.175400
vt 0.830503 0.661896
vt 0.787315 0.647721
vt 0.788937 0.611178
vt 0.817405 0.614142
vt 0.755426 0.633372
vt 0.762397 0.604356
vt 0.725682 0.615694
vt 0.694841 0.595632
vt 0.712392 0.569387
vt 0.735755 0.589353
vt 0.662731 0.817240
vt 0.649819 0.881239
vt 0.694358 0.547779
vt 0.651723 0.525341
vt 0.688436 0.519426
vt 0.682079 0.626903
vt 0.673354 0.655383
vt 0.666092 0.680472
vt 0.658239 0.700388
vt 0.652141 0.715247
vt 0.701022 0.672770
vt 0.725943 0.689201
vt 0.748741 0.707921
vt 0.713211 0.645015
vt 0.871170 0.640128
vt 0.844975 0.603870
vt 0.741604 0.663135
vt 0.770123 0.681439
vt 0.723263 0.851435
vt 0.715183 0.908171
vt 0.747371 0.887129
vt 0.792797 0.923503
vt 0.784276 0.891821
vt 0.800879 0.957769
vt 0.748606 0.790370
vt 0.730225 0.808065
vt 0.761894 0.768289
vt 0.771700 0.736253
vt 0.811536 0.878179
vt 0.748610 0.831333
vt 0.775025 0.869499
vt 0.801305 0.853914
vt 0.770271 0.812277
vt 0.830216 0.837108
vt 0.789880 0.789717
vt 0.810726 0.762209
vt 0.841591 0.790537
vt 0.813613 0.813836
vt 0.802541 0.703247
vt 0.839590 0.733088
vt 0.871402 0.701764
vt 0.905302 0.674370
vt 0.450166 0.271384
vt 0.436694 0.237676
vt 0.399051 0.238150
vt 0.412990 0.274529
vt 0.898634 0.801392
vt 0.873255 0.766195
vt 0.906743 0.740654
vt 0.935483 0.782853
vt 0.862811 0.819145
vt 0.788413 0.833971
vt 0.763769 0.851695
vt 0.737507 0.870493
vt 0.681787 0.927015
vt 0.941193 0.712826
vt 0.315230 0.027851
vt 0.979933 0.761953
vt 0.341774 0.138247
vt 0.132789 0.186768
vt 0.093160 0.191881
vt 0.161720 0.229013
vt 0.126973 0.232655
vt 0.206884 0.310840
vt 0.175667 0.312133
vt 0.188770 0.271766
vt 0.157334 0.275392
vt 0.701269 0.749005
vt 0.694374 0.755875
vt 0.687889 0.762357
vt 0.707484 0.742785
vt 0.629936 0.940882
vt 0.641776 0.964388
vt 0.620669 0.888121
vt 0.620858 0.896437
vt 0.621987 0.902722
vt 0.623276 0.909412
vt 0.624795 0.917055
vt 0.626513 0.926770
vt 0.650568 0.994270
vt 0.652553 0.969773
vt 0.627374 0.885968
vt 0.634142 0.896659
vt 0.630267 0.890824
vt 0.638255 0.904280
vt 0.642266 0.913660
vt 0.646358 0.924703
vt 0.652103 0.937730
vt 0.659917 0.950694
vt 0.111907 0.729847
vt 0.110182 0.752867
vt 0.087203 0.745125
vt 0.087452 0.720000
vt 0.066355 0.753156
vt 0.064705 0.712838
vt 0.041695 0.703095
vt 0.042225 0.746567
vt 0.020629 0.743841
vt 0.015992 0.699534
vt 0.934144 0.004892
vt 0.937441 0.050070
vt 0.913327 0.050303
vt 0.907920 0.006107
vt 0.959737 0.007685
vt 0.960057 0.052475
vt 0.879807 0.010878
vt 0.888170 0.054635
vt 0.863018 0.063286
vt 0.850182 0.020437
vt 0.824434 0.038639
vt 0.840667 0.076715
vt 0.820756 0.092941
vt 0.802238 0.058136
vt 0.161835 0.734569
vt 0.165703 0.772089
vt 0.137257 0.773295
vt 0.136794 0.738691
vt 0.783890 0.076839
vt 0.804421 0.107136
vt 0.188720 0.730066
vt 0.187791 0.768165
vt 0.622888 0.282382
vt 0.833283 0.136237
vt 0.815013 0.147839
vt 0.188720 0.810896
vt 0.167700 0.814976
vt 0.840607 0.179050
vt 0.848005 0.216374
vt 0.831078 0.225476
vt 0.822081 0.188407
vt 0.186079 0.850849
vt 0.178778 0.887503
vt 0.160804 0.885333
vt 0.166092 0.851867
vt 0.859084 0.247466
vt 0.873505 0.272613
vt 0.862699 0.284315
vt 0.844757 0.257815
vt 0.168701 0.920647
vt 0.154805 0.948670
vt 0.141879 0.940729
vt 0.152473 0.915518
vt 0.887690 0.288939
vt 0.881843 0.302452
vt 0.138605 0.968302
vt 0.129676 0.956920
vt 0.913517 0.288343
vt 0.908879 0.273241
vt 0.916570 0.267178
vt 0.923592 0.274685
vt 0.118420 0.963013
vt 0.116196 0.953117
vt 0.123364 0.946441
vt 0.901016 0.293561
vt 0.901597 0.309826
vt 0.089197 0.952186
vt 0.097089 0.942996
vt 0.107666 0.952634
vt 0.105893 0.962525
vt 0.930088 0.250100
vt 0.943627 0.254932
vt 0.933612 0.282918
vt 0.081438 0.960299
vt 0.061857 0.938020
vt 0.071960 0.934454
vt 0.939050 0.188500
vt 0.940902 0.148324
vt 0.959150 0.149820
vt 0.957327 0.190478
vt 0.033709 0.879206
vt 0.028260 0.839730
vt 0.044526 0.838786
vt 0.050040 0.874977
vt 0.046436 0.912090
vt 0.059531 0.904930
vt 0.935303 0.221558
vt 0.950778 0.225469
vt 0.960057 0.102015
vt 0.939903 0.100110
vt 0.042775 0.794336
vt 0.024740 0.793038
vt 0.918496 0.099964
vt 0.895945 0.103436
vt 0.873147 0.110922
vt 0.851854 0.122569
vt 0.144221 0.851643
vt 0.143523 0.816823
vt 0.129653 0.932115
vt 0.136345 0.909703
vt 0.141549 0.882060
vt 0.120861 0.979375
vt 0.883068 0.262579
vt 0.873500 0.237779
vt 0.888241 0.230085
vt 0.893916 0.256504
vt 0.074352 0.900994
vt 0.083896 0.926149
vt 0.061412 0.798108
vt 0.062030 0.839207
vt 0.066666 0.872993
vt 0.918966 0.221456
vt 0.920683 0.188476
vt 0.903240 0.224526
vt 0.902032 0.191640
vt 0.900034 0.151292
vt 0.879499 0.158085
vt 0.859645 0.168068
vt 0.920824 0.148138
vt 0.865701 0.206634
vt 0.890726 0.278111
vt 0.898990 0.277220
vt 0.917826 0.248439
vt 0.100073 0.975528
vt 0.883791 0.197895
vt 0.905513 0.251613
vt 0.920036 0.302555
vt 0.108651 0.945459
vt 0.114098 0.946002
vt 0.085142 0.807587
vt 0.085599 0.843189
vt 0.091941 0.761011
vt 0.087088 0.775074
vt 0.115076 0.938874
vt 0.115419 0.924842
vt 0.116497 0.904105
vt 0.117084 0.878574
vt 0.116601 0.848968
vt 0.116266 0.815595
vt 0.113453 0.783342
vt 0.106134 0.765911
vt 0.104088 0.937940
vt 0.092334 0.900570
vt 0.097747 0.922216
vt 0.088052 0.874361
vt 0.742121 0.124373
vt 0.782010 0.125966
vt 0.771242 0.175189
vt 0.738621 0.212006
vt 0.529409 0.046244
vt 0.526633 0.115766
vt 0.485739 0.114133
vt 0.501229 0.078542
vt 0.523856 0.185288
vt 0.498341 0.150846
vt 0.574892 0.016174
vt 0.570844 0.117532
vt 0.566796 0.218890
vt 0.629091 0.004915
vt 0.624508 0.119675
vt 0.619924 0.234435
vt 0.689758 0.009769
vt 0.685271 0.122102
vt 0.680785 0.234435
vt 0.745621 0.036740
vt 0.775202 0.076042
s 1
f 1/1/1 2/2/2 4/3/3 3/4/4
f 1/1/1 3/4/4 6/5/5 5/6/6
f 5/6/6 6/5/5 8/7/7 7/8/8
f 7/8/8 222/9/9 225/10/10 41/11/11
f 225/12/10 42/13/12 11/14/13 224/15/14
f 43/16/15 44/17/16 13/18/17 12/19/18
f 44/17/16 41/11/11 10/20/19 13/18/17
f 45/21/20 43/16/15 12/19/18 15/22/21
f 45/21/20 15/22/21 16/23/22 46/24/23
f 46/24/23 16/23/22 18/25/24 47/26/25
f 14/27/26 17/28/27 20/29/28 19/30/29
f 2/2/2 14/27/26 19/30/29 4/3/3
f 206/31/30 200/32/31 202/33/32 223/34/33
f 22/35/34 21/36/35 23/37/36 24/38/37
f 29/39/38 30/40/39 25/41/40 26/42/41
f 212/43/42 33/44/43 27/45/44 211/46/45
f 32/47/46 34/48/47 31/49/48 28/50/49
f 207/51/50 210/52/51 30/40/39 29/39/38
f 25/41/40 30/40/39 34/48/47 32/47/46
f 210/52/51 23/37/36 33/44/43 212/43/42
f 21/36/35 8/7/7 6/5/5 35/53/52
f 21/36/35 35/53/52 33/44/43 23/37/36
f 35/53/52 6/5/5 3/4/4 36/54/53
f 33/44/43 35/53/52 36/54/53 27/45/44
f 28/50/49 31/49/48 38/55/54 37/56/55
f 27/45/44 36/54/53 40/57/56 39/58/57
f 211/46/45 213/59/58 38/55/54 31/49/48
f 4/3/3 40/57/56 36/54/53 3/4/4
f 14/27/26 46/24/23 47/26/25 17/28/27
f 2/2/2 45/21/20 46/24/23 14/27/26
f 2/2/2 1/1/1 43/16/15 45/21/20
f 5/6/6 7/8/8 41/11/11 44/17/16
f 1/1/1 5/6/6 44/17/16 43/16/15
f 222/60/9 9/61/59 42/13/12 225/12/10
f 68/62/60 69/63/61 49/64/62 48/65/63
f 193/66/64 194/67/65 51/68/66 50/69/67
f 181/70/68 183/71/69 53/72/70 52/73/71
f 52/73/71 53/72/70 55/74/72 54/75/73
f 216/76/74 215/77/75 56/78/76 57/79/77
f 57/79/77 56/78/76 58/80/78 59/81/79
f 251/82/80 246/83/81 60/84/82 61/85/83
f 117/86/84 119/87/85 62/88/86 63/89/87
f 55/74/72 53/72/70 65/90/88 64/91/89
f 194/67/65 49/64/62 66/92/90 195/93/91
f 70/94/92 66/92/90 49/64/62 69/63/61
f 9/61/59 70/94/92 69/63/61 42/13/12
f 11/14/13 42/13/12 69/63/61 68/62/60
f 183/71/69 182/95/93 65/90/88 53/72/70
f 154/96/94 58/80/78 71/97/95 155/98/96
f 105/99/97 86/100/98 75/101/99 100/102/100
f 111/103/101 98/104/102 77/105/103 101/106/104
f 101/106/104 77/105/103 79/107/105 102/108/106
f 102/108/106 79/107/105 81/109/107 103/110/108
f 103/110/108 81/109/107 83/111/109 104/112/110
f 99/113/111 73/114/112 86/100/98 105/99/97
f 250/115/113 249/116/114 88/117/115 106/118/116
f 104/112/110 83/111/109 89/119/117 107/120/118
f 110/121/119 96/122/120 90/123/121 107/120/118
f 109/124/122 94/125/123 92/126/124 108/127/125
f 106/118/116 88/117/115 94/125/123 109/124/122
f 108/127/125 92/126/124 96/122/120 110/121/119
f 100/102/100 75/101/99 98/104/102 111/103/101
f 76/128/126 100/102/100 111/103/101 97/129/127
f 91/130/128 108/127/125 110/121/119 95/131/129
f 87/132/130 106/118/116 109/124/122 93/133/131
f 93/133/131 109/124/122 108/127/125 91/130/128
f 95/131/129 110/121/119 107/120/118 89/119/117
f 84/134/132 104/112/110 107/120/118 90/123/121
f 248/135/133 250/115/113 106/118/116 87/132/130
f 74/136/134 99/113/111 105/99/97 85/137/135
f 82/138/136 103/110/108 104/112/110 84/134/132
f 80/139/137 102/108/106 103/110/108 82/138/136
f 78/140/138 101/106/104 102/108/106 80/139/137
f 78/140/138 97/129/127 111/103/101 101/106/104
f 85/137/135 105/99/97 100/102/100 76/128/126
f 93/133/131 91/130/128 112/141/139 113/142/140
f 87/132/130 93/133/131 113/142/140 114/143/141
f 113/142/140 112/141/139 115/144/142 116/145/143
f 114/143/141 113/142/140 116/145/143 118/146/144
f 61/85/83 60/84/82 119/87/85 117/86/84
f 120/147/145 114/143/141 118/146/144 121/148/146
f 119/87/85 120/147/145 121/148/146 62/88/86
f 72/149/147 120/147/145 119/87/85 60/84/82
f 164/150/148 165/151/149 122/152/150 123/153/151
f 123/153/151 122/152/150 124/154/152 125/155/153
f 125/155/153 124/154/152 126/156/154 127/157/155
f 127/157/155 126/156/154 128/158/156 129/159/157
f 129/159/157 128/158/156 130/160/158 131/161/159
f 293/162/160 294/163/161 132/164/162 133/165/163
f 168/166/164 169/167/165 134/168/166 135/169/167
f 135/169/167 134/168/166 136/170/168 137/171/169
f 138/172/170 137/171/169 136/170/168 139/173/171
f 26/42/41 138/172/170 139/173/171 29/39/38
f 169/167/165 132/164/162 140/174/172 170/175/173
f 134/168/166 141/176/174 143/177/175 142/178/176
f 158/179/177 159/180/178 145/181/179 144/182/180
f 144/182/180 145/181/179 147/183/181 146/184/182
f 172/185/183 177/186/184 149/187/185 148/188/186
f 148/188/186 149/187/185 151/189/187 150/190/188
f 166/191/189 167/192/190 152/193/191 156/194/192
f 114/143/141 120/147/145 72/149/147 87/132/130
f 246/83/81 154/96/94 155/98/96 247/195/193
f 59/81/79 58/80/78 154/96/94 153/196/194
f 247/195/193 248/135/133 87/132/130 72/149/147
f 73/114/112 155/98/96 71/97/95 86/100/98
f 156/194/192 152/193/191 157/197/195 130/160/158
f 294/198/161 130/160/158 157/197/195 295/199/196
f 142/178/176 143/177/175 159/180/178 158/179/177
f 156/194/192 130/160/158 128/158/156 176/200/197
f 126/156/154 124/154/152 161/201/198 173/202/199
f 124/154/152 122/152/150 160/203/200 161/201/198
f 91/130/128 95/131/129 160/203/200 163/204/201
f 115/144/142 112/141/139 165/151/149 164/150/148
f 91/130/128 163/204/201 165/151/149 112/141/139
f 122/152/150 165/151/149 163/204/201 160/203/200
f 126/156/154 173/202/199 176/200/197 128/158/156
f 150/190/188 151/189/187 167/192/190 166/191/189
f 134/168/166 169/167/165 170/175/173 141/176/174
f 133/165/163 132/164/162 169/167/165 168/166/164
f 160/203/200 95/131/129 89/119/117 161/201/198
f 161/201/198 89/119/117 171/205/202 173/202/199
f 89/119/117 83/111/109 175/206/203 171/205/202
f 83/111/109 81/109/107 174/207/204 175/206/203
f 166/191/189 156/194/192 176/200/197 162/208/205
f 176/200/197 173/202/199 171/205/202 162/208/205
f 146/209/182 147/210/181 177/186/184 172/185/183
f 178/211/206 175/206/203 174/207/204 179/212/207
f 150/190/188 178/211/206 179/212/207 148/188/186
f 162/208/205 171/205/202 175/206/203 178/211/206
f 166/191/189 162/208/205 178/211/206 150/190/188
f 58/80/78 56/78/76 180/213/208 71/97/95
f 229/214/209 65/90/88 182/95/93 230/215/210
f 189/216/211 190/217/212 182/95/93 183/71/69
f 187/218/213 189/216/211 183/71/69 181/70/68
f 98/104/102 75/101/99 184/219/214 186/220/215
f 77/105/103 98/104/102 186/220/215 185/221/216
f 75/101/99 86/100/98 71/97/95 184/219/214
f 81/109/107 79/107/105 188/222/217 174/207/204
f 79/107/105 77/105/103 185/221/216 188/222/217
f 50/69/67 51/68/66 189/216/211 187/218/213
f 51/68/66 67/223/218 190/217/212 189/216/211
f 71/97/95 180/213/208 192/224/219 184/219/214
f 230/215/210 182/95/93 190/217/212 231/225/220
f 231/225/220 190/217/212 67/223/218 232/226/221
f 186/220/215 184/219/214 192/224/219 191/227/222
f 51/68/66 194/67/65 195/93/91 67/223/218
f 48/65/63 49/64/62 194/67/65 193/66/64
f 232/226/221 67/223/218 195/93/91 233/228/223
f 185/221/216 186/220/215 191/227/222 196/229/224
f 185/221/216 196/229/224 197/230/225 188/222/217
f 221/231/226 197/230/225 196/229/224 220/232/227
f 188/222/217 197/230/225 199/233/228 198/234/229
f 174/207/204 188/222/217 198/234/229 179/212/207
f 148/188/186 179/212/207 198/234/229 172/185/183
f 198/234/229 199/233/228 201/235/230 172/185/183
f 144/182/180 146/184/182 202/33/32 200/32/31
f 146/209/182 172/185/183 201/235/230 202/236/32
f 142/178/176 158/179/177 204/237/231 203/238/232
f 158/179/177 144/182/180 200/32/31 204/237/231
f 134/168/166 142/178/176 203/238/232 136/170/168
f 205/239/233 204/237/231 200/32/31 206/31/30
f 24/38/37 205/239/233 206/31/30 22/35/34
f 205/239/233 24/38/37 207/51/50 209/240/234
f 204/237/231 205/239/233 209/240/234 203/238/232
f 27/45/44 39/58/57 213/59/58 211/46/45
f 30/40/39 210/52/51 212/43/42 34/48/47
f 24/38/37 23/37/36 210/52/51 207/51/50
f 34/48/47 212/43/42 211/46/45 31/49/48
f 139/173/171 209/240/234 207/51/50 29/39/38
f 136/170/168 203/238/232 209/240/234 139/173/171
f 226/241/235 228/242/236 208/243/237 214/244/238
f 199/233/228 214/244/238 208/243/237 201/235/230
f 234/245/239 221/231/226 220/232/227 233/228/223
f 191/227/222 219/246/240 220/232/227 196/229/224
f 192/224/219 218/247/241 219/246/240 191/227/222
f 180/213/208 217/248/242 218/247/241 192/224/219
f 56/78/76 215/77/75 217/248/242 180/213/208
f 227/249/243 229/214/209 215/77/75 216/76/74
f 221/231/226 214/244/238 199/233/228 197/230/225
f 226/241/235 214/244/238 221/231/226 234/245/239
f 201/235/230 208/243/237 223/250/33 202/236/32
f 41/11/11 225/10/10 224/251/14 10/20/19
f 235/252/244 223/250/33 208/243/237 228/242/236
f 222/60/9 235/252/244 228/242/236 9/61/59
f 70/94/92 226/241/235 234/245/239 66/92/90
f 64/91/89 65/90/88 229/214/209 227/249/243
f 66/92/90 234/245/239 233/228/223 195/93/91
f 70/94/92 9/61/59 228/242/236 226/241/235
f 219/246/240 232/226/221 233/228/223 220/232/227
f 218/247/241 231/225/220 232/226/221 219/246/240
f 217/248/242 230/215/210 231/225/220 218/247/241
f 215/77/75 229/214/209 230/215/210 217/248/242
f 235/253/244 22/35/34 206/31/30 223/34/33
f 8/7/7 21/36/35 22/35/34 235/253/244
f 7/8/8 8/7/7 235/253/244 222/9/9
f 19/30/29 20/29/28 237/254/245 236/255/246
f 236/255/246 237/254/245 239/256/247 238/257/248
f 242/258/249 243/259/250 241/260/251 240/261/252
f 244/262/253 245/263/254 243/259/250 242/258/249
f 238/257/248 239/256/247 245/263/254 244/262/253
f 38/55/54 242/258/249 240/261/252 37/56/55
f 244/262/253 242/258/249 38/55/54 213/59/58
f 238/257/248 244/262/253 213/59/58 39/58/57
f 236/255/246 238/257/248 39/58/57 40/57/56
f 19/30/29 236/255/246 40/57/56 4/3/3
f 252/264/255 96/122/120 92/126/124 253/265/256
f 254/266/257 94/125/123 88/117/115 249/116/114
f 255/267/258 90/123/121 96/122/120 252/264/255
f 253/265/256 92/126/124 94/125/123 254/266/257
f 82/138/136 84/134/132 90/123/121 255/267/258
f 76/128/126 253/265/256 254/266/257 85/137/135
f 78/140/138 255/267/258 252/264/255 97/129/127
f 85/137/135 254/266/257 249/116/114 74/136/134
f 97/129/127 252/264/255 253/265/256 76/128/126
f 155/98/96 73/114/112 248/135/133 247/195/193
f 60/84/82 246/83/81 247/195/193 72/149/147
f 73/114/112 99/113/111 250/115/113 248/135/133
f 99/113/111 74/136/134 249/116/114 250/115/113
f 153/196/194 154/96/94 246/83/81 251/82/80
f 80/139/137 82/138/136 255/267/258 78/140/138
f 266/268/259 267/269/260 257/270/261 256/271/262
f 117/86/84 63/89/87 258/272/263 259/273/264
f 271/274/265 272/275/266 260/276/267 261/277/268
f 268/278/269 269/279/270 262/280/271 263/281/272
f 263/281/272 262/280/271 264/282/273 265/283/274
f 257/270/261 265/283/274 264/282/273 256/271/262
f 54/75/73 55/74/72 267/284/260 266/285/259
f 261/277/268 260/276/267 269/279/270 268/278/269
f 117/86/84 259/273/264 270/286/275 61/85/83
f 259/273/264 258/272/263 272/275/266 271/274/265
f 153/196/194 251/82/80 274/287/276 273/288/277
f 261/277/268 273/288/277 274/287/276 271/274/265
f 271/274/265 274/287/276 270/286/275 259/273/264
f 61/85/83 270/286/275 274/287/276 251/82/80
f 268/278/269 263/281/272 275/289/278 276/290/279
f 59/81/79 276/290/279 275/289/278 57/79/77
f 276/290/279 59/81/79 153/196/194 273/288/277
f 268/278/269 276/290/279 273/288/277 261/277/268
f 265/283/274 257/270/261 277/291/280 278/292/281
f 216/76/74 278/292/281 277/291/280 227/249/243
f 278/292/281 216/76/74 57/79/77 275/289/278
f 265/283/274 278/292/281 275/289/278 263/281/272
f 55/74/72 64/91/89 279/293/282 267/284/260
f 267/269/260 279/293/282 277/291/280 257/270/261
f 64/91/89 227/249/243 277/291/280 279/293/282
f 167/294/190 151/295/187 280/296/283 281/297/284
f 151/295/187 149/298/185 282/299/285 280/296/283
f 177/300/184 147/301/181 283/302/286 284/303/287
f 177/300/184 284/303/287 282/299/285 149/298/185
f 145/304/179 159/305/178 286/306/288 285/307/289
f 145/304/179 285/307/289 283/308/286 147/309/181
f 143/310/175 141/311/174 287/312/290 288/313/291
f 143/310/175 288/313/291 286/306/288 159/305/178
f 170/314/173 140/315/172 289/316/292 290/317/293
f 170/314/173 290/317/293 287/312/290 141/311/174
f 157/318/195 152/319/191 291/320/294 292/321/295
f 295/322/196 296/323/296 289/316/292 140/315/172
f 152/319/191 167/294/190 281/297/284 291/320/294
f 157/318/195 292/321/295 296/324/296 295/325/196
f 132/164/162 294/163/161 295/326/196 140/174/172
f 131/161/159 130/160/158 294/198/161 293/327/160
f 289/316/292 296/323/296 299/328/297 297/329/298
f 296/324/296 292/321/295 298/330/299 299/331/297
f 347/332/300 348/333/301 302/334/302 300/335/303
f 348/336/301 349/337/304 301/338/305 302/339/302
f 351/340/306 352/341/307 305/342/308 303/343/309
f 352/344/307 353/345/310 304/346/311 305/347/308
f 303/343/309 305/342/308 308/348/312 306/349/313
f 305/347/308 304/346/311 307/350/314 308/351/312
f 361/352/315 309/353/316 345/354/317 373/355/318
f 363/356/319 307/350/314 331/357/320 368/358/321
f 306/349/313 308/348/312 366/359/322 362/360/323
f 310/361/324 364/362/325 367/363/326 332/364/327
f 309/353/316 311/365/328 314/366/329 312/367/330
f 311/368/328 310/361/324 313/369/331 314/370/329
f 318/371/332 319/372/333 317/373/334 315/374/335
f 319/375/333 320/376/336 316/377/337 317/378/334
f 355/379/338 356/380/339 320/376/336 319/375/333
f 354/381/340 355/382/338 319/372/333 318/371/332
f 323/383/341 322/384/342 315/374/335 317/373/334
f 321/385/343 323/386/341 317/378/334 316/377/337
f 284/303/287 283/302/286 323/386/341 321/385/343
f 283/308/286 285/307/289 322/384/342 323/383/341
f 286/306/288 288/313/291 325/387/344 324/388/345
f 286/306/288 324/388/345 322/384/342 285/307/289
f 287/312/290 290/317/293 327/389/346 326/390/347
f 287/312/290 326/390/347 325/387/344 288/313/291
f 290/317/293 289/316/292 297/329/298 327/389/346
f 349/337/304 298/330/299 328/391/348 350/392/349
f 291/320/294 328/391/348 298/330/299 292/321/295
f 307/350/314 304/346/311 330/393/350 331/357/320
f 353/345/310 301/338/305 329/394/351 357/395/352
f 308/351/312 307/350/314 363/356/319 366/396/322
f 343/397/353 370/398/354 375/399/355 360/400/356
f 356/380/339 313/369/331 333/401/357 358/402/358
f 313/369/331 310/361/324 332/364/327 333/401/357
f 321/385/343 316/377/337 335/403/359 336/404/360
f 316/377/337 320/376/336 334/405/361 335/403/359
f 284/303/287 321/385/343 336/404/360 282/299/285
f 359/406/362 354/381/340 318/371/332 342/407/363
f 376/408/364 359/406/362 342/407/363 372/409/365
f 325/387/344 326/390/347 339/410/366 338/411/367
f 326/390/347 327/389/346 340/412/368 339/410/366
f 324/388/345 325/387/344 338/411/367 337/413/369
f 351/340/306 360/400/356 344/414/370 300/335/303
f 306/349/313 362/360/323 374/415/371 346/416/372
f 309/353/316 312/367/330 341/417/373 345/354/317
f 303/343/309 306/349/313 346/416/372 343/397/353
f 365/418/374 364/362/325 310/361/324 311/368/328
f 360/400/356 375/399/355 371/419/375 344/414/370
f 369/420/376 341/417/373 359/406/362 376/408/364
f 301/338/305 349/337/304 350/392/349 329/394/351
f 299/331/297 298/330/299 349/337/304 348/336/301
f 297/329/298 299/328/297 348/333/301 347/332/300
f 303/343/309 343/397/353 360/400/356 351/340/306
f 373/355/318 345/354/317 341/417/373 369/420/376
f 346/416/372 374/415/371 370/398/354 343/397/353
f 341/417/373 312/367/330 354/381/340 359/406/362
f 320/376/336 356/380/339 358/402/358 334/405/361
f 304/346/311 353/345/310 357/395/352 330/393/350
f 312/367/330 314/366/329 355/382/338 354/381/340
f 314/370/329 313/369/331 356/380/339 355/379/338
f 302/339/302 301/338/305 353/345/310 352/344/307
f 300/335/303 302/334/302 352/341/307 351/340/306
f 322/384/342 324/388/345 337/413/369 315/374/335
f 347/332/300 340/412/368 327/389/346 297/329/298
f 340/412/368 347/332/300 300/335/303 344/414/370
f 342/407/363 318/371/332 315/374/335 337/413/369
f 366/396/322 363/356/319 364/362/325 365/418/374
f 362/360/323 366/359/322 365/421/374 361/352/315
f 363/356/319 368/358/321 367/363/326 364/362/325
f 376/408/364 372/409/365 371/419/375 375/399/355
f 374/415/371 362/360/323 361/352/315 373/355/318
f 370/398/354 374/415/371 373/355/318 369/420/376
f 369/420/376 376/408/364 375/399/355 370/398/354
f 361/352/315 365/421/374 311/365/328 309/353/316
f 372/409/365 342/407/363 337/413/369 338/411/367
f 371/419/375 372/409/365 338/411/367 339/410/366
f 344/414/370 371/419/375 339/410/366 340/412/368
f 367/363/326 368/358/321 394/422/377 393/423/378
f 336/404/360 335/403/359 388/424/379 389/425/380
f 280/296/283 282/299/285 379/426/381 377/427/382
f 368/358/321 331/357/320 384/428/383 394/422/377
f 330/393/350 357/395/352 391/429/384 383/430/385
f 329/394/351 350/392/349 390/431/386 382/432/387
f 350/392/349 328/391/348 381/433/388 390/431/386
f 381/433/388 389/425/380 388/424/379 390/431/386
f 380/434/389 379/426/381 389/425/380 381/433/388
f 281/297/284 280/296/283 377/427/382 378/435/390
f 282/299/285 336/404/360 389/425/380 379/426/381
f 328/391/348 291/320/294 380/434/389 381/433/388
f 357/395/352 329/394/351 382/432/387 391/429/384
f 331/357/320 330/393/350 383/430/385 384/428/383
f 332/364/327 367/363/326 393/423/378 385/436/391
f 358/402/358 333/401/357 386/437/392 392/438/393
f 333/401/357 332/364/327 385/436/391 386/437/392
f 291/320/294 281/297/284 378/435/390 380/434/389
f 334/405/361 387/439/394 388/424/379 335/403/359
f 382/432/387 390/431/386 388/424/379 387/439/394
f 387/439/394 334/405/361 358/402/358 392/438/393
f 391/429/384 382/432/387 387/439/394 392/438/393
f 383/430/385 391/429/384 392/438/393 386/437/392
f 384/428/383 385/436/391 393/423/378 394/422/377
f 378/435/390 377/427/382 379/426/381 380/434/389
f 383/430/385 386/437/392 385/436/391 384/428/383
f 395/440/395 397/441/396 398/442/397 396/443/398
f 395/440/395 399/444/399 400/445/400 397/441/396
f 399/444/399 401/446/401 402/447/402 400/445/400
f 401/446/401 423/448/403 581/449/404 579/450/405
f 581/451/404 224/452/14 11/453/13 424/454/406
f 425/455/407 12/456/18 13/457/17 426/458/408
f 426/458/408 13/457/17 10/459/19 423/448/403
f 427/460/409 15/461/21 12/456/18 425/455/407
f 427/460/409 428/462/410 16/463/22 15/461/21
f 428/462/410 429/464/411 18/465/24 16/463/22
f 404/466/412 406/467/413 407/468/414 405/469/415
f 396/443/398 398/442/397 406/467/413 404/466/412
f 563/470/416 580/471/417 559/472/418 557/473/419
f 409/474/420 411/475/421 410/476/422 408/477/423
f 413/478/424 26/42/41 25/41/40 414/479/425
f 569/480/426 568/481/427 412/482/428 416/483/429
f 32/47/46 28/50/49 415/484/430 417/485/431
f 564/486/432 413/478/424 414/479/425 567/487/433
f 25/41/40 32/47/46 417/485/431 414/479/425
f 567/487/433 569/480/426 416/483/429 410/476/422
f 408/477/423 418/488/434 400/445/400 402/447/402
f 408/477/423 410/476/422 416/483/429 418/488/434
f 418/488/434 419/489/435 397/441/396 400/445/400
f 416/483/429 412/482/428 419/489/435 418/488/434
f 28/50/49 37/56/55 420/490/436 415/484/430
f 412/482/428 421/491/437 422/492/438 419/489/435
f 568/481/427 415/484/430 420/490/436 570/493/439
f 398/442/397 397/441/396 419/489/435 422/492/438
f 404/466/412 405/469/415 429/464/411 428/462/410
f 396/443/398 404/466/412 428/462/410 427/460/409
f 396/443/398 427/460/409 425/455/407 395/440/395
f 399/444/399 426/458/408 423/448/403 401/446/401
f 395/440/395 425/455/407 426/458/408 399/444/399
f 579/494/405 581/451/404 424/454/406 403/495/440
f 68/496/60 48/497/63 430/498/441 444/499/442
f 193/500/64 50/501/67 431/502/443 551/503/444
f 181/504/68 52/505/71 432/506/445 542/507/446
f 52/505/71 54/508/73 433/509/447 432/506/445
f 573/510/448 435/511/449 434/512/450 572/513/451
f 435/511/449 437/514/452 436/515/453 434/512/450
f 605/516/454 439/517/455 438/518/456 600/519/457
f 490/520/458 63/89/87 62/88/86 491/521/459
f 433/509/447 440/522/460 441/523/461 432/506/445
f 551/503/444 552/524/462 442/525/463 430/498/441
f 445/526/464 444/499/442 430/498/441 442/525/463
f 403/495/440 424/454/406 444/499/442 445/526/464
f 11/453/13 68/496/60 444/499/442 424/454/406
f 542/507/446 432/506/445 441/523/461 541/527/465
f 516/528/466 517/529/467 446/530/468 436/515/453
f 480/531/469 475/532/470 450/533/471 461/534/472
f 486/535/473 476/536/474 452/537/475 473/538/476
f 476/536/474 477/539/477 454/540/478 452/537/475
f 477/539/477 478/541/479 456/542/480 454/540/478
f 478/541/479 479/543/481 458/544/482 456/542/480
f 474/545/483 480/531/469 461/534/472 448/546/484
f 604/547/485 481/548/486 463/549/487 603/550/488
f 479/543/481 482/551/489 464/552/490 458/544/482
f 485/553/491 482/551/489 465/554/492 471/555/493
f 484/556/494 483/557/495 467/558/496 469/559/497
f 481/548/486 484/556/494 469/559/497 463/549/487
f 483/557/495 485/553/491 471/555/493 467/558/496
f 475/532/470 486/535/473 473/538/476 450/533/471
f 451/560/498 472/561/499 486/535/473 475/532/470
f 466/562/500 470/563/501 485/553/491 483/557/495
f 462/564/502 468/565/503 484/556/494 481/548/486
f 468/565/503 466/562/500 483/557/495 484/556/494
f 470/563/501 464/552/490 482/551/489 485/553/491
f 459/566/504 465/554/492 482/551/489 479/543/481
f 602/567/505 462/564/502 481/548/486 604/547/485
f 449/568/506 460/569/507 480/531/469 474/545/483
f 457/570/508 459/566/504 479/543/481 478/541/479
f 455/571/509 457/570/508 478/541/479 477/539/477
f 453/572/510 455/571/509 477/539/477 476/536/474
f 453/572/510 476/536/474 486/535/473 472/561/499
f 460/569/507 451/560/498 475/532/470 480/531/469
f 468/565/503 488/573/511 487/574/512 466/562/500
f 462/564/502 489/575/513 488/573/511 468/565/503
f 488/573/511 116/145/143 115/144/142 487/574/512
f 489/575/513 118/146/144 116/145/143 488/573/511
f 439/517/455 490/520/458 491/521/459 438/518/456
f 492/576/514 121/148/146 118/146/144 489/575/513
f 491/521/459 62/88/86 121/148/146 492/576/514
f 447/577/515 438/518/456 491/521/459 492/576/514
f 164/150/148 123/153/151 493/578/516 526/579/517
f 123/153/151 125/155/153 494/580/518 493/578/516
f 125/155/153 127/157/155 495/581/519 494/580/518
f 127/157/155 129/159/157 496/582/520 495/581/519
f 129/159/157 131/161/159 497/583/521 496/582/520
f 293/162/160 133/165/163 498/584/522 639/585/523
f 168/166/164 135/169/167 499/586/524 529/587/525
f 135/169/167 137/171/169 500/588/526 499/586/524
f 138/172/170 501/589/527 500/588/526 137/171/169
f 26/42/41 413/478/424 501/589/527 138/172/170
f 529/587/525 530/590/528 502/591/529 498/584/522
f 499/586/524 504/592/530 505/593/531 503/594/532
f 520/595/533 506/596/534 507/597/535 521/598/536
f 506/596/534 508/599/537 509/600/538 507/597/535
f 532/601/539 510/602/540 511/603/541 537/604/542
f 510/602/540 512/605/543 513/606/544 511/603/541
f 527/607/545 518/608/546 514/609/547 528/610/548
f 489/575/513 462/564/502 447/577/515 492/576/514
f 600/519/457 601/611/549 517/529/467 516/528/466
f 437/514/452 515/612/550 516/528/466 436/515/453
f 601/611/549 447/577/515 462/564/502 602/567/505
f 448/546/484 461/534/472 446/530/468 517/529/467
f 518/608/546 497/583/521 519/613/551 514/609/547
f 639/614/523 640/615/552 519/613/551 497/583/521
f 504/592/530 520/595/533 521/598/536 505/593/531
f 518/608/546 536/616/553 496/582/520 497/583/521
f 495/581/519 533/617/554 523/618/555 494/580/518
f 494/580/518 523/618/555 522/619/556 493/578/516
f 466/562/500 525/620/557 522/619/556 470/563/501
f 115/144/142 164/150/148 526/579/517 487/574/512
f 466/562/500 487/574/512 526/579/517 525/620/557
f 493/578/516 522/619/556 525/620/557 526/579/517
f 495/581/519 496/582/520 536/616/553 533/617/554
f 512/605/543 527/607/545 528/610/548 513/606/544
f 499/586/524 503/594/532 530/590/528 529/587/525
f 133/165/163 168/166/164 529/587/525 498/584/522
f 522/619/556 523/618/555 464/552/490 470/563/501
f 523/618/555 533/617/554 531/621/558 464/552/490
f 464/552/490 531/621/558 535/622/559 458/544/482
f 458/544/482 535/622/559 534/623/560 456/542/480
f 527/607/545 524/624/561 536/616/553 518/608/546
f 536/616/553 524/624/561 531/621/558 533/617/554
f 508/625/537 532/601/539 537/604/542 509/626/538
f 538/627/562 539/628/563 534/623/560 535/622/559
f 512/605/543 510/602/540 539/628/563 538/627/562
f 524/624/561 538/627/562 535/622/559 531/621/558
f 527/607/545 512/605/543 538/627/562 524/624/561
f 436/515/453 446/530/468 540/629/564 434/512/450
f 585/630/565 586/631/566 541/527/465 441/523/461
f 547/632/567 542/507/446 541/527/465 548/633/568
f 187/634/213 181/504/68 542/507/446 547/632/567
f 473/538/476 545/635/569 543/636/570 450/533/471
f 452/537/475 544/637/571 545/635/569 473/538/476
f 450/533/471 543/636/570 446/530/468 461/534/472
f 456/542/480 534/623/560 546/638/572 454/540/478
f 454/540/478 546/638/572 544/637/571 452/537/475
f 50/501/67 187/634/213 547/632/567 431/502/443
f 431/502/443 547/632/567 548/633/568 443/639/573
f 446/530/468 543/636/570 550/640/574 540/629/564
f 586/631/566 587/641/575 548/633/568 541/527/465
f 587/641/575 588/642/576 443/639/573 548/633/568
f 545/635/569 549/643/577 550/640/574 543/636/570
f 431/502/443 443/639/573 552/524/462 551/503/444
f 48/497/63 193/500/64 551/503/444 430/498/441
f 588/642/576 589/644/578 552/524/462 443/639/573
f 544/637/571 553/645/579 549/643/577 545/635/569
f 544/637/571 546/638/572 554/646/580 553/645/579
f 578/647/581 577/648/582 553/645/579 554/646/580
f 546/638/572 555/649/583 556/650/584 554/646/580
f 534/623/560 539/628/563 555/649/583 546/638/572
f 510/602/540 532/601/539 555/649/583 539/628/563
f 555/649/583 532/601/539 558/651/585 556/650/584
f 506/596/534 557/473/419 559/472/418 508/599/537
f 508/625/537 559/652/418 558/651/585 532/601/539
f 504/592/530 560/653/586 561/654/587 520/595/533
f 520/595/533 561/654/587 557/473/419 506/596/534
f 499/586/524 500/588/526 560/653/586 504/592/530
f 562/655/588 563/470/416 557/473/419 561/654/587
f 411/475/421 409/474/420 563/470/416 562/655/588
f 562/655/588 566/656/589 564/486/432 411/475/421
f 561/654/587 560/653/586 566/656/589 562/655/588
f 412/482/428 568/481/427 570/493/439 421/491/437
f 414/479/425 417/485/431 569/480/426 567/487/433
f 411/475/421 564/486/432 567/487/433 410/476/422
f 417/485/431 415/484/430 568/481/427 569/480/426
f 501/589/527 413/478/424 564/486/432 566/656/589
f 500/588/526 501/589/527 566/656/589 560/653/586
f 582/657/590 571/658/591 565/659/592 584/660/593
f 556/650/584 558/651/585 565/659/592 571/658/591
f 590/661/594 589/644/578 577/648/582 578/647/581
f 549/643/577 553/645/579 577/648/582 576/662/595
f 550/640/574 549/643/577 576/662/595 575/663/596
f 540/629/564 550/640/574 575/663/596 574/664/597
f 434/512/450 540/629/564 574/664/597 572/513/451
f 583/665/598 573/510/448 572/513/451 585/630/565
f 578/647/581 554/646/580 556/650/584 571/658/591
f 582/657/590 590/661/594 578/647/581 571/658/591
f 558/651/585 559/652/418 580/666/417 565/659/592
f 423/448/403 10/459/19 224/667/14 581/449/404
f 591/668/599 584/660/593 565/659/592 580/666/417
f 579/494/405 403/495/440 584/660/593 591/668/599
f 445/526/464 442/525/463 590/661/594 582/657/590
f 440/522/460 583/665/598 585/630/565 441/523/461
f 442/525/463 552/524/462 589/644/578 590/661/594
f 445/526/464 582/657/590 584/660/593 403/495/440
f 576/662/595 577/648/582 589/644/578 588/642/576
f 575/663/596 576/662/595 588/642/576 587/641/575
f 574/664/597 575/663/596 587/641/575 586/631/566
f 572/513/451 574/664/597 586/631/566 585/630/565
f 591/669/599 580/471/417 563/470/416 409/474/420
f 402/447/402 591/669/599 409/474/420 408/477/423
f 401/446/401 579/450/405 591/669/599 402/447/402
f 406/467/413 592/670/600 593/671/601 407/468/414
f 592/670/600 594/672/602 595/673/603 593/671/601
f 596/674/604 240/261/252 241/260/251 597/675/605
f 598/676/606 596/674/604 597/675/605 599/677/607
f 594/672/602 598/676/606 599/677/607 595/673/603
f 420/490/436 37/56/55 240/261/252 596/674/604
f 598/676/606 570/493/439 420/490/436 596/674/604
f 594/672/602 421/491/437 570/493/439 598/676/606
f 592/670/600 422/492/438 421/491/437 594/672/602
f 406/467/413 398/442/397 422/492/438 592/670/600
f 606/678/608 607/679/609 467/558/496 471/555/493
f 608/680/610 603/550/488 463/549/487 469/559/497
f 609/681/611 606/678/608 471/555/493 465/554/492
f 607/679/609 608/680/610 469/559/497 467/558/496
f 457/570/508 609/681/611 465/554/492 459/566/504
f 451/560/498 460/569/507 608/680/610 607/679/609
f 453/572/510 472/561/499 606/678/608 609/681/611
f 460/569/507 449/568/506 603/550/488 608/680/610
f 472/561/499 451/560/498 607/679/609 606/678/608
f 517/529/467 601/611/549 602/567/505 448/546/484
f 438/518/456 447/577/515 601/611/549 600/519/457
f 448/546/484 602/567/505 604/547/485 474/545/483
f 474/545/483 604/547/485 603/550/488 449/568/506
f 515/612/550 605/516/454 600/519/457 516/528/466
f 455/571/509 453/572/510 609/681/611 457/570/508
f 266/268/259 256/271/262 610/682/612 615/683/613
f 490/520/458 611/684/614 258/272/263 63/89/87
f 618/685/615 612/686/616 260/276/267 272/275/266
f 616/687/617 613/688/618 262/280/271 269/279/270
f 613/688/618 614/689/619 264/282/273 262/280/271
f 610/682/612 256/271/262 264/282/273 614/689/619
f 54/508/73 266/690/259 615/691/613 433/509/447
f 612/686/616 616/687/617 269/279/270 260/276/267
f 490/520/458 439/517/455 617/692/620 611/684/614
f 611/684/614 618/685/615 272/275/266 258/272/263
f 515/612/550 619/693/621 620/694/622 605/516/454
f 612/686/616 618/685/615 620/694/622 619/693/621
f 618/685/615 611/684/614 617/692/620 620/694/622
f 439/517/455 605/516/454 620/694/622 617/692/620
f 616/687/617 622/695/623 621/696/624 613/688/618
f 437/514/452 435/511/449 621/696/624 622/695/623
f 622/695/623 619/693/621 515/612/550 437/514/452
f 616/687/617 612/686/616 619/693/621 622/695/623
f 614/689/619 624/697/625 623/698/626 610/682/612
f 573/510/448 583/665/598 623/698/626 624/697/625
f 624/697/625 621/696/624 435/511/449 573/510/448
f 614/689/619 613/688/618 621/696/624 624/697/625
f 433/509/447 615/691/613 625/699/627 440/522/460
f 615/683/613 610/682/612 623/698/626 625/699/627
f 440/522/460 625/699/627 623/698/626 583/665/598
f 528/700/548 627/701/628 626/702/629 513/703/544
f 513/703/544 626/702/629 628/704/630 511/705/541
f 537/706/542 630/707/631 629/708/632 509/709/538
f 537/706/542 511/705/541 628/704/630 630/707/631
f 507/710/535 631/711/633 632/712/634 521/713/536
f 507/710/535 509/714/538 629/715/632 631/711/633
f 505/716/531 634/717/635 633/718/636 503/719/532
f 505/716/531 521/713/536 632/712/634 634/717/635
f 530/720/528 636/721/637 635/722/638 502/723/529
f 530/720/528 503/719/532 633/718/636 636/721/637
f 519/724/551 638/725/639 637/726/640 514/727/547
f 640/728/552 502/723/529 635/722/638 641/729/641
f 514/727/547 637/726/640 627/701/628 528/700/548
f 519/724/551 640/730/552 641/731/641 638/725/639
f 498/584/522 502/591/529 640/732/552 639/585/523
f 131/161/159 293/327/160 639/614/523 497/583/521
f 635/722/638 642/733/642 644/734/643 641/729/641
f 641/731/641 644/735/643 643/736/644 638/725/639
f 692/737/645 645/738/646 647/739/647 693/740/648
f 693/741/648 647/742/647 646/743/649 694/744/650
f 696/745/651 648/746/652 650/747/653 697/748/654
f 697/749/654 650/750/653 649/751/655 698/752/656
f 648/746/652 651/753/657 653/754/658 650/747/653
f 650/750/653 653/755/658 652/756/659 649/751/655
f 706/757/660 718/758/661 690/759/662 654/760/663
f 708/761/664 713/762/665 676/763/666 652/756/659
f 651/753/657 707/764/667 711/765/668 653/754/658
f 655/766/669 677/767/670 712/768/671 709/769/672
f 654/760/663 657/770/673 659/771/674 656/772/675
f 656/773/675 659/774/674 658/775/676 655/766/669
f 663/776/677 660/777/678 662/778/679 664/779/680
f 664/780/680 662/781/679 661/782/681 665/783/682
f 700/784/683 664/780/680 665/783/682 701/785/684
f 699/786/685 663/776/677 664/779/680 700/787/683
f 668/788/686 662/778/679 660/777/678 667/789/687
f 666/790/688 661/782/681 662/781/679 668/791/686
f 630/707/631 666/790/688 668/791/686 629/708/632
f 629/715/632 668/788/686 667/789/687 631/711/633
f 632/712/634 669/792/689 670/793/690 634/717/635
f 632/712/634 631/711/633 667/789/687 669/792/689
f 633/718/636 671/794/691 672/795/692 636/721/637
f 633/718/636 634/717/635 670/793/690 671/794/691
f 636/721/637 672/795/692 642/733/642 635/722/638
f 694/744/650 695/796/693 673/797/694 643/736/644
f 637/726/640 638/725/639 643/736/644 673/797/694
f 652/756/659 676/763/666 675/798/695 649/751/655
f 698/752/656 702/799/696 674/800/697 646/743/649
f 653/755/658 711/801/668 708/761/698 652/756/659
f 688/802/699 705/803/700 720/804/701 715/805/702
f 701/785/684 703/806/703 678/807/704 658/775/676
f 658/775/676 678/807/704 677/767/670 655/766/669
f 666/790/688 681/808/705 680/809/706 661/782/681
f 661/782/681 680/809/706 679/810/707 665/783/682
f 630/707/631 628/704/630 681/808/705 666/790/688
f 704/811/708 687/812/709 663/776/677 699/786/685
f 721/813/710 717/814/711 687/812/709 704/811/708
f 670/793/690 683/815/712 684/816/713 671/794/691
f 671/794/691 684/816/713 685/817/714 672/795/692
f 669/792/689 682/818/715 683/815/712 670/793/690
f 696/745/651 645/738/646 689/819/716 705/803/700
f 651/753/657 691/820/717 719/821/718 707/764/667
f 654/760/663 690/759/662 686/822/719 657/770/673
f 648/746/652 688/802/699 691/820/717 651/753/657
f 710/823/720 656/773/675 655/766/669 709/769/672
f 705/803/700 689/819/716 716/824/721 720/804/701
f 714/825/722 721/813/710 704/811/708 686/822/719
f 646/743/649 674/800/697 695/796/693 694/744/650
f 644/735/643 693/741/648 694/744/650 643/736/644
f 642/733/642 692/737/645 693/740/648 644/734/643
f 648/746/652 696/745/651 705/803/700 688/802/699
f 718/758/661 714/825/722 686/822/719 690/759/662
f 691/820/717 688/802/699 715/805/702 719/821/718
f 686/822/719 704/811/708 699/786/685 657/770/673
f 665/783/682 679/810/707 703/806/703 701/785/684
f 649/751/655 675/798/695 702/799/696 698/752/656
f 657/770/673 699/786/685 700/787/683 659/771/674
f 659/774/674 700/784/683 701/785/684 658/775/676
f 647/742/647 697/749/654 698/752/656 646/743/649
f 645/738/646 696/745/651 697/748/654 647/739/647
f 667/789/687 660/777/678 682/818/715 669/792/689
f 692/737/645 642/733/642 672/795/692 685/817/714
f 685/817/714 689/819/716 645/738/646 692/737/645
f 687/812/709 682/818/715 660/777/678 663/776/677
f 711/801/668 710/823/720 709/769/672 708/761/664
f 707/764/667 706/757/660 710/826/720 711/765/668
f 708/761/664 709/769/672 712/768/671 713/762/665
f 721/813/710 720/804/701 716/824/721 717/814/711
f 719/821/718 718/758/661 706/757/660 707/764/667
f 715/805/702 714/825/722 718/758/661 719/821/718
f 714/825/722 715/805/702 720/804/701 721/813/710
f 706/757/660 654/760/663 656/772/675 710/826/720
f 717/814/711 683/815/712 682/818/715 687/812/709
f 716/824/721 684/816/713 683/815/712 717/814/711
f 689/819/716 685/817/714 684/816/713 716/824/721
f 712/768/671 738/827/723 739/828/724 713/762/665
f 681/808/705 734/829/725 733/830/726 680/809/706
f 626/702/629 722/831/727 724/832/728 628/704/630
f 713/762/665 739/828/724 729/833/729 676/763/666
f 675/798/695 728/834/730 736/835/731 702/799/696
f 674/800/697 727/836/732 735/837/733 695/796/693
f 695/796/693 735/837/733 726/838/734 673/797/694
f 726/838/734 735/837/733 733/830/726 734/829/725
f 725/839/735 726/838/734 734/829/725 724/832/728
f 627/701/628 723/840/736 722/831/727 626/702/629
f 628/704/630 724/832/728 734/829/725 681/808/705
f 673/797/694 726/838/734 725/839/735 637/726/640
f 702/799/696 736/835/731 727/836/732 674/800/697
f 676/763/666 729/833/729 728/834/730 675/798/695
f 677/767/670 730/841/737 738/827/723 712/768/671
f 703/806/703 737/842/738 731/843/739 678/807/704
f 678/807/704 731/843/739 730/841/737 677/767/670
f 637/726/640 725/839/735 723/840/736 627/701/628
f 679/810/707 680/809/706 733/830/726 732/844/740
f 727/836/732 732/844/740 733/830/726 735/837/733
f 732/844/740 737/842/738 703/806/703 679/810/707
f 736/835/731 737/842/738 732/844/740 727/836/732
f 728/834/730 731/843/739 737/842/738 736/835/731
f 729/833/729 739/828/724 738/827/723 730/841/737
f 723/840/736 725/839/735 724/832/728 722/831/727
f 728/834/730 729/833/729 730/841/737 731/843/739
f 744/845/741 18/846/741 429/847/741 405/848/741
f 245/849/741 740/850/741 241/851/741 243/852/741
f 241/851/741 740/850/741 599/853/741 597/854/741
f 239/855/741 741/856/741 740/850/741 245/849/741
f 740/850/741 741/856/741 595/857/741 599/853/741
f 237/858/741 742/859/741 741/856/741 239/855/741
f 741/856/741 742/859/741 593/860/741 595/857/741
f 20/861/741 743/862/741 742/859/741 237/858/741
f 742/859/741 743/862/741 407/863/741 593/860/741
f 17/864/741 47/865/741 18/846/741 744/845/741
f 743/862/741 744/845/741 405/848/741 407/863/741
f 20/861/741 17/864/741 744/845/741 743/862/741
