# Blender 4.0.2
# www.blender.org
o bulldog_clip
v 0.000602 0.000420 -0.000000
v 0.000898 0.001434 -0.000000
v 0.006446 0.020484 0.005032
v 0.002083 0.005504 0.016612
v 0.006446 0.020484 -0.005032
v 0.005210 0.016242 0.006408
v 0.004006 0.012106 0.008340
v 0.002877 0.008231 0.011638
v 0.006416 0.020381 0.006814
v 0.002083 0.005504 -0.016612
v 0.010891 0.035747 0.005032
v 0.012094 0.039879 0.000000
v 0.011351 0.037328 0.004649
v 0.011742 0.038669 0.003560
v 0.012003 0.039564 0.001931
v 0.005210 0.016242 -0.006408
v 0.004006 0.012106 -0.008340
v 0.002877 0.008231 -0.011638
v 0.000480 0.000000 0.000000
v 0.006446 0.020486 -0.000000
v 0.002083 0.005504 -0.000000
v 0.005210 0.016242 0.000000
v 0.004006 0.012106 0.000000
v 0.002877 0.008231 0.000000
v 0.000898 0.001434 0.004575
v 0.011310 0.037186 0.000000
v 0.009767 0.031889 0.005032
v 0.010258 0.033574 0.000000
v 0.010329 0.033818 0.005032
v 0.011047 0.036283 0.001629
v 0.011240 0.036944 0.000941
v 0.010784 0.035380 0.001881
v 0.011742 0.038669 0.000000
v 0.010521 0.034477 0.001629
v 0.009767 0.031889 0.000000
v 0.010329 0.033816 0.000941
v 0.006416 0.020381 -0.006814
v 0.010891 0.035747 -0.005032
v 0.000480 0.000000 0.015119
v 0.000898 0.001434 0.016612
v 0.000602 0.000420 0.016175
v 0.011351 0.037328 -0.004649
v 0.011742 0.038669 -0.003560
v 0.012003 0.039564 -0.001931
v 0.002083 0.005504 0.004575
v 0.005210 0.016242 0.004575
v 0.004006 0.012106 0.004575
v 0.002877 0.008231 0.004575
v 0.000480 0.000000 0.004575
v 0.000602 0.000420 0.004575
v 0.000898 0.001434 -0.004575
v 0.009767 0.031889 -0.005032
v 0.010329 0.033818 -0.005032
v 0.011047 0.036283 -0.001629
v 0.011240 0.036944 -0.000941
v 0.010784 0.035380 -0.001881
v 0.010521 0.034477 -0.001629
v 0.010329 0.033816 -0.000941
v 0.000480 0.000000 -0.015119
v 0.000898 0.001434 -0.016612
v 0.000602 0.000420 -0.016175
v 0.002083 0.005504 -0.004575
v 0.005210 0.016242 -0.004575
v 0.004006 0.012106 -0.004575
v 0.002877 0.008231 -0.004575
v 0.000480 0.000000 -0.004575
v 0.000602 0.000420 -0.004575
v 0.000124 0.000559 0.000000
v 0.000419 0.001573 0.000000
v 0.005967 0.020623 0.005032
v 0.001605 0.005644 0.016612
v 0.005967 0.020623 -0.005032
v 0.004732 0.016381 0.006408
v 0.003527 0.012245 0.008340
v 0.002399 0.008371 0.011638
v 0.005937 0.020520 0.006814
v 0.001605 0.005644 -0.016612
v 0.010412 0.035887 0.005032
v 0.011616 0.040018 0.000000
v 0.010873 0.037468 0.004649
v 0.011263 0.038808 0.003560
v 0.011524 0.039704 0.001931
v 0.004732 0.016381 -0.006408
v 0.003527 0.012245 -0.008340
v 0.002399 0.008371 -0.011638
v 0.005968 0.020625 -0.000000
v 0.001605 0.005644 0.000000
v 0.004732 0.016381 0.000000
v 0.003527 0.012245 0.000000
v 0.002399 0.008371 0.000000
v 0.000419 0.001573 0.004575
v 0.010832 0.037326 0.000000
v 0.009289 0.032028 0.005032
v 0.009780 0.033714 0.000000
v 0.009851 0.033957 0.005032
v 0.010569 0.036423 0.001629
v 0.010761 0.037084 0.000941
v 0.010306 0.035520 0.001881
v 0.011263 0.038808 0.000000
v 0.010043 0.034617 0.001629
v 0.009289 0.032028 0.000000
v 0.009850 0.033956 0.000941
v 0.005937 0.020520 -0.006814
v 0.010412 0.035887 -0.005032
v 0.000419 0.001573 0.016612
v 0.000124 0.000559 0.016175
v 0.010873 0.037468 -0.004649
v 0.011263 0.038808 -0.003560
v 0.011524 0.039704 -0.001931
v 0.001605 0.005644 0.004575
v 0.004732 0.016381 0.004575
v 0.003527 0.012245 0.004575
v 0.002399 0.008371 0.004575
v 0.000124 0.000559 0.004575
v 0.000419 0.001573 -0.004575
v 0.009289 0.032028 -0.005032
v 0.009851 0.033957 -0.005032
v 0.010569 0.036423 -0.001629
v 0.010761 0.037084 -0.000941
v 0.010306 0.035520 -0.001881
v 0.010043 0.034617 -0.001629
v 0.009850 0.033956 -0.000941
v 0.000419 0.001573 -0.016612
v 0.000124 0.000559 -0.016175
v 0.001605 0.005644 -0.004575
v 0.004732 0.016381 -0.004575
v 0.003527 0.012245 -0.004575
v 0.002399 0.008371 -0.004575
v 0.000124 0.000559 -0.004575
v -0.000602 0.000420 -0.000000
v -0.000898 0.001434 -0.000000
v -0.006446 0.020484 0.005032
v -0.002083 0.005504 0.016612
v -0.006446 0.020484 -0.005032
v -0.005210 0.016242 0.006408
v -0.004006 0.012106 0.008340
v -0.002877 0.008231 0.011638
v -0.006416 0.020381 0.006814
v -0.002083 0.005504 -0.016612
v -0.010891 0.035747 0.005032
v -0.011351 0.037328 0.004649
v -0.011742 0.038669 0.003560
v -0.012003 0.039564 0.001931
v -0.005210 0.016242 -0.006408
v -0.012094 0.039879 0.000000
v -0.004006 0.012106 -0.008340
v -0.002877 0.008231 -0.011638
v -0.000480 0.000000 0.000000
v -0.006446 0.020486 -0.000000
v -0.002083 0.005504 -0.000000
v -0.005210 0.016242 0.000000
v -0.004006 0.012106 0.000000
v -0.002877 0.008231 0.000000
v -0.000898 0.001434 0.004575
v -0.011310 0.037186 0.000000
v -0.009767 0.031889 0.005032
v -0.010258 0.033574 0.000000
v -0.010329 0.033818 0.005032
v -0.011047 0.036283 0.001629
v -0.011240 0.036944 0.000941
v -0.010784 0.035380 0.001881
v -0.011742 0.038669 0.000000
v -0.010521 0.034477 0.001629
v -0.009767 0.031889 0.000000
v -0.010329 0.033816 0.000941
v -0.006416 0.020381 -0.006814
v -0.010891 0.035747 -0.005032
v -0.000480 0.000000 0.015119
v -0.000898 0.001434 0.016612
v -0.000602 0.000420 0.016175
v -0.011351 0.037328 -0.004649
v -0.011742 0.038669 -0.003560
v -0.012003 0.039564 -0.001931
v -0.002083 0.005504 0.004575
v -0.005210 0.016242 0.004575
v -0.004006 0.012106 0.004575
v -0.002877 0.008231 0.004575
v -0.000480 0.000000 0.004575
v -0.000602 0.000420 0.004575
v -0.000898 0.001434 -0.004575
v -0.009767 0.031889 -0.005032
v -0.010329 0.033818 -0.005032
v -0.011047 0.036283 -0.001629
v -0.011240 0.036944 -0.000941
v -0.010784 0.035380 -0.001881
v -0.010521 0.034477 -0.001629
v -0.010329 0.033816 -0.000941
v -0.000480 0.000000 -0.015119
v -0.000898 0.001434 -0.016612
v -0.000602 0.000420 -0.016175
v -0.002083 0.005504 -0.004575
v -0.005210 0.016242 -0.004575
v -0.004006 0.012106 -0.004575
v -0.002877 0.008231 -0.004575
v -0.000480 0.000000 -0.004575
v -0.000602 0.000420 -0.004575
v -0.000124 0.000559 0.000000
v -0.000419 0.001573 0.000000
v -0.005967 0.020623 0.005032
v -0.001605 0.005644 0.016612
v -0.005967 0.020623 -0.005032
v -0.004732 0.016381 0.006408
v -0.003527 0.012245 0.008340
v -0.002399 0.008371 0.011638
v -0.005937 0.020520 0.006814
v -0.001605 0.005644 -0.016612
v -0.010412 0.035887 0.005032
v -0.011616 0.040018 0.000000
v -0.010873 0.037468 0.004649
v -0.011263 0.038808 0.003560
v -0.011524 0.039704 0.001931
v -0.004732 0.016381 -0.006408
v -0.003527 0.012245 -0.008340
v -0.002399 0.008371 -0.011638
v -0.000001 0.000139 0.000000
v -0.005968 0.020625 -0.000000
v -0.001605 0.005644 0.000000
v -0.004732 0.016381 0.000000
v -0.003527 0.012245 0.000000
v -0.002399 0.008371 0.000000
v -0.000419 0.001573 0.004575
v -0.010832 0.037326 0.000000
v -0.009289 0.032028 0.005032
v -0.009780 0.033714 0.000000
v -0.009851 0.033957 0.005032
v -0.010569 0.036423 0.001629
v -0.010761 0.037084 0.000941
v -0.010306 0.035520 0.001881
v -0.011263 0.038808 0.000000
v -0.010043 0.034617 0.001629
v -0.009289 0.032028 0.000000
v -0.009850 0.033956 0.000941
v -0.005937 0.020520 -0.006814
v -0.010412 0.035887 -0.005032
v -0.000001 0.000139 0.015119
v -0.000419 0.001573 0.016612
v -0.000124 0.000559 0.016175
v -0.010873 0.037468 -0.004649
v -0.011263 0.038808 -0.003560
v -0.011524 0.039704 -0.001931
v -0.001605 0.005644 0.004575
v -0.004732 0.016381 0.004575
v -0.003527 0.012245 0.004575
v -0.002399 0.008371 0.004575
v -0.000001 0.000139 0.004575
v -0.000124 0.000559 0.004575
v -0.000419 0.001573 -0.004575
v -0.009289 0.032028 -0.005032
v -0.009851 0.033957 -0.005032
v -0.010569 0.036423 -0.001629
v -0.010761 0.037084 -0.000941
v -0.010306 0.035520 -0.001881
v -0.010043 0.034617 -0.001629
v -0.009850 0.033956 -0.000941
v -0.000001 0.000139 -0.015119
v -0.000419 0.001573 -0.016612
v -0.000124 0.000559 -0.016175
v -0.001605 0.005644 -0.004575
v -0.004732 0.016381 -0.004575
v -0.003527 0.012245 -0.004575
v -0.002399 0.008371 -0.004575
v -0.000001 0.000139 -0.004575
v -0.000124 0.000559 -0.004575
v 0.000000 0.018980 -0.016612
v 0.000000 0.018980 0.016612
v 0.002312 0.019257 -0.016612
v 0.002312 0.019257 0.016612
v 0.004534 0.020040 -0.016612
v 0.004534 0.020040 0.016612
v 0.006039 0.021129 -0.016612
v 0.006039 0.021129 0.016612
v 0.007937 0.018753 -0.016612
v 0.007937 0.018753 0.016612
v 0.008858 0.016530 -0.016612
v 0.008858 0.016530 0.016612
v 0.009172 0.014145 -0.016612
v 0.009172 0.014145 0.016612
v 0.008858 0.011760 -0.016612
v 0.008858 0.011760 0.016612
v 0.007937 0.009537 -0.016612
v 0.007937 0.009537 0.016612
v 0.006473 0.007628 -0.016612
v 0.006473 0.007628 0.016612
v 0.004564 0.006163 -0.016612
v 0.004564 0.006163 0.016612
v 0.002125 0.005261 -0.016612
v 0.002125 0.005261 0.016612
v 0.006039 0.021129 -0.005021
v 0.007937 0.018753 -0.005021
v 0.008858 0.016530 -0.005021
v 0.009172 0.014145 -0.005021
v 0.006039 0.021129 0.005021
v 0.008858 0.011760 -0.005021
v 0.007937 0.018753 0.005021
v 0.007937 0.009537 -0.005021
v 0.008858 0.016530 0.005021
v 0.006473 0.007628 -0.005021
v 0.009172 0.014145 0.005021
v 0.004564 0.006163 -0.005021
v 0.008858 0.011760 0.005021
v 0.002125 0.005261 -0.005021
v 0.007937 0.009537 0.005021
v 0.006768 0.020474 -0.016612
v 0.006473 0.007628 0.005021
v 0.006768 0.020474 -0.005021
v 0.004564 0.006163 0.005021
v 0.006039 0.021129 -0.003799
v 0.002125 0.005261 0.005021
v 0.005746 0.020932 -0.004837
v 0.006768 0.020474 0.016612
v 0.006768 0.020474 0.005021
v 0.005746 0.020932 -0.003965
v 0.004534 0.020040 -0.004406
v 0.002312 0.019257 -0.004406
v 0.006039 0.021129 0.003799
v 0.000000 0.018980 -0.004406
v 0.005572 0.020805 -0.004406
v 0.005746 0.020932 0.004837
v 0.005746 0.020932 0.003965
v 0.004534 0.020040 0.004406
v 0.002312 0.019257 0.004406
v 0.000000 0.018980 0.004406
v 0.005572 0.020805 0.004406
v 0.004564 0.006163 0.000000
v 0.002125 0.005261 0.000000
v 0.006473 0.007628 0.000000
v 0.007937 0.009537 0.000000
v 0.008858 0.011760 0.000000
v 0.009172 0.014145 0.000000
v 0.008858 0.016530 0.000000
v 0.007937 0.018753 0.000000
v 0.006768 0.020474 0.000000
v 0.000000 0.018980 0.000000
v 0.006039 0.021129 0.000000
v 0.004534 0.020040 0.000000
v 0.002312 0.019257 0.000000
v 0.000000 0.018980 0.010973
v 0.002312 0.019257 0.010973
v 0.004534 0.020040 0.010973
v 0.006039 0.021129 0.010973
v 0.007937 0.018753 0.010973
v 0.008858 0.016530 0.010973
v 0.009172 0.014145 0.010973
v 0.008858 0.011760 0.010973
v 0.007937 0.009537 0.010973
v 0.006473 0.007628 0.010973
v 0.004564 0.006163 0.010973
v 0.002125 0.005261 0.010973
v 0.006768 0.020474 0.010973
v 0.000000 0.018980 -0.010973
v -0.002312 0.019257 0.016612
v 0.002312 0.019257 -0.010973
v -0.004534 0.020040 0.016612
v 0.004534 0.020040 -0.010973
v -0.006062 0.021135 0.016612
v 0.006039 0.021129 -0.010973
v -0.007937 0.018753 0.016612
v 0.007937 0.018753 -0.010973
v -0.008858 0.016530 0.016612
v 0.008858 0.016530 -0.010973
v -0.009172 0.014145 0.016612
v 0.009172 0.014145 -0.010973
v -0.008858 0.011760 0.016612
v 0.008858 0.011760 -0.010973
v -0.007937 0.009537 0.016612
v 0.007937 0.009537 -0.010973
v -0.006473 0.007628 0.016612
v 0.006473 0.007628 -0.010973
v -0.004564 0.006163 0.016612
v 0.004564 0.006163 -0.010973
v -0.002412 0.005333 0.016612
v 0.002125 0.005261 -0.010973
v 0.006768 0.020474 -0.010973
v -0.002312 0.019257 -0.016612
v -0.004534 0.020040 -0.016612
v -0.006062 0.021135 0.005021
v -0.006062 0.021135 -0.016612
v -0.007937 0.018753 0.005021
v -0.007937 0.018753 -0.016612
v -0.008858 0.016530 0.005021
v -0.008858 0.016530 -0.016612
v -0.009172 0.014145 0.005021
v -0.009172 0.014145 -0.016612
v -0.008858 0.011760 0.005021
v -0.008858 0.011760 -0.016612
v -0.007937 0.009537 0.005021
v -0.007937 0.009537 -0.016612
v -0.006473 0.007628 0.005021
v -0.006473 0.007628 -0.016612
v -0.004564 0.006163 0.005021
v -0.004564 0.006163 -0.016612
v -0.002412 0.005333 0.005021
v -0.002412 0.005333 -0.016612
v -0.006636 0.020605 0.016612
v -0.006636 0.020605 0.005021
v -0.006062 0.021135 -0.005021
v -0.007937 0.018753 -0.005021
v -0.008858 0.016530 -0.005021
v -0.006062 0.021135 0.003799
v -0.009172 0.014145 -0.005021
v -0.005769 0.020938 0.004837
v -0.005769 0.020938 0.003965
v -0.004534 0.020040 0.004406
v -0.002312 0.019257 0.004406
v -0.005595 0.020811 0.004406
v -0.004564 0.006163 0.000000
v -0.002412 0.005333 0.000000
v -0.006473 0.007628 0.000000
v -0.007937 0.009537 0.000000
v -0.008858 0.011760 0.000000
v -0.009172 0.014145 0.000000
v -0.008858 0.016530 0.000000
v -0.007937 0.018753 0.000000
v -0.006636 0.020605 0.000000
v -0.006062 0.021135 0.000000
v -0.004534 0.020040 0.000000
v -0.002312 0.019257 0.000000
v -0.002312 0.019257 0.010973
v -0.004534 0.020040 0.010973
v -0.006062 0.021135 0.010973
v -0.007937 0.018753 0.010973
v -0.008858 0.016530 0.010973
v -0.009172 0.014145 0.010973
v -0.008858 0.011760 0.010973
v -0.007937 0.009537 0.010973
v -0.006473 0.007628 0.010973
v -0.004564 0.006163 0.010973
v -0.002412 0.005333 0.010973
v -0.006636 0.020605 0.010973
v -0.008858 0.011760 -0.005021
v -0.007937 0.009537 -0.005021
v -0.006473 0.007628 -0.005021
v -0.004564 0.006163 -0.005021
v -0.002412 0.005333 -0.005021
v -0.006636 0.020605 -0.016612
v -0.006636 0.020605 -0.005021
v -0.006062 0.021135 -0.003799
v -0.005769 0.020938 -0.004837
v -0.005769 0.020938 -0.003965
v -0.004534 0.020040 -0.004406
v -0.002312 0.019257 -0.004406
v -0.005595 0.020811 -0.004406
v -0.002312 0.019257 -0.010973
v -0.004534 0.020040 -0.010973
v -0.006062 0.021135 -0.010973
v -0.007937 0.018753 -0.010973
v -0.008858 0.016530 -0.010973
v -0.009172 0.014145 -0.010973
v -0.008858 0.011760 -0.010973
v -0.007937 0.009537 -0.010973
v -0.006473 0.007628 -0.010973
v -0.004564 0.006163 -0.010973
v -0.002412 0.005333 -0.010973
v -0.006636 0.020605 -0.010973
v 0.000000 0.018729 -0.016612
v 0.000000 0.018729 0.016612
v 0.002369 0.019013 -0.016612
v 0.002369 0.019013 0.016612
v 0.004651 0.019817 -0.016612
v 0.004651 0.019817 0.016612
v 0.006022 0.020809 -0.016612
v 0.006022 0.020809 0.016612
v 0.007717 0.018634 -0.016612
v 0.007717 0.018634 0.016612
v 0.008615 0.016465 -0.016612
v 0.008615 0.016465 0.016612
v 0.008921 0.014145 -0.016612
v 0.008921 0.014145 0.016612
v 0.008615 0.011825 -0.016612
v 0.008615 0.011825 0.016612
v 0.007720 0.009662 -0.016612
v 0.007720 0.009662 0.016612
v 0.006295 0.007806 -0.016612
v 0.006295 0.007806 0.016612
v 0.004442 0.006384 -0.016612
v 0.004442 0.006384 0.016612
v 0.002039 0.005495 -0.016612
v 0.002039 0.005495 0.016612
v 0.006055 0.020801 -0.005021
v 0.007717 0.018634 -0.005021
v 0.008615 0.016465 -0.005021
v 0.008921 0.014145 -0.005021
v 0.006055 0.020801 0.005021
v 0.008615 0.011825 -0.005021
v 0.007717 0.018634 0.005021
v 0.007720 0.009662 -0.005021
v 0.008615 0.016465 0.005021
v 0.006295 0.007806 -0.005021
v 0.008921 0.014145 0.005021
v 0.004442 0.006384 -0.005021
v 0.008615 0.011825 0.005021
v 0.002039 0.005495 -0.005021
v 0.007720 0.009662 0.005021
v 0.006579 0.020309 -0.016612
v 0.006295 0.007806 0.005021
v 0.006572 0.020317 -0.005021
v 0.004442 0.006384 0.005021
v 0.006184 0.020927 -0.003800
v 0.002039 0.005495 0.005021
v 0.005893 0.020731 -0.004837
v 0.006579 0.020309 0.016612
v 0.006572 0.020317 0.005021
v 0.005893 0.020731 -0.003965
v 0.004652 0.019818 -0.004406
v 0.002369 0.019013 -0.004406
v 0.006184 0.020927 0.003800
v 0.000000 0.018729 -0.004406
v 0.005720 0.020605 -0.004406
v 0.005893 0.020731 0.004837
v 0.005893 0.020731 0.003965
v 0.004652 0.019818 0.004406
v 0.002369 0.019013 0.004406
v 0.000000 0.018729 0.004406
v 0.005720 0.020605 0.004406
v 0.004442 0.006384 0.000000
v 0.002039 0.005495 0.000000
v 0.006295 0.007806 0.000000
v 0.007720 0.009662 0.000000
v 0.008615 0.011825 0.000000
v 0.008921 0.014145 0.000000
v 0.008615 0.016465 0.000000
v 0.007717 0.018634 0.000000
v 0.006562 0.020334 0.000000
v 0.000000 0.018729 0.000000
v 0.006184 0.020927 0.000000
v 0.004651 0.019817 -0.000000
v 0.002369 0.019013 0.000000
v 0.000000 0.018729 0.010973
v 0.002369 0.019013 0.010973
v 0.004651 0.019817 0.010973
v 0.006021 0.020810 0.010973
v 0.007717 0.018634 0.010973
v 0.008615 0.016465 0.010973
v 0.008921 0.014145 0.010973
v 0.008615 0.011825 0.010973
v 0.007720 0.009662 0.010973
v 0.006295 0.007806 0.010973
v 0.004442 0.006384 0.010973
v 0.002039 0.005495 0.010973
v 0.006579 0.020309 0.010973
v 0.000000 0.018729 -0.010973
v -0.002369 0.019013 0.016612
v 0.002369 0.019013 -0.010973
v -0.004651 0.019817 0.016612
v 0.004651 0.019817 -0.010973
v -0.006042 0.020814 0.016612
v 0.006021 0.020810 -0.010973
v -0.007718 0.018632 0.016612
v 0.007717 0.018634 -0.010973
v -0.008615 0.016465 0.016612
v 0.008615 0.016465 -0.010973
v -0.008921 0.014145 0.016612
v 0.008921 0.014145 -0.010973
v -0.008615 0.011825 0.016612
v 0.008615 0.011825 -0.010973
v -0.007720 0.009662 0.016612
v 0.007720 0.009662 -0.010973
v -0.006295 0.007806 0.016612
v 0.006295 0.007806 -0.010973
v -0.004441 0.006383 0.016612
v 0.004442 0.006384 -0.010973
v -0.002322 0.005565 0.016612
v 0.002039 0.005495 -0.010973
v 0.006579 0.020309 -0.010973
v -0.002369 0.019013 -0.016612
v -0.004651 0.019817 -0.016612
v -0.006076 0.020805 0.005021
v -0.006042 0.020814 -0.016612
v -0.007718 0.018632 0.005021
v -0.007718 0.018632 -0.016612
v -0.008615 0.016465 0.005021
v -0.008615 0.016465 -0.016612
v -0.008921 0.014145 0.005021
v -0.008921 0.014145 -0.016612
v -0.008615 0.011825 0.005021
v -0.008615 0.011825 -0.016612
v -0.007720 0.009662 0.005021
v -0.007720 0.009662 -0.016612
v -0.006295 0.007806 0.005021
v -0.006295 0.007806 -0.016612
v -0.004441 0.006383 0.005021
v -0.004441 0.006383 -0.016612
v -0.002322 0.005565 0.005021
v -0.002322 0.005565 -0.016612
v -0.006448 0.020440 0.016612
v -0.006442 0.020447 0.005021
v -0.006076 0.020805 -0.005021
v -0.007718 0.018632 -0.005021
v -0.008615 0.016465 -0.005021
v -0.006206 0.020932 0.003800
v -0.008921 0.014145 -0.005021
v -0.005915 0.020736 0.004837
v -0.005915 0.020736 0.003965
v -0.004652 0.019817 0.004406
v -0.002369 0.019013 0.004406
v -0.005742 0.020609 0.004406
v -0.004441 0.006383 -0.000000
v -0.002322 0.005565 0.000000
v -0.006295 0.007806 -0.000000
v -0.007720 0.009662 -0.000000
v -0.008615 0.011825 -0.000000
v -0.008921 0.014145 -0.000000
v -0.008615 0.016465 -0.000000
v -0.007718 0.018632 0.000000
v -0.006432 0.020462 0.000000
v -0.006206 0.020932 -0.000000
v -0.004651 0.019817 0.000000
v -0.002369 0.019013 0.000000
v -0.002369 0.019013 0.010973
v -0.004651 0.019817 0.010973
v -0.006042 0.020815 0.010973
v -0.007718 0.018632 0.010973
v -0.008615 0.016465 0.010973
v -0.008921 0.014145 0.010973
v -0.008615 0.011825 0.010973
v -0.007720 0.009662 0.010973
v -0.006295 0.007806 0.010973
v -0.004441 0.006383 0.010973
v -0.002322 0.005565 0.010973
v -0.006448 0.020440 0.010973
v -0.008615 0.011825 -0.005021
v -0.007720 0.009662 -0.005021
v -0.006295 0.007806 -0.005021
v -0.004441 0.006383 -0.005021
v -0.002322 0.005565 -0.005021
v -0.006448 0.020440 -0.016612
v -0.006442 0.020447 -0.005021
v -0.006206 0.020932 -0.003800
v -0.005915 0.020736 -0.004837
v -0.005915 0.020736 -0.003965
v -0.004652 0.019817 -0.004406
v -0.002369 0.019013 -0.004406
v -0.005742 0.020609 -0.004406
v -0.002369 0.019013 -0.010973
v -0.004651 0.019817 -0.010973
v -0.006042 0.020815 -0.010973
v -0.007718 0.018632 -0.010973
v -0.008615 0.016465 -0.010973
v -0.008921 0.014145 -0.010973
v -0.008615 0.011825 -0.010973
v -0.007720 0.009662 -0.010973
v -0.006295 0.007806 -0.010973
v -0.004441 0.006383 -0.010973
v -0.002322 0.005565 -0.010973
v -0.006448 0.020440 -0.010973
vn 0.9601 -0.2796 -0.0000
vn -0.9601 0.2796 -0.0000
vn -0.9598 0.2807 -0.0000
vn -0.9592 0.2827 -0.0000
vn -0.9583 0.2858 -0.0000
vn 0.2791 0.9584 0.0597
vn 0.2428 0.8337 0.4959
vn 0.2135 0.7330 0.6459
vn 0.1470 0.5046 0.8508
vn 0.0456 0.1565 0.9866
vn -0.0262 -0.0900 0.9956
vn 0.2632 0.9039 0.3372
vn 0.2796 0.9601 -0.0000
vn 0.2113 0.7255 0.6550
vn -0.2422 -0.8315 -0.5000
vn -0.1398 -0.4801 -0.8660
vn -0.0000 -0.0000 -1.0000
vn -0.0000 -0.0000 1.0000
vn 0.1398 0.4801 -0.8660
vn 0.2422 0.8315 -0.5000
vn 0.1204 0.4135 0.9025
vn 0.0318 0.1093 0.9935
vn -0.2796 -0.9601 -0.0000
vn -0.1398 -0.4801 0.8660
vn -0.2422 -0.8315 0.5000
vn 0.1470 0.5046 -0.8508
vn 0.2135 0.7330 -0.6459
vn 0.2632 0.9039 -0.3372
vn 0.2113 0.7255 -0.6550
vn -0.0546 -0.1873 0.9808
vn -0.1070 -0.3674 0.9239
vn -0.2730 -0.9420 0.1953
vn -0.2576 -0.8871 0.3830
vn -0.2731 -0.9420 0.1951
vn -0.2780 -0.9606 -0.0000
vn 0.2422 0.8315 0.5000
vn 0.1398 0.4801 0.8660
vn 0.1204 0.4135 -0.9025
vn 0.0318 0.1093 -0.9935
vn 0.2428 0.8337 -0.4959
vn -0.0262 -0.0900 -0.9956
vn 0.0456 0.1565 -0.9866
vn 0.2791 0.9584 -0.0597
vn -0.0546 -0.1873 -0.9808
vn -0.1070 -0.3674 -0.9239
vn -0.2576 -0.8871 -0.3830
vn -0.2730 -0.9420 -0.1953
vn -0.2731 -0.9420 -0.1951
vn -0.9601 -0.2796 -0.0000
vn 0.9601 0.2796 -0.0000
vn -0.2791 0.9584 0.0597
vn -0.2428 0.8337 0.4959
vn -0.2135 0.7330 0.6459
vn -0.1470 0.5046 0.8508
vn -0.0456 0.1565 0.9866
vn 0.0262 -0.0900 0.9956
vn -0.2632 0.9039 0.3372
vn -0.2796 0.9601 -0.0000
vn -0.2113 0.7255 0.6550
vn 0.2422 -0.8315 -0.5000
vn 0.1398 -0.4801 -0.8660
vn -0.1398 0.4801 -0.8660
vn -0.2422 0.8315 -0.5000
vn -0.1204 0.4135 0.9025
vn -0.0318 0.1093 0.9935
vn 0.2796 -0.9601 -0.0000
vn 0.1398 -0.4801 0.8660
vn 0.2422 -0.8315 0.5000
vn -0.1470 0.5046 -0.8508
vn -0.2135 0.7330 -0.6459
vn -0.2632 0.9039 -0.3372
vn -0.2113 0.7255 -0.6550
vn 0.0546 -0.1873 0.9808
vn 0.1070 -0.3674 0.9239
vn 0.2742 -0.9417 0.1951
vn 0.2583 -0.8870 0.3827
vn -0.2422 0.8315 0.5000
vn -0.1398 0.4801 0.8660
vn -0.1204 0.4135 -0.9025
vn -0.0318 0.1093 -0.9935
vn -0.2428 0.8337 -0.4959
vn 0.0262 -0.0900 -0.9956
vn -0.0456 0.1565 -0.9866
vn -0.2791 0.9584 -0.0597
vn 0.0546 -0.1873 -0.9808
vn 0.1070 -0.3674 -0.9239
vn 0.2583 -0.8870 -0.3827
vn 0.2742 -0.9417 -0.1951
vn -0.2270 0.9739 -0.0000
vn -0.0000 1.0000 -0.0000
vn 0.4834 -0.8754 -0.0000
vn 0.3471 -0.9378 -0.0000
vn 0.9659 0.2588 -0.0000
vn 1.0000 -0.0000 -0.0000
vn 0.7793 0.6267 -0.0000
vn 0.8271 0.5621 -0.0000
vn 0.8801 0.4748 -0.0000
vn 0.9659 -0.2588 -0.0000
vn 0.8660 -0.5000 -0.0000
vn -0.4677 0.8839 -0.0000
vn -0.4632 0.8863 -0.0000
vn -0.5887 0.8083 0.0011
vn -0.5929 0.8053 -0.0000
vn -0.4634 0.8861 -0.0004
vn 0.7071 -0.7071 -0.0000
vn 0.7533 0.6577 -0.0000
vn -0.4641 0.8858 -0.0000
vn -0.4634 0.8861 0.0004
vn 0.6685 0.7437 -0.0000
vn -0.5891 0.8081 -0.0007
vn -0.5887 0.8083 -0.0011
vn -0.5822 0.8131 -0.0016
vn -0.5843 0.8115 -0.0008
vn -0.5891 0.8081 0.0007
vn -0.5843 0.8115 0.0008
vn -0.5822 0.8131 0.0016
vn -0.5864 0.8100 -0.0000
vn -0.5822 0.8130 -0.0000
vn -0.5822 0.8130 0.0026
vn -0.5822 0.8130 -0.0026
vn 0.2270 0.9739 -0.0000
vn -0.4895 -0.8720 -0.0000
vn -0.3602 -0.9329 -0.0000
vn -0.9659 0.2588 -0.0000
vn -1.0000 -0.0000 -0.0000
vn -0.7754 0.6314 -0.0000
vn -0.8764 0.4816 -0.0000
vn -0.8184 0.5747 -0.0000
vn -0.9659 -0.2588 -0.0000
vn -0.8660 -0.5000 -0.0000
vn 0.4650 0.8853 -0.0000
vn 0.5881 0.8088 -0.0000
vn 0.5845 0.8114 0.0008
vn 0.4612 0.8873 -0.0000
vn 0.4615 0.8872 -0.0003
vn -0.7071 -0.7071 -0.0000
vn -0.7524 0.6587 -0.0000
vn 0.4615 0.8872 0.0003
vn 0.4621 0.8868 -0.0000
vn -0.6778 0.7352 -0.0000
vn 0.5849 0.8111 -0.0005
vn 0.5845 0.8114 -0.0008
vn 0.5808 0.8141 -0.0007
vn 0.5790 0.8154 -0.0014
vn 0.5849 0.8111 0.0005
vn 0.5790 0.8154 0.0014
vn 0.5808 0.8141 0.0007
vn 0.5826 0.8127 -0.0000
vn 0.5790 0.8153 0.0022
vn 0.5790 0.8153 -0.0000
vn 0.5790 0.8153 -0.0022
vn 0.2270 -0.9739 -0.0000
vn -0.0000 -1.0000 -0.0000
vn -0.4834 0.8754 -0.0000
vn -0.3471 0.9378 -0.0000
vn -0.7812 -0.6242 0.0005
vn -0.8800 -0.4749 -0.0000
vn -0.8270 -0.5622 -0.0000
vn -0.8660 0.5000 -0.0000
vn 0.4677 -0.8839 -0.0000
vn 0.5929 -0.8053 -0.0000
vn 0.5887 -0.8083 -0.0011
vn 0.4632 -0.8862 -0.0000
vn 0.4607 -0.8876 0.0003
vn -0.7071 0.7071 -0.0000
vn -0.8801 -0.4748 -0.0000
vn -0.7549 -0.6558 -0.0004
vn -0.7533 -0.6577 -0.0000
vn 0.4607 -0.8876 -0.0003
vn 0.4642 -0.8857 -0.0000
vn -0.7549 -0.6558 0.0004
vn -0.6759 -0.7370 0.0015
vn -0.6722 -0.7404 0.0008
vn 0.5862 -0.8102 0.0005
vn -0.6722 -0.7404 -0.0008
vn -0.6685 -0.7437 -0.0000
vn 0.5887 -0.8083 0.0011
vn 0.5783 -0.8158 0.0007
vn 0.5699 -0.8217 0.0014
vn 0.5862 -0.8102 -0.0005
vn 0.5699 -0.8217 -0.0014
vn 0.5783 -0.8158 -0.0007
vn -0.7812 -0.6242 -0.0005
vn -0.6759 -0.7370 -0.0015
vn 0.5866 -0.8099 -0.0000
vn 0.5823 -0.8130 -0.0026
vn 0.5823 -0.8130 -0.0000
vn 0.5823 -0.8130 0.0026
vn -0.2270 -0.9739 -0.0000
vn 0.4895 0.8720 -0.0000
vn 0.3602 0.9329 -0.0000
vn 0.7783 -0.6279 0.0005
vn 0.8183 -0.5748 -0.0000
vn 0.8764 -0.4817 -0.0000
vn 0.8660 0.5000 -0.0000
vn -0.4650 -0.8853 -0.0000
vn -0.4613 -0.8873 -0.0000
vn -0.5845 -0.8114 -0.0008
vn -0.5881 -0.8088 -0.0000
vn -0.4587 -0.8886 0.0002
vn 0.8764 -0.4816 -0.0000
vn 0.7071 0.7071 -0.0000
vn 0.7547 -0.6560 -0.0004
vn 0.7524 -0.6587 -0.0000
vn -0.4621 -0.8868 -0.0000
vn -0.4587 -0.8886 -0.0002
vn 0.7547 -0.6560 0.0004
vn 0.6882 -0.7255 0.0015
vn 0.6830 -0.7304 0.0008
vn -0.5818 -0.8133 0.0003
vn 0.6830 -0.7304 -0.0008
vn 0.6778 -0.7352 -0.0000
vn -0.5845 -0.8114 0.0008
vn -0.5666 -0.8240 0.0011
vn -0.5747 -0.8184 0.0006
vn -0.5818 -0.8133 -0.0003
vn -0.5747 -0.8184 -0.0006
vn -0.5666 -0.8240 -0.0011
vn 0.7783 -0.6279 -0.0005
vn 0.6882 -0.7255 -0.0015
vn -0.5827 -0.8127 -0.0000
vn -0.5791 -0.8153 -0.0000
vn -0.5791 -0.8153 -0.0022
vn -0.5791 -0.8153 0.0022
vn 0.5559 0.1724 0.8132
vn 0.6642 0.3660 0.6519
vn 0.6592 0.3555 0.6626
vn 0.6642 0.3660 -0.6519
vn 0.5559 0.1724 -0.8132
vn 0.6592 0.3555 -0.6626
vn -0.9378 -0.3471 -0.0000
vn 0.0008 0.0005 -1.0000
vn 0.8130 0.5822 -0.0000
vn 0.3446 0.2509 -0.9046
vn 0.3446 0.2509 0.9046
vn 0.7254 0.5315 0.4375
vn 0.7218 0.5290 -0.4462
vn 0.0008 0.0005 1.0000
vn -0.5950 0.8038 0.0020
vn -0.5950 0.8038 -0.0000
vn 0.7254 0.5315 -0.4375
vn 0.7218 0.5290 0.4462
vn -0.5588 0.1688 -0.8120
vn -0.6669 0.3616 -0.6516
vn -0.6623 0.3518 -0.6615
vn 0.9329 -0.3602 -0.0000
vn -0.0008 0.0004 -1.0000
vn -0.8153 0.5790 -0.0000
vn -0.3457 0.2490 0.9047
vn -0.7283 0.5273 0.4376
vn -0.7248 0.5249 -0.4463
vn -0.0008 0.0004 1.0000
vn 0.6035 0.7974 -0.0000
vn 0.6035 0.7973 0.0018
vn -0.7283 0.5273 -0.4376
vn -0.7248 0.5249 0.4463
vn -0.6669 0.3616 0.6516
vn -0.6623 0.3518 0.6615
vn -0.3457 0.2490 -0.9047
vn -0.5588 0.1688 0.8120
vn -0.5950 0.8038 -0.0020
vn 0.6035 0.7973 -0.0018
vt 0.559827 0.771195
vt 0.559827 0.817686
vt 0.518819 0.817686
vt 0.518819 0.771195
vt 0.648492 0.766562
vt 0.603598 0.771196
vt 0.603598 0.752569
vt 0.647410 0.748446
vt 0.648494 0.868811
vt 0.647411 0.886927
vt 0.603599 0.882804
vt 0.603598 0.864177
vt 0.603597 0.817686
vt 0.436149 0.982044
vt 0.431704 0.971314
vt 0.431703 0.864179
vt 0.436148 0.864179
vt 0.769098 0.817664
vt 0.648516 0.817685
vt 0.769193 0.766585
vt 0.769214 0.868787
vt 0.786901 0.817658
vt 0.789455 0.808133
vt 0.436148 0.653329
vt 0.436148 0.771195
vt 0.431703 0.771195
vt 0.431704 0.664059
vt 0.446879 0.986488
vt 0.446878 0.864179
vt 0.559827 0.864178
vt 0.518819 0.864178
vt 0.489960 0.986488
vt 0.489959 0.864178
vt 0.489959 0.817687
vt 0.796449 0.801179
vt 0.789610 0.766646
vt 0.810047 0.766738
vt 0.805970 0.798663
vt 0.852438 0.817580
vt 0.850071 0.836496
vt 0.841037 0.853274
vt 0.840135 0.817603
vt 0.815508 0.834041
vt 0.822408 0.827051
vt 0.826898 0.864572
vt 0.806002 0.836654
vt 0.810134 0.868612
vt 0.852104 0.817581
vt 0.840909 0.781978
vt 0.849992 0.798686
vt 0.489960 0.648885
vt 0.489959 0.771195
vt 0.446878 0.771195
vt 0.446878 0.648884
vt 0.815460 0.801256
vt 0.826776 0.770742
vt 0.822354 0.808222
vt 0.824899 0.817634
vt 0.789461 0.827185
vt 0.796467 0.834139
vt 0.789653 0.868721
vt 0.431703 0.817687
vt 0.436148 0.817687
vt 0.446878 0.817687
vt 0.518820 0.935949
vt 0.559828 0.902428
vt 0.518820 0.699425
vt 0.559828 0.732945
vt 0.296166 0.771344
vt 0.337174 0.771344
vt 0.337174 0.817835
vt 0.296166 0.817835
vt 0.207501 0.766711
vt 0.208585 0.748595
vt 0.252395 0.752718
vt 0.252396 0.771344
vt 0.207499 0.868959
vt 0.252395 0.864326
vt 0.252394 0.882952
vt 0.208582 0.887076
vt 0.252396 0.817834
vt 0.419845 0.982193
vt 0.419845 0.864327
vt 0.424290 0.864327
vt 0.424289 0.971463
vt 0.086896 0.817812
vt 0.086800 0.766733
vt 0.207477 0.817833
vt 0.086779 0.868935
vt 0.069093 0.817806
vt 0.066539 0.808281
vt 0.419844 0.653478
vt 0.424289 0.664208
vt 0.424290 0.771343
vt 0.419845 0.771343
vt 0.409115 0.986637
vt 0.409115 0.864327
vt 0.296165 0.864326
vt 0.337174 0.864327
vt 0.366033 0.986637
vt 0.366034 0.864327
vt 0.366034 0.817835
vt 0.059545 0.801326
vt 0.050024 0.798811
vt 0.045946 0.766886
vt 0.066384 0.766794
vt 0.003890 0.817728
vt 0.015859 0.817750
vt 0.014957 0.853421
vt 0.005923 0.836643
vt 0.040486 0.834189
vt 0.029095 0.864720
vt 0.033586 0.827198
vt 0.049992 0.836802
vt 0.045859 0.868760
vt 0.003556 0.817728
vt 0.006002 0.798834
vt 0.015085 0.782126
vt 0.366033 0.649034
vt 0.409114 0.649034
vt 0.409115 0.771343
vt 0.366034 0.771343
vt 0.040534 0.801403
vt 0.033640 0.808370
vt 0.029217 0.770890
vt 0.031095 0.817782
vt 0.066533 0.827333
vt 0.066341 0.868869
vt 0.059527 0.834287
vt 0.419845 0.817835
vt 0.424290 0.817835
vt 0.409115 0.817835
vt 0.337174 0.936097
vt 0.296165 0.902577
vt 0.337174 0.699574
vt 0.296166 0.733094
vt 0.706249 0.471946
vt 0.688115 0.471946
vt 0.688115 0.466885
vt 0.706249 0.466885
vt 0.117422 0.412398
vt 0.175570 0.412399
vt 0.175570 0.417458
vt 0.117422 0.417458
vt 0.228487 0.412399
vt 0.276413 0.412398
vt 0.276413 0.417458
vt 0.228487 0.417458
vt 0.320379 0.412398
vt 0.320379 0.417458
vt 0.335709 0.439947
vt 0.315828 0.439947
vt 0.315828 0.434887
vt 0.335709 0.434887
vt 0.354773 0.439947
vt 0.354773 0.434887
vt 0.641372 0.451949
vt 0.631477 0.451949
vt 0.631477 0.446884
vt 0.641372 0.446884
vt 0.621582 0.451949
vt 0.621582 0.446884
vt 0.551318 0.439947
vt 0.430713 0.439947
vt 0.430713 0.434887
vt 0.551318 0.434887
vt 0.611687 0.451949
vt 0.601793 0.451949
vt 0.601793 0.446884
vt 0.611688 0.446884
vt 0.372749 0.439947
vt 0.372749 0.434887
vt 0.389914 0.439947
vt 0.389914 0.434887
vt 0.651267 0.451949
vt 0.651267 0.446884
vt 0.410313 0.439947
vt 0.410313 0.434887
vt 0.591898 0.451949
vt 0.591898 0.446884
vt 0.552319 0.451949
vt 0.542424 0.451949
vt 0.542424 0.446884
vt 0.552319 0.446884
vt 0.438405 0.417457
vt 0.385435 0.417457
vt 0.385435 0.412392
vt 0.438405 0.412392
vt 0.295947 0.439947
vt 0.276883 0.439946
vt 0.276883 0.434887
vt 0.295947 0.434887
vt 0.130230 0.451946
vt 0.087189 0.451946
vt 0.087189 0.446886
vt 0.130230 0.446886
vt 0.141834 0.451946
vt 0.141834 0.446886
vt 0.153437 0.451945
vt 0.153437 0.446886
vt 0.306924 0.451945
vt 0.260473 0.451945
vt 0.260473 0.446886
vt 0.306924 0.446886
vt 0.562214 0.451949
vt 0.562214 0.446884
vt 0.582003 0.451949
vt 0.572109 0.451949
vt 0.572109 0.446884
vt 0.582003 0.446884
vt 0.258907 0.439947
vt 0.241742 0.439947
vt 0.241742 0.434887
vt 0.258907 0.434887
vt 0.221343 0.439947
vt 0.200943 0.439947
vt 0.200943 0.434887
vt 0.221343 0.434887
vt 0.327232 0.417457
vt 0.327232 0.412392
vt 0.530384 0.417457
vt 0.486377 0.417457
vt 0.486377 0.412392
vt 0.530384 0.412392
vt 0.080341 0.439947
vt 0.080341 0.434888
vt 0.663912 0.477099
vt 0.682051 0.477099
vt 0.682051 0.482160
vt 0.663912 0.482160
vt 0.526672 0.451946
vt 0.483626 0.451945
vt 0.483626 0.446886
vt 0.526672 0.446886
vt 0.472022 0.451945
vt 0.472022 0.446886
vt 0.460417 0.451945
vt 0.460417 0.446886
vt 0.353375 0.451945
vt 0.353375 0.446886
vt 0.532529 0.451949
vt 0.532529 0.446884
vt 0.133006 0.638185
vt 0.091997 0.638185
vt 0.091997 0.591694
vt 0.133006 0.591694
vt 0.221672 0.642819
vt 0.220588 0.660935
vt 0.176777 0.656812
vt 0.176776 0.638185
vt 0.221674 0.540569
vt 0.176778 0.545203
vt 0.176778 0.526576
vt 0.220591 0.522453
vt 0.176776 0.591695
vt 0.009326 0.427334
vt 0.009326 0.545201
vt 0.004881 0.545201
vt 0.004882 0.438064
vt 0.342279 0.591717
vt 0.342374 0.642797
vt 0.221695 0.591696
vt 0.342395 0.540594
vt 0.360082 0.591723
vt 0.362636 0.601249
vt 0.009326 0.756052
vt 0.004881 0.745321
vt 0.004881 0.638186
vt 0.009325 0.638186
vt 0.020056 0.422889
vt 0.020056 0.545201
vt 0.133006 0.545202
vt 0.091998 0.545201
vt 0.063138 0.422890
vt 0.063137 0.545201
vt 0.063137 0.591693
vt 0.369629 0.608203
vt 0.379150 0.610719
vt 0.383228 0.642644
vt 0.362790 0.642736
vt 0.425285 0.591801
vt 0.413316 0.591779
vt 0.414218 0.556108
vt 0.423252 0.572886
vt 0.388689 0.575340
vt 0.400080 0.544809
vt 0.395589 0.582331
vt 0.379182 0.572728
vt 0.383315 0.540769
vt 0.425619 0.591802
vt 0.423173 0.610696
vt 0.414090 0.627404
vt 0.063137 0.760496
vt 0.020056 0.760496
vt 0.020055 0.638186
vt 0.063137 0.638185
vt 0.388641 0.608126
vt 0.395535 0.601160
vt 0.399957 0.638640
vt 0.398080 0.591748
vt 0.362641 0.582197
vt 0.362834 0.540660
vt 0.369647 0.575243
vt 0.009325 0.591693
vt 0.004881 0.591693
vt 0.020055 0.591693
vt 0.091999 0.473430
vt 0.133007 0.506951
vt 0.091998 0.709956
vt 0.133006 0.676435
vt 0.724070 0.638177
vt 0.724070 0.591685
vt 0.765079 0.591685
vt 0.765078 0.638178
vt 0.635403 0.642810
vt 0.680299 0.638176
vt 0.680298 0.656803
vt 0.636486 0.660926
vt 0.635405 0.540561
vt 0.636488 0.522445
vt 0.680299 0.526568
vt 0.680300 0.545195
vt 0.680300 0.591685
vt 0.847749 0.427328
vt 0.852194 0.438058
vt 0.852195 0.545193
vt 0.847750 0.545193
vt 0.514798 0.591662
vt 0.635381 0.591683
vt 0.514682 0.642785
vt 0.514703 0.540583
vt 0.496996 0.591657
vt 0.494436 0.601183
vt 0.847750 0.756044
vt 0.847750 0.638178
vt 0.852194 0.638178
vt 0.852194 0.745314
vt 0.837020 0.422884
vt 0.837020 0.545193
vt 0.724070 0.545194
vt 0.765079 0.545194
vt 0.793938 0.422884
vt 0.793938 0.545194
vt 0.793938 0.591686
vt 0.487430 0.608137
vt 0.494244 0.642719
vt 0.473762 0.642611
vt 0.477895 0.610652
vt 0.431458 0.591578
vt 0.433904 0.572684
vt 0.442987 0.555976
vt 0.443761 0.591601
vt 0.468437 0.575253
vt 0.461543 0.582220
vt 0.457120 0.544740
vt 0.477927 0.572661
vt 0.473849 0.540736
vt 0.431792 0.591579
vt 0.442859 0.627272
vt 0.433825 0.610494
vt 0.793938 0.760489
vt 0.793938 0.638178
vt 0.837020 0.638178
vt 0.837020 0.760489
vt 0.468388 0.608039
vt 0.456998 0.638571
vt 0.461488 0.601049
vt 0.458998 0.591632
vt 0.494441 0.582131
vt 0.487448 0.575177
vt 0.494287 0.540644
vt 0.852194 0.591686
vt 0.847750 0.591686
vt 0.837020 0.591686
vt 0.765078 0.473423
vt 0.724070 0.506944
vt 0.765078 0.709948
vt 0.724069 0.676427
vt 0.664105 0.471947
vt 0.664105 0.466882
vt 0.682256 0.466882
vt 0.682256 0.471947
vt 0.760137 0.434889
vt 0.760137 0.439948
vt 0.701990 0.439948
vt 0.701990 0.434889
vt 0.649072 0.434889
vt 0.649072 0.439948
vt 0.601146 0.439948
vt 0.601146 0.434889
vt 0.557180 0.439948
vt 0.557180 0.434889
vt 0.289308 0.427946
vt 0.289308 0.422881
vt 0.309208 0.422882
vt 0.309208 0.427946
vt 0.270225 0.427946
vt 0.270225 0.422881
vt 0.648358 0.458889
vt 0.648358 0.463949
vt 0.638473 0.463949
vt 0.638473 0.458889
vt 0.628588 0.463949
vt 0.628588 0.458889
vt 0.073493 0.427947
vt 0.073493 0.422882
vt 0.194213 0.422882
vt 0.194213 0.427946
vt 0.618702 0.458889
vt 0.618702 0.463949
vt 0.608817 0.463949
vt 0.608817 0.458889
vt 0.252233 0.427946
vt 0.252233 0.422881
vt 0.235052 0.427946
vt 0.235052 0.422882
vt 0.658244 0.458889
vt 0.658244 0.463949
vt 0.214633 0.422882
vt 0.214633 0.427946
vt 0.598932 0.463949
vt 0.598932 0.458889
vt 0.559391 0.458889
vt 0.559391 0.463949
vt 0.549506 0.463949
vt 0.549506 0.458889
vt 0.661957 0.422882
vt 0.661957 0.427946
vt 0.608988 0.427946
vt 0.608988 0.422882
vt 0.329108 0.427946
vt 0.329108 0.422881
vt 0.348190 0.422881
vt 0.348190 0.427946
vt 0.137116 0.458882
vt 0.137116 0.463945
vt 0.094047 0.463945
vt 0.094047 0.458882
vt 0.148726 0.458882
vt 0.148726 0.463945
vt 0.160337 0.458882
vt 0.160337 0.463945
vt 0.313912 0.458882
vt 0.313912 0.463945
vt 0.267436 0.463944
vt 0.267436 0.458882
vt 0.569276 0.458889
vt 0.569276 0.463949
vt 0.589047 0.458889
vt 0.589047 0.463949
vt 0.579161 0.463949
vt 0.579161 0.458889
vt 0.366183 0.427946
vt 0.366183 0.422881
vt 0.383364 0.422881
vt 0.383364 0.427946
vt 0.403782 0.427946
vt 0.403782 0.422882
vt 0.424202 0.422882
vt 0.424202 0.427946
vt 0.550784 0.427946
vt 0.550784 0.422882
vt 0.753938 0.422882
vt 0.753938 0.427946
vt 0.709929 0.427946
vt 0.709929 0.422882
vt 0.544922 0.422882
vt 0.544922 0.427947
vt 0.706304 0.477515
vt 0.706304 0.482573
vt 0.688177 0.482573
vt 0.688177 0.477515
vt 0.533765 0.458883
vt 0.533765 0.463945
vt 0.490701 0.463945
vt 0.490701 0.458883
vt 0.479092 0.463945
vt 0.479092 0.458883
vt 0.467482 0.463945
vt 0.467482 0.458883
vt 0.360389 0.463945
vt 0.360389 0.458883
vt 0.539620 0.463949
vt 0.539620 0.458889
vt 0.900853 0.636353
vt 0.924498 0.636353
vt 0.924498 0.703044
vt 0.900853 0.703044
vt 0.615512 0.180270
vt 0.615513 0.206678
vt 0.558243 0.206678
vt 0.558243 0.180270
vt 0.615513 0.058096
vt 0.615513 0.082530
vt 0.558243 0.082530
vt 0.558243 0.058096
vt 0.675957 0.012527
vt 0.726956 0.012527
vt 0.726956 0.033661
vt 0.675957 0.033661
vt 0.675957 0.106965
vt 0.675957 0.131400
vt 0.615513 0.131400
vt 0.615513 0.106965
vt 0.675957 0.180270
vt 0.726956 0.180270
vt 0.726956 0.206678
vt 0.675957 0.206678
vt 0.675957 0.082531
vt 0.876919 0.546848
vt 0.876918 0.591601
vt 0.861638 0.551333
vt 0.863826 0.546848
vt 0.726956 0.106965
vt 0.726956 0.131400
vt 0.900853 0.546848
vt 0.876919 0.480157
vt 0.900853 0.480157
vt 0.675957 0.058096
vt 0.615513 0.033661
vt 0.838399 0.180270
vt 0.895669 0.180270
vt 0.895669 0.206678
vt 0.838399 0.206678
vt 0.838399 0.155835
vt 0.895669 0.155835
vt 0.838399 0.131400
vt 0.895669 0.131400
vt 0.838399 0.106965
vt 0.895669 0.106965
vt 0.838399 0.082530
vt 0.895669 0.082530
vt 0.838399 0.058095
vt 0.895669 0.058095
vt 0.838399 0.033661
vt 0.895669 0.033661
vt 0.838399 0.012526
vt 0.895669 0.012526
vt 0.900853 0.760314
vt 0.876918 0.760314
vt 0.876919 0.703044
vt 0.924498 0.760314
vt 0.615513 0.012527
vt 0.558243 0.033661
vt 0.558243 0.012527
vt 0.675957 0.002573
vt 0.615513 0.002573
vt 0.558243 0.106966
vt 0.861638 0.542471
vt 0.675957 0.155835
vt 0.615513 0.155835
vt 0.726956 0.058096
vt 0.726956 0.082531
vt 0.900853 0.591601
vt 0.876919 0.636353
vt 0.838399 0.002573
vt 0.895669 0.002573
vt 0.876919 0.422887
vt 0.900853 0.422887
vt 0.924498 0.546848
vt 0.924498 0.591601
vt 0.863826 0.636353
vt 0.861638 0.631869
vt 0.858054 0.540601
vt 0.858056 0.480157
vt 0.861638 0.640730
vt 0.726956 0.155835
vt 0.558243 0.155835
vt 0.558243 0.131400
vt 0.858056 0.703044
vt 0.858054 0.642600
vt 0.558243 0.002573
vt 0.777954 0.012526
vt 0.777955 0.033661
vt 0.777955 0.058096
vt 0.777955 0.082531
vt 0.777955 0.106965
vt 0.777955 0.131400
vt 0.777955 0.155835
vt 0.777955 0.180270
vt 0.777955 0.206678
vt 0.777955 0.002573
vt 0.858056 0.760314
vt 0.924498 0.480157
vt 0.858056 0.591601
vt 0.858054 0.553017
vt 0.858056 0.422887
vt 0.924498 0.422887
vt 0.858054 0.630184
vt 0.948144 0.636353
vt 0.948144 0.703044
vt 0.028308 0.283654
vt 0.028308 0.340925
vt 0.004879 0.340925
vt 0.004878 0.283654
vt 0.150486 0.283654
vt 0.150486 0.340925
vt 0.126050 0.340925
vt 0.126050 0.283654
vt 0.197911 0.223208
vt 0.174921 0.223208
vt 0.174921 0.172208
vt 0.197911 0.172207
vt 0.101615 0.223208
vt 0.101615 0.283654
vt 0.077179 0.283654
vt 0.077179 0.223208
vt 0.028308 0.223208
vt 0.004878 0.223208
vt 0.004878 0.172208
vt 0.028308 0.172208
vt 0.126050 0.223208
vt 0.972079 0.546848
vt 0.985395 0.546848
vt 0.987583 0.551332
vt 0.972079 0.591600
vt 0.077179 0.172208
vt 0.101615 0.172208
vt 0.948144 0.546848
vt 0.948144 0.480158
vt 0.972078 0.480158
vt 0.174921 0.283654
vt 0.150486 0.223208
vt 0.028308 0.060762
vt 0.004878 0.060762
vt 0.004878 0.003490
vt 0.028308 0.003490
vt 0.052744 0.060762
vt 0.052744 0.003490
vt 0.077179 0.060762
vt 0.077179 0.003490
vt 0.101615 0.060762
vt 0.101615 0.003490
vt 0.126050 0.060762
vt 0.126050 0.003490
vt 0.150485 0.060762
vt 0.150486 0.003490
vt 0.174921 0.060762
vt 0.174921 0.003490
vt 0.197911 0.060762
vt 0.197911 0.003490
vt 0.972078 0.703044
vt 0.972078 0.760314
vt 0.948143 0.760314
vt 0.197911 0.283654
vt 0.197911 0.340925
vt 0.174921 0.340925
vt 0.205848 0.223208
vt 0.205848 0.283654
vt 0.101615 0.340925
vt 0.987583 0.542471
vt 0.052744 0.283654
vt 0.052744 0.223208
vt 0.126050 0.172208
vt 0.150485 0.172208
vt 0.972078 0.636353
vt 0.948144 0.591600
vt 0.205848 0.060762
vt 0.205848 0.003490
vt 0.948144 0.422887
vt 0.987583 0.631869
vt 0.985395 0.636353
vt 0.991165 0.480157
vt 0.991167 0.540601
vt 0.987583 0.640730
vt 0.052744 0.172208
vt 0.077179 0.340925
vt 0.052744 0.340925
vt 0.991167 0.642600
vt 0.991165 0.703044
vt 0.205848 0.340925
vt 0.197910 0.121207
vt 0.174921 0.121207
vt 0.150485 0.121208
vt 0.126050 0.121208
vt 0.101615 0.121208
vt 0.077179 0.121208
vt 0.052744 0.121208
vt 0.028308 0.121208
vt 0.004878 0.121208
vt 0.205848 0.121207
vt 0.991165 0.760314
vt 0.991167 0.553017
vt 0.991165 0.591600
vt 0.972078 0.422887
vt 0.991165 0.422887
vt 0.991167 0.630184
vt 0.771524 0.254051
vt 0.838211 0.254052
vt 0.838211 0.278277
vt 0.771524 0.278277
vt 0.270795 0.029653
vt 0.213525 0.029653
vt 0.213525 0.003627
vt 0.270795 0.003627
vt 0.270795 0.148448
vt 0.213525 0.148448
vt 0.213525 0.124679
vt 0.270795 0.124679
vt 0.331241 0.192962
vt 0.331241 0.172291
vt 0.382241 0.172290
vt 0.382241 0.193166
vt 0.331241 0.100910
vt 0.270795 0.100910
vt 0.270795 0.077141
vt 0.331241 0.077141
vt 0.331241 0.029653
vt 0.331241 0.003627
vt 0.382240 0.003627
vt 0.382240 0.029653
vt 0.331241 0.124679
vt 0.682024 0.229462
vt 0.682024 0.215993
vt 0.686505 0.213818
vt 0.726774 0.229474
vt 0.382240 0.077141
vt 0.382240 0.100910
vt 0.682024 0.254051
vt 0.615337 0.254051
vt 0.615338 0.229474
vt 0.270795 0.172291
vt 0.331241 0.148448
vt 0.493685 0.029653
vt 0.493685 0.003627
vt 0.550956 0.003627
vt 0.550956 0.029653
vt 0.493685 0.053372
vt 0.550956 0.053372
vt 0.493685 0.077141
vt 0.550956 0.077141
vt 0.493685 0.100910
vt 0.550956 0.100910
vt 0.493685 0.124679
vt 0.550956 0.124679
vt 0.493685 0.148448
vt 0.550956 0.148448
vt 0.493685 0.172291
vt 0.550956 0.172291
vt 0.493685 0.192859
vt 0.550956 0.192859
vt 0.838210 0.229474
vt 0.895478 0.229472
vt 0.895478 0.254052
vt 0.895478 0.278277
vt 0.270795 0.192859
vt 0.213525 0.192859
vt 0.213525 0.172290
vt 0.331245 0.200152
vt 0.270797 0.200467
vt 0.213525 0.100910
vt 0.677649 0.213817
vt 0.270795 0.053373
vt 0.331241 0.053373
vt 0.382241 0.124679
vt 0.382241 0.148448
vt 0.771524 0.229462
vt 0.726774 0.254051
vt 0.493684 0.200467
vt 0.550956 0.200461
vt 0.558071 0.254051
vt 0.558071 0.229472
vt 0.726774 0.278277
vt 0.682024 0.278277
vt 0.767043 0.213818
vt 0.771524 0.215993
vt 0.615339 0.212289
vt 0.675782 0.212018
vt 0.775900 0.213817
vt 0.382240 0.053373
vt 0.213525 0.077141
vt 0.213525 0.053373
vt 0.777766 0.212018
vt 0.838210 0.212289
vt 0.213525 0.200461
vt 0.433240 0.192961
vt 0.433240 0.172291
vt 0.433240 0.148448
vt 0.433240 0.124679
vt 0.433240 0.100910
vt 0.433240 0.077141
vt 0.433240 0.053373
vt 0.433240 0.029653
vt 0.433240 0.003627
vt 0.433236 0.200152
vt 0.895478 0.212288
vt 0.615337 0.278277
vt 0.688187 0.210254
vt 0.726774 0.210257
vt 0.558071 0.212288
vt 0.558071 0.278277
vt 0.765362 0.210254
vt 0.771524 0.302503
vt 0.838211 0.302503
vt 0.493679 0.230692
vt 0.493680 0.207627
vt 0.550949 0.207627
vt 0.550950 0.230692
vt 0.493680 0.349504
vt 0.493680 0.325735
vt 0.550950 0.325735
vt 0.550950 0.349504
vt 0.433235 0.395856
vt 0.382236 0.396036
vt 0.382236 0.373326
vt 0.433235 0.373327
vt 0.433235 0.301967
vt 0.433235 0.278198
vt 0.493680 0.278198
vt 0.493680 0.301967
vt 0.433235 0.230693
vt 0.382236 0.230692
vt 0.382236 0.207627
vt 0.433235 0.207627
vt 0.433235 0.325736
vt 0.682024 0.327084
vt 0.726774 0.327074
vt 0.686506 0.342946
vt 0.682024 0.340770
vt 0.382236 0.301967
vt 0.382236 0.278198
vt 0.682024 0.302503
vt 0.615338 0.327074
vt 0.615337 0.302503
vt 0.433235 0.349504
vt 0.493680 0.373327
vt 0.270792 0.230692
vt 0.213522 0.230693
vt 0.213522 0.207628
vt 0.270792 0.207627
vt 0.270792 0.254430
vt 0.213522 0.254430
vt 0.270792 0.278198
vt 0.213522 0.278198
vt 0.270792 0.301967
vt 0.213522 0.301967
vt 0.270793 0.325735
vt 0.213522 0.325735
vt 0.270793 0.349504
vt 0.213522 0.349504
vt 0.270793 0.373327
vt 0.213522 0.373327
vt 0.270793 0.395766
vt 0.213522 0.395765
vt 0.895478 0.302503
vt 0.895478 0.327076
vt 0.838210 0.327074
vt 0.493680 0.395766
vt 0.550950 0.373326
vt 0.550950 0.395765
vt 0.433232 0.401056
vt 0.493678 0.401375
vt 0.550950 0.301966
vt 0.677649 0.342947
vt 0.433235 0.254430
vt 0.493680 0.254430
vt 0.382236 0.349504
vt 0.382236 0.325735
vt 0.726774 0.302503
vt 0.771524 0.327084
vt 0.270794 0.401375
vt 0.213522 0.401370
vt 0.558071 0.302503
vt 0.771524 0.340770
vt 0.767042 0.342946
vt 0.675782 0.344731
vt 0.615339 0.344461
vt 0.775900 0.342947
vt 0.382236 0.254430
vt 0.550950 0.254429
vt 0.550950 0.278198
vt 0.838210 0.344461
vt 0.777766 0.344730
vt 0.550950 0.401370
vt 0.331237 0.395856
vt 0.331237 0.373327
vt 0.331237 0.349504
vt 0.331237 0.325736
vt 0.331237 0.301967
vt 0.331237 0.278198
vt 0.331237 0.254430
vt 0.331237 0.230693
vt 0.331237 0.207628
vt 0.331241 0.401056
vt 0.895478 0.344462
vt 0.726774 0.346511
vt 0.688188 0.346513
vt 0.558071 0.327076
vt 0.558071 0.344461
vt 0.765361 0.346513
vt 0.267774 0.405316
vt 0.291343 0.405316
vt 0.291343 0.407882
vt 0.267774 0.407882
vt 0.341951 0.470884
vt 0.365546 0.470884
vt 0.365546 0.473453
vt 0.341951 0.473453
vt 0.315229 0.405316
vt 0.315229 0.407882
vt 0.318040 0.470884
vt 0.318040 0.473453
vt 0.291621 0.470884
vt 0.300273 0.470884
vt 0.300273 0.473453
vt 0.291621 0.473453
vt 0.247273 0.470884
vt 0.271067 0.470884
vt 0.271067 0.473453
vt 0.247273 0.473453
vt 0.223516 0.470884
vt 0.223516 0.473453
vt 0.199758 0.470884
vt 0.199758 0.473453
vt 0.176000 0.470884
vt 0.176000 0.473453
vt 0.714700 0.475217
vt 0.714700 0.478440
vt 0.712107 0.478440
vt 0.712107 0.475217
vt 0.152243 0.470884
vt 0.152243 0.473453
vt 0.362153 0.405316
vt 0.385922 0.405316
vt 0.385922 0.407882
vt 0.362153 0.407882
vt 0.128510 0.470884
vt 0.128510 0.473453
vt 0.409655 0.405316
vt 0.409655 0.407882
vt 0.102666 0.470884
vt 0.102666 0.473453
vt 0.433387 0.405316
vt 0.457120 0.405316
vt 0.457120 0.407882
vt 0.433387 0.407882
vt 0.480853 0.405316
vt 0.504561 0.405316
vt 0.504561 0.407882
vt 0.480853 0.407882
vt 0.731616 0.480332
vt 0.731616 0.483558
vt 0.729021 0.483558
vt 0.729021 0.480332
vt 0.244937 0.493416
vt 0.184451 0.493416
vt 0.184451 0.490883
vt 0.244937 0.490883
vt 0.341621 0.405316
vt 0.341621 0.407882
vt 0.731616 0.491893
vt 0.729021 0.491893
vt 0.702679 0.456887
vt 0.741248 0.456887
vt 0.741254 0.459416
vt 0.702679 0.459416
vt 0.464807 0.493416
vt 0.407496 0.493416
vt 0.407496 0.490883
vt 0.464807 0.490883
vt 0.714700 0.488038
vt 0.714700 0.491877
vt 0.712107 0.491877
vt 0.712107 0.488038
vt 0.530377 0.405316
vt 0.530377 0.407882
vt 0.731616 0.466887
vt 0.731616 0.470729
vt 0.729021 0.470729
vt 0.729021 0.466887
vt 0.731616 0.475577
vt 0.729021 0.475577
vt 0.714700 0.466886
vt 0.712107 0.466886
vt 0.295972 0.493416
vt 0.295972 0.490883
vt 0.256770 0.510356
vt 0.205752 0.510356
vt 0.205752 0.507825
vt 0.256770 0.507808
vt 0.332978 0.405316
vt 0.332978 0.407882
vt 0.127140 0.493416
vt 0.127140 0.490883
vt 0.347008 0.493416
vt 0.347008 0.490883
vt 0.714700 0.483192
vt 0.712107 0.483192
vt 0.389141 0.470884
vt 0.413049 0.470884
vt 0.413049 0.473453
vt 0.389141 0.473453
vt 0.431025 0.470884
vt 0.437700 0.470884
vt 0.437700 0.473453
vt 0.431025 0.473453
vt 0.460089 0.470884
vt 0.483873 0.470884
vt 0.483873 0.473453
vt 0.460089 0.473453
vt 0.507631 0.470884
vt 0.507631 0.473453
vt 0.531389 0.470884
vt 0.531389 0.473453
vt 0.555147 0.470884
vt 0.555147 0.473453
vt 0.578904 0.470884
vt 0.578904 0.473453
vt 0.602646 0.470884
vt 0.602646 0.473453
vt 0.625562 0.470884
vt 0.625562 0.473453
vt 0.125838 0.405316
vt 0.149570 0.405316
vt 0.149570 0.407882
vt 0.125838 0.407882
vt 0.202363 0.405316
vt 0.220320 0.405316
vt 0.220320 0.407882
vt 0.202363 0.407882
vt 0.723156 0.473279
vt 0.723156 0.476500
vt 0.720559 0.476500
vt 0.720559 0.473279
vt 0.172154 0.480887
vt 0.232576 0.480887
vt 0.232576 0.483417
vt 0.172154 0.483417
vt 0.334537 0.480887
vt 0.394959 0.480887
vt 0.394959 0.483416
vt 0.334537 0.483417
vt 0.723156 0.466890
vt 0.720559 0.466890
vt 0.154733 0.499419
vt 0.193377 0.499419
vt 0.193377 0.501954
vt 0.154727 0.501954
vt 0.723156 0.486108
vt 0.723156 0.489952
vt 0.720559 0.489952
vt 0.720559 0.486108
vt 0.723156 0.481257
vt 0.720559 0.481257
vt 0.283556 0.480887
vt 0.283556 0.483417
vt 0.637084 0.472756
vt 0.630682 0.472756
vt 0.630682 0.470154
vt 0.637084 0.470154
vt 0.708155 0.446883
vt 0.759181 0.446883
vt 0.759182 0.449428
vt 0.708155 0.449415
vt 0.078372 0.405316
vt 0.102105 0.405316
vt 0.102105 0.407882
vt 0.078372 0.407882
vt 0.195696 0.405316
vt 0.195696 0.407882
vt 0.030923 0.405316
vt 0.054640 0.405316
vt 0.054640 0.407882
vt 0.030923 0.407882
vt 0.114904 0.480887
vt 0.114904 0.483416
vt 0.173330 0.405316
vt 0.173330 0.407882
vt 0.649937 0.472756
vt 0.645077 0.472756
vt 0.645077 0.470154
vt 0.649937 0.470154
vt 0.640311 0.472756
vt 0.640311 0.470154
vt 0.653788 0.472756
vt 0.653788 0.470154
vt 0.244204 0.405316
vt 0.244204 0.407882
vt 0.008031 0.405316
vt 0.008031 0.407882
vt 0.452208 0.480887
vt 0.452208 0.483416
vt 0.664110 0.456887
vt 0.664104 0.459416
vt 0.154733 0.510356
vt 0.154733 0.507808
vt 0.232021 0.499419
vt 0.232027 0.501954
vt 0.657128 0.446883
vt 0.657127 0.449428
s 1
f 64/1/1 23/2/1 24/3/1 65/4/1
f 5/5/1 63/6/1 16/7/1 37/8/1
f 3/9/1 9/10/1 6/11/1 46/12/1
f 63/6/1 22/13/1 23/2/1 64/1/1
f 41/14/1 39/15/1 49/16/1 50/17/1
f 35/18/1 20/19/1 5/5/1 52/20/1
f 35/18/1 27/21/1 3/9/1 20/19/1
f 28/22/1 35/18/1 52/20/1 58/23/1
f 61/24/1 67/25/1 66/26/1 59/27/1
f 40/28/1 41/14/1 50/17/1 25/29/1
f 47/30/1 48/31/1 24/3/1 23/2/1
f 46/12/1 47/30/1 23/2/1 22/13/1
f 4/32/1 40/28/1 25/29/1 45/33/1
f 48/31/1 45/33/1 21/34/1 24/3/1
f 57/35/1 53/36/1 38/37/1 56/38/1
f 12/39/1 15/40/1 14/41/1 33/42/1
f 30/43/1 31/44/1 14/41/1 13/45/1
f 32/46/1 30/43/1 13/45/1 11/47/1
f 12/48/1 33/42/1 43/49/1 44/50/1
f 10/51/1 62/52/1 51/53/1 60/54/1
f 54/55/1 42/56/1 43/49/1 55/57/1
f 65/4/1 24/3/1 21/34/1 62/52/1
f 31/44/1 26/58/1 33/42/1 14/41/1
f 36/59/1 34/60/1 29/61/1 27/21/1
f 56/38/1 38/37/1 42/56/1 54/55/1
f 28/22/1 36/59/1 27/21/1 35/18/1
f 55/57/1 43/49/1 33/42/1 26/58/1
f 34/60/1 32/46/1 11/47/1 29/61/1
f 50/17/1 49/16/1 19/62/1 1/63/1
f 45/33/1 25/29/1 2/64/1 21/34/1
f 25/29/1 50/17/1 1/63/1 2/64/1
f 58/23/1 52/20/1 53/36/1 57/35/1
f 60/54/1 51/53/1 67/25/1 61/24/1
f 8/65/1 4/32/1 45/33/1 48/31/1
f 6/11/1 7/66/1 47/30/1 46/12/1
f 7/66/1 8/65/1 48/31/1 47/30/1
f 20/19/1 3/9/1 46/12/1 22/13/1
f 67/25/1 1/63/1 19/62/1 66/26/1
f 62/52/1 21/34/1 2/64/1 51/53/1
f 51/53/1 2/64/1 1/63/1 67/25/1
f 18/67/1 65/4/1 62/52/1 10/51/1
f 16/7/1 63/6/1 64/1/1 17/68/1
f 17/68/1 64/1/1 65/4/1 18/67/1
f 20/19/1 22/13/1 63/6/1 5/5/1
f 127/69/2 128/70/2 90/71/2 89/72/2
f 72/73/2 103/74/2 83/75/2 126/76/2
f 70/77/2 111/78/2 73/79/2 76/80/2
f 126/76/2 127/69/2 89/72/2 88/81/2
f 106/82/3 114/83/4 245/84/5 235/85/5
f 101/86/2 116/87/2 72/73/2 86/88/2
f 101/86/2 86/88/2 70/77/2 93/89/2
f 94/90/2 122/91/2 116/87/2 101/86/2
f 124/92/3 255/93/5 262/94/5 129/95/4
f 105/96/2 91/97/2 114/83/4 106/82/3
f 112/98/2 89/72/2 90/71/2 113/99/2
f 111/78/2 88/81/2 89/72/2 112/98/2
f 71/100/2 110/101/2 91/97/2 105/96/2
f 113/99/2 90/71/2 87/102/2 110/101/2
f 121/103/2 120/104/2 104/105/2 117/106/2
f 79/107/2 99/108/2 81/109/2 82/110/2
f 96/111/2 80/112/2 81/109/2 97/113/2
f 98/114/2 78/115/2 80/112/2 96/111/2
f 79/116/2 109/117/2 108/118/2 99/108/2
f 77/119/2 123/120/2 115/121/2 125/122/2
f 118/123/2 119/124/2 108/118/2 107/125/2
f 128/70/2 125/122/2 87/102/2 90/71/2
f 97/113/2 81/109/2 99/108/2 92/126/2
f 102/127/2 93/89/2 95/128/2 100/129/2
f 120/104/2 118/123/2 107/125/2 104/105/2
f 94/90/2 101/86/2 93/89/2 102/127/2
f 119/124/2 92/126/2 99/108/2 108/118/2
f 100/129/2 95/128/2 78/115/2 98/114/2
f 114/83/4 68/130/4 215/131/5 245/84/5
f 110/101/2 87/102/2 69/132/2 91/97/2
f 91/97/2 69/132/2 68/130/4 114/83/4
f 122/91/2 121/103/2 117/106/2 116/87/2
f 123/120/2 124/92/3 129/95/4 115/121/2
f 75/133/2 113/99/2 110/101/2 71/100/2
f 73/79/2 111/78/2 112/98/2 74/134/2
f 74/134/2 112/98/2 113/99/2 75/133/2
f 86/88/2 88/81/2 111/78/2 70/77/2
f 129/95/4 262/94/5 215/131/5 68/130/4
f 125/122/2 115/121/2 69/132/2 87/102/2
f 115/121/2 129/95/4 68/130/4 69/132/2
f 85/135/2 77/119/2 125/122/2 128/70/2
f 83/75/2 84/136/2 127/69/2 126/76/2
f 84/136/2 85/135/2 128/70/2 127/69/2
f 86/88/2 72/73/2 126/76/2 88/81/2
f 9/137/6 3/138/6 70/139/6 76/140/6
f 4/141/7 8/142/8 75/143/8 71/144/7
f 7/145/9 6/146/10 73/147/10 74/148/9
f 8/142/8 7/145/9 74/148/9 75/143/8
f 6/146/10 9/149/11 76/150/11 73/147/10
f 15/151/12 12/152/13 79/153/13 82/154/12
f 14/155/14 15/151/12 82/154/12 81/156/14
f 31/157/15 30/158/16 96/159/16 97/160/15
f 30/158/16 32/161/17 98/162/17 96/159/16
f 3/163/18 27/164/18 93/165/18 70/166/18
f 34/167/19 36/168/20 102/169/20 100/170/19
f 32/161/17 34/167/19 100/170/19 98/162/17
f 13/171/21 14/155/14 81/156/14 80/172/21
f 11/173/22 13/171/21 80/172/21 78/174/22
f 26/175/23 31/157/15 97/160/15 92/176/23
f 27/164/18 29/177/18 95/178/18 93/165/18
f 36/168/20 28/179/13 94/180/13 102/169/20
f 29/177/18 11/173/22 78/174/22 95/178/18
f 54/181/24 55/182/25 119/183/25 118/184/24
f 17/185/26 18/186/27 85/187/27 84/188/26
f 44/189/28 43/190/29 108/191/29 109/192/28
f 40/193/30 4/194/18 71/195/18 105/196/30
f 41/197/31 40/193/30 105/196/30 106/198/31
f 39/199/32 41/197/33 106/198/33 235/200/34
f 19/201/35 49/202/35 245/203/35 215/204/35
f 56/205/18 54/181/24 118/184/24 120/206/18
f 58/207/36 57/208/37 121/209/37 122/210/36
f 42/211/38 38/212/39 104/213/39 107/214/38
f 53/215/17 52/216/17 116/217/17 117/218/17
f 18/186/27 10/219/40 77/220/40 85/187/27
f 37/221/41 16/222/42 83/223/42 103/224/41
f 52/216/17 5/225/17 72/226/17 116/217/17
f 5/227/43 37/228/43 103/229/43 72/230/43
f 16/222/42 17/185/26 84/188/26 83/223/42
f 43/190/29 42/211/38 107/214/38 108/191/29
f 57/208/37 56/205/18 120/206/18 121/209/37
f 49/202/35 39/199/32 235/200/34 245/203/35
f 38/212/39 53/215/17 117/218/17 104/213/39
f 10/231/17 60/232/44 123/233/44 77/234/17
f 60/232/44 61/235/45 124/236/45 123/233/44
f 61/235/46 59/237/47 255/238/48 124/236/46
f 59/237/47 66/239/35 262/240/35 255/238/48
f 12/152/13 44/189/28 109/192/28 79/153/13
f 28/179/13 58/207/36 122/210/36 94/180/13
f 55/182/25 26/241/23 92/242/23 119/183/25
f 66/239/35 19/201/35 215/204/35 262/240/35
f 193/243/49 194/244/49 153/245/49 152/246/49
f 134/247/49 166/248/49 144/249/49 192/250/49
f 132/251/49 175/252/49 135/253/49 138/254/49
f 192/250/49 193/243/49 152/246/49 151/255/49
f 170/256/49 179/257/49 178/258/49 168/259/49
f 164/260/49 181/261/49 134/247/49 149/262/49
f 164/260/49 149/262/49 132/251/49 156/263/49
f 157/264/49 187/265/49 181/261/49 164/260/49
f 190/266/49 188/267/49 195/268/49 196/269/49
f 169/270/49 154/271/49 179/257/49 170/256/49
f 176/272/49 152/246/49 153/245/49 177/273/49
f 175/252/49 151/255/49 152/246/49 176/272/49
f 133/274/49 174/275/49 154/271/49 169/270/49
f 177/273/49 153/245/49 150/276/49 174/275/49
f 186/277/49 185/278/49 167/279/49 182/280/49
f 145/281/49 162/282/49 142/283/49 143/284/49
f 159/285/49 141/286/49 142/283/49 160/287/49
f 161/288/49 140/289/49 141/286/49 159/285/49
f 145/290/49 173/291/49 172/292/49 162/282/49
f 139/293/49 189/294/49 180/295/49 191/296/49
f 183/297/49 184/298/49 172/292/49 171/299/49
f 194/244/49 191/296/49 150/276/49 153/245/49
f 160/287/49 142/283/49 162/282/49 155/300/49
f 165/301/49 156/263/49 158/302/49 163/303/49
f 185/278/49 183/297/49 171/299/49 167/279/49
f 157/264/49 164/260/49 156/263/49 165/301/49
f 184/298/49 155/300/49 162/282/49 172/292/49
f 163/303/49 158/302/49 140/289/49 161/288/49
f 179/257/49 130/304/49 148/305/49 178/258/49
f 174/275/49 150/276/49 131/306/49 154/271/49
f 154/271/49 131/306/49 130/304/49 179/257/49
f 187/265/49 186/277/49 182/280/49 181/261/49
f 189/294/49 190/266/49 196/269/49 180/295/49
f 137/307/49 177/273/49 174/275/49 133/274/49
f 135/253/49 175/252/49 176/272/49 136/308/49
f 136/308/49 176/272/49 177/273/49 137/307/49
f 149/262/49 151/255/49 175/252/49 132/251/49
f 196/269/49 195/268/49 148/305/49 130/304/49
f 191/296/49 180/295/49 131/306/49 150/276/49
f 180/295/49 196/269/49 130/304/49 131/306/49
f 147/309/49 139/293/49 191/296/49 194/244/49
f 144/249/49 146/310/49 193/243/49 192/250/49
f 146/310/49 147/309/49 194/244/49 193/243/49
f 149/262/49 134/247/49 192/250/49 151/255/49
f 260/311/50 219/312/50 220/313/50 261/314/50
f 201/315/50 259/316/50 212/317/50 233/318/50
f 199/319/50 205/320/50 202/321/50 242/322/50
f 259/316/50 218/323/50 219/312/50 260/311/50
f 237/324/50 235/325/50 245/326/50 246/327/50
f 231/328/50 216/329/50 201/315/50 248/330/50
f 231/328/50 223/331/50 199/319/50 216/329/50
f 224/332/50 231/328/50 248/330/50 254/333/50
f 257/334/50 263/335/50 262/336/50 255/337/50
f 236/338/50 237/324/50 246/327/50 221/339/50
f 243/340/50 244/341/50 220/313/50 219/312/50
f 242/322/50 243/340/50 219/312/50 218/323/50
f 200/342/50 236/338/50 221/339/50 241/343/50
f 244/341/50 241/343/50 217/344/50 220/313/50
f 253/345/50 249/346/50 234/347/50 252/348/50
f 208/349/50 211/350/50 210/351/50 229/352/50
f 226/353/50 227/354/50 210/351/50 209/355/50
f 228/356/50 226/353/50 209/355/50 207/357/50
f 208/358/50 229/352/50 239/359/50 240/360/50
f 206/361/50 258/362/50 247/363/50 256/364/50
f 250/365/50 238/366/50 239/359/50 251/367/50
f 261/314/50 220/313/50 217/344/50 258/362/50
f 227/354/50 222/368/50 229/352/50 210/351/50
f 232/369/50 230/370/50 225/371/50 223/331/50
f 252/348/50 234/347/50 238/366/50 250/365/50
f 224/332/50 232/369/50 223/331/50 231/328/50
f 251/367/50 239/359/50 229/352/50 222/368/50
f 230/370/50 228/356/50 207/357/50 225/371/50
f 246/327/50 245/326/50 215/372/50 197/373/50
f 241/343/50 221/339/50 198/374/50 217/344/50
f 221/339/50 246/327/50 197/373/50 198/374/50
f 254/333/50 248/330/50 249/346/50 253/345/50
f 256/364/50 247/363/50 263/335/50 257/334/50
f 204/375/50 200/342/50 241/343/50 244/341/50
f 202/321/50 203/376/50 243/340/50 242/322/50
f 203/376/50 204/375/50 244/341/50 243/340/50
f 216/329/50 199/319/50 242/322/50 218/323/50
f 263/335/50 197/373/50 215/372/50 262/336/50
f 258/362/50 217/344/50 198/374/50 247/363/50
f 247/363/50 198/374/50 197/373/50 263/335/50
f 214/377/50 261/314/50 258/362/50 206/361/50
f 212/317/50 259/316/50 260/311/50 213/378/50
f 213/378/50 260/311/50 261/314/50 214/377/50
f 216/329/50 218/323/50 259/316/50 201/315/50
f 138/379/51 205/380/51 199/381/51 132/382/51
f 133/383/52 200/384/52 204/385/53 137/386/53
f 136/387/54 203/388/54 202/389/55 135/390/55
f 137/386/53 204/385/53 203/388/54 136/387/54
f 135/390/55 202/389/55 205/391/56 138/392/56
f 143/393/57 211/394/57 208/395/58 145/396/58
f 142/397/59 210/398/59 211/394/57 143/393/57
f 160/399/60 227/400/60 226/401/61 159/402/61
f 159/402/61 226/401/61 228/403/17 161/404/17
f 132/405/18 199/406/18 223/407/18 156/408/18
f 163/409/62 230/410/62 232/411/63 165/412/63
f 161/404/17 228/403/17 230/410/62 163/409/62
f 141/413/64 209/414/64 210/398/59 142/397/59
f 140/415/65 207/416/65 209/414/64 141/413/64
f 155/417/66 222/418/66 227/400/60 160/399/60
f 156/408/18 223/407/18 225/419/18 158/420/18
f 165/412/63 232/411/63 224/421/58 157/422/58
f 158/420/18 225/419/18 207/416/65 140/415/65
f 183/423/67 250/424/67 251/425/68 184/426/68
f 146/427/69 213/428/69 214/429/70 147/430/70
f 173/431/71 240/432/71 239/433/72 172/434/72
f 169/435/73 236/436/73 200/437/18 133/438/18
f 170/439/74 237/440/74 236/436/73 169/435/73
f 168/441/75 235/442/75 237/440/76 170/439/76
f 148/443/66 215/444/66 245/445/66 178/446/66
f 185/447/18 252/448/18 250/424/67 183/423/67
f 187/449/77 254/450/77 253/451/78 186/452/78
f 171/453/79 238/454/79 234/455/80 167/456/80
f 182/457/17 249/458/17 248/459/17 181/460/17
f 147/430/70 214/429/70 206/461/81 139/462/81
f 166/463/82 233/464/82 212/465/83 144/466/83
f 181/460/17 248/459/17 201/467/17 134/468/17
f 134/469/84 201/470/84 233/471/84 166/472/84
f 144/466/83 212/465/83 213/428/69 146/427/69
f 172/434/72 239/433/72 238/454/79 171/453/79
f 186/452/78 253/451/78 252/448/18 185/447/18
f 178/446/66 245/445/66 235/442/75 168/441/75
f 167/456/80 234/455/80 249/458/17 182/457/17
f 139/473/17 206/474/17 256/475/85 189/476/85
f 189/476/85 256/475/85 257/477/86 190/478/86
f 190/478/87 257/477/87 255/479/88 188/480/88
f 188/480/88 255/479/88 262/481/66 195/482/66
f 145/396/58 208/395/58 240/432/71 173/431/71
f 157/422/58 224/421/58 254/450/77 187/449/77
f 184/426/68 251/425/68 222/483/66 155/484/66
f 195/482/66 262/481/66 215/444/66 148/443/66
f 321/485/89 322/486/90 337/487/90 338/488/89
f 370/489/91 372/490/92 286/491/92 284/492/91
f 360/493/93 362/494/94 276/495/94 274/496/93
f 305/497/95 332/498/96 331/499/97 289/500/97
f 293/501/98 295/502/99 366/503/99 364/504/98
f 299/505/91 324/506/91 325/507/92 301/508/92
f 291/509/94 293/501/98 364/504/98 362/494/94
f 313/510/100 335/511/101 312/512/102 317/513/103
f 293/501/98 328/514/98 327/515/99 295/502/99
f 314/516/89 313/510/100 354/517/104 352/518/89
f 289/500/97 290/519/93 360/493/93 358/520/97
f 347/521/91 285/522/91 287/523/92 348/524/92
f 346/525/105 283/526/105 285/522/91 347/521/91
f 345/527/99 281/528/99 283/526/105 346/525/105
f 344/529/98 279/530/98 281/528/99 345/527/99
f 343/531/94 277/532/94 279/530/98 344/529/98
f 342/533/93 275/534/93 277/532/94 343/531/94
f 341/535/97 273/536/97 275/534/93 342/533/93
f 349/537/106 310/538/106 273/536/97 341/535/97
f 338/488/89 267/539/89 269/540/107 339/541/108
f 337/487/90 265/542/90 267/539/89 338/488/89
f 373/543/106 358/520/97 272/544/97 303/545/106
f 288/546/109 305/497/95 373/543/106 356/547/109
f 362/494/94 364/504/98 278/548/98 276/495/94
f 354/517/104 313/510/100 317/513/103 309/549/110
f 295/502/99 297/550/105 368/551/105 366/503/99
f 290/519/93 330/552/93 329/553/94 291/509/94
f 335/511/101 336/554/89 321/485/89 320/555/100
f 340/556/109 271/557/109 310/538/106 349/537/106
f 305/497/95 289/500/97 358/520/97 373/543/106
f 321/485/89 338/488/89 339/541/108 320/555/100
f 352/518/89 354/517/104 268/558/107 266/559/89
f 336/554/89 314/516/89 316/560/90 333/561/90
f 297/550/105 299/505/91 370/489/91 368/551/105
f 335/511/101 313/510/100 314/516/89 336/554/89
f 320/555/100 323/562/103 319/563/111 335/511/101
f 354/517/104 309/549/110 288/564/112 356/565/113
f 339/541/108 318/566/114 323/562/103 320/555/100
f 358/520/97 360/493/93 274/496/93 272/544/97
f 297/550/105 326/567/105 324/506/91 299/505/91
f 366/503/99 368/551/105 282/568/105 280/569/99
f 299/505/91 301/508/92 372/490/92 370/489/91
f 289/500/97 331/499/97 330/552/93 290/519/93
f 339/541/108 340/570/115 292/571/116 318/566/114
f 356/547/109 373/543/106 303/545/106 270/572/109
f 311/573/95 294/574/97 331/499/97 332/498/96
f 294/574/97 296/575/93 330/552/93 331/499/97
f 296/575/93 298/576/94 329/553/94 330/552/93
f 298/576/94 300/577/98 328/514/98 329/553/94
f 300/577/98 302/578/99 327/515/99 328/514/98
f 302/578/99 304/579/105 326/567/105 327/515/99
f 306/580/91 308/581/92 325/507/92 324/506/91
f 304/579/105 306/580/91 324/506/91 326/567/105
f 292/582/109 340/556/109 349/537/106 311/573/95
f 336/554/89 333/561/90 322/486/90 321/485/89
f 269/540/107 271/583/117 340/570/115 339/541/108
f 311/573/95 349/537/106 341/535/97 294/574/97
f 294/574/97 341/535/97 342/533/93 296/575/93
f 296/575/93 342/533/93 343/531/94 298/576/94
f 298/576/94 343/531/94 344/529/98 300/577/98
f 300/577/98 344/529/98 345/527/99 302/578/99
f 302/578/99 345/527/99 346/525/105 304/579/105
f 304/579/105 346/525/105 347/521/91 306/580/91
f 306/580/91 347/521/91 348/524/92 308/581/92
f 291/509/94 329/553/94 328/514/98 293/501/98
f 364/504/98 366/503/99 280/569/99 278/548/98
f 314/516/89 352/518/89 350/584/90 316/560/90
f 335/511/101 334/585/118 307/586/119 312/512/102
f 268/558/107 354/517/104 356/565/113 270/587/117
f 290/519/93 291/509/94 362/494/94 360/493/93
f 295/502/99 327/515/99 326/567/105 297/550/105
f 350/584/90 352/518/89 266/559/89 264/588/90
f 368/551/105 370/489/91 284/492/91 282/568/105
f 335/511/101 319/563/111 315/589/120 334/585/118
f 404/590/121 418/591/121 337/487/90 322/486/90
f 452/592/122 391/593/122 393/594/123 453/595/123
f 447/596/124 381/597/124 383/598/125 448/599/125
f 436/600/126 397/601/127 413/602/127 414/603/128
f 430/604/129 449/605/129 450/606/130 431/607/130
f 433/608/122 434/609/123 407/610/123 406/611/122
f 400/612/125 448/599/125 449/605/129 430/604/129
f 440/613/131 442/614/132 439/615/133 416/616/134
f 430/604/129 431/607/130 409/617/130 410/618/129
f 441/619/121 443/620/121 444/621/135 440/613/131
f 397/601/127 446/622/127 447/596/124 398/623/124
f 427/624/122 428/625/123 371/626/123 369/627/122
f 426/628/136 427/624/122 369/627/122 367/629/136
f 425/630/130 426/628/136 367/629/136 365/631/130
f 424/632/129 425/630/130 365/631/130 363/633/129
f 423/634/125 424/632/129 363/633/129 361/635/125
f 422/636/124 423/634/125 361/635/125 359/637/124
f 421/638/127 422/636/124 359/637/124 357/639/127
f 429/640/137 421/638/127 357/639/127 394/641/137
f 418/591/121 419/642/138 353/643/139 351/644/121
f 337/487/90 418/591/121 351/644/121 265/542/90
f 454/645/137 435/646/137 379/647/127 446/622/127
f 396/648/140 445/649/140 454/645/137 436/600/126
f 448/599/125 383/598/125 385/650/129 449/605/129
f 444/621/135 438/651/141 442/614/132 440/613/131
f 431/607/130 450/606/130 451/652/136 432/653/136
f 398/623/124 400/612/125 411/654/125 412/655/124
f 416/616/134 403/656/131 404/590/121 417/657/121
f 420/658/140 429/640/137 394/641/137 355/659/140
f 436/600/126 454/645/137 446/622/127 397/601/127
f 404/590/121 403/656/131 419/642/138 418/591/121
f 350/584/90 264/588/90 374/660/121 443/620/121
f 417/657/121 333/561/90 316/560/90 441/619/121
f 432/653/136 451/652/136 452/592/122 433/608/122
f 416/616/134 417/657/121 441/619/121 440/613/131
f 403/656/131 416/616/134 402/661/142 405/662/132
f 444/621/135 445/663/143 396/664/144 438/651/141
f 419/642/138 403/656/131 405/662/132 401/665/145
f 446/622/127 379/647/127 381/597/124 447/596/124
f 432/653/136 433/608/122 406/611/122 408/666/136
f 450/606/130 387/667/130 389/668/136 451/652/136
f 433/608/122 452/592/122 453/595/123 434/609/123
f 397/601/127 398/623/124 412/655/124 413/602/127
f 419/642/138 401/665/145 376/669/146 420/670/147
f 445/649/140 377/671/140 435/646/137 454/645/137
f 395/672/126 414/603/128 413/602/127 378/673/127
f 378/673/127 413/602/127 412/655/124 380/674/124
f 380/674/124 412/655/124 411/654/125 382/675/125
f 382/675/125 411/654/125 410/618/129 384/676/129
f 384/676/129 410/618/129 409/617/130 386/677/130
f 386/677/130 409/617/130 408/666/136 388/678/136
f 390/679/122 406/611/122 407/610/123 392/680/123
f 388/678/136 408/666/136 406/611/122 390/679/122
f 376/681/140 395/672/126 429/640/137 420/658/140
f 417/657/121 404/590/121 322/486/90 333/561/90
f 353/643/139 419/642/138 420/670/147 355/682/148
f 395/672/126 378/673/127 421/638/127 429/640/137
f 378/673/127 380/674/124 422/636/124 421/638/127
f 380/674/124 382/675/125 423/634/125 422/636/124
f 382/675/125 384/676/129 424/632/129 423/634/125
f 384/676/129 386/677/130 425/630/130 424/632/129
f 386/677/130 388/678/136 426/628/136 425/630/130
f 388/678/136 390/679/122 427/624/122 426/628/136
f 390/679/122 392/680/123 428/625/123 427/624/122
f 400/612/125 430/604/129 410/618/129 411/654/125
f 449/605/129 385/650/129 387/667/130 450/606/130
f 441/619/121 316/560/90 350/584/90 443/620/121
f 416/616/134 439/615/133 437/683/149 415/684/150
f 375/685/139 377/686/148 445/663/143 444/621/135
f 398/623/124 447/596/124 448/599/125 400/612/125
f 431/607/130 432/653/136 408/666/136 409/617/130
f 443/620/121 374/660/121 375/685/139 444/621/135
f 451/652/136 389/668/136 391/593/122 452/592/122
f 416/616/134 415/684/150 399/687/151 402/661/142
f 512/688/152 529/689/152 528/690/153 513/691/153
f 561/692/154 475/693/154 477/694/155 563/695/155
f 551/696/129 465/697/129 467/698/125 553/699/125
f 496/700/156 480/701/157 522/702/157 523/703/158
f 484/704/124 555/705/124 557/706/159 486/707/159
f 490/708/154 492/709/155 516/710/155 515/711/154
f 482/712/125 553/699/125 555/705/124 484/704/124
f 504/713/160 508/714/161 503/715/162 526/716/163
f 484/704/124 486/707/159 518/717/159 519/718/124
f 505/719/152 543/720/152 545/721/164 504/713/160
f 480/701/157 549/722/157 551/696/129 481/723/129
f 538/724/154 539/725/155 478/726/155 476/727/154
f 537/728/165 538/724/154 476/727/154 474/729/165
f 536/730/159 537/728/165 474/729/165 472/731/159
f 535/732/124 536/730/159 472/731/159 470/733/124
f 534/734/125 535/732/124 470/733/124 468/735/125
f 533/736/129 534/734/125 468/735/125 466/737/129
f 532/738/157 533/736/129 466/737/129 464/739/166
f 540/740/167 532/738/157 464/739/166 501/741/168
f 529/689/152 530/742/169 460/743/170 458/744/152
f 528/690/153 529/689/152 458/744/152 456/745/153
f 564/746/171 494/747/168 463/748/166 549/722/157
f 479/749/172 547/750/173 564/746/171 496/700/156
f 553/699/125 467/698/125 469/751/124 555/705/124
f 545/721/164 500/752/174 508/714/161 504/713/160
f 486/707/159 557/706/159 559/753/165 488/754/165
f 481/723/129 482/712/125 520/755/125 521/756/129
f 526/716/163 511/757/160 512/688/152 527/758/152
f 531/759/175 540/740/167 501/741/168 462/760/176
f 496/700/156 564/746/171 549/722/157 480/701/157
f 512/688/152 511/757/160 530/742/169 529/689/152
f 543/720/152 457/761/152 459/762/170 545/721/164
f 527/758/152 524/763/153 507/764/153 505/719/152
f 488/754/165 559/753/165 561/692/154 490/708/154
f 526/716/163 527/758/152 505/719/152 504/713/160
f 511/757/160 526/716/163 510/765/177 514/766/161
f 545/721/164 547/767/178 479/768/179 500/752/174
f 530/742/169 511/757/160 514/766/161 509/769/180
f 549/722/157 463/748/166 465/697/129 551/696/129
f 488/754/165 490/708/154 515/711/154 517/770/165
f 557/706/159 471/771/159 473/772/165 559/753/165
f 490/708/154 561/692/154 563/695/155 492/709/155
f 480/701/157 481/723/129 521/756/129 522/702/157
f 530/742/169 509/769/180 483/773/181 531/774/182
f 547/750/173 461/775/176 494/747/168 564/746/171
f 502/776/183 523/703/158 522/702/157 485/777/157
f 485/777/157 522/702/157 521/756/129 487/778/129
f 487/778/129 521/756/129 520/755/125 489/779/125
f 489/779/125 520/755/125 519/718/124 491/780/124
f 491/780/124 519/718/124 518/717/159 493/781/159
f 493/781/159 518/717/159 517/770/165 495/782/165
f 497/783/154 515/711/154 516/710/155 499/784/155
f 495/782/165 517/770/165 515/711/154 497/783/154
f 483/785/184 502/776/183 540/740/167 531/759/175
f 527/758/152 512/688/152 513/691/153 524/763/153
f 460/743/170 530/742/169 531/774/182 462/786/185
f 502/776/183 485/777/157 532/738/157 540/740/167
f 485/777/157 487/778/129 533/736/129 532/738/157
f 487/778/129 489/779/125 534/734/125 533/736/129
f 489/779/125 491/780/124 535/732/124 534/734/125
f 491/780/124 493/781/159 536/730/159 535/732/124
f 493/781/159 495/782/165 537/728/165 536/730/159
f 495/782/165 497/783/154 538/724/154 537/728/165
f 497/783/154 499/784/155 539/725/155 538/724/154
f 482/712/125 484/704/124 519/718/124 520/755/125
f 555/705/124 469/751/124 471/771/159 557/706/159
f 505/719/152 507/764/153 541/787/153 543/720/152
f 526/716/163 503/715/162 498/788/186 525/789/187
f 459/762/170 461/790/185 547/767/178 545/721/164
f 481/723/129 551/696/129 553/699/125 482/712/125
f 486/707/159 488/754/165 517/770/165 518/717/159
f 541/787/153 455/791/153 457/761/152 543/720/152
f 559/753/165 473/772/165 475/693/154 561/692/154
f 526/716/163 525/789/187 506/792/188 510/765/177
f 595/793/189 513/691/153 528/690/153 609/794/189
f 643/795/190 644/796/191 584/797/191 582/798/190
f 638/799/98 639/800/94 574/801/94 572/802/98
f 627/803/192 605/804/193 604/805/194 588/806/194
f 621/807/93 622/808/195 641/809/195 640/810/93
f 624/811/190 597/812/190 598/813/191 625/814/191
f 591/815/94 621/807/93 640/810/93 639/800/94
f 631/816/196 607/817/197 630/818/198 633/819/199
f 621/807/93 601/820/93 600/821/195 622/808/195
f 632/822/189 631/816/196 635/823/200 634/824/189
f 588/806/194 589/825/98 638/799/98 637/826/201
f 618/827/190 560/828/190 562/829/191 619/830/191
f 617/831/202 558/832/202 560/828/190 618/827/190
f 616/833/195 556/834/195 558/832/202 617/831/202
f 615/835/93 554/836/93 556/834/195 616/833/195
f 614/837/94 552/838/94 554/836/93 615/835/93
f 613/839/98 550/840/98 552/838/94 614/837/94
f 612/841/201 548/842/201 550/840/98 613/839/98
f 620/843/203 585/844/204 548/842/201 612/841/201
f 609/794/189 542/845/189 544/846/205 610/847/206
f 528/690/153 456/745/153 542/845/189 609/794/189
f 645/848/207 637/826/201 570/849/201 626/850/204
f 587/851/208 627/803/192 645/848/207 636/852/209
f 639/800/94 640/810/93 576/853/93 574/801/94
f 635/823/200 631/816/196 633/819/199 629/854/210
f 622/808/195 623/855/202 642/856/202 641/809/195
f 589/825/98 603/857/98 602/858/94 591/815/94
f 607/817/197 608/859/189 595/793/189 594/860/196
f 611/861/211 546/862/212 585/844/204 620/843/203
f 627/803/192 588/806/194 637/826/201 645/848/207
f 595/793/189 609/794/189 610/847/206 594/860/196
f 541/787/153 634/824/189 565/863/189 455/791/153
f 608/859/189 632/822/189 507/764/153 524/763/153
f 623/855/202 624/811/190 643/795/190 642/856/202
f 607/817/197 631/816/196 632/822/189 608/859/189
f 594/860/196 596/864/199 593/865/213 607/817/197
f 635/823/200 629/854/210 587/866/214 636/867/215
f 610/847/206 592/868/216 596/864/199 594/860/196
f 637/826/201 638/799/98 572/802/98 570/849/201
f 623/855/202 599/869/202 597/812/190 624/811/190
f 641/809/195 642/856/202 580/870/202 578/871/195
f 624/811/190 625/814/191 644/796/191 643/795/190
f 588/806/194 604/805/194 603/857/98 589/825/98
f 610/847/206 611/872/217 567/873/218 592/868/216
f 636/852/209 645/848/207 626/850/204 568/874/212
f 586/875/219 569/876/194 604/805/194 605/804/193
f 569/876/194 571/877/98 603/857/98 604/805/194
f 571/877/98 573/878/94 602/858/94 603/857/98
f 573/878/94 575/879/93 601/820/93 602/858/94
f 575/879/93 577/880/195 600/821/195 601/820/93
f 577/880/195 579/881/202 599/869/202 600/821/195
f 581/882/190 583/883/191 598/813/191 597/812/190
f 579/881/202 581/882/190 597/812/190 599/869/202
f 567/884/220 611/861/211 620/843/203 586/875/219
f 608/859/189 524/763/153 513/691/153 595/793/189
f 544/846/205 546/885/221 611/872/217 610/847/206
f 586/875/219 620/843/203 612/841/201 569/876/194
f 569/876/194 612/841/201 613/839/98 571/877/98
f 571/877/98 613/839/98 614/837/94 573/878/94
f 573/878/94 614/837/94 615/835/93 575/879/93
f 575/879/93 615/835/93 616/833/195 577/880/195
f 577/880/195 616/833/195 617/831/202 579/881/202
f 579/881/202 617/831/202 618/827/190 581/882/190
f 581/882/190 618/827/190 619/830/191 583/883/191
f 591/815/94 602/858/94 601/820/93 621/807/93
f 640/810/93 641/809/195 578/871/195 576/853/93
f 632/822/189 634/824/189 541/787/153 507/764/153
f 607/817/197 606/886/222 628/887/223 630/818/198
f 566/888/205 635/823/200 636/867/215 568/889/221
f 589/825/98 591/815/94 639/800/94 638/799/98
f 622/808/195 600/821/195 599/869/202 623/855/202
f 634/824/189 635/823/200 566/888/205 565/863/189
f 642/856/202 643/795/190 582/798/190 580/870/202
f 607/817/197 593/865/213 590/890/224 606/886/222
f 264/891/17 266/892/17 457/893/17 455/894/17
f 267/895/18 265/896/18 456/897/18 458/898/18
f 266/892/17 268/899/17 459/900/17 457/893/17
f 269/901/18 267/895/18 458/898/18 460/902/18
f 310/903/18 271/904/18 462/905/18 501/906/18
f 275/907/18 273/908/18 464/909/18 466/910/18
f 277/911/18 275/907/18 466/910/18 468/912/18
f 279/913/18 277/911/18 468/912/18 470/914/18
f 281/915/18 279/913/18 470/914/18 472/916/18
f 288/917/225 309/918/226 500/919/227 479/920/225
f 283/921/18 281/915/18 472/916/18 474/922/18
f 272/923/17 274/924/17 465/925/17 463/926/17
f 285/927/18 283/921/18 474/922/18 476/928/18
f 274/924/17 276/929/17 467/930/17 465/925/17
f 287/931/18 285/927/18 476/928/18 478/932/18
f 278/933/17 280/934/17 471/935/17 469/936/17
f 282/937/17 284/938/17 475/939/17 473/940/17
f 318/941/228 292/942/229 483/943/229 509/944/230
f 308/945/231 348/946/231 539/947/231 499/948/231
f 303/949/17 272/923/17 463/926/17 494/950/17
f 273/908/18 310/903/18 501/906/18 464/909/18
f 292/942/232 311/951/232 502/952/232 483/943/232
f 334/953/233 315/954/233 506/955/233 525/956/233
f 286/957/231 372/958/231 563/959/231 477/960/231
f 312/961/234 307/962/234 498/963/234 503/964/234
f 284/938/17 286/965/17 477/966/17 475/939/17
f 271/904/18 269/901/18 460/902/18 462/905/18
f 315/967/235 319/968/235 510/969/235 506/970/235
f 319/968/236 323/971/236 514/972/236 510/969/236
f 280/934/17 282/937/17 473/940/17 471/935/17
f 323/971/237 318/941/228 509/944/230 514/972/237
f 305/973/238 288/917/238 479/920/238 496/974/238
f 276/929/17 278/933/17 469/936/17 467/930/17
f 325/975/231 308/945/231 499/948/231 516/976/231
f 311/977/239 332/978/240 523/979/240 502/980/239
f 270/981/17 303/949/17 494/950/17 461/982/17
f 348/946/231 287/983/231 478/984/231 539/947/231
f 372/958/231 301/985/231 492/986/231 563/959/231
f 317/987/241 312/961/241 503/964/241 508/988/241
f 309/918/226 317/987/242 508/988/242 500/919/227
f 268/899/17 270/981/17 461/982/17 459/900/17
f 351/989/18 353/990/18 544/991/18 542/992/18
f 355/993/18 394/994/18 585/995/18 546/996/18
f 357/997/18 359/998/18 550/999/18 548/1000/18
f 359/998/18 361/1001/18 552/1002/18 550/999/18
f 361/1001/18 363/1003/18 554/1004/18 552/1002/18
f 363/1003/18 365/1005/18 556/1006/18 554/1004/18
f 365/1005/18 367/1007/18 558/1008/18 556/1006/18
f 367/1007/18 369/1009/18 560/1010/18 558/1008/18
f 369/1009/18 371/1011/18 562/1012/18 560/1010/18
f 383/1013/17 381/1014/17 572/1015/17 574/1016/17
f 377/1017/17 375/1018/17 566/1019/17 568/1020/17
f 376/1021/243 401/1022/244 592/1023/245 567/1024/243
f 428/1025/246 392/1026/246 583/1027/246 619/1028/246
f 434/1029/246 453/1030/246 644/1031/246 625/1032/246
f 394/994/18 357/997/18 548/1000/18 585/995/18
f 395/1033/247 376/1021/247 567/1024/247 586/1034/247
f 399/1035/248 415/1036/248 606/1037/248 590/1038/248
f 353/990/18 355/993/18 546/996/18 544/991/18
f 402/1039/249 399/1040/249 590/1041/249 593/1042/249
f 405/1043/250 402/1039/250 593/1042/250 596/1044/250
f 401/1022/244 405/1043/251 596/1044/251 592/1023/245
f 392/1026/246 407/1045/246 598/1046/246 583/1027/246
f 396/1047/252 436/1048/252 627/1049/252 587/1050/252
f 414/1051/253 395/1052/254 586/1053/254 605/1054/253
f 387/1055/17 385/1056/17 576/1057/17 578/1058/17
f 435/1059/17 377/1017/17 568/1020/17 626/1060/17
f 391/1061/17 389/1062/17 580/1063/17 582/1064/17
f 371/1065/246 428/1025/246 619/1028/246 562/1066/246
f 379/1067/17 435/1059/17 626/1060/17 570/1068/17
f 439/1069/255 442/1070/255 633/1071/255 630/1072/255
f 442/1070/256 438/1073/257 629/1074/258 633/1071/256
f 437/1075/259 439/1069/259 630/1072/259 628/1076/259
f 389/1062/17 387/1055/17 578/1058/17 580/1063/17
f 381/1014/17 379/1067/17 570/1068/17 572/1015/17
f 375/1018/17 374/1077/17 565/1078/17 566/1019/17
f 393/1079/17 391/1061/17 582/1064/17 584/1080/17
f 385/1056/17 383/1013/17 574/1016/17 576/1057/17
f 265/896/18 351/989/18 542/992/18 456/897/18
f 438/1073/257 396/1047/260 587/1050/260 629/1074/258
f 453/1030/246 393/1081/246 584/1082/246 644/1031/246
f 374/1077/17 264/891/17 455/894/17 565/1078/17
f 307/1083/233 334/953/233 525/956/233 498/1084/233
f 332/978/240 305/1085/261 496/1086/261 523/979/240
f 301/985/231 325/975/231 516/976/231 492/986/231
f 415/1036/248 437/1087/248 628/1088/248 606/1037/248
f 436/1089/262 414/1051/253 605/1054/253 627/1090/262
f 407/1045/246 434/1029/246 625/1032/246 598/1046/246
