# Blender 4.0.2
# www.blender.org
o bottle_01
v -0.013377 0.075672 0.005541
v -0.005541 0.075672 0.013377
v -0.010238 0.075672 0.010238
v -0.005541 0.075672 -0.013377
v -0.013377 0.075672 -0.005541
v -0.010238 0.075672 -0.010238
v 0.005541 0.075672 0.013377
v 0.013377 0.075672 0.005541
v 0.010238 0.075672 0.010238
v 0.013377 0.075672 -0.005541
v 0.005541 0.075672 -0.013377
v 0.010238 0.075672 -0.010238
v -0.011159 0.060441 0.018287
v -0.018287 0.060441 0.011159
v -0.016199 0.060441 0.016199
v -0.018287 0.060441 -0.011159
v -0.011159 0.060441 -0.018287
v -0.016199 0.060441 -0.016199
v 0.011159 0.060441 -0.018287
v 0.018287 0.060441 -0.011159
v 0.016199 0.060441 -0.016199
v 0.018287 0.060441 0.011159
v 0.011159 0.060441 0.018287
v 0.016199 0.060441 0.016199
v -0.013774 0.070653 0.005705
v -0.005705 0.070653 0.013774
v -0.010542 0.070653 0.010542
v -0.005705 0.070653 -0.013774
v -0.013774 0.070653 -0.005705
v -0.010542 0.070653 -0.010542
v 0.013774 0.070653 -0.005705
v 0.005705 0.070653 -0.013774
v 0.010542 0.070653 -0.010542
v 0.005705 0.070653 0.013774
v 0.013774 0.070653 0.005705
v 0.010542 0.070653 0.010542
v -0.016912 0.065993 -0.009636
v -0.009636 0.065993 -0.016912
v -0.014659 0.065993 -0.014659
v 0.009636 0.065993 -0.016912
v 0.016912 0.065993 -0.009636
v 0.014659 0.065993 -0.014659
v 0.016912 0.065993 0.009636
v 0.009636 0.065993 0.016912
v 0.014659 0.065993 0.014659
v -0.016912 0.065993 0.009636
v -0.009636 0.065993 0.016912
v -0.014659 0.065993 0.014659
v 0.014479 0.075672 0.000000
v 0.018287 0.060441 0.000000
v 0.014909 0.070653 0.000000
v 0.017070 0.065993 0.000000
v 0.000000 0.060441 0.018287
v 0.000000 0.070653 0.014909
v 0.000000 0.075672 0.014479
v 0.000000 0.065993 0.017070
v -0.018287 0.060441 0.000000
v -0.014909 0.070653 -0.000000
v -0.014479 0.075672 0.000000
v -0.017070 0.065993 -0.000000
v 0.000000 0.075672 -0.014479
v 0.000000 0.060441 -0.018287
v 0.000000 0.070653 -0.014909
v 0.000000 0.065993 -0.017070
v -0.008171 0.000000 0.009517
v -0.011166 0.005970 0.018287
v -0.010819 0.001749 0.016538
v -0.009517 0.000000 0.008170
v -0.018287 0.005970 0.011166
v -0.016538 0.001749 0.010819
v -0.009179 0.000000 0.009179
v -0.016201 0.005970 0.016201
v -0.014863 0.001749 0.014863
v -0.009517 0.000000 -0.008170
v -0.018287 0.005970 -0.011166
v -0.016538 0.001749 -0.010819
v -0.008171 0.000000 -0.009517
v -0.011166 0.005970 -0.018287
v -0.010819 0.001749 -0.016538
v -0.009179 0.000000 -0.009179
v -0.016201 0.005970 -0.016201
v -0.014863 0.001749 -0.014863
v 0.009517 0.000000 0.008170
v 0.018287 0.005970 0.011166
v 0.016538 0.001749 0.010819
v 0.008171 0.000000 0.009517
v 0.011166 0.005970 0.018287
v 0.010819 0.001749 0.016538
v 0.009179 0.000000 0.009179
v 0.016201 0.005970 0.016201
v 0.014863 0.001749 0.014863
v 0.008171 0.000000 -0.009517
v 0.011166 0.005970 -0.018287
v 0.010819 0.001749 -0.016538
v 0.009517 0.000000 -0.008170
v 0.018287 0.005970 -0.011166
v 0.016538 0.001749 -0.010819
v 0.009179 0.000000 -0.009179
v 0.016201 0.005970 -0.016201
v 0.014863 0.001749 -0.014863
v 0.009517 0.000000 0.000000
v 0.018287 0.005970 0.000000
v 0.016538 0.001749 0.000000
v 0.000000 0.000000 0.009517
v 0.000000 0.005970 0.018287
v 0.000000 0.001749 0.016538
v -0.018287 0.005970 0.000000
v -0.009517 0.000000 0.000000
v -0.016538 0.001749 0.000000
v 0.000000 0.000000 -0.009517
v 0.000000 0.005970 -0.018287
v 0.000000 0.001749 -0.016538
v 0.000000 0.000000 0.000000
v -0.011163 0.033205 0.018287
v -0.016200 0.033205 0.016200
v 0.000000 0.033205 0.018287
v -0.018287 0.033205 0.011163
v -0.018287 0.033205 0.000000
v -0.016200 0.033205 -0.016200
v -0.018287 0.033205 -0.011163
v -0.011163 0.033205 -0.018287
v 0.000000 0.033205 -0.018287
v 0.016200 0.033205 0.016200
v 0.018287 0.033205 0.011163
v 0.018287 0.033205 0.000000
v 0.011163 0.033205 0.018287
v 0.016200 0.033205 -0.016200
v 0.011163 0.033205 -0.018287
v 0.018287 0.033205 -0.011163
v 0.000000 0.075672 -0.016783
v 0.000000 0.091122 -0.007780
v 0.006422 0.075672 -0.015505
v 0.002977 0.091122 -0.007188
v 0.011867 0.075672 -0.011867
v 0.005501 0.091122 -0.005501
v 0.015505 0.075672 -0.006422
v 0.007188 0.091122 -0.002977
v 0.016783 0.075672 0.000000
v 0.007780 0.091122 0.000000
v 0.015505 0.075672 0.006422
v 0.007188 0.091122 0.002977
v 0.011867 0.075672 0.011867
v 0.005501 0.091122 0.005501
v 0.006422 0.075672 0.015505
v 0.002977 0.091122 0.007188
v 0.000000 0.075672 0.016783
v 0.000000 0.091122 0.007780
v -0.006422 0.075672 0.015505
v -0.002977 0.091122 0.007188
v -0.011867 0.075672 0.011867
v -0.005501 0.091122 0.005501
v -0.015505 0.075672 0.006422
v -0.007188 0.091122 0.002977
v -0.016783 0.075672 0.000000
v -0.007780 0.091122 0.000000
v -0.015505 0.075672 -0.006422
v -0.007188 0.091122 -0.002977
v -0.011867 0.075672 -0.011867
v -0.005501 0.091122 -0.005501
v -0.006422 0.075672 -0.015505
v -0.002977 0.091122 -0.007188
v 0.000000 0.091122 -0.000000
v 0.004894 0.091122 -0.011816
v 0.006422 0.087206 -0.015505
v 0.005975 0.089975 -0.014424
v 0.000000 0.087206 -0.016783
v 0.000000 0.091122 -0.012789
v 0.000000 0.089975 -0.015613
v 0.009043 0.091122 -0.009043
v 0.011867 0.087206 -0.011867
v 0.011040 0.089975 -0.011040
v 0.011816 0.091122 -0.004894
v 0.015505 0.087206 -0.006422
v 0.014425 0.089975 -0.005975
v 0.012789 0.091122 0.000000
v 0.016783 0.087206 0.000000
v 0.015613 0.089975 0.000000
v 0.011816 0.091122 0.004894
v 0.015505 0.087206 0.006422
v 0.014425 0.089975 0.005975
v 0.009043 0.091122 0.009043
v 0.011867 0.087206 0.011867
v 0.011040 0.089975 0.011040
v 0.004894 0.091122 0.011816
v 0.006422 0.087206 0.015505
v 0.005975 0.089975 0.014424
v 0.000000 0.091122 0.012789
v 0.000000 0.087206 0.016783
v 0.000000 0.089975 0.015613
v -0.004894 0.091122 0.011816
v -0.006422 0.087206 0.015505
v -0.005975 0.089975 0.014424
v -0.009043 0.091122 0.009043
v -0.011867 0.087206 0.011867
v -0.011040 0.089975 0.011040
v -0.011816 0.091122 0.004894
v -0.015505 0.087206 0.006422
v -0.014425 0.089975 0.005975
v -0.012789 0.091122 0.000000
v -0.016783 0.087206 0.000000
v -0.015613 0.089975 0.000000
v -0.011816 0.091122 -0.004894
v -0.015505 0.087206 -0.006422
v -0.014425 0.089975 -0.005975
v -0.009043 0.091122 -0.009043
v -0.011867 0.087206 -0.011867
v -0.011040 0.089975 -0.011040
v -0.004894 0.091122 -0.011816
v -0.006422 0.087206 -0.015505
v -0.005975 0.089975 -0.014424
v -0.010620 0.063298 -0.017910
v -0.015766 0.063311 -0.015766
v -0.017910 0.063298 -0.010620
v 0.017910 0.063298 -0.010620
v 0.015766 0.063311 -0.015766
v 0.010620 0.063298 -0.017910
v 0.010620 0.063298 0.017910
v 0.015766 0.063311 0.015766
v 0.017910 0.063298 0.010620
v -0.010620 0.063298 0.017910
v -0.015766 0.063311 0.015766
v -0.017910 0.063298 0.010620
v 0.017892 0.063282 0.000000
v 0.000000 0.063282 0.017892
v -0.017892 0.063282 -0.000000
v 0.000000 0.063282 -0.017892
v -0.009314 0.000000 -0.012317
v -0.011489 0.000000 -0.011489
v -0.012317 0.000000 -0.009313
v 0.012317 0.000000 -0.009313
v 0.011489 0.000000 -0.011489
v 0.009314 0.000000 -0.012317
v 0.009314 0.000000 0.012317
v 0.011489 0.000000 0.011489
v 0.012317 0.000000 0.009313
v -0.011489 0.000000 0.011489
v -0.009314 0.000000 0.012317
v -0.012317 0.000000 0.009313
v -0.012317 0.000000 0.000000
v 0.000000 0.000000 -0.012317
v 0.012317 0.000000 0.000000
v 0.000000 0.000000 0.012317
vn 0.1951 -0.0000 0.9808
vn 0.2034 0.0840 0.9755
vn -0.0000 0.0672 0.9977
vn -0.0000 -0.0000 1.0000
vn -0.0000 0.2281 0.9736
vn -0.0000 0.4205 0.9073
vn -0.2022 0.5316 0.8225
vn -0.1938 0.2836 0.9392
vn -0.9481 0.3179 -0.0000
vn -0.9964 0.0853 -0.0000
vn -0.9205 0.0853 -0.3813
vn -0.8790 0.3806 -0.2872
vn 0.9808 -0.0000 -0.1951
vn 0.9755 0.0840 -0.2034
vn 0.9977 0.0672 -0.0000
vn 1.0000 -0.0000 -0.0000
vn -0.0000 0.3179 0.9481
vn -0.0000 0.0853 0.9964
vn -0.3813 0.0853 0.9205
vn -0.2872 0.3806 0.8790
vn 0.9481 0.3179 -0.0000
vn 0.9964 0.0853 -0.0000
vn 0.9205 0.0853 0.3813
vn 0.8790 0.3806 0.2872
vn -0.0000 0.3179 -0.9481
vn -0.0000 0.0853 -0.9964
vn 0.3813 0.0853 -0.9205
vn 0.2872 0.3806 -0.8790
vn -0.7071 0.0001 0.7071
vn -0.7034 0.1016 0.7034
vn -0.9755 0.0840 0.2034
vn -0.9808 -0.0000 0.1951
vn -0.0000 0.4205 -0.9073
vn 0.2022 0.5316 -0.8225
vn 0.9073 0.4205 -0.0000
vn 0.8225 0.5316 0.2022
vn -0.0000 0.2281 -0.9736
vn 0.1938 0.2836 -0.9392
vn 0.9736 0.2281 -0.0000
vn 0.9392 0.2836 0.1938
vn -0.9073 0.4205 -0.0000
vn -0.8225 0.5316 -0.2022
vn -0.9736 0.2281 -0.0000
vn -0.9392 0.2836 -0.1938
vn -0.7045 0.0853 0.7045
vn -0.6239 0.4707 0.6239
vn -0.9205 0.0853 0.3813
vn -0.8790 0.3806 0.2872
vn 0.7071 0.0001 0.7071
vn 0.6929 -0.1994 0.6929
vn 0.9622 -0.1938 0.1914
vn 0.9808 -0.0000 0.1951
vn -1.0000 -0.0000 -0.0000
vn -0.9977 0.0672 -0.0000
vn -0.9755 0.0840 -0.2034
vn -0.9808 -0.0000 -0.1951
vn -0.0000 -0.0000 -1.0000
vn -0.0000 0.0672 -0.9977
vn 0.2034 0.0840 -0.9755
vn 0.1951 -0.0000 -0.9808
vn 0.7071 0.0001 -0.7071
vn 0.6929 -0.1994 -0.6929
vn 0.1914 -0.1938 -0.9622
vn 0.9755 0.0840 0.2034
vn -0.2034 0.0840 0.9755
vn -0.1951 -0.0000 0.9808
vn -0.1938 0.2836 -0.9392
vn -0.2034 0.0840 -0.9755
vn -0.7034 0.1016 -0.7034
vn -0.6655 0.3380 -0.6655
vn 0.9392 0.2836 -0.1938
vn 0.7034 0.1016 -0.7034
vn 0.6655 0.3380 -0.6655
vn 0.1938 0.2836 0.9392
vn 0.7034 0.1016 0.7034
vn 0.6655 0.3380 0.6655
vn -0.5607 0.6094 0.5607
vn -0.8225 0.5316 0.2022
vn -0.3813 0.0853 -0.9205
vn -0.2872 0.3806 -0.8790
vn -0.6239 0.4707 -0.6239
vn -0.7045 0.0853 -0.7045
vn 0.9205 0.0853 -0.3813
vn 0.8790 0.3806 -0.2872
vn 0.6239 0.4707 -0.6239
vn 0.7045 0.0853 -0.7045
vn 0.3813 0.0853 0.9205
vn 0.2872 0.3806 0.8790
vn 0.6239 0.4707 0.6239
vn 0.7045 0.0853 0.7045
vn -0.2022 0.5316 -0.8225
vn -0.5607 0.6094 -0.5607
vn 0.8225 0.5316 -0.2022
vn 0.5607 0.6094 -0.5607
vn 0.2022 0.5316 0.8225
vn 0.5607 0.6094 0.5607
vn -0.6655 0.3380 0.6655
vn -0.9392 0.2836 0.1938
vn -0.1951 -0.0000 -0.9808
vn 0.9622 -0.1938 -0.1914
vn 0.1914 -0.1938 0.9622
vn -0.7071 0.0001 -0.7071
vn -0.6929 -0.1994 -0.6929
vn -0.9622 -0.1938 -0.1914
vn -0.1914 -0.1938 -0.9622
vn -0.0355 -0.9779 -0.2060
vn -0.1538 -0.9761 -0.1538
vn -0.5135 -0.6874 -0.5135
vn -0.1427 -0.6917 -0.7079
vn -0.2059 -0.9779 -0.0355
vn -0.7079 -0.6917 -0.1427
vn 0.2059 -0.9779 -0.0355
vn 0.1538 -0.9761 -0.1538
vn 0.5135 -0.6874 -0.5135
vn 0.7079 -0.6917 -0.1427
vn 0.0355 -0.9779 -0.2060
vn 0.1427 -0.6917 -0.7079
vn 0.0355 -0.9779 0.2060
vn 0.1538 -0.9761 0.1538
vn 0.5135 -0.6874 0.5135
vn 0.1427 -0.6917 0.7079
vn 0.2059 -0.9779 0.0355
vn 0.7079 -0.6917 0.1427
vn -0.1538 -0.9761 0.1538
vn -0.0355 -0.9779 0.2060
vn -0.1427 -0.6917 0.7079
vn -0.5135 -0.6874 0.5135
vn -0.1914 -0.1938 0.9622
vn -0.6929 -0.1994 0.6929
vn -0.2059 -0.9779 0.0355
vn -0.7079 -0.6917 0.1427
vn -0.9622 -0.1938 0.1914
vn -0.1951 -0.9808 -0.0000
vn -0.7071 -0.7071 -0.0000
vn -0.9808 -0.1951 -0.0000
vn -0.0000 -0.1951 -0.9808
vn -0.0000 -0.7071 -0.7071
vn -0.0000 -0.9808 -0.1951
vn 0.9808 -0.1951 -0.0000
vn 0.7071 -0.7071 -0.0000
vn 0.1951 -0.9808 -0.0000
vn -0.0000 -0.1951 0.9808
vn -0.0000 -0.7071 0.7071
vn -0.0000 -0.9808 0.1951
vn -0.0000 -1.0000 -0.0000
vn 0.3827 -0.0000 -0.9239
vn 0.3754 0.1938 -0.9064
vn 0.6937 0.1938 -0.6937
vn 0.7071 -0.0000 -0.7071
vn -0.0000 1.0000 -0.0000
vn 0.1518 0.9767 -0.1518
vn 0.0821 0.9767 -0.1983
vn 0.1983 0.9767 -0.0821
vn 0.2146 0.9767 -0.0000
vn 0.1983 0.9767 0.0821
vn 0.1518 0.9767 0.1518
vn 0.0821 0.9767 0.1983
vn -0.0000 0.9767 0.2146
vn -0.0821 0.9767 0.1983
vn -0.1518 0.9767 0.1518
vn -0.1983 0.9767 0.0821
vn -0.2146 0.9767 -0.0000
vn -0.1983 0.9767 -0.0821
vn -0.1518 0.9767 -0.1518
vn -0.0821 0.9767 -0.1983
vn -0.0000 0.9767 -0.2146
vn -0.0000 0.1938 -0.9810
vn -0.3827 -0.0000 -0.9239
vn -0.3754 0.1938 -0.9064
vn 0.9239 -0.0000 -0.3827
vn 0.9064 0.1938 -0.3754
vn 0.9810 0.1938 -0.0000
vn 0.9064 0.1938 0.3754
vn 0.9239 -0.0000 0.3827
vn 0.6937 0.1938 0.6937
vn 0.7071 -0.0000 0.7071
vn 0.3754 0.1938 0.9064
vn 0.3827 -0.0000 0.9239
vn -0.0000 0.1938 0.9810
vn -0.3754 0.1938 0.9064
vn -0.3827 -0.0000 0.9239
vn -0.6937 0.1938 0.6937
vn -0.7071 -0.0000 0.7071
vn -0.9064 0.1938 0.3754
vn -0.9239 -0.0000 0.3827
vn -0.9810 0.1938 -0.0000
vn -0.9064 0.1938 -0.3754
vn -0.9239 -0.0000 -0.3827
vn -0.6937 0.1938 -0.6937
vn -0.7071 -0.0000 -0.7071
vn -0.0000 0.6889 -0.7249
vn 0.2774 0.6889 -0.6697
vn 0.5126 0.6889 -0.5126
vn 0.6697 0.6889 -0.2774
vn 0.7249 0.6889 -0.0000
vn 0.6697 0.6889 0.2774
vn 0.5126 0.6889 0.5126
vn 0.2774 0.6889 0.6697
vn -0.0000 0.6889 0.7249
vn -0.2774 0.6889 0.6697
vn -0.5126 0.6889 0.5126
vn -0.6697 0.6889 0.2774
vn -0.7249 0.6889 -0.0000
vn -0.6697 0.6889 -0.2774
vn -0.5126 0.6889 -0.5126
vn -0.2774 0.6889 -0.6697
vt 0.310843 0.253052
vt 0.310843 0.463434
vt 0.237430 0.463434
vt 0.237430 0.253052
vt 0.237430 0.485971
vt 0.237430 0.509217
vt 0.164017 0.509217
vt 0.164017 0.485971
vt 0.928662 0.559370
vt 0.928662 0.598279
vt 0.855249 0.598279
vt 0.855249 0.559370
vt 0.541253 0.253052
vt 0.541253 0.463434
vt 0.467840 0.463434
vt 0.467840 0.253052
vt 0.237430 0.559370
vt 0.237430 0.598279
vt 0.164017 0.598279
vt 0.164017 0.559370
vt 0.467840 0.559370
vt 0.467840 0.598279
vt 0.394427 0.598279
vt 0.394427 0.559370
vt 0.698251 0.559370
vt 0.698251 0.598279
vt 0.624838 0.598279
vt 0.624838 0.559370
vt 0.122224 0.253052
vt 0.122224 0.463434
vt 0.080432 0.463434
vt 0.080432 0.253052
vt 0.698251 0.509217
vt 0.624838 0.509217
vt 0.467840 0.509217
vt 0.394427 0.509217
vt 0.698251 0.485971
vt 0.624838 0.485971
vt 0.467840 0.485971
vt 0.394427 0.485971
vt 0.928662 0.509217
vt 0.855249 0.509217
vt 0.928662 0.485971
vt 0.855249 0.485971
vt 0.122224 0.598279
vt 0.122224 0.559370
vt 0.080432 0.598279
vt 0.080432 0.559370
vt 0.352635 0.253052
vt 0.352635 0.042670
vt 0.394428 0.042670
vt 0.394427 0.253052
vt 0.928662 0.253052
vt 0.928662 0.463434
vt 0.855249 0.463434
vt 0.855249 0.253052
vt 0.698251 0.253052
vt 0.698251 0.463434
vt 0.624838 0.463434
vt 0.624838 0.253052
vt 0.583046 0.253052
vt 0.583046 0.042670
vt 0.624838 0.042670
vt 0.394427 0.463434
vt 0.164017 0.463434
vt 0.164017 0.253052
vt 0.007019 0.463434
vt 0.007019 0.253052
vt 0.771664 0.485971
vt 0.771664 0.463434
vt 0.813457 0.463434
vt 0.813457 0.485971
vt 0.541253 0.485971
vt 0.583046 0.463434
vt 0.583046 0.485971
vt 0.310843 0.485971
vt 0.352635 0.463434
vt 0.352635 0.485971
vt 0.122224 0.509217
vt 0.080432 0.509217
vt 0.771664 0.598279
vt 0.771664 0.559370
vt 0.813457 0.559370
vt 0.813457 0.598279
vt 0.541253 0.598279
vt 0.541253 0.559370
vt 0.583046 0.559370
vt 0.583046 0.598279
vt 0.310843 0.598279
vt 0.310843 0.559370
vt 0.352635 0.559370
vt 0.352635 0.598279
vt 0.771664 0.509217
vt 0.813457 0.509217
vt 0.541253 0.509217
vt 0.583046 0.509217
vt 0.310843 0.509217
vt 0.352635 0.509217
vt 0.122224 0.485971
vt 0.080432 0.485971
vt 0.771664 0.253052
vt 0.541253 0.042670
vt 0.310843 0.042670
vt 0.813457 0.253052
vt 0.813457 0.042670
vt 0.855249 0.042670
vt 0.007019 0.509217
vt 0.007019 0.485971
vt 0.007019 0.559370
vt 0.007019 0.598279
vt 0.771664 0.042670
vt 0.041889 0.939117
vt 0.048099 0.955247
vt 0.021158 0.982188
vt 0.007880 0.951497
vt 0.771664 0.007217
vt 0.813457 0.007217
vt 0.064236 0.961456
vt 0.051849 0.995465
vt 0.855249 0.007217
vt 0.064236 0.777439
vt 0.048099 0.783649
vt 0.021158 0.756708
vt 0.051849 0.743431
vt 0.541253 0.007217
vt 0.583046 0.007217
vt 0.041889 0.799779
vt 0.007880 0.787399
vt 0.624838 0.007217
vt 0.225906 0.799779
vt 0.219696 0.783649
vt 0.246637 0.756708
vt 0.259915 0.787399
vt 0.310843 0.007217
vt 0.352635 0.007217
vt 0.203559 0.777439
vt 0.215946 0.743431
vt 0.394428 0.007217
vt 0.219697 0.955246
vt 0.225906 0.939117
vt 0.259915 0.951496
vt 0.246638 0.982188
vt 0.122224 0.007217
vt 0.164017 0.007217
vt 0.164017 0.042670
vt 0.122224 0.042670
vt 0.203560 0.961456
vt 0.215947 0.995465
vt 0.080432 0.007217
vt 0.080432 0.042670
vt 0.133898 0.961834
vt 0.133898 0.996476
vt 0.007019 0.007217
vt 0.007019 0.042670
vt 0.698251 0.042670
vt 0.698251 0.007217
vt 0.006869 0.869448
vt 0.041511 0.869448
vt 0.467840 0.042670
vt 0.467840 0.007217
vt 0.133897 0.742420
vt 0.133897 0.777061
vt 0.237430 0.042670
vt 0.237430 0.007217
vt 0.260926 0.869448
vt 0.226284 0.869448
vt 0.928662 0.007217
vt 0.928662 0.042670
vt 0.065270 0.938075
vt 0.062738 0.930548
vt 0.062529 0.869448
vt 0.133898 0.869448
vt 0.205266 0.869448
vt 0.205057 0.930547
vt 0.202525 0.938075
vt 0.528495 0.622913
vt 0.528495 0.710956
vt 0.481095 0.710956
vt 0.481095 0.622913
vt 0.337641 0.890182
vt 0.350282 0.909074
vt 0.323817 0.935513
vt 0.302995 0.904504
vt 0.369180 0.921697
vt 0.354842 0.956281
vt 0.391456 0.926120
vt 0.391463 0.963578
vt 0.413730 0.921688
vt 0.428081 0.956267
vt 0.432623 0.909058
vt 0.459098 0.935487
vt 0.445257 0.890161
vt 0.479909 0.904470
vt 0.449692 0.867861
vt 0.487248 0.867832
vt 0.445228 0.845571
vt 0.479788 0.831244
vt 0.432587 0.826687
vt 0.459053 0.800213
vt 0.413696 0.814086
vt 0.428025 0.779487
vt 0.391434 0.809680
vt 0.391426 0.772356
vt 0.369173 0.814095
vt 0.354831 0.779501
vt 0.350286 0.826703
vt 0.323811 0.800239
vt 0.333197 0.867884
vt 0.391445 0.867884
vt 0.337653 0.845591
vt 0.303087 0.831277
vt 0.295641 0.867868
vt 0.101891 0.622913
vt 0.054491 0.622913
vt 0.054491 0.605331
vt 0.101891 0.605331
vt 0.007090 0.622913
vt 0.007090 0.605331
vt 0.765498 0.622913
vt 0.718097 0.622913
vt 0.718097 0.605331
vt 0.765498 0.605331
vt 0.670697 0.622913
vt 0.670697 0.605331
vt 0.623296 0.622913
vt 0.623296 0.605331
vt 0.575896 0.622913
vt 0.575896 0.605331
vt 0.528495 0.605331
vt 0.481095 0.605331
vt 0.433695 0.622913
vt 0.433694 0.605331
vt 0.386294 0.622913
vt 0.386294 0.605331
vt 0.338894 0.622913
vt 0.338894 0.605331
vt 0.291493 0.622913
vt 0.291493 0.605331
vt 0.244093 0.622913
vt 0.244093 0.605331
vt 0.196692 0.622913
vt 0.196692 0.605331
vt 0.149292 0.622913
vt 0.149292 0.605331
vt 0.575896 0.710956
vt 0.623296 0.710956
vt 0.433695 0.710956
vt 0.386294 0.710956
vt 0.338894 0.710956
vt 0.291493 0.710956
vt 0.244093 0.710956
vt 0.196692 0.710956
vt 0.149292 0.710956
vt 0.101891 0.710956
vt 0.054491 0.710956
vt 0.007090 0.710956
vt 0.765498 0.710956
vt 0.718097 0.710956
vt 0.670697 0.710956
vt 0.575896 0.733905
vt 0.528495 0.733905
vt 0.281656 0.913272
vt 0.272658 0.867847
vt 0.481095 0.733905
vt 0.307444 0.951912
vt 0.433695 0.733905
vt 0.346112 0.977610
vt 0.386294 0.733905
vt 0.391467 0.986532
vt 0.338894 0.733905
vt 0.436819 0.977592
vt 0.291493 0.733905
vt 0.475478 0.951879
vt 0.244093 0.733905
vt 0.501251 0.913230
vt 0.196692 0.733905
vt 0.510231 0.867802
vt 0.149292 0.733905
vt 0.501146 0.822342
vt 0.101891 0.733905
vt 0.475260 0.783849
vt 0.054491 0.733905
vt 0.436768 0.758278
vt 0.007090 0.733905
vt 0.391422 0.749281
vt 0.765498 0.733905
vt 0.718097 0.733905
vt 0.346079 0.758295
vt 0.670697 0.733905
vt 0.307597 0.783881
vt 0.623296 0.733905
vt 0.281726 0.822384
vt 0.133898 0.798080
vt 0.194991 0.798288
vt 0.202525 0.800820
vt 0.062738 0.808348
vt 0.065270 0.800821
vt 0.072804 0.798288
vt 0.205057 0.808348
vt 0.133898 0.940816
vt 0.194991 0.940607
vt 0.072804 0.940608
s 1
f 126/1/1 23/2/2 53/3/3 116/4/4
f 224/5/5 56/6/6 47/7/7 220/8/8
f 58/9/9 59/10/10 5/11/11 29/12/12
f 129/13/13 20/14/14 50/15/15 125/16/16
f 54/17/17 55/18/18 2/19/19 26/20/20
f 51/21/21 49/22/22 8/23/23 35/24/24
f 63/25/25 61/26/26 11/27/27 32/28/28
f 115/29/29 15/30/30 14/31/31 117/32/32
f 64/33/33 63/25/25 32/28/28 40/34/34
f 52/35/35 51/21/21 35/24/24 43/36/36
f 56/6/6 54/17/17 26/20/20 47/7/7
f 226/37/37 64/33/33 40/34/34 216/38/38
f 223/39/39 52/35/35 43/36/36 219/40/40
f 60/41/41 58/9/9 29/12/12 37/42/42
f 225/43/43 60/41/41 37/42/42 213/44/44
f 26/20/20 2/19/19 3/45/45 27/46/46
f 27/46/46 3/45/45 1/47/47 25/48/48
f 123/49/49 90/50/50 84/51/51 124/52/52
f 118/53/53 57/54/54 16/55/55 120/56/56
f 122/57/57 62/58/58 19/59/59 128/60/60
f 127/61/61 99/62/62 93/63/63 128/60/60
f 125/16/16 50/15/15 22/64/64 124/52/52
f 116/4/4 53/3/3 13/65/65 114/66/66
f 117/32/32 14/31/31 57/67/54 118/68/53
f 211/69/67 17/70/68 18/71/69 212/72/70
f 212/72/70 18/71/69 16/55/55 213/44/44
f 214/73/71 20/14/14 21/74/72 215/75/73
f 215/75/73 21/74/72 19/59/59 216/38/38
f 217/76/74 23/2/2 24/77/75 218/78/76
f 218/78/76 24/77/75 22/64/64 219/40/40
f 47/7/7 26/20/20 27/46/46 48/79/77
f 48/79/77 27/46/46 25/48/48 46/80/78
f 4/81/79 28/82/80 30/83/81 6/84/82
f 6/84/82 30/83/81 29/12/12 5/11/11
f 10/85/83 31/86/84 33/87/85 12/88/86
f 12/88/86 33/87/85 32/28/28 11/27/27
f 7/89/87 34/90/88 36/91/89 9/92/90
f 9/92/90 36/91/89 35/24/24 8/23/23
f 28/82/80 38/93/91 39/94/92 30/83/81
f 30/83/81 39/94/92 37/42/42 29/12/12
f 31/86/84 41/95/93 42/96/94 33/87/85
f 33/87/85 42/96/94 40/34/34 32/28/28
f 34/90/88 44/97/95 45/98/96 36/91/89
f 36/91/89 45/98/96 43/36/36 35/24/24
f 220/8/8 47/7/7 48/79/77 221/99/97
f 221/99/97 48/79/77 46/80/78 222/100/98
f 121/101/99 17/70/68 62/58/58 122/57/57
f 214/73/71 41/95/93 52/35/35 223/39/39
f 41/95/93 31/86/84 51/21/21 52/35/35
f 31/86/84 10/85/83 49/22/22 51/21/21
f 129/13/13 96/102/100 99/62/62 127/61/61
f 44/97/95 34/90/88 54/17/17 56/6/6
f 34/90/88 7/89/87 55/18/18 54/17/17
f 126/1/1 87/103/101 90/50/50 123/49/49
f 217/76/74 44/97/95 56/6/6 224/5/5
f 119/104/102 81/105/103 75/106/104 120/56/56
f 222/100/98 46/80/78 60/107/41 225/108/43
f 46/80/78 25/48/48 58/109/9 60/107/41
f 25/48/48 1/47/47 59/110/10 58/109/9
f 211/69/67 38/93/91 64/33/33 226/37/37
f 38/93/91 28/82/80 63/25/25 64/33/33
f 28/82/80 4/81/79 61/26/26 63/25/25
f 121/101/99 78/111/105 81/105/103 119/104/102
f 227/112/106 228/113/107 82/114/108 79/115/109
f 79/116/109 82/117/108 81/105/103 78/111/105
f 228/113/107 229/118/110 76/119/111 82/114/108
f 82/117/108 76/120/111 75/106/104 81/105/103
f 230/121/112 231/122/113 100/123/114 97/124/115
f 97/125/115 100/126/114 99/62/62 96/102/100
f 231/122/113 232/127/116 94/128/117 100/123/114
f 100/126/114 94/129/117 93/63/63 99/62/62
f 233/130/118 234/131/119 91/132/120 88/133/121
f 88/134/121 91/135/120 90/50/50 87/103/101
f 234/131/119 235/136/122 85/137/123 91/132/120
f 91/135/120 85/138/123 84/51/51 90/50/50
f 236/139/124 237/140/125 67/141/126 73/142/127
f 73/143/127 67/144/126 66/145/128 72/146/129
f 238/147/130 236/139/124 73/142/127 70/148/131
f 70/149/131 73/143/127 72/146/129 69/150/132
f 239/151/133 238/147/130 70/148/131 109/152/134
f 109/153/134 70/149/131 69/150/132 107/154/135
f 111/155/136 93/63/63 94/129/117 112/156/137
f 112/157/137 94/128/117 232/127/116 240/158/138
f 102/159/139 84/51/51 85/138/123 103/160/140
f 103/161/140 85/137/123 235/136/122 241/162/141
f 105/163/142 66/145/128 67/144/126 106/164/143
f 106/165/143 67/141/126 237/140/125 242/166/144
f 96/102/100 102/159/139 103/160/140 97/125/115
f 97/124/115 103/161/140 241/162/141 230/121/112
f 87/103/101 105/163/142 106/164/143 88/134/121
f 88/133/121 106/165/143 242/166/144 233/130/118
f 229/118/110 239/151/133 109/152/134 76/119/111
f 76/120/111 109/167/134 107/168/135 75/106/104
f 78/111/105 111/155/136 112/156/137 79/116/109
f 79/115/109 112/157/137 240/158/138 227/112/106
f 114/66/66 13/65/65 15/30/30 115/29/29
f 80/169/145 77/170/145 110/171/145 113/172/145
f 113/172/145 104/173/145 65/174/145 71/175/145
f 66/145/128 114/66/66 115/29/29 72/146/129
f 17/70/68 121/101/99 119/104/102 18/71/69
f 18/71/69 119/104/102 120/56/56 16/55/55
f 23/2/2 126/1/1 123/49/49 24/77/75
f 20/14/14 129/13/13 127/61/61 21/74/72
f 78/111/105 121/101/99 122/57/57 111/155/136
f 69/150/132 117/32/32 118/68/53 107/154/135
f 105/163/142 116/4/4 114/66/66 66/145/128
f 102/159/139 125/16/16 124/52/52 84/51/51
f 21/74/72 127/61/61 128/60/60 19/59/59
f 111/155/136 122/57/57 128/60/60 93/63/63
f 107/168/135 118/53/53 120/56/56 75/106/104
f 24/77/75 123/49/49 124/52/52 22/64/64
f 72/146/129 115/29/29 117/32/32 69/150/132
f 96/102/100 129/13/13 125/16/16 102/159/139
f 87/103/101 126/1/1 116/4/4 105/163/142
f 132/176/146 164/177/147 170/178/148 134/179/149
f 133/180/150 135/181/150 169/182/151 163/183/152
f 135/181/150 137/184/150 172/185/153 169/182/151
f 137/184/150 139/186/150 175/187/154 172/185/153
f 139/186/150 141/188/150 178/189/155 175/187/154
f 141/188/150 143/190/150 181/191/156 178/189/155
f 143/190/150 145/192/150 184/193/157 181/191/156
f 145/192/150 147/194/150 187/195/158 184/193/157
f 147/194/150 149/196/150 190/197/159 187/195/158
f 149/196/150 151/198/150 193/199/160 190/197/159
f 151/198/150 153/200/150 196/201/161 193/199/160
f 153/200/150 155/202/150 199/203/162 196/201/161
f 155/202/150 157/204/150 202/205/163 199/203/162
f 157/204/150 159/206/150 205/207/164 202/205/163
f 135/181/150 133/180/150 131/208/150 162/209/150
f 159/206/150 161/210/150 208/211/165 205/207/164
f 161/210/150 131/208/150 167/212/166 208/211/165
f 161/210/150 159/206/150 162/209/150 131/208/150
f 157/204/150 155/202/150 162/209/150 159/206/150
f 153/200/150 151/198/150 162/209/150 155/202/150
f 149/196/150 147/194/150 162/209/150 151/198/150
f 145/192/150 143/190/150 162/209/150 147/194/150
f 141/188/150 139/186/150 162/209/150 143/190/150
f 137/184/150 135/181/150 162/209/150 139/186/150
f 150/213/145 152/214/145 1/215/145 3/216/145
f 152/214/145 154/217/145 59/218/145 1/215/145
f 154/219/145 156/220/145 5/221/145 59/222/145
f 156/220/145 158/223/145 6/224/145 5/221/145
f 158/223/145 160/225/145 4/226/145 6/224/145
f 160/225/145 130/227/145 61/228/145 4/226/145
f 130/227/145 132/176/145 11/229/145 61/228/145
f 132/176/145 134/179/145 12/230/145 11/229/145
f 134/179/145 136/231/145 10/232/145 12/230/145
f 136/231/145 138/233/145 49/234/145 10/232/145
f 138/233/145 140/235/145 8/236/145 49/234/145
f 140/235/145 142/237/145 9/238/145 8/236/145
f 142/237/145 144/239/145 7/240/145 9/238/145
f 144/239/145 146/241/145 55/242/145 7/240/145
f 146/241/145 148/243/145 2/244/145 55/242/145
f 148/243/145 150/213/145 3/216/145 2/244/145
f 130/227/57 166/245/167 164/177/147 132/176/146
f 160/225/168 209/246/169 166/245/167 130/227/57
f 136/231/170 173/247/171 176/248/172 138/233/16
f 138/233/16 176/248/172 179/249/173 140/235/174
f 140/235/174 179/249/173 182/250/175 142/237/176
f 142/237/176 182/250/175 185/251/177 144/239/178
f 144/239/178 185/251/177 188/252/179 146/241/4
f 146/241/4 188/252/179 191/253/180 148/243/181
f 148/243/181 191/253/180 194/254/182 150/213/183
f 150/213/183 194/254/182 197/255/184 152/214/185
f 152/214/185 197/255/184 200/256/186 154/217/53
f 154/219/53 200/257/186 203/258/187 156/220/188
f 156/220/188 203/258/187 206/259/189 158/223/190
f 158/223/190 206/259/189 209/246/169 160/225/168
f 134/179/149 170/178/148 173/247/171 136/231/170
f 164/177/147 166/245/167 168/260/191 165/261/192
f 165/262/192 168/263/191 167/212/166 163/183/152
f 170/178/148 164/177/147 165/261/192 171/264/193
f 171/265/193 165/262/192 163/183/152 169/182/151
f 173/247/171 170/178/148 171/264/193 174/266/194
f 174/267/194 171/265/193 169/182/151 172/185/153
f 176/248/172 173/247/171 174/266/194 177/268/195
f 177/269/195 174/267/194 172/185/153 175/187/154
f 179/249/173 176/248/172 177/268/195 180/270/196
f 180/271/196 177/269/195 175/187/154 178/189/155
f 182/250/175 179/249/173 180/270/196 183/272/197
f 183/273/197 180/271/196 178/189/155 181/191/156
f 185/251/177 182/250/175 183/272/197 186/274/198
f 186/275/198 183/273/197 181/191/156 184/193/157
f 188/252/179 185/251/177 186/274/198 189/276/199
f 189/277/199 186/275/198 184/193/157 187/195/158
f 191/253/180 188/252/179 189/276/199 192/278/200
f 192/279/200 189/277/199 187/195/158 190/197/159
f 194/254/182 191/253/180 192/278/200 195/280/201
f 195/281/201 192/279/200 190/197/159 193/199/160
f 197/255/184 194/254/182 195/280/201 198/282/202
f 198/283/202 195/281/201 193/199/160 196/201/161
f 200/256/186 197/255/184 198/282/202 201/284/203
f 201/285/203 198/283/202 196/201/161 199/203/162
f 203/258/187 200/257/186 201/286/203 204/287/204
f 204/288/204 201/285/203 199/203/162 202/205/163
f 206/259/189 203/258/187 204/287/204 207/289/205
f 207/290/205 204/288/204 202/205/163 205/207/164
f 209/246/169 206/259/189 207/289/205 210/291/206
f 210/292/206 207/290/205 205/207/164 208/211/165
f 166/245/167 209/246/169 210/291/206 168/260/191
f 168/263/191 210/292/206 208/211/165 167/212/166
f 131/208/150 133/180/150 163/183/152 167/212/166
f 17/70/68 211/69/67 226/37/37 62/58/58
f 14/31/31 222/100/98 225/108/43 57/67/54
f 23/2/2 217/76/74 224/5/5 53/3/3
f 20/14/14 214/73/71 223/39/39 50/15/15
f 15/30/30 221/99/97 222/100/98 14/31/31
f 13/65/65 220/8/8 221/99/97 15/30/30
f 45/98/96 218/78/76 219/40/40 43/36/36
f 44/97/95 217/76/74 218/78/76 45/98/96
f 42/96/94 215/75/73 216/38/38 40/34/34
f 41/95/93 214/73/71 215/75/73 42/96/94
f 39/94/92 212/72/70 213/44/44 37/42/42
f 38/93/91 211/69/67 212/72/70 39/94/92
f 57/54/54 225/43/43 213/44/44 16/55/55
f 50/15/15 223/39/39 219/40/40 22/64/64
f 62/58/58 226/37/37 216/38/38 19/59/59
f 53/3/3 224/5/5 220/8/8 13/65/65
f 113/172/145 101/293/145 83/294/145 89/295/145
f 113/172/145 110/171/145 92/296/145 98/297/145
f 101/293/145 113/172/145 98/297/145 95/298/145
f 104/173/145 113/172/145 89/295/145 86/299/145
f 108/300/145 113/172/145 71/175/145 68/301/145
f 74/302/145 80/169/145 113/172/145 108/300/145
f 77/170/145 80/169/145 228/113/107 227/112/106
f 80/169/145 74/302/145 229/118/110 228/113/107
f 95/298/145 98/297/145 231/122/113 230/121/112
f 98/297/145 92/296/145 232/127/116 231/122/113
f 86/299/145 89/295/145 234/131/119 233/130/118
f 89/295/145 83/294/145 235/136/122 234/131/119
f 71/175/145 65/174/145 237/140/125 236/139/124
f 68/301/145 71/175/145 236/139/124 238/147/130
f 108/300/145 68/301/145 238/147/130 239/151/133
f 92/296/145 110/171/145 240/158/138 232/127/116
f 83/294/145 101/293/145 241/162/141 235/136/122
f 65/174/145 104/173/145 242/166/144 237/140/125
f 101/293/145 95/298/145 230/121/112 241/162/141
f 104/173/145 86/299/145 233/130/118 242/166/144
f 74/302/145 108/300/145 239/151/133 229/118/110
f 110/171/145 77/170/145 227/112/106 240/158/138
