# Blender 4.0.2
# www.blender.org
o jigsaw_piece
v -0.013451 0.002000 -0.013415
v -0.012562 0.002000 -0.010051
v -0.012156 0.002000 -0.008150
v -0.011884 0.002000 -0.006323
v -0.012394 0.002000 -0.003188
v 0.000000 0.002000 0.000000
v 0.000000 0.002000 -0.006288
v -0.002957 0.002000 -0.014120
v -0.003929 0.002000 -0.014858
v -0.006198 0.002000 -0.014974
v -0.003183 0.002000 -0.014495
v -0.016760 0.002000 -0.003842
v -0.016021 0.002000 -0.003768
v -0.015038 0.002000 -0.003550
v -0.014075 0.002000 -0.003195
v -0.013432 0.002000 -0.002978
v -0.010992 0.002000 0.000000
v -0.012812 0.002000 -0.002951
v -0.012699 0.002000 0.000000
v -0.013432 0.002000 0.000000
v -0.020550 0.002000 0.000000
v -0.020477 0.002000 -0.000750
v -0.020261 0.002000 -0.001470
v -0.019911 0.002000 -0.002135
v -0.019440 0.002000 -0.002717
v -0.018866 0.002000 -0.003195
v -0.012036 0.002000 -0.003908
v -0.018210 0.002000 -0.003550
v -0.011856 0.002000 -0.004946
v -0.017500 0.002000 -0.003768
v -0.002890 0.002000 -0.013632
v -0.003570 0.002000 -0.011666
v -0.003048 0.002000 -0.013054
v -0.003790 0.002000 -0.009338
v -0.003865 0.002000 -0.010077
v -0.003570 0.002000 -0.008627
v -0.003790 0.002000 -0.010816
v -0.002147 0.002000 -0.006926
v -0.002733 0.002000 -0.007398
v -0.001479 0.002000 -0.006576
v -0.003213 0.002000 -0.007972
v -0.000754 0.002000 -0.006361
v -0.004968 0.002000 -0.014995
v -0.008471 0.002000 -0.014632
v -0.010992 0.002000 -0.014055
v -0.000926 0.002000 0.000000
v -0.008471 0.002000 0.000000
v -0.006198 0.002000 0.000000
v -0.006198 0.002000 -0.011187
v -0.008471 0.002000 -0.010798
v -0.010992 0.002000 -0.010340
v -0.006198 0.002000 -0.009063
v -0.008471 0.002000 -0.008766
v -0.010992 0.002000 -0.008357
v -0.006198 0.002000 -0.007610
v -0.008471 0.002000 -0.007069
v -0.010992 0.002000 -0.006486
v -0.006198 0.002000 -0.005834
v -0.008471 0.002000 -0.005485
v -0.010992 0.002000 -0.005164
v -0.006198 0.002000 -0.003116
v -0.008471 0.002000 -0.003116
v -0.010992 0.002000 -0.003116
v -0.002998 0.002000 0.000000
v -0.020261 0.002000 0.000000
v -0.019911 0.002000 0.000000
v -0.019440 0.002000 0.000000
v -0.018866 0.002000 0.000000
v -0.018210 0.002000 0.000000
v -0.017408 0.002000 0.000000
v -0.016761 0.002000 0.000000
v -0.016021 0.002000 0.000000
v -0.015124 0.002000 0.000000
v -0.014230 0.002000 0.000000
v -0.006198 0.002000 -0.012717
v -0.012989 0.002000 -0.011783
v -0.010992 0.002000 -0.012091
v -0.008471 0.002000 -0.012419
v -0.013451 0.002000 0.013415
v -0.012562 0.002000 0.010051
v -0.012156 0.002000 0.008150
v -0.011884 0.002000 0.006323
v -0.012394 0.002000 0.003188
v 0.000000 0.002000 0.006288
v -0.002957 0.002000 0.014120
v -0.003929 0.002000 0.014858
v -0.006198 0.002000 0.014974
v -0.003183 0.002000 0.014495
v -0.016760 0.002000 0.003842
v -0.016021 0.002000 0.003768
v -0.015038 0.002000 0.003550
v -0.014075 0.002000 0.003195
v -0.013432 0.002000 0.002978
v -0.012812 0.002000 0.002951
v -0.020477 0.002000 0.000750
v -0.020261 0.002000 0.001470
v -0.019911 0.002000 0.002135
v -0.019440 0.002000 0.002717
v -0.018866 0.002000 0.003195
v -0.012036 0.002000 0.003908
v -0.018210 0.002000 0.003550
v -0.011856 0.002000 0.004946
v -0.017500 0.002000 0.003768
v -0.002890 0.002000 0.013632
v -0.003570 0.002000 0.011666
v -0.003048 0.002000 0.013054
v -0.003790 0.002000 0.009338
v -0.003865 0.002000 0.010077
v -0.003570 0.002000 0.008627
v -0.003790 0.002000 0.010816
v -0.002147 0.002000 0.006926
v -0.002733 0.002000 0.007398
v -0.001479 0.002000 0.006576
v -0.003213 0.002000 0.007972
v -0.000754 0.002000 0.006361
v -0.004968 0.002000 0.014995
v -0.008471 0.002000 0.014632
v -0.010992 0.002000 0.014055
v -0.006198 0.002000 0.011187
v -0.008471 0.002000 0.010798
v -0.010992 0.002000 0.010340
v -0.006198 0.002000 0.009063
v -0.008471 0.002000 0.008766
v -0.010992 0.002000 0.008357
v -0.006198 0.002000 0.007610
v -0.008471 0.002000 0.007069
v -0.010992 0.002000 0.006486
v -0.006198 0.002000 0.005834
v -0.008471 0.002000 0.005485
v -0.010992 0.002000 0.005164
v -0.006198 0.002000 0.003116
v -0.008471 0.002000 0.003116
v -0.010992 0.002000 0.003116
v -0.006198 0.002000 0.012717
v -0.012989 0.002000 0.011783
v -0.010992 0.002000 0.012091
v -0.008471 0.002000 0.012419
v 0.013451 0.002000 -0.013415
v 0.012562 0.002000 -0.010051
v 0.012156 0.002000 -0.008150
v 0.011884 0.002000 -0.006323
v 0.012394 0.002000 -0.003188
v 0.002957 0.002000 -0.014120
v 0.003929 0.002000 -0.014858
v 0.006198 0.002000 -0.014974
v 0.003183 0.002000 -0.014495
v 0.016760 0.002000 -0.003842
v 0.016021 0.002000 -0.003768
v 0.015038 0.002000 -0.003550
v 0.014075 0.002000 -0.003195
v 0.013432 0.002000 -0.002978
v 0.010992 0.002000 0.000000
v 0.012812 0.002000 -0.002951
v 0.012699 0.002000 0.000000
v 0.013432 0.002000 0.000000
v 0.020550 0.002000 0.000000
v 0.020477 0.002000 -0.000750
v 0.020261 0.002000 -0.001470
v 0.019911 0.002000 -0.002135
v 0.019440 0.002000 -0.002717
v 0.018866 0.002000 -0.003195
v 0.012036 0.002000 -0.003908
v 0.018210 0.002000 -0.003550
v 0.011856 0.002000 -0.004946
v 0.017500 0.002000 -0.003768
v 0.002890 0.002000 -0.013632
v 0.003570 0.002000 -0.011666
v 0.003048 0.002000 -0.013054
v 0.003790 0.002000 -0.009338
v 0.003865 0.002000 -0.010077
v 0.003570 0.002000 -0.008627
v 0.003790 0.002000 -0.010816
v 0.002147 0.002000 -0.006926
v 0.002733 0.002000 -0.007398
v 0.001479 0.002000 -0.006576
v 0.003213 0.002000 -0.007972
v 0.000754 0.002000 -0.006361
v 0.004968 0.002000 -0.014995
v 0.008471 0.002000 -0.014632
v 0.010992 0.002000 -0.014055
v 0.000926 0.002000 0.000000
v 0.008471 0.002000 0.000000
v 0.006198 0.002000 0.000000
v 0.006198 0.002000 -0.011187
v 0.008471 0.002000 -0.010798
v 0.010992 0.002000 -0.010340
v 0.006198 0.002000 -0.009063
v 0.008471 0.002000 -0.008766
v 0.010992 0.002000 -0.008357
v 0.006198 0.002000 -0.007610
v 0.008471 0.002000 -0.007069
v 0.010992 0.002000 -0.006486
v 0.006198 0.002000 -0.005834
v 0.008471 0.002000 -0.005485
v 0.010992 0.002000 -0.005164
v 0.006198 0.002000 -0.003116
v 0.008471 0.002000 -0.003116
v 0.010992 0.002000 -0.003116
v 0.002998 0.002000 0.000000
v 0.020261 0.002000 0.000000
v 0.019911 0.002000 0.000000
v 0.019440 0.002000 0.000000
v 0.018866 0.002000 0.000000
v 0.018210 0.002000 0.000000
v 0.017408 0.002000 0.000000
v 0.016761 0.002000 0.000000
v 0.016021 0.002000 0.000000
v 0.015124 0.002000 0.000000
v 0.014230 0.002000 0.000000
v 0.006198 0.002000 -0.012717
v 0.012989 0.002000 -0.011783
v 0.010992 0.002000 -0.012091
v 0.008471 0.002000 -0.012419
v 0.013451 0.002000 0.013415
v 0.012562 0.002000 0.010051
v 0.012156 0.002000 0.008150
v 0.011884 0.002000 0.006323
v 0.012394 0.002000 0.003188
v 0.002957 0.002000 0.014120
v 0.003929 0.002000 0.014858
v 0.006198 0.002000 0.014974
v 0.003183 0.002000 0.014495
v 0.016760 0.002000 0.003842
v 0.016021 0.002000 0.003768
v 0.015038 0.002000 0.003550
v 0.014075 0.002000 0.003195
v 0.013432 0.002000 0.002978
v 0.012812 0.002000 0.002951
v 0.020477 0.002000 0.000750
v 0.020261 0.002000 0.001470
v 0.019911 0.002000 0.002135
v 0.019440 0.002000 0.002717
v 0.018866 0.002000 0.003195
v 0.012036 0.002000 0.003908
v 0.018210 0.002000 0.003550
v 0.011856 0.002000 0.004946
v 0.017500 0.002000 0.003768
v 0.002890 0.002000 0.013632
v 0.003570 0.002000 0.011666
v 0.003048 0.002000 0.013054
v 0.003790 0.002000 0.009338
v 0.003865 0.002000 0.010077
v 0.003570 0.002000 0.008627
v 0.003790 0.002000 0.010816
v 0.002147 0.002000 0.006926
v 0.002733 0.002000 0.007398
v 0.001479 0.002000 0.006576
v 0.003213 0.002000 0.007972
v 0.000754 0.002000 0.006361
v 0.004968 0.002000 0.014995
v 0.008471 0.002000 0.014632
v 0.010992 0.002000 0.014055
v 0.006198 0.002000 0.011187
v 0.008471 0.002000 0.010798
v 0.010992 0.002000 0.010340
v 0.006198 0.002000 0.009063
v 0.008471 0.002000 0.008766
v 0.010992 0.002000 0.008357
v 0.006198 0.002000 0.007610
v 0.008471 0.002000 0.007069
v 0.010992 0.002000 0.006486
v 0.006198 0.002000 0.005834
v 0.008471 0.002000 0.005485
v 0.010992 0.002000 0.005164
v 0.006198 0.002000 0.003116
v 0.008471 0.002000 0.003116
v 0.010992 0.002000 0.003116
v 0.006198 0.002000 0.012717
v 0.012989 0.002000 0.011783
v 0.010992 0.002000 0.012091
v 0.008471 0.002000 0.012419
v -0.013451 0.000000 -0.013415
v -0.012562 0.000000 -0.010051
v -0.012156 0.000000 -0.008150
v -0.011884 0.000000 -0.006323
v -0.012394 0.000000 -0.003188
v 0.000000 0.000000 0.000000
v 0.000000 0.000000 -0.006288
v -0.002957 0.000000 -0.014120
v -0.003929 0.000000 -0.014858
v -0.006198 0.000000 -0.014974
v -0.003183 0.000000 -0.014495
v -0.016760 0.000000 -0.003842
v -0.016021 0.000000 -0.003768
v -0.015038 0.000000 -0.003550
v -0.014075 0.000000 -0.003195
v -0.013432 0.000000 -0.002978
v -0.010992 0.000000 -0.000000
v -0.012812 0.000000 -0.002951
v -0.012699 0.000000 -0.000000
v -0.013432 -0.000000 0.000000
v -0.020550 0.000000 0.000000
v -0.020477 0.000000 -0.000750
v -0.020261 0.000000 -0.001470
v -0.019911 0.000000 -0.002135
v -0.019440 0.000000 -0.002717
v -0.018866 0.000000 -0.003195
v -0.012036 0.000000 -0.003908
v -0.018210 0.000000 -0.003550
v -0.011856 0.000000 -0.004946
v -0.017500 0.000000 -0.003768
v -0.002890 0.000000 -0.013632
v -0.003570 0.000000 -0.011666
v -0.003048 0.000000 -0.013054
v -0.003790 0.000000 -0.009338
v -0.003865 0.000000 -0.010077
v -0.003570 0.000000 -0.008627
v -0.003790 0.000000 -0.010816
v -0.002147 0.000000 -0.006926
v -0.002733 0.000000 -0.007398
v -0.001479 0.000000 -0.006576
v -0.003213 0.000000 -0.007972
v -0.000754 0.000000 -0.006361
v -0.004968 0.000000 -0.014995
v -0.008471 0.000000 -0.014632
v -0.010992 0.000000 -0.014055
v -0.000926 -0.000000 0.000000
v -0.008471 0.000000 0.000000
v -0.006198 -0.000000 0.000000
v -0.006198 0.000000 -0.011187
v -0.008471 0.000000 -0.010798
v -0.010992 0.000000 -0.010340
v -0.006198 0.000000 -0.009063
v -0.008471 0.000000 -0.008766
v -0.010992 0.000000 -0.008357
v -0.006198 0.000000 -0.007610
v -0.008471 0.000000 -0.007069
v -0.010992 0.000000 -0.006486
v -0.006198 0.000000 -0.005834
v -0.008471 0.000000 -0.005485
v -0.010992 0.000000 -0.005164
v -0.006198 0.000000 -0.003116
v -0.008471 0.000000 -0.003116
v -0.010992 0.000000 -0.003116
v -0.002998 0.000000 0.000000
v -0.020261 0.000000 0.000000
v -0.019911 0.000000 0.000000
v -0.019440 0.000000 0.000000
v -0.018866 0.000000 0.000000
v -0.018210 0.000000 -0.000000
v -0.017408 0.000000 -0.000000
v -0.016761 0.000000 -0.000000
v -0.016021 0.000000 -0.000000
v -0.015124 0.000000 -0.000000
v -0.014230 -0.000000 0.000000
v -0.006198 0.000000 -0.012717
v -0.012989 0.000000 -0.011783
v -0.010992 0.000000 -0.012091
v -0.008471 0.000000 -0.012419
v -0.013451 -0.000000 0.013415
v -0.012562 -0.000000 0.010051
v -0.012156 -0.000000 0.008150
v -0.011884 -0.000000 0.006323
v -0.012394 -0.000000 0.003188
v 0.000000 -0.000000 0.006288
v -0.002957 -0.000000 0.014120
v -0.003929 -0.000000 0.014858
v -0.006198 -0.000000 0.014974
v -0.003183 -0.000000 0.014495
v -0.016760 -0.000000 0.003842
v -0.016021 -0.000000 0.003768
v -0.015038 -0.000000 0.003550
v -0.014075 -0.000000 0.003195
v -0.013432 -0.000000 0.002978
v -0.012812 -0.000000 0.002951
v -0.020477 -0.000000 0.000750
v -0.020261 -0.000000 0.001470
v -0.019911 -0.000000 0.002135
v -0.019440 -0.000000 0.002717
v -0.018866 -0.000000 0.003195
v -0.012036 -0.000000 0.003908
v -0.018210 -0.000000 0.003550
v -0.011856 -0.000000 0.004946
v -0.017500 -0.000000 0.003768
v -0.002890 -0.000000 0.013632
v -0.003570 -0.000000 0.011666
v -0.003048 -0.000000 0.013054
v -0.003790 -0.000000 0.009338
v -0.003865 -0.000000 0.010077
v -0.003570 -0.000000 0.008627
v -0.003790 -0.000000 0.010816
v -0.002147 -0.000000 0.006926
v -0.002733 -0.000000 0.007398
v -0.001479 -0.000000 0.006576
v -0.003213 -0.000000 0.007972
v -0.000754 -0.000000 0.006361
v -0.004968 -0.000000 0.014995
v -0.008471 -0.000000 0.014632
v -0.010992 -0.000000 0.014055
v -0.006198 -0.000000 0.011187
v -0.008471 -0.000000 0.010798
v -0.010992 -0.000000 0.010340
v -0.006198 -0.000000 0.009063
v -0.008471 -0.000000 0.008766
v -0.010992 -0.000000 0.008357
v -0.006198 -0.000000 0.007610
v -0.008471 -0.000000 0.007069
v -0.010992 -0.000000 0.006486
v -0.006198 -0.000000 0.005834
v -0.008471 -0.000000 0.005485
v -0.010992 -0.000000 0.005164
v -0.006198 -0.000000 0.003116
v -0.008471 -0.000000 0.003116
v -0.010992 -0.000000 0.003116
v -0.006198 -0.000000 0.012717
v -0.012989 -0.000000 0.011783
v -0.010992 -0.000000 0.012091
v -0.008471 -0.000000 0.012419
v 0.013451 0.000000 -0.013415
v 0.012562 0.000000 -0.010051
v 0.012156 0.000000 -0.008150
v 0.011884 0.000000 -0.006323
v 0.012394 0.000000 -0.003188
v 0.002957 0.000000 -0.014120
v 0.003929 0.000000 -0.014858
v 0.006198 0.000000 -0.014974
v 0.003183 0.000000 -0.014495
v 0.016760 0.000000 -0.003842
v 0.016021 0.000000 -0.003768
v 0.015038 0.000000 -0.003550
v 0.014075 0.000000 -0.003195
v 0.013432 0.000000 -0.002978
v 0.010992 -0.000000 0.000000
v 0.012812 0.000000 -0.002951
v 0.012699 -0.000000 0.000000
v 0.013432 0.000000 -0.000000
v 0.020550 0.000000 0.000000
v 0.020477 0.000000 -0.000750
v 0.020261 0.000000 -0.001470
v 0.019911 0.000000 -0.002135
v 0.019440 0.000000 -0.002717
v 0.018866 0.000000 -0.003195
v 0.012036 0.000000 -0.003908
v 0.018210 0.000000 -0.003550
v 0.011856 0.000000 -0.004946
v 0.017500 0.000000 -0.003768
v 0.002890 0.000000 -0.013632
v 0.003570 0.000000 -0.011666
v 0.003048 0.000000 -0.013054
v 0.003790 0.000000 -0.009338
v 0.003865 0.000000 -0.010077
v 0.003570 0.000000 -0.008627
v 0.003790 0.000000 -0.010816
v 0.002147 0.000000 -0.006926
v 0.002733 0.000000 -0.007398
v 0.001479 0.000000 -0.006576
v 0.003213 0.000000 -0.007972
v 0.000754 0.000000 -0.006361
v 0.004968 0.000000 -0.014995
v 0.008471 0.000000 -0.014632
v 0.010992 0.000000 -0.014055
v 0.000926 0.000000 -0.000000
v 0.008471 0.000000 0.000000
v 0.006198 0.000000 -0.000000
v 0.006198 0.000000 -0.011187
v 0.008471 0.000000 -0.010798
v 0.010992 0.000000 -0.010340
v 0.006198 0.000000 -0.009063
v 0.008471 0.000000 -0.008766
v 0.010992 0.000000 -0.008357
v 0.006198 0.000000 -0.007610
v 0.008471 0.000000 -0.007069
v 0.010992 0.000000 -0.006486
v 0.006198 0.000000 -0.005834
v 0.008471 0.000000 -0.005485
v 0.010992 0.000000 -0.005164
v 0.006198 0.000000 -0.003116
v 0.008471 0.000000 -0.003116
v 0.010992 0.000000 -0.003116
v 0.002998 0.000000 0.000000
v 0.020261 0.000000 0.000000
v 0.019911 0.000000 0.000000
v 0.019440 0.000000 0.000000
v 0.018866 0.000000 0.000000
v 0.018210 -0.000000 0.000000
v 0.017408 -0.000000 0.000000
v 0.016761 -0.000000 0.000000
v 0.016021 -0.000000 0.000000
v 0.015124 -0.000000 0.000000
v 0.014230 0.000000 -0.000000
v 0.006198 0.000000 -0.012717
v 0.012989 0.000000 -0.011783
v 0.010992 0.000000 -0.012091
v 0.008471 0.000000 -0.012419
v 0.013451 -0.000000 0.013415
v 0.012562 -0.000000 0.010051
v 0.012156 -0.000000 0.008150
v 0.011884 -0.000000 0.006323
v 0.012394 -0.000000 0.003188
v 0.002957 -0.000000 0.014120
v 0.003929 -0.000000 0.014858
v 0.006198 -0.000000 0.014974
v 0.003183 -0.000000 0.014495
v 0.016760 -0.000000 0.003842
v 0.016021 -0.000000 0.003768
v 0.015038 -0.000000 0.003550
v 0.014075 -0.000000 0.003195
v 0.013432 -0.000000 0.002978
v 0.012812 -0.000000 0.002951
v 0.020477 -0.000000 0.000750
v 0.020261 -0.000000 0.001470
v 0.019911 -0.000000 0.002135
v 0.019440 -0.000000 0.002717
v 0.018866 -0.000000 0.003195
v 0.012036 -0.000000 0.003908
v 0.018210 -0.000000 0.003550
v 0.011856 -0.000000 0.004946
v 0.017500 -0.000000 0.003768
v 0.002890 -0.000000 0.013632
v 0.003570 -0.000000 0.011666
v 0.003048 -0.000000 0.013054
v 0.003790 -0.000000 0.009338
v 0.003865 -0.000000 0.010077
v 0.003570 -0.000000 0.008627
v 0.003790 -0.000000 0.010816
v 0.002147 -0.000000 0.006926
v 0.002733 -0.000000 0.007398
v 0.001479 -0.000000 0.006576
v 0.003213 -0.000000 0.007972
v 0.000754 -0.000000 0.006361
v 0.004968 -0.000000 0.014995
v 0.008471 -0.000000 0.014632
v 0.010992 -0.000000 0.014055
v 0.006198 -0.000000 0.011187
v 0.008471 -0.000000 0.010798
v 0.010992 -0.000000 0.010340
v 0.006198 -0.000000 0.009063
v 0.008471 -0.000000 0.008766
v 0.010992 -0.000000 0.008357
v 0.006198 -0.000000 0.007610
v 0.008471 -0.000000 0.007069
v 0.010992 -0.000000 0.006486
v 0.006198 -0.000000 0.005834
v 0.008471 -0.000000 0.005485
v 0.010992 -0.000000 0.005164
v 0.006198 -0.000000 0.003116
v 0.008471 -0.000000 0.003116
v 0.010992 -0.000000 0.003116
v 0.006198 -0.000000 0.012717
v 0.012989 -0.000000 0.011783
v 0.010992 -0.000000 0.012091
v 0.008471 -0.000000 0.012419
vn -0.0000 1.0000 -0.0000
vn -0.0000 -1.0000 -0.0000
vn -0.9746 -0.0000 0.2240
vn -0.9667 -0.0000 0.2559
vn -0.9840 -0.0000 0.1781
vn -0.9965 -0.0000 0.0840
vn -0.0831 -0.0000 -0.9965
vn 0.0571 -0.0000 -0.9984
vn 0.2877 -0.0000 -0.9577
vn 0.6744 -0.0000 -0.7383
vn -0.0000 -0.0000 -1.0000
vn 0.1586 -0.0000 -0.9873
vn 0.2822 -0.0000 -0.9594
vn 0.3321 -0.0000 -0.9432
vn 0.1832 -0.0000 -0.9831
vn -0.2333 -0.0000 -0.9724
vn -0.7261 -0.0000 -0.6875
vn -1.0000 -0.0000 -0.0000
vn -0.9813 -0.0000 -0.1926
vn -0.9257 -0.0000 -0.3783
vn -0.8349 -0.0000 -0.5504
vn -0.7119 -0.0000 -0.7023
vn -0.5608 -0.0000 -0.8280
vn -0.9504 -0.0000 -0.3111
vn -0.3871 -0.0000 -0.9220
vn -0.9971 -0.0000 -0.0755
vn -0.1976 -0.0000 -0.9803
vn 0.9428 -0.0000 -0.3332
vn 0.9979 -0.0000 0.0653
vn 0.9512 -0.0000 0.3084
vn 0.9533 -0.0000 0.3019
vn 1.0000 -0.0000 -0.0000
vn 0.9801 -0.0000 -0.1987
vn 0.9212 -0.0000 -0.3890
vn 0.9844 -0.0000 0.1758
vn 0.7003 -0.0000 -0.7139
vn 0.5482 -0.0000 -0.8364
vn 0.3764 -0.0000 -0.9265
vn 0.8265 -0.0000 -0.5630
vn 0.1915 -0.0000 -0.9815
vn -0.1861 -0.0000 -0.9825
vn -0.2373 -0.0000 -0.9714
vn -0.2517 -0.0000 -0.9678
vn -0.9621 -0.0000 0.2727
vn -0.9667 -0.0000 -0.2559
vn -0.9746 -0.0000 -0.2240
vn -0.9840 -0.0000 -0.1781
vn -0.9965 -0.0000 -0.0840
vn 0.0571 -0.0000 0.9984
vn -0.0831 -0.0000 0.9965
vn 0.6744 -0.0000 0.7383
vn 0.2877 -0.0000 0.9577
vn 0.1586 -0.0000 0.9873
vn -0.0000 -0.0000 1.0000
vn 0.2822 -0.0000 0.9594
vn 0.3321 -0.0000 0.9432
vn 0.1832 -0.0000 0.9831
vn -0.7261 -0.0000 0.6875
vn -0.2333 -0.0000 0.9724
vn -0.9257 -0.0000 0.3783
vn -0.9813 -0.0000 0.1926
vn -0.8349 -0.0000 0.5504
vn -0.7119 -0.0000 0.7023
vn -0.5608 -0.0000 0.8280
vn -0.9504 -0.0000 0.3111
vn -0.3871 -0.0000 0.9220
vn -0.9971 -0.0000 0.0755
vn -0.1976 -0.0000 0.9803
vn 0.9979 -0.0000 -0.0653
vn 0.9428 -0.0000 0.3332
vn 0.9533 -0.0000 -0.3019
vn 0.9512 -0.0000 -0.3084
vn 0.9801 -0.0000 0.1987
vn 0.9212 -0.0000 0.3890
vn 0.9844 -0.0000 -0.1758
vn 0.5482 -0.0000 0.8364
vn 0.7003 -0.0000 0.7139
vn 0.3764 -0.0000 0.9265
vn 0.8265 -0.0000 0.5630
vn 0.1915 -0.0000 0.9815
vn -0.1861 -0.0000 0.9825
vn -0.2373 -0.0000 0.9714
vn -0.2517 -0.0000 0.9678
vn -0.9621 -0.0000 -0.2727
vn 0.9667 -0.0000 0.2559
vn 0.9746 -0.0000 0.2240
vn 0.9840 -0.0000 0.1781
vn 0.9965 -0.0000 0.0840
vn -0.0571 -0.0000 -0.9984
vn 0.0831 -0.0000 -0.9965
vn -0.6744 -0.0000 -0.7383
vn -0.2877 -0.0000 -0.9577
vn -0.1586 -0.0000 -0.9873
vn -0.2822 -0.0000 -0.9594
vn -0.3321 -0.0000 -0.9432
vn -0.1832 -0.0000 -0.9831
vn 0.7261 -0.0000 -0.6875
vn 0.2333 -0.0000 -0.9724
vn 0.9813 -0.0000 -0.1926
vn 0.9257 -0.0000 -0.3783
vn 0.8349 -0.0000 -0.5504
vn 0.7119 -0.0000 -0.7023
vn 0.5608 -0.0000 -0.8280
vn 0.9504 -0.0000 -0.3111
vn 0.3871 -0.0000 -0.9220
vn 0.9971 -0.0000 -0.0755
vn 0.1976 -0.0000 -0.9803
vn -0.9979 -0.0000 0.0653
vn -0.9428 -0.0000 -0.3332
vn -0.9533 -0.0000 0.3019
vn -0.9512 -0.0000 0.3084
vn -0.9801 -0.0000 -0.1987
vn -0.9212 -0.0000 -0.3890
vn -0.9844 -0.0000 0.1758
vn -0.5482 -0.0000 -0.8364
vn -0.7003 -0.0000 -0.7139
vn -0.3764 -0.0000 -0.9265
vn -0.8265 -0.0000 -0.5630
vn -0.1915 -0.0000 -0.9815
vn 0.1861 -0.0000 -0.9825
vn 0.2373 -0.0000 -0.9714
vn 0.2517 -0.0000 -0.9678
vn 0.9621 -0.0000 0.2727
vn 0.9746 -0.0000 -0.2240
vn 0.9667 -0.0000 -0.2559
vn 0.9840 -0.0000 -0.1781
vn 0.9965 -0.0000 -0.0840
vn 0.0831 -0.0000 0.9965
vn -0.0571 -0.0000 0.9984
vn -0.2877 -0.0000 0.9577
vn -0.6744 -0.0000 0.7383
vn -0.1586 -0.0000 0.9873
vn -0.2822 -0.0000 0.9594
vn -0.3321 -0.0000 0.9432
vn -0.1832 -0.0000 0.9831
vn 0.2333 -0.0000 0.9724
vn 0.7261 -0.0000 0.6875
vn 0.9813 -0.0000 0.1926
vn 0.9257 -0.0000 0.3783
vn 0.8349 -0.0000 0.5504
vn 0.7119 -0.0000 0.7023
vn 0.5608 -0.0000 0.8280
vn 0.9504 -0.0000 0.3111
vn 0.3871 -0.0000 0.9220
vn 0.9971 -0.0000 0.0755
vn 0.1976 -0.0000 0.9803
vn -0.9428 -0.0000 0.3332
vn -0.9979 -0.0000 -0.0653
vn -0.9512 -0.0000 -0.3084
vn -0.9533 -0.0000 -0.3019
vn -0.9801 -0.0000 0.1987
vn -0.9212 -0.0000 0.3890
vn -0.9844 -0.0000 -0.1758
vn -0.7003 -0.0000 0.7139
vn -0.5482 -0.0000 0.8364
vn -0.3764 -0.0000 0.9265
vn -0.8265 -0.0000 0.5630
vn -0.1915 -0.0000 0.9815
vn 0.1861 -0.0000 0.9825
vn 0.2373 -0.0000 0.9714
vn 0.2517 -0.0000 0.9678
vn 0.9621 -0.0000 -0.2727
vt 0.594989 0.349564
vt 0.590426 0.389597
vt 0.578133 0.388362
vt 0.559683 0.349564
vt 0.619165 0.349564
vt 0.602248 0.393254
vt 0.496695 0.349564
vt 0.534231 0.349564
vt 0.498628 0.387285
vt 0.496354 0.370022
vt 0.648701 0.349564
vt 0.613142 0.399193
vt 0.544639 0.269832
vt 0.539186 0.311766
vt 0.502395 0.311766
vt 0.511984 0.269832
vt 0.551717 0.393254
vt 0.528635 0.401943
vt 0.641148 0.452628
vt 0.639937 0.440091
vt 0.745708 0.437229
vt 0.745708 0.452628
vt 0.573754 0.269832
vt 0.549764 0.236637
vt 0.578561 0.243728
vt 0.686681 0.149804
vt 0.745708 0.149804
vt 0.745708 0.163151
vt 0.683045 0.161625
vt 0.710213 0.121524
vt 0.745708 0.121524
vt 0.745708 0.129361
vt 0.700531 0.129361
vt 0.745708 0.138910
vt 0.692585 0.138910
vt 0.692697 0.246529
vt 0.696638 0.239573
vt 0.745708 0.241449
vt 0.745708 0.269832
vt 0.681818 0.173919
vt 0.745708 0.173908
vt 0.745708 0.186212
vt 0.683045 0.186212
vt 0.693884 0.269832
vt 0.659840 0.269832
vt 0.663457 0.255470
vt 0.680721 0.252477
vt 0.566212 0.391611
vt 0.522619 0.228944
vt 0.636351 0.428035
vt 0.745708 0.402766
vt 0.745708 0.201120
vt 0.686681 0.202551
vt 0.630528 0.416924
vt 0.745708 0.349564
vt 0.693884 0.349564
vt 0.622691 0.407185
vt 0.733243 0.112115
vt 0.745708 0.110904
vt 0.745708 0.115701
vt 0.721258 0.115701
vt 0.606733 0.269832
vt 0.610174 0.250478
vt 0.745708 0.215995
vt 0.692585 0.218565
vt 0.510901 0.403459
vt 0.504663 0.399694
vt 0.745708 0.229269
vt 0.696179 0.229269
vt 0.637847 0.269832
vt 0.640566 0.255000
vt 0.519019 0.404574
vt 0.599931 0.311766
vt 0.566147 0.311766
vt 0.628150 0.311766
vt 0.654489 0.311766
vt 0.693884 0.311766
vt 0.745708 0.311766
vt 0.896426 0.349564
vt 0.931732 0.349564
vt 0.913282 0.388362
vt 0.900989 0.389597
vt 0.872250 0.349564
vt 0.889168 0.393254
vt 0.994720 0.349564
vt 0.995061 0.370022
vt 0.992788 0.387285
vt 0.957185 0.349564
vt 0.842715 0.349564
vt 0.878273 0.399193
vt 0.946776 0.269832
vt 0.979431 0.269832
vt 0.989020 0.311766
vt 0.952229 0.311766
vt 0.962781 0.401943
vt 0.939698 0.393254
vt 0.850267 0.452628
vt 0.851479 0.440091
vt 0.917661 0.269832
vt 0.912855 0.243728
vt 0.941651 0.236637
vt 0.804734 0.149804
vt 0.808370 0.161625
vt 0.781203 0.121524
vt 0.790884 0.129361
vt 0.798830 0.138910
vt 0.798719 0.246529
vt 0.794777 0.239573
vt 0.809598 0.173919
vt 0.808370 0.186212
vt 0.797532 0.269832
vt 0.810694 0.252477
vt 0.827959 0.255470
vt 0.831575 0.269832
vt 0.925203 0.391611
vt 0.968796 0.228944
vt 0.855064 0.428035
vt 0.804734 0.202551
vt 0.860888 0.416924
vt 0.797532 0.349564
vt 0.868724 0.407185
vt 0.758172 0.112115
vt 0.770157 0.115701
vt 0.884683 0.269832
vt 0.881241 0.250478
vt 0.798830 0.218565
vt 0.986752 0.399694
vt 0.980513 0.403460
vt 0.795237 0.229269
vt 0.853568 0.269832
vt 0.850850 0.255000
vt 0.972396 0.404574
vt 0.891484 0.311766
vt 0.925268 0.311766
vt 0.863266 0.311766
vt 0.836926 0.311766
vt 0.797532 0.311766
vt 0.594989 0.555693
vt 0.559683 0.555693
vt 0.578133 0.516895
vt 0.590426 0.515660
vt 0.619165 0.555693
vt 0.602248 0.512003
vt 0.496695 0.555693
vt 0.496354 0.535235
vt 0.498628 0.517972
vt 0.534231 0.555693
vt 0.648701 0.555693
vt 0.613142 0.506064
vt 0.544639 0.635424
vt 0.511984 0.635424
vt 0.502395 0.593491
vt 0.539186 0.593491
vt 0.528635 0.503314
vt 0.551717 0.512003
vt 0.745708 0.468028
vt 0.639937 0.465166
vt 0.573754 0.635424
vt 0.578560 0.661528
vt 0.549764 0.668619
vt 0.686681 0.755452
vt 0.683045 0.743631
vt 0.745708 0.742105
vt 0.745708 0.755452
vt 0.710212 0.783732
vt 0.700531 0.775896
vt 0.745708 0.775896
vt 0.745708 0.783732
vt 0.692585 0.766347
vt 0.745708 0.766347
vt 0.692697 0.658728
vt 0.745708 0.635424
vt 0.745708 0.663808
vt 0.696638 0.665683
vt 0.681818 0.731337
vt 0.683045 0.719044
vt 0.745708 0.719044
vt 0.745708 0.731348
vt 0.693884 0.635424
vt 0.680721 0.652780
vt 0.663457 0.649786
vt 0.659840 0.635424
vt 0.566213 0.513645
vt 0.522619 0.676313
vt 0.745708 0.502490
vt 0.636351 0.477222
vt 0.686681 0.702705
vt 0.745708 0.704137
vt 0.745708 0.555693
vt 0.630528 0.488333
vt 0.693884 0.555693
vt 0.622691 0.498072
vt 0.733243 0.793141
vt 0.721258 0.789555
vt 0.745708 0.789555
vt 0.745708 0.794352
vt 0.606732 0.635424
vt 0.610174 0.654778
vt 0.692585 0.686691
vt 0.745708 0.689261
vt 0.504663 0.505563
vt 0.510902 0.501797
vt 0.696179 0.675987
vt 0.745708 0.675987
vt 0.637847 0.635424
vt 0.640566 0.650257
vt 0.519019 0.500683
vt 0.599931 0.593491
vt 0.566147 0.593491
vt 0.628150 0.593491
vt 0.654489 0.593491
vt 0.693884 0.593491
vt 0.745708 0.593491
vt 0.896426 0.555693
vt 0.900989 0.515660
vt 0.913282 0.516895
vt 0.931733 0.555693
vt 0.872250 0.555693
vt 0.889168 0.512003
vt 0.994720 0.555693
vt 0.957185 0.555693
vt 0.992788 0.517972
vt 0.995061 0.535235
vt 0.842715 0.555693
vt 0.878273 0.506064
vt 0.946776 0.635425
vt 0.952229 0.593491
vt 0.989020 0.593491
vt 0.979431 0.635425
vt 0.939698 0.512003
vt 0.962781 0.503314
vt 0.851479 0.465166
vt 0.917661 0.635424
vt 0.941651 0.668619
vt 0.912855 0.661528
vt 0.804734 0.755452
vt 0.808370 0.743631
vt 0.781203 0.783732
vt 0.790884 0.775896
vt 0.798830 0.766347
vt 0.798719 0.658728
vt 0.794777 0.665683
vt 0.809598 0.731337
vt 0.808370 0.719044
vt 0.797532 0.635424
vt 0.831575 0.635424
vt 0.827959 0.649786
vt 0.810694 0.652779
vt 0.925203 0.513646
vt 0.968796 0.676313
vt 0.855064 0.477222
vt 0.804734 0.702705
vt 0.860888 0.488333
vt 0.797532 0.555693
vt 0.868724 0.498072
vt 0.758172 0.793141
vt 0.770157 0.789555
vt 0.884683 0.635424
vt 0.881241 0.654778
vt 0.798830 0.686691
vt 0.980514 0.501798
vt 0.986752 0.505563
vt 0.795237 0.675987
vt 0.853568 0.635424
vt 0.850850 0.650257
vt 0.972396 0.500683
vt 0.891484 0.593491
vt 0.925268 0.593491
vt 0.863266 0.593491
vt 0.836926 0.593491
vt 0.797532 0.593491
vt 0.404963 0.243565
vt 0.440270 0.243565
vt 0.421820 0.282363
vt 0.409526 0.283598
vt 0.380787 0.243565
vt 0.397705 0.287255
vt 0.503258 0.243565
vt 0.503599 0.264023
vt 0.501325 0.281286
vt 0.465722 0.243565
vt 0.351251 0.243565
vt 0.386810 0.293194
vt 0.455314 0.163833
vt 0.487969 0.163833
vt 0.497558 0.205767
vt 0.460767 0.205767
vt 0.471319 0.295944
vt 0.448235 0.287255
vt 0.358804 0.346630
vt 0.254244 0.346630
vt 0.254244 0.331230
vt 0.360015 0.334092
vt 0.426199 0.163833
vt 0.421393 0.137729
vt 0.450189 0.130638
vt 0.313271 0.043804
vt 0.316906 0.055625
vt 0.254244 0.057151
vt 0.254244 0.043804
vt 0.289739 0.015524
vt 0.299422 0.023361
vt 0.254244 0.023361
vt 0.254244 0.015524
vt 0.307367 0.032910
vt 0.254244 0.032910
vt 0.307256 0.140529
vt 0.254244 0.163833
vt 0.254244 0.135449
vt 0.303314 0.133574
vt 0.318134 0.067919
vt 0.316906 0.080213
vt 0.254244 0.080213
vt 0.254244 0.067908
vt 0.306069 0.163833
vt 0.319231 0.146477
vt 0.336496 0.149471
vt 0.340113 0.163833
vt 0.433740 0.285613
vt 0.477334 0.122944
vt 0.254244 0.296768
vt 0.363601 0.322036
vt 0.313271 0.096551
vt 0.254244 0.095121
vt 0.254244 0.243565
vt 0.369425 0.310925
vt 0.306069 0.243565
vt 0.377261 0.301187
vt 0.266709 0.006115
vt 0.278694 0.009701
vt 0.254244 0.009701
vt 0.254244 0.004904
vt 0.393220 0.163833
vt 0.389778 0.144479
vt 0.307367 0.112566
vt 0.254244 0.109996
vt 0.495290 0.293696
vt 0.489051 0.297461
vt 0.303774 0.123269
vt 0.254244 0.123269
vt 0.362106 0.163833
vt 0.359387 0.149000
vt 0.480933 0.298575
vt 0.400021 0.205767
vt 0.433805 0.205767
vt 0.371803 0.205767
vt 0.345463 0.205767
vt 0.306069 0.205767
vt 0.254244 0.205767
vt 0.103525 0.243565
vt 0.098962 0.283598
vt 0.086669 0.282363
vt 0.068218 0.243565
vt 0.127702 0.243565
vt 0.110784 0.287255
vt 0.005231 0.243565
vt 0.042767 0.243565
vt 0.007163 0.281286
vt 0.004890 0.264023
vt 0.157237 0.243565
vt 0.121678 0.293194
vt 0.053175 0.163833
vt 0.047722 0.205767
vt 0.010931 0.205767
vt 0.020520 0.163833
vt 0.060253 0.287255
vt 0.037170 0.295944
vt 0.149684 0.346630
vt 0.148473 0.334092
vt 0.082290 0.163833
vt 0.058300 0.130638
vt 0.087096 0.137729
vt 0.195218 0.043804
vt 0.191582 0.055625
vt 0.218749 0.015524
vt 0.209067 0.023361
vt 0.201122 0.032910
vt 0.201233 0.140529
vt 0.205175 0.133574
vt 0.190354 0.067919
vt 0.191582 0.080213
vt 0.202420 0.163833
vt 0.168376 0.163833
vt 0.171993 0.149471
vt 0.189258 0.146477
vt 0.074749 0.285613
vt 0.031155 0.122944
vt 0.144887 0.322036
vt 0.195218 0.096551
vt 0.139064 0.310925
vt 0.202420 0.243565
vt 0.131227 0.301187
vt 0.241780 0.006115
vt 0.229795 0.009701
vt 0.115269 0.163833
vt 0.118710 0.144479
vt 0.201122 0.112566
vt 0.019437 0.297461
vt 0.013199 0.293695
vt 0.204715 0.123269
vt 0.146383 0.163833
vt 0.149102 0.149000
vt 0.027555 0.298575
vt 0.108468 0.205767
vt 0.074683 0.205767
vt 0.136686 0.205767
vt 0.163026 0.205767
vt 0.202420 0.205767
vt 0.404963 0.449695
vt 0.409526 0.409662
vt 0.421820 0.410897
vt 0.440270 0.449695
vt 0.380787 0.449695
vt 0.397705 0.406005
vt 0.503258 0.449695
vt 0.465722 0.449695
vt 0.501325 0.411974
vt 0.503599 0.429237
vt 0.351251 0.449695
vt 0.386810 0.400066
vt 0.455314 0.529426
vt 0.460767 0.487493
vt 0.497558 0.487493
vt 0.487968 0.529426
vt 0.448235 0.406005
vt 0.471318 0.397316
vt 0.360015 0.359168
vt 0.254244 0.362030
vt 0.426199 0.529426
vt 0.450188 0.562622
vt 0.421392 0.555530
vt 0.313271 0.649455
vt 0.254244 0.649455
vt 0.254244 0.636108
vt 0.316906 0.637633
vt 0.289739 0.677735
vt 0.254244 0.677735
vt 0.254244 0.669898
vt 0.299421 0.669898
vt 0.254244 0.660349
vt 0.307367 0.660349
vt 0.307256 0.552730
vt 0.303314 0.559685
vt 0.254244 0.557810
vt 0.254244 0.529427
vt 0.318134 0.625340
vt 0.254244 0.625351
vt 0.254244 0.613046
vt 0.316906 0.613046
vt 0.306068 0.529427
vt 0.340112 0.529427
vt 0.336496 0.543788
vt 0.319231 0.546782
vt 0.433740 0.407647
vt 0.477334 0.570315
vt 0.363601 0.371224
vt 0.254244 0.396492
vt 0.254244 0.598139
vt 0.313271 0.596708
vt 0.369424 0.382335
vt 0.254244 0.449695
vt 0.306068 0.449695
vt 0.377261 0.392074
vt 0.266709 0.687144
vt 0.254244 0.688355
vt 0.254244 0.683558
vt 0.278694 0.683558
vt 0.393220 0.529426
vt 0.389778 0.548780
vt 0.254244 0.583263
vt 0.307367 0.580693
vt 0.489051 0.395799
vt 0.495290 0.399565
vt 0.254244 0.569989
vt 0.303773 0.569989
vt 0.362105 0.529426
vt 0.359386 0.544258
vt 0.480934 0.394685
vt 0.400021 0.487493
vt 0.433805 0.487493
vt 0.371803 0.487493
vt 0.345463 0.487493
vt 0.306068 0.487493
vt 0.254244 0.487493
vt 0.103525 0.449695
vt 0.068218 0.449695
vt 0.086669 0.410897
vt 0.098963 0.409662
vt 0.127701 0.449695
vt 0.110784 0.406005
vt 0.005231 0.449695
vt 0.004890 0.429237
vt 0.007163 0.411974
vt 0.042767 0.449695
vt 0.157237 0.449695
vt 0.121678 0.400066
vt 0.053175 0.529426
vt 0.020520 0.529426
vt 0.010931 0.487493
vt 0.047722 0.487493
vt 0.037170 0.397316
vt 0.060253 0.406005
vt 0.148473 0.359168
vt 0.082290 0.529426
vt 0.087096 0.555530
vt 0.058300 0.562622
vt 0.195217 0.649455
vt 0.191582 0.637633
vt 0.218749 0.677735
vt 0.209067 0.669898
vt 0.201122 0.660349
vt 0.201233 0.552730
vt 0.205175 0.559685
vt 0.190354 0.625340
vt 0.191582 0.613046
vt 0.202420 0.529427
vt 0.189257 0.546782
vt 0.171993 0.543788
vt 0.168376 0.529426
vt 0.074749 0.407647
vt 0.031155 0.570315
vt 0.144887 0.371224
vt 0.195217 0.596707
vt 0.139064 0.382335
vt 0.202420 0.449695
vt 0.131227 0.392074
vt 0.241780 0.687144
vt 0.229795 0.683558
vt 0.115269 0.529426
vt 0.118710 0.548780
vt 0.201122 0.580693
vt 0.013199 0.399565
vt 0.019437 0.395799
vt 0.204715 0.569989
vt 0.146383 0.529426
vt 0.149102 0.544258
vt 0.027555 0.394685
vt 0.108468 0.487493
vt 0.074683 0.487493
vt 0.136686 0.487493
vt 0.163026 0.487493
vt 0.202420 0.487493
vt 0.655028 0.924883
vt 0.685056 0.924883
vt 0.685056 0.957744
vt 0.655028 0.957744
vt 0.622297 0.924883
vt 0.622297 0.957744
vt 0.591186 0.924883
vt 0.591186 0.957744
vt 0.129925 0.798880
vt 0.150642 0.798880
vt 0.150642 0.831741
vt 0.129925 0.831741
vt 0.168272 0.798880
vt 0.182244 0.798880
vt 0.182244 0.831741
vt 0.168272 0.831741
vt 0.460012 0.924883
vt 0.472522 0.924883
vt 0.472522 0.957744
vt 0.460012 0.957744
vt 0.489470 0.924883
vt 0.489470 0.957744
vt 0.506752 0.924883
vt 0.506752 0.957744
vt 0.518184 0.924883
vt 0.518184 0.957744
vt 0.528628 0.924883
vt 0.536723 0.924883
vt 0.536723 0.957744
vt 0.528628 0.957744
vt 0.359254 0.924883
vt 0.371934 0.924883
vt 0.371934 0.957744
vt 0.359254 0.957744
vt 0.384601 0.924883
vt 0.384601 0.957744
vt 0.397244 0.924883
vt 0.397244 0.957744
vt 0.409856 0.924883
vt 0.409856 0.957744
vt 0.422434 0.924883
vt 0.422434 0.957744
vt 0.550262 0.924883
vt 0.550262 0.957744
vt 0.434981 0.924883
vt 0.434981 0.957744
vt 0.568004 0.924883
vt 0.568004 0.957744
vt 0.447503 0.924883
vt 0.447503 0.957744
vt 0.189622 0.798880
vt 0.197918 0.798880
vt 0.197918 0.831741
vt 0.189622 0.831741
vt 0.208011 0.798880
vt 0.232985 0.798880
vt 0.232985 0.831741
vt 0.208012 0.831741
vt 0.260266 0.798881
vt 0.272776 0.798881
vt 0.272776 0.831741
vt 0.260266 0.831741
vt 0.285305 0.798881
vt 0.285305 0.831741
vt 0.247755 0.798881
vt 0.247755 0.831741
vt 0.310476 0.798881
vt 0.323133 0.798881
vt 0.323133 0.831741
vt 0.310476 0.831741
vt 0.335835 0.798881
vt 0.335835 0.831741
vt 0.297868 0.798881
vt 0.297868 0.831741
vt 0.348570 0.798881
vt 0.348570 0.831741
vt 0.091221 0.798880
vt 0.091221 0.831741
vt 0.047665 0.798880
vt 0.047665 0.831741
vt 0.004887 0.798880
vt 0.004887 0.831741
vt 0.713624 0.924883
vt 0.713624 0.957744
vt 0.361324 0.798880
vt 0.361324 0.831741
vt 0.033454 0.924883
vt 0.063482 0.924883
vt 0.063482 0.957744
vt 0.033454 0.957744
vt 0.096214 0.924883
vt 0.096214 0.957744
vt 0.127325 0.924883
vt 0.127325 0.957744
vt 0.150642 0.873742
vt 0.129925 0.873742
vt 0.129925 0.840882
vt 0.150641 0.840882
vt 0.182244 0.873742
vt 0.168272 0.873742
vt 0.168272 0.840882
vt 0.182244 0.840882
vt 0.245987 0.924883
vt 0.258496 0.924883
vt 0.258496 0.957744
vt 0.245987 0.957744
vt 0.229039 0.924883
vt 0.229039 0.957744
vt 0.211758 0.924883
vt 0.211758 0.957744
vt 0.200326 0.924883
vt 0.200326 0.957744
vt 0.181787 0.924883
vt 0.189882 0.924883
vt 0.189882 0.957744
vt 0.181787 0.957744
vt 0.333908 0.924883
vt 0.346575 0.924883
vt 0.346575 0.957744
vt 0.333908 0.957744
vt 0.321265 0.924883
vt 0.321265 0.957744
vt 0.308653 0.924883
vt 0.308653 0.957744
vt 0.296075 0.924883
vt 0.296075 0.957744
vt 0.168248 0.924883
vt 0.168248 0.957744
vt 0.283528 0.924883
vt 0.283528 0.957744
vt 0.150507 0.924883
vt 0.150507 0.957744
vt 0.271006 0.924883
vt 0.271006 0.957744
vt 0.197918 0.873742
vt 0.189621 0.873742
vt 0.189621 0.840882
vt 0.197918 0.840882
vt 0.232984 0.873742
vt 0.208011 0.873742
vt 0.208011 0.840882
vt 0.232984 0.840882
vt 0.272775 0.873742
vt 0.260265 0.873742
vt 0.260265 0.840882
vt 0.272775 0.840882
vt 0.285304 0.873742
vt 0.285304 0.840882
vt 0.247755 0.873742
vt 0.247755 0.840882
vt 0.323132 0.873742
vt 0.310476 0.873742
vt 0.310476 0.840882
vt 0.323132 0.840882
vt 0.335834 0.873742
vt 0.335834 0.840882
vt 0.297867 0.873742
vt 0.297867 0.840882
vt 0.348569 0.873742
vt 0.348569 0.840882
vt 0.091220 0.873742
vt 0.091220 0.840882
vt 0.047665 0.873742
vt 0.047665 0.840882
vt 0.004887 0.873742
vt 0.004887 0.840882
vt 0.004887 0.924883
vt 0.004887 0.957744
vt 0.361323 0.873742
vt 0.361323 0.840882
vt 0.685058 0.915745
vt 0.655030 0.915745
vt 0.655030 0.882884
vt 0.685058 0.882884
vt 0.622298 0.915745
vt 0.622298 0.882884
vt 0.591187 0.915745
vt 0.591187 0.882884
vt 0.572005 0.798880
vt 0.592722 0.798880
vt 0.592722 0.831741
vt 0.572005 0.831741
vt 0.540403 0.798880
vt 0.554376 0.798880
vt 0.554376 0.831741
vt 0.540403 0.831741
vt 0.472523 0.915745
vt 0.460013 0.915745
vt 0.460013 0.882884
vt 0.472523 0.882884
vt 0.489471 0.915745
vt 0.489471 0.882884
vt 0.506752 0.915745
vt 0.506752 0.882884
vt 0.518185 0.915745
vt 0.518185 0.882884
vt 0.536724 0.915745
vt 0.528630 0.915745
vt 0.528630 0.882884
vt 0.536724 0.882884
vt 0.371935 0.915745
vt 0.359255 0.915745
vt 0.359255 0.882884
vt 0.371935 0.882884
vt 0.384602 0.915745
vt 0.384602 0.882884
vt 0.397245 0.915745
vt 0.397245 0.882884
vt 0.409857 0.915745
vt 0.409857 0.882884
vt 0.422435 0.915745
vt 0.422435 0.882884
vt 0.550263 0.915745
vt 0.550263 0.882884
vt 0.434981 0.915745
vt 0.434981 0.882884
vt 0.568005 0.915745
vt 0.568005 0.882884
vt 0.447504 0.915745
vt 0.447504 0.882884
vt 0.524729 0.798880
vt 0.533026 0.798880
vt 0.533026 0.831741
vt 0.524729 0.831741
vt 0.489663 0.798880
vt 0.514636 0.798880
vt 0.514636 0.831741
vt 0.489663 0.831741
vt 0.449872 0.798880
vt 0.462382 0.798880
vt 0.462382 0.831741
vt 0.449872 0.831741
vt 0.437343 0.798880
vt 0.437343 0.831741
vt 0.474892 0.798880
vt 0.474892 0.831741
vt 0.399514 0.798880
vt 0.412171 0.798880
vt 0.412171 0.831741
vt 0.399514 0.831741
vt 0.386813 0.798880
vt 0.386813 0.831741
vt 0.424780 0.798880
vt 0.424780 0.831741
vt 0.374078 0.798880
vt 0.374078 0.831741
vt 0.631427 0.798880
vt 0.631427 0.831741
vt 0.674982 0.798880
vt 0.674982 0.831741
vt 0.717760 0.798880
vt 0.717760 0.831740
vt 0.713625 0.915745
vt 0.713625 0.882884
vt 0.063483 0.915745
vt 0.033455 0.915745
vt 0.033455 0.882884
vt 0.063483 0.882884
vt 0.096214 0.915745
vt 0.096214 0.882884
vt 0.127325 0.915745
vt 0.127325 0.882884
vt 0.592723 0.873742
vt 0.572006 0.873742
vt 0.572006 0.840882
vt 0.592723 0.840882
vt 0.554376 0.873742
vt 0.540404 0.873742
vt 0.540404 0.840882
vt 0.554376 0.840882
vt 0.258497 0.915745
vt 0.245988 0.915745
vt 0.245988 0.882884
vt 0.258497 0.882884
vt 0.229040 0.915745
vt 0.229040 0.882884
vt 0.211758 0.915745
vt 0.211758 0.882884
vt 0.200326 0.915745
vt 0.200326 0.882884
vt 0.189883 0.915745
vt 0.181788 0.915745
vt 0.181788 0.882884
vt 0.189883 0.882884
vt 0.346575 0.915745
vt 0.333908 0.915745
vt 0.333908 0.882884
vt 0.346575 0.882884
vt 0.321265 0.915745
vt 0.321265 0.882884
vt 0.308653 0.915745
vt 0.308653 0.882884
vt 0.296076 0.915745
vt 0.296076 0.882884
vt 0.168249 0.915745
vt 0.168249 0.882884
vt 0.283529 0.915745
vt 0.283529 0.882884
vt 0.150508 0.915745
vt 0.150508 0.882884
vt 0.271006 0.915745
vt 0.271006 0.882884
vt 0.533026 0.873742
vt 0.524729 0.873742
vt 0.524730 0.840882
vt 0.533026 0.840882
vt 0.514636 0.873742
vt 0.489662 0.873742
vt 0.489662 0.840882
vt 0.514636 0.840882
vt 0.462381 0.873742
vt 0.449871 0.873742
vt 0.449871 0.840882
vt 0.462381 0.840882
vt 0.437342 0.873742
vt 0.437343 0.840882
vt 0.474892 0.873742
vt 0.474892 0.840882
vt 0.412171 0.873742
vt 0.399514 0.873742
vt 0.399514 0.840882
vt 0.412171 0.840882
vt 0.386812 0.873742
vt 0.386812 0.840882
vt 0.424779 0.873742
vt 0.424779 0.840882
vt 0.374077 0.873742
vt 0.374077 0.840882
vt 0.631428 0.873742
vt 0.631428 0.840882
vt 0.674982 0.873742
vt 0.674983 0.840882
vt 0.717760 0.873742
vt 0.717760 0.840882
vt 0.004887 0.915744
vt 0.004887 0.882884
s 1
f 52/1/1 34/2/1 35/3/1 49/4/1
f 55/5/1 36/6/1 34/2/1 52/1/1
f 10/7/1 75/8/1 9/9/1 43/10/1
f 58/11/1 41/12/1 36/6/1 55/5/1
f 77/13/1 78/14/1 44/15/1 45/16/1
f 49/4/1 32/17/1 33/18/1 75/8/1
f 7/19/1 42/20/1 46/21/1 6/22/1
f 51/23/1 77/13/1 76/24/1 2/25/1
f 28/26/1 69/27/1 70/28/1 30/29/1
f 24/30/1 66/31/1 67/32/1 25/33/1
f 25/33/1 67/32/1 68/34/1 26/35/1
f 5/36/1 18/37/1 19/38/1 17/39/1
f 12/40/1 71/41/1 72/42/1 13/43/1
f 63/44/1 60/45/1 29/46/1 27/47/1
f 49/4/1 35/3/1 37/48/1 32/17/1
f 76/24/1 77/13/1 45/16/1 1/49/1
f 46/21/1 42/20/1 40/50/1 64/51/1
f 13/43/1 72/42/1 73/52/1 14/53/1
f 30/29/1 70/28/1 71/41/1 12/40/1
f 78/14/1 75/8/1 10/7/1 44/15/1
f 64/51/1 40/50/1 38/54/1 48/55/1
f 61/56/1 39/57/1 41/12/1 58/11/1
f 22/58/1 21/59/1 65/60/1 23/61/1
f 48/55/1 38/54/1 39/57/1 61/56/1
f 54/62/1 51/23/1 2/25/1 3/63/1
f 14/53/1 73/52/1 74/64/1 15/65/1
f 26/35/1 68/34/1 69/27/1 28/26/1
f 17/39/1 63/44/1 27/47/1 5/36/1
f 9/9/1 75/8/1 8/66/1 11/67/1
f 15/65/1 74/64/1 20/68/1 16/69/1
f 57/70/1 54/62/1 3/63/1 4/71/1
f 18/37/1 16/69/1 20/68/1 19/38/1
f 23/61/1 65/60/1 66/31/1 24/30/1
f 75/8/1 33/18/1 31/72/1 8/66/1
f 53/73/1 50/74/1 51/23/1 54/62/1
f 50/74/1 78/14/1 77/13/1 51/23/1
f 49/4/1 75/8/1 78/14/1 50/74/1
f 52/1/1 49/4/1 50/74/1 53/73/1
f 56/75/1 53/73/1 54/62/1 57/70/1
f 55/5/1 52/1/1 53/73/1 56/75/1
f 59/76/1 56/75/1 57/70/1 60/45/1
f 58/11/1 55/5/1 56/75/1 59/76/1
f 62/77/1 59/76/1 60/45/1 63/44/1
f 61/56/1 58/11/1 59/76/1 62/77/1
f 47/78/1 62/77/1 63/44/1 17/39/1
f 48/55/1 61/56/1 62/77/1 47/78/1
f 60/45/1 57/70/1 4/71/1 29/46/1
f 122/79/1 119/80/1 108/81/1 107/82/1
f 125/83/1 122/79/1 107/82/1 109/84/1
f 87/85/1 116/86/1 86/87/1 134/88/1
f 128/89/1 125/83/1 109/84/1 114/90/1
f 136/91/1 118/92/1 117/93/1 137/94/1
f 119/80/1 134/88/1 106/95/1 105/96/1
f 84/97/1 6/22/1 46/21/1 115/98/1
f 121/99/1 80/100/1 135/101/1 136/91/1
f 101/102/1 103/103/1 70/28/1 69/27/1
f 97/104/1 98/105/1 67/32/1 66/31/1
f 98/105/1 99/106/1 68/34/1 67/32/1
f 83/107/1 17/39/1 19/38/1 94/108/1
f 89/109/1 90/110/1 72/42/1 71/41/1
f 133/111/1 100/112/1 102/113/1 130/114/1
f 119/80/1 105/96/1 110/115/1 108/81/1
f 135/101/1 79/116/1 118/92/1 136/91/1
f 46/21/1 64/51/1 113/117/1 115/98/1
f 90/110/1 91/118/1 73/52/1 72/42/1
f 103/103/1 89/109/1 71/41/1 70/28/1
f 137/94/1 117/93/1 87/85/1 134/88/1
f 64/51/1 48/55/1 111/119/1 113/117/1
f 131/120/1 128/89/1 114/90/1 112/121/1
f 95/122/1 96/123/1 65/60/1 21/59/1
f 48/55/1 131/120/1 112/121/1 111/119/1
f 124/124/1 81/125/1 80/100/1 121/99/1
f 91/118/1 92/126/1 74/64/1 73/52/1
f 99/106/1 101/102/1 69/27/1 68/34/1
f 17/39/1 83/107/1 100/112/1 133/111/1
f 86/87/1 88/127/1 85/128/1 134/88/1
f 92/126/1 93/129/1 20/68/1 74/64/1
f 127/130/1 82/131/1 81/125/1 124/124/1
f 94/108/1 19/38/1 20/68/1 93/129/1
f 96/123/1 97/104/1 66/31/1 65/60/1
f 134/88/1 85/128/1 104/132/1 106/95/1
f 123/133/1 124/124/1 121/99/1 120/134/1
f 120/134/1 121/99/1 136/91/1 137/94/1
f 119/80/1 120/134/1 137/94/1 134/88/1
f 122/79/1 123/133/1 120/134/1 119/80/1
f 126/135/1 127/130/1 124/124/1 123/133/1
f 125/83/1 126/135/1 123/133/1 122/79/1
f 129/136/1 130/114/1 127/130/1 126/135/1
f 128/89/1 129/136/1 126/135/1 125/83/1
f 132/137/1 133/111/1 130/114/1 129/136/1
f 131/120/1 132/137/1 129/136/1 128/89/1
f 47/78/1 17/39/1 133/111/1 132/137/1
f 48/55/1 47/78/1 132/137/1 131/120/1
f 130/114/1 102/113/1 82/131/1 127/130/1
f 187/138/1 184/139/1 170/140/1 169/141/1
f 190/142/1 187/138/1 169/141/1 171/143/1
f 145/144/1 178/145/1 144/146/1 210/147/1
f 193/148/1 190/142/1 171/143/1 176/149/1
f 212/150/1 180/151/1 179/152/1 213/153/1
f 184/139/1 210/147/1 168/154/1 167/155/1
f 7/19/1 6/22/1 181/156/1 177/157/1
f 186/158/1 139/159/1 211/160/1 212/150/1
f 163/161/1 165/162/1 205/163/1 204/164/1
f 159/165/1 160/166/1 202/167/1 201/168/1
f 160/166/1 161/169/1 203/170/1 202/167/1
f 142/171/1 152/172/1 154/173/1 153/174/1
f 147/175/1 148/176/1 207/177/1 206/178/1
f 198/179/1 162/180/1 164/181/1 195/182/1
f 184/139/1 167/155/1 172/183/1 170/140/1
f 211/160/1 138/184/1 180/151/1 212/150/1
f 181/156/1 199/185/1 175/186/1 177/157/1
f 148/176/1 149/187/1 208/188/1 207/177/1
f 165/162/1 147/175/1 206/178/1 205/163/1
f 213/153/1 179/152/1 145/144/1 210/147/1
f 199/185/1 183/189/1 173/190/1 175/186/1
f 196/191/1 193/148/1 176/149/1 174/192/1
f 157/193/1 158/194/1 200/195/1 156/196/1
f 183/189/1 196/191/1 174/192/1 173/190/1
f 189/197/1 140/198/1 139/159/1 186/158/1
f 149/187/1 150/199/1 209/200/1 208/188/1
f 161/169/1 163/161/1 204/164/1 203/170/1
f 152/172/1 142/171/1 162/180/1 198/179/1
f 144/146/1 146/201/1 143/202/1 210/147/1
f 150/199/1 151/203/1 155/204/1 209/200/1
f 192/205/1 141/206/1 140/198/1 189/197/1
f 153/174/1 154/173/1 155/204/1 151/203/1
f 158/194/1 159/165/1 201/168/1 200/195/1
f 210/147/1 143/202/1 166/207/1 168/154/1
f 188/208/1 189/197/1 186/158/1 185/209/1
f 185/209/1 186/158/1 212/150/1 213/153/1
f 184/139/1 185/209/1 213/153/1 210/147/1
f 187/138/1 188/208/1 185/209/1 184/139/1
f 191/210/1 192/205/1 189/197/1 188/208/1
f 190/142/1 191/210/1 188/208/1 187/138/1
f 194/211/1 195/182/1 192/205/1 191/210/1
f 193/148/1 194/211/1 191/210/1 190/142/1
f 197/212/1 198/179/1 195/182/1 194/211/1
f 196/191/1 197/212/1 194/211/1 193/148/1
f 182/213/1 152/172/1 198/179/1 197/212/1
f 183/189/1 182/213/1 197/212/1 196/191/1
f 195/182/1 164/181/1 141/206/1 192/205/1
f 256/214/1 241/215/1 242/216/1 253/217/1
f 259/218/1 243/219/1 241/215/1 256/214/1
f 221/220/1 268/221/1 220/222/1 250/223/1
f 262/224/1 248/225/1 243/219/1 259/218/1
f 270/226/1 271/227/1 251/228/1 252/229/1
f 253/217/1 239/230/1 240/231/1 268/221/1
f 84/97/1 249/232/1 181/156/1 6/22/1
f 255/233/1 270/226/1 269/234/1 215/235/1
f 235/236/1 204/164/1 205/163/1 237/237/1
f 231/238/1 201/168/1 202/167/1 232/239/1
f 232/239/1 202/167/1 203/170/1 233/240/1
f 218/241/1 228/242/1 154/173/1 152/172/1
f 223/243/1 206/178/1 207/177/1 224/244/1
f 267/245/1 264/246/1 236/247/1 234/248/1
f 253/217/1 242/216/1 244/249/1 239/230/1
f 269/234/1 270/226/1 252/229/1 214/250/1
f 181/156/1 249/232/1 247/251/1 199/185/1
f 224/244/1 207/177/1 208/188/1 225/252/1
f 237/237/1 205/163/1 206/178/1 223/243/1
f 271/227/1 268/221/1 221/220/1 251/228/1
f 199/185/1 247/251/1 245/253/1 183/189/1
f 265/254/1 246/255/1 248/225/1 262/224/1
f 229/256/1 156/196/1 200/195/1 230/257/1
f 183/189/1 245/253/1 246/255/1 265/254/1
f 258/258/1 255/233/1 215/235/1 216/259/1
f 225/252/1 208/188/1 209/200/1 226/260/1
f 233/240/1 203/170/1 204/164/1 235/236/1
f 152/172/1 267/245/1 234/248/1 218/241/1
f 220/222/1 268/221/1 219/261/1 222/262/1
f 226/260/1 209/200/1 155/204/1 227/263/1
f 261/264/1 258/258/1 216/259/1 217/265/1
f 228/242/1 227/263/1 155/204/1 154/173/1
f 230/257/1 200/195/1 201/168/1 231/238/1
f 268/221/1 240/231/1 238/266/1 219/261/1
f 257/267/1 254/268/1 255/233/1 258/258/1
f 254/268/1 271/227/1 270/226/1 255/233/1
f 253/217/1 268/221/1 271/227/1 254/268/1
f 256/214/1 253/217/1 254/268/1 257/267/1
f 260/269/1 257/267/1 258/258/1 261/264/1
f 259/218/1 256/214/1 257/267/1 260/269/1
f 263/270/1 260/269/1 261/264/1 264/246/1
f 262/224/1 259/218/1 260/269/1 263/270/1
f 266/271/1 263/270/1 264/246/1 267/245/1
f 265/254/1 262/224/1 263/270/1 266/271/1
f 182/213/1 266/271/1 267/245/1 152/172/1
f 183/189/1 265/254/1 266/271/1 182/213/1
f 264/246/1 261/264/1 217/265/1 236/247/1
f 323/272/2 320/273/2 306/274/2 305/275/2
f 326/276/2 323/272/2 305/275/2 307/277/2
f 281/278/2 314/279/2 280/280/2 346/281/2
f 329/282/2 326/276/2 307/277/2 312/283/2
f 348/284/2 316/285/2 315/286/2 349/287/2
f 320/273/2 346/281/2 304/288/2 303/289/2
f 278/290/2 277/291/2 317/292/2 313/293/2
f 322/294/2 273/295/2 347/296/2 348/284/2
f 299/297/2 301/298/2 341/299/2 340/300/2
f 295/301/2 296/302/2 338/303/2 337/304/2
f 296/302/2 297/305/2 339/306/2 338/303/2
f 276/307/2 288/308/2 290/309/2 289/310/2
f 283/311/2 284/312/2 343/313/2 342/314/2
f 334/315/2 298/316/2 300/317/2 331/318/2
f 320/273/2 303/289/2 308/319/2 306/274/2
f 347/296/2 272/320/2 316/285/2 348/284/2
f 317/292/2 335/321/2 311/322/2 313/293/2
f 284/312/2 285/323/2 344/324/2 343/313/2
f 301/298/2 283/311/2 342/314/2 341/299/2
f 349/287/2 315/286/2 281/278/2 346/281/2
f 335/321/2 319/325/2 309/326/2 311/322/2
f 332/327/2 329/282/2 312/283/2 310/328/2
f 293/329/2 294/330/2 336/331/2 292/332/2
f 319/325/2 332/327/2 310/328/2 309/326/2
f 325/333/2 274/334/2 273/295/2 322/294/2
f 285/323/2 286/335/2 345/336/2 344/324/2
f 297/305/2 299/297/2 340/300/2 339/306/2
f 288/308/2 276/307/2 298/316/2 334/315/2
f 280/280/2 282/337/2 279/338/2 346/281/2
f 286/335/2 287/339/2 291/340/2 345/336/2
f 328/341/2 275/342/2 274/334/2 325/333/2
f 289/310/2 290/309/2 291/340/2 287/339/2
f 294/330/2 295/301/2 337/304/2 336/331/2
f 346/281/2 279/338/2 302/343/2 304/288/2
f 324/344/2 325/333/2 322/294/2 321/345/2
f 321/345/2 322/294/2 348/284/2 349/287/2
f 320/273/2 321/345/2 349/287/2 346/281/2
f 323/272/2 324/344/2 321/345/2 320/273/2
f 327/346/2 328/341/2 325/333/2 324/344/2
f 326/276/2 327/346/2 324/344/2 323/272/2
f 330/347/2 331/318/2 328/341/2 327/346/2
f 329/282/2 330/347/2 327/346/2 326/276/2
f 333/348/2 334/315/2 331/318/2 330/347/2
f 332/327/2 333/348/2 330/347/2 329/282/2
f 318/349/2 288/308/2 334/315/2 333/348/2
f 319/325/2 318/349/2 333/348/2 332/327/2
f 331/318/2 300/317/2 275/342/2 328/341/2
f 393/350/2 378/351/2 379/352/2 390/353/2
f 396/354/2 380/355/2 378/351/2 393/350/2
f 358/356/2 405/357/2 357/358/2 387/359/2
f 399/360/2 385/361/2 380/355/2 396/354/2
f 407/362/2 408/363/2 388/364/2 389/365/2
f 390/353/2 376/366/2 377/367/2 405/357/2
f 355/368/2 386/369/2 317/292/2 277/291/2
f 392/370/2 407/362/2 406/371/2 351/372/2
f 372/373/2 340/300/2 341/299/2 374/374/2
f 368/375/2 337/304/2 338/303/2 369/376/2
f 369/376/2 338/303/2 339/306/2 370/377/2
f 354/378/2 365/379/2 290/309/2 288/308/2
f 360/380/2 342/314/2 343/313/2 361/381/2
f 404/382/2 401/383/2 373/384/2 371/385/2
f 390/353/2 379/352/2 381/386/2 376/366/2
f 406/371/2 407/362/2 389/365/2 350/387/2
f 317/292/2 386/369/2 384/388/2 335/321/2
f 361/381/2 343/313/2 344/324/2 362/389/2
f 374/374/2 341/299/2 342/314/2 360/380/2
f 408/363/2 405/357/2 358/356/2 388/364/2
f 335/321/2 384/388/2 382/390/2 319/325/2
f 402/391/2 383/392/2 385/361/2 399/360/2
f 366/393/2 292/332/2 336/331/2 367/394/2
f 319/325/2 382/390/2 383/392/2 402/391/2
f 395/395/2 392/370/2 351/372/2 352/396/2
f 362/389/2 344/324/2 345/336/2 363/397/2
f 370/377/2 339/306/2 340/300/2 372/373/2
f 288/308/2 404/382/2 371/385/2 354/378/2
f 357/358/2 405/357/2 356/398/2 359/399/2
f 363/397/2 345/336/2 291/340/2 364/400/2
f 398/401/2 395/395/2 352/396/2 353/402/2
f 365/379/2 364/400/2 291/340/2 290/309/2
f 367/394/2 336/331/2 337/304/2 368/375/2
f 405/357/2 377/367/2 375/403/2 356/398/2
f 394/404/2 391/405/2 392/370/2 395/395/2
f 391/405/2 408/363/2 407/362/2 392/370/2
f 390/353/2 405/357/2 408/363/2 391/405/2
f 393/350/2 390/353/2 391/405/2 394/404/2
f 397/406/2 394/404/2 395/395/2 398/401/2
f 396/354/2 393/350/2 394/404/2 397/406/2
f 400/407/2 397/406/2 398/401/2 401/383/2
f 399/360/2 396/354/2 397/406/2 400/407/2
f 403/408/2 400/407/2 401/383/2 404/382/2
f 402/391/2 399/360/2 400/407/2 403/408/2
f 318/349/2 403/408/2 404/382/2 288/308/2
f 319/325/2 402/391/2 403/408/2 318/349/2
f 401/383/2 398/401/2 353/402/2 373/384/2
f 458/409/2 440/410/2 441/411/2 455/412/2
f 461/413/2 442/414/2 440/410/2 458/409/2
f 416/415/2 481/416/2 415/417/2 449/418/2
f 464/419/2 447/420/2 442/414/2 461/413/2
f 483/421/2 484/422/2 450/423/2 451/424/2
f 455/412/2 438/425/2 439/426/2 481/416/2
f 278/290/2 448/427/2 452/428/2 277/291/2
f 457/429/2 483/421/2 482/430/2 410/431/2
f 434/432/2 475/433/2 476/434/2 436/435/2
f 430/436/2 472/437/2 473/438/2 431/439/2
f 431/439/2 473/438/2 474/440/2 432/441/2
f 413/442/2 424/443/2 425/444/2 423/445/2
f 418/446/2 477/447/2 478/448/2 419/449/2
f 469/450/2 466/451/2 435/452/2 433/453/2
f 455/412/2 441/411/2 443/454/2 438/425/2
f 482/430/2 483/421/2 451/424/2 409/455/2
f 452/428/2 448/427/2 446/456/2 470/457/2
f 419/449/2 478/448/2 479/458/2 420/459/2
f 436/435/2 476/434/2 477/447/2 418/446/2
f 484/422/2 481/416/2 416/415/2 450/423/2
f 470/457/2 446/456/2 444/460/2 454/461/2
f 467/462/2 445/463/2 447/420/2 464/419/2
f 428/464/2 427/465/2 471/466/2 429/467/2
f 454/461/2 444/460/2 445/463/2 467/462/2
f 460/468/2 457/429/2 410/431/2 411/469/2
f 420/459/2 479/458/2 480/470/2 421/471/2
f 432/441/2 474/440/2 475/433/2 434/432/2
f 423/445/2 469/450/2 433/453/2 413/442/2
f 415/417/2 481/416/2 414/472/2 417/473/2
f 421/471/2 480/470/2 426/474/2 422/475/2
f 463/476/2 460/468/2 411/469/2 412/477/2
f 424/443/2 422/475/2 426/474/2 425/444/2
f 429/467/2 471/466/2 472/437/2 430/436/2
f 481/416/2 439/426/2 437/478/2 414/472/2
f 459/479/2 456/480/2 457/429/2 460/468/2
f 456/480/2 484/422/2 483/421/2 457/429/2
f 455/412/2 481/416/2 484/422/2 456/480/2
f 458/409/2 455/412/2 456/480/2 459/479/2
f 462/481/2 459/479/2 460/468/2 463/476/2
f 461/413/2 458/409/2 459/479/2 462/481/2
f 465/482/2 462/481/2 463/476/2 466/451/2
f 464/419/2 461/413/2 462/481/2 465/482/2
f 468/483/2 465/482/2 466/451/2 469/450/2
f 467/462/2 464/419/2 465/482/2 468/483/2
f 453/484/2 468/483/2 469/450/2 423/445/2
f 454/461/2 467/462/2 468/483/2 453/484/2
f 466/451/2 463/476/2 412/477/2 435/452/2
f 527/485/2 524/486/2 513/487/2 512/488/2
f 530/489/2 527/485/2 512/488/2 514/490/2
f 492/491/2 521/492/2 491/493/2 539/494/2
f 533/495/2 530/489/2 514/490/2 519/496/2
f 541/497/2 523/498/2 522/499/2 542/500/2
f 524/486/2 539/494/2 511/501/2 510/502/2
f 355/368/2 277/291/2 452/428/2 520/503/2
f 526/504/2 486/505/2 540/506/2 541/497/2
f 506/507/2 508/508/2 476/434/2 475/433/2
f 502/509/2 503/510/2 473/438/2 472/437/2
f 503/510/2 504/511/2 474/440/2 473/438/2
f 489/512/2 423/445/2 425/444/2 499/513/2
f 494/514/2 495/515/2 478/448/2 477/447/2
f 538/516/2 505/517/2 507/518/2 535/519/2
f 524/486/2 510/502/2 515/520/2 513/487/2
f 540/506/2 485/521/2 523/498/2 541/497/2
f 452/428/2 470/457/2 518/522/2 520/503/2
f 495/515/2 496/523/2 479/458/2 478/448/2
f 508/508/2 494/514/2 477/447/2 476/434/2
f 542/500/2 522/499/2 492/491/2 539/494/2
f 470/457/2 454/461/2 516/524/2 518/522/2
f 536/525/2 533/495/2 519/496/2 517/526/2
f 500/527/2 501/528/2 471/466/2 427/465/2
f 454/461/2 536/525/2 517/526/2 516/524/2
f 529/529/2 487/530/2 486/505/2 526/504/2
f 496/523/2 497/531/2 480/470/2 479/458/2
f 504/511/2 506/507/2 475/433/2 474/440/2
f 423/445/2 489/512/2 505/517/2 538/516/2
f 491/493/2 493/532/2 490/533/2 539/494/2
f 497/531/2 498/534/2 426/474/2 480/470/2
f 532/535/2 488/536/2 487/530/2 529/529/2
f 499/513/2 425/444/2 426/474/2 498/534/2
f 501/528/2 502/509/2 472/437/2 471/466/2
f 539/494/2 490/533/2 509/537/2 511/501/2
f 528/538/2 529/529/2 526/504/2 525/539/2
f 525/539/2 526/504/2 541/497/2 542/500/2
f 524/486/2 525/539/2 542/500/2 539/494/2
f 527/485/2 528/538/2 525/539/2 524/486/2
f 531/540/2 532/535/2 529/529/2 528/538/2
f 530/489/2 531/540/2 528/538/2 527/485/2
f 534/541/2 535/519/2 532/535/2 531/540/2
f 533/495/2 534/541/2 531/540/2 530/489/2
f 537/542/2 538/516/2 535/519/2 534/541/2
f 536/525/2 537/542/2 534/541/2 533/495/2
f 453/484/2 423/445/2 538/516/2 537/542/2
f 454/461/2 453/484/2 537/542/2 536/525/2
f 535/519/2 507/518/2 488/536/2 532/535/2
f 2/543/3 76/544/4 347/545/4 273/546/3
f 3/547/5 2/543/3 273/546/3 274/548/5
f 4/549/6 3/547/5 274/548/5 275/550/6
f 10/551/7 43/552/8 314/553/8 281/554/7
f 9/555/9 11/556/10 282/557/10 280/558/9
f 12/559/11 13/560/12 284/561/12 283/562/11
f 13/560/12 14/563/13 285/564/13 284/561/12
f 14/563/13 15/565/14 286/566/14 285/564/13
f 15/565/14 16/567/15 287/568/15 286/566/14
f 18/569/16 5/570/17 276/571/17 289/572/16
f 21/573/18 22/574/19 293/575/19 292/576/18
f 22/574/19 23/577/20 294/578/20 293/575/19
f 23/577/20 24/579/21 295/580/21 294/578/20
f 24/579/21 25/581/22 296/582/22 295/580/21
f 25/581/22 26/583/23 297/584/23 296/582/22
f 5/570/17 27/585/24 298/586/24 276/571/17
f 26/583/23 28/587/25 299/588/25 297/584/23
f 29/589/26 4/549/6 275/550/6 300/590/26
f 28/587/25 30/591/27 301/592/27 299/588/25
f 8/593/28 31/594/29 302/595/29 279/596/28
f 33/597/30 32/598/31 303/599/31 304/600/30
f 35/601/32 34/602/33 305/603/33 306/604/32
f 34/602/33 36/605/34 307/606/34 305/603/33
f 37/607/35 35/601/32 306/604/32 308/608/35
f 39/609/36 38/610/37 309/611/37 310/612/36
f 38/610/37 40/613/38 311/614/38 309/611/37
f 41/615/39 39/609/36 310/612/36 312/616/39
f 40/613/38 42/617/40 313/618/40 311/614/38
f 44/619/41 10/551/7 281/554/7 315/620/41
f 31/594/29 33/597/30 304/600/30 302/595/29
f 32/598/31 37/607/35 308/608/35 303/599/31
f 16/567/15 18/569/16 289/572/16 287/568/15
f 27/585/24 29/589/26 300/590/26 298/586/24
f 30/591/27 12/559/11 283/562/11 301/592/27
f 11/556/10 8/593/28 279/596/28 282/557/10
f 36/605/34 41/615/39 312/616/39 307/606/34
f 43/552/8 9/555/9 280/558/9 314/553/8
f 45/621/42 44/619/41 315/620/41 316/622/42
f 1/623/43 45/621/42 316/622/42 272/624/43
f 76/544/4 1/625/44 272/626/44 347/545/4
f 42/617/40 7/627/11 278/628/11 313/618/40
f 135/629/45 80/630/46 351/631/46 406/632/45
f 80/630/46 81/633/47 352/634/47 351/631/46
f 81/633/47 82/635/48 353/636/48 352/634/47
f 116/637/49 87/638/50 358/639/50 387/640/49
f 88/641/51 86/642/52 357/643/52 359/644/51
f 90/645/53 89/646/54 360/647/54 361/648/53
f 91/649/55 90/645/53 361/648/53 362/650/55
f 92/651/56 91/649/55 362/650/55 363/652/56
f 93/653/57 92/651/56 363/652/56 364/654/57
f 83/655/58 94/656/59 365/657/59 354/658/58
f 96/659/60 95/660/61 366/661/61 367/662/60
f 97/663/62 96/659/60 367/662/60 368/664/62
f 98/665/63 97/663/62 368/664/62 369/666/63
f 99/667/64 98/665/63 369/666/63 370/668/64
f 100/669/65 83/655/58 354/658/58 371/670/65
f 101/671/66 99/667/64 370/668/64 372/672/66
f 82/635/48 102/673/67 373/674/67 353/636/48
f 103/675/68 101/671/66 372/672/66 374/676/68
f 104/677/69 85/678/70 356/679/70 375/680/69
f 105/681/71 106/682/72 377/683/72 376/684/71
f 107/685/73 108/686/32 379/687/32 378/688/73
f 109/689/74 107/685/73 378/688/73 380/690/74
f 108/686/32 110/691/75 381/692/75 379/687/32
f 111/693/76 112/694/77 383/695/77 382/696/76
f 113/697/78 111/693/76 382/696/76 384/698/78
f 112/694/77 114/699/79 385/700/79 383/695/77
f 115/701/80 113/697/78 384/698/78 386/702/80
f 87/638/50 117/703/81 388/704/81 358/639/50
f 106/682/72 104/677/69 375/680/69 377/683/72
f 110/691/75 105/681/71 376/684/71 381/692/75
f 94/656/59 93/653/57 364/654/57 365/657/59
f 102/673/67 100/669/65 371/670/65 373/674/67
f 89/646/54 103/675/68 374/676/68 360/647/54
f 85/678/70 88/641/51 359/644/51 356/679/70
f 114/699/79 109/689/74 380/690/74 385/700/79
f 86/642/52 116/637/49 387/640/49 357/643/52
f 117/703/81 118/705/82 389/706/82 388/704/81
f 118/705/82 79/707/83 350/708/83 389/706/82
f 79/709/84 135/629/45 406/632/45 350/710/84
f 84/711/54 115/701/80 386/702/80 355/712/54
f 95/660/61 21/573/18 292/576/18 366/661/61
f 211/713/85 139/714/86 410/715/86 482/716/85
f 139/714/86 140/717/87 411/718/87 410/715/86
f 140/717/87 141/719/88 412/720/88 411/718/87
f 178/721/89 145/722/90 416/723/90 449/724/89
f 146/725/91 144/726/92 415/727/92 417/728/91
f 148/729/93 147/730/11 418/731/11 419/732/93
f 149/733/94 148/729/93 419/732/93 420/734/94
f 150/735/95 149/733/94 420/734/94 421/736/95
f 151/737/96 150/735/95 421/736/95 422/738/96
f 142/739/97 153/740/98 424/741/98 413/742/97
f 157/743/99 156/744/32 427/745/32 428/746/99
f 158/747/100 157/743/99 428/746/99 429/748/100
f 159/749/101 158/747/100 429/748/100 430/750/101
f 160/751/102 159/749/101 430/750/101 431/752/102
f 161/753/103 160/751/102 431/752/102 432/754/103
f 162/755/104 142/739/97 413/742/97 433/756/104
f 163/757/105 161/753/103 432/754/103 434/758/105
f 141/719/88 164/759/106 435/760/106 412/720/88
f 165/761/107 163/757/105 434/758/105 436/762/107
f 166/763/108 143/764/109 414/765/109 437/766/108
f 167/767/110 168/768/111 439/769/111 438/770/110
f 169/771/112 170/772/18 441/773/18 440/774/112
f 171/775/113 169/771/112 440/774/112 442/776/113
f 170/772/18 172/777/114 443/778/114 441/773/18
f 173/779/115 174/780/116 445/781/116 444/782/115
f 175/783/117 173/779/115 444/782/115 446/784/117
f 174/780/116 176/785/118 447/786/118 445/781/116
f 177/787/119 175/783/117 446/784/117 448/788/119
f 145/722/90 179/789/120 450/790/120 416/723/90
f 168/768/111 166/763/108 437/766/108 439/769/111
f 172/777/114 167/767/110 438/770/110 443/778/114
f 153/740/98 151/737/96 422/738/96 424/741/98
f 164/759/106 162/755/104 433/756/104 435/760/106
f 147/730/11 165/761/107 436/762/107 418/731/11
f 143/764/109 146/725/91 417/728/91 414/765/109
f 176/785/118 171/775/113 442/776/113 447/786/118
f 144/726/92 178/721/89 449/724/89 415/727/92
f 179/789/120 180/791/121 451/792/121 450/790/120
f 180/791/121 138/793/122 409/794/122 451/792/121
f 138/795/123 211/713/85 482/716/85 409/796/123
f 215/797/124 269/798/125 540/799/125 486/800/124
f 216/801/126 215/797/124 486/800/124 487/802/126
f 217/803/127 216/801/126 487/802/126 488/804/127
f 221/805/128 250/806/129 521/807/129 492/808/128
f 220/809/130 222/810/131 493/811/131 491/812/130
f 223/813/54 224/814/132 495/815/132 494/816/54
f 224/814/132 225/817/133 496/818/133 495/815/132
f 225/817/133 226/819/134 497/820/134 496/818/133
f 226/819/134 227/821/135 498/822/135 497/820/134
f 228/823/136 218/824/137 489/825/137 499/826/136
f 229/827/138 230/828/139 501/829/139 500/830/138
f 230/828/139 231/831/140 502/832/140 501/829/139
f 231/831/140 232/833/141 503/834/141 502/832/140
f 232/833/141 233/835/142 504/836/142 503/834/141
f 218/824/137 234/837/143 505/838/143 489/825/137
f 233/835/142 235/839/144 506/840/144 504/836/142
f 236/841/145 217/803/127 488/804/127 507/842/145
f 235/839/144 237/843/146 508/844/146 506/840/144
f 219/845/147 238/846/148 509/847/148 490/848/147
f 240/849/149 239/850/150 510/851/150 511/852/149
f 242/853/18 241/854/151 512/855/151 513/856/18
f 241/854/151 243/857/152 514/858/152 512/855/151
f 244/859/153 242/853/18 513/856/18 515/860/153
f 246/861/154 245/862/155 516/863/155 517/864/154
f 245/862/155 247/865/156 518/866/156 516/863/155
f 248/867/157 246/861/154 517/864/154 519/868/157
f 247/865/156 249/869/158 520/870/158 518/866/156
f 251/871/159 221/805/128 492/808/128 522/872/159
f 238/846/148 240/849/149 511/852/149 509/847/148
f 239/850/150 244/859/153 515/860/153 510/851/150
f 227/821/135 228/823/136 499/826/136 498/822/135
f 234/837/143 236/841/145 507/842/145 505/838/143
f 237/843/146 223/813/54 494/816/54 508/844/146
f 222/810/131 219/845/147 490/848/147 493/811/131
f 243/857/152 248/867/157 519/868/157 514/858/152
f 250/806/129 220/809/130 491/812/130 521/807/129
f 252/873/160 251/871/159 522/872/159 523/874/160
f 214/875/161 252/873/160 523/874/160 485/876/161
f 269/798/125 214/877/162 485/878/162 540/799/125
f 156/744/32 229/827/138 500/830/138 427/745/32
f 7/627/11 177/787/119 448/788/119 278/628/11
f 249/869/158 84/711/54 355/712/54 520/870/158
