# Blender 4.0.2
# www.blender.org
o loaf_tin
v 0.000000 0.056685 -0.124750
v -0.065591 0.056681 -0.083972
v -0.037761 0.056683 -0.118360
v -0.064592 0.056688 -0.094769
v -0.060474 0.056701 -0.105836
v -0.049222 0.056687 -0.113736
v -0.018877 0.056683 -0.122990
v 0.000000 0.056962 -0.110889
v 0.000000 0.051860 -0.105366
v 0.000000 0.055468 -0.107190
v -0.063196 0.056962 -0.083721
v -0.057383 0.051860 -0.083148
v -0.059291 0.055468 -0.083336
v -0.035801 0.051860 -0.104687
v -0.036584 0.056962 -0.110140
v -0.036048 0.055468 -0.106491
v -0.055718 0.051860 -0.091520
v -0.061266 0.056962 -0.093537
v -0.057537 0.055468 -0.092191
v -0.051115 0.051860 -0.098408
v -0.055633 0.056962 -0.102032
v -0.052587 0.055468 -0.099618
v -0.044226 0.051860 -0.103011
v -0.046600 0.056962 -0.108116
v -0.045002 0.055468 -0.104700
v -0.018280 0.051860 -0.105366
v -0.018489 0.056962 -0.110879
v -0.018354 0.055468 -0.107187
v -0.017807 0.003823 -0.080189
v 0.000000 0.003823 -0.080189
v -0.017807 0.002000 -0.081575
v 0.000000 0.002000 -0.081575
v -0.024678 0.003823 -0.080189
v -0.032558 0.003823 -0.072308
v -0.027693 0.003823 -0.079589
v -0.030250 0.003823 -0.077880
v -0.031958 0.003823 -0.075324
v -0.033944 0.002000 -0.073694
v -0.026064 0.002000 -0.081575
v -0.033345 0.002000 -0.076710
v -0.031636 0.002000 -0.079267
v -0.029080 0.002000 -0.080975
v 0.000000 0.003823 -0.072308
v -0.017807 0.003823 -0.072308
v -0.024678 0.003823 -0.072308
v -0.042967 0.002000 -0.080210
v -0.050604 0.008533 -0.082480
v -0.047943 0.003913 -0.082218
v -0.035091 0.008533 -0.097916
v -0.032546 0.002000 -0.090379
v -0.034769 0.003913 -0.095267
v -0.041581 0.008533 -0.096625
v -0.037499 0.002000 -0.089650
v -0.040543 0.003913 -0.094119
v -0.046227 0.008533 -0.093520
v -0.040721 0.002000 -0.088015
v -0.044309 0.003913 -0.091603
v -0.049332 0.008533 -0.088874
v -0.042359 0.002000 -0.084786
v -0.046826 0.003913 -0.087836
v 0.000000 0.008533 -0.098587
v 0.000000 0.002000 -0.090957
v 0.000000 0.003914 -0.095928
v -0.017834 0.002000 -0.090957
v -0.017991 0.008533 -0.098587
v -0.017927 0.003914 -0.095928
v 0.065591 0.056681 -0.083972
v 0.037761 0.056683 -0.118360
v 0.064592 0.056688 -0.094769
v 0.060474 0.056701 -0.105836
v 0.049222 0.056687 -0.113736
v 0.018877 0.056683 -0.122990
v 0.063196 0.056962 -0.083721
v 0.057383 0.051860 -0.083148
v 0.059291 0.055468 -0.083336
v 0.035801 0.051860 -0.104687
v 0.036584 0.056962 -0.110140
v 0.036048 0.055468 -0.106491
v 0.055718 0.051860 -0.091520
v 0.061266 0.056962 -0.093537
v 0.057537 0.055468 -0.092191
v 0.051115 0.051860 -0.098408
v 0.055633 0.056962 -0.102032
v 0.052587 0.055468 -0.099618
v 0.044226 0.051860 -0.103011
v 0.046600 0.056962 -0.108116
v 0.045002 0.055468 -0.104700
v 0.018280 0.051860 -0.105366
v 0.018489 0.056962 -0.110879
v 0.018354 0.055468 -0.107187
v 0.017807 0.003823 -0.080189
v 0.017807 0.002000 -0.081575
v 0.024678 0.003823 -0.080189
v 0.032558 0.003823 -0.072308
v 0.027693 0.003823 -0.079589
v 0.030250 0.003823 -0.077880
v 0.031958 0.003823 -0.075324
v 0.033944 0.002000 -0.073694
v 0.026064 0.002000 -0.081575
v 0.033345 0.002000 -0.076710
v 0.031636 0.002000 -0.079267
v 0.029080 0.002000 -0.080975
v 0.017807 0.003823 -0.072308
v 0.024678 0.003823 -0.072308
v 0.042967 0.002000 -0.080210
v 0.050604 0.008533 -0.082480
v 0.047943 0.003913 -0.082218
v 0.035091 0.008533 -0.097916
v 0.032546 0.002000 -0.090379
v 0.034769 0.003913 -0.095267
v 0.041581 0.008533 -0.096625
v 0.037499 0.002000 -0.089650
v 0.040543 0.003913 -0.094119
v 0.046227 0.008533 -0.093520
v 0.040721 0.002000 -0.088015
v 0.044309 0.003913 -0.091603
v 0.049332 0.008533 -0.088874
v 0.000000 0.056685 0.124750
v -0.065591 0.056681 0.083972
v -0.037761 0.056683 0.118360
v -0.064592 0.056688 0.094769
v -0.060474 0.056701 0.105836
v -0.049222 0.056687 0.113736
v -0.018877 0.056683 0.122990
v 0.000000 0.056962 0.110889
v 0.000000 0.051860 0.105366
v 0.000000 0.055468 0.107190
v -0.063196 0.056962 0.083721
v -0.057383 0.051860 0.083148
v -0.059291 0.055468 0.083336
v -0.035801 0.051860 0.104687
v -0.036584 0.056962 0.110140
v -0.036048 0.055468 0.106491
v -0.055718 0.051860 0.091520
v -0.061266 0.056962 0.093537
v -0.057537 0.055468 0.092191
v -0.051115 0.051860 0.098408
v -0.055633 0.056962 0.102032
v -0.052587 0.055468 0.099618
v -0.044226 0.051860 0.103011
v -0.046600 0.056962 0.108116
v -0.045002 0.055468 0.104700
v -0.018280 0.051860 0.105366
v -0.018489 0.056962 0.110879
v -0.018354 0.055468 0.107187
v -0.017807 0.003823 0.080189
v 0.000000 0.003823 0.080189
v -0.017807 0.002000 0.081575
v 0.000000 0.002000 0.081575
v -0.024678 0.003823 0.080189
v -0.032558 0.003823 0.072308
v -0.027693 0.003823 0.079589
v -0.030250 0.003823 0.077880
v -0.031958 0.003823 0.075324
v -0.033944 0.002000 0.073694
v -0.026064 0.002000 0.081575
v -0.033345 0.002000 0.076710
v -0.031636 0.002000 0.079267
v -0.029080 0.002000 0.080975
v 0.000000 0.003823 0.072308
v -0.017807 0.003823 0.072308
v -0.024678 0.003823 0.072308
v -0.042967 0.002000 0.080210
v -0.050604 0.008533 0.082480
v -0.047943 0.003913 0.082218
v -0.035091 0.008533 0.097916
v -0.032546 0.002000 0.090379
v -0.034769 0.003913 0.095267
v -0.041581 0.008533 0.096625
v -0.037499 0.002000 0.089650
v -0.040543 0.003913 0.094119
v -0.046227 0.008533 0.093520
v -0.040721 0.002000 0.088015
v -0.044309 0.003913 0.091603
v 0.042359 0.002000 -0.084786
v 0.046826 0.003913 -0.087836
v 0.017834 0.002000 -0.090957
v 0.017991 0.008533 -0.098587
v 0.017927 0.003914 -0.095928
v -0.049332 0.008533 0.088874
v -0.042359 0.002000 0.084786
v -0.046826 0.003913 0.087836
v 0.000000 0.008533 0.098587
v 0.000000 0.002000 0.090957
v 0.000000 0.003914 0.095928
v -0.017834 0.002000 0.090957
v -0.017991 0.008533 0.098587
v -0.017927 0.003914 0.095928
v 0.065591 0.056681 0.083972
v 0.037761 0.056683 0.118360
v 0.064592 0.056688 0.094769
v 0.060474 0.056701 0.105836
v 0.049222 0.056687 0.113736
v 0.018877 0.056683 0.122990
v 0.063196 0.056962 0.083721
v 0.057383 0.051860 0.083148
v 0.059291 0.055468 0.083336
v 0.035801 0.051860 0.104687
v 0.036584 0.056962 0.110140
v 0.036048 0.055468 0.106491
v 0.055718 0.051860 0.091520
v 0.061266 0.056962 0.093537
v 0.057537 0.055468 0.092191
v 0.051115 0.051860 0.098408
v 0.055633 0.056962 0.102032
v 0.052587 0.055468 0.099618
v 0.044226 0.051860 0.103011
v 0.046600 0.056962 0.108116
v 0.045002 0.055468 0.104700
v 0.018280 0.051860 0.105366
v 0.000000 0.054962 -0.125044
v -0.065880 0.054962 -0.083985
v -0.037851 0.054962 -0.118637
v -0.064881 0.054962 -0.094835
v -0.060718 0.054962 -0.106025
v -0.049363 0.054962 -0.113996
v -0.018925 0.054962 -0.123278
v 0.000000 0.054962 -0.111278
v 0.000000 0.051240 -0.107293
v 0.000000 0.053895 -0.108636
v -0.063593 0.054967 -0.083759
v -0.059307 0.051221 -0.083338
v -0.060735 0.053893 -0.083478
v -0.036028 0.051243 -0.106607
v -0.036633 0.054967 -0.110554
v -0.036223 0.053919 -0.107956
v -0.057527 0.051210 -0.092267
v -0.061656 0.054971 -0.093699
v -0.058903 0.053900 -0.092756
v -0.052503 0.051218 -0.099791
v -0.055938 0.054971 -0.102339
v -0.053641 0.053912 -0.100673
v -0.044978 0.051227 -0.104822
v -0.046769 0.054972 -0.108524
v -0.045579 0.053924 -0.106090
v -0.018317 0.051242 -0.107294
v -0.018497 0.054963 -0.111276
v -0.018382 0.053903 -0.108641
v -0.043367 0.000005 -0.081768
v -0.052523 0.007859 -0.082669
v -0.049350 0.002323 -0.082357
v -0.035318 0.007860 -0.099828
v -0.034189 0.000004 -0.090710
v -0.034934 0.002321 -0.096665
v -0.042328 0.007846 -0.098428
v -0.038763 0.000007 -0.089821
v -0.041093 0.002325 -0.095447
v -0.047608 0.007846 -0.094901
v -0.041020 0.000007 -0.088313
v -0.045326 0.002325 -0.092619
v -0.051135 0.007846 -0.089621
v -0.042529 0.000007 -0.086056
v -0.048154 0.002325 -0.088386
v 0.000000 0.007857 -0.100505
v 0.000000 0.000000 -0.091328
v 0.000000 0.002302 -0.097308
v -0.017842 0.000001 -0.091335
v -0.018029 0.007859 -0.100506
v -0.017954 0.002308 -0.097316
v 0.018489 0.056962 0.110879
v 0.018354 0.055468 0.107187
v 0.017807 0.003823 0.080189
v 0.017807 0.002000 0.081575
v 0.024678 0.003823 0.080189
v 0.032558 0.003823 0.072308
v 0.027693 0.003823 0.079589
v 0.030250 0.003823 0.077880
v 0.031958 0.003823 0.075324
v 0.033944 0.002000 0.073694
v 0.026064 0.002000 0.081575
v 0.033345 0.002000 0.076710
v 0.031636 0.002000 0.079267
v 0.029080 0.002000 0.080975
v 0.065880 0.054962 -0.083985
v 0.037851 0.054962 -0.118637
v 0.064881 0.054962 -0.094835
v 0.060718 0.054962 -0.106025
v 0.049363 0.054962 -0.113996
v 0.018925 0.054962 -0.123278
v 0.063593 0.054967 -0.083759
v 0.059307 0.051221 -0.083338
v 0.060735 0.053893 -0.083478
v 0.036028 0.051243 -0.106607
v 0.036633 0.054967 -0.110554
v 0.036223 0.053919 -0.107956
v 0.057527 0.051210 -0.092267
v 0.061656 0.054971 -0.093699
v 0.058903 0.053900 -0.092756
v 0.052503 0.051218 -0.099791
v 0.055938 0.054971 -0.102339
v 0.053641 0.053912 -0.100673
v 0.044978 0.051227 -0.104822
v 0.046769 0.054972 -0.108524
v 0.017807 0.003823 0.072308
v 0.024678 0.003823 0.072308
v 0.042967 0.002000 0.080210
v 0.050604 0.008533 0.082480
v 0.047943 0.003913 0.082218
v 0.035091 0.008533 0.097916
v 0.032546 0.002000 0.090379
v 0.034769 0.003913 0.095267
v 0.041581 0.008533 0.096625
v 0.037499 0.002000 0.089650
v 0.040543 0.003913 0.094119
v 0.046227 0.008533 0.093520
v 0.040721 0.002000 0.088015
v 0.044309 0.003913 0.091603
v 0.049332 0.008533 0.088874
v 0.042359 0.002000 0.084786
v 0.046826 0.003913 0.087836
v 0.017834 0.002000 0.090957
v 0.017991 0.008533 0.098587
v 0.017927 0.003914 0.095928
v 0.000000 0.054962 0.125044
v -0.065880 0.054962 0.083985
v -0.037851 0.054962 0.118637
v -0.064881 0.054962 0.094835
v 0.045579 0.053924 -0.106090
v 0.018317 0.051242 -0.107294
v -0.017842 0.000002 -0.081768
v -0.060718 0.054962 0.106025
v -0.049363 0.054962 0.113996
v -0.018925 0.054962 0.123278
v 0.000000 0.054962 0.111278
v 0.000000 0.051240 0.107293
v 0.000000 0.053895 0.108636
v -0.063593 0.054967 0.083759
v -0.059307 0.051221 0.083338
v -0.060735 0.053893 0.083478
v -0.036028 0.051243 0.106607
v -0.036633 0.054967 0.110554
v -0.036223 0.053919 0.107956
v -0.057527 0.051210 0.092267
v -0.061656 0.054971 0.093699
v -0.058903 0.053900 0.092756
v -0.052503 0.051218 0.099791
v -0.055938 0.054971 0.102339
v -0.053641 0.053912 0.100673
v -0.044978 0.051227 0.104822
v 0.018497 0.054963 -0.111276
v 0.018382 0.053903 -0.108641
v 0.043367 0.000005 -0.081768
v 0.052523 0.007859 -0.082669
v 0.049350 0.002323 -0.082357
v 0.035318 0.007860 -0.099828
v 0.034189 0.000004 -0.090710
v 0.034934 0.002321 -0.096665
v 0.042328 0.007846 -0.098428
v 0.038763 0.000007 -0.089821
v 0.041093 0.002325 -0.095447
v 0.047608 0.007846 -0.094901
v 0.041020 0.000007 -0.088313
v 0.045326 0.002325 -0.092619
v 0.051135 0.007846 -0.089621
v 0.042529 0.000007 -0.086056
v 0.048154 0.002325 -0.088386
v 0.017842 0.000001 -0.091335
v 0.018029 0.007859 -0.100506
v 0.017954 0.002308 -0.097316
v -0.046769 0.054972 0.108524
v -0.045579 0.053924 0.106090
v -0.034189 0.000004 -0.081768
v 0.000000 0.000000 -0.081768
v -0.018317 0.051242 0.107294
v -0.018497 0.054963 0.111276
v -0.018382 0.053903 0.108641
v -0.043367 0.000005 0.081768
v -0.052523 0.007859 0.082669
v -0.049350 0.002323 0.082357
v -0.035318 0.007860 0.099828
v -0.034189 0.000004 0.090710
v -0.034934 0.002321 0.096665
v -0.042328 0.007846 0.098428
v -0.038763 0.000007 0.089821
v -0.041093 0.002325 0.095447
v -0.047608 0.007846 0.094901
v -0.041020 0.000007 0.088313
v -0.045326 0.002325 0.092619
v -0.051135 0.007846 0.089621
v -0.042529 0.000007 0.086056
v -0.048154 0.002325 0.088386
v 0.000000 0.007857 0.100505
v 0.000000 0.000000 0.091328
v 0.000000 0.002302 0.097308
v 0.017842 0.000002 -0.081768
v -0.017842 0.000001 0.091335
v -0.018029 0.007859 0.100506
v -0.017954 0.002308 0.097316
v 0.065880 0.054962 0.083985
v 0.037851 0.054962 0.118637
v 0.064881 0.054962 0.094835
v 0.060718 0.054962 0.106025
v 0.049363 0.054962 0.113996
v 0.018925 0.054962 0.123278
v 0.063593 0.054967 0.083759
v 0.059307 0.051221 0.083338
v 0.060735 0.053893 0.083478
v 0.036028 0.051243 0.106607
v 0.036633 0.054967 0.110554
v 0.036223 0.053919 0.107956
v 0.057527 0.051210 0.092267
v 0.034189 0.000004 -0.081768
v 0.061656 0.054971 0.093699
v 0.058903 0.053900 0.092756
v 0.052503 0.051218 0.099791
v 0.055938 0.054971 0.102339
v 0.053641 0.053912 0.100673
v 0.044978 0.051227 0.104822
v 0.046769 0.054972 0.108524
v 0.045579 0.053924 0.106090
v 0.018317 0.051242 0.107294
v -0.017842 0.000002 0.081768
v 0.018497 0.054963 0.111276
v 0.018382 0.053903 0.108641
v 0.043367 0.000005 0.081768
v 0.052523 0.007859 0.082669
v 0.049350 0.002323 0.082357
v 0.035318 0.007860 0.099828
v 0.034189 0.000004 0.090710
v 0.034934 0.002321 0.096665
v 0.042328 0.007846 0.098428
v 0.038763 0.000007 0.089821
v 0.041093 0.002325 0.095447
v 0.047608 0.007846 0.094901
v 0.041020 0.000007 0.088313
v 0.045326 0.002325 0.092619
v 0.051135 0.007846 0.089621
v 0.042529 0.000007 0.086056
v 0.048154 0.002325 0.088386
v 0.017842 0.000001 0.091335
v 0.018029 0.007859 0.100506
v 0.017954 0.002308 0.097316
v -0.034189 0.000004 0.081768
v 0.000000 0.000000 0.081768
v 0.017842 0.000002 0.081768
v 0.034189 0.000004 0.081768
vn -0.9830 0.1827 -0.0162
vn -0.6575 0.7534 -0.0124
vn -0.6575 0.7534 0.0124
vn -0.9830 0.1827 0.0162
vn -0.0072 0.9995 -0.0315
vn 0.0062 0.9960 0.0896
vn 0.0009 0.9967 0.0808
vn -0.0024 0.9997 -0.0240
vn 0.0117 0.9872 0.1589
vn 0.0446 0.9904 0.1310
vn -0.0000 1.0000 -0.0000
vn -0.1048 0.9945 -0.0067
vn 0.1637 0.9865 0.0011
vn 0.1160 0.9918 0.0541
vn -0.0699 0.9974 -0.0192
vn 0.0758 0.9940 0.0794
vn -0.0375 0.9988 -0.0308
vn 0.0372 0.9951 0.0913
vn -0.0178 0.9992 -0.0370
vn -0.0000 0.9971 0.0756
vn -0.0000 0.9998 -0.0214
vn 0.6575 0.7534 -0.0124
vn 0.6575 0.7534 0.0124
vn 0.1636 0.9865 -0.0008
vn -0.1048 0.9945 0.0067
vn 0.0187 0.1807 0.9834
vn 0.0132 0.7351 0.6778
vn 0.0625 0.7389 0.6709
vn 0.0858 0.1822 0.9795
vn 0.2517 0.7548 0.6058
vn 0.3682 0.1886 0.9104
vn 0.4562 0.7634 0.4572
vn 0.6941 0.1905 0.6942
vn 0.5926 0.7677 0.2439
vn 0.9098 0.1904 0.3688
vn 0.9830 0.1827 0.0162
vn -0.0000 0.1805 0.9836
vn -0.0000 0.7350 0.6781
vn -0.0442 0.6258 -0.7787
vn -0.0000 0.6054 -0.7960
vn -0.0441 0.6258 -0.7787
vn 0.0027 0.9894 0.1449
vn 0.0847 0.1914 0.9778
vn 0.0187 0.1928 0.9811
vn 0.3667 0.1888 0.9110
vn 0.6946 0.1870 0.6946
vn 0.9106 0.1887 0.3677
vn 0.9811 0.1927 0.0157
vn -0.0000 0.1928 0.9812
vn 0.0868 0.9924 0.0867
vn 0.1292 0.9906 0.0442
vn -0.2714 0.7049 -0.6553
vn -0.4815 0.7324 -0.4815
vn -0.6553 0.7049 -0.2714
vn -0.7936 0.6084 -0.0062
vn -0.7936 0.6084 -0.0063
vn 0.6525 0.7577 0.0081
vn 0.6525 0.7577 -0.0081
vn 0.1405 0.9901 -0.0014
vn 0.1405 0.9901 0.0014
vn -0.7936 0.6084 0.0062
vn -0.7936 0.6084 0.0063
vn -0.0000 0.9912 0.1324
vn 0.9811 0.1927 -0.0157
vn 0.9830 0.1827 -0.0162
vn 0.0124 0.7554 0.6552
vn 0.0523 0.7509 0.6584
vn 0.2329 0.7509 0.6180
vn 0.4684 0.7492 0.4684
vn 0.6193 0.7492 0.2348
vn -0.0000 0.7590 0.6511
vn -0.0523 0.7509 0.6584
vn -0.0847 0.1914 0.9778
vn -0.0195 0.1928 0.9811
vn -0.0124 0.7554 0.6552
vn -0.2517 0.7548 0.6058
vn -0.4563 0.7634 0.4572
vn -0.0758 0.9940 0.0794
vn -0.0371 0.9951 0.0914
vn -0.0868 0.9924 0.0867
vn -0.1292 0.9906 0.0442
vn 0.0375 0.9988 -0.0308
vn 0.0178 0.9992 -0.0370
vn -0.1637 0.9865 -0.0011
vn -0.1636 0.9865 0.0008
vn 0.7936 0.6084 -0.0063
vn 0.7936 0.6084 0.0063
vn 0.7936 0.6084 0.0062
vn 0.7936 0.6084 -0.0062
vn -0.3682 0.1886 0.9104
vn -0.6941 0.1905 0.6942
vn -0.0117 0.9872 0.1589
vn -0.0446 0.9904 0.1310
vn 0.0072 0.9995 -0.0315
vn 0.0024 0.9997 -0.0240
vn -0.0006 0.9967 0.0809
vn -0.0071 0.9960 0.0894
vn -0.9098 0.1904 0.3688
vn -0.5926 0.7677 0.2439
vn -0.1161 0.9918 0.0540
vn -0.0858 0.1822 0.9795
vn -0.0625 0.7389 0.6709
vn -0.0132 0.7351 0.6778
vn -0.0187 0.1807 0.9834
vn 0.0699 0.9974 -0.0192
vn 0.1048 0.9945 -0.0067
vn 0.0442 0.6258 -0.7787
vn 0.0441 0.6258 -0.7787
vn -0.6193 0.7492 0.2348
vn -0.4684 0.7492 0.4684
vn -0.6946 0.1870 0.6946
vn -0.3667 0.1888 0.9110
vn -0.1405 0.9901 0.0014
vn -0.6525 0.7577 0.0081
vn 0.4815 0.7324 -0.4815
vn 0.6553 0.7049 -0.2714
vn -0.9842 -0.1760 0.0172
vn -0.6573 -0.7535 0.0130
vn -0.6573 -0.7535 -0.0130
vn -0.9842 -0.1760 -0.0172
vn -0.6525 0.7577 -0.0081
vn -0.9811 0.1927 -0.0157
vn -0.9811 0.1927 0.0157
vn -0.9106 0.1887 0.3677
vn 0.0001 -1.0000 -0.0000
vn -0.0000 -1.0000 -0.0000
vn -0.0027 0.9894 0.1449
vn -0.2329 0.7509 0.6180
vn 0.2714 0.7049 -0.6553
vn -0.1405 0.9901 -0.0014
vn 0.1048 0.9945 0.0067
vn 0.2517 0.7548 -0.6058
vn 0.4563 0.7634 -0.4572
vn 0.0758 0.9940 -0.0794
vn 0.0371 0.9951 -0.0914
vn -0.6553 0.7049 0.2714
vn -0.0375 0.9988 0.0308
vn -0.0178 0.9992 0.0370
vn 0.3682 0.1886 -0.9104
vn 0.6941 0.1905 -0.6942
vn 0.0117 0.9872 -0.1589
vn 0.0446 0.9904 -0.1310
vn -0.0072 0.9995 0.0315
vn -0.0024 0.9997 0.0240
vn 0.0006 0.9967 -0.0809
vn 0.0071 0.9960 -0.0894
vn 0.9098 0.1904 -0.3688
vn 0.5926 0.7677 -0.2439
vn 0.1161 0.9918 -0.0540
vn 0.0858 0.1822 -0.9795
vn 0.0625 0.7389 -0.6709
vn 0.0132 0.7351 -0.6778
vn 0.0187 0.1807 -0.9834
vn -0.0000 0.9998 0.0214
vn -0.0000 0.9971 -0.0756
vn -0.0699 0.9974 0.0192
vn -0.0442 0.6258 0.7787
vn -0.0441 0.6258 0.7787
vn -0.0000 0.6054 0.7960
vn 0.1292 0.9906 -0.0442
vn 0.6193 0.7492 -0.2348
vn 0.4684 0.7492 -0.4684
vn 0.0868 0.9924 -0.0867
vn 0.9106 0.1887 -0.3677
vn 0.6946 0.1870 -0.6946
vn -0.4815 0.7324 0.4815
vn -0.0000 0.9912 -0.1324
vn 0.0027 0.9894 -0.1449
vn -0.0000 0.1805 -0.9836
vn -0.0000 0.1928 -0.9812
vn 0.0187 0.1928 -0.9811
vn -0.0000 0.7350 -0.6781
vn 0.0523 0.7509 -0.6584
vn 0.0124 0.7554 -0.6552
vn 0.0847 0.1914 -0.9778
vn 0.3667 0.1888 -0.9110
vn 0.2329 0.7509 -0.6180
vn -0.2714 0.7049 0.6553
vn -0.0000 0.7590 -0.6511
vn -0.6193 0.7492 -0.2348
vn -0.4684 0.7492 -0.4684
vn -0.6946 0.1870 -0.6946
vn -0.9106 0.1887 -0.3677
vn -0.0857 0.1822 -0.9795
vn -0.0625 0.7389 -0.6709
vn -0.2517 0.7548 -0.6058
vn -0.3682 0.1886 -0.9104
vn -0.1292 0.9906 -0.0442
vn -0.0867 0.9924 -0.0867
vn -0.0523 0.7509 -0.6584
vn -0.0124 0.7553 -0.6552
vn -0.0187 0.1928 -0.9811
vn -0.0847 0.1914 -0.9778
vn -0.0117 0.9872 -0.1589
vn -0.0446 0.9904 -0.1310
vn -0.0371 0.9951 -0.0914
vn -0.0758 0.9940 -0.0794
vn -0.4562 0.7634 -0.4572
vn -0.0132 0.7351 -0.6778
vn -0.0006 0.9967 -0.0809
vn -0.0062 0.9960 -0.0896
vn -0.0027 0.9894 -0.1449
vn -0.0187 0.1807 -0.9834
vn 0.0375 0.9988 0.0308
vn 0.0178 0.9992 0.0370
vn -0.9098 0.1904 -0.3688
vn -0.5926 0.7677 -0.2439
vn 0.0699 0.9974 0.0192
vn -0.1161 0.9918 -0.0540
vn 0.0072 0.9995 0.0315
vn 0.0024 0.9997 0.0240
vn -0.6941 0.1905 -0.6942
vn 0.0442 0.6258 0.7787
vn 0.0441 0.6258 0.7787
vn -0.2329 0.7509 -0.6180
vn -0.3667 0.1888 -0.9110
vn 0.2714 0.7049 0.6553
vn 0.4815 0.7324 0.4815
vn 0.6553 0.7049 0.2714
vn -0.0000 -1.0000 0.0007
vn -0.0000 -1.0000 0.0002
vn -0.0015 -0.9973 -0.0731
vn -0.0082 -0.9964 -0.0847
vn -0.1526 -0.9883 -0.0018
vn -0.1526 -0.9883 0.0018
vn -0.6528 -0.7574 0.0089
vn -0.6528 -0.7574 -0.0089
vn 0.0014 -1.0000 -0.0000
vn 0.0021 -1.0000 0.0006
vn -0.1364 -0.9890 -0.0565
vn -0.2012 -0.9795 -0.0041
vn 0.0013 -1.0000 0.0011
vn -0.0812 -0.9934 -0.0815
vn 0.0005 -1.0000 0.0012
vn -0.0389 -0.9950 -0.0920
vn -0.0000 -1.0000 0.0001
vn -0.0000 -0.9977 -0.0675
vn -0.2012 -0.9795 0.0041
vn -0.0188 -0.1744 -0.9845
vn -0.0877 -0.1758 -0.9805
vn -0.0638 -0.7347 -0.6754
vn -0.0132 -0.7315 -0.6817
vn -0.3720 -0.1810 -0.9104
vn -0.2555 -0.7488 -0.6115
vn -0.6952 -0.1824 -0.6953
vn -0.4604 -0.7586 -0.4610
vn -0.9094 -0.1824 -0.3738
vn -0.5948 -0.7653 -0.2460
vn -0.0000 -0.1741 -0.9847
vn -0.0000 -0.7313 -0.6821
vn -0.0865 -0.1975 -0.9765
vn -0.0187 -0.1993 -0.9798
vn -0.3697 -0.1944 -0.9086
vn -0.6939 -0.1926 -0.6938
vn -0.9084 -0.1943 -0.3701
vn -0.9798 -0.1992 -0.0167
vn -0.0000 -0.1994 -0.9799
vn -0.9798 -0.1992 0.0167
vn -0.0125 -0.9872 -0.1588
vn -0.0538 -0.7513 -0.6578
vn -0.0124 -0.7576 -0.6527
vn -0.0029 -0.9888 -0.1492
vn -0.0820 -0.9725 -0.2181
vn -0.2476 -0.7323 -0.6343
vn -0.1109 -0.9876 -0.1109
vn -0.4902 -0.7206 -0.4903
vn -0.2176 -0.9725 -0.0828
vn -0.6356 -0.7305 -0.2497
vn -0.0000 -0.7589 -0.6512
vn -0.0000 -0.9892 -0.1469
vn 0.6573 -0.7535 0.0130
vn 0.6573 -0.7535 -0.0130
vn 0.2012 -0.9795 -0.0041
vn 0.2012 -0.9795 0.0041
vn 0.6939 -0.1926 -0.6939
vn 0.3697 -0.1944 -0.9086
vn 0.3720 -0.1810 -0.9104
vn 0.6952 -0.1824 -0.6953
vn -0.0013 -1.0000 -0.0000
vn -0.0014 -1.0000 -0.0000
vn 0.0132 -0.7315 -0.6817
vn 0.0015 -0.9973 -0.0731
vn 0.0071 -0.9964 -0.0849
vn 0.0638 -0.7347 -0.6754
vn 0.2555 -0.7488 -0.6115
vn 0.4604 -0.7586 -0.4610
vn 0.0812 -0.9934 -0.0815
vn 0.1364 -0.9890 -0.0565
vn 0.5948 -0.7653 -0.2460
vn 0.9094 -0.1824 -0.3738
vn 0.9842 -0.1760 -0.0172
vn 0.0865 -0.1975 -0.9765
vn 0.0877 -0.1758 -0.9805
vn 0.0188 -0.1744 -0.9845
vn 0.9842 -0.1760 0.0172
vn 0.0187 -0.1993 -0.9798
vn 0.9798 -0.1992 -0.0167
vn 0.9798 -0.1992 0.0167
vn 0.6528 -0.7574 0.0089
vn 0.6528 -0.7574 -0.0089
vn 0.0389 -0.9950 -0.0920
vn 0.9084 -0.1943 -0.3701
vn -0.0002 -1.0000 0.0001
vn -0.0001 -1.0000 -0.0000
vn -0.0029 -0.9888 0.1492
vn -0.0125 -0.9872 0.1588
vn -0.0021 -1.0000 -0.0006
vn 0.1364 -0.9890 0.0565
vn 0.0820 -0.9725 -0.2181
vn 0.0125 -0.9872 -0.1588
vn 0.0538 -0.7513 -0.6578
vn 0.2476 -0.7323 -0.6343
vn 0.2176 -0.9725 -0.0828
vn 0.1109 -0.9876 -0.1109
vn 0.4902 -0.7206 -0.4903
vn 0.6356 -0.7305 -0.2497
vn 0.1526 -0.9883 -0.0018
vn 0.1526 -0.9883 0.0018
vn 0.0002 -1.0000 0.0001
vn 0.0002 -1.0000 -0.0001
vn 0.9860 0.1667 -0.0100
vn 0.9860 0.1663 -0.0100
vn 0.9597 0.1687 -0.2249
vn 0.9597 0.1687 -0.2250
vn -0.0002 -1.0000 -0.0001
vn 0.0029 -0.9888 -0.1492
vn -0.9860 0.1663 -0.0100
vn -0.9860 0.1667 -0.0100
vn -0.9860 0.1663 0.0100
vn -0.9860 0.1667 0.0100
vn 0.0124 -0.7576 -0.6527
vn 0.4902 -0.7206 0.4903
vn 0.6939 -0.1926 0.6939
vn 0.3697 -0.1944 0.9086
vn 0.2476 -0.7323 0.6343
vn 0.6356 -0.7305 0.2497
vn 0.2176 -0.9725 0.0828
vn -0.6939 -0.1926 0.6939
vn -0.3697 -0.1944 0.9086
vn -0.3720 -0.1810 0.9104
vn -0.6952 -0.1824 0.6953
vn -0.0132 -0.7315 0.6817
vn -0.0015 -0.9973 0.0731
vn -0.0071 -0.9964 0.0849
vn -0.0638 -0.7347 0.6754
vn -0.2555 -0.7488 0.6115
vn -0.4604 -0.7586 0.4610
vn -0.0812 -0.9934 0.0815
vn -0.1364 -0.9890 0.0565
vn -0.5948 -0.7653 0.2460
vn -0.9094 -0.1824 0.3738
vn -0.0865 -0.1975 0.9765
vn -0.0877 -0.1758 0.9805
vn -0.0188 -0.1744 0.9845
vn -0.0187 -0.1993 0.9798
vn -0.0000 -0.1994 0.9799
vn -0.0000 -0.1741 0.9847
vn -0.0000 -0.7313 0.6821
vn -0.0000 -0.9977 0.0675
vn -0.0389 -0.9950 0.0920
vn -0.9084 -0.1943 0.3701
vn 0.2874 0.1675 0.9431
vn 0.1645 0.1673 0.9721
vn 0.0132 -0.7315 0.6817
vn 0.0638 -0.7347 0.6754
vn 0.0082 -0.9964 0.0847
vn 0.0015 -0.9973 0.0731
vn -0.0820 -0.9725 0.2181
vn -0.0538 -0.7513 0.6578
vn -0.2476 -0.7323 0.6343
vn -0.4902 -0.7206 0.4903
vn -0.6356 -0.7305 0.2497
vn -0.2176 -0.9725 0.0828
vn -0.0000 0.1677 0.9858
vn 0.1645 0.1673 -0.9721
vn -0.0000 0.1677 -0.9858
vn 0.9860 0.1663 0.0100
vn 0.9860 0.1667 0.0100
vn 0.0188 -0.1744 0.9845
vn -0.0124 -0.7576 0.6527
vn 0.9101 -0.1825 0.3721
vn 0.5948 -0.7653 0.2460
vn 0.4604 -0.7586 0.4610
vn 0.0812 -0.9934 0.0815
vn -0.1109 -0.9876 0.1109
vn -0.0000 -0.7589 0.6512
vn 0.6952 -0.1824 0.6953
vn 0.3720 -0.1810 0.9104
vn -0.0000 -0.9892 0.1469
vn 0.0877 -0.1758 0.9805
vn 0.0865 -0.1975 0.9765
vn 0.2555 -0.7488 0.6115
vn 0.0538 -0.7513 0.6578
vn 0.0187 -0.1993 0.9798
vn 0.0124 -0.7576 0.6527
vn 0.1109 -0.9876 0.1109
vn 0.0820 -0.9725 0.2181
vn -0.9597 0.1687 0.2249
vn -0.9597 0.1687 0.2250
vn -0.7648 0.1761 0.6198
vn 0.0125 -0.9872 0.1588
vn 0.0029 -0.9888 0.1492
vn -0.0000 -1.0000 -0.0007
vn -0.0000 -1.0000 -0.0002
vn 0.7648 0.1761 0.6198
vn 0.4762 0.1684 0.8631
vn 0.4762 0.1683 0.8631
vn 0.9597 0.1687 0.2250
vn 0.9597 0.1687 0.2249
vn -0.4762 0.1683 0.8631
vn -0.4762 0.1684 0.8631
vn 0.0389 -0.9950 0.0920
vn -0.0013 -1.0000 -0.0011
vn -0.0005 -1.0000 -0.0012
vn 0.2874 0.1675 -0.9431
vn 0.9084 -0.1943 0.3701
vn -0.2874 0.1675 0.9431
vn 0.7648 0.1761 -0.6198
vn 0.4762 0.1683 -0.8631
vn 0.4762 0.1684 -0.8631
vn -0.4762 0.1684 -0.8631
vn -0.2874 0.1675 -0.9431
vn -0.4762 0.1683 -0.8631
vn -0.7648 0.1761 -0.6198
vn -0.9597 0.1687 -0.2250
vn -0.9597 0.1687 -0.2249
vn -0.1645 0.1673 -0.9721
vn 0.0001 -1.0000 0.0002
vn -0.0013 -1.0000 0.0011
vn -0.0005 -1.0000 0.0012
vn -0.0021 -1.0000 0.0006
vn 0.0013 -1.0000 -0.0011
vn 0.0005 -1.0000 -0.0012
vn 0.0021 -1.0000 -0.0006
vn -0.0000 -1.0000 -0.0001
vn -0.0001 -1.0000 -0.0002
vn -0.1645 0.1673 0.9721
vt 0.115920 0.574029
vt 0.114676 0.564224
vt 0.513409 0.564202
vt 0.512132 0.573974
vt 0.602620 0.802410
vt 0.582330 0.799290
vt 0.584521 0.755191
vt 0.614010 0.756262
vt 0.534800 0.792599
vt 0.532749 0.804837
vt 0.511513 0.783640
vt 0.513321 0.776101
vt 0.137473 0.713649
vt 0.489038 0.712347
vt 0.489147 0.755630
vt 0.137695 0.756927
vt 0.515496 0.872797
vt 0.514809 0.866836
vt 0.539588 0.861584
vt 0.542828 0.869986
vt 0.561146 0.847090
vt 0.570755 0.859305
vt 0.576791 0.824254
vt 0.590885 0.830988
vt 0.584678 0.710528
vt 0.618308 0.710529
vt 0.114975 0.856952
vt 0.513626 0.856578
vt 0.113783 0.867184
vt 0.113090 0.873134
vt 0.565072 0.754314
vt 0.574845 0.754731
vt 0.572702 0.797637
vt 0.563103 0.796086
vt 0.567617 0.819814
vt 0.558812 0.815765
vt 0.554574 0.838912
vt 0.547986 0.831740
vt 0.535769 0.851593
vt 0.531979 0.842543
vt 0.512397 0.846776
vt 0.565210 0.710529
vt 0.575000 0.710528
vt 0.508004 0.772316
vt 0.508226 0.755727
vt 0.513789 0.755814
vt 0.536871 0.756129
vt 0.508269 0.712272
vt 0.093396 0.394500
vt 0.051217 0.394500
vt 0.051217 0.286730
vt 0.093396 0.286730
vt 0.110672 0.394500
vt 0.110672 0.286730
vt 0.125743 0.394500
vt 0.125743 0.286730
vt 0.140813 0.394500
vt 0.140813 0.286730
vt 0.157834 0.394500
vt 0.157834 0.286730
vt 0.006830 0.394500
vt 0.006830 0.286730
vt 0.489185 0.772199
vt 0.506474 0.779462
vt 0.502478 0.785488
vt 0.513897 0.712250
vt 0.489357 0.791085
vt 0.496462 0.789519
vt 0.528610 0.812707
vt 0.520661 0.816708
vt 0.500629 0.794534
vt 0.507084 0.790109
vt 0.493148 0.796362
vt 0.137751 0.792373
vt 0.137783 0.773491
vt 0.514500 0.831349
vt 0.112910 0.832808
vt 0.117924 0.819706
vt 0.509391 0.818280
vt 0.134002 0.797676
vt 0.536963 0.712157
vt 0.563792 0.394500
vt 0.563792 0.407626
vt 0.157834 0.407626
vt 0.563792 0.286730
vt 0.550082 0.756503
vt 0.547741 0.798496
vt 0.093396 0.407626
vt 0.051217 0.407626
vt 0.544524 0.812940
vt 0.110672 0.407626
vt 0.538026 0.822329
vt 0.125743 0.407626
vt 0.528497 0.828567
vt 0.140813 0.407626
vt 0.550132 0.712102
vt 0.006830 0.407626
vt 0.629244 0.536686
vt 0.629244 0.523560
vt 0.671422 0.523560
vt 0.671422 0.536686
vt 0.567491 0.601233
vt 0.554388 0.582124
vt 0.560988 0.573924
vt 0.576681 0.596774
vt 0.527838 0.611723
vt 0.506487 0.634467
vt 0.500003 0.630092
vt 0.519865 0.607780
vt 0.488729 0.652504
vt 0.137327 0.653797
vt 0.137154 0.634911
vt 0.488760 0.633623
vt 0.137365 0.670365
vt 0.488817 0.669068
vt 0.570615 0.561699
vt 0.590786 0.590015
vt 0.113484 0.553958
vt 0.514627 0.553952
vt 0.133364 0.629634
vt 0.492510 0.628320
vt 0.558658 0.605303
vt 0.547759 0.589330
vt 0.534169 0.631776
vt 0.512825 0.648423
vt 0.510962 0.640901
vt 0.532031 0.619559
vt 0.602600 0.618605
vt 0.614021 0.664783
vt 0.584523 0.665863
vt 0.582302 0.621757
vt 0.531738 0.578479
vt 0.535572 0.569380
vt 0.539431 0.559369
vt 0.563120 0.625012
vt 0.572689 0.623430
vt 0.574850 0.666328
vt 0.565081 0.666749
vt 0.542703 0.550963
vt 0.515333 0.547990
vt 0.507540 0.652247
vt 0.513445 0.668698
vt 0.507887 0.668827
vt 0.527614 0.595871
vt 0.537181 0.602040
vt 0.596898 0.523560
vt 0.596898 0.415792
vt 0.611968 0.415792
vt 0.611968 0.523560
vt 0.508588 0.606290
vt 0.513602 0.593188
vt 0.495874 0.635135
vt 0.501918 0.639120
vt 0.182374 0.177334
vt 0.182374 0.170232
vt 0.574914 0.170232
vt 0.574914 0.177334
vt 0.564807 0.536686
vt 0.158855 0.536686
vt 0.158855 0.523560
vt 0.564807 0.523560
vt 0.581828 0.536686
vt 0.581828 0.523560
vt 0.596898 0.536686
vt 0.564807 0.415792
vt 0.581827 0.415792
vt 0.900503 0.334824
vt 0.903352 0.733478
vt 0.859742 0.734027
vt 0.856857 0.334988
vt 0.629244 0.415792
vt 0.671422 0.415792
vt 0.536510 0.668204
vt 0.505957 0.645115
vt 0.715809 0.415792
vt 0.715808 0.523560
vt 0.611968 0.536686
vt 0.543741 0.611378
vt 0.715808 0.536686
vt 0.549702 0.667728
vt 0.117121 0.607716
vt 0.112013 0.594647
vt 0.158855 0.415791
vt 0.547057 0.625788
vt 0.112793 0.547992
vt 0.130638 0.790860
vt 0.124594 0.786876
vt 0.061018 0.820149
vt 0.074132 0.839170
vt 0.067565 0.847366
vt 0.051855 0.824627
vt 0.126510 0.795904
vt 0.058000 0.859575
vt 0.037799 0.831426
vt 0.069827 0.816068
vt 0.080738 0.831958
vt 0.092344 0.794220
vt 0.113687 0.777573
vt 0.115550 0.785095
vt 0.094481 0.806437
vt 0.025866 0.802916
vt 0.014217 0.756700
vt 0.043770 0.755525
vt 0.046164 0.799688
vt 0.096687 0.842801
vt 0.116215 0.847196
vt 0.092888 0.851858
vt 0.089063 0.861835
vt 0.065376 0.796408
vt 0.055789 0.797995
vt 0.053448 0.755039
vt 0.063217 0.754598
vt 0.009797 0.710810
vt 0.043521 0.710750
vt 0.085821 0.870214
vt 0.118972 0.773749
vt 0.113067 0.757298
vt 0.118625 0.757169
vt 0.106647 0.818215
vt 0.098898 0.830125
vt 0.089331 0.823956
vt 0.098673 0.814273
vt 0.580813 0.394500
vt 0.580813 0.286730
vt 0.595883 0.286730
vt 0.595883 0.394500
vt 0.120025 0.791529
vt 0.089549 0.713839
vt 0.112615 0.713746
vt 0.090002 0.757792
vt 0.580813 0.407626
vt 0.595883 0.407626
vt 0.670409 0.286730
vt 0.714796 0.286730
vt 0.714796 0.394500
vt 0.670409 0.394500
vt 0.063021 0.710711
vt 0.053216 0.710731
vt 0.118243 0.713723
vt 0.079454 0.800207
vt 0.076810 0.758268
vt 0.628230 0.394500
vt 0.628230 0.286730
vt 0.610954 0.394500
vt 0.610954 0.286730
vt 0.120555 0.780881
vt 0.610954 0.407626
vt 0.670409 0.407626
vt 0.714796 0.407626
vt 0.076380 0.713894
vt 0.628230 0.407626
vt 0.082771 0.814618
vt 0.141834 0.536686
vt 0.126764 0.536686
vt 0.126764 0.523560
vt 0.141834 0.523560
vt 0.065123 0.624961
vt 0.055493 0.623404
vt 0.060594 0.601157
vt 0.069432 0.605217
vt 0.105851 0.609288
vt 0.097901 0.613289
vt 0.088486 0.603667
vt 0.098015 0.597429
vt 0.118287 0.670269
vt 0.112723 0.670182
vt 0.094418 0.536686
vt 0.052239 0.536686
vt 0.052239 0.523560
vt 0.094418 0.523560
vt 0.091712 0.633397
vt 0.093763 0.621159
vt 0.114999 0.642356
vt 0.113191 0.649894
vt 0.125883 0.631462
vt 0.119428 0.635886
vt 0.051390 0.596707
vt 0.067065 0.573798
vt 0.073663 0.581995
vt 0.053344 0.666419
vt 0.043641 0.665966
vt 0.045834 0.621746
vt 0.089641 0.669866
vt 0.063142 0.666828
vt 0.057424 0.561557
vt 0.037252 0.589957
vt 0.096308 0.578321
vt 0.092498 0.569256
vt 0.085407 0.550829
vt 0.088660 0.559247
vt 0.025481 0.618618
vt 0.014061 0.664912
vt 0.080280 0.589183
vt 0.118508 0.653680
vt 0.076430 0.669493
vt 0.111693 0.536686
vt 0.111693 0.523560
vt 0.120038 0.646534
vt 0.111694 0.415791
vt 0.126764 0.415791
vt 0.052239 0.415791
vt 0.094418 0.415791
vt 0.124034 0.640507
vt 0.141834 0.415791
vt 0.078771 0.627499
vt 0.081988 0.613056
vt 0.130050 0.636476
vt 0.007853 0.523560
vt 0.007853 0.415791
vt 0.007853 0.536686
vt 0.665464 0.146689
vt 0.708045 0.146689
vt 0.708045 0.163285
vt 0.665464 0.163285
vt 0.751866 0.336361
vt 0.754614 0.734262
vt 0.739409 0.736292
vt 0.736656 0.334540
vt 0.574914 0.146689
vt 0.596871 0.146689
vt 0.596871 0.163285
vt 0.574914 0.163285
vt 0.619075 0.146689
vt 0.619075 0.163285
vt 0.642618 0.146689
vt 0.642618 0.163285
vt 0.751432 0.146689
vt 0.751432 0.163285
vt 0.182374 0.163285
vt 0.182374 0.146689
vt 0.708045 0.177334
vt 0.665464 0.177334
vt 0.665464 0.170232
vt 0.708045 0.170232
vt 0.642618 0.177334
vt 0.642618 0.170232
vt 0.619075 0.177334
vt 0.619075 0.170232
vt 0.596871 0.177334
vt 0.596871 0.170232
vt 0.751432 0.177334
vt 0.751432 0.170232
vt 0.665464 0.280618
vt 0.708045 0.280618
vt 0.642618 0.280618
vt 0.619075 0.280618
vt 0.596871 0.280618
vt 0.574914 0.280618
vt 0.751432 0.280618
vt 0.723833 0.738511
vt 0.721070 0.332530
vt 0.182374 0.280618
vt 0.773057 0.315025
vt 0.770195 0.299919
vt 0.811809 0.296264
vt 0.812649 0.312110
vt 0.767058 0.284277
vt 0.810842 0.280226
vt 0.762449 0.317591
vt 0.755938 0.304011
vt 0.748874 0.289808
vt 0.757297 0.321146
vt 0.746535 0.310925
vt 0.735129 0.299952
vt 0.753889 0.326437
vt 0.740102 0.320615
vt 0.725668 0.314210
vt 0.856498 0.295336
vt 0.856650 0.311342
vt 0.856331 0.279196
vt 0.573724 0.030177
vt 0.181175 0.030177
vt 0.181175 0.023230
vt 0.573724 0.023230
vt 0.137013 0.140567
vt 0.113469 0.140567
vt 0.113469 0.037280
vt 0.137013 0.037280
vt 0.181175 0.006634
vt 0.573724 0.006634
vt 0.048041 0.030177
vt 0.048041 0.023230
vt 0.090623 0.023230
vt 0.090623 0.030177
vt 0.113469 0.030177
vt 0.137013 0.030177
vt 0.137013 0.023230
vt 0.159218 0.023230
vt 0.159218 0.030177
vt 0.159218 0.037280
vt 0.181175 0.037280
vt 0.090623 0.140567
vt 0.090623 0.037280
vt 0.048041 0.037280
vt 0.573724 0.037280
vt 0.048041 0.140567
vt 0.004653 0.140567
vt 0.004653 0.037280
vt 0.992765 0.330504
vt 0.995528 0.736486
vt 0.979942 0.734475
vt 0.977189 0.332723
vt 0.004653 0.030177
vt 0.004653 0.023230
vt 0.113469 0.023230
vt 0.159218 0.140567
vt 0.181175 0.140567
vt 0.776465 0.734097
vt 0.816095 0.734191
vt 0.815872 0.757695
vt 0.776138 0.755354
vt 0.595681 0.006634
vt 0.595681 0.023230
vt 0.573724 0.140567
vt 0.951129 0.316087
vt 0.940460 0.313661
vt 0.943126 0.298463
vt 0.957478 0.302382
vt 0.959823 0.324836
vt 0.956339 0.319581
vt 0.966990 0.309193
vt 0.973559 0.318821
vt 0.964384 0.288046
vt 0.978286 0.298054
vt 0.961983 0.334753
vt 0.964732 0.732654
vt 0.942918 0.732795
vt 0.940133 0.334918
vt 0.515577 0.543661
vt 0.543780 0.546595
vt 0.773680 0.336220
vt 0.813246 0.335537
vt 0.900726 0.311320
vt 0.515726 0.877123
vt 0.112854 0.877454
vt 0.901309 0.295382
vt 0.902010 0.279217
vt 0.946069 0.282715
vt 0.987935 0.312223
vt 0.970063 0.758090
vt 0.981469 0.769063
vt 0.967724 0.779207
vt 0.960660 0.765004
vt 0.976496 0.748400
vt 0.962709 0.742578
vt 0.138213 0.280618
vt 0.114670 0.280618
vt 0.114670 0.177334
vt 0.138213 0.177334
vt 0.049244 0.170232
vt 0.049244 0.163285
vt 0.091824 0.163285
vt 0.091824 0.170232
vt 0.114670 0.170232
vt 0.138213 0.170232
vt 0.138213 0.163285
vt 0.160418 0.163285
vt 0.160418 0.170232
vt 0.160418 0.177334
vt 0.091824 0.280618
vt 0.091824 0.177334
vt 0.049244 0.177334
vt 0.049244 0.280618
vt 0.005856 0.280618
vt 0.005856 0.177334
vt 0.005856 0.170232
vt 0.005856 0.163285
vt 0.114670 0.163285
vt 0.160418 0.280618
vt 0.009838 0.664200
vt 0.021334 0.617261
vt 0.706857 0.030177
vt 0.664276 0.030177
vt 0.664276 0.023230
vt 0.706857 0.023230
vt 0.765469 0.752928
vt 0.773472 0.770552
vt 0.759120 0.766633
vt 0.749608 0.759822
vt 0.752214 0.780968
vt 0.738312 0.770961
vt 0.743039 0.750194
vt 0.728663 0.756792
vt 0.756775 0.744179
vt 0.005496 0.710817
vt 0.618231 0.664069
vt 0.622594 0.710529
vt 0.112560 0.543661
vt 0.750246 0.037280
vt 0.706857 0.037280
vt 0.750246 0.030177
vt 0.815289 0.773633
vt 0.814588 0.789797
vt 0.770529 0.786300
vt 0.595681 0.037280
vt 0.595681 0.030177
vt 0.617886 0.030177
vt 0.617886 0.023230
vt 0.760259 0.749434
vt 0.860100 0.773679
vt 0.860267 0.789819
vt 0.617886 0.140567
vt 0.617886 0.037280
vt 0.641429 0.037280
vt 0.641429 0.140567
vt 0.859948 0.757673
vt 0.664276 0.037280
vt 0.664276 0.140567
vt 0.641429 0.030177
vt 0.946403 0.769096
vt 0.949540 0.784738
vt 0.905756 0.788789
vt 0.904789 0.772751
vt 0.959301 0.747869
vt 0.954149 0.751424
vt 0.084755 0.874566
vt 0.055328 0.863046
vt 0.943540 0.753990
vt 0.903949 0.756905
vt 0.664276 0.006634
vt 0.706857 0.006634
vt 0.033347 0.587780
vt 0.054729 0.558075
vt 0.084341 0.546455
vt 0.033921 0.833615
vt 0.641429 0.023230
vt 0.617886 0.006634
vt 0.641429 0.006634
vt 0.606736 0.617245
vt 0.595681 0.140567
vt 0.021734 0.804296
vt 0.573306 0.558223
vt 0.594681 0.587837
vt 0.606754 0.803763
vt 0.594780 0.833158
vt 0.573441 0.862781
vt 0.543889 0.874352
vt 0.618218 0.756975
vt 0.090623 0.006634
vt 0.048041 0.006634
vt 0.137013 0.006634
vt 0.113469 0.006634
vt 0.159218 0.006634
vt 0.004653 0.006634
vt 0.138213 0.146689
vt 0.114670 0.146689
vt 0.160418 0.146689
vt 0.049244 0.146689
vt 0.005856 0.146689
vt 0.091824 0.146689
vt 0.990930 0.754805
vt 0.750246 0.023230
vt 0.706857 0.140567
vt 0.750246 0.006634
vt 0.009998 0.757430
vt 0.750246 0.140567
s 1
f 196/1/1 197/2/2 75/3/3 74/4/4
f 3/5/5 15/6/6 27/7/7 7/8/8
f 50/9/9 53/10/10 42/11/11 39/12/11
f 160/13/11 43/14/11 44/15/11 161/16/11
f 2/17/12 11/18/13 18/19/14 4/20/15
f 4/20/15 18/19/14 21/21/16 5/22/17
f 5/22/17 21/21/16 24/23/18 6/24/19
f 6/24/19 24/23/18 15/6/6 3/5/5
f 7/8/8 27/7/7 8/25/20 1/26/21
f 130/27/22 13/28/23 11/18/13 128/29/24
f 2/17/12 119/30/25 128/29/24 11/18/13
f 26/31/26 28/32/27 16/33/28 14/34/29
f 28/32/27 27/7/7 15/6/6 16/33/28
f 14/34/29 16/33/28 25/35/30 23/36/31
f 16/33/28 15/6/6 24/23/18 25/35/30
f 23/36/31 25/35/30 22/37/32 20/38/33
f 25/35/30 24/23/18 21/21/16 22/37/32
f 20/38/33 22/37/32 19/39/34 17/40/35
f 22/37/32 21/21/16 18/19/14 19/39/34
f 17/40/35 19/39/34 13/28/23 12/41/36
f 19/39/34 18/19/14 11/18/13 13/28/23
f 9/42/37 10/43/38 28/32/27 26/31/26
f 10/43/38 8/25/20 27/7/7 28/32/27
f 33/44/39 29/45/40 31/46/40 39/12/41
f 64/47/42 50/9/9 39/12/11 31/46/11
f 30/48/11 29/45/11 44/15/11 43/14/11
f 49/49/43 65/50/44 26/51/26 14/52/29
f 52/53/45 49/49/43 14/52/29 23/54/31
f 55/55/46 52/53/45 23/54/31 20/56/33
f 58/57/47 55/55/46 20/56/33 17/58/35
f 47/59/48 58/57/47 17/58/35 12/60/36
f 26/51/26 65/50/44 61/61/49 9/62/37
f 45/63/11 33/44/11 35/64/11 36/65/11
f 33/44/11 45/63/11 44/15/11 29/45/11
f 29/45/40 30/48/40 32/66/40 31/46/40
f 34/67/11 45/63/11 36/65/11 37/68/11
f 56/69/50 59/70/51 40/71/11 41/72/11
f 33/44/39 39/12/41 42/11/52 35/64/52
f 35/64/52 42/11/52 41/72/53 36/65/53
f 36/65/53 41/72/53 40/71/54 37/68/54
f 37/68/54 40/71/54 38/73/55 34/67/56
f 34/67/11 151/74/11 162/75/11 45/63/11
f 53/10/10 56/69/50 41/72/11 42/11/11
f 48/76/57 165/77/58 163/78/59 46/79/60
f 38/73/55 155/80/61 151/74/62 34/67/56
f 59/70/51 46/79/60 38/73/11 40/71/11
f 161/16/11 44/15/11 45/63/11 162/75/11
f 62/81/63 64/47/42 31/46/11 32/66/11
f 47/59/48 164/82/64 165/83/58 48/84/57
f 12/60/36 129/85/65 164/82/64 47/59/48
f 50/9/9 64/47/42 66/86/66 51/87/67
f 51/88/67 66/89/66 65/50/44 49/49/43
f 53/10/10 50/9/9 51/87/67 54/90/68
f 54/91/68 51/88/67 49/49/43 52/53/45
f 56/69/50 53/10/10 54/90/68 57/92/69
f 57/93/69 54/91/68 52/53/45 55/55/46
f 59/70/51 56/69/50 57/92/69 60/94/70
f 60/95/70 57/93/69 55/55/46 58/57/47
f 46/79/60 59/70/51 60/94/70 48/76/57
f 48/84/57 60/95/70 58/57/47 47/59/48
f 64/47/42 62/81/63 63/96/71 66/86/66
f 66/89/66 63/97/71 61/61/49 65/50/44
f 163/78/59 155/80/11 38/73/11 46/79/60
f 110/98/72 108/99/73 178/100/74 179/101/75
f 87/102/76 84/103/77 83/104/78 86/105/79
f 115/106/80 101/107/11 100/108/11 175/109/81
f 104/110/11 295/111/11 265/112/11 94/113/11
f 294/114/11 295/111/11 104/110/11 103/115/11
f 70/116/82 71/117/83 86/105/79 83/104/78
f 197/2/2 195/118/84 73/119/85 75/3/3
f 94/113/86 265/112/87 269/120/88 98/121/89
f 85/122/90 82/123/91 84/103/77 87/102/76
f 109/124/92 99/125/11 102/126/11 112/127/93
f 68/128/94 72/129/95 89/130/96 77/131/97
f 79/132/98 74/4/4 75/3/3 81/133/99
f 81/133/99 75/3/3 73/119/85 80/134/100
f 76/135/101 85/122/90 87/102/76 78/136/102
f 90/137/103 78/136/102 77/131/97 89/130/96
f 78/136/102 87/102/76 86/105/79 77/131/97
f 88/138/104 76/135/101 78/136/102 90/137/103
f 72/129/95 1/26/21 8/25/20 89/130/96
f 71/117/83 68/128/94 77/131/97 86/105/79
f 69/139/105 70/116/82 83/104/78 80/134/100
f 67/140/106 69/139/105 80/134/100 73/119/85
f 82/123/91 79/132/98 81/133/99 84/103/77
f 84/103/77 81/133/99 80/134/100 83/104/78
f 93/141/107 99/125/108 92/142/40 91/143/40
f 175/109/81 176/144/109 116/145/110 115/106/80
f 114/146/111 82/147/91 85/148/90 111/149/112
f 105/150/113 107/151/114 176/144/109 175/109/81
f 94/113/11 97/152/11 96/153/11 104/110/11
f 96/153/115 97/152/116 100/108/116 101/107/115
f 328/154/117 329/155/118 223/156/119 222/157/120
f 107/158/114 298/159/121 297/160/122 106/161/123
f 176/162/109 117/163/124 114/146/111 116/164/110
f 93/141/11 91/143/11 103/115/11 104/110/11
f 106/161/123 74/165/4 79/166/98 117/163/124
f 9/42/37 88/138/104 90/137/103 10/43/38
f 91/143/40 92/142/40 32/66/40 30/48/40
f 385/167/125 435/168/125 434/169/126 363/170/126
f 108/99/73 76/171/101 88/172/104 178/100/74
f 111/149/112 85/148/90 76/171/101 108/99/73
f 30/48/11 43/14/11 103/115/11 91/143/11
f 177/173/127 92/142/11 99/125/11 109/124/92
f 10/43/38 90/137/103 89/130/96 8/25/20
f 97/152/116 94/113/86 98/121/89 100/108/116
f 104/110/11 96/153/11 95/174/11 93/141/11
f 88/172/104 9/175/37 61/176/49 178/100/74
f 175/109/81 100/108/11 98/121/11 105/150/113
f 117/163/124 79/166/98 82/147/91 114/146/111
f 116/164/110 114/146/111 111/149/112 113/177/128
f 115/106/80 116/145/110 113/178/128 112/127/93
f 113/177/128 111/149/112 108/99/73 110/98/72
f 179/101/75 178/100/74 61/176/49 63/179/71
f 177/173/127 179/180/75 63/96/71 62/81/63
f 95/174/129 96/153/115 101/107/115 102/126/129
f 93/141/107 95/174/129 102/126/129 99/125/108
f 112/127/93 102/126/11 101/107/11 115/106/80
f 105/150/113 296/181/130 298/182/121 107/151/114
f 106/161/123 297/160/122 196/183/1 74/165/4
f 296/181/130 105/150/113 98/121/11 269/120/11
f 109/124/92 110/184/72 179/180/75 177/173/127
f 62/81/63 32/66/11 92/142/11 177/173/127
f 73/119/85 195/118/84 189/185/131 67/140/106
f 107/158/114 106/161/123 117/163/124 176/162/109
f 112/127/93 113/178/128 110/184/72 109/124/92
f 151/74/11 154/186/11 153/187/11 162/75/11
f 142/188/132 139/189/133 138/190/134 141/191/135
f 154/186/136 151/74/62 155/80/61 157/192/136
f 122/193/137 123/194/138 141/191/135 138/190/134
f 140/195/139 137/196/140 139/189/133 142/188/132
f 167/197/141 156/198/11 159/199/11 170/200/142
f 120/201/143 124/202/144 144/203/145 132/204/146
f 134/205/147 129/206/65 130/27/22 136/207/148
f 136/207/148 130/27/22 128/29/24 135/208/149
f 131/209/150 140/195/139 142/188/132 133/210/151
f 145/211/152 133/210/151 132/204/146 144/203/145
f 133/210/151 142/188/132 141/191/135 132/204/146
f 143/212/153 131/209/150 133/210/151 145/211/152
f 124/202/144 118/213/154 125/214/155 144/203/145
f 123/194/138 120/201/143 132/204/146 141/191/135
f 121/215/156 122/193/137 138/190/134 135/208/149
f 119/30/25 121/215/156 135/208/149 128/29/24
f 137/196/140 134/205/147 136/207/148 139/189/133
f 139/189/133 136/207/148 135/208/149 138/190/134
f 150/216/157 156/198/158 148/217/159 146/218/159
f 181/219/160 182/220/161 174/221/162 173/222/163
f 180/223/164 134/224/147 137/225/140 172/226/165
f 163/78/59 165/77/58 182/220/161 181/219/160
f 153/187/166 154/186/136 157/192/136 158/227/166
f 184/228/167 149/229/11 148/217/11 186/230/168
f 182/231/161 180/223/164 172/226/165 174/232/162
f 150/216/11 146/218/11 161/16/11 162/75/11
f 143/233/153 126/234/169 183/235/170 187/236/171
f 126/237/169 143/212/153 145/211/152 127/238/172
f 146/218/159 148/217/159 149/229/159 147/239/159
f 167/197/141 168/240/173 188/241/174 186/230/168
f 166/242/175 131/243/150 143/233/153 187/236/171
f 169/244/176 140/245/139 131/243/150 166/242/175
f 147/239/11 160/13/11 161/16/11 146/218/11
f 186/230/168 148/217/11 156/198/11 167/197/141
f 127/238/172 145/211/152 144/203/145 125/214/155
f 162/75/11 153/187/11 152/246/11 150/216/11
f 164/82/64 129/85/65 134/224/147 180/223/164
f 172/226/165 137/225/140 140/245/139 169/244/176
f 174/232/162 172/226/165 169/244/176 171/247/177
f 152/246/178 153/187/166 158/227/166 159/199/178
f 150/216/157 152/246/178 159/199/178 156/198/158
f 188/248/174 187/236/171 183/235/170 185/249/179
f 186/230/168 188/241/174 185/250/179 184/228/167
f 170/200/142 159/199/11 158/227/11 173/222/163
f 181/219/160 157/192/11 155/80/11 163/78/59
f 171/247/177 169/244/176 166/242/175 168/251/173
f 170/200/142 171/252/177 168/240/173 167/197/141
f 173/222/163 174/221/162 171/252/177 170/200/142
f 168/251/173 166/242/175 187/236/171 188/248/174
f 165/83/58 164/82/64 180/223/164 182/231/161
f 173/222/163 158/227/11 157/192/11 181/219/160
f 310/253/180 307/254/181 305/255/182 308/256/183
f 198/257/184 200/258/185 209/259/186 207/260/187
f 309/261/188 306/262/189 307/263/181 310/264/180
f 262/265/159 147/239/159 149/229/159 263/266/159
f 301/267/190 313/268/191 312/269/192 299/270/193
f 300/271/194 303/272/195 273/273/11 270/274/11
f 306/262/189 309/261/188 271/275/11 272/276/11
f 209/259/186 208/277/196 205/278/197 206/279/198
f 261/280/199 260/281/200 199/282/201 200/258/185
f 311/283/202 300/271/194 270/274/11 263/266/11
f 210/284/203 261/280/199 200/258/185 198/257/184
f 192/285/204 205/278/197 208/277/196 193/286/205
f 201/287/206 203/288/207 197/2/2 196/1/1
f 191/289/208 202/290/209 205/278/197 192/285/204
f 203/288/207 202/290/209 195/118/84 197/2/2
f 193/286/205 208/277/196 199/282/201 190/291/210
f 200/258/185 199/282/201 208/277/196 209/259/186
f 190/291/210 199/282/201 260/281/200 194/292/211
f 207/260/187 209/259/186 206/279/198 204/293/212
f 264/294/213 262/265/159 263/266/159 270/274/214
f 311/283/202 184/228/167 185/250/179 313/295/191
f 307/254/181 304/296/215 302/297/216 305/255/182
f 264/294/213 270/274/214 273/273/217 266/298/217
f 305/255/182 302/297/216 207/299/187 204/300/212
f 299/270/193 312/269/192 210/301/203 198/302/184
f 266/298/217 273/273/217 272/276/218 267/303/218
f 297/160/122 308/256/183 201/304/206 196/183/1
f 194/292/211 260/281/200 125/214/155 118/213/154
f 204/293/212 206/279/198 203/288/207 201/287/206
f 300/271/194 311/283/202 313/295/191 301/305/190
f 147/239/11 262/265/11 294/114/11 160/13/11
f 189/185/131 195/118/84 202/290/209 191/289/208
f 126/237/169 127/238/172 261/280/199 210/284/203
f 264/294/11 295/111/11 294/114/11 262/265/11
f 306/262/189 303/272/195 304/306/215 307/263/181
f 302/297/216 299/270/193 198/302/184 207/299/187
f 295/111/11 264/294/11 266/298/11 267/303/11
f 308/256/183 305/255/182 204/300/212 201/304/206
f 265/112/11 295/111/11 267/303/11 268/307/11
f 296/181/130 309/261/188 310/264/180 298/182/121
f 298/159/121 310/253/180 308/256/183 297/160/122
f 184/228/167 311/283/202 263/266/11 149/229/11
f 210/301/203 312/269/192 183/308/170 126/309/169
f 206/279/198 205/278/197 202/290/209 203/288/207
f 267/303/218 272/276/218 271/275/219 268/307/219
f 304/296/215 301/267/190 299/270/193 302/297/216
f 127/238/172 125/214/155 260/281/200 261/280/199
f 268/307/219 271/275/219 269/120/88 265/112/87
f 309/261/188 296/181/130 269/120/11 271/275/11
f 303/272/195 300/271/194 301/305/190 304/306/215
f 303/272/195 306/262/189 272/276/11 273/273/11
f 313/268/191 185/310/179 183/308/170 312/269/192
f 213/311/220 217/312/221 237/313/222 225/314/223
f 239/315/224 367/316/225 369/317/226 241/318/227
f 212/319/228 214/320/229 228/321/230 221/322/231
f 214/320/229 215/323/232 231/324/233 228/321/230
f 215/323/232 216/325/234 234/326/235 231/324/233
f 216/325/234 213/311/220 225/314/223 234/326/235
f 217/312/221 211/327/236 218/328/237 237/313/222
f 329/155/118 327/329/238 221/322/231 223/156/119
f 221/322/231 327/329/238 315/330/228 212/319/228
f 236/331/239 224/332/240 226/333/241 238/334/242
f 238/334/242 226/333/241 225/314/223 237/313/222
f 224/332/240 233/335/243 235/336/244 226/333/241
f 226/333/241 235/336/244 234/326/235 225/314/223
f 233/335/243 230/337/245 232/338/246 235/336/244
f 235/336/244 232/338/246 231/324/233 234/326/235
f 230/337/245 227/339/247 229/340/248 232/338/246
f 232/338/246 229/340/248 228/321/230 231/324/233
f 227/339/247 222/157/120 223/156/119 229/340/248
f 229/340/248 223/156/119 221/322/231 228/321/230
f 219/341/249 236/331/239 238/334/242 220/342/250
f 220/342/250 238/334/242 237/313/222 218/328/237
f 242/343/251 224/332/240 236/331/239 258/344/252
f 245/345/253 233/335/243 224/332/240 242/343/251
f 248/346/254 230/337/245 233/335/243 245/345/253
f 251/347/255 227/339/247 230/337/245 248/346/254
f 240/348/256 222/157/120 227/339/247 251/347/255
f 236/331/239 219/341/249 254/349/257 258/344/252
f 241/318/227 369/317/226 368/350/258 240/351/256
f 240/348/256 368/352/258 328/154/117 222/157/120
f 243/353/259 244/354/260 259/355/261 257/356/262
f 244/354/260 242/357/251 258/358/252 259/355/261
f 246/359/263 247/360/264 244/354/260 243/353/259
f 247/360/264 245/361/253 242/357/251 244/354/260
f 249/362/265 250/363/266 247/360/264 246/359/263
f 250/363/266 248/364/254 245/361/253 247/360/264
f 252/365/267 253/366/268 250/363/266 249/362/265
f 253/366/268 251/367/255 248/364/254 250/363/266
f 239/315/224 241/318/227 253/366/268 252/365/267
f 241/318/227 240/351/256 251/367/255 253/366/268
f 257/356/262 259/355/261 256/368/269 255/369/270
f 259/355/261 258/358/252 254/370/257 256/368/269
f 397/371/271 282/372/272 280/373/273 395/374/274
f 351/375/275 348/376/276 292/377/277 289/378/278
f 280/373/273 274/379/279 389/380/280 395/374/274
f 341/381/281 340/382/282 284/383/283 285/384/284
f 292/377/277 318/385/285 291/386/286 289/378/278
f 291/386/286 290/387/287 287/388/288 288/389/289
f 286/390/290 288/389/289 282/372/272 281/391/291
f 348/376/276 345/392/292 283/393/293 292/377/277
f 319/394/294 341/381/281 285/384/284 283/393/293
f 396/395/295 281/391/291 282/372/272 397/371/271
f 319/394/294 358/396/296 254/397/257 219/398/249
f 343/399/297 416/400/298 417/401/299 344/402/300
f 220/403/250 218/404/237 340/382/282 341/381/281
f 219/398/249 220/403/250 341/381/281 319/394/294
f 345/392/292 358/396/296 319/394/294 283/393/293
f 288/389/289 287/388/288 280/373/273 282/372/272
f 289/378/278 291/386/286 288/389/289 286/390/290
f 318/385/285 293/405/301 290/387/287 291/386/286
f 285/384/284 284/383/283 293/405/301 318/385/285
f 283/393/293 285/384/284 318/385/285 292/377/277
f 354/406/302 351/375/275 289/378/278 286/390/290
f 343/407/297 354/406/302 286/390/290 281/391/291
f 433/408/303 412/409/304 386/410/305 371/411/306
f 389/380/280 391/412/307 403/413/308 395/374/274
f 281/391/291 396/395/295 416/414/298 343/407/297
f 349/415/309 346/416/310 347/417/311 350/418/312
f 355/419/313 352/420/314 353/421/315 356/422/316
f 353/421/315 350/418/312 348/423/276 351/424/275
f 342/425/317 415/426/318 436/427/319 402/428/320
f 344/402/300 417/401/299 415/426/318 342/425/317
f 67/140/321 274/429/322 276/430/323 69/139/324
f 362/431/325 243/353/259 257/356/262 320/432/304
f 320/432/304 363/170/126 434/169/126 412/409/304
f 402/428/320 385/167/125 357/433/326 346/416/310
f 2/17/327 212/434/328 315/435/329 119/30/330
f 342/425/317 402/428/320 352/420/314 355/419/313
f 347/417/311 359/436/331 358/437/296 345/438/292
f 346/416/310 357/433/326 359/436/331 347/417/311
f 352/420/314 349/415/309 350/418/312 353/421/315
f 350/418/312 347/417/311 345/438/292 348/423/276
f 344/402/300 356/422/316 354/439/302 343/399/297
f 342/425/317 355/419/313 356/422/316 344/402/300
f 357/433/326 255/369/270 256/368/269 359/436/331
f 356/422/316 353/421/315 351/424/275 354/439/302
f 426/440/332 424/441/333 421/442/334 423/443/335
f 415/426/318 417/401/299 429/444/336 428/445/337
f 359/436/331 256/368/269 254/370/257 358/437/296
f 376/446/338 373/447/339 339/448/340 336/449/341
f 239/315/224 252/365/267 249/362/265 362/431/325
f 366/450/342 365/451/343 331/452/344 332/453/345
f 339/448/340 361/454/346 338/455/347 336/449/341
f 338/455/347 337/456/348 334/457/349 335/458/350
f 333/459/351 335/458/350 329/155/118 328/154/117
f 373/447/339 370/460/352 330/461/353 339/448/340
f 364/462/354 366/450/342 332/453/345 330/461/353
f 364/462/354 387/463/355 382/464/356 325/465/357
f 326/466/358 324/467/359 365/451/343 366/450/342
f 325/465/357 326/466/358 366/450/342 364/462/354
f 370/460/352 387/463/355 364/462/354 330/461/353
f 335/458/350 334/457/349 327/329/238 329/155/118
f 336/449/341 338/455/347 335/458/350 333/459/351
f 361/454/346 360/468/360 337/456/348 338/455/347
f 332/453/345 331/452/344 360/468/360 361/454/346
f 330/461/353 332/453/345 361/454/346 339/448/340
f 379/469/361 376/446/338 336/449/341 333/459/351
f 368/352/258 379/469/361 333/459/351 328/154/117
f 190/291/362 194/292/363 394/470/363 390/471/362
f 414/472/364 400/473/365 399/474/366 413/475/367
f 374/476/368 371/411/306 372/477/369 375/478/370
f 378/479/371 375/478/370 373/480/339 376/481/338
f 369/317/226 381/482/372 379/483/361 368/350/258
f 367/316/225 380/484/373 381/482/372 369/317/226
f 194/292/363 118/213/374 314/485/374 394/470/363
f 72/129/375 279/486/375 211/487/376 1/26/376
f 274/429/322 67/140/321 189/185/377 389/488/378
f 325/489/357 411/490/379 414/472/364 326/491/358
f 372/477/369 388/492/380 387/493/355 370/494/352
f 371/411/306 386/410/305 388/492/380 372/477/369
f 401/495/381 396/395/295 397/371/271 404/496/382
f 407/497/383 404/496/382 403/413/308 406/498/384
f 377/499/385 374/476/368 375/478/370 378/479/371
f 375/478/370 372/477/369 370/494/352 373/480/339
f 381/482/372 378/479/371 376/481/338 379/483/361
f 380/484/373 377/499/385 378/479/371 381/482/372
f 388/492/380 384/500/386 382/501/356 387/493/355
f 424/502/333 405/503/387 408/504/388 421/505/334
f 386/410/305 383/506/389 384/500/386 388/492/380
f 421/505/334 408/504/388 398/507/390 418/508/391
f 408/504/388 405/503/387 407/497/383 410/509/392
f 385/167/125 363/170/126 255/369/270 357/433/326
f 160/13/11 294/114/11 103/115/11 43/14/11
f 362/431/325 249/362/265 246/359/263 243/353/259
f 420/510/393 418/511/391 431/512/394 432/513/395
f 425/514/396 426/440/332 423/443/335 422/515/397
f 432/513/395 431/512/394 382/501/356 384/500/386
f 119/30/330 315/435/329 317/516/398 121/215/399
f 121/215/399 317/516/398 321/517/400 122/193/400
f 423/443/335 421/442/334 418/511/391 420/510/393
f 419/518/401 420/510/393 432/513/395 430/519/402
f 435/168/125 430/519/402 383/506/389 434/169/126
f 390/520/403 394/521/404 413/475/367 399/474/366
f 192/285/405 193/286/406 393/522/407 392/523/405
f 362/431/325 433/408/303 367/316/225 239/315/224
f 193/286/406 190/291/362 390/471/362 393/522/407
f 433/408/303 371/411/306 374/476/368 377/499/385
f 430/519/402 432/513/395 384/500/386 383/506/389
f 189/185/377 191/289/408 391/524/409 389/488/378
f 436/427/319 419/518/401 430/519/402 435/168/125
f 122/193/400 321/517/400 322/525/410 123/194/411
f 411/490/379 398/507/390 400/473/365 414/472/364
f 400/473/365 410/509/392 409/526/412 399/474/366
f 320/432/304 412/409/304 433/408/303 362/431/325
f 392/527/413 393/528/414 409/526/412 406/498/384
f 391/412/307 392/527/413 406/498/384 403/413/308
f 68/128/415 275/529/415 279/486/375 72/129/375
f 416/414/298 396/395/295 401/495/381 427/530/416
f 320/432/304 257/356/262 255/369/270 363/170/126
f 191/289/408 192/285/405 392/523/405 391/524/409
f 436/427/319 425/514/396 422/515/397 419/518/401
f 405/503/387 401/495/381 404/496/382 407/497/383
f 410/509/392 407/497/383 406/498/384 409/526/412
f 123/194/411 322/525/410 316/531/417 120/201/417
f 402/428/320 436/427/319 435/168/125 385/167/125
f 402/428/320 346/416/310 349/415/309 352/420/314
f 70/116/418 277/532/418 278/533/419 71/117/420
f 71/117/420 278/533/419 275/529/415 68/128/415
f 69/139/324 276/430/323 277/532/418 70/116/418
f 427/530/416 401/495/381 405/503/387 424/502/333
f 398/507/390 408/504/388 410/509/392 400/473/365
f 412/409/304 434/169/126 383/506/389 386/410/305
f 6/24/421 3/5/422 213/534/422 216/535/423
f 5/22/424 6/24/421 216/535/423 215/536/424
f 4/20/425 5/22/424 215/536/424 214/537/426
f 2/17/327 4/20/425 214/537/426 212/434/328
f 7/8/427 1/26/376 211/487/376 217/538/427
f 3/5/422 7/8/427 217/538/427 213/534/422
f 275/539/428 284/383/283 340/382/282 279/540/221
f 277/541/429 290/387/287 293/405/301 278/542/430
f 276/543/431 287/388/288 290/387/287 277/541/429
f 274/379/279 280/373/273 287/388/288 276/543/431
f 279/540/221 340/382/282 218/404/237 211/544/236
f 278/542/430 293/405/301 284/383/283 275/539/428
f 321/545/432 337/456/348 360/468/360 322/546/433
f 317/547/434 334/457/349 337/456/348 321/545/432
f 315/330/228 327/329/238 334/457/349 317/547/434
f 323/548/404 365/451/343 324/467/359 314/549/435
f 322/546/433 360/468/360 331/452/344 316/550/436
f 422/515/397 423/443/335 420/510/393 419/518/401
f 428/445/337 429/444/336 426/440/332 425/514/396
f 417/401/299 416/400/298 427/551/416 429/444/336
f 415/426/318 428/445/337 425/514/396 436/427/319
f 367/316/225 433/408/303 377/499/385 380/484/373
f 429/444/336 427/551/416 424/441/333 426/440/332
f 316/550/436 331/452/344 365/451/343 323/548/404
f 326/491/358 414/472/364 413/475/367 324/552/359
f 418/508/391 398/507/390 411/490/379 431/553/394
f 394/521/404 314/554/435 324/552/359 413/475/367
f 393/528/414 390/520/403 399/474/366 409/526/412
f 404/496/382 397/371/271 395/374/274 403/413/308
f 124/202/437 323/555/437 314/485/374 118/213/374
f 120/201/417 316/531/417 323/555/437 124/202/437
f 411/490/379 325/489/357 382/556/356 431/553/394
f 129/206/65 12/41/36 13/28/23 130/27/22
