# Blender 4.0.2
# www.blender.org
o smoke_detector
v 0.057534 0.000000 0.012229
v 0.053735 0.000000 0.023925
v 0.047585 0.000000 0.034572
v 0.039359 0.000000 0.043713
v 0.029411 0.000000 0.050942
v 0.018177 0.000000 0.055944
v 0.006148 0.000000 0.058498
v -0.006147 0.000000 0.058498
v -0.018178 0.000000 0.055944
v -0.029411 0.000000 0.050942
v -0.039358 0.000000 0.043713
v -0.047586 0.000000 0.034572
v -0.053736 0.000000 0.023925
v -0.057534 0.000000 0.012229
v -0.058822 0.000000 -0.000000
v -0.057534 0.000000 -0.012229
v -0.053736 0.000000 -0.023926
v -0.047586 0.000000 -0.034573
v -0.039358 0.000000 -0.043711
v -0.029411 0.000000 -0.050940
v -0.018178 0.000000 -0.055943
v -0.006147 0.000000 -0.058499
v 0.006148 0.000000 -0.058499
v 0.018177 0.000000 -0.055943
v 0.029411 0.000000 -0.050940
v 0.039358 0.000000 -0.043711
v 0.047585 0.000000 -0.034573
v 0.053735 0.000000 -0.023926
v 0.057534 0.000000 -0.012229
v 0.058822 0.000000 -0.000000
v 0.048665 0.022115 0.010344
v 0.045450 0.022115 0.020236
v 0.040251 0.022115 0.029243
v 0.033291 0.022115 0.036975
v 0.024875 0.022115 0.043085
v 0.015373 0.022115 0.047319
v 0.005203 0.022115 0.049482
v -0.005202 0.022115 0.049482
v -0.015373 0.022115 0.047319
v -0.024875 0.022115 0.043085
v -0.033291 0.022115 0.036975
v -0.040251 0.022115 0.029243
v -0.045450 0.022115 0.020236
v -0.048666 0.022115 0.010344
v -0.049753 0.022115 -0.000000
v -0.048666 0.022115 -0.010345
v -0.045450 0.022115 -0.020235
v -0.040251 0.022115 -0.029244
v -0.033291 0.022115 -0.036973
v -0.024875 0.022115 -0.043086
v -0.015373 0.022115 -0.047317
v -0.005202 0.022115 -0.049480
v 0.005203 0.022115 -0.049480
v 0.015373 0.022115 -0.047317
v 0.024875 0.022115 -0.043086
v 0.033291 0.022115 -0.036973
v 0.040251 0.022115 -0.029244
v 0.045450 0.022115 -0.020235
v 0.048665 0.022115 -0.010345
v 0.049754 0.022115 -0.000000
v 0.037444 0.025070 0.007958
v 0.034968 0.025070 0.015568
v 0.030969 0.025070 0.022502
v 0.025614 0.025070 0.028447
v 0.019139 0.025070 0.033149
v 0.011830 0.025070 0.036403
v 0.004001 0.025070 0.038068
v -0.004001 0.025070 0.038068
v -0.011829 0.025070 0.036403
v -0.019139 0.025070 0.033149
v -0.025614 0.025070 0.028447
v -0.030969 0.025070 0.022502
v -0.034969 0.025070 0.015568
v -0.037443 0.025070 0.007958
v -0.038279 0.025070 -0.000000
v -0.037443 0.025070 -0.007957
v -0.034969 0.025070 -0.015567
v -0.030969 0.025070 -0.022500
v -0.025614 0.025070 -0.028445
v -0.019139 0.025070 -0.033150
v -0.011829 0.025070 -0.036404
v -0.004001 0.025070 -0.038069
v 0.004001 0.025070 -0.038069
v 0.011830 0.025070 -0.036404
v 0.019139 0.025070 -0.033150
v 0.025614 0.025070 -0.028445
v 0.030969 0.025070 -0.022500
v 0.034968 0.025070 -0.015567
v 0.037444 0.025070 -0.007957
v 0.038278 0.025070 -0.000000
v 0.027714 0.045807 0.005891
v 0.025883 0.045807 0.011525
v 0.022920 0.045807 0.016655
v 0.018959 0.045807 0.021054
v 0.014166 0.045807 0.024536
v 0.008755 0.045807 0.026945
v 0.002961 0.045807 0.028178
v -0.002961 0.045807 0.028178
v -0.008755 0.045807 0.026945
v -0.014167 0.045807 0.024536
v -0.018959 0.045807 0.021054
v -0.022919 0.045807 0.016655
v -0.025883 0.045807 0.011525
v -0.027713 0.045807 0.005891
v -0.028333 0.045807 -0.000000
v -0.027713 0.045807 -0.005889
v -0.025883 0.045807 -0.011524
v -0.022919 0.045807 -0.016653
v -0.018959 0.045807 -0.021055
v -0.014167 0.045807 -0.024537
v -0.008755 0.045807 -0.026946
v -0.002961 0.045807 -0.028177
v 0.002961 0.045807 -0.028177
v 0.008755 0.045807 -0.026946
v 0.014166 0.045807 -0.024537
v 0.018959 0.045807 -0.021055
v 0.022920 0.045807 -0.016653
v 0.025883 0.045807 -0.011524
v 0.027714 0.045807 -0.005889
v 0.028334 0.045807 -0.000000
v 0.026978 0.047457 0.005734
v 0.025197 0.047457 0.011218
v 0.022313 0.047457 0.016213
v 0.018456 0.047457 0.020498
v 0.013791 0.047457 0.023886
v 0.008523 0.047457 0.026232
v 0.002883 0.047457 0.027431
v -0.002883 0.047457 0.027431
v -0.008524 0.047457 0.026232
v -0.013792 0.047457 0.023886
v -0.018457 0.047457 0.020498
v -0.022313 0.047457 0.016213
v -0.025198 0.047457 0.011218
v -0.026979 0.047457 0.005734
v -0.027581 0.047457 -0.000000
v -0.026979 0.047457 -0.005735
v -0.025198 0.047457 -0.011219
v -0.022313 0.047457 -0.016211
v -0.018457 0.047457 -0.020499
v -0.013792 0.047457 -0.023885
v -0.008524 0.047457 -0.026231
v -0.002883 0.047457 -0.027430
v 0.002883 0.047457 -0.027430
v 0.008523 0.047457 -0.026231
v 0.013791 0.047457 -0.023885
v 0.018456 0.047457 -0.020499
v 0.022313 0.047457 -0.016211
v 0.025197 0.047457 -0.011219
v 0.026978 0.047457 -0.005735
v 0.027581 0.047457 -0.000000
v 0.025735 0.048425 0.005471
v 0.024036 0.048425 0.010703
v 0.021285 0.048425 0.015466
v 0.017606 0.048425 0.019553
v 0.013155 0.048425 0.022785
v 0.008132 0.048425 0.025024
v 0.002750 0.048425 0.026167
v -0.002750 0.048425 0.026167
v -0.008130 0.048425 0.025024
v -0.013155 0.048425 0.022785
v -0.017606 0.048425 0.019553
v -0.021285 0.048425 0.015466
v -0.024035 0.048425 0.010703
v -0.025735 0.048425 0.005471
v -0.026311 0.048425 -0.000000
v -0.025735 0.048425 -0.005469
v -0.024035 0.048425 -0.010704
v -0.021285 0.048425 -0.015464
v -0.017606 0.048425 -0.019554
v -0.013155 0.048425 -0.022786
v -0.008130 0.048425 -0.025025
v -0.002750 0.048425 -0.026165
v 0.002750 0.048425 -0.026165
v 0.008132 0.048425 -0.025025
v 0.013155 0.048425 -0.022786
v 0.017606 0.048425 -0.019554
v 0.021285 0.048425 -0.015464
v 0.024036 0.048425 -0.010701
v 0.025735 0.048425 -0.005469
v 0.026311 0.048425 -0.000000
v -0.000000 0.048425 -0.000000
v -0.018848 0.026283 -0.032647
v -0.011649 0.026283 -0.035853
v -0.003940 0.026283 -0.037491
v 0.003940 0.026283 -0.037491
v 0.011648 0.026283 -0.035853
v 0.018848 0.026283 -0.032647
v 0.025224 0.026283 -0.028013
v 0.030498 0.026283 -0.022159
v 0.034440 0.026283 -0.015333
v 0.036872 0.026283 -0.007837
v 0.037697 0.026283 -0.000000
v 0.036872 0.026283 0.007839
v 0.034440 0.026283 0.015332
v 0.030498 0.026283 0.022158
v 0.025224 0.026283 0.028015
v 0.018848 0.026283 0.032646
v 0.011648 0.026283 0.035852
v 0.003940 0.026283 0.037490
v -0.003940 0.026283 0.037490
v -0.011649 0.026283 0.035852
v -0.018848 0.026283 0.032646
v -0.025224 0.026283 0.028015
v -0.030498 0.026283 0.022158
v -0.034438 0.026283 0.015332
v -0.036873 0.026283 0.007839
v -0.037697 0.026283 -0.000000
v -0.036873 0.026283 -0.007837
v -0.034438 0.026283 -0.015333
v -0.030498 0.026283 -0.022159
v -0.025224 0.026283 -0.028013
v -0.010148 0.027388 -0.031629
v -0.003472 0.027389 -0.033035
v -0.007689 0.043984 -0.024061
v -0.002641 0.043984 -0.025120
v 0.003350 0.027389 -0.033047
v 0.002518 0.043984 -0.025132
v 0.010381 0.027389 -0.031553
v 0.016609 0.027389 -0.028768
v 0.007922 0.043984 -0.023985
v 0.012629 0.043984 -0.021875
v 0.022134 0.027389 -0.024769
v 0.016810 0.043984 -0.018853
v 0.026948 0.027388 -0.019424
v 0.030346 0.027388 -0.013511
v 0.020507 0.043984 -0.014747
v 0.023074 0.043984 -0.010274
v 0.032465 0.027388 -0.007029
v 0.024679 0.043984 -0.005372
v 0.033218 0.027389 0.000124
v 0.032491 0.027389 0.006906
v 0.025258 0.043984 0.000124
v 0.024705 0.043984 0.005251
v 0.030396 0.027388 0.013398
v 0.023124 0.043984 0.010161
v 0.026803 0.027389 0.019626
v 0.022229 0.027389 0.024687
v 0.020359 0.043984 0.014946
v 0.016901 0.043984 0.018769
v 0.016718 0.027389 0.028706
v 0.012737 0.043984 0.021811
v 0.010148 0.027388 0.031630
v 0.003472 0.027389 0.033037
v 0.007689 0.043984 0.024062
v 0.002640 0.043984 0.025119
v -0.003350 0.027389 0.033049
v -0.002516 0.043984 0.025131
v -0.010381 0.027389 0.031552
v -0.016609 0.027389 0.028769
v -0.007922 0.043984 0.023984
v -0.012629 0.043984 0.021875
v -0.022134 0.027389 0.024770
v -0.016808 0.043984 0.018852
v -0.026948 0.027388 0.019426
v -0.030346 0.027388 0.013510
v -0.020507 0.043984 0.014746
v -0.023074 0.043984 0.010273
v -0.032465 0.027388 0.007028
v -0.024679 0.043984 0.005371
v -0.033218 0.027389 -0.000123
v -0.032492 0.027389 -0.006905
v -0.025258 0.043984 -0.000123
v -0.024706 0.043984 -0.005252
v -0.030396 0.027388 -0.013399
v -0.023124 0.043984 -0.010162
v -0.026803 0.027389 -0.019625
v -0.022223 0.027389 -0.024686
v -0.020359 0.043984 -0.014947
v -0.016902 0.043984 -0.018770
v -0.016717 0.027389 -0.028704
v -0.012737 0.043984 -0.021812
v -0.010073 0.022694 -0.031395
v -0.003446 0.022694 -0.032789
v 0.003325 0.022695 -0.032801
v 0.010304 0.022695 -0.031316
v 0.016485 0.022695 -0.028553
v 0.021969 0.022694 -0.024583
v 0.026747 0.022694 -0.019280
v 0.030121 0.022694 -0.013411
v 0.032223 0.022694 -0.006976
v 0.032972 0.022694 0.000124
v 0.032250 0.022694 0.006855
v 0.030172 0.022694 0.013298
v 0.026602 0.022695 0.019477
v 0.022061 0.022694 0.024501
v 0.016594 0.022694 0.028491
v 0.010073 0.022694 0.031394
v 0.003445 0.022694 0.032788
v -0.003325 0.022695 0.032800
v -0.010305 0.022694 0.031318
v -0.016486 0.022694 0.028552
v -0.021969 0.022694 0.024582
v -0.026747 0.022694 0.019282
v -0.030120 0.022694 0.013410
v -0.032224 0.022694 0.006977
v -0.032971 0.022694 -0.000123
v -0.032250 0.022694 -0.006854
v -0.030166 0.022694 -0.013299
v -0.026602 0.022695 -0.019478
v -0.022059 0.022694 -0.024500
v -0.016593 0.022694 -0.028492
v -0.000000 0.000000 0.000000
v -0.000000 0.022694 -0.000000
v -0.000000 0.043984 -0.000000
v 0.056466 0.006154 0.012004
v 0.052738 0.006154 0.023481
v 0.046703 0.006154 0.033933
v 0.038629 0.006154 0.042901
v 0.028866 0.006154 0.049995
v 0.017841 0.006154 0.054903
v 0.006035 0.006154 0.057413
v -0.006034 0.006154 0.057413
v -0.017840 0.006154 0.054903
v -0.028863 0.006154 0.049995
v -0.038628 0.006154 0.042901
v -0.046703 0.006154 0.033933
v -0.052738 0.006154 0.023481
v -0.056467 0.006154 0.012004
v -0.057730 0.006154 -0.000000
v -0.056467 0.006154 -0.012002
v -0.052738 0.006154 -0.023479
v -0.046703 0.006154 -0.033932
v -0.038628 0.006154 -0.042901
v -0.028863 0.006154 -0.049994
v -0.017840 0.006154 -0.054903
v -0.006034 0.006154 -0.057413
v 0.006035 0.006154 -0.057413
v 0.017841 0.006154 -0.054903
v 0.028866 0.006154 -0.049994
v 0.038628 0.006154 -0.042901
v 0.046703 0.006154 -0.033932
v 0.052738 0.006154 -0.023479
v 0.056466 0.006154 -0.012002
v 0.057730 0.006154 -0.000000
v 0.052973 0.006518 0.011259
v 0.049473 0.006518 0.022027
v 0.043812 0.006518 0.031832
v 0.036239 0.006518 0.040246
v 0.027077 0.006518 0.046900
v 0.016735 0.006518 0.051503
v 0.005665 0.006518 0.053858
v -0.005659 0.006518 0.053858
v -0.016733 0.006518 0.051503
v -0.027077 0.006518 0.046900
v -0.036234 0.006518 0.040246
v -0.043809 0.006518 0.031832
v -0.049474 0.006518 0.022027
v -0.052971 0.006518 0.011259
v -0.054157 0.006518 -0.000000
v -0.052971 0.006518 -0.011259
v -0.049474 0.006518 -0.022026
v -0.043809 0.006518 -0.031833
v -0.036234 0.006518 -0.040245
v -0.027077 0.006518 -0.046900
v -0.016733 0.006518 -0.051504
v -0.005659 0.006518 -0.053857
v 0.005665 0.006518 -0.053857
v 0.016735 0.006518 -0.051504
v 0.027077 0.006518 -0.046900
v 0.036237 0.006518 -0.040245
v 0.043812 0.006518 -0.031833
v 0.049473 0.006518 -0.022026
v 0.052973 0.006518 -0.011259
v 0.054156 0.006518 -0.000000
vn 0.8792 0.2717 0.3915
vn 0.7787 0.2717 0.5656
vn 0.7786 0.2717 0.5656
vn 0.6439 0.2717 0.7152
vn 0.4811 0.2717 0.8335
vn 0.2975 0.2716 0.9153
vn 0.1007 0.2715 0.9572
vn -0.1007 0.2715 0.9572
vn -0.1006 0.2715 0.9572
vn -0.2975 0.2716 0.9153
vn -0.4812 0.2716 0.8335
vn -0.6440 0.2716 0.7152
vn -0.7786 0.2715 0.5657
vn -0.8792 0.2716 0.3915
vn -0.9414 0.2717 0.2001
vn -0.9624 0.2717 -0.0000
vn -0.9413 0.2717 -0.2002
vn -0.8792 0.2716 -0.3915
vn -0.7786 0.2715 -0.5657
vn -0.6440 0.2716 -0.7152
vn -0.4812 0.2716 -0.8335
vn -0.2974 0.2716 -0.9153
vn -0.1006 0.2715 -0.9572
vn 0.1006 0.2716 -0.9571
vn 0.2974 0.2716 -0.9153
vn 0.4812 0.2717 -0.8335
vn 0.6439 0.2716 -0.7152
vn 0.7786 0.2717 -0.5656
vn 0.7786 0.2717 -0.5657
vn 0.8792 0.2717 -0.3914
vn 0.9413 0.2717 -0.2002
vn 0.9624 0.2717 -0.0000
vn 0.9413 0.2717 0.2002
vn 0.0992 0.9948 0.0211
vn 0.0926 0.9948 0.0412
vn 0.0820 0.9948 0.0596
vn 0.0678 0.9948 0.0753
vn 0.0507 0.9949 0.0878
vn 0.0313 0.9949 0.0964
vn 0.0106 0.9949 0.1008
vn -0.0106 0.9949 0.1008
vn -0.0313 0.9949 0.0964
vn -0.0507 0.9949 0.0878
vn -0.0678 0.9949 0.0753
vn -0.0820 0.9949 0.0596
vn -0.0820 0.9949 0.0595
vn -0.0926 0.9949 0.0412
vn -0.0991 0.9948 0.0211
vn -0.0991 0.9949 0.0211
vn -0.1014 0.9948 -0.0000
vn -0.0991 0.9948 -0.0211
vn -0.0926 0.9949 -0.0412
vn -0.0820 0.9949 -0.0596
vn -0.0820 0.9949 -0.0595
vn -0.0678 0.9949 -0.0753
vn -0.0507 0.9949 -0.0878
vn -0.0313 0.9949 -0.0964
vn -0.0106 0.9949 -0.1008
vn 0.0106 0.9949 -0.1008
vn 0.0313 0.9949 -0.0964
vn 0.0507 0.9949 -0.0878
vn 0.0678 0.9949 -0.0753
vn 0.0820 0.9948 -0.0596
vn 0.0926 0.9948 -0.0412
vn 0.0992 0.9948 -0.0211
vn 0.1014 0.9948 -0.0000
vn 0.9631 0.1747 0.2048
vn 0.8995 0.1746 0.4005
vn 0.9631 0.1747 0.2047
vn 0.7966 0.1746 0.5788
vn 0.7966 0.1746 0.5787
vn 0.6589 0.1747 0.7316
vn 0.6589 0.1747 0.7317
vn 0.4923 0.1749 0.8527
vn 0.3042 0.1749 0.9364
vn 0.1029 0.1747 0.9792
vn -0.1029 0.1747 0.9792
vn -0.1028 0.1747 0.9792
vn -0.3042 0.1750 0.9364
vn -0.4923 0.1750 0.8526
vn -0.6589 0.1747 0.7317
vn -0.7966 0.1746 0.5788
vn -0.8995 0.1747 0.4005
vn -0.9631 0.1746 0.2048
vn -0.9631 0.1746 0.2047
vn -0.9846 0.1747 -0.0000
vn -0.9631 0.1747 -0.2047
vn -0.9631 0.1747 -0.2048
vn -0.8995 0.1748 -0.4005
vn -0.7965 0.1747 -0.5788
vn -0.7966 0.1747 -0.5788
vn -0.6589 0.1747 -0.7317
vn -0.4923 0.1749 -0.8527
vn -0.4924 0.1749 -0.8526
vn -0.3043 0.1749 -0.9364
vn -0.1029 0.1748 -0.9792
vn 0.1029 0.1748 -0.9792
vn 0.3043 0.1748 -0.9364
vn 0.4924 0.1747 -0.8527
vn 0.6589 0.1746 -0.7317
vn 0.7966 0.1747 -0.5788
vn 0.8995 0.1748 -0.4005
vn 0.9631 0.1747 -0.2048
vn 0.9846 0.1747 -0.0000
vn 0.2278 0.9684 0.1014
vn 0.2018 0.9684 0.1466
vn 0.1668 0.9684 0.1854
vn 0.1247 0.9684 0.2160
vn 0.0771 0.9684 0.2371
vn 0.0261 0.9684 0.2480
vn -0.0261 0.9684 0.2480
vn -0.0771 0.9684 0.2371
vn -0.1247 0.9684 0.2160
vn -0.1668 0.9684 0.1854
vn -0.2018 0.9684 0.1466
vn -0.2278 0.9684 0.1014
vn -0.2439 0.9684 0.0519
vn -0.2494 0.9684 -0.0000
vn -0.2439 0.9684 -0.0519
vn -0.2278 0.9684 -0.1014
vn -0.2018 0.9684 -0.1466
vn -0.1669 0.9684 -0.1853
vn -0.1247 0.9684 -0.2160
vn -0.0771 0.9684 -0.2372
vn -0.0261 0.9684 -0.2480
vn 0.0261 0.9684 -0.2480
vn 0.0771 0.9684 -0.2372
vn 0.1247 0.9684 -0.2160
vn 0.1669 0.9684 -0.1853
vn 0.2018 0.9684 -0.1466
vn 0.2278 0.9684 -0.1014
vn 0.2439 0.9684 -0.0519
vn 0.2494 0.9684 -0.0000
vn 0.2439 0.9684 0.0519
vn 0.8819 0.4327 0.1874
vn 0.8818 0.4327 0.1875
vn 0.8111 0.4321 0.3943
vn 0.8238 0.4321 0.3668
vn 0.7470 0.4323 0.5051
vn 0.7294 0.4326 0.5300
vn 0.6031 0.4326 0.6701
vn 0.6032 0.4326 0.6701
vn 0.4243 0.4319 0.7958
vn 0.4509 0.4320 0.7811
vn 0.3074 0.4319 0.8479
vn 0.2788 0.4319 0.8577
vn 0.0943 0.4322 0.8968
vn -0.1245 0.4320 0.8932
vn -0.0943 0.4321 0.8969
vn -0.2497 0.4318 0.8667
vn -0.2788 0.4318 0.8578
vn -0.4508 0.4320 0.7811
vn -0.4509 0.4320 0.7811
vn -0.6255 0.4324 0.6494
vn -0.6032 0.4326 0.6701
vn -0.7112 0.4325 0.5542
vn -0.7293 0.4328 0.5299
vn -0.8238 0.4324 0.3666
vn -0.8238 0.4324 0.3667
vn -0.8878 0.4323 0.1577
vn -0.8819 0.4325 0.1874
vn -0.9011 0.4325 0.0304
vn -0.9015 0.4328 -0.0000
vn -0.8820 0.4324 -0.1876
vn -0.8820 0.4324 -0.1874
vn -0.8111 0.4319 -0.3944
vn -0.8240 0.4319 -0.3667
vn -0.7470 0.4321 -0.5052
vn -0.7296 0.4322 -0.5300
vn -0.6033 0.4324 -0.6702
vn -0.6033 0.4324 -0.6701
vn -0.4244 0.4319 -0.7958
vn -0.4510 0.4320 -0.7810
vn -0.3074 0.4318 -0.8479
vn -0.2788 0.4318 -0.8578
vn -0.0943 0.4321 -0.8969
vn 0.1244 0.4321 -0.8932
vn 0.0943 0.4322 -0.8968
vn 0.2496 0.4319 -0.8667
vn 0.2788 0.4319 -0.8577
vn 0.4510 0.4320 -0.7810
vn 0.6256 0.4322 -0.6495
vn 0.6033 0.4323 -0.6701
vn 0.7114 0.4319 -0.5544
vn 0.7297 0.4320 -0.5301
vn 0.8241 0.4317 -0.3669
vn 0.8241 0.4317 -0.3668
vn 0.8878 0.4323 -0.1578
vn 0.8819 0.4326 -0.1874
vn 0.9010 0.4327 -0.0304
vn 0.9013 0.4331 -0.0000
vn 0.3672 -0.4305 0.8245
vn 0.4698 -0.1095 0.8760
vn 0.3367 -0.1095 0.9352
vn 0.8149 0.4206 0.3988
vn 0.8899 0.4150 0.1892
vn 0.7704 0.6162 0.1638
vn 0.7196 0.6160 0.3204
vn 0.7528 0.4204 0.5065
vn 0.6374 0.6159 0.4631
vn 0.6091 0.4141 0.6764
vn 0.5272 0.6159 0.5855
vn 0.4251 0.4201 0.8018
vn 0.3939 0.6158 0.6823
vn 0.3115 0.4202 0.8523
vn 0.2435 0.6158 0.7493
vn 0.0952 0.4143 0.9051
vn 0.0824 0.6160 0.7834
vn -0.1274 0.4204 0.8984
vn -0.0824 0.6160 0.7834
vn -0.2491 0.4202 0.8726
vn -0.2435 0.6159 0.7493
vn -0.4552 0.4139 0.7884
vn -0.3939 0.6159 0.6823
vn -0.6312 0.4201 0.6519
vn -0.5272 0.6158 0.5855
vn -0.7144 0.4202 0.5596
vn -0.6374 0.6158 0.4631
vn -0.8315 0.4142 0.3703
vn -0.7197 0.6159 0.3204
vn -0.8937 0.4204 0.1565
vn -0.7705 0.6160 0.1638
vn -0.9067 0.4205 0.0328
vn -0.7877 0.6160 -0.0000
vn -0.8903 0.4142 -0.1892
vn -0.7706 0.6159 -0.1638
vn -0.8151 0.4201 -0.3989
vn -0.7198 0.6158 -0.3205
vn -0.7529 0.4201 -0.5066
vn -0.6375 0.6158 -0.4630
vn -0.6092 0.4142 -0.6763
vn -0.5272 0.6158 -0.5855
vn -0.4249 0.4206 -0.8016
vn -0.3939 0.6160 -0.6822
vn -0.3113 0.4207 -0.8521
vn -0.2434 0.6160 -0.7492
vn -0.0951 0.4146 -0.9050
vn -0.0823 0.6161 -0.7834
vn 0.1273 0.4206 -0.8983
vn 0.0823 0.6160 -0.7834
vn 0.2489 0.4207 -0.8724
vn 0.2434 0.6159 -0.7492
vn 0.4549 0.4147 -0.7881
vn 0.3939 0.6159 -0.6823
vn 0.6311 0.4204 -0.6519
vn 0.5272 0.6159 -0.5855
vn 0.7144 0.4203 -0.5595
vn 0.6374 0.6159 -0.4630
vn 0.8314 0.4144 -0.3703
vn 0.7196 0.6160 -0.3205
vn 0.8936 0.4207 -0.1565
vn 0.7704 0.6162 -0.1639
vn 0.9065 0.4210 -0.0328
vn 0.7875 0.6163 -0.0000
vn 0.5537 0.7954 0.2465
vn 0.5928 0.7954 0.1260
vn -0.5926 0.7956 -0.1259
vn -0.6060 0.7955 -0.0000
vn -0.4902 0.7956 0.3561
vn -0.4053 0.7956 0.4502
vn -0.5534 0.7956 0.2465
vn -0.5927 0.7955 0.1260
vn -0.1872 0.7956 0.5762
vn -0.0633 0.7956 0.6025
vn -0.3029 0.7957 0.5246
vn -0.0000 1.0000 -0.0000
vn 0.1873 0.7955 0.5762
vn 0.3029 0.7956 0.5247
vn 0.0633 0.7956 0.6025
vn 0.4903 0.7954 0.3562
vn 0.4054 0.7956 0.4502
vn 0.5927 0.7955 -0.1259
vn 0.5535 0.7956 -0.2464
vn 0.6060 0.7955 -0.0000
vn -0.4902 0.7955 -0.3561
vn -0.5533 0.7956 -0.2465
vn -0.4055 0.7955 -0.4503
vn -0.3030 0.7953 -0.5251
vn 0.4055 0.7955 -0.4503
vn 0.3031 0.7952 -0.5252
vn 0.4903 0.7955 -0.3561
vn -0.0633 0.7955 -0.6027
vn -0.1873 0.7952 -0.5767
vn 0.0633 0.7955 -0.6027
vn 0.1874 0.7951 -0.5768
vn -0.1875 -0.4305 0.8829
vn -0.1350 -0.1092 0.9848
vn -0.2772 -0.1092 0.9546
vn -0.9907 0.0149 -0.1354
vn 0.0315 0.0151 0.9994
vn 0.6129 0.0152 0.7900
vn -0.7816 -0.4306 -0.4512
vn -0.8949 -0.1094 -0.4326
vn -0.8222 -0.1091 -0.5587
vn -0.3673 -0.4305 -0.8245
vn -0.4697 -0.1092 -0.8760
vn -0.3368 -0.1092 -0.9352
vn 0.1877 -0.4305 -0.8828
vn 0.1350 -0.1091 -0.9848
vn 0.2772 -0.1092 -0.9546
vn 0.6706 -0.4306 -0.6040
vn 0.6880 -0.1091 -0.7175
vn 0.7853 -0.1093 -0.6093
vn 0.8976 -0.4306 -0.0946
vn 0.9783 -0.1094 -0.1761
vn 0.9935 -0.1093 -0.0314
vn 0.9409 0.0149 -0.3383
vn -0.6707 -0.4305 0.6039
vn -0.6880 -0.1093 0.7174
vn -0.7853 -0.1094 0.6093
vn -0.8976 -0.4306 0.0945
vn -0.9783 -0.1094 0.1761
vn -0.9935 -0.1094 0.0314
vn 0.2399 0.9705 0.0255
vn 0.2347 0.9708 0.0499
vn 0.7816 -0.4306 0.4513
vn 0.8949 -0.1091 0.4326
vn 0.8221 -0.1092 0.5587
vn 0.4350 0.0151 -0.9003
vn -0.1768 0.0153 -0.9841
vn 0.1043 0.0526 0.9932
vn -0.1035 0.0528 0.9932
vn -0.3094 0.0529 0.9495
vn -0.4992 0.0528 0.8649
vn -0.6675 0.0528 0.7428
vn -0.8084 0.0526 0.5863
vn -0.9123 0.0525 0.4061
vn -0.9766 0.0526 0.2085
vn -0.9986 0.0526 -0.0009
vn -0.9768 0.0525 -0.2077
vn -0.9127 0.0526 -0.4052
vn -0.8074 0.0531 -0.5877
vn -0.6682 0.0532 -0.7421
vn -0.5001 0.0529 -0.8643
vn -0.3076 0.0529 -0.9500
vn -0.1043 0.0532 -0.9931
vn 0.1035 0.0531 -0.9932
vn 0.3094 0.0529 -0.9495
vn 0.4993 0.0530 -0.8648
vn 0.4992 0.0530 -0.8648
vn 0.6674 0.0531 -0.7428
vn 0.8084 0.0527 -0.5863
vn 0.9123 0.0526 -0.4060
vn 0.9766 0.0526 -0.2086
vn 0.9986 0.0527 0.0009
vn 0.9768 0.0529 0.2077
vn 0.9127 0.0531 0.4053
vn 0.8073 0.0529 0.5878
vn 0.6682 0.0526 0.7421
vn 0.6681 0.0526 0.7422
vn 0.5003 0.0524 0.8643
vn 0.3077 0.0524 0.9500
vn 0.2294 0.9705 0.0743
vn 0.4880 -0.8584 0.1580
vn 0.4997 -0.8597 0.1063
vn 0.5099 -0.8585 0.0543
vn 0.4877 -0.8584 -0.1591
vn 0.4668 -0.8596 -0.2079
vn 0.4447 -0.8583 -0.2561
vn 0.2089 0.9705 -0.1203
vn 0.2191 0.9708 -0.0975
vn 0.2292 0.9705 -0.0746
vn -0.0000 -1.0000 -0.0000
vn -0.0001 1.0000 -0.0000
vn 0.0001 -1.0000 -0.0000
vn -0.0251 0.9708 -0.2386
vn -0.0002 0.9705 -0.2411
vn 0.9601 0.0149 0.2792
vn -0.0499 0.9705 -0.2358
vn -0.0001 -1.0000 -0.0000
vn -0.0534 -0.8595 -0.5083
vn -0.1060 -0.8583 -0.5021
vn -0.0005 -0.8583 -0.5131
vn -0.7217 0.0151 -0.6921
vn 0.0983 0.9705 -0.2203
vn 0.1200 0.9708 -0.2078
vn -0.5622 0.0149 0.8269
vn 0.1416 0.9705 -0.1952
vn 0.3011 -0.8584 -0.4154
vn 0.2555 -0.8596 -0.4425
vn 0.2092 -0.8584 -0.4684
vn 0.8813 0.0152 -0.4723
vn 0.1792 0.9705 0.1616
vn 0.1606 0.9708 0.1784
vn -0.9409 0.0149 0.3384
vn 0.1420 0.9705 0.1951
vn -0.0000 -1.0000 0.0001
vn 0.3020 -0.8584 0.4146
vn 0.3418 -0.8597 0.3796
vn 0.3807 -0.8585 0.3435
vn 0.9907 0.0150 0.1356
vn 0.0500 0.9705 0.2360
vn 0.0251 0.9708 0.2387
vn -0.9601 0.0149 -0.2792
vn 0.0002 0.9705 0.2413
vn 0.0005 -0.8585 0.5127
vn 0.0534 -0.8596 0.5081
vn 0.0533 -0.8596 0.5081
vn 0.1060 -0.8583 0.5021
vn 0.7215 0.0153 0.6922
vn -0.0982 0.9705 0.2203
vn -0.1200 0.9708 0.2078
vn -0.6131 0.0153 -0.7899
vn -0.1416 0.9705 0.1953
vn -0.3011 -0.8584 0.4153
vn -0.2555 -0.8596 0.4425
vn -0.2092 -0.8583 0.4685
vn 0.1774 0.0150 0.9840
vn -0.2089 0.9705 0.1203
vn -0.2192 0.9708 0.0975
vn -0.0309 0.0148 -0.9994
vn -0.2292 0.9705 0.0747
vn -0.4877 -0.8584 0.1590
vn -0.4668 -0.8596 0.2078
vn -0.4446 -0.8583 0.2561
vn -0.4348 0.0149 0.9004
vn -0.2399 0.9705 -0.0254
vn -0.2347 0.9708 -0.0499
vn 0.5623 0.0148 -0.8268
vn -0.2294 0.9705 -0.0743
vn -0.4882 -0.8583 -0.1580
vn -0.4999 -0.8596 -0.1063
vn -0.5102 -0.8584 -0.0543
vn -0.8813 0.0151 0.4724
vn -0.1790 0.9705 -0.1616
vn -0.1605 0.9708 -0.1783
vn -0.1419 0.9705 -0.1949
vn -0.3020 -0.8584 -0.4147
vn -0.3420 -0.8596 -0.3796
vn -0.3810 -0.8584 -0.3435
vt 0.587839 0.008101
vt 0.587839 0.053207
vt 0.560263 0.053207
vt 0.560263 0.008101
vt 0.532688 0.053207
vt 0.532688 0.008101
vt 0.505111 0.053207
vt 0.505111 0.008101
vt 0.477536 0.053207
vt 0.477536 0.008101
vt 0.449966 0.053207
vt 0.449966 0.008101
vt 0.422385 0.053207
vt 0.422385 0.008101
vt 0.394810 0.053207
vt 0.394810 0.008101
vt 0.367233 0.053207
vt 0.367233 0.008101
vt 0.339660 0.053207
vt 0.339660 0.008101
vt 0.312083 0.053207
vt 0.312083 0.008101
vt 0.284505 0.053207
vt 0.284505 0.008101
vt 0.256929 0.053207
vt 0.256929 0.008101
vt 0.229352 0.053207
vt 0.229352 0.008101
vt 0.201779 0.053207
vt 0.201779 0.008101
vt 0.174206 0.053207
vt 0.174206 0.008101
vt 0.146624 0.053207
vt 0.146624 0.008101
vt 0.119050 0.053207
vt 0.119050 0.008101
vt 0.091475 0.053207
vt 0.091475 0.008101
vt 0.063897 0.053206
vt 0.063897 0.008101
vt 0.036324 0.053206
vt 0.036324 0.008101
vt 0.008743 0.053206
vt 0.008743 0.008101
vt 0.836016 0.008101
vt 0.836016 0.053207
vt 0.808447 0.053207
vt 0.808447 0.008101
vt 0.780872 0.053207
vt 0.780872 0.008101
vt 0.753294 0.053207
vt 0.753294 0.008101
vt 0.725720 0.053207
vt 0.725720 0.008101
vt 0.698140 0.053207
vt 0.698140 0.008101
vt 0.670566 0.053207
vt 0.670566 0.008101
vt 0.642993 0.053207
vt 0.642993 0.008101
vt 0.615416 0.053207
vt 0.615416 0.008101
vt 0.731356 0.122281
vt 0.698509 0.122281
vt 0.698509 0.112362
vt 0.731356 0.112362
vt 0.665664 0.122281
vt 0.665664 0.112362
vt 0.632820 0.122281
vt 0.632820 0.112362
vt 0.599972 0.122281
vt 0.599972 0.112362
vt 0.567128 0.122281
vt 0.567128 0.112362
vt 0.534284 0.122281
vt 0.534284 0.112362
vt 0.501437 0.122281
vt 0.501437 0.112362
vt 0.468587 0.122281
vt 0.468587 0.112362
vt 0.435744 0.122281
vt 0.435744 0.112362
vt 0.402900 0.122281
vt 0.402900 0.112362
vt 0.370053 0.122281
vt 0.370053 0.112362
vt 0.337206 0.122281
vt 0.337206 0.112362
vt 0.304360 0.122281
vt 0.304360 0.112362
vt 0.271512 0.122281
vt 0.271512 0.112362
vt 0.238667 0.122281
vt 0.238667 0.112362
vt 0.205822 0.122281
vt 0.205822 0.112362
vt 0.172972 0.122281
vt 0.172972 0.112362
vt 0.140128 0.122281
vt 0.140128 0.112362
vt 0.107283 0.122281
vt 0.107283 0.112362
vt 0.074439 0.122281
vt 0.074440 0.112362
vt 0.041590 0.122281
vt 0.041590 0.112362
vt 0.008743 0.122281
vt 0.008743 0.112362
vt 0.994119 0.122281
vt 0.961276 0.122281
vt 0.961276 0.112362
vt 0.994119 0.112362
vt 0.928431 0.122281
vt 0.928431 0.112362
vt 0.895586 0.122281
vt 0.895586 0.112362
vt 0.862742 0.122281
vt 0.862742 0.112362
vt 0.829894 0.122281
vt 0.829894 0.112362
vt 0.797049 0.122281
vt 0.797049 0.112362
vt 0.764204 0.122281
vt 0.764204 0.112362
vt 0.698509 0.095105
vt 0.731356 0.095105
vt 0.665664 0.095105
vt 0.632820 0.095105
vt 0.599972 0.095105
vt 0.567128 0.095105
vt 0.534284 0.095105
vt 0.501437 0.095105
vt 0.468587 0.095105
vt 0.435744 0.095105
vt 0.402900 0.095105
vt 0.370053 0.095105
vt 0.337206 0.095105
vt 0.304360 0.095105
vt 0.271512 0.095105
vt 0.238667 0.095105
vt 0.205822 0.095105
vt 0.172972 0.095105
vt 0.140128 0.095105
vt 0.107283 0.095105
vt 0.074440 0.095105
vt 0.041590 0.095105
vt 0.008743 0.095105
vt 0.961276 0.095105
vt 0.994119 0.095105
vt 0.928431 0.095105
vt 0.895586 0.095105
vt 0.862742 0.095105
vt 0.829894 0.095105
vt 0.797049 0.095105
vt 0.764204 0.095105
vt 0.587839 0.086182
vt 0.560263 0.086182
vt 0.532688 0.086182
vt 0.505111 0.086182
vt 0.477536 0.086182
vt 0.449966 0.086182
vt 0.422385 0.086182
vt 0.394810 0.086182
vt 0.367233 0.086182
vt 0.339660 0.086182
vt 0.312083 0.086182
vt 0.284505 0.086182
vt 0.256929 0.086182
vt 0.229352 0.086182
vt 0.201779 0.086182
vt 0.174206 0.086182
vt 0.146624 0.086182
vt 0.119050 0.086182
vt 0.091475 0.086182
vt 0.063897 0.086182
vt 0.036324 0.086182
vt 0.008743 0.086182
vt 0.836016 0.086182
vt 0.808447 0.086182
vt 0.780872 0.086182
vt 0.753294 0.086182
vt 0.725720 0.086182
vt 0.698140 0.086182
vt 0.670566 0.086182
vt 0.642993 0.086182
vt 0.615416 0.086182
vt 0.413219 0.215176
vt 0.413343 0.218557
vt 0.395775 0.218557
vt 0.395677 0.215176
vt 0.378300 0.218557
vt 0.378230 0.215176
vt 0.360847 0.218557
vt 0.360805 0.215176
vt 0.343374 0.218557
vt 0.343366 0.215176
vt 0.325865 0.218557
vt 0.325890 0.215176
vt 0.308321 0.218557
vt 0.308342 0.215176
vt 0.290775 0.218557
vt 0.290779 0.215176
vt 0.273270 0.218557
vt 0.273280 0.215176
vt 0.255784 0.218557
vt 0.255835 0.215176
vt 0.238299 0.218557
vt 0.238357 0.215176
vt 0.220790 0.218557
vt 0.220865 0.215176
vt 0.203161 0.218557
vt 0.203288 0.215176
vt 0.185291 0.218557
vt 0.185441 0.215176
vt 0.167091 0.218557
vt 0.167239 0.215176
vt 0.148451 0.218557
vt 0.148591 0.215176
vt 0.129295 0.218557
vt 0.129384 0.215176
vt 0.109615 0.218557
vt 0.109601 0.215176
vt 0.089498 0.218557
vt 0.089349 0.215176
vt 0.069232 0.218557
vt 0.068892 0.215176
vt 0.049068 0.218557
vt 0.048459 0.215176
vt 0.029270 0.218557
vt 0.028353 0.215176
vt 0.009957 0.218557
vt 0.008743 0.215176
vt 0.567865 0.215176
vt 0.567185 0.218557
vt 0.546952 0.218557
vt 0.547336 0.215176
vt 0.526710 0.218557
vt 0.526883 0.215176
vt 0.506586 0.218557
vt 0.506613 0.215176
vt 0.486919 0.218557
vt 0.486826 0.215176
vt 0.467813 0.218557
vt 0.467667 0.215176
vt 0.449243 0.218557
vt 0.449100 0.215176
vt 0.431136 0.218557
vt 0.430996 0.215176
vt 0.541087 0.200361
vt 0.525910 0.200356
vt 0.523642 0.149861
vt 0.543391 0.149867
vt 0.396679 0.276954
vt 0.414474 0.276954
vt 0.414474 0.282581
vt 0.396679 0.282581
vt 0.378883 0.276954
vt 0.378883 0.282581
vt 0.361096 0.276954
vt 0.361096 0.282581
vt 0.343302 0.276954
vt 0.343302 0.282581
vt 0.325508 0.276954
vt 0.325508 0.282581
vt 0.307712 0.276954
vt 0.307712 0.282581
vt 0.289921 0.276954
vt 0.289921 0.282581
vt 0.272127 0.276954
vt 0.272127 0.282581
vt 0.254332 0.276954
vt 0.254332 0.282581
vt 0.236537 0.276954
vt 0.236537 0.282581
vt 0.218752 0.276954
vt 0.218752 0.282581
vt 0.200956 0.276954
vt 0.200956 0.282581
vt 0.183161 0.276954
vt 0.183161 0.282581
vt 0.165365 0.276954
vt 0.165365 0.282581
vt 0.147575 0.276954
vt 0.147575 0.282581
vt 0.129778 0.276954
vt 0.129778 0.282581
vt 0.111986 0.276954
vt 0.111986 0.282581
vt 0.094195 0.276954
vt 0.094195 0.282581
vt 0.076402 0.276954
vt 0.076402 0.282581
vt 0.058607 0.276954
vt 0.058607 0.282581
vt 0.040814 0.276954
vt 0.040814 0.282581
vt 0.023023 0.276954
vt 0.023023 0.282581
vt 0.539027 0.276954
vt 0.556822 0.276954
vt 0.556822 0.282581
vt 0.539027 0.282581
vt 0.521233 0.276954
vt 0.521233 0.282581
vt 0.503440 0.276954
vt 0.503440 0.282581
vt 0.485648 0.276954
vt 0.485648 0.282581
vt 0.467854 0.276954
vt 0.467854 0.282581
vt 0.450059 0.276954
vt 0.450059 0.282581
vt 0.432269 0.276954
vt 0.432269 0.282581
vt 0.396679 0.287542
vt 0.414474 0.287542
vt 0.147575 0.287542
vt 0.165365 0.287542
vt 0.218752 0.287542
vt 0.236537 0.287542
vt 0.200956 0.287542
vt 0.183161 0.287542
vt 0.272127 0.287542
vt 0.289921 0.287542
vt 0.254332 0.287542
vt 0.603135 0.433030
vt 0.562143 0.373359
vt 0.623855 0.411201
vt 0.614641 0.423205
vt 0.325508 0.287542
vt 0.343302 0.287542
vt 0.307712 0.287542
vt 0.575319 0.444545
vt 0.560232 0.445727
vt 0.545230 0.443748
vt 0.589830 0.440246
vt 0.378883 0.287542
vt 0.361096 0.287542
vt 0.518063 0.430782
vt 0.530960 0.438696
vt 0.450059 0.287542
vt 0.467854 0.287542
vt 0.432269 0.287542
vt 0.507083 0.420363
vt 0.498519 0.407892
vt 0.633914 0.382824
vt 0.630376 0.397541
vt 0.111986 0.287542
vt 0.129778 0.287542
vt 0.094195 0.287542
vt 0.076402 0.287542
vt 0.492727 0.393909
vt 0.489976 0.379026
vt 0.631555 0.352810
vt 0.634311 0.367699
vt 0.503440 0.287542
vt 0.521233 0.287542
vt 0.485648 0.287542
vt 0.493911 0.349184
vt 0.500427 0.335524
vt 0.509645 0.323521
vt 0.490372 0.363895
vt 0.617203 0.326356
vt 0.625768 0.338834
vt 0.040814 0.287542
vt 0.058607 0.287542
vt 0.023023 0.287542
vt 0.556822 0.287542
vt 0.539027 0.287542
vt 0.593323 0.308023
vt 0.606223 0.315937
vt 0.564055 0.300999
vt 0.579057 0.302978
vt 0.534456 0.306473
vt 0.548963 0.302173
vt 0.521151 0.313689
vt 0.010981 0.200538
vt 0.008743 0.149860
vt 0.028555 0.149882
vt 0.026207 0.200553
vt 0.899501 0.159758
vt 0.952040 0.159758
vt 0.952040 0.170695
vt 0.899501 0.170695
vt 0.685282 0.283632
vt 0.737821 0.283632
vt 0.737821 0.294570
vt 0.685282 0.294570
vt 0.924118 0.136320
vt 0.924118 0.147258
vt 0.871580 0.147258
vt 0.871580 0.136320
vt 0.182718 0.200354
vt 0.180437 0.149859
vt 0.200182 0.149859
vt 0.197895 0.200359
vt 0.239921 0.200357
vt 0.237634 0.149859
vt 0.257385 0.149859
vt 0.255100 0.200352
vt 0.297130 0.200354
vt 0.294842 0.149860
vt 0.314585 0.149859
vt 0.312307 0.200350
vt 0.354324 0.200357
vt 0.352037 0.149860
vt 0.371788 0.149859
vt 0.369502 0.200356
vt 0.411529 0.200356
vt 0.409242 0.149860
vt 0.428989 0.149861
vt 0.426699 0.200355
vt 0.860936 0.159758
vt 0.860936 0.170695
vt 0.808398 0.170695
vt 0.808398 0.159758
vt 0.068314 0.200352
vt 0.066028 0.149860
vt 0.085778 0.149859
vt 0.083487 0.200351
vt 0.125516 0.200357
vt 0.123226 0.149860
vt 0.142980 0.149860
vt 0.140692 0.200356
vt 0.665998 0.294570
vt 0.665998 0.283632
vt 0.468738 0.200353
vt 0.466450 0.149860
vt 0.486190 0.149859
vt 0.483914 0.200356
vt 0.594179 0.294570
vt 0.594179 0.283632
vt 0.646719 0.283632
vt 0.646719 0.294570
vt 0.833020 0.147258
vt 0.780483 0.147258
vt 0.780483 0.136320
vt 0.833020 0.136320
vt 0.562140 0.149882
vt 0.562124 0.136904
vt 0.580855 0.136904
vt 0.580941 0.149859
vt 0.028570 0.136904
vt 0.047300 0.136904
vt 0.047302 0.149866
vt 0.066029 0.136904
vt 0.085774 0.136904
vt 0.104503 0.136904
vt 0.104503 0.149858
vt 0.123231 0.136904
vt 0.142981 0.136904
vt 0.161708 0.136904
vt 0.161708 0.149859
vt 0.180436 0.136904
vt 0.200177 0.136904
vt 0.218913 0.136904
vt 0.218910 0.149859
vt 0.237633 0.136904
vt 0.257381 0.136904
vt 0.276115 0.136904
vt 0.276114 0.149859
vt 0.294844 0.136904
vt 0.314584 0.136904
vt 0.333317 0.136904
vt 0.333313 0.149859
vt 0.352044 0.136904
vt 0.371785 0.136904
vt 0.390518 0.136904
vt 0.390519 0.149859
vt 0.409241 0.136904
vt 0.428990 0.136904
vt 0.447717 0.136904
vt 0.447716 0.149859
vt 0.466455 0.136904
vt 0.486189 0.136904
vt 0.504922 0.136904
vt 0.504929 0.149858
vt 0.523647 0.136904
vt 0.008830 0.136904
vt 0.543392 0.136904
vt 0.706021 0.316782
vt 0.741091 0.400444
vt 0.675490 0.337796
vt 0.689669 0.325717
vt 0.766889 0.283632
vt 0.766889 0.294570
vt 0.752353 0.294570
vt 0.752353 0.283632
vt 0.953186 0.136320
vt 0.953186 0.147258
vt 0.938650 0.147258
vt 0.938650 0.136320
vt 0.852298 0.147258
vt 0.852298 0.136320
vt 0.828059 0.374629
vt 0.831497 0.392937
vt 0.830987 0.412569
vt 0.685904 0.472439
vt 0.672361 0.459652
vt 0.661229 0.443469
vt 0.743413 0.309760
vt 0.761893 0.312147
vt 0.780407 0.318686
vt 0.809819 0.341228
vt 0.820947 0.357414
vt 0.796273 0.328443
vt 0.724849 0.311192
vt 0.158604 0.620805
vt 0.125511 0.613775
vt 0.175497 0.459853
vt 0.192436 0.620805
vt 0.094601 0.600026
vt 0.067226 0.580137
vt 0.650681 0.407945
vt 0.651195 0.388318
vt 0.655564 0.370212
vt 0.323356 0.525658
vt 0.306447 0.554961
vt 0.333802 0.493478
vt 0.225530 0.613768
vt 0.256439 0.599999
vt 0.663543 0.353376
vt 0.654125 0.426256
vt 0.044547 0.364741
vt 0.067190 0.339599
vt 0.027636 0.394046
vt 0.337334 0.459830
vt 0.333799 0.426185
vt 0.826617 0.430676
vt 0.818633 0.447507
vt 0.720287 0.488741
vt 0.701786 0.482191
vt 0.283771 0.339572
vt 0.306418 0.364707
vt 0.256397 0.319682
vt 0.323333 0.394008
vt 0.757335 0.489693
vt 0.738767 0.491120
vt 0.158557 0.298898
vt 0.192388 0.298898
vt 0.125464 0.305934
vt 0.792511 0.475172
vt 0.776161 0.484105
vt 0.806692 0.463091
vt 0.283804 0.580112
vt 0.027664 0.525701
vt 0.017198 0.493522
vt 0.013664 0.459878
vt 0.225487 0.305933
vt 0.044578 0.555002
vt 0.017188 0.426227
vt 0.094555 0.319712
vt 0.394117 0.303780
vt 0.408267 0.302708
vt 0.406426 0.372179
vt 0.379538 0.308096
vt 0.367081 0.314894
vt 0.356273 0.324078
vt 0.347010 0.336135
vt 0.340926 0.348958
vt 0.337573 0.362750
vt 0.337175 0.377943
vt 0.339788 0.391893
vt 0.345178 0.405017
vt 0.353789 0.417551
vt 0.364100 0.427300
vt 0.376180 0.434749
vt 0.390512 0.439825
vt 0.880218 0.159758
vt 0.880218 0.170695
vt 0.674755 0.147256
vt 0.622219 0.147256
vt 0.622219 0.136320
vt 0.674755 0.136320
vt 0.418734 0.440583
vt 0.404583 0.441649
vt 0.793866 0.159758
vt 0.793866 0.170695
vt 0.779333 0.159758
vt 0.779333 0.170695
vt 0.713323 0.147256
vt 0.713323 0.136320
vt 0.765860 0.136320
vt 0.765860 0.147256
vt 0.694040 0.136320
vt 0.694040 0.147256
vt 0.621860 0.271706
vt 0.621860 0.260967
vt 0.675358 0.260967
vt 0.675358 0.271706
vt 0.445770 0.429463
vt 0.433315 0.436261
vt 0.593150 0.147256
vt 0.593150 0.136320
vt 0.607685 0.136320
vt 0.607685 0.147256
vt 0.714623 0.271706
vt 0.714623 0.260967
vt 0.768119 0.260967
vt 0.768119 0.271706
vt 0.694992 0.260967
vt 0.694992 0.271706
vt 0.621859 0.246343
vt 0.621859 0.235605
vt 0.675355 0.235605
vt 0.675355 0.246343
vt 0.465843 0.408222
vt 0.456578 0.420279
vt 0.592274 0.271706
vt 0.592274 0.260967
vt 0.607071 0.260967
vt 0.607071 0.271706
vt 0.714622 0.246344
vt 0.714622 0.235605
vt 0.768119 0.235605
vt 0.768119 0.246344
vt 0.694988 0.235605
vt 0.694988 0.246343
vt 0.622213 0.172816
vt 0.622213 0.161881
vt 0.674753 0.161881
vt 0.674753 0.172816
vt 0.475277 0.381613
vt 0.471924 0.395399
vt 0.592265 0.246343
vt 0.592265 0.235605
vt 0.607060 0.235605
vt 0.607060 0.246343
vt 0.713317 0.172816
vt 0.713317 0.161881
vt 0.765860 0.161881
vt 0.765860 0.172816
vt 0.694036 0.161881
vt 0.694036 0.172816
vt 0.808403 0.196255
vt 0.808403 0.185319
vt 0.860942 0.185319
vt 0.860942 0.196255
vt 0.473065 0.352464
vt 0.475678 0.366414
vt 0.593145 0.172816
vt 0.593145 0.161881
vt 0.607678 0.161881
vt 0.607678 0.172816
vt 0.899502 0.196255
vt 0.899502 0.185319
vt 0.952040 0.185319
vt 0.952040 0.196255
vt 0.880226 0.185319
vt 0.880226 0.196255
vt 0.738522 0.184878
vt 0.738522 0.195617
vt 0.685026 0.195617
vt 0.685026 0.184877
vt 0.459067 0.326807
vt 0.467673 0.339339
vt 0.779335 0.196255
vt 0.779335 0.185319
vt 0.793871 0.185319
vt 0.793871 0.196255
vt 0.645757 0.184877
vt 0.645757 0.195617
vt 0.592259 0.195617
vt 0.592259 0.184877
vt 0.665393 0.195617
vt 0.665393 0.184877
vt 0.738530 0.210241
vt 0.738530 0.220981
vt 0.685029 0.220981
vt 0.685029 0.210241
vt 0.436671 0.309608
vt 0.448751 0.317057
vt 0.768119 0.184877
vt 0.768119 0.195617
vt 0.753319 0.195617
vt 0.753319 0.184877
vt 0.592264 0.210241
vt 0.645761 0.210241
vt 0.645761 0.220981
vt 0.592264 0.220981
vt 0.665390 0.220981
vt 0.665390 0.210241
vt 0.422343 0.304532
vt 0.768119 0.210241
vt 0.768119 0.220981
vt 0.753321 0.220981
vt 0.753321 0.210241
s 1
f 336/1/1 32/2/1 33/3/2 337/4/3
f 337/4/3 33/3/2 34/5/4 338/6/4
f 338/6/4 34/5/4 35/7/5 339/8/5
f 339/8/5 35/7/5 36/9/6 340/10/6
f 340/10/6 36/9/6 37/11/7 341/12/7
f 341/12/7 37/11/7 38/13/8 342/14/9
f 342/14/9 38/13/8 39/15/10 343/16/10
f 343/16/10 39/15/10 40/17/11 344/18/11
f 344/18/11 40/17/11 41/19/12 345/20/12
f 345/20/12 41/19/12 42/21/13 346/22/13
f 346/22/13 42/21/13 43/23/14 347/24/14
f 347/24/14 43/23/14 44/25/15 348/26/15
f 348/26/15 44/25/15 45/27/16 349/28/16
f 349/28/16 45/27/16 46/29/17 350/30/17
f 350/30/17 46/29/17 47/31/18 351/32/18
f 351/32/18 47/31/18 48/33/19 352/34/19
f 352/34/19 48/33/19 49/35/20 353/36/20
f 353/36/20 49/35/20 50/37/21 354/38/21
f 354/38/21 50/37/21 51/39/22 355/40/22
f 355/40/22 51/39/22 52/41/23 356/42/23
f 356/42/23 52/41/23 53/43/24 357/44/24
f 357/45/24 53/46/24 54/47/25 358/48/25
f 358/48/25 54/47/25 55/49/26 359/50/26
f 359/50/26 55/49/26 56/51/27 360/52/27
f 360/52/27 56/51/27 57/53/28 361/54/29
f 361/54/29 57/53/28 58/55/30 362/56/30
f 362/56/30 58/55/30 59/57/31 363/58/31
f 363/58/31 59/57/31 60/59/32 364/60/32
f 60/59/32 31/61/33 335/62/33 364/60/32
f 335/63/34 336/64/35 306/65/35 305/66/34
f 336/64/35 337/67/36 307/68/36 306/65/35
f 337/67/36 338/69/37 308/70/37 307/68/36
f 338/69/37 339/71/38 309/72/38 308/70/37
f 339/71/38 340/73/39 310/74/39 309/72/38
f 340/73/39 341/75/40 311/76/40 310/74/39
f 341/75/40 342/77/41 312/78/41 311/76/40
f 342/77/41 343/79/42 313/80/42 312/78/41
f 343/79/42 344/81/43 314/82/43 313/80/42
f 344/81/43 345/83/44 315/84/44 314/82/43
f 345/83/44 346/85/45 316/86/46 315/84/44
f 346/85/45 347/87/47 317/88/47 316/86/46
f 347/87/47 348/89/48 318/90/49 317/88/47
f 348/89/48 349/91/50 319/92/50 318/90/49
f 349/91/50 350/93/51 320/94/51 319/92/50
f 350/93/51 351/95/52 321/96/52 320/94/51
f 351/95/52 352/97/53 322/98/54 321/96/52
f 352/97/53 353/99/55 323/100/55 322/98/54
f 353/99/55 354/101/56 324/102/56 323/100/55
f 354/101/56 355/103/57 325/104/57 324/102/56
f 355/103/57 356/105/58 326/106/58 325/104/57
f 356/105/58 357/107/59 327/108/59 326/106/58
f 357/109/59 358/110/60 328/111/60 327/112/59
f 358/110/60 359/113/61 329/114/61 328/111/60
f 359/113/61 360/115/62 330/116/62 329/114/61
f 360/115/62 361/117/63 331/118/63 330/116/62
f 361/117/63 362/119/64 332/120/64 331/118/63
f 362/119/64 363/121/65 333/122/65 332/120/64
f 363/121/65 364/123/66 334/124/66 333/122/65
f 364/123/66 335/63/34 305/66/34 334/124/66
f 305/66/67 306/65/68 2/125/68 1/126/69
f 306/65/68 307/68/70 3/127/71 2/125/68
f 307/68/70 308/70/72 4/128/73 3/127/71
f 308/70/72 309/72/74 5/129/74 4/128/73
f 309/72/74 310/74/75 6/130/75 5/129/74
f 310/74/75 311/76/76 7/131/76 6/130/75
f 311/76/76 312/78/77 8/132/78 7/131/76
f 312/78/77 313/80/79 9/133/79 8/132/78
f 313/80/79 314/82/80 10/134/80 9/133/79
f 314/82/80 315/84/81 11/135/81 10/134/80
f 315/84/81 316/86/82 12/136/82 11/135/81
f 316/86/82 317/88/83 13/137/83 12/136/82
f 317/88/83 318/90/84 14/138/85 13/137/83
f 318/90/84 319/92/86 15/139/86 14/138/85
f 319/92/86 320/94/87 16/140/88 15/139/86
f 320/94/87 321/96/89 17/141/89 16/140/88
f 321/96/89 322/98/90 18/142/91 17/141/89
f 322/98/90 323/100/92 19/143/92 18/142/91
f 323/100/92 324/102/93 20/144/94 19/143/92
f 324/102/93 325/104/95 21/145/95 20/144/94
f 325/104/95 326/106/96 22/146/96 21/145/95
f 326/106/96 327/108/97 23/147/97 22/146/96
f 327/112/97 328/111/98 24/148/98 23/149/97
f 328/111/98 329/114/99 25/150/99 24/148/98
f 329/114/99 330/116/100 26/151/100 25/150/99
f 330/116/100 331/118/101 27/152/101 26/151/100
f 331/118/101 332/120/102 28/153/102 27/152/101
f 332/120/102 333/122/103 29/154/103 28/153/102
f 333/122/103 334/124/104 30/155/104 29/154/103
f 334/124/104 305/66/67 1/126/69 30/155/104
f 32/2/105 62/156/105 63/157/106 33/3/106
f 33/3/106 63/157/106 64/158/107 34/5/107
f 34/5/107 64/158/107 65/159/108 35/7/108
f 35/7/108 65/159/108 66/160/109 36/9/109
f 36/9/109 66/160/109 67/161/110 37/11/110
f 37/11/110 67/161/110 68/162/111 38/13/111
f 38/13/111 68/162/111 69/163/112 39/15/112
f 39/15/112 69/163/112 70/164/113 40/17/113
f 40/17/113 70/164/113 71/165/114 41/19/114
f 41/19/114 71/165/114 72/166/115 42/21/115
f 42/21/115 72/166/115 73/167/116 43/23/116
f 43/23/116 73/167/116 74/168/117 44/25/117
f 44/25/117 74/168/117 75/169/118 45/27/118
f 45/27/118 75/169/118 76/170/119 46/29/119
f 46/29/119 76/170/119 77/171/120 47/31/120
f 47/31/120 77/171/120 78/172/121 48/33/121
f 48/33/121 78/172/121 79/173/122 49/35/122
f 49/35/122 79/173/122 80/174/123 50/37/123
f 50/37/123 80/174/123 81/175/124 51/39/124
f 51/39/124 81/175/124 82/176/125 52/41/125
f 52/41/125 82/176/125 83/177/126 53/43/126
f 53/46/126 83/178/126 84/179/127 54/47/127
f 54/47/127 84/179/127 85/180/128 55/49/128
f 55/49/128 85/180/128 86/181/129 56/51/129
f 56/51/129 86/181/129 87/182/130 57/53/130
f 57/53/130 87/182/130 88/183/131 58/55/131
f 58/55/131 88/183/131 89/184/132 59/57/132
f 59/57/132 89/184/132 90/185/133 60/59/133
f 60/59/133 90/185/133 61/186/134 31/61/134
f 61/187/135 193/188/136 194/189/137 62/190/138
f 62/190/138 194/189/137 195/191/139 63/192/140
f 63/192/140 195/191/139 196/193/141 64/194/142
f 64/194/142 196/193/141 197/195/143 65/196/144
f 65/196/144 197/195/143 198/197/145 66/198/146
f 66/198/146 198/197/145 199/199/147 67/200/147
f 67/200/147 199/199/147 200/201/148 68/202/149
f 68/202/149 200/201/148 201/203/150 69/204/151
f 69/204/151 201/203/150 202/205/152 70/206/153
f 70/206/153 202/205/152 203/207/154 71/208/155
f 71/208/155 203/207/154 204/209/156 72/210/157
f 72/210/157 204/209/156 205/211/158 73/212/159
f 73/212/159 205/211/158 206/213/160 74/214/161
f 74/214/161 206/213/160 207/215/162 75/216/163
f 75/216/163 207/215/162 208/217/164 76/218/165
f 76/218/165 208/217/164 209/219/166 77/220/167
f 77/220/167 209/219/166 210/221/168 78/222/169
f 78/222/169 210/221/168 211/223/170 79/224/171
f 79/224/171 211/223/170 182/225/172 80/226/173
f 80/226/173 182/225/172 183/227/174 81/228/175
f 81/228/175 183/227/174 184/229/176 82/230/176
f 82/230/176 184/229/176 185/231/177 83/232/178
f 83/233/178 185/234/177 186/235/179 84/236/180
f 84/236/180 186/235/179 187/237/181 85/238/181
f 85/238/181 187/237/181 188/239/182 86/240/183
f 86/240/183 188/239/182 189/241/184 87/242/185
f 87/242/185 189/241/184 190/243/186 88/244/187
f 88/244/187 190/243/186 191/245/188 89/246/189
f 89/246/189 191/245/188 192/247/190 90/248/191
f 90/248/191 192/247/190 193/188/136 61/187/135
f 214/249/192 271/250/192 270/251/193 212/252/194
f 92/253/195 91/254/196 121/255/197 122/256/198
f 93/257/199 92/253/195 122/256/198 123/258/200
f 94/259/201 93/257/199 123/258/200 124/260/202
f 95/261/203 94/259/201 124/260/202 125/262/204
f 96/263/205 95/261/203 125/262/204 126/264/206
f 97/265/207 96/263/205 126/264/206 127/266/208
f 98/267/209 97/265/207 127/266/208 128/268/210
f 99/269/211 98/267/209 128/268/210 129/270/212
f 100/271/213 99/269/211 129/270/212 130/272/214
f 101/273/215 100/271/213 130/272/214 131/274/216
f 102/275/217 101/273/215 131/274/216 132/276/218
f 103/277/219 102/275/217 132/276/218 133/278/220
f 104/279/221 103/277/219 133/278/220 134/280/222
f 105/281/223 104/279/221 134/280/222 135/282/224
f 106/283/225 105/281/223 135/282/224 136/284/226
f 107/285/227 106/283/225 136/284/226 137/286/228
f 108/287/229 107/285/227 137/286/228 138/288/230
f 109/289/231 108/287/229 138/288/230 139/290/232
f 110/291/233 109/289/231 139/290/232 140/292/234
f 111/293/235 110/291/233 140/292/234 141/294/236
f 112/295/237 111/293/235 141/294/236 142/296/238
f 113/297/239 112/295/237 142/296/238 143/298/240
f 114/299/241 113/300/239 143/301/240 144/302/242
f 115/303/243 114/299/241 144/302/242 145/304/244
f 116/305/245 115/303/243 145/304/244 146/306/246
f 117/307/247 116/305/245 146/306/246 147/308/248
f 118/309/249 117/307/247 147/308/248 148/310/250
f 119/311/251 118/309/249 148/310/250 149/312/252
f 120/313/253 119/311/251 149/312/252 150/314/254
f 91/254/196 120/313/253 150/314/254 121/255/197
f 152/315/255 122/256/198 121/255/197 151/316/256
f 166/317/257 136/284/226 135/282/224 165/318/258
f 162/319/259 132/276/218 131/274/216 161/320/260
f 163/321/261 133/278/220 132/276/218 162/319/259
f 164/322/262 134/280/222 133/278/220 163/321/261
f 164/322/262 165/318/258 135/282/224 134/280/222
f 159/323/263 129/270/212 128/268/210 158/324/264
f 160/325/265 130/272/214 129/270/212 159/323/263
f 160/325/265 161/320/260 131/274/216 130/272/214
f 161/326/266 181/327/266 163/328/266 162/329/266
f 156/330/267 126/264/206 125/262/204 155/331/268
f 157/332/269 127/266/208 126/264/206 156/330/267
f 158/324/264 128/268/210 127/266/208 157/332/269
f 181/327/266 159/333/266 158/334/266 157/335/266
f 181/327/266 161/326/266 160/336/266 159/333/266
f 153/337/270 123/258/200 122/256/198 152/315/255
f 153/337/270 154/338/271 124/260/202 123/258/200
f 154/338/271 155/331/268 125/262/204 124/260/202
f 155/339/266 181/327/266 157/335/266 156/340/266
f 179/341/272 149/312/252 148/310/250 178/342/273
f 179/341/272 180/343/274 150/314/254 149/312/252
f 180/343/274 151/316/256 121/255/197 150/314/254
f 181/327/266 155/339/266 154/344/266 153/345/266
f 163/328/266 181/327/266 165/346/266 164/347/266
f 168/348/275 138/288/230 137/286/228 167/349/276
f 169/350/277 139/290/232 138/288/230 168/348/275
f 170/351/278 140/292/234 139/290/232 169/350/277
f 166/317/257 167/349/276 137/286/228 136/284/226
f 181/327/266 153/345/266 152/352/266 151/353/266
f 181/327/266 167/354/266 166/355/266 165/346/266
f 176/356/279 146/306/246 145/304/244 175/357/280
f 177/358/281 147/308/248 146/306/246 176/356/279
f 178/342/273 148/310/250 147/308/248 177/358/281
f 181/327/266 179/359/266 178/360/266 177/361/266
f 181/327/266 151/353/266 180/362/266 179/359/266
f 181/327/266 169/363/266 168/364/266 167/354/266
f 172/365/282 142/296/238 141/294/236 171/366/283
f 173/367/284 143/298/240 142/296/238 172/365/282
f 170/351/278 171/366/283 141/294/236 140/292/234
f 173/368/284 174/369/285 144/302/242 143/301/240
f 174/369/285 175/357/280 145/304/244 144/302/242
f 181/327/266 171/370/266 170/371/266 169/363/266
f 181/327/266 173/372/266 172/373/266 171/370/266
f 181/327/266 175/374/266 174/375/266 173/372/266
f 181/327/266 177/361/266 176/376/266 175/374/266
f 191/245/188 119/311/251 120/313/253 192/247/190
f 217/377/286 216/378/287 218/379/288 220/380/286
f 216/381/289 217/382/289 113/383/289 185/384/289
f 192/385/290 120/386/290 232/387/290 230/388/290
f 117/389/291 226/390/291 224/391/291 189/392/291
f 235/393/292 234/394/293 236/395/294 238/396/292
f 241/397/295 240/398/296 242/399/297 244/400/295
f 247/401/298 246/402/299 248/403/300 250/404/298
f 253/405/301 252/406/302 254/407/303 256/408/301
f 259/409/304 258/410/305 260/411/306 262/412/304
f 212/413/307 183/414/307 111/415/307 214/416/307
f 223/417/308 222/418/309 224/419/310 226/420/308
f 229/421/311 228/422/312 230/423/313 232/424/311
f 192/385/314 230/388/314 231/425/315 193/426/315
f 116/305/245 117/307/247 189/241/184 188/239/182
f 110/291/233 111/293/235 183/227/174 182/225/172
f 265/427/316 264/428/317 266/429/318 268/430/316
f 209/219/166 107/285/227 108/287/229 210/221/168
f 104/279/221 105/281/223 207/215/162 206/213/160
f 203/207/154 101/273/215 102/275/217 204/209/156
f 98/267/209 99/269/211 201/203/150 200/201/148
f 197/195/143 95/261/203 96/263/205 198/197/145
f 235/431/319 92/432/319 194/433/319 234/434/319
f 228/435/320 229/436/320 119/437/320 191/438/320
f 92/253/195 93/257/199 195/191/139 194/189/137
f 213/439/321 273/440/321 274/441/322 216/442/287
f 218/379/288 275/443/323 276/444/324 219/445/324
f 219/445/324 276/444/324 277/446/325 222/418/309
f 224/419/310 278/447/326 279/448/327 225/449/327
f 225/449/327 279/448/327 280/450/328 228/422/312
f 230/423/313 281/451/329 282/452/330 231/453/330
f 231/453/330 282/452/330 283/454/331 234/394/293
f 236/395/294 284/455/332 285/456/333 237/457/333
f 237/457/333 285/456/333 286/458/334 240/398/296
f 242/399/297 287/459/335 288/460/336 243/461/336
f 243/461/336 288/460/336 289/462/337 246/402/299
f 248/403/300 290/463/338 291/464/339 249/465/340
f 249/465/340 291/464/339 292/466/341 252/406/302
f 254/407/303 293/467/342 294/468/343 255/469/343
f 255/469/343 294/468/343 295/470/344 258/410/305
f 260/411/306 296/471/345 297/472/346 261/473/346
f 261/473/346 297/472/346 298/474/347 264/428/317
f 266/429/318 299/475/348 300/476/349 267/477/350
f 267/477/350 300/476/349 301/478/351 270/251/193
f 222/418/309 277/446/325 278/447/326 224/419/310
f 216/378/287 274/479/322 275/443/323 218/379/288
f 270/251/193 301/478/351 272/480/352 212/252/194
f 264/428/317 298/474/347 299/475/348 266/429/318
f 258/410/305 295/470/344 296/471/345 260/411/306
f 252/406/302 292/466/341 293/467/342 254/407/303
f 246/402/299 289/462/337 290/463/338 248/403/300
f 240/398/296 286/458/334 287/459/335 242/399/297
f 234/394/293 283/454/331 284/455/332 236/395/294
f 228/422/312 280/450/328 281/451/329 230/423/313
f 287/481/266 303/482/266 289/483/266 288/484/266
f 193/426/315 231/425/315 234/434/353 194/433/353
f 92/485/354 235/486/354 233/487/355 91/488/355
f 91/488/355 233/487/355 232/387/356 120/386/356
f 119/489/357 229/490/357 227/491/358 118/492/358
f 185/234/177 113/300/239 114/299/241 186/235/179
f 118/492/358 227/491/358 226/390/359 117/389/359
f 189/392/360 224/391/360 225/493/361 190/494/361
f 190/494/361 225/493/361 228/435/362 191/438/362
f 303/482/266 279/495/266 278/496/266 277/497/266
f 303/482/266 297/498/266 296/499/266 295/500/266
f 303/482/266 285/501/266 284/502/266 283/503/266
f 279/495/266 303/482/266 281/504/266 280/505/266
f 303/482/266 283/503/266 282/506/266 281/504/266
f 303/482/266 287/481/266 286/507/266 285/501/266
f 26/508/363 27/509/363 302/510/363 25/511/363
f 28/512/363 29/513/363 302/510/363 27/509/363
f 303/482/266 293/514/266 292/515/266 291/516/266
f 20/517/363 21/518/363 302/510/363 19/519/363
f 24/520/363 25/511/363 302/510/363 23/521/363
f 303/482/266 291/516/266 290/522/266 289/483/266
f 303/482/266 295/500/266 294/523/266 293/514/266
f 6/524/363 7/525/363 302/510/363 5/526/363
f 18/527/363 19/519/363 302/510/363 17/528/363
f 303/482/266 277/497/266 276/529/266 275/530/266
f 303/482/266 299/531/266 298/532/266 297/498/266
f 14/533/363 15/534/363 302/510/363 13/535/363
f 16/536/363 17/528/363 302/510/363 15/534/363
f 303/482/266 301/537/266 300/538/266 299/531/266
f 10/539/363 11/540/363 302/510/363 9/541/363
f 303/482/266 273/542/266 272/543/266 301/537/266
f 303/482/266 275/530/266 274/544/364 273/542/266
f 22/545/363 23/521/363 302/510/363 21/518/363
f 1/546/363 2/547/363 3/548/363 302/510/363
f 12/549/363 13/535/363 302/510/363 11/540/363
f 30/550/363 1/546/363 302/510/363 29/513/363
f 4/551/363 5/526/363 302/510/363 3/548/363
f 8/552/363 9/541/363 302/510/363 7/525/363
f 214/553/363 215/554/365 304/555/363
f 271/556/363 214/553/363 304/555/363
f 269/557/363 271/556/363 304/555/363
f 268/558/363 269/557/363 304/555/363
f 265/559/363 268/558/363 304/555/363
f 263/560/363 265/559/363 304/555/363
f 262/561/363 263/560/363 304/555/363
f 259/562/363 262/561/363 304/555/363
f 257/563/363 259/562/363 304/555/363
f 256/564/363 257/563/363 304/555/363
f 253/565/363 256/564/363 304/555/363
f 251/566/363 253/565/363 304/555/363
f 250/567/363 251/566/363 304/555/363
f 247/568/363 250/567/363 304/555/363
f 213/569/366 216/381/367 185/384/367 184/570/366
f 186/571/368 114/572/368 220/573/368 218/574/368
f 212/413/369 213/569/366 184/570/366 183/414/369
f 244/575/363 245/576/370 304/555/363
f 215/577/371 214/416/372 111/415/372 112/578/371
f 217/579/373 215/577/371 112/578/371 113/580/373
f 245/576/370 247/568/363 304/555/363
f 188/581/374 222/582/374 223/583/374 116/584/374
f 186/571/375 218/574/375 219/585/376 187/586/376
f 93/587/377 238/588/377 236/589/377 195/590/377
f 187/586/376 219/585/376 222/582/378 188/581/378
f 239/591/363 241/592/365 304/555/363
f 116/593/379 223/594/379 221/595/380 115/596/380
f 115/596/380 221/595/380 220/573/381 114/572/381
f 241/592/365 244/575/363 304/555/363
f 197/597/382 240/598/382 241/599/382 95/600/382
f 195/590/383 236/589/383 237/601/384 196/602/384
f 96/603/385 244/604/385 242/605/385 198/606/385
f 196/602/384 237/601/384 240/598/386 197/597/386
f 235/607/363 238/608/387 304/555/363
f 95/609/388 241/610/388 239/611/389 94/612/389
f 94/612/389 239/611/389 238/588/390 93/587/390
f 238/608/387 239/591/363 304/555/363
f 200/613/391 246/614/391 247/615/391 98/616/391
f 198/606/392 242/605/392 243/617/393 199/618/393
f 99/619/394 250/620/394 248/621/394 201/622/394
f 199/618/393 243/617/393 246/614/395 200/613/395
f 232/623/363 233/624/363 304/555/363
f 98/625/396 247/626/396 245/627/397 97/628/398
f 97/628/398 245/627/397 244/604/399 96/603/399
f 233/624/363 235/607/363 304/555/363
f 203/629/400 252/630/400 253/631/400 101/632/400
f 201/622/401 248/621/401 249/633/402 202/634/402
f 102/635/403 256/636/403 254/637/403 204/638/403
f 202/634/402 249/633/402 252/630/404 203/629/404
f 227/639/363 229/640/363 304/555/363
f 101/641/405 253/642/405 251/643/406 100/644/406
f 100/644/406 251/643/406 250/620/407 99/619/407
f 229/640/363 232/623/363 304/555/363
f 206/645/408 258/646/408 259/647/408 104/648/408
f 204/638/409 254/637/409 255/649/410 205/650/410
f 105/651/411 262/652/411 260/653/411 207/654/411
f 205/650/410 255/649/410 258/646/412 206/645/412
f 223/655/363 226/656/363 304/555/363
f 104/657/413 259/658/413 257/659/414 103/660/414
f 103/660/414 257/659/414 256/636/415 102/635/415
f 226/656/363 227/639/363 304/555/363
f 209/661/416 264/662/416 265/663/416 107/664/416
f 207/654/417 260/653/417 261/665/418 208/666/418
f 108/667/419 268/668/419 266/669/419 210/670/419
f 208/666/418 261/665/418 264/662/420 209/661/420
f 220/671/363 221/672/363 304/555/363
f 107/673/421 265/674/421 263/675/422 106/676/422
f 106/676/422 263/675/422 262/652/423 105/651/423
f 221/672/363 223/655/363 304/555/363
f 110/677/424 182/678/424 270/679/424 271/680/424
f 210/670/425 266/669/425 267/681/426 211/682/426
f 211/682/426 267/681/426 270/679/427 182/678/427
f 215/554/365 217/683/365 304/555/363
f 110/684/428 271/685/428 269/686/429 109/687/429
f 109/687/429 269/686/429 268/668/430 108/667/430
f 217/683/365 220/671/363 304/555/363
f 212/252/194 272/480/352 273/440/321 213/439/321
f 31/61/134 61/186/134 62/156/105 32/2/105
f 335/62/33 31/61/33 32/2/1 336/1/1
