# Blender 4.0.2
# www.blender.org
o fruit_bowl_01
v 0.131918 -0.000000 -0.000000
v 0.127717 0.100051 -0.000000
v 0.129383 -0.000000 0.025736
v 0.125263 0.100051 0.024916
v 0.121877 -0.000000 0.050483
v 0.117995 0.100051 0.048875
v 0.109686 -0.000000 0.073290
v 0.106193 0.100051 0.070956
v 0.093280 -0.000000 0.093280
v 0.090310 0.100051 0.090310
v 0.073290 -0.000000 0.109686
v 0.070956 0.100051 0.106193
v 0.050483 -0.000000 0.121877
v 0.048875 0.100051 0.117995
v 0.025736 -0.000000 0.129383
v 0.024916 0.100051 0.125263
v 0.000000 -0.000000 0.131918
v 0.000000 0.100051 0.127717
v -0.025736 -0.000000 0.129383
v -0.024916 0.100051 0.125263
v -0.050483 -0.000000 0.121877
v -0.048875 0.100051 0.117995
v -0.073290 -0.000000 0.109686
v -0.070956 0.100051 0.106193
v -0.093280 -0.000000 0.093280
v -0.090310 0.100051 0.090310
v -0.109686 -0.000000 0.073290
v -0.106193 0.100051 0.070956
v -0.121877 -0.000000 0.050483
v -0.117995 0.100051 0.048875
v -0.129384 -0.000000 0.025736
v -0.125263 0.100051 0.024916
v -0.131918 -0.000000 -0.000000
v -0.127717 0.100051 -0.000000
v -0.129384 -0.000000 -0.025736
v -0.125263 0.100051 -0.024916
v -0.121877 -0.000000 -0.050483
v -0.117995 0.100051 -0.048875
v -0.109686 -0.000000 -0.073290
v -0.106193 0.100051 -0.070956
v -0.093280 -0.000000 -0.093280
v -0.090310 0.100051 -0.090310
v -0.073290 -0.000000 -0.109686
v -0.070956 0.100051 -0.106193
v -0.050483 -0.000000 -0.121877
v -0.048875 0.100051 -0.117995
v -0.025736 -0.000000 -0.129383
v -0.024916 0.100051 -0.125263
v -0.000000 -0.000000 -0.131918
v -0.000000 0.100051 -0.127717
v 0.025736 -0.000000 -0.129383
v 0.024916 0.100051 -0.125263
v 0.050483 -0.000000 -0.121877
v 0.048875 0.100051 -0.117995
v 0.073290 -0.000000 -0.109686
v 0.070956 0.100051 -0.106193
v 0.093280 -0.000000 -0.093280
v 0.090310 0.100051 -0.090310
v 0.109686 -0.000000 -0.073290
v 0.106193 0.100051 -0.070956
v 0.121877 -0.000000 -0.050483
v 0.117995 0.100051 -0.048875
v 0.129384 -0.000000 -0.025736
v 0.125263 0.100051 -0.024916
v 0.147434 0.029782 -0.000000
v 0.149758 0.052474 -0.000000
v 0.146112 0.076087 -0.000000
v 0.143304 0.076087 0.028505
v 0.146880 0.052474 0.029216
v 0.144602 0.029782 0.028763
v 0.134990 0.076087 0.055915
v 0.138358 0.052474 0.057310
v 0.136212 0.029782 0.056421
v 0.121488 0.076087 0.081175
v 0.124519 0.052474 0.083201
v 0.122587 0.029782 0.081910
v 0.103317 0.076087 0.103317
v 0.105895 0.052474 0.105895
v 0.104252 0.029782 0.104252
v 0.081175 0.076087 0.121488
v 0.083201 0.052474 0.124519
v 0.081910 0.029782 0.122587
v 0.055915 0.076087 0.134990
v 0.057310 0.052474 0.138358
v 0.056421 0.029782 0.136212
v 0.028505 0.076087 0.143304
v 0.029216 0.052474 0.146880
v 0.028763 0.029782 0.144602
v 0.000000 0.076087 0.146112
v 0.000000 0.052474 0.149758
v 0.000000 0.029782 0.147434
v -0.028505 0.076087 0.143304
v -0.029216 0.052474 0.146880
v -0.028763 0.029782 0.144602
v -0.055915 0.076087 0.134990
v -0.057310 0.052474 0.138358
v -0.056421 0.029782 0.136212
v -0.081175 0.076087 0.121488
v -0.083201 0.052474 0.124519
v -0.081910 0.029782 0.122587
v -0.103317 0.076087 0.103317
v -0.105895 0.052474 0.105895
v -0.104252 0.029782 0.104252
v -0.121488 0.076087 0.081175
v -0.124519 0.052474 0.083201
v -0.122587 0.029782 0.081910
v -0.134990 0.076087 0.055915
v -0.138358 0.052474 0.057310
v -0.136212 0.029782 0.056421
v -0.143304 0.076087 0.028505
v -0.146880 0.052474 0.029216
v -0.144602 0.029782 0.028763
v -0.146112 0.076087 -0.000000
v -0.149758 0.052474 -0.000000
v -0.147434 0.029782 -0.000000
v -0.143304 0.076087 -0.028505
v -0.146880 0.052474 -0.029216
v -0.144602 0.029782 -0.028763
v -0.134990 0.076087 -0.055915
v -0.138358 0.052474 -0.057310
v -0.136212 0.029782 -0.056421
v -0.121488 0.076087 -0.081175
v -0.124519 0.052474 -0.083201
v -0.122587 0.029782 -0.081910
v -0.103317 0.076087 -0.103317
v -0.105895 0.052474 -0.105895
v -0.104252 0.029782 -0.104252
v -0.081175 0.076087 -0.121487
v -0.083201 0.052474 -0.124519
v -0.081910 0.029782 -0.122587
v -0.055915 0.076087 -0.134990
v -0.057310 0.052474 -0.138358
v -0.056421 0.029782 -0.136212
v -0.028505 0.076087 -0.143304
v -0.029216 0.052474 -0.146880
v -0.028763 0.029782 -0.144602
v -0.000000 0.076087 -0.146112
v -0.000000 0.052474 -0.149758
v -0.000000 0.029782 -0.147434
v 0.028505 0.076087 -0.143304
v 0.029216 0.052474 -0.146880
v 0.028763 0.029782 -0.144602
v 0.055915 0.076087 -0.134990
v 0.057310 0.052474 -0.138358
v 0.056421 0.029782 -0.136212
v 0.081175 0.076087 -0.121488
v 0.083201 0.052474 -0.124519
v 0.081910 0.029782 -0.122587
v 0.103317 0.076087 -0.103317
v 0.105895 0.052474 -0.105895
v 0.104252 0.029782 -0.104252
v 0.121488 0.076087 -0.081175
v 0.124519 0.052474 -0.083201
v 0.122587 0.029782 -0.081910
v 0.134990 0.076087 -0.055915
v 0.138358 0.052474 -0.057310
v 0.136212 0.029782 -0.056421
v 0.143304 0.076087 -0.028505
v 0.146880 0.052474 -0.029216
v 0.144602 0.029782 -0.028763
v 0.136364 0.093812 -0.000000
v 0.133744 0.093812 0.026603
v 0.125984 0.093812 0.052184
v 0.113383 0.093812 0.075760
v 0.096424 0.093812 0.096424
v 0.075760 0.093812 0.113382
v 0.052184 0.093812 0.125984
v 0.026603 0.093812 0.133744
v 0.000000 0.093812 0.136364
v -0.026603 0.093812 0.133744
v -0.052184 0.093812 0.125984
v -0.075760 0.093812 0.113383
v -0.096424 0.093812 0.096424
v -0.113383 0.093812 0.075760
v -0.125984 0.093812 0.052184
v -0.133744 0.093812 0.026603
v -0.136364 0.093812 -0.000000
v -0.133744 0.093812 -0.026603
v -0.125984 0.093812 -0.052184
v -0.113382 0.093812 -0.075760
v -0.096424 0.093812 -0.096424
v -0.075760 0.093812 -0.113382
v -0.052184 0.093812 -0.125984
v -0.026603 0.093812 -0.133744
v -0.000000 0.093812 -0.136364
v 0.026603 0.093812 -0.133744
v 0.052184 0.093812 -0.125984
v 0.075760 0.093812 -0.113383
v 0.096424 0.093812 -0.096424
v 0.113382 0.093812 -0.075760
v 0.125984 0.093812 -0.052184
v 0.133744 0.093812 -0.026603
v 0.081557 0.030785 0.016223
v 0.124119 0.077020 0.024689
v 0.101968 0.041476 0.020635
v 0.116203 0.056812 0.023114
v 0.126550 0.077020 -0.000000
v 0.083155 0.030785 0.000000
v 0.118480 0.056812 -0.000000
v 0.103962 0.041476 0.000388
v 0.076825 0.030785 0.031822
v 0.116917 0.077020 0.048429
v 0.096062 0.041476 0.040103
v 0.109461 0.056812 0.045340
v 0.069141 0.030785 0.046199
v 0.105223 0.077020 0.070308
v 0.086472 0.041476 0.058045
v 0.098512 0.056812 0.065824
v 0.058800 0.030785 0.058800
v 0.089485 0.077020 0.089485
v 0.073566 0.041476 0.073771
v 0.083778 0.056812 0.083778
v 0.046199 0.030785 0.069141
v 0.070308 0.077020 0.105223
v 0.057840 0.041476 0.086677
v 0.065824 0.056812 0.098512
v 0.031822 0.030785 0.076825
v 0.048429 0.077020 0.116917
v 0.039897 0.041476 0.096268
v 0.045340 0.056812 0.109461
v 0.016223 0.030785 0.081557
v 0.024689 0.077020 0.124119
v 0.020429 0.041476 0.102173
v 0.023114 0.056812 0.116203
v 0.000000 0.030785 0.083155
v 0.000000 0.077020 0.126550
v 0.000183 0.041476 0.104167
v 0.000000 0.056812 0.118480
v -0.016223 0.030785 0.081557
v -0.024689 0.077020 0.124119
v -0.020063 0.041476 0.102173
v -0.023114 0.056812 0.116203
v -0.031822 0.030785 0.076825
v -0.048429 0.077020 0.116917
v -0.039532 0.041476 0.096268
v -0.045340 0.056812 0.109461
v -0.046199 0.030785 0.069141
v -0.070308 0.077020 0.105223
v -0.057474 0.041476 0.086677
v -0.065824 0.056812 0.098512
v -0.058800 0.030785 0.058800
v -0.089485 0.077020 0.089485
v -0.073200 0.041476 0.073771
v -0.083778 0.056812 0.083778
v -0.069141 0.030785 0.046199
v -0.105223 0.077020 0.070308
v -0.086106 0.041476 0.058045
v -0.098512 0.056812 0.065824
v -0.076825 0.030785 0.031822
v -0.116917 0.077020 0.048429
v -0.095697 0.041476 0.040103
v -0.109461 0.056812 0.045340
v -0.081557 0.030785 0.016223
v -0.124119 0.077020 0.024689
v -0.101602 0.041476 0.020635
v -0.116203 0.056812 0.023114
v -0.083155 0.030785 -0.000000
v -0.126550 0.077020 -0.000000
v -0.103596 0.041476 0.000388
v -0.118480 0.056812 -0.000000
v -0.081557 0.030785 -0.016223
v -0.124119 0.077020 -0.024689
v -0.101602 0.041476 -0.019858
v -0.116203 0.056812 -0.023114
v -0.076825 0.030785 -0.031822
v -0.116917 0.077020 -0.048429
v -0.095697 0.041476 -0.039326
v -0.109461 0.056812 -0.045340
v -0.069141 0.030785 -0.046199
v -0.105223 0.077020 -0.070308
v -0.086106 0.041476 -0.057268
v -0.098512 0.056812 -0.065824
v -0.058800 0.030785 -0.058800
v -0.089485 0.077020 -0.089485
v -0.073200 0.041476 -0.072995
v -0.083778 0.056812 -0.083778
v -0.046199 0.030785 -0.069141
v -0.070308 0.077020 -0.105223
v -0.057474 0.041476 -0.085901
v -0.065824 0.056812 -0.098512
v -0.031822 0.030785 -0.076825
v -0.048429 0.077020 -0.116917
v -0.039532 0.041476 -0.095491
v -0.045340 0.056812 -0.109461
v -0.016223 0.030785 -0.081557
v -0.024689 0.077020 -0.124119
v -0.020063 0.041476 -0.101397
v -0.023114 0.056812 -0.116203
v -0.000000 0.030785 -0.083155
v -0.000000 0.077020 -0.126550
v 0.000183 0.041476 -0.103391
v -0.000000 0.056812 -0.118480
v 0.016223 0.030785 -0.081557
v 0.024689 0.077020 -0.124119
v 0.020429 0.041476 -0.101397
v 0.023114 0.056812 -0.116203
v 0.031822 0.030785 -0.076825
v 0.048429 0.077020 -0.116917
v 0.039897 0.041476 -0.095491
v 0.045340 0.056812 -0.109461
v 0.046198 0.030785 -0.069141
v 0.070308 0.077020 -0.105223
v 0.057839 0.041476 -0.085901
v 0.065824 0.056812 -0.098512
v 0.058800 0.030785 -0.058800
v 0.089485 0.077020 -0.089485
v 0.073566 0.041476 -0.072995
v 0.083778 0.056812 -0.083778
v 0.069141 0.030785 -0.046199
v 0.105223 0.077020 -0.070308
v 0.086472 0.041476 -0.057268
v 0.098512 0.056812 -0.065824
v 0.076825 0.030785 -0.031822
v 0.116917 0.077020 -0.048429
v 0.096062 0.041476 -0.039326
v 0.109461 0.056812 -0.045340
v 0.081557 0.030785 -0.016223
v 0.124119 0.077020 -0.024689
v 0.101968 0.041476 -0.019858
v 0.116203 0.056812 -0.023114
v 0.138016 0.011653 0.027453
v 0.130008 0.011653 0.053851
v 0.117004 0.011653 0.078180
v 0.099504 0.011653 0.099504
v 0.078180 0.011653 0.117004
v 0.053851 0.011653 0.130008
v 0.027453 0.011653 0.138016
v 0.000000 0.011653 0.140720
v -0.027453 0.011653 0.138016
v -0.053851 0.011653 0.130008
v -0.078180 0.011653 0.117004
v -0.099504 0.011653 0.099504
v -0.117004 0.011653 0.078180
v -0.130008 0.011653 0.053851
v -0.138016 0.011653 0.027453
v -0.140720 0.011653 -0.000000
v -0.138016 0.011653 -0.027453
v -0.130008 0.011653 -0.053851
v -0.117004 0.011653 -0.078180
v -0.099504 0.011653 -0.099504
v -0.078180 0.011653 -0.117004
v -0.053851 0.011653 -0.130008
v -0.027453 0.011653 -0.138016
v -0.000000 0.011653 -0.140720
v 0.027453 0.011653 -0.138016
v 0.053851 0.011653 -0.130008
v 0.078180 0.011653 -0.117004
v 0.099504 0.011653 -0.099504
v 0.117004 0.011653 -0.078180
v 0.130008 0.011653 -0.053851
v 0.138016 0.011653 -0.027453
v 0.140720 0.011653 -0.000000
v 0.073450 0.030785 -0.014610
v 0.069188 0.030785 -0.028659
v 0.062268 0.030785 -0.041606
v 0.052955 0.030785 -0.052955
v 0.041606 0.030785 -0.062268
v 0.028659 0.030785 -0.069188
v 0.014610 0.030785 -0.073450
v -0.000000 0.030785 -0.074889
v -0.014610 0.030785 -0.073450
v -0.028659 0.030785 -0.069188
v -0.041606 0.030785 -0.062268
v -0.052955 0.030785 -0.052955
v -0.062268 0.030785 -0.041606
v -0.069188 0.030785 -0.028659
v -0.073450 0.030785 -0.014610
v -0.074889 0.030785 -0.000000
v -0.073450 0.030785 0.014610
v -0.069188 0.030785 0.028659
v -0.062268 0.030785 0.041606
v -0.052955 0.030785 0.052955
v -0.041606 0.030785 0.062268
v -0.028659 0.030785 0.069188
v -0.014610 0.030785 0.073450
v 0.000000 0.030785 0.074889
v 0.014610 0.030785 0.073450
v 0.028659 0.030785 0.069188
v 0.041606 0.030785 0.062268
v 0.052955 0.030785 0.052955
v 0.062268 0.030785 0.041606
v 0.069188 0.030785 0.028659
v 0.074889 0.030785 0.000000
v 0.073450 0.030785 0.014610
v 0.077777 -0.000000 0.077777
v 0.084733 -0.000000 0.052089
v 0.089482 -0.000000 0.026272
v 0.091133 -0.000000 -0.000000
v 0.089482 -0.000000 -0.026272
v 0.084733 -0.000000 -0.052089
v 0.077777 -0.000000 -0.077777
v 0.052089 -0.000000 0.084733
v 0.055711 -0.000000 0.055711
v 0.058377 -0.000000 0.027840
v 0.059326 -0.000000 -0.000000
v 0.058377 -0.000000 -0.027840
v 0.055711 -0.000000 -0.055711
v 0.052089 -0.000000 -0.084733
v 0.026272 -0.000000 0.089482
v 0.027840 -0.000000 0.058377
v 0.029041 -0.000000 0.029041
v 0.029475 -0.000000 -0.000000
v 0.029041 -0.000000 -0.029041
v 0.027840 -0.000000 -0.058377
v 0.026272 -0.000000 -0.089482
v 0.000000 -0.000000 0.091133
v 0.000000 -0.000000 0.059326
v -0.000000 -0.000000 0.029475
v -0.000000 -0.000000 -0.000000
v -0.000000 -0.000000 -0.029475
v -0.000000 -0.000000 -0.059326
v -0.000000 -0.000000 -0.091133
v -0.026272 -0.000000 0.089482
v -0.027840 -0.000000 0.058377
v -0.029041 -0.000000 0.029041
v -0.029475 -0.000000 -0.000000
v -0.029041 -0.000000 -0.029041
v -0.027840 -0.000000 -0.058377
v -0.026272 -0.000000 -0.089482
v -0.052089 -0.000000 0.084733
v -0.055711 -0.000000 0.055711
v -0.058377 -0.000000 0.027840
v -0.059326 -0.000000 0.000000
v -0.058377 -0.000000 -0.027840
v -0.055711 -0.000000 -0.055711
v -0.052089 -0.000000 -0.084733
v -0.077777 -0.000000 0.077777
v -0.084733 -0.000000 0.052089
v -0.089482 -0.000000 0.026272
v -0.091133 -0.000000 0.000000
v -0.089482 -0.000000 -0.026272
v -0.084733 -0.000000 -0.052089
v -0.077777 -0.000000 -0.077777
v 0.044154 0.030785 0.044154
v 0.048102 0.030785 0.029571
v 0.050798 0.030785 0.014915
v 0.051735 0.030785 -0.000000
v 0.050798 0.030785 -0.014915
v 0.048102 0.030785 -0.029571
v 0.044154 0.030785 -0.044154
v 0.029571 0.030785 0.048102
v 0.031626 0.030785 0.031626
v 0.033140 0.030785 0.015804
v 0.033679 0.030785 0.000000
v 0.033140 0.030785 -0.015804
v 0.031626 0.030785 -0.031627
v 0.029571 0.030785 -0.048102
v 0.014915 0.030785 0.050798
v 0.015804 0.030785 0.033140
v 0.016486 0.030785 0.016486
v 0.016733 0.030785 0.000000
v 0.016486 0.030785 -0.016486
v 0.015804 0.030785 -0.033140
v 0.014915 0.030785 -0.050798
v 0.000000 0.030785 0.051735
v 0.000000 0.030785 0.033679
v -0.000000 0.030785 0.016733
v -0.000000 0.030785 0.000000
v -0.000000 0.030785 -0.016732
v -0.000000 0.030785 -0.033679
v 0.000000 0.030785 -0.051735
v -0.014915 0.030785 0.050798
v -0.015804 0.030785 0.033140
v -0.016486 0.030785 0.016486
v -0.016733 0.030785 0.000000
v -0.016486 0.030785 -0.016486
v -0.015804 0.030785 -0.033140
v -0.014915 0.030785 -0.050798
v -0.029571 0.030785 0.048102
v -0.031626 0.030785 0.031627
v -0.033140 0.030785 0.015804
v -0.033679 0.030785 0.000000
v -0.033140 0.030785 -0.015804
v -0.031626 0.030785 -0.031626
v -0.029571 0.030785 -0.048102
v -0.044154 0.030785 0.044154
v -0.048102 0.030785 0.029571
v -0.050798 0.030785 0.014915
v -0.051735 0.030785 0.000000
v -0.050798 0.030785 -0.014915
v -0.048102 0.030785 -0.029571
v -0.044154 0.030785 -0.044154
vn 0.7549 0.6558 -0.0000
vn 0.5852 0.8109 -0.0000
vn 0.5739 0.8109 0.1142
vn 0.7404 0.6558 0.1473
vn 0.5406 0.8109 0.2239
vn 0.6974 0.6558 0.2889
vn 0.4866 0.8109 0.3251
vn 0.6277 0.6558 0.4194
vn 0.4138 0.8109 0.4138
vn 0.5338 0.6558 0.5338
vn 0.3251 0.8109 0.4866
vn 0.4194 0.6558 0.6277
vn 0.2239 0.8109 0.5406
vn 0.2889 0.6558 0.6974
vn 0.1142 0.8109 0.5739
vn 0.1473 0.6558 0.7404
vn -0.0000 0.8109 0.5852
vn -0.0000 0.6558 0.7549
vn -0.1142 0.8109 0.5739
vn -0.1473 0.6558 0.7404
vn -0.2239 0.8109 0.5406
vn -0.2889 0.6558 0.6974
vn -0.3251 0.8109 0.4866
vn -0.4194 0.6558 0.6277
vn -0.4138 0.8109 0.4138
vn -0.5338 0.6558 0.5338
vn -0.4866 0.8109 0.3251
vn -0.6277 0.6558 0.4194
vn -0.5406 0.8109 0.2239
vn -0.6974 0.6558 0.2889
vn -0.5739 0.8109 0.1142
vn -0.7404 0.6558 0.1473
vn -0.5852 0.8109 -0.0000
vn -0.7549 0.6558 -0.0000
vn -0.5739 0.8109 -0.1142
vn -0.7404 0.6558 -0.1473
vn -0.5406 0.8109 -0.2239
vn -0.6974 0.6558 -0.2889
vn -0.4866 0.8109 -0.3251
vn -0.6277 0.6558 -0.4194
vn -0.4138 0.8109 -0.4138
vn -0.5338 0.6558 -0.5338
vn -0.3251 0.8109 -0.4866
vn -0.4194 0.6558 -0.6277
vn -0.2239 0.8109 -0.5406
vn -0.2889 0.6558 -0.6974
vn -0.1142 0.8109 -0.5739
vn -0.1473 0.6558 -0.7404
vn -0.0000 0.8109 -0.5852
vn -0.0000 0.6558 -0.7549
vn 0.1142 0.8109 -0.5739
vn 0.1473 0.6558 -0.7404
vn 0.2239 0.8109 -0.5406
vn 0.2889 0.6558 -0.6974
vn 0.3251 0.8109 -0.4866
vn 0.4194 0.6558 -0.6277
vn 0.4138 0.8109 -0.4138
vn 0.5338 0.6558 -0.5338
vn 0.4866 0.8109 -0.3251
vn 0.6277 0.6558 -0.4194
vn 0.5406 0.8109 -0.2239
vn 0.6974 0.6558 -0.2889
vn 0.3822 0.0506 -0.9227
vn 0.1948 0.0506 -0.9795
vn 0.1907 0.2115 -0.9586
vn 0.3740 0.2115 -0.9030
vn 0.5739 0.8109 -0.1142
vn 0.7404 0.6558 -0.1473
vn 0.8624 -0.4763 -0.1715
vn 0.9557 -0.2247 -0.1901
vn 0.9744 -0.2247 -0.0000
vn 0.8793 -0.4763 -0.0000
vn 0.9805 0.0254 -0.1950
vn 0.9997 0.0254 -0.0000
vn 0.9296 0.3189 -0.1849
vn 0.9478 0.3189 -0.0000
vn 0.8123 -0.4763 -0.3365
vn 0.9003 -0.2247 -0.3729
vn 0.9236 0.0254 -0.3826
vn 0.8756 0.3189 -0.3627
vn 0.7311 -0.4763 -0.4885
vn 0.8102 -0.2247 -0.5414
vn 0.8312 0.0254 -0.5554
vn 0.7881 0.3189 -0.5266
vn 0.6217 -0.4763 -0.6217
vn 0.6890 -0.2247 -0.6890
vn 0.7069 0.0254 -0.7069
vn 0.6702 0.3189 -0.6702
vn 0.4885 -0.4763 -0.7311
vn 0.5414 -0.2247 -0.8102
vn 0.5554 0.0254 -0.8312
vn 0.5266 0.3189 -0.7881
vn 0.3365 -0.4763 -0.8123
vn 0.3729 -0.2247 -0.9003
vn 0.3826 0.0254 -0.9236
vn 0.3627 0.3189 -0.8756
vn 0.1715 -0.4763 -0.8624
vn 0.1901 -0.2247 -0.9557
vn 0.1950 0.0254 -0.9805
vn 0.1849 0.3189 -0.9296
vn -0.0000 -0.4763 -0.8793
vn -0.0000 -0.2247 -0.9744
vn -0.0000 0.0254 -0.9997
vn -0.0000 0.3189 -0.9478
vn -0.1715 -0.4763 -0.8624
vn -0.1901 -0.2247 -0.9557
vn -0.1950 0.0254 -0.9805
vn -0.1849 0.3189 -0.9296
vn -0.3365 -0.4763 -0.8123
vn -0.3729 -0.2247 -0.9003
vn -0.3826 0.0254 -0.9236
vn -0.3627 0.3189 -0.8756
vn -0.4885 -0.4763 -0.7311
vn -0.5414 -0.2247 -0.8102
vn -0.5554 0.0254 -0.8312
vn -0.5266 0.3189 -0.7881
vn -0.6217 -0.4763 -0.6217
vn -0.6890 -0.2247 -0.6890
vn -0.7069 0.0254 -0.7069
vn -0.6702 0.3189 -0.6702
vn -0.7311 -0.4763 -0.4885
vn -0.8102 -0.2247 -0.5414
vn -0.8312 0.0254 -0.5554
vn -0.7881 0.3189 -0.5266
vn -0.8123 -0.4763 -0.3365
vn -0.9003 -0.2247 -0.3729
vn -0.9236 0.0254 -0.3826
vn -0.8756 0.3189 -0.3627
vn -0.8624 -0.4763 -0.1715
vn -0.9557 -0.2247 -0.1901
vn -0.9805 0.0254 -0.1950
vn -0.9296 0.3189 -0.1849
vn -0.8793 -0.4763 -0.0000
vn -0.9744 -0.2247 -0.0000
vn -0.9997 0.0254 -0.0000
vn -0.9478 0.3189 -0.0000
vn -0.8624 -0.4763 0.1715
vn -0.9557 -0.2247 0.1901
vn -0.9805 0.0254 0.1950
vn -0.9296 0.3189 0.1849
vn -0.8123 -0.4763 0.3365
vn -0.9003 -0.2247 0.3729
vn -0.9236 0.0254 0.3826
vn -0.8756 0.3189 0.3627
vn -0.7311 -0.4763 0.4885
vn -0.8102 -0.2247 0.5414
vn -0.8312 0.0254 0.5554
vn -0.7881 0.3189 0.5266
vn -0.6217 -0.4763 0.6217
vn -0.6890 -0.2247 0.6890
vn -0.7069 0.0254 0.7069
vn -0.6702 0.3189 0.6702
vn -0.4885 -0.4763 0.7311
vn -0.5414 -0.2247 0.8102
vn -0.5554 0.0254 0.8312
vn -0.5266 0.3189 0.7881
vn -0.3365 -0.4763 0.8123
vn -0.3729 -0.2247 0.9003
vn -0.3826 0.0254 0.9236
vn -0.3627 0.3189 0.8756
vn -0.1715 -0.4763 0.8624
vn -0.1901 -0.2247 0.9557
vn -0.1950 0.0254 0.9805
vn -0.1849 0.3189 0.9296
vn -0.0000 -0.4763 0.8793
vn -0.0000 -0.2247 0.9744
vn -0.0000 0.0254 0.9997
vn -0.0000 0.3189 0.9478
vn 0.1715 -0.4763 0.8624
vn 0.1901 -0.2247 0.9557
vn 0.1950 0.0254 0.9805
vn 0.1849 0.3189 0.9296
vn 0.3365 -0.4763 0.8123
vn 0.3729 -0.2247 0.9003
vn 0.3826 0.0254 0.9236
vn 0.3627 0.3189 0.8756
vn 0.4885 -0.4763 0.7311
vn 0.5414 -0.2247 0.8102
vn 0.5554 0.0254 0.8312
vn 0.5266 0.3189 0.7881
vn 0.6217 -0.4763 0.6217
vn 0.6890 -0.2247 0.6890
vn 0.7069 0.0254 0.7069
vn 0.6702 0.3189 0.6702
vn 0.7311 -0.4763 0.4885
vn 0.8102 -0.2247 0.5414
vn 0.8312 0.0254 0.5554
vn 0.7881 0.3189 0.5266
vn 0.8123 -0.4763 0.3365
vn 0.9003 -0.2247 0.3729
vn 0.9236 0.0254 0.3826
vn 0.8756 0.3189 0.3627
vn 0.8624 -0.4763 0.1715
vn 0.9557 -0.2247 0.1901
vn 0.9805 0.0254 0.1950
vn 0.9296 0.3189 0.1849
vn -0.9227 0.0506 -0.3822
vn -0.9795 0.0506 -0.1948
vn -0.9586 0.2115 -0.1907
vn -0.9030 0.2115 -0.3740
vn 0.8304 0.0506 0.5549
vn 0.9227 0.0506 0.3822
vn 0.9030 0.2115 0.3740
vn 0.8127 0.2115 0.5430
vn -0.7062 0.0506 0.7062
vn -0.5549 0.0506 0.8304
vn -0.5430 0.2115 0.8127
vn -0.6911 0.2115 0.6911
vn -0.3822 0.0506 -0.9227
vn -0.5549 0.0506 -0.8304
vn -0.5430 0.2115 -0.8127
vn -0.3740 0.2115 -0.9030
vn 0.9795 0.0506 -0.1948
vn 0.9227 0.0506 -0.3822
vn 0.9030 0.2115 -0.3740
vn 0.9586 0.2115 -0.1907
vn -0.0000 0.0506 0.9987
vn 0.1948 0.0506 0.9795
vn 0.1907 0.2115 0.9586
vn -0.0000 0.2115 0.9774
vn -0.8304 0.0506 -0.5549
vn -0.8127 0.2115 -0.5430
vn 0.5549 0.0506 -0.8304
vn 0.5430 0.2115 -0.8127
vn 0.7062 0.0506 0.7062
vn 0.6911 0.2115 0.6911
vn -0.8304 0.0506 0.5549
vn -0.8127 0.2115 0.5430
vn -0.1948 0.0506 -0.9795
vn -0.1907 0.2115 -0.9586
vn 0.9987 0.0506 -0.0000
vn 0.9774 0.2115 -0.0000
vn -0.1948 0.0506 0.9795
vn -0.1907 0.2115 0.9586
vn -0.9987 0.0506 -0.0000
vn -0.9795 0.0506 0.1948
vn -0.9586 0.2115 0.1907
vn -0.9774 0.2115 -0.0000
vn 0.7062 0.0506 -0.7062
vn 0.6911 0.2115 -0.6911
vn 0.5549 0.0506 0.8304
vn 0.5430 0.2115 0.8127
vn -0.9227 0.0506 0.3822
vn -0.9030 0.2115 0.3740
vn -0.0000 0.0506 -0.9987
vn -0.0000 0.2115 -0.9774
vn 0.9795 0.0506 0.1948
vn 0.9586 0.2115 0.1907
vn -0.3822 0.0506 0.9227
vn -0.3740 0.2115 0.9030
vn -0.7062 0.0506 -0.7062
vn -0.6911 0.2115 -0.6911
vn 0.8304 0.0506 -0.5549
vn 0.8127 0.2115 -0.5430
vn 0.3822 0.0506 0.9227
vn 0.3740 0.2115 0.9030
vn -0.8458 0.5335 0.0004
vn -0.8302 0.5325 -0.1648
vn -0.6068 0.7948 -0.0007
vn -0.5955 0.7945 -0.1191
vn -0.2489 0.9685 0.0003
vn -0.2434 0.9687 -0.0482
vn -0.7826 0.5316 -0.3239
vn -0.5613 0.7941 -0.2331
vn -0.2288 0.9689 -0.0945
vn -0.7047 0.5309 -0.4706
vn -0.5054 0.7938 -0.3382
vn -0.2055 0.9690 -0.1371
vn -0.5996 0.5304 -0.5993
vn -0.4300 0.7936 -0.4304
vn -0.1745 0.9691 -0.1744
vn -0.4711 0.5301 -0.7050
vn -0.3380 0.7935 -0.5060
vn -0.1370 0.9691 -0.2049
vn -0.3245 0.5300 -0.7834
vn -0.2329 0.7935 -0.5622
vn -0.0943 0.9692 -0.2277
vn -0.1653 0.5302 -0.8316
vn -0.1189 0.7936 -0.5967
vn -0.0480 0.9691 -0.2418
vn 0.0002 0.5306 -0.8476
vn -0.0003 0.7937 -0.6083
vn 0.0001 0.9691 -0.2468
vn 0.1655 0.5312 -0.8309
vn 0.1182 0.7940 -0.5964
vn 0.0484 0.9689 -0.2425
vn 0.3243 0.5320 -0.7822
vn 0.2320 0.7943 -0.5615
vn 0.0951 0.9688 -0.2289
vn 0.4704 0.5330 -0.7033
vn 0.3367 0.7946 -0.5051
vn 0.1383 0.9686 -0.2065
vn 0.5981 0.5340 -0.5975
vn 0.4284 0.7950 -0.4294
vn 0.1765 0.9684 -0.1760
vn 0.7026 0.5352 -0.4690
vn 0.5035 0.7955 -0.3373
vn 0.2081 0.9682 -0.1387
vn 0.7799 0.5363 -0.3226
vn 0.5591 0.7959 -0.2324
vn 0.2319 0.9680 -0.0957
vn 0.8272 0.5375 -0.1641
vn 0.5931 0.7963 -0.1187
vn 0.2470 0.9678 -0.0488
vn 0.8426 0.5385 0.0004
vn 0.6044 0.7967 -0.0007
vn 0.2526 0.9676 0.0003
vn 0.8257 0.5395 0.1646
vn 0.5924 0.7970 0.1172
vn 0.2484 0.9674 0.0497
vn 0.7773 0.5404 0.3223
vn 0.5578 0.7973 0.2305
vn 0.2346 0.9672 0.0974
vn 0.6992 0.5410 0.4674
vn 0.5018 0.7976 0.3348
vn 0.2115 0.9671 0.1415
vn 0.5944 0.5415 0.5946
vn 0.4266 0.7977 0.4262
vn 0.1801 0.9670 0.1803
vn 0.4669 0.5418 0.6989
vn 0.3350 0.7978 0.5012
vn 0.1417 0.9669 0.2121
vn 0.3217 0.5418 0.7765
vn 0.2307 0.7978 0.5570
vn 0.0976 0.9669 0.2357
vn 0.1641 0.5417 0.8244
vn 0.1175 0.7978 0.5914
vn 0.0498 0.9669 0.2501
vn 0.0002 0.5413 0.8408
vn -0.0003 0.7977 0.6031
vn 0.0001 0.9670 0.2547
vn -0.1639 0.5407 0.8251
vn -0.1181 0.7975 0.5917
vn -0.0494 0.9671 0.2494
vn -0.3218 0.5400 0.7777
vn -0.2315 0.7972 0.5576
vn -0.0969 0.9673 0.2345
vn -0.4676 0.5391 0.7005
vn -0.3362 0.7969 0.5020
vn -0.1403 0.9675 0.2105
vn -0.5958 0.5380 0.5963
vn -0.4280 0.7965 0.4270
vn -0.1781 0.9677 0.1785
vn -0.7012 0.5369 0.4690
vn -0.5036 0.7961 0.3356
vn -0.2088 0.9679 0.1399
vn -0.7799 0.5358 0.3235
vn -0.5599 0.7957 0.2311
vn -0.2313 0.9681 0.0962
vn -0.8288 0.5346 0.1653
vn -0.5948 0.7953 0.1176
vn -0.2448 0.9683 0.0490
vn 0.7980 -0.6027 -0.0000
vn 0.7826 -0.6027 0.1557
vn 0.7372 -0.6027 0.3054
vn 0.6635 -0.6027 0.4433
vn 0.5642 -0.6027 0.5642
vn 0.4433 -0.6027 0.6635
vn 0.3054 -0.6027 0.7372
vn 0.1557 -0.6027 0.7826
vn -0.0000 -0.6027 0.7980
vn -0.1557 -0.6027 0.7826
vn -0.3054 -0.6027 0.7372
vn -0.4433 -0.6027 0.6635
vn -0.5642 -0.6027 0.5642
vn -0.6635 -0.6027 0.4433
vn -0.7372 -0.6027 0.3054
vn -0.7826 -0.6027 0.1557
vn -0.7980 -0.6027 -0.0000
vn -0.7826 -0.6027 -0.1557
vn -0.7372 -0.6027 -0.3054
vn -0.6635 -0.6027 -0.4433
vn -0.5642 -0.6027 -0.5642
vn -0.4433 -0.6027 -0.6635
vn -0.3054 -0.6027 -0.7372
vn -0.1557 -0.6027 -0.7826
vn -0.0000 -0.6027 -0.7980
vn 0.1557 -0.6027 -0.7826
vn 0.3054 -0.6027 -0.7372
vn 0.4433 -0.6027 -0.6635
vn 0.5642 -0.6027 -0.5642
vn 0.6635 -0.6027 -0.4433
vn 0.7372 -0.6027 -0.3054
vn 0.7826 -0.6027 -0.1557
vn -0.0000 1.0000 -0.0000
vn -0.0000 -1.0000 -0.0000
vt 0.499523 0.119086
vt 0.499523 0.131100
vt 0.468601 0.131100
vt 0.468601 0.119086
vt 0.437678 0.131100
vt 0.437678 0.119086
vt 0.406756 0.131100
vt 0.406756 0.119086
vt 0.375834 0.131100
vt 0.375834 0.119086
vt 0.344911 0.131100
vt 0.344911 0.119086
vt 0.313989 0.131100
vt 0.313989 0.119086
vt 0.283066 0.131100
vt 0.283066 0.119086
vt 0.252144 0.131100
vt 0.252144 0.119086
vt 0.221222 0.131100
vt 0.221222 0.119086
vt 0.190299 0.131100
vt 0.190299 0.119086
vt 0.159377 0.131100
vt 0.159377 0.119086
vt 0.128454 0.131100
vt 0.128454 0.119086
vt 0.097532 0.131100
vt 0.097532 0.119086
vt 0.066609 0.131100
vt 0.066610 0.119086
vt 0.035687 0.131100
vt 0.035687 0.119086
vt 0.004765 0.131100
vt 0.004765 0.119086
vt 0.994282 0.119086
vt 0.994282 0.131100
vt 0.963360 0.131100
vt 0.963360 0.119086
vt 0.932437 0.131100
vt 0.932437 0.119086
vt 0.901515 0.131100
vt 0.901515 0.119086
vt 0.870592 0.131100
vt 0.870592 0.119086
vt 0.839670 0.131100
vt 0.839670 0.119086
vt 0.808748 0.131100
vt 0.808748 0.119086
vt 0.777825 0.131100
vt 0.777825 0.119086
vt 0.746903 0.131100
vt 0.746903 0.119086
vt 0.715980 0.131100
vt 0.715980 0.119086
vt 0.685058 0.131100
vt 0.685058 0.119086
vt 0.654135 0.131100
vt 0.654135 0.119086
vt 0.623213 0.131100
vt 0.623213 0.119086
vt 0.592291 0.131100
vt 0.592291 0.119086
vt 0.561368 0.131100
vt 0.561368 0.119086
vt 0.153115 0.137492
vt 0.177720 0.137492
vt 0.177720 0.163349
vt 0.153115 0.163349
vt 0.530446 0.131100
vt 0.530446 0.119086
vt 0.530446 0.021893
vt 0.530446 0.043675
vt 0.499523 0.043675
vt 0.499523 0.021893
vt 0.530446 0.069375
vt 0.499523 0.069375
vt 0.530446 0.096295
vt 0.499523 0.096295
vt 0.561368 0.021893
vt 0.561368 0.043675
vt 0.561368 0.069375
vt 0.561368 0.096295
vt 0.592291 0.021893
vt 0.592291 0.043675
vt 0.592291 0.069375
vt 0.592291 0.096295
vt 0.623213 0.021893
vt 0.623213 0.043675
vt 0.623213 0.069375
vt 0.623213 0.096295
vt 0.654136 0.021893
vt 0.654136 0.043675
vt 0.654136 0.069375
vt 0.654136 0.096295
vt 0.685058 0.021893
vt 0.685058 0.043675
vt 0.685058 0.069375
vt 0.685058 0.096295
vt 0.715980 0.021893
vt 0.715980 0.043675
vt 0.715980 0.069375
vt 0.715980 0.096295
vt 0.746903 0.021893
vt 0.746903 0.043675
vt 0.746903 0.069375
vt 0.746903 0.096295
vt 0.777825 0.021893
vt 0.777825 0.043675
vt 0.777825 0.069375
vt 0.777825 0.096295
vt 0.808748 0.021893
vt 0.808748 0.043675
vt 0.808748 0.069375
vt 0.808748 0.096295
vt 0.839670 0.021893
vt 0.839670 0.043675
vt 0.839670 0.069375
vt 0.839670 0.096295
vt 0.870592 0.021893
vt 0.870592 0.043675
vt 0.870592 0.069375
vt 0.870592 0.096295
vt 0.901515 0.021893
vt 0.901515 0.043675
vt 0.901515 0.069375
vt 0.901515 0.096295
vt 0.932437 0.021893
vt 0.932437 0.043675
vt 0.932437 0.069375
vt 0.932437 0.096295
vt 0.963360 0.021893
vt 0.963360 0.043675
vt 0.963360 0.069375
vt 0.963360 0.096295
vt 0.994282 0.021893
vt 0.994282 0.043675
vt 0.994282 0.069375
vt 0.994282 0.096295
vt 0.035687 0.021893
vt 0.035687 0.043675
vt 0.004765 0.043675
vt 0.004765 0.021893
vt 0.035687 0.069375
vt 0.004765 0.069375
vt 0.035687 0.096295
vt 0.004765 0.096295
vt 0.066610 0.021893
vt 0.066610 0.043675
vt 0.066610 0.069375
vt 0.066610 0.096295
vt 0.097532 0.021893
vt 0.097532 0.043675
vt 0.097532 0.069375
vt 0.097532 0.096295
vt 0.128454 0.021893
vt 0.128454 0.043675
vt 0.128454 0.069375
vt 0.128454 0.096295
vt 0.159377 0.021893
vt 0.159377 0.043675
vt 0.159377 0.069375
vt 0.159377 0.096295
vt 0.190299 0.021893
vt 0.190299 0.043675
vt 0.190299 0.069375
vt 0.190299 0.096295
vt 0.221222 0.021893
vt 0.221222 0.043675
vt 0.221222 0.069375
vt 0.221222 0.096295
vt 0.252144 0.021893
vt 0.252144 0.043675
vt 0.252144 0.069375
vt 0.252144 0.096295
vt 0.283066 0.021893
vt 0.283066 0.043675
vt 0.283066 0.069375
vt 0.283066 0.096295
vt 0.313989 0.021893
vt 0.313989 0.043675
vt 0.313989 0.069375
vt 0.313989 0.096295
vt 0.344911 0.021893
vt 0.344911 0.043675
vt 0.344911 0.069375
vt 0.344911 0.096295
vt 0.375834 0.021893
vt 0.375834 0.043675
vt 0.375834 0.069375
vt 0.375834 0.096295
vt 0.406756 0.021893
vt 0.406756 0.043675
vt 0.406756 0.069375
vt 0.406756 0.096295
vt 0.437678 0.021893
vt 0.437679 0.043675
vt 0.437678 0.069375
vt 0.437678 0.096295
vt 0.468601 0.021893
vt 0.468601 0.043675
vt 0.468601 0.069375
vt 0.468601 0.096295
vt 0.349948 0.137492
vt 0.374552 0.137492
vt 0.374552 0.163348
vt 0.349948 0.163348
vt 0.719009 0.137492
vt 0.743613 0.137492
vt 0.743613 0.163348
vt 0.719009 0.163348
vt 0.497573 0.137492
vt 0.522177 0.137492
vt 0.522177 0.163349
vt 0.497573 0.163349
vt 0.251532 0.137492
vt 0.276136 0.137492
vt 0.276136 0.163348
vt 0.251532 0.163348
vt 0.030095 0.137492
vt 0.054699 0.137492
vt 0.054699 0.163348
vt 0.030095 0.163348
vt 0.595989 0.137492
vt 0.620593 0.137492
vt 0.620593 0.163348
vt 0.595989 0.163348
vt 0.325344 0.137492
vt 0.325344 0.163348
vt 0.128511 0.137492
vt 0.128511 0.163349
vt 0.694405 0.137492
vt 0.694405 0.163348
vt 0.472968 0.137492
vt 0.472968 0.163349
vt 0.226928 0.137492
vt 0.226928 0.163348
vt 0.005491 0.137492
vt 0.005491 0.163348
vt 0.571385 0.137492
vt 0.571385 0.163348
vt 0.399156 0.137492
vt 0.423760 0.137492
vt 0.423760 0.163348
vt 0.399156 0.163348
vt 0.103907 0.137492
vt 0.103907 0.163349
vt 0.669801 0.137492
vt 0.669801 0.163348
vt 0.448364 0.137492
vt 0.448364 0.163349
vt 0.202324 0.137492
vt 0.202324 0.163349
vt 0.768217 0.137492
vt 0.792821 0.137492
vt 0.792821 0.163348
vt 0.768218 0.163348
vt 0.546781 0.137492
vt 0.546781 0.163349
vt 0.300740 0.137492
vt 0.300740 0.163348
vt 0.079303 0.137492
vt 0.079303 0.163348
vt 0.645197 0.137492
vt 0.645197 0.163348
vt 0.399156 0.187748
vt 0.374552 0.187748
vt 0.399156 0.211563
vt 0.374552 0.211563
vt 0.399156 0.237623
vt 0.374552 0.237623
vt 0.349948 0.187748
vt 0.349948 0.211563
vt 0.349948 0.237623
vt 0.325344 0.187748
vt 0.325344 0.211563
vt 0.325344 0.237623
vt 0.300740 0.187748
vt 0.300740 0.211563
vt 0.300740 0.237623
vt 0.276136 0.187748
vt 0.276136 0.211563
vt 0.276136 0.237623
vt 0.251532 0.187748
vt 0.251532 0.211563
vt 0.251532 0.237623
vt 0.226928 0.187748
vt 0.226928 0.211563
vt 0.226928 0.237623
vt 0.202324 0.187748
vt 0.202324 0.211563
vt 0.202324 0.237623
vt 0.177720 0.187748
vt 0.177720 0.211563
vt 0.177720 0.237623
vt 0.153115 0.187748
vt 0.153115 0.211563
vt 0.153115 0.237623
vt 0.128511 0.187748
vt 0.128511 0.211563
vt 0.128511 0.237623
vt 0.103907 0.187748
vt 0.103907 0.211563
vt 0.103907 0.237623
vt 0.079303 0.187748
vt 0.079303 0.211563
vt 0.079303 0.237623
vt 0.054699 0.187747
vt 0.054699 0.211563
vt 0.054699 0.237623
vt 0.030095 0.187748
vt 0.030095 0.211563
vt 0.030095 0.237623
vt 0.005491 0.187748
vt 0.005491 0.211563
vt 0.005491 0.237623
vt 0.792821 0.187748
vt 0.768218 0.187748
vt 0.792821 0.211563
vt 0.768217 0.211563
vt 0.792821 0.237623
vt 0.768218 0.237623
vt 0.743613 0.187748
vt 0.743613 0.211563
vt 0.743613 0.237623
vt 0.719009 0.187748
vt 0.719009 0.211563
vt 0.719009 0.237623
vt 0.694405 0.187748
vt 0.694405 0.211563
vt 0.694405 0.237623
vt 0.669801 0.187748
vt 0.669801 0.211563
vt 0.669801 0.237623
vt 0.645197 0.187748
vt 0.645197 0.211563
vt 0.645197 0.237623
vt 0.620593 0.187748
vt 0.620593 0.211563
vt 0.620593 0.237623
vt 0.595989 0.187748
vt 0.595989 0.211563
vt 0.595989 0.237623
vt 0.571385 0.187748
vt 0.571385 0.211563
vt 0.571385 0.237623
vt 0.546781 0.187748
vt 0.546781 0.211563
vt 0.546781 0.237623
vt 0.522177 0.187748
vt 0.522177 0.211563
vt 0.522177 0.237623
vt 0.497573 0.187748
vt 0.497573 0.211563
vt 0.497573 0.237623
vt 0.472968 0.187748
vt 0.472968 0.211563
vt 0.472968 0.237623
vt 0.448364 0.187748
vt 0.448364 0.211563
vt 0.448364 0.237623
vt 0.423760 0.187748
vt 0.423760 0.211563
vt 0.423760 0.237623
vt 0.499523 0.005440
vt 0.468601 0.005440
vt 0.437679 0.005440
vt 0.406756 0.005440
vt 0.375834 0.005440
vt 0.344911 0.005440
vt 0.313989 0.005440
vt 0.283066 0.005440
vt 0.252144 0.005440
vt 0.221222 0.005440
vt 0.190299 0.005440
vt 0.159377 0.005440
vt 0.128454 0.005440
vt 0.097532 0.005440
vt 0.066609 0.005440
vt 0.035687 0.005440
vt 0.004765 0.005440
vt 0.994282 0.005440
vt 0.963360 0.005440
vt 0.932437 0.005440
vt 0.901515 0.005440
vt 0.870592 0.005440
vt 0.839670 0.005440
vt 0.808748 0.005440
vt 0.777825 0.005440
vt 0.746903 0.005440
vt 0.715980 0.005440
vt 0.685058 0.005440
vt 0.654136 0.005440
vt 0.623213 0.005440
vt 0.592291 0.005440
vt 0.561368 0.005440
vt 0.530446 0.005440
vt 0.321282 0.288168
vt 0.332810 0.274122
vt 0.339325 0.280637
vt 0.328944 0.293287
vt 0.346856 0.262594
vt 0.362882 0.254028
vt 0.366408 0.262541
vt 0.351975 0.270256
vt 0.380270 0.248754
vt 0.398353 0.246973
vt 0.398353 0.256187
vt 0.382068 0.257791
vt 0.483990 0.375137
vt 0.475424 0.391162
vt 0.467763 0.386043
vt 0.475477 0.371611
vt 0.416437 0.248754
vt 0.433825 0.254029
vt 0.430299 0.262541
vt 0.414639 0.257791
vt 0.463897 0.405209
vt 0.449850 0.416736
vt 0.444731 0.409075
vt 0.457381 0.398693
vt 0.449850 0.262594
vt 0.463897 0.274122
vt 0.457381 0.280637
vt 0.444731 0.270256
vt 0.433825 0.425302
vt 0.416437 0.430577
vt 0.414639 0.421539
vt 0.430299 0.416789
vt 0.475424 0.288168
vt 0.483990 0.304193
vt 0.475477 0.307719
vt 0.467763 0.293287
vt 0.398353 0.432357
vt 0.380270 0.430576
vt 0.382067 0.421539
vt 0.398353 0.423143
vt 0.489265 0.321582
vt 0.491046 0.339665
vt 0.481831 0.339665
vt 0.480228 0.323379
vt 0.362881 0.425302
vt 0.346856 0.416736
vt 0.351975 0.409075
vt 0.366407 0.416789
vt 0.489265 0.357749
vt 0.480227 0.355951
vt 0.332810 0.405209
vt 0.321282 0.391162
vt 0.328944 0.386043
vt 0.339325 0.398693
vt 0.312717 0.375137
vt 0.307442 0.357748
vt 0.316479 0.355951
vt 0.321229 0.371611
vt 0.305661 0.339665
vt 0.307442 0.321582
vt 0.316479 0.323379
vt 0.314875 0.339665
vt 0.312717 0.304193
vt 0.321229 0.307719
vt 0.048796 0.494972
vt 0.030509 0.472689
vt 0.066077 0.477691
vt 0.071079 0.513259
vt 0.016920 0.447266
vt 0.058324 0.449057
vt 0.008552 0.419681
vt 0.053030 0.420279
vt 0.005727 0.390993
vt 0.051190 0.390993
vt 0.008552 0.362306
vt 0.053030 0.361708
vt 0.016920 0.334721
vt 0.058324 0.332930
vt 0.030509 0.309298
vt 0.066077 0.304296
vt 0.048796 0.287015
vt 0.071079 0.268728
vt 0.094711 0.485444
vt 0.096502 0.526848
vt 0.090674 0.453093
vt 0.087703 0.422026
vt 0.086644 0.390993
vt 0.087702 0.359961
vt 0.090674 0.328893
vt 0.094711 0.296543
vt 0.096502 0.255139
vt 0.123489 0.490737
vt 0.124087 0.535215
vt 0.121742 0.456065
vt 0.120403 0.423365
vt 0.119919 0.390993
vt 0.120403 0.358622
vt 0.121742 0.325921
vt 0.123489 0.291249
vt 0.124087 0.246771
vt 0.152774 0.492577
vt 0.152774 0.538041
vt 0.152774 0.457124
vt 0.152774 0.423848
vt 0.152774 0.390993
vt 0.152774 0.358138
vt 0.152774 0.324863
vt 0.152774 0.289409
vt 0.152774 0.243946
vt 0.182060 0.490737
vt 0.181462 0.535215
vt 0.183807 0.456065
vt 0.185146 0.423365
vt 0.185629 0.390993
vt 0.185146 0.358622
vt 0.183807 0.325922
vt 0.182060 0.291249
vt 0.181462 0.246771
vt 0.210837 0.485444
vt 0.209047 0.526848
vt 0.214874 0.453093
vt 0.217846 0.422026
vt 0.218905 0.390993
vt 0.217846 0.359961
vt 0.214874 0.328893
vt 0.210837 0.296543
vt 0.209047 0.255139
vt 0.239471 0.477690
vt 0.234470 0.513259
vt 0.247224 0.449057
vt 0.252518 0.420279
vt 0.254358 0.390993
vt 0.252518 0.361708
vt 0.247224 0.332930
vt 0.239471 0.304296
vt 0.234470 0.268728
vt 0.275040 0.472688
vt 0.256753 0.494972
vt 0.288628 0.447266
vt 0.296996 0.419681
vt 0.299822 0.390993
vt 0.296996 0.362306
vt 0.288628 0.334721
vt 0.275040 0.309298
vt 0.256753 0.287015
vt 0.447571 0.290447
vt 0.431315 0.286046
vt 0.414978 0.283041
vt 0.398353 0.281996
vt 0.381728 0.283041
vt 0.365391 0.286046
vt 0.349136 0.290447
vt 0.451972 0.306703
vt 0.433607 0.304411
vt 0.415970 0.302724
vt 0.398353 0.302123
vt 0.380736 0.302724
vt 0.363099 0.304411
vt 0.344734 0.306703
vt 0.454977 0.323040
vt 0.435294 0.322048
vt 0.416730 0.321288
vt 0.398353 0.321014
vt 0.379976 0.321288
vt 0.361412 0.322048
vt 0.341729 0.323040
vt 0.456022 0.339665
vt 0.435895 0.339665
vt 0.417005 0.339665
vt 0.398353 0.339665
vt 0.379702 0.339665
vt 0.360811 0.339665
vt 0.340684 0.339665
vt 0.454977 0.356290
vt 0.435294 0.357282
vt 0.416730 0.358042
vt 0.398353 0.358317
vt 0.379976 0.358042
vt 0.361412 0.357282
vt 0.341729 0.356290
vt 0.451972 0.372627
vt 0.433607 0.374919
vt 0.415970 0.376606
vt 0.398353 0.377207
vt 0.380736 0.376606
vt 0.363099 0.374919
vt 0.344734 0.372627
vt 0.447571 0.388883
vt 0.431315 0.393284
vt 0.414978 0.396289
vt 0.398353 0.397334
vt 0.381728 0.396289
vt 0.365391 0.393284
vt 0.349136 0.388883
s 1
f 161/1/1 2/2/2 4/3/3 162/4/4
f 162/4/4 4/3/3 6/5/5 163/6/6
f 163/6/6 6/5/5 8/7/7 164/8/8
f 164/8/8 8/7/7 10/9/9 165/10/10
f 165/10/10 10/9/9 12/11/11 166/12/12
f 166/12/12 12/11/11 14/13/13 167/14/14
f 167/14/14 14/13/13 16/15/15 168/16/16
f 168/16/16 16/15/15 18/17/17 169/18/18
f 169/18/18 18/17/17 20/19/19 170/20/20
f 170/20/20 20/19/19 22/21/21 171/22/22
f 171/22/22 22/21/21 24/23/23 172/24/24
f 172/24/24 24/23/23 26/25/25 173/26/26
f 173/26/26 26/25/25 28/27/27 174/28/28
f 174/28/28 28/27/27 30/29/29 175/30/30
f 175/30/30 30/29/29 32/31/31 176/32/32
f 176/32/32 32/31/31 34/33/33 177/34/34
f 177/35/34 34/36/33 36/37/35 178/38/36
f 178/38/36 36/37/35 38/39/37 179/40/38
f 179/40/38 38/39/37 40/41/39 180/42/40
f 180/42/40 40/41/39 42/43/41 181/44/42
f 181/44/42 42/43/41 44/45/43 182/46/44
f 182/46/44 44/45/43 46/47/45 183/48/46
f 183/48/46 46/47/45 48/49/47 184/50/48
f 184/50/48 48/49/47 50/51/49 185/52/50
f 185/52/50 50/51/49 52/53/51 186/54/52
f 186/54/52 52/53/51 54/55/53 187/56/54
f 187/56/54 54/55/53 56/57/55 188/58/56
f 188/58/56 56/57/55 58/59/57 189/60/58
f 189/60/58 58/59/57 60/61/59 190/62/60
f 190/62/60 60/61/59 62/63/61 191/64/62
f 22/65/63 20/66/64 230/67/65 234/68/66
f 191/64/62 62/63/61 64/69/67 192/70/68
f 192/70/68 64/69/67 2/2/2 161/1/1
f 351/71/69 160/72/70 65/73/71 352/74/72
f 160/72/70 159/75/73 66/76/74 65/73/71
f 159/75/73 158/77/75 67/78/76 66/76/74
f 350/79/77 157/80/78 160/72/70 351/71/69
f 157/80/78 156/81/79 159/75/73 160/72/70
f 156/81/79 155/82/80 158/77/75 159/75/73
f 349/83/81 154/84/82 157/80/78 350/79/77
f 154/84/82 153/85/83 156/81/79 157/80/78
f 153/85/83 152/86/84 155/82/80 156/81/79
f 348/87/85 151/88/86 154/84/82 349/83/81
f 151/88/86 150/89/87 153/85/83 154/84/82
f 150/89/87 149/90/88 152/86/84 153/85/83
f 347/91/89 148/92/90 151/88/86 348/87/85
f 148/92/90 147/93/91 150/89/87 151/88/86
f 147/93/91 146/94/92 149/90/88 150/89/87
f 346/95/93 145/96/94 148/92/90 347/91/89
f 145/96/94 144/97/95 147/93/91 148/92/90
f 144/97/95 143/98/96 146/94/92 147/93/91
f 345/99/97 142/100/98 145/96/94 346/95/93
f 142/100/98 141/101/99 144/97/95 145/96/94
f 141/101/99 140/102/100 143/98/96 144/97/95
f 344/103/101 139/104/102 142/100/98 345/99/97
f 139/104/102 138/105/103 141/101/99 142/100/98
f 138/105/103 137/106/104 140/102/100 141/101/99
f 343/107/105 136/108/106 139/104/102 344/103/101
f 136/108/106 135/109/107 138/105/103 139/104/102
f 135/109/107 134/110/108 137/106/104 138/105/103
f 342/111/109 133/112/110 136/108/106 343/107/105
f 133/112/110 132/113/111 135/109/107 136/108/106
f 132/113/111 131/114/112 134/110/108 135/109/107
f 341/115/113 130/116/114 133/112/110 342/111/109
f 130/116/114 129/117/115 132/113/111 133/112/110
f 129/117/115 128/118/116 131/114/112 132/113/111
f 340/119/117 127/120/118 130/116/114 341/115/113
f 127/120/118 126/121/119 129/117/115 130/116/114
f 126/121/119 125/122/120 128/118/116 129/117/115
f 339/123/121 124/124/122 127/120/118 340/119/117
f 124/124/122 123/125/123 126/121/119 127/120/118
f 123/125/123 122/126/124 125/122/120 126/121/119
f 338/127/125 121/128/126 124/124/122 339/123/121
f 121/128/126 120/129/127 123/125/123 124/124/122
f 120/129/127 119/130/128 122/126/124 123/125/123
f 337/131/129 118/132/130 121/128/126 338/127/125
f 118/132/130 117/133/131 120/129/127 121/128/126
f 117/133/131 116/134/132 119/130/128 120/129/127
f 336/135/133 115/136/134 118/132/130 337/131/129
f 115/136/134 114/137/135 117/133/131 118/132/130
f 114/137/135 113/138/136 116/134/132 117/133/131
f 335/139/137 112/140/138 115/141/134 336/142/133
f 112/140/138 111/143/139 114/144/135 115/141/134
f 111/143/139 110/145/140 113/146/136 114/144/135
f 334/147/141 109/148/142 112/140/138 335/139/137
f 109/148/142 108/149/143 111/143/139 112/140/138
f 108/149/143 107/150/144 110/145/140 111/143/139
f 333/151/145 106/152/146 109/148/142 334/147/141
f 106/152/146 105/153/147 108/149/143 109/148/142
f 105/153/147 104/154/148 107/150/144 108/149/143
f 332/155/149 103/156/150 106/152/146 333/151/145
f 103/156/150 102/157/151 105/153/147 106/152/146
f 102/157/151 101/158/152 104/154/148 105/153/147
f 331/159/153 100/160/154 103/156/150 332/155/149
f 100/160/154 99/161/155 102/157/151 103/156/150
f 99/161/155 98/162/156 101/158/152 102/157/151
f 330/163/157 97/164/158 100/160/154 331/159/153
f 97/164/158 96/165/159 99/161/155 100/160/154
f 96/165/159 95/166/160 98/162/156 99/161/155
f 329/167/161 94/168/162 97/164/158 330/163/157
f 94/168/162 93/169/163 96/165/159 97/164/158
f 93/169/163 92/170/164 95/166/160 96/165/159
f 328/171/165 91/172/166 94/168/162 329/167/161
f 91/172/166 90/173/167 93/169/163 94/168/162
f 90/173/167 89/174/168 92/170/164 93/169/163
f 327/175/169 88/176/170 91/172/166 328/171/165
f 88/176/170 87/177/171 90/173/167 91/172/166
f 87/177/171 86/178/172 89/174/168 90/173/167
f 326/179/173 85/180/174 88/176/170 327/175/169
f 85/180/174 84/181/175 87/177/171 88/176/170
f 84/181/175 83/182/176 86/178/172 87/177/171
f 325/183/177 82/184/178 85/180/174 326/179/173
f 82/184/178 81/185/179 84/181/175 85/180/174
f 81/185/179 80/186/180 83/182/176 84/181/175
f 324/187/181 79/188/182 82/184/178 325/183/177
f 79/188/182 78/189/183 81/185/179 82/184/178
f 78/189/183 77/190/184 80/186/180 81/185/179
f 323/191/185 76/192/186 79/188/182 324/187/181
f 76/192/186 75/193/187 78/189/183 79/188/182
f 75/193/187 74/194/188 77/190/184 78/189/183
f 322/195/189 73/196/190 76/192/186 323/191/185
f 73/196/190 72/197/191 75/193/187 76/192/186
f 72/197/191 71/198/192 74/194/188 75/193/187
f 321/199/193 70/200/194 73/196/190 322/195/189
f 70/200/194 69/201/195 72/197/191 73/196/190
f 69/201/195 68/202/196 71/198/192 72/197/191
f 352/74/72 65/73/71 70/200/194 321/199/193
f 65/73/71 66/76/74 69/201/195 70/200/194
f 66/76/74 67/78/76 68/202/196 69/201/195
f 158/77/75 192/70/68 161/1/1 67/78/76
f 155/82/80 191/64/62 192/70/68 158/77/75
f 152/86/84 190/62/60 191/64/62 155/82/80
f 149/90/88 189/60/58 190/62/60 152/86/84
f 146/94/92 188/58/56 189/60/58 149/90/88
f 143/98/96 187/56/54 188/58/56 146/94/92
f 140/102/100 186/54/52 187/56/54 143/98/96
f 137/106/104 185/52/50 186/54/52 140/102/100
f 134/110/108 184/50/48 185/52/50 137/106/104
f 131/114/112 183/48/46 184/50/48 134/110/108
f 128/118/116 182/46/44 183/48/46 131/114/112
f 125/122/120 181/44/42 182/46/44 128/118/116
f 122/126/124 180/42/40 181/44/42 125/122/120
f 119/130/128 179/40/38 180/42/40 122/126/124
f 116/134/132 178/38/36 179/40/38 119/130/128
f 113/138/136 177/35/34 178/38/36 116/134/132
f 110/145/140 176/32/32 177/34/34 113/146/136
f 107/150/144 175/30/30 176/32/32 110/145/140
f 104/154/148 174/28/28 175/30/30 107/150/144
f 101/158/152 173/26/26 174/28/28 104/154/148
f 98/162/156 172/24/24 173/26/26 101/158/152
f 95/166/160 171/22/22 172/24/24 98/162/156
f 92/170/164 170/20/20 171/22/22 95/166/160
f 89/174/168 169/18/18 170/20/20 92/170/164
f 86/178/172 168/16/16 169/18/18 89/174/168
f 83/182/176 167/14/14 168/16/16 86/178/172
f 80/186/180 166/12/12 167/14/14 83/182/176
f 77/190/184 165/10/10 166/12/12 80/186/180
f 74/194/188 164/8/8 165/10/10 77/190/184
f 71/198/192 163/6/6 164/8/8 74/194/188
f 68/202/196 162/4/4 163/6/6 71/198/192
f 67/78/76 161/1/1 162/4/4 68/202/196
f 6/203/197 4/204/198 194/205/199 202/206/200
f 40/207/201 38/208/202 266/209/203 270/210/204
f 58/211/205 56/212/206 302/213/207 306/214/208
f 14/215/209 12/216/210 214/217/211 218/218/212
f 32/219/213 30/220/214 250/221/215 254/222/216
f 50/223/217 48/224/218 286/225/219 290/226/220
f 8/227/221 6/203/197 202/206/200 206/228/222
f 24/229/223 22/65/63 234/68/66 238/230/224
f 42/231/225 40/207/201 270/210/204 274/232/226
f 60/233/227 58/211/205 306/214/208 310/234/228
f 16/235/229 14/215/209 218/218/212 222/236/230
f 34/237/231 32/219/213 254/222/216 258/238/232
f 52/239/233 50/223/217 290/226/220 294/240/234
f 2/241/235 64/242/236 318/243/237 197/244/238
f 26/245/239 24/229/223 238/230/224 242/246/240
f 44/247/241 42/231/225 274/232/226 278/248/242
f 62/249/243 60/233/227 310/234/228 314/250/244
f 18/251/245 16/235/229 222/236/230 226/252/246
f 36/253/247 34/254/231 258/255/232 262/256/248
f 54/257/249 52/239/233 294/240/234 298/258/250
f 10/259/251 8/227/221 206/228/222 210/260/252
f 28/261/253 26/245/239 242/246/240 246/262/254
f 46/263/255 44/247/241 278/248/242 282/264/256
f 64/242/236 62/249/243 314/250/244 318/243/237
f 20/66/64 18/251/245 226/252/246 230/67/65
f 38/208/202 36/253/247 262/256/248 266/209/203
f 56/212/206 54/257/249 298/258/250 302/213/207
f 12/216/210 10/259/251 210/260/252 214/217/211
f 30/220/214 28/261/253 246/262/254 250/221/215
f 48/224/218 46/263/255 282/264/256 286/225/219
f 194/205/199 197/244/238 199/265/257 196/266/258
f 196/266/258 199/265/257 200/267/259 195/268/260
f 195/268/260 200/267/259 198/269/261 193/270/262
f 202/206/200 194/205/199 196/266/258 204/271/263
f 204/271/263 196/266/258 195/268/260 203/272/264
f 203/272/264 195/268/260 193/270/262 201/273/265
f 206/228/222 202/206/200 204/271/263 208/274/266
f 208/274/266 204/271/263 203/272/264 207/275/267
f 207/275/267 203/272/264 201/273/265 205/276/268
f 210/260/252 206/228/222 208/274/266 212/277/269
f 212/277/269 208/274/266 207/275/267 211/278/270
f 211/278/270 207/275/267 205/276/268 209/279/271
f 214/217/211 210/260/252 212/277/269 216/280/272
f 216/280/272 212/277/269 211/278/270 215/281/273
f 215/281/273 211/278/270 209/279/271 213/282/274
f 218/218/212 214/217/211 216/280/272 220/283/275
f 220/283/275 216/280/272 215/281/273 219/284/276
f 219/284/276 215/281/273 213/282/274 217/285/277
f 222/236/230 218/218/212 220/283/275 224/286/278
f 224/286/278 220/283/275 219/284/276 223/287/279
f 223/287/279 219/284/276 217/285/277 221/288/280
f 226/252/246 222/236/230 224/286/278 228/289/281
f 228/289/281 224/286/278 223/287/279 227/290/282
f 227/290/282 223/287/279 221/288/280 225/291/283
f 230/67/65 226/252/246 228/289/281 232/292/284
f 232/292/284 228/289/281 227/290/282 231/293/285
f 231/293/285 227/290/282 225/291/283 229/294/286
f 234/68/66 230/67/65 232/292/284 236/295/287
f 236/295/287 232/292/284 231/293/285 235/296/288
f 235/296/288 231/293/285 229/294/286 233/297/289
f 238/230/224 234/68/66 236/295/287 240/298/290
f 240/298/290 236/295/287 235/296/288 239/299/291
f 239/299/291 235/296/288 233/297/289 237/300/292
f 242/246/240 238/230/224 240/298/290 244/301/293
f 244/301/293 240/298/290 239/299/291 243/302/294
f 243/302/294 239/299/291 237/300/292 241/303/295
f 246/262/254 242/246/240 244/301/293 248/304/296
f 248/304/296 244/301/293 243/302/294 247/305/297
f 247/305/297 243/302/294 241/303/295 245/306/298
f 250/221/215 246/262/254 248/304/296 252/307/299
f 252/307/299 248/304/296 247/305/297 251/308/300
f 251/308/300 247/305/297 245/306/298 249/309/301
f 254/222/216 250/221/215 252/307/299 256/310/302
f 256/310/302 252/307/299 251/308/300 255/311/303
f 255/311/303 251/308/300 249/309/301 253/312/304
f 258/238/232 254/222/216 256/310/302 260/313/305
f 260/313/305 256/310/302 255/311/303 259/314/306
f 259/314/306 255/311/303 253/312/304 257/315/307
f 262/256/248 258/255/232 260/316/305 264/317/308
f 264/317/308 260/316/305 259/318/306 263/319/309
f 263/319/309 259/318/306 257/320/307 261/321/310
f 266/209/203 262/256/248 264/317/308 268/322/311
f 268/322/311 264/317/308 263/319/309 267/323/312
f 267/323/312 263/319/309 261/321/310 265/324/313
f 270/210/204 266/209/203 268/322/311 272/325/314
f 272/325/314 268/322/311 267/323/312 271/326/315
f 271/326/315 267/323/312 265/324/313 269/327/316
f 274/232/226 270/210/204 272/325/314 276/328/317
f 276/328/317 272/325/314 271/326/315 275/329/318
f 275/329/318 271/326/315 269/327/316 273/330/319
f 278/248/242 274/232/226 276/328/317 280/331/320
f 280/331/320 276/328/317 275/329/318 279/332/321
f 279/332/321 275/329/318 273/330/319 277/333/322
f 282/264/256 278/248/242 280/331/320 284/334/323
f 284/334/323 280/331/320 279/332/321 283/335/324
f 283/335/324 279/332/321 277/333/322 281/336/325
f 286/225/219 282/264/256 284/334/323 288/337/326
f 288/337/326 284/334/323 283/335/324 287/338/327
f 287/338/327 283/335/324 281/336/325 285/339/328
f 290/226/220 286/225/219 288/337/326 292/340/329
f 292/340/329 288/337/326 287/338/327 291/341/330
f 291/341/330 287/338/327 285/339/328 289/342/331
f 294/240/234 290/226/220 292/340/329 296/343/332
f 296/343/332 292/340/329 291/341/330 295/344/333
f 295/344/333 291/341/330 289/342/331 293/345/334
f 298/258/250 294/240/234 296/343/332 300/346/335
f 300/346/335 296/343/332 295/344/333 299/347/336
f 299/347/336 295/344/333 293/345/334 297/348/337
f 302/213/207 298/258/250 300/346/335 304/349/338
f 304/349/338 300/346/335 299/347/336 303/350/339
f 303/350/339 299/347/336 297/348/337 301/351/340
f 306/214/208 302/213/207 304/349/338 308/352/341
f 308/352/341 304/349/338 303/350/339 307/353/342
f 307/353/342 303/350/339 301/351/340 305/354/343
f 310/234/228 306/214/208 308/352/341 312/355/344
f 312/355/344 308/352/341 307/353/342 311/356/345
f 311/356/345 307/353/342 305/354/343 309/357/346
f 314/250/244 310/234/228 312/355/344 316/358/347
f 316/358/347 312/355/344 311/356/345 315/359/348
f 315/359/348 311/356/345 309/357/346 313/360/349
f 318/243/237 314/250/244 316/358/347 320/361/350
f 320/361/350 316/358/347 315/359/348 319/362/351
f 319/362/351 315/359/348 313/360/349 317/363/352
f 197/244/238 318/243/237 320/361/350 199/265/257
f 199/265/257 320/361/350 319/362/351 200/267/259
f 200/267/259 319/362/351 317/363/352 198/269/261
f 4/204/198 2/241/235 197/244/238 194/205/199
f 1/364/353 352/74/72 321/199/193 3/365/354
f 3/365/354 321/199/193 322/195/189 5/366/355
f 5/366/355 322/195/189 323/191/185 7/367/356
f 7/367/356 323/191/185 324/187/181 9/368/357
f 9/368/357 324/187/181 325/183/177 11/369/358
f 11/369/358 325/183/177 326/179/173 13/370/359
f 13/370/359 326/179/173 327/175/169 15/371/360
f 15/371/360 327/175/169 328/171/165 17/372/361
f 17/372/361 328/171/165 329/167/161 19/373/362
f 19/373/362 329/167/161 330/163/157 21/374/363
f 21/374/363 330/163/157 331/159/153 23/375/364
f 23/375/364 331/159/153 332/155/149 25/376/365
f 25/376/365 332/155/149 333/151/145 27/377/366
f 27/377/366 333/151/145 334/147/141 29/378/367
f 29/378/367 334/147/141 335/139/137 31/379/368
f 31/379/368 335/139/137 336/142/133 33/380/369
f 33/381/369 336/135/133 337/131/129 35/382/370
f 35/382/370 337/131/129 338/127/125 37/383/371
f 37/383/371 338/127/125 339/123/121 39/384/372
f 39/384/372 339/123/121 340/119/117 41/385/373
f 41/385/373 340/119/117 341/115/113 43/386/374
f 43/386/374 341/115/113 342/111/109 45/387/375
f 45/387/375 342/111/109 343/107/105 47/388/376
f 47/388/376 343/107/105 344/103/101 49/389/377
f 49/389/377 344/103/101 345/99/97 51/390/378
f 51/390/378 345/99/97 346/95/93 53/391/379
f 53/391/379 346/95/93 347/91/89 55/392/380
f 55/392/380 347/91/89 348/87/85 57/393/381
f 57/393/381 348/87/85 349/83/81 59/394/382
f 59/394/382 349/83/81 350/79/77 61/395/383
f 61/395/383 350/79/77 351/71/69 63/396/384
f 63/396/384 351/71/69 352/74/72 1/364/353
f 245/397/298 241/398/295 372/399/385 371/400/385
f 237/401/292 233/402/289 374/403/385 373/404/385
f 229/405/286 225/406/283 376/407/385 375/408/385
f 313/409/349 309/410/346 355/411/385 354/412/385
f 221/413/280 217/414/277 378/415/385 377/416/385
f 305/417/343 301/418/340 357/419/385 356/420/385
f 213/421/274 209/422/271 380/423/385 379/424/385
f 297/425/337 293/426/334 359/427/385 358/428/385
f 205/429/268 201/430/265 382/431/385 381/432/385
f 289/433/331 285/434/328 361/435/385 360/436/385
f 193/437/262 198/438/261 383/439/385 384/440/385
f 281/441/325 277/442/322 363/443/385 362/444/385
f 198/438/261 317/445/352 353/446/385 383/439/385
f 273/447/319 269/448/316 365/449/385 364/450/385
f 265/451/313 261/452/310 367/453/385 366/454/385
f 257/455/307 253/456/304 369/457/385 368/458/385
f 249/459/301 245/397/298 371/400/385 370/460/385
f 241/398/295 237/401/292 373/404/385 372/399/385
f 233/402/289 229/405/286 375/408/385 374/403/385
f 317/445/352 313/409/349 354/412/385 353/446/385
f 225/406/283 221/413/280 377/416/385 376/407/385
f 309/410/346 305/417/343 356/420/385 355/411/385
f 217/414/277 213/421/274 379/424/385 378/415/385
f 301/418/340 297/425/337 358/428/385 357/419/385
f 209/422/271 205/429/268 381/432/385 380/423/385
f 293/426/334 289/433/331 360/436/385 359/427/385
f 201/430/265 193/437/262 384/440/385 382/431/385
f 285/434/328 281/441/325 362/444/385 361/435/385
f 277/442/322 273/447/319 364/450/385 363/443/385
f 269/448/316 265/451/313 366/454/385 365/449/385
f 261/452/310 257/455/307 368/458/385 367/453/385
f 253/456/304 249/459/301 370/460/385 369/457/385
f 9/461/386 11/462/386 385/463/386 7/464/386
f 11/462/386 13/465/386 392/466/386 385/463/386
f 13/465/386 15/467/386 399/468/386 392/466/386
f 15/467/386 17/469/386 406/470/386 399/468/386
f 17/469/386 19/471/386 413/472/386 406/470/386
f 19/471/386 21/473/386 420/474/386 413/472/386
f 21/473/386 23/475/386 427/476/386 420/474/386
f 23/475/386 25/477/386 27/478/386 427/476/386
f 7/464/386 385/463/386 386/479/386 5/480/386
f 385/463/386 392/466/386 393/481/386 386/479/386
f 392/466/386 399/468/386 400/482/386 393/481/386
f 399/468/386 406/470/386 407/483/386 400/482/386
f 406/470/386 413/472/386 414/484/386 407/483/386
f 413/472/386 420/474/386 421/485/386 414/484/386
f 420/474/386 427/476/386 428/486/386 421/485/386
f 427/476/386 27/478/386 29/487/386 428/486/386
f 5/480/386 386/479/386 387/488/386 3/489/386
f 386/479/386 393/481/386 394/490/386 387/488/386
f 393/481/386 400/482/386 401/491/386 394/490/386
f 400/482/386 407/483/386 408/492/386 401/491/386
f 407/483/386 414/484/386 415/493/386 408/492/386
f 414/484/386 421/485/386 422/494/386 415/493/386
f 421/485/386 428/486/386 429/495/386 422/494/386
f 428/486/386 29/487/386 31/496/386 429/495/386
f 3/489/386 387/488/386 388/497/386 1/498/386
f 387/488/386 394/490/386 395/499/386 388/497/386
f 394/490/386 401/491/386 402/500/386 395/499/386
f 401/491/386 408/492/386 409/501/386 402/500/386
f 408/492/386 415/493/386 416/502/386 409/501/386
f 415/493/386 422/494/386 423/503/386 416/502/386
f 422/494/386 429/495/386 430/504/386 423/503/386
f 429/495/386 31/496/386 33/505/386 430/504/386
f 1/498/386 388/497/386 389/506/386 63/507/386
f 388/497/386 395/499/386 396/508/386 389/506/386
f 395/499/386 402/500/386 403/509/386 396/508/386
f 402/500/386 409/501/386 410/510/386 403/509/386
f 409/501/386 416/502/386 417/511/386 410/510/386
f 416/502/386 423/503/386 424/512/386 417/511/386
f 423/503/386 430/504/386 431/513/386 424/512/386
f 430/504/386 33/505/386 35/514/386 431/513/386
f 63/507/386 389/506/386 390/515/386 61/516/386
f 389/506/386 396/508/386 397/517/386 390/515/386
f 396/508/386 403/509/386 404/518/386 397/517/386
f 403/509/386 410/510/386 411/519/386 404/518/386
f 410/510/386 417/511/386 418/520/386 411/519/386
f 417/511/386 424/512/386 425/521/386 418/520/386
f 424/512/386 431/513/386 432/522/386 425/521/386
f 431/513/386 35/514/386 37/523/386 432/522/386
f 61/516/386 390/515/386 391/524/386 59/525/386
f 390/515/386 397/517/386 398/526/386 391/524/386
f 397/517/386 404/518/386 405/527/386 398/526/386
f 404/518/386 411/519/386 412/528/386 405/527/386
f 411/519/386 418/520/386 419/529/386 412/528/386
f 418/520/386 425/521/386 426/530/386 419/529/386
f 425/521/386 432/522/386 433/531/386 426/530/386
f 432/522/386 37/523/386 39/532/386 433/531/386
f 59/525/386 391/524/386 55/533/386 57/534/386
f 391/524/386 398/526/386 53/535/386 55/533/386
f 398/526/386 405/527/386 51/536/386 53/535/386
f 405/527/386 412/528/386 49/537/386 51/536/386
f 412/528/386 419/529/386 47/538/386 49/537/386
f 419/529/386 426/530/386 45/539/386 47/538/386
f 426/530/386 433/531/386 43/540/386 45/539/386
f 433/531/386 39/532/386 41/541/386 43/540/386
f 381/432/385 434/542/385 379/424/385 380/423/385
f 434/542/385 441/543/385 378/415/385 379/424/385
f 441/543/385 448/544/385 377/416/385 378/415/385
f 448/544/385 455/545/385 376/407/385 377/416/385
f 455/545/385 462/546/385 375/408/385 376/407/385
f 462/546/385 469/547/385 374/403/385 375/408/385
f 469/547/385 476/548/385 373/404/385 374/403/385
f 476/548/385 371/400/385 372/399/385 373/404/385
f 382/431/385 435/549/385 434/542/385 381/432/385
f 435/549/385 442/550/385 441/543/385 434/542/385
f 442/550/385 449/551/385 448/544/385 441/543/385
f 449/551/385 456/552/385 455/545/385 448/544/385
f 456/552/385 463/553/385 462/546/385 455/545/385
f 463/553/385 470/554/385 469/547/385 462/546/385
f 470/554/385 477/555/385 476/548/385 469/547/385
f 477/555/385 370/460/385 371/400/385 476/548/385
f 384/440/385 436/556/385 435/549/385 382/431/385
f 436/556/385 443/557/385 442/550/385 435/549/385
f 443/557/385 450/558/385 449/551/385 442/550/385
f 450/558/385 457/559/385 456/552/385 449/551/385
f 457/559/385 464/560/385 463/553/385 456/552/385
f 464/560/385 471/561/385 470/554/385 463/553/385
f 471/561/385 478/562/385 477/555/385 470/554/385
f 478/562/385 369/457/385 370/460/385 477/555/385
f 383/439/385 437/563/385 436/556/385 384/440/385
f 437/563/385 444/564/385 443/557/385 436/556/385
f 444/564/385 451/565/385 450/558/385 443/557/385
f 451/565/385 458/566/385 457/559/385 450/558/385
f 458/566/385 465/567/385 464/560/385 457/559/385
f 465/567/385 472/568/385 471/561/385 464/560/385
f 472/568/385 479/569/385 478/562/385 471/561/385
f 479/569/385 368/458/385 369/457/385 478/562/385
f 353/446/385 438/570/385 437/563/385 383/439/385
f 438/570/385 445/571/385 444/564/385 437/563/385
f 445/571/385 452/572/385 451/565/385 444/564/385
f 452/572/385 459/573/385 458/566/385 451/565/385
f 459/573/385 466/574/385 465/567/385 458/566/385
f 466/574/385 473/575/385 472/568/385 465/567/385
f 473/575/385 480/576/385 479/569/385 472/568/385
f 480/576/385 367/453/385 368/458/385 479/569/385
f 354/412/385 439/577/385 438/570/385 353/446/385
f 439/577/385 446/578/385 445/571/385 438/570/385
f 446/578/385 453/579/385 452/572/385 445/571/385
f 453/579/385 460/580/385 459/573/385 452/572/385
f 460/580/385 467/581/385 466/574/385 459/573/385
f 467/581/385 474/582/385 473/575/385 466/574/385
f 474/582/385 481/583/385 480/576/385 473/575/385
f 481/583/385 366/454/385 367/453/385 480/576/385
f 355/411/385 440/584/385 439/577/385 354/412/385
f 440/584/385 447/585/385 446/578/385 439/577/385
f 447/585/385 454/586/385 453/579/385 446/578/385
f 454/586/385 461/587/385 460/580/385 453/579/385
f 461/587/385 468/588/385 467/581/385 460/580/385
f 468/588/385 475/589/385 474/582/385 467/581/385
f 475/589/385 482/590/385 481/583/385 474/582/385
f 482/590/385 365/449/385 366/454/385 481/583/385
f 356/420/385 357/419/385 440/584/385 355/411/385
f 357/419/385 358/428/385 447/585/385 440/584/385
f 358/428/385 359/427/385 454/586/385 447/585/385
f 359/427/385 360/436/385 461/587/385 454/586/385
f 360/436/385 361/435/385 468/588/385 461/587/385
f 361/435/385 362/444/385 475/589/385 468/588/385
f 362/444/385 363/443/385 482/590/385 475/589/385
f 363/443/385 364/450/385 365/449/385 482/590/385
