# Blender 4.0.2
# www.blender.org
o broom
v -0.060689 0.057605 -0.009438
v -0.012859 0.057705 -0.004892
v -0.000000 0.070472 -0.012897
v -0.060689 0.055118 -0.002819
v -0.005397 0.060686 -0.012587
v -0.060689 0.052366 0.003662
v 0.060689 0.057605 -0.009438
v -0.060689 0.048526 0.011256
v 0.012859 0.057705 -0.004892
v -0.060689 0.044812 0.017856
v 0.060689 0.055118 -0.002819
v 0.005397 0.060686 -0.012587
v 0.060689 0.052366 0.003662
v 0.060689 0.048526 0.011256
v 0.060689 0.044812 0.017856
v -0.000000 0.050417 0.014218
v -0.079267 0.042049 0.008220
v -0.074893 0.038928 0.014007
v -0.068360 0.036449 0.017693
v -0.009688 0.051941 0.010212
v -0.060267 0.035443 0.019001
v 0.079267 0.042049 0.008220
v 0.074893 0.038928 0.014007
v -0.013827 0.055657 0.000455
v 0.068360 0.036449 0.017693
v 0.009688 0.051941 0.010212
v -0.009912 0.059476 -0.009480
v 0.060267 0.035443 0.019001
v -0.000000 0.070474 0.013003
v 0.013827 0.055657 0.000455
v -0.004955 0.070474 0.012017
v 0.009912 0.059476 -0.009480
v 0.004955 0.070474 0.012017
v -0.009156 0.070474 0.009210
v 0.009156 0.070474 0.009210
v 0.011963 0.070474 0.005010
v 0.060267 0.052574 -0.017737
v -0.011963 0.070474 0.005010
v -0.060267 0.052574 -0.017737
v -0.068360 0.052218 -0.016125
v 0.068360 0.052218 -0.016125
v -0.074893 0.050988 -0.011857
v -0.012950 0.070473 0.000054
v -0.079267 0.048561 -0.005746
v -0.005231 0.050812 0.013178
v -0.080800 0.045516 0.001335
v -0.011964 0.070473 -0.004902
v 0.074893 0.050988 -0.011857
v -0.012707 0.053637 0.005752
v -0.009157 0.070472 -0.009103
v 0.012950 0.070473 0.000054
v -0.000000 0.061117 -0.013689
v 0.079267 0.048561 -0.005746
v -0.004956 0.070472 -0.011911
v -0.011892 0.056555 0.005101
v -0.004901 0.054240 0.012007
v 0.005231 0.050812 0.013178
v 0.080800 0.045516 0.001335
v 0.011964 0.070473 -0.004902
v 0.012707 0.053637 0.005752
v -0.060692 0.036860 0.024190
v -0.011978 0.059874 -0.004767
v -0.060388 0.041384 0.023097
v -0.009204 0.061303 -0.008992
v -0.012915 0.058207 0.000181
v -0.060602 0.039303 0.024392
v -0.070020 0.038014 0.022679
v -0.009075 0.055164 0.009249
v -0.068837 0.042300 0.021633
v -0.000000 0.053916 0.012973
v -0.069672 0.040392 0.022898
v 0.009157 0.070472 -0.009103
v -0.077924 0.041141 0.018310
v -0.075707 0.044883 0.017782
v -0.077274 0.043357 0.018678
v -0.004997 0.062268 -0.011838
v -0.080394 0.048340 0.011686
v -0.000000 0.062609 -0.012843
v -0.083207 0.045123 0.011442
v -0.082383 0.047184 0.012035
v 0.004956 0.070472 -0.011911
v 0.011892 0.056555 0.005101
v 0.004901 0.054240 0.012007
v 0.060692 0.036860 0.024190
v 0.011978 0.059874 -0.004767
v 0.060388 0.041384 0.023097
v 0.009204 0.061303 -0.008992
v -0.060692 0.057460 -0.019988
v -0.060388 0.059531 -0.015819
v -0.000000 0.070472 0.000578
v -0.060602 0.059185 -0.018245
v -0.085062 0.049359 0.003127
v -0.082026 0.052059 0.004386
v -0.084173 0.051268 0.004017
v -0.070020 0.057057 -0.018128
v -0.068837 0.058998 -0.014176
v -0.069672 0.058744 -0.016449
v -0.077925 0.055700 -0.012931
v -0.075707 0.057708 -0.009722
v -0.077274 0.057412 -0.011467
v -0.083208 0.053000 -0.005465
v -0.080394 0.055261 -0.003155
v -0.082383 0.054783 -0.004266
v 0.012915 0.058207 0.000181
v 0.060602 0.039303 0.024392
v 0.070020 0.038014 0.022679
v 0.009075 0.055164 0.009249
v 0.068837 0.042300 0.021633
v 0.069672 0.040392 0.022898
v 0.077924 0.041141 0.018310
v 0.075707 0.044883 0.017782
v 0.077274 0.043357 0.018678
v 0.004997 0.062268 -0.011838
v -0.006004 0.059091 -0.014248
v 0.080394 0.048340 0.011686
v -0.000000 0.059472 -0.015621
v -0.000000 0.046486 0.015836
v -0.005821 0.047164 0.014602
v 0.083207 0.045123 0.011442
v -0.010683 0.048859 0.011200
v 0.082383 0.047184 0.012035
v -0.013846 0.051262 0.006214
v 0.060692 0.057460 -0.019988
v 0.060388 0.059531 -0.015819
v -0.015022 0.053716 0.000426
v -0.013998 0.056053 -0.005426
v 0.060602 0.059185 -0.018245
v 0.085062 0.049359 0.003127
v -0.010907 0.057887 -0.010601
v 0.082026 0.052059 0.004386
v 0.084173 0.051268 0.004017
v -0.000000 0.041384 0.023097
v -0.000000 0.036860 0.024191
v -0.000000 0.059443 -0.016435
v -0.000000 0.039303 0.024392
v -0.000000 0.059185 -0.018245
v -0.000000 0.035453 0.019009
v -0.000000 0.052587 -0.017734
v -0.000000 0.057460 -0.019987
v -0.006203 0.052587 -0.017734
v -0.006172 0.059531 -0.015819
v -0.006194 0.059185 -0.018245
v -0.006203 0.057460 -0.019988
v -0.013826 0.052587 -0.017734
v -0.013758 0.059531 -0.015819
v -0.013806 0.059185 -0.018245
v -0.013827 0.057460 -0.019988
v 0.070020 0.057057 -0.018128
v 0.068837 0.058998 -0.014176
v 0.069672 0.058744 -0.016449
v 0.077925 0.055700 -0.012931
v 0.075707 0.057708 -0.009722
v 0.077274 0.057412 -0.011467
v 0.083208 0.053000 -0.005465
v 0.080394 0.055261 -0.003155
v 0.082383 0.054783 -0.004266
v -0.021784 0.057624 -0.009491
v -0.021767 0.055472 -0.003748
v -0.021784 0.052587 -0.017734
v -0.020741 0.049034 0.009973
v -0.018141 0.044879 0.017304
v -0.014404 0.041384 0.023097
v -0.014404 0.036860 0.024191
v -0.021784 0.059531 -0.015819
v -0.014404 0.039303 0.024392
v -0.021784 0.059185 -0.018245
v -0.014404 0.035453 0.019009
v -0.021784 0.057460 -0.019988
v -0.021620 0.052787 0.002428
v 0.006004 0.059091 -0.014248
v 0.005821 0.047164 0.014602
v 0.010683 0.048859 0.011200
v 0.013846 0.051262 0.006214
v 0.015022 0.053716 0.000426
v 0.013998 0.056053 -0.005426
v 0.010907 0.057887 -0.010601
v 0.006203 0.052587 -0.017734
v 0.006172 0.059531 -0.015819
v 0.006194 0.059185 -0.018245
v 0.006203 0.057460 -0.019988
v 0.013826 0.052587 -0.017734
v 0.013758 0.059531 -0.015819
v 0.013806 0.059185 -0.018245
v 0.013827 0.057460 -0.019988
v 0.021784 0.057624 -0.009491
v 0.021767 0.055472 -0.003748
v 0.021784 0.052587 -0.017734
v 0.020741 0.049034 0.009973
v 0.018141 0.044879 0.017304
v -0.070016 0.034156 0.020883
v -0.060689 0.032990 0.022387
v 0.014404 0.041384 0.023097
v -0.070016 0.053189 -0.019933
v -0.077923 0.051844 -0.014730
v -0.083207 0.049137 -0.007268
v -0.085062 0.045489 0.001323
v 0.014404 0.036860 0.024191
v 0.021784 0.059531 -0.015819
v -0.083207 0.041254 0.009639
v -0.077923 0.037277 0.016509
v 0.014404 0.039303 0.024392
v 0.021784 0.059185 -0.018245
v 0.014404 0.035453 0.019009
v -0.021784 0.053591 -0.021792
v -0.060689 0.053591 -0.021792
v 0.021784 0.057460 -0.019988
v -0.000000 0.032990 0.022387
v -0.000000 0.053591 -0.021792
v -0.006203 0.053591 -0.021792
v -0.013826 0.053591 -0.021792
v -0.014404 0.032990 0.022387
v 0.021620 0.052787 0.002428
v 0.070016 0.034156 0.020883
v 0.060689 0.032990 0.022387
v 0.070016 0.053189 -0.019933
v 0.077923 0.051844 -0.014730
v 0.083207 0.049137 -0.007268
v 0.085062 0.045489 0.001323
v 0.083207 0.041254 0.009639
v 0.077923 0.037277 0.016509
v 0.021784 0.053591 -0.021792
v 0.060689 0.053591 -0.021792
v 0.006203 0.053591 -0.021792
v 0.013826 0.053591 -0.021792
v 0.014404 0.032990 0.022387
v 0.010309 0.070472 -0.004216
v 0.006790 1.154335 -0.002758
v 0.007890 0.070472 -0.007836
v 0.005197 1.154335 -0.005142
v 0.004270 0.070472 -0.010255
v 0.002812 1.154335 -0.006735
v 0.011159 0.070472 0.000054
v 0.007349 1.154335 0.000054
v 0.010309 0.070472 0.004324
v 0.006790 1.154335 0.002867
v 0.007890 0.070472 0.007945
v 0.005197 1.154335 0.005251
v 0.004270 0.070472 0.010364
v 0.002812 1.154335 0.006844
v -0.000000 0.070472 0.011213
v -0.000000 1.154335 0.007404
v -0.004270 0.070472 0.010364
v -0.002812 1.154335 0.006844
v -0.007890 0.070472 0.007945
v -0.005197 1.154335 0.005251
v -0.010309 0.070472 0.004324
v -0.006790 1.154335 0.002867
v -0.011159 0.070472 0.000054
v -0.007349 1.154335 0.000054
v -0.000000 0.070472 -0.011104
v -0.000000 1.154335 -0.007295
v -0.004270 0.070472 -0.010255
v -0.002812 1.154335 -0.006735
v -0.007890 0.070472 -0.007836
v -0.005197 1.154335 -0.005142
v -0.010309 0.070472 -0.004216
v -0.006790 1.154335 -0.002758
v 0.011159 1.084891 0.000054
v 0.010309 1.084891 0.004325
v 0.007890 1.084891 0.007945
v 0.004270 1.084891 0.010364
v -0.000000 1.084891 0.011213
v -0.004270 1.084891 0.010364
v -0.007890 1.084891 0.007945
v -0.010309 1.084891 0.004325
v -0.011159 1.084891 0.000054
v 0.010309 1.084891 -0.004216
v 0.007890 1.084891 -0.007836
v 0.004270 1.084891 -0.010255
v -0.000000 1.084891 -0.011104
v -0.004270 1.084891 -0.010255
v -0.007890 1.084891 -0.007836
v 0.012500 1.085406 0.000054
v 0.011548 1.085406 0.004838
v 0.008839 1.085406 0.008893
v 0.004784 1.085406 0.011603
v -0.000000 1.085406 0.012554
v -0.004784 1.085406 0.011603
v -0.008839 1.085406 0.008893
v -0.011548 1.085406 0.004838
v -0.012500 1.085406 0.000054
v -0.010309 1.084891 -0.004216
v 0.011548 1.085406 -0.004729
v 0.008839 1.085406 -0.008784
v 0.004784 1.085406 -0.011494
v -0.000000 1.085406 -0.012446
v -0.004784 1.085406 -0.011494
v -0.008839 1.085406 -0.008784
v -0.011548 1.085406 -0.004729
v 0.008823 1.153150 -0.003600
v 0.009550 1.153150 0.000054
v 0.012500 1.148306 0.000054
v 0.011636 1.151073 0.000054
v 0.008823 1.153150 0.003709
v 0.011548 1.148306 0.004838
v 0.010750 1.151073 0.004507
v 0.006753 1.153150 0.006807
v 0.008839 1.148306 0.008893
v 0.008228 1.151073 0.008282
v 0.003655 1.153150 0.008877
v 0.004784 1.148306 0.011603
v 0.004453 1.151073 0.010804
v -0.000000 1.153150 0.009604
v -0.000000 1.148306 0.012554
v -0.000000 1.151073 0.011690
v -0.003655 1.153150 0.008877
v -0.004784 1.148306 0.011603
v -0.004453 1.151073 0.010804
v -0.006753 1.153150 0.006807
v -0.008839 1.148306 0.008893
v -0.008228 1.151073 0.008282
v -0.008823 1.153150 0.003709
v -0.011548 1.148306 0.004838
v -0.010750 1.151073 0.004507
v -0.009550 1.153150 0.000054
v -0.012500 1.148306 0.000054
v -0.011636 1.151073 0.000054
v 0.011548 1.148306 -0.004729
v 0.010750 1.151073 -0.004399
v 0.006753 1.153150 -0.006698
v 0.008839 1.148306 -0.008785
v 0.008228 1.151073 -0.008173
v 0.003655 1.153150 -0.008768
v 0.004784 1.148306 -0.011494
v 0.004453 1.151073 -0.010696
v -0.000000 1.153150 -0.009495
v -0.000000 1.148306 -0.012446
v -0.000000 1.151073 -0.011582
v -0.003655 1.153150 -0.008768
v -0.004784 1.148306 -0.011494
v -0.008839 1.141458 0.008893
v -0.008839 1.136018 0.008893
v -0.008839 1.130578 0.008893
v -0.012500 1.130578 0.000054
v -0.012500 1.136018 0.000054
v -0.012500 1.141458 0.000054
v -0.011548 1.141458 0.004838
v -0.011548 1.136018 0.004838
v -0.011548 1.130578 0.004838
v -0.004453 1.151073 -0.010696
v -0.006753 1.153150 -0.006698
v -0.008839 1.148306 -0.008785
v -0.008228 1.151073 -0.008173
v -0.008823 1.153150 -0.003600
v -0.011548 1.148306 -0.004729
v -0.010750 1.151073 -0.004399
v -0.008839 1.141458 -0.008785
v -0.008839 1.136018 -0.008784
v -0.008839 1.130578 -0.008784
v 0.012500 1.146897 0.000054
v 0.012500 1.125139 0.000054
v 0.011548 1.125139 0.004838
v 0.011548 1.146897 0.004838
v 0.008839 1.125139 0.008893
v 0.008839 1.146897 0.008893
v 0.004784 1.146897 0.011603
v 0.004784 1.125139 0.011603
v -0.000000 1.145692 0.012554
v -0.000000 1.126477 0.012554
v -0.004997 1.126000 0.011460
v -0.004964 1.145651 0.011482
v -0.008839 1.126000 0.008893
v -0.008839 1.145651 0.008893
v -0.011548 1.126000 0.004838
v -0.011548 1.145651 0.004838
v -0.012500 1.145651 0.000054
v -0.012500 1.126000 0.000054
v -0.011548 1.141458 -0.004729
v -0.011548 1.136018 -0.004729
v -0.011548 1.130578 -0.004729
v -0.005569 1.130578 0.011078
v -0.006048 1.136018 0.010758
v -0.005569 1.141458 0.011078
v -0.002925 1.141458 0.011901
v -0.003901 1.136018 0.011584
v -0.002925 1.130578 0.011901
v 0.011548 1.125139 -0.004729
v -0.000000 1.145692 0.000054
v -0.002925 1.141458 0.000054
v -0.003901 1.136018 0.000054
v -0.002925 1.130578 0.000054
v -0.000000 1.126477 0.000054
v 0.004784 1.125139 0.000054
v 0.008839 1.125139 0.000054
v 0.004784 1.146897 0.000054
v 0.008839 1.146897 0.000054
v 0.011548 1.146897 -0.004729
v 0.008839 1.125139 -0.008784
v 0.008839 1.146897 -0.008784
v 0.004784 1.146897 -0.011494
v 0.004784 1.125139 -0.011494
v -0.000000 1.145692 -0.012446
v -0.000000 1.126477 -0.012446
v -0.004997 1.126000 -0.011351
v -0.004964 1.145651 -0.011374
v -0.008839 1.126000 -0.008784
v -0.008839 1.145651 -0.008785
v -0.011548 1.126000 -0.004729
v -0.011548 1.145651 -0.004729
v -0.005569 1.130578 -0.010969
v -0.006048 1.136018 -0.010649
v -0.005569 1.141458 -0.010969
v -0.002925 1.141458 -0.011792
v -0.003901 1.136018 -0.011476
v -0.002925 1.130578 -0.011792
v -0.000000 1.154335 0.000054
v -0.002812 1.154335 0.000054
v 0.002812 1.154335 0.000054
v -0.002812 1.154335 0.002867
v -0.000000 1.154335 0.002867
v 0.002812 1.154335 0.002867
v -0.002812 1.154335 -0.002758
v -0.000000 1.154335 -0.002758
v 0.002812 1.154335 -0.002758
v -0.079263 0.042208 0.008292
v -0.074890 0.039087 0.014078
v -0.068358 0.036609 0.017763
v -0.060267 0.035603 0.019071
v 0.060267 0.035603 0.019071
v 0.068358 0.036609 0.017763
v 0.074890 0.039087 0.014078
v 0.079263 0.042208 0.008292
v 0.080795 0.045674 0.001409
v 0.079263 0.048718 -0.005671
v 0.074890 0.051145 -0.011780
v 0.068358 0.052375 -0.016048
v 0.060267 0.052731 -0.017659
v -0.060267 0.052731 -0.017659
v -0.068358 0.052375 -0.016048
v -0.074890 0.051145 -0.011780
v -0.079263 0.048718 -0.005671
v -0.080795 0.045674 0.001409
v 0.060689 0.009216 -0.015592
v -0.060689 0.009216 -0.015592
v -0.060689 0.002422 -0.002881
v -0.060689 0.005730 -0.008746
v -0.060689 0.012364 -0.023004
v -0.060689 0.014639 -0.029091
v 0.060689 0.014639 -0.029091
v 0.060689 0.012364 -0.023004
v 0.060689 0.002422 -0.002881
v 0.060689 0.005730 -0.008746
v -0.080795 0.009243 -0.015579
v -0.079263 0.012288 -0.022659
v -0.074890 0.014714 -0.028768
v -0.068358 0.015944 -0.033036
v -0.060267 0.016300 -0.034647
v 0.060267 0.016300 -0.034647
v 0.068358 0.015944 -0.033036
v 0.074890 0.014714 -0.028768
v 0.079263 0.012288 -0.022659
v 0.080795 0.009243 -0.015579
v 0.079263 0.005777 -0.008696
v 0.074890 0.002657 -0.002910
v 0.068358 0.000178 0.000775
v 0.060267 -0.000828 0.002083
v -0.060267 -0.000828 0.002083
v -0.068358 0.000178 0.000775
v -0.074890 0.002657 -0.002910
v -0.079263 0.005777 -0.008696
vn 0.6839 0.4692 -0.5587
vn 0.9025 0.3387 -0.2662
vn 0.9213 0.1643 -0.3525
vn 0.6993 0.3020 -0.6479
vn 0.0933 -0.2566 0.9620
vn 0.0665 0.2302 0.9709
vn -0.0000 0.2350 0.9720
vn -0.0000 -0.2563 0.9666
vn 0.0018 0.9695 0.2452
vn -0.0015 0.9513 0.3082
vn -0.0003 0.9969 0.0783
vn 0.0006 0.9986 0.0536
vn 0.5732 0.3775 0.7273
vn 0.5300 0.4092 0.7427
vn 0.7255 0.4468 0.5234
vn 0.7757 0.4005 0.4878
vn -0.2134 0.8854 0.4129
vn -0.1939 0.8248 0.5311
vn 0.0032 0.8822 0.4709
vn 0.0019 0.9068 0.4216
vn -0.9802 0.1793 0.0836
vn -1.0000 -0.0000 -0.0000
vn -0.9213 -0.1643 0.3525
vn -0.9024 0.0141 0.4306
vn -0.3661 0.5471 -0.7527
vn -0.3739 0.3919 -0.8406
vn -0.6993 0.3020 -0.6479
vn -0.6839 0.4692 -0.5587
vn -0.0066 0.9333 0.3589
vn -0.0029 0.9288 0.3705
vn -0.0033 0.9472 0.3206
vn 0.0033 0.9472 0.3206
vn 0.0010 0.9971 0.0767
vn -0.0211 0.9973 0.0697
vn -0.0002 0.9478 0.3190
vn 0.3529 0.1792 0.9183
vn 0.3815 -0.0016 0.9244
vn -0.0000 -0.0015 1.0000
vn -0.0000 0.1806 0.9836
vn -0.0000 -0.9707 -0.2401
vn -0.0018 0.9695 0.2452
vn -0.0006 0.9986 0.0536
vn 0.0003 0.9969 0.0783
vn 0.0015 0.9513 0.3082
vn 0.9802 0.1793 0.0836
vn 0.9024 0.0141 0.4306
vn 0.9213 -0.1643 0.3525
vn 1.0000 -0.0000 -0.0000
vn 0.0029 0.9288 0.3705
vn 0.0005 0.9281 0.3722
vn -0.0067 0.9094 0.4158
vn -0.0158 0.8836 0.4679
vn -0.0932 0.5720 -0.8149
vn -0.0966 0.4206 -0.9021
vn -0.1415 0.7654 0.6278
vn -0.0773 0.7072 0.7027
vn -0.0205 0.6981 0.7158
vn 0.0021 0.8561 0.5169
vn 0.0035 -0.8159 -0.5782
vn 0.0031 -0.8094 -0.5872
vn 0.3662 -0.2253 0.9029
vn 0.0966 -0.4205 0.9021
vn 0.3738 -0.3918 0.8407
vn 0.9810 0.1813 0.0693
vn 1.0000 -0.0027 0.0028
vn 0.9228 -0.0021 0.3853
vn 0.8843 0.1758 0.4325
vn -0.0000 0.5757 -0.8177
vn 0.0932 0.5720 -0.8149
vn 0.0966 0.4206 -0.9021
vn -0.0000 0.4227 -0.9063
vn 0.6601 0.4890 0.5702
vn 0.1939 0.8248 0.5311
vn 0.1415 0.7654 0.6278
vn 0.4898 0.3633 0.7925
vn -0.0000 0.2429 -0.9700
vn -0.0000 -0.0074 -1.0000
vn 0.3832 -0.0067 -0.9236
vn 0.4039 0.2351 -0.8841
vn 0.0067 0.9094 0.4158
vn 0.0158 0.8836 0.4679
vn -0.0032 0.8822 0.4709
vn -0.0019 0.9068 0.4216
vn 0.6837 -0.1263 0.7187
vn 0.2595 0.2617 0.9296
vn 0.3661 0.5471 -0.7527
vn 0.3739 0.3919 -0.8406
vn -0.9025 0.3387 -0.2662
vn -0.9213 0.1643 -0.3525
vn -0.1423 0.9729 0.1821
vn -0.1950 0.9370 0.2897
vn 0.0035 -0.9674 -0.2534
vn -0.0104 -0.9532 -0.3021
vn -0.0104 -0.9532 -0.3020
vn 0.0112 0.9155 0.4021
vn 0.0361 0.8912 0.4522
vn -0.6992 -0.3021 0.6479
vn -0.6837 -0.1263 0.7187
vn 0.6604 0.7509 0.0078
vn 0.1950 0.9370 0.2897
vn 0.2134 0.8854 0.4129
vn 0.7209 0.6281 0.2928
vn 0.4901 0.8405 -0.2310
vn 0.1423 0.9729 0.1821
vn 0.7055 -0.0018 0.7087
vn 0.6624 0.1765 0.7281
vn -0.0005 0.9281 0.3722
vn 0.0002 0.9478 0.3190
vn 0.0663 0.8919 -0.4474
vn 0.2594 0.8806 -0.3964
vn -0.3738 -0.3918 0.8407
vn -0.3662 -0.2253 0.9029
vn -0.0773 0.9929 0.0904
vn -0.4898 0.3633 0.7925
vn -0.6601 0.4890 0.5702
vn -0.2595 0.2617 0.9296
vn -0.0933 -0.2566 0.9620
vn -0.0665 0.2302 0.9709
vn 0.0211 0.9973 0.0697
vn -0.0010 0.9971 0.0767
vn -0.0021 0.8561 0.5169
vn 0.0773 0.7072 0.7027
vn 0.0205 0.6981 0.7158
vn 0.6992 -0.3021 0.6479
vn 0.3961 0.6126 -0.6839
vn 0.7310 0.2160 -0.6473
vn 0.6976 0.5548 -0.4533
vn -0.0000 0.8956 -0.4448
vn -0.0000 0.8957 -0.4448
vn 0.3699 0.7314 -0.5729
vn -0.0000 0.7588 -0.6513
vn -0.0000 0.6367 -0.7711
vn 0.8799 0.4374 0.1857
vn 0.8294 0.5034 0.2424
vn 0.8132 0.5781 -0.0672
vn 0.8595 0.4905 -0.1436
vn -0.0663 0.8919 -0.4474
vn -0.2594 0.8806 -0.3964
vn -0.4901 0.8405 -0.2310
vn -0.6604 0.7509 0.0078
vn -0.7209 0.6281 0.2928
vn 0.0091 0.7033 0.7109
vn 0.0186 0.8586 0.5124
vn 0.0438 0.8631 0.5031
vn 0.0227 0.8368 0.5470
vn -0.0164 -0.8783 -0.4779
vn -0.0104 -0.8441 -0.5360
vn -0.0104 -0.8441 -0.5361
vn -0.0966 -0.4205 0.9021
vn 0.0773 0.9929 0.0904
vn 0.9305 0.1955 -0.3099
vn -0.0000 0.3827 0.9239
vn -0.0000 0.3616 0.9323
vn -0.3036 0.3654 0.8799
vn -0.2774 0.3890 0.8785
vn -0.5732 0.3775 0.7273
vn -0.7757 0.4005 0.4878
vn -0.7255 0.4468 0.5234
vn -0.5300 0.4092 0.7427
vn -0.8799 0.4374 0.1857
vn -0.8595 0.4905 -0.1436
vn -0.8132 0.5781 -0.0672
vn -0.8294 0.5034 0.2424
vn -0.3961 0.6126 -0.6839
vn -0.3699 0.7314 -0.5729
vn -0.6578 0.6618 -0.3595
vn -0.6976 0.5548 -0.4533
vn 0.7081 -0.0053 -0.7061
vn 0.9247 -0.0038 -0.3806
vn 0.2774 0.3890 0.8785
vn 0.3036 0.3654 0.8799
vn 0.6578 0.6618 -0.3595
vn -0.3529 0.1792 0.9183
vn -0.3815 -0.0016 0.9244
vn -0.8843 0.1758 0.4325
vn -0.6624 0.1765 0.7281
vn -0.7055 -0.0018 0.7087
vn -0.9228 -0.0021 0.3853
vn -0.9305 0.1955 -0.3099
vn -0.9810 0.1813 0.0693
vn -1.0000 -0.0027 0.0028
vn -0.9247 -0.0038 -0.3806
vn -0.4039 0.2351 -0.8841
vn -0.3832 -0.0067 -0.9236
vn -0.7310 0.2160 -0.6473
vn -0.7081 -0.0053 -0.7061
vn 0.0001 1.0000 -0.0000
vn 0.0001 1.0000 -0.0001
vn -0.0000 1.0000 -0.0001
vn 0.0001 1.0000 -0.0002
vn 0.0001 -0.8084 -0.5886
vn -0.0000 -0.8079 -0.5893
vn -0.0000 0.6911 0.7227
vn -0.0091 0.7033 0.7109
vn -0.0227 0.8368 0.5470
vn -0.0000 0.8246 0.5657
vn -0.0000 1.0000 0.0043
vn -0.0000 0.9856 0.1693
vn -0.0186 0.8586 0.5124
vn -0.0001 1.0000 -0.0000
vn -0.0000 1.0000 -0.0000
vn -0.0000 -0.4225 0.9063
vn -0.0001 1.0000 -0.0001
vn -0.0001 1.0000 -0.0002
vn -0.0001 -0.8084 -0.5886
vn 0.0066 0.9333 0.3589
vn -0.0361 0.8912 0.4522
vn -0.0438 0.8631 0.5031
vn -0.0112 0.9155 0.4021
vn -0.0035 -0.8159 -0.5782
vn -0.0031 -0.8094 -0.5872
vn -0.0035 -0.9674 -0.2534
vn 0.0104 -0.9532 -0.3020
vn 0.0104 -0.9532 -0.3021
vn 0.0164 -0.9306 -0.3656
vn 0.0114 -0.9062 -0.4226
vn -0.0164 -0.9306 -0.3656
vn -0.0114 -0.9062 -0.4226
vn 0.0164 -0.8783 -0.4779
vn 0.0104 -0.8441 -0.5361
vn 0.0104 -0.8441 -0.5360
vn -0.0001 -0.9705 -0.2409
vn 0.0031 -0.9701 -0.2426
vn 0.0001 -0.9705 -0.2409
vn -0.0031 -0.9701 -0.2426
vn -0.0000 1.0000 -0.0002
vn -0.2743 -0.0172 -0.9615
vn -0.3255 -0.0000 -0.9455
vn -0.4519 -0.0000 -0.8921
vn -0.4291 -0.0078 -0.9032
vn -0.3584 -0.9336 -0.0000
vn -0.3311 -0.9336 0.1372
vn 0.9197 -0.3925 -0.0000
vn 0.9245 -0.3811 -0.0000
vn 0.9239 -0.0000 0.3827
vn 0.7071 -0.0000 0.7071
vn 0.9239 -0.0000 -0.3827
vn -0.3866 0.0006 0.9223
vn -0.3891 0.0048 0.9212
vn -0.7071 -0.0000 0.7071
vn 0.4742 0.8804 -0.0000
vn 0.6074 0.7944 -0.0000
vn 0.5612 0.7944 -0.2324
vn 0.4381 0.8804 -0.1814
vn -0.0000 -0.0000 -1.0000
vn -0.3827 -0.0000 -0.9239
vn 0.4295 0.7944 -0.4295
vn 0.3353 0.8805 -0.3352
vn -0.3916 -0.0095 -0.9201
vn -0.7071 -0.0000 -0.7071
vn 0.3827 -0.0000 -0.9239
vn 0.2324 0.7944 -0.5611
vn 0.1814 0.8805 -0.4380
vn 0.7071 -0.0000 -0.7071
vn -0.0050 0.0006 1.0000
vn -0.0805 0.0052 0.9967
vn -0.9239 -0.0000 -0.3827
vn -0.0050 0.0006 -1.0000
vn -0.3866 0.0006 -0.9223
vn -0.3891 0.0048 -0.9212
vn -0.0805 0.0052 -0.9967
vn -0.9239 -0.0000 0.3827
vn -0.3827 -0.0000 0.9239
vn -0.0000 -0.0000 1.0000
vn 0.3827 -0.0000 0.9239
vn -0.3353 0.8805 -0.3352
vn -0.4295 0.7944 -0.4295
vn -0.5611 0.7944 -0.2324
vn -0.4380 0.8805 -0.1814
vn -0.9890 0.1480 -0.0000
vn -0.9137 0.1480 -0.3785
vn 0.4381 0.8804 0.1814
vn 0.5612 0.7944 0.2324
vn 0.3353 0.8805 0.3353
vn 0.4295 0.7944 0.4295
vn 0.1814 0.8805 0.4380
vn 0.2324 0.7944 0.5612
vn -0.0000 0.8805 0.4741
vn -0.0000 0.7944 0.6074
vn -0.1814 0.8805 0.4380
vn -0.2324 0.7944 0.5612
vn -0.3353 0.8805 0.3353
vn -0.4295 0.7944 0.4295
vn -0.4380 0.8805 0.1814
vn -0.5612 0.7944 0.2324
vn -0.4741 0.8805 -0.0000
vn -0.6074 0.7944 -0.0000
vn 0.1372 -0.9336 -0.3312
vn 0.2534 -0.9336 -0.2535
vn 0.3311 -0.9336 -0.1372
vn 0.3584 -0.9336 -0.0000
vn 0.6100 0.5057 -0.6100
vn 0.7970 0.5057 -0.3301
vn 0.6993 0.1480 -0.6993
vn 0.9137 0.1480 -0.3785
vn -0.2534 -0.9336 0.2534
vn -0.1372 -0.9336 0.3311
vn 0.3682 -0.0000 0.9297
vn -0.0000 -0.9336 0.3584
vn 0.1372 -0.9336 0.3311
vn -0.0000 0.7944 -0.6074
vn -0.0000 0.8805 -0.4741
vn 0.2534 -0.9336 0.2534
vn -0.2534 -0.9336 -0.2535
vn -0.1372 -0.9336 -0.3312
vn 0.3311 -0.9336 0.1372
vn -0.2759 0.0152 -0.9611
vn -0.4285 0.0071 -0.9035
vn -0.1814 0.8805 -0.4380
vn -0.2324 0.7944 -0.5611
vn -0.3311 -0.9336 -0.1372
vn -0.0000 -0.9336 -0.3584
vn 0.3682 -0.0000 -0.9297
vn 0.9137 0.1480 0.3785
vn 0.9890 0.1480 -0.0000
vn 0.8627 0.5057 -0.0000
vn 0.7970 0.5057 0.3301
vn 0.6993 0.1480 0.6993
vn 0.6100 0.5057 0.6100
vn 0.3785 0.1480 0.9137
vn 0.3301 0.5057 0.7970
vn -0.0021 0.1441 0.9896
vn -0.0000 0.5057 0.8627
vn -0.3760 0.1440 0.9154
vn -0.3301 0.5057 0.7970
vn -0.6993 0.1480 0.6993
vn -0.6100 0.5057 0.6100
vn -0.9137 0.1480 0.3785
vn -0.7970 0.5057 0.3301
vn -0.8627 0.5057 -0.0000
vn -0.0021 0.1441 -0.9896
vn -0.0000 0.5057 -0.8627
vn 0.3301 0.5057 -0.7970
vn 0.3785 0.1480 -0.9137
vn -0.0768 -0.0116 -0.9970
vn -0.3760 0.1440 -0.9154
vn -0.6993 0.1480 -0.6993
vn 0.3695 -0.0000 0.9292
vn -0.3916 -0.0095 0.9201
vn -0.7970 0.5057 -0.3301
vn -0.0768 -0.0116 0.9970
vn 0.1745 0.9847 -0.0000
vn 0.1360 0.9907 -0.0000
vn -0.0000 -1.0000 -0.0000
vn -0.3255 -0.0000 0.9455
vn -0.4519 -0.0000 0.8921
vn -0.4285 0.0071 0.9035
vn -0.2759 0.0152 0.9611
vn 0.5807 0.8141 -0.0000
vn 0.5745 0.8185 -0.0000
vn -0.2743 -0.0172 0.9615
vn -0.4291 -0.0078 0.9032
vn 0.9165 0.4000 -0.0000
vn 0.9216 0.3880 -0.0000
vn 0.5770 -0.8167 -0.0000
vn 0.5700 -0.8216 -0.0000
vn 0.1231 -0.9924 -0.0000
vn 0.1580 -0.9874 -0.0000
vn -0.6100 0.5057 -0.6100
vn 0.3695 -0.0000 -0.9292
vn -0.3301 0.5057 -0.7970
vn 0.9260 0.1595 -0.3421
vn 0.9222 0.1634 -0.3504
vn 0.7024 0.3008 -0.6451
vn 0.7145 0.2957 -0.6341
vn -0.9260 0.1595 -0.3421
vn -0.9222 0.1634 -0.3504
vn -0.9260 -0.1595 0.3421
vn -0.9222 -0.1634 0.3504
vn -0.7024 -0.3008 0.6451
vn -0.7145 -0.2957 0.6341
vn -0.7145 0.2957 -0.6341
vn -0.7024 0.3008 -0.6451
vn 0.7145 -0.2957 0.6341
vn 0.7024 -0.3008 0.6451
vn 0.9222 -0.1634 0.3504
vn 0.9260 -0.1595 0.3421
vn -0.3914 0.3889 -0.8340
vn -0.3760 0.3916 -0.8398
vn 0.3914 -0.3889 0.8340
vn 0.3760 -0.3916 0.8398
vn -0.0994 0.4205 -0.9018
vn -0.0967 0.4206 -0.9021
vn 0.0994 -0.4205 0.9018
vn 0.0967 -0.4206 0.9021
vn 0.0994 0.4205 -0.9018
vn 0.0967 0.4206 -0.9021
vn -0.0994 -0.4205 0.9018
vn -0.0967 -0.4206 0.9021
vn 0.3914 0.3889 -0.8340
vn 0.3760 0.3916 -0.8398
vn -0.3914 -0.3889 0.8340
vn -0.3760 -0.3916 0.8398
vn -0.0056 -0.8563 -0.5164
vn 0.0056 -0.8563 -0.5164
vn 0.0062 -0.8376 -0.5463
vn -0.0062 -0.8376 -0.5463
vn -0.0058 -0.9575 -0.2884
vn 0.0058 -0.9575 -0.2884
vn 0.0053 -0.9466 -0.3224
vn -0.0053 -0.9466 -0.3224
vn 0.0025 -0.9274 -0.3740
vn -0.0025 -0.9274 -0.3740
vn 0.0012 -0.9063 -0.4226
vn -0.0012 -0.9063 -0.4226
vn 0.0026 -0.8830 -0.4694
vn -0.0026 -0.8830 -0.4694
vn -0.0091 -0.8691 -0.4945
vn -0.0140 -0.8388 -0.5443
vn -0.0132 -0.9567 -0.2909
vn -0.0086 -0.9377 -0.3472
vn -0.0042 -0.9240 -0.3823
vn -0.0024 -0.9063 -0.4226
vn -0.0044 -0.8868 -0.4621
vn 0.0132 -0.9567 -0.2909
vn 0.0086 -0.9377 -0.3472
vn 0.0042 -0.9240 -0.3823
vn 0.0044 -0.8868 -0.4621
vn 0.0091 -0.8691 -0.4945
vn 0.0024 -0.9063 -0.4226
vn 0.0140 -0.8388 -0.5443
vt 0.335263 0.382676
vt 0.344501 0.367188
vt 0.352826 0.370939
vt 0.341450 0.389208
vt 0.302961 0.299152
vt 0.302182 0.303984
vt 0.210380 0.300928
vt 0.210480 0.295932
vt 0.192999 0.390226
vt 0.203000 0.382388
vt 0.208894 0.393492
vt 0.193344 0.393570
vt 0.244449 0.538463
vt 0.245102 0.532174
vt 0.255346 0.537618
vt 0.254610 0.542611
vt 0.022568 0.348529
vt 0.025234 0.334071
vt 0.060833 0.334370
vt 0.060870 0.350342
vt 0.014093 0.348448
vt 0.004529 0.348357
vt 0.009065 0.326876
vt 0.017353 0.330737
vt 0.040219 0.393378
vt 0.036583 0.401583
vt 0.019924 0.388255
vt 0.026150 0.381760
vt 0.209191 0.371197
vt 0.224843 0.367493
vt 0.225021 0.379853
vt 0.136402 0.379593
vt 0.136107 0.392997
vt 0.059679 0.389718
vt 0.059967 0.376943
vt 0.234189 0.542962
vt 0.233380 0.575063
vt 0.223905 0.574905
vt 0.223905 0.542260
vt 0.190805 0.517900
vt 0.190804 0.509695
vt 0.205766 0.509693
vt 0.205768 0.517898
vt 0.168359 0.390161
vt 0.167992 0.393500
vt 0.152448 0.393323
vt 0.158417 0.382248
vt 0.347517 0.349435
vt 0.344362 0.331705
vt 0.352672 0.327893
vt 0.357081 0.349400
vt 0.136652 0.367234
vt 0.060566 0.363569
vt 0.137091 0.353689
vt 0.138881 0.336687
vt 0.058015 0.399262
vt 0.056489 0.407933
vt 0.033063 0.321437
vt 0.044909 0.312368
vt 0.060439 0.308012
vt 0.060461 0.320036
vt 0.312927 0.594347
vt 0.316149 0.602078
vt 0.297823 0.605744
vt 0.297016 0.597532
vt 0.320839 0.304812
vt 0.304386 0.290474
vt 0.324364 0.296587
vt 0.264508 0.553212
vt 0.261505 0.577291
vt 0.252217 0.576203
vt 0.254505 0.548777
vt 0.225492 0.403224
vt 0.303294 0.399990
vt 0.304769 0.408670
vt 0.225738 0.411960
vt 0.340358 0.333459
vt 0.336461 0.334992
vt 0.328707 0.322312
vt 0.331899 0.319456
vt 0.302515 0.573318
vt 0.297338 0.587155
vt 0.288450 0.583817
vt 0.293732 0.568460
vt 0.224485 0.353947
vt 0.222797 0.336935
vt 0.300860 0.335080
vt 0.300728 0.351052
vt 0.335025 0.316286
vt 0.318931 0.309077
vt 0.321124 0.394211
vt 0.324712 0.402437
vt 0.017004 0.366218
vt 0.008656 0.369920
vt 0.135792 0.402956
vt 0.135495 0.411690
vt 0.032552 0.375802
vt 0.024954 0.363028
vt 0.312965 0.521009
vt 0.316188 0.513268
vt 0.331784 0.523773
vt 0.325838 0.529678
vt 0.211202 0.358417
vt 0.208827 0.345672
vt 0.020665 0.308758
vt 0.026780 0.315374
vt 0.340478 0.365458
vt 0.336570 0.363951
vt 0.339041 0.349466
vt 0.343119 0.349451
vt 0.332108 0.379518
vt 0.328896 0.376680
vt 0.242829 0.575483
vt 0.244399 0.545240
vt 0.300954 0.364280
vt 0.301473 0.377659
vt 0.302486 0.395166
vt 0.319199 0.389973
vt 0.037558 0.295739
vt 0.041034 0.303984
vt 0.044234 0.385083
vt 0.029887 0.318562
vt 0.021346 0.332515
vt 0.042917 0.308260
vt 0.058945 0.298430
vt 0.059696 0.303267
vt 0.301686 0.390435
vt 0.225237 0.393262
vt 0.301317 0.320748
vt 0.316915 0.313173
vt 0.301410 0.308724
vt 0.341180 0.309707
vt 0.295001 0.565076
vt 0.284200 0.563352
vt 0.285066 0.559316
vt 0.209155 0.403537
vt 0.209049 0.398505
vt 0.225357 0.398222
vt 0.297171 0.561010
vt 0.307042 0.566929
vt 0.304182 0.570627
vt 0.264775 0.547745
vt 0.265674 0.543464
vt 0.276103 0.549562
vt 0.274942 0.553442
vt 0.058851 0.394443
vt 0.135957 0.397956
vt 0.042170 0.389151
vt 0.029323 0.378621
vt 0.021037 0.364512
vt 0.018490 0.348490
vt 0.210291 0.305887
vt 0.217714 0.319809
vt 0.202479 0.334425
vt 0.192674 0.326678
vt 0.334430 0.572830
vt 0.342158 0.576042
vt 0.331729 0.591597
vt 0.325799 0.585692
vt 0.057571 0.289744
vt 0.317158 0.385892
vt 0.274413 0.558182
vt 0.223905 0.526770
vt 0.223905 0.534793
vt 0.213583 0.535733
vt 0.213148 0.528341
vt 0.203361 0.538463
vt 0.193199 0.542611
vt 0.192464 0.537618
vt 0.202707 0.532174
vt 0.183035 0.547745
vt 0.172868 0.553442
vt 0.171706 0.549562
vt 0.182135 0.543464
vt 0.152808 0.565076
vt 0.143627 0.570628
vt 0.140768 0.566929
vt 0.150639 0.561010
vt 0.161108 0.555345
vt 0.162744 0.559316
vt 0.279637 0.580995
vt 0.270656 0.578847
vt 0.234661 0.528341
vt 0.234226 0.535733
vt 0.286702 0.555345
vt 0.213620 0.542962
vt 0.214430 0.575063
vt 0.193304 0.548777
vt 0.203411 0.545240
vt 0.204980 0.575483
vt 0.195593 0.576204
vt 0.173397 0.558183
vt 0.183301 0.553212
vt 0.186305 0.577291
vt 0.177154 0.578847
vt 0.145295 0.573319
vt 0.154077 0.568461
vt 0.159359 0.583817
vt 0.150472 0.587155
vt 0.163610 0.563352
vt 0.168173 0.580995
vt 0.840258 0.457443
vt 0.841834 0.467243
vt 0.815985 0.467243
vt 0.835051 0.448993
vt 0.839540 0.476899
vt 0.833725 0.484942
vt 0.825275 0.490148
vt 0.815477 0.491723
vt 0.150360 0.597474
vt 0.178634 0.597471
vt 0.178635 0.605677
vt 0.150363 0.605681
vt 0.151515 0.300755
vt 0.180947 0.300664
vt 0.180933 0.305672
vt 0.151575 0.305714
vt 0.169074 0.326616
vt 0.180883 0.323790
vt 0.180652 0.398596
vt 0.167903 0.398533
vt 0.180663 0.394814
vt 0.180638 0.403656
vt 0.167837 0.403582
vt 0.180612 0.412485
vt 0.167748 0.412409
vt 0.180668 0.393124
vt 0.144069 0.319592
vt 0.151444 0.295759
vt 0.180962 0.295641
vt 0.152263 0.398335
vt 0.152126 0.403367
vt 0.151941 0.412169
vt 0.817351 0.440886
vt 0.827007 0.443179
vt 0.193440 0.403656
vt 0.209287 0.412341
vt 0.193476 0.412485
vt 0.180988 0.286878
vt 0.210657 0.287227
vt 0.193403 0.398605
vt 0.807551 0.442463
vt 0.799102 0.447670
vt 0.792573 0.475169
vt 0.790996 0.465371
vt 0.797780 0.483617
vt 0.206908 0.597473
vt 0.206906 0.605679
vt 0.793288 0.455714
vt 0.152277 0.371034
vt 0.151318 0.287053
vt 0.152796 0.345506
vt 0.159214 0.334302
vt 0.150347 0.358238
vt 0.044323 0.594329
vt 0.060246 0.597525
vt 0.059436 0.605741
vt 0.041095 0.602070
vt 0.044362 0.521010
vt 0.031471 0.529661
vt 0.025540 0.523748
vt 0.041142 0.513272
vt 0.022829 0.542532
vt 0.019780 0.557660
vt 0.011409 0.557655
vt 0.015094 0.539315
vt 0.334453 0.542579
vt 0.342196 0.539377
vt 0.345840 0.557717
vt 0.337471 0.557709
vt 0.022808 0.572786
vt 0.031426 0.585665
vt 0.025488 0.591573
vt 0.015070 0.575993
vt 0.221389 0.517894
vt 0.221384 0.509688
vt 0.297823 0.509616
vt 0.297019 0.517840
vt 0.135874 0.517896
vt 0.060281 0.517830
vt 0.059477 0.509616
vt 0.135879 0.509690
vt 0.178631 0.517901
vt 0.166458 0.517901
vt 0.166458 0.509696
vt 0.178631 0.509696
vt 0.151495 0.517900
vt 0.151496 0.509695
vt 0.805822 0.489430
vt 0.786346 0.409132
vt 0.786811 0.397036
vt 0.791721 0.396544
vt 0.792091 0.407927
vt 0.817088 0.294504
vt 0.826292 0.294388
vt 0.826307 0.297310
vt 0.817074 0.297421
vt 0.096229 0.534920
vt 0.096229 0.558189
vt 0.085374 0.558189
vt 0.085374 0.535541
vt 0.882488 0.294206
vt 0.888543 0.371722
vt 0.878366 0.372468
vt 0.873415 0.295316
vt 0.004926 0.280797
vt 0.005153 0.263554
vt 0.993306 0.263554
vt 0.993079 0.280797
vt 0.844941 0.296831
vt 0.847274 0.375440
vt 0.837677 0.375374
vt 0.835576 0.297144
vt 0.780848 0.458664
vt 0.775417 0.458288
vt 0.777441 0.450703
vt 0.782343 0.452600
vt 0.005834 0.211826
vt 0.006061 0.194583
vt 0.994215 0.194583
vt 0.993988 0.211826
vt 0.781013 0.444130
vt 0.785393 0.447097
vt 0.792711 0.416312
vt 0.799775 0.406631
vt 0.801047 0.414289
vt 0.891720 0.292050
vt 0.898735 0.370862
vt 0.005607 0.229068
vt 0.993760 0.229068
vt 0.785760 0.438545
vt 0.789315 0.442211
vt 0.005380 0.246311
vt 0.993533 0.246311
vt 0.185880 0.350588
vt 0.185879 0.342775
vt 0.190563 0.345905
vt 0.193693 0.350588
vt 0.854560 0.296477
vt 0.858086 0.376401
vt 0.006288 0.177340
vt 0.006515 0.160097
vt 0.994670 0.160097
vt 0.994442 0.177340
vt 0.006742 0.142854
vt 0.994897 0.142854
vt 0.780658 0.296851
vt 0.789546 0.297150
vt 0.788229 0.375545
vt 0.777437 0.376535
vt 0.006600 0.125608
vt 0.994756 0.125608
vt 0.006459 0.108363
vt 0.994614 0.108363
vt 0.006317 0.091117
vt 0.994473 0.091117
vt 0.006176 0.073871
vt 0.994332 0.073871
vt 0.006034 0.056625
vt 0.994190 0.056625
vt 0.005893 0.039379
vt 0.994049 0.039379
vt 0.005751 0.022133
vt 0.993907 0.022133
vt 0.005610 0.004887
vt 0.993766 0.004887
vt 0.743627 0.292318
vt 0.753320 0.294571
vt 0.747026 0.371997
vt 0.736829 0.371179
vt 0.174831 0.350588
vt 0.167018 0.350588
vt 0.170147 0.345905
vt 0.174831 0.342775
vt 0.798669 0.297355
vt 0.797811 0.375443
vt 0.762638 0.295726
vt 0.757210 0.372696
vt 0.805658 0.433646
vt 0.804364 0.428633
vt 0.811128 0.427346
vt 0.811753 0.432302
vt 0.809496 0.413083
vt 0.817801 0.412694
vt 0.817786 0.417102
vt 0.809926 0.417518
vt 0.807859 0.297411
vt 0.807825 0.375314
vt 0.855451 0.459170
vt 0.853920 0.452991
vt 0.858917 0.451048
vt 0.860986 0.458780
vt 0.850795 0.447386
vt 0.855178 0.444352
vt 0.846522 0.442567
vt 0.850245 0.438674
vt 0.841635 0.438500
vt 0.844421 0.434163
vt 0.835969 0.435756
vt 0.838010 0.430880
vt 0.830018 0.433625
vt 0.831285 0.428675
vt 0.823923 0.432332
vt 0.824540 0.427402
vt 0.817831 0.431745
vt 0.817840 0.426930
vt 0.771946 0.293565
vt 0.771777 0.296396
vt 0.762909 0.292839
vt 0.753851 0.291661
vt 0.744900 0.289404
vt 0.776339 0.440913
vt 0.771992 0.448438
vt 0.771709 0.437614
vt 0.766801 0.445975
vt 0.835522 0.294199
vt 0.827668 0.375285
vt 0.844839 0.293832
vt 0.868166 0.373116
vt 0.864144 0.295950
vt 0.798645 0.395942
vt 0.854417 0.293311
vt 0.863967 0.292981
vt 0.791455 0.434068
vt 0.794293 0.438450
vt 0.817745 0.375253
vt 0.873141 0.292448
vt 0.798734 0.294460
vt 0.789635 0.294312
vt 0.881999 0.291468
vt 0.890537 0.289404
vt 0.808885 0.405657
vt 0.783911 0.385371
vt 0.789831 0.385154
vt 0.799696 0.435416
vt 0.797745 0.430816
vt 0.807899 0.294503
vt 0.780771 0.294165
vt 0.767375 0.373294
vt 0.869867 0.446020
vt 0.873870 0.455940
vt 0.867535 0.457831
vt 0.864510 0.448623
vt 0.864608 0.437456
vt 0.859917 0.440961
vt 0.857918 0.430211
vt 0.854160 0.434495
vt 0.850106 0.424672
vt 0.847365 0.429461
vt 0.841841 0.421034
vt 0.840056 0.425866
vt 0.833703 0.418787
vt 0.832580 0.423589
vt 0.825691 0.417462
vt 0.825197 0.422221
vt 0.817838 0.421828
vt 0.769046 0.457238
vt 0.763036 0.455398
vt 0.785707 0.424782
vt 0.788549 0.429488
vt 0.781858 0.434463
vt 0.778087 0.430390
vt 0.783104 0.420081
vt 0.793887 0.421092
vt 0.801962 0.418825
vt 0.826123 0.413058
vt 0.807976 0.384582
vt 0.817759 0.384457
vt 0.866979 0.435632
vt 0.859844 0.427993
vt 0.834603 0.414239
vt 0.798029 0.384859
vt 0.872599 0.444615
vt 0.842983 0.416224
vt 0.810466 0.422252
vt 0.852666 0.419912
vt 0.760273 0.454268
vt 0.764187 0.444700
vt 0.876832 0.454722
vt 0.054866 0.535505
vt 0.054867 0.558189
vt 0.046901 0.558189
vt 0.046901 0.540828
vt 0.827554 0.384535
vt 0.123993 0.558189
vt 0.123993 0.540828
vt 0.129316 0.548793
vt 0.131184 0.558189
vt 0.848752 0.396924
vt 0.843846 0.396456
vt 0.845696 0.385060
vt 0.851617 0.385260
vt 0.837493 0.384791
vt 0.064623 0.533636
vt 0.064624 0.558189
vt 0.849291 0.408986
vt 0.843539 0.407826
vt 0.808308 0.395337
vt 0.817790 0.395144
vt 0.817795 0.405338
vt 0.074518 0.534920
vt 0.074518 0.558189
vt 0.106338 0.533636
vt 0.106338 0.558189
vt 0.116028 0.558189
vt 0.116028 0.535505
vt 0.803089 0.423601
vt 0.776097 0.428212
vt 0.835840 0.406575
vt 0.836920 0.395892
vt 0.039710 0.558189
vt 0.041578 0.548793
vt 0.826710 0.405648
vt 0.827244 0.395355
vt 0.795696 0.425873
vt 0.064624 0.582742
vt 0.054867 0.580873
vt 0.769349 0.435919
vt 0.046901 0.575551
vt 0.041578 0.567585
vt 0.116028 0.580873
vt 0.106338 0.582742
vt 0.129316 0.567585
vt 0.123993 0.575551
vt 0.074518 0.581458
vt 0.085374 0.580837
vt 0.096229 0.581458
vt 0.174830 0.361637
vt 0.167018 0.361637
vt 0.165919 0.356113
vt 0.174830 0.356113
vt 0.185880 0.361638
vt 0.185880 0.356113
vt 0.194791 0.356113
vt 0.193693 0.361637
vt 0.185880 0.369450
vt 0.190563 0.366321
vt 0.174831 0.369450
vt 0.170147 0.366321
vt 0.180355 0.361638
vt 0.180355 0.356113
vt 0.180355 0.350588
vt 0.180355 0.341677
vt 0.180355 0.370549
vt 0.679385 0.289343
vt 0.679385 0.368276
vt 0.694889 0.368276
vt 0.694889 0.289343
vt 0.648482 0.376323
vt 0.648482 0.455256
vt 0.663911 0.455256
vt 0.663911 0.376323
vt 0.679341 0.376323
vt 0.679341 0.455256
vt 0.694845 0.455256
vt 0.694845 0.376323
vt 0.663956 0.289343
vt 0.663956 0.368276
vt 0.632978 0.376323
vt 0.632978 0.455256
vt 0.633023 0.289343
vt 0.633023 0.368276
vt 0.648527 0.368276
vt 0.648527 0.289343
vt 0.617468 0.376323
vt 0.617468 0.455256
vt 0.617512 0.289343
vt 0.617512 0.368276
vt 0.601253 0.376323
vt 0.601253 0.455256
vt 0.601297 0.289343
vt 0.601297 0.368276
vt 0.364568 0.376323
vt 0.364568 0.455256
vt 0.364612 0.289343
vt 0.364612 0.368276
vt 0.710399 0.289343
vt 0.710399 0.368276
vt 0.726614 0.368276
vt 0.726614 0.289343
vt 0.710355 0.376323
vt 0.710355 0.455256
vt 0.726570 0.455256
vt 0.726570 0.376323
vt 0.059190 0.431141
vt 0.297623 0.431142
vt 0.296789 0.419488
vt 0.060024 0.419488
vt 0.060024 0.499432
vt 0.296789 0.499432
vt 0.297623 0.488042
vt 0.059190 0.488041
vt 0.297624 0.475277
vt 0.059190 0.475277
vt 0.297624 0.459459
vt 0.059190 0.459459
vt 0.297624 0.444369
vt 0.059190 0.444369
vt 0.031297 0.431417
vt 0.044132 0.422708
vt 0.044131 0.496211
vt 0.031297 0.487501
vt 0.022710 0.474592
vt 0.019701 0.459459
vt 0.022710 0.444326
vt 0.312682 0.496211
vt 0.325516 0.487502
vt 0.334104 0.474593
vt 0.334104 0.444326
vt 0.325517 0.431417
vt 0.337113 0.459460
vt 0.312682 0.422708
s 1
f 151/1/1 154/2/2 217/3/3 216/4/4
f 84/5/5 105/6/6 201/7/7 197/8/8
f 170/9/9 176/10/10 182/11/11 178/12/12
f 26/13/13 172/14/14 173/15/15 60/16/16
f 93/17/17 77/18/18 8/19/19 6/20/20
f 92/21/21 196/22/22 199/23/23 79/24/24
f 95/25/25 193/26/26 194/27/27 98/28/28
f 176/10/10 175/29/29 186/30/30 185/31/31
f 157/32/32 164/33/33 89/34/34 1/35/35
f 83/36/36 33/37/37 29/38/38 70/39/39
f 177/40/40 223/41/40 224/42/40 181/43/40
f 114/44/41 141/45/42 145/46/43 129/47/44
f 128/48/45 119/49/46 219/50/47 218/51/48
f 158/52/49 4/53/50 6/20/20 169/54/51
f 169/54/51 6/20/20 8/19/19 160/55/52
f 88/56/53 205/57/54 193/26/26 95/25/25
f 74/58/55 69/59/56 63/60/57 10/61/58
f 25/62/59 213/63/59 214/64/60 28/65/60
f 106/66/61 84/5/5 214/67/62 213/68/63
f 104/69/64 51/70/65 36/71/66 82/72/67
f 206/73/68 123/74/69 222/75/70 221/76/71
f 121/77/72 115/78/73 111/79/74 112/80/75
f 154/2/2 128/48/45 218/51/48 217/3/3
f 78/81/76 3/82/77 81/83/78 113/84/79
f 212/85/80 188/86/81 14/87/82 13/88/83
f 110/89/84 112/80/75 109/90/85 106/66/61
f 123/74/69 148/91/86 215/92/87 222/75/70
f 101/93/88 195/94/89 196/22/22 92/21/21
f 168/95/68 204/96/71 205/57/54 88/56/53
f 98/28/28 194/27/27 195/94/89 101/93/88
f 106/66/61 109/90/85 105/6/6 84/5/5
f 99/97/90 102/98/91 4/53/50 1/35/35
f 41/99/92 215/100/92 216/101/93 48/102/94
f 77/18/18 74/58/55 10/61/58 8/19/19
f 102/98/91 93/17/17 6/20/20 4/53/50
f 174/103/95 173/104/96 188/86/81 212/85/80
f 79/24/24 199/23/23 200/105/97 73/106/98
f 156/107/99 155/108/100 130/109/101 131/110/102
f 153/111/103 152/112/104 155/108/100 156/107/99
f 82/72/67 36/71/66 35/113/105 107/114/106
f 185/31/31 186/30/30 11/115/107 7/116/108
f 123/74/69 127/117/109 150/118/110 148/91/86
f 73/106/98 200/105/97 190/119/111 67/120/112
f 96/121/113 99/97/90 1/35/35 89/34/34
f 79/24/24 73/106/98 75/122/114 80/123/115
f 80/123/115 75/122/114 74/58/55 77/18/18
f 73/106/98 67/120/112 71/124/116 75/122/114
f 75/122/114 71/124/116 69/59/56 74/58/55
f 67/120/112 61/125/117 66/126/118 71/124/116
f 71/124/116 66/126/118 63/60/57 69/59/56
f 185/31/31 7/116/108 124/127/119 198/128/120
f 115/78/73 14/87/82 15/129/121 111/79/74
f 152/112/104 7/116/108 11/115/107 155/108/100
f 109/90/85 108/130/122 86/131/123 105/6/6
f 155/108/100 11/115/107 13/88/83 130/109/101
f 119/49/46 110/89/84 220/132/124 219/50/47
f 154/2/2 156/107/99 131/110/102 128/48/45
f 110/89/84 106/66/61 213/68/63 220/132/124
f 128/48/45 131/110/102 121/77/72 119/49/46
f 12/133/125 113/84/79 87/134/126 32/135/127
f 175/29/29 174/103/95 212/85/80 186/30/30
f 184/136/68 183/137/128 202/138/129 206/73/68
f 12/133/125 170/139/130 116/140/131 52/141/132
f 30/142/133 174/143/134 175/144/135 9/145/136
f 131/110/102 130/109/101 115/78/73 121/77/72
f 168/95/68 88/56/53 91/146/137 166/147/129
f 166/147/129 91/146/137 89/34/34 164/33/33
f 88/56/53 95/25/25 97/148/138 91/146/137
f 91/146/137 97/148/138 96/121/113 89/34/34
f 95/25/25 98/28/28 100/149/139 97/148/138
f 97/148/138 100/149/139 99/97/90 96/121/113
f 98/28/28 101/93/88 103/150/140 100/149/139
f 100/149/139 103/150/140 102/98/91 99/97/90
f 101/93/88 92/21/21 94/151/141 103/150/140
f 103/150/140 94/151/141 93/17/17 102/98/91
f 92/21/21 79/24/24 80/123/115 94/151/141
f 94/151/141 80/123/115 77/18/18 93/17/17
f 192/152/142 189/153/143 172/154/144 171/155/145
f 22/156/146 219/157/146 220/158/147 23/159/148
f 67/120/112 190/119/111 191/160/149 61/125/117
f 150/118/110 149/161/150 152/112/104 153/111/103
f 52/141/132 78/81/76 113/84/79 12/133/125
f 9/145/136 85/162/151 104/69/64 30/142/133
f 117/163/152 16/164/153 45/165/154 118/166/155
f 20/167/156 49/168/157 122/169/158 120/170/159
f 24/171/160 2/172/161 126/173/162 125/174/163
f 5/175/164 52/176/132 116/177/131 114/178/165
f 148/91/86 151/1/1 216/4/4 215/92/87
f 118/166/155 45/165/154 20/167/156 120/170/159
f 49/168/157 24/171/160 125/174/163 122/169/158
f 129/179/166 126/173/162 2/172/161 27/180/167
f 27/180/167 5/175/164 114/178/165 129/179/166
f 87/134/126 72/181/168 59/182/169 85/162/151
f 171/183/170 172/14/14 26/13/13 57/184/171
f 32/135/127 176/185/172 170/139/130 12/133/125
f 56/186/173 70/39/39 29/38/38 31/187/174
f 55/188/175 68/189/176 34/190/177 38/191/178
f 62/192/179 65/193/180 43/194/181 47/195/182
f 78/196/76 76/197/183 54/198/184 3/199/77
f 127/117/109 124/127/119 149/161/150 150/118/110
f 119/49/46 121/77/72 112/80/75 110/89/84
f 117/163/152 171/183/170 57/184/171 16/164/153
f 105/6/6 86/131/123 192/152/142 201/7/7
f 68/189/176 56/186/173 31/187/174 34/190/177
f 65/193/180 55/188/175 38/191/178 43/194/181
f 64/200/185 62/192/179 47/195/182 50/201/186
f 76/197/183 64/200/185 50/201/186 54/198/184
f 113/84/79 81/83/78 72/181/168 87/134/126
f 149/161/150 124/127/119 7/116/108 152/112/104
f 60/16/16 173/15/15 174/143/134 30/142/133
f 45/165/154 16/164/153 70/39/39 56/186/173
f 49/168/157 20/167/156 68/189/176 55/188/175
f 2/172/161 24/171/160 65/193/180 62/192/179
f 52/176/132 5/175/164 76/197/183 78/196/76
f 85/162/151 59/182/169 51/70/65 104/69/64
f 148/91/86 150/118/110 153/111/103 151/1/1
f 112/80/75 111/79/74 108/130/122 109/90/85
f 20/167/156 45/165/154 56/186/173 68/189/176
f 24/171/160 49/168/157 55/188/175 65/193/180
f 27/180/167 2/172/161 62/192/179 64/200/185
f 5/175/164 27/180/167 64/200/185 76/197/183
f 50/202/187 47/203/188 90/204/189 54/205/187
f 43/206/188 38/207/188 90/204/189 47/203/188
f 34/208/188 31/209/190 90/204/189 38/207/188
f 26/13/13 107/114/106 83/36/36 57/184/171
f 30/142/133 104/69/64 82/72/67 60/16/16
f 107/114/106 35/113/105 33/37/37 83/36/36
f 206/73/68 202/138/129 127/117/109 123/74/69
f 202/138/129 198/128/120 124/127/119 127/117/109
f 167/210/191 137/211/192 207/212/192 211/213/191
f 165/214/7 135/215/7 132/216/193 162/217/194
f 188/86/81 189/153/143 15/129/121 14/87/82
f 118/218/195 162/217/194 132/216/193 117/219/196
f 136/220/128 142/221/128 141/45/42 134/222/197
f 139/223/68 143/224/68 142/221/128 136/220/128
f 139/223/68 208/225/71 209/226/71 143/224/68
f 116/227/198 134/222/197 141/45/42 114/44/41
f 160/55/52 8/19/19 10/61/58 161/228/199
f 163/229/8 133/230/8 135/215/7 165/214/7
f 142/221/128 146/231/128 145/46/43 141/45/42
f 143/224/68 147/232/68 146/231/128 142/221/128
f 143/224/68 209/226/71 210/233/71 147/232/68
f 161/228/199 10/61/58 63/60/57 162/217/194
f 157/32/32 1/35/35 4/53/50 158/52/49
f 90/204/189 81/234/200 3/235/201 54/205/187
f 176/185/172 32/135/127 9/145/136 175/144/135
f 201/7/7 192/152/142 132/216/193 135/215/7
f 130/109/101 13/88/83 14/87/82 115/78/73
f 180/236/68 184/136/68 224/237/71 223/238/71
f 189/153/143 192/152/142 86/131/123 15/129/121
f 32/135/127 87/134/126 85/162/151 9/145/136
f 197/8/8 133/230/8 207/239/202 225/240/202
f 186/30/30 212/85/80 13/88/83 11/115/107
f 57/184/171 83/36/36 70/39/39 16/164/153
f 136/220/128 134/222/197 178/12/12 179/241/128
f 60/16/16 82/72/67 107/114/106 26/13/13
f 72/242/200 81/234/200 90/204/189 59/243/203
f 139/223/68 180/236/68 223/238/71 208/225/71
f 35/244/203 36/245/203 90/204/189 33/246/204
f 203/247/205 225/248/205 207/212/192 137/211/192
f 51/249/203 59/243/203 90/204/189 36/245/203
f 111/79/74 15/129/121 86/131/123 108/130/122
f 151/1/1 153/111/103 156/107/99 154/2/2
f 129/47/44 157/32/32 158/52/49 126/250/206
f 61/125/117 191/160/149 211/251/202 163/229/8
f 61/125/117 163/229/8 165/214/7 66/126/118
f 66/126/118 165/214/7 162/217/194 63/60/57
f 122/252/207 160/55/52 161/228/199 120/253/208
f 146/231/128 166/147/129 164/33/33 145/46/43
f 147/232/68 168/95/68 166/147/129 146/231/128
f 147/232/68 210/233/71 204/96/71 168/95/68
f 125/254/209 169/54/51 160/55/52 122/252/207
f 126/250/206 158/52/49 169/54/51 125/254/209
f 129/47/44 145/46/43 164/33/33 157/32/32
f 171/155/145 117/219/196 132/216/193 192/152/142
f 116/227/198 170/9/9 178/12/12 134/222/197
f 179/241/128 178/12/12 182/11/11 183/137/128
f 180/236/68 179/241/128 183/137/128 184/136/68
f 139/223/68 136/220/128 179/241/128 180/236/68
f 84/5/5 197/8/8 225/240/202 214/67/62
f 173/104/96 172/154/144 189/153/143 188/86/81
f 183/137/128 182/11/11 198/128/120 202/138/129
f 197/8/8 201/7/7 135/215/7 133/230/8
f 162/217/194 118/218/195 120/253/208 161/228/199
f 184/136/68 206/73/68 221/76/71 224/237/71
f 19/255/210 21/256/211 191/257/211 190/258/210
f 176/10/10 185/31/31 198/128/120 182/11/11
f 40/259/212 42/260/213 194/261/214 193/262/212
f 44/263/215 46/264/216 196/265/216 195/266/215
f 53/267/217 217/268/217 218/269/218 58/270/218
f 17/271/219 18/272/220 200/273/221 199/274/219
f 46/264/216 17/271/219 199/274/219 196/265/216
f 58/270/218 218/269/218 219/157/146 22/156/146
f 42/260/213 44/263/215 195/266/215 194/261/214
f 187/275/222 221/276/222 222/277/223 37/278/223
f 159/279/224 39/280/225 205/281/225 204/282/224
f 48/102/94 216/101/93 217/268/217 53/267/217
f 18/272/220 19/255/210 190/258/210 200/273/221
f 37/278/223 222/277/223 215/100/92 41/99/92
f 39/280/225 40/259/212 193/262/212 205/281/225
f 23/159/148 220/158/147 213/63/59 25/62/59
f 138/283/40 140/284/40 209/285/40 208/286/40
f 163/229/8 211/251/202 207/239/202 133/230/8
f 140/284/40 144/287/40 210/288/40 209/285/40
f 181/43/40 224/42/40 221/276/222 187/275/222
f 144/287/40 159/279/224 204/282/224 210/288/40
f 21/256/211 167/210/191 211/213/191 191/257/211
f 28/65/60 214/64/60 225/248/205 203/247/205
f 138/283/40 208/286/40 223/41/40 177/40/40
f 33/246/204 90/204/189 31/209/190 29/289/226
f 403/290/227 404/291/228 401/292/229 402/293/230
f 266/294/231 265/295/232 280/296/232 281/297/231
f 403/298/233 379/299/234 380/300/48 404/301/48
f 274/302/235 352/303/235 354/304/236 275/305/236
f 232/306/48 226/307/237 267/308/237 258/309/48
f 278/310/238 360/311/239 362/312/240 279/313/240
f 233/314/241 291/315/242 290/316/243 227/317/244
f 250/318/245 252/319/246 271/320/246 270/321/245
f 227/317/244 290/316/243 320/322/247 229/323/248
f 395/324/249 402/293/230 347/325/250 397/326/250
f 273/327/48 351/328/48 352/303/235 274/302/235
f 230/329/251 250/318/245 270/321/245 269/330/251
f 229/323/248 320/322/247 323/331/252 231/332/253
f 228/333/254 230/329/251 269/330/251 268/334/254
f 409/335/201 247/336/201 245/337/201 243/338/201
f 277/339/255 359/340/256 360/311/239 278/310/238
f 226/307/237 228/333/254 268/334/254 267/308/237
f 254/341/250 256/342/257 282/343/257 272/344/250
f 252/319/246 254/341/250 272/344/250 271/320/246
f 256/342/257 248/345/22 266/346/22 282/343/257
f 286/347/258 287/348/259 394/349/260 393/350/261
f 246/351/262 265/352/262 266/346/22 248/345/22
f 244/353/240 264/354/240 265/352/262 246/351/262
f 242/355/263 263/356/263 264/354/240 244/353/240
f 240/357/264 262/358/264 263/356/263 242/355/263
f 238/359/265 261/360/265 262/358/264 240/357/264
f 236/361/236 260/362/236 261/360/265 238/359/265
f 234/363/235 259/364/235 260/362/236 236/361/236
f 232/365/48 258/366/48 259/364/235 234/363/235
f 273/367/48 283/368/237 377/369/237 351/370/48
f 412/371/201 253/372/201 255/373/201 257/374/201
f 287/348/259 288/375/250 396/376/250 394/349/260
f 283/368/237 284/377/254 388/378/254 377/369/237
f 255/379/266 341/380/267 344/381/268 257/382/269
f 399/383/257 366/384/22 316/385/270 345/386/271
f 288/375/250 289/387/257 398/388/257 396/376/250
f 233/389/241 235/390/272 294/391/273 291/392/242
f 235/390/272 237/393/274 297/394/275 294/391/273
f 237/393/274 239/395/276 300/396/277 297/394/275
f 239/395/276 241/397/278 303/398/279 300/396/277
f 241/397/278 243/399/280 306/400/281 303/398/279
f 243/399/280 245/401/282 309/402/283 306/400/281
f 245/401/282 247/403/284 312/404/285 309/402/283
f 247/403/284 249/405/286 315/406/287 312/404/285
f 269/407/288 285/408/288 284/377/289 268/409/289
f 267/410/290 283/368/290 273/367/291 258/411/291
f 322/412/292 320/322/247 290/316/243 319/413/293
f 321/414/294 322/412/292 319/413/293 318/415/295
f 265/295/232 264/416/296 279/313/296 280/296/232
f 279/313/240 362/312/240 364/417/262 280/296/262
f 264/416/296 263/418/297 278/310/297 279/313/296
f 275/305/236 354/304/236 357/419/298 276/420/265
f 402/293/230 401/292/229 348/421/250 347/325/250
f 263/418/297 262/422/299 277/339/299 278/310/297
f 262/422/299 261/423/300 276/420/300 277/339/299
f 231/332/253 323/331/252 326/424/301 251/425/302
f 280/296/262 364/417/262 367/426/22 281/297/22
f 261/423/300 260/427/303 275/305/303 276/420/300
f 276/420/265 357/419/298 359/340/256 277/339/255
f 272/428/304 288/375/304 287/348/305 271/429/305
f 260/427/303 259/430/306 274/302/306 275/305/303
f 259/430/306 258/431/291 273/327/291 274/302/306
f 397/326/250 347/325/250 368/432/257 399/383/257
f 405/433/307 393/350/261 394/349/260 400/434/308
f 253/435/309 329/436/310 341/380/267 255/379/266
f 251/425/302 326/424/301 329/436/310 253/435/309
f 282/437/311 289/387/311 288/375/304 272/428/304
f 257/382/269 344/381/268 315/406/287 249/405/286
f 270/438/312 286/347/312 285/408/288 269/407/288
f 271/429/305 287/348/305 286/347/312 270/438/312
f 289/387/257 281/297/22 367/426/22 398/388/257
f 284/377/254 285/408/251 391/439/313 388/378/254
f 295/440/314 292/441/315 293/442/316 296/443/317
f 296/443/317 293/442/316 291/392/242 294/391/273
f 298/444/318 295/440/314 296/443/317 299/445/319
f 299/445/319 296/443/317 294/391/273 297/394/275
f 301/446/320 298/444/318 299/445/319 302/447/321
f 302/447/321 299/445/319 297/394/275 300/396/277
f 304/448/322 301/446/320 302/447/321 305/449/323
f 305/449/323 302/447/321 300/396/277 303/398/279
f 307/450/324 304/448/322 305/449/323 308/451/325
f 308/451/325 305/449/323 303/398/279 306/400/281
f 310/452/326 307/450/324 308/451/325 311/453/327
f 311/453/327 308/451/325 306/400/281 309/402/283
f 313/454/328 310/452/326 311/453/327 314/455/329
f 314/455/329 311/453/327 309/402/283 312/404/285
f 316/385/270 313/454/328 314/455/329 317/456/330
f 317/456/330 314/455/329 312/404/285 315/406/287
f 268/409/289 284/377/289 283/368/290 267/410/290
f 285/408/251 286/347/258 393/350/261 391/439/313
f 319/413/293 290/316/243 291/315/242 293/457/316
f 318/415/295 319/413/293 293/457/316 292/458/315
f 327/459/331 328/460/332 325/461/333 324/462/334
f 325/461/333 323/331/252 320/322/247 322/412/292
f 328/460/332 326/424/301 323/331/252 325/461/333
f 324/462/334 325/461/333 322/412/292 321/414/294
f 392/463/335 395/324/249 330/464/336 327/459/331
f 395/324/249 397/326/250 342/465/337 330/464/336
f 365/466/262 313/454/328 316/385/270 366/384/22
f 370/467/257 398/388/257 367/426/22 334/468/22
f 355/469/236 298/444/318 301/446/320 356/470/338
f 363/471/240 310/452/326 313/454/328 365/466/262
f 349/472/250 396/376/250 398/388/257 370/467/257
f 353/473/235 295/440/314 298/444/318 355/469/236
f 361/474/339 307/450/324 310/452/326 363/471/240
f 316/385/270 317/456/330 346/475/340 345/386/271
f 356/470/338 301/446/320 304/448/322 358/476/341
f 350/477/48 387/478/237 318/415/295 292/458/315
f 392/463/335 403/290/227 402/293/230 395/324/249
f 358/476/341 304/448/322 307/450/324 361/474/339
f 350/479/48 292/441/315 295/440/314 353/473/235
f 401/292/229 400/434/308 349/472/250 348/421/250
f 397/326/250 399/383/257 345/386/271 342/465/337
f 391/480/342 383/481/343 384/482/201 388/483/201
f 339/484/262 334/468/22 367/426/22 364/417/262
f 386/485/344 389/486/344 387/487/344 350/488/344
f 375/489/345 372/490/346 371/491/347 376/492/348
f 333/493/240 339/484/262 364/417/262 362/312/240
f 383/481/343 391/480/342 393/494/349 382/495/350
f 374/496/351 373/497/352 372/490/346 375/489/345
f 371/491/347 333/493/240 362/312/240 360/311/239
f 368/432/257 369/498/257 335/499/22 336/500/22
f 358/476/341 361/474/339 373/497/352 374/496/351
f 405/501/353 381/502/354 382/495/350 393/494/349
f 392/503/355 378/504/356 379/299/234 403/298/233
f 376/492/348 371/491/347 360/311/239 359/340/256
f 389/486/344 386/485/344 385/505/357 390/506/358
f 404/301/48 380/300/48 381/502/354 405/501/353
f 378/504/356 392/503/355 390/506/358 385/505/357
f 345/386/271 346/475/340 343/507/359 342/465/337
f 390/508/360 392/463/335 327/459/331 324/462/334
f 348/421/250 349/472/250 370/467/257 369/498/257
f 369/498/257 370/467/257 334/468/22 335/499/22
f 361/474/339 363/471/240 331/509/240 373/497/352
f 373/497/352 331/509/240 332/510/240 372/490/346
f 372/490/346 332/510/240 333/493/240 371/491/347
f 347/325/250 348/421/250 369/498/257 368/432/257
f 399/383/257 368/432/257 336/500/22 366/384/22
f 351/511/201 377/512/201 388/483/201 384/482/201
f 363/471/240 365/466/262 337/513/262 331/509/240
f 331/509/240 337/513/262 338/514/262 332/510/240
f 332/510/240 338/514/262 339/484/262 333/493/240
f 365/466/262 366/384/22 336/500/22 337/513/262
f 337/513/262 336/500/22 335/499/22 338/514/262
f 338/514/262 335/499/22 334/468/22 339/484/262
f 343/507/359 341/380/267 329/436/310 340/515/361
f 330/464/336 340/515/361 328/460/332 327/459/331
f 340/515/361 329/436/310 326/424/301 328/460/332
f 342/465/337 343/507/359 340/515/361 330/464/336
f 383/481/343 382/495/350 359/516/349 357/517/342
f 389/518/254 390/508/360 324/462/334 321/414/294
f 351/511/201 384/482/201 354/519/201 352/520/201
f 378/504/356 385/505/357 356/521/358 358/522/355
f 387/478/237 389/518/254 321/414/294 318/415/295
f 386/485/344 350/488/344 353/523/344 355/524/344
f 404/291/228 405/433/307 400/434/308 401/292/229
f 355/524/344 356/521/358 385/505/357 386/485/344
f 346/475/340 344/381/268 341/380/267 343/507/359
f 400/434/308 394/349/260 396/376/250 349/472/250
f 357/517/342 354/519/201 384/482/201 383/481/343
f 317/456/330 315/406/287 344/381/268 346/475/340
f 376/525/353 359/516/349 382/495/350 381/502/354
f 375/526/48 376/525/353 381/502/354 380/300/48
f 374/527/233 375/526/48 380/300/48 379/299/234
f 358/522/355 374/527/233 379/299/234 378/504/356
f 266/294/231 281/297/231 289/387/311 282/437/311
f 414/528/201 231/529/201 251/530/201 413/531/201
f 411/532/201 410/533/201 241/534/201 239/535/201
f 413/531/201 251/530/201 253/372/201 412/371/201
f 410/533/201 409/335/201 243/338/201 241/534/201
f 235/536/201 411/532/201 239/535/201 237/537/201
f 227/538/201 229/539/201 231/529/201 414/528/201
f 408/540/201 406/541/201 410/533/201 411/532/201
f 406/541/201 407/542/201 409/335/201 410/533/201
f 407/542/201 249/543/201 247/336/201 409/335/201
f 233/544/201 408/540/201 411/532/201 235/536/201
f 408/540/201 414/528/201 413/531/201 406/541/201
f 406/541/201 413/531/201 412/371/201 407/542/201
f 407/542/201 412/371/201 257/374/201 249/543/201
f 233/544/201 227/538/201 414/528/201 408/540/201
f 424/545/362 451/546/363 450/547/364 425/548/365
f 431/549/366 444/550/367 443/551/22 432/552/22
f 415/553/368 460/554/369 459/555/370 416/556/371
f 423/557/48 452/558/48 451/546/363 424/545/362
f 430/559/372 445/560/373 444/550/367 431/549/366
f 421/561/374 454/562/375 453/563/376 422/564/377
f 429/565/378 446/566/379 445/560/373 430/559/372
f 420/567/380 455/568/381 454/562/375 421/561/374
f 428/569/382 447/570/383 446/566/379 429/565/378
f 419/571/384 456/572/385 455/568/381 420/567/380
f 427/573/386 448/574/387 447/570/383 428/569/382
f 418/575/388 457/576/389 456/572/385 419/571/384
f 422/564/377 453/563/376 452/558/48 423/557/48
f 426/577/390 449/578/391 448/579/387 427/580/386
f 417/581/392 458/582/393 457/583/389 418/584/388
f 432/552/22 443/551/22 460/554/369 415/553/368
f 425/548/365 450/547/364 449/578/391 426/577/390
f 416/556/371 459/555/370 458/582/393 417/581/392
f 435/585/394 441/586/395 456/587/396 457/588/397
f 447/589/398 448/590/399 439/591/400 438/592/401
f 438/592/401 439/591/400 440/593/402 437/594/403
f 437/594/403 440/593/402 433/595/404 434/596/405
f 434/596/405 433/595/404 442/597/406 436/598/407
f 436/598/407 442/597/406 441/586/395 435/585/394
f 459/599/408 435/585/394 457/588/397 458/600/409
f 446/601/410 447/589/398 438/592/401 445/602/411
f 445/602/411 438/592/401 437/594/403 444/603/412
f 444/603/412 437/594/403 434/596/405 443/604/413
f 443/604/413 434/596/405 436/598/407 460/605/414
f 460/605/414 436/598/407 435/585/394 459/599/408
f 448/590/399 449/606/415 450/607/416 439/591/400
f 439/591/400 450/607/416 451/608/417 440/593/402
f 442/597/406 453/609/418 454/610/419 441/586/395
f 433/595/404 452/611/420 453/609/418 442/597/406
f 440/593/402 451/608/417 452/611/420 433/595/404
f 441/586/395 454/610/419 455/612/421 456/587/396
