# Blender 4.0.2
# www.blender.org
o cupcake_case
v 0.003803 0.003596 0.024160
v 0.004787 0.024841 0.031174
v 0.000989 0.003596 0.024437
v 0.001443 0.024841 0.031504
v 0.004533 0.000000 0.022788
v 0.000000 0.000000 0.023235
v -0.000000 0.024841 0.029802
v 0.002299 0.000000 0.023346
v 0.002444 0.003425 0.024690
v 0.003150 0.024841 0.032019
v 0.008443 0.003596 0.022953
v 0.010777 0.024841 0.029641
v 0.005737 0.003596 0.023774
v 0.007562 0.024841 0.030617
v 0.011405 0.024841 0.027533
v 0.008892 0.000000 0.021466
v 0.005814 0.024841 0.029229
v 0.006810 0.000000 0.022448
v 0.007214 0.003425 0.023739
v 0.009336 0.024841 0.030789
v 0.012759 0.003596 0.020865
v 0.016353 0.024841 0.026969
v 0.010265 0.003596 0.022198
v 0.013390 0.024841 0.028553
v 0.011058 0.000000 0.020689
v 0.011707 0.003425 0.021875
v 0.015163 0.024841 0.028376
v 0.016584 0.003596 0.017975
v 0.021300 0.024841 0.023261
v 0.014398 0.003596 0.019769
v 0.018703 0.024841 0.025392
v 0.021073 0.024841 0.021073
v 0.016429 0.000000 0.016429
v 0.012908 0.000000 0.019319
v 0.016557 0.024841 0.024779
v 0.014882 0.000000 0.018134
v 0.015749 0.003425 0.019171
v 0.020408 0.024841 0.024873
v 0.019772 0.003596 0.014394
v 0.025429 0.024841 0.018658
v 0.017978 0.003596 0.016580
v 0.023297 0.024841 0.021256
v 0.018134 0.000000 0.014882
v 0.019187 0.003425 0.015730
v 0.024868 0.024841 0.020413
v 0.022201 0.003596 0.010260
v 0.028580 0.024841 0.013339
v 0.020868 0.003596 0.012754
v 0.026996 0.024841 0.016302
v 0.027533 0.024841 0.011405
v 0.019319 0.000000 0.012908
v 0.024779 0.024841 0.016557
v 0.020689 0.000000 0.011058
v 0.021887 0.003425 0.011685
v 0.028373 0.024841 0.015170
v 0.023776 0.003596 0.005732
v 0.030633 0.024841 0.007507
v 0.022955 0.003596 0.008438
v 0.029658 0.024841 0.010722
v 0.029229 0.024841 0.005814
v 0.022788 0.000000 0.004533
v 0.021466 0.000000 0.008891
v 0.022448 0.000000 0.006810
v 0.023746 0.003425 0.007190
v 0.030787 0.024841 0.009343
v 0.024437 0.003596 0.000984
v 0.031509 0.024841 0.001387
v 0.024160 0.003596 0.003798
v 0.031180 0.024841 0.004730
v 0.023346 0.000000 0.002299
v 0.024692 0.003425 0.002419
v 0.032018 0.024841 0.003157
v 0.024160 0.003596 -0.003803
v 0.031174 0.024841 -0.004787
v 0.024437 0.003596 -0.000989
v 0.031504 0.024841 -0.001444
v 0.029229 0.024841 -0.005814
v 0.023235 0.000000 -0.000000
v 0.029802 0.024841 -0.000000
v 0.023346 0.000000 -0.002299
v 0.024690 0.003425 -0.002444
v 0.032019 0.024841 -0.003150
v 0.022953 0.003596 -0.008443
v 0.029641 0.024841 -0.010777
v 0.023774 0.003596 -0.005737
v 0.030617 0.024841 -0.007562
v 0.027533 0.024841 -0.011405
v 0.022788 0.000000 -0.004533
v 0.022448 0.000000 -0.006810
v 0.023739 0.003425 -0.007214
v 0.030789 0.024841 -0.009336
v 0.020865 0.003596 -0.012759
v 0.026969 0.024841 -0.016353
v 0.022198 0.003596 -0.010265
v 0.028553 0.024841 -0.013390
v 0.024779 0.024841 -0.016557
v 0.019319 0.000000 -0.012908
v 0.021466 0.000000 -0.008892
v 0.020689 0.000000 -0.011058
v 0.021875 0.003425 -0.011707
v 0.028376 0.024841 -0.015163
v 0.017975 0.003596 -0.016584
v 0.023261 0.024841 -0.021300
v 0.019769 0.003596 -0.014398
v 0.025392 0.024841 -0.018703
v 0.018134 0.000000 -0.014882
v 0.019171 0.003425 -0.015749
v 0.024873 0.024841 -0.020408
v 0.014394 0.003596 -0.019772
v 0.018658 0.024841 -0.025429
v 0.016580 0.003596 -0.017978
v 0.021256 0.024841 -0.023297
v 0.016429 0.000000 -0.016429
v 0.021073 0.024841 -0.021073
v 0.014882 0.000000 -0.018134
v 0.015730 0.003425 -0.019187
v 0.020413 0.024841 -0.024868
v 0.010260 0.003596 -0.022201
v 0.013339 0.024841 -0.028580
v 0.012754 0.003596 -0.020868
v 0.016302 0.024841 -0.026996
v 0.011405 0.024841 -0.027533
v 0.012908 0.000000 -0.019319
v 0.016557 0.024841 -0.024779
v 0.011058 0.000000 -0.020689
v 0.011685 0.003425 -0.021887
v 0.015170 0.024841 -0.028373
v 0.005732 0.003596 -0.023776
v 0.007507 0.024841 -0.030633
v 0.008438 0.003596 -0.022955
v 0.010722 0.024841 -0.029658
v 0.004533 0.000000 -0.022788
v 0.008891 0.000000 -0.021466
v 0.006810 0.000000 -0.022448
v 0.007190 0.003425 -0.023746
v 0.009343 0.024841 -0.030787
v 0.000984 0.003596 -0.024437
v 0.001387 0.024841 -0.031509
v 0.003798 0.003596 -0.024160
v 0.004730 0.024841 -0.031180
v -0.000000 0.024841 -0.029802
v 0.005814 0.024841 -0.029229
v 0.002299 0.000000 -0.023346
v 0.002419 0.003425 -0.024692
v 0.003157 0.024841 -0.032018
v -0.003803 0.003596 -0.024160
v -0.004787 0.024841 -0.031174
v -0.000989 0.003596 -0.024437
v -0.001444 0.024841 -0.031504
v -0.000000 0.000000 -0.023235
v -0.002299 0.000000 -0.023346
v -0.002444 0.003425 -0.024690
v -0.003150 0.024841 -0.032019
v -0.008443 0.003596 -0.022953
v -0.010777 0.024841 -0.029641
v -0.005737 0.003596 -0.023774
v -0.007562 0.024841 -0.030617
v -0.008892 0.000000 -0.021466
v -0.004533 0.000000 -0.022788
v -0.005814 0.024841 -0.029229
v -0.006810 0.000000 -0.022448
v -0.007214 0.003425 -0.023739
v -0.009336 0.024841 -0.030789
v -0.012759 0.003596 -0.020865
v -0.016353 0.024841 -0.026969
v -0.010265 0.003596 -0.022198
v -0.013390 0.024841 -0.028553
v -0.016557 0.024841 -0.024779
v -0.011405 0.024841 -0.027533
v -0.011058 0.000000 -0.020689
v -0.011707 0.003425 -0.021875
v -0.015163 0.024841 -0.028376
v -0.016584 0.003596 -0.017975
v -0.021300 0.024841 -0.023261
v -0.014398 0.003596 -0.019769
v -0.018703 0.024841 -0.025392
v -0.016429 0.000000 -0.016429
v -0.012908 0.000000 -0.019319
v -0.014882 0.000000 -0.018134
v -0.015749 0.003425 -0.019171
v -0.020408 0.024841 -0.024873
v -0.019772 0.003596 -0.014394
v -0.025429 0.024841 -0.018658
v -0.017978 0.003596 -0.016580
v -0.023297 0.024841 -0.021256
v -0.024779 0.024841 -0.016557
v -0.021073 0.024841 -0.021073
v -0.018134 0.000000 -0.014882
v -0.019187 0.003425 -0.015730
v -0.024868 0.024841 -0.020413
v -0.022201 0.003596 -0.010260
v -0.028580 0.024841 -0.013339
v -0.020868 0.003596 -0.012754
v -0.026996 0.024841 -0.016302
v -0.019319 0.000000 -0.012908
v -0.020689 0.000000 -0.011058
v -0.021887 0.003425 -0.011685
v -0.028373 0.024841 -0.015170
v -0.023776 0.003596 -0.005732
v -0.030633 0.024841 -0.007507
v -0.022955 0.003596 -0.008438
v -0.029658 0.024841 -0.010722
v -0.029229 0.024841 -0.005814
v -0.022788 0.000000 -0.004533
v -0.021466 0.000000 -0.008891
v -0.027533 0.024841 -0.011405
v -0.022448 0.000000 -0.006810
v -0.023746 0.003425 -0.007190
v -0.030787 0.024841 -0.009343
v -0.024437 0.003596 -0.000984
v -0.031509 0.024841 -0.001387
v -0.024160 0.003596 -0.003798
v -0.031180 0.024841 -0.004730
v -0.029802 0.024841 0.000000
v -0.023235 0.000000 0.000000
v -0.023346 0.000000 -0.002299
v -0.024692 0.003425 -0.002419
v -0.032018 0.024841 -0.003157
v -0.024160 0.003596 0.003803
v -0.031174 0.024841 0.004787
v -0.024437 0.003596 0.000989
v -0.031504 0.024841 0.001444
v -0.029229 0.024841 0.005814
v -0.023346 0.000000 0.002299
v -0.024690 0.003425 0.002444
v -0.032019 0.024841 0.003150
v -0.022953 0.003596 0.008443
v -0.029641 0.024841 0.010777
v -0.023774 0.003596 0.005737
v -0.030617 0.024841 0.007562
v -0.027533 0.024841 0.011405
v -0.021466 0.000000 0.008892
v -0.022788 0.000000 0.004533
v -0.022448 0.000000 0.006810
v -0.023739 0.003425 0.007214
v -0.030789 0.024841 0.009336
v -0.020865 0.003596 0.012759
v -0.026969 0.024841 0.016353
v -0.022198 0.003596 0.010265
v -0.028553 0.024841 0.013390
v -0.024779 0.024841 0.016557
v -0.019319 0.000000 0.012908
v -0.020689 0.000000 0.011058
v -0.021875 0.003425 0.011707
v -0.028376 0.024841 0.015163
v -0.017975 0.003596 0.016584
v -0.023261 0.024841 0.021300
v -0.019769 0.003596 0.014398
v -0.025392 0.024841 0.018703
v -0.018134 0.000000 0.014882
v -0.019171 0.003425 0.015749
v -0.024873 0.024841 0.020408
v -0.014394 0.003596 0.019772
v -0.018658 0.024841 0.025429
v -0.016580 0.003596 0.017978
v -0.021256 0.024841 0.023297
v -0.012908 0.000000 0.019319
v -0.016429 0.000000 0.016429
v -0.021073 0.024841 0.021073
v -0.014882 0.000000 0.018134
v -0.015730 0.003425 0.019187
v -0.020413 0.024841 0.024868
v -0.010260 0.003596 0.022201
v -0.013339 0.024841 0.028580
v -0.012754 0.003596 0.020868
v -0.016302 0.024841 0.026996
v -0.011405 0.024841 0.027533
v -0.008891 0.000000 0.021466
v -0.016557 0.024841 0.024779
v -0.011058 0.000000 0.020689
v -0.011685 0.003425 0.021887
v -0.015170 0.024841 0.028373
v -0.005732 0.003596 0.023776
v -0.007507 0.024841 0.030633
v -0.008438 0.003596 0.022955
v -0.010722 0.024841 0.029658
v -0.005814 0.024841 0.029229
v -0.006810 0.000000 0.022448
v -0.007190 0.003425 0.023746
v -0.009343 0.024841 0.030787
v -0.000984 0.003596 0.024437
v -0.001387 0.024841 0.031509
v -0.003798 0.003596 0.024160
v -0.004730 0.024841 0.031180
v -0.004533 0.000000 0.022788
v -0.002299 0.000000 0.023346
v -0.002419 0.003425 0.024692
v -0.003157 0.024841 0.032018
v 0.000000 0.000000 0.000000
v 0.003585 0.003728 0.023811
v 0.004555 0.024972 0.030839
v 0.001133 0.003728 0.024052
v 0.001604 0.024972 0.031130
v 0.004367 0.000486 0.021956
v -0.000000 0.000486 0.022386
v -0.000004 0.024994 0.029321
v 0.002269 0.000441 0.023042
v 0.002405 0.003577 0.024283
v 0.003110 0.025000 0.031604
v 0.008161 0.003728 0.022655
v 0.010484 0.024972 0.029358
v 0.005803 0.003728 0.023369
v 0.007647 0.024972 0.030218
v 0.011217 0.024994 0.027090
v 0.008566 0.000486 0.020682
v 0.005717 0.024994 0.028758
v 0.006721 0.000441 0.022156
v 0.007096 0.003577 0.023348
v 0.009216 0.025000 0.030390
v 0.012424 0.003728 0.020627
v 0.016010 0.024972 0.026749
v 0.010251 0.003728 0.021788
v 0.013395 0.024972 0.028146
v 0.010914 0.000441 0.020419
v 0.011514 0.003577 0.021515
v 0.014967 0.025000 0.028008
v 0.016209 0.003728 0.017807
v 0.020921 0.024972 0.023111
v 0.014305 0.003728 0.019370
v 0.018629 0.024972 0.024992
v 0.020730 0.024994 0.020735
v 0.015829 0.000486 0.015830
v 0.012437 0.000486 0.018614
v 0.016287 0.024994 0.024381
v 0.014688 0.000441 0.017898
v 0.015490 0.003577 0.018855
v 0.020144 0.025000 0.024550
v 0.019372 0.003728 0.014303
v 0.025027 0.024972 0.018586
v 0.017809 0.003728 0.016207
v 0.023146 0.024972 0.020877
v 0.017898 0.000441 0.014688
v 0.018871 0.003577 0.015471
v 0.024546 0.025000 0.020148
v 0.021790 0.003728 0.010249
v 0.028172 0.024972 0.013346
v 0.020628 0.003728 0.012421
v 0.026775 0.024972 0.015961
v 0.027087 0.024994 0.011224
v 0.018613 0.000486 0.012437
v 0.024377 0.024994 0.016293
v 0.020419 0.000441 0.010914
v 0.021527 0.003577 0.011492
v 0.028005 0.025000 0.014972
v 0.023371 0.003728 0.005801
v 0.030235 0.024972 0.007593
v 0.022655 0.003728 0.008158
v 0.029374 0.024972 0.010430
v 0.028757 0.024994 0.005724
v 0.021956 0.000486 0.004368
v 0.020682 0.000486 0.008567
v 0.022156 0.000441 0.006721
v 0.023355 0.003577 0.007071
v 0.030388 0.025000 0.009221
v 0.024053 0.003728 0.001130
v 0.031135 0.024972 0.001549
v 0.023811 0.003728 0.003582
v 0.030844 0.024972 0.004499
v 0.023043 0.000440 0.002270
v 0.024286 0.003577 0.002379
v 0.031603 0.025000 0.003115
v 0.023811 0.003728 -0.003585
v 0.030839 0.024972 -0.004555
v 0.024052 0.003728 -0.001133
v 0.031130 0.024972 -0.001604
v 0.028758 0.024994 -0.005717
v 0.022386 0.000486 0.000000
v 0.029321 0.024994 0.000004
v 0.023043 0.000440 -0.002269
v 0.024283 0.003577 -0.002405
v 0.031604 0.025000 -0.003110
v 0.022655 0.003728 -0.008161
v 0.029358 0.024972 -0.010484
v 0.023369 0.003728 -0.005803
v 0.030218 0.024972 -0.007647
v 0.027090 0.024994 -0.011217
v 0.021956 0.000486 -0.004367
v 0.022156 0.000441 -0.006721
v 0.023348 0.003577 -0.007096
v 0.030390 0.025000 -0.009216
v 0.020627 0.003728 -0.012424
v 0.026749 0.024972 -0.016010
v 0.021788 0.003728 -0.010251
v 0.028146 0.024972 -0.013395
v 0.024381 0.024994 -0.016287
v 0.018614 0.000486 -0.012437
v 0.020682 0.000486 -0.008566
v 0.020419 0.000441 -0.010914
v 0.021515 0.003577 -0.011514
v 0.028008 0.025000 -0.014967
v 0.017807 0.003728 -0.016209
v 0.023111 0.024972 -0.020921
v 0.019370 0.003728 -0.014305
v 0.024992 0.024972 -0.018629
v 0.017898 0.000441 -0.014688
v 0.018855 0.003577 -0.015490
v 0.024550 0.025000 -0.020144
v 0.014303 0.003728 -0.019372
v 0.018586 0.024972 -0.025027
v 0.016207 0.003728 -0.017809
v 0.020877 0.024972 -0.023146
v 0.015830 0.000486 -0.015829
v 0.020735 0.024994 -0.020730
v 0.014688 0.000441 -0.017898
v 0.015471 0.003577 -0.018871
v 0.020148 0.025000 -0.024546
v 0.010248 0.003728 -0.021790
v 0.013346 0.024972 -0.028172
v 0.012421 0.003728 -0.020628
v 0.015961 0.024972 -0.026775
v 0.011224 0.024994 -0.027087
v 0.012437 0.000486 -0.018613
v 0.016293 0.024994 -0.024377
v 0.010914 0.000441 -0.020419
v 0.011492 0.003577 -0.021527
v 0.014972 0.025000 -0.028005
v 0.005801 0.003728 -0.023371
v 0.007593 0.024972 -0.030235
v 0.008158 0.003728 -0.022655
v 0.010430 0.024972 -0.029374
v 0.004368 0.000486 -0.021956
v 0.008567 0.000486 -0.020682
v 0.006721 0.000441 -0.022156
v 0.007071 0.003577 -0.023355
v 0.009221 0.025000 -0.030388
v 0.001130 0.003728 -0.024053
v 0.001549 0.024972 -0.031135
v 0.003582 0.003728 -0.023811
v 0.004499 0.024972 -0.030844
v 0.000004 0.024994 -0.029321
v 0.005724 0.024994 -0.028757
v 0.002269 0.000441 -0.023042
v 0.002379 0.003577 -0.024286
v 0.003115 0.025000 -0.031603
v -0.003585 0.003728 -0.023811
v -0.004555 0.024972 -0.030839
v -0.001133 0.003728 -0.024052
v -0.001604 0.024972 -0.031130
v 0.000000 0.000486 -0.022386
v -0.002269 0.000441 -0.023042
v -0.002405 0.003577 -0.024283
v -0.003110 0.025000 -0.031604
v -0.008161 0.003728 -0.022655
v -0.010484 0.024972 -0.029358
v -0.005803 0.003728 -0.023369
v -0.007647 0.024972 -0.030218
v -0.008566 0.000486 -0.020682
v -0.004367 0.000486 -0.021956
v -0.005717 0.024994 -0.028758
v -0.006721 0.000441 -0.022156
v -0.007096 0.003577 -0.023348
v -0.009216 0.025000 -0.030390
v -0.012424 0.003728 -0.020627
v -0.016010 0.024972 -0.026749
v -0.010251 0.003728 -0.021788
v -0.013395 0.024972 -0.028146
v -0.016287 0.024994 -0.024381
v -0.011217 0.024994 -0.027090
v -0.010914 0.000441 -0.020419
v -0.011514 0.003577 -0.021515
v -0.014967 0.025000 -0.028008
v -0.016209 0.003728 -0.017807
v -0.020921 0.024972 -0.023111
v -0.014305 0.003728 -0.019370
v -0.018629 0.024972 -0.024992
v -0.015829 0.000486 -0.015830
v -0.012437 0.000486 -0.018614
v -0.014688 0.000441 -0.017898
v -0.015490 0.003577 -0.018855
v -0.020144 0.025000 -0.024550
v -0.019372 0.003728 -0.014303
v -0.025027 0.024972 -0.018586
v -0.017809 0.003728 -0.016207
v -0.023146 0.024972 -0.020877
v -0.024377 0.024994 -0.016293
v -0.020730 0.024994 -0.020735
v -0.017898 0.000441 -0.014688
v -0.018871 0.003577 -0.015471
v -0.024546 0.025000 -0.020148
v -0.021790 0.003728 -0.010248
v -0.028172 0.024972 -0.013346
v -0.020628 0.003728 -0.012421
v -0.026775 0.024972 -0.015961
v -0.018613 0.000486 -0.012437
v -0.020419 0.000441 -0.010914
v -0.021527 0.003577 -0.011492
v -0.028005 0.025000 -0.014972
v -0.023371 0.003728 -0.005801
v -0.030235 0.024972 -0.007593
v -0.022655 0.003728 -0.008158
v -0.029374 0.024972 -0.010430
v -0.028757 0.024994 -0.005724
v -0.021956 0.000486 -0.004368
v -0.020682 0.000486 -0.008567
v -0.027087 0.024994 -0.011224
v -0.022156 0.000441 -0.006721
v -0.023355 0.003577 -0.007071
v -0.030388 0.025000 -0.009221
v -0.024053 0.003728 -0.001130
v -0.031135 0.024972 -0.001549
v -0.023811 0.003728 -0.003582
v -0.030844 0.024972 -0.004499
v -0.029321 0.024994 -0.000004
v -0.022386 0.000486 -0.000000
v -0.023043 0.000440 -0.002270
v -0.024286 0.003577 -0.002379
v -0.031603 0.025000 -0.003115
v -0.023811 0.003728 0.003585
v -0.030839 0.024972 0.004555
v -0.024052 0.003728 0.001133
v -0.031130 0.024972 0.001604
v -0.028758 0.024994 0.005717
v -0.023043 0.000440 0.002269
v -0.024283 0.003577 0.002405
v -0.031604 0.025000 0.003110
v -0.022655 0.003728 0.008161
v -0.029358 0.024972 0.010484
v -0.023369 0.003728 0.005803
v -0.030218 0.024972 0.007647
v -0.027090 0.024994 0.011217
v -0.020682 0.000486 0.008566
v -0.021956 0.000486 0.004367
v -0.022156 0.000441 0.006721
v -0.023348 0.003577 0.007096
v -0.030390 0.025000 0.009216
v -0.020627 0.003728 0.012424
v -0.026748 0.024972 0.016010
v -0.021788 0.003728 0.010251
v -0.028146 0.024972 0.013395
v -0.024381 0.024994 0.016287
v -0.018614 0.000486 0.012437
v -0.020419 0.000441 0.010914
v -0.021515 0.003577 0.011514
v -0.028008 0.025000 0.014967
v -0.017807 0.003728 0.016209
v -0.023111 0.024972 0.020921
v -0.019370 0.003728 0.014305
v -0.024992 0.024972 0.018629
v -0.017898 0.000441 0.014688
v -0.018855 0.003577 0.015490
v -0.024550 0.025000 0.020144
v -0.014303 0.003728 0.019372
v -0.018586 0.024972 0.025027
v -0.016207 0.003728 0.017809
v -0.020877 0.024972 0.023146
v -0.012437 0.000486 0.018613
v -0.015830 0.000486 0.015829
v -0.020735 0.024994 0.020730
v -0.014688 0.000441 0.017898
v -0.015471 0.003577 0.018871
v -0.020148 0.025000 0.024546
v -0.010248 0.003728 0.021790
v -0.013346 0.024972 0.028172
v -0.012421 0.003728 0.020628
v -0.015961 0.024972 0.026775
v -0.011224 0.024994 0.027087
v -0.008567 0.000486 0.020682
v -0.016293 0.024994 0.024377
v -0.010914 0.000441 0.020419
v -0.011492 0.003577 0.021527
v -0.014972 0.025000 0.028005
v -0.005801 0.003728 0.023371
v -0.007593 0.024972 0.030235
v -0.008158 0.003728 0.022655
v -0.010430 0.024972 0.029374
v -0.005724 0.024994 0.028757
v -0.006721 0.000441 0.022156
v -0.007071 0.003577 0.023355
v -0.009221 0.025000 0.030388
v -0.001130 0.003728 0.024053
v -0.001549 0.024972 0.031135
v -0.003582 0.003728 0.023811
v -0.004499 0.024972 0.030844
v -0.004368 0.000486 0.021956
v -0.002269 0.000441 0.023042
v -0.002379 0.003577 0.024286
v -0.003115 0.025000 0.031603
v -0.000000 0.000486 -0.000000
vn 0.0927 -0.3238 0.9416
vn 0.0928 -0.3225 0.9420
vn -0.4239 -0.2689 0.8649
vn -0.3968 -0.2751 0.8757
vn 0.5856 -0.2694 0.7645
vn 0.5611 -0.2761 0.7803
vn 0.4652 -0.5203 0.7162
vn 0.7419 -0.2213 0.6329
vn -0.5179 -0.2441 0.8199
vn 0.0926 -0.3307 0.9392
vn -0.5937 -0.2229 0.7732
vn 0.2746 -0.3238 0.9054
vn 0.2747 -0.3225 0.9058
vn -0.2470 -0.2689 0.9310
vn -0.2183 -0.2751 0.9363
vn 0.7235 -0.2694 0.6356
vn 0.7026 -0.2761 0.6558
vn 0.5960 -0.5203 0.6117
vn 0.8511 -0.2213 0.4760
vn -0.3480 -0.2441 0.9051
vn 0.2740 -0.3307 0.9031
vn -0.4314 -0.2229 0.8742
vn 0.4460 -0.3239 0.8344
vn 0.4462 -0.3225 0.8348
vn -0.0606 -0.2689 0.9613
vn -0.0314 -0.2751 0.9609
vn 0.8336 -0.2694 0.4823
vn 0.8170 -0.2761 0.5062
vn 0.7038 -0.5203 0.4837
vn 0.9277 -0.2213 0.3008
vn -0.1648 -0.2441 0.9556
vn 0.4450 -0.3307 0.8322
vn -0.2526 -0.2229 0.9416
vn 0.6002 -0.3238 0.7314
vn 0.6005 -0.3225 0.7317
vn 0.1281 -0.2689 0.9546
vn 0.1566 -0.2751 0.9486
vn 0.9116 -0.2694 0.3104
vn 0.9001 -0.2761 0.3371
vn 0.7847 -0.5203 0.3371
vn 0.9685 -0.2213 0.1141
vn 0.0248 -0.2441 0.9694
vn 0.5988 -0.3307 0.7294
vn -0.0640 -0.2229 0.9727
vn 0.7314 -0.3238 0.6002
vn 0.7317 -0.3225 0.6005
vn 0.3119 -0.2689 0.9113
vn 0.3387 -0.2751 0.8998
vn 0.9547 -0.2694 0.1265
vn 0.9486 -0.2761 0.1550
vn 0.8354 -0.5203 0.1775
vn 0.9722 -0.2213 -0.0771
vn 0.2135 -0.2441 0.9460
vn 0.7296 -0.3307 0.5986
vn 0.1270 -0.2229 0.9665
vn 0.8344 -0.3238 0.4460
vn 0.8348 -0.3225 0.4462
vn 0.4837 -0.2689 0.8329
vn 0.5077 -0.2751 0.8164
vn 0.9610 -0.2694 -0.0621
vn 0.9606 -0.2761 -0.0330
vn 0.8539 -0.5203 0.0111
vn 0.9385 -0.2213 -0.2652
vn 0.3939 -0.2441 0.8861
vn 0.8323 -0.3307 0.4448
vn 0.3131 -0.2229 0.9232
vn 0.9054 -0.3238 0.2747
vn 0.9058 -0.3225 0.2747
vn 0.6369 -0.2689 0.7226
vn 0.6572 -0.2751 0.7017
vn 0.9304 -0.2694 -0.2484
vn 0.9357 -0.2761 -0.2198
vn 0.8397 -0.5203 -0.1557
vn 0.8687 -0.2213 -0.4432
vn 0.5592 -0.2441 0.7922
vn 0.9031 -0.3307 0.2739
vn 0.4872 -0.2229 0.8444
vn 0.9416 -0.3239 0.0928
vn 0.9420 -0.3225 0.0928
vn 0.7656 -0.2689 0.5845
vn 0.7815 -0.2751 0.5600
vn 0.8641 -0.2694 -0.4252
vn 0.8748 -0.2761 -0.3981
vn 0.7932 -0.5202 -0.3166
vn 0.7655 -0.2213 -0.6042
vn 0.7031 -0.2441 0.6679
vn 0.9392 -0.3307 0.0924
vn 0.6425 -0.2229 0.7331
vn 0.9416 -0.3238 -0.0927
vn 0.9420 -0.3225 -0.0927
vn 0.8649 -0.2689 0.4239
vn 0.8757 -0.2751 0.3968
vn 0.7645 -0.2694 -0.5856
vn 0.7803 -0.2761 -0.5611
vn 0.7162 -0.5202 -0.4652
vn 0.6329 -0.2213 -0.7419
vn 0.8199 -0.2441 0.5179
vn 0.9392 -0.3307 -0.0926
vn 0.7732 -0.2229 0.5937
vn 0.9054 -0.3238 -0.2746
vn 0.9058 -0.3225 -0.2748
vn 0.9310 -0.2689 0.2470
vn 0.9363 -0.2751 0.2183
vn 0.6356 -0.2694 -0.7235
vn 0.6559 -0.2761 -0.7026
vn 0.6117 -0.5202 -0.5960
vn 0.4760 -0.2213 -0.8511
vn 0.9051 -0.2441 0.3480
vn 0.9031 -0.3307 -0.2740
vn 0.8742 -0.2229 0.4314
vn 0.8344 -0.3238 -0.4460
vn 0.8348 -0.3225 -0.4462
vn 0.9613 -0.2689 0.0606
vn 0.9609 -0.2751 0.0314
vn 0.4823 -0.2694 -0.8336
vn 0.5062 -0.2761 -0.8170
vn 0.4836 -0.5202 -0.7039
vn 0.3008 -0.2213 -0.9277
vn 0.9556 -0.2441 0.1648
vn 0.8322 -0.3307 -0.4450
vn 0.9416 -0.2229 0.2526
vn 0.7314 -0.3238 -0.6002
vn 0.7317 -0.3225 -0.6005
vn 0.9546 -0.2689 -0.1281
vn 0.9486 -0.2751 -0.1566
vn 0.3104 -0.2694 -0.9116
vn 0.3371 -0.2761 -0.9001
vn 0.3370 -0.5202 -0.7847
vn 0.1141 -0.2213 -0.9685
vn 0.9694 -0.2441 -0.0248
vn 0.7294 -0.3307 -0.5988
vn 0.9727 -0.2229 0.0640
vn 0.6002 -0.3238 -0.7314
vn 0.6005 -0.3225 -0.7317
vn 0.9113 -0.2689 -0.3119
vn 0.8998 -0.2751 -0.3387
vn 0.1265 -0.2694 -0.9547
vn 0.1550 -0.2761 -0.9486
vn 0.1775 -0.5202 -0.8354
vn -0.0771 -0.2213 -0.9722
vn 0.9460 -0.2441 -0.2135
vn 0.5986 -0.3307 -0.7296
vn 0.9665 -0.2229 -0.1270
vn 0.4460 -0.3239 -0.8344
vn 0.4463 -0.3225 -0.8348
vn 0.8329 -0.2689 -0.4837
vn 0.8164 -0.2751 -0.5077
vn -0.0621 -0.2694 -0.9610
vn -0.0330 -0.2761 -0.9606
vn 0.0111 -0.5202 -0.8539
vn -0.2652 -0.2213 -0.9385
vn 0.8861 -0.2441 -0.3939
vn 0.4448 -0.3307 -0.8323
vn 0.9232 -0.2229 -0.3131
vn 0.2747 -0.3238 -0.9054
vn 0.2748 -0.3225 -0.9058
vn 0.7226 -0.2689 -0.6369
vn 0.7017 -0.2751 -0.6572
vn -0.2484 -0.2694 -0.9304
vn -0.2198 -0.2761 -0.9357
vn -0.1557 -0.5202 -0.8397
vn -0.4432 -0.2213 -0.8687
vn 0.7922 -0.2441 -0.5592
vn 0.2739 -0.3307 -0.9031
vn 0.8444 -0.2229 -0.4872
vn 0.0927 -0.3238 -0.9416
vn 0.0928 -0.3225 -0.9420
vn 0.5845 -0.2689 -0.7656
vn 0.5600 -0.2751 -0.7815
vn -0.4252 -0.2694 -0.8641
vn -0.3981 -0.2761 -0.8748
vn -0.3166 -0.5202 -0.7932
vn -0.6042 -0.2213 -0.7655
vn 0.6679 -0.2441 -0.7031
vn 0.0924 -0.3307 -0.9392
vn 0.7331 -0.2229 -0.6425
vn -0.0927 -0.3238 -0.9416
vn -0.0928 -0.3225 -0.9420
vn 0.4239 -0.2689 -0.8649
vn 0.3968 -0.2751 -0.8757
vn -0.5856 -0.2694 -0.7645
vn -0.5611 -0.2761 -0.7803
vn -0.4652 -0.5202 -0.7162
vn -0.7419 -0.2213 -0.6329
vn 0.5179 -0.2441 -0.8199
vn -0.0926 -0.3307 -0.9392
vn 0.5937 -0.2229 -0.7732
vn -0.2746 -0.3238 -0.9054
vn -0.2748 -0.3225 -0.9058
vn 0.2470 -0.2689 -0.9310
vn 0.2183 -0.2751 -0.9363
vn -0.7235 -0.2694 -0.6356
vn -0.7026 -0.2761 -0.6559
vn -0.5960 -0.5202 -0.6117
vn -0.8511 -0.2213 -0.4760
vn 0.3480 -0.2441 -0.9051
vn -0.2740 -0.3307 -0.9031
vn 0.4314 -0.2229 -0.8742
vn -0.4460 -0.3238 -0.8344
vn -0.4462 -0.3225 -0.8348
vn 0.0606 -0.2689 -0.9613
vn 0.0314 -0.2751 -0.9609
vn -0.8336 -0.2694 -0.4823
vn -0.8170 -0.2761 -0.5062
vn -0.7039 -0.5202 -0.4836
vn -0.9277 -0.2213 -0.3008
vn 0.1648 -0.2441 -0.9556
vn -0.4450 -0.3307 -0.8322
vn 0.2526 -0.2229 -0.9416
vn -0.6002 -0.3238 -0.7314
vn -0.6005 -0.3225 -0.7317
vn -0.1281 -0.2689 -0.9546
vn -0.1566 -0.2751 -0.9486
vn -0.9116 -0.2694 -0.3104
vn -0.9001 -0.2761 -0.3371
vn -0.7847 -0.5203 -0.3371
vn -0.9685 -0.2213 -0.1141
vn -0.0248 -0.2441 -0.9694
vn -0.5988 -0.3307 -0.7294
vn 0.0640 -0.2229 -0.9727
vn -0.7314 -0.3238 -0.6002
vn -0.7317 -0.3225 -0.6005
vn -0.3119 -0.2689 -0.9113
vn -0.3387 -0.2751 -0.8998
vn -0.9547 -0.2694 -0.1265
vn -0.9486 -0.2761 -0.1550
vn -0.8354 -0.5203 -0.1775
vn -0.9722 -0.2213 0.0771
vn -0.2135 -0.2441 -0.9460
vn -0.7296 -0.3307 -0.5986
vn -0.1270 -0.2229 -0.9665
vn -0.8344 -0.3238 -0.4460
vn -0.8348 -0.3225 -0.4462
vn -0.4837 -0.2689 -0.8329
vn -0.5077 -0.2751 -0.8164
vn -0.9610 -0.2694 0.0621
vn -0.9606 -0.2761 0.0330
vn -0.8539 -0.5203 -0.0111
vn -0.9385 -0.2213 0.2652
vn -0.3939 -0.2441 -0.8861
vn -0.8323 -0.3307 -0.4448
vn -0.3131 -0.2229 -0.9232
vn -0.9054 -0.3238 -0.2747
vn -0.9058 -0.3225 -0.2748
vn -0.6369 -0.2689 -0.7226
vn -0.6572 -0.2751 -0.7017
vn -0.9304 -0.2694 0.2484
vn -0.9357 -0.2761 0.2198
vn -0.8397 -0.5203 0.1557
vn -0.8687 -0.2213 0.4432
vn -0.5592 -0.2441 -0.7922
vn -0.9031 -0.3307 -0.2739
vn -0.4872 -0.2229 -0.8444
vn -0.9416 -0.3238 -0.0927
vn -0.9420 -0.3225 -0.0928
vn -0.7656 -0.2689 -0.5845
vn -0.7815 -0.2751 -0.5600
vn -0.8641 -0.2694 0.4252
vn -0.8748 -0.2761 0.3981
vn -0.7932 -0.5203 0.3165
vn -0.7655 -0.2213 0.6042
vn -0.7031 -0.2441 -0.6679
vn -0.9392 -0.3307 -0.0924
vn -0.6425 -0.2229 -0.7331
vn -0.9416 -0.3238 0.0927
vn -0.9420 -0.3225 0.0928
vn -0.8649 -0.2689 -0.4239
vn -0.8757 -0.2751 -0.3967
vn -0.7645 -0.2694 0.5856
vn -0.7803 -0.2761 0.5611
vn -0.7162 -0.5203 0.4652
vn -0.6329 -0.2213 0.7419
vn -0.8199 -0.2441 -0.5179
vn -0.9392 -0.3307 0.0926
vn -0.7732 -0.2229 -0.5937
vn -0.9054 -0.3238 0.2746
vn -0.9058 -0.3225 0.2748
vn -0.9310 -0.2689 -0.2470
vn -0.9363 -0.2751 -0.2183
vn -0.6356 -0.2694 0.7235
vn -0.6559 -0.2761 0.7026
vn -0.6117 -0.5203 0.5960
vn -0.4760 -0.2213 0.8511
vn -0.9051 -0.2441 -0.3480
vn -0.9031 -0.3307 0.2740
vn -0.8742 -0.2229 -0.4314
vn -0.8344 -0.3238 0.4460
vn -0.8348 -0.3225 0.4461
vn -0.9613 -0.2689 -0.0606
vn -0.9609 -0.2751 -0.0314
vn -0.4823 -0.2694 0.8336
vn -0.5062 -0.2761 0.8170
vn -0.4837 -0.5203 0.7038
vn -0.3008 -0.2213 0.9277
vn -0.9556 -0.2441 -0.1648
vn -0.8322 -0.3307 0.4450
vn -0.9416 -0.2229 -0.2526
vn -0.7314 -0.3238 0.6002
vn -0.7317 -0.3225 0.6004
vn -0.9546 -0.2689 0.1281
vn -0.9486 -0.2751 0.1566
vn -0.3104 -0.2694 0.9116
vn -0.3371 -0.2761 0.9001
vn -0.3371 -0.5203 0.7847
vn -0.1141 -0.2213 0.9685
vn -0.9694 -0.2441 0.0248
vn -0.7294 -0.3307 0.5988
vn -0.9727 -0.2229 -0.0640
vn -0.6002 -0.3238 0.7314
vn -0.6005 -0.3225 0.7317
vn -0.9113 -0.2689 0.3119
vn -0.8998 -0.2751 0.3387
vn -0.1265 -0.2694 0.9547
vn -0.1550 -0.2761 0.9486
vn -0.1775 -0.5203 0.8354
vn 0.0771 -0.2213 0.9722
vn -0.9460 -0.2441 0.2135
vn -0.5986 -0.3307 0.7296
vn -0.9665 -0.2229 0.1270
vn -0.4460 -0.3238 0.8344
vn -0.4462 -0.3225 0.8348
vn -0.8329 -0.2689 0.4837
vn -0.8164 -0.2751 0.5077
vn 0.0621 -0.2694 0.9610
vn 0.0330 -0.2761 0.9606
vn -0.0111 -0.5203 0.8539
vn 0.2652 -0.2213 0.9385
vn -0.8861 -0.2441 0.3939
vn -0.4448 -0.3307 0.8323
vn -0.9232 -0.2229 0.3131
vn -0.2747 -0.3238 0.9054
vn -0.2748 -0.3225 0.9058
vn -0.7226 -0.2689 0.6369
vn -0.7017 -0.2751 0.6572
vn 0.2484 -0.2694 0.9304
vn 0.2198 -0.2761 0.9357
vn 0.1557 -0.5203 0.8397
vn 0.4432 -0.2213 0.8687
vn -0.7922 -0.2441 0.5592
vn -0.2739 -0.3307 0.9031
vn -0.8444 -0.2229 0.4872
vn -0.0927 -0.3238 0.9416
vn -0.0928 -0.3225 0.9420
vn -0.5845 -0.2689 0.7656
vn -0.5600 -0.2751 0.7815
vn 0.4252 -0.2694 0.8641
vn 0.3981 -0.2761 0.8748
vn 0.3165 -0.5202 0.7932
vn 0.6042 -0.2213 0.7655
vn -0.6679 -0.2441 0.7031
vn -0.0924 -0.3307 0.9392
vn -0.7331 -0.2229 0.6426
vn -0.0000 -1.0000 -0.0000
vn -0.0926 0.3320 -0.9387
vn 0.4082 0.2966 -0.8634
vn 0.4983 0.2585 -0.8275
vn -0.0926 0.3225 -0.9420
vn -0.6520 0.2589 -0.7127
vn -0.7965 0.2116 -0.5665
vn -0.7545 0.2323 -0.6138
vn -0.6349 0.2675 -0.7248
vn -0.0907 0.3837 -0.9190
vn 0.2778 0.1291 -0.9519
vn 0.6611 0.2135 -0.7192
vn -0.2740 0.3320 -0.9026
vn 0.2319 0.2966 -0.9264
vn 0.3273 0.2585 -0.9089
vn -0.2746 0.3225 -0.9059
vn -0.7785 0.2589 -0.5718
vn -0.8917 0.2116 -0.4002
vn -0.8598 0.2323 -0.4548
vn -0.7641 0.2675 -0.5870
vn -0.2683 0.3837 -0.8836
vn 0.0868 0.1291 -0.9878
vn 0.5081 0.2135 -0.8344
vn -0.4448 0.3320 -0.8318
vn 0.0467 0.2966 -0.9539
vn 0.1437 0.2585 -0.9552
vn -0.4461 0.3225 -0.8348
vn -0.8751 0.2589 -0.4089
vn -0.9526 0.2116 -0.2185
vn -0.9320 0.2323 -0.2783
vn -0.8640 0.2675 -0.4266
vn -0.4351 0.3837 -0.8145
vn -0.1076 0.1291 -0.9858
vn 0.3356 0.2135 -0.9175
vn -0.5986 0.3320 -0.7291
vn -0.1403 0.2966 -0.9446
vn -0.0454 0.2585 -0.9649
vn -0.6004 0.3225 -0.7318
vn -0.9380 0.2589 -0.2303
vn -0.9769 0.2116 -0.0285
vn -0.9684 0.2323 -0.0912
vn -0.9306 0.2675 -0.2499
vn -0.5860 0.3837 -0.7137
vn -0.2978 0.1291 -0.9458
vn 0.1501 0.2135 -0.9653
vn -0.7293 0.3320 -0.5983
vn -0.3219 0.2966 -0.8991
vn -0.2328 0.2585 -0.9375
vn -0.7316 0.3225 -0.6007
vn -0.9650 0.2589 -0.0429
vn -0.9637 0.2116 0.1626
vn -0.9675 0.2323 0.0995
vn -0.9615 0.2675 -0.0635
vn -0.7140 0.3837 -0.5857
vn -0.4766 0.1291 -0.8696
vn -0.0411 0.2135 -0.9761
vn -0.8320 0.3320 -0.4445
vn -0.4911 0.2966 -0.8191
vn -0.4112 0.2585 -0.8741
vn -0.8347 0.3225 -0.4463
vn -0.9548 0.2589 0.1462
vn -0.9135 0.2116 0.3475
vn -0.9295 0.2323 0.2863
vn -0.9554 0.2675 0.1253
vn -0.8145 0.3837 -0.4351
vn -0.6371 0.1291 -0.7599
vn -0.2307 0.2135 -0.9493
vn -0.9027 0.3320 -0.2736
vn -0.6414 0.2966 -0.7075
vn -0.5738 0.2585 -0.7771
vn -0.9058 0.3225 -0.2749
vn -0.9079 0.2589 0.3296
vn -0.8281 0.2116 0.5191
vn -0.8558 0.2323 0.4622
vn -0.9126 0.2675 0.3092
vn -0.8838 0.3837 -0.2678
vn -0.7731 0.1291 -0.6210
vn -0.4115 0.2135 -0.8861
vn -0.9388 0.3320 -0.0923
vn -0.7671 0.2965 -0.5690
vn -0.7144 0.2585 -0.6502
vn -0.9420 0.3225 -0.0929
vn -0.8262 0.2589 0.5004
vn -0.7110 0.2116 0.6706
vn -0.7492 0.2323 0.6203
vn -0.8347 0.2675 0.4814
vn -0.9191 0.3835 -0.0907
vn -0.8792 0.1290 -0.4586
vn -0.5764 0.2135 -0.7888
vn -0.9387 0.3320 0.0926
vn -0.8633 0.2965 -0.4084
vn -0.8275 0.2585 -0.4983
vn -0.9420 0.3225 0.0927
vn -0.7127 0.2589 0.6520
vn -0.5665 0.2116 0.7965
vn -0.6138 0.2323 0.7545
vn -0.7247 0.2675 0.6350
vn -0.9191 0.3835 0.0901
vn -0.9518 0.1290 -0.2782
vn -0.7192 0.2135 -0.6611
vn -0.9026 0.3320 0.2740
vn -0.9264 0.2966 -0.2319
vn -0.9089 0.2585 -0.3273
vn -0.9058 0.3225 0.2746
vn -0.5718 0.2589 0.7785
vn -0.4002 0.2116 0.8917
vn -0.4548 0.2323 0.8598
vn -0.5870 0.2675 0.7641
vn -0.8836 0.3837 0.2683
vn -0.9878 0.1291 -0.0868
vn -0.8344 0.2135 -0.5081
vn -0.8318 0.3320 0.4448
vn -0.9539 0.2966 -0.0467
vn -0.9552 0.2585 -0.1437
vn -0.8348 0.3225 0.4461
vn -0.4089 0.2589 0.8751
vn -0.2185 0.2116 0.9526
vn -0.2783 0.2323 0.9320
vn -0.4266 0.2675 0.8640
vn -0.8145 0.3837 0.4352
vn -0.9858 0.1291 0.1076
vn -0.9175 0.2135 -0.3356
vn -0.7291 0.3320 0.5986
vn -0.9446 0.2966 0.1403
vn -0.9649 0.2585 0.0454
vn -0.7318 0.3225 0.6004
vn -0.2303 0.2589 0.9380
vn -0.0285 0.2116 0.9769
vn -0.0912 0.2323 0.9684
vn -0.2499 0.2675 0.9306
vn -0.7139 0.3837 0.5857
vn -0.9458 0.1291 0.2978
vn -0.9653 0.2135 -0.1501
vn -0.5983 0.3320 0.7293
vn -0.8991 0.2966 0.3219
vn -0.9375 0.2585 0.2328
vn -0.6006 0.3225 0.7316
vn -0.0429 0.2589 0.9650
vn 0.1626 0.2116 0.9637
vn 0.0995 0.2323 0.9675
vn -0.0635 0.2675 0.9615
vn -0.5859 0.3837 0.7137
vn -0.8696 0.1291 0.4766
vn -0.9761 0.2135 0.0411
vn -0.4445 0.3320 0.8320
vn -0.8191 0.2966 0.4911
vn -0.8741 0.2585 0.4112
vn -0.4463 0.3225 0.8347
vn 0.1462 0.2589 0.9548
vn 0.3475 0.2116 0.9135
vn 0.2863 0.2323 0.9295
vn 0.1253 0.2675 0.9554
vn -0.4351 0.3837 0.8145
vn -0.7599 0.1291 0.6371
vn -0.9493 0.2135 0.2307
vn -0.2736 0.3320 0.9027
vn -0.7075 0.2966 0.6414
vn -0.7771 0.2585 0.5738
vn -0.2749 0.3225 0.9058
vn 0.3296 0.2589 0.9079
vn 0.5191 0.2116 0.8281
vn 0.4622 0.2323 0.8558
vn 0.3093 0.2675 0.9126
vn -0.2678 0.3837 0.8838
vn -0.6210 0.1291 0.7731
vn -0.8861 0.2135 0.4115
vn -0.0923 0.3320 0.9388
vn -0.5688 0.2966 0.7672
vn -0.6502 0.2585 0.7144
vn -0.0929 0.3225 0.9420
vn 0.5004 0.2589 0.8262
vn 0.6706 0.2116 0.7110
vn 0.6203 0.2323 0.7492
vn 0.4813 0.2675 0.8347
vn -0.0903 0.3837 0.9190
vn -0.4582 0.1291 0.8794
vn -0.7888 0.2135 0.5764
vn 0.0926 0.3320 0.9387
vn -0.4082 0.2966 0.8634
vn -0.4983 0.2585 0.8275
vn 0.0927 0.3225 0.9420
vn 0.6520 0.2589 0.7127
vn 0.7965 0.2116 0.5665
vn 0.7545 0.2323 0.6138
vn 0.6349 0.2675 0.7248
vn 0.0907 0.3837 0.9190
vn -0.2778 0.1291 0.9519
vn -0.6611 0.2135 0.7192
vn 0.2740 0.3320 0.9026
vn -0.2319 0.2966 0.9264
vn -0.3273 0.2585 0.9089
vn 0.2746 0.3225 0.9058
vn 0.7785 0.2589 0.5718
vn 0.8917 0.2116 0.4002
vn 0.8598 0.2323 0.4548
vn 0.7641 0.2675 0.5870
vn 0.2683 0.3837 0.8836
vn -0.0868 0.1291 0.9878
vn -0.5081 0.2135 0.8344
vn 0.4448 0.3320 0.8318
vn -0.0467 0.2966 0.9539
vn -0.1437 0.2585 0.9552
vn 0.4461 0.3225 0.8349
vn 0.8751 0.2589 0.4089
vn 0.9526 0.2116 0.2185
vn 0.9320 0.2323 0.2783
vn 0.8640 0.2675 0.4266
vn 0.4355 0.3837 0.8143
vn 0.1076 0.1291 0.9858
vn -0.3356 0.2135 0.9175
vn 0.5986 0.3320 0.7291
vn 0.1403 0.2966 0.9446
vn 0.0454 0.2585 0.9649
vn 0.6004 0.3225 0.7318
vn 0.9380 0.2589 0.2303
vn 0.9769 0.2116 0.0285
vn 0.9684 0.2323 0.0912
vn 0.9306 0.2675 0.2499
vn 0.5860 0.3837 0.7137
vn 0.2978 0.1291 0.9458
vn -0.1501 0.2135 0.9653
vn 0.7293 0.3320 0.5983
vn 0.3219 0.2966 0.8991
vn 0.2328 0.2585 0.9375
vn 0.7316 0.3225 0.6006
vn 0.9650 0.2589 0.0429
vn 0.9637 0.2116 -0.1626
vn 0.9675 0.2323 -0.0995
vn 0.9615 0.2675 0.0635
vn 0.7137 0.3837 0.5860
vn 0.4766 0.1291 0.8696
vn 0.0411 0.2135 0.9761
vn 0.8320 0.3320 0.4445
vn 0.4911 0.2966 0.8191
vn 0.4112 0.2585 0.8741
vn 0.8347 0.3225 0.4464
vn 0.9548 0.2589 -0.1462
vn 0.9135 0.2116 -0.3475
vn 0.9295 0.2323 -0.2863
vn 0.9554 0.2675 -0.1253
vn 0.8145 0.3837 0.4351
vn 0.6371 0.1291 0.7599
vn 0.2307 0.2135 0.9493
vn 0.9027 0.3320 0.2736
vn 0.6414 0.2966 0.7075
vn 0.5738 0.2585 0.7771
vn 0.9058 0.3225 0.2749
vn 0.9079 0.2589 -0.3296
vn 0.8281 0.2116 -0.5191
vn 0.8558 0.2323 -0.4622
vn 0.9126 0.2675 -0.3092
vn 0.8838 0.3837 0.2678
vn 0.7731 0.1291 0.6210
vn 0.4115 0.2135 0.8861
vn 0.9388 0.3320 0.0923
vn 0.7671 0.2965 0.5690
vn 0.7144 0.2585 0.6502
vn 0.9420 0.3225 0.0929
vn 0.8262 0.2589 -0.5004
vn 0.7110 0.2116 -0.6706
vn 0.7492 0.2323 -0.6203
vn 0.8347 0.2675 -0.4814
vn 0.9191 0.3835 0.0903
vn 0.8792 0.1290 0.4586
vn 0.5764 0.2135 0.7888
vn 0.9387 0.3320 -0.0926
vn 0.8633 0.2965 0.4084
vn 0.8275 0.2585 0.4983
vn 0.9420 0.3225 -0.0927
vn 0.7127 0.2589 -0.6520
vn 0.5665 0.2116 -0.7965
vn 0.6138 0.2323 -0.7545
vn 0.7247 0.2675 -0.6350
vn 0.9191 0.3835 -0.0908
vn 0.9518 0.1290 0.2782
vn 0.7192 0.2135 0.6611
vn 0.9026 0.3320 -0.2740
vn 0.9264 0.2966 0.2319
vn 0.9089 0.2585 0.3273
vn 0.9058 0.3225 -0.2747
vn 0.5718 0.2589 -0.7785
vn 0.4002 0.2116 -0.8917
vn 0.4548 0.2323 -0.8598
vn 0.5870 0.2675 -0.7641
vn 0.8836 0.3837 -0.2683
vn 0.9878 0.1291 0.0868
vn 0.8344 0.2135 0.5081
vn 0.8318 0.3320 -0.4448
vn 0.9539 0.2966 0.0467
vn 0.9552 0.2585 0.1437
vn 0.8348 0.3225 -0.4462
vn 0.4089 0.2589 -0.8751
vn 0.2185 0.2116 -0.9526
vn 0.2783 0.2323 -0.9320
vn 0.4266 0.2675 -0.8640
vn 0.8143 0.3837 -0.4355
vn 0.9858 0.1291 -0.1076
vn 0.9175 0.2135 0.3356
vn 0.7291 0.3320 -0.5986
vn 0.9446 0.2966 -0.1403
vn 0.9649 0.2585 -0.0454
vn 0.7318 0.3225 -0.6004
vn 0.2303 0.2589 -0.9380
vn 0.0285 0.2116 -0.9769
vn 0.0912 0.2323 -0.9684
vn 0.2499 0.2675 -0.9306
vn 0.7137 0.3837 -0.5860
vn 0.9458 0.1291 -0.2978
vn 0.9653 0.2135 0.1501
vn 0.5983 0.3320 -0.7293
vn 0.8991 0.2966 -0.3219
vn 0.9375 0.2585 -0.2328
vn 0.6005 0.3225 -0.7317
vn 0.0429 0.2589 -0.9650
vn -0.1626 0.2116 -0.9637
vn -0.0995 0.2323 -0.9675
vn 0.0635 0.2675 -0.9615
vn 0.5857 0.3837 -0.7140
vn 0.8696 0.1291 -0.4766
vn 0.9761 0.2135 -0.0411
vn 0.4445 0.3320 -0.8320
vn 0.8191 0.2966 -0.4911
vn 0.8741 0.2585 -0.4112
vn 0.4463 0.3225 -0.8348
vn -0.1462 0.2589 -0.9548
vn -0.3475 0.2116 -0.9135
vn -0.2863 0.2323 -0.9295
vn -0.1253 0.2675 -0.9554
vn 0.4351 0.3837 -0.8145
vn 0.7599 0.1291 -0.6371
vn 0.9493 0.2135 -0.2307
vn 0.2736 0.3320 -0.9027
vn 0.7075 0.2966 -0.6415
vn 0.7771 0.2585 -0.5738
vn 0.2749 0.3225 -0.9058
vn -0.3296 0.2589 -0.9079
vn -0.5191 0.2116 -0.8281
vn -0.4622 0.2323 -0.8558
vn -0.3092 0.2675 -0.9126
vn 0.2678 0.3837 -0.8838
vn 0.6210 0.1291 -0.7731
vn 0.8861 0.2135 -0.4115
vn 0.0923 0.3320 -0.9388
vn 0.5688 0.2966 -0.7672
vn 0.6502 0.2585 -0.7144
vn 0.0929 0.3225 -0.9420
vn -0.5004 0.2589 -0.8262
vn -0.6706 0.2116 -0.7110
vn -0.6203 0.2323 -0.7492
vn -0.4813 0.2675 -0.8347
vn 0.0903 0.3837 -0.9190
vn 0.4582 0.1291 -0.8794
vn 0.7888 0.2135 -0.5764
vn 0.0002 1.0000 0.0019
vn 0.0004 1.0000 0.0019
vn -0.0000 1.0000 -0.0000
vn -0.0000 1.0000 0.0019
vn 0.0007 1.0000 0.0018
vn 0.0009 1.0000 0.0017
vn 0.0011 1.0000 0.0016
vn -0.0000 1.0000 -0.0019
vn -0.0002 1.0000 -0.0019
vn -0.0004 1.0000 -0.0019
vn 0.0312 0.9479 0.3169
vn 0.2568 0.9356 0.2423
vn 0.2575 0.9355 0.2418
vn 0.0311 0.9479 0.3169
vn 0.0008 0.9649 0.2624
vn -0.2053 0.9353 0.2884
vn -0.2060 0.9352 0.2880
vn 0.0923 0.9479 0.3048
vn 0.2991 0.9356 0.1876
vn 0.2997 0.9355 0.1869
vn 0.1012 0.9649 0.2421
vn 0.1011 0.9649 0.2422
vn 0.0520 0.9649 0.2572
vn -0.1451 0.9353 0.3229
vn -0.1457 0.9352 0.3227
vn 0.0519 0.9649 0.2573
vn 0.1500 0.9479 0.2809
vn 0.3300 0.9356 0.1256
vn 0.3304 0.9355 0.1249
vn 0.1501 0.9479 0.2809
vn -0.0793 0.9353 0.3450
vn -0.0800 0.9352 0.3449
vn 0.2020 0.9479 0.2462
vn 0.3481 0.9356 0.0588
vn 0.3484 0.9355 0.0581
vn 0.2019 0.9479 0.2462
vn 0.1862 0.9649 0.1850
vn 0.1861 0.9649 0.1850
vn 0.1465 0.9649 0.2177
vn -0.0105 0.9353 0.3538
vn -0.0111 0.9352 0.3539
vn 0.1465 0.9649 0.2178
vn 0.2461 0.9479 0.2021
vn 0.3529 0.9356 -0.0102
vn 0.3531 0.9355 -0.0111
vn 0.0587 0.9353 0.3491
vn 0.0578 0.9352 0.3494
vn 0.2808 0.9479 0.1502
vn 0.3442 0.9356 -0.0789
vn 0.3441 0.9355 -0.0797
vn 0.2428 0.9649 0.0997
vn 0.2187 0.9649 0.1451
vn 0.1257 0.9353 0.3309
vn 0.1249 0.9352 0.3314
vn 0.2186 0.9649 0.1452
vn 0.3047 0.9479 0.0925
vn 0.3222 0.9356 -0.1445
vn 0.3219 0.9355 -0.1453
vn 0.3047 0.9479 0.0926
vn 0.2576 0.9649 0.0504
vn 0.1878 0.9353 0.3000
vn 0.1872 0.9352 0.3005
vn 0.3169 0.9479 0.0313
vn 0.2878 0.9356 -0.2046
vn 0.2874 0.9355 -0.2053
vn 0.2428 0.9353 0.2576
vn 0.2423 0.9352 0.2582
vn 0.3169 0.9479 -0.0311
vn 0.2423 0.9356 -0.2568
vn 0.2418 0.9355 -0.2575
vn 0.2572 0.9649 -0.0520
vn 0.2573 0.9649 -0.0519
vn 0.2624 0.9649 -0.0008
vn 0.2884 0.9353 0.2053
vn 0.2880 0.9352 0.2060
vn 0.2624 0.9649 -0.0007
vn 0.3048 0.9479 -0.0923
vn 0.1876 0.9356 -0.2991
vn 0.1869 0.9355 -0.2997
vn 0.2421 0.9649 -0.1012
vn 0.2422 0.9649 -0.1011
vn 0.3229 0.9353 0.1451
vn 0.3227 0.9352 0.1459
vn 0.2809 0.9479 -0.1500
vn 0.1256 0.9356 -0.3300
vn 0.1249 0.9355 -0.3304
vn 0.2178 0.9649 -0.1465
vn 0.2178 0.9649 -0.1464
vn 0.3450 0.9353 0.0793
vn 0.3449 0.9352 0.0799
vn 0.2462 0.9479 -0.2019
vn 0.0588 0.9356 -0.3481
vn 0.0580 0.9355 -0.3484
vn 0.3538 0.9353 0.0105
vn 0.3539 0.9352 0.0113
vn 0.2021 0.9479 -0.2461
vn -0.0102 0.9356 -0.3529
vn -0.0111 0.9355 -0.3530
vn 0.1850 0.9649 -0.1862
vn 0.3491 0.9353 -0.0587
vn 0.3494 0.9352 -0.0579
vn 0.1850 0.9649 -0.1861
vn 0.1502 0.9479 -0.2808
vn -0.0789 0.9356 -0.3442
vn -0.0797 0.9355 -0.3441
vn 0.0997 0.9649 -0.2428
vn 0.1451 0.9649 -0.2187
vn 0.3309 0.9353 -0.1257
vn 0.3312 0.9352 -0.1252
vn 0.1452 0.9649 -0.2186
vn 0.0926 0.9479 -0.3047
vn -0.1445 0.9356 -0.3222
vn -0.1454 0.9355 -0.3219
vn 0.3000 0.9353 -0.1878
vn 0.3006 0.9352 -0.1872
vn 0.0313 0.9479 -0.3169
vn -0.2046 0.9356 -0.2878
vn -0.2053 0.9355 -0.2874
vn 0.0314 0.9479 -0.3169
vn -0.0008 0.9649 -0.2624
vn 0.0504 0.9649 -0.2576
vn 0.2576 0.9353 -0.2428
vn 0.2582 0.9352 -0.2423
vn 0.0505 0.9649 -0.2575
vn -0.0312 0.9479 -0.3169
vn -0.2568 0.9356 -0.2423
vn -0.2575 0.9355 -0.2418
vn -0.0311 0.9479 -0.3169
vn 0.2053 0.9353 -0.2884
vn 0.2058 0.9352 -0.2881
vn -0.0923 0.9479 -0.3048
vn -0.2991 0.9356 -0.1876
vn -0.2997 0.9355 -0.1869
vn -0.0520 0.9649 -0.2572
vn 0.1451 0.9353 -0.3229
vn 0.1460 0.9352 -0.3226
vn -0.0519 0.9649 -0.2573
vn -0.1500 0.9479 -0.2809
vn -0.3300 0.9356 -0.1256
vn -0.3304 0.9355 -0.1249
vn -0.1465 0.9649 -0.2178
vn -0.1464 0.9649 -0.2178
vn -0.1012 0.9649 -0.2421
vn 0.0793 0.9353 -0.3450
vn 0.0800 0.9352 -0.3449
vn -0.2019 0.9479 -0.2462
vn -0.3481 0.9356 -0.0588
vn -0.3484 0.9355 -0.0580
vn -0.2019 0.9479 -0.2463
vn 0.0105 0.9353 -0.3538
vn 0.0113 0.9352 -0.3539
vn -0.2461 0.9479 -0.2021
vn -0.3529 0.9356 0.0102
vn -0.3531 0.9355 0.0111
vn -0.2187 0.9649 -0.1451
vn -0.2187 0.9649 -0.1452
vn -0.1862 0.9649 -0.1850
vn -0.0587 0.9353 -0.3491
vn -0.0582 0.9352 -0.3493
vn -0.1861 0.9649 -0.1850
vn -0.2808 0.9479 -0.1502
vn -0.3442 0.9356 0.0789
vn -0.3441 0.9355 0.0797
vn -0.1257 0.9353 -0.3309
vn -0.1251 0.9352 -0.3312
vn -0.3047 0.9479 -0.0925
vn -0.3222 0.9356 0.1445
vn -0.3219 0.9355 0.1453
vn -0.2576 0.9649 -0.0504
vn -0.2575 0.9649 -0.0505
vn -0.2428 0.9649 -0.0997
vn -0.1878 0.9353 -0.3000
vn -0.1871 0.9352 -0.3007
vn -0.3169 0.9479 -0.0313
vn -0.2878 0.9356 0.2046
vn -0.2874 0.9355 0.2053
vn -0.3169 0.9479 -0.0314
vn -0.2624 0.9649 0.0008
vn -0.2624 0.9649 0.0007
vn -0.2428 0.9353 -0.2576
vn -0.2423 0.9352 -0.2582
vn -0.3169 0.9479 0.0311
vn -0.2423 0.9356 0.2568
vn -0.2418 0.9355 0.2575
vn -0.2572 0.9649 0.0520
vn -0.2573 0.9649 0.0519
vn -0.2884 0.9353 -0.2053
vn -0.2880 0.9352 -0.2060
vn -0.3048 0.9479 0.0923
vn -0.1876 0.9356 0.2991
vn -0.1869 0.9355 0.2997
vn -0.2421 0.9649 0.1012
vn -0.2422 0.9649 0.1011
vn -0.3229 0.9353 -0.1451
vn -0.3226 0.9352 -0.1460
vn -0.2809 0.9479 0.1500
vn -0.1256 0.9356 0.3300
vn -0.1249 0.9355 0.3304
vn -0.2177 0.9649 0.1465
vn -0.2178 0.9649 0.1464
vn -0.3450 0.9353 -0.0793
vn -0.3449 0.9352 -0.0801
vn -0.2462 0.9479 0.2020
vn -0.0588 0.9356 0.3481
vn -0.0580 0.9355 0.3484
vn -0.2462 0.9479 0.2019
vn -0.3538 0.9353 -0.0105
vn -0.3539 0.9352 -0.0113
vn -0.2020 0.9479 0.2461
vn 0.0102 0.9356 0.3529
vn 0.0111 0.9355 0.3531
vn -0.2021 0.9479 0.2461
vn -0.1850 0.9649 0.1862
vn -0.3491 0.9353 0.0587
vn -0.3493 0.9352 0.0580
vn -0.1851 0.9649 0.1861
vn -0.1502 0.9479 0.2808
vn 0.0789 0.9356 0.3442
vn 0.0797 0.9355 0.3441
vn -0.0997 0.9649 0.2428
vn -0.0997 0.9649 0.2427
vn -0.1451 0.9649 0.2187
vn -0.3309 0.9353 0.1257
vn -0.3313 0.9352 0.1250
vn -0.1452 0.9649 0.2186
vn -0.0925 0.9479 0.3047
vn 0.1445 0.9356 0.3222
vn 0.1453 0.9355 0.3219
vn -0.0504 0.9649 0.2576
vn -0.0505 0.9649 0.2575
vn -0.3000 0.9353 0.1878
vn -0.3005 0.9352 0.1873
vn -0.0313 0.9479 0.3169
vn 0.2046 0.9356 0.2878
vn 0.2054 0.9355 0.2874
vn -0.0314 0.9479 0.3169
vn -0.2576 0.9353 0.2428
vn -0.2582 0.9352 0.2423
vn -0.0020 1.0000 -0.0000
vn -0.0020 1.0000 0.0002
vn -0.0019 1.0000 0.0004
vn 0.0020 1.0000 -0.0000
vn 0.0020 1.0000 -0.0002
vn 0.0019 1.0000 -0.0004
vn 0.0006 1.0000 0.0018
vn 0.0012 1.0000 0.0015
vn 0.0014 1.0000 0.0014
vn 0.0015 1.0000 0.0012
vn 0.0016 1.0000 0.0011
vn 0.0017 1.0000 0.0009
vn 0.0018 1.0000 0.0007
vn 0.0018 1.0000 0.0006
vn 0.0019 1.0000 0.0004
vn 0.0020 1.0000 0.0002
vn 0.0018 1.0000 -0.0006
vn 0.0018 1.0000 -0.0007
vn 0.0017 1.0000 -0.0009
vn 0.0016 1.0000 -0.0011
vn 0.0015 1.0000 -0.0012
vn 0.0014 1.0000 -0.0014
vn 0.0012 1.0000 -0.0015
vn 0.0011 1.0000 -0.0016
vn 0.0009 1.0000 -0.0017
vn 0.0007 1.0000 -0.0018
vn 0.0006 1.0000 -0.0018
vn 0.0004 1.0000 -0.0019
vn 0.0002 1.0000 -0.0019
vn -0.0006 1.0000 -0.0018
vn -0.0007 1.0000 -0.0018
vn -0.0009 1.0000 -0.0017
vn -0.0011 1.0000 -0.0016
vn -0.0012 1.0000 -0.0015
vn -0.0014 1.0000 -0.0014
vn -0.0015 1.0000 -0.0012
vn -0.0016 1.0000 -0.0011
vn -0.0017 1.0000 -0.0009
vn -0.0018 1.0000 -0.0007
vn -0.0018 1.0000 -0.0006
vn -0.0019 1.0000 -0.0004
vn -0.0020 1.0000 -0.0002
vn -0.0018 1.0000 0.0006
vn -0.0018 1.0000 0.0007
vn -0.0017 1.0000 0.0009
vn -0.0016 1.0000 0.0011
vn -0.0015 1.0000 0.0012
vn -0.0014 1.0000 0.0014
vn -0.0012 1.0000 0.0015
vn -0.0011 1.0000 0.0016
vn -0.0009 1.0000 0.0017
vn -0.0007 1.0000 0.0018
vn -0.0006 1.0000 0.0018
vn -0.0004 1.0000 0.0019
vn -0.0002 1.0000 0.0019
vt 0.759213 0.178348
vt 0.759115 0.300066
vt 0.750919 0.300066
vt 0.750080 0.179320
vt 0.767631 0.300066
vt 0.768219 0.179320
vt 0.774526 0.158883
vt 0.774526 0.300066
vt 0.743740 0.158883
vt 0.759133 0.158883
vt 0.743740 0.300066
vt 0.789999 0.178348
vt 0.789901 0.300066
vt 0.781705 0.300066
vt 0.780866 0.179320
vt 0.798417 0.300066
vt 0.799005 0.179320
vt 0.805312 0.158883
vt 0.805312 0.300066
vt 0.789919 0.158883
vt 0.820784 0.178348
vt 0.820687 0.300066
vt 0.812491 0.300066
vt 0.811651 0.179320
vt 0.829203 0.300066
vt 0.829791 0.179320
vt 0.836098 0.158883
vt 0.836098 0.300066
vt 0.820705 0.158883
vt 0.851570 0.178348
vt 0.851473 0.300066
vt 0.843277 0.300066
vt 0.842437 0.179320
vt 0.859988 0.300066
vt 0.860576 0.179320
vt 0.866883 0.158883
vt 0.866883 0.300066
vt 0.851491 0.158883
vt 0.882356 0.178348
vt 0.882258 0.300066
vt 0.874063 0.300066
vt 0.873223 0.179320
vt 0.890774 0.300066
vt 0.891362 0.179320
vt 0.897669 0.158883
vt 0.897669 0.300066
vt 0.882276 0.158883
vt 0.913142 0.178348
vt 0.913044 0.300066
vt 0.904848 0.300066
vt 0.904009 0.179320
vt 0.921560 0.300066
vt 0.922148 0.179320
vt 0.928455 0.158883
vt 0.928455 0.300066
vt 0.913062 0.158883
vt 0.943927 0.178348
vt 0.943830 0.300066
vt 0.935634 0.300066
vt 0.934794 0.179320
vt 0.952346 0.300066
vt 0.952933 0.179320
vt 0.959241 0.158883
vt 0.959241 0.300066
vt 0.943848 0.158883
vt 0.974713 0.178348
vt 0.974616 0.300066
vt 0.966420 0.300066
vt 0.965580 0.179320
vt 0.983131 0.300066
vt 0.983719 0.179320
vt 0.990027 0.158883
vt 0.990026 0.300066
vt 0.974634 0.158883
vt 0.020355 0.178348
vt 0.020257 0.300066
vt 0.012061 0.300066
vt 0.011222 0.179320
vt 0.028773 0.300066
vt 0.029361 0.179320
vt 0.035668 0.158883
vt 0.035668 0.300066
vt 0.004882 0.158883
vt 0.020275 0.158883
vt 0.004882 0.300066
vt 0.051141 0.178348
vt 0.051043 0.300066
vt 0.042847 0.300066
vt 0.042008 0.179320
vt 0.059559 0.300066
vt 0.060147 0.179320
vt 0.066454 0.158883
vt 0.066454 0.300066
vt 0.051061 0.158883
vt 0.081926 0.178348
vt 0.081829 0.300066
vt 0.073633 0.300066
vt 0.072793 0.179320
vt 0.090345 0.300066
vt 0.090932 0.179320
vt 0.097240 0.158883
vt 0.097240 0.300066
vt 0.081847 0.158883
vt 0.112712 0.178348
vt 0.112615 0.300066
vt 0.104419 0.300066
vt 0.103579 0.179320
vt 0.121130 0.300066
vt 0.121718 0.179320
vt 0.128025 0.158883
vt 0.128025 0.300066
vt 0.112632 0.158883
vt 0.143498 0.178348
vt 0.143400 0.300066
vt 0.135204 0.300066
vt 0.134365 0.179320
vt 0.151916 0.300066
vt 0.152504 0.179320
vt 0.158811 0.158883
vt 0.158811 0.300066
vt 0.143418 0.158883
vt 0.174284 0.178348
vt 0.174186 0.300066
vt 0.165990 0.300066
vt 0.165151 0.179320
vt 0.182702 0.300066
vt 0.183290 0.179320
vt 0.189597 0.158883
vt 0.189597 0.300066
vt 0.174204 0.158883
vt 0.205069 0.178348
vt 0.204972 0.300066
vt 0.196776 0.300066
vt 0.195936 0.179320
vt 0.213488 0.300066
vt 0.214075 0.179320
vt 0.220383 0.158883
vt 0.220383 0.300066
vt 0.204990 0.158883
vt 0.235855 0.178348
vt 0.235758 0.300066
vt 0.227562 0.300066
vt 0.226722 0.179320
vt 0.244273 0.300066
vt 0.244861 0.179320
vt 0.251168 0.158883
vt 0.251168 0.300066
vt 0.235775 0.158883
vt 0.266641 0.178348
vt 0.266543 0.300066
vt 0.258347 0.300066
vt 0.257508 0.179320
vt 0.275059 0.300066
vt 0.275647 0.179320
vt 0.281954 0.158883
vt 0.281954 0.300066
vt 0.266561 0.158883
vt 0.297427 0.178348
vt 0.297329 0.300066
vt 0.289133 0.300066
vt 0.288294 0.179320
vt 0.305845 0.300066
vt 0.306433 0.179320
vt 0.312740 0.158883
vt 0.312740 0.300066
vt 0.297347 0.158883
vt 0.328212 0.178348
vt 0.328115 0.300066
vt 0.319919 0.300066
vt 0.319079 0.179320
vt 0.336631 0.300066
vt 0.337218 0.179320
vt 0.343526 0.158883
vt 0.343526 0.300066
vt 0.328133 0.158883
vt 0.358998 0.178348
vt 0.358901 0.300066
vt 0.350705 0.300066
vt 0.349865 0.179320
vt 0.367416 0.300066
vt 0.368004 0.179320
vt 0.374311 0.158883
vt 0.374311 0.300066
vt 0.358919 0.158883
vt 0.389784 0.178348
vt 0.389686 0.300066
vt 0.381490 0.300066
vt 0.380651 0.179320
vt 0.398202 0.300066
vt 0.398790 0.179320
vt 0.405097 0.158883
vt 0.405097 0.300066
vt 0.389704 0.158883
vt 0.420570 0.178348
vt 0.420472 0.300066
vt 0.412276 0.300066
vt 0.411437 0.179320
vt 0.428988 0.300066
vt 0.429576 0.179320
vt 0.435883 0.158883
vt 0.435883 0.300066
vt 0.420490 0.158883
vt 0.451355 0.178348
vt 0.451258 0.300066
vt 0.443062 0.300066
vt 0.442222 0.179320
vt 0.459774 0.300066
vt 0.460362 0.179320
vt 0.466669 0.158883
vt 0.466669 0.300066
vt 0.451276 0.158883
vt 0.482141 0.178348
vt 0.482044 0.300066
vt 0.473848 0.300066
vt 0.473008 0.179320
vt 0.490559 0.300066
vt 0.491147 0.179320
vt 0.497454 0.158883
vt 0.497454 0.300066
vt 0.482062 0.158883
vt 0.512927 0.178348
vt 0.512829 0.300066
vt 0.504633 0.300066
vt 0.503794 0.179320
vt 0.521345 0.300066
vt 0.521933 0.179320
vt 0.528240 0.158883
vt 0.528240 0.300066
vt 0.512847 0.158883
vt 0.543713 0.178348
vt 0.543615 0.300066
vt 0.535419 0.300066
vt 0.534580 0.179320
vt 0.552131 0.300066
vt 0.552719 0.179320
vt 0.559026 0.158883
vt 0.559026 0.300066
vt 0.543633 0.158883
vt 0.574498 0.178348
vt 0.574401 0.300066
vt 0.566205 0.300066
vt 0.565365 0.179320
vt 0.582917 0.300066
vt 0.583504 0.179320
vt 0.589812 0.158883
vt 0.589812 0.300066
vt 0.574419 0.158883
vt 0.605284 0.178348
vt 0.605187 0.300066
vt 0.596991 0.300066
vt 0.596151 0.179320
vt 0.613702 0.300066
vt 0.614290 0.179320
vt 0.620597 0.158883
vt 0.620597 0.300066
vt 0.605204 0.158883
vt 0.636070 0.178348
vt 0.635972 0.300066
vt 0.627776 0.300066
vt 0.626937 0.179320
vt 0.644488 0.300066
vt 0.645076 0.179320
vt 0.651383 0.158883
vt 0.651383 0.300066
vt 0.635990 0.158883
vt 0.666856 0.178348
vt 0.666758 0.300066
vt 0.658562 0.300066
vt 0.657722 0.179320
vt 0.675274 0.300066
vt 0.675862 0.179320
vt 0.682169 0.158883
vt 0.682169 0.300066
vt 0.666776 0.158883
vt 0.697641 0.178348
vt 0.697544 0.300066
vt 0.689348 0.300066
vt 0.688508 0.179320
vt 0.706060 0.300066
vt 0.706648 0.179320
vt 0.712955 0.158883
vt 0.712955 0.300066
vt 0.697562 0.158883
vt 0.728427 0.178348
vt 0.728330 0.300066
vt 0.720134 0.300066
vt 0.719294 0.179320
vt 0.736845 0.300066
vt 0.737433 0.179320
vt 0.728348 0.158883
vt 0.316372 0.537855
vt 0.385641 0.434186
vt 0.337928 0.549376
vt 0.326301 0.545204
vt 0.297479 0.522349
vt 0.305783 0.531494
vt 0.281973 0.503455
vt 0.288333 0.514045
vt 0.270451 0.481900
vt 0.274623 0.493527
vt 0.263356 0.458511
vt 0.265180 0.470728
vt 0.260961 0.434186
vt 0.260365 0.446525
vt 0.263356 0.409863
vt 0.260365 0.421848
vt 0.281973 0.364918
vt 0.270451 0.386473
vt 0.274623 0.374846
vt 0.297479 0.346024
vt 0.288333 0.354328
vt 0.316372 0.330519
vt 0.305782 0.336879
vt 0.337928 0.318997
vt 0.326301 0.323169
vt 0.361317 0.311902
vt 0.349099 0.313725
vt 0.385641 0.309506
vt 0.373302 0.308911
vt 0.409965 0.311902
vt 0.397979 0.308911
vt 0.454910 0.330519
vt 0.433354 0.318997
vt 0.444981 0.323169
vt 0.473803 0.346024
vt 0.465499 0.336878
vt 0.489309 0.364918
vt 0.482949 0.354328
vt 0.500831 0.386473
vt 0.496659 0.374846
vt 0.507926 0.409862
vt 0.506102 0.397645
vt 0.510321 0.434186
vt 0.510917 0.421848
vt 0.510917 0.446525
vt 0.507926 0.458510
vt 0.506102 0.470728
vt 0.500831 0.481900
vt 0.496659 0.493527
vt 0.489309 0.503455
vt 0.482949 0.514045
vt 0.473803 0.522349
vt 0.465500 0.531494
vt 0.454910 0.537854
vt 0.444981 0.545204
vt 0.433354 0.549376
vt 0.422182 0.554648
vt 0.409965 0.556471
vt 0.397980 0.559462
vt 0.385641 0.558867
vt 0.422182 0.313725
vt 0.373302 0.559462
vt 0.361317 0.556471
vt 0.265180 0.397645
vt 0.349099 0.554648
vt 0.236721 0.023362
vt 0.244856 0.024254
vt 0.244156 0.149353
vt 0.236819 0.149520
vt 0.229172 0.149354
vt 0.221362 0.149486
vt 0.221345 0.005160
vt 0.228735 0.024255
vt 0.236805 0.004896
vt 0.252269 0.005160
vt 0.252285 0.149486
vt 0.205798 0.023362
vt 0.213932 0.024254
vt 0.213233 0.149353
vt 0.205895 0.149520
vt 0.198248 0.149354
vt 0.190439 0.149486
vt 0.190422 0.005160
vt 0.197811 0.024255
vt 0.205881 0.004896
vt 0.174875 0.023362
vt 0.183009 0.024254
vt 0.182310 0.149353
vt 0.174972 0.149520
vt 0.167325 0.149354
vt 0.159515 0.149486
vt 0.159498 0.005160
vt 0.166888 0.024255
vt 0.174958 0.004896
vt 0.143951 0.023362
vt 0.152085 0.024254
vt 0.151386 0.149353
vt 0.144048 0.149520
vt 0.136401 0.149354
vt 0.128592 0.149486
vt 0.128575 0.005160
vt 0.135964 0.024255
vt 0.144034 0.004896
vt 0.113028 0.023362
vt 0.121162 0.024254
vt 0.120463 0.149353
vt 0.113125 0.149520
vt 0.105478 0.149354
vt 0.097668 0.149486
vt 0.097652 0.005160
vt 0.105041 0.024255
vt 0.113111 0.004896
vt 0.082104 0.023362
vt 0.090239 0.024254
vt 0.089539 0.149353
vt 0.082201 0.149520
vt 0.074554 0.149354
vt 0.066745 0.149486
vt 0.066728 0.005160
vt 0.074117 0.024255
vt 0.082187 0.004896
vt 0.051181 0.023362
vt 0.059315 0.024254
vt 0.058616 0.149353
vt 0.051278 0.149520
vt 0.043631 0.149354
vt 0.035821 0.149486
vt 0.035805 0.005160
vt 0.043194 0.024255
vt 0.051264 0.004896
vt 0.020257 0.023362
vt 0.028391 0.024254
vt 0.027692 0.149353
vt 0.020354 0.149520
vt 0.012707 0.149354
vt 0.004898 0.149486
vt 0.004881 0.005160
vt 0.012270 0.024255
vt 0.020340 0.004888
vt 0.978884 0.023362
vt 0.987019 0.024254
vt 0.986319 0.149353
vt 0.978981 0.149520
vt 0.971334 0.149354
vt 0.963525 0.149486
vt 0.963508 0.005160
vt 0.970897 0.024255
vt 0.978967 0.004888
vt 0.994440 0.005160
vt 0.994431 0.149487
vt 0.947961 0.023362
vt 0.956095 0.024254
vt 0.955396 0.149353
vt 0.948058 0.149520
vt 0.940411 0.149354
vt 0.932601 0.149486
vt 0.932585 0.005160
vt 0.939974 0.024255
vt 0.948044 0.004896
vt 0.917037 0.023362
vt 0.925172 0.024254
vt 0.924472 0.149353
vt 0.917135 0.149520
vt 0.909487 0.149354
vt 0.901678 0.149486
vt 0.901661 0.005160
vt 0.909050 0.024255
vt 0.917120 0.004896
vt 0.886114 0.023362
vt 0.894248 0.024254
vt 0.893549 0.149353
vt 0.886211 0.149520
vt 0.878564 0.149354
vt 0.870754 0.149486
vt 0.870738 0.005160
vt 0.878127 0.024255
vt 0.886197 0.004896
vt 0.855190 0.023362
vt 0.863325 0.024254
vt 0.862625 0.149353
vt 0.855287 0.149520
vt 0.847640 0.149354
vt 0.839831 0.149486
vt 0.839814 0.005160
vt 0.847203 0.024255
vt 0.855274 0.004896
vt 0.824267 0.023362
vt 0.832401 0.024254
vt 0.831702 0.149353
vt 0.824364 0.149520
vt 0.816717 0.149354
vt 0.808907 0.149486
vt 0.808891 0.005160
vt 0.816280 0.024255
vt 0.824350 0.004896
vt 0.793343 0.023362
vt 0.801478 0.024254
vt 0.800778 0.149353
vt 0.793441 0.149520
vt 0.785794 0.149354
vt 0.777984 0.149486
vt 0.777967 0.005160
vt 0.785356 0.024255
vt 0.793427 0.004896
vt 0.762420 0.023362
vt 0.770554 0.024254
vt 0.769855 0.149353
vt 0.762517 0.149520
vt 0.754870 0.149354
vt 0.747060 0.149486
vt 0.747044 0.005160
vt 0.754433 0.024255
vt 0.762503 0.004896
vt 0.731497 0.023362
vt 0.739631 0.024254
vt 0.738931 0.149353
vt 0.731594 0.149520
vt 0.723946 0.149354
vt 0.716137 0.149486
vt 0.716120 0.005160
vt 0.723510 0.024255
vt 0.731580 0.004896
vt 0.700573 0.023362
vt 0.708707 0.024254
vt 0.708008 0.149353
vt 0.700670 0.149520
vt 0.693023 0.149354
vt 0.685214 0.149486
vt 0.685197 0.005160
vt 0.692586 0.024255
vt 0.700656 0.004896
vt 0.669650 0.023362
vt 0.677784 0.024254
vt 0.677084 0.149353
vt 0.669747 0.149520
vt 0.662100 0.149354
vt 0.654290 0.149486
vt 0.654273 0.005160
vt 0.661663 0.024255
vt 0.669733 0.004896
vt 0.638726 0.023362
vt 0.646860 0.024254
vt 0.646161 0.149353
vt 0.638823 0.149520
vt 0.631176 0.149354
vt 0.623367 0.149486
vt 0.623350 0.005160
vt 0.630739 0.024255
vt 0.638809 0.004896
vt 0.607803 0.023362
vt 0.615937 0.024254
vt 0.615238 0.149353
vt 0.607900 0.149520
vt 0.600253 0.149354
vt 0.592443 0.149486
vt 0.592427 0.005160
vt 0.599816 0.024255
vt 0.607886 0.004896
vt 0.576879 0.023362
vt 0.585014 0.024254
vt 0.584314 0.149353
vt 0.576977 0.149520
vt 0.569329 0.149354
vt 0.561520 0.149486
vt 0.561503 0.005160
vt 0.568892 0.024255
vt 0.576963 0.004896
vt 0.545956 0.023362
vt 0.554090 0.024254
vt 0.553391 0.149353
vt 0.546053 0.149520
vt 0.538406 0.149354
vt 0.530596 0.149486
vt 0.530580 0.005160
vt 0.537969 0.024255
vt 0.546039 0.004896
vt 0.515032 0.023362
vt 0.523167 0.024254
vt 0.522467 0.149353
vt 0.515130 0.149520
vt 0.507483 0.149354
vt 0.499673 0.149486
vt 0.499656 0.005160
vt 0.507045 0.024255
vt 0.515116 0.004888
vt 0.484109 0.023362
vt 0.492243 0.024254
vt 0.491544 0.149353
vt 0.484206 0.149520
vt 0.476559 0.149354
vt 0.468749 0.149486
vt 0.468733 0.005160
vt 0.476122 0.024255
vt 0.484192 0.004888
vt 0.453186 0.023362
vt 0.461320 0.024254
vt 0.460620 0.149353
vt 0.453283 0.149520
vt 0.445636 0.149354
vt 0.437826 0.149486
vt 0.437810 0.005160
vt 0.445199 0.024255
vt 0.453269 0.004896
vt 0.422262 0.023362
vt 0.430396 0.024254
vt 0.429697 0.149353
vt 0.422359 0.149520
vt 0.414712 0.149354
vt 0.406903 0.149486
vt 0.406886 0.005160
vt 0.414275 0.024255
vt 0.422345 0.004896
vt 0.391339 0.023362
vt 0.399473 0.024254
vt 0.398774 0.149353
vt 0.391436 0.149520
vt 0.383789 0.149354
vt 0.375979 0.149486
vt 0.375963 0.005160
vt 0.383352 0.024255
vt 0.391422 0.004896
vt 0.360415 0.023362
vt 0.368550 0.024254
vt 0.367850 0.149353
vt 0.360512 0.149520
vt 0.352865 0.149354
vt 0.345056 0.149486
vt 0.345039 0.005160
vt 0.352428 0.024255
vt 0.360499 0.004896
vt 0.329492 0.023362
vt 0.337626 0.024254
vt 0.336927 0.149353
vt 0.329589 0.149520
vt 0.321942 0.149354
vt 0.314132 0.149486
vt 0.314116 0.005160
vt 0.321505 0.024255
vt 0.329575 0.004896
vt 0.298568 0.023362
vt 0.306703 0.024254
vt 0.306003 0.149353
vt 0.298665 0.149520
vt 0.291018 0.149354
vt 0.283209 0.149486
vt 0.283192 0.005160
vt 0.290581 0.024255
vt 0.298652 0.004896
vt 0.267645 0.023362
vt 0.275779 0.024254
vt 0.275080 0.149353
vt 0.267742 0.149520
vt 0.260095 0.149354
vt 0.259658 0.024255
vt 0.267728 0.004896
vt 0.224851 0.353986
vt 0.228687 0.366067
vt 0.128808 0.432807
vt 0.213747 0.347864
vt 0.239788 0.386835
vt 0.247704 0.396740
vt 0.246624 0.409369
vt 0.043867 0.517750
vt 0.032763 0.511628
vt 0.028927 0.499546
vt 0.024814 0.568878
vt 0.033465 0.568878
vt 0.033465 0.571117
vt 0.024814 0.571117
vt 0.004878 0.568878
vt 0.016452 0.568878
vt 0.016452 0.571117
vt 0.004878 0.571117
vt 0.064803 0.568878
vt 0.073455 0.568878
vt 0.073455 0.571117
vt 0.064803 0.571117
vt 0.084857 0.568878
vt 0.084857 0.571117
vt 0.044868 0.568878
vt 0.056441 0.568878
vt 0.056441 0.571117
vt 0.044868 0.571117
vt 0.104793 0.568878
vt 0.113445 0.568878
vt 0.113445 0.571117
vt 0.104793 0.571117
vt 0.096431 0.568878
vt 0.096431 0.571117
vt 0.144783 0.568878
vt 0.153434 0.568878
vt 0.153434 0.571117
vt 0.144783 0.571117
vt 0.164837 0.568878
vt 0.164837 0.571117
vt 0.124847 0.568878
vt 0.136421 0.568878
vt 0.136421 0.571117
vt 0.124847 0.571117
vt 0.184772 0.568878
vt 0.193424 0.568878
vt 0.193424 0.571117
vt 0.184772 0.571117
vt 0.176410 0.568878
vt 0.176410 0.571117
vt 0.224762 0.568878
vt 0.233414 0.568878
vt 0.233414 0.571117
vt 0.224762 0.571117
vt 0.244816 0.568878
vt 0.244816 0.571117
vt 0.204826 0.568878
vt 0.216400 0.568878
vt 0.216400 0.571117
vt 0.204826 0.571117
vt 0.264752 0.568878
vt 0.273403 0.568878
vt 0.273403 0.571117
vt 0.264752 0.571117
vt 0.284806 0.568878
vt 0.284806 0.571117
vt 0.256390 0.568878
vt 0.256390 0.571117
vt 0.304741 0.568878
vt 0.313393 0.568878
vt 0.313393 0.571117
vt 0.304741 0.571117
vt 0.296379 0.568878
vt 0.296379 0.571117
vt 0.344731 0.568878
vt 0.353382 0.568878
vt 0.353382 0.571117
vt 0.344731 0.571117
vt 0.364785 0.568878
vt 0.364785 0.571117
vt 0.324795 0.568878
vt 0.336369 0.568878
vt 0.336369 0.571117
vt 0.324795 0.571117
vt 0.384721 0.568878
vt 0.393372 0.568878
vt 0.393372 0.571117
vt 0.384721 0.571117
vt 0.404774 0.568878
vt 0.404774 0.571117
vt 0.376359 0.568878
vt 0.376359 0.571117
vt 0.424710 0.568878
vt 0.433362 0.568878
vt 0.433362 0.571117
vt 0.424710 0.571117
vt 0.444764 0.568878
vt 0.444764 0.571117
vt 0.416348 0.568878
vt 0.416348 0.571117
vt 0.464700 0.568878
vt 0.473351 0.568878
vt 0.473351 0.571117
vt 0.464700 0.571117
vt 0.456338 0.568878
vt 0.456338 0.571117
vt 0.504689 0.568878
vt 0.513341 0.568878
vt 0.513341 0.571117
vt 0.504689 0.571117
vt 0.484754 0.568878
vt 0.496328 0.568878
vt 0.496328 0.571117
vt 0.484754 0.571117
vt 0.544679 0.568878
vt 0.553331 0.568878
vt 0.553331 0.571117
vt 0.544679 0.571117
vt 0.564733 0.568878
vt 0.564733 0.571117
vt 0.524743 0.568878
vt 0.536317 0.568878
vt 0.536317 0.571117
vt 0.524743 0.571117
vt 0.584669 0.568878
vt 0.593320 0.568878
vt 0.593320 0.571117
vt 0.584669 0.571117
vt 0.576307 0.568878
vt 0.576307 0.571117
vt 0.624658 0.568878
vt 0.633310 0.568878
vt 0.633310 0.571117
vt 0.624658 0.571117
vt 0.644712 0.568878
vt 0.644712 0.571117
vt 0.604723 0.568878
vt 0.616296 0.568878
vt 0.616296 0.571117
vt 0.604723 0.571117
vt 0.024784 0.580885
vt 0.033422 0.580885
vt 0.033422 0.583120
vt 0.024784 0.583120
vt 0.016436 0.580885
vt 0.016436 0.583120
vt 0.064709 0.580885
vt 0.073346 0.580885
vt 0.073346 0.583120
vt 0.064709 0.583120
vt 0.044805 0.580885
vt 0.056360 0.580885
vt 0.056360 0.583120
vt 0.044805 0.583120
vt 0.104633 0.580885
vt 0.113271 0.580885
vt 0.113271 0.583120
vt 0.104633 0.583120
vt 0.124655 0.580885
vt 0.124655 0.583120
vt 0.084730 0.580885
vt 0.096285 0.580885
vt 0.096285 0.583120
vt 0.084730 0.583120
vt 0.144558 0.580885
vt 0.153196 0.580885
vt 0.153196 0.583120
vt 0.144558 0.583120
vt 0.136210 0.580885
vt 0.136210 0.583120
vt 0.184483 0.580885
vt 0.193120 0.580885
vt 0.193120 0.583120
vt 0.184483 0.583120
vt 0.204504 0.580885
vt 0.204504 0.583120
vt 0.164579 0.580885
vt 0.176135 0.580885
vt 0.176135 0.583120
vt 0.164579 0.583120
vt 0.224407 0.580885
vt 0.233045 0.580885
vt 0.233045 0.583120
vt 0.224407 0.583120
vt 0.216059 0.580885
vt 0.216059 0.583120
vt 0.264332 0.580885
vt 0.272970 0.580885
vt 0.272970 0.583120
vt 0.264332 0.583120
vt 0.284354 0.580885
vt 0.284354 0.583120
vt 0.244429 0.580885
vt 0.255984 0.580885
vt 0.255984 0.583120
vt 0.244429 0.583120
vt 0.304257 0.580885
vt 0.312894 0.580885
vt 0.312894 0.583120
vt 0.304257 0.583120
vt 0.324278 0.580885
vt 0.324278 0.583120
vt 0.295908 0.580885
vt 0.295908 0.583120
vt 0.344181 0.580885
vt 0.352819 0.580885
vt 0.352819 0.583120
vt 0.344181 0.583120
vt 0.364203 0.580885
vt 0.364203 0.583120
vt 0.335833 0.580885
vt 0.335833 0.583120
vt 0.384106 0.580885
vt 0.392744 0.580885
vt 0.392744 0.583120
vt 0.384106 0.583120
vt 0.404127 0.580885
vt 0.404127 0.583120
vt 0.375758 0.580885
vt 0.375758 0.583120
vt 0.424031 0.580885
vt 0.432668 0.580885
vt 0.432668 0.583120
vt 0.424031 0.583120
vt 0.444052 0.580885
vt 0.444052 0.583120
vt 0.415682 0.580885
vt 0.415682 0.583120
vt 0.463955 0.580885
vt 0.472593 0.580885
vt 0.472593 0.583120
vt 0.463955 0.583120
vt 0.455607 0.580885
vt 0.455607 0.583120
vt 0.503880 0.580885
vt 0.512518 0.580885
vt 0.512518 0.583120
vt 0.503880 0.583120
vt 0.483977 0.580885
vt 0.495532 0.580885
vt 0.495532 0.583120
vt 0.483977 0.583120
vt 0.543804 0.580885
vt 0.552442 0.580885
vt 0.552442 0.583120
vt 0.543804 0.583120
vt 0.563826 0.580885
vt 0.563826 0.583120
vt 0.523901 0.580885
vt 0.535456 0.580885
vt 0.535456 0.583120
vt 0.523901 0.583120
vt 0.583729 0.580885
vt 0.592367 0.580885
vt 0.592367 0.583120
vt 0.583729 0.583120
vt 0.603751 0.580885
vt 0.603751 0.583120
vt 0.575381 0.580885
vt 0.575381 0.583120
vt 0.623654 0.580885
vt 0.632291 0.580885
vt 0.632291 0.583120
vt 0.623654 0.583120
vt 0.615305 0.580885
vt 0.615305 0.583120
vt 0.004881 0.580885
vt 0.004881 0.583120
vt 0.643675 0.580885
vt 0.643675 0.583120
vt 0.043864 0.347866
vt 0.049982 0.336758
vt 0.062067 0.332927
vt 0.213750 0.517747
vt 0.207632 0.528855
vt 0.195547 0.532686
vt 0.238383 0.374237
vt 0.252455 0.420628
vt 0.248933 0.432805
vt 0.252455 0.444985
vt 0.246625 0.456240
vt 0.247704 0.468874
vt 0.239789 0.478775
vt 0.238383 0.491376
vt 0.228689 0.499543
vt 0.224855 0.511631
vt 0.187376 0.542382
vt 0.174779 0.543788
vt 0.164874 0.551703
vt 0.152244 0.550624
vt 0.140985 0.556455
vt 0.128809 0.552932
vt 0.116629 0.556455
vt 0.105374 0.550624
vt 0.092740 0.551703
vt 0.082839 0.543789
vt 0.070238 0.542382
vt 0.062070 0.532688
vt 0.049986 0.528851
vt 0.019231 0.491376
vt 0.017826 0.478778
vt 0.009911 0.468874
vt 0.010990 0.456244
vt 0.005159 0.444985
vt 0.008681 0.432809
vt 0.005159 0.420628
vt 0.010990 0.409373
vt 0.009911 0.396740
vt 0.017825 0.386838
vt 0.019231 0.374237
vt 0.028925 0.366070
vt 0.032759 0.353982
vt 0.070238 0.323231
vt 0.082835 0.321826
vt 0.092740 0.313910
vt 0.105370 0.314990
vt 0.116629 0.309159
vt 0.128805 0.312681
vt 0.140985 0.309159
vt 0.152241 0.314989
vt 0.164874 0.313910
vt 0.174776 0.321824
vt 0.187376 0.323231
vt 0.195544 0.332925
vt 0.207628 0.336763
s 1
f 9/1/1 10/2/2 4/3/3 3/4/4
f 2/5/5 1/6/6 5/7/7 17/8/8
f 9/1/1 3/4/4 6/9/9 8/10/10
f 1/6/6 9/1/1 8/10/10 5/7/7
f 3/4/4 4/3/3 7/11/11 6/9/9
f 1/6/6 2/5/5 10/2/2 9/1/1
f 19/12/12 20/13/13 14/14/14 13/15/15
f 12/16/16 11/17/17 16/18/18 15/19/19
f 19/12/12 13/15/15 5/7/20 18/20/21
f 11/17/17 19/12/12 18/20/21 16/18/18
f 13/15/15 14/14/14 17/8/22 5/7/20
f 11/17/17 12/16/16 20/13/13 19/12/12
f 26/21/23 27/22/24 24/23/25 23/24/26
f 22/25/27 21/26/28 34/27/29 35/28/30
f 26/21/23 23/24/26 16/18/31 25/29/32
f 21/26/28 26/21/23 25/29/32 34/27/29
f 23/24/26 24/23/25 15/19/33 16/18/31
f 21/26/28 22/25/27 27/22/24 26/21/23
f 37/30/34 38/31/35 31/32/36 30/33/37
f 29/34/38 28/35/39 33/36/40 32/37/41
f 37/30/34 30/33/37 34/27/42 36/38/43
f 28/35/39 37/30/34 36/38/43 33/36/40
f 30/33/37 31/32/36 35/28/44 34/27/42
f 28/35/39 29/34/38 38/31/35 37/30/34
f 44/39/45 45/40/46 42/41/47 41/42/48
f 40/43/49 39/44/50 51/45/51 52/46/52
f 44/39/45 41/42/48 33/36/53 43/47/54
f 39/44/50 44/39/45 43/47/54 51/45/51
f 41/42/48 42/41/47 32/37/55 33/36/53
f 39/44/50 40/43/49 45/40/46 44/39/45
f 54/48/56 55/49/57 49/50/58 48/51/59
f 47/52/60 46/53/61 62/54/62 50/55/63
f 54/48/56 48/51/59 51/45/64 53/56/65
f 46/53/61 54/48/56 53/56/65 62/54/62
f 48/51/59 49/50/58 52/46/66 51/45/64
f 46/53/61 47/52/60 55/49/57 54/48/56
f 64/57/67 65/58/68 59/59/69 58/60/70
f 57/61/71 56/62/72 61/63/73 60/64/74
f 64/57/67 58/60/70 62/54/75 63/65/76
f 56/62/72 64/57/67 63/65/76 61/63/73
f 58/60/70 59/59/69 50/55/77 62/54/75
f 56/62/72 57/61/71 65/58/68 64/57/67
f 71/66/78 72/67/79 69/68/80 68/69/81
f 67/70/82 66/71/83 78/72/84 79/73/85
f 71/66/78 68/69/81 61/63/86 70/74/87
f 66/71/83 71/66/78 70/74/87 78/72/84
f 68/69/81 69/68/80 60/64/88 61/63/86
f 66/71/83 67/70/82 72/67/79 71/66/78
f 81/75/89 82/76/90 76/77/91 75/78/92
f 74/79/93 73/80/94 88/81/95 77/82/96
f 81/75/89 75/78/92 78/83/97 80/84/98
f 73/80/94 81/75/89 80/84/98 88/81/95
f 75/78/92 76/77/91 79/85/99 78/83/97
f 73/80/94 74/79/93 82/76/90 81/75/89
f 90/86/100 91/87/101 86/88/102 85/89/103
f 84/90/104 83/91/105 98/92/106 87/93/107
f 90/86/100 85/89/103 88/81/108 89/94/109
f 83/91/105 90/86/100 89/94/109 98/92/106
f 85/89/103 86/88/102 77/82/110 88/81/108
f 83/91/105 84/90/104 91/87/101 90/86/100
f 100/95/111 101/96/112 95/97/113 94/98/114
f 93/99/115 92/100/116 97/101/117 96/102/118
f 100/95/111 94/98/114 98/92/119 99/103/120
f 92/100/116 100/95/111 99/103/120 97/101/117
f 94/98/114 95/97/113 87/93/121 98/92/119
f 92/100/116 93/99/115 101/96/112 100/95/111
f 107/104/122 108/105/123 105/106/124 104/107/125
f 103/108/126 102/109/127 113/110/128 114/111/129
f 107/104/122 104/107/125 97/101/130 106/112/131
f 102/109/127 107/104/122 106/112/131 113/110/128
f 104/107/125 105/106/124 96/102/132 97/101/130
f 102/109/127 103/108/126 108/105/123 107/104/122
f 116/113/133 117/114/134 112/115/135 111/116/136
f 110/117/137 109/118/138 123/119/139 124/120/140
f 116/113/133 111/116/136 113/110/141 115/121/142
f 109/118/138 116/113/133 115/121/142 123/119/139
f 111/116/136 112/115/135 114/111/143 113/110/141
f 109/118/138 110/117/137 117/114/134 116/113/133
f 126/122/144 127/123/145 121/124/146 120/125/147
f 119/126/148 118/127/149 133/128/150 122/129/151
f 126/122/144 120/125/147 123/119/152 125/130/153
f 118/127/149 126/122/144 125/130/153 133/128/150
f 120/125/147 121/124/146 124/120/154 123/119/152
f 118/127/149 119/126/148 127/123/145 126/122/144
f 135/131/155 136/132/156 131/133/157 130/134/158
f 129/135/159 128/136/160 132/137/161 142/138/162
f 135/131/155 130/134/158 133/128/163 134/139/164
f 128/136/160 135/131/155 134/139/164 132/137/161
f 130/134/158 131/133/157 122/129/165 133/128/163
f 128/136/160 129/135/159 136/132/156 135/131/155
f 144/140/166 145/141/167 140/142/168 139/143/169
f 138/144/170 137/145/171 150/146/172 141/147/173
f 144/140/166 139/143/169 132/137/174 143/148/175
f 137/145/171 144/140/166 143/148/175 150/146/172
f 139/143/169 140/142/168 142/138/176 132/137/174
f 137/145/171 138/144/170 145/141/167 144/140/166
f 152/149/177 153/150/178 149/151/179 148/152/180
f 147/153/181 146/154/182 159/155/183 160/156/184
f 152/149/177 148/152/180 150/146/185 151/157/186
f 146/154/182 152/149/177 151/157/186 159/155/183
f 148/152/180 149/151/179 141/147/187 150/146/185
f 146/154/182 147/153/181 153/150/178 152/149/177
f 162/158/188 163/159/189 157/160/190 156/161/191
f 155/162/192 154/163/193 158/164/194 169/165/195
f 162/158/188 156/161/191 159/155/196 161/166/197
f 154/163/193 162/158/188 161/166/197 158/164/194
f 156/161/191 157/160/190 160/156/198 159/155/196
f 154/163/193 155/162/192 163/159/189 162/158/188
f 171/167/199 172/168/200 167/169/201 166/170/202
f 165/171/203 164/172/204 178/173/205 168/174/206
f 171/167/199 166/170/202 158/164/207 170/175/208
f 164/172/204 171/167/199 170/175/208 178/173/205
f 166/170/202 167/169/201 169/165/209 158/164/207
f 164/172/204 165/171/203 172/168/200 171/167/199
f 180/176/210 181/177/211 176/178/212 175/179/213
f 174/180/214 173/181/215 177/182/216 187/183/217
f 180/176/210 175/179/213 178/173/218 179/184/219
f 173/181/215 180/176/210 179/184/219 177/182/216
f 175/179/213 176/178/212 168/174/220 178/173/218
f 173/181/215 174/180/214 181/177/211 180/176/210
f 189/185/221 190/186/222 185/187/223 184/188/224
f 183/189/225 182/190/226 195/191/227 186/192/228
f 189/185/221 184/188/224 177/182/229 188/193/230
f 182/190/226 189/185/221 188/193/230 195/191/227
f 184/188/224 185/187/223 187/183/231 177/182/229
f 182/190/226 183/189/225 190/186/222 189/185/221
f 197/194/232 198/195/233 194/196/234 193/197/235
f 192/198/236 191/199/237 205/200/238 206/201/239
f 197/194/232 193/197/235 195/191/240 196/202/241
f 191/199/237 197/194/232 196/202/241 205/200/238
f 193/197/235 194/196/234 186/192/242 195/191/240
f 191/199/237 192/198/236 198/195/233 197/194/232
f 208/203/243 209/204/244 202/205/245 201/206/246
f 200/207/247 199/208/248 204/209/249 203/210/250
f 208/203/243 201/206/246 205/200/251 207/211/252
f 199/208/248 208/203/243 207/211/252 204/209/249
f 201/206/246 202/205/245 206/201/253 205/200/251
f 199/208/248 200/207/247 209/204/244 208/203/243
f 217/212/254 218/213/255 213/214/256 212/215/257
f 211/216/258 210/217/259 215/218/260 214/219/261
f 217/212/254 212/215/257 204/209/262 216/220/263
f 210/217/259 217/212/254 216/220/263 215/218/260
f 212/215/257 213/214/256 203/210/264 204/209/262
f 210/217/259 211/216/258 218/213/255 217/212/254
f 225/221/265 226/222/266 222/223/267 221/224/268
f 220/225/269 219/226/270 233/227/271 223/228/272
f 225/221/265 221/224/268 215/218/273 224/229/274
f 219/226/270 225/221/265 224/229/274 233/227/271
f 221/224/268 222/223/267 214/219/275 215/218/273
f 219/226/270 220/225/269 226/222/266 225/221/265
f 235/230/276 236/231/277 230/232/278 229/233/279
f 228/234/280 227/235/281 232/236/282 231/237/283
f 235/230/276 229/233/279 233/227/284 234/238/285
f 227/235/281 235/230/276 234/238/285 232/236/282
f 229/233/279 230/232/278 223/228/286 233/227/284
f 227/235/281 228/234/280 236/231/277 235/230/276
f 244/239/287 245/240/288 240/241/289 239/242/290
f 238/243/291 237/244/292 242/245/293 241/246/294
f 244/239/287 239/242/290 232/236/295 243/247/296
f 237/244/292 244/239/287 243/247/296 242/245/293
f 239/242/290 240/241/289 231/237/297 232/236/295
f 237/244/292 238/243/291 245/240/288 244/239/287
f 251/248/298 252/249/299 249/250/300 248/251/301
f 247/252/302 246/253/303 258/254/304 259/255/305
f 251/248/298 248/251/301 242/245/306 250/256/307
f 246/253/303 251/248/298 250/256/307 258/254/304
f 248/251/301 249/250/300 241/246/308 242/245/306
f 246/253/303 247/252/302 252/249/299 251/248/298
f 261/257/309 262/258/310 256/259/311 255/260/312
f 254/261/313 253/262/314 257/263/315 269/264/316
f 261/257/309 255/260/312 258/254/317 260/265/318
f 253/262/314 261/257/309 260/265/318 257/263/315
f 255/260/312 256/259/311 259/255/319 258/254/317
f 253/262/314 254/261/313 262/258/310 261/257/309
f 271/266/320 272/267/321 266/268/322 265/269/323
f 264/270/324 263/271/325 268/272/326 267/273/327
f 271/266/320 265/269/323 257/263/328 270/274/329
f 263/271/325 271/266/320 270/274/329 268/272/326
f 265/269/323 266/268/322 269/264/330 257/263/328
f 263/271/325 264/270/324 272/267/321 271/266/320
f 279/275/331 280/276/332 276/277/333 275/278/334
f 274/279/335 273/280/336 285/281/337 277/282/338
f 279/275/331 275/278/334 268/272/339 278/283/340
f 273/280/336 279/275/331 278/283/340 285/281/337
f 275/278/334 276/277/333 267/273/341 268/272/339
f 273/280/336 274/279/335 280/276/332 279/275/331
f 287/284/342 288/285/343 284/286/344 283/287/345
f 282/288/346 281/289/347 6/9/348 7/11/349
f 287/284/342 283/287/345 285/281/350 286/290/351
f 281/289/347 287/284/342 286/290/351 6/9/348
f 283/287/345 284/286/344 277/282/352 285/281/350
f 281/289/347 282/288/346 288/285/343 287/284/342
f 205/291/353 289/292/353 204/293/353 207/294/353
f 195/295/353 289/292/353 205/291/353 196/296/353
f 177/297/353 289/292/353 195/295/353 188/298/353
f 178/299/353 289/292/353 177/297/353 179/300/353
f 158/301/353 289/292/353 178/299/353 170/302/353
f 159/303/353 289/292/353 158/301/353 161/304/353
f 150/305/353 289/292/353 159/303/353 151/306/353
f 133/307/353 289/292/353 132/308/353 134/309/353
f 123/310/353 289/292/353 133/307/353 125/311/353
f 113/312/353 289/292/353 123/310/353 115/313/353
f 97/314/353 289/292/353 113/312/353 106/315/353
f 98/316/353 289/292/353 97/314/353 99/317/353
f 88/318/353 289/292/353 98/316/353 89/319/353
f 78/320/353 289/292/353 88/318/353 80/321/353
f 62/322/353 289/292/353 61/323/353 63/324/353
f 51/325/353 289/292/353 62/322/353 53/326/353
f 33/327/353 289/292/353 51/325/353 43/328/353
f 34/329/353 289/292/353 33/327/353 36/330/353
f 16/331/353 289/292/353 34/329/353 25/332/353
f 5/333/353 289/292/353 16/331/353 18/334/353
f 8/335/353 6/336/353 289/292/353 5/333/353
f 6/336/353 286/337/353 285/338/353 289/292/353
f 289/292/353 285/338/353 278/339/353 268/340/353
f 289/292/353 268/340/353 270/341/353 257/342/353
f 289/292/353 257/342/353 260/343/353 258/344/353
f 289/292/353 258/344/353 250/345/353 242/346/353
f 289/292/353 242/346/353 243/347/353 232/348/353
f 289/292/353 232/348/353 234/349/353 233/350/353
f 289/292/353 78/320/353 70/351/353 61/323/353
f 289/292/353 233/350/353 224/352/353 215/353/353
f 289/292/353 150/305/353 143/354/353 132/308/353
f 289/292/353 215/353/353 216/355/353 204/293/353
f 298/356/354 292/357/355 293/358/356 299/359/357
f 291/360/358 306/361/359 294/362/360 290/363/361
f 298/356/354 297/364/362 295/365/363 292/357/355
f 290/363/361 294/362/360 297/364/362 298/356/354
f 292/357/355 295/365/363 296/366/364 293/358/356
f 290/363/361 298/356/354 299/359/357 291/360/358
f 308/367/365 302/368/366 303/369/367 309/370/368
f 301/371/369 304/372/370 305/373/371 300/374/372
f 308/367/365 307/375/373 294/362/374 302/368/366
f 300/374/372 305/373/371 307/375/373 308/367/365
f 302/368/366 294/362/374 306/361/375 303/369/367
f 300/374/372 308/367/365 309/370/368 301/371/369
f 315/376/376 312/377/377 313/378/378 316/379/379
f 311/380/380 324/381/381 323/382/382 310/383/383
f 315/376/376 314/384/384 305/373/385 312/377/377
f 310/383/383 323/382/382 314/384/384 315/376/376
f 312/377/377 305/373/385 304/372/386 313/378/378
f 310/383/383 315/376/376 316/379/379 311/380/380
f 326/385/387 319/386/388 320/387/389 327/388/390
f 318/389/391 321/390/392 322/391/393 317/392/394
f 326/385/387 325/393/395 323/382/396 319/386/388
f 317/392/394 322/391/393 325/393/395 326/385/387
f 319/386/388 323/382/396 324/381/397 320/387/389
f 317/392/394 326/385/387 327/388/390 318/389/391
f 333/394/398 330/395/399 331/396/400 334/397/401
f 329/398/402 341/399/403 340/400/404 328/401/405
f 333/394/398 332/402/406 322/391/407 330/395/399
f 328/401/405 340/400/404 332/402/406 333/394/398
f 330/395/399 322/391/407 321/390/408 331/396/400
f 328/401/405 333/394/398 334/397/401 329/398/402
f 343/403/409 337/404/410 338/405/411 344/406/412
f 336/407/413 339/408/414 351/409/415 335/410/416
f 343/403/409 342/411/417 340/400/418 337/404/410
f 335/410/416 351/409/415 342/411/417 343/403/409
f 337/404/410 340/400/418 341/399/419 338/405/411
f 335/410/416 343/403/409 344/406/412 336/407/413
f 353/412/420 347/413/421 348/414/422 354/415/423
f 346/416/424 349/417/425 350/418/426 345/419/427
f 353/412/420 352/420/428 351/409/429 347/413/421
f 345/419/427 350/418/426 352/420/428 353/412/420
f 347/413/421 351/409/429 339/408/430 348/414/422
f 345/419/427 353/412/420 354/415/423 346/416/424
f 360/421/431 357/422/432 358/423/433 361/424/434
f 356/425/435 368/426/436 367/427/437 355/428/438
f 360/421/431 359/429/439 350/418/440 357/422/432
f 355/428/438 367/427/437 359/429/439 360/421/431
f 357/422/432 350/418/440 349/417/441 358/423/433
f 355/428/438 360/421/431 361/424/434 356/425/435
f 370/430/442 364/431/443 365/432/444 371/433/445
f 363/434/446 366/435/447 377/436/448 362/437/449
f 370/430/442 369/438/450 367/439/451 364/431/443
f 362/437/449 377/436/448 369/438/450 370/430/442
f 364/431/443 367/439/451 368/440/452 365/432/444
f 362/437/449 370/430/442 371/433/445 363/434/446
f 379/441/453 374/442/454 375/443/455 380/444/456
f 373/445/457 376/446/458 387/447/459 372/448/460
f 379/441/453 378/449/461 377/436/462 374/442/454
f 372/448/460 387/447/459 378/449/461 379/441/453
f 374/442/454 377/436/462 366/435/463 375/443/455
f 372/448/460 379/441/453 380/444/456 373/445/457
f 389/450/464 383/451/465 384/452/466 390/453/467
f 382/454/468 385/455/469 386/456/470 381/457/471
f 389/450/464 388/458/472 387/447/473 383/451/465
f 381/457/471 386/456/470 388/458/472 389/450/464
f 383/451/465 387/447/473 376/446/474 384/452/466
f 381/457/471 389/450/464 390/453/467 382/454/468
f 396/459/475 393/460/476 394/461/477 397/462/478
f 392/463/479 403/464/480 402/465/481 391/466/482
f 396/459/475 395/467/483 386/456/484 393/460/476
f 391/466/482 402/465/481 395/467/483 396/459/475
f 393/460/476 386/456/484 385/455/485 394/461/477
f 391/466/482 396/459/475 397/462/478 392/463/479
f 405/468/486 400/469/487 401/470/488 406/471/489
f 399/472/490 413/473/491 412/474/492 398/475/493
f 405/468/486 404/476/494 402/465/495 400/469/487
f 398/475/493 412/474/492 404/476/494 405/468/486
f 400/469/487 402/465/495 403/464/496 401/470/488
f 398/475/493 405/468/486 406/471/489 399/472/490
f 415/477/497 409/478/498 410/479/499 416/480/500
f 408/481/501 411/482/502 422/483/503 407/484/504
f 415/477/497 414/485/505 412/474/506 409/478/498
f 407/484/504 422/483/503 414/485/505 415/477/497
f 409/478/498 412/474/506 413/473/507 410/479/499
f 407/484/504 415/477/497 416/480/500 408/481/501
f 424/486/508 419/487/509 420/488/510 425/489/511
f 418/490/512 431/491/513 421/492/514 417/493/515
f 424/486/508 423/494/516 422/483/517 419/487/509
f 417/493/515 421/492/514 423/494/516 424/486/508
f 419/487/509 422/483/517 411/482/518 420/488/510
f 417/493/515 424/486/508 425/489/511 418/490/512
f 433/495/519 428/496/520 429/497/521 434/498/522
f 427/499/523 430/500/524 439/501/525 426/502/526
f 433/495/519 432/503/527 421/492/528 428/496/520
f 426/502/526 439/501/525 432/503/527 433/495/519
f 428/496/520 421/492/528 431/491/529 429/497/521
f 426/502/526 433/495/519 434/498/522 427/499/523
f 441/504/530 437/505/531 438/506/532 442/507/533
f 436/508/534 449/509/535 448/510/536 435/511/537
f 441/504/530 440/512/538 439/501/539 437/505/531
f 435/511/537 448/510/536 440/512/538 441/504/530
f 437/505/531 439/501/539 430/500/540 438/506/532
f 435/511/537 441/504/530 442/507/533 436/508/534
f 451/513/541 445/514/542 446/515/543 452/516/544
f 444/517/545 458/518/546 447/519/547 443/520/548
f 451/513/541 450/521/549 448/510/550 445/514/542
f 443/520/548 447/519/547 450/521/549 451/513/541
f 445/514/542 448/510/550 449/509/551 446/515/543
f 443/520/548 451/513/541 452/516/544 444/517/545
f 460/522/552 455/523/553 456/524/554 461/525/555
f 454/526/556 457/527/557 467/528/558 453/529/559
f 460/522/552 459/530/560 447/519/561 455/523/553
f 453/529/559 467/528/558 459/530/560 460/522/552
f 455/523/553 447/519/561 458/518/562 456/524/554
f 453/529/559 460/522/552 461/525/555 454/526/556
f 469/531/563 464/532/564 465/533/565 470/534/566
f 463/535/567 476/536/568 466/537/569 462/538/570
f 469/531/563 468/539/571 467/528/572 464/532/564
f 462/538/570 466/537/569 468/539/571 469/531/563
f 464/532/564 467/528/572 457/527/573 465/533/565
f 462/538/570 469/531/563 470/534/566 463/535/567
f 478/540/574 473/541/575 474/542/576 479/543/577
f 472/544/578 475/545/579 484/546/580 471/547/581
f 478/540/574 477/548/582 466/537/583 473/541/575
f 471/547/581 484/546/580 477/548/582 478/540/574
f 473/541/575 466/537/583 476/536/584 474/542/576
f 471/547/581 478/540/574 479/543/577 472/544/578
f 486/549/585 482/550/586 483/551/587 487/552/588
f 481/553/589 495/554/590 494/555/591 480/556/592
f 486/549/585 485/557/593 484/546/594 482/550/586
f 480/556/592 494/555/591 485/557/593 486/549/585
f 482/550/586 484/546/594 475/545/595 483/551/587
f 480/556/592 486/549/585 487/552/588 481/553/589
f 497/558/596 490/559/597 491/560/598 498/561/599
f 489/562/600 492/563/601 493/564/602 488/565/603
f 497/558/596 496/566/604 494/555/605 490/559/597
f 488/565/603 493/564/602 496/566/604 497/558/596
f 490/559/597 494/555/605 495/554/606 491/560/598
f 488/565/603 497/558/596 498/561/599 489/562/600
f 506/567/607 501/568/608 502/569/609 507/570/610
f 500/571/611 503/572/612 504/573/613 499/574/614
f 506/567/607 505/575/615 493/564/616 501/568/608
f 499/574/614 504/573/613 505/575/615 506/567/607
f 501/568/608 493/564/616 492/563/617 502/569/609
f 499/574/614 506/567/607 507/570/610 500/571/611
f 514/576/618 510/577/619 511/578/620 515/579/621
f 509/580/622 512/581/623 522/582/624 508/583/625
f 514/576/618 513/584/626 504/573/627 510/577/619
f 508/583/625 522/582/624 513/584/626 514/576/618
f 510/577/619 504/573/627 503/572/628 511/578/620
f 508/583/625 514/576/618 515/579/621 509/580/622
f 524/585/629 518/586/630 519/587/631 525/588/632
f 517/589/633 520/590/634 521/591/635 516/592/636
f 524/585/629 523/593/637 522/582/638 518/586/630
f 516/592/636 521/591/635 523/593/637 524/585/629
f 518/586/630 522/582/638 512/581/639 519/587/631
f 516/592/636 524/585/629 525/588/632 517/589/633
f 533/594/640 528/595/641 529/596/642 534/597/643
f 527/598/644 530/599/645 531/600/646 526/601/647
f 533/594/640 532/602/648 521/591/649 528/595/641
f 526/601/647 531/600/646 532/602/648 533/594/640
f 528/595/641 521/591/649 520/590/650 529/596/642
f 526/601/647 533/594/640 534/597/643 527/598/644
f 540/603/651 537/604/652 538/605/653 541/606/654
f 536/607/655 548/608/656 547/609/657 535/610/658
f 540/603/651 539/611/659 531/600/660 537/604/652
f 535/610/658 547/609/657 539/611/659 540/603/651
f 537/604/652 531/600/660 530/599/661 538/605/653
f 535/610/658 540/603/651 541/606/654 536/607/655
f 550/612/662 544/613/663 545/614/664 551/615/665
f 543/616/666 558/617/667 546/618/668 542/619/669
f 550/612/662 549/620/670 547/609/671 544/613/663
f 542/619/669 546/618/668 549/620/670 550/612/662
f 544/613/663 547/609/671 548/608/672 545/614/664
f 542/619/669 550/612/662 551/615/665 543/616/666
f 560/621/673 554/622/674 555/623/675 561/624/676
f 553/625/677 556/626/678 557/627/679 552/628/680
f 560/621/673 559/629/681 546/618/682 554/622/674
f 552/628/680 557/627/679 559/629/681 560/621/673
f 554/622/674 546/618/682 558/617/683 555/623/675
f 552/628/680 560/621/673 561/624/676 553/625/677
f 568/630/684 564/631/685 565/632/686 569/633/687
f 563/634/688 566/635/689 574/636/690 562/637/691
f 568/630/684 567/638/692 557/627/693 564/631/685
f 562/637/691 574/636/690 567/638/692 568/630/684
f 564/631/685 557/627/693 556/626/694 565/632/686
f 562/637/691 568/630/684 569/633/687 563/634/688
f 576/639/695 572/640/696 573/641/697 577/642/698
f 571/643/699 296/366/700 295/365/701 570/644/702
f 576/639/695 575/645/703 574/636/704 572/640/696
f 570/644/702 295/365/701 575/645/703 576/639/695
f 572/640/696 574/636/704 566/635/705 573/641/697
f 570/644/702 576/639/695 577/642/698 571/643/699
f 297/646/706 294/647/707 578/648/708 295/649/709
f 578/648/708 305/650/710 314/651/711 323/652/712
f 578/648/708 439/653/713 440/654/714 448/655/715
f 10/656/716 2/657/717 291/658/718 299/659/719
f 7/660/720 4/661/721 293/662/722 296/663/720
f 4/661/721 10/656/716 299/659/719 293/662/722
f 20/664/723 12/665/724 301/666/725 309/667/723
f 12/665/724 15/668/726 304/669/727 301/666/725
f 17/670/728 14/671/729 303/672/730 306/673/731
f 14/671/729 20/664/723 309/667/723 303/672/730
f 27/674/732 22/675/733 311/676/734 316/677/735
f 24/678/736 27/674/732 316/677/735 313/679/737
f 38/680/738 29/681/739 318/682/740 327/683/741
f 29/681/739 32/684/742 321/685/743 318/682/740
f 35/686/744 31/687/745 320/688/746 324/689/747
f 31/687/745 38/680/738 327/683/741 320/688/746
f 45/690/748 40/691/749 329/692/750 334/693/748
f 42/694/751 45/690/748 334/693/748 331/695/752
f 55/696/753 47/697/754 336/698/755 344/699/753
f 47/697/754 50/700/756 339/701/756 336/698/755
f 52/702/757 49/703/758 338/704/759 341/705/760
f 49/703/758 55/696/753 344/699/753 338/704/759
f 65/706/761 57/707/762 346/708/763 354/709/764
f 57/707/762 60/710/765 349/711/765 346/708/763
f 59/712/766 65/706/761 354/709/764 348/713/767
f 72/714/768 67/715/769 356/716/770 361/717/768
f 69/718/771 72/714/768 361/717/768 358/719/772
f 82/720/773 74/721/774 363/722/775 371/723/773
f 74/721/774 77/724/776 366/725/777 363/722/775
f 79/726/778 76/727/779 365/728/780 368/729/781
f 76/727/779 82/720/773 371/723/773 365/728/780
f 91/730/782 84/731/783 373/732/784 380/733/782
f 84/731/783 87/734/785 376/735/786 373/732/784
f 86/736/787 91/730/782 380/733/782 375/737/788
f 101/738/789 93/739/790 382/740/791 390/741/789
f 93/739/790 96/742/792 385/743/793 382/740/791
f 95/744/794 101/738/789 390/741/789 384/745/795
f 108/746/796 103/747/797 392/748/798 397/749/796
f 105/750/799 108/746/796 397/749/796 394/751/800
f 117/752/801 110/753/802 399/754/803 406/755/801
f 114/756/804 112/757/805 401/758/806 403/759/807
f 112/757/805 117/752/801 406/755/801 401/758/806
f 127/760/808 119/761/809 408/762/810 416/763/808
f 119/761/809 122/764/811 411/765/811 408/762/810
f 124/766/812 121/767/813 410/768/814 413/769/815
f 121/767/813 127/760/808 416/763/808 410/768/814
f 136/770/816 129/771/817 418/772/818 425/773/816
f 131/774/819 136/770/816 425/773/816 420/775/820
f 145/776/821 138/777/822 427/778/823 434/779/824
f 138/777/822 141/780/825 430/781/825 427/778/823
f 142/782/826 140/783/827 429/784/828 431/785/829
f 140/783/827 145/776/821 434/779/824 429/784/828
f 153/786/830 147/787/831 436/788/832 442/789/833
f 149/790/834 153/786/830 442/789/833 438/791/835
f 163/792/836 155/793/837 444/794/838 452/795/836
f 160/796/839 157/797/840 446/798/841 449/799/842
f 157/797/840 163/792/836 452/795/836 446/798/841
f 172/800/843 165/801/844 454/802/845 461/803/843
f 165/801/844 168/804/846 457/805/847 454/802/845
f 169/806/848 167/807/849 456/808/850 458/809/848
f 167/807/849 172/800/843 461/803/843 456/808/850
f 181/810/851 174/811/852 463/812/853 470/813/854
f 176/814/855 181/810/851 470/813/854 465/815/856
f 190/816/857 183/817/858 472/818/859 479/819/857
f 183/817/858 186/820/860 475/821/861 472/818/859
f 187/822/862 185/823/863 474/824/864 476/825/865
f 185/823/863 190/816/857 479/819/857 474/824/864
f 198/826/866 192/827/867 481/828/868 487/829/866
f 194/830/869 198/826/866 487/829/866 483/831/870
f 209/832/871 200/833/872 489/834/873 498/835/871
f 200/833/872 203/836/874 492/837/875 489/834/873
f 206/838/876 202/839/877 491/840/878 495/841/876
f 202/839/877 209/832/871 498/835/871 491/840/878
f 218/842/879 211/843/880 500/844/881 507/845/882
f 211/843/880 214/846/883 503/847/884 500/844/881
f 213/848/885 218/842/879 507/845/882 502/849/886
f 226/850/887 220/851/888 509/852/889 515/853/887
f 220/851/888 223/854/890 512/855/891 509/852/889
f 222/856/892 226/850/887 515/853/887 511/857/893
f 236/858/894 228/859/895 517/860/896 525/861/894
f 228/859/895 231/862/897 520/863/898 517/860/896
f 230/864/899 236/858/894 525/861/894 519/865/900
f 245/866/901 238/867/902 527/868/903 534/869/901
f 238/867/902 241/870/904 530/871/905 527/868/903
f 240/872/906 245/866/901 534/869/901 529/873/907
f 252/874/908 247/875/909 536/876/910 541/877/911
f 249/878/912 252/874/908 541/877/911 538/879/913
f 262/880/914 254/881/915 543/882/916 551/883/917
f 259/884/918 256/885/919 545/886/920 548/887/921
f 256/885/919 262/880/914 551/883/917 545/886/920
f 272/888/922 264/889/923 553/890/924 561/891/922
f 264/889/923 267/892/925 556/893/926 553/890/924
f 269/894/927 266/895/928 555/896/929 558/897/930
f 266/895/928 272/888/922 561/891/922 555/896/929
f 280/898/931 274/899/932 563/900/933 569/901/931
f 274/899/932 277/902/934 566/903/935 563/900/933
f 276/904/936 280/898/931 569/901/931 565/905/937
f 288/906/938 282/907/939 571/908/940 577/909/941
f 284/910/942 288/906/938 577/909/941 573/911/943
f 2/657/717 17/670/728 306/673/731 291/658/718
f 22/675/733 35/686/744 324/689/747 311/676/734
f 15/668/726 24/678/736 313/679/737 304/669/727
f 40/691/749 52/702/757 341/705/760 329/692/750
f 32/684/742 42/694/751 331/695/752 321/685/743
f 50/700/756 59/712/766 348/713/767 339/701/756
f 67/715/769 79/726/778 368/729/781 356/716/770
f 60/710/765 69/718/771 358/719/772 349/711/765
f 77/724/776 86/736/787 375/737/788 366/725/777
f 87/734/785 95/744/794 384/745/795 376/735/786
f 103/747/797 114/756/804 403/759/807 392/748/798
f 96/742/792 105/750/799 394/751/800 385/743/793
f 110/753/802 124/766/812 413/769/815 399/754/803
f 129/771/817 142/782/826 431/785/829 418/772/818
f 122/764/811 131/774/819 420/775/820 411/765/811
f 147/787/831 160/796/839 449/799/842 436/788/832
f 141/912/825 149/790/834 438/791/835 430/913/825
f 155/793/837 169/806/848 458/809/848 444/794/838
f 174/811/852 187/822/862 476/825/865 463/812/853
f 168/804/846 176/814/855 465/815/856 457/805/847
f 192/827/867 206/838/876 495/841/876 481/828/868
f 186/820/860 194/830/869 483/831/870 475/821/861
f 203/836/874 213/848/885 502/849/886 492/837/875
f 214/846/883 222/856/892 511/857/893 503/847/884
f 223/854/890 230/864/899 519/865/900 512/855/891
f 231/862/897 240/872/906 529/873/907 520/863/898
f 247/875/909 259/884/918 548/887/921 536/876/910
f 241/870/904 249/878/912 538/879/913 530/871/905
f 254/881/915 269/894/927 558/897/930 543/882/916
f 267/892/925 276/904/936 565/905/937 556/893/926
f 282/907/939 7/914/720 296/915/720 571/908/940
f 277/902/934 284/910/942 573/911/943 566/903/935
f 578/648/708 504/916/944 513/917/945 522/918/946
f 578/648/708 367/919/947 369/920/948 377/921/949
f 294/647/707 307/922/950 305/650/710 578/648/708
f 578/648/708 323/652/712 325/923/951 322/924/952
f 578/648/708 322/924/952 332/925/953 340/926/954
f 578/648/708 340/926/954 342/927/955 351/928/956
f 578/648/708 351/928/956 352/929/957 350/930/958
f 367/919/947 578/648/708 350/930/958 359/931/959
f 578/648/708 377/921/949 378/932/960 387/933/961
f 578/648/708 387/933/961 388/934/962 386/935/963
f 578/648/708 386/935/963 395/936/964 402/937/965
f 578/648/708 402/937/965 404/938/966 412/939/967
f 578/648/708 412/939/967 414/940/968 422/941/969
f 578/648/708 422/941/969 423/942/970 421/943/971
f 439/653/713 578/648/708 421/943/971 432/944/972
f 578/648/708 448/655/715 450/945/973 447/946/974
f 578/648/708 447/946/974 459/947/975 467/948/976
f 578/648/708 467/948/976 468/949/977 466/950/978
f 578/648/708 466/950/978 477/951/979 484/952/980
f 578/648/708 484/952/980 485/953/981 494/954/982
f 578/648/708 494/954/982 496/955/983 493/956/984
f 504/916/944 578/648/708 493/956/984 505/957/985
f 578/648/708 522/918/946 523/958/986 521/959/987
f 578/648/708 521/959/987 532/960/988 531/961/989
f 578/648/708 531/961/989 539/962/990 547/963/991
f 578/648/708 547/963/991 549/964/992 546/965/993
f 578/648/708 546/965/993 559/966/994 557/967/995
f 578/648/708 557/967/995 567/968/996 574/969/997
f 295/649/709 578/648/708 574/969/997 575/970/998
