# Blender 4.0.2
# www.blender.org
o carved_bird_ornament
v -0.001991 0.022405 -0.030033
v -0.002300 0.030376 -0.030179
v -0.008074 0.028968 -0.018737
v -0.011063 0.029238 -0.005109
v -0.006085 0.038459 0.012283
v -0.010390 0.030352 0.001256
v -0.009312 0.032306 0.006347
v -0.001421 0.042992 0.033375
v -0.003086 0.047622 0.015096
v -0.003819 0.027684 -0.031828
v -0.012835 0.022906 -0.019018
v -0.005645 0.048787 0.020252
v -0.005534 0.029337 -0.024293
v -0.009114 0.024611 -0.025320
v -0.003143 0.025480 -0.031552
v -0.006733 0.012398 -0.018723
v -0.010422 0.027037 -0.018862
v -0.013948 0.027023 -0.004549
v -0.011181 0.007435 -0.000082
v -0.008032 0.037496 0.013732
v -0.005922 0.025803 0.028126
v -0.008677 0.007518 0.012166
v -0.013586 0.028087 0.001883
v -0.008403 0.010471 0.020021
v -0.012337 0.030198 0.007379
v -0.004123 0.047927 0.016283
v -0.004672 0.043472 0.013532
v -0.001304 0.041284 0.033047
v -0.003294 0.029767 -0.031527
v -0.011436 0.017154 -0.019011
v -0.015720 0.013580 -0.001681
v -0.009446 0.029403 0.023418
v -0.015341 0.014972 0.007997
v -0.014128 0.018160 0.015372
v -0.001054 0.043718 0.032635
v -0.007524 0.040414 0.019230
v -0.014726 0.025723 0.010228
v -0.016132 0.023390 0.003704
v -0.009628 0.034095 0.018019
v -0.016348 0.022177 -0.003488
v -0.004131 0.016877 -0.025568
v -0.008437 0.020799 -0.025587
v -0.007446 0.027862 -0.024703
v -0.000000 0.023491 -0.031034
v -0.000000 0.028563 -0.033240
v -0.000000 0.031438 -0.005818
v 0.000000 0.032477 0.000718
v -0.000000 0.010766 -0.018394
v -0.000000 0.016287 -0.025524
v 0.000000 0.048791 0.014535
v 0.000000 0.050671 0.020178
v 0.000000 0.024231 0.030669
v 0.000000 0.008019 0.021387
v 0.000000 0.039957 0.010418
v 0.000000 0.034416 0.005309
v 0.000000 0.043289 0.034131
v -0.000000 0.030658 -0.030666
v -0.000000 0.030561 -0.024010
v -0.000000 0.030595 -0.018643
v 0.000000 0.005349 0.014578
v -0.000000 0.026750 -0.032814
v 0.000000 0.049838 0.015807
v 0.000000 0.044701 0.011980
v 0.000000 0.048898 0.025078
v 0.000000 0.041265 0.033608
v -0.000000 0.030212 -0.032883
v 0.000000 0.044142 0.032806
v 0.000000 0.031575 0.030016
v 0.000000 0.045445 0.027558
v 0.000000 0.036723 0.029790
v 0.000000 0.044767 0.030424
v 0.000000 0.038800 0.031657
v -0.000000 0.030733 -0.012433
v -0.000000 0.006370 -0.012939
v 0.000000 0.000000 0.012857
v -0.000000 0.000000 -0.011018
v 0.000000 0.003217 0.012357
v -0.000000 0.003454 -0.010497
v 0.000000 0.036486 0.008001
v 0.000000 0.015387 0.028474
v -0.006867 0.037277 0.024563
v -0.006009 0.042853 0.014871
v -0.003333 0.032662 0.028434
v -0.004961 0.047123 0.025128
v -0.002639 0.037611 0.028706
v -0.004820 0.040865 0.027826
v -0.003683 0.044213 0.027483
v -0.002099 0.039254 0.030835
v -0.003162 0.041735 0.030559
v -0.002383 0.043770 0.030281
v -0.014992 0.022098 -0.011531
v -0.008715 0.008081 -0.010668
v -0.012646 0.026800 -0.011667
v -0.013936 0.014722 -0.011179
v -0.009964 0.028934 -0.012000
v -0.006746 0.000000 -0.007713
v -0.009393 0.000000 0.000000
v -0.007182 0.000000 0.009552
v -0.008428 0.003104 0.000000
v -0.006530 0.003423 -0.008111
v -0.007207 0.003257 0.009804
v -0.010023 0.033130 0.010737
v -0.011664 0.022594 0.020358
v -0.007561 0.034594 0.009533
v -0.007367 0.016965 0.025866
v -0.012259 0.029049 0.014550
v 0.000000 0.000000 0.000000
v 0.001991 0.022405 -0.030033
v 0.002300 0.030376 -0.030179
v 0.008074 0.028968 -0.018737
v 0.011063 0.029238 -0.005109
v 0.006085 0.038459 0.012283
v 0.010390 0.030352 0.001256
v 0.009312 0.032306 0.006347
v 0.001421 0.042992 0.033375
v 0.003086 0.047622 0.015096
v 0.003819 0.027684 -0.031828
v 0.012835 0.022906 -0.019018
v 0.005645 0.048787 0.020252
v 0.005534 0.029337 -0.024293
v 0.009114 0.024611 -0.025320
v 0.003143 0.025480 -0.031552
v 0.006733 0.012398 -0.018723
v 0.010422 0.027037 -0.018862
v 0.013948 0.027023 -0.004549
v 0.011181 0.007435 -0.000082
v 0.008032 0.037496 0.013732
v 0.005922 0.025803 0.028126
v 0.008677 0.007518 0.012166
v 0.013586 0.028087 0.001883
v 0.008403 0.010471 0.020021
v 0.012337 0.030198 0.007379
v 0.004123 0.047927 0.016283
v 0.004672 0.043472 0.013532
v 0.001304 0.041284 0.033047
v 0.003294 0.029767 -0.031527
v 0.011436 0.017154 -0.019011
v 0.015720 0.013580 -0.001681
v 0.009446 0.029403 0.023418
v 0.015341 0.014972 0.007997
v 0.014128 0.018160 0.015372
v 0.001054 0.043718 0.032635
v 0.007524 0.040414 0.019230
v 0.014726 0.025723 0.010228
v 0.016132 0.023390 0.003704
v 0.009628 0.034095 0.018019
v 0.016348 0.022177 -0.003488
v 0.004131 0.016877 -0.025568
v 0.008437 0.020799 -0.025587
v 0.007446 0.027862 -0.024703
v 0.006867 0.037277 0.024563
v 0.006009 0.042853 0.014871
v 0.003333 0.032662 0.028434
v 0.004961 0.047123 0.025128
v 0.002639 0.037611 0.028706
v 0.004820 0.040865 0.027826
v 0.003683 0.044213 0.027483
v 0.002099 0.039254 0.030835
v 0.003162 0.041735 0.030559
v 0.002383 0.043770 0.030281
v 0.014992 0.022098 -0.011531
v 0.008715 0.008081 -0.010668
v 0.012646 0.026800 -0.011667
v 0.013936 0.014722 -0.011179
v 0.009964 0.028934 -0.012000
v 0.006746 0.000000 -0.007713
v 0.009393 0.000000 -0.000000
v 0.007182 0.000000 0.009552
v 0.008428 0.003104 -0.000000
v 0.006530 0.003423 -0.008111
v 0.007207 0.003257 0.009804
v 0.010023 0.033130 0.010737
v 0.011664 0.022594 0.020358
v 0.007561 0.034594 0.009533
v 0.007367 0.016965 0.025866
v 0.012259 0.029049 0.014550
vn -0.6665 -0.6534 0.3589
vn -0.0000 -0.8168 0.5769
vn -0.0000 -0.8248 0.5654
vn -0.6014 -0.6252 0.4974
vn -0.4714 0.7186 -0.5113
vn -0.0000 0.7402 -0.6724
vn -0.0000 0.8938 -0.4484
vn -0.4475 0.8391 -0.3092
vn -0.4280 0.8963 -0.1161
vn -0.7699 0.6129 -0.1776
vn -0.7832 0.6119 -0.1102
vn -0.4359 0.8920 -0.1197
vn -0.9179 0.1399 -0.3714
vn -0.7750 -0.4116 -0.4796
vn -0.8629 -0.4051 -0.3022
vn -0.9622 0.1370 -0.2352
vn -0.5368 0.4006 -0.7426
vn -0.8277 0.3727 -0.4195
vn -0.6553 0.6323 -0.4133
vn -0.4755 0.5711 -0.6691
vn -0.5999 -0.6617 -0.4497
vn -0.0000 -0.7300 -0.6835
vn -0.0000 -0.3326 -0.9431
vn -0.7105 -0.3065 -0.6334
vn -0.5465 0.6476 -0.5311
vn -0.7171 0.6321 -0.2938
vn -0.3939 0.9157 -0.0794
vn -0.3035 0.9480 -0.0959
vn -0.6250 0.0923 -0.7752
vn -0.0000 0.0332 -0.9994
vn -0.0000 -0.3185 -0.9479
vn -0.4225 -0.3294 -0.8444
vn -0.0000 -0.3277 0.9448
vn -0.6286 -0.2302 0.7429
vn -0.5399 0.0729 0.8386
vn -0.0000 0.0702 0.9975
vn -0.0000 -0.4288 0.9034
vn -0.5775 -0.3694 0.7280
vn -0.6207 -0.4731 0.6252
vn -0.0000 -0.6679 0.7442
vn -0.7731 0.6309 -0.0654
vn -0.9763 0.2100 0.0519
vn -0.9430 0.2874 0.1680
vn -0.7656 0.6410 -0.0544
vn -0.4199 -0.7181 -0.5550
vn -0.0000 -0.8133 -0.5819
vn -0.6621 -0.3649 -0.6545
vn -0.8370 0.1393 -0.5292
vn -0.0000 0.0314 -0.9995
vn -0.7678 0.1074 -0.6316
vn -0.5300 0.4880 -0.6935
vn -0.8348 0.4686 -0.2890
vn -0.9831 0.1604 -0.0887
vn -0.8618 0.0480 0.5050
vn -0.8326 0.0544 0.5512
vn -0.2283 -0.5416 -0.8090
vn -0.3039 -0.6522 -0.6945
vn -0.9250 -0.1627 0.3435
vn -0.6093 -0.3164 0.7271
vn -0.8875 0.0166 0.4605
vn -0.7611 -0.2997 0.5752
vn -0.9812 -0.1873 -0.0469
vn -0.9875 0.1500 -0.0480
vn -0.7832 0.0997 0.6137
vn -0.4266 0.8850 -0.1862
vn -0.7379 0.6744 0.0271
vn -0.0000 0.9992 0.0402
vn -0.0000 0.8991 -0.4378
vn -0.8268 -0.5619 -0.0248
vn -0.9227 -0.3815 -0.0559
vn -0.0000 0.3632 0.9317
vn -0.6769 0.2331 0.6982
vn -0.9324 -0.3175 0.1725
vn -0.0000 -0.4598 0.8880
vn -0.0000 0.9936 -0.1130
vn -0.0000 0.6698 -0.7425
vn -0.5929 0.0024 0.8053
vn -0.8511 0.1595 0.5002
vn -0.6572 0.5535 0.5117
vn -0.0000 0.8146 0.5801
vn -0.0000 -0.0776 0.9970
vn -0.5525 0.7406 0.3825
vn -0.0000 0.9122 0.4097
vn -0.0000 0.9641 0.2655
vn -0.6397 0.6857 0.3474
vn -0.0000 0.6732 -0.7394
vn -0.9186 0.3435 0.1954
vn -0.8608 0.1507 0.4862
vn -0.9596 0.2788 0.0391
vn -0.9362 0.3239 0.1362
vn -0.0000 0.9926 -0.1214
vn -0.0000 0.9980 -0.0625
vn -0.0000 0.9672 -0.2539
vn -0.7752 0.6144 -0.1470
vn -0.0000 0.4242 -0.9056
vn -0.0000 0.9999 0.0108
vn -0.0000 -0.3411 0.9400
vn -0.7410 0.6248 -0.2460
vn -0.4241 0.8980 -0.1174
vn -0.6595 0.4976 0.5634
vn -0.0000 -0.7176 -0.6965
vn -0.0000 0.7933 0.6089
vn -0.0000 0.4753 -0.8798
vn -0.0000 -0.5237 -0.8519
vn -0.0000 0.9996 -0.0270
vn -0.0000 0.0367 0.9993
vn -0.0000 -1.0000 -0.0000
vn 0.6665 -0.6534 0.3589
vn 0.6014 -0.6252 0.4974
vn 0.4714 0.7186 -0.5113
vn 0.4475 0.8391 -0.3092
vn 0.4280 0.8963 -0.1161
vn 0.4359 0.8920 -0.1197
vn 0.7832 0.6119 -0.1102
vn 0.7699 0.6129 -0.1776
vn 0.9179 0.1399 -0.3714
vn 0.9622 0.1370 -0.2352
vn 0.8629 -0.4051 -0.3022
vn 0.7750 -0.4116 -0.4796
vn 0.5368 0.4006 -0.7426
vn 0.4755 0.5711 -0.6691
vn 0.6553 0.6323 -0.4133
vn 0.8277 0.3727 -0.4195
vn 0.5999 -0.6617 -0.4497
vn 0.7105 -0.3065 -0.6334
vn 0.5465 0.6476 -0.5311
vn 0.3035 0.9480 -0.0959
vn 0.3939 0.9157 -0.0794
vn 0.7171 0.6321 -0.2938
vn 0.6250 0.0923 -0.7752
vn 0.4225 -0.3294 -0.8444
vn 0.5399 0.0729 0.8386
vn 0.6286 -0.2302 0.7429
vn 0.6207 -0.4731 0.6252
vn 0.5775 -0.3694 0.7280
vn 0.7731 0.6309 -0.0654
vn 0.7656 0.6410 -0.0544
vn 0.9430 0.2874 0.1680
vn 0.9763 0.2100 0.0519
vn 0.4199 -0.7181 -0.5550
vn 0.6621 -0.3649 -0.6545
vn 0.8370 0.1393 -0.5292
vn 0.7678 0.1074 -0.6316
vn 0.5300 0.4880 -0.6935
vn 0.8348 0.4686 -0.2890
vn 0.9831 0.1604 -0.0887
vn 0.8326 0.0544 0.5512
vn 0.8618 0.0480 0.5050
vn 0.2283 -0.5416 -0.8090
vn 0.3039 -0.6522 -0.6945
vn 0.9250 -0.1627 0.3435
vn 0.8875 0.0166 0.4605
vn 0.6093 -0.3164 0.7271
vn 0.7611 -0.2997 0.5752
vn 0.7832 0.0997 0.6137
vn 0.9875 0.1500 -0.0480
vn 0.9812 -0.1873 -0.0470
vn 0.4266 0.8850 -0.1862
vn 0.7379 0.6744 0.0271
vn 0.9227 -0.3815 -0.0559
vn 0.8268 -0.5619 -0.0248
vn 0.6769 0.2331 0.6982
vn 0.9324 -0.3175 0.1725
vn 0.8511 0.1595 0.5002
vn 0.5929 0.0024 0.8053
vn 0.6572 0.5535 0.5117
vn 0.5525 0.7406 0.3825
vn 0.6397 0.6857 0.3474
vn 0.9186 0.3435 0.1954
vn 0.8608 0.1507 0.4862
vn 0.9596 0.2788 0.0391
vn 0.9362 0.3239 0.1362
vn 0.7752 0.6144 -0.1470
vn 0.4241 0.8980 -0.1174
vn 0.7410 0.6248 -0.2460
vn 0.6595 0.4976 0.5634
vt 0.906189 0.378942
vt 0.993742 0.410186
vt 0.977071 0.481770
vt 0.899996 0.455839
vt 0.421963 0.252011
vt 0.500947 0.251700
vt 0.501125 0.286108
vt 0.406842 0.289169
vt 0.409286 0.461757
vt 0.378414 0.461896
vt 0.363180 0.399039
vt 0.396400 0.399801
vt 0.648895 0.170096
vt 0.696618 0.149691
vt 0.741678 0.210076
vt 0.678774 0.233076
vt 0.454877 0.165175
vt 0.437463 0.162978
vt 0.462833 0.120905
vt 0.473692 0.129192
vt 0.073008 0.830342
vt 0.005610 0.799869
vt 0.016559 0.773002
vt 0.080255 0.779067
vt 0.473155 0.634976
vt 0.430308 0.576165
vt 0.451552 0.571253
vt 0.482767 0.622427
vt 0.575503 0.044728
vt 0.562312 0.008628
vt 0.580574 0.007718
vt 0.595060 0.038207
vt 0.762081 0.688815
vt 0.739785 0.670529
vt 0.776049 0.637091
vt 0.804793 0.664089
vt 0.727284 0.730920
vt 0.720943 0.720063
vt 0.730682 0.694944
vt 0.746233 0.709490
vt 0.670697 0.372320
vt 0.723315 0.364721
vt 0.731493 0.428316
vt 0.676029 0.431175
vt 0.744739 0.114065
vt 0.781215 0.059364
vt 0.843598 0.087713
vt 0.811652 0.172360
vt 0.648389 0.099205
vt 0.616708 0.112220
vt 0.015823 0.746275
vt 0.083264 0.746275
vt 0.437836 0.208514
vt 0.414806 0.206391
vt 0.655372 0.310494
vt 0.706172 0.301358
vt 0.705931 0.697517
vt 0.700654 0.666895
vt 0.582667 0.117047
vt 0.555586 0.045626
vt 0.627145 0.031932
vt 0.685616 0.064480
vt 0.814007 0.440261
vt 0.873657 0.525453
vt 0.803065 0.502791
vt 0.263512 0.780028
vt 0.161993 0.776544
vt 0.162168 0.746275
vt 0.263645 0.746275
vt 0.399071 0.340057
vt 0.363180 0.340681
vt 0.372545 0.288646
vt 0.609801 0.642772
vt 0.574301 0.678312
vt 0.546472 0.648929
vt 0.579489 0.622564
vt 0.853208 0.269580
vt 0.782659 0.285591
vt 0.162474 0.819352
vt 0.710782 0.740359
vt 0.708979 0.726891
vt 0.807103 0.367092
vt 0.930682 0.568259
vt 0.502892 0.626604
vt 0.502995 0.646448
vt 0.823933 0.591540
vt 0.765442 0.561125
vt 0.639785 0.669091
vt 0.612917 0.706176
vt 0.866636 0.628137
vt 0.546472 0.012261
vt 0.700282 0.728161
vt 0.697160 0.737491
vt 0.677171 0.728551
vt 0.688429 0.707760
vt 0.500215 0.110680
vt 0.500288 0.124556
vt 0.723466 0.483418
vt 0.712093 0.615462
vt 0.609318 0.575311
vt 0.658043 0.590145
vt 0.644986 0.531518
vt 0.699986 0.543003
vt 0.501715 0.399765
vt 0.502040 0.462422
vt 0.501384 0.336054
vt 0.665300 0.479572
vt 0.394003 0.250857
vt 0.500487 0.163027
vt 0.271194 0.826203
vt 0.502588 0.568033
vt 0.341066 0.800250
vt 0.341066 0.775795
vt 0.401049 0.525134
vt 0.428010 0.521760
vt 0.670174 0.683351
vt 0.700412 0.028886
vt 0.605361 0.176350
vt 0.630676 0.244602
vt 0.652834 0.716792
vt 0.500726 0.209066
vt 0.616751 0.010798
vt 0.502336 0.519581
vt 0.341066 0.746275
vt 0.753409 0.774824
vt 0.773108 0.698152
vt 0.839621 0.673698
vt 0.839621 0.774824
vt 0.768808 0.868380
vt 0.839621 0.892834
vt 0.094886 0.375326
vt 0.101079 0.452224
vt 0.024004 0.478154
vt 0.007333 0.406570
vt 0.579930 0.251192
vt 0.595436 0.288190
vt 0.594782 0.460795
vt 0.607024 0.398709
vt 0.640235 0.397602
vt 0.625654 0.460613
vt 0.352181 0.166480
vt 0.322302 0.229460
vt 0.259398 0.206459
vt 0.304458 0.146074
vt 0.546117 0.164703
vt 0.526930 0.128916
vt 0.537702 0.120516
vt 0.563506 0.162324
vt 0.609123 0.830342
vt 0.601877 0.779067
vt 0.665573 0.773001
vt 0.676522 0.799868
vt 0.532714 0.634666
vt 0.522972 0.622219
vt 0.553654 0.570723
vt 0.574948 0.575415
vt 0.425574 0.041110
vt 0.406016 0.034589
vt 0.420502 0.004100
vt 0.438765 0.005010
vt 0.238995 0.685200
vt 0.196282 0.660473
vt 0.225026 0.633476
vt 0.261290 0.666914
vt 0.273792 0.727306
vt 0.254842 0.705875
vt 0.270393 0.691329
vt 0.280132 0.716448
vt 0.330380 0.368704
vt 0.325048 0.427559
vt 0.269584 0.424700
vt 0.277761 0.361105
vt 0.256336 0.110448
vt 0.189423 0.168744
vt 0.157477 0.084096
vt 0.219861 0.055746
vt 0.352687 0.095588
vt 0.384368 0.108603
vt 0.598867 0.746275
vt 0.666308 0.746275
vt 0.563607 0.207862
vt 0.586614 0.205500
vt 0.345704 0.306877
vt 0.294904 0.297741
vt 0.300422 0.663280
vt 0.295145 0.693902
vt 0.445490 0.042009
vt 0.418409 0.113430
vt 0.373932 0.028315
vt 0.315460 0.060863
vt 0.187069 0.436645
vt 0.198010 0.499175
vt 0.127418 0.521838
vt 0.418619 0.780027
vt 0.418486 0.746275
vt 0.519963 0.746275
vt 0.520139 0.776544
vt 0.603734 0.338995
vt 0.629725 0.287312
vt 0.639629 0.339246
vt 0.391275 0.639157
vt 0.421588 0.618950
vt 0.454605 0.645314
vt 0.426775 0.674697
vt 0.218417 0.281975
vt 0.147868 0.265964
vt 0.519658 0.819352
vt 0.292096 0.723276
vt 0.290294 0.736745
vt 0.193972 0.363476
vt 0.070393 0.564643
vt 0.235634 0.557509
vt 0.177142 0.587925
vt 0.361291 0.665476
vt 0.388160 0.702562
vt 0.134439 0.624522
vt 0.454605 0.008644
vt 0.300794 0.724546
vt 0.312648 0.704145
vt 0.323905 0.724936
vt 0.303916 0.733877
vt 0.277610 0.479802
vt 0.288982 0.611847
vt 0.391758 0.571696
vt 0.343033 0.586529
vt 0.356091 0.527902
vt 0.301090 0.539388
vt 0.335777 0.475956
vt 0.607876 0.249748
vt 0.410938 0.826202
vt 0.576681 0.520989
vt 0.603675 0.524083
vt 0.330902 0.679736
vt 0.300664 0.025269
vt 0.395716 0.172733
vt 0.370401 0.240985
vt 0.348242 0.713177
vt 0.384325 0.007181
vt 0.925834 0.774824
vt 0.906135 0.698152
vt 0.910436 0.868380
s 1
f 22/1/1 60/2/2 53/3/3 24/4/4
f 104/5/5 79/6/6 55/7/7 7/8/8
f 95/9/9 93/10/10 18/11/11 4/12/12
f 11/13/13 30/14/14 94/15/15 91/16/16
f 27/17/17 82/18/18 26/19/19 9/20/20
f 92/21/21 74/22/22 78/23/23 100/24/24
f 29/25/25 43/26/26 13/27/27 2/28/28
f 10/29/29 45/30/30 61/31/31 15/32/32
f 70/33/33 85/34/34 83/35/35 68/36/36
f 65/37/37 28/38/38 88/39/39 72/40/40
f 23/41/41 38/42/42 37/43/43 25/44/44
f 16/45/45 48/46/46 74/47/22 92/48/21
f 42/49/47 30/14/14 11/13/13 14/50/48
f 100/24/24 78/23/23 76/51/49 96/52/50
f 5/53/51 20/54/52 82/18/18 27/17/17
f 18/55/11 40/56/53 38/42/42 23/41/41
f 88/39/39 89/57/54 86/58/55 85/34/34
f 10/29/29 14/50/48 43/59/26 29/60/25
f 1/61/56 41/62/57 42/49/47 15/32/32
f 34/63/58 24/4/4 105/64/59 103/65/60
f 101/66/61 99/67/62 97/68/63 98/69/64
f 6/70/65 23/71/41 25/72/44 7/8/8
f 41/62/57 16/45/45 30/14/14 42/49/47
f 12/73/66 51/74/67 62/75/68 26/76/19
f 94/15/15 92/48/21 19/77/69 31/78/70
f 19/79/69 92/21/21 100/24/24 99/67/62
f 28/38/38 65/37/37 56/80/71 8/81/72
f 28/38/38 8/81/72 89/57/54 88/39/39
f 38/42/42 33/82/73 34/63/58 37/43/43
f 24/4/4 53/3/3 80/83/74 105/64/59
f 2/28/28 57/84/75 66/85/76 29/25/25
f 103/65/60 105/64/59 21/86/77 32/87/78
f 84/88/79 64/89/80 51/74/67 12/73/66
f 21/86/77 52/90/81 68/36/36 83/35/35
f 29/60/25 66/91/76 45/30/30 10/29/29
f 35/92/82 67/93/83 71/94/84 90/95/85
f 26/19/19 62/96/68 50/97/86 9/20/20
f 37/43/43 34/63/58 103/65/60 106/98/87
f 85/34/34 86/58/55 81/99/88 83/35/35
f 82/100/18 36/101/89 12/73/66 26/76/19
f 20/102/52 39/103/90 36/101/89 82/100/18
f 8/81/72 35/92/82 90/95/85 89/57/54
f 4/12/12 46/104/91 73/105/92 95/9/9
f 7/8/8 55/7/7 47/106/93 6/70/65
f 31/78/70 19/77/69 22/1/1 33/82/73
f 102/107/94 106/98/87 39/103/90 20/102/52
f 25/44/44 37/43/43 106/98/87 102/107/94
f 104/5/5 102/108/94 20/54/52 5/53/51
f 9/20/20 50/97/86 63/109/95 27/17/17
f 22/110/1 19/79/69 99/67/62 101/66/61
f 39/103/90 32/87/78 81/99/88 36/101/89
f 13/27/27 58/111/96 57/84/75 2/28/28
f 60/112/2 22/110/1 101/66/61 77/113/97
f 32/87/78 21/86/77 83/35/35 81/99/88
f 40/56/53 31/78/70 33/82/73 38/42/42
f 43/26/26 17/114/98 3/115/99 13/27/27
f 89/57/54 90/95/85 87/116/100 86/58/55
f 106/98/87 103/65/60 32/87/78 39/103/90
f 41/62/57 49/117/101 48/46/46 16/45/45
f 8/81/72 56/80/71 67/93/83 35/92/82
f 14/50/48 11/13/13 17/118/98 43/59/26
f 15/32/32 42/49/47 14/50/48 10/29/29
f 93/119/10 91/16/16 40/56/53 18/55/11
f 30/14/14 16/45/45 92/48/21 94/15/15
f 90/95/85 71/94/84 69/120/102 87/116/100
f 33/82/73 22/1/1 24/4/4 34/63/58
f 7/8/8 25/72/44 102/108/94 104/5/5
f 27/17/17 63/109/95 54/121/103 5/53/51
f 1/61/56 44/122/104 49/117/101 41/62/57
f 91/16/16 94/15/15 31/78/70 40/56/53
f 15/32/32 61/31/31 44/122/104 1/61/56
f 72/40/40 88/39/39 85/34/34 70/33/33
f 36/101/89 81/99/88 84/88/79 12/73/66
f 95/9/9 73/105/92 59/123/105 3/115/99
f 17/118/98 11/13/13 91/16/16 93/119/10
f 87/116/100 69/120/102 64/89/80 84/88/79
f 77/113/97 101/66/61 98/69/64 75/124/106
f 86/58/55 87/116/100 84/88/79 81/99/88
f 6/70/65 47/106/93 46/104/91 4/12/12
f 3/115/99 59/123/105 58/111/96 13/27/27
f 5/53/51 54/121/103 79/6/6 104/5/5
f 99/67/62 100/24/24 96/52/50 97/68/63
f 3/115/99 17/114/98 93/10/10 95/9/9
f 4/12/12 18/11/11 23/71/41 6/70/65
f 105/64/59 80/83/74 52/90/81 21/86/77
f 97/125/107 96/126/107 76/127/107 107/128/107
f 98/129/107 97/125/107 107/128/107 75/130/107
f 129/131/108 131/132/109 53/133/3 60/134/2
f 174/135/110 114/136/111 55/7/7 79/6/6
f 165/137/112 111/138/113 125/139/114 163/140/115
f 118/141/116 161/142/117 164/143/118 137/144/119
f 134/145/120 116/146/121 133/147/122 152/148/123
f 162/149/124 170/150/125 78/151/23 74/152/22
f 136/153/126 109/154/127 120/155/128 150/156/129
f 117/157/130 122/158/131 61/159/31 45/160/30
f 70/161/33 68/162/36 153/163/132 155/164/133
f 65/165/37 72/166/40 158/167/134 135/168/135
f 130/169/136 132/170/137 144/171/138 145/172/139
f 123/173/140 162/174/124 74/175/22 48/176/46
f 149/177/141 121/178/142 118/141/116 137/144/119
f 170/150/125 166/179/143 76/180/49 78/151/23
f 112/181/144 134/145/120 152/148/123 127/182/145
f 125/183/114 130/169/136 145/172/139 147/184/146
f 158/167/134 155/164/133 156/185/147 159/186/148
f 117/157/130 136/187/126 150/188/129 121/178/142
f 108/189/149 122/158/131 149/177/141 148/190/150
f 141/191/151 173/192/152 175/193/153 131/132/109
f 171/194/154 168/195/155 167/196/156 169/197/157
f 113/198/158 114/136/111 132/199/137 130/200/136
f 148/190/150 149/177/141 137/144/119 123/173/140
f 119/201/159 133/202/122 62/203/68 51/204/67
f 164/143/118 138/205/160 126/206/161 162/174/124
f 126/207/161 169/197/157 170/150/125 162/149/124
f 135/168/135 115/208/162 56/209/71 65/165/37
f 135/168/135 158/167/134 159/186/148 115/208/162
f 145/172/139 144/171/138 141/191/151 140/210/163
f 131/132/109 175/193/153 80/211/74 53/133/3
f 109/154/127 136/153/126 66/85/76 57/84/75
f 173/192/152 139/212/164 128/213/165 175/193/153
f 154/214/166 119/201/159 51/204/67 64/215/80
f 128/213/165 153/163/132 68/162/36 52/216/81
f 136/187/126 117/157/130 45/160/30 66/217/76
f 142/218/167 160/219/168 71/220/84 67/221/83
f 133/147/122 116/146/121 50/97/86 62/96/68
f 144/171/138 176/222/169 173/192/152 141/191/151
f 155/164/133 153/163/132 151/223/170 156/185/147
f 152/224/123 133/202/122 119/201/159 143/225/171
f 127/226/145 152/224/123 143/225/171 146/227/172
f 115/208/162 159/186/148 160/219/168 142/218/167
f 111/138/113 165/137/112 73/105/92 46/104/91
f 114/136/111 113/198/158 47/106/93 55/7/7
f 138/205/160 140/210/163 129/131/108 126/206/161
f 172/228/173 127/226/145 146/227/172 176/222/169
f 132/170/137 172/228/173 176/222/169 144/171/138
f 174/135/110 112/181/144 127/182/145 172/229/173
f 116/146/121 134/145/120 63/109/95 50/97/86
f 129/230/108 171/194/154 169/197/157 126/207/161
f 146/227/172 143/225/171 151/223/170 139/212/164
f 120/155/128 109/154/127 57/84/75 58/111/96
f 60/112/2 77/113/97 171/194/154 129/230/108
f 139/212/164 151/223/170 153/163/132 128/213/165
f 147/184/146 145/172/139 140/210/163 138/205/160
f 150/156/129 120/155/128 110/231/174 124/232/175
f 159/186/148 156/185/147 157/233/176 160/219/168
f 176/222/169 146/227/172 139/212/164 173/192/152
f 148/190/150 123/173/140 48/176/46 49/234/101
f 115/208/162 142/218/167 67/221/83 56/209/71
f 121/178/142 150/188/129 124/235/175 118/141/116
f 122/158/131 117/157/130 121/178/142 149/177/141
f 163/236/115 125/183/114 147/184/146 161/142/117
f 137/144/119 164/143/118 162/174/124 123/173/140
f 160/219/168 157/233/176 69/237/102 71/220/84
f 140/210/163 141/191/151 131/132/109 129/131/108
f 114/136/111 174/135/110 172/229/173 132/199/137
f 134/145/120 112/181/144 54/121/103 63/109/95
f 108/189/149 148/190/150 49/234/101 44/238/104
f 161/142/117 147/184/146 138/205/160 164/143/118
f 122/158/131 108/189/149 44/238/104 61/159/31
f 72/166/40 70/161/33 155/164/133 158/167/134
f 143/225/171 119/201/159 154/214/166 151/223/170
f 165/137/112 110/231/174 59/123/105 73/105/92
f 124/235/175 163/236/115 161/142/117 118/141/116
f 157/233/176 154/214/166 64/215/80 69/237/102
f 77/113/97 75/124/106 168/195/155 171/194/154
f 156/185/147 151/223/170 154/214/166 157/233/176
f 113/198/158 111/138/113 46/104/91 47/106/93
f 110/231/174 120/155/128 58/111/96 59/123/105
f 112/181/144 174/135/110 79/6/6 54/121/103
f 169/197/157 167/196/156 166/179/143 170/150/125
f 110/231/174 165/137/112 163/140/115 124/232/175
f 111/138/113 113/198/158 130/200/136 125/139/114
f 175/193/153 128/213/165 52/216/81 80/211/74
f 167/239/107 107/128/107 76/127/107 166/240/107
f 168/241/107 75/130/107 107/128/107 167/239/107
