# Blender 4.0.2
# www.blender.org
o hand_rake
v 0.008653 -0.050606 -0.008653
v 0.004327 -0.052100 -0.010147
v 0.000000 -0.052551 -0.010598
v -0.004327 -0.052100 -0.010147
v 0.010147 -0.046280 -0.010147
v 0.005073 -0.047026 -0.013159
v 0.000000 -0.047252 -0.014020
v -0.005073 -0.047026 -0.013159
v 0.010598 -0.041953 -0.010598
v 0.005736 -0.041953 -0.013847
v 0.000000 -0.041953 -0.014988
v -0.005736 -0.041953 -0.013847
v -0.008653 -0.050606 -0.008653
v -0.010147 -0.052100 -0.004327
v -0.010598 -0.052551 -0.000000
v -0.010147 -0.052100 0.004327
v -0.010147 -0.046280 -0.010147
v -0.013159 -0.047026 -0.005073
v -0.014020 -0.047252 -0.000000
v -0.013159 -0.047026 0.005073
v -0.010598 -0.041953 -0.010598
v -0.013847 -0.041953 -0.005736
v -0.014988 -0.041953 -0.000000
v -0.013847 -0.041953 0.005736
v -0.008653 -0.050606 0.008653
v -0.004327 -0.052100 0.010147
v 0.000000 -0.052551 0.010598
v 0.004327 -0.052100 0.010147
v -0.010147 -0.046280 0.010147
v -0.005073 -0.047026 0.013159
v 0.000000 -0.047252 0.014020
v 0.005073 -0.047026 0.013159
v -0.010598 -0.041953 0.010598
v -0.005736 -0.041953 0.013847
v -0.000000 -0.041953 0.014988
v 0.005736 -0.041953 0.013847
v 0.007278 0.042687 -0.007278
v 0.003939 0.042687 -0.009509
v 0.000000 0.042687 -0.010292
v 0.008653 -0.050606 0.008653
v 0.010147 -0.052100 0.004327
v 0.010598 -0.052551 -0.000000
v 0.010147 -0.052100 -0.004327
v 0.010147 -0.046280 0.010147
v 0.013159 -0.047026 0.005073
v 0.014020 -0.047252 -0.000000
v 0.013159 -0.047026 -0.005073
v 0.010598 -0.041953 0.010598
v 0.013847 -0.041953 0.005736
v 0.014988 -0.041953 0.000000
v 0.013847 -0.041953 -0.005736
v -0.003939 0.042687 -0.009509
v -0.007278 0.042687 -0.007278
v -0.009509 0.042687 -0.003939
v -0.010292 0.042687 -0.000000
v 0.005073 -0.055112 0.005073
v 0.000000 -0.055973 0.005299
v -0.005073 -0.055112 0.005073
v 0.005299 -0.055973 -0.000000
v 0.000000 -0.056941 -0.000000
v -0.005299 -0.055973 -0.000000
v 0.005073 -0.055112 -0.005073
v 0.000000 -0.055973 -0.005299
v -0.005073 -0.055112 -0.005073
v -0.009509 0.042687 0.003939
v -0.007278 0.042687 0.007278
v -0.003939 0.042687 0.009509
v -0.000000 0.042687 0.010292
v 0.003939 0.042687 0.009509
v 0.007278 0.042687 0.007278
v 0.009509 0.042687 0.003939
v 0.010292 0.042687 0.000000
v 0.009509 0.042687 -0.003939
v 0.010062 0.041953 -0.004168
v 0.010891 0.041953 0.000000
v 0.010062 0.041953 0.004168
v 0.007701 0.041953 0.007701
v 0.004168 0.041953 0.010062
v -0.000000 0.041953 0.010891
v -0.004168 0.041953 0.010062
v -0.007701 0.041953 0.007701
v -0.010062 0.041953 0.004168
v -0.010891 0.041953 -0.000000
v -0.010062 0.041953 -0.004168
v -0.007701 0.041953 -0.007701
v -0.004168 0.041953 -0.010062
v 0.000000 0.041953 -0.010891
v 0.004168 0.041953 -0.010062
v 0.007701 0.041953 -0.007701
v -0.004773 0.059840 0.004773
v -0.006914 0.056972 0.006914
v -0.006257 0.059000 0.006257
v -0.006236 0.059840 0.002583
v -0.009034 0.056972 0.003742
v -0.008175 0.059000 0.003386
v -0.009778 0.056972 -0.000000
v -0.006750 0.059840 -0.000000
v -0.008849 0.059000 -0.000000
v -0.006236 0.059840 -0.002583
v -0.009034 0.056972 -0.003742
v -0.008175 0.059000 -0.003386
v -0.004773 0.059840 -0.004773
v -0.006914 0.056972 -0.006914
v -0.006257 0.059000 -0.006257
v -0.002583 0.059840 -0.006236
v -0.003742 0.056972 -0.009034
v -0.003386 0.059000 -0.008175
v 0.000000 0.056972 -0.009778
v 0.000000 0.059840 -0.006750
v 0.000000 0.059000 -0.008849
v 0.002583 0.059840 -0.006236
v 0.003742 0.056972 -0.009034
v 0.003386 0.059000 -0.008175
v 0.006914 0.056972 -0.006914
v 0.004773 0.059840 -0.004773
v 0.006257 0.059000 -0.006257
v -0.002583 0.059840 0.006236
v -0.003742 0.056972 0.009034
v -0.003386 0.059000 0.008175
v -0.000000 0.056972 0.009778
v -0.000000 0.059840 0.006750
v -0.000000 0.059000 0.008849
v 0.002583 0.059840 0.006236
v 0.003742 0.056972 0.009034
v 0.003386 0.059000 0.008175
v 0.004773 0.059840 0.004773
v 0.006914 0.056972 0.006914
v 0.006257 0.059000 0.006257
v 0.006236 0.059840 0.002583
v 0.009034 0.056972 0.003742
v 0.008175 0.059000 0.003386
v 0.006750 0.059840 0.000000
v 0.009778 0.056972 0.000000
v 0.008849 0.059000 0.000000
v 0.006236 0.059840 -0.002583
v 0.009034 0.056972 -0.003742
v 0.008175 0.059000 -0.003386
v 0.000000 0.059840 0.000000
v -0.037938 0.155684 0.007549
v -0.037317 0.153798 0.008025
v -0.035882 0.152181 0.008501
v -0.033254 0.152939 0.008311
v -0.030690 0.153890 0.008501
v -0.030495 0.156043 0.008025
v -0.031116 0.157929 0.007549
v -0.034574 0.156950 0.007785
v -0.030399 0.144264 -0.003200
v -0.028460 0.144902 -0.002354
v -0.027657 0.145166 -0.000313
v -0.028460 0.144902 0.001728
v -0.030399 0.144264 0.002573
v -0.032338 0.143626 0.001728
v -0.033141 0.143361 -0.000313
v -0.032338 0.143626 -0.002354
v -0.034941 0.151186 0.000761
v -0.035410 0.149764 0.002352
v -0.034188 0.148898 0.003943
v -0.031989 0.149097 0.004602
v -0.030103 0.150243 0.003943
v -0.029633 0.151665 0.002352
v -0.030856 0.152530 0.000761
v -0.033054 0.152332 0.000102
v -0.038296 0.166509 0.044988
v -0.037998 0.165603 0.045339
v -0.037712 0.164734 0.045681
v -0.036362 0.165324 0.046071
v -0.034926 0.165651 0.045681
v -0.035212 0.166520 0.045339
v -0.035510 0.167426 0.044988
v -0.036946 0.167098 0.045362
v -0.030774 0.166354 0.034509
v -0.036158 0.164702 0.034746
v -0.030326 0.164991 0.034951
v -0.041470 0.162834 0.034509
v -0.029877 0.163627 0.035393
v -0.035200 0.161794 0.035202
v -0.040572 0.160107 0.035393
v -0.041021 0.161471 0.034951
v -0.036648 0.166192 0.045713
v -0.000039 0.071847 0.003166
v -0.000039 0.073920 0.003653
v -0.000039 0.074926 0.005095
v -0.000039 0.074276 0.006646
v -0.000039 0.072350 0.007399
v -0.000039 0.070277 0.006912
v -0.000039 0.069271 0.005471
v -0.000039 0.069922 0.003919
v -0.006741 0.080835 0.002667
v -0.004955 0.077112 0.003095
v -0.002803 0.074745 0.003329
v -0.005970 0.081324 0.004640
v -0.004269 0.077758 0.004902
v -0.002366 0.075628 0.004953
v -0.006741 0.081191 0.006668
v -0.004955 0.077468 0.006786
v -0.002803 0.075101 0.006682
v -0.008603 0.080515 0.007563
v -0.006612 0.076411 0.007643
v -0.003858 0.073473 0.007503
v -0.010464 0.079691 0.006801
v -0.008268 0.075207 0.006971
v -0.004913 0.071699 0.006935
v -0.011235 0.079203 0.004828
v -0.008954 0.074561 0.005164
v -0.005350 0.070816 0.005311
v -0.010464 0.079336 0.002800
v -0.008268 0.074851 0.003280
v -0.004913 0.071343 0.003583
v -0.003858 0.072971 0.002761
v -0.006612 0.075908 0.002423
v -0.008603 0.080012 0.001905
v 0.037859 0.155684 0.007549
v 0.037239 0.153798 0.008025
v 0.035804 0.152181 0.008501
v 0.033176 0.152939 0.008311
v 0.030612 0.153890 0.008501
v 0.030417 0.156043 0.008025
v 0.031038 0.157929 0.007549
v 0.034496 0.156950 0.007785
v 0.030321 0.144264 -0.003200
v 0.028382 0.144902 -0.002354
v 0.027579 0.145166 -0.000313
v 0.028382 0.144902 0.001728
v 0.030321 0.144264 0.002573
v 0.032259 0.143626 0.001728
v 0.033062 0.143361 -0.000313
v 0.032259 0.143626 -0.002354
v 0.034863 0.151186 0.000761
v 0.035332 0.149764 0.002352
v 0.034110 0.148898 0.003943
v 0.031911 0.149097 0.004602
v 0.030025 0.150243 0.003943
v 0.029555 0.151665 0.002352
v 0.030778 0.152530 0.000761
v 0.032976 0.152332 0.000102
v 0.038218 0.166509 0.044988
v 0.037920 0.165603 0.045339
v 0.037634 0.164734 0.045681
v 0.036284 0.165324 0.046071
v 0.034848 0.165651 0.045681
v 0.035134 0.166520 0.045339
v 0.035432 0.167426 0.044988
v 0.036868 0.167098 0.045362
v 0.030696 0.166354 0.034509
v 0.036079 0.164702 0.034746
v 0.030247 0.164991 0.034951
v 0.041391 0.162834 0.034509
v 0.029799 0.163627 0.035393
v 0.035122 0.161794 0.035202
v 0.040494 0.160107 0.035393
v 0.040943 0.161471 0.034951
v 0.036570 0.166192 0.045713
v 0.006663 0.080835 0.002667
v 0.004877 0.077112 0.003095
v 0.002724 0.074745 0.003329
v 0.005892 0.081324 0.004640
v 0.004191 0.077758 0.004902
v 0.002287 0.075628 0.004953
v 0.006663 0.081191 0.006668
v 0.004877 0.077468 0.006786
v 0.002724 0.075101 0.006682
v 0.008524 0.080515 0.007563
v 0.006533 0.076411 0.007643
v 0.003779 0.073473 0.007503
v 0.010386 0.079691 0.006801
v 0.008190 0.075207 0.006971
v 0.004834 0.071699 0.006935
v 0.011157 0.079203 0.004828
v 0.008876 0.074561 0.005164
v 0.005271 0.070816 0.005311
v 0.010386 0.079336 0.002800
v 0.008190 0.074851 0.003280
v 0.004834 0.071343 0.003583
v 0.003779 0.072971 0.002761
v 0.006533 0.075908 0.002423
v 0.008524 0.080012 0.001905
v 0.000000 0.059202 -0.004089
v -0.004243 0.158767 0.008920
v 0.002892 0.059202 -0.002892
v -0.004243 0.156422 0.009482
v 0.004089 0.059202 -0.000000
v -0.003229 0.154077 0.010044
v 0.002892 0.059202 0.002892
v -0.000000 0.153957 0.009819
v -0.000000 0.059202 0.004089
v 0.003229 0.154077 0.010044
v -0.002892 0.059202 0.002892
v 0.004243 0.156422 0.009482
v -0.004089 0.059202 -0.000000
v 0.004243 0.158767 0.008920
v -0.002892 0.059202 -0.002892
v 0.000000 0.158947 0.009198
v 0.000000 0.143166 -0.003781
v 0.002411 0.143166 -0.002782
v 0.003410 0.143166 -0.000370
v 0.002411 0.143166 0.002041
v -0.000000 0.143166 0.003040
v -0.002411 0.143166 0.002041
v -0.003410 0.143166 -0.000370
v -0.002411 0.143166 -0.002782
v -0.002541 0.152613 0.000899
v -0.003593 0.151190 0.002779
v -0.002541 0.149767 0.004659
v 0.000000 0.149178 0.005437
v 0.002541 0.149767 0.004659
v 0.003593 0.151190 0.002779
v 0.002541 0.152613 0.000899
v 0.000000 0.153202 0.000120
v -0.001733 0.167749 0.044785
v -0.001733 0.166622 0.045199
v -0.001733 0.165541 0.045604
v 0.000000 0.165705 0.046064
v 0.001733 0.165541 0.045604
v 0.001733 0.166622 0.045199
v 0.001733 0.167749 0.044785
v 0.000000 0.167911 0.045227
v 0.006652 0.164796 0.032403
v 0.000000 0.164931 0.032684
v 0.006652 0.163101 0.032926
v -0.006652 0.164796 0.032403
v 0.006652 0.161405 0.033448
v 0.000000 0.161314 0.033222
v -0.006652 0.161405 0.033448
v -0.006652 0.163101 0.032926
v 0.000000 0.166785 0.045641
vn 0.5774 -0.5774 -0.5774
vn 0.3036 -0.6737 -0.6737
vn 0.3387 -0.3403 -0.8772
vn 0.6726 -0.3084 -0.6726
vn -0.0000 -0.7071 -0.7071
vn -0.0000 -0.3572 -0.9340
vn -0.3036 -0.6737 -0.6737
vn -0.3387 -0.3403 -0.8772
vn -0.5774 -0.5774 -0.5774
vn -0.6726 -0.3084 -0.6726
vn 0.3800 -0.0592 -0.9231
vn 0.7059 -0.0589 -0.7059
vn -0.0000 -0.0598 -0.9982
vn -0.3800 -0.0592 -0.9231
vn -0.7059 -0.0589 -0.7059
vn -0.3824 0.0360 0.9233
vn -0.0000 0.0360 0.9994
vn -0.0000 0.2256 0.9742
vn -0.3728 0.2256 0.9001
vn -0.7066 0.0360 -0.7066
vn -0.9233 0.0360 -0.3824
vn -0.9001 0.2256 -0.3728
vn -0.6889 0.2256 -0.6889
vn 0.3824 0.0360 0.9233
vn 0.7066 0.0360 0.7066
vn 0.6889 0.2256 0.6889
vn 0.3728 0.2256 0.9001
vn 0.3824 0.0360 -0.9233
vn -0.0000 0.0360 -0.9994
vn -0.0000 0.2256 -0.9742
vn 0.3728 0.2256 -0.9001
vn 0.9994 0.0360 -0.0000
vn 0.9233 0.0360 -0.3824
vn 0.9001 0.2256 -0.3728
vn 0.9742 0.2256 -0.0000
vn -0.3824 0.0360 -0.9233
vn -0.3728 0.2256 -0.9001
vn 0.7066 0.0360 -0.7066
vn 0.6889 0.2256 -0.6889
vn 0.9233 0.0360 0.3824
vn 0.9001 0.2256 0.3728
vn -0.6737 -0.6737 -0.3036
vn -0.8772 -0.3403 -0.3387
vn -0.7071 -0.7071 -0.0000
vn -0.9340 -0.3572 -0.0000
vn -0.6737 -0.6737 0.3036
vn -0.8772 -0.3403 0.3387
vn -0.5774 -0.5774 0.5774
vn -0.6726 -0.3084 0.6726
vn -0.9231 -0.0592 -0.3800
vn -0.9982 -0.0598 -0.0000
vn -0.9231 -0.0592 0.3800
vn -0.7059 -0.0589 0.7059
vn -0.9994 0.0360 -0.0000
vn -0.9233 0.0360 0.3824
vn -0.9001 0.2256 0.3728
vn -0.9742 0.2256 -0.0000
vn -0.0000 1.0000 -0.0000
vn -0.2118 0.9773 -0.0000
vn -0.1956 0.9773 0.0810
vn -0.1497 0.9773 0.1497
vn -0.3036 -0.6737 0.6737
vn -0.3387 -0.3403 0.8772
vn -0.0000 -0.7071 0.7071
vn -0.0000 -0.3572 0.9340
vn 0.3036 -0.6737 0.6737
vn 0.3387 -0.3403 0.8772
vn 0.5774 -0.5774 0.5774
vn 0.6726 -0.3084 0.6726
vn -0.3800 -0.0592 0.9231
vn -0.0000 -0.0598 0.9982
vn 0.3800 -0.0592 0.9231
vn 0.7059 -0.0589 0.7059
vn -0.0000 0.3458 -0.9383
vn -0.3591 0.3458 -0.8669
vn -0.2967 0.6317 -0.7162
vn -0.0000 0.6317 -0.7752
vn 0.3591 0.3458 -0.8669
vn 0.2967 0.6317 -0.7162
vn -0.6635 0.3458 -0.6635
vn -0.8669 0.3458 -0.3591
vn -0.7162 0.6317 -0.2967
vn -0.5482 0.6317 -0.5482
vn -0.9383 0.3458 -0.0000
vn -0.8669 0.3458 0.3591
vn -0.7162 0.6317 0.2967
vn -0.7752 0.6317 -0.0000
vn -0.6635 0.3458 0.6635
vn -0.3591 0.3458 0.8669
vn -0.2967 0.6317 0.7162
vn -0.5482 0.6317 0.5482
vn 0.3591 0.3458 0.8669
vn 0.6635 0.3458 0.6635
vn 0.5482 0.6317 0.5482
vn 0.2967 0.6317 0.7162
vn 0.6737 -0.6737 0.3036
vn 0.8772 -0.3403 0.3387
vn 0.7071 -0.7071 -0.0000
vn 0.9340 -0.3572 -0.0000
vn 0.6737 -0.6737 -0.3036
vn 0.8772 -0.3403 -0.3387
vn 0.9231 -0.0592 0.3800
vn 0.9982 -0.0598 -0.0000
vn 0.9231 -0.0592 -0.3800
vn 0.8669 0.3458 0.3591
vn 0.9383 0.3458 -0.0000
vn 0.7752 0.6317 -0.0000
vn 0.7162 0.6317 0.2967
vn 0.6635 0.3458 -0.6635
vn 0.5482 0.6317 -0.5482
vn -0.0000 0.3458 0.9383
vn -0.0000 0.6317 0.7752
vn 0.8669 0.3458 -0.3591
vn 0.7162 0.6317 -0.2967
vn 0.3403 -0.8766 0.3403
vn -0.0000 -0.9326 0.3610
vn -0.3403 -0.8766 0.3403
vn 0.3610 -0.9326 -0.0000
vn -0.0000 -1.0000 -0.0000
vn -0.3610 -0.9326 -0.0000
vn 0.3403 -0.8766 -0.3403
vn -0.0000 -0.9326 -0.3610
vn -0.3403 -0.8766 -0.3403
vn -0.7066 0.0360 0.7066
vn -0.6889 0.2256 0.6889
vn 0.1497 0.9773 -0.1497
vn 0.1956 0.9773 -0.0810
vn 0.6580 0.7019 -0.2726
vn 0.5036 0.7019 -0.5036
vn 0.7123 0.7019 -0.0000
vn 0.6580 0.7019 0.2726
vn 0.2118 0.9773 -0.0000
vn 0.1956 0.9773 0.0810
vn 0.5036 0.7019 0.5036
vn 0.2726 0.7019 0.6580
vn 0.1497 0.9773 0.1497
vn 0.0810 0.9773 0.1956
vn -0.0000 0.7019 0.7123
vn -0.2726 0.7019 0.6580
vn -0.0000 0.9773 0.2118
vn -0.0810 0.9773 0.1956
vn -0.5036 0.7019 0.5036
vn -0.6580 0.7019 0.2726
vn -0.7123 0.7019 -0.0000
vn -0.6580 0.7019 -0.2726
vn -0.1956 0.9773 -0.0810
vn -0.5036 0.7019 -0.5036
vn -0.2726 0.7019 -0.6580
vn -0.1497 0.9773 -0.1497
vn -0.0810 0.9773 -0.1956
vn -0.0000 0.7019 -0.7123
vn 0.2726 0.7019 -0.6580
vn -0.0000 0.9773 -0.2118
vn 0.0810 0.9773 -0.1956
vn 0.6006 0.3140 -0.7353
vn 0.9438 0.3241 -0.0648
vn 0.9280 0.3716 -0.0260
vn 0.6494 0.1939 -0.7353
vn -0.6794 -0.1137 -0.7249
vn -0.9498 -0.3088 -0.0510
vn -0.9321 -0.3562 -0.0662
vn -0.9317 -0.1748 -0.3186
vn -0.6523 -0.3375 0.6787
vn -0.7868 -0.5444 0.2908
vn 0.0561 -0.1528 0.9867
vn 0.1785 -0.5423 0.8210
vn -0.0683 -0.6143 0.7862
vn 0.7313 0.1250 0.6705
vn 0.4197 -0.4537 0.7862
vn 0.9614 0.2670 -0.0662
vn 0.9563 0.0293 0.2908
vn 0.8533 0.4127 -0.3186
vn -0.0517 0.1297 -0.9902
vn -0.1932 0.5869 -0.7863
vn 0.0462 0.6587 -0.7510
vn -0.4284 0.5025 -0.7510
vn -0.9129 -0.4056 -0.0463
vn -0.9547 -0.2707 -0.1238
vn -0.7939 -0.5958 0.1217
vn 0.2679 -0.8142 0.5152
vn 0.2021 -0.8503 0.4859
vn 0.3418 -0.8065 0.4824
vn 0.9753 0.2066 -0.0779
vn 0.9952 -0.0152 0.0972
vn 0.9273 0.3382 -0.1602
vn -0.2826 0.8582 -0.4286
vn -0.2127 0.8778 -0.4292
vn -0.3510 0.8308 -0.4319
vn -0.2887 0.9218 -0.2586
vn -0.3022 0.9187 -0.2542
vn -0.3043 0.9247 -0.2288
vn -0.2902 0.9292 -0.2287
vn 0.9446 0.2967 0.1402
vn 0.9289 0.3508 0.1187
vn 0.8504 0.3995 0.3423
vn 0.8508 0.3996 0.3413
vn -0.3152 0.9131 -0.2587
vn -0.3184 0.9200 -0.2287
vn 0.9596 0.2364 0.1527
vn 0.8511 0.3997 0.3403
vn 0.2962 -0.8999 0.3201
vn 0.2995 -0.8989 0.3199
vn 0.2967 -0.8987 0.3230
vn 0.2959 -0.8990 0.3230
vn 0.2928 -0.9010 0.3200
vn 0.2950 -0.8992 0.3230
vn -0.9343 -0.3129 0.1709
vn -0.9107 -0.3701 0.1834
vn -0.9222 -0.1839 0.3403
vn -0.9218 -0.1837 0.3413
vn -0.9538 -0.2599 0.1505
vn -0.9215 -0.1836 0.3423
vn -0.1099 0.3339 0.9362
vn -0.3572 0.2393 0.9029
vn -0.3611 0.2440 0.9000
vn -0.1118 0.3397 0.9339
vn 0.1452 0.4047 0.9029
vn 0.1456 0.4108 0.9000
vn 0.1449 0.3985 0.9056
vn -0.1080 0.3280 0.9385
vn -0.3533 0.2346 0.9056
vn -0.0000 -0.1507 -0.9886
vn -0.0000 -0.7561 -0.6544
vn -0.3495 -0.6559 -0.6691
vn 0.0113 -0.1396 -0.9901
vn -0.0000 -0.9947 0.1028
vn -0.5145 -0.8538 0.0796
vn -0.0000 -0.6217 0.7833
vn -0.3360 -0.5445 0.7686
vn -0.0000 0.0080 1.0000
vn 0.0206 -0.0047 0.9998
vn -0.0000 0.6699 0.7425
vn 0.3774 0.5633 0.7351
vn -0.0000 0.9954 -0.0955
vn 0.5507 0.8293 -0.0950
vn -0.0000 0.5289 -0.8487
vn 0.3635 0.4348 -0.8239
vn 0.5621 0.2963 -0.7722
vn 0.8375 0.5444 -0.0473
vn 0.6457 0.3025 0.7011
vn 0.5843 0.3906 0.7113
vn -0.0064 0.0510 0.9987
vn 0.0147 0.0096 0.9998
vn -0.6511 -0.2259 0.7246
vn -0.5538 -0.3692 0.7464
vn -0.9232 -0.3833 0.0283
vn -0.8161 -0.5750 0.0575
vn -0.6491 -0.3322 -0.6843
vn -0.5784 -0.4679 -0.6682
vn -0.0015 -0.0994 -0.9951
vn -0.0145 -0.1215 -0.9925
vn -0.6006 0.3140 -0.7353
vn -0.6494 0.1939 -0.7353
vn -0.9280 0.3716 -0.0260
vn -0.9438 0.3241 -0.0648
vn 0.6794 -0.1137 -0.7249
vn 0.9317 -0.1748 -0.3186
vn 0.9321 -0.3562 -0.0662
vn 0.9498 -0.3088 -0.0510
vn 0.7868 -0.5444 0.2908
vn 0.6523 -0.3375 0.6787
vn 0.0683 -0.6143 0.7862
vn -0.1785 -0.5423 0.8210
vn -0.0561 -0.1528 0.9867
vn -0.4197 -0.4537 0.7862
vn -0.7313 0.1250 0.6705
vn -0.9563 0.0293 0.2908
vn -0.9614 0.2670 -0.0662
vn -0.8533 0.4127 -0.3186
vn -0.0462 0.6587 -0.7510
vn 0.1932 0.5869 -0.7863
vn 0.0517 0.1297 -0.9902
vn 0.4284 0.5025 -0.7510
vn 0.9547 -0.2707 -0.1238
vn 0.9129 -0.4056 -0.0463
vn 0.7939 -0.5958 0.1217
vn -0.2021 -0.8503 0.4859
vn -0.2679 -0.8142 0.5152
vn -0.3418 -0.8065 0.4824
vn -0.9952 -0.0152 0.0972
vn -0.9753 0.2066 -0.0779
vn -0.9273 0.3382 -0.1602
vn 0.2127 0.8778 -0.4292
vn 0.2826 0.8582 -0.4286
vn 0.3510 0.8308 -0.4319
vn 0.2887 0.9218 -0.2586
vn 0.2902 0.9292 -0.2287
vn 0.3043 0.9247 -0.2288
vn 0.3022 0.9187 -0.2542
vn -0.9446 0.2967 0.1402
vn -0.8508 0.3996 0.3413
vn -0.8504 0.3995 0.3423
vn -0.9289 0.3507 0.1187
vn 0.3184 0.9200 -0.2287
vn 0.3152 0.9131 -0.2587
vn -0.9596 0.2364 0.1527
vn -0.8511 0.3997 0.3403
vn -0.2962 -0.8999 0.3201
vn -0.2959 -0.8990 0.3230
vn -0.2967 -0.8987 0.3230
vn -0.2995 -0.8989 0.3199
vn -0.2928 -0.9010 0.3200
vn -0.2950 -0.8992 0.3230
vn 0.9343 -0.3129 0.1709
vn 0.9218 -0.1837 0.3413
vn 0.9222 -0.1839 0.3403
vn 0.9107 -0.3701 0.1834
vn 0.9538 -0.2599 0.1505
vn 0.9215 -0.1836 0.3423
vn 0.1099 0.3339 0.9362
vn 0.1118 0.3397 0.9339
vn 0.3611 0.2440 0.9000
vn 0.3572 0.2393 0.9029
vn -0.1452 0.4047 0.9029
vn -0.1456 0.4108 0.9000
vn -0.1449 0.3985 0.9056
vn 0.1080 0.3280 0.9385
vn 0.3533 0.2346 0.9056
vn -0.0113 -0.1396 -0.9901
vn 0.3494 -0.6559 -0.6691
vn 0.5145 -0.8538 0.0796
vn 0.3360 -0.5445 0.7686
vn -0.0206 -0.0047 0.9998
vn -0.3774 0.5633 0.7351
vn -0.5507 0.8293 -0.0950
vn -0.3635 0.4348 -0.8239
vn -0.8375 0.5444 -0.0473
vn -0.5621 0.2963 -0.7722
vn -0.6457 0.3025 0.7011
vn -0.5843 0.3906 0.7113
vn 0.0064 0.0510 0.9987
vn -0.0147 0.0096 0.9998
vn 0.6511 -0.2259 0.7246
vn 0.5538 -0.3692 0.7464
vn 0.9232 -0.3833 0.0283
vn 0.8161 -0.5750 0.0575
vn 0.6491 -0.3322 -0.6843
vn 0.5784 -0.4679 -0.6682
vn 0.0015 -0.0994 -0.9951
vn 0.0145 -0.1215 -0.9925
vn 0.7076 0.0050 -0.7066
vn 0.6768 0.1366 -0.7234
vn 0.9987 0.0133 -0.0493
vn 1.0000 0.0081 0.0011
vn 0.7233 -0.1333 0.6775
vn 0.7065 0.0112 0.7076
vn -0.0000 -0.1931 0.9812
vn -0.0000 0.0125 0.9999
vn -0.7233 -0.1333 0.6775
vn -0.7065 0.0112 0.7076
vn -0.9987 0.0133 -0.0493
vn -1.0000 0.0081 0.0011
vn -0.6768 0.1366 -0.7234
vn -0.7076 0.0050 -0.7066
vn -0.0000 0.1778 -0.9841
vn -0.0000 0.0037 -1.0000
vn -0.9967 -0.0469 -0.0662
vn -0.9396 0.1253 -0.3186
vn -0.9176 -0.2711 0.2908
vn -0.0000 -0.5709 0.8210
vn -0.2569 -0.5621 0.7862
vn 0.2569 -0.5621 0.7862
vn 0.9967 -0.0470 -0.0662
vn 0.9176 -0.2711 0.2908
vn 0.9396 0.1252 -0.3186
vn -0.0000 0.6179 -0.7863
vn 0.2498 0.6112 -0.7510
vn -0.2498 0.6112 -0.7510
vn -0.9911 -0.1076 -0.0780
vn -0.9869 0.0330 -0.1576
vn -0.9407 -0.3257 0.0946
vn -0.0000 -0.8618 0.5072
vn -0.0731 -0.8782 0.4726
vn 0.0731 -0.8782 0.4726
vn 0.9911 -0.1076 -0.0780
vn 0.9407 -0.3258 0.0946
vn 0.9869 0.0330 -0.1576
vn -0.0000 0.9109 -0.4126
vn 0.0737 0.9076 -0.4133
vn -0.0737 0.9076 -0.4133
vn 0.0150 0.9707 -0.2400
vn -0.0000 0.9712 -0.2384
vn -0.0000 0.9735 -0.2288
vn 0.0148 0.9734 -0.2287
vn 0.9900 -0.0144 0.1407
vn 0.9919 0.0428 0.1192
vn 0.9327 0.1137 0.3423
vn 0.9331 0.1137 0.3413
vn -0.0150 0.9707 -0.2400
vn -0.0148 0.9734 -0.2287
vn 0.9856 -0.0749 0.1516
vn 0.9334 0.1136 0.3403
vn -0.0000 -0.9505 0.3107
vn 0.0040 -0.9506 0.3103
vn 0.0009 -0.9464 0.3230
vn -0.0000 -0.9464 0.3230
vn -0.0040 -0.9506 0.3103
vn -0.0009 -0.9464 0.3230
vn -0.9900 -0.0144 0.1407
vn -0.9856 -0.0749 0.1516
vn -0.9334 0.1136 0.3403
vn -0.9331 0.1137 0.3413
vn -0.9919 0.0428 0.1192
vn -0.9327 0.1137 0.3423
vn -0.0000 0.3515 0.9362
vn -0.2645 0.3390 0.9029
vn -0.2667 0.3447 0.9000
vn -0.0000 0.3576 0.9339
vn 0.2645 0.3390 0.9029
vn 0.2667 0.3447 0.9000
vn 0.2622 0.3333 0.9056
vn -0.0000 0.3453 0.9385
vn -0.2622 0.3333 0.9056
vt 0.823123 0.665088
vt 0.855389 0.672036
vt 0.840387 0.714459
vt 0.796641 0.689617
vt 0.884545 0.673659
vt 0.884545 0.722244
vt 0.913700 0.672036
vt 0.928703 0.714459
vt 0.945966 0.665088
vt 0.972448 0.689617
vt 0.069952 0.004882
vt 0.103038 0.004882
vt 0.103038 0.039732
vt 0.069952 0.039732
vt 0.135021 0.004882
vt 0.135021 0.039732
vt 0.167004 0.004882
vt 0.167004 0.039732
vt 0.200090 0.004882
vt 0.200090 0.039732
vt 0.363315 0.628356
vt 0.395298 0.628356
vt 0.395298 0.727399
vt 0.363315 0.727399
vt 0.200090 0.628356
vt 0.233177 0.628356
vt 0.233177 0.727399
vt 0.200090 0.727399
vt 0.427281 0.628356
vt 0.460367 0.628356
vt 0.460367 0.727399
vt 0.427281 0.727399
vt 0.103038 0.628356
vt 0.135021 0.628356
vt 0.135021 0.727399
vt 0.103038 0.727399
vt 0.004883 0.628356
vt 0.036866 0.628356
vt 0.036866 0.727399
vt 0.004883 0.727399
vt 0.167004 0.628356
vt 0.167004 0.727399
vt 0.069952 0.628356
vt 0.069952 0.727399
vt 0.493454 0.628356
vt 0.493454 0.727399
vt 0.952119 0.633373
vt 0.991734 0.644999
vt 0.954968 0.605592
vt 0.994563 0.605592
vt 0.952119 0.577811
vt 0.991734 0.566185
vt 0.945966 0.546096
vt 0.972449 0.521567
vt 0.233177 0.004882
vt 0.233177 0.039732
vt 0.265160 0.004882
vt 0.265160 0.039732
vt 0.297142 0.004882
vt 0.297142 0.039732
vt 0.330229 0.004882
vt 0.330229 0.039732
vt 0.265160 0.628356
vt 0.297143 0.628356
vt 0.297142 0.727399
vt 0.265160 0.727399
vt 0.611595 0.643145
vt 0.611595 0.687118
vt 0.594762 0.683783
vt 0.580502 0.674238
vt 0.525437 0.628356
vt 0.525436 0.727399
vt 0.913701 0.539148
vt 0.928703 0.496725
vt 0.884545 0.537525
vt 0.884545 0.488940
vt 0.855390 0.539148
vt 0.840387 0.496725
vt 0.823124 0.546096
vt 0.796641 0.521567
vt 0.363315 0.004882
vt 0.363315 0.039732
vt 0.395298 0.004882
vt 0.395298 0.039732
vt 0.427281 0.004882
vt 0.427281 0.039732
vt 0.460367 0.004882
vt 0.460367 0.039732
vt 0.135021 0.621793
vt 0.167004 0.621793
vt 0.103038 0.621793
vt 0.200090 0.621793
vt 0.233177 0.621793
vt 0.265160 0.621793
vt 0.297143 0.621793
vt 0.330229 0.621793
vt 0.363315 0.621793
vt 0.330229 0.628356
vt 0.427281 0.621793
vt 0.460367 0.621793
vt 0.816971 0.577811
vt 0.777356 0.566185
vt 0.814122 0.605592
vt 0.774526 0.605592
vt 0.816971 0.633373
vt 0.777355 0.644999
vt 0.493454 0.004882
vt 0.493454 0.039732
vt 0.525437 0.004882
vt 0.525437 0.039732
vt 0.004883 0.004882
vt 0.036866 0.004882
vt 0.036866 0.039732
vt 0.004883 0.039732
vt 0.493454 0.621793
vt 0.525437 0.621793
vt 0.069952 0.621793
vt 0.395298 0.621793
vt 0.036866 0.621793
vt 0.004883 0.621793
vt 0.853920 0.576087
vt 0.884545 0.575373
vt 0.915170 0.576087
vt 0.852458 0.605592
vt 0.884545 0.605592
vt 0.916631 0.605592
vt 0.853920 0.635097
vt 0.884545 0.635810
vt 0.915169 0.635097
vt 0.330229 0.727399
vt 0.642689 0.612051
vt 0.628429 0.602507
vt 0.633959 0.588639
vt 0.653114 0.601350
vt 0.639771 0.573461
vt 0.664293 0.589551
vt 0.582245 0.573948
vt 0.610961 0.567986
vt 0.611400 0.584233
vt 0.588867 0.588790
vt 0.611595 0.599172
vt 0.594763 0.602506
vt 0.541912 0.614969
vt 0.558002 0.590447
vt 0.569800 0.601626
vt 0.557089 0.620781
vt 0.580502 0.612051
vt 0.570957 0.626311
vt 0.542398 0.672495
vt 0.536436 0.643779
vt 0.552683 0.643340
vt 0.557240 0.665873
vt 0.567622 0.643145
vt 0.570957 0.659977
vt 0.583419 0.712828
vt 0.558898 0.696739
vt 0.570077 0.684940
vt 0.589232 0.697651
vt 0.640945 0.712342
vt 0.612229 0.718304
vt 0.611790 0.702056
vt 0.634324 0.697500
vt 0.628427 0.683784
vt 0.681279 0.671321
vt 0.665189 0.695842
vt 0.653390 0.684663
vt 0.666102 0.665509
vt 0.642689 0.674238
vt 0.652233 0.659979
vt 0.680792 0.613795
vt 0.686754 0.642511
vt 0.670507 0.642950
vt 0.665951 0.620416
vt 0.655568 0.643145
vt 0.652234 0.626313
vt 0.560901 0.561238
vt 0.546987 0.561238
vt 0.546987 0.093023
vt 0.560902 0.093023
vt 0.903637 0.007304
vt 0.915767 0.015326
vt 0.904801 0.064435
vt 0.890368 0.062213
vt 0.927941 0.022783
vt 0.920835 0.065769
vt 0.940648 0.026061
vt 0.939979 0.065844
vt 0.953454 0.023217
vt 0.959126 0.066428
vt 0.965864 0.016177
vt 0.975184 0.065622
vt 0.978248 0.008568
vt 0.989672 0.063860
vt 0.776943 0.937184
vt 0.779317 0.953076
vt 0.718274 0.953076
vt 0.717861 0.937779
vt 0.776912 0.968948
vt 0.717915 0.968227
vt 0.902554 0.117358
vt 0.888909 0.120646
vt 0.918842 0.113309
vt 0.939165 0.111411
vt 0.959449 0.114328
vt 0.975796 0.118907
vt 0.989404 0.122440
vt 0.658256 0.953077
vt 0.659565 0.928783
vt 0.660372 0.977403
vt 0.469025 0.914941
vt 0.468002 0.953076
vt 0.394291 0.953076
vt 0.396915 0.943421
vt 0.980626 0.308663
vt 0.990541 0.310225
vt 0.961451 0.382799
vt 0.954884 0.380963
vt 0.470472 0.991001
vt 0.397017 0.963251
vt 0.971021 0.307178
vt 0.948145 0.379056
vt 0.939165 0.305635
vt 0.938060 0.381761
vt 0.906873 0.305745
vt 0.928059 0.378769
vt 0.897169 0.307108
vt 0.921299 0.380499
vt 0.887187 0.308537
vt 0.914650 0.382184
vt 0.720991 0.602595
vt 0.731294 0.602567
vt 0.731307 0.609178
vt 0.720991 0.609251
vt 0.710688 0.602566
vt 0.710674 0.609178
vt 0.710701 0.595692
vt 0.720991 0.595707
vt 0.731281 0.595692
vt 0.575824 0.004885
vt 0.590597 0.004885
vt 0.590597 0.033597
vt 0.575824 0.033597
vt 0.604335 0.004885
vt 0.604335 0.033597
vt 0.618249 0.004885
vt 0.618249 0.033597
vt 0.633172 0.004885
vt 0.633172 0.033597
vt 0.647945 0.004885
vt 0.647945 0.033597
vt 0.533249 0.004885
vt 0.546987 0.004885
vt 0.546987 0.033597
vt 0.533249 0.033597
vt 0.560901 0.004885
vt 0.560902 0.033597
vt 0.560902 0.061436
vt 0.546987 0.061436
vt 0.533249 0.561238
vt 0.533249 0.093023
vt 0.533249 0.061436
vt 0.647945 0.561238
vt 0.633172 0.561238
vt 0.633172 0.093023
vt 0.647945 0.093023
vt 0.647945 0.061436
vt 0.633172 0.061436
vt 0.618249 0.561238
vt 0.618249 0.093023
vt 0.618249 0.061436
vt 0.604335 0.561238
vt 0.604335 0.093023
vt 0.604335 0.061436
vt 0.590597 0.561238
vt 0.590597 0.093023
vt 0.590597 0.061436
vt 0.575824 0.561238
vt 0.575824 0.093023
vt 0.575824 0.061436
vt 0.683437 0.004889
vt 0.683437 0.473441
vt 0.669508 0.473441
vt 0.669508 0.004889
vt 0.792066 0.380622
vt 0.779300 0.325592
vt 0.793754 0.323502
vt 0.804269 0.372711
vt 0.809799 0.322314
vt 0.816512 0.365365
vt 0.828944 0.322415
vt 0.829248 0.362204
vt 0.848097 0.322007
vt 0.842028 0.365165
vt 0.864147 0.322960
vt 0.854373 0.372319
vt 0.878618 0.324855
vt 0.866688 0.380041
vt 0.007303 0.936851
vt 0.066385 0.937446
vt 0.065972 0.952743
vt 0.004929 0.952743
vt 0.066331 0.967893
vt 0.007334 0.968615
vt 0.778378 0.267147
vt 0.791992 0.270559
vt 0.808243 0.274757
vt 0.828548 0.276842
vt 0.848859 0.274110
vt 0.865247 0.269681
vt 0.878888 0.266273
vt 0.124681 0.928450
vt 0.125990 0.952743
vt 0.123874 0.977069
vt 0.315220 0.914608
vt 0.387331 0.943089
vt 0.389955 0.952743
vt 0.316244 0.952743
vt 0.871817 0.079972
vt 0.846738 0.007437
vt 0.853321 0.005661
vt 0.881746 0.078502
vt 0.387229 0.962918
vt 0.313774 0.990668
vt 0.862198 0.081369
vt 0.839981 0.009282
vt 0.830328 0.082620
vt 0.829922 0.006485
vt 0.798038 0.082214
vt 0.819893 0.009385
vt 0.788347 0.080762
vt 0.813149 0.007593
vt 0.778378 0.079241
vt 0.806516 0.005847
vt 0.720545 0.582659
vt 0.720545 0.576003
vt 0.730863 0.576075
vt 0.730849 0.582687
vt 0.710241 0.582687
vt 0.710228 0.576075
vt 0.710255 0.589563
vt 0.720545 0.589548
vt 0.730836 0.589563
vt 0.698375 0.560695
vt 0.698375 0.531953
vt 0.713163 0.531953
vt 0.713163 0.560695
vt 0.726916 0.531952
vt 0.726916 0.560695
vt 0.740845 0.531952
vt 0.740845 0.560695
vt 0.755783 0.531952
vt 0.755783 0.560695
vt 0.770572 0.531952
vt 0.770572 0.560695
vt 0.655755 0.560695
vt 0.655755 0.531952
vt 0.669508 0.531952
vt 0.669508 0.560695
vt 0.683437 0.531952
vt 0.683437 0.560695
vt 0.669508 0.504724
vt 0.683437 0.504724
vt 0.655755 0.473441
vt 0.655755 0.004889
vt 0.655755 0.504724
vt 0.770572 0.004889
vt 0.770572 0.473441
vt 0.755783 0.473441
vt 0.755783 0.004889
vt 0.755783 0.504724
vt 0.770572 0.504724
vt 0.740845 0.473441
vt 0.740845 0.004889
vt 0.740845 0.504724
vt 0.726916 0.473441
vt 0.726916 0.004889
vt 0.726916 0.504724
vt 0.713163 0.473441
vt 0.713163 0.004889
vt 0.713163 0.504724
vt 0.698375 0.473441
vt 0.698375 0.004889
vt 0.698375 0.504724
vt 0.004881 0.814642
vt 0.573642 0.814642
vt 0.573642 0.834082
vt 0.004881 0.834082
vt 0.573642 0.853522
vt 0.004881 0.853522
vt 0.573642 0.872962
vt 0.004881 0.872962
vt 0.573642 0.892401
vt 0.004881 0.892401
vt 0.004881 0.736882
vt 0.573642 0.736882
vt 0.573642 0.756322
vt 0.004881 0.756322
vt 0.573642 0.775762
vt 0.004881 0.775762
vt 0.573642 0.795202
vt 0.004881 0.795202
vt 0.583371 0.833672
vt 0.592708 0.819085
vt 0.651435 0.831279
vt 0.648995 0.848498
vt 0.601365 0.804455
vt 0.652772 0.812157
vt 0.605024 0.789262
vt 0.652484 0.789262
vt 0.601366 0.774069
vt 0.652772 0.766367
vt 0.592708 0.759439
vt 0.651435 0.747246
vt 0.583371 0.744851
vt 0.648995 0.730026
vt 0.601944 0.916615
vt 0.599119 0.897834
vt 0.671309 0.897834
vt 0.671762 0.915839
vt 0.601944 0.879052
vt 0.671762 0.879829
vt 0.714956 0.833440
vt 0.718778 0.849640
vt 0.709971 0.813802
vt 0.707104 0.789262
vt 0.709971 0.764722
vt 0.714956 0.745084
vt 0.718778 0.728884
vt 0.742259 0.897834
vt 0.740260 0.926590
vt 0.740259 0.869077
vt 0.904353 0.942716
vt 0.906398 0.897834
vt 0.993380 0.897834
vt 0.990226 0.909531
vt 0.878840 0.741748
vt 0.880399 0.730204
vt 0.964772 0.762227
vt 0.962795 0.769841
vt 0.904353 0.852952
vt 0.990226 0.886137
vt 0.877367 0.752907
vt 0.960733 0.777680
vt 0.876245 0.789262
vt 0.964018 0.789262
vt 0.877367 0.825618
vt 0.960733 0.800844
vt 0.878840 0.836776
vt 0.962795 0.808683
vt 0.880399 0.848321
vt 0.964772 0.816297
vt 0.721291 0.625618
vt 0.733462 0.625583
vt 0.733480 0.633393
vt 0.721294 0.633482
vt 0.709118 0.625594
vt 0.709108 0.633405
vt 0.709129 0.617464
vt 0.721293 0.617481
vt 0.733446 0.617464
s 1
f 1/1/1 2/2/2 6/3/3 5/4/4
f 2/2/2 3/5/5 7/6/6 6/3/3
f 3/5/5 4/7/7 8/8/8 7/6/6
f 4/7/7 13/9/9 17/10/10 8/8/8
f 5/11/4 6/12/3 10/13/11 9/14/12
f 6/12/3 7/15/6 11/16/13 10/13/11
f 7/15/6 8/17/8 12/18/14 11/16/13
f 8/17/8 17/19/10 21/20/15 12/18/14
f 67/21/16 68/22/17 120/23/18 118/24/19
f 53/25/20 54/26/21 100/27/22 103/28/23
f 69/29/24 70/30/25 127/31/26 124/32/27
f 38/33/28 39/34/29 108/35/30 112/36/31
f 72/37/32 73/38/33 136/39/34 133/40/35
f 39/34/29 52/41/36 106/42/37 108/35/30
f 73/38/33 37/43/38 114/44/39 136/39/34
f 70/30/25 71/45/40 130/46/41 127/31/26
f 13/9/9 14/47/42 18/48/43 17/10/10
f 14/47/42 15/49/44 19/50/45 18/48/43
f 15/49/44 16/51/46 20/52/47 19/50/45
f 16/51/46 25/53/48 29/54/49 20/52/47
f 17/19/10 18/55/43 22/56/50 21/20/15
f 18/55/43 19/57/45 23/58/51 22/56/50
f 19/57/45 20/59/47 24/60/52 23/58/51
f 20/59/47 29/61/49 33/62/53 24/60/52
f 37/43/38 38/33/28 112/36/31 114/44/39
f 68/22/17 69/29/24 124/32/27 120/23/18
f 55/63/54 65/64/55 94/65/56 96/66/57
f 54/26/21 55/63/54 96/66/57 100/27/22
f 138/67/58 97/68/59 93/69/60 90/70/61
f 71/45/40 72/71/32 133/72/35 130/46/41
f 52/41/36 53/25/20 103/28/23 106/42/37
f 25/53/48 26/73/62 30/74/63 29/54/49
f 26/73/62 27/75/64 31/76/65 30/74/63
f 27/75/64 28/77/66 32/78/67 31/76/65
f 28/77/66 40/79/68 44/80/69 32/78/67
f 29/61/49 30/81/63 34/82/70 33/62/53
f 30/81/63 31/83/65 35/84/71 34/82/70
f 31/83/65 32/85/67 36/86/72 35/84/71
f 32/85/67 44/87/69 48/88/73 36/86/72
f 87/89/74 86/90/75 52/41/76 39/34/77
f 88/91/78 87/89/74 39/34/77 38/33/79
f 85/92/80 84/93/81 54/26/82 53/25/83
f 86/90/75 85/92/80 53/25/83 52/41/76
f 83/94/84 82/95/85 65/64/86 55/63/87
f 84/93/81 83/94/84 55/63/87 54/26/82
f 81/96/88 80/97/89 67/21/90 66/98/91
f 78/99/92 77/100/93 70/30/94 69/29/95
f 40/79/68 41/101/96 45/102/97 44/80/69
f 41/101/96 42/103/98 46/104/99 45/102/97
f 42/103/98 43/105/100 47/106/101 46/104/99
f 43/105/100 1/1/1 5/4/4 47/106/101
f 44/87/69 45/107/97 49/108/102 48/88/73
f 45/107/97 46/109/99 50/110/103 49/108/102
f 46/111/99 47/112/101 51/113/104 50/114/103
f 47/112/101 5/11/4 9/14/12 51/113/104
f 76/115/105 75/116/106 72/71/107 71/45/108
f 89/117/109 88/91/78 38/33/79 37/43/110
f 82/95/85 81/96/88 66/98/91 65/64/86
f 79/118/111 78/99/92 69/29/95 68/22/112
f 74/119/113 89/117/109 37/43/110 73/38/114
f 80/97/89 79/118/111 68/22/112 67/21/90
f 77/100/93 76/115/105 71/45/108 70/30/94
f 75/120/106 74/119/113 73/38/114 72/37/107
f 40/79/68 28/77/66 56/121/115 41/101/96
f 28/77/66 27/75/64 57/122/116 56/121/115
f 27/75/64 26/73/62 58/123/117 57/122/116
f 26/73/62 25/53/48 16/51/46 58/123/117
f 41/101/96 56/121/115 59/124/118 42/103/98
f 56/121/115 57/122/116 60/125/119 59/124/118
f 57/122/116 58/123/117 61/126/120 60/125/119
f 58/123/117 16/51/46 15/49/44 61/126/120
f 42/103/98 59/124/118 62/127/121 43/105/100
f 59/124/118 60/125/119 63/128/122 62/127/121
f 60/125/119 61/126/120 64/129/123 63/128/122
f 61/126/120 15/49/44 14/47/42 64/129/123
f 43/105/100 62/127/121 2/2/2 1/1/1
f 62/127/121 63/128/122 3/5/5 2/2/2
f 63/128/122 64/129/123 4/7/7 3/5/5
f 64/129/123 14/47/42 13/9/9 4/7/7
f 36/86/72 48/88/73 77/100/93 78/99/92
f 23/58/51 24/60/52 82/95/85 83/94/84
f 11/16/13 12/18/14 86/90/75 87/89/74
f 35/84/71 36/86/72 78/99/92 79/118/111
f 51/113/104 9/14/12 89/117/109 74/119/113
f 10/13/11 11/16/13 87/89/74 88/91/78
f 50/114/103 51/113/104 74/119/113 75/120/106
f 21/20/15 22/56/50 84/93/81 85/92/80
f 9/14/12 10/13/11 88/91/78 89/117/109
f 33/62/53 34/82/70 80/97/89 81/96/88
f 22/56/50 23/58/51 83/94/84 84/93/81
f 48/88/73 49/108/102 76/115/105 77/100/93
f 34/82/70 35/84/71 79/118/111 80/97/89
f 49/108/102 50/110/103 75/116/106 76/115/105
f 12/18/14 21/20/15 85/92/80 86/90/75
f 24/60/52 33/62/53 81/96/88 82/95/85
f 66/98/124 67/21/16 118/24/19 91/130/125
f 115/131/126 135/132/127 137/133/128 116/134/129
f 116/134/129 137/133/128 136/135/34 114/136/39
f 130/137/41 133/138/35 134/139/130 131/140/131
f 131/140/131 134/139/130 132/141/132 129/142/133
f 124/143/27 127/144/26 128/145/134 125/146/135
f 125/146/135 128/145/134 126/147/136 123/148/137
f 118/149/19 120/150/18 122/151/138 119/152/139
f 119/152/139 122/151/138 121/153/140 117/154/141
f 94/155/56 91/156/125 92/157/142 95/158/143
f 95/158/143 92/157/142 90/70/61 93/69/60
f 100/159/22 96/160/57 98/161/144 101/162/145
f 101/162/145 98/161/144 97/68/59 99/163/146
f 106/164/37 103/165/23 104/166/147 107/167/148
f 107/167/148 104/166/147 102/168/149 105/169/150
f 112/170/31 108/171/30 110/172/151 113/173/152
f 113/173/152 110/172/151 109/174/153 111/175/154
f 133/138/35 136/135/34 137/133/128 134/139/130
f 134/139/130 137/133/128 135/132/127 132/141/132
f 127/144/26 130/137/41 131/140/131 128/145/134
f 128/145/134 131/140/131 129/142/133 126/147/136
f 120/150/18 124/143/27 125/146/135 122/151/138
f 122/151/138 125/146/135 123/148/137 121/153/140
f 91/156/125 118/149/19 119/152/139 92/157/142
f 92/157/142 119/152/139 117/154/141 90/70/61
f 96/160/57 94/155/56 95/158/143 98/161/144
f 98/161/144 95/158/143 93/69/60 97/68/59
f 103/165/23 100/159/22 101/162/145 104/166/147
f 104/166/147 101/162/145 99/163/146 102/168/149
f 108/171/30 106/164/37 107/167/148 110/172/151
f 110/172/151 107/167/148 105/169/150 109/174/153
f 114/136/39 112/170/31 113/173/152 116/134/129
f 116/134/129 113/173/152 111/175/154 115/131/126
f 65/64/55 66/98/124 91/130/125 94/65/56
f 138/67/58 109/174/153 105/169/150 102/168/149
f 138/67/58 121/153/140 123/148/137 126/147/136
f 115/131/126 111/175/154 109/174/153 138/67/58
f 132/141/132 138/67/58 126/147/136 129/142/133
f 135/132/127 115/131/126 138/67/58 132/141/132
f 97/68/59 138/67/58 102/168/149 99/163/146
f 121/153/140 138/67/58 90/70/61 117/154/141
f 148/176/155 149/177/156 191/178/157 188/179/158
f 154/180/159 153/181/160 156/182/161 155/183/162
f 153/181/160 152/184/163 157/185/164 156/182/161
f 152/184/163 151/186/165 158/187/166 157/185/167
f 151/186/165 150/188/168 159/189/169 158/187/166
f 150/188/168 149/190/156 160/191/170 159/189/171
f 149/190/156 148/192/155 161/193/172 160/191/170
f 148/194/155 147/195/173 162/196/174 161/197/175
f 147/195/173 154/198/159 155/199/176 162/196/174
f 155/183/162 156/182/161 140/200/177 139/201/178
f 156/182/161 157/185/164 141/202/179 140/200/177
f 157/185/167 158/187/166 142/203/180 141/202/181
f 158/187/166 159/189/169 143/204/182 142/203/180
f 159/189/171 160/191/170 144/205/183 143/204/184
f 160/191/170 161/193/172 145/206/185 144/205/183
f 161/197/175 162/196/174 146/207/186 145/208/187
f 162/196/174 155/199/176 139/209/188 146/207/186
f 171/210/189 172/211/190 170/212/191 169/213/192
f 173/214/193 171/215/194 169/216/195 168/217/196
f 172/211/190 174/218/197 163/219/198 170/212/191
f 175/220/199 173/214/193 168/217/196 167/221/200
f 176/222/201 175/220/202 167/221/203 166/223/204
f 177/224/205 176/222/201 166/223/204 165/225/206
f 178/226/207 177/224/208 165/225/209 164/227/210
f 174/228/211 178/226/207 164/227/210 163/229/212
f 139/201/178 140/200/177 178/226/207 174/228/211
f 140/200/177 141/202/179 177/224/208 178/226/207
f 141/202/181 142/203/180 176/222/201 177/224/205
f 142/203/180 143/204/182 175/220/202 176/222/201
f 143/204/184 144/205/183 173/214/193 175/220/199
f 146/207/186 139/209/188 174/218/197 172/211/190
f 144/205/183 145/206/185 171/215/194 173/214/193
f 145/208/187 146/207/186 172/211/190 171/210/189
f 179/230/213 164/231/214 165/232/215 166/233/216
f 168/234/217 179/230/213 166/233/216 167/235/218
f 169/236/219 170/237/220 179/230/213 168/234/217
f 170/237/220 163/238/221 164/231/214 179/230/213
f 180/239/222 187/240/223 208/241/224 209/242/225
f 187/240/223 186/243/226 205/244/227 208/241/224
f 186/243/226 185/245/228 202/246/229 205/244/227
f 185/245/228 184/247/230 199/248/231 202/246/229
f 184/247/230 183/249/232 196/250/233 199/248/231
f 183/251/232 182/252/234 193/253/235 196/254/233
f 182/252/234 181/255/236 190/256/237 193/253/235
f 181/255/236 180/239/222 209/242/225 190/256/237
f 193/253/235 190/256/237 189/257/238 192/258/239
f 192/258/239 189/257/238 188/179/158 191/178/157
f 149/177/156 150/259/168 194/260/240 191/178/157
f 196/254/233 193/253/235 192/258/239 195/261/241
f 195/261/241 192/258/239 191/178/157 194/260/240
f 150/262/168 151/263/165 197/264/242 194/265/240
f 199/248/231 196/250/233 195/266/241 198/267/243
f 198/267/243 195/266/241 194/265/240 197/264/242
f 151/263/165 152/268/163 200/269/244 197/264/242
f 202/246/229 199/248/231 198/267/243 201/270/245
f 201/270/245 198/267/243 197/264/242 200/269/244
f 152/268/163 153/271/160 203/272/246 200/269/244
f 205/244/227 202/246/229 201/270/245 204/273/247
f 204/273/247 201/270/245 200/269/244 203/272/246
f 153/271/160 154/274/159 206/275/248 203/272/246
f 208/241/224 205/244/227 204/273/247 207/276/249
f 207/276/249 204/273/247 203/272/246 206/275/248
f 154/274/159 147/277/173 211/278/250 206/275/248
f 209/242/225 208/241/224 207/276/249 210/279/251
f 210/279/251 207/276/249 206/275/248 211/278/250
f 147/277/173 148/176/155 188/179/158 211/278/250
f 190/256/237 209/242/225 210/279/251 189/257/238
f 189/257/238 210/279/251 211/278/250 188/179/158
f 221/280/252 253/281/253 256/282/254 222/283/255
f 227/284/256 228/285/257 229/286/258 226/287/259
f 226/287/259 229/286/258 230/288/260 225/289/261
f 225/289/261 230/288/262 231/290/263 224/291/264
f 224/291/264 231/290/263 232/292/265 223/293/266
f 223/293/266 232/292/267 233/294/268 222/295/255
f 222/295/255 233/294/268 234/296/269 221/297/252
f 221/298/252 234/299/270 235/300/271 220/301/272
f 220/301/272 235/300/271 228/302/273 227/303/256
f 228/285/257 212/304/274 213/305/275 229/286/258
f 229/286/258 213/305/275 214/306/276 230/288/260
f 230/288/262 214/306/277 215/307/278 231/290/263
f 231/290/263 215/307/278 216/308/279 232/292/265
f 232/292/267 216/308/280 217/309/281 233/294/268
f 233/294/268 217/309/281 218/310/282 234/296/269
f 234/299/270 218/311/283 219/312/284 235/300/271
f 235/300/271 219/312/284 212/313/285 228/302/273
f 244/314/286 242/315/287 243/316/288 245/317/289
f 246/318/290 241/319/291 242/320/292 244/321/293
f 245/317/289 243/316/288 236/322/294 247/323/295
f 248/324/296 240/325/297 241/319/291 246/318/290
f 249/326/298 239/327/299 240/325/300 248/324/301
f 250/328/302 238/329/303 239/327/299 249/326/298
f 251/330/304 237/331/305 238/329/306 250/328/307
f 247/332/308 236/333/309 237/331/305 251/330/304
f 212/304/274 247/332/308 251/330/304 213/305/275
f 213/305/275 251/330/304 250/328/307 214/306/276
f 214/306/277 250/328/302 249/326/298 215/307/278
f 215/307/278 249/326/298 248/324/301 216/308/279
f 216/308/280 248/324/296 246/318/290 217/309/281
f 219/312/284 245/317/289 247/323/295 212/313/285
f 217/309/281 246/318/290 244/321/293 218/310/282
f 218/311/283 244/314/286 245/317/289 219/312/284
f 252/334/310 239/335/311 238/336/312 237/337/313
f 241/338/314 240/339/315 239/335/311 252/334/310
f 242/340/316 241/338/314 252/334/310 243/341/317
f 243/341/317 252/334/310 237/337/313 236/342/318
f 180/343/222 274/344/319 273/345/320 187/346/223
f 187/346/223 273/345/320 270/347/321 186/348/226
f 186/348/226 270/347/321 267/349/322 185/350/228
f 185/350/228 267/349/322 264/351/323 184/352/230
f 184/352/230 264/351/323 261/353/324 183/354/232
f 183/355/232 261/356/324 258/357/325 182/358/234
f 182/358/234 258/357/325 255/359/326 181/360/236
f 181/360/236 255/359/326 274/344/319 180/343/222
f 258/357/325 257/361/327 254/362/328 255/359/326
f 257/361/327 256/282/254 253/281/253 254/362/328
f 222/283/255 256/282/254 259/363/329 223/364/266
f 261/356/324 260/365/330 257/361/327 258/357/325
f 260/365/330 259/363/329 256/282/254 257/361/327
f 223/366/266 259/367/329 262/368/331 224/369/264
f 264/351/323 263/370/332 260/371/330 261/353/324
f 263/370/332 262/368/331 259/367/329 260/371/330
f 224/369/264 262/368/331 265/372/333 225/373/261
f 267/349/322 266/374/334 263/370/332 264/351/323
f 266/374/334 265/372/333 262/368/331 263/370/332
f 225/373/261 265/372/333 268/375/335 226/376/259
f 270/347/321 269/377/336 266/374/334 267/349/322
f 269/377/336 268/375/335 265/372/333 266/374/334
f 226/376/259 268/375/335 271/378/337 227/379/256
f 273/345/320 272/380/338 269/377/336 270/347/321
f 272/380/338 271/378/337 268/375/335 269/377/336
f 227/379/256 271/378/337 276/381/339 220/382/272
f 274/344/319 275/383/340 272/380/338 273/345/320
f 275/383/340 276/381/339 271/378/337 272/380/338
f 220/382/272 276/381/339 253/281/253 221/280/252
f 255/359/326 254/362/328 275/383/340 274/344/319
f 254/362/328 253/281/253 276/381/339 275/383/340
f 279/384/341 294/385/342 295/386/343 281/387/344
f 281/387/344 295/386/343 296/388/345 283/389/346
f 283/389/346 296/388/345 297/390/347 285/391/348
f 285/391/348 297/390/347 298/392/349 287/393/350
f 287/394/350 298/395/349 299/396/351 289/397/352
f 289/397/352 299/396/351 300/398/353 291/399/354
f 291/399/354 300/398/353 293/400/355 277/401/356
f 277/401/356 293/400/355 294/385/342 279/384/341
f 300/402/353 299/403/351 302/404/357 301/405/358
f 299/403/351 298/406/349 303/407/359 302/404/357
f 298/406/349 297/408/347 304/409/360 303/407/361
f 297/408/347 296/410/345 305/411/362 304/409/360
f 296/410/345 295/412/343 306/413/363 305/411/364
f 295/412/343 294/414/342 307/415/365 306/413/363
f 294/416/342 293/417/355 308/418/366 307/419/367
f 293/417/355 300/420/353 301/421/368 308/418/366
f 301/405/358 302/404/357 280/422/369 278/423/370
f 302/404/357 303/407/359 282/424/371 280/422/369
f 303/407/361 304/409/360 284/425/372 282/424/373
f 304/409/360 305/411/362 286/426/374 284/425/372
f 305/411/364 306/413/363 288/427/375 286/426/376
f 306/413/363 307/415/365 290/428/377 288/427/375
f 307/419/367 308/418/366 292/429/378 290/430/379
f 308/418/366 301/421/368 278/431/380 292/429/378
f 317/432/381 318/433/382 316/434/383 315/435/384
f 319/436/385 317/437/386 315/438/387 314/439/388
f 318/433/382 320/440/389 309/441/390 316/434/383
f 321/442/391 319/436/385 314/439/388 313/443/392
f 322/444/393 321/442/394 313/443/395 312/445/396
f 323/446/397 322/444/393 312/445/396 311/447/398
f 324/448/399 323/446/400 311/447/401 310/449/402
f 320/450/403 324/448/399 310/449/402 309/451/404
f 278/423/370 280/422/369 324/448/399 320/450/403
f 280/422/369 282/424/371 323/446/400 324/448/399
f 282/424/373 284/425/372 322/444/393 323/446/397
f 284/425/372 286/426/374 321/442/394 322/444/393
f 286/426/376 288/427/375 319/436/385 321/442/391
f 292/429/378 278/431/380 320/440/389 318/433/382
f 288/427/375 290/428/377 317/437/386 319/436/385
f 290/430/379 292/429/378 318/433/382 317/432/381
f 325/452/405 310/453/406 311/454/407 312/455/408
f 314/456/409 325/452/405 312/455/408 313/457/410
f 315/458/411 316/459/412 325/452/405 314/456/409
f 316/459/412 309/460/413 310/453/406 325/452/405
