# Blender 4.0.2
# www.blender.org
o bradawl
v 0.009949 0.007063 -0.009949
v 0.006632 0.005805 -0.011246
v 0.003316 0.005115 -0.011957
v -0.000001 0.004895 -0.012185
v -0.003317 0.005115 -0.011957
v -0.006634 0.005805 -0.011246
v 0.011246 0.010279 -0.011246
v 0.007497 0.009440 -0.013584
v 0.003748 0.008981 -0.014810
v -0.000001 0.008833 -0.015197
v -0.003750 0.008981 -0.014810
v -0.007499 0.009440 -0.013584
v 0.011957 0.013495 -0.011957
v 0.007971 0.013076 -0.014810
v 0.003985 0.012846 -0.016284
v -0.000001 0.012772 -0.016747
v -0.003987 0.012846 -0.016284
v -0.007973 0.013076 -0.014810
v -0.008617 0.016711 -0.014923
v -0.009950 0.007063 -0.009949
v -0.011248 0.005805 -0.006632
v -0.011959 0.005115 -0.003316
v -0.012187 0.004895 0.000001
v -0.011959 0.005115 0.003317
v -0.011248 0.005805 0.006634
v -0.011248 0.010279 -0.011246
v -0.013586 0.009440 -0.007497
v -0.014812 0.008981 -0.003748
v -0.015199 0.008833 0.000001
v -0.014812 0.008981 0.003750
v -0.013586 0.009440 0.007499
v -0.011959 0.013495 -0.011957
v -0.014812 0.013076 -0.007971
v -0.016286 0.012846 -0.003985
v -0.016748 0.012772 0.000001
v -0.016286 0.012846 0.003987
v -0.014812 0.013076 0.007973
v -0.016647 0.016711 0.004461
v -0.014925 0.016711 0.008617
v -0.009950 0.007063 0.009950
v -0.006634 0.005805 0.011248
v -0.003317 0.005115 0.011959
v -0.000001 0.004895 0.012187
v 0.003316 0.005115 0.011959
v 0.006632 0.005805 0.011248
v -0.011248 0.010279 0.011248
v -0.007499 0.009440 0.013586
v -0.003750 0.008981 0.014812
v -0.000001 0.008833 0.015199
v 0.003748 0.008981 0.014812
v 0.007497 0.009440 0.013586
v -0.011959 0.013495 0.011959
v -0.007973 0.013076 0.014812
v -0.003987 0.012846 0.016286
v -0.000001 0.012772 0.016748
v 0.003985 0.012846 0.016286
v 0.007971 0.013076 0.014812
v -0.012187 0.016711 0.012187
v -0.008617 0.016711 0.014925
v -0.004461 0.016711 0.016647
v 0.009949 0.007063 0.009950
v 0.011246 0.005805 0.006634
v 0.011957 0.005115 0.003317
v 0.012185 0.004895 0.000001
v 0.011957 0.005115 -0.003316
v 0.011246 0.005805 -0.006632
v 0.011246 0.010279 0.011248
v 0.013584 0.009440 0.007499
v 0.014810 0.008981 0.003750
v 0.015197 0.008833 0.000001
v 0.014810 0.008981 -0.003748
v 0.013584 0.009440 -0.007497
v 0.011957 0.013495 0.011959
v 0.014810 0.013076 0.007973
v 0.016284 0.012846 0.003987
v 0.016747 0.012772 0.000001
v 0.016284 0.012846 -0.003985
v 0.014810 0.013076 -0.007971
v 0.012185 0.016711 0.012187
v 0.007497 0.003538 0.007499
v 0.003748 0.002348 0.007973
v -0.000001 0.001973 0.008125
v -0.003750 0.002348 0.007973
v -0.007499 0.003538 0.007499
v 0.007971 0.002348 0.003750
v 0.003985 0.000919 0.003987
v -0.000001 0.000471 0.004063
v -0.003987 0.000919 0.003987
v -0.007973 0.002348 0.003750
v 0.008123 0.001973 0.000001
v 0.004061 0.000471 0.000001
v -0.000001 0.000000 0.000001
v -0.004063 0.000471 0.000001
v -0.008125 0.001973 0.000001
v 0.007971 0.002348 -0.003748
v 0.003985 0.000919 -0.003985
v -0.000001 0.000471 -0.004061
v -0.003987 0.000919 -0.003985
v -0.007973 0.002348 -0.003748
v 0.007497 0.003538 -0.007497
v 0.003748 0.002348 -0.007971
v -0.000001 0.001973 -0.008123
v -0.003750 0.002348 -0.007971
v -0.007499 0.003538 -0.007497
v -0.010246 0.079131 0.000001
v -0.003125 0.086140 0.000001
v -0.005123 0.079131 -0.008871
v -0.001563 0.086140 -0.002705
v 0.005121 0.079131 -0.008871
v 0.001561 0.086140 -0.002705
v 0.010244 0.079131 0.000001
v 0.003123 0.086140 0.000001
v 0.005121 0.079131 0.008873
v 0.001561 0.086140 0.002707
v -0.005123 0.079131 0.008873
v -0.001563 0.086140 0.002707
v 0.002560 0.078016 0.008873
v -0.000001 0.077830 0.008873
v -0.002562 0.078016 0.008873
v -0.000810 0.086140 0.003019
v -0.000001 0.086140 0.003125
v 0.000808 0.086140 0.003019
v 0.008963 0.078016 0.002219
v 0.007683 0.077830 0.004437
v 0.006402 0.078016 0.006655
v 0.002208 0.086140 0.002210
v 0.002705 0.086140 0.001563
v 0.003017 0.086140 0.000810
v -0.006404 0.078016 0.006655
v -0.007685 0.077830 0.004437
v -0.008965 0.078016 0.002219
v -0.003019 0.086140 0.000810
v -0.002707 0.086140 0.001563
v -0.002210 0.086140 0.002210
v -0.008965 0.078016 -0.002217
v -0.007685 0.077830 -0.004435
v -0.006404 0.078016 -0.006653
v -0.002210 0.086140 -0.002208
v -0.002707 0.086140 -0.001561
v -0.003019 0.086140 -0.000808
v -0.002562 0.078016 -0.008871
v -0.000001 0.077830 -0.008871
v 0.002560 0.078016 -0.008871
v 0.000808 0.086140 -0.003017
v -0.000001 0.086140 -0.003123
v -0.000810 0.086140 -0.003017
v 0.006402 0.078016 -0.006653
v 0.007683 0.077830 -0.004435
v 0.008963 0.078016 -0.002217
v 0.003017 0.086140 -0.000808
v 0.002705 0.086140 -0.001561
v 0.002208 0.086140 -0.002208
v -0.005757 0.076477 -0.005755
v -0.004071 0.076477 -0.007048
v 0.002106 0.076477 -0.007862
v 0.004069 0.076477 -0.007048
v 0.007862 0.076477 -0.002106
v 0.008139 0.076477 0.000001
v 0.005755 0.076477 0.005757
v 0.004069 0.076477 0.007050
v -0.002108 0.076477 0.007863
v -0.004071 0.076477 0.007050
v -0.007863 0.076477 0.002108
v -0.008141 0.076477 0.000001
v 0.002106 0.076477 0.007863
v -0.000001 0.076477 0.008141
v 0.007862 0.076477 0.002108
v 0.007048 0.076477 0.004071
v -0.005757 0.076477 0.005757
v -0.007050 0.076477 0.004071
v -0.007863 0.076477 -0.002106
v -0.007050 0.076477 -0.004069
v -0.002108 0.076477 -0.007862
v -0.000001 0.076477 -0.008139
v 0.005755 0.076477 -0.005755
v 0.007048 0.076477 -0.004069
v -0.005301 0.073036 -0.005299
v -0.003749 0.073036 -0.006490
v 0.001939 0.073036 -0.007239
v 0.003747 0.073036 -0.006490
v 0.007239 0.073036 -0.001939
v 0.007494 0.073036 0.000001
v 0.005299 0.073036 0.005301
v 0.003747 0.073036 0.006492
v -0.001941 0.073036 0.007241
v -0.003749 0.073036 0.006492
v -0.007241 0.073036 0.001941
v -0.007496 0.073036 0.000001
v 0.001939 0.073036 0.007241
v -0.000001 0.073036 0.007496
v 0.007239 0.073036 0.001941
v 0.006490 0.073036 0.003749
v -0.005301 0.073036 0.005301
v -0.006492 0.073036 0.003749
v -0.007241 0.073036 -0.001939
v -0.006492 0.073036 -0.003747
v -0.001941 0.073036 -0.007239
v -0.000001 0.073036 -0.007494
v 0.005299 0.073036 -0.005299
v 0.006490 0.073036 -0.003747
v -0.011671 0.024476 -0.011670
v -0.008253 0.024476 -0.014292
v 0.004271 0.024476 -0.015941
v 0.008251 0.024476 -0.014292
v 0.015941 0.024476 -0.004271
v 0.016504 0.024476 0.000001
v 0.011670 0.024476 0.011671
v 0.008251 0.024476 0.014294
v -0.004273 0.024476 0.015943
v -0.008253 0.024476 0.014294
v -0.015943 0.024476 0.004273
v -0.016505 0.024476 0.000001
v 0.004271 0.024476 0.015943
v -0.000001 0.024476 0.016505
v 0.015941 0.024476 0.004273
v 0.014292 0.024476 0.008253
v -0.011671 0.024476 0.011671
v -0.014294 0.024476 0.008253
v -0.015943 0.024476 -0.004271
v -0.014294 0.024476 -0.008251
v -0.004273 0.024476 -0.015941
v -0.000001 0.024476 -0.016504
v 0.011670 0.024476 -0.011670
v 0.014292 0.024476 -0.008251
v -0.008965 0.086140 -0.002217
v -0.010246 0.086140 0.000001
v -0.002562 0.086140 -0.008871
v -0.005123 0.086140 -0.008871
v 0.006402 0.086140 -0.006653
v 0.005121 0.086140 -0.008871
v 0.008963 0.086140 0.002219
v 0.010244 0.086140 0.000001
v 0.002560 0.086140 0.008873
v 0.005121 0.086140 0.008873
v -0.006404 0.086140 0.006655
v -0.005123 0.086140 0.008873
v -0.002562 0.086140 0.008873
v -0.000001 0.086140 0.008873
v 0.006402 0.086140 0.006655
v 0.007683 0.086140 0.004437
v -0.008965 0.086140 0.002219
v -0.007685 0.086140 0.004437
v -0.006404 0.086140 -0.006653
v -0.007685 0.086140 -0.004435
v 0.002560 0.086140 -0.008871
v -0.000001 0.086140 -0.008871
v 0.008963 0.086140 -0.002217
v 0.007683 0.086140 -0.004435
v -0.003019 0.096021 -0.000808
v -0.003125 0.096021 0.000001
v -0.000810 0.096021 -0.003017
v -0.001563 0.096021 -0.002705
v 0.002208 0.096021 -0.002208
v 0.001561 0.096021 -0.002705
v 0.003017 0.096021 0.000810
v 0.003123 0.096021 0.000001
v 0.000808 0.096021 0.003019
v 0.001561 0.096021 0.002707
v -0.002210 0.096021 0.002210
v -0.001563 0.096021 0.002707
v -0.000810 0.096021 0.003019
v -0.000001 0.096021 0.003125
v 0.002208 0.096021 0.002210
v 0.002705 0.096021 0.001563
v -0.003019 0.096021 0.000810
v -0.002707 0.096021 0.001563
v -0.002210 0.096021 -0.002208
v -0.002707 0.096021 -0.001561
v 0.000808 0.096021 -0.003017
v -0.000001 0.096021 -0.003123
v 0.003017 0.096021 -0.000808
v 0.002705 0.096021 -0.001561
v -0.012162 0.016688 -0.012161
v 0.004450 0.016688 -0.016612
v 0.008599 0.016688 -0.014894
v 0.016612 0.016688 -0.004450
v 0.017198 0.016688 0.000001
v 0.008599 0.016688 0.014896
v -0.017200 0.016688 0.000001
v 0.004450 0.016688 0.016614
v -0.000001 0.016688 0.017200
v 0.016612 0.016688 0.004452
v 0.014894 0.016688 0.008600
v -0.016614 0.016688 -0.004450
v -0.014896 0.016688 -0.008599
v -0.004452 0.016688 -0.016612
v -0.000001 0.016688 -0.017198
v 0.012161 0.016688 -0.012161
v 0.014894 0.016688 -0.008599
v -0.002707 0.096021 0.000001
v -0.002210 0.096021 0.000001
v -0.001563 0.096021 0.000001
v -0.000716 0.096021 0.000001
v -0.000001 0.096021 0.000001
v 0.000714 0.096021 0.000001
v 0.001561 0.096021 0.000001
v 0.002208 0.096021 0.000001
v 0.002705 0.096021 0.000001
v -0.000001 0.096021 -0.001494
v -0.000001 0.109548 -0.001494
v 0.001056 0.096021 -0.001056
v 0.001056 0.109548 -0.001056
v 0.001494 0.096021 0.000001
v 0.001494 0.109548 0.000001
v 0.001056 0.096021 0.001058
v 0.001056 0.109548 0.001058
v -0.000001 0.096021 0.001496
v -0.000001 0.109548 0.001496
v -0.001058 0.096021 0.001058
v -0.001058 0.109548 0.001058
v -0.001496 0.096021 0.000001
v -0.001496 0.109548 0.000001
v -0.001058 0.096021 -0.001056
v -0.001058 0.109548 -0.001056
v -0.000001 0.119685 0.000001
vn 0.5713 -0.5893 -0.5713
vn 0.3917 -0.6600 -0.6410
vn 0.4324 -0.4452 -0.7841
vn 0.6458 -0.4073 -0.6458
vn 0.1958 -0.7034 -0.6833
vn 0.2150 -0.4778 -0.8518
vn -0.0000 -0.7172 -0.6968
vn -0.0000 -0.4878 -0.8730
vn -0.1958 -0.7034 -0.6833
vn -0.2150 -0.4778 -0.8518
vn -0.3917 -0.6600 -0.6410
vn -0.4324 -0.4452 -0.7841
vn -0.5713 -0.5893 -0.5713
vn -0.6458 -0.4073 -0.6458
vn 0.4658 -0.2200 -0.8571
vn 0.6920 -0.2056 -0.6920
vn 0.2333 -0.2328 -0.9441
vn -0.0000 -0.2371 -0.9715
vn -0.2324 -0.2336 -0.9441
vn -0.4654 -0.2221 -0.8568
vn -0.6925 -0.2068 -0.6911
vn 0.4989 -0.0088 -0.8666
vn 0.7071 -0.0093 -0.7071
vn 0.2571 -0.0088 -0.9663
vn -0.0000 -0.0093 -1.0000
vn -0.2552 -0.0094 -0.9668
vn -0.4990 -0.0095 -0.8666
vn -0.7084 -0.0101 -0.7057
vn -0.6410 -0.6600 -0.3917
vn -0.7841 -0.4452 -0.4324
vn -0.6833 -0.7034 -0.1958
vn -0.8518 -0.4778 -0.2150
vn -0.6968 -0.7172 -0.0000
vn -0.8730 -0.4878 -0.0000
vn -0.6833 -0.7034 0.1958
vn -0.8518 -0.4778 0.2150
vn -0.6410 -0.6600 0.3917
vn -0.7841 -0.4452 0.4324
vn -0.5713 -0.5893 0.5713
vn -0.6458 -0.4073 0.6458
vn -0.8571 -0.2200 -0.4658
vn -0.9441 -0.2328 -0.2333
vn -0.9713 -0.2380 -0.0009
vn -0.9437 -0.2357 0.2322
vn -0.8562 -0.2243 0.4655
vn -0.6913 -0.2103 0.6913
vn -0.8666 -0.0088 -0.4989
vn -0.9663 -0.0088 -0.2571
vn -1.0000 -0.0098 -0.0019
vn -0.9668 -0.0100 0.2553
vn -0.8666 -0.0109 0.4990
vn -0.7071 -0.0115 0.7071
vn -0.3917 -0.6600 0.6410
vn -0.4324 -0.4452 0.7841
vn -0.1958 -0.7034 0.6833
vn -0.2150 -0.4778 0.8518
vn -0.0000 -0.7172 0.6968
vn -0.0000 -0.4878 0.8730
vn 0.1958 -0.7034 0.6833
vn 0.2150 -0.4778 0.8518
vn 0.3917 -0.6600 0.6410
vn 0.4324 -0.4452 0.7841
vn 0.5713 -0.5893 0.5713
vn 0.6458 -0.4073 0.6458
vn -0.4655 -0.2243 0.8562
vn -0.2322 -0.2357 0.9437
vn 0.0009 -0.2380 0.9713
vn 0.2333 -0.2328 0.9441
vn 0.4651 -0.2209 0.8573
vn 0.6917 -0.2078 0.6917
vn -0.4990 -0.0109 0.8666
vn -0.2553 -0.0100 0.9668
vn 0.0019 -0.0098 1.0000
vn 0.2571 -0.0088 0.9663
vn 0.4972 -0.0096 0.8676
vn 0.7071 -0.0099 0.7071
vn 0.6410 -0.6600 0.3917
vn 0.7841 -0.4452 0.4324
vn 0.6833 -0.7034 0.1958
vn 0.8518 -0.4778 0.2150
vn 0.6968 -0.7172 -0.0000
vn 0.8730 -0.4878 -0.0000
vn 0.6833 -0.7034 -0.1958
vn 0.8518 -0.4778 -0.2150
vn 0.6410 -0.6600 -0.3917
vn 0.7841 -0.4452 -0.4324
vn 0.8573 -0.2209 0.4651
vn 0.9441 -0.2328 0.2333
vn 0.9715 -0.2371 -0.0000
vn 0.9441 -0.2328 -0.2333
vn 0.8571 -0.2200 -0.4658
vn 0.8676 -0.0096 0.4972
vn 0.9663 -0.0088 0.2571
vn 1.0000 -0.0093 -0.0000
vn 0.9663 -0.0088 -0.2571
vn 0.8666 -0.0088 -0.4989
vn 0.4268 -0.7973 0.4268
vn 0.2116 -0.8639 0.4571
vn -0.0000 -0.8846 0.4663
vn -0.2116 -0.8639 0.4571
vn -0.4268 -0.7973 0.4268
vn 0.4571 -0.8639 0.2116
vn 0.2264 -0.9473 0.2264
vn -0.0000 -0.9730 0.2309
vn -0.2264 -0.9473 0.2264
vn -0.4571 -0.8639 0.2116
vn 0.4663 -0.8846 -0.0000
vn 0.2309 -0.9730 -0.0000
vn -0.0000 -1.0000 -0.0000
vn -0.2309 -0.9730 -0.0000
vn -0.4663 -0.8846 -0.0000
vn 0.4571 -0.8639 -0.2116
vn 0.2264 -0.9473 -0.2264
vn -0.0000 -0.9730 -0.2309
vn -0.2264 -0.9473 -0.2264
vn -0.4571 -0.8639 -0.2116
vn 0.4268 -0.7973 -0.4268
vn 0.2116 -0.8639 -0.4571
vn -0.0000 -0.8846 -0.4663
vn -0.2116 -0.8639 -0.4571
vn -0.4268 -0.7973 -0.4268
vn -0.8660 -0.0000 -0.5000
vn -0.0000 -0.0000 -1.0000
vn 0.8660 -0.0000 -0.5000
vn 0.8660 -0.0000 0.5000
vn 0.9659 -0.0000 -0.2588
vn -0.0000 -0.0000 1.0000
vn -0.8660 -0.0000 0.5000
vn -0.0000 -0.5243 0.8515
vn -0.2058 -0.5786 0.7892
vn -0.2169 -0.3896 0.8951
vn -0.0000 -0.3654 0.9308
vn 0.2169 -0.3896 0.8951
vn -0.0000 -0.0009 1.0000
vn 0.2588 -0.0009 0.9659
vn -0.3963 -0.6097 0.6864
vn -0.4548 -0.4153 0.7878
vn 0.7374 -0.5243 -0.4258
vn 0.7864 -0.5786 -0.2164
vn 0.8836 -0.3896 -0.2597
vn 0.8061 -0.3654 -0.4654
vn 0.7864 -0.5786 0.2164
vn 0.7374 -0.5243 0.4258
vn 0.8061 -0.3654 0.4654
vn 0.8836 -0.3896 0.2597
vn -0.5806 -0.5786 0.5728
vn -0.6668 -0.3896 0.6354
vn 0.5806 -0.5786 0.5728
vn 0.6668 -0.3896 0.6354
vn 0.7926 -0.6097 -0.0000
vn 0.9097 -0.4153 -0.0000
vn -0.7374 -0.5243 0.4258
vn -0.8061 -0.3654 0.4654
vn -0.5806 -0.5786 -0.5728
vn -0.3963 -0.6097 -0.6864
vn -0.4548 -0.4153 -0.7878
vn -0.6668 -0.3896 -0.6354
vn -0.7926 -0.6097 -0.0000
vn -0.7864 -0.5786 -0.2164
vn -0.8836 -0.3896 -0.2597
vn -0.9097 -0.4153 -0.0000
vn -0.7864 -0.5786 0.2164
vn -0.8836 -0.3896 0.2597
vn -0.7374 -0.5243 -0.4258
vn -0.8061 -0.3654 -0.4654
vn -0.2058 -0.5786 -0.7892
vn -0.2169 -0.3896 -0.8951
vn 0.3963 -0.6097 0.6864
vn 0.4548 -0.4153 0.7878
vn -0.0000 -0.5243 -0.8515
vn -0.0000 -0.3654 -0.9308
vn 0.2058 -0.5786 0.7892
vn 0.3963 -0.6097 -0.6864
vn 0.5806 -0.5786 -0.5728
vn 0.6668 -0.3896 -0.6354
vn 0.4548 -0.4153 -0.7878
vn 0.2058 -0.5786 -0.7892
vn 0.2169 -0.3896 -0.8951
vn 0.8660 -0.0009 -0.5000
vn 0.7071 -0.0009 -0.7071
vn -0.5000 -0.0009 -0.8660
vn -0.7071 -0.0009 -0.7071
vn -0.9659 -0.0009 -0.2588
vn -1.0000 -0.0009 -0.0000
vn -0.2588 -0.0009 0.9659
vn 0.9659 -0.0009 -0.2588
vn 0.5000 -0.0009 -0.8660
vn 0.2588 -0.0009 -0.9659
vn -0.8660 -0.0009 -0.5000
vn 0.9659 -0.0009 0.2588
vn 1.0000 -0.0009 -0.0000
vn 0.8660 -0.0009 0.5000
vn 0.5000 -0.0009 0.8660
vn 0.7071 -0.0009 0.7071
vn -0.2588 -0.0009 -0.9659
vn -0.5000 -0.0009 0.8660
vn -0.0000 -0.0009 -1.0000
vn -0.7071 -0.0009 0.7071
vn -0.9659 -0.0009 0.2588
vn -0.8660 -0.0009 0.5000
vn 0.7005 0.1364 0.7005
vn 0.8585 0.1358 0.4945
vn -0.4952 0.1375 0.8578
vn -0.2554 0.1370 0.9571
vn -0.0000 0.1352 -0.9908
vn -0.2554 0.1358 -0.9572
vn -0.7004 0.1375 0.7004
vn -0.9907 0.1358 -0.0010
vn -0.9571 0.1370 0.2554
vn 0.2564 0.1352 -0.9571
vn -0.8578 0.1375 0.4952
vn 0.2564 0.1352 0.9571
vn 0.4945 0.1358 0.8585
vn 0.7006 0.1352 -0.7006
vn 0.4954 0.1352 -0.8581
vn 0.0010 0.1358 0.9907
vn 0.8581 0.1352 -0.4954
vn -0.4953 0.1364 -0.8579
vn -0.7013 0.1358 -0.6998
vn -0.9571 0.1352 -0.2564
vn 0.9571 0.1352 -0.2564
vn -0.8581 0.1352 -0.4954
vn 0.9571 0.1352 0.2564
vn 0.9908 0.1352 -0.0000
vn -0.0000 1.0000 -0.0000
vn -0.9659 -0.0000 -0.2588
vn -1.0000 -0.0000 -0.0000
vn -0.5000 -0.0000 -0.8660
vn -0.7071 -0.0000 -0.7071
vn 0.2588 -0.0000 0.9659
vn 0.7071 -0.0000 -0.7071
vn -0.2588 -0.0000 -0.9659
vn 0.5000 -0.0000 0.8660
vn 0.7071 -0.0000 0.7071
vn 0.5000 -0.0000 -0.8660
vn 0.9659 -0.0000 0.2588
vn 1.0000 -0.0000 -0.0000
vn 0.2588 -0.0000 -0.9659
vn -0.9659 -0.0000 0.2588
vn -0.7071 -0.0000 0.7071
vn -0.5000 -0.0000 0.8660
vn -0.2588 -0.0000 0.9659
vn -0.0000 0.0719 -0.9974
vn 0.7053 0.0719 -0.7053
vn 0.9974 0.0719 -0.0000
vn 0.7053 0.0719 0.7053
vn -0.0000 0.0719 0.9974
vn -0.7053 0.0719 0.7053
vn -0.9974 0.0719 -0.0000
vn -0.7053 0.0719 -0.7053
vt 0.860266 0.704072
vt 0.832041 0.698006
vt 0.847012 0.665403
vt 0.882553 0.681792
vt 0.806741 0.694992
vt 0.814284 0.657339
vt 0.782722 0.694314
vt 0.782733 0.655111
vt 0.758702 0.694979
vt 0.751179 0.657319
vt 0.733398 0.697980
vt 0.718442 0.665365
vt 0.705168 0.704032
vt 0.682889 0.681740
vt 0.863653 0.632248
vt 0.905793 0.658560
vt 0.822978 0.618787
vt 0.782747 0.614821
vt 0.742511 0.618757
vt 0.701815 0.632190
vt 0.659658 0.658499
vt 0.889639 0.598853
vt 0.931461 0.632901
vt 0.838894 0.576264
vt 0.782765 0.567633
vt 0.726631 0.576220
vt 0.675669 0.598510
vt 0.634002 0.632829
vt 0.699099 0.732258
vt 0.666495 0.717282
vt 0.696081 0.757561
vt 0.658425 0.750011
vt 0.695400 0.781583
vt 0.656190 0.781566
vt 0.696063 0.805607
vt 0.658393 0.813128
vt 0.699063 0.830918
vt 0.666437 0.845876
vt 0.705117 0.859156
vt 0.682816 0.881446
vt 0.633341 0.700635
vt 0.619873 0.741308
vt 0.615893 0.781541
vt 0.619812 0.821788
vt 0.633250 0.862503
vt 0.659560 0.904691
vt 0.599952 0.674645
vt 0.577355 0.725382
vt 0.568710 0.781502
vt 0.576962 0.837763
vt 0.599562 0.888634
vt 0.633660 0.930577
vt 0.733353 0.865224
vt 0.718379 0.897844
vt 0.758663 0.868237
vt 0.751123 0.905904
vt 0.782688 0.868911
vt 0.782686 0.908124
vt 0.806712 0.868241
vt 0.814244 0.905905
vt 0.832019 0.865234
vt 0.846982 0.897851
vt 0.860251 0.859176
vt 0.882542 0.881467
vt 0.701734 0.931022
vt 0.742443 0.944481
vt 0.782689 0.948423
vt 0.822926 0.944466
vt 0.863614 0.931021
vt 0.905792 0.904719
vt 0.675586 0.964697
vt 0.726446 0.987323
vt 0.782702 0.995605
vt 0.838826 0.986993
vt 0.889577 0.964433
vt 0.931687 0.930615
vt 0.866313 0.830944
vt 0.898926 0.845909
vt 0.869322 0.805640
vt 0.906980 0.813175
vt 0.869996 0.781619
vt 0.909199 0.781621
vt 0.869326 0.757600
vt 0.906981 0.750069
vt 0.866321 0.732298
vt 0.898929 0.717339
vt 0.932096 0.862541
vt 0.945539 0.821855
vt 0.949490 0.781621
vt 0.945537 0.741389
vt 0.932090 0.700710
vt 0.965508 0.888505
vt 0.988069 0.837752
vt 0.996677 0.781620
vt 0.988066 0.725487
vt 0.965494 0.674735
vt 0.834201 0.833122
vt 0.807468 0.834277
vt 0.782692 0.834696
vt 0.757915 0.834270
vt 0.731180 0.833106
vt 0.835362 0.806390
vt 0.807908 0.806823
vt 0.782696 0.807046
vt 0.757484 0.806814
vt 0.730028 0.806371
vt 0.835787 0.781616
vt 0.808139 0.781612
vt 0.782701 0.781607
vt 0.757262 0.781602
vt 0.729613 0.781594
vt 0.835368 0.756843
vt 0.807916 0.756402
vt 0.782706 0.756169
vt 0.757496 0.756390
vt 0.730043 0.756819
vt 0.834214 0.730114
vt 0.807486 0.728950
vt 0.782713 0.728523
vt 0.757940 0.728938
vt 0.731209 0.730089
vt 0.340627 0.672346
vt 0.340627 0.599157
vt 0.363001 0.599158
vt 0.363001 0.662300
vt 0.430124 0.672347
vt 0.430124 0.599158
vt 0.452498 0.599158
vt 0.452498 0.662301
vt 0.519620 0.672347
vt 0.519620 0.599158
vt 0.541994 0.599158
vt 0.541994 0.662301
vt 0.072137 0.672346
vt 0.072137 0.599157
vt 0.094512 0.599157
vt 0.094512 0.662300
vt 0.193425 0.685239
vt 0.200550 0.685239
vt 0.200550 0.774257
vt 0.193426 0.774257
vt 0.161634 0.672346
vt 0.161634 0.599157
vt 0.184008 0.599157
vt 0.184008 0.662300
vt 0.251131 0.672346
vt 0.251131 0.599157
vt 0.273505 0.599157
vt 0.273505 0.662300
vt 0.547904 0.563735
vt 0.525472 0.566050
vt 0.527743 0.547725
vt 0.548947 0.549295
vt 0.116886 0.599157
vt 0.116886 0.672346
vt 0.139260 0.599157
vt 0.139260 0.674020
vt 0.005015 0.662300
vt 0.005015 0.599157
vt 0.027389 0.599157
vt 0.027389 0.672346
vt 0.049763 0.599157
vt 0.049763 0.674020
vt 0.206382 0.599157
vt 0.206382 0.672346
vt 0.228756 0.599157
vt 0.228756 0.674020
vt 0.295879 0.599157
vt 0.295879 0.672346
vt 0.318253 0.599157
vt 0.318253 0.674020
vt 0.385375 0.599158
vt 0.385375 0.672347
vt 0.407750 0.599158
vt 0.407750 0.674021
vt 0.474872 0.599158
vt 0.474872 0.672347
vt 0.497246 0.599158
vt 0.497246 0.674021
vt 0.569870 0.551090
vt 0.552729 0.510729
vt 0.574291 0.512991
vt 0.504604 0.579636
vt 0.506090 0.546423
vt 0.204416 0.571237
vt 0.182591 0.576234
vt 0.183206 0.558646
vt 0.203298 0.557065
vt 0.652879 0.577398
vt 0.630821 0.572022
vt 0.632098 0.557769
vt 0.652364 0.559511
vt 0.484923 0.564315
vt 0.484265 0.545598
vt 0.608555 0.573259
vt 0.611614 0.555571
vt 0.161781 0.589821
vt 0.163875 0.559331
vt 0.462202 0.560089
vt 0.462469 0.545063
vt 0.351414 0.564607
vt 0.331574 0.580079
vt 0.330075 0.546604
vt 0.352045 0.545756
vt 0.418326 0.578530
vt 0.397465 0.563736
vt 0.395979 0.544734
vt 0.418250 0.544469
vt 0.439102 0.563627
vt 0.440505 0.544646
vt 0.374272 0.560291
vt 0.373959 0.545197
vt 0.310513 0.566375
vt 0.308261 0.547894
vt 0.587500 0.585192
vt 0.590805 0.553206
vt 0.287850 0.563951
vt 0.286884 0.549369
vt 0.569409 0.569096
vt 0.247641 0.585132
vt 0.226622 0.572834
vt 0.223777 0.555095
vt 0.244687 0.552938
vt 0.266066 0.569171
vt 0.265773 0.551008
vt 0.674061 0.591530
vt 0.672227 0.560271
vt 0.199778 0.520958
vt 0.220093 0.518037
vt 0.328183 0.507195
vt 0.350629 0.506013
vt 0.395858 0.504663
vt 0.418594 0.504480
vt 0.530887 0.508803
vt 0.180219 0.523998
vt 0.240978 0.515291
vt 0.262290 0.512803
vt 0.373180 0.505178
vt 0.655965 0.524476
vt 0.674265 0.527572
vt 0.161585 0.527207
vt 0.636496 0.521391
vt 0.595511 0.515561
vt 0.616291 0.518392
vt 0.305923 0.508741
vt 0.508757 0.507227
vt 0.283934 0.510618
vt 0.486401 0.506027
vt 0.441299 0.504657
vt 0.463896 0.505177
vt 0.725430 0.069405
vt 0.759595 0.069405
vt 0.554835 0.069405
vt 0.588966 0.069405
vt 0.213200 0.069405
vt 0.247410 0.069405
vt 0.520698 0.069405
vt 0.418264 0.069405
vt 0.452412 0.069405
vt 0.178972 0.069405
vt 0.486557 0.069405
vt 0.657191 0.069405
vt 0.691302 0.069405
vt 0.110424 0.069405
vt 0.144718 0.069405
vt 0.623084 0.069405
vt 0.076060 0.069405
vt 0.281608 0.069405
vt 0.315792 0.069405
vt 0.384115 0.069405
vt 0.041564 0.069405
vt 0.349959 0.069405
vt 0.793850 0.069405
vt 0.828301 0.069405
vt 0.006827 0.069405
vt 0.071196 0.745783
vt 0.068469 0.752365
vt 0.017325 0.737055
vt 0.017325 0.714680
vt 0.071196 0.773075
vt 0.075533 0.778727
vt 0.036701 0.815365
vt 0.017324 0.804178
vt 0.094831 0.786721
vt 0.101895 0.785791
vt 0.114208 0.837739
vt 0.094831 0.848926
vt 0.118467 0.773075
vt 0.121193 0.766493
vt 0.172338 0.781804
vt 0.172338 0.804178
vt 0.118467 0.745783
vt 0.114130 0.740131
vt 0.152961 0.703493
vt 0.172338 0.714680
vt 0.094831 0.732137
vt 0.087767 0.733067
vt 0.075454 0.681119
vt 0.094831 0.669932
vt 0.101895 0.733067
vt 0.114208 0.681119
vt 0.108477 0.735794
vt 0.133585 0.692306
vt 0.121193 0.752365
vt 0.172338 0.737055
vt 0.122123 0.759429
vt 0.172338 0.759429
vt 0.075533 0.740131
vt 0.036701 0.703493
vt 0.081185 0.735794
vt 0.056078 0.692306
vt 0.068469 0.766493
vt 0.017324 0.781803
vt 0.067539 0.759429
vt 0.017324 0.759429
vt 0.087768 0.785791
vt 0.075454 0.837739
vt 0.081185 0.783065
vt 0.056078 0.826552
vt 0.114130 0.778728
vt 0.152961 0.815365
vt 0.108477 0.783065
vt 0.133585 0.826552
vt 0.264674 0.685239
vt 0.271799 0.685239
vt 0.271799 0.774256
vt 0.264674 0.774256
vt 0.243300 0.685239
vt 0.250424 0.685239
vt 0.250424 0.774256
vt 0.243300 0.774256
vt 0.314548 0.685239
vt 0.321673 0.685239
vt 0.321672 0.774256
vt 0.314548 0.774256
vt 0.207675 0.685239
vt 0.207675 0.774257
vt 0.236174 0.685239
vt 0.236175 0.774256
vt 0.257549 0.685239
vt 0.257549 0.774256
vt 0.328798 0.685239
vt 0.335923 0.685239
vt 0.335922 0.774256
vt 0.328797 0.774256
vt 0.214800 0.685239
vt 0.214800 0.774257
vt 0.343047 0.685239
vt 0.343047 0.774256
vt 0.350172 0.685239
vt 0.357297 0.685240
vt 0.357296 0.774256
vt 0.350172 0.774256
vt 0.221925 0.685239
vt 0.221925 0.774256
vt 0.229050 0.685239
vt 0.229050 0.774256
vt 0.278924 0.685239
vt 0.278924 0.774256
vt 0.293173 0.685239
vt 0.300298 0.685239
vt 0.300298 0.774256
vt 0.293173 0.774256
vt 0.286049 0.685239
vt 0.286048 0.774256
vt 0.307423 0.685239
vt 0.307423 0.774256
vt 0.186300 0.685239
vt 0.186301 0.774257
vt 0.281665 0.007062
vt 0.315864 0.007104
vt 0.384008 0.007113
vt 0.418115 0.007095
vt 0.588914 0.007209
vt 0.623006 0.007190
vt 0.040773 0.006020
vt 0.075715 0.006116
vt 0.144755 0.006602
vt 0.179009 0.006771
vt 0.349919 0.007125
vt 0.794520 0.006190
vt 0.829628 0.006478
vt 0.005620 0.006297
vt 0.759785 0.006357
vt 0.691000 0.006857
vt 0.725281 0.006705
vt 0.247395 0.006886
vt 0.554732 0.007217
vt 0.213202 0.006859
vt 0.520573 0.007228
vt 0.452260 0.007239
vt 0.486420 0.007234
vt 0.656949 0.007088
vt 0.110355 0.006361
vt 0.383536 0.738787
vt 0.378498 0.733749
vt 0.381399 0.731523
vt 0.389707 0.742349
vt 0.374936 0.727579
vt 0.373092 0.720697
vt 0.384840 0.728883
vt 0.396588 0.744193
vt 0.373092 0.713572
vt 0.389325 0.725442
vt 0.403713 0.744193
vt 0.374936 0.706690
vt 0.395196 0.720936
vt 0.410595 0.742349
vt 0.378498 0.700520
vt 0.400151 0.717135
vt 0.416765 0.738787
vt 0.383536 0.695482
vt 0.405105 0.713333
vt 0.421803 0.733749
vt 0.389707 0.691920
vt 0.410977 0.708827
vt 0.425366 0.727579
vt 0.396588 0.690076
vt 0.415461 0.705386
vt 0.427210 0.720697
vt 0.403713 0.690076
vt 0.418902 0.702746
vt 0.427210 0.713572
vt 0.410595 0.691920
vt 0.421803 0.700520
vt 0.425366 0.706690
vt 0.416765 0.695482
vt 0.186900 0.846716
vt 0.309250 0.844407
vt 0.310673 0.854102
vt 0.187151 0.856989
vt 0.312662 0.863906
vt 0.187426 0.867259
vt 0.186782 0.785024
vt 0.312055 0.786414
vt 0.310220 0.796248
vt 0.186668 0.795296
vt 0.308949 0.805964
vt 0.186578 0.805573
vt 0.308223 0.815600
vt 0.186527 0.815855
vt 0.308032 0.825194
vt 0.186527 0.826146
vt 0.399939 0.824474
vt 0.308373 0.834784
vt 0.186688 0.836435
s 1
f 1/1/1 2/2/2 8/3/3 7/4/4
f 2/2/2 3/5/5 9/6/6 8/3/3
f 3/5/5 4/7/7 10/8/8 9/6/6
f 4/7/7 5/9/9 11/10/10 10/8/8
f 5/9/9 6/11/11 12/12/12 11/10/10
f 6/11/11 20/13/13 26/14/14 12/12/12
f 7/4/4 8/3/3 14/15/15 13/16/16
f 8/3/3 9/6/6 15/17/17 14/15/15
f 9/6/6 10/8/8 16/18/18 15/17/17
f 10/8/8 11/10/10 17/19/19 16/18/18
f 11/10/10 12/12/12 18/20/20 17/19/19
f 12/12/12 26/14/14 32/21/21 18/20/20
f 13/16/16 14/15/15 275/22/22 288/23/23
f 14/15/15 15/17/17 274/24/24 275/22/22
f 15/17/17 16/18/18 287/25/25 274/24/24
f 16/18/18 17/19/19 286/26/26 287/25/25
f 17/19/19 18/20/20 19/27/27 286/26/26
f 18/20/20 32/21/21 273/28/28 19/27/27
f 20/13/13 21/29/29 27/30/30 26/14/14
f 21/29/29 22/31/31 28/32/32 27/30/30
f 22/31/31 23/33/33 29/34/34 28/32/32
f 23/33/33 24/35/35 30/36/36 29/34/34
f 24/35/35 25/37/37 31/38/38 30/36/36
f 25/37/37 40/39/39 46/40/40 31/38/38
f 26/14/14 27/30/30 33/41/41 32/21/21
f 27/30/30 28/32/32 34/42/42 33/41/41
f 28/32/32 29/34/34 35/43/43 34/42/42
f 29/34/34 30/36/36 36/44/44 35/43/43
f 30/36/36 31/38/38 37/45/45 36/44/44
f 31/38/38 46/40/40 52/46/46 37/45/45
f 32/21/21 33/41/41 285/47/47 273/28/28
f 33/41/41 34/42/42 284/48/48 285/47/47
f 34/42/42 35/43/43 279/49/49 284/48/48
f 35/43/43 36/44/44 38/50/50 279/49/49
f 36/44/44 37/45/45 39/51/51 38/50/50
f 37/45/45 52/46/46 58/52/52 39/51/51
f 40/39/39 41/53/53 47/54/54 46/40/40
f 41/53/53 42/55/55 48/56/56 47/54/54
f 42/55/55 43/57/57 49/58/58 48/56/56
f 43/57/57 44/59/59 50/60/60 49/58/58
f 44/59/59 45/61/61 51/62/62 50/60/60
f 45/61/61 61/63/63 67/64/64 51/62/62
f 46/40/40 47/54/54 53/65/65 52/46/46
f 47/54/54 48/56/56 54/66/66 53/65/65
f 48/56/56 49/58/58 55/67/67 54/66/66
f 49/58/58 50/60/60 56/68/68 55/67/67
f 50/60/60 51/62/62 57/69/69 56/68/68
f 51/62/62 67/64/64 73/70/70 57/69/69
f 52/46/46 53/65/65 59/71/71 58/52/52
f 53/65/65 54/66/66 60/72/72 59/71/71
f 54/66/66 55/67/67 281/73/73 60/72/72
f 55/67/67 56/68/68 280/74/74 281/73/73
f 56/68/68 57/69/69 278/75/75 280/74/74
f 57/69/69 73/70/70 79/76/76 278/75/75
f 61/63/63 62/77/77 68/78/78 67/64/64
f 62/77/77 63/79/79 69/80/80 68/78/78
f 63/79/79 64/81/81 70/82/82 69/80/80
f 64/81/81 65/83/83 71/84/84 70/82/82
f 65/83/83 66/85/85 72/86/86 71/84/84
f 66/85/85 1/1/1 7/4/4 72/86/86
f 67/64/64 68/78/78 74/87/87 73/70/70
f 68/78/78 69/80/80 75/88/88 74/87/87
f 69/80/80 70/82/82 76/89/89 75/88/88
f 70/82/82 71/84/84 77/90/90 76/89/89
f 71/84/84 72/86/86 78/91/91 77/90/90
f 72/86/86 7/4/4 13/16/16 78/91/91
f 73/70/70 74/87/87 283/92/92 79/76/76
f 74/87/87 75/88/88 282/93/93 283/92/92
f 75/88/88 76/89/89 277/94/94 282/93/93
f 76/89/89 77/90/90 276/95/95 277/94/94
f 77/90/90 78/91/91 289/96/96 276/95/95
f 78/91/91 13/16/16 288/23/23 289/96/96
f 61/63/63 45/61/61 80/97/97 62/77/77
f 45/61/61 44/59/59 81/98/98 80/97/97
f 44/59/59 43/57/57 82/99/99 81/98/98
f 43/57/57 42/55/55 83/100/100 82/99/99
f 42/55/55 41/53/53 84/101/101 83/100/100
f 41/53/53 40/39/39 25/37/37 84/101/101
f 62/77/77 80/97/97 85/102/102 63/79/79
f 80/97/97 81/98/98 86/103/103 85/102/102
f 81/98/98 82/99/99 87/104/104 86/103/103
f 82/99/99 83/100/100 88/105/105 87/104/104
f 83/100/100 84/101/101 89/106/106 88/105/105
f 84/101/101 25/37/37 24/35/35 89/106/106
f 63/79/79 85/102/102 90/107/107 64/81/81
f 85/102/102 86/103/103 91/108/108 90/107/107
f 86/103/103 87/104/104 92/109/109 91/108/108
f 87/104/104 88/105/105 93/110/110 92/109/109
f 88/105/105 89/106/106 94/111/111 93/110/110
f 89/106/106 24/35/35 23/33/33 94/111/111
f 64/81/81 90/107/107 95/112/112 65/83/83
f 90/107/107 91/108/108 96/113/113 95/112/112
f 91/108/108 92/109/109 97/114/114 96/113/113
f 92/109/109 93/110/110 98/115/115 97/114/114
f 93/110/110 94/111/111 99/116/116 98/115/115
f 94/111/111 23/33/33 22/31/31 99/116/116
f 65/83/83 95/112/112 100/117/117 66/85/85
f 95/112/112 96/113/113 101/118/118 100/117/117
f 96/113/113 97/114/114 102/119/119 101/118/118
f 97/114/114 98/115/115 103/120/120 102/119/119
f 98/115/115 99/116/116 104/121/121 103/120/120
f 99/116/116 22/31/31 21/29/29 104/121/121
f 66/85/85 100/117/117 2/2/2 1/1/1
f 100/117/117 101/118/118 3/5/5 2/2/2
f 101/118/118 102/119/119 4/7/7 3/5/5
f 102/119/119 103/120/120 5/9/9 4/7/7
f 103/120/120 104/121/121 6/11/11 5/9/9
f 104/121/121 21/29/29 20/13/13 6/11/11
f 137/122/122 243/123/122 228/124/122 107/125/122
f 143/126/123 245/127/123 230/128/123 109/129/123
f 149/130/124 247/131/124 232/132/124 111/133/124
f 125/134/125 239/135/125 234/136/125 113/137/125
f 150/138/126 151/139/124 272/140/124 271/141/126
f 119/142/127 237/143/127 236/144/127 115/145/127
f 131/146/128 241/147/128 226/148/128 105/149/128
f 118/150/129 119/151/130 161/152/131 166/153/132
f 113/137/127 234/136/127 233/154/127 117/155/127
f 117/155/127 233/154/127 238/156/127 118/157/127
f 118/157/127 238/156/127 237/143/127 119/142/127
f 111/158/125 232/159/125 231/160/125 123/161/125
f 123/161/125 231/160/125 240/162/125 124/163/125
f 124/163/125 240/162/125 239/135/125 125/134/125
f 115/145/128 236/144/128 235/164/128 129/165/128
f 129/165/128 235/164/128 242/166/128 130/167/128
f 130/167/128 242/166/128 241/147/128 131/146/128
f 105/149/122 226/148/122 225/168/122 135/169/122
f 135/169/122 225/168/122 244/170/122 136/171/122
f 136/171/122 244/170/122 243/123/122 137/122/122
f 107/125/123 228/124/123 227/172/123 141/173/123
f 141/173/123 227/172/123 246/174/123 142/175/123
f 142/175/123 246/174/123 245/127/123 143/126/123
f 109/129/124 230/128/124 229/176/124 147/177/124
f 147/177/124 229/176/124 248/178/124 148/179/124
f 148/179/124 248/178/124 247/131/124 149/130/124
f 165/180/133 166/153/132 190/181/134 189/182/135
f 119/151/130 115/183/136 162/184/137 161/152/131
f 148/185/138 149/186/139 157/187/140 176/188/141
f 123/189/142 124/190/143 168/191/144 167/192/145
f 115/183/136 129/193/146 169/194/147 162/184/137
f 124/190/143 125/195/148 159/196/149 168/191/144
f 149/186/139 111/197/150 158/198/151 157/187/140
f 129/193/146 130/199/152 170/200/153 169/194/147
f 137/201/154 107/202/155 154/203/156 153/204/157
f 105/205/158 135/206/159 171/207/160 164/208/161
f 130/199/152 131/209/162 163/210/163 170/200/153
f 131/209/162 105/205/158 164/208/161 163/210/163
f 135/206/159 136/211/164 172/212/165 171/207/160
f 107/202/155 141/213/166 173/214/167 154/203/156
f 136/211/164 137/201/154 153/204/157 172/212/165
f 125/195/148 113/215/168 160/216/169 159/196/149
f 141/213/166 142/217/170 174/218/171 173/214/167
f 113/215/168 117/219/172 165/180/133 160/216/169
f 109/220/173 147/221/174 175/222/175 156/223/176
f 143/224/177 109/220/173 156/223/176 155/225/178
f 142/217/170 143/224/177 155/225/178 174/218/171
f 117/219/172 118/150/129 166/153/132 165/180/133
f 147/221/174 148/185/138 176/188/141 175/222/175
f 111/226/150 123/189/142 167/192/145 158/227/151
f 175/222/175 176/188/141 200/228/179 199/229/180
f 153/204/157 154/203/156 178/230/181 177/231/182
f 164/208/161 171/207/160 195/232/183 188/233/184
f 166/153/132 161/152/131 185/234/185 190/181/134
f 176/188/141 157/187/140 181/235/186 200/228/179
f 155/225/178 156/223/176 180/236/187 179/237/188
f 171/207/160 172/212/165 196/238/189 195/232/183
f 158/227/151 167/192/145 191/239/190 182/240/191
f 157/187/140 158/198/151 182/241/191 181/235/186
f 172/212/165 153/204/157 177/231/182 196/238/189
f 167/192/145 168/191/144 192/242/192 191/239/190
f 159/196/149 160/216/169 184/243/193 183/244/194
f 154/203/156 173/214/167 197/245/195 178/230/181
f 168/191/144 159/196/149 183/244/194 192/242/192
f 161/152/131 162/184/137 186/246/196 185/234/185
f 173/214/167 174/218/171 198/247/197 197/245/195
f 162/184/137 169/194/147 193/248/198 186/246/196
f 163/210/163 164/208/161 188/233/184 187/249/199
f 174/218/171 155/225/178 179/237/188 198/247/197
f 169/194/147 170/200/153 194/250/200 193/248/198
f 160/216/169 165/180/133 189/182/135 184/243/193
f 156/223/176 175/222/175 199/229/180 180/236/187
f 170/200/153 163/210/163 187/249/199 194/250/200
f 192/242/192 183/244/194 207/251/201 216/252/202
f 185/234/185 186/246/196 210/253/203 209/254/204
f 197/245/195 198/247/197 222/255/205 221/256/206
f 186/246/196 193/248/198 217/257/207 210/253/203
f 187/249/199 188/233/184 212/258/208 211/259/209
f 198/247/197 179/237/188 203/260/210 222/255/205
f 193/248/198 194/250/200 218/261/211 217/257/207
f 184/243/193 189/182/135 213/262/212 208/263/213
f 180/236/187 199/229/180 223/264/214 204/265/215
f 194/250/200 187/249/199 211/259/209 218/261/211
f 189/182/135 190/181/134 214/266/216 213/262/212
f 199/229/180 200/228/179 224/267/217 223/264/214
f 177/231/182 178/230/181 202/268/218 201/269/219
f 188/233/184 195/232/183 219/270/220 212/258/208
f 190/181/134 185/234/185 209/254/204 214/266/216
f 200/228/179 181/235/186 205/271/221 224/267/217
f 179/237/188 180/236/187 204/265/215 203/260/210
f 195/232/183 196/238/189 220/272/222 219/270/220
f 182/240/191 191/239/190 215/273/223 206/274/224
f 181/235/186 182/241/191 206/275/224 205/271/221
f 196/238/189 177/231/182 201/269/219 220/272/222
f 191/239/190 192/242/192 216/252/202 215/273/223
f 183/244/194 184/243/193 208/263/213 207/251/201
f 178/230/181 197/245/195 221/256/206 202/268/218
f 106/276/225 140/277/225 225/278/225 226/279/225
f 108/280/225 146/281/225 227/282/225 228/283/225
f 110/284/225 152/285/225 229/286/225 230/287/225
f 112/288/225 128/289/225 231/290/225 232/291/225
f 114/292/225 122/293/225 233/294/225 234/295/225
f 116/296/225 134/297/225 235/298/225 236/299/225
f 120/300/225 116/296/225 236/299/225 237/301/225
f 121/302/225 120/300/225 237/301/225 238/303/225
f 122/293/225 121/302/225 238/303/225 233/294/225
f 126/304/225 114/292/225 234/295/225 239/305/225
f 127/306/225 126/304/225 239/305/225 240/307/225
f 128/289/225 127/306/225 240/307/225 231/290/225
f 132/308/225 106/276/225 226/279/225 241/309/225
f 133/310/225 132/308/225 241/309/225 242/311/225
f 134/297/225 133/310/225 242/311/225 235/298/225
f 138/312/225 108/280/225 228/283/225 243/313/225
f 139/314/225 138/312/225 243/313/225 244/315/225
f 140/277/225 139/314/225 244/315/225 225/278/225
f 144/316/225 110/284/225 230/287/225 245/317/225
f 145/318/225 144/316/225 245/317/225 246/319/225
f 146/281/225 145/318/225 246/319/225 227/282/225
f 150/320/225 112/288/225 232/291/225 247/321/225
f 151/322/225 150/320/225 247/321/225 248/323/225
f 152/285/225 151/322/225 248/323/225 229/286/225
f 140/324/226 106/325/227 250/326/227 249/327/226
f 108/328/228 138/329/229 267/330/229 252/331/228
f 121/332/127 122/333/230 257/334/230 262/335/127
f 151/139/124 152/336/231 253/337/231 272/140/124
f 146/338/232 108/328/228 252/331/228 251/339/232
f 138/329/229 139/340/122 268/341/122 267/330/229
f 114/342/233 126/343/234 263/344/234 258/345/233
f 152/336/231 110/346/235 254/347/235 253/337/231
f 139/340/122 140/324/226 249/327/226 268/341/122
f 126/343/234 127/348/125 264/349/125 263/344/234
f 128/350/236 112/351/237 256/352/237 255/353/236
f 110/346/235 144/354/238 269/355/238 254/347/235
f 127/348/125 128/350/236 255/353/236 264/349/125
f 122/333/230 114/342/233 258/345/233 257/334/230
f 144/354/238 145/356/123 270/357/123 269/355/238
f 106/325/227 132/358/239 265/359/239 250/326/227
f 134/360/240 116/361/241 260/362/241 259/363/240
f 145/356/123 146/338/232 251/339/232 270/357/123
f 132/358/239 133/364/128 266/365/128 265/359/239
f 116/361/241 120/366/242 261/367/242 260/362/241
f 112/368/237 150/138/126 271/141/126 256/369/237
f 133/364/128 134/360/240 259/363/240 266/365/128
f 120/366/242 121/332/127 262/335/127 261/367/242
f 201/269/219 202/268/218 19/370/27 273/371/28
f 212/258/208 219/270/220 284/372/48 279/373/49
f 214/266/216 209/254/204 60/374/72 281/375/73
f 224/267/217 205/271/221 276/376/95 289/377/96
f 203/260/210 204/265/215 275/378/22 274/379/24
f 219/270/220 220/272/222 285/380/47 284/372/48
f 206/274/224 215/273/223 282/381/93 277/382/94
f 205/271/221 206/275/224 277/383/94 276/376/95
f 220/272/222 201/269/219 273/371/28 285/380/47
f 215/273/223 216/252/202 283/384/92 282/381/93
f 207/251/201 208/263/213 278/385/75 79/386/76
f 202/268/218 221/256/206 286/387/26 19/370/27
f 216/252/202 207/251/201 79/386/76 283/384/92
f 209/254/204 210/253/203 59/388/71 60/374/72
f 221/256/206 222/255/205 287/389/25 286/387/26
f 210/253/203 217/257/207 58/390/52 59/388/71
f 211/259/209 212/258/208 279/373/49 38/391/50
f 222/255/205 203/260/210 274/379/24 287/389/25
f 217/257/207 218/261/211 39/392/51 58/390/52
f 208/263/213 213/262/212 280/393/74 278/385/75
f 204/265/215 223/264/214 288/394/23 275/378/22
f 218/261/211 211/259/209 38/391/50 39/392/51
f 213/262/212 214/266/216 281/375/73 280/393/74
f 223/264/214 224/267/217 289/377/96 288/394/23
f 249/395/225 250/396/225 290/397/225 268/398/225
f 250/396/225 265/399/225 266/400/225 290/397/225
f 268/398/225 290/397/225 291/401/225 267/402/225
f 290/397/225 266/400/225 259/403/225 291/401/225
f 267/402/225 291/401/225 292/404/225 252/405/225
f 291/401/225 259/403/225 260/406/225 292/404/225
f 252/405/225 292/404/225 293/407/225 251/408/225
f 292/404/225 260/406/225 261/409/225 293/407/225
f 251/408/225 293/407/225 294/410/225 270/411/225
f 293/407/225 261/409/225 262/412/225 294/410/225
f 270/411/225 294/410/225 295/413/225 269/414/225
f 294/410/225 262/412/225 257/415/225 295/413/225
f 269/414/225 295/413/225 296/416/225 254/417/225
f 295/413/225 257/415/225 258/418/225 296/416/225
f 254/417/225 296/416/225 297/419/225 253/420/225
f 296/416/225 258/418/225 263/421/225 297/419/225
f 253/420/225 297/419/225 298/422/225 272/423/225
f 297/419/225 263/421/225 264/424/225 298/422/225
f 272/423/225 298/422/225 256/425/225 271/426/225
f 298/422/225 264/424/225 255/427/225 256/425/225
f 299/428/123 300/429/243 302/430/244 301/431/231
f 301/431/231 302/430/244 304/432/245 303/433/237
f 303/434/237 304/435/245 306/436/246 305/437/234
f 305/437/234 306/436/246 308/438/247 307/439/127
f 307/439/127 308/438/247 310/440/248 309/441/240
f 309/441/240 310/440/248 312/442/249 311/443/227
f 315/444/225 312/442/249 310/440/248
f 311/443/227 312/442/249 314/445/250 313/446/229
f 313/446/229 314/445/250 300/429/243 299/428/123
f 315/444/225 308/438/247 306/436/246
f 314/445/250 312/442/249 315/444/225
f 302/430/244 300/429/243 315/444/225
f 304/435/245 315/444/225 306/436/246
f 304/432/245 302/430/244 315/444/225
f 300/429/243 314/445/250 315/444/225
f 308/438/247 315/444/225 310/440/248
