# Blender 4.0.2
# www.blender.org
o letter_rack_02
v -0.153000 0.000000 -0.140000
v -0.190000 0.000000 -0.103000
v -0.190000 0.000000 -0.140000
v -0.190000 0.335000 -0.103000
v -0.153000 0.335000 -0.140000
v -0.190000 0.335000 -0.140000
v 0.153000 0.000000 -0.140000
v 0.190000 0.000000 -0.103000
v 0.190000 0.000000 -0.140000
v 0.190000 0.335000 -0.103000
v 0.153000 0.335000 -0.140000
v 0.190000 0.335000 -0.140000
v -0.153000 0.000000 -0.138000
v -0.188000 0.000000 -0.103000
v -0.188000 0.000000 -0.138000
v -0.188000 0.335000 -0.103000
v -0.153000 0.335000 -0.138000
v -0.188000 0.335000 -0.138000
v 0.153000 0.000000 -0.138000
v 0.188000 0.000000 -0.103000
v 0.188000 0.000000 -0.138000
v 0.188000 0.335000 -0.103000
v 0.153000 0.335000 -0.138000
v 0.188000 0.335000 -0.138000
v -0.188000 0.280871 0.140000
v 0.188000 0.280871 0.140000
v -0.188000 0.280871 -0.138000
v -0.188000 0.335000 -0.138000
v 0.188000 0.335000 -0.138000
v 0.188000 0.280871 -0.138000
v -0.188000 0.335000 -0.103212
v 0.188000 0.335000 -0.103212
v 0.188000 0.280871 -0.102541
v -0.188000 0.280871 -0.102541
v -0.188000 0.299374 0.120870
v -0.188000 0.288318 0.136158
v -0.188000 0.295448 0.129673
v 0.188000 0.299374 0.120870
v 0.188000 0.288318 0.136158
v 0.188000 0.295448 0.129673
v 0.188000 0.280871 0.119897
v -0.188000 0.280871 0.119897
v -0.188000 0.307936 -0.138000
v 0.188000 0.307936 -0.138000
v -0.188000 0.307936 -0.102877
v 0.188000 0.307936 -0.102877
v 0.188000 0.290123 0.120165
v -0.188000 0.290123 0.120165
v -0.186000 0.282871 0.138968
v 0.186000 0.282871 0.138968
v -0.186000 0.282871 -0.136000
v -0.186000 0.335000 -0.136000
v 0.186000 0.335000 -0.136000
v 0.186000 0.282871 -0.136000
v -0.186000 0.335000 -0.103212
v 0.186000 0.335000 -0.103212
v 0.186000 0.282871 -0.102541
v -0.186000 0.282871 -0.102541
v -0.186000 0.299374 0.120870
v -0.186000 0.288318 0.136158
v -0.186000 0.295448 0.129673
v 0.186000 0.299374 0.120870
v 0.186000 0.288318 0.136158
v 0.186000 0.295448 0.129673
v 0.186000 0.282871 0.119897
v -0.186000 0.282871 0.119897
v -0.186000 0.307936 -0.136000
v 0.186000 0.307936 -0.136000
v -0.186000 0.307936 -0.102877
v 0.186000 0.307936 -0.102877
v 0.186000 0.290123 0.120165
v -0.186000 0.290123 0.120165
v -0.188000 0.210585 0.140000
v 0.188000 0.210585 0.140000
v -0.188000 0.210585 -0.138000
v -0.188000 0.264714 -0.138000
v 0.188000 0.264714 -0.138000
v 0.188000 0.210585 -0.138000
v -0.188000 0.264714 -0.103212
v 0.188000 0.264714 -0.103212
v 0.188000 0.210585 -0.102541
v -0.188000 0.210585 -0.102541
v -0.188000 0.229088 0.120870
v -0.188000 0.218032 0.136158
v -0.188000 0.225162 0.129673
v 0.188000 0.229088 0.120870
v 0.188000 0.218032 0.136158
v 0.188000 0.225162 0.129673
v 0.188000 0.210585 0.119897
v -0.188000 0.210585 0.119897
v -0.188000 0.237649 -0.138000
v 0.188000 0.237649 -0.138000
v -0.188000 0.237649 -0.102877
v 0.188000 0.237649 -0.102877
v 0.188000 0.219836 0.120165
v -0.188000 0.219836 0.120165
v -0.186000 0.212585 0.138968
v 0.186000 0.212585 0.138968
v -0.186000 0.212585 -0.136000
v -0.186000 0.264714 -0.136000
v 0.186000 0.264714 -0.136000
v 0.186000 0.212585 -0.136000
v -0.186000 0.264714 -0.103212
v 0.186000 0.264714 -0.103212
v 0.186000 0.212585 -0.102541
v -0.186000 0.212585 -0.102541
v -0.186000 0.229088 0.120870
v -0.186000 0.218032 0.136158
v -0.186000 0.225162 0.129673
v 0.186000 0.229088 0.120870
v 0.186000 0.218032 0.136158
v 0.186000 0.225162 0.129673
v 0.186000 0.212585 0.119897
v -0.186000 0.212585 0.119897
v -0.186000 0.237649 -0.136000
v 0.186000 0.237649 -0.136000
v -0.186000 0.237649 -0.102877
v 0.186000 0.237649 -0.102877
v 0.186000 0.219836 0.120165
v -0.186000 0.219836 0.120165
v -0.188000 0.140299 0.140000
v 0.188000 0.140299 0.140000
v -0.188000 0.140299 -0.138000
v -0.188000 0.194427 -0.138000
v 0.188000 0.194427 -0.138000
v 0.188000 0.140299 -0.138000
v -0.188000 0.194427 -0.103212
v 0.188000 0.194427 -0.103212
v 0.188000 0.140299 -0.102541
v -0.188000 0.140299 -0.102541
v -0.188000 0.158802 0.120870
v -0.188000 0.147746 0.136158
v -0.188000 0.154876 0.129673
v 0.188000 0.158802 0.120870
v 0.188000 0.147746 0.136158
v 0.188000 0.154876 0.129673
v 0.188000 0.140299 0.119897
v -0.188000 0.140299 0.119897
v -0.188000 0.167363 -0.138000
v 0.188000 0.167363 -0.138000
v -0.188000 0.167363 -0.102877
v 0.188000 0.167363 -0.102877
v 0.188000 0.149550 0.120165
v -0.188000 0.149550 0.120165
v -0.186000 0.142299 0.138968
v 0.186000 0.142299 0.138968
v -0.186000 0.142299 -0.136000
v -0.186000 0.194427 -0.136000
v 0.186000 0.194427 -0.136000
v 0.186000 0.142299 -0.136000
v -0.186000 0.194427 -0.103212
v 0.186000 0.194427 -0.103212
v 0.186000 0.142299 -0.102541
v -0.186000 0.142299 -0.102541
v -0.186000 0.158802 0.120870
v -0.186000 0.147746 0.136158
v -0.186000 0.154876 0.129673
v 0.186000 0.158802 0.120870
v 0.186000 0.147746 0.136158
v 0.186000 0.154876 0.129673
v 0.186000 0.142299 0.119897
v -0.186000 0.142299 0.119897
v -0.186000 0.167363 -0.136000
v 0.186000 0.167363 -0.136000
v -0.186000 0.167363 -0.102877
v 0.186000 0.167363 -0.102877
v 0.186000 0.149550 0.120165
v -0.186000 0.149550 0.120165
v -0.188000 0.070012 0.140000
v 0.188000 0.070012 0.140000
v -0.188000 0.070012 -0.138000
v -0.188000 0.124141 -0.138000
v 0.188000 0.124141 -0.138000
v 0.188000 0.070012 -0.138000
v -0.188000 0.124141 -0.103212
v 0.188000 0.124141 -0.103212
v 0.188000 0.070012 -0.102541
v -0.188000 0.070012 -0.102541
v -0.188000 0.088515 0.120870
v -0.188000 0.077459 0.136158
v -0.188000 0.084590 0.129673
v 0.188000 0.088515 0.120870
v 0.188000 0.077459 0.136158
v 0.188000 0.084590 0.129673
v 0.188000 0.070012 0.119897
v -0.188000 0.070012 0.119897
v -0.188000 0.097077 -0.138000
v 0.188000 0.097077 -0.138000
v -0.188000 0.097077 -0.102877
v 0.188000 0.097077 -0.102877
v 0.188000 0.079264 0.120165
v -0.188000 0.079264 0.120165
v -0.186000 0.072012 0.138968
v 0.186000 0.072012 0.138968
v -0.186000 0.072012 -0.136000
v -0.186000 0.124141 -0.136000
v 0.186000 0.124141 -0.136000
v 0.186000 0.072012 -0.136000
v -0.186000 0.124141 -0.103212
v 0.186000 0.124141 -0.103212
v 0.186000 0.072012 -0.102541
v -0.186000 0.072012 -0.102541
v -0.186000 0.088515 0.120870
v -0.186000 0.077459 0.136158
v -0.186000 0.084590 0.129673
v 0.186000 0.088515 0.120870
v 0.186000 0.077459 0.136158
v 0.186000 0.084590 0.129673
v 0.186000 0.072012 0.119897
v -0.186000 0.072012 0.119897
v -0.186000 0.097077 -0.136000
v 0.186000 0.097077 -0.136000
v -0.186000 0.097077 -0.102877
v 0.186000 0.097077 -0.102877
v 0.186000 0.079264 0.120165
v -0.186000 0.079264 0.120165
v -0.188000 0.000000 0.140000
v 0.188000 0.000000 0.140000
v -0.188000 0.000000 -0.138000
v -0.188000 0.054129 -0.138000
v 0.188000 0.054129 -0.138000
v 0.188000 0.000000 -0.138000
v -0.188000 0.054129 -0.103212
v 0.188000 0.054129 -0.103212
v 0.188000 0.000000 -0.102541
v -0.188000 0.000000 -0.102541
v -0.188000 0.018503 0.120870
v -0.188000 0.007447 0.136158
v -0.188000 0.014577 0.129673
v 0.188000 0.018503 0.120870
v 0.188000 0.007447 0.136158
v 0.188000 0.014577 0.129673
v 0.188000 0.000000 0.119897
v -0.188000 0.000000 0.119897
v -0.188000 0.027064 -0.138000
v 0.188000 0.027064 -0.138000
v -0.188000 0.027064 -0.102877
v 0.188000 0.027064 -0.102877
v 0.188000 0.009252 0.120165
v -0.188000 0.009252 0.120165
v -0.186000 0.002000 0.138968
v 0.186000 0.002000 0.138968
v -0.186000 0.002000 -0.136000
v -0.186000 0.054129 -0.136000
v 0.186000 0.054129 -0.136000
v 0.186000 0.002000 -0.136000
v -0.186000 0.054129 -0.103212
v 0.186000 0.054129 -0.103212
v 0.186000 0.002000 -0.102541
v -0.186000 0.002000 -0.102541
v -0.186000 0.018503 0.120870
v -0.186000 0.007447 0.136158
v -0.186000 0.014577 0.129673
v 0.186000 0.018503 0.120870
v 0.186000 0.007447 0.136158
v 0.186000 0.014577 0.129673
v 0.186000 0.002000 0.119897
v -0.186000 0.002000 0.119897
v -0.186000 0.027064 -0.136000
v 0.186000 0.027064 -0.136000
v -0.186000 0.027064 -0.102877
v 0.186000 0.027064 -0.102877
v 0.186000 0.009252 0.120165
v -0.186000 0.009252 0.120165
vn -0.0000 -0.0000 -1.0000
vn -1.0000 -0.0000 -0.0000
vn 1.0000 -0.0000 -0.0000
vn -0.0000 -1.0000 -0.0000
vn -0.0000 1.0000 -0.0000
vn -0.0000 -0.0000 1.0000
vn -0.0000 0.4585 0.8887
vn -0.0000 0.9969 0.0788
vn -0.0000 0.5705 0.8213
vn -0.0000 0.8103 0.5860
vn -0.0000 0.9586 0.2846
vt 0.718015 0.334878
vt 0.744553 0.334878
vt 0.744553 0.575157
vt 0.718015 0.575157
vt 0.691477 0.334878
vt 0.691477 0.575157
vt 0.985338 0.751956
vt 0.745065 0.751956
vt 0.745065 0.725418
vt 0.985338 0.725418
vt 0.745065 0.698881
vt 0.985338 0.698881
vt 0.707411 0.004883
vt 0.707411 0.006316
vt 0.682325 0.006316
vt 0.680891 0.004883
vt 0.331489 0.031457
vt 0.332925 0.030020
vt 0.358065 0.030020
vt 0.358065 0.031457
vt 0.685612 0.584881
vt 0.710715 0.584881
vt 0.710717 0.825153
vt 0.685614 0.825153
vt 0.735818 0.584880
vt 0.735820 0.825153
vt 0.745063 0.813956
vt 0.745063 0.812522
vt 0.985335 0.812519
vt 0.985335 0.813956
vt 0.331489 0.004881
vt 0.332925 0.004881
vt 0.745062 0.787418
vt 0.985335 0.787416
vt 0.682325 0.031403
vt 0.680891 0.031403
vt 0.745062 0.762315
vt 0.985335 0.762313
vt 0.985335 0.760879
vt 0.745062 0.760879
vt 0.935271 0.031455
vt 0.908695 0.031455
vt 0.910131 0.030019
vt 0.935271 0.030019
vt 0.684177 0.825153
vt 0.684178 0.584881
vt 0.367304 0.041403
vt 0.340783 0.041403
vt 0.340783 0.039970
vt 0.365871 0.039970
vt 0.908695 0.004880
vt 0.910131 0.004880
vt 0.367304 0.014883
vt 0.365871 0.014883
vt 0.737255 0.584880
vt 0.737255 0.825153
vt 0.552032 0.928292
vt 0.282354 0.928292
vt 0.282354 0.908881
vt 0.552032 0.908881
vt 0.332801 0.726072
vt 0.332801 0.700880
vt 0.352212 0.700880
vt 0.352212 0.725831
vt 0.024296 0.726072
vt 0.024296 0.700880
vt 0.043708 0.700880
vt 0.043708 0.726312
vt 0.313389 0.700880
vt 0.313389 0.726312
vt 0.043708 0.885853
vt 0.313389 0.885853
vt 0.320025 0.886045
vt 0.326661 0.886551
vt 0.037073 0.886045
vt 0.030437 0.886551
vt 0.004885 0.725831
vt 0.043708 0.900271
vt 0.313389 0.900272
vt 0.318731 0.897516
vt 0.323845 0.892865
vt 0.038367 0.897516
vt 0.033253 0.892864
vt 0.004885 0.700880
vt 0.552032 0.947704
vt 0.282354 0.947704
vt 0.640637 0.464075
vt 0.640637 0.483487
vt 0.373825 0.483487
vt 0.373825 0.464076
vt 0.658614 0.422340
vt 0.678026 0.422581
vt 0.678026 0.446098
vt 0.658614 0.446098
vt 0.355848 0.422341
vt 0.373825 0.422100
vt 0.373825 0.446098
vt 0.355848 0.446098
vt 0.640637 0.422100
vt 0.640637 0.446098
vt 0.373825 0.262559
vt 0.640637 0.262559
vt 0.645838 0.262367
vt 0.652474 0.261861
vt 0.368623 0.262367
vt 0.336436 0.422581
vt 0.361988 0.261861
vt 0.373825 0.248880
vt 0.640637 0.248880
vt 0.644544 0.250896
vt 0.649658 0.255547
vt 0.369918 0.250895
vt 0.364804 0.255547
vt 0.336436 0.446098
vt 0.753973 0.335573
vt 0.753973 0.604949
vt 0.752361 0.603516
vt 0.752360 0.337006
vt 0.274663 0.958316
vt 0.005589 0.958316
vt 0.007021 0.956885
vt 0.273234 0.956887
vt 0.212575 0.978319
vt 0.187667 0.978319
vt 0.187667 0.976887
vt 0.211143 0.976887
vt 0.994584 0.882394
vt 0.994585 0.907375
vt 0.993148 0.905938
vt 0.993148 0.882394
vt 0.011577 0.978319
vt 0.005583 0.978319
vt 0.007193 0.976888
vt 0.011577 0.976888
vt 0.018472 0.978319
vt 0.018472 0.976888
vt 0.025367 0.978319
vt 0.025367 0.976888
vt 0.994585 0.699584
vt 0.994585 0.705607
vt 0.993147 0.705607
vt 0.993147 0.701202
vt 0.994585 0.719464
vt 0.993147 0.719464
vt 0.994585 0.712536
vt 0.993147 0.712536
vt 0.274539 0.928299
vt 0.004880 0.928299
vt 0.004880 0.908889
vt 0.274539 0.908889
vt 0.355764 0.875082
vt 0.355764 0.900274
vt 0.336352 0.900274
vt 0.336352 0.875323
vt 0.664268 0.875082
vt 0.664268 0.900274
vt 0.644856 0.900274
vt 0.644856 0.874841
vt 0.375175 0.900274
vt 0.375175 0.874841
vt 0.644856 0.715300
vt 0.375175 0.715300
vt 0.368540 0.715108
vt 0.361904 0.714603
vt 0.651492 0.715108
vt 0.658127 0.714603
vt 0.683680 0.875323
vt 0.644856 0.700882
vt 0.375175 0.700881
vt 0.369834 0.703637
vt 0.364720 0.708289
vt 0.650198 0.703637
vt 0.655312 0.708289
vt 0.683680 0.900274
vt 0.274539 0.947709
vt 0.004880 0.947709
vt 0.658470 0.220075
vt 0.658470 0.239487
vt 0.391660 0.239487
vt 0.391660 0.220076
vt 0.676447 0.178341
vt 0.695859 0.178582
vt 0.695859 0.202098
vt 0.676447 0.202098
vt 0.373682 0.178341
vt 0.391659 0.178100
vt 0.391659 0.202099
vt 0.373682 0.202099
vt 0.658470 0.178100
vt 0.658470 0.202098
vt 0.391659 0.018561
vt 0.658470 0.018560
vt 0.663671 0.018368
vt 0.670307 0.017862
vt 0.386458 0.018369
vt 0.354271 0.178582
vt 0.379822 0.017863
vt 0.391659 0.004882
vt 0.658470 0.004882
vt 0.662377 0.006897
vt 0.667491 0.011549
vt 0.387752 0.006897
vt 0.382638 0.011549
vt 0.354271 0.202099
vt 0.829195 0.952497
vt 0.559819 0.952497
vt 0.561251 0.950884
vt 0.827761 0.950884
vt 0.772475 0.339585
vt 0.772475 0.609174
vt 0.771041 0.607740
vt 0.771044 0.341017
vt 0.858218 0.972317
vt 0.833310 0.972317
vt 0.833310 0.970885
vt 0.856786 0.970885
vt 0.245868 0.978319
vt 0.220977 0.978319
vt 0.222408 0.976888
vt 0.245868 0.976888
vt 0.657222 0.972317
vt 0.651228 0.972317
vt 0.652838 0.970886
vt 0.657222 0.970886
vt 0.664117 0.972317
vt 0.664117 0.970886
vt 0.671011 0.972317
vt 0.671011 0.970886
vt 0.428019 0.978319
vt 0.422018 0.978319
vt 0.422018 0.976887
vt 0.426407 0.976887
vt 0.408212 0.978319
vt 0.408212 0.976887
vt 0.415115 0.978319
vt 0.415115 0.976887
vt 0.691498 0.854299
vt 0.961171 0.854298
vt 0.961171 0.873709
vt 0.691498 0.873709
vt 0.664249 0.518079
vt 0.664249 0.492888
vt 0.683660 0.492888
vt 0.683660 0.517838
vt 0.355754 0.518079
vt 0.355754 0.492888
vt 0.375165 0.492888
vt 0.375165 0.518320
vt 0.644838 0.492888
vt 0.644838 0.518320
vt 0.375165 0.677856
vt 0.644838 0.677856
vt 0.651473 0.678048
vt 0.658109 0.678553
vt 0.368530 0.678048
vt 0.361894 0.678553
vt 0.336343 0.517838
vt 0.375165 0.692274
vt 0.644838 0.692274
vt 0.650179 0.689519
vt 0.655293 0.684867
vt 0.369824 0.689519
vt 0.364710 0.684867
vt 0.336343 0.492888
vt 0.691498 0.834888
vt 0.961171 0.834887
vt 0.042267 0.268300
vt 0.042267 0.248888
vt 0.309074 0.248888
vt 0.309074 0.268299
vt 0.024290 0.310033
vt 0.004879 0.309793
vt 0.004879 0.286276
vt 0.024290 0.286276
vt 0.327051 0.310033
vt 0.309074 0.310274
vt 0.309074 0.286276
vt 0.327051 0.286276
vt 0.042267 0.310274
vt 0.042267 0.286276
vt 0.309074 0.469812
vt 0.042267 0.469812
vt 0.037066 0.470004
vt 0.030431 0.470510
vt 0.314276 0.470004
vt 0.346462 0.309792
vt 0.320911 0.470510
vt 0.309074 0.483490
vt 0.042267 0.483490
vt 0.038360 0.481475
vt 0.033246 0.476823
vt 0.312981 0.481475
vt 0.318095 0.476824
vt 0.346462 0.286276
vt 0.829367 0.932496
vt 0.559996 0.932496
vt 0.561429 0.930884
vt 0.827934 0.930883
vt 0.829562 0.962315
vt 0.559461 0.962315
vt 0.560898 0.960878
vt 0.828128 0.960881
vt 0.428149 0.968316
vt 0.403241 0.968316
vt 0.403241 0.966884
vt 0.426717 0.966884
vt 0.781715 0.524394
vt 0.781715 0.549374
vt 0.780279 0.547938
vt 0.780279 0.524394
vt 0.227151 0.968316
vt 0.221157 0.968316
vt 0.222767 0.966885
vt 0.227151 0.966885
vt 0.234046 0.968316
vt 0.234046 0.966885
vt 0.240941 0.968316
vt 0.240941 0.966885
vt 0.781715 0.341589
vt 0.781715 0.347612
vt 0.780278 0.347612
vt 0.780278 0.343206
vt 0.781715 0.361467
vt 0.780278 0.361467
vt 0.781715 0.354540
vt 0.780278 0.354540
vt 0.691491 0.902299
vt 0.961170 0.902299
vt 0.961170 0.921710
vt 0.691491 0.921710
vt 0.024293 0.667078
vt 0.024293 0.692269
vt 0.004882 0.692269
vt 0.004882 0.667319
vt 0.332788 0.667078
vt 0.332788 0.692269
vt 0.313377 0.692269
vt 0.313377 0.666837
vt 0.043704 0.692269
vt 0.043704 0.666838
vt 0.313377 0.507301
vt 0.043704 0.507301
vt 0.037068 0.507110
vt 0.030433 0.506604
vt 0.320012 0.507110
vt 0.326648 0.506604
vt 0.352199 0.667319
vt 0.313377 0.492883
vt 0.043704 0.492883
vt 0.038363 0.495638
vt 0.033249 0.500290
vt 0.318718 0.495639
vt 0.323832 0.500290
vt 0.352199 0.692269
vt 0.691491 0.882888
vt 0.961170 0.882887
vt 0.918859 0.042266
vt 0.938270 0.042266
vt 0.938271 0.309079
vt 0.918859 0.309079
vt 0.877124 0.024289
vt 0.877365 0.004877
vt 0.900882 0.004877
vt 0.900882 0.024289
vt 0.877124 0.327057
vt 0.876884 0.309079
vt 0.900882 0.309079
vt 0.900882 0.327057
vt 0.876883 0.042266
vt 0.900882 0.042266
vt 0.717342 0.309079
vt 0.717342 0.042267
vt 0.717150 0.037065
vt 0.716645 0.030430
vt 0.717150 0.314281
vt 0.877365 0.346468
vt 0.716645 0.320917
vt 0.703663 0.309079
vt 0.703664 0.042267
vt 0.705679 0.038360
vt 0.710331 0.033246
vt 0.705679 0.312986
vt 0.710331 0.318101
vt 0.900882 0.346468
vt 0.994330 0.005576
vt 0.994330 0.274947
vt 0.992718 0.273514
vt 0.992717 0.007009
vt 0.763227 0.337582
vt 0.763227 0.607171
vt 0.761793 0.605736
vt 0.761796 0.339013
vt 0.212581 0.968316
vt 0.187673 0.968316
vt 0.187673 0.966884
vt 0.211149 0.966884
vt 0.770286 0.824322
vt 0.745352 0.824322
vt 0.746786 0.822888
vt 0.770286 0.822888
vt 0.011580 0.968316
vt 0.005586 0.968316
vt 0.007196 0.966885
vt 0.011580 0.966885
vt 0.018475 0.968316
vt 0.018475 0.966885
vt 0.025370 0.968316
vt 0.025370 0.966885
vt 0.952753 0.824322
vt 0.946741 0.824322
vt 0.946741 0.822887
vt 0.951138 0.822887
vt 0.932911 0.824322
vt 0.932911 0.822887
vt 0.939826 0.824322
vt 0.939826 0.822887
vt 0.965487 0.274561
vt 0.965487 0.004883
vt 0.984898 0.004883
vt 0.984898 0.274561
vt 0.967884 0.670800
vt 0.993076 0.670800
vt 0.993076 0.690211
vt 0.968125 0.690211
vt 0.967884 0.362295
vt 0.993076 0.362295
vt 0.993076 0.381707
vt 0.967643 0.381707
vt 0.993076 0.651388
vt 0.967643 0.651388
vt 0.808102 0.381707
vt 0.808102 0.651388
vt 0.807911 0.658024
vt 0.807405 0.664660
vt 0.807911 0.375071
vt 0.807405 0.368436
vt 0.968125 0.342884
vt 0.793684 0.381707
vt 0.793683 0.651388
vt 0.796439 0.656730
vt 0.801091 0.661844
vt 0.796439 0.376366
vt 0.801091 0.371252
vt 0.993076 0.342884
vt 0.946076 0.274561
vt 0.946075 0.004883
vt 0.309075 0.220075
vt 0.309075 0.239486
vt 0.042268 0.239486
vt 0.042268 0.220075
vt 0.327052 0.178341
vt 0.346464 0.178582
vt 0.346464 0.202098
vt 0.327052 0.202098
vt 0.024291 0.178341
vt 0.042268 0.178100
vt 0.042268 0.202098
vt 0.024291 0.202098
vt 0.309075 0.178100
vt 0.309075 0.202098
vt 0.042268 0.018562
vt 0.309076 0.018562
vt 0.314277 0.018370
vt 0.320912 0.017865
vt 0.037067 0.018370
vt 0.004880 0.178582
vt 0.030431 0.017864
vt 0.042268 0.004883
vt 0.309076 0.004884
vt 0.312982 0.006899
vt 0.318096 0.011551
vt 0.038361 0.006899
vt 0.033247 0.011550
vt 0.004880 0.202098
vt 0.829374 0.942496
vt 0.560000 0.942496
vt 0.561433 0.940884
vt 0.827940 0.940883
vt 0.552128 0.958317
vt 0.283055 0.958317
vt 0.284486 0.956885
vt 0.550699 0.956888
vt 0.006319 0.371580
vt 0.006319 0.396489
vt 0.004886 0.396489
vt 0.004886 0.373013
vt 0.460346 0.972316
vt 0.435461 0.972316
vt 0.436892 0.970885
vt 0.460346 0.970885
vt 0.006319 0.572581
vt 0.006319 0.578575
vt 0.004888 0.576965
vt 0.004888 0.572581
vt 0.006319 0.565686
vt 0.004888 0.565686
vt 0.006319 0.558791
vt 0.004888 0.558791
vt 0.642456 0.972316
vt 0.636456 0.972316
vt 0.636456 0.970883
vt 0.640844 0.970883
vt 0.622653 0.972316
vt 0.622653 0.970883
vt 0.629554 0.972316
vt 0.629554 0.970883
s 0
f 6/1/1 5/2/1 1/3/1 3/4/1
f 4/5/2 6/1/2 3/4/2 2/6/2
f 10/7/3 8/8/3 9/9/3 12/10/3
f 12/10/1 9/9/1 7/11/1 11/12/1
f 1/13/4 13/14/4 15/15/4 3/16/4
f 6/17/5 18/18/5 17/19/5 5/20/5
f 22/21/2 24/22/2 21/23/2 20/24/2
f 24/22/6 23/25/6 19/26/6 21/23/6
f 5/27/3 17/28/3 13/29/3 1/30/3
f 4/31/5 16/32/5 18/18/5 6/17/5
f 18/33/6 15/34/6 13/29/6 17/28/6
f 3/16/4 15/15/4 14/35/4 2/36/4
f 16/37/3 14/38/3 15/34/3 18/33/3
f 2/39/6 14/38/6 16/37/6 4/40/6
f 10/41/5 12/42/5 24/43/5 22/44/5
f 8/45/6 10/46/6 22/21/6 20/24/6
f 9/47/4 8/48/4 20/49/4 21/50/4
f 12/42/5 11/51/5 23/52/5 24/43/5
f 7/53/4 9/47/4 21/50/4 19/54/4
f 11/55/2 7/56/2 19/26/2 23/25/2
s 1
f 44/57/1 43/58/1 28/59/1 29/60/1
f 46/61/3 44/62/3 29/63/3 32/64/3
f 45/65/2 43/66/2 27/67/2 34/68/2
f 34/68/4 27/67/4 30/69/4 33/70/4
f 42/71/4 34/68/4 33/70/4 41/72/4
f 47/73/3 46/61/3 32/64/3 38/74/3
f 48/75/2 35/76/2 31/77/2 45/65/2
f 25/78/4 42/71/4 41/72/4 26/79/4
f 39/80/3 47/73/3 38/74/3 40/81/3
f 36/82/2 37/83/2 35/76/2 48/75/2
f 42/71/2 48/75/2 45/65/2 34/68/2
f 41/72/3 33/70/3 46/61/3 47/73/3
f 31/77/2 28/84/2 43/66/2 45/65/2
f 33/70/3 30/69/3 44/62/3 46/61/3
f 30/85/1 27/86/1 43/58/1 44/57/1
f 26/79/3 41/72/3 47/73/3 39/80/3
f 25/78/2 36/82/2 48/75/2 42/71/2
f 68/87/6 53/88/6 52/89/6 67/90/6
f 70/91/2 56/92/2 53/93/2 68/94/2
f 69/95/3 58/96/3 51/97/3 67/98/3
f 58/96/5 57/99/5 54/100/5 51/97/5
f 66/101/5 65/102/5 57/99/5 58/96/5
f 71/103/2 62/104/2 56/92/2 70/91/2
f 72/105/3 69/95/3 55/106/3 59/107/3
f 49/108/5 50/109/5 65/102/5 66/101/5
f 63/110/2 64/111/2 62/104/2 71/103/2
f 60/112/3 72/105/3 59/107/3 61/113/3
f 66/101/3 58/96/3 69/95/3 72/105/3
f 65/102/2 71/103/2 70/91/2 57/99/2
f 55/106/3 69/95/3 67/98/3 52/114/3
f 57/99/2 70/91/2 68/94/2 54/100/2
f 54/100/6 68/87/6 67/90/6 51/97/6
f 50/109/2 63/110/2 71/103/2 65/102/2
f 49/108/3 66/101/3 72/105/3 60/112/3
f 25/115/7 26/116/7 50/117/7 49/118/7
f 29/119/5 28/120/5 52/121/5 53/122/5
f 28/123/5 31/124/8 55/125/8 52/126/5
f 32/127/8 29/128/5 53/129/5 56/130/8
f 36/131/9 25/132/7 49/133/7 60/134/9
f 37/135/10 36/131/9 60/134/9 61/136/10
f 35/137/11 37/135/10 61/136/10 59/138/11
f 31/124/8 35/137/11 59/138/11 55/125/8
f 26/139/7 39/140/9 63/141/9 50/142/7
f 38/143/11 32/127/8 56/130/8 62/144/11
f 40/145/10 38/143/11 62/144/11 64/146/10
f 39/140/9 40/145/10 64/146/10 63/141/9
f 92/147/1 91/148/1 76/149/1 77/150/1
f 94/151/3 92/152/3 77/153/3 80/154/3
f 93/155/2 91/156/2 75/157/2 82/158/2
f 82/158/4 75/157/4 78/159/4 81/160/4
f 90/161/4 82/158/4 81/160/4 89/162/4
f 95/163/3 94/151/3 80/154/3 86/164/3
f 96/165/2 83/166/2 79/167/2 93/155/2
f 73/168/4 90/161/4 89/162/4 74/169/4
f 87/170/3 95/163/3 86/164/3 88/171/3
f 84/172/2 85/173/2 83/166/2 96/165/2
f 90/161/2 96/165/2 93/155/2 82/158/2
f 89/162/3 81/160/3 94/151/3 95/163/3
f 79/167/2 76/174/2 91/156/2 93/155/2
f 81/160/3 78/159/3 92/152/3 94/151/3
f 78/175/1 75/176/1 91/148/1 92/147/1
f 74/169/3 89/162/3 95/163/3 87/170/3
f 73/168/2 84/172/2 96/165/2 90/161/2
f 116/177/6 101/178/6 100/179/6 115/180/6
f 118/181/2 104/182/2 101/183/2 116/184/2
f 117/185/3 106/186/3 99/187/3 115/188/3
f 106/186/5 105/189/5 102/190/5 99/187/5
f 114/191/5 113/192/5 105/189/5 106/186/5
f 119/193/2 110/194/2 104/182/2 118/181/2
f 120/195/3 117/185/3 103/196/3 107/197/3
f 97/198/5 98/199/5 113/192/5 114/191/5
f 111/200/2 112/201/2 110/194/2 119/193/2
f 108/202/3 120/195/3 107/197/3 109/203/3
f 114/191/3 106/186/3 117/185/3 120/195/3
f 113/192/2 119/193/2 118/181/2 105/189/2
f 103/196/3 117/185/3 115/188/3 100/204/3
f 105/189/2 118/181/2 116/184/2 102/190/2
f 102/190/6 116/177/6 115/180/6 99/187/6
f 98/199/2 111/200/2 119/193/2 113/192/2
f 97/198/3 114/191/3 120/195/3 108/202/3
f 73/205/7 74/206/7 98/207/7 97/208/7
f 77/209/5 76/210/5 100/211/5 101/212/5
f 76/213/5 79/214/8 103/215/8 100/216/5
f 80/217/8 77/218/5 101/219/5 104/220/8
f 84/221/9 73/222/7 97/223/7 108/224/9
f 85/225/10 84/221/9 108/224/9 109/226/10
f 83/227/11 85/225/10 109/226/10 107/228/11
f 79/214/8 83/227/11 107/228/11 103/215/8
f 74/229/7 87/230/9 111/231/9 98/232/7
f 86/233/11 80/217/8 104/220/8 110/234/11
f 88/235/10 86/233/11 110/234/11 112/236/10
f 87/230/9 88/235/10 112/236/10 111/231/9
f 140/237/1 139/238/1 124/239/1 125/240/1
f 142/241/3 140/242/3 125/243/3 128/244/3
f 141/245/2 139/246/2 123/247/2 130/248/2
f 130/248/4 123/247/4 126/249/4 129/250/4
f 138/251/4 130/248/4 129/250/4 137/252/4
f 143/253/3 142/241/3 128/244/3 134/254/3
f 144/255/2 131/256/2 127/257/2 141/245/2
f 121/258/4 138/251/4 137/252/4 122/259/4
f 135/260/3 143/253/3 134/254/3 136/261/3
f 132/262/2 133/263/2 131/256/2 144/255/2
f 138/251/2 144/255/2 141/245/2 130/248/2
f 137/252/3 129/250/3 142/241/3 143/253/3
f 127/257/2 124/264/2 139/246/2 141/245/2
f 129/250/3 126/249/3 140/242/3 142/241/3
f 126/265/1 123/266/1 139/238/1 140/237/1
f 122/259/3 137/252/3 143/253/3 135/260/3
f 121/258/2 132/262/2 144/255/2 138/251/2
f 164/267/6 149/268/6 148/269/6 163/270/6
f 166/271/2 152/272/2 149/273/2 164/274/2
f 165/275/3 154/276/3 147/277/3 163/278/3
f 154/276/5 153/279/5 150/280/5 147/277/5
f 162/281/5 161/282/5 153/279/5 154/276/5
f 167/283/2 158/284/2 152/272/2 166/271/2
f 168/285/3 165/275/3 151/286/3 155/287/3
f 145/288/5 146/289/5 161/282/5 162/281/5
f 159/290/2 160/291/2 158/284/2 167/283/2
f 156/292/3 168/285/3 155/287/3 157/293/3
f 162/281/3 154/276/3 165/275/3 168/285/3
f 161/282/2 167/283/2 166/271/2 153/279/2
f 151/286/3 165/275/3 163/278/3 148/294/3
f 153/279/2 166/271/2 164/274/2 150/280/2
f 150/280/6 164/267/6 163/270/6 147/277/6
f 146/289/2 159/290/2 167/283/2 161/282/2
f 145/288/3 162/281/3 168/285/3 156/292/3
f 121/295/7 122/296/7 146/297/7 145/298/7
f 125/299/5 124/300/5 148/301/5 149/302/5
f 124/303/5 127/304/8 151/305/8 148/306/5
f 128/307/8 125/308/5 149/309/5 152/310/8
f 132/311/9 121/312/7 145/313/7 156/314/9
f 133/315/10 132/311/9 156/314/9 157/316/10
f 131/317/11 133/315/10 157/316/10 155/318/11
f 127/304/8 131/317/11 155/318/11 151/305/8
f 122/319/7 135/320/9 159/321/9 146/322/7
f 134/323/11 128/307/8 152/310/8 158/324/11
f 136/325/10 134/323/11 158/324/11 160/326/10
f 135/320/9 136/325/10 160/326/10 159/321/9
f 188/327/1 187/328/1 172/329/1 173/330/1
f 190/331/3 188/332/3 173/333/3 176/334/3
f 189/335/2 187/336/2 171/337/2 178/338/2
f 178/338/4 171/337/4 174/339/4 177/340/4
f 186/341/4 178/338/4 177/340/4 185/342/4
f 191/343/3 190/331/3 176/334/3 182/344/3
f 192/345/2 179/346/2 175/347/2 189/335/2
f 169/348/4 186/341/4 185/342/4 170/349/4
f 183/350/3 191/343/3 182/344/3 184/351/3
f 180/352/2 181/353/2 179/346/2 192/345/2
f 186/341/2 192/345/2 189/335/2 178/338/2
f 185/342/3 177/340/3 190/331/3 191/343/3
f 175/347/2 172/354/2 187/336/2 189/335/2
f 177/340/3 174/339/3 188/332/3 190/331/3
f 174/355/1 171/356/1 187/328/1 188/327/1
f 170/349/3 185/342/3 191/343/3 183/350/3
f 169/348/2 180/352/2 192/345/2 186/341/2
f 212/357/6 197/358/6 196/359/6 211/360/6
f 214/361/2 200/362/2 197/363/2 212/364/2
f 213/365/3 202/366/3 195/367/3 211/368/3
f 202/366/5 201/369/5 198/370/5 195/367/5
f 210/371/5 209/372/5 201/369/5 202/366/5
f 215/373/2 206/374/2 200/362/2 214/361/2
f 216/375/3 213/365/3 199/376/3 203/377/3
f 193/378/5 194/379/5 209/372/5 210/371/5
f 207/380/2 208/381/2 206/374/2 215/373/2
f 204/382/3 216/375/3 203/377/3 205/383/3
f 210/371/3 202/366/3 213/365/3 216/375/3
f 209/372/2 215/373/2 214/361/2 201/369/2
f 199/376/3 213/365/3 211/368/3 196/384/3
f 201/369/2 214/361/2 212/364/2 198/370/2
f 198/370/6 212/357/6 211/360/6 195/367/6
f 194/379/2 207/380/2 215/373/2 209/372/2
f 193/378/3 210/371/3 216/375/3 204/382/3
f 169/385/7 170/386/7 194/387/7 193/388/7
f 173/389/5 172/390/5 196/391/5 197/392/5
f 172/393/5 175/394/8 199/395/8 196/396/5
f 176/397/8 173/398/5 197/399/5 200/400/8
f 180/401/9 169/402/7 193/403/7 204/404/9
f 181/405/10 180/401/9 204/404/9 205/406/10
f 179/407/11 181/405/10 205/406/10 203/408/11
f 175/394/8 179/407/11 203/408/11 199/395/8
f 170/409/7 183/410/9 207/411/9 194/412/7
f 182/413/11 176/397/8 200/400/8 206/414/11
f 184/415/10 182/413/11 206/414/11 208/416/10
f 183/410/9 184/415/10 208/416/10 207/411/9
f 236/417/1 235/418/1 220/419/1 221/420/1
f 238/421/3 236/422/3 221/423/3 224/424/3
f 237/425/2 235/426/2 219/427/2 226/428/2
f 226/428/4 219/427/4 222/429/4 225/430/4
f 234/431/4 226/428/4 225/430/4 233/432/4
f 239/433/3 238/421/3 224/424/3 230/434/3
f 240/435/2 227/436/2 223/437/2 237/425/2
f 217/438/4 234/431/4 233/432/4 218/439/4
f 231/440/3 239/433/3 230/434/3 232/441/3
f 228/442/2 229/443/2 227/436/2 240/435/2
f 234/431/2 240/435/2 237/425/2 226/428/2
f 233/432/3 225/430/3 238/421/3 239/433/3
f 223/437/2 220/444/2 235/426/2 237/425/2
f 225/430/3 222/429/3 236/422/3 238/421/3
f 222/445/1 219/446/1 235/418/1 236/417/1
f 218/439/3 233/432/3 239/433/3 231/440/3
f 217/438/2 228/442/2 240/435/2 234/431/2
f 260/447/6 245/448/6 244/449/6 259/450/6
f 262/451/2 248/452/2 245/453/2 260/454/2
f 261/455/3 250/456/3 243/457/3 259/458/3
f 250/456/5 249/459/5 246/460/5 243/457/5
f 258/461/5 257/462/5 249/459/5 250/456/5
f 263/463/2 254/464/2 248/452/2 262/451/2
f 264/465/3 261/455/3 247/466/3 251/467/3
f 241/468/5 242/469/5 257/462/5 258/461/5
f 255/470/2 256/471/2 254/464/2 263/463/2
f 252/472/3 264/465/3 251/467/3 253/473/3
f 258/461/3 250/456/3 261/455/3 264/465/3
f 257/462/2 263/463/2 262/451/2 249/459/2
f 247/466/3 261/455/3 259/458/3 244/474/3
f 249/459/2 262/451/2 260/454/2 246/460/2
f 246/460/6 260/447/6 259/450/6 243/457/6
f 242/469/2 255/470/2 263/463/2 257/462/2
f 241/468/3 258/461/3 264/465/3 252/472/3
f 217/475/7 218/476/7 242/477/7 241/478/7
f 221/479/5 220/480/5 244/481/5 245/482/5
f 220/483/5 223/484/8 247/485/8 244/486/5
f 224/487/8 221/488/5 245/489/5 248/490/8
f 228/491/9 217/492/7 241/493/7 252/494/9
f 229/495/10 228/491/9 252/494/9 253/496/10
f 227/497/11 229/495/10 253/496/10 251/498/11
f 223/484/8 227/497/11 251/498/11 247/485/8
f 218/499/7 231/500/9 255/501/9 242/502/7
f 230/503/11 224/487/8 248/490/8 254/504/11
f 232/505/10 230/503/11 254/504/11 256/506/10
f 231/500/9 232/505/10 256/506/10 255/501/9
