# Blender 4.0.2
# www.blender.org
o phone_handset_02
v 0.000000 0.104409 0.028542
v 0.000000 0.050910 0.013463
v 0.000000 0.087117 0.020012
v 0.000000 0.070112 0.015219
v 0.000000 0.110006 0.023613
v 0.000000 0.048711 0.006335
v 0.000000 0.048664 0.011502
v 0.000000 0.107348 0.028044
v 0.000000 0.050767 -0.000608
v 0.000000 0.111880 0.016618
v 0.000000 0.112552 -0.000914
v 0.000000 0.039318 -0.041353
v 0.000000 0.013425 -0.044582
v 0.000000 0.000000 -0.045316
v 0.000000 0.053163 -0.038588
v 0.000000 0.077470 -0.031739
v 0.000000 0.090603 -0.027046
v 0.000000 0.098435 -0.023311
v 0.000000 0.110116 -0.009570
v 0.000000 0.105622 -0.017040
v 0.000000 0.050370 -0.021868
v 0.000000 0.055804 -0.014357
v 0.000000 0.037520 -0.023189
v 0.000000 0.012452 -0.024456
v 0.000000 0.000000 -0.024620
v 0.000000 0.063835 -0.035638
v 0.000000 0.053961 -0.019002
v 0.000000 0.026449 -0.043303
v 0.000000 0.024857 -0.024021
v -0.010547 0.102371 0.027968
v -0.019563 0.096572 0.026334
v -0.025586 0.087893 0.023888
v -0.027700 0.077656 0.021002
v -0.025584 0.067420 0.018117
v -0.019558 0.058743 0.015671
v -0.010542 0.052945 0.014036
v -0.003290 0.086469 0.019830
v -0.006156 0.084626 0.019310
v -0.008071 0.081867 0.018533
v -0.008743 0.078613 0.017616
v -0.008070 0.075359 0.016699
v -0.006155 0.072601 0.015921
v -0.003289 0.070758 0.015402
v -0.012098 0.107672 0.022955
v -0.022427 0.101027 0.021082
v -0.029328 0.091084 0.018280
v -0.031751 0.079355 0.014974
v -0.029326 0.067627 0.011668
v -0.022422 0.057685 0.008865
v -0.012091 0.051043 0.006993
v -0.028075 0.089232 0.022938
v -0.030394 0.078003 0.019773
v -0.028073 0.066774 0.016608
v -0.021463 0.057256 0.013925
v -0.011572 0.050896 0.012132
v -0.011578 0.105113 0.027414
v -0.021468 0.098752 0.025621
v -0.029239 0.069626 0.004709
v -0.022356 0.059714 0.001915
v -0.012055 0.053091 0.000048
v -0.012062 0.109552 0.015962
v -0.022360 0.102927 0.014095
v -0.029241 0.093013 0.011301
v -0.031657 0.081320 0.008005
v -0.026471 0.096258 -0.005125
v -0.028821 0.085426 -0.007893
v -0.026939 0.075711 -0.010616
v -0.020468 0.067079 -0.014266
v -0.012394 0.063131 -0.017665
v -0.012860 0.072982 -0.023484
v -0.018764 0.075433 -0.020459
v -0.010053 0.089570 -0.025356
v -0.017569 0.088511 -0.021704
v -0.010878 0.110728 -0.001412
v -0.016256 0.096560 -0.019169
v -0.008823 0.097857 -0.022117
v -0.011552 0.068660 -0.026163
v -0.011058 0.060816 -0.020673
v -0.010680 0.076644 -0.029433
v -0.011804 0.052822 -0.036306
v -0.012333 0.052129 -0.031791
v -0.011733 0.051189 -0.026508
v -0.010286 0.050370 -0.021868
v -0.010028 0.056805 -0.014357
v -0.011600 0.037520 -0.023189
v -0.012898 0.037994 -0.028207
v -0.013144 0.038578 -0.034106
v -0.012274 0.039050 -0.038919
v -0.014480 0.012677 -0.030037
v -0.013590 0.012452 -0.024456
v -0.013910 0.012904 -0.036410
v -0.012786 0.013271 -0.041819
v -0.013885 0.000000 -0.024620
v -0.014726 0.000000 -0.030576
v -0.013954 0.000000 -0.036840
v -0.012990 0.000000 -0.042349
v -0.009539 0.108465 -0.010008
v -0.020148 0.105068 -0.002726
v -0.024281 0.079923 -0.016176
v -0.024556 0.087454 -0.015193
v -0.022176 0.096666 -0.013214
v -0.017218 0.103884 -0.010902
v -0.014141 0.101898 -0.016361
v -0.008525 0.104219 -0.016978
v -0.011906 0.060752 -0.028972
v -0.011321 0.063222 -0.033384
v -0.011262 0.057816 -0.023767
v -0.009791 0.054677 -0.019286
v -0.012747 0.024857 -0.024021
v -0.013712 0.025356 -0.029423
v -0.013548 0.025868 -0.035654
v -0.012534 0.026327 -0.040672
v 0.000000 0.096652 0.023803
v 0.000000 0.060001 0.013472
v -0.007197 0.095256 0.023409
v -0.013373 0.091283 0.022290
v -0.017500 0.085337 0.020614
v -0.018948 0.078324 0.018637
v -0.017498 0.071311 0.016661
v -0.013370 0.065367 0.014985
v -0.007193 0.061395 0.013865
v 0.000000 0.112151 0.007532
v 0.000000 0.113020 0.009681
v 0.000000 0.053417 -0.007119
v 0.000000 0.054940 -0.008616
v -0.011248 0.109979 0.006921
v -0.011761 0.110750 0.009042
v -0.020848 0.103829 0.005179
v -0.021806 0.104289 0.007221
v -0.027274 0.094600 0.002571
v -0.028516 0.094620 0.004496
v -0.029540 0.083678 -0.000511
v -0.030872 0.083215 0.001281
v -0.027307 0.072851 -0.003567
v -0.028514 0.071811 -0.001934
v -0.020879 0.063587 -0.006174
v -0.021801 0.062143 -0.004659
v -0.010357 0.057023 -0.008044
v -0.011755 0.055684 -0.006480
v 0.000000 0.087438 0.016068
v 0.000000 0.071897 0.011687
v -0.003007 0.086846 0.015901
v -0.005626 0.085162 0.015426
v -0.007376 0.082641 0.014716
v -0.007990 0.079667 0.013877
v -0.007375 0.076693 0.013039
v -0.005625 0.074173 0.012329
v -0.003005 0.072489 0.011854
v 0.000000 -0.102122 0.036061
v 0.000000 -0.052824 0.007306
v 0.000000 -0.109249 0.033337
v 0.000000 -0.051687 -0.000239
v 0.000000 -0.050721 0.004233
v 0.000000 -0.105832 0.036379
v 0.000000 -0.055590 -0.006734
v 0.000000 -0.112982 0.026743
v 0.000000 -0.118260 0.009159
v 0.000000 -0.040580 -0.042572
v 0.000000 -0.013425 -0.045105
v 0.000000 -0.054308 -0.040152
v 0.000000 -0.079307 -0.034018
v 0.000000 -0.105582 -0.023333
v 0.000000 -0.111736 -0.018184
v 0.000000 -0.118062 -0.000059
v 0.000000 -0.116801 -0.009471
v 0.000000 -0.047999 -0.022267
v 0.000000 -0.059777 -0.015442
v 0.000000 -0.037520 -0.023781
v 0.000000 -0.012452 -0.024456
v 0.000000 -0.026449 -0.044182
v 0.000000 -0.024857 -0.024021
v -0.010828 -0.100245 0.034967
v -0.020085 -0.094901 0.031850
v -0.026270 -0.086903 0.027185
v -0.028441 -0.077470 0.021683
v -0.026267 -0.068037 0.016181
v -0.020080 -0.060041 0.011516
v -0.010822 -0.054699 0.008400
v -0.012659 -0.107057 0.032059
v -0.023468 -0.100817 0.028419
v -0.030690 -0.091479 0.022973
v -0.033225 -0.080464 0.016548
v -0.030687 -0.069451 0.010124
v -0.023463 -0.060114 0.004677
v -0.012652 -0.053876 0.001038
v -0.029378 -0.088819 0.026456
v -0.031805 -0.078273 0.020305
v -0.029376 -0.067729 0.014154
v -0.022459 -0.058790 0.008940
v -0.012109 -0.052818 0.005456
v -0.012116 -0.103733 0.035155
v -0.022464 -0.097759 0.031671
v -0.030596 -0.073301 0.003598
v -0.023393 -0.063992 -0.001832
v -0.012615 -0.057773 -0.005460
v -0.012621 -0.110796 0.025468
v -0.023398 -0.104574 0.021840
v -0.030598 -0.095264 0.016409
v -0.033126 -0.084282 0.010004
v -0.027700 -0.102858 0.000620
v -0.030159 -0.092611 -0.005025
v -0.028189 -0.083484 -0.010331
v -0.021476 -0.075641 -0.014929
v -0.013222 -0.070149 -0.018399
v -0.013914 -0.079935 -0.022619
v -0.020362 -0.084666 -0.019578
v -0.009776 -0.104194 -0.021958
v -0.018384 -0.099358 -0.018207
v -0.011383 -0.116543 0.008176
v -0.017010 -0.106847 -0.013528
v -0.009232 -0.110837 -0.017125
v -0.011850 -0.075863 -0.024610
v -0.011958 -0.066898 -0.020692
v -0.011475 -0.078020 -0.031919
v -0.012263 -0.053462 -0.037901
v -0.012789 -0.051362 -0.032928
v -0.012314 -0.049604 -0.027361
v -0.010814 -0.048127 -0.022249
v -0.010493 -0.060792 -0.015179
v -0.011600 -0.037520 -0.023781
v -0.012908 -0.038032 -0.028605
v -0.013043 -0.039230 -0.034659
v -0.012273 -0.040264 -0.040153
v -0.014480 -0.012677 -0.030037
v -0.013590 -0.012452 -0.024456
v -0.013910 -0.012904 -0.036410
v -0.012786 -0.013271 -0.042341
v -0.009982 -0.116505 -0.000935
v -0.021083 -0.111153 0.005360
v -0.025674 -0.089194 -0.014258
v -0.025696 -0.096579 -0.011889
v -0.023205 -0.105392 -0.007467
v -0.018017 -0.112099 -0.003232
v -0.014797 -0.111519 -0.009284
v -0.008921 -0.115363 -0.009775
v -0.012234 -0.083399 -0.026030
v -0.011994 -0.066116 -0.035168
v -0.011908 -0.061105 -0.023755
v -0.010957 -0.088125 -0.028482
v -0.012747 -0.024857 -0.024021
v -0.013712 -0.025356 -0.029423
v -0.013548 -0.025868 -0.035654
v -0.012534 -0.026327 -0.041551
v 0.000000 -0.115233 0.018328
v 0.000000 -0.115550 0.020733
v 0.000000 -0.059577 -0.011917
v 0.000000 -0.061511 -0.013034
v -0.011771 -0.113194 0.017139
v -0.012308 -0.113418 0.019490
v -0.021816 -0.107420 0.013761
v -0.022819 -0.107350 0.015951
v -0.028541 -0.098754 0.008699
v -0.029841 -0.098270 0.010654
v -0.030912 -0.088499 0.002713
v -0.032306 -0.087560 0.004407
v -0.028575 -0.078332 -0.003222
v -0.029838 -0.076850 -0.001840
v -0.021848 -0.069631 -0.008292
v -0.022814 -0.067771 -0.007136
v -0.010838 -0.063472 -0.011908
v -0.012302 -0.061706 -0.010674
v 0.000000 -0.089638 -0.030322
v -0.013500 -0.088549 -0.023811
v 0.000000 -0.067207 -0.037338
v 0.000000 -0.056910 -0.018322
v 0.000000 -0.098085 -0.026939
v -0.010416 -0.096465 -0.025368
v -0.012340 -0.063673 -0.029594
v -0.010459 -0.057712 -0.018205
v 0.000000 -0.052080 0.000797
v 0.000000 -0.108154 0.033504
v -0.032364 -0.080114 0.017150
v -0.029892 -0.069385 0.010891
v -0.022855 -0.060290 0.005586
v -0.012324 -0.054213 0.002041
v -0.012331 -0.106018 0.032259
v -0.022860 -0.099940 0.028714
v -0.029895 -0.090843 0.023408
v 0.010547 0.102371 0.027968
v 0.019563 0.096572 0.026334
v 0.025586 0.087893 0.023888
v 0.027700 0.077656 0.021002
v 0.025584 0.067420 0.018117
v 0.019558 0.058743 0.015671
v 0.010542 0.052945 0.014036
v 0.003290 0.086469 0.019830
v 0.006156 0.084626 0.019310
v 0.008071 0.081867 0.018533
v 0.008743 0.078613 0.017616
v 0.008070 0.075359 0.016699
v 0.006155 0.072601 0.015921
v 0.003289 0.070758 0.015402
v 0.012098 0.107672 0.022955
v 0.022427 0.101027 0.021082
v 0.029328 0.091084 0.018280
v 0.031751 0.079355 0.014974
v 0.029326 0.067627 0.011668
v 0.022422 0.057685 0.008865
v 0.012091 0.051043 0.006993
v 0.028075 0.089232 0.022938
v 0.030394 0.078003 0.019773
v 0.028073 0.066774 0.016608
v 0.021463 0.057256 0.013925
v 0.011572 0.050896 0.012132
v 0.011578 0.105113 0.027414
v 0.021468 0.098752 0.025621
v 0.029239 0.069626 0.004709
v 0.022356 0.059714 0.001915
v 0.012055 0.053091 0.000048
v 0.012062 0.109552 0.015962
v 0.022360 0.102927 0.014095
v 0.029241 0.093013 0.011301
v 0.031657 0.081320 0.008005
v 0.026471 0.096258 -0.005125
v 0.028821 0.085426 -0.007893
v 0.026939 0.075711 -0.010616
v 0.020468 0.067079 -0.014266
v 0.012394 0.063131 -0.017665
v 0.012860 0.072982 -0.023484
v 0.018764 0.075433 -0.020459
v 0.010053 0.089570 -0.025356
v 0.017569 0.088511 -0.021704
v 0.010878 0.110728 -0.001412
v 0.016256 0.096560 -0.019169
v 0.008823 0.097857 -0.022117
v 0.011552 0.068660 -0.026163
v 0.011058 0.060816 -0.020673
v 0.010680 0.076644 -0.029433
v 0.011804 0.052822 -0.036306
v 0.012333 0.052129 -0.031791
v 0.011733 0.051189 -0.026508
v 0.010286 0.050370 -0.021868
v 0.010028 0.056805 -0.014357
v 0.011600 0.037520 -0.023189
v 0.012898 0.037994 -0.028207
v 0.013144 0.038578 -0.034106
v 0.012274 0.039050 -0.038919
v 0.014480 0.012677 -0.030037
v 0.013590 0.012452 -0.024456
v 0.013910 0.012904 -0.036410
v 0.012786 0.013271 -0.041819
v 0.013885 0.000000 -0.024620
v 0.014726 0.000000 -0.030576
v 0.013954 0.000000 -0.036840
v 0.012990 0.000000 -0.042349
v 0.009539 0.108465 -0.010008
v 0.020148 0.105068 -0.002726
v 0.024281 0.079923 -0.016176
v 0.024556 0.087454 -0.015193
v 0.022176 0.096666 -0.013214
v 0.017218 0.103884 -0.010902
v 0.014141 0.101898 -0.016361
v 0.008525 0.104219 -0.016978
v 0.011906 0.060752 -0.028972
v 0.011321 0.063222 -0.033384
v 0.011262 0.057816 -0.023767
v 0.009791 0.054677 -0.019286
v 0.012747 0.024857 -0.024021
v 0.013712 0.025356 -0.029423
v 0.013548 0.025868 -0.035654
v 0.012534 0.026327 -0.040672
v 0.007197 0.095256 0.023409
v 0.013373 0.091283 0.022290
v 0.017500 0.085337 0.020614
v 0.018948 0.078324 0.018637
v 0.017498 0.071311 0.016661
v 0.013370 0.065367 0.014985
v 0.007193 0.061395 0.013865
v 0.011248 0.109979 0.006921
v 0.011761 0.110750 0.009042
v 0.020848 0.103829 0.005179
v 0.021806 0.104289 0.007221
v 0.027274 0.094600 0.002571
v 0.028516 0.094620 0.004496
v 0.029540 0.083678 -0.000511
v 0.030872 0.083215 0.001281
v 0.027307 0.072851 -0.003567
v 0.028514 0.071811 -0.001934
v 0.020879 0.063587 -0.006174
v 0.021801 0.062143 -0.004659
v 0.010357 0.057023 -0.008044
v 0.011755 0.055684 -0.006480
v 0.003007 0.086846 0.015901
v 0.005626 0.085162 0.015426
v 0.007376 0.082641 0.014716
v 0.007990 0.079667 0.013877
v 0.007375 0.076693 0.013039
v 0.005625 0.074173 0.012329
v 0.003005 0.072489 0.011854
v 0.010828 -0.100245 0.034967
v 0.020085 -0.094901 0.031850
v 0.026270 -0.086903 0.027185
v 0.028441 -0.077470 0.021683
v 0.026267 -0.068037 0.016181
v 0.020080 -0.060041 0.011516
v 0.010822 -0.054699 0.008400
v 0.012659 -0.107057 0.032059
v 0.023468 -0.100817 0.028419
v 0.030690 -0.091479 0.022973
v 0.033225 -0.080464 0.016548
v 0.030687 -0.069451 0.010124
v 0.023463 -0.060114 0.004677
v 0.012652 -0.053876 0.001038
v 0.029378 -0.088819 0.026456
v 0.031805 -0.078273 0.020305
v 0.029376 -0.067729 0.014154
v 0.022459 -0.058790 0.008940
v 0.012109 -0.052818 0.005456
v 0.012116 -0.103733 0.035155
v 0.022464 -0.097759 0.031671
v 0.030596 -0.073301 0.003598
v 0.023393 -0.063992 -0.001832
v 0.012615 -0.057773 -0.005460
v 0.012621 -0.110796 0.025468
v 0.023398 -0.104574 0.021840
v 0.030598 -0.095264 0.016409
v 0.033126 -0.084282 0.010004
v 0.027700 -0.102858 0.000620
v 0.030159 -0.092611 -0.005025
v 0.028189 -0.083484 -0.010331
v 0.021476 -0.075641 -0.014929
v 0.013222 -0.070149 -0.018399
v 0.013914 -0.079935 -0.022619
v 0.020362 -0.084666 -0.019578
v 0.009776 -0.104194 -0.021958
v 0.018384 -0.099358 -0.018207
v 0.011383 -0.116543 0.008176
v 0.017010 -0.106847 -0.013528
v 0.009232 -0.110837 -0.017125
v 0.011850 -0.075863 -0.024610
v 0.011958 -0.066898 -0.020692
v 0.011475 -0.078020 -0.031919
v 0.012263 -0.053462 -0.037901
v 0.012789 -0.051362 -0.032928
v 0.012314 -0.049604 -0.027361
v 0.010814 -0.048127 -0.022249
v 0.010493 -0.060792 -0.015179
v 0.011600 -0.037520 -0.023781
v 0.012908 -0.038032 -0.028605
v 0.013043 -0.039230 -0.034659
v 0.012273 -0.040264 -0.040153
v 0.014480 -0.012677 -0.030037
v 0.013590 -0.012452 -0.024456
v 0.013910 -0.012904 -0.036410
v 0.012786 -0.013271 -0.042341
v 0.009982 -0.116505 -0.000935
v 0.021083 -0.111153 0.005360
v 0.025674 -0.089194 -0.014258
v 0.025696 -0.096579 -0.011889
v 0.023205 -0.105392 -0.007467
v 0.018017 -0.112099 -0.003232
v 0.014797 -0.111519 -0.009284
v 0.008921 -0.115363 -0.009775
v 0.012234 -0.083399 -0.026030
v 0.011994 -0.066116 -0.035168
v 0.011908 -0.061105 -0.023755
v 0.010957 -0.088125 -0.028482
v 0.012747 -0.024857 -0.024021
v 0.013712 -0.025356 -0.029423
v 0.013548 -0.025868 -0.035654
v 0.012534 -0.026327 -0.041551
v 0.011771 -0.113194 0.017139
v 0.012308 -0.113418 0.019490
v 0.021816 -0.107420 0.013761
v 0.022819 -0.107350 0.015951
v 0.028541 -0.098754 0.008699
v 0.029841 -0.098270 0.010654
v 0.030912 -0.088499 0.002713
v 0.032306 -0.087560 0.004407
v 0.028575 -0.078332 -0.003222
v 0.029838 -0.076850 -0.001840
v 0.021848 -0.069631 -0.008292
v 0.022814 -0.067771 -0.007136
v 0.010838 -0.063472 -0.011908
v 0.012302 -0.061706 -0.010674
v 0.013500 -0.088549 -0.023811
v 0.010416 -0.096465 -0.025368
v 0.012340 -0.063673 -0.029594
v 0.010459 -0.057712 -0.018205
v 0.032364 -0.080114 0.017150
v 0.029892 -0.069385 0.010891
v 0.022855 -0.060290 0.005586
v 0.012324 -0.054213 0.002041
v 0.012331 -0.106018 0.032259
v 0.022860 -0.099940 0.028714
v 0.029895 -0.090843 0.023408
v 0.000000 -0.092939 0.032520
v 0.000000 -0.060426 0.013555
v -0.007136 -0.091702 0.031799
v -0.013243 -0.088177 0.029743
v -0.017322 -0.082902 0.026667
v -0.018754 -0.076680 0.023038
v -0.017320 -0.070459 0.019409
v -0.013240 -0.065185 0.016332
v -0.007133 -0.061661 0.014276
v 0.007136 -0.091702 0.031799
v 0.013243 -0.088177 0.029743
v 0.017322 -0.082902 0.026667
v 0.018754 -0.076680 0.023038
v 0.017320 -0.070459 0.019409
v 0.013240 -0.065185 0.016332
v 0.007133 -0.061661 0.014276
v -0.008741 -0.094931 0.033993
v 0.000000 -0.096447 0.034877
v -0.016214 -0.090617 0.031477
v -0.021208 -0.084160 0.027711
v -0.022960 -0.076545 0.023269
v -0.021206 -0.068930 0.018827
v -0.016211 -0.062475 0.015062
v -0.008737 -0.058162 0.012546
v 0.000000 -0.056648 0.011662
v 0.016214 -0.090617 0.031477
v 0.008741 -0.094931 0.033993
v 0.021208 -0.084160 0.027711
v 0.022960 -0.076545 0.023269
v 0.021206 -0.068930 0.018827
v 0.016211 -0.062475 0.015062
v 0.008737 -0.058162 0.012546
v -0.008460 -0.091708 0.038163
v 0.000000 -0.093175 0.039018
v -0.015694 -0.087532 0.035727
v -0.020526 -0.081283 0.032082
v -0.022223 -0.073912 0.027783
v -0.020524 -0.066542 0.023484
v -0.015690 -0.060294 0.019839
v -0.008456 -0.056119 0.017404
v 0.000000 -0.054654 0.016549
v 0.015694 -0.087532 0.035727
v 0.008460 -0.091708 0.038163
v 0.020526 -0.081283 0.032082
v 0.022223 -0.073912 0.027783
v 0.020524 -0.066542 0.023484
v 0.015690 -0.060294 0.019839
v 0.008456 -0.056119 0.017404
v -0.007643 -0.090137 0.036936
v 0.000000 -0.091462 0.037708
v -0.014184 -0.086361 0.034734
v -0.018553 -0.080711 0.031439
v -0.020086 -0.074047 0.027552
v -0.018551 -0.067384 0.023665
v -0.014180 -0.061735 0.020370
v -0.007639 -0.057960 0.018168
v 0.000000 -0.056638 0.017395
v 0.014184 -0.086361 0.034734
v 0.007643 -0.090137 0.036936
v 0.018553 -0.080711 0.031439
v 0.020086 -0.074047 0.027552
v 0.018551 -0.067384 0.023665
v 0.014180 -0.061735 0.020370
v 0.007639 -0.057960 0.018168
v -0.000000 0.053237 0.014083
v -0.009625 0.100240 0.027332
v -0.017860 0.094943 0.025839
v -0.023361 0.087016 0.023605
v -0.025293 0.077666 0.020970
v -0.023359 0.068317 0.018334
v -0.017856 0.060391 0.016100
v -0.009620 0.055096 0.014607
v -0.000000 0.102100 0.027856
v 0.009625 0.100240 0.027332
v 0.017860 0.094943 0.025839
v 0.023361 0.087016 0.023605
v 0.025293 0.077666 0.020970
v 0.023359 0.068317 0.018334
v 0.017856 0.060391 0.016100
v 0.009620 0.055096 0.014607
v 0.013241 -0.076680 0.023038
v 0.007135 -0.076681 0.023037
v 0.000000 -0.076681 0.023037
v -0.007135 -0.076681 0.023037
v -0.013241 -0.076680 0.023038
v 0.005625 0.079667 0.013877
v 0.003006 0.079667 0.013877
v 0.000000 0.079667 0.013877
v -0.003006 0.079667 0.013877
v -0.005625 0.079667 0.013877
vn -0.3630 0.9294 0.0666
vn -0.0000 0.9979 0.0644
vn -0.0000 0.9945 -0.1051
vn -0.3415 0.9337 -0.1082
vn -0.3832 -0.8704 -0.3091
vn -0.3816 -0.8529 -0.3563
vn -0.0000 -0.9262 -0.3771
vn -0.0000 -0.9440 -0.3299
vn -0.0000 -0.5102 0.8600
vn -0.0000 -0.0253 0.9997
vn -0.0948 -0.0435 0.9945
vn 0.0993 -0.4913 0.8653
vn -0.1745 -0.0949 0.9801
vn 0.1825 -0.4377 0.8804
vn -0.2280 -0.1720 0.9583
vn 0.2384 -0.3571 0.9031
vn -0.2469 -0.2629 0.9327
vn 0.2580 -0.2621 0.9299
vn -0.2281 -0.3539 0.9071
vn 0.2384 -0.1671 0.9567
vn -0.1745 -0.4309 0.8854
vn 0.1824 -0.0865 0.9794
vn -0.0948 -0.4823 0.8708
vn 0.0993 -0.0329 0.9945
vn -0.0000 -0.5005 0.8657
vn -0.0000 -0.0140 0.9999
vn -0.7828 0.1679 0.5993
vn -0.9192 0.3388 0.2008
vn -0.9949 -0.0276 0.0975
vn -0.8472 -0.1442 0.5113
vn -0.9191 -0.3940 -0.0058
vn -0.7827 -0.4563 0.4233
vn -0.7034 -0.7047 -0.0933
vn -0.5990 -0.7208 0.3488
vn -0.3820 -0.9116 -0.1517
vn -0.3254 -0.8971 0.2989
vn -0.0000 -0.9850 -0.1724
vn -0.0000 -0.9596 0.2814
vn -0.0000 0.6713 0.7412
vn -0.0000 0.9300 0.3674
vn -0.3821 0.8566 0.3467
vn -0.3254 0.6089 0.7234
vn -0.7035 0.6495 0.2884
vn -0.5991 0.4324 0.6738
vn -0.5240 -0.8182 -0.2366
vn -0.6817 -0.6578 -0.3203
vn -0.6785 -0.5418 -0.4960
vn -0.7004 -0.5562 -0.4474
vn -0.9829 -0.1819 -0.0301
vn -0.5063 -0.8549 0.1131
vn -0.0000 -0.9983 -0.0577
vn -0.0000 -0.9893 0.1456
vn -0.6587 0.7396 -0.1383
vn -0.8731 0.4405 -0.2089
vn -0.9144 0.4047 -0.0107
vn -0.6905 0.7217 0.0485
vn -0.9955 0.0376 -0.0870
vn -0.9564 0.1058 -0.2721
vn -0.8858 -0.2752 -0.3737
vn -0.9150 -0.3516 -0.1980
vn -0.9981 0.0165 -0.0591
vn -0.9221 -0.3510 -0.1629
vn -0.9222 0.3842 0.0446
vn -0.7059 0.6959 0.1324
vn -0.3832 0.9037 0.1909
vn -0.0000 0.9773 0.2117
vn -0.7057 -0.6627 -0.2506
vn -0.9182 0.3962 -0.0043
vn -0.9938 0.0302 -0.1074
vn -0.9181 -0.3359 -0.2106
vn -0.7026 -0.6461 -0.2981
vn -0.5990 -0.1884 -0.7782
vn -0.7146 -0.1635 -0.6801
vn -0.5582 0.1449 -0.8170
vn -0.4229 0.2397 -0.8739
vn -0.0000 0.9868 0.1621
vn -0.3817 0.9134 0.1415
vn -0.5368 0.4406 -0.7196
vn -0.2608 0.4951 -0.8288
vn -0.9896 0.0032 -0.1439
vn -0.9764 0.0775 -0.2013
vn -0.9991 0.0430 0.0024
vn -0.9929 0.0753 -0.0917
vn -0.9899 0.0736 -0.1215
vn -0.9983 0.0582 -0.0074
vn -0.9881 -0.0421 0.1480
vn -0.9830 0.0343 0.1806
vn -0.9593 0.0228 0.2815
vn -0.9730 -0.1130 0.2013
vn -0.9883 0.0562 0.1416
vn -0.9669 0.0583 0.2484
vn -0.9972 0.0572 -0.0486
vn -0.9851 0.0605 -0.1612
vn -0.9795 0.0570 0.1931
vn -0.9956 0.0519 0.0781
vn -0.9989 0.0337 0.0322
vn -0.9866 0.0362 0.1591
vn -0.9939 0.0454 -0.1002
vn -0.9907 0.0291 -0.1329
vn -0.9806 0.0431 -0.1912
vn -0.9999 -0.0000 0.0152
vn -0.9889 -0.0000 0.1487
vn -0.9898 0.0008 -0.1426
vn -0.9809 0.0266 -0.1925
vn -0.9831 0.0014 -0.1832
vn -0.2044 0.1174 -0.9718
vn -0.0000 0.1198 -0.9928
vn -0.0000 0.0714 -0.9974
vn -0.2129 0.0695 -0.9746
vn -0.2171 0.0192 -0.9760
vn -0.0000 0.0195 -0.9998
vn -0.1967 0.1671 -0.9661
vn -0.1946 0.2237 -0.9550
vn -0.0000 0.2281 -0.9736
vn -0.0000 0.1706 -0.9853
vn -0.2051 0.2727 -0.9400
vn -0.0000 0.2785 -0.9604
vn -0.2097 0.2961 -0.9319
vn -0.0000 0.3551 -0.9348
vn -0.0000 0.3027 -0.9531
vn -0.0000 0.5277 -0.8494
vn -0.2322 0.7298 -0.6430
vn -0.2814 0.8778 -0.3878
vn -0.0000 0.9201 -0.3916
vn -0.0000 0.7580 -0.6523
vn -0.7028 0.7065 0.0832
vn -0.7639 -0.1076 -0.6363
vn -0.7815 0.1724 -0.5996
vn -0.7396 0.4474 -0.5028
vn -0.5659 0.7136 -0.4130
vn -0.4578 0.6465 -0.6104
vn -0.0000 -0.0500 0.9987
vn -0.0000 -0.0498 0.9988
vn -0.0000 -0.0832 0.9965
vn -0.0000 -0.0828 0.9966
vn -0.0000 -0.2256 0.9742
vn -0.0083 -0.2256 0.9742
vn -0.0619 -0.7819 0.6203
vn -0.0000 -0.7834 0.6215
vn -0.0000 -0.0000 1.0000
vn -0.0000 -0.0236 0.9997
vn -0.0000 -0.0238 0.9997
vn 0.0398 -0.1779 0.9832
vn 0.0907 -0.0542 0.9944
vn -0.0000 -0.0367 0.9993
vn -0.0000 -0.1703 0.9854
vn 0.0732 -0.1994 0.9772
vn 0.1665 -0.1034 0.9806
vn 0.0956 -0.2317 0.9681
vn 0.2176 -0.1769 0.9599
vn 0.1035 -0.2698 0.9573
vn 0.2355 -0.2636 0.9354
vn 0.0956 -0.3079 0.9466
vn 0.2176 -0.3504 0.9110
vn 0.0732 -0.3402 0.9375
vn 0.1666 -0.4239 0.8903
vn 0.0401 -0.3617 0.9314
vn 0.0908 -0.4731 0.8763
vn -0.0000 -0.3693 0.9293
vn -0.0000 -0.4906 0.8714
vn -0.3044 0.8703 -0.3873
vn -0.0000 0.9270 -0.3750
vn -0.5651 0.7073 -0.4248
vn -0.5650 0.7073 -0.4248
vn -0.7445 0.4575 -0.4862
vn -0.7444 0.4576 -0.4862
vn -0.8114 0.1590 -0.5624
vn -0.7505 -0.1413 -0.6456
vn -0.5618 -0.3866 -0.7313
vn -0.5619 -0.3866 -0.7313
vn -0.3213 -0.5778 -0.7502
vn -0.3214 -0.5778 -0.7502
vn -0.0000 -0.6894 -0.7244
vn 0.6941 -0.7199 -0.0046
vn 0.9070 -0.4132 0.0814
vn 0.9070 -0.4131 0.0814
vn 0.9817 -0.0515 0.1832
vn 0.9069 0.3101 0.2853
vn 0.9070 0.3099 0.2852
vn 0.6939 0.6165 0.3721
vn 0.6938 0.6166 0.3721
vn 0.3803 0.8190 0.4298
vn -0.0000 0.8924 0.4512
vn -0.0000 -0.9967 -0.0812
vn 0.3803 -0.9228 -0.0612
vn 0.3804 -0.9228 -0.0612
vn -0.3641 -0.8777 0.3116
vn -0.3443 -0.9275 0.1459
vn -0.0000 -0.9862 0.1653
vn -0.0000 -0.9446 0.3282
vn -0.3831 0.7628 -0.5209
vn -0.0000 0.8288 -0.5595
vn -0.0000 0.7926 -0.6098
vn -0.3809 0.7270 -0.5713
vn -0.5814 0.1837 0.7926
vn -0.6293 0.3916 0.6713
vn -0.5813 0.1836 0.7927
vn -0.5813 0.5996 0.5500
vn -0.5813 0.5997 0.5500
vn -0.4448 0.7759 0.4473
vn -0.4447 0.7760 0.4473
vn -0.2416 0.8932 0.3791
vn -0.2414 0.8933 0.3791
vn -0.0000 0.9348 0.3552
vn -0.0000 -0.1509 0.9885
vn -0.2418 -0.1096 0.9641
vn -0.2416 -0.1097 0.9642
vn -0.4449 0.0076 0.8955
vn -0.4448 0.0074 0.8956
vn -0.2586 0.2456 0.9342
vn -0.3380 0.3480 0.8744
vn -0.7491 0.0270 0.6619
vn -0.5734 -0.2003 0.7944
vn -0.1404 0.1774 0.9741
vn -0.3115 -0.3520 0.8827
vn -0.0000 0.1535 0.9881
vn -0.0000 -0.4056 0.9140
vn -0.1404 0.7605 0.6339
vn -0.0000 0.7846 0.6200
vn -0.0000 0.9953 0.0969
vn -0.3114 0.9416 0.1281
vn -0.2586 0.6924 0.6736
vn -0.5732 0.7902 0.2167
vn -0.3380 0.5899 0.7333
vn -0.7490 0.5630 0.3493
vn -0.3659 0.4689 0.8039
vn -0.8107 0.2950 0.5056
vn -0.7140 0.5708 -0.4054
vn -0.7129 0.4491 -0.5385
vn -0.6906 0.4231 -0.5866
vn -0.7017 0.5395 -0.4654
vn -0.9768 0.1945 0.0894
vn -0.9921 0.1226 -0.0280
vn -0.0000 0.7916 0.6111
vn -0.0000 0.7468 0.6651
vn -0.0587 0.7455 0.6640
vn -0.0705 0.7896 0.6095
vn -0.6625 -0.7462 0.0661
vn -0.6919 -0.6813 0.2389
vn -0.9155 -0.3896 0.1001
vn -0.8776 -0.4730 -0.0785
vn -0.9963 -0.0538 -0.0674
vn -0.9611 -0.1632 -0.2230
vn -0.9149 0.2881 -0.2829
vn -0.8878 0.1902 -0.4192
vn -0.9999 -0.0065 -0.0113
vn -0.9238 0.3241 -0.2041
vn -0.9219 0.2971 -0.2487
vn -0.9979 -0.0325 -0.0560
vn -0.9238 -0.3370 0.1815
vn -0.9220 -0.3623 0.1366
vn -0.7071 -0.6172 0.3450
vn -0.7057 -0.6418 0.3000
vn -0.3841 -0.8040 0.4539
vn -0.3833 -0.8282 0.4089
vn -0.0000 -0.8703 0.4925
vn -0.0000 -0.8943 0.4475
vn -0.3838 0.7910 -0.4765
vn -0.0000 0.8571 -0.5151
vn -0.7070 0.6042 -0.3675
vn -0.7055 0.5766 -0.4121
vn -0.9921 -0.0633 -0.1083
vn -0.9166 -0.3909 0.0836
vn -0.9164 0.2646 -0.3003
vn -0.7015 0.5420 -0.4628
vn -0.6723 0.1494 -0.7250
vn -0.6423 0.0717 -0.7631
vn -0.6642 -0.1246 -0.7371
vn -0.6218 -0.2944 -0.7257
vn -0.3810 -0.8539 0.3546
vn -0.0000 -0.9196 0.3930
vn -0.4016 -0.4527 -0.7961
vn -0.3522 -0.6971 -0.6245
vn -0.6054 -0.5856 -0.5391
vn -0.9906 0.0123 -0.1362
vn -0.9353 -0.0384 -0.3517
vn -0.9515 -0.0773 -0.2977
vn -0.4070 -0.3296 -0.8519
vn -0.9995 -0.0305 0.0040
vn -0.9996 -0.0279 -0.0071
vn -0.9954 -0.0364 -0.0884
vn -0.9976 -0.0497 -0.0488
vn -0.9914 0.0281 0.1276
vn -0.9742 0.0772 0.2119
vn -0.9657 0.0169 0.2591
vn -0.9873 -0.0027 0.1591
vn -0.9676 -0.0467 0.2480
vn -0.9906 -0.0431 0.1296
vn -0.9980 -0.0376 -0.0508
vn -0.9905 -0.0349 -0.1330
vn -0.9788 -0.0607 0.1955
vn -0.9866 -0.0362 0.1591
vn -0.9989 -0.0337 0.0322
vn -0.9956 -0.0544 0.0764
vn -0.9914 -0.0273 -0.1277
vn -0.9947 -0.0430 -0.0933
vn -0.9860 -0.0372 -0.1624
vn -0.9839 -0.0232 -0.1773
vn -0.2043 -0.0868 -0.9751
vn -0.2130 -0.0375 -0.9763
vn -0.0000 -0.0382 -0.9993
vn -0.0000 -0.0886 -0.9961
vn -0.1962 -0.1365 -0.9710
vn -0.0000 -0.1392 -0.9903
vn -0.0000 -0.1920 -0.9814
vn -0.1918 -0.1884 -0.9632
vn -0.1949 -0.2352 -0.9522
vn -0.0000 -0.2401 -0.9708
vn -0.2006 -0.2922 -0.9351
vn -0.0000 -0.2983 -0.9545
vn -0.0000 -0.3486 -0.9373
vn -0.2009 -0.3415 -0.9182
vn -0.0000 -0.5215 -0.8533
vn -0.0000 -0.7581 -0.6521
vn -0.3010 -0.8918 -0.3379
vn -0.0000 -0.9445 -0.3285
vn -0.0000 -0.9969 -0.0786
vn -0.3002 -0.9479 -0.1065
vn -0.7019 -0.6684 0.2460
vn -0.7630 -0.0353 -0.6454
vn -0.7806 -0.3119 -0.5417
vn -0.7396 -0.5591 -0.3746
vn -0.5792 -0.7882 -0.2078
vn -0.5398 -0.7587 -0.3646
vn -0.0000 0.0274 0.9996
vn -0.0000 0.0733 0.9973
vn -0.0000 0.0270 0.9996
vn -0.0055 0.2651 0.9642
vn -0.0000 0.2651 0.9642
vn -0.0225 0.4929 0.8698
vn -0.0000 0.4930 0.8700
vn -0.0000 0.0238 0.9997
vn -0.0000 0.0236 0.9997
vn -0.9961 -0.0439 -0.0764
vn -0.3045 -0.9395 -0.1568
vn -0.3043 -0.9396 -0.1568
vn -0.0000 -0.9914 -0.1308
vn -0.5651 -0.7912 -0.2340
vn -0.5650 -0.7912 -0.2340
vn -0.7445 -0.5648 -0.3560
vn -0.7444 -0.5649 -0.3560
vn -0.8114 -0.2949 -0.5046
vn -0.7505 -0.0250 -0.6604
vn -0.5619 0.1910 -0.8049
vn -0.3213 0.3714 -0.8711
vn -0.0000 0.4858 -0.8740
vn -0.0000 -0.3943 -0.9190
vn -0.9133 -0.2504 0.3212
vn -0.6991 -0.5275 0.4827
vn -0.3797 -0.7123 0.5903
vn -0.0000 -0.7779 0.6284
vn -0.0000 0.9299 -0.3677
vn -0.3796 0.8645 -0.3295
vn -0.6989 0.6800 -0.2216
vn -0.9132 0.4031 -0.0599
vn -0.9885 0.0764 0.1307
vn 0.3630 0.9294 0.0666
vn 0.3415 0.9337 -0.1082
vn 0.3833 -0.8704 -0.3090
vn 0.3816 -0.8529 -0.3563
vn -0.0993 -0.4913 0.8653
vn 0.0948 -0.0435 0.9945
vn -0.1824 -0.4377 0.8804
vn 0.1745 -0.0949 0.9801
vn -0.2384 -0.3571 0.9031
vn 0.2280 -0.1720 0.9583
vn -0.2580 -0.2621 0.9299
vn 0.2468 -0.2629 0.9327
vn -0.2384 -0.1671 0.9567
vn 0.2280 -0.3539 0.9071
vn -0.1824 -0.0865 0.9794
vn 0.1745 -0.4310 0.8853
vn -0.0992 -0.0329 0.9945
vn 0.0948 -0.4824 0.8708
vn 0.7828 0.1679 0.5993
vn 0.8472 -0.1442 0.5113
vn 0.9949 -0.0276 0.0975
vn 0.9192 0.3388 0.2008
vn 0.7827 -0.4563 0.4233
vn 0.9191 -0.3940 -0.0058
vn 0.5990 -0.7208 0.3488
vn 0.7034 -0.7047 -0.0933
vn 0.3247 -0.8973 0.2989
vn 0.3820 -0.9116 -0.1517
vn 0.3249 0.6091 0.7235
vn 0.3821 0.8566 0.3467
vn 0.5991 0.4324 0.6738
vn 0.7035 0.6495 0.2884
vn 0.5240 -0.8182 -0.2366
vn 0.7004 -0.5562 -0.4474
vn 0.6785 -0.5418 -0.4960
vn 0.6817 -0.6578 -0.3203
vn 0.5063 -0.8549 0.1131
vn 0.9829 -0.1819 -0.0301
vn 0.6587 0.7396 -0.1383
vn 0.6906 0.7216 0.0485
vn 0.9144 0.4046 -0.0108
vn 0.8731 0.4405 -0.2089
vn 0.9955 0.0377 -0.0870
vn 0.9564 0.1058 -0.2721
vn 0.9150 -0.3516 -0.1980
vn 0.8858 -0.2752 -0.3737
vn 0.9221 -0.3511 -0.1627
vn 0.9981 0.0165 -0.0591
vn 0.9222 0.3842 0.0444
vn 0.7059 0.6959 0.1324
vn 0.3833 0.9037 0.1910
vn 0.7057 -0.6627 -0.2506
vn 0.9938 0.0302 -0.1074
vn 0.9182 0.3962 -0.0043
vn 0.9181 -0.3359 -0.2106
vn 0.7026 -0.6461 -0.2981
vn 0.7146 -0.1635 -0.6801
vn 0.5990 -0.1884 -0.7782
vn 0.4229 0.2397 -0.8739
vn 0.5582 0.1449 -0.8170
vn 0.3815 0.9135 0.1415
vn 0.2608 0.4951 -0.8288
vn 0.5368 0.4406 -0.7196
vn 0.9896 0.0032 -0.1439
vn 0.9764 0.0775 -0.2013
vn 0.9991 0.0430 0.0024
vn 0.9983 0.0582 -0.0074
vn 0.9899 0.0736 -0.1215
vn 0.9930 0.0752 -0.0914
vn 0.9881 -0.0421 0.1480
vn 0.9730 -0.1130 0.2013
vn 0.9593 0.0228 0.2815
vn 0.9830 0.0343 0.1806
vn 0.9669 0.0583 0.2484
vn 0.9883 0.0562 0.1416
vn 0.9972 0.0572 -0.0486
vn 0.9851 0.0605 -0.1612
vn 0.9795 0.0570 0.1931
vn 0.9866 0.0362 0.1591
vn 0.9989 0.0337 0.0322
vn 0.9956 0.0519 0.0781
vn 0.9907 0.0291 -0.1329
vn 0.9939 0.0454 -0.1002
vn 0.9806 0.0431 -0.1912
vn 0.9889 -0.0000 0.1487
vn 0.9999 -0.0000 0.0152
vn 0.9898 0.0008 -0.1426
vn 0.9831 0.0014 -0.1832
vn 0.9809 0.0266 -0.1925
vn 0.2044 0.1174 -0.9718
vn 0.2129 0.0695 -0.9746
vn 0.2171 0.0192 -0.9760
vn 0.1967 0.1671 -0.9661
vn 0.1946 0.2237 -0.9550
vn 0.2051 0.2727 -0.9400
vn 0.2097 0.2961 -0.9319
vn 0.2322 0.7296 -0.6432
vn 0.2814 0.8778 -0.3878
vn 0.7028 0.7065 0.0832
vn 0.7639 -0.1076 -0.6363
vn 0.7815 0.1724 -0.5996
vn 0.7396 0.4474 -0.5028
vn 0.5659 0.7136 -0.4130
vn 0.4579 0.6464 -0.6103
vn 0.0083 -0.2256 0.9742
vn 0.0620 -0.7819 0.6203
vn -0.0398 -0.1779 0.9832
vn -0.0907 -0.0542 0.9944
vn -0.0732 -0.1994 0.9772
vn -0.1665 -0.1034 0.9806
vn -0.0956 -0.2317 0.9681
vn -0.2176 -0.1769 0.9599
vn -0.1035 -0.2698 0.9573
vn -0.2355 -0.2636 0.9354
vn -0.0956 -0.3079 0.9466
vn -0.2176 -0.3504 0.9110
vn -0.0732 -0.3402 0.9375
vn -0.1666 -0.4239 0.8903
vn -0.0398 -0.3618 0.9314
vn -0.0908 -0.4731 0.8763
vn 0.3044 0.8703 -0.3873
vn 0.5651 0.7073 -0.4248
vn 0.5650 0.7073 -0.4248
vn 0.7445 0.4576 -0.4862
vn 0.7444 0.4576 -0.4862
vn 0.8114 0.1591 -0.5624
vn 0.8114 0.1590 -0.5624
vn 0.7505 -0.1413 -0.6456
vn 0.5619 -0.3866 -0.7313
vn 0.3213 -0.5778 -0.7502
vn 0.3214 -0.5778 -0.7502
vn -0.6943 -0.7197 -0.0045
vn -0.6939 -0.7201 -0.0047
vn -0.9070 -0.4131 0.0814
vn -0.9070 -0.4132 0.0814
vn -0.9817 -0.0515 0.1832
vn -0.9070 0.3099 0.2852
vn -0.9069 0.3101 0.2853
vn -0.6942 0.6162 0.3720
vn -0.6939 0.6165 0.3721
vn -0.3803 0.8189 0.4298
vn -0.3804 -0.9228 -0.0612
vn 0.3641 -0.8777 0.3116
vn 0.3443 -0.9275 0.1459
vn 0.3831 0.7628 -0.5209
vn 0.3809 0.7270 -0.5713
vn 0.5814 0.1837 0.7926
vn 0.5813 0.1836 0.7927
vn 0.6293 0.3916 0.6713
vn 0.5813 0.5997 0.5500
vn 0.5813 0.5996 0.5500
vn 0.4447 0.7760 0.4473
vn 0.4448 0.7759 0.4473
vn 0.2414 0.8933 0.3791
vn 0.2412 0.8934 0.3790
vn 0.2414 -0.1097 0.9642
vn 0.2413 -0.1098 0.9642
vn 0.4448 0.0074 0.8956
vn 0.4449 0.0076 0.8955
vn 0.2586 0.2456 0.9342
vn 0.5734 -0.2003 0.7944
vn 0.7491 0.0270 0.6619
vn 0.3380 0.3480 0.8744
vn 0.1404 0.1774 0.9741
vn 0.3115 -0.3519 0.8827
vn 0.1404 0.7605 0.6339
vn 0.3114 0.9416 0.1281
vn 0.2586 0.6924 0.6736
vn 0.5732 0.7902 0.2167
vn 0.3380 0.5899 0.7333
vn 0.7490 0.5630 0.3493
vn 0.3659 0.4689 0.8039
vn 0.8107 0.2950 0.5056
vn 0.7140 0.5708 -0.4054
vn 0.7017 0.5395 -0.4654
vn 0.6906 0.4231 -0.5866
vn 0.7129 0.4491 -0.5385
vn 0.9921 0.1226 -0.0280
vn 0.9768 0.1945 0.0894
vn 0.0705 0.7896 0.6095
vn 0.0587 0.7455 0.6640
vn 0.6625 -0.7462 0.0662
vn 0.8776 -0.4730 -0.0785
vn 0.9155 -0.3896 0.1001
vn 0.6918 -0.6814 0.2389
vn 0.9963 -0.0538 -0.0674
vn 0.9611 -0.1632 -0.2230
vn 0.8878 0.1902 -0.4192
vn 0.9149 0.2880 -0.2828
vn 0.9999 -0.0065 -0.0113
vn 0.9979 -0.0325 -0.0560
vn 0.9219 0.2971 -0.2487
vn 0.9238 0.3241 -0.2041
vn 0.9238 -0.3370 0.1815
vn 0.9220 -0.3623 0.1366
vn 0.7071 -0.6172 0.3450
vn 0.7057 -0.6418 0.3000
vn 0.3840 -0.8041 0.4539
vn 0.3833 -0.8282 0.4089
vn 0.3838 0.7910 -0.4765
vn 0.7070 0.6042 -0.3675
vn 0.7055 0.5766 -0.4121
vn 0.9166 -0.3909 0.0836
vn 0.9921 -0.0633 -0.1083
vn 0.9164 0.2647 -0.3004
vn 0.7015 0.5420 -0.4628
vn 0.6423 0.0717 -0.7631
vn 0.6723 0.1494 -0.7250
vn 0.6218 -0.2944 -0.7257
vn 0.6642 -0.1246 -0.7371
vn 0.3811 -0.8538 0.3546
vn 0.6054 -0.5856 -0.5391
vn 0.3522 -0.6971 -0.6245
vn 0.4016 -0.4527 -0.7961
vn 0.9906 0.0123 -0.1362
vn 0.4070 -0.3296 -0.8519
vn 0.9515 -0.0773 -0.2977
vn 0.9353 -0.0384 -0.3517
vn 0.9995 -0.0305 0.0040
vn 0.9976 -0.0497 -0.0488
vn 0.9954 -0.0364 -0.0884
vn 0.9996 -0.0279 -0.0071
vn 0.9914 0.0281 0.1276
vn 0.9872 -0.0027 0.1592
vn 0.9657 0.0169 0.2591
vn 0.9742 0.0772 0.2119
vn 0.9906 -0.0431 0.1296
vn 0.9676 -0.0467 0.2480
vn 0.9980 -0.0375 -0.0508
vn 0.9905 -0.0350 -0.1330
vn 0.9787 -0.0608 0.1959
vn 0.9956 -0.0544 0.0764
vn 0.9989 -0.0337 0.0322
vn 0.9866 -0.0362 0.1591
vn 0.9947 -0.0430 -0.0933
vn 0.9914 -0.0273 -0.1277
vn 0.9860 -0.0372 -0.1624
vn 0.9839 -0.0232 -0.1773
vn 0.2043 -0.0867 -0.9751
vn 0.2130 -0.0375 -0.9763
vn 0.1962 -0.1365 -0.9710
vn 0.1918 -0.1884 -0.9632
vn 0.1949 -0.2352 -0.9522
vn 0.2006 -0.2922 -0.9351
vn 0.2009 -0.3414 -0.9182
vn 0.3010 -0.8918 -0.3379
vn 0.3002 -0.9479 -0.1065
vn 0.7016 -0.6687 0.2462
vn 0.7630 -0.0353 -0.6454
vn 0.7805 -0.3119 -0.5417
vn 0.7396 -0.5591 -0.3746
vn 0.5792 -0.7882 -0.2078
vn 0.5398 -0.7587 -0.3646
vn 0.0055 0.2651 0.9642
vn 0.0225 0.4929 0.8698
vn 0.9961 -0.0439 -0.0764
vn 0.3044 -0.9395 -0.1568
vn 0.3044 -0.9396 -0.1568
vn 0.5650 -0.7912 -0.2340
vn 0.5651 -0.7912 -0.2340
vn 0.7445 -0.5648 -0.3560
vn 0.7444 -0.5649 -0.3560
vn 0.8114 -0.2948 -0.5046
vn 0.8114 -0.2949 -0.5046
vn 0.7505 -0.0250 -0.6604
vn 0.5619 0.1910 -0.8049
vn 0.3213 0.3714 -0.8711
vn 0.6991 -0.5275 0.4827
vn 0.9133 -0.2504 0.3212
vn 0.3795 -0.7124 0.5903
vn 0.3796 0.8645 -0.3295
vn 0.6989 0.6800 -0.2216
vn 0.9132 0.4031 -0.0599
vn 0.9885 0.0764 0.1307
vn -0.0000 0.7515 0.6597
vn 0.1217 0.7308 0.6717
vn -0.2245 0.6716 0.7061
vn -0.1217 0.7308 0.6717
vn 0.2245 0.2840 0.9322
vn 0.1218 0.2250 0.9667
vn -0.0000 0.2043 0.9789
vn -0.1218 0.2250 0.9667
vn 0.2935 0.3728 0.8803
vn -0.2245 0.2840 0.9322
vn 0.3177 0.4778 0.8190
vn -0.2935 0.3728 0.8803
vn 0.2934 0.5827 0.7578
vn -0.3177 0.4778 0.8190
vn 0.2245 0.6716 0.7061
vn -0.2934 0.5827 0.7578
vn -0.0001 0.5038 0.8638
vn 0.3723 -0.6479 0.6646
vn -0.0000 -0.7119 0.7023
vn 0.9148 0.3978 -0.0703
vn 0.7000 0.6754 -0.2320
vn 0.7001 0.6753 -0.2320
vn 0.9148 0.3978 -0.0702
vn 0.6851 -0.4672 0.5588
vn 0.6850 -0.4673 0.5589
vn 0.9902 0.0705 0.1206
vn 0.8952 -0.1958 0.4003
vn 0.8952 -0.1959 0.4004
vn 0.9148 -0.2568 0.3116
vn 0.9149 -0.2568 0.3116
vn 0.9690 0.1244 0.2135
vn 0.7002 -0.5343 0.4736
vn 0.7003 -0.5342 0.4735
vn 0.8953 0.4447 0.0267
vn 0.8952 0.4448 0.0267
vn 0.3805 -0.7191 0.5815
vn 0.3806 -0.7190 0.5815
vn 0.6853 0.7163 -0.1315
vn 0.6852 0.7164 -0.1315
vn -0.0000 0.9259 -0.3778
vn -0.3805 0.8602 -0.3397
vn -0.3804 0.8602 -0.3397
vn -0.3722 -0.6479 0.6646
vn 0.3725 0.8973 -0.2367
vn -0.7000 0.6754 -0.2320
vn -0.7001 0.6753 -0.2320
vn -0.3724 0.8974 -0.2367
vn -0.0000 0.9618 -0.2739
vn -0.0000 0.6074 0.7944
vn 0.0478 0.5992 0.7992
vn 0.0477 0.5992 0.7992
vn 0.0880 0.5759 0.8128
vn 0.0879 0.5759 0.8128
vn 0.1148 0.5410 0.8331
vn 0.1243 0.4999 0.8571
vn 0.1148 0.4589 0.8811
vn 0.0879 0.4240 0.9014
vn 0.0478 0.4007 0.9150
vn 0.0477 0.4007 0.9150
vn -0.0000 0.3925 0.9198
vn -0.0880 0.5759 0.8128
vn -0.0478 0.5992 0.7992
vn -0.0477 0.5992 0.7992
vn -0.0879 0.5759 0.8128
vn -0.1148 0.5410 0.8331
vn -0.1243 0.4999 0.8571
vn -0.1148 0.4589 0.8811
vn -0.0879 0.4240 0.9014
vn -0.0478 0.4007 0.9150
vn -0.0477 0.4007 0.9150
vn 0.3805 0.8602 -0.3397
vn 0.3804 0.8602 -0.3397
vn -0.6853 0.7163 -0.1315
vn -0.6852 0.7164 -0.1315
vn -0.3805 -0.7191 0.5815
vn -0.0000 -0.7846 0.6200
vn -0.3805 -0.7190 0.5815
vn -0.8953 0.4447 0.0267
vn -0.8952 0.4448 0.0267
vn -0.7002 -0.5343 0.4736
vn -0.7003 -0.5342 0.4735
vn -0.9690 0.1244 0.2135
vn -0.9148 -0.2568 0.3116
vn -0.9149 -0.2568 0.3116
vn -0.8952 -0.1958 0.4003
vn -0.8952 -0.1959 0.4004
vn -0.9902 0.0705 0.1206
vn -0.6851 -0.4672 0.5588
vn -0.6850 -0.4673 0.5589
vn -0.9148 0.3978 -0.0703
vn -0.9148 0.3978 -0.0702
vn -0.0000 -0.2713 0.9625
vn 0.0001 0.5038 0.8638
vn -0.0000 0.5038 0.8638
vt 0.587763 0.011269
vt 0.638323 0.004917
vt 0.638323 0.039615
vt 0.595716 0.045487
vt 0.915008 0.736614
vt 0.943931 0.736614
vt 0.943931 0.784440
vt 0.915008 0.784440
vt 0.150989 0.866574
vt 0.145457 0.874835
vt 0.114131 0.843353
vt 0.122375 0.837860
vt 0.097095 0.801979
vt 0.106818 0.800050
vt 0.097149 0.757317
vt 0.106865 0.759237
vt 0.114165 0.716021
vt 0.122423 0.721506
vt 0.145722 0.684282
vt 0.151268 0.692525
vt 0.187113 0.666991
vt 0.189083 0.676752
vt 0.232082 0.666890
vt 0.230147 0.676672
vt 0.273303 0.683931
vt 0.267744 0.692233
vt 0.863957 0.540724
vt 0.885217 0.540724
vt 0.885217 0.589549
vt 0.863957 0.589549
vt 0.885217 0.638302
vt 0.863957 0.638302
vt 0.885217 0.687125
vt 0.863957 0.687125
vt 0.885217 0.736614
vt 0.863957 0.736614
vt 0.885217 0.784440
vt 0.863957 0.784440
vt 0.863957 0.394662
vt 0.885217 0.394662
vt 0.885217 0.443123
vt 0.863957 0.443123
vt 0.885217 0.491920
vt 0.863957 0.491920
vt 0.851692 0.491920
vt 0.851692 0.540724
vt 0.851692 0.443123
vt 0.851692 0.394662
vt 0.851692 0.736614
vt 0.851692 0.784440
vt 0.851692 0.687125
vt 0.851692 0.638302
vt 0.851692 0.589549
vt 0.434903 0.264467
vt 0.436641 0.208741
vt 0.474889 0.209816
vt 0.484455 0.250573
vt 0.103379 0.651188
vt 0.117357 0.641531
vt 0.127133 0.671870
vt 0.119009 0.697084
vt 0.334364 0.839355
vt 0.331660 0.796360
vt 0.357384 0.797624
vt 0.358313 0.839355
vt 0.556137 0.061174
vt 0.521914 0.088366
vt 0.497893 0.063688
vt 0.539687 0.031177
vt 0.465084 0.106741
vt 0.494403 0.124596
vt 0.478263 0.162943
vt 0.445401 0.156681
vt 0.915008 0.589549
vt 0.915008 0.638302
vt 0.915008 0.540724
vt 0.915008 0.491920
vt 0.915008 0.443123
vt 0.915008 0.394662
vt 0.915008 0.687125
vt 0.943931 0.540724
vt 0.943931 0.589548
vt 0.943931 0.638302
vt 0.943931 0.687125
vt 0.517062 0.197504
vt 0.531193 0.225924
vt 0.556257 0.160513
vt 0.589943 0.175748
vt 0.943931 0.394662
vt 0.943931 0.443123
vt 0.572871 0.131561
vt 0.603172 0.139035
vt 0.070292 0.615775
vt 0.091699 0.609559
vt 0.006822 0.583287
vt 0.063855 0.585734
vt 0.127014 0.607781
vt 0.122245 0.587318
vt 0.165758 0.587531
vt 0.164188 0.605792
vt 0.133083 0.632114
vt 0.162721 0.627801
vt 0.161290 0.648157
vt 0.141207 0.654448
vt 0.217268 0.632171
vt 0.214961 0.653521
vt 0.219356 0.608302
vt 0.220911 0.588862
vt 0.268083 0.658296
vt 0.269234 0.635427
vt 0.321139 0.638312
vt 0.320107 0.661619
vt 0.270458 0.610120
vt 0.322166 0.612562
vt 0.271170 0.589703
vt 0.372868 0.638830
vt 0.372282 0.663832
vt 0.373435 0.613377
vt 0.322330 0.590807
vt 0.373933 0.591423
vt 0.271850 0.539997
vt 0.322400 0.539997
vt 0.374208 0.539997
vt 0.165820 0.539997
vt 0.221242 0.539997
vt 0.121647 0.539997
vt 0.004884 0.539997
vt 0.063223 0.539997
vt 0.638323 0.141697
vt 0.638323 0.180175
vt 0.607062 0.108279
vt 0.603403 0.078634
vt 0.638323 0.073656
vt 0.638323 0.105439
vt 0.943931 0.491920
vt 0.508175 0.165199
vt 0.524231 0.140533
vt 0.547710 0.112607
vt 0.572562 0.090037
vt 0.584889 0.110986
vt 0.503432 0.787500
vt 0.503401 0.839354
vt 0.451685 0.839355
vt 0.451830 0.792109
vt 0.398532 0.839355
vt 0.399333 0.797181
vt 0.378942 0.798732
vt 0.379400 0.839355
vt 0.604555 0.782883
vt 0.604553 0.839355
vt 0.553902 0.839355
vt 0.553910 0.784084
vt 0.216584 0.744721
vt 0.224718 0.704107
vt 0.252275 0.715331
vt 0.229150 0.749861
vt 0.202649 0.744710
vt 0.194614 0.704057
vt 0.189781 0.750036
vt 0.166806 0.715576
vt 0.179936 0.759881
vt 0.145537 0.736849
vt 0.174610 0.772743
vt 0.133982 0.764622
vt 0.174609 0.786657
vt 0.134047 0.794695
vt 0.179915 0.799517
vt 0.145564 0.822434
vt 0.189437 0.809165
vt 0.166392 0.843574
vt 0.953429 0.394662
vt 0.953429 0.443123
vt 0.953428 0.491920
vt 0.953429 0.540724
vt 0.953429 0.589548
vt 0.953429 0.638302
vt 0.953429 0.687125
vt 0.953429 0.736614
vt 0.953429 0.784440
vt 0.789076 0.463177
vt 0.789076 0.449736
vt 0.805200 0.449736
vt 0.805200 0.463177
vt 0.789076 0.436295
vt 0.805200 0.436295
vt 0.789076 0.422854
vt 0.805200 0.422854
vt 0.789076 0.409413
vt 0.805200 0.409413
vt 0.789076 0.395973
vt 0.805200 0.395973
vt 0.789076 0.382883
vt 0.805200 0.382883
vt 0.789076 0.489715
vt 0.789076 0.476618
vt 0.805200 0.476618
vt 0.805200 0.489715
vt 0.268714 0.011746
vt 0.259094 0.050876
vt 0.215100 0.044550
vt 0.215100 0.004923
vt 0.368528 0.336442
vt 0.419268 0.336442
vt 0.419268 0.363210
vt 0.368528 0.363210
vt 0.160163 0.300880
vt 0.212068 0.300879
vt 0.212068 0.305414
vt 0.160163 0.305414
vt 0.263886 0.300879
vt 0.263886 0.305414
vt 0.315792 0.300880
vt 0.315792 0.305414
vt 0.368528 0.300879
vt 0.368528 0.305414
vt 0.419268 0.300879
vt 0.419268 0.305414
vt 0.004882 0.300879
vt 0.056410 0.300879
vt 0.056409 0.305414
vt 0.004882 0.305414
vt 0.108281 0.300879
vt 0.108281 0.305414
vt 0.643726 0.936870
vt 0.598016 0.936870
vt 0.598016 0.921820
vt 0.643726 0.921820
vt 0.689436 0.936870
vt 0.689436 0.921820
vt 0.734799 0.936870
vt 0.734799 0.921820
vt 0.415178 0.936870
vt 0.369839 0.936870
vt 0.369839 0.921820
vt 0.415178 0.921820
vt 0.460888 0.936870
vt 0.460888 0.921820
vt 0.506597 0.936870
vt 0.506597 0.921820
vt 0.552307 0.936870
vt 0.552307 0.921820
vt 0.425217 0.288635
vt 0.382924 0.273592
vt 0.383695 0.225593
vt 0.424378 0.227356
vt 0.674239 0.654823
vt 0.650690 0.689071
vt 0.636250 0.677989
vt 0.657273 0.648337
vt 0.869142 0.839355
vt 0.857001 0.839355
vt 0.860638 0.796343
vt 0.877915 0.794993
vt 0.299876 0.068089
vt 0.319732 0.033755
vt 0.363652 0.069661
vt 0.334832 0.097521
vt 0.397250 0.116992
vt 0.362107 0.136538
vt 0.416248 0.171213
vt 0.377616 0.177613
vt 0.263886 0.336441
vt 0.212068 0.336441
vt 0.160163 0.336441
vt 0.108281 0.336441
vt 0.056409 0.336441
vt 0.004882 0.336441
vt 0.315792 0.336442
vt 0.212068 0.363210
vt 0.160163 0.363210
vt 0.263886 0.363210
vt 0.315792 0.363210
vt 0.337139 0.251640
vt 0.340785 0.212995
vt 0.302984 0.227541
vt 0.295610 0.170750
vt 0.056409 0.363210
vt 0.004882 0.363210
vt 0.254156 0.174028
vt 0.247323 0.144222
vt 0.280557 0.139960
vt 0.690251 0.621574
vt 0.711163 0.626954
vt 0.745224 0.609593
vt 0.720163 0.606159
vt 0.736129 0.588270
vt 0.774902 0.586339
vt 0.634670 0.614667
vt 0.581855 0.611758
vt 0.586548 0.590162
vt 0.639014 0.589781
vt 0.629763 0.641185
vt 0.620431 0.668222
vt 0.576704 0.659242
vt 0.578880 0.635899
vt 0.530832 0.659231
vt 0.530040 0.638069
vt 0.531617 0.612631
vt 0.532801 0.589823
vt 0.477048 0.663309
vt 0.424619 0.664138
vt 0.424698 0.640717
vt 0.477104 0.640234
vt 0.424840 0.614856
vt 0.477100 0.614628
vt 0.476987 0.590534
vt 0.425530 0.590875
vt 0.426066 0.539997
vt 0.476909 0.539997
vt 0.533012 0.539997
vt 0.588570 0.539997
vt 0.641879 0.539997
vt 0.690159 0.589047
vt 0.693503 0.539997
vt 0.739926 0.539997
vt 0.215100 0.175771
vt 0.215100 0.145898
vt 0.245069 0.115015
vt 0.215100 0.111705
vt 0.215100 0.079002
vt 0.251104 0.084263
vt 0.108281 0.363210
vt 0.347404 0.176977
vt 0.330167 0.151880
vt 0.307138 0.121776
vt 0.282380 0.097734
vt 0.269184 0.118592
vt 0.705679 0.787514
vt 0.757185 0.792163
vt 0.757216 0.839355
vt 0.705686 0.839355
vt 0.800762 0.795318
vt 0.800353 0.839355
vt 0.843050 0.796493
vt 0.840316 0.839355
vt 0.655201 0.784088
vt 0.655202 0.839355
vt 0.056409 0.373103
vt 0.004882 0.373103
vt 0.108281 0.373103
vt 0.160163 0.373103
vt 0.212068 0.373103
vt 0.263886 0.373103
vt 0.315791 0.373103
vt 0.368528 0.373103
vt 0.419268 0.373103
vt 0.779289 0.539997
vt 0.266203 0.209034
vt 0.215100 0.212943
vt 0.598016 0.906884
vt 0.643726 0.906884
vt 0.689436 0.906884
vt 0.734799 0.906884
vt 0.369839 0.906884
vt 0.415178 0.906884
vt 0.460888 0.906884
vt 0.506597 0.906884
vt 0.552307 0.906884
vt 0.688883 0.011269
vt 0.680930 0.045487
vt 0.915008 0.052710
vt 0.915008 0.004884
vt 0.943931 0.004884
vt 0.943931 0.052710
vt 0.188435 0.882100
vt 0.186495 0.891815
vt 0.229320 0.882090
vt 0.231240 0.891815
vt 0.267041 0.866506
vt 0.272516 0.874759
vt 0.296006 0.837754
vt 0.304222 0.843301
vt 0.311821 0.800046
vt 0.321555 0.802037
vt 0.312009 0.759073
vt 0.321784 0.757179
vt 0.296447 0.721072
vt 0.304756 0.715559
vt 0.863957 0.248600
vt 0.863957 0.199776
vt 0.885217 0.199776
vt 0.885217 0.248600
vt 0.863957 0.151023
vt 0.885217 0.151023
vt 0.863957 0.102199
vt 0.885217 0.102199
vt 0.863957 0.052710
vt 0.885218 0.052710
vt 0.863957 0.004884
vt 0.885217 0.004884
vt 0.863957 0.346202
vt 0.885217 0.346202
vt 0.863957 0.297405
vt 0.885217 0.297405
vt 0.851692 0.297405
vt 0.851692 0.248600
vt 0.851692 0.346202
vt 0.851692 0.052710
vt 0.851692 0.004884
vt 0.851692 0.102199
vt 0.851692 0.151023
vt 0.851692 0.199776
vt 0.841743 0.264467
vt 0.792191 0.250573
vt 0.801756 0.209816
vt 0.840005 0.208741
vt 0.103379 0.428806
vt 0.119009 0.382910
vt 0.127134 0.408124
vt 0.117357 0.438463
vt 0.357384 0.881085
vt 0.331660 0.882349
vt 0.720509 0.061175
vt 0.736959 0.031177
vt 0.778752 0.063688
vt 0.754732 0.088366
vt 0.811562 0.106741
vt 0.782243 0.124595
vt 0.831245 0.156680
vt 0.798383 0.162942
vt 0.915008 0.151023
vt 0.915008 0.199776
vt 0.915008 0.248600
vt 0.915008 0.297405
vt 0.915008 0.346202
vt 0.915008 0.102199
vt 0.943931 0.199776
vt 0.943931 0.248600
vt 0.943931 0.151023
vt 0.943931 0.102199
vt 0.745453 0.225924
vt 0.759584 0.197504
vt 0.686703 0.175749
vt 0.720389 0.160514
vt 0.943931 0.346202
vt 0.673474 0.139035
vt 0.703775 0.131561
vt 0.091699 0.470434
vt 0.070292 0.464219
vt 0.063855 0.494260
vt 0.006822 0.496706
vt 0.127014 0.472213
vt 0.164188 0.474202
vt 0.165759 0.492462
vt 0.122245 0.492676
vt 0.133084 0.447879
vt 0.141207 0.425546
vt 0.161290 0.431836
vt 0.162721 0.452193
vt 0.214961 0.426472
vt 0.217268 0.447822
vt 0.219356 0.471691
vt 0.220911 0.491131
vt 0.268083 0.421698
vt 0.320107 0.418375
vt 0.321139 0.441682
vt 0.269234 0.444567
vt 0.322166 0.467431
vt 0.270458 0.469873
vt 0.271170 0.490291
vt 0.372282 0.416161
vt 0.372868 0.441163
vt 0.373435 0.466617
vt 0.373933 0.488571
vt 0.322330 0.489187
vt 0.669584 0.108279
vt 0.673243 0.078635
vt 0.943931 0.297405
vt 0.768471 0.165198
vt 0.752415 0.140533
vt 0.728936 0.112607
vt 0.704083 0.090037
vt 0.691756 0.110986
vt 0.503432 0.891209
vt 0.451830 0.886600
vt 0.399333 0.881529
vt 0.378943 0.879978
vt 0.604555 0.895825
vt 0.553910 0.894625
vt 0.238690 0.759522
vt 0.273146 0.736537
vt 0.244004 0.772404
vt 0.284654 0.764356
vt 0.243977 0.786331
vt 0.284591 0.794455
vt 0.238622 0.799183
vt 0.273018 0.822222
vt 0.228757 0.809007
vt 0.251736 0.843482
vt 0.215892 0.814309
vt 0.223905 0.854873
vt 0.201982 0.814298
vt 0.193870 0.854784
vt 0.953429 0.346202
vt 0.953429 0.297405
vt 0.953429 0.248600
vt 0.953429 0.199776
vt 0.953429 0.151023
vt 0.953429 0.102199
vt 0.953429 0.052710
vt 0.953429 0.004884
vt 0.789076 0.516252
vt 0.805200 0.516252
vt 0.805200 0.529693
vt 0.789076 0.529693
vt 0.805200 0.543134
vt 0.789076 0.543134
vt 0.805200 0.556575
vt 0.789076 0.556575
vt 0.805200 0.570016
vt 0.789076 0.570016
vt 0.805200 0.583457
vt 0.789076 0.583457
vt 0.805200 0.596546
vt 0.789076 0.596546
vt 0.805200 0.502811
vt 0.789076 0.502811
vt 0.161487 0.011746
vt 0.171107 0.050876
vt 0.470009 0.336442
vt 0.470009 0.363210
vt 0.678373 0.300879
vt 0.678373 0.305414
vt 0.626468 0.305414
vt 0.626468 0.300879
vt 0.574651 0.305414
vt 0.574651 0.300879
vt 0.522745 0.305414
vt 0.522745 0.300879
vt 0.470009 0.305414
vt 0.470009 0.300879
vt 0.833655 0.300879
vt 0.833655 0.305414
vt 0.782127 0.305414
vt 0.782127 0.300879
vt 0.730255 0.305414
vt 0.730255 0.300879
vt 0.095952 0.936870
vt 0.095952 0.921820
vt 0.141661 0.921820
vt 0.141661 0.936870
vt 0.050242 0.936870
vt 0.050242 0.921820
vt 0.004878 0.936870
vt 0.004878 0.921820
vt 0.324500 0.936870
vt 0.324500 0.921820
vt 0.278790 0.936870
vt 0.278790 0.921820
vt 0.233081 0.936870
vt 0.233081 0.921820
vt 0.187371 0.936870
vt 0.187371 0.921820
vt 0.004984 0.288635
vt 0.005823 0.227355
vt 0.046506 0.225592
vt 0.047276 0.273591
vt 0.674240 0.425171
vt 0.657273 0.431657
vt 0.636250 0.402005
vt 0.650690 0.390923
vt 0.877915 0.883717
vt 0.860638 0.882366
vt 0.130325 0.068089
vt 0.095369 0.097521
vt 0.066549 0.069661
vt 0.110469 0.033754
vt 0.032951 0.116992
vt 0.068094 0.136538
vt 0.052585 0.177613
vt 0.013952 0.171213
vt 0.626468 0.336442
vt 0.574651 0.336442
vt 0.678373 0.336442
vt 0.730255 0.336441
vt 0.782127 0.336441
vt 0.833655 0.336441
vt 0.522745 0.336442
vt 0.678373 0.363210
vt 0.626468 0.363210
vt 0.574651 0.363210
vt 0.522745 0.363210
vt 0.089416 0.212995
vt 0.093062 0.251640
vt 0.134591 0.170750
vt 0.127217 0.227541
vt 0.833655 0.363210
vt 0.782127 0.363210
vt 0.149644 0.139960
vt 0.182878 0.144222
vt 0.176045 0.174028
vt 0.711163 0.453040
vt 0.690251 0.458420
vt 0.745224 0.470401
vt 0.774902 0.493654
vt 0.736129 0.491723
vt 0.720163 0.473834
vt 0.634670 0.465327
vt 0.639014 0.490213
vt 0.586548 0.489832
vt 0.581855 0.468236
vt 0.629763 0.438809
vt 0.578880 0.444095
vt 0.576704 0.420751
vt 0.620431 0.411772
vt 0.530040 0.441925
vt 0.530832 0.420763
vt 0.531616 0.467363
vt 0.532801 0.490171
vt 0.477048 0.416685
vt 0.477104 0.439759
vt 0.424698 0.439277
vt 0.424619 0.415855
vt 0.477100 0.465366
vt 0.424840 0.465137
vt 0.476987 0.489459
vt 0.425530 0.489119
vt 0.690159 0.490947
vt 0.185132 0.115015
vt 0.179097 0.084263
vt 0.730255 0.363210
vt 0.082797 0.176977
vt 0.100033 0.151880
vt 0.123062 0.121776
vt 0.147821 0.097734
vt 0.161016 0.118592
vt 0.705679 0.891196
vt 0.757185 0.886546
vt 0.800762 0.883391
vt 0.843050 0.882217
vt 0.655201 0.894622
vt 0.833655 0.373103
vt 0.782127 0.373103
vt 0.730255 0.373103
vt 0.678373 0.373103
vt 0.626468 0.373103
vt 0.574651 0.373103
vt 0.522745 0.373103
vt 0.470009 0.373103
vt 0.163998 0.209034
vt 0.095952 0.906884
vt 0.141661 0.906884
vt 0.050242 0.906884
vt 0.004878 0.906884
vt 0.324500 0.906884
vt 0.278790 0.906884
vt 0.233081 0.906884
vt 0.187371 0.906884
vt 0.369839 0.960258
vt 0.324500 0.960258
vt 0.460888 0.960258
vt 0.415178 0.960258
vt 0.095952 0.960258
vt 0.050242 0.960258
vt 0.734799 0.960258
vt 0.689436 0.960258
vt 0.141661 0.960258
vt 0.643726 0.960258
vt 0.187371 0.960258
vt 0.598016 0.960258
vt 0.233081 0.960258
vt 0.552307 0.960258
vt 0.278790 0.960258
vt 0.506597 0.960258
vt 0.004878 0.960258
vt 0.707658 0.697698
vt 0.685185 0.697698
vt 0.691029 0.668334
vt 0.707664 0.643443
vt 0.282894 0.992859
vt 0.252203 0.992859
vt 0.252202 0.970884
vt 0.282894 0.970884
vt 0.963186 0.388585
vt 0.963186 0.353620
vt 0.984850 0.353620
vt 0.984850 0.388585
vt 0.313884 0.992859
vt 0.313884 0.970884
vt 0.963185 0.423550
vt 0.984850 0.423550
vt 0.344868 0.992860
vt 0.344869 0.970884
vt 0.963186 0.458514
vt 0.984850 0.458514
vt 0.375854 0.992859
vt 0.375854 0.970884
vt 0.963186 0.493479
vt 0.984850 0.493479
vt 0.406838 0.992859
vt 0.406838 0.970884
vt 0.963185 0.528445
vt 0.984850 0.528445
vt 0.437823 0.992859
vt 0.437823 0.970884
vt 0.963186 0.284002
vt 0.963186 0.249349
vt 0.984850 0.249349
vt 0.984850 0.284002
vt 0.221510 0.992860
vt 0.221510 0.970884
vt 0.468812 0.992859
vt 0.468812 0.970883
vt 0.963186 0.214383
vt 0.984850 0.214383
vt 0.035593 0.992860
vt 0.004884 0.992860
vt 0.004884 0.970884
vt 0.035593 0.970884
vt 0.993691 0.004886
vt 0.993691 0.039558
vt 0.984850 0.039558
vt 0.984850 0.004886
vt 0.993691 0.074524
vt 0.984850 0.074524
vt 0.993691 0.109489
vt 0.984850 0.109489
vt 0.993691 0.144453
vt 0.984850 0.144453
vt 0.993691 0.179418
vt 0.984850 0.179418
vt 0.993691 0.214383
vt 0.993691 0.249349
vt 0.993691 0.284002
vt 0.993691 0.493479
vt 0.993691 0.528445
vt 0.993691 0.458514
vt 0.993691 0.423550
vt 0.993691 0.388585
vt 0.993691 0.353620
vt 0.993691 0.318654
vt 0.984850 0.318654
vt 0.993691 0.563117
vt 0.984850 0.563117
vt 0.963186 0.318654
vt 0.066582 0.992860
vt 0.066582 0.970884
vt 0.963186 0.039558
vt 0.963186 0.004886
vt 0.963185 0.563117
vt 0.097567 0.992860
vt 0.097567 0.970884
vt 0.963186 0.074524
vt 0.128552 0.992860
vt 0.128552 0.970884
vt 0.963186 0.109489
vt 0.159536 0.992860
vt 0.159536 0.970884
vt 0.963186 0.144453
vt 0.190521 0.992860
vt 0.190521 0.970884
vt 0.963186 0.179418
vt 0.499521 0.992859
vt 0.499521 0.970883
vt 0.352561 0.729285
vt 0.342921 0.729285
vt 0.345427 0.716689
vt 0.352563 0.706012
vt 0.790728 0.697698
vt 0.761641 0.697698
vt 0.761641 0.620979
vt 0.790720 0.626810
vt 0.732555 0.697698
vt 0.732563 0.626810
vt 0.761641 0.774433
vt 0.732548 0.768596
vt 0.707653 0.751957
vt 0.691022 0.727062
vt 0.790736 0.768596
vt 0.815624 0.697698
vt 0.815619 0.643443
vt 0.815630 0.751957
vt 0.838098 0.697698
vt 0.832255 0.668334
vt 0.832261 0.727062
vt 0.387752 0.729285
vt 0.375495 0.729285
vt 0.375495 0.696374
vt 0.387749 0.698878
vt 0.398430 0.729285
vt 0.398427 0.706012
vt 0.408070 0.729285
vt 0.405564 0.716689
vt 0.387755 0.759695
vt 0.375495 0.762202
vt 0.398432 0.752559
vt 0.405566 0.741880
vt 0.352559 0.752559
vt 0.345425 0.741880
vt 0.363239 0.729285
vt 0.363242 0.698878
vt 0.363236 0.759695
s 1
f 126/1/1 122/2/2 11/3/3 74/4/4
f 60/5/5 139/6/6 124/7/7 9/8/8
f 559/9/9 1/10/10 30/11/11 552/12/12
f 552/12/12 30/11/11 31/13/13 553/14/14
f 553/14/14 31/13/13 32/15/15 554/16/16
f 554/16/16 32/15/15 33/17/17 555/18/18
f 555/18/18 33/17/17 34/19/19 556/20/20
f 556/20/20 34/19/19 35/21/21 557/22/22
f 557/22/22 35/21/21 36/23/23 558/24/24
f 558/24/24 36/23/23 2/25/25 551/26/26
f 51/27/27 46/28/28 47/29/29 52/30/30
f 52/30/30 47/29/29 48/31/31 53/32/32
f 53/32/32 48/31/31 49/33/33 54/34/34
f 54/34/34 49/33/33 50/35/35 55/36/36
f 55/36/36 50/35/35 6/37/37 7/38/38
f 8/39/39 5/40/40 44/41/41 56/42/42
f 56/42/42 44/41/41 45/43/43 57/44/44
f 57/44/44 45/43/43 46/28/28 51/27/27
f 31/45/13 57/44/44 51/27/27 32/46/15
f 30/47/11 56/42/42 57/44/44 31/45/13
f 1/48/10 8/39/39 56/42/42 30/47/11
f 36/49/23 55/36/36 7/38/38 2/50/25
f 35/51/21 54/34/34 55/36/36 36/49/23
f 34/52/19 53/32/32 54/34/34 35/51/21
f 33/53/17 52/30/30 53/32/32 34/52/19
f 32/46/15 51/27/27 52/30/30 33/53/17
f 138/54/45 136/55/46 68/56/47 69/57/48
f 69/58/48 78/59/49 84/60/50 138/61/45
f 125/62/51 138/63/45 84/64/50 22/65/52
f 98/66/53 65/67/54 130/68/55 128/69/56
f 132/70/57 130/68/55 65/67/54 66/71/58
f 66/71/58 67/72/59 134/73/60 132/70/57
f 136/55/46 134/73/60 67/72/59 68/56/47
f 47/29/29 64/74/61 58/75/62 48/31/31
f 46/28/28 63/76/63 64/74/61 47/29/29
f 45/43/43 62/77/64 63/76/63 46/28/28
f 44/41/41 61/78/65 62/77/64 45/43/43
f 5/40/40 10/79/66 61/78/65 44/41/41
f 50/35/35 60/5/5 9/8/8 6/37/37
f 49/33/33 59/80/67 60/5/5 50/35/35
f 48/31/31 58/75/62 59/80/67 49/33/33
f 63/76/63 131/81/68 133/82/69 64/74/61
f 64/74/61 133/82/69 135/83/70 58/75/62
f 58/75/62 135/83/70 137/84/71 59/80/67
f 59/80/67 137/84/71 139/6/6 60/5/5
f 68/56/47 71/85/72 70/86/73 69/57/48
f 70/86/73 71/85/72 73/87/74 72/88/75
f 10/79/66 123/89/76 127/90/77 61/78/65
f 73/87/74 75/91/78 76/92/79 72/88/75
f 69/58/48 70/93/73 77/94/80 78/59/49
f 70/93/73 72/95/75 79/96/81 77/94/80
f 105/97/82 106/98/83 80/99/84 81/100/85
f 105/97/82 107/101/86 78/59/49 77/94/80
f 107/101/86 82/102/87 83/103/88 108/104/89
f 82/102/87 86/105/90 85/106/91 83/103/88
f 86/105/90 82/102/87 81/100/85 87/107/92
f 81/100/85 80/99/84 88/108/93 87/107/92
f 109/109/94 110/110/95 89/111/96 90/112/97
f 110/110/95 111/113/98 91/114/99 89/111/96
f 111/113/98 87/107/92 88/108/93 112/115/100
f 89/111/96 94/116/101 93/117/102 90/112/97
f 94/116/101 89/111/96 91/114/99 95/118/103
f 91/114/99 92/119/104 96/120/105 95/118/103
f 112/115/106 28/121/107 13/122/108 92/119/109
f 96/120/110 92/119/109 13/122/108 14/123/111
f 88/108/112 80/99/113 15/124/114 12/125/115
f 106/98/116 26/126/117 15/124/114 80/99/113
f 79/96/118 72/95/75 17/127/119 16/128/120
f 72/88/75 76/92/79 18/129/121 17/130/119
f 104/131/122 97/132/123 19/133/124 20/134/125
f 19/133/124 97/132/123 74/4/4 11/3/3
f 61/78/65 127/90/77 129/135/126 62/77/64
f 62/77/64 129/135/126 131/81/68 63/76/63
f 71/85/72 68/56/47 67/72/59 99/136/127
f 67/72/59 66/71/58 100/137/128 99/136/127
f 99/136/127 100/137/128 73/87/74 71/85/72
f 75/91/78 73/87/74 100/137/128 101/138/129
f 100/137/128 66/71/58 65/67/54 101/138/129
f 101/138/129 65/67/54 98/66/53 102/139/130
f 98/66/53 74/4/4 97/132/123 102/139/130
f 101/138/129 102/139/130 103/140/131 75/91/78
f 76/92/79 104/131/122 20/134/125 18/129/121
f 75/91/78 103/140/131 104/131/122 76/92/79
f 103/140/131 102/139/130 97/132/123 104/131/122
f 109/141/132 29/142/133 23/143/134 85/144/135
f 85/144/135 23/143/134 21/145/136 83/146/137
f 108/147/138 27/148/139 22/65/52 84/64/50
f 93/149/140 25/150/140 24/151/141 90/152/142
f 128/69/56 126/1/1 74/4/4 98/66/53
f 83/146/137 21/145/136 27/148/139 108/147/138
f 79/96/118 16/128/120 26/126/117 106/98/116
f 78/59/49 107/101/86 108/104/89 84/60/50
f 81/100/85 82/102/87 107/101/86 105/97/82
f 77/94/80 79/96/81 106/98/83 105/97/82
f 90/152/142 24/151/141 29/142/133 109/141/132
f 88/108/112 12/125/115 28/121/107 112/115/106
f 91/114/99 111/113/98 112/115/100 92/119/104
f 86/105/90 87/107/92 111/113/98 110/110/95
f 85/106/91 86/105/90 110/110/95 109/109/94
f 43/153/143 121/154/144 114/155/145 4/156/146
f 42/157/147 120/158/148 121/154/144 43/153/143
f 41/159/149 119/160/150 120/158/148 42/157/147
f 40/161/151 118/162/152 119/160/150 41/159/149
f 39/163/153 117/164/154 118/162/152 40/161/151
f 38/165/155 116/166/156 117/164/154 39/163/153
f 37/167/157 115/168/158 116/166/156 38/165/155
f 3/169/159 113/170/160 115/168/158 37/167/157
f 127/90/161 123/89/162 122/171/162 126/172/161
f 129/135/163 127/90/161 126/172/161 128/173/164
f 131/81/165 129/135/163 128/173/164 130/174/166
f 133/82/167 131/81/165 130/174/166 132/175/167
f 135/83/168 133/82/167 132/175/167 134/176/168
f 137/84/169 135/83/168 134/176/168 136/177/170
f 139/6/171 137/84/169 136/177/170 138/178/172
f 124/7/173 139/6/171 138/178/172 125/179/173
f 38/180/174 39/181/175 144/182/176 143/183/174
f 39/181/175 40/184/177 145/185/177 144/182/176
f 40/184/177 41/186/178 146/187/179 145/185/177
f 41/186/178 42/188/180 147/189/181 146/187/179
f 42/188/180 43/190/182 148/191/182 147/189/181
f 43/190/182 4/192/183 141/193/183 148/191/182
f 3/194/184 37/195/185 142/196/186 140/197/184
f 37/195/185 38/180/174 143/183/174 142/196/186
f 248/198/187 209/199/188 157/200/189 244/201/190
f 195/202/191 155/203/192 246/204/193 261/205/194
f 278/206/195 272/207/196 182/208/196 181/209/197
f 272/207/196 273/210/198 183/211/199 182/208/196
f 273/210/198 274/212/200 184/213/201 183/211/199
f 274/212/200 275/214/202 185/215/203 184/213/201
f 275/214/202 270/216/204 152/217/204 185/215/203
f 271/218/205 276/219/206 179/220/207 151/221/205
f 276/219/206 277/222/208 180/223/209 179/220/207
f 277/222/208 278/206/195 181/209/197 180/223/209
f 173/224/210 174/225/211 186/226/212 192/227/213
f 172/228/214 173/224/210 192/227/213 191/229/215
f 149/230/216 172/228/214 191/229/215 154/231/217
f 178/232/218 150/233/219 153/234/220 190/235/221
f 177/236/222 178/232/218 190/235/221 189/237/223
f 176/238/224 177/236/222 189/237/223 188/239/225
f 175/240/226 176/238/224 188/239/225 187/241/227
f 174/225/211 175/240/226 187/241/227 186/226/212
f 260/242/228 204/243/229 203/244/230 258/245/231
f 204/246/229 260/247/228 219/248/232 213/249/233
f 247/250/234 167/251/235 219/252/236 260/253/237
f 229/254/238 250/255/239 252/256/240 200/257/241
f 254/258/242 201/259/243 200/257/241 252/256/240
f 201/259/243 254/258/242 256/260/244 202/261/245
f 258/245/231 203/244/230 202/261/245 256/260/244
f 182/208/246 183/211/247 193/262/248 199/263/249
f 181/209/250 182/208/246 199/263/249 198/264/251
f 180/223/252 181/209/250 198/264/251 197/265/253
f 179/220/254 180/223/252 197/265/253 196/266/255
f 151/221/256 179/220/254 196/266/255 156/267/257
f 185/215/258 152/217/259 155/203/192 195/202/191
f 184/213/260 185/215/258 195/202/191 194/268/261
f 183/211/247 184/213/260 194/268/261 193/262/248
f 198/264/251 199/263/249 255/269/262 253/270/263
f 199/263/249 193/262/248 257/271/264 255/269/262
f 193/262/248 194/268/261 259/272/265 257/271/264
f 194/268/261 195/202/191 261/205/194 259/272/265
f 203/244/230 204/243/229 205/273/266 206/274/267
f 205/273/266 263/275/268 208/276/269 206/274/267
f 156/267/257 196/266/255 249/277/270 245/278/271
f 208/276/269 207/279/272 211/280/273 210/281/274
f 204/246/229 213/249/233 212/282/275 205/283/266
f 263/284/268 236/285/276 239/286/277 267/287/278
f 268/288/279 216/289/280 215/290/281 237/291/282
f 268/288/279 212/282/275 213/249/233 238/292/283
f 238/292/283 269/293/284 218/294/285 217/295/286
f 217/295/286 218/294/285 220/296/287 221/297/288
f 221/297/288 222/298/289 216/289/280 217/295/286
f 216/289/280 222/298/289 223/299/290 215/290/281
f 240/300/291 225/301/292 224/302/293 241/303/294
f 241/303/294 224/302/293 226/304/295 242/305/296
f 242/305/296 243/306/297 223/299/290 222/298/289
f 224/302/293 225/301/292 93/117/102 94/116/101
f 94/116/101 95/118/103 226/304/295 224/302/293
f 226/304/295 95/118/103 96/120/105 227/307/298
f 243/306/299 227/307/300 159/308/301 170/309/302
f 96/120/110 14/123/111 159/308/301 227/307/300
f 223/299/303 158/310/304 160/311/305 215/290/306
f 237/291/307 215/290/306 160/311/305 264/312/308
f 214/313/309 161/314/310 262/315/311 239/286/312
f 207/279/272 162/316/313 163/317/314 211/280/273
f 235/318/315 165/319/316 164/320/317 228/321/318
f 164/320/317 157/200/189 209/199/188 228/321/318
f 196/266/255 197/265/253 251/322/319 249/277/270
f 197/265/253 198/264/251 253/270/263 251/322/319
f 206/274/267 230/323/320 202/261/245 203/244/230
f 202/261/245 230/323/320 231/324/321 201/259/243
f 230/323/320 206/274/267 208/276/269 231/324/321
f 210/281/274 232/325/322 231/324/321 208/276/269
f 231/324/321 232/325/322 200/257/241 201/259/243
f 232/325/322 233/326/323 229/254/238 200/257/241
f 229/254/238 233/326/323 228/321/318 209/199/188
f 232/325/322 210/281/274 234/327/324 233/326/323
f 211/280/273 163/317/314 165/319/316 235/318/315
f 210/281/274 211/280/273 235/318/315 234/327/324
f 234/327/324 235/318/315 228/321/318 233/326/323
f 240/328/325 220/329/326 168/330/326 171/331/327
f 220/329/326 218/332/328 166/333/329 168/330/326
f 269/334/330 219/252/236 167/251/235 265/335/331
f 93/149/140 225/336/332 169/337/333 25/150/140
f 250/255/239 229/254/238 209/199/188 248/198/187
f 214/313/309 237/291/307 264/312/308 161/314/310
f 213/249/233 219/248/232 269/293/284 238/292/283
f 212/282/275 268/288/279 237/291/282 214/313/334
f 225/336/332 240/328/325 171/331/327 169/337/333
f 223/299/303 243/306/299 170/309/302 158/310/304
f 226/304/295 227/307/298 243/306/297 242/305/296
f 221/297/288 241/303/294 242/305/296 222/298/289
f 220/296/287 240/300/291 241/303/294 221/297/288
f 249/277/335 248/338/336 244/339/337 245/278/337
f 251/322/338 250/340/339 248/338/336 249/277/335
f 253/270/340 252/341/341 250/340/339 251/322/338
f 255/269/342 254/342/342 252/341/341 253/270/340
f 257/271/343 256/343/343 254/342/342 255/269/342
f 259/272/344 258/344/344 256/343/343 257/271/343
f 261/205/345 260/345/345 258/344/344 259/272/344
f 246/204/346 247/346/346 260/345/345 261/205/345
f 216/289/280 268/288/279 238/292/283 217/295/286
f 218/332/328 269/334/330 265/335/331 166/333/329
f 239/286/312 262/315/311 266/347/347 267/287/278
f 205/283/266 212/282/275 236/285/276 263/284/268
f 239/286/277 236/285/276 212/282/275 214/313/334
f 267/348/278 266/349/347 162/316/313 207/279/272
f 208/276/269 263/275/268 267/348/278 207/279/272
f 192/227/213 186/226/212 278/350/348 277/351/349
f 191/229/215 192/227/213 277/351/349 276/352/350
f 154/231/217 191/229/215 276/352/350 271/353/351
f 190/235/221 153/234/220 270/354/352 275/355/353
f 189/237/223 190/235/221 275/355/353 274/356/354
f 188/239/225 189/237/223 274/356/354 273/357/355
f 187/241/227 188/239/225 273/357/355 272/358/356
f 186/226/212 187/241/227 272/358/356 278/350/348
f 369/359/357 323/360/358 11/3/3 122/2/2
f 309/361/359 9/362/8 124/363/7 382/364/360
f 559/9/9 560/365/361 279/366/362 1/10/10
f 560/365/361 561/367/363 280/368/364 279/366/362
f 561/367/363 562/369/365 281/370/366 280/368/364
f 562/369/365 563/371/367 282/372/368 281/370/366
f 563/371/367 564/373/369 283/374/370 282/372/368
f 564/373/369 565/375/371 284/376/372 283/374/370
f 565/375/371 566/377/373 285/378/374 284/376/372
f 566/377/373 551/26/26 2/25/25 285/378/374
f 300/379/375 301/380/376 296/381/377 295/382/378
f 301/380/376 302/383/379 297/384/380 296/381/377
f 302/383/379 303/385/381 298/386/382 297/384/380
f 303/385/381 304/387/383 299/388/384 298/386/382
f 304/387/383 7/389/38 6/390/37 299/388/384
f 8/39/39 305/391/385 293/392/386 5/40/40
f 305/391/385 306/393/387 294/394/388 293/392/386
f 306/393/387 300/379/375 295/382/378 294/394/388
f 280/395/364 281/396/366 300/379/375 306/393/387
f 279/397/362 280/395/364 306/393/387 305/391/385
f 1/48/10 279/397/362 305/391/385 8/39/39
f 285/398/374 2/399/25 7/389/38 304/387/383
f 284/400/372 285/398/374 304/387/383 303/385/381
f 283/401/370 284/400/372 303/385/381 302/383/379
f 282/402/368 283/401/370 302/383/379 301/380/376
f 281/396/366 282/402/368 301/380/376 300/379/375
f 381/403/389 318/404/390 317/405/391 379/406/392
f 318/407/390 381/408/389 333/409/393 327/410/394
f 125/62/51 22/65/52 333/411/393 381/412/389
f 347/413/395 371/414/396 373/415/397 314/416/398
f 375/417/399 315/418/400 314/416/398 373/415/397
f 315/418/400 375/417/399 377/419/401 316/420/402
f 379/406/392 317/405/391 316/420/402 377/419/401
f 296/381/377 297/384/380 307/421/403 313/422/404
f 295/382/378 296/381/377 313/422/404 312/423/405
f 294/394/388 295/382/378 312/423/405 311/424/406
f 293/392/386 294/394/388 311/424/406 310/425/407
f 5/40/40 293/392/386 310/425/407 10/79/66
f 299/388/384 6/390/37 9/362/8 309/361/359
f 298/386/382 299/388/384 309/361/359 308/426/408
f 297/384/380 298/386/382 308/426/408 307/421/403
f 312/423/405 313/422/404 376/427/409 374/428/410
f 313/422/404 307/421/403 378/429/411 376/427/409
f 307/421/403 308/426/408 380/430/412 378/429/411
f 308/426/408 309/361/359 382/364/360 380/430/412
f 317/405/391 318/404/390 319/431/413 320/432/414
f 319/431/413 321/433/415 322/434/416 320/432/414
f 10/79/66 310/425/407 370/435/417 123/89/76
f 322/434/416 321/433/415 325/436/418 324/437/419
f 318/407/390 327/410/394 326/438/420 319/439/413
f 319/439/413 326/438/420 328/440/421 321/441/415
f 354/442/422 330/443/423 329/444/424 355/445/425
f 354/442/422 326/438/420 327/410/394 356/446/426
f 356/446/426 357/447/427 332/448/428 331/449/429
f 331/449/429 332/448/428 334/450/430 335/451/431
f 335/451/431 336/452/432 330/443/423 331/449/429
f 330/443/423 336/452/432 337/453/433 329/444/424
f 358/454/434 339/455/435 338/456/436 359/457/437
f 359/457/437 338/456/436 340/458/438 360/459/439
f 360/459/439 361/460/440 337/453/433 336/452/432
f 338/456/436 339/455/435 342/461/441 343/462/442
f 343/462/442 344/463/443 340/458/438 338/456/436
f 340/458/438 344/463/443 345/464/444 341/465/445
f 361/460/446 341/465/447 13/122/108 28/121/107
f 345/464/448 14/123/111 13/122/108 341/465/447
f 337/453/449 12/125/115 15/124/114 329/444/450
f 355/445/451 329/444/450 15/124/114 26/126/117
f 328/440/452 16/128/120 17/127/119 321/441/415
f 321/433/415 17/130/119 18/129/121 325/436/418
f 353/466/453 20/134/125 19/133/124 346/467/454
f 19/133/124 11/3/3 323/360/358 346/467/454
f 310/425/407 311/424/406 372/468/455 370/435/417
f 311/424/406 312/423/405 374/428/410 372/468/455
f 320/432/414 348/469/456 316/420/402 317/405/391
f 316/420/402 348/469/456 349/470/457 315/418/400
f 348/469/456 320/432/414 322/434/416 349/470/457
f 324/437/419 350/471/458 349/470/457 322/434/416
f 349/470/457 350/471/458 314/416/398 315/418/400
f 350/471/458 351/472/459 347/413/395 314/416/398
f 347/413/395 351/472/459 346/467/454 323/360/358
f 350/471/458 324/437/419 352/473/460 351/472/459
f 325/436/418 18/129/121 20/134/125 353/466/453
f 324/437/419 325/436/418 353/466/453 352/473/460
f 352/473/460 353/466/453 346/467/454 351/472/459
f 358/474/132 334/475/135 23/143/134 29/142/133
f 334/475/135 332/476/461 21/145/136 23/143/134
f 357/477/462 333/411/393 22/65/52 27/148/139
f 342/478/140 339/479/142 24/151/141 25/150/140
f 371/414/396 347/413/395 323/360/358 369/359/357
f 332/476/461 357/477/462 27/148/139 21/145/136
f 328/440/452 355/445/451 26/126/117 16/128/120
f 327/410/394 333/409/393 357/447/427 356/446/426
f 330/443/423 354/442/422 356/446/426 331/449/429
f 326/438/420 354/442/422 355/445/425 328/440/421
f 339/479/142 358/474/132 29/142/133 24/151/141
f 337/453/449 361/460/446 28/121/107 12/125/115
f 340/458/438 341/465/445 361/460/440 360/459/439
f 335/451/431 359/457/437 360/459/439 336/452/432
f 334/450/430 358/454/434 359/457/437 335/451/431
f 292/480/463 4/156/146 114/155/145 368/481/464
f 291/482/465 292/480/463 368/481/464 367/483/466
f 290/484/467 291/482/465 367/483/466 366/485/468
f 289/486/469 290/484/467 366/485/468 365/487/470
f 288/488/471 289/486/469 365/487/470 364/489/472
f 287/490/473 288/488/471 364/489/472 363/491/474
f 286/492/475 287/490/473 363/491/474 362/493/476
f 3/169/159 286/492/475 362/493/476 113/170/160
f 370/435/477 369/494/477 122/171/162 123/89/162
f 372/468/478 371/495/479 369/494/477 370/435/477
f 374/428/480 373/496/481 371/495/479 372/468/478
f 376/427/482 375/497/483 373/496/481 374/428/480
f 378/429/484 377/498/484 375/497/483 376/427/482
f 380/430/485 379/499/485 377/498/484 378/429/484
f 382/364/486 381/500/487 379/499/485 380/430/485
f 124/363/173 125/501/173 381/500/487 382/364/486
f 287/502/488 384/503/489 385/504/490 288/505/491
f 288/505/491 385/504/490 386/506/492 289/507/492
f 289/507/492 386/506/492 387/508/493 290/509/494
f 290/509/494 387/508/493 388/510/495 291/511/496
f 291/511/496 388/510/495 389/512/497 292/513/497
f 292/513/497 389/512/497 141/514/183 4/515/183
f 3/194/184 140/197/184 383/516/498 286/517/498
f 286/517/498 383/516/498 384/503/489 287/502/488
f 462/518/499 244/201/190 157/200/189 427/519/500
f 413/520/501 475/521/502 246/204/193 155/203/192
f 486/522/503 399/523/504 400/524/505 480/525/505
f 480/525/505 400/524/505 401/526/506 481/527/507
f 481/527/507 401/526/506 402/528/508 482/529/509
f 482/529/509 402/528/508 403/530/510 483/531/511
f 483/531/511 403/530/510 152/217/204 270/216/204
f 271/532/205 151/533/205 397/534/512 484/535/513
f 484/535/513 397/534/512 398/536/514 485/537/515
f 485/537/515 398/536/514 399/523/504 486/522/503
f 391/538/516 410/539/517 404/540/518 392/541/519
f 390/542/520 409/543/521 410/539/517 391/538/516
f 149/544/216 154/545/217 409/543/521 390/542/520
f 396/546/522 408/547/523 153/234/220 150/233/219
f 395/548/524 407/549/525 408/547/523 396/546/522
f 394/550/526 406/551/527 407/549/525 395/548/524
f 393/552/528 405/553/529 406/551/527 394/550/526
f 392/541/519 404/540/518 405/553/529 393/552/528
f 474/554/530 472/555/531 421/556/532 422/557/533
f 422/558/533 431/559/534 437/560/535 474/561/530
f 247/250/234 474/562/536 437/563/537 167/251/235
f 447/564/538 418/565/539 466/566/540 464/567/541
f 468/568/542 466/566/540 418/565/539 419/569/543
f 419/569/543 420/570/544 470/571/545 468/568/542
f 472/555/531 470/571/545 420/570/544 421/556/532
f 400/524/546 417/572/547 411/573/548 401/526/549
f 399/523/550 416/574/551 417/572/547 400/524/546
f 398/536/552 415/575/553 416/574/551 399/523/550
f 397/534/554 414/576/555 415/575/553 398/536/552
f 151/533/256 156/577/257 414/576/555 397/534/554
f 403/530/556 413/520/501 155/203/192 152/217/259
f 402/528/557 412/578/558 413/520/501 403/530/556
f 401/526/549 411/573/548 412/578/558 402/528/557
f 416/574/551 467/579/559 469/580/560 417/572/547
f 417/572/547 469/580/560 471/581/561 411/573/548
f 411/573/548 471/581/561 473/582/562 412/578/558
f 412/578/558 473/582/562 475/521/502 413/520/501
f 421/556/532 424/583/563 423/584/564 422/557/533
f 423/584/564 424/583/563 426/585/565 476/586/566
f 156/577/257 245/587/271 463/588/567 414/576/555
f 426/585/565 428/589/568 429/590/569 425/591/570
f 422/558/533 423/592/564 430/593/571 431/559/534
f 476/594/566 477/595/572 457/596/573 454/597/574
f 478/598/575 455/599/576 433/600/577 434/601/578
f 478/598/575 456/602/579 431/559/534 430/593/571
f 456/602/579 435/603/580 436/604/581 479/605/582
f 435/603/580 439/606/583 438/607/584 436/604/581
f 439/606/583 435/603/580 434/601/578 440/608/585
f 434/601/578 433/600/577 441/609/586 440/608/585
f 458/610/587 459/611/588 442/612/589 443/613/590
f 459/611/588 460/614/591 444/615/592 442/612/589
f 460/614/591 440/608/585 441/609/586 461/616/593
f 442/612/589 343/462/442 342/461/441 443/613/590
f 343/462/442 442/612/589 444/615/592 344/463/443
f 444/615/592 445/617/594 345/464/444 344/463/443
f 461/616/595 170/309/302 159/308/301 445/617/596
f 345/464/448 445/617/596 159/308/301 14/123/111
f 441/609/597 433/600/598 160/311/305 158/310/304
f 455/599/599 264/312/308 160/311/305 433/600/598
f 432/618/600 457/596/601 262/315/311 161/314/310
f 425/591/570 429/590/569 163/317/314 162/316/313
f 453/619/602 446/620/603 164/320/317 165/319/316
f 164/320/317 446/620/603 427/519/500 157/200/189
f 414/576/555 463/588/567 465/621/604 415/575/553
f 415/575/553 465/621/604 467/579/559 416/574/551
f 424/583/563 421/556/532 420/570/544 448/622/605
f 420/570/544 419/569/543 449/623/606 448/622/605
f 448/622/605 449/623/606 426/585/565 424/583/563
f 428/589/568 426/585/565 449/623/606 450/624/607
f 449/623/606 419/569/543 418/565/539 450/624/607
f 450/624/607 418/565/539 447/564/538 451/625/608
f 447/564/538 427/519/500 446/620/603 451/625/608
f 450/624/607 451/625/608 452/626/609 428/589/568
f 429/590/569 453/619/602 165/319/316 163/317/314
f 428/589/568 452/626/609 453/619/602 429/590/569
f 452/626/609 451/625/608 446/620/603 453/619/602
f 458/627/325 171/331/327 168/330/326 438/628/326
f 438/628/326 168/330/326 166/333/329 436/629/610
f 479/630/611 265/335/331 167/251/235 437/563/537
f 342/478/140 25/150/140 169/337/333 443/631/332
f 464/567/541 462/518/499 427/519/500 447/564/538
f 432/618/600 161/314/310 264/312/308 455/599/599
f 431/559/534 456/602/579 479/605/582 437/560/535
f 430/593/571 432/618/612 455/599/576 478/598/575
f 443/631/332 169/337/333 171/331/327 458/627/325
f 441/609/597 158/310/304 170/309/302 461/616/595
f 444/615/592 460/614/591 461/616/593 445/617/594
f 439/606/583 440/608/585 460/614/591 459/611/588
f 438/607/584 439/606/583 459/611/588 458/610/587
f 463/588/613 245/587/337 244/632/337 462/633/614
f 465/621/615 463/588/613 462/633/614 464/634/616
f 467/579/617 465/621/615 464/634/616 466/635/618
f 469/580/619 467/579/617 466/635/618 468/636/620
f 471/581/621 469/580/619 468/636/620 470/637/621
f 473/582/622 471/581/621 470/637/621 472/638/622
f 475/521/623 473/582/622 472/638/622 474/639/623
f 246/204/346 475/521/623 474/639/623 247/346/346
f 434/601/578 435/603/580 456/602/579 478/598/575
f 436/629/610 166/333/329 265/335/331 479/630/611
f 457/596/601 477/595/572 266/347/347 262/315/311
f 423/592/564 476/594/566 454/597/574 430/593/571
f 457/596/573 432/618/612 430/593/571 454/597/574
f 477/640/572 425/591/570 162/316/313 266/349/347
f 426/585/565 425/591/570 477/640/572 476/586/566
f 410/539/517 485/641/624 486/642/625 404/540/518
f 409/543/521 484/643/626 485/641/624 410/539/517
f 154/545/217 271/644/351 484/643/626 409/543/521
f 408/547/523 483/645/627 270/354/352 153/234/220
f 407/549/525 482/646/628 483/645/627 408/547/523
f 406/551/527 481/647/629 482/646/628 407/549/525
f 405/553/529 480/648/630 481/647/629 406/551/527
f 404/540/518 486/642/625 480/648/630 405/553/529
f 396/546/522 150/233/219 511/649/631 518/650/632
f 178/232/218 177/236/222 509/651/633 510/652/634
f 390/542/520 391/538/516 512/653/635 513/654/636
f 150/233/219 178/232/218 510/652/634 511/649/631
f 172/228/214 149/230/216 504/655/637 503/656/638
f 391/538/516 392/541/519 514/657/639 512/653/635
f 173/224/210 172/228/214 503/656/638 505/658/640
f 392/541/519 393/552/528 515/659/641 514/657/639
f 174/225/211 173/224/210 505/658/640 506/660/642
f 393/552/528 394/550/526 516/661/643 515/659/641
f 175/240/226 174/225/211 506/660/642 507/662/644
f 394/550/526 395/548/524 517/663/645 516/661/643
f 176/238/224 175/240/226 507/662/644 508/664/646
f 395/548/524 396/546/522 518/650/632 517/663/645
f 149/544/216 390/542/520 513/654/636 504/665/637
f 177/236/222 176/238/224 508/664/646 509/651/633
f 567/666/647 499/667/647 500/668/647 501/669/647
f 495/670/648 488/671/649 543/672/649 542/673/648
f 516/674/650 517/675/651 533/676/652 532/677/653
f 494/678/654 495/670/648 542/673/648 541/679/655
f 515/680/656 516/674/650 532/677/653 531/681/656
f 493/682/657 494/678/654 541/679/655 540/683/658
f 514/684/659 515/680/656 531/681/656 530/685/660
f 492/686/661 493/682/657 540/683/658 539/687/661
f 512/688/662 514/684/659 530/685/660 528/689/663
f 491/690/664 492/686/661 539/687/661 538/691/665
f 513/692/666 512/688/662 528/689/663 529/693/667
f 490/694/668 491/690/664 538/691/665 537/695/669
f 511/696/670 510/697/671 526/698/672 527/699/670
f 488/671/649 502/700/673 550/701/673 543/672/649
f 489/702/674 490/694/668 537/695/669 535/703/674
f 510/697/671 509/704/675 525/705/676 526/698/672
f 496/706/677 487/707/678 536/708/678 545/709/677
f 536/710/679 535/711/680 519/712/681 520/713/679
f 535/711/680 537/714/682 521/715/683 519/712/681
f 537/714/682 538/716/684 522/717/684 521/715/683
f 538/716/684 539/718/685 523/719/685 522/717/684
f 539/718/685 540/720/686 524/721/686 523/719/685
f 540/720/686 541/722/687 525/705/687 524/721/686
f 541/722/687 542/723/688 526/698/689 525/705/687
f 542/723/688 543/724/690 527/699/690 526/698/689
f 544/725/691 545/726/692 529/693/693 528/689/694
f 546/727/695 544/725/691 528/689/694 530/685/695
f 547/728/696 546/727/695 530/685/695 531/681/696
f 548/729/697 547/728/696 531/681/696 532/677/697
f 549/730/698 548/729/697 532/677/697 533/676/698
f 550/731/699 549/730/698 533/676/698 534/732/700
f 545/726/692 536/733/679 520/734/679 529/693/693
f 543/724/690 550/731/699 534/732/700 527/699/690
f 517/675/651 518/735/701 534/732/702 533/676/652
f 497/736/703 496/706/677 545/709/677 544/737/704
f 503/738/705 504/739/706 520/713/706 519/712/707
f 504/740/706 513/692/666 529/693/667 520/734/706
f 498/741/708 497/736/703 544/737/704 546/742/709
f 505/743/710 503/738/705 519/712/707 521/715/711
f 518/735/701 511/696/670 527/699/670 534/732/702
f 499/744/712 498/741/708 546/742/709 547/745/712
f 506/746/713 505/743/710 521/715/711 522/717/714
f 500/747/715 499/744/712 547/745/712 548/748/716
f 507/749/717 506/746/713 522/717/714 523/719/717
f 501/750/718 500/747/715 548/748/716 549/751/719
f 508/752/720 507/749/717 523/719/717 524/721/721
f 502/700/673 501/750/718 549/751/719 550/701/673
f 509/704/675 508/752/720 524/721/721 525/705/676
f 487/753/678 489/702/674 535/703/674 536/754/678
f 576/755/722 145/756/722 146/757/722 147/758/722
f 368/481/464 114/155/145 551/26/26 566/377/373
f 367/483/466 368/481/464 566/377/373 565/375/371
f 366/485/468 367/483/466 565/375/371 564/373/369
f 365/487/470 366/485/468 564/373/369 563/371/367
f 364/489/472 365/487/470 563/371/367 562/369/365
f 363/491/474 364/489/472 562/369/365 561/367/363
f 362/493/476 363/491/474 561/367/363 560/365/361
f 113/170/160 362/493/476 560/365/361 559/9/9
f 121/154/144 558/24/24 551/26/26 114/155/145
f 120/158/148 557/22/22 558/24/24 121/154/144
f 119/160/150 556/20/20 557/22/22 120/158/148
f 118/162/152 555/18/18 556/20/20 119/160/150
f 117/164/154 554/16/16 555/18/18 118/162/152
f 116/166/156 553/14/14 554/16/16 117/164/154
f 115/168/158 552/12/12 553/14/14 116/166/156
f 113/170/160 559/9/9 552/12/12 115/168/158
f 570/759/723 569/760/724 488/761/724 495/762/723
f 569/760/724 568/763/647 502/764/647 488/761/724
f 568/763/647 567/666/647 501/669/647 502/764/647
f 487/765/724 496/766/647 568/763/647 569/760/724
f 496/766/647 497/767/647 567/666/647 568/763/647
f 497/767/647 498/768/647 499/667/647 567/666/647
f 489/769/723 487/765/724 569/760/724 570/759/723
f 571/770/723 570/759/723 495/762/723 494/771/723
f 490/772/723 489/769/723 570/759/723 571/770/723
f 492/773/723 571/770/723 494/771/723 493/774/723
f 491/775/723 490/772/723 571/770/723 492/773/723
f 573/776/722 574/777/722 141/778/722 389/779/722
f 572/780/722 573/776/722 389/779/722 388/781/722
f 386/782/722 572/780/722 388/781/722 387/783/722
f 383/784/722 140/785/722 574/777/722 573/776/722
f 384/786/722 383/784/722 573/776/722 572/780/722
f 385/787/722 384/786/722 572/780/722 386/782/722
f 143/788/722 144/789/722 145/756/722 576/755/722
f 574/777/722 575/790/722 148/791/722 141/778/722
f 140/785/722 142/792/722 575/790/722 574/777/722
f 575/790/722 576/755/722 147/758/722 148/791/722
f 142/792/722 143/788/722 576/755/722 575/790/722
