# Blender 4.0.2
# www.blender.org
o apple_core
v -0.020636 0.074827 -0.000000
v -0.029576 0.072347 -0.000000
v -0.033271 0.067089 -0.000000
v -0.012230 0.048811 -0.000000
v -0.009734 0.035689 -0.000000
v -0.012880 0.020416 -0.000000
v -0.027866 0.008367 0.000000
v -0.024511 0.002157 0.000000
v -0.018419 0.000000 0.000000
v -0.010381 0.001030 0.000000
v -0.003055 0.006230 0.000000
v -0.001383 0.052010 -0.000000
v -0.003768 0.060923 -0.000000
v -0.013328 0.073470 -0.000000
v -0.007366 0.068970 -0.000000
v -0.019065 0.074827 0.007897
v -0.027325 0.072347 0.011318
v -0.030739 0.067089 0.012732
v -0.011299 0.048811 0.004680
v -0.008993 0.035689 0.003725
v -0.011900 0.020416 0.004929
v -0.024815 0.006324 0.010279
v -0.022645 0.002157 0.009380
v -0.017017 0.000000 0.007049
v -0.009591 0.001030 0.003973
v -0.002822 0.006230 0.001169
v -0.001277 0.052010 0.000529
v -0.003482 0.060923 0.001442
v -0.012313 0.073470 0.005100
v -0.006805 0.068970 0.002819
v -0.014592 0.074827 0.014592
v -0.020914 0.072347 0.020914
v -0.023527 0.069038 0.023526
v -0.008648 0.048811 0.008648
v -0.006883 0.035689 0.006883
v -0.009108 0.020416 0.009108
v -0.018993 0.006915 0.018993
v -0.017332 0.002157 0.017332
v -0.013024 0.000000 0.013024
v -0.007341 0.001030 0.007341
v -0.002160 0.006230 0.002160
v -0.000978 0.052010 0.000978
v -0.002665 0.060923 0.002665
v -0.009424 0.073470 0.009424
v -0.005208 0.068970 0.005208
v -0.007897 0.074827 0.019065
v -0.011318 0.072347 0.027325
v -0.012732 0.067144 0.030739
v -0.004680 0.048811 0.011299
v -0.003725 0.035689 0.008993
v -0.004929 0.020416 0.011900
v -0.010664 0.009124 0.025745
v -0.009380 0.002157 0.022645
v -0.007049 0.000000 0.017017
v -0.003973 0.001030 0.009591
v -0.001169 0.006230 0.002822
v -0.000529 0.052010 0.001277
v -0.001442 0.060923 0.003482
v -0.005100 0.073470 0.012313
v -0.002819 0.068970 0.006805
v -0.000000 0.074827 0.020636
v -0.000000 0.072347 0.029576
v 0.000000 0.068499 0.033271
v -0.000000 0.048811 0.012230
v -0.000000 0.035689 0.009734
v -0.000000 0.020416 0.012880
v 0.000000 0.008358 0.027866
v 0.000000 0.002157 0.024511
v 0.000000 0.000000 0.018419
v 0.000000 0.001030 0.010381
v 0.000000 0.006230 0.003055
v -0.000000 0.052010 0.001383
v -0.000000 0.060923 0.003768
v -0.000000 0.073470 0.013328
v -0.000000 0.068970 0.007366
v 0.007897 0.074827 0.019065
v 0.011318 0.072347 0.027325
v 0.012732 0.066688 0.030739
v 0.004680 0.048811 0.011299
v 0.003725 0.035689 0.008993
v 0.004929 0.020416 0.011900
v 0.010208 0.006154 0.024643
v 0.009380 0.002157 0.022645
v 0.007049 0.000000 0.017017
v 0.003973 0.001030 0.009591
v 0.001169 0.006230 0.002822
v 0.000529 0.052010 0.001277
v 0.001442 0.060923 0.003482
v 0.005100 0.073470 0.012313
v 0.002819 0.068970 0.006805
v 0.014592 0.074827 0.014592
v 0.020914 0.072347 0.020914
v 0.023527 0.069038 0.023526
v 0.008648 0.048811 0.008648
v 0.006883 0.035689 0.006883
v 0.009108 0.020416 0.009108
v 0.018699 0.005721 0.018699
v 0.017332 0.002157 0.017332
v 0.013024 0.000000 0.013024
v 0.007341 0.001030 0.007341
v 0.002160 0.006230 0.002160
v 0.000978 0.052010 0.000978
v 0.002665 0.060923 0.002665
v 0.009424 0.073470 0.009424
v 0.005208 0.068970 0.005208
v 0.019065 0.074827 0.007897
v 0.027325 0.072347 0.011318
v 0.030739 0.067889 0.012732
v 0.011299 0.048811 0.004680
v 0.008993 0.035689 0.003725
v 0.011900 0.020416 0.004929
v 0.025745 0.008026 0.010664
v 0.022645 0.002157 0.009380
v 0.017017 0.000000 0.007049
v 0.009591 0.001030 0.003973
v 0.002822 0.006230 0.001169
v 0.001277 0.052010 0.000529
v 0.003482 0.060923 0.001442
v 0.012313 0.073470 0.005100
v 0.006805 0.068970 0.002819
v 0.020636 0.074827 -0.000000
v 0.029576 0.072347 -0.000000
v 0.033271 0.067889 -0.000000
v 0.012230 0.048811 -0.000000
v 0.009734 0.035689 -0.000000
v 0.012880 0.020416 -0.000000
v 0.026580 0.006082 -0.000000
v 0.024511 0.002157 -0.000000
v 0.018419 0.000000 -0.000000
v 0.010381 0.001030 -0.000000
v 0.003055 0.006230 -0.000000
v 0.001383 0.052010 -0.000000
v 0.003768 0.060923 0.000000
v 0.013328 0.073470 -0.000000
v 0.007366 0.068970 0.000000
v 0.019065 0.074827 -0.007897
v 0.027325 0.072347 -0.011318
v 0.030739 0.066679 -0.012732
v 0.011299 0.048811 -0.004680
v 0.008993 0.035689 -0.003725
v 0.011900 0.020416 -0.004929
v 0.024557 0.006082 -0.010172
v 0.022645 0.002157 -0.009380
v 0.017017 0.000000 -0.007049
v 0.009591 0.001030 -0.003973
v 0.002822 0.006230 -0.001169
v 0.001277 0.052010 -0.000529
v 0.003482 0.060923 -0.001442
v 0.012313 0.073470 -0.005100
v 0.006805 0.068970 -0.002819
v 0.014592 0.074827 -0.014592
v 0.020914 0.072347 -0.020914
v 0.023526 0.068830 -0.023527
v 0.008648 0.048811 -0.008648
v 0.006883 0.035689 -0.006883
v 0.009108 0.020416 -0.009108
v 0.019704 0.008572 -0.019704
v 0.017332 0.002157 -0.017332
v 0.013024 0.000000 -0.013024
v 0.007341 0.001030 -0.007341
v 0.002160 0.006230 -0.002160
v 0.000978 0.052010 -0.000978
v 0.002665 0.060923 -0.002665
v 0.009424 0.073470 -0.009424
v 0.005208 0.068970 -0.005208
v 0.007897 0.074827 -0.019065
v 0.011318 0.072347 -0.027325
v 0.012732 0.066679 -0.030739
v 0.004680 0.048811 -0.011299
v 0.003725 0.035689 -0.008993
v 0.004929 0.020416 -0.011900
v 0.010664 0.008572 -0.025745
v 0.009380 0.002157 -0.022645
v 0.007049 0.000000 -0.017017
v 0.003973 0.001030 -0.009591
v 0.001169 0.006230 -0.002822
v 0.000529 0.052010 -0.001277
v 0.001442 0.060923 -0.003482
v 0.005100 0.073470 -0.012313
v 0.002819 0.068970 -0.006805
v 0.000000 0.074827 -0.020636
v 0.000000 0.072347 -0.029576
v 0.000000 0.068561 -0.033271
v -0.000000 0.048811 -0.012230
v -0.000000 0.035689 -0.009734
v -0.000000 0.020416 -0.012880
v -0.000000 0.007900 -0.027866
v -0.000000 0.002157 -0.024511
v -0.000000 0.000000 -0.018419
v -0.000000 0.001030 -0.010381
v -0.000000 0.006230 -0.003055
v 0.000000 0.052010 -0.001383
v 0.000000 0.060923 -0.003768
v 0.000000 0.073470 -0.013328
v 0.000000 0.068970 -0.007366
v -0.007897 0.074827 -0.019065
v -0.011318 0.072347 -0.027325
v -0.012732 0.066859 -0.030739
v -0.004680 0.048811 -0.011299
v -0.003725 0.035689 -0.008993
v -0.004929 0.020416 -0.011900
v -0.010664 0.008026 -0.025745
v -0.009380 0.002157 -0.022645
v -0.007049 0.000000 -0.017017
v -0.003973 0.001030 -0.009591
v -0.001169 0.006230 -0.002822
v -0.000529 0.052010 -0.001277
v -0.001442 0.060923 -0.003482
v -0.005100 0.073470 -0.012313
v -0.002819 0.068970 -0.006805
v -0.014592 0.074827 -0.014592
v -0.020914 0.072347 -0.020914
v -0.023527 0.067714 -0.023526
v -0.008648 0.048811 -0.008648
v -0.006883 0.035689 -0.006883
v -0.009108 0.020416 -0.009108
v -0.019704 0.009983 -0.019704
v -0.017332 0.002157 -0.017332
v -0.013024 0.000000 -0.013024
v -0.007341 0.001030 -0.007341
v -0.002160 0.006230 -0.002160
v 0.000000 0.005999 -0.000000
v -0.000978 0.052010 -0.000978
v -0.002665 0.060923 -0.002665
v -0.009424 0.073470 -0.009424
v -0.005208 0.068970 -0.005208
v -0.019065 0.074827 -0.007897
v -0.027325 0.072347 -0.011318
v -0.030739 0.069038 -0.012732
v -0.011299 0.048811 -0.004680
v -0.008993 0.035689 -0.003725
v -0.011900 0.020416 -0.004929
v -0.025745 0.008367 -0.010664
v -0.022645 0.002157 -0.009380
v -0.017017 0.000000 -0.007049
v -0.009591 0.001030 -0.003973
v -0.002822 0.006230 -0.001169
v -0.001277 0.052010 -0.000529
v -0.003482 0.060923 -0.001442
v -0.012313 0.073470 -0.005100
v -0.006805 0.068970 -0.002819
v -0.005773 0.003908 0.000000
v -0.005334 0.003908 0.002209
v -0.004082 0.003908 0.004082
v -0.002209 0.003908 0.005334
v 0.000000 0.003908 0.005773
v 0.002209 0.003908 0.005334
v 0.004082 0.003908 0.004082
v 0.005334 0.003908 0.002209
v 0.005773 0.003908 -0.000000
v 0.005334 0.003908 -0.002209
v 0.004082 0.003908 -0.004082
v 0.002209 0.003908 -0.005334
v -0.000000 0.003908 -0.005773
v -0.002209 0.003908 -0.005334
v -0.004082 0.003908 -0.004082
v -0.005334 0.003908 -0.002209
v 0.001743 0.052078 0.001744
v 0.002465 0.052107 0.000000
v 0.001743 0.052078 -0.001744
v 0.000000 0.052010 -0.002467
v -0.001743 0.051942 -0.001744
v -0.002465 0.051914 -0.000000
v -0.001743 0.051942 0.001744
v -0.000000 0.052010 0.002467
v 0.001073 0.058571 0.001492
v 0.001691 0.058595 0.000000
v 0.001073 0.058571 -0.001492
v -0.000417 0.058513 -0.002110
v -0.001908 0.058455 -0.001492
v -0.002525 0.058431 -0.000000
v -0.001908 0.058455 0.001492
v -0.000417 0.058513 0.002110
v 0.000734 0.064927 0.001239
v 0.001247 0.064915 0.000000
v 0.000734 0.064927 -0.001239
v -0.000505 0.064956 -0.001752
v -0.001744 0.064986 -0.001239
v -0.002257 0.064998 -0.000000
v -0.001744 0.064986 0.001239
v -0.000505 0.064956 0.001752
v 0.000924 0.070549 0.001089
v 0.001371 0.070492 0.000000
v 0.000924 0.070549 -0.001089
v -0.000157 0.070686 -0.001541
v -0.001238 0.070823 -0.001089
v -0.001685 0.070879 -0.000000
v -0.001238 0.070823 0.001089
v -0.000157 0.070686 0.001541
v 0.001833 0.076040 0.000940
v 0.002208 0.075938 0.000000
v 0.001833 0.076040 -0.000940
v 0.000927 0.076288 -0.001329
v 0.000020 0.076536 -0.000940
v -0.000355 0.076639 -0.000000
v 0.000020 0.076536 0.000940
v 0.000927 0.076288 0.001329
v 0.003693 0.081180 0.000966
v 0.004059 0.081017 0.000000
v 0.003693 0.081180 -0.000966
v 0.002810 0.081572 -0.001365
v 0.001929 0.081964 -0.000964
v 0.001564 0.082126 -0.000000
v 0.001929 0.081964 0.000964
v 0.002810 0.081572 0.001365
v 0.006322 0.085986 0.001003
v 0.006676 0.085767 0.000000
v 0.006322 0.085986 -0.001003
v 0.005469 0.086513 -0.001416
v 0.004619 0.087039 -0.000999
v 0.004268 0.087256 -0.000000
v 0.004619 0.087039 0.000999
v 0.005469 0.086513 0.001416
v 0.008852 0.089366 0.001123
v 0.009223 0.089086 0.000000
v 0.008852 0.089366 -0.001123
v 0.007956 0.090042 -0.001588
v 0.007060 0.090718 -0.001123
v 0.006689 0.090998 -0.000000
v 0.007060 0.090718 0.001123
v 0.007956 0.090042 0.001588
v 0.011658 0.093048 0.001014
v 0.011994 0.092795 -0.000000
v 0.011658 0.093048 -0.001014
v 0.010848 0.093657 -0.001433
v 0.010038 0.094267 -0.001014
v 0.009703 0.094519 -0.000000
v 0.010038 0.094267 0.001014
v 0.010848 0.093657 0.001433
v 0.011564 0.092290 0.001394
v 0.010450 0.093128 0.001971
v 0.012025 0.091943 0.000000
v 0.011564 0.092290 -0.001394
v 0.010450 0.093128 -0.001971
v 0.009336 0.093966 -0.001394
v 0.008875 0.094313 -0.000000
v 0.009336 0.093966 0.001394
v 0.010848 0.093657 -0.000000
v -0.020041 0.011042 -0.000000
v -0.018516 0.011042 0.007669
v -0.014171 0.011042 0.014171
v -0.007669 0.011042 0.018516
v -0.000000 0.011042 0.020041
v 0.007669 0.011042 0.018516
v 0.014171 0.011042 0.014171
v 0.018516 0.011042 0.007669
v 0.020041 0.011042 -0.000000
v 0.018516 0.011042 -0.007669
v 0.014171 0.011042 -0.014171
v 0.007669 0.011042 -0.018516
v -0.000000 0.011042 -0.020041
v -0.007669 0.011042 -0.018516
v -0.014171 0.011042 -0.014171
v -0.018516 0.011042 -0.007669
v -0.020799 0.060563 -0.000000
v -0.019215 0.060563 0.007959
v -0.014707 0.061617 0.014707
v -0.007959 0.060593 0.019215
v -0.000000 0.061325 0.020799
v 0.007959 0.060346 0.019215
v 0.014707 0.061617 0.014707
v 0.019215 0.060996 0.007959
v 0.020799 0.060996 -0.000000
v 0.019215 0.060342 -0.007959
v 0.014707 0.061505 -0.014707
v 0.007959 0.060342 -0.019215
v -0.000000 0.061359 -0.020799
v -0.007959 0.060439 -0.019215
v -0.014707 0.060901 -0.014707
v -0.019215 0.061617 -0.007959
vn -0.5829 0.8124 0.0181
vn -0.5454 0.8124 0.2063
vn -0.0661 0.9974 0.0274
vn -0.0715 0.9974 -0.0000
vn -0.3939 0.8308 0.3932
vn -0.0506 0.9974 0.0506
vn -0.2121 0.8233 0.5264
vn -0.0274 0.9974 0.0661
vn 0.0038 0.8180 0.5752
vn -0.0000 0.9974 0.0715
vn 0.2165 0.8154 0.5369
vn 0.0274 0.9974 0.0661
vn 0.3824 0.8341 0.3975
vn 0.0506 0.9974 0.0506
vn 0.5166 0.8322 0.2014
vn 0.0661 0.9974 0.0274
vn 0.5814 0.8135 -0.0103
vn 0.0715 0.9974 -0.0000
vn 0.5461 0.8093 -0.2165
vn 0.0661 0.9974 -0.0274
vn 0.4047 0.8200 -0.4047
vn 0.0506 0.9974 -0.0506
vn 0.2198 0.8141 -0.5375
vn 0.0274 0.9974 -0.0661
vn 0.0015 0.8168 -0.5770
vn -0.0000 0.9974 -0.0715
vn -0.2322 0.8089 -0.5401
vn -0.0274 0.9974 -0.0661
vn -0.3884 0.8216 -0.4173
vn -0.0506 0.9974 -0.0506
vn -0.5095 0.8357 -0.2049
vn -0.0661 0.9974 -0.0274
vn -0.7912 0.6104 0.0371
vn -0.7452 0.6104 0.2685
vn -0.5323 0.6594 0.5309
vn -0.2840 0.6398 0.7141
vn 0.0082 0.6269 0.7791
vn 0.2905 0.6197 0.7291
vn 0.5106 0.6670 0.5426
vn 0.7012 0.6618 0.2651
vn 0.7883 0.6148 -0.0221
vn 0.7430 0.6040 -0.2883
vn 0.5479 0.6322 -0.5479
vn 0.2964 0.6165 -0.7294
vn 0.0032 0.6238 -0.7815
vn -0.3200 0.6032 -0.7306
vn -0.5166 0.6333 -0.5762
vn -0.6891 0.6715 -0.2725
vn -0.6446 -0.7630 -0.0476
vn -0.5773 -0.7630 0.2907
vn -0.4044 -0.8826 0.2399
vn -0.4654 -0.8826 -0.0669
vn -0.4635 -0.7540 0.4655
vn -0.3567 -0.8624 0.3592
vn -0.2615 -0.7577 0.5979
vn -0.1968 -0.8827 0.4268
vn -0.0117 -0.7602 0.6496
vn -0.0149 -0.8692 0.4942
vn 0.2596 -0.7616 0.5937
vn 0.1929 -0.8881 0.4172
vn 0.4871 -0.7523 0.4436
vn 0.3854 -0.8615 0.3306
vn 0.5961 -0.7535 0.2773
vn 0.4331 -0.8737 0.2217
vn 0.6462 -0.7626 0.0308
vn 0.4816 -0.8754 0.0406
vn 0.5861 -0.7649 -0.2671
vn 0.4104 -0.8885 -0.2051
vn 0.4605 -0.7589 -0.4605
vn 0.3540 -0.8656 -0.3540
vn 0.2535 -0.7624 -0.5954
vn 0.1842 -0.8884 -0.4204
vn -0.0047 -0.7607 -0.6491
vn -0.0058 -0.8688 -0.4952
vn -0.2272 -0.7652 -0.6023
vn -0.1495 -0.8868 -0.4373
vn -0.4977 -0.7582 -0.4213
vn -0.3908 -0.8748 -0.2863
vn -0.6029 -0.7518 -0.2670
vn -0.4606 -0.8618 -0.2127
vn -1.0000 0.0078 -0.0000
vn -0.9239 0.0078 0.3827
vn -0.8402 -0.4038 0.3620
vn -0.9148 -0.4038 -0.0129
vn -0.7071 0.0078 0.7071
vn -0.6492 -0.3956 0.6497
vn -0.3827 0.0078 0.9239
vn -0.3539 -0.4005 0.8452
vn -0.0000 0.0078 1.0000
vn -0.0031 -0.3997 0.9166
vn 0.3827 0.0078 0.9239
vn 0.3534 -0.4033 0.8441
vn 0.7071 0.0078 0.7071
vn 0.6553 -0.3949 0.6439
vn 0.9239 0.0078 0.3827
vn 0.8450 -0.3972 0.3581
vn 1.0000 0.0078 -0.0000
vn 0.9156 -0.4020 0.0082
vn 0.9239 0.0078 -0.3827
vn 0.8423 -0.4051 -0.3556
vn 0.7071 0.0078 -0.7071
vn 0.6485 -0.3986 -0.6485
vn 0.3827 0.0078 -0.9239
vn 0.3517 -0.4036 -0.8446
vn -0.0000 0.0078 -1.0000
vn -0.0012 -0.3999 -0.9165
vn -0.3827 0.0078 -0.9239
vn -0.3447 -0.4049 -0.8469
vn -0.7071 0.0078 -0.7071
vn -0.6581 -0.4004 -0.6376
vn -0.9239 0.0078 -0.3827
vn -0.8473 -0.3945 -0.3555
vn -0.9049 0.4257 -0.0000
vn -0.8360 0.4257 0.3463
vn -0.6399 0.4257 0.6399
vn -0.3463 0.4257 0.8360
vn -0.0000 0.4257 0.9049
vn 0.3463 0.4257 0.8360
vn 0.6399 0.4257 0.6399
vn 0.8360 0.4257 0.3463
vn 0.9049 0.4257 -0.0000
vn 0.8360 0.4257 -0.3463
vn 0.6399 0.4257 -0.6399
vn 0.3463 0.4257 -0.8360
vn -0.0000 0.4257 -0.9049
vn -0.3463 0.4257 -0.8360
vn -0.6399 0.4257 -0.6399
vn -0.8360 0.4257 -0.3463
vn -0.5866 0.8088 0.0413
vn -0.5891 0.7588 0.2777
vn -0.4843 0.7726 0.4105
vn -0.2423 0.8296 0.5031
vn 0.0590 0.8117 0.5811
vn 0.3047 0.7401 0.5994
vn 0.4555 0.7299 0.5096
vn 0.5850 0.7717 0.2496
vn 0.6730 0.7386 -0.0404
vn 0.6357 0.7427 -0.2105
vn 0.4481 0.8111 -0.3758
vn 0.2020 0.8311 -0.5181
vn -0.0093 0.8181 -0.5750
vn -0.1791 0.8299 -0.5284
vn -0.3575 0.8592 -0.3661
vn -0.5107 0.8407 -0.1801
vn -0.6733 -0.7393 -0.0016
vn -0.6225 -0.7378 0.2611
vn -0.8146 -0.4749 0.3330
vn -0.8782 -0.4780 -0.0159
vn -0.4805 -0.7285 0.4884
vn -0.6139 -0.4499 0.6486
vn -0.2673 -0.7259 0.6338
vn -0.3405 -0.4455 0.8280
vn -0.0055 -0.7343 0.6788
vn -0.0288 -0.4644 0.8852
vn 0.2580 -0.7384 0.6230
vn 0.3221 -0.4760 0.8183
vn 0.4734 -0.7410 0.4763
vn 0.6242 -0.4827 0.6142
vn 0.6188 -0.7430 0.2551
vn 0.8085 -0.4872 0.3301
vn 0.6748 -0.7380 -0.0031
vn 0.8797 -0.4755 0.0061
vn 0.6272 -0.7341 -0.2601
vn 0.8121 -0.4653 -0.3522
vn 0.4804 -0.7336 -0.4808
vn 0.6142 -0.4639 -0.6385
vn 0.2634 -0.7371 -0.6224
vn 0.3483 -0.4725 -0.8096
vn 0.0042 -0.7451 -0.6669
vn 0.0099 -0.4925 -0.8703
vn -0.2722 -0.7369 -0.6187
vn -0.3705 -0.4702 -0.8010
vn -0.4919 -0.7208 -0.4883
vn -0.6416 -0.4327 -0.6334
vn -0.6272 -0.7300 -0.2717
vn -0.8125 -0.4538 -0.3659
vn -0.1347 -0.9909 -0.0000
vn -0.1244 -0.9909 0.0515
vn -0.0952 -0.9909 0.0952
vn -0.0515 -0.9909 0.1244
vn -0.0000 -0.9909 0.1347
vn 0.0515 -0.9909 0.1244
vn 0.0952 -0.9909 0.0952
vn 0.1244 -0.9909 0.0515
vn 0.1347 -0.9909 -0.0000
vn 0.1244 -0.9909 -0.0515
vn 0.0952 -0.9909 -0.0952
vn 0.0515 -0.9909 -0.1244
vn -0.0000 -0.9909 -0.1347
vn -0.0515 -0.9909 -0.1244
vn -0.0952 -0.9909 -0.0952
vn -0.1244 -0.9909 -0.0515
vn 0.3121 -0.9501 -0.0000
vn 0.2883 -0.9501 -0.1194
vn 0.2207 -0.9501 -0.2207
vn 0.1194 -0.9501 -0.2883
vn -0.0000 -0.9501 -0.3121
vn -0.1194 -0.9501 -0.2883
vn -0.2207 -0.9501 -0.2207
vn -0.2883 -0.9501 -0.1194
vn -0.3121 -0.9501 -0.0000
vn -0.2883 -0.9501 0.1194
vn -0.2207 -0.9501 0.2207
vn -0.1194 -0.9501 0.2883
vn -0.0000 -0.9501 0.3121
vn 0.1194 -0.9501 0.2883
vn 0.2207 -0.9501 0.2207
vn 0.2883 -0.9501 0.1194
vn 0.5851 -0.8110 -0.0000
vn 0.5406 -0.8110 -0.2239
vn 0.4137 -0.8110 -0.4137
vn 0.2239 -0.8110 -0.5406
vn -0.0000 -0.8110 -0.5851
vn -0.2239 -0.8110 -0.5406
vn -0.4137 -0.8110 -0.4137
vn -0.5406 -0.8110 -0.2239
vn -0.5851 -0.8110 -0.0000
vn -0.5406 -0.8110 0.2239
vn -0.4137 -0.8110 0.4137
vn -0.2239 -0.8110 0.5406
vn -0.0000 -0.8110 0.5851
vn 0.2239 -0.8110 0.5406
vn 0.4137 -0.8110 0.4137
vn 0.5406 -0.8110 0.2239
vn 0.1348 -0.9359 -0.3255
vn 0.2508 -0.9350 -0.2508
vn -0.0000 -1.0000 -0.0000
vn -0.0000 -0.9350 -0.3547
vn -0.1348 -0.9359 -0.3255
vn -0.2508 -0.9350 -0.2508
vn -0.3255 -0.9359 -0.1348
vn -0.3547 -0.9350 -0.0000
vn -0.3255 -0.9359 0.1348
vn -0.2508 -0.9350 0.2508
vn -0.1348 -0.9359 0.3255
vn -0.0000 -0.9350 0.3547
vn 0.1348 -0.9359 0.3255
vn 0.2508 -0.9350 0.2508
vn 0.3255 -0.9359 0.1348
vn 0.3547 -0.9350 -0.0000
vn 0.9413 0.3376 -0.0000
vn 0.8697 0.3376 -0.3602
vn 0.8925 0.2586 -0.3697
vn 0.9660 0.2586 -0.0000
vn 0.6656 0.3376 -0.6656
vn 0.6831 0.2586 -0.6831
vn 0.3602 0.3376 -0.8697
vn 0.3697 0.2586 -0.8925
vn -0.0000 0.3376 -0.9413
vn -0.0000 0.2586 -0.9660
vn -0.3602 0.3376 -0.8697
vn -0.3697 0.2586 -0.8925
vn -0.6656 0.3376 -0.6656
vn -0.6831 0.2586 -0.6831
vn -0.8697 0.3376 -0.3602
vn -0.8925 0.2586 -0.3697
vn -0.9413 0.3376 -0.0000
vn -0.9660 0.2586 -0.0000
vn -0.8697 0.3376 0.3602
vn -0.8925 0.2586 0.3697
vn -0.6656 0.3376 0.6656
vn -0.6831 0.2586 0.6831
vn -0.3602 0.3376 0.8697
vn -0.3697 0.2586 0.8925
vn -0.0000 0.3376 0.9413
vn -0.0000 0.2586 0.9660
vn 0.3602 0.3376 0.8697
vn 0.3697 0.2586 0.8925
vn 0.6656 0.3376 0.6656
vn 0.6831 0.2586 0.6831
vn 0.8697 0.3376 0.3602
vn 0.8925 0.2586 0.3697
vn 0.7697 0.6384 -0.0000
vn 0.7111 0.6384 -0.2946
vn 0.5443 0.6384 -0.5443
vn 0.2946 0.6384 -0.7111
vn -0.0000 0.6384 -0.7697
vn -0.2946 0.6384 -0.7111
vn -0.5443 0.6384 -0.5443
vn -0.7111 0.6384 -0.2946
vn -0.7697 0.6384 -0.0000
vn -0.7111 0.6384 0.2946
vn -0.5443 0.6384 0.5443
vn -0.2946 0.6384 0.7111
vn -0.0000 0.6384 0.7697
vn 0.2946 0.6384 0.7111
vn 0.5443 0.6384 0.5443
vn 0.7111 0.6384 0.2946
vn 0.3499 0.9255 -0.1449
vn 0.3787 0.9255 -0.0000
vn 0.2678 0.9255 -0.2678
vn 0.1449 0.9255 -0.3499
vn -0.0000 0.9255 -0.3787
vn -0.1449 0.9255 -0.3499
vn -0.2678 0.9255 -0.2678
vn -0.3499 0.9255 -0.1449
vn -0.3787 0.9255 -0.0000
vn -0.3499 0.9255 0.1449
vn -0.2678 0.9255 0.2678
vn -0.1449 0.9255 0.3499
vn -0.0000 0.9255 0.3787
vn 0.1449 0.9255 0.3499
vn 0.2678 0.9255 0.2678
vn 0.3499 0.9255 0.1449
vn 0.3255 -0.9359 -0.1348
vn 0.7048 0.1001 0.7023
vn 0.7006 0.0829 0.7087
vn -0.0076 0.0548 0.9985
vn 0.0038 0.0551 0.9985
vn 0.9930 0.1185 -0.0000
vn 0.9955 0.0946 -0.0000
vn 0.7048 0.1001 -0.7023
vn 0.7006 0.0829 -0.7087
vn 0.0038 0.0551 -0.9985
vn -0.0076 0.0548 -0.9985
vn -0.7045 0.0097 -0.7096
vn -0.7104 0.0270 -0.7033
vn -1.0000 -0.0092 -0.0000
vn -0.9999 0.0156 -0.0000
vn -0.7045 0.0097 0.7096
vn -0.7104 0.0270 0.7033
vn 0.7027 0.0307 0.7108
vn -0.0080 0.0464 0.9989
vn 0.9997 0.0242 -0.0000
vn 0.7027 0.0307 -0.7108
vn -0.0080 0.0464 -0.9989
vn -0.7097 0.0621 -0.7018
vn -0.9976 0.0686 -0.0000
vn -0.7097 0.0621 0.7018
vn 0.6978 -0.0498 0.7146
vn -0.0110 0.0386 0.9992
vn 0.9962 -0.0870 -0.0000
vn 0.6978 -0.0498 -0.7146
vn -0.0109 0.0386 -0.9992
vn -0.7041 0.1253 -0.6989
vn -0.9870 0.1607 -0.0000
vn -0.7041 0.1253 0.6989
vn 0.6761 -0.1683 0.7174
vn -0.0155 0.0202 0.9997
vn 0.9687 -0.2481 -0.0000
vn 0.6761 -0.1683 -0.7173
vn -0.0155 0.0202 -0.9997
vn -0.6875 0.2034 -0.6971
vn -0.9606 0.2779 -0.0000
vn -0.6875 0.2034 0.6971
vn 0.6336 -0.2904 0.7171
vn -0.0211 0.0009 0.9998
vn 0.9104 -0.4137 -0.0000
vn 0.6336 -0.2904 -0.7171
vn -0.0211 0.0009 -0.9998
vn -0.6578 0.2842 -0.6975
vn -0.9168 0.3994 -0.0000
vn -0.6578 0.2842 0.6975
vn 0.5807 -0.3888 0.7153
vn -0.0270 -0.0121 0.9996
vn 0.8368 -0.5476 -0.0000
vn 0.5807 -0.3888 -0.7153
vn -0.0270 -0.0121 -0.9996
vn -0.6208 0.3556 -0.6987
vn -0.8629 0.5054 -0.0000
vn -0.6208 0.3556 0.6987
vn 0.5183 -0.4779 0.7092
vn -0.0475 -0.0500 0.9976
vn 0.7544 -0.6564 -0.0000
vn 0.5183 -0.4779 -0.7092
vn -0.0475 -0.0500 -0.9976
vn -0.6072 0.3731 -0.7015
vn -0.8372 0.5469 -0.0000
vn -0.6072 0.3731 0.7015
vn 0.7013 -0.2091 0.6815
vn 0.1635 0.2096 0.9640
vn 0.9240 -0.3824 -0.0000
vn 0.7013 -0.2091 -0.6815
vn 0.1635 0.2096 -0.9640
vn -0.3743 0.6286 -0.6817
vn -0.5970 0.8022 -0.0000
vn -0.3743 0.6286 0.6817
vn 0.6013 0.7990 -0.0000
vn 0.9243 0.3816 -0.0000
vn 0.8052 0.4713 -0.3600
vn 0.5175 0.6877 -0.5091
vn 0.8052 0.4713 0.3600
vn 0.5175 0.6877 0.5091
vn 0.2299 0.9042 -0.3600
vn 0.1108 0.9938 -0.0000
vn 0.2299 0.9042 0.3600
vn -0.2835 0.9569 -0.0628
vn -0.3767 0.9235 0.0718
vn -0.1515 0.9743 -0.1665
vn -0.0625 0.9457 -0.3190
vn -0.0167 0.9346 -0.3554
vn 0.1019 0.9484 -0.3003
vn 0.3219 0.9260 -0.1974
vn 0.5368 0.8342 -0.1265
vn 0.5545 0.8290 -0.0733
vn 0.4359 0.8788 0.1940
vn 0.3567 0.8159 0.4551
vn 0.2979 0.8302 0.4712
vn 0.1034 0.9253 0.3650
vn -0.1692 0.9471 0.2728
vn -0.4009 0.8761 0.2679
vn -0.4488 0.8590 0.2464
vt 0.560796 0.329715
vt 0.545459 0.252671
vt 0.606558 0.252403
vt 0.617301 0.306447
vt 0.559781 0.174819
vt 0.616880 0.198272
vt 0.604358 0.109332
vt 0.647577 0.152575
vt 0.669794 0.065053
vt 0.693351 0.121848
vt 0.747225 0.050206
vt 0.747393 0.111213
vt 0.825060 0.064492
vt 0.801577 0.121573
vt 0.890832 0.109046
vt 0.847317 0.152248
vt 0.934527 0.174856
vt 0.877815 0.198130
vt 0.949464 0.252042
vt 0.888436 0.252139
vt 0.935101 0.329739
vt 0.878060 0.306221
vt 0.890551 0.395020
vt 0.847373 0.351851
vt 0.825309 0.439511
vt 0.801697 0.382633
vt 0.747791 0.454278
vt 0.747726 0.393216
vt 0.670495 0.439424
vt 0.693653 0.382662
vt 0.604066 0.396007
vt 0.647670 0.352343
vt 0.520559 0.345070
vt 0.502573 0.252955
vt 0.529115 0.161936
vt 0.574678 0.078595
vt 0.656458 0.031884
vt 0.747479 0.005066
vt 0.837869 0.033814
vt 0.918845 0.082144
vt 0.970638 0.160656
vt 0.994644 0.252189
vt 0.966597 0.343072
vt 0.922021 0.427546
vt 0.838585 0.472395
vt 0.747038 0.498529
vt 0.655712 0.476146
vt 0.580298 0.419329
vt 0.405276 0.388098
vt 0.405276 0.340211
vt 0.494690 0.340211
vt 0.494690 0.388098
vt 0.405276 0.292507
vt 0.494690 0.292507
vt 0.405276 0.244410
vt 0.494690 0.244410
vt 0.405276 0.196444
vt 0.494690 0.196444
vt 0.405276 0.148379
vt 0.494690 0.148379
vt 0.405276 0.100699
vt 0.494690 0.100699
vt 0.405276 0.052729
vt 0.494690 0.052729
vt 0.405276 0.004881
vt 0.494690 0.004881
vt 0.405276 0.772005
vt 0.405276 0.724532
vt 0.494690 0.724532
vt 0.494690 0.772005
vt 0.405276 0.676351
vt 0.494690 0.676352
vt 0.405276 0.628269
vt 0.494690 0.628269
vt 0.405276 0.580223
vt 0.494690 0.580223
vt 0.405276 0.532227
vt 0.494690 0.532227
vt 0.405276 0.484184
vt 0.494690 0.484184
vt 0.405276 0.436139
vt 0.494690 0.436139
vt 0.228369 0.388098
vt 0.228369 0.340211
vt 0.312175 0.340211
vt 0.312175 0.388098
vt 0.228369 0.292507
vt 0.312175 0.292507
vt 0.228368 0.244410
vt 0.312175 0.244410
vt 0.228368 0.196444
vt 0.312175 0.196444
vt 0.228368 0.148379
vt 0.312175 0.148379
vt 0.228368 0.100699
vt 0.312175 0.100699
vt 0.228368 0.052729
vt 0.312175 0.052729
vt 0.228368 0.004881
vt 0.312175 0.004881
vt 0.228368 0.772005
vt 0.228369 0.724532
vt 0.312175 0.724532
vt 0.312175 0.772005
vt 0.228369 0.676351
vt 0.312175 0.676352
vt 0.228369 0.628269
vt 0.312175 0.628269
vt 0.228369 0.580223
vt 0.312175 0.580223
vt 0.228369 0.532227
vt 0.312175 0.532227
vt 0.228369 0.484184
vt 0.312175 0.484184
vt 0.228369 0.436139
vt 0.312175 0.436139
vt 0.130535 0.388098
vt 0.130535 0.340211
vt 0.130535 0.292507
vt 0.130535 0.244410
vt 0.130535 0.196444
vt 0.130535 0.148379
vt 0.130535 0.100699
vt 0.130535 0.052729
vt 0.130535 0.004881
vt 0.130535 0.772005
vt 0.130535 0.724532
vt 0.130535 0.676351
vt 0.130535 0.628269
vt 0.130535 0.580223
vt 0.130535 0.532227
vt 0.130535 0.484184
vt 0.130535 0.436139
vt 0.056523 0.388098
vt 0.056523 0.340211
vt 0.056523 0.292507
vt 0.056523 0.244410
vt 0.056523 0.196444
vt 0.056523 0.148379
vt 0.056523 0.100699
vt 0.056523 0.052729
vt 0.056523 0.004881
vt 0.056523 0.772005
vt 0.056523 0.724532
vt 0.056523 0.676351
vt 0.056523 0.628269
vt 0.056523 0.580223
vt 0.056523 0.532227
vt 0.056523 0.484184
vt 0.056523 0.436139
vt 0.653750 0.850969
vt 0.716808 0.862264
vt 0.717300 0.897871
vt 0.634480 0.897267
vt 0.779419 0.848997
vt 0.795377 0.883694
vt 0.831894 0.813234
vt 0.870535 0.850993
vt 0.866723 0.760097
vt 0.912870 0.780935
vt 0.879660 0.697201
vt 0.912870 0.698006
vt 0.866574 0.633317
vt 0.894763 0.621492
vt 0.830005 0.578975
vt 0.864010 0.543742
vt 0.774473 0.544482
vt 0.786451 0.513170
vt 0.710242 0.533379
vt 0.708476 0.500880
vt 0.647610 0.548482
vt 0.624482 0.501496
vt 0.595376 0.585410
vt 0.558131 0.550249
vt 0.562338 0.639788
vt 0.516216 0.622242
vt 0.551223 0.702291
vt 0.502501 0.704766
vt 0.564941 0.764099
vt 0.510198 0.788357
vt 0.601346 0.815299
vt 0.564996 0.852148
vt 0.669584 0.810836
vt 0.715905 0.819551
vt 0.762125 0.809913
vt 0.801019 0.783459
vt 0.826964 0.744139
vt 0.836191 0.697613
vt 0.826659 0.650709
vt 0.799655 0.611014
vt 0.759231 0.585170
vt 0.712045 0.576868
vt 0.665688 0.587457
vt 0.627082 0.614715
vt 0.602037 0.654593
vt 0.593812 0.700869
vt 0.603812 0.746579
vt 0.630453 0.784970
vt 0.689414 0.761751
vt 0.715434 0.766608
vt 0.741362 0.761143
vt 0.763231 0.746178
vt 0.777765 0.723976
vt 0.782741 0.697824
vt 0.777280 0.671665
vt 0.762122 0.649592
vt 0.739603 0.635084
vt 0.713264 0.630389
vt 0.687232 0.636181
vt 0.665480 0.651450
vt 0.651247 0.673816
vt 0.646619 0.699862
vt 0.652253 0.725655
vt 0.667267 0.747361
vt 0.701688 0.730500
vt 0.714836 0.733001
vt 0.727944 0.730286
vt 0.739033 0.722758
vt 0.746407 0.711558
vt 0.748941 0.698362
vt 0.746221 0.685187
vt 0.738638 0.674051
vt 0.727358 0.666685
vt 0.714115 0.664222
vt 0.700965 0.667027
vt 0.689907 0.674648
vt 0.682620 0.685896
vt 0.680184 0.699063
vt 0.682954 0.712143
vt 0.690504 0.723179
vt 0.725228 0.709543
vt 0.720244 0.712793
vt 0.714520 0.698661
vt 0.728568 0.704613
vt 0.729796 0.698782
vt 0.728669 0.692925
vt 0.725404 0.687932
vt 0.720458 0.684591
vt 0.714617 0.683380
vt 0.708763 0.684526
vt 0.703786 0.687799
vt 0.700465 0.692743
vt 0.699259 0.698566
vt 0.700402 0.704403
vt 0.703658 0.709374
vt 0.708586 0.712699
vt 0.090874 0.841802
vt 0.080126 0.841802
vt 0.080126 0.780884
vt 0.090874 0.780884
vt 0.069377 0.841802
vt 0.069377 0.780884
vt 0.058628 0.841802
vt 0.058628 0.780884
vt 0.047880 0.841802
vt 0.047880 0.780884
vt 0.037131 0.841802
vt 0.037131 0.780884
vt 0.026383 0.841802
vt 0.026383 0.780884
vt 0.015634 0.841802
vt 0.015634 0.780884
vt 0.004885 0.841802
vt 0.004885 0.780884
vt 0.176863 0.841802
vt 0.166114 0.841802
vt 0.166114 0.780884
vt 0.176863 0.780884
vt 0.155366 0.841802
vt 0.155366 0.780884
vt 0.144617 0.841802
vt 0.144617 0.780884
vt 0.133869 0.841802
vt 0.133869 0.780884
vt 0.123120 0.841802
vt 0.123120 0.780884
vt 0.112372 0.841802
vt 0.112371 0.780884
vt 0.101623 0.841802
vt 0.101623 0.780884
vt 0.090874 0.900000
vt 0.080126 0.900000
vt 0.069377 0.900000
vt 0.058628 0.900000
vt 0.047880 0.900000
vt 0.037131 0.900000
vt 0.026383 0.900000
vt 0.015634 0.900000
vt 0.004885 0.900000
vt 0.176863 0.900000
vt 0.166114 0.900000
vt 0.155366 0.900000
vt 0.144617 0.900000
vt 0.133869 0.900000
vt 0.123120 0.900000
vt 0.112372 0.900000
vt 0.101623 0.900000
vt 0.654758 0.252268
vt 0.661826 0.287824
vt 0.661713 0.216701
vt 0.681840 0.186621
vt 0.711964 0.166474
vt 0.747512 0.159424
vt 0.783086 0.166386
vt 0.813157 0.186514
vt 0.833221 0.216662
vt 0.840246 0.252207
vt 0.833271 0.287753
vt 0.813149 0.317811
vt 0.783068 0.337964
vt 0.747564 0.344986
vt 0.712015 0.337980
vt 0.681867 0.317947
vt 0.701431 0.252622
vt 0.705094 0.270238
vt 0.704774 0.234942
vt 0.714638 0.219904
vt 0.729509 0.209778
vt 0.747123 0.206113
vt 0.764798 0.209453
vt 0.779825 0.219317
vt 0.789930 0.234192
vt 0.793582 0.251808
vt 0.790235 0.269485
vt 0.780375 0.284517
vt 0.765514 0.294640
vt 0.747910 0.298297
vt 0.730239 0.294955
vt 0.715199 0.285105
vt 0.714403 0.713920
vt 0.187167 0.791881
vt 0.230486 0.791881
vt 0.230486 0.800653
vt 0.187167 0.800653
vt 0.187167 0.783108
vt 0.230486 0.783108
vt 0.187167 0.844498
vt 0.230486 0.844498
vt 0.230486 0.853271
vt 0.187167 0.853271
vt 0.187167 0.835726
vt 0.230486 0.835726
vt 0.187167 0.826957
vt 0.230486 0.826957
vt 0.187167 0.818190
vt 0.230486 0.818190
vt 0.187167 0.809422
vt 0.230486 0.809422
vt 0.273237 0.791881
vt 0.273237 0.800653
vt 0.273237 0.783108
vt 0.273237 0.844498
vt 0.273237 0.853271
vt 0.273237 0.835726
vt 0.273237 0.826957
vt 0.273237 0.818190
vt 0.273237 0.809422
vt 0.311240 0.791881
vt 0.311240 0.800653
vt 0.311240 0.783108
vt 0.311240 0.844498
vt 0.311240 0.853271
vt 0.311240 0.835726
vt 0.311240 0.826957
vt 0.311240 0.818190
vt 0.311240 0.809422
vt 0.348992 0.791881
vt 0.348992 0.800653
vt 0.348992 0.783108
vt 0.348992 0.844498
vt 0.348992 0.853271
vt 0.348992 0.835726
vt 0.348992 0.826957
vt 0.348992 0.818190
vt 0.348992 0.809422
vt 0.386376 0.791881
vt 0.386376 0.800653
vt 0.386376 0.783108
vt 0.386376 0.844498
vt 0.386376 0.853271
vt 0.386376 0.835726
vt 0.386376 0.826957
vt 0.386376 0.818190
vt 0.386376 0.809422
vt 0.423482 0.791881
vt 0.423482 0.800653
vt 0.423482 0.783108
vt 0.423482 0.844498
vt 0.423482 0.853271
vt 0.423482 0.835726
vt 0.423482 0.826957
vt 0.423482 0.818190
vt 0.423482 0.809422
vt 0.452056 0.791881
vt 0.452056 0.800653
vt 0.452056 0.783108
vt 0.452056 0.844498
vt 0.452056 0.853271
vt 0.452056 0.835726
vt 0.452056 0.826957
vt 0.452056 0.818190
vt 0.452056 0.809422
vt 0.478527 0.791881
vt 0.478527 0.800653
vt 0.478527 0.783108
vt 0.478527 0.844498
vt 0.478527 0.853271
vt 0.478527 0.835726
vt 0.478527 0.826957
vt 0.478527 0.818190
vt 0.478527 0.809422
vt 0.746075 0.248406
vt 0.749373 0.256596
vt 0.742494 0.256803
vt 0.737691 0.251751
vt 0.754510 0.251995
vt 0.754466 0.245011
vt 0.760312 0.242956
vt 0.759968 0.254418
vt 0.751689 0.262392
vt 0.740238 0.262287
vt 0.732175 0.254328
vt 0.737773 0.244823
vt 0.731947 0.242763
vt 0.742740 0.239999
vt 0.740098 0.234309
vt 0.749557 0.240266
vt 0.752100 0.234309
vt 0.004887 0.436139
vt 0.004887 0.388098
vt 0.004887 0.484184
vt 0.004887 0.532227
vt 0.004887 0.580223
vt 0.004887 0.628269
vt 0.004887 0.676351
vt 0.004887 0.724532
vt 0.004887 0.772005
vt 0.004887 0.052729
vt 0.004887 0.004881
vt 0.004887 0.100699
vt 0.004887 0.148379
vt 0.004887 0.196444
vt 0.004887 0.244410
vt 0.004887 0.292507
vt 0.004887 0.340211
s 1
f 2/1/1 17/2/2 16/3/3 1/4/4
f 17/2/2 32/5/5 31/6/6 16/3/3
f 32/5/5 47/7/7 46/8/8 31/6/6
f 47/7/7 62/9/9 61/10/10 46/8/8
f 62/9/9 77/11/11 76/12/12 61/10/10
f 77/11/11 92/13/13 91/14/14 76/12/12
f 92/13/13 107/15/15 106/16/16 91/14/14
f 107/15/15 122/17/17 121/18/18 106/16/16
f 122/17/17 137/19/19 136/20/20 121/18/18
f 137/19/19 152/21/21 151/22/22 136/20/20
f 152/21/21 167/23/23 166/24/24 151/22/22
f 167/23/23 182/25/25 181/26/26 166/24/24
f 182/25/25 197/27/27 196/28/28 181/26/26
f 197/27/27 212/29/29 211/30/30 196/28/28
f 212/29/29 228/31/31 227/32/32 211/30/30
f 228/31/31 2/1/1 1/4/4 227/32/32
f 3/33/33 18/34/34 17/2/2 2/1/1
f 18/34/34 33/35/35 32/5/5 17/2/2
f 33/35/35 48/36/36 47/7/7 32/5/5
f 48/36/36 63/37/37 62/9/9 47/7/7
f 63/37/37 78/38/38 77/11/11 62/9/9
f 78/38/38 93/39/39 92/13/13 77/11/11
f 93/39/39 108/40/40 107/15/15 92/13/13
f 108/40/40 123/41/41 122/17/17 107/15/15
f 123/41/41 138/42/42 137/19/19 122/17/17
f 138/42/42 153/43/43 152/21/21 137/19/19
f 153/43/43 168/44/44 167/23/23 152/21/21
f 168/44/44 183/45/45 182/25/25 167/23/23
f 183/45/45 198/46/46 197/27/27 182/25/25
f 198/46/46 213/47/47 212/29/29 197/27/27
f 213/47/47 229/48/48 228/31/31 212/29/29
f 229/48/48 3/33/33 2/1/1 228/31/31
f 355/49/49 356/50/50 18/51/51 3/52/52
f 356/50/50 357/53/53 33/54/54 18/51/51
f 357/53/53 358/55/55 48/56/56 33/54/54
f 358/55/55 359/57/57 63/58/58 48/56/56
f 359/57/57 360/59/59 78/60/60 63/58/58
f 360/59/59 361/61/61 93/62/62 78/60/60
f 361/61/61 362/63/63 108/64/64 93/62/62
f 362/63/63 363/65/65 123/66/66 108/64/64
f 363/67/65 364/68/67 138/69/68 123/70/66
f 364/68/67 365/71/69 153/72/70 138/69/68
f 365/71/69 366/73/71 168/74/72 153/72/70
f 366/73/71 367/75/73 183/76/74 168/74/72
f 367/75/73 368/77/75 198/78/76 183/76/74
f 368/77/75 369/79/77 213/80/78 198/78/76
f 369/79/77 370/81/79 229/82/80 213/80/78
f 370/81/79 355/49/49 3/52/52 229/82/80
f 5/83/81 20/84/82 19/85/83 4/86/84
f 20/84/82 35/87/85 34/88/86 19/85/83
f 35/87/85 50/89/87 49/90/88 34/88/86
f 50/89/87 65/91/89 64/92/90 49/90/88
f 65/91/89 80/93/91 79/94/92 64/92/90
f 80/93/91 95/95/93 94/96/94 79/94/92
f 95/95/93 110/97/95 109/98/96 94/96/94
f 110/97/95 125/99/97 124/100/98 109/98/96
f 125/101/97 140/102/99 139/103/100 124/104/98
f 140/102/99 155/105/101 154/106/102 139/103/100
f 155/105/101 170/107/103 169/108/104 154/106/102
f 170/107/103 185/109/105 184/110/106 169/108/104
f 185/109/105 200/111/107 199/112/108 184/110/106
f 200/111/107 215/113/109 214/114/110 199/112/108
f 215/113/109 231/115/111 230/116/112 214/114/110
f 231/115/111 5/83/81 4/86/84 230/116/112
f 6/117/113 21/118/114 20/84/82 5/83/81
f 21/118/114 36/119/115 35/87/85 20/84/82
f 36/119/115 51/120/116 50/89/87 35/87/85
f 51/120/116 66/121/117 65/91/89 50/89/87
f 66/121/117 81/122/118 80/93/91 65/91/89
f 81/122/118 96/123/119 95/95/93 80/93/91
f 96/123/119 111/124/120 110/97/95 95/95/93
f 111/124/120 126/125/121 125/99/97 110/97/95
f 126/126/121 141/127/122 140/102/99 125/101/97
f 141/127/122 156/128/123 155/105/101 140/102/99
f 156/128/123 171/129/124 170/107/103 155/105/101
f 171/129/124 186/130/125 185/109/105 170/107/103
f 186/130/125 201/131/126 200/111/107 185/109/105
f 201/131/126 216/132/127 215/113/109 200/111/107
f 216/132/127 232/133/128 231/115/111 215/113/109
f 232/133/128 6/117/113 5/83/81 231/115/111
f 339/134/129 340/135/130 21/118/114 6/117/113
f 340/135/130 341/136/131 36/119/115 21/118/114
f 341/136/131 342/137/132 51/120/116 36/119/115
f 342/137/132 343/138/133 66/121/117 51/120/116
f 343/138/133 344/139/134 81/122/118 66/121/117
f 344/139/134 345/140/135 96/123/119 81/122/118
f 345/140/135 346/141/136 111/124/120 96/123/119
f 346/141/136 347/142/137 126/125/121 111/124/120
f 347/143/137 348/144/138 141/127/122 126/126/121
f 348/144/138 349/145/139 156/128/123 141/127/122
f 349/145/139 350/146/140 171/129/124 156/128/123
f 350/146/140 351/147/141 186/130/125 171/129/124
f 351/147/141 352/148/142 201/131/126 186/130/125
f 352/148/142 353/149/143 216/132/127 201/131/126
f 353/149/143 354/150/144 232/133/128 216/132/127
f 354/150/144 339/134/129 6/117/113 232/133/128
f 8/151/145 23/152/146 22/153/147 7/154/148
f 23/152/146 38/155/149 37/156/150 22/153/147
f 38/155/149 53/157/151 52/158/152 37/156/150
f 53/157/151 68/159/153 67/160/154 52/158/152
f 68/159/153 83/161/155 82/162/156 67/160/154
f 83/161/155 98/163/157 97/164/158 82/162/156
f 98/163/157 113/165/159 112/166/160 97/164/158
f 113/165/159 128/167/161 127/168/162 112/166/160
f 128/167/161 143/169/163 142/170/164 127/168/162
f 143/169/163 158/171/165 157/172/166 142/170/164
f 158/171/165 173/173/167 172/174/168 157/172/166
f 173/173/167 188/175/169 187/176/170 172/174/168
f 188/175/169 203/177/171 202/178/172 187/176/170
f 203/177/171 218/179/173 217/180/174 202/178/172
f 218/179/173 234/181/175 233/182/176 217/180/174
f 234/181/175 8/151/145 7/154/148 233/182/176
f 9/183/177 24/184/178 23/152/146 8/151/145
f 24/184/178 39/185/179 38/155/149 23/152/146
f 39/185/179 54/186/180 53/157/151 38/155/149
f 54/186/180 69/187/181 68/159/153 53/157/151
f 69/187/181 84/188/182 83/161/155 68/159/153
f 84/188/182 99/189/183 98/163/157 83/161/155
f 99/189/183 114/190/184 113/165/159 98/163/157
f 114/190/184 129/191/185 128/167/161 113/165/159
f 129/191/185 144/192/186 143/169/163 128/167/161
f 144/192/186 159/193/187 158/171/165 143/169/163
f 159/193/187 174/194/188 173/173/167 158/171/165
f 174/194/188 189/195/189 188/175/169 173/173/167
f 189/195/189 204/196/190 203/177/171 188/175/169
f 204/196/190 219/197/191 218/179/173 203/177/171
f 219/197/191 235/198/192 234/181/175 218/179/173
f 235/198/192 9/183/177 8/151/145 234/181/175
f 10/199/193 25/200/194 24/184/178 9/183/177
f 25/200/194 40/201/195 39/185/179 24/184/178
f 40/201/195 55/202/196 54/186/180 39/185/179
f 55/202/196 70/203/197 69/187/181 54/186/180
f 70/203/197 85/204/198 84/188/182 69/187/181
f 85/204/198 100/205/199 99/189/183 84/188/182
f 100/205/199 115/206/200 114/190/184 99/189/183
f 115/206/200 130/207/201 129/191/185 114/190/184
f 130/207/201 145/208/202 144/192/186 129/191/185
f 145/208/202 160/209/203 159/193/187 144/192/186
f 160/209/203 175/210/204 174/194/188 159/193/187
f 175/210/204 190/211/205 189/195/189 174/194/188
f 190/211/205 205/212/206 204/196/190 189/195/189
f 205/212/206 220/213/207 219/197/191 204/196/190
f 220/213/207 236/214/208 235/198/192 219/197/191
f 236/214/208 10/199/193 9/183/177 235/198/192
f 242/215/209 243/216/210 25/200/194 10/199/193
f 243/216/210 244/217/211 40/201/195 25/200/194
f 244/217/211 245/218/212 55/202/196 40/201/195
f 245/218/212 246/219/213 70/203/197 55/202/196
f 246/219/213 247/220/214 85/204/198 70/203/197
f 247/220/214 248/221/215 100/205/199 85/204/198
f 248/221/215 249/222/216 115/206/200 100/205/199
f 249/222/216 250/223/217 130/207/201 115/206/200
f 250/223/217 251/224/218 145/208/202 130/207/201
f 251/224/218 252/225/219 160/209/203 145/208/202
f 252/225/219 253/226/220 175/210/204 160/209/203
f 253/226/220 254/227/221 190/211/205 175/210/204
f 254/227/221 255/228/222 205/212/206 190/211/205
f 255/228/222 256/229/223 220/213/207 205/212/206
f 256/229/223 257/230/224 236/214/208 220/213/207
f 257/230/224 242/215/209 10/199/193 236/214/208
f 56/231/225 41/232/226 222/233/227 71/234/228
f 86/235/229 71/234/228 222/233/227 101/236/230
f 116/237/231 101/236/230 222/233/227 131/238/232
f 146/239/233 131/238/232 222/233/227 161/240/234
f 176/241/235 161/240/234 222/233/227 191/242/236
f 206/243/237 191/242/236 222/233/227 221/244/238
f 237/245/239 221/244/238 222/233/227 11/246/240
f 13/247/241 28/248/242 27/249/243 12/250/244
f 28/248/242 43/251/245 42/252/246 27/249/243
f 43/251/245 58/253/247 57/254/248 42/252/246
f 58/253/247 73/255/249 72/256/250 57/254/248
f 73/255/249 88/257/251 87/258/252 72/256/250
f 88/257/251 103/259/253 102/260/254 87/258/252
f 103/259/253 118/261/255 117/262/256 102/260/254
f 118/261/255 133/263/257 132/264/258 117/262/256
f 133/265/257 148/266/259 147/267/260 132/268/258
f 148/266/259 163/269/261 162/270/262 147/267/260
f 163/269/261 178/271/263 177/272/264 162/270/262
f 178/271/263 193/273/265 192/274/266 177/272/264
f 193/273/265 208/275/267 207/276/268 192/274/266
f 208/275/267 224/277/269 223/278/270 207/276/268
f 224/277/269 239/279/271 238/280/272 223/278/270
f 239/279/271 13/247/241 12/250/244 238/280/272
f 15/281/273 30/282/274 28/248/242 13/247/241
f 30/282/274 45/283/275 43/251/245 28/248/242
f 45/283/275 60/284/276 58/253/247 43/251/245
f 60/284/276 75/285/277 73/255/249 58/253/247
f 75/285/277 90/286/278 88/257/251 73/255/249
f 90/286/278 105/287/279 103/259/253 88/257/251
f 105/287/279 120/288/280 118/261/255 103/259/253
f 120/288/280 135/289/281 133/263/257 118/261/255
f 135/290/281 150/291/282 148/266/259 133/265/257
f 150/291/282 165/292/283 163/269/261 148/266/259
f 165/292/283 180/293/284 178/271/263 163/269/261
f 180/293/284 195/294/285 193/273/265 178/271/263
f 195/294/285 210/295/286 208/275/267 193/273/265
f 210/295/286 226/296/287 224/277/269 208/275/267
f 226/296/287 241/297/288 239/279/271 224/277/269
f 241/297/288 15/281/273 13/247/241 239/279/271
f 1/4/4 16/3/3 29/298/289 14/299/290
f 16/3/3 31/6/6 44/300/291 29/298/289
f 31/6/6 46/8/8 59/301/292 44/300/291
f 46/8/8 61/10/10 74/302/293 59/301/292
f 61/10/10 76/12/12 89/303/294 74/302/293
f 76/12/12 91/14/14 104/304/295 89/303/294
f 91/14/14 106/16/16 119/305/296 104/304/295
f 106/16/16 121/18/18 134/306/297 119/305/296
f 121/18/18 136/20/20 149/307/298 134/306/297
f 136/20/20 151/22/22 164/308/299 149/307/298
f 151/22/22 166/24/24 179/309/300 164/308/299
f 166/24/24 181/26/26 194/310/301 179/309/300
f 181/26/26 196/28/28 209/311/302 194/310/301
f 196/28/28 211/30/30 225/312/303 209/311/302
f 211/30/30 227/32/32 240/313/304 225/312/303
f 227/32/32 1/4/4 14/299/290 240/313/304
f 14/299/290 29/298/289 30/314/274 15/315/273
f 29/298/289 44/300/291 45/316/275 30/314/274
f 44/300/291 59/301/292 60/317/276 45/316/275
f 59/301/292 74/302/293 75/318/277 60/317/276
f 74/302/293 89/303/294 90/319/278 75/318/277
f 89/303/294 104/304/295 105/320/279 90/319/278
f 104/304/295 119/305/296 120/321/280 105/320/279
f 119/305/296 134/306/297 135/322/281 120/321/280
f 134/306/297 149/307/298 150/323/282 135/322/281
f 149/307/298 164/308/299 165/324/283 150/323/282
f 164/308/299 179/309/300 180/325/284 165/324/283
f 179/309/300 194/310/301 195/326/285 180/325/284
f 194/310/301 209/311/302 210/327/286 195/326/285
f 209/311/302 225/312/303 226/328/287 210/327/286
f 225/312/303 240/313/304 241/329/288 226/328/287
f 240/313/304 14/299/290 15/315/273 241/329/288
f 26/330/305 11/246/240 222/233/227 41/232/226
f 237/245/239 11/246/240 242/215/209 257/230/224
f 221/244/238 237/245/239 257/230/224 256/229/223
f 206/243/237 221/244/238 256/229/223 255/228/222
f 191/242/236 206/243/237 255/228/222 254/227/221
f 176/241/235 191/242/236 254/227/221 253/226/220
f 161/240/234 176/241/235 253/226/220 252/225/219
f 146/239/233 161/240/234 252/225/219 251/224/218
f 131/238/232 146/239/233 251/224/218 250/223/217
f 116/237/231 131/238/232 250/223/217 249/222/216
f 101/236/230 116/237/231 249/222/216 248/221/215
f 86/235/229 101/236/230 248/221/215 247/220/214
f 71/234/228 86/235/229 247/220/214 246/219/213
f 56/231/225 71/234/228 246/219/213 245/218/212
f 41/232/226 56/231/225 245/218/212 244/217/211
f 26/330/305 41/232/226 244/217/211 243/216/210
f 11/246/240 26/330/305 243/216/210 242/215/209
f 258/331/306 266/332/307 273/333/308 265/334/309
f 259/335/310 267/336/311 266/332/307 258/331/306
f 260/337/312 268/338/313 267/339/311 259/340/310
f 261/341/314 269/342/315 268/338/313 260/337/312
f 262/343/316 270/344/317 269/342/315 261/341/314
f 263/345/318 271/346/319 270/344/317 262/343/316
f 264/347/320 272/348/321 271/346/319 263/345/318
f 265/334/309 273/333/308 272/348/321 264/347/320
f 266/332/307 274/349/322 281/350/323 273/333/308
f 267/336/311 275/351/324 274/349/322 266/332/307
f 268/338/313 276/352/325 275/353/324 267/339/311
f 269/342/315 277/354/326 276/352/325 268/338/313
f 270/344/317 278/355/327 277/354/326 269/342/315
f 271/346/319 279/356/328 278/355/327 270/344/317
f 272/348/321 280/357/329 279/356/328 271/346/319
f 273/333/308 281/350/323 280/357/329 272/348/321
f 274/349/322 282/358/330 289/359/331 281/350/323
f 275/351/324 283/360/332 282/358/330 274/349/322
f 276/352/325 284/361/333 283/362/332 275/353/324
f 277/354/326 285/363/334 284/361/333 276/352/325
f 278/355/327 286/364/335 285/363/334 277/354/326
f 279/356/328 287/365/336 286/364/335 278/355/327
f 280/357/329 288/366/337 287/365/336 279/356/328
f 281/350/323 289/359/331 288/366/337 280/357/329
f 282/358/330 290/367/338 297/368/339 289/359/331
f 283/360/332 291/369/340 290/367/338 282/358/330
f 284/361/333 292/370/341 291/371/340 283/362/332
f 285/363/334 293/372/342 292/370/341 284/361/333
f 286/364/335 294/373/343 293/372/342 285/363/334
f 287/365/336 295/374/344 294/373/343 286/364/335
f 288/366/337 296/375/345 295/374/344 287/365/336
f 289/359/331 297/368/339 296/375/345 288/366/337
f 290/367/338 298/376/346 305/377/347 297/368/339
f 291/369/340 299/378/348 298/376/346 290/367/338
f 292/370/341 300/379/349 299/380/348 291/371/340
f 293/372/342 301/381/350 300/379/349 292/370/341
f 294/373/343 302/382/351 301/381/350 293/372/342
f 295/374/344 303/383/352 302/382/351 294/373/343
f 296/375/345 304/384/353 303/383/352 295/374/344
f 297/368/339 305/377/347 304/384/353 296/375/345
f 298/376/346 306/385/354 313/386/355 305/377/347
f 299/378/348 307/387/356 306/385/354 298/376/346
f 300/379/349 308/388/357 307/389/356 299/380/348
f 301/381/350 309/390/358 308/388/357 300/379/349
f 302/382/351 310/391/359 309/390/358 301/381/350
f 303/383/352 311/392/360 310/391/359 302/382/351
f 304/384/353 312/393/361 311/392/360 303/383/352
f 305/377/347 313/386/355 312/393/361 304/384/353
f 306/385/354 314/394/362 321/395/363 313/386/355
f 307/387/356 315/396/364 314/394/362 306/385/354
f 308/388/357 316/397/365 315/398/364 307/389/356
f 309/390/358 317/399/366 316/397/365 308/388/357
f 310/391/359 318/400/367 317/399/366 309/390/358
f 311/392/360 319/401/368 318/400/367 310/391/359
f 312/393/361 320/402/369 319/401/368 311/392/360
f 313/386/355 321/395/363 320/402/369 312/393/361
f 314/394/362 330/403/370 331/404/371 321/395/363
f 315/396/364 332/405/372 330/403/370 314/394/362
f 316/397/365 333/406/373 332/407/372 315/398/364
f 317/399/366 334/408/374 333/406/373 316/397/365
f 318/400/367 335/409/375 334/408/374 317/399/366
f 319/401/368 336/410/376 335/409/375 318/400/367
f 320/402/369 337/411/377 336/410/376 319/401/368
f 321/395/363 331/404/371 337/411/377 320/402/369
f 338/412/378 323/413/379 324/414/380 325/415/381
f 322/416/382 329/417/383 331/418/371 330/419/370
f 323/413/379 322/416/382 330/419/370 332/420/372
f 324/414/380 323/413/379 332/420/372 333/421/373
f 325/415/381 324/414/380 333/421/373 334/422/374
f 326/423/384 325/415/381 334/422/374 335/424/375
f 327/425/385 326/423/384 335/424/375 336/426/376
f 328/427/386 327/425/385 336/426/376 337/428/377
f 329/417/383 328/427/386 337/428/377 331/418/371
f 329/417/383 322/416/382 323/413/379 338/412/378
f 328/427/386 329/417/383 338/412/378 327/425/385
f 327/425/385 338/412/378 325/415/381 326/423/384
f 233/429/387 7/430/388 339/134/129 354/150/144
f 217/431/389 233/429/387 354/150/144 353/149/143
f 202/432/390 217/431/389 353/149/143 352/148/142
f 187/433/391 202/432/390 352/148/142 351/147/141
f 172/434/392 187/433/391 351/147/141 350/146/140
f 157/435/393 172/434/392 350/146/140 349/145/139
f 142/436/394 157/435/393 349/145/139 348/144/138
f 127/437/395 142/436/394 348/144/138 347/143/137
f 112/438/396 127/439/395 347/142/137 346/141/136
f 97/440/397 112/438/396 346/141/136 345/140/135
f 82/441/398 97/440/397 345/140/135 344/139/134
f 67/442/399 82/441/398 344/139/134 343/138/133
f 52/443/400 67/442/399 343/138/133 342/137/132
f 37/444/401 52/443/400 342/137/132 341/136/131
f 22/445/402 37/444/401 341/136/131 340/135/130
f 7/430/388 22/445/402 340/135/130 339/134/129
f 230/116/112 4/86/84 355/49/49 370/81/79
f 214/114/110 230/116/112 370/81/79 369/79/77
f 199/112/108 214/114/110 369/79/77 368/77/75
f 184/110/106 199/112/108 368/77/75 367/75/73
f 169/108/104 184/110/106 367/75/73 366/73/71
f 154/106/102 169/108/104 366/73/71 365/71/69
f 139/103/100 154/106/102 365/71/69 364/68/67
f 124/104/98 139/103/100 364/68/67 363/67/65
f 109/98/96 124/100/98 363/65/65 362/63/63
f 94/96/94 109/98/96 362/63/63 361/61/61
f 79/94/92 94/96/94 361/61/61 360/59/59
f 64/92/90 79/94/92 360/59/59 359/57/57
f 49/90/88 64/92/90 359/57/57 358/55/55
f 34/88/86 49/90/88 358/55/55 357/53/53
f 19/85/83 34/88/86 357/53/53 356/50/50
f 4/86/84 19/85/83 356/50/50 355/49/49
