# Blender 4.0.2
# www.blender.org
o button_01
v -0.004631 -0.000000 0.004447
v -0.005283 -0.000000 0.002883
v -0.003064 -0.000000 0.005092
v 0.000014 -0.000000 0.005308
v 0.000014 -0.000000 0.004464
v 0.000014 -0.000000 0.002872
v 0.000014 -0.000000 0.001310
v -0.000855 -0.000000 0.002874
v -0.001512 0.000000 -0.000000
v -0.001507 -0.000000 0.001310
v -0.003074 -0.000000 0.000665
v -0.004638 -0.000000 0.001317
v -0.004661 0.000000 -0.000000
v -0.003075 0.000000 -0.000000
v -0.005536 0.000000 0.000000
v -0.004643 0.000000 -0.001234
v -0.005295 0.000000 -0.002798
v -0.004650 0.000000 -0.004365
v -0.003086 0.000000 -0.005017
v -0.001519 0.000000 -0.004372
v 0.000014 0.000000 -0.005236
v 0.000014 0.000000 -0.004392
v 0.000014 0.000000 -0.002809
v 0.001550 0.000000 -0.004378
v 0.003114 0.000000 -0.005030
v 0.005589 0.000000 0.000000
v 0.010750 0.000000 -0.000000
v 0.009888 -0.000000 0.004150
v 0.010745 0.002386 0.000000
v 0.009976 0.000000 -0.004077
v 0.007683 0.000000 -0.007590
v 0.009970 0.002386 -0.004076
v 0.007677 0.002386 -0.007588
v 0.008980 0.002386 0.000000
v 0.008294 0.002386 0.003376
v 0.008716 0.001741 0.000000
v 0.008298 0.002386 -0.003502
v 0.006352 0.002386 -0.006419
v 0.008054 0.001741 -0.003401
v 0.006165 0.001741 -0.006231
v 0.003337 0.001741 -0.008123
v 0.000014 0.001741 -0.008789
v 0.003438 0.002386 -0.008368
v 0.000014 0.002386 -0.009054
v 0.004215 0.002386 -0.009956
v 0.000014 0.002386 -0.010818
v 0.004220 0.000000 -0.009957
v 0.000014 0.000000 -0.010820
v -0.004008 0.000000 -0.010045
v -0.007520 0.000000 -0.007752
v -0.009888 0.000000 -0.004290
v -0.010750 0.000000 -0.000000
v -0.009976 -0.000000 0.003938
v -0.007683 -0.000000 0.007451
v -0.004220 -0.000000 0.009818
v 0.000014 -0.000000 0.010680
v 0.004008 -0.000000 0.009906
v 0.004700 -0.000000 0.004428
v 0.005345 -0.000000 0.002861
v 0.003136 -0.000000 0.005079
v 0.001569 -0.000000 0.004434
v 0.000917 -0.000000 0.002870
v 0.001562 -0.000000 0.001304
v 0.003126 -0.000000 0.000652
v 0.001562 0.000000 -0.000000
v 0.003125 0.000000 -0.000000
v 0.000014 0.000000 -0.000000
v 0.000014 0.000000 -0.001241
v -0.001512 0.000000 -0.001241
v -0.000867 0.000000 -0.002808
v -0.003076 0.000000 -0.000589
v -0.003082 0.001743 -0.000588
v -0.001518 0.001747 -0.001239
v -0.000873 0.001743 -0.002806
v -0.001524 0.001735 -0.004370
v -0.003091 0.001726 -0.005015
v -0.004655 0.001723 -0.004364
v -0.005300 0.001726 -0.002797
v -0.004648 0.001735 -0.001233
v -0.005744 0.001741 -0.000001
v -0.004686 0.001741 -0.000000
v -0.008725 0.001741 0.000000
v -0.008992 0.002386 0.000000
v -0.008060 0.001741 -0.003410
v -0.008063 0.001741 0.003264
v -0.006175 0.001741 0.006095
v -0.008310 0.002386 0.003366
v -0.006364 0.002386 0.006283
v -0.008306 0.002386 -0.003512
v -0.006357 0.002386 -0.006426
v -0.003440 0.002386 -0.008372
v -0.006168 0.001741 -0.006238
v -0.003337 0.001741 -0.008127
v 0.000014 0.001741 -0.005455
v 0.000014 0.001741 -0.004417
v 0.000014 0.001741 -0.002808
v 0.001545 0.001741 -0.004377
v 0.000900 0.001741 -0.002810
v 0.001552 0.001741 -0.001246
v 0.001552 0.001741 0.000000
v 0.000014 0.001741 -0.001246
v 0.000014 0.001741 0.000000
v 0.000014 0.001741 0.001305
v -0.001512 0.001741 0.000000
v -0.003080 0.001741 0.000000
v -0.001512 0.001741 0.001311
v -0.000861 0.001741 0.002875
v -0.003079 0.001741 0.000666
v -0.004643 0.001741 0.001318
v -0.005288 0.001741 0.002885
v -0.004636 0.001643 0.004449
v -0.003070 0.001741 0.005094
v 0.000014 0.001741 0.005523
v -0.003346 0.001741 0.007987
v 0.000014 0.001741 0.008652
v -0.003449 0.002386 0.008232
v 0.000014 0.002386 0.008918
v -0.004226 0.002386 0.009820
v 0.000014 0.002386 0.010682
v -0.007688 0.002386 0.007452
v -0.009981 0.002386 0.003939
v -0.010755 0.002386 0.000000
v -0.009893 0.002386 -0.004288
v -0.007525 0.002386 -0.007751
v -0.004013 0.002386 -0.010044
v 0.004002 0.002386 0.009908
v 0.007515 0.002386 0.007615
v 0.003428 0.002386 0.008236
v 0.006345 0.002386 0.006290
v 0.003328 0.001741 0.007990
v 0.006158 0.001741 0.006102
v 0.003131 0.001741 0.005081
v 0.004694 0.001741 0.004429
v 0.001564 0.001679 0.004436
v 0.000912 0.001679 0.002872
v 0.001557 0.001682 0.001305
v 0.003121 0.001687 0.000653
v 0.004688 0.001691 0.001298
v 0.004693 -0.000000 0.001297
v 0.004714 0.000000 -0.000000
v 0.004688 0.000000 -0.001254
v 0.003124 0.000000 -0.000602
v 0.001557 0.000000 -0.001247
v 0.000905 0.000000 -0.002811
v 0.003109 0.001741 -0.005028
v 0.004681 0.000000 -0.004385
v 0.004676 0.001699 -0.004383
v 0.005328 0.001741 -0.002819
v 0.004682 0.001741 -0.001253
v 0.003119 0.001741 -0.000601
v 0.004731 0.001741 -0.000000
v 0.003120 0.001741 0.000000
v 0.005790 0.001741 -0.000001
v 0.005340 0.001741 0.002862
v 0.008050 0.001741 0.003273
v 0.005333 0.000000 -0.002821
v 0.000014 0.001741 0.002874
v 0.000014 0.001741 0.004476
v 0.007520 -0.000000 0.007613
v 0.009882 0.002386 0.004152
v -0.001506 0.001741 0.004442
v -0.001500 -0.000000 0.004441
v 0.002015 -0.000682 -0.001842
v 0.001601 -0.000682 -0.002834
v 0.001835 0.001241 -0.001896
v 0.003006 -0.000682 -0.001437
v 0.002706 0.001614 -0.001387
v 0.003994 -0.000682 -0.001854
v 0.003409 0.002409 -0.001564
v 0.004400 -0.000682 -0.002850
v 0.003531 0.003161 -0.002324
v 0.003987 -0.000682 -0.003842
v 0.003002 0.003429 -0.003221
v 0.002996 -0.000682 -0.004247
v 0.002130 0.003057 -0.003730
v 0.002007 -0.000682 -0.003830
v 0.001427 0.002262 -0.003553
v 0.001305 0.001510 -0.002794
v -0.001428 0.002276 -0.000927
v -0.001057 0.001594 -0.000664
v -0.003892 0.001839 0.001513
v -0.001218 0.003001 -0.000608
v -0.000551 0.003345 0.000107
v -0.004174 0.002482 0.002328
v -0.004474 -0.000682 0.002834
v -0.003710 0.002792 0.003248
v -0.004057 -0.000682 0.003825
v -0.002772 0.002587 0.003734
v -0.003063 -0.000682 0.004235
v -0.001910 0.001986 0.003502
v 0.000183 0.003105 0.000798
v 0.000554 0.002423 0.001061
v 0.000344 0.001698 0.000742
v -0.000324 0.001355 0.000028
v -0.001629 0.001343 0.002687
v -0.002093 0.001033 0.001766
v -0.001671 -0.000682 0.002832
v -0.002088 -0.000682 0.001841
v -0.002075 -0.000682 0.003823
v -0.003082 -0.000682 0.001432
v -0.003030 0.001239 0.001280
v -0.004070 -0.000682 0.001843
v -0.001506 -0.000682 -0.001797
v -0.002459 -0.000682 -0.001332
v -0.001748 0.001371 -0.001669
v -0.001159 -0.000682 -0.002812
v -0.001425 0.001667 -0.002394
v -0.001620 -0.000682 -0.003782
v -0.001682 0.002219 -0.002983
v -0.002621 -0.000682 -0.004139
v -0.002369 0.002702 -0.003092
v -0.003574 -0.000682 -0.003673
v -0.003083 0.002834 -0.002657
v -0.003922 -0.000682 -0.002659
v -0.003404 0.002513 -0.001934
v -0.003460 -0.000682 -0.001689
v -0.003148 0.001962 -0.001344
v -0.002463 0.001503 -0.001234
v -0.002622 0.003033 -0.000251
v -0.002024 0.002596 -0.000333
v -0.001425 0.003794 0.001042
v -0.002674 0.003557 -0.000779
v -0.002149 0.003861 -0.001607
v -0.001223 0.004458 0.000762
v -0.000593 0.004820 0.000036
v 0.000558 0.004106 0.002330
v 0.001342 0.004417 0.001735
v -0.000018 0.003565 0.002293
v 0.001990 0.003261 0.003309
v 0.002717 0.003616 0.002851
v 0.001373 0.002585 0.003141
v 0.003170 -0.000682 0.004124
v 0.004139 -0.000682 0.003663
v 0.002159 -0.000682 0.003763
v 0.001700 -0.000682 0.002791
v 0.001229 0.001985 0.002446
v 0.002060 -0.000682 0.001778
v 0.001642 0.001811 0.001631
v 0.003028 -0.000682 0.001316
v 0.002369 0.002165 0.001173
v 0.004039 -0.000682 0.001677
v 0.002986 0.002841 0.001341
v 0.004499 -0.000682 0.002650
v 0.003130 0.003442 0.002036
v 0.001877 0.004315 0.000857
v 0.000096 0.004667 -0.000711
v 0.001848 0.003860 0.000211
v 0.001273 0.003319 0.000174
v 0.000440 0.004090 -0.001040
v 0.000238 0.003426 -0.000760
v -0.000756 0.003329 -0.002333
v -0.000705 0.002805 -0.001805
v -0.001355 0.003766 -0.002251
v -0.001229 0.002502 -0.000977
v -0.000392 0.003064 -0.000034
v -0.001081 0.003217 0.000713
v 0.000488 0.003008 0.000769
v -0.000046 0.003110 0.001647
vn 1.0000 0.0030 0.0055
vn 0.7059 0.0027 -0.7083
vn 0.7053 0.0027 -0.7089
vn 1.0000 0.0031 -0.0019
vn -0.7053 -0.0027 0.7089
vn 0.0029 -0.0007 1.0000
vn 0.0014 -0.0007 1.0000
vn -0.7059 -0.0027 0.7083
vn -0.0000 -1.0000 -0.0000
vn 0.7091 0.0016 0.7051
vn 0.7081 0.0016 0.7061
vn -0.0062 0.0008 -1.0000
vn -0.7081 -0.0016 -0.7061
vn -0.7090 -0.0016 -0.7052
vn -0.0028 0.0008 -1.0000
vn -1.0000 -0.0030 0.0019
vn -1.0000 -0.0030 0.0023
vn 0.7090 0.0016 0.7052
vn 1.0000 0.0030 -0.0032
vn 1.0000 0.0030 -0.0019
vn 0.0014 -0.0008 1.0000
vn 0.0019 -0.0008 1.0000
vn 0.7049 0.0027 -0.7093
vn -0.0091 0.0008 -1.0000
vn -0.7091 -0.0016 -0.7051
vn -0.0029 0.0008 -1.0000
vn -0.0032 1.0000 0.0040
vn -0.0042 1.0000 0.0031
vn -0.0051 1.0000 -0.0013
vn -0.0050 1.0000 -0.0012
vn -0.0000 1.0000 -0.0000
vn 0.9202 0.0019 0.3913
vn 1.0000 0.0023 0.0086
vn 0.9201 0.0019 0.3917
vn 0.9275 0.0023 -0.3737
vn 0.7147 0.0021 -0.6994
vn 0.7145 0.0021 -0.6996
vn 0.0018 1.0000 0.0047
vn 0.0015 1.0000 0.0037
vn -0.8540 0.3792 -0.3562
vn -0.9254 0.3790 -0.0036
vn -0.9254 0.3790 -0.0040
vn -0.8541 0.3792 -0.3561
vn -0.8557 0.3791 0.3522
vn -0.8558 0.3791 0.3520
vn -0.6546 0.3792 0.6540
vn -0.6547 0.3792 0.6538
vn -0.0081 1.0000 0.0017
vn -0.0009 1.0000 0.0012
vn -0.0015 1.0000 0.0004
vn -0.3547 0.3797 0.8544
vn -0.0012 0.3802 0.9249
vn -0.0013 0.3802 0.9249
vn -0.3551 0.3797 0.8543
vn 0.0122 0.9999 0.0034
vn -0.0006 1.0000 -0.0018
vn 0.0007 1.0000 -0.0016
vn 0.3906 0.0014 -0.9206
vn 0.0061 0.0006 -1.0000
vn 0.3902 0.0014 -0.9207
vn -0.3746 -0.0002 -0.9272
vn -0.3751 -0.0002 -0.9270
vn 1.0000 0.0030 -0.0023
vn 0.7025 0.0027 -0.7117
vn 1.0000 0.0030 -0.0021
vn 0.7081 0.0015 0.7061
vn 0.7086 0.0015 0.7056
vn 0.0014 -0.0009 1.0000
vn 0.0021 -0.0008 1.0000
vn -1.0000 -0.0030 0.0010
vn -0.7063 -0.0027 0.7080
vn 0.0037 1.0000 -0.0003
vn -0.0009 1.0000 -0.0041
vn -0.0023 0.0008 -1.0000
vn -0.7059 -0.0027 0.7084
vn -0.7083 -0.0027 0.7060
vn 0.0043 1.0000 0.0041
vn 0.0041 1.0000 0.0042
vn 0.0041 1.0000 0.0001
vn 0.0014 1.0000 -0.0009
vn 0.0106 0.9999 0.0029
vn -0.0001 1.0000 0.0035
vn -0.0002 1.0000 0.0036
vn -0.0038 0.9999 -0.0118
vn 0.0093 0.9999 -0.0085
vn 0.0086 0.9999 -0.0092
vn -0.0031 0.9999 -0.0097
vn 0.9240 0.3823 -0.0031
vn 0.8532 0.3822 -0.3548
vn 0.8532 0.3822 -0.3551
vn 0.9240 0.3823 -0.0035
vn 0.8543 0.3821 0.3523
vn 0.8543 0.3821 0.3524
vn 0.6539 0.3821 -0.6530
vn 0.6537 0.3821 -0.6532
vn 0.6534 0.3815 0.6539
vn 0.6531 0.3815 0.6541
vn -0.0036 1.0000 -0.0013
vn -0.0015 1.0000 -0.0008
vn 0.3532 0.3809 0.8545
vn 0.3528 0.3809 0.8547
vn 0.0146 0.9998 -0.0139
vn 0.0020 0.9999 -0.0101
vn 0.0005 1.0000 -0.0007
vn 0.0010 1.0000 -0.0014
vn 0.0014 1.0000 0.0005
vn 0.0074 0.9998 0.0200
vn -0.0004 0.9996 0.0276
vn 0.0018 1.0000 0.0022
vn 0.0053 1.0000 0.0062
vn -0.0012 1.0000 0.0013
vn -0.0006 1.0000 0.0007
vn 0.0005 1.0000 0.0017
vn 0.0172 0.9998 0.0085
vn 0.0257 0.9992 0.0297
vn 0.0250 0.9997 0.0002
vn 0.0012 1.0000 -0.0060
vn 0.3538 0.3816 -0.8539
vn -0.0007 0.3811 -0.9245
vn -0.0008 0.3811 -0.9245
vn 0.3534 0.3816 -0.8541
vn -0.3894 -0.0013 0.9211
vn -0.0046 -0.0006 1.0000
vn -0.3899 -0.0013 0.9209
vn -0.7145 -0.0020 0.6996
vn -0.7147 -0.0020 0.6994
vn -0.9263 -0.0023 0.3767
vn -0.9264 -0.0023 0.3767
vn -1.0000 -0.0023 -0.0022
vn -0.9214 -0.0019 -0.3887
vn -0.9215 -0.0019 -0.3884
vn -0.6993 -0.0011 -0.7148
vn -0.6997 -0.0011 -0.7145
vn 0.3758 0.0002 0.9267
vn 0.3753 0.0002 0.9269
vn 0.6997 0.0011 0.7144
vn 0.6993 0.0011 0.7148
vn 0.0214 0.9992 -0.0340
vn -0.3538 0.3805 -0.8544
vn -0.6536 0.3798 -0.6546
vn -0.6539 0.3798 -0.6543
vn -0.3543 0.3805 -0.8542
vn -0.0051 1.0000 0.0011
vn 0.0500 0.9987 0.0003
vn -0.0009 0.9985 0.0551
vn -0.0286 0.9994 0.0216
vn -0.0121 0.9998 0.0149
vn -1.0000 -0.0030 -0.0019
vn 0.7091 0.0016 0.7052
vn -0.0014 0.0008 -1.0000
vn 0.0061 -0.0008 1.0000
vn -1.0000 -0.0030 -0.0013
vn -0.7091 -0.0016 -0.7052
vn -0.7054 -0.0027 0.7088
vn -0.8108 -0.5012 -0.3022
vn -0.9904 -0.1303 0.0466
vn -0.6912 -0.0782 0.7184
vn -0.4667 -0.7144 0.5214
vn -0.0220 -0.0268 0.9994
vn 0.3024 -0.3756 0.8761
vn 0.7345 0.0927 0.6723
vn 0.7398 0.1961 0.6436
vn 0.9713 0.2294 -0.0637
vn 0.7503 0.6498 0.1217
vn 0.6872 0.2589 -0.6788
vn 0.4007 0.7970 -0.4520
vn 0.0804 0.1534 -0.9849
vn -0.1487 0.5758 -0.8039
vn -0.6675 -0.0447 -0.7433
vn -0.6231 0.0655 -0.7794
vn -0.6898 -0.0346 -0.7232
vn -0.3793 -0.8022 -0.4611
vn -0.4949 0.7489 -0.4407
vn -0.7573 0.0927 -0.6465
vn -0.2557 -0.4618 -0.8494
vn -0.8389 0.5325 -0.1129
vn -0.0874 0.9961 0.0094
vn -0.5174 0.7162 0.4684
vn -0.6912 0.1793 0.7001
vn -0.9932 0.1026 0.0554
vn -0.7292 -0.0268 -0.6838
vn -0.0445 0.1551 0.9869
vn 0.0702 0.5929 0.8022
vn 0.3570 0.8176 0.4517
vn 0.6830 0.0570 0.7282
vn 0.6275 0.1817 0.7571
vn 0.6841 0.0768 0.7254
vn 0.8708 -0.3924 0.2963
vn 0.4900 -0.7380 0.4639
vn 0.0670 -0.9978 0.0026
vn 0.5358 -0.6914 -0.4847
vn 0.7118 -0.0506 -0.7005
vn 0.9997 -0.0205 -0.0136
vn 0.0277 -0.0785 -0.9965
vn 0.0235 -0.3498 0.9365
vn 0.1035 -0.0480 0.9935
vn 0.7638 0.0255 0.6449
vn 0.7345 -0.2954 0.6110
vn 0.9925 0.1147 -0.0427
vn 0.9792 -0.1684 -0.1132
vn 0.6454 0.2251 -0.7300
vn 0.5864 0.1445 -0.7970
vn -0.0735 0.3025 -0.9503
vn -0.0984 0.4875 -0.8675
vn -0.7090 0.2828 -0.6461
vn -0.6514 0.5637 -0.5079
vn -0.9873 0.1584 0.0072
vn -0.9409 0.3358 0.0452
vn -0.6825 -0.0048 0.7309
vn -0.7491 -0.0981 0.6552
vn -0.7384 -0.1156 0.6643
vn -0.0878 -0.7250 0.6831
vn -0.7937 0.5765 0.1941
vn -0.6962 -0.0197 0.7176
vn -0.2564 -0.8476 0.4647
vn -0.5118 0.7631 0.3946
vn -0.4488 0.8495 -0.2774
vn -0.1642 0.9864 -0.0040
vn 0.1634 0.9456 0.2813
vn -0.2635 0.6773 0.6869
vn -0.6471 -0.0363 0.7615
vn 0.5072 0.6755 0.5352
vn -0.0175 0.4493 0.8932
vn -0.5984 -0.0431 0.8000
vn 0.6970 0.3463 0.6279
vn 0.1032 0.2310 0.9675
vn -0.6348 -0.0001 0.7727
vn -0.8906 -0.4380 0.1227
vn -0.9844 -0.1720 0.0378
vn -0.6125 -0.4913 -0.6192
vn -0.7154 -0.1749 -0.6765
vn 0.0894 -0.3042 -0.9484
vn -0.0249 -0.0589 -0.9980
vn 0.7339 0.1385 -0.6650
vn 0.7053 0.1519 -0.6924
vn 0.8245 0.5642 -0.0444
vn 0.9483 0.3173 0.0037
vn 0.6820 0.1714 -0.7110
vn 0.5505 0.8060 -0.2175
vn 0.2311 0.8851 -0.4041
vn 0.6602 0.2022 -0.7233
vn 0.3103 -0.6531 -0.6908
vn 0.5707 -0.7179 -0.3987
vn 0.7961 -0.5569 -0.2371
vn 0.6267 0.1307 -0.7682
vn 0.0407 0.7272 -0.6852
vn 0.5088 -0.7899 0.3424
vn 0.2050 -0.9775 0.0500
vn -0.5572 -0.7860 0.2679
vn -0.1849 -0.9368 -0.2969
vt 0.156148 0.217683
vt 0.131241 0.216241
vt 0.131229 0.192094
vt 0.156136 0.192091
vt 0.031613 0.217554
vt 0.006707 0.217626
vt 0.006698 0.192035
vt 0.031603 0.191963
vt 0.060344 0.535893
vt 0.105195 0.491744
vt 0.128225 0.501213
vt 0.111240 0.570684
vt 0.173479 0.504948
vt 0.151220 0.491620
vt 0.173479 0.491626
vt 0.196332 0.491526
vt 0.219367 0.501020
vt 0.173479 0.468549
vt 0.186752 0.468543
vt 0.160704 0.468595
vt 0.196240 0.445553
vt 0.173479 0.445586
vt 0.151118 0.445652
vt 0.128090 0.436178
vt 0.128064 0.426405
vt 0.151043 0.426472
vt 0.105092 0.445745
vt 0.105090 0.426390
vt 0.173479 0.426788
vt 0.205961 0.217532
vt 0.181055 0.217623
vt 0.181041 0.192031
vt 0.205947 0.191941
vt 0.131261 0.256734
vt 0.106355 0.256686
vt 0.106325 0.231096
vt 0.131231 0.231143
vt 0.095612 0.468764
vt 0.091255 0.426385
vt 0.056522 0.217532
vt 0.056509 0.191941
vt 0.105007 0.408244
vt 0.128037 0.417741
vt 0.095420 0.385240
vt 0.062684 0.312392
vt 0.104905 0.362195
vt 0.027887 0.363325
vt 0.114332 0.278657
vt 0.127899 0.352603
vt 0.329149 0.251631
vt 0.329154 0.226302
vt 0.354061 0.226208
vt 0.354056 0.251588
vt 0.304243 0.251704
vt 0.304247 0.226324
vt 0.378968 0.226098
vt 0.378964 0.251602
vt 0.173479 0.348771
vt 0.173479 0.362087
vt 0.150932 0.362076
vt 0.106335 0.217634
vt 0.081428 0.217568
vt 0.081416 0.191977
vt 0.106323 0.192043
vt 0.173479 0.385030
vt 0.160512 0.385077
vt 0.196074 0.361983
vt 0.186589 0.385023
vt 0.219065 0.352408
vt 0.235334 0.279950
vt 0.286249 0.314783
vt 0.242101 0.361906
vt 0.251680 0.384912
vt 0.319949 0.366449
vt 0.173479 0.267264
vt 0.688973 0.309732
vt 0.667472 0.283311
vt 0.676962 0.260590
vt 0.716483 0.268838
vt 0.331311 0.426399
vt 0.256058 0.426386
vt 0.251841 0.468437
vt 0.318616 0.487402
vt 0.716164 0.335015
vt 0.696367 0.317253
vt 0.726196 0.272982
vt 0.751288 0.281944
vt 0.808315 0.015366
vt 0.869977 0.015304
vt 0.869971 0.050378
vt 0.808309 0.050440
vt 0.931640 0.015296
vt 0.931634 0.050370
vt 0.993302 0.015345
vt 0.993297 0.050419
vt 0.736940 0.219625
vt 0.763700 0.219823
vt 0.726244 0.167592
vt 0.750278 0.155698
vt 0.599673 0.357957
vt 0.652010 0.347157
vt 0.663689 0.371115
vt 0.599673 0.384737
vt 0.644696 0.292711
vt 0.647989 0.337397
vt 0.726333 0.219581
vt 0.716060 0.171958
vt 0.677174 0.219519
vt 0.242358 0.491455
vt 0.283807 0.538281
vt 0.232179 0.571976
vt 0.599673 0.347358
vt 0.599673 0.292586
vt 0.523282 0.178033
vt 0.532506 0.200535
vt 0.532479 0.219519
vt 0.523122 0.219525
vt 0.068365 0.015391
vt 0.130027 0.015522
vt 0.130023 0.050596
vt 0.068360 0.050465
vt 0.006702 0.015296
vt 0.006698 0.050370
vt 0.191690 0.015668
vt 0.191685 0.050742
vt 0.015231 0.426398
vt 0.026632 0.484279
vt 0.173479 0.583363
vt 0.503588 0.124821
vt 0.474050 0.168765
vt 0.449296 0.159945
vt 0.484070 0.107226
vt 0.403870 0.212452
vt 0.403872 0.186861
vt 0.428777 0.186873
vt 0.428777 0.212464
vt 0.156137 0.231176
vt 0.156167 0.255860
vt 0.181043 0.231156
vt 0.181072 0.255830
vt 0.205948 0.231078
vt 0.205977 0.255800
vt 0.031605 0.231207
vt 0.031633 0.256007
vt 0.006727 0.256036
vt 0.006698 0.231314
vt 0.254434 0.226142
vt 0.279341 0.226259
vt 0.279338 0.251763
vt 0.254431 0.251770
vt 0.196164 0.408055
vt 0.219202 0.417550
vt 0.219214 0.426407
vt 0.196242 0.426469
vt 0.173479 0.408087
vt 0.151036 0.408152
vt 0.522849 0.259843
vt 0.532320 0.237297
vt 0.403875 0.226041
vt 0.403871 0.251668
vt 0.229524 0.251720
vt 0.229527 0.226041
vt 0.056510 0.231117
vt 0.056539 0.255979
vt 0.531936 0.282563
vt 0.510107 0.309368
vt 0.483318 0.268415
vt 0.473995 0.219543
vt 0.483704 0.172714
vt 0.554566 0.292188
vt 0.550887 0.337236
vt 0.555320 0.146195
vt 0.532803 0.155555
vt 0.511037 0.132129
vt 0.551541 0.104881
vt 0.463603 0.219574
vt 0.474049 0.272164
vt 0.502535 0.316609
vt 0.577315 0.282914
vt 0.599673 0.283092
vt 0.546676 0.346990
vt 0.599673 0.155535
vt 0.577785 0.155486
vt 0.599673 0.146068
vt 0.621927 0.283155
vt 0.612562 0.260317
vt 0.599673 0.260271
vt 0.586826 0.260209
vt 0.599673 0.237579
vt 0.622028 0.237568
vt 0.622013 0.219406
vt 0.644817 0.219489
vt 0.644817 0.228211
vt 0.577529 0.237440
vt 0.599673 0.219038
vt 0.554963 0.227998
vt 0.555003 0.219501
vt 0.577625 0.219416
vt 0.599673 0.200639
vt 0.622074 0.200567
vt 0.577647 0.200546
vt 0.555044 0.209880
vt 0.587072 0.178002
vt 0.599673 0.178014
vt 0.599673 0.095091
vt 0.688110 0.131132
vt 0.667332 0.155282
vt 0.644648 0.146035
vt 0.647125 0.104306
vt 0.547438 0.095316
vt 0.599673 0.084697
vt 0.536057 0.071677
vt 0.484550 0.335998
vt 0.537499 0.372187
vt 0.561665 0.015873
vt 0.623327 0.015748
vt 0.623321 0.050822
vt 0.561660 0.050947
vt 0.500002 0.015964
vt 0.499997 0.051038
vt 0.438339 0.016005
vt 0.438334 0.051079
vt 0.437484 0.219241
vt 0.376677 0.015990
vt 0.376672 0.051064
vt 0.450258 0.283216
vt 0.315014 0.015922
vt 0.315010 0.050995
vt 0.253352 0.015809
vt 0.253347 0.050882
vt 0.599673 0.058501
vt 0.659473 0.069703
vt 0.650973 0.094584
vt 0.684990 0.015607
vt 0.684984 0.050681
vt 0.712886 0.103449
vt 0.695420 0.123496
vt 0.746652 0.015473
vt 0.746646 0.050547
vt 0.622048 0.155469
vt 0.676995 0.177941
vt 0.612655 0.178005
vt 0.644822 0.209981
vt 0.667564 0.200631
vt 0.667638 0.219512
vt 0.219226 0.435986
vt 0.081419 0.231078
vt 0.081446 0.256669
vt 0.242190 0.407956
vt 0.242227 0.426390
vt 0.242264 0.445456
vt 0.667567 0.237743
vt 0.378964 0.186908
vt 0.378964 0.212499
vt 0.229524 0.212452
vt 0.229527 0.186861
vt 0.254433 0.186926
vt 0.254431 0.212517
vt 0.354056 0.186985
vt 0.354058 0.212576
vt 0.279339 0.187006
vt 0.304245 0.187054
vt 0.304243 0.212645
vt 0.279337 0.212597
vt 0.329150 0.212636
vt 0.329151 0.187656
vt 0.428781 0.226071
vt 0.428777 0.251750
vt 0.268734 0.078389
vt 0.229524 0.078389
vt 0.229524 0.064475
vt 0.268734 0.064475
vt 0.268734 0.173466
vt 0.229524 0.173466
vt 0.229524 0.159559
vt 0.268734 0.159559
vt 0.229524 0.146225
vt 0.268734 0.146225
vt 0.229524 0.132884
vt 0.268734 0.132884
vt 0.229524 0.118970
vt 0.268734 0.118970
vt 0.229524 0.105064
vt 0.268734 0.105064
vt 0.229524 0.091731
vt 0.268734 0.091731
vt 0.318302 0.091731
vt 0.318302 0.078389
vt 0.318302 0.105064
vt 0.364882 0.091731
vt 0.364882 0.078389
vt 0.364882 0.105064
vt 0.318302 0.118970
vt 0.364882 0.118970
vt 0.398984 0.118970
vt 0.398984 0.105064
vt 0.398984 0.091731
vt 0.398984 0.132884
vt 0.364882 0.132884
vt 0.318302 0.132884
vt 0.398984 0.146225
vt 0.364882 0.146225
vt 0.318302 0.146225
vt 0.364882 0.159559
vt 0.318302 0.159559
vt 0.318302 0.173466
vt 0.364882 0.173466
vt 0.398984 0.173466
vt 0.398984 0.159559
vt 0.398984 0.078389
vt 0.364882 0.064475
vt 0.398984 0.064475
vt 0.318302 0.064475
vt 0.171678 0.064474
vt 0.216129 0.064474
vt 0.216129 0.079589
vt 0.171678 0.079589
vt 0.216129 0.094725
vt 0.171678 0.094725
vt 0.216129 0.108132
vt 0.171678 0.108132
vt 0.216129 0.121519
vt 0.171678 0.121519
vt 0.216129 0.136634
vt 0.171678 0.136634
vt 0.216129 0.151785
vt 0.171678 0.151785
vt 0.216129 0.165192
vt 0.171678 0.165192
vt 0.216129 0.178545
vt 0.171678 0.178545
vt 0.147400 0.165192
vt 0.147400 0.178545
vt 0.147400 0.151785
vt 0.117748 0.165192
vt 0.117748 0.178545
vt 0.117748 0.151785
vt 0.147400 0.136634
vt 0.117748 0.136634
vt 0.089056 0.136634
vt 0.089056 0.151785
vt 0.089056 0.165192
vt 0.060275 0.136634
vt 0.060275 0.151785
vt 0.060275 0.165192
vt 0.006698 0.136634
vt 0.006698 0.151785
vt 0.006698 0.165192
vt 0.060275 0.178545
vt 0.006698 0.178545
vt 0.006698 0.064474
vt 0.060275 0.064474
vt 0.060275 0.079589
vt 0.006698 0.079589
vt 0.060275 0.094724
vt 0.006698 0.094725
vt 0.060275 0.108132
vt 0.006698 0.108132
vt 0.060275 0.121519
vt 0.006698 0.121519
vt 0.089056 0.108132
vt 0.089056 0.121519
vt 0.117748 0.121519
vt 0.117748 0.108132
vt 0.089056 0.094725
vt 0.117748 0.094724
vt 0.147400 0.094725
vt 0.147400 0.108132
vt 0.147400 0.121519
vt 0.147400 0.079589
vt 0.117748 0.079589
vt 0.147400 0.064474
vt 0.117748 0.064474
vt 0.089056 0.064474
vt 0.089056 0.079589
vt 0.089056 0.178545
s 1
f 110/1/1 111/2/2 1/3/3 2/4/4
f 106/5/5 108/6/6 11/7/7 10/8/8
f 54/9/9 1/10/9 3/11/9 55/12/9
f 4/13/9 3/11/9 162/14/9 5/15/9
f 5/15/9 61/16/9 60/17/9 4/13/9
f 6/18/9 62/19/9 61/16/9 5/15/9
f 162/14/9 8/20/9 6/18/9 5/15/9
f 63/21/9 62/19/9 6/18/9 7/22/9
f 6/18/9 8/20/9 10/23/9 7/22/9
f 11/24/9 14/25/9 9/26/9 10/23/9
f 12/27/9 13/28/9 14/25/9 11/24/9
f 10/23/9 9/26/9 67/29/9 7/22/9
f 108/30/6 109/31/10 12/32/11 11/33/7
f 109/31/10 110/1/1 2/4/4 12/32/11
f 132/34/12 133/35/13 58/36/14 60/37/15
f 2/38/9 15/39/9 13/28/9 12/27/9
f 107/40/16 106/5/5 10/8/8 8/41/17
f 13/28/9 16/42/9 71/43/9 14/25/9
f 16/42/9 13/28/9 15/39/9 17/44/9
f 50/45/9 18/46/9 17/44/9 51/47/9
f 49/48/9 19/49/9 18/46/9 50/45/9
f 18/50/11 77/51/18 78/52/19 17/53/20
f 19/54/21 76/55/22 77/51/18 18/50/11
f 78/52/19 79/56/23 16/57/3 17/53/20
f 19/49/9 21/58/9 22/59/9 20/60/9
f 112/61/24 161/62/13 162/63/25 3/64/26
f 22/59/9 23/65/9 70/66/9 20/60/9
f 24/67/9 144/68/9 23/65/9 22/59/9
f 24/67/9 22/59/9 21/58/9 25/69/9
f 25/69/9 47/70/9 31/71/9 146/72/9
f 156/73/9 146/72/9 31/71/9 30/74/9
f 21/58/9 48/75/9 47/70/9 25/69/9
f 40/76/27 147/77/28 148/78/29 39/79/30
f 27/80/9 26/81/9 156/73/9 30/74/9
f 59/82/9 26/81/9 27/80/9 28/83/9
f 33/84/31 38/85/31 37/86/31 32/87/31
f 28/88/32 27/89/33 29/90/33 160/91/34
f 27/89/33 30/92/35 32/93/35 29/90/33
f 30/92/35 31/94/36 33/95/37 32/93/35
f 34/96/31 29/97/31 32/87/31 37/86/31
f 29/97/31 34/96/31 35/98/31 160/99/31
f 44/100/31 43/101/31 45/102/31 46/103/31
f 145/104/38 147/77/28 40/76/27 41/105/39
f 35/98/40 34/96/41 36/106/42 155/107/43
f 34/96/41 37/86/44 39/79/45 36/106/42
f 37/86/44 38/85/46 40/76/47 39/79/45
f 148/78/29 153/108/48 36/106/31 39/79/30
f 60/17/9 58/109/9 159/110/9 57/111/9
f 41/105/39 42/112/49 94/113/50 145/104/38
f 43/101/51 44/100/52 42/112/53 41/105/54
f 38/85/46 43/101/51 41/105/54 40/76/47
f 110/114/55 109/115/31 81/116/56 80/117/57
f 43/101/31 38/85/31 33/84/31 45/102/31
f 19/49/9 49/48/9 48/75/9 21/58/9
f 47/118/58 48/119/59 46/120/59 45/121/60
f 31/122/36 47/118/58 45/121/60 33/123/37
f 48/119/59 49/124/61 125/125/62 46/120/59
f 51/47/9 17/44/9 15/39/9 52/126/9
f 2/38/9 53/127/9 52/126/9 15/39/9
f 55/12/9 3/11/9 4/13/9 56/128/9
f 60/17/9 57/111/9 56/128/9 4/13/9
f 159/110/9 58/109/9 59/82/9 28/83/9
f 88/129/31 87/130/31 121/131/31 120/132/31
f 144/133/20 98/134/63 99/135/2 143/136/3
f 61/137/3 134/138/64 132/34/12 60/37/15
f 62/139/20 135/140/65 134/138/64 61/137/3
f 63/141/66 136/142/67 135/140/65 62/139/20
f 64/143/68 137/144/69 136/145/67 63/146/66
f 74/147/70 75/148/71 20/149/8 70/150/17
f 143/151/9 142/152/9 66/153/9 65/154/9
f 63/21/9 7/22/9 67/29/9 65/154/9
f 144/68/9 143/151/9 68/155/9 23/65/9
f 65/154/9 67/29/9 68/155/9 143/151/9
f 69/156/9 68/155/9 67/29/9 9/26/9
f 69/156/9 70/66/9 23/65/9 68/155/9
f 14/25/9 71/43/9 69/156/9 9/26/9
f 78/157/72 80/117/57 81/116/56 79/158/73
f 16/57/3 79/56/23 72/159/74 71/160/26
f 69/161/25 73/162/13 74/147/70 70/150/17
f 75/148/71 76/55/22 19/54/21 20/149/8
f 64/143/68 139/163/75 138/164/76 137/144/69
f 78/157/72 77/165/77 92/166/78 84/167/79
f 84/167/79 82/168/80 80/117/57 78/157/72
f 80/117/57 82/168/80 85/169/81 110/114/55
f 76/170/82 93/171/83 92/166/78 77/165/77
f 112/172/84 111/173/85 86/174/86 114/175/87
f 83/176/88 87/130/89 85/169/90 82/168/91
f 89/177/92 83/176/88 82/168/91 84/167/93
f 87/130/89 88/129/94 86/174/95 85/169/90
f 90/178/96 89/177/92 84/167/93 92/166/97
f 75/179/98 95/180/99 94/113/50 76/170/82
f 91/181/100 90/178/96 92/166/97 93/171/101
f 94/113/50 42/112/49 93/171/83 76/170/82
f 158/182/102 161/183/31 112/172/84 113/184/103
f 95/180/99 97/185/31 145/104/38 94/113/50
f 98/186/31 97/185/31 95/180/99 96/187/104
f 74/188/105 96/187/104 95/180/99 75/179/98
f 96/187/104 101/189/106 99/190/31 98/186/31
f 99/190/31 100/191/107 152/192/108 150/193/31
f 73/194/109 101/189/106 96/187/104 74/188/105
f 99/190/31 101/189/106 102/195/110 100/191/107
f 73/194/109 72/196/111 105/197/112 104/198/113
f 101/189/106 73/194/109 104/198/113 102/195/110
f 100/191/107 102/195/110 103/199/114 136/200/115
f 103/199/114 102/195/110 104/198/113 106/201/31
f 105/197/112 108/202/31 106/201/31 104/198/113
f 106/201/31 107/203/31 157/204/116 103/199/114
f 105/197/112 81/116/56 109/115/31 108/202/31
f 111/173/85 110/114/55 85/169/81 86/174/86
f 114/175/87 115/205/31 113/184/103 112/172/84
f 131/206/31 133/207/31 132/208/117 130/209/31
f 116/210/118 117/211/119 115/205/120 114/175/121
f 88/129/94 116/210/118 114/175/121 86/174/95
f 88/129/31 120/132/31 118/212/31 116/210/31
f 124/213/31 90/178/31 91/181/31 125/214/31
f 55/215/122 56/216/123 119/217/123 118/218/124
f 54/219/125 55/215/122 118/218/124 120/220/126
f 53/221/127 54/219/125 120/220/126 121/222/128
f 87/130/31 83/176/31 122/223/31 121/131/31
f 52/224/129 53/221/127 121/222/128 122/225/129
f 83/176/31 89/177/31 123/226/31 122/223/31
f 51/227/130 52/224/129 122/225/129 123/228/131
f 90/178/31 124/213/31 123/226/31 89/177/31
f 50/229/132 51/227/130 123/228/131 124/230/133
f 117/211/31 116/210/31 118/212/31 119/231/31
f 49/124/61 50/229/132 124/230/133 125/125/62
f 44/100/31 46/103/31 125/214/31 91/181/31
f 117/211/31 119/231/31 126/232/31 128/233/31
f 56/216/123 57/234/134 126/235/135 119/217/123
f 127/236/31 129/237/31 128/233/31 126/232/31
f 160/99/31 35/98/31 129/237/31 127/236/31
f 57/234/134 159/238/136 127/239/137 126/235/135
f 132/208/117 134/240/138 158/182/102 113/184/103
f 128/233/139 129/237/140 131/206/141 130/209/142
f 117/211/119 128/233/139 130/209/142 115/205/120
f 132/208/117 113/184/103 115/205/31 130/209/31
f 155/107/31 36/106/31 153/108/48 154/241/143
f 158/182/102 134/240/138 135/242/144 157/204/116
f 136/200/115 103/199/114 157/204/116 135/242/144
f 137/243/145 152/192/108 100/191/107 136/200/115
f 138/244/146 151/245/147 152/192/108 137/243/145
f 64/246/9 63/21/9 65/154/9 66/153/9
f 59/247/17 154/248/148 138/164/76 139/163/75
f 133/35/13 154/248/148 59/247/17 58/36/14
f 142/152/9 141/249/9 140/250/9 66/153/9
f 139/251/9 140/250/9 26/81/9 59/82/9
f 141/249/9 156/73/9 26/81/9 140/250/9
f 149/252/31 151/245/147 153/108/48 148/78/29
f 97/253/149 98/134/63 144/133/20 24/254/11
f 143/255/3 99/256/2 150/257/150 142/258/15
f 145/259/151 97/253/149 24/254/11 25/260/21
f 149/261/13 148/262/152 156/263/17 141/264/153
f 146/265/8 147/266/154 145/259/151 25/260/21
f 156/263/17 148/262/152 147/266/154 146/265/8
f 142/258/15 150/257/150 149/261/13 141/264/153
f 151/245/147 149/252/31 150/193/31 152/192/108
f 138/244/146 154/241/143 153/108/48 151/245/147
f 162/63/25 161/62/13 107/40/16 8/41/17
f 154/241/143 133/207/31 131/206/31 155/107/31
f 161/183/31 158/182/102 157/204/116 107/203/31
f 129/237/140 35/98/40 155/107/43 131/206/141
f 72/196/111 79/158/73 81/116/56 105/197/112
f 159/238/136 28/88/32 160/91/34 127/239/137
f 139/251/9 64/246/9 66/153/9 140/250/9
f 44/100/52 91/181/100 93/171/101 42/112/53
f 1/10/9 54/9/9 53/127/9 2/38/9
f 111/2/2 112/61/24 3/64/26 1/3/3
f 71/160/26 72/159/74 73/267/13 69/268/25
f 178/269/155 164/270/156 163/271/157 165/272/158
f 165/273/158 163/274/157 166/275/159 167/276/160
f 167/276/160 166/275/159 168/277/161 169/278/162
f 169/278/162 168/277/161 170/279/163 171/280/164
f 171/280/164 170/279/163 172/281/165 173/282/166
f 173/282/166 172/281/165 174/283/167 175/284/168
f 175/284/168 174/283/167 176/285/169 177/286/170
f 177/286/170 176/285/169 164/270/156 178/269/155
f 179/287/171 177/286/170 178/269/155 180/288/172
f 182/289/173 175/284/168 177/286/170 179/287/171
f 181/290/174 179/287/171 180/288/172 201/291/175
f 184/292/176 182/289/173 179/287/171 181/290/174
f 183/293/177 173/282/166 175/284/168 182/289/173
f 186/294/178 183/293/177 182/289/173 184/292/176
f 187/295/179 186/294/178 184/292/176 185/296/180
f 185/296/180 184/292/176 181/290/174 202/297/181
f 189/298/182 188/299/183 186/294/178 187/295/179
f 188/299/183 191/300/184 183/293/177 186/294/178
f 199/301/185 190/302/186 188/299/183 189/298/182
f 190/302/186 192/303/187 191/300/184 188/299/183
f 192/303/187 169/278/162 171/280/164 191/300/184
f 191/300/184 171/280/164 173/282/166 183/293/177
f 195/304/188 193/305/189 192/303/187 190/302/186
f 193/305/189 167/276/160 169/278/162 192/303/187
f 194/306/190 165/273/158 167/276/160 193/305/189
f 196/307/191 194/306/190 193/305/189 195/304/188
f 198/308/192 196/307/191 195/304/188 197/309/193
f 197/309/193 195/304/188 190/302/186 199/301/185
f 200/310/194 201/291/175 196/311/191 198/312/192
f 202/297/181 181/290/174 201/291/175 200/310/194
f 201/291/175 180/288/172 194/313/190 196/311/191
f 180/288/172 178/269/155 165/272/158 194/313/190
f 218/314/195 204/315/196 203/316/197 205/317/198
f 205/317/198 203/316/197 206/318/199 207/319/200
f 207/319/200 206/318/199 208/320/201 209/321/202
f 209/321/202 208/320/201 210/322/203 211/323/204
f 211/323/204 210/322/203 212/324/205 213/325/206
f 213/325/206 212/324/205 214/326/207 215/327/208
f 215/327/208 214/326/207 216/328/209 217/329/210
f 217/329/210 216/328/209 204/330/196 218/331/195
f 219/332/211 217/329/210 218/331/195 220/333/212
f 222/334/213 215/327/208 217/329/210 219/332/211
f 221/335/214 219/332/211 220/333/212 256/336/215
f 224/337/216 222/334/213 219/332/211 221/335/214
f 223/338/217 213/325/206 215/327/208 222/334/213
f 225/339/218 223/338/217 222/334/213 224/337/216
f 227/340/219 225/339/218 224/337/216 226/341/220
f 226/341/220 224/337/216 221/335/214 228/342/221
f 230/343/222 227/340/219 226/341/220 229/344/223
f 229/344/223 226/341/220 228/342/221 231/345/224
f 233/346/225 230/343/222 229/344/223 232/347/226
f 232/347/226 229/344/223 231/345/224 234/348/227
f 234/348/227 231/345/224 236/349/228 235/350/229
f 235/351/229 236/352/228 238/353/230 237/354/231
f 237/354/231 238/353/230 240/355/232 239/356/233
f 239/356/233 240/355/232 242/357/234 241/358/235
f 241/358/235 242/357/234 244/359/236 243/360/237
f 243/360/237 244/359/236 230/343/222 233/346/225
f 242/357/234 247/361/238 245/362/239 244/359/236
f 244/359/236 245/362/239 227/340/219 230/343/222
f 245/362/239 246/363/240 225/339/218 227/340/219
f 247/361/238 249/364/241 246/363/240 245/362/239
f 240/355/232 248/365/242 247/361/238 242/357/234
f 247/361/238 248/365/242 250/366/243 249/364/241
f 250/366/243 252/367/244 251/368/245 249/364/241
f 249/364/241 251/368/245 253/369/246 246/363/240
f 251/368/245 252/367/244 207/319/200 209/321/202
f 251/368/245 209/321/202 211/323/204 253/369/246
f 253/369/246 211/323/204 213/325/206 223/338/217
f 246/363/240 253/369/246 223/338/217 225/339/218
f 254/370/247 205/317/198 207/319/200 252/367/244
f 255/371/248 254/370/247 252/367/244 250/366/243
f 220/372/212 218/314/195 205/317/198 254/370/247
f 256/373/215 220/372/212 254/370/247 255/371/248
f 258/374/249 256/373/215 255/371/248 257/375/250
f 257/375/250 255/371/248 250/366/243 248/365/242
f 236/352/228 258/374/249 257/375/250 238/353/230
f 238/353/230 257/375/250 248/365/242 240/355/232
f 228/342/221 221/335/214 256/336/215 258/376/249
f 231/345/224 228/342/221 258/376/249 236/349/228
