# Blender 4.0.2
# www.blender.org
o ball_closure_ring
v 0.002151 -0.002151 0.010449
v 0.001076 -0.002522 0.010820
v 0.000000 -0.002635 0.010932
v -0.001076 -0.002522 0.010820
v 0.002522 -0.002522 0.009373
v 0.001261 -0.003271 0.009559
v 0.000000 -0.003485 0.009615
v -0.001261 -0.003271 0.009559
v 0.002635 -0.002635 0.008297
v 0.001317 -0.003485 0.008297
v 0.000000 -0.003726 0.008297
v -0.001317 -0.003485 0.008297
v 0.002522 -0.002522 0.007222
v 0.001261 -0.003271 0.007036
v 0.000000 -0.003485 0.006980
v -0.001261 -0.003271 0.007036
v -0.002151 -0.002151 0.010449
v -0.002522 -0.001076 0.010820
v -0.002635 -0.000000 0.010932
v -0.002522 0.001076 0.010820
v -0.002522 -0.002522 0.009373
v -0.003271 -0.001261 0.009559
v -0.003485 -0.000000 0.009615
v -0.003271 0.001261 0.009559
v -0.002635 -0.002635 0.008297
v -0.003485 -0.001317 0.008297
v -0.003726 -0.000000 0.008297
v -0.003485 0.001317 0.008297
v -0.002522 -0.002522 0.007222
v -0.003271 -0.001261 0.007036
v -0.003485 -0.000000 0.006980
v -0.003271 0.001261 0.007036
v -0.002151 0.002151 0.010449
v -0.001076 0.002522 0.010820
v 0.000000 0.002635 0.010932
v 0.001076 0.002522 0.010820
v -0.002522 0.002522 0.009373
v -0.001261 0.003271 0.009559
v 0.000000 0.003485 0.009615
v 0.001261 0.003271 0.009559
v -0.002635 0.002635 0.008297
v -0.001317 0.003485 0.008297
v 0.000000 0.003726 0.008297
v 0.001317 0.003485 0.008297
v -0.002522 0.002522 0.007222
v -0.001261 0.003271 0.007036
v 0.000000 0.003485 0.006980
v 0.001261 0.003271 0.007036
v 0.002151 0.002151 0.010449
v 0.002522 0.001076 0.010820
v 0.002635 -0.000000 0.010932
v 0.002522 -0.001076 0.010820
v 0.002522 0.002522 0.009373
v 0.003271 0.001261 0.009559
v 0.003485 -0.000000 0.009615
v 0.003271 -0.001261 0.009559
v 0.002635 0.002635 0.008297
v 0.003485 0.001317 0.008297
v 0.003726 -0.000000 0.008297
v 0.003485 -0.001317 0.008297
v 0.002522 0.002522 0.007222
v 0.003271 0.001261 0.007036
v 0.003485 -0.000000 0.006980
v 0.003271 -0.001261 0.007036
v 0.001261 0.001261 0.011569
v 0.000000 0.001317 0.011783
v -0.001261 0.001261 0.011569
v 0.001317 -0.000000 0.011783
v 0.000000 -0.000000 0.012023
v -0.001317 -0.000000 0.011783
v 0.001261 -0.001261 0.011569
v 0.000000 -0.001317 0.011783
v -0.001261 -0.001261 0.011569
v 0.002151 -0.002151 0.006146
v 0.001076 -0.002522 0.005775
v 0.000000 -0.002635 0.005663
v -0.001076 -0.002522 0.005775
v -0.002151 -0.002151 0.006146
v 0.002522 -0.001076 0.005775
v 0.001261 -0.001261 0.005026
v 0.000000 -0.001317 0.004812
v -0.001261 -0.001261 0.005026
v -0.002522 -0.001076 0.005775
v 0.002635 -0.000000 0.005663
v 0.001317 -0.000000 0.004812
v 0.000000 -0.000000 0.004572
v -0.001317 -0.000000 0.004812
v -0.002635 -0.000000 0.005663
v 0.002522 0.001076 0.005775
v 0.001261 0.001261 0.005026
v 0.000000 0.001317 0.004812
v -0.001261 0.001261 0.005026
v -0.002522 0.001076 0.005775
v 0.002151 0.002151 0.006146
v 0.001076 0.002522 0.005775
v 0.000000 0.002635 0.005663
v -0.001076 0.002522 0.005775
v -0.002151 0.002151 0.006146
v 0.010018 0.000000 -0.000000
v 0.009765 0.000611 -0.000000
v 0.009153 0.000864 -0.000000
v 0.008542 0.000611 -0.000000
v 0.008289 0.000000 -0.000000
v 0.008542 -0.000611 -0.000000
v 0.009153 -0.000864 -0.000000
v 0.009765 -0.000611 -0.000000
v 0.009825 0.000000 -0.001954
v 0.009577 0.000611 -0.001905
v 0.008977 0.000864 -0.001786
v 0.008378 0.000611 -0.001666
v 0.008130 0.000000 -0.001617
v 0.008378 -0.000611 -0.001666
v 0.008977 -0.000864 -0.001786
v 0.009577 -0.000611 -0.001905
v 0.009255 0.000000 -0.003834
v 0.009021 0.000611 -0.003737
v 0.008457 0.000864 -0.003503
v 0.007892 0.000611 -0.003269
v 0.007658 0.000000 -0.003172
v 0.007892 -0.000611 -0.003269
v 0.008457 -0.000864 -0.003503
v 0.009021 -0.000611 -0.003737
v 0.008329 0.000000 -0.005566
v 0.008119 0.000611 -0.005425
v 0.007611 0.000864 -0.005085
v 0.007102 0.000611 -0.004746
v 0.006892 0.000000 -0.004605
v 0.007102 -0.000611 -0.004746
v 0.007611 -0.000864 -0.005085
v 0.008119 -0.000611 -0.005425
v 0.007084 0.000000 -0.007084
v 0.006905 0.000611 -0.006905
v 0.006472 0.000864 -0.006472
v 0.006040 0.000611 -0.006040
v 0.005861 0.000000 -0.005861
v 0.006040 -0.000611 -0.006040
v 0.006472 -0.000864 -0.006472
v 0.006905 -0.000611 -0.006905
v 0.005566 0.000000 -0.008329
v 0.005425 0.000611 -0.008119
v 0.005085 0.000864 -0.007611
v 0.004746 0.000611 -0.007102
v 0.004605 0.000000 -0.006892
v 0.004746 -0.000611 -0.007102
v 0.005085 -0.000864 -0.007611
v 0.005425 -0.000611 -0.008119
v 0.003834 0.000000 -0.009255
v 0.003737 0.000611 -0.009021
v 0.003503 0.000864 -0.008457
v 0.003269 0.000611 -0.007892
v 0.003172 0.000000 -0.007658
v 0.003269 -0.000611 -0.007892
v 0.003503 -0.000864 -0.008457
v 0.003737 -0.000611 -0.009021
v 0.001954 0.000000 -0.009825
v 0.001905 0.000611 -0.009577
v 0.001786 0.000864 -0.008977
v 0.001666 0.000611 -0.008378
v 0.001617 0.000000 -0.008130
v 0.001666 -0.000611 -0.008378
v 0.001786 -0.000864 -0.008977
v 0.001905 -0.000611 -0.009577
v 0.000000 0.000000 -0.010018
v 0.000000 0.000611 -0.009765
v 0.000000 0.000864 -0.009153
v 0.000000 0.000611 -0.008542
v 0.000000 0.000000 -0.008289
v 0.000000 -0.000611 -0.008542
v 0.000000 -0.000864 -0.009153
v 0.000000 -0.000611 -0.009765
v -0.001954 0.000000 -0.009825
v -0.001905 0.000611 -0.009577
v -0.001786 0.000864 -0.008977
v -0.001666 0.000611 -0.008378
v -0.001617 0.000000 -0.008130
v -0.001666 -0.000611 -0.008378
v -0.001786 -0.000864 -0.008977
v -0.001905 -0.000611 -0.009577
v -0.003834 0.000000 -0.009255
v -0.003737 0.000611 -0.009021
v -0.003503 0.000864 -0.008457
v -0.003269 0.000611 -0.007892
v -0.003172 0.000000 -0.007658
v -0.003269 -0.000611 -0.007892
v -0.003503 -0.000864 -0.008457
v -0.003737 -0.000611 -0.009021
v -0.005566 0.000000 -0.008329
v -0.005425 0.000611 -0.008119
v -0.005085 0.000864 -0.007611
v -0.004746 0.000611 -0.007102
v -0.004605 0.000000 -0.006892
v -0.004746 -0.000611 -0.007102
v -0.005085 -0.000864 -0.007611
v -0.005425 -0.000611 -0.008119
v -0.007084 0.000000 -0.007084
v -0.006905 0.000611 -0.006905
v -0.006472 0.000864 -0.006472
v -0.006040 0.000611 -0.006040
v -0.005861 0.000000 -0.005861
v -0.006040 -0.000611 -0.006040
v -0.006472 -0.000864 -0.006472
v -0.006905 -0.000611 -0.006905
v -0.008329 0.000000 -0.005566
v -0.008119 0.000611 -0.005425
v -0.007611 0.000864 -0.005085
v -0.007102 0.000611 -0.004746
v -0.006892 0.000000 -0.004605
v -0.007102 -0.000611 -0.004746
v -0.007611 -0.000864 -0.005085
v -0.008119 -0.000611 -0.005425
v -0.009255 0.000000 -0.003834
v -0.009021 0.000611 -0.003737
v -0.008457 0.000864 -0.003503
v -0.007892 0.000611 -0.003269
v -0.007658 0.000000 -0.003172
v -0.007892 -0.000611 -0.003269
v -0.008457 -0.000864 -0.003503
v -0.009021 -0.000611 -0.003737
v -0.009825 0.000000 -0.001954
v -0.009577 0.000611 -0.001905
v -0.008977 0.000864 -0.001786
v -0.008378 0.000611 -0.001666
v -0.008130 0.000000 -0.001617
v -0.008378 -0.000611 -0.001666
v -0.008977 -0.000864 -0.001786
v -0.009577 -0.000611 -0.001905
v -0.010018 0.000000 -0.000000
v -0.009765 0.000611 -0.000000
v -0.009153 0.000864 -0.000000
v -0.008542 0.000611 -0.000000
v -0.008289 0.000000 -0.000000
v -0.008542 -0.000611 -0.000000
v -0.009153 -0.000864 -0.000000
v -0.009765 -0.000611 -0.000000
v -0.009825 -0.000000 0.001954
v -0.009577 0.000611 0.001905
v -0.008977 0.000864 0.001786
v -0.008378 0.000611 0.001666
v -0.008130 -0.000000 0.001617
v -0.008378 -0.000611 0.001666
v -0.008977 -0.000864 0.001786
v -0.009577 -0.000611 0.001905
v -0.009255 -0.000000 0.003834
v -0.009021 0.000611 0.003737
v -0.008457 0.000864 0.003503
v -0.007892 0.000611 0.003269
v -0.007658 -0.000000 0.003172
v -0.007892 -0.000611 0.003269
v -0.008457 -0.000864 0.003503
v -0.009021 -0.000611 0.003737
v -0.008329 -0.000000 0.005566
v -0.008119 0.000611 0.005425
v -0.007611 0.000864 0.005085
v -0.007102 0.000611 0.004746
v -0.006892 -0.000000 0.004605
v -0.007102 -0.000611 0.004746
v -0.007611 -0.000864 0.005085
v -0.008119 -0.000611 0.005425
v -0.007084 -0.000000 0.007084
v -0.006905 0.000611 0.006905
v -0.006472 0.000864 0.006472
v -0.006040 0.000611 0.006040
v -0.005861 -0.000000 0.005861
v -0.006040 -0.000611 0.006040
v -0.006472 -0.000864 0.006472
v -0.006905 -0.000611 0.006905
v -0.005566 -0.000000 0.008329
v -0.005425 0.000611 0.008119
v -0.005085 0.000864 0.007611
v -0.004746 0.000611 0.007102
v -0.004605 -0.000000 0.006892
v -0.004746 -0.000611 0.007102
v -0.005085 -0.000864 0.007611
v -0.005425 -0.000611 0.008119
v 0.005566 -0.000000 0.008329
v 0.005425 0.000611 0.008119
v 0.005085 0.000864 0.007611
v 0.004746 0.000611 0.007102
v 0.004605 -0.000000 0.006892
v 0.004746 -0.000611 0.007102
v 0.005085 -0.000864 0.007611
v 0.005425 -0.000611 0.008119
v 0.007084 -0.000000 0.007084
v 0.006905 0.000611 0.006905
v 0.006472 0.000864 0.006472
v 0.006040 0.000611 0.006040
v 0.005861 -0.000000 0.005861
v 0.006040 -0.000611 0.006040
v 0.006472 -0.000864 0.006472
v 0.006905 -0.000611 0.006905
v 0.008329 -0.000000 0.005566
v 0.008119 0.000611 0.005425
v 0.007611 0.000864 0.005085
v 0.007102 0.000611 0.004746
v 0.006892 -0.000000 0.004605
v 0.007102 -0.000611 0.004746
v 0.007611 -0.000864 0.005085
v 0.008119 -0.000611 0.005425
v 0.009255 -0.000000 0.003834
v 0.009021 0.000611 0.003737
v 0.008457 0.000864 0.003503
v 0.007892 0.000611 0.003269
v 0.007658 -0.000000 0.003172
v 0.007892 -0.000611 0.003269
v 0.008457 -0.000864 0.003503
v 0.009021 -0.000611 0.003737
v 0.009825 -0.000000 0.001954
v 0.009577 0.000611 0.001905
v 0.008977 0.000864 0.001786
v 0.008378 0.000611 0.001666
v 0.008130 -0.000000 0.001617
v 0.008378 -0.000611 0.001666
v 0.008977 -0.000864 0.001786
v 0.009577 -0.000611 0.001905
v -0.004357 -0.000000 0.008976
v -0.003915 -0.000000 0.009000
v -0.004260 0.000611 0.008742
v -0.003839 0.000479 0.008817
v -0.004026 0.000864 0.008177
v -0.003656 0.000677 0.008375
v -0.003792 0.000611 0.007612
v -0.003473 0.000479 0.007932
v -0.003503 -0.000000 0.008457
v -0.003695 -0.000000 0.007378
v -0.003397 -0.000000 0.007749
v -0.003792 -0.000611 0.007612
v -0.003473 -0.000479 0.007932
v -0.004026 -0.000864 0.008177
v -0.003656 -0.000677 0.008375
v -0.004260 -0.000611 0.008742
v -0.003839 -0.000479 0.008817
v 0.004357 -0.000000 0.008976
v 0.003915 -0.000000 0.009000
v 0.004260 0.000611 0.008742
v 0.003839 0.000479 0.008817
v 0.004026 0.000864 0.008177
v 0.003656 0.000677 0.008375
v 0.003792 0.000611 0.007612
v 0.003473 0.000479 0.007932
v 0.003695 -0.000000 0.007378
v 0.003397 -0.000000 0.007749
v 0.003792 -0.000611 0.007612
v 0.003503 -0.000000 0.008457
v 0.003473 -0.000479 0.007932
v 0.004026 -0.000864 0.008177
v 0.003656 -0.000677 0.008375
v 0.004260 -0.000611 0.008742
v 0.003839 -0.000479 0.008817
vn 0.5774 -0.5774 0.5774
vn 0.3036 -0.6737 0.6737
vn 0.3403 -0.8766 0.3403
vn 0.6737 -0.6737 0.3036
vn -0.0000 -0.7071 0.7071
vn -0.0000 -0.9326 0.3610
vn -0.3036 -0.6737 0.6737
vn -0.3403 -0.8766 0.3403
vn -0.5774 -0.5774 0.5774
vn -0.6737 -0.6737 0.3036
vn 0.3610 -0.9326 -0.0000
vn 0.7071 -0.7071 -0.0000
vn -0.0000 -1.0000 -0.0000
vn -0.3610 -0.9326 -0.0000
vn -0.7071 -0.7071 -0.0000
vn 0.3403 -0.8766 -0.3403
vn 0.6737 -0.6737 -0.3036
vn -0.0000 -0.9326 -0.3610
vn -0.3403 -0.8766 -0.3403
vn -0.6737 -0.6737 -0.3036
vn 0.3036 -0.6737 -0.6737
vn 0.5774 -0.5774 -0.5774
vn -0.0000 -0.7071 -0.7071
vn -0.3036 -0.6737 -0.6737
vn -0.5774 -0.5774 -0.5774
vn -0.6737 -0.3036 0.6737
vn -0.8766 -0.3403 0.3403
vn -0.7071 -0.0000 0.7071
vn -0.9326 -0.0000 0.3610
vn -0.6737 0.3036 0.6737
vn -0.8766 0.3403 0.3403
vn -0.5774 0.5774 0.5774
vn -0.6737 0.6737 0.3036
vn -0.9326 -0.3610 -0.0000
vn -1.0000 -0.0000 -0.0000
vn -0.9326 0.3610 -0.0000
vn -0.7071 0.7071 -0.0000
vn -0.8766 -0.3403 -0.3403
vn -0.9326 -0.0000 -0.3610
vn -0.8766 0.3403 -0.3403
vn -0.6737 0.6737 -0.3036
vn -0.6737 -0.3036 -0.6737
vn -0.7071 -0.0000 -0.7071
vn -0.6737 0.3036 -0.6737
vn -0.5774 0.5774 -0.5774
vn -0.3036 0.6737 0.6737
vn -0.3403 0.8766 0.3403
vn -0.0000 0.7071 0.7071
vn -0.0000 0.9326 0.3610
vn 0.3036 0.6737 0.6737
vn 0.3403 0.8766 0.3403
vn 0.5774 0.5774 0.5774
vn 0.6737 0.6737 0.3036
vn -0.3610 0.9326 -0.0000
vn -0.0000 1.0000 -0.0000
vn 0.3610 0.9326 -0.0000
vn 0.7071 0.7071 -0.0000
vn -0.3403 0.8766 -0.3403
vn -0.0000 0.9326 -0.3610
vn 0.3403 0.8766 -0.3403
vn 0.6737 0.6737 -0.3036
vn -0.3036 0.6737 -0.6737
vn -0.0000 0.7071 -0.7071
vn 0.3036 0.6737 -0.6737
vn 0.5774 0.5774 -0.5774
vn 0.6737 0.3036 0.6737
vn 0.8766 0.3403 0.3403
vn 0.7071 -0.0000 0.7071
vn 0.9326 -0.0000 0.3610
vn 0.6737 -0.3036 0.6737
vn 0.8766 -0.3403 0.3403
vn 0.9326 0.3610 -0.0000
vn 1.0000 -0.0000 -0.0000
vn 0.9326 -0.3610 -0.0000
vn 0.8766 0.3403 -0.3403
vn 0.9326 -0.0000 -0.3610
vn 0.8766 -0.3403 -0.3403
vn 0.6737 0.3036 -0.6737
vn 0.7071 -0.0000 -0.7071
vn 0.6737 -0.3036 -0.6737
vn 0.3403 0.3403 0.8766
vn -0.0000 0.3610 0.9326
vn -0.3403 0.3403 0.8766
vn 0.3610 -0.0000 0.9326
vn -0.0000 -0.0000 1.0000
vn -0.3610 -0.0000 0.9326
vn 0.3403 -0.3403 0.8766
vn -0.0000 -0.3610 0.9326
vn -0.3403 -0.3403 0.8766
vn 0.3403 -0.3403 -0.8766
vn -0.0000 -0.3610 -0.9326
vn -0.3403 -0.3403 -0.8766
vn 0.3610 -0.0000 -0.9326
vn -0.0000 -0.0000 -1.0000
vn -0.3610 -0.0000 -0.9326
vn 0.3403 0.3403 -0.8766
vn -0.0000 0.3610 -0.9326
vn -0.3403 0.3403 -0.8766
vn 0.9808 -0.0000 -0.1951
vn 0.7049 0.6954 -0.1402
vn 0.7187 0.6954 -0.0000
vn 0.0234 0.9997 -0.0047
vn 0.0239 0.9997 -0.0000
vn -0.6814 0.7193 0.1355
vn -0.6948 0.7193 -0.0000
vn -0.9808 -0.0000 0.1951
vn -0.6814 -0.7193 0.1355
vn -0.6948 -0.7193 -0.0000
vn 0.0234 -0.9997 -0.0047
vn 0.0239 -0.9997 -0.0000
vn 0.7049 -0.6954 -0.1402
vn 0.7187 -0.6954 -0.0000
vn 0.9239 -0.0000 -0.3827
vn 0.6640 0.6954 -0.2750
vn 0.0221 0.9997 -0.0091
vn -0.6419 0.7193 0.2659
vn -0.9239 -0.0000 0.3827
vn -0.6419 -0.7193 0.2659
vn 0.0221 -0.9997 -0.0091
vn 0.6640 -0.6954 -0.2750
vn 0.8315 -0.0000 -0.5556
vn 0.5976 0.6954 -0.3993
vn 0.0199 0.9997 -0.0133
vn -0.5777 0.7193 0.3860
vn -0.8315 -0.0000 0.5556
vn -0.5777 -0.7193 0.3860
vn 0.0199 -0.9997 -0.0133
vn 0.5975 -0.6954 -0.3993
vn 0.5082 0.6954 -0.5082
vn 0.0169 0.9997 -0.0169
vn -0.4913 0.7193 0.4913
vn -0.4913 -0.7193 0.4913
vn 0.0169 -0.9997 -0.0169
vn 0.5082 -0.6954 -0.5082
vn 0.5556 -0.0000 -0.8315
vn 0.3993 0.6954 -0.5975
vn 0.0133 0.9997 -0.0199
vn -0.3860 0.7193 0.5777
vn -0.5556 -0.0000 0.8315
vn -0.3860 -0.7193 0.5777
vn 0.0133 -0.9997 -0.0199
vn 0.3993 -0.6954 -0.5975
vn 0.3827 -0.0000 -0.9239
vn 0.2750 0.6954 -0.6640
vn 0.0091 0.9997 -0.0221
vn -0.2659 0.7193 0.6419
vn -0.3827 -0.0000 0.9239
vn -0.2659 -0.7193 0.6419
vn 0.0091 -0.9997 -0.0221
vn 0.2750 -0.6954 -0.6640
vn 0.1951 -0.0000 -0.9808
vn 0.1402 0.6954 -0.7049
vn 0.0047 0.9997 -0.0234
vn -0.1355 0.7193 0.6814
vn -0.1951 -0.0000 0.9808
vn -0.1355 -0.7193 0.6814
vn 0.0047 -0.9997 -0.0234
vn 0.1402 -0.6954 -0.7049
vn -0.0000 0.6954 -0.7187
vn -0.0000 0.9997 -0.0239
vn -0.0000 0.7193 0.6948
vn -0.0000 -0.7193 0.6948
vn -0.0000 -0.9997 -0.0239
vn -0.0000 -0.6954 -0.7187
vn -0.1951 -0.0000 -0.9808
vn -0.1402 0.6954 -0.7049
vn -0.0047 0.9997 -0.0234
vn 0.1355 0.7193 0.6814
vn 0.1951 -0.0000 0.9808
vn 0.1355 -0.7193 0.6814
vn -0.0047 -0.9997 -0.0234
vn -0.1402 -0.6954 -0.7049
vn -0.3827 -0.0000 -0.9239
vn -0.2750 0.6954 -0.6640
vn -0.0091 0.9997 -0.0221
vn 0.2659 0.7193 0.6419
vn 0.3827 -0.0000 0.9239
vn 0.2659 -0.7193 0.6419
vn -0.0091 -0.9997 -0.0221
vn -0.2750 -0.6954 -0.6640
vn -0.5556 -0.0000 -0.8315
vn -0.3993 0.6954 -0.5975
vn -0.0133 0.9997 -0.0199
vn 0.3860 0.7193 0.5777
vn 0.5556 -0.0000 0.8315
vn 0.3860 -0.7193 0.5777
vn -0.0133 -0.9997 -0.0199
vn -0.3993 -0.6954 -0.5976
vn -0.5082 0.6954 -0.5082
vn -0.0169 0.9997 -0.0169
vn 0.4913 0.7193 0.4913
vn 0.4913 -0.7193 0.4913
vn -0.0169 -0.9997 -0.0169
vn -0.5082 -0.6954 -0.5082
vn -0.8315 -0.0000 -0.5556
vn -0.5976 0.6954 -0.3993
vn -0.0199 0.9997 -0.0133
vn 0.5777 0.7193 0.3860
vn 0.8315 -0.0000 0.5556
vn 0.5777 -0.7193 0.3860
vn -0.0199 -0.9997 -0.0133
vn -0.5976 -0.6954 -0.3993
vn -0.9239 -0.0000 -0.3827
vn -0.6640 0.6954 -0.2750
vn -0.0221 0.9997 -0.0091
vn 0.6419 0.7193 0.2659
vn 0.9239 -0.0000 0.3827
vn 0.6419 -0.7193 0.2659
vn -0.0221 -0.9997 -0.0091
vn -0.6640 -0.6954 -0.2750
vn -0.9808 -0.0000 -0.1951
vn -0.7049 0.6954 -0.1402
vn -0.0234 0.9997 -0.0047
vn 0.6814 0.7193 0.1355
vn 0.9808 -0.0000 0.1951
vn 0.6814 -0.7193 0.1355
vn -0.0234 -0.9997 -0.0047
vn -0.7049 -0.6954 -0.1402
vn -0.7187 0.6954 -0.0000
vn -0.0239 0.9997 -0.0000
vn 0.6947 0.7193 -0.0000
vn 0.6947 -0.7193 -0.0000
vn -0.0239 -0.9997 -0.0000
vn -0.7187 -0.6954 -0.0000
vn -0.7049 0.6954 0.1402
vn -0.0234 0.9997 0.0047
vn 0.6814 0.7193 -0.1355
vn 0.6814 -0.7193 -0.1355
vn -0.0234 -0.9997 0.0047
vn -0.7049 -0.6954 0.1402
vn -0.6640 0.6954 0.2750
vn -0.0221 0.9997 0.0091
vn 0.6419 0.7193 -0.2659
vn 0.6419 -0.7193 -0.2659
vn -0.0221 -0.9997 0.0091
vn -0.6640 -0.6954 0.2750
vn -0.5976 0.6954 0.3993
vn -0.0199 0.9997 0.0133
vn 0.5777 0.7193 -0.3860
vn 0.5777 -0.7193 -0.3860
vn -0.0199 -0.9997 0.0133
vn -0.5976 -0.6954 0.3993
vn -0.5082 0.6954 0.5082
vn -0.0169 0.9997 0.0169
vn 0.4913 0.7193 -0.4913
vn 0.4913 -0.7193 -0.4913
vn -0.0169 -0.9997 0.0169
vn -0.5082 -0.6954 0.5082
vn -0.3993 0.6954 0.5976
vn -0.0133 0.9997 0.0199
vn 0.3860 0.7193 -0.5777
vn 0.3860 -0.7193 -0.5777
vn -0.0133 -0.9997 0.0199
vn -0.3993 -0.6954 0.5976
vn 0.1826 0.9799 0.0803
vn 0.4991 0.6858 -0.5297
vn 0.6280 -0.0000 -0.7783
vn 0.4991 -0.6858 -0.5297
vn 0.1826 -0.9799 0.0803
vn -0.1401 -0.6987 0.7015
vn -0.2753 -0.0000 0.9614
vn -0.1401 0.6987 0.7015
vn 0.1401 0.6987 0.7015
vn 0.3993 0.6954 0.5976
vn 0.0133 0.9997 0.0199
vn -0.1826 0.9799 0.0803
vn -0.3860 0.7193 -0.5777
vn -0.4991 0.6858 -0.5297
vn -0.6280 -0.0000 -0.7783
vn -0.3860 -0.7193 -0.5777
vn -0.4991 -0.6858 -0.5297
vn 0.0133 -0.9997 0.0199
vn -0.1826 -0.9799 0.0803
vn 0.3993 -0.6954 0.5975
vn 0.1401 -0.6987 0.7015
vn 0.2753 -0.0000 0.9614
vn 0.5082 0.6954 0.5082
vn 0.0169 0.9997 0.0169
vn -0.4913 0.7193 -0.4913
vn -0.4913 -0.7193 -0.4913
vn 0.0169 -0.9997 0.0169
vn 0.5082 -0.6954 0.5082
vn 0.5976 0.6954 0.3993
vn 0.0199 0.9997 0.0133
vn -0.5777 0.7193 -0.3860
vn -0.5777 -0.7193 -0.3860
vn 0.0199 -0.9997 0.0133
vn 0.5976 -0.6954 0.3993
vn 0.6640 0.6954 0.2750
vn 0.0221 0.9997 0.0091
vn -0.6419 0.7193 -0.2659
vn -0.6419 -0.7193 -0.2659
vn 0.0221 -0.9997 0.0091
vn 0.6640 -0.6954 0.2750
vn 0.7049 0.6954 0.1402
vn 0.0234 0.9997 0.0047
vn -0.6814 0.7193 -0.1355
vn -0.6814 -0.7193 -0.1355
vn 0.0234 -0.9997 0.0047
vn 0.7049 -0.6954 0.1402
vn 0.4392 -0.5038 0.7439
vn 0.6712 -0.6804 0.2942
vn 0.9217 -0.0000 0.3879
vn 0.3752 -0.0000 0.9269
vn 0.4392 0.5038 0.7439
vn 0.9521 -0.0000 -0.3058
vn 0.8605 0.4857 -0.1536
vn 0.6712 0.6804 0.2942
vn -0.4392 0.5038 0.7439
vn -0.3752 -0.0000 0.9269
vn -0.6712 0.6804 0.2942
vn -0.9217 -0.0000 0.3879
vn -0.4392 -0.5038 0.7439
vn 0.8605 -0.4857 -0.1536
vn -0.8605 0.4857 -0.1536
vn -0.8605 -0.4857 -0.1536
vn -0.6712 -0.6804 0.2942
vn -0.9521 -0.0000 -0.3058
vt 0.157021 0.194110
vt 0.160851 0.214567
vt 0.137453 0.213679
vt 0.136564 0.190280
vt 0.161629 0.232584
vt 0.137812 0.232584
vt 0.160851 0.250600
vt 0.137453 0.251489
vt 0.157021 0.271057
vt 0.136564 0.274887
vt 0.118548 0.213319
vt 0.118548 0.189502
vt 0.118548 0.232584
vt 0.118548 0.251848
vt 0.118548 0.275666
vt 0.099642 0.213679
vt 0.100531 0.190280
vt 0.099283 0.232584
vt 0.099642 0.251489
vt 0.100531 0.274887
vt 0.076244 0.214567
vt 0.080074 0.194110
vt 0.075466 0.232584
vt 0.076244 0.250600
vt 0.080074 0.271057
vt 0.173827 0.287864
vt 0.145201 0.301391
vt 0.192596 0.306633
vt 0.156789 0.331432
vt 0.263374 0.158535
vt 0.282144 0.177304
vt 0.268616 0.205930
vt 0.238575 0.194343
vt 0.298950 0.194110
vt 0.295120 0.214567
vt 0.118548 0.304807
vt 0.118548 0.339948
vt 0.265200 0.232584
vt 0.230059 0.232584
vt 0.294342 0.232584
vt 0.091894 0.301391
vt 0.080307 0.331432
vt 0.268616 0.259238
vt 0.238575 0.270825
vt 0.295120 0.250600
vt 0.063268 0.287864
vt 0.044499 0.306633
vt 0.282144 0.287864
vt 0.263374 0.306633
vt 0.298950 0.271058
vt 0.319407 0.190280
vt 0.318518 0.213679
vt 0.337423 0.189502
vt 0.337423 0.213319
vt 0.355440 0.190280
vt 0.356328 0.213679
vt 0.375897 0.194110
vt 0.379727 0.214567
vt 0.318159 0.232584
vt 0.337423 0.232584
vt 0.356688 0.232584
vt 0.380505 0.232584
vt 0.318518 0.251489
vt 0.337423 0.251849
vt 0.356328 0.251489
vt 0.379727 0.250600
vt 0.319407 0.274888
vt 0.337423 0.275666
vt 0.355440 0.274888
vt 0.375897 0.271058
vt 0.392703 0.177304
vt 0.406231 0.205930
vt 0.411472 0.158535
vt 0.436271 0.194343
vt 0.192596 0.158535
vt 0.173827 0.177304
vt 0.145201 0.163776
vt 0.156789 0.133736
vt 0.409647 0.232584
vt 0.444788 0.232584
vt 0.118548 0.160360
vt 0.118548 0.125219
vt 0.406231 0.259238
vt 0.436271 0.270825
vt 0.091894 0.163776
vt 0.080307 0.133736
vt 0.392703 0.287864
vt 0.411472 0.306633
vt 0.063268 0.177304
vt 0.044499 0.158535
vt 0.364077 0.163776
vt 0.337423 0.160361
vt 0.310769 0.163776
vt 0.375664 0.133736
vt 0.337423 0.125219
vt 0.299182 0.133736
vt 0.217395 0.194343
vt 0.187355 0.205930
vt 0.225912 0.232584
vt 0.190771 0.232584
vt 0.217395 0.270825
vt 0.187355 0.259238
vt 0.049740 0.205930
vt 0.046324 0.232584
vt 0.049740 0.259238
vt 0.019700 0.194343
vt 0.011183 0.232584
vt 0.019700 0.270825
vt 0.375664 0.331432
vt 0.364077 0.301391
vt 0.337423 0.339948
vt 0.337423 0.304807
vt 0.299182 0.331432
vt 0.310769 0.301391
vt 0.211769 0.063278
vt 0.248018 0.063278
vt 0.248018 0.076644
vt 0.211769 0.076644
vt 0.248018 0.090011
vt 0.211769 0.090010
vt 0.248018 0.103377
vt 0.211769 0.103377
vt 0.248018 0.116743
vt 0.211769 0.116743
vt 0.211769 0.009813
vt 0.248018 0.009813
vt 0.248018 0.023179
vt 0.211769 0.023179
vt 0.248018 0.036546
vt 0.211769 0.036545
vt 0.248018 0.049912
vt 0.211769 0.049912
vt 0.284267 0.063278
vt 0.284267 0.076644
vt 0.284267 0.090011
vt 0.284267 0.103377
vt 0.284267 0.116743
vt 0.284267 0.009813
vt 0.284267 0.023179
vt 0.284267 0.036546
vt 0.284267 0.049912
vt 0.320516 0.063278
vt 0.320516 0.076644
vt 0.320516 0.090011
vt 0.320516 0.103377
vt 0.320516 0.116743
vt 0.320516 0.009813
vt 0.320516 0.023179
vt 0.320516 0.036546
vt 0.320516 0.049912
vt 0.356765 0.063278
vt 0.356765 0.076644
vt 0.356765 0.090011
vt 0.356765 0.103377
vt 0.356765 0.116743
vt 0.356765 0.009813
vt 0.356765 0.023179
vt 0.356765 0.036546
vt 0.356765 0.049912
vt 0.393014 0.063278
vt 0.393014 0.076644
vt 0.393014 0.090011
vt 0.393014 0.103377
vt 0.393014 0.116743
vt 0.393014 0.009813
vt 0.393014 0.023179
vt 0.393014 0.036546
vt 0.393014 0.049912
vt 0.429263 0.063278
vt 0.429263 0.076644
vt 0.429263 0.090011
vt 0.429263 0.103377
vt 0.429263 0.116743
vt 0.429263 0.009813
vt 0.429263 0.023179
vt 0.429263 0.036546
vt 0.429263 0.049912
vt 0.465512 0.063278
vt 0.465512 0.076644
vt 0.465512 0.090011
vt 0.465512 0.103377
vt 0.465512 0.116743
vt 0.465512 0.009813
vt 0.465512 0.023179
vt 0.465512 0.036546
vt 0.465512 0.049912
vt 0.501492 0.063278
vt 0.501492 0.076644
vt 0.501492 0.090011
vt 0.501492 0.103377
vt 0.501492 0.116743
vt 0.501492 0.009813
vt 0.501492 0.023179
vt 0.501492 0.036546
vt 0.501492 0.049912
vt 0.537472 0.063278
vt 0.537472 0.076644
vt 0.537472 0.090011
vt 0.537472 0.103377
vt 0.537472 0.116743
vt 0.537472 0.009813
vt 0.537472 0.023179
vt 0.537472 0.036546
vt 0.537472 0.049912
vt 0.573452 0.063278
vt 0.573452 0.076644
vt 0.573452 0.090011
vt 0.573452 0.103377
vt 0.573452 0.116743
vt 0.573452 0.009813
vt 0.573452 0.023179
vt 0.573452 0.036546
vt 0.573452 0.049912
vt 0.609432 0.063278
vt 0.609432 0.076644
vt 0.609432 0.090011
vt 0.609432 0.103377
vt 0.609432 0.116743
vt 0.609432 0.009813
vt 0.609432 0.023179
vt 0.609432 0.036546
vt 0.609432 0.049912
vt 0.645412 0.063278
vt 0.645412 0.076644
vt 0.645412 0.090011
vt 0.645412 0.103377
vt 0.645412 0.116743
vt 0.645412 0.009813
vt 0.645412 0.023179
vt 0.645412 0.036546
vt 0.645412 0.049912
vt 0.681392 0.063278
vt 0.681392 0.076644
vt 0.681392 0.090011
vt 0.681392 0.103377
vt 0.681392 0.116743
vt 0.681392 0.009813
vt 0.681392 0.023179
vt 0.681392 0.036546
vt 0.681392 0.049912
vt 0.717372 0.063278
vt 0.717372 0.076644
vt 0.717372 0.090011
vt 0.717372 0.103377
vt 0.717372 0.116743
vt 0.717372 0.009813
vt 0.717372 0.023179
vt 0.717372 0.036546
vt 0.717372 0.049912
vt 0.753352 0.063278
vt 0.753352 0.076644
vt 0.753352 0.090011
vt 0.753352 0.103377
vt 0.753352 0.116743
vt 0.753352 0.009813
vt 0.753352 0.023179
vt 0.753352 0.036546
vt 0.753352 0.049912
vt 0.789331 0.063278
vt 0.789331 0.076644
vt 0.789331 0.090011
vt 0.789331 0.103377
vt 0.789331 0.116743
vt 0.789331 0.009813
vt 0.789331 0.023179
vt 0.789331 0.036546
vt 0.789331 0.049912
vt 0.825312 0.063278
vt 0.825311 0.076644
vt 0.825311 0.090011
vt 0.825311 0.103377
vt 0.825311 0.116743
vt 0.825311 0.009813
vt 0.825312 0.023179
vt 0.825312 0.036546
vt 0.825311 0.049912
vt 0.861291 0.063278
vt 0.861291 0.076644
vt 0.861291 0.090011
vt 0.861291 0.103377
vt 0.861291 0.116743
vt 0.861291 0.009813
vt 0.861291 0.023179
vt 0.861291 0.036546
vt 0.861291 0.049912
vt 0.897271 0.063278
vt 0.897271 0.076644
vt 0.897271 0.090011
vt 0.897272 0.103377
vt 0.897271 0.116743
vt 0.897271 0.009813
vt 0.897271 0.023179
vt 0.897271 0.036546
vt 0.897271 0.049912
vt 0.933252 0.063278
vt 0.933251 0.076644
vt 0.933251 0.090011
vt 0.933252 0.103377
vt 0.933251 0.116743
vt 0.933251 0.009813
vt 0.933251 0.023179
vt 0.933251 0.036546
vt 0.933252 0.049912
vt 0.969231 0.063278
vt 0.969231 0.076644
vt 0.969231 0.090011
vt 0.969231 0.103377
vt 0.969231 0.116743
vt 0.969231 0.009813
vt 0.969231 0.023179
vt 0.969231 0.036546
vt 0.969231 0.049912
vt 0.993878 0.090011
vt 0.993878 0.103377
vt 0.993878 0.116743
vt 0.993878 0.009813
vt 0.993878 0.023179
vt 0.993878 0.036546
vt 0.993878 0.049912
vt 0.993878 0.063278
vt 0.993878 0.076644
vt 0.006684 0.076644
vt 0.031331 0.076644
vt 0.031331 0.090010
vt 0.006684 0.090010
vt 0.031331 0.103377
vt 0.006684 0.103377
vt 0.031331 0.116743
vt 0.006684 0.116743
vt 0.006684 0.009813
vt 0.031331 0.009813
vt 0.031331 0.023179
vt 0.006684 0.023179
vt 0.031331 0.036545
vt 0.006684 0.036545
vt 0.031331 0.049912
vt 0.006684 0.049912
vt 0.006684 0.063278
vt 0.031331 0.063278
vt 0.067311 0.063278
vt 0.067311 0.076644
vt 0.067311 0.090010
vt 0.067311 0.103377
vt 0.067311 0.116743
vt 0.067311 0.009813
vt 0.067311 0.023179
vt 0.067311 0.036545
vt 0.067311 0.049912
vt 0.103291 0.063278
vt 0.103291 0.076644
vt 0.103291 0.090010
vt 0.103291 0.103377
vt 0.103291 0.116743
vt 0.103291 0.009813
vt 0.103291 0.023179
vt 0.103291 0.036545
vt 0.103291 0.049912
vt 0.139271 0.063278
vt 0.139271 0.076644
vt 0.139271 0.090010
vt 0.139271 0.103377
vt 0.139271 0.116743
vt 0.139271 0.009813
vt 0.139271 0.023179
vt 0.139271 0.036545
vt 0.139271 0.049912
vt 0.175251 0.063278
vt 0.175251 0.076644
vt 0.175251 0.090010
vt 0.175251 0.103377
vt 0.175251 0.116743
vt 0.175251 0.009813
vt 0.175251 0.023179
vt 0.175251 0.036545
vt 0.175251 0.049912
vt 0.474248 0.166708
vt 0.470506 0.158387
vt 0.482530 0.158402
vt 0.482530 0.169638
vt 0.490812 0.166708
vt 0.498973 0.173162
vt 0.482530 0.180544
vt 0.466087 0.173162
vt 0.482530 0.145793
vt 0.491198 0.149717
vt 0.494555 0.158387
vt 0.537404 0.180544
vt 0.520961 0.173162
vt 0.529122 0.166708
vt 0.537404 0.169638
vt 0.525380 0.158387
vt 0.537404 0.158402
vt 0.545686 0.166708
vt 0.553847 0.173162
vt 0.504873 0.156841
vt 0.515062 0.156841
vt 0.473863 0.149717
vt 0.497671 0.141542
vt 0.522263 0.141542
vt 0.528736 0.149717
vt 0.546072 0.149717
vt 0.549428 0.158387
vt 0.537404 0.145793
vt 0.482530 0.135740
vt 0.537404 0.135740
vt 0.467389 0.141542
vt 0.552545 0.141542
vt 0.460188 0.156841
vt 0.559746 0.156841
s 1
f 1/1/1 2/2/2 6/3/3 5/4/4
f 2/2/2 3/5/5 7/6/6 6/3/3
f 3/5/5 4/7/7 8/8/8 7/6/6
f 4/7/7 17/9/9 21/10/10 8/8/8
f 5/4/4 6/3/3 10/11/11 9/12/12
f 6/3/3 7/6/6 11/13/13 10/11/11
f 7/6/6 8/8/8 12/14/14 11/13/13
f 8/8/8 21/10/10 25/15/15 12/14/14
f 9/12/12 10/11/11 14/16/16 13/17/17
f 10/11/11 11/13/13 15/18/18 14/16/16
f 11/13/13 12/14/14 16/19/19 15/18/18
f 12/14/14 25/15/15 29/20/20 16/19/19
f 13/17/17 14/16/16 75/21/21 74/22/22
f 14/16/16 15/18/18 76/23/23 75/21/21
f 15/18/18 16/19/19 77/24/24 76/23/23
f 16/19/19 29/20/20 78/25/25 77/24/24
f 17/9/9 18/26/26 22/27/27 21/10/10
f 18/26/26 19/28/28 23/29/29 22/27/27
f 19/30/28 20/31/30 24/32/31 23/33/29
f 20/31/30 33/34/32 37/35/33 24/32/31
f 21/10/10 22/27/27 26/36/34 25/15/15
f 22/27/27 23/29/29 27/37/35 26/36/34
f 23/33/29 24/32/31 28/38/36 27/39/35
f 24/32/31 37/35/33 41/40/37 28/38/36
f 25/15/15 26/36/34 30/41/38 29/20/20
f 26/36/34 27/37/35 31/42/39 30/41/38
f 27/39/35 28/38/36 32/43/40 31/44/39
f 28/38/36 41/40/37 45/45/41 32/43/40
f 29/20/20 30/41/38 83/46/42 78/25/25
f 30/41/38 31/42/39 88/47/43 83/46/42
f 31/44/39 32/43/40 93/48/44 88/49/43
f 32/43/40 45/45/41 98/50/45 93/48/44
f 33/34/32 34/51/46 38/52/47 37/35/33
f 34/51/46 35/53/48 39/54/49 38/52/47
f 35/53/48 36/55/50 40/56/51 39/54/49
f 36/55/50 49/57/52 53/58/53 40/56/51
f 37/35/33 38/52/47 42/59/54 41/40/37
f 38/52/47 39/54/49 43/60/55 42/59/54
f 39/54/49 40/56/51 44/61/56 43/60/55
f 40/56/51 53/58/53 57/62/57 44/61/56
f 41/40/37 42/59/54 46/63/58 45/45/41
f 42/59/54 43/60/55 47/64/59 46/63/58
f 43/60/55 44/61/56 48/65/60 47/64/59
f 44/61/56 57/62/57 61/66/61 48/65/60
f 45/45/41 46/63/58 97/67/62 98/50/45
f 46/63/58 47/64/59 96/68/63 97/67/62
f 47/64/59 48/65/60 95/69/64 96/68/63
f 48/65/60 61/66/61 94/70/65 95/69/64
f 49/57/52 50/71/66 54/72/67 53/58/53
f 50/71/66 51/73/68 55/74/69 54/72/67
f 51/75/68 52/76/70 56/77/71 55/78/69
f 52/76/70 1/1/1 5/4/4 56/77/71
f 53/58/53 54/72/67 58/79/72 57/62/57
f 54/72/67 55/74/69 59/80/73 58/79/72
f 55/78/69 56/77/71 60/81/74 59/82/73
f 56/77/71 5/4/4 9/12/12 60/81/74
f 57/62/57 58/79/72 62/83/75 61/66/61
f 58/79/72 59/80/73 63/84/76 62/83/75
f 59/82/73 60/81/74 64/85/77 63/86/76
f 60/81/74 9/12/12 13/17/17 64/85/77
f 61/66/61 62/83/75 89/87/78 94/70/65
f 62/83/75 63/84/76 84/88/79 89/87/78
f 63/86/76 64/85/77 79/89/80 84/90/79
f 64/85/77 13/17/17 74/22/22 79/89/80
f 49/57/52 36/55/50 65/91/81 50/71/66
f 36/55/50 35/53/48 66/92/82 65/91/81
f 35/53/48 34/51/46 67/93/83 66/92/82
f 34/51/46 33/34/32 20/31/30 67/93/83
f 50/71/66 65/91/81 68/94/84 51/73/68
f 65/91/81 66/92/82 69/95/85 68/94/84
f 66/92/82 67/93/83 70/96/86 69/95/85
f 67/93/83 20/31/30 19/30/28 70/96/86
f 51/75/68 68/97/84 71/98/87 52/76/70
f 68/97/84 69/99/85 72/100/88 71/98/87
f 69/99/85 70/101/86 73/102/89 72/100/88
f 70/101/86 19/28/28 18/26/26 73/102/89
f 52/76/70 71/98/87 2/2/2 1/1/1
f 71/98/87 72/100/88 3/5/5 2/2/2
f 72/100/88 73/102/89 4/7/7 3/5/5
f 73/102/89 18/26/26 17/9/9 4/7/7
f 74/22/22 75/21/21 80/103/90 79/89/80
f 75/21/21 76/23/23 81/104/91 80/103/90
f 76/23/23 77/24/24 82/105/92 81/104/91
f 77/24/24 78/25/25 83/46/42 82/105/92
f 79/89/80 80/103/90 85/106/93 84/90/79
f 80/103/90 81/104/91 86/107/94 85/106/93
f 81/104/91 82/105/92 87/108/95 86/107/94
f 82/105/92 83/46/42 88/47/43 87/108/95
f 84/88/79 85/109/93 90/110/96 89/87/78
f 85/109/93 86/111/94 91/112/97 90/110/96
f 86/111/94 87/113/95 92/114/98 91/112/97
f 87/113/95 88/49/43 93/48/44 92/114/98
f 89/87/78 90/110/96 95/69/64 94/70/65
f 90/110/96 91/112/97 96/68/63 95/69/64
f 91/112/97 92/114/98 97/67/62 96/68/63
f 92/114/98 93/48/44 98/50/45 97/67/62
f 99/115/73 107/116/99 108/117/100 100/118/101
f 100/118/101 108/117/100 109/119/102 101/120/103
f 101/120/103 109/119/102 110/121/104 102/122/105
f 102/122/105 110/121/104 111/123/106 103/124/35
f 103/125/35 111/126/106 112/127/107 104/128/108
f 104/128/108 112/127/107 113/129/109 105/130/110
f 105/130/110 113/129/109 114/131/111 106/132/112
f 106/132/112 114/131/111 107/116/99 99/115/73
f 107/116/99 115/133/113 116/134/114 108/117/100
f 108/117/100 116/134/114 117/135/115 109/119/102
f 109/119/102 117/135/115 118/136/116 110/121/104
f 110/121/104 118/136/116 119/137/117 111/123/106
f 111/126/106 119/138/117 120/139/118 112/127/107
f 112/127/107 120/139/118 121/140/119 113/129/109
f 113/129/109 121/140/119 122/141/120 114/131/111
f 114/131/111 122/141/120 115/133/113 107/116/99
f 115/133/113 123/142/121 124/143/122 116/134/114
f 116/134/114 124/143/122 125/144/123 117/135/115
f 117/135/115 125/144/123 126/145/124 118/136/116
f 118/136/116 126/145/124 127/146/125 119/137/117
f 119/138/117 127/147/125 128/148/126 120/139/118
f 120/139/118 128/148/126 129/149/127 121/140/119
f 121/140/119 129/149/127 130/150/128 122/141/120
f 122/141/120 130/150/128 123/142/121 115/133/113
f 123/142/121 131/151/79 132/152/129 124/143/122
f 124/143/122 132/152/129 133/153/130 125/144/123
f 125/144/123 133/153/130 134/154/131 126/145/124
f 126/145/124 134/154/131 135/155/28 127/146/125
f 127/147/125 135/156/28 136/157/132 128/148/126
f 128/148/126 136/157/132 137/158/133 129/149/127
f 129/149/127 137/158/133 138/159/134 130/150/128
f 130/150/128 138/159/134 131/151/79 123/142/121
f 131/151/79 139/160/135 140/161/136 132/152/129
f 132/152/129 140/161/136 141/162/137 133/153/130
f 133/153/130 141/162/137 142/163/138 134/154/131
f 134/154/131 142/163/138 143/164/139 135/155/28
f 135/156/28 143/165/139 144/166/140 136/157/132
f 136/157/132 144/166/140 145/167/141 137/158/133
f 137/158/133 145/167/141 146/168/142 138/159/134
f 138/159/134 146/168/142 139/160/135 131/151/79
f 139/160/135 147/169/143 148/170/144 140/161/136
f 140/161/136 148/170/144 149/171/145 141/162/137
f 141/162/137 149/171/145 150/172/146 142/163/138
f 142/163/138 150/172/146 151/173/147 143/164/139
f 143/165/139 151/174/147 152/175/148 144/166/140
f 144/166/140 152/175/148 153/176/149 145/167/141
f 145/167/141 153/176/149 154/177/150 146/168/142
f 146/168/142 154/177/150 147/169/143 139/160/135
f 147/169/143 155/178/151 156/179/152 148/170/144
f 148/170/144 156/179/152 157/180/153 149/171/145
f 149/171/145 157/180/153 158/181/154 150/172/146
f 150/172/146 158/181/154 159/182/155 151/173/147
f 151/174/147 159/183/155 160/184/156 152/175/148
f 152/175/148 160/184/156 161/185/157 153/176/149
f 153/176/149 161/185/157 162/186/158 154/177/150
f 154/177/150 162/186/158 155/178/151 147/169/143
f 155/178/151 163/187/94 164/188/159 156/179/152
f 156/179/152 164/188/159 165/189/160 157/180/153
f 157/180/153 165/189/160 166/190/161 158/181/154
f 158/181/154 166/190/161 167/191/85 159/182/155
f 159/183/155 167/192/85 168/193/162 160/184/156
f 160/184/156 168/193/162 169/194/163 161/185/157
f 161/185/157 169/194/163 170/195/164 162/186/158
f 162/186/158 170/195/164 163/187/94 155/178/151
f 163/187/94 171/196/165 172/197/166 164/188/159
f 164/188/159 172/197/166 173/198/167 165/189/160
f 165/189/160 173/198/167 174/199/168 166/190/161
f 166/190/161 174/199/168 175/200/169 167/191/85
f 167/192/85 175/201/169 176/202/170 168/193/162
f 168/193/162 176/202/170 177/203/171 169/194/163
f 169/194/163 177/203/171 178/204/172 170/195/164
f 170/195/164 178/204/172 171/196/165 163/187/94
f 171/196/165 179/205/173 180/206/174 172/197/166
f 172/197/166 180/206/174 181/207/175 173/198/167
f 173/198/167 181/207/175 182/208/176 174/199/168
f 174/199/168 182/208/176 183/209/177 175/200/169
f 175/201/169 183/210/177 184/211/178 176/202/170
f 176/202/170 184/211/178 185/212/179 177/203/171
f 177/203/171 185/212/179 186/213/180 178/204/172
f 178/204/172 186/213/180 179/205/173 171/196/165
f 179/205/173 187/214/181 188/215/182 180/206/174
f 180/206/174 188/215/182 189/216/183 181/207/175
f 181/207/175 189/216/183 190/217/184 182/208/176
f 182/208/176 190/217/184 191/218/185 183/209/177
f 183/210/177 191/219/185 192/220/186 184/211/178
f 184/211/178 192/220/186 193/221/187 185/212/179
f 185/212/179 193/221/187 194/222/188 186/213/180
f 186/213/180 194/222/188 187/214/181 179/205/173
f 187/214/181 195/223/43 196/224/189 188/215/182
f 188/215/182 196/224/189 197/225/190 189/216/183
f 189/216/183 197/225/190 198/226/191 190/217/184
f 190/217/184 198/226/191 199/227/68 191/218/185
f 191/219/185 199/228/68 200/229/192 192/220/186
f 192/220/186 200/229/192 201/230/193 193/221/187
f 193/221/187 201/230/193 202/231/194 194/222/188
f 194/222/188 202/231/194 195/223/43 187/214/181
f 195/223/43 203/232/195 204/233/196 196/224/189
f 196/224/189 204/233/196 205/234/197 197/225/190
f 197/225/190 205/234/197 206/235/198 198/226/191
f 198/226/191 206/235/198 207/236/199 199/227/68
f 199/228/68 207/237/199 208/238/200 200/229/192
f 200/229/192 208/238/200 209/239/201 201/230/193
f 201/230/193 209/239/201 210/240/202 202/231/194
f 202/231/194 210/240/202 203/232/195 195/223/43
f 203/232/195 211/241/203 212/242/204 204/233/196
f 204/233/196 212/242/204 213/243/205 205/234/197
f 205/234/197 213/243/205 214/244/206 206/235/198
f 206/235/198 214/244/206 215/245/207 207/236/199
f 207/237/199 215/246/207 216/247/208 208/238/200
f 208/238/200 216/247/208 217/248/209 209/239/201
f 209/239/201 217/248/209 218/249/210 210/240/202
f 210/240/202 218/249/210 211/241/203 203/232/195
f 211/241/203 219/250/211 220/251/212 212/242/204
f 212/242/204 220/251/212 221/252/213 213/243/205
f 213/243/205 221/252/213 222/253/214 214/244/206
f 214/244/206 222/253/214 223/254/215 215/245/207
f 215/246/207 223/255/215 224/256/216 216/247/208
f 216/247/208 224/256/216 225/257/217 217/248/209
f 217/248/209 225/257/217 226/258/218 218/249/210
f 218/249/210 226/258/218 219/250/211 211/241/203
f 219/250/211 227/259/35 228/260/219 220/251/212
f 220/251/212 228/260/219 229/261/220 221/252/213
f 221/252/213 229/261/220 230/262/221 222/253/214
f 222/253/214 230/262/221 231/263/73 223/254/215
f 223/255/215 231/264/73 232/265/222 224/256/216
f 224/256/216 232/265/222 233/266/223 225/257/217
f 225/257/217 233/266/223 234/267/224 226/258/218
f 226/258/218 234/267/224 227/259/35 219/250/211
f 227/259/35 235/268/106 236/269/225 228/260/219
f 228/260/219 236/269/225 237/270/226 229/261/220
f 229/261/220 237/270/226 238/271/227 230/262/221
f 230/262/221 238/271/227 239/272/99 231/263/73
f 231/264/73 239/273/99 240/274/228 232/265/222
f 232/265/222 240/274/228 241/275/229 233/266/223
f 233/266/223 241/275/229 242/276/230 234/267/224
f 234/267/224 242/276/230 235/268/106 227/259/35
f 235/268/106 243/277/117 244/278/231 236/269/225
f 236/269/225 244/278/231 245/279/232 237/270/226
f 237/270/226 245/279/232 246/280/233 238/271/227
f 238/271/227 246/280/233 247/281/113 239/272/99
f 239/273/99 247/282/113 248/283/234 240/274/228
f 240/274/228 248/283/234 249/284/235 241/275/229
f 241/275/229 249/284/235 250/285/236 242/276/230
f 242/276/230 250/285/236 243/277/117 235/268/106
f 243/277/117 251/286/125 252/287/237 244/278/231
f 244/278/231 252/287/237 253/288/238 245/279/232
f 245/279/232 253/288/238 254/289/239 246/280/233
f 246/280/233 254/289/239 255/290/121 247/281/113
f 247/282/113 255/291/121 256/292/240 248/283/234
f 248/283/234 256/292/240 257/293/241 249/284/235
f 249/284/235 257/293/241 258/294/242 250/285/236
f 250/285/236 258/294/242 251/286/125 243/277/117
f 251/286/125 259/295/28 260/296/243 252/287/237
f 252/287/237 260/296/243 261/297/244 253/288/238
f 253/288/238 261/297/244 262/298/245 254/289/239
f 254/289/239 262/298/245 263/299/79 255/290/121
f 255/291/121 263/300/79 264/301/246 256/292/240
f 256/292/240 264/301/246 265/302/247 257/293/241
f 257/293/241 265/302/247 266/303/248 258/294/242
f 258/294/242 266/303/248 259/295/28 251/286/125
f 259/295/28 267/304/139 268/305/249 260/296/243
f 260/296/243 268/305/249 269/306/250 261/297/244
f 261/297/244 269/306/250 270/307/251 262/298/245
f 262/298/245 270/307/251 271/308/135 263/299/79
f 263/300/79 271/309/135 272/310/252 264/301/246
f 264/301/246 272/310/252 273/311/253 265/302/247
f 265/302/247 273/311/253 274/312/254 266/303/248
f 266/303/248 274/312/254 267/304/139 259/295/28
f 269/306/250 319/313/255 321/314/256 270/307/251
f 270/307/251 321/314/256 324/315/257 271/308/135
f 271/309/135 324/316/257 326/317/258 272/310/252
f 272/310/252 326/317/258 328/318/259 273/311/253
f 273/311/253 328/318/259 330/319/260 274/312/254
f 267/304/139 315/320/261 317/321/262 268/305/249
f 334/322/263 276/323/264 277/324/265 336/325/266
f 336/325/266 277/324/265 278/326/267 338/327/268
f 338/327/268 278/326/267 279/328/181 340/329/269
f 340/330/269 279/331/181 280/332/270 342/333/271
f 342/333/271 280/332/270 281/334/272 345/335/273
f 345/335/273 281/334/272 282/336/274 347/337/275
f 332/338/276 275/339/185 276/323/264 334/322/263
f 275/339/185 283/340/68 284/341/277 276/323/264
f 276/323/264 284/341/277 285/342/278 277/324/265
f 277/324/265 285/342/278 286/343/279 278/326/267
f 278/326/267 286/343/279 287/344/43 279/328/181
f 279/331/181 287/345/43 288/346/280 280/332/270
f 280/332/270 288/346/280 289/347/281 281/334/272
f 281/334/272 289/347/281 290/348/282 282/336/274
f 282/336/274 290/348/282 283/340/68 275/339/185
f 283/340/68 291/349/199 292/350/283 284/341/277
f 284/341/277 292/350/283 293/351/284 285/342/278
f 285/342/278 293/351/284 294/352/285 286/343/279
f 286/343/279 294/352/285 295/353/195 287/344/43
f 287/345/43 295/354/195 296/355/286 288/346/280
f 288/346/280 296/355/286 297/356/287 289/347/281
f 289/347/281 297/356/287 298/357/288 290/348/282
f 290/348/282 298/357/288 291/349/199 283/340/68
f 291/349/199 299/358/207 300/359/289 292/350/283
f 292/350/283 300/359/289 301/360/290 293/351/284
f 293/351/284 301/360/290 302/361/291 294/352/285
f 294/352/285 302/361/291 303/362/203 295/353/195
f 295/354/195 303/363/203 304/364/292 296/355/286
f 296/355/286 304/364/292 305/365/293 297/356/287
f 297/356/287 305/365/293 306/366/294 298/357/288
f 298/357/288 306/366/294 299/358/207 291/349/199
f 299/358/207 307/367/215 308/368/295 300/359/289
f 300/359/289 308/368/295 309/369/296 301/360/290
f 301/360/290 309/369/296 310/370/297 302/361/291
f 302/361/291 310/370/297 311/371/211 303/362/203
f 303/363/203 311/372/211 312/373/298 304/364/292
f 304/364/292 312/373/298 313/374/299 305/365/293
f 305/365/293 313/374/299 314/375/300 306/366/294
f 306/366/294 314/375/300 307/367/215 299/358/207
f 307/367/215 99/115/73 100/118/101 308/368/295
f 308/368/295 100/118/101 101/120/103 309/369/296
f 309/369/296 101/120/103 102/122/105 310/370/297
f 310/370/297 102/122/105 103/124/35 311/371/211
f 311/372/211 103/125/35 104/128/108 312/373/298
f 312/373/298 104/128/108 105/130/110 313/374/299
f 313/374/299 105/130/110 106/132/112 314/375/300
f 314/375/300 106/132/112 99/115/73 307/367/215
f 268/305/249 317/321/262 319/313/255 269/306/250
f 347/337/275 282/336/274 275/339/185 332/338/276
f 331/376/301 329/377/302 323/378/303 316/379/304
f 316/379/304 318/380/305 317/381/262 315/382/261
f 315/382/261 330/383/260 331/376/301 316/379/304
f 323/378/303 325/384/306 322/385/307 320/386/308
f 332/387/276 334/388/263 335/389/309 333/390/310
f 323/378/303 320/386/308 318/380/305 316/379/304
f 335/389/309 337/391/311 343/392/312 333/390/310
f 333/390/310 348/393/313 347/394/275 332/387/276
f 318/380/305 320/386/308 319/395/255 317/381/262
f 334/388/263 336/396/266 337/391/311 335/389/309
f 323/378/303 329/377/302 327/397/314 325/384/306
f 320/386/308 322/385/307 321/398/256 319/395/255
f 336/396/266 338/399/268 339/400/315 337/391/311
f 344/401/316 346/402/317 343/392/312 341/403/318
f 322/385/307 325/384/306 324/404/257 321/398/256
f 338/399/268 340/405/269 341/403/318 339/400/315
f 325/384/306 327/397/314 326/406/258 324/404/257
f 340/405/269 342/407/271 344/401/316 341/403/318
f 346/402/317 348/393/313 333/390/310 343/392/312
f 327/397/314 329/377/302 328/408/259 326/406/258
f 342/407/271 345/409/273 346/402/317 344/401/316
f 329/377/302 331/376/301 330/383/260 328/408/259
f 345/409/273 347/394/275 348/393/313 346/402/317
f 274/312/254 330/319/260 315/320/261 267/304/139
f 339/400/315 341/403/318 343/392/312 337/391/311
