# Blender 4.0.2
# www.blender.org
o carrot
v 0.000000 0.098190 -0.005377
v 0.002058 0.098190 -0.004968
v 0.003802 0.098190 -0.003802
v 0.004968 0.098190 -0.002058
v 0.005377 0.098190 -0.000000
v 0.004968 0.098190 0.002058
v 0.003802 0.098190 0.003802
v 0.002058 0.098190 0.004968
v -0.000000 0.098190 0.005377
v -0.002058 0.098190 0.004968
v -0.003802 0.098190 0.003802
v -0.004968 0.098190 0.002058
v -0.005377 0.098190 -0.000000
v -0.004968 0.098190 -0.002058
v -0.003802 0.098190 -0.003802
v -0.002058 0.098190 -0.004968
v 0.000000 0.057236 -0.014064
v 0.005382 0.057236 -0.012993
v 0.009944 0.057236 -0.009944
v 0.012993 0.057236 -0.005382
v 0.014064 0.057236 0.000000
v 0.012993 0.057236 0.005382
v 0.009944 0.057236 0.009944
v 0.005382 0.057236 0.012993
v 0.000000 0.057236 0.014064
v -0.005382 0.057236 0.012993
v -0.009944 0.057236 0.009944
v -0.012993 0.057236 0.005382
v -0.014064 0.057236 0.000000
v -0.012993 0.057236 -0.005382
v -0.009944 0.057236 -0.009944
v -0.005382 0.057236 -0.012993
v 0.003790 0.027011 -0.009149
v 0.007002 0.027011 -0.007002
v 0.009149 0.027011 -0.003790
v 0.009902 0.027011 -0.000000
v 0.009149 0.027011 0.003790
v 0.007002 0.027011 0.007002
v 0.003790 0.027011 0.009149
v -0.000000 0.027011 0.009902
v -0.003790 0.027011 0.009149
v -0.007002 0.027011 0.007002
v -0.009149 0.027011 0.003790
v -0.009902 0.027011 -0.000000
v -0.009149 0.027011 -0.003790
v -0.007002 0.027011 -0.007002
v -0.003790 0.027011 -0.009149
v -0.000000 0.027011 -0.009902
v -0.000000 0.041294 -0.011957
v 0.004576 0.041294 -0.011047
v 0.008455 0.041294 -0.008455
v 0.011047 0.041294 -0.004576
v 0.011957 0.041294 -0.000000
v 0.011047 0.041294 0.004576
v 0.008455 0.041294 0.008455
v 0.004576 0.041294 0.011047
v -0.000000 0.041294 0.011957
v -0.004576 0.041294 0.011047
v -0.008455 0.041294 0.008455
v -0.011047 0.041294 0.004576
v -0.011957 0.041294 -0.000000
v -0.011047 0.041294 -0.004576
v -0.008455 0.041294 -0.008455
v -0.004576 0.041294 -0.011047
v -0.000000 0.072884 -0.015610
v 0.005974 0.072884 -0.014422
v 0.011038 0.072884 -0.011038
v 0.014422 0.072884 -0.005974
v 0.015610 0.072884 0.000000
v 0.014422 0.072884 0.005974
v 0.011038 0.072884 0.011038
v 0.005974 0.072884 0.014422
v -0.000000 0.072884 0.015610
v -0.005974 0.072884 0.014422
v -0.011038 0.072884 0.011038
v -0.014422 0.072884 0.005974
v -0.015610 0.072884 0.000000
v -0.014422 0.072884 -0.005974
v -0.011038 0.072884 -0.011038
v -0.005974 0.072884 -0.014422
v -0.000000 0.085155 -0.016280
v 0.006230 0.085155 -0.015041
v 0.011512 0.085155 -0.011512
v 0.015041 0.085155 -0.006230
v 0.016280 0.085155 -0.000000
v 0.015041 0.085155 0.006230
v 0.011512 0.085155 0.011512
v 0.006230 0.085155 0.015041
v -0.000000 0.085155 0.016280
v -0.006230 0.085155 0.015041
v -0.011512 0.085155 0.011512
v -0.015041 0.085155 0.006230
v -0.016280 0.085155 -0.000000
v -0.015041 0.085155 -0.006230
v -0.011512 0.085155 -0.011512
v -0.006230 0.085155 -0.015041
v -0.000000 0.093749 -0.015085
v 0.005773 0.093749 -0.013936
v 0.010666 0.093749 -0.010666
v 0.013936 0.093749 -0.005773
v 0.015085 0.093749 -0.000000
v 0.013936 0.093749 0.005773
v 0.010666 0.093749 0.010666
v 0.005773 0.093749 0.013936
v -0.000000 0.093749 0.015085
v -0.005773 0.093749 0.013936
v -0.010666 0.093749 0.010666
v -0.013936 0.093749 0.005773
v -0.015085 0.093749 -0.000000
v -0.013936 0.093749 -0.005773
v -0.010666 0.093749 -0.010666
v -0.005773 0.093749 -0.013936
v -0.000000 0.097097 -0.012687
v 0.004855 0.097097 -0.011722
v 0.008971 0.097097 -0.008971
v 0.011722 0.097097 -0.004855
v 0.012687 0.097097 -0.000000
v 0.011722 0.097097 0.004855
v 0.008971 0.097097 0.008971
v 0.004855 0.097097 0.011722
v -0.000000 0.097097 0.012687
v -0.004855 0.097097 0.011722
v -0.008971 0.097097 0.008971
v -0.011722 0.097097 0.004855
v -0.012687 0.097097 -0.000000
v -0.011722 0.097097 -0.004855
v -0.008971 0.097097 -0.008971
v -0.004855 0.097097 -0.011722
v 0.003634 0.098984 -0.008774
v -0.000000 0.098984 -0.009496
v 0.006715 0.098984 -0.006715
v 0.008774 0.098984 -0.003634
v 0.009496 0.098984 -0.000000
v 0.008774 0.098984 0.003634
v 0.006715 0.098984 0.006715
v 0.003634 0.098984 0.008774
v -0.000000 0.098984 0.009496
v -0.003634 0.098984 0.008774
v -0.006715 0.098984 0.006715
v -0.008774 0.098984 0.003634
v -0.009496 0.098984 -0.000000
v -0.008774 0.098984 -0.003634
v -0.006715 0.098984 -0.006715
v -0.003634 0.098984 -0.008774
v -0.000000 0.098903 -0.007750
v 0.002966 0.098903 -0.007160
v 0.005480 0.098903 -0.005480
v 0.007160 0.098903 -0.002966
v 0.007750 0.098903 -0.000000
v 0.007160 0.098903 0.002966
v 0.005480 0.098903 0.005480
v 0.002966 0.098903 0.007160
v -0.000000 0.098903 0.007750
v -0.002966 0.098903 0.007160
v -0.005480 0.098903 0.005480
v -0.007160 0.098903 0.002966
v -0.007750 0.098903 -0.000000
v -0.007160 0.098903 -0.002966
v -0.005480 0.098903 -0.005480
v -0.002966 0.098903 -0.007160
v 0.002494 0.098190 -0.006021
v -0.000000 0.098190 -0.006517
v 0.004608 0.098190 -0.004608
v 0.006021 0.098190 -0.002494
v 0.006517 0.098190 -0.000000
v 0.006021 0.098190 0.002494
v 0.004608 0.098190 0.004608
v 0.002494 0.098190 0.006021
v -0.000000 0.098190 0.006517
v -0.002494 0.098190 0.006021
v -0.004608 0.098190 0.004608
v -0.006021 0.098190 0.002494
v -0.006517 0.098190 -0.000000
v -0.006021 0.098190 -0.002494
v -0.004608 0.098190 -0.004608
v -0.002494 0.098190 -0.006021
v 0.001746 0.100187 -0.004215
v -0.000000 0.100187 -0.004562
v 0.003226 0.100187 -0.003226
v 0.004215 0.100187 -0.001746
v 0.004562 0.100187 -0.000000
v 0.004215 0.100187 0.001746
v 0.003226 0.100187 0.003226
v 0.001746 0.100187 0.004215
v -0.000000 0.100187 0.004562
v -0.001746 0.100187 0.004215
v -0.003226 0.100187 0.003226
v -0.004215 0.100187 0.001746
v -0.004562 0.100187 -0.000000
v -0.004215 0.100187 -0.001746
v -0.003226 0.100187 -0.003226
v -0.001746 0.100187 -0.004215
v -0.000000 0.014110 -0.007748
v 0.002965 0.014110 -0.007158
v 0.005479 0.014110 -0.005479
v 0.007158 0.014110 -0.002965
v 0.007748 0.014110 -0.000000
v 0.007158 0.014110 0.002965
v 0.005479 0.014110 0.005479
v 0.002965 0.014110 0.007158
v -0.000000 0.014110 0.007748
v -0.002965 0.014110 0.007158
v -0.005479 0.014110 0.005479
v -0.007158 0.014110 0.002965
v -0.007748 0.014110 -0.000000
v -0.007158 0.014110 -0.002965
v -0.005479 0.014110 -0.005479
v -0.002965 0.014110 -0.007158
v 0.003953 0.005371 -0.003953
v 0.002920 0.002817 -0.002920
v 0.002046 0.005371 -0.005202
v 0.001460 0.002602 -0.003787
v -0.000000 0.005371 -0.005590
v -0.000000 0.002537 -0.004035
v -0.002047 0.005371 -0.005202
v -0.001460 0.002602 -0.003787
v 0.002274 0.001665 -0.002274
v 0.002666 0.001272 -0.001137
v 0.002785 0.001154 0.000000
v 0.002666 0.001272 0.001137
v 0.001137 0.001272 -0.002666
v 0.001333 0.000481 -0.001333
v 0.001392 0.000254 0.000000
v 0.001333 0.000481 0.001333
v -0.000000 0.001154 -0.002785
v -0.000000 0.000254 -0.001392
v -0.000000 0.000000 0.000000
v -0.000000 0.000254 0.001392
v -0.001137 0.001272 -0.002666
v -0.001333 0.000481 -0.001333
v -0.001392 0.000254 0.000000
v -0.001333 0.000481 0.001333
v 0.002274 0.001665 0.002274
v 0.002920 0.002817 0.002920
v 0.003953 0.005371 0.003953
v 0.001137 0.001272 0.002666
v 0.001460 0.002602 0.003787
v 0.002046 0.005371 0.005202
v -0.000000 0.001154 0.002785
v -0.000000 0.002537 0.004035
v -0.000000 0.005371 0.005590
v -0.001137 0.001272 0.002666
v -0.001460 0.002602 0.003787
v -0.002047 0.005371 0.005202
v 0.005202 0.005371 0.002047
v 0.003787 0.002602 0.001460
v 0.005590 0.005371 -0.000000
v 0.004035 0.002537 0.000000
v 0.005202 0.005371 -0.002047
v 0.003787 0.002602 -0.001460
v -0.003953 0.005371 -0.003953
v -0.002920 0.002817 -0.002920
v -0.002274 0.001665 -0.002274
v -0.005202 0.005371 -0.002047
v -0.003787 0.002602 -0.001460
v -0.002666 0.001272 -0.001137
v -0.005590 0.005371 -0.000000
v -0.004035 0.002537 0.000000
v -0.002785 0.001154 0.000000
v -0.005202 0.005371 0.002047
v -0.003787 0.002602 0.001460
v -0.002666 0.001272 0.001137
v -0.003953 0.005371 0.003953
v -0.002920 0.002817 0.002920
v -0.002274 0.001665 0.002274
v -0.000000 0.100187 -0.000000
v -0.001746 0.100187 -0.000000
v -0.003226 0.100187 -0.000000
v 0.001746 0.100187 -0.000000
v 0.003226 0.100187 -0.000000
vn -0.0000 0.7247 -0.6891
vn -0.0000 0.9616 -0.2745
vn 0.1050 0.9616 -0.2536
vn 0.2637 0.7247 -0.6366
vn 0.1941 0.9616 -0.1941
vn 0.4872 0.7247 -0.4872
vn 0.2536 0.9616 -0.1050
vn 0.6366 0.7247 -0.2637
vn 0.2745 0.9616 -0.0000
vn 0.6891 0.7247 -0.0000
vn 0.2536 0.9616 0.1050
vn 0.6366 0.7247 0.2637
vn 0.1941 0.9616 0.1941
vn 0.4872 0.7247 0.4872
vn 0.1050 0.9616 0.2536
vn 0.2637 0.7247 0.6366
vn -0.0000 0.9616 0.2745
vn -0.0000 0.7247 0.6891
vn -0.1050 0.9616 0.2536
vn -0.2637 0.7247 0.6366
vn -0.1941 0.9616 0.1941
vn -0.4872 0.7247 0.4872
vn -0.2536 0.9616 0.1050
vn -0.6366 0.7247 0.2637
vn -0.2745 0.9616 -0.0000
vn -0.6891 0.7247 -0.0000
vn -0.2536 0.9616 -0.1050
vn -0.6366 0.7247 -0.2637
vn -0.1941 0.9616 -0.1941
vn -0.4872 0.7247 -0.4872
vn -0.6547 0.3777 -0.6547
vn -0.8554 0.3777 -0.3543
vn -0.1050 0.9616 -0.2536
vn -0.2637 0.7247 -0.6366
vn -0.3791 -0.1366 -0.9152
vn -0.3802 -0.1145 -0.9178
vn -0.0000 -0.1145 -0.9934
vn -0.0000 -0.1366 -0.9906
vn -0.7005 -0.1366 -0.7005
vn -0.7025 -0.1145 -0.7025
vn -0.9152 -0.1366 -0.3791
vn -0.9178 -0.1145 -0.3802
vn -0.9906 -0.1366 -0.0000
vn -0.9934 -0.1145 -0.0000
vn -0.9152 -0.1366 0.3791
vn -0.9178 -0.1145 0.3802
vn -0.7005 -0.1366 0.7005
vn -0.7025 -0.1145 0.7025
vn -0.3791 -0.1366 0.9152
vn -0.3802 -0.1145 0.9178
vn -0.0000 -0.1366 0.9906
vn -0.0000 -0.1145 0.9934
vn 0.3791 -0.1366 0.9152
vn 0.3802 -0.1145 0.9178
vn 0.7005 -0.1366 0.7005
vn 0.7025 -0.1145 0.7025
vn 0.9152 -0.1366 0.3791
vn 0.9178 -0.1145 0.3802
vn 0.9906 -0.1366 -0.0000
vn 0.9934 -0.1145 -0.0000
vn 0.9152 -0.1366 -0.3791
vn 0.9178 -0.1145 -0.3802
vn 0.7005 -0.1366 -0.7005
vn 0.7025 -0.1145 -0.7025
vn 0.3791 -0.1366 -0.9152
vn 0.3802 -0.1145 -0.9178
vn -0.0000 -0.2009 -0.9796
vn -0.0000 -0.1534 -0.9882
vn 0.3782 -0.1534 -0.9130
vn 0.3738 -0.2014 -0.9054
vn 0.6987 -0.1534 -0.6987
vn 0.6925 -0.2020 -0.6925
vn 0.9130 -0.1534 -0.3782
vn 0.9054 -0.2014 -0.3738
vn 0.9882 -0.1534 -0.0000
vn 0.9796 -0.2009 -0.0000
vn 0.9130 -0.1534 0.3782
vn 0.9054 -0.2014 0.3738
vn 0.6987 -0.1534 0.6987
vn 0.6925 -0.2020 0.6925
vn 0.3782 -0.1534 0.9130
vn 0.3738 -0.2014 0.9054
vn -0.0000 -0.1534 0.9882
vn -0.0000 -0.2009 0.9796
vn -0.3782 -0.1534 0.9130
vn -0.3738 -0.2014 0.9054
vn -0.6987 -0.1534 0.6987
vn -0.6925 -0.2020 0.6925
vn -0.9130 -0.1534 0.3782
vn -0.9054 -0.2014 0.3738
vn -0.9882 -0.1534 -0.0000
vn -0.9796 -0.2009 -0.0000
vn -0.9130 -0.1534 -0.3782
vn -0.9054 -0.2014 -0.3738
vn -0.6987 -0.1534 -0.6987
vn -0.6925 -0.2020 -0.6925
vn -0.3782 -0.1534 -0.9130
vn -0.3738 -0.2014 -0.9054
vn -0.3816 -0.0763 -0.9212
vn -0.0000 -0.0763 -0.9971
vn -0.7050 -0.0763 -0.7050
vn -0.9212 -0.0763 -0.3816
vn -0.9971 -0.0763 -0.0000
vn -0.9212 -0.0763 0.3816
vn -0.7050 -0.0763 0.7050
vn -0.3816 -0.0763 0.9212
vn -0.0000 -0.0763 0.9971
vn 0.3816 -0.0763 0.9212
vn 0.7050 -0.0763 0.7050
vn 0.9212 -0.0763 0.3816
vn 0.9971 -0.0763 -0.0000
vn 0.9212 -0.0763 -0.3816
vn 0.7050 -0.0763 -0.7050
vn 0.3816 -0.0763 -0.9212
vn -0.3824 0.0413 -0.9231
vn -0.0000 0.0413 -0.9991
vn -0.7065 0.0413 -0.7065
vn -0.9231 0.0413 -0.3824
vn -0.9991 0.0413 -0.0000
vn -0.9231 0.0413 0.3824
vn -0.7065 0.0413 0.7065
vn -0.3824 0.0413 0.9231
vn -0.0000 0.0413 0.9991
vn 0.3824 0.0413 0.9231
vn 0.7065 0.0413 0.7065
vn 0.9231 0.0413 0.3824
vn 0.9991 0.0413 -0.0000
vn 0.9231 0.0413 -0.3824
vn 0.7065 0.0413 -0.7065
vn 0.3824 0.0413 -0.9231
vn -0.3569 0.3609 -0.8616
vn -0.0000 0.3609 -0.9326
vn -0.6594 0.3609 -0.6594
vn -0.8616 0.3609 -0.3569
vn -0.9326 0.3609 -0.0000
vn -0.8616 0.3609 0.3569
vn -0.6594 0.3609 0.6594
vn -0.3569 0.3609 0.8616
vn -0.0000 0.3609 0.9326
vn 0.3569 0.3609 0.8616
vn 0.6594 0.3609 0.6594
vn 0.8616 0.3609 0.3569
vn 0.9326 0.3609 -0.0000
vn 0.8616 0.3609 -0.3569
vn 0.6594 0.3609 -0.6594
vn 0.3569 0.3609 -0.8616
vn -0.0000 0.9672 0.2540
vn -0.0972 0.9672 0.2346
vn -0.1796 0.9672 0.1796
vn -0.2346 0.9672 0.0972
vn -0.2540 0.9672 -0.0000
vn -0.2346 0.9672 -0.0972
vn -0.1796 0.9672 -0.1796
vn -0.0972 0.9672 -0.2346
vn -0.0000 0.9672 -0.2540
vn 0.0972 0.9672 -0.2346
vn 0.1796 0.9672 -0.1796
vn 0.2346 0.9672 -0.0972
vn 0.2540 0.9672 -0.0000
vn 0.2346 0.9672 0.0972
vn 0.1796 0.9672 0.1796
vn 0.0972 0.9672 0.2346
vn 0.1917 0.8655 0.4627
vn -0.0000 0.8655 0.5008
vn 0.3541 0.8655 0.3541
vn 0.4627 0.8655 0.1917
vn 0.5008 0.8655 -0.0000
vn 0.4627 0.8655 -0.1917
vn 0.3541 0.8655 -0.3541
vn 0.1917 0.8655 -0.4627
vn -0.0000 0.8655 -0.5008
vn -0.1917 0.8655 -0.4627
vn -0.3541 0.8655 -0.3541
vn -0.4627 0.8655 -0.1917
vn -0.5008 0.8655 -0.0000
vn -0.4627 0.8655 0.1917
vn -0.3541 0.8655 0.3541
vn -0.1917 0.8655 0.4627
vn -0.0000 1.0000 -0.0000
vn 0.3543 0.3777 0.8554
vn 0.6547 0.3777 0.6547
vn -0.3543 0.3777 -0.8554
vn -0.0000 0.3777 0.9259
vn 0.3543 0.3777 -0.8554
vn -0.0000 0.3777 -0.9259
vn -0.3543 0.3777 0.8554
vn 0.6547 0.3777 -0.6547
vn -0.6547 0.3777 0.6547
vn 0.8554 0.3777 -0.3543
vn -0.8554 0.3777 0.3543
vn 0.9259 0.3777 -0.0000
vn -0.9259 0.3777 -0.0000
vn 0.8554 0.3777 0.3543
vn 0.6589 -0.3629 -0.6589
vn 0.5894 -0.5524 -0.5894
vn 0.3171 -0.5687 -0.7590
vn 0.3534 -0.3609 -0.8630
vn 0.5235 -0.6723 -0.5235
vn 0.2938 -0.7357 -0.6103
vn -0.0000 -0.5753 -0.8179
vn -0.0000 -0.3583 -0.9336
vn -0.0000 -0.7629 -0.6465
vn -0.3171 -0.5687 -0.7590
vn -0.3534 -0.3609 -0.8630
vn -0.2938 -0.7357 -0.6103
vn -0.5894 -0.5524 -0.5894
vn -0.6589 -0.3629 -0.6589
vn -0.5235 -0.6723 -0.5235
vn 0.6103 -0.7357 -0.2938
vn 0.3403 -0.8766 -0.3403
vn 0.6465 -0.7629 -0.0000
vn 0.3610 -0.9326 -0.0000
vn 0.6103 -0.7357 0.2938
vn 0.3403 -0.8766 0.3403
vn 0.5235 -0.6723 0.5235
vn 0.2938 -0.7357 0.6103
vn -0.0000 -0.9326 -0.3610
vn -0.0000 -1.0000 -0.0000
vn -0.0000 -0.9326 0.3610
vn -0.0000 -0.7629 0.6465
vn -0.3403 -0.8766 -0.3403
vn -0.3610 -0.9326 -0.0000
vn -0.3403 -0.8766 0.3403
vn -0.2938 -0.7357 0.6103
vn -0.6103 -0.7357 -0.2938
vn -0.6465 -0.7629 -0.0000
vn -0.6103 -0.7357 0.2938
vn -0.5235 -0.6723 0.5235
vn 0.5894 -0.5524 0.5894
vn 0.3171 -0.5687 0.7590
vn 0.6589 -0.3629 0.6589
vn 0.3534 -0.3609 0.8630
vn -0.0000 -0.5753 0.8179
vn -0.0000 -0.3583 0.9336
vn -0.3171 -0.5687 0.7590
vn -0.3534 -0.3609 0.8630
vn -0.5894 -0.5524 0.5894
vn -0.6589 -0.3629 0.6589
vn 0.7590 -0.5687 0.3171
vn 0.8630 -0.3609 0.3534
vn 0.8179 -0.5753 -0.0000
vn 0.9336 -0.3583 -0.0000
vn 0.7590 -0.5687 -0.3171
vn 0.8630 -0.3609 -0.3534
vn -0.7590 -0.5687 -0.3171
vn -0.8630 -0.3609 -0.3534
vn -0.8179 -0.5753 -0.0000
vn -0.9336 -0.3583 -0.0000
vn -0.7590 -0.5687 0.3171
vn -0.8630 -0.3609 0.3534
vt 0.130752 0.043321
vt 0.136807 0.074753
vt 0.108099 0.086999
vt 0.090443 0.060278
vt 0.086258 0.109330
vt 0.059690 0.091390
vt 0.074580 0.138353
vt 0.043155 0.131922
vt 0.074863 0.169661
vt 0.043359 0.175718
vt 0.087082 0.198484
vt 0.060290 0.216116
vt 0.109376 0.220437
vt 0.091377 0.246959
vt 0.138347 0.232170
vt 0.131885 0.263537
vt 0.169569 0.231880
vt 0.175631 0.263318
vt 0.198278 0.219627
vt 0.215942 0.246346
vt 0.220120 0.197291
vt 0.246686 0.215221
vt 0.231769 0.168268
vt 0.263198 0.174685
vt 0.231478 0.136961
vt 0.262978 0.130898
vt 0.219267 0.108139
vt 0.246050 0.090516
vt 0.196983 0.086197
vt 0.214976 0.059686
vt 0.101790 0.316380
vt 0.117266 0.331520
vt 0.101239 0.342873
vt 0.091323 0.333080
vt 0.168024 0.074469
vt 0.174487 0.043111
vt 0.781313 0.485262
vt 0.781313 0.338876
vt 0.823929 0.338876
vt 0.823929 0.485262
vt 0.738474 0.485262
vt 0.738474 0.338876
vt 0.695636 0.485262
vt 0.695636 0.338876
vt 0.653020 0.485262
vt 0.653020 0.338876
vt 0.610404 0.485262
vt 0.610404 0.338876
vt 0.567565 0.485262
vt 0.567565 0.338876
vt 0.524727 0.485262
vt 0.524727 0.338876
vt 0.482111 0.485262
vt 0.482111 0.338876
vt 0.439495 0.485262
vt 0.439495 0.338876
vt 0.396656 0.485262
vt 0.396656 0.338876
vt 0.353817 0.485262
vt 0.353817 0.338876
vt 0.311202 0.485262
vt 0.311202 0.338876
vt 0.952222 0.485262
vt 0.952222 0.338876
vt 0.994838 0.338876
vt 0.994838 0.485262
vt 0.909384 0.485262
vt 0.909384 0.338876
vt 0.866545 0.485262
vt 0.866545 0.338876
vt 0.823929 0.735685
vt 0.823929 0.616617
vt 0.866545 0.616617
vt 0.866545 0.735685
vt 0.909384 0.616617
vt 0.909384 0.735685
vt 0.952222 0.616617
vt 0.952222 0.735685
vt 0.994838 0.616617
vt 0.994838 0.735685
vt 0.311202 0.735685
vt 0.311202 0.616617
vt 0.353817 0.616617
vt 0.353817 0.735685
vt 0.396656 0.616617
vt 0.396656 0.735685
vt 0.439495 0.616617
vt 0.439495 0.735685
vt 0.482111 0.616617
vt 0.482111 0.735685
vt 0.524727 0.616617
vt 0.524727 0.735685
vt 0.567565 0.616617
vt 0.567565 0.735685
vt 0.610404 0.616617
vt 0.610404 0.735685
vt 0.653020 0.616617
vt 0.653020 0.735685
vt 0.695636 0.616617
vt 0.695636 0.735685
vt 0.738474 0.616617
vt 0.738474 0.735685
vt 0.781313 0.616617
vt 0.781313 0.735685
vt 0.781313 0.195736
vt 0.823929 0.195736
vt 0.738474 0.195736
vt 0.695636 0.195736
vt 0.653020 0.195736
vt 0.610404 0.195736
vt 0.567565 0.195736
vt 0.524727 0.195736
vt 0.482111 0.195736
vt 0.439495 0.195736
vt 0.396656 0.195736
vt 0.353817 0.195736
vt 0.311202 0.195736
vt 0.952222 0.195736
vt 0.994838 0.195736
vt 0.909384 0.195736
vt 0.866545 0.195736
vt 0.781313 0.083864
vt 0.823929 0.083864
vt 0.738474 0.083864
vt 0.695636 0.083864
vt 0.653020 0.083864
vt 0.610404 0.083864
vt 0.567565 0.083864
vt 0.524727 0.083864
vt 0.482111 0.083864
vt 0.439495 0.083864
vt 0.396656 0.083864
vt 0.353817 0.083864
vt 0.311202 0.083864
vt 0.952222 0.083864
vt 0.994838 0.083864
vt 0.909384 0.083864
vt 0.866545 0.083864
vt 0.781313 0.004879
vt 0.823929 0.004879
vt 0.738474 0.004879
vt 0.695636 0.004879
vt 0.653020 0.004879
vt 0.610404 0.004879
vt 0.567565 0.004879
vt 0.524727 0.004879
vt 0.482111 0.004879
vt 0.439495 0.004879
vt 0.396656 0.004879
vt 0.353817 0.004879
vt 0.311202 0.004879
vt 0.952222 0.004879
vt 0.994838 0.004879
vt 0.909384 0.004879
vt 0.866545 0.004879
vt 0.182679 0.004892
vt 0.123675 0.004886
vt 0.237188 0.027512
vt 0.278888 0.069283
vt 0.301442 0.123827
vt 0.301442 0.182843
vt 0.278899 0.237374
vt 0.237220 0.279137
vt 0.182720 0.301762
vt 0.123694 0.301772
vt 0.069157 0.279149
vt 0.027436 0.237356
vt 0.004881 0.182782
vt 0.004908 0.123745
vt 0.027486 0.069222
vt 0.069180 0.027485
vt 0.139808 0.089157
vt 0.116404 0.099157
vt 0.098605 0.117399
vt 0.089086 0.141102
vt 0.089322 0.166666
vt 0.099297 0.190198
vt 0.117485 0.208122
vt 0.141109 0.217709
vt 0.166565 0.217476
vt 0.189970 0.207469
vt 0.207776 0.189233
vt 0.217259 0.165525
vt 0.217018 0.139955
vt 0.207057 0.116421
vt 0.188878 0.098506
vt 0.165262 0.088926
vt 0.163091 0.100595
vt 0.142277 0.100748
vt 0.182398 0.108462
vt 0.197242 0.123144
vt 0.205361 0.142427
vt 0.205539 0.163375
vt 0.197792 0.182795
vt 0.183234 0.197715
vt 0.164097 0.205881
vt 0.143280 0.206043
vt 0.123978 0.198156
vt 0.109111 0.183463
vt 0.100973 0.164193
vt 0.100800 0.143259
vt 0.108592 0.123847
vt 0.123138 0.108917
vt 0.060034 0.308388
vt 0.040021 0.316706
vt 0.033661 0.306965
vt 0.057846 0.296971
vt 0.024653 0.332000
vt 0.015049 0.325412
vt 0.016300 0.352011
vt 0.004887 0.349627
vt 0.016334 0.373721
vt 0.004887 0.375944
vt 0.024789 0.393701
vt 0.015106 0.400165
vt 0.040265 0.408841
vt 0.033808 0.418508
vt 0.060349 0.416942
vt 0.058049 0.428335
vt 0.082021 0.416833
vt 0.084209 0.428250
vt 0.102034 0.408515
vt 0.108394 0.418256
vt 0.117403 0.393221
vt 0.127007 0.399809
vt 0.125756 0.373210
vt 0.137168 0.375594
vt 0.125721 0.351500
vt 0.137168 0.349277
vt 0.126950 0.325056
vt 0.108247 0.306713
vt 0.081706 0.308279
vt 0.084006 0.296886
vt 0.096166 0.357778
vt 0.106574 0.355780
vt 0.106401 0.369743
vt 0.100828 0.382503
vt 0.050732 0.392141
vt 0.063706 0.397481
vt 0.078349 0.327740
vt 0.077753 0.397569
vt 0.064303 0.327652
vt 0.051286 0.332948
vt 0.090769 0.392273
vt 0.041228 0.342717
vt 0.035654 0.355478
vt 0.035481 0.369441
vt 0.040816 0.382348
vt 0.221309 0.424625
vt 0.226871 0.396308
vt 0.241409 0.394061
vt 0.247768 0.424625
vt 0.229174 0.384584
vt 0.237711 0.380930
vt 0.252450 0.388443
vt 0.270420 0.415197
vt 0.244594 0.376747
vt 0.261826 0.380347
vt 0.287715 0.397794
vt 0.251070 0.371957
vt 0.269405 0.367739
vt 0.297723 0.373301
vt 0.257682 0.365436
vt 0.222653 0.377972
vt 0.231555 0.372461
vt 0.217863 0.371496
vt 0.226716 0.365551
vt 0.213680 0.364613
vt 0.222149 0.358457
vt 0.210026 0.356076
vt 0.216638 0.349555
vt 0.238648 0.367895
vt 0.233854 0.360756
vt 0.229059 0.353618
vt 0.223114 0.344766
vt 0.245559 0.363055
vt 0.240992 0.355962
vt 0.236153 0.349051
vt 0.229997 0.340583
vt 0.254027 0.356899
vt 0.249844 0.350016
vt 0.245055 0.343540
vt 0.238534 0.336928
vt 0.198302 0.353773
vt 0.205881 0.341165
vt 0.169985 0.348212
vt 0.179993 0.323719
vt 0.215258 0.333069
vt 0.197288 0.306316
vt 0.226298 0.327452
vt 0.219940 0.296887
vt 0.240837 0.325205
vt 0.246399 0.296887
vt 0.200549 0.368312
vt 0.169985 0.374670
vt 0.206167 0.379352
vt 0.179413 0.397322
vt 0.214263 0.388729
vt 0.196816 0.414617
vt 0.267158 0.353201
vt 0.297723 0.346842
vt 0.261541 0.342160
vt 0.288295 0.324190
vt 0.253445 0.332784
vt 0.270891 0.306895
vt 0.567565 0.817635
vt 0.524727 0.817635
vt 0.482111 0.817635
vt 0.439495 0.817635
vt 0.396656 0.817635
vt 0.353817 0.817635
vt 0.311202 0.817635
vt 0.994838 0.817635
vt 0.952222 0.817635
vt 0.909384 0.817635
vt 0.866545 0.817635
vt 0.823929 0.817635
vt 0.781313 0.817635
vt 0.738474 0.817635
vt 0.695636 0.817635
vt 0.653020 0.817635
vt 0.610404 0.817635
vt 0.057425 0.365228
vt 0.071028 0.362610
vt 0.084631 0.359993
vt 0.045890 0.367443
s 1
f 113/1/1 130/2/2 129/3/3 114/4/4
f 114/4/4 129/3/3 131/5/5 115/6/6
f 115/6/6 131/5/5 132/7/7 116/8/8
f 116/8/8 132/7/7 133/9/9 117/10/10
f 117/10/10 133/9/9 134/11/11 118/12/12
f 118/12/12 134/11/11 135/13/13 119/14/14
f 119/14/14 135/13/13 136/15/15 120/16/16
f 120/16/16 136/15/15 137/17/17 121/18/18
f 121/18/18 137/17/17 138/19/19 122/20/20
f 122/20/20 138/19/19 139/21/21 123/22/22
f 123/22/22 139/21/21 140/23/23 124/24/24
f 124/24/24 140/23/23 141/25/25 125/26/26
f 125/26/26 141/25/25 142/27/27 126/28/28
f 126/28/28 142/27/27 143/29/29 127/30/30
f 15/31/31 14/32/32 190/33/32 191/34/31
f 127/30/30 143/29/29 144/35/33 128/36/34
f 128/36/34 144/35/33 130/2/2 113/1/1
f 64/37/35 32/38/36 17/39/37 49/40/38
f 63/41/39 31/42/40 32/38/36 64/37/35
f 62/43/41 30/44/42 31/42/40 63/41/39
f 61/45/43 29/46/44 30/44/42 62/43/41
f 60/47/45 28/48/46 29/46/44 61/45/43
f 59/49/47 27/50/48 28/48/46 60/47/45
f 58/51/49 26/52/50 27/50/48 59/49/47
f 57/53/51 25/54/52 26/52/50 58/51/49
f 56/55/53 24/56/54 25/54/52 57/53/51
f 55/57/55 23/58/56 24/56/54 56/55/53
f 54/59/57 22/60/58 23/58/56 55/57/55
f 53/61/59 21/62/60 22/60/58 54/59/57
f 52/63/61 20/64/62 21/65/60 53/66/59
f 51/67/63 19/68/64 20/64/62 52/63/61
f 50/69/65 18/70/66 19/68/64 51/67/63
f 49/40/38 17/39/37 18/70/66 50/69/65
f 193/71/67 48/72/68 33/73/69 194/74/70
f 194/74/70 33/73/69 34/75/71 195/76/72
f 195/76/72 34/75/71 35/77/73 196/78/74
f 196/78/74 35/77/73 36/79/75 197/80/76
f 197/81/76 36/82/75 37/83/77 198/84/78
f 198/84/78 37/83/77 38/85/79 199/86/80
f 199/86/80 38/85/79 39/87/81 200/88/82
f 200/88/82 39/87/81 40/89/83 201/90/84
f 201/90/84 40/89/83 41/91/85 202/92/86
f 202/92/86 41/91/85 42/93/87 203/94/88
f 203/94/88 42/93/87 43/95/89 204/96/90
f 204/96/90 43/95/89 44/97/91 205/98/92
f 205/98/92 44/97/91 45/99/93 206/100/94
f 206/100/94 45/99/93 46/101/95 207/102/96
f 207/102/96 46/101/95 47/103/97 208/104/98
f 208/104/98 47/103/97 48/72/68 193/71/67
f 48/72/68 49/40/38 50/69/65 33/73/69
f 33/73/69 50/69/65 51/67/63 34/75/71
f 34/75/71 51/67/63 52/63/61 35/77/73
f 35/77/73 52/63/61 53/66/59 36/79/75
f 36/82/75 53/61/59 54/59/57 37/83/77
f 37/83/77 54/59/57 55/57/55 38/85/79
f 38/85/79 55/57/55 56/55/53 39/87/81
f 39/87/81 56/55/53 57/53/51 40/89/83
f 40/89/83 57/53/51 58/51/49 41/91/85
f 41/91/85 58/51/49 59/49/47 42/93/87
f 42/93/87 59/49/47 60/47/45 43/95/89
f 43/95/89 60/47/45 61/45/43 44/97/91
f 44/97/91 61/45/43 62/43/41 45/99/93
f 45/99/93 62/43/41 63/41/39 46/101/95
f 46/101/95 63/41/39 64/37/35 47/103/97
f 47/103/97 64/37/35 49/40/38 48/72/68
f 32/38/36 80/105/99 65/106/100 17/39/37
f 31/42/40 79/107/101 80/105/99 32/38/36
f 30/44/42 78/108/102 79/107/101 31/42/40
f 29/46/44 77/109/103 78/108/102 30/44/42
f 28/48/46 76/110/104 77/109/103 29/46/44
f 27/50/48 75/111/105 76/110/104 28/48/46
f 26/52/50 74/112/106 75/111/105 27/50/48
f 25/54/52 73/113/107 74/112/106 26/52/50
f 24/56/54 72/114/108 73/113/107 25/54/52
f 23/58/56 71/115/109 72/114/108 24/56/54
f 22/60/58 70/116/110 71/115/109 23/58/56
f 21/62/60 69/117/111 70/116/110 22/60/58
f 20/64/62 68/118/112 69/119/111 21/65/60
f 19/68/64 67/120/113 68/118/112 20/64/62
f 18/70/66 66/121/114 67/120/113 19/68/64
f 17/39/37 65/106/100 66/121/114 18/70/66
f 80/105/99 96/122/115 81/123/116 65/106/100
f 79/107/101 95/124/117 96/122/115 80/105/99
f 78/108/102 94/125/118 95/124/117 79/107/101
f 77/109/103 93/126/119 94/125/118 78/108/102
f 76/110/104 92/127/120 93/126/119 77/109/103
f 75/111/105 91/128/121 92/127/120 76/110/104
f 74/112/106 90/129/122 91/128/121 75/111/105
f 73/113/107 89/130/123 90/129/122 74/112/106
f 72/114/108 88/131/124 89/130/123 73/113/107
f 71/115/109 87/132/125 88/131/124 72/114/108
f 70/116/110 86/133/126 87/132/125 71/115/109
f 69/117/111 85/134/127 86/133/126 70/116/110
f 68/118/112 84/135/128 85/136/127 69/119/111
f 67/120/113 83/137/129 84/135/128 68/118/112
f 66/121/114 82/138/130 83/137/129 67/120/113
f 65/106/100 81/123/116 82/138/130 66/121/114
f 96/122/115 112/139/131 97/140/132 81/123/116
f 95/124/117 111/141/133 112/139/131 96/122/115
f 94/125/118 110/142/134 111/141/133 95/124/117
f 93/126/119 109/143/135 110/142/134 94/125/118
f 92/127/120 108/144/136 109/143/135 93/126/119
f 91/128/121 107/145/137 108/144/136 92/127/120
f 90/129/122 106/146/138 107/145/137 91/128/121
f 89/130/123 105/147/139 106/146/138 90/129/122
f 88/131/124 104/148/140 105/147/139 89/130/123
f 87/132/125 103/149/141 104/148/140 88/131/124
f 86/133/126 102/150/142 103/149/141 87/132/125
f 85/134/127 101/151/143 102/150/142 86/133/126
f 84/135/128 100/152/144 101/153/143 85/136/127
f 83/137/129 99/154/145 100/152/144 84/135/128
f 82/138/130 98/155/146 99/154/145 83/137/129
f 81/123/116 97/140/132 98/155/146 82/138/130
f 112/156/131 128/36/34 113/1/1 97/157/132
f 111/158/133 127/30/30 128/36/34 112/156/131
f 110/159/134 126/28/28 127/30/30 111/158/133
f 109/160/135 125/26/26 126/28/28 110/159/134
f 108/161/136 124/24/24 125/26/26 109/160/135
f 107/162/137 123/22/22 124/24/24 108/161/136
f 106/163/138 122/20/20 123/22/22 107/162/137
f 105/164/139 121/18/18 122/20/20 106/163/138
f 104/165/140 120/16/16 121/18/18 105/164/139
f 103/166/141 119/14/14 120/16/16 104/165/140
f 102/167/142 118/12/12 119/14/14 103/166/141
f 101/168/143 117/10/10 118/12/12 102/167/142
f 100/169/144 116/8/8 117/10/10 101/168/143
f 99/170/145 115/6/6 116/8/8 100/169/144
f 98/171/146 114/4/4 115/6/6 99/170/145
f 97/157/132 113/1/1 114/4/4 98/171/146
f 145/172/147 146/173/148 129/3/3 130/2/2
f 146/173/148 147/174/149 131/5/5 129/3/3
f 147/174/149 148/175/150 132/7/7 131/5/5
f 148/175/150 149/176/151 133/9/9 132/7/7
f 149/176/151 150/177/152 134/11/11 133/9/9
f 150/177/152 151/178/153 135/13/13 134/11/11
f 151/178/153 152/179/154 136/15/15 135/13/13
f 152/179/154 153/180/155 137/17/17 136/15/15
f 153/180/155 154/181/156 138/19/19 137/17/17
f 154/181/156 155/182/157 139/21/21 138/19/19
f 155/182/157 156/183/158 140/23/23 139/21/21
f 156/183/158 157/184/159 141/25/25 140/23/23
f 157/184/159 158/185/160 142/27/27 141/25/25
f 158/185/160 159/186/161 143/29/29 142/27/27
f 159/186/161 160/187/162 144/35/33 143/29/29
f 160/187/162 145/172/147 130/2/2 144/35/33
f 176/188/163 162/189/164 145/172/147 160/187/162
f 175/190/165 176/188/163 160/187/162 159/186/161
f 174/191/166 175/190/165 159/186/161 158/185/160
f 173/192/167 174/191/166 158/185/160 157/184/159
f 172/193/168 173/192/167 157/184/159 156/183/158
f 171/194/169 172/193/168 156/183/158 155/182/157
f 170/195/170 171/194/169 155/182/157 154/181/156
f 169/196/171 170/195/170 154/181/156 153/180/155
f 168/197/172 169/196/171 153/180/155 152/179/154
f 167/198/173 168/197/172 152/179/154 151/178/153
f 166/199/174 167/198/173 151/178/153 150/177/152
f 165/200/175 166/199/174 150/177/152 149/176/151
f 164/201/176 165/200/175 149/176/151 148/175/150
f 163/202/177 164/201/176 148/175/150 147/174/149
f 161/203/178 163/202/177 147/174/149 146/173/148
f 162/189/164 161/203/178 146/173/148 145/172/147
f 1/204/179 2/205/179 161/206/179 162/207/179
f 2/205/179 3/208/179 163/209/179 161/206/179
f 3/208/179 4/210/179 164/211/179 163/209/179
f 4/210/179 5/212/179 165/213/179 164/211/179
f 5/212/179 6/214/179 166/215/179 165/213/179
f 6/214/179 7/216/179 167/217/179 166/215/179
f 7/216/179 8/218/179 168/219/179 167/217/179
f 8/218/179 9/220/179 169/221/179 168/219/179
f 9/220/179 10/222/179 170/223/179 169/221/179
f 10/222/179 11/224/179 171/225/179 170/223/179
f 11/224/179 12/226/179 172/227/179 171/225/179
f 12/226/179 13/228/179 173/229/179 172/227/179
f 13/228/179 14/32/179 174/230/179 173/229/179
f 14/32/179 15/31/179 175/231/179 174/230/179
f 15/31/179 16/232/179 176/233/179 175/231/179
f 16/232/179 1/204/179 162/207/179 176/233/179
f 268/234/179 189/235/179 188/236/179 187/237/179
f 8/218/180 7/216/181 183/238/181 184/239/180
f 16/232/182 15/31/31 191/34/31 192/240/182
f 9/220/183 8/218/180 184/239/180 185/241/183
f 2/205/184 1/204/185 178/242/185 177/243/184
f 1/204/185 16/232/182 192/240/182 178/242/185
f 10/222/186 9/220/183 185/241/183 186/244/186
f 3/208/187 2/205/184 177/243/184 179/245/187
f 11/224/188 10/222/186 186/244/186 187/237/188
f 4/210/189 3/208/187 179/245/187 180/246/189
f 12/226/190 11/224/188 187/237/188 188/236/190
f 5/212/191 4/210/189 180/246/189 181/247/191
f 13/228/192 12/226/190 188/236/190 189/235/192
f 6/214/193 5/212/191 181/247/191 182/248/193
f 14/32/32 13/228/192 189/235/192 190/33/32
f 7/216/181 6/214/193 182/248/193 183/238/181
f 209/249/194 210/250/195 212/251/196 211/252/197
f 210/250/195 217/253/198 221/254/199 212/251/196
f 211/252/197 212/251/196 214/255/200 213/256/201
f 212/251/196 221/254/199 225/257/202 214/255/200
f 213/256/201 214/255/200 216/258/203 215/259/204
f 214/255/200 225/257/202 229/260/205 216/258/203
f 215/259/204 216/258/203 252/261/206 251/262/207
f 216/258/203 229/260/205 253/263/208 252/261/206
f 217/253/198 218/264/209 222/265/210 221/254/199
f 218/264/209 219/266/211 223/267/212 222/265/210
f 219/266/211 220/268/213 224/269/214 223/267/212
f 220/268/213 233/270/215 236/271/216 224/269/214
f 221/254/199 222/265/210 226/272/217 225/257/202
f 222/265/210 223/267/212 227/273/218 226/272/217
f 223/267/212 224/269/214 228/274/219 227/273/218
f 224/269/214 236/271/216 239/275/220 228/274/219
f 225/257/202 226/272/217 230/276/221 229/260/205
f 226/272/217 227/273/218 231/277/222 230/276/221
f 227/273/218 228/274/219 232/278/223 231/277/222
f 228/274/219 239/275/220 242/279/224 232/278/223
f 229/260/205 230/276/221 256/280/225 253/263/208
f 230/276/221 231/277/222 259/281/226 256/280/225
f 231/277/222 232/278/223 262/282/227 259/281/226
f 232/278/223 242/279/224 265/283/228 262/282/227
f 233/270/215 234/284/229 237/285/230 236/271/216
f 234/284/229 235/286/231 238/287/232 237/285/230
f 236/271/216 237/285/230 240/288/233 239/275/220
f 237/285/230 238/287/232 241/289/234 240/288/233
f 239/275/220 240/288/233 243/290/235 242/279/224
f 240/288/233 241/289/234 244/291/236 243/290/235
f 242/279/224 243/290/235 264/292/237 265/283/228
f 243/290/235 244/291/236 263/293/238 264/292/237
f 235/286/231 234/284/229 246/294/239 245/295/240
f 234/284/229 233/270/215 220/268/213 246/294/239
f 245/295/240 246/294/239 248/296/241 247/297/242
f 246/294/239 220/268/213 219/266/211 248/296/241
f 247/297/242 248/296/241 250/298/243 249/299/244
f 248/296/241 219/266/211 218/264/209 250/298/243
f 249/299/244 250/298/243 210/250/195 209/249/194
f 250/298/243 218/264/209 217/253/198 210/250/195
f 251/262/207 252/261/206 255/300/245 254/301/246
f 252/261/206 253/263/208 256/280/225 255/300/245
f 254/301/246 255/300/245 258/302/247 257/303/248
f 255/300/245 256/280/225 259/281/226 258/302/247
f 257/303/248 258/302/247 261/304/249 260/305/250
f 258/302/247 259/281/226 262/282/227 261/304/249
f 260/305/250 261/304/249 264/292/237 263/293/238
f 261/304/249 262/282/227 265/283/228 264/292/237
f 203/94/88 263/306/238 244/307/236 202/92/86
f 201/90/84 202/92/86 244/307/236 241/308/234
f 201/90/84 241/308/234 238/309/232 200/88/82
f 200/88/82 238/309/232 235/310/231 199/86/80
f 198/84/78 199/86/80 235/310/231 245/311/240
f 197/81/76 198/84/78 245/311/240 247/312/242
f 196/78/74 197/80/76 247/313/242 249/314/244
f 196/78/74 249/314/244 209/315/194 195/76/72
f 194/74/70 195/76/72 209/315/194 211/316/197
f 193/71/67 194/74/70 211/316/197 213/317/201
f 208/104/98 193/71/67 213/317/201 215/318/204
f 207/102/96 208/104/98 215/318/204 251/319/207
f 206/100/94 207/102/96 251/319/207 254/320/246
f 205/98/92 206/100/94 254/320/246 257/321/248
f 204/96/90 205/98/92 257/321/248 260/322/250
f 203/94/88 204/96/90 260/322/250 263/306/238
f 191/34/179 190/33/179 189/235/179 268/234/179
f 269/323/179 266/324/179 185/241/179 184/239/179
f 177/243/179 178/242/179 266/324/179 269/323/179
f 178/242/179 192/240/179 267/325/179 266/324/179
f 266/324/179 267/325/179 186/244/179 185/241/179
f 192/240/179 191/34/179 268/234/179 267/325/179
f 267/325/179 268/234/179 187/237/179 186/244/179
f 270/326/179 269/323/179 184/239/179 183/238/179
f 179/245/179 177/243/179 269/323/179 270/326/179
f 181/247/179 270/326/179 183/238/179 182/248/179
f 180/246/179 179/245/179 270/326/179 181/247/179
