# Blender 4.0.2
# www.blender.org
o bale_hook
v -0.003419 0.010089 0.004369
v 0.000000 0.010117 0.005785
v 0.003419 0.010089 0.004369
v 0.004835 0.010022 0.000951
v 0.003419 0.009954 -0.002468
v 0.000000 0.009927 -0.003884
v -0.003419 0.009954 -0.002468
v -0.004835 0.010022 0.000951
v -0.003419 0.044739 0.003722
v 0.000000 0.044856 0.005133
v 0.003419 0.044739 0.003722
v 0.004835 0.044457 0.000314
v 0.003419 0.044176 -0.003093
v 0.000000 0.044059 -0.004505
v -0.003419 0.044176 -0.003093
v -0.004835 0.044457 0.000314
v -0.003419 0.065298 0.000709
v 0.000000 0.065615 0.002089
v 0.003419 0.065298 0.000709
v 0.004835 0.064532 -0.002624
v 0.003419 0.063766 -0.005956
v 0.000000 0.063449 -0.007336
v -0.003419 0.063766 -0.005956
v -0.004835 0.064532 -0.002624
v -0.003419 0.088347 -0.006577
v 0.000000 0.088814 -0.005240
v 0.003419 0.088347 -0.006577
v 0.004835 0.087218 -0.009805
v 0.003419 0.086090 -0.013032
v 0.000000 0.085622 -0.014369
v -0.003419 0.086090 -0.013032
v -0.004835 0.087218 -0.009805
v -0.003419 0.110195 -0.014954
v 0.000000 0.110721 -0.013639
v 0.003419 0.110195 -0.014954
v 0.004835 0.108925 -0.018129
v 0.003419 0.107655 -0.021303
v 0.000000 0.107129 -0.022618
v -0.003419 0.107655 -0.021303
v -0.004835 0.108925 -0.018129
v -0.003419 0.129486 -0.023012
v 0.000000 0.129891 -0.021655
v 0.003419 0.129486 -0.023012
v 0.004835 0.128510 -0.026289
v 0.003419 0.127534 -0.029566
v 0.000000 0.127130 -0.030923
v -0.003419 0.127534 -0.029566
v -0.004835 0.128510 -0.026289
v -0.003419 0.147176 -0.026229
v 0.000000 0.147170 -0.024813
v 0.003419 0.147176 -0.026229
v 0.004835 0.147190 -0.029648
v 0.003419 0.147204 -0.033067
v 0.000000 0.147210 -0.034483
v -0.003419 0.147204 -0.033067
v -0.004835 0.147190 -0.029648
v -0.003419 0.160920 -0.024133
v 0.000000 0.160397 -0.022816
v 0.003419 0.160920 -0.024133
v 0.004835 0.162183 -0.027310
v 0.003419 0.163445 -0.030488
v 0.000000 0.163968 -0.031804
v -0.003419 0.163445 -0.030488
v -0.004835 0.162183 -0.027310
v -0.003148 0.171462 -0.019019
v 0.000000 0.170688 -0.017970
v 0.003148 0.171462 -0.019019
v 0.004451 0.173332 -0.021551
v 0.003148 0.175201 -0.024083
v 0.000000 0.175975 -0.025132
v -0.003148 0.175201 -0.024083
v -0.004451 0.173332 -0.021551
v -0.002958 0.178854 -0.010815
v 0.000000 0.177790 -0.010208
v 0.002958 0.178854 -0.010815
v 0.004183 0.181422 -0.012282
v 0.002958 0.183991 -0.013748
v 0.000000 0.185055 -0.014356
v -0.002958 0.183991 -0.013748
v -0.004183 0.181422 -0.012282
v -0.002726 0.178723 0.010390
v 0.000000 0.177653 0.010029
v 0.002726 0.178723 0.010390
v 0.003856 0.181307 0.011261
v 0.002726 0.183890 0.012133
v 0.000000 0.184960 0.012494
v -0.002726 0.183890 0.012133
v -0.003856 0.181307 0.011261
v -0.002429 0.173088 0.019968
v 0.000000 0.172247 0.019416
v 0.002429 0.173088 0.019968
v 0.003435 0.175118 0.021302
v 0.002429 0.177148 0.022637
v 0.000000 0.177989 0.023189
v -0.002429 0.177148 0.022637
v -0.003435 0.175118 0.021302
v -0.001871 0.167556 0.027388
v 0.000000 0.166997 0.026850
v 0.001871 0.167556 0.027388
v 0.002646 0.168903 0.028685
v 0.001871 0.170251 0.029983
v 0.000000 0.170809 0.030521
v -0.001871 0.170251 0.029983
v -0.002646 0.168903 0.028685
v -0.000329 0.160048 0.036070
v 0.000000 0.159894 0.036027
v 0.000329 0.160048 0.036070
v 0.000466 0.160211 0.036368
v 0.000329 0.160496 0.036553
v 0.000000 0.160527 0.036710
v -0.000329 0.160496 0.036553
v -0.000466 0.160211 0.036368
v -0.000668 0.160245 0.035379
v -0.000944 0.160699 0.035869
v 0.000000 0.160057 0.035176
v 0.000668 0.160245 0.035379
v 0.000944 0.160699 0.035869
v 0.000668 0.161153 0.036358
v 0.000000 0.161341 0.036561
v -0.000668 0.161153 0.036358
v 0.000000 0.160056 0.036512
v -0.002948 0.181165 0.000064
v -0.004169 0.183853 0.000069
v 0.000000 0.180051 0.000063
v 0.002948 0.181165 0.000064
v 0.004169 0.183853 0.000069
v 0.002948 0.186542 0.000073
v 0.000000 0.187656 0.000075
v -0.002948 0.186542 0.000073
v 0.061664 0.000000 0.012440
v -0.061664 0.000000 0.012440
v 0.061664 -0.004760 0.011493
v -0.061664 -0.004760 0.011493
v 0.061664 -0.008796 0.008796
v -0.061664 -0.008796 0.008796
v 0.061664 -0.011493 0.004760
v -0.061664 -0.011493 0.004760
v 0.061664 -0.012440 -0.000000
v -0.061664 -0.012440 0.000000
v 0.061664 -0.011493 -0.004760
v -0.061664 -0.011493 -0.004760
v 0.061664 -0.008796 -0.008796
v -0.061664 -0.008796 -0.008796
v 0.061664 -0.004760 -0.011493
v -0.061664 -0.004760 -0.011493
v 0.061664 -0.000000 -0.012440
v -0.061664 0.000000 -0.012440
v 0.061664 0.004760 -0.011493
v -0.061664 0.004760 -0.011493
v 0.061664 0.008796 -0.008796
v -0.061664 0.008796 -0.008796
v 0.061664 0.011493 -0.004760
v -0.061664 0.011493 -0.004760
v 0.061664 0.012440 -0.000000
v -0.061664 0.012440 0.000000
v 0.061664 0.011493 0.004760
v -0.061664 0.011493 0.004760
v 0.061664 0.008796 0.008796
v -0.061664 0.008796 0.008796
v 0.061664 0.004760 0.011493
v -0.061664 0.004760 0.011493
v -0.061664 0.000000 0.000000
v 0.061664 -0.000000 -0.000000
vn -0.7070 0.0132 0.7071
vn -0.6995 0.0586 0.7122
vn -0.9999 0.0013 0.0154
vn -1.0000 -0.0000 -0.0003
vn -0.0000 0.0187 0.9998
vn -0.0000 0.0821 0.9966
vn 0.7070 0.0132 0.7071
vn 0.6995 0.0586 0.7122
vn 1.0000 -0.0000 -0.0003
vn 0.9999 0.0013 0.0154
vn 0.7067 -0.0129 -0.7074
vn 0.7150 -0.0571 -0.6968
vn -0.0000 -0.0182 -0.9998
vn -0.0000 -0.0815 -0.9967
vn -0.7067 -0.0129 -0.7074
vn -0.7150 -0.0571 -0.6968
vn -0.6977 0.1604 0.6982
vn -0.9998 0.0044 0.0191
vn -0.0000 0.2239 0.9746
vn 0.6977 0.1604 0.6982
vn 0.9998 0.0044 0.0191
vn 0.7174 -0.1561 -0.6790
vn -0.0000 -0.2241 -0.9746
vn -0.7174 -0.1561 -0.6790
vn -0.7033 0.2345 0.6711
vn -1.0000 0.0024 0.0069
vn -0.0000 0.3298 0.9440
vn 0.7033 0.2345 0.6711
vn 1.0000 0.0024 0.0069
vn 0.7106 -0.2324 -0.6641
vn -0.0000 -0.3303 -0.9439
vn -0.7106 -0.2324 -0.6641
vn -0.7049 0.2637 0.6584
vn -1.0000 0.0014 0.0032
vn -0.0000 0.3718 0.9283
vn 0.7049 0.2637 0.6584
vn 1.0000 0.0014 0.0032
vn 0.7084 -0.2618 -0.6554
vn -0.0000 -0.3709 -0.9287
vn -0.7084 -0.2618 -0.6554
vn -0.7201 0.1968 0.6653
vn -0.9997 -0.0071 -0.0254
vn -0.0000 0.2840 0.9588
vn 0.7201 0.1968 0.6653
vn 0.9997 -0.0071 -0.0254
vn 0.6938 -0.2024 -0.6911
vn -0.0000 -0.2810 -0.9597
vn -0.6938 -0.2024 -0.6911
vn -0.7275 0.0096 0.6860
vn -0.9992 -0.0006 -0.0404
vn -0.0000 0.0155 0.9999
vn 0.7275 0.0096 0.6860
vn 0.9992 -0.0006 -0.0404
vn 0.6872 -0.0066 -0.7264
vn -0.0000 -0.0083 -1.0000
vn -0.6872 -0.0066 -0.7264
vn -0.7257 -0.1962 0.6595
vn -0.9992 0.0237 -0.0308
vn -0.0000 -0.2888 0.9574
vn 0.7257 -0.1962 0.6595
vn 0.9992 0.0237 -0.0308
vn 0.6892 0.2397 -0.6838
vn -0.0000 0.3283 -0.9446
vn -0.6892 0.2397 -0.6838
vn -0.7316 -0.3977 0.5537
vn -0.9986 0.0501 -0.0196
vn -0.0000 -0.5938 0.8046
vn 0.7316 -0.3977 0.5537
vn 0.9986 0.0501 -0.0196
vn 0.6852 0.4681 -0.5580
vn -0.0000 0.6341 -0.7732
vn -0.6852 0.4681 -0.5580
vn -0.7360 -0.6012 0.3114
vn -0.9976 0.0679 -0.0145
vn -0.0000 -0.8900 0.4559
vn 0.7360 -0.6012 0.3114
vn 0.9976 0.0679 -0.0145
vn 0.6708 0.6726 -0.3126
vn -0.0000 0.9030 -0.4297
vn -0.6708 0.6726 -0.3126
vn -0.7233 -0.6906 0.0009
vn -0.7202 -0.6504 -0.2413
vn -0.9987 0.0272 0.0437
vn -0.9986 0.0514 0.0138
vn -0.0000 -1.0000 -0.0086
vn -0.0000 -0.9297 -0.3683
vn 0.7233 -0.6906 0.0009
vn 0.7202 -0.6504 -0.2413
vn 0.9986 0.0514 0.0138
vn 0.9987 0.0272 0.0437
vn 0.6725 0.7399 0.0177
vn 0.6800 0.6724 0.2924
vn -0.0000 0.9998 0.0181
vn -0.0000 0.9230 0.3848
vn -0.6725 0.7399 0.0177
vn -0.6800 0.6724 0.2924
vn -0.7136 -0.6003 -0.3612
vn -0.9981 -0.0185 0.0584
vn -0.0000 -0.8428 -0.5382
vn 0.7136 -0.6003 -0.3612
vn 0.9981 -0.0185 0.0584
vn 0.6948 0.5505 0.4628
vn -0.0000 0.7807 0.6249
vn -0.6948 0.5505 0.4628
vn -0.7127 -0.5776 -0.3980
vn -0.9929 -0.0662 0.0986
vn -0.0000 -0.7936 -0.6084
vn 0.7127 -0.5776 -0.3980
vn 0.9929 -0.0662 0.0986
vn 0.6916 0.4308 0.5797
vn -0.0000 0.6325 0.7746
vn -0.6916 0.4308 0.5797
vn -0.6575 -0.7142 -0.2400
vn -0.9302 -0.2724 0.2461
vn -0.0000 -0.9019 -0.4320
vn 0.6575 -0.7142 -0.2400
vn 0.9302 -0.2724 0.2461
vn 0.6616 0.1850 0.7267
vn -0.0000 0.3656 0.9308
vn -0.6616 0.1850 0.7267
vn -0.0000 -0.7332 0.6800
vn -0.0000 -0.9980 0.0639
vn 0.5075 -0.8548 0.1088
vn 0.6451 -0.5559 0.5243
vn -0.5075 -0.8548 0.1088
vn -0.6451 -0.5559 0.5243
vn 0.5157 -0.1431 0.8448
vn -0.0000 -0.1041 0.9946
vn -0.5157 -0.1431 0.8448
vn -0.0000 -0.0000 1.0000
vn -0.0000 -0.3827 0.9239
vn -0.0000 -0.7071 0.7071
vn -0.0000 -0.9239 0.3827
vn -0.0000 -1.0000 -0.0000
vn -0.0000 -0.9239 -0.3827
vn -0.0000 -0.7071 -0.7071
vn -0.0000 -0.3827 -0.9239
vn -0.0000 -0.0000 -1.0000
vn -0.0000 0.3827 -0.9239
vn -0.0000 0.7071 -0.7071
vn -0.0000 0.9239 -0.3827
vn -0.0000 1.0000 -0.0000
vn -0.0000 0.9239 0.3827
vn -0.0000 0.7071 0.7071
vn 1.0000 -0.0000 -0.0000
vn -0.0000 0.3827 0.9239
vn -1.0000 -0.0000 -0.0000
vt 0.994818 0.044508
vt 0.851460 0.044508
vt 0.851460 0.031319
vt 0.994818 0.031319
vt 0.994818 0.057751
vt 0.851460 0.057751
vt 0.994818 0.070995
vt 0.851460 0.070995
vt 0.994818 0.084184
vt 0.851460 0.084184
vt 0.994818 0.097373
vt 0.851460 0.097373
vt 0.994818 0.110617
vt 0.851460 0.110617
vt 0.994818 0.018130
vt 0.851460 0.018130
vt 0.851460 0.004886
vt 0.994818 0.004886
vt 0.766632 0.044508
vt 0.766632 0.031319
vt 0.766632 0.057751
vt 0.766632 0.070995
vt 0.766632 0.084184
vt 0.766632 0.097373
vt 0.766632 0.110617
vt 0.766632 0.018130
vt 0.766632 0.004886
vt 0.667270 0.044508
vt 0.667270 0.031319
vt 0.667270 0.057751
vt 0.667270 0.070995
vt 0.667270 0.084184
vt 0.667270 0.097373
vt 0.667270 0.110617
vt 0.667270 0.018130
vt 0.667270 0.004886
vt 0.570337 0.044508
vt 0.570337 0.031319
vt 0.570337 0.057751
vt 0.570337 0.070995
vt 0.570337 0.084184
vt 0.570337 0.097373
vt 0.570337 0.110617
vt 0.570337 0.018130
vt 0.570337 0.004886
vt 0.482164 0.044508
vt 0.482164 0.031319
vt 0.482164 0.057751
vt 0.482164 0.070995
vt 0.482164 0.084184
vt 0.482164 0.097373
vt 0.482164 0.110617
vt 0.482164 0.018130
vt 0.482164 0.004886
vt 0.403764 0.044508
vt 0.403764 0.031319
vt 0.403764 0.057751
vt 0.403764 0.070995
vt 0.403764 0.084184
vt 0.403764 0.097373
vt 0.403764 0.110617
vt 0.403764 0.018130
vt 0.403764 0.004886
vt 0.341393 0.044508
vt 0.341393 0.031319
vt 0.341393 0.057751
vt 0.341393 0.070995
vt 0.341393 0.084184
vt 0.341393 0.097373
vt 0.341393 0.110617
vt 0.341393 0.018130
vt 0.341393 0.004886
vt 0.289644 0.044508
vt 0.289644 0.031319
vt 0.289644 0.057752
vt 0.289644 0.070995
vt 0.289644 0.084184
vt 0.289644 0.097373
vt 0.289644 0.110617
vt 0.289644 0.018130
vt 0.289644 0.004886
vt 0.239211 0.044508
vt 0.239211 0.031319
vt 0.239211 0.057751
vt 0.239211 0.070995
vt 0.239211 0.084184
vt 0.239211 0.097373
vt 0.239211 0.110617
vt 0.239211 0.018130
vt 0.239211 0.004886
vt 0.186777 0.044508
vt 0.139524 0.044508
vt 0.139524 0.031319
vt 0.186777 0.031319
vt 0.186777 0.057751
vt 0.139524 0.057751
vt 0.186777 0.070995
vt 0.139524 0.070995
vt 0.186777 0.084184
vt 0.139524 0.084184
vt 0.186777 0.097373
vt 0.139524 0.097373
vt 0.186777 0.110617
vt 0.139524 0.110617
vt 0.186777 0.018130
vt 0.139524 0.018130
vt 0.139524 0.004886
vt 0.186777 0.004886
vt 0.090818 0.044508
vt 0.090818 0.031319
vt 0.090818 0.057751
vt 0.090818 0.070995
vt 0.090818 0.084184
vt 0.090818 0.097373
vt 0.090818 0.110617
vt 0.090818 0.018130
vt 0.090818 0.004886
vt 0.050759 0.044508
vt 0.050759 0.031319
vt 0.050759 0.057751
vt 0.050759 0.070995
vt 0.050759 0.084184
vt 0.050759 0.097373
vt 0.050759 0.110617
vt 0.050759 0.018130
vt 0.050759 0.004886
vt 0.004883 0.044508
vt 0.004883 0.031319
vt 0.004883 0.057751
vt 0.004883 0.070995
vt 0.004883 0.084184
vt 0.004883 0.097373
vt 0.004883 0.110617
vt 0.004883 0.018130
vt 0.004883 0.004886
vt 0.329707 0.123659
vt 0.330301 0.122482
vt 0.331140 0.123240
vt 0.330928 0.124286
vt 0.329193 0.122256
vt 0.328477 0.123048
vt 0.325180 0.121243
vt 0.328239 0.118988
vt 0.331909 0.119299
vt 0.334337 0.122068
vt 0.334337 0.125868
vt 0.330192 0.125051
vt 0.331250 0.128109
vt 0.329122 0.124816
vt 0.327616 0.127798
vt 0.328298 0.124094
vt 0.325209 0.125058
vt 0.161124 0.118879
vt 0.161124 0.615122
vt 0.141594 0.615122
vt 0.141594 0.118879
vt 0.122064 0.615122
vt 0.122064 0.118879
vt 0.102534 0.615122
vt 0.102534 0.118879
vt 0.083004 0.615122
vt 0.083003 0.118879
vt 0.063474 0.615122
vt 0.063473 0.118879
vt 0.043944 0.615122
vt 0.043943 0.118879
vt 0.024414 0.615122
vt 0.024413 0.118879
vt 0.004884 0.615122
vt 0.004883 0.118879
vt 0.317365 0.118879
vt 0.317364 0.615122
vt 0.297834 0.615122
vt 0.297835 0.118879
vt 0.278304 0.615122
vt 0.278305 0.118879
vt 0.258774 0.615122
vt 0.258775 0.118879
vt 0.239244 0.615122
vt 0.239245 0.118879
vt 0.219714 0.615122
vt 0.219714 0.118879
vt 0.200184 0.615122
vt 0.200184 0.118879
vt 0.394460 0.122772
vt 0.410698 0.133622
vt 0.375306 0.169014
vt 0.375306 0.118962
vt 0.180654 0.615122
vt 0.180654 0.118879
vt 0.433323 0.169014
vt 0.437133 0.149860
vt 0.447983 0.133622
vt 0.483375 0.169014
vt 0.464221 0.122772
vt 0.483375 0.118962
vt 0.502529 0.122772
vt 0.518767 0.133622
vt 0.529617 0.149860
vt 0.533427 0.169014
vt 0.529617 0.188169
vt 0.518767 0.204407
vt 0.502529 0.215257
vt 0.483375 0.219067
vt 0.464221 0.215257
vt 0.447983 0.204407
vt 0.437133 0.188169
vt 0.356152 0.122772
vt 0.339914 0.133622
vt 0.421548 0.149860
vt 0.425358 0.169014
vt 0.421548 0.188169
vt 0.410698 0.204407
vt 0.394460 0.215257
vt 0.375306 0.219067
vt 0.356152 0.215257
vt 0.339914 0.204407
vt 0.329064 0.188169
vt 0.325254 0.169014
vt 0.329064 0.149860
s 1
f 1/1/1 9/2/2 16/3/3 8/4/4
f 2/5/5 10/6/6 9/2/2 1/1/1
f 3/7/7 11/8/8 10/6/6 2/5/5
f 4/9/9 12/10/10 11/8/8 3/7/7
f 5/11/11 13/12/12 12/10/10 4/9/9
f 6/13/13 14/14/14 13/12/12 5/11/11
f 7/15/15 15/16/16 14/17/14 6/18/13
f 8/4/4 16/3/3 15/16/16 7/15/15
f 9/2/2 17/19/17 24/20/18 16/3/3
f 10/6/6 18/21/19 17/19/17 9/2/2
f 11/8/8 19/22/20 18/21/19 10/6/6
f 12/10/10 20/23/21 19/22/20 11/8/8
f 13/12/12 21/24/22 20/23/21 12/10/10
f 14/14/14 22/25/23 21/24/22 13/12/12
f 15/16/16 23/26/24 22/27/23 14/17/14
f 16/3/3 24/20/18 23/26/24 15/16/16
f 17/19/17 25/28/25 32/29/26 24/20/18
f 18/21/19 26/30/27 25/28/25 17/19/17
f 19/22/20 27/31/28 26/30/27 18/21/19
f 20/23/21 28/32/29 27/31/28 19/22/20
f 21/24/22 29/33/30 28/32/29 20/23/21
f 22/25/23 30/34/31 29/33/30 21/24/22
f 23/26/24 31/35/32 30/36/31 22/27/23
f 24/20/18 32/29/26 31/35/32 23/26/24
f 25/28/25 33/37/33 40/38/34 32/29/26
f 26/30/27 34/39/35 33/37/33 25/28/25
f 27/31/28 35/40/36 34/39/35 26/30/27
f 28/32/29 36/41/37 35/40/36 27/31/28
f 29/33/30 37/42/38 36/41/37 28/32/29
f 30/34/31 38/43/39 37/42/38 29/33/30
f 31/35/32 39/44/40 38/45/39 30/36/31
f 32/29/26 40/38/34 39/44/40 31/35/32
f 33/37/33 41/46/41 48/47/42 40/38/34
f 34/39/35 42/48/43 41/46/41 33/37/33
f 35/40/36 43/49/44 42/48/43 34/39/35
f 36/41/37 44/50/45 43/49/44 35/40/36
f 37/42/38 45/51/46 44/50/45 36/41/37
f 38/43/39 46/52/47 45/51/46 37/42/38
f 39/44/40 47/53/48 46/54/47 38/45/39
f 40/38/34 48/47/42 47/53/48 39/44/40
f 41/46/41 49/55/49 56/56/50 48/47/42
f 42/48/43 50/57/51 49/55/49 41/46/41
f 43/49/44 51/58/52 50/57/51 42/48/43
f 44/50/45 52/59/53 51/58/52 43/49/44
f 45/51/46 53/60/54 52/59/53 44/50/45
f 46/52/47 54/61/55 53/60/54 45/51/46
f 47/53/48 55/62/56 54/63/55 46/54/47
f 48/47/42 56/56/50 55/62/56 47/53/48
f 49/55/49 57/64/57 64/65/58 56/56/50
f 50/57/51 58/66/59 57/64/57 49/55/49
f 51/58/52 59/67/60 58/66/59 50/57/51
f 52/59/53 60/68/61 59/67/60 51/58/52
f 53/60/54 61/69/62 60/68/61 52/59/53
f 54/61/55 62/70/63 61/69/62 53/60/54
f 55/62/56 63/71/64 62/72/63 54/63/55
f 56/56/50 64/65/58 63/71/64 55/62/56
f 57/64/57 65/73/65 72/74/66 64/65/58
f 58/66/59 66/75/67 65/73/65 57/64/57
f 59/67/60 67/76/68 66/75/67 58/66/59
f 60/68/61 68/77/69 67/76/68 59/67/60
f 61/69/62 69/78/70 68/77/69 60/68/61
f 62/70/63 70/79/71 69/78/70 61/69/62
f 63/71/64 71/80/72 70/81/71 62/72/63
f 64/65/58 72/74/66 71/80/72 63/71/64
f 65/73/65 73/82/73 80/83/74 72/74/66
f 66/75/67 74/84/75 73/82/73 65/73/65
f 67/76/68 75/85/76 74/84/75 66/75/67
f 68/77/69 76/86/77 75/85/76 67/76/68
f 69/78/70 77/87/78 76/86/77 68/77/69
f 70/79/71 78/88/79 77/87/78 69/78/70
f 71/80/72 79/89/80 78/90/79 70/81/71
f 72/74/66 80/83/74 79/89/80 71/80/72
f 122/91/81 81/92/82 88/93/83 123/94/84
f 124/95/85 82/96/86 81/92/82 122/91/81
f 125/97/87 83/98/88 82/96/86 124/95/85
f 126/99/89 84/100/90 83/98/88 125/97/87
f 127/101/91 85/102/92 84/100/90 126/99/89
f 128/103/93 86/104/94 85/102/92 127/101/91
f 129/105/95 87/106/96 86/107/94 128/108/93
f 123/94/84 88/93/83 87/106/96 129/105/95
f 81/92/82 89/109/97 96/110/98 88/93/83
f 82/96/86 90/111/99 89/109/97 81/92/82
f 83/98/88 91/112/100 90/111/99 82/96/86
f 84/100/90 92/113/101 91/112/100 83/98/88
f 85/102/92 93/114/102 92/113/101 84/100/90
f 86/104/94 94/115/103 93/114/102 85/102/92
f 87/106/96 95/116/104 94/117/103 86/107/94
f 88/93/83 96/110/98 95/116/104 87/106/96
f 89/109/97 97/118/105 104/119/106 96/110/98
f 90/111/99 98/120/107 97/118/105 89/109/97
f 91/112/100 99/121/108 98/120/107 90/111/99
f 92/113/101 100/122/109 99/121/108 91/112/100
f 93/114/102 101/123/110 100/122/109 92/113/101
f 94/115/103 102/124/111 101/123/110 93/114/102
f 95/116/104 103/125/112 102/126/111 94/117/103
f 96/110/98 104/119/106 103/125/112 95/116/104
f 97/118/105 113/127/113 114/128/114 104/119/106
f 98/120/107 115/129/115 113/127/113 97/118/105
f 99/121/108 116/130/116 115/129/115 98/120/107
f 100/122/109 117/131/117 116/130/116 99/121/108
f 101/123/110 118/132/118 117/131/117 100/122/109
f 102/124/111 119/133/119 118/132/118 101/123/110
f 103/125/112 120/134/120 119/135/119 102/126/111
f 104/119/106 114/128/114 120/134/120 103/125/112
f 121/136/121 106/137/122 107/138/123 108/139/124
f 105/140/125 112/141/126 114/142/114 113/143/113
f 106/137/122 105/140/125 113/143/113 115/144/115
f 107/138/123 106/137/122 115/144/115 116/145/116
f 108/139/124 107/138/123 116/145/116 117/146/117
f 109/147/127 108/139/124 117/146/117 118/148/118
f 110/149/128 109/147/127 118/148/118 119/150/119
f 111/151/129 110/149/128 119/150/119 120/152/120
f 112/141/126 111/151/129 120/152/120 114/142/114
f 110/149/128 121/136/121 108/139/124 109/147/127
f 111/151/129 112/141/126 121/136/121 110/149/128
f 112/141/126 105/140/125 106/137/122 121/136/121
f 80/83/74 123/94/84 129/105/95 79/89/80
f 79/89/80 129/105/95 128/108/93 78/90/79
f 78/88/79 128/103/93 127/101/91 77/87/78
f 77/87/78 127/101/91 126/99/89 76/86/77
f 76/86/77 126/99/89 125/97/87 75/85/76
f 75/85/76 125/97/87 124/95/85 74/84/75
f 74/84/75 124/95/85 122/91/81 73/82/73
f 73/82/73 122/91/81 123/94/84 80/83/74
f 130/153/130 131/154/130 133/155/131 132/156/131
f 132/156/131 133/155/131 135/157/132 134/158/132
f 134/158/132 135/157/132 137/159/133 136/160/133
f 136/160/133 137/159/133 139/161/134 138/162/134
f 138/162/134 139/161/134 141/163/135 140/164/135
f 140/164/135 141/163/135 143/165/136 142/166/136
f 142/166/136 143/165/136 145/167/137 144/168/137
f 144/168/137 145/167/137 147/169/138 146/170/138
f 146/171/138 147/172/138 149/173/139 148/174/139
f 148/174/139 149/173/139 151/175/140 150/176/140
f 150/176/140 151/175/140 153/177/141 152/178/141
f 152/178/141 153/177/141 155/179/142 154/180/142
f 154/180/142 155/179/142 157/181/143 156/182/143
f 156/182/143 157/181/143 159/183/144 158/184/144
f 136/185/145 138/186/145 163/187/145 134/188/145
f 158/184/144 159/183/144 161/189/146 160/190/146
f 160/190/146 161/189/146 131/154/130 130/153/130
f 135/191/147 133/192/147 131/193/147 162/194/147
f 161/195/147 159/196/147 162/194/147 131/193/147
f 157/197/147 155/198/147 162/194/147 159/196/147
f 153/199/147 151/200/147 162/194/147 155/198/147
f 149/201/147 147/202/147 162/194/147 151/200/147
f 145/203/147 143/204/147 162/194/147 147/202/147
f 141/205/147 139/206/147 162/194/147 143/204/147
f 137/207/147 135/191/147 162/194/147 139/206/147
f 132/208/145 134/188/145 163/187/145 130/209/145
f 140/210/145 142/211/145 163/187/145 138/186/145
f 144/212/145 146/213/145 163/187/145 142/211/145
f 148/214/145 150/215/145 163/187/145 146/213/145
f 152/216/145 154/217/145 163/187/145 150/215/145
f 156/218/145 158/219/145 163/187/145 154/217/145
f 160/220/145 130/209/145 163/187/145 158/219/145
