# Blender 4.0.2
# www.blender.org
o folding_stool_01
v -0.179331 0.453807 0.190000
v -0.173988 0.452744 0.190000
v -0.169459 0.449718 0.190000
v -0.166433 0.445189 0.190000
v -0.165370 0.439847 0.190000
v -0.166433 0.434504 0.190000
v -0.169459 0.429975 0.190000
v -0.173988 0.426949 0.190000
v -0.179331 0.425887 0.190000
v -0.184673 0.426949 0.190000
v -0.189202 0.429975 0.190000
v -0.192228 0.434504 0.190000
v -0.193291 0.439847 0.190000
v -0.192228 0.445189 0.190000
v -0.189202 0.449718 0.190000
v -0.184673 0.452744 0.190000
v -0.179331 0.453807 -0.190000
v -0.173988 0.452744 -0.190000
v -0.169459 0.449718 -0.190000
v -0.166433 0.445189 -0.190000
v -0.165370 0.439847 -0.190000
v -0.166433 0.434504 -0.190000
v -0.169459 0.429975 -0.190000
v -0.173988 0.426949 -0.190000
v 0.179331 0.453807 0.170000
v 0.173988 0.452744 0.170000
v 0.169459 0.449718 0.170000
v 0.166433 0.445189 0.170000
v 0.165370 0.439847 0.170000
v 0.166433 0.434504 0.170000
v 0.169459 0.429975 0.170000
v 0.173988 0.426949 0.170000
v 0.179331 0.425887 0.170000
v 0.184673 0.426949 0.170000
v 0.189202 0.429975 0.170000
v 0.192228 0.434504 0.170000
v 0.193291 0.439847 0.170000
v 0.192228 0.445189 0.170000
v 0.189202 0.449718 0.170000
v 0.184673 0.452744 0.170000
v -0.179331 0.425887 -0.190000
v -0.184673 0.426949 -0.190000
v -0.189202 0.429975 -0.190000
v -0.192228 0.434504 -0.190000
v -0.193291 0.439847 -0.190000
v -0.192228 0.445189 -0.190000
v -0.189202 0.449718 -0.190000
v -0.184673 0.452744 -0.190000
v 0.179331 0.453807 -0.170000
v 0.173988 0.452744 -0.170000
v 0.169459 0.449718 -0.170000
v 0.166433 0.445189 -0.170000
v 0.165370 0.439847 -0.170000
v 0.166433 0.434504 -0.170000
v 0.169459 0.429975 -0.170000
v 0.173988 0.426949 -0.170000
v 0.179331 0.425887 -0.170000
v 0.184673 0.426949 -0.170000
v 0.189202 0.429975 -0.170000
v 0.192228 0.434504 -0.170000
v 0.193291 0.439847 -0.170000
v 0.192228 0.445189 -0.170000
v 0.189202 0.449718 -0.170000
v 0.184673 0.452744 -0.170000
v 0.161062 0.431497 0.170000
v 0.156558 0.430236 0.170000
v 0.152878 0.427348 0.170000
v 0.150585 0.423271 0.170000
v 0.150026 0.418626 0.170000
v 0.151286 0.414122 0.170000
v 0.154175 0.410442 0.170000
v 0.158252 0.408149 0.170000
v 0.162896 0.407590 0.170000
v 0.167401 0.408850 0.170000
v 0.171080 0.411739 0.170000
v 0.173374 0.415816 0.170000
v 0.173933 0.420460 0.170000
v 0.172672 0.424965 0.170000
v 0.169784 0.428644 0.170000
v 0.165707 0.430938 0.170000
v -0.161062 0.431497 0.190000
v -0.156558 0.430236 0.190000
v -0.152878 0.427348 0.190000
v -0.150585 0.423271 0.190000
v -0.150026 0.418626 0.190000
v -0.151286 0.414122 0.190000
v -0.154175 0.410442 0.190000
v -0.158252 0.408149 0.190000
v -0.162896 0.407590 0.190000
v -0.167401 0.408850 0.190000
v -0.171080 0.411739 0.190000
v -0.173374 0.415816 0.190000
v -0.173933 0.420460 0.190000
v -0.172672 0.424965 0.190000
v -0.169784 0.428644 0.190000
v -0.165707 0.430938 0.190000
v 0.161062 0.431497 -0.170000
v 0.156558 0.430236 -0.170000
v 0.152878 0.427348 -0.170000
v 0.150585 0.423271 -0.170000
v 0.150026 0.418626 -0.170000
v 0.151286 0.414122 -0.170000
v 0.154175 0.410442 -0.170000
v 0.158252 0.408149 -0.170000
v 0.162896 0.407590 -0.170000
v 0.167401 0.408850 -0.170000
v 0.171080 0.411739 -0.170000
v 0.173374 0.415816 -0.170000
v 0.173933 0.420460 -0.170000
v 0.172672 0.424965 -0.170000
v 0.169784 0.428644 -0.170000
v 0.165707 0.430938 -0.170000
v -0.161062 0.431497 -0.190000
v -0.156558 0.430236 -0.190000
v -0.152878 0.427348 -0.190000
v -0.150585 0.423271 -0.190000
v -0.150026 0.418626 -0.190000
v -0.151286 0.414122 -0.190000
v -0.154175 0.410442 -0.190000
v -0.158252 0.408149 -0.190000
v -0.162896 0.407590 -0.190000
v -0.167401 0.408850 -0.190000
v -0.171080 0.411739 -0.190000
v -0.173374 0.415816 -0.190000
v -0.173933 0.420460 -0.190000
v -0.172672 0.424965 -0.190000
v -0.169784 0.428644 -0.190000
v -0.165707 0.430938 -0.190000
v 0.199730 0.025993 0.210000
v 0.199732 0.019081 0.210000
v 0.196905 0.012044 0.210000
v 0.191680 0.005954 0.210000
v 0.184852 0.001738 0.210000
v 0.177462 0.000037 0.210000
v 0.170634 0.001112 0.210000
v 0.181154 0.018263 0.210000
v 0.185182 0.013552 0.210000
v 0.188597 0.009559 0.210000
v 0.199730 0.025993 0.190000
v 0.196901 0.031729 0.190000
v 0.199732 0.019081 0.190000
v 0.196905 0.012044 0.190000
v 0.191680 0.005954 0.190000
v 0.184852 0.001738 0.190000
v 0.177462 0.000037 0.190000
v 0.170634 0.001112 0.190000
v 0.165407 0.004797 0.190000
v 0.181154 0.018263 0.190000
v 0.185182 0.013552 0.190000
v 0.188597 0.009559 0.190000
v 0.165407 0.004797 0.210000
v -0.196571 0.428101 0.190000
v 0.196903 0.031731 0.210000
v -0.165074 0.455035 0.190000
v -0.196569 0.428103 0.210000
v -0.199398 0.433839 0.210000
v -0.199399 0.440751 0.210000
v -0.196572 0.447788 0.210000
v -0.191347 0.453878 0.210000
v -0.184520 0.458094 0.210000
v -0.177129 0.459795 0.210000
v -0.170301 0.458720 0.210000
v -0.165074 0.455035 0.210000
v -0.184849 0.446280 0.210000
v -0.188264 0.450273 0.210000
v -0.199398 0.433839 0.190000
v -0.199399 0.440751 0.190000
v -0.196572 0.447788 0.190000
v -0.191347 0.453878 0.190000
v -0.184520 0.458094 0.190000
v -0.177129 0.459795 0.190000
v -0.170301 0.458720 0.190000
v -0.184849 0.446280 0.190000
v -0.188264 0.450273 0.190000
v -0.180823 0.441568 0.190000
v -0.180823 0.441568 0.210000
v 0.199730 0.025993 -0.210000
v 0.199732 0.019081 -0.210000
v 0.196905 0.012044 -0.210000
v 0.191680 0.005954 -0.210000
v 0.184852 0.001738 -0.210000
v 0.177462 0.000037 -0.210000
v 0.170634 0.001112 -0.210000
v 0.181154 0.018263 -0.210000
v 0.185182 0.013552 -0.210000
v 0.188597 0.009559 -0.210000
v 0.199730 0.025993 -0.190000
v 0.196901 0.031729 -0.190000
v 0.199732 0.019081 -0.190000
v 0.196905 0.012044 -0.190000
v 0.191680 0.005954 -0.190000
v 0.184852 0.001738 -0.190000
v 0.177462 0.000037 -0.190000
v 0.170634 0.001112 -0.190000
v 0.165407 0.004797 -0.190000
v 0.181154 0.018263 -0.190000
v 0.185182 0.013552 -0.190000
v 0.188597 0.009559 -0.190000
v 0.165407 0.004797 -0.210000
v -0.196571 0.428101 -0.190000
v 0.196903 0.031731 -0.210000
v -0.165074 0.455035 -0.190000
v -0.196569 0.428103 -0.210000
v -0.199398 0.433839 -0.210000
v -0.199399 0.440751 -0.210000
v -0.196572 0.447788 -0.210000
v -0.191347 0.453878 -0.210000
v -0.184520 0.458094 -0.210000
v -0.177129 0.459795 -0.210000
v -0.170301 0.458720 -0.210000
v -0.165074 0.455035 -0.210000
v -0.184849 0.446280 -0.210000
v -0.188264 0.450273 -0.210000
v -0.199398 0.433839 -0.190000
v -0.199399 0.440751 -0.190000
v -0.196572 0.447788 -0.190000
v -0.191347 0.453878 -0.190000
v -0.184520 0.458094 -0.190000
v -0.177129 0.459795 -0.190000
v -0.170301 0.458720 -0.190000
v -0.184849 0.446280 -0.190000
v -0.188264 0.450273 -0.190000
v -0.180823 0.441568 -0.190000
v -0.180823 0.441568 -0.210000
v 0.107041 0.116328 0.190000
v 0.111464 0.115448 0.190000
v 0.115214 0.112942 0.190000
v 0.117720 0.109192 0.190000
v 0.118600 0.104769 0.190000
v 0.117720 0.100346 0.190000
v 0.115214 0.096596 0.190000
v 0.111464 0.094090 0.190000
v 0.107041 0.093210 0.190000
v 0.102618 0.094090 0.190000
v 0.098868 0.096596 0.190000
v 0.096362 0.100346 0.190000
v 0.095482 0.104769 0.190000
v 0.096362 0.109192 0.190000
v 0.098868 0.112942 0.190000
v 0.102618 0.115448 0.190000
v 0.107041 0.116328 -0.190000
v 0.111464 0.115448 -0.190000
v 0.115214 0.112942 -0.190000
v 0.117720 0.109192 -0.190000
v 0.118600 0.104769 -0.190000
v 0.117720 0.100346 -0.190000
v 0.115214 0.096596 -0.190000
v 0.111464 0.094090 -0.190000
v 0.107041 0.093210 -0.190000
v 0.102618 0.094090 -0.190000
v 0.098868 0.096596 -0.190000
v 0.096362 0.100346 -0.190000
v 0.095482 0.104769 -0.190000
v 0.096362 0.109192 -0.190000
v 0.098868 0.112942 -0.190000
v 0.102618 0.115448 -0.190000
v -0.107041 0.116328 0.170000
v -0.111464 0.115448 0.170000
v -0.115214 0.112942 0.170000
v -0.117720 0.109192 0.170000
v -0.118600 0.104769 0.170000
v -0.117720 0.100346 0.170000
v -0.115214 0.096596 0.170000
v -0.111464 0.094090 0.170000
v -0.107041 0.093210 0.170000
v -0.102618 0.094090 0.170000
v -0.098868 0.096596 0.170000
v -0.096362 0.100346 0.170000
v -0.095482 0.104769 0.170000
v -0.096362 0.109192 0.170000
v -0.098868 0.112942 0.170000
v -0.102618 0.115448 0.170000
v -0.107041 0.116328 -0.170000
v -0.111464 0.115448 -0.170000
v -0.115214 0.112942 -0.170000
v -0.117720 0.109192 -0.170000
v -0.118600 0.104769 -0.170000
v -0.117720 0.100346 -0.170000
v -0.115214 0.096596 -0.170000
v -0.111464 0.094090 -0.170000
v -0.107041 0.093210 -0.170000
v -0.102618 0.094090 -0.170000
v -0.098868 0.096596 -0.170000
v -0.096362 0.100346 -0.170000
v -0.095482 0.104769 -0.170000
v -0.096362 0.109192 -0.170000
v -0.098868 0.112942 -0.170000
v -0.102618 0.115448 -0.170000
v -0.199730 0.025993 0.190000
v -0.199732 0.019081 0.190000
v -0.196905 0.012044 0.190000
v -0.191680 0.005954 0.190000
v -0.184852 0.001738 0.190000
v -0.177462 0.000037 0.190000
v -0.170634 0.001112 0.190000
v -0.181154 0.018263 0.190000
v -0.185182 0.013552 0.190000
v -0.188597 0.009559 0.190000
v -0.199730 0.025993 0.170000
v -0.196901 0.031729 0.170000
v -0.199732 0.019081 0.170000
v -0.196905 0.012044 0.170000
v -0.191680 0.005954 0.170000
v -0.184852 0.001738 0.170000
v -0.177462 0.000037 0.170000
v -0.170634 0.001112 0.170000
v -0.165407 0.004797 0.170000
v -0.181154 0.018263 0.170000
v -0.185182 0.013552 0.170000
v -0.188597 0.009559 0.170000
v -0.165407 0.004797 0.190000
v 0.196571 0.428101 0.170000
v -0.196903 0.031731 0.190000
v 0.165074 0.455035 0.170000
v 0.196569 0.428103 0.190000
v 0.199398 0.433839 0.190000
v 0.199399 0.440751 0.190000
v 0.196572 0.447788 0.190000
v 0.191347 0.453878 0.190000
v 0.184520 0.458094 0.190000
v 0.177129 0.459795 0.190000
v 0.170301 0.458720 0.190000
v 0.165074 0.455035 0.190000
v 0.184849 0.446280 0.190000
v 0.188264 0.450273 0.190000
v 0.199398 0.433839 0.170000
v 0.199399 0.440751 0.170000
v 0.196572 0.447788 0.170000
v 0.191347 0.453878 0.170000
v 0.184520 0.458094 0.170000
v 0.177129 0.459795 0.170000
v 0.170301 0.458720 0.170000
v 0.184849 0.446280 0.170000
v 0.188264 0.450273 0.170000
v 0.180823 0.441568 0.170000
v 0.180823 0.441568 0.190000
v -0.199730 0.025993 -0.190000
v -0.199732 0.019081 -0.190000
v -0.196905 0.012044 -0.190000
v -0.191680 0.005954 -0.190000
v -0.184852 0.001738 -0.190000
v -0.177462 0.000037 -0.190000
v -0.170634 0.001112 -0.190000
v -0.181154 0.018263 -0.190000
v -0.185182 0.013552 -0.190000
v -0.188597 0.009559 -0.190000
v -0.199730 0.025993 -0.170000
v -0.196901 0.031729 -0.170000
v -0.199732 0.019081 -0.170000
v -0.196905 0.012044 -0.170000
v -0.191680 0.005954 -0.170000
v -0.184852 0.001738 -0.170000
v -0.177462 0.000037 -0.170000
v -0.170634 0.001112 -0.170000
v -0.165407 0.004797 -0.170000
v -0.181154 0.018263 -0.170000
v -0.185182 0.013552 -0.170000
v -0.188597 0.009559 -0.170000
v -0.165407 0.004797 -0.190000
v 0.196571 0.428101 -0.170000
v -0.196903 0.031731 -0.190000
v 0.165074 0.455035 -0.170000
v 0.196569 0.428103 -0.190000
v 0.199398 0.433839 -0.190000
v 0.199399 0.440751 -0.190000
v 0.196572 0.447788 -0.190000
v 0.191347 0.453878 -0.190000
v 0.184520 0.458094 -0.190000
v 0.177129 0.459795 -0.190000
v 0.170301 0.458720 -0.190000
v 0.165074 0.455035 -0.190000
v 0.184849 0.446280 -0.190000
v 0.188264 0.450273 -0.190000
v 0.199398 0.433839 -0.170000
v 0.199399 0.440751 -0.170000
v 0.196572 0.447788 -0.170000
v 0.191347 0.453878 -0.170000
v 0.184520 0.458094 -0.170000
v 0.177129 0.459795 -0.170000
v 0.170301 0.458720 -0.170000
v 0.184849 0.446280 -0.170000
v 0.188264 0.450273 -0.170000
v 0.180823 0.441568 -0.170000
v 0.180823 0.441568 -0.190000
v -0.179389 0.454815 -0.169325
v -0.179389 0.454815 0.169325
v 0.000000 0.446509 -0.169325
v 0.000000 0.446509 0.169325
v -0.169621 0.428705 -0.169325
v -0.173598 0.426007 -0.169325
v -0.179331 0.424867 -0.169325
v -0.169621 0.428705 0.169325
v -0.185063 0.426007 -0.169325
v -0.173598 0.426007 0.169325
v -0.189923 0.429254 -0.169325
v -0.179331 0.424867 0.169325
v -0.193170 0.434114 -0.169325
v -0.185063 0.426007 0.169325
v -0.194310 0.439847 -0.169325
v -0.189923 0.429254 0.169325
v -0.193170 0.445579 -0.169325
v -0.193170 0.434114 0.169325
v -0.189923 0.450439 -0.169325
v -0.194310 0.439847 0.169325
v -0.185063 0.453686 -0.169325
v -0.193170 0.445579 0.169325
v -0.044811 0.446774 -0.169325
v -0.189923 0.450439 0.169325
v -0.089616 0.448423 -0.169325
v -0.185063 0.453686 0.169325
v -0.134427 0.451216 -0.169325
v -0.044811 0.446774 0.169325
v -0.089616 0.448423 0.169325
v -0.134427 0.451216 0.169325
v -0.161407 0.434924 -0.169325
v -0.161407 0.434924 0.169325
v -0.179331 0.453807 -0.169325
v -0.179331 0.453807 0.169325
v 0.000000 0.445509 -0.169325
v 0.000000 0.445509 0.169325
v -0.170284 0.429465 -0.169325
v -0.173988 0.426949 -0.169325
v -0.179331 0.425887 -0.169325
v -0.170284 0.429465 0.169325
v -0.184673 0.426949 -0.169325
v -0.173988 0.426949 0.169325
v -0.189202 0.429975 -0.169325
v -0.179331 0.425887 0.169325
v -0.192228 0.434504 -0.169325
v -0.184673 0.426949 0.169325
v -0.193291 0.439847 -0.169325
v -0.189202 0.429975 0.169325
v -0.192228 0.445189 -0.169325
v -0.192228 0.434504 0.169325
v -0.189202 0.449718 -0.169325
v -0.193291 0.439847 0.169325
v -0.184673 0.452744 -0.169325
v -0.192228 0.445189 0.169325
v -0.044833 0.445774 -0.169325
v -0.189202 0.449718 0.169325
v -0.089665 0.447424 -0.169325
v -0.184673 0.452744 0.169325
v -0.134498 0.450218 -0.169325
v -0.044833 0.445774 0.169325
v -0.089665 0.447424 0.169325
v -0.134498 0.450218 0.169325
v -0.163233 0.436806 -0.169325
v -0.163233 0.436806 0.169325
v -0.165773 0.431961 0.169325
v -0.165773 0.431961 -0.169325
v -0.166457 0.432687 0.169325
v -0.166457 0.432687 -0.169325
v -0.162512 0.432578 -0.169325
v -0.165368 0.435627 -0.169325
v -0.162512 0.432578 0.169325
v -0.165368 0.435627 0.169325
v -0.161767 0.436128 -0.169325
v -0.161767 0.436128 0.169325
v -0.161043 0.436860 -0.169325
v -0.163260 0.437566 -0.169325
v -0.162108 0.431891 -0.169325
v -0.166303 0.431017 -0.169325
v -0.165900 0.436120 -0.169325
v -0.161043 0.436860 0.169325
v -0.163260 0.437566 0.169325
v -0.162108 0.431891 0.169325
v -0.166303 0.431017 0.169325
v -0.165900 0.436120 0.169325
v -0.167368 0.432406 0.169325
v -0.167368 0.432406 -0.169325
v -0.160608 0.434687 -0.169325
v -0.160608 0.434687 0.169325
v 0.179389 0.454815 -0.169325
v 0.179389 0.454815 0.169325
v 0.169621 0.428705 -0.169325
v 0.173598 0.426007 -0.169325
v 0.179331 0.424867 -0.169325
v 0.169621 0.428705 0.169325
v 0.185063 0.426007 -0.169325
v 0.173598 0.426007 0.169325
v 0.189923 0.429254 -0.169325
v 0.179331 0.424867 0.169325
v 0.193170 0.434114 -0.169325
v 0.185063 0.426007 0.169325
v 0.194310 0.439847 -0.169325
v 0.189923 0.429254 0.169325
v 0.193170 0.445579 -0.169325
v 0.193170 0.434114 0.169325
v 0.189923 0.450439 -0.169325
v 0.194310 0.439847 0.169325
v 0.185063 0.453686 -0.169325
v 0.193170 0.445579 0.169325
v 0.044811 0.446774 -0.169325
v 0.189923 0.450439 0.169325
v 0.089616 0.448423 -0.169325
v 0.185063 0.453686 0.169325
v 0.134427 0.451216 -0.169325
v 0.044811 0.446774 0.169325
v 0.089616 0.448423 0.169325
v 0.134427 0.451216 0.169325
v 0.161171 0.435003 -0.169325
v 0.161171 0.435003 0.169325
v 0.179331 0.453807 -0.169325
v 0.179331 0.453807 0.169325
v 0.170284 0.429465 -0.169325
v 0.173988 0.426949 -0.169325
v 0.179331 0.425887 -0.169325
v 0.170284 0.429465 0.169325
v 0.184673 0.426949 -0.169325
v 0.173988 0.426949 0.169325
v 0.189202 0.429975 -0.169325
v 0.179331 0.425887 0.169325
v 0.192228 0.434504 -0.169325
v 0.184673 0.426949 0.169325
v 0.193291 0.439847 -0.169325
v 0.189202 0.429975 0.169325
v 0.192228 0.445189 -0.169325
v 0.192228 0.434504 0.169325
v 0.189202 0.449718 -0.169325
v 0.193291 0.439847 0.169325
v 0.184673 0.452744 -0.169325
v 0.192228 0.445189 0.169325
v 0.044833 0.445774 -0.169325
v 0.189202 0.449718 0.169325
v 0.089665 0.447424 -0.169325
v 0.184673 0.452744 0.169325
v 0.134498 0.450218 -0.169325
v 0.044833 0.445774 0.169325
v 0.089665 0.447424 0.169325
v 0.134498 0.450218 0.169325
v 0.162997 0.436885 -0.169325
v 0.162997 0.436885 0.169325
v 0.165773 0.431961 0.169325
v 0.165773 0.431961 -0.169325
v 0.166457 0.432687 0.169325
v 0.166457 0.432687 -0.169325
v 0.162512 0.432578 -0.169325
v 0.165368 0.435627 -0.169325
v 0.162512 0.432578 0.169325
v 0.165368 0.435627 0.169325
v 0.161571 0.436206 -0.169325
v 0.161571 0.436206 0.169325
v 0.160847 0.436939 -0.169325
v 0.163024 0.437645 -0.169325
v 0.162108 0.431891 -0.169325
v 0.166303 0.431017 -0.169325
v 0.165900 0.436120 -0.169325
v 0.160847 0.436939 0.169325
v 0.163024 0.437645 0.169325
v 0.162108 0.431891 0.169325
v 0.166303 0.431017 0.169325
v 0.165900 0.436120 0.169325
v 0.167368 0.432406 0.169325
v 0.167368 0.432406 -0.169325
v 0.160372 0.434766 -0.169325
v 0.160372 0.434766 0.169325
vn 0.9971 0.0765 -0.0000
vn 0.9504 -0.3109 -0.0000
vn 0.8919 0.4522 -0.0000
vn 0.7591 -0.6510 -0.0000
vn 0.4522 -0.8919 -0.0000
vn 0.0765 -0.9971 -0.0000
vn -0.3109 -0.9504 -0.0000
vn 0.6510 -0.7591 -0.0000
vn 0.8919 -0.4522 -0.0000
vn 0.3109 -0.9504 -0.0000
vn 0.9971 -0.0765 -0.0000
vn 0.9504 0.3109 -0.0000
vn 0.7591 0.6510 -0.0000
vn 0.4522 0.8919 -0.0000
vn 0.0765 0.9971 -0.0000
vn -0.7071 0.7071 -0.0000
vn -0.9239 0.3827 -0.0000
vn -0.3109 0.9504 -0.0000
vn -0.3827 0.9239 -0.0000
vn -0.6510 -0.7591 -0.0000
vn -0.9971 -0.0765 -0.0000
vn -0.9504 0.3109 -0.0000
vn -0.8919 -0.4522 -0.0000
vn -0.7591 0.6510 -0.0000
vn -0.4522 0.8919 -0.0000
vn -0.0765 0.9971 -0.0000
vn 0.3109 0.9504 -0.0000
vn -0.6510 0.7591 -0.0000
vn -0.8919 0.4522 -0.0000
vn -0.9971 0.0765 -0.0000
vn -0.9504 -0.3109 -0.0000
vn -0.7591 -0.6510 -0.0000
vn -0.4522 -0.8919 -0.0000
vn -0.0765 -0.9971 -0.0000
vn 0.9239 0.3827 -0.0000
vn 1.0000 -0.0000 -0.0000
vn 0.7071 0.7071 -0.0000
vn 0.3827 0.9239 -0.0000
vn 0.7071 -0.7071 -0.0000
vn 0.3827 -0.9239 -0.0000
vn 0.9239 -0.3827 -0.0000
vn -0.7071 -0.7071 -0.0000
vn -0.9239 -0.3827 -0.0000
vn -0.3827 -0.9239 -0.0000
vn -0.0000 -1.0000 -0.0000
vn -1.0000 -0.0000 -0.0000
vn -0.0000 1.0000 -0.0000
vn 0.6510 0.7591 -0.0000
vn -0.0000 -0.0000 1.0000
vn -0.0000 -0.0000 -1.0000
vn 0.8548 -0.5189 -0.0000
vn 0.9818 -0.1898 -0.0000
vn -0.3757 -0.9268 -0.0000
vn 0.0350 -0.9994 -0.0000
vn 0.6499 -0.7600 -0.0000
vn 0.9739 0.2271 -0.0000
vn 0.8350 0.5503 -0.0001
vn 0.8349 0.5503 -0.0001
vn -0.6734 -0.7393 -0.0000
vn 0.3799 -0.9250 -0.0000
vn -0.8350 -0.5503 0.0001
vn -0.8349 -0.5503 0.0001
vn 0.6734 0.7393 -0.0000
vn -0.8548 0.5189 -0.0000
vn -0.9818 0.1898 -0.0000
vn 0.3757 0.9268 -0.0000
vn -0.0350 0.9994 -0.0000
vn -0.6499 0.7600 -0.0000
vn -0.9739 -0.2271 -0.0000
vn -0.3799 0.9250 -0.0000
vn 0.8349 0.5503 0.0001
vn 0.8350 0.5503 0.0001
vn -0.8349 -0.5503 -0.0001
vn -0.8350 -0.5503 -0.0001
vn 0.9958 0.0920 -0.0000
vn 0.7493 -0.6622 -0.0000
vn -0.8548 -0.5189 -0.0000
vn -0.9818 -0.1898 -0.0000
vn 0.3757 -0.9268 -0.0000
vn -0.0350 -0.9994 -0.0000
vn -0.6499 -0.7600 -0.0000
vn -0.9739 0.2271 -0.0000
vn -0.8349 0.5503 -0.0001
vn -0.8350 0.5503 -0.0001
vn 0.6734 -0.7393 -0.0000
vn -0.3799 -0.9250 -0.0000
vn 0.8350 -0.5503 0.0001
vn -0.6734 0.7393 -0.0000
vn 0.8548 0.5189 -0.0000
vn 0.9818 0.1898 -0.0000
vn -0.3757 0.9268 -0.0000
vn 0.0350 0.9994 -0.0000
vn 0.6499 0.7600 -0.0000
vn 0.9739 -0.2271 -0.0000
vn 0.3799 0.9250 -0.0000
vn -0.8350 0.5503 0.0001
vn -0.8349 0.5503 0.0001
vn 0.8350 -0.5503 -0.0001
vn -0.0213 0.9998 -0.0000
vn -0.0582 0.9983 -0.0000
vn 0.5665 -0.8240 -0.0000
vn 0.3958 -0.9183 -0.0000
vn 0.3859 -0.9225 -0.0000
vn 0.0495 0.9988 -0.0000
vn 0.0710 0.9975 -0.0000
vn 0.0213 -0.9998 -0.0000
vn 0.0582 -0.9983 -0.0000
vn -0.6389 0.7693 -0.0000
vn -0.8371 0.5470 -0.0000
vn -0.3862 0.9224 -0.0000
vn 0.5988 -0.8009 -0.0000
vn 0.9892 -0.1468 -0.0000
vn -0.0710 -0.9975 -0.0000
vn -0.0495 -0.9988 -0.0000
vn 0.0582 0.9983 -0.0000
vn -0.3859 -0.9225 -0.0000
vn -0.0582 -0.9983 -0.0000
vn -0.5665 -0.8240 -0.0000
vn -0.3958 -0.9183 -0.0000
vn -0.0495 0.9988 -0.0000
vn -0.0710 0.9975 -0.0000
vn 0.6389 0.7693 -0.0000
vn 0.8371 0.5470 -0.0000
vn 0.3862 0.9224 -0.0000
vn -0.5782 -0.8159 -0.0000
vn -0.9866 -0.1633 -0.0000
vn 0.0495 -0.9988 -0.0000
vn 0.0710 -0.9975 -0.0000
vn 0.0354 -0.9994 -0.0000
vn 0.7580 -0.6523 -0.0000
vn 0.7453 0.6667 -0.0000
vn 0.0869 0.9962 -0.0000
vn -0.0218 -0.9998 -0.0000
vn -0.7525 -0.6586 -0.0000
vn 0.5862 0.8101 -0.0000
vn -0.9801 0.1987 -0.0000
vn -0.3092 0.9510 -0.0000
vn -0.7498 0.6616 -0.0000
vn -0.0963 0.9954 -0.0000
vn 0.7451 0.6669 -0.0000
vn 0.0213 0.9998 -0.0000
vn -0.7411 0.6714 -0.0000
vn -0.0213 -0.9998 -0.0000
vn 0.9801 0.1987 -0.0000
vn -0.9972 0.0745 -0.0000
vn -0.7557 -0.6549 -0.0000
vn -0.6122 0.7907 -0.0000
vn 0.3092 0.9510 -0.0000
vt 0.006463 0.559573
vt 0.006463 0.555106
vt 0.331174 0.555106
vt 0.331174 0.559573
vt 0.006463 0.564041
vt 0.331174 0.564041
vt 0.006463 0.550638
vt 0.006463 0.546171
vt 0.331174 0.546171
vt 0.331174 0.550639
vt 0.006463 0.541703
vt 0.006463 0.537236
vt 0.331174 0.537237
vt 0.331174 0.541704
vt 0.949433 0.368993
vt 0.949434 0.006081
vt 0.953901 0.006081
vt 0.953901 0.368993
vt 0.944966 0.368993
vt 0.944966 0.006081
vt 0.958368 0.368993
vt 0.958369 0.006081
vt 0.962836 0.006081
vt 0.962836 0.368993
vt 0.895824 0.368993
vt 0.895824 0.006081
vt 0.900292 0.006081
vt 0.900291 0.368993
vt 0.967303 0.006081
vt 0.967303 0.368993
vt 0.904759 0.006081
vt 0.904759 0.368993
vt 0.006464 0.367213
vt 0.369388 0.367214
vt 0.369388 0.372416
vt 0.006464 0.372415
vt 0.909226 0.006081
vt 0.909226 0.368993
vt 0.006464 0.362011
vt 0.369388 0.362012
vt 0.006463 0.532769
vt 0.331174 0.532769
vt 0.006463 0.523834
vt 0.006463 0.519366
vt 0.331174 0.519367
vt 0.331174 0.523834
vt 0.006463 0.528301
vt 0.331174 0.528302
vt 0.006463 0.586378
vt 0.006463 0.581911
vt 0.331174 0.581911
vt 0.331174 0.586378
vt 0.006463 0.514899
vt 0.331174 0.514899
vt 0.006463 0.577443
vt 0.331174 0.577443
vt 0.006463 0.572976
vt 0.331174 0.572976
vt 0.913693 0.368993
vt 0.913694 0.006081
vt 0.918162 0.006081
vt 0.918161 0.368993
vt 0.922629 0.368993
vt 0.922629 0.006081
vt 0.927096 0.006081
vt 0.927096 0.368993
vt 0.931563 0.368993
vt 0.931564 0.006081
vt 0.936031 0.006081
vt 0.936031 0.368993
vt 0.940499 0.006081
vt 0.940498 0.368993
vt 0.379365 0.393222
vt 0.379365 0.388020
vt 0.704089 0.388020
vt 0.704089 0.393222
vt 0.379365 0.398424
vt 0.704089 0.398424
vt 0.379365 0.403626
vt 0.704089 0.403626
vt 0.379365 0.377615
vt 0.379365 0.372413
vt 0.704089 0.372413
vt 0.704089 0.377615
vt 0.379365 0.382818
vt 0.704089 0.382818
vt 0.379365 0.356807
vt 0.379365 0.351604
vt 0.704089 0.351604
vt 0.704089 0.356806
vt 0.379365 0.362009
vt 0.704089 0.362009
vt 0.379365 0.367211
vt 0.704089 0.367211
vt 0.379365 0.346402
vt 0.379365 0.341200
vt 0.704090 0.341199
vt 0.704089 0.346402
vt 0.379365 0.408830
vt 0.704089 0.408829
vt 0.379365 0.414032
vt 0.704089 0.414031
vt 0.379365 0.419234
vt 0.704089 0.419233
vt 0.379365 0.424436
vt 0.704089 0.424436
vt 0.369374 0.473966
vt 0.006461 0.473965
vt 0.006461 0.469658
vt 0.369374 0.469659
vt 0.006464 0.377618
vt 0.369388 0.377618
vt 0.369388 0.382821
vt 0.006464 0.382820
vt 0.006464 0.388022
vt 0.369388 0.388023
vt 0.369388 0.393225
vt 0.006464 0.393224
vt 0.006464 0.398427
vt 0.369388 0.398427
vt 0.369388 0.403629
vt 0.006464 0.403628
vt 0.006464 0.408831
vt 0.369388 0.408831
vt 0.369388 0.414033
vt 0.006464 0.414033
vt 0.006464 0.419235
vt 0.369388 0.419236
vt 0.369388 0.424438
vt 0.006464 0.424438
vt 0.006464 0.346405
vt 0.369388 0.346405
vt 0.369388 0.351607
vt 0.006464 0.351606
vt 0.006464 0.341202
vt 0.369388 0.341203
vt 0.006464 0.356809
vt 0.369388 0.356809
vt 0.006463 0.568508
vt 0.331174 0.568508
vt 0.783403 0.345796
vt 0.769410 0.345796
vt 0.775831 0.342442
vt 0.783403 0.341265
vt 0.783403 0.356734
vt 0.763614 0.356733
vt 0.765120 0.350814
vt 0.783403 0.350814
vt 0.801687 0.350814
vt 0.797397 0.345796
vt 0.803196 0.356734
vt 0.790977 0.342442
vt 0.564837 0.769680
vt 0.569368 0.769680
vt 0.568190 0.777251
vt 0.564837 0.783671
vt 0.553900 0.769680
vt 0.559820 0.769680
vt 0.559820 0.787961
vt 0.553900 0.789467
vt 0.559820 0.751398
vt 0.564838 0.755688
vt 0.553901 0.749892
vt 0.568190 0.762107
vt 0.585915 0.862281
vt 0.585915 0.881380
vt 0.578672 0.881380
vt 0.578672 0.862281
vt 0.572116 0.912031
vt 0.572116 0.892931
vt 0.578718 0.892931
vt 0.578718 0.912031
vt 0.593578 0.862281
vt 0.593577 0.881381
vt 0.572072 0.862280
vt 0.572071 0.881380
vt 0.565963 0.881380
vt 0.565963 0.862280
vt 0.566009 0.912031
vt 0.566009 0.892931
vt 0.585961 0.912031
vt 0.585961 0.892931
vt 0.593625 0.892931
vt 0.593624 0.912032
vt 0.034078 0.912032
vt 0.034078 0.892932
vt 0.021990 0.769682
vt 0.021990 0.749893
vt 0.034071 0.881382
vt 0.034071 0.862283
vt 0.783404 0.888714
vt 0.763616 0.888714
vt 0.783406 0.899653
vt 0.797400 0.899652
vt 0.790979 0.903006
vt 0.783406 0.904183
vt 0.803196 0.888714
vt 0.801690 0.894634
vt 0.783407 0.894634
vt 0.765123 0.894634
vt 0.769413 0.899653
vt 0.775833 0.903005
vt 0.011053 0.769681
vt 0.006523 0.769681
vt 0.007700 0.762108
vt 0.011053 0.755689
vt 0.016071 0.769681
vt 0.016071 0.751400
vt 0.016071 0.787962
vt 0.011053 0.783672
vt 0.021990 0.789471
vt 0.007700 0.777253
vt 0.014126 0.912033
vt 0.014125 0.892932
vt 0.021368 0.892932
vt 0.021368 0.912033
vt 0.027964 0.862283
vt 0.027964 0.881382
vt 0.021363 0.881382
vt 0.021363 0.862283
vt 0.006462 0.912033
vt 0.006462 0.892932
vt 0.027970 0.912032
vt 0.027969 0.892932
vt 0.014121 0.862283
vt 0.014121 0.881382
vt 0.006458 0.881382
vt 0.006458 0.862283
vt 0.564908 0.718591
vt 0.569438 0.718591
vt 0.568261 0.726165
vt 0.564908 0.732585
vt 0.553969 0.718591
vt 0.559889 0.718591
vt 0.559889 0.736875
vt 0.553969 0.738381
vt 0.559889 0.700308
vt 0.564908 0.704598
vt 0.553969 0.698799
vt 0.568261 0.711018
vt 0.832961 0.899638
vt 0.846955 0.899638
vt 0.840535 0.902992
vt 0.832961 0.904169
vt 0.832961 0.888701
vt 0.852751 0.888701
vt 0.851245 0.894620
vt 0.832961 0.894620
vt 0.814678 0.894620
vt 0.818968 0.899638
vt 0.813172 0.888701
vt 0.825389 0.902992
vt 0.895126 0.960801
vt 0.895126 0.953558
vt 0.914228 0.953557
vt 0.914228 0.960801
vt 0.572083 0.923580
vt 0.578684 0.923581
vt 0.578684 0.942680
vt 0.572083 0.942680
vt 0.895127 0.968464
vt 0.914228 0.968464
vt 0.895126 0.946957
vt 0.895126 0.940848
vt 0.914228 0.940848
vt 0.914228 0.946957
vt 0.565975 0.923580
vt 0.565975 0.942680
vt 0.585927 0.923581
vt 0.593589 0.923581
vt 0.593589 0.942680
vt 0.585927 0.942680
vt 0.034080 0.942681
vt 0.034080 0.923581
vt 0.813168 0.356736
vt 0.832959 0.356736
vt 0.895142 0.408906
vt 0.914243 0.408907
vt 0.021988 0.738378
vt 0.021988 0.718590
vt 0.011050 0.718588
vt 0.006519 0.718588
vt 0.007697 0.711015
vt 0.011050 0.704594
vt 0.016068 0.718588
vt 0.016068 0.700305
vt 0.021988 0.698798
vt 0.016068 0.736872
vt 0.011050 0.732582
vt 0.007697 0.726162
vt 0.832957 0.345798
vt 0.818964 0.345798
vt 0.825384 0.342445
vt 0.832957 0.341267
vt 0.814675 0.350816
vt 0.832957 0.350816
vt 0.851240 0.350817
vt 0.846951 0.345798
vt 0.852750 0.356736
vt 0.840530 0.342445
vt 0.014129 0.923581
vt 0.021371 0.923581
vt 0.021370 0.942680
vt 0.014129 0.942680
vt 0.895143 0.402798
vt 0.895143 0.396197
vt 0.914244 0.396197
vt 0.914244 0.402799
vt 0.006466 0.923581
vt 0.006465 0.942680
vt 0.027973 0.923581
vt 0.027972 0.942681
vt 0.895143 0.388954
vt 0.895143 0.381290
vt 0.914244 0.381291
vt 0.914244 0.388954
vt 0.369374 0.478273
vt 0.006461 0.478272
vt 0.369374 0.482580
vt 0.006461 0.482580
vt 0.369374 0.486888
vt 0.006461 0.486887
vt 0.369374 0.491194
vt 0.006461 0.491194
vt 0.369374 0.495502
vt 0.006461 0.495502
vt 0.369374 0.499808
vt 0.006461 0.499808
vt 0.369374 0.504116
vt 0.006461 0.504116
vt 0.369374 0.439509
vt 0.006461 0.439508
vt 0.006461 0.435201
vt 0.369374 0.435202
vt 0.369374 0.443816
vt 0.006461 0.443816
vt 0.369374 0.448123
vt 0.006461 0.448123
vt 0.369374 0.452431
vt 0.006461 0.452430
vt 0.369374 0.456738
vt 0.006461 0.456737
vt 0.369374 0.461045
vt 0.006461 0.461044
vt 0.369374 0.465352
vt 0.006461 0.465351
vt 0.704079 0.469656
vt 0.379346 0.469656
vt 0.379346 0.465348
vt 0.704079 0.465348
vt 0.379346 0.461041
vt 0.704079 0.461041
vt 0.379346 0.456734
vt 0.704079 0.456733
vt 0.379346 0.452427
vt 0.704079 0.452426
vt 0.379346 0.448119
vt 0.704079 0.448118
vt 0.379346 0.443812
vt 0.704079 0.443812
vt 0.379346 0.439504
vt 0.704079 0.439504
vt 0.379346 0.435197
vt 0.704079 0.435197
vt 0.704078 0.504115
vt 0.379346 0.504115
vt 0.379346 0.499808
vt 0.704078 0.499807
vt 0.379346 0.495500
vt 0.704078 0.495500
vt 0.379346 0.491193
vt 0.704078 0.491193
vt 0.379346 0.486886
vt 0.704078 0.486885
vt 0.379346 0.482578
vt 0.704078 0.482577
vt 0.379346 0.478270
vt 0.704078 0.478270
vt 0.379346 0.473963
vt 0.704079 0.473963
vt 0.604588 0.990778
vt 0.007085 0.990779
vt 0.007084 0.991774
vt 0.604434 0.992510
vt 0.564845 0.667507
vt 0.569375 0.667507
vt 0.568197 0.675079
vt 0.564845 0.681499
vt 0.553908 0.667507
vt 0.559827 0.667507
vt 0.559827 0.685789
vt 0.553908 0.687295
vt 0.559827 0.649226
vt 0.564845 0.653515
vt 0.553908 0.647716
vt 0.568197 0.659935
vt 0.733851 0.899653
vt 0.747845 0.899654
vt 0.741424 0.903007
vt 0.733851 0.904185
vt 0.733851 0.888715
vt 0.753642 0.888716
vt 0.752135 0.894636
vt 0.733851 0.894636
vt 0.715568 0.894636
vt 0.719858 0.899653
vt 0.714062 0.888715
vt 0.726279 0.903007
vt 0.585960 0.850747
vt 0.578718 0.850747
vt 0.578717 0.831647
vt 0.585960 0.831647
vt 0.572078 0.964167
vt 0.578679 0.964167
vt 0.578679 0.983267
vt 0.572078 0.983267
vt 0.593624 0.850747
vt 0.593624 0.831647
vt 0.572116 0.850747
vt 0.566007 0.850747
vt 0.566008 0.831647
vt 0.572116 0.831647
vt 0.565970 0.964167
vt 0.565970 0.983267
vt 0.585921 0.964167
vt 0.593585 0.964167
vt 0.593585 0.983267
vt 0.585921 0.983267
vt 0.034075 0.983270
vt 0.034075 0.964170
vt 0.714061 0.356738
vt 0.733852 0.356739
vt 0.034078 0.850731
vt 0.034079 0.831631
vt 0.021987 0.687293
vt 0.021987 0.667507
vt 0.011050 0.667506
vt 0.006519 0.667506
vt 0.007697 0.659934
vt 0.011050 0.653514
vt 0.016068 0.667506
vt 0.016068 0.649224
vt 0.021987 0.647718
vt 0.016068 0.685787
vt 0.011050 0.681498
vt 0.007697 0.675078
vt 0.733850 0.345801
vt 0.719857 0.345801
vt 0.726277 0.342447
vt 0.733850 0.341270
vt 0.715567 0.350819
vt 0.733850 0.350819
vt 0.752134 0.350819
vt 0.747844 0.345801
vt 0.753644 0.356739
vt 0.741424 0.342447
vt 0.014125 0.964169
vt 0.021366 0.964169
vt 0.021366 0.983269
vt 0.014124 0.983269
vt 0.027970 0.850731
vt 0.021368 0.850731
vt 0.021369 0.831630
vt 0.027971 0.831630
vt 0.006461 0.964169
vt 0.006461 0.983268
vt 0.027968 0.964170
vt 0.027967 0.983270
vt 0.014126 0.850730
vt 0.006463 0.850730
vt 0.006463 0.831629
vt 0.014127 0.831630
vt 0.564903 0.616420
vt 0.564903 0.602426
vt 0.568255 0.608847
vt 0.569433 0.616420
vt 0.553964 0.616420
vt 0.553964 0.596630
vt 0.559884 0.598137
vt 0.559884 0.616420
vt 0.559884 0.634703
vt 0.564903 0.630413
vt 0.553964 0.636212
vt 0.568255 0.623993
vt 0.944798 0.939076
vt 0.944798 0.943607
vt 0.937226 0.942429
vt 0.930806 0.939076
vt 0.944798 0.928140
vt 0.944798 0.934059
vt 0.926517 0.934059
vt 0.925011 0.928140
vt 0.963079 0.934059
vt 0.958790 0.939076
vt 0.964585 0.928140
vt 0.952370 0.942429
vt 0.881823 0.920662
vt 0.862723 0.920661
vt 0.862723 0.913418
vt 0.881823 0.913419
vt 0.572158 0.820076
vt 0.572158 0.800974
vt 0.578759 0.800974
vt 0.578759 0.820076
vt 0.881822 0.928324
vt 0.862722 0.928324
vt 0.881823 0.906818
vt 0.862723 0.906817
vt 0.862724 0.900710
vt 0.881823 0.900710
vt 0.566049 0.820076
vt 0.566049 0.800974
vt 0.586002 0.820076
vt 0.586002 0.800974
vt 0.593667 0.800974
vt 0.593667 0.820076
vt 0.034080 0.820076
vt 0.034080 0.800974
vt 0.944799 0.396232
vt 0.964587 0.396232
vt 0.862721 0.368814
vt 0.881821 0.368814
vt 0.021992 0.616421
vt 0.021992 0.596633
vt 0.011054 0.616422
vt 0.011054 0.630415
vt 0.007701 0.623995
vt 0.006523 0.616422
vt 0.021992 0.636211
vt 0.016072 0.634706
vt 0.016072 0.616422
vt 0.016072 0.598139
vt 0.011054 0.602429
vt 0.007701 0.608849
vt 0.944800 0.385296
vt 0.944800 0.380765
vt 0.952372 0.381943
vt 0.958792 0.385296
vt 0.944800 0.390314
vt 0.963081 0.390314
vt 0.926519 0.390314
vt 0.930808 0.385296
vt 0.925010 0.396233
vt 0.937228 0.381943
vt 0.014127 0.820077
vt 0.014126 0.800975
vt 0.021369 0.800975
vt 0.021370 0.820077
vt 0.881821 0.362707
vt 0.862721 0.362707
vt 0.862721 0.356106
vt 0.881821 0.356106
vt 0.006463 0.820077
vt 0.006462 0.800975
vt 0.027972 0.820076
vt 0.027971 0.800975
vt 0.881821 0.348864
vt 0.862721 0.348864
vt 0.862721 0.341201
vt 0.881821 0.341201
vt 0.222635 0.329509
vt 0.179837 0.329509
vt 0.179837 0.006083
vt 0.222635 0.006083
vt 0.394211 0.329509
vt 0.394211 0.006083
vt 0.399735 0.006083
vt 0.399735 0.329509
vt 0.695769 0.582419
vt 0.695769 0.905890
vt 0.691906 0.905890
vt 0.691907 0.582419
vt 0.700359 0.582419
vt 0.700359 0.905890
vt 0.438810 0.329509
vt 0.438810 0.006083
vt 0.444392 0.006083
vt 0.444392 0.329509
vt 0.433228 0.329509
vt 0.433228 0.006083
vt 0.427646 0.329509
vt 0.427646 0.006083
vt 0.422064 0.329509
vt 0.422064 0.006083
vt 0.416482 0.329509
vt 0.416482 0.006083
vt 0.410900 0.329509
vt 0.410900 0.006083
vt 0.405318 0.329509
vt 0.405318 0.006083
vt 0.308252 0.329509
vt 0.308252 0.006083
vt 0.351132 0.006083
vt 0.351132 0.329509
vt 0.692076 0.537199
vt 0.693040 0.537204
vt 0.693309 0.541156
vt 0.691640 0.541043
vt 0.715529 0.329513
vt 0.672710 0.329514
vt 0.672710 0.006084
vt 0.715529 0.006084
vt 0.495987 0.329513
vt 0.495988 0.006084
vt 0.501190 0.006084
vt 0.501190 0.329513
vt 0.669797 0.582419
vt 0.673752 0.582419
vt 0.673753 0.905890
vt 0.669797 0.905890
vt 0.665519 0.905890
vt 0.665519 0.582419
vt 0.454370 0.329513
vt 0.454370 0.006084
vt 0.459573 0.006084
vt 0.459572 0.329513
vt 0.464775 0.006084
vt 0.464775 0.329513
vt 0.469977 0.006084
vt 0.469977 0.329513
vt 0.475179 0.006084
vt 0.475179 0.329513
vt 0.480381 0.006084
vt 0.480381 0.329513
vt 0.485583 0.006084
vt 0.485583 0.329513
vt 0.490785 0.006084
vt 0.490785 0.329513
vt 0.687813 0.582419
vt 0.687813 0.905890
vt 0.684782 0.905890
vt 0.684782 0.582419
vt 0.544145 0.329513
vt 0.544145 0.006084
vt 0.587046 0.006084
vt 0.587046 0.329514
vt 0.051060 0.329509
vt 0.045535 0.329509
vt 0.045535 0.006083
vt 0.051060 0.006083
vt 0.693856 0.546906
vt 0.694419 0.547367
vt 0.692511 0.548513
vt 0.692443 0.547529
vt 0.677485 0.543480
vt 0.676534 0.543420
vt 0.676186 0.542578
vt 0.677856 0.542515
vt 0.690365 0.544752
vt 0.689616 0.544607
vt 0.691982 0.542019
vt 0.973587 0.432897
vt 0.973587 0.438256
vt 0.972625 0.438256
vt 0.972625 0.432897
vt 0.973587 0.427536
vt 0.972625 0.427536
vt 0.972625 0.416816
vt 0.973587 0.416816
vt 0.973587 0.422176
vt 0.972625 0.422176
vt 0.973587 0.406096
vt 0.973587 0.411455
vt 0.972625 0.411455
vt 0.972625 0.406096
vt 0.972625 0.400735
vt 0.973587 0.400735
vt 0.972793 0.552734
vt 0.972793 0.510131
vt 0.973751 0.510131
vt 0.973752 0.552734
vt 0.973587 0.443617
vt 0.972625 0.443617
vt 0.973587 0.267424
vt 0.973587 0.310004
vt 0.972625 0.310004
vt 0.972625 0.267424
vt 0.972793 0.472778
vt 0.972793 0.467437
vt 0.973751 0.467437
vt 0.973751 0.472778
vt 0.972625 0.395403
vt 0.973587 0.395403
vt 0.972793 0.478118
vt 0.973751 0.478118
vt 0.972793 0.483458
vt 0.973751 0.483458
vt 0.973587 0.352640
vt 0.972625 0.352640
vt 0.972793 0.488798
vt 0.973751 0.488798
vt 0.972793 0.494139
vt 0.973751 0.494139
vt 0.972793 0.499479
vt 0.973751 0.499479
vt 0.972793 0.462097
vt 0.973751 0.462097
vt 0.972793 0.504819
vt 0.973751 0.504819
vt 0.972793 0.680031
vt 0.972794 0.637634
vt 0.973752 0.637634
vt 0.973752 0.680031
vt 0.972794 0.595212
vt 0.973752 0.595212
vt 0.664577 0.514898
vt 0.664577 0.520480
vt 0.341146 0.520480
vt 0.341146 0.514898
vt 0.677535 0.538665
vt 0.676572 0.538641
vt 0.034371 0.329509
vt 0.028789 0.329509
vt 0.028789 0.006083
vt 0.034371 0.006083
vt 0.692937 0.541988
vt 0.039953 0.329509
vt 0.039953 0.006083
vt 0.694359 0.544628
vt 0.695049 0.544557
vt 0.691351 0.547028
vt 0.690676 0.547451
vt 0.023207 0.329509
vt 0.017624 0.329509
vt 0.017625 0.006083
vt 0.023207 0.006083
vt 0.844231 0.329513
vt 0.844231 0.006084
vt 0.849434 0.006084
vt 0.849434 0.329513
vt 0.664577 0.525070
vt 0.664577 0.528932
vt 0.341146 0.528932
vt 0.341146 0.525070
vt 0.972793 0.457707
vt 0.973751 0.457707
vt 0.973587 0.448024
vt 0.972625 0.448024
vt 0.012043 0.329509
vt 0.006461 0.329509
vt 0.006461 0.006083
vt 0.012043 0.006083
vt 0.675469 0.548303
vt 0.676862 0.548967
vt 0.676764 0.549946
vt 0.674894 0.548746
vt 0.679019 0.546256
vt 0.679771 0.546134
vt 0.675035 0.546014
vt 0.674348 0.545922
vt 0.973588 0.139734
vt 0.973588 0.182314
vt 0.972626 0.182314
vt 0.972626 0.139734
vt 0.137018 0.329509
vt 0.094138 0.329509
vt 0.094138 0.006083
vt 0.137018 0.006083
vt 0.677967 0.548499
vt 0.678628 0.548942
vt 0.664577 0.551420
vt 0.341146 0.551421
vt 0.341146 0.547466
vt 0.664577 0.547465
vt 0.664577 0.555697
vt 0.341146 0.555698
vt 0.664577 0.560900
vt 0.341146 0.560900
vt 0.880647 0.329513
vt 0.880647 0.006084
vt 0.885849 0.006084
vt 0.885849 0.329513
vt 0.875445 0.329513
vt 0.875444 0.006084
vt 0.870242 0.329513
vt 0.870242 0.006084
vt 0.865040 0.329513
vt 0.865040 0.006084
vt 0.859838 0.329513
vt 0.859838 0.006084
vt 0.854636 0.329513
vt 0.854636 0.006084
vt 0.664577 0.533025
vt 0.664577 0.536232
vt 0.341146 0.536233
vt 0.341146 0.533025
vt 0.758376 0.329513
vt 0.758376 0.006084
vt 0.801277 0.006084
vt 0.801277 0.329513
vt 0.618065 0.952205
vt 0.618210 0.952648
vt 0.006903 0.953578
vt 0.006607 0.953411
vt 0.341146 0.543651
vt 0.664577 0.543651
vt 0.973588 0.224870
vt 0.972625 0.224870
vt 0.341146 0.540543
vt 0.664577 0.540542
vt 0.972625 0.016843
vt 0.973588 0.016843
vt 0.973588 0.022203
vt 0.972625 0.022203
vt 0.973588 0.032924
vt 0.973588 0.038284
vt 0.972625 0.038284
vt 0.972625 0.032924
vt 0.973588 0.027564
vt 0.972625 0.027564
vt 0.972793 0.807327
vt 0.973751 0.807327
vt 0.973751 0.849930
vt 0.972793 0.849930
vt 0.973588 0.011483
vt 0.972625 0.011483
vt 0.677827 0.531497
vt 0.676903 0.531190
vt 0.677403 0.526938
vt 0.678367 0.526936
vt 0.692628 0.519660
vt 0.692383 0.515394
vt 0.693323 0.515143
vt 0.693588 0.519720
vt 0.972793 0.892624
vt 0.973751 0.892624
vt 0.973751 0.897964
vt 0.972793 0.897964
vt 0.694780 0.527352
vt 0.693355 0.524524
vt 0.693762 0.523575
vt 0.695535 0.527260
vt 0.972793 0.887283
vt 0.973751 0.887283
vt 0.677104 0.522991
vt 0.678774 0.523092
vt 0.972793 0.881943
vt 0.973751 0.881943
vt 0.690813 0.526959
vt 0.691237 0.529484
vt 0.690646 0.529905
vt 0.690132 0.526841
vt 0.972793 0.876603
vt 0.973751 0.876603
vt 0.972793 0.871263
vt 0.973751 0.871263
vt 0.604314 0.993693
vt 0.007306 0.992442
vt 0.007738 0.992052
vt 0.604247 0.992931
vt 0.972793 0.865922
vt 0.973751 0.865922
vt 0.972793 0.860582
vt 0.973751 0.860582
vt 0.604409 0.991697
vt 0.007472 0.991232
vt 0.972793 0.855242
vt 0.973751 0.855242
vt 0.692093 0.523575
vt 0.972793 0.722427
vt 0.973751 0.722427
vt 0.973751 0.764849
vt 0.972793 0.764849
vt 0.604250 0.991374
vt 0.007793 0.991197
vt 0.007680 0.992555
vt 0.604301 0.993581
vt 0.973588 0.097098
vt 0.972625 0.097098
vt 0.677567 0.582419
vt 0.680443 0.582419
vt 0.680443 0.905890
vt 0.677568 0.905890
vt 0.972625 0.049004
vt 0.973588 0.049004
vt 0.973588 0.054336
vt 0.972625 0.054336
vt 0.682665 0.582419
vt 0.682665 0.905890
vt 0.265433 0.329509
vt 0.265433 0.006083
vt 0.664577 0.538356
vt 0.341146 0.538357
vt 0.629892 0.329514
vt 0.629892 0.006084
vt 0.973588 0.043644
vt 0.972625 0.043644
vt 0.678423 0.522118
vt 0.677469 0.522158
vt 0.618054 0.954350
vt 0.007087 0.954438
vt 0.692578 0.530170
vt 0.693722 0.529774
vt 0.694366 0.530243
vt 0.692444 0.531144
vt 0.692408 0.524428
vt 0.973588 0.006122
vt 0.972625 0.006122
vt 0.617909 0.954944
vt 0.617969 0.953250
vt 0.006511 0.954002
vt 0.006622 0.954945
vt 0.617892 0.954223
vt 0.006888 0.954558
vt 0.676602 0.517031
vt 0.676037 0.516575
vt 0.677909 0.515444
vt 0.677985 0.516425
vt 0.680018 0.519376
vt 0.680768 0.519513
vt 0.675339 0.519607
vt 0.676027 0.519531
vt 0.617945 0.952194
vt 0.007032 0.953100
vt 0.679105 0.516889
vt 0.679776 0.516460
s 1
f 77/1/1 76/2/2 108/3/2 109/4/1
f 78/5/3 77/1/1 109/4/1 110/6/3
f 75/7/4 74/8/5 106/9/5 107/10/4
f 76/2/2 75/7/4 107/10/4 108/3/2
f 73/11/6 72/12/7 104/13/7 105/14/6
f 74/8/5 73/11/6 105/14/6 106/9/5
f 87/15/8 119/16/8 118/17/9 86/18/9
f 88/19/10 120/20/10 119/16/8 87/15/8
f 85/21/11 117/22/11 116/23/12 84/24/12
f 86/18/9 118/17/9 117/22/11 85/21/11
f 83/25/13 115/26/13 114/27/14 82/28/14
f 84/24/12 116/23/12 115/29/13 83/30/13
f 82/28/14 114/27/14 113/31/15 81/32/15
f 15/33/16 47/34/16 46/35/17 14/36/17
f 81/32/15 113/31/15 128/37/18 96/38/18
f 16/39/19 48/40/19 47/34/16 15/33/16
f 72/12/7 71/41/20 103/42/20 104/13/7
f 69/43/21 68/44/22 100/45/22 101/46/21
f 70/47/23 69/43/21 101/46/21 102/48/23
f 67/49/24 66/50/25 98/51/25 99/52/24
f 68/44/22 67/53/24 99/54/24 100/45/22
f 66/50/25 65/55/26 97/56/26 98/51/25
f 65/55/26 80/57/27 112/58/27 97/56/26
f 95/59/28 127/60/28 126/61/29 94/62/29
f 96/38/18 128/37/18 127/60/28 95/59/28
f 93/63/30 125/64/30 124/65/31 92/66/31
f 94/62/29 126/61/29 125/64/30 93/63/30
f 91/67/32 123/68/32 122/69/33 90/70/33
f 92/66/31 124/65/31 123/68/32 91/67/32
f 90/70/33 122/69/33 121/71/34 89/72/34
f 38/73/35 37/74/36 61/75/36 62/76/35
f 89/72/34 121/71/34 120/20/10 88/19/10
f 39/77/37 38/73/35 62/76/35 63/78/37
f 40/79/38 39/77/37 63/78/37 64/80/38
f 35/81/39 34/82/40 58/83/40 59/84/39
f 36/85/41 35/81/39 59/84/39 60/86/41
f 31/87/42 30/88/43 54/89/43 55/90/42
f 32/91/44 31/87/42 55/90/42 56/92/44
f 33/93/45 32/91/44 56/92/44 57/94/45
f 34/82/40 33/93/45 57/94/45 58/83/40
f 29/95/46 28/96/17 52/97/17 53/98/46
f 30/88/43 29/95/46 53/98/46 54/89/43
f 25/99/47 40/79/38 64/80/38 49/100/47
f 26/101/19 25/99/47 49/100/47 50/102/19
f 27/103/16 26/101/19 50/102/19 51/104/16
f 28/105/17 27/103/16 51/104/16 52/106/17
f 226/107/38 242/108/38 241/109/47 225/110/47
f 71/41/20 70/47/23 102/48/23 103/42/20
f 13/111/46 45/112/46 44/113/43 12/114/43
f 14/36/17 46/35/17 45/112/46 13/111/46
f 11/115/42 43/116/42 42/117/44 10/118/44
f 12/114/43 44/113/43 43/116/42 11/115/42
f 9/119/45 41/120/45 24/121/40 8/122/40
f 10/118/44 42/117/44 41/120/45 9/119/45
f 7/123/39 23/124/39 22/125/41 6/126/41
f 8/122/40 24/121/40 23/124/39 7/123/39
f 5/127/36 21/128/36 20/129/35 4/130/35
f 6/126/41 22/125/41 21/128/36 5/127/36
f 3/131/37 19/132/37 18/133/38 2/134/38
f 4/135/35 20/136/35 19/132/37 3/131/37
f 1/137/47 17/138/47 48/40/19 16/39/19
f 37/74/36 36/85/41 60/86/41 61/75/36
f 2/134/38 18/133/38 17/138/47 1/137/47
f 80/57/27 79/139/48 111/140/48 112/58/27
f 138/141/49 134/142/49 133/143/49 132/144/49
f 136/145/49 151/146/49 135/147/49 137/148/49
f 137/148/49 135/147/49 134/142/49 138/141/49
f 129/149/49 137/148/49 138/141/49 130/150/49
f 153/151/49 136/145/49 137/148/49 129/149/49
f 130/150/49 138/141/49 132/144/49 131/152/49
f 150/153/50 143/154/50 144/155/50 145/156/50
f 148/157/50 149/158/50 146/159/50 147/160/50
f 149/158/50 150/153/50 145/156/50 146/159/50
f 139/161/50 141/162/50 150/153/50 149/158/50
f 140/163/50 139/161/50 149/158/50 148/157/50
f 141/162/50 142/164/50 143/154/50 150/153/50
f 131/165/51 142/166/51 141/167/52 130/168/52
f 135/169/53 146/170/53 145/171/54 134/172/54
f 132/173/55 143/174/55 142/166/51 131/165/51
f 129/175/56 139/176/56 140/177/57 153/178/58
f 151/179/59 147/180/59 146/170/53 135/169/53
f 133/181/60 144/182/60 143/183/55 132/184/55
f 130/168/52 141/167/52 139/176/56 129/175/56
f 134/172/54 145/171/54 144/182/60 133/181/60
f 151/179/59 155/185/61 152/186/62 147/180/59
f 148/157/50 175/187/50 154/188/50 140/163/50
f 140/177/57 154/189/63 163/190/63 153/178/58
f 136/145/49 176/191/49 155/192/49 151/146/49
f 165/193/49 161/194/49 160/195/49 159/196/49
f 176/191/49 163/197/49 162/198/49 164/199/49
f 164/199/49 162/198/49 161/194/49 165/193/49
f 156/200/49 164/199/49 165/193/49 157/201/49
f 155/192/49 176/191/49 164/199/49 156/200/49
f 157/201/49 165/193/49 159/196/49 158/202/49
f 174/203/50 169/204/50 170/205/50 171/206/50
f 175/187/50 173/207/50 172/208/50 154/188/50
f 173/207/50 174/203/50 171/206/50 172/208/50
f 166/209/50 167/210/50 174/203/50 173/207/50
f 152/211/50 166/209/50 173/207/50 175/187/50
f 167/210/50 168/212/50 169/204/50 174/203/50
f 158/213/64 168/214/64 167/215/65 157/216/65
f 162/217/66 172/218/66 171/219/67 161/220/67
f 159/221/68 169/222/68 168/214/64 158/213/64
f 156/223/69 166/224/69 152/186/62 155/185/61
f 163/190/63 154/189/63 172/218/66 162/217/66
f 160/225/70 170/226/70 169/227/68 159/228/68
f 157/216/65 167/215/65 166/224/69 156/223/69
f 161/220/67 171/219/67 170/226/70 160/225/70
f 153/151/49 163/197/49 176/191/49 136/145/49
f 147/160/50 152/211/50 175/187/50 148/157/50
f 186/229/50 180/230/50 181/231/50 182/232/50
f 184/233/50 185/234/50 183/235/50 199/236/50
f 185/234/50 186/229/50 182/232/50 183/235/50
f 177/237/50 178/238/50 186/229/50 185/234/50
f 201/239/50 177/237/50 185/234/50 184/233/50
f 178/238/50 179/240/50 180/230/50 186/229/50
f 198/241/49 193/242/49 192/243/49 191/244/49
f 196/245/49 195/246/49 194/247/49 197/248/49
f 197/248/49 194/247/49 193/242/49 198/241/49
f 187/249/49 197/248/49 198/241/49 189/250/49
f 188/251/49 196/245/49 197/248/49 187/249/49
f 189/250/49 198/241/49 191/244/49 190/252/49
f 179/253/51 178/254/52 189/255/52 190/256/51
f 183/257/53 182/258/54 193/259/54 194/260/53
f 180/261/55 179/253/51 190/256/51 191/262/55
f 177/263/56 201/264/71 188/265/72 187/266/56
f 199/267/59 183/257/53 194/260/53 195/268/59
f 181/269/60 180/270/55 191/271/55 192/272/60
f 178/254/52 177/263/56 187/266/56 189/255/52
f 182/258/54 181/269/60 192/272/60 193/259/54
f 199/267/59 195/268/59 200/273/73 203/274/74
f 196/245/49 188/251/49 202/275/49 223/276/49
f 188/265/72 201/264/71 211/277/63 202/278/63
f 184/233/50 199/236/50 203/279/50 224/280/50
f 213/281/50 207/282/50 208/283/50 209/284/50
f 224/280/50 212/285/50 210/286/50 211/287/50
f 212/285/50 213/281/50 209/284/50 210/286/50
f 204/288/50 205/289/50 213/281/50 212/285/50
f 203/279/50 204/288/50 212/285/50 224/280/50
f 205/289/50 206/290/50 207/282/50 213/281/50
f 222/291/49 219/292/49 218/293/49 217/294/49
f 223/276/49 202/275/49 220/295/49 221/296/49
f 221/296/49 220/295/49 219/292/49 222/291/49
f 214/297/49 221/296/49 222/291/49 215/298/49
f 200/299/49 223/276/49 221/296/49 214/297/49
f 215/298/49 222/291/49 217/294/49 216/300/49
f 206/301/64 205/302/65 215/303/65 216/304/64
f 210/305/66 209/306/67 219/307/67 220/308/66
f 207/309/68 206/301/64 216/304/64 217/310/68
f 204/311/69 203/274/74 200/273/73 214/312/69
f 211/277/63 210/305/66 220/308/66 202/278/63
f 208/313/70 207/314/68 217/315/68 218/316/70
f 205/302/65 204/311/69 214/312/69 215/303/65
f 209/306/67 208/313/70 218/316/70 219/307/67
f 201/239/50 184/233/50 224/280/50 211/287/50
f 195/246/49 196/245/49 223/276/49 200/299/49
f 227/317/37 243/318/37 242/108/38 226/107/38
f 228/319/35 244/320/35 243/318/37 227/317/37
f 229/321/36 245/322/36 244/320/35 228/319/35
f 230/323/41 246/324/41 245/322/36 229/321/36
f 231/325/39 247/326/39 246/324/41 230/323/41
f 232/327/40 248/328/40 247/326/39 231/325/39
f 233/329/45 249/330/45 248/328/40 232/327/40
f 234/331/44 250/332/44 249/333/45 233/334/45
f 235/335/42 251/336/42 250/332/44 234/331/44
f 236/337/43 252/338/43 251/336/42 235/335/42
f 237/339/46 253/340/46 252/338/43 236/337/43
f 238/341/17 254/342/17 253/340/46 237/339/46
f 239/343/16 255/344/16 254/342/17 238/341/17
f 240/345/19 256/346/19 255/344/16 239/343/16
f 225/110/47 241/109/47 256/346/19 240/345/19
f 257/347/47 273/348/47 274/349/19 258/350/19
f 258/350/19 274/349/19 275/351/16 259/352/16
f 259/352/16 275/351/16 276/353/17 260/354/17
f 260/354/17 276/353/17 277/355/46 261/356/46
f 261/356/46 277/355/46 278/357/43 262/358/43
f 262/358/43 278/357/43 279/359/42 263/360/42
f 263/360/42 279/359/42 280/361/44 264/362/44
f 264/362/44 280/361/44 281/363/45 265/364/45
f 265/365/45 281/366/45 282/367/40 266/368/40
f 266/368/40 282/367/40 283/369/39 267/370/39
f 267/370/39 283/369/39 284/371/41 268/372/41
f 268/372/41 284/371/41 285/373/36 269/374/36
f 269/374/36 285/373/36 286/375/35 270/376/35
f 270/376/35 286/375/35 287/377/37 271/378/37
f 271/378/37 287/377/37 288/379/38 272/380/38
f 272/380/38 288/379/38 273/348/47 257/347/47
f 502/381/75 501/382/75 541/383/76 542/384/76
f 298/385/49 292/386/49 293/387/49 294/388/49
f 296/389/49 297/390/49 295/391/49 311/392/49
f 297/390/49 298/385/49 294/388/49 295/391/49
f 289/393/49 290/394/49 298/385/49 297/390/49
f 313/395/49 289/393/49 297/390/49 296/389/49
f 290/394/49 291/396/49 292/386/49 298/385/49
f 310/397/50 305/398/50 304/399/50 303/400/50
f 308/401/50 307/402/50 306/403/50 309/404/50
f 309/404/50 306/403/50 305/398/50 310/397/50
f 299/405/50 309/404/50 310/397/50 301/406/50
f 300/407/50 308/401/50 309/404/50 299/405/50
f 301/406/50 310/397/50 303/400/50 302/408/50
f 291/409/77 290/410/78 301/411/78 302/412/77
f 295/413/79 294/414/80 305/415/80 306/416/79
f 292/417/81 291/409/77 302/412/77 303/418/81
f 289/419/82 313/420/83 300/421/84 299/422/82
f 311/423/85 295/413/79 306/416/79 307/424/85
f 293/425/86 292/426/81 303/427/81 304/428/86
f 290/410/78 289/419/82 299/422/82 301/411/78
f 294/414/80 293/425/86 304/428/86 305/415/80
f 311/423/85 307/424/85 312/429/87 315/430/87
f 308/401/50 300/407/50 314/431/50 335/432/50
f 300/421/84 313/420/83 323/433/88 314/434/88
f 296/389/49 311/392/49 315/435/49 336/436/49
f 325/437/49 319/438/49 320/439/49 321/440/49
f 336/436/49 324/441/49 322/442/49 323/443/49
f 324/441/49 325/437/49 321/440/49 322/442/49
f 316/444/49 317/445/49 325/437/49 324/441/49
f 315/435/49 316/444/49 324/441/49 336/436/49
f 317/445/49 318/446/49 319/438/49 325/437/49
f 334/447/50 331/448/50 330/449/50 329/450/50
f 335/432/50 314/431/50 332/451/50 333/452/50
f 333/452/50 332/451/50 331/448/50 334/447/50
f 326/453/50 333/452/50 334/447/50 327/454/50
f 312/455/50 335/432/50 333/452/50 326/453/50
f 327/454/50 334/447/50 329/450/50 328/456/50
f 318/457/89 317/458/90 327/459/90 328/460/89
f 322/461/91 321/462/92 331/463/92 332/464/91
f 319/465/93 318/457/89 328/460/89 329/466/93
f 316/467/94 315/430/87 312/429/87 326/468/94
f 323/433/88 322/461/91 332/464/91 314/434/88
f 320/469/95 319/470/93 329/471/93 330/472/95
f 317/458/90 316/467/94 326/468/94 327/459/90
f 321/462/92 320/469/95 330/472/95 331/463/92
f 313/395/49 296/389/49 336/436/49 323/443/49
f 307/402/50 308/401/50 335/432/50 312/455/50
f 346/473/50 342/474/50 341/475/50 340/476/50
f 344/477/50 359/478/50 343/479/50 345/480/50
f 345/480/50 343/479/50 342/474/50 346/473/50
f 337/481/50 345/480/50 346/473/50 338/482/50
f 361/483/50 344/477/50 345/480/50 337/481/50
f 338/482/50 346/473/50 340/476/50 339/484/50
f 358/485/49 351/486/49 352/487/49 353/488/49
f 356/489/49 357/490/49 354/491/49 355/492/49
f 357/490/49 358/485/49 353/488/49 354/491/49
f 347/493/49 349/494/49 358/485/49 357/490/49
f 348/495/49 347/493/49 357/490/49 356/489/49
f 349/494/49 350/496/49 351/486/49 358/485/49
f 339/497/77 350/498/77 349/499/78 338/500/78
f 343/501/79 354/502/79 353/503/80 342/504/80
f 340/505/81 351/506/81 350/498/77 339/497/77
f 337/507/82 347/508/82 348/509/96 361/510/97
f 359/511/85 355/512/85 354/502/79 343/501/79
f 341/513/86 352/514/86 351/515/81 340/516/81
f 338/500/78 349/499/78 347/508/82 337/507/82
f 342/504/80 353/503/80 352/514/86 341/513/86
f 359/511/85 363/517/98 360/518/98 355/512/85
f 356/489/49 383/519/49 362/520/49 348/495/49
f 348/509/96 362/521/88 371/522/88 361/510/97
f 344/477/50 384/523/50 363/524/50 359/478/50
f 373/525/50 369/526/50 368/527/50 367/528/50
f 384/523/50 371/529/50 370/530/50 372/531/50
f 372/531/50 370/530/50 369/526/50 373/525/50
f 364/532/50 372/531/50 373/525/50 365/533/50
f 363/524/50 384/523/50 372/531/50 364/532/50
f 365/533/50 373/525/50 367/528/50 366/534/50
f 382/535/49 377/536/49 378/537/49 379/538/49
f 383/519/49 381/539/49 380/540/49 362/520/49
f 381/539/49 382/535/49 379/538/49 380/540/49
f 374/541/49 375/542/49 382/535/49 381/539/49
f 360/543/49 374/541/49 381/539/49 383/519/49
f 375/542/49 376/544/49 377/536/49 382/535/49
f 366/545/89 376/546/89 375/547/90 365/548/90
f 370/549/91 380/550/91 379/551/92 369/552/92
f 367/553/93 377/554/93 376/546/89 366/545/89
f 364/555/94 374/556/94 360/518/98 363/517/98
f 371/522/88 362/521/88 380/550/91 370/549/91
f 368/557/95 378/558/95 377/559/93 367/560/93
f 365/548/90 375/547/90 374/556/94 364/555/94
f 369/552/92 379/551/92 378/558/95 368/557/95
f 361/483/50 371/529/50 384/523/50 344/477/50
f 355/492/49 360/543/49 383/519/49 356/489/49
f 388/561/47 498/562/99 493/563/99 387/564/47
f 386/565/100 385/566/100 405/567/19 410/568/19
f 392/569/101 389/570/101 462/571/102 467/572/102
f 394/573/103 390/574/103 389/570/101 392/569/101
f 396/575/45 391/576/45 390/577/103 394/578/103
f 398/579/44 393/580/44 391/576/45 396/575/45
f 400/581/42 395/582/42 393/580/44 398/579/44
f 402/583/43 397/584/43 395/582/42 400/581/42
f 404/585/46 399/586/46 397/584/43 402/583/43
f 406/587/17 401/588/17 399/586/46 404/585/46
f 408/589/16 403/590/16 401/588/17 406/587/17
f 410/568/19 405/567/19 403/590/16 408/589/16
f 413/591/104 409/592/104 411/593/105 414/594/105
f 389/595/50 421/596/50 470/597/50 462/598/50
f 528/599/106 420/600/45 419/601/45 523/602/106
f 442/603/40 437/604/40 417/605/107 418/606/107
f 424/607/108 469/608/109 470/609/109 421/610/108
f 424/607/108 421/610/108 422/611/110 426/612/110
f 426/613/110 422/614/110 423/615/47 428/616/47
f 428/616/47 423/615/47 425/617/38 430/618/38
f 430/618/38 425/617/38 427/619/37 432/620/37
f 432/620/37 427/619/37 429/621/35 434/622/35
f 434/622/35 429/621/35 431/623/36 436/624/36
f 436/624/36 431/623/36 433/625/41 438/626/41
f 438/626/41 433/625/41 435/627/39 440/628/39
f 466/629/111 461/630/111 471/631/112 472/632/112
f 440/628/39 435/627/39 437/604/40 442/603/40
f 446/633/113 443/634/113 441/635/114 445/636/114
f 474/637/115 496/638/38 491/639/38 473/640/115
f 447/641/50 460/642/50 459/643/50 457/644/50
f 449/645/49 451/646/49 469/647/49 467/648/49
f 453/649/50 461/650/50 462/598/50 450/651/50
f 425/652/50 423/653/50 391/654/50 393/655/50
f 427/656/50 425/652/50 393/655/50 395/657/50
f 399/658/50 431/659/50 429/660/50 397/661/50
f 435/662/50 433/663/50 401/664/50 403/665/50
f 405/666/50 437/667/50 435/662/50 403/665/50
f 429/660/50 427/656/50 395/657/50 397/661/50
f 414/668/49 386/669/49 418/670/49 446/671/49
f 423/653/50 422/672/50 390/673/50 391/654/50
f 439/674/50 441/675/50 409/676/50 407/677/50
f 398/678/49 396/679/49 428/680/49 430/681/49
f 385/682/50 417/683/50 437/667/50 405/666/50
f 400/684/49 398/678/49 430/681/49 432/685/49
f 401/664/50 433/663/50 431/659/50 399/658/50
f 402/686/49 400/684/49 432/685/49 434/687/49
f 409/676/50 441/675/50 443/688/50 411/689/50
f 404/690/49 402/686/49 434/687/49 436/691/49
f 406/692/49 404/690/49 436/691/49 438/693/49
f 411/689/50 443/688/50 417/683/50 385/682/50
f 408/694/49 406/692/49 438/693/49 440/695/49
f 396/679/49 394/696/49 426/697/49 428/680/49
f 410/698/49 408/694/49 440/695/49 442/699/49
f 386/669/49 410/698/49 442/699/49 418/670/49
f 388/700/49 412/701/49 444/702/49 420/703/49
f 412/701/49 413/704/49 445/705/49 444/702/49
f 482/706/45 480/707/116 476/708/116 477/709/45
f 392/710/49 467/648/49 469/647/49 424/711/49
f 492/712/35 490/713/36 485/714/36 487/715/35
f 470/597/50 452/716/50 450/651/50 462/598/50
f 413/704/49 414/668/49 446/671/49 445/705/49
f 494/717/37 492/712/35 487/715/35 489/718/37
f 418/606/107 417/605/107 443/634/113 446/633/113
f 454/719/50 463/720/50 460/642/50 447/641/50
f 415/721/50 471/722/50 461/650/50 453/649/50
f 488/723/41 486/724/39 481/725/39 483/726/41
f 496/638/38 494/717/37 489/718/37 491/639/38
f 504/727/117 503/728/117 521/729/44 526/730/44
f 452/716/50 470/597/50 463/720/50 454/719/50
f 478/731/118 551/732/119 546/733/119 475/734/118
f 394/696/49 392/735/49 424/736/49 426/697/49
f 390/673/50 422/672/50 421/737/50 389/738/50
f 457/644/50 459/643/50 471/722/50 415/721/50
f 414/594/105 411/593/105 385/566/100 386/565/100
f 484/739/40 482/740/45 477/741/45 479/742/40
f 448/743/49 458/744/49 464/745/49 465/746/49
f 455/747/49 449/645/49 467/648/49 466/748/49
f 451/646/49 456/749/49 468/750/49 469/647/49
f 490/713/36 488/723/41 483/726/41 485/714/36
f 525/751/50 523/752/50 493/753/50 495/754/50
f 499/755/120 500/756/121 497/757/121 495/758/120
f 486/724/39 484/739/40 479/742/40 481/725/39
f 416/759/49 455/747/49 466/748/49 472/760/49
f 456/749/49 448/743/49 465/746/49 468/750/49
f 480/707/116 478/731/118 475/734/118 476/708/116
f 458/744/49 416/759/49 472/760/49 464/745/49
f 467/572/102 462/571/102 461/630/111 466/629/111
f 500/756/121 474/637/115 473/640/115 497/757/121
f 508/761/122 505/762/122 554/763/123 553/764/123
f 510/765/124 506/766/124 505/762/122 508/761/122
f 512/767/47 507/768/47 506/766/124 510/765/124
f 514/769/19 509/770/19 507/771/47 512/772/47
f 516/773/16 511/774/16 509/770/19 514/769/19
f 518/775/17 513/776/17 511/774/16 516/773/16
f 520/777/46 515/778/46 513/776/17 518/775/17
f 522/779/43 517/780/43 515/778/46 520/777/46
f 524/781/42 519/782/42 517/780/43 522/779/43
f 550/783/125 556/784/126 555/785/126 545/786/125
f 526/730/44 521/729/44 519/782/42 524/781/42
f 529/787/127 525/788/127 527/789/128 530/790/128
f 448/791/129 456/792/130 454/793/130 447/794/129
f 553/764/123 554/763/123 547/795/131 552/796/131
f 493/753/50 523/752/50 419/797/50 387/798/50
f 552/796/131 547/795/131 544/799/132 549/800/132
f 479/801/50 509/802/50 511/803/50 481/804/50
f 515/805/50 517/806/50 487/807/50 485/808/50
f 511/803/50 513/809/50 483/810/50 481/804/50
f 500/811/49 530/812/49 504/813/49 474/814/49
f 507/815/50 509/802/50 479/801/50 477/816/50
f 480/817/49 510/818/49 508/819/49 478/820/49
f 505/821/50 506/822/50 476/823/50 475/824/50
f 482/825/49 512/826/49 510/827/49 480/828/49
f 537/829/50 534/830/50 546/831/50 545/832/50
f 484/833/49 514/834/49 512/826/49 482/825/49
f 478/820/49 508/819/49 553/835/49 551/836/49
f 486/837/49 516/838/49 514/834/49 484/833/49
f 538/839/50 531/840/50 544/841/50 547/842/50
f 488/843/49 518/844/49 516/838/49 486/837/49
f 490/845/49 520/846/49 518/844/49 488/843/49
f 532/847/133 531/848/133 538/849/134 540/850/134
f 492/851/49 522/852/49 520/846/49 490/845/49
f 494/853/49 524/854/49 522/852/49 492/851/49
f 539/855/135 537/856/135 501/382/75 502/381/75
f 496/857/49 526/858/49 524/854/49 494/853/49
f 554/859/50 505/821/50 475/824/50 546/831/50
f 474/814/49 504/813/49 526/858/49 496/857/49
f 498/860/49 528/861/49 529/862/49 499/863/49
f 535/864/136 536/865/136 534/866/137 533/867/137
f 527/868/50 525/751/50 495/754/50 497/869/50
f 468/870/138 465/871/139 460/872/139 463/873/138
f 491/874/50 521/875/50 503/876/50 473/877/50
f 499/863/49 529/862/49 530/812/49 500/811/49
f 464/878/140 459/879/140 460/872/139 465/871/139
f 412/880/141 407/881/141 409/592/104 413/591/104
f 556/784/126 548/882/142 543/883/142 555/785/126
f 504/727/117 530/790/128 527/789/128 503/728/117
f 444/884/143 439/885/143 419/601/45 420/600/45
f 517/806/50 519/886/50 489/887/50 487/807/50
f 533/888/49 551/836/49 553/835/49 535/889/49
f 528/599/106 523/602/106 525/788/127 529/787/127
f 388/561/47 387/564/47 407/881/141 412/880/141
f 548/882/142 549/800/132 544/799/132 543/883/142
f 456/792/130 451/890/144 452/891/144 454/793/130
f 540/850/134 538/849/134 536/865/136 535/864/136
f 542/384/76 541/383/76 531/848/133 532/847/133
f 541/892/50 501/893/50 555/894/50 543/895/50
f 501/893/50 537/829/50 545/832/50 555/894/50
f 536/896/50 538/839/50 547/842/50 554/859/50
f 531/840/50 541/892/50 543/895/50 544/841/50
f 534/830/50 536/896/50 554/859/50 546/831/50
f 503/876/50 527/868/50 497/869/50 473/877/50
f 506/897/50 507/815/50 477/816/50 476/898/50
f 513/809/50 515/805/50 485/808/50 483/810/50
f 489/887/50 519/886/50 521/875/50 491/874/50
f 533/867/137 534/866/137 537/856/135 539/855/135
f 416/899/145 458/900/146 457/901/146 415/902/145
f 498/562/99 499/755/120 495/758/120 493/563/99
f 458/900/146 448/791/129 447/794/129 457/901/146
f 455/903/147 416/899/145 415/902/145 453/904/147
f 532/905/49 549/906/49 548/907/49 542/908/49
f 539/909/49 550/910/49 551/836/49 533/888/49
f 535/889/49 553/835/49 552/911/49 540/912/49
f 469/608/109 468/870/138 463/873/138 470/609/109
f 388/700/49 420/703/49 528/861/49 498/860/49
f 472/632/112 471/631/112 459/879/140 464/878/140
f 449/913/148 455/903/147 453/904/147 450/914/148
f 502/915/49 556/916/49 550/910/49 539/909/49
f 540/912/49 552/911/49 549/906/49 532/905/49
f 542/908/49 548/907/49 556/916/49 502/915/49
f 445/636/114 441/635/114 439/885/143 444/884/143
f 451/890/144 449/913/148 450/914/148 452/891/144
f 551/732/119 550/783/125 545/786/125 546/733/119
f 79/139/48 78/5/3 110/6/3 111/140/48
f 387/798/50 419/797/50 439/674/50 407/677/50
