# Blender 4.0.2
# www.blender.org
o honk_honk_horn
v 0.024142 0.010255 -0.010255
v 0.024142 -0.005550 -0.013399
v 0.024142 -0.010255 -0.010255
v 0.024142 -0.013399 -0.005550
v 0.024142 -0.014503 -0.000000
v 0.024142 -0.013399 0.005550
v 0.024142 -0.010255 0.010255
v 0.024142 -0.005550 0.013399
v 0.024142 -0.000000 0.014503
v 0.024142 0.005550 0.013399
v 0.024142 0.010255 0.010255
v 0.024142 0.013399 0.005550
v 0.024142 0.014503 0.000000
v 0.024142 0.013399 -0.005550
v 0.024142 0.005550 -0.013399
v 0.024142 -0.000000 -0.014503
v 0.103990 0.014806 -0.014806
v 0.103990 0.019345 -0.008013
v 0.103990 0.019345 0.008013
v 0.103990 0.020939 0.000000
v 0.103990 0.008013 0.019345
v 0.103990 0.014806 0.014806
v 0.103990 -0.008013 0.019345
v 0.103990 -0.000000 0.020939
v 0.103990 -0.019345 0.008013
v 0.103990 -0.014806 0.014806
v 0.103990 -0.019345 -0.008013
v 0.103990 -0.020939 -0.000000
v 0.103990 -0.008013 -0.019345
v 0.103990 -0.014806 -0.014806
v 0.103990 0.008013 -0.019345
v 0.103990 -0.000000 -0.020939
v 0.128803 0.032174 -0.032174
v 0.128803 0.042038 -0.017413
v 0.128803 0.042038 0.017413
v 0.128803 0.045502 0.000000
v 0.128803 0.017413 0.042038
v 0.128803 0.032174 0.032174
v 0.128803 -0.017413 0.042038
v 0.128803 -0.000000 0.045502
v 0.128803 -0.042038 0.017413
v 0.128803 -0.032174 0.032174
v 0.128803 -0.042038 -0.017413
v 0.128803 -0.045502 -0.000000
v 0.128803 -0.017413 -0.042038
v 0.128803 -0.032174 -0.032174
v 0.128803 0.017413 -0.042038
v 0.128803 0.000000 -0.045502
v 0.120189 0.030408 -0.012595
v 0.120189 0.032913 -0.000000
v 0.120189 0.030408 0.012595
v 0.120189 0.023273 0.023273
v 0.120189 0.012595 0.030408
v 0.120189 -0.000000 0.032913
v 0.120189 -0.012595 0.030408
v 0.120189 -0.023273 0.023273
v 0.120189 -0.030408 0.012595
v 0.120189 -0.032913 0.000000
v 0.120189 -0.030408 -0.012595
v 0.120189 -0.023273 -0.023273
v 0.120189 -0.012595 -0.030408
v 0.120189 -0.000000 -0.032913
v 0.120189 0.012595 -0.030408
v 0.120189 0.023273 -0.023273
v 0.112819 0.023756 -0.009840
v 0.112819 0.018182 -0.018182
v 0.112819 0.025713 -0.000000
v 0.112819 0.023756 0.009840
v 0.112819 0.018182 0.018182
v 0.112819 0.009840 0.023756
v 0.112819 -0.000000 0.025713
v 0.112819 -0.009840 0.023756
v 0.112819 -0.018182 0.018182
v 0.112819 -0.023756 0.009840
v 0.112819 -0.025713 0.000000
v 0.112819 -0.023756 -0.009840
v 0.112819 -0.018182 -0.018182
v 0.112819 -0.009840 -0.023756
v 0.112819 -0.000000 -0.025713
v 0.112819 0.009840 -0.023756
v 0.085892 -0.000000 -0.017551
v 0.085892 -0.006716 -0.016215
v 0.085892 0.006716 -0.016215
v 0.085892 0.016215 -0.006716
v 0.085892 0.012410 -0.012410
v 0.085892 0.017551 0.000000
v 0.085892 0.016215 0.006716
v 0.085892 0.012410 0.012410
v 0.085892 0.006716 0.016215
v 0.085892 -0.000000 0.017551
v 0.085892 -0.006716 0.016215
v 0.085892 -0.012410 0.012410
v 0.085892 -0.016215 0.006716
v 0.085892 -0.017551 -0.000000
v 0.085892 -0.016215 -0.006716
v 0.085892 -0.012410 -0.012410
v 0.095082 -0.000000 -0.018501
v 0.095082 0.007080 -0.017093
v 0.095082 0.017093 -0.007080
v 0.095082 0.018501 0.000000
v 0.095082 0.017093 0.007080
v 0.095082 0.013082 0.013082
v 0.095082 0.007080 0.017093
v 0.095082 -0.000000 0.018501
v 0.095082 -0.007080 0.017093
v 0.095082 -0.013082 0.013082
v 0.095082 -0.017093 0.007080
v 0.095082 -0.018501 -0.000000
v 0.095082 -0.017093 -0.007080
v 0.095082 -0.013082 -0.013082
v 0.095082 -0.007080 -0.017093
v 0.095082 0.013082 -0.013082
v 0.107169 0.012288 -0.012288
v 0.107169 0.016055 -0.006650
v 0.107169 0.016055 0.006650
v 0.107169 0.017378 -0.000000
v 0.107169 0.006650 0.016055
v 0.107169 0.012288 0.012288
v 0.107169 -0.006650 0.016055
v 0.107169 -0.000000 0.017378
v 0.107169 -0.016055 0.006650
v 0.107169 -0.012288 0.012288
v 0.107169 -0.016055 -0.006650
v 0.107169 -0.017378 -0.000000
v 0.107169 -0.006650 -0.016055
v 0.107169 -0.012288 -0.012288
v 0.107169 0.006650 -0.016055
v 0.107169 -0.000000 -0.017378
v 0.122586 0.028283 -0.011715
v 0.122586 0.030613 0.000000
v 0.122586 0.028283 0.011715
v 0.122586 0.021647 0.021647
v 0.122586 0.011715 0.028283
v 0.122586 -0.000000 0.030613
v 0.122586 -0.011715 0.028283
v 0.122586 -0.021647 0.021647
v 0.122586 -0.028283 0.011715
v 0.122586 -0.030613 -0.000000
v 0.122586 -0.028283 -0.011715
v 0.122586 -0.021647 -0.021647
v 0.122586 -0.011715 -0.028283
v 0.122586 0.000000 -0.030613
v 0.122586 0.011715 -0.028283
v 0.122586 0.021647 -0.021647
v 0.115399 0.021192 -0.008778
v 0.115399 0.016219 -0.016219
v 0.115399 0.022938 -0.000000
v 0.115399 0.021192 0.008778
v 0.115399 0.016219 0.016219
v 0.115399 0.008778 0.021192
v 0.115399 -0.000000 0.022938
v 0.115399 -0.008778 0.021192
v 0.115399 -0.016219 0.016219
v 0.115399 -0.021192 0.008778
v 0.115399 -0.022938 0.000000
v 0.115399 -0.021192 -0.008778
v 0.115399 -0.016219 -0.016219
v 0.115399 -0.008778 -0.021192
v 0.115399 -0.000000 -0.022938
v 0.115399 0.008778 -0.021192
v 0.087670 -0.000000 -0.013768
v 0.087670 -0.005269 -0.012720
v 0.087670 0.005269 -0.012720
v 0.087670 0.012720 -0.005269
v 0.087670 0.009735 -0.009735
v 0.087670 0.013768 0.000000
v 0.087670 0.012720 0.005269
v 0.087670 0.009735 0.009735
v 0.087670 0.005269 0.012720
v 0.087670 -0.000000 0.013768
v 0.087670 -0.005269 0.012720
v 0.087670 -0.009735 0.009735
v 0.087670 -0.012720 0.005269
v 0.087670 -0.013768 -0.000000
v 0.087670 -0.012720 -0.005269
v 0.087670 -0.009735 -0.009735
v 0.096325 -0.000000 -0.014400
v 0.096325 0.005511 -0.013304
v 0.096325 0.013304 -0.005511
v 0.096325 0.014400 0.000000
v 0.096325 0.013304 0.005511
v 0.096325 0.010183 0.010183
v 0.096325 0.005511 0.013304
v 0.096325 -0.000000 0.014400
v 0.096325 -0.005511 0.013304
v 0.096325 -0.010183 0.010183
v 0.096325 -0.013304 0.005511
v 0.096325 -0.014400 -0.000000
v 0.096325 -0.013304 -0.005511
v 0.096325 -0.010183 -0.010183
v 0.096325 -0.005511 -0.013304
v 0.096325 0.010183 -0.010183
v 0.125760 0.040892 0.000000
v 0.125760 0.037779 0.015649
v 0.125760 0.028915 0.028915
v 0.125760 0.015649 0.037779
v 0.125760 -0.000000 0.040892
v 0.125760 -0.015649 0.037779
v 0.125760 -0.028915 0.028915
v 0.125760 -0.037779 0.015649
v 0.125760 -0.040892 -0.000000
v 0.125760 -0.037779 -0.015649
v 0.125760 -0.028915 -0.028915
v 0.125760 -0.015649 -0.037779
v 0.125760 -0.000000 -0.040892
v 0.125760 0.015649 -0.037779
v 0.125760 0.037779 -0.015649
v 0.125760 0.028915 -0.028915
v 0.125712 0.045479 0.000000
v 0.124482 0.043026 0.000000
v 0.125712 0.042017 0.017404
v 0.124482 0.039751 0.016465
v 0.125712 0.032158 0.032158
v 0.124482 0.030424 0.030424
v 0.125712 0.017404 0.042017
v 0.124482 0.016465 0.039751
v 0.125712 -0.000000 0.045479
v 0.124482 -0.000000 0.043026
v 0.125712 -0.017404 0.042017
v 0.124482 -0.016465 0.039751
v 0.125712 -0.032158 0.032158
v 0.124482 -0.030424 0.030424
v 0.125712 -0.042017 0.017404
v 0.124482 -0.039751 0.016465
v 0.125712 -0.045479 -0.000000
v 0.124482 -0.043026 -0.000000
v 0.125712 -0.042017 -0.017404
v 0.124482 -0.039751 -0.016465
v 0.125712 -0.032158 -0.032158
v 0.124482 -0.030424 -0.030424
v 0.125712 -0.017404 -0.042017
v 0.124482 -0.016465 -0.039751
v 0.125712 0.000000 -0.045479
v 0.124482 -0.000000 -0.043026
v 0.125712 0.017404 -0.042017
v 0.124482 0.016465 -0.039751
v 0.124482 0.039751 -0.016465
v 0.125712 0.042017 -0.017404
v 0.124482 0.030424 -0.030424
v 0.125712 0.032158 -0.032158
v 0.129288 0.028677 -0.028677
v 0.129942 0.030876 -0.030876
v 0.129942 0.040342 -0.016710
v 0.129288 0.037469 -0.015520
v 0.129942 0.040342 0.016710
v 0.129288 0.037469 0.015520
v 0.129288 0.040556 0.000000
v 0.129942 0.043666 0.000000
v 0.129942 0.016710 0.040342
v 0.129288 0.015520 0.037469
v 0.129288 0.028677 0.028677
v 0.129942 0.030876 0.030876
v 0.129942 -0.016710 0.040342
v 0.129288 -0.015520 0.037469
v 0.129288 -0.000000 0.040556
v 0.129942 -0.000000 0.043666
v 0.129942 -0.040342 0.016710
v 0.129288 -0.037469 0.015520
v 0.129288 -0.028677 0.028677
v 0.129942 -0.030876 0.030876
v 0.129942 -0.040342 -0.016710
v 0.129288 -0.037469 -0.015520
v 0.129288 -0.040556 -0.000000
v 0.129942 -0.043666 -0.000000
v 0.129942 -0.016710 -0.040342
v 0.129288 -0.015520 -0.037469
v 0.129288 -0.028677 -0.028677
v 0.129942 -0.030876 -0.030876
v 0.129942 0.016710 -0.040342
v 0.129288 0.015520 -0.037469
v 0.129288 -0.000000 -0.040556
v 0.129942 -0.000000 -0.043666
v 0.127258 0.046058 0.000000
v 0.127258 0.042552 -0.017626
v 0.127258 0.042552 0.017626
v 0.127258 0.032568 0.032568
v 0.127258 0.017626 0.042552
v 0.127258 -0.000000 0.046058
v 0.127258 -0.017626 0.042552
v 0.127258 -0.032568 0.032568
v 0.127258 -0.042552 0.017626
v 0.127258 -0.046058 -0.000000
v 0.127258 -0.042552 -0.017626
v 0.127258 -0.032568 -0.032568
v 0.127258 -0.017626 -0.042552
v 0.127258 -0.000000 -0.046058
v 0.127258 0.017626 -0.042552
v 0.127258 0.032568 -0.032568
v 0.003526 -0.003810 -0.009198
v 0.003526 0.007040 -0.007040
v 0.003526 -0.000000 -0.009956
v 0.003526 0.003810 -0.009198
v 0.003526 0.009198 -0.003810
v 0.003526 0.009956 0.000000
v 0.003526 0.009198 0.003810
v 0.003526 0.007040 0.007040
v 0.003526 0.003810 0.009198
v 0.003526 -0.000000 0.009956
v 0.003526 -0.003810 0.009198
v 0.003526 -0.007040 0.007040
v 0.003526 -0.009198 0.003810
v 0.003526 -0.009956 -0.000000
v 0.003526 -0.009198 -0.003810
v 0.003526 -0.007040 -0.007040
v 0.003529 -0.000000 0.007193
v 0.003525 -0.000000 0.003715
v 0.003524 -0.000000 0.000000
v 0.003525 -0.000000 -0.003715
v 0.003529 -0.000000 -0.007193
v -0.042947 -0.004384 -0.010584
v -0.042947 0.008100 -0.008100
v -0.042947 -0.000000 -0.011456
v -0.042947 0.004384 -0.010584
v -0.042947 0.010584 -0.004384
v -0.042947 0.011456 -0.000000
v -0.042947 0.010584 0.004384
v -0.042947 0.008100 0.008100
v -0.042947 0.004384 0.010584
v -0.042947 -0.000000 0.011456
v -0.042947 -0.004384 0.010584
v -0.042947 -0.008100 0.008100
v -0.042947 -0.010584 0.004384
v -0.042947 -0.011456 -0.000000
v -0.042947 -0.010584 -0.004384
v -0.042947 -0.008100 -0.008100
v -0.089203 -0.012669 0.032860
v -0.089203 0.025339 0.025339
v -0.089203 -0.035010 0.000000
v -0.089203 -0.032860 -0.012669
v -0.105741 0.032018 -0.032018
v -0.105741 0.016009 -0.041523
v -0.105741 -0.000000 -0.044240
v -0.105741 -0.016009 -0.041523
v -0.137191 0.031672 -0.031672
v -0.139522 0.015836 -0.041074
v -0.140226 0.000000 -0.043762
v -0.139522 -0.015836 -0.041074
v -0.089203 0.012669 -0.032860
v -0.089203 0.025339 -0.025339
v -0.089203 0.032860 -0.012669
v -0.089203 0.012669 0.032860
v -0.105741 -0.032018 -0.032018
v -0.105741 -0.041523 -0.016009
v -0.105741 -0.044240 0.000000
v -0.105741 -0.041523 0.016009
v -0.137191 -0.031672 -0.031672
v -0.139522 -0.041074 -0.015836
v -0.140226 -0.043762 -0.000000
v -0.139522 -0.041074 0.015836
v -0.089203 -0.000000 -0.035010
v -0.105741 -0.032018 0.032018
v -0.105741 -0.016009 0.041523
v -0.105741 -0.000000 0.044240
v -0.105741 0.016009 0.041523
v -0.137191 -0.031672 0.031672
v -0.139522 -0.015836 0.041074
v -0.140226 0.000000 0.043762
v -0.139522 0.015836 0.041074
v -0.105741 0.032018 0.032018
v -0.105741 0.041523 0.016009
v -0.105741 0.044240 0.000000
v -0.105741 0.041523 -0.016009
v -0.137191 0.031672 0.031672
v -0.139522 0.041074 0.015836
v -0.140226 0.043762 -0.000000
v -0.139522 0.041074 -0.015836
v -0.150696 0.027010 -0.027010
v -0.155358 0.013505 -0.031672
v -0.156766 0.000000 -0.033081
v -0.155358 -0.013505 -0.031672
v -0.150696 -0.027010 -0.027010
v -0.155358 0.031672 -0.013505
v -0.164760 0.015836 -0.015836
v -0.167447 0.000000 -0.016540
v -0.164760 -0.015836 -0.015836
v -0.155358 -0.031672 -0.013505
v -0.156766 0.033081 -0.000000
v -0.167447 0.016540 -0.000000
v -0.170469 0.000000 -0.000000
v -0.167447 -0.016540 -0.000000
v -0.156766 -0.033081 -0.000000
v -0.155358 0.031672 0.013505
v -0.164760 0.015836 0.015836
v -0.167447 0.000000 0.016540
v -0.164760 -0.015836 0.015836
v -0.155358 -0.031672 0.013505
v -0.150696 0.027010 0.027010
v -0.155358 0.013505 0.031672
v -0.156766 0.000000 0.033081
v -0.155358 -0.013505 0.031672
v -0.150696 -0.027010 0.027010
v -0.089203 -0.000000 0.035010
v -0.089203 0.032860 0.012669
v -0.089203 0.035010 0.000000
v -0.089203 -0.012669 -0.032860
v -0.089203 -0.025339 -0.025339
v -0.089203 -0.032860 0.012669
v -0.089203 -0.025339 0.025339
v -0.072439 -0.017258 0.017258
v -0.072439 -0.017258 -0.017258
v -0.072439 0.023845 0.000000
v -0.072439 -0.000000 0.023845
v -0.072439 -0.023845 0.000000
v -0.072439 0.008629 -0.022381
v -0.072439 0.022381 -0.008629
v -0.072439 0.008629 0.022381
v -0.072439 -0.000000 -0.023845
v -0.072439 0.017258 -0.017258
v -0.072439 -0.022381 -0.008629
v -0.072439 0.017258 0.017258
v -0.072439 -0.008629 0.022381
v -0.072439 0.022381 0.008629
v -0.072439 -0.008629 -0.022381
v -0.072439 -0.022381 0.008629
v -0.056412 0.013021 -0.000000
v -0.056412 -0.000000 0.013021
v -0.056412 -0.013021 -0.000000
v -0.056412 -0.000000 -0.013021
v -0.126385 0.032799 -0.032799
v -0.120967 0.032920 -0.032920
v -0.120978 0.016460 -0.043424
v -0.126375 0.016421 -0.043305
v -0.126373 0.000000 -0.046292
v -0.120982 -0.000000 -0.046400
v -0.120978 -0.016460 -0.043424
v -0.126375 -0.016421 -0.043305
v -0.126385 -0.032799 -0.032799
v -0.120967 -0.032920 -0.032920
v -0.120978 -0.043424 -0.016460
v -0.126375 -0.043305 -0.016421
v -0.126373 -0.046292 -0.000000
v -0.120982 -0.046400 0.000000
v -0.120978 -0.043424 0.016460
v -0.126375 -0.043305 0.016421
v -0.126385 -0.032799 0.032799
v -0.120967 -0.032920 0.032920
v -0.120978 -0.016460 0.043424
v -0.126375 -0.016421 0.043305
v -0.126373 0.000000 0.046292
v -0.120982 -0.000000 0.046400
v -0.120978 0.016460 0.043424
v -0.126375 0.016421 0.043305
v -0.126385 0.032799 0.032799
v -0.120967 0.032920 0.032920
v -0.120978 0.043424 0.016460
v -0.126375 0.043305 0.016421
v -0.126373 0.046292 -0.000000
v -0.120982 0.046400 0.000000
v -0.120978 0.043424 -0.016460
v -0.126375 0.043305 -0.016421
v -0.125575 0.033429 -0.033429
v -0.121723 0.033472 -0.033472
v -0.123662 0.033868 -0.033868
v -0.121747 0.016744 -0.044187
v -0.125567 0.016732 -0.044145
v -0.123667 0.016944 -0.044727
v -0.125567 0.000000 -0.047187
v -0.121756 -0.000000 -0.047226
v -0.123669 0.000000 -0.047807
v -0.121747 -0.016744 -0.044187
v -0.125567 -0.016732 -0.044145
v -0.123667 -0.016944 -0.044727
v -0.125575 -0.033429 -0.033429
v -0.121723 -0.033472 -0.033472
v -0.123662 -0.033868 -0.033868
v -0.121747 -0.044187 -0.016744
v -0.125567 -0.044145 -0.016732
v -0.123667 -0.044727 -0.016944
v -0.125567 -0.047187 -0.000000
v -0.121756 -0.047226 -0.000000
v -0.123669 -0.047807 -0.000000
v -0.121747 -0.044187 0.016744
v -0.125567 -0.044145 0.016732
v -0.123667 -0.044727 0.016944
v -0.125575 -0.033429 0.033429
v -0.121723 -0.033472 0.033472
v -0.123662 -0.033868 0.033868
v -0.121747 -0.016744 0.044187
v -0.125567 -0.016732 0.044145
v -0.123667 -0.016944 0.044727
v -0.125567 0.000000 0.047187
v -0.121756 -0.000000 0.047226
v -0.123669 0.000000 0.047807
v -0.121747 0.016744 0.044187
v -0.125567 0.016732 0.044145
v -0.123667 0.016944 0.044727
v -0.125575 0.033429 0.033429
v -0.121723 0.033472 0.033472
v -0.123662 0.033868 0.033868
v -0.121747 0.044187 0.016744
v -0.125567 0.044145 0.016732
v -0.123667 0.044727 0.016944
v -0.125567 0.047187 -0.000000
v -0.121756 0.047226 -0.000000
v -0.123669 0.047807 -0.000000
v -0.121747 0.044187 -0.016744
v -0.125567 0.044145 -0.016732
v -0.123667 0.044727 -0.016944
v -0.056412 0.012030 -0.004983
v -0.056412 0.012030 0.004983
v -0.056412 0.009207 0.009207
v -0.056412 0.004983 0.012030
v -0.056412 -0.004983 0.012030
v -0.056412 -0.009207 0.009207
v -0.056412 -0.012030 0.004983
v -0.056412 -0.012030 -0.004983
v -0.056412 -0.009207 -0.009207
v -0.056412 -0.004983 -0.012030
v -0.056412 0.004983 -0.012030
v -0.056412 0.009207 -0.009207
v -0.039051 -0.000000 0.000000
v -0.039051 0.011923 -0.011923
v -0.039051 0.015578 -0.006453
v -0.039051 0.015578 0.006453
v -0.039051 0.016862 0.000000
v -0.039051 0.006453 0.015578
v -0.039051 0.011923 0.011923
v -0.039051 -0.006453 0.015578
v -0.039051 -0.000000 0.016862
v -0.039051 -0.015578 0.006453
v -0.039051 -0.011923 0.011923
v -0.039051 -0.015578 -0.006453
v -0.039051 -0.016862 0.000000
v -0.039051 -0.006453 -0.015578
v -0.039051 -0.011923 -0.011923
v -0.039051 0.006453 -0.015578
v -0.039051 -0.000000 -0.016862
v -0.054926 -0.014115 -0.005847
v -0.051525 -0.015578 -0.006453
v -0.053372 -0.015150 -0.006275
v -0.051525 -0.011923 -0.011923
v -0.054926 -0.010803 -0.010803
v -0.053372 -0.011595 -0.011595
v -0.054924 -0.000000 0.015276
v -0.051525 -0.000000 0.016862
v -0.053371 -0.000000 0.016398
v -0.051525 -0.006453 0.015578
v -0.054926 -0.005847 0.014115
v -0.053372 -0.006275 0.015150
v -0.054926 -0.014115 0.005847
v -0.051525 -0.015578 0.006453
v -0.053372 -0.015150 0.006275
v -0.051525 -0.016862 0.000000
v -0.054924 -0.015276 0.000000
v -0.053371 -0.016398 0.000000
v -0.054926 0.014115 0.005847
v -0.051525 0.015578 0.006453
v -0.053372 0.015150 0.006275
v -0.051525 0.011923 0.011923
v -0.054926 0.010803 0.010803
v -0.053372 0.011595 0.011595
v -0.054926 -0.010803 0.010803
v -0.051525 -0.011923 0.011923
v -0.053372 -0.011595 0.011595
v -0.054926 0.005847 0.014115
v -0.051525 0.006453 0.015578
v -0.053372 0.006275 0.015150
v -0.054926 0.010803 -0.010803
v -0.051525 0.011923 -0.011923
v -0.053372 0.011595 -0.011595
v -0.051525 0.015578 -0.006453
v -0.054926 0.014115 -0.005847
v -0.053372 0.015150 -0.006275
v -0.054924 0.015276 0.000000
v -0.051525 0.016862 0.000000
v -0.053371 0.016398 0.000000
v -0.054926 -0.005847 -0.014115
v -0.051525 -0.006453 -0.015578
v -0.053372 -0.006275 -0.015150
v -0.051525 -0.000000 -0.016862
v -0.054924 -0.000000 -0.015276
v -0.053371 -0.000000 -0.016398
v -0.054926 0.005847 -0.014115
v -0.051525 0.006453 -0.015578
v -0.053372 0.006275 -0.015150
v -0.059771 0.016669 -0.006802
v -0.055818 0.012593 -0.005216
v -0.057428 0.015238 -0.006282
v -0.055818 0.013631 0.000000
v -0.059786 0.017988 0.000000
v -0.057432 0.016477 0.000000
v -0.059771 0.016669 0.006802
v -0.055818 0.012593 0.005216
v -0.057428 0.015238 0.006282
v -0.055818 0.009638 0.009638
v -0.059739 0.012767 0.012767
v -0.057418 0.011665 0.011665
v -0.059771 0.006802 0.016669
v -0.055818 0.005216 0.012593
v -0.057428 0.006282 0.015238
v -0.055818 -0.000000 0.013631
v -0.059786 -0.000000 0.017988
v -0.057432 -0.000000 0.016477
v -0.059771 -0.006802 0.016669
v -0.055818 -0.005216 0.012593
v -0.057428 -0.006282 0.015238
v -0.055818 -0.009638 0.009638
v -0.059739 -0.012767 0.012767
v -0.057418 -0.011665 0.011665
v -0.059771 -0.016669 0.006802
v -0.055818 -0.012593 0.005216
v -0.057428 -0.015238 0.006282
v -0.055818 -0.013631 -0.000000
v -0.059786 -0.017988 0.000000
v -0.057432 -0.016477 0.000000
v -0.059771 -0.016669 -0.006802
v -0.055818 -0.012593 -0.005216
v -0.057428 -0.015238 -0.006282
v -0.055818 -0.009638 -0.009638
v -0.059739 -0.012767 -0.012767
v -0.057418 -0.011665 -0.011665
v -0.059771 -0.006802 -0.016669
v -0.055818 -0.005216 -0.012593
v -0.057428 -0.006282 -0.015238
v -0.055818 -0.000000 -0.013631
v -0.059786 -0.000000 -0.017988
v -0.057432 -0.000000 -0.016477
v -0.059771 0.006802 -0.016669
v -0.055818 0.005216 -0.012593
v -0.057428 0.006282 -0.015238
v -0.055818 0.009638 -0.009638
v -0.059739 0.012767 -0.012767
v -0.057418 0.011665 -0.011665
vn -0.1859 -0.3760 -0.9078
vn -0.1859 -0.0000 -0.9826
vn -0.3772 -0.0000 -0.9261
vn -0.3772 -0.3544 -0.8556
vn -0.1859 0.3760 -0.9078
vn -0.3772 0.3544 -0.8556
vn -0.1859 0.6948 -0.6948
vn -0.1859 0.9078 -0.3760
vn -0.3772 0.8556 -0.3544
vn -0.3772 0.6549 -0.6549
vn -0.1859 0.9826 -0.0000
vn -0.3772 0.9261 -0.0000
vn -0.1859 0.9078 0.3760
vn -0.3772 0.8556 0.3544
vn -0.1859 0.6948 0.6948
vn -0.3772 0.6549 0.6549
vn -0.1859 0.3760 0.9078
vn -0.3772 0.3544 0.8556
vn -0.1859 -0.0000 0.9826
vn -0.3772 -0.0000 0.9261
vn -0.1859 -0.3760 0.9078
vn -0.3772 -0.3544 0.8556
vn -0.1859 -0.6948 0.6948
vn -0.3772 -0.6549 0.6549
vn -0.1859 -0.9078 0.3760
vn -0.3772 -0.8556 0.3544
vn -0.1859 -0.9826 -0.0000
vn -0.3772 -0.9261 -0.0000
vn -0.1859 -0.9078 -0.3760
vn -0.3772 -0.8556 -0.3544
vn -0.1859 -0.6948 -0.6948
vn -0.3772 -0.6549 -0.6549
vn -0.0063 0.3827 -0.9239
vn -0.0063 -0.0000 -1.0000
vn -0.6469 -0.0000 -0.7626
vn -0.6469 0.2918 -0.7046
vn -0.0063 0.7071 -0.7071
vn -0.6469 0.5392 -0.5392
vn -0.0063 0.7071 0.7071
vn -0.0063 0.9239 0.3827
vn -0.6469 0.7046 0.2918
vn -0.6469 0.5392 0.5392
vn -0.0063 0.9239 -0.3827
vn -0.6469 0.7046 -0.2918
vn -0.0063 1.0000 -0.0000
vn -0.6469 0.7626 -0.0000
vn -0.8580 -0.3632 0.3632
vn -0.8580 -0.4745 0.1966
vn -0.9997 0.0212 -0.0088
vn -0.9997 0.0162 -0.0162
vn -0.8580 -0.3632 -0.3632
vn -0.8580 -0.1966 -0.4745
vn -0.9997 0.0088 0.0212
vn -0.9997 0.0162 0.0162
vn -0.0063 0.3827 0.9239
vn -0.6469 0.2918 0.7046
vn -0.6013 0.3058 -0.7382
vn -0.6013 0.5650 -0.5650
vn -0.7685 0.4524 -0.4524
vn -0.7685 0.2449 -0.5911
vn -0.6013 0.7382 -0.3058
vn -0.7685 0.5911 -0.2449
vn -0.6013 -0.0000 -0.7990
vn -0.7685 -0.0000 -0.6398
vn -0.6013 -0.3058 -0.7382
vn -0.7685 -0.2449 -0.5911
vn -0.6013 -0.5650 -0.5650
vn -0.7685 -0.4524 -0.4524
vn -0.6013 -0.7382 -0.3058
vn -0.7685 -0.5911 -0.2449
vn -0.6013 -0.7990 -0.0000
vn -0.7685 -0.6398 -0.0000
vn -0.6013 -0.7382 0.3058
vn -0.7685 -0.5911 0.2449
vn -0.6013 -0.5650 0.5650
vn -0.7685 -0.4524 0.4524
vn -0.6013 -0.3058 0.7382
vn -0.7685 -0.2449 0.5911
vn -0.6013 -0.0000 0.7990
vn -0.7685 -0.0000 0.6398
vn -0.6013 0.3058 0.7382
vn -0.7685 0.2449 0.5911
vn -0.6013 0.5650 0.5650
vn -0.7685 0.4524 0.4524
vn -0.6013 0.7382 0.3058
vn -0.7685 0.5911 0.2449
vn -0.6013 0.7990 -0.0000
vn -0.7685 0.6398 -0.0000
vn -0.0473 -0.7063 -0.7063
vn -0.0473 -0.3823 -0.9228
vn -0.0764 -0.3816 -0.9212
vn -0.0764 -0.7050 -0.7050
vn -0.0473 -0.9228 -0.3823
vn -0.0764 -0.9212 -0.3816
vn -0.0473 -0.9989 -0.0000
vn -0.0764 -0.9971 -0.0000
vn -0.0473 -0.9228 0.3823
vn -0.0764 -0.9212 0.3816
vn -0.0473 -0.7063 0.7063
vn -0.0764 -0.7050 0.7050
vn -0.0473 -0.3823 0.9228
vn -0.0764 -0.3816 0.9212
vn -0.0473 -0.0000 0.9989
vn -0.0764 -0.0000 0.9971
vn -0.0473 0.3823 0.9228
vn -0.0764 0.3816 0.9212
vn -0.0473 0.7063 0.7063
vn -0.0764 0.7050 0.7050
vn -0.0473 0.9228 0.3823
vn -0.0764 0.9212 0.3816
vn -0.0473 0.9989 -0.0000
vn -0.0764 0.9971 -0.0000
vn -0.0473 0.9228 -0.3823
vn -0.0764 0.9212 -0.3816
vn -0.0473 0.3823 -0.9228
vn -0.0473 0.7063 -0.7063
vn -0.0764 0.7050 -0.7050
vn -0.0764 0.3816 -0.9212
vn -0.0473 -0.0000 -0.9989
vn -0.0764 -0.0000 -0.9971
vn 0.1717 0.3770 0.9102
vn 0.4257 0.3463 0.8360
vn 0.4257 -0.0000 0.9049
vn 0.1717 -0.0000 0.9851
vn 0.6101 0.7923 -0.0000
vn 0.6101 0.7320 0.3032
vn 0.9761 0.2007 0.0832
vn 0.9761 0.2173 -0.0000
vn 0.4257 -0.3463 0.8360
vn 0.1717 -0.3770 0.9102
vn 0.1717 -0.6966 0.6966
vn 0.4257 -0.6398 0.6398
vn 0.4257 -0.8360 0.3463
vn 0.1717 -0.9102 0.3770
vn 0.4257 -0.9049 -0.0000
vn 0.1717 -0.9851 -0.0000
vn 0.4257 -0.8360 -0.3463
vn 0.1717 -0.9102 -0.3770
vn 0.4257 -0.6398 -0.6398
vn 0.1717 -0.6966 -0.6966
vn 0.4257 -0.3463 -0.8360
vn 0.1717 -0.3770 -0.9102
vn 0.4257 -0.0000 -0.9049
vn 0.1717 -0.0000 -0.9851
vn 0.4257 0.3463 -0.8360
vn 0.1717 0.3770 -0.9102
vn 0.4257 0.6398 -0.6398
vn 0.1717 0.6966 -0.6966
vn 0.4257 0.8360 -0.3463
vn 0.1717 0.9102 -0.3770
vn 0.4257 0.9049 -0.0000
vn 0.1717 0.9851 -0.0000
vn 0.4257 0.8360 0.3463
vn 0.1717 0.9102 0.3770
vn 0.4257 0.6398 0.6398
vn 0.1717 0.6966 0.6966
vn 0.6101 0.5603 0.5603
vn 0.9761 0.1536 0.1536
vn 0.7869 -0.6170 -0.0000
vn 0.9295 -0.3689 -0.0000
vn 0.9295 -0.3408 -0.1412
vn 0.7869 -0.5701 -0.2361
vn 0.6101 0.3032 0.7320
vn 0.6101 -0.0000 0.7923
vn 0.9761 -0.0000 0.2173
vn 0.9761 0.0832 0.2008
vn 0.7869 -0.4363 -0.4363
vn 0.9295 -0.2608 -0.2608
vn 0.9295 -0.1412 -0.3408
vn 0.7869 -0.2361 -0.5701
vn 0.6101 -0.3032 0.7320
vn 0.6101 -0.5603 0.5603
vn 0.9761 -0.1536 0.1536
vn 0.9761 -0.0832 0.2008
vn 0.7869 -0.0000 -0.6170
vn 0.9295 -0.0000 -0.3689
vn 0.9295 0.1412 -0.3408
vn 0.7869 0.2361 -0.5701
vn 0.6101 -0.7320 0.3032
vn 0.6101 -0.7923 -0.0000
vn 0.9761 -0.2173 -0.0000
vn 0.9761 -0.2007 0.0832
vn 0.7869 0.4363 -0.4363
vn 0.9295 0.2608 -0.2609
vn 0.9295 0.3408 -0.1412
vn 0.7869 0.5701 -0.2361
vn 0.6101 -0.7320 -0.3032
vn 0.6101 -0.5603 -0.5603
vn 0.9761 -0.1536 -0.1536
vn 0.9761 -0.2007 -0.0832
vn 0.7869 0.6170 -0.0000
vn 0.9295 0.3689 -0.0000
vn 0.9295 0.3408 0.1412
vn 0.7869 0.5701 0.2361
vn 0.6101 -0.3032 -0.7320
vn 0.6101 -0.0000 -0.7923
vn 0.9761 -0.0000 -0.2173
vn 0.9761 -0.0832 -0.2007
vn 0.7869 0.4363 0.4363
vn 0.9295 0.2608 0.2609
vn 0.9295 0.1412 0.3408
vn 0.7869 0.2361 0.5701
vn 0.6101 0.3032 -0.7320
vn 0.6101 0.5603 -0.5603
vn 0.9761 0.1536 -0.1536
vn 0.9761 0.0832 -0.2007
vn 0.6101 0.7320 -0.3032
vn 0.9761 0.2007 -0.0832
vn 0.6559 -0.2889 0.6974
vn 0.7869 -0.2361 0.5701
vn 0.7869 -0.4363 0.4363
vn 0.6559 -0.5338 0.5338
vn 0.7869 -0.5701 0.2361
vn 0.6559 -0.6974 0.2889
vn 0.6559 -0.0000 0.7549
vn 0.7869 -0.0000 0.6170
vn 0.6559 0.2889 0.6974
vn 0.6559 0.5338 0.5338
vn 0.6559 0.6974 0.2889
vn 0.6559 0.7549 -0.0000
vn 0.6559 0.6974 -0.2889
vn 0.6559 0.5338 -0.5338
vn 0.6559 0.2889 -0.6974
vn 0.6559 -0.0000 -0.7549
vn 0.6559 -0.2889 -0.6974
vn 0.6559 -0.5338 -0.5338
vn 0.6559 -0.6974 -0.2889
vn 0.6559 -0.7549 -0.0000
vn 0.0453 0.7064 0.7064
vn 0.0592 0.7059 0.7059
vn 0.0592 0.3820 0.9223
vn 0.0453 0.3823 0.9229
vn 0.0453 0.9229 0.3823
vn 0.0592 0.9223 0.3820
vn 0.0453 0.9990 -0.0000
vn 0.0592 0.9982 -0.0000
vn 0.0453 0.9229 -0.3823
vn 0.0592 0.9223 -0.3820
vn 0.0453 0.7064 -0.7064
vn 0.0592 0.7059 -0.7059
vn 0.0453 0.3823 -0.9229
vn 0.0592 0.3820 -0.9223
vn 0.0453 -0.0000 -0.9990
vn 0.0592 -0.0000 -0.9982
vn 0.0453 -0.3823 -0.9229
vn 0.0592 -0.3820 -0.9223
vn 0.0453 -0.7064 -0.7064
vn 0.0592 -0.7059 -0.7059
vn 0.0453 -0.9229 -0.3823
vn 0.0592 -0.9223 -0.3820
vn 0.0453 -0.9990 -0.0000
vn 0.0592 -0.9982 -0.0000
vn 0.0453 -0.9229 0.3823
vn 0.0592 -0.9223 0.3820
vn 0.0453 -0.3823 0.9229
vn 0.0592 -0.3820 0.9223
vn 0.0592 -0.7059 0.7059
vn 0.0453 -0.7064 0.7064
vn 0.0453 -0.0000 0.9990
vn 0.0592 -0.0000 0.9982
vn 0.9295 -0.2608 0.2608
vn 0.9295 -0.3408 0.1412
vn 0.9295 -0.0000 0.3689
vn 0.9295 -0.1412 0.3408
vn -0.8199 0.4048 -0.4048
vn -0.8199 0.2191 -0.5289
vn -0.8199 0.5289 -0.2191
vn -0.8199 -0.0000 -0.5725
vn -0.8199 -0.2191 -0.5289
vn -0.8199 -0.4048 -0.4048
vn -0.8199 -0.5289 -0.2191
vn -0.8199 -0.5725 -0.0000
vn -0.8199 -0.5289 0.2191
vn -0.8199 -0.4048 0.4048
vn -0.8199 -0.2191 0.5289
vn -0.8199 -0.0000 0.5725
vn -0.8199 0.2191 0.5289
vn -0.8199 0.4048 0.4048
vn -0.8199 0.5289 0.2191
vn -0.8199 0.5725 -0.0000
vn -0.8580 -0.4745 -0.1966
vn -0.9997 0.0212 0.0088
vn -0.8580 -0.0000 -0.5136
vn -0.9997 -0.0000 0.0229
vn -0.8580 0.1966 -0.4745
vn -0.9997 -0.0088 0.0212
vn -0.8580 0.3632 -0.3632
vn -0.9997 -0.0162 0.0162
vn -0.8580 0.4745 -0.1966
vn -0.9997 -0.0212 0.0088
vn -0.8580 0.5136 -0.0000
vn -0.9997 -0.0229 -0.0000
vn -0.8580 0.4745 0.1966
vn -0.9997 -0.0212 -0.0088
vn -0.0063 -0.7071 -0.7071
vn -0.0063 -0.9239 -0.3827
vn -0.6469 -0.7046 -0.2918
vn -0.6469 -0.5392 -0.5392
vn -0.8580 0.3632 0.3632
vn -0.9997 -0.0162 -0.0162
vn -0.8580 0.1966 0.4745
vn -0.9997 -0.0088 -0.0212
vn -0.8580 -0.0000 0.5136
vn -0.9997 -0.0000 -0.0229
vn -0.8580 -0.1966 0.4745
vn -0.9997 0.0088 -0.0212
vn -0.8580 -0.5136 -0.0000
vn -0.9997 0.0229 -0.0000
vn -0.0063 -0.3827 -0.9239
vn -0.6469 -0.2918 -0.7046
vn -0.0063 -1.0000 -0.0000
vn -0.6469 -0.7626 -0.0000
vn -0.0063 -0.9239 0.3827
vn -0.6469 -0.7046 0.2918
vn -0.0063 -0.7071 0.7071
vn -0.6469 -0.5392 0.5392
vn -0.0063 -0.3827 0.9239
vn -0.6469 -0.2918 0.7046
vn -0.0063 -0.0000 1.0000
vn -0.6469 -0.0000 0.7626
vn 1.0000 -0.0003 -0.0007
vn 1.0000 -0.0000 -0.0007
vn 1.0000 -0.0000 -0.0002
vn 1.0000 -0.0002 0.0002
vn 1.0000 -0.0002 -0.0002
vn 1.0000 -0.0000 0.0002
vn 1.0000 -0.0000 0.0007
vn 1.0000 -0.0003 0.0007
vn 1.0000 -0.0000 -0.0003
vn 1.0000 0.0001 -0.0000
vn 1.0000 -0.0000 -0.0000
vn 1.0000 -0.0000 0.0003
vn 1.0000 0.0002 -0.0002
vn 1.0000 -0.0001 -0.0000
vn 1.0000 0.0003 -0.0007
vn 1.0000 0.0002 0.0002
vn 1.0000 0.0003 0.0007
vn -0.0454 -0.7064 -0.7064
vn -0.0454 -0.3823 -0.9229
vn -0.0454 -0.9229 -0.3823
vn -0.0454 -0.9990 -0.0000
vn -0.0454 -0.9229 0.3823
vn -0.0454 -0.7064 0.7064
vn -0.0454 -0.3823 0.9229
vn -0.0454 -0.0000 0.9990
vn -0.0454 0.3823 0.9229
vn -0.0454 0.7064 0.7064
vn -0.0454 0.9229 0.3823
vn -0.0454 0.9990 -0.0000
vn -0.0454 0.9229 -0.3823
vn -0.0454 0.3823 -0.9229
vn -0.0454 0.7064 -0.7064
vn -0.0454 -0.0000 -0.9990
vn 0.2974 0.6751 0.6751
vn 0.3036 0.3352 0.8919
vn 0.5214 0.2941 0.8010
vn 0.5273 0.6008 0.6008
vn 0.3036 -0.8919 0.3352
vn 0.3107 -0.9505 -0.0000
vn 0.5194 -0.8545 -0.0000
vn 0.5214 -0.8010 0.2941
vn 0.3036 -0.3352 -0.8919
vn 0.3107 -0.0000 -0.9505
vn 0.5194 -0.0000 -0.8545
vn 0.5214 -0.2941 -0.8010
vn 0.3036 0.3352 -0.8919
vn 0.5214 0.2941 -0.8010
vn -0.1586 0.6982 -0.6982
vn -0.1679 0.3549 -0.9197
vn -0.3403 0.3398 -0.8768
vn -0.3038 0.6737 -0.6737
vn -0.1774 -0.0000 -0.9841
vn -0.3609 -0.0000 -0.9326
vn -0.1679 -0.3549 -0.9197
vn -0.3403 -0.3398 -0.8768
vn -0.1586 -0.6982 -0.6982
vn -0.3038 -0.6737 -0.6737
vn -0.1679 0.9197 -0.3549
vn -0.3403 0.8768 -0.3398
vn 0.1191 -0.3507 -0.9289
vn 0.1346 -0.0000 -0.9909
vn 0.2974 -0.6751 -0.6751
vn 0.1039 -0.7033 -0.7033
vn 0.3036 -0.8919 -0.3352
vn 0.1191 -0.9289 -0.3507
vn -0.6737 0.3036 -0.6737
vn -0.5774 0.5774 -0.5774
vn -0.7071 -0.0000 -0.7071
vn -0.6737 -0.3036 -0.6737
vn -0.5774 -0.5774 -0.5774
vn 0.3107 -0.0000 0.9505
vn 0.5194 -0.0000 0.8545
vn 0.2974 0.6751 -0.6751
vn 0.3036 0.8919 -0.3352
vn 0.5214 0.8010 -0.2941
vn 0.5273 0.6008 -0.6008
vn 0.3107 0.9505 -0.0000
vn 0.5194 0.8545 -0.0000
vn 0.5273 -0.6008 -0.6008
vn 0.5214 -0.8010 -0.2941
vn -0.1679 -0.9197 -0.3549
vn -0.3403 -0.8768 -0.3398
vn -0.1774 -0.9841 -0.0000
vn -0.3609 -0.9326 -0.0000
vn -0.1679 -0.9197 0.3549
vn -0.3403 -0.8768 0.3398
vn -0.1586 -0.6982 0.6982
vn -0.3038 -0.6737 0.6737
vn 0.1346 -0.9909 -0.0000
vn 0.1191 -0.9289 0.3507
vn 0.2974 -0.6751 0.6751
vn 0.1039 -0.7033 0.7033
vn 0.3036 -0.3352 0.8919
vn 0.1191 -0.3507 0.9289
vn -0.6737 -0.6737 -0.3036
vn -0.7071 -0.7071 -0.0000
vn -0.6737 -0.6737 0.3036
vn -0.5774 -0.5774 0.5774
vn 0.5273 -0.6008 0.6008
vn 0.5214 -0.2941 0.8010
vn 0.3036 0.8919 0.3352
vn 0.5214 0.8010 0.2941
vn -0.1679 -0.3549 0.9197
vn -0.3403 -0.3398 0.8768
vn -0.1774 -0.0000 0.9841
vn -0.3609 -0.0000 0.9326
vn -0.1679 0.3549 0.9197
vn -0.3403 0.3398 0.8768
vn -0.1586 0.6982 0.6982
vn -0.3038 0.6737 0.6737
vn 0.1346 -0.0000 0.9909
vn 0.1191 0.3507 0.9289
vn 0.1039 0.7033 0.7033
vn 0.1191 0.9289 0.3507
vn -0.6737 -0.3036 0.6737
vn -0.7071 -0.0000 0.7071
vn -0.6737 0.3036 0.6737
vn -0.5774 0.5774 0.5774
vn -0.1679 0.9197 0.3549
vn -0.3403 0.8768 0.3398
vn -0.1774 0.9841 -0.0000
vn -0.3609 0.9326 -0.0000
vn 0.1191 0.3507 -0.9289
vn 0.1039 0.7033 -0.7033
vn 0.1346 0.9909 -0.0000
vn 0.1191 0.9289 -0.3507
vn -0.6737 0.6737 0.3036
vn -0.7071 0.7071 -0.0000
vn -0.6737 0.6737 -0.3036
vn 0.4982 -0.8125 -0.3028
vn 0.5066 -0.6097 -0.6097
vn 0.4913 -0.6159 -0.6159
vn 0.4858 -0.8132 -0.3204
vn 0.4982 -0.3028 0.8125
vn 0.5066 -0.6097 0.6097
vn 0.4913 -0.6159 0.6159
vn 0.4858 -0.3204 0.8132
vn 0.4982 0.8125 0.3028
vn 0.5066 0.6097 0.6097
vn 0.4913 0.6159 0.6159
vn 0.4858 0.8132 0.3204
vn 0.4982 -0.3028 -0.8125
vn 0.4946 -0.0000 -0.8691
vn 0.4820 -0.0000 -0.8762
vn 0.4858 -0.3204 -0.8132
vn 0.4982 -0.8125 0.3028
vn 0.4946 -0.8691 -0.0000
vn 0.4820 -0.8762 -0.0000
vn 0.4858 -0.8132 0.3204
vn -0.8766 0.3403 -0.3403
vn -0.9326 -0.0000 -0.3610
vn -0.8766 -0.3403 -0.3403
vn -0.9326 0.3610 -0.0000
vn -1.0000 -0.0000 -0.0000
vn -0.9326 -0.3610 -0.0000
vn -0.8766 0.3403 0.3403
vn -0.9326 -0.0000 0.3610
vn -0.8766 -0.3403 0.3403
vn 0.4946 0.8691 -0.0000
vn 0.4946 -0.0000 0.8691
vn 0.5066 0.6097 -0.6097
vn 0.4982 0.3028 -0.8125
vn 0.4982 0.8125 -0.3028
vn 0.4982 0.3028 0.8125
vn 0.4820 -0.0000 0.8762
vn 0.4858 0.3204 0.8132
vn 0.4858 0.8132 -0.3204
vn 0.4913 0.6159 -0.6159
vn 0.4820 0.8762 -0.0000
vn 0.4858 0.3204 -0.8132
vn -0.5281 0.6005 -0.6005
vn -0.5299 0.3108 -0.7891
vn -0.7417 0.2472 -0.6236
vn -0.7410 0.4748 -0.4748
vn -0.7417 0.6236 -0.2472
vn -0.5299 0.7891 -0.3108
vn -0.5320 -0.0000 -0.8467
vn -0.5299 -0.3108 -0.7891
vn -0.7417 -0.2472 -0.6236
vn -0.7428 -0.0000 -0.6695
vn 0.7254 -0.2528 -0.6402
vn 0.7230 -0.4885 -0.4885
vn 0.5055 -0.6101 -0.6101
vn 0.5094 -0.3148 -0.8009
vn -0.5281 -0.6005 -0.6005
vn -0.5299 -0.7891 -0.3108
vn -0.7417 -0.6236 -0.2472
vn -0.7410 -0.4748 -0.4748
vn 0.7254 -0.6402 -0.2528
vn 0.7284 -0.6851 -0.0000
vn 0.5137 -0.8580 -0.0000
vn 0.5094 -0.8009 -0.3148
vn -0.5320 -0.8467 -0.0000
vn -0.5299 -0.7891 0.3108
vn -0.7417 -0.6236 0.2472
vn -0.7428 -0.6695 -0.0000
vn 0.7254 -0.6402 0.2528
vn 0.7230 -0.4885 0.4885
vn 0.5055 -0.6101 0.6101
vn 0.5094 -0.8009 0.3148
vn -0.5281 -0.6005 0.6005
vn -0.5299 -0.3108 0.7891
vn -0.7417 -0.2472 0.6236
vn -0.7410 -0.4748 0.4748
vn 0.7254 -0.2528 0.6402
vn 0.7284 -0.0000 0.6851
vn 0.5137 -0.0000 0.8579
vn 0.5094 -0.3148 0.8009
vn -0.5320 -0.0000 0.8467
vn -0.5299 0.3108 0.7891
vn -0.7417 0.2472 0.6236
vn -0.7428 -0.0000 0.6695
vn 0.7254 0.2528 0.6402
vn 0.7230 0.4885 0.4885
vn 0.5055 0.6101 0.6101
vn 0.5094 0.3148 0.8009
vn -0.5281 0.6005 0.6005
vn -0.5299 0.7891 0.3108
vn -0.7417 0.6236 0.2472
vn -0.7410 0.4748 0.4748
vn 0.7254 0.6402 0.2528
vn 0.7284 0.6851 -0.0000
vn 0.5137 0.8580 -0.0000
vn 0.5094 0.8009 0.3148
vn -0.5320 0.8467 -0.0000
vn -0.7428 0.6695 -0.0000
vn 0.7284 -0.0000 -0.6851
vn 0.5137 -0.0000 -0.8580
vn 0.7254 0.6402 -0.2528
vn 0.5094 0.8009 -0.3148
vn 0.7254 0.2528 -0.6402
vn 0.5094 0.3148 -0.8009
vn 0.7230 0.4885 -0.4885
vn 0.5055 0.6101 -0.6101
vn -0.0134 0.7070 -0.7070
vn -0.0122 0.3656 -0.9307
vn -0.0109 -0.0000 -0.9999
vn -0.0122 -0.3656 -0.9307
vn -0.0134 -0.7070 -0.7070
vn -0.0122 -0.9307 -0.3656
vn -0.0109 -0.9999 -0.0000
vn -0.0122 -0.9307 0.3656
vn -0.0134 -0.7070 0.7070
vn -0.0122 -0.3656 0.9307
vn -0.0109 -0.0000 0.9999
vn -0.0122 0.3656 0.9307
vn -0.0134 0.7070 0.7070
vn -0.0122 0.9307 0.3656
vn -0.0109 0.9999 -0.0000
vn -0.0122 0.9307 -0.3656
vn -0.1208 -0.7019 -0.7019
vn -0.1209 -0.3799 -0.9171
vn -0.0000 -0.3827 -0.9239
vn -0.0000 -0.7071 -0.7071
vn -0.8349 -0.0000 0.5504
vn -0.8351 -0.2103 0.5083
vn -0.7108 -0.2690 0.6499
vn -0.7108 -0.0000 0.7034
vn -0.8351 0.5083 0.2103
vn -0.8352 0.3888 0.3888
vn -0.7108 0.4974 0.4974
vn -0.7108 0.6499 0.2690
vn -0.1208 0.7019 0.7019
vn -0.1209 0.3799 0.9171
vn -0.0000 0.3827 0.9239
vn -0.0000 0.7071 0.7071
vn -0.8352 -0.3888 0.3888
vn -0.8351 -0.5083 0.2103
vn -0.7108 -0.6499 0.2690
vn -0.7108 -0.4974 0.4974
vn -0.8351 0.2103 0.5083
vn -0.7108 0.2690 0.6499
vn -0.1209 0.9171 -0.3799
vn -0.1209 0.9927 -0.0000
vn -0.0000 1.0000 -0.0000
vn -0.0000 0.9239 -0.3827
vn -0.8349 -0.5504 -0.0000
vn -0.8351 -0.5083 -0.2103
vn -0.7108 -0.6499 -0.2690
vn -0.7108 -0.7034 -0.0000
vn -0.8349 0.5504 -0.0000
vn -0.7108 0.7034 -0.0000
vn -0.1209 -0.0000 -0.9927
vn -0.1209 0.3799 -0.9171
vn -0.0000 0.3827 -0.9239
vn -0.0000 -0.0000 -1.0000
vn -0.8352 -0.3888 -0.3888
vn -0.8351 -0.2103 -0.5083
vn -0.7108 -0.2690 -0.6499
vn -0.7108 -0.4974 -0.4974
vn -0.8351 0.2103 -0.5083
vn -0.8352 0.3888 -0.3888
vn -0.7108 0.4974 -0.4974
vn -0.7108 0.2690 -0.6499
vn -0.8349 -0.0000 -0.5504
vn -0.7108 -0.0000 -0.7034
vn -0.8351 0.5083 -0.2103
vn -0.7108 0.6499 -0.2690
vn -0.1208 0.7019 -0.7019
vn -0.0000 0.7071 -0.7071
vn -0.1209 -0.0000 0.9927
vn -0.0000 -0.0000 1.0000
vn -0.1209 0.9171 0.3799
vn -0.0000 0.9239 0.3827
vn -0.1209 -0.9171 -0.3799
vn -0.0000 -0.9239 -0.3827
vn -0.1209 -0.3799 0.9171
vn -0.0000 -0.3827 0.9239
vn -0.1209 -0.9171 0.3799
vn -0.1209 -0.9927 -0.0000
vn -0.0000 -1.0000 -0.0000
vn -0.0000 -0.9239 0.3827
vn -0.1208 -0.7019 0.7019
vn -0.0000 -0.7071 0.7071
vn -0.4131 0.8414 -0.3484
vn -0.4132 0.9106 -0.0000
vn -0.4132 -0.0000 -0.9106
vn -0.4131 0.3484 -0.8414
vn -0.4129 0.6440 -0.6440
vn -0.4129 0.6440 0.6440
vn -0.4131 0.3484 0.8414
vn -0.4129 -0.6440 -0.6440
vn -0.4131 -0.3484 -0.8414
vn -0.4131 0.8414 0.3484
vn -0.4132 -0.9106 -0.0000
vn -0.4131 -0.8414 -0.3484
vn -0.4131 -0.3484 0.8414
vn -0.4129 -0.6440 0.6440
vn -0.4132 -0.0000 0.9106
vn -0.4131 -0.8414 0.3484
vn 0.7152 0.6467 -0.2649
vn 0.7171 0.4928 -0.4928
vn 0.8711 0.4540 -0.1871
vn 0.8719 0.3462 -0.3462
vn 0.8711 0.4540 0.1871
vn 0.8705 0.4922 -0.0000
vn 0.7136 0.7005 -0.0000
vn 0.7152 0.6467 0.2649
vn 0.8711 0.1871 0.4540
vn 0.8719 0.3462 0.3462
vn 0.7171 0.4928 0.4928
vn 0.7152 0.2649 0.6467
vn 0.8711 -0.1871 0.4540
vn 0.8705 -0.0000 0.4922
vn 0.7136 -0.0000 0.7005
vn 0.7152 -0.2649 0.6467
vn 0.8711 -0.4540 0.1871
vn 0.8719 -0.3462 0.3462
vn 0.7171 -0.4928 0.4928
vn 0.7152 -0.6467 0.2649
vn 0.8711 -0.4540 -0.1871
vn 0.8705 -0.4922 -0.0000
vn 0.7136 -0.7005 -0.0000
vn 0.7152 -0.6467 -0.2649
vn 0.8711 -0.1871 -0.4540
vn 0.8719 -0.3462 -0.3462
vn 0.7171 -0.4928 -0.4928
vn 0.7152 -0.2649 -0.6467
vn 0.8711 0.1871 -0.4540
vn 0.8705 -0.0000 -0.4922
vn 0.7136 -0.0000 -0.7005
vn 0.7152 0.2649 -0.6467
vt 0.863461 0.111427
vt 0.840976 0.111427
vt 0.840976 0.088092
vt 0.863461 0.088092
vt 0.818491 0.111427
vt 0.818491 0.088092
vt 0.796006 0.111427
vt 0.773521 0.111427
vt 0.773521 0.088092
vt 0.796006 0.088092
vt 0.751036 0.111427
vt 0.751036 0.088092
vt 0.728552 0.111427
vt 0.728552 0.088092
vt 0.706067 0.111427
vt 0.706067 0.088092
vt 0.683582 0.111427
vt 0.683582 0.088092
vt 0.661097 0.111427
vt 0.661097 0.088092
vt 0.638612 0.111427
vt 0.638612 0.088092
vt 0.616127 0.111427
vt 0.616127 0.088092
vt 0.593642 0.111427
vt 0.593642 0.088092
vt 0.571158 0.111427
vt 0.571158 0.088092
vt 0.930915 0.111427
vt 0.908430 0.111427
vt 0.908430 0.088092
vt 0.930915 0.088092
vt 0.885945 0.111427
vt 0.885945 0.088092
vt 0.148050 0.023204
vt 0.120614 0.023204
vt 0.120614 0.019561
vt 0.148050 0.019561
vt 0.175486 0.023204
vt 0.175486 0.019561
vt 0.285230 0.023204
vt 0.257794 0.023204
vt 0.257794 0.019561
vt 0.285230 0.019561
vt 0.202922 0.023204
vt 0.202922 0.019561
vt 0.230358 0.023204
vt 0.230358 0.019561
vt 0.175486 0.008017
vt 0.202922 0.008017
vt 0.202922 0.013506
vt 0.175486 0.013506
vt 0.285230 0.008017
vt 0.312666 0.008017
vt 0.312666 0.013506
vt 0.285230 0.013506
vt 0.312666 0.023204
vt 0.312666 0.019561
vt 0.818491 0.062733
vt 0.796006 0.062733
vt 0.796006 0.036701
vt 0.818491 0.036701
vt 0.773521 0.062733
vt 0.773521 0.036701
vt 0.840976 0.062733
vt 0.840976 0.036701
vt 0.863461 0.062733
vt 0.863461 0.036701
vt 0.885945 0.062733
vt 0.885945 0.036701
vt 0.908430 0.062733
vt 0.908430 0.036701
vt 0.930915 0.062733
vt 0.930915 0.036701
vt 0.593642 0.062733
vt 0.571158 0.062733
vt 0.571158 0.036701
vt 0.593642 0.036701
vt 0.616127 0.062733
vt 0.616127 0.036701
vt 0.638612 0.062733
vt 0.638612 0.036701
vt 0.661097 0.062733
vt 0.661097 0.036701
vt 0.683582 0.062733
vt 0.683582 0.036701
vt 0.706067 0.062733
vt 0.706067 0.036701
vt 0.728552 0.062733
vt 0.728552 0.036701
vt 0.751036 0.062733
vt 0.751036 0.036701
vt 0.885945 0.290974
vt 0.863461 0.290974
vt 0.863461 0.134768
vt 0.885945 0.134768
vt 0.908430 0.290974
vt 0.908430 0.134768
vt 0.930915 0.290974
vt 0.930915 0.134768
vt 0.593642 0.290974
vt 0.571158 0.290974
vt 0.571158 0.134768
vt 0.593642 0.134768
vt 0.616127 0.290974
vt 0.616127 0.134768
vt 0.638612 0.290974
vt 0.638612 0.134768
vt 0.661097 0.290974
vt 0.661097 0.134768
vt 0.683582 0.290974
vt 0.683582 0.134768
vt 0.706067 0.290974
vt 0.706067 0.134768
vt 0.728552 0.290974
vt 0.728552 0.134768
vt 0.751036 0.290974
vt 0.751036 0.134768
vt 0.773521 0.290974
vt 0.773521 0.134768
vt 0.818491 0.290974
vt 0.796006 0.290974
vt 0.796006 0.134768
vt 0.818491 0.134768
vt 0.840976 0.290974
vt 0.840976 0.134768
vt 0.093178 0.135007
vt 0.093178 0.110191
vt 0.120614 0.110191
vt 0.120614 0.135007
vt 0.230358 0.026829
vt 0.257794 0.026829
vt 0.257794 0.031596
vt 0.230358 0.031596
vt 0.148050 0.110191
vt 0.148050 0.135007
vt 0.175486 0.135007
vt 0.175486 0.110191
vt 0.202922 0.110191
vt 0.202922 0.135007
vt 0.230358 0.110191
vt 0.230358 0.135007
vt 0.257794 0.110191
vt 0.257794 0.135007
vt 0.285230 0.110191
vt 0.285230 0.135007
vt 0.312666 0.110191
vt 0.312666 0.135007
vt 0.340102 0.110191
vt 0.340102 0.135007
vt 0.367538 0.110191
vt 0.367538 0.135007
vt 0.394974 0.110191
vt 0.394974 0.135007
vt 0.422410 0.110191
vt 0.422410 0.135007
vt 0.449846 0.110191
vt 0.449846 0.135007
vt 0.010870 0.135007
vt 0.010870 0.110191
vt 0.038306 0.110191
vt 0.038306 0.135007
vt 0.065742 0.110191
vt 0.065742 0.135007
vt 0.285230 0.026829
vt 0.285230 0.031596
vt 0.230358 0.065068
vt 0.230358 0.038609
vt 0.257794 0.038609
vt 0.257794 0.065068
vt 0.312666 0.026829
vt 0.340102 0.026829
vt 0.340102 0.031596
vt 0.312666 0.031596
vt 0.285230 0.065068
vt 0.285230 0.038609
vt 0.312666 0.038609
vt 0.312666 0.065068
vt 0.367538 0.026829
vt 0.394974 0.026829
vt 0.394974 0.031596
vt 0.367538 0.031596
vt 0.340102 0.065068
vt 0.340102 0.038609
vt 0.367538 0.038609
vt 0.367538 0.065068
vt 0.422410 0.026829
vt 0.449846 0.026829
vt 0.449846 0.031596
vt 0.422410 0.031596
vt 0.394974 0.065068
vt 0.394974 0.038609
vt 0.422410 0.038609
vt 0.422410 0.065068
vt 0.038306 0.026829
vt 0.065742 0.026829
vt 0.065742 0.031596
vt 0.038306 0.031596
vt 0.010870 0.065068
vt 0.010870 0.038609
vt 0.038306 0.038609
vt 0.038306 0.065068
vt 0.093178 0.026829
vt 0.120614 0.026829
vt 0.120614 0.031596
vt 0.093178 0.031596
vt 0.065742 0.065068
vt 0.065742 0.038609
vt 0.093178 0.038609
vt 0.093178 0.065068
vt 0.148050 0.026829
vt 0.175486 0.026829
vt 0.175486 0.031596
vt 0.148050 0.031596
vt 0.202922 0.026829
vt 0.202922 0.031596
vt 0.148050 0.088273
vt 0.148050 0.065068
vt 0.175486 0.065068
vt 0.175486 0.088273
vt 0.202922 0.065068
vt 0.202922 0.088273
vt 0.120614 0.088273
vt 0.120614 0.065068
vt 0.093178 0.088273
vt 0.065742 0.088273
vt 0.038306 0.088273
vt 0.010870 0.088273
vt 0.422410 0.088273
vt 0.449846 0.065068
vt 0.449846 0.088273
vt 0.394974 0.088273
vt 0.367538 0.088273
vt 0.340102 0.088273
vt 0.312666 0.088273
vt 0.285230 0.088273
vt 0.257794 0.088273
vt 0.230358 0.088273
vt 0.065742 0.340033
vt 0.065742 0.154155
vt 0.093178 0.154155
vt 0.093178 0.340033
vt 0.038306 0.340033
vt 0.038306 0.154155
vt 0.010870 0.340033
vt 0.010870 0.154155
vt 0.422410 0.340033
vt 0.422410 0.154155
vt 0.449846 0.154155
vt 0.449846 0.340033
vt 0.394974 0.340033
vt 0.394974 0.154155
vt 0.367538 0.340033
vt 0.367538 0.154155
vt 0.340102 0.340033
vt 0.340102 0.154155
vt 0.312666 0.340033
vt 0.312666 0.154155
vt 0.285230 0.340033
vt 0.285230 0.154155
vt 0.257794 0.340033
vt 0.257794 0.154155
vt 0.230358 0.340033
vt 0.230358 0.154155
vt 0.202922 0.340033
vt 0.202922 0.154155
vt 0.148050 0.340033
vt 0.148050 0.154155
vt 0.175486 0.154155
vt 0.175486 0.340033
vt 0.120614 0.340033
vt 0.120614 0.154155
vt 0.175486 0.038609
vt 0.202922 0.038609
vt 0.449846 0.038609
vt 0.120614 0.038609
vt 0.148050 0.038609
vt 0.010870 0.026829
vt 0.010870 0.031596
vt 0.796006 0.012116
vt 0.818491 0.012116
vt 0.773521 0.012116
vt 0.840976 0.012116
vt 0.863461 0.012116
vt 0.885945 0.012116
vt 0.908430 0.012116
vt 0.930915 0.012116
vt 0.571158 0.012116
vt 0.593642 0.012116
vt 0.616127 0.012116
vt 0.638612 0.012116
vt 0.661097 0.012116
vt 0.683582 0.012116
vt 0.706067 0.012116
vt 0.728552 0.012116
vt 0.751036 0.012116
vt 0.257794 0.008017
vt 0.257794 0.013506
vt 0.340102 0.008017
vt 0.340102 0.013506
vt 0.367538 0.008017
vt 0.367538 0.013506
vt 0.394974 0.008017
vt 0.394974 0.013506
vt 0.422410 0.008017
vt 0.422410 0.013506
vt 0.449846 0.008017
vt 0.449846 0.013506
vt 0.010870 0.008017
vt 0.038306 0.008017
vt 0.038306 0.013506
vt 0.010870 0.013506
vt 0.065742 0.023204
vt 0.038306 0.023204
vt 0.038306 0.019561
vt 0.065742 0.019561
vt 0.065742 0.008017
vt 0.065742 0.013506
vt 0.093178 0.008017
vt 0.093178 0.013506
vt 0.120614 0.008017
vt 0.120614 0.013506
vt 0.148050 0.008017
vt 0.148050 0.013506
vt 0.230358 0.008017
vt 0.230358 0.013506
vt 0.093178 0.023204
vt 0.093178 0.019561
vt 0.010870 0.023204
vt 0.010870 0.019561
vt 0.449846 0.023204
vt 0.422410 0.023204
vt 0.422410 0.019561
vt 0.449846 0.019561
vt 0.394974 0.023204
vt 0.394974 0.019561
vt 0.367538 0.023204
vt 0.367538 0.019561
vt 0.340102 0.023204
vt 0.340102 0.019561
vt 0.659311 0.509227
vt 0.663605 0.519595
vt 0.655778 0.521152
vt 0.651376 0.501293
vt 0.611486 0.509227
vt 0.615019 0.529259
vt 0.607191 0.530816
vt 0.607191 0.519595
vt 0.619420 0.501293
vt 0.624873 0.527299
vt 0.629788 0.496998
vt 0.635398 0.525205
vt 0.641009 0.496998
vt 0.645924 0.523112
vt 0.629788 0.553412
vt 0.619420 0.549118
vt 0.641009 0.553412
vt 0.663605 0.530816
vt 0.659311 0.541183
vt 0.651376 0.549118
vt 0.611486 0.541183
vt 0.885945 0.460652
vt 0.863461 0.460652
vt 0.908430 0.460652
vt 0.930915 0.460652
vt 0.593642 0.460652
vt 0.571158 0.460652
vt 0.616127 0.460652
vt 0.638612 0.460652
vt 0.661097 0.460652
vt 0.683582 0.460652
vt 0.706067 0.460652
vt 0.728552 0.460652
vt 0.751036 0.460652
vt 0.773521 0.460652
vt 0.818491 0.460652
vt 0.796006 0.460652
vt 0.840976 0.460652
vt 0.356889 0.396090
vt 0.393142 0.396090
vt 0.393142 0.454953
vt 0.356889 0.454953
vt 0.530528 0.396090
vt 0.562969 0.396090
vt 0.562969 0.454953
vt 0.530528 0.454953
vt 0.118368 0.396090
vt 0.150808 0.396090
vt 0.150808 0.454953
vt 0.118368 0.454953
vt 0.183249 0.396090
vt 0.183249 0.454953
vt 0.404610 0.777882
vt 0.404610 0.853499
vt 0.357703 0.842428
vt 0.366920 0.784785
vt 0.378803 0.916982
vt 0.335019 0.886753
vt 0.328587 0.963612
vt 0.301610 0.923674
vt 0.257878 0.990412
vt 0.250975 0.952723
vt 0.377810 0.707172
vt 0.337872 0.734149
vt 0.118368 0.348497
vt 0.150808 0.348497
vt 0.082115 0.396090
vt 0.082115 0.348497
vt 0.045862 0.396090
vt 0.045862 0.348497
vt 0.308274 0.827803
vt 0.323885 0.792666
vt 0.290544 0.856047
vt 0.270416 0.882637
vt 0.243093 0.909688
vt 0.425582 0.396090
vt 0.425582 0.454953
vt 0.219502 0.396090
vt 0.255755 0.396090
vt 0.255755 0.454953
vt 0.219502 0.454953
vt 0.288195 0.396090
vt 0.288195 0.454953
vt 0.082115 0.454953
vt 0.045862 0.454953
vt 0.182260 0.990412
vt 0.193332 0.943505
vt 0.118778 0.964605
vt 0.149006 0.920822
vt 0.072147 0.914390
vt 0.112086 0.887413
vt 0.045347 0.843681
vt 0.083037 0.836777
vt 0.013421 0.396090
vt 0.013421 0.348497
vt 0.530528 0.348497
vt 0.562969 0.348497
vt 0.494276 0.396090
vt 0.494276 0.348497
vt 0.458023 0.396090
vt 0.458023 0.348497
vt 0.207957 0.894077
vt 0.179712 0.876346
vt 0.153122 0.856219
vt 0.126072 0.828896
vt 0.494276 0.454953
vt 0.458023 0.454953
vt 0.013421 0.454953
vt 0.320636 0.396090
vt 0.320636 0.454953
vt 0.045347 0.768063
vt 0.092254 0.779134
vt 0.071154 0.704580
vt 0.114938 0.734809
vt 0.121370 0.657950
vt 0.148347 0.697888
vt 0.192079 0.631150
vt 0.198982 0.668840
vt 0.425582 0.348497
vt 0.393142 0.348497
vt 0.356889 0.348497
vt 0.320636 0.348497
vt 0.141683 0.793759
vt 0.159413 0.765515
vt 0.179541 0.738925
vt 0.206864 0.711874
vt 0.267697 0.631150
vt 0.256626 0.678057
vt 0.331179 0.656957
vt 0.300951 0.700740
vt 0.183249 0.348497
vt 0.219502 0.348497
vt 0.288195 0.348497
vt 0.255755 0.348497
vt 0.242000 0.727485
vt 0.270245 0.745216
vt 0.296835 0.765343
vt 0.045862 0.517609
vt 0.082115 0.517609
vt 0.082115 0.561161
vt 0.045862 0.561161
vt 0.458023 0.517609
vt 0.494276 0.517609
vt 0.494276 0.561161
vt 0.458023 0.561161
vt 0.320636 0.517609
vt 0.356889 0.517609
vt 0.356889 0.561161
vt 0.320636 0.561161
vt 0.118368 0.517609
vt 0.150808 0.517609
vt 0.150808 0.561161
vt 0.118368 0.561161
vt 0.530528 0.517609
vt 0.562969 0.517609
vt 0.562969 0.561161
vt 0.530528 0.561161
vt 0.273602 0.801876
vt 0.254292 0.831019
vt 0.233884 0.859404
vt 0.245217 0.781468
vt 0.224979 0.810781
vt 0.204741 0.840094
vt 0.216073 0.762158
vt 0.195665 0.790543
vt 0.176356 0.819686
vt 0.288195 0.517609
vt 0.425582 0.517609
vt 0.013421 0.517609
vt 0.219502 0.517609
vt 0.183249 0.517609
vt 0.255755 0.517609
vt 0.393142 0.517609
vt 0.425582 0.561161
vt 0.393142 0.561161
vt 0.255755 0.561161
vt 0.219502 0.561161
vt 0.013421 0.561161
vt 0.288195 0.561161
vt 0.183249 0.561161
vt 0.540297 0.609830
vt 0.597388 0.609830
vt 0.597388 0.613311
vt 0.540297 0.613311
vt 0.483207 0.613311
vt 0.483207 0.609830
vt 0.646310 0.609830
vt 0.695233 0.609830
vt 0.695233 0.613311
vt 0.646310 0.613311
vt 0.695233 0.595030
vt 0.752323 0.595030
vt 0.752323 0.598251
vt 0.695233 0.598251
vt 0.752323 0.609830
vt 0.809414 0.609830
vt 0.809414 0.613311
vt 0.752323 0.613311
vt 0.809414 0.595030
vt 0.858337 0.595030
vt 0.858337 0.598251
vt 0.809414 0.598251
vt 0.010231 0.609830
vt 0.059154 0.609830
vt 0.059154 0.613311
vt 0.010231 0.613311
vt 0.059154 0.595030
vt 0.116244 0.595030
vt 0.116244 0.598251
vt 0.059154 0.598251
vt 0.116244 0.609830
vt 0.173335 0.609830
vt 0.173335 0.613311
vt 0.116244 0.613311
vt 0.173335 0.595030
vt 0.222258 0.595030
vt 0.222258 0.598251
vt 0.173335 0.598251
vt 0.222258 0.609830
vt 0.271180 0.609830
vt 0.271180 0.613311
vt 0.222258 0.613311
vt 0.271180 0.595030
vt 0.328271 0.595030
vt 0.328271 0.598251
vt 0.271180 0.598251
vt 0.328271 0.609830
vt 0.385362 0.609830
vt 0.385362 0.613311
vt 0.328271 0.613311
vt 0.385362 0.595030
vt 0.434284 0.595030
vt 0.434284 0.598251
vt 0.385362 0.598251
vt 0.434284 0.609830
vt 0.434284 0.613311
vt 0.646310 0.595030
vt 0.646310 0.598251
vt 0.858337 0.609830
vt 0.858337 0.613311
vt 0.010231 0.595030
vt 0.010231 0.598251
vt 0.483207 0.595030
vt 0.483207 0.598251
vt 0.597388 0.595030
vt 0.597388 0.598251
vt 0.540297 0.595030
vt 0.540297 0.598251
vt 0.540297 0.604047
vt 0.597388 0.604047
vt 0.646310 0.604047
vt 0.695233 0.604047
vt 0.752323 0.604047
vt 0.809414 0.604047
vt 0.010231 0.604047
vt 0.059154 0.604047
vt 0.116244 0.604047
vt 0.173335 0.604047
vt 0.222258 0.604047
vt 0.271180 0.604047
vt 0.328271 0.604047
vt 0.385362 0.604047
vt 0.434284 0.604047
vt 0.483207 0.604047
vt 0.858337 0.604048
vt 0.495047 0.288919
vt 0.495047 0.270891
vt 0.531793 0.270891
vt 0.531793 0.288919
vt 0.475831 0.108643
vt 0.475831 0.090616
vt 0.483794 0.090616
vt 0.483794 0.108643
vt 0.475831 0.162726
vt 0.475831 0.144699
vt 0.483794 0.144699
vt 0.483794 0.162726
vt 0.495047 0.144699
vt 0.495047 0.126671
vt 0.531793 0.126671
vt 0.531793 0.144699
vt 0.475831 0.072588
vt 0.475831 0.054561
vt 0.483794 0.054561
vt 0.483794 0.072588
vt 0.475831 0.126671
vt 0.483794 0.126671
vt 0.495047 0.198781
vt 0.495047 0.180754
vt 0.531793 0.180754
vt 0.531793 0.198781
vt 0.475831 0.324974
vt 0.475831 0.306947
vt 0.483794 0.306947
vt 0.483794 0.324974
vt 0.475831 0.180754
vt 0.483794 0.180754
vt 0.495047 0.252864
vt 0.495047 0.234837
vt 0.531793 0.234837
vt 0.531793 0.252864
vt 0.475831 0.288919
vt 0.475831 0.270891
vt 0.483794 0.270891
vt 0.483794 0.288919
vt 0.475831 0.234837
vt 0.475831 0.216809
vt 0.483794 0.216809
vt 0.483794 0.234837
vt 0.475831 0.252864
vt 0.483794 0.252864
vt 0.475831 0.198781
vt 0.483794 0.198781
vt 0.732070 0.523359
vt 0.779843 0.532862
vt 0.772570 0.550420
vt 0.759132 0.563859
vt 0.741573 0.571132
vt 0.722568 0.571132
vt 0.705010 0.563859
vt 0.691571 0.550420
vt 0.684298 0.532862
vt 0.684298 0.513857
vt 0.691571 0.496298
vt 0.705010 0.482859
vt 0.722568 0.475587
vt 0.741573 0.475587
vt 0.759132 0.482859
vt 0.772570 0.496298
vt 0.779843 0.513857
vt 0.495047 0.216809
vt 0.531793 0.216809
vt 0.495047 0.108643
vt 0.531793 0.108643
vt 0.495047 0.162726
vt 0.531793 0.162726
vt 0.495047 0.306947
vt 0.531793 0.306947
vt 0.475831 0.036533
vt 0.483794 0.036533
vt 0.495047 0.090616
vt 0.531793 0.090616
vt 0.495047 0.054561
vt 0.495047 0.036533
vt 0.531793 0.036533
vt 0.531793 0.054561
vt 0.495047 0.072588
vt 0.531793 0.072588
vt 0.495047 0.324974
vt 0.531793 0.324974
vt 0.489435 0.198781
vt 0.489435 0.180754
vt 0.489435 0.252864
vt 0.489435 0.234837
vt 0.489435 0.216809
vt 0.489435 0.144699
vt 0.489435 0.126671
vt 0.489435 0.288919
vt 0.489435 0.270891
vt 0.489435 0.162726
vt 0.489435 0.324974
vt 0.489435 0.306947
vt 0.489435 0.090616
vt 0.489435 0.072588
vt 0.489435 0.108643
vt 0.489435 0.054561
vt 0.489435 0.036533
vt 0.255755 0.569831
vt 0.219502 0.569831
vt 0.255755 0.579990
vt 0.219502 0.579990
vt 0.320636 0.579990
vt 0.288195 0.579990
vt 0.288195 0.569831
vt 0.320636 0.569831
vt 0.393142 0.579990
vt 0.356889 0.579990
vt 0.356889 0.569831
vt 0.393142 0.569831
vt 0.458023 0.579990
vt 0.425582 0.579990
vt 0.425582 0.569831
vt 0.458023 0.569831
vt 0.530528 0.579990
vt 0.494276 0.579990
vt 0.494276 0.569831
vt 0.530528 0.569831
vt 0.045862 0.579990
vt 0.013421 0.579990
vt 0.013421 0.569831
vt 0.045862 0.569831
vt 0.118368 0.579990
vt 0.082115 0.579990
vt 0.082115 0.569831
vt 0.118368 0.569831
vt 0.183249 0.579990
vt 0.150808 0.579990
vt 0.150808 0.569831
vt 0.183249 0.569831
vt 0.562969 0.579990
vt 0.562969 0.569831
s 1
f 111/1/1 97/2/2 32/3/3 29/4/4
f 97/2/2 98/5/5 31/6/6 32/3/3
f 112/7/7 99/8/8 18/9/9 17/10/10
f 98/5/5 112/7/7 17/10/10 31/6/6
f 99/8/8 100/11/11 20/12/12 18/9/9
f 100/11/11 101/13/13 19/14/14 20/12/12
f 101/13/13 102/15/15 22/16/16 19/14/14
f 102/15/15 103/17/17 21/18/18 22/16/16
f 103/17/17 104/19/19 24/20/20 21/18/18
f 104/19/19 105/21/21 23/22/22 24/20/20
f 105/21/21 106/23/23 26/24/24 23/22/22
f 106/23/23 107/25/25 25/26/26 26/24/24
f 107/25/25 108/27/27 28/28/28 25/26/26
f 108/29/27 109/30/29 27/31/30 28/32/28
f 109/30/29 110/33/31 30/34/32 27/31/30
f 110/33/31 111/1/1 29/4/4 30/34/32
f 287/35/33 286/36/34 233/37/35 235/38/36
f 288/39/37 287/35/33 235/38/36 240/40/38
f 276/41/39 275/42/40 211/43/41 213/44/42
f 274/45/43 288/39/37 240/40/38 238/46/44
f 273/47/45 274/45/43 238/46/44 209/48/46
f 208/49/47 207/50/48 237/51/49 239/52/50
f 195/53/51 196/54/52 216/55/53 214/56/54
f 277/57/55 276/41/39 213/44/42 215/58/56
f 80/59/57 66/60/58 64/61/59 63/62/60
f 66/60/58 65/63/61 49/64/62 64/61/59
f 79/65/63 80/59/57 63/62/60 62/66/64
f 78/67/65 79/65/63 62/66/64 61/68/66
f 77/69/67 78/67/65 61/68/66 60/70/68
f 76/71/69 77/69/67 60/70/68 59/72/70
f 75/73/71 76/71/69 59/72/70 58/74/72
f 74/75/73 75/76/71 58/77/72 57/78/74
f 73/79/75 74/75/73 57/78/74 56/80/76
f 72/81/77 73/79/75 56/80/76 55/82/78
f 71/83/79 72/81/77 55/82/78 54/84/80
f 70/85/81 71/83/79 54/84/80 53/86/82
f 69/87/83 70/85/81 53/86/82 52/88/84
f 68/89/85 69/87/83 52/88/84 51/90/86
f 67/91/87 68/89/85 51/90/86 50/92/88
f 65/63/61 67/91/87 50/92/88 49/64/62
f 18/9/9 20/12/12 67/91/87 65/63/61
f 20/12/12 19/14/14 68/89/85 67/91/87
f 19/14/14 22/16/16 69/87/83 68/89/85
f 22/16/16 21/18/18 70/85/81 69/87/83
f 21/18/18 24/20/20 71/83/79 70/85/81
f 24/20/20 23/22/22 72/81/77 71/83/79
f 23/22/22 26/24/24 73/79/75 72/81/77
f 26/24/24 25/26/26 74/75/73 73/79/75
f 25/26/26 28/28/28 75/76/71 74/75/73
f 28/32/28 27/31/30 76/71/69 75/73/71
f 27/31/30 30/34/32 77/69/67 76/71/69
f 30/34/32 29/4/4 78/67/65 77/69/67
f 29/4/4 32/3/3 79/65/63 78/67/65
f 32/3/3 31/6/6 80/59/57 79/65/63
f 17/10/10 18/9/9 65/63/61 66/60/58
f 31/6/6 17/10/10 66/60/58 80/59/57
f 3/93/89 2/94/90 82/95/91 96/96/92
f 4/97/93 3/93/89 96/96/92 95/98/94
f 5/99/95 4/97/93 95/98/94 94/100/96
f 6/101/97 5/102/95 94/103/96 93/104/98
f 7/105/99 6/101/97 93/104/98 92/106/100
f 8/107/101 7/105/99 92/106/100 91/108/102
f 9/109/103 8/107/101 91/108/102 90/110/104
f 10/111/105 9/109/103 90/110/104 89/112/106
f 11/113/107 10/111/105 89/112/106 88/114/108
f 12/115/109 11/113/107 88/114/108 87/116/110
f 13/117/111 12/115/109 87/116/110 86/118/112
f 14/119/113 13/117/111 86/118/112 84/120/114
f 15/121/115 1/122/116 85/123/117 83/124/118
f 1/122/116 14/119/113 84/120/114 85/123/117
f 16/125/119 15/121/115 83/124/118 81/126/120
f 2/94/90 16/125/119 81/126/120 82/95/91
f 96/96/92 82/95/91 111/1/1 110/33/31
f 95/98/94 96/96/92 110/33/31 109/30/29
f 94/100/96 95/98/94 109/30/29 108/29/27
f 93/104/98 94/103/96 108/27/27 107/25/25
f 92/106/100 93/104/98 107/25/25 106/23/23
f 91/108/102 92/106/100 106/23/23 105/21/21
f 90/110/104 91/108/102 105/21/21 104/19/19
f 89/112/106 90/110/104 104/19/19 103/17/17
f 88/114/108 89/112/106 103/17/17 102/15/15
f 87/116/110 88/114/108 102/15/15 101/13/13
f 86/118/112 87/116/110 101/13/13 100/11/11
f 84/120/114 86/118/112 100/11/11 99/8/8
f 83/124/118 85/123/117 112/7/7 98/5/5
f 85/123/117 84/120/114 99/8/8 112/7/7
f 81/126/120 83/124/118 98/5/5 97/2/2
f 82/95/91 81/126/120 97/2/2 111/1/1
f 191/127/121 125/128/122 128/129/123 177/130/124
f 36/131/125 35/132/126 245/133/127 248/134/128
f 177/130/124 128/129/123 127/135/129 178/136/130
f 192/137/131 113/138/132 114/139/133 179/140/134
f 178/136/130 127/135/129 113/138/132 192/137/131
f 179/140/134 114/139/133 116/141/135 180/142/136
f 180/142/136 116/141/135 115/143/137 181/144/138
f 181/144/138 115/143/137 118/145/139 182/146/140
f 182/146/140 118/145/139 117/147/141 183/148/142
f 183/148/142 117/147/141 120/149/143 184/150/144
f 184/150/144 120/149/143 119/151/145 185/152/146
f 185/152/146 119/151/145 122/153/147 186/154/148
f 186/154/148 122/153/147 121/155/149 187/156/150
f 187/156/150 121/155/149 124/157/151 188/158/152
f 188/159/152 124/160/151 123/161/153 189/162/154
f 189/162/154 123/161/153 126/163/155 190/164/156
f 190/164/156 126/163/155 125/128/122 191/127/121
f 35/132/126 38/165/157 252/166/158 245/133/127
f 130/167/159 247/168/160 246/169/161 131/170/162
f 37/171/163 40/172/164 256/173/165 249/174/166
f 132/175/167 251/176/168 250/177/169 133/178/170
f 39/179/171 42/180/172 260/181/173 253/182/174
f 134/183/175 255/184/176 254/185/177 135/186/178
f 41/187/179 44/188/180 264/189/181 257/190/182
f 136/191/183 259/192/184 258/193/185 137/194/186
f 43/195/187 46/196/188 268/197/189 261/198/190
f 138/199/191 263/200/192 262/201/193 139/202/194
f 45/203/195 48/204/196 272/205/197 265/206/198
f 140/207/199 267/208/200 266/209/201 141/210/202
f 47/211/203 33/212/204 242/213/205 269/214/206
f 34/215/207 36/131/125 248/134/128 243/216/208
f 160/217/209 143/218/210 144/219/211 146/220/212
f 146/220/212 144/219/211 129/221/213 145/222/214
f 159/223/215 142/224/216 143/218/210 160/217/209
f 158/225/217 141/210/202 142/224/216 159/223/215
f 157/226/218 140/207/199 141/210/202 158/225/217
f 156/227/219 139/202/194 140/207/199 157/226/218
f 155/228/220 138/199/191 139/202/194 156/227/219
f 154/229/221 137/194/186 138/230/191 155/231/220
f 153/232/222 136/191/183 137/194/186 154/229/221
f 152/233/223 135/186/178 136/191/183 153/232/222
f 151/234/224 134/183/175 135/186/178 152/233/223
f 150/235/225 133/178/170 134/183/175 151/234/224
f 149/236/226 132/175/167 133/178/170 150/235/225
f 148/237/227 131/170/162 132/175/167 149/236/226
f 147/238/228 130/167/159 131/170/162 148/237/227
f 145/222/214 129/221/213 130/167/159 147/238/228
f 114/139/133 145/222/214 147/238/228 116/141/135
f 116/141/135 147/238/228 148/237/227 115/143/137
f 115/143/137 148/237/227 149/236/226 118/145/139
f 118/145/139 149/236/226 150/235/225 117/147/141
f 117/147/141 150/235/225 151/234/224 120/149/143
f 120/149/143 151/234/224 152/233/223 119/151/145
f 119/151/145 152/233/223 153/232/222 122/153/147
f 122/153/147 153/232/222 154/229/221 121/155/149
f 121/155/149 154/229/221 155/231/220 124/157/151
f 124/160/151 155/228/220 156/227/219 123/161/153
f 123/161/153 156/227/219 157/226/218 126/163/155
f 126/163/155 157/226/218 158/225/217 125/128/122
f 125/128/122 158/225/217 159/223/215 128/129/123
f 128/129/123 159/223/215 160/217/209 127/135/129
f 113/138/132 146/220/212 145/222/214 114/139/133
f 127/135/129 160/217/209 146/220/212 113/138/132
f 304/239/229 176/240/230 162/241/231 289/242/232
f 303/243/233 175/244/234 176/240/230 304/239/229
f 302/245/235 174/246/236 175/244/234 303/243/233
f 301/247/237 173/248/238 174/249/236 302/250/235
f 300/251/239 172/252/240 173/248/238 301/247/237
f 299/253/241 171/254/242 172/252/240 300/251/239
f 298/255/243 170/256/244 171/254/242 299/253/241
f 297/257/245 169/258/246 170/256/244 298/255/243
f 296/259/247 168/260/248 169/258/246 297/257/245
f 295/261/249 167/262/250 168/260/248 296/259/247
f 294/263/251 166/264/252 167/262/250 295/261/249
f 293/265/253 164/266/254 166/264/252 294/263/251
f 292/267/255 163/268/256 165/269/257 290/270/258
f 290/270/258 165/269/257 164/266/254 293/265/253
f 291/271/259 161/272/260 163/268/256 292/267/255
f 289/242/232 162/241/231 161/272/260 291/271/259
f 176/240/230 190/164/156 191/127/121 162/241/231
f 175/244/234 189/162/154 190/164/156 176/240/230
f 174/246/236 188/159/152 189/162/154 175/244/234
f 173/248/238 187/156/150 188/158/152 174/249/236
f 172/252/240 186/154/148 187/156/150 173/248/238
f 171/254/242 185/152/146 186/154/148 172/252/240
f 170/256/244 184/150/144 185/152/146 171/254/242
f 169/258/246 183/148/142 184/150/144 170/256/244
f 168/260/248 182/146/140 183/148/142 169/258/246
f 167/262/250 181/144/138 182/146/140 168/260/248
f 166/264/252 180/142/136 181/144/138 167/262/250
f 164/266/254 179/140/134 180/142/136 166/264/252
f 163/268/256 178/136/130 192/137/131 165/269/257
f 165/269/257 192/137/131 179/140/134 164/266/254
f 161/272/260 177/130/124 178/136/130 163/268/256
f 162/241/231 191/127/121 177/130/124 161/272/260
f 144/219/211 241/273/261 244/274/262 129/221/213
f 131/170/162 246/169/161 251/176/168 132/175/167
f 133/178/170 250/177/169 255/184/176 134/183/175
f 135/186/178 254/185/177 259/192/184 136/191/183
f 137/194/186 258/193/185 263/275/192 138/230/191
f 139/202/194 262/201/193 267/208/200 140/207/199
f 141/210/202 266/209/201 271/276/263 142/224/216
f 142/224/216 271/276/263 270/277/264 143/218/210
f 129/221/213 244/274/262 247/168/160 130/167/159
f 38/165/157 37/171/163 249/174/166 252/166/158
f 40/172/164 39/179/171 253/182/174 256/173/165
f 42/180/172 41/187/179 257/190/182 260/181/173
f 44/278/180 43/195/187 261/198/190 264/279/181
f 46/196/188 45/203/195 265/206/198 268/197/189
f 48/204/196 47/211/203 269/214/206 272/205/197
f 143/218/210 270/277/264 241/273/261 144/219/211
f 63/62/60 64/61/59 208/280/265 206/281/266
f 64/61/59 49/64/62 207/282/267 208/280/265
f 62/66/64 63/62/60 206/281/266 205/283/268
f 61/68/66 62/66/64 205/283/268 204/284/269
f 60/70/68 61/68/66 204/284/269 203/285/270
f 59/72/70 60/70/68 203/285/270 202/286/271
f 58/74/72 59/72/70 202/286/271 201/287/272
f 57/78/74 58/77/72 201/288/272 200/289/273
f 56/80/76 57/78/74 200/289/273 199/290/274
f 55/82/78 56/80/76 199/290/274 198/291/275
f 54/84/80 55/82/78 198/291/275 197/292/276
f 53/86/82 54/84/80 197/292/276 196/293/277
f 52/88/84 53/86/82 196/293/277 195/294/278
f 51/90/86 52/88/84 195/294/278 194/295/279
f 50/92/88 51/90/86 194/295/279 193/296/280
f 49/64/62 50/92/88 193/296/280 207/282/267
f 194/297/281 195/53/51 214/56/54 212/298/282
f 196/54/52 197/299/283 218/300/284 216/55/53
f 197/299/283 198/301/285 220/302/286 218/300/284
f 198/301/285 199/303/287 222/304/288 220/302/286
f 199/303/287 200/305/289 224/306/290 222/304/288
f 200/305/289 201/307/291 226/308/292 224/306/290
f 201/309/291 202/310/293 228/311/294 226/312/292
f 284/313/295 283/314/296 227/315/297 229/316/298
f 202/310/293 203/317/299 230/318/300 228/311/294
f 203/317/299 204/319/301 232/320/302 230/318/300
f 204/319/301 205/321/303 234/322/304 232/320/302
f 205/321/303 206/323/305 236/324/306 234/322/304
f 206/323/305 208/49/47 239/52/50 236/324/306
f 275/42/40 273/47/45 209/48/46 211/43/41
f 207/50/48 193/325/307 210/326/308 237/51/49
f 286/36/34 285/327/309 231/328/310 233/37/35
f 285/327/309 284/313/295 229/316/298 231/328/310
f 283/314/296 282/329/311 225/330/312 227/315/297
f 282/331/311 281/332/313 223/333/314 225/334/312
f 281/332/313 280/335/315 221/336/316 223/333/314
f 280/335/315 279/337/317 219/338/318 221/336/316
f 279/337/317 278/339/319 217/340/320 219/338/318
f 278/339/319 277/57/55 215/58/56 217/340/320
f 240/40/38 235/38/36 236/324/306 239/52/50
f 238/46/44 240/40/38 239/52/50 237/51/49
f 235/38/36 233/37/35 234/322/304 236/324/306
f 233/37/35 231/328/310 232/320/302 234/322/304
f 231/328/310 229/316/298 230/318/300 232/320/302
f 229/316/298 227/315/297 228/311/294 230/318/300
f 227/315/297 225/330/312 226/312/292 228/311/294
f 225/334/312 223/333/314 224/306/290 226/308/292
f 223/333/314 221/336/316 222/304/288 224/306/290
f 221/336/316 219/338/318 220/302/286 222/304/288
f 219/338/318 217/340/320 218/300/284 220/302/286
f 217/340/320 215/58/56 216/55/53 218/300/284
f 215/58/56 213/44/42 214/56/54 216/55/53
f 213/44/42 211/43/41 212/298/282 214/56/54
f 211/43/41 209/48/46 210/326/308 212/298/282
f 209/48/46 238/46/44 237/51/49 210/326/308
f 193/325/307 194/297/281 212/298/282 210/326/308
f 242/213/205 243/216/208 244/274/262 241/273/261
f 246/169/161 247/168/160 248/134/128 245/133/127
f 250/177/169 251/176/168 252/166/158 249/174/166
f 254/185/177 255/184/176 256/173/165 253/182/174
f 258/193/185 259/192/184 260/181/173 257/190/182
f 262/201/193 263/200/192 264/279/181 261/198/190
f 266/209/201 267/208/200 268/197/189 265/206/198
f 270/277/264 271/276/263 272/205/197 269/214/206
f 247/168/160 244/274/262 243/216/208 248/134/128
f 251/176/168 246/169/161 245/133/127 252/166/158
f 255/184/176 250/177/169 249/174/166 256/173/165
f 259/192/184 254/185/177 253/182/174 260/181/173
f 263/275/192 258/193/185 257/190/182 264/189/181
f 267/208/200 262/201/193 261/198/190 268/197/189
f 271/276/263 266/209/201 265/206/198 272/205/197
f 241/273/261 270/277/264 269/214/206 242/213/205
f 33/212/204 34/215/207 243/216/208 242/213/205
f 40/172/164 37/171/163 277/57/55 278/339/319
f 39/179/171 40/172/164 278/339/319 279/337/317
f 42/180/172 39/179/171 279/337/317 280/335/315
f 41/187/179 42/180/172 280/335/315 281/332/313
f 44/188/180 41/187/179 281/332/313 282/331/311
f 43/195/187 44/278/180 282/329/311 283/314/296
f 45/203/195 46/196/188 284/313/295 285/327/309
f 48/204/196 45/203/195 285/327/309 286/36/34
f 35/132/126 36/131/125 273/47/45 275/42/40
f 46/196/188 43/195/187 283/314/296 284/313/295
f 37/171/163 38/165/157 276/41/39 277/57/55
f 36/131/125 34/215/207 274/45/43 273/47/45
f 34/215/207 33/212/204 288/39/37 274/45/43
f 38/165/157 35/132/126 275/42/40 276/41/39
f 33/212/204 47/211/203 287/35/33 288/39/37
f 47/211/203 48/204/196 286/36/34 287/35/33
f 289/341/321 291/342/322 309/343/323 304/344/324
f 300/345/325 305/346/326 298/347/327 299/348/328
f 301/349/329 306/350/329 305/346/326 300/345/325
f 302/351/330 307/352/331 306/350/329 301/349/329
f 303/353/332 308/354/332 307/352/331 302/351/330
f 304/344/324 309/343/323 308/354/332 303/353/332
f 306/350/329 295/355/329 296/356/333 305/346/326
f 307/352/331 294/357/334 295/355/329 306/350/329
f 291/342/322 292/358/335 290/359/336 309/343/323
f 309/343/323 290/359/336 293/360/332 308/354/332
f 308/354/332 293/360/332 294/357/334 307/352/331
f 305/346/326 296/356/333 297/361/337 298/347/327
f 325/362/338 310/363/339 2/94/90 3/93/89
f 324/364/340 325/362/338 3/93/89 4/97/93
f 323/365/341 324/364/340 4/97/93 5/99/95
f 322/366/342 323/367/341 5/102/95 6/101/97
f 321/368/343 322/366/342 6/101/97 7/105/99
f 320/369/344 321/368/343 7/105/99 8/107/101
f 319/370/345 320/369/344 8/107/101 9/109/103
f 318/371/346 319/370/345 9/109/103 10/111/105
f 317/372/347 318/371/346 10/111/105 11/113/107
f 316/373/348 317/372/347 11/113/107 12/115/109
f 315/374/349 316/373/348 12/115/109 13/117/111
f 314/375/350 315/374/349 13/117/111 14/119/113
f 313/376/351 311/377/352 1/122/116 15/121/115
f 311/377/352 314/375/350 14/119/113 1/122/116
f 312/378/353 313/376/351 15/121/115 16/125/119
f 310/363/339 312/378/353 16/125/119 2/94/90
f 359/379/354 354/380/355 341/381/356 327/382/357
f 345/383/358 344/384/359 328/385/360 397/386/361
f 333/387/362 332/388/363 350/389/364 395/390/365
f 332/388/363 331/391/366 338/392/367 350/389/364
f 419/393/368 422/394/369 335/395/370 334/396/371
f 422/394/369 423/397/372 336/398/373 335/395/370
f 423/397/372 426/399/374 337/400/375 336/398/373
f 426/399/374 427/401/376 346/402/377 337/400/375
f 450/403/378 419/393/368 334/396/371 366/404/379
f 332/388/363 333/387/362 425/405/380 424/406/381
f 333/387/362 342/407/382 428/408/383 425/405/380
f 342/407/382 343/409/384 429/410/385 428/408/383
f 334/396/371 335/395/370 368/411/386 367/412/387
f 335/395/370 336/398/373 369/413/388 368/411/386
f 336/398/373 337/400/375 370/414/389 369/413/388
f 337/400/375 346/402/377 371/415/390 370/414/389
f 354/380/355 353/416/391 392/417/392 341/381/356
f 330/418/393 362/419/394 340/420/395 339/421/396
f 362/419/394 361/422/397 394/423/398 340/420/395
f 343/409/384 342/407/382 396/424/399 329/425/400
f 427/401/376 430/426/401 347/427/402 346/402/377
f 430/426/401 431/428/403 348/429/404 347/427/402
f 431/428/403 434/430/405 349/431/406 348/429/404
f 434/430/405 435/432/407 355/433/408 349/431/406
f 343/409/384 344/434/359 432/435/409 429/410/385
f 344/384/359 345/383/358 433/436/410 432/437/409
f 345/383/358 351/438/411 436/439/412 433/436/410
f 351/438/411 352/440/413 437/441/414 436/439/412
f 346/402/377 347/427/402 376/442/415 371/415/390
f 347/427/402 348/429/404 381/443/416 376/442/415
f 348/429/404 349/431/406 386/444/417 381/443/416
f 349/431/406 355/433/408 391/445/418 386/444/417
f 331/391/366 330/418/393 339/421/396 338/392/367
f 352/440/413 351/438/411 398/446/419 326/447/420
f 344/434/359 343/409/384 329/425/400 328/448/360
f 360/449/421 359/379/354 327/382/357 393/450/422
f 435/432/407 438/451/423 356/452/424 355/433/408
f 438/451/423 439/453/425 357/454/426 356/452/424
f 439/453/425 442/455/427 358/456/428 357/454/426
f 442/455/427 443/457/429 363/458/430 358/456/428
f 352/440/413 353/416/391 440/459/431 437/441/414
f 353/416/391 354/380/355 441/460/432 440/459/431
f 354/380/355 359/379/354 444/461/433 441/460/432
f 359/379/354 360/449/421 445/462/434 444/461/433
f 355/433/408 356/452/424 390/463/435 391/445/418
f 356/452/424 357/454/426 389/464/436 390/463/435
f 357/454/426 358/456/428 388/465/437 389/464/436
f 358/456/428 363/458/430 387/466/438 388/465/437
f 353/416/391 352/440/413 326/447/420 392/417/392
f 361/422/397 360/449/421 393/450/422 394/423/398
f 342/407/382 333/387/362 395/390/365 396/424/399
f 351/438/411 345/383/358 397/386/361 398/446/419
f 443/457/429 446/467/439 364/468/440 363/458/430
f 446/467/439 447/469/441 365/470/442 364/468/440
f 447/469/441 450/403/378 366/404/379 365/470/442
f 330/418/393 331/391/366 421/471/443 420/472/444
f 360/449/421 361/422/397 448/473/445 445/462/434
f 361/422/397 362/419/394 449/474/446 448/473/445
f 331/391/366 332/388/363 424/406/381 421/471/443
f 363/458/430 364/468/440 382/475/447 387/466/438
f 364/468/440 365/470/442 377/476/448 382/475/447
f 365/470/442 366/404/379 372/477/449 377/476/448
f 366/404/379 334/396/371 367/412/387 372/477/449
f 409/478/450 400/479/451 610/480/452 606/481/453
f 411/482/454 399/483/455 598/484/456 594/485/457
f 412/486/458 410/487/459 586/488/460 582/489/461
f 413/490/462 407/491/463 616/492/464 612/493/465
f 414/494/466 403/495/467 604/496/468 600/497/469
f 367/412/387 368/411/386 373/498/470 372/477/449
f 368/411/386 369/413/388 374/499/471 373/498/470
f 369/413/388 370/414/389 375/500/472 374/499/471
f 370/414/389 371/415/390 376/442/415 375/500/472
f 372/477/449 373/498/470 378/501/473 377/476/448
f 373/498/470 374/499/471 379/502/474 378/501/473
f 374/499/471 375/500/472 380/503/475 379/502/474
f 375/500/472 376/442/415 381/443/416 380/503/475
f 377/476/448 378/501/473 383/504/476 382/475/447
f 378/501/473 379/502/474 384/505/477 383/504/476
f 379/502/474 380/503/475 385/506/478 384/505/477
f 380/503/475 381/443/416 386/444/417 385/506/478
f 382/475/447 383/504/476 388/465/437 387/466/438
f 383/504/476 384/505/477 389/464/436 388/465/437
f 384/505/477 385/506/478 390/463/435 389/464/436
f 385/506/478 386/444/417 391/445/418 390/463/435
f 398/446/419 397/386/361 414/494/466 399/483/455
f 396/424/399 395/390/365 413/490/462 400/479/451
f 394/423/398 393/450/422 412/486/458 401/507/479
f 392/417/392 326/447/420 411/482/454 402/508/480
f 393/450/422 327/382/357 410/487/459 412/486/458
f 328/448/360 329/425/400 409/478/450 403/509/467
f 326/447/420 398/446/419 399/483/455 411/482/454
f 338/392/367 339/421/396 408/510/481 404/511/482
f 329/425/400 396/424/399 400/479/451 409/478/450
f 340/420/395 394/423/398 401/507/479 405/512/483
f 339/421/396 340/420/395 405/512/483 408/510/481
f 341/381/356 392/417/392 402/508/480 406/513/484
f 350/389/364 338/392/367 404/511/482 407/491/463
f 395/390/365 350/389/364 407/491/463 413/490/462
f 397/386/361 328/385/360 403/495/467 414/494/466
f 327/382/357 341/381/356 406/513/484 410/487/459
f 406/513/484 402/508/480 592/514/485 588/515/486
f 408/510/481 405/512/483 576/516/487 622/517/488
f 403/509/467 409/478/450 606/481/453 604/518/468
f 401/507/479 412/486/458 582/489/461 580/519/489
f 400/479/451 413/490/462 612/493/465 610/480/452
f 404/511/482 408/510/481 622/517/488 618/520/490
f 407/491/463 404/511/482 618/520/490 616/492/464
f 405/512/483 401/507/479 580/519/489 576/516/487
f 402/508/480 411/482/454 594/485/457 592/514/485
f 410/487/459 406/513/484 588/515/486 586/488/460
f 399/483/455 414/494/466 600/497/469 598/484/456
f 451/521/491 455/522/492 422/523/493 419/524/494
f 419/524/494 450/525/495 497/526/496 451/521/491
f 457/527/497 461/528/498 426/529/499 423/530/500
f 425/531/501 428/532/502 464/533/503 460/534/504
f 463/535/505 467/536/506 430/537/507 427/538/508
f 429/539/509 432/540/510 470/541/511 466/542/512
f 469/543/513 473/544/514 434/545/515 431/546/516
f 433/547/517 436/548/518 476/549/519 472/550/520
f 475/551/521 479/552/522 438/553/523 435/554/524
f 437/555/525 440/556/526 482/557/527 478/558/528
f 481/559/529 485/560/530 442/561/531 439/562/532
f 441/563/533 444/564/534 488/565/535 484/566/536
f 487/567/537 491/568/538 446/569/539 443/570/540
f 445/571/541 448/572/542 494/573/543 490/574/544
f 493/575/545 497/526/496 450/525/495 447/576/546
f 455/522/492 457/527/497 423/530/500 422/523/493
f 424/577/547 425/531/501 460/534/504 458/578/548
f 461/528/498 463/535/505 427/538/508 426/529/499
f 428/532/502 429/539/509 466/542/512 464/533/503
f 467/536/506 469/579/513 431/580/516 430/537/507
f 432/581/510 433/547/517 472/550/520 470/582/511
f 473/544/514 475/551/521 435/554/524 434/545/515
f 436/548/518 437/555/525 478/558/528 476/549/519
f 479/552/522 481/559/529 439/562/532 438/553/523
f 440/556/526 441/563/533 484/566/536 482/557/527
f 485/560/530 487/567/537 443/570/540 442/561/531
f 444/564/534 445/571/541 490/574/544 488/565/535
f 491/568/538 493/575/545 447/576/546 446/569/539
f 448/572/542 449/583/549 496/584/550 494/573/543
f 421/585/551 424/577/547 458/578/548 454/586/552
f 420/587/553 421/585/551 454/586/552 452/588/554
f 362/419/394 330/418/393 420/472/444 449/474/446
f 455/522/492 451/521/491 453/589/555 456/590/556
f 456/590/556 453/589/555 452/588/554 454/586/552
f 461/528/498 457/527/497 459/591/557 462/592/558
f 462/592/558 459/591/557 458/578/548 460/534/504
f 467/536/506 463/535/505 465/593/559 468/594/560
f 468/594/560 465/593/559 464/533/503 466/542/512
f 473/544/514 469/543/513 471/595/561 474/596/562
f 474/596/562 471/595/561 470/582/511 472/550/520
f 479/552/522 475/551/521 477/597/563 480/598/564
f 480/598/564 477/597/563 476/549/519 478/558/528
f 485/560/530 481/559/529 483/599/565 486/600/566
f 486/600/566 483/599/565 482/557/527 484/566/536
f 491/568/538 487/567/537 489/601/567 492/602/568
f 492/602/568 489/601/567 488/565/535 490/574/544
f 497/526/496 493/575/545 495/603/569 498/604/570
f 498/604/570 495/603/569 494/573/543 496/584/550
f 457/527/497 455/522/492 456/590/556 459/591/557
f 459/591/557 456/590/556 454/586/552 458/578/548
f 463/535/505 461/528/498 462/592/558 465/593/559
f 465/593/559 462/592/558 460/534/504 464/533/503
f 469/579/513 467/536/506 468/594/560 471/605/561
f 471/605/561 468/594/560 466/542/512 470/541/511
f 475/551/521 473/544/514 474/596/562 477/597/563
f 477/597/563 474/596/562 472/550/520 476/549/519
f 481/559/529 479/552/522 480/598/564 483/599/565
f 483/599/565 480/598/564 478/558/528 482/557/527
f 487/567/537 485/560/530 486/600/566 489/601/567
f 489/601/567 486/600/566 484/566/536 488/565/535
f 493/575/545 491/568/538 492/602/568 495/603/569
f 495/603/569 492/602/568 490/574/544 494/573/543
f 496/584/550 452/588/554 453/589/555 498/604/570
f 498/604/570 453/589/555 451/521/491 497/526/496
f 452/588/554 496/584/550 449/583/549 420/587/553
f 531/606/571 568/607/572 524/608/573 525/609/574
f 416/610/575 503/611/576 538/612/577 534/613/578
f 500/614/579 501/615/580 550/616/581 546/617/582
f 549/618/583 556/619/584 516/620/585 517/621/586
f 504/622/587 505/623/588 540/624/589 552/625/590
f 502/626/591 416/610/575 534/613/578 555/627/592
f 561/628/593 565/629/594 515/630/595 513/631/596
f 503/611/576 504/622/587 552/625/590 538/612/577
f 417/632/597 506/633/598 528/634/599 544/635/600
f 415/636/601 500/614/579 546/617/582 564/637/602
f 570/638/603 574/639/604 526/640/605 527/641/606
f 507/642/607 508/643/608 567/644/609 532/645/610
f 501/615/580 502/626/591 555/627/592 550/616/581
f 509/646/611 510/647/612 558/648/613 573/649/614
f 418/650/615 509/646/611 573/649/614 571/651/616
f 499/652/617 415/636/601 564/637/602 562/653/618
f 511/654/331 512/655/331 513/656/331
f 511/654/331 515/657/331 514/658/331
f 511/654/331 517/659/331 516/660/331
f 511/654/331 519/661/331 518/662/331
f 511/654/331 521/663/331 520/664/331
f 511/654/331 523/665/331 522/666/331
f 511/654/331 525/667/331 524/668/331
f 511/654/331 527/669/331 526/670/331
f 511/654/331 513/656/331 515/657/331
f 511/654/331 514/658/331 517/659/331
f 511/654/331 516/660/331 519/661/331
f 511/654/331 518/662/331 521/663/331
f 511/654/331 520/664/331 523/665/331
f 511/654/331 522/666/331 525/667/331
f 511/654/331 524/668/331 527/669/331
f 511/654/331 526/670/331 512/655/331
f 508/643/608 418/650/615 571/651/616 567/644/609
f 559/671/619 561/628/593 513/631/596 512/672/620
f 510/647/612 499/652/617 562/653/618 558/648/613
f 556/619/584 535/673/621 519/674/622 516/620/585
f 568/607/572 570/638/603 527/641/606 524/608/573
f 547/675/623 549/618/583 517/621/586 514/676/624
f 529/677/625 531/606/571 525/609/574 522/678/626
f 505/623/588 417/679/597 544/680/600 540/624/589
f 574/639/604 559/671/619 512/672/620 526/640/605
f 535/673/621 537/681/627 518/682/628 519/674/622
f 541/683/629 543/684/630 523/685/631 520/686/632
f 565/629/594 547/675/623 514/676/624 515/630/595
f 553/687/633 541/683/629 520/686/632 521/688/634
f 537/681/627 553/687/633 521/688/634 518/682/628
f 543/689/630 529/677/625 522/678/626 523/690/631
f 565/629/594 561/628/593 563/691/635 566/692/636
f 566/692/636 563/691/635 562/653/618 564/637/602
f 574/639/604 570/638/603 572/693/637 575/694/638
f 575/694/638 572/693/637 571/651/616 573/649/614
f 559/671/619 574/639/604 575/694/638 560/695/639
f 560/695/639 575/694/638 573/649/614 558/648/613
f 556/619/584 549/618/583 551/696/640 557/697/641
f 557/697/641 551/696/640 550/616/581 555/627/592
f 568/607/572 531/606/571 533/698/642 569/699/643
f 569/699/643 533/698/642 532/645/610 567/644/609
f 570/638/603 568/607/572 569/699/643 572/693/637
f 572/693/637 569/699/643 567/644/609 571/651/616
f 547/675/623 565/629/594 566/692/636 548/700/644
f 548/700/644 566/692/636 564/637/602 546/617/582
f 529/677/625 543/689/630 545/701/645 530/702/646
f 530/702/646 545/701/645 544/635/600 528/634/599
f 553/687/633 537/681/627 539/703/647 554/704/648
f 554/704/648 539/703/647 538/612/577 552/625/590
f 561/628/593 559/671/619 560/695/639 563/691/635
f 563/691/635 560/695/639 558/648/613 562/653/618
f 535/673/621 556/619/584 557/697/641 536/705/649
f 536/705/649 557/697/641 555/627/592 534/613/578
f 541/683/629 553/687/633 554/704/648 542/706/650
f 542/706/650 554/704/648 552/625/590 540/624/589
f 549/618/583 547/675/623 548/700/644 551/696/640
f 551/696/640 548/700/644 546/617/582 550/616/581
f 543/684/630 541/683/629 542/706/650 545/707/645
f 545/707/645 542/706/650 540/624/589 544/680/600
f 537/681/627 535/673/621 536/705/649 539/703/647
f 539/703/647 536/705/649 534/613/578 538/612/577
f 531/606/571 529/677/625 530/702/646 533/698/642
f 533/698/642 530/702/646 528/634/599 532/645/610
f 506/633/598 507/642/607 532/645/610 528/634/599
f 622/517/488 576/516/487 578/708/651 623/709/652
f 623/709/652 578/708/651 577/710/653 621/711/654
f 583/712/655 579/713/656 581/714/657 584/715/658
f 584/715/658 581/714/657 580/519/489 582/489/461
f 589/716/659 585/717/660 587/718/661 590/719/662
f 590/719/662 587/718/661 586/488/460 588/515/486
f 595/720/663 591/721/664 593/722/665 596/723/666
f 596/723/666 593/722/665 592/514/485 594/485/457
f 601/724/667 597/725/668 599/726/669 602/727/670
f 602/727/670 599/726/669 598/484/456 600/497/469
f 607/728/671 603/729/672 605/730/673 608/731/674
f 608/731/674 605/730/673 604/518/468 606/481/453
f 613/732/675 609/733/676 611/734/677 614/735/678
f 614/735/678 611/734/677 610/480/452 612/493/465
f 619/736/679 615/737/680 617/738/681 620/739/682
f 620/739/682 617/738/681 616/492/464 618/520/490
f 579/713/656 577/710/653 578/708/651 581/714/657
f 581/714/657 578/708/651 576/516/487 580/519/489
f 585/717/660 583/712/655 584/715/658 587/718/661
f 587/718/661 584/715/658 582/489/461 586/488/460
f 591/721/664 589/716/659 590/719/662 593/722/665
f 593/722/665 590/719/662 588/515/486 592/514/485
f 597/725/668 595/720/663 596/723/666 599/726/669
f 599/726/669 596/723/666 594/485/457 598/484/456
f 603/740/672 601/724/667 602/727/670 605/741/673
f 605/741/673 602/727/670 600/497/469 604/496/468
f 609/733/676 607/728/671 608/731/674 611/734/677
f 611/734/677 608/731/674 606/481/453 610/480/452
f 615/737/680 613/732/675 614/735/678 617/738/681
f 617/738/681 614/735/678 612/493/465 616/492/464
f 621/711/654 619/736/679 620/739/682 623/709/652
f 623/709/652 620/739/682 618/520/490 622/517/488
