# Blender 4.0.2
# www.blender.org
o apple_sliced
v -0.020860 0.045000 -0.037065
v -0.029800 0.045000 -0.034585
v -0.039021 0.045000 -0.026328
v -0.043706 0.045000 -0.014249
v -0.045224 0.045000 0.000000
v -0.041882 0.045000 0.014249
v -0.036589 0.045000 0.026328
v -0.028138 0.045000 0.034400
v -0.018643 0.045000 0.037762
v -0.010605 0.045000 0.037112
v -0.003279 0.045000 0.032577
v -0.001760 0.045000 -0.014249
v -0.003566 0.045000 -0.023161
v -0.013552 0.045000 -0.035709
v -0.007590 0.045000 -0.031208
v 0.020412 0.045000 -0.037065
v 0.029352 0.045000 -0.034585
v 0.038573 0.045000 -0.026328
v 0.043258 0.045000 -0.014249
v 0.044776 0.045000 0.000000
v 0.041434 0.045000 0.014249
v 0.036141 0.045000 0.026328
v 0.027690 0.045000 0.034400
v 0.018195 0.045000 0.037762
v 0.010157 0.045000 0.037112
v 0.002831 0.045000 0.032577
v 0.001312 0.045000 -0.014249
v 0.003118 0.045000 -0.023161
v 0.013104 0.045000 -0.035709
v 0.007142 0.045000 -0.031208
v -0.000224 0.024364 -0.037065
v -0.000224 0.015423 -0.034585
v -0.000224 0.006203 -0.026328
v -0.000224 0.001518 -0.014249
v -0.000224 0.000000 0.000000
v -0.000224 0.003342 0.014249
v -0.000224 0.008635 0.026328
v -0.000224 0.017086 0.034400
v -0.000224 0.026581 0.037762
v -0.000224 0.034619 0.037112
v -0.000224 0.041945 0.032577
v -0.000224 0.043617 -0.014249
v -0.000224 0.041231 -0.023161
v -0.000224 0.031672 -0.035709
v -0.000224 0.037634 -0.031208
v -0.008121 0.025935 -0.037065
v -0.011542 0.017675 -0.034585
v -0.015071 0.009156 -0.026328
v -0.016864 0.004827 -0.014249
v -0.017445 0.003425 0.000000
v -0.016166 0.006513 0.014249
v -0.014140 0.011403 0.026328
v -0.010906 0.019210 0.034400
v -0.007273 0.027983 0.037762
v -0.004197 0.035409 0.037112
v -0.001393 0.042177 0.032577
v -0.000812 0.043722 -0.014249
v -0.001503 0.041518 -0.023161
v -0.005324 0.032686 -0.035709
v -0.003043 0.038195 -0.031208
v -0.014816 0.030408 -0.037065
v -0.021138 0.024086 -0.034585
v -0.027658 0.017566 -0.026328
v -0.030971 0.014253 -0.014249
v -0.032044 0.013180 0.000000
v -0.029681 0.015543 0.014249
v -0.025938 0.019286 0.026328
v -0.019962 0.025262 0.034400
v -0.013248 0.031976 0.037762
v -0.007565 0.037659 0.037112
v -0.002384 0.042840 0.032577
v -0.000224 0.045000 0.029784
v -0.001310 0.044022 -0.014249
v -0.002587 0.042335 -0.023161
v -0.009648 0.035576 -0.035709
v -0.005432 0.039791 -0.031208
v -0.019289 0.037103 -0.037065
v -0.027549 0.033681 -0.034585
v -0.036068 0.030153 -0.026328
v -0.040396 0.028360 -0.014249
v -0.041798 0.027779 0.000000
v -0.038711 0.029058 0.014249
v -0.033821 0.031083 0.026328
v -0.026013 0.034318 0.034400
v -0.017241 0.037951 0.037762
v -0.009815 0.041027 0.037112
v -0.003046 0.043831 0.032577
v -0.001643 0.044471 -0.014249
v -0.003312 0.043558 -0.023161
v -0.012537 0.039899 -0.035709
v -0.007029 0.042181 -0.031208
v -0.005997 0.045000 0.034898
v -0.000224 0.039227 0.034898
v -0.002433 0.039666 0.034898
v -0.004306 0.040918 0.034898
v -0.005558 0.042791 0.034898
v -0.000224 0.045000 -0.012599
v -0.000224 0.045000 0.003832
v -0.000224 0.045000 0.015301
v -0.022389 0.045000 0.018226
v -0.023297 0.045000 0.002273
v -0.014908 0.045000 0.003225
v -0.013520 0.045000 0.020036
v -0.031776 0.045000 0.016311
v -0.032754 0.045000 0.001151
v -0.032145 0.045000 -0.013044
v -0.005542 0.045000 0.015852
v -0.006515 0.045000 0.003799
v -0.000224 0.045000 -0.008442
v -0.015043 0.045000 -0.011262
v -0.006199 0.045000 -0.010410
v -0.023109 0.045000 -0.012103
v -0.004147 0.045000 0.022293
v -0.000224 0.045000 0.021743
v -0.007737 0.045000 0.023575
v 0.007673 0.025935 -0.037065
v 0.011094 0.017675 -0.034585
v 0.014623 0.009156 -0.026328
v 0.016416 0.004827 -0.014249
v 0.016997 0.003425 0.000000
v 0.015718 0.006513 0.014249
v 0.013692 0.011403 0.026328
v 0.010458 0.019210 0.034400
v 0.006825 0.027983 0.037762
v 0.003749 0.035409 0.037112
v 0.000945 0.042177 0.032577
v 0.000364 0.043722 -0.014249
v 0.001055 0.041518 -0.023161
v 0.004876 0.032686 -0.035709
v 0.002595 0.038195 -0.031208
v 0.014368 0.030408 -0.037065
v 0.020690 0.024086 -0.034585
v 0.027210 0.017566 -0.026328
v 0.030523 0.014253 -0.014249
v 0.031596 0.013180 0.000000
v 0.029233 0.015543 0.014249
v 0.025490 0.019286 0.026328
v 0.019514 0.025262 0.034400
v 0.012800 0.031976 0.037762
v 0.007117 0.037659 0.037112
v 0.001936 0.042840 0.032577
v 0.000862 0.044022 -0.014249
v 0.002139 0.042335 -0.023161
v 0.009200 0.035576 -0.035709
v 0.004984 0.039791 -0.031208
v 0.018841 0.037103 -0.037065
v 0.027101 0.033681 -0.034585
v 0.035620 0.030153 -0.026328
v 0.039948 0.028360 -0.014249
v 0.041350 0.027779 0.000000
v 0.038263 0.029058 0.014249
v 0.033373 0.031083 0.026328
v 0.025565 0.034318 0.034400
v 0.016793 0.037951 0.037762
v 0.009367 0.041027 0.037112
v 0.002598 0.043831 0.032577
v 0.001195 0.044471 -0.014249
v 0.002864 0.043558 -0.023161
v 0.012089 0.039899 -0.035709
v 0.006581 0.042181 -0.031208
v 0.005549 0.045000 0.034898
v 0.001985 0.039666 0.034898
v 0.003858 0.040918 0.034898
v 0.005110 0.042791 0.034898
v 0.021941 0.045000 0.018226
v 0.022849 0.045000 0.002273
v 0.014460 0.045000 0.003225
v 0.013072 0.045000 0.020036
v 0.031328 0.045000 0.016311
v 0.032306 0.045000 0.001151
v 0.031697 0.045000 -0.013044
v 0.005094 0.045000 0.015852
v 0.006067 0.045000 0.003799
v 0.014595 0.045000 -0.011262
v 0.005751 0.045000 -0.010410
v 0.022661 0.045000 -0.012103
v 0.003699 0.045000 0.022293
v 0.007289 0.045000 0.023575
vn -0.0000 -0.5011 -0.8654
vn -0.0000 -0.0715 -0.9974
vn 0.0274 -0.0661 -0.9974
vn 0.1918 -0.4630 -0.8654
vn -0.0000 -0.9498 0.3128
vn -0.0000 -0.9981 0.0608
vn 0.3820 -0.9222 0.0608
vn 0.3635 -0.8775 0.3128
vn -0.8763 0.3496 -0.3314
vn -0.8288 0.3464 -0.4393
vn -0.8622 0.2515 -0.4397
vn -0.9291 0.1764 -0.3250
vn 0.9222 -0.3820 0.0608
vn 0.8986 -0.3722 -0.2321
vn 0.9550 -0.1900 -0.2279
vn 0.9790 -0.1947 0.0597
vn -0.1918 -0.4630 -0.8654
vn -0.0274 -0.0661 -0.9974
vn -0.3543 -0.3543 -0.8654
vn -0.0506 -0.0506 -0.9974
vn -0.4630 -0.1918 -0.8654
vn -0.0661 -0.0274 -0.9974
vn -0.4986 -0.0992 -0.8611
vn -0.0715 -0.0142 -0.9973
vn 0.3722 -0.8986 -0.2321
vn 0.6878 -0.6878 -0.2321
vn 0.7058 -0.7058 0.0608
vn -0.1449 0.3499 -0.9255
vn -0.2678 0.2678 -0.9255
vn 0.0506 -0.0506 -0.9974
vn -0.0000 0.9411 -0.3382
vn -0.0000 0.8853 -0.4650
vn -0.3403 0.8277 -0.4463
vn -0.3717 0.8650 -0.3371
vn -0.6787 0.6539 -0.3343
vn -0.6325 0.6233 -0.4598
vn -0.0000 -0.8313 -0.5558
vn -0.3181 -0.7681 -0.5558
vn -0.5878 -0.5878 -0.5558
vn -0.7681 -0.3181 -0.5558
vn -0.8202 -0.1631 -0.5483
vn -0.1695 0.1695 0.9709
vn 0.1096 -0.1096 0.9879
vn 0.1432 -0.0593 0.9879
vn -0.2214 0.0917 0.9709
vn 0.7681 -0.3181 -0.5558
vn 0.8202 -0.1631 -0.5483
vn -0.0000 0.6476 0.7620
vn -0.0000 0.5343 0.8453
vn -0.2045 0.4936 0.8453
vn -0.2529 0.6105 0.7506
vn 0.3835 -0.3835 0.8402
vn 0.5010 -0.2075 0.8402
vn -0.0000 -0.9727 -0.2321
vn -0.3722 -0.8986 -0.2321
vn -0.6878 -0.6878 -0.2321
vn -0.8986 -0.3722 -0.2321
vn -0.9550 -0.1900 -0.2279
vn 0.3181 -0.7681 -0.5558
vn 0.5878 -0.5878 -0.5558
vn -0.0000 0.2397 0.9709
vn -0.0000 -0.1549 0.9879
vn 0.0593 -0.1432 0.9879
vn -0.0917 0.2214 0.9709
vn -0.3820 -0.9222 0.0608
vn -0.7058 -0.7058 0.0608
vn -0.9222 -0.3820 0.0608
vn -0.9790 -0.1947 0.0597
vn 0.3543 -0.3543 -0.8654
vn 0.6716 -0.6716 0.3128
vn 0.5848 -0.5848 0.5622
vn 0.7640 -0.3165 0.5622
vn -0.3635 -0.8775 0.3128
vn -0.6716 -0.6716 0.3128
vn -0.8775 -0.3635 0.3128
vn -0.9333 -0.1856 0.3074
vn 0.0661 -0.0274 -0.9974
vn -0.3499 0.1449 -0.9255
vn -0.3776 0.0751 -0.9229
vn 0.0715 -0.0142 -0.9973
vn -0.0000 0.3787 -0.9255
vn -0.0000 0.7690 -0.6393
vn -0.2994 0.7063 -0.6414
vn 0.8775 -0.3635 0.3128
vn 0.9333 -0.1856 0.3074
vn 0.8160 -0.1623 0.5548
vn -0.0000 -0.8270 0.5622
vn -0.3165 -0.7640 0.5622
vn -0.5848 -0.5848 0.5622
vn -0.7640 -0.3165 0.5622
vn -0.8160 -0.1623 0.5548
vn 0.1549 -0.0308 0.9875
vn -0.2394 0.0476 0.9698
vn -0.4579 0.4579 0.7620
vn -0.0000 0.5127 0.8586
vn 0.4630 -0.1918 -0.8654
vn 0.4986 -0.0992 -0.8611
vn -0.3778 0.3778 0.8453
vn -0.4936 0.2045 0.8453
vn -0.0000 -0.5423 0.8402
vn -0.2075 -0.5010 0.8402
vn -0.3835 -0.3835 0.8402
vn -0.5010 -0.2075 0.8402
vn -0.5392 -0.1072 0.8353
vn 0.5392 -0.1072 0.8353
vn -0.7035 0.2848 -0.6512
vn -0.7492 0.1458 -0.6461
vn 0.3165 -0.7640 0.5622
vn 0.2075 -0.5010 0.8402
vn -0.5457 0.5333 -0.6464
vn -0.0593 -0.1432 0.9879
vn -0.1096 -0.1096 0.9879
vn -0.1432 -0.0593 0.9879
vn -0.1549 -0.0308 0.9875
vn 0.0917 0.2214 0.9709
vn 0.1695 0.1695 0.9709
vn 0.2214 0.0917 0.9709
vn 0.2394 0.0476 0.9698
vn -0.5313 0.1057 0.8406
vn 0.2045 0.4936 0.8453
vn 0.3778 0.3778 0.8453
vn 0.4936 0.2045 0.8453
vn 0.5313 0.1057 0.8406
vn -0.0000 0.6193 -0.7852
vn 0.2529 0.6105 0.7506
vn 0.4579 0.4579 0.7620
vn 0.6105 0.2529 0.7506
vn 0.6361 0.1875 0.7485
vn 0.3717 0.8650 -0.3371
vn 0.3403 0.8277 -0.4463
vn 0.6787 0.6539 -0.3343
vn 0.6325 0.6233 -0.4598
vn 0.8763 0.3496 -0.3314
vn 0.8288 0.3464 -0.4393
vn 0.9291 0.1764 -0.3250
vn 0.8622 0.2515 -0.4397
vn 0.2994 0.7063 -0.6414
vn 0.5457 0.5333 -0.6464
vn 0.7035 0.2848 -0.6512
vn 0.7492 0.1458 -0.6461
vn -0.6105 0.2529 0.7506
vn 0.1449 0.3499 -0.9255
vn 0.2678 0.2678 -0.9255
vn 0.3499 0.1449 -0.9255
vn 0.3776 0.0751 -0.9229
vn -0.6361 0.1875 0.7485
vn -0.0000 1.0000 -0.0000
vt 0.283388 0.591592
vt 0.283388 0.647532
vt 0.213762 0.647532
vt 0.213762 0.591592
vt 0.283388 0.264211
vt 0.283388 0.352452
vt 0.213762 0.352452
vt 0.213762 0.264211
vt 0.088306 0.818317
vt 0.102998 0.864725
vt 0.100668 0.866597
vt 0.080899 0.822255
vt 0.074512 0.352452
vt 0.074512 0.438848
vt 0.004887 0.438848
vt 0.004887 0.352452
vt 0.353013 0.591592
vt 0.353013 0.647532
vt 0.422638 0.591592
vt 0.422638 0.647532
vt 0.492264 0.591592
vt 0.492264 0.647532
vt 0.561889 0.591592
vt 0.561889 0.647532
vt 0.213762 0.438848
vt 0.144137 0.438848
vt 0.144137 0.352452
vt 0.213762 0.692346
vt 0.144137 0.692346
vt 0.144137 0.647532
vt 0.111641 0.812919
vt 0.111641 0.863049
vt 0.108620 0.862980
vt 0.103915 0.813530
vt 0.095965 0.815387
vt 0.105835 0.863953
vt 0.283388 0.516965
vt 0.353013 0.516965
vt 0.422638 0.516965
vt 0.492264 0.516965
vt 0.561889 0.516965
vt 0.144137 0.004883
vt 0.144137 0.053505
vt 0.074512 0.053505
vt 0.074512 0.004883
vt 0.074512 0.516965
vt 0.004887 0.516965
vt 0.281936 0.733596
vt 0.281936 0.754468
vt 0.268836 0.752289
vt 0.275217 0.732830
vt 0.144137 0.114236
vt 0.074512 0.114236
vt 0.283388 0.438848
vt 0.353013 0.438848
vt 0.422638 0.438848
vt 0.492264 0.438848
vt 0.561889 0.438848
vt 0.213762 0.516965
vt 0.144137 0.516965
vt 0.283388 0.004883
vt 0.283388 0.053505
vt 0.213762 0.053505
vt 0.213762 0.004883
vt 0.353013 0.352452
vt 0.422638 0.352452
vt 0.492264 0.352452
vt 0.561889 0.352452
vt 0.144137 0.591592
vt 0.144137 0.264211
vt 0.144137 0.184695
vt 0.074512 0.184695
vt 0.353013 0.264211
vt 0.422638 0.264211
vt 0.492264 0.264211
vt 0.561889 0.264211
vt 0.074512 0.647532
vt 0.074512 0.692346
vt 0.004887 0.692346
vt 0.004887 0.647532
vt 0.111641 0.714892
vt 0.111641 0.758750
vt 0.094179 0.760103
vt 0.084752 0.717810
vt 0.074512 0.264211
vt 0.004887 0.264211
vt 0.004887 0.184695
vt 0.283388 0.184695
vt 0.353013 0.184695
vt 0.422638 0.184695
vt 0.492264 0.184695
vt 0.561889 0.184695
vt 0.004887 0.053505
vt 0.004887 0.004883
vt 0.269248 0.729590
vt 0.281936 0.710566
vt 0.074512 0.591592
vt 0.004887 0.591592
vt 0.257283 0.746297
vt 0.239825 0.769840
vt 0.224094 0.753464
vt 0.248147 0.736945
vt 0.283388 0.114236
vt 0.353013 0.114236
vt 0.422638 0.114236
vt 0.492264 0.114236
vt 0.561889 0.114236
vt 0.004887 0.114236
vt 0.062230 0.772550
vt 0.049468 0.783067
vt 0.213762 0.184695
vt 0.213762 0.114236
vt 0.077408 0.764784
vt 0.353013 0.053505
vt 0.422638 0.053505
vt 0.492264 0.053505
vt 0.561889 0.053505
vt 0.059382 0.726266
vt 0.036521 0.740107
vt 0.353013 0.004883
vt 0.422638 0.004883
vt 0.492264 0.004883
vt 0.561889 0.004883
vt 0.214649 0.732619
vt 0.242642 0.725510
vt 0.295036 0.752289
vt 0.304081 0.780180
vt 0.281936 0.783754
vt 0.306590 0.746297
vt 0.324047 0.769840
vt 0.315726 0.736945
vt 0.339778 0.753464
vt 0.321230 0.725511
vt 0.349224 0.732620
vt 0.111641 0.874854
vt 0.288656 0.732830
vt 0.294624 0.729590
vt 0.299603 0.725213
vt 0.302517 0.719361
vt 0.119367 0.813530
vt 0.114662 0.862980
vt 0.127316 0.815387
vt 0.117446 0.863953
vt 0.134976 0.818317
vt 0.120283 0.864725
vt 0.142383 0.822255
vt 0.122613 0.866597
vt 0.017554 0.759306
vt 0.129102 0.760103
vt 0.145874 0.764784
vt 0.161052 0.772551
vt 0.173813 0.783067
vt 0.264269 0.725213
vt 0.283388 0.692346
vt 0.259791 0.780180
vt 0.353013 0.692346
vt 0.422638 0.692346
vt 0.492264 0.692346
vt 0.561889 0.692346
vt 0.138530 0.717810
vt 0.163900 0.726266
vt 0.186761 0.740107
vt 0.205728 0.759306
vt 0.261355 0.719361
vt 0.801966 0.227201
vt 0.802150 0.262951
vt 0.732397 0.262951
vt 0.721215 0.228998
vt 0.870459 0.232730
vt 0.867329 0.262951
vt 0.583827 0.094869
vt 0.706245 0.081544
vt 0.711596 0.132895
vt 0.569735 0.145678
vt 0.907066 0.240659
vt 0.903937 0.262951
vt 0.786917 0.078086
vt 0.873070 0.083642
vt 0.883955 0.136990
vt 0.793292 0.131830
vt 0.975867 0.104315
vt 0.994973 0.158276
vt 0.716372 0.178736
vt 0.577443 0.187209
vt 0.894239 0.187389
vt 0.798703 0.179502
vt 0.603017 0.221091
vt 0.991281 0.203956
vt 0.780375 0.007218
vt 0.861350 0.026208
vt 0.929998 0.056288
vt 0.699399 0.015842
vt 0.699399 0.254225
vt 0.648748 0.243956
vt 0.630751 0.042466
vt 0.978702 0.230143
vt 0.965509 0.245590
vt 0.914353 0.220254
vt 0.708774 0.262951
vt 0.949639 0.262951
vt 0.883955 0.388912
vt 0.894239 0.338514
vt 0.991281 0.321947
vt 0.994973 0.367627
vt 0.577443 0.338694
vt 0.603017 0.304811
vt 0.721215 0.296905
vt 0.716372 0.347166
vt 0.861350 0.499695
vt 0.873070 0.442260
vt 0.975867 0.421588
vt 0.929998 0.469615
vt 0.699399 0.271678
vt 0.648748 0.281946
vt 0.914353 0.305649
vt 0.978702 0.295760
vt 0.798703 0.346400
vt 0.801966 0.298702
vt 0.870459 0.293173
vt 0.780375 0.518685
vt 0.786917 0.447817
vt 0.793292 0.394073
vt 0.583827 0.431034
vt 0.569735 0.380225
vt 0.711596 0.393008
vt 0.706245 0.444358
vt 0.699399 0.510061
vt 0.907066 0.285243
vt 0.965509 0.280313
vt 0.630751 0.483436
s 1
f 32/1/1 31/2/2 116/3/3 117/4/4
f 36/5/5 35/6/6 120/7/7 121/8/8
f 158/9/9 157/10/10 27/11/11 28/12/12
f 150/13/13 149/14/14 19/15/15 20/16/16
f 32/1/1 47/17/17 46/18/18 31/2/2
f 47/17/17 62/19/19 61/20/20 46/18/18
f 62/19/19 78/21/21 77/22/22 61/20/20
f 78/21/21 2/23/23 1/24/24 77/22/22
f 120/7/7 119/25/25 134/26/26 135/27/27
f 116/3/3 129/28/28 144/29/29 131/30/30
f 43/31/31 42/32/32 127/33/33 128/34/34
f 143/35/35 142/36/36 157/10/10 158/9/9
f 33/37/37 48/38/38 47/17/17 32/1/1
f 48/38/38 63/39/39 62/19/19 47/17/17
f 63/39/39 79/40/40 78/21/21 62/19/19
f 79/40/40 3/41/41 2/23/23 78/21/21
f 140/42/42 139/43/43 154/44/44 155/45/45
f 149/14/14 148/46/46 18/47/47 19/15/15
f 41/48/48 93/49/49 162/50/50 126/51/51
f 139/43/43 138/52/52 153/53/53 154/44/44
f 34/54/54 49/55/55 48/38/38 33/37/37
f 49/55/55 64/56/56 63/39/39 48/38/38
f 64/56/56 80/57/57 79/40/40 63/39/39
f 80/57/57 4/58/58 3/41/41 79/40/40
f 119/25/25 118/59/59 133/60/60 134/26/26
f 33/37/37 32/1/1 117/4/4 118/59/59
f 40/61/61 39/62/62 124/63/63 125/64/64
f 134/26/26 133/60/60 148/46/46 149/14/14
f 35/6/6 50/65/65 49/55/55 34/54/54
f 50/65/65 65/66/66 64/56/56 49/55/55
f 65/66/66 81/67/67 80/57/57 64/56/56
f 81/67/67 5/68/68 4/58/58 80/57/57
f 117/4/4 116/3/3 131/30/30 132/69/69
f 121/8/8 120/7/7 135/27/27 136/70/70
f 138/52/52 137/71/71 152/72/72 153/53/53
f 125/64/64 124/63/63 139/43/43 140/42/42
f 36/5/5 51/73/73 50/65/65 35/6/6
f 51/73/73 66/74/74 65/66/66 50/65/65
f 66/74/74 82/75/75 81/67/67 65/66/66
f 82/75/75 6/76/76 5/68/68 81/67/67
f 146/77/77 159/78/78 29/79/79 16/80/80
f 44/81/81 45/82/82 130/83/83 129/84/28
f 152/72/72 151/85/84 21/86/85 22/87/86
f 137/71/71 136/70/70 151/85/84 152/72/72
f 37/88/87 52/89/88 51/73/73 36/5/5
f 52/89/88 67/90/89 66/74/74 51/73/73
f 67/90/89 83/91/90 82/75/75 66/74/74
f 83/91/90 7/92/91 6/76/76 82/75/75
f 155/45/45 154/44/44 24/93/92 25/94/93
f 126/51/51 141/95/94 72/96/95 41/48/48
f 148/46/46 147/97/96 17/98/97 18/47/47
f 163/99/98 140/100/42 155/101/45 164/102/99
f 38/103/100 53/104/101 52/89/88 37/88/87
f 53/104/101 68/105/102 67/90/89 52/89/88
f 68/105/102 84/106/103 83/91/90 67/90/89
f 84/106/103 8/107/104 7/92/91 83/91/90
f 154/44/44 153/53/53 23/108/105 24/93/92
f 160/109/106 158/9/9 28/12/12 30/110/107
f 38/103/100 37/88/87 122/111/108 123/112/109
f 145/113/110 143/35/35 158/9/9 160/109/106
f 39/62/62 54/114/111 53/104/101 38/103/100
f 54/114/111 69/115/112 68/105/102 53/104/101
f 69/115/112 85/116/113 84/106/103 68/105/102
f 85/116/113 9/117/114 8/107/104 84/106/103
f 128/34/34 127/33/33 142/36/36 143/35/35
f 144/118/29 145/113/110 160/109/106 159/119/78
f 34/54/54 33/37/37 118/59/59 119/25/25
f 151/85/84 150/13/13 20/16/16 21/86/85
f 40/61/61 55/120/115 54/114/111 39/62/62
f 55/120/115 70/121/116 69/115/112 54/114/111
f 70/121/116 86/122/117 85/116/113 69/115/112
f 86/122/117 10/123/118 9/117/114 85/116/113
f 132/69/69 131/30/30 146/77/77 147/97/96
f 126/51/51 162/50/50 163/99/98 141/95/94
f 153/53/53 152/72/72 22/87/86 23/108/105
f 164/102/99 155/101/45 25/124/93 161/125/119
f 93/49/49 94/126/120 55/127/115 40/128/61
f 94/126/120 95/129/121 70/130/116 55/127/115
f 95/129/121 96/131/122 86/132/117 70/130/116
f 96/131/122 92/133/123 10/134/118 86/132/117
f 42/32/32 97/135/124 142/36/36 127/33/33
f 118/59/59 117/4/4 132/69/69 133/60/60
f 56/136/125 41/48/48 72/96/95 71/137/126
f 87/138/127 71/137/126 72/96/95 11/139/128
f 129/84/28 130/83/83 145/113/110 144/118/29
f 133/60/60 132/69/69 147/97/96 148/46/46
f 35/6/6 34/54/54 119/25/25 120/7/7
f 122/111/108 121/8/8 136/70/70 137/71/71
f 43/31/31 58/140/129 57/141/130 42/32/32
f 58/140/129 74/142/131 73/143/132 57/141/130
f 74/142/131 89/144/133 88/145/134 73/143/132
f 89/144/133 13/146/135 12/147/136 88/145/134
f 37/88/87 36/5/5 121/8/8 122/111/108
f 39/62/62 38/103/100 123/112/109 124/63/63
f 124/63/63 123/112/109 138/52/52 139/43/43
f 159/119/78 160/109/106 30/110/107 29/148/79
f 45/82/82 60/149/137 58/140/129 43/31/31
f 60/149/137 76/150/138 74/142/131 58/140/129
f 76/150/138 91/151/139 89/144/133 74/142/131
f 91/151/139 15/152/140 13/146/135 89/144/133
f 141/95/94 163/99/98 164/102/99 156/153/141
f 31/2/2 44/154/81 129/28/28 116/3/3
f 131/30/30 144/29/29 159/78/78 146/77/77
f 93/49/49 40/128/61 125/155/64 162/50/50
f 31/2/2 46/18/18 59/156/142 44/154/81
f 46/18/18 61/20/20 75/157/143 59/156/142
f 61/20/20 77/22/22 90/158/144 75/157/143
f 77/22/22 1/24/24 14/159/145 90/158/144
f 135/27/27 134/26/26 149/14/14 150/13/13
f 130/83/83 128/34/34 143/35/35 145/113/110
f 147/97/96 146/77/77 16/80/80 17/98/97
f 136/70/70 135/27/27 150/13/13 151/85/84
f 44/81/81 59/160/142 60/149/137 45/82/82
f 59/160/142 75/161/143 76/150/138 60/149/137
f 75/161/143 90/162/144 91/151/139 76/150/138
f 90/162/144 14/163/145 15/152/140 91/151/139
f 87/138/127 11/139/128 92/133/123 96/131/122
f 71/137/126 87/138/127 96/131/122 95/129/121
f 56/136/125 71/137/126 95/129/121 94/126/120
f 41/48/48 56/136/125 94/126/120 93/49/49
f 156/153/141 164/102/99 161/125/119 26/164/146
f 45/82/82 43/31/31 128/34/34 130/83/83
f 123/112/109 122/111/108 137/71/71 138/52/52
f 162/50/50 125/155/64 140/100/42 163/99/98
f 156/153/141 26/164/146 72/96/95 141/95/94
f 42/32/32 57/141/130 73/143/132 97/135/124
f 157/10/10 142/36/36 97/135/124 27/11/11
f 88/145/134 12/147/136 97/135/124 73/143/132
f 108/165/147 98/166/147 109/167/147 111/168/147
f 107/169/147 99/170/147 98/166/147 108/165/147
f 2/171/147 106/172/147 112/173/147 1/174/147
f 107/169/147 113/175/147 114/176/147 99/170/147
f 105/177/147 104/178/147 100/179/147 101/180/147
f 104/178/147 8/181/147 9/182/147 100/179/147
f 1/174/147 112/173/147 110/183/147 14/184/147
f 101/180/147 100/179/147 103/185/147 102/186/147
f 14/184/147 110/183/147 111/168/147 15/187/147
f 100/179/147 9/182/147 10/188/147 103/185/147
f 5/189/147 6/190/147 104/178/147 105/177/147
f 6/190/147 7/191/147 8/181/147 104/178/147
f 4/192/147 5/189/147 105/177/147 106/172/147
f 15/187/147 111/168/147 12/193/147 13/194/147
f 3/195/147 4/192/147 106/172/147 2/171/147
f 102/186/147 103/185/147 107/169/147 108/165/147
f 92/196/147 11/197/147 113/175/147 115/198/147
f 109/167/147 97/199/147 12/193/147 111/168/147
f 110/183/147 102/186/147 108/165/147 111/168/147
f 106/172/147 105/177/147 101/180/147 112/173/147
f 112/173/147 101/180/147 102/186/147 110/183/147
f 10/188/147 92/196/147 115/198/147 103/185/147
f 103/185/147 115/198/147 113/175/147 107/169/147
f 113/175/147 11/197/147 72/200/147 114/176/147
f 165/201/147 168/202/147 25/203/147 24/204/147
f 29/205/147 30/206/147 175/207/147 174/208/147
f 21/209/147 169/210/147 23/211/147 22/212/147
f 169/210/147 165/201/147 24/204/147 23/211/147
f 109/167/147 175/207/147 27/213/147 97/199/147
f 30/206/147 28/214/147 27/213/147 175/207/147
f 25/203/147 168/202/147 178/215/147 161/216/147
f 167/217/147 173/218/147 172/219/147 168/202/147
f 173/218/147 175/207/147 109/167/147 98/166/147
f 172/219/147 173/218/147 98/166/147 99/170/147
f 20/220/147 170/221/147 169/210/147 21/209/147
f 170/221/147 166/222/147 165/201/147 169/210/147
f 17/223/147 16/224/147 176/225/147 171/226/147
f 19/227/147 171/226/147 170/221/147 20/220/147
f 168/202/147 172/219/147 177/228/147 178/215/147
f 166/222/147 167/217/147 168/202/147 165/201/147
f 174/208/147 175/207/147 173/218/147 167/217/147
f 176/225/147 174/208/147 167/217/147 166/222/147
f 171/226/147 176/225/147 166/222/147 170/221/147
f 172/219/147 99/170/147 114/176/147 177/228/147
f 177/228/147 114/176/147 72/200/147 26/229/147
f 16/224/147 29/205/147 174/208/147 176/225/147
f 18/230/147 17/223/147 171/226/147 19/227/147
f 161/216/147 178/215/147 177/228/147 26/229/147
