# Blender 4.0.2
# www.blender.org
o mid_century_starburst
v 0.063633 0.062975 0.000000
v 0.118761 0.000000 0.000000
v -0.063633 0.062975 0.000000
v 0.011592 0.022017 0.000000
v 0.023857 0.011451 0.000000
v 0.000000 0.150201 0.000000
v -0.118761 0.000000 0.000000
v -0.011592 0.022017 0.000000
v 0.000000 0.000000 0.010846
v -0.023857 0.011451 0.000000
v 0.063633 -0.062975 0.000000
v 0.011592 -0.022017 0.000000
v 0.023857 -0.011451 0.000000
v 0.000000 -0.150201 0.000000
v -0.063633 -0.062975 0.000000
v -0.011592 -0.022017 0.000000
v -0.023857 -0.011451 0.000000
v 0.000000 0.000000 0.000000
vn 0.6230 0.0563 0.7802
vn 0.0726 0.6020 0.7952
vn 0.5335 -0.4119 0.7387
vn -0.5335 -0.4119 0.7387
vn -0.6230 0.0563 0.7802
vn -0.0726 0.6020 0.7952
vn 0.5335 0.4119 0.7387
vn 0.0726 -0.6020 0.7952
vn 0.6230 -0.0563 0.7802
vn -0.5335 0.4119 0.7387
vn -0.0726 -0.6020 0.7952
vn -0.6230 -0.0563 0.7802
vn -0.4520 0.5742 0.6826
vn -0.4520 -0.5742 0.6826
vn 0.4520 0.5742 0.6826
vn 0.4520 -0.5742 0.6826
vn -0.0000 -0.0000 -1.0000
vt 0.598277 0.668324
vt 0.672055 0.630854
vt 0.994642 0.668324
vt 0.634229 0.589258
vt 0.598277 0.352883
vt 0.765235 0.494713
vt 0.765235 0.841935
vt 0.634229 0.747389
vt 0.672054 0.705793
vt 0.598277 0.983764
vt 0.431319 0.494713
vt 0.562325 0.589258
vt 0.201912 0.668324
vt 0.524499 0.630855
vt 0.562325 0.747389
vt 0.431318 0.841935
vt 0.524499 0.705793
vt 0.401249 0.320324
vt 0.797614 0.320324
vt 0.475026 0.357793
vt 0.437201 0.399390
vt 0.401249 0.635765
vt 0.568207 0.493935
vt 0.437201 0.241259
vt 0.568207 0.146713
vt 0.475026 0.282855
vt 0.401249 0.004883
vt 0.365297 0.399390
vt 0.234290 0.493936
vt 0.327471 0.357793
vt 0.004884 0.320324
vt 0.234290 0.146713
vt 0.365297 0.241259
vt 0.327471 0.282855
s 0
f 9/1/1 4/2/1 6/3/1
f 5/4/2 9/1/2 2/5/2
f 9/1/3 5/4/3 1/6/3
f 9/1/4 3/7/4 10/8/4
f 9/1/5 6/3/5 8/9/5
f 10/8/6 7/10/6 9/1/6
f 9/1/7 11/11/7 13/12/7
f 13/12/8 2/5/8 9/1/8
f 9/1/9 14/13/9 12/14/9
f 9/1/10 17/15/10 15/16/10
f 17/15/11 9/1/11 7/10/11
f 9/1/12 16/17/12 14/13/12
f 4/2/13 9/1/13 1/6/13
f 12/14/14 11/11/14 9/1/14
f 8/9/15 3/7/15 9/1/15
f 16/17/16 9/1/16 15/16/16
f 18/18/17 6/19/17 4/20/17
f 5/21/17 2/22/17 18/18/17
f 18/18/17 1/23/17 5/21/17
f 18/18/17 10/24/17 3/25/17
f 18/18/17 8/26/17 6/19/17
f 10/24/17 18/18/17 7/27/17
f 18/18/17 13/28/17 11/29/17
f 13/28/17 18/18/17 2/22/17
f 18/18/17 12/30/17 14/31/17
f 18/18/17 15/32/17 17/33/17
f 17/33/17 7/27/17 18/18/17
f 18/18/17 14/31/17 16/34/17
f 4/20/17 1/23/17 18/18/17
f 12/30/17 18/18/17 11/29/17
f 8/26/17 18/18/17 3/25/17
f 16/34/17 15/32/17 18/18/17
