# Blender 4.0.2
# www.blender.org
o feather_01
v -0.011013 0.065225 0.000381
v -0.009283 0.056823 0.000397
v -0.005330 0.046692 0.000415
v -0.003106 0.044839 0.000418
v 0.004183 0.048793 0.000411
v 0.010731 0.054970 0.000400
v 0.014808 0.062136 0.000387
v 0.016044 0.069055 0.000374
v 0.016538 0.074985 0.000364
v 0.017156 0.078321 0.000358
v 0.014520 0.075841 0.000362
v 0.008667 0.072173 0.000369
v 0.004436 0.068956 0.000375
v -0.000390 0.064189 0.000383
v -0.004263 0.059959 0.000391
v -0.001224 0.064785 0.000382
v 0.008071 0.073245 0.000367
v 0.012577 0.079970 0.000355
v -0.012603 0.083660 0.000348
v 0.013999 0.089611 0.000337
v 0.013887 0.100726 0.000317
v 0.013444 0.112464 0.000296
v 0.013464 0.124371 0.000274
v -0.008415 0.146746 0.000233
v 0.013701 0.134583 0.000255
v 0.013464 0.142663 0.000241
v 0.014263 0.150009 0.000227
v 0.014469 0.155569 0.000217
v 0.014160 0.158452 0.000212
v 0.015176 0.160206 0.000209
v 0.015677 0.161708 0.000206
v 0.015248 0.163996 0.000202
v 0.014040 0.162208 0.000205
v 0.009814 0.157775 0.000213
v 0.006454 0.154200 0.000220
v 0.009022 0.158397 0.000212
v 0.012698 0.163122 0.000203
v 0.013717 0.165795 0.000199
v 0.012174 0.177866 0.000177
v 0.011316 0.178724 0.000175
v 0.011673 0.181298 0.000170
v 0.010672 0.182656 0.000168
v 0.011316 0.184587 0.000164
v 0.005222 0.197064 0.000142
v 0.010439 0.189591 0.000155
v 0.008885 0.194954 0.000146
v 0.007383 0.198100 0.000140
v 0.005882 0.199458 0.000137
v 0.004249 0.199665 0.000137
v 0.002428 0.198672 0.000139
v 0.001146 0.195486 0.000145
v -0.002578 0.180931 0.000171
v -0.004002 0.175414 0.000181
v -0.007374 0.155387 0.000218
v -0.010669 0.126921 0.000269
v -0.011646 0.115056 0.000291
v -0.012337 0.102988 0.000313
v -0.012626 0.092983 0.000331
v -0.012064 0.074767 0.000364
v -0.003534 0.043937 0.000420
v -0.002781 0.043906 0.000420
v -0.001242 0.044353 0.000419
v 0.000794 0.044899 0.000418
v 0.003277 0.044999 0.000418
v 0.006504 0.044701 0.000419
v 0.009682 0.045048 0.000418
v 0.012022 0.045815 0.000417
v 0.013554 0.046687 0.000415
v 0.012065 0.044601 0.000419
v 0.009518 0.043043 0.000422
v 0.001576 0.041960 0.000424
v -0.000344 0.041704 0.000424
v -0.003426 0.039736 0.000428
v 0.006343 0.042177 0.000423
v -0.002086 0.040921 0.000426
v 0.003959 0.042068 0.000423
v -0.005279 0.093122 0.000331
v -0.005280 0.102942 0.000313
v -0.004771 0.114568 0.000292
v -0.004155 0.126306 0.000270
v -0.001849 0.154894 0.000218
v 0.000166 0.174629 0.000183
v 0.001278 0.180253 0.000172
v -0.004782 0.074385 0.000365
v -0.004523 0.067195 0.000378
v -0.002414 0.061721 0.000388
v -0.005087 0.083662 0.000348
v -0.009488 0.137718 0.000250
v -0.003340 0.137119 0.000251
v -0.002585 0.146198 0.000234
v 0.012993 0.161110 0.000207
v 0.011661 0.159713 0.000210
v -0.000173 0.069618 0.000373
v 0.003724 0.091862 0.000333
v 0.004253 0.102183 0.000314
v 0.000615 0.073815 0.000366
v 0.002543 0.082264 0.000350
v 0.004651 0.125318 0.000272
v 0.005467 0.144773 0.000237
v 0.004288 0.113869 0.000293
v 0.005085 0.135862 0.000253
v -0.005221 0.168691 0.000193
v -0.006277 0.162444 0.000205
v -0.001184 0.161872 0.000206
v -0.000574 0.168007 0.000195
v -0.001267 0.186038 0.000162
v 0.002300 0.185028 0.000164
v 0.004282 0.193497 0.000148
v 0.000030 0.191117 0.000153
v 0.003326 0.189409 0.000156
v -0.011013 0.065225 -0.000381
v -0.009283 0.056823 -0.000397
v -0.005330 0.046692 -0.000415
v -0.003106 0.044839 -0.000418
v 0.004183 0.048793 -0.000411
v 0.010731 0.054970 -0.000400
v 0.014808 0.062136 -0.000387
v 0.016044 0.069055 -0.000374
v 0.016538 0.074985 -0.000364
v 0.017156 0.078321 -0.000358
v 0.014520 0.075841 -0.000362
v 0.008667 0.072173 -0.000369
v 0.004436 0.068956 -0.000375
v -0.000390 0.064189 -0.000383
v -0.004263 0.059959 -0.000391
v -0.001224 0.064785 -0.000382
v 0.008071 0.073245 -0.000367
v 0.012577 0.079970 -0.000355
v -0.012603 0.083660 -0.000348
v 0.013999 0.089611 -0.000337
v 0.013887 0.100726 -0.000317
v 0.013444 0.112464 -0.000296
v 0.013464 0.124371 -0.000274
v -0.008415 0.146746 -0.000233
v 0.013701 0.134583 -0.000255
v 0.013464 0.142663 -0.000241
v 0.014263 0.150009 -0.000227
v 0.014469 0.155569 -0.000217
v 0.014160 0.158452 -0.000212
v 0.015176 0.160206 -0.000209
v 0.015677 0.161708 -0.000206
v 0.015248 0.163996 -0.000202
v 0.014040 0.162208 -0.000205
v 0.009814 0.157775 -0.000213
v 0.006454 0.154200 -0.000220
v 0.009022 0.158397 -0.000212
v 0.012698 0.163122 -0.000203
v 0.013717 0.165795 -0.000199
v 0.012174 0.177866 -0.000177
v 0.011316 0.178724 -0.000175
v 0.011673 0.181298 -0.000170
v 0.010672 0.182656 -0.000168
v 0.011316 0.184587 -0.000164
v 0.005222 0.197064 -0.000142
v 0.010439 0.189591 -0.000155
v 0.008885 0.194954 -0.000146
v 0.007383 0.198100 -0.000140
v 0.005882 0.199458 -0.000137
v 0.004249 0.199665 -0.000137
v 0.002428 0.198672 -0.000139
v 0.001146 0.195486 -0.000145
v -0.002578 0.180931 -0.000171
v -0.004002 0.175414 -0.000181
v -0.007374 0.155387 -0.000218
v -0.010669 0.126921 -0.000269
v -0.011646 0.115056 -0.000291
v -0.012337 0.102988 -0.000313
v -0.012626 0.092983 -0.000331
v -0.012064 0.074767 -0.000364
v -0.003534 0.043937 -0.000420
v -0.002781 0.043906 -0.000420
v -0.001242 0.044353 -0.000419
v 0.000794 0.044899 -0.000418
v 0.003277 0.044999 -0.000418
v 0.006504 0.044701 -0.000419
v 0.009682 0.045048 -0.000418
v 0.012022 0.045815 -0.000417
v 0.013554 0.046687 -0.000415
v 0.012065 0.044601 -0.000419
v 0.009518 0.043043 -0.000422
v 0.001576 0.041960 -0.000424
v -0.000344 0.041704 -0.000424
v -0.003426 0.039736 -0.000428
v 0.006343 0.042177 -0.000423
v -0.002086 0.040921 -0.000426
v 0.003959 0.042068 -0.000423
v -0.005279 0.093122 -0.000331
v -0.005280 0.102942 -0.000313
v -0.004771 0.114568 -0.000292
v -0.004155 0.126306 -0.000270
v -0.001849 0.154894 -0.000218
v 0.000166 0.174629 -0.000183
v 0.001278 0.180253 -0.000172
v -0.004782 0.074385 -0.000365
v -0.004523 0.067195 -0.000378
v -0.002414 0.061721 -0.000388
v -0.005087 0.083662 -0.000348
v -0.009488 0.137718 -0.000250
v -0.003340 0.137119 -0.000251
v -0.002585 0.146198 -0.000234
v 0.012993 0.161110 -0.000207
v 0.011661 0.159713 -0.000210
v -0.000173 0.069618 -0.000373
v 0.003724 0.091862 -0.000333
v 0.004253 0.102183 -0.000314
v 0.000615 0.073815 -0.000366
v 0.002543 0.082264 -0.000350
v 0.004651 0.125318 -0.000272
v 0.005467 0.144773 -0.000237
v 0.004288 0.113869 -0.000293
v 0.005085 0.135862 -0.000253
v -0.005221 0.168691 -0.000193
v -0.006277 0.162444 -0.000205
v -0.001184 0.161872 -0.000206
v -0.000574 0.168007 -0.000195
v -0.001267 0.186038 -0.000162
v 0.002300 0.185028 -0.000164
v 0.004282 0.193497 -0.000148
v 0.000030 0.191117 -0.000153
v 0.003326 0.189409 -0.000156
v 0.000826 0.000088 0.001438
v 0.001431 0.000152 0.000830
v 0.001652 0.000176 0.000000
v 0.001431 0.000152 -0.000830
v 0.000826 0.000088 -0.001438
v 0.000001 0.000000 -0.001661
v -0.000826 -0.000088 -0.001439
v -0.001431 -0.000152 -0.000831
v -0.001653 -0.000176 -0.000000
v -0.001431 -0.000152 0.000831
v -0.000826 -0.000088 0.001439
v 0.000001 0.000000 0.001661
v -0.002863 0.034406 0.001236
v -0.002342 0.034457 0.000713
v -0.002151 0.034476 0.000000
v -0.002342 0.034457 -0.000713
v -0.002863 0.034406 -0.001236
v -0.003575 0.034336 -0.001427
v -0.004287 0.034266 -0.001237
v -0.004809 0.034215 -0.000714
v -0.005000 0.034196 -0.000000
v -0.004809 0.034215 0.000714
v -0.004287 0.034266 0.001237
v -0.003575 0.034336 0.001427
v -0.004022 0.049648 0.001146
v -0.003538 0.049680 0.000661
v -0.003361 0.049692 -0.000000
v -0.003538 0.049680 -0.000661
v -0.004022 0.049648 -0.001146
v -0.004683 0.049604 -0.001323
v -0.005345 0.049560 -0.001146
v -0.005830 0.049528 -0.000662
v -0.006007 0.049516 -0.000000
v -0.005830 0.049528 0.000662
v -0.005345 0.049560 0.001146
v -0.004683 0.049604 0.001323
v -0.004719 0.064908 0.001056
v -0.004273 0.064935 0.000609
v -0.004109 0.064945 -0.000000
v -0.004273 0.064935 -0.000609
v -0.004719 0.064908 -0.001056
v -0.005328 0.064872 -0.001219
v -0.005938 0.064835 -0.001056
v -0.006385 0.064809 -0.000610
v -0.006548 0.064799 -0.000000
v -0.006385 0.064809 0.000610
v -0.005938 0.064835 0.001056
v -0.005328 0.064872 0.001219
v -0.005140 0.082684 0.000951
v -0.004738 0.082696 0.000549
v -0.004591 0.082700 0.000000
v -0.004738 0.082696 -0.000549
v -0.005139 0.082684 -0.000951
v -0.005688 0.082667 -0.001098
v -0.006237 0.082651 -0.000951
v -0.006639 0.082639 -0.000549
v -0.006786 0.082634 -0.000000
v -0.006639 0.082639 0.000549
v -0.006238 0.082651 0.000951
v -0.005689 0.082667 0.001098
v -0.005341 0.100445 0.000845
v -0.004984 0.100431 0.000488
v -0.004853 0.100426 -0.000000
v -0.004984 0.100431 -0.000488
v -0.005341 0.100445 -0.000845
v -0.005829 0.100463 -0.000976
v -0.006317 0.100482 -0.000845
v -0.006674 0.100495 -0.000488
v -0.006804 0.100500 -0.000000
v -0.006674 0.100495 0.000488
v -0.006317 0.100482 0.000845
v -0.005829 0.100463 0.000976
v -0.004496 0.120893 0.000725
v -0.004191 0.120860 0.000418
v -0.004080 0.120848 -0.000001
v -0.004192 0.120860 -0.000419
v -0.004497 0.120893 -0.000726
v -0.004914 0.120938 -0.000838
v -0.005330 0.120983 -0.000725
v -0.005634 0.121016 -0.000418
v -0.005746 0.121028 0.000001
v -0.005634 0.121016 0.000419
v -0.005329 0.120983 0.000726
v -0.004912 0.120938 0.000838
v -0.003042 0.141345 0.000607
v -0.002791 0.141296 0.000350
v -0.002699 0.141278 -0.000001
v -0.002792 0.141296 -0.000352
v -0.003044 0.141346 -0.000608
v -0.003388 0.141414 -0.000702
v -0.003732 0.141482 -0.000607
v -0.003984 0.141531 -0.000350
v -0.004076 0.141549 0.000001
v -0.003983 0.141531 0.000352
v -0.003731 0.141481 0.000608
v -0.003386 0.141413 0.000702
v -0.001512 0.159355 0.000498
v -0.001295 0.159318 0.000288
v -0.001215 0.159304 -0.000000
v -0.001295 0.159318 -0.000288
v -0.001512 0.159355 -0.000498
v -0.001808 0.159405 -0.000574
v -0.002104 0.159456 -0.000497
v -0.002320 0.159493 -0.000287
v -0.002399 0.159507 -0.000000
v -0.002320 0.159493 0.000287
v -0.002104 0.159456 0.000497
v -0.001808 0.159405 0.000574
v 0.000134 0.174216 0.000436
v 0.000313 0.174172 0.000251
v 0.000378 0.174157 -0.000002
v 0.000312 0.174173 -0.000253
v 0.000132 0.174216 -0.000437
v -0.000114 0.174275 -0.000504
v -0.000359 0.174334 -0.000436
v -0.000537 0.174377 -0.000251
v -0.000602 0.174393 0.000002
v -0.000536 0.174377 0.000253
v -0.000356 0.174334 0.000437
v -0.000110 0.174275 0.000504
v 0.002815 0.188105 0.000337
v 0.002946 0.188050 0.000193
v 0.002993 0.188030 -0.000002
v 0.002944 0.188050 -0.000197
v 0.002812 0.188107 -0.000339
v 0.002632 0.188183 -0.000390
v 0.002453 0.188259 -0.000337
v 0.002323 0.188315 -0.000193
v 0.002275 0.188335 0.000002
v 0.002324 0.188314 0.000197
v 0.002456 0.188258 0.000339
v 0.002636 0.188181 0.000390
v 0.005997 0.199239 0.000111
v 0.006051 0.199216 0.000061
v 0.006068 0.199209 -0.000000
v 0.006051 0.199216 -0.000061
v 0.005997 0.199239 -0.000111
v 0.005918 0.199273 -0.000130
v 0.005839 0.199308 -0.000109
v 0.005787 0.199332 -0.000059
v 0.005770 0.199340 -0.000000
v 0.005787 0.199332 0.000059
v 0.005839 0.199308 0.000109
v 0.005918 0.199273 0.000130
v -0.000001 -0.000000 0.000000
v 0.005996 0.199133 0.000193
v 0.005879 0.199184 0.000222
v 0.006083 0.199095 0.000112
v 0.006115 0.199082 -0.000000
v 0.006083 0.199095 -0.000112
v 0.005996 0.199133 -0.000193
v 0.005879 0.199184 -0.000222
v 0.005761 0.199236 -0.000192
v 0.005676 0.199274 -0.000110
v 0.005645 0.199288 -0.000000
v 0.005676 0.199274 0.000110
v 0.005761 0.199236 0.000192
v 0.005919 0.199274 0.000060
v 0.005919 0.199274 -0.000000
v 0.005919 0.199274 -0.000060
vn -0.0000 0.0018 1.0000
vn -0.0000 0.0018 -1.0000
vn -0.9589 -0.2837 -0.0000
vn -0.9878 -0.1558 -0.0000
vn -0.8114 -0.5845 -0.0000
vn -0.6402 -0.7682 -0.0000
vn 0.5863 -0.8101 -0.0000
vn 0.4768 -0.8790 -0.0000
vn 0.7863 -0.6179 -0.0000
vn 0.9403 -0.3402 -0.0000
vn 0.9916 -0.1296 -0.0000
vn 0.9912 -0.1327 -0.0000
vn 0.9833 -0.1821 -0.0000
vn -0.6109 0.7917 -0.0000
vn -0.6851 0.7284 -0.0000
vn -0.5688 0.8225 -0.0000
vn -0.6554 0.7553 -0.0000
vn -0.7390 0.6737 -0.0000
vn -0.6899 0.7239 -0.0000
vn -0.7329 0.6803 -0.0000
vn 0.7668 -0.6419 -0.0000
vn 0.8462 -0.5328 -0.0000
vn 0.9328 -0.3604 -0.0000
vn 0.7574 -0.6529 -0.0000
vn -0.9995 -0.0315 -0.0000
vn -0.9999 0.0132 -0.0000
vn 0.9997 0.0239 -0.0000
vn 0.9977 -0.0682 -0.0000
vn 0.9998 0.0180 -0.0000
vn 0.9999 -0.0124 -0.0000
vn -0.9929 0.1188 -0.0000
vn -0.9906 0.1366 -0.0000
vn 0.9992 -0.0394 -0.0000
vn 1.0000 0.0030 -0.0000
vn 0.9974 -0.0726 -0.0000
vn 0.9994 0.0348 -0.0000
vn 0.9783 -0.2074 -0.0000
vn 0.9116 -0.4110 -0.0000
vn 0.9977 -0.0684 -0.0000
vn 0.9829 0.1843 -0.0000
vn -0.7789 0.6272 -0.0000
vn -0.8286 0.5599 -0.0000
vn -0.7262 0.6875 -0.0000
vn -0.7238 0.6900 -0.0000
vn -0.7286 0.6849 -0.0000
vn 0.8224 -0.5689 -0.0000
vn 0.8530 -0.5220 -0.0000
vn 0.9930 -0.1185 -0.0000
vn 0.8714 -0.4906 -0.0000
vn 0.7071 0.7071 -0.0000
vn 0.8978 0.4403 -0.0000
vn 0.9905 -0.1376 -0.0000
vn 0.8051 0.5932 -0.0000
vn 0.9972 -0.0744 -0.0000
vn 0.9487 -0.3162 -0.0000
vn 0.9742 0.2257 -0.0000
vn 0.9346 0.3556 -0.0000
vn 0.8020 0.5973 -0.0000
vn 0.4177 0.9086 -0.0000
vn -0.1856 0.9826 -0.0000
vn -0.7473 0.6645 -0.0000
vn -0.9504 0.3111 -0.0000
vn -0.9684 0.2493 -0.0000
vn -0.9688 0.2480 -0.0000
vn -0.9768 0.2143 -0.0000
vn -0.9871 0.1601 -0.0000
vn -0.9954 0.0954 -0.0000
vn -0.9936 0.1134 -0.0000
vn -0.9976 0.0696 -0.0000
vn -0.9991 0.0430 -0.0000
vn -0.9964 -0.0850 -0.0000
vn 0.0408 0.9992 -0.0000
vn -0.1206 0.9927 -0.0000
vn -0.2690 0.9631 -0.0000
vn -0.1505 0.9886 -0.0000
vn 0.0260 0.9997 -0.0000
vn -0.0084 1.0000 -0.0000
vn -0.2112 0.9775 -0.0000
vn -0.4049 0.9144 -0.0000
vn -0.4945 0.8692 -0.0000
vn 0.8137 -0.5812 -0.0000
vn 0.6814 -0.7319 -0.0000
vn 0.3964 -0.9181 -0.0000
vn 0.0454 -0.9990 -0.0000
vn 0.0890 -0.9960 -0.0000
vn 0.2740 -0.9617 -0.0000
vn 0.5424 -0.8401 -0.0000
vn 0.6625 -0.7491 -0.0000
vn 0.1552 -0.9879 -0.0000
vn -0.9850 0.1725 -0.0000
vn -0.9689 0.2474 -0.0000
vn 0.4964 0.0585 0.8661
vn 0.4953 0.0506 0.8672
vn -0.0026 0.0066 1.0000
vn -0.0004 0.0068 1.0000
vn 0.8605 0.0963 0.5003
vn 0.8612 0.0829 0.5015
vn 0.9939 0.1102 -0.0000
vn 0.9955 0.0947 -0.0000
vn 0.8605 0.0963 -0.5003
vn 0.8612 0.0829 -0.5015
vn 0.4964 0.0585 -0.8661
vn 0.4953 0.0506 -0.8672
vn -0.0004 0.0068 -1.0000
vn -0.0026 0.0066 -1.0000
vn -0.4974 -0.0450 -0.8664
vn -0.4996 -0.0373 -0.8655
vn -0.8617 -0.0830 -0.5005
vn -0.8634 -0.0695 -0.4997
vn -0.9953 -0.0969 -0.0000
vn -0.9967 -0.0813 -0.0000
vn -0.8617 -0.0830 0.5005
vn -0.8634 -0.0695 0.4997
vn -0.4974 -0.0450 0.8664
vn -0.4996 -0.0373 0.8655
vn 0.4965 0.0353 0.8673
vn -0.0025 0.0067 1.0000
vn 0.8632 0.0564 0.5016
vn 0.9979 0.0641 -0.0000
vn 0.8633 0.0564 -0.5016
vn 0.4965 0.0353 -0.8673
vn -0.0025 0.0067 -1.0000
vn -0.5004 -0.0219 -0.8655
vn -0.8651 -0.0429 -0.4998
vn -0.9987 -0.0505 -0.0000
vn -0.8651 -0.0429 0.4998
vn -0.5004 -0.0219 0.8655
vn 0.4978 0.0224 0.8670
vn -0.0019 0.0068 1.0000
vn 0.8647 0.0338 0.5012
vn 0.9993 0.0380 -0.0000
vn 0.8647 0.0338 -0.5011
vn 0.4979 0.0224 -0.8669
vn -0.0018 0.0068 -1.0000
vn -0.5007 -0.0088 -0.8656
vn -0.8659 -0.0202 -0.4997
vn -0.9997 -0.0244 -0.0000
vn -0.8660 -0.0202 0.4997
vn -0.5008 -0.0088 0.8655
vn 0.4990 0.0139 0.8665
vn -0.0012 0.0068 1.0000
vn 0.8655 0.0190 0.5005
vn 0.9998 0.0209 0.0001
vn 0.8656 0.0190 -0.5003
vn 0.4992 0.0139 -0.8664
vn -0.0010 0.0068 -1.0000
vn -0.5007 -0.0002 -0.8656
vn -0.8662 -0.0053 -0.4997
vn -1.0000 -0.0072 -0.0001
vn -0.8663 -0.0053 0.4995
vn -0.5008 -0.0002 0.8655
vn 0.4971 -0.0023 0.8677
vn -0.0040 0.0068 1.0000
vn 0.8651 -0.0090 0.5016
vn 0.9999 -0.0114 -0.0001
vn 0.8649 -0.0090 -0.5018
vn 0.4969 -0.0023 -0.8678
vn -0.0042 0.0068 -1.0000
vn -0.5032 0.0160 -0.8640
vn -0.8669 0.0228 -0.4979
vn -0.9997 0.0253 0.0001
vn -0.8668 0.0228 0.4981
vn -0.5030 0.0160 0.8642
vn 0.4992 -0.0231 0.8662
vn -0.0011 0.0067 1.0000
vn 0.8651 -0.0447 0.4996
vn 0.9986 -0.0525 -0.0007
vn 0.8644 -0.0446 -0.5008
vn 0.4980 -0.0230 -0.8669
vn -0.0024 0.0067 -1.0000
vn -0.5016 0.0366 -0.8643
vn -0.8653 0.0584 -0.4978
vn -0.9978 0.0664 0.0007
vn -0.8647 0.0584 0.4989
vn -0.5004 0.0365 0.8650
vn 0.4968 -0.0337 0.8672
vn 0.0002 0.0067 1.0000
vn 0.8627 -0.0636 0.5016
vn 0.9972 -0.0746 -0.0009
vn 0.8619 -0.0635 -0.5031
vn 0.4953 -0.0336 -0.8681
vn -0.0015 0.0068 -1.0000
vn -0.4973 0.0470 -0.8663
vn -0.8621 0.0764 -0.5009
vn -0.9962 0.0872 0.0009
vn -0.8613 0.0763 0.5024
vn -0.4958 0.0468 0.8671
vn 0.4913 -0.0437 0.8699
vn -0.0010 0.0059 1.0000
vn 0.8588 -0.0805 0.5059
vn 0.9956 -0.0942 -0.0011
vn 0.8577 -0.0804 -0.5078
vn 0.4894 -0.0435 -0.8710
vn -0.0032 0.0061 -1.0000
vn -0.4942 0.0557 -0.8676
vn -0.8589 0.0928 -0.5036
vn -0.9943 0.1066 0.0011
vn -0.8578 0.0926 0.5055
vn -0.4922 0.0555 0.8687
vn 0.4906 -0.0700 0.8685
vn -0.0026 0.0063 1.0000
vn 0.8554 -0.1255 0.5025
vn 0.9893 -0.1456 -0.0028
vn 0.8527 -0.1250 -0.5073
vn 0.4859 -0.0692 -0.8713
vn -0.0081 0.0073 -0.9999
vn -0.4982 0.0842 -0.8629
vn -0.8564 0.1409 -0.4967
vn -0.9869 0.1616 0.0027
vn -0.8537 0.1404 0.5014
vn -0.4935 0.0834 0.8657
vn 0.4793 -0.1066 0.8712
vn -0.0022 0.0109 0.9999
vn 0.8402 -0.1947 0.5061
vn 0.9738 -0.2274 -0.0035
vn 0.8367 -0.1939 -0.5122
vn 0.4733 -0.1052 -0.8746
vn -0.0089 0.0125 -0.9999
vn -0.4851 0.1295 -0.8648
vn -0.8378 0.2169 -0.5011
vn -0.9684 0.2495 0.0035
vn -0.8344 0.2161 0.5070
vn -0.4793 0.1281 0.8682
vn 0.5427 0.1842 0.8195
vn -0.0136 0.0190 0.9997
vn 0.8699 0.0636 0.4891
vn 0.9999 0.0152 -0.0017
vn 0.8682 0.0641 -0.4920
vn 0.5400 0.1851 -0.8211
vn -0.0192 0.0206 -0.9996
vn -0.4796 0.1558 -0.8636
vn -0.8258 0.2565 -0.5023
vn -0.9557 0.2942 0.0030
vn -0.8229 0.2557 0.5075
vn -0.4747 0.1543 0.8665
vn 0.1057 -0.9944 -0.0000
vn 0.1058 -0.9944 -0.0000
vn 0.4020 0.9156 -0.0079
vn 0.4011 0.9160 -0.0073
vn 0.4008 0.9161 -0.0091
vn 0.4020 0.9156 -0.0091
vn 0.5733 0.5005 0.6487
vn 0.2714 0.6313 0.7265
vn 0.8300 0.3918 0.3971
vn 0.9379 0.3469 -0.0000
vn 0.8299 0.3918 -0.3971
vn 0.5733 0.5005 -0.6487
vn 0.2714 0.6313 -0.7265
vn -0.0255 0.7628 -0.6461
vn -0.0249 0.7626 -0.6464
vn -0.2743 0.8761 -0.3965
vn -0.2738 0.8759 -0.3972
vn -0.3793 0.9253 -0.0000
vn -0.2743 0.8761 0.3964
vn -0.2738 0.8759 0.3972
vn -0.0255 0.7628 0.6461
vn -0.0250 0.7626 0.6464
vn 0.4020 0.9156 0.0082
vn 0.4019 0.9156 0.0067
vn 0.4016 0.9158 -0.0009
vn 0.4020 0.9156 -0.0010
vn 0.4019 0.9156 0.0118
vn 0.4019 0.9156 0.0117
vn 0.4020 0.9156 0.0066
vn 0.4025 0.9154 -0.0010
vn 0.4030 0.9152 -0.0072
vn 0.4032 0.9151 -0.0092
vt 0.669923 0.042614
vt 0.684437 0.018427
vt 0.733038 0.036407
vt 0.742056 0.046846
vt 0.013987 0.015200
vt 0.015191 0.020861
vt 0.005896 0.012941
vt 0.093708 0.060860
vt 0.097268 0.079174
vt 0.074605 0.084447
vt 0.069490 0.067537
vt 0.092427 0.025459
vt 0.084863 0.021528
vt 0.084625 0.006924
vt 0.088074 0.005911
vt 0.075903 0.019922
vt 0.076994 0.006636
vt 0.066733 0.020954
vt 0.055589 0.023207
vt 0.055360 0.008872
vt 0.066951 0.006463
vt 0.044446 0.025459
vt 0.040784 0.013977
vt 0.028768 0.025123
vt 0.025693 0.016041
vt 0.595840 0.133440
vt 0.600091 0.142984
vt 0.584250 0.146209
vt 0.119873 0.053611
vt 0.123965 0.073400
vt 0.607663 0.102496
vt 0.604319 0.067023
vt 0.624249 0.062915
vt 0.647186 0.057499
vt 0.151802 0.047234
vt 0.155456 0.069314
vt 0.256087 0.030160
vt 0.259192 0.057891
vt 0.217822 0.062132
vt 0.215007 0.035853
vt 0.406797 0.012093
vt 0.409700 0.044805
vt 0.353828 0.048732
vt 0.350352 0.017748
vt 0.464234 0.007779
vt 0.465050 0.041399
vt 0.556297 0.004881
vt 0.598713 0.006695
vt 0.601149 0.041359
vt 0.556923 0.040689
vt 0.511878 0.005558
vt 0.511837 0.040573
vt 0.644264 0.010896
vt 0.635425 0.041984
vt 0.576005 0.124533
vt 0.564227 0.076921
vt 0.477226 0.132526
vt 0.469472 0.086754
vt 0.518600 0.083362
vt 0.530194 0.132123
vt 0.612823 0.105244
vt 0.628303 0.140129
vt 0.627794 0.084818
vt 0.661162 0.133658
vt 0.650095 0.061422
vt 0.661684 0.051571
vt 0.723836 0.081909
vt 0.694957 0.113628
vt 0.421264 0.131408
vt 0.413799 0.087905
vt 0.364538 0.132509
vt 0.359283 0.090601
vt 0.184319 0.138452
vt 0.186840 0.146209
vt 0.175903 0.144358
vt 0.302383 0.053527
vt 0.299010 0.024287
vt 0.221827 0.101632
vt 0.242455 0.138483
vt 0.215985 0.139933
vt 0.205079 0.117944
vt 0.315906 0.134501
vt 0.309083 0.093559
vt 0.189461 0.133373
vt 0.193951 0.143697
vt 0.196005 0.126908
vt 0.202224 0.138705
vt 0.202051 0.114221
vt 0.184630 0.065889
vt 0.266660 0.096136
vt 0.277387 0.134057
vt 0.181476 0.041676
vt 0.179851 0.132135
vt 0.167201 0.137215
vt 0.105399 0.126868
vt 0.109559 0.130883
vt 0.093166 0.128788
vt 0.053549 0.123608
vt 0.034422 0.094607
vt 0.053816 0.089703
vt 0.077466 0.127363
vt 0.006154 0.102731
vt 0.017508 0.099383
vt 0.027868 0.116657
vt 0.012753 0.109769
vt 0.009607 0.086211
vt 0.005029 0.094968
vt 0.086609 0.124134
vt 0.024677 0.079830
vt 0.045401 0.074145
vt 0.842830 0.242969
vt 0.914962 0.238737
vt 0.905945 0.249175
vt 0.857344 0.267155
vt 0.107345 0.015847
vt 0.099255 0.018106
vt 0.108549 0.010187
vt 0.266620 0.224722
vt 0.242402 0.218045
vt 0.247517 0.201135
vt 0.270179 0.206408
vt 0.185779 0.005589
vt 0.181426 0.025136
vt 0.177977 0.024123
vt 0.178215 0.009520
vt 0.170346 0.024411
vt 0.169256 0.011127
vt 0.160087 0.010094
vt 0.160305 0.024584
vt 0.148715 0.022175
vt 0.148944 0.007842
vt 0.134140 0.017070
vt 0.137802 0.005589
vt 0.119050 0.015006
vt 0.122125 0.005926
vt 0.768748 0.152143
vt 0.757158 0.139374
vt 0.772999 0.142599
vt 0.292785 0.231971
vt 0.296878 0.212182
vt 0.780570 0.183087
vt 0.820094 0.228084
vt 0.797157 0.222668
vt 0.777226 0.218560
vt 0.324714 0.238348
vt 0.328368 0.216268
vt 0.428997 0.255422
vt 0.387918 0.249728
vt 0.390733 0.223450
vt 0.432103 0.227691
vt 0.579707 0.273489
vt 0.523261 0.267834
vt 0.526738 0.236850
vt 0.582609 0.240777
vt 0.637143 0.277803
vt 0.637959 0.244183
vt 0.729205 0.280701
vt 0.729832 0.244893
vt 0.774057 0.244223
vt 0.771621 0.278887
vt 0.684746 0.245010
vt 0.684786 0.280024
vt 0.808332 0.243598
vt 0.817172 0.274686
vt 0.748914 0.161050
vt 0.737135 0.208661
vt 0.650134 0.153056
vt 0.703103 0.153460
vt 0.691509 0.202221
vt 0.642381 0.198829
vt 0.785730 0.180338
vt 0.801211 0.145455
vt 0.800701 0.200765
vt 0.834069 0.151925
vt 0.823003 0.224160
vt 0.867865 0.171955
vt 0.896742 0.203674
vt 0.834591 0.234011
vt 0.594173 0.154175
vt 0.586709 0.197678
vt 0.537448 0.153074
vt 0.532193 0.194982
vt 0.357230 0.147131
vt 0.348814 0.141224
vt 0.359751 0.139374
vt 0.471920 0.261295
vt 0.475294 0.232055
vt 0.394738 0.183950
vt 0.377990 0.167638
vt 0.388896 0.145649
vt 0.415366 0.147100
vt 0.488816 0.151082
vt 0.481993 0.192023
vt 0.362372 0.152210
vt 0.366862 0.141885
vt 0.368916 0.158674
vt 0.375135 0.146877
vt 0.374962 0.171361
vt 0.357541 0.219693
vt 0.439570 0.189446
vt 0.450297 0.151525
vt 0.354387 0.243906
vt 0.352762 0.153447
vt 0.340112 0.148367
vt 0.278311 0.158715
vt 0.282471 0.154700
vt 0.266078 0.156794
vt 0.226461 0.161974
vt 0.250378 0.158219
vt 0.226728 0.195879
vt 0.207335 0.190975
vt 0.179067 0.182851
vt 0.185666 0.175812
vt 0.200780 0.168925
vt 0.190420 0.186199
vt 0.182519 0.199371
vt 0.177942 0.190614
vt 0.259521 0.161448
vt 0.197590 0.205751
vt 0.218313 0.211436
vt 0.735031 0.291410
vt 0.692500 0.291410
vt 0.692500 0.288887
vt 0.735031 0.288887
vt 0.788954 0.291410
vt 0.788954 0.288887
vt 0.803308 0.291410
vt 0.803308 0.288887
vt 0.044398 0.283602
vt 0.004884 0.283636
vt 0.004884 0.279648
vt 0.044398 0.279682
vt 0.087292 0.283548
vt 0.087292 0.279736
vt 0.126578 0.283486
vt 0.126578 0.279798
vt 0.160067 0.283426
vt 0.160067 0.279858
vt 0.188423 0.283375
vt 0.188423 0.279910
vt 0.204588 0.283346
vt 0.204588 0.279938
vt 0.221833 0.283368
vt 0.221833 0.279917
vt 0.254747 0.283400
vt 0.254747 0.279885
vt 0.280072 0.283428
vt 0.280072 0.279857
vt 0.312394 0.283469
vt 0.312394 0.279816
vt 0.339774 0.283506
vt 0.327604 0.283490
vt 0.327604 0.279795
vt 0.339774 0.279780
vt 0.033456 0.339524
vt 0.004883 0.339524
vt 0.004883 0.336880
vt 0.033456 0.336880
vt 0.136985 0.339525
vt 0.096429 0.339524
vt 0.096429 0.336880
vt 0.136985 0.336880
vt 0.600723 0.291410
vt 0.554497 0.291410
vt 0.554497 0.288887
vt 0.600723 0.288887
vt 0.241505 0.339525
vt 0.185810 0.339525
vt 0.185810 0.336880
vt 0.241505 0.336880
vt 0.300358 0.339525
vt 0.300358 0.336880
vt 0.360013 0.339525
vt 0.360013 0.336880
vt 0.286965 0.291409
vt 0.243809 0.291409
vt 0.243809 0.288887
vt 0.286965 0.288887
vt 0.451694 0.339525
vt 0.411190 0.339525
vt 0.411190 0.336880
vt 0.451694 0.336880
vt 0.488716 0.339525
vt 0.488716 0.336880
vt 0.516590 0.339525
vt 0.516590 0.336880
vt 0.531117 0.339525
vt 0.531117 0.336880
vt 0.541277 0.339525
vt 0.541277 0.336880
vt 0.549206 0.339525
vt 0.549206 0.336880
vt 0.560869 0.339525
vt 0.560869 0.336880
vt 0.571680 0.339525
vt 0.571680 0.336880
vt 0.602363 0.339525
vt 0.588951 0.339525
vt 0.588951 0.336880
vt 0.602363 0.336880
vt 0.626945 0.339525
vt 0.626945 0.336880
vt 0.029558 0.261589
vt 0.006100 0.261625
vt 0.006100 0.259530
vt 0.029558 0.259567
vt 0.071742 0.261525
vt 0.058101 0.261548
vt 0.058101 0.259608
vt 0.071742 0.259631
vt 0.135551 0.261414
vt 0.129765 0.261421
vt 0.129765 0.259737
vt 0.135551 0.259744
vt 0.147942 0.261392
vt 0.147942 0.259767
vt 0.155989 0.261380
vt 0.155989 0.259778
vt 0.165692 0.261364
vt 0.165692 0.259795
vt 0.189919 0.261321
vt 0.189919 0.259839
vt 0.216544 0.261274
vt 0.216544 0.259886
vt 0.233166 0.261248
vt 0.233166 0.259914
vt 0.242822 0.261236
vt 0.242822 0.259926
vt 0.013043 0.291409
vt 0.004881 0.291409
vt 0.004881 0.288887
vt 0.013043 0.288887
vt 0.023326 0.291409
vt 0.023326 0.288887
vt 0.040355 0.291409
vt 0.040355 0.288887
vt 0.114849 0.291409
vt 0.088709 0.291409
vt 0.088709 0.288887
vt 0.114849 0.288887
vt 0.143101 0.291409
vt 0.143101 0.288887
vt 0.208396 0.291409
vt 0.208396 0.288887
vt 0.385901 0.291409
vt 0.332045 0.291409
vt 0.332045 0.288887
vt 0.385901 0.288887
vt 0.444931 0.291409
vt 0.444931 0.288887
vt 0.504866 0.291410
vt 0.504866 0.288887
vt 0.644901 0.291410
vt 0.644901 0.288887
vt 0.181895 0.272468
vt 0.178303 0.272468
vt 0.178303 0.268460
vt 0.181895 0.268460
vt 0.170670 0.272468
vt 0.170670 0.268460
vt 0.160631 0.272468
vt 0.160631 0.268460
vt 0.148798 0.272468
vt 0.148798 0.268460
vt 0.133362 0.272468
vt 0.133362 0.268460
vt 0.118137 0.272468
vt 0.118137 0.268460
vt 0.106407 0.272468
vt 0.106407 0.268460
vt 0.098011 0.272468
vt 0.098011 0.268460
vt 0.085805 0.272468
vt 0.085805 0.268460
vt 0.071582 0.272468
vt 0.071582 0.268460
vt 0.044545 0.272468
vt 0.033182 0.272468
vt 0.033182 0.268460
vt 0.044545 0.268460
vt 0.023958 0.272468
vt 0.023958 0.268460
vt 0.014861 0.272468
vt 0.006340 0.272468
vt 0.006340 0.268460
vt 0.014861 0.268460
vt 0.055908 0.272468
vt 0.055908 0.268460
vt 0.579279 0.339525
vt 0.579279 0.336880
vt 0.176982 0.291409
vt 0.176982 0.288887
vt 0.062716 0.291409
vt 0.062716 0.288887
vt 0.004880 0.305553
vt 0.175448 0.305553
vt 0.175448 0.307898
vt 0.004880 0.307898
vt 0.004880 0.303215
vt 0.175448 0.303215
vt 0.004880 0.300883
vt 0.175448 0.300883
vt 0.004880 0.326611
vt 0.175448 0.326611
vt 0.175448 0.328943
vt 0.004880 0.328943
vt 0.004880 0.324273
vt 0.175448 0.324273
vt 0.004880 0.321928
vt 0.175448 0.321928
vt 0.004880 0.319583
vt 0.175448 0.319583
vt 0.004880 0.317245
vt 0.175448 0.317245
vt 0.004880 0.314913
vt 0.175448 0.314913
vt 0.004880 0.312581
vt 0.175448 0.312581
vt 0.004880 0.310243
vt 0.175448 0.310243
vt 0.251070 0.305553
vt 0.251070 0.307898
vt 0.251070 0.303215
vt 0.251070 0.300883
vt 0.251070 0.326611
vt 0.251070 0.328943
vt 0.251070 0.324273
vt 0.251070 0.321928
vt 0.251070 0.319583
vt 0.251070 0.317245
vt 0.251070 0.314913
vt 0.251070 0.312581
vt 0.251070 0.310243
vt 0.326571 0.305553
vt 0.326571 0.307898
vt 0.326571 0.303215
vt 0.326571 0.300883
vt 0.326571 0.326611
vt 0.326571 0.328943
vt 0.326571 0.324273
vt 0.326571 0.321928
vt 0.326571 0.319583
vt 0.326571 0.317245
vt 0.326571 0.314913
vt 0.326571 0.312582
vt 0.326571 0.310243
vt 0.414505 0.305554
vt 0.414505 0.307898
vt 0.414505 0.303215
vt 0.414505 0.300883
vt 0.414505 0.326611
vt 0.414505 0.328943
vt 0.414505 0.324273
vt 0.414505 0.321928
vt 0.414505 0.319583
vt 0.414505 0.317245
vt 0.414505 0.314913
vt 0.414505 0.312582
vt 0.414505 0.310243
vt 0.502412 0.305554
vt 0.502412 0.307898
vt 0.502412 0.303215
vt 0.502412 0.300883
vt 0.502412 0.326611
vt 0.502412 0.328943
vt 0.502412 0.324273
vt 0.502412 0.321928
vt 0.502412 0.319583
vt 0.502412 0.317245
vt 0.502412 0.314913
vt 0.502412 0.312582
vt 0.502412 0.310243
vt 0.603661 0.305554
vt 0.603661 0.307898
vt 0.603661 0.303215
vt 0.603661 0.300883
vt 0.603661 0.326611
vt 0.603661 0.328943
vt 0.603661 0.324273
vt 0.603661 0.321928
vt 0.603661 0.319583
vt 0.603661 0.317245
vt 0.603661 0.314913
vt 0.603661 0.312582
vt 0.603661 0.310243
vt 0.705089 0.305554
vt 0.705089 0.307898
vt 0.705089 0.303215
vt 0.705089 0.300884
vt 0.705089 0.326611
vt 0.705089 0.328943
vt 0.705089 0.324273
vt 0.705089 0.321928
vt 0.705089 0.319584
vt 0.705089 0.317245
vt 0.705089 0.314913
vt 0.705089 0.312582
vt 0.705089 0.310243
vt 0.794336 0.305554
vt 0.794336 0.307898
vt 0.794336 0.303215
vt 0.794336 0.300884
vt 0.794336 0.326611
vt 0.794336 0.328943
vt 0.794336 0.324273
vt 0.794336 0.321928
vt 0.794336 0.319584
vt 0.794336 0.317245
vt 0.794336 0.314913
vt 0.794336 0.312582
vt 0.794336 0.310243
vt 0.868287 0.305554
vt 0.868287 0.307898
vt 0.868287 0.303215
vt 0.868287 0.300884
vt 0.868287 0.326611
vt 0.868287 0.328943
vt 0.868287 0.324273
vt 0.868287 0.321928
vt 0.868287 0.319584
vt 0.868287 0.317245
vt 0.868287 0.314913
vt 0.868287 0.312582
vt 0.868287 0.310243
vt 0.938311 0.305554
vt 0.938311 0.307898
vt 0.938311 0.303215
vt 0.938311 0.300884
vt 0.938311 0.326611
vt 0.938311 0.328943
vt 0.938311 0.324273
vt 0.938311 0.321928
vt 0.938311 0.319584
vt 0.938311 0.317245
vt 0.938311 0.314913
vt 0.938311 0.312582
vt 0.938311 0.310243
vt 0.994996 0.305554
vt 0.994996 0.307898
vt 0.994996 0.303215
vt 0.994996 0.300884
vt 0.994996 0.326611
vt 0.994996 0.328943
vt 0.994996 0.324273
vt 0.994996 0.321928
vt 0.994996 0.319584
vt 0.994996 0.317245
vt 0.994996 0.314913
vt 0.994996 0.312582
vt 0.994996 0.310243
vt 0.205915 0.006930
vt 0.207967 0.010480
vt 0.200320 0.012531
vt 0.202363 0.004882
vt 0.207967 0.014581
vt 0.205916 0.018132
vt 0.202365 0.020179
vt 0.198267 0.020177
vt 0.194721 0.018128
vt 0.192673 0.014581
vt 0.192671 0.010486
vt 0.194717 0.006937
vt 0.015165 0.005828
vt 0.014552 0.005988
vt 0.014739 0.005708
vt 0.015086 0.005531
vt 0.198264 0.004885
vt 0.014993 0.006658
vt 0.015382 0.006639
vt 0.015559 0.007285
vt 0.014830 0.007294
vt 0.014691 0.006509
vt 0.014238 0.006972
vt 0.014538 0.006271
vt 0.013920 0.006436
vt 0.013929 0.005814
vt 0.014280 0.005239
vt 0.014917 0.004883
vt 0.015477 0.005517
vt 0.015646 0.004883
vt 0.015779 0.005668
vt 0.016233 0.005208
vt 0.015928 0.005899
vt 0.016546 0.005734
vt 0.015914 0.006174
vt 0.016538 0.006346
vt 0.015728 0.006456
vt 0.016191 0.006921
vt 0.015303 0.006343
vt 0.015234 0.006085
s 1
f 15/1/1 2/2/1 3/3/1 4/4/1
f 67/5/1 69/6/1 68/7/1
f 52/8/1 83/9/1 107/10/1 106/11/1
f 73/12/1 75/13/1 61/14/1 60/15/1
f 75/13/1 72/16/1 62/17/1 61/14/1
f 71/18/1 76/19/1 64/20/1 63/21/1
f 72/16/1 71/18/1 63/21/1 62/17/1
f 64/20/1 76/19/1 74/22/1 65/23/1
f 65/23/1 74/22/1 70/24/1 66/25/1
f 66/25/1 70/24/1 69/6/1 67/5/1
f 11/26/1 9/27/1 10/28/1
f 53/29/1 82/30/1 83/9/1 52/8/1
f 17/31/1 96/32/1 93/33/1 16/34/1
f 102/35/1 105/36/1 82/30/1 53/29/1
f 24/37/1 90/38/1 81/39/1 54/40/1
f 56/41/1 79/42/1 80/43/1 55/44/1
f 57/45/1 78/46/1 79/42/1 56/41/1
f 19/47/1 59/48/1 84/49/1 87/50/1
f 57/45/1 58/51/1 77/52/1 78/46/1
f 84/49/1 59/48/1 1/53/1 85/54/1
f 18/55/1 97/56/1 96/32/1 17/31/1
f 85/54/1 1/53/1 2/2/1 15/1/1
f 21/57/1 95/58/1 94/59/1 20/60/1
f 12/61/1 8/62/1 9/27/1 11/26/1
f 13/63/1 7/64/1 8/62/1 12/61/1
f 14/65/1 86/66/1 5/67/1 6/68/1
f 13/63/1 14/65/1 6/68/1 7/64/1
f 5/67/1 86/66/1 15/1/1 4/4/1
f 58/51/1 19/47/1 87/50/1 77/52/1
f 20/60/1 94/59/1 97/56/1 18/55/1
f 22/69/1 100/70/1 95/58/1 21/57/1
f 23/71/1 98/72/1 100/70/1 22/69/1
f 33/73/1 31/74/1 32/75/1
f 55/44/1 80/43/1 89/76/1 88/77/1
f 88/77/1 89/76/1 90/38/1 24/37/1
f 35/78/1 27/79/1 28/80/1 34/81/1
f 25/82/1 101/83/1 98/72/1 23/71/1
f 91/84/1 30/85/1 31/74/1 33/73/1
f 92/86/1 29/87/1 30/85/1 91/84/1
f 34/81/1 28/80/1 29/87/1 92/86/1
f 36/88/1 104/89/1 81/39/1 35/78/1
f 35/78/1 81/39/1 90/38/1 99/90/1
f 98/72/1 101/83/1 89/76/1 80/43/1
f 100/70/1 98/72/1 80/43/1 79/42/1
f 93/33/1 96/32/1 84/49/1 85/54/1
f 94/59/1 95/58/1 78/46/1 77/52/1
f 97/56/1 94/59/1 77/52/1 87/50/1
f 96/32/1 97/56/1 87/50/1 84/49/1
f 101/83/1 99/90/1 90/38/1 89/76/1
f 95/58/1 100/70/1 79/42/1 78/46/1
f 16/34/1 93/33/1 85/54/1 15/1/1
f 99/90/1 26/91/1 27/79/1 35/78/1
f 26/91/1 99/90/1 101/83/1 25/82/1
f 54/40/1 81/39/1 104/89/1 103/92/1
f 103/92/1 104/89/1 105/36/1 102/35/1
f 37/93/1 105/36/1 104/89/1 36/88/1
f 38/94/1 82/30/1 105/36/1 37/93/1
f 40/95/1 82/30/1 38/94/1 39/96/1
f 41/97/1 83/9/1 82/30/1 40/95/1
f 45/98/1 108/99/1 110/100/1 43/101/1
f 48/102/1 44/103/1 46/104/1 47/105/1
f 50/106/1 44/103/1 48/102/1 49/107/1
f 42/108/1 107/10/1 83/9/1 41/97/1
f 51/109/1 108/99/1 44/103/1 50/106/1
f 106/11/1 107/10/1 110/100/1 109/110/1
f 44/103/1 108/99/1 45/98/1 46/104/1
f 109/110/1 110/100/1 108/99/1 51/109/1
f 43/101/1 110/100/1 107/10/1 42/108/1
f 125/111/2 114/112/2 113/113/2 112/114/2
f 177/115/2 178/116/2 179/117/2
f 162/118/2 216/119/2 217/120/2 193/121/2
f 183/122/2 170/123/2 171/124/2 185/125/2
f 185/125/2 171/124/2 172/126/2 182/127/2
f 181/128/2 173/129/2 174/130/2 186/131/2
f 182/127/2 172/126/2 173/129/2 181/128/2
f 174/130/2 175/132/2 184/133/2 186/131/2
f 175/132/2 176/134/2 180/135/2 184/133/2
f 176/134/2 177/115/2 179/117/2 180/135/2
f 121/136/2 120/137/2 119/138/2
f 163/139/2 162/118/2 193/121/2 192/140/2
f 127/141/2 126/142/2 203/143/2 206/144/2
f 212/145/2 163/139/2 192/140/2 215/146/2
f 134/147/2 164/148/2 191/149/2 200/150/2
f 166/151/2 165/152/2 190/153/2 189/154/2
f 167/155/2 166/151/2 189/154/2 188/156/2
f 129/157/2 197/158/2 194/159/2 169/160/2
f 167/155/2 188/156/2 187/161/2 168/162/2
f 194/159/2 195/163/2 111/164/2 169/160/2
f 128/165/2 127/141/2 206/144/2 207/166/2
f 195/163/2 125/111/2 112/114/2 111/164/2
f 131/167/2 130/168/2 204/169/2 205/170/2
f 122/171/2 121/136/2 119/138/2 118/172/2
f 123/173/2 122/171/2 118/172/2 117/174/2
f 124/175/2 116/176/2 115/177/2 196/178/2
f 123/173/2 117/174/2 116/176/2 124/175/2
f 115/177/2 114/112/2 125/111/2 196/178/2
f 168/162/2 187/161/2 197/158/2 129/157/2
f 130/168/2 128/165/2 207/166/2 204/169/2
f 132/179/2 131/167/2 205/170/2 210/180/2
f 133/181/2 132/179/2 210/180/2 208/182/2
f 143/183/2 142/184/2 141/185/2
f 165/152/2 198/186/2 199/187/2 190/153/2
f 198/186/2 134/147/2 200/150/2 199/187/2
f 145/188/2 144/189/2 138/190/2 137/191/2
f 135/192/2 133/181/2 208/182/2 211/193/2
f 201/194/2 143/183/2 141/185/2 140/195/2
f 202/196/2 201/194/2 140/195/2 139/197/2
f 144/189/2 202/196/2 139/197/2 138/190/2
f 146/198/2 145/188/2 191/149/2 214/199/2
f 145/188/2 209/200/2 200/150/2 191/149/2
f 208/182/2 190/153/2 199/187/2 211/193/2
f 210/180/2 189/154/2 190/153/2 208/182/2
f 203/143/2 195/163/2 194/159/2 206/144/2
f 204/169/2 187/161/2 188/156/2 205/170/2
f 207/166/2 197/158/2 187/161/2 204/169/2
f 206/144/2 194/159/2 197/158/2 207/166/2
f 211/193/2 199/187/2 200/150/2 209/200/2
f 205/170/2 188/156/2 189/154/2 210/180/2
f 126/142/2 125/111/2 195/163/2 203/143/2
f 209/200/2 145/188/2 137/191/2 136/201/2
f 136/201/2 135/192/2 211/193/2 209/200/2
f 164/148/2 213/202/2 214/199/2 191/149/2
f 213/202/2 212/145/2 215/146/2 214/199/2
f 147/203/2 146/198/2 214/199/2 215/146/2
f 148/204/2 147/203/2 215/146/2 192/140/2
f 150/205/2 149/206/2 148/204/2 192/140/2
f 151/207/2 150/205/2 192/140/2 193/121/2
f 155/208/2 153/209/2 220/210/2 218/211/2
f 158/212/2 157/213/2 156/214/2 154/215/2
f 160/216/2 159/217/2 158/212/2 154/215/2
f 152/218/2 151/207/2 193/121/2 217/120/2
f 161/219/2 160/216/2 154/215/2 218/211/2
f 216/119/2 219/220/2 220/210/2 217/120/2
f 154/215/2 156/214/2 155/208/2 218/211/2
f 219/220/2 161/219/2 218/211/2 220/210/2
f 153/209/2 152/218/2 217/120/2 220/210/2
f 2/221/3 1/222/4 111/223/4 112/224/3
f 3/225/5 2/221/3 112/224/3 113/226/5
f 4/227/6 3/225/5 113/226/5 114/228/6
f 5/229/7 4/230/8 114/231/8 115/232/7
f 6/233/9 5/229/7 115/232/7 116/234/9
f 7/235/10 6/233/9 116/234/9 117/236/10
f 8/237/11 7/235/10 117/236/10 118/238/11
f 9/239/12 8/237/11 118/238/11 119/240/12
f 10/241/13 9/239/12 119/240/12 120/242/13
f 11/243/14 10/241/15 120/242/15 121/244/14
f 12/245/16 11/243/14 121/244/14 122/246/16
f 13/247/17 12/245/16 122/246/16 123/248/17
f 14/249/18 13/247/17 123/248/17 124/250/18
f 15/251/19 86/252/20 196/253/20 125/254/19
f 16/255/21 15/256/22 125/257/22 126/258/21
f 18/259/23 17/260/24 127/261/24 128/262/23
f 19/263/25 58/264/26 168/265/26 129/266/25
f 21/267/27 20/268/28 130/269/28 131/270/27
f 22/271/29 21/267/27 131/270/27 132/272/29
f 23/273/30 22/271/29 132/272/29 133/274/30
f 24/275/31 54/276/32 164/277/32 134/278/31
f 26/279/33 25/280/34 135/281/34 136/282/33
f 27/283/35 26/279/33 136/282/33 137/284/35
f 28/285/36 27/283/35 137/284/35 138/286/36
f 29/287/37 28/285/36 138/286/36 139/288/37
f 30/289/38 29/287/37 139/288/37 140/290/38
f 31/291/39 30/289/38 140/290/38 141/292/39
f 32/293/40 31/291/39 141/292/39 142/294/40
f 33/295/41 32/293/42 142/294/42 143/296/41
f 34/297/43 92/298/44 202/299/44 144/300/43
f 35/301/45 34/297/43 144/300/43 145/302/45
f 36/303/46 35/304/47 145/305/47 146/306/46
f 38/307/48 37/308/49 147/309/49 148/310/48
f 37/308/49 36/303/46 146/306/46 147/309/49
f 40/311/50 39/312/51 149/313/51 150/314/50
f 41/315/52 40/311/52 150/314/52 151/316/52
f 42/317/53 41/315/53 151/316/53 152/318/53
f 43/319/54 42/317/55 152/318/55 153/320/54
f 45/321/56 43/319/54 153/320/54 155/322/56
f 46/323/57 45/321/56 155/322/56 156/324/57
f 47/325/58 46/323/57 156/324/57 157/326/58
f 48/327/59 47/325/58 157/326/58 158/328/59
f 49/329/60 48/330/59 158/331/59 159/332/60
f 50/333/61 49/329/60 159/332/60 160/334/61
f 51/335/62 50/333/61 160/334/61 161/336/62
f 52/337/63 106/338/64 216/339/64 162/340/63
f 53/341/65 52/337/63 162/340/63 163/342/65
f 54/276/32 103/343/66 213/344/66 164/277/32
f 55/345/67 88/346/68 198/347/68 165/348/67
f 56/349/69 55/345/67 165/348/67 166/350/69
f 57/351/70 56/349/69 166/350/69 167/352/70
f 58/264/26 57/351/70 167/352/70 168/265/26
f 59/353/71 19/263/25 129/266/25 169/354/71
f 1/222/4 59/353/71 169/354/71 111/223/4
f 60/355/72 61/356/73 171/357/73 170/358/72
f 61/356/73 62/359/74 172/360/74 171/357/73
f 62/359/74 63/361/75 173/362/75 172/360/74
f 63/361/75 64/363/76 174/364/76 173/362/75
f 64/363/76 65/365/77 175/366/77 174/364/76
f 65/365/77 66/367/78 176/368/78 175/366/77
f 66/367/78 67/369/79 177/370/79 176/368/78
f 67/369/79 68/371/80 178/372/80 177/370/79
f 68/371/81 69/373/82 179/374/82 178/372/81
f 69/373/82 70/375/83 180/376/83 179/374/82
f 76/377/84 71/378/85 181/379/85 186/380/84
f 71/378/85 72/381/86 182/382/86 181/379/85
f 75/383/87 73/384/88 183/385/88 185/386/87
f 70/375/83 74/387/89 184/388/89 180/376/83
f 72/381/86 75/383/87 185/386/87 182/382/86
f 74/387/89 76/377/84 186/380/84 184/388/89
f 86/252/20 14/249/18 124/250/18 196/253/20
f 20/268/28 18/259/23 128/262/23 130/269/28
f 25/280/34 23/273/30 133/274/30 135/281/34
f 88/346/68 24/275/31 134/278/31 198/347/68
f 91/389/44 33/295/41 143/296/41 201/390/44
f 92/298/44 91/389/44 201/390/44 202/299/44
f 102/391/90 53/341/65 163/342/65 212/392/90
f 103/343/66 102/391/90 212/392/90 213/344/66
f 39/312/51 38/307/48 148/310/48 149/313/51
f 106/338/64 109/393/91 219/394/91 216/339/64
f 109/393/91 51/335/62 161/336/62 219/394/91
f 17/260/24 16/255/21 126/258/21 127/261/24
f 221/395/92 233/396/93 244/397/94 232/398/95
f 222/399/96 234/400/97 233/396/93 221/395/92
f 223/401/98 235/402/99 234/400/97 222/399/96
f 224/403/100 236/404/101 235/405/99 223/406/98
f 225/407/102 237/408/103 236/404/101 224/403/100
f 226/409/104 238/410/105 237/408/103 225/407/102
f 227/411/106 239/412/107 238/410/105 226/409/104
f 228/413/108 240/414/109 239/412/107 227/411/106
f 229/415/110 241/416/111 240/414/109 228/413/108
f 230/417/112 242/418/113 241/416/111 229/415/110
f 231/419/114 243/420/115 242/418/113 230/417/112
f 232/398/95 244/397/94 243/420/115 231/419/114
f 233/396/93 245/421/116 256/422/117 244/397/94
f 234/400/97 246/423/118 245/421/116 233/396/93
f 235/402/99 247/424/119 246/423/118 234/400/97
f 236/404/101 248/425/120 247/426/119 235/405/99
f 237/408/103 249/427/121 248/425/120 236/404/101
f 238/410/105 250/428/122 249/427/121 237/408/103
f 239/412/107 251/429/123 250/428/122 238/410/105
f 240/414/109 252/430/124 251/429/123 239/412/107
f 241/416/111 253/431/125 252/430/124 240/414/109
f 242/418/113 254/432/126 253/431/125 241/416/111
f 243/420/115 255/433/127 254/432/126 242/418/113
f 244/397/94 256/422/117 255/433/127 243/420/115
f 245/421/116 257/434/128 268/435/129 256/422/117
f 246/423/118 258/436/130 257/434/128 245/421/116
f 247/424/119 259/437/131 258/436/130 246/423/118
f 248/425/120 260/438/132 259/439/131 247/426/119
f 249/427/121 261/440/133 260/438/132 248/425/120
f 250/428/122 262/441/134 261/440/133 249/427/121
f 251/429/123 263/442/135 262/441/134 250/428/122
f 252/430/124 264/443/136 263/442/135 251/429/123
f 253/431/125 265/444/137 264/443/136 252/430/124
f 254/432/126 266/445/138 265/444/137 253/431/125
f 255/433/127 267/446/139 266/445/138 254/432/126
f 256/422/117 268/435/129 267/446/139 255/433/127
f 257/434/128 269/447/140 280/448/141 268/435/129
f 258/436/130 270/449/142 269/447/140 257/434/128
f 259/437/131 271/450/143 270/449/142 258/436/130
f 260/438/132 272/451/144 271/452/143 259/439/131
f 261/440/133 273/453/145 272/451/144 260/438/132
f 262/441/134 274/454/146 273/453/145 261/440/133
f 263/442/135 275/455/147 274/454/146 262/441/134
f 264/443/136 276/456/148 275/455/147 263/442/135
f 265/444/137 277/457/149 276/456/148 264/443/136
f 266/445/138 278/458/150 277/457/149 265/444/137
f 267/446/139 279/459/151 278/458/150 266/445/138
f 268/435/129 280/448/141 279/459/151 267/446/139
f 269/447/140 281/460/152 292/461/153 280/448/141
f 270/449/142 282/462/154 281/460/152 269/447/140
f 271/450/143 283/463/155 282/462/154 270/449/142
f 272/451/144 284/464/156 283/465/155 271/452/143
f 273/453/145 285/466/157 284/464/156 272/451/144
f 274/454/146 286/467/158 285/466/157 273/453/145
f 275/455/147 287/468/159 286/467/158 274/454/146
f 276/456/148 288/469/160 287/468/159 275/455/147
f 277/457/149 289/470/161 288/469/160 276/456/148
f 278/458/150 290/471/162 289/470/161 277/457/149
f 279/459/151 291/472/163 290/471/162 278/458/150
f 280/448/141 292/461/153 291/472/163 279/459/151
f 281/460/152 293/473/164 304/474/165 292/461/153
f 282/462/154 294/475/166 293/473/164 281/460/152
f 283/463/155 295/476/167 294/475/166 282/462/154
f 284/464/156 296/477/168 295/478/167 283/465/155
f 285/466/157 297/479/169 296/477/168 284/464/156
f 286/467/158 298/480/170 297/479/169 285/466/157
f 287/468/159 299/481/171 298/480/170 286/467/158
f 288/469/160 300/482/172 299/481/171 287/468/159
f 289/470/161 301/483/173 300/482/172 288/469/160
f 290/471/162 302/484/174 301/483/173 289/470/161
f 291/472/163 303/485/175 302/484/174 290/471/162
f 292/461/153 304/474/165 303/485/175 291/472/163
f 293/473/164 305/486/176 316/487/177 304/474/165
f 294/475/166 306/488/178 305/486/176 293/473/164
f 295/476/167 307/489/179 306/488/178 294/475/166
f 296/477/168 308/490/180 307/491/179 295/478/167
f 297/479/169 309/492/181 308/490/180 296/477/168
f 298/480/170 310/493/182 309/492/181 297/479/169
f 299/481/171 311/494/183 310/493/182 298/480/170
f 300/482/172 312/495/184 311/494/183 299/481/171
f 301/483/173 313/496/185 312/495/184 300/482/172
f 302/484/174 314/497/186 313/496/185 301/483/173
f 303/485/175 315/498/187 314/497/186 302/484/174
f 304/474/165 316/487/177 315/498/187 303/485/175
f 305/486/176 317/499/188 328/500/189 316/487/177
f 306/488/178 318/501/190 317/499/188 305/486/176
f 307/489/179 319/502/191 318/501/190 306/488/178
f 308/490/180 320/503/192 319/504/191 307/491/179
f 309/492/181 321/505/193 320/503/192 308/490/180
f 310/493/182 322/506/194 321/505/193 309/492/181
f 311/494/183 323/507/195 322/506/194 310/493/182
f 312/495/184 324/508/196 323/507/195 311/494/183
f 313/496/185 325/509/197 324/508/196 312/495/184
f 314/497/186 326/510/198 325/509/197 313/496/185
f 315/498/187 327/511/199 326/510/198 314/497/186
f 316/487/177 328/500/189 327/511/199 315/498/187
f 317/499/188 329/512/200 340/513/201 328/500/189
f 318/501/190 330/514/202 329/512/200 317/499/188
f 319/502/191 331/515/203 330/514/202 318/501/190
f 320/503/192 332/516/204 331/517/203 319/504/191
f 321/505/193 333/518/205 332/516/204 320/503/192
f 322/506/194 334/519/206 333/518/205 321/505/193
f 323/507/195 335/520/207 334/519/206 322/506/194
f 324/508/196 336/521/208 335/520/207 323/507/195
f 325/509/197 337/522/209 336/521/208 324/508/196
f 326/510/198 338/523/210 337/522/209 325/509/197
f 327/511/199 339/524/211 338/523/210 326/510/198
f 328/500/189 340/513/201 339/524/211 327/511/199
f 329/512/200 341/525/212 352/526/213 340/513/201
f 330/514/202 342/527/214 341/525/212 329/512/200
f 331/515/203 343/528/215 342/527/214 330/514/202
f 332/516/204 344/529/216 343/530/215 331/517/203
f 333/518/205 345/531/217 344/529/216 332/516/204
f 334/519/206 346/532/218 345/531/217 333/518/205
f 335/520/207 347/533/219 346/532/218 334/519/206
f 336/521/208 348/534/220 347/533/219 335/520/207
f 337/522/209 349/535/221 348/534/220 336/521/208
f 338/523/210 350/536/222 349/535/221 337/522/209
f 339/524/211 351/537/223 350/536/222 338/523/210
f 340/513/201 352/526/213 351/537/223 339/524/211
f 341/525/212 366/538/224 367/539/225 352/526/213
f 342/527/214 368/540/226 366/538/224 341/525/212
f 343/528/215 369/541/227 368/540/226 342/527/214
f 344/529/216 370/542/228 369/543/227 343/530/215
f 345/531/217 371/544/229 370/542/228 344/529/216
f 346/532/218 372/545/230 371/544/229 345/531/217
f 347/533/219 373/546/231 372/545/230 346/532/218
f 348/534/220 374/547/232 373/546/231 347/533/219
f 349/535/221 375/548/233 374/547/232 348/534/220
f 350/536/222 376/549/234 375/548/233 349/535/221
f 351/537/223 377/550/235 376/549/234 350/536/222
f 352/526/213 367/539/225 377/550/235 351/537/223
f 230/551/236 229/552/236 365/553/236 231/554/236
f 228/555/236 227/556/236 365/553/236 229/552/236
f 226/557/236 225/558/237 365/553/236 227/556/236
f 224/559/237 223/560/237 365/553/236 225/558/237
f 222/561/237 221/562/237 365/553/236 223/560/237
f 380/563/238 356/564/239 357/565/240 358/566/241
f 221/562/237 232/567/236 231/554/236 365/553/236
f 353/568/242 364/569/243 367/570/243 366/571/224
f 354/572/244 353/568/242 366/571/224 368/573/226
f 355/574/245 354/572/244 368/573/226 369/575/227
f 356/564/246 355/574/245 369/575/227 370/576/228
f 357/565/247 356/564/246 370/576/228 371/577/229
f 358/566/248 357/565/247 371/577/229 372/578/248
f 359/579/249 358/566/248 372/578/248 373/580/250
f 360/581/251 359/579/249 373/580/250 374/582/252
f 361/583/253 360/581/251 374/582/252 375/584/253
f 362/585/254 361/583/253 375/584/253 376/586/255
f 363/587/256 362/585/254 376/586/255 377/588/257
f 364/569/243 363/587/256 377/588/257 367/570/243
f 378/589/258 354/572/259 355/574/260 379/590/261
f 364/569/262 353/568/263 354/572/259 378/589/258
f 362/585/264 378/589/258 379/590/261 361/583/265
f 363/587/262 364/569/262 378/589/258 362/585/264
f 360/581/266 380/563/238 358/566/241 359/579/267
f 361/583/265 379/590/261 380/563/238 360/581/266
f 379/590/261 355/574/260 356/564/239 380/563/238
