# Blender 4.0.2
# www.blender.org
o building_tower_02
v 12.175388 83.663269 -12.003719
v -14.422732 83.663269 3.906254
v -2.989553 83.663269 13.593701
v -3.714707 83.663269 4.631409
v -7.267306 83.663269 -12.003721
v -14.422731 83.663269 -10.446977
v -7.992460 83.663269 -11.172131
v 10.572238 83.663269 13.593702
v 3.780656 83.663269 -12.003720
v 12.175386 83.663269 6.569334
v 10.572238 83.663269 6.569334
v 12.900542 0.000000 -12.728873
v -15.147886 0.000000 4.631408
v -3.714708 0.000000 14.318855
v -3.714707 0.000000 4.631409
v -7.992460 0.000000 -12.728875
v 3.780654 83.663269 13.593701
v -15.147885 0.000000 -11.172131
v -7.992460 0.000000 -11.172131
v 11.297392 0.000000 14.318856
v 3.780656 0.000000 -12.728874
v 12.900540 0.000000 7.294488
v 11.297392 0.000000 7.294488
v 3.780654 0.000000 14.318855
v 12.900542 83.663269 -12.728873
v 12.900540 83.663269 7.294488
v -15.147885 83.663269 -11.172131
v -15.147886 83.663269 4.631408
v 3.780654 82.579094 13.593701
v 3.780656 83.663269 -12.728874
v -3.714708 83.663269 14.318855
v -7.992460 83.663269 -12.728875
v -2.989553 83.663269 3.906255
v -7.267306 83.663269 -10.446977
v 11.297392 83.663269 14.318856
v 11.297392 83.663269 7.294488
v -2.989553 82.579094 3.906255
v -7.267306 82.579094 -10.446977
v 3.780654 83.663269 14.318855
v 3.780656 82.579094 -12.003720
v 10.572238 82.579094 6.569334
v 12.175388 82.579094 -12.003719
v 12.175386 82.579094 6.569334
v -14.422731 82.579094 -10.446977
v -14.422732 82.579094 3.906254
v -2.989553 82.579094 13.593701
v -7.267306 82.579094 -12.003721
v 10.572238 82.579094 13.593702
v -15.147886 83.663269 -3.138841
v 12.900541 83.663269 -3.138839
v -15.147886 0.000000 -3.138841
v 12.900541 0.000000 -3.138839
v -14.422732 83.663269 -3.138841
v 12.175387 83.663269 -3.138839
v 3.780655 82.579094 -3.138839
v -14.422732 82.579094 -3.138841
v 12.175387 82.579094 -3.138839
vn -0.0000 -0.0000 -1.0000
vn -1.0000 -0.0000 -0.0000
vn -0.0000 1.0000 -0.0000
vn -0.0000 -0.0000 1.0000
vn 1.0000 -0.0000 -0.0000
vt 0.170670 0.654092
vt 0.080000 0.654092
vt 0.080000 0.009764
vt 0.170670 0.009764
vt 0.549037 0.730854
vt 0.494933 0.730854
vt 0.494933 0.722503
vt 0.549037 0.722503
vt 0.695401 0.654141
vt 0.620788 0.654141
vt 0.620788 0.009764
vt 0.695401 0.009764
vt 0.208124 0.672689
vt 0.208124 0.726788
vt 0.155817 0.801559
vt 0.155818 0.672689
vt 0.310635 0.848479
vt 0.258325 0.848479
vt 0.258325 0.840129
vt 0.310635 0.840129
vt 0.710038 0.654466
vt 0.710038 0.010131
vt 0.798091 0.010131
vt 0.798091 0.654466
vt 0.550046 0.706848
vt 0.494933 0.706848
vt 0.494933 0.698497
vt 0.550046 0.698497
vt 0.312587 0.824484
vt 0.258323 0.824484
vt 0.258323 0.816133
vt 0.312587 0.816133
vt 0.385370 0.726487
vt 0.373383 0.726487
vt 0.373383 0.718138
vt 0.385370 0.718138
vt 0.298793 0.874868
vt 0.383886 0.874868
vt 0.383886 0.880453
vt 0.293207 0.880453
vt 0.936596 0.654456
vt 0.882498 0.654456
vt 0.882498 0.010131
vt 0.936596 0.010131
vt 0.448542 0.806589
vt 0.448542 0.731816
vt 0.454128 0.726231
vt 0.454128 0.806589
vt 0.867852 0.654451
vt 0.812746 0.654451
vt 0.812746 0.010131
vt 0.867852 0.010131
vt 0.331740 0.752327
vt 0.243681 0.752327
vt 0.238096 0.746742
vt 0.326155 0.746742
vt 0.331740 0.677713
vt 0.326155 0.672128
vt 0.416043 0.654099
vt 0.354174 0.654099
vt 0.354175 0.009764
vt 0.416043 0.009764
vt 0.548255 0.654081
vt 0.490531 0.654081
vt 0.490531 0.009764
vt 0.548255 0.009764
vt 0.448542 0.874868
vt 0.454128 0.880453
vt 0.963587 0.654104
vt 0.951241 0.654104
vt 0.951241 0.009764
vt 0.963587 0.009764
vt 0.436195 0.677714
vt 0.383886 0.677713
vt 0.383886 0.672128
vt 0.441780 0.672128
vt 0.990227 0.654303
vt 0.978234 0.654303
vt 0.978234 0.009765
vt 0.990227 0.009765
vt 0.220471 0.801559
vt 0.220471 0.726788
vt 0.243681 0.806589
vt 0.243681 0.862877
vt 0.238096 0.868463
vt 0.238096 0.806589
vt 0.103675 0.747299
vt 0.015620 0.801559
vt 0.015620 0.747298
vt 0.326602 0.776486
vt 0.258320 0.776486
vt 0.258320 0.768135
vt 0.326602 0.768135
vt 0.103675 0.672689
vt 0.155817 0.869833
vt 0.070729 0.869833
vt 0.070729 0.857843
vt 0.362780 0.848479
vt 0.362780 0.840129
vt 0.298793 0.862877
vt 0.293207 0.868463
vt 0.436195 0.731816
vt 0.441780 0.726231
vt 0.265670 0.654110
vt 0.185316 0.654110
vt 0.185316 0.009764
vt 0.265670 0.009764
vt 0.220471 0.869833
vt 0.551970 0.682021
vt 0.463980 0.682021
vt 0.463980 0.673678
vt 0.551970 0.673678
vt 0.015620 0.857843
vt 0.009764 0.654092
vt 0.009764 0.009764
vt 0.339529 0.654110
vt 0.339529 0.009764
vt 0.401380 0.776486
vt 0.401380 0.768136
vt 0.358737 0.726481
vt 0.346388 0.726481
vt 0.346389 0.718130
vt 0.358737 0.718130
vt 0.343421 0.792131
vt 0.408081 0.792131
vt 0.408081 0.800482
vt 0.343421 0.800482
vt 0.606144 0.654081
vt 0.606144 0.009764
vt 0.258327 0.800482
vt 0.258327 0.792131
vt 0.421003 0.702488
vt 0.346387 0.702488
vt 0.346387 0.694138
vt 0.421003 0.694138
vt 0.475886 0.654099
vt 0.475886 0.009764
vt 0.368877 0.824484
vt 0.368877 0.816133
s 1
f 32/1/1 30/2/1 21/3/1 16/4/1
f 8/5/2 11/6/2 41/7/2 48/8/2
f 31/9/2 4/10/2 15/11/2 14/12/2
f 48/13/3 41/14/3 55/15/3 29/16/3
f 17/17/1 8/18/1 48/19/1 29/20/1
f 28/21/4 13/22/4 15/23/4 4/24/4
f 34/25/4 6/26/4 44/27/4 38/28/4
f 53/29/5 2/30/5 45/31/5 56/32/5
f 5/33/5 34/34/5 38/35/5 47/36/5
f 5/37/3 9/38/3 30/39/3 32/40/3
f 36/41/5 35/42/5 20/43/5 23/44/5
f 54/45/3 10/46/3 26/47/3 50/48/3
f 27/49/1 7/50/1 19/51/1 18/52/1
f 33/53/3 2/54/3 28/55/3 4/56/3
f 3/57/3 33/53/3 4/56/3 31/58/3
f 49/59/2 27/60/2 18/61/2 51/62/2
f 39/63/4 31/64/4 14/65/4 24/66/4
f 1/67/3 54/45/3 50/48/3 25/68/3
f 26/69/4 36/70/4 23/71/4 22/72/4
f 8/73/3 17/74/3 39/75/3 35/76/3
f 7/77/2 32/78/2 16/79/2 19/80/2
f 57/81/3 55/15/3 41/14/3 43/82/3
f 9/38/3 1/67/3 25/68/3 30/39/3
f 53/83/3 6/84/3 27/85/3 49/86/3
f 37/87/3 55/15/3 56/88/3 45/89/3
f 54/90/2 1/91/2 42/92/2 57/93/2
f 29/16/3 55/15/3 37/87/3 46/94/3
f 40/95/3 47/96/3 38/97/3 55/15/3
f 3/98/1 17/17/1 29/20/1 46/99/1
f 34/100/3 5/37/3 32/40/3 7/101/3
f 6/84/3 34/100/3 7/101/3 27/85/3
f 17/74/3 3/57/3 31/58/3 39/75/3
f 11/102/3 8/73/3 35/76/3 36/103/3
f 10/46/3 11/102/3 36/103/3 26/47/3
f 50/104/5 26/105/5 22/106/5 52/107/5
f 40/95/3 55/15/3 57/81/3 42/108/3
f 2/109/1 33/110/1 37/111/1 45/112/1
f 55/15/3 38/97/3 44/113/3 56/88/3
f 30/2/1 25/114/1 12/115/1 21/3/1
f 25/116/5 50/104/5 52/107/5 12/117/5
f 10/118/2 54/90/2 57/93/2 43/119/2
f 11/120/1 10/121/1 43/122/1 41/123/1
f 40/124/4 42/125/4 1/126/4 9/127/4
f 35/128/4 39/63/4 24/66/4 20/129/4
f 40/124/4 9/127/4 5/130/4 47/131/4
f 33/132/5 3/133/5 46/134/5 37/135/5
f 2/54/3 53/83/3 49/86/3 28/55/3
f 28/136/2 49/59/2 51/62/2 13/137/2
f 6/138/5 53/29/5 56/32/5 44/139/5
