# Blender 4.0.2
# www.blender.org
o food_prep_table_corner
v -0.368630 0.900000 -0.300000
v -0.368630 0.900000 -0.280000
v -0.368630 0.780000 -0.300000
v -0.368630 0.780000 0.300000
v -0.368630 0.840000 -0.280000
v -0.368630 0.840000 0.300000
v -0.349697 0.240000 0.213596
v -0.313294 0.240000 0.255917
v -0.313294 0.240000 0.213596
v -0.313294 0.200000 0.255917
v -0.349697 0.200000 0.213596
v -0.313294 0.200000 0.213596
v -0.313294 0.240000 -0.250000
v -0.349697 0.240000 -0.213596
v -0.313294 0.240000 -0.213596
v -0.349697 0.200000 -0.213596
v -0.313294 0.200000 -0.250000
v -0.313294 0.200000 -0.213596
v -0.349697 0.780000 -0.250000
v -0.313294 0.780000 -0.250000
v -0.313294 0.006530 -0.213596
v -0.349697 0.006530 -0.250000
v -0.313294 0.006530 -0.250000
v -0.313294 0.780000 -0.213596
v -0.349697 0.780000 -0.213596
v -0.349697 0.006530 -0.213596
v -0.349697 0.780000 0.213596
v -0.313294 0.780000 0.213596
v -0.313294 0.006530 0.250000
v -0.349697 0.006530 0.213596
v -0.313294 0.006530 0.213596
v -0.313294 0.780000 0.250000
v -0.349697 0.780000 0.250000
v -0.349697 0.006530 0.250000
v -0.296453 0.000000 0.231798
v -0.296453 0.006530 0.231798
v -0.299120 0.000000 0.245209
v -0.299120 0.006530 0.245209
v -0.306716 0.000000 0.256577
v -0.306716 0.006530 0.256577
v -0.318085 0.000000 0.264174
v -0.318085 0.006530 0.264174
v -0.331496 0.000000 0.266841
v -0.331496 0.006530 0.266841
v -0.344906 0.000000 0.264174
v -0.344906 0.006530 0.264174
v -0.356275 0.000000 0.256577
v -0.356275 0.006530 0.256577
v -0.363871 0.000000 0.245209
v -0.363871 0.006530 0.245209
v -0.366539 0.000000 0.231798
v -0.366539 0.006530 0.231798
v -0.363871 0.000000 0.218388
v -0.363871 0.006530 0.218388
v -0.356275 0.000000 0.207019
v -0.356275 0.006530 0.207019
v -0.344906 0.000000 0.199423
v -0.344906 0.006530 0.199423
v -0.331496 0.000000 0.196755
v -0.331496 0.006530 0.196755
v -0.318085 0.000000 0.199423
v -0.318085 0.006530 0.199423
v -0.306716 0.000000 0.207019
v -0.306716 0.006530 0.207019
v -0.299120 0.000000 0.218388
v -0.299120 0.006530 0.218388
v -0.331496 0.006530 0.231798
v -0.331496 0.000000 0.231798
v -0.296453 0.000000 -0.231798
v -0.296453 0.006530 -0.231798
v -0.299120 0.000000 -0.218388
v -0.299120 0.006530 -0.218388
v -0.306716 0.000000 -0.207019
v -0.306716 0.006530 -0.207019
v -0.318085 0.000000 -0.199423
v -0.318085 0.006530 -0.199423
v -0.331496 0.000000 -0.196755
v -0.331496 0.006530 -0.196755
v -0.344906 0.000000 -0.199423
v -0.344906 0.006530 -0.199423
v -0.356275 0.000000 -0.207019
v -0.356275 0.006530 -0.207019
v -0.363871 0.000000 -0.218388
v -0.363871 0.006530 -0.218388
v -0.366539 0.000000 -0.231798
v -0.366539 0.006530 -0.231798
v -0.363871 0.000000 -0.245209
v -0.363871 0.006530 -0.245209
v -0.356275 0.000000 -0.256577
v -0.356275 0.006530 -0.256577
v -0.344906 0.000000 -0.264174
v -0.344906 0.006530 -0.264174
v -0.331496 0.000000 -0.266841
v -0.331496 0.006530 -0.266841
v -0.318085 0.000000 -0.264174
v -0.318085 0.006530 -0.264174
v -0.306716 0.000000 -0.256577
v -0.306716 0.006530 -0.256577
v -0.299120 0.000000 -0.245209
v -0.299120 0.006530 -0.245209
v -0.331496 0.006530 -0.231798
v -0.331496 0.000000 -0.231798
v -0.250291 0.240000 0.318920
v -0.250291 0.200000 0.318920
v 0.368629 0.900000 -0.300000
v 0.368629 0.780000 -0.300000
v 0.282226 0.240000 -0.213597
v 0.368629 0.900000 0.437259
v 0.348630 0.900000 0.437259
v 0.368629 0.780000 0.437259
v -0.231370 0.780000 0.437259
v 0.348630 0.840000 0.437259
v -0.231370 0.840000 0.437259
v -0.144967 0.240000 0.418327
v -0.187287 0.240000 0.381923
v -0.144967 0.240000 0.381923
v -0.187287 0.200000 0.381923
v -0.144967 0.200000 0.418327
v -0.144967 0.200000 0.381923
v 0.318630 0.240000 0.381923
v 0.282226 0.240000 0.418327
v 0.282226 0.240000 0.381923
v 0.282226 0.200000 0.418327
v 0.318630 0.200000 0.381923
v 0.282226 0.200000 0.381923
v 0.318630 0.780000 0.418327
v 0.318630 0.780000 0.381923
v 0.282226 0.006530 0.381923
v 0.318630 0.006530 0.418327
v 0.318630 0.006530 0.381923
v 0.282226 0.780000 0.381923
v 0.282226 0.780000 0.418327
v 0.282226 0.006530 0.418327
v -0.144967 0.780000 0.418327
v -0.144967 0.780000 0.381923
v -0.181370 0.006530 0.381923
v -0.144967 0.006530 0.418327
v -0.144967 0.006530 0.381923
v -0.181370 0.780000 0.381923
v -0.181370 0.780000 0.418327
v -0.181370 0.006530 0.418327
v -0.163169 0.000000 0.365082
v -0.163169 0.006530 0.365082
v -0.176579 0.000000 0.367750
v -0.176579 0.006530 0.367750
v -0.187948 0.000000 0.375346
v -0.187948 0.006530 0.375346
v -0.195544 0.000000 0.386715
v -0.195544 0.006530 0.386715
v -0.198212 0.000000 0.400125
v -0.198212 0.006530 0.400125
v -0.195544 0.000000 0.413535
v -0.195544 0.006530 0.413535
v -0.187948 0.000000 0.424904
v -0.187948 0.006530 0.424904
v -0.176579 0.000000 0.432501
v -0.176579 0.006530 0.432501
v -0.163169 0.000000 0.435168
v -0.163169 0.006530 0.435168
v -0.149758 0.000000 0.432501
v -0.149758 0.006530 0.432501
v -0.138389 0.000000 0.424904
v -0.138389 0.006530 0.424904
v -0.130793 0.000000 0.413535
v -0.130793 0.006530 0.413535
v -0.128126 0.000000 0.400125
v -0.128126 0.006530 0.400125
v -0.130793 0.000000 0.386715
v -0.130793 0.006530 0.386715
v -0.138389 0.000000 0.375346
v -0.138389 0.006530 0.375346
v -0.149758 0.000000 0.367750
v -0.149758 0.006530 0.367750
v -0.163169 0.006530 0.400125
v -0.163169 0.000000 0.400125
v 0.300428 0.000000 0.365082
v 0.300428 0.006530 0.365082
v 0.287017 0.000000 0.367750
v 0.287017 0.006530 0.367750
v 0.275649 0.000000 0.375346
v 0.275649 0.006530 0.375346
v 0.268052 0.000000 0.386715
v 0.268052 0.006530 0.386715
v 0.265385 0.000000 0.400125
v 0.265385 0.006530 0.400125
v 0.268052 0.000000 0.413535
v 0.268052 0.006530 0.413535
v 0.275649 0.000000 0.424904
v 0.275649 0.006530 0.424904
v 0.287017 0.000000 0.432501
v 0.287017 0.006530 0.432501
v 0.300428 0.000000 0.435168
v 0.300428 0.006530 0.435168
v 0.313838 0.000000 0.432501
v 0.313838 0.006530 0.432501
v 0.325207 0.000000 0.424904
v 0.325207 0.006530 0.424904
v 0.332803 0.000000 0.413535
v 0.332803 0.006530 0.413535
v 0.335471 0.000000 0.400125
v 0.335471 0.006530 0.400125
v 0.332803 0.000000 0.386715
v 0.332803 0.006530 0.386715
v 0.325207 0.000000 0.375346
v 0.325207 0.006530 0.375346
v 0.313838 0.000000 0.367750
v 0.313838 0.006530 0.367750
v 0.300428 0.006530 0.400125
v 0.300428 0.000000 0.400125
v 0.348629 0.900000 -0.280000
v 0.348629 0.840000 -0.280000
v 0.282226 0.200000 -0.213596
v -0.229130 0.200000 0.297760
v -0.300000 0.780000 0.368630
v -0.300000 0.840000 0.368630
v -0.229130 0.240000 0.297760
v 0.282226 0.780000 -0.250000
v 0.318629 0.780000 -0.250000
v 0.318630 0.006530 -0.213596
v 0.282226 0.006530 -0.250000
v 0.318629 0.006530 -0.250000
v 0.318630 0.780000 -0.213596
v 0.282226 0.780000 -0.213596
v 0.282226 0.006530 -0.213596
v 0.318629 0.240000 -0.213597
v 0.282226 0.240000 -0.250000
v 0.282226 0.200000 -0.250000
v 0.318629 0.200000 -0.213596
v 0.335471 0.000000 -0.231798
v 0.335471 0.006530 -0.231798
v 0.332803 0.000000 -0.218388
v 0.332803 0.006530 -0.218388
v 0.325207 0.000000 -0.207019
v 0.325207 0.006530 -0.207019
v 0.313838 0.000000 -0.199423
v 0.313838 0.006530 -0.199423
v 0.300428 0.000000 -0.196755
v 0.300428 0.006530 -0.196755
v 0.287017 0.000000 -0.199423
v 0.287017 0.006530 -0.199423
v 0.275649 0.000000 -0.207019
v 0.275649 0.006530 -0.207019
v 0.268052 0.000000 -0.218388
v 0.268052 0.006530 -0.218388
v 0.265385 0.000000 -0.231798
v 0.265385 0.006530 -0.231798
v 0.268052 0.000000 -0.245209
v 0.268052 0.006530 -0.245209
v 0.275649 0.000000 -0.256577
v 0.275649 0.006530 -0.256577
v 0.287017 0.000000 -0.264174
v 0.287017 0.006530 -0.264174
v 0.300428 0.000000 -0.266841
v 0.300428 0.006530 -0.266841
v 0.313838 0.000000 -0.264174
v 0.313838 0.006530 -0.264174
v 0.325207 0.000000 -0.256577
v 0.325207 0.006530 -0.256577
v 0.332803 0.000000 -0.245209
v 0.332803 0.006530 -0.245209
v 0.300428 0.006530 -0.231798
v 0.300428 0.000000 -0.231798
vn -1.0000 -0.0000 -0.0000
vn -0.0000 -1.0000 -0.0000
vn -0.0000 -0.0000 1.0000
vn -0.0000 -0.0000 -1.0000
vn -0.0000 1.0000 -0.0000
vn 1.0000 -0.0000 -0.0000
vn 0.9239 -0.0000 0.3827
vn 0.7071 -0.0000 0.7071
vn 0.3827 -0.0000 0.9239
vn -0.3827 -0.0000 0.9239
vn -0.7071 -0.0000 0.7071
vn -0.9239 -0.0000 0.3827
vn -0.9239 -0.0000 -0.3827
vn -0.7071 -0.0000 -0.7071
vn -0.3827 -0.0000 -0.9239
vn 0.3827 -0.0000 -0.9239
vn 0.7071 -0.0000 -0.7071
vn 0.9239 -0.0000 -0.3827
vt 0.015548 0.804882
vt 0.015548 0.836882
vt 0.004881 0.836882
vt 0.004881 0.772881
vt 0.024299 0.654133
vt 0.004884 0.654133
vt 0.004885 0.426300
vt 0.024299 0.426300
vt 0.324884 0.772881
vt 0.324884 0.804882
vt 0.845520 0.914216
vt 0.845520 0.892887
vt 0.864931 0.892887
vt 0.864931 0.914216
vt 0.887497 0.892887
vt 0.887498 0.914216
vt 0.845520 0.922883
vt 0.866850 0.922883
vt 0.866850 0.942295
vt 0.845520 0.942295
vt 0.866850 0.961707
vt 0.845520 0.961707
vt 0.967435 0.330878
vt 0.988771 0.330878
vt 0.988771 0.558736
vt 0.967435 0.558736
vt 0.418744 0.506070
vt 0.438159 0.506070
vt 0.438159 0.733906
vt 0.418744 0.733906
vt 0.940214 0.426882
vt 0.959630 0.426882
vt 0.959630 0.839419
vt 0.940214 0.839419
vt 0.881966 0.426882
vt 0.901382 0.426882
vt 0.901382 0.839419
vt 0.881966 0.839419
vt 0.920798 0.426882
vt 0.920798 0.839419
vt 0.417388 0.907127
vt 0.417388 0.926542
vt 0.004880 0.926542
vt 0.004880 0.907127
vt 0.417388 0.848883
vt 0.417388 0.868298
vt 0.004881 0.868298
vt 0.004881 0.848883
vt 0.417388 0.887712
vt 0.004880 0.887712
vt 0.405900 0.034073
vt 0.409385 0.034073
vt 0.409385 0.041369
vt 0.405900 0.041369
vt 0.409385 0.048666
vt 0.405900 0.048666
vt 0.409384 0.055963
vt 0.405900 0.055963
vt 0.409384 0.063259
vt 0.405900 0.063259
vt 0.409384 0.070556
vt 0.405900 0.070556
vt 0.409384 0.077852
vt 0.405900 0.077852
vt 0.409384 0.085149
vt 0.405900 0.085149
vt 0.409384 0.092446
vt 0.405900 0.092446
vt 0.409384 0.099742
vt 0.405900 0.099742
vt 0.409384 0.107039
vt 0.405900 0.107039
vt 0.409384 0.114336
vt 0.405900 0.114336
vt 0.409384 0.121632
vt 0.405900 0.121632
vt 0.405900 0.004886
vt 0.409384 0.004886
vt 0.409384 0.012183
vt 0.405900 0.012183
vt 0.409384 0.019480
vt 0.405900 0.019480
vt 0.803910 0.819599
vt 0.798752 0.824755
vt 0.788368 0.809214
vt 0.806700 0.812861
vt 0.409385 0.026776
vt 0.405900 0.026776
vt 0.850617 0.815566
vt 0.850617 0.822859
vt 0.832284 0.819213
vt 0.847826 0.808829
vt 0.847826 0.829598
vt 0.842668 0.834755
vt 0.835931 0.837546
vt 0.828637 0.837546
vt 0.821900 0.834755
vt 0.816742 0.829598
vt 0.813951 0.822859
vt 0.813951 0.815566
vt 0.816742 0.808829
vt 0.821900 0.803671
vt 0.828637 0.800880
vt 0.835931 0.800880
vt 0.806700 0.805568
vt 0.803910 0.798829
vt 0.792014 0.827547
vt 0.784721 0.827547
vt 0.777983 0.824755
vt 0.772825 0.819599
vt 0.770034 0.812861
vt 0.770034 0.805568
vt 0.772825 0.798829
vt 0.777983 0.793672
vt 0.784721 0.790881
vt 0.792014 0.790881
vt 0.798752 0.793672
vt 0.842668 0.803671
vt 0.903802 0.962365
vt 0.903802 0.958886
vt 0.911087 0.958886
vt 0.911087 0.962365
vt 0.918371 0.958886
vt 0.918371 0.962365
vt 0.925656 0.958886
vt 0.925656 0.962365
vt 0.932940 0.958886
vt 0.932940 0.962365
vt 0.940225 0.958886
vt 0.940225 0.962365
vt 0.947510 0.958886
vt 0.947510 0.962365
vt 0.954795 0.958886
vt 0.954795 0.962365
vt 0.962079 0.958886
vt 0.962079 0.962365
vt 0.969364 0.958886
vt 0.969364 0.962365
vt 0.976649 0.958886
vt 0.976649 0.962365
vt 0.983933 0.958886
vt 0.983933 0.962365
vt 0.991218 0.958886
vt 0.991218 0.962365
vt 0.874663 0.962365
vt 0.874663 0.958887
vt 0.881948 0.958886
vt 0.881948 0.962365
vt 0.889232 0.958886
vt 0.889232 0.962365
vt 0.840315 0.846828
vt 0.845472 0.841673
vt 0.855855 0.857212
vt 0.837525 0.853566
vt 0.896517 0.958886
vt 0.896517 0.962365
vt 0.958436 0.864861
vt 0.958436 0.857570
vt 0.976764 0.861215
vt 0.961227 0.871597
vt 0.961227 0.850834
vt 0.966382 0.845679
vt 0.973118 0.842888
vt 0.980409 0.842888
vt 0.987146 0.845679
vt 0.992301 0.850834
vt 0.995091 0.857570
vt 0.995091 0.864861
vt 0.992301 0.871597
vt 0.987146 0.876753
vt 0.980409 0.879543
vt 0.973118 0.879543
vt 0.837525 0.860858
vt 0.840316 0.867596
vt 0.852209 0.838882
vt 0.859502 0.838882
vt 0.866239 0.841673
vt 0.871396 0.846828
vt 0.874186 0.853566
vt 0.874186 0.860858
vt 0.871396 0.867596
vt 0.866239 0.872752
vt 0.859501 0.875543
vt 0.852209 0.875543
vt 0.845472 0.872752
vt 0.966382 0.876753
vt 0.802345 0.387420
vt 0.493012 0.387420
vt 0.456410 0.350818
vt 0.802345 0.004884
vt 0.818754 0.848882
vt 0.818754 0.859548
vt 0.436235 0.859548
vt 0.425569 0.848882
vt 0.818754 0.891546
vt 0.436235 0.891547
vt 0.810155 0.004884
vt 0.874155 0.004884
vt 0.874155 0.398089
vt 0.810155 0.398089
vt 0.024299 0.676704
vt 0.069186 0.699019
vt 0.057901 0.710305
vt 0.004883 0.398086
vt 0.004883 0.004886
vt 0.361482 0.361484
vt 0.324880 0.398086
vt 0.341906 0.426300
vt 0.023350 0.812879
vt 0.340991 0.812880
vt 0.340991 0.834215
vt 0.023350 0.834215
vt 0.775185 0.416295
vt 0.775185 0.733906
vt 0.755769 0.733906
vt 0.755769 0.416296
vt 0.438159 0.483499
vt 0.471761 0.449898
vt 0.483046 0.461183
vt 0.505363 0.416295
vt 0.527933 0.416295
vt 0.401139 0.397555
vt 0.369139 0.386889
vt 0.433139 0.386889
vt 0.433139 0.397555
vt 0.114072 0.743906
vt 0.341906 0.743906
vt 0.341906 0.763321
vt 0.114072 0.763321
vt 0.369140 0.706885
vt 0.401139 0.706885
vt 0.895311 0.916880
vt 0.914727 0.916880
vt 0.914727 0.938215
vt 0.895311 0.938215
vt 0.937300 0.916880
vt 0.937300 0.938215
vt 0.953882 0.910880
vt 0.973300 0.910880
vt 0.973300 0.932216
vt 0.953882 0.932216
vt 0.992718 0.910880
vt 0.992718 0.932216
vt 0.988773 0.566884
vt 0.988773 0.794742
vt 0.967438 0.794742
vt 0.967438 0.566884
vt 0.527933 0.396881
vt 0.755769 0.396881
vt 0.425203 0.959132
vt 0.837703 0.959132
vt 0.837703 0.978546
vt 0.425203 0.978546
vt 0.425202 0.900888
vt 0.837703 0.900889
vt 0.837703 0.920303
vt 0.425203 0.920303
vt 0.837703 0.939717
vt 0.425203 0.939717
vt 0.349725 0.821125
vt 0.762226 0.821126
vt 0.762226 0.840540
vt 0.349725 0.840540
vt 0.349725 0.762883
vt 0.762226 0.762883
vt 0.762226 0.782297
vt 0.349725 0.782297
vt 0.762226 0.801711
vt 0.349725 0.801711
vt 0.932929 0.974366
vt 0.925645 0.974366
vt 0.925645 0.970888
vt 0.932929 0.970888
vt 0.918360 0.974366
vt 0.918360 0.970888
vt 0.911076 0.974366
vt 0.911076 0.970888
vt 0.903792 0.974366
vt 0.903792 0.970888
vt 0.896508 0.974366
vt 0.896508 0.970888
vt 0.889223 0.974366
vt 0.889223 0.970888
vt 0.881939 0.974366
vt 0.881939 0.970888
vt 0.874655 0.974366
vt 0.874655 0.970888
vt 0.867370 0.974366
vt 0.867370 0.970888
vt 0.860086 0.974366
vt 0.860086 0.970888
vt 0.852802 0.974366
vt 0.852802 0.970888
vt 0.845517 0.974366
vt 0.845517 0.970888
vt 0.962066 0.974366
vt 0.954782 0.974366
vt 0.954782 0.970888
vt 0.962066 0.970888
vt 0.947498 0.974366
vt 0.947498 0.970888
vt 0.442815 0.414834
vt 0.445606 0.421571
vt 0.427277 0.425217
vt 0.437659 0.409678
vt 0.940213 0.974366
vt 0.940213 0.970888
vt 0.004887 0.709566
vt 0.007678 0.702829
vt 0.023218 0.713212
vt 0.004887 0.716859
vt 0.007678 0.723596
vt 0.012835 0.728752
vt 0.019572 0.731543
vt 0.026865 0.731543
vt 0.033602 0.728752
vt 0.038758 0.723596
vt 0.041549 0.716859
vt 0.041549 0.709566
vt 0.038758 0.702829
vt 0.033602 0.697672
vt 0.026865 0.694882
vt 0.019572 0.694882
vt 0.445606 0.428863
vt 0.442815 0.435599
vt 0.430923 0.406888
vt 0.423631 0.406888
vt 0.416894 0.409678
vt 0.411737 0.414834
vt 0.408947 0.421571
vt 0.408947 0.428863
vt 0.411738 0.435599
vt 0.416894 0.440756
vt 0.423631 0.443546
vt 0.430922 0.443546
vt 0.437659 0.440756
vt 0.012835 0.697672
vt 0.409383 0.160073
vt 0.409383 0.167370
vt 0.405898 0.167370
vt 0.405898 0.160074
vt 0.409383 0.174667
vt 0.405898 0.174667
vt 0.409383 0.181963
vt 0.405898 0.181963
vt 0.409383 0.189260
vt 0.405899 0.189260
vt 0.409383 0.196557
vt 0.405898 0.196557
vt 0.409383 0.203853
vt 0.405898 0.203853
vt 0.409383 0.211150
vt 0.405898 0.211150
vt 0.409383 0.218446
vt 0.405898 0.218446
vt 0.409383 0.225743
vt 0.405898 0.225743
vt 0.409383 0.233039
vt 0.405898 0.233039
vt 0.409383 0.240336
vt 0.405898 0.240336
vt 0.409383 0.247633
vt 0.405898 0.247633
vt 0.409383 0.130887
vt 0.409383 0.138184
vt 0.405898 0.138184
vt 0.405898 0.130887
vt 0.409383 0.145480
vt 0.405898 0.145480
vt 0.069651 0.755599
vt 0.064493 0.760756
vt 0.054109 0.745214
vt 0.072441 0.748861
vt 0.409383 0.152777
vt 0.405898 0.152777
vt 0.391117 0.714888
vt 0.397855 0.717679
vt 0.387471 0.733218
vt 0.383825 0.714888
vt 0.377088 0.717679
vt 0.371932 0.722835
vt 0.369142 0.729572
vt 0.369142 0.736864
vt 0.371932 0.743601
vt 0.377088 0.748757
vt 0.383825 0.751548
vt 0.391117 0.751548
vt 0.397855 0.748757
vt 0.403010 0.743601
vt 0.405801 0.736864
vt 0.405801 0.729572
vt 0.057756 0.763546
vt 0.050462 0.763546
vt 0.072441 0.741568
vt 0.069651 0.734830
vt 0.064493 0.729672
vt 0.057756 0.726882
vt 0.050462 0.726882
vt 0.043724 0.729672
vt 0.038567 0.734830
vt 0.035776 0.741568
vt 0.035776 0.748861
vt 0.038567 0.755599
vt 0.043724 0.760756
vt 0.403010 0.722835
vt 0.419808 0.004884
vt 0.419807 0.314216
vt 0.398767 0.977547
vt 0.005582 0.977546
vt 0.016248 0.966880
vt 0.398767 0.966880
vt 0.016248 0.934881
vt 0.398767 0.934882
vt 0.810156 0.791293
vt 0.874156 0.791293
vt 0.433782 0.373446
vt 0.397180 0.336843
vt 0.398084 0.004886
vt 0.398084 0.324883
vt 0.024299 0.406885
vt 0.341906 0.406884
vt 0.341925 0.426280
vt 0.361321 0.426300
vt 0.361321 0.743906
vt 0.967437 0.004880
vt 0.988773 0.004880
vt 0.988773 0.322521
vt 0.967437 0.322521
vt 0.456676 0.434812
vt 0.490278 0.401211
vt 0.091502 0.743906
vt 0.470385 0.410048
vt 0.423074 0.468415
vt 0.940214 0.004885
vt 0.959629 0.004885
vt 0.959629 0.417417
vt 0.940214 0.417417
vt 0.881966 0.004885
vt 0.901382 0.004885
vt 0.901382 0.417417
vt 0.881966 0.417417
vt 0.920797 0.004885
vt 0.920798 0.417417
vt 0.791375 0.781680
vt 0.770040 0.781680
vt 0.770040 0.762282
vt 0.791375 0.762282
vt 0.770040 0.742883
vt 0.791375 0.742883
vt 0.438159 0.753321
vt 0.755789 0.733925
vt 0.755769 0.753321
vt 0.903806 0.950367
vt 0.903806 0.946889
vt 0.911090 0.946889
vt 0.911090 0.950368
vt 0.918374 0.946889
vt 0.918374 0.950367
vt 0.925659 0.946889
vt 0.925659 0.950367
vt 0.932943 0.946889
vt 0.932943 0.950367
vt 0.940227 0.946889
vt 0.940227 0.950367
vt 0.947512 0.946889
vt 0.947512 0.950367
vt 0.954796 0.946889
vt 0.954796 0.950367
vt 0.962080 0.946889
vt 0.962080 0.950368
vt 0.969364 0.946889
vt 0.969364 0.950367
vt 0.976649 0.946889
vt 0.976649 0.950367
vt 0.983933 0.946889
vt 0.983933 0.950367
vt 0.991217 0.946889
vt 0.991217 0.950367
vt 0.874669 0.950367
vt 0.874669 0.946889
vt 0.881953 0.946889
vt 0.881953 0.950367
vt 0.889237 0.946889
vt 0.889237 0.950367
vt 0.903417 0.848881
vt 0.910154 0.851672
vt 0.899770 0.867213
vt 0.896123 0.848881
vt 0.896522 0.946889
vt 0.896522 0.950367
vt 0.957964 0.883568
vt 0.957964 0.890861
vt 0.939631 0.887215
vt 0.955173 0.876830
vt 0.955173 0.897600
vt 0.950015 0.902757
vt 0.943277 0.905548
vt 0.935984 0.905548
vt 0.929246 0.902757
vt 0.924088 0.897600
vt 0.921297 0.890861
vt 0.921297 0.883568
vt 0.924088 0.876830
vt 0.929246 0.871672
vt 0.935984 0.868880
vt 0.943277 0.868880
vt 0.889386 0.851672
vt 0.884229 0.856828
vt 0.915311 0.856828
vt 0.918103 0.863567
vt 0.918103 0.870860
vt 0.915311 0.877598
vt 0.910154 0.882754
vt 0.903417 0.885545
vt 0.896123 0.885545
vt 0.889386 0.882754
vt 0.884229 0.877598
vt 0.881438 0.870860
vt 0.881438 0.863566
vt 0.950015 0.871672
s 1
f 5/1/1 2/2/1 1/3/1 3/4/1
f 12/5/2 11/6/2 16/7/2 18/8/2
f 4/9/1 6/10/1 5/1/1 3/4/1
f 7/11/3 11/12/3 12/13/3 9/14/3
f 9/14/1 12/13/1 10/15/1 8/16/1
f 16/17/4 14/18/4 15/19/4 18/20/4
f 18/20/1 15/19/1 13/21/1 17/22/1
f 11/23/1 7/24/1 14/25/1 16/26/1
f 7/27/5 9/28/5 15/29/5 14/30/5
f 19/31/4 20/32/4 23/33/4 22/34/4
f 20/35/6 24/36/6 21/37/6 23/38/6
f 24/36/3 25/39/3 26/40/3 21/37/3
f 25/39/1 19/31/1 22/34/1 26/40/1
f 27/41/4 28/42/4 31/43/4 30/44/4
f 28/45/6 32/46/6 29/47/6 31/48/6
f 32/46/3 33/49/3 34/50/3 29/47/3
f 33/49/1 27/41/1 30/44/1 34/50/1
f 35/51/6 36/52/6 38/53/7 37/54/7
f 37/54/7 38/53/7 40/55/8 39/56/8
f 39/56/8 40/55/8 42/57/9 41/58/9
f 41/58/9 42/57/9 44/59/3 43/60/3
f 43/60/3 44/59/3 46/61/10 45/62/10
f 45/62/10 46/61/10 48/63/11 47/64/11
f 47/64/11 48/63/11 50/65/12 49/66/12
f 49/66/12 50/65/12 52/67/1 51/68/1
f 51/68/1 52/67/1 54/69/13 53/70/13
f 53/70/13 54/69/13 56/71/14 55/72/14
f 55/72/14 56/71/14 58/73/15 57/74/15
f 57/74/15 58/73/15 60/75/4 59/76/4
f 59/77/4 60/78/4 62/79/16 61/80/16
f 61/80/16 62/79/16 64/81/17 63/82/17
f 41/83/2 43/84/2 68/85/2 39/86/2
f 63/82/17 64/81/17 66/87/18 65/88/18
f 65/88/18 66/87/18 36/52/6 35/51/6
f 66/89/5 64/90/5 67/91/5 36/92/5
f 62/93/5 60/94/5 67/91/5 64/90/5
f 58/95/5 56/96/5 67/91/5 60/94/5
f 54/97/5 52/98/5 67/91/5 56/96/5
f 50/99/5 48/100/5 67/91/5 52/98/5
f 46/101/5 44/102/5 67/91/5 48/100/5
f 42/103/5 40/104/5 67/91/5 44/102/5
f 37/105/2 39/86/2 68/85/2 35/106/2
f 45/107/2 47/108/2 68/85/2 43/84/2
f 49/109/2 51/110/2 68/85/2 47/108/2
f 53/111/2 55/112/2 68/85/2 51/110/2
f 57/113/2 59/114/2 68/85/2 55/112/2
f 61/115/2 63/116/2 68/85/2 59/114/2
f 65/117/2 35/106/2 68/85/2 63/116/2
f 40/104/5 38/118/5 36/92/5 67/91/5
f 69/119/6 70/120/6 72/121/7 71/122/7
f 71/122/7 72/121/7 74/123/8 73/124/8
f 73/124/8 74/123/8 76/125/9 75/126/9
f 75/126/9 76/125/9 78/127/3 77/128/3
f 77/128/3 78/127/3 80/129/10 79/130/10
f 79/130/10 80/129/10 82/131/11 81/132/11
f 81/132/11 82/131/11 84/133/12 83/134/12
f 83/134/12 84/133/12 86/135/1 85/136/1
f 85/136/1 86/135/1 88/137/13 87/138/13
f 87/138/13 88/137/13 90/139/14 89/140/14
f 89/140/14 90/139/14 92/141/15 91/142/15
f 91/142/15 92/141/15 94/143/4 93/144/4
f 93/145/4 94/146/4 96/147/16 95/148/16
f 95/148/16 96/147/16 98/149/17 97/150/17
f 75/151/2 77/152/2 102/153/2 73/154/2
f 97/150/17 98/149/17 100/155/18 99/156/18
f 99/156/18 100/155/18 70/120/6 69/119/6
f 100/157/5 98/158/5 101/159/5 70/160/5
f 96/161/5 94/162/5 101/159/5 98/158/5
f 92/163/5 90/164/5 101/159/5 94/162/5
f 88/165/5 86/166/5 101/159/5 90/164/5
f 84/167/5 82/168/5 101/159/5 86/166/5
f 80/169/5 78/170/5 101/159/5 82/168/5
f 76/171/5 74/172/5 101/159/5 78/170/5
f 71/173/2 73/154/2 102/153/2 69/174/2
f 79/175/2 81/176/2 102/153/2 77/152/2
f 83/177/2 85/178/2 102/153/2 81/176/2
f 87/179/2 89/180/2 102/153/2 85/178/2
f 91/181/2 93/182/2 102/153/2 89/180/2
f 95/183/2 97/184/2 102/153/2 93/182/2
f 99/185/2 69/174/2 102/153/2 97/184/2
f 74/172/5 72/186/5 70/160/5 101/159/5
f 5/187/5 6/188/5 215/189/5 211/190/5
f 1/191/5 2/192/5 210/193/5 105/194/5
f 2/192/3 5/195/3 211/196/3 210/193/3
f 3/197/4 1/198/4 105/199/4 106/200/4
f 10/201/2 12/5/2 213/202/2 104/203/2
f 3/204/2 106/205/2 214/206/2 4/207/2
f 212/208/2 213/202/2 12/5/2 18/8/2
f 124/209/6 228/210/6 225/211/6 120/212/6
f 120/213/5 225/214/5 107/215/5 122/216/5
f 9/28/5 8/217/5 103/218/5 216/219/5
f 115/220/5 116/221/5 216/219/5 103/218/5
f 112/222/3 110/223/3 108/224/3 109/225/3
f 119/226/2 125/227/2 123/228/2 118/229/2
f 111/230/3 110/223/3 112/222/3 113/231/3
f 114/232/1 116/233/1 119/234/1 118/235/1
f 116/233/3 115/236/3 117/237/3 119/234/3
f 123/238/6 125/239/6 122/240/6 121/241/6
f 125/239/3 124/242/3 120/243/3 122/240/3
f 118/244/3 123/245/3 121/246/3 114/247/3
f 114/248/5 121/249/5 122/216/5 116/221/5
f 126/250/6 129/251/6 130/252/6 127/253/6
f 127/254/4 130/255/4 128/256/4 131/257/4
f 131/257/1 128/256/1 133/258/1 132/259/1
f 132/259/3 133/258/3 129/251/3 126/250/3
f 134/260/6 137/261/6 138/262/6 135/263/6
f 135/264/4 138/265/4 136/266/4 139/267/4
f 139/267/1 136/266/1 141/268/1 140/269/1
f 140/269/3 141/268/3 137/261/3 134/260/3
f 142/270/4 144/271/15 145/272/15 143/273/4
f 144/271/15 146/274/14 147/275/14 145/272/15
f 146/274/14 148/276/13 149/277/13 147/275/14
f 148/276/13 150/278/1 151/279/1 149/277/13
f 150/278/1 152/280/12 153/281/12 151/279/1
f 152/280/12 154/282/11 155/283/11 153/281/12
f 154/282/11 156/284/10 157/285/10 155/283/11
f 156/284/10 158/286/3 159/287/3 157/285/10
f 158/286/3 160/288/9 161/289/9 159/287/3
f 160/288/9 162/290/8 163/291/8 161/289/9
f 162/290/8 164/292/7 165/293/7 163/291/8
f 164/292/7 166/294/6 167/295/6 165/293/7
f 166/296/6 168/297/18 169/298/18 167/299/6
f 168/297/18 170/300/17 171/301/17 169/298/18
f 148/302/2 146/303/2 175/304/2 150/305/2
f 170/300/17 172/306/16 173/307/16 171/301/17
f 172/306/16 142/270/4 143/273/4 173/307/16
f 173/308/5 143/309/5 174/310/5 171/311/5
f 169/312/5 171/311/5 174/310/5 167/313/5
f 165/314/5 167/313/5 174/310/5 163/315/5
f 161/316/5 163/315/5 174/310/5 159/317/5
f 157/318/5 159/317/5 174/310/5 155/319/5
f 153/320/5 155/319/5 174/310/5 151/321/5
f 149/322/5 151/321/5 174/310/5 147/323/5
f 144/324/2 142/325/2 175/304/2 146/303/2
f 152/326/2 150/305/2 175/304/2 154/327/2
f 156/328/2 154/327/2 175/304/2 158/329/2
f 160/330/2 158/329/2 175/304/2 162/331/2
f 164/332/2 162/331/2 175/304/2 166/333/2
f 168/334/2 166/333/2 175/304/2 170/335/2
f 172/336/2 170/335/2 175/304/2 142/325/2
f 147/323/5 174/310/5 143/309/5 145/337/5
f 176/338/4 178/339/15 179/340/15 177/341/4
f 178/339/15 180/342/14 181/343/14 179/340/15
f 180/342/14 182/344/13 183/345/13 181/343/14
f 182/344/13 184/346/1 185/347/1 183/345/13
f 184/346/1 186/348/12 187/349/12 185/347/1
f 186/348/12 188/350/11 189/351/11 187/349/12
f 188/350/11 190/352/10 191/353/10 189/351/11
f 190/352/10 192/354/3 193/355/3 191/353/10
f 192/354/3 194/356/9 195/357/9 193/355/3
f 194/356/9 196/358/8 197/359/8 195/357/9
f 196/358/8 198/360/7 199/361/7 197/359/8
f 198/360/7 200/362/6 201/363/6 199/361/7
f 200/364/6 202/365/18 203/366/18 201/367/6
f 202/365/18 204/368/17 205/369/17 203/366/18
f 182/370/2 180/371/2 209/372/2 184/373/2
f 204/368/17 206/374/16 207/375/16 205/369/17
f 206/374/16 176/338/4 177/341/4 207/375/16
f 207/376/5 177/377/5 208/378/5 205/379/5
f 203/380/5 205/379/5 208/378/5 201/381/5
f 199/382/5 201/381/5 208/378/5 197/383/5
f 195/384/5 197/383/5 208/378/5 193/385/5
f 191/386/5 193/385/5 208/378/5 189/387/5
f 187/388/5 189/387/5 208/378/5 185/389/5
f 183/390/5 185/389/5 208/378/5 181/391/5
f 178/392/2 176/393/2 209/372/2 180/371/2
f 186/394/2 184/373/2 209/372/2 188/395/2
f 190/396/2 188/395/2 209/372/2 192/397/2
f 194/398/2 192/397/2 209/372/2 196/399/2
f 198/400/2 196/399/2 209/372/2 200/401/2
f 202/402/2 200/401/2 209/372/2 204/403/2
f 206/404/2 204/403/2 209/372/2 176/393/2
f 181/391/5 208/378/5 177/377/5 179/405/5
f 112/406/5 211/190/5 215/189/5 113/407/5
f 108/408/5 105/409/5 210/410/5 109/411/5
f 109/411/1 210/410/1 211/412/1 112/413/1
f 110/414/6 106/200/6 105/199/6 108/415/6
f 214/416/11 111/417/11 113/407/11 215/189/11
f 110/418/2 111/419/2 214/206/2 106/205/2
f 18/8/2 17/420/2 227/421/2 212/208/2
f 119/226/2 213/202/2 212/208/2 125/227/2
f 125/227/2 212/422/2 228/423/2 124/424/2
f 9/28/5 216/219/5 107/215/5 15/29/5
f 17/425/4 13/426/4 226/427/4 227/428/4
f 103/218/11 104/429/11 117/430/11 115/220/11
f 117/431/2 104/203/2 213/202/2 119/226/2
f 4/432/11 214/416/11 215/189/11 6/188/11
f 8/217/11 10/433/11 104/429/11 103/218/11
f 107/215/5 216/219/5 116/221/5 122/216/5
f 217/434/4 218/435/4 221/436/4 220/437/4
f 218/438/6 222/439/6 219/440/6 221/441/6
f 222/439/3 223/442/3 224/443/3 219/440/3
f 223/442/1 217/434/1 220/437/1 224/443/1
f 225/444/4 228/445/4 212/446/4 107/447/4
f 107/447/6 212/446/6 227/448/6 226/449/6
f 13/450/5 15/29/5 107/451/5 226/452/5
f 229/453/6 230/454/6 232/455/7 231/456/7
f 231/456/7 232/455/7 234/457/8 233/458/8
f 233/458/8 234/457/8 236/459/9 235/460/9
f 235/460/9 236/459/9 238/461/3 237/462/3
f 237/462/3 238/461/3 240/463/10 239/464/10
f 239/464/10 240/463/10 242/465/11 241/466/11
f 241/466/11 242/465/11 244/467/12 243/468/12
f 243/468/12 244/467/12 246/469/1 245/470/1
f 245/470/1 246/469/1 248/471/13 247/472/13
f 247/472/13 248/471/13 250/473/14 249/474/14
f 249/474/14 250/473/14 252/475/15 251/476/15
f 251/476/15 252/475/15 254/477/4 253/478/4
f 253/479/4 254/480/4 256/481/16 255/482/16
f 255/482/16 256/481/16 258/483/17 257/484/17
f 235/485/2 237/486/2 262/487/2 233/488/2
f 257/484/17 258/483/17 260/489/18 259/490/18
f 259/490/18 260/489/18 230/454/6 229/453/6
f 260/491/5 258/492/5 261/493/5 230/494/5
f 256/495/5 254/496/5 261/493/5 258/492/5
f 252/497/5 250/498/5 261/493/5 254/496/5
f 248/499/5 246/500/5 261/493/5 250/498/5
f 244/501/5 242/502/5 261/493/5 246/500/5
f 240/503/5 238/504/5 261/493/5 242/502/5
f 236/505/5 234/506/5 261/493/5 238/504/5
f 231/507/2 233/488/2 262/487/2 229/508/2
f 239/509/2 241/510/2 262/487/2 237/486/2
f 243/511/2 245/512/2 262/487/2 241/510/2
f 247/513/2 249/514/2 262/487/2 245/512/2
f 251/515/2 253/516/2 262/487/2 249/514/2
f 255/517/2 257/518/2 262/487/2 253/516/2
f 259/519/2 229/508/2 262/487/2 257/518/2
f 234/506/5 232/520/5 230/494/5 261/493/5
