# Blender 4.0.2
# www.blender.org
o garden_bench_01
v -0.530088 0.376496 -0.084898
v -0.530088 0.376496 0.247760
v -0.530088 0.374002 -0.084898
v 0.530088 0.376496 -0.084898
v 0.530088 0.376496 0.247760
v 0.530088 0.374002 -0.084898
v 0.530088 0.376496 -0.089742
v 0.530088 0.376496 -0.133331
v -0.530088 0.376496 -0.089742
v -0.530088 0.376496 -0.133331
v -0.530088 0.228585 -0.133331
v -0.530088 0.228585 0.198960
v 0.530088 0.228585 -0.133331
v 0.530088 0.228585 0.198960
v 0.530088 0.353620 0.260622
v 0.530088 0.354542 0.269714
v -0.530088 0.353620 0.260622
v -0.530088 0.354542 0.269714
v -0.530088 0.362944 0.268043
v -0.530088 0.370066 0.263284
v 0.530088 0.362944 0.268043
v 0.530088 0.370066 0.263284
v 0.530088 0.374825 0.256161
v -0.530088 0.374825 0.256162
v -0.545000 0.829538 -0.211291
v -0.545000 0.827989 -0.191970
v -0.545000 0.804335 -0.211291
v -0.529709 0.829538 -0.211291
v -0.529709 0.827989 -0.191970
v -0.529709 0.804335 -0.211291
v -0.529709 0.786860 -0.211291
v -0.529709 0.803824 -0.190183
v -0.529709 0.786728 -0.188918
v -0.529709 0.802768 -0.167518
v -0.529709 0.823893 -0.173981
v -0.529709 0.786454 -0.163950
v -0.529709 0.801664 -0.140838
v -0.529709 0.785718 -0.129460
v -0.529709 0.814314 -0.155624
v -0.545000 0.801664 -0.140838
v -0.545000 0.785718 -0.129460
v -0.545000 0.814314 -0.155624
v -0.545000 0.802768 -0.167518
v -0.545000 0.823893 -0.173981
v -0.545000 0.786454 -0.163950
v -0.545000 0.803824 -0.190183
v -0.545000 0.786728 -0.188918
v -0.545000 0.767438 -0.187492
v -0.545000 0.786860 -0.211291
v -0.545000 0.767438 -0.211291
v -0.545000 0.638771 -0.211291
v -0.529709 0.767438 -0.211291
v -0.529709 0.767438 -0.187492
v -0.529709 0.638771 -0.211291
v -0.529709 0.616984 -0.211291
v -0.529709 0.638771 -0.177545
v -0.529709 0.616984 -0.176365
v -0.529709 0.636546 -0.136992
v -0.529709 0.767438 -0.160307
v -0.529709 0.618151 -0.132688
v -0.529709 0.632932 -0.105597
v -0.529709 0.767438 -0.122061
v -0.529709 0.618814 -0.106998
v -0.545000 0.632932 -0.105597
v -0.545000 0.767438 -0.122061
v -0.545000 0.636546 -0.136992
v -0.545000 0.618814 -0.106998
v -0.545000 0.606415 -0.114728
v -0.545000 0.618151 -0.132688
v -0.545000 0.616984 -0.176365
v -0.545000 0.597113 -0.127093
v -0.545000 0.585950 -0.135651
v -0.529709 0.597113 -0.127093
v -0.529709 0.585950 -0.135651
v -0.529709 0.606415 -0.114728
v -0.529709 0.572039 -0.139034
v -0.529709 0.572039 -0.174355
v -0.529709 0.497719 -0.130317
v -0.545000 0.572039 -0.139034
v -0.545000 0.572039 -0.174355
v -0.545000 0.497719 -0.130317
v -0.545000 0.427235 -0.115265
v -0.545000 0.497719 -0.171367
v -0.545000 0.435249 -0.165650
v -0.545000 0.497719 -0.211291
v -0.545000 0.440741 -0.211291
v -0.545000 0.572039 -0.211291
v -0.529709 0.497719 -0.211291
v -0.529709 0.440741 -0.211291
v -0.529709 0.572039 -0.211291
v -0.529709 0.497719 -0.171367
v -0.529709 0.435249 -0.165650
v -0.529709 0.427235 -0.115266
v -0.529709 0.402487 -0.159326
v -0.529709 0.373737 -0.152334
v -0.529709 0.387774 -0.211291
v -0.529709 0.416577 -0.109468
v -0.529709 0.406332 -0.099138
v -0.545000 0.416577 -0.109468
v -0.545000 0.406332 -0.099138
v -0.545000 0.402487 -0.159326
v -0.545000 0.373737 -0.152334
v -0.545000 0.387774 -0.211291
v -0.545000 0.342117 -0.211291
v -0.545000 0.288058 -0.211291
v -0.529709 0.342117 -0.211291
v -0.529709 0.288058 -0.211291
v -0.529709 0.287730 -0.103207
v -0.529709 0.233564 -0.211291
v -0.529709 0.352527 -0.129251
v -0.529709 0.339953 -0.087846
v -0.529709 0.399370 -0.086260
v -0.529709 0.395095 -0.071625
v -0.545000 0.399370 -0.086260
v -0.545000 0.395095 -0.071625
v -0.545000 0.352527 -0.129251
v -0.545000 0.339953 -0.087846
v -0.545000 0.336466 0.014054
v -0.545000 0.287730 -0.103207
v -0.545000 0.287194 0.009525
v -0.545000 0.232794 -0.119367
v -0.545000 0.233564 -0.211291
v -0.545000 0.231002 -0.002212
v -0.545000 0.193755 -0.130851
v -0.545000 0.194794 -0.211291
v -0.545000 0.151580 -0.143257
v -0.545000 0.191516 -0.011292
v -0.545000 0.184165 0.070399
v -0.545000 0.151580 -0.014212
v -0.545000 0.157521 0.068398
v -0.545000 0.118815 -0.014212
v -0.545000 0.118815 -0.152896
v -0.545000 0.129196 0.068442
v -0.545000 0.076232 -0.014212
v -0.545000 0.076232 0.068588
v -0.545000 0.076232 -0.165422
v -0.545000 0.025262 -0.014212
v -0.545000 0.025262 0.068729
v -0.545000 0.025262 -0.167604
v -0.547644 0.025262 -0.014212
v -0.547644 0.000680 -0.014212
v -0.547644 0.025262 0.068729
v -0.547644 0.025262 -0.177219
v -0.547644 0.000680 -0.178530
v -0.527066 0.025262 -0.177219
v -0.527066 0.000680 -0.178530
v -0.527066 0.025262 -0.014212
v -0.529710 0.025262 -0.167604
v -0.529709 0.076232 -0.165422
v -0.529710 0.025262 -0.014212
v -0.529710 0.076232 -0.014212
v -0.529710 0.025262 0.068729
v -0.527066 0.025262 0.068729
v -0.529709 0.076232 0.068588
v -0.529710 0.025262 0.160708
v -0.529709 0.076232 0.135469
v -0.545000 0.025262 0.160708
v -0.527066 0.025262 0.165552
v -0.527066 0.000680 0.157166
v -0.547644 0.025262 0.165552
v -0.527066 0.024333 0.169172
v -0.527066 0.000680 0.166235
v -0.527066 0.021768 0.171079
v -0.547644 0.024333 0.169172
v -0.547644 0.000680 0.166235
v -0.547644 0.021768 0.171079
v -0.547644 0.000680 0.176902
v -0.527066 0.000680 0.176902
v -0.547644 0.000680 0.157166
v -0.547644 0.000680 0.068797
v -0.527066 0.000680 0.068797
v -0.527066 0.000680 -0.014212
v -0.545000 0.076232 0.135469
v -0.545000 0.146462 0.103746
v -0.545000 0.161246 0.103077
v -0.529709 0.146462 0.103746
v -0.529709 0.161246 0.103077
v -0.529709 0.129196 0.068442
v -0.529709 0.157521 0.068398
v -0.529709 0.118815 -0.014212
v -0.529709 0.118815 -0.152896
v -0.529709 0.151580 -0.014212
v -0.529709 0.151580 -0.143257
v -0.529709 0.191516 -0.011292
v -0.529709 0.184165 0.070399
v -0.529709 0.193755 -0.130851
v -0.529709 0.231002 -0.002212
v -0.529709 0.232794 -0.119367
v -0.529709 0.210976 0.081079
v -0.529709 0.287194 0.009525
v -0.529709 0.336466 0.014054
v -0.529709 0.286647 0.128209
v -0.529709 0.231973 0.097507
v -0.529709 0.242791 0.134843
v -0.529709 0.193555 0.125245
v -0.529709 0.199663 0.142822
v -0.529709 0.183281 0.113434
v -0.545000 0.193555 0.125245
v -0.545000 0.199663 0.142822
v -0.545000 0.183281 0.113434
v -0.545000 0.231973 0.097507
v -0.545000 0.210976 0.081079
v -0.545000 0.242791 0.134843
v -0.545000 0.242791 0.162519
v -0.545000 0.286647 0.128209
v -0.545000 0.333825 0.124156
v -0.545000 0.286308 0.163862
v -0.545000 0.333522 0.164483
v -0.545000 0.286239 0.195028
v -0.545000 0.333279 0.200705
v -0.545000 0.242791 0.190071
v -0.545000 0.286122 0.247638
v -0.545000 0.332356 0.267098
v -0.545000 0.242791 0.224479
v -0.529709 0.286122 0.247638
v -0.529709 0.332356 0.267098
v -0.529709 0.242791 0.224479
v -0.529709 0.286239 0.195028
v -0.529709 0.333279 0.200705
v -0.529709 0.242791 0.190071
v -0.529709 0.286308 0.163862
v -0.529709 0.333522 0.164483
v -0.529709 0.242791 0.162519
v -0.529709 0.203362 0.160399
v -0.529709 0.207441 0.178603
v -0.545000 0.203362 0.160399
v -0.545000 0.207441 0.178603
v -0.545000 0.212273 0.191653
v -0.545000 0.220688 0.204953
v -0.529709 0.212273 0.191653
v -0.529709 0.220688 0.204953
v -0.529709 0.231405 0.216480
v -0.545000 0.231405 0.216480
v -0.529709 0.333825 0.124156
v -0.529709 0.384799 0.165383
v -0.529709 0.383346 0.207057
v -0.529709 0.386393 0.121681
v -0.545000 0.384799 0.165383
v -0.545000 0.383346 0.207057
v -0.545000 0.386393 0.121681
v -0.545000 0.390573 0.021067
v -0.529709 0.390573 0.021067
v -0.545000 0.382057 0.244043
v -0.545000 0.381009 0.255444
v -0.529709 0.382057 0.244043
v -0.529709 0.381009 0.255444
v -0.529709 0.375706 0.266085
v -0.529709 0.365973 0.272543
v -0.545000 0.375706 0.266085
v -0.545000 0.365973 0.272543
v -0.545000 0.353293 0.273062
v -0.529709 0.353293 0.273062
v -0.545000 0.173136 0.106444
v -0.529709 0.173136 0.106444
v -0.529709 0.194794 -0.211291
v -0.529709 0.151580 -0.211291
v -0.529709 0.118815 -0.211291
v -0.545000 0.151580 -0.211291
v -0.545000 0.118815 -0.211291
v -0.545000 0.076232 -0.211291
v -0.529709 0.076232 -0.211291
v -0.545000 0.616984 -0.211291
v -0.545000 0.638771 -0.177545
v -0.545000 0.767438 -0.160307
v 0.545000 0.829538 -0.211291
v 0.545000 0.827989 -0.191970
v 0.545000 0.804335 -0.211291
v 0.529709 0.829538 -0.211291
v 0.529709 0.827989 -0.191970
v 0.529709 0.804335 -0.211291
v 0.529709 0.786860 -0.211291
v 0.529709 0.803824 -0.190183
v 0.529709 0.786728 -0.188918
v 0.529709 0.802768 -0.167518
v 0.529709 0.823893 -0.173981
v 0.529709 0.786454 -0.163950
v 0.529709 0.801664 -0.140838
v 0.529709 0.785718 -0.129460
v 0.529709 0.814314 -0.155624
v 0.545000 0.801664 -0.140838
v 0.545000 0.785718 -0.129460
v 0.545000 0.814314 -0.155624
v 0.545000 0.802768 -0.167518
v 0.545000 0.823893 -0.173981
v 0.545000 0.786454 -0.163950
v 0.545000 0.803824 -0.190183
v 0.545000 0.786728 -0.188918
v 0.545000 0.767438 -0.187492
v 0.545000 0.786860 -0.211291
v 0.545000 0.767438 -0.211291
v 0.545000 0.638771 -0.211291
v 0.529709 0.767438 -0.211291
v 0.529709 0.767438 -0.187492
v 0.529709 0.638771 -0.211291
v 0.529709 0.616984 -0.211291
v 0.529709 0.638771 -0.177545
v 0.529709 0.616984 -0.176365
v 0.529709 0.636546 -0.136992
v 0.529709 0.767438 -0.160308
v 0.529709 0.618151 -0.132688
v 0.529709 0.632932 -0.105597
v 0.529709 0.767438 -0.122061
v 0.529709 0.618814 -0.106999
v 0.545000 0.632932 -0.105597
v 0.545000 0.767438 -0.122061
v 0.545000 0.636546 -0.136992
v 0.545000 0.618814 -0.106999
v 0.545000 0.606415 -0.114728
v 0.545000 0.618151 -0.132688
v 0.545000 0.616984 -0.176365
v 0.545000 0.597113 -0.127093
v 0.545000 0.585950 -0.135651
v 0.529709 0.597113 -0.127093
v 0.529709 0.585950 -0.135651
v 0.529709 0.606415 -0.114728
v 0.529709 0.572039 -0.139035
v 0.529709 0.572039 -0.174355
v 0.529709 0.497719 -0.130317
v 0.545000 0.572039 -0.139035
v 0.545000 0.572039 -0.174355
v 0.545000 0.497719 -0.130317
v 0.545000 0.427235 -0.115266
v 0.545000 0.497719 -0.171367
v 0.545000 0.435249 -0.165650
v 0.545000 0.497719 -0.211291
v 0.545000 0.440741 -0.211291
v 0.545000 0.572039 -0.211291
v 0.529709 0.497719 -0.211291
v 0.529709 0.440741 -0.211291
v 0.529709 0.572039 -0.211291
v 0.529709 0.497719 -0.171367
v 0.529709 0.435249 -0.165650
v 0.529709 0.427235 -0.115266
v 0.529709 0.402487 -0.159326
v 0.529709 0.373737 -0.152334
v 0.529709 0.387774 -0.211291
v 0.529709 0.416577 -0.109468
v 0.529709 0.406332 -0.099138
v 0.545000 0.416577 -0.109468
v 0.545000 0.406332 -0.099138
v 0.545000 0.402487 -0.159326
v 0.545000 0.373737 -0.152334
v 0.545000 0.387774 -0.211291
v 0.545000 0.342117 -0.211291
v 0.545000 0.288058 -0.211291
v 0.529709 0.342117 -0.211291
v 0.529709 0.288058 -0.211291
v 0.529709 0.287730 -0.103208
v 0.529709 0.233564 -0.211291
v 0.529709 0.352527 -0.129251
v 0.529709 0.339953 -0.087846
v 0.529709 0.399370 -0.086260
v 0.529709 0.395095 -0.071625
v 0.545000 0.399370 -0.086260
v 0.545000 0.395095 -0.071625
v 0.545000 0.352527 -0.129251
v 0.545000 0.339953 -0.087846
v 0.545000 0.336466 0.014054
v 0.545000 0.287730 -0.103208
v 0.545000 0.287194 0.009524
v 0.545000 0.232794 -0.119368
v 0.545000 0.233564 -0.211291
v 0.545000 0.231002 -0.002212
v 0.545000 0.193755 -0.130851
v 0.545000 0.194794 -0.211291
v 0.545000 0.151580 -0.143258
v 0.545000 0.191516 -0.011292
v 0.545000 0.184165 0.070399
v 0.545000 0.151580 -0.014212
v 0.545000 0.157521 0.068398
v 0.545000 0.118815 -0.014212
v 0.545000 0.118815 -0.152896
v 0.545000 0.129196 0.068442
v 0.545000 0.076232 -0.014212
v 0.545000 0.076232 0.068588
v 0.545000 0.076232 -0.165422
v 0.545000 0.025262 -0.014212
v 0.545000 0.025262 0.068729
v 0.545000 0.025262 -0.167604
v 0.547644 0.025262 -0.014212
v 0.547644 0.000680 -0.014212
v 0.547644 0.025262 0.068729
v 0.547644 0.025262 -0.177219
v 0.547644 0.000680 -0.178530
v 0.527066 0.025262 -0.177219
v 0.527066 0.000680 -0.178530
v 0.527066 0.025262 -0.014212
v 0.529710 0.025262 -0.167604
v 0.529709 0.076232 -0.165422
v 0.529710 0.025262 -0.014212
v 0.529710 0.076232 -0.014212
v 0.529710 0.025262 0.068729
v 0.527066 0.025262 0.068729
v 0.529709 0.076232 0.068588
v 0.529710 0.025262 0.160707
v 0.529709 0.076232 0.135469
v 0.545000 0.025262 0.160707
v 0.527066 0.025262 0.165552
v 0.527066 0.000680 0.157166
v 0.547644 0.025262 0.165552
v 0.527066 0.024333 0.169171
v 0.527066 0.000680 0.166235
v 0.527066 0.021768 0.171079
v 0.547644 0.024333 0.169171
v 0.547644 0.000680 0.166235
v 0.547644 0.021768 0.171079
v 0.547644 0.000680 0.176902
v 0.527066 0.000680 0.176902
v 0.547644 0.000680 0.157166
v 0.547644 0.000680 0.068797
v 0.527066 0.000680 0.068797
v 0.527066 0.000680 -0.014212
v 0.545000 0.076232 0.135469
v 0.545000 0.146462 0.103746
v 0.545000 0.161246 0.103077
v 0.529709 0.146462 0.103746
v 0.529709 0.161246 0.103077
v 0.529709 0.129196 0.068442
v 0.529709 0.157521 0.068398
v 0.529709 0.118815 -0.014212
v 0.529709 0.118815 -0.152896
v 0.529709 0.151580 -0.014212
v 0.529709 0.151580 -0.143258
v 0.529709 0.191516 -0.011292
v 0.529709 0.184165 0.070399
v 0.529709 0.193755 -0.130851
v 0.529709 0.231002 -0.002212
v 0.529709 0.232794 -0.119368
v 0.529709 0.210976 0.081079
v 0.529709 0.287194 0.009524
v 0.529709 0.336466 0.014054
v 0.529709 0.286647 0.128209
v 0.529709 0.231973 0.097507
v 0.529709 0.242791 0.134843
v 0.529709 0.193555 0.125245
v 0.529709 0.199663 0.142822
v 0.529709 0.183281 0.113434
v 0.545000 0.193555 0.125245
v 0.545000 0.199663 0.142822
v 0.545000 0.183281 0.113434
v 0.545000 0.231973 0.097507
v 0.545000 0.210976 0.081079
v 0.545000 0.242791 0.134843
v 0.545000 0.242791 0.162519
v 0.545000 0.286647 0.128209
v 0.545000 0.333825 0.124155
v 0.545000 0.286308 0.163862
v 0.545000 0.333522 0.164483
v 0.545000 0.286239 0.195028
v 0.545000 0.333279 0.200705
v 0.545000 0.242791 0.190071
v 0.545000 0.286122 0.247638
v 0.545000 0.332356 0.267098
v 0.545000 0.242791 0.224479
v 0.529709 0.286122 0.247638
v 0.529709 0.332356 0.267098
v 0.529709 0.242791 0.224479
v 0.529709 0.286239 0.195028
v 0.529709 0.333279 0.200705
v 0.529709 0.242791 0.190071
v 0.529709 0.286308 0.163862
v 0.529709 0.333522 0.164483
v 0.529709 0.242791 0.162519
v 0.529709 0.203362 0.160399
v 0.529709 0.207441 0.178603
v 0.545000 0.203362 0.160399
v 0.545000 0.207441 0.178603
v 0.545000 0.212273 0.191652
v 0.545000 0.220688 0.204953
v 0.529709 0.212273 0.191652
v 0.529709 0.220688 0.204953
v 0.529709 0.231405 0.216480
v 0.545000 0.231405 0.216480
v 0.529709 0.333825 0.124155
v 0.529709 0.384799 0.165383
v 0.529709 0.383346 0.207057
v 0.529709 0.386393 0.121681
v 0.545000 0.384799 0.165383
v 0.545000 0.383346 0.207057
v 0.545000 0.386393 0.121681
v 0.545000 0.390573 0.021067
v 0.529709 0.390573 0.021067
v 0.545000 0.382057 0.244043
v 0.545000 0.381009 0.255444
v 0.529709 0.382057 0.244043
v 0.529709 0.381009 0.255444
v 0.529709 0.375706 0.266085
v 0.529709 0.365973 0.272543
v 0.545000 0.375706 0.266085
v 0.545000 0.365973 0.272543
v 0.545000 0.353293 0.273062
v 0.529709 0.353293 0.273062
v 0.545000 0.173136 0.106444
v 0.529709 0.173136 0.106444
v 0.529709 0.194794 -0.211291
v 0.529709 0.151580 -0.211291
v 0.529709 0.118815 -0.211291
v 0.545000 0.151580 -0.211291
v 0.545000 0.118815 -0.211291
v 0.545000 0.076232 -0.211291
v 0.529709 0.076232 -0.211291
v 0.545000 0.616984 -0.211291
v 0.545000 0.638771 -0.177545
v 0.545000 0.767438 -0.160308
v -0.530088 0.375107 -0.147804
v -0.507239 0.375107 -0.147804
v -0.530088 0.376913 -0.132621
v -0.530088 0.367867 -0.146943
v -0.507239 0.367867 -0.146943
v -0.530088 0.366982 -0.154379
v -0.507239 0.366982 -0.154379
v -0.530088 0.374222 -0.155240
v -0.507239 0.374222 -0.155240
v -0.530088 0.812502 -0.207373
v -0.530088 0.814136 -0.193637
v -0.507239 0.788108 -0.204471
v 0.530088 0.375107 -0.147804
v 0.507239 0.375107 -0.147804
v 0.530088 0.376913 -0.132621
v 0.530088 0.367867 -0.146943
v 0.507239 0.367867 -0.146943
v 0.530088 0.366982 -0.154379
v 0.507239 0.366982 -0.154379
v -0.507239 0.788992 -0.197036
v 0.530088 0.374222 -0.155240
v 0.507239 0.374222 -0.155240
v 0.530088 0.812502 -0.207373
v 0.530088 0.814136 -0.193637
v 0.507239 0.788108 -0.204471
v 0.507239 0.788992 -0.197036
v 0.530088 0.808847 -0.183999
v 0.530088 0.813024 -0.187135
v -0.530088 0.808847 -0.183999
v -0.530088 0.813024 -0.187135
v -0.507239 0.672282 -0.183153
v -0.507239 0.671397 -0.190589
v 0.507239 0.672282 -0.183153
v 0.507239 0.671397 -0.190589
v 0.507239 0.697875 -0.193738
v 0.507239 0.698760 -0.186303
v -0.507239 0.697875 -0.193738
v -0.507239 0.698760 -0.186303
v -0.507239 0.368091 -0.146970
v -0.507239 0.367206 -0.154405
v 0.507239 0.368091 -0.146970
v 0.507239 0.367206 -0.154405
v 0.507239 0.394554 -0.157659
v 0.507239 0.395438 -0.150223
v -0.507239 0.394554 -0.157658
v -0.507239 0.395438 -0.150223
v -0.507239 0.568810 -0.170845
v -0.507239 0.567926 -0.178281
v 0.507239 0.568810 -0.170845
v 0.507239 0.567926 -0.178281
v 0.507239 0.594404 -0.181431
v 0.507239 0.595288 -0.173995
v -0.507239 0.594404 -0.181430
v -0.507239 0.595288 -0.173995
v -0.507239 0.465339 -0.158537
v -0.507239 0.464455 -0.165973
v 0.507239 0.465339 -0.158538
v 0.507239 0.464455 -0.165973
v 0.507239 0.490933 -0.169123
v 0.507239 0.491817 -0.161687
v -0.507239 0.490933 -0.169123
v -0.507239 0.491817 -0.161687
v -0.530088 0.222287 -0.133331
v -0.530088 0.222287 -0.147909
v 0.530088 0.222287 -0.133331
v 0.530088 0.222287 -0.147909
v 0.530088 0.252711 -0.147909
v 0.530088 0.252711 -0.133331
v -0.530088 0.252711 -0.147909
v -0.530088 0.252711 -0.133331
v -0.530088 0.252711 -0.146165
v -0.530088 0.378719 -0.133331
v -0.530088 0.378719 -0.146165
v -0.507239 0.378719 -0.146165
v -0.507239 0.378719 -0.133331
v -0.507239 0.252711 -0.146165
v -0.507239 0.252711 -0.133331
v 0.530088 0.252711 -0.146165
v 0.530088 0.378719 -0.133331
v 0.530088 0.378719 -0.146165
v 0.507239 0.378719 -0.146165
v 0.507239 0.378719 -0.133331
v 0.507239 0.252711 -0.146165
v 0.507239 0.252711 -0.133331
v -0.000000 0.376496 -0.084898
v -0.000000 0.374002 -0.084898
v -0.000000 0.376496 -0.089742
v -0.000000 0.376496 -0.133331
v -0.000000 0.228585 -0.133331
v 0.000000 0.228585 0.198960
v 0.000000 0.353620 0.260622
v 0.000000 0.354542 0.269714
v 0.000000 0.362944 0.268043
v 0.000000 0.370066 0.263284
v 0.000000 0.374825 0.256162
v 0.000000 0.376496 0.247760
v -0.000000 0.812502 -0.207373
v -0.000000 0.788108 -0.204471
v -0.000000 0.788992 -0.197036
v -0.000000 0.375107 -0.147804
v -0.000000 0.376913 -0.132621
v -0.000000 0.808847 -0.183999
v -0.000000 0.813024 -0.187135
v -0.000000 0.814136 -0.193637
v -0.000000 0.672282 -0.183153
v -0.000000 0.671397 -0.190589
v -0.000000 0.697875 -0.193738
v -0.000000 0.698760 -0.186303
v -0.000000 0.368091 -0.146970
v -0.000000 0.367206 -0.154405
v -0.000000 0.394554 -0.157658
v -0.000000 0.395438 -0.150223
v -0.000000 0.568810 -0.170845
v -0.000000 0.567926 -0.178281
v -0.000000 0.594404 -0.181430
v -0.000000 0.595288 -0.173995
v -0.000000 0.465339 -0.158538
v -0.000000 0.464455 -0.165973
v -0.000000 0.490933 -0.169123
v -0.000000 0.491817 -0.161687
v -0.000000 0.222287 -0.133331
v -0.000000 0.222287 -0.147909
v -0.000000 0.252711 -0.147909
v -0.000000 0.252711 -0.133331
v -0.000000 0.376010 -0.140213
v -0.507315 0.376010 -0.140213
v 0.507281 0.376010 -0.140213
vn -0.0000 -0.0000 -1.0000
vn -0.0000 0.9885 0.1514
vn -0.0000 0.9968 0.0800
vn 1.0000 -0.0000 -0.0000
vn -1.0000 -0.0000 -0.0000
vn -0.0000 0.4813 0.8765
vn -0.0000 0.6753 0.7375
vn -0.0000 0.8285 0.5600
vn -0.0000 0.0114 0.9999
vn -0.0000 0.2505 0.9681
vn -0.0000 -0.3223 0.9466
vn -0.0000 -0.6755 0.7374
vn -0.0000 -0.4316 0.9020
vn -0.0000 -0.7103 0.7039
vn -0.0000 -0.0609 0.9981
vn -0.0000 0.1628 0.9867
vn -0.0000 0.3469 0.9379
vn -0.0000 0.6003 0.7998
vn -0.0000 0.8030 0.5959
vn -0.0000 0.9249 0.3801
vn -0.0000 0.9862 0.1657
vn -0.0000 1.0000 -0.0000
vn -0.0000 0.0533 -0.9986
vn -0.0000 0.0428 -0.9991
vn -0.0000 0.9921 0.1252
vn -0.0000 0.4437 0.8962
vn -0.0000 0.4278 0.9039
vn -0.0000 0.8302 0.5574
vn -0.0000 0.4389 0.8985
vn -0.0000 0.2661 0.9639
vn -0.0000 -1.0000 -0.0000
vn -0.0000 0.2326 0.9726
vn -0.0000 -0.1151 0.9933
vn -0.0000 -0.8652 0.5014
vn -0.0000 -0.9635 0.2676
vn -0.0000 -0.6662 0.7458
vn -0.0000 -0.4301 0.9028
vn -0.0000 -0.3315 0.9434
vn -0.0000 -0.5241 0.8517
vn -0.0000 -0.9772 0.2123
vn -0.0000 -0.9589 0.2836
vn -0.0000 -0.8963 0.4434
vn -0.0000 -0.7921 0.6104
vn -0.0000 -0.6572 0.7537
vn -0.0000 0.9994 0.0348
vn -0.0000 0.9994 0.0356
vn -0.0000 0.9992 0.0390
vn -0.0000 0.9990 0.0451
vn -0.0000 0.9980 0.0632
vn -0.0000 0.9619 0.2735
vn -0.0000 0.7494 0.6621
vn -0.0000 0.3083 0.9513
vn -0.0000 -0.1180 0.9930
vn -0.0000 -0.4256 0.9049
vn -0.0000 0.9385 0.3452
vn -0.0000 0.3720 0.9282
vn -0.0000 0.1181 0.9930
vn -0.0000 -0.1181 -0.9930
vn -0.0000 0.2662 0.9639
vn -0.0000 -0.1151 0.9934
vn -0.0000 -0.9930 0.1181
vn -0.0000 0.9930 -0.1181
vn -0.0000 -0.0000 1.0000
vn -0.0000 -0.9949 0.1009
vn -0.0000 0.8891 0.4578
vn -0.0000 0.9952 0.0980
vn -0.0000 -0.4423 0.8969
vn -0.0000 0.1951 0.9808
vn -0.0000 0.3827 0.9239
vn -0.0000 0.7071 0.7071
vn -0.0000 0.9239 0.3827
vn -0.0000 0.9997 0.0254
vn -0.0000 0.8535 0.5210
vt 0.246842 0.177793
vt 0.488776 0.177908
vt 0.488801 0.182104
vt 0.246842 0.182016
vt 0.004885 0.182104
vt 0.004910 0.177908
vt 0.617433 0.769074
vt 0.626414 0.769074
vt 0.626414 0.776159
vt 0.617433 0.776159
vt 0.715171 0.791439
vt 0.715171 0.803120
vt 0.706216 0.802402
vt 0.705387 0.791202
vt 0.251079 0.439934
vt 0.496771 0.439934
vt 0.496771 0.508491
vt 0.251079 0.508491
vt 0.235552 0.921326
vt 0.245335 0.921089
vt 0.244507 0.932288
vt 0.235552 0.933007
vt 0.630130 0.981678
vt 0.622034 0.981678
vt 0.622034 0.974594
vt 0.630130 0.974594
vt 0.235552 0.913226
vt 0.245922 0.913165
vt 0.255840 0.920599
vt 0.252845 0.930390
vt 0.257494 0.913038
vt 0.268206 0.920088
vt 0.273479 0.912697
vt 0.261353 0.925950
vt 0.484584 0.755073
vt 0.484584 0.762158
vt 0.475603 0.762158
vt 0.475603 0.755073
vt 0.717737 0.791439
vt 0.727520 0.791202
vt 0.726692 0.802402
vt 0.717737 0.803121
vt 0.641941 0.960592
vt 0.641941 0.967679
vt 0.630259 0.967679
vt 0.630259 0.960592
vt 0.229694 0.921325
vt 0.229694 0.933006
vt 0.220739 0.932289
vt 0.219911 0.921088
vt 0.622159 0.967679
vt 0.622159 0.960592
vt 0.229694 0.913226
vt 0.219325 0.913165
vt 0.212401 0.930390
vt 0.209406 0.920599
vt 0.207752 0.913038
vt 0.203893 0.925950
vt 0.197040 0.920088
vt 0.191766 0.912696
vt 0.520819 0.755073
vt 0.520819 0.762158
vt 0.511743 0.762158
vt 0.511743 0.755073
vt 0.502727 0.762158
vt 0.502727 0.755073
vt 0.750391 0.790202
vt 0.738025 0.790713
vt 0.739679 0.783152
vt 0.755664 0.782811
vt 0.735030 0.800504
vt 0.743537 0.796064
vt 0.728106 0.783278
vt 0.717737 0.783340
vt 0.717737 0.774338
vt 0.728767 0.774338
vt 0.741367 0.774338
vt 0.613156 0.967679
vt 0.613156 0.960592
vt 0.717737 0.714703
vt 0.733378 0.714703
vt 0.553518 0.967679
vt 0.553518 0.960592
vt 0.229694 0.904224
vt 0.218663 0.904224
vt 0.229694 0.844588
vt 0.214053 0.844588
vt 0.543419 0.967679
vt 0.543419 0.960592
vt 0.229694 0.834490
vt 0.213506 0.834490
vt 0.206064 0.904224
vt 0.195257 0.843557
vt 0.193263 0.835031
vt 0.188337 0.904224
vt 0.180706 0.841882
vt 0.181356 0.835339
vt 0.592744 0.755073
vt 0.592744 0.762158
vt 0.529957 0.762158
vt 0.529957 0.755073
vt 0.599317 0.755073
vt 0.599317 0.762158
vt 0.759093 0.774338
vt 0.752173 0.713672
vt 0.766724 0.711997
vt 0.754168 0.705146
vt 0.766075 0.705453
vt 0.606088 0.755073
vt 0.606088 0.762158
vt 0.756761 0.695395
vt 0.762492 0.699707
vt 0.733924 0.704605
vt 0.752795 0.690221
vt 0.619774 0.755073
vt 0.619774 0.762158
vt 0.613257 0.762158
vt 0.613257 0.755073
vt 0.190669 0.825280
vt 0.194636 0.820106
vt 0.184938 0.829592
vt 0.626408 0.755073
vt 0.626408 0.762158
vt 0.212574 0.813659
vt 0.196204 0.813659
vt 0.211190 0.779212
vt 0.192164 0.779213
vt 0.336845 0.928364
vt 0.336845 0.935451
vt 0.302161 0.935451
vt 0.302161 0.928364
vt 0.734856 0.683773
vt 0.751227 0.683773
vt 0.736241 0.649327
vt 0.755267 0.649327
vt 0.370252 0.928364
vt 0.370252 0.935451
vt 0.738890 0.620374
vt 0.762243 0.616660
vt 0.717737 0.649327
vt 0.717737 0.683773
vt 0.717737 0.622919
vt 0.488138 0.960592
vt 0.488138 0.967679
vt 0.461728 0.967679
vt 0.461728 0.960592
vt 0.522586 0.960592
vt 0.522586 0.967679
vt 0.229694 0.752805
vt 0.229694 0.779213
vt 0.208540 0.750259
vt 0.229694 0.813659
vt 0.185187 0.746544
vt 0.229694 0.728255
vt 0.205609 0.735074
vt 0.182500 0.741605
vt 0.202368 0.721748
vt 0.177713 0.736857
vt 0.229694 0.707093
vt 0.375875 0.928364
vt 0.375875 0.935451
vt 0.382619 0.928364
vt 0.382619 0.935451
vt 0.741822 0.605190
vt 0.764930 0.611720
vt 0.745063 0.591864
vt 0.769718 0.606971
vt 0.717737 0.598370
vt 0.717737 0.577208
vt 0.437177 0.967679
vt 0.437177 0.960592
vt 0.416015 0.967679
vt 0.416015 0.960592
vt 0.717737 0.552154
vt 0.755761 0.582034
vt 0.390958 0.967679
vt 0.390958 0.960592
vt 0.229694 0.682037
vt 0.191669 0.711918
vt 0.172479 0.706090
vt 0.179599 0.681886
vt 0.229694 0.656781
vt 0.187089 0.656424
vt 0.365699 0.967679
vt 0.365699 0.960592
vt 0.171744 0.733629
vt 0.164960 0.731648
vt 0.389404 0.928364
vt 0.389404 0.935451
vt 0.396472 0.928364
vt 0.396472 0.935451
vt 0.775686 0.603745
vt 0.774951 0.576206
vt 0.782470 0.601763
vt 0.767832 0.552002
vt 0.822181 0.574590
vt 0.825431 0.599667
vt 0.820081 0.551753
vt 0.717737 0.526896
vt 0.760342 0.526539
vt 0.814641 0.525709
vt 0.717737 0.508927
vt 0.755019 0.508445
vt 0.810433 0.507407
vt 0.717737 0.488898
vt 0.749269 0.488898
vt 0.809080 0.488898
vt 0.847368 0.491651
vt 0.848295 0.504001
vt 0.853245 0.516427
vt 0.744802 0.473712
vt 0.809080 0.473712
vt 0.847389 0.478524
vt 0.738997 0.453976
vt 0.809080 0.453976
vt 0.847456 0.453976
vt 0.809080 0.430352
vt 0.847521 0.430352
vt 0.737985 0.430352
vt 0.572367 0.747373
vt 0.572367 0.748602
vt 0.533891 0.748614
vt 0.533891 0.747388
vt 0.642929 0.747374
vt 0.647388 0.748603
vt 0.476376 0.680463
vt 0.475769 0.669072
vt 0.551910 0.669072
vt 0.551910 0.680462
vt 0.590375 0.669072
vt 0.590343 0.680462
vt 0.112583 0.803104
vt 0.112583 0.791698
vt 0.122118 0.791698
vt 0.122118 0.803104
vt 0.642930 0.740309
vt 0.647389 0.739080
vt 0.565080 0.662464
vt 0.565080 0.651073
vt 0.641223 0.651073
vt 0.640615 0.662464
vt 0.572369 0.740310
vt 0.572369 0.739081
vt 0.080528 0.920318
vt 0.080528 0.913227
vt 0.104184 0.913228
vt 0.104184 0.920318
vt 0.138351 0.583860
vt 0.138351 0.560236
vt 0.209446 0.560236
vt 0.208434 0.583860
vt 0.099974 0.583859
vt 0.099908 0.560235
vt 0.533891 0.740296
vt 0.533891 0.739070
vt 0.491224 0.740296
vt 0.488977 0.739069
vt 0.068975 0.583859
vt 0.057277 0.560235
vt 0.761862 0.935451
vt 0.735500 0.935451
vt 0.735500 0.928364
vt 0.761862 0.928364
vt 0.491224 0.747388
vt 0.488977 0.748615
vt 0.481463 0.651073
vt 0.485666 0.651073
vt 0.481780 0.662464
vt 0.480102 0.662034
vt 0.526615 0.651073
vt 0.526646 0.662464
vt 0.487243 0.748615
vt 0.487243 0.739069
vt 0.476521 0.651073
vt 0.479219 0.660845
vt 0.485760 0.748615
vt 0.485760 0.739069
vt 0.640468 0.669072
vt 0.637769 0.678844
vt 0.636886 0.680032
vt 0.635525 0.669072
vt 0.635208 0.680463
vt 0.631323 0.669072
vt 0.475611 0.748614
vt 0.475611 0.739069
vt 0.635460 0.705067
vt 0.640406 0.705067
vt 0.640406 0.714608
vt 0.635460 0.714608
vt 0.631255 0.705067
vt 0.631255 0.714608
vt 0.590283 0.705067
vt 0.590283 0.714608
vt 0.551795 0.714608
vt 0.551795 0.705067
vt 0.475609 0.714608
vt 0.475609 0.705067
vt 0.890152 0.430352
vt 0.878454 0.453975
vt 0.699780 0.935451
vt 0.699780 0.928364
vt 0.863751 0.486526
vt 0.692921 0.935451
vt 0.692921 0.928364
vt 0.863441 0.493378
vt 0.083988 0.623263
vt 0.083678 0.616410
vt 0.100041 0.608407
vt 0.100062 0.621535
vt 0.138351 0.603596
vt 0.138351 0.618782
vt 0.202629 0.603596
vt 0.198161 0.618782
vt 0.192411 0.638330
vt 0.136997 0.637292
vt 0.099134 0.633885
vt 0.132789 0.655593
vt 0.094185 0.646311
vt 0.127349 0.681637
vt 0.086570 0.656043
vt 0.125250 0.704474
vt 0.074219 0.703250
vt 0.072340 0.681384
vt 0.069265 0.661057
vt 0.073714 0.638237
vt 0.079188 0.633475
vt 0.065567 0.641068
vt 0.674227 0.928364
vt 0.674227 0.935451
vt 0.665602 0.935451
vt 0.665602 0.928364
vt 0.681483 0.928364
vt 0.681483 0.935451
vt 0.873716 0.508352
vt 0.881862 0.511184
vt 0.878164 0.531173
vt 0.860859 0.526159
vt 0.868242 0.503591
vt 0.875089 0.551499
vt 0.890009 0.512898
vt 0.890991 0.531173
vt 0.891614 0.551342
vt 0.873211 0.573366
vt 0.891902 0.573225
vt 0.906059 0.551311
vt 0.908690 0.573113
vt 0.903762 0.531173
vt 0.930443 0.551256
vt 0.939462 0.572685
vt 0.919709 0.531173
vt 0.598367 0.928364
vt 0.598367 0.935451
vt 0.575116 0.935451
vt 0.575116 0.928364
vt 0.621140 0.928364
vt 0.621140 0.935451
vt 0.038740 0.702997
vt 0.007967 0.702569
vt 0.016987 0.681141
vt 0.041370 0.681194
vt 0.027721 0.661057
vt 0.043668 0.661057
vt 0.055816 0.681227
vt 0.055528 0.703110
vt 0.056438 0.661057
vt 0.057421 0.642782
vt 0.048983 0.644673
vt 0.657277 0.928364
vt 0.657277 0.935451
vt 0.648630 0.935451
vt 0.648630 0.928364
vt 0.898446 0.514788
vt 0.642180 0.935451
vt 0.642180 0.928364
vt 0.904494 0.517028
vt 0.910659 0.520929
vt 0.634885 0.935451
vt 0.634885 0.928364
vt 0.036770 0.650812
vt 0.042935 0.646912
vt 0.627590 0.935451
vt 0.627590 0.928364
vt 0.031428 0.655779
vt 0.916001 0.525895
vt 0.075366 0.727614
vt 0.055111 0.726876
vt 0.035795 0.726203
vt 0.525759 0.928364
vt 0.525759 0.935451
vt 0.506431 0.935451
vt 0.506431 0.928364
vt 0.486161 0.935451
vt 0.486161 0.928364
vt 0.911634 0.596317
vt 0.892318 0.596991
vt 0.872063 0.597730
vt 0.439486 0.935451
vt 0.439486 0.928364
vt 0.121999 0.729552
vt 0.542912 0.928364
vt 0.542912 0.935451
vt 0.928777 0.595720
vt 0.548219 0.928364
vt 0.548219 0.935451
vt 0.938993 0.592777
vt 0.934060 0.595235
vt 0.018653 0.725605
vt 0.013369 0.725120
vt 0.008437 0.722661
vt 0.553730 0.928364
vt 0.553730 0.935451
vt 0.559144 0.928364
vt 0.559144 0.935451
vt 0.005443 0.718150
vt 0.005203 0.712273
vt 0.942226 0.582389
vt 0.941986 0.588266
vt 0.565026 0.928364
vt 0.565026 0.935451
vt 0.865002 0.498889
vt 0.687193 0.928364
vt 0.687193 0.935451
vt 0.082428 0.628773
vt 0.229694 0.638811
vt 0.229694 0.618782
vt 0.347729 0.967679
vt 0.347729 0.960592
vt 0.327698 0.967679
vt 0.327698 0.960592
vt 0.312511 0.967679
vt 0.312511 0.960592
vt 0.229694 0.603596
vt 0.717737 0.473712
vt 0.717737 0.453976
vt 0.292774 0.967679
vt 0.292774 0.960592
vt 0.101456 0.870492
vt 0.101456 0.877582
vt 0.080188 0.877582
vt 0.080188 0.870492
vt 0.229694 0.583860
vt 0.717737 0.704605
vt 0.493133 0.762158
vt 0.493133 0.755073
vt 0.553419 0.981678
vt 0.543324 0.981678
vt 0.543324 0.974594
vt 0.553419 0.974594
vt 0.581198 0.769074
vt 0.590275 0.769074
vt 0.590275 0.776159
vt 0.581198 0.776159
vt 0.599290 0.769074
vt 0.599290 0.776159
vt 0.682518 0.790201
vt 0.677245 0.782810
vt 0.693229 0.783152
vt 0.694883 0.790712
vt 0.697879 0.800503
vt 0.689371 0.796063
vt 0.251193 0.844590
vt 0.251740 0.834492
vt 0.271983 0.835033
vt 0.269988 0.843559
vt 0.704801 0.783278
vt 0.715171 0.774338
vt 0.715171 0.783340
vt 0.704140 0.774338
vt 0.691541 0.774338
vt 0.613035 0.981678
vt 0.613035 0.974594
vt 0.235553 0.844590
vt 0.246583 0.904224
vt 0.235552 0.904224
vt 0.235553 0.834493
vt 0.259182 0.904224
vt 0.276908 0.904224
vt 0.284539 0.841884
vt 0.747287 0.212336
vt 0.747287 0.012040
vt 0.991206 0.011915
vt 0.991334 0.212020
vt 0.283890 0.835340
vt 0.509274 0.769074
vt 0.572061 0.769074
vt 0.572061 0.776159
vt 0.509274 0.776159
vt 0.027001 0.743953
vt 0.037591 0.743953
vt 0.037591 0.937137
vt 0.027001 0.948523
vt 0.673815 0.774338
vt 0.666185 0.711999
vt 0.680736 0.713674
vt 0.502700 0.769074
vt 0.502700 0.776159
vt 0.666834 0.705456
vt 0.678741 0.705149
vt 0.495931 0.769074
vt 0.495931 0.776159
vt 0.113369 0.772181
vt 0.116750 0.772181
vt 0.116750 0.782775
vt 0.113369 0.782775
vt 0.699530 0.714706
vt 0.698984 0.704607
vt 0.676148 0.695398
vt 0.680114 0.690225
vt 0.488761 0.769074
vt 0.488761 0.776159
vt 0.270610 0.820109
vt 0.274576 0.825282
vt 0.475610 0.769074
vt 0.482244 0.769074
vt 0.482244 0.776159
vt 0.475610 0.776159
vt 0.252671 0.813661
vt 0.269042 0.813661
vt 0.057505 0.738843
vt 0.057505 0.742225
vt 0.054032 0.742225
vt 0.054032 0.738843
vt 0.254056 0.779215
vt 0.273082 0.779215
vt 0.327650 0.947288
vt 0.292974 0.947288
vt 0.292974 0.940202
vt 0.327650 0.940202
vt 0.694017 0.620380
vt 0.696667 0.649333
vt 0.677642 0.649333
vt 0.670666 0.616665
vt 0.535559 0.921425
vt 0.535559 0.910042
vt 0.781183 0.910042
vt 0.770596 0.921425
vt 0.698052 0.683776
vt 0.681682 0.683776
vt 0.715171 0.649333
vt 0.715171 0.683776
vt 0.361048 0.947288
vt 0.361048 0.940202
vt 0.715171 0.622925
vt 0.488064 0.981678
vt 0.461665 0.981678
vt 0.461665 0.974594
vt 0.488064 0.974594
vt 0.522499 0.981678
vt 0.522499 0.974594
vt 0.691087 0.605196
vt 0.667979 0.611726
vt 0.235553 0.779215
vt 0.235553 0.813661
vt 0.256706 0.750262
vt 0.280058 0.746547
vt 0.235552 0.752807
vt 0.235552 0.728258
vt 0.259637 0.735078
vt 0.715171 0.577216
vt 0.715171 0.598376
vt 0.687846 0.591871
vt 0.262877 0.721752
vt 0.287532 0.736859
vt 0.282745 0.741608
vt 0.235552 0.707097
vt 0.373412 0.947288
vt 0.366671 0.947288
vt 0.366671 0.940202
vt 0.373412 0.940202
vt 0.663191 0.606978
vt 0.437123 0.981678
vt 0.437123 0.974594
vt 0.415969 0.981678
vt 0.415969 0.974594
vt 0.715171 0.552161
vt 0.677147 0.582041
vt 0.387261 0.947288
vt 0.380196 0.947288
vt 0.380196 0.940202
vt 0.387261 0.940202
vt 0.390921 0.981678
vt 0.390921 0.974594
vt 0.235552 0.682042
vt 0.273576 0.711922
vt 0.285646 0.681890
vt 0.292766 0.706094
vt 0.235552 0.656785
vt 0.278157 0.656429
vt 0.365672 0.981678
vt 0.365672 0.974594
vt 0.293501 0.733633
vt 0.300284 0.731651
vt 0.657223 0.603751
vt 0.677889 0.508455
vt 0.672567 0.526548
vt 0.618269 0.525718
vt 0.622478 0.507417
vt 0.650440 0.601769
vt 0.657958 0.576213
vt 0.665078 0.552010
vt 0.371060 0.646316
vt 0.386055 0.633480
vt 0.391530 0.638242
vt 0.378674 0.656048
vt 0.607481 0.599674
vt 0.610731 0.574597
vt 0.623831 0.488908
vt 0.623831 0.473723
vt 0.688106 0.473723
vt 0.683639 0.488908
vt 0.715171 0.526905
vt 0.612830 0.551761
vt 0.715171 0.508936
vt 0.715171 0.488908
vt 0.585544 0.491662
vt 0.584617 0.504010
vt 0.579667 0.516437
vt 0.429447 0.726205
vt 0.426504 0.703001
vt 0.457275 0.702573
vt 0.446590 0.725609
vt 0.585523 0.478534
vt 0.623831 0.453987
vt 0.693912 0.453987
vt 0.585455 0.453987
vt 0.585390 0.430364
vt 0.623831 0.430364
vt 0.715171 0.704607
vt 0.715171 0.714706
vt 0.694923 0.430364
vt 0.557823 0.551508
vt 0.559702 0.573373
vt 0.541012 0.573233
vt 0.541300 0.551350
vt 0.065571 0.813700
vt 0.065556 0.852200
vt 0.064329 0.852199
vt 0.064341 0.813700
vt 0.065570 0.743097
vt 0.064340 0.738636
vt 0.476375 0.687072
vt 0.551913 0.687072
vt 0.551913 0.698463
vt 0.475767 0.698463
vt 0.113365 0.765718
vt 0.113365 0.756181
vt 0.124775 0.756181
vt 0.124775 0.765718
vt 0.590348 0.687072
vt 0.590380 0.698463
vt 0.072640 0.743096
vt 0.073869 0.738634
vt 0.565101 0.633070
vt 0.640645 0.633070
vt 0.641253 0.644462
vt 0.565101 0.644462
vt 0.072639 0.813698
vt 0.073868 0.813698
vt 0.103661 0.905358
vt 0.080025 0.905358
vt 0.080025 0.898274
vt 0.103661 0.898274
vt 0.640315 0.730609
vt 0.564171 0.730608
vt 0.564171 0.721073
vt 0.640315 0.721073
vt 0.326894 0.583865
vt 0.256811 0.583865
vt 0.255800 0.560242
vt 0.326894 0.560242
vt 0.365269 0.583865
vt 0.365336 0.560242
vt 0.072653 0.852199
vt 0.073880 0.852199
vt 0.569161 0.486536
vt 0.554459 0.453987
vt 0.407966 0.560242
vt 0.396268 0.583865
vt 0.752570 0.940202
vt 0.752570 0.947288
vt 0.726213 0.947288
vt 0.726213 0.940202
vt 0.072653 0.894890
vt 0.073880 0.897139
vt 0.481473 0.644463
vt 0.480112 0.633500
vt 0.481789 0.633070
vt 0.485676 0.644463
vt 0.065556 0.894891
vt 0.064329 0.897139
vt 0.073880 0.898873
vt 0.064329 0.898873
vt 0.526662 0.633070
vt 0.526630 0.644462
vt 0.381565 0.616416
vt 0.365203 0.608413
vt 0.073880 0.900357
vt 0.064329 0.900357
vt 0.542761 0.430364
vt 0.640476 0.698463
vt 0.635533 0.698463
vt 0.636894 0.687503
vt 0.637778 0.688691
vt 0.631331 0.698463
vt 0.635217 0.687072
vt 0.484755 0.721073
vt 0.484755 0.730608
vt 0.480552 0.730608
vt 0.480552 0.721073
vt 0.064329 0.910512
vt 0.073880 0.910512
vt 0.525704 0.721073
vt 0.525704 0.730608
vt 0.475609 0.730608
vt 0.475609 0.721073
vt 0.690502 0.947288
vt 0.690502 0.940202
vt 0.569471 0.493389
vt 0.381255 0.623267
vt 0.365182 0.621540
vt 0.683644 0.947288
vt 0.683644 0.940202
vt 0.476529 0.644463
vt 0.479228 0.634689
vt 0.326894 0.618787
vt 0.326894 0.603601
vt 0.267084 0.618787
vt 0.262617 0.603601
vt 0.328247 0.637297
vt 0.272834 0.638335
vt 0.366109 0.633890
vt 0.332456 0.655597
vt 0.337895 0.681641
vt 0.339995 0.704478
vt 0.395978 0.661062
vt 0.392903 0.681388
vt 0.391025 0.703254
vt 0.664954 0.947288
vt 0.656331 0.947288
vt 0.656331 0.940202
vt 0.664954 0.940202
vt 0.399676 0.641073
vt 0.672208 0.947288
vt 0.672209 0.940202
vt 0.572052 0.526168
vt 0.559197 0.508362
vt 0.564671 0.503601
vt 0.554749 0.531182
vt 0.551051 0.511194
vt 0.476931 0.947288
vt 0.430266 0.947287
vt 0.430266 0.940202
vt 0.476931 0.940202
vt 0.541922 0.531182
vt 0.542904 0.512908
vt 0.524224 0.573120
vt 0.493453 0.572692
vt 0.502472 0.551264
vt 0.526855 0.551318
vt 0.529152 0.531182
vt 0.513206 0.531182
vt 0.421575 0.661062
vt 0.416260 0.644678
vt 0.422308 0.646917
vt 0.428473 0.650817
vt 0.611879 0.947288
vt 0.589112 0.947288
vt 0.589112 0.940202
vt 0.611879 0.940202
vt 0.423873 0.681199
vt 0.448256 0.681145
vt 0.565867 0.947288
vt 0.565867 0.940202
vt 0.437522 0.661062
vt 0.409428 0.681231
vt 0.409715 0.703114
vt 0.408805 0.661062
vt 0.407823 0.642787
vt 0.648008 0.947288
vt 0.639363 0.947288
vt 0.639363 0.940202
vt 0.648008 0.940202
vt 0.534468 0.514798
vt 0.632915 0.947288
vt 0.632915 0.940202
vt 0.522256 0.520938
vt 0.528420 0.517038
vt 0.625621 0.947288
vt 0.625621 0.940202
vt 0.433815 0.655784
vt 0.618328 0.947288
vt 0.618328 0.940202
vt 0.516913 0.525905
vt 0.410132 0.726879
vt 0.389878 0.727618
vt 0.516520 0.947287
vt 0.497196 0.947287
vt 0.497196 0.940202
vt 0.516520 0.940202
vt 0.560849 0.597737
vt 0.540595 0.596998
vt 0.521280 0.596324
vt 0.343245 0.729556
vt 0.533670 0.947287
vt 0.533670 0.940202
vt 0.538975 0.947287
vt 0.538975 0.940202
vt 0.504138 0.595727
vt 0.498855 0.595241
vt 0.493923 0.592783
vt 0.456806 0.722665
vt 0.451874 0.725123
vt 0.460039 0.712277
vt 0.459798 0.718154
vt 0.490930 0.588272
vt 0.490689 0.582396
vt 0.549897 0.947287
vt 0.544485 0.947287
vt 0.544485 0.940202
vt 0.549897 0.940202
vt 0.555778 0.947287
vt 0.555778 0.940202
vt 0.567911 0.498899
vt 0.677917 0.947288
vt 0.677917 0.940202
vt 0.382816 0.628778
vt 0.235552 0.618787
vt 0.235552 0.638816
vt 0.347709 0.981678
vt 0.347709 0.974594
vt 0.327686 0.981678
vt 0.327686 0.974594
vt 0.235552 0.603601
vt 0.312505 0.981678
vt 0.292775 0.981678
vt 0.292775 0.974594
vt 0.312505 0.974594
vt 0.080183 0.884498
vt 0.101441 0.884498
vt 0.101441 0.891584
vt 0.080183 0.891584
vt 0.715170 0.453987
vt 0.715170 0.473723
vt 0.235552 0.583865
vt 0.608884 0.769074
vt 0.608884 0.776159
vt 0.120222 0.772181
vt 0.120222 0.782775
vt 0.027001 0.740574
vt 0.037591 0.740573
vt 0.738430 0.232881
vt 0.738430 0.426060
vt 0.503336 0.426060
vt 0.503336 0.232881
vt 0.516756 0.884363
vt 0.516756 0.888338
vt 0.289020 0.888541
vt 0.289022 0.884569
vt 0.057505 0.935539
vt 0.054032 0.935539
vt 0.280307 0.829594
vt 0.670417 0.699709
vt 0.516732 0.862966
vt 0.516732 0.858992
vt 0.744480 0.858787
vt 0.744478 0.862764
vt 0.123954 0.749027
vt 0.113373 0.749027
vt 0.113373 0.745651
vt 0.123954 0.745651
vt 0.113373 0.742183
vt 0.123954 0.742183
vt 0.009491 0.944481
vt 0.020079 0.944481
vt 0.020079 0.947860
vt 0.009491 0.947860
vt 0.009491 0.739940
vt 0.020079 0.751325
vt 0.516756 0.900309
vt 0.289032 0.900512
vt 0.300523 0.921425
vt 0.289936 0.910042
vt 0.516576 0.806619
vt 0.516576 0.810597
vt 0.288662 0.810800
vt 0.288664 0.806826
vt 0.516576 0.822971
vt 0.516577 0.826950
vt 0.288672 0.827152
vt 0.288674 0.823174
vt 0.973525 0.232881
vt 0.973525 0.426059
vt 0.044027 0.932648
vt 0.044027 0.739347
vt 0.047500 0.739347
vt 0.047500 0.932648
vt 0.516723 0.849159
vt 0.516723 0.837186
vt 0.744487 0.836982
vt 0.744498 0.848956
vt 0.516723 0.833210
vt 0.744489 0.833007
vt 0.516732 0.878914
vt 0.516732 0.874939
vt 0.744488 0.874736
vt 0.744487 0.878707
vt 0.503242 0.212019
vt 0.503371 0.011915
vt 0.251283 0.513964
vt 0.496971 0.513964
vt 0.496971 0.520720
vt 0.251283 0.520720
vt 0.251283 0.534820
vt 0.496971 0.534821
vt 0.047500 0.936030
vt 0.044027 0.936030
vt 0.744490 0.884569
vt 0.744492 0.888540
vt 0.744481 0.900512
vt 0.744483 0.904486
vt 0.516756 0.904283
vt 0.744490 0.806826
vt 0.744492 0.810800
vt 0.744481 0.823175
vt 0.744483 0.827153
vt 0.516723 0.853135
vt 0.288950 0.852927
vt 0.288947 0.848956
vt 0.288958 0.836982
vt 0.288957 0.833006
vt 0.288977 0.878707
vt 0.288975 0.874736
vt 0.288985 0.862764
vt 0.288984 0.858787
vt 0.251283 0.541577
vt 0.251283 0.555677
vt 0.005601 0.555676
vt 0.005601 0.541576
vt 0.488779 0.004885
vt 0.488779 0.009108
vt 0.246842 0.009165
vt 0.246842 0.004942
vt 0.005601 0.534820
vt 0.005601 0.520720
vt 0.005601 0.513964
vt 0.096642 0.804741
vt 0.102590 0.804741
vt 0.102590 0.863147
vt 0.096642 0.863147
vt 0.086052 0.804741
vt 0.086052 0.863147
vt 0.080103 0.804741
vt 0.080103 0.863147
vt 0.488784 0.186301
vt 0.488779 0.206196
vt 0.246842 0.206134
vt 0.246842 0.186239
vt 0.488772 0.025992
vt 0.246842 0.026057
vt 0.496954 0.369941
vt 0.496954 0.434554
vt 0.251275 0.434554
vt 0.251275 0.369941
vt 0.496861 0.211353
vt 0.496861 0.365360
vt 0.251179 0.365360
vt 0.251179 0.211353
vt 0.488777 0.013329
vt 0.246842 0.013388
vt 0.488776 0.017550
vt 0.246842 0.017611
vt 0.488774 0.021771
vt 0.246842 0.021834
vt 0.991318 0.220522
vt 0.991327 0.226890
vt 0.747287 0.227223
vt 0.747287 0.220855
vt 0.724763 0.951014
vt 0.724763 0.954786
vt 0.508639 0.955346
vt 0.508639 0.951573
vt 0.747287 0.008522
vt 0.980709 0.008403
vt 0.991323 0.216269
vt 0.747287 0.216596
vt 0.496971 0.541577
vt 0.080163 0.797525
vt 0.080163 0.739126
vt 0.086111 0.739126
vt 0.086111 0.797525
vt 0.096700 0.739126
vt 0.096700 0.797525
vt 0.102648 0.739126
vt 0.102648 0.797525
vt 0.503252 0.216268
vt 0.503257 0.220521
vt 0.496971 0.555678
vt 0.744496 0.852928
vt 0.292518 0.951013
vt 0.292518 0.954786
vt 0.503249 0.226889
vt 0.289029 0.904487
vt 0.004911 0.021771
vt 0.004913 0.025992
vt 0.004910 0.017550
vt 0.004908 0.013329
vt 0.004907 0.009108
vt 0.004907 0.004885
vt 0.005597 0.369941
vt 0.005597 0.434554
vt 0.005498 0.211353
vt 0.005498 0.365360
vt 0.641808 0.981678
vt 0.641808 0.974594
vt 0.004901 0.186301
vt 0.004906 0.206195
vt 0.005387 0.508491
vt 0.005387 0.439934
vt 0.513888 0.004885
vt 0.747287 0.005004
vt 0.513851 0.008403
vt 0.980688 0.004885
vt 0.503374 0.004879
vt 0.991202 0.004879
s 1
f 589/1/1 4/2/1 6/3/1 590/4/1
f 589/1/1 590/4/1 3/5/1 1/6/1
f 266/7/2 265/8/3 268/9/3 269/10/2
f 267/11/4 265/12/4 266/13/4 286/14/4
s 0
f 593/15/1 11/16/1 10/17/1 592/18/1
s 1
f 270/19/5 272/20/5 269/21/5 268/22/5
f 267/23/1 289/24/1 271/25/1 270/26/1
f 271/27/5 273/28/5 272/20/5 270/19/5
f 272/20/5 274/29/5 275/30/5 269/21/5
f 273/28/5 276/31/5 274/29/5 272/20/5
f 277/32/5 274/29/5 276/31/5 278/33/5
f 275/30/5 274/29/5 277/32/5 279/34/5
f 26/35/2 29/36/2 28/37/3 25/38/3
f 27/39/5 46/40/5 26/41/5 25/42/5
f 25/43/1 28/44/1 30/45/1 27/46/1
f 30/47/4 28/48/4 29/49/4 32/50/4
f 27/46/1 30/45/1 31/51/1 49/52/1
f 31/53/4 30/47/4 32/50/4 33/54/4
f 32/50/4 29/49/4 35/55/4 34/56/4
f 33/54/4 32/50/4 34/56/4 36/57/4
f 35/55/4 39/58/4 37/59/4 34/56/4
f 37/59/4 38/60/4 36/57/4 34/56/4
f 41/61/6 38/62/6 37/63/7 40/64/7
f 40/64/7 37/63/7 39/65/8 42/66/8
f 40/67/5 43/68/5 45/69/5 41/70/5
f 44/71/5 43/68/5 40/67/5 42/72/5
f 46/40/5 43/68/5 44/71/5 26/41/5
f 47/73/5 45/69/5 43/68/5 46/40/5
f 49/74/5 47/73/5 46/40/5 27/39/5
f 50/75/5 48/76/5 47/73/5 49/74/5
f 48/76/5 264/77/5 45/69/5 47/73/5
f 49/52/1 31/51/1 52/78/1 50/79/1
f 51/80/5 263/81/5 48/76/5 50/75/5
f 50/79/1 52/78/1 54/82/1 51/83/1
f 52/84/4 31/53/4 33/54/4 53/85/4
f 54/86/4 52/84/4 53/85/4 56/87/4
f 51/83/1 54/82/1 55/88/1 262/89/1
f 55/90/4 54/86/4 56/87/4 57/91/4
f 56/87/4 53/85/4 59/92/4 58/93/4
f 56/87/4 58/93/4 60/94/4 57/91/4
f 62/95/4 61/96/4 58/93/4 59/92/4
f 61/96/4 63/97/4 60/94/4 58/93/4
f 64/98/9 61/99/9 62/100/10 65/101/10
f 67/102/11 63/103/11 61/99/9 64/98/9
f 65/104/5 264/77/5 66/105/5 64/106/5
f 64/106/5 66/105/5 69/107/5 67/108/5
f 68/109/12 75/110/12 63/103/11 67/102/11
f 67/108/5 69/107/5 71/111/5 68/112/5
f 263/81/5 70/113/5 69/107/5 66/105/5
f 70/113/5 72/114/5 71/111/5 69/107/5
f 72/115/13 74/116/13 73/117/14 71/118/14
f 71/118/14 73/117/14 75/110/12 68/109/12
f 57/91/4 60/94/4 73/119/4 74/120/4
f 63/97/4 75/121/4 73/119/4 60/94/4
f 79/122/15 76/123/15 74/116/13 72/115/13
f 77/124/4 57/91/4 74/120/4 76/125/4
f 91/126/4 77/124/4 76/125/4 78/127/4
f 81/128/16 78/129/16 76/130/15 79/131/15
f 80/132/5 79/133/5 72/114/5 70/113/5
f 83/134/5 81/135/5 79/133/5 80/132/5
f 82/136/17 93/137/17 78/129/16 81/128/16
f 84/138/5 82/139/5 81/135/5 83/134/5
f 85/140/5 83/134/5 80/132/5 87/141/5
f 86/142/5 84/138/5 83/134/5 85/140/5
f 85/143/1 88/144/1 89/145/1 86/146/1
f 87/147/1 90/148/1 88/144/1 85/143/1
f 89/149/4 88/150/4 91/126/4 92/151/4
f 88/150/4 90/152/4 77/124/4 91/126/4
f 92/151/4 91/126/4 78/127/4 93/153/4
f 96/154/4 89/149/4 92/151/4 94/155/4
f 94/155/4 92/151/4 93/153/4 97/156/4
f 95/157/4 94/155/4 97/156/4 98/158/4
f 106/159/4 96/154/4 94/155/4 95/157/4
f 99/160/18 97/161/18 93/137/17 82/136/17
f 100/162/19 98/163/19 97/161/18 99/160/18
f 101/164/5 99/165/5 82/139/5 84/138/5
f 102/166/5 100/167/5 99/165/5 101/164/5
f 103/168/5 101/164/5 84/138/5 86/142/5
f 104/169/5 102/166/5 101/164/5 103/168/5
f 86/146/1 89/145/1 96/170/1 103/171/1
f 103/171/1 96/170/1 106/172/1 104/173/1
f 105/174/5 116/175/5 102/166/5 104/169/5
f 104/173/1 106/172/1 107/176/1 105/177/1
f 107/178/4 106/159/4 95/157/4 110/179/4
f 107/178/4 110/179/4 111/180/4 108/181/4
f 109/182/4 107/178/4 108/181/4 188/183/4
f 105/177/1 107/176/1 109/184/1 122/185/1
f 110/179/4 112/186/4 113/187/4 111/180/4
f 112/186/4 110/179/4 95/157/4 98/158/4
f 114/188/20 112/189/20 98/163/19 100/162/19
f 115/190/21 113/191/21 112/189/20 114/188/20
f 114/192/5 100/167/5 102/166/5 116/175/5
f 116/175/5 117/193/5 115/194/5 114/192/5
f 105/174/5 119/195/5 117/193/5 116/175/5
f 117/193/5 118/196/5 241/197/5 115/194/5
f 120/198/5 118/196/5 117/193/5 119/195/5
f 122/199/5 121/200/5 119/195/5 105/174/5
f 120/198/5 119/195/5 121/200/5 123/201/5
f 125/202/5 124/203/5 121/200/5 122/199/5
f 124/203/5 127/204/5 123/201/5 121/200/5
f 258/205/5 126/206/5 124/203/5 125/202/5
f 129/207/5 127/204/5 124/203/5 126/206/5
f 130/208/5 128/209/5 127/204/5 129/207/5
f 127/204/5 128/209/5 202/210/5 123/201/5
f 129/207/5 126/206/5 132/211/5 131/212/5
f 130/208/5 129/207/5 131/212/5 133/213/5
f 131/212/5 132/211/5 136/214/5 134/215/5
f 133/213/5 131/212/5 134/215/5 135/216/5
f 135/216/5 134/215/5 137/217/5 138/218/5
f 134/215/5 136/214/5 139/219/5 137/217/5
f 137/220/22 140/221/22 142/222/22 138/223/22
f 139/224/22 143/225/22 140/221/22 137/220/22
f 143/226/5 144/227/5 141/228/5 140/229/5
f 140/229/5 141/228/5 170/230/5 142/231/5
f 145/232/23 146/233/23 144/234/23 143/235/23
f 148/236/22 145/237/22 143/225/22 139/224/22
f 147/238/4 172/239/4 146/240/4 145/241/4
f 150/242/22 147/243/22 145/237/22 148/236/22
f 136/244/24 149/245/24 148/246/24 139/247/24
f 151/248/4 150/249/4 148/250/4 149/251/4
f 154/252/4 152/253/4 150/249/4 151/248/4
f 152/254/22 153/255/22 147/243/22 150/242/22
f 155/256/22 158/257/25 153/255/22 152/254/22
f 152/253/4 154/252/4 156/258/4 155/259/4
f 155/260/26 156/261/27 173/262/27 157/263/26
f 157/264/22 160/265/25 158/257/25 155/256/22
f 162/266/4 159/267/4 158/268/4 161/269/4
f 159/267/4 171/270/4 153/271/4 158/268/4
f 160/265/25 164/272/28 161/273/28 158/257/25
f 168/274/4 162/266/4 161/269/4 163/275/4
f 164/272/28 166/276/29 163/277/29 161/273/28
f 167/278/5 166/279/5 164/280/5 165/281/5
f 165/281/5 164/280/5 160/282/5 169/283/5
f 167/284/30 168/285/30 163/277/29 166/276/29
f 162/286/31 168/287/31 167/288/31 165/289/31
f 159/290/31 162/286/31 165/289/31 169/291/31
f 169/283/5 160/282/5 142/231/5 170/230/5
f 171/292/31 159/290/31 169/291/31 170/293/31
f 171/292/31 170/293/31 141/294/31 172/295/31
f 153/271/4 171/270/4 172/239/4 147/238/4
f 144/296/31 146/297/31 172/295/31 141/294/31
f 138/223/22 142/222/22 160/265/25 157/264/22
f 157/298/5 173/299/5 135/216/5 138/218/5
f 173/262/27 156/261/27 176/300/32 174/301/32
f 135/216/5 173/299/5 174/302/5 133/213/5
f 174/301/32 176/300/32 177/303/33 175/304/33
f 175/305/5 130/208/5 133/213/5 174/302/5
f 177/306/4 176/307/4 178/308/4 179/309/4
f 154/252/4 178/308/4 176/307/4 156/258/4
f 179/309/4 178/308/4 180/310/4 182/311/4
f 178/308/4 154/252/4 151/248/4 180/310/4
f 180/310/4 151/248/4 149/251/4 181/312/4
f 182/311/4 180/310/4 181/312/4 183/313/4
f 182/311/4 183/313/4 186/314/4 184/315/4
f 179/309/4 182/311/4 184/315/4 185/316/4
f 184/315/4 187/317/4 189/318/4 185/316/4
f 186/314/4 188/183/4 187/317/4 184/315/4
f 190/319/4 187/317/4 188/183/4 108/181/4
f 193/320/4 189/318/4 187/317/4 190/319/4
f 190/319/4 108/181/4 111/180/4 191/321/4
f 234/322/4 192/323/4 190/319/4 191/321/4
f 193/320/4 190/319/4 192/323/4 194/324/4
f 189/318/4 193/320/4 195/325/4 197/326/4
f 195/325/4 193/320/4 194/324/4 196/327/4
f 198/328/34 195/329/34 196/330/35 199/331/35
f 200/332/36 197/333/36 195/329/34 198/328/34
f 198/334/5 199/335/5 203/336/5 201/337/5
f 202/210/5 200/338/5 198/334/5 201/337/5
f 201/337/5 120/198/5 123/201/5 202/210/5
f 201/337/5 203/336/5 205/339/5 120/198/5
f 199/335/5 226/340/5 204/341/5 203/336/5
f 203/336/5 204/341/5 207/342/5 205/339/5
f 206/343/5 118/196/5 120/198/5 205/339/5
f 205/339/5 207/342/5 208/344/5 206/343/5
f 207/342/5 209/345/5 210/346/5 208/344/5
f 204/341/5 211/347/5 209/345/5 207/342/5
f 210/346/5 209/345/5 212/348/5 213/349/5
f 209/345/5 211/347/5 214/350/5 212/348/5
f 212/351/37 215/352/37 216/353/38 213/354/38
f 214/355/39 217/356/39 215/352/37 212/351/37
f 219/357/4 216/358/4 215/359/4 218/360/4
f 218/360/4 215/359/4 217/361/4 220/362/4
f 221/363/4 222/364/4 219/357/4 218/360/4
f 223/365/4 221/363/4 218/360/4 220/362/4
f 192/323/4 234/322/4 222/364/4 221/363/4
f 194/324/4 192/323/4 221/363/4 223/365/4
f 224/366/4 223/365/4 220/362/4 225/367/4
f 196/327/4 194/324/4 223/365/4 224/366/4
f 226/368/40 224/369/40 225/370/41 227/371/41
f 199/331/35 196/330/35 224/369/40 226/368/40
f 226/340/5 227/372/5 211/347/5 204/341/5
f 227/371/41 225/370/41 230/373/42 228/374/42
f 211/347/5 227/372/5 228/375/5 229/376/5
f 228/374/42 230/373/42 231/377/43 229/378/43
f 220/362/4 231/379/4 230/380/4 225/367/4
f 229/378/43 231/377/43 232/381/44 233/382/44
f 217/361/4 232/383/4 231/379/4 220/362/4
f 233/382/44 232/381/44 217/356/39 214/355/39
f 214/350/5 211/347/5 229/376/5 233/384/5
f 234/322/4 237/385/4 235/386/4 222/364/4
f 222/364/4 235/386/4 236/387/4 219/357/4
f 239/388/45 236/389/45 235/390/46 238/391/46
f 238/391/46 235/390/46 237/392/47 240/393/47
f 208/344/5 210/346/5 239/394/5 238/395/5
f 206/343/5 208/344/5 238/395/5 240/396/5
f 118/196/5 206/343/5 240/396/5 241/197/5
f 240/393/47 237/392/47 242/397/48 241/398/48
f 241/398/48 242/397/48 113/191/21 115/190/21
f 111/180/4 113/187/4 242/399/4 191/321/4
f 191/321/4 242/399/4 237/385/4 234/322/4
f 243/400/49 245/401/49 236/389/45 239/388/45
f 239/394/5 210/346/5 213/349/5 243/402/5
f 244/403/50 246/404/50 245/401/49 243/400/49
f 243/402/5 213/349/5 249/405/5 244/406/5
f 236/387/4 245/407/4 216/358/4 219/357/4
f 245/407/4 246/408/4 247/409/4 216/358/4
f 249/410/51 247/411/51 246/404/50 244/403/50
f 250/412/52 248/413/52 247/411/51 249/410/51
f 216/358/4 247/409/4 248/414/4 252/415/4
f 213/349/5 251/416/5 250/417/5 249/405/5
f 251/418/53 252/419/53 248/413/52 250/412/52
f 213/354/38 216/353/38 252/419/53 251/418/53
f 202/210/5 128/209/5 253/420/5 200/338/5
f 253/421/54 254/422/54 197/333/36 200/332/36
f 175/304/33 177/303/33 254/422/54 253/421/54
f 128/209/5 130/208/5 175/305/5 253/420/5
f 189/318/4 197/326/4 254/423/4 185/316/4
f 185/316/4 254/423/4 177/306/4 179/309/4
f 255/424/4 109/182/4 188/183/4 186/314/4
f 256/425/4 255/424/4 186/314/4 183/313/4
f 122/185/1 109/184/1 255/426/1 125/427/1
f 125/427/1 255/426/1 256/428/1 258/429/1
f 258/429/1 256/428/1 257/430/1 259/431/1
f 181/312/4 257/432/4 256/425/4 183/313/4
f 132/211/5 126/206/5 258/205/5 259/433/5
f 260/434/5 136/214/5 132/211/5 259/433/5
f 259/431/1 257/430/1 261/435/1 260/436/1
f 260/437/31 261/438/31 149/439/31 136/440/31
f 261/441/4 257/432/4 181/312/4 149/251/4
f 262/89/1 55/88/1 90/148/1 87/147/1
f 90/152/4 55/90/4 57/91/4 77/124/4
f 87/141/5 80/132/5 70/113/5 262/442/5
f 262/442/5 70/113/5 263/81/5 51/80/5
f 263/81/5 66/105/5 264/77/5 48/76/5
f 41/70/5 45/69/5 264/77/5 65/104/5
f 65/101/10 62/100/10 38/62/6 41/61/6
f 38/60/4 62/95/4 59/92/4 36/57/4
f 53/85/4 33/54/4 36/57/4 59/92/4
f 42/66/8 39/65/8 35/443/55 44/444/55
f 44/444/55 35/443/55 29/36/2 26/35/2
f 291/445/1 502/446/1 295/447/1 294/448/1
f 281/449/6 280/450/7 277/451/7 278/452/6
f 280/450/7 282/453/8 279/454/8 277/451/7
f 280/455/4 281/456/4 285/457/4 283/458/4
f 284/459/4 282/460/4 280/455/4 283/458/4
f 296/461/5 297/462/5 300/463/5 298/464/5
f 286/14/4 266/13/4 284/459/4 283/458/4
f 287/465/4 286/14/4 283/458/4 285/457/4
f 290/466/4 289/467/4 287/465/4 288/468/4
f 289/467/4 267/11/4 286/14/4 287/465/4
f 288/468/4 287/465/4 285/457/4 504/469/4
f 289/24/1 290/470/1 292/471/1 271/25/1
f 294/472/5 296/461/5 293/473/5 292/474/5
f 292/474/5 293/473/5 273/28/5 271/27/5
f 295/475/5 297/462/5 296/461/5 294/472/5
f 296/461/5 298/464/5 299/476/5 293/473/5
f 302/477/5 299/476/5 298/464/5 301/478/5
f 606/479/56 605/480/57 519/481/57 531/482/56
f 301/478/5 298/464/5 300/463/5 303/483/5
f 304/484/9 305/485/10 302/486/10 301/487/9
f 525/488/58 526/489/58 529/490/58 527/491/58
f 305/492/4 304/493/4 306/494/4 504/469/4
f 307/495/11 304/484/9 301/487/9 303/496/11
f 304/493/4 307/497/4 309/498/4 306/494/4
f 308/499/12 307/495/11 303/496/11 315/500/12
f 518/501/57 521/502/57 520/503/57 517/504/57
f 503/505/4 306/494/4 309/498/4 310/506/4
f 310/506/4 309/498/4 311/507/4 312/508/4
f 311/509/14 308/499/12 315/500/12 313/510/14
f 297/462/5 314/511/5 313/512/5 300/463/5
f 319/513/15 312/514/13 314/515/13 316/516/15
f 317/517/5 316/518/5 314/511/5 297/462/5
f 521/519/5 518/520/5 526/521/5 523/522/5
f 331/523/5 318/524/5 316/518/5 317/517/5
f 321/525/16 319/526/15 316/527/15 318/528/16
f 324/529/4 323/530/4 321/531/4 322/532/4
f 602/533/58 601/534/58 527/535/58 529/536/58
f 320/537/4 310/506/4 312/508/4 319/538/4
f 323/530/4 320/537/4 319/538/4 321/531/4
f 325/539/4 327/540/4 320/537/4 323/530/4
f 322/541/17 321/525/16 318/528/16 333/542/17
f 326/543/4 325/539/4 323/530/4 324/529/4
f 325/544/1 326/545/1 329/546/1 328/547/1
f 327/548/1 325/544/1 328/547/1 330/549/1
f 341/550/4 324/529/4 322/532/4 339/551/4
f 328/552/5 331/523/5 317/517/5 330/553/5
f 332/554/5 333/555/5 318/524/5 331/523/5
f 329/556/5 332/554/5 331/523/5 328/552/5
f 336/557/5 334/558/5 332/554/5 329/556/5
f 344/559/4 343/560/4 341/550/4 342/561/4
f 335/562/5 338/563/5 337/564/5 334/558/5
f 334/558/5 337/564/5 333/555/5 332/554/5
f 346/565/5 335/562/5 334/558/5 336/557/5
f 340/566/19 339/567/18 337/568/18 338/569/19
f 343/560/4 326/543/4 324/529/4 341/550/4
f 342/561/4 341/550/4 339/551/4 340/570/4
f 326/545/1 343/571/1 336/572/1 329/546/1
f 343/571/1 344/573/1 346/574/1 336/572/1
f 345/575/4 344/559/4 342/561/4 356/576/4
f 355/577/21 354/578/20 352/579/20 353/580/21
f 344/573/1 345/581/1 347/582/1 346/574/1
f 347/583/5 350/584/5 335/562/5 346/565/5
f 347/583/5 348/585/5 351/586/5 350/584/5
f 349/587/5 428/588/5 348/585/5 347/583/5
f 345/581/1 362/589/1 349/590/1 347/582/1
f 352/591/5 338/563/5 335/562/5 350/584/5
f 354/578/20 340/566/19 338/569/19 352/579/20
f 350/584/5 351/586/5 353/592/5 352/591/5
f 354/593/4 356/576/4 342/561/4 340/570/4
f 364/594/4 361/595/4 363/596/4 367/597/4
f 356/576/4 354/593/4 355/598/4 357/599/4
f 345/575/4 356/576/4 357/599/4 359/600/4
f 429/601/5 437/602/5 435/603/5 433/604/5
f 357/599/4 355/598/4 481/605/4 358/606/4
f 369/607/4 371/608/4 372/609/4 366/610/4
f 362/611/4 345/575/4 359/600/4 361/595/4
f 360/612/4 359/600/4 357/599/4 358/606/4
f 360/612/4 363/596/4 361/595/4 359/600/4
f 365/613/4 362/611/4 361/595/4 364/594/4
f 498/614/4 365/613/4 364/594/4 366/610/4
f 369/607/4 366/610/4 364/594/4 367/597/4
f 370/615/4 369/607/4 367/597/4 368/616/4
f 367/597/4 363/596/4 442/617/4 368/616/4
f 476/618/5 459/619/5 456/620/5 485/621/5
f 370/615/4 373/622/4 371/608/4 369/607/4
f 371/608/4 374/623/4 376/624/4 372/609/4
f 373/622/4 375/625/4 374/623/4 371/608/4
f 375/625/4 378/626/4 377/627/4 374/623/4
f 502/628/4 291/629/4 503/505/4 310/506/4
f 374/623/4 377/627/4 379/630/4 376/624/4
f 445/631/4 446/632/4 448/633/4 447/634/4
f 377/635/22 378/636/22 382/637/22 380/638/22
f 379/639/22 377/635/22 380/638/22 383/640/22
f 383/641/4 380/642/4 381/643/4 384/644/4
f 385/645/23 383/646/23 384/647/23 386/648/23
f 380/642/4 382/649/4 410/650/4 381/643/4
f 388/651/22 379/639/22 383/640/22 385/652/22
f 387/653/5 385/654/5 386/655/5 412/656/5
f 390/657/22 388/651/22 385/652/22 387/658/22
f 376/659/24 379/660/24 388/661/24 389/662/24
f 384/663/31 381/664/31 412/665/31 386/666/31
f 391/667/5 389/668/5 388/669/5 390/670/5
f 394/671/5 391/667/5 390/670/5 392/672/5
f 392/673/22 390/657/22 387/658/22 393/674/22
f 375/625/4 373/622/4 414/675/4 413/676/4
f 392/672/5 395/677/5 396/678/5 394/671/5
f 395/679/26 397/680/26 413/681/27 396/682/27
f 395/683/22 392/673/22 393/674/22 398/684/25
f 402/685/5 401/686/5 398/687/5 399/688/5
f 397/689/22 395/683/22 398/684/25 400/690/25
f 400/690/25 398/684/25 401/691/28 404/692/28
f 399/688/5 398/687/5 393/693/5 411/694/5
f 394/671/5 396/678/5 416/695/5 418/696/5
f 404/692/28 401/691/28 403/697/29 406/698/29
f 397/699/4 378/626/4 375/625/4 413/676/4
f 407/700/4 405/701/4 404/702/4 406/703/4
f 405/701/4 409/704/4 400/705/4 404/702/4
f 399/706/31 409/707/31 405/708/31 402/709/31
f 407/710/59 406/698/29 403/697/29 408/711/59
f 411/712/31 412/665/31 381/664/31 410/713/31
f 402/709/31 405/708/31 407/714/31 408/715/31
f 409/704/4 410/650/4 382/649/4 400/705/4
f 411/712/31 410/713/31 409/707/31 399/706/31
f 393/693/5 387/653/5 412/656/5 411/694/5
f 378/636/22 397/689/22 400/690/25 382/637/22
f 413/681/27 414/716/32 416/717/32 396/682/27
f 415/718/4 414/675/4 373/622/4 370/615/4
f 417/719/5 419/720/5 418/696/5 416/695/5
f 414/716/32 415/721/60 417/722/33 416/717/32
f 408/723/5 403/724/5 401/686/5 402/685/5
f 419/720/5 422/725/5 420/726/5 418/696/5
f 418/696/5 420/726/5 391/667/5 394/671/5
f 422/725/5 423/727/5 421/728/5 420/726/5
f 420/726/5 421/728/5 389/668/5 391/667/5
f 422/725/5 424/729/5 426/730/5 423/727/5
f 424/729/5 425/731/5 429/601/5 427/732/5
f 419/720/5 425/731/5 424/729/5 422/725/5
f 433/604/5 430/733/5 427/732/5 429/601/5
f 426/730/5 424/729/5 427/732/5 428/588/5
f 430/733/5 431/734/5 351/586/5 348/585/5
f 430/733/5 348/585/5 428/588/5 427/732/5
f 433/604/5 434/735/5 432/736/5 430/733/5
f 474/737/5 431/734/5 430/733/5 432/736/5
f 438/738/34 439/739/35 436/740/35 435/741/34
f 435/603/5 436/742/5 434/735/5 433/604/5
f 440/743/36 438/738/34 435/741/34 437/744/36
f 442/617/4 441/745/4 438/746/4 440/747/4
f 438/746/4 441/745/4 443/748/4 439/749/4
f 480/750/47 481/751/48 482/752/48 477/753/47
f 441/745/4 442/617/4 363/596/4 360/612/4
f 439/749/4 443/748/4 444/754/4 466/755/4
f 441/745/4 360/612/4 445/631/4 443/748/4
f 443/748/4 445/631/4 447/634/4 444/754/4
f 446/632/4 445/631/4 360/612/4 358/606/4
f 450/756/4 453/757/4 452/758/4 449/759/4
f 447/634/4 448/633/4 450/756/4 449/759/4
f 444/754/4 447/634/4 449/759/4 451/760/4
f 449/759/4 452/758/4 454/761/4 451/760/4
f 460/762/5 465/763/5 470/764/5 471/765/5
f 454/766/39 452/767/37 455/768/37 457/769/39
f 459/619/5 458/770/5 455/771/5 456/620/5
f 452/767/37 453/772/38 456/773/38 455/768/37
f 458/770/5 460/762/5 457/774/5 455/771/5
f 461/775/5 458/770/5 459/619/5 462/776/5
f 463/777/5 460/762/5 458/770/5 461/775/5
f 432/736/5 461/775/5 462/776/5 474/737/5
f 434/735/5 463/777/5 461/775/5 432/736/5
f 464/778/5 465/763/5 460/762/5 463/777/5
f 436/742/5 464/778/5 463/777/5 434/735/5
f 466/779/40 467/780/41 465/781/41 464/782/40
f 439/739/35 466/779/40 464/782/40 436/740/35
f 466/755/4 444/754/4 451/760/4 467/783/4
f 481/751/48 355/577/21 353/580/21 482/752/48
f 467/780/41 468/784/42 470/785/42 465/781/41
f 451/760/4 469/786/4 468/787/4 467/783/4
f 468/784/42 469/788/43 471/789/43 470/785/42
f 457/774/5 460/762/5 471/765/5 472/790/5
f 469/788/43 473/791/44 472/792/44 471/789/43
f 473/791/44 454/766/39 457/769/39 472/792/44
f 454/761/4 473/793/4 469/786/4 451/760/4
f 474/737/5 462/776/5 475/794/5 477/795/5
f 462/776/5 459/619/5 476/618/5 475/794/5
f 479/796/45 478/797/46 475/798/46 476/799/45
f 478/797/46 480/750/47 477/753/47 475/798/46
f 446/632/4 480/800/4 478/801/4 448/633/4
f 358/606/4 481/605/4 480/800/4 446/632/4
f 448/633/4 478/801/4 479/802/4 450/756/4
f 431/734/5 474/737/5 477/795/5 482/803/5
f 351/586/5 431/734/5 482/803/5 353/592/5
f 483/804/49 479/796/45 476/799/45 485/805/49
f 484/806/50 483/804/49 485/805/49 486/807/50
f 483/808/4 484/809/4 489/810/4 453/757/4
f 479/802/4 483/808/4 453/757/4 450/756/4
f 485/621/5 456/620/5 487/811/5 486/812/5
f 456/620/5 492/813/5 488/814/5 487/811/5
f 453/757/4 489/810/4 490/815/4 491/816/4
f 490/817/52 489/818/51 487/819/51 488/820/52
f 489/818/51 484/806/50 486/807/50 487/819/51
f 491/821/53 490/817/52 488/820/52 492/822/53
f 442/617/4 440/747/4 493/823/4 368/616/4
f 368/616/4 493/823/4 415/718/4 370/615/4
f 493/824/54 440/743/36 437/744/36 494/825/54
f 453/772/38 491/821/53 492/822/53 456/773/38
f 415/721/60 493/824/54 494/825/54 417/722/33
f 429/601/5 425/731/5 494/826/5 437/602/5
f 496/827/5 423/727/5 426/730/5 495/828/5
f 425/731/5 419/720/5 417/719/5 494/826/5
f 495/828/5 426/730/5 428/588/5 349/587/5
f 362/589/1 365/829/1 495/830/1 349/590/1
f 365/829/1 498/831/1 496/832/1 495/830/1
f 421/728/5 423/727/5 496/827/5 497/833/5
f 499/834/1 500/835/1 501/836/1 497/837/1
f 498/831/1 499/834/1 497/837/1 496/832/1
f 500/838/31 376/839/31 389/840/31 501/841/31
f 500/842/4 499/843/4 372/609/4 376/624/4
f 372/609/4 499/843/4 498/614/4 366/610/4
f 502/446/1 327/548/1 330/549/1 295/447/1
f 330/553/5 317/517/5 297/462/5 295/475/5
f 501/844/5 389/668/5 421/728/5 497/833/5
f 503/505/4 288/468/4 504/469/4 306/494/4
f 327/540/4 502/628/4 310/506/4 320/537/4
f 281/456/4 305/492/4 504/469/4 285/457/4
f 305/485/10 281/449/6 278/452/6 302/486/10
f 278/33/5 276/31/5 299/476/5 302/477/5
f 282/453/8 284/845/55 275/846/55 279/454/8
f 284/845/55 266/7/2 269/10/2 275/846/55
f 293/473/5 299/476/5 276/31/5 273/28/5
f 339/567/18 322/541/17 333/542/17 337/568/18
f 521/502/61 523/847/61 522/848/61 520/503/61
f 525/488/58 522/849/58 523/850/58 526/489/58
f 604/851/58 603/852/58 530/853/58 518/854/58
s 0
f 609/855/61 610/856/61 538/857/61 537/858/61
s 1
f 526/521/5 518/520/5 530/859/5 529/860/5
f 303/483/5 300/463/5 313/512/5 315/861/5
f 312/514/13 311/509/14 313/510/14 314/515/13
f 307/497/4 308/862/4 311/507/4 309/498/4
f 290/470/1 291/445/1 294/448/1 292/471/1
f 291/629/4 290/466/4 288/468/4 503/505/4
s 0
f 623/863/62 624/864/62 564/865/62 563/866/62
s 1
f 506/867/57 505/868/57 508/869/57 509/870/57
f 509/870/61 508/869/61 510/871/61 511/872/61
f 512/873/58 513/874/58 511/875/58 510/876/58
f 512/873/58 514/877/58 516/878/58 513/874/58
s 0
f 610/856/58 611/879/58 539/880/58 538/857/58
s 1
f 602/533/58 516/881/58 514/882/58 601/534/58
s 0
f 613/883/61 614/884/61 546/885/61 545/886/61
f 615/887/62 616/888/62 548/889/62 547/890/62
f 614/884/58 615/887/58 547/890/58 546/885/58
s 1
f 604/851/58 506/891/58 524/892/58 603/852/58
f 513/893/4 516/894/4 524/895/4 506/896/4
s 0
f 618/897/58 619/898/58 555/899/58 554/900/58
f 619/898/62 620/901/62 556/902/62 555/899/62
f 621/903/61 622/904/61 562/905/61 561/906/61
f 622/904/58 623/863/58 563/866/58 562/905/58
s 1
f 606/479/56 533/907/56 507/908/57 605/480/57
s 0
f 628/909/22 572/910/22 571/911/22 627/912/22
f 626/913/1 627/912/1 571/911/1 570/914/1
s 1
f 509/915/4 511/916/4 513/893/4 506/896/4
s 0
f 609/855/61 535/917/61 536/918/61 610/856/61
f 610/856/58 536/918/58 541/919/58 611/879/58
f 611/879/62 541/919/62 542/920/62 612/921/62
f 613/883/61 543/922/61 544/923/61 614/884/61
f 614/884/58 544/923/58 549/924/58 615/887/58
f 615/887/62 549/924/62 550/925/62 616/888/62
f 617/926/61 551/927/61 552/928/61 618/897/61
f 618/897/58 552/928/58 557/929/58 619/898/58
f 619/898/62 557/929/62 558/930/62 620/901/62
f 621/903/61 559/931/61 560/932/61 622/904/61
f 622/904/58 560/932/58 565/933/58 623/863/58
f 623/863/62 565/933/62 566/934/62 624/864/62
f 625/935/63 628/936/63 574/937/63 567/938/63
s 1
f 15/939/64 16/940/64 596/941/64 595/942/64
s 0
f 626/913/1 568/943/1 573/944/1 627/912/1
f 628/909/22 627/912/22 573/944/22 574/945/22
f 575/946/5 574/947/5 576/948/5 577/949/5
f 580/950/1 575/946/1 577/949/1 578/951/1
f 581/952/4 580/950/4 578/951/4 579/953/4
f 7/954/22 8/955/22 592/956/22 591/957/22
f 6/3/65 7/954/65 591/957/65 590/4/65
s 1
f 5/958/66 4/2/22 589/1/22 600/959/66
f 14/960/67 15/961/67 595/962/67 594/963/67
f 13/964/31 14/965/31 594/966/31 593/967/31
f 16/940/68 21/968/69 597/969/69 596/941/68
s 0
f 568/943/31 626/913/31 625/935/31 567/938/31
s 1
f 21/968/69 22/970/70 598/971/70 597/969/69
f 22/970/70 23/972/71 599/973/71 598/971/70
f 23/972/71 5/958/66 600/959/66 599/973/71
f 528/974/72 527/975/62 601/976/62 608/977/72
f 529/978/61 530/979/61 603/980/61 602/981/61
f 629/982/61 631/983/61 519/481/61 605/480/61
f 531/482/56 532/984/73 607/985/73 606/479/56
f 532/984/73 528/974/72 608/977/72 607/985/73
s 0
f 570/914/31 569/986/31 625/935/31 626/913/31
f 588/987/5 586/988/5 585/989/5 587/990/5
f 587/990/1 585/989/1 584/991/1 582/992/1
f 582/992/4 584/991/4 583/993/4 572/994/4
s 1
f 534/995/73 607/985/73 608/977/72 515/996/72
f 533/907/56 606/479/56 607/985/73 534/995/73
s 0
f 625/935/63 569/986/63 572/997/63 628/936/63
f 617/926/61 618/897/61 554/900/61 553/998/61
s 1
f 516/999/61 602/981/61 603/980/61 524/1000/61
f 515/996/72 608/977/72 601/976/62 514/1001/62
s 0
f 611/879/62 612/921/62 540/1002/62 539/880/62
s 1
f 24/1003/71 599/973/71 600/959/66 2/1004/66
f 20/1005/70 598/971/70 599/973/71 24/1003/71
f 19/1006/69 597/969/69 598/971/70 20/1005/70
f 18/1007/68 596/941/68 597/969/69 19/1006/69
f 17/1008/64 595/942/64 596/941/64 18/1007/64
f 12/1009/67 594/963/67 595/962/67 17/1010/67
f 11/1011/31 593/967/31 594/966/31 12/1012/31
f 265/1013/1 267/23/1 270/26/1 268/1014/1
s 0
f 9/1015/22 591/957/22 592/956/22 10/1016/22
f 3/5/65 590/4/65 591/957/65 9/1015/65
s 1
f 2/1004/66 600/959/66 589/1/22 1/6/22
s 0
f 593/15/1 592/18/1 8/1017/1 13/1018/1
s 1
f 506/1019/61 604/1020/61 629/982/61 630/1021/61
f 518/1022/61 631/983/61 629/982/61 604/1020/61
f 630/1021/61 507/908/61 505/1023/61 506/1019/61
f 631/983/61 518/1022/61 517/1024/61 519/481/61
f 507/908/61 630/1021/61 629/982/61 605/480/61
