# Blender 4.3.0
# www.blender.org
o fleur_de_lys_01
v 0.042671 0.002387 0.038543
v 0.038850 0.002387 0.039948
v 0.031485 0.002387 0.042195
v 0.027987 0.002387 0.041942
v 0.019820 0.002387 0.031523
v 0.018916 0.002387 0.026910
v 0.018510 0.002387 0.022561
v 0.019934 0.002387 0.010201
v 0.022248 0.002387 0.005479
v 0.024979 0.002387 0.002521
v 0.038400 0.002387 0.005720
v 0.038425 0.002387 0.016038
v 0.047284 0.002387 0.015155
v 0.055201 0.002387 0.010748
v 0.060639 0.002387 0.003683
v 0.062328 0.002387 -0.005426
v 0.059659 0.002387 -0.014773
v 0.045263 0.002387 -0.023916
v 0.031321 0.002387 0.000340
v 0.035651 0.002387 -0.023354
v 0.027877 0.002387 0.000904
v 0.018276 0.002387 -0.012809
v 0.012405 0.002387 -0.005114
v 0.005777 0.002387 0.013860
v 0.005419 0.002387 0.029157
v 0.006978 0.002387 0.037812
v 0.012762 0.002387 0.053726
v 0.022439 0.002387 0.062068
v 0.030196 0.002387 0.062068
v 0.037063 0.002387 0.058546
v 0.041774 0.002387 0.052403
v 0.043501 0.002387 0.044963
v 0.043803 0.002387 0.039023
v 0.035100 0.002387 0.041397
v 0.022619 0.002387 0.038041
v 0.018672 0.002387 0.016181
v 0.038742 0.002387 0.012601
v 0.038822 0.002387 0.009152
v 0.034610 0.002387 0.000759
v 0.036938 0.002387 0.002612
v 0.053624 0.002387 -0.021177
v 0.025678 0.006976 0.050647
v 0.030950 0.006680 0.050864
v 0.039608 0.007066 -0.011002
v 0.027236 0.007066 -0.008108
v 0.014837 0.007066 0.007301
v 0.018242 0.007066 0.044502
v 0.036370 0.005989 0.048697
v 0.040270 0.004695 0.045307
v 0.014140 0.007066 0.034175
v 0.012949 0.007066 0.027899
v 0.012554 0.007066 0.022561
v 0.012995 0.007066 0.015159
v 0.017926 0.007066 0.000864
v 0.022175 0.007066 -0.004340
v 0.046829 0.004069 0.012214
v 0.052457 0.005828 0.006064
v 0.053604 0.007066 -0.001103
v 0.051171 0.007066 -0.007141
v 0.033375 0.007066 -0.010356
v 0.045978 0.007066 -0.010545
v -0.042671 0.002387 0.038543
v -0.038850 0.002387 0.039948
v -0.031485 0.002387 0.042195
v -0.027987 0.002387 0.041942
v -0.019820 0.002387 0.031523
v -0.018916 0.002387 0.026910
v -0.018510 0.002387 0.022561
v -0.019934 0.002387 0.010201
v -0.022248 0.002387 0.005479
v -0.024979 0.002387 0.002521
v -0.038400 0.002387 0.005720
v -0.038425 0.002387 0.016038
v -0.047284 0.002387 0.015155
v -0.055201 0.002387 0.010748
v -0.060639 0.002387 0.003683
v -0.062328 0.002387 -0.005426
v -0.059659 0.002387 -0.014773
v -0.045263 0.002387 -0.023916
v -0.031321 0.002387 0.000340
v -0.035651 0.002387 -0.023354
v -0.027877 0.002387 0.000904
v -0.018276 0.002387 -0.012809
v -0.012405 0.002387 -0.005114
v -0.005777 0.002387 0.013860
v -0.005419 0.002387 0.029157
v -0.006978 0.002387 0.037812
v -0.012762 0.002387 0.053726
v -0.022439 0.002387 0.062068
v -0.030196 0.002387 0.062068
v -0.037063 0.002387 0.058546
v -0.041774 0.002387 0.052403
v -0.043501 0.002387 0.044963
v -0.043803 0.002387 0.039023
v -0.035100 0.002387 0.041397
v -0.022619 0.002387 0.038041
v -0.018672 0.002387 0.016181
v -0.038742 0.002387 0.012601
v -0.038822 0.002387 0.009152
v -0.034610 0.002387 0.000759
v -0.036938 0.002387 0.002612
v -0.053624 0.002387 -0.021177
v -0.025678 0.006976 0.050647
v -0.030950 0.006680 0.050864
v -0.039608 0.007066 -0.011002
v -0.027236 0.007066 -0.008108
v -0.014837 0.007066 0.007301
v -0.018242 0.007066 0.044502
v -0.036370 0.005989 0.048697
v -0.040270 0.004695 0.045307
v -0.014140 0.007066 0.034175
v -0.012949 0.007066 0.027899
v -0.012554 0.007066 0.022561
v -0.012995 0.007066 0.015159
v -0.017926 0.007066 0.000864
v -0.022175 0.007066 -0.004340
v -0.046829 0.004069 0.012214
v -0.052457 0.005828 0.006064
v -0.053604 0.007066 -0.001103
v -0.051171 0.007066 -0.007141
v -0.033375 0.007066 -0.010356
v -0.045978 0.007066 -0.010545
v -0.020994 0.002387 0.035207
v 0.020994 0.002387 0.035207
v 0.009543 0.002387 0.045801
v 0.015969 0.007066 0.039748
v 0.016648 0.002387 0.058955
v 0.025018 0.002387 0.040345
v 0.021349 0.007021 0.048214
v 0.042671 -0.000000 0.038543
v 0.038850 -0.000000 0.039948
v 0.035100 -0.000000 0.041397
v 0.031485 -0.000000 0.042195
v 0.027987 -0.000000 0.041942
v 0.020994 -0.000000 0.035207
v 0.019820 -0.000000 0.031523
v 0.018916 -0.000000 0.026910
v 0.018510 -0.000000 0.022561
v 0.018672 -0.000000 0.016181
v 0.019934 -0.000000 0.010201
v 0.022248 -0.000000 0.005479
v 0.024979 -0.000000 0.002521
v 0.036938 -0.000000 0.002612
v 0.038400 -0.000000 0.005720
v 0.047284 -0.000000 0.015155
v 0.055201 -0.000000 0.010748
v 0.060639 -0.000000 0.003683
v 0.062328 -0.000000 -0.005426
v 0.059659 0.000000 -0.014773
v 0.034610 -0.000000 0.000759
v 0.045263 0.000000 -0.023916
v 0.053624 0.000000 -0.021177
v 0.031321 -0.000000 0.000340
v 0.035651 0.000000 -0.023354
v 0.027877 -0.000000 0.000904
v 0.005419 -0.000000 0.029157
v 0.016648 -0.000000 0.058955
v 0.022439 -0.000000 0.062068
v 0.030196 -0.000000 0.062068
v 0.037063 -0.000000 0.058546
v 0.041774 -0.000000 0.052403
v 0.043501 -0.000000 0.044963
v 0.043803 -0.000000 0.039023
v 0.025018 -0.000000 0.040345
v 0.022619 -0.000000 0.038041
v 0.038822 -0.000000 0.009152
v 0.038742 -0.000000 0.012601
v 0.038425 -0.000000 0.016038
v 0.040270 -0.000000 0.045307
v 0.036370 -0.000000 0.048697
v 0.030950 -0.000000 0.050864
v 0.025678 -0.000000 0.050647
v 0.021349 -0.000000 0.048214
v 0.018242 -0.000000 0.044502
v 0.015969 -0.000000 0.039748
v 0.014140 -0.000000 0.034175
v 0.012949 -0.000000 0.027899
v 0.012554 -0.000000 0.022561
v 0.012995 -0.000000 0.015159
v 0.014837 -0.000000 0.007301
v 0.017926 -0.000000 0.000864
v 0.022175 -0.000000 -0.004340
v 0.027236 -0.000000 -0.008108
v 0.033375 0.000000 -0.010356
v 0.039245 0.000000 -0.010286
v 0.044198 -0.000000 -0.007738
v 0.047649 -0.000000 -0.003196
v 0.049049 -0.000000 0.002810
v 0.048269 -0.000000 0.008721
v -0.009543 0.002387 0.045801
v -0.015969 0.007066 0.039748
v -0.016648 0.002387 0.058955
v -0.025018 0.002387 0.040345
v -0.021349 0.007021 0.048214
v -0.042671 -0.000000 0.038543
v -0.038850 -0.000000 0.039948
v -0.035100 -0.000000 0.041397
v -0.031485 -0.000000 0.042195
v -0.027987 -0.000000 0.041942
v -0.020994 -0.000000 0.035207
v -0.019820 -0.000000 0.031523
v -0.018916 -0.000000 0.026910
v -0.018510 -0.000000 0.022561
v -0.018672 -0.000000 0.016181
v -0.019934 -0.000000 0.010201
v -0.022248 -0.000000 0.005479
v -0.024979 -0.000000 0.002521
v -0.036938 -0.000000 0.002612
v -0.038400 -0.000000 0.005720
v -0.047284 -0.000000 0.015155
v -0.055201 -0.000000 0.010748
v -0.060639 -0.000000 0.003683
v -0.062328 -0.000000 -0.005426
v -0.059659 0.000000 -0.014773
v -0.034610 -0.000000 0.000759
v -0.045263 0.000000 -0.023916
v -0.053624 0.000000 -0.021177
v -0.031321 -0.000000 0.000340
v -0.035651 0.000000 -0.023354
v -0.027877 -0.000000 0.000904
v -0.005419 -0.000000 0.029157
v -0.016648 -0.000000 0.058955
v -0.022439 -0.000000 0.062068
v -0.030196 -0.000000 0.062068
v -0.037063 -0.000000 0.058546
v -0.041774 -0.000000 0.052403
v -0.043501 -0.000000 0.044963
v -0.043803 -0.000000 0.039023
v -0.025018 -0.000000 0.040345
v -0.022619 -0.000000 0.038041
v -0.038822 -0.000000 0.009152
v -0.038742 -0.000000 0.012601
v -0.038425 -0.000000 0.016038
v -0.040270 -0.000000 0.045307
v -0.036370 -0.000000 0.048697
v -0.030950 -0.000000 0.050864
v -0.025678 -0.000000 0.050647
v -0.021349 -0.000000 0.048214
v -0.018242 -0.000000 0.044502
v -0.015969 -0.000000 0.039748
v -0.014140 -0.000000 0.034175
v -0.012949 -0.000000 0.027899
v -0.012554 -0.000000 0.022561
v -0.012995 -0.000000 0.015159
v -0.014837 -0.000000 0.007301
v -0.017926 -0.000000 0.000864
v -0.022175 -0.000000 -0.004340
v -0.027236 -0.000000 -0.008108
v -0.033375 0.000000 -0.010356
v -0.039245 0.000000 -0.010286
v -0.044198 -0.000000 -0.007738
v -0.047649 -0.000000 -0.003196
v -0.049049 -0.000000 0.002810
v -0.048269 -0.000000 0.008721
v 0.000000 0.007597 0.052600
v 0.004980 0.002387 0.022561
v 0.000000 0.006995 0.045801
v 0.000000 0.006516 0.029157
v 0.025838 0.002387 -0.019326
v 0.000000 0.005805 0.022568
v 0.000000 0.005761 0.013834
v 0.000000 0.007095 -0.005040
v 0.000000 0.007994 -0.012801
v 0.000000 0.008748 -0.019326
v 0.005328 0.002387 -0.070509
v 0.000000 0.002387 -0.074790
v 0.000000 0.007623 -0.057093
v 0.000000 0.008811 -0.049047
v 0.000000 0.009363 -0.041271
v 0.000000 0.009377 -0.026209
v 0.028682 0.002387 -0.026201
v 0.028376 0.002387 -0.041266
v 0.024876 0.002387 -0.049055
v 0.018968 0.002387 -0.057122
v 0.012397 0.002387 -0.064077
v 0.000000 0.009625 -0.033470
v 0.029467 0.002387 -0.033463
v 0.008357 0.002387 0.003614
v 0.000000 0.006434 0.003656
v 0.000000 0.002387 0.074790
v 0.004547 0.002387 0.071825
v 0.008388 0.002387 0.067561
v 0.011186 0.002387 0.062689
v 0.012741 0.002387 0.057895
v 0.000000 0.007812 0.057718
v 0.000000 0.007426 0.062347
v 0.000000 0.005769 0.071132
v 0.003367 0.005150 0.022574
v 0.008581 0.005822 0.052843
v 0.006867 0.005393 0.045801
v 0.003907 0.005150 0.013872
v 0.009462 0.005536 -0.004969
v 0.014931 0.005965 -0.012825
v 0.021019 0.006137 -0.019342
v 0.023936 0.006339 -0.026201
v 0.023416 0.006339 -0.041265
v 0.020066 0.006121 -0.049068
v 0.015152 0.005663 -0.056104
v 0.024482 0.006339 -0.033463
v 0.003703 0.005236 0.029157
v 0.005987 0.005150 0.003651
v 0.008723 0.005883 0.057761
v 0.007963 0.005891 0.062244
v 0.005967 0.005891 0.066389
v 0.002920 0.005769 0.069468
v 0.001953 0.005599 0.013872
v 0.004715 0.006735 -0.005041
v 0.007298 0.007380 -0.012809
v 0.009795 0.008062 -0.019326
v 0.011969 0.008496 -0.026232
v 0.012100 0.008511 -0.041264
v 0.010108 0.008166 -0.049050
v 0.007580 0.007228 -0.056930
v 0.012952 0.008644 -0.033463
v 0.003394 0.006018 0.003676
v 0.001684 0.005581 0.022574
v 0.004150 0.006992 0.052600
v 0.003407 0.006500 0.045801
v 0.001851 0.006185 0.029157
v 0.004330 0.007294 0.057718
v 0.003898 0.006976 0.062362
v 0.010015 0.005182 -0.061915
v 0.000000 0.005002 -0.069981
v 0.004083 0.005002 -0.067223
v -0.004980 0.002387 0.022561
v -0.025838 0.002387 -0.019326
v -0.005328 0.002387 -0.070509
v 0.000000 0.006674 0.037812
v 0.004809 0.005315 0.037812
v 0.002295 0.006261 0.037812
v -0.028682 0.002387 -0.026201
v -0.028376 0.002387 -0.041266
v -0.024876 0.002387 -0.049055
v -0.018968 0.002387 -0.057122
v -0.012397 0.002387 -0.064077
v -0.029467 0.002387 -0.033463
v -0.008357 0.002387 0.003614
v -0.004547 0.002387 0.071825
v -0.008388 0.002387 0.067561
v -0.011186 0.002387 0.062689
v -0.012741 0.002387 0.057895
v -0.003367 0.005150 0.022574
v 0.012741 -0.000000 0.057895
v 0.012762 -0.000000 0.053726
v 0.004980 -0.000000 0.022561
v 0.005777 -0.000000 0.013860
v 0.000000 -0.000000 0.074790
v 0.004547 -0.000000 0.071825
v 0.009543 -0.000000 0.045801
v 0.008357 0.000000 0.003614
v 0.012405 0.000000 -0.005114
v 0.018276 0.000000 -0.012809
v 0.006978 -0.000000 0.037812
v 0.025838 0.000000 -0.019326
v 0.005328 0.000000 -0.070509
v 0.000000 0.000000 -0.074790
v 0.012397 0.000000 -0.064077
v 0.028682 0.000000 -0.026201
v 0.029467 0.000000 -0.033463
v 0.028376 0.000000 -0.041266
v 0.024876 0.000000 -0.049055
v 0.018968 0.000000 -0.057122
v 0.008388 -0.000000 0.067561
v 0.011186 -0.000000 0.062689
v -0.008581 0.005822 0.052843
v -0.006867 0.005393 0.045801
v -0.003907 0.005150 0.013872
v -0.009462 0.005536 -0.004969
v -0.014931 0.005965 -0.012825
v -0.021019 0.006137 -0.019342
v -0.023936 0.006339 -0.026201
v -0.023416 0.006339 -0.041265
v -0.020066 0.006121 -0.049068
v -0.015152 0.005663 -0.056104
v -0.024482 0.006339 -0.033463
v -0.003703 0.005236 0.029157
v -0.005987 0.005150 0.003651
v -0.008723 0.005883 0.057761
v -0.007963 0.005891 0.062244
v -0.005967 0.005891 0.066389
v -0.002920 0.005769 0.069468
v -0.001953 0.005599 0.013872
v 0.000000 0.000000 -0.049055
v 0.000000 0.000000 -0.057122
v 0.000000 0.000000 -0.041266
v 0.000000 0.000000 -0.033463
v 0.000000 0.000000 -0.026201
v 0.000000 0.000000 -0.019326
v 0.000000 0.000000 -0.012809
v 0.000000 0.000000 -0.005114
v 0.000000 0.000000 0.003614
v 0.000000 -0.000000 0.013860
v 0.000000 -0.000000 0.022561
v 0.000000 -0.000000 0.029157
v 0.000000 -0.000000 0.037812
v 0.000000 -0.000000 0.045801
v 0.000000 -0.000000 0.053726
v 0.000000 -0.000000 0.057895
v 0.000000 -0.000000 0.062689
v 0.000000 -0.000000 0.067561
v 0.000000 0.000000 -0.064077
v 0.000000 -0.000000 0.070652
v -0.004715 0.006735 -0.005041
v -0.007298 0.007380 -0.012809
v -0.009795 0.008062 -0.019326
v -0.011969 0.008496 -0.026232
v -0.012100 0.008511 -0.041264
v -0.010108 0.008166 -0.049050
v -0.007580 0.007228 -0.056930
v -0.012952 0.008644 -0.033463
v -0.003394 0.006018 0.003676
v -0.001684 0.005581 0.022574
v -0.004150 0.006992 0.052600
v -0.003407 0.006500 0.045801
v -0.001851 0.006185 0.029157
v -0.004330 0.007294 0.057718
v -0.003898 0.006976 0.062362
v -0.010015 0.005182 -0.061915
v -0.004083 0.005002 -0.067223
v -0.004809 0.005315 0.037812
v -0.002295 0.006261 0.037812
v -0.012741 -0.000000 0.057895
v -0.012762 -0.000000 0.053726
v 0.029214 -0.000508 0.029242
v 0.023078 -0.000508 0.035378
v 0.027417 -0.000508 0.033581
v -0.004980 -0.000000 0.022561
v -0.005777 -0.000000 0.013860
v 0.023078 -0.000508 0.017517
v 0.029214 -0.000508 0.023653
v 0.027417 -0.000508 0.019314
v -0.004547 -0.000000 0.071825
v -0.009543 -0.000000 0.045801
v -0.008357 0.000000 0.003614
v -0.012405 0.000000 -0.005114
v -0.018276 0.000000 -0.012809
v -0.006978 -0.000000 0.037812
v -0.025838 0.000000 -0.019326
v -0.005328 0.000000 -0.070509
v 0.022885 0.004677 0.034406
v 0.022584 0.008180 0.032894
v 0.026673 0.004677 0.032837
v 0.025475 0.008180 0.031638
v 0.028242 0.004677 0.029049
v 0.026730 0.008180 0.028748
v 0.028242 0.004677 0.023846
v 0.026730 0.008180 0.024147
v 0.026673 0.004677 0.020058
v 0.025475 0.008180 0.021257
v 0.022885 0.004677 0.018489
v 0.022584 0.008180 0.020001
v -0.012397 0.000000 -0.064077
v -0.028682 0.000000 -0.026201
v -0.029467 0.000000 -0.033463
v 0.022584 0.008180 0.028748
v -0.028376 0.000000 -0.041266
v 0.022584 0.008180 0.024147
v -0.024876 0.000000 -0.049055
v 0.000000 -0.000508 0.035378
v 0.000000 -0.000508 0.017517
v 0.000000 0.004677 0.034406
v 0.000000 0.008180 0.032894
v 0.000000 0.004677 0.018489
v 0.000000 0.008180 0.020001
v 0.000000 0.008180 0.028748
v 0.000000 0.008180 0.024147
v 0.000000 -0.000508 0.029242
v 0.000000 -0.000508 0.023653
v 0.023078 -0.000508 0.029242
v 0.023078 -0.000508 0.023653
v -0.018968 0.000000 -0.057122
v -0.008388 -0.000000 0.067561
v 0.011539 -0.000508 0.035378
v 0.011443 0.004677 0.034406
v 0.011292 0.008180 0.020001
v 0.011292 0.008180 0.028748
v 0.011292 0.008180 0.024147
v 0.011539 -0.000508 0.017517
v 0.011292 0.008180 0.032894
v 0.011443 0.004677 0.018489
v 0.011539 -0.000508 0.029242
v 0.011539 -0.000508 0.023653
v -0.011186 -0.000000 0.062689
v -0.029214 -0.000508 0.029242
v -0.023078 -0.000508 0.035378
v -0.027417 -0.000508 0.033581
v -0.023078 -0.000508 0.017517
v -0.029214 -0.000508 0.023653
v -0.027417 -0.000508 0.019314
v -0.022885 0.004677 0.034406
v -0.022584 0.008180 0.032894
v -0.026673 0.004677 0.032837
v -0.025475 0.008180 0.031638
v -0.028242 0.004677 0.029049
v -0.026730 0.008180 0.028748
v -0.028242 0.004677 0.023846
v -0.026730 0.008180 0.024147
v -0.026673 0.004677 0.020058
v -0.025475 0.008180 0.021257
v -0.022885 0.004677 0.018489
v -0.022584 0.008180 0.020001
v -0.022584 0.008180 0.028748
v -0.022584 0.008180 0.024147
v -0.023078 -0.000508 0.029242
v -0.023078 -0.000508 0.023653
v -0.011539 -0.000508 0.035378
v -0.011443 0.004677 0.034406
v -0.011292 0.008180 0.020001
v -0.011292 0.008180 0.028748
v -0.011292 0.008180 0.024147
v -0.011539 -0.000508 0.017517
v -0.011292 0.008180 0.032894
v -0.011443 0.004677 0.018489
v -0.011539 -0.000508 0.029242
v -0.011539 -0.000508 0.023653
vn 0.1238 0.9262 0.3562
vn -0.0804 0.9342 0.3477
vn -0.0817 0.9342 0.3474
vn 0.0928 0.9284 0.3599
vn -0.0846 0.9005 -0.4266
vn -0.0893 0.9031 -0.4200
vn -0.0154 0.8959 -0.4439
vn 0.0009 0.8956 -0.4449
vn -0.0916 0.9172 -0.3877
vn -0.0815 0.9249 -0.3713
vn 0.5852 0.8061 0.0887
vn 0.5279 0.8365 0.1470
vn 0.4463 0.8669 0.2221
vn -0.2616 0.9213 0.2877
vn -0.2348 0.9248 0.2994
vn -0.4666 0.8679 0.1705
vn -0.4580 0.8709 0.1782
vn -0.3654 0.9003 0.2366
vn -0.3995 0.8906 0.2172
vn -0.5186 0.8526 0.0650
vn -0.5183 0.8526 0.0662
vn -0.4956 0.8589 0.1294
vn -0.4993 0.8578 0.1218
vn -0.5283 0.8491 -0.0020
vn -0.5283 0.8491 -0.0019
vn -0.5299 0.8439 -0.0841
vn -0.5299 0.8438 -0.0851
vn -0.5062 0.8449 -0.1730
vn -0.5017 0.8456 -0.1823
vn -0.4421 0.8581 -0.2613
vn -0.4289 0.8610 -0.2735
vn -0.3475 0.8797 -0.3245
vn -0.3257 0.8849 -0.3329
vn -0.2278 0.9069 -0.3544
vn -0.1940 0.9136 -0.3575
vn 0.1958 0.8655 0.4611
vn 0.1493 0.8681 0.4734
vn 0.3274 0.8467 0.4194
vn 0.4005 0.8577 0.3223
vn 0.4471 0.8670 0.2199
vn 0.4484 0.8934 0.0293
vn 0.4323 0.9012 -0.0302
vn 0.3220 0.9252 -0.2011
vn 0.3079 0.9273 -0.2127
vn 0.1420 0.9409 -0.3074
vn 0.1580 0.9403 -0.3013
vn 0.0529 0.9129 0.4048
vn 0.1902 0.8797 0.4359
vn 0.2235 0.8714 0.4367
vn 0.0749 0.9075 0.4134
vn -0.0973 0.9293 -0.3562
vn 0.0108 0.9397 -0.3419
vn 0.0324 0.9403 -0.3389
vn -0.0692 0.9332 -0.3527
vn -0.1431 0.9599 0.2412
vn -0.1451 0.9602 0.2389
vn -0.0486 0.9396 0.3387
vn -0.0365 0.9364 0.3490
vn -0.2347 0.9648 0.1189
vn -0.2212 0.9652 0.1392
vn -0.2372 0.9678 0.0843
vn -0.2499 0.9648 0.0813
vn -0.2093 0.9756 0.0661
vn -0.2216 0.9716 0.0824
vn -0.2008 0.9781 0.0549
vn 0.3562 0.8364 0.4167
vn 0.3829 0.8293 0.4071
vn 0.4976 0.7999 0.3354
vn 0.5113 0.7968 0.3221
vn 0.5892 0.7797 0.2120
vn 0.5945 0.7788 0.2001
vn 0.6235 0.7772 0.0843
vn 0.6237 0.7774 0.0817
vn 0.6201 0.7844 -0.0116
vn 0.6200 0.7845 -0.0124
vn 0.6072 0.7901 -0.0837
vn 0.6074 0.7900 -0.0828
vn 0.5856 0.7958 -0.1542
vn 0.5881 0.7952 -0.1476
vn 0.5470 0.8082 -0.2181
vn 0.5359 0.8120 -0.2313
vn 0.4322 0.8458 -0.3128
vn 0.4572 0.8383 -0.2969
vn 0.3151 0.8724 -0.3737
vn 0.2956 0.8756 -0.3821
vn 0.1431 0.8916 -0.4296
vn 0.1441 0.8916 -0.4294
vn 0.3344 0.8967 0.2898
vn 0.2698 0.9085 0.3190
vn -0.0640 0.9373 -0.3425
vn 0.0916 0.9172 -0.3877
vn 0.0846 0.9005 -0.4266
vn 0.0893 0.9031 -0.4200
vn 0.0815 0.9249 -0.3713
vn -0.2698 0.9085 0.3190
vn -0.0928 0.9284 0.3599
vn -0.1238 0.9262 0.3562
vn -0.3344 0.8967 0.2898
vn 0.5299 0.8439 -0.0841
vn 0.5283 0.8491 -0.0020
vn 0.5283 0.8491 -0.0019
vn 0.5299 0.8438 -0.0851
vn -0.0000 -1.0000 -0.0000
vn 0.5186 0.8526 0.0650
vn 0.4993 0.8578 0.1218
vn 0.4956 0.8589 0.1294
vn 0.5183 0.8526 0.0662
vn -0.0529 0.9129 0.4048
vn -0.0749 0.9075 0.4134
vn -0.2235 0.8714 0.4367
vn -0.1902 0.8797 0.4359
vn 0.0486 0.9396 0.3387
vn 0.0365 0.9364 0.3490
vn -0.3829 0.8293 0.4071
vn -0.3562 0.8364 0.4167
vn -0.5113 0.7968 0.3221
vn -0.5945 0.7788 0.2001
vn -0.5892 0.7797 0.2120
vn -0.4976 0.7999 0.3354
vn 0.1431 0.9599 0.2412
vn 0.1451 0.9602 0.2389
vn 0.2212 0.9652 0.1392
vn 0.2347 0.9648 0.1189
vn 0.2372 0.9678 0.0843
vn 0.2499 0.9648 0.0813
vn 0.2216 0.9716 0.0824
vn 0.2093 0.9756 0.0661
vn -0.4484 0.8934 0.0293
vn -0.4323 0.9012 -0.0302
vn -0.4471 0.8670 0.2199
vn -0.4005 0.8577 0.3223
vn -0.3274 0.8467 0.4194
vn -0.1958 0.8655 0.4611
vn 0.3475 0.8797 -0.3245
vn 0.4421 0.8581 -0.2613
vn 0.4289 0.8610 -0.2735
vn 0.3257 0.8849 -0.3329
vn -0.5852 0.8061 0.0887
vn -0.4463 0.8669 0.2221
vn -0.5279 0.8365 0.1470
vn 0.5062 0.8449 -0.1730
vn 0.5017 0.8456 -0.1823
vn 0.0154 0.8959 -0.4439
vn -0.0009 0.8956 -0.4449
vn -0.1431 0.8916 -0.4296
vn -0.1441 0.8916 -0.4294
vn 0.0817 0.9342 0.3474
vn 0.0804 0.9342 0.3477
vn -0.6237 0.7774 0.0817
vn -0.6200 0.7845 -0.0124
vn -0.6201 0.7844 -0.0116
vn -0.6235 0.7772 0.0843
vn 0.2616 0.9213 0.2877
vn 0.2348 0.9248 0.2994
vn -0.6074 0.7900 -0.0828
vn -0.5881 0.7952 -0.1476
vn -0.5856 0.7958 -0.1542
vn -0.6072 0.7901 -0.0837
vn 0.2278 0.9069 -0.3544
vn 0.1940 0.9136 -0.3575
vn -0.3220 0.9252 -0.2011
vn -0.3079 0.9273 -0.2127
vn 0.0973 0.9293 -0.3562
vn 0.0692 0.9332 -0.3527
vn -0.0324 0.9403 -0.3389
vn -0.0108 0.9397 -0.3419
vn 0.2008 0.9781 0.0549
vn -0.1420 0.9409 -0.3074
vn -0.1580 0.9403 -0.3013
vn 0.4666 0.8679 0.1705
vn 0.3995 0.8906 0.2172
vn 0.3654 0.9003 0.2366
vn 0.4580 0.8709 0.1782
vn -0.1493 0.8681 0.4734
vn -0.9608 -0.0000 0.2772
vn -0.7844 -0.0000 0.6203
vn 0.3294 -0.0000 0.9442
vn 0.6187 -0.0000 0.7856
vn 0.9987 -0.0000 0.0506
vn 0.9903 -0.0000 0.1389
vn 0.8250 -0.0000 0.5651
vn 0.9153 -0.0000 -0.4028
vn 0.7881 -0.0000 -0.6156
vn 0.9043 -0.0000 0.4270
vn 0.2990 -0.0000 0.9543
vn 0.0992 -0.0000 0.9951
vn 0.9455 -0.0000 0.3257
vn -0.2221 -0.0000 -0.9750
vn 0.1287 -0.0000 -0.9917
vn 0.6406 -0.0000 0.7679
vn 0.9932 -0.0000 0.1164
vn 0.5361 -0.0000 -0.8442
vn 0.8693 -0.0000 -0.4942
vn 0.2347 -0.0000 0.9721
vn 0.9994 -0.0000 -0.0338
vn 0.9897 -0.0000 -0.1428
vn -0.3890 -0.0000 0.9213
vn 0.0178 -0.0000 0.9998
vn -0.9958 -0.0000 -0.0919
vn -0.9983 -0.0000 -0.0575
vn -0.3798 -0.0000 -0.9251
vn -0.2441 -0.0000 0.9698
vn 0.9687 -0.0000 -0.2484
vn -0.6537 -0.0000 0.7568
vn 0.2791 -0.0000 -0.9603
vn -0.0724 -0.0000 -0.9974
vn 0.9989 -0.0000 -0.0474
vn -0.2888 -0.0000 -0.9574
vn 0.9132 -0.0000 0.4075
vn 0.5885 -0.0000 -0.8085
vn -0.3528 -0.0000 -0.9357
vn 0.0244 -0.0000 -0.9997
vn 0.6529 -0.0000 0.7575
vn -0.8027 -0.0000 0.5964
vn -0.9988 -0.0000 0.0495
vn 0.3906 -0.0000 -0.9206
vn -0.5470 0.8082 -0.2181
vn -0.4572 0.8383 -0.2969
vn -0.4322 0.8458 -0.3128
vn -0.5359 0.8120 -0.2313
vn -0.3151 0.8724 -0.3737
vn -0.2956 0.8756 -0.3821
vn -0.2990 -0.0000 0.9543
vn -0.0992 -0.0000 0.9951
vn 0.9958 -0.0000 -0.0919
vn 0.9983 -0.0000 -0.0575
vn 0.7844 -0.0000 0.6203
vn 0.3890 -0.0000 0.9213
vn -0.9903 -0.0000 0.1389
vn -0.9043 -0.0000 0.4270
vn -0.8693 -0.0000 -0.4942
vn -0.9989 -0.0000 -0.0474
vn -0.9687 -0.0000 -0.2484
vn -0.9153 -0.0000 -0.4028
vn 0.3528 -0.0000 -0.9357
vn -0.0244 -0.0000 -0.9997
vn -0.7881 -0.0000 -0.6156
vn -0.0178 -0.0000 0.9998
vn 0.2441 -0.0000 0.9698
vn 0.6537 -0.0000 0.7568
vn -0.6187 -0.0000 0.7856
vn -0.8250 -0.0000 0.5651
vn -0.6406 -0.0000 0.7679
vn -0.2347 -0.0000 0.9721
vn -0.1287 -0.0000 -0.9917
vn -0.5361 -0.0000 -0.8442
vn -0.3294 -0.0000 0.9442
vn -0.9987 -0.0000 0.0506
vn -0.9932 -0.0000 0.1164
vn -0.9994 -0.0000 -0.0338
vn -0.5885 -0.0000 -0.8085
vn -0.9897 -0.0000 -0.1428
vn 0.9608 -0.0000 0.2772
vn 0.3798 -0.0000 -0.9251
vn 0.2221 -0.0000 -0.9750
vn -0.9455 -0.0000 0.3257
vn -0.4531 0.7538 -0.4758
vn -0.4541 0.7534 -0.4757
vn -0.5210 0.7340 -0.4357
vn -0.5090 0.7357 -0.4468
vn -0.9999 -0.0000 -0.0157
vn -0.9689 -0.0000 0.2473
vn -0.2791 -0.0000 -0.9603
vn 0.0724 -0.0000 -0.9974
vn -0.3812 0.7934 -0.4745
vn -0.3931 0.7865 -0.4763
vn 0.0640 0.9373 -0.3425
vn 0.2888 -0.0000 -0.9574
vn -0.3573 0.9317 -0.0656
vn -0.2982 0.9492 -0.1001
vn -0.2280 0.9701 -0.0829
vn -0.2637 0.9634 -0.0473
vn -0.9132 -0.0000 0.4075
vn -0.2732 0.9603 -0.0562
vn -0.0000 0.9995 -0.0322
vn -0.0000 0.9982 -0.0595
vn -0.6264 -0.0000 -0.7795
vn -0.6500 -0.0000 -0.7599
vn 0.8027 -0.0000 0.5964
vn 0.9988 -0.0000 0.0495
vn -0.2997 0.9537 -0.0252
vn -0.3812 0.9230 -0.0528
vn -0.2152 0.9758 -0.0381
vn -1.0000 -0.0000 0.0050
vn -0.9873 -0.0000 0.1587
vn -0.8642 -0.0000 -0.5031
vn -0.9609 -0.0000 -0.2770
vn -0.1436 0.9674 -0.2086
vn -0.1114 0.9674 -0.2275
vn -0.2212 0.9354 -0.2758
vn -0.2103 0.9539 -0.2142
vn -0.0000 0.9837 -0.1798
vn -0.0000 0.9761 -0.2173
vn -0.8410 0.5329 -0.0931
vn -0.7877 0.5892 -0.1799
vn -0.7931 0.5842 -0.1726
vn -0.8422 0.5316 -0.0907
vn -0.9141 -0.0000 0.4055
vn -0.7004 -0.0000 -0.7137
vn -0.7683 -0.0000 -0.6401
vn -0.6529 -0.0000 0.7575
vn 0.8532 0.5216 0.0051
vn 0.8531 0.5218 0.0059
vn 0.8130 0.5686 0.1251
vn 0.8165 0.5649 0.1188
vn 0.7520 0.6131 0.2420
vn 0.7426 0.6169 0.2606
vn 0.6710 0.6079 0.4246
vn 0.6860 0.6160 0.3871
vn 0.5802 0.6040 0.5464
vn 0.6085 0.5993 0.5201
vn 0.5925 0.7137 0.3737
vn 0.5750 0.6719 0.4669
vn 0.2108 0.9746 -0.0752
vn -0.0000 0.9975 -0.0703
vn -0.0000 0.9999 0.0142
vn 0.2066 0.9783 0.0133
vn 0.4813 0.6425 0.5963
vn 0.4875 0.6408 0.5931
vn 0.3951 0.6617 0.6373
vn 0.2280 0.9701 -0.0829
vn -0.0000 0.9977 -0.0672
vn 0.2637 0.9634 -0.0473
vn 0.6219 0.7689 0.1485
vn 0.6190 0.7661 0.1727
vn 0.6262 0.7795 -0.0151
vn 0.6263 0.7795 -0.0134
vn 0.6121 0.7732 -0.1658
vn 0.6088 0.7700 -0.1910
vn 0.5786 0.7485 -0.3239
vn 0.5661 0.7420 -0.3592
vn 0.5210 0.7340 -0.4357
vn 0.5090 0.7357 -0.4468
vn 0.2152 0.9758 -0.0381
vn -0.0000 0.9987 -0.0506
vn 0.2732 0.9603 -0.0562
vn -0.0000 0.9912 0.1320
vn 0.1772 0.9765 0.1227
vn -0.0000 0.9830 0.1839
vn 0.1300 0.9756 0.1770
vn 0.6840 0.6834 0.2551
vn 0.6845 0.6754 0.2742
vn 0.6273 0.6272 0.4616
vn 0.6343 0.6284 0.4503
vn 0.6643 0.7440 0.0719
vn 0.6657 0.7420 0.0796
vn 0.1790 0.9832 0.0350
vn 0.2586 0.9651 0.0420
vn 0.2723 0.9563 0.1069
vn 0.1876 0.9784 0.0867
vn 0.8422 0.5316 -0.0907
vn 0.8410 0.5329 -0.0931
vn 0.1289 0.9895 0.0658
vn 0.1807 0.9815 0.0629
vn 0.1894 0.9819 -0.0005
vn 0.1362 0.9907 0.0001
vn 0.1340 0.9829 -0.1266
vn 0.1979 0.9713 -0.1322
vn 0.2103 0.9539 -0.2142
vn 0.1436 0.9674 -0.2086
vn 0.1346 0.9892 -0.0586
vn 0.1928 0.9794 -0.0604
vn 0.1237 0.9842 0.1264
vn 0.1723 0.9765 0.1293
vn 0.7877 0.5892 -0.1799
vn 0.7931 0.5842 -0.1726
vn 0.7221 0.6516 -0.2322
vn 0.7135 0.6601 -0.2348
vn 0.6709 0.7269 -0.1469
vn 0.6646 0.7398 -0.1050
vn 0.1335 0.9802 0.1459
vn 0.1812 0.9678 0.1750
vn 0.1596 0.9793 0.1246
vn 0.2267 0.9611 0.1577
vn 0.2997 0.9537 -0.0252
vn -0.0000 0.9995 0.0310
vn -0.0000 0.9973 0.0737
vn -0.0000 0.9951 0.0992
vn -0.0000 0.9930 0.1180
vn -0.0000 0.9944 0.1059
vn -0.0000 0.9982 0.0602
vn -0.0000 1.0000 0.0015
vn -0.0000 0.9989 -0.0477
vn -0.0000 0.9946 -0.1038
vn 0.2827 0.9592 0.0106
vn 0.2517 0.9623 0.1034
vn 0.3812 0.9230 -0.0528
vn 0.3573 0.9317 -0.0656
vn 0.2982 0.9492 -0.1001
vn 0.2805 0.9570 -0.0743
vn 0.2212 0.9354 -0.2758
vn 0.1114 0.9674 -0.2275
vn 0.3511 0.8101 -0.4694
vn 0.3931 0.7865 -0.4763
vn 0.3812 0.7934 -0.4745
vn 0.4531 0.7538 -0.4758
vn 0.4541 0.7534 -0.4757
vn 0.2013 0.9669 0.1569
vn -0.8531 0.5218 0.0059
vn -0.8532 0.5216 0.0051
vn -0.1340 0.9829 -0.1266
vn -0.1346 0.9892 -0.0586
vn -0.1879 0.2950 -0.9369
vn -0.1916 0.1877 -0.9634
vn -0.6930 0.1988 -0.6930
vn -0.6728 0.3076 -0.6728
vn -0.6643 0.7440 0.0719
vn -0.6840 0.6834 0.2551
vn -0.6845 0.6754 0.2742
vn -0.6657 0.7420 0.0796
vn -0.1237 0.9842 0.1264
vn -0.1335 0.9802 0.1459
vn 0.6501 -0.0000 0.7598
vn 0.5462 -0.0000 0.8377
vn -0.5661 0.7420 -0.3592
vn -0.5786 0.7485 -0.3239
vn -0.1596 0.9793 0.1246
vn -0.1876 0.9784 0.0867
vn -0.6190 0.7661 0.1727
vn -0.6262 0.7795 -0.0151
vn -0.6263 0.7795 -0.0134
vn -0.6219 0.7689 0.1485
vn -0.8165 0.5649 0.1188
vn -0.8130 0.5686 0.1251
vn 0.9689 -0.0000 0.2473
vn 0.9241 -0.0000 0.3823
vn -0.2267 0.9611 0.1577
vn -0.2723 0.9563 0.1069
vn -0.2108 0.9746 -0.0752
vn -0.2066 0.9783 0.0133
vn -0.6646 0.7398 -0.1050
vn -0.6709 0.7269 -0.1469
vn -0.7520 0.6131 0.2420
vn -0.7426 0.6169 0.2606
vn -0.6088 0.7700 -0.1910
vn -0.6121 0.7732 -0.1658
vn -0.6085 0.5993 0.5201
vn -0.5750 0.6719 0.4669
vn -0.5925 0.7137 0.3737
vn -0.5802 0.6040 0.5464
vn -0.1979 0.9713 -0.1322
vn -0.1928 0.9794 -0.0604
vn -0.4813 0.6425 0.5963
vn -0.3951 0.6617 0.6373
vn -0.4875 0.6408 0.5931
vn -0.1790 0.9832 0.0350
vn -0.9241 -0.0000 0.3823
vn -0.2586 0.9651 0.0420
vn -0.7135 0.6601 -0.2348
vn -0.7221 0.6516 -0.2322
vn -0.1289 0.9895 0.0658
vn -0.1807 0.9815 0.0629
vn -0.1723 0.9765 0.1293
vn -0.6860 0.6160 0.3871
vn -0.6710 0.6079 0.4246
vn -0.1772 0.9765 0.1227
vn -0.1300 0.9756 0.1770
vn -0.8097 -0.0000 0.5869
vn -0.6501 -0.0000 0.7598
vn -0.6343 0.6284 0.4503
vn -0.6273 0.6272 0.4616
vn 1.0000 -0.0000 0.0050
vn 0.9873 -0.0000 0.1587
vn -0.1362 0.9907 0.0001
vn -0.2517 0.9623 0.1034
vn -0.2013 0.9669 0.1569
vn 0.9999 -0.0000 -0.0157
vn -0.5462 -0.0000 0.8377
vn 0.6500 -0.0000 -0.7599
vn 0.7004 -0.0000 -0.7137
vn -0.0000 1.0000 -0.0000
vn 0.9141 -0.0000 0.4055
vn 0.6264 -0.0000 -0.7795
vn -0.6728 0.3076 0.6728
vn -0.6930 0.1988 0.6930
vn -0.1916 0.1877 0.9634
vn -0.1879 0.2950 0.9369
vn 0.8097 -0.0000 0.5869
vn -0.0000 0.2921 0.9564
vn -0.0000 0.3963 0.9181
vn -0.1817 0.4063 0.8955
vn 0.7683 -0.0000 -0.6401
vn -0.2827 0.9592 0.0106
vn -0.3906 -0.0000 -0.9206
vn 0.8642 -0.0000 -0.5031
vn -0.1894 0.9819 -0.0005
vn -0.1812 0.9678 0.1750
vn 0.9609 -0.0000 -0.2770
vn -0.9369 0.2950 0.1879
vn -0.9634 0.1877 0.1916
vn -0.0000 0.2921 -0.9564
vn -0.0000 0.1842 -0.9829
vn -0.2805 0.9570 -0.0743
vn -0.9369 0.2950 -0.1879
vn -0.9634 0.1877 -0.1916
vn -0.3511 0.8101 -0.4694
vn -0.6388 0.4287 0.6388
vn -0.8955 0.4063 0.1817
vn 0.6728 0.3076 0.6728
vn 0.1879 0.2950 0.9369
vn 0.1916 0.1877 0.9634
vn 0.6930 0.1988 0.6930
vn 0.9369 0.2950 0.1879
vn 0.9634 0.1877 0.1916
vn 0.9369 0.2950 -0.1879
vn 0.9634 0.1877 -0.1916
vn 0.6728 0.3076 -0.6728
vn 0.6930 0.1988 -0.6930
vn 0.1879 0.2950 -0.9369
vn 0.1916 0.1877 -0.9634
vn -0.8955 0.4063 -0.1817
vn -0.6388 0.4287 -0.6388
vn -0.0000 0.1842 0.9829
vn 0.1817 0.4063 0.8955
vn 0.6388 0.4287 0.6388
vn 0.8955 0.4063 0.1817
vn 0.8955 0.4063 -0.1817
vn 0.6388 0.4287 -0.6388
vn 0.1817 0.4063 -0.8955
vn -0.0000 0.3964 -0.9181
vn -0.1817 0.4063 -0.8955
vn -0.0000 0.3964 0.9181
vt 0.454704 0.103160
vt 0.431436 0.108351
vt 0.408028 0.055189
vt 0.443355 0.049729
vt 0.480429 0.107561
vt 0.484094 0.144474
vt 0.466955 0.145354
vt 0.501362 0.118328
vt 0.502743 0.145590
vt 0.526039 0.142454
vt 0.504407 0.083980
vt 0.519244 0.115777
vt 0.413484 0.122180
vt 0.383349 0.072754
vt 0.392253 0.163294
vt 0.355805 0.135590
vt 0.367874 0.098327
vt 0.401116 0.140682
vt 0.380402 0.218740
vt 0.339298 0.212885
vt 0.345600 0.172688
vt 0.385081 0.189467
vt 0.378944 0.243618
vt 0.337177 0.243773
vt 0.381067 0.278180
vt 0.340591 0.285040
vt 0.389273 0.315013
vt 0.352433 0.333864
vt 0.402670 0.345440
vt 0.370904 0.374942
vt 0.420696 0.370690
vt 0.396097 0.411006
vt 0.441985 0.390252
vt 0.426670 0.443776
vt 0.551015 0.314875
vt 0.517863 0.287135
vt 0.556986 0.300318
vt 0.588735 0.327729
vt 0.568534 0.348556
vt 0.606556 0.365284
vt 0.565820 0.380327
vt 0.604894 0.408652
vt 0.549884 0.404133
vt 0.583745 0.448153
vt 0.524290 0.414598
vt 0.550977 0.471634
vt 0.468256 0.404285
vt 0.453279 0.345267
vt 0.468292 0.350359
vt 0.495699 0.411708
vt 0.511149 0.477366
vt 0.468337 0.467970
vt 0.495449 0.345316
vt 0.483327 0.351242
vt 0.505108 0.333154
vt 0.510977 0.318381
vt 0.514902 0.302903
vt 0.441159 0.336281
vt 0.429946 0.321802
vt 0.420366 0.299873
vt 0.414930 0.272547
vt 0.413973 0.243385
vt 0.415446 0.223398
vt 0.418853 0.202084
vt 0.423365 0.184917
vt 0.429653 0.171298
vt 0.439210 0.159379
vt 0.451482 0.149956
vt 0.477516 0.060205
vt 0.521650 0.146076
vt 0.109133 0.118328
vt 0.130066 0.107561
vt 0.126401 0.144474
vt 0.107752 0.145590
vt 0.132979 0.060205
vt 0.167140 0.049729
vt 0.155791 0.103160
vt 0.229428 0.278180
vt 0.231551 0.243618
vt 0.273318 0.243773
vt 0.269904 0.285040
vt 0.599919 0.667235
vt 0.612621 0.636155
vt 0.631872 0.659729
vt 0.612291 0.680635
vt 0.230093 0.218740
vt 0.225414 0.189467
vt 0.264895 0.172688
vt 0.271197 0.212885
vt 0.645862 0.688892
vt 0.622774 0.702028
vt 0.654206 0.724489
vt 0.628491 0.729117
vt 0.142239 0.404285
vt 0.142203 0.350359
vt 0.157216 0.345267
vt 0.168510 0.390252
vt 0.114796 0.411708
vt 0.127168 0.351242
vt 0.169336 0.336281
vt 0.189799 0.370690
vt 0.180549 0.321802
vt 0.190129 0.299873
vt 0.221222 0.315013
vt 0.207825 0.345440
vt 0.115046 0.345316
vt 0.086205 0.414598
vt 0.060611 0.404133
vt 0.105387 0.333154
vt 0.099518 0.318381
vt 0.044675 0.380327
vt 0.041961 0.348556
vt 0.095593 0.302903
vt 0.005601 0.408651
vt 0.003939 0.365284
vt 0.021760 0.327729
vt 0.059480 0.314875
vt 0.239591 0.374942
vt 0.214398 0.411006
vt 0.084457 0.142454
vt 0.091251 0.115777
vt 0.106088 0.083980
vt 0.258062 0.333864
vt 0.143541 0.145354
vt 0.179059 0.108351
vt 0.159013 0.149956
vt 0.202467 0.055189
vt 0.195565 0.272547
vt 0.196522 0.243385
vt 0.197011 0.122180
vt 0.227146 0.072754
vt 0.195049 0.223398
vt 0.191642 0.202084
vt 0.183825 0.443776
vt 0.026750 0.448153
vt 0.142158 0.467970
vt 0.099346 0.477366
vt 0.092632 0.287135
vt 0.059518 0.471634
vt 0.656207 0.758021
vt 0.629224 0.758021
vt 0.218242 0.163294
vt 0.209379 0.140682
vt 0.242621 0.098327
vt 0.254690 0.135590
vt 0.053509 0.300318
vt 0.586789 0.659909
vt 0.589696 0.619084
vt 0.962543 0.356030
vt 0.962543 0.340470
vt 0.973355 0.340470
vt 0.973355 0.356030
vt 0.962543 0.296171
vt 0.962543 0.281137
vt 0.973355 0.281137
vt 0.973355 0.296171
vt 0.820169 0.003904
vt 0.820169 0.030847
vt 0.809355 0.030847
vt 0.809355 0.003904
vt 0.962543 0.262902
vt 0.973355 0.262902
vt 0.962543 0.123904
vt 0.962543 0.109107
vt 0.973355 0.109107
vt 0.973355 0.123904
vt 0.820169 0.065450
vt 0.809355 0.065450
vt 0.879164 0.046597
vt 0.879164 0.006265
vt 0.889978 0.006265
vt 0.889978 0.046597
vt 0.962543 0.239082
vt 0.973355 0.239083
vt 0.879164 0.337384
vt 0.879164 0.293767
vt 0.889978 0.293767
vt 0.889978 0.337384
vt 0.820169 0.100519
vt 0.809355 0.100519
vt 0.962543 0.211401
vt 0.973355 0.211402
vt 0.879164 0.253907
vt 0.879164 0.214045
vt 0.889978 0.214045
vt 0.889978 0.253907
vt 0.820169 0.135482
vt 0.809355 0.135482
vt 0.962543 0.182492
vt 0.962543 0.162712
vt 0.973355 0.162712
vt 0.973355 0.182492
vt 0.962543 0.326993
vt 0.962543 0.311976
vt 0.973355 0.311976
vt 0.973355 0.326993
vt 0.962543 0.402951
vt 0.962543 0.387317
vt 0.973355 0.387317
vt 0.973355 0.402951
vt 0.879164 0.385436
vt 0.889978 0.385436
vt 0.820169 0.170624
vt 0.809355 0.170624
vt 0.962543 0.141417
vt 0.973355 0.141417
vt 0.820169 0.200409
vt 0.809354 0.200409
vt 0.962543 0.078772
vt 0.962543 0.062887
vt 0.973355 0.062887
vt 0.973355 0.078772
vt 0.879164 0.170005
vt 0.889978 0.170005
vt 0.962543 0.046120
vt 0.973355 0.046120
vt 0.879164 0.128037
vt 0.889978 0.128037
vt 0.962543 0.094045
vt 0.973355 0.094045
vt 0.962543 0.027914
vt 0.962543 0.009471
vt 0.973355 0.009471
vt 0.973355 0.027914
vt 0.879164 0.087649
vt 0.889978 0.087649
vt 0.820168 0.229922
vt 0.809354 0.229922
vt 0.962543 0.371691
vt 0.973355 0.371691
vt 0.911505 0.832593
vt 0.910141 0.859500
vt 0.902317 0.893206
vt 0.895503 0.861060
vt 0.877836 0.876416
vt 0.880977 0.921032
vt 0.853282 0.886234
vt 0.849869 0.936989
vt 0.829402 0.885253
vt 0.814727 0.936987
vt 0.809788 0.874229
vt 0.788492 0.922889
vt 0.795712 0.857413
vt 0.770890 0.899200
vt 0.785419 0.835877
vt 0.756307 0.863300
vt 0.777133 0.810631
vt 0.744686 0.827108
vt 0.771736 0.782201
vt 0.737625 0.787900
vt 0.769945 0.758021
vt 0.735636 0.758021
vt 0.771946 0.724489
vt 0.739248 0.718604
vt 0.780290 0.688892
vt 0.750934 0.672189
vt 0.794280 0.659729
vt 0.769270 0.632649
vt 0.813531 0.636155
vt 0.795866 0.597789
vt 0.836456 0.619084
vt 0.830127 0.568267
vt 0.864266 0.608903
vt 0.874577 0.550019
vt 0.890857 0.609219
vt 0.918119 0.547475
vt 0.913296 0.620761
vt 0.955998 0.559881
vt 0.928930 0.641339
vt 0.983335 0.588891
vt 0.935271 0.668544
vt 0.995429 0.631237
vt 0.931737 0.695324
vt 0.987778 0.672500
vt 0.927275 0.724471
vt 0.887143 0.728470
vt 0.888579 0.712901
vt 0.888941 0.697276
vt 0.887032 0.681730
vt 0.880409 0.667647
vt 0.869862 0.659253
vt 0.854963 0.657354
vt 0.839363 0.659909
vt 0.826233 0.667235
vt 0.813861 0.680635
vt 0.803378 0.702028
vt 0.797662 0.729117
vt 0.796928 0.758021
vt 0.798766 0.777719
vt 0.802863 0.798619
vt 0.808181 0.815308
vt 0.815543 0.828147
vt 0.826408 0.838581
vt 0.839862 0.845815
vt 0.855708 0.846963
vt 0.872083 0.843349
vt 0.889068 0.836784
vt 0.906380 0.830418
vt 0.963143 0.704505
vt 0.962543 0.003904
vt 0.973355 0.003904
vt 0.187130 0.184917
vt 0.180842 0.171298
vt 0.171285 0.159379
vt 0.906235 0.044253
vt 0.895418 0.044253
vt 0.895418 0.003910
vt 0.906235 0.003910
vt 0.713076 0.568267
vt 0.596026 0.568267
vt 0.583142 0.537123
vt 0.713076 0.537123
vt 0.981170 0.003910
vt 0.991982 0.003910
vt 0.991982 0.019544
vt 0.981170 0.019544
vt 0.981171 0.066390
vt 0.991983 0.066390
vt 0.991983 0.079867
vt 0.981171 0.079867
vt 0.838795 0.320679
vt 0.827983 0.320679
vt 0.827983 0.286083
vt 0.838795 0.286083
vt 0.906234 0.211746
vt 0.895418 0.211746
vt 0.895418 0.167694
vt 0.906234 0.167694
vt 0.981171 0.265440
vt 0.991983 0.265440
vt 0.991983 0.282953
vt 0.981171 0.282953
vt 0.981171 0.378942
vt 0.991983 0.378942
vt 0.991983 0.397384
vt 0.981171 0.397384
vt 0.991983 0.297750
vt 0.981171 0.297750
vt 0.991983 0.094884
vt 0.981171 0.094884
vt 0.838794 0.180930
vt 0.827983 0.180930
vt 0.827983 0.151152
vt 0.838794 0.151152
vt 0.981171 0.125722
vt 0.991983 0.125722
vt 0.991983 0.143957
vt 0.981171 0.143957
vt 0.838794 0.251022
vt 0.827983 0.251022
vt 0.827983 0.216066
vt 0.838794 0.216066
vt 0.906234 0.291488
vt 0.895418 0.291488
vt 0.895418 0.251618
vt 0.906234 0.251618
vt 0.981171 0.110689
vt 0.991983 0.110689
vt 0.838795 0.347617
vt 0.827983 0.347617
vt 0.981171 0.195457
vt 0.991983 0.195457
vt 0.991983 0.224366
vt 0.981171 0.224366
vt 0.991983 0.312811
vt 0.981171 0.312811
vt 0.713076 0.672189
vt 0.675218 0.672189
vt 0.656882 0.632649
vt 0.713076 0.632649
vt 0.981171 0.244145
vt 0.991983 0.244145
vt 0.981171 0.050830
vt 0.991983 0.050830
vt 0.713076 0.468878
vt 0.584531 0.468878
vt 0.600387 0.433593
vt 0.713076 0.433593
vt 0.906234 0.383182
vt 0.895418 0.383182
vt 0.895418 0.335118
vt 0.906234 0.335118
vt 0.981171 0.167776
vt 0.991983 0.167776
vt 0.260380 0.633465
vt 0.246654 0.646947
vt 0.216397 0.615832
vt 0.237841 0.607367
vt 0.846608 0.241141
vt 0.857420 0.241141
vt 0.857420 0.274226
vt 0.846608 0.274226
vt 0.981171 0.328084
vt 0.991983 0.328084
vt 0.991983 0.343969
vt 0.981171 0.343969
vt 0.279698 0.674979
vt 0.287063 0.656700
vt 0.088845 0.146076
vt 0.991983 0.360735
vt 0.981171 0.360735
vt 0.281805 0.171526
vt 0.273065 0.134371
vt 0.289578 0.134415
vt 0.294340 0.171446
vt 0.895418 0.125715
vt 0.906235 0.125715
vt 0.296445 0.211967
vt 0.305247 0.171399
vt 0.305247 0.211884
vt 0.846609 0.003905
vt 0.857421 0.003905
vt 0.857421 0.034862
vt 0.846609 0.034862
vt 0.827982 0.121645
vt 0.838794 0.121645
vt 0.981170 0.035170
vt 0.991982 0.035170
vt 0.548317 0.876416
vt 0.545175 0.921032
vt 0.523835 0.893206
vt 0.530650 0.861061
vt 0.596751 0.885253
vt 0.611425 0.936987
vt 0.576283 0.936989
vt 0.572870 0.886234
vt 0.288528 0.243628
vt 0.286719 0.212135
vt 0.296974 0.243579
vt 0.827983 0.102762
vt 0.838794 0.102762
vt 0.579587 0.504225
vt 0.713076 0.504225
vt 0.846608 0.166778
vt 0.857420 0.166778
vt 0.857420 0.205456
vt 0.846608 0.205456
vt 0.271966 0.610066
vt 0.305247 0.610619
vt 0.305247 0.668227
vt 0.827983 0.079934
vt 0.838794 0.079934
vt 0.846609 0.078151
vt 0.857420 0.078151
vt 0.857420 0.121489
vt 0.846609 0.121489
vt 0.713076 0.758021
vt 0.690516 0.758021
vt 0.686904 0.718604
vt 0.713076 0.718604
vt 0.630286 0.597789
vt 0.713076 0.597789
vt 0.535295 0.609219
vt 0.508033 0.547475
vt 0.551576 0.550019
vt 0.561886 0.608904
vt 0.497222 0.641339
vt 0.442818 0.588891
vt 0.470154 0.559881
vt 0.512857 0.620761
vt 0.494415 0.695324
vt 0.438375 0.672500
vt 0.430723 0.631237
vt 0.490881 0.668544
vt 0.537573 0.712901
vt 0.537211 0.697276
vt 0.539120 0.681730
vt 0.545744 0.667647
vt 0.556291 0.659253
vt 0.571189 0.657354
vt 0.498877 0.724471
vt 0.539009 0.728471
vt 0.688527 0.787900
vt 0.654416 0.782201
vt 0.681466 0.827108
vt 0.649020 0.810631
vt 0.669845 0.863300
vt 0.640733 0.835877
vt 0.655262 0.899200
vt 0.630440 0.857413
vt 0.637661 0.922889
vt 0.616365 0.874229
vt 0.514647 0.832593
vt 0.516011 0.859500
vt 0.906235 0.085316
vt 0.895418 0.085316
vt 0.321967 0.243628
vt 0.324542 0.285980
vt 0.335066 0.335658
vt 0.350856 0.377551
vt 0.374339 0.415466
vt 0.399423 0.446202
vt 0.323521 0.103936
vt 0.305247 0.104002
vt 0.305247 0.082126
vt 0.323714 0.081874
vt 0.328007 0.016033
vt 0.317307 0.032598
vt 0.305247 0.026051
vt 0.305247 0.004388
vt 0.320917 0.134415
vt 0.305247 0.134370
vt 0.316155 0.171446
vt 0.438436 0.475570
vt 0.411016 0.476462
vt 0.413212 0.508009
vt 0.441313 0.508429
vt 0.436251 0.543648
vt 0.408106 0.541881
vt 0.420705 0.579177
vt 0.393680 0.575983
vt 0.394098 0.615832
vt 0.372654 0.607367
vt 0.313521 0.243579
vt 0.305247 0.243583
vt 0.314050 0.211967
vt 0.305247 0.062662
vt 0.321618 0.062308
vt 0.359937 0.057188
vt 0.339382 0.061976
vt 0.330239 0.044977
vt 0.346811 0.034890
vt 0.367074 0.079173
vt 0.343510 0.081027
vt 0.314814 0.286053
vt 0.321843 0.335797
vt 0.323776 0.212135
vt 0.358110 0.475626
vt 0.361984 0.507388
vt 0.349367 0.575326
vt 0.338529 0.610066
vt 0.358066 0.541381
vt 0.349241 0.444676
vt 0.328690 0.171526
vt 0.337430 0.134371
vt 0.343523 0.102456
vt 0.338900 0.414679
vt 0.327685 0.377965
vt 0.305247 0.286267
vt 0.305247 0.336010
vt 0.305247 0.377992
vt 0.305247 0.414568
vt 0.305247 0.444394
vt 0.305247 0.475158
vt 0.305247 0.507067
vt 0.305247 0.541157
vt 0.305247 0.575117
vt 0.350114 0.633465
vt 0.323432 0.656700
vt 0.330797 0.674979
vt 0.305247 0.692510
vt 0.363841 0.646947
vt 0.570445 0.846964
vt 0.554069 0.843349
vt 0.627387 0.777719
vt 0.261128 0.575326
vt 0.252429 0.541381
vt 0.937257 0.403118
vt 0.913249 0.403118
vt 0.913249 0.385014
vt 0.937257 0.385014
vt 0.243421 0.079173
vt 0.250558 0.057188
vt 0.271113 0.061976
vt 0.266985 0.081027
vt 0.261254 0.444676
vt 0.271595 0.414679
vt 0.820169 0.323088
vt 0.820169 0.347682
vt 0.809355 0.347682
vt 0.809355 0.323088
vt 0.216815 0.575983
vt 0.189790 0.579177
vt 0.282810 0.377965
vt 0.288652 0.335797
vt 0.199479 0.476462
vt 0.197283 0.508009
vt 0.169182 0.508429
vt 0.172059 0.475570
vt 0.623289 0.798619
vt 0.285953 0.285980
vt 0.863274 0.039522
vt 0.863274 0.005817
vt 0.874088 0.005817
vt 0.874088 0.039522
vt 0.259639 0.377551
vt 0.275429 0.335658
vt 0.286974 0.103936
vt 0.286781 0.081874
vt 0.266972 0.102456
vt 0.537084 0.836784
vt 0.202389 0.541881
vt 0.174244 0.543648
vt 0.236156 0.415466
vt 0.211072 0.446202
vt 0.713076 0.827108
vt 0.713076 0.787900
vt 0.282488 0.016033
vt 0.293188 0.032598
vt 0.519772 0.830418
vt 0.295681 0.286053
vt 0.857420 0.307924
vt 0.846608 0.307924
vt 0.252385 0.475626
vt 0.288877 0.062308
vt 0.713076 0.939803
vt 0.662404 0.939803
vt 0.655356 0.918087
vt 0.713076 0.918087
vt 0.713076 0.899200
vt 0.713076 0.863300
vt 0.838795 0.054489
vt 0.827983 0.054489
vt 0.827983 0.028498
vt 0.838795 0.028498
vt 0.263684 0.034890
vt 0.280256 0.044977
vt 0.820169 0.248809
vt 0.809354 0.248809
vt 0.248511 0.507388
vt 0.863274 0.072613
vt 0.874088 0.072613
vt 0.827983 0.003909
vt 0.838795 0.003909
vt 0.713076 0.317011
vt 0.713076 0.365543
vt 0.656919 0.365543
vt 0.688941 0.336405
vt 0.863274 0.278931
vt 0.863274 0.235634
vt 0.874088 0.235634
vt 0.874088 0.278931
vt 0.669592 0.176806
vt 0.669592 0.227961
vt 0.650810 0.227961
vt 0.650810 0.176806
vt 0.713076 0.961871
vt 0.675079 0.961871
vt 0.713076 0.397047
vt 0.627148 0.397047
vt 0.820169 0.271641
vt 0.809354 0.271641
vt 0.863274 0.309894
vt 0.874088 0.309894
vt 0.937257 0.325483
vt 0.913249 0.325483
vt 0.913249 0.307379
vt 0.937257 0.307379
vt 0.820169 0.297091
vt 0.809355 0.297092
vt 0.937257 0.255447
vt 0.954723 0.255447
vt 0.954723 0.307379
vt 0.863274 0.192288
vt 0.874088 0.192288
vt 0.991983 0.402951
vt 0.981171 0.402951
vt 0.599744 0.838581
vt 0.586290 0.845815
vt 0.863274 0.146990
vt 0.874088 0.146990
vt 0.463009 0.704505
vt 0.617971 0.815308
vt 0.610610 0.828147
vt 0.863274 0.108304
vt 0.874088 0.108304
vt 0.937257 0.343587
vt 0.913249 0.343587
vt 0.623683 0.063965
vt 0.599785 0.063527
vt 0.599785 0.011254
vt 0.623683 0.012129
vt 0.937257 0.366910
vt 0.913249 0.366910
vt 0.669592 0.246742
vt 0.656499 0.241054
vt 0.692476 0.981188
vt 0.713076 0.975874
vt 0.713076 0.994620
vt 0.825765 0.433593
vt 0.841621 0.468878
vt 0.846565 0.504225
vt 0.843010 0.537123
vt 0.770796 0.918087
vt 0.763748 0.939803
vt 0.751073 0.961871
vt 0.733676 0.981188
vt 0.769234 0.365543
vt 0.799005 0.397047
vt 0.737211 0.336405
vt 0.623683 0.115801
vt 0.599785 0.115801
vt 0.650810 0.023341
vt 0.656498 0.010248
vt 0.669592 0.004559
vt 0.669592 0.023341
vt 0.690435 0.227961
vt 0.690435 0.246742
vt 0.954723 0.325483
vt 0.954723 0.343587
vt 0.937257 0.081545
vt 0.937257 0.099648
vt 0.913249 0.099648
vt 0.913249 0.081545
vt 0.937257 0.063441
vt 0.913249 0.063441
vt 0.937257 0.040118
vt 0.913249 0.040118
vt 0.937257 0.022014
vt 0.913249 0.022014
vt 0.937257 0.003910
vt 0.913249 0.003910
vt 0.623683 0.167636
vt 0.623683 0.219472
vt 0.599785 0.220348
vt 0.599785 0.168074
vt 0.954723 0.366910
vt 0.954723 0.385014
vt 0.690435 0.125651
vt 0.690435 0.176806
vt 0.669592 0.125651
vt 0.669592 0.074496
vt 0.650810 0.074496
vt 0.747250 0.027377
vt 0.747250 -0.000419
vt 0.772569 -0.000419
vt 0.772569 0.027377
vt 0.913249 0.255447
vt 0.792224 0.007722
vt 0.800366 0.027377
vt 0.937257 0.151581
vt 0.954723 0.099648
vt 0.954723 0.151581
vt 0.747250 0.131924
vt 0.747250 0.079650
vt 0.772569 0.079650
vt 0.772569 0.131924
vt 0.954723 0.081545
vt 0.954723 0.063441
vt 0.690435 0.023341
vt 0.690435 0.004559
vt 0.954723 0.040118
vt 0.954723 0.022014
vt 0.709216 0.023341
vt 0.703528 0.010248
vt 0.954723 0.003910
vt 0.709216 0.074496
vt 0.709216 0.125651
vt 0.690435 0.074496
vt 0.709216 0.227961
vt 0.703528 0.241054
vt 0.800366 0.079650
vt 0.709216 0.176806
vt 0.913249 0.203514
vt 0.937257 0.203514
vt 0.640967 0.064646
vt 0.640967 0.115801
vt 0.640967 0.166955
vt 0.954723 0.403118
vt 0.913249 0.151581
vt 0.772569 0.184197
vt 0.800366 0.184197
vt 0.800366 0.236470
vt 0.772569 0.236470
vt 0.792224 0.256125
vt 0.772569 0.264267
vt 0.719454 0.184197
vt 0.747250 0.184197
vt 0.747250 0.236470
vt 0.719454 0.236470
vt 0.747250 0.264267
vt 0.727595 0.256125
vt 0.719454 0.079650
vt 0.719454 0.027377
vt 0.727595 0.007722
vt 0.719454 0.131924
vt 0.800366 0.131924
vt 0.640967 0.218109
vt 0.954723 0.203514
vt 0.650810 0.125651
vt 0.640967 0.013492
s 1
f 43/1/1 42/2/2 28/3/3 29/4/4
f 48/5/5 34/6/6 3/7/7 43/1/8
f 49/8/9 2/9/10 34/6/6 48/5/5
f 33/10/11 49/8/12 31/11/13 32/12/11
f 129/13/14 127/14/15 28/3/3 42/2/2
f 126/15/16 125/16/17 27/17/18 47/18/19
f 51/19/20 25/20/21 26/21/22 50/22/23
f 52/23/24 256/24/25 25/20/21 51/19/20
f 53/25/26 24/26/27 256/24/25 52/23/24
f 46/27/28 278/28/29 24/26/27 53/25/26
f 54/29/30 23/30/31 278/28/29 46/27/28
f 55/31/32 22/32/33 23/30/31 54/29/30
f 45/33/34 259/34/35 22/32/33 55/31/32
f 56/35/36 12/36/37 13/37/37 14/38/38
f 57/39/39 56/35/36 14/38/38 15/40/40
f 58/41/41 57/39/39 15/40/40 16/42/42
f 59/43/43 58/41/41 16/42/42 17/44/44
f 61/45/45 59/43/43 17/44/44 41/46/46
f 60/47/47 45/33/48 21/48/49 19/49/50
f 60/47/51 44/50/52 18/51/53 20/52/54
f 61/45/45 41/46/46 18/51/53 44/50/52
f 40/53/55 61/45/56 44/50/57 39/54/58
f 19/49/50 39/54/58 44/50/57 60/47/47
f 20/52/54 259/34/35 45/33/34 60/47/51
f 40/53/55 11/55/59 59/43/60 61/45/56
f 11/55/59 38/56/61 58/41/62 59/43/60
f 38/56/61 37/57/63 57/39/64 58/41/62
f 37/57/63 12/36/65 56/35/65 57/39/64
f 21/48/49 45/33/48 55/31/66 10/58/67
f 10/58/67 55/31/66 54/29/68 9/59/69
f 9/59/69 54/29/68 46/27/70 8/60/71
f 8/60/71 46/27/70 53/25/72 36/61/73
f 36/61/73 53/25/72 52/23/74 7/62/75
f 7/62/75 52/23/74 51/19/76 6/63/77
f 6/63/77 51/19/76 50/22/78 5/64/79
f 124/65/80 126/15/81 47/18/82 35/66/83
f 128/67/84 129/13/85 42/2/86 4/68/87
f 31/11/13 49/8/12 48/5/88 30/69/89
f 30/69/89 48/5/88 43/1/1 29/4/4
f 3/7/7 4/68/87 42/2/86 43/1/8
f 1/70/90 2/9/10 49/8/9 33/10/90
f 110/71/91 109/72/92 95/73/93 63/74/94
f 91/75/95 90/76/96 104/77/97 109/72/98
f 114/78/99 113/79/100 325/80/101 85/81/102
f 207/82/103 247/83/103 246/84/103 206/85/103
f 112/86/104 111/87/105 87/88/106 86/89/107
f 206/85/103 246/84/103 245/90/103 205/91/103
f 205/91/103 245/90/103 244/92/103 204/93/103
f 121/94/108 80/95/109 82/96/110 106/97/111
f 80/95/109 121/94/108 105/98/112 100/99/113
f 82/96/110 71/100/114 116/101/115 106/97/111
f 70/102/116 69/103/117 107/104/118 115/105/119
f 101/106/120 122/107/121 120/108/122 72/109/123
f 99/110/124 119/111/125 118/112/126 98/113/127
f 101/106/120 100/99/113 105/98/112 122/107/121
f 119/111/128 77/114/129 76/115/130 118/112/131
f 118/112/131 76/115/130 75/116/132 117/117/133
f 116/101/134 115/105/135 84/118/136 83/119/137
f 94/120/138 93/121/138 92/122/139 110/71/140
f 107/104/141 114/78/99 85/81/102 337/123/142
f 64/124/143 104/77/144 103/125/145 65/126/146
f 104/77/97 90/76/96 89/127/147 103/125/148
f 113/79/100 112/86/104 86/89/107 325/80/101
f 97/128/149 68/129/150 113/79/151 114/78/152
f 194/130/153 103/125/148 89/127/147 192/131/154
f 67/132/155 66/133/156 111/87/157 112/86/158
f 115/105/135 107/104/141 337/123/142 84/118/136
f 106/97/159 116/101/134 83/119/137 326/134/160
f 120/108/161 78/135/162 77/114/129 119/111/128
f 121/94/163 81/136/164 79/137/165 105/98/166
f 71/100/114 70/102/116 115/105/119 116/101/115
f 81/136/164 121/94/163 106/97/159 326/134/160
f 69/103/117 97/128/149 114/78/152 107/104/118
f 72/109/123 120/108/122 119/111/125 99/110/124
f 98/113/127 118/112/126 117/117/167 73/138/167
f 122/107/168 105/98/166 79/137/165 102/139/169
f 122/107/168 102/139/169 78/135/162 120/108/161
f 204/93/103 244/92/103 243/140/103 203/141/103
f 191/142/170 108/143/171 88/144/172 190/145/173
f 117/117/133 75/116/132 74/146/174 73/138/174
f 68/129/150 67/132/155 112/86/158 113/79/151
f 109/72/92 104/77/144 64/124/143 95/73/93
f 220/147/103 248/148/103 247/83/103 207/82/103
f 5/64/79 50/22/78 126/15/81 124/65/80
f 50/22/23 26/21/22 125/16/17 126/15/16
f 35/66/83 47/18/82 129/13/85 128/67/84
f 47/18/19 27/17/18 127/14/15 129/13/14
f 11/149/175 40/150/176 143/151/176 144/152/175
f 21/153/177 10/154/178 142/155/178 155/156/177
f 33/157/179 32/158/180 162/159/180 163/160/179
f 10/154/178 9/161/181 141/162/181 142/155/178
f 124/163/182 35/164/183 165/165/183 135/166/182
f 32/158/180 31/167/184 161/168/184 162/159/180
f 13/169/185 12/170/186 168/171/186 145/172/185
f 9/161/181 8/173/187 140/174/187 141/162/181
f 20/175/188 18/176/189 151/177/189 154/178/188
f 31/167/184 30/179/190 160/180/190 161/168/184
f 8/173/187 36/181/191 139/182/191 140/174/187
f 41/183/192 17/184/193 149/185/193 152/186/192
f 30/179/190 29/187/194 159/188/194 160/180/190
f 7/189/195 6/190/196 137/191/196 138/192/195
f 36/181/191 7/189/195 138/192/195 139/182/191
f 39/193/197 19/194/198 153/195/198 150/196/197
f 12/197/199 37/198/200 167/199/200 168/200/199
f 259/201/201 20/175/188 154/178/188 354/202/201
f 29/187/194 28/203/202 158/204/202 159/188/194
f 6/190/196 5/205/203 136/206/203 137/191/196
f 18/176/189 41/183/192 152/186/192 151/177/189
f 28/203/202 127/207/204 157/208/204 158/204/202
f 5/205/203 124/163/182 135/166/182 136/206/203
f 40/150/176 39/193/197 150/196/197 143/151/176
f 19/194/198 21/153/177 155/156/177 153/195/198
f 4/209/205 3/210/206 133/211/206 134/212/205
f 17/184/193 16/213/207 148/214/207 149/185/193
f 3/210/206 34/215/208 132/216/208 133/211/206
f 16/213/207 15/217/209 147/218/209 148/214/207
f 128/219/210 4/209/205 134/212/205 164/220/210
f 2/221/211 1/222/212 130/223/212 131/224/211
f 35/164/183 128/219/210 164/220/210 165/165/183
f 15/217/209 14/225/213 146/226/213 147/218/209
f 127/207/204 27/227/214 344/228/214 157/208/204
f 38/229/215 11/149/175 144/152/175 166/230/215
f 14/225/213 13/169/185 145/172/185 146/226/213
f 37/198/200 38/229/215 166/230/215 167/199/200
f 163/231/103 162/232/103 161/233/103 169/234/103
f 170/235/103 169/234/103 161/233/103 160/236/103
f 171/237/103 170/235/103 160/236/103 159/238/103
f 172/239/103 171/237/103 159/238/103 158/240/103
f 173/241/103 172/239/103 158/240/103 157/242/103
f 174/243/103 173/241/103 157/242/103 344/244/103
f 175/245/103 174/243/103 344/244/103 349/246/103
f 176/247/103 175/245/103 349/246/103 353/248/103
f 177/249/103 176/247/103 353/248/103 156/250/103
f 178/251/103 177/249/103 156/250/103 345/252/103
f 179/253/103 178/251/103 345/252/103 346/254/103
f 180/255/103 179/253/103 346/254/103 350/256/103
f 181/257/103 180/255/103 350/256/103 351/258/103
f 182/259/103 181/257/103 351/258/103 352/260/103
f 183/261/103 182/259/103 352/260/103 354/262/103
f 184/263/103 183/261/103 354/262/103 154/264/103
f 185/265/103 184/263/103 154/264/103 151/266/103
f 186/267/103 185/265/103 151/266/103 152/268/103
f 187/269/103 186/267/103 152/268/103 149/270/103
f 188/271/103 187/269/103 149/270/103 148/272/103
f 189/273/103 188/271/103 148/272/103 147/274/103
f 145/275/103 168/276/103 167/277/103 189/273/103
f 167/277/103 166/278/103 188/271/103 189/273/103
f 166/278/103 144/279/103 187/269/103 188/271/103
f 144/279/103 143/280/103 186/267/103 187/269/103
f 143/280/103 150/281/103 185/265/103 186/267/103
f 150/281/103 153/282/103 184/263/103 185/265/103
f 153/282/103 155/283/103 183/261/103 184/263/103
f 155/283/103 142/284/103 182/259/103 183/261/103
f 142/284/103 141/285/103 181/257/103 182/259/103
f 141/285/103 140/286/103 180/255/103 181/257/103
f 140/286/103 139/287/103 179/253/103 180/255/103
f 139/287/103 138/288/103 178/251/103 179/253/103
f 138/288/103 137/289/103 177/249/103 178/251/103
f 137/289/103 136/290/103 176/247/103 177/249/103
f 136/290/103 135/291/103 175/245/103 176/247/103
f 135/291/103 165/292/103 174/243/103 175/245/103
f 165/292/103 164/293/103 173/241/103 174/243/103
f 164/293/103 134/294/103 172/239/103 173/241/103
f 134/294/103 133/295/103 171/237/103 172/239/103
f 133/295/103 132/296/103 170/235/103 171/237/103
f 132/296/103 131/297/103 169/234/103 170/235/103
f 130/298/103 163/231/103 169/234/103 131/297/103
f 146/299/103 145/275/103 189/273/103 147/274/103
f 1/222/212 33/300/216 163/301/216 130/223/212
f 34/215/208 2/221/211 131/224/211 132/216/208
f 123/302/217 96/303/218 108/143/219 191/142/220
f 193/304/221 65/126/146 103/125/145 194/130/222
f 92/122/139 91/75/95 109/72/98 110/71/140
f 74/305/223 210/306/223 233/307/224 73/308/224
f 388/309/103 438/310/103 453/311/103 387/312/103
f 73/313/225 233/314/225 232/315/226 98/316/226
f 101/317/227 208/318/227 215/319/228 100/320/228
f 93/321/229 227/322/229 226/323/230 92/324/230
f 78/325/231 214/326/231 213/327/232 77/328/232
f 66/329/233 201/330/233 200/331/234 123/332/234
f 63/333/235 196/334/235 195/335/236 62/336/236
f 123/332/234 200/331/234 230/337/237 96/338/237
f 100/320/228 215/319/228 218/339/238 80/340/238
f 89/341/239 223/342/239 222/343/240 192/344/240
f 71/345/241 207/346/241 206/347/242 70/348/242
f 91/349/243 225/350/243 224/351/244 90/352/244
f 79/353/245 216/354/245 217/355/246 102/356/246
f 82/357/247 220/358/247 207/346/241 71/345/241
f 94/359/248 228/360/248 227/322/229 93/321/229
f 97/361/249 204/362/249 203/363/250 68/364/250
f 96/338/237 230/337/237 229/365/251 193/366/251
f 391/367/103 434/368/103 435/369/103 390/370/103
f 67/371/252 202/372/252 201/330/233 66/329/233
f 72/373/253 209/374/253 208/318/227 101/317/227
f 68/364/250 203/363/250 202/372/252 67/371/252
f 90/352/244 224/351/244 223/342/239 89/341/239
f 108/143/171 194/130/153 192/131/154 88/144/172
f 385/375/103 456/376/103 458/377/103 383/378/103
f 102/356/246 217/355/246 214/326/231 78/325/231
f 326/379/254 438/380/254 219/381/255 81/382/255
f 96/303/218 193/304/221 194/130/222 108/143/219
f 69/383/256 205/384/256 204/362/249 97/361/249
f 418/385/257 335/386/258 334/387/259 374/388/260
f 111/87/105 191/142/170 190/145/173 87/88/106
f 336/389/261 454/390/261 453/391/262 331/392/262
f 92/324/230 226/323/230 225/350/243 91/349/243
f 65/393/263 199/394/263 198/395/264 64/396/264
f 327/397/265 335/386/258 418/385/257 419/398/266
f 62/399/267 94/120/267 110/71/91 63/74/94
f 64/396/264 198/395/264 197/400/268 95/401/268
f 81/382/255 219/381/255 216/354/245 79/353/245
f 420/402/269 366/403/270 414/404/271 421/405/272
f 77/328/232 213/327/232 212/406/273 76/407/273
f 415/408/274 421/405/272 328/409/275 258/410/276
f 70/348/242 206/347/242 205/384/256 69/383/256
f 193/366/251 229/365/251 199/394/263 65/393/263
f 266/411/277 356/412/277 439/413/278 327/414/278
f 192/344/240 222/343/240 423/415/279 88/416/279
f 99/417/280 231/418/280 209/374/253 72/373/253
f 98/316/226 232/315/226 231/418/280 99/417/280
f 235/419/103 225/420/103 226/421/103 234/422/103
f 237/423/103 223/424/103 224/425/103 236/426/103
f 342/427/281 376/428/282 415/408/274 412/429/283
f 88/416/284 423/415/284 422/430/285 341/431/285
f 387/312/103 453/311/103 454/432/103 386/433/103
f 333/434/286 458/435/286 456/436/287 332/437/287
f 409/438/288 419/398/289 418/385/290 374/388/291
f 267/439/292 323/440/293 419/398/289 409/438/288
f 86/89/294 87/88/295 420/402/296 376/428/297
f 341/431/285 422/430/285 483/441/298 340/442/298
f 335/443/299 452/444/299 471/445/300 334/446/300
f 393/447/103 427/448/103 428/449/103 392/450/103
f 390/370/103 435/369/103 436/451/103 389/452/103
f 250/453/103 216/454/103 219/455/103 249/456/103
f 252/457/103 214/458/103 217/459/103 251/460/103
f 254/461/103 212/462/103 213/463/103 253/464/103
f 232/465/103 254/461/103 253/464/103 231/466/103
f 209/467/103 252/457/103 251/460/103 208/468/103
f 215/469/103 250/453/103 249/456/103 218/470/103
f 218/470/103 249/456/103 248/148/103 220/147/103
f 231/466/103 253/464/103 252/457/103 209/467/103
f 210/471/103 254/461/103 232/465/103 233/472/103
f 253/464/103 213/463/103 214/458/103 252/457/103
f 251/460/103 217/459/103 216/454/103 250/453/103
f 249/456/103 219/455/103 438/310/103 248/148/103
f 248/148/103 438/310/103 436/451/103 247/83/103
f 247/83/103 436/451/103 435/369/103 246/84/103
f 246/84/103 435/369/103 434/368/103 245/90/103
f 245/90/103 434/368/103 428/449/103 244/92/103
f 244/92/103 428/449/103 427/448/103 243/140/103
f 243/140/103 427/448/103 221/473/103 242/474/103
f 242/474/103 221/473/103 437/475/103 241/476/103
f 241/476/103 437/475/103 433/477/103 240/478/103
f 240/478/103 433/477/103 423/479/103 239/480/103
f 239/480/103 423/479/103 222/481/103 238/482/103
f 238/482/103 222/481/103 223/424/103 237/423/103
f 236/426/103 224/425/103 225/420/103 235/419/103
f 228/483/103 234/422/103 226/421/103 227/484/103
f 75/485/301 211/486/301 210/306/223 74/305/223
f 76/407/273 212/406/273 211/486/301 75/485/301
f 208/468/103 251/460/103 250/453/103 215/469/103
f 80/340/238 218/339/238 220/358/247 82/357/247
f 392/450/103 428/449/103 434/368/103 391/367/103
f 66/133/156 123/302/217 191/142/220 111/87/157
f 288/487/302 256/24/303 24/26/304 291/488/305
f 301/489/306 278/28/307 23/30/308 292/490/309
f 292/490/309 23/30/308 22/32/310 293/491/311
f 293/491/311 22/32/310 259/34/312 294/492/313
f 317/493/314 255/494/315 285/495/316 320/496/317
f 281/497/318 305/498/319 287/499/320 280/500/320
f 318/501/321 257/502/322 255/494/315 317/493/314
f 330/503/323 328/409/275 257/502/322 318/501/321
f 294/492/313 259/34/312 271/504/324 295/505/325
f 299/506/326 277/507/327 272/508/328 296/509/329
f 296/509/329 272/508/328 273/510/330 297/511/331
f 297/511/331 273/510/330 274/512/332 298/513/333
f 295/505/325 271/504/324 277/507/327 299/506/326
f 316/514/334 260/515/335 258/410/276 319/516/336
f 291/488/305 24/26/304 278/28/307 301/489/306
f 320/496/317 285/495/316 286/517/337 321/518/338
f 321/518/338 286/517/337 287/499/339 305/498/340
f 283/519/341 303/520/342 304/521/343 282/522/344
f 284/523/345 302/524/346 303/520/342 283/519/341
f 306/525/347 291/488/348 301/489/349 315/526/350
f 256/24/303 288/487/302 300/527/351 25/20/352
f 310/528/353 295/505/354 299/506/355 314/529/356
f 312/530/357 297/511/358 298/513/359 313/531/360
f 311/532/361 296/509/362 297/511/358 312/530/357
f 314/529/356 299/506/355 296/509/362 311/532/361
f 309/533/363 294/492/364 295/505/354 310/528/353
f 26/21/365 329/534/366 290/535/367 125/16/368
f 125/16/368 290/535/367 289/536/369 27/17/370
f 27/17/370 289/536/369 302/524/346 284/523/345
f 308/537/371 293/491/372 294/492/364 309/533/363
f 307/538/373 292/490/374 293/491/372 308/537/371
f 315/526/350 301/489/349 292/490/374 307/538/373
f 316/514/334 288/487/375 291/488/348 306/525/347
f 282/522/344 304/521/343 305/498/319 281/497/318
f 260/515/335 316/514/334 306/525/347 261/539/376
f 279/540/377 315/526/350 307/538/373 262/541/378
f 262/541/378 307/538/373 308/537/371 263/542/379
f 263/542/379 308/537/371 309/533/363 264/543/380
f 264/543/380 309/533/363 310/528/353 270/544/381
f 276/545/382 314/529/356 311/532/361 269/546/383
f 269/546/383 311/532/361 312/530/357 268/547/384
f 268/547/384 312/530/357 313/531/360 267/439/292
f 270/544/381 310/528/353 314/529/356 276/545/382
f 261/539/376 306/525/347 315/526/350 279/540/377
f 302/524/385 320/496/317 321/518/338 303/520/386
f 288/487/375 316/514/334 319/516/336 300/527/387
f 329/534/388 330/503/323 318/501/321 290/535/389
f 290/535/389 318/501/321 317/493/314 289/536/390
f 289/536/390 317/493/314 320/496/317 302/524/385
f 313/531/360 298/513/359 322/548/391 324/549/392
f 323/440/393 324/549/394 265/550/395 266/551/393
f 322/548/396 298/513/333 274/512/332 275/552/397
f 267/439/292 313/531/360 324/549/392 323/440/293
f 265/550/395 324/549/394 322/548/396 275/552/397
f 303/520/386 321/518/338 305/498/340 304/521/398
f 198/553/103 236/426/103 235/419/103 197/554/103
f 325/80/399 86/89/294 376/428/297 342/427/400
f 203/141/103 243/140/103 242/474/103 202/555/103
f 269/546/383 268/547/384 408/556/401 407/557/402
f 500/558/403 487/559/404 489/560/405 498/561/406
f 341/562/407 340/563/408 379/564/409 378/565/410
f 263/542/379 264/543/380 405/566/411 404/567/412
f 281/568/413 280/569/414 347/570/414 348/571/413
f 373/572/415 374/388/260 334/387/259 333/573/416
f 279/540/377 262/541/378 403/574/417 411/575/418
f 421/405/272 414/404/271 257/502/322 328/409/275
f 371/576/419 375/577/420 336/578/421 331/579/422
f 202/555/103 242/474/103 241/476/103 201/580/103
f 389/452/103 436/451/103 438/310/103 388/309/103
f 342/427/400 367/581/423 85/81/424 325/80/399
f 271/582/425 259/583/426 354/584/426 358/585/425
f 411/575/418 403/574/417 368/586/427 377/587/428
f 413/588/429 416/589/430 285/495/316 255/494/315
f 88/144/431 341/562/407 378/565/410 365/590/432
f 197/554/103 235/419/103 234/422/103 196/591/103
f 367/581/423 377/587/433 337/123/434 85/81/424
f 372/592/435 373/572/415 333/573/416 332/593/436
f 369/594/437 370/595/438 326/134/439 83/119/440
f 262/541/378 263/542/379 404/567/412 403/574/417
f 370/595/438 371/576/419 331/579/422 326/134/439
f 395/596/103 437/475/103 221/473/103 394/597/103
f 408/556/401 409/438/288 374/388/291 373/572/441
f 407/557/402 408/556/401 373/572/441 372/592/442
f 338/598/443 280/500/444 287/499/444 381/599/445
f 195/600/103 196/591/103 234/422/103 228/483/103
f 260/515/335 261/539/376 382/601/446 412/429/283
f 331/392/262 453/391/262 438/602/447 326/603/447
f 382/601/446 411/575/418 377/587/428 367/581/448
f 87/88/295 190/145/449 366/403/450 420/402/296
f 405/566/411 406/604/451 371/576/452 370/595/453
f 377/587/433 368/586/454 84/118/455 337/123/434
f 416/589/430 417/605/456 286/517/337 285/495/316
f 417/605/456 381/599/457 287/499/339 286/517/337
f 414/404/271 413/588/429 255/494/315 257/502/322
f 95/401/268 197/400/268 196/334/235 63/333/235
f 412/429/283 382/601/446 367/581/448 342/427/281
f 399/606/103 483/607/103 422/608/103 398/609/103
f 264/543/380 270/544/381 406/604/451 405/566/411
f 397/610/103 423/479/103 433/477/103 396/611/103
f 339/612/458 472/613/458 432/614/459 338/615/459
f 339/616/460 338/598/443 381/599/445 380/617/461
f 394/597/103 221/473/103 427/448/103 393/447/103
f 27/227/462 284/618/463 343/619/463 344/228/462
f 270/544/381 276/545/382 410/620/464 406/604/451
f 379/564/465 380/617/466 381/599/457 417/605/456
f 277/621/467 271/582/425 358/585/425 359/622/467
f 334/446/300 471/445/300 458/435/286 333/434/286
f 338/615/459 432/614/459 347/623/468 280/624/468
f 261/539/376 279/540/377 411/575/418 382/601/446
f 300/527/387 319/516/336 330/503/323 329/534/388
f 25/20/352 300/527/351 329/534/366 26/21/365
f 319/516/336 258/410/276 328/409/275 330/503/323
f 375/577/420 372/592/435 332/593/436 336/578/421
f 356/625/103 401/626/103 452/627/103 439/628/103
f 265/629/469 275/630/470 357/631/470 355/632/469
f 509/633/471 502/634/471 491/635/471 512/636/471
f 400/637/103 472/638/103 483/607/103 399/606/103
f 401/626/103 384/639/103 471/640/103 452/627/103
f 284/618/463 283/641/472 364/642/472 343/619/463
f 266/643/473 265/629/469 355/632/469 356/644/473
f 492/645/474 486/646/475 485/647/476 490/648/477
f 283/641/472 282/649/478 363/650/478 364/642/472
f 507/651/479 512/652/480 491/653/481 490/648/477
f 282/649/478 281/568/413 348/571/413 363/650/478
f 275/630/470 274/654/482 362/655/482 357/631/470
f 332/437/287 456/436/287 454/390/261 336/389/261
f 378/565/483 379/564/465 417/605/456 416/589/430
f 62/336/236 195/335/236 228/656/484 94/657/484
f 190/145/449 88/144/431 365/590/432 366/403/450
f 229/658/103 238/482/103 237/423/103 199/659/103
f 274/654/482 273/660/485 361/661/485 362/655/482
f 471/640/103 384/639/103 383/378/103 458/377/103
f 410/620/464 407/557/402 372/592/442 375/577/486
f 211/662/103 212/462/103 254/461/103 210/471/103
f 268/547/384 267/439/292 409/438/288 408/556/401
f 340/563/408 339/616/460 380/617/461 379/564/409
f 201/580/103 241/476/103 240/478/103 200/663/103
f 200/663/103 240/478/103 239/480/103 230/664/103
f 412/429/283 415/408/274 258/410/276 260/515/335
f 230/664/103 239/480/103 238/482/103 229/658/103
f 368/586/454 369/594/437 83/119/440 84/118/455
f 403/574/417 404/567/412 369/594/487 368/586/427
f 404/567/412 405/566/411 370/595/453 369/594/487
f 273/660/485 272/665/488 360/666/488 361/661/485
f 199/659/103 237/423/103 236/426/103 198/553/103
f 406/604/451 410/620/464 375/577/486 371/576/452
f 494/667/489 484/668/490 486/646/475 492/645/474
f 513/669/491 511/670/492 487/671/404 500/672/403
f 366/403/270 365/590/493 413/588/429 414/404/271
f 396/611/103 433/477/103 437/475/103 395/596/103
f 496/673/494 488/674/495 484/668/490 494/667/489
f 491/635/471 502/634/471 495/675/471 493/676/471
f 386/433/103 454/432/103 456/376/103 385/375/103
f 327/414/278 439/413/278 452/444/299 335/443/299
f 340/442/298 483/441/298 472/613/458 339/612/458
f 365/590/493 378/565/483 416/589/430 413/588/429
f 276/545/382 269/546/383 407/557/402 410/620/464
f 498/561/406 489/560/405 488/674/495 496/673/494
f 432/677/103 402/678/103 347/679/103
f 376/428/282 420/402/269 421/405/272 415/408/274
f 385/375/103 383/378/103 361/680/103 360/681/103
f 386/433/103 385/375/103 360/681/103 359/682/103
f 387/312/103 386/433/103 359/682/103 358/683/103
f 388/309/103 387/312/103 358/683/103 354/262/103
f 389/452/103 388/309/103 354/262/103 352/260/103
f 390/370/103 389/452/103 352/260/103 351/258/103
f 391/367/103 390/370/103 351/258/103 350/256/103
f 392/450/103 391/367/103 350/256/103 346/254/103
f 393/447/103 392/450/103 346/254/103 345/252/103
f 394/597/103 393/447/103 345/252/103 156/250/103
f 395/596/103 394/597/103 156/250/103 353/248/103
f 396/611/103 395/596/103 353/248/103 349/246/103
f 397/610/103 396/611/103 349/246/103 344/244/103
f 398/609/103 397/610/103 344/244/103 343/684/103
f 399/606/103 398/609/103 343/684/103 364/685/103
f 400/637/103 399/606/103 364/685/103 363/686/103
f 402/678/103 400/637/103 363/686/103 348/687/103
f 401/626/103 357/688/103 362/689/103 384/639/103
f 402/678/103 432/677/103 472/638/103 400/637/103
f 398/609/103 422/608/103 423/479/103 397/610/103
f 362/689/103 361/680/103 383/378/103 384/639/103
f 356/625/103 355/690/103 357/688/103 401/626/103
f 348/687/103 347/679/103 402/678/103
f 323/440/496 266/551/496 327/397/265 419/398/266
f 272/665/488 277/621/467 359/622/467 360/666/488
f 463/691/491 460/692/492 511/670/492 513/669/491
f 441/693/471 443/694/471 445/695/471 455/696/471
f 503/697/471 497/698/471 495/675/471 502/634/471
f 492/645/474 493/699/497 495/700/498 494/667/489
f 442/701/499 440/702/500 425/703/501 426/704/502
f 444/705/503 442/701/499 426/704/502 424/706/504
f 446/707/505 444/705/503 424/706/504 430/708/506
f 448/709/507 446/707/505 430/708/506 431/710/508
f 450/711/509 448/709/507 431/710/508 429/712/510
f 480/713/491 450/714/509 429/715/510 478/716/492
f 496/673/494 497/717/511 499/718/512 498/561/406
f 494/667/489 495/700/498 497/717/511 496/673/494
f 466/719/471 510/720/471 509/633/471 465/721/471
f 476/722/471 479/723/471 441/693/471 455/696/471
f 504/724/103 484/725/103 488/726/103 505/727/103
f 490/648/477 485/647/476 506/728/513 507/651/479
f 505/727/103 488/726/103 489/729/103 487/730/103
f 474/731/479 440/702/500 441/732/514 479/733/480
f 467/734/103 514/735/103 515/736/103 468/737/103
f 440/702/500 442/701/499 443/738/515 441/732/514
f 442/701/499 444/705/503 445/739/516 443/738/515
f 457/740/471 455/696/471 445/695/471 447/741/471
f 444/705/503 446/707/505 447/742/517 445/739/516
f 446/707/505 448/709/507 449/743/518 447/742/517
f 451/744/471 457/740/471 447/741/471 449/745/471
f 448/709/507 450/711/509 451/746/519 449/743/518
f 475/747/471 464/748/471 466/719/471 477/749/471
f 510/720/471 503/697/471 502/634/471 509/633/471
f 501/750/471 499/751/471 497/698/471 503/697/471
f 515/736/103 505/727/103 487/730/103 511/752/103
f 477/749/471 476/722/471 455/696/471 457/740/471
f 508/753/471 510/720/471 466/719/471 464/748/471
f 507/651/479 506/728/513 459/754/513 461/755/479
f 513/669/491 508/756/520 464/757/520 463/691/491
f 480/713/491 463/691/491 464/757/520 475/758/520
f 498/561/406 499/718/512 501/759/521 500/558/403
f 490/648/477 491/653/481 493/699/497 492/645/474
f 474/731/479 461/755/479 459/754/513 473/760/513
f 482/761/103 478/762/103 429/763/103 470/764/103
f 470/764/103 429/763/103 431/765/103 430/766/103
f 473/767/103 481/768/103 469/769/103 425/770/103
f 481/768/103 482/761/103 470/764/103 469/769/103
f 425/770/103 469/769/103 424/771/103 426/772/103
f 469/769/103 470/764/103 430/766/103 424/771/103
f 506/773/103 485/774/103 504/724/103 514/735/103
f 485/774/103 486/775/103 484/725/103 504/724/103
f 514/735/103 504/724/103 505/727/103 515/736/103
f 467/734/103 468/737/103 482/761/103 481/768/103
f 459/776/103 467/734/103 481/768/103 473/767/103
f 468/737/103 460/777/103 478/762/103 482/761/103
f 440/702/500 474/731/479 473/760/513 425/703/501
f 450/714/509 480/713/491 475/758/520 451/778/519
f 466/719/471 465/721/471 476/722/471 477/749/471
f 451/744/471 475/747/471 477/749/471 457/740/471
f 461/755/479 474/731/479 479/733/480 462/779/522
f 465/721/471 462/780/471 479/723/471 476/722/471
f 463/691/491 480/713/491 478/716/492 460/692/492
f 461/755/479 462/779/522 512/652/480 507/651/479
f 459/776/103 506/773/103 514/735/103 467/734/103
f 500/672/403 501/781/521 508/756/520 513/669/491
f 468/737/103 515/736/103 511/752/103 460/777/103
f 501/750/471 503/697/471 510/720/471 508/753/471
f 465/721/471 509/633/471 512/636/471 462/780/471
