# Blender 4.1.1
# www.blender.org
o pacifier_02
v 0.011145 -0.010178 -0.000000
v 0.010682 -0.010178 0.001094
v 0.009586 -0.010178 0.001525
v 0.008524 -0.010178 0.001061
v 0.008095 -0.010178 0.000000
v 0.008524 -0.010178 -0.001061
v 0.009586 -0.010178 -0.001525
v 0.010682 -0.010178 -0.001094
v 0.010599 -0.006735 -0.000000
v 0.010159 -0.006878 0.001094
v 0.009117 -0.007216 0.001525
v 0.008107 -0.007544 0.001061
v 0.007699 -0.007677 -0.000000
v 0.008107 -0.007544 -0.001061
v 0.009117 -0.007216 -0.001525
v 0.010159 -0.006878 -0.001094
v 0.009016 -0.003628 -0.000000
v 0.008642 -0.003900 0.001094
v 0.007756 -0.004544 0.001525
v 0.006896 -0.005168 0.001061
v 0.006549 -0.005420 -0.000000
v 0.006896 -0.005168 -0.001061
v 0.007756 -0.004544 -0.001525
v 0.008642 -0.003900 -0.001094
v 0.006551 -0.001162 -0.000000
v 0.006279 -0.001536 0.001094
v 0.005635 -0.002423 0.001525
v 0.005010 -0.003282 0.001061
v 0.004758 -0.003630 -0.000000
v 0.005010 -0.003282 -0.001061
v 0.005635 -0.002423 -0.001525
v 0.006279 -0.001536 -0.001094
v 0.003444 0.000421 -0.000000
v 0.003301 -0.000019 0.001094
v 0.002962 -0.001061 0.001525
v 0.002634 -0.002072 0.001061
v 0.002501 -0.002480 -0.000000
v 0.002634 -0.002072 -0.001061
v 0.002962 -0.001061 -0.001525
v 0.003301 -0.000019 -0.001094
v 0.000000 0.000966 -0.000000
v 0.000000 0.000504 0.001094
v 0.000000 -0.000592 0.001525
v 0.000000 -0.001655 0.001061
v 0.000000 -0.002084 -0.000000
v 0.000000 -0.001655 -0.001061
v 0.000000 -0.000592 -0.001525
v 0.000000 0.000504 -0.001094
v -0.003444 0.000421 -0.000000
v -0.003301 -0.000019 0.001094
v -0.002962 -0.001061 0.001525
v -0.002634 -0.002072 0.001061
v -0.002501 -0.002480 -0.000000
v -0.002634 -0.002072 -0.001061
v -0.002962 -0.001061 -0.001525
v -0.003301 -0.000019 -0.001094
v -0.006551 -0.001162 -0.000000
v -0.006279 -0.001536 0.001094
v -0.005635 -0.002423 0.001525
v -0.005010 -0.003282 0.001061
v -0.004758 -0.003630 -0.000000
v -0.005010 -0.003282 -0.001061
v -0.005635 -0.002423 -0.001525
v -0.006279 -0.001536 -0.001094
v -0.009016 -0.003628 -0.000000
v -0.008642 -0.003900 0.001094
v -0.007756 -0.004544 0.001525
v -0.006896 -0.005168 0.001061
v -0.006549 -0.005420 -0.000000
v -0.006896 -0.005168 -0.001061
v -0.007756 -0.004544 -0.001525
v -0.008642 -0.003900 -0.001094
v -0.010599 -0.006735 -0.000000
v -0.010159 -0.006878 0.001094
v -0.009117 -0.007216 0.001525
v -0.008107 -0.007544 0.001061
v -0.007699 -0.007677 -0.000000
v -0.008107 -0.007544 -0.001061
v -0.009117 -0.007216 -0.001525
v -0.010159 -0.006878 -0.001094
v -0.011145 -0.010178 -0.000000
v -0.010682 -0.010178 0.001094
v -0.009586 -0.010178 0.001525
v -0.008524 -0.010178 0.001061
v -0.008095 -0.010178 -0.000000
v -0.008524 -0.010178 -0.001061
v -0.009586 -0.010178 -0.001525
v -0.010682 -0.010178 -0.001094
v -0.010599 -0.013622 0.000000
v -0.010159 -0.013479 0.001094
v -0.009117 -0.013141 0.001525
v -0.008107 -0.012813 0.001061
v -0.007699 -0.012680 0.000000
v -0.008107 -0.012813 -0.001061
v -0.009117 -0.013141 -0.001525
v -0.010159 -0.013479 -0.001094
v -0.009016 -0.016729 0.000000
v -0.008642 -0.016457 0.001094
v -0.007756 -0.015813 0.001525
v -0.006896 -0.015189 0.001061
v -0.006549 -0.014937 0.000000
v -0.006896 -0.015189 -0.001061
v -0.007756 -0.015813 -0.001525
v -0.008642 -0.016457 -0.001094
v -0.006551 -0.019195 0.000000
v -0.006279 -0.018821 0.001094
v -0.005635 -0.017934 0.001525
v -0.005010 -0.017074 0.001061
v -0.004758 -0.016727 0.000000
v -0.005010 -0.017074 -0.001061
v -0.005635 -0.017934 -0.001525
v -0.006279 -0.018821 -0.001094
v -0.003444 -0.020778 0.000000
v -0.003301 -0.020338 0.001094
v -0.002962 -0.019296 0.001525
v -0.002634 -0.018285 0.001061
v -0.002501 -0.017877 0.000000
v -0.002634 -0.018285 -0.001061
v -0.002962 -0.019296 -0.001525
v -0.003301 -0.020338 -0.001094
v 0.000000 -0.021323 0.000000
v 0.000000 -0.020861 0.001094
v 0.000000 -0.019765 0.001525
v 0.000000 -0.018702 0.001061
v 0.000000 -0.018273 0.000000
v 0.000000 -0.018702 -0.001061
v 0.000000 -0.019765 -0.001525
v 0.000000 -0.020861 -0.001094
v 0.003444 -0.020778 0.000000
v 0.003301 -0.020338 0.001094
v 0.002962 -0.019296 0.001525
v 0.002634 -0.018285 0.001061
v 0.002501 -0.017877 0.000000
v 0.002634 -0.018285 -0.001061
v 0.002962 -0.019296 -0.001525
v 0.003301 -0.020338 -0.001094
v 0.006551 -0.019195 0.000000
v 0.006279 -0.018821 0.001094
v 0.005635 -0.017934 0.001525
v 0.005010 -0.017074 0.001061
v 0.004758 -0.016727 0.000000
v 0.005010 -0.017074 -0.001061
v 0.005635 -0.017934 -0.001525
v 0.006279 -0.018821 -0.001094
v 0.009016 -0.016729 0.000000
v 0.008642 -0.016457 0.001094
v 0.007756 -0.015813 0.001525
v 0.006896 -0.015189 0.001061
v 0.006549 -0.014937 0.000000
v 0.006896 -0.015189 -0.001061
v 0.007756 -0.015813 -0.001525
v 0.008642 -0.016457 -0.001094
v 0.010599 -0.013622 0.000000
v 0.010159 -0.013479 0.001094
v 0.009117 -0.013141 0.001525
v 0.008107 -0.012813 0.001061
v 0.007699 -0.012680 0.000000
v 0.008107 -0.012813 -0.001061
v 0.009117 -0.013141 -0.001525
v 0.010159 -0.013479 -0.001094
v 0.003342 0.002396 -0.001288
v 0.002577 0.002396 -0.002577
v 0.001288 0.002396 -0.003342
v 0.000000 0.002396 -0.003561
v -0.003737 0.013532 0.003737
v -0.001869 0.013532 0.004847
v 0.000000 0.013532 0.005164
v 0.001869 0.013532 0.004847
v -0.003904 0.015773 0.003904
v -0.001952 0.015773 0.005164
v 0.000000 0.015773 0.005521
v 0.001952 0.015773 0.005164
v -0.003737 0.017367 0.003737
v -0.001869 0.017642 0.004847
v 0.000000 0.017725 0.005164
v 0.001869 0.017642 0.004847
v -0.001288 0.002396 -0.003342
v -0.002577 0.002396 -0.002577
v -0.003342 0.002396 -0.001288
v -0.003561 0.002396 0.000000
v 0.003737 0.013532 0.003737
v 0.004847 0.013532 0.001869
v 0.005164 0.013532 0.000000
v 0.004847 0.013532 -0.001869
v 0.003904 0.015773 0.003904
v 0.005164 0.015773 0.001952
v 0.005521 0.015773 0.000000
v 0.005164 0.015773 -0.001952
v 0.003737 0.017367 0.003737
v 0.004847 0.017642 0.001869
v 0.005164 0.017725 0.000000
v 0.004847 0.017642 -0.001869
v -0.003342 0.002396 0.001288
v -0.003683 0.011042 0.001420
v -0.003923 0.011042 0.000000
v -0.003683 0.011042 -0.001420
v 0.003737 0.013532 -0.003737
v 0.001869 0.013532 -0.004847
v 0.000000 0.013532 -0.005164
v -0.001869 0.013532 -0.004847
v 0.003904 0.015773 -0.003904
v 0.001952 0.015773 -0.005164
v 0.000000 0.015773 -0.005521
v -0.001952 0.015773 -0.005164
v 0.003737 0.017367 -0.003737
v 0.001869 0.017642 -0.004847
v 0.000000 0.017725 -0.005164
v -0.001869 0.017642 -0.004847
v -0.002840 0.011042 -0.002840
v -0.001420 0.011042 -0.003683
v 0.000000 0.011042 -0.003923
v 0.001420 0.011042 -0.003683
v -0.003737 0.013532 -0.003737
v -0.004847 0.013532 -0.001869
v -0.005164 0.013532 0.000000
v -0.004847 0.013532 0.001869
v -0.003904 0.015773 -0.003904
v -0.005164 0.015773 -0.001952
v -0.005521 0.015773 0.000000
v -0.005164 0.015773 0.001952
v -0.003737 0.017367 -0.003737
v -0.004847 0.017642 -0.001869
v -0.005164 0.017725 0.000000
v -0.004847 0.017642 0.001869
v 0.002840 0.011042 -0.002840
v 0.003683 0.011042 -0.001420
v 0.003923 0.011042 0.000000
v 0.003683 0.011042 0.001420
v 0.002840 0.011042 0.002840
v 0.001420 0.011042 0.003683
v 0.000000 0.011042 0.003923
v -0.001420 0.011042 0.003683
v -0.002840 0.011042 0.002840
v -0.003187 0.018960 0.003187
v -0.001594 0.019510 0.003737
v 0.000000 0.019677 0.003904
v 0.001594 0.019510 0.003737
v 0.003187 0.018960 0.003187
v -0.003737 0.019510 0.001594
v -0.001869 0.020620 0.001869
v 0.000000 0.020937 0.001952
v 0.001869 0.020620 0.001869
v 0.003737 0.019510 0.001594
v -0.003904 0.019677 0.000000
v -0.001952 0.020937 0.000000
v 0.000000 0.021293 0.000000
v 0.001952 0.020937 0.000000
v 0.003904 0.019677 0.000000
v -0.003737 0.019510 -0.001594
v -0.001869 0.020620 -0.001869
v 0.000000 0.020937 -0.001952
v 0.001869 0.020620 -0.001869
v 0.003737 0.019510 -0.001594
v -0.003187 0.018960 -0.003187
v -0.001594 0.019510 -0.003737
v 0.000000 0.019677 -0.003904
v 0.001594 0.019510 -0.003737
v 0.003187 0.018960 -0.003187
v 0.003561 0.002396 0.000000
v 0.003342 0.002396 0.001288
v 0.002577 0.002396 0.002577
v 0.001288 0.002396 0.003342
v 0.000000 0.002396 0.003561
v -0.001288 0.002396 0.003342
v -0.002577 0.002396 0.002577
v -0.002840 0.003352 -0.002840
v -0.003683 0.003352 -0.001420
v 0.003923 0.003352 0.000000
v 0.003683 0.003352 -0.001420
v 0.001420 0.003352 -0.003683
v 0.000000 0.003352 -0.003923
v 0.002840 0.003352 0.002840
v 0.003683 0.003352 0.001420
v 0.002840 0.003352 -0.002840
v -0.001420 0.003352 -0.003683
v -0.002840 0.003352 0.002840
v -0.003683 0.003352 0.001420
v -0.003923 0.003352 0.000000
v 0.001420 0.003352 0.003683
v 0.000000 0.003352 0.003923
v -0.001420 0.003352 0.003683
v -0.003456 0.009666 -0.001333
v 0.003456 0.009666 -0.001333
v 0.000000 0.009666 -0.003683
v 0.003456 0.009666 0.001333
v 0.002665 0.009666 -0.002665
v -0.001333 0.009666 -0.003456
v -0.002665 0.009666 0.002665
v -0.003683 0.009666 0.000000
v 0.001333 0.009666 0.003456
v -0.001333 0.009666 0.003456
v -0.002665 0.009666 -0.002665
v 0.003683 0.009666 0.000000
v 0.001333 0.009666 -0.003456
v 0.002665 0.009666 0.002665
v -0.003456 0.009666 0.001333
v 0.000000 0.009666 0.003683
v -0.002782 0.002754 -0.002782
v 0.003844 0.002754 0.000000
v 0.001391 0.002754 -0.003608
v 0.002782 0.002754 0.002782
v -0.003608 0.002754 0.001391
v 0.000000 0.002754 0.003844
v -0.003608 0.002754 -0.001391
v 0.003608 0.002754 -0.001391
v 0.000000 0.002754 -0.003844
v 0.003608 0.002754 0.001391
v 0.002782 0.002754 -0.002782
v -0.001391 0.002754 -0.003608
v -0.002782 0.002754 0.002782
v -0.003844 0.002754 0.000000
v 0.001391 0.002754 0.003608
v -0.001391 0.002754 0.003608
v 0.000000 0.002396 -0.013595
v -0.003519 0.002396 -0.013132
v -0.006798 0.002396 -0.011774
v -0.009613 0.002396 -0.009613
v -0.011774 0.002396 -0.006798
v -0.013132 0.002396 -0.003519
v -0.013596 0.002396 0.000000
v -0.013132 0.002396 0.003519
v -0.011774 0.002396 0.006798
v -0.009613 0.002396 0.009613
v -0.006798 0.002396 0.011774
v -0.003519 0.002396 0.013132
v -0.000000 0.002396 0.013596
v 0.003519 0.002396 -0.013132
v 0.006798 0.002396 -0.011774
v 0.009613 0.002396 -0.009613
v 0.011774 0.002396 -0.006798
v 0.013132 0.002396 -0.003519
v 0.013596 0.002396 0.000000
v 0.013132 0.002396 0.003519
v 0.011774 0.002396 0.006798
v 0.009613 0.002396 0.009613
v 0.006798 0.002396 0.011774
v -0.000882 0.002396 -0.003293
v 0.000000 0.002396 -0.003410
v -0.001705 0.002396 -0.002953
v -0.005704 0.002396 -0.005057
v -0.005946 0.002396 -0.003433
v -0.007232 0.002396 -0.002411
v -0.003410 0.002396 0.000000
v -0.003293 0.002396 0.000882
v -0.002953 0.002396 0.001705
v -0.002411 0.002396 0.002411
v -0.001705 0.002396 0.002953
v -0.001528 0.002396 0.007468
v -0.000000 0.002396 0.006866
v 0.003519 0.002396 0.013132
v 0.000882 0.002396 -0.003293
v 0.001705 0.002396 -0.002953
v 0.005704 0.002396 -0.005057
v 0.005946 0.002396 -0.003433
v 0.007232 0.002396 -0.002411
v 0.003410 0.002396 0.000000
v 0.003293 0.002396 0.000882
v 0.002953 0.002396 0.001705
v 0.000000 0.002396 -0.012265
v 0.000000 0.002396 -0.009229
v -0.002389 0.002396 -0.008915
v -0.003174 0.002396 -0.011847
v -0.004615 0.002396 -0.007993
v -0.006132 0.002396 -0.010622
v -0.006647 0.002396 -0.006332
v -0.008223 0.002396 -0.006512
v -0.009509 0.002396 -0.005490
v -0.008808 0.002396 -0.002590
v -0.009751 0.002396 -0.003866
v -0.009229 0.002396 0.000000
v -0.012265 0.002396 0.000000
v -0.008915 0.002396 0.002389
v -0.011847 0.002396 0.003174
v -0.007993 0.002396 0.004615
v -0.010622 0.002396 0.006132
v -0.006526 0.002396 0.006526
v -0.008673 0.002396 0.008673
v -0.004615 0.002396 0.007993
v -0.006132 0.002396 0.010622
v -0.002161 0.002396 0.008923
v -0.001528 0.002396 0.010377
v -0.000000 0.002396 0.010980
v 0.002411 0.002396 0.002411
v 0.001705 0.002396 0.002953
v 0.001528 0.002396 0.007468
v 0.002389 0.002396 -0.008915
v 0.003174 0.002396 -0.011847
v 0.004615 0.002396 -0.007993
v 0.006132 0.002396 -0.010622
v 0.006647 0.002396 -0.006332
v 0.008223 0.002396 -0.006512
v 0.009509 0.002396 -0.005490
v 0.008808 0.002396 -0.002590
v 0.009751 0.002396 -0.003866
v 0.009229 0.002396 0.000000
v 0.012265 0.002396 0.000000
v 0.008915 0.002396 0.002389
v 0.011847 0.002396 0.003174
v 0.007993 0.002396 0.004615
v 0.010622 0.002396 0.006132
v -0.002953 0.002396 -0.001705
v -0.002411 0.002396 -0.002411
v -0.003293 0.002396 -0.000882
v 0.000000 0.002396 0.003410
v -0.000882 0.002396 0.003293
v 0.006526 0.002396 0.006526
v 0.008673 0.002396 0.008673
v 0.004615 0.002396 0.007993
v 0.006132 0.002396 0.010622
v -0.006087 0.002396 -0.006863
v -0.008673 0.002396 -0.008673
v -0.008981 0.002396 -0.001884
v -0.011847 0.002396 -0.003174
v -0.002953 0.002396 0.008681
v -0.003174 0.002396 0.011847
v 0.002161 0.002396 0.008923
v 0.001528 0.002396 0.010377
v 0.002953 0.002396 -0.001705
v 0.002411 0.002396 -0.002411
v 0.003293 0.002396 -0.000882
v -0.000000 0.002396 0.012265
v -0.010622 0.002396 -0.006132
v -0.001580 0.002396 -0.005895
v 0.000000 0.002396 -0.006103
v -0.003051 0.002396 -0.005285
v -0.004315 0.002396 -0.004315
v -0.005285 0.002396 -0.003051
v -0.005895 0.002396 -0.001580
v -0.006103 0.002396 0.000000
v -0.005895 0.002396 0.001580
v -0.005285 0.002396 0.003051
v -0.004315 0.002396 0.004315
v -0.003051 0.002396 0.005285
v -0.001580 0.002396 0.005895
v 0.000000 0.002396 0.006103
v 0.000882 0.002396 0.003293
v 0.006087 0.002396 -0.006863
v 0.008673 0.002396 -0.008673
v 0.008981 0.002396 -0.001884
v 0.011847 0.002396 -0.003174
v 0.002953 0.002396 0.008681
v 0.003174 0.002396 0.011847
v 0.010622 0.002396 -0.006132
v 0.001580 0.002396 -0.005895
v 0.003051 0.002396 -0.005285
v 0.004315 0.002396 -0.004315
v 0.005285 0.002396 -0.003051
v 0.005895 0.002396 -0.001580
v 0.006103 0.002396 0.000000
v 0.005895 0.002396 0.001580
v 0.005285 0.002396 0.003051
v 0.004315 0.002396 0.004315
v 0.003051 0.002396 0.005285
v 0.001580 0.002396 0.005895
v 0.000000 0.001322 -0.013595
v -0.003519 0.001322 -0.013132
v -0.006798 0.001322 -0.011774
v -0.009613 0.001322 -0.009613
v -0.011774 0.001322 -0.006798
v -0.013132 0.001322 -0.003519
v -0.013596 0.001322 0.000000
v -0.013132 0.001322 0.003519
v -0.011774 0.001322 0.006798
v -0.009613 0.001322 0.009613
v -0.006798 0.001322 0.011774
v -0.003519 0.001322 0.013132
v -0.000000 0.001322 0.013596
v 0.003519 0.001322 -0.013132
v 0.006798 0.001322 -0.011774
v 0.009613 0.001322 -0.009613
v 0.011774 0.001322 -0.006798
v 0.013132 0.001322 -0.003519
v 0.013596 0.001322 0.000000
v 0.013132 0.001322 0.003519
v 0.011774 0.001322 0.006798
v 0.009613 0.001322 0.009613
v 0.006798 0.001322 0.011774
v -0.005704 0.001322 -0.005057
v -0.005946 0.001322 -0.003433
v -0.007232 0.001322 -0.002411
v -0.001528 0.001322 0.007468
v -0.000000 0.001322 0.006866
v 0.003519 0.001322 0.013132
v 0.005704 0.001322 -0.005057
v 0.005946 0.001322 -0.003433
v 0.007232 0.001322 -0.002411
v 0.000000 0.001322 -0.012265
v 0.000000 0.001322 -0.009229
v -0.002389 0.001322 -0.008915
v -0.003174 0.001322 -0.011847
v -0.004615 0.001322 -0.007993
v -0.006132 0.001322 -0.010622
v -0.006647 0.001322 -0.006332
v -0.008223 0.001322 -0.006512
v -0.009509 0.001322 -0.005490
v -0.008808 0.001322 -0.002590
v -0.009751 0.001322 -0.003866
v -0.009229 0.001322 0.000000
v -0.012265 0.001322 0.000000
v -0.008915 0.001322 0.002389
v -0.011847 0.001322 0.003174
v -0.007993 0.001322 0.004615
v -0.010622 0.001322 0.006132
v -0.006526 0.001322 0.006526
v -0.008673 0.001322 0.008673
v -0.004615 0.001322 0.007993
v -0.006132 0.001322 0.010622
v -0.002161 0.001322 0.008923
v -0.001528 0.001322 0.010377
v -0.000000 0.001322 0.010980
v 0.001528 0.001322 0.007468
v 0.002389 0.001322 -0.008915
v 0.003174 0.001322 -0.011847
v 0.004615 0.001322 -0.007993
v 0.006132 0.001322 -0.010622
v 0.006647 0.001322 -0.006332
v 0.008223 0.001322 -0.006512
v 0.009509 0.001322 -0.005490
v 0.008808 0.001322 -0.002590
v 0.009751 0.001322 -0.003866
v 0.009229 0.001322 0.000000
v 0.012265 0.001322 0.000000
v 0.008915 0.001322 0.002389
v 0.011847 0.001322 0.003174
v 0.007993 0.001322 0.004615
v 0.010622 0.001322 0.006132
v 0.006526 0.001322 0.006526
v 0.008673 0.001322 0.008673
v 0.004615 0.001322 0.007993
v 0.006132 0.001322 0.010622
v -0.006087 0.001322 -0.006863
v -0.008673 0.001322 -0.008673
v -0.008981 0.001322 -0.001884
v -0.011847 0.001322 -0.003174
v -0.002953 0.001322 0.008681
v -0.003174 0.001322 0.011847
v 0.002161 0.001322 0.008923
v 0.001528 0.001322 0.010377
v -0.000000 0.001322 0.012265
v -0.010622 0.001322 -0.006132
v -0.001745 0.001322 -0.006514
v 0.000000 0.001322 -0.006744
v -0.003372 0.001322 -0.005840
v -0.004768 0.001322 -0.004768
v -0.005840 0.001322 -0.003372
v -0.006514 0.001322 -0.001745
v -0.006744 0.001322 0.000000
v -0.006514 0.001322 0.001745
v -0.005840 0.001322 0.003372
v -0.004768 0.001322 0.004768
v -0.003372 0.001322 0.005840
v -0.001745 0.001322 0.006514
v -0.000000 0.001322 0.006744
v 0.006087 0.001322 -0.006863
v 0.008673 0.001322 -0.008673
v 0.008981 0.001322 -0.001884
v 0.011847 0.001322 -0.003174
v 0.002953 0.001322 0.008681
v 0.003174 0.001322 0.011847
v 0.010622 0.001322 -0.006132
v 0.001745 0.001322 -0.006514
v 0.003372 0.001322 -0.005840
v 0.004768 0.001322 -0.004768
v 0.005840 0.001322 -0.003372
v 0.006514 0.001322 -0.001745
v 0.006744 0.001322 0.000000
v 0.006514 0.001322 0.001745
v 0.005840 0.001322 0.003372
v 0.004768 0.001322 0.004768
v 0.003372 0.001322 0.005840
v 0.001745 0.001322 0.006514
v -0.003864 0.002472 -0.014419
v 0.000000 0.002472 -0.014927
v -0.007464 0.002472 -0.012928
v -0.010555 0.002472 -0.010555
v -0.012928 0.002472 -0.007464
v -0.014419 0.002472 -0.003864
v -0.014927 0.002472 0.000000
v -0.014419 0.002472 0.003864
v -0.012928 0.002472 0.007464
v -0.010555 0.002472 0.010555
v -0.007464 0.002472 0.012928
v -0.003864 0.002472 0.014419
v -0.000000 0.002472 0.014927
v 0.014927 0.002472 0.000000
v 0.014419 0.002472 -0.003864
v 0.014419 0.002472 0.003864
v 0.007464 0.002472 0.012928
v 0.010555 0.002472 0.010555
v 0.003864 0.002472 0.014419
v 0.007464 0.002472 -0.012928
v 0.003864 0.002472 -0.014419
v 0.010555 0.002472 -0.010555
v 0.012928 0.002472 -0.007464
v 0.012928 0.002472 0.007464
v -0.003864 0.001246 -0.014419
v 0.000000 0.001246 -0.014927
v -0.007464 0.001246 -0.012928
v -0.010555 0.001246 -0.010555
v -0.012928 0.001246 -0.007464
v -0.014419 0.001246 -0.003864
v -0.014927 0.001246 0.000000
v -0.014419 0.001246 0.003864
v -0.012928 0.001246 0.007464
v -0.010555 0.001246 0.010555
v -0.007464 0.001246 0.012928
v -0.003864 0.001246 0.014419
v -0.000000 0.001246 0.014927
v 0.014927 0.001246 0.000000
v 0.014419 0.001246 -0.003864
v 0.014419 0.001246 0.003864
v 0.007464 0.001246 0.012928
v 0.010555 0.001246 0.010555
v 0.003864 0.001246 0.014419
v 0.007464 0.001246 -0.012928
v 0.003864 0.001246 -0.014419
v 0.010555 0.001246 -0.010555
v 0.012928 0.001246 -0.007464
v 0.012928 0.001246 0.007464
v -0.000000 0.002731 0.014276
v 0.000000 0.002731 -0.014276
v -0.003695 0.002731 0.013790
v 0.013790 0.002731 -0.003695
v -0.007138 0.002731 0.012364
v 0.012364 0.002731 -0.007138
v -0.010095 0.002731 0.010095
v 0.010095 0.002731 -0.010095
v -0.012364 0.002731 0.007138
v -0.013790 0.002731 0.003695
v 0.003695 0.002731 -0.013790
v 0.007138 0.002731 -0.012364
v 0.003695 0.002731 0.013790
v 0.007138 0.002731 0.012364
v 0.010095 0.002731 0.010095
v -0.003695 0.002731 -0.013790
v 0.012364 0.002731 0.007138
v -0.007138 0.002731 -0.012364
v 0.013790 0.002731 0.003695
v -0.010095 0.002731 -0.010095
v -0.012364 0.002731 -0.007138
v -0.013790 0.002731 -0.003695
v 0.014276 0.002731 0.000000
v -0.014276 0.002731 0.000000
v 0.012364 0.000987 0.007138
v -0.003695 0.000987 -0.013790
v 0.007138 0.000987 0.012364
v 0.010095 0.000987 0.010095
v 0.003695 0.000987 0.013790
v -0.000000 0.000987 0.014276
v 0.003695 0.000987 -0.013790
v 0.000000 0.000987 -0.014276
v -0.007138 0.000987 0.012364
v -0.003695 0.000987 0.013790
v 0.013790 0.000987 -0.003695
v 0.012364 0.000987 -0.007138
v -0.007138 0.000987 -0.012364
v 0.013790 0.000987 0.003695
v -0.010095 0.000987 -0.010095
v -0.012364 0.000987 -0.007138
v -0.013790 0.000987 -0.003695
v 0.014276 0.000987 0.000000
v -0.014276 0.000987 0.000000
v -0.013790 0.000987 0.003695
v 0.007138 0.000987 -0.012364
v -0.012364 0.000987 0.007138
v 0.010095 0.000987 -0.010095
v -0.010095 0.000987 0.010095
v 0.000000 0.001859 -0.015203
v -0.003935 0.001859 -0.014685
v -0.007601 0.001859 -0.013166
v -0.010750 0.001859 -0.010750
v -0.013166 0.001859 -0.007601
v -0.014685 0.001859 -0.003935
v -0.015203 0.001859 0.000000
v -0.014685 0.001859 0.003935
v -0.013166 0.001859 0.007601
v -0.010750 0.001859 0.010750
v -0.007601 0.001859 0.013166
v -0.003935 0.001859 0.014685
v -0.000000 0.001859 0.015203
v 0.003935 0.001859 -0.014685
v 0.007601 0.001859 -0.013166
v 0.010750 0.001859 -0.010750
v 0.013166 0.001859 -0.007601
v 0.014685 0.001859 -0.003935
v 0.015203 0.001859 0.000000
v 0.014685 0.001859 0.003935
v 0.013166 0.001859 0.007601
v 0.010750 0.001859 0.010750
v 0.007601 0.001859 0.013166
v 0.003935 0.001859 0.014685
v -0.001603 -0.006739 -0.005984
v 0.000000 -0.006739 -0.006195
v -0.003098 -0.006739 -0.005365
v -0.004381 -0.006739 -0.004381
v -0.005365 -0.006739 -0.003098
v -0.005984 -0.006739 -0.001603
v -0.006195 -0.006739 0.000000
v -0.005984 -0.006739 0.001603
v -0.005365 -0.006739 0.003098
v -0.004381 -0.006739 0.004381
v -0.003098 -0.006739 0.005365
v -0.001603 -0.006739 0.005984
v -0.000000 -0.006739 0.006195
v 0.005365 -0.006739 -0.003098
v 0.004381 -0.006739 -0.004381
v 0.003098 -0.006739 -0.005365
v 0.001603 -0.006739 -0.005984
v 0.005984 -0.006739 -0.001603
v 0.006195 -0.006739 0.000000
v 0.005984 -0.006739 0.001603
v 0.005365 -0.006739 0.003098
v 0.004381 -0.006739 0.004381
v 0.003098 -0.006739 0.005365
v 0.001603 -0.006739 0.005984
v -0.000000 -0.006739 0.000000
vn 1.0000 -0.0000 -0.0000
vn 0.9511 0.3090 -0.0000
vn 0.6819 0.2216 0.6971
vn 0.7170 -0.0000 0.6971
vn 0.0187 0.0061 0.9998
vn 0.0197 -0.0000 0.9998
vn -0.6634 -0.2155 0.7166
vn -0.6975 -0.0000 0.7166
vn -0.9511 -0.3090 -0.0000
vn -1.0000 -0.0000 -0.0000
vn -0.6634 -0.2155 -0.7166
vn -0.6975 -0.0000 -0.7166
vn 0.0187 0.0061 -0.9998
vn 0.0197 -0.0000 -0.9998
vn 0.6819 0.2216 -0.6971
vn 0.7170 -0.0000 -0.6971
vn 0.8090 0.5878 -0.0000
vn 0.5801 0.4214 0.6971
vn 0.0159 0.0116 0.9998
vn -0.5643 -0.4100 0.7166
vn -0.8090 -0.5878 -0.0000
vn -0.5643 -0.4100 -0.7166
vn 0.0159 0.0116 -0.9998
vn 0.5801 0.4214 -0.6971
vn 0.5878 0.8090 -0.0000
vn 0.4214 0.5801 0.6971
vn 0.0116 0.0159 0.9998
vn -0.4100 -0.5643 0.7166
vn -0.5878 -0.8090 -0.0000
vn -0.4100 -0.5643 -0.7166
vn 0.0116 0.0159 -0.9998
vn 0.4214 0.5801 -0.6971
vn 0.3090 0.9511 -0.0000
vn 0.2216 0.6819 0.6971
vn 0.0061 0.0187 0.9998
vn -0.2155 -0.6634 0.7166
vn -0.3090 -0.9511 -0.0000
vn -0.2155 -0.6634 -0.7166
vn 0.0061 0.0187 -0.9998
vn 0.2216 0.6819 -0.6971
vn -0.0000 1.0000 -0.0000
vn -0.0000 0.7170 0.6971
vn -0.0000 0.0197 0.9998
vn -0.0000 -0.6975 0.7166
vn -0.0000 -1.0000 -0.0000
vn -0.0000 -0.6975 -0.7166
vn -0.0000 0.0197 -0.9998
vn -0.0000 0.7170 -0.6971
vn -0.3090 0.9511 -0.0000
vn -0.2216 0.6819 0.6971
vn -0.0061 0.0187 0.9998
vn 0.2155 -0.6634 0.7166
vn 0.3090 -0.9511 -0.0000
vn 0.2155 -0.6634 -0.7166
vn -0.0061 0.0187 -0.9998
vn -0.2216 0.6819 -0.6971
vn -0.5878 0.8090 -0.0000
vn -0.4214 0.5801 0.6971
vn -0.0116 0.0159 0.9998
vn 0.4100 -0.5643 0.7166
vn 0.5878 -0.8090 -0.0000
vn 0.4100 -0.5643 -0.7166
vn -0.0116 0.0159 -0.9998
vn -0.4214 0.5801 -0.6971
vn -0.8090 0.5878 -0.0000
vn -0.5801 0.4214 0.6971
vn -0.0159 0.0116 0.9998
vn 0.5643 -0.4100 0.7166
vn 0.8090 -0.5878 -0.0000
vn 0.5643 -0.4100 -0.7166
vn -0.0159 0.0116 -0.9998
vn -0.5801 0.4214 -0.6971
vn -0.9511 0.3090 -0.0000
vn -0.6819 0.2216 0.6971
vn -0.0187 0.0061 0.9998
vn 0.6634 -0.2155 0.7166
vn 0.9511 -0.3090 -0.0000
vn 0.6634 -0.2155 -0.7166
vn -0.0187 0.0061 -0.9998
vn -0.6819 0.2216 -0.6971
vn -0.7170 -0.0000 0.6971
vn -0.0197 -0.0000 0.9998
vn 0.6975 -0.0000 0.7166
vn 0.6975 -0.0000 -0.7166
vn -0.0197 -0.0000 -0.9998
vn -0.7170 -0.0000 -0.6971
vn -0.6819 -0.2216 0.6971
vn -0.0187 -0.0061 0.9998
vn 0.6634 0.2155 0.7166
vn 0.6634 0.2155 -0.7166
vn -0.0187 -0.0061 -0.9998
vn -0.6819 -0.2216 -0.6971
vn -0.5801 -0.4214 0.6971
vn -0.0159 -0.0116 0.9998
vn 0.5643 0.4100 0.7166
vn 0.5643 0.4100 -0.7166
vn -0.0159 -0.0116 -0.9998
vn -0.5801 -0.4214 -0.6971
vn -0.4214 -0.5801 0.6971
vn -0.0116 -0.0159 0.9998
vn 0.4100 0.5643 0.7166
vn 0.4100 0.5643 -0.7166
vn -0.0116 -0.0159 -0.9998
vn -0.4214 -0.5801 -0.6971
vn -0.2216 -0.6819 0.6971
vn -0.0061 -0.0187 0.9998
vn 0.2155 0.6634 0.7166
vn 0.2155 0.6634 -0.7166
vn -0.0061 -0.0187 -0.9998
vn -0.2216 -0.6819 -0.6971
vn -0.0000 -0.7170 0.6971
vn -0.0000 -0.0197 0.9998
vn -0.0000 0.6975 0.7166
vn -0.0000 0.6975 -0.7166
vn -0.0000 -0.0197 -0.9998
vn -0.0000 -0.7170 -0.6971
vn 0.2216 -0.6819 0.6971
vn 0.0061 -0.0187 0.9998
vn -0.2155 0.6634 0.7166
vn -0.2155 0.6634 -0.7166
vn 0.0061 -0.0187 -0.9998
vn 0.2216 -0.6819 -0.6971
vn 0.4214 -0.5801 0.6971
vn 0.0116 -0.0159 0.9998
vn -0.4100 0.5643 0.7166
vn -0.4100 0.5643 -0.7166
vn 0.0116 -0.0159 -0.9998
vn 0.4214 -0.5801 -0.6971
vn 0.5801 -0.4214 0.6971
vn 0.0159 -0.0116 0.9998
vn -0.5643 0.4100 0.7166
vn -0.5643 0.4100 -0.7166
vn 0.0159 -0.0116 -0.9998
vn 0.5801 -0.4214 -0.6971
vn 0.6819 -0.2216 0.6971
vn 0.0187 -0.0061 0.9998
vn -0.6634 0.2155 0.7166
vn -0.6634 0.2155 -0.7166
vn 0.0187 -0.0061 -0.9998
vn 0.6819 -0.2216 -0.6971
vn -0.8679 -0.3807 0.3190
vn -0.9250 -0.3800 -0.0000
vn -0.7848 -0.6198 -0.0000
vn -0.7354 -0.6220 0.2690
vn -0.0000 -0.3800 0.9250
vn -0.3190 -0.3807 0.8679
vn -0.2690 -0.6220 0.7354
vn -0.0000 -0.6198 0.7848
vn -0.6535 -0.3818 0.6535
vn -0.5499 -0.6287 0.5499
vn -0.6535 -0.3818 -0.6535
vn -0.3190 -0.3807 -0.8679
vn -0.2690 -0.6220 -0.7354
vn -0.5499 -0.6287 -0.5499
vn -0.6776 -0.2857 0.6776
vn -0.3374 -0.2913 0.8952
vn -0.3580 0.0151 0.9336
vn -0.7070 0.0174 0.7070
vn -0.0000 -0.2979 0.9546
vn -0.0000 0.0127 0.9999
vn 0.3374 -0.2913 0.8952
vn 0.3580 0.0151 0.9336
vn 0.6776 -0.2857 0.6776
vn 0.7070 0.0174 0.7070
vn -0.3403 0.3403 0.8766
vn -0.6737 0.3036 0.6737
vn -0.0000 0.3610 0.9326
vn 0.3403 0.3403 0.8766
vn 0.6737 0.3036 0.6737
vn -0.3036 0.6737 0.6737
vn -0.5774 0.5774 0.5774
vn -0.0000 0.7071 0.7071
vn 0.3036 0.6737 0.6737
vn 0.5773 0.5774 0.5774
vn 0.6535 -0.3818 0.6535
vn 0.3190 -0.3807 0.8679
vn 0.2690 -0.6220 0.7354
vn 0.5499 -0.6287 0.5499
vn -0.8679 -0.3807 -0.3190
vn -0.7354 -0.6220 -0.2690
vn 0.9250 -0.3800 -0.0000
vn 0.8679 -0.3807 0.3190
vn 0.7354 -0.6220 0.2690
vn 0.7848 -0.6198 -0.0000
vn 0.8952 -0.2913 0.3374
vn 0.9336 0.0151 0.3580
vn 0.9546 -0.2979 -0.0000
vn 0.9999 0.0127 -0.0000
vn 0.8952 -0.2913 -0.3374
vn 0.9336 0.0151 -0.3580
vn 0.6776 -0.2857 -0.6776
vn 0.7070 0.0174 -0.7070
vn 0.8766 0.3403 0.3403
vn 0.9326 0.3610 -0.0000
vn 0.8766 0.3403 -0.3403
vn 0.6737 0.3036 -0.6737
vn 0.6737 0.6737 0.3036
vn 0.7071 0.7071 -0.0000
vn 0.6737 0.6737 -0.3036
vn 0.5774 0.5774 -0.5773
vn 0.3190 -0.3807 -0.8679
vn 0.6535 -0.3818 -0.6535
vn 0.5499 -0.6287 -0.5499
vn 0.2690 -0.6220 -0.7354
vn -0.0000 -0.3800 -0.9250
vn -0.0000 -0.6198 -0.7848
vn 0.8679 -0.3807 -0.3190
vn 0.7354 -0.6220 -0.2690
vn 0.3374 -0.2913 -0.8952
vn 0.3580 0.0151 -0.9336
vn -0.0000 -0.2979 -0.9546
vn -0.0000 0.0127 -0.9999
vn -0.3374 -0.2913 -0.8952
vn -0.3580 0.0151 -0.9336
vn -0.6776 -0.2857 -0.6776
vn -0.7070 0.0174 -0.7070
vn 0.3403 0.3403 -0.8766
vn -0.0000 0.3610 -0.9326
vn -0.3403 0.3403 -0.8766
vn -0.6737 0.3036 -0.6737
vn 0.3036 0.6737 -0.6737
vn -0.0000 0.7071 -0.7071
vn -0.3036 0.6737 -0.6737
vn -0.5773 0.5774 -0.5774
vn -0.8952 -0.2913 -0.3374
vn -0.9336 0.0151 -0.3580
vn -0.9546 -0.2979 -0.0000
vn -0.9999 0.0127 -0.0000
vn -0.8952 -0.2913 0.3374
vn -0.9336 0.0151 0.3580
vn -0.8766 0.3403 -0.3403
vn -0.9326 0.3610 -0.0000
vn -0.8766 0.3403 0.3403
vn -0.6737 0.6737 -0.3036
vn -0.7071 0.7071 -0.0000
vn -0.6737 0.6737 0.3036
vn -0.3264 -0.3191 -0.8897
vn -0.6685 -0.3259 -0.6685
vn 0.9484 -0.3171 -0.0000
vn 0.8897 -0.3191 -0.3264
vn -0.0000 -0.3171 0.9484
vn 0.3264 -0.3191 0.8897
vn -0.3264 -0.3191 0.8897
vn -0.0000 -0.3171 -0.9484
vn -0.8897 -0.3191 0.3264
vn -0.6685 -0.3259 0.6685
vn -0.9484 -0.3171 -0.0000
vn 0.6685 -0.3259 0.6685
vn 0.8897 -0.3191 0.3264
vn 0.6685 -0.3259 -0.6685
vn 0.3264 -0.3191 -0.8897
vn -0.8897 -0.3191 -0.3264
vn -0.3403 0.8766 0.3403
vn -0.0000 0.9326 0.3610
vn 0.3403 0.8766 0.3403
vn -0.3610 0.9326 -0.0000
vn 0.3610 0.9326 -0.0000
vn -0.3403 0.8766 -0.3403
vn -0.0000 0.9326 -0.3610
vn 0.3403 0.8766 -0.3403
vn 0.9366 -0.0688 0.3437
vn 0.7054 -0.0703 0.7054
vn 0.7063 -0.0475 0.7063
vn 0.9376 -0.0469 0.3445
vn -0.0000 -0.0683 -0.9977
vn 0.3437 -0.0688 -0.9366
vn 0.3445 -0.0469 -0.9376
vn -0.0000 -0.0466 -0.9989
vn 0.9366 -0.0688 -0.3437
vn 0.9977 -0.0683 -0.0000
vn 0.9989 -0.0466 -0.0000
vn 0.9376 -0.0469 -0.3445
vn -0.9366 -0.0688 -0.3437
vn -0.7054 -0.0703 -0.7054
vn -0.7063 -0.0475 -0.7063
vn -0.9376 -0.0469 -0.3445
vn 0.7054 -0.0703 -0.7054
vn 0.7063 -0.0475 -0.7063
vn -0.3437 -0.0688 -0.9366
vn -0.3445 -0.0469 -0.9376
vn -0.7054 -0.0703 0.7054
vn -0.9366 -0.0688 0.3437
vn -0.9376 -0.0469 0.3445
vn -0.7063 -0.0475 0.7063
vn -0.9977 -0.0683 -0.0000
vn -0.9989 -0.0466 -0.0000
vn 0.3437 -0.0688 0.9366
vn -0.0000 -0.0683 0.9977
vn -0.0000 -0.0466 0.9989
vn 0.3445 -0.0469 0.9376
vn -0.3437 -0.0688 0.9366
vn -0.3445 -0.0469 0.9376
vn 0.9977 -0.0679 -0.0000
vn 0.9637 -0.0679 0.2582
vn 0.9637 -0.0679 -0.2582
vn -0.0000 -0.0679 0.9977
vn -0.2582 -0.0679 0.9637
vn 0.8640 -0.0679 -0.4988
vn -0.4988 -0.0679 0.8640
vn 0.7055 -0.0679 -0.7055
vn -0.7055 -0.0679 0.7055
vn 0.4988 -0.0679 -0.8640
vn -0.8640 -0.0679 0.4988
vn 0.2582 -0.0679 -0.9637
vn -0.9637 -0.0679 0.2582
vn -0.9977 -0.0679 -0.0000
vn -0.6947 -0.0000 -0.7193
vn -0.8660 -0.0000 0.5000
vn -0.2756 -0.0000 0.9613
vn 0.0015 1.0000 0.0055
vn -0.0000 1.0000 0.0057
vn -0.1830 0.7071 -0.6830
vn 0.0029 -1.0000 0.0050
vn 0.0040 -1.0000 0.0040
vn -0.5000 -0.7071 -0.5000
vn -0.3536 -0.7071 -0.6124
vn -0.0040 1.0000 -0.0040
vn -0.0029 1.0000 -0.0050
vn 0.3536 0.7071 0.6124
vn 0.5000 0.7071 0.5000
vn -0.0050 -1.0000 -0.0029
vn -0.0055 -1.0000 -0.0015
vn 0.6830 -0.7071 0.1830
vn 0.6124 -0.7071 0.3536
vn 0.0015 -1.0000 0.0055
vn -0.1830 -0.7071 -0.6830
vn -0.0015 1.0000 -0.0055
vn -0.0000 1.0000 -0.0057
vn 0.1830 0.7071 0.6830
vn -0.0040 -1.0000 -0.0040
vn 0.5000 -0.7071 0.5000
vn 0.0015 1.0000 -0.0055
vn -0.1830 0.7071 0.6830
vn -0.0000 -1.0000 0.0057
vn -0.0000 -0.7071 -0.7071
vn -0.0015 1.0000 0.0055
vn 0.1830 0.7071 -0.6830
vn 0.0029 1.0000 -0.0050
vn -0.3536 0.7071 0.6124
vn -0.0050 1.0000 0.0029
vn -0.0055 1.0000 0.0015
vn 0.6830 0.7071 -0.1830
vn 0.6124 0.7071 -0.3536
vn 0.5000 -0.0000 0.8660
vn 0.9703 -0.0000 0.2420
vn 0.8660 -0.0000 -0.5000
vn -0.6947 -0.0000 0.7193
vn -0.9703 -0.0000 -0.2420
vn -0.8660 -0.0000 -0.5000
vn -0.9703 -0.0000 0.2420
vn -0.2756 -0.0000 -0.9613
vn -0.0000 -0.0000 1.0000
vn 0.6947 -0.0000 0.7193
vn -0.0029 -1.0000 -0.0050
vn 0.3536 -0.7071 0.6124
vn 0.0040 1.0000 -0.0040
vn -0.5000 0.7071 0.5000
vn -0.5000 -0.0000 0.8660
vn 0.2756 -0.0000 0.9613
vn 0.5000 -0.0000 -0.8660
vn 0.9703 -0.0000 -0.2420
vn 0.6947 -0.0000 -0.7193
vn -0.0000 -1.0000 -0.0057
vn -0.0015 -1.0000 -0.0055
vn 0.1830 -0.7071 0.6830
vn -0.0000 -0.7071 0.7071
vn -0.0040 1.0000 0.0040
vn 0.5000 0.7071 -0.5000
vn -0.0000 -0.0000 -1.0000
vn 0.8660 -0.0000 0.5000
vn -0.5000 -0.0000 -0.8660
vn 0.2756 -0.0000 -0.9613
vn 0.0015 -1.0000 -0.0055
vn -0.1830 -0.7071 0.6830
vn 0.0050 1.0000 -0.0029
vn -0.6124 0.7071 0.3536
vn -0.0015 -1.0000 0.0055
vn 0.1830 -0.7071 -0.6830
vn -0.0029 1.0000 0.0050
vn 0.3536 0.7071 -0.6124
vn 0.0029 -1.0000 -0.0050
vn -0.3536 -0.7071 0.6124
vn -0.0055 -1.0000 0.0015
vn -0.0050 -1.0000 0.0029
vn 0.6124 -0.7071 -0.3536
vn 0.6830 -0.7071 -0.1830
vn 0.0055 1.0000 -0.0015
vn -0.6830 0.7071 0.1830
vn -0.2588 -0.0000 -0.9659
vn -0.7071 -0.0000 -0.7071
vn -0.6124 -0.7071 -0.3536
vn -0.9659 -0.0000 -0.2588
vn -0.6830 -0.7071 -0.1830
vn -0.7071 -0.7071 -0.0000
vn -0.9659 -0.0000 0.2588
vn -0.6830 -0.7071 0.1830
vn -0.6124 -0.7071 0.3536
vn -0.7071 -0.0000 0.7071
vn -0.5000 -0.7071 0.5000
vn -0.2588 -0.0000 0.9659
vn 0.9659 -0.0000 -0.2588
vn 0.7071 -0.7071 -0.0000
vn 0.9659 -0.0000 0.2588
vn 0.7071 -0.0000 0.7071
vn 0.2588 -0.0000 0.9659
vn 0.2588 -0.0000 -0.9659
vn 0.3536 -0.7071 -0.6124
vn 0.7071 -0.0000 -0.7071
vn 0.5000 -0.7071 -0.5000
vn 0.0050 -1.0000 0.0029
vn -0.0050 1.0000 -0.0029
vn 0.6124 0.7071 0.3536
vn 0.0029 1.0000 0.0050
vn -0.3536 0.7071 -0.6124
vn 0.0055 -1.0000 0.0015
vn -0.0055 1.0000 -0.0015
vn 0.6830 0.7071 0.1830
vn -0.0057 -1.0000 -0.0000
vn 0.0040 1.0000 0.0040
vn -0.5000 0.7071 -0.5000
vn 0.0057 -1.0000 -0.0000
vn 0.0050 1.0000 0.0029
vn -0.6124 0.7071 -0.3536
vn 0.0055 -1.0000 -0.0015
vn 0.0055 1.0000 0.0015
vn -0.6830 0.7071 -0.1830
vn -0.0029 -1.0000 0.0050
vn 0.0050 -1.0000 -0.0029
vn -0.0057 1.0000 -0.0000
vn 0.0057 1.0000 -0.0000
vn -0.0040 -1.0000 0.0040
vn 0.0040 -1.0000 -0.0040
vn 0.4268 0.8971 -0.1144
vn 0.4418 0.8971 -0.0000
vn -0.2209 0.8971 -0.3826
vn -0.1144 0.8971 -0.4268
vn -0.4418 0.8971 -0.0000
vn -0.4268 0.8971 -0.1144
vn 0.4268 0.8971 0.1144
vn -0.4268 0.8971 0.1144
vn 0.3826 0.8971 0.2209
vn 0.3124 0.8971 0.3124
vn 0.2209 0.8971 0.3826
vn -0.3826 0.8971 -0.2209
vn 0.1144 0.8971 0.4268
vn -0.3124 0.8971 -0.3124
vn -0.1144 0.8971 0.4268
vn -0.2209 0.8971 0.3826
vn 0.3826 0.8971 -0.2209
vn -0.3124 0.8971 0.3124
vn 0.3124 0.8971 -0.3124
vn -0.3826 0.8971 0.2209
vn 0.2209 0.8971 -0.3826
vn 0.1144 0.8971 -0.4268
vn -0.0000 0.8971 0.4418
vn -0.0000 0.8971 -0.4418
vn 0.3124 -0.8971 -0.3124
vn 0.2209 -0.8971 -0.3826
vn -0.3826 -0.8971 0.2209
vn -0.3124 -0.8971 0.3124
vn 0.3826 -0.8971 -0.2209
vn -0.2209 -0.8971 0.3826
vn 0.4268 -0.8971 -0.1144
vn -0.1144 -0.8971 0.4268
vn 0.4418 -0.8971 -0.0000
vn -0.1144 -0.8971 -0.4268
vn -0.2209 -0.8971 -0.3826
vn -0.4268 -0.8971 -0.1144
vn -0.4418 -0.8971 -0.0000
vn 0.4268 -0.8971 0.1144
vn -0.4268 -0.8971 0.1144
vn 0.3826 -0.8971 0.2209
vn 0.3124 -0.8971 0.3124
vn 0.1144 -0.8971 -0.4268
vn -0.0000 -0.8971 0.4418
vn -0.0000 -0.8971 -0.4418
vn -0.3124 -0.8971 -0.3124
vn 0.1144 -0.8971 0.4268
vn -0.3826 -0.8971 -0.2209
vn 0.2209 -0.8971 0.3826
vn -0.0000 -0.0679 -0.9977
vn 0.8640 -0.0679 0.4988
vn -0.2582 -0.0679 -0.9637
vn 0.2582 -0.0679 0.9637
vn 0.7055 -0.0679 0.7055
vn -0.4988 -0.0679 -0.8640
vn 0.4988 -0.0679 0.8640
vn -0.7055 -0.0679 -0.7055
vn -0.8640 -0.0679 -0.4988
vn -0.9637 -0.0679 -0.2582
vt 0.707649 0.763654
vt 0.753885 0.763654
vt 0.753885 0.782169
vt 0.707649 0.782169
vt 0.753885 0.800519
vt 0.707649 0.800519
vt 0.753885 0.818588
vt 0.707649 0.818588
vt 0.753885 0.836425
vt 0.707649 0.836425
vt 0.707649 0.690882
vt 0.753885 0.690882
vt 0.753885 0.708719
vt 0.707649 0.708719
vt 0.753885 0.726788
vt 0.707649 0.726788
vt 0.753885 0.745138
vt 0.707649 0.745138
vt 0.800121 0.763654
vt 0.800121 0.782169
vt 0.800121 0.800519
vt 0.800121 0.818588
vt 0.800121 0.836425
vt 0.800121 0.690882
vt 0.800121 0.708719
vt 0.800121 0.726788
vt 0.800121 0.745138
vt 0.846358 0.763654
vt 0.846358 0.782169
vt 0.846358 0.800519
vt 0.846358 0.818588
vt 0.846358 0.836425
vt 0.846358 0.690882
vt 0.846358 0.708719
vt 0.846358 0.726788
vt 0.846358 0.745138
vt 0.892594 0.763654
vt 0.892594 0.782169
vt 0.892594 0.800519
vt 0.892594 0.818588
vt 0.892594 0.836425
vt 0.892594 0.690882
vt 0.892594 0.708719
vt 0.892594 0.726788
vt 0.892594 0.745138
vt 0.938830 0.763654
vt 0.938830 0.782169
vt 0.938830 0.800519
vt 0.938830 0.818588
vt 0.938830 0.836425
vt 0.938830 0.690882
vt 0.938830 0.708719
vt 0.938830 0.726788
vt 0.938830 0.745137
vt 0.004877 0.763654
vt 0.051689 0.763654
vt 0.051689 0.782169
vt 0.004877 0.782169
vt 0.051689 0.800519
vt 0.004877 0.800519
vt 0.051689 0.818588
vt 0.004877 0.818588
vt 0.051689 0.836425
vt 0.004877 0.836425
vt 0.004877 0.690882
vt 0.051689 0.690882
vt 0.051689 0.708719
vt 0.004877 0.708719
vt 0.051689 0.726788
vt 0.004877 0.726788
vt 0.051689 0.745138
vt 0.004877 0.745137
vt 0.098501 0.763654
vt 0.098501 0.782169
vt 0.098501 0.800519
vt 0.098501 0.818588
vt 0.098501 0.836425
vt 0.098501 0.690882
vt 0.098501 0.708719
vt 0.098501 0.726788
vt 0.098501 0.745138
vt 0.145313 0.763654
vt 0.145313 0.782169
vt 0.145313 0.800519
vt 0.145313 0.818588
vt 0.145313 0.836425
vt 0.145313 0.690881
vt 0.145313 0.708719
vt 0.145313 0.726788
vt 0.145313 0.745138
vt 0.192125 0.763654
vt 0.192125 0.782169
vt 0.192125 0.800519
vt 0.192125 0.818588
vt 0.192125 0.836425
vt 0.192125 0.690881
vt 0.192125 0.708719
vt 0.192125 0.726788
vt 0.192125 0.745138
vt 0.238936 0.763654
vt 0.238936 0.782169
vt 0.238936 0.800519
vt 0.238936 0.818588
vt 0.238936 0.836425
vt 0.238937 0.690881
vt 0.238936 0.708719
vt 0.238936 0.726788
vt 0.238936 0.745138
vt 0.285749 0.763654
vt 0.285749 0.782169
vt 0.285749 0.800519
vt 0.285749 0.818588
vt 0.285749 0.836425
vt 0.285748 0.690882
vt 0.285749 0.708719
vt 0.285749 0.726788
vt 0.285749 0.745138
vt 0.332560 0.763654
vt 0.332560 0.782169
vt 0.332560 0.800519
vt 0.332560 0.818588
vt 0.332560 0.836425
vt 0.332560 0.690882
vt 0.332560 0.708719
vt 0.332560 0.726788
vt 0.332560 0.745138
vt 0.379372 0.763654
vt 0.379372 0.782169
vt 0.379372 0.800519
vt 0.379372 0.818588
vt 0.379372 0.836425
vt 0.379372 0.690882
vt 0.379372 0.708719
vt 0.379372 0.726788
vt 0.379372 0.745138
vt 0.426184 0.763654
vt 0.426184 0.782169
vt 0.426184 0.800519
vt 0.426184 0.818588
vt 0.426184 0.836425
vt 0.426184 0.690882
vt 0.426184 0.708719
vt 0.426184 0.726788
vt 0.426184 0.745138
vt 0.472996 0.763654
vt 0.472996 0.782169
vt 0.472996 0.800519
vt 0.472996 0.818588
vt 0.472996 0.836425
vt 0.472996 0.690882
vt 0.472996 0.708719
vt 0.472996 0.726788
vt 0.472996 0.745138
vt 0.519808 0.763654
vt 0.519808 0.782169
vt 0.519808 0.800519
vt 0.519808 0.818588
vt 0.519808 0.836425
vt 0.519808 0.690882
vt 0.519808 0.708719
vt 0.519808 0.726788
vt 0.519808 0.745138
vt 0.566620 0.763654
vt 0.566620 0.782169
vt 0.566620 0.800519
vt 0.566620 0.818588
vt 0.566620 0.836425
vt 0.566620 0.690882
vt 0.566620 0.708719
vt 0.566620 0.726788
vt 0.566620 0.745138
vt 0.613432 0.763654
vt 0.613432 0.782169
vt 0.613432 0.800519
vt 0.613432 0.818588
vt 0.613432 0.836425
vt 0.613432 0.690882
vt 0.613432 0.708719
vt 0.613432 0.726788
vt 0.613432 0.745138
vt 0.660243 0.763654
vt 0.660243 0.782169
vt 0.660243 0.800519
vt 0.660243 0.818588
vt 0.660243 0.836425
vt 0.660244 0.690882
vt 0.660243 0.708719
vt 0.660243 0.726788
vt 0.660243 0.745138
vt 0.299714 0.675721
vt 0.324470 0.675721
vt 0.324470 0.682858
vt 0.299714 0.682858
vt 0.217941 0.675721
vt 0.242697 0.675721
vt 0.242697 0.682858
vt 0.217941 0.682858
vt 0.271206 0.675721
vt 0.271206 0.682858
vt 0.377735 0.675721
vt 0.406243 0.675721
vt 0.406243 0.682858
vt 0.377735 0.682858
vt 0.271206 0.502890
vt 0.242697 0.502890
vt 0.242697 0.467677
vt 0.271206 0.467677
vt 0.217941 0.502890
vt 0.217941 0.467677
vt 0.193185 0.502890
vt 0.193185 0.467677
vt 0.164676 0.502890
vt 0.164676 0.467677
vt 0.242697 0.438883
vt 0.271206 0.438883
vt 0.217941 0.438883
vt 0.193185 0.438883
vt 0.164676 0.438883
vt 0.463639 0.442109
vt 0.500803 0.423897
vt 0.511905 0.459340
vt 0.484827 0.464108
vt 0.536626 0.418761
vt 0.535877 0.458635
vt 0.572231 0.425238
vt 0.559806 0.460239
vt 0.608684 0.444832
vt 0.586686 0.466020
vt 0.164677 0.675721
vt 0.193185 0.675721
vt 0.193185 0.682858
vt 0.164677 0.682858
vt 0.349227 0.675721
vt 0.349227 0.682858
vt 0.111412 0.675721
vt 0.136168 0.675721
vt 0.136168 0.682858
vt 0.111412 0.682858
vt 0.136168 0.502890
vt 0.136168 0.467677
vt 0.111412 0.502890
vt 0.111412 0.467677
vt 0.086656 0.502890
vt 0.086656 0.467677
vt 0.058147 0.502890
vt 0.058147 0.467677
vt 0.136168 0.438883
vt 0.111412 0.438883
vt 0.086656 0.438883
vt 0.058147 0.438883
vt 0.626896 0.481995
vt 0.591454 0.493098
vt 0.632032 0.517818
vt 0.592158 0.517070
vt 0.625556 0.553423
vt 0.590554 0.540999
vt 0.605961 0.589877
vt 0.584773 0.567878
vt 0.029639 0.675721
vt 0.058147 0.675721
vt 0.058147 0.682858
vt 0.029639 0.682858
vt 0.431000 0.675721
vt 0.431000 0.682858
vt 0.086656 0.675721
vt 0.086656 0.682858
vt 0.029639 0.502890
vt 0.029639 0.467677
vt 0.004883 0.502890
vt 0.004882 0.467677
vt 0.431000 0.502890
vt 0.406243 0.502890
vt 0.406243 0.467677
vt 0.431000 0.467677
vt 0.377735 0.502890
vt 0.377735 0.467677
vt 0.029639 0.438883
vt 0.004883 0.438883
vt 0.406244 0.438883
vt 0.431000 0.438883
vt 0.377735 0.438883
vt 0.568798 0.608089
vt 0.557696 0.572646
vt 0.532975 0.613225
vt 0.533723 0.573351
vt 0.497370 0.606748
vt 0.509794 0.571747
vt 0.460916 0.587154
vt 0.482915 0.565966
vt 0.004883 0.675721
vt 0.004883 0.682858
vt 0.349227 0.502890
vt 0.349227 0.467677
vt 0.324470 0.502890
vt 0.324470 0.467677
vt 0.299714 0.502890
vt 0.299714 0.467677
vt 0.349227 0.438883
vt 0.324470 0.438883
vt 0.299714 0.438883
vt 0.442704 0.549991
vt 0.478147 0.538889
vt 0.437568 0.514168
vt 0.477442 0.514916
vt 0.444045 0.478563
vt 0.479046 0.490987
vt 0.406243 0.546266
vt 0.377735 0.546266
vt 0.111412 0.546266
vt 0.086656 0.546266
vt 0.217941 0.546266
vt 0.193185 0.546266
vt 0.242697 0.546266
vt 0.431000 0.546266
vt 0.299714 0.546266
vt 0.271206 0.546266
vt 0.324470 0.546266
vt 0.164676 0.546266
vt 0.136168 0.546266
vt 0.058147 0.546266
vt 0.029639 0.546266
vt 0.349227 0.546266
vt 0.004882 0.546266
vt 0.510164 0.490414
vt 0.535281 0.490389
vt 0.560380 0.491356
vt 0.509196 0.515512
vt 0.534800 0.515993
vt 0.560404 0.516473
vt 0.509221 0.540630
vt 0.534320 0.541597
vt 0.559437 0.541573
vt 0.136168 0.568005
vt 0.164676 0.568005
vt 0.164677 0.666331
vt 0.136168 0.666331
vt 0.004883 0.568005
vt 0.029639 0.568005
vt 0.029639 0.666331
vt 0.004883 0.666331
vt 0.086656 0.568005
vt 0.111412 0.568005
vt 0.111412 0.666331
vt 0.086656 0.666331
vt 0.349227 0.568005
vt 0.377735 0.568005
vt 0.377735 0.666331
vt 0.349227 0.666331
vt 0.058147 0.568005
vt 0.058147 0.666331
vt 0.406243 0.568005
vt 0.431000 0.568005
vt 0.431000 0.666331
vt 0.406243 0.666331
vt 0.271206 0.568005
vt 0.299714 0.568005
vt 0.299714 0.666331
vt 0.271206 0.666331
vt 0.324470 0.568005
vt 0.324470 0.666331
vt 0.193185 0.568005
vt 0.217941 0.568005
vt 0.217941 0.666331
vt 0.193185 0.666331
vt 0.242697 0.568005
vt 0.242697 0.666331
vt 0.696635 0.134545
vt 0.673674 0.125035
vt 0.695106 0.081581
vt 0.721017 0.092314
vt 0.649033 0.408315
vt 0.649033 0.429072
vt 0.594143 0.421845
vt 0.599515 0.401796
vt 0.542994 0.400658
vt 0.553372 0.382683
vt 0.499071 0.366955
vt 0.513748 0.352278
vt 0.465367 0.323032
vt 0.483343 0.312654
vt 0.444181 0.271882
vt 0.464230 0.266510
vt 0.436955 0.216992
vt 0.457711 0.216992
vt 0.444181 0.162102
vt 0.464230 0.167474
vt 0.465368 0.110952
vt 0.483343 0.121331
vt 0.499072 0.067029
vt 0.513748 0.081706
vt 0.542995 0.033326
vt 0.553373 0.051302
vt 0.594144 0.012140
vt 0.599516 0.032188
vt 0.649035 0.004913
vt 0.649035 0.025669
vt 0.731481 0.169392
vt 0.716352 0.149675
vt 0.750834 0.115193
vt 0.773713 0.145010
vt 0.784320 0.081707
vt 0.814725 0.121331
vt 0.698551 0.401797
vt 0.744695 0.382683
vt 0.755073 0.400659
vt 0.703923 0.421845
vt 0.784319 0.352279
vt 0.814724 0.312654
vt 0.832699 0.323033
vt 0.798996 0.366956
vt 0.833837 0.266511
vt 0.840357 0.216993
vt 0.861113 0.216993
vt 0.853886 0.271883
vt 0.833838 0.167475
vt 0.832700 0.110953
vt 0.853887 0.162103
vt 0.744236 0.216993
vt 0.740992 0.192353
vt 0.788095 0.179732
vt 0.793000 0.216993
vt 0.673673 0.308951
vt 0.696635 0.299440
vt 0.721017 0.341671
vt 0.686295 0.356054
vt 0.789132 0.246376
vt 0.744696 0.051302
vt 0.698552 0.032189
vt 0.703924 0.012140
vt 0.755074 0.033327
vt 0.686642 0.179384
vt 0.675627 0.170932
vt 0.798997 0.067030
vt 0.662799 0.165619
vt 0.649034 0.163807
vt 0.649034 0.121791
vt 0.700408 0.203227
vt 0.695094 0.190400
vt 0.649034 0.270178
vt 0.662799 0.268366
vt 0.649034 0.312194
vt 0.672865 0.055117
vt 0.649034 0.045720
vt 0.672865 0.100491
vt 0.682737 0.077804
vt 0.786425 0.257400
vt 0.761842 0.254605
vt 0.740992 0.241633
vt 0.738011 0.295882
vt 0.752723 0.315774
vt 0.743982 0.324049
vt 0.716352 0.284311
vt 0.741789 0.270545
vt 0.731481 0.264594
vt 0.601433 0.134545
vt 0.577051 0.092314
vt 0.602963 0.081581
vt 0.624394 0.125034
vt 0.581716 0.149674
vt 0.547234 0.115192
vt 0.566587 0.169391
vt 0.524355 0.145009
vt 0.557076 0.192352
vt 0.509973 0.179731
vt 0.553832 0.216992
vt 0.505067 0.216992
vt 0.557076 0.241632
vt 0.508936 0.246375
vt 0.601433 0.299440
vt 0.577050 0.341671
vt 0.554085 0.324049
vt 0.581716 0.284310
vt 0.624394 0.308950
vt 0.611772 0.356053
vt 0.649033 0.360959
vt 0.556279 0.270545
vt 0.566586 0.264593
vt 0.560056 0.295882
vt 0.536225 0.254605
vt 0.649034 0.109888
vt 0.625203 0.100491
vt 0.675627 0.263053
vt 0.686642 0.254601
vt 0.700408 0.230758
vt 0.702220 0.216993
vt 0.545344 0.315774
vt 0.520761 0.318568
vt 0.511642 0.257399
vt 0.496930 0.277291
vt 0.615332 0.077804
vt 0.625203 0.055117
vt 0.777306 0.318569
vt 0.797360 0.302629
vt 0.695094 0.243586
vt 0.500707 0.302628
vt 0.635268 0.268366
vt 0.622441 0.263053
vt 0.611426 0.254600
vt 0.602973 0.243585
vt 0.597660 0.230758
vt 0.595848 0.216992
vt 0.597660 0.203227
vt 0.602973 0.190399
vt 0.611426 0.179384
vt 0.622441 0.170932
vt 0.635268 0.165619
vt 0.801137 0.277292
vt 0.164395 0.125892
vt 0.145009 0.092314
vt 0.170920 0.081581
vt 0.189766 0.115383
vt 0.216993 0.408319
vt 0.266512 0.401800
vt 0.271884 0.421849
vt 0.216993 0.429076
vt 0.312656 0.382686
vt 0.323034 0.400662
vt 0.352281 0.352281
vt 0.366958 0.366958
vt 0.382685 0.312656
vt 0.400661 0.323035
vt 0.401799 0.266512
vt 0.421848 0.271885
vt 0.408318 0.216994
vt 0.429075 0.216994
vt 0.401799 0.167475
vt 0.421848 0.162103
vt 0.382685 0.121331
vt 0.400661 0.110953
vt 0.352280 0.081706
vt 0.366957 0.067029
vt 0.312655 0.051301
vt 0.323033 0.033326
vt 0.266511 0.032188
vt 0.271883 0.012139
vt 0.216993 0.025669
vt 0.216993 0.004912
vt 0.125891 0.164397
vt 0.092313 0.145010
vt 0.115192 0.115193
vt 0.142608 0.142610
vt 0.051300 0.121332
vt 0.081705 0.081707
vt 0.167474 0.401800
vt 0.162102 0.421849
vt 0.110952 0.400662
vt 0.121330 0.382687
vt 0.081705 0.352282
vt 0.067028 0.366959
vt 0.033325 0.323035
vt 0.051300 0.312657
vt 0.032187 0.266513
vt 0.012138 0.271885
vt 0.004911 0.216994
vt 0.025667 0.216994
vt 0.032186 0.167476
vt 0.012138 0.162103
vt 0.033325 0.110953
vt 0.111798 0.216994
vt 0.073024 0.216994
vt 0.077930 0.179732
vt 0.115382 0.189768
vt 0.189766 0.318605
vt 0.179731 0.356057
vt 0.145009 0.341675
vt 0.164395 0.308096
vt 0.076893 0.246378
vt 0.121330 0.051301
vt 0.110952 0.033326
vt 0.162102 0.012139
vt 0.167474 0.032188
vt 0.994999 0.479071
vt 0.994999 0.505415
vt 0.868959 0.505415
vt 0.868959 0.479071
vt 0.067028 0.067030
vt 0.994999 0.452727
vt 0.868959 0.452727
vt 0.193161 0.055117
vt 0.216993 0.045720
vt 0.193161 0.100491
vt 0.183290 0.077804
vt 0.079599 0.257402
vt 0.115382 0.244221
vt 0.104182 0.254607
vt 0.128014 0.295885
vt 0.142609 0.291378
vt 0.122043 0.324052
vt 0.113302 0.315777
vt 0.125891 0.269592
vt 0.124237 0.270547
vt 0.269590 0.125892
vt 0.244219 0.115383
vt 0.263065 0.081581
vt 0.288977 0.092314
vt 0.291377 0.142610
vt 0.318794 0.115193
vt 0.308094 0.164396
vt 0.341673 0.145010
vt 0.318603 0.189767
vt 0.356055 0.179732
vt 0.322188 0.216994
vt 0.360961 0.216994
vt 0.318604 0.244220
vt 0.357093 0.246377
vt 0.269591 0.308096
vt 0.291377 0.291378
vt 0.311943 0.324052
vt 0.288977 0.341674
vt 0.244219 0.318605
vt 0.254255 0.356057
vt 0.216993 0.322189
vt 0.216993 0.360962
vt 0.309749 0.270547
vt 0.305972 0.295884
vt 0.308095 0.269592
vt 0.329803 0.254607
vt 0.216993 0.109888
vt 0.240824 0.100491
vt 0.216993 0.111799
vt 0.994999 0.004879
vt 0.994999 0.031223
vt 0.868959 0.031223
vt 0.868959 0.004879
vt 0.320684 0.315777
vt 0.345267 0.318571
vt 0.354386 0.257401
vt 0.369098 0.277294
vt 0.250695 0.077804
vt 0.240824 0.055117
vt 0.088719 0.318571
vt 0.068665 0.302631
vt 0.365320 0.302631
vt 0.994999 0.426383
vt 0.868959 0.426383
vt 0.994999 0.057567
vt 0.868959 0.057567
vt 0.994999 0.400039
vt 0.868959 0.400039
vt 0.994999 0.083911
vt 0.868959 0.083911
vt 0.994999 0.373695
vt 0.868959 0.373695
vt 0.994999 0.110255
vt 0.868959 0.110255
vt 0.994999 0.347351
vt 0.868959 0.347351
vt 0.064887 0.277294
vt 0.994999 0.136599
vt 0.868959 0.136599
vt 0.994999 0.162943
vt 0.868959 0.162943
vt 0.663168 0.514054
vt 0.663168 0.489315
vt 0.679909 0.489315
vt 0.679909 0.514054
vt 0.688842 0.539593
vt 0.688842 0.513977
vt 0.705583 0.513977
vt 0.705583 0.539593
vt 0.063590 0.975616
vt 0.004879 0.975616
vt 0.004879 0.964671
vt 0.063590 0.964671
vt 0.122302 0.932736
vt 0.181014 0.932736
vt 0.181014 0.943681
vt 0.122302 0.943681
vt 0.533293 0.856736
vt 0.592006 0.856736
vt 0.592006 0.867681
vt 0.533293 0.867681
vt 0.474580 0.899616
vt 0.415868 0.899616
vt 0.415868 0.888671
vt 0.474580 0.888671
vt 0.063590 0.932736
vt 0.063590 0.943681
vt 0.650719 0.856736
vt 0.709432 0.856736
vt 0.709432 0.867681
vt 0.650719 0.867681
vt 0.533293 0.899616
vt 0.533293 0.888671
vt 0.709419 0.975616
vt 0.650707 0.975616
vt 0.650707 0.964671
vt 0.709419 0.964671
vt 0.004879 0.932736
vt 0.004879 0.943682
vt 0.004878 0.856736
vt 0.063591 0.856736
vt 0.063591 0.867681
vt 0.004878 0.867681
vt 0.591995 0.975616
vt 0.591995 0.964671
vt 0.239730 0.856736
vt 0.298442 0.856736
vt 0.298442 0.867681
vt 0.239730 0.867681
vt 0.688842 0.489237
vt 0.705583 0.489237
vt 0.688842 0.464498
vt 0.688842 0.438882
vt 0.705583 0.438882
vt 0.705583 0.464498
vt 0.663168 0.464576
vt 0.679909 0.464576
vt 0.688842 0.565208
vt 0.705583 0.565208
vt 0.638611 0.640300
vt 0.638611 0.614686
vt 0.655352 0.614686
vt 0.655352 0.640300
vt 0.638611 0.464500
vt 0.638611 0.438885
vt 0.655352 0.438885
vt 0.655352 0.464500
vt 0.663168 0.640376
vt 0.663168 0.614761
vt 0.679909 0.614761
vt 0.679909 0.640376
vt 0.592006 0.899616
vt 0.592006 0.888671
vt 0.533284 0.975616
vt 0.533284 0.964671
vt 0.638611 0.589946
vt 0.655352 0.589946
vt 0.638611 0.565207
vt 0.655352 0.565207
vt 0.638611 0.489239
vt 0.655352 0.489239
vt 0.638611 0.513978
vt 0.655352 0.513978
vt 0.663168 0.590022
vt 0.679909 0.590022
vt 0.663168 0.565283
vt 0.679909 0.565283
vt 0.709432 0.899616
vt 0.650719 0.899616
vt 0.650719 0.888671
vt 0.709432 0.888671
vt 0.181017 0.856736
vt 0.181017 0.867681
vt 0.663168 0.539668
vt 0.679909 0.539668
vt 0.638611 0.539593
vt 0.655352 0.539593
vt 0.688842 0.589948
vt 0.705583 0.589948
vt 0.688842 0.640303
vt 0.688842 0.614687
vt 0.705583 0.614687
vt 0.705583 0.640303
vt 0.650707 0.932736
vt 0.709419 0.932736
vt 0.709419 0.943681
vt 0.650707 0.943681
vt 0.474572 0.975616
vt 0.474572 0.964671
vt 0.063591 0.899616
vt 0.004878 0.899616
vt 0.004878 0.888671
vt 0.063591 0.888671
vt 0.122304 0.856736
vt 0.122304 0.867681
vt 0.591995 0.932736
vt 0.591995 0.943681
vt 0.298442 0.899616
vt 0.239730 0.899616
vt 0.239730 0.888671
vt 0.298442 0.888671
vt 0.663168 0.438961
vt 0.679908 0.438961
vt 0.415860 0.975616
vt 0.415860 0.964671
vt 0.063590 0.954176
vt 0.004879 0.954176
vt 0.122302 0.954176
vt 0.181014 0.954176
vt 0.239725 0.954176
vt 0.239725 0.943681
vt 0.298437 0.954176
vt 0.298437 0.943681
vt 0.357148 0.954176
vt 0.357148 0.943681
vt 0.415860 0.954176
vt 0.415860 0.943681
vt 0.474572 0.954176
vt 0.474572 0.943681
vt 0.533284 0.954176
vt 0.533284 0.943681
vt 0.591995 0.954176
vt 0.650707 0.954176
vt 0.709419 0.954176
vt 0.298442 0.878176
vt 0.357155 0.878176
vt 0.357155 0.888671
vt 0.415868 0.878176
vt 0.533293 0.878176
vt 0.592006 0.878176
vt 0.650719 0.878176
vt 0.063591 0.878176
vt 0.122304 0.878176
vt 0.122304 0.888671
vt 0.181017 0.878176
vt 0.181017 0.888671
vt 0.239730 0.878176
vt 0.474580 0.878176
vt 0.004878 0.878176
vt 0.709432 0.878176
vt 0.239725 0.932736
vt 0.474580 0.856736
vt 0.474580 0.867681
vt 0.122302 0.975616
vt 0.122302 0.964671
vt 0.298437 0.932736
vt 0.415868 0.856736
vt 0.415868 0.867681
vt 0.357155 0.899616
vt 0.181014 0.975616
vt 0.181014 0.964671
vt 0.357148 0.932736
vt 0.239725 0.975616
vt 0.239725 0.964671
vt 0.415860 0.932736
vt 0.298437 0.975616
vt 0.298437 0.964671
vt 0.122304 0.899616
vt 0.474572 0.932736
vt 0.357155 0.856736
vt 0.357155 0.867681
vt 0.357148 0.975616
vt 0.357148 0.964671
vt 0.181017 0.899616
vt 0.533284 0.932736
vt 0.415860 0.987468
vt 0.357148 0.987468
vt 0.592006 0.844884
vt 0.650719 0.844884
vt 0.357155 0.844884
vt 0.415868 0.844884
vt 0.298437 0.987468
vt 0.298442 0.844884
vt 0.239725 0.987468
vt 0.181014 0.987468
vt 0.122302 0.987468
vt 0.474580 0.844884
vt 0.063590 0.987468
vt 0.533294 0.844884
vt 0.063591 0.844884
vt 0.122304 0.844884
vt 0.474572 0.987468
vt 0.181017 0.844884
vt 0.533284 0.987468
vt 0.239730 0.844884
vt 0.591995 0.987468
vt 0.650707 0.987468
vt 0.004878 0.844884
vt 0.709419 0.987468
vt 0.709432 0.844883
vt 0.004879 0.987468
vt 0.533284 0.920884
vt 0.591995 0.920884
vt 0.239730 0.911469
vt 0.181017 0.911469
vt 0.474572 0.920884
vt 0.122304 0.911469
vt 0.415860 0.920884
vt 0.063591 0.911469
vt 0.357148 0.920884
vt 0.650719 0.911469
vt 0.592006 0.911469
vt 0.415868 0.911469
vt 0.357155 0.911469
vt 0.298437 0.920884
vt 0.298442 0.911469
vt 0.239725 0.920884
vt 0.181014 0.920884
vt 0.650707 0.920884
vt 0.004878 0.911469
vt 0.709419 0.920884
vt 0.709432 0.911469
vt 0.533293 0.911469
vt 0.004879 0.920884
vt 0.063590 0.920884
vt 0.474580 0.911469
vt 0.122302 0.920884
vt 0.217280 0.217555
vt 0.217279 0.314196
vt 0.192267 0.310903
vt 0.168959 0.301248
vt 0.133586 0.265876
vt 0.148944 0.285890
vt 0.120639 0.217555
vt 0.123932 0.192542
vt 0.133586 0.169234
vt 0.217280 0.120914
vt 0.168959 0.133862
vt 0.192267 0.124207
vt 0.148944 0.149220
vt 0.265600 0.301249
vt 0.242292 0.310903
vt 0.300973 0.265876
vt 0.285615 0.285891
vt 0.313920 0.217555
vt 0.310628 0.242568
vt 0.300973 0.169235
vt 0.310628 0.192543
vt 0.265600 0.133862
vt 0.285615 0.149220
vt 0.242292 0.124207
vt 0.994999 0.321007
vt 0.868959 0.321007
vt 0.994999 0.531759
vt 0.868959 0.531759
vt 0.994999 0.294663
vt 0.868959 0.294663
vt 0.994999 0.610791
vt 0.994999 0.637135
vt 0.868959 0.637135
vt 0.868959 0.610791
vt 0.994999 0.558103
vt 0.868959 0.558103
vt 0.994999 0.268319
vt 0.868959 0.268319
vt 0.994999 0.584447
vt 0.868959 0.584447
vt 0.994999 0.241975
vt 0.868959 0.241975
vt 0.994999 0.215631
vt 0.868959 0.215631
vt 0.994999 0.189287
vt 0.868959 0.189287
vt 0.123932 0.242568
s 1
f 1/1/1 9/2/2 10/3/3 2/4/4
f 2/4/4 10/3/3 11/5/5 3/6/6
f 3/6/6 11/5/5 12/7/7 4/8/8
f 4/8/8 12/7/7 13/9/9 5/10/10
f 5/11/10 13/12/9 14/13/11 6/14/12
f 6/14/12 14/13/11 15/15/13 7/16/14
f 7/16/14 15/15/13 16/17/15 8/18/16
f 8/18/16 16/17/15 9/2/2 1/1/1
f 9/2/2 17/19/17 18/20/18 10/3/3
f 10/3/3 18/20/18 19/21/19 11/5/5
f 11/5/5 19/21/19 20/22/20 12/7/7
f 12/7/7 20/22/20 21/23/21 13/9/9
f 13/12/9 21/24/21 22/25/22 14/13/11
f 14/13/11 22/25/22 23/26/23 15/15/13
f 15/15/13 23/26/23 24/27/24 16/17/15
f 16/17/15 24/27/24 17/19/17 9/2/2
f 17/19/17 25/28/25 26/29/26 18/20/18
f 18/20/18 26/29/26 27/30/27 19/21/19
f 19/21/19 27/30/27 28/31/28 20/22/20
f 20/22/20 28/31/28 29/32/29 21/23/21
f 21/24/21 29/33/29 30/34/30 22/25/22
f 22/25/22 30/34/30 31/35/31 23/26/23
f 23/26/23 31/35/31 32/36/32 24/27/24
f 24/27/24 32/36/32 25/28/25 17/19/17
f 25/28/25 33/37/33 34/38/34 26/29/26
f 26/29/26 34/38/34 35/39/35 27/30/27
f 27/30/27 35/39/35 36/40/36 28/31/28
f 28/31/28 36/40/36 37/41/37 29/32/29
f 29/33/29 37/42/37 38/43/38 30/34/30
f 30/34/30 38/43/38 39/44/39 31/35/31
f 31/35/31 39/44/39 40/45/40 32/36/32
f 32/36/32 40/45/40 33/37/33 25/28/25
f 33/37/33 41/46/41 42/47/42 34/38/34
f 34/38/34 42/47/42 43/48/43 35/39/35
f 35/39/35 43/48/43 44/49/44 36/40/36
f 36/40/36 44/49/44 45/50/45 37/41/37
f 37/42/37 45/51/45 46/52/46 38/43/38
f 38/43/38 46/52/46 47/53/47 39/44/39
f 39/44/39 47/53/47 48/54/48 40/45/40
f 40/45/40 48/54/48 41/46/41 33/37/33
f 41/55/41 49/56/49 50/57/50 42/58/42
f 42/58/42 50/57/50 51/59/51 43/60/43
f 43/60/43 51/59/51 52/61/52 44/62/44
f 44/62/44 52/61/52 53/63/53 45/64/45
f 45/65/45 53/66/53 54/67/54 46/68/46
f 46/68/46 54/67/54 55/69/55 47/70/47
f 47/70/47 55/69/55 56/71/56 48/72/48
f 48/72/48 56/71/56 49/56/49 41/55/41
f 49/56/49 57/73/57 58/74/58 50/57/50
f 50/57/50 58/74/58 59/75/59 51/59/51
f 51/59/51 59/75/59 60/76/60 52/61/52
f 52/61/52 60/76/60 61/77/61 53/63/53
f 53/66/53 61/78/61 62/79/62 54/67/54
f 54/67/54 62/79/62 63/80/63 55/69/55
f 55/69/55 63/80/63 64/81/64 56/71/56
f 56/71/56 64/81/64 57/73/57 49/56/49
f 57/73/57 65/82/65 66/83/66 58/74/58
f 58/74/58 66/83/66 67/84/67 59/75/59
f 59/75/59 67/84/67 68/85/68 60/76/60
f 60/76/60 68/85/68 69/86/69 61/77/61
f 61/78/61 69/87/69 70/88/70 62/79/62
f 62/79/62 70/88/70 71/89/71 63/80/63
f 63/80/63 71/89/71 72/90/72 64/81/64
f 64/81/64 72/90/72 65/82/65 57/73/57
f 65/82/65 73/91/73 74/92/74 66/83/66
f 66/83/66 74/92/74 75/93/75 67/84/67
f 67/84/67 75/93/75 76/94/76 68/85/68
f 68/85/68 76/94/76 77/95/77 69/86/69
f 69/87/69 77/96/77 78/97/78 70/88/70
f 70/88/70 78/97/78 79/98/79 71/89/71
f 71/89/71 79/98/79 80/99/80 72/90/72
f 72/90/72 80/99/80 73/91/73 65/82/65
f 73/91/73 81/100/10 82/101/81 74/92/74
f 74/92/74 82/101/81 83/102/82 75/93/75
f 75/93/75 83/102/82 84/103/83 76/94/76
f 76/94/76 84/103/83 85/104/1 77/95/77
f 77/96/77 85/105/1 86/106/84 78/97/78
f 78/97/78 86/106/84 87/107/85 79/98/79
f 79/98/79 87/107/85 88/108/86 80/99/80
f 80/99/80 88/108/86 81/100/10 73/91/73
f 81/100/10 89/109/9 90/110/87 82/101/81
f 82/101/81 90/110/87 91/111/88 83/102/82
f 83/102/82 91/111/88 92/112/89 84/103/83
f 84/103/83 92/112/89 93/113/2 85/104/1
f 85/105/1 93/114/2 94/115/90 86/106/84
f 86/106/84 94/115/90 95/116/91 87/107/85
f 87/107/85 95/116/91 96/117/92 88/108/86
f 88/108/86 96/117/92 89/109/9 81/100/10
f 89/109/9 97/118/21 98/119/93 90/110/87
f 90/110/87 98/119/93 99/120/94 91/111/88
f 91/111/88 99/120/94 100/121/95 92/112/89
f 92/112/89 100/121/95 101/122/17 93/113/2
f 93/114/2 101/123/17 102/124/96 94/115/90
f 94/115/90 102/124/96 103/125/97 95/116/91
f 95/116/91 103/125/97 104/126/98 96/117/92
f 96/117/92 104/126/98 97/118/21 89/109/9
f 97/118/21 105/127/29 106/128/99 98/119/93
f 98/119/93 106/128/99 107/129/100 99/120/94
f 99/120/94 107/129/100 108/130/101 100/121/95
f 100/121/95 108/130/101 109/131/25 101/122/17
f 101/123/17 109/132/25 110/133/102 102/124/96
f 102/124/96 110/133/102 111/134/103 103/125/97
f 103/125/97 111/134/103 112/135/104 104/126/98
f 104/126/98 112/135/104 105/127/29 97/118/21
f 105/127/29 113/136/37 114/137/105 106/128/99
f 106/128/99 114/137/105 115/138/106 107/129/100
f 107/129/100 115/138/106 116/139/107 108/130/101
f 108/130/101 116/139/107 117/140/33 109/131/25
f 109/132/25 117/141/33 118/142/108 110/133/102
f 110/133/102 118/142/108 119/143/109 111/134/103
f 111/134/103 119/143/109 120/144/110 112/135/104
f 112/135/104 120/144/110 113/136/37 105/127/29
f 113/136/37 121/145/45 122/146/111 114/137/105
f 114/137/105 122/146/111 123/147/112 115/138/106
f 115/138/106 123/147/112 124/148/113 116/139/107
f 116/139/107 124/148/113 125/149/41 117/140/33
f 117/141/33 125/150/41 126/151/114 118/142/108
f 118/142/108 126/151/114 127/152/115 119/143/109
f 119/143/109 127/152/115 128/153/116 120/144/110
f 120/144/110 128/153/116 121/145/45 113/136/37
f 121/145/45 129/154/53 130/155/117 122/146/111
f 122/146/111 130/155/117 131/156/118 123/147/112
f 123/147/112 131/156/118 132/157/119 124/148/113
f 124/148/113 132/157/119 133/158/49 125/149/41
f 125/150/41 133/159/49 134/160/120 126/151/114
f 126/151/114 134/160/120 135/161/121 127/152/115
f 127/152/115 135/161/121 136/162/122 128/153/116
f 128/153/116 136/162/122 129/154/53 121/145/45
f 129/154/53 137/163/61 138/164/123 130/155/117
f 130/155/117 138/164/123 139/165/124 131/156/118
f 131/156/118 139/165/124 140/166/125 132/157/119
f 132/157/119 140/166/125 141/167/57 133/158/49
f 133/159/49 141/168/57 142/169/126 134/160/120
f 134/160/120 142/169/126 143/170/127 135/161/121
f 135/161/121 143/170/127 144/171/128 136/162/122
f 136/162/122 144/171/128 137/163/61 129/154/53
f 137/163/61 145/172/69 146/173/129 138/164/123
f 138/164/123 146/173/129 147/174/130 139/165/124
f 139/165/124 147/174/130 148/175/131 140/166/125
f 140/166/125 148/175/131 149/176/65 141/167/57
f 141/168/57 149/177/65 150/178/132 142/169/126
f 142/169/126 150/178/132 151/179/133 143/170/127
f 143/170/127 151/179/133 152/180/134 144/171/128
f 144/171/128 152/180/134 145/172/69 137/163/61
f 145/172/69 153/181/77 154/182/135 146/173/129
f 146/173/129 154/182/135 155/183/136 147/174/130
f 147/174/130 155/183/136 156/184/137 148/175/131
f 148/175/131 156/184/137 157/185/73 149/176/65
f 149/177/65 157/186/73 158/187/138 150/178/132
f 150/178/132 158/187/138 159/188/139 151/179/133
f 151/179/133 159/188/139 160/189/140 152/180/134
f 152/180/134 160/189/140 153/181/77 145/172/69
f 153/181/77 1/1/1 2/4/4 154/182/135
f 154/182/135 2/4/4 3/6/6 155/183/136
f 155/183/136 3/6/6 4/8/8 156/184/137
f 156/184/137 4/8/8 5/10/10 157/185/73
f 157/186/73 5/11/10 6/14/12 158/187/138
f 158/187/138 6/14/12 7/16/14 159/188/139
f 159/188/139 7/16/14 8/18/16 160/189/140
f 160/189/140 8/18/16 1/1/1 153/181/77
f 302/190/141 311/191/142 180/192/143 193/193/144
f 303/194/145 313/195/146 264/196/147 263/197/148
f 313/195/146 310/198/149 265/199/150 264/196/147
f 298/200/151 309/201/152 177/202/153 178/203/154
f 165/204/155 166/205/156 170/206/157 169/207/158
f 166/205/156 167/208/159 171/209/160 170/206/157
f 167/208/159 168/210/161 172/211/162 171/209/160
f 168/210/161 181/212/163 185/213/164 172/211/162
f 169/207/158 170/206/157 174/214/165 173/215/166
f 170/206/157 171/209/160 175/216/167 174/214/165
f 171/209/160 172/211/162 176/217/168 175/216/167
f 172/211/162 185/213/164 189/218/169 176/217/168
f 173/219/166 174/220/165 235/221/170 234/222/171
f 174/220/165 175/223/167 236/224/172 235/221/170
f 175/223/167 176/225/168 237/226/173 236/224/172
f 176/225/168 189/227/169 238/228/174 237/226/173
f 301/229/175 312/230/176 262/231/177 261/232/178
f 312/230/176 303/194/145 263/197/148 262/231/177
f 311/191/142 304/233/179 179/234/180 180/192/143
f 299/235/181 307/236/182 260/237/183 259/238/184
f 181/212/163 182/239/185 186/240/186 185/213/164
f 182/239/185 183/241/187 187/242/188 186/240/186
f 183/241/187 184/243/189 188/244/190 187/242/188
f 184/243/189 197/245/191 201/246/192 188/244/190
f 185/213/164 186/240/186 190/247/193 189/218/169
f 186/240/186 187/242/188 191/248/194 190/247/193
f 187/242/188 188/244/190 192/249/195 191/248/194
f 188/244/190 201/246/192 205/250/196 192/249/195
f 189/227/169 190/251/193 243/252/197 238/228/174
f 190/251/193 191/253/194 248/254/198 243/252/197
f 191/253/194 192/255/195 253/256/199 248/254/198
f 192/255/195 205/257/196 258/258/200 253/256/199
f 300/259/201 308/260/202 162/261/203 163/262/204
f 310/198/149 302/190/141 193/193/144 265/199/150
f 309/201/152 306/263/205 164/264/206 177/202/153
f 308/260/202 305/265/207 161/266/208 162/261/203
f 197/245/191 198/267/209 202/268/210 201/246/192
f 198/267/209 199/269/211 203/270/212 202/268/210
f 199/271/211 200/272/213 204/273/214 203/274/212
f 200/272/213 213/275/215 217/276/216 204/273/214
f 201/246/192 202/268/210 206/277/217 205/250/196
f 202/268/210 203/270/212 207/278/218 206/277/217
f 203/274/212 204/273/214 208/279/219 207/280/218
f 204/273/214 217/276/216 221/281/220 208/279/219
f 205/257/196 206/282/217 257/283/221 258/258/200
f 206/282/217 207/284/218 256/285/222 257/283/221
f 207/284/218 208/286/219 255/287/223 256/285/222
f 208/286/219 221/288/220 254/289/224 255/287/223
f 304/233/179 298/200/151 178/203/154 179/234/180
f 305/265/207 299/235/181 259/238/184 161/266/208
f 306/290/205 300/259/201 163/262/204 164/291/206
f 307/236/182 301/229/175 261/232/178 260/237/183
f 213/275/215 214/292/225 218/293/226 217/276/216
f 214/292/225 215/294/227 219/295/228 218/293/226
f 215/294/227 216/296/229 220/297/230 219/295/228
f 216/296/229 165/204/155 169/207/158 220/297/230
f 217/276/216 218/293/226 222/298/231 221/281/220
f 218/293/226 219/295/228 223/299/232 222/298/231
f 219/295/228 220/297/230 224/300/233 223/299/232
f 220/297/230 169/207/158 173/215/166 224/300/233
f 221/288/220 222/301/231 249/302/234 254/289/224
f 222/301/231 223/303/232 244/304/235 249/302/234
f 223/303/232 224/305/233 239/306/236 244/304/235
f 224/305/233 173/219/166 234/222/171 239/306/236
f 213/275/215 200/272/213 210/307/237 209/308/238
f 184/243/189 183/241/187 227/309/239 226/310/240
f 168/210/161 167/208/159 231/311/241 230/312/242
f 167/208/159 166/205/156 232/313/243 231/311/241
f 200/272/213 199/271/211 211/314/244 210/307/237
f 165/204/155 216/296/229 194/315/245 233/316/246
f 216/296/229 215/294/227 195/317/247 194/315/245
f 182/239/185 181/212/163 229/318/248 228/319/249
f 166/205/156 165/204/155 233/316/246 232/313/243
f 198/267/209 197/245/191 225/320/250 212/321/251
f 183/241/187 182/239/185 228/319/249 227/309/239
f 214/292/225 213/275/215 209/308/238 196/322/252
f 199/269/211 198/267/209 212/321/251 211/323/244
f 215/294/227 214/292/225 196/322/252 195/317/247
f 181/212/163 168/210/161 230/312/242 229/318/248
f 197/245/191 184/243/189 226/310/240 225/320/250
f 234/222/171 235/221/170 240/324/253 239/306/236
f 235/221/170 236/224/172 241/325/254 240/324/253
f 236/224/172 237/226/173 242/326/255 241/325/254
f 237/226/173 238/228/174 243/252/197 242/326/255
f 239/306/236 240/324/253 245/327/256 244/304/235
f 240/324/253 241/325/254 246/328/41 245/327/256
f 241/325/254 242/326/255 247/329/257 246/328/41
f 242/326/255 243/252/197 248/254/198 247/329/257
f 244/304/235 245/327/256 250/330/258 249/302/234
f 245/327/256 246/328/41 251/331/259 250/330/258
f 246/328/41 247/329/257 252/332/260 251/331/259
f 247/329/257 248/254/198 253/256/199 252/332/260
f 249/302/234 250/330/258 255/287/223 254/289/224
f 250/330/258 251/331/259 256/285/222 255/287/223
f 251/331/259 252/332/260 257/283/221 256/285/222
f 252/332/260 253/256/199 258/258/200 257/283/221
f 285/333/261 295/334/262 272/335/263 273/336/264
f 284/337/265 294/338/266 270/339/267 271/340/268
f 283/341/269 293/342/270 268/343/271 269/344/272
f 282/345/273 292/346/274 266/347/275 267/348/276
f 286/349/277 283/341/269 269/344/272 274/350/278
f 287/351/279 284/352/265 271/353/268 275/354/280
f 288/355/281 296/356/282 277/357/283 276/358/284
f 294/338/266 286/349/277 274/350/278 270/339/267
f 293/342/270 285/333/261 273/336/264 268/343/271
f 289/359/285 282/345/273 267/348/276 278/360/286
f 290/361/287 297/362/288 280/363/289 279/364/290
f 295/334/262 290/361/287 279/364/290 272/335/263
f 292/346/274 287/351/279 275/354/280 266/347/275
f 291/365/291 288/355/281 276/358/284 281/366/292
f 297/362/288 291/365/291 281/366/292 280/363/289
f 296/356/282 289/359/285 278/360/286 277/357/283
f 194/315/245 195/317/247 289/359/285 296/356/282
f 231/311/241 232/313/243 291/365/291 297/362/288
f 232/313/243 233/316/246 288/355/281 291/365/291
f 209/308/238 210/307/237 287/351/279 292/346/274
f 229/318/248 230/312/242 290/361/287 295/334/262
f 230/312/242 231/311/241 297/362/288 290/361/287
f 195/317/247 196/322/252 282/345/273 289/359/285
f 227/309/239 228/319/249 285/333/261 293/342/270
f 212/321/251 225/320/250 286/349/277 294/338/266
f 233/316/246 194/315/245 296/356/282 288/355/281
f 210/307/237 211/314/244 284/352/265 287/351/279
f 225/320/250 226/310/240 283/341/269 286/349/277
f 196/322/252 209/308/238 292/346/274 282/345/273
f 226/310/240 227/309/239 293/342/270 283/341/269
f 211/323/244 212/321/251 294/338/266 284/337/265
f 228/319/249 229/318/248 295/334/262 285/333/261
f 273/336/264 272/335/263 301/229/175 307/236/182
f 271/340/268 270/339/267 300/259/201 306/290/205
f 269/344/272 268/343/271 299/235/181 305/265/207
f 267/348/276 266/347/275 298/200/151 304/233/179
f 274/350/278 269/344/272 305/265/207 308/260/202
f 275/354/280 271/353/268 306/263/205 309/201/152
f 276/358/284 277/357/283 302/190/141 310/198/149
f 270/339/267 274/350/278 308/260/202 300/259/201
f 268/343/271 273/336/264 307/236/182 299/235/181
f 278/360/286 267/348/276 304/233/179 311/191/142
f 279/364/290 280/363/289 303/194/145 312/230/176
f 272/335/263 279/364/290 312/230/176 301/229/175
f 266/347/275 275/354/280 309/201/152 298/200/151
f 281/366/292 276/358/284 310/198/149 313/195/146
f 280/363/289 281/366/292 313/195/146 303/194/145
f 277/357/283 278/360/286 311/191/142 302/190/141
f 453/367/41 454/368/41 441/369/41 408/370/41
f 359/371/41 314/372/41 315/373/41 362/374/41
f 362/374/41 315/373/41 316/375/41 364/376/41
f 364/376/41 316/375/41 317/377/41 411/378/41
f 411/378/41 317/377/41 318/379/41 422/380/41
f 422/380/41 318/379/41 319/381/41 413/382/41
f 413/382/41 319/381/41 320/383/41 371/384/41
f 371/384/41 320/383/41 321/385/41 373/386/41
f 373/386/41 321/385/41 322/387/41 375/388/41
f 375/388/41 322/387/41 323/389/41 377/390/41
f 377/390/41 323/389/41 324/391/41 379/392/41
f 379/392/41 324/391/41 325/393/41 415/394/41
f 415/394/41 325/393/41 326/395/41 421/396/41
f 451/397/41 452/398/41 406/399/41 399/400/41
f 399/400/41 406/399/41 407/401/41 400/402/41
f 387/403/41 389/404/41 328/405/41 327/406/41
f 438/407/41 443/408/41 330/409/41 329/410/41
f 440/411/41 396/412/41 332/413/41 331/414/41
f 398/415/41 400/402/41 334/416/41 333/417/41
f 449/418/41 450/419/41 397/420/41 395/421/41
f 444/422/41 445/423/41 388/424/41 386/425/41
f 386/425/41 388/424/41 389/404/41 387/403/41
f 439/426/41 395/421/41 396/412/41 440/411/41
f 409/427/41 442/428/41 350/429/41 336/430/41
f 442/428/41 421/396/41 326/395/41 350/429/41
f 383/431/41 384/432/41 453/367/41 452/398/41
f 400/402/41 407/401/41 335/433/41 334/416/41
f 436/434/41 404/435/41 435/436/41 454/368/41
f 407/401/41 409/427/41 336/430/41 335/433/41
f 357/437/41 358/438/41 451/397/41 450/419/41
f 395/421/41 397/420/41 398/415/41 396/412/41
f 338/439/41 351/440/41 444/422/41 424/441/41
f 450/419/41 451/397/41 399/400/41 397/420/41
f 417/442/41 382/443/41 421/396/41 442/428/41
f 396/412/41 398/415/41 333/417/41 332/413/41
f 385/444/41 416/445/41 441/369/41 454/368/41
f 443/408/41 440/411/41 331/414/41 330/409/41
f 393/446/41 355/447/41 448/448/41 439/426/41
f 389/404/41 438/407/41 329/410/41 328/405/41
f 353/449/41 390/450/41 437/451/41 446/452/41
f 359/371/41 387/403/41 327/406/41 314/372/41
f 355/447/41 354/453/41 447/454/41 448/448/41
f 452/398/41 453/367/41 408/370/41 406/399/41
f 433/455/41 378/456/41 414/457/41 434/458/41
f 378/456/41 379/392/41 415/394/41 414/457/41
f 432/459/41 376/460/41 378/456/41 433/455/41
f 376/460/41 377/390/41 379/392/41 378/456/41
f 431/461/41 374/462/41 376/460/41 432/459/41
f 374/462/41 375/388/41 377/390/41 376/460/41
f 430/463/41 372/464/41 374/462/41 431/461/41
f 372/464/41 373/386/41 375/388/41 374/462/41
f 429/465/41 370/466/41 372/464/41 430/463/41
f 370/466/41 371/384/41 373/386/41 372/464/41
f 428/467/41 412/468/41 370/466/41 429/465/41
f 412/468/41 413/382/41 371/384/41 370/466/41
f 425/469/41 363/470/41 410/471/41 426/472/41
f 363/470/41 364/376/41 411/378/41 410/471/41
f 423/473/41 361/474/41 363/470/41 425/469/41
f 361/474/41 362/374/41 364/376/41 363/470/41
f 424/441/41 360/475/41 361/474/41 423/473/41
f 360/475/41 359/371/41 362/374/41 361/474/41
f 341/476/41 427/477/41 426/472/41 340/478/41
f 342/479/41 428/467/41 427/477/41 341/476/41
f 349/480/41 435/436/41 434/458/41 348/481/41
f 360/475/41 386/425/41 387/403/41 359/371/41
f 352/482/41 419/483/41 446/452/41 445/423/41
f 420/484/41 356/485/41 449/418/41 448/448/41
f 340/478/41 426/472/41 410/471/41 365/486/41
f 365/486/41 410/471/41 411/378/41 366/487/41
f 368/488/41 412/468/41 428/467/41 342/479/41
f 369/489/41 413/382/41 412/468/41 368/488/41
f 348/481/41 434/458/41 414/457/41 380/490/41
f 380/490/41 414/457/41 415/394/41 381/491/41
f 424/441/41 444/422/41 386/425/41 360/475/41
f 406/399/41 408/370/41 409/427/41 407/401/41
f 391/492/41 392/493/41 443/408/41 438/407/41
f 397/420/41 399/400/41 400/402/41 398/415/41
f 418/494/41 420/484/41 448/448/41 447/454/41
f 448/448/41 449/418/41 395/421/41 439/426/41
f 388/424/41 437/451/41 438/407/41 389/404/41
f 445/423/41 446/452/41 437/451/41 388/424/41
f 408/370/41 441/369/41 442/428/41 409/427/41
f 381/491/41 415/394/41 421/396/41 382/443/41
f 367/495/41 422/380/41 413/382/41 369/489/41
f 366/487/41 411/378/41 422/380/41 367/495/41
f 338/439/41 424/441/41 423/473/41 337/496/41
f 337/496/41 423/473/41 425/469/41 339/497/41
f 339/497/41 425/469/41 426/472/41 402/498/41
f 402/498/41 426/472/41 427/477/41 401/499/41
f 401/499/41 427/477/41 428/467/41 403/500/41
f 403/500/41 428/467/41 429/465/41 343/501/41
f 343/501/41 429/465/41 430/463/41 344/502/41
f 344/502/41 430/463/41 431/461/41 345/503/41
f 345/503/41 431/461/41 432/459/41 346/504/41
f 346/504/41 432/459/41 433/455/41 347/505/41
f 347/505/41 433/455/41 434/458/41 405/506/41
f 405/506/41 434/458/41 435/436/41 404/435/41
f 354/453/41 353/449/41 446/452/41 447/454/41
f 349/480/41 385/444/41 454/368/41 435/436/41
f 390/450/41 391/492/41 438/407/41 437/451/41
f 394/507/41 393/446/41 439/426/41 440/411/41
f 416/445/41 417/442/41 442/428/41 441/369/41
f 392/493/41 394/507/41 440/411/41 443/408/41
f 351/440/41 352/482/41 445/423/41 444/422/41
f 419/483/41 418/494/41 447/454/41 446/452/41
f 356/485/41 357/437/41 450/419/41 449/418/41
f 358/438/41 383/431/41 452/398/41 451/397/41
f 384/432/41 436/434/41 454/368/41 453/367/41
f 570/508/45 529/509/45 558/510/45 571/511/45
f 487/512/45 490/513/45 456/514/45 455/515/45
f 490/513/45 492/516/45 457/517/45 456/514/45
f 492/516/45 532/518/45 458/519/45 457/517/45
f 532/518/45 540/520/45 459/521/45 458/519/45
f 540/520/45 534/522/45 460/523/45 459/521/45
f 534/522/45 499/524/45 461/525/45 460/523/45
f 499/524/45 501/526/45 462/527/45 461/525/45
f 501/526/45 503/528/45 463/529/45 462/527/45
f 503/528/45 505/530/45 464/531/45 463/529/45
f 505/530/45 507/532/45 465/533/45 464/531/45
f 507/532/45 536/534/45 466/535/45 465/533/45
f 536/534/45 539/536/45 467/537/45 466/535/45
f 568/538/45 525/539/45 527/540/45 569/541/45
f 525/539/45 526/542/45 528/543/45 527/540/45
f 513/544/45 468/545/45 469/546/45 515/547/45
f 555/548/45 470/549/45 471/550/45 560/551/45
f 557/552/45 472/553/45 473/554/45 522/555/45
f 524/556/45 474/557/45 475/558/45 526/542/45
f 566/559/45 521/560/45 523/561/45 567/562/45
f 561/563/45 512/564/45 514/565/45 562/566/45
f 512/564/45 513/544/45 515/547/45 514/565/45
f 556/567/45 557/552/45 522/555/45 521/560/45
f 530/568/45 477/569/45 483/570/45 559/571/45
f 559/571/45 483/570/45 467/537/45 539/536/45
f 566/572/293 567/573/294 711/574/294 710/575/293
f 526/542/45 475/558/45 476/576/45 528/543/45
f 528/543/45 476/576/45 477/569/45 530/568/45
f 521/560/45 522/555/45 524/556/45 523/561/45
f 565/577/295 566/572/293 710/575/293 709/578/295
f 567/562/45 523/561/45 525/539/45 568/538/45
f 538/579/45 559/571/45 539/536/45 510/580/45
f 522/555/45 473/554/45 474/557/45 524/556/45
f 511/581/45 571/511/45 558/510/45 537/582/45
f 560/551/45 471/550/45 472/553/45 557/552/45
f 519/583/45 556/567/45 565/584/45 486/585/45
f 515/547/45 469/546/45 470/549/45 555/548/45
f 484/586/45 563/587/45 554/588/45 516/589/45
f 487/512/45 455/515/45 468/545/45 513/544/45
f 486/585/45 565/584/45 564/590/45 485/591/45
f 569/541/45 527/540/45 529/509/45 570/508/45
f 551/592/45 552/593/45 535/594/45 506/595/45
f 506/595/45 535/594/45 536/534/45 507/532/45
f 550/596/45 551/592/45 506/595/45 504/597/45
f 504/597/45 506/595/45 507/532/45 505/530/45
f 549/598/45 550/596/45 504/597/45 502/599/45
f 502/599/45 504/597/45 505/530/45 503/528/45
f 548/600/45 549/598/45 502/599/45 500/601/45
f 500/601/45 502/599/45 503/528/45 501/526/45
f 547/602/45 548/600/45 500/601/45 498/603/45
f 498/603/45 500/601/45 501/526/45 499/524/45
f 546/604/45 547/602/45 498/603/45 533/605/45
f 533/605/45 498/603/45 499/524/45 534/522/45
f 543/606/45 544/607/45 531/608/45 491/609/45
f 491/609/45 531/608/45 532/518/45 492/516/45
f 541/610/45 543/606/45 491/609/45 489/611/45
f 489/611/45 491/609/45 492/516/45 490/513/45
f 542/612/45 541/610/45 489/611/45 488/613/45
f 488/613/45 489/611/45 490/513/45 487/512/45
f 479/614/45 478/615/45 544/607/45 545/616/45
f 480/617/45 479/614/45 545/616/45 546/604/45
f 482/618/45 481/619/45 552/593/45 553/620/45
f 488/613/45 487/512/45 513/544/45 512/564/45
f 553/621/296 552/622/297 703/623/297 704/624/296
f 478/615/45 493/625/45 531/608/45 544/607/45
f 493/625/45 494/626/45 532/518/45 531/608/45
f 496/627/45 480/617/45 546/604/45 533/605/45
f 497/628/45 496/627/45 533/605/45 534/522/45
f 481/619/45 508/629/45 535/594/45 552/593/45
f 508/629/45 509/630/45 536/534/45 535/594/45
f 542/612/45 488/613/45 512/564/45 561/563/45
f 527/540/45 528/543/45 530/568/45 529/509/45
f 517/631/45 555/548/45 560/551/45 518/632/45
f 523/561/45 524/556/45 526/542/45 525/539/45
f 565/584/45 556/567/45 521/560/45 566/559/45
f 514/565/45 515/547/45 555/548/45 554/588/45
f 562/566/45 514/565/45 554/588/45 563/587/45
f 529/509/45 530/568/45 559/571/45 558/510/45
f 509/630/45 510/580/45 539/536/45 536/534/45
f 495/633/45 497/628/45 534/522/45 540/520/45
f 494/626/45 495/633/45 540/520/45 532/518/45
f 564/634/298 565/577/295 709/578/295 705/635/298
f 552/622/297 551/636/299 702/637/299 703/623/297
f 563/638/300 564/634/298 705/635/298 706/639/300
f 551/636/299 550/640/301 701/641/301 702/637/299
f 562/642/302 563/638/300 706/639/300 707/643/302
f 550/640/301 549/644/303 700/645/303 701/641/301
f 561/646/304 562/642/302 707/643/302 708/647/304
f 485/591/45 564/590/45 563/587/45 484/586/45
f 482/618/45 553/620/45 571/511/45 511/581/45
f 516/589/45 554/588/45 555/548/45 517/631/45
f 520/648/45 557/552/45 556/567/45 519/583/45
f 537/582/45 558/510/45 559/571/45 538/579/45
f 518/632/45 560/551/45 557/552/45 520/648/45
f 549/644/303 548/649/305 699/650/305 700/645/303
f 548/649/305 547/651/306 698/652/306 699/650/305
f 417/653/307 416/654/10 537/655/10 538/656/307
f 392/657/308 391/658/309 517/659/309 518/660/308
f 635/661/310 621/662/311 573/663/222 572/664/312
f 656/665/313 658/666/314 599/667/315 598/668/316
f 634/669/317 633/670/318 588/671/319 589/672/320
f 644/673/321 657/674/322 611/675/323 619/676/324
f 645/677/325 656/665/313 598/668/316 596/678/326
f 632/679/327 620/680/328 584/681/172 590/682/329
f 647/683/330 644/673/321 619/676/324 613/684/331
f 620/685/328 622/686/332 583/687/333 584/688/172
f 651/689/334 645/677/325 596/678/326 597/690/335
f 621/691/311 630/692/336 592/693/337 573/694/222
f 622/686/332 624/695/338 582/696/339 583/687/333
f 625/697/340 623/698/341 586/699/342 594/700/343
f 391/658/309 390/701/344 516/702/344 517/659/309
f 353/703/345 354/704/346 485/705/346 484/706/345
f 416/654/10 385/707/347 511/708/347 537/655/10
f 394/709/348 392/657/308 518/660/308 520/710/348
f 390/701/344 353/703/345 484/706/345 516/702/344
f 341/711/349 340/712/350 478/713/350 479/714/349
f 342/715/351 341/716/349 479/717/349 480/718/351
f 349/719/352 348/720/353 481/721/353 482/722/352
f 646/723/354 647/683/330 613/684/331 612/724/355
f 624/695/338 626/725/356 581/726/357 582/696/339
f 340/712/350 365/727/358 493/728/358 478/713/350
f 365/727/358 366/729/359 494/730/359 493/728/358
f 368/731/360 342/715/351 480/718/351 496/732/360
f 369/733/361 368/731/360 496/732/360 497/734/361
f 348/720/353 380/735/1 508/736/1 481/721/353
f 380/735/1 381/737/362 509/738/362 508/736/1
f 649/739/363 648/740/364 614/741/365 608/742/366
f 627/743/367 625/697/340 594/700/343 593/744/368
f 381/737/362 382/745/369 510/746/369 509/738/362
f 367/747/370 369/733/361 497/734/361 495/748/370
f 366/729/359 367/747/370 495/748/370 494/730/359
f 393/749/371 394/709/348 520/710/348 519/750/371
f 354/751/346 355/752/372 486/753/372 485/754/346
f 653/755/373 649/756/363 608/757/366 607/758/374
f 626/725/356 628/759/375 580/760/376 581/726/357
f 650/761/377 651/762/334 597/763/335 616/764/378
f 631/765/379 627/743/367 593/744/368 591/766/380
f 652/767/381 653/755/373 607/758/374 606/768/382
f 654/769/383 655/770/384 618/771/385 610/772/386
f 355/752/372 393/749/371 519/750/371 486/753/372
f 385/707/347 349/773/352 482/774/352 511/708/347
f 628/759/375 629/775/387 579/776/388 580/760/376
f 630/692/336 631/765/379 591/766/380 592/693/337
f 382/745/369 417/653/307 538/656/307 510/746/369
f 669/777/389 668/778/369 597/690/335 596/678/326
f 670/779/371 669/777/389 596/678/326 598/668/316
f 671/780/390 670/779/371 598/668/316 599/667/315
f 672/781/349 671/780/390 599/667/315 600/782/391
f 673/783/392 672/781/349 600/782/391 601/784/393
f 674/785/10 673/783/392 601/784/393 602/786/394
f 675/787/395 674/785/10 602/786/394 603/788/396
f 676/789/308 675/787/395 603/788/396 604/790/397
f 677/791/398 676/789/308 604/790/397 605/792/399
f 678/793/358 677/791/398 605/792/399 606/768/382
f 679/794/400 678/793/358 606/768/382 607/758/374
f 680/795/352 679/794/400 607/758/374 608/757/366
f 685/796/401 686/797/1 609/798/402 610/772/386
f 686/797/1 687/799/403 611/675/323 609/798/402
f 689/800/404 690/801/344 612/724/355 613/684/331
f 690/801/344 691/802/405 614/741/365 612/724/355
f 681/803/406 682/804/360 615/805/407 616/764/378
f 682/804/360 683/806/408 617/807/409 615/805/407
f 683/806/408 684/808/346 618/771/385 617/807/409
f 684/808/346 685/796/401 610/772/386 618/771/385
f 688/809/370 689/800/404 613/684/331 619/676/324
f 687/799/403 688/809/370 619/676/324 611/675/323
f 668/810/369 681/803/406 616/764/378 597/763/335
f 691/802/405 680/811/352 608/742/366 614/741/365
f 658/666/314 659/812/410 600/782/391 599/667/315
f 636/813/411 634/669/317 589/672/320 595/814/412
f 637/815/413 635/661/310 572/664/312 574/816/414
f 659/812/410 660/817/415 601/784/393 600/782/391
f 638/818/416 636/813/411 595/814/412 587/819/417
f 661/820/418 654/769/383 610/772/386 609/798/402
f 639/821/419 637/815/413 574/816/414 575/822/420
f 660/817/415 662/823/421 602/786/394 601/784/393
f 657/674/322 661/820/418 609/798/402 611/675/323
f 640/824/422 639/821/419 575/822/420 576/825/423
f 648/740/364 646/723/354 612/724/355 614/741/365
f 662/823/421 663/826/424 603/788/396 602/786/394
f 641/827/425 640/824/422 576/825/423 577/828/426
f 664/829/427 650/761/377 616/764/378 615/805/407
f 663/826/424 665/830/428 604/790/397 603/788/396
f 623/698/341 642/831/429 585/832/198 586/699/342
f 643/833/430 641/827/425 577/828/426 578/834/235
f 666/835/431 664/829/427 615/805/407 617/807/409
f 665/830/428 667/836/432 605/792/399 604/790/397
f 642/831/429 638/818/416 587/819/417 585/832/198
f 633/670/318 632/679/327 590/682/329 588/671/319
f 629/775/387 643/833/430 578/834/235 579/776/388
f 655/770/384 666/835/431 617/807/409 618/771/385
f 667/836/432 652/767/381 606/768/382 605/792/399
f 321/837/433 320/838/434 643/833/430 629/775/387
f 336/839/435 350/840/436 632/679/327 633/670/318
f 332/841/437 333/842/438 638/818/416 642/831/429
f 320/838/434 319/843/439 641/827/425 643/833/430
f 331/844/440 332/841/437 642/831/429 623/698/341
f 319/843/439 318/845/441 640/824/422 641/827/425
f 318/845/441 317/846/442 639/821/419 640/824/422
f 317/846/442 316/847/443 637/815/413 639/821/419
f 333/842/438 334/848/444 636/813/411 638/818/416
f 316/847/443 315/849/445 635/661/310 637/815/413
f 334/848/444 335/850/446 634/669/317 636/813/411
f 327/851/447 328/852/448 631/765/379 630/692/336
f 322/853/449 321/837/433 629/775/387 628/759/375
f 328/852/448 329/854/450 627/743/367 631/765/379
f 323/855/451 322/853/449 628/759/375 626/725/356
f 329/854/450 330/856/452 625/697/340 627/743/367
f 324/857/453 323/855/451 626/725/356 624/695/338
f 330/856/452 331/844/440 623/698/341 625/697/340
f 325/858/454 324/857/453 624/695/338 622/686/332
f 314/859/455 327/851/447 630/692/336 621/691/311
f 326/860/456 325/858/454 622/686/332 620/685/328
f 350/840/436 326/861/456 620/680/328 632/679/327
f 335/850/446 336/839/435 633/670/318 634/669/317
f 315/849/445 314/862/455 621/662/311 635/661/310
f 464/863/457 465/864/458 652/767/381 667/836/432
f 471/865/459 470/866/460 666/835/431 655/770/384
f 463/867/461 464/863/457 667/836/432 665/830/428
f 470/866/460 469/868/462 664/829/427 666/835/431
f 462/869/463 463/867/461 665/830/428 663/826/424
f 469/868/462 468/870/464 650/761/377 664/829/427
f 461/871/465 462/869/463 663/826/424 662/823/421
f 483/872/466 477/873/467 646/723/354 648/740/364
f 474/874/468 473/875/469 661/820/418 657/674/322
f 460/876/470 461/871/465 662/823/421 660/817/415
f 473/875/469 472/877/471 654/769/383 661/820/418
f 459/878/472 460/876/470 660/817/415 659/812/410
f 458/879/473 459/878/472 659/812/410 658/666/314
f 472/877/471 471/865/459 655/770/384 654/769/383
f 465/864/458 466/880/474 653/755/373 652/767/381
f 468/870/464 455/881/475 651/762/334 650/761/377
f 466/880/474 467/882/476 649/756/363 653/755/373
f 467/883/476 483/872/466 648/740/364 649/739/363
f 477/873/467 476/884/477 647/683/330 646/723/354
f 455/885/475 456/886/478 645/677/325 651/689/334
f 476/884/477 475/887/479 644/673/321 647/683/330
f 456/886/478 457/888/480 656/665/313 645/677/325
f 475/887/479 474/874/468 657/674/322 644/673/321
f 457/888/480 458/879/473 658/666/314 656/665/313
f 590/682/329 584/681/172 680/811/352 691/802/405
f 573/694/222 592/693/337 681/803/406 668/810/369
f 587/819/417 595/814/412 688/809/370 687/799/403
f 595/814/412 589/672/320 689/800/404 688/809/370
f 594/700/343 586/699/342 685/796/401 684/808/346
f 593/744/368 594/700/343 684/808/346 683/806/408
f 591/766/380 593/744/368 683/806/408 682/804/360
f 592/693/337 591/766/380 682/804/360 681/803/406
f 588/671/319 590/682/329 691/802/405 690/801/344
f 589/672/320 588/671/319 690/801/344 689/800/404
f 585/832/198 587/819/417 687/799/403 686/797/1
f 586/699/342 585/832/198 686/797/1 685/796/401
f 584/688/172 583/687/333 679/794/400 680/795/352
f 583/687/333 582/696/339 678/793/358 679/794/400
f 582/696/339 581/726/357 677/791/398 678/793/358
f 581/726/357 580/760/376 676/789/308 677/791/398
f 580/760/376 579/776/388 675/787/395 676/789/308
f 579/776/388 578/834/235 674/785/10 675/787/395
f 578/834/235 577/828/426 673/783/392 674/785/10
f 577/828/426 576/825/423 672/781/349 673/783/392
f 576/825/423 575/822/420 671/780/390 672/781/349
f 575/822/420 574/816/414 670/779/371 671/780/390
f 574/816/414 572/664/312 669/777/389 670/779/371
f 572/664/312 573/663/222 668/778/369 669/777/389
f 716/889/45 693/890/45 708/891/45 707/892/45
f 705/893/45 716/889/45 707/892/45 706/894/45
f 716/889/45 710/895/45 711/896/45 712/897/45
f 704/898/45 716/889/45 714/899/45 715/900/45
f 716/889/45 712/897/45 713/901/45 714/899/45
f 716/889/45 694/902/45 692/903/45 693/890/45
f 716/889/45 696/904/45 695/905/45 694/902/45
f 716/889/45 698/906/45 697/907/45 696/904/45
f 716/889/45 700/908/45 699/909/45 698/906/45
f 716/889/45 702/910/45 701/911/45 700/908/45
f 716/889/45 704/898/45 703/912/45 702/910/45
f 542/913/481 561/646/304 708/647/304 693/914/481
f 567/573/294 568/915/482 712/916/482 711/574/294
f 541/917/483 542/913/481 693/914/481 692/918/483
f 571/919/484 553/920/296 704/921/296 715/922/484
f 568/915/482 569/923/485 713/924/485 712/916/482
f 543/925/486 541/917/483 692/918/483 694/926/486
f 569/923/485 570/927/487 714/928/487 713/924/485
f 544/929/488 543/925/486 694/926/486 695/930/488
f 570/927/487 571/919/484 715/922/484 714/928/487
f 545/931/489 544/929/488 695/930/488 696/932/489
f 546/933/490 545/931/489 696/932/489 697/934/490
f 547/651/306 546/933/490 697/934/490 698/652/306
f 716/889/45 705/893/45 709/935/45 710/895/45
