# Blender 4.1.1
# www.blender.org
o gear_02
v 0.110895 0.009440 -0.026751
v 0.104997 0.009440 -0.044903
v 0.090733 0.009440 -0.069608
v 0.077962 0.009440 -0.083792
v 0.054883 0.009440 -0.100560
v 0.037447 0.009440 -0.108323
v 0.009543 0.009440 -0.114254
v -0.009543 0.009440 -0.114254
v -0.037447 0.009440 -0.108323
v -0.054883 0.009440 -0.100560
v -0.077962 0.009440 -0.083792
v -0.090733 0.009440 -0.069608
v -0.104996 0.009440 -0.044903
v -0.110894 0.009440 -0.026751
v -0.113876 0.009440 0.001620
v -0.111881 0.009440 0.020602
v -0.103066 0.009440 0.047732
v -0.093523 0.009440 0.064262
v -0.074435 0.009440 0.085461
v -0.058993 0.009440 0.096680
v -0.032933 0.009440 0.108283
v -0.014263 0.009440 0.112251
v 0.014263 0.009440 0.112251
v 0.032933 0.009440 0.108283
v 0.058993 0.009440 0.096680
v 0.074435 0.009440 0.085461
v 0.093523 0.009440 0.064262
v 0.103066 0.009440 0.047732
v 0.111881 0.009440 0.020602
v 0.113876 0.009440 0.001620
v 0.105889 0.007148 -0.068777
v 0.097742 0.008267 -0.070960
v 0.111854 0.007148 -0.058444
v 0.109671 0.008267 -0.050297
v 0.069067 0.007148 -0.105965
v 0.060736 0.008267 -0.104645
v 0.078719 0.007148 -0.098952
v 0.080038 0.008267 -0.090621
v 0.020303 0.007148 -0.124961
v 0.013229 0.008267 -0.120367
v 0.031972 0.007148 -0.122480
v 0.036566 0.008267 -0.115406
v -0.031972 0.007148 -0.122480
v -0.036566 0.008267 -0.115406
v -0.020302 0.007148 -0.124961
v -0.013229 0.008267 -0.120367
v -0.078719 0.007148 -0.098952
v -0.080038 0.008267 -0.090621
v -0.069067 0.007148 -0.105965
v -0.060736 0.008267 -0.104645
v -0.111854 0.007148 -0.058444
v -0.109671 0.008267 -0.050297
v -0.105889 0.007148 -0.068777
v -0.097742 0.008267 -0.070960
v -0.125649 0.007148 -0.007962
v -0.120341 0.008267 -0.001407
v -0.124402 0.007148 -0.019827
v -0.117847 0.008267 -0.025135
v -0.117718 0.007148 0.043768
v -0.110203 0.008267 0.047597
v -0.121405 0.007148 0.032421
v -0.117575 0.008267 0.024906
v -0.089432 0.007148 0.087799
v -0.081009 0.008267 0.088240
v -0.097415 0.007148 0.078933
v -0.096974 0.008267 0.070510
v -0.045683 0.007148 0.116518
v -0.037809 0.008267 0.113496
v -0.056582 0.007148 0.111666
v -0.059605 0.008267 0.103792
v 0.005965 0.007148 0.124961
v 0.011929 0.008267 0.118997
v -0.005965 0.007148 0.124961
v -0.011929 0.008267 0.118997
v 0.056582 0.007148 0.111666
v 0.059605 0.008267 0.103792
v 0.045683 0.007148 0.116518
v 0.037809 0.008267 0.113496
v 0.097415 0.007148 0.078933
v 0.096974 0.008267 0.070510
v 0.089432 0.007148 0.087799
v 0.081009 0.008267 0.088240
v 0.121405 0.007148 0.032421
v 0.117575 0.008267 0.024906
v 0.117718 0.007148 0.043768
v 0.110203 0.008267 0.047597
v 0.124402 0.007148 -0.019827
v 0.117847 0.008267 -0.025135
v 0.125649 0.007148 -0.007961
v 0.120341 0.008267 -0.001407
v -0.040636 0.009440 -0.000126
v -0.039879 0.009440 -0.008588
v -0.037378 0.009440 -0.016708
v -0.033244 0.009440 -0.024131
v -0.027657 0.009440 -0.030532
v -0.020862 0.009440 -0.035631
v -0.013154 0.009440 -0.039207
v -0.004872 0.009440 -0.041101
v 0.003623 0.009440 -0.041232
v 0.011960 0.009440 -0.039595
v 0.019774 0.009440 -0.036259
v 0.026724 0.009440 -0.031372
v 0.032506 0.009440 -0.025147
v 0.036867 0.009440 -0.017855
v 0.039617 0.009440 -0.009816
v 0.040636 0.009440 -0.001381
v 0.039879 0.009440 0.007081
v 0.037378 0.009440 0.015201
v 0.033244 0.009440 0.022624
v 0.027657 0.009440 0.029025
v 0.020862 0.009440 0.034124
v 0.013154 0.009440 0.037700
v 0.004872 0.009440 0.039594
v -0.003623 0.009440 0.039726
v -0.011960 0.009440 0.038088
v -0.019774 0.009440 0.034752
v -0.026724 0.009440 0.029865
v -0.032506 0.009440 0.023640
v -0.036867 0.009440 0.016348
v -0.039617 0.009440 0.008309
v -0.024218 0.009440 -0.000379
v -0.023766 0.009440 -0.005423
v -0.022276 0.009440 -0.010262
v -0.019812 0.009440 -0.014685
v -0.016483 0.009440 -0.018500
v -0.012433 0.009440 -0.021539
v -0.007839 0.009440 -0.023670
v -0.002904 0.009440 -0.024799
v 0.002159 0.009440 -0.024877
v 0.007128 0.009440 -0.023901
v 0.011785 0.009440 -0.021914
v 0.015927 0.009440 -0.019001
v 0.019373 0.009440 -0.015291
v 0.021972 0.009440 -0.010945
v 0.023611 0.009440 -0.006155
v 0.024218 0.009440 -0.001128
v 0.023766 0.009440 0.003916
v 0.022276 0.009440 0.008755
v 0.019812 0.009440 0.013179
v 0.016483 0.009440 0.016993
v 0.012433 0.009440 0.020033
v 0.007839 0.009440 0.022163
v 0.002904 0.009440 0.023292
v -0.002159 0.009440 0.023371
v -0.007128 0.009440 0.022394
v -0.011785 0.009440 0.020407
v -0.015927 0.009440 0.017494
v -0.019373 0.009440 0.013784
v -0.021972 0.009440 0.009439
v -0.023611 0.009440 0.004648
v 0.037202 0.014360 -0.009264
v 0.038159 0.014360 -0.001343
v 0.037447 0.014360 0.006604
v 0.035100 0.014360 0.014229
v 0.031218 0.014360 0.021199
v 0.025971 0.014360 0.027210
v 0.019590 0.014360 0.031998
v 0.012352 0.014360 0.035356
v 0.004575 0.014360 0.037135
v -0.003402 0.014360 0.037258
v -0.011231 0.014360 0.035720
v -0.018569 0.014360 0.032588
v -0.025095 0.014360 0.027999
v -0.030525 0.014360 0.022153
v -0.034620 0.014360 0.015306
v -0.037202 0.014360 0.007757
v -0.038159 0.014360 -0.000164
v -0.037447 0.014360 -0.008110
v -0.035100 0.014360 -0.015735
v -0.031218 0.014360 -0.022706
v -0.025971 0.014360 -0.028716
v -0.019590 0.014360 -0.033505
v -0.012352 0.014360 -0.036862
v -0.004575 0.014360 -0.038642
v 0.003402 0.014360 -0.038765
v 0.011231 0.014360 -0.037227
v 0.018569 0.014360 -0.034095
v 0.025095 0.014360 -0.029505
v 0.030525 0.014360 -0.023660
v 0.034620 0.014360 -0.016813
v 0.026618 0.014360 -0.006842
v 0.027302 0.014360 -0.001175
v 0.026793 0.014360 0.004510
v 0.025113 0.014360 0.009966
v 0.022336 0.014360 0.014953
v 0.018582 0.014360 0.019254
v 0.014016 0.014360 0.022680
v 0.008838 0.014360 0.025082
v 0.003273 0.014360 0.026355
v -0.002434 0.014360 0.026443
v -0.008036 0.014360 0.025343
v -0.013286 0.014360 0.023102
v -0.017955 0.014360 0.019818
v -0.021840 0.014360 0.015635
v -0.024770 0.014360 0.010737
v -0.026618 0.014360 0.005336
v -0.027302 0.014360 -0.000332
v -0.026793 0.014360 -0.006017
v -0.025113 0.014360 -0.011473
v -0.022336 0.014360 -0.016460
v -0.018582 0.014360 -0.020760
v -0.014016 0.014360 -0.024187
v -0.008838 0.014360 -0.026589
v -0.003273 0.014360 -0.027862
v 0.002434 0.014360 -0.027950
v 0.008036 0.014360 -0.026849
v 0.013286 0.014360 -0.024608
v 0.017955 0.014360 -0.021325
v 0.021840 0.014360 -0.017142
v 0.024770 0.014360 -0.012243
v 0.110895 -0.009440 -0.026751
v 0.104997 -0.009440 -0.044903
v 0.090733 -0.009440 -0.069608
v 0.077962 -0.009440 -0.083792
v 0.054883 -0.009440 -0.100560
v 0.037447 -0.009440 -0.108323
v 0.009543 -0.009440 -0.114254
v -0.009543 -0.009440 -0.114254
v -0.037447 -0.009440 -0.108323
v -0.054883 -0.009440 -0.100560
v -0.077962 -0.009440 -0.083792
v -0.090733 -0.009440 -0.069608
v -0.104996 -0.009440 -0.044903
v -0.110894 -0.009440 -0.026751
v -0.113876 -0.009440 0.001620
v -0.111881 -0.009440 0.020602
v -0.103066 -0.009440 0.047732
v -0.093523 -0.009440 0.064262
v -0.074435 -0.009440 0.085461
v -0.058993 -0.009440 0.096680
v -0.032933 -0.009440 0.108283
v -0.014263 -0.009440 0.112251
v 0.014263 -0.009440 0.112251
v 0.032933 -0.009440 0.108283
v 0.058993 -0.009440 0.096680
v 0.074435 -0.009440 0.085461
v 0.093523 -0.009440 0.064262
v 0.103066 -0.009440 0.047732
v 0.111881 -0.009440 0.020602
v 0.113876 -0.009440 0.001620
v 0.105889 -0.007148 -0.068777
v 0.097742 -0.008267 -0.070960
v 0.111854 -0.007148 -0.058444
v 0.109671 -0.008267 -0.050297
v 0.069067 -0.007148 -0.105965
v 0.060736 -0.008267 -0.104645
v 0.078719 -0.007148 -0.098952
v 0.080038 -0.008267 -0.090621
v 0.020303 -0.007148 -0.124961
v 0.013229 -0.008267 -0.120367
v 0.031972 -0.007148 -0.122480
v 0.036566 -0.008267 -0.115406
v -0.031972 -0.007148 -0.122480
v -0.036566 -0.008267 -0.115406
v -0.020302 -0.007148 -0.124961
v -0.013229 -0.008267 -0.120367
v -0.078719 -0.007148 -0.098952
v -0.080038 -0.008267 -0.090621
v -0.069067 -0.007148 -0.105965
v -0.060736 -0.008267 -0.104645
v -0.111854 -0.007148 -0.058444
v -0.109671 -0.008267 -0.050297
v -0.105889 -0.007148 -0.068777
v -0.097742 -0.008267 -0.070960
v -0.125649 -0.007148 -0.007962
v -0.120341 -0.008267 -0.001407
v -0.124402 -0.007148 -0.019827
v -0.117847 -0.008267 -0.025135
v -0.117718 -0.007148 0.043768
v -0.110203 -0.008267 0.047597
v -0.121405 -0.007148 0.032421
v -0.117575 -0.008267 0.024906
v -0.089432 -0.007148 0.087799
v -0.081009 -0.008267 0.088240
v -0.097415 -0.007148 0.078933
v -0.096974 -0.008267 0.070510
v -0.045683 -0.007148 0.116518
v -0.037809 -0.008267 0.113496
v -0.056582 -0.007148 0.111666
v -0.059605 -0.008267 0.103792
v 0.005965 -0.007148 0.124961
v 0.011929 -0.008267 0.118997
v -0.005965 -0.007148 0.124961
v -0.011929 -0.008267 0.118997
v 0.056582 -0.007148 0.111666
v 0.059605 -0.008267 0.103792
v 0.045683 -0.007148 0.116518
v 0.037809 -0.008267 0.113496
v 0.097415 -0.007148 0.078933
v 0.096974 -0.008267 0.070510
v 0.089432 -0.007148 0.087799
v 0.081009 -0.008267 0.088240
v 0.121405 -0.007148 0.032421
v 0.117575 -0.008267 0.024906
v 0.117718 -0.007148 0.043768
v 0.110203 -0.008267 0.047597
v 0.124402 -0.007148 -0.019827
v 0.117847 -0.008267 -0.025135
v 0.125649 -0.007148 -0.007961
v 0.120341 -0.008267 -0.001407
v -0.040636 -0.009440 -0.000126
v -0.039879 -0.009440 -0.008588
v -0.037378 -0.009440 -0.016708
v -0.033244 -0.009440 -0.024131
v -0.027657 -0.009440 -0.030532
v -0.020862 -0.009440 -0.035631
v -0.013154 -0.009440 -0.039207
v -0.004872 -0.009440 -0.041101
v 0.003623 -0.009440 -0.041232
v 0.011960 -0.009440 -0.039595
v 0.019774 -0.009440 -0.036259
v 0.026724 -0.009440 -0.031372
v 0.032506 -0.009440 -0.025147
v 0.036867 -0.009440 -0.017855
v 0.039617 -0.009440 -0.009816
v 0.040636 -0.009440 -0.001381
v 0.039879 -0.009440 0.007081
v 0.037378 -0.009440 0.015201
v 0.033244 -0.009440 0.022624
v 0.027657 -0.009440 0.029025
v 0.020862 -0.009440 0.034124
v 0.013154 -0.009440 0.037700
v 0.004872 -0.009440 0.039594
v -0.003623 -0.009440 0.039726
v -0.011960 -0.009440 0.038088
v -0.019774 -0.009440 0.034752
v -0.026724 -0.009440 0.029865
v -0.032506 -0.009440 0.023640
v -0.036867 -0.009440 0.016348
v -0.039617 -0.009440 0.008309
v -0.024218 -0.009440 -0.000379
v -0.023766 -0.009440 -0.005423
v -0.022276 -0.009440 -0.010262
v -0.019812 -0.009440 -0.014685
v -0.016483 -0.009440 -0.018500
v -0.012433 -0.009440 -0.021539
v -0.007839 -0.009440 -0.023670
v -0.002904 -0.009440 -0.024799
v 0.002159 -0.009440 -0.024877
v 0.007128 -0.009440 -0.023901
v 0.011785 -0.009440 -0.021914
v 0.015927 -0.009440 -0.019001
v 0.019373 -0.009440 -0.015291
v 0.021972 -0.009440 -0.010945
v 0.023611 -0.009440 -0.006155
v 0.024218 -0.009440 -0.001128
v 0.023766 -0.009440 0.003916
v 0.022276 -0.009440 0.008755
v 0.019812 -0.009440 0.013179
v 0.016483 -0.009440 0.016993
v 0.012433 -0.009440 0.020033
v 0.007839 -0.009440 0.022163
v 0.002904 -0.009440 0.023292
v -0.002159 -0.009440 0.023371
v -0.007128 -0.009440 0.022394
v -0.011785 -0.009440 0.020407
v -0.015927 -0.009440 0.017494
v -0.019373 -0.009440 0.013784
v -0.021972 -0.009440 0.009439
v -0.023611 -0.009440 0.004648
v 0.037202 -0.014360 -0.009264
v 0.038159 -0.014360 -0.001343
v 0.037447 -0.014360 0.006604
v 0.035100 -0.014360 0.014229
v 0.031218 -0.014360 0.021199
v 0.025971 -0.014360 0.027210
v 0.019590 -0.014360 0.031998
v 0.012352 -0.014360 0.035356
v 0.004575 -0.014360 0.037135
v -0.003402 -0.014360 0.037258
v -0.011231 -0.014360 0.035720
v -0.018569 -0.014360 0.032588
v -0.025095 -0.014360 0.027999
v -0.030525 -0.014360 0.022153
v -0.034620 -0.014360 0.015306
v -0.037202 -0.014360 0.007757
v -0.038159 -0.014360 -0.000164
v -0.037447 -0.014360 -0.008110
v -0.035100 -0.014360 -0.015735
v -0.031218 -0.014360 -0.022706
v -0.025971 -0.014360 -0.028716
v -0.019590 -0.014360 -0.033505
v -0.012352 -0.014360 -0.036862
v -0.004575 -0.014360 -0.038642
v 0.003402 -0.014360 -0.038765
v 0.011231 -0.014360 -0.037227
v 0.018569 -0.014360 -0.034095
v 0.025095 -0.014360 -0.029505
v 0.030525 -0.014360 -0.023660
v 0.034620 -0.014360 -0.016813
v 0.026618 -0.014360 -0.006842
v 0.027302 -0.014360 -0.001175
v 0.026793 -0.014360 0.004510
v 0.025113 -0.014360 0.009966
v 0.022336 -0.014360 0.014953
v 0.018582 -0.014360 0.019254
v 0.014016 -0.014360 0.022680
v 0.008838 -0.014360 0.025082
v 0.003273 -0.014360 0.026355
v -0.002434 -0.014360 0.026443
v -0.008036 -0.014360 0.025343
v -0.013286 -0.014360 0.023102
v -0.017955 -0.014360 0.019818
v -0.021840 -0.014360 0.015635
v -0.024770 -0.014360 0.010737
v -0.026618 -0.014360 0.005336
v -0.027302 -0.014360 -0.000332
v -0.026793 -0.014360 -0.006017
v -0.025113 -0.014360 -0.011473
v -0.022336 -0.014360 -0.016460
v -0.018582 -0.014360 -0.020760
v -0.014016 -0.014360 -0.024187
v -0.008838 -0.014360 -0.026589
v -0.003273 -0.014360 -0.027862
v 0.002434 -0.014360 -0.027950
v 0.008036 -0.014360 -0.026849
v 0.013286 -0.014360 -0.024608
v 0.017955 -0.014360 -0.021325
v 0.021840 -0.014360 -0.017142
v 0.024770 -0.014360 -0.012243
vn -0.9999 -0.0000 0.0154
vn -0.9748 -0.0000 0.2230
vn 0.8660 -0.0000 -0.5000
vn 0.5878 -0.0000 -0.8090
vn 0.2079 -0.0000 -0.9781
vn -0.2079 -0.0000 -0.9781
vn -0.5878 -0.0000 -0.8090
vn -0.8660 -0.0000 -0.5000
vn -0.9945 -0.0000 -0.1045
vn -0.9511 -0.0000 0.3090
vn -0.7431 -0.0000 0.6691
vn -0.4067 -0.0000 0.9135
vn -0.0000 -0.0000 1.0000
vn 0.4067 -0.0000 0.9135
vn 0.7431 -0.0000 0.6691
vn 0.9511 -0.0000 0.3090
vn 0.9945 -0.0000 -0.1045
vn 0.1517 0.9845 -0.0876
vn 0.1597 0.9828 -0.0922
vn 0.7557 -0.0000 0.6549
vn 0.1030 0.9845 -0.1417
vn 0.1084 0.9828 -0.1492
vn 0.9567 -0.0000 0.2909
vn 0.0364 0.9845 -0.1713
vn 0.0383 0.9828 -0.1804
vn 0.9924 -0.0000 -0.1234
vn -0.0364 0.9845 -0.1713
vn -0.0383 0.9828 -0.1804
vn 0.8564 -0.0000 -0.5163
vn -0.1030 0.9845 -0.1417
vn -0.1084 0.9828 -0.1492
vn 0.5723 -0.0000 -0.8200
vn -0.1517 0.9845 -0.0876
vn -0.1597 0.9828 -0.0922
vn 0.1893 -0.0000 -0.9819
vn -0.1742 0.9845 -0.0183
vn -0.1834 0.9828 -0.0193
vn -0.2264 -0.0000 -0.9740
vn -0.1666 0.9845 0.0541
vn -0.1754 0.9828 0.0570
vn -0.6030 -0.0000 -0.7977
vn -0.1302 0.9845 0.1172
vn -0.1371 0.9828 0.1234
vn -0.8753 -0.0000 -0.4835
vn -0.0712 0.9845 0.1600
vn -0.0750 0.9828 0.1685
vn -0.9963 -0.0000 -0.0857
vn -0.0000 0.9845 0.1752
vn -0.0000 0.9828 0.1844
vn -0.9450 -0.0000 0.3270
vn 0.0712 0.9845 0.1600
vn 0.0750 0.9828 0.1685
vn -0.7303 -0.0000 0.6831
vn 0.1302 0.9845 0.1172
vn 0.1371 0.9828 0.1234
vn -0.3893 -0.0000 0.9211
vn 0.1666 0.9845 0.0541
vn 0.1754 0.9828 0.0570
vn 0.0190 -0.0000 0.9998
vn 0.1742 0.9845 -0.0183
vn 0.1834 0.9828 -0.0193
vn 0.4240 -0.0000 0.9057
vn 0.2588 -0.0000 -0.9659
vn 0.9659 -0.0000 0.2588
vn -0.1564 -0.0000 -0.9877
vn 0.9877 -0.0000 -0.1564
vn -0.5446 -0.0000 -0.8387
vn 0.8387 -0.0000 -0.5446
vn -0.8387 -0.0000 -0.5446
vn 0.5446 -0.0000 -0.8387
vn -0.9877 -0.0000 -0.1564
vn 0.1564 -0.0000 -0.9877
vn -0.9659 -0.0000 0.2588
vn -0.2588 -0.0000 -0.9659
vn -0.7771 -0.0000 0.6293
vn -0.6293 -0.0000 -0.7771
vn -0.4540 -0.0000 0.8910
vn -0.8910 -0.0000 -0.4540
vn -0.0523 -0.0000 0.9986
vn -0.9986 -0.0000 -0.0523
vn 0.3584 -0.0000 0.9336
vn -0.9336 -0.0000 0.3584
vn 0.7071 -0.0000 0.7071
vn -0.7071 -0.0000 0.7071
vn 0.9336 -0.0000 0.3584
vn -0.3584 -0.0000 0.9336
vn 0.9986 -0.0000 -0.0523
vn 0.0523 -0.0000 0.9986
vn 0.8910 -0.0000 -0.4540
vn 0.4540 -0.0000 0.8910
vn 0.6293 -0.0000 -0.7771
vn -0.0000 1.0000 -0.0000
vn 0.2264 -0.0000 -0.9740
vn 0.6030 -0.0000 -0.7977
vn 0.8753 -0.0000 -0.4835
vn 0.9963 -0.0000 -0.0857
vn 0.9450 -0.0000 0.3270
vn 0.7303 -0.0000 0.6831
vn 0.3893 -0.0000 0.9211
vn -0.0190 -0.0000 0.9998
vn -0.4240 -0.0000 0.9057
vn -0.7557 -0.0000 0.6549
vn -0.9567 -0.0000 0.2909
vn -0.9924 -0.0000 -0.1234
vn -0.8564 -0.0000 -0.5163
vn -0.5723 -0.0000 -0.8200
vn -0.1893 -0.0000 -0.9819
vn 0.9945 -0.0000 0.1045
vn 0.8660 -0.0000 0.5000
vn 0.5878 -0.0000 0.8090
vn 0.2079 -0.0000 0.9781
vn -0.2079 -0.0000 0.9781
vn -0.5878 -0.0000 0.8090
vn -0.8660 -0.0000 0.5000
vn -0.9945 -0.0000 0.1045
vn -0.9511 -0.0000 -0.3090
vn -0.7431 -0.0000 -0.6691
vn -0.4067 -0.0000 -0.9135
vn -0.0000 -0.0000 -1.0000
vn 0.4067 -0.0000 -0.9135
vn 0.7431 -0.0000 -0.6691
vn 0.9511 -0.0000 -0.3090
vn -0.1273 0.9852 0.1146
vn -0.0697 0.9852 0.1565
vn -0.0000 0.9852 0.1713
vn 0.0697 0.9852 0.1565
vn 0.1273 0.9852 0.1146
vn 0.1629 0.9852 0.0529
vn 0.1704 0.9852 -0.0179
vn 0.1483 0.9852 -0.0856
vn 0.1007 0.9852 -0.1386
vn 0.0356 0.9852 -0.1675
vn -0.0356 0.9852 -0.1675
vn -0.1007 0.9852 -0.1386
vn -0.1483 0.9852 -0.0856
vn -0.1704 0.9852 -0.0179
vn -0.1629 0.9852 0.0529
vn -0.0796 0.4497 0.8896
vn 0.1071 0.4497 0.8867
vn 0.2742 0.5312 0.8016
vn 0.1016 0.5312 0.8411
vn 0.2891 0.4497 0.8451
vn 0.4349 0.5312 0.7271
vn 0.4585 0.4497 0.7665
vn 0.5766 0.5312 0.6208
vn 0.6078 0.4497 0.6544
vn 0.6931 0.5312 0.4874
vn 0.7306 0.4497 0.5138
vn 0.7792 0.5312 0.3326
vn 0.8707 0.4497 -0.1992
vn 0.8102 0.4497 -0.3758
vn 0.8215 0.4497 0.3506
vn 0.8314 0.5312 0.1633
vn 0.7144 0.4497 -0.5361
vn 0.8764 0.4497 0.1722
vn 0.8472 0.5312 -0.0131
vn 0.5873 0.4497 -0.6729
vn 0.8931 0.4497 -0.0138
vn 0.8259 0.5312 -0.1889
vn 0.4346 0.4497 -0.7803
vn 0.7686 0.5312 -0.3565
vn 0.2628 0.4497 -0.8536
vn 0.6777 0.5312 -0.5085
vn 0.0796 0.4497 -0.8896
vn 0.5571 0.5312 -0.6383
vn -0.1071 0.4497 -0.8867
vn 0.4122 0.5312 -0.7402
vn -0.2891 0.4497 -0.8451
vn 0.2493 0.5312 -0.8097
vn 0.5133 -0.0000 0.8582
vn 0.6805 -0.0000 0.7327
vn -0.1199 -0.0000 -0.9928
vn -0.3237 -0.0000 -0.9462
vn 0.3237 -0.0000 0.9462
vn 0.0892 -0.0000 -0.9960
vn 0.1199 -0.0000 0.9928
vn 0.2943 -0.0000 -0.9557
vn -0.0892 -0.0000 0.9960
vn 0.4866 -0.0000 -0.8736
vn -0.2943 -0.0000 0.9557
vn 0.6576 -0.0000 -0.7534
vn -0.4866 -0.0000 0.8736
vn 0.7998 -0.0000 -0.6002
vn -0.6576 -0.0000 0.7534
vn 0.9072 -0.0000 -0.4208
vn -0.7998 -0.0000 0.6002
vn 0.9748 -0.0000 -0.2230
vn -0.9812 -0.0000 -0.1928
vn -0.9072 -0.0000 0.4208
vn 0.9999 -0.0000 -0.0154
vn -0.9197 -0.0000 -0.3926
vn 0.9812 -0.0000 0.1928
vn -0.8180 -0.0000 -0.5752
vn 0.9197 -0.0000 0.3926
vn -0.6805 -0.0000 -0.7327
vn 0.8180 -0.0000 0.5752
vn -0.5133 -0.0000 -0.8582
vn -0.0755 0.5312 0.8439
vn -0.2628 0.4497 0.8536
vn -0.2493 0.5312 0.8097
vn -0.4346 0.4497 0.7803
vn -0.4122 0.5312 0.7402
vn -0.5873 0.4497 0.6729
vn -0.5571 0.5312 0.6383
vn -0.8259 0.5312 0.1889
vn -0.8472 0.5312 0.0131
vn -0.7144 0.4497 0.5361
vn -0.6777 0.5312 0.5085
vn -0.8314 0.5312 -0.1633
vn -0.8102 0.4497 0.3758
vn -0.7686 0.5312 0.3565
vn -0.7792 0.5312 -0.3326
vn -0.8707 0.4497 0.1992
vn -0.6931 0.5312 -0.4874
vn -0.8931 0.4497 0.0138
vn -0.5766 0.5312 -0.6208
vn -0.8764 0.4497 -0.1722
vn -0.4349 0.5312 -0.7271
vn -0.8215 0.4497 -0.3506
vn -0.2742 0.5312 -0.8016
vn -0.7306 0.4497 -0.5138
vn -0.1016 0.5312 -0.8411
vn -0.6078 0.4497 -0.6544
vn 0.0755 0.5312 -0.8439
vn -0.4585 0.4497 -0.7665
vn 0.1517 -0.9845 -0.0876
vn 0.1597 -0.9828 -0.0922
vn 0.1030 -0.9845 -0.1417
vn 0.1084 -0.9828 -0.1492
vn 0.0364 -0.9845 -0.1713
vn 0.0383 -0.9828 -0.1804
vn -0.0364 -0.9845 -0.1713
vn -0.0383 -0.9828 -0.1804
vn -0.1030 -0.9845 -0.1417
vn -0.1084 -0.9828 -0.1492
vn -0.1517 -0.9845 -0.0876
vn -0.1597 -0.9828 -0.0922
vn -0.1742 -0.9845 -0.0183
vn -0.1834 -0.9828 -0.0193
vn -0.1666 -0.9845 0.0541
vn -0.1754 -0.9828 0.0570
vn -0.1302 -0.9845 0.1172
vn -0.1371 -0.9828 0.1234
vn -0.0712 -0.9845 0.1600
vn -0.0750 -0.9828 0.1685
vn -0.0000 -0.9845 0.1752
vn -0.0000 -0.9828 0.1844
vn 0.0712 -0.9845 0.1600
vn 0.0750 -0.9828 0.1685
vn 0.1302 -0.9845 0.1172
vn 0.1371 -0.9828 0.1234
vn 0.1666 -0.9845 0.0541
vn 0.1754 -0.9828 0.0570
vn 0.1742 -0.9845 -0.0183
vn 0.1834 -0.9828 -0.0193
vn -0.0000 -1.0000 -0.0000
vn -0.1273 -0.9852 0.1146
vn -0.0697 -0.9852 0.1565
vn -0.0000 -0.9852 0.1713
vn 0.0697 -0.9852 0.1565
vn 0.1273 -0.9852 0.1146
vn 0.1629 -0.9852 0.0529
vn 0.1704 -0.9852 -0.0179
vn 0.1483 -0.9852 -0.0856
vn 0.1007 -0.9852 -0.1386
vn 0.0356 -0.9852 -0.1675
vn -0.0356 -0.9852 -0.1675
vn -0.1007 -0.9852 -0.1386
vn -0.1483 -0.9852 -0.0856
vn -0.1704 -0.9852 -0.0179
vn -0.1629 -0.9852 0.0529
vn -0.0796 -0.4497 0.8896
vn 0.1071 -0.4497 0.8867
vn 0.2742 -0.5312 0.8016
vn 0.1016 -0.5312 0.8411
vn 0.2891 -0.4497 0.8451
vn 0.4349 -0.5312 0.7271
vn 0.4585 -0.4497 0.7665
vn 0.5766 -0.5312 0.6208
vn 0.6078 -0.4497 0.6544
vn 0.6931 -0.5312 0.4874
vn 0.7306 -0.4497 0.5138
vn 0.7792 -0.5312 0.3326
vn 0.8707 -0.4497 -0.1992
vn 0.8102 -0.4497 -0.3758
vn 0.8215 -0.4497 0.3506
vn 0.8314 -0.5312 0.1633
vn 0.7144 -0.4497 -0.5361
vn 0.8764 -0.4497 0.1722
vn 0.8472 -0.5312 -0.0131
vn 0.5873 -0.4497 -0.6729
vn 0.8931 -0.4497 -0.0138
vn 0.8259 -0.5312 -0.1889
vn 0.4346 -0.4497 -0.7803
vn 0.7686 -0.5312 -0.3565
vn 0.2628 -0.4497 -0.8536
vn 0.6777 -0.5312 -0.5085
vn 0.0796 -0.4497 -0.8896
vn 0.5571 -0.5312 -0.6383
vn -0.1071 -0.4497 -0.8867
vn 0.4122 -0.5312 -0.7402
vn -0.2891 -0.4497 -0.8451
vn 0.2493 -0.5312 -0.8097
vn -0.0755 -0.5312 0.8439
vn -0.2628 -0.4497 0.8536
vn -0.2493 -0.5312 0.8097
vn -0.4346 -0.4497 0.7803
vn -0.4122 -0.5312 0.7402
vn -0.5873 -0.4497 0.6729
vn -0.5571 -0.5312 0.6383
vn -0.8259 -0.5312 0.1889
vn -0.8472 -0.5312 0.0131
vn -0.7144 -0.4497 0.5361
vn -0.6777 -0.5312 0.5085
vn -0.8314 -0.5312 -0.1633
vn -0.8102 -0.4497 0.3758
vn -0.7686 -0.5312 0.3565
vn -0.7792 -0.5312 -0.3326
vn -0.8707 -0.4497 0.1992
vn -0.6931 -0.5312 -0.4874
vn -0.8931 -0.4497 0.0138
vn -0.5766 -0.5312 -0.6208
vn -0.8764 -0.4497 -0.1722
vn -0.4349 -0.5312 -0.7271
vn -0.8215 -0.4497 -0.3506
vn -0.2742 -0.5312 -0.8016
vn -0.7306 -0.4497 -0.5138
vn -0.1016 -0.5312 -0.8411
vn -0.6078 -0.4497 -0.6544
vn 0.0755 -0.5312 -0.8439
vn -0.4585 -0.4497 -0.7665
vn 0.7771 -0.0000 0.6293
vt 0.499239 0.109059
vt 0.499239 0.064881
vt 0.511087 0.064881
vt 0.511087 0.109059
vt 0.682641 0.216885
vt 0.709848 0.216885
vt 0.709848 0.254673
vt 0.682641 0.254673
vt 0.601144 0.233993
vt 0.601144 0.206782
vt 0.638936 0.206783
vt 0.638936 0.233993
vt 0.712325 0.124882
vt 0.739533 0.124882
vt 0.739533 0.162671
vt 0.712325 0.162671
vt 0.605507 0.124886
vt 0.632715 0.124886
vt 0.632715 0.162674
vt 0.605507 0.162674
vt 0.709850 0.208672
vt 0.682643 0.208672
vt 0.682643 0.170884
vt 0.709850 0.170884
vt 0.789461 0.216884
vt 0.816669 0.216884
vt 0.816669 0.254671
vt 0.789461 0.254671
vt 0.789453 0.170886
vt 0.816660 0.170886
vt 0.816660 0.208673
vt 0.789453 0.208673
vt 0.789461 0.262882
vt 0.816671 0.262882
vt 0.816671 0.300672
vt 0.789461 0.300672
vt 0.682647 0.262887
vt 0.709854 0.262887
vt 0.709854 0.300673
vt 0.682647 0.300673
vt 0.819148 0.124885
vt 0.846355 0.124885
vt 0.846355 0.162671
vt 0.819148 0.162671
vt 0.067995 0.088671
vt 0.040787 0.088671
vt 0.040787 0.050882
vt 0.067995 0.050882
vt 0.040786 0.004878
vt 0.067997 0.004878
vt 0.067997 0.042671
vt 0.040786 0.042671
vt 0.898174 0.206779
vt 0.898174 0.233987
vt 0.860386 0.233987
vt 0.860386 0.206779
vt 0.313051 0.264672
vt 0.285844 0.264672
vt 0.285844 0.226885
vt 0.313051 0.226885
vt 0.252811 0.272882
vt 0.280017 0.272882
vt 0.280017 0.310668
vt 0.252811 0.310668
vt 0.557587 0.409438
vt 0.574838 0.356345
vt 0.584029 0.374005
vt 0.575402 0.400554
vt 0.646741 0.216885
vt 0.663238 0.216885
vt 0.663237 0.254673
vt 0.646741 0.254673
vt 0.489230 0.504622
vt 0.526585 0.463135
vt 0.527799 0.483006
vt 0.509120 0.503752
vt 0.601144 0.269897
vt 0.601144 0.253399
vt 0.638936 0.253399
vt 0.638936 0.269897
vt 0.388069 0.563773
vt 0.439068 0.541066
vt 0.432095 0.559713
vt 0.406593 0.571068
vt 0.676425 0.124882
vt 0.692922 0.124882
vt 0.692922 0.162671
vt 0.676425 0.162671
vt 0.271595 0.576664
vt 0.327420 0.576664
vt 0.313465 0.590862
vt 0.285550 0.590862
vt 0.569607 0.124886
vt 0.586104 0.124886
vt 0.586104 0.162674
vt 0.569607 0.162674
vt 0.159947 0.541066
vt 0.210946 0.563773
vt 0.192422 0.571068
vt 0.166921 0.559713
vt 0.745750 0.208672
vt 0.729254 0.208672
vt 0.729254 0.170884
vt 0.745750 0.170884
vt 0.072430 0.463135
vt 0.109785 0.504622
vt 0.089896 0.503752
vt 0.071217 0.483006
vt 0.753562 0.216884
vt 0.770058 0.216884
vt 0.770058 0.254671
vt 0.753562 0.254671
vt 0.024177 0.356345
vt 0.041428 0.409438
vt 0.023612 0.400554
vt 0.014986 0.374005
vt 0.753553 0.170886
vt 0.770050 0.170886
vt 0.770050 0.208673
vt 0.753553 0.208673
vt 0.023532 0.239162
vt 0.017696 0.294681
vt 0.005034 0.279319
vt 0.007952 0.251556
vt 0.753559 0.262882
vt 0.770056 0.262882
vt 0.770056 0.300672
vt 0.753559 0.300672
vt 0.070604 0.131846
vt 0.042692 0.180192
vt 0.037373 0.161008
vt 0.051331 0.136832
vt 0.646748 0.262887
vt 0.663244 0.262887
vt 0.663244 0.300673
vt 0.646748 0.300673
vt 0.157257 0.052955
vt 0.112093 0.085768
vt 0.115037 0.066079
vt 0.137621 0.049671
vt 0.783249 0.124885
vt 0.799745 0.124885
vt 0.799745 0.162671
vt 0.783249 0.162671
vt 0.268505 0.016129
vt 0.213900 0.027736
vt 0.224598 0.010946
vt 0.251903 0.005142
vt 0.103896 0.088671
vt 0.087399 0.088671
vt 0.087399 0.050882
vt 0.103896 0.050882
vt 0.385115 0.027736
vt 0.330509 0.016129
vt 0.347111 0.005142
vt 0.374417 0.010946
vt 0.004881 0.004878
vt 0.021380 0.004878
vt 0.021380 0.042671
vt 0.004881 0.042671
vt 0.486922 0.085768
vt 0.441758 0.052955
vt 0.461394 0.049671
vt 0.483977 0.066079
vt 0.898174 0.170879
vt 0.898174 0.187376
vt 0.860386 0.187376
vt 0.860386 0.170879
vt 0.556323 0.180192
vt 0.528410 0.131846
vt 0.547684 0.136832
vt 0.561642 0.161008
vt 0.348950 0.264672
vt 0.332454 0.264672
vt 0.332454 0.226885
vt 0.348950 0.226885
vt 0.581319 0.294681
vt 0.575483 0.239162
vt 0.591063 0.251556
vt 0.593981 0.279318
vt 0.216912 0.272882
vt 0.233408 0.272882
vt 0.233408 0.310668
vt 0.216912 0.310668
vt 0.729251 0.216885
vt 0.729251 0.254673
vt 0.601144 0.187377
vt 0.638936 0.187377
vt 0.758937 0.124882
vt 0.758937 0.162671
vt 0.652118 0.124886
vt 0.652118 0.162674
vt 0.663239 0.208672
vt 0.663239 0.170884
vt 0.836072 0.216884
vt 0.836072 0.254671
vt 0.836064 0.170886
vt 0.836064 0.208673
vt 0.836076 0.262882
vt 0.836076 0.300672
vt 0.729256 0.262887
vt 0.729256 0.300673
vt 0.865758 0.124885
vt 0.865758 0.162671
vt 0.021383 0.088671
vt 0.021383 0.050882
vt 0.087403 0.004878
vt 0.087403 0.042671
vt 0.898174 0.253391
vt 0.860386 0.253391
vt 0.266441 0.264672
vt 0.266441 0.226885
vt 0.299420 0.272882
vt 0.299420 0.310668
vt 0.058352 0.409682
vt 0.037726 0.346201
vt 0.206199 0.314566
vt 0.212049 0.333565
vt 0.481924 0.101939
vt 0.511806 0.135127
vt 0.377293 0.241536
vt 0.364220 0.226558
vt 0.080682 0.448357
vt 0.221722 0.350933
vt 0.427923 0.062706
vt 0.348320 0.214626
vt 0.125344 0.497961
vt 0.234794 0.365910
vt 0.387126 0.044541
vt 0.330286 0.206261
vt 0.161474 0.524210
vt 0.250695 0.377842
vt 0.321837 0.030664
vt 0.310907 0.201828
vt 0.222451 0.551359
vt 0.268729 0.386207
vt 0.277178 0.030664
vt 0.291030 0.201521
vt 0.266134 0.560644
vt 0.288108 0.390641
vt 0.211889 0.044541
vt 0.271523 0.205353
vt 0.332881 0.560644
vt 0.307985 0.390948
vt 0.171091 0.062705
vt 0.253239 0.213157
vt 0.376564 0.551359
vt 0.327492 0.387115
vt 0.117091 0.101939
vt 0.236978 0.224592
vt 0.437541 0.524210
vt 0.345776 0.379311
vt 0.087209 0.135127
vt 0.223449 0.239159
vt 0.473671 0.497961
vt 0.362037 0.367876
vt 0.053835 0.192932
vt 0.213244 0.256219
vt 0.518334 0.448357
vt 0.375566 0.353310
vt 0.040035 0.235405
vt 0.206810 0.275029
vt 0.558980 0.235405
vt 0.565957 0.301787
vt 0.394588 0.297703
vt 0.392816 0.277903
vt 0.540663 0.409682
vt 0.385771 0.336249
vt 0.033058 0.301787
vt 0.204427 0.294765
vt 0.545180 0.192932
vt 0.386965 0.258903
vt 0.561289 0.346201
vt 0.392205 0.317440
vt 0.315916 0.272882
vt 0.315916 0.310668
vt 0.249945 0.264672
vt 0.249945 0.226885
vt 0.898174 0.269887
vt 0.860386 0.269887
vt 0.103901 0.004878
vt 0.103901 0.042671
vt 0.004887 0.088671
vt 0.004887 0.050882
vt 0.882253 0.124885
vt 0.882253 0.162671
vt 0.745752 0.262887
vt 0.745752 0.300673
vt 0.852573 0.262882
vt 0.852573 0.300672
vt 0.852559 0.170886
vt 0.852559 0.208673
vt 0.852568 0.216884
vt 0.852568 0.254671
vt 0.646743 0.208672
vt 0.646743 0.170884
vt 0.668615 0.124886
vt 0.668615 0.162674
vt 0.775434 0.124882
vt 0.775434 0.162671
vt 0.601144 0.170879
vt 0.638936 0.170879
vt 0.745747 0.216885
vt 0.745747 0.254673
vt 0.049065 0.469542
vt 0.004885 0.469542
vt 0.004885 0.424880
vt 0.049065 0.424880
vt 0.741481 0.353544
vt 0.697303 0.353544
vt 0.697303 0.308882
vt 0.741481 0.308882
vt 0.904559 0.323545
vt 0.860380 0.323545
vt 0.860380 0.278882
vt 0.904559 0.278882
vt 0.747358 0.409543
vt 0.703180 0.409543
vt 0.703180 0.364881
vt 0.747358 0.364881
vt 0.635986 0.409539
vt 0.591812 0.409539
vt 0.591812 0.364881
vt 0.635986 0.364881
vt 0.906675 0.109539
vt 0.862501 0.109539
vt 0.862501 0.064882
vt 0.906675 0.064882
vt 0.367899 0.317539
vt 0.323725 0.317539
vt 0.323725 0.272882
vt 0.367899 0.272882
vt 0.793467 0.353539
vt 0.749294 0.353539
vt 0.749294 0.308882
vt 0.793467 0.308882
vt 0.689484 0.353539
vt 0.645310 0.353539
vt 0.645310 0.308882
vt 0.689484 0.308882
vt 0.290835 0.363537
vt 0.246661 0.363537
vt 0.246661 0.318880
vt 0.290835 0.318880
vt 0.878597 0.431540
vt 0.834422 0.431540
vt 0.834422 0.386881
vt 0.878597 0.386881
vt 0.801287 0.308880
vt 0.845460 0.308880
vt 0.845460 0.353536
vt 0.801287 0.353536
vt 0.826609 0.407541
vt 0.782432 0.407541
vt 0.782431 0.362880
vt 0.826609 0.362880
vt 0.897447 0.377542
vt 0.853269 0.377542
vt 0.853269 0.332881
vt 0.897447 0.332881
vt 0.637496 0.339540
vt 0.593322 0.339540
vt 0.593322 0.294882
vt 0.637496 0.294882
vt 0.976905 0.414844
vt 0.976905 0.430751
vt 0.964040 0.430751
vt 0.964040 0.414844
vt 0.925122 0.208051
vt 0.925122 0.192144
vt 0.938683 0.192144
vt 0.938683 0.208051
vt 0.976905 0.446658
vt 0.964040 0.446658
vt 0.925122 0.223958
vt 0.938683 0.223958
vt 0.976905 0.462565
vt 0.964040 0.462565
vt 0.925122 0.239865
vt 0.938683 0.239865
vt 0.976905 0.478472
vt 0.964040 0.478472
vt 0.925122 0.255773
vt 0.938683 0.255773
vt 0.976905 0.494379
vt 0.964040 0.494379
vt 0.925122 0.271679
vt 0.938683 0.271679
vt 0.976905 0.080794
vt 0.976905 0.096701
vt 0.964040 0.096701
vt 0.964040 0.080794
vt 0.976905 0.510286
vt 0.964040 0.510286
vt 0.925122 0.287587
vt 0.938683 0.287587
vt 0.976905 0.112608
vt 0.964040 0.112608
vt 0.976905 0.526193
vt 0.964040 0.526193
vt 0.925122 0.303494
vt 0.938683 0.303494
vt 0.976905 0.128515
vt 0.964040 0.128515
vt 0.976905 0.542101
vt 0.964040 0.542101
vt 0.925122 0.319401
vt 0.938683 0.319401
vt 0.976905 0.144423
vt 0.964040 0.144423
vt 0.976905 0.064887
vt 0.964040 0.064887
vt 0.925122 0.335308
vt 0.938683 0.335308
vt 0.976905 0.160330
vt 0.964040 0.160330
vt 0.925122 0.351215
vt 0.938683 0.351215
vt 0.976905 0.176237
vt 0.964040 0.176237
vt 0.925122 0.367123
vt 0.938683 0.367123
vt 0.976905 0.192144
vt 0.964040 0.192144
vt 0.925122 0.383030
vt 0.938683 0.383030
vt 0.976905 0.208051
vt 0.964040 0.208051
vt 0.925122 0.398937
vt 0.938683 0.398937
vt 0.617721 0.109059
vt 0.617721 0.064881
vt 0.629569 0.064881
vt 0.629569 0.109059
vt 0.771748 0.109059
vt 0.771748 0.064881
vt 0.783596 0.064882
vt 0.783596 0.109059
vt 0.605873 0.109059
vt 0.605873 0.064881
vt 0.759900 0.109059
vt 0.759900 0.064882
vt 0.594024 0.109059
vt 0.594024 0.064881
vt 0.748052 0.109059
vt 0.748052 0.064882
vt 0.582176 0.109059
vt 0.582176 0.064881
vt 0.736203 0.109059
vt 0.736203 0.064881
vt 0.570328 0.109059
vt 0.570328 0.064881
vt 0.724355 0.109059
vt 0.724355 0.064881
vt 0.558480 0.109059
vt 0.558480 0.064881
vt 0.712507 0.109059
vt 0.712507 0.064881
vt 0.546632 0.109059
vt 0.546632 0.064881
vt 0.700658 0.109059
vt 0.700658 0.064881
vt 0.534783 0.109059
vt 0.534783 0.064881
vt 0.688810 0.109059
vt 0.688810 0.064881
vt 0.842837 0.109059
vt 0.842837 0.064882
vt 0.854686 0.064882
vt 0.854686 0.109059
vt 0.522935 0.109059
vt 0.522935 0.064881
vt 0.676962 0.109059
vt 0.676962 0.064881
vt 0.830989 0.109059
vt 0.830989 0.064882
vt 0.665114 0.109059
vt 0.665114 0.064881
vt 0.819141 0.109059
vt 0.819141 0.064881
vt 0.653266 0.109059
vt 0.653266 0.064881
vt 0.807293 0.109059
vt 0.807293 0.064882
vt 0.641417 0.109059
vt 0.641417 0.064881
vt 0.795444 0.109059
vt 0.795444 0.064882
vt 0.964040 0.367123
vt 0.964040 0.383030
vt 0.938683 0.128515
vt 0.938683 0.112608
vt 0.964040 0.351215
vt 0.938683 0.096701
vt 0.964040 0.303494
vt 0.964040 0.319401
vt 0.964040 0.335308
vt 0.938683 0.080794
vt 0.938683 0.064887
vt 0.964040 0.287587
vt 0.938683 0.542101
vt 0.938683 0.526193
vt 0.964040 0.271679
vt 0.938683 0.510286
vt 0.964040 0.255773
vt 0.938683 0.494379
vt 0.964040 0.239865
vt 0.938683 0.478472
vt 0.964040 0.223958
vt 0.938683 0.462565
vt 0.938683 0.446658
vt 0.938683 0.430751
vt 0.938683 0.176237
vt 0.938683 0.414844
vt 0.938683 0.160330
vt 0.964040 0.398937
vt 0.938683 0.144423
vt 0.925122 0.176237
vt 0.976905 0.398937
vt 0.925122 0.160330
vt 0.976905 0.383030
vt 0.925122 0.144423
vt 0.976905 0.367123
vt 0.925122 0.128515
vt 0.925122 0.080794
vt 0.925122 0.064887
vt 0.976905 0.351215
vt 0.925122 0.112608
vt 0.925122 0.542101
vt 0.925122 0.526193
vt 0.976905 0.335308
vt 0.925122 0.096701
vt 0.925122 0.510286
vt 0.976905 0.319401
vt 0.925122 0.494379
vt 0.976905 0.303494
vt 0.925122 0.478472
vt 0.976905 0.287587
vt 0.925122 0.462565
vt 0.976905 0.271679
vt 0.925122 0.446658
vt 0.976905 0.255773
vt 0.925122 0.430751
vt 0.976905 0.239865
vt 0.925122 0.414844
vt 0.976905 0.223958
vt 0.457100 0.557251
vt 0.453816 0.537616
vt 0.470224 0.515032
vt 0.489914 0.512088
vt 0.420274 0.668500
vt 0.409287 0.651898
vt 0.415092 0.624593
vt 0.431881 0.613895
vt 0.431881 0.785110
vt 0.415091 0.774412
vt 0.409287 0.747106
vt 0.420274 0.730504
vt 0.489914 0.886917
vt 0.470224 0.883973
vt 0.453816 0.861389
vt 0.457100 0.841753
vt 0.584338 0.956318
vt 0.565153 0.961637
vt 0.540978 0.947680
vt 0.535992 0.928406
vt 0.698827 0.981314
vt 0.683464 0.993976
vt 0.655702 0.991058
vt 0.643307 0.975479
vt 0.813584 0.957582
vt 0.804700 0.975398
vt 0.778151 0.984024
vt 0.760491 0.974833
vt 0.908768 0.889226
vt 0.907898 0.909115
vt 0.887153 0.927794
vt 0.867281 0.926580
vt 0.967919 0.788064
vt 0.975214 0.806588
vt 0.963860 0.832090
vt 0.945213 0.839063
vt 0.980810 0.671590
vt 0.995009 0.685545
vt 0.995009 0.713460
vt 0.980810 0.727415
vt 0.945213 0.559942
vt 0.963860 0.566915
vt 0.975214 0.592417
vt 0.967919 0.610941
vt 0.867282 0.472425
vt 0.887153 0.471211
vt 0.907898 0.489890
vt 0.908768 0.509780
vt 0.760491 0.424172
vt 0.778151 0.414981
vt 0.804700 0.423607
vt 0.813585 0.441423
vt 0.643308 0.423526
vt 0.655702 0.407947
vt 0.683465 0.405029
vt 0.698827 0.417691
vt 0.535992 0.470599
vt 0.540978 0.451325
vt 0.565154 0.437367
vt 0.584338 0.442686
vt 0.750347 0.961285
vt 0.721585 0.792200
vt 0.740395 0.785766
vt 0.813828 0.940659
vt 0.750347 0.437720
vt 0.718712 0.606194
vt 0.698911 0.604422
vt 0.705933 0.433052
vt 0.705933 0.965953
vt 0.701849 0.794583
vt 0.813828 0.458347
vt 0.737711 0.612044
vt 0.639550 0.958976
vt 0.682049 0.792811
vt 0.852504 0.480676
vt 0.755079 0.621717
vt 0.597078 0.945175
vt 0.663049 0.786961
vt 0.902107 0.525339
vt 0.770056 0.634789
vt 0.539272 0.911801
vt 0.645681 0.777288
vt 0.928357 0.561469
vt 0.781988 0.650690
vt 0.506084 0.881919
vt 0.630704 0.764216
vt 0.955505 0.622446
vt 0.790353 0.668724
vt 0.466851 0.827919
vt 0.618772 0.748315
vt 0.964790 0.666129
vt 0.794787 0.688103
vt 0.448687 0.787121
vt 0.610407 0.730281
vt 0.964790 0.732877
vt 0.795094 0.707980
vt 0.434809 0.721831
vt 0.605974 0.710902
vt 0.955505 0.776559
vt 0.791262 0.727487
vt 0.434809 0.677173
vt 0.605667 0.691025
vt 0.928356 0.837536
vt 0.783457 0.745771
vt 0.448687 0.611884
vt 0.609499 0.671518
vt 0.902107 0.873666
vt 0.772022 0.762032
vt 0.597078 0.453830
vt 0.660365 0.613239
vt 0.643305 0.623444
vt 0.539273 0.487203
vt 0.466851 0.571086
vt 0.617303 0.653234
vt 0.852503 0.918329
vt 0.757456 0.775561
vt 0.639551 0.440029
vt 0.679175 0.606805
vt 0.506085 0.517086
vt 0.628738 0.636973
vt 0.834748 0.056668
vt 0.834748 0.043803
vt 0.850656 0.043803
vt 0.850656 0.056668
vt 0.627952 0.004883
vt 0.627952 0.018445
vt 0.612045 0.018445
vt 0.612045 0.004883
vt 0.866563 0.043803
vt 0.866563 0.056668
vt 0.643859 0.004883
vt 0.643859 0.018445
vt 0.882471 0.043803
vt 0.882471 0.056668
vt 0.659767 0.004883
vt 0.659767 0.018445
vt 0.898378 0.043803
vt 0.898378 0.056668
vt 0.675674 0.004883
vt 0.675674 0.018445
vt 0.914285 0.043803
vt 0.914285 0.056668
vt 0.691582 0.004883
vt 0.691582 0.018445
vt 0.500693 0.056667
vt 0.500693 0.043803
vt 0.516600 0.043803
vt 0.516600 0.056667
vt 0.930193 0.043803
vt 0.930193 0.056668
vt 0.707489 0.004883
vt 0.707489 0.018445
vt 0.532508 0.043803
vt 0.532508 0.056667
vt 0.946100 0.043803
vt 0.946100 0.056668
vt 0.723397 0.004883
vt 0.723397 0.018445
vt 0.548415 0.043803
vt 0.548415 0.056668
vt 0.962008 0.043803
vt 0.962008 0.056668
vt 0.739304 0.004883
vt 0.739304 0.018445
vt 0.564323 0.043803
vt 0.564323 0.056668
vt 0.484786 0.056667
vt 0.484786 0.043803
vt 0.755211 0.004883
vt 0.755211 0.018445
vt 0.580230 0.043803
vt 0.580230 0.056668
vt 0.771119 0.004883
vt 0.771119 0.018445
vt 0.596137 0.043803
vt 0.596137 0.056668
vt 0.787026 0.004883
vt 0.787026 0.018445
vt 0.612045 0.043803
vt 0.612045 0.056668
vt 0.802934 0.004883
vt 0.802934 0.018445
vt 0.627952 0.043803
vt 0.627952 0.056668
vt 0.818841 0.004883
vt 0.818841 0.018445
vt 0.787026 0.043803
vt 0.802934 0.043803
vt 0.532508 0.018445
vt 0.548415 0.018445
vt 0.771119 0.043803
vt 0.516600 0.018445
vt 0.723397 0.043803
vt 0.739304 0.043803
vt 0.755211 0.043803
vt 0.500693 0.018445
vt 0.484786 0.018445
vt 0.707489 0.043803
vt 0.946100 0.018445
vt 0.962008 0.018445
vt 0.691582 0.043803
vt 0.930193 0.018445
vt 0.675674 0.043803
vt 0.914285 0.018445
vt 0.659767 0.043803
vt 0.898378 0.018445
vt 0.643859 0.043803
vt 0.882471 0.018445
vt 0.866563 0.018445
vt 0.850656 0.018445
vt 0.596137 0.018445
vt 0.834748 0.018445
vt 0.580230 0.018445
vt 0.818841 0.043803
vt 0.564323 0.018445
vt 0.596137 0.004883
vt 0.818841 0.056668
vt 0.580230 0.004883
vt 0.802934 0.056668
vt 0.564323 0.004883
vt 0.787026 0.056668
vt 0.548415 0.004883
vt 0.500693 0.004883
vt 0.484786 0.004883
vt 0.771119 0.056668
vt 0.532508 0.004883
vt 0.962008 0.004883
vt 0.946100 0.004883
vt 0.755211 0.056668
vt 0.516600 0.004883
vt 0.930193 0.004883
vt 0.739304 0.056668
vt 0.914285 0.004883
vt 0.723397 0.056668
vt 0.898378 0.004883
vt 0.707489 0.056668
vt 0.882471 0.004883
vt 0.691582 0.056668
vt 0.866563 0.004883
vt 0.675674 0.056668
vt 0.850656 0.004883
vt 0.659767 0.056668
vt 0.834748 0.004883
vt 0.643859 0.056668
s 1
f 346/1/1 136/2/1 135/3/2 345/4/2
f 243/5/3 241/6/3 31/7/3 33/8/3
f 247/9/4 245/10/4 35/11/4 37/12/4
f 251/13/5 249/14/5 39/15/5 41/16/5
f 255/17/6 253/18/6 43/19/6 45/20/6
f 259/21/7 257/22/7 47/23/7 49/24/7
f 263/25/8 261/26/8 51/27/8 53/28/8
f 267/29/9 265/30/9 55/31/9 57/32/9
f 271/33/10 269/34/10 59/35/10 61/36/10
f 275/37/11 273/38/11 63/39/11 65/40/11
f 279/41/12 277/42/12 67/43/12 69/44/12
f 283/45/13 281/46/13 71/47/13 73/48/13
f 287/49/14 285/50/14 75/51/14 77/52/14
f 291/53/15 289/54/15 79/55/15 81/56/15
f 295/57/16 293/58/16 83/59/16 85/60/16
f 299/61/17 297/62/17 87/63/17 89/64/17
f 32/65/18 34/66/18 33/67/19 31/68/19
f 212/69/20 244/70/20 34/71/20 2/72/20
f 36/73/21 38/74/21 37/75/22 35/76/22
f 214/77/23 248/78/23 38/79/23 4/80/23
f 40/81/24 42/82/24 41/83/25 39/84/25
f 216/85/26 252/86/26 42/87/26 6/88/26
f 44/89/27 46/90/27 45/91/28 43/92/28
f 218/93/29 256/94/29 46/95/29 8/96/29
f 48/97/30 50/98/30 49/99/31 47/100/31
f 220/101/32 260/102/32 50/103/32 10/104/32
f 52/105/33 54/106/33 53/107/34 51/108/34
f 222/109/35 264/110/35 54/111/35 12/112/35
f 56/113/36 58/114/36 57/115/37 55/116/37
f 224/117/38 268/118/38 58/119/38 14/120/38
f 60/121/39 62/122/39 61/123/40 59/124/40
f 226/125/41 272/126/41 62/127/41 16/128/41
f 64/129/42 66/130/42 65/131/43 63/132/43
f 228/133/44 276/134/44 66/135/44 18/136/44
f 68/137/45 70/138/45 69/139/46 67/140/46
f 230/141/47 280/142/47 70/143/47 20/144/47
f 72/145/48 74/146/48 73/147/49 71/148/49
f 232/149/50 284/150/50 74/151/50 22/152/50
f 76/153/51 78/154/51 77/155/52 75/156/52
f 234/157/53 288/158/53 78/159/53 24/160/53
f 80/161/54 82/162/54 81/163/55 79/164/55
f 236/165/56 292/166/56 82/167/56 26/168/56
f 84/169/57 86/170/57 85/171/58 83/172/58
f 238/173/59 296/174/59 86/175/59 28/176/59
f 88/177/60 90/178/60 89/179/61 87/180/61
f 240/181/62 300/182/62 90/183/62 30/184/62
f 31/7/63 241/6/63 242/185/63 32/186/63
f 34/71/64 244/70/64 243/5/64 33/8/64
f 35/11/65 245/10/65 246/187/65 36/188/65
f 38/79/66 248/78/66 247/9/66 37/12/66
f 39/15/67 249/14/67 250/189/67 40/190/67
f 42/87/68 252/86/68 251/13/68 41/16/68
f 43/19/69 253/18/69 254/191/69 44/192/69
f 46/95/70 256/94/70 255/17/70 45/20/70
f 47/23/71 257/22/71 258/193/71 48/194/71
f 50/103/72 260/102/72 259/21/72 49/24/72
f 51/27/73 261/26/73 262/195/73 52/196/73
f 54/111/74 264/110/74 263/25/74 53/28/74
f 55/31/75 265/30/75 266/197/75 56/198/75
f 58/119/76 268/118/76 267/29/76 57/32/76
f 59/35/77 269/34/77 270/199/77 60/200/77
f 62/127/78 272/126/78 271/33/78 61/36/78
f 63/39/79 273/38/79 274/201/79 64/202/79
f 66/135/80 276/134/80 275/37/80 65/40/80
f 67/43/81 277/42/81 278/203/81 68/204/81
f 70/143/82 280/142/82 279/41/82 69/44/82
f 71/47/83 281/46/83 282/205/83 72/206/83
f 74/151/84 284/150/84 283/45/84 73/48/84
f 75/51/85 285/50/85 286/207/85 76/208/85
f 78/159/86 288/158/86 287/49/86 77/52/86
f 79/55/87 289/54/87 290/209/87 80/210/87
f 82/167/88 292/166/88 291/53/88 81/56/88
f 83/59/89 293/58/89 294/211/89 84/212/89
f 86/175/90 296/174/90 295/57/90 85/60/90
f 87/63/91 297/62/91 298/213/91 88/214/91
f 14/215/92 15/216/92 91/217/92 92/218/92
f 27/219/92 28/220/92 108/221/92 109/222/92
f 13/223/92 14/215/92 92/218/92 93/224/92
f 26/225/92 27/219/92 109/222/92 110/226/92
f 12/227/92 13/223/92 93/224/92 94/228/92
f 25/229/92 26/225/92 110/226/92 111/230/92
f 11/231/92 12/227/92 94/228/92 95/232/92
f 24/233/92 25/229/92 111/230/92 112/234/92
f 10/235/92 11/231/92 95/232/92 96/236/92
f 23/237/92 24/233/92 112/234/92 113/238/92
f 9/239/92 10/235/92 96/236/92 97/240/92
f 22/241/92 23/237/92 113/238/92 114/242/92
f 8/243/92 9/239/92 97/240/92 98/244/92
f 21/245/92 22/241/92 114/242/92 115/246/92
f 7/247/92 8/243/92 98/244/92 99/248/92
f 20/249/92 21/245/92 115/246/92 116/250/92
f 6/251/92 7/247/92 99/248/92 100/252/92
f 19/253/92 20/249/92 116/250/92 117/254/92
f 5/255/92 6/251/92 100/252/92 101/256/92
f 18/257/92 19/253/92 117/254/92 118/258/92
f 4/259/92 5/255/92 101/256/92 102/260/92
f 17/261/92 18/257/92 118/258/92 119/262/92
f 30/263/92 1/264/92 105/265/92 106/266/92
f 3/267/92 4/259/92 102/260/92 103/268/92
f 16/269/92 17/261/92 119/262/92 120/270/92
f 29/271/92 30/263/92 106/266/92 107/272/92
f 2/273/92 3/267/92 103/268/92 104/274/92
f 15/216/92 16/269/92 120/270/92 91/217/92
f 28/220/92 29/271/92 107/272/92 108/221/92
f 1/264/92 2/273/92 104/274/92 105/265/92
f 88/214/93 298/213/93 211/275/93 1/276/93
f 84/212/94 294/211/94 239/277/94 29/278/94
f 80/210/95 290/209/95 237/279/95 27/280/95
f 76/208/96 286/207/96 235/281/96 25/282/96
f 72/206/97 282/205/97 233/283/97 23/284/97
f 68/204/98 278/203/98 231/285/98 21/286/98
f 64/202/99 274/201/99 229/287/99 19/288/99
f 60/200/100 270/199/100 227/289/100 17/290/100
f 56/198/101 266/197/101 225/291/101 15/292/101
f 52/196/102 262/195/102 223/293/102 13/294/102
f 48/194/103 258/193/103 221/295/103 11/296/103
f 44/192/104 254/191/104 219/297/104 9/298/104
f 40/190/105 250/189/105 217/299/105 7/300/105
f 36/188/106 246/187/106 215/301/106 5/302/106
f 32/186/107 242/185/107 213/303/107 3/304/107
f 29/305/108 239/306/108 240/307/108 30/308/108
f 27/309/109 237/310/109 238/311/109 28/312/109
f 25/313/110 235/314/110 236/315/110 26/316/110
f 23/317/111 233/318/111 234/319/111 24/320/111
f 21/321/112 231/322/112 232/323/112 22/324/112
f 19/325/113 229/326/113 230/327/113 20/328/113
f 17/329/114 227/330/114 228/331/114 18/332/114
f 15/333/115 225/334/115 226/335/115 16/336/115
f 13/337/116 223/338/116 224/339/116 14/340/116
f 11/341/117 221/342/117 222/343/117 12/344/117
f 9/345/118 219/346/118 220/347/118 10/348/118
f 7/349/119 217/350/119 218/351/119 8/352/119
f 5/353/120 215/354/120 216/355/120 6/356/120
f 3/357/121 213/358/121 214/359/121 4/360/121
f 1/361/122 211/362/122 212/363/122 2/364/122
f 19/253/123 18/257/123 66/130/42 64/129/42
f 21/245/124 20/249/124 70/138/45 68/137/45
f 23/237/125 22/241/125 74/146/48 72/145/48
f 25/229/126 24/233/126 78/154/51 76/153/51
f 27/219/127 26/225/127 82/162/54 80/161/54
f 29/271/128 28/220/128 86/170/57 84/169/57
f 1/264/129 30/263/129 90/178/60 88/177/60
f 3/267/130 2/273/130 34/66/18 32/65/18
f 5/255/131 4/259/131 38/74/21 36/73/21
f 7/247/132 6/251/132 42/82/24 40/81/24
f 9/239/133 8/243/133 46/90/27 44/89/27
f 11/231/134 10/235/134 50/98/30 48/97/30
f 13/223/135 12/227/135 54/106/33 52/105/33
f 15/216/136 14/215/136 58/114/36 56/113/36
f 17/261/137 16/269/137 62/122/39 60/121/39
f 114/365/138 113/366/139 159/367/139 160/368/138
f 127/369/140 128/370/141 204/371/141 203/372/140
f 113/366/139 112/373/142 158/374/142 159/367/139
f 126/375/143 127/369/140 203/372/140 202/376/143
f 112/373/142 111/377/144 157/378/144 158/374/142
f 125/379/145 126/375/143 202/376/143 201/380/145
f 111/377/144 110/381/146 156/382/146 157/378/144
f 124/383/147 125/379/145 201/380/145 200/384/147
f 110/381/146 109/385/148 155/386/148 156/382/146
f 123/387/149 124/383/147 200/384/147 199/388/149
f 105/389/150 104/390/151 180/391/151 151/392/150
f 109/385/148 108/393/152 154/394/152 155/386/148
f 122/395/153 123/387/149 199/388/149 198/396/153
f 104/390/151 103/397/154 179/398/154 180/391/151
f 108/393/152 107/399/155 153/400/155 154/394/152
f 121/401/156 122/395/153 198/396/153 197/402/156
f 103/397/154 102/403/157 178/404/157 179/398/154
f 107/399/155 106/405/158 152/406/158 153/400/155
f 150/407/159 121/401/156 197/402/156 196/408/159
f 102/403/157 101/409/160 177/410/160 178/404/157
f 106/411/158 105/389/150 151/392/150 152/412/158
f 149/413/161 150/407/159 196/408/159 195/414/161
f 101/409/160 100/415/162 176/416/162 177/410/160
f 148/417/163 149/413/161 195/414/161 194/418/163
f 100/415/162 99/419/164 175/420/164 176/416/162
f 147/421/165 148/417/163 194/418/163 193/422/165
f 99/419/164 98/423/166 174/424/166 175/420/164
f 146/425/167 147/421/165 193/422/165 192/426/167
f 98/423/166 97/427/168 173/428/168 174/424/166
f 145/429/169 146/425/167 192/426/167 191/430/169
f 336/431/170 126/432/170 125/433/171 335/434/171
f 353/435/172 143/436/172 142/437/173 352/438/173
f 337/439/174 127/440/174 126/432/170 336/431/170
f 354/441/175 144/442/175 143/436/172 353/435/172
f 338/443/176 128/444/176 127/440/174 337/439/174
f 355/445/177 145/446/177 144/442/175 354/441/175
f 339/447/178 129/448/178 128/444/176 338/443/176
f 356/449/179 146/450/179 145/446/177 355/445/177
f 340/451/180 130/452/180 129/448/178 339/447/178
f 357/453/181 147/454/181 146/450/179 356/449/179
f 341/455/182 131/456/182 130/452/180 340/451/180
f 358/457/183 148/458/183 147/454/181 357/453/181
f 342/459/184 132/460/184 131/456/182 341/455/182
f 359/461/185 149/462/185 148/458/183 358/457/183
f 343/463/186 133/464/186 132/460/184 342/459/184
f 360/465/187 150/466/187 149/462/185 359/461/185
f 347/467/188 137/468/188 136/469/1 346/470/1
f 344/471/189 134/472/189 133/464/186 343/463/186
f 331/473/190 121/474/190 150/466/187 360/465/187
f 348/475/191 138/476/191 137/468/188 347/467/188
f 345/4/2 135/3/2 134/472/189 344/471/189
f 332/477/192 122/478/192 121/474/190 331/473/190
f 349/479/193 139/480/193 138/476/191 348/475/191
f 333/481/194 123/482/194 122/478/192 332/477/192
f 350/483/195 140/484/195 139/480/193 349/479/193
f 334/485/196 124/486/196 123/482/194 333/481/194
f 351/487/197 141/488/197 140/484/195 350/483/195
f 335/434/171 125/433/171 124/486/196 334/485/196
f 352/438/173 142/437/173 141/488/197 351/487/197
f 163/489/92 162/490/92 192/426/92 193/422/92
f 179/398/92 178/404/92 208/491/92 209/492/92
f 164/493/92 163/489/92 193/422/92 194/418/92
f 180/391/92 179/398/92 209/492/92 210/494/92
f 167/495/92 166/496/92 196/408/92 197/402/92
f 165/497/92 164/493/92 194/418/92 195/414/92
f 151/392/92 180/391/92 210/494/92 181/498/92
f 152/412/92 151/392/92 181/498/92 182/499/92
f 168/500/92 167/495/92 197/402/92 198/396/92
f 166/496/92 165/497/92 195/414/92 196/408/92
f 153/400/92 152/406/92 182/501/92 183/502/92
f 169/503/92 168/500/92 198/396/92 199/388/92
f 154/394/92 153/400/92 183/502/92 184/504/92
f 170/505/92 169/503/92 199/388/92 200/384/92
f 155/386/92 154/394/92 184/504/92 185/506/92
f 171/507/92 170/505/92 200/384/92 201/380/92
f 156/382/92 155/386/92 185/506/92 186/508/92
f 172/509/92 171/507/92 201/380/92 202/376/92
f 157/378/92 156/382/92 186/508/92 187/510/92
f 173/428/92 172/509/92 202/376/92 203/372/92
f 158/374/92 157/378/92 187/510/92 188/511/92
f 174/424/92 173/428/92 203/372/92 204/371/92
f 159/367/92 158/374/92 188/511/92 189/512/92
f 175/420/92 174/424/92 204/371/92 205/513/92
f 160/368/92 159/367/92 189/512/92 190/514/92
f 176/416/92 175/420/92 205/513/92 206/515/92
f 161/516/92 160/368/92 190/514/92 191/430/92
f 177/410/92 176/416/92 206/515/92 207/517/92
f 162/490/92 161/516/92 191/430/92 192/426/92
f 178/404/92 177/410/92 207/517/92 208/491/92
f 128/370/141 129/518/198 205/513/198 204/371/141
f 115/519/199 114/365/138 160/368/138 161/516/199
f 129/518/198 130/520/200 206/515/200 205/513/198
f 116/521/201 115/519/199 161/516/199 162/490/201
f 130/520/200 131/522/202 207/517/202 206/515/200
f 117/523/203 116/521/201 162/490/201 163/489/203
f 131/522/202 132/524/204 208/491/204 207/517/202
f 135/525/205 136/526/206 182/499/206 181/498/205
f 118/527/207 117/523/203 163/489/203 164/493/207
f 132/524/204 133/528/208 209/492/208 208/491/204
f 136/529/206 137/530/209 183/502/209 182/501/206
f 119/531/210 118/527/207 164/493/207 165/497/210
f 133/528/208 134/532/211 210/494/211 209/492/208
f 137/530/209 138/533/212 184/504/212 183/502/209
f 120/534/213 119/531/210 165/497/210 166/496/213
f 134/532/211 135/525/205 181/498/205 210/494/211
f 138/533/212 139/535/214 185/506/214 184/504/212
f 91/536/215 120/534/213 166/496/213 167/495/215
f 139/535/214 140/537/216 186/508/216 185/506/214
f 92/538/217 91/536/215 167/495/215 168/500/217
f 140/537/216 141/539/218 187/510/218 186/508/216
f 93/540/219 92/538/217 168/500/217 169/503/219
f 141/539/218 142/541/220 188/511/220 187/510/218
f 94/542/221 93/540/219 169/503/219 170/505/221
f 142/541/220 143/543/222 189/512/222 188/511/220
f 95/544/223 94/542/221 170/505/221 171/507/223
f 143/543/222 144/545/224 190/514/224 189/512/222
f 96/546/225 95/544/223 171/507/223 172/509/225
f 144/545/224 145/429/169 191/430/169 190/514/224
f 97/427/168 96/546/225 172/509/225 173/428/168
f 242/547/226 241/548/227 243/549/227 244/550/226
f 246/551/228 245/552/229 247/553/229 248/554/228
f 250/555/230 249/556/231 251/557/231 252/558/230
f 254/559/232 253/560/233 255/561/233 256/562/232
f 258/563/234 257/564/235 259/565/235 260/566/234
f 262/567/236 261/568/237 263/569/237 264/570/236
f 266/571/238 265/572/239 267/573/239 268/574/238
f 270/575/240 269/576/241 271/577/241 272/578/240
f 274/579/242 273/580/243 275/581/243 276/582/242
f 278/583/244 277/584/245 279/585/245 280/586/244
f 282/587/246 281/588/247 283/589/247 284/590/246
f 286/591/248 285/592/249 287/593/249 288/594/248
f 290/595/250 289/596/251 291/597/251 292/598/250
f 294/599/252 293/600/253 295/601/253 296/602/252
f 298/603/254 297/604/255 299/605/255 300/606/254
f 224/607/256 302/608/256 301/609/256 225/610/256
f 237/611/256 319/612/256 318/613/256 238/614/256
f 223/615/256 303/616/256 302/608/256 224/607/256
f 236/617/256 320/618/256 319/612/256 237/611/256
f 222/619/256 304/620/256 303/616/256 223/615/256
f 235/621/256 321/622/256 320/618/256 236/617/256
f 221/623/256 305/624/256 304/620/256 222/619/256
f 234/625/256 322/626/256 321/622/256 235/621/256
f 220/627/256 306/628/256 305/624/256 221/623/256
f 233/629/256 323/630/256 322/626/256 234/625/256
f 219/631/256 307/632/256 306/628/256 220/627/256
f 232/633/256 324/634/256 323/630/256 233/629/256
f 218/635/256 308/636/256 307/632/256 219/631/256
f 231/637/256 325/638/256 324/634/256 232/633/256
f 217/639/256 309/640/256 308/636/256 218/635/256
f 230/641/256 326/642/256 325/638/256 231/637/256
f 216/643/256 310/644/256 309/640/256 217/639/256
f 229/645/256 327/646/256 326/642/256 230/641/256
f 215/647/256 311/648/256 310/644/256 216/643/256
f 228/649/256 328/650/256 327/646/256 229/645/256
f 214/651/256 312/652/256 311/648/256 215/647/256
f 227/653/256 329/654/256 328/650/256 228/649/256
f 240/655/256 316/656/256 315/657/256 211/658/256
f 213/659/256 313/660/256 312/652/256 214/651/256
f 226/661/256 330/662/256 329/654/256 227/653/256
f 239/663/256 317/664/256 316/656/256 240/655/256
f 212/665/256 314/666/256 313/660/256 213/659/256
f 225/610/256 301/609/256 330/662/256 226/661/256
f 238/614/256 318/613/256 317/664/256 239/663/256
f 211/658/256 315/657/256 314/666/256 212/665/256
f 229/645/257 274/579/242 276/582/242 228/649/257
f 231/637/258 278/583/244 280/586/244 230/641/258
f 233/629/259 282/587/246 284/590/246 232/633/259
f 235/621/260 286/591/248 288/594/248 234/625/260
f 237/611/261 290/595/250 292/598/250 236/617/261
f 239/663/262 294/599/252 296/602/252 238/614/262
f 211/658/263 298/603/254 300/606/254 240/655/263
f 213/659/264 242/547/226 244/550/226 212/665/264
f 215/647/265 246/551/228 248/554/228 214/651/265
f 217/639/266 250/555/230 252/558/230 216/643/266
f 219/631/267 254/559/232 256/562/232 218/635/267
f 221/623/268 258/563/234 260/566/234 220/627/268
f 223/615/269 262/567/236 264/570/236 222/619/269
f 225/610/270 266/571/238 268/574/238 224/607/270
f 227/653/271 270/575/240 272/578/240 226/661/271
f 324/667/272 370/668/272 369/669/273 323/670/273
f 337/671/274 413/672/274 414/673/275 338/674/275
f 323/670/273 369/669/273 368/675/276 322/676/276
f 336/677/277 412/678/277 413/672/274 337/671/274
f 322/676/276 368/675/276 367/679/278 321/680/278
f 335/681/279 411/682/279 412/678/277 336/677/277
f 321/680/278 367/679/278 366/683/280 320/684/280
f 334/685/281 410/686/281 411/682/279 335/681/279
f 320/684/280 366/683/280 365/687/282 319/688/282
f 333/689/283 409/690/283 410/686/281 334/685/281
f 315/691/284 361/692/284 390/693/285 314/694/285
f 319/688/282 365/687/282 364/695/286 318/696/286
f 332/697/287 408/698/287 409/690/283 333/689/283
f 314/694/285 390/693/285 389/699/288 313/700/288
f 318/696/286 364/695/286 363/701/289 317/702/289
f 331/703/290 407/704/290 408/698/287 332/697/287
f 313/700/288 389/699/288 388/705/291 312/706/291
f 317/702/289 363/701/289 362/707/292 316/708/292
f 360/709/293 406/710/293 407/704/290 331/703/290
f 312/706/291 388/705/291 387/711/294 311/712/294
f 316/713/292 362/714/292 361/692/284 315/691/284
f 359/715/295 405/716/295 406/710/293 360/709/293
f 311/712/294 387/711/294 386/717/296 310/718/296
f 358/719/297 404/720/297 405/716/295 359/715/295
f 310/718/296 386/717/296 385/721/298 309/722/298
f 357/723/299 403/724/299 404/720/297 358/719/297
f 309/722/298 385/721/298 384/725/300 308/726/300
f 356/727/301 402/728/301 403/724/299 357/723/299
f 308/726/300 384/725/300 383/729/302 307/730/302
f 355/731/303 401/732/303 402/728/301 356/727/301
f 373/733/256 403/724/256 402/728/256 372/734/256
f 389/699/256 419/735/256 418/736/256 388/705/256
f 374/737/256 404/720/256 403/724/256 373/733/256
f 390/693/256 420/738/256 419/735/256 389/699/256
f 377/739/256 407/704/256 406/710/256 376/740/256
f 375/741/256 405/716/256 404/720/256 374/737/256
f 361/692/256 391/742/256 420/738/256 390/693/256
f 362/714/256 392/743/256 391/742/256 361/692/256
f 378/744/256 408/698/256 407/704/256 377/739/256
f 376/740/256 406/710/256 405/716/256 375/741/256
f 363/701/256 393/745/256 392/746/256 362/707/256
f 379/747/256 409/690/256 408/698/256 378/744/256
f 364/695/256 394/748/256 393/745/256 363/701/256
f 380/749/256 410/686/256 409/690/256 379/747/256
f 365/687/256 395/750/256 394/748/256 364/695/256
f 381/751/256 411/682/256 410/686/256 380/749/256
f 366/683/256 396/752/256 395/750/256 365/687/256
f 382/753/256 412/678/256 411/682/256 381/751/256
f 367/679/256 397/754/256 396/752/256 366/683/256
f 383/729/256 413/672/256 412/678/256 382/753/256
f 368/675/256 398/755/256 397/754/256 367/679/256
f 384/725/256 414/673/256 413/672/256 383/729/256
f 369/669/256 399/756/256 398/755/256 368/675/256
f 385/721/256 415/757/256 414/673/256 384/725/256
f 370/668/256 400/758/256 399/756/256 369/669/256
f 386/717/256 416/759/256 415/757/256 385/721/256
f 371/760/256 401/732/256 400/758/256 370/668/256
f 387/711/256 417/761/256 416/759/256 386/717/256
f 372/734/256 402/728/256 401/732/256 371/760/256
f 388/705/256 418/736/256 417/761/256 387/711/256
f 338/674/275 414/673/275 415/757/304 339/762/304
f 325/763/305 371/760/305 370/668/272 324/667/272
f 339/762/304 415/757/304 416/759/306 340/764/306
f 326/765/307 372/734/307 371/760/305 325/763/305
f 340/764/306 416/759/306 417/761/308 341/766/308
f 327/767/309 373/733/309 372/734/307 326/765/307
f 341/766/308 417/761/308 418/736/310 342/768/310
f 345/769/311 391/742/311 392/743/312 346/770/312
f 328/771/313 374/737/313 373/733/309 327/767/309
f 342/768/310 418/736/310 419/735/314 343/772/314
f 346/773/312 392/746/312 393/745/315 347/774/315
f 329/775/316 375/741/316 374/737/313 328/771/313
f 343/772/314 419/735/314 420/738/317 344/776/317
f 347/774/315 393/745/315 394/748/318 348/777/318
f 330/778/319 376/740/319 375/741/316 329/775/316
f 344/776/317 420/738/317 391/742/311 345/769/311
f 348/777/318 394/748/318 395/750/320 349/779/320
f 301/780/321 377/739/321 376/740/319 330/778/319
f 349/779/320 395/750/320 396/752/322 350/781/322
f 302/782/323 378/744/323 377/739/321 301/780/321
f 350/781/322 396/752/322 397/754/324 351/783/324
f 303/784/325 379/747/325 378/744/323 302/782/323
f 351/783/324 397/754/324 398/755/326 352/785/326
f 304/786/327 380/749/327 379/747/325 303/784/325
f 352/785/326 398/755/326 399/756/328 353/787/328
f 305/788/329 381/751/329 380/749/327 304/786/327
f 353/787/328 399/756/328 400/758/330 354/789/330
f 306/790/331 382/753/331 381/751/329 305/788/329
f 354/789/330 400/758/330 401/732/303 355/731/303
f 307/730/302 383/729/302 382/753/331 306/790/331
f 90/183/332 300/182/332 299/61/332 89/64/332
