# Blender 4.0.2
# www.blender.org
o dart
v 0.000000 0.033706 -0.003909
v 0.000000 0.071821 -0.003909
v 0.001496 0.033706 -0.003612
v 0.001496 0.071821 -0.003612
v 0.002764 0.033706 -0.002764
v 0.002764 0.071821 -0.002764
v 0.003612 0.033706 -0.001496
v 0.003612 0.071821 -0.001496
v 0.003909 0.033706 0.000000
v 0.003909 0.071821 0.000000
v 0.003612 0.033706 0.001496
v 0.003612 0.071821 0.001496
v 0.002764 0.033706 0.002764
v 0.002764 0.071821 0.002764
v 0.001496 0.033706 0.003612
v 0.001496 0.071821 0.003612
v -0.000000 0.033706 0.003909
v -0.000000 0.071821 0.003909
v -0.001496 0.033706 0.003612
v -0.001496 0.071821 0.003612
v -0.002764 0.033706 0.002764
v -0.002764 0.071821 0.002764
v -0.003612 0.033706 0.001496
v -0.003612 0.071821 0.001496
v -0.003909 0.033706 0.000000
v -0.003909 0.071821 0.000000
v -0.003612 0.033706 -0.001496
v -0.003612 0.071821 -0.001496
v -0.002764 0.033706 -0.002764
v -0.002764 0.071821 -0.002764
v -0.001496 0.033706 -0.003612
v -0.001496 0.071821 -0.003612
v 0.000000 0.026832 -0.000757
v 0.000290 0.026832 -0.000699
v 0.000535 0.026832 -0.000535
v 0.000699 0.026832 -0.000290
v 0.000757 0.026832 0.000000
v 0.000699 0.026832 0.000290
v 0.000535 0.026832 0.000535
v 0.000290 0.026832 0.000699
v 0.000000 0.026832 0.000757
v -0.000290 0.026832 0.000699
v -0.000535 0.026832 0.000535
v -0.000699 0.026832 0.000290
v -0.000757 0.026832 0.000000
v -0.000699 0.026832 -0.000290
v -0.000535 0.026832 -0.000535
v -0.000290 0.026832 -0.000699
v -0.002357 0.030448 0.002357
v -0.001275 0.030448 0.003079
v -0.001275 0.030448 -0.003079
v -0.002357 0.030448 -0.002357
v 0.003079 0.030448 -0.001275
v 0.002357 0.030448 -0.002357
v -0.000000 0.030448 0.003333
v 0.001275 0.030448 0.003079
v 0.001275 0.030448 -0.003079
v 0.000000 0.030448 -0.003333
v -0.003079 0.030448 -0.001275
v -0.003333 0.030448 0.000000
v 0.002357 0.030448 0.002357
v 0.003079 0.030448 0.001275
v -0.003079 0.030448 0.001275
v 0.003333 0.030448 0.000000
v 0.000606 0.086465 -0.001463
v 0.000000 0.086465 -0.001583
v 0.001120 0.086465 -0.001120
v 0.001463 0.086465 -0.000606
v 0.001583 0.086465 0.000000
v 0.001463 0.086465 0.000606
v 0.001120 0.086465 0.001120
v 0.000606 0.086465 0.001463
v -0.000000 0.086465 0.001583
v -0.000606 0.086465 0.001463
v -0.001120 0.086465 0.001120
v -0.001463 0.086465 0.000606
v -0.001583 0.086465 0.000000
v -0.001463 0.086465 -0.000606
v -0.001120 0.086465 -0.001120
v -0.000606 0.086465 -0.001463
v 0.000606 0.106608 -0.001463
v 0.000000 0.106608 -0.001583
v 0.001120 0.106608 -0.001120
v 0.001463 0.106608 -0.000606
v 0.001583 0.106608 0.000000
v 0.001463 0.106608 0.000606
v 0.001120 0.106608 0.001120
v 0.000606 0.106608 0.001463
v -0.000000 0.106608 0.001583
v -0.000606 0.106608 0.001463
v -0.001120 0.106608 0.001120
v -0.001463 0.106608 0.000606
v -0.001583 0.106608 0.000000
v -0.001463 0.106608 -0.000606
v -0.001120 0.106608 -0.001120
v -0.000606 0.106608 -0.001463
v 0.000825 0.110254 -0.001991
v 0.000000 0.110254 -0.002155
v 0.001524 0.110254 -0.001524
v 0.001991 0.110254 -0.000825
v 0.002155 0.110254 0.000000
v 0.001991 0.110254 0.000825
v 0.001524 0.110254 0.001524
v 0.000825 0.110254 0.001991
v 0.000000 0.110254 0.002155
v -0.000825 0.110254 0.001991
v -0.001524 0.110254 0.001524
v -0.001991 0.110254 0.000825
v -0.002155 0.110254 0.000000
v -0.001991 0.110254 -0.000825
v -0.001524 0.110254 -0.001524
v -0.000825 0.110254 -0.001991
v 0.000503 0.118047 -0.001214
v 0.000000 0.118047 -0.001314
v 0.000929 0.118047 -0.000929
v 0.001214 0.118047 -0.000503
v 0.001314 0.118047 0.000000
v 0.001214 0.118047 0.000503
v 0.000929 0.118047 0.000929
v 0.000503 0.118047 0.001214
v 0.000000 0.118047 0.001314
v -0.000503 0.118047 0.001214
v -0.000929 0.118047 0.000929
v -0.001214 0.118047 0.000503
v -0.001314 0.118047 0.000000
v -0.001214 0.118047 -0.000503
v -0.000929 0.118047 -0.000929
v -0.000503 0.118047 -0.001214
v 0.000000 0.118468 0.000000
v 0.000619 0.118396 0.000000
v -0.000619 0.118396 0.000000
v -0.000619 0.118316 0.000552
v 0.000000 0.118380 0.000552
v 0.000619 0.118316 0.000552
v -0.000619 0.118316 -0.000552
v 0.000000 0.118380 -0.000552
v 0.000619 0.118316 -0.000552
v 0.000000 0.027152 -0.001499
v 0.000000 0.027920 -0.002191
v 0.000838 0.027920 -0.002024
v 0.000574 0.027152 -0.001385
v 0.001549 0.027920 -0.001549
v 0.001060 0.027152 -0.001060
v 0.002024 0.027920 -0.000838
v 0.001385 0.027152 -0.000574
v 0.002191 0.027920 0.000000
v 0.001499 0.027152 0.000000
v 0.002024 0.027920 0.000838
v 0.001385 0.027152 0.000574
v 0.001549 0.027920 0.001549
v 0.001060 0.027152 0.001060
v 0.000838 0.027920 0.002024
v 0.000574 0.027152 0.001385
v 0.000000 0.027920 0.002191
v 0.000000 0.027152 0.001499
v -0.000838 0.027920 0.002024
v -0.000574 0.027152 0.001385
v -0.001549 0.027920 0.001549
v -0.001060 0.027152 0.001060
v -0.002024 0.027920 0.000838
v -0.001385 0.027152 0.000574
v -0.002191 0.027920 0.000000
v -0.001499 0.027152 0.000000
v -0.002024 0.027920 -0.000838
v -0.001385 0.027152 -0.000574
v -0.001549 0.027920 -0.001549
v -0.001060 0.027152 -0.001060
v -0.000838 0.027920 -0.002024
v -0.000574 0.027152 -0.001385
v -0.000000 0.006672 -0.000813
v 0.000000 0.026953 -0.001003
v 0.000575 0.006672 -0.000575
v 0.000709 0.026953 -0.000709
v 0.000813 0.006672 0.000000
v 0.001003 0.026953 0.000000
v 0.000575 0.006672 0.000575
v 0.000709 0.026953 0.000709
v -0.000000 0.006672 0.000813
v -0.000000 0.026953 0.001003
v -0.000575 0.006672 0.000575
v -0.000709 0.026953 0.000709
v -0.000813 0.006672 0.000000
v -0.001003 0.026953 0.000000
v -0.000575 0.006672 -0.000575
v -0.000709 0.026953 -0.000709
v 0.000000 0.000000 0.000000
v 0.000212 0.112283 0.000000
v 0.000212 0.149676 0.000000
v -0.000212 0.112283 0.000000
v -0.000212 0.149676 0.000000
v 0.000212 0.125614 -0.014199
v 0.000212 0.129290 -0.016000
v 0.000212 0.127391 -0.015473
v -0.000212 0.129290 -0.016000
v 0.000212 0.125614 0.014199
v 0.000212 0.129290 0.016000
v 0.000212 0.127391 0.015473
v -0.000212 0.129290 0.016000
v -0.000212 0.125614 0.014199
v -0.000212 0.127391 0.015473
v -0.000212 0.125602 0.000000
v -0.000212 0.129290 0.000000
v -0.000212 0.127446 0.000000
v 0.000212 0.125602 0.000000
v 0.000212 0.129290 0.000000
v 0.000212 0.127446 0.000000
v -0.000212 0.138795 0.016000
v -0.000212 0.144688 0.011987
v -0.000212 0.140518 0.015695
v -0.000212 0.142242 0.014825
v -0.000212 0.143707 0.013523
v 0.000212 0.144688 0.011987
v 0.000212 0.138795 0.016000
v 0.000212 0.143707 0.013523
v 0.000212 0.142242 0.014825
v 0.000212 0.140518 0.015695
v -0.000212 0.125614 -0.014199
v -0.000212 0.127391 -0.015473
v -0.000212 0.138795 -0.016000
v -0.000212 0.144688 -0.011987
v -0.000212 0.140518 -0.015695
v -0.000212 0.142242 -0.014825
v -0.000212 0.143707 -0.013523
v 0.000212 0.144688 -0.011987
v 0.000212 0.138795 -0.016000
v 0.000212 0.143707 -0.013523
v 0.000212 0.142242 -0.014825
v 0.000212 0.140518 -0.015695
v -0.000212 0.138795 0.000000
v -0.000212 0.140518 0.000000
v -0.000212 0.142242 0.000000
v -0.000212 0.143707 0.000000
v -0.000212 0.144688 0.000000
v 0.000212 0.138795 0.000000
v 0.000212 0.140518 0.000000
v 0.000212 0.142242 0.000000
v 0.000212 0.143707 0.000000
v 0.000212 0.144688 0.000000
v 0.000000 0.112283 -0.000212
v 0.000000 0.149880 -0.000212
v 0.000000 0.112283 0.000212
v 0.000000 0.149880 0.000212
v -0.014199 0.125614 -0.000212
v -0.016000 0.129290 -0.000212
v -0.015473 0.127391 -0.000212
v -0.016000 0.129290 0.000212
v 0.014199 0.125614 -0.000212
v 0.016000 0.129290 -0.000212
v 0.015473 0.127391 -0.000212
v 0.016000 0.129290 0.000212
v 0.014199 0.125614 0.000212
v 0.015473 0.127391 0.000212
v 0.000000 0.125602 0.000212
v 0.000000 0.129290 0.000212
v 0.000000 0.127446 0.000212
v 0.000000 0.125602 -0.000212
v 0.000000 0.129290 -0.000212
v 0.000000 0.127446 -0.000212
v 0.016000 0.138795 0.000212
v 0.011987 0.144688 0.000212
v 0.015695 0.140518 0.000212
v 0.014825 0.142242 0.000212
v 0.013523 0.143707 0.000212
v 0.011987 0.144688 -0.000212
v 0.016000 0.138795 -0.000212
v 0.013523 0.143707 -0.000212
v 0.014825 0.142242 -0.000212
v 0.015695 0.140518 -0.000212
v -0.014199 0.125614 0.000212
v -0.015473 0.127391 0.000212
v -0.016000 0.138795 0.000212
v -0.011987 0.144688 0.000212
v -0.015695 0.140518 0.000212
v -0.014825 0.142242 0.000212
v -0.013523 0.143707 0.000212
v -0.011987 0.144688 -0.000212
v -0.016000 0.138795 -0.000212
v -0.013523 0.143707 -0.000212
v -0.014825 0.142242 -0.000212
v -0.015695 0.140518 -0.000212
v 0.000000 0.138795 0.000212
v 0.000000 0.140518 0.000212
v 0.000000 0.142242 0.000212
v 0.000000 0.143707 0.000212
v 0.000000 0.144688 0.000212
v 0.000000 0.138795 -0.000212
v 0.000000 0.140518 -0.000212
v 0.000000 0.142242 -0.000212
v 0.000000 0.143707 -0.000212
v 0.000000 0.144688 -0.000212
vn -0.0000 -0.0866 -0.9962
vn -0.0000 -0.0000 -1.0000
vn 0.3827 -0.0000 -0.9239
vn 0.3812 -0.0866 -0.9204
vn 0.7071 -0.0000 -0.7071
vn 0.7045 -0.0866 -0.7045
vn 0.9239 -0.0000 -0.3827
vn 0.9204 -0.0866 -0.3812
vn 1.0000 -0.0000 -0.0000
vn 0.9962 -0.0866 -0.0000
vn 0.9239 -0.0000 0.3827
vn 0.9204 -0.0866 0.3812
vn 0.7071 -0.0000 0.7071
vn 0.7045 -0.0866 0.7045
vn 0.3827 -0.0000 0.9239
vn 0.3812 -0.0866 0.9204
vn -0.0000 -0.0000 1.0000
vn -0.0000 -0.0866 0.9962
vn -0.3827 -0.0000 0.9239
vn -0.3812 -0.0866 0.9204
vn -0.7071 -0.0000 0.7071
vn -0.7045 -0.0866 0.7045
vn -0.9239 -0.0000 0.3827
vn -0.9204 -0.0866 0.3812
vn -1.0000 -0.0000 -0.0000
vn -0.9962 -0.0866 -0.0000
vn -0.9239 -0.0000 -0.3827
vn -0.9204 -0.0866 -0.3812
vn -0.7071 -0.0000 -0.7071
vn -0.7045 -0.0866 -0.7045
vn 0.9124 0.1569 0.3779
vn 0.9876 0.1569 -0.0000
vn -0.3827 -0.0000 -0.9239
vn -0.3812 -0.0866 -0.9204
vn -0.3658 -0.9183 0.1515
vn -0.2800 -0.9183 0.2800
vn -0.4242 -0.8001 0.4242
vn -0.5543 -0.8001 0.2296
vn 0.3959 -0.9183 -0.0000
vn 0.3658 -0.9183 -0.1515
vn 0.5543 -0.8001 -0.2296
vn 0.5999 -0.8001 -0.0000
vn -0.1515 -0.9183 0.3658
vn -0.0000 -0.9183 0.3959
vn -0.0000 -0.8001 0.5999
vn -0.2296 -0.8001 0.5543
vn -0.0000 -0.9183 -0.3959
vn -0.1515 -0.9183 -0.3658
vn -0.2296 -0.8001 -0.5543
vn -0.0000 -0.8001 -0.5999
vn -0.2800 -0.9183 -0.2800
vn -0.3658 -0.9183 -0.1515
vn -0.5543 -0.8001 -0.2296
vn -0.4242 -0.8001 -0.4242
vn 0.1515 -0.9183 0.3658
vn 0.2800 -0.9183 0.2800
vn 0.4242 -0.8001 0.4242
vn 0.2296 -0.8001 0.5543
vn -0.3959 -0.9183 -0.0000
vn -0.5999 -0.8001 -0.0000
vn -0.0000 -0.2910 -0.9567
vn 0.3661 -0.2910 -0.8839
vn 0.3225 -0.5384 -0.7785
vn -0.0000 -0.5384 -0.8427
vn 0.3658 -0.9183 0.1515
vn 0.5542 -0.8001 0.2296
vn 0.2800 -0.9183 -0.2800
vn 0.4242 -0.8001 -0.4242
vn 0.8839 -0.2910 0.3661
vn 0.9567 -0.2910 -0.0000
vn -0.9567 -0.2910 -0.0000
vn -0.8839 -0.2910 0.3661
vn 0.3661 -0.2910 0.8839
vn 0.6765 -0.2910 0.6765
vn 0.6765 -0.2910 -0.6765
vn -0.6765 -0.2910 -0.6765
vn -0.8839 -0.2910 -0.3661
vn -0.3661 -0.2910 0.8839
vn -0.0000 -0.2910 0.9567
vn 0.8839 -0.2910 -0.3661
vn -0.3661 -0.2910 -0.8839
vn -0.6765 -0.2910 0.6765
vn -0.6984 0.1569 0.6984
vn -0.3779 0.1569 0.9124
vn -0.3779 0.1569 -0.9124
vn -0.6984 0.1569 -0.6984
vn 0.9124 0.1569 -0.3779
vn 0.6984 0.1569 -0.6984
vn -0.0000 0.1569 0.9876
vn 0.3779 0.1569 0.9124
vn -0.9124 0.1569 -0.3779
vn -0.9876 0.1569 -0.0000
vn 0.3779 0.1569 -0.9124
vn -0.0000 0.1569 -0.9876
vn 0.6984 0.1569 0.6984
vn -0.9124 0.1569 0.3779
vn -0.9127 -0.1549 0.3781
vn -0.6986 -0.1549 0.6986
vn 0.3805 0.1073 -0.9185
vn -0.0000 0.1073 -0.9942
vn 0.9879 -0.1549 -0.0000
vn 0.9127 -0.1549 -0.3781
vn -0.9879 -0.1549 -0.0000
vn 0.9127 -0.1549 0.3781
vn -0.9127 -0.1549 -0.3781
vn 0.6986 -0.1549 0.6986
vn -0.6986 -0.1549 -0.6986
vn 0.3781 -0.1549 0.9127
vn -0.3781 -0.1549 -0.9127
vn -0.0000 -0.1549 0.9879
vn 0.3781 -0.1549 -0.9127
vn -0.0000 -0.1549 -0.9879
vn -0.3781 -0.1549 0.9127
vn 0.6986 -0.1549 -0.6986
vn -0.2515 0.9345 0.2521
vn -0.4045 0.8943 0.1913
vn -0.3423 0.8750 0.3424
vn -0.1687 0.9092 0.3806
vn -0.3805 0.1073 -0.9185
vn -0.3805 0.1073 0.9185
vn -0.0000 0.1073 0.9942
vn 0.7030 0.1073 -0.7030
vn -0.7030 0.1073 0.7030
vn 0.9185 0.1073 -0.3805
vn -0.9185 0.1073 0.3805
vn 0.9942 0.1073 -0.0000
vn -0.9942 0.1073 -0.0000
vn 0.9185 0.1073 0.3805
vn -0.9185 0.1073 -0.3805
vn 0.7030 0.1073 0.7030
vn -0.7030 0.1073 -0.7030
vn 0.3805 0.1073 0.9185
vn 0.2515 0.9345 0.2521
vn -0.0000 0.9621 0.2728
vn -0.0000 0.9185 0.3955
vn 0.1687 0.9092 0.3806
vn -0.2515 0.9345 -0.2521
vn -0.4045 0.8943 -0.1913
vn -0.4356 0.9001 -0.0000
vn -0.2725 0.9622 -0.0000
vn 0.2515 0.9345 -0.2521
vn -0.0000 0.9621 -0.2728
vn -0.0000 1.0000 -0.0000
vn 0.2725 0.9622 -0.0000
vn 0.4045 0.8943 0.1913
vn 0.3423 0.8750 0.3424
vn 0.4045 0.8943 -0.1913
vn 0.4356 0.9001 -0.0000
vn 0.1687 0.9092 -0.3806
vn -0.0000 0.9185 -0.3955
vn -0.1687 0.9092 -0.3806
vn -0.3423 0.8750 -0.3424
vn 0.3423 0.8750 -0.3424
vn -0.3225 -0.5384 -0.7785
vn 0.5959 -0.5384 -0.5959
vn 0.7785 -0.5384 -0.3225
vn 0.8427 -0.5384 -0.0000
vn 0.7785 -0.5384 0.3225
vn 0.5959 -0.5384 0.5959
vn 0.3225 -0.5384 0.7785
vn -0.0000 -0.5384 0.8427
vn -0.3225 -0.5384 0.7785
vn -0.5959 -0.5384 0.5959
vn -0.7785 -0.5384 0.3225
vn -0.8427 -0.5384 -0.0000
vn -0.7785 -0.5384 -0.3225
vn -0.5959 -0.5384 -0.5959
vn 0.1515 -0.9183 -0.3658
vn 0.2296 -0.8001 -0.5543
vn -0.0000 -0.0644 -0.9979
vn -0.0000 -0.0094 -1.0000
vn 0.7071 -0.0094 -0.7071
vn 0.7056 -0.0644 -0.7056
vn 1.0000 -0.0094 -0.0000
vn 0.9979 -0.0644 -0.0000
vn 0.7071 -0.0094 0.7071
vn 0.7056 -0.0644 0.7056
vn -0.0000 -0.0094 1.0000
vn -0.0000 -0.0644 0.9979
vn -0.7071 -0.0094 0.7071
vn -0.7056 -0.0644 0.7056
vn -1.0000 -0.0094 -0.0000
vn -0.9979 -0.0644 -0.0000
vn -0.7071 -0.0094 -0.7071
vn -0.7056 -0.0644 -0.7056
vn -0.0000 -1.0000 -0.0000
vn -0.0000 -0.4317 -0.9020
vn -0.0000 -0.6589 -0.7522
vn -0.0000 -0.6589 0.7522
vn -0.0000 -0.7291 0.6845
vn -0.0000 -0.1351 -0.9908
vn -0.0000 0.8863 -0.4631
vn -0.0000 0.9233 -0.3842
vn -0.0000 0.8863 0.4631
vn -0.0000 0.9233 0.3842
vn -0.0000 -0.1351 0.9908
vn -0.0000 -0.4317 0.9020
vn -0.0000 0.7607 -0.6491
vn -0.0000 -0.7291 -0.6845
vn -0.0000 0.7607 0.6491
vn -0.0000 0.5621 0.8271
vn -0.0000 0.3159 0.9488
vn -0.0000 0.0877 0.9962
vn -0.0000 0.5621 -0.8271
vn -0.0000 0.3159 -0.9488
vn -0.0000 0.0877 -0.9962
vn -0.9020 -0.4317 -0.0000
vn -0.7522 -0.6589 -0.0000
vn 0.7522 -0.6589 -0.0000
vn 0.6845 -0.7291 -0.0000
vn -0.9908 -0.1351 -0.0000
vn -0.4695 0.8829 -0.0000
vn -0.3975 0.9176 -0.0000
vn 0.4695 0.8829 -0.0000
vn 0.3975 0.9176 -0.0000
vn 0.9908 -0.1351 -0.0000
vn 0.9020 -0.4317 -0.0000
vn -0.6491 0.7607 -0.0000
vn -0.6845 -0.7291 -0.0000
vn 0.6491 0.7607 -0.0000
vn 0.8271 0.5621 -0.0000
vn 0.9488 0.3159 -0.0000
vn 0.9962 0.0877 -0.0000
vn -0.8271 0.5621 -0.0000
vn -0.9488 0.3159 -0.0000
vn -0.9962 0.0877 -0.0000
vt 0.918200 0.045087
vt 0.506784 0.045087
vt 0.506784 0.035037
vt 0.918200 0.035037
vt 0.506784 0.024986
vt 0.918200 0.024986
vt 0.506784 0.014936
vt 0.918200 0.014936
vt 0.506784 0.004885
vt 0.918200 0.004885
vt 0.918199 0.165694
vt 0.506784 0.165694
vt 0.506784 0.155643
vt 0.918199 0.155643
vt 0.506784 0.145593
vt 0.918199 0.145593
vt 0.506784 0.135542
vt 0.918199 0.135542
vt 0.506784 0.125492
vt 0.918199 0.125492
vt 0.506784 0.115441
vt 0.918199 0.115441
vt 0.506784 0.105391
vt 0.918199 0.105391
vt 0.506784 0.095340
vt 0.918199 0.095340
vt 0.506784 0.085289
vt 0.918199 0.085290
vt 0.506784 0.075239
vt 0.918199 0.075239
vt 0.506784 0.065188
vt 0.918199 0.065188
vt 0.346738 0.165694
vt 0.346738 0.155643
vt 0.506784 0.055138
vt 0.918199 0.055138
vt 0.026854 0.188387
vt 0.025786 0.185761
vt 0.032341 0.181339
vt 0.034603 0.186807
vt 0.012649 0.188308
vt 0.012633 0.191146
vt 0.004884 0.192726
vt 0.004884 0.186812
vt 0.023796 0.183744
vt 0.021188 0.182644
vt 0.022691 0.174888
vt 0.028158 0.177153
vt 0.018299 0.196889
vt 0.021128 0.196906
vt 0.022713 0.204641
vt 0.016796 0.204645
vt 0.023745 0.195835
vt 0.025751 0.193841
vt 0.032347 0.198182
vt 0.028174 0.202370
vt 0.018360 0.182628
vt 0.015742 0.183698
vt 0.011313 0.177163
vt 0.016774 0.174892
vt 0.026838 0.191225
vt 0.034603 0.192721
vt 0.953912 0.045087
vt 0.953912 0.035037
vt 0.983854 0.035037
vt 0.983854 0.045087
vt 0.013736 0.185692
vt 0.007140 0.181351
vt 0.013701 0.193772
vt 0.007146 0.198194
vt 0.953912 0.155643
vt 0.953912 0.165694
vt 0.953912 0.085290
vt 0.953912 0.095340
vt 0.953912 0.135542
vt 0.953912 0.145593
vt 0.953912 0.024986
vt 0.953912 0.065188
vt 0.953912 0.075239
vt 0.953912 0.115441
vt 0.953912 0.125492
vt 0.953912 0.004885
vt 0.953912 0.014936
vt 0.953912 0.055138
vt 0.953912 0.105391
vt 0.346738 0.145593
vt 0.129319 0.155643
vt 0.129319 0.145593
vt 0.346738 0.115441
vt 0.346738 0.105391
vt 0.346738 0.065188
vt 0.346738 0.055138
vt 0.346738 0.024986
vt 0.346738 0.014936
vt 0.346738 0.135542
vt 0.346738 0.125492
vt 0.346738 0.085289
vt 0.346738 0.075239
vt 0.346738 0.045087
vt 0.346738 0.035037
vt 0.346738 0.095340
vt 0.346738 0.004885
vt 0.129319 0.095340
vt 0.129319 0.105390
vt 0.089484 0.105390
vt 0.089484 0.095340
vt 0.129319 0.075239
vt 0.129319 0.065188
vt 0.129319 0.135542
vt 0.129319 0.055138
vt 0.129319 0.125492
vt 0.129319 0.045087
vt 0.129319 0.035037
vt 0.129319 0.115441
vt 0.129319 0.024986
vt 0.129319 0.014936
vt 0.129319 0.004885
vt 0.129319 0.085289
vt 0.129319 0.165694
vt 0.089484 0.035037
vt 0.089484 0.045087
vt 0.004881 0.045087
vt 0.004881 0.035037
vt 0.089484 0.014936
vt 0.089484 0.004885
vt 0.089484 0.085289
vt 0.089484 0.165694
vt 0.089484 0.155643
vt 0.089484 0.075239
vt 0.089484 0.145593
vt 0.089484 0.065188
vt 0.089484 0.135542
vt 0.089484 0.055138
vt 0.089484 0.125492
vt 0.089484 0.115441
vt 0.089484 0.024986
vt 0.113170 0.182467
vt 0.113004 0.175957
vt 0.117398 0.178896
vt 0.120344 0.183281
vt 0.004881 0.055138
vt 0.004881 0.125492
vt 0.004881 0.115441
vt 0.004881 0.024986
vt 0.004881 0.105390
vt 0.004881 0.014936
vt 0.004881 0.095340
vt 0.004881 0.004885
vt 0.004881 0.085289
vt 0.004881 0.165694
vt 0.004881 0.155643
vt 0.004881 0.075239
vt 0.004881 0.145593
vt 0.004881 0.065188
vt 0.004881 0.135542
vt 0.113170 0.194386
vt 0.113134 0.188427
vt 0.121348 0.188427
vt 0.120344 0.193573
vt 0.102549 0.182467
vt 0.102715 0.175957
vt 0.107860 0.174956
vt 0.107860 0.182578
vt 0.102549 0.194386
vt 0.102585 0.188427
vt 0.107860 0.188427
vt 0.107860 0.194275
vt 0.113004 0.200896
vt 0.117398 0.197957
vt 0.102715 0.200896
vt 0.107860 0.201897
vt 0.095375 0.193573
vt 0.094371 0.188427
vt 0.095375 0.183281
vt 0.098322 0.178896
vt 0.098322 0.197957
vt 0.983854 0.055138
vt 0.983854 0.024986
vt 0.983854 0.014936
vt 0.983854 0.004885
vt 0.983854 0.155643
vt 0.983854 0.165694
vt 0.983854 0.145593
vt 0.983854 0.135542
vt 0.983854 0.125492
vt 0.983854 0.115441
vt 0.983854 0.105391
vt 0.983854 0.095340
vt 0.983854 0.085290
vt 0.983854 0.075239
vt 0.983854 0.065188
vt 0.015691 0.195789
vt 0.011329 0.202380
vt 0.995004 0.035037
vt 0.995004 0.045087
vt 0.995004 0.024986
vt 0.995004 0.014936
vt 0.995004 0.004885
vt 0.995004 0.155643
vt 0.995004 0.165694
vt 0.995004 0.145593
vt 0.995004 0.135542
vt 0.995004 0.125492
vt 0.995004 0.115441
vt 0.995004 0.105391
vt 0.995004 0.095340
vt 0.995004 0.085289
vt 0.995004 0.075239
vt 0.995004 0.065188
vt 0.995004 0.055138
vt 0.719407 0.215901
vt 0.918917 0.215901
vt 0.918917 0.222738
vt 0.719407 0.222738
vt 0.918917 0.229574
vt 0.719407 0.229574
vt 0.719407 0.174880
vt 0.918917 0.174880
vt 0.918917 0.181717
vt 0.719407 0.181717
vt 0.918917 0.188553
vt 0.719407 0.188553
vt 0.918917 0.195390
vt 0.719407 0.195390
vt 0.918917 0.202227
vt 0.719407 0.202227
vt 0.918917 0.209064
vt 0.719407 0.209064
vt 0.064506 0.196978
vt 0.073657 0.219069
vt 0.055356 0.219069
vt 0.086598 0.206128
vt 0.042415 0.206129
vt 0.042415 0.187827
vt 0.073657 0.174887
vt 0.086598 0.187827
vt 0.055356 0.174887
vt 0.318237 0.770265
vt 0.339744 0.770265
vt 0.339744 0.774432
vt 0.318237 0.774432
vt 0.384766 0.332264
vt 0.515778 0.332264
vt 0.515889 0.471929
vt 0.341068 0.784586
vt 0.341068 0.780418
vt 0.532694 0.780418
vt 0.532694 0.784586
vt 0.552052 0.332264
vt 0.533915 0.332264
vt 0.533371 0.180070
vt 0.552052 0.174880
vt 0.326608 0.743932
vt 0.195483 0.604265
vt 0.326497 0.604265
vt 0.515889 0.192598
vt 0.298848 0.770265
vt 0.298848 0.774432
vt 0.326608 0.464598
vt 0.131947 0.770265
vt 0.131947 0.774432
vt 0.004235 0.774432
vt 0.004235 0.770265
vt 0.703510 0.332264
vt 0.752572 0.332264
vt 0.703510 0.450175
vt 0.514231 0.486352
vt 0.563293 0.604265
vt 0.514231 0.604265
vt 0.133214 0.784586
vt 0.005467 0.784586
vt 0.005467 0.780418
vt 0.133214 0.780418
vt 0.514231 0.722178
vt 0.703510 0.214352
vt 0.300161 0.784586
vt 0.300161 0.780418
vt 0.319555 0.780418
vt 0.319555 0.784586
vt 0.552052 0.489647
vt 0.533371 0.484458
vt 0.344090 0.756460
vt 0.344634 0.604265
vt 0.362771 0.761650
vt 0.362771 0.604265
vt 0.362771 0.446880
vt 0.344090 0.452070
vt 0.149873 0.770265
vt 0.149873 0.774432
vt 0.531318 0.770265
vt 0.531318 0.774432
vt 0.151145 0.780418
vt 0.151145 0.784586
vt 0.170424 0.780418
vt 0.170424 0.784586
vt 0.189429 0.780418
vt 0.189429 0.784586
vt 0.206637 0.780418
vt 0.206637 0.784586
vt 0.169147 0.770265
vt 0.169147 0.774432
vt 0.188147 0.770265
vt 0.188147 0.774432
vt 0.205350 0.770265
vt 0.205350 0.774432
vt 0.456269 0.604265
vt 0.456269 0.761650
vt 0.456269 0.446880
vt 0.473209 0.604265
vt 0.473209 0.758645
vt 0.473209 0.449885
vt 0.490172 0.604265
vt 0.490172 0.750089
vt 0.490172 0.458442
vt 0.504577 0.604265
vt 0.504577 0.737283
vt 0.504577 0.471247
vt 0.645549 0.174880
vt 0.645549 0.332264
vt 0.645549 0.489647
vt 0.662489 0.177885
vt 0.662489 0.332264
vt 0.662488 0.486642
vt 0.679452 0.186442
vt 0.679452 0.332264
vt 0.679452 0.478086
vt 0.693857 0.199247
vt 0.693857 0.332264
vt 0.693857 0.465280
vt 0.320475 0.800809
vt 0.341976 0.800809
vt 0.341976 0.804974
vt 0.320475 0.804974
vt 0.006338 0.332265
vt 0.137348 0.332265
vt 0.137459 0.471929
vt 0.197113 0.790670
vt 0.197113 0.794838
vt 0.005487 0.794838
vt 0.005487 0.790670
vt 0.173622 0.332265
vt 0.155485 0.332265
vt 0.154941 0.180073
vt 0.173622 0.174884
vt 0.755738 0.689930
vt 0.624615 0.550264
vt 0.755627 0.550264
vt 0.137460 0.192601
vt 0.301092 0.800809
vt 0.301092 0.804974
vt 0.755738 0.410599
vt 0.134243 0.800809
vt 0.134243 0.804974
vt 0.005784 0.804974
vt 0.005784 0.800809
vt 0.325079 0.332265
vt 0.376154 0.332265
vt 0.325079 0.450175
vt 0.943359 0.432353
vt 0.994435 0.550264
vt 0.943359 0.550265
vt 0.404967 0.790670
vt 0.533502 0.790670
vt 0.533502 0.794838
vt 0.404967 0.794838
vt 0.943359 0.668176
vt 0.325079 0.214355
vt 0.238020 0.790670
vt 0.238020 0.794838
vt 0.218626 0.794838
vt 0.218626 0.790670
vt 0.173622 0.489647
vt 0.154941 0.484458
vt 0.773220 0.702458
vt 0.773764 0.550265
vt 0.791901 0.707648
vt 0.791901 0.550265
vt 0.791901 0.392882
vt 0.773220 0.398071
vt 0.152164 0.800809
vt 0.152164 0.804974
vt 0.533489 0.800809
vt 0.533489 0.804974
vt 0.387036 0.794838
vt 0.387036 0.790670
vt 0.367757 0.794838
vt 0.367757 0.790670
vt 0.348752 0.794838
vt 0.348752 0.790670
vt 0.331544 0.794838
vt 0.331544 0.790670
vt 0.171432 0.800809
vt 0.171432 0.804974
vt 0.190425 0.800809
vt 0.190425 0.804974
vt 0.207624 0.800809
vt 0.207624 0.804974
vt 0.885398 0.550265
vt 0.885398 0.707648
vt 0.885398 0.392882
vt 0.902337 0.550265
vt 0.902337 0.704643
vt 0.902337 0.395886
vt 0.919301 0.550265
vt 0.919301 0.696087
vt 0.919301 0.404443
vt 0.933706 0.550265
vt 0.933706 0.683281
vt 0.933705 0.417248
vt 0.267118 0.174884
vt 0.267118 0.332265
vt 0.267118 0.489647
vt 0.284057 0.177888
vt 0.284057 0.332265
vt 0.284057 0.486642
vt 0.301021 0.186445
vt 0.301021 0.332265
vt 0.301021 0.478086
vt 0.315425 0.199250
vt 0.315425 0.332265
vt 0.315425 0.465281
s 1
f 1/1/1 2/2/2 4/3/3 3/4/4
f 3/4/4 4/3/3 6/5/5 5/6/6
f 5/6/6 6/5/5 8/7/7 7/8/8
f 7/8/8 8/7/7 10/9/9 9/10/10
f 9/11/10 10/12/9 12/13/11 11/14/12
f 11/14/12 12/13/11 14/15/13 13/16/14
f 13/16/14 14/15/13 16/17/15 15/18/16
f 15/18/16 16/17/15 18/19/17 17/20/18
f 17/20/18 18/19/17 20/21/19 19/22/20
f 19/22/20 20/21/19 22/23/21 21/24/22
f 21/24/22 22/23/21 24/25/23 23/26/24
f 23/26/24 24/25/23 26/27/25 25/28/26
f 25/28/26 26/27/25 28/29/27 27/30/28
f 27/30/28 28/29/27 30/31/29 29/32/30
f 12/13/31 10/12/32 69/33/32 70/34/31
f 29/32/30 30/31/29 32/35/33 31/36/34
f 31/36/34 32/35/33 2/2/2 1/1/1
f 44/37/35 43/38/36 159/39/37 161/40/38
f 37/41/39 36/42/40 145/43/41 147/44/42
f 42/45/43 41/46/44 155/47/45 157/48/46
f 33/49/47 48/50/48 169/51/49 138/52/50
f 47/53/51 46/54/52 165/55/53 167/56/54
f 40/57/55 39/58/56 151/59/57 153/60/58
f 45/61/59 44/37/35 161/40/38 163/62/60
f 58/63/61 57/64/62 140/65/63 139/66/64
f 38/67/65 37/41/39 147/44/42 149/68/66
f 43/38/36 42/45/43 157/48/46 159/39/37
f 48/50/48 47/53/51 167/56/54 169/51/49
f 36/42/40 35/69/67 143/70/68 145/43/41
f 41/46/44 40/57/55 153/60/58 155/47/45
f 46/54/52 45/61/59 163/62/60 165/55/53
f 39/58/56 38/67/65 149/68/66 151/59/57
f 9/11/10 11/14/12 62/71/69 64/72/70
f 23/26/24 25/28/26 60/73/71 63/74/72
f 13/16/14 15/18/16 56/75/73 61/76/74
f 3/4/4 5/6/6 54/77/75 57/64/62
f 27/30/28 29/32/30 52/78/76 59/79/77
f 17/20/18 19/22/20 50/80/78 55/81/79
f 7/8/8 9/10/10 64/82/70 53/83/80
f 31/36/34 1/1/1 58/63/61 51/84/81
f 21/24/22 23/26/24 63/74/72 49/85/82
f 11/14/12 13/16/14 61/76/74 62/71/69
f 25/28/26 27/30/28 59/79/77 60/73/71
f 1/1/1 3/4/4 57/64/62 58/63/61
f 15/18/16 17/20/18 55/81/79 56/75/73
f 5/6/6 7/8/8 53/83/80 54/77/75
f 29/32/30 31/36/34 51/84/81 52/78/76
f 19/22/20 21/24/22 49/85/82 50/80/78
f 71/86/13 70/34/11 86/87/11 87/88/13
f 22/23/83 20/21/84 74/89/84 75/90/83
f 32/35/85 30/31/86 79/91/86 80/92/85
f 8/7/87 6/5/88 67/93/88 68/94/87
f 18/19/89 16/17/90 72/95/90 73/96/89
f 28/29/91 26/27/92 77/97/92 78/98/91
f 4/3/93 2/2/94 66/99/94 65/100/93
f 14/15/95 12/13/31 70/34/31 71/86/95
f 24/25/96 22/23/83 75/90/83 76/101/96
f 2/2/94 32/35/85 80/92/85 66/99/94
f 10/9/32 8/7/87 68/94/87 69/102/32
f 20/21/84 18/19/89 73/96/89 74/89/84
f 30/31/86 28/29/91 78/98/91 79/91/86
f 6/5/88 4/3/93 65/100/93 67/93/88
f 16/17/90 14/15/95 71/86/95 72/95/90
f 26/27/92 24/25/96 76/101/96 77/97/92
f 92/103/97 91/104/98 107/105/98 108/106/97
f 79/91/29 78/98/27 94/107/27 95/108/29
f 72/95/15 71/86/13 87/88/13 88/109/15
f 80/92/33 79/91/29 95/108/29 96/110/33
f 73/96/17 72/95/15 88/109/15 89/111/17
f 65/100/3 66/99/2 82/112/2 81/113/3
f 66/99/2 80/92/33 96/110/33 82/112/2
f 74/89/19 73/96/17 89/111/17 90/114/19
f 67/93/5 65/100/3 81/113/3 83/115/5
f 75/90/21 74/89/19 90/114/19 91/104/21
f 68/94/7 67/93/5 83/115/5 84/116/7
f 76/101/23 75/90/21 91/104/21 92/103/23
f 69/102/9 68/94/7 84/116/7 85/117/9
f 77/97/25 76/101/23 92/103/23 93/118/25
f 70/34/11 69/33/9 85/119/9 86/87/11
f 78/98/27 77/97/25 93/118/25 94/107/27
f 97/120/99 98/121/100 114/122/100 113/123/99
f 85/117/101 84/116/102 100/124/102 101/125/101
f 93/118/103 92/103/97 108/106/97 109/126/103
f 86/87/104 85/119/101 101/127/101 102/128/104
f 94/107/105 93/118/103 109/126/103 110/129/105
f 87/88/106 86/87/104 102/128/104 103/130/106
f 95/108/107 94/107/105 110/129/105 111/131/107
f 88/109/108 87/88/106 103/130/106 104/132/108
f 96/110/109 95/108/107 111/131/107 112/133/109
f 89/111/110 88/109/108 104/132/108 105/134/110
f 81/113/111 82/112/112 98/121/112 97/120/111
f 82/112/112 96/110/109 112/133/109 98/121/112
f 90/114/113 89/111/110 105/134/110 106/135/113
f 83/115/114 81/113/111 97/120/111 99/136/114
f 91/104/98 90/114/113 106/135/113 107/105/98
f 84/116/102 83/115/114 99/136/114 100/124/102
f 132/137/115 124/138/116 123/139/117 122/140/118
f 98/121/100 112/133/119 128/141/119 114/122/100
f 106/135/120 105/134/121 121/142/121 122/143/120
f 99/136/122 97/120/99 113/123/99 115/144/122
f 107/105/123 106/135/120 122/143/120 123/145/123
f 100/124/124 99/136/122 115/144/122 116/146/124
f 108/106/125 107/105/123 123/145/123 124/147/125
f 101/125/126 100/124/124 116/146/124 117/148/126
f 109/126/127 108/106/125 124/147/125 125/149/127
f 102/128/128 101/127/126 117/150/126 118/151/128
f 110/129/129 109/126/127 125/149/127 126/152/129
f 103/130/130 102/128/128 118/151/128 119/153/130
f 111/131/131 110/129/129 126/152/129 127/154/131
f 104/132/132 103/130/130 119/153/130 120/155/132
f 112/133/119 111/131/131 127/154/131 128/141/119
f 105/134/121 104/132/132 120/155/132 121/142/121
f 134/156/133 133/157/134 121/158/135 120/159/136
f 135/160/137 126/161/138 125/162/139 131/163/140
f 137/164/141 136/165/142 129/166/143 130/167/144
f 118/168/145 134/156/133 120/159/136 119/169/146
f 116/170/147 137/164/141 130/167/144 117/171/148
f 136/165/142 135/160/137 131/163/140 129/166/143
f 133/157/134 132/137/115 122/140/118 121/158/135
f 130/167/144 129/166/143 133/157/134 134/156/133
f 129/166/143 131/163/140 132/137/115 133/157/134
f 131/163/140 125/162/139 124/138/116 132/137/115
f 117/171/148 130/167/144 134/156/133 118/168/145
f 113/172/149 114/173/150 136/165/142 137/164/141
f 114/173/150 128/174/151 135/160/137 136/165/142
f 128/174/151 127/175/152 126/161/138 135/160/137
f 115/176/153 113/172/149 137/164/141 116/170/147
f 51/84/81 58/63/61 139/66/64 168/177/154
f 57/64/62 54/77/75 142/178/155 140/65/63
f 54/77/75 53/83/80 144/179/156 142/178/155
f 53/83/80 64/82/70 146/180/157 144/179/156
f 64/72/70 62/71/69 148/181/158 146/182/157
f 62/71/69 61/76/74 150/183/159 148/181/158
f 61/76/74 56/75/73 152/184/160 150/183/159
f 56/75/73 55/81/79 154/185/161 152/184/160
f 55/81/79 50/80/78 156/186/162 154/185/161
f 50/80/78 49/85/82 158/187/163 156/186/162
f 49/85/82 63/74/72 160/188/164 158/187/163
f 63/74/72 60/73/71 162/189/165 160/188/164
f 60/73/71 59/79/77 164/190/166 162/189/165
f 59/79/77 52/78/76 166/191/167 164/190/166
f 52/78/76 51/84/81 168/177/154 166/191/167
f 35/69/67 34/192/168 141/193/169 143/70/68
f 139/66/64 140/65/63 141/194/169 138/195/50
f 140/65/63 142/178/155 143/196/68 141/194/169
f 142/178/155 144/179/156 145/197/41 143/196/68
f 144/179/156 146/180/157 147/198/42 145/197/41
f 146/182/157 148/181/158 149/199/66 147/200/42
f 148/181/158 150/183/159 151/201/57 149/199/66
f 150/183/159 152/184/160 153/202/58 151/201/57
f 152/184/160 154/185/161 155/203/45 153/202/58
f 154/185/161 156/186/162 157/204/46 155/203/45
f 156/186/162 158/187/163 159/205/37 157/204/46
f 158/187/163 160/188/164 161/206/38 159/205/37
f 160/188/164 162/189/165 163/207/60 161/206/38
f 162/189/165 164/190/166 165/208/53 163/207/60
f 164/190/166 166/191/167 167/209/54 165/208/53
f 166/191/167 168/177/154 169/210/49 167/209/54
f 168/177/154 139/66/64 138/195/50 169/210/49
f 34/192/168 33/49/47 138/52/50 141/193/169
f 170/211/170 171/212/171 173/213/172 172/214/173
f 172/214/173 173/213/172 175/215/174 174/216/175
f 174/217/175 175/218/174 177/219/176 176/220/177
f 176/220/177 177/219/176 179/221/178 178/222/179
f 178/222/179 179/221/178 181/223/180 180/224/181
f 180/224/181 181/223/180 183/225/182 182/226/183
f 182/226/183 183/225/182 185/227/184 184/228/185
f 184/228/185 185/227/184 171/212/171 170/211/170
f 186/229/186 174/230/175 176/231/177
f 172/232/173 174/230/175 186/229/186
f 186/229/186 178/233/179 180/234/181
f 184/235/185 170/236/170 186/229/186
f 182/237/183 186/229/186 180/234/181
f 178/233/179 186/229/186 176/231/177
f 170/236/170 172/232/173 186/229/186
f 182/237/183 184/235/185 186/229/186
f 193/238/187 191/239/188 217/240/188 218/241/187
f 187/242/9 204/243/9 195/244/9
f 195/245/189 199/246/189 189/247/190 187/248/190
f 205/249/9 206/250/9 193/251/9 192/252/9
f 217/253/25 189/254/25 201/255/25
f 187/242/9 191/256/9 204/243/9
f 192/257/191 193/238/187 218/241/187 194/258/191
f 199/259/25 201/255/25 189/254/25
f 224/260/192 220/261/192 190/262/193 188/263/193
f 238/264/9 188/265/9 212/266/9
f 208/267/25 190/268/25 233/269/25
f 212/270/194 188/271/195 190/272/195 208/273/194
f 220/274/25 233/269/25 190/268/25
f 238/264/9 224/275/9 188/265/9
f 196/276/196 198/277/196 200/278/197 197/279/197
f 197/279/197 200/278/197 199/246/189 195/245/189
f 205/249/9 196/280/9 197/281/9 206/250/9
f 206/250/9 197/281/9 195/244/9 204/243/9
f 218/282/25 217/253/25 201/255/25 203/283/25
f 194/284/25 218/282/25 203/283/25 202/285/25
f 198/286/25 202/285/25 203/283/25 200/287/25
f 200/287/25 203/283/25 201/255/25 199/259/25
f 224/260/192 226/288/198 223/289/198 220/261/192
f 206/250/9 204/243/9 191/256/9 193/251/9
f 191/239/188 187/290/199 189/291/199 217/240/188
f 212/270/194 208/273/194 211/292/200 214/293/200
f 214/293/200 211/292/200 210/294/201 215/295/201
f 215/295/201 210/294/201 209/296/202 216/297/202
f 216/297/202 209/296/202 207/298/203 213/299/203
f 196/276/196 213/299/203 207/298/203 198/277/196
f 226/288/198 227/300/204 222/301/204 223/289/198
f 227/300/204 228/302/205 221/303/205 222/301/204
f 228/302/205 225/304/206 219/305/206 221/303/205
f 192/257/191 194/258/191 219/305/206 225/304/206
f 194/284/25 202/285/25 229/306/25 219/307/25
f 198/286/25 207/308/25 229/306/25 202/285/25
f 219/307/25 229/306/25 230/309/25 221/310/25
f 207/308/25 209/311/25 230/309/25 229/306/25
f 221/310/25 230/309/25 231/312/25 222/313/25
f 209/311/25 210/314/25 231/312/25 230/309/25
f 222/313/25 231/312/25 232/315/25 223/316/25
f 210/314/25 211/317/25 232/315/25 231/312/25
f 223/316/25 232/315/25 233/269/25 220/274/25
f 211/317/25 208/267/25 233/269/25 232/315/25
f 205/249/9 192/252/9 225/318/9 234/319/9
f 205/249/9 234/319/9 213/320/9 196/280/9
f 234/319/9 225/318/9 228/321/9 235/322/9
f 234/319/9 235/322/9 216/323/9 213/320/9
f 235/322/9 228/321/9 227/324/9 236/325/9
f 235/322/9 236/325/9 215/326/9 216/323/9
f 236/325/9 227/324/9 226/327/9 237/328/9
f 236/325/9 237/328/9 214/329/9 215/326/9
f 237/328/9 226/327/9 224/275/9 238/264/9
f 237/328/9 238/264/9 212/266/9 214/329/9
f 245/330/207 243/331/208 269/332/208 270/333/207
f 239/334/2 256/335/2 247/336/2
f 247/337/209 251/338/209 241/339/210 239/340/210
f 257/341/2 258/342/2 245/343/2 244/344/2
f 269/345/17 241/346/17 253/347/17
f 239/334/2 243/348/2 256/335/2
f 244/349/211 245/330/207 270/333/207 246/350/211
f 251/351/17 253/347/17 241/346/17
f 276/352/212 272/353/212 242/354/213 240/355/213
f 290/356/2 240/357/2 264/358/2
f 260/359/17 242/360/17 285/361/17
f 264/362/214 240/363/215 242/364/215 260/365/214
f 272/366/17 285/361/17 242/360/17
f 290/356/2 276/367/2 240/357/2
f 248/368/216 250/369/216 252/370/217 249/371/217
f 249/371/217 252/370/217 251/338/209 247/337/209
f 257/341/2 248/372/2 249/373/2 258/342/2
f 258/342/2 249/373/2 247/336/2 256/335/2
f 270/374/17 269/345/17 253/347/17 255/375/17
f 246/376/17 270/374/17 255/375/17 254/377/17
f 250/378/17 254/377/17 255/375/17 252/379/17
f 252/379/17 255/375/17 253/347/17 251/351/17
f 276/352/212 278/380/218 275/381/218 272/353/212
f 258/342/2 256/335/2 243/348/2 245/343/2
f 243/331/208 239/382/219 241/383/219 269/332/208
f 264/362/214 260/365/214 263/384/220 266/385/220
f 266/385/220 263/384/220 262/386/221 267/387/221
f 267/387/221 262/386/221 261/388/222 268/389/222
f 268/389/222 261/388/222 259/390/223 265/391/223
f 248/368/216 265/391/223 259/390/223 250/369/216
f 278/380/218 279/392/224 274/393/224 275/381/218
f 279/392/224 280/394/225 273/395/225 274/393/224
f 280/394/225 277/396/226 271/397/226 273/395/225
f 244/349/211 246/350/211 271/397/226 277/396/226
f 246/376/17 254/377/17 281/398/17 271/399/17
f 250/378/17 259/400/17 281/398/17 254/377/17
f 271/399/17 281/398/17 282/401/17 273/402/17
f 259/400/17 261/403/17 282/401/17 281/398/17
f 273/402/17 282/401/17 283/404/17 274/405/17
f 261/403/17 262/406/17 283/404/17 282/401/17
f 274/405/17 283/404/17 284/407/17 275/408/17
f 262/406/17 263/409/17 284/407/17 283/404/17
f 275/408/17 284/407/17 285/361/17 272/366/17
f 263/409/17 260/359/17 285/361/17 284/407/17
f 257/341/2 244/344/2 277/410/2 286/411/2
f 257/341/2 286/411/2 265/412/2 248/372/2
f 286/411/2 277/410/2 280/413/2 287/414/2
f 286/411/2 287/414/2 268/415/2 265/412/2
f 287/414/2 280/413/2 279/416/2 288/417/2
f 287/414/2 288/417/2 267/418/2 268/415/2
f 288/417/2 279/416/2 278/419/2 289/420/2
f 288/417/2 289/420/2 266/421/2 267/418/2
f 289/420/2 278/419/2 276/367/2 290/356/2
f 289/420/2 290/356/2 264/358/2 266/421/2
