# Blender 4.0.2
# www.blender.org
o chain_link_01
v 0.002270 0.030003 -0.000000
v 0.002217 0.028450 0.003794
v 0.002078 0.024660 0.005403
v 0.001923 0.020819 0.003844
v 0.001856 0.019217 -0.000000
v 0.001923 0.020819 -0.003844
v 0.002078 0.024660 -0.005403
v 0.002217 0.028450 -0.003794
v 0.020640 0.011632 -0.000000
v 0.019087 0.011580 0.003794
v 0.015297 0.011441 0.005403
v 0.011456 0.011286 0.003844
v 0.009854 0.011219 -0.000000
v 0.011456 0.011286 -0.003844
v 0.015297 0.011441 -0.005403
v 0.019087 0.011580 -0.003794
v 0.019236 0.018542 -0.000000
v 0.017817 0.017954 0.003772
v 0.014337 0.016512 0.005401
v 0.010763 0.015032 0.003873
v 0.009251 0.014406 -0.000000
v 0.010763 0.015032 -0.003873
v 0.014337 0.016512 -0.005401
v 0.017817 0.017954 -0.003772
v 0.015207 0.024570 -0.000000
v 0.014122 0.023485 0.003772
v 0.011458 0.020821 0.005401
v 0.008723 0.018086 0.003873
v 0.007566 0.016929 -0.000000
v 0.008723 0.018086 -0.003873
v 0.011458 0.020821 -0.005401
v 0.014122 0.023485 -0.003772
v 0.009179 0.028599 -0.000000
v 0.008591 0.027180 0.003772
v 0.007150 0.023699 0.005401
v 0.005670 0.020126 0.003873
v 0.005043 0.018614 -0.000000
v 0.005670 0.020126 -0.003873
v 0.007150 0.023699 -0.005401
v 0.008591 0.027180 -0.003772
v -0.002270 0.030003 0.000000
v -0.002217 0.028450 0.003794
v -0.002078 0.024660 0.005403
v -0.001923 0.020819 0.003844
v -0.001856 0.019217 0.000000
v -0.001923 0.020819 -0.003844
v -0.002078 0.024660 -0.005403
v -0.002217 0.028450 -0.003794
v -0.009179 0.028599 0.000000
v -0.008591 0.027180 0.003772
v -0.007150 0.023699 0.005401
v -0.005670 0.020126 0.003873
v -0.005043 0.018614 0.000000
v -0.005670 0.020126 -0.003873
v -0.007150 0.023699 -0.005401
v -0.008591 0.027180 -0.003772
v -0.015207 0.024570 0.000000
v -0.014122 0.023485 0.003772
v -0.011458 0.020821 0.005401
v -0.008723 0.018086 0.003873
v -0.007566 0.016929 0.000000
v -0.008723 0.018086 -0.003873
v -0.011458 0.020821 -0.005401
v -0.014122 0.023485 -0.003772
v -0.019236 0.018542 0.000000
v -0.017817 0.017954 0.003772
v -0.014337 0.016512 0.005401
v -0.010763 0.015032 0.003873
v -0.009251 0.014406 0.000000
v -0.010763 0.015032 -0.003873
v -0.014337 0.016512 -0.005401
v -0.017817 0.017954 -0.003772
v -0.020640 0.011632 0.000000
v -0.019087 0.011580 0.003794
v -0.015297 0.011441 0.005403
v -0.011456 0.011286 0.003844
v -0.009854 0.011219 0.000000
v -0.011456 0.011286 -0.003844
v -0.015297 0.011441 -0.005403
v -0.019087 0.011580 -0.003794
v 0.002270 -0.030003 -0.000000
v 0.002217 -0.028450 0.003794
v 0.002078 -0.024660 0.005403
v 0.001923 -0.020819 0.003844
v 0.001856 -0.019217 -0.000000
v 0.001923 -0.020819 -0.003844
v 0.002078 -0.024660 -0.005403
v 0.002217 -0.028450 -0.003794
v 0.020640 -0.011632 -0.000000
v 0.019087 -0.011580 0.003794
v 0.015297 -0.011441 0.005403
v 0.011456 -0.011286 0.003844
v 0.009854 -0.011219 -0.000000
v 0.011456 -0.011286 -0.003844
v 0.015297 -0.011441 -0.005403
v 0.019087 -0.011580 -0.003794
v 0.019236 -0.018542 -0.000000
v 0.017817 -0.017954 0.003772
v 0.014337 -0.016512 0.005401
v 0.010763 -0.015032 0.003873
v 0.009251 -0.014406 -0.000000
v 0.010763 -0.015032 -0.003873
v 0.014337 -0.016512 -0.005401
v 0.017817 -0.017954 -0.003772
v 0.015207 -0.024570 -0.000000
v 0.014122 -0.023485 0.003772
v 0.011458 -0.020821 0.005401
v 0.008723 -0.018086 0.003873
v 0.007566 -0.016929 -0.000000
v 0.008723 -0.018086 -0.003873
v 0.011458 -0.020821 -0.005401
v 0.014122 -0.023485 -0.003772
v 0.009179 -0.028599 -0.000000
v 0.008591 -0.027180 0.003772
v 0.007150 -0.023699 0.005401
v 0.005670 -0.020126 0.003873
v 0.005043 -0.018614 -0.000000
v 0.005670 -0.020126 -0.003873
v 0.007150 -0.023699 -0.005401
v 0.008591 -0.027180 -0.003772
v -0.002270 -0.030003 0.000000
v -0.002217 -0.028450 0.003794
v -0.002078 -0.024660 0.005403
v -0.001923 -0.020819 0.003844
v -0.001856 -0.019217 0.000000
v -0.001923 -0.020819 -0.003844
v -0.002078 -0.024660 -0.005403
v -0.002217 -0.028450 -0.003794
v -0.009179 -0.028599 0.000000
v -0.008591 -0.027180 0.003772
v -0.007150 -0.023699 0.005401
v -0.005670 -0.020126 0.003873
v -0.005043 -0.018614 0.000000
v -0.005670 -0.020126 -0.003873
v -0.007150 -0.023699 -0.005401
v -0.008591 -0.027180 -0.003772
v -0.015207 -0.024570 0.000000
v -0.014122 -0.023485 0.003772
v -0.011458 -0.020821 0.005401
v -0.008723 -0.018086 0.003873
v -0.007566 -0.016929 0.000000
v -0.008723 -0.018086 -0.003873
v -0.011458 -0.020821 -0.005401
v -0.014122 -0.023485 -0.003772
v -0.019236 -0.018542 0.000000
v -0.017817 -0.017954 0.003772
v -0.014337 -0.016512 0.005401
v -0.010763 -0.015032 0.003873
v -0.009251 -0.014406 0.000000
v -0.010763 -0.015032 -0.003873
v -0.014337 -0.016512 -0.005401
v -0.017817 -0.017954 -0.003772
v -0.020640 -0.011632 0.000000
v -0.019087 -0.011580 0.003794
v -0.015297 -0.011441 0.005403
v -0.011456 -0.011286 0.003844
v -0.009854 -0.011219 0.000000
v -0.011456 -0.011286 -0.003844
v -0.015297 -0.011441 -0.005403
v -0.019087 -0.011580 -0.003794
v -0.000000 -0.008605 0.002270
v -0.003794 -0.010158 0.002217
v -0.005403 -0.013948 0.002078
v -0.003844 -0.017789 0.001923
v -0.000000 -0.019391 0.001856
v 0.003844 -0.017789 0.001923
v 0.005403 -0.013948 0.002078
v 0.003794 -0.010158 0.002217
v -0.000000 -0.026975 0.020640
v -0.003794 -0.027028 0.019087
v -0.005403 -0.027167 0.015297
v -0.003844 -0.027322 0.011456
v -0.000000 -0.027389 0.009854
v 0.003844 -0.027322 0.011456
v 0.005403 -0.027167 0.015297
v 0.003794 -0.027028 0.019087
v -0.000000 -0.020066 0.019236
v -0.003772 -0.020654 0.017817
v -0.005401 -0.022095 0.014337
v -0.003873 -0.023576 0.010763
v -0.000000 -0.024202 0.009251
v 0.003873 -0.023576 0.010763
v 0.005401 -0.022095 0.014337
v 0.003772 -0.020654 0.017817
v -0.000000 -0.014038 0.015207
v -0.003772 -0.015123 0.014122
v -0.005401 -0.017787 0.011458
v -0.003873 -0.020522 0.008723
v -0.000000 -0.021679 0.007566
v 0.003873 -0.020522 0.008723
v 0.005401 -0.017787 0.011458
v 0.003772 -0.015123 0.014122
v -0.000000 -0.010009 0.009179
v -0.003772 -0.011428 0.008591
v -0.005401 -0.014909 0.007150
v -0.003873 -0.018482 0.005670
v -0.000000 -0.019994 0.005043
v 0.003873 -0.018482 0.005670
v 0.005401 -0.014909 0.007150
v 0.003772 -0.011428 0.008591
v -0.000000 -0.008605 -0.002270
v -0.003794 -0.010158 -0.002217
v -0.005403 -0.013948 -0.002078
v -0.003844 -0.017789 -0.001923
v -0.000000 -0.019391 -0.001856
v 0.003844 -0.017789 -0.001923
v 0.005403 -0.013948 -0.002078
v 0.003794 -0.010158 -0.002217
v -0.000000 -0.010009 -0.009179
v -0.003772 -0.011428 -0.008591
v -0.005401 -0.014909 -0.007150
v -0.003873 -0.018482 -0.005670
v -0.000000 -0.019994 -0.005043
v 0.003873 -0.018482 -0.005670
v 0.005401 -0.014909 -0.007150
v 0.003772 -0.011428 -0.008591
v -0.000000 -0.014038 -0.015207
v -0.003772 -0.015123 -0.014122
v -0.005401 -0.017787 -0.011458
v -0.003873 -0.020522 -0.008723
v -0.000000 -0.021679 -0.007566
v 0.003873 -0.020522 -0.008723
v 0.005401 -0.017787 -0.011458
v 0.003772 -0.015123 -0.014122
v -0.000000 -0.020066 -0.019236
v -0.003772 -0.020654 -0.017817
v -0.005401 -0.022095 -0.014337
v -0.003873 -0.023576 -0.010763
v -0.000000 -0.024202 -0.009251
v 0.003873 -0.023576 -0.010763
v 0.005401 -0.022095 -0.014337
v 0.003772 -0.020654 -0.017817
v -0.000000 -0.026975 -0.020640
v -0.003794 -0.027028 -0.019087
v -0.005403 -0.027167 -0.015297
v -0.003844 -0.027322 -0.011456
v -0.000000 -0.027389 -0.009854
v 0.003844 -0.027322 -0.011456
v 0.005403 -0.027167 -0.015297
v 0.003794 -0.027028 -0.019087
v -0.000000 -0.068611 0.002270
v -0.003794 -0.067058 0.002217
v -0.005403 -0.063268 0.002078
v -0.003844 -0.059427 0.001923
v -0.000000 -0.057825 0.001856
v 0.003844 -0.059427 0.001923
v 0.005403 -0.063268 0.002078
v 0.003794 -0.067058 0.002217
v -0.000000 -0.050240 0.020640
v -0.003794 -0.050188 0.019087
v -0.005403 -0.050049 0.015297
v -0.003844 -0.049894 0.011456
v -0.000000 -0.049827 0.009854
v 0.003844 -0.049894 0.011456
v 0.005403 -0.050049 0.015297
v 0.003794 -0.050188 0.019087
v -0.000000 -0.057150 0.019236
v -0.003772 -0.056562 0.017817
v -0.005401 -0.055120 0.014337
v -0.003873 -0.053640 0.010763
v -0.000000 -0.053014 0.009251
v 0.003873 -0.053640 0.010763
v 0.005401 -0.055120 0.014337
v 0.003772 -0.056562 0.017817
v -0.000000 -0.063178 0.015207
v -0.003772 -0.062093 0.014122
v -0.005401 -0.059429 0.011458
v -0.003873 -0.056694 0.008723
v -0.000000 -0.055537 0.007566
v 0.003873 -0.056694 0.008723
v 0.005401 -0.059429 0.011458
v 0.003772 -0.062093 0.014122
v -0.000000 -0.067206 0.009179
v -0.003772 -0.065788 0.008591
v -0.005401 -0.062307 0.007150
v -0.003873 -0.058734 0.005670
v -0.000000 -0.057222 0.005043
v 0.003873 -0.058734 0.005670
v 0.005401 -0.062307 0.007150
v 0.003772 -0.065788 0.008591
v -0.000000 -0.068611 -0.002270
v -0.003794 -0.067058 -0.002217
v -0.005403 -0.063268 -0.002078
v -0.003844 -0.059427 -0.001923
v -0.000000 -0.057825 -0.001856
v 0.003844 -0.059427 -0.001923
v 0.005403 -0.063268 -0.002078
v 0.003794 -0.067058 -0.002217
v -0.000000 -0.067206 -0.009179
v -0.003772 -0.065788 -0.008591
v -0.005401 -0.062307 -0.007150
v -0.003873 -0.058734 -0.005670
v -0.000000 -0.057222 -0.005043
v 0.003873 -0.058734 -0.005670
v 0.005401 -0.062307 -0.007150
v 0.003772 -0.065788 -0.008591
v -0.000000 -0.063178 -0.015207
v -0.003772 -0.062093 -0.014122
v -0.005401 -0.059429 -0.011458
v -0.003873 -0.056694 -0.008723
v -0.000000 -0.055537 -0.007566
v 0.003873 -0.056694 -0.008723
v 0.005401 -0.059429 -0.011458
v 0.003772 -0.062093 -0.014122
v -0.000000 -0.057150 -0.019236
v -0.003772 -0.056562 -0.017817
v -0.005401 -0.055120 -0.014337
v -0.003873 -0.053640 -0.010763
v -0.000000 -0.053014 -0.009251
v 0.003873 -0.053640 -0.010763
v 0.005401 -0.055120 -0.014337
v 0.003772 -0.056562 -0.017817
v -0.000000 -0.050240 -0.020640
v -0.003794 -0.050188 -0.019087
v -0.005403 -0.050049 -0.015297
v -0.003844 -0.049894 -0.011456
v -0.000000 -0.049827 -0.009854
v 0.003844 -0.049894 -0.011456
v 0.005403 -0.050049 -0.015297
v 0.003794 -0.050188 -0.019087
vn 0.9952 0.0980 -0.0000
vn 0.9233 0.3840 -0.0000
vn 0.6790 0.2824 0.6776
vn 0.7206 0.0721 0.6896
vn 0.0577 0.0245 0.9980
vn 0.0326 0.0052 0.9995
vn -0.6215 -0.2546 0.7409
vn -0.6890 -0.0653 0.7218
vn -0.9259 -0.3778 -0.0000
vn -0.9955 -0.0943 -0.0000
vn -0.6215 -0.2546 -0.7409
vn -0.6890 -0.0653 -0.7218
vn 0.0577 0.0245 -0.9980
vn 0.0326 0.0052 -0.9995
vn 0.6790 0.2824 -0.6776
vn 0.7206 0.0721 -0.6896
vn 0.7071 0.7071 -0.0000
vn 0.5206 0.5206 0.6767
vn 0.0449 0.0449 0.9980
vn -0.4754 -0.4754 0.7402
vn -0.7071 -0.7071 -0.0000
vn -0.4754 -0.4754 -0.7402
vn 0.0449 0.0449 -0.9980
vn 0.5206 0.5206 -0.6767
vn 0.3840 0.9233 -0.0000
vn 0.2824 0.6790 0.6776
vn 0.0245 0.0577 0.9980
vn -0.2546 -0.6215 0.7409
vn -0.3778 -0.9259 -0.0000
vn -0.2546 -0.6215 -0.7409
vn 0.0245 0.0577 -0.9980
vn 0.2824 0.6790 -0.6776
vn 0.0980 0.9952 -0.0000
vn 0.0721 0.7206 0.6896
vn 0.0052 0.0326 0.9995
vn -0.0653 -0.6890 0.7218
vn -0.0943 -0.9955 -0.0000
vn -0.0653 -0.6890 -0.7218
vn 0.0052 0.0326 -0.9995
vn 0.0721 0.7206 -0.6896
vn -0.0980 0.9952 -0.0000
vn -0.3840 0.9233 -0.0000
vn -0.2824 0.6790 0.6776
vn -0.0721 0.7206 0.6896
vn -0.0245 0.0577 0.9980
vn -0.0052 0.0326 0.9995
vn 0.2546 -0.6215 0.7409
vn 0.0653 -0.6890 0.7218
vn 0.3778 -0.9259 -0.0000
vn 0.0943 -0.9955 -0.0000
vn 0.2546 -0.6215 -0.7409
vn 0.0653 -0.6890 -0.7218
vn -0.0245 0.0577 -0.9980
vn -0.0052 0.0326 -0.9995
vn -0.2824 0.6790 -0.6776
vn -0.0721 0.7206 -0.6896
vn -0.7071 0.7071 -0.0000
vn -0.5206 0.5206 0.6767
vn -0.0449 0.0449 0.9980
vn 0.4754 -0.4754 0.7402
vn 0.7071 -0.7071 -0.0000
vn 0.4754 -0.4754 -0.7402
vn -0.0449 0.0449 -0.9980
vn -0.5206 0.5206 -0.6767
vn -0.9233 0.3840 -0.0000
vn -0.6790 0.2824 0.6776
vn -0.0577 0.0245 0.9980
vn 0.6215 -0.2546 0.7409
vn 0.9259 -0.3778 -0.0000
vn 0.6215 -0.2546 -0.7409
vn -0.0577 0.0245 -0.9980
vn -0.6790 0.2824 -0.6776
vn -0.9952 0.0980 -0.0000
vn -0.7206 0.0721 0.6896
vn -0.0326 0.0052 0.9995
vn 0.6890 -0.0653 0.7218
vn 0.9955 -0.0943 -0.0000
vn 0.6890 -0.0653 -0.7218
vn -0.0326 0.0052 -0.9995
vn -0.7206 0.0721 -0.6896
vn 0.0326 -0.0052 -0.9995
vn 0.7206 -0.0721 -0.6896
vn 0.6790 -0.2824 -0.6776
vn 0.0577 -0.0245 -0.9980
vn -0.6890 0.0653 0.7218
vn -0.9955 0.0943 -0.0000
vn -0.9259 0.3778 -0.0000
vn -0.6215 0.2546 0.7409
vn -0.6215 0.2546 -0.7409
vn 0.0449 -0.0449 -0.9980
vn -0.4754 0.4754 -0.7402
vn -0.4754 0.4754 0.7402
vn 0.0577 -0.0245 0.9980
vn 0.0449 -0.0449 0.9980
vn 0.9233 -0.3840 -0.0000
vn 0.6790 -0.2824 0.6776
vn 0.5206 -0.5206 0.6767
vn 0.7206 -0.0721 0.6896
vn 0.0326 -0.0052 0.9995
vn 0.9952 -0.0980 -0.0000
vn -0.6890 0.0653 -0.7218
vn 0.5206 -0.5206 -0.6767
vn -0.9952 -0.0980 -0.0000
vn -0.7206 -0.0721 -0.6896
vn -0.7206 -0.0721 0.6896
vn -0.0326 -0.0052 0.9995
vn 0.6890 0.0653 0.7218
vn 0.9955 0.0943 -0.0000
vn 0.6890 0.0653 -0.7218
vn -0.0326 -0.0052 -0.9995
vn 0.2824 -0.6790 0.6776
vn 0.3840 -0.9233 -0.0000
vn 0.0245 -0.0577 0.9980
vn -0.2546 0.6215 0.7409
vn -0.3778 0.9259 -0.0000
vn -0.2546 0.6215 -0.7409
vn 0.0245 -0.0577 -0.9980
vn 0.2824 -0.6790 -0.6776
vn 0.0721 -0.7206 0.6896
vn 0.0980 -0.9952 -0.0000
vn 0.0052 -0.0326 0.9995
vn -0.0653 0.6890 0.7218
vn -0.0943 0.9955 -0.0000
vn -0.0653 0.6890 -0.7218
vn 0.0052 -0.0326 -0.9995
vn 0.0721 -0.7206 -0.6896
vn -0.0980 -0.9952 -0.0000
vn -0.0721 -0.7206 0.6896
vn -0.2824 -0.6790 0.6776
vn -0.3840 -0.9233 -0.0000
vn -0.0052 -0.0326 0.9995
vn -0.0245 -0.0577 0.9980
vn 0.0653 0.6890 0.7218
vn 0.2546 0.6215 0.7409
vn 0.0943 0.9955 -0.0000
vn 0.3778 0.9259 -0.0000
vn 0.0653 0.6890 -0.7218
vn 0.2546 0.6215 -0.7409
vn -0.0052 -0.0326 -0.9995
vn -0.0245 -0.0577 -0.9980
vn -0.0721 -0.7206 -0.6896
vn -0.2824 -0.6790 -0.6776
vn -0.5206 -0.5206 0.6767
vn -0.0449 -0.0449 0.9980
vn 0.4754 0.4754 0.7402
vn 0.4754 0.4754 -0.7402
vn -0.0449 -0.0449 -0.9980
vn -0.5206 -0.5206 -0.6767
vn -0.6790 -0.2824 0.6776
vn -0.9233 -0.3840 -0.0000
vn -0.0577 -0.0245 0.9980
vn 0.6215 0.2546 0.7409
vn 0.9259 0.3778 -0.0000
vn 0.6215 0.2546 -0.7409
vn -0.0577 -0.0245 -0.9980
vn -0.6790 -0.2824 -0.6776
vn -0.0000 0.0980 0.9952
vn -0.0000 0.3840 0.9233
vn -0.6776 0.2824 0.6790
vn -0.6896 0.0721 0.7206
vn -0.9980 0.0245 0.0577
vn -0.9995 0.0052 0.0326
vn -0.7409 -0.2546 -0.6215
vn -0.7218 -0.0653 -0.6890
vn -0.0000 -0.3778 -0.9259
vn -0.0000 -0.0943 -0.9955
vn 0.7409 -0.2546 -0.6215
vn 0.7218 -0.0653 -0.6890
vn 0.9980 0.0245 0.0577
vn 0.9995 0.0052 0.0326
vn 0.6776 0.2824 0.6790
vn 0.6896 0.0721 0.7206
vn -0.0000 0.7071 0.7071
vn -0.6767 0.5206 0.5206
vn -0.9980 0.0449 0.0449
vn -0.7402 -0.4754 -0.4754
vn -0.0000 -0.7071 -0.7071
vn 0.7402 -0.4754 -0.4754
vn 0.9980 0.0449 0.0449
vn 0.6767 0.5206 0.5206
vn -0.0000 0.9233 0.3840
vn -0.6776 0.6790 0.2824
vn -0.9980 0.0577 0.0245
vn -0.7409 -0.6215 -0.2546
vn -0.0000 -0.9259 -0.3778
vn 0.7409 -0.6215 -0.2546
vn 0.9980 0.0577 0.0245
vn 0.6776 0.6790 0.2824
vn -0.0000 0.9952 0.0980
vn -0.6896 0.7206 0.0721
vn -0.9995 0.0326 0.0052
vn -0.7218 -0.6890 -0.0653
vn -0.0000 -0.9955 -0.0943
vn 0.7218 -0.6890 -0.0653
vn 0.9995 0.0326 0.0052
vn 0.6896 0.7206 0.0721
vn -0.0000 0.9952 -0.0980
vn -0.0000 0.9233 -0.3840
vn -0.6776 0.6790 -0.2824
vn -0.6896 0.7206 -0.0721
vn -0.9980 0.0577 -0.0245
vn -0.9995 0.0326 -0.0052
vn -0.7409 -0.6215 0.2546
vn -0.7218 -0.6890 0.0653
vn -0.0000 -0.9259 0.3778
vn -0.0000 -0.9955 0.0943
vn 0.7409 -0.6215 0.2546
vn 0.7218 -0.6890 0.0653
vn 0.9980 0.0577 -0.0245
vn 0.9995 0.0326 -0.0052
vn 0.6776 0.6790 -0.2824
vn 0.6896 0.7206 -0.0721
vn -0.0000 0.7071 -0.7071
vn -0.6767 0.5206 -0.5206
vn -0.9980 0.0449 -0.0449
vn -0.7402 -0.4754 0.4754
vn -0.0000 -0.7071 0.7071
vn 0.7402 -0.4754 0.4754
vn 0.9980 0.0449 -0.0449
vn 0.6767 0.5206 -0.5206
vn -0.0000 0.3840 -0.9233
vn -0.6776 0.2824 -0.6790
vn -0.9980 0.0245 -0.0577
vn -0.7409 -0.2546 0.6215
vn -0.0000 -0.3778 0.9259
vn 0.7409 -0.2546 0.6215
vn 0.9980 0.0245 -0.0577
vn 0.6776 0.2824 -0.6790
vn -0.0000 0.0980 -0.9952
vn -0.6896 0.0721 -0.7206
vn -0.9995 0.0052 -0.0326
vn -0.7218 -0.0653 0.6890
vn -0.0000 -0.0943 0.9955
vn 0.7218 -0.0653 0.6890
vn 0.9995 0.0052 -0.0326
vn 0.6896 0.0721 -0.7206
vn 0.9995 -0.0052 0.0326
vn 0.6896 -0.0721 0.7206
vn 0.6776 -0.2824 0.6790
vn 0.9980 -0.0245 0.0577
vn -0.7218 0.0653 -0.6890
vn -0.0000 0.0943 -0.9955
vn -0.0000 0.3778 -0.9259
vn -0.7409 0.2546 -0.6215
vn 0.7409 0.2546 -0.6215
vn 0.9980 -0.0449 0.0449
vn 0.7402 0.4754 -0.4754
vn -0.7402 0.4754 -0.4754
vn -0.9980 -0.0245 0.0577
vn -0.9980 -0.0449 0.0449
vn -0.0000 -0.3840 0.9233
vn -0.6776 -0.2824 0.6790
vn -0.6767 -0.5206 0.5206
vn -0.6896 -0.0721 0.7206
vn -0.9995 -0.0052 0.0326
vn -0.0000 -0.0980 0.9952
vn 0.7218 0.0653 -0.6890
vn 0.6767 -0.5206 0.5206
vn -0.0000 -0.0980 -0.9952
vn 0.6896 -0.0721 -0.7206
vn -0.6896 -0.0721 -0.7206
vn -0.9995 -0.0052 -0.0326
vn -0.7218 0.0653 0.6890
vn -0.0000 0.0943 0.9955
vn 0.7218 0.0653 0.6890
vn 0.9995 -0.0052 -0.0326
vn -0.6776 -0.6790 0.2824
vn -0.0000 -0.9233 0.3840
vn -0.9980 -0.0577 0.0245
vn -0.7409 0.6215 -0.2546
vn -0.0000 0.9259 -0.3778
vn 0.7409 0.6215 -0.2546
vn 0.9980 -0.0577 0.0245
vn 0.6776 -0.6790 0.2824
vn -0.6896 -0.7206 0.0721
vn -0.0000 -0.9952 0.0980
vn -0.9995 -0.0326 0.0052
vn -0.7218 0.6890 -0.0653
vn -0.0000 0.9955 -0.0943
vn 0.7218 0.6890 -0.0653
vn 0.9995 -0.0326 0.0052
vn 0.6896 -0.7206 0.0721
vn -0.0000 -0.9952 -0.0980
vn -0.6896 -0.7206 -0.0721
vn -0.6776 -0.6790 -0.2824
vn -0.0000 -0.9233 -0.3840
vn -0.9995 -0.0326 -0.0052
vn -0.9980 -0.0577 -0.0245
vn -0.7218 0.6890 0.0653
vn -0.7409 0.6215 0.2546
vn -0.0000 0.9955 0.0943
vn -0.0000 0.9259 0.3778
vn 0.7218 0.6890 0.0653
vn 0.7409 0.6215 0.2546
vn 0.9995 -0.0326 -0.0052
vn 0.9980 -0.0577 -0.0245
vn 0.6896 -0.7206 -0.0721
vn 0.6776 -0.6790 -0.2824
vn -0.6767 -0.5206 -0.5206
vn -0.9980 -0.0449 -0.0449
vn -0.7402 0.4754 0.4754
vn 0.7402 0.4754 0.4754
vn 0.9980 -0.0449 -0.0449
vn 0.6767 -0.5206 -0.5206
vn -0.6776 -0.2824 -0.6790
vn -0.0000 -0.3840 -0.9233
vn -0.9980 -0.0245 -0.0577
vn -0.7409 0.2546 0.6215
vn -0.0000 0.3778 0.9259
vn 0.7409 0.2546 0.6215
vn 0.9980 -0.0245 -0.0577
vn 0.6776 -0.2824 -0.6790
vt 0.828865 0.126034
vt 0.791080 0.126034
vt 0.791080 0.096939
vt 0.828865 0.096939
vt 0.791080 0.067654
vt 0.828865 0.067654
vt 0.791080 0.038061
vt 0.828865 0.038061
vt 0.791080 0.008232
vt 0.828865 0.008232
vt 0.828865 0.243837
vt 0.791080 0.243837
vt 0.791080 0.214007
vt 0.828865 0.214007
vt 0.791080 0.184414
vt 0.828865 0.184414
vt 0.791080 0.155129
vt 0.828865 0.155129
vt 0.753129 0.126034
vt 0.753129 0.096939
vt 0.753129 0.067654
vt 0.753129 0.038061
vt 0.753129 0.008232
vt 0.753129 0.243837
vt 0.753129 0.214007
vt 0.753129 0.184414
vt 0.753129 0.155129
vt 0.715178 0.126034
vt 0.715178 0.096939
vt 0.715178 0.067654
vt 0.715178 0.038061
vt 0.715178 0.008232
vt 0.715178 0.243837
vt 0.715178 0.214007
vt 0.715178 0.184414
vt 0.715178 0.155129
vt 0.679522 0.126034
vt 0.679522 0.096939
vt 0.679522 0.067654
vt 0.679522 0.038061
vt 0.679522 0.008232
vt 0.679522 0.243837
vt 0.679522 0.214007
vt 0.679522 0.184414
vt 0.679522 0.155129
vt 0.649712 0.126034
vt 0.611926 0.126034
vt 0.611926 0.096939
vt 0.649712 0.096939
vt 0.611926 0.067654
vt 0.649711 0.067654
vt 0.611926 0.038061
vt 0.649712 0.038061
vt 0.611926 0.008232
vt 0.649712 0.008232
vt 0.649712 0.243837
vt 0.611926 0.243837
vt 0.611926 0.214007
vt 0.649712 0.214007
vt 0.611926 0.184414
vt 0.649712 0.184414
vt 0.611926 0.155129
vt 0.649712 0.155129
vt 0.573975 0.126034
vt 0.573975 0.096939
vt 0.573975 0.067654
vt 0.573975 0.038061
vt 0.573975 0.008232
vt 0.573975 0.243837
vt 0.573975 0.214007
vt 0.573975 0.184414
vt 0.573975 0.155129
vt 0.536025 0.126034
vt 0.536025 0.096939
vt 0.536025 0.067654
vt 0.536025 0.038061
vt 0.536025 0.008232
vt 0.536025 0.243837
vt 0.536025 0.214007
vt 0.536025 0.184414
vt 0.536025 0.155129
vt 0.498239 0.126034
vt 0.498239 0.096939
vt 0.498239 0.067654
vt 0.498239 0.038061
vt 0.498239 0.008232
vt 0.498239 0.243837
vt 0.498239 0.214007
vt 0.498239 0.184414
vt 0.498239 0.155129
vt 0.008232 0.184414
vt 0.008232 0.155129
vt 0.046017 0.155129
vt 0.046017 0.184414
vt 0.008232 0.038061
vt 0.008232 0.008232
vt 0.046017 0.008232
vt 0.046017 0.038061
vt 0.046017 0.214007
vt 0.082804 0.184414
vt 0.082804 0.214007
vt 0.082804 0.008232
vt 0.082804 0.038061
vt 0.046017 0.067654
vt 0.082804 0.067654
vt 0.046017 0.126034
vt 0.046017 0.096939
vt 0.082804 0.096939
vt 0.082804 0.126034
vt 0.008232 0.096939
vt 0.008232 0.067654
vt 0.008232 0.126034
vt 0.008232 0.214007
vt 0.008232 0.243836
vt 0.046017 0.243836
vt 0.082804 0.155129
vt 0.082804 0.243836
vt 0.991768 0.126034
vt 0.991768 0.096939
vt 0.335336 0.126034
vt 0.335336 0.155129
vt 0.335336 0.096939
vt 0.335336 0.067654
vt 0.335336 0.038061
vt 0.335336 0.008232
vt 0.335336 0.214007
vt 0.335336 0.243837
vt 0.335336 0.184414
vt 0.991768 0.243837
vt 0.991768 0.214007
vt 0.991768 0.038062
vt 0.991768 0.008232
vt 0.991768 0.067654
vt 0.991768 0.155129
vt 0.991768 0.184414
vt 0.118397 0.096939
vt 0.118397 0.126034
vt 0.118397 0.067654
vt 0.118397 0.038061
vt 0.118397 0.008232
vt 0.118397 0.214007
vt 0.118397 0.243836
vt 0.118397 0.184414
vt 0.118397 0.155129
vt 0.154053 0.096939
vt 0.154053 0.126034
vt 0.154053 0.067654
vt 0.154053 0.038061
vt 0.154053 0.008232
vt 0.154053 0.214007
vt 0.154053 0.243837
vt 0.154053 0.184414
vt 0.154053 0.155129
vt 0.183864 0.126034
vt 0.183864 0.096939
vt 0.221649 0.096939
vt 0.221649 0.126034
vt 0.183864 0.067654
vt 0.221649 0.067654
vt 0.183864 0.038061
vt 0.221649 0.038061
vt 0.183864 0.008232
vt 0.221649 0.008232
vt 0.183864 0.243837
vt 0.183864 0.214007
vt 0.221649 0.214007
vt 0.221649 0.243837
vt 0.183864 0.184414
vt 0.221649 0.184414
vt 0.183864 0.155129
vt 0.221649 0.155129
vt 0.259600 0.096939
vt 0.259600 0.126034
vt 0.259600 0.067654
vt 0.259600 0.038061
vt 0.259600 0.008232
vt 0.259600 0.214007
vt 0.259600 0.243837
vt 0.259600 0.184414
vt 0.259600 0.155129
vt 0.297551 0.096939
vt 0.297551 0.126034
vt 0.297551 0.067654
vt 0.297551 0.038061
vt 0.297551 0.008232
vt 0.297551 0.214007
vt 0.297551 0.243837
vt 0.297551 0.184414
vt 0.297551 0.155129
s 1
f 9/1/1 17/2/2 18/3/3 10/4/4
f 10/4/4 18/3/3 19/5/5 11/6/6
f 11/6/6 19/5/5 20/7/7 12/8/8
f 12/8/8 20/7/7 21/9/9 13/10/10
f 13/11/10 21/12/9 22/13/11 14/14/12
f 14/14/12 22/13/11 23/15/13 15/16/14
f 15/16/14 23/15/13 24/17/15 16/18/16
f 16/18/16 24/17/15 17/2/2 9/1/1
f 17/2/2 25/19/17 26/20/18 18/3/3
f 18/3/3 26/20/18 27/21/19 19/5/5
f 19/5/5 27/21/19 28/22/20 20/7/7
f 20/7/7 28/22/20 29/23/21 21/9/9
f 21/12/9 29/24/21 30/25/22 22/13/11
f 22/13/11 30/25/22 31/26/23 23/15/13
f 23/15/13 31/26/23 32/27/24 24/17/15
f 24/17/15 32/27/24 25/19/17 17/2/2
f 25/19/17 33/28/25 34/29/26 26/20/18
f 26/20/18 34/29/26 35/30/27 27/21/19
f 27/21/19 35/30/27 36/31/28 28/22/20
f 28/22/20 36/31/28 37/32/29 29/23/21
f 29/24/21 37/33/29 38/34/30 30/25/22
f 30/25/22 38/34/30 39/35/31 31/26/23
f 31/26/23 39/35/31 40/36/32 32/27/24
f 32/27/24 40/36/32 33/28/25 25/19/17
f 33/28/25 1/37/33 2/38/34 34/29/26
f 34/29/26 2/38/34 3/39/35 35/30/27
f 35/30/27 3/39/35 4/40/36 36/31/28
f 36/31/28 4/40/36 5/41/37 37/32/29
f 37/33/29 5/42/37 6/43/38 38/34/30
f 38/34/30 6/43/38 7/44/39 39/35/31
f 39/35/31 7/44/39 8/45/40 40/36/32
f 40/36/32 8/45/40 1/37/33 33/28/25
f 41/46/41 49/47/42 50/48/43 42/49/44
f 42/49/44 50/48/43 51/50/45 43/51/46
f 43/51/46 51/50/45 52/52/47 44/53/48
f 44/53/48 52/52/47 53/54/49 45/55/50
f 45/56/50 53/57/49 54/58/51 46/59/52
f 46/59/52 54/58/51 55/60/53 47/61/54
f 47/61/54 55/60/53 56/62/55 48/63/56
f 48/63/56 56/62/55 49/47/42 41/46/41
f 49/47/42 57/64/57 58/65/58 50/48/43
f 50/48/43 58/65/58 59/66/59 51/50/45
f 51/50/45 59/66/59 60/67/60 52/52/47
f 52/52/47 60/67/60 61/68/61 53/54/49
f 53/57/49 61/69/61 62/70/62 54/58/51
f 54/58/51 62/70/62 63/71/63 55/60/53
f 55/60/53 63/71/63 64/72/64 56/62/55
f 56/62/55 64/72/64 57/64/57 49/47/42
f 57/64/57 65/73/65 66/74/66 58/65/58
f 58/65/58 66/74/66 67/75/67 59/66/59
f 59/66/59 67/75/67 68/76/68 60/67/60
f 60/67/60 68/76/68 69/77/69 61/68/61
f 61/69/61 69/78/69 70/79/70 62/70/62
f 62/70/62 70/79/70 71/80/71 63/71/63
f 63/71/63 71/80/71 72/81/72 64/72/64
f 64/72/64 72/81/72 65/73/65 57/64/57
f 65/73/65 73/82/73 74/83/74 66/74/66
f 66/74/66 74/83/74 75/84/75 67/75/67
f 67/75/67 75/84/75 76/85/76 68/76/68
f 68/76/68 76/85/76 77/86/77 69/77/69
f 69/78/69 77/87/77 78/88/78 70/79/70
f 70/79/70 78/88/78 79/89/79 71/80/71
f 71/80/71 79/89/79 80/90/80 72/81/72
f 72/81/72 80/90/80 73/82/73 65/73/65
f 42/49/44 43/51/46 3/39/35 2/38/34
f 43/51/46 44/53/48 4/40/36 3/39/35
f 44/53/48 45/55/50 5/41/37 4/40/36
f 45/56/50 46/59/52 6/43/38 5/42/37
f 46/59/52 47/61/54 7/44/39 6/43/38
f 47/61/54 48/63/56 8/45/40 7/44/39
f 48/63/56 41/46/41 1/37/33 8/45/40
f 41/46/41 42/49/44 2/38/34 1/37/33
f 95/91/81 96/92/82 104/93/83 103/94/84
f 92/95/85 93/96/86 101/97/87 100/98/88
f 102/99/89 103/94/84 111/100/90 110/101/91
f 100/98/88 101/97/87 109/102/57 108/103/92
f 99/104/93 100/98/88 108/103/92 107/105/94
f 97/106/95 98/107/96 106/108/97 105/109/61
f 90/110/98 91/111/99 99/104/93 98/107/96
f 89/112/100 90/110/98 98/107/96 97/106/95
f 94/113/101 95/91/81 103/94/84 102/99/89
f 93/114/86 94/113/101 102/99/89 101/115/87
f 103/94/84 104/93/83 112/116/102 111/100/90
f 101/115/87 102/99/89 110/101/91 109/117/57
f 96/92/82 89/112/100 97/106/95 104/93/83
f 104/93/83 97/106/95 105/109/61 112/116/102
f 98/107/96 99/104/93 107/105/94 106/108/97
f 91/111/99 92/95/85 100/98/88 99/104/93
f 89/118/100 9/1/1 10/4/4 90/119/98
f 153/120/103 73/82/73 80/90/80 160/121/104
f 154/122/105 74/83/74 73/82/73 153/120/103
f 155/123/106 75/84/75 74/83/74 154/122/105
f 156/124/107 76/85/76 75/84/75 155/123/106
f 157/125/108 77/86/77 76/85/76 156/124/107
f 158/126/109 78/88/78 77/87/77 157/127/108
f 159/128/110 79/89/79 78/88/78 158/126/109
f 160/121/104 80/90/80 79/89/79 159/128/110
f 93/129/86 13/11/10 14/14/12 94/130/101
f 92/131/85 12/8/8 13/10/10 93/132/86
f 91/133/99 11/6/6 12/8/8 92/131/85
f 96/134/82 16/18/16 9/1/1 89/118/100
f 95/135/81 15/16/14 16/18/16 96/134/82
f 94/130/101 14/14/12 15/16/14 95/135/81
f 105/109/61 106/108/97 114/136/111 113/137/112
f 106/108/97 107/105/94 115/138/113 114/136/111
f 107/105/94 108/103/92 116/139/114 115/138/113
f 108/103/92 109/102/57 117/140/115 116/139/114
f 109/117/57 110/101/91 118/141/116 117/142/115
f 110/101/91 111/100/90 119/143/117 118/141/116
f 111/100/90 112/116/102 120/144/118 119/143/117
f 112/116/102 105/109/61 113/137/112 120/144/118
f 113/137/112 114/136/111 82/145/119 81/146/120
f 114/136/111 115/138/113 83/147/121 82/145/119
f 115/138/113 116/139/114 84/148/122 83/147/121
f 116/139/114 117/140/115 85/149/123 84/148/122
f 117/142/115 118/141/116 86/150/124 85/151/123
f 118/141/116 119/143/117 87/152/125 86/150/124
f 119/143/117 120/144/118 88/153/126 87/152/125
f 120/144/118 113/137/112 81/146/120 88/153/126
f 121/154/127 122/155/128 130/156/129 129/157/130
f 122/155/128 123/158/131 131/159/132 130/156/129
f 123/158/131 124/160/133 132/161/134 131/159/132
f 124/160/133 125/162/135 133/163/136 132/161/134
f 125/164/135 126/165/137 134/166/138 133/167/136
f 126/165/137 127/168/139 135/169/140 134/166/138
f 127/168/139 128/170/141 136/171/142 135/169/140
f 128/170/141 121/154/127 129/157/130 136/171/142
f 129/157/130 130/156/129 138/172/143 137/173/21
f 130/156/129 131/159/132 139/174/144 138/172/143
f 131/159/132 132/161/134 140/175/145 139/174/144
f 132/161/134 133/163/136 141/176/17 140/175/145
f 133/167/136 134/166/138 142/177/146 141/178/17
f 134/166/138 135/169/140 143/179/147 142/177/146
f 135/169/140 136/171/142 144/180/148 143/179/147
f 136/171/142 129/157/130 137/173/21 144/180/148
f 137/173/21 138/172/143 146/181/149 145/182/150
f 138/172/143 139/174/144 147/183/151 146/181/149
f 139/174/144 140/175/145 148/184/152 147/183/151
f 140/175/145 141/176/17 149/185/153 148/184/152
f 141/178/17 142/177/146 150/186/154 149/187/153
f 142/177/146 143/179/147 151/188/155 150/186/154
f 143/179/147 144/180/148 152/189/156 151/188/155
f 144/180/148 137/173/21 145/182/150 152/189/156
f 145/182/150 146/181/149 154/122/105 153/120/103
f 146/181/149 147/183/151 155/123/106 154/122/105
f 147/183/151 148/184/152 156/124/107 155/123/106
f 148/184/152 149/185/153 157/125/108 156/124/107
f 149/187/153 150/186/154 158/126/109 157/127/108
f 150/186/154 151/188/155 159/128/110 158/126/109
f 151/188/155 152/189/156 160/121/104 159/128/110
f 152/189/156 145/182/150 153/120/103 160/121/104
f 122/155/128 82/145/119 83/147/121 123/158/131
f 123/158/131 83/147/121 84/148/122 124/160/133
f 124/160/133 84/148/122 85/149/123 125/162/135
f 125/164/135 85/151/123 86/150/124 126/165/137
f 126/165/137 86/150/124 87/152/125 127/168/139
f 127/168/139 87/152/125 88/153/126 128/170/141
f 128/170/141 88/153/126 81/146/120 121/154/127
f 121/154/127 81/146/120 82/145/119 122/155/128
f 90/119/98 10/4/4 11/6/6 91/133/99
f 169/1/157 177/2/158 178/3/159 170/4/160
f 170/4/160 178/3/159 179/5/161 171/6/162
f 171/6/162 179/5/161 180/7/163 172/8/164
f 172/8/164 180/7/163 181/9/165 173/10/166
f 173/11/166 181/12/165 182/13/167 174/14/168
f 174/14/168 182/13/167 183/15/169 175/16/170
f 175/16/170 183/15/169 184/17/171 176/18/172
f 176/18/172 184/17/171 177/2/158 169/1/157
f 177/2/158 185/19/173 186/20/174 178/3/159
f 178/3/159 186/20/174 187/21/175 179/5/161
f 179/5/161 187/21/175 188/22/176 180/7/163
f 180/7/163 188/22/176 189/23/177 181/9/165
f 181/12/165 189/24/177 190/25/178 182/13/167
f 182/13/167 190/25/178 191/26/179 183/15/169
f 183/15/169 191/26/179 192/27/180 184/17/171
f 184/17/171 192/27/180 185/19/173 177/2/158
f 185/19/173 193/28/181 194/29/182 186/20/174
f 186/20/174 194/29/182 195/30/183 187/21/175
f 187/21/175 195/30/183 196/31/184 188/22/176
f 188/22/176 196/31/184 197/32/185 189/23/177
f 189/24/177 197/33/185 198/34/186 190/25/178
f 190/25/178 198/34/186 199/35/187 191/26/179
f 191/26/179 199/35/187 200/36/188 192/27/180
f 192/27/180 200/36/188 193/28/181 185/19/173
f 193/28/181 161/37/189 162/38/190 194/29/182
f 194/29/182 162/38/190 163/39/191 195/30/183
f 195/30/183 163/39/191 164/40/192 196/31/184
f 196/31/184 164/40/192 165/41/193 197/32/185
f 197/33/185 165/42/193 166/43/194 198/34/186
f 198/34/186 166/43/194 167/44/195 199/35/187
f 199/35/187 167/44/195 168/45/196 200/36/188
f 200/36/188 168/45/196 161/37/189 193/28/181
f 201/46/197 209/47/198 210/48/199 202/49/200
f 202/49/200 210/48/199 211/50/201 203/51/202
f 203/51/202 211/50/201 212/52/203 204/53/204
f 204/53/204 212/52/203 213/54/205 205/55/206
f 205/56/206 213/57/205 214/58/207 206/59/208
f 206/59/208 214/58/207 215/60/209 207/61/210
f 207/61/210 215/60/209 216/62/211 208/63/212
f 208/63/212 216/62/211 209/47/198 201/46/197
f 209/47/198 217/64/213 218/65/214 210/48/199
f 210/48/199 218/65/214 219/66/215 211/50/201
f 211/50/201 219/66/215 220/67/216 212/52/203
f 212/52/203 220/67/216 221/68/217 213/54/205
f 213/57/205 221/69/217 222/70/218 214/58/207
f 214/58/207 222/70/218 223/71/219 215/60/209
f 215/60/209 223/71/219 224/72/220 216/62/211
f 216/62/211 224/72/220 217/64/213 209/47/198
f 217/64/213 225/73/221 226/74/222 218/65/214
f 218/65/214 226/74/222 227/75/223 219/66/215
f 219/66/215 227/75/223 228/76/224 220/67/216
f 220/67/216 228/76/224 229/77/225 221/68/217
f 221/69/217 229/78/225 230/79/226 222/70/218
f 222/70/218 230/79/226 231/80/227 223/71/219
f 223/71/219 231/80/227 232/81/228 224/72/220
f 224/72/220 232/81/228 225/73/221 217/64/213
f 225/73/221 233/82/229 234/83/230 226/74/222
f 226/74/222 234/83/230 235/84/231 227/75/223
f 227/75/223 235/84/231 236/85/232 228/76/224
f 228/76/224 236/85/232 237/86/233 229/77/225
f 229/78/225 237/87/233 238/88/234 230/79/226
f 230/79/226 238/88/234 239/89/235 231/80/227
f 231/80/227 239/89/235 240/90/236 232/81/228
f 232/81/228 240/90/236 233/82/229 225/73/221
f 202/49/200 203/51/202 163/39/191 162/38/190
f 203/51/202 204/53/204 164/40/192 163/39/191
f 204/53/204 205/55/206 165/41/193 164/40/192
f 205/56/206 206/59/208 166/43/194 165/42/193
f 206/59/208 207/61/210 167/44/195 166/43/194
f 207/61/210 208/63/212 168/45/196 167/44/195
f 208/63/212 201/46/197 161/37/189 168/45/196
f 201/46/197 202/49/200 162/38/190 161/37/189
f 255/91/237 256/92/238 264/93/239 263/94/240
f 252/95/241 253/96/242 261/97/243 260/98/244
f 262/99/245 263/94/240 271/100/246 270/101/247
f 260/98/244 261/97/243 269/102/213 268/103/248
f 259/104/249 260/98/244 268/103/248 267/105/250
f 257/106/251 258/107/252 266/108/253 265/109/217
f 250/110/254 251/111/255 259/104/249 258/107/252
f 249/112/256 250/110/254 258/107/252 257/106/251
f 254/113/257 255/91/237 263/94/240 262/99/245
f 253/114/242 254/113/257 262/99/245 261/115/243
f 263/94/240 264/93/239 272/116/258 271/100/246
f 261/115/243 262/99/245 270/101/247 269/117/213
f 256/92/238 249/112/256 257/106/251 264/93/239
f 264/93/239 257/106/251 265/109/217 272/116/258
f 258/107/252 259/104/249 267/105/250 266/108/253
f 251/111/255 252/95/241 260/98/244 259/104/249
f 249/118/256 169/1/157 170/4/160 250/119/254
f 313/120/259 233/82/229 240/90/236 320/121/260
f 314/122/261 234/83/230 233/82/229 313/120/259
f 315/123/262 235/84/231 234/83/230 314/122/261
f 316/124/263 236/85/232 235/84/231 315/123/262
f 317/125/264 237/86/233 236/85/232 316/124/263
f 318/126/265 238/88/234 237/87/233 317/127/264
f 319/128/266 239/89/235 238/88/234 318/126/265
f 320/121/260 240/90/236 239/89/235 319/128/266
f 253/129/242 173/11/166 174/14/168 254/130/257
f 252/131/241 172/8/164 173/10/166 253/132/242
f 251/133/255 171/6/162 172/8/164 252/131/241
f 256/134/238 176/18/172 169/1/157 249/118/256
f 255/135/237 175/16/170 176/18/172 256/134/238
f 254/130/257 174/14/168 175/16/170 255/135/237
f 265/109/217 266/108/253 274/136/267 273/137/268
f 266/108/253 267/105/250 275/138/269 274/136/267
f 267/105/250 268/103/248 276/139/270 275/138/269
f 268/103/248 269/102/213 277/140/271 276/139/270
f 269/117/213 270/101/247 278/141/272 277/142/271
f 270/101/247 271/100/246 279/143/273 278/141/272
f 271/100/246 272/116/258 280/144/274 279/143/273
f 272/116/258 265/109/217 273/137/268 280/144/274
f 273/137/268 274/136/267 242/145/275 241/146/276
f 274/136/267 275/138/269 243/147/277 242/145/275
f 275/138/269 276/139/270 244/148/278 243/147/277
f 276/139/270 277/140/271 245/149/279 244/148/278
f 277/142/271 278/141/272 246/150/280 245/151/279
f 278/141/272 279/143/273 247/152/281 246/150/280
f 279/143/273 280/144/274 248/153/282 247/152/281
f 280/144/274 273/137/268 241/146/276 248/153/282
f 281/154/283 282/155/284 290/156/285 289/157/286
f 282/155/284 283/158/287 291/159/288 290/156/285
f 283/158/287 284/160/289 292/161/290 291/159/288
f 284/160/289 285/162/291 293/163/292 292/161/290
f 285/164/291 286/165/293 294/166/294 293/167/292
f 286/165/293 287/168/295 295/169/296 294/166/294
f 287/168/295 288/170/297 296/171/298 295/169/296
f 288/170/297 281/154/283 289/157/286 296/171/298
f 289/157/286 290/156/285 298/172/299 297/173/177
f 290/156/285 291/159/288 299/174/300 298/172/299
f 291/159/288 292/161/290 300/175/301 299/174/300
f 292/161/290 293/163/292 301/176/173 300/175/301
f 293/167/292 294/166/294 302/177/302 301/178/173
f 294/166/294 295/169/296 303/179/303 302/177/302
f 295/169/296 296/171/298 304/180/304 303/179/303
f 296/171/298 289/157/286 297/173/177 304/180/304
f 297/173/177 298/172/299 306/181/305 305/182/306
f 298/172/299 299/174/300 307/183/307 306/181/305
f 299/174/300 300/175/301 308/184/308 307/183/307
f 300/175/301 301/176/173 309/185/309 308/184/308
f 301/178/173 302/177/302 310/186/310 309/187/309
f 302/177/302 303/179/303 311/188/311 310/186/310
f 303/179/303 304/180/304 312/189/312 311/188/311
f 304/180/304 297/173/177 305/182/306 312/189/312
f 305/182/306 306/181/305 314/122/261 313/120/259
f 306/181/305 307/183/307 315/123/262 314/122/261
f 307/183/307 308/184/308 316/124/263 315/123/262
f 308/184/308 309/185/309 317/125/264 316/124/263
f 309/187/309 310/186/310 318/126/265 317/127/264
f 310/186/310 311/188/311 319/128/266 318/126/265
f 311/188/311 312/189/312 320/121/260 319/128/266
f 312/189/312 305/182/306 313/120/259 320/121/260
f 282/155/284 242/145/275 243/147/277 283/158/287
f 283/158/287 243/147/277 244/148/278 284/160/289
f 284/160/289 244/148/278 245/149/279 285/162/291
f 285/164/291 245/151/279 246/150/280 286/165/293
f 286/165/293 246/150/280 247/152/281 287/168/295
f 287/168/295 247/152/281 248/153/282 288/170/297
f 288/170/297 248/153/282 241/146/276 281/154/283
f 281/154/283 241/146/276 242/145/275 282/155/284
f 250/119/254 170/4/160 171/6/162 251/133/255
