# Blender 4.0.2
# www.blender.org
o coffee_cup
v 0.000000 0.133341 0.056161
v -0.000000 -0.000000 0.038760
v -0.010956 0.133341 0.055082
v -0.007562 -0.000000 0.038016
v -0.021492 0.133341 0.051886
v -0.014833 -0.000000 0.035810
v -0.031201 0.133341 0.046696
v -0.021534 -0.000000 0.032228
v -0.039712 0.133341 0.039712
v -0.027408 -0.000000 0.027408
v -0.046696 0.133341 0.031201
v -0.032228 -0.000000 0.021534
v -0.051886 0.133341 0.021492
v -0.035810 -0.000000 0.014833
v -0.055082 0.133341 0.010956
v -0.038016 -0.000000 0.007562
v -0.056161 0.133341 -0.000000
v -0.038760 -0.000000 -0.000000
v -0.055082 0.133341 -0.010956
v -0.038016 -0.000000 -0.007562
v -0.051886 0.133341 -0.021492
v -0.035810 -0.000000 -0.014833
v -0.046696 0.133341 -0.031201
v -0.032228 -0.000000 -0.021534
v -0.039712 0.133341 -0.039712
v -0.027408 -0.000000 -0.027408
v -0.031201 0.133341 -0.046696
v -0.021534 -0.000000 -0.032228
v -0.021492 0.133341 -0.051886
v -0.014833 -0.000000 -0.035810
v -0.010956 0.133341 -0.055082
v -0.007562 -0.000000 -0.038016
v 0.000000 0.133341 -0.056161
v 0.000000 -0.000000 -0.038760
v 0.010956 0.133341 -0.055082
v 0.007562 -0.000000 -0.038016
v 0.021492 0.133341 -0.051886
v 0.014833 -0.000000 -0.035810
v 0.031201 0.133341 -0.046696
v 0.021534 -0.000000 -0.032228
v 0.039712 0.133341 -0.039712
v 0.027408 -0.000000 -0.027408
v 0.046696 0.133341 -0.031201
v 0.032228 -0.000000 -0.021534
v 0.051886 0.133341 -0.021492
v 0.035810 -0.000000 -0.014833
v 0.055082 0.133341 -0.010956
v 0.038016 -0.000000 -0.007562
v 0.056161 0.133341 -0.000000
v 0.038760 -0.000000 0.000000
v 0.055082 0.133341 0.010956
v 0.038016 -0.000000 0.007562
v 0.051886 0.133341 0.021492
v 0.035810 -0.000000 0.014833
v 0.046696 0.133341 0.031201
v 0.032228 -0.000000 0.021534
v 0.039712 0.133341 0.039712
v 0.027408 -0.000000 0.027408
v 0.031201 0.133341 0.046696
v 0.021534 -0.000000 0.032228
v 0.021492 0.133341 0.051886
v 0.014833 -0.000000 0.035810
v 0.010956 0.133341 0.055082
v 0.007562 -0.000000 0.038016
v 0.000000 0.146975 0.050967
v -0.009943 0.146975 0.049988
v -0.019504 0.146975 0.047088
v -0.028316 0.146975 0.042378
v -0.036039 0.146975 0.036039
v -0.042378 0.146975 0.028316
v -0.047088 0.146975 0.019504
v -0.049988 0.146975 0.009943
v -0.050967 0.146975 -0.000000
v -0.049988 0.146975 -0.009943
v -0.047088 0.146975 -0.019504
v -0.042378 0.146975 -0.028316
v -0.036039 0.146975 -0.036039
v -0.028316 0.146975 -0.042378
v -0.019504 0.146975 -0.047088
v -0.009943 0.146975 -0.049988
v 0.000000 0.146975 -0.050968
v 0.009943 0.146975 -0.049988
v 0.019504 0.146975 -0.047088
v 0.028316 0.146975 -0.042378
v 0.036039 0.146975 -0.036039
v 0.042378 0.146975 -0.028316
v 0.047088 0.146975 -0.019504
v 0.049988 0.146975 -0.009943
v 0.050967 0.146975 -0.000000
v 0.049988 0.146975 0.009943
v 0.047088 0.146975 0.019504
v 0.042378 0.146975 0.028316
v 0.036039 0.146975 0.036039
v 0.028316 0.146975 0.042378
v 0.019504 0.146975 0.047088
v 0.009943 0.146975 0.049988
v -0.062772 0.133243 -0.000000
v -0.061566 0.133243 0.012246
v 0.012246 0.133243 -0.061566
v 0.000000 0.133243 -0.062772
v 0.057993 0.133243 0.024022
v 0.061566 0.133243 0.012246
v -0.044386 0.133243 0.044386
v -0.034874 0.133243 0.052193
v -0.034874 0.133243 -0.052193
v -0.044386 0.133243 -0.044386
v 0.057993 0.133243 -0.024022
v 0.052193 0.133243 -0.034874
v 0.012246 0.133243 0.061565
v 0.024022 0.133243 0.057993
v -0.061566 0.133243 -0.012246
v 0.024022 0.133243 -0.057993
v 0.052193 0.133243 0.034874
v -0.052193 0.133243 0.034874
v -0.024022 0.133243 -0.057993
v 0.061566 0.133243 -0.012246
v -0.012246 0.133243 0.061565
v -0.000000 0.133243 0.062772
v -0.057993 0.133243 -0.024022
v 0.034874 0.133243 -0.052193
v 0.044386 0.133243 0.044386
v -0.057993 0.133243 0.024022
v -0.012246 0.133243 -0.061566
v 0.062772 0.133243 -0.000000
v -0.024022 0.133243 0.057993
v -0.052193 0.133243 -0.034874
v 0.044386 0.133243 -0.044386
v 0.034874 0.133243 0.052193
v 0.012115 0.137219 -0.060905
v -0.043910 0.137219 0.043910
v -0.034500 0.137219 -0.051633
v 0.057371 0.137219 -0.023764
v 0.012115 0.137219 0.060905
v -0.060905 0.137219 -0.012115
v 0.051633 0.137219 0.034500
v -0.051633 0.137219 0.034500
v -0.012115 0.137219 0.060905
v -0.057371 0.137219 0.023764
v 0.000000 0.137219 -0.062098
v 0.060905 0.137219 0.012115
v 0.062098 0.137219 -0.000000
v -0.034500 0.137219 0.051633
v -0.023764 0.137219 0.057371
v 0.051633 0.137219 -0.034500
v 0.043910 0.137219 -0.043910
v -0.062098 0.137219 -0.000000
v 0.057371 0.137219 0.023764
v -0.000000 0.137219 0.062098
v 0.023764 0.137219 -0.057371
v -0.023764 0.137219 -0.057371
v 0.060905 0.137219 -0.012115
v -0.057371 0.137219 -0.023764
v 0.034500 0.137219 -0.051633
v 0.043910 0.137219 0.043910
v -0.060905 0.137219 0.012115
v -0.012115 0.137219 -0.060905
v -0.051633 0.137219 -0.034500
v -0.043910 0.137219 -0.043910
v 0.034500 0.137219 0.051633
v 0.023764 0.137219 0.057371
v -0.000000 0.146975 0.056161
v -0.010956 0.146975 0.055082
v -0.021492 0.146975 0.051886
v -0.031201 0.146975 0.046696
v -0.039712 0.146975 0.039712
v -0.046696 0.146975 0.031201
v -0.051886 0.146975 0.021492
v -0.055082 0.146975 0.010956
v -0.056161 0.146975 -0.000000
v -0.055082 0.146975 -0.010956
v -0.051886 0.146975 -0.021492
v -0.046696 0.146975 -0.031201
v -0.039712 0.146975 -0.039712
v -0.031201 0.146975 -0.046696
v -0.021492 0.146975 -0.051886
v -0.010956 0.146975 -0.055082
v 0.000000 0.146975 -0.056161
v 0.010956 0.146975 -0.055082
v 0.021492 0.146975 -0.051886
v 0.031201 0.146975 -0.046696
v 0.039712 0.146975 -0.039712
v 0.046696 0.146975 -0.031201
v 0.051886 0.146975 -0.021492
v 0.055082 0.146975 -0.010956
v 0.056161 0.146975 -0.000000
v 0.055082 0.146975 0.010956
v 0.051886 0.146975 0.021492
v 0.046696 0.146975 0.031201
v 0.039712 0.146975 0.039712
v 0.031201 0.146975 0.046696
v 0.021492 0.146975 0.051886
v 0.010956 0.146975 0.055082
v 0.000000 0.163264 0.041112
v -0.005281 0.161581 0.041367
v -0.014831 0.163264 0.035806
v -0.021532 0.163264 0.032224
v -0.027404 0.163264 0.027404
v -0.032224 0.163264 0.021531
v -0.035806 0.163264 0.014831
v -0.038011 0.163264 0.007561
v -0.038756 0.163264 -0.000000
v -0.038011 0.163264 -0.007561
v -0.035806 0.163264 -0.014831
v -0.032224 0.163264 -0.021532
v -0.027404 0.163264 -0.027404
v -0.021532 0.163264 -0.032224
v -0.014831 0.163264 -0.035806
v -0.007561 0.163264 -0.038011
v 0.007561 0.163264 -0.038011
v 0.014831 0.163264 -0.035806
v 0.021532 0.163264 -0.032224
v 0.027404 0.163264 -0.027404
v 0.032224 0.163264 -0.021532
v 0.035806 0.163264 -0.014831
v 0.038011 0.163264 -0.007561
v 0.038756 0.163264 -0.000000
v 0.038011 0.163264 0.007561
v 0.035806 0.163264 0.014831
v 0.032224 0.163264 0.021531
v 0.027404 0.163264 0.027404
v 0.021532 0.163264 0.032224
v 0.014831 0.163264 0.035806
v 0.005281 0.161581 0.041367
v 0.000000 0.161581 0.044753
v -0.005504 0.161581 0.044163
v -0.018325 0.163264 0.044240
v -0.026604 0.163264 0.039815
v -0.033860 0.163264 0.033860
v -0.039815 0.163264 0.026604
v -0.044240 0.163264 0.018325
v -0.046965 0.163264 0.009342
v -0.047885 0.163264 -0.000000
v -0.046965 0.163264 -0.009342
v -0.044240 0.163264 -0.018325
v -0.039815 0.163264 -0.026604
v -0.033860 0.163264 -0.033860
v -0.026604 0.163264 -0.039815
v -0.018325 0.163264 -0.044240
v -0.009342 0.163264 -0.046965
v -0.000000 0.163264 -0.047885
v 0.009342 0.163264 -0.046965
v 0.018325 0.163264 -0.044240
v 0.026604 0.163264 -0.039815
v 0.033860 0.163264 -0.033860
v 0.039815 0.163264 -0.026604
v 0.044240 0.163264 -0.018325
v 0.046965 0.163264 -0.009342
v 0.047885 0.163264 -0.000000
v 0.046965 0.163264 0.009342
v 0.044240 0.163264 0.018325
v 0.039815 0.163264 0.026604
v 0.033860 0.163264 0.033860
v 0.026604 0.163264 0.039815
v 0.018325 0.163264 0.044240
v 0.005504 0.161581 0.044163
v -0.057624 0.140994 -0.000000
v 0.011242 0.140994 -0.056517
v 0.053238 0.140994 0.022052
v -0.040747 0.140994 0.040747
v -0.032014 0.140994 -0.047913
v 0.053238 0.140994 -0.022052
v 0.011242 0.140994 0.056517
v -0.056517 0.140994 -0.011242
v 0.022052 0.140994 -0.053238
v 0.047913 0.140994 0.032014
v -0.047913 0.140994 0.032014
v -0.022052 0.140994 -0.053238
v 0.056517 0.140994 -0.011242
v -0.011242 0.140994 0.056517
v -0.053238 0.140994 -0.022052
v 0.032014 0.140994 -0.047913
v 0.040747 0.140994 0.040747
v -0.053238 0.140994 0.022052
v -0.011242 0.140994 -0.056517
v 0.057624 0.140994 -0.000000
v -0.022052 0.140994 0.053238
v -0.047913 0.140994 -0.032014
v 0.040747 0.140994 -0.040747
v 0.032014 0.140994 0.047913
v -0.056517 0.140994 0.011242
v -0.000000 0.140994 -0.057624
v 0.056517 0.140994 0.011242
v -0.032014 0.140994 0.047913
v -0.040747 0.140994 -0.040747
v 0.047913 0.140994 -0.032014
v 0.022052 0.140994 0.053238
v 0.000000 0.140994 0.057624
v -0.000000 0.163264 0.047885
v -0.009342 0.163264 0.046965
v 0.009342 0.163264 0.046965
v -0.000000 0.163264 0.038756
v -0.007561 0.163264 0.038011
v 0.007561 0.163264 0.038011
v -0.008451 0.163264 0.042488
v 0.000000 0.161581 0.043320
v -0.016578 0.163264 0.040023
v -0.024068 0.163264 0.036020
v -0.030632 0.163264 0.030632
v -0.036020 0.163264 0.024068
v -0.040023 0.163264 0.016578
v -0.042488 0.163264 0.008451
v -0.043320 0.163264 -0.000000
v -0.042488 0.163264 -0.008451
v -0.040023 0.163264 -0.016578
v -0.036020 0.163264 -0.024068
v -0.030632 0.163264 -0.030632
v -0.024068 0.163264 -0.036020
v -0.016578 0.163264 -0.040023
v -0.008451 0.163264 -0.042488
v 0.000000 0.163264 -0.043320
v 0.008451 0.163264 -0.042488
v 0.016578 0.163264 -0.040023
v 0.024068 0.163264 -0.036020
v 0.030632 0.163264 -0.030632
v 0.036020 0.163264 -0.024068
v 0.040023 0.163264 -0.016578
v 0.042488 0.163264 -0.008451
v 0.043320 0.163264 -0.000000
v 0.042488 0.163264 0.008451
v 0.040023 0.163264 0.016578
v 0.036020 0.163264 0.024068
v 0.030632 0.163264 0.030632
v 0.024068 0.163264 0.036020
v 0.016578 0.163264 0.040023
v 0.008451 0.163264 0.042488
v -0.006180 0.161581 0.042771
v 0.006180 0.161581 0.042771
v -0.011338 0.118874 0.057002
v -0.009915 0.031380 0.049846
v -0.022241 0.118874 0.053695
v -0.019449 0.031380 0.046954
v -0.032289 0.118874 0.048324
v -0.028235 0.031380 0.042257
v -0.041096 0.118874 0.041096
v -0.035937 0.031380 0.035937
v -0.048324 0.118874 0.032289
v -0.042257 0.031380 0.028235
v -0.053695 0.118874 0.022241
v -0.046954 0.031380 0.019449
v -0.057002 0.118874 0.011338
v -0.049846 0.031380 0.009915
v -0.058119 0.118874 -0.000000
v -0.050822 0.031380 -0.000000
v -0.057002 0.118874 -0.011338
v -0.049846 0.031380 -0.009915
v -0.053695 0.118874 -0.022241
v -0.046954 0.031380 -0.019449
v -0.048324 0.118874 -0.032289
v -0.042257 0.031380 -0.028235
v -0.041096 0.118874 -0.041096
v -0.035937 0.031380 -0.035937
v -0.032289 0.118874 -0.048324
v -0.028235 0.031380 -0.042257
v -0.022241 0.118874 -0.053695
v -0.019449 0.031380 -0.046954
v -0.011338 0.118874 -0.057002
v -0.009915 0.031380 -0.049846
v 0.000000 0.118874 -0.058119
v 0.000000 0.031380 -0.050822
v -0.000000 0.031765 0.047690
v 0.000000 0.119753 0.055054
v 0.011338 0.118874 -0.057002
v -0.010745 0.119753 0.054018
v -0.009304 0.031765 0.046773
v 0.009915 0.031380 -0.049846
v -0.021082 0.119753 0.050896
v -0.018250 0.031765 0.044059
v 0.022241 0.118874 -0.053695
v -0.030606 0.119753 0.045805
v -0.026495 0.031765 0.039652
v 0.019449 0.031380 -0.046954
v -0.038881 0.119753 0.038881
v -0.033722 0.031765 0.033722
v 0.032289 0.118874 -0.048324
v -0.045719 0.119753 0.030549
v -0.039652 0.031765 0.026495
v 0.028235 0.031380 -0.042257
v -0.050854 0.119753 0.021064
v -0.044059 0.031765 0.018250
v 0.041096 0.118874 -0.041096
v -0.053930 0.119753 0.010727
v -0.046773 0.031765 0.009304
v 0.035937 0.031380 -0.035937
v -0.054986 0.119753 -0.000000
v -0.047690 0.031765 -0.000000
v 0.048324 0.118874 -0.032289
v -0.054027 0.119753 -0.010747
v -0.046773 0.031765 -0.009304
v 0.042257 0.031380 -0.028235
v -0.050801 0.119753 -0.021042
v -0.044059 0.031765 -0.018250
v 0.053695 0.118874 -0.022241
v -0.045785 0.119753 -0.030593
v -0.039652 0.031765 -0.026495
v 0.046954 0.031380 -0.019449
v -0.038881 0.119753 -0.038881
v -0.033722 0.031765 -0.033722
v 0.057002 0.118874 -0.011338
v -0.030583 0.119753 -0.045771
v -0.026495 0.031765 -0.039652
v 0.049846 0.031380 -0.009915
v -0.021042 0.119753 -0.050801
v -0.018250 0.031765 -0.044059
v 0.058119 0.118874 -0.000000
v -0.010754 0.119753 -0.054063
v -0.009304 0.031765 -0.046773
v 0.050822 0.031380 -0.000000
v 0.000000 0.119753 -0.054986
v 0.000000 0.031765 -0.047690
v 0.057002 0.118874 0.011338
v 0.010727 0.119753 -0.053930
v 0.009304 0.031765 -0.046773
v 0.049846 0.031380 0.009915
v 0.021088 0.119753 -0.050911
v 0.018250 0.031765 -0.044059
v 0.053695 0.118874 0.022241
v 0.030615 0.119753 -0.045819
v 0.026495 0.031765 -0.039652
v 0.046954 0.031380 0.019449
v 0.038881 0.119753 -0.038881
v 0.033722 0.031765 -0.033722
v 0.048324 0.118874 0.032289
v 0.045719 0.119753 -0.030549
v 0.039652 0.031765 -0.026495
v 0.042257 0.031380 0.028235
v 0.050801 0.119753 -0.021042
v 0.044059 0.031765 -0.018250
v 0.041096 0.118874 0.041096
v 0.053991 0.119753 -0.010739
v 0.046773 0.031765 -0.009304
v 0.035937 0.031380 0.035937
v 0.055049 0.119753 -0.000000
v 0.047690 0.031765 -0.000000
v 0.032289 0.118874 0.048324
v 0.053930 0.119753 0.010727
v 0.046773 0.031765 0.009304
v 0.028235 0.031380 0.042257
v 0.050801 0.119753 0.021042
v 0.044059 0.031765 0.018250
v 0.022241 0.118874 0.053695
v 0.045719 0.119753 0.030549
v 0.039652 0.031765 0.026495
v 0.019449 0.031380 0.046954
v 0.038942 0.119753 0.038942
v 0.033722 0.031765 0.033722
v -0.000000 0.118874 0.058119
v 0.030549 0.119753 0.045719
v 0.026495 0.031765 0.039652
v 0.011338 0.118874 0.057002
v 0.021069 0.119753 0.050865
v 0.018250 0.031765 0.044059
v -0.000000 0.031380 0.050822
v 0.010727 0.119753 0.053930
v 0.009304 0.031765 0.046773
v 0.009915 0.031380 0.049846
v -0.008787 -0.000000 0.044175
v -0.000000 -0.000000 0.045040
v -0.017236 -0.000000 0.041612
v -0.025023 -0.000000 0.037450
v -0.031848 -0.000000 0.031848
v -0.037450 -0.000000 0.025023
v -0.041612 -0.000000 0.017236
v -0.044175 -0.000000 0.008787
v -0.045040 -0.000000 -0.000000
v -0.044175 -0.000000 -0.008787
v -0.041612 -0.000000 -0.017236
v -0.037450 -0.000000 -0.025023
v -0.031848 -0.000000 -0.031848
v -0.025023 -0.000000 -0.037450
v -0.017236 -0.000000 -0.041612
v -0.008787 -0.000000 -0.044175
v 0.000000 -0.000000 -0.045040
v 0.008787 -0.000000 -0.044175
v 0.017236 -0.000000 -0.041612
v 0.025023 -0.000000 -0.037450
v 0.031848 -0.000000 -0.031848
v 0.037450 -0.000000 -0.025023
v 0.041612 -0.000000 -0.017236
v 0.044175 -0.000000 -0.008787
v 0.045040 -0.000000 0.000000
v 0.044175 -0.000000 0.008787
v 0.041612 -0.000000 0.017236
v 0.037450 -0.000000 0.025023
v 0.031848 -0.000000 0.031848
v 0.025023 -0.000000 0.037450
v 0.017236 -0.000000 0.041612
v 0.008787 -0.000000 0.044175
v -0.006333 0.017001 0.031837
v 0.000000 0.017001 0.032460
v -0.012422 0.017001 0.029989
v -0.018034 0.017001 0.026990
v -0.022953 0.017001 0.022953
v -0.026990 0.017001 0.018034
v -0.029989 0.017001 0.012422
v -0.031837 0.017001 0.006333
v -0.032460 0.017001 -0.000000
v -0.031837 0.017001 -0.006333
v -0.029989 0.017001 -0.012422
v -0.026990 0.017001 -0.018034
v -0.022953 0.017001 -0.022953
v -0.018034 0.017001 -0.026990
v -0.012422 0.017001 -0.029989
v -0.006333 0.017001 -0.031837
v 0.000000 0.017001 -0.032460
v 0.006333 0.017001 -0.031837
v 0.012422 0.017001 -0.029989
v 0.018034 0.017001 -0.026990
v 0.022953 0.017001 -0.022953
v 0.026990 0.017001 -0.018034
v 0.029989 0.017001 -0.012422
v 0.031837 0.017001 -0.006333
v 0.032460 0.017001 -0.000000
v 0.031837 0.017001 0.006333
v 0.029989 0.017001 0.012422
v 0.026990 0.017001 0.018034
v 0.022953 0.017001 0.022953
v 0.018034 0.017001 0.026990
v 0.012422 0.017001 0.029989
v 0.006333 0.017001 0.031837
v -0.000000 0.154262 0.030125
v -0.006117 0.154334 0.029527
v -0.011999 0.154549 0.027756
v -0.017420 0.154898 0.024879
v -0.022171 0.155367 0.021008
v -0.026070 0.155939 0.016292
v -0.028968 0.156592 0.010910
v -0.030752 0.157300 0.005071
v -0.031354 0.158037 -0.001001
v -0.030752 0.158773 -0.007074
v -0.028968 0.159482 -0.012913
v -0.026070 0.160134 -0.018294
v -0.022171 0.160706 -0.023011
v -0.017419 0.161176 -0.026882
v -0.011999 0.161525 -0.029758
v -0.006117 0.161739 -0.031529
v 0.006117 0.161739 -0.031529
v 0.011999 0.161525 -0.029758
v 0.017420 0.161176 -0.026881
v 0.022171 0.160706 -0.023010
v 0.026070 0.160134 -0.018294
v 0.028968 0.159481 -0.012912
v 0.030752 0.158773 -0.007073
v 0.031354 0.158037 -0.001001
v 0.030752 0.157300 0.005072
v 0.028968 0.156592 0.010911
v 0.026070 0.155939 0.016292
v 0.022171 0.155367 0.021009
v 0.017419 0.154898 0.024880
v 0.011999 0.154549 0.027756
v 0.006117 0.154334 0.029527
v -0.000000 0.163264 -0.038756
v 0.000000 0.161812 -0.032127
v -0.007063 0.163264 0.042719
v -0.006011 0.163264 0.044885
v 0.000000 0.163264 0.045529
v 0.006011 0.163264 0.044885
v 0.007063 0.163264 0.042719
v 0.005676 0.163264 0.040553
v 0.000000 0.161581 0.041887
v -0.005676 0.163264 0.040553
v -0.036078 0.157173 0.006123
v -0.036784 0.158037 -0.001001
v 0.030585 0.160497 -0.021288
v 0.033984 0.159732 -0.014975
v -0.036077 0.158901 -0.008125
v 0.036078 0.158901 -0.008125
v -0.033984 0.159732 -0.014976
v 0.036784 0.158037 -0.001001
v -0.030585 0.160497 -0.021289
v 0.036077 0.157173 0.006123
v -0.026010 0.161169 -0.026822
v 0.033984 0.156342 0.012974
v -0.020436 0.161719 -0.031364
v 0.030585 0.155576 0.019287
v -0.014076 0.162129 -0.034738
v -0.000000 0.153608 0.035516
v -0.007177 0.153693 0.034814
v 0.026010 0.154905 0.024820
v -0.007176 0.162381 -0.036816
v -0.014077 0.153945 0.032736
v 0.020436 0.154354 0.029362
v -0.020437 0.154354 0.029361
v 0.014076 0.153945 0.032736
v 0.000000 0.162466 -0.037518
v 0.007177 0.162381 -0.036816
v -0.026011 0.154905 0.024820
v 0.007176 0.153693 0.034814
v 0.014077 0.162129 -0.034738
v -0.030585 0.155576 0.019286
v 0.020437 0.161719 -0.031363
v -0.033984 0.156342 0.012973
v 0.026011 0.161169 -0.026822
v 0.000000 0.158037 -0.001001
v 0.000000 0.017001 -0.000000
vn -0.3812 -0.0788 0.9211
vn -0.5557 -0.0805 0.8275
vn -0.7062 -0.0842 0.7029
vn -0.7063 -0.0842 0.7029
vn -0.8277 -0.0850 0.5546
vn -0.9206 -0.0840 0.3813
vn -0.9775 -0.0850 0.1931
vn -0.9964 -0.0843 0.0022
vn -0.9964 -0.0843 0.0023
vn -0.9774 -0.0825 -0.1944
vn -0.9205 -0.0828 -0.3818
vn -0.8286 -0.0832 -0.5536
vn -0.7044 -0.0835 -0.7049
vn -0.5536 -0.0839 -0.8285
vn -0.3829 -0.0825 -0.9201
vn -0.1944 -0.0812 -0.9775
vn 0.0031 -0.0836 -0.9965
vn 0.1918 -0.0839 -0.9778
vn 0.1917 -0.0839 -0.9779
vn 0.3790 -0.0796 -0.9220
vn 0.3789 -0.0796 -0.9220
vn 0.5561 -0.0796 -0.8273
vn 0.7065 -0.0839 -0.7027
vn 0.8284 -0.0861 -0.5535
vn 0.9200 -0.0850 -0.3826
vn 0.9771 -0.0827 -0.1958
vn 0.9966 -0.0827 0.0014
vn 0.9770 -0.0850 0.1958
vn 0.9204 -0.0861 0.3813
vn 0.8296 -0.0845 0.5520
vn 0.7047 -0.0830 0.7047
vn 0.5533 -0.0832 0.8288
vn 0.3813 -0.0836 0.9206
vn 0.1944 -0.0836 0.9774
vn 0.0020 -0.0820 0.9966
vn -0.1937 -0.0797 0.9778
vn 0.0021 -0.0820 0.9966
vn -0.0467 -0.9925 -0.1127
vn -0.0238 -0.9925 -0.1196
vn -0.4560 0.7643 0.4560
vn -0.5362 0.7643 0.3583
vn -0.3583 0.7643 -0.5362
vn -0.2468 0.7643 -0.5958
vn 0.5958 0.7643 -0.2468
vn 0.6325 0.7643 -0.1258
vn -0.0000 0.7643 0.6449
vn -0.1258 0.7643 0.6325
vn -0.6325 0.7643 -0.1258
vn -0.5958 0.7643 -0.2468
vn 0.2468 0.7643 -0.5958
vn 0.3583 0.7643 -0.5362
vn -0.3583 0.7643 0.5362
vn 0.6325 0.7643 0.1258
vn 0.5958 0.7643 0.2468
vn -0.4560 0.7643 -0.4560
vn 0.5362 0.7643 -0.3583
vn 0.2468 0.7643 0.5958
vn 0.1258 0.7643 0.6325
vn 0.4560 0.7643 -0.4560
vn -0.9670 0.1670 -0.1924
vn -0.9860 0.1670 -0.0000
vn 0.5362 0.7643 0.3583
vn 0.4560 0.7643 0.4560
vn -0.1258 0.7643 -0.6325
vn 0.6449 0.7643 -0.0000
vn -0.5958 0.7643 0.2468
vn -0.5362 0.7643 -0.3583
vn -0.2468 0.7643 0.5958
vn 0.3583 0.7643 0.5362
vn -0.6325 0.7643 0.1258
vn -0.0000 0.7643 -0.6449
vn 0.1258 0.7643 -0.6325
vn -0.9670 0.1670 0.1924
vn -0.0082 -0.9999 -0.0123
vn -0.0056 -0.9999 -0.0136
vn -0.0104 -0.9999 0.0104
vn -0.0123 -0.9999 0.0082
vn 0.0123 -0.9999 0.0082
vn 0.0104 -0.9999 0.0104
vn 0.0056 -0.9999 -0.0136
vn 0.0082 -0.9999 -0.0123
vn -0.0148 -0.9999 -0.0000
vn -0.0145 -0.9999 -0.0029
vn 0.0029 -0.9999 0.0145
vn -0.0000 -0.9999 0.0148
vn 0.0136 -0.9999 -0.0056
vn 0.0145 -0.9999 -0.0029
vn -0.0104 -0.9999 -0.0104
vn -0.0082 -0.9999 0.0123
vn 0.0136 -0.9999 0.0056
vn 0.0029 -0.9999 -0.0145
vn -0.0145 -0.9999 0.0029
vn 0.0056 -0.9999 0.0136
vn 0.0123 -0.9999 -0.0082
vn -0.0123 -0.9999 -0.0082
vn -0.0056 -0.9999 0.0136
vn 0.0145 -0.9999 0.0029
vn -0.0029 -0.9999 -0.0145
vn -0.0000 -0.9999 -0.0148
vn -0.0136 -0.9999 0.0056
vn 0.0082 -0.9999 0.0123
vn 0.0104 -0.9999 -0.0104
vn -0.0136 -0.9999 -0.0056
vn -0.0029 -0.9999 0.0145
vn 0.0148 -0.9999 -0.0000
vn 0.8076 0.2377 -0.5396
vn 0.6868 0.2377 -0.6868
vn -0.6868 0.2377 -0.6868
vn -0.8076 0.2377 -0.5396
vn -0.5396 0.2377 0.8076
vn -0.3717 0.2377 0.8974
vn 0.9527 0.2377 0.1895
vn 0.9713 0.2377 -0.0000
vn -0.0000 0.2377 -0.9713
vn -0.1895 0.2377 -0.9527
vn -0.9527 0.2377 0.1895
vn -0.8974 0.2377 0.3717
vn 0.5396 0.2377 0.8076
vn 0.6868 0.2377 0.6868
vn 0.5396 0.2377 -0.8076
vn -0.8974 0.2377 -0.3717
vn -0.1895 0.2377 0.9527
vn 0.9527 0.2377 -0.1895
vn -0.3717 0.2377 -0.8974
vn -0.8076 0.2377 0.5396
vn 0.8076 0.2377 0.5396
vn 0.3717 0.2377 -0.8974
vn -0.9527 0.2377 -0.1895
vn -0.0000 0.2377 0.9713
vn 0.1895 0.2377 0.9527
vn 0.8974 0.2377 -0.3717
vn -0.5396 0.2377 -0.8076
vn -0.6868 0.2377 0.6868
vn 0.8974 0.2377 0.3717
vn 0.1895 0.2377 -0.9527
vn 0.3717 0.2377 0.8974
vn -0.9713 0.2377 -0.0000
vn -0.5478 0.1670 0.8198
vn -0.6972 0.1670 0.6972
vn 0.9670 0.1670 0.1924
vn 0.9109 0.1670 0.3773
vn -0.6972 0.1670 -0.6972
vn -0.5478 0.1670 -0.8198
vn 0.8198 0.1670 -0.5478
vn 0.9109 0.1670 -0.3773
vn 0.3773 0.1670 0.9109
vn 0.1924 0.1670 0.9670
vn 0.5478 0.1670 -0.8198
vn 0.6972 0.1670 -0.6972
vn 0.3773 0.1670 -0.9109
vn 0.1924 0.1670 -0.9670
vn -0.3773 0.1670 -0.9109
vn -0.1924 0.1670 -0.9670
vn 0.9670 0.1670 -0.1924
vn 0.9860 0.1670 -0.0000
vn -0.8198 0.1670 0.5478
vn -0.9109 0.1670 0.3773
vn -0.9109 0.1670 -0.3773
vn -0.8198 0.1670 -0.5478
vn -0.0000 0.1670 0.9860
vn -0.1924 0.1670 0.9670
vn -0.3773 0.1670 0.9109
vn 0.6972 0.1670 0.6972
vn 0.5478 0.1670 0.8198
vn -0.0000 0.1670 -0.9860
vn 0.8198 0.1670 0.5478
vn -0.0000 1.0000 -0.0000
vn 0.9260 0.3342 -0.1753
vn 0.9280 0.3350 -0.1632
vn 0.9361 0.3510 0.0238
vn 0.9369 0.3494 0.0094
vn -0.0000 0.1859 -0.9826
vn 0.1917 0.1859 -0.9637
vn -0.7297 0.4670 0.4994
vn -0.7150 0.4747 0.5133
vn -0.8286 0.4166 0.3740
vn -0.8380 0.4117 0.3580
vn 0.9030 0.3768 0.2065
vn 0.9076 0.3740 0.1906
vn -0.9030 0.3768 0.2065
vn -0.9076 0.3740 0.1906
vn 0.8286 0.4166 0.3740
vn 0.8380 0.4117 0.3580
vn -0.9361 0.3510 0.0238
vn -0.9369 0.3494 0.0094
vn 0.7150 0.4747 0.5133
vn 0.7297 0.4670 0.4994
vn -0.9280 0.3350 -0.1632
vn -0.9260 0.3342 -0.1753
vn 0.5682 0.5536 0.6089
vn 0.5874 0.5429 0.6002
vn -0.8803 0.3258 -0.3450
vn -0.8766 0.3254 -0.3546
vn 0.4022 0.6479 0.6468
vn 0.4224 0.6362 0.6456
vn -0.7958 0.3210 -0.5135
vn -0.7913 0.3209 -0.5205
vn 0.2412 0.7395 0.6285
vn 0.2563 0.7309 0.6325
vn -0.0000 0.3192 -0.9477
vn 0.1879 0.3190 -0.9289
vn 0.1864 0.3190 -0.9292
vn -0.6788 0.3190 -0.6615
vn -0.6741 0.3189 -0.6662
vn 0.1074 0.8038 0.5852
vn 0.1141 0.8010 0.5877
vn 0.3684 0.3187 -0.8733
vn 0.3655 0.3187 -0.8746
vn -0.5343 0.3185 -0.7830
vn -0.5302 0.3185 -0.7858
vn -0.1141 0.8010 0.5877
vn -0.0000 0.8263 0.5633
vn -0.1074 0.8038 0.5852
vn 0.5343 0.3185 -0.7830
vn 0.5302 0.3185 -0.7858
vn -0.3684 0.3187 -0.8733
vn -0.3654 0.3187 -0.8746
vn 0.6788 0.3190 -0.6615
vn 0.6742 0.3189 -0.6662
vn -0.1879 0.3190 -0.9289
vn -0.1864 0.3190 -0.9292
vn -0.2412 0.7394 0.6285
vn -0.2563 0.7309 0.6325
vn 0.7958 0.3210 -0.5134
vn 0.7913 0.3209 -0.5205
vn -0.4023 0.6479 0.6468
vn -0.4224 0.6362 0.6456
vn 0.8803 0.3258 -0.3450
vn 0.8766 0.3254 -0.3546
vn -0.5682 0.5536 0.6089
vn -0.5874 0.5429 0.6002
vn -0.3588 -0.3475 0.8663
vn -0.1829 -0.3475 0.9197
vn 0.9207 -0.0831 0.3814
vn 0.9774 -0.0831 0.1944
vn 0.9965 -0.0831 -0.0000
vn 0.9774 -0.0831 -0.1944
vn 0.0007 0.9621 -0.2728
vn 0.0006 0.9621 -0.2728
vn -0.0537 0.9613 -0.2700
vn 0.1196 -0.9925 0.0238
vn 0.1127 -0.9925 0.0467
vn 0.0862 -0.9925 -0.0862
vn 0.1014 -0.9925 -0.0678
vn -0.1196 -0.9925 -0.0238
vn -0.1127 -0.9925 -0.0467
vn -0.2271 0.9620 -0.1517
vn -0.2528 0.9618 -0.1048
vn 0.0004 0.9616 0.2745
vn 0.0532 0.9621 0.2676
vn -0.0862 -0.9925 0.0862
vn -0.1014 -0.9925 0.0678
vn -0.2515 0.9622 0.1042
vn -0.2253 0.9625 0.1508
vn -0.2253 0.9625 0.1509
vn 0.2262 0.9624 0.1506
vn 0.2261 0.9624 0.1507
vn 0.2494 0.9629 0.1033
vn 0.0238 -0.9925 0.1196
vn -0.0000 -0.9925 0.1220
vn -0.9965 -0.0831 -0.0000
vn -0.9774 -0.0831 0.1944
vn 0.2505 0.9625 -0.1041
vn 0.2505 0.9625 -0.1040
vn 0.2245 0.9629 -0.1500
vn -0.9774 -0.0831 -0.1944
vn 0.1014 -0.9925 0.0678
vn 0.0526 0.9622 -0.2673
vn 0.0527 0.9622 -0.2673
vn 0.1127 -0.9925 -0.0467
vn -0.1014 -0.9925 -0.0678
vn -0.0539 0.9608 0.2719
vn -0.1929 0.9620 -0.1930
vn -0.0000 -0.9925 -0.1220
vn -0.1127 -0.9925 0.0467
vn -0.2660 0.9625 0.0526
vn -0.2660 0.9625 0.0527
vn 0.1933 0.9619 0.1933
vn 0.0238 -0.9925 -0.1196
vn -0.0238 -0.9925 0.1196
vn -0.1064 0.9605 0.2570
vn 0.2684 0.9618 -0.0537
vn 0.2684 0.9618 -0.0536
vn 0.8286 -0.0831 0.5536
vn 0.0862 -0.9925 0.0862
vn -0.9207 -0.0831 -0.3814
vn 0.1056 0.9608 -0.2564
vn 0.1057 0.9608 -0.2564
vn 0.1196 -0.9925 -0.0238
vn -0.0862 -0.9925 -0.0862
vn -0.1513 0.9622 -0.2265
vn 0.0467 -0.9925 -0.1127
vn -0.1196 -0.9925 0.0238
vn 0.1930 0.9622 -0.1923
vn 0.1931 0.9622 -0.1922
vn 0.0467 -0.9925 0.1127
vn 0.2660 0.9625 0.0532
vn -0.1927 0.9623 0.1921
vn -0.1928 0.9623 0.1921
vn -0.0678 -0.9925 0.1014
vn 0.1044 0.9621 0.2519
vn -0.2686 0.9618 -0.0534
vn -0.1220 -0.9925 -0.0000
vn 0.0678 -0.9925 -0.1014
vn -0.1052 0.9617 -0.2531
vn -0.0678 -0.9925 -0.1014
vn 0.1220 -0.9925 -0.0000
vn 0.1544 0.9608 -0.2303
vn 0.1545 0.9608 -0.2302
vn 0.0678 -0.9925 0.1014
vn 0.2737 0.9618 0.0003
vn -0.1538 0.9611 0.2294
vn -0.1539 0.9611 0.2294
vn -0.0467 -0.9925 0.1127
vn 0.1517 0.9620 0.2272
vn -0.2720 0.9623 0.0004
vn -0.2720 0.9623 0.0005
vn -0.0000 -1.0000 -0.0000
vn 0.3814 -0.0831 0.9207
vn 0.1944 -0.0831 0.9774
vn 0.3760 0.1859 -0.9078
vn 0.6948 0.1859 0.6948
vn 0.5459 0.1859 0.8170
vn 0.8170 0.1859 0.5459
vn -0.0000 0.1859 0.9826
vn -0.1917 0.1859 0.9637
vn 0.9078 0.1859 0.3760
vn 0.9637 0.1859 0.1917
vn -0.8170 0.1859 -0.5459
vn -0.6948 0.1859 -0.6948
vn 0.9826 0.1859 -0.0000
vn 0.9637 0.1859 -0.1917
vn 0.9078 0.1859 -0.3760
vn -0.9826 0.1859 -0.0000
vn -0.9637 0.1859 -0.1917
vn 0.8170 0.1859 -0.5459
vn -0.9637 0.1859 0.1917
vn -0.9078 0.1859 0.3760
vn 0.5459 0.1859 -0.8170
vn -0.3760 0.1859 -0.9078
vn -0.1917 0.1859 -0.9637
vn -0.6948 0.1859 0.6948
vn -0.8170 0.1859 0.5459
vn 0.1917 0.1859 0.9637
vn 0.6948 0.1859 -0.6948
vn -0.9078 0.1859 -0.3760
vn -0.5459 0.1859 -0.8170
vn -0.3760 0.1859 0.9078
vn -0.5459 0.1859 0.8170
vn 0.3760 0.1859 0.9078
vn -0.0000 -0.0831 0.9965
vn -0.1944 -0.0831 0.9774
vn -0.3814 -0.0831 0.9207
vn -0.5536 -0.0831 0.8286
vn -0.7047 -0.0831 0.7047
vn -0.8286 -0.0831 0.5536
vn -0.9207 -0.0831 0.3814
vn -0.8286 -0.0831 -0.5536
vn -0.7047 -0.0831 -0.7047
vn -0.5536 -0.0831 -0.8286
vn -0.3814 -0.0831 -0.9207
vn -0.1944 -0.0831 -0.9774
vn -0.0000 -0.0831 -0.9965
vn 0.1944 -0.0831 -0.9774
vn 0.3814 -0.0831 -0.9207
vn 0.5536 -0.0831 -0.8286
vn 0.7047 -0.0831 -0.7047
vn 0.8286 -0.0831 -0.5536
vn 0.9207 -0.0831 -0.3814
vn 0.7047 -0.0831 0.7047
vn 0.5536 -0.0831 0.8286
vn 0.7797 -0.3475 -0.5210
vn 0.6630 -0.3475 -0.6630
vn -0.0000 -0.3475 -0.9377
vn -0.1829 -0.3475 -0.9197
vn -0.5210 -0.3475 0.7797
vn 0.8663 -0.3475 -0.3588
vn -0.6630 -0.3475 0.6630
vn 0.9197 -0.3475 -0.1829
vn -0.7797 -0.3475 0.5210
vn 0.9377 -0.3475 -0.0000
vn -0.8663 -0.3475 0.3588
vn 0.9197 -0.3475 0.1829
vn -0.9197 -0.3475 0.1829
vn 0.8663 -0.3475 0.3588
vn -0.9377 -0.3475 -0.0000
vn 0.7797 -0.3475 0.5210
vn -0.9197 -0.3475 -0.1829
vn 0.6630 -0.3475 0.6630
vn -0.8663 -0.3475 -0.3588
vn 0.5210 -0.3475 0.7797
vn -0.7797 -0.3475 -0.5210
vn 0.3588 -0.3475 0.8663
vn 0.1829 -0.3475 -0.9197
vn -0.6630 -0.3475 -0.6630
vn 0.1829 -0.3475 0.9197
vn 0.3588 -0.3475 -0.8663
vn -0.5210 -0.3475 -0.7797
vn -0.0000 -0.3475 0.9377
vn 0.5210 -0.3475 -0.7797
vn -0.3588 -0.3475 -0.8663
vn 0.8178 0.4166 -0.3969
vn -0.0000 0.4186 -0.9082
vn 0.0968 0.4167 -0.9039
vn -0.0968 0.4167 -0.9039
vn -0.8178 0.4167 -0.3969
vn -0.7656 0.4167 0.4902
vn -0.0000 0.4183 0.9083
vn 0.0891 0.4167 0.9047
vn 0.7656 0.4167 0.4902
vn -0.0891 0.4167 0.9047
vn -0.6449 0.7643 -0.0000
vn -0.0000 0.9927 0.1204
vt 0.539662 0.592062
vt 0.569231 0.592062
vt 0.569231 0.629036
vt 0.539662 0.629036
vt 0.598787 0.592062
vt 0.598787 0.629036
vt 0.628329 0.592062
vt 0.628329 0.629036
vt 0.657878 0.592062
vt 0.657878 0.629036
vt 0.687427 0.592062
vt 0.687427 0.629036
vt 0.716969 0.592062
vt 0.716969 0.629036
vt 0.746524 0.592062
vt 0.746524 0.629036
vt 0.776079 0.592062
vt 0.776079 0.629036
vt 0.805632 0.592062
vt 0.805632 0.629036
vt 0.835184 0.592062
vt 0.835184 0.629036
vt 0.864734 0.592062
vt 0.864734 0.629036
vt 0.894284 0.592062
vt 0.894284 0.629036
vt 0.923845 0.592062
vt 0.923845 0.629036
vt 0.953406 0.592062
vt 0.953406 0.629036
vt 0.007717 0.592062
vt 0.037259 0.592062
vt 0.037259 0.629036
vt 0.007717 0.629036
vt 0.066817 0.592062
vt 0.066817 0.629036
vt 0.096390 0.592062
vt 0.096390 0.629036
vt 0.125949 0.592062
vt 0.125949 0.629036
vt 0.155490 0.592062
vt 0.155490 0.629036
vt 0.185032 0.592062
vt 0.185032 0.629036
vt 0.214582 0.592062
vt 0.214582 0.629036
vt 0.244140 0.592062
vt 0.244140 0.629036
vt 0.273690 0.592062
vt 0.273690 0.629036
vt 0.303231 0.592062
vt 0.303231 0.629036
vt 0.332773 0.592062
vt 0.332773 0.629036
vt 0.362326 0.592062
vt 0.362326 0.629036
vt 0.391879 0.592062
vt 0.391879 0.629036
vt 0.421431 0.592062
vt 0.421431 0.629036
vt 0.450982 0.592062
vt 0.450982 0.629036
vt 0.480533 0.592062
vt 0.510095 0.592062
vt 0.510095 0.629036
vt 0.480532 0.629036
vt 0.406806 0.266512
vt 0.406806 0.257838
vt 0.435312 0.257838
vt 0.435312 0.266512
vt 0.376929 0.389370
vt 0.376929 0.405231
vt 0.346162 0.405231
vt 0.346162 0.389370
vt 0.100020 0.389370
vt 0.100020 0.405231
vt 0.069253 0.405231
vt 0.069253 0.389370
vt 0.807677 0.389370
vt 0.807677 0.405231
vt 0.776909 0.405231
vt 0.776909 0.389370
vt 0.500000 0.389370
vt 0.500000 0.405231
vt 0.469232 0.405231
vt 0.469232 0.389370
vt 0.223091 0.389370
vt 0.223091 0.405231
vt 0.192323 0.405231
vt 0.192323 0.389370
vt 0.930747 0.389370
vt 0.930747 0.405231
vt 0.899980 0.405231
vt 0.899980 0.389370
vt 0.407697 0.389370
vt 0.407697 0.405231
vt 0.715374 0.389370
vt 0.715374 0.405231
vt 0.684606 0.405231
vt 0.684606 0.389370
vt 0.130788 0.389370
vt 0.130788 0.405231
vt 0.838444 0.389370
vt 0.838444 0.405231
vt 0.561535 0.389370
vt 0.561535 0.405231
vt 0.530768 0.405231
vt 0.530768 0.389370
vt 0.869212 0.405231
vt 0.869212 0.389370
vt 0.223091 0.378444
vt 0.253859 0.378444
vt 0.253859 0.389370
vt 0.653838 0.389370
vt 0.653838 0.405231
vt 0.623071 0.405231
vt 0.623071 0.389370
vt 0.038485 0.405231
vt 0.038485 0.389370
vt 0.746141 0.405231
vt 0.746141 0.389370
vt 0.315394 0.405231
vt 0.315394 0.389370
vt 0.161556 0.405231
vt 0.161556 0.389370
vt 0.438465 0.405231
vt 0.438465 0.389370
vt 0.592303 0.405231
vt 0.592303 0.389370
vt 0.284626 0.405231
vt 0.284626 0.389370
vt 0.007717 0.405231
vt 0.007717 0.389370
vt 0.992283 0.389370
vt 0.992283 0.405231
vt 0.961515 0.405231
vt 0.961515 0.389370
vt 0.284626 0.378444
vt 0.311466 0.736122
vt 0.327278 0.727671
vt 0.340046 0.758500
vt 0.322889 0.763704
vt 0.080545 0.690153
vt 0.069174 0.676291
vt 0.096923 0.657759
vt 0.105371 0.673573
vt 0.080546 0.925670
vt 0.069175 0.939532
vt 0.045574 0.915943
vt 0.059430 0.904565
vt 0.311466 0.879701
vt 0.327278 0.888152
vt 0.308741 0.915898
vt 0.294881 0.904525
vt 0.192092 0.656340
vt 0.193852 0.638498
vt 0.226578 0.645013
vt 0.221371 0.662169
vt 0.025571 0.822890
vt 0.007729 0.824654
vt 0.007717 0.791285
vt 0.025561 0.793036
vt 0.221372 0.953654
vt 0.226579 0.970810
vt 0.193852 0.977325
vt 0.192092 0.959482
vt 0.294881 0.711298
vt 0.308741 0.699925
vt 0.059429 0.711258
vt 0.045573 0.699880
vt 0.105372 0.942250
vt 0.096924 0.958064
vt 0.322889 0.852119
vt 0.340046 0.857323
vt 0.162237 0.656335
vt 0.160483 0.638492
vt 0.031404 0.852169
vt 0.014249 0.857379
vt 0.248952 0.942226
vt 0.257405 0.958037
vt 0.273773 0.690186
vt 0.285148 0.676328
vt 0.042836 0.736076
vt 0.027027 0.727620
vt 0.132956 0.953669
vt 0.127755 0.970827
vt 0.328713 0.792985
vt 0.346555 0.791227
vt 0.346555 0.824596
vt 0.328713 0.822839
vt 0.132956 0.662154
vt 0.127755 0.644996
vt 0.042837 0.879747
vt 0.027028 0.888203
vt 0.273773 0.925637
vt 0.285148 0.939495
vt 0.248952 0.673597
vt 0.257405 0.657786
vt 0.031403 0.763655
vt 0.014248 0.758445
vt 0.162238 0.959488
vt 0.160484 0.977330
vt 0.025569 0.792934
vt 0.007727 0.791170
vt 0.838444 0.421914
vt 0.869212 0.421914
vt 0.130788 0.421914
vt 0.161556 0.421914
vt 0.407697 0.421914
vt 0.438465 0.421914
vt 0.715374 0.421914
vt 0.746141 0.421914
vt 0.007717 0.421914
vt 0.038485 0.421914
vt 0.284626 0.421914
vt 0.315394 0.421914
vt 0.592303 0.421914
vt 0.623071 0.421914
vt 0.899980 0.421914
vt 0.192323 0.421914
vt 0.469232 0.421914
vt 0.776909 0.421914
vt 0.069253 0.421914
vt 0.346162 0.421914
vt 0.653838 0.421914
vt 0.930747 0.421914
vt 0.223091 0.421914
vt 0.500000 0.421914
vt 0.530768 0.421914
vt 0.807677 0.421914
vt 0.100020 0.421914
vt 0.376929 0.421914
vt 0.684606 0.421914
vt 0.961515 0.421914
vt 0.561535 0.421914
vt 0.992283 0.421914
vt 0.253859 0.421914
vt 0.253859 0.405231
vt 0.407697 0.378444
vt 0.376929 0.378444
vt 0.715374 0.378444
vt 0.684606 0.378444
vt 0.130788 0.378444
vt 0.100020 0.378444
vt 0.838444 0.378444
vt 0.807677 0.378444
vt 0.561535 0.378444
vt 0.530768 0.378444
vt 0.899980 0.378444
vt 0.869212 0.378444
vt 0.930747 0.378444
vt 0.961515 0.378444
vt 0.069253 0.378444
vt 0.038485 0.378444
vt 0.776909 0.378444
vt 0.746141 0.378444
vt 0.346162 0.378444
vt 0.315394 0.378444
vt 0.192323 0.378444
vt 0.161556 0.378444
vt 0.500000 0.378444
vt 0.469232 0.378444
vt 0.438465 0.378444
vt 0.623071 0.378444
vt 0.592303 0.378444
vt 0.007717 0.378444
vt 0.992283 0.378444
vt 0.653838 0.378444
vt 0.469232 0.435985
vt 0.500000 0.435985
vt 0.438465 0.435985
vt 0.407697 0.435985
vt 0.376929 0.435985
vt 0.346162 0.435985
vt 0.315394 0.435985
vt 0.284626 0.435985
vt 0.253859 0.435985
vt 0.223091 0.435985
vt 0.192323 0.435985
vt 0.161556 0.435985
vt 0.130788 0.435985
vt 0.100020 0.435985
vt 0.069253 0.435985
vt 0.038485 0.435985
vt 0.007717 0.435985
vt 0.961515 0.435985
vt 0.992283 0.435985
vt 0.930747 0.435985
vt 0.899980 0.435985
vt 0.869212 0.435985
vt 0.838444 0.435985
vt 0.807677 0.435985
vt 0.776909 0.435985
vt 0.746141 0.435985
vt 0.715374 0.435985
vt 0.684606 0.435985
vt 0.653838 0.435985
vt 0.623071 0.435985
vt 0.592303 0.435985
vt 0.561535 0.435985
vt 0.530768 0.435985
vt 0.190689 0.695850
vt 0.185852 0.713971
vt 0.166498 0.712162
vt 0.167732 0.695858
vt 0.848424 0.531675
vt 0.848424 0.576627
vt 0.822152 0.576627
vt 0.822152 0.531675
vt 0.427486 0.867186
vt 0.424645 0.868550
vt 0.414294 0.862236
vt 0.416521 0.859494
vt 0.400633 0.843782
vt 0.390315 0.851798
vt 0.376330 0.829781
vt 0.387556 0.823977
vt 0.503173 0.885175
vt 0.504436 0.897548
vt 0.478857 0.897686
vt 0.480002 0.885257
vt 0.525836 0.880615
vt 0.529465 0.892489
vt 0.547157 0.871751
vt 0.553018 0.882685
vt 0.566336 0.858916
vt 0.574210 0.868498
vt 0.582645 0.842597
vt 0.592233 0.850461
vt 0.595458 0.823414
vt 0.606394 0.829257
vt 0.604284 0.802102
vt 0.616149 0.805700
vt 0.608784 0.779478
vt 0.621122 0.780693
vt 0.608784 0.756412
vt 0.621122 0.755196
vt 0.604284 0.733788
vt 0.616148 0.730189
vt 0.595457 0.712477
vt 0.606391 0.706633
vt 0.582642 0.693298
vt 0.592226 0.685432
vt 0.566331 0.676987
vt 0.574197 0.667403
vt 0.547152 0.664172
vt 0.552997 0.653237
vt 0.525841 0.655343
vt 0.529442 0.643479
vt 0.503218 0.650840
vt 0.504436 0.638501
vt 0.480151 0.650831
vt 0.478941 0.638492
vt 0.457526 0.655320
vt 0.453934 0.643453
vt 0.436210 0.664135
vt 0.430372 0.653196
vt 0.417020 0.676939
vt 0.409160 0.667347
vt 0.400694 0.693243
vt 0.391112 0.685367
vt 0.374457 0.756402
vt 0.362095 0.755152
vt 0.367130 0.730122
vt 0.379004 0.733743
vt 0.376924 0.706563
vt 0.387860 0.712422
vt 0.374389 0.779550
vt 0.361990 0.780707
vt 0.378798 0.802346
vt 0.366792 0.805862
vt 0.390790 0.798776
vt 0.386798 0.778369
vt 0.406008 0.853406
vt 0.406760 0.850351
vt 0.121736 0.909518
vt 0.124566 0.900645
vt 0.143459 0.907529
vt 0.142005 0.918911
vt 0.146883 0.714288
vt 0.145378 0.700467
vt 0.163128 0.910403
vt 0.163895 0.924228
vt 0.127873 0.720377
vt 0.124559 0.709339
vt 0.182765 0.909303
vt 0.186613 0.925131
vt 0.110314 0.730315
vt 0.106039 0.721996
vt 0.201505 0.904382
vt 0.209181 0.921428
vt 0.095000 0.743717
vt 0.090393 0.737813
vt 0.218679 0.896000
vt 0.230622 0.913202
vt 0.082683 0.760100
vt 0.078093 0.756189
vt 0.233659 0.884658
vt 0.249948 0.900787
vt 0.073919 0.778767
vt 0.069454 0.776474
vt 0.291898 0.801233
vt 0.265369 0.803397
vt 0.262283 0.785952
vt 0.288358 0.779616
vt 0.246018 0.870887
vt 0.266309 0.884753
vt 0.069229 0.798924
vt 0.064874 0.798007
vt 0.256197 0.769284
vt 0.280613 0.758729
vt 0.255483 0.855325
vt 0.279026 0.865861
vt 0.068595 0.841672
vt 0.064535 0.820043
vt 0.068800 0.819682
vt 0.072728 0.840036
vt 0.247187 0.753702
vt 0.268757 0.739510
vt 0.261841 0.838532
vt 0.287623 0.845005
vt 0.235322 0.739875
vt 0.253146 0.722894
vt 0.265150 0.821076
vt 0.291898 0.823133
vt 0.080743 0.859095
vt 0.076737 0.862096
vt 0.220862 0.728251
vt 0.234377 0.709675
vt 0.092478 0.875963
vt 0.088620 0.880571
vt 0.204209 0.719473
vt 0.213248 0.700518
vt 0.107316 0.890019
vt 0.103767 0.896579
vt 0.418735 0.856765
vt 0.409886 0.848966
vt 0.460727 0.868785
vt 0.457141 0.880832
vt 0.435172 0.871850
vt 0.441321 0.860633
vt 0.453625 0.892937
vt 0.386833 0.757643
vt 0.390884 0.737361
vt 0.398799 0.718278
vt 0.410277 0.701117
vt 0.424881 0.686530
vt 0.442048 0.675074
vt 0.461119 0.667187
vt 0.481361 0.663171
vt 0.501999 0.663179
vt 0.522241 0.667208
vt 0.541307 0.675106
vt 0.558465 0.686572
vt 0.573057 0.701164
vt 0.584522 0.718322
vt 0.592419 0.737387
vt 0.596445 0.757627
vt 0.596445 0.778263
vt 0.592419 0.798503
vt 0.584522 0.817570
vt 0.573057 0.834731
vt 0.558463 0.849331
vt 0.541298 0.860811
vt 0.522213 0.868733
vt 0.501926 0.872792
vt 0.481184 0.872823
vt 0.398694 0.818129
vt 0.428203 0.863837
vt 0.612912 0.451420
vt 0.633085 0.451420
vt 0.633085 0.499564
vt 0.612912 0.499564
vt 0.254182 0.276575
vt 0.254182 0.363009
vt 0.229536 0.363009
vt 0.229536 0.276575
vt 0.204889 0.363009
vt 0.204889 0.276575
vt 0.180243 0.363009
vt 0.180243 0.276575
vt 0.919949 0.007717
vt 0.919949 0.016553
vt 0.891438 0.016553
vt 0.891438 0.007717
vt 0.720392 0.266512
vt 0.720392 0.257838
vt 0.748901 0.257838
vt 0.748901 0.266512
vt 0.577870 0.266512
vt 0.577870 0.257838
vt 0.606371 0.257838
vt 0.606371 0.266512
vt 0.264281 0.266512
vt 0.264281 0.257838
vt 0.292783 0.257838
vt 0.292783 0.266512
vt 0.777408 0.007717
vt 0.777408 0.016553
vt 0.748901 0.016553
vt 0.748901 0.007717
vt 0.463819 0.007717
vt 0.463819 0.016553
vt 0.435312 0.016553
vt 0.435312 0.007717
vt 0.121757 0.266512
vt 0.121757 0.257838
vt 0.150258 0.257838
vt 0.150258 0.266512
vt 0.634877 0.007717
vt 0.634877 0.016553
vt 0.606371 0.016553
vt 0.606371 0.007717
vt 0.321285 0.007717
vt 0.321285 0.016553
vt 0.292783 0.016553
vt 0.292783 0.007717
vt 0.891438 0.266512
vt 0.891438 0.257838
vt 0.919949 0.257838
vt 0.919949 0.266512
vt 0.691884 0.257838
vt 0.663382 0.257838
vt 0.663382 0.016553
vt 0.691884 0.016553
vt 0.178760 0.007717
vt 0.178760 0.016553
vt 0.150258 0.016553
vt 0.150258 0.007717
vt 0.720392 0.016553
vt 0.777408 0.257838
vt 0.777408 0.266512
vt 0.036219 0.007717
vt 0.036219 0.016553
vt 0.007717 0.016553
vt 0.007717 0.007717
vt 0.634877 0.257838
vt 0.634877 0.266512
vt 0.321285 0.257838
vt 0.321285 0.266512
vt 0.492331 0.007717
vt 0.492331 0.016553
vt 0.805915 0.007717
vt 0.805915 0.016553
vt 0.463819 0.257838
vt 0.463819 0.266512
vt 0.178760 0.257838
vt 0.178760 0.266512
vt 0.663382 0.007717
vt 0.349792 0.007717
vt 0.349792 0.016553
vt 0.492331 0.257838
vt 0.492331 0.266512
vt 0.007717 0.266512
vt 0.007717 0.257838
vt 0.036219 0.257838
vt 0.036219 0.266512
vt 0.520845 0.007717
vt 0.520845 0.016553
vt 0.207266 0.007717
vt 0.207266 0.016553
vt 0.805915 0.257838
vt 0.805915 0.266512
vt 0.064729 0.007717
vt 0.064729 0.016553
vt 0.235776 0.257838
vt 0.235776 0.016553
vt 0.264281 0.016553
vt 0.663382 0.266512
vt 0.349792 0.257838
vt 0.349792 0.266512
vt 0.834421 0.007717
vt 0.834421 0.016553
vt 0.520845 0.257838
vt 0.520845 0.266512
vt 0.207266 0.257838
vt 0.207266 0.266512
vt 0.121757 0.016553
vt 0.121757 0.007717
vt 0.862927 0.266512
vt 0.862927 0.257838
vt 0.264281 0.007717
vt 0.577870 0.016553
vt 0.577870 0.007717
vt 0.093247 0.266512
vt 0.093247 0.257838
vt 0.406806 0.016553
vt 0.406806 0.007717
vt 0.720392 0.007717
vt 0.235776 0.266512
vt 0.549361 0.266512
vt 0.549361 0.257838
vt 0.862927 0.016553
vt 0.862927 0.007717
vt 0.378300 0.266512
vt 0.378300 0.257838
vt 0.691884 0.266512
vt 0.093247 0.016553
vt 0.093247 0.007717
vt 0.834421 0.266512
vt 0.834421 0.257838
vt 0.235776 0.007717
vt 0.549361 0.016553
vt 0.549361 0.007717
vt 0.064729 0.266512
vt 0.064729 0.257838
vt 0.378300 0.016553
vt 0.378300 0.007717
vt 0.691884 0.007717
vt 0.330488 0.499564
vt 0.330488 0.516240
vt 0.310315 0.516240
vt 0.310315 0.499564
vt 0.290142 0.516240
vt 0.290142 0.499564
vt 0.269968 0.516240
vt 0.269968 0.499564
vt 0.249795 0.516240
vt 0.249795 0.499564
vt 0.229622 0.516240
vt 0.229622 0.499564
vt 0.209449 0.516240
vt 0.209449 0.499564
vt 0.189276 0.516240
vt 0.189276 0.499564
vt 0.169103 0.516240
vt 0.169103 0.499564
vt 0.148929 0.516240
vt 0.148929 0.499564
vt 0.128756 0.516240
vt 0.128756 0.499564
vt 0.108583 0.516240
vt 0.108583 0.499564
vt 0.088410 0.516240
vt 0.088410 0.499564
vt 0.068237 0.516240
vt 0.068237 0.499564
vt 0.048064 0.516240
vt 0.048064 0.499564
vt 0.027891 0.516240
vt 0.027891 0.499564
vt 0.007717 0.516240
vt 0.007717 0.499564
vt 0.653258 0.499564
vt 0.653258 0.516240
vt 0.633085 0.516240
vt 0.612912 0.516240
vt 0.592739 0.516240
vt 0.592739 0.499564
vt 0.572566 0.516240
vt 0.572566 0.499564
vt 0.552393 0.516240
vt 0.552393 0.499564
vt 0.532219 0.516240
vt 0.532219 0.499564
vt 0.512046 0.516240
vt 0.512046 0.499564
vt 0.491873 0.516240
vt 0.491873 0.499564
vt 0.471700 0.516240
vt 0.471700 0.499564
vt 0.451527 0.516240
vt 0.451527 0.499564
vt 0.431354 0.516240
vt 0.431354 0.499564
vt 0.411180 0.516240
vt 0.411180 0.499564
vt 0.391007 0.516240
vt 0.391007 0.499564
vt 0.370834 0.516240
vt 0.370834 0.499564
vt 0.350661 0.516240
vt 0.350661 0.499564
vt 0.795880 0.576627
vt 0.795880 0.531675
vt 0.533159 0.576627
vt 0.506887 0.576627
vt 0.506887 0.531675
vt 0.533159 0.531675
vt 0.559431 0.576627
vt 0.559431 0.531675
vt 0.428071 0.576627
vt 0.401799 0.576627
vt 0.401799 0.531675
vt 0.428071 0.531675
vt 0.585703 0.531675
vt 0.585703 0.576627
vt 0.611975 0.576627
vt 0.611975 0.531675
vt 0.139078 0.576627
vt 0.112806 0.576627
vt 0.112806 0.531675
vt 0.139078 0.531675
vt 0.638247 0.576627
vt 0.638247 0.531675
vt 0.664519 0.576627
vt 0.664519 0.531675
vt 0.690792 0.576627
vt 0.690792 0.531675
vt 0.217894 0.576627
vt 0.191622 0.576627
vt 0.191622 0.531675
vt 0.217894 0.531675
vt 0.717064 0.531675
vt 0.717064 0.576627
vt 0.244166 0.576627
vt 0.244166 0.531675
vt 0.270438 0.531675
vt 0.270438 0.576627
vt 0.769608 0.576627
vt 0.769608 0.531675
vt 0.060262 0.576627
vt 0.033989 0.576627
vt 0.033989 0.531675
vt 0.060262 0.531675
vt 0.322982 0.576627
vt 0.296710 0.576627
vt 0.296710 0.531675
vt 0.322982 0.531675
vt 0.454343 0.531675
vt 0.454343 0.576627
vt 0.743336 0.576627
vt 0.743336 0.531675
vt 0.165350 0.576627
vt 0.165350 0.531675
vt 0.086534 0.576627
vt 0.086534 0.531675
vt 0.375527 0.576627
vt 0.375527 0.531675
vt 0.007717 0.576627
vt 0.007717 0.531675
vt 0.349254 0.576627
vt 0.349254 0.531675
vt 0.480615 0.576627
vt 0.480615 0.531675
vt 0.402061 0.276575
vt 0.402061 0.363009
vt 0.377414 0.363009
vt 0.377414 0.276575
vt 0.426707 0.276575
vt 0.426707 0.363009
vt 0.451354 0.276575
vt 0.451354 0.363009
vt 0.476000 0.276575
vt 0.476000 0.363009
vt 0.500647 0.276575
vt 0.500647 0.363009
vt 0.525293 0.276575
vt 0.525293 0.363009
vt 0.549940 0.276575
vt 0.549940 0.363009
vt 0.574586 0.276575
vt 0.574586 0.363009
vt 0.599233 0.276575
vt 0.599233 0.363009
vt 0.623879 0.276575
vt 0.623879 0.363009
vt 0.648526 0.276575
vt 0.648526 0.363009
vt 0.673172 0.276575
vt 0.673172 0.363009
vt 0.697819 0.276575
vt 0.697819 0.363009
vt 0.722465 0.276575
vt 0.722465 0.363009
vt 0.747111 0.276575
vt 0.747111 0.363009
vt 0.771758 0.276575
vt 0.771758 0.363009
vt 0.796404 0.276575
vt 0.796404 0.363009
vt 0.032364 0.276575
vt 0.032364 0.363009
vt 0.007717 0.363009
vt 0.007717 0.276575
vt 0.057010 0.276575
vt 0.057010 0.363009
vt 0.081657 0.276575
vt 0.081657 0.363009
vt 0.106303 0.276575
vt 0.106303 0.363009
vt 0.130950 0.276575
vt 0.130950 0.363009
vt 0.155596 0.276575
vt 0.155596 0.363009
vt 0.278829 0.276575
vt 0.278829 0.363009
vt 0.303475 0.276575
vt 0.303475 0.363009
vt 0.328121 0.276575
vt 0.328121 0.363009
vt 0.352768 0.276575
vt 0.352768 0.363009
vt 0.229622 0.451420
vt 0.249795 0.451420
vt 0.330488 0.451420
vt 0.350661 0.451420
vt 0.592739 0.451420
vt 0.209449 0.451420
vt 0.572566 0.451420
vt 0.189276 0.451420
vt 0.552393 0.451420
vt 0.169103 0.451420
vt 0.532219 0.451420
vt 0.148929 0.451420
vt 0.512046 0.451420
vt 0.128756 0.451420
vt 0.491873 0.451420
vt 0.108583 0.451420
vt 0.471700 0.451420
vt 0.088410 0.451420
vt 0.451527 0.451420
vt 0.068237 0.451420
vt 0.431354 0.451420
vt 0.048064 0.451420
vt 0.310315 0.451420
vt 0.411180 0.451420
vt 0.027891 0.451420
vt 0.290142 0.451420
vt 0.391007 0.451420
vt 0.007717 0.451420
vt 0.269968 0.451420
vt 0.370834 0.451420
vt 0.653258 0.451420
vt 0.410374 0.835575
vt 0.432688 0.862303
vt 0.431776 0.869998
vt 0.403137 0.846730
vt 0.410469 0.844283
vt 0.425110 0.848884
vt 0.421686 0.853123
vt 0.401073 0.853904
vt 0.429441 0.883611
vt 0.425167 0.873488
vt 0.411181 0.866066
vt 0.407446 0.870661
vt 0.183208 0.728284
vt 0.166764 0.726900
vt 0.131169 0.886981
vt 0.147131 0.892981
vt 0.150102 0.728893
vt 0.163781 0.895537
vt 0.134039 0.734134
vt 0.180491 0.894798
vt 0.119219 0.742711
vt 0.196456 0.890795
vt 0.106299 0.754068
vt 0.211214 0.883808
vt 0.095978 0.768033
vt 0.224136 0.874316
vt 0.088567 0.783780
vt 0.251894 0.804554
vt 0.249374 0.789497
vt 0.234873 0.862578
vt 0.084711 0.800847
vt 0.243937 0.775141
vt 0.243212 0.849357
vt 0.236112 0.761722
vt 0.248776 0.834858
vt 0.084263 0.818343
vt 0.087627 0.835518
vt 0.225742 0.749989
vt 0.251829 0.819836
vt 0.094263 0.851659
vt 0.213242 0.740119
vt 0.104162 0.865922
vt 0.198935 0.732806
vt 0.116607 0.877931
vt 0.170877 0.811156
vt 0.466184 0.682590
vt 0.483108 0.679224
vt 0.491736 0.766822
vt 0.450243 0.689193
vt 0.500364 0.679224
vt 0.517288 0.682590
vt 0.533230 0.689193
vt 0.547577 0.698780
vt 0.559779 0.710981
vt 0.569365 0.725329
vt 0.575969 0.741271
vt 0.579335 0.758195
vt 0.579335 0.775450
vt 0.575969 0.792374
vt 0.569365 0.808316
vt 0.559779 0.822663
vt 0.547577 0.834865
vt 0.533230 0.844451
vt 0.517288 0.851055
vt 0.500364 0.854421
vt 0.483109 0.854421
vt 0.466185 0.851055
vt 0.450243 0.844451
vt 0.435895 0.834865
vt 0.423694 0.822664
vt 0.414107 0.808316
vt 0.407504 0.792374
vt 0.404138 0.775450
vt 0.404138 0.758195
vt 0.407504 0.741271
vt 0.414107 0.725329
vt 0.423694 0.710981
vt 0.435895 0.698780
s 1
f 5/1/1 7/2/2 369/3/2 366/4/1
f 7/2/2 9/5/3 372/6/4 369/3/2
f 9/5/3 11/7/5 375/8/5 372/6/4
f 11/7/5 13/9/6 378/10/6 375/8/5
f 13/9/6 15/11/7 381/12/7 378/10/6
f 15/11/7 17/13/8 384/14/9 381/12/7
f 17/13/8 19/15/10 387/16/10 384/14/9
f 19/15/10 21/17/11 390/18/11 387/16/10
f 21/17/11 23/19/12 393/20/12 390/18/11
f 23/19/12 25/21/13 396/22/13 393/20/12
f 25/21/13 27/23/14 399/24/14 396/22/13
f 27/23/14 29/25/15 402/26/15 399/24/14
f 29/25/15 31/27/16 405/28/16 402/26/15
f 31/27/16 33/29/17 408/30/17 405/28/16
f 33/31/17 35/32/18 411/33/19 408/34/17
f 35/32/18 37/35/20 414/36/21 411/33/19
f 37/35/20 39/37/22 417/38/22 414/36/21
f 39/37/22 41/39/23 420/40/23 417/38/22
f 41/39/23 43/41/24 423/42/24 420/40/23
f 43/41/24 45/43/25 426/44/25 423/42/24
f 45/43/25 47/45/26 429/46/26 426/44/25
f 47/45/26 49/47/27 432/48/27 429/46/26
f 49/47/27 51/49/28 435/50/28 432/48/27
f 51/49/28 53/51/29 438/52/29 435/50/28
f 53/51/29 55/53/30 441/54/30 438/52/29
f 55/53/30 57/55/31 444/56/31 441/54/30
f 57/55/31 59/57/32 447/58/32 444/56/31
f 59/57/32 61/59/33 450/60/33 447/58/32
f 61/59/33 63/61/34 453/62/34 450/60/33
f 1/63/35 3/64/36 363/65/36 361/66/37
f 451/67/38 443/68/38 455/69/39 454/70/39
f 3/64/36 5/1/1 366/4/1 363/65/36
f 130/71/40 259/72/40 266/73/41 136/74/41
f 131/75/42 260/76/42 267/77/43 150/78/43
f 132/79/44 261/80/44 268/81/45 151/82/45
f 148/83/46 287/84/46 269/85/47 137/86/47
f 134/87/48 263/88/48 270/89/49 152/90/49
f 149/91/50 264/92/50 271/93/51 153/94/51
f 142/95/52 283/96/52 259/72/40 130/71/40
f 140/97/53 282/98/53 258/99/54 147/100/54
f 158/101/55 284/102/55 260/76/42 131/75/42
f 144/103/56 285/104/56 261/80/44 132/79/44
f 160/105/57 286/106/57 262/107/58 133/108/58
f 153/94/51 271/93/51 278/109/59 145/110/59
f 134/87/60 111/111/60 97/112/61 146/113/61
f 135/114/62 265/115/62 272/116/63 154/117/63
f 150/78/43 267/77/43 274/118/64 156/119/64
f 151/82/45 268/81/45 275/120/65 141/121/65
f 136/74/41 266/73/41 273/122/66 138/123/66
f 152/90/49 270/89/49 277/124/67 157/125/67
f 133/108/58 262/107/58 287/84/46 148/83/46
f 137/86/47 269/85/47 276/126/68 143/127/68
f 154/117/63 272/116/63 279/128/69 159/129/69
f 157/125/67 277/124/67 284/102/55 158/101/55
f 138/123/66 273/122/66 280/130/70 155/131/70
f 141/121/65 275/120/65 282/98/53 140/97/53
f 156/119/64 274/118/64 281/132/71 139/133/71
f 143/127/68 276/126/68 283/96/52 142/95/52
f 145/110/59 278/109/59 285/104/56 144/103/56
f 159/129/69 279/128/69 286/106/57 160/105/57
f 139/134/71 281/135/71 257/136/72 129/137/72
f 98/138/73 155/131/73 146/113/61 97/112/61
f 59/139/74 128/140/74 110/141/75 61/142/75
f 41/143/76 127/144/76 108/145/77 43/146/77
f 23/147/78 126/148/78 106/149/79 25/150/79
f 5/151/80 125/152/80 104/153/81 7/154/81
f 49/155/82 124/156/82 102/157/83 51/158/83
f 31/159/84 123/160/84 100/161/85 33/162/85
f 13/163/86 122/164/86 98/165/87 15/166/87
f 57/167/88 121/168/88 128/140/74 59/139/74
f 39/169/89 120/170/89 127/144/76 41/143/76
f 21/171/90 119/172/90 126/148/78 23/147/78
f 3/173/91 117/174/91 125/152/80 5/151/80
f 47/175/92 116/176/92 124/156/82 49/155/82
f 29/177/93 115/178/93 123/160/84 31/159/84
f 11/179/94 114/180/94 122/164/86 13/163/86
f 55/181/95 113/182/95 121/168/88 57/167/88
f 37/183/96 112/184/96 120/170/89 39/169/89
f 19/185/97 111/186/97 119/172/90 21/171/90
f 63/187/98 109/188/98 118/189/99 1/190/99
f 1/190/99 118/189/99 117/174/91 3/173/91
f 45/191/100 107/192/100 116/176/92 47/175/92
f 27/193/101 105/194/101 115/178/93 29/177/93
f 9/195/102 103/196/102 114/180/94 11/179/94
f 53/197/103 101/198/103 113/182/95 55/181/95
f 35/199/104 99/200/104 112/184/96 37/183/96
f 17/201/105 97/202/105 111/186/97 19/185/97
f 61/142/75 110/141/75 109/188/98 63/187/98
f 43/146/77 108/145/77 107/192/100 45/191/100
f 25/150/79 106/149/79 105/194/101 27/193/101
f 7/154/81 104/153/81 103/196/102 9/195/102
f 51/158/83 102/157/83 101/198/103 53/197/103
f 33/203/85 100/204/85 99/200/104 35/199/104
f 15/166/87 98/165/87 97/202/105 17/201/105
f 182/205/106 285/104/106 278/109/107 181/206/107
f 173/207/108 284/102/108 277/124/109 172/208/109
f 164/209/110 283/96/110 276/126/111 163/210/111
f 186/211/112 282/98/112 275/120/113 185/212/113
f 177/213/114 281/132/114 274/118/115 176/214/115
f 168/215/116 280/130/116 273/122/117 167/216/117
f 190/217/118 279/128/118 272/116/119 189/218/119
f 181/206/107 278/109/107 271/93/120 180/219/120
f 172/208/109 277/124/109 270/89/121 171/220/121
f 163/210/111 276/126/111 269/85/122 162/221/122
f 185/212/113 275/120/113 268/81/123 184/222/123
f 176/214/115 274/118/115 267/77/124 175/223/124
f 167/216/117 273/122/117 266/73/125 166/224/125
f 189/218/119 272/116/119 265/115/126 188/225/126
f 180/219/120 271/93/120 264/92/127 179/226/127
f 171/220/121 270/89/121 263/88/128 170/227/128
f 162/221/122 269/85/122 287/84/129 161/228/129
f 287/84/129 262/107/130 192/229/130 161/228/129
f 184/222/123 268/81/123 261/80/131 183/230/131
f 175/223/124 267/77/124 260/76/132 174/231/132
f 166/224/125 266/73/125 259/72/133 165/232/133
f 188/225/126 265/115/126 258/99/134 187/233/134
f 179/226/127 264/92/127 257/136/135 178/234/135
f 192/229/130 262/107/130 286/106/136 191/235/136
f 183/230/131 261/80/131 285/104/106 182/205/106
f 174/231/132 260/76/132 284/102/108 173/207/108
f 165/232/133 259/72/133 283/96/110 164/209/110
f 187/233/134 258/99/134 282/98/112 186/211/112
f 178/234/135 257/136/135 281/135/114 177/236/114
f 169/237/137 256/238/137 280/130/116 168/215/116
f 169/237/137 170/227/128 263/88/128 256/238/137
f 104/239/138 142/95/138 130/71/139 103/240/139
f 102/241/140 140/97/140 147/100/141 101/242/141
f 106/243/142 158/101/142 131/75/143 105/244/143
f 108/245/144 144/103/144 132/79/145 107/246/145
f 110/247/146 160/105/146 133/108/147 109/248/147
f 120/249/148 153/94/148 145/110/149 127/250/149
f 149/91/150 112/251/150 99/252/151 129/137/151
f 147/100/54 258/99/54 265/115/62 135/114/62
f 115/253/152 150/78/152 156/119/153 123/254/153
f 116/255/154 151/82/154 141/121/155 124/256/155
f 114/257/156 136/74/156 138/123/157 122/258/157
f 119/259/158 152/90/158 157/125/159 126/260/159
f 109/248/147 133/108/147 148/83/160 118/261/160
f 117/262/161 137/86/161 143/127/162 125/263/162
f 121/264/163 154/117/163 159/129/164 128/265/164
f 103/240/139 130/71/139 136/74/156 114/257/156
f 126/260/159 157/125/159 158/101/142 106/243/142
f 122/258/157 138/123/157 155/131/73 98/138/73
f 105/244/143 131/75/143 150/78/152 115/253/152
f 124/256/155 141/121/155 140/97/140 102/241/140
f 123/254/153 156/119/153 139/133/165 100/266/165
f 107/246/145 132/79/145 151/82/154 116/255/154
f 125/263/162 143/127/162 142/95/138 104/239/138
f 118/261/160 148/83/160 137/86/161 117/262/161
f 127/250/149 145/110/149 144/103/144 108/245/144
f 128/265/164 159/129/164 160/105/146 110/247/146
f 100/267/165 139/134/165 129/137/151 99/252/151
f 264/92/50 149/91/50 129/137/72 257/136/72
f 111/111/60 134/87/60 152/90/158 119/259/158
f 101/242/141 147/100/141 135/114/166 113/268/166
f 112/251/150 149/91/150 153/94/148 120/249/148
f 66/269/167 162/221/167 161/228/167 65/270/167
f 67/271/167 163/210/167 162/221/167 66/269/167
f 68/272/167 164/209/167 163/210/167 67/271/167
f 69/273/167 165/232/167 164/209/167 68/272/167
f 70/274/167 166/224/167 165/232/167 69/273/167
f 71/275/167 167/216/167 166/224/167 70/274/167
f 72/276/167 168/215/167 167/216/167 71/275/167
f 73/277/167 169/237/167 168/215/167 72/276/167
f 74/278/167 170/227/167 169/237/167 73/277/167
f 75/279/167 171/220/167 170/227/167 74/278/167
f 76/280/167 172/208/167 171/220/167 75/279/167
f 77/281/167 173/207/167 172/208/167 76/280/167
f 78/282/167 174/231/167 173/207/167 77/281/167
f 79/283/167 175/223/167 174/231/167 78/282/167
f 80/284/167 176/214/167 175/223/167 79/283/167
f 81/285/167 177/213/167 176/214/167 80/284/167
f 82/286/167 178/234/167 177/236/167 81/287/167
f 83/288/167 179/226/167 178/234/167 82/286/167
f 84/289/167 180/219/167 179/226/167 83/288/167
f 85/290/167 181/206/167 180/219/167 84/289/167
f 86/291/167 182/205/167 181/206/167 85/290/167
f 87/292/167 183/230/167 182/205/167 86/291/167
f 88/293/167 184/222/167 183/230/167 87/292/167
f 89/294/167 185/212/167 184/222/167 88/293/167
f 90/295/167 186/211/167 185/212/167 89/294/167
f 91/296/167 187/233/167 186/211/167 90/295/167
f 92/297/167 188/225/167 187/233/167 91/296/167
f 93/298/167 189/218/167 188/225/167 92/297/167
f 94/299/167 190/217/167 189/218/167 93/298/167
f 95/300/167 191/235/167 190/217/167 94/299/167
f 96/301/167 192/229/167 191/235/167 95/300/167
f 65/270/167 161/228/167 192/229/167 96/301/167
f 200/302/168 561/303/169 562/304/170 201/305/171
f 81/306/172 240/307/172 241/308/173 82/309/173
f 326/310/167 225/311/167 224/312/167 295/313/167
f 325/314/167 290/315/167 254/316/167 324/317/167
f 298/318/167 228/319/167 227/320/167 297/321/167
f 299/322/167 229/323/167 228/319/167 298/318/167
f 300/324/167 230/325/167 229/323/167 299/322/167
f 301/326/167 231/327/167 230/325/167 300/324/167
f 302/328/167 232/329/167 231/327/167 301/326/167
f 303/330/167 233/331/167 232/329/167 302/328/167
f 304/332/167 234/333/167 233/331/167 303/330/167
f 305/334/167 235/335/167 234/333/167 304/332/167
f 306/336/167 236/337/167 235/335/167 305/334/167
f 307/338/167 237/339/167 236/337/167 306/336/167
f 308/340/167 238/341/167 237/339/167 307/338/167
f 309/342/167 239/343/167 238/341/167 308/340/167
f 310/344/167 240/345/167 239/343/167 309/342/167
f 311/346/167 241/347/167 240/345/167 310/344/167
f 312/348/167 242/349/167 241/347/167 311/346/167
f 313/350/167 243/351/167 242/349/167 312/348/167
f 314/352/167 244/353/167 243/351/167 313/350/167
f 315/354/167 245/355/167 244/353/167 314/352/167
f 316/356/167 246/357/167 245/355/167 315/354/167
f 317/358/167 247/359/167 246/357/167 316/356/167
f 318/360/167 248/361/167 247/359/167 317/358/167
f 321/362/167 251/363/167 250/364/167 320/365/167
f 249/366/167 319/367/167 320/365/167 250/364/167
f 322/368/167 252/369/167 251/363/167 321/362/167
f 323/370/167 253/371/167 252/369/167 322/368/167
f 324/317/167 254/316/167 253/371/167 323/370/167
f 221/372/167 323/370/167 322/368/167 220/373/167
f 319/367/167 249/366/167 248/361/167 318/360/167
f 295/313/167 224/312/167 255/374/167 327/375/167
f 213/376/174 563/377/175 564/378/176 214/379/177
f 201/305/171 562/304/170 565/380/178 202/381/179
f 214/379/177 564/378/176 566/382/180 215/383/181
f 202/381/179 565/380/178 567/384/182 203/385/183
f 215/383/181 566/382/180 568/386/184 216/387/185
f 203/385/183 567/384/182 569/388/186 204/389/187
f 216/387/185 568/386/184 570/390/188 217/391/189
f 204/389/187 569/388/186 571/392/190 205/393/191
f 217/391/189 570/390/188 572/394/192 218/395/193
f 205/393/191 571/392/190 573/396/194 206/397/195
f 218/395/193 572/394/192 574/398/196 219/399/197
f 206/397/195 573/396/194 575/400/198 207/401/199
f 291/402/200 576/403/200 577/404/201 292/405/202
f 219/399/197 574/398/196 578/406/203 220/407/204
f 207/401/199 575/400/198 579/408/205 208/409/206
f 292/405/202 577/404/201 580/410/207 195/411/208
f 220/407/204 578/406/203 581/412/209 221/413/210
f 209/414/211 551/415/212 584/416/212 585/417/213
f 195/411/208 580/410/207 582/418/214 196/419/215
f 221/413/210 581/412/209 583/420/216 222/421/217
f 551/415/212 208/409/206 579/408/205 584/416/212
f 196/419/215 582/418/214 586/422/218 197/423/219
f 222/421/217 583/420/216 587/424/220 293/425/221
f 209/414/211 585/417/213 588/426/222 210/427/223
f 197/423/219 586/422/218 589/428/224 198/429/225
f 293/425/221 587/424/220 576/403/200 291/402/200
f 210/427/223 588/426/222 590/430/226 211/431/227
f 198/429/225 589/428/224 591/432/228 199/433/229
f 211/431/227 590/430/226 592/434/230 212/435/231
f 199/433/229 591/432/228 561/303/169 200/302/168
f 212/435/231 592/434/230 563/377/175 213/376/174
f 113/268/166 135/114/166 154/117/163 121/264/163
f 559/436/167 295/313/167 327/375/167 223/437/167
f 195/438/167 296/439/167 294/440/167 292/441/167
f 297/321/167 227/320/167 226/442/167 296/439/167
f 220/373/167 322/368/167 321/362/167 219/443/167
f 219/443/167 321/362/167 320/365/167 218/444/167
f 218/444/167 320/365/167 319/367/167 217/445/167
f 217/445/167 319/367/167 318/360/167 216/446/167
f 216/446/167 318/360/167 317/358/167 215/447/167
f 215/447/167 317/358/167 316/356/167 214/448/167
f 214/448/167 316/356/167 315/354/167 213/449/167
f 213/449/167 315/354/167 314/352/167 212/450/167
f 212/450/167 314/352/167 313/350/167 211/451/167
f 211/451/167 313/350/167 312/348/167 210/452/167
f 210/452/167 312/348/167 311/346/167 209/453/167
f 209/453/167 311/346/167 310/344/167 551/454/167
f 551/454/167 310/344/167 309/342/167 208/455/167
f 208/455/167 309/342/167 308/340/167 207/456/167
f 207/456/167 308/340/167 307/338/167 206/457/167
f 206/457/167 307/338/167 306/336/167 205/458/167
f 205/458/167 306/336/167 305/334/167 204/459/167
f 204/459/167 305/334/167 304/332/167 203/460/167
f 203/460/167 304/332/167 303/330/167 202/461/167
f 202/461/167 303/330/167 302/328/167 201/462/167
f 201/462/167 302/328/167 301/326/167 200/463/167
f 200/463/167 301/326/167 300/324/167 199/464/167
f 199/464/167 300/324/167 299/322/167 198/465/167
f 198/465/167 299/322/167 298/318/167 197/466/167
f 197/466/167 298/318/167 297/321/167 196/467/167
f 196/467/167 297/321/167 296/439/167 195/438/167
f 324/317/167 323/370/167 221/372/167 222/468/167
f 194/469/167 326/310/167 295/313/167 559/436/167
f 506/470/232 505/471/233 36/472/233 38/473/232
f 439/474/234 482/475/234 481/476/235 436/477/235
f 436/477/235 481/476/235 480/478/236 433/479/236
f 433/479/236 480/478/236 479/480/237 430/481/237
f 408/482/238 358/483/239 356/484/240 405/485/240
f 388/486/241 345/487/241 347/488/242 391/489/242
f 373/490/243 335/491/243 337/492/244 376/493/244
f 436/494/245 413/495/245 419/496/246 439/497/246
f 393/498/247 348/499/247 346/500/248 390/501/248
f 361/502/249 446/503/249 449/504/250 453/505/250
f 421/506/251 383/507/251 389/508/252 424/509/252
f 378/510/253 338/511/253 336/512/254 375/513/255
f 441/514/256 422/515/257 416/516/258 438/517/258
f 191/235/136 286/106/136 279/128/118 190/217/118
f 406/518/259 357/519/259 359/520/260 409/521/260
f 343/522/261 341/523/262 340/524/262 342/525/261
f 426/526/263 392/527/264 386/528/265 423/529/265
f 345/487/266 343/522/261 342/525/261 344/530/266
f 391/489/242 347/488/242 349/531/267 394/532/267
f 411/533/268 362/534/269 358/535/239 408/536/238
f 376/493/244 337/492/244 339/537/270 379/538/270
f 439/497/246 419/496/246 425/539/271 442/540/271
f 363/541/272 328/542/272 446/503/249 361/502/249
f 396/543/273 350/544/273 348/499/247 393/498/247
f 454/70/39 455/69/39 452/545/274 360/546/274
f 424/509/252 389/508/252 395/547/275 427/548/275
f 381/549/276 340/524/277 338/511/253 378/510/253
f 444/550/278 428/551/278 422/515/257 441/514/256
f 360/546/274 452/545/274 329/552/279 364/553/279
f 409/554/260 359/555/260 365/556/280 412/557/280
f 366/558/281 330/559/281 328/542/272 363/541/272
f 429/560/282 398/561/283 392/527/264 426/526/263
f 425/539/284 419/496/234 416/516/234 422/515/284
f 394/532/267 349/531/267 351/562/285 397/563/285
f 347/488/286 345/487/266 344/530/266 346/500/286
f 414/564/287 368/565/288 362/534/269 411/533/268
f 413/495/235 407/566/236 404/567/236 410/568/235
f 379/538/270 339/537/270 341/523/289 382/569/289
f 419/496/234 413/495/235 410/568/235 416/516/234
f 442/540/271 425/539/271 431/570/290 445/571/290
f 399/572/291 352/573/291 350/544/273 396/543/273
f 364/553/279 329/552/279 331/574/292 367/575/292
f 427/548/275 395/547/275 401/576/293 430/577/293
f 63/61/34 1/63/35 361/66/37 453/62/34
f 423/529/265 386/528/265 380/578/294 420/579/295
f 403/580/296 355/581/296 357/519/259 406/518/259
f 438/517/258 416/516/258 410/568/297 435/582/297
f 375/513/255 336/512/254 334/583/298 372/584/299
f 418/585/300 377/586/300 383/507/251 421/506/251
f 453/505/250 449/504/250 440/587/301 450/588/301
f 390/501/248 346/500/248 344/530/302 387/589/302
f 433/590/303 407/566/303 413/495/245 436/494/245
f 370/591/304 333/592/304 335/491/243 373/490/243
f 405/485/240 356/484/240 354/593/305 402/594/305
f 448/595/306 437/596/306 443/68/38 451/67/38
f 385/597/307 343/522/307 345/487/241 388/486/241
f 420/579/295 380/578/294 374/598/308 417/599/309
f 400/600/310 353/601/310 355/581/296 403/580/296
f 435/582/297 410/568/297 404/567/311 432/602/311
f 372/584/299 334/583/298 332/603/312 369/604/313
f 415/605/314 371/606/314 377/586/300 418/585/300
f 450/588/301 440/587/301 434/607/315 447/608/315
f 387/589/302 344/530/302 342/525/316 384/609/317
f 430/577/293 401/576/293 407/566/303 433/590/303
f 367/575/292 331/574/292 333/592/304 370/591/304
f 402/594/305 354/593/305 352/573/291 399/572/291
f 445/571/290 431/570/290 437/596/306 448/595/306
f 382/569/289 341/523/289 343/522/307 385/597/307
f 417/599/309 374/598/308 368/565/288 414/564/287
f 397/563/285 351/562/285 353/601/310 400/600/310
f 432/602/311 404/567/311 398/561/283 429/560/282
f 369/604/313 332/603/312 330/559/281 366/558/281
f 412/557/280 365/556/280 371/606/314 415/605/314
f 447/608/315 434/607/315 428/551/278 444/550/278
f 384/609/317 342/525/316 340/524/277 381/549/276
f 2/610/318 457/611/318 456/612/318 4/613/318
f 4/613/318 456/612/318 458/614/318 6/615/318
f 6/615/318 458/614/318 459/616/318 8/617/318
f 8/617/318 459/616/318 460/618/318 10/619/318
f 10/619/318 460/618/318 461/620/318 12/621/318
f 12/621/318 461/620/318 462/622/318 14/623/318
f 14/623/318 462/622/318 463/624/318 16/625/318
f 16/625/318 463/624/318 464/626/318 18/627/318
f 18/627/318 464/626/318 465/628/318 20/629/318
f 20/629/318 465/628/318 466/630/318 22/631/318
f 22/631/318 466/630/318 467/632/318 24/633/318
f 24/633/318 467/632/318 468/634/318 26/635/318
f 26/635/318 468/634/318 469/636/318 28/637/318
f 28/637/318 469/636/318 470/638/318 30/639/318
f 30/639/318 470/638/318 471/640/318 32/641/318
f 32/641/318 471/640/318 472/642/318 34/643/318
f 34/644/318 472/645/318 473/646/318 36/472/318
f 36/472/318 473/646/318 474/647/318 38/473/318
f 38/473/318 474/647/318 475/648/318 40/649/318
f 40/649/318 475/648/318 476/650/318 42/651/318
f 42/651/318 476/650/318 477/652/318 44/653/318
f 44/653/318 477/652/318 478/654/318 46/655/318
f 46/655/318 478/654/318 479/656/318 48/657/318
f 48/657/318 479/656/318 480/658/318 50/659/318
f 50/659/318 480/658/318 481/660/318 52/661/318
f 52/661/318 481/660/318 482/662/318 54/663/318
f 54/663/318 482/662/318 483/664/318 56/665/318
f 56/665/318 483/664/318 484/666/318 58/667/318
f 58/667/318 484/666/318 485/668/318 60/669/318
f 60/669/318 485/668/318 486/670/318 62/671/318
f 62/671/318 486/670/318 487/672/318 64/673/318
f 64/673/318 487/672/318 457/611/318 2/610/318
f 440/587/319 449/504/320 455/69/320 443/68/319
f 241/308/173 242/674/321 83/675/321 82/309/173
f 252/676/322 253/677/323 94/678/323 93/679/322
f 251/680/324 252/676/322 93/679/322 92/681/324
f 288/682/325 289/683/326 66/684/326 65/685/325
f 251/680/324 92/681/324 91/686/327 250/687/327
f 249/688/328 250/687/327 91/686/327 90/689/328
f 235/690/329 236/691/330 77/692/330 76/693/329
f 248/694/331 249/688/328 90/689/328 89/695/331
f 247/696/332 248/694/331 89/695/331 88/697/332
f 246/698/333 247/696/332 88/697/332 87/699/333
f 232/700/334 233/701/335 74/702/335 73/703/334
f 246/698/333 87/699/333 86/704/336 245/705/336
f 231/706/337 232/700/334 73/703/334 72/707/337
f 231/706/337 72/707/337 71/708/338 230/709/338
f 242/674/321 243/710/339 84/711/339 83/675/321
f 238/712/340 239/713/341 80/714/341 79/715/340
f 228/716/342 229/717/343 70/718/343 69/719/342
f 288/682/325 65/685/325 96/720/344 290/721/344
f 229/717/343 230/709/338 71/708/338 70/718/343
f 243/710/339 244/722/345 85/723/345 84/711/339
f 244/722/345 245/705/336 86/704/336 85/723/345
f 233/701/335 234/724/346 75/725/346 74/702/335
f 234/724/346 235/690/329 76/693/329 75/725/346
f 236/691/330 237/726/347 78/727/347 77/692/330
f 237/726/347 238/712/340 79/715/340 78/727/347
f 289/683/326 226/728/348 67/729/348 66/684/326
f 80/714/341 239/713/341 240/730/172 81/731/172
f 226/728/348 227/732/349 68/733/349 67/729/348
f 253/677/323 254/734/350 95/735/350 94/678/323
f 227/732/349 228/716/342 69/719/342 68/733/349
f 254/734/350 290/721/344 96/720/344 95/735/350
f 360/736/351 457/737/351 487/738/320 454/739/320
f 446/503/351 328/542/352 329/552/352 452/545/351
f 328/542/352 330/559/353 331/574/353 329/552/352
f 330/559/353 332/603/354 333/592/354 331/574/353
f 332/603/354 334/583/355 335/491/355 333/592/354
f 334/583/355 336/512/356 337/492/356 335/491/355
f 336/512/356 338/511/357 339/537/357 337/492/356
f 346/500/286 348/499/358 349/531/358 347/488/286
f 348/499/358 350/544/359 351/562/359 349/531/358
f 350/544/359 352/573/360 353/601/360 351/562/359
f 352/573/360 354/593/361 355/581/361 353/601/360
f 354/593/361 356/484/362 357/519/362 355/581/361
f 356/484/362 358/483/363 359/520/363 357/519/362
f 358/535/363 362/534/364 365/556/364 359/555/363
f 362/534/364 368/565/365 371/606/365 365/556/364
f 368/565/365 374/598/366 377/586/366 371/606/365
f 374/598/366 380/578/367 383/507/367 377/586/366
f 380/578/367 386/528/368 389/508/368 383/507/367
f 386/528/368 392/527/369 395/547/369 389/508/368
f 422/515/284 428/551/370 431/570/370 425/539/284
f 428/551/370 434/607/371 437/596/371 431/570/370
f 434/607/371 440/587/319 443/68/319 437/596/371
f 449/504/320 446/503/351 452/545/351 455/69/320
f 364/740/352 456/741/352 457/737/351 360/736/351
f 367/742/353 458/743/353 456/741/352 364/740/352
f 370/744/354 459/745/354 458/743/353 367/742/353
f 373/746/355 460/747/355 459/745/354 370/744/354
f 376/748/356 461/749/356 460/747/355 373/746/355
f 379/750/357 462/751/357 461/749/356 376/748/356
f 382/752/262 463/753/262 462/751/357 379/750/357
f 385/754/261 464/755/261 463/753/262 382/752/262
f 388/756/266 465/757/266 464/755/261 385/754/261
f 391/758/286 466/759/286 465/757/266 388/756/266
f 394/760/358 467/761/358 466/759/286 391/758/286
f 397/762/359 468/763/359 467/761/358 394/760/358
f 400/764/360 469/765/360 468/763/359 397/762/359
f 403/766/361 470/767/361 469/765/360 400/764/360
f 406/768/362 471/769/362 470/767/361 403/766/361
f 409/770/363 472/771/363 471/769/362 406/768/362
f 412/772/364 473/773/364 472/774/363 409/775/363
f 415/776/365 474/777/365 473/773/364 412/772/364
f 418/778/366 475/779/366 474/777/365 415/776/365
f 421/780/367 476/781/367 475/779/366 418/778/366
f 424/782/368 477/783/368 476/781/367 421/780/367
f 427/784/369 478/785/369 477/783/368 424/782/368
f 442/786/284 483/787/284 482/475/234 439/474/234
f 445/788/370 484/789/370 483/787/284 442/786/284
f 448/790/371 485/791/371 484/789/370 445/788/370
f 451/792/319 486/793/319 485/791/371 448/790/371
f 454/739/320 487/738/320 486/793/319 451/792/319
f 430/481/237 479/480/237 478/785/369 427/784/369
f 407/566/236 401/576/237 398/561/237 404/567/236
f 493/794/372 492/795/373 10/619/373 12/621/372
f 489/796/374 519/797/375 64/673/375 2/610/374
f 507/798/376 506/470/232 38/473/232 40/649/376
f 494/799/377 493/794/372 12/621/372 14/623/377
f 508/800/378 507/798/376 40/649/376 42/651/378
f 495/801/379 494/799/377 14/623/377 16/625/379
f 509/802/380 508/800/378 42/651/378 44/653/380
f 496/803/381 495/801/379 16/625/379 18/627/381
f 510/804/382 509/802/380 44/653/380 46/655/382
f 497/805/383 496/803/381 18/627/381 20/629/383
f 511/806/384 510/804/382 46/655/382 48/657/384
f 498/807/385 497/805/383 20/629/383 22/631/385
f 512/808/386 511/806/384 48/657/384 50/659/386
f 499/809/387 498/807/385 22/631/385 24/633/387
f 513/810/388 512/808/386 50/659/386 52/661/388
f 500/811/389 499/809/387 24/633/387 26/635/389
f 514/812/390 513/810/388 52/661/388 54/663/390
f 501/813/391 500/811/389 26/635/389 28/637/391
f 515/814/392 514/812/390 54/663/390 56/665/392
f 502/815/393 501/813/391 28/637/391 30/639/393
f 488/816/394 489/796/374 2/610/374 4/613/394
f 516/817/395 515/814/392 56/665/392 58/667/395
f 503/818/396 502/815/393 30/639/393 32/641/396
f 490/819/397 488/816/394 4/613/394 6/615/397
f 517/820/398 516/817/395 58/667/395 60/669/398
f 504/821/399 503/818/396 32/641/396 34/643/399
f 491/822/400 490/819/397 6/615/397 8/617/400
f 518/823/401 517/820/398 60/669/398 62/671/401
f 505/471/233 504/824/399 34/644/399 36/472/233
f 492/795/373 491/822/400 8/617/400 10/619/373
f 519/797/375 518/823/401 62/671/401 64/673/375
f 324/317/167 222/468/167 293/825/167 325/314/167
f 560/826/167 292/441/167 294/440/167 553/827/167
f 557/828/167 325/314/167 293/825/167 558/829/167
f 558/829/167 293/825/167 291/830/167 193/831/167
f 193/831/167 291/830/167 292/441/167 560/826/167
f 556/832/167 290/315/167 325/314/167 557/828/167
f 553/827/167 294/440/167 289/833/167 554/834/167
f 555/835/167 288/836/167 290/315/167 556/832/167
f 554/834/167 289/833/167 288/836/167 555/835/167
f 296/439/167 226/442/167 289/833/167 294/440/167
f 392/527/369 398/561/237 401/576/237 395/547/369
f 338/511/357 340/524/262 341/523/262 339/537/357
f 225/311/402 326/310/402 553/827/402 554/834/402
f 224/312/403 225/311/404 554/834/404 555/835/403
f 255/374/405 224/312/403 555/835/403 556/832/405
f 327/375/406 255/374/406 556/832/406 557/828/406
f 223/437/407 327/375/407 557/828/407 558/829/407
f 559/436/408 223/437/409 558/829/409 193/831/408
f 326/310/410 194/469/410 560/826/410 553/827/410
f 194/469/411 559/436/408 193/831/408 560/826/411
f 263/88/48 134/87/48 146/113/412 256/238/412
f 527/837/413 528/838/413 562/304/413 561/303/413
f 540/839/413 541/840/413 564/378/413 563/377/413
f 528/838/413 529/841/413 565/380/413 562/304/413
f 541/840/413 542/842/413 566/382/413 564/378/413
f 529/841/413 530/843/413 567/384/413 565/380/413
f 542/842/413 543/844/413 568/386/413 566/382/413
f 530/843/413 531/845/413 569/388/413 567/384/413
f 543/844/413 544/846/413 570/390/413 568/386/413
f 531/845/413 532/847/413 571/392/413 569/388/413
f 544/846/413 545/848/413 572/394/413 570/390/413
f 532/847/413 533/849/413 573/396/413 571/392/413
f 545/848/413 546/850/413 574/398/413 572/394/413
f 533/849/413 534/851/413 575/400/413 573/396/413
f 520/852/413 521/853/413 577/404/413 576/403/413
f 546/850/413 547/854/413 578/406/413 574/398/413
f 534/851/413 535/855/413 579/408/413 575/400/413
f 521/853/413 522/856/413 580/410/413 577/404/413
f 547/854/413 548/857/413 581/412/413 578/406/413
f 522/856/413 523/858/413 582/418/413 580/410/413
f 548/857/413 549/859/413 583/420/413 581/412/413
f 552/860/413 536/861/413 585/417/413 584/416/413
f 523/858/413 524/862/413 586/422/413 582/418/413
f 549/859/413 550/863/413 587/424/413 583/420/413
f 536/861/413 537/864/413 588/426/413 585/417/413
f 524/862/413 525/865/413 589/428/413 586/422/413
f 550/863/413 520/852/413 576/403/413 587/424/413
f 537/864/413 538/866/413 590/430/413 588/426/413
f 525/865/413 526/867/413 591/432/413 589/428/413
f 538/866/413 539/868/413 592/434/413 590/430/413
f 526/867/413 527/837/413 561/303/413 591/432/413
f 539/868/413 540/839/413 563/377/413 592/434/413
f 535/855/413 552/860/413 584/416/413 579/408/413
f 525/865/413 524/862/413 593/869/413 526/867/413
f 523/858/413 522/856/413 593/869/413 524/862/413
f 521/853/413 520/852/413 593/869/413 522/856/413
f 550/863/413 549/859/413 593/869/413 520/852/413
f 548/857/413 547/854/413 593/869/413 549/859/413
f 546/850/413 545/848/413 593/869/413 547/854/413
f 544/846/413 543/844/413 593/869/413 545/848/413
f 542/842/413 541/840/413 593/869/413 543/844/413
f 540/839/413 539/868/413 593/869/413 541/840/413
f 538/866/413 537/864/413 593/869/413 539/868/413
f 536/861/413 552/860/413 593/869/413 537/864/413
f 535/855/413 534/851/413 593/869/413 552/860/413
f 533/849/413 532/847/413 593/869/413 534/851/413
f 531/845/413 530/843/413 593/869/413 532/847/413
f 529/841/413 528/838/413 593/869/413 530/843/413
f 528/838/413 527/837/413 526/867/413 593/869/413
f 155/131/70 280/130/70 256/238/412 146/113/412
f 491/870/318 492/871/318 594/872/318 490/873/318
f 493/874/318 494/875/318 594/872/318 492/871/318
f 495/876/318 496/877/318 594/872/318 494/875/318
f 497/878/318 498/879/318 594/872/318 496/877/318
f 499/880/318 500/881/318 594/872/318 498/879/318
f 501/882/318 502/883/318 594/872/318 500/881/318
f 503/884/318 504/885/318 594/872/318 502/883/318
f 505/886/318 506/887/318 594/872/318 504/885/318
f 507/888/318 508/889/318 594/872/318 506/887/318
f 509/890/318 510/891/318 594/872/318 508/889/318
f 511/892/318 512/893/318 594/872/318 510/891/318
f 513/894/318 514/895/318 594/872/318 512/893/318
f 515/896/318 516/897/318 594/872/318 514/895/318
f 517/898/318 518/899/318 594/872/318 516/897/318
f 519/900/318 489/901/318 594/872/318 518/899/318
f 489/901/318 488/902/318 490/873/318 594/872/318
