# Blender 4.1.1
# www.blender.org
o button_03
v 0.001754 -0.000792 -0.002572
v 0.001276 -0.000792 -0.002444
v 0.000927 -0.000792 -0.002094
v 0.000799 -0.000792 -0.001617
v 0.000927 -0.000792 -0.001139
v 0.001276 -0.000792 -0.000790
v 0.001754 -0.000792 -0.000662
v 0.002231 -0.000792 -0.000790
v 0.002581 -0.000792 -0.001139
v 0.002709 -0.000792 -0.001617
v 0.002581 -0.000792 -0.002094
v 0.002231 -0.000792 -0.002444
v 0.000595 -0.000792 -0.002196
v 0.000595 -0.000792 -0.001617
v 0.000595 -0.000792 -0.000457
v 0.001174 -0.000792 -0.000457
v 0.001754 -0.000792 -0.000457
v 0.002334 -0.000792 -0.000457
v -0.001754 -0.000792 -0.002572
v -0.001276 -0.000792 -0.002444
v -0.000927 -0.000792 -0.002094
v -0.000799 -0.000792 -0.001617
v -0.000927 -0.000792 -0.001139
v -0.001276 -0.000792 -0.000790
v -0.001754 -0.000792 -0.000662
v -0.002231 -0.000792 -0.000790
v -0.002581 -0.000792 -0.001139
v -0.002709 -0.000792 -0.001617
v -0.002581 -0.000792 -0.002094
v -0.002231 -0.000792 -0.002444
v -0.000595 -0.000792 -0.002196
v -0.000595 -0.000792 -0.001617
v -0.000595 -0.000792 -0.000457
v -0.001174 -0.000792 -0.000457
v -0.001754 -0.000792 -0.000457
v -0.002334 -0.000792 -0.000457
v 0.001754 -0.000792 0.002572
v 0.001276 -0.000792 0.002444
v 0.000927 -0.000792 0.002094
v 0.000799 -0.000792 0.001617
v 0.000927 -0.000792 0.001139
v 0.001276 -0.000792 0.000790
v 0.001754 -0.000792 0.000662
v 0.002231 -0.000792 0.000790
v 0.002581 -0.000792 0.001139
v 0.002709 -0.000792 0.001617
v 0.002581 -0.000792 0.002094
v 0.002231 -0.000792 0.002444
v 0.000595 -0.000792 0.002196
v 0.000595 -0.000792 0.001617
v 0.000595 -0.000792 0.000457
v 0.001174 -0.000792 0.000457
v 0.001754 -0.000792 0.000457
v 0.002334 -0.000792 0.000457
v -0.001754 -0.000792 0.002572
v -0.001276 -0.000792 0.002444
v -0.000927 -0.000792 0.002094
v -0.000799 -0.000792 0.001617
v -0.000927 -0.000792 0.001139
v -0.001276 -0.000792 0.000790
v -0.001754 -0.000792 0.000662
v -0.002231 -0.000792 0.000790
v -0.002581 -0.000792 0.001139
v -0.002709 -0.000792 0.001617
v -0.002581 -0.000792 0.002094
v -0.002231 -0.000792 0.002444
v -0.000595 -0.000792 0.002196
v -0.000595 -0.000792 0.001617
v -0.000595 -0.000792 0.000457
v -0.001174 -0.000792 0.000457
v -0.001754 -0.000792 0.000457
v -0.002334 -0.000792 0.000457
v 0.000000 -0.000792 -0.000457
v 0.000000 -0.000792 -0.001617
v 0.000000 -0.000792 -0.002196
v 0.000000 -0.000792 0.000457
v 0.000000 -0.000792 0.001617
v 0.000000 -0.000792 0.002196
v 0.001754 -0.000792 0.000000
v 0.001174 -0.000792 0.000000
v 0.002334 -0.000792 0.000000
v -0.001754 -0.000792 0.000000
v -0.001174 -0.000792 0.000000
v -0.002334 -0.000792 0.000000
v -0.000595 -0.000792 0.000000
v 0.000595 -0.000792 0.000000
v 0.000000 -0.000792 0.000000
v 0.002212 -0.000792 -0.003832
v 0.009749 -0.000792 -0.002225
v 0.004258 -0.000792 -0.001141
v 0.001141 -0.000792 -0.004258
v 0.004339 -0.000792 -0.009010
v 0.002844 -0.000792 -0.003390
v 0.003390 -0.000792 -0.002844
v 0.003832 -0.000792 -0.002212
v -0.002212 -0.000792 -0.003832
v -0.001141 -0.000792 -0.004258
v 0.007818 -0.000792 -0.006235
v 0.009010 -0.000792 -0.004339
v -0.004258 -0.000792 -0.001141
v -0.002844 -0.000792 -0.003390
v -0.003390 -0.000792 -0.002844
v -0.003832 -0.000792 -0.002212
v 0.002212 -0.000792 0.003832
v 0.001141 -0.000792 0.004258
v 0.002225 -0.000792 -0.009749
v -0.004339 -0.000792 -0.009010
v 0.004258 -0.000792 0.001141
v 0.002844 -0.000792 0.003390
v 0.003390 -0.000792 0.002844
v 0.003832 -0.000792 0.002212
v -0.002212 -0.000792 0.003832
v -0.002225 -0.000792 -0.009749
v -0.004258 -0.000792 0.001141
v -0.001141 -0.000792 0.004258
v 0.006235 -0.000792 -0.007818
v -0.002844 -0.000792 0.003390
v -0.003390 -0.000792 0.002844
v -0.003832 -0.000792 0.002212
v 0.000000 -0.000792 0.004425
v 0.000000 -0.000792 -0.004425
v 0.004425 -0.000792 0.000000
v -0.004425 -0.000792 -0.000000
v -0.009749 -0.000792 -0.002225
v -0.009010 -0.000792 -0.004339
v -0.007818 -0.000792 -0.006235
v -0.006235 -0.000792 -0.007818
v 0.002225 -0.000792 0.009749
v 0.004339 -0.000792 0.009010
v 0.009749 -0.000792 0.002225
v 0.009010 -0.000792 0.004339
v 0.007818 -0.000792 0.006235
v 0.006235 -0.000792 0.007818
v -0.002225 -0.000792 0.009749
v -0.004339 -0.000792 0.009010
v -0.009749 -0.000792 0.002225
v -0.009010 -0.000792 0.004339
v -0.007818 -0.000792 0.006235
v -0.006235 -0.000792 0.007818
v 0.000000 -0.000792 -0.010000
v -0.000000 -0.000792 0.010000
v -0.010000 -0.000792 -0.000000
v 0.010000 -0.000792 0.000000
v -0.001754 0.000792 -0.002572
v -0.001276 0.000792 -0.002444
v -0.000927 0.000792 -0.002094
v -0.000799 0.000792 -0.001617
v -0.000927 0.000792 -0.001139
v -0.001276 0.000792 -0.000790
v -0.001754 0.000792 -0.000662
v -0.002231 0.000792 -0.000790
v -0.002581 0.000792 -0.001139
v -0.002709 0.000792 -0.001617
v -0.002581 0.000792 -0.002094
v -0.002231 0.000792 -0.002444
v -0.001815 0.000792 -0.007953
v -0.003539 0.000792 -0.007349
v -0.000595 0.000792 -0.002196
v -0.000595 0.000792 -0.001617
v -0.000595 0.000792 -0.000457
v -0.001174 0.000792 -0.000457
v -0.001754 0.000792 -0.000457
v -0.002334 0.000792 -0.000457
v -0.007953 0.000792 -0.001815
v -0.007349 0.000792 -0.003539
v -0.006377 0.000792 -0.005086
v -0.005086 0.000792 -0.006377
v 0.001754 0.000792 -0.002572
v 0.001276 0.000792 -0.002444
v 0.000927 0.000792 -0.002094
v 0.000799 0.000792 -0.001617
v 0.000927 0.000792 -0.001139
v 0.001276 0.000792 -0.000790
v 0.001754 0.000792 -0.000662
v 0.002231 0.000792 -0.000790
v 0.002581 0.000792 -0.001139
v 0.002709 0.000792 -0.001617
v 0.002581 0.000792 -0.002094
v 0.002231 0.000792 -0.002444
v 0.001815 0.000792 -0.007953
v 0.003539 0.000792 -0.007349
v 0.000595 0.000792 -0.002196
v 0.000595 0.000792 -0.001617
v 0.000595 0.000792 -0.000457
v 0.001174 0.000792 -0.000457
v 0.001754 0.000792 -0.000457
v 0.002334 0.000792 -0.000457
v 0.007953 0.000792 -0.001815
v 0.007349 0.000792 -0.003539
v 0.006377 0.000792 -0.005086
v 0.005086 0.000792 -0.006377
v -0.001754 0.000792 0.002572
v -0.001276 0.000792 0.002444
v -0.000927 0.000792 0.002094
v -0.000799 0.000792 0.001617
v -0.000927 0.000792 0.001139
v -0.001276 0.000792 0.000790
v -0.001754 0.000792 0.000662
v -0.002231 0.000792 0.000790
v -0.002581 0.000792 0.001139
v -0.002709 0.000792 0.001617
v -0.002581 0.000792 0.002094
v -0.002231 0.000792 0.002444
v -0.001815 0.000792 0.007953
v -0.003539 0.000792 0.007349
v -0.000595 0.000792 0.002196
v -0.000595 0.000792 0.001617
v -0.000595 0.000792 0.000457
v -0.001174 0.000792 0.000457
v -0.001754 0.000792 0.000457
v -0.002334 0.000792 0.000457
v -0.007953 0.000792 0.001815
v -0.007349 0.000792 0.003539
v -0.006377 0.000792 0.005086
v -0.005086 0.000792 0.006377
v 0.001754 0.000792 0.002572
v 0.001276 0.000792 0.002444
v 0.000927 0.000792 0.002094
v 0.000799 0.000792 0.001617
v 0.000927 0.000792 0.001139
v 0.001276 0.000792 0.000790
v 0.001754 0.000792 0.000662
v 0.002231 0.000792 0.000790
v 0.002581 0.000792 0.001139
v 0.002709 0.000792 0.001617
v 0.002581 0.000792 0.002094
v 0.002231 0.000792 0.002444
v 0.001815 0.000792 0.007953
v 0.003539 0.000792 0.007349
v 0.000595 0.000792 0.002196
v 0.000595 0.000792 0.001617
v 0.000595 0.000792 0.000457
v 0.001174 0.000792 0.000457
v 0.001754 0.000792 0.000457
v 0.002334 0.000792 0.000457
v 0.007953 0.000792 0.001815
v 0.007349 0.000792 0.003539
v 0.006377 0.000792 0.005086
v 0.005086 0.000792 0.006377
v 0.000000 0.000792 -0.000457
v 0.000000 0.000792 -0.001617
v 0.000000 0.000792 -0.002196
v 0.000000 0.000792 0.000457
v 0.000000 0.000792 0.001617
v 0.000000 0.000792 0.002196
v -0.000000 0.000792 -0.008157
v 0.000000 0.000792 0.008157
v -0.001754 0.000792 0.000000
v -0.001174 0.000792 0.000000
v -0.002334 0.000792 0.000000
v 0.001754 0.000792 0.000000
v 0.001174 0.000792 0.000000
v 0.002334 0.000792 0.000000
v 0.000595 0.000792 0.000000
v -0.000595 0.000792 0.000000
v 0.008157 0.000792 -0.000000
v -0.008157 0.000792 0.000000
v 0.000000 0.000792 0.000000
v -0.002212 0.000792 -0.003832
v -0.009749 0.001208 -0.002225
v -0.004258 0.000792 -0.001141
v -0.001141 0.000792 -0.004258
v -0.004339 0.001208 -0.009010
v -0.002844 0.000792 -0.003390
v -0.003390 0.000792 -0.002844
v -0.003832 0.000792 -0.002212
v 0.002212 0.000792 -0.003832
v 0.001141 0.000792 -0.004258
v -0.007818 0.001208 -0.006235
v -0.009010 0.001208 -0.004339
v 0.004258 0.000792 -0.001141
v 0.002844 0.000792 -0.003390
v 0.003390 0.000792 -0.002844
v 0.003832 0.000792 -0.002212
v -0.002212 0.000792 0.003832
v -0.001141 0.000792 0.004258
v -0.002225 0.001208 -0.009749
v 0.004339 0.001208 -0.009010
v -0.004258 0.000792 0.001141
v -0.002844 0.000792 0.003390
v -0.003390 0.000792 0.002844
v -0.003832 0.000792 0.002212
v 0.002212 0.000792 0.003832
v 0.002225 0.001208 -0.009749
v 0.004258 0.000792 0.001141
v 0.001141 0.000792 0.004258
v -0.006235 0.001208 -0.007818
v 0.002844 0.000792 0.003390
v 0.003390 0.000792 0.002844
v 0.003832 0.000792 0.002212
v 0.000000 0.000792 0.004425
v -0.000000 0.000792 -0.004425
v -0.004425 0.000792 0.000000
v 0.004425 0.000792 -0.000000
v 0.009749 0.001208 -0.002225
v 0.009010 0.001208 -0.004339
v 0.007818 0.001208 -0.006235
v 0.006235 0.001208 -0.007818
v -0.002225 0.001208 0.009749
v -0.004339 0.001208 0.009010
v -0.009749 0.001208 0.002225
v -0.009010 0.001208 0.004339
v -0.007818 0.001208 0.006235
v -0.006235 0.001208 0.007818
v 0.002225 0.001208 0.009749
v 0.004339 0.001208 0.009010
v 0.009749 0.001208 0.002225
v 0.009010 0.001208 0.004339
v 0.007818 0.001208 0.006235
v 0.006235 0.001208 0.007818
v -0.000000 0.001208 -0.010000
v 0.000000 0.001208 0.010000
v 0.010000 0.001208 -0.000000
v -0.010000 0.001208 0.000000
v -0.007654 0.001208 0.003686
v -0.008282 0.001208 0.001890
v -0.003686 0.001208 -0.007654
v -0.001890 0.001208 -0.008282
v -0.006642 0.001208 0.005296
v 0.003686 0.001208 0.007654
v 0.001890 0.001208 0.008282
v -0.005296 0.001208 0.006642
v -0.000000 0.001208 -0.008495
v 0.001890 0.001208 -0.008282
v -0.003686 0.001208 0.007654
v 0.000000 0.001208 0.008495
v -0.001890 0.001208 0.008282
v 0.007654 0.001208 -0.003686
v 0.008282 0.001208 -0.001890
v 0.006642 0.001208 -0.005296
v 0.005296 0.001208 -0.006642
v 0.008495 0.001208 -0.000000
v 0.008282 0.001208 0.001890
v 0.003686 0.001208 -0.007654
v -0.008495 0.001208 -0.000000
v -0.008282 0.001208 -0.001890
v -0.007654 0.001208 -0.003686
v 0.007654 0.001208 0.003686
v -0.006642 0.001208 -0.005296
v 0.006642 0.001208 0.005296
v -0.005296 0.001208 -0.006642
v 0.005296 0.001208 0.006642
vn -0.0000 -1.0000 -0.0000
vn -0.0000 1.0000 -0.0000
vn -0.4839 0.6306 -0.6068
vn -0.3367 0.6306 -0.6992
vn 0.4839 0.6306 0.6068
vn 0.3367 0.6306 0.6992
vn -0.6068 0.6306 -0.4839
vn 0.6068 0.6306 0.4839
vn -0.6992 0.6306 -0.3367
vn -0.1727 0.6306 0.7566
vn -0.3367 0.6306 0.6992
vn 0.6992 0.6306 0.3367
vn 0.7566 0.6306 -0.1727
vn 0.7761 0.6306 -0.0000
vn -0.7566 0.6306 -0.1727
vn -0.7566 0.6306 0.1727
vn -0.7761 0.6306 -0.0000
vn 0.7566 0.6306 0.1727
vn -0.1727 0.6306 -0.7566
vn -0.0000 0.6306 -0.7761
vn -0.4839 0.6306 0.6068
vn 0.1727 0.6306 0.7566
vn -0.0000 0.6306 0.7761
vn -0.6068 0.6306 0.4839
vn 0.1727 0.6306 -0.7566
vn 0.3367 0.6306 -0.6992
vn -0.6992 0.6306 0.3367
vn 0.4839 0.6306 -0.6068
vn 0.6992 0.6306 -0.3367
vn 0.6068 0.6306 -0.4839
vn 1.0000 -0.0000 -0.0000
vn 0.9749 -0.0000 0.2225
vn 0.9010 -0.0000 0.4339
vn 0.7818 -0.0000 0.6235
vn 0.6235 -0.0000 0.7818
vn 0.4339 -0.0000 0.9010
vn 0.2225 -0.0000 0.9749
vn -0.0000 -0.0000 1.0000
vn -0.2225 -0.0000 0.9749
vn -0.4339 -0.0000 0.9010
vn -0.6235 -0.0000 0.7818
vn -0.7818 -0.0000 0.6235
vn -0.9010 -0.0000 0.4339
vn -0.9749 -0.0000 0.2225
vn -1.0000 -0.0000 -0.0000
vn -0.9749 -0.0000 -0.2225
vn -0.9010 -0.0000 -0.4339
vn -0.7818 -0.0000 -0.6235
vn -0.6235 -0.0000 -0.7818
vn -0.4339 -0.0000 -0.9010
vn -0.2225 -0.0000 -0.9749
vn -0.0000 -0.0000 -1.0000
vn 0.2225 -0.0000 -0.9749
vn 0.4339 -0.0000 -0.9010
vn 0.6235 -0.0000 -0.7818
vn 0.7818 -0.0000 -0.6235
vn 0.9010 -0.0000 -0.4339
vn 0.9749 -0.0000 -0.2225
vn 0.8660 -0.0000 0.5000
vn 0.5000 -0.0000 0.8660
vn 0.8660 -0.0000 -0.5000
vn 0.5000 -0.0000 -0.8660
vn -0.5000 -0.0000 -0.8660
vn -0.8660 -0.0000 -0.5000
vn -0.8660 -0.0000 0.5000
vn -0.5000 -0.0000 0.8660
vt 0.109166 0.249979
vt 0.039317 0.303456
vt 0.020527 0.273552
vt 0.102188 0.240014
vt 0.150026 0.230621
vt 0.148008 0.223089
vt 0.153248 0.212335
vt 0.153248 0.230621
vt 0.127732 0.265558
vt 0.094194 0.347219
vt 0.064290 0.328429
vt 0.117767 0.258581
vt 0.142494 0.217575
vt 0.134963 0.215557
vt 0.134963 0.212335
vt 0.144105 0.212335
vt 0.008862 0.240216
vt 0.095473 0.223114
vt 0.144632 0.272273
vt 0.127530 0.358884
vt 0.148008 0.238152
vt 0.153248 0.239763
vt 0.127431 0.217575
vt 0.125820 0.212335
vt 0.197519 0.265558
vt 0.231057 0.347219
vt 0.197721 0.358884
vt 0.180619 0.272273
vt 0.223063 0.240014
vt 0.304724 0.273552
vt 0.285934 0.303456
vt 0.216085 0.249979
vt 0.175225 0.230621
vt 0.172003 0.230621
vt 0.172003 0.212335
vt 0.177243 0.223089
vt 0.207484 0.258581
vt 0.260961 0.328429
vt 0.182757 0.217575
vt 0.181146 0.212335
vt 0.190288 0.212335
vt 0.190288 0.215557
vt 0.229778 0.223114
vt 0.316389 0.240216
vt 0.177243 0.238152
vt 0.172003 0.239763
vt 0.199431 0.212335
vt 0.197820 0.217575
vt 0.127732 0.144683
vt 0.094194 0.063022
vt 0.127530 0.051358
vt 0.144632 0.137968
vt 0.102188 0.170227
vt 0.020527 0.136690
vt 0.039317 0.106785
vt 0.109166 0.160262
vt 0.150026 0.179621
vt 0.153248 0.179621
vt 0.153248 0.197906
vt 0.148008 0.187153
vt 0.117767 0.151661
vt 0.064290 0.081812
vt 0.142494 0.192666
vt 0.144105 0.197906
vt 0.134963 0.197906
vt 0.134963 0.194684
vt 0.095473 0.187127
vt 0.008862 0.170025
vt 0.148008 0.172089
vt 0.153248 0.170479
vt 0.125820 0.197906
vt 0.127431 0.192666
vt 0.180619 0.137968
vt 0.197721 0.051358
vt 0.231057 0.063022
vt 0.197519 0.144683
vt 0.216085 0.160263
vt 0.285934 0.106786
vt 0.304724 0.136690
vt 0.223063 0.170227
vt 0.175225 0.179621
vt 0.177243 0.187153
vt 0.172003 0.197906
vt 0.172003 0.179621
vt 0.260961 0.081812
vt 0.207484 0.151661
vt 0.182757 0.192666
vt 0.190288 0.194684
vt 0.190288 0.197906
vt 0.181146 0.197906
vt 0.316389 0.170025
vt 0.229778 0.187127
vt 0.177243 0.172089
vt 0.172003 0.170479
vt 0.197820 0.192666
vt 0.199431 0.197906
vt 0.162625 0.274908
vt 0.162625 0.362838
vt 0.162625 0.230621
vt 0.162625 0.212335
vt 0.162625 0.239763
vt 0.144105 0.205121
vt 0.134963 0.205121
vt 0.125820 0.205121
vt 0.181146 0.205121
vt 0.190288 0.205121
vt 0.199431 0.205121
vt 0.162625 0.179621
vt 0.162625 0.197906
vt 0.162625 0.170479
vt 0.172003 0.205121
vt 0.153248 0.205121
vt 0.162625 0.205121
vt 0.162626 0.135334
vt 0.232413 0.205121
vt 0.092838 0.205121
vt 0.004908 0.205121
vt 0.162626 0.047403
vt 0.320343 0.205121
vt 0.205352 0.179621
vt 0.203334 0.172089
vt 0.197820 0.166576
vt 0.190288 0.164558
vt 0.182757 0.166576
vt 0.203334 0.187153
vt 0.119899 0.179621
vt 0.121917 0.172089
vt 0.127431 0.166576
vt 0.134963 0.164558
vt 0.142494 0.166576
vt 0.121917 0.187153
vt 0.205352 0.230621
vt 0.203334 0.238152
vt 0.197820 0.243666
vt 0.190288 0.245684
vt 0.182757 0.243666
vt 0.203334 0.223089
vt 0.119899 0.230621
vt 0.121917 0.238152
vt 0.127431 0.243666
vt 0.134963 0.245684
vt 0.142494 0.243666
vt 0.121917 0.223089
vt 0.421232 0.227441
vt 0.428029 0.244190
vt 0.373550 0.265222
vt 0.363795 0.238428
vt 0.475497 0.234628
vt 0.473472 0.227146
vt 0.478662 0.216436
vt 0.478698 0.234620
vt 0.435027 0.254036
vt 0.443615 0.262507
vt 0.409281 0.308986
vt 0.388975 0.289133
vt 0.467973 0.221678
vt 0.460473 0.219698
vt 0.460460 0.216492
vt 0.469561 0.216459
vt 0.453522 0.269365
vt 0.470263 0.275941
vt 0.460139 0.333096
vt 0.433405 0.323868
vt 0.429822 0.331488
vt 0.458323 0.341293
vt 0.453195 0.364340
vt 0.419785 0.353014
vt 0.473514 0.242115
vt 0.478719 0.243698
vt 0.380588 0.124677
vt 0.364565 0.150833
vt 0.342606 0.140685
vt 0.361383 0.109859
vt 0.452990 0.221739
vt 0.451360 0.216533
vt 0.554775 0.227315
vt 0.612219 0.238183
vt 0.602523 0.264992
vt 0.548013 0.244073
vt 0.500530 0.234603
vt 0.497330 0.234601
vt 0.497331 0.216420
vt 0.502540 0.227118
vt 0.541036 0.253932
vt 0.587151 0.288931
vt 0.566890 0.308824
vt 0.532466 0.262421
vt 0.508028 0.221642
vt 0.506431 0.216426
vt 0.515531 0.216442
vt 0.515523 0.219648
vt 0.522573 0.269299
vt 0.542798 0.323755
vt 0.516085 0.333038
vt 0.505845 0.275906
vt 0.402071 0.102693
vt 0.386611 0.083897
vt 0.502529 0.242085
vt 0.497326 0.243679
vt 0.547801 0.085965
vt 0.518722 0.075566
vt 0.524382 0.051724
vt 0.558658 0.064130
vt 0.524630 0.216467
vt 0.523010 0.221676
vt 0.420951 0.191585
vt 0.363132 0.181620
vt 0.372319 0.154441
vt 0.427528 0.174672
vt 0.475380 0.183821
vt 0.478599 0.183813
vt 0.478634 0.202062
vt 0.473384 0.191346
vt 0.434439 0.164661
vt 0.387362 0.129932
vt 0.407510 0.109340
vt 0.442989 0.155989
vt 0.467897 0.196863
vt 0.469518 0.202085
vt 0.460403 0.202117
vt 0.460390 0.198904
vt 0.452941 0.148939
vt 0.431815 0.093767
vt 0.459036 0.083982
vt 0.469864 0.142140
vt 0.354788 0.179834
vt 0.331174 0.174840
vt 0.473342 0.176301
vt 0.478577 0.174675
vt 0.487896 0.071970
vt 0.457045 0.075556
vt 0.451452 0.051740
vt 0.487897 0.047415
vt 0.451287 0.202158
vt 0.452867 0.196924
vt 0.554987 0.191467
vt 0.548380 0.174570
vt 0.603529 0.154247
vt 0.612764 0.181394
vt 0.500554 0.183798
vt 0.502564 0.191319
vt 0.497333 0.202045
vt 0.497335 0.183796
vt 0.541454 0.164575
vt 0.532892 0.155922
vt 0.568291 0.109228
vt 0.588452 0.129779
vt 0.508061 0.196828
vt 0.515570 0.198857
vt 0.515563 0.202069
vt 0.506448 0.202052
vt 0.522932 0.148888
vt 0.506001 0.142115
vt 0.516747 0.083983
vt 0.543991 0.093683
vt 0.488124 0.344461
vt 0.517918 0.341232
vt 0.523094 0.364267
vt 0.488149 0.368151
vt 0.502577 0.176276
vt 0.497340 0.174659
vt 0.427992 0.086059
vt 0.417144 0.064146
vt 0.523089 0.196864
vt 0.524678 0.202094
vt 0.488014 0.234605
vt 0.487996 0.216423
vt 0.488023 0.243684
vt 0.469540 0.209275
vt 0.460432 0.209306
vt 0.451323 0.209348
vt 0.506439 0.209242
vt 0.515547 0.209258
vt 0.524654 0.209283
vt 0.487967 0.183800
vt 0.487983 0.202049
vt 0.487959 0.174662
vt 0.497332 0.209236
vt 0.478648 0.209252
vt 0.487990 0.209239
vt 0.488057 0.278510
vt 0.487932 0.139449
vt 0.557510 0.209418
vt 0.418461 0.209545
vt 0.615718 0.209849
vt 0.360235 0.210092
vt 0.488115 0.336222
vt 0.487896 0.080749
vt 0.530648 0.183871
vt 0.528659 0.176339
vt 0.523165 0.170812
vt 0.515637 0.168773
vt 0.508098 0.170773
vt 0.528608 0.191382
vt 0.445282 0.183942
vt 0.447259 0.176406
vt 0.452742 0.170863
vt 0.460268 0.168816
vt 0.467811 0.170807
vt 0.447337 0.191451
vt 0.530456 0.234669
vt 0.528426 0.242142
vt 0.522937 0.247601
vt 0.515460 0.249585
vt 0.507994 0.247566
vt 0.528475 0.227177
vt 0.445569 0.234749
vt 0.447613 0.242220
vt 0.453116 0.247663
vt 0.460597 0.249636
vt 0.468060 0.247606
vt 0.447535 0.227252
vt 0.610114 0.268768
vt 0.620476 0.240182
vt 0.643816 0.245887
vt 0.631553 0.279497
vt 0.593700 0.294285
vt 0.612176 0.309467
vt 0.572085 0.315479
vt 0.586704 0.334320
vt 0.624225 0.209955
vt 0.621100 0.179592
vt 0.644690 0.174552
vt 0.648293 0.210304
vt 0.546397 0.331367
vt 0.556479 0.352871
vt 0.351725 0.210216
vt 0.355540 0.240445
vt 0.332205 0.246202
vt 0.327648 0.210617
vt 0.365965 0.269016
vt 0.344545 0.279794
vt 0.611272 0.150627
vt 0.633194 0.140444
vt 0.382436 0.294502
vt 0.363991 0.309726
vt 0.595213 0.124518
vt 0.614371 0.109685
vt 0.404099 0.315653
vt 0.389519 0.334526
vt 0.573720 0.102581
vt 0.589132 0.083804
vt 0.746622 0.037675
vt 0.746622 0.006129
vt 0.781943 0.006129
vt 0.781943 0.037675
vt 0.817264 0.037675
vt 0.817264 0.006129
vt 0.852585 0.006129
vt 0.852585 0.037675
vt 0.887906 0.006129
vt 0.887906 0.037675
vt 0.923226 0.006129
vt 0.923226 0.037675
vt 0.958547 0.006129
vt 0.958547 0.037675
vt 0.993868 0.006128
vt 0.993868 0.037675
vt 0.004885 0.037675
vt 0.004885 0.006128
vt 0.040205 0.006128
vt 0.040205 0.037675
vt 0.075526 0.037675
vt 0.075526 0.006128
vt 0.110847 0.037675
vt 0.110847 0.006128
vt 0.146168 0.037675
vt 0.146168 0.006128
vt 0.181489 0.037675
vt 0.181489 0.006128
vt 0.216809 0.037675
vt 0.216809 0.006128
vt 0.252130 0.006128
vt 0.252130 0.037675
vt 0.287451 0.006128
vt 0.287451 0.037675
vt 0.322772 0.006128
vt 0.322772 0.037675
vt 0.358093 0.006128
vt 0.358093 0.037675
vt 0.393414 0.006128
vt 0.393414 0.037675
vt 0.428735 0.006128
vt 0.428735 0.037675
vt 0.464055 0.006128
vt 0.464055 0.037675
vt 0.499376 0.006128
vt 0.499376 0.037675
vt 0.534697 0.006129
vt 0.534697 0.037675
vt 0.570018 0.037675
vt 0.570018 0.006128
vt 0.605339 0.037675
vt 0.605339 0.006129
vt 0.640660 0.037675
vt 0.640660 0.006129
vt 0.675981 0.037675
vt 0.675981 0.006129
vt 0.711302 0.037675
vt 0.711302 0.006129
vt 0.681883 0.128647
vt 0.681883 0.136444
vt 0.656896 0.136444
vt 0.656896 0.128647
vt 0.681883 0.120849
vt 0.656896 0.120849
vt 0.681883 0.113052
vt 0.656896 0.113052
vt 0.681883 0.105255
vt 0.656896 0.105255
vt 0.681883 0.097458
vt 0.656896 0.097458
vt 0.681883 0.089661
vt 0.656896 0.089661
vt 0.681883 0.081864
vt 0.656896 0.081864
vt 0.681883 0.074066
vt 0.656896 0.074066
vt 0.681883 0.066269
vt 0.656896 0.066269
vt 0.681883 0.058472
vt 0.656896 0.058472
vt 0.681883 0.050675
vt 0.656896 0.050675
vt 0.681883 0.144241
vt 0.656896 0.144241
vt 0.749829 0.136562
vt 0.724841 0.136562
vt 0.724841 0.128765
vt 0.749829 0.128765
vt 0.749829 0.120968
vt 0.724841 0.120968
vt 0.724841 0.113171
vt 0.749829 0.113171
vt 0.724841 0.105374
vt 0.749829 0.105374
vt 0.724841 0.097576
vt 0.749829 0.097576
vt 0.724841 0.089779
vt 0.749829 0.089779
vt 0.724842 0.081982
vt 0.749829 0.081982
vt 0.724841 0.074185
vt 0.749829 0.074185
vt 0.724841 0.066388
vt 0.749829 0.066388
vt 0.724842 0.058591
vt 0.749829 0.058591
vt 0.724841 0.050794
vt 0.749829 0.050794
vt 0.749829 0.144359
vt 0.724841 0.144359
vt 0.786244 0.128273
vt 0.786244 0.136071
vt 0.761257 0.136071
vt 0.761257 0.128274
vt 0.786244 0.120476
vt 0.761257 0.120476
vt 0.786244 0.112679
vt 0.761257 0.112679
vt 0.786244 0.104882
vt 0.761257 0.104882
vt 0.786244 0.097085
vt 0.761257 0.097085
vt 0.786244 0.089288
vt 0.761257 0.089288
vt 0.786244 0.081491
vt 0.761257 0.081491
vt 0.786244 0.073693
vt 0.761257 0.073694
vt 0.786244 0.065896
vt 0.761257 0.065896
vt 0.786244 0.058099
vt 0.761257 0.058099
vt 0.786244 0.050302
vt 0.761257 0.050302
vt 0.786244 0.143868
vt 0.761257 0.143868
vt 0.715290 0.136561
vt 0.690303 0.136561
vt 0.690303 0.128764
vt 0.715290 0.128764
vt 0.715290 0.120967
vt 0.690303 0.120967
vt 0.690303 0.113170
vt 0.715290 0.113170
vt 0.690303 0.105373
vt 0.715290 0.105373
vt 0.690303 0.097576
vt 0.715290 0.097576
vt 0.690303 0.089779
vt 0.715290 0.089779
vt 0.690303 0.081981
vt 0.715290 0.081981
vt 0.690303 0.074184
vt 0.715290 0.074184
vt 0.690303 0.066387
vt 0.715290 0.066387
vt 0.690303 0.058590
vt 0.715290 0.058590
vt 0.690303 0.050793
vt 0.715290 0.050793
vt 0.715290 0.144359
vt 0.690303 0.144359
s 1
f 94/1/1 98/2/1 99/3/1 95/4/1
f 4/5/1 5/6/1 15/7/1 14/8/1
f 88/9/1 92/10/1 116/11/1 93/12/1
f 6/13/1 7/14/1 17/15/1 16/16/1
f 95/4/1 99/3/1 89/17/1 90/18/1
f 91/19/1 106/20/1 92/10/1 88/9/1
f 3/21/1 4/5/1 14/8/1 13/22/1
f 7/14/1 8/23/1 18/24/1 17/15/1
f 96/25/1 107/26/1 113/27/1 97/28/1
f 5/6/1 6/13/1 16/16/1 15/7/1
f 93/12/1 116/11/1 98/2/1 94/1/1
f 103/29/1 125/30/1 126/31/1 102/32/1
f 22/33/1 32/34/1 33/35/1 23/36/1
f 101/37/1 127/38/1 107/26/1 96/25/1
f 24/39/1 34/40/1 35/41/1 25/42/1
f 100/43/1 124/44/1 125/30/1 103/29/1
f 21/45/1 31/46/1 32/34/1 22/33/1
f 25/42/1 35/41/1 36/47/1 26/48/1
f 104/49/1 129/50/1 128/51/1 105/52/1
f 23/36/1 33/35/1 34/40/1 24/39/1
f 102/32/1 126/31/1 127/38/1 101/37/1
f 111/53/1 131/54/1 132/55/1 110/56/1
f 40/57/1 50/58/1 51/59/1 41/60/1
f 109/61/1 133/62/1 129/50/1 104/49/1
f 42/63/1 52/64/1 53/65/1 43/66/1
f 108/67/1 130/68/1 131/54/1 111/53/1
f 39/69/1 49/70/1 50/58/1 40/57/1
f 43/66/1 53/65/1 54/71/1 44/72/1
f 115/73/1 134/74/1 135/75/1 112/76/1
f 41/60/1 51/59/1 52/64/1 42/63/1
f 110/56/1 132/55/1 133/62/1 109/61/1
f 118/77/1 138/78/1 137/79/1 119/80/1
f 58/81/1 59/82/1 69/83/1 68/84/1
f 112/76/1 135/75/1 139/85/1 117/86/1
f 60/87/1 61/88/1 71/89/1 70/90/1
f 119/80/1 137/79/1 136/91/1 114/92/1
f 57/93/1 58/81/1 68/84/1 67/94/1
f 61/88/1 62/95/1 72/96/1 71/89/1
f 121/97/1 140/98/1 106/20/1 91/19/1
f 59/82/1 60/87/1 70/90/1 69/83/1
f 117/86/1 139/85/1 138/78/1 118/77/1
f 74/99/1 73/100/1 33/35/1 32/34/1
f 75/101/1 74/99/1 32/34/1 31/46/1
f 80/102/1 79/103/1 53/65/1 52/64/1
f 81/104/1 79/103/1 17/15/1 18/24/1
f 83/105/1 70/90/1 71/89/1 82/106/1
f 84/107/1 82/106/1 71/89/1 72/96/1
f 77/108/1 68/84/1 69/83/1 76/109/1
f 78/110/1 77/108/1 50/58/1 49/70/1
f 85/111/1 83/105/1 34/40/1 33/35/1
f 86/112/1 80/102/1 52/64/1 51/59/1
f 87/113/1 86/112/1 51/59/1 76/109/1
f 121/97/1 75/101/1 31/46/1 97/28/1
f 120/114/1 78/110/1 49/70/1 105/52/1
f 123/115/1 84/107/1 72/96/1 114/92/1
f 122/116/1 81/104/1 18/24/1 90/18/1
f 115/73/1 67/94/1 78/110/1 120/114/1
f 91/19/1 13/22/1 75/101/1 121/97/1
f 85/111/1 87/113/1 76/109/1 69/83/1
f 67/94/1 68/84/1 77/108/1 78/110/1
f 50/58/1 77/108/1 76/109/1 51/59/1
f 13/22/1 14/8/1 74/99/1 75/101/1
f 14/8/1 15/7/1 73/100/1 74/99/1
f 33/35/1 73/100/1 87/113/1 85/111/1
f 108/67/1 54/71/1 81/104/1 122/116/1
f 100/43/1 36/47/1 84/107/1 123/115/1
f 73/100/1 15/7/1 86/112/1 87/113/1
f 15/7/1 16/16/1 80/102/1 86/112/1
f 69/83/1 70/90/1 83/105/1 85/111/1
f 36/47/1 35/41/1 82/106/1 84/107/1
f 34/40/1 83/105/1 82/106/1 35/41/1
f 54/71/1 53/65/1 79/103/1 81/104/1
f 16/16/1 17/15/1 79/103/1 80/102/1
f 122/116/1 143/117/1 130/68/1 108/67/1
f 97/28/1 113/27/1 140/98/1 121/97/1
f 120/114/1 141/118/1 134/74/1 115/73/1
f 123/115/1 142/119/1 124/44/1 100/43/1
f 90/18/1 89/17/1 143/117/1 122/116/1
f 114/92/1 136/91/1 142/119/1 123/115/1
f 105/52/1 128/51/1 141/118/1 120/114/1
f 64/120/1 65/121/1 118/77/1 119/80/1
f 66/122/1 55/123/1 112/76/1 117/86/1
f 56/124/1 57/93/1 67/94/1 115/73/1
f 62/95/1 63/125/1 114/92/1 72/96/1
f 55/123/1 56/124/1 115/73/1 112/76/1
f 65/121/1 66/122/1 117/86/1 118/77/1
f 63/125/1 64/120/1 119/80/1 114/92/1
f 46/126/1 111/53/1 110/56/1 47/127/1
f 48/128/1 109/61/1 104/49/1 37/129/1
f 38/130/1 105/52/1 49/70/1 39/69/1
f 44/72/1 54/71/1 108/67/1 45/131/1
f 37/129/1 104/49/1 105/52/1 38/130/1
f 47/127/1 110/56/1 109/61/1 48/128/1
f 45/131/1 108/67/1 111/53/1 46/126/1
f 28/132/1 103/29/1 102/32/1 29/133/1
f 30/134/1 101/37/1 96/25/1 19/135/1
f 20/136/1 97/28/1 31/46/1 21/45/1
f 26/48/1 36/47/1 100/43/1 27/137/1
f 19/135/1 96/25/1 97/28/1 20/136/1
f 29/133/1 102/32/1 101/37/1 30/134/1
f 27/137/1 100/43/1 103/29/1 28/132/1
f 10/138/1 11/139/1 94/1/1 95/4/1
f 12/140/1 1/141/1 88/9/1 93/12/1
f 2/142/1 3/21/1 13/22/1 91/19/1
f 8/23/1 9/143/1 90/18/1 18/24/1
f 1/141/1 2/142/1 91/19/1 88/9/1
f 11/139/1 12/140/1 93/12/1 94/1/1
f 9/143/1 10/138/1 95/4/1 90/18/1
f 261/144/2 266/145/2 165/146/2 164/147/2
f 147/148/2 148/149/2 160/150/2 159/151/2
f 265/152/2 264/153/2 167/154/2 166/155/2
f 149/156/2 150/157/2 162/158/2 161/159/2
f 259/160/2 262/161/2 156/162/2 157/163/2
f 317/164/2 318/165/2 277/166/2 263/167/2
f 146/168/2 147/148/2 159/151/2 158/169/2
f 319/170/2 315/171/2 302/172/2 303/173/2
f 150/157/2 151/174/2 163/175/2 162/158/2
f 264/153/2 259/160/2 157/163/2 167/154/2
f 148/149/2 149/156/2 161/159/2 160/150/2
f 266/145/2 265/152/2 166/155/2 165/146/2
f 271/176/2 188/177/2 189/178/2 274/179/2
f 171/180/2 183/181/2 184/182/2 172/183/2
f 273/184/2 190/185/2 191/186/2 272/187/2
f 173/188/2 185/189/2 186/190/2 174/191/2
f 267/192/2 181/193/2 180/194/2 268/195/2
f 322/196/2 319/170/2 303/173/2 304/197/2
f 170/198/2 182/199/2 183/181/2 171/180/2
f 320/200/2 321/201/2 305/202/2 306/203/2
f 174/191/2 186/190/2 187/204/2 175/205/2
f 272/187/2 191/186/2 181/193/2 267/192/2
f 172/183/2 184/182/2 185/189/2 173/188/2
f 274/179/2 189/178/2 190/185/2 273/184/2
f 279/206/2 212/207/2 213/208/2 282/209/2
f 195/210/2 207/211/2 208/212/2 196/213/2
f 281/214/2 214/215/2 215/216/2 280/217/2
f 197/218/2 209/219/2 210/220/2 198/221/2
f 275/222/2 205/223/2 204/224/2 276/225/2
f 315/171/2 316/226/2 301/227/2 302/172/2
f 194/228/2 206/229/2 207/211/2 195/210/2
f 326/230/2 327/231/2 299/232/2 312/233/2
f 198/221/2 210/220/2 211/234/2 199/235/2
f 280/217/2 215/216/2 205/223/2 275/222/2
f 196/213/2 208/212/2 209/219/2 197/218/2
f 282/209/2 213/208/2 214/215/2 281/214/2
f 285/236/2 290/237/2 237/238/2 236/239/2
f 219/240/2 220/241/2 232/242/2 231/243/2
f 289/244/2 288/245/2 239/246/2 238/247/2
f 221/248/2 222/249/2 234/250/2 233/251/2
f 283/252/2 286/253/2 228/254/2 229/255/2
f 323/256/2 324/257/2 284/258/2 311/259/2
f 218/260/2 219/240/2 231/243/2 230/261/2
f 325/262/2 322/196/2 304/197/2 300/263/2
f 222/249/2 223/264/2 235/265/2 234/250/2
f 288/245/2 283/252/2 229/255/2 239/246/2
f 220/241/2 221/248/2 233/251/2 232/242/2
f 290/237/2 289/244/2 238/247/2 237/238/2
f 241/266/2 240/267/2 184/182/2 183/181/2
f 242/268/2 241/266/2 183/181/2 182/199/2
f 249/269/2 248/270/2 210/220/2 209/219/2
f 250/271/2 248/270/2 162/158/2 163/175/2
f 252/272/2 233/251/2 234/250/2 251/273/2
f 253/274/2 251/273/2 234/250/2 235/265/2
f 244/275/2 231/243/2 232/242/2 243/276/2
f 245/277/2 244/275/2 207/211/2 206/229/2
f 254/278/2 252/272/2 185/189/2 184/182/2
f 255/279/2 249/269/2 209/219/2 208/212/2
f 258/280/2 255/279/2 208/212/2 243/276/2
f 292/281/2 242/268/2 182/199/2 268/195/2
f 291/282/2 245/277/2 206/229/2 276/225/2
f 294/283/2 253/274/2 235/265/2 285/236/2
f 293/284/2 250/271/2 163/175/2 261/144/2
f 286/253/2 230/261/2 245/277/2 291/282/2
f 262/161/2 158/169/2 242/268/2 292/281/2
f 254/278/2 258/280/2 243/276/2 232/242/2
f 230/261/2 231/243/2 244/275/2 245/277/2
f 207/211/2 244/275/2 243/276/2 208/212/2
f 158/169/2 159/151/2 241/266/2 242/268/2
f 159/151/2 160/150/2 240/267/2 241/266/2
f 184/182/2 240/267/2 258/280/2 254/278/2
f 279/206/2 211/234/2 250/271/2 293/284/2
f 271/176/2 187/204/2 253/274/2 294/283/2
f 240/267/2 160/150/2 255/279/2 258/280/2
f 160/150/2 161/159/2 249/269/2 255/279/2
f 232/242/2 233/251/2 252/272/2 254/278/2
f 187/204/2 186/190/2 251/273/2 253/274/2
f 185/189/2 252/272/2 251/273/2 186/190/2
f 211/234/2 210/220/2 248/270/2 250/271/2
f 161/159/2 162/158/2 248/270/2 249/269/2
f 188/177/2 271/176/2 294/283/2 256/285/2
f 212/207/2 279/206/2 293/284/2 257/286/2
f 156/162/2 262/161/2 292/281/2 246/287/2
f 228/254/2 286/253/2 291/282/2 247/288/2
f 257/286/2 293/284/2 261/144/2 164/147/2
f 256/285/2 294/283/2 285/236/2 236/239/2
f 247/288/2 291/282/2 276/225/2 204/224/2
f 246/287/2 292/281/2 268/195/2 180/194/2
f 225/289/2 226/290/2 289/244/2 290/237/2
f 227/291/2 216/292/2 283/252/2 288/245/2
f 217/293/2 218/260/2 230/261/2 286/253/2
f 223/264/2 224/294/2 285/236/2 235/265/2
f 216/292/2 217/293/2 286/253/2 283/252/2
f 226/290/2 227/291/2 288/245/2 289/244/2
f 224/294/2 225/289/2 290/237/2 285/236/2
f 201/295/2 282/209/2 281/214/2 202/296/2
f 203/297/2 280/217/2 275/222/2 192/298/2
f 193/299/2 276/225/2 206/229/2 194/228/2
f 199/235/2 211/234/2 279/206/2 200/300/2
f 192/298/2 275/222/2 276/225/2 193/299/2
f 202/296/2 281/214/2 280/217/2 203/297/2
f 200/300/2 279/206/2 282/209/2 201/295/2
f 177/301/2 274/179/2 273/184/2 178/302/2
f 179/303/2 272/187/2 267/192/2 168/304/2
f 169/305/2 268/195/2 182/199/2 170/198/2
f 175/205/2 187/204/2 271/176/2 176/306/2
f 168/304/2 267/192/2 268/195/2 169/305/2
f 178/302/2 273/184/2 272/187/2 179/303/2
f 176/306/2 271/176/2 274/179/2 177/301/2
f 153/307/2 154/308/2 265/152/2 266/145/2
f 155/309/2 144/310/2 259/160/2 264/153/2
f 145/311/2 146/168/2 158/169/2 262/161/2
f 151/174/2 152/312/2 261/144/2 163/175/2
f 144/310/2 145/311/2 262/161/2 259/160/2
f 154/308/2 155/309/2 264/153/2 265/152/2
f 152/312/2 153/307/2 266/145/2 261/144/2
f 328/313/2 329/314/2 295/315/2 296/316/2
f 330/317/2 328/313/2 296/316/2 297/318/2
f 327/231/2 325/262/2 300/263/2 299/232/2
f 331/319/2 330/317/2 297/318/2 298/320/2
f 318/165/2 323/256/2 311/259/2 277/166/2
f 332/321/2 333/322/2 307/323/2 313/324/2
f 334/325/2 331/319/2 298/320/2 278/326/2
f 321/201/2 326/230/2 312/233/2 305/202/2
f 335/327/2 336/328/2 260/329/2 314/330/2
f 336/328/2 337/331/2 270/332/2 260/329/2
f 329/314/2 332/321/2 313/324/2 295/315/2
f 333/322/2 338/333/2 308/334/2 307/323/2
f 316/226/2 335/327/2 314/330/2 301/227/2
f 337/331/2 339/335/2 269/336/2 270/332/2
f 324/257/2 334/325/2 278/326/2 284/258/2
f 338/333/2 340/337/2 309/338/2 308/334/2
f 339/335/2 341/339/2 287/340/2 269/336/2
f 340/337/2 342/341/2 310/342/2 309/338/2
f 341/339/2 317/164/2 263/167/2 287/340/2
f 342/341/2 320/200/2 306/203/2 310/342/2
f 239/246/3 229/255/4 320/200/4 342/341/3
f 167/154/5 157/163/6 317/164/6 341/339/5
f 238/247/7 239/246/3 342/341/3 340/337/7
f 166/155/8 167/154/5 341/339/5 339/335/8
f 237/238/9 238/247/7 340/337/7 338/333/9
f 180/194/10 181/193/11 334/325/11 324/257/10
f 165/146/12 166/155/8 339/335/8 337/331/12
f 212/207/13 257/286/14 335/327/14 316/226/13
f 236/239/15 237/238/9 338/333/9 333/322/15
f 188/177/16 256/285/17 332/321/17 329/314/16
f 164/147/18 165/146/12 337/331/12 336/328/18
f 257/286/14 164/147/18 336/328/18 335/327/14
f 228/254/19 247/288/20 326/230/20 321/201/19
f 181/193/11 191/186/21 331/319/21 334/325/11
f 256/285/17 236/239/15 333/322/15 332/321/17
f 156/162/22 246/287/23 323/256/23 318/165/22
f 191/186/21 190/185/24 330/317/24 331/319/21
f 204/224/25 205/223/26 325/262/26 327/231/25
f 190/185/24 189/178/27 328/313/27 330/317/24
f 189/178/27 188/177/16 329/314/16 328/313/27
f 205/223/26 215/216/28 322/196/28 325/262/26
f 246/287/23 180/194/10 324/257/10 323/256/23
f 247/288/20 204/224/25 327/231/25 326/230/20
f 213/208/29 212/207/13 316/226/13 315/171/29
f 229/255/4 228/254/19 321/201/19 320/200/4
f 215/216/28 214/215/30 319/170/30 322/196/28
f 214/215/30 213/208/29 315/171/29 319/170/30
f 157/163/6 156/162/22 318/165/22 317/164/6
f 143/343/31 313/344/31 307/345/32 130/346/32
f 131/347/33 130/346/32 307/345/32 308/348/33
f 131/347/33 308/348/33 309/349/34 132/350/34
f 132/350/34 309/349/34 310/351/35 133/352/35
f 133/352/35 310/351/35 306/353/36 129/354/36
f 129/354/36 306/353/36 305/355/37 128/356/37
f 128/356/37 305/355/37 312/357/38 141/358/38
f 141/359/38 312/360/38 299/361/39 134/362/39
f 135/363/40 134/362/39 299/361/39 300/364/40
f 139/365/41 135/363/40 300/364/40 304/366/41
f 138/367/42 139/365/41 304/366/41 303/368/42
f 137/369/43 138/367/42 303/368/42 302/370/43
f 136/371/44 137/369/43 302/370/43 301/372/44
f 136/371/44 301/372/44 314/373/45 142/374/45
f 142/374/45 314/373/45 260/375/46 124/376/46
f 124/376/46 260/375/46 270/377/47 125/378/47
f 125/378/47 270/377/47 269/379/48 126/380/48
f 126/380/48 269/379/48 287/381/49 127/382/49
f 127/382/49 287/381/49 263/383/50 107/384/50
f 107/384/50 263/383/50 277/385/51 113/386/51
f 113/386/51 277/385/51 311/387/52 140/388/52
f 140/388/52 311/387/52 284/389/53 106/390/53
f 92/391/54 106/390/53 284/389/53 278/392/54
f 116/393/55 92/391/54 278/392/54 298/394/55
f 98/395/56 116/393/55 298/394/55 297/396/56
f 99/397/57 98/395/56 297/396/56 296/398/57
f 89/399/58 99/397/57 296/398/57 295/400/58
f 143/343/31 89/399/58 295/400/58 313/344/31
f 41/401/59 42/402/60 221/403/60 220/404/59
f 40/405/31 41/401/59 220/404/59 219/406/31
f 39/407/61 40/405/31 219/406/31 218/408/61
f 38/409/62 39/407/61 218/408/61 217/410/62
f 37/411/52 38/409/62 217/410/62 216/412/52
f 48/413/63 37/411/52 216/412/52 227/414/63
f 47/415/64 48/413/63 227/414/63 226/416/64
f 46/417/45 47/415/64 226/416/64 225/418/45
f 45/419/65 46/417/45 225/418/45 224/420/65
f 44/421/66 45/419/65 224/420/65 223/422/66
f 43/423/38 44/421/66 223/422/66 222/424/38
f 42/402/60 43/425/38 222/426/38 221/403/60
f 2/427/60 169/428/60 170/429/59 3/430/59
f 4/431/31 3/430/59 170/429/59 171/432/31
f 4/431/31 171/432/31 172/433/61 5/434/61
f 5/434/61 172/433/61 173/435/62 6/436/62
f 6/436/62 173/435/62 174/437/52 7/438/52
f 7/438/52 174/437/52 175/439/63 8/440/63
f 8/440/63 175/439/63 176/441/64 9/442/64
f 9/442/64 176/441/64 177/443/45 10/444/45
f 10/444/45 177/443/45 178/445/65 11/446/65
f 11/446/65 178/445/65 179/447/66 12/448/66
f 12/448/66 179/447/66 168/449/38 1/450/38
f 2/427/60 1/451/38 168/452/38 169/428/60
f 29/453/59 30/454/60 155/455/60 154/456/59
f 28/457/31 29/453/59 154/456/59 153/458/31
f 27/459/61 28/457/31 153/458/31 152/460/61
f 26/461/62 27/459/61 152/460/61 151/462/62
f 25/463/52 26/461/62 151/462/62 150/464/52
f 24/465/63 25/463/52 150/464/52 149/466/63
f 23/467/64 24/465/63 149/466/63 148/468/64
f 22/469/45 23/467/64 148/468/64 147/470/45
f 21/471/65 22/469/45 147/470/45 146/472/65
f 20/473/66 21/471/65 146/472/65 145/474/66
f 19/475/38 20/473/66 145/474/66 144/476/38
f 30/454/60 19/477/38 144/478/38 155/455/60
f 62/479/60 199/480/60 200/481/59 63/482/59
f 64/483/31 63/482/59 200/481/59 201/484/31
f 64/483/31 201/484/31 202/485/61 65/486/61
f 65/486/61 202/485/61 203/487/62 66/488/62
f 66/488/62 203/487/62 192/489/52 55/490/52
f 55/490/52 192/489/52 193/491/63 56/492/63
f 56/492/63 193/491/63 194/493/64 57/494/64
f 57/494/64 194/493/64 195/495/45 58/496/45
f 58/496/45 195/495/45 196/497/65 59/498/65
f 59/498/65 196/497/65 197/499/66 60/500/66
f 60/500/66 197/499/66 198/501/38 61/502/38
f 61/503/38 198/504/38 199/480/60 62/479/60
