# Blender 4.0.2
# www.blender.org
o dragonfly_wings
v 0.002246 0.000000 -0.002451
v 0.006180 0.000000 -0.003858
v 0.018660 0.000000 -0.004425
v 0.019457 0.000000 -0.004195
v 0.028605 0.000000 -0.006133
v 0.031259 0.000000 -0.006439
v 0.033880 0.000000 -0.006244
v 0.035828 0.000000 -0.005683
v 0.037055 0.000000 -0.004871
v 0.037531 0.000000 -0.002827
v 0.036682 0.000000 -0.001856
v 0.032716 -0.000000 0.000176
v 0.030206 -0.000000 0.001075
v 0.027480 -0.000000 0.001891
v 0.022791 -0.000000 0.003521
v 0.020511 -0.000000 0.003777
v 0.017754 -0.000000 0.003737
v 0.012057 -0.000000 0.002968
v 0.003502 -0.000000 0.000745
v 0.003008 -0.000000 0.000307
v 0.002833 -0.000000 -0.000129
v 0.002986 -0.000000 -0.000631
v 0.001980 -0.000000 -0.001001
v 0.001765 0.000000 -0.001405
v 0.012201 0.000000 -0.004517
v 0.003749 0.000000 -0.003011
v 0.004864 -0.000000 0.001160
v 0.006832 -0.000000 0.001659
v 0.021476 0.000000 -0.004753
v 0.035034 -0.000000 -0.000859
v 0.026088 0.000000 -0.005707
v 0.037717 0.000000 -0.003919
v 0.004342 -0.000000 -0.000946
v 0.006492 0.000000 -0.001184
v 0.012128 -0.000000 -0.000826
v 0.018179 -0.000000 -0.000455
v 0.020042 -0.000000 -0.000435
v 0.022201 -0.000000 -0.000756
v 0.026835 0.000000 -0.002126
v 0.029354 0.000000 -0.002766
v 0.031936 0.000000 -0.003290
v 0.034448 0.000000 -0.003614
v 0.036260 0.000000 -0.003765
v 0.025170 -0.000000 0.002835
v 0.023680 0.000000 -0.005241
v 0.024364 0.000000 -0.001414
v 0.015250 0.000000 -0.004494
v 0.014950 -0.000000 0.003435
v 0.015083 -0.000000 -0.000638
v 0.008984 0.000000 -0.004311
v 0.009240 -0.000000 0.002303
v 0.009134 0.000000 -0.001108
v 0.002467 -0.000000 -0.000763
v 0.001849 0.000000 -0.001990
v 0.002209 0.000000 0.000679
v 0.009271 -0.000000 0.003060
v 0.014727 -0.000000 0.005033
v 0.017726 -0.000000 0.005843
v 0.020708 -0.000000 0.006473
v 0.026456 -0.000000 0.007820
v 0.029161 -0.000000 0.008668
v 0.031445 -0.000000 0.009722
v 0.033074 -0.000000 0.010921
v 0.034045 -0.000000 0.012137
v 0.034024 -0.000000 0.013768
v 0.032838 -0.000000 0.014670
v 0.030979 -0.000000 0.015326
v 0.028539 -0.000000 0.015679
v 0.025505 -0.000000 0.015858
v 0.019369 -0.000000 0.015644
v 0.017663 -0.000000 0.015972
v 0.015884 -0.000000 0.015949
v 0.012637 -0.000000 0.015297
v 0.009553 -0.000000 0.014373
v 0.006216 -0.000000 0.013393
v 0.002943 -0.000000 0.012021
v 0.001565 -0.000000 0.010285
v 0.001604 -0.000000 0.008022
v 0.002356 -0.000000 0.005446
v 0.002576 -0.000000 0.003880
v 0.002220 -0.000000 0.002443
v 0.001637 -0.000000 0.001347
v 0.001679 0.000000 0.000906
v 0.003406 0.000000 0.000974
v 0.011968 -0.000000 0.004077
v 0.005039 -0.000000 0.001522
v 0.023574 -0.000000 0.007121
v 0.022437 -0.000000 0.015803
v 0.034219 -0.000000 0.012952
v 0.020167 -0.000000 0.010460
v 0.025980 -0.000000 0.011797
v 0.028850 -0.000000 0.012174
v 0.031212 -0.000000 0.012524
v 0.032956 -0.000000 0.012795
v 0.023065 -0.000000 0.011214
v 0.017105 -0.000000 0.009670
v 0.013990 -0.000000 0.008779
v 0.011053 -0.000000 0.007808
v 0.008106 -0.000000 0.006688
v 0.003933 -0.000000 0.002765
v 0.002829 -0.000000 0.001689
v 0.007086 -0.000000 0.002243
v 0.005300 -0.000000 0.005673
v 0.004186 -0.000000 0.009087
v 0.006993 -0.000000 0.010241
v 0.010129 -0.000000 0.011461
v 0.013231 -0.000000 0.012703
v 0.016357 -0.000000 0.014175
v -0.002209 0.000000 0.000679
v -0.009271 -0.000000 0.003060
v -0.014727 -0.000000 0.005033
v -0.017726 -0.000000 0.005843
v -0.020708 -0.000000 0.006473
v -0.026456 -0.000000 0.007820
v -0.029161 -0.000000 0.008668
v -0.031445 -0.000000 0.009722
v -0.033074 -0.000000 0.010921
v -0.034045 -0.000000 0.012137
v -0.034024 -0.000000 0.013768
v -0.032838 -0.000000 0.014670
v -0.030979 -0.000000 0.015326
v -0.028539 -0.000000 0.015679
v -0.025505 -0.000000 0.015858
v -0.019369 -0.000000 0.015644
v -0.017663 -0.000000 0.015972
v -0.015884 -0.000000 0.015949
v -0.012637 -0.000000 0.015297
v -0.009553 -0.000000 0.014373
v -0.006216 -0.000000 0.013393
v -0.002943 -0.000000 0.012021
v -0.001565 -0.000000 0.010285
v -0.001604 -0.000000 0.008022
v -0.002356 -0.000000 0.005446
v -0.002576 -0.000000 0.003880
v -0.002220 -0.000000 0.002443
v -0.001637 -0.000000 0.001347
v -0.001679 0.000000 0.000906
v -0.003406 0.000000 0.000974
v -0.011968 -0.000000 0.004077
v -0.005039 -0.000000 0.001522
v -0.023574 -0.000000 0.007121
v -0.022437 -0.000000 0.015803
v -0.034219 -0.000000 0.012952
v -0.020167 -0.000000 0.010460
v -0.025980 -0.000000 0.011797
v -0.028850 -0.000000 0.012174
v -0.031212 -0.000000 0.012524
v -0.032956 -0.000000 0.012795
v -0.023065 -0.000000 0.011214
v -0.017105 -0.000000 0.009670
v -0.013990 -0.000000 0.008779
v -0.011053 -0.000000 0.007808
v -0.008106 -0.000000 0.006688
v -0.003933 -0.000000 0.002765
v -0.002829 -0.000000 0.001689
v -0.007086 -0.000000 0.002243
v -0.005300 -0.000000 0.005673
v -0.004186 -0.000000 0.009087
v -0.006993 -0.000000 0.010241
v -0.010129 -0.000000 0.011461
v -0.013231 -0.000000 0.012703
v -0.016357 -0.000000 0.014175
v -0.002246 0.000000 -0.002451
v -0.006180 0.000000 -0.003858
v -0.018660 0.000000 -0.004425
v -0.019457 0.000000 -0.004195
v -0.028605 0.000000 -0.006133
v -0.031259 0.000000 -0.006439
v -0.033880 0.000000 -0.006244
v -0.035828 0.000000 -0.005683
v -0.037055 0.000000 -0.004871
v -0.037531 0.000000 -0.002827
v -0.036682 0.000000 -0.001856
v -0.032716 -0.000000 0.000176
v -0.030206 -0.000000 0.001075
v -0.027480 -0.000000 0.001891
v -0.022791 -0.000000 0.003521
v -0.020511 -0.000000 0.003777
v -0.017754 -0.000000 0.003737
v -0.012057 -0.000000 0.002968
v -0.003502 -0.000000 0.000745
v -0.003008 -0.000000 0.000307
v -0.002833 -0.000000 -0.000129
v -0.002986 -0.000000 -0.000631
v -0.001980 -0.000000 -0.001001
v -0.001765 0.000000 -0.001405
v -0.012201 0.000000 -0.004517
v -0.003749 0.000000 -0.003011
v -0.004864 -0.000000 0.001160
v -0.006832 -0.000000 0.001659
v -0.021476 0.000000 -0.004753
v -0.035034 -0.000000 -0.000859
v -0.026088 0.000000 -0.005707
v -0.037717 0.000000 -0.003919
v -0.004342 -0.000000 -0.000946
v -0.006492 0.000000 -0.001184
v -0.012128 -0.000000 -0.000826
v -0.018179 -0.000000 -0.000455
v -0.020042 -0.000000 -0.000435
v -0.022201 -0.000000 -0.000756
v -0.026835 0.000000 -0.002126
v -0.029354 0.000000 -0.002766
v -0.031936 0.000000 -0.003290
v -0.034448 0.000000 -0.003614
v -0.036260 0.000000 -0.003765
v -0.025170 -0.000000 0.002835
v -0.023680 0.000000 -0.005241
v -0.024364 0.000000 -0.001414
v -0.015250 0.000000 -0.004494
v -0.014950 -0.000000 0.003435
v -0.015083 -0.000000 -0.000638
v -0.008984 0.000000 -0.004311
v -0.009240 -0.000000 0.002303
v -0.009134 0.000000 -0.001108
v -0.002467 -0.000000 -0.000763
v -0.001849 0.000000 -0.001990
vn -0.0000 1.0000 -0.0000
vt 0.047534 0.375095
vt 0.045592 0.360570
vt 0.052408 0.349369
vt 0.067993 0.339552
vt 0.949254 0.612682
vt 0.969549 0.562056
vt 0.988521 0.592663
vt 0.988654 0.623547
vt 0.107379 0.334334
vt 0.083431 0.389927
vt 0.163830 0.329551
vt 0.141531 0.406256
vt 0.214621 0.416175
vt 0.233047 0.322777
vt 0.313621 0.317283
vt 0.298322 0.422042
vt 0.380514 0.430308
vt 0.395365 0.317560
vt 0.473931 0.322014
vt 0.466570 0.439345
vt 0.550012 0.333441
vt 0.517953 0.447276
vt 0.611620 0.350881
vt 0.575927 0.465938
vt 0.632471 0.493877
vt 0.673987 0.380565
vt 0.733268 0.417075
vt 0.697257 0.524708
vt 0.804616 0.451931
vt 0.763694 0.553785
vt 0.869621 0.488091
vt 0.832389 0.579959
vt 0.928729 0.527112
vt 0.900051 0.600293
vt 0.872469 0.670126
vt 0.928653 0.663524
vt 0.799421 0.663554
vt 0.727750 0.643053
vt 0.660416 0.619905
vt 0.596248 0.596102
vt 0.484735 0.548108
vt 0.537775 0.572662
vt 0.461746 0.550814
vt 0.367566 0.537214
vt 0.195917 0.503689
vt 0.283521 0.523983
vt 0.057711 0.444067
vt 0.120781 0.478461
vt 0.966103 0.646748
vt 0.018870 0.421831
vt 0.010050 0.407329
vt 0.032637 0.376352
vt 0.010408 0.390851
vt 0.018160 0.380705
vt 0.937977 0.239040
vt 0.973006 0.244873
vt 0.961877 0.265297
vt 0.926249 0.290117
vt 0.006984 0.308565
vt 0.009347 0.296427
vt 0.033656 0.271755
vt 0.043942 0.296764
vt 0.054589 0.236139
vt 0.082034 0.276745
vt 0.660859 0.202768
vt 0.743464 0.210333
vt 0.724587 0.320476
vt 0.641951 0.316281
vt 0.823213 0.223049
vt 0.803692 0.319278
vt 0.889170 0.232432
vt 0.873148 0.309230
vt 0.577373 0.199915
vt 0.560156 0.310824
vt 0.398782 0.195792
vt 0.489195 0.196698
vt 0.475385 0.303998
vt 0.388757 0.301847
vt 0.312527 0.198448
vt 0.307359 0.305503
vt 0.223260 0.101118
vt 0.227524 0.010623
vt 0.324552 0.010919
vt 0.316823 0.093380
vt 0.139003 0.109683
vt 0.129086 0.021315
vt 0.227145 0.311276
vt 0.224797 0.204989
vt 0.409676 0.084804
vt 0.504974 0.070274
vt 0.597206 0.054902
vt 0.680518 0.075039
vt 0.905192 0.155635
vt 0.949705 0.187964
vt 0.842733 0.126819
vt 0.763016 0.097917
vt 0.974270 0.221519
vt 0.053695 0.320476
vt 0.101731 0.318794
vt 0.141705 0.209839
vt 0.162225 0.315757
vt 0.019360 0.318856
vt 0.061141 0.192525
vt 0.061496 0.117639
vt 0.078441 0.056807
vt 0.414390 0.010721
vt 0.506401 0.019077
vt 0.554183 0.032581
s 0
f 22/1/1 21/2/1 20/3/1 19/4/1
f 43/5/1 11/6/1 10/7/1 32/8/1
f 22/1/1 19/4/1 27/9/1 33/10/1
f 33/10/1 27/9/1 28/11/1 34/12/1
f 52/13/1 51/14/1 18/15/1 35/16/1
f 49/17/1 48/18/1 17/19/1 36/20/1
f 36/20/1 17/19/1 16/21/1 37/22/1
f 37/22/1 16/21/1 15/23/1 38/24/1
f 46/25/1 44/26/1 14/27/1 39/28/1
f 39/28/1 14/27/1 13/29/1 40/30/1
f 40/30/1 13/29/1 12/31/1 41/32/1
f 41/32/1 12/31/1 30/33/1 42/34/1
f 42/34/1 30/33/1 11/6/1 43/5/1
f 7/35/1 42/34/1 43/5/1 8/36/1
f 6/37/1 41/32/1 42/34/1 7/35/1
f 5/38/1 40/30/1 41/32/1 6/37/1
f 31/39/1 39/28/1 40/30/1 5/38/1
f 45/40/1 46/25/1 39/28/1 31/39/1
f 4/41/1 37/22/1 38/24/1 29/42/1
f 3/43/1 36/20/1 37/22/1 4/41/1
f 47/44/1 49/17/1 36/20/1 3/43/1
f 50/45/1 52/13/1 35/16/1 25/46/1
f 26/47/1 33/10/1 34/12/1 2/48/1
f 8/36/1 43/5/1 32/8/1 9/49/1
f 1/50/1 22/1/1 33/10/1 26/47/1
f 54/51/1 53/52/1 22/1/1 1/50/1
f 29/42/1 38/24/1 46/25/1 45/40/1
f 38/24/1 15/23/1 44/26/1 46/25/1
f 25/46/1 35/16/1 49/17/1 47/44/1
f 35/16/1 18/15/1 48/18/1 49/17/1
f 2/48/1 34/12/1 52/13/1 50/45/1
f 34/12/1 28/11/1 51/14/1 52/13/1
f 24/53/1 23/54/1 53/52/1 54/51/1
f 94/55/1 89/56/1 64/57/1 63/58/1
f 83/59/1 82/60/1 81/61/1 101/62/1
f 101/62/1 81/61/1 80/63/1 100/64/1
f 95/65/1 91/66/1 60/67/1 87/68/1
f 91/66/1 92/69/1 61/70/1 60/67/1
f 92/69/1 93/71/1 62/72/1 61/70/1
f 93/71/1 94/55/1 63/58/1 62/72/1
f 90/73/1 95/65/1 87/68/1 59/74/1
f 97/75/1 96/76/1 58/77/1 57/78/1
f 98/79/1 97/75/1 57/78/1 85/80/1
f 105/81/1 75/82/1 74/83/1 106/84/1
f 105/81/1 104/85/1 76/86/1 75/82/1
f 56/87/1 99/88/1 98/79/1 85/80/1
f 106/84/1 107/89/1 97/75/1 98/79/1
f 107/89/1 108/90/1 96/76/1 97/75/1
f 70/91/1 88/92/1 95/65/1 90/73/1
f 67/93/1 66/94/1 94/55/1 93/71/1
f 68/95/1 67/93/1 93/71/1 92/69/1
f 69/96/1 68/95/1 92/69/1 91/66/1
f 88/92/1 69/96/1 91/66/1 95/65/1
f 96/76/1 90/73/1 59/74/1 58/77/1
f 66/94/1 65/97/1 89/56/1 94/55/1
f 84/98/1 101/62/1 100/64/1 86/99/1
f 86/99/1 100/64/1 103/100/1 102/101/1
f 55/102/1 83/59/1 101/62/1 84/98/1
f 100/64/1 80/63/1 79/103/1 103/100/1
f 96/76/1 108/90/1 70/91/1 90/73/1
f 103/100/1 99/88/1 56/87/1 102/101/1
f 104/85/1 78/104/1 77/105/1 76/86/1
f 73/106/1 72/107/1 108/90/1 107/89/1
f 74/83/1 73/106/1 107/89/1 106/84/1
f 99/88/1 105/81/1 106/84/1 98/79/1
f 99/88/1 103/100/1 104/85/1 105/81/1
f 103/100/1 79/103/1 78/104/1 104/85/1
f 108/90/1 72/107/1 71/108/1 70/91/1
f 148/55/1 117/58/1 118/57/1 143/56/1
f 137/59/1 155/62/1 135/61/1 136/60/1
f 155/62/1 154/64/1 134/63/1 135/61/1
f 149/65/1 141/68/1 114/67/1 145/66/1
f 145/66/1 114/67/1 115/70/1 146/69/1
f 146/69/1 115/70/1 116/72/1 147/71/1
f 147/71/1 116/72/1 117/58/1 148/55/1
f 144/73/1 113/74/1 141/68/1 149/65/1
f 151/75/1 111/78/1 112/77/1 150/76/1
f 152/79/1 139/80/1 111/78/1 151/75/1
f 159/81/1 160/84/1 128/83/1 129/82/1
f 159/81/1 129/82/1 130/86/1 158/85/1
f 110/87/1 139/80/1 152/79/1 153/88/1
f 160/84/1 152/79/1 151/75/1 161/89/1
f 161/89/1 151/75/1 150/76/1 162/90/1
f 124/91/1 144/73/1 149/65/1 142/92/1
f 121/93/1 147/71/1 148/55/1 120/94/1
f 122/95/1 146/69/1 147/71/1 121/93/1
f 123/96/1 145/66/1 146/69/1 122/95/1
f 142/92/1 149/65/1 145/66/1 123/96/1
f 150/76/1 112/77/1 113/74/1 144/73/1
f 120/94/1 148/55/1 143/56/1 119/97/1
f 138/98/1 140/99/1 154/64/1 155/62/1
f 140/99/1 156/101/1 157/100/1 154/64/1
f 109/102/1 138/98/1 155/62/1 137/59/1
f 154/64/1 157/100/1 133/103/1 134/63/1
f 150/76/1 144/73/1 124/91/1 162/90/1
f 157/100/1 156/101/1 110/87/1 153/88/1
f 158/85/1 130/86/1 131/105/1 132/104/1
f 127/106/1 161/89/1 162/90/1 126/107/1
f 128/83/1 160/84/1 161/89/1 127/106/1
f 153/88/1 152/79/1 160/84/1 159/81/1
f 153/88/1 159/81/1 158/85/1 157/100/1
f 157/100/1 158/85/1 132/104/1 133/103/1
f 162/90/1 124/91/1 125/108/1 126/107/1
f 184/1/1 181/4/1 182/3/1 183/2/1
f 205/5/1 194/8/1 172/7/1 173/6/1
f 184/1/1 195/10/1 189/9/1 181/4/1
f 195/10/1 196/12/1 190/11/1 189/9/1
f 214/13/1 197/16/1 180/15/1 213/14/1
f 211/17/1 198/20/1 179/19/1 210/18/1
f 198/20/1 199/22/1 178/21/1 179/19/1
f 199/22/1 200/24/1 177/23/1 178/21/1
f 208/25/1 201/28/1 176/27/1 206/26/1
f 201/28/1 202/30/1 175/29/1 176/27/1
f 202/30/1 203/32/1 174/31/1 175/29/1
f 203/32/1 204/34/1 192/33/1 174/31/1
f 204/34/1 205/5/1 173/6/1 192/33/1
f 169/35/1 170/36/1 205/5/1 204/34/1
f 168/37/1 169/35/1 204/34/1 203/32/1
f 167/38/1 168/37/1 203/32/1 202/30/1
f 193/39/1 167/38/1 202/30/1 201/28/1
f 207/40/1 193/39/1 201/28/1 208/25/1
f 166/41/1 191/42/1 200/24/1 199/22/1
f 165/43/1 166/41/1 199/22/1 198/20/1
f 209/44/1 165/43/1 198/20/1 211/17/1
f 212/45/1 187/46/1 197/16/1 214/13/1
f 188/47/1 164/48/1 196/12/1 195/10/1
f 170/36/1 171/49/1 194/8/1 205/5/1
f 163/50/1 188/47/1 195/10/1 184/1/1
f 216/51/1 163/50/1 184/1/1 215/52/1
f 191/42/1 207/40/1 208/25/1 200/24/1
f 200/24/1 208/25/1 206/26/1 177/23/1
f 187/46/1 209/44/1 211/17/1 197/16/1
f 197/16/1 211/17/1 210/18/1 180/15/1
f 164/48/1 212/45/1 214/13/1 196/12/1
f 196/12/1 214/13/1 213/14/1 190/11/1
f 186/53/1 216/51/1 215/52/1 185/54/1
