# Blender 4.0.2
# www.blender.org
o battle_axe
v 0.011247 0.334725 0.009614
v 0.005624 0.334725 0.012718
v -0.000000 0.334725 0.013596
v -0.005624 0.334725 0.012718
v -0.011247 0.334725 0.009614
v 0.013151 0.334725 0.011241
v 0.006615 0.334725 0.014857
v -0.000000 0.334725 0.015897
v -0.006615 0.334725 0.014857
v -0.013151 0.334725 0.011241
v -0.017381 0.334725 0.005654
v -0.018598 0.334725 0.000000
v 0.013151 0.362591 0.011241
v 0.006615 0.362591 0.014857
v -0.000000 0.362591 0.015897
v -0.006615 0.362591 0.014857
v 0.018125 0.362591 0.004927
v 0.043321 0.373919 0.000000
v 0.060665 0.381020 0.000000
v -0.013151 0.363441 0.011241
v -0.017381 0.365034 0.005654
v -0.018598 0.365034 0.000000
v -0.091063 0.300179 0.000000
v -0.095347 0.303502 0.000543
v -0.040932 0.329281 0.000000
v -0.056298 0.322984 0.000000
v -0.046168 0.356285 0.002359
v -0.064317 0.346040 0.001641
v -0.080392 0.330468 0.001224
v -0.070314 0.315444 0.001284
v -0.056298 0.322984 0.001705
v -0.040932 0.329281 0.002426
v -0.080392 0.330468 0.000000
v -0.064317 0.346040 0.000000
v -0.046168 0.356285 0.000000
v 0.018598 0.334725 0.000000
v 0.018125 0.334725 0.004927
v 0.018598 0.365034 0.000000
v 0.076381 0.389378 0.000000
v 0.010193 0.368153 0.008712
v 0.005096 0.368153 0.011525
v -0.000000 0.368153 0.012321
v -0.005096 0.368153 0.011525
v 0.013484 0.368153 0.004356
v 0.014415 0.368153 0.000000
v -0.010193 0.368153 0.008712
v -0.013484 0.368153 0.004356
v -0.014415 0.368153 0.000000
v 0.013151 0.368153 0.011241
v 0.006615 0.368153 0.014857
v -0.000000 0.368153 0.015897
v -0.006615 0.368153 0.014857
v 0.018125 0.368153 0.004927
v 0.018598 0.368153 0.000000
v -0.013151 0.368153 0.011241
v -0.017381 0.368153 0.005654
v -0.018598 0.368153 0.000000
v 0.092084 0.399198 0.001460
v 0.100366 0.404677 0.000000
v 0.099553 0.306458 0.000000
v 0.091600 0.311357 0.001584
v 0.108690 0.386664 0.000000
v 0.099778 0.383001 0.001190
v -0.013151 0.349174 0.011241
v -0.006615 0.349173 0.014857
v -0.017381 0.349186 0.005654
v 0.006615 0.349173 0.014857
v 0.013151 0.349173 0.011241
v -0.000000 0.349173 0.015897
v 0.076381 0.389378 0.001723
v 0.060665 0.381020 0.002053
v -0.094193 0.300218 0.000549
v -0.094193 0.300218 0.000000
v -0.043549 0.343064 0.002392
v -0.060300 0.334422 0.001673
v -0.075353 0.322956 0.001254
v 0.018125 0.349173 0.004927
v 0.103160 0.345078 0.001145
v 0.112950 0.344134 0.000000
v -0.013151 0.341821 0.011241
v -0.017381 0.341822 0.005654
v 0.006615 0.341821 0.014857
v -0.000000 0.341821 0.015897
v 0.043321 0.373919 0.002563
v -0.091063 0.300179 0.000555
v -0.042241 0.335797 0.002409
v -0.058299 0.328703 0.001689
v -0.072833 0.319200 0.001269
v 0.018125 0.341821 0.004927
v 0.098876 0.327382 0.001276
v -0.006615 0.341821 0.014857
v 0.013151 0.341821 0.011241
v 0.108158 0.324222 0.000000
v -0.006615 0.356129 0.014857
v 0.013151 0.356129 0.011241
v -0.095347 0.303502 0.000000
v 0.113151 0.366284 0.000000
v -0.013151 0.356505 0.011241
v -0.017381 0.357343 0.005654
v 0.006615 0.356129 0.014857
v -0.000000 0.356129 0.015897
v -0.044858 0.349706 0.002376
v -0.062301 0.340141 0.001657
v -0.077873 0.326712 0.001239
v 0.018125 0.356129 0.004927
v 0.103534 0.364964 0.001123
v 0.076779 0.319845 0.000000
v 0.060582 0.326904 0.000000
v 0.043314 0.331698 0.000000
v 0.043314 0.331698 0.002599
v 0.060582 0.326904 0.002072
v 0.076779 0.319845 0.001769
v 0.044176 0.348725 0.002473
v 0.063411 0.348008 0.001899
v 0.083831 0.346956 0.001478
v 0.043915 0.340044 0.002530
v 0.062565 0.336882 0.001982
v 0.081401 0.332669 0.001593
v 0.044175 0.357306 0.002467
v 0.063387 0.359414 0.001889
v 0.083610 0.362086 0.001462
v 0.043919 0.365843 0.002488
v 0.062557 0.370890 0.001919
v 0.081128 0.376565 0.001509
v -0.026482 0.333224 0.003312
v -0.026482 0.363242 0.000000
v -0.026482 0.333224 0.000000
v -0.026482 0.363242 0.003291
v -0.026482 0.348730 0.003302
v -0.026482 0.341153 0.003307
v -0.026482 0.356204 0.003296
v 0.027701 0.363096 0.003624
v 0.027701 0.356279 0.003621
v 0.027701 0.341671 0.003640
v 0.027701 0.369272 0.000000
v 0.027701 0.348975 0.003625
v 0.027701 0.334281 0.000000
v 0.027701 0.334281 0.003661
v 0.027701 0.369435 0.003649
v -0.082452 0.307160 0.000000
v -0.090757 0.314586 0.000771
v -0.082455 0.307174 0.000802
v -0.090757 0.314586 0.000000
v -0.086606 0.310880 0.000992
v -0.084531 0.309027 0.001002
v -0.088682 0.312733 0.000983
v 0.092084 0.399198 0.000000
v 0.091600 0.311357 0.000000
v 0.010928 0.369629 0.009341
v 0.005464 0.369629 0.012356
v -0.000000 0.369629 0.013210
v -0.005464 0.369629 0.012356
v 0.014456 0.369629 0.004670
v -0.010928 0.369629 0.009341
v -0.014456 0.369629 0.004670
v 0.015454 0.369629 0.000000
v -0.015454 0.369629 0.000000
v 0.006195 0.369629 0.013944
v -0.000000 0.369629 0.014916
v -0.006195 0.369629 0.013944
v -0.012339 0.369630 0.010547
v -0.016314 0.369630 0.005295
v -0.017450 0.369630 0.000000
v -0.016314 0.369630 -0.005295
v -0.012339 0.369630 -0.010547
v -0.006195 0.369629 -0.013944
v 0.011247 0.334725 -0.009614
v -0.091239 0.301679 0.000853
v -0.093027 0.301886 0.000848
v -0.093926 0.303258 0.000840
v 0.015099 0.219550 0.003777
v -0.017632 0.238220 0.000000
v 0.015906 0.214435 0.000000
v -0.015906 0.214435 0.000000
v -0.016698 0.219550 0.004342
v -0.016736 0.238220 0.004437
v -0.017632 0.214435 0.000000
v 0.016918 0.238220 0.004927
v 0.016918 0.219550 0.004927
v 0.017390 0.214435 0.000000
v 0.012271 0.238220 0.008234
v 0.013335 0.227682 0.006826
v -0.012144 0.238220 0.008364
v -0.015117 0.219550 0.003691
v -0.013208 0.227682 0.006956
v -0.013378 0.238220 0.009418
v -0.014555 0.227682 0.007862
v 0.013754 0.238220 0.009501
v 0.017390 0.238220 0.000000
v 0.015019 0.227682 0.007884
v 0.005624 0.334725 -0.012718
v -0.000000 0.334725 -0.013596
v -0.005624 0.334725 -0.012718
v -0.011247 0.334725 -0.009614
v 0.013151 0.334725 -0.011241
v 0.006615 0.334725 -0.014857
v -0.000000 0.334725 -0.015897
v -0.006615 0.334725 -0.014857
v -0.013151 0.334725 -0.011241
v -0.017381 0.334725 -0.005654
v 0.013151 0.362591 -0.011241
v 0.006615 0.362591 -0.014857
v -0.000000 0.362591 -0.015897
v -0.006615 0.362591 -0.014857
v 0.018125 0.362591 -0.004927
v -0.013151 0.363441 -0.011241
v -0.017381 0.365034 -0.005654
v -0.095347 0.303502 -0.000543
v -0.046168 0.356285 -0.002359
v -0.064317 0.346040 -0.001641
v -0.080392 0.330468 -0.001224
v -0.070314 0.315444 -0.001284
v -0.056298 0.322984 -0.001705
v -0.040932 0.329281 -0.002426
v 0.018125 0.334725 -0.004927
v 0.010193 0.368153 -0.008712
v 0.005096 0.368153 -0.011525
v -0.000000 0.368153 -0.012321
v -0.005096 0.368153 -0.011525
v 0.013484 0.368153 -0.004356
v -0.010193 0.368153 -0.008712
v -0.013484 0.368153 -0.004356
v 0.013151 0.368153 -0.011241
v 0.006615 0.368153 -0.014857
v -0.000000 0.368153 -0.015897
v -0.006615 0.368153 -0.014857
v 0.018125 0.368153 -0.004927
v -0.013151 0.368153 -0.011241
v -0.017381 0.368153 -0.005654
v 0.092084 0.399198 -0.001460
v 0.091600 0.311357 -0.001584
v 0.099778 0.383001 -0.001190
v -0.013151 0.349174 -0.011241
v -0.006615 0.349173 -0.014857
v -0.017381 0.349186 -0.005654
v 0.006615 0.349173 -0.014857
v 0.013151 0.349173 -0.011241
v -0.000000 0.349173 -0.015897
v 0.076381 0.389378 -0.001723
v 0.060665 0.381020 -0.002053
v -0.094193 0.300218 -0.000549
v -0.043549 0.343064 -0.002392
v -0.060300 0.334422 -0.001673
v -0.075353 0.322956 -0.001254
v 0.018125 0.349173 -0.004927
v 0.103160 0.345078 -0.001145
v -0.013151 0.341821 -0.011241
v -0.017381 0.341822 -0.005654
v 0.006615 0.341821 -0.014857
v -0.000000 0.341821 -0.015897
v 0.043321 0.373919 -0.002563
v -0.091063 0.300179 -0.000555
v -0.042241 0.335797 -0.002409
v -0.058299 0.328703 -0.001689
v -0.072833 0.319200 -0.001269
v 0.018125 0.341821 -0.004927
v 0.098876 0.327382 -0.001276
v -0.006615 0.341821 -0.014857
v 0.013151 0.341821 -0.011241
v -0.006615 0.356129 -0.014857
v 0.013151 0.356129 -0.011241
v -0.013151 0.356505 -0.011241
v -0.017381 0.357343 -0.005654
v 0.006615 0.356129 -0.014857
v -0.000000 0.356129 -0.015897
v -0.044858 0.349706 -0.002376
v -0.062301 0.340141 -0.001657
v -0.077873 0.326712 -0.001239
v 0.018125 0.356129 -0.004927
v 0.103534 0.364964 -0.001123
v 0.043314 0.331698 -0.002599
v 0.060582 0.326904 -0.002072
v 0.076779 0.319845 -0.001769
v 0.044176 0.348725 -0.002473
v 0.063411 0.348008 -0.001899
v 0.083831 0.346956 -0.001478
v 0.043915 0.340044 -0.002530
v 0.062565 0.336882 -0.001982
v 0.081401 0.332669 -0.001593
v 0.044175 0.357306 -0.002467
v 0.063387 0.359414 -0.001889
v 0.083610 0.362086 -0.001462
v 0.043919 0.365843 -0.002488
v 0.062557 0.370890 -0.001919
v 0.081128 0.376565 -0.001509
v -0.026482 0.333224 -0.003312
v -0.026482 0.363242 -0.003291
v -0.026482 0.348730 -0.003302
v -0.026482 0.341153 -0.003307
v -0.026482 0.356204 -0.003296
v 0.027701 0.363096 -0.003624
v 0.027701 0.356279 -0.003621
v 0.027701 0.341671 -0.003640
v 0.027701 0.348975 -0.003625
v 0.027701 0.334281 -0.003661
v 0.027701 0.369435 -0.003649
v -0.090757 0.314586 -0.000771
v -0.082455 0.307174 -0.000802
v -0.086606 0.310880 -0.000992
v -0.084531 0.309027 -0.001002
v -0.088682 0.312733 -0.000983
v 0.010928 0.369629 -0.009341
v 0.005464 0.369629 -0.012356
v -0.000000 0.369629 -0.013210
v -0.005464 0.369629 -0.012356
v 0.014456 0.369629 -0.004670
v -0.010928 0.369629 -0.009341
v -0.014456 0.369629 -0.004670
v -0.000000 0.369629 -0.014916
v 0.006195 0.369629 -0.013944
v 0.012339 0.369629 -0.010547
v 0.016786 0.369629 -0.004833
v 0.017450 0.369629 0.000000
v 0.016786 0.369629 0.004833
v 0.012339 0.369629 0.010547
v -0.091239 0.301679 -0.000853
v -0.093027 0.301886 -0.000848
v -0.093926 0.303258 -0.000840
v 0.015099 0.219550 -0.003777
v -0.016698 0.219550 -0.004342
v -0.016736 0.238220 -0.004437
v 0.016918 0.238220 -0.004927
v 0.016918 0.219550 -0.004927
v 0.012271 0.238220 -0.008234
v 0.013335 0.227682 -0.006826
v -0.012144 0.238220 -0.008364
v -0.015117 0.219550 -0.003691
v -0.013208 0.227682 -0.006956
v -0.013378 0.238220 -0.009418
v -0.014555 0.227682 -0.007862
v 0.013754 0.238220 -0.009501
v 0.015019 0.227682 -0.007884
v 0.012153 -0.238198 -0.012215
v 0.011642 -0.243186 -0.011695
v 0.006549 -0.238208 -0.015960
v 0.005796 -0.244057 -0.015167
v -0.000062 -0.238220 -0.017275
v -0.000052 -0.244327 -0.016160
v -0.006673 -0.238231 -0.015960
v -0.005900 -0.244077 -0.015167
v 0.009929 -0.248176 -0.009974
v 0.011654 -0.249895 -0.004987
v 0.012174 -0.250414 0.000000
v 0.011654 -0.249895 0.004987
v 0.004945 -0.249906 -0.011695
v 0.005812 -0.253377 -0.005848
v 0.006074 -0.254369 0.000000
v 0.005812 -0.253377 0.005848
v -0.000041 -0.250435 -0.012215
v -0.000034 -0.254379 -0.006108
v -0.000032 -0.255495 0.000000
v -0.000034 -0.254379 0.006108
v -0.005029 -0.249924 -0.011695
v -0.005884 -0.253397 -0.005848
v -0.006142 -0.254390 0.000000
v -0.005884 -0.253397 0.005848
v 0.009929 -0.248176 0.009974
v 0.011642 -0.243186 0.011695
v 0.012153 -0.238198 0.012215
v 0.004945 -0.249906 0.011695
v 0.005796 -0.244057 0.015167
v 0.006549 -0.238208 0.015960
v -0.000041 -0.250435 0.012215
v -0.000052 -0.244327 0.016160
v -0.000062 -0.238220 0.017275
v -0.005029 -0.249924 0.011695
v -0.005900 -0.244077 0.015167
v -0.006673 -0.238231 0.015960
v 0.015898 -0.238192 0.006611
v 0.015115 -0.244041 0.005848
v 0.017213 -0.238190 -0.000000
v 0.016108 -0.244299 0.000000
v 0.015898 -0.238192 -0.006611
v 0.015115 -0.244041 -0.005848
v -0.012278 -0.238241 -0.012215
v -0.011749 -0.243227 -0.011695
v -0.010019 -0.248211 -0.009974
v -0.016022 -0.238247 -0.006611
v -0.015219 -0.244094 -0.005848
v -0.011737 -0.249935 -0.004987
v -0.017337 -0.238249 0.000000
v -0.016211 -0.244355 0.000000
v -0.012256 -0.250456 0.000000
v -0.016022 -0.238247 0.006611
v -0.015219 -0.244094 0.005848
v -0.011737 -0.249935 0.004987
v -0.012278 -0.238241 0.012215
v -0.011749 -0.243227 0.011695
v -0.010019 -0.248211 0.009974
v 0.011247 0.334725 -0.009614
v 0.006087 0.334725 -0.012561
v -0.000000 0.334725 -0.013596
v -0.006087 0.334725 -0.012561
v 0.011247 0.334725 0.009614
v 0.006087 0.334725 0.012561
v -0.000000 0.334725 0.013596
v -0.006087 0.334725 0.012561
v 0.014695 0.334725 0.005203
v 0.015906 0.334725 -0.000000
v 0.014695 0.334725 -0.005203
v -0.011247 0.334725 -0.009614
v -0.014696 0.334725 -0.005203
v -0.015906 0.334725 -0.000000
v -0.014696 0.334725 0.005203
v -0.011247 0.334725 0.009614
v 0.011247 0.238220 0.009614
v 0.014695 0.238220 0.005203
v 0.006087 0.238220 0.012561
v -0.015906 0.238220 0.000000
v -0.014696 0.238220 0.005203
v -0.014696 0.238220 -0.005203
v 0.006087 0.238220 -0.012561
v -0.000000 0.238220 -0.013596
v 0.015906 0.238220 -0.000000
v -0.011248 0.238220 0.009614
v -0.006087 0.238220 0.012561
v 0.014695 0.238220 -0.005203
v -0.000000 0.238220 0.013596
v -0.006087 0.238220 -0.012561
v 0.011247 0.238220 -0.009614
v -0.011248 0.238220 -0.009614
v -0.005040 0.369857 -0.004647
v 0.000000 0.369857 -0.005041
v 0.005040 0.369857 -0.004647
v -0.005387 0.369857 0.000000
v 0.000000 0.369857 -0.000000
v 0.005387 0.369857 0.000000
v -0.005040 0.369857 0.004647
v -0.000000 0.369857 0.005041
v 0.005040 0.369857 0.004647
v 0.009084 0.369857 -0.007764
v 0.010323 0.368734 -0.008824
v 0.005587 0.368734 -0.011529
v 0.004916 0.369857 -0.010145
v -0.000000 0.368734 -0.012479
v 0.000000 0.369857 -0.010981
v -0.005587 0.368734 -0.011529
v -0.004916 0.369857 -0.010145
v 0.010323 0.368734 0.008824
v 0.009084 0.369857 0.007764
v 0.004916 0.369857 0.010145
v 0.005587 0.368734 0.011529
v -0.000000 0.369857 0.010981
v -0.000000 0.368734 0.012479
v -0.004916 0.369857 0.010145
v -0.005587 0.368734 0.011529
v 0.013488 0.368734 0.004775
v 0.011868 0.369857 0.004202
v 0.012846 0.369857 0.000000
v 0.014599 0.368734 0.000000
v 0.013488 0.368734 -0.004775
v 0.011868 0.369857 -0.004202
v -0.010323 0.368734 -0.008824
v -0.009084 0.369857 -0.007764
v -0.011868 0.369857 -0.004202
v -0.013488 0.368734 -0.004775
v -0.014599 0.368734 -0.000000
v -0.012846 0.369857 -0.000000
v -0.011868 0.369857 0.004202
v -0.013488 0.368734 0.004775
v -0.009084 0.369857 0.007764
v -0.010323 0.368734 0.008824
v -0.070314 0.315444 0.000000
v 0.017723 0.302557 0.004927
v 0.017320 0.270388 0.004927
v 0.011930 0.270388 0.008694
v 0.011589 0.302557 0.009154
v 0.018195 0.302557 0.000000
v 0.017793 0.270388 0.000000
v 0.013553 0.270388 0.010081
v 0.013352 0.302557 0.010661
v 0.017723 0.302557 -0.004927
v 0.017320 0.270388 -0.004927
v 0.011930 0.270388 -0.008694
v 0.011589 0.302557 -0.009154
v 0.013553 0.270388 -0.010081
v 0.013352 0.302557 -0.010661
v -0.017166 0.302557 0.005248
v -0.016951 0.270388 0.004843
v -0.018276 0.302557 0.000000
v -0.017954 0.270388 0.000000
v -0.011546 0.302557 0.009197
v -0.011845 0.270388 0.008780
v -0.013226 0.302557 0.010633
v -0.013302 0.270388 0.010026
v -0.017166 0.302557 -0.005248
v -0.016951 0.270388 -0.004843
v -0.011546 0.302557 -0.009197
v -0.011845 0.270388 -0.008780
v -0.013226 0.302557 -0.010633
v -0.013302 0.270388 -0.010026
v 0.019564 0.279439 -0.002471
v 0.019839 0.278203 -0.002898
v 0.019922 0.276968 -0.003026
v 0.019839 0.275732 -0.002898
v 0.018767 0.279865 -0.002898
v 0.018905 0.278416 -0.003758
v 0.018946 0.276968 -0.004004
v 0.018905 0.275519 -0.003758
v 0.017970 0.279994 -0.003026
v 0.017970 0.278481 -0.004004
v 0.017970 0.276968 -0.004280
v 0.017970 0.275454 -0.004004
v 0.017174 0.279865 -0.002898
v 0.017036 0.278416 -0.003758
v 0.016995 0.276968 -0.004004
v 0.017036 0.275519 -0.003758
v 0.019564 0.274497 -0.002471
v 0.019839 0.274070 -0.001236
v 0.019922 0.273941 0.000000
v 0.019839 0.274070 0.001236
v 0.018767 0.274070 -0.002898
v 0.018905 0.273210 -0.001449
v 0.018946 0.272964 0.000000
v 0.018905 0.273210 0.001449
v 0.017970 0.273941 -0.003026
v 0.017970 0.272964 -0.001513
v 0.017970 0.272688 0.000000
v 0.017970 0.272964 0.001513
v 0.017174 0.274070 -0.002898
v 0.017036 0.273210 -0.001449
v 0.016995 0.272964 0.000000
v 0.017036 0.273210 0.001449
v 0.019564 0.274497 0.002471
v 0.019839 0.275732 0.002898
v 0.019922 0.276968 0.003026
v 0.019839 0.278203 0.002898
v 0.018767 0.274070 0.002898
v 0.018905 0.275519 0.003758
v 0.018946 0.276968 0.004004
v 0.018905 0.278416 0.003758
v 0.017970 0.273941 0.003026
v 0.017970 0.275454 0.004004
v 0.017970 0.276968 0.004280
v 0.017970 0.278481 0.004004
v 0.017174 0.274070 0.002898
v 0.017036 0.275519 0.003758
v 0.016995 0.276968 0.004004
v 0.017036 0.278416 0.003758
v 0.019564 0.279439 0.002471
v 0.019839 0.279865 0.001236
v 0.019922 0.279994 0.000000
v 0.019839 0.279865 -0.001236
v 0.018767 0.279865 0.002898
v 0.018905 0.280725 0.001449
v 0.018946 0.280971 0.000000
v 0.018905 0.280725 -0.001449
v 0.017970 0.279994 0.003026
v 0.017970 0.280971 0.001513
v 0.017970 0.281248 0.000000
v 0.017970 0.280971 -0.001513
v 0.017174 0.279865 0.002898
v 0.017036 0.280725 0.001449
v 0.016995 0.280971 0.000000
v 0.017036 0.280725 -0.001449
v 0.020393 0.278416 0.001449
v 0.020552 0.276968 0.001513
v 0.020393 0.275519 0.001449
v 0.020552 0.278481 0.000000
v 0.020730 0.276968 0.000000
v 0.020552 0.275454 0.000000
v 0.020393 0.278416 -0.001449
v 0.020552 0.276968 -0.001513
v 0.020393 0.275519 -0.001449
v 0.018908 0.229762 -0.002352
v 0.019170 0.228586 -0.002758
v 0.019249 0.227410 -0.002881
v 0.019170 0.226234 -0.002758
v 0.018150 0.230168 -0.002758
v 0.018281 0.228789 -0.003577
v 0.018321 0.227410 -0.003811
v 0.018281 0.226031 -0.003577
v 0.017392 0.230291 -0.002881
v 0.017392 0.228850 -0.003811
v 0.017392 0.227410 -0.004074
v 0.017392 0.225969 -0.003811
v 0.016633 0.230168 -0.002758
v 0.016503 0.228789 -0.003577
v 0.016463 0.227410 -0.003811
v 0.016503 0.226031 -0.003577
v 0.018908 0.225057 -0.002352
v 0.019170 0.224651 -0.001176
v 0.019249 0.224529 0.000000
v 0.019170 0.224651 0.001176
v 0.018150 0.224651 -0.002758
v 0.018281 0.223833 -0.001379
v 0.018321 0.223599 0.000000
v 0.018281 0.223833 0.001379
v 0.017392 0.224529 -0.002881
v 0.017392 0.223599 -0.001440
v 0.017392 0.223335 0.000000
v 0.017392 0.223599 0.001440
v 0.016633 0.224651 -0.002758
v 0.016503 0.223833 -0.001379
v 0.016463 0.223599 0.000000
v 0.016503 0.223833 0.001379
v 0.018908 0.225057 0.002352
v 0.019170 0.226234 0.002758
v 0.019249 0.227410 0.002881
v 0.019170 0.228586 0.002758
v 0.018150 0.224651 0.002758
v 0.018281 0.226031 0.003577
v 0.018321 0.227410 0.003811
v 0.018281 0.228789 0.003577
v 0.017392 0.224529 0.002881
v 0.017392 0.225969 0.003811
v 0.017392 0.227410 0.004074
v 0.017392 0.228850 0.003811
v 0.016633 0.224651 0.002758
v 0.016503 0.226031 0.003577
v 0.016463 0.227410 0.003811
v 0.016503 0.228789 0.003577
v 0.018908 0.229762 0.002352
v 0.019170 0.230168 0.001176
v 0.019249 0.230291 0.000000
v 0.019170 0.230168 -0.001176
v 0.018150 0.230168 0.002758
v 0.018281 0.230987 0.001379
v 0.018321 0.231221 0.000000
v 0.018281 0.230987 -0.001379
v 0.017392 0.230291 0.002881
v 0.017392 0.231221 0.001440
v 0.017392 0.231484 0.000000
v 0.017392 0.231221 -0.001440
v 0.016633 0.230168 0.002758
v 0.016503 0.230987 0.001379
v 0.016463 0.231221 0.000000
v 0.016503 0.230987 -0.001379
v 0.019698 0.228789 0.001379
v 0.019849 0.227410 0.001440
v 0.019698 0.226031 0.001379
v 0.019849 0.228850 0.000000
v 0.020019 0.227410 0.000000
v 0.019849 0.225969 0.000000
v 0.019698 0.228789 -0.001379
v 0.019849 0.227410 -0.001440
v 0.019698 0.226031 -0.001379
v -0.017243 0.279865 -0.002898
v -0.017105 0.278416 -0.003758
v -0.017063 0.276968 -0.004004
v -0.017105 0.275519 -0.003758
v -0.018039 0.279994 -0.003026
v -0.018039 0.278481 -0.004004
v -0.018039 0.276968 -0.004280
v -0.018039 0.275454 -0.004004
v -0.018836 0.279865 -0.002898
v -0.018973 0.278416 -0.003758
v -0.019015 0.276968 -0.004004
v -0.018973 0.275519 -0.003758
v -0.017243 0.274070 -0.002898
v -0.017105 0.273210 -0.001449
v -0.017063 0.272964 0.000000
v -0.017105 0.273210 0.001449
v -0.018039 0.273941 -0.003026
v -0.018039 0.272964 -0.001513
v -0.018039 0.272688 0.000000
v -0.018039 0.272964 0.001513
v -0.018836 0.274070 -0.002898
v -0.018973 0.273210 -0.001449
v -0.019015 0.272964 0.000000
v -0.018973 0.273210 0.001449
v -0.017243 0.274070 0.002898
v -0.017105 0.275519 0.003758
v -0.017063 0.276968 0.004004
v -0.017105 0.278416 0.003758
v -0.018039 0.273941 0.003026
v -0.018039 0.275454 0.004004
v -0.018039 0.276968 0.004280
v -0.018039 0.278481 0.004004
v -0.018836 0.274070 0.002898
v -0.018973 0.275519 0.003758
v -0.019015 0.276968 0.004004
v -0.018973 0.278416 0.003758
v -0.017243 0.279865 0.002898
v -0.017105 0.280725 0.001449
v -0.017063 0.280971 0.000000
v -0.017105 0.280725 -0.001449
v -0.018039 0.279994 0.003026
v -0.018039 0.280971 0.001513
v -0.018039 0.281248 0.000000
v -0.018039 0.280971 -0.001513
v -0.018836 0.279865 0.002898
v -0.018973 0.280725 0.001449
v -0.019015 0.280971 0.000000
v -0.018973 0.280725 -0.001449
v -0.019632 0.279439 -0.002471
v -0.019907 0.278203 -0.002898
v -0.019991 0.276968 -0.003026
v -0.019907 0.275732 -0.002898
v -0.019632 0.274497 -0.002471
v -0.019907 0.279865 -0.001236
v -0.020462 0.278416 -0.001449
v -0.020621 0.276968 -0.001513
v -0.020462 0.275519 -0.001449
v -0.019907 0.274070 -0.001236
v -0.019991 0.279994 0.000000
v -0.020621 0.278481 0.000000
v -0.020799 0.276968 0.000000
v -0.020621 0.275454 0.000000
v -0.019991 0.273941 0.000000
v -0.019907 0.279865 0.001236
v -0.020462 0.278416 0.001449
v -0.020621 0.276968 0.001513
v -0.020462 0.275519 0.001449
v -0.019907 0.274070 0.001236
v -0.019632 0.279439 0.002471
v -0.019907 0.278203 0.002898
v -0.019991 0.276968 0.003026
v -0.019907 0.275732 0.002898
v -0.019632 0.274497 0.002471
v -0.017012 0.230168 -0.002758
v -0.016881 0.228789 -0.003577
v -0.016842 0.227410 -0.003811
v -0.016881 0.226031 -0.003577
v -0.017770 0.230291 -0.002881
v -0.017770 0.228850 -0.003811
v -0.017770 0.227410 -0.004074
v -0.017770 0.225969 -0.003811
v -0.018529 0.230168 -0.002758
v -0.018660 0.228789 -0.003577
v -0.018699 0.227410 -0.003811
v -0.018660 0.226031 -0.003577
v -0.017012 0.224651 -0.002758
v -0.016881 0.223833 -0.001379
v -0.016842 0.223599 0.000000
v -0.016881 0.223833 0.001379
v -0.017770 0.224529 -0.002881
v -0.017770 0.223599 -0.001440
v -0.017770 0.223335 0.000000
v -0.017770 0.223599 0.001440
v -0.018529 0.224651 -0.002758
v -0.018660 0.223833 -0.001379
v -0.018699 0.223599 0.000000
v -0.018660 0.223833 0.001379
v -0.017012 0.224651 0.002758
v -0.016881 0.226031 0.003577
v -0.016842 0.227410 0.003811
v -0.016881 0.228789 0.003577
v -0.017770 0.224529 0.002881
v -0.017770 0.225969 0.003811
v -0.017770 0.227410 0.004074
v -0.017770 0.228850 0.003811
v -0.018529 0.224651 0.002758
v -0.018660 0.226031 0.003577
v -0.018699 0.227410 0.003811
v -0.018660 0.228789 0.003577
v -0.017012 0.230168 0.002758
v -0.016881 0.230987 0.001379
v -0.016842 0.231221 0.000000
v -0.016881 0.230987 -0.001379
v -0.017770 0.230291 0.002881
v -0.017770 0.231221 0.001440
v -0.017770 0.231484 0.000000
v -0.017770 0.231221 -0.001440
v -0.018529 0.230168 0.002758
v -0.018660 0.230987 0.001379
v -0.018699 0.231221 0.000000
v -0.018660 0.230987 -0.001379
v -0.019287 0.229762 -0.002352
v -0.019549 0.228586 -0.002758
v -0.019628 0.227410 -0.002881
v -0.019549 0.226234 -0.002758
v -0.019287 0.225057 -0.002352
v -0.019549 0.230168 -0.001176
v -0.020077 0.228789 -0.001379
v -0.020228 0.227410 -0.001440
v -0.020077 0.226031 -0.001379
v -0.019549 0.224651 -0.001176
v -0.019628 0.230291 0.000000
v -0.020228 0.228850 0.000000
v -0.020397 0.227410 0.000000
v -0.020228 0.225969 0.000000
v -0.019628 0.224529 0.000000
v -0.019549 0.230168 0.001176
v -0.020077 0.228789 0.001379
v -0.020228 0.227410 0.001440
v -0.020077 0.226031 0.001379
v -0.019549 0.224651 0.001176
v -0.019287 0.229762 0.002352
v -0.019549 0.228586 0.002758
v -0.019628 0.227410 0.002881
v -0.019549 0.226234 0.002758
v -0.019287 0.225057 0.002352
vn -0.6549 -0.0000 0.7557
vn -0.3246 -0.0000 0.9458
vn -0.7972 -0.0000 0.6037
vn -0.8758 -0.0000 0.4827
vn 0.3246 -0.0000 0.9458
vn 0.6476 -0.0000 0.7620
vn -0.0000 -0.0000 1.0000
vn 0.7855 -0.0000 0.6189
vn 0.3135 0.2845 0.9060
vn -0.0000 0.2811 0.9597
vn -0.0000 -1.0000 -0.0000
vn 0.6218 0.2973 0.7245
vn 0.9999 -0.0125 -0.0000
vn 0.9348 -0.0105 0.3551
vn 0.9395 -0.0038 0.3426
vn 1.0000 -0.0063 -0.0000
vn -1.0000 -0.0000 -0.0000
vn -0.8666 0.3064 0.3939
vn -0.9503 0.3114 -0.0000
vn 0.5974 -0.8020 -0.0000
vn 0.5965 -0.8026 0.0080
vn 0.3309 -0.9437 0.0051
vn 0.3283 -0.9446 -0.0000
vn -0.8839 0.4677 -0.0000
vn -0.8845 0.4666 -0.0000
vn -0.9239 0.3825 -0.0000
vn -0.2669 0.9636 0.0156
vn -0.2723 0.9622 -0.0000
vn -0.4140 0.9103 -0.0000
vn -0.4120 0.9112 -0.0000
vn -0.5986 0.8011 -0.0000
vn -0.5968 0.8024 -0.0000
vn -0.7714 0.6363 -0.0000
vn -0.7704 0.6375 -0.0000
vn 0.2205 -0.9754 -0.0000
vn 0.2165 -0.9762 -0.0131
vn 0.3200 -0.9474 -0.0000
vn 0.3218 -0.9468 -0.0000
vn 0.4260 -0.9047 -0.0000
vn 0.4270 -0.9042 -0.0000
vn -0.1505 -0.0014 0.9886
vn -0.1681 -0.0010 0.9858
vn -0.0428 -0.0047 0.9991
vn -0.0431 -0.0052 0.9991
vn -0.0302 -0.0068 0.9995
vn -0.0291 -0.0070 0.9996
vn -0.0291 -0.0015 0.9996
vn -0.0260 -0.0031 0.9997
vn -0.5002 0.8659 -0.0000
vn -0.4999 0.8661 -0.0000
vn -0.5302 0.8479 -0.0000
vn 0.0209 -0.0040 0.9998
vn 0.0189 -0.0040 0.9998
vn 0.0206 -0.0078 0.9998
vn 0.0225 -0.0079 0.9997
vn 0.0254 0.0031 0.9997
vn 0.0258 0.0050 0.9997
vn 0.0201 0.0058 0.9998
vn 0.0193 0.0027 0.9998
vn 0.0496 0.0025 0.9988
vn 0.0494 0.0040 0.9988
vn 0.1020 0.0013 0.9948
vn 0.1010 0.0022 0.9949
vn -0.0000 0.5155 -0.8569
vn 0.2716 0.5225 -0.8083
vn 0.2797 0.5228 -0.8053
vn -0.0000 1.0000 -0.0000
vn -0.2716 0.5225 -0.8083
vn -0.2797 0.5228 -0.8053
vn -0.5423 0.5428 -0.6413
vn -0.5557 0.5440 -0.6287
vn 0.7463 0.5659 -0.3505
vn 0.8177 0.5756 -0.0000
vn 0.7521 0.5667 -0.3364
vn -0.3135 0.2845 0.9060
vn 0.7967 0.4303 0.4244
vn -0.6290 0.2948 0.7194
vn 0.1215 0.0367 0.9919
vn 0.1218 0.0378 0.9918
vn 0.1256 0.0510 0.9908
vn 0.1169 0.0109 0.9931
vn 0.1169 0.0115 0.9931
vn 0.1025 0.0001 0.9947
vn 0.0498 0.0001 0.9988
vn 0.0203 0.0073 0.9998
vn 0.0193 0.0088 0.9998
vn 0.0188 0.0063 0.9998
vn -0.4485 -0.8938 -0.0000
vn -0.4489 -0.8936 -0.0000
vn -0.4970 -0.8678 -0.0000
vn 0.0191 0.0004 0.9998
vn 0.0177 0.0024 0.9998
vn 0.0171 0.0004 0.9999
vn 0.1293 -0.0408 0.9908
vn 0.1291 -0.0406 0.9908
vn 0.1182 -0.0131 0.9929
vn 0.1183 -0.0136 0.9929
vn 0.0271 -0.0039 0.9996
vn 0.0256 0.0002 0.9997
vn -0.0324 -0.0081 0.9994
vn -0.0306 -0.0075 0.9995
vn -0.0185 -0.0076 0.9998
vn -0.0168 -0.0145 0.9998
vn -0.0485 -0.0058 0.9988
vn -0.0456 -0.0054 0.9989
vn -0.1533 -0.0016 0.9882
vn -0.1518 -0.0014 0.9884
vn -0.0127 -0.9999 -0.0000
vn 0.0505 -0.0029 0.9987
vn 0.0185 -0.0927 0.9955
vn -0.0651 -0.0874 0.9940
vn -0.0966 -0.1310 0.9867
vn 0.0218 -0.1487 0.9886
vn -0.7080 -0.0038 0.7062
vn -0.8769 -0.0070 0.4806
vn 0.6987 -0.0027 0.7154
vn 0.8887 -0.0071 0.4584
vn -0.1418 -0.0020 0.9899
vn -0.0493 -0.0064 0.9988
vn -0.0327 -0.0086 0.9994
vn -0.0143 -0.0218 0.9997
vn 0.1023 -0.0016 0.9948
vn 0.1380 -0.0558 0.9889
vn -0.9434 -0.3316 -0.0000
vn -0.1087 -0.0189 0.9939
vn -0.1484 -0.0124 0.9888
vn -0.1021 -0.9948 -0.0014
vn -0.1057 -0.9944 -0.0000
vn -0.2157 -0.9765 -0.0000
vn -0.2141 -0.9768 -0.0000
vn -0.3343 -0.9425 -0.0000
vn -0.3334 -0.9428 -0.0000
vn 0.0984 0.0023 0.9951
vn 0.0480 0.0037 0.9988
vn 0.0258 0.0049 0.9997
vn 0.0484 -0.0058 0.9988
vn 0.0982 -0.0031 0.9952
vn 0.0280 -0.0076 0.9996
vn -0.2055 0.9787 -0.0000
vn -0.2016 0.9791 -0.0257
vn -0.3291 0.9442 -0.0130
vn -0.3306 0.9438 -0.0000
vn -0.4241 0.9056 -0.0000
vn -0.4248 0.9053 -0.0000
vn -0.2503 0.0003 0.9682
vn -0.2508 0.0003 0.9680
vn -0.2495 0.0003 0.9684
vn -0.2498 0.0003 0.9683
vn -0.2511 0.0003 0.9680
vn 0.1773 -0.9842 -0.0000
vn 0.1773 -0.9839 -0.0240
vn -0.2102 0.9772 0.0286
vn -0.2103 0.9776 -0.0000
vn -0.1293 0.9916 -0.0000
vn -0.1293 0.9913 -0.0260
vn 0.1344 -0.0011 0.9909
vn 0.1337 -0.0020 0.9910
vn 0.1331 0.0012 0.9911
vn 0.1322 0.0014 0.9912
vn -0.0477 -0.9989 -0.0026
vn -0.0477 -0.9989 -0.0000
vn 0.1349 -0.0000 0.9909
vn 0.1345 0.0006 0.9909
vn -0.0511 0.0093 0.9986
vn -0.0132 -0.0082 0.9999
vn 0.0101 -0.0385 0.9992
vn 0.0283 -0.0646 0.9975
vn -0.0748 0.0201 0.9970
vn -0.5518 0.8340 -0.0000
vn -0.5245 -0.8514 -0.0000
vn 0.5179 0.5843 0.6248
vn 0.2634 0.5603 0.7853
vn 0.7055 0.6298 0.3251
vn 0.7636 0.6457 -0.0000
vn 0.7055 0.6298 -0.3251
vn 0.7967 0.4303 -0.4244
vn 0.5179 0.5843 -0.6248
vn 0.6218 0.2973 -0.7245
vn 0.2634 0.5602 -0.7853
vn 0.3135 0.2845 -0.9060
vn -0.0000 0.5528 -0.8333
vn -0.0000 0.2811 -0.9597
vn -0.2634 0.5602 -0.7853
vn -0.3135 0.2845 -0.9060
vn -0.7463 0.5659 -0.3505
vn -0.7521 0.5667 -0.3364
vn 0.5423 0.5428 -0.6413
vn 0.5557 0.5440 -0.6287
vn -0.8177 0.5756 -0.0000
vn -0.6496 -0.0178 0.7600
vn -0.6183 -0.0987 0.7797
vn -0.6186 -0.0980 0.7796
vn 0.6497 -0.0159 0.7601
vn 0.6251 -0.0946 0.7748
vn 0.6248 -0.0954 0.7749
vn -0.3679 -0.5377 0.7587
vn -0.2513 -0.6452 0.7215
vn -0.3896 -0.5149 0.7636
vn 0.1505 -0.6261 0.7651
vn 0.2885 -0.5402 0.7905
vn 0.2926 -0.5374 0.7910
vn 0.8077 -0.0078 0.5896
vn 0.8230 -0.0017 0.5681
vn -0.9176 -0.0104 0.3973
vn -1.0000 -0.0097 -0.0000
vn -1.0000 -0.0055 -0.0000
vn -0.9227 -0.0049 0.3855
vn -0.8177 -0.0108 0.5755
vn -0.8315 -0.0047 0.5556
vn -0.5397 -0.2897 0.7904
vn -0.5394 -0.2905 0.7904
vn 0.5150 -0.3097 0.7993
vn 0.5158 -0.3086 0.7992
vn 0.9863 0.0008 0.1652
vn 1.0000 -0.0000 -0.0000
vn 0.8326 0.0054 0.5539
vn -0.9652 -0.0008 0.2614
vn -0.8405 0.0022 0.5417
vn -1.0000 -0.0013 -0.0000
vn -0.6549 -0.0000 -0.7557
vn -0.3246 -0.0000 -0.9458
vn -0.7972 -0.0000 -0.6037
vn -0.8758 -0.0000 -0.4827
vn 0.3246 -0.0000 -0.9458
vn 0.6476 -0.0000 -0.7620
vn -0.0000 -0.0000 -1.0000
vn 0.7855 -0.0000 -0.6189
vn 0.9395 -0.0038 -0.3426
vn 0.9348 -0.0105 -0.3551
vn -0.8666 0.3064 -0.3939
vn 0.3309 -0.9437 -0.0051
vn 0.5965 -0.8026 -0.0080
vn -0.2669 0.9636 -0.0156
vn 0.2165 -0.9762 0.0131
vn 0.5192 -0.8547 -0.0000
vn 0.5184 -0.8552 -0.0032
vn -0.1505 -0.0014 -0.9886
vn -0.0431 -0.0052 -0.9991
vn -0.0428 -0.0047 -0.9991
vn -0.1681 -0.0010 -0.9858
vn -0.0291 -0.0070 -0.9996
vn -0.0302 -0.0068 -0.9995
vn -0.0260 -0.0031 -0.9997
vn -0.0291 -0.0015 -0.9996
vn 0.0209 -0.0040 -0.9998
vn 0.0225 -0.0079 -0.9997
vn 0.0206 -0.0078 -0.9998
vn 0.0189 -0.0040 -0.9998
vn 0.0254 0.0031 -0.9997
vn 0.0193 0.0027 -0.9998
vn 0.0201 0.0058 -0.9998
vn 0.0258 0.0050 -0.9997
vn 0.0496 0.0025 -0.9988
vn 0.0494 0.0040 -0.9988
vn 0.1020 0.0013 -0.9948
vn 0.1010 0.0022 -0.9949
vn -0.0000 0.5155 0.8569
vn 0.2797 0.5228 0.8053
vn 0.2716 0.5225 0.8083
vn -0.2716 0.5225 0.8083
vn -0.2797 0.5228 0.8053
vn 0.0001 1.0000 -0.0000
vn -0.5423 0.5428 0.6413
vn -0.5557 0.5440 0.6287
vn 0.7463 0.5659 0.3505
vn 0.7521 0.5667 0.3364
vn -0.6290 0.2948 -0.7194
vn 0.1215 0.0367 -0.9919
vn 0.1256 0.0510 -0.9908
vn 0.1218 0.0378 -0.9918
vn 0.1169 0.0109 -0.9931
vn 0.1169 0.0115 -0.9931
vn 0.1025 0.0001 -0.9947
vn 0.0498 0.0001 -0.9988
vn 0.0188 0.0063 -0.9998
vn 0.0193 0.0088 -0.9998
vn 0.0203 0.0073 -0.9998
vn 0.0191 0.0004 -0.9998
vn 0.0171 0.0004 -0.9999
vn 0.0177 0.0024 -0.9998
vn 0.1293 -0.0408 -0.9908
vn 0.1183 -0.0136 -0.9929
vn 0.1182 -0.0131 -0.9929
vn 0.1291 -0.0406 -0.9908
vn 0.0271 -0.0039 -0.9996
vn 0.0256 0.0002 -0.9997
vn -0.0324 -0.0081 -0.9994
vn -0.0168 -0.0145 -0.9998
vn -0.0185 -0.0076 -0.9998
vn -0.0306 -0.0075 -0.9995
vn -0.0485 -0.0058 -0.9988
vn -0.0456 -0.0054 -0.9989
vn -0.1533 -0.0016 -0.9882
vn -0.1518 -0.0014 -0.9884
vn 0.0505 -0.0029 -0.9987
vn 0.0185 -0.0927 -0.9955
vn 0.0218 -0.1487 -0.9886
vn -0.0966 -0.1310 -0.9867
vn -0.0651 -0.0874 -0.9940
vn -0.7080 -0.0038 -0.7062
vn -0.8769 -0.0070 -0.4806
vn 0.6987 -0.0027 -0.7154
vn 0.8887 -0.0071 -0.4584
vn -0.1418 -0.0020 -0.9899
vn -0.0493 -0.0064 -0.9988
vn -0.0327 -0.0086 -0.9994
vn -0.0143 -0.0218 -0.9997
vn 0.1023 -0.0016 -0.9948
vn 0.1380 -0.0558 -0.9889
vn -0.9434 -0.3317 -0.0000
vn -0.1484 -0.0124 -0.9888
vn -0.1087 -0.0189 -0.9939
vn -0.1021 -0.9948 0.0014
vn 0.0480 0.0037 -0.9988
vn 0.0984 0.0023 -0.9951
vn 0.0258 0.0049 -0.9997
vn 0.0982 -0.0031 -0.9952
vn 0.0484 -0.0058 -0.9988
vn 0.0280 -0.0076 -0.9996
vn -0.3291 0.9442 0.0130
vn -0.2016 0.9791 0.0257
vn -0.2503 0.0003 -0.9682
vn -0.2508 0.0003 -0.9680
vn -0.2495 0.0003 -0.9684
vn -0.2498 0.0003 -0.9683
vn -0.2511 0.0003 -0.9680
vn 0.1772 -0.9839 0.0240
vn -0.2102 0.9772 -0.0286
vn -0.1293 0.9913 0.0260
vn 0.1344 -0.0011 -0.9909
vn 0.1337 -0.0020 -0.9910
vn 0.1331 0.0012 -0.9911
vn 0.1322 0.0014 -0.9912
vn -0.0477 -0.9989 0.0026
vn 0.1349 -0.0000 -0.9909
vn 0.1345 0.0006 -0.9909
vn -0.0132 -0.0082 -0.9999
vn -0.0511 0.0093 -0.9986
vn 0.0283 -0.0646 -0.9975
vn 0.0101 -0.0385 -0.9992
vn -0.0748 0.0201 -0.9970
vn -0.5249 0.5811 -0.6219
vn -0.7212 0.6039 -0.3395
vn -0.7900 0.6131 -0.0000
vn -0.7212 0.6039 0.3395
vn -0.5249 0.5811 0.6219
vn -0.2634 0.5602 0.7853
vn -0.0000 0.5528 0.8333
vn -0.7463 0.5659 0.3505
vn -0.7521 0.5667 0.3364
vn 0.5557 0.5440 0.6287
vn 0.5423 0.5428 0.6413
vn -0.6496 -0.0178 -0.7600
vn -0.6186 -0.0980 -0.7796
vn -0.6183 -0.0987 -0.7797
vn 0.6497 -0.0159 -0.7601
vn 0.6248 -0.0954 -0.7749
vn 0.6251 -0.0946 -0.7748
vn -0.3679 -0.5377 -0.7587
vn -0.3896 -0.5149 -0.7636
vn -0.2513 -0.6452 -0.7215
vn 0.1505 -0.6261 -0.7651
vn 0.2926 -0.5374 -0.7910
vn 0.2885 -0.5402 -0.7905
vn 0.8230 -0.0017 -0.5681
vn 0.8077 -0.0078 -0.5896
vn -0.9176 -0.0104 -0.3973
vn -0.9227 -0.0049 -0.3855
vn -0.8177 -0.0108 -0.5755
vn -0.8315 -0.0047 -0.5556
vn -0.5394 -0.2905 -0.7904
vn -0.5397 -0.2897 -0.7904
vn 0.5158 -0.3086 -0.7992
vn 0.5150 -0.3097 -0.7993
vn 0.9863 0.0008 -0.1652
vn 0.8326 0.0054 -0.5539
vn -0.8405 0.0022 -0.5417
vn -0.9652 -0.0008 -0.2614
vn 0.6927 -0.0799 -0.7168
vn 0.6732 -0.3072 -0.6726
vn 0.3393 -0.3398 -0.8772
vn 0.3685 -0.0796 -0.9262
vn 0.5783 -0.5764 -0.5773
vn 0.3047 -0.6732 -0.6737
vn 0.0006 -0.3572 -0.9340
vn -0.0000 -0.0802 -0.9968
vn 0.0012 -0.7071 -0.7071
vn -0.3381 -0.3409 -0.8772
vn -0.3684 -0.0803 -0.9262
vn -0.3024 -0.6743 -0.6737
vn -0.6721 -0.3096 -0.6726
vn -0.6926 -0.0810 -0.7167
vn -0.5764 -0.5783 -0.5773
vn 0.6749 -0.6726 -0.3036
vn 0.3418 -0.8760 -0.3403
vn 0.7083 -0.7059 -0.0000
vn 0.3626 -0.9320 -0.0000
vn 0.6749 -0.6726 0.3036
vn 0.3418 -0.8760 0.3403
vn 0.5783 -0.5764 0.5773
vn 0.3047 -0.6732 0.6737
vn 0.0016 -0.9326 -0.3610
vn 0.0017 -1.0000 -0.0000
vn 0.0016 -0.9326 0.3610
vn 0.0012 -0.7071 0.7071
vn -0.3388 -0.8772 -0.3403
vn -0.3593 -0.9332 -0.0000
vn -0.3388 -0.8772 0.3403
vn -0.3024 -0.6743 0.6737
vn -0.6726 -0.6749 -0.3036
vn -0.7059 -0.7083 -0.0000
vn -0.6726 -0.6749 0.3036
vn -0.5764 -0.5783 0.5773
vn 0.6732 -0.3072 0.6726
vn 0.3393 -0.3398 0.8772
vn 0.6927 -0.0799 0.7168
vn 0.3685 -0.0796 0.9262
vn 0.0006 -0.3572 0.9340
vn -0.0000 -0.0802 0.9968
vn -0.3381 -0.3409 0.8772
vn -0.3684 -0.0803 0.9262
vn -0.6721 -0.3096 0.6726
vn -0.6926 -0.0810 0.7167
vn 0.8778 -0.3388 0.3387
vn 0.9169 -0.0809 0.3907
vn 0.9347 -0.3556 -0.0000
vn 0.9966 -0.0819 -0.0000
vn 0.8778 -0.3388 -0.3387
vn 0.9169 -0.0809 -0.3907
vn -0.8766 -0.3419 -0.3387
vn -0.9168 -0.0824 -0.3907
vn -0.9334 -0.3588 -0.0000
vn -0.9965 -0.0835 -0.0000
vn -0.8766 -0.3419 0.3387
vn -0.9168 -0.0824 0.3907
vn 0.6689 0.0026 0.7433
vn 0.9084 0.0018 0.4180
vn 0.9021 0.0187 0.4311
vn 0.6543 0.0176 0.7560
vn 0.3492 0.0034 0.9370
vn 0.3371 0.0167 0.9413
vn -1.0000 0.0016 -0.0000
vn -0.9084 0.0019 0.4180
vn -0.9021 0.0187 0.4311
vn -0.9998 0.0192 -0.0000
vn -0.9084 0.0019 -0.4180
vn -0.9021 0.0187 -0.4311
vn 0.3492 0.0034 -0.9370
vn -0.0000 0.0038 -1.0000
vn -0.0000 0.0164 -0.9999
vn 0.3371 0.0167 -0.9413
vn 1.0000 0.0015 -0.0000
vn 0.9998 0.0192 -0.0000
vn -0.6689 0.0027 0.7434
vn -0.3492 0.0035 0.9370
vn -0.3371 0.0167 0.9413
vn -0.6543 0.0176 0.7560
vn 0.9084 0.0018 -0.4180
vn 0.9021 0.0187 -0.4311
vn -0.0000 0.0038 1.0000
vn -0.0000 0.0164 0.9999
vn -0.3492 0.0035 -0.9370
vn -0.3371 0.0167 -0.9413
vn 0.6689 0.0026 -0.7433
vn 0.6543 0.0176 -0.7560
vn -0.6689 0.0027 -0.7434
vn -0.6543 0.0176 -0.7560
vn 0.1118 0.9395 0.3237
vn 0.2134 0.9429 0.2559
vn 0.2890 0.9465 0.1434
vn -0.1118 0.9395 -0.3237
vn -0.0000 0.9383 -0.3459
vn 0.3178 0.9481 -0.0000
vn -0.2134 0.9429 -0.2559
vn -0.2890 0.9465 -0.1434
vn -0.0000 0.9383 0.3459
vn -0.3178 0.9482 -0.0000
vn -0.2890 0.9465 0.1434
vn -0.1118 0.9395 0.3237
vn 0.2890 0.9465 -0.1434
vn -0.2134 0.9429 0.2559
vn 0.6533 0.0353 0.7563
vn 0.3364 0.0335 0.9411
vn -0.6533 0.0353 0.7563
vn -0.9013 0.0374 0.4316
vn -0.9013 0.0374 -0.4316
vn -0.6533 0.0353 -0.7563
vn 0.1118 0.9395 -0.3237
vn 0.3364 0.0335 -0.9411
vn 0.6533 0.0353 -0.7563
vn -0.3364 0.0335 -0.9411
vn -0.9993 0.0384 -0.0000
vn -0.3364 0.0335 0.9411
vn -0.0000 0.0328 -0.9995
vn -0.0000 0.0328 0.9995
vn 0.9013 0.0374 -0.4316
vn 0.9993 0.0384 -0.0000
vn 0.9013 0.0374 0.4316
vn 0.3791 0.8210 -0.4268
vn 0.2041 0.8063 -0.5552
vn 0.2134 0.9429 -0.2559
vn -0.0000 0.8002 -0.5998
vn -0.2041 0.8063 -0.5552
vn 0.2041 0.8063 0.5552
vn 0.3791 0.8211 0.4268
vn -0.0000 0.8002 0.5998
vn -0.2041 0.8063 0.5552
vn 0.4976 0.8359 0.2316
vn 0.5395 0.8420 -0.0000
vn 0.4976 0.8359 -0.2316
vn -0.3791 0.8211 -0.4268
vn -0.3791 0.8211 0.4268
vn -0.4976 0.8359 0.2316
vn -0.4976 0.8359 -0.2316
vn -0.5394 0.8420 -0.0000
vn 0.5184 -0.8552 0.0032
vn 0.9311 -0.0106 -0.3646
vn 0.7955 -0.0079 -0.6059
vn 0.7955 -0.0079 0.6059
vn 0.9311 -0.0106 0.3646
vn -0.8071 -0.0110 -0.5903
vn -0.9131 -0.0105 -0.4076
vn -0.9131 -0.0105 0.4076
vn -0.8071 -0.0110 0.5903
vn 0.7343 0.4800 -0.4800
vn 0.8028 0.2422 -0.5449
vn 0.4700 0.3202 -0.8225
vn 0.4328 0.6375 -0.6375
vn 0.8270 -0.0000 -0.5623
vn 0.4930 -0.0000 -0.8700
vn 0.8028 -0.2422 -0.5449
vn 0.4700 -0.3202 -0.8225
vn 0.7343 -0.4800 -0.4800
vn 0.4327 -0.6375 -0.6375
vn -0.0000 0.3600 -0.9329
vn -0.0000 0.7071 -0.7071
vn -0.0000 -0.3600 -0.9329
vn -0.0000 -0.7071 -0.7071
vn -0.2553 0.3486 -0.9018
vn -0.2413 0.6862 -0.6862
vn -0.2692 -0.0000 -0.9631
vn -0.2553 -0.3486 -0.9018
vn -0.2413 -0.6862 -0.6862
vn 0.8028 -0.5449 -0.2422
vn 0.4700 -0.8225 -0.3202
vn 0.8270 -0.5622 -0.0000
vn 0.4930 -0.8700 -0.0000
vn 0.8028 -0.5449 0.2422
vn 0.4700 -0.8225 0.3202
vn 0.7343 -0.4800 0.4800
vn 0.4327 -0.6375 0.6375
vn -0.0000 -0.9329 -0.3601
vn -0.0000 -0.9329 0.3601
vn -0.0000 -0.7071 0.7071
vn -0.2552 -0.9019 -0.3486
vn -0.2692 -0.9631 -0.0000
vn -0.2552 -0.9019 0.3486
vn -0.2413 -0.6862 0.6862
vn 0.8028 -0.2422 0.5449
vn 0.4700 -0.3202 0.8225
vn 0.8270 -0.0000 0.5623
vn 0.4931 -0.0000 0.8700
vn 0.8028 0.2422 0.5449
vn 0.4700 0.3202 0.8225
vn 0.7343 0.4800 0.4800
vn 0.4328 0.6375 0.6375
vn -0.0000 -0.3600 0.9329
vn -0.0000 0.3600 0.9329
vn -0.0000 0.7071 0.7071
vn -0.2553 -0.3486 0.9018
vn -0.2692 -0.0000 0.9631
vn -0.2553 0.3486 0.9018
vn -0.2413 0.6862 0.6862
vn 0.8028 0.5449 0.2422
vn 0.4700 0.8225 0.3202
vn 0.8270 0.5623 -0.0000
vn 0.4930 0.8700 -0.0000
vn 0.8028 0.5449 -0.2422
vn 0.4700 0.8225 -0.3202
vn -0.0000 0.9329 0.3601
vn -0.0000 0.9329 -0.3601
vn -0.2553 0.9018 0.3486
vn -0.2692 0.9631 -0.0000
vn -0.2553 0.9018 -0.3486
vn 0.9392 0.2428 0.2428
vn 0.9681 -0.0000 0.2504
vn 0.9392 -0.2428 0.2428
vn 0.9681 0.2504 -0.0000
vn 0.9681 -0.2504 -0.0000
vn 0.9392 0.2428 -0.2428
vn 0.9681 -0.0000 -0.2504
vn 0.9392 -0.2428 -0.2428
vn 0.4931 -0.0000 -0.8700
vn 0.4328 -0.6375 -0.6375
vn -0.0000 0.3601 -0.9329
vn -0.0000 -0.3601 -0.9329
vn 0.8270 -0.5623 -0.0000
vn 0.4328 -0.6375 0.6375
vn -0.2553 -0.9018 0.3486
vn -0.0000 -0.3601 0.9329
vn -0.0000 0.3601 0.9329
vn 0.8270 0.5622 -0.0000
vn 0.4931 0.8700 -0.0000
vn -0.2552 0.9019 0.3486
vn 0.9681 -0.2505 -0.0000
vn 0.2413 0.6862 -0.6862
vn 0.2553 0.3486 -0.9018
vn 0.2692 -0.0000 -0.9631
vn 0.2553 -0.3486 -0.9018
vn 0.2413 -0.6862 -0.6862
vn -0.4700 0.3202 -0.8225
vn -0.4328 0.6375 -0.6375
vn -0.4931 -0.0000 -0.8700
vn -0.4700 -0.3202 -0.8225
vn -0.4327 -0.6375 -0.6375
vn -0.8028 0.2422 -0.5449
vn -0.7343 0.4800 -0.4800
vn -0.8270 -0.0000 -0.5623
vn -0.8028 -0.2422 -0.5449
vn -0.7343 -0.4800 -0.4800
vn 0.2552 -0.9019 -0.3486
vn 0.2692 -0.9631 -0.0000
vn 0.2552 -0.9019 0.3486
vn 0.2413 -0.6862 0.6862
vn -0.4700 -0.8225 -0.3202
vn -0.4930 -0.8700 -0.0000
vn -0.4700 -0.8225 0.3202
vn -0.4327 -0.6375 0.6375
vn -0.8028 -0.5449 -0.2422
vn -0.8270 -0.5622 -0.0000
vn -0.8028 -0.5449 0.2422
vn -0.7343 -0.4800 0.4800
vn 0.2552 -0.3486 0.9018
vn 0.2692 -0.0000 0.9631
vn 0.2553 0.3486 0.9018
vn 0.2413 0.6862 0.6862
vn -0.4700 -0.3202 0.8225
vn -0.4931 -0.0000 0.8700
vn -0.4700 0.3202 0.8225
vn -0.4328 0.6375 0.6375
vn -0.8028 -0.2422 0.5449
vn -0.8270 -0.0000 0.5623
vn -0.8028 0.2422 0.5449
vn -0.7343 0.4800 0.4800
vn 0.2553 0.9018 0.3486
vn 0.2692 0.9631 -0.0000
vn 0.2553 0.9018 -0.3486
vn -0.4700 0.8225 0.3202
vn -0.4930 0.8700 -0.0000
vn -0.4700 0.8225 -0.3202
vn -0.8028 0.5449 0.2422
vn -0.8270 0.5623 -0.0000
vn -0.8028 0.5449 -0.2422
vn -0.9392 0.2428 -0.2428
vn -0.9681 -0.0000 -0.2504
vn -0.9392 -0.2428 -0.2428
vn -0.9681 0.2504 -0.0000
vn -0.9681 -0.2504 -0.0000
vn -0.9392 0.2428 0.2428
vn -0.9681 -0.0000 0.2504
vn -0.9392 -0.2428 0.2428
vn -0.4327 0.6375 -0.6375
vn 0.2553 -0.9018 0.3486
vn 0.2553 -0.3486 0.9018
vn -0.4327 0.6375 0.6375
vn 0.2552 0.9019 0.3486
vn 0.2552 0.9019 -0.3486
vt 0.413191 0.222335
vt 0.413803 0.234483
vt 0.403293 0.234483
vt 0.401911 0.222335
vt 0.411828 0.210938
vt 0.399320 0.210938
vt 0.413803 0.256262
vt 0.413803 0.268411
vt 0.403293 0.268411
vt 0.403293 0.256262
vt 0.413803 0.245373
vt 0.403293 0.245373
vt 0.413803 0.281483
vt 0.403293 0.281483
vt 0.394248 0.256262
vt 0.394248 0.245373
vt 0.154596 0.196611
vt 0.164468 0.196611
vt 0.164468 0.200444
vt 0.154596 0.200444
vt 0.394248 0.268411
vt 0.143523 0.196611
vt 0.143523 0.200444
vt 0.827951 0.241769
vt 0.827951 0.249818
vt 0.775603 0.249888
vt 0.775600 0.241831
vt 0.399320 0.201532
vt 0.394248 0.210938
vt 0.394248 0.201532
vt 0.174341 0.196611
vt 0.185413 0.196611
vt 0.185413 0.200444
vt 0.174341 0.200444
vt 0.666988 0.286705
vt 0.666979 0.285402
vt 0.685019 0.285803
vt 0.685019 0.286705
vt 0.700098 0.216336
vt 0.700098 0.215081
vt 0.719609 0.215081
vt 0.719609 0.215964
vt 0.565005 0.220434
vt 0.565005 0.215082
vt 0.598961 0.215081
vt 0.598961 0.218918
vt 0.632856 0.215081
vt 0.632856 0.217751
vt 0.669255 0.215081
vt 0.669255 0.217073
vt 0.565825 0.286705
vt 0.565825 0.281318
vt 0.590189 0.282760
vt 0.590189 0.286705
vt 0.617198 0.283932
vt 0.617198 0.286705
vt 0.145125 0.271699
vt 0.145123 0.283146
vt 0.113070 0.271825
vt 0.115201 0.261124
vt 0.083528 0.255162
vt 0.086806 0.245566
vt 0.057370 0.229835
vt 0.061466 0.223725
vt 0.651961 0.263896
vt 0.651961 0.261092
vt 0.682106 0.261520
vt 0.682106 0.263896
vt 0.057002 0.283658
vt 0.026666 0.273200
vt 0.039172 0.246852
vt 0.064722 0.262815
vt 0.085827 0.330097
vt 0.087207 0.348193
vt 0.056565 0.355044
vt 0.052612 0.331809
vt 0.117124 0.328930
vt 0.117552 0.343048
vt 0.143982 0.328522
vt 0.143985 0.340402
vt 0.381173 0.320905
vt 0.380129 0.312956
vt 0.382755 0.311969
vt 0.384032 0.320965
vt 0.377241 0.338649
vt 0.382380 0.329890
vt 0.384940 0.331138
vt 0.379142 0.340972
vt 0.379800 0.328797
vt 0.369569 0.344156
vt 0.369779 0.347880
vt 0.362032 0.345606
vt 0.361971 0.348918
vt 0.375318 0.336582
vt 0.369456 0.299786
vt 0.362972 0.298213
vt 0.363027 0.295460
vt 0.370499 0.297157
vt 0.394249 0.234483
vt 0.394248 0.281483
vt 0.394249 0.222335
vt 0.012052 0.267226
vt 0.025524 0.237899
vt 0.020567 0.302528
vt 0.004824 0.300375
vt 0.143981 0.316642
vt 0.117124 0.314973
vt 0.064085 0.375903
vt 0.039977 0.389707
vt 0.028138 0.363640
vt 0.649466 0.243222
vt 0.649466 0.240345
vt 0.677243 0.240345
vt 0.677243 0.242920
vt 0.052968 0.307205
vt 0.021176 0.334861
vt 0.012904 0.368794
vt 0.005146 0.336400
vt 0.087215 0.292883
vt 0.085865 0.311546
vt 0.093314 0.226961
vt 0.090060 0.236264
vt 0.065564 0.217615
vt 0.069661 0.211504
vt 0.119457 0.238502
vt 0.117329 0.250322
vt 0.145129 0.247217
vt 0.145127 0.259541
vt 0.690107 0.285813
vt 0.690107 0.286706
vt 0.117541 0.301090
vt 0.437072 0.268411
vt 0.437072 0.281483
vt 0.425115 0.281483
vt 0.425115 0.268411
vt 0.437072 0.234483
vt 0.437072 0.245373
vt 0.425115 0.245373
vt 0.425115 0.234483
vt 0.437072 0.256262
vt 0.425115 0.256262
vt 0.039738 0.183077
vt 0.036844 0.183411
vt 0.034925 0.180676
vt 0.040027 0.180589
vt 0.437071 0.210938
vt 0.437072 0.222335
vt 0.425115 0.222335
vt 0.425094 0.210938
vt 0.448612 0.222335
vt 0.448612 0.234483
vt 0.448612 0.210938
vt 0.448612 0.256262
vt 0.448612 0.268411
vt 0.448612 0.245373
vt 0.448612 0.281483
vt 0.145132 0.234322
vt 0.121586 0.227903
vt 0.096568 0.217659
vt 0.073761 0.205395
vt 0.143981 0.305556
vt 0.026819 0.397728
vt 0.725268 0.215081
vt 0.725268 0.215974
vt 0.035401 0.185641
vt 0.033037 0.186024
vt 0.565847 0.246298
vt 0.565847 0.240345
vt 0.591583 0.240345
vt 0.591583 0.244571
vt 0.620731 0.240345
vt 0.620731 0.243715
vt 0.143988 0.352421
vt 0.118535 0.356623
vt 0.090434 0.364422
vt 0.118517 0.287955
vt 0.143985 0.295245
vt 0.090294 0.276405
vt 0.566025 0.263896
vt 0.566075 0.257967
vt 0.592481 0.259724
vt 0.592482 0.263896
vt 0.622987 0.260555
vt 0.622987 0.263896
vt 0.160415 0.260284
vt 0.160415 0.273551
vt 0.160415 0.236764
vt 0.160415 0.248306
vt 0.160415 0.286061
vt 0.552771 0.286705
vt 0.550825 0.277502
vt 0.549923 0.224286
vt 0.551856 0.215082
vt 0.551141 0.263896
vt 0.550380 0.255891
vt 0.159700 0.306376
vt 0.159700 0.297331
vt 0.159700 0.340158
vt 0.159700 0.351699
vt 0.550256 0.248358
vt 0.551023 0.240345
vt 0.159700 0.316886
vt 0.159700 0.328199
vt 0.043873 0.200994
vt 0.047252 0.197979
vt 0.050625 0.194963
vt 0.054001 0.191931
vt 0.040488 0.204009
vt 0.698269 0.263896
vt 0.692434 0.240345
vt 0.387720 0.332381
vt 0.381220 0.343250
vt 0.370323 0.351202
vt 0.361913 0.352026
vt 0.354208 0.347603
vt 0.353545 0.350896
vt 0.345183 0.340347
vt 0.343025 0.342543
vt 0.339721 0.330286
vt 0.336887 0.331429
vt 0.338293 0.320055
vt 0.335194 0.319996
vt 0.340119 0.309895
vt 0.337330 0.308647
vt 0.354551 0.343900
vt 0.368631 0.341493
vt 0.347173 0.338100
vt 0.375968 0.304978
vt 0.377975 0.302987
vt 0.342332 0.329132
vt 0.341042 0.320107
vt 0.362080 0.342834
vt 0.342685 0.311145
vt 0.617493 0.177507
vt 0.617493 0.180954
vt 0.564066 0.180954
vt 0.564066 0.177507
vt 0.616881 0.191575
vt 0.616881 0.194727
vt 0.563547 0.194727
vt 0.563547 0.191575
vt 0.531569 0.180954
vt 0.520337 0.180954
vt 0.520337 0.177507
vt 0.531569 0.177507
vt 0.519935 0.191575
vt 0.530820 0.191575
vt 0.530820 0.194727
vt 0.519935 0.194727
vt 0.827888 0.260199
vt 0.775581 0.258936
vt 0.828747 0.180724
vt 0.828746 0.188766
vt 0.776393 0.188656
vt 0.776400 0.181288
vt 0.828702 0.170415
vt 0.776383 0.171515
vt 0.546281 0.180954
vt 0.546281 0.177507
vt 0.545809 0.191575
vt 0.545809 0.194727
vt 0.745248 0.249908
vt 0.736929 0.241877
vt 0.758460 0.255607
vt 0.746039 0.181377
vt 0.759257 0.174684
vt 0.737713 0.188575
vt 0.369056 0.222504
vt 0.380336 0.222504
vt 0.378954 0.234651
vt 0.368445 0.234651
vt 0.370420 0.211108
vt 0.382927 0.211108
vt 0.368445 0.256429
vt 0.378954 0.256429
vt 0.378954 0.268576
vt 0.368445 0.268576
vt 0.368445 0.245540
vt 0.378954 0.245540
vt 0.378954 0.281647
vt 0.368445 0.281647
vt 0.387998 0.245540
vt 0.387998 0.256429
vt 0.174265 0.208685
vt 0.174265 0.212518
vt 0.164392 0.212518
vt 0.164392 0.208685
vt 0.387998 0.268576
vt 0.185339 0.208685
vt 0.185339 0.212518
vt 0.775584 0.233775
vt 0.827932 0.233721
vt 0.382927 0.201703
vt 0.387998 0.201703
vt 0.387998 0.211108
vt 0.154518 0.208685
vt 0.154518 0.212518
vt 0.143445 0.212518
vt 0.143445 0.208685
vt 0.685019 0.287608
vt 0.666979 0.288009
vt 0.700098 0.213827
vt 0.719609 0.214198
vt 0.565005 0.209729
vt 0.598961 0.211245
vt 0.632856 0.212412
vt 0.669255 0.213090
vt 0.590189 0.290651
vt 0.565825 0.292093
vt 0.617198 0.289479
vt 0.643084 0.286705
vt 0.643084 0.288793
vt 0.181422 0.271670
vt 0.211347 0.261096
vt 0.213478 0.271797
vt 0.181424 0.283117
vt 0.239742 0.245537
vt 0.243021 0.255133
vt 0.265083 0.223695
vt 0.269179 0.229806
vt 0.682106 0.266273
vt 0.651961 0.266700
vt 0.269718 0.283277
vt 0.261998 0.262433
vt 0.287548 0.246470
vt 0.300054 0.272819
vt 0.240893 0.329716
vt 0.274108 0.331428
vt 0.270155 0.354663
vt 0.239513 0.347812
vt 0.209595 0.328548
vt 0.209167 0.342667
vt 0.182737 0.328140
vt 0.182735 0.340021
vt 0.343913 0.320160
vt 0.345268 0.312236
vt 0.347845 0.302387
vt 0.345944 0.300065
vt 0.344955 0.328140
vt 0.355499 0.296853
vt 0.354554 0.293853
vt 0.363091 0.292177
vt 0.349180 0.336127
vt 0.356431 0.299516
vt 0.387998 0.234651
vt 0.387998 0.281647
vt 0.387998 0.222504
vt 0.301197 0.237517
vt 0.314669 0.266845
vt 0.306153 0.302147
vt 0.321897 0.299994
vt 0.182738 0.316261
vt 0.209595 0.314592
vt 0.298582 0.363259
vt 0.286744 0.389327
vt 0.262635 0.375523
vt 0.649466 0.237467
vt 0.677243 0.237769
vt 0.273752 0.306824
vt 0.305545 0.334480
vt 0.321575 0.336019
vt 0.313817 0.368414
vt 0.239505 0.292502
vt 0.240855 0.311165
vt 0.233234 0.226931
vt 0.256887 0.211475
vt 0.260985 0.217585
vt 0.236488 0.236234
vt 0.207090 0.238472
vt 0.209218 0.250293
vt 0.181417 0.247188
vt 0.181420 0.259512
vt 0.690107 0.287598
vt 0.209178 0.300708
vt 0.345178 0.268576
vt 0.357134 0.268576
vt 0.357134 0.281647
vt 0.345178 0.281647
vt 0.345178 0.234651
vt 0.357134 0.234651
vt 0.357134 0.245540
vt 0.345178 0.245540
vt 0.357134 0.256429
vt 0.345178 0.256429
vt 0.286811 0.183047
vt 0.286522 0.180559
vt 0.291625 0.180646
vt 0.289706 0.183381
vt 0.345180 0.211108
vt 0.357155 0.211108
vt 0.357135 0.222504
vt 0.345178 0.222504
vt 0.333639 0.222504
vt 0.333639 0.234651
vt 0.333639 0.211108
vt 0.333639 0.256429
vt 0.333639 0.268576
vt 0.333639 0.245540
vt 0.333639 0.281647
vt 0.181415 0.234292
vt 0.204962 0.227874
vt 0.229980 0.217629
vt 0.252788 0.205365
vt 0.182738 0.305174
vt 0.299901 0.397348
vt 0.725268 0.214188
vt 0.293513 0.185994
vt 0.291149 0.185611
vt 0.565847 0.234391
vt 0.591583 0.236119
vt 0.620731 0.236975
vt 0.208184 0.356242
vt 0.182731 0.352040
vt 0.236285 0.364041
vt 0.182734 0.294864
vt 0.208202 0.287573
vt 0.236426 0.276024
vt 0.592481 0.268068
vt 0.566075 0.269825
vt 0.622987 0.267237
vt 0.166131 0.260255
vt 0.166131 0.273523
vt 0.166131 0.236734
vt 0.166131 0.248277
vt 0.166131 0.286032
vt 0.550825 0.295908
vt 0.549923 0.205877
vt 0.550380 0.271901
vt 0.167019 0.305995
vt 0.167019 0.296949
vt 0.167019 0.339777
vt 0.167019 0.351318
vt 0.550256 0.232331
vt 0.167019 0.316505
vt 0.167019 0.327818
vt 0.279298 0.197949
vt 0.282676 0.200965
vt 0.272548 0.191901
vt 0.275925 0.194933
vt 0.286061 0.203979
vt 0.343867 0.297772
vt 0.353530 0.290892
vt 0.363150 0.289085
vt 0.371563 0.294187
vt 0.372702 0.291260
vt 0.379968 0.300738
vt 0.382140 0.298524
vt 0.385370 0.310826
vt 0.388208 0.309698
vt 0.386770 0.321022
vt 0.389857 0.321088
vt 0.355573 0.341284
vt 0.349775 0.304454
vt 0.423221 0.177508
vt 0.476626 0.177508
vt 0.476626 0.180954
vt 0.423221 0.180954
vt 0.423034 0.191542
vt 0.476344 0.191560
vt 0.476343 0.194712
vt 0.423033 0.194693
vt 0.509109 0.180954
vt 0.509109 0.177508
vt 0.509056 0.194723
vt 0.509057 0.191571
vt 0.775540 0.224727
vt 0.827844 0.223339
vt 0.828713 0.196808
vt 0.776369 0.196024
vt 0.828625 0.207116
vt 0.776311 0.205797
vt 0.494403 0.177508
vt 0.494403 0.180954
vt 0.494073 0.194718
vt 0.494074 0.191566
vt 0.745228 0.233827
vt 0.758428 0.228097
vt 0.759198 0.202556
vt 0.746009 0.195807
vt 0.469555 0.273118
vt 0.476588 0.266086
vt 0.487273 0.271180
vt 0.481859 0.281931
vt 0.482856 0.259818
vt 0.490503 0.261253
vt 0.497238 0.272425
vt 0.497238 0.285397
vt 0.497238 0.261542
vt 0.507202 0.271180
vt 0.512617 0.281932
vt 0.503973 0.261253
vt 0.517887 0.266086
vt 0.524920 0.273118
vt 0.511619 0.259818
vt 0.481421 0.252171
vt 0.490170 0.252504
vt 0.481132 0.245436
vt 0.490036 0.245436
vt 0.481421 0.238701
vt 0.490170 0.238368
vt 0.482856 0.231054
vt 0.490503 0.229620
vt 0.497238 0.252638
vt 0.497238 0.245436
vt 0.497238 0.238234
vt 0.497238 0.229330
vt 0.504305 0.252504
vt 0.504440 0.245436
vt 0.504305 0.238368
vt 0.503973 0.229620
vt 0.513054 0.252171
vt 0.513344 0.245436
vt 0.513054 0.238701
vt 0.511619 0.231054
vt 0.476588 0.224786
vt 0.487273 0.219692
vt 0.469556 0.217754
vt 0.481859 0.208941
vt 0.497238 0.218447
vt 0.497238 0.205476
vt 0.507202 0.219692
vt 0.512617 0.208941
vt 0.517888 0.224786
vt 0.524920 0.217754
vt 0.471494 0.235472
vt 0.460742 0.230057
vt 0.470249 0.245436
vt 0.457277 0.245436
vt 0.471494 0.255400
vt 0.460742 0.260815
vt 0.522982 0.255401
vt 0.533733 0.260815
vt 0.524227 0.245436
vt 0.537198 0.245436
vt 0.522982 0.235472
vt 0.533733 0.230057
vt 0.781480 0.103249
vt 0.781480 0.093769
vt 0.938565 0.093769
vt 0.938565 0.103249
vt 0.781480 0.113138
vt 0.938565 0.113138
vt 0.781480 0.162013
vt 0.781480 0.152837
vt 0.938565 0.152837
vt 0.938565 0.162013
vt 0.781480 0.016349
vt 0.781480 0.007173
vt 0.938565 0.007173
vt 0.938565 0.016349
vt 0.781480 0.056048
vt 0.781480 0.045883
vt 0.938565 0.045883
vt 0.938565 0.056048
vt 0.781480 0.084593
vt 0.938565 0.084593
vt 0.781480 0.143357
vt 0.781480 0.133468
vt 0.938565 0.133468
vt 0.938565 0.143357
vt 0.781480 0.075417
vt 0.938565 0.075417
vt 0.781480 0.123303
vt 0.938565 0.123303
vt 0.781480 0.035717
vt 0.938565 0.035717
vt 0.781480 0.065937
vt 0.938565 0.065937
vt 0.781480 0.025829
vt 0.938565 0.025829
vt 0.005901 0.056048
vt 0.005901 0.065937
vt 0.005901 0.123303
vt 0.005901 0.133468
vt 0.005901 0.016349
vt 0.005901 0.025829
vt 0.005901 0.035717
vt 0.005901 0.075417
vt 0.005901 0.045883
vt 0.005901 0.113138
vt 0.005901 0.143357
vt 0.005901 0.152837
vt 0.005901 0.084593
vt 0.005901 0.093769
vt 0.005901 0.007173
vt 0.005901 0.162013
vt 0.005901 0.103249
vt 0.427415 0.323390
vt 0.436326 0.323082
vt 0.432535 0.329878
vt 0.426813 0.334419
vt 0.403221 0.307549
vt 0.412131 0.307241
vt 0.411600 0.315429
vt 0.401969 0.315564
vt 0.419895 0.324054
vt 0.420063 0.336098
vt 0.407012 0.300753
vt 0.412734 0.296212
vt 0.427946 0.315201
vt 0.437578 0.315067
vt 0.419483 0.294533
vt 0.426277 0.296023
vt 0.427187 0.307031
vt 0.419651 0.306577
vt 0.436103 0.307090
vt 0.412359 0.323600
vt 0.413270 0.334608
vt 0.432124 0.300402
vt 0.993958 0.103249
vt 0.993958 0.113138
vt 0.993958 0.143357
vt 0.993958 0.152837
vt 0.993958 0.016349
vt 0.993958 0.025829
vt 0.403444 0.323541
vt 0.993958 0.056048
vt 0.993958 0.065937
vt 0.993958 0.035717
vt 0.993958 0.007173
vt 0.993958 0.162013
vt 0.993958 0.133468
vt 0.993958 0.045883
vt 0.419773 0.315316
vt 0.993958 0.123303
vt 0.993958 0.075417
vt 0.993958 0.084593
vt 0.993958 0.093769
vt 0.405287 0.332718
vt 0.400595 0.324925
vt 0.407423 0.330229
vt 0.398826 0.315608
vt 0.400335 0.306245
vt 0.439212 0.324386
vt 0.434740 0.332307
vt 0.440721 0.315023
vt 0.438951 0.305706
vt 0.428011 0.337588
vt 0.420111 0.339500
vt 0.412160 0.337809
vt 0.404807 0.298324
vt 0.434260 0.297913
vt 0.427387 0.292821
vt 0.411535 0.293043
vt 0.419436 0.291131
vt 0.643084 0.284617
vt 0.932558 0.233596
vt 0.880245 0.233658
vt 0.880143 0.221935
vt 0.932442 0.220526
vt 0.316412 0.177508
vt 0.369817 0.177508
vt 0.369817 0.180954
vt 0.316412 0.180954
vt 0.932577 0.241645
vt 0.880265 0.241707
vt 0.932577 0.249693
vt 0.932492 0.262763
vt 0.880190 0.261479
vt 0.880265 0.249756
vt 0.724346 0.177507
vt 0.724346 0.180954
vt 0.670919 0.180954
vt 0.670919 0.177507
vt 0.933236 0.209786
vt 0.880930 0.208449
vt 0.881026 0.197599
vt 0.933339 0.198390
vt 0.881063 0.188876
vt 0.933379 0.188986
vt 0.316415 0.191505
vt 0.369725 0.191523
vt 0.369724 0.194675
vt 0.316414 0.194656
vt 0.933323 0.168184
vt 0.933379 0.179581
vt 0.881063 0.180152
vt 0.881012 0.169302
vt 0.723549 0.191575
vt 0.723549 0.194727
vt 0.670215 0.194727
vt 0.670215 0.191575
vt 0.484940 0.331424
vt 0.486352 0.330256
vt 0.487470 0.331710
vt 0.485182 0.332886
vt 0.487420 0.328983
vt 0.489038 0.330140
vt 0.488280 0.327561
vt 0.490017 0.328149
vt 0.488928 0.325847
vt 0.490391 0.325605
vt 0.488446 0.333087
vt 0.485410 0.334259
vt 0.490398 0.331114
vt 0.491635 0.328629
vt 0.491765 0.325377
vt 0.489511 0.334792
vt 0.485713 0.336088
vt 0.492289 0.332466
vt 0.493593 0.329086
vt 0.493593 0.325074
vt 0.487761 0.324436
vt 0.489215 0.323317
vt 0.486488 0.323368
vt 0.487645 0.321750
vt 0.485066 0.322507
vt 0.485654 0.320770
vt 0.483353 0.321858
vt 0.483110 0.320396
vt 0.490592 0.322341
vt 0.488619 0.320389
vt 0.486134 0.319152
vt 0.482882 0.319022
vt 0.492297 0.321276
vt 0.489971 0.318498
vt 0.486591 0.317194
vt 0.482579 0.317194
vt 0.481941 0.323026
vt 0.480823 0.321572
vt 0.480873 0.324299
vt 0.479255 0.323142
vt 0.480012 0.325721
vt 0.478275 0.325133
vt 0.479364 0.327435
vt 0.477901 0.327677
vt 0.479846 0.320195
vt 0.477894 0.322168
vt 0.476657 0.324653
vt 0.476528 0.327905
vt 0.478781 0.318490
vt 0.476003 0.320816
vt 0.474699 0.324196
vt 0.474699 0.328208
vt 0.480531 0.328846
vt 0.479077 0.329965
vt 0.481804 0.329914
vt 0.480647 0.331532
vt 0.483226 0.330775
vt 0.482638 0.332512
vt 0.477700 0.330941
vt 0.479673 0.332893
vt 0.482158 0.334130
vt 0.475995 0.332006
vt 0.478321 0.334784
vt 0.481701 0.336088
vt 0.481560 0.327070
vt 0.482587 0.325526
vt 0.483717 0.324055
vt 0.483031 0.328200
vt 0.484146 0.326641
vt 0.485261 0.325082
vt 0.484575 0.329227
vt 0.485705 0.327756
vt 0.486733 0.326212
vt 0.479257 0.301677
vt 0.479874 0.303308
vt 0.478220 0.303868
vt 0.477864 0.301445
vt 0.480693 0.304662
vt 0.479153 0.305764
vt 0.481710 0.305874
vt 0.480646 0.307259
vt 0.483055 0.306986
vt 0.482824 0.308378
vt 0.476680 0.304325
vt 0.476556 0.301228
vt 0.477857 0.306691
vt 0.479716 0.308569
vt 0.482607 0.309686
vt 0.474815 0.304760
vt 0.474815 0.300940
vt 0.476057 0.307978
vt 0.478702 0.310193
vt 0.482318 0.311427
vt 0.484686 0.306368
vt 0.485247 0.308022
vt 0.486040 0.305549
vt 0.487142 0.307089
vt 0.487253 0.304532
vt 0.488637 0.305597
vt 0.488364 0.303188
vt 0.489756 0.303419
vt 0.485703 0.309563
vt 0.488069 0.308385
vt 0.489947 0.306526
vt 0.491064 0.303636
vt 0.486139 0.311427
vt 0.489357 0.310185
vt 0.491571 0.307541
vt 0.492805 0.303925
vt 0.487746 0.301556
vt 0.489400 0.300996
vt 0.486927 0.300202
vt 0.488468 0.299100
vt 0.485910 0.298990
vt 0.486975 0.297605
vt 0.484566 0.297878
vt 0.484797 0.296486
vt 0.490941 0.300539
vt 0.489763 0.298173
vt 0.487904 0.296295
vt 0.485014 0.295178
vt 0.492805 0.300104
vt 0.491563 0.296886
vt 0.488919 0.294671
vt 0.485303 0.293437
vt 0.482935 0.298496
vt 0.482374 0.296842
vt 0.481580 0.299315
vt 0.480478 0.297775
vt 0.480368 0.300332
vt 0.478984 0.299268
vt 0.481917 0.295302
vt 0.479552 0.296479
vt 0.477673 0.298338
vt 0.481482 0.293437
vt 0.478264 0.294679
vt 0.476049 0.297324
vt 0.484219 0.299969
vt 0.485294 0.301370
vt 0.486273 0.302841
vt 0.482749 0.300948
vt 0.483810 0.302432
vt 0.484872 0.303916
vt 0.481348 0.302023
vt 0.482326 0.303494
vt 0.483402 0.304895
vt 0.500489 0.329579
vt 0.500489 0.325565
vt 0.502447 0.326023
vt 0.502317 0.329275
vt 0.501793 0.322185
vt 0.503684 0.323537
vt 0.504571 0.319859
vt 0.505637 0.321564
vt 0.508369 0.318562
vt 0.508673 0.320391
vt 0.504065 0.326502
vt 0.503691 0.329047
vt 0.505045 0.324511
vt 0.506613 0.322941
vt 0.508901 0.321765
vt 0.505802 0.327091
vt 0.505154 0.328804
vt 0.506663 0.325669
vt 0.507731 0.324395
vt 0.509143 0.323228
vt 0.512383 0.318563
vt 0.511925 0.320521
vt 0.515763 0.319867
vt 0.514410 0.321758
vt 0.518089 0.322645
vt 0.516383 0.323710
vt 0.519385 0.326443
vt 0.517557 0.326747
vt 0.511446 0.322139
vt 0.513437 0.323119
vt 0.515007 0.324687
vt 0.516183 0.326975
vt 0.510857 0.323876
vt 0.512279 0.324737
vt 0.513553 0.325805
vt 0.514720 0.327217
vt 0.519385 0.330457
vt 0.517427 0.329999
vt 0.518081 0.333837
vt 0.516190 0.332484
vt 0.515303 0.336163
vt 0.514237 0.334457
vt 0.511505 0.337459
vt 0.511201 0.335631
vt 0.515809 0.329520
vt 0.514829 0.331511
vt 0.513261 0.333081
vt 0.510973 0.334257
vt 0.514071 0.328931
vt 0.513211 0.330353
vt 0.512143 0.331627
vt 0.510731 0.332794
vt 0.507491 0.337459
vt 0.507949 0.335501
vt 0.504111 0.336154
vt 0.505464 0.334264
vt 0.501785 0.333377
vt 0.503490 0.332311
vt 0.508428 0.333883
vt 0.506437 0.332903
vt 0.504867 0.331335
vt 0.509017 0.332145
vt 0.507595 0.331285
vt 0.506321 0.330217
vt 0.507350 0.328440
vt 0.508378 0.326896
vt 0.509508 0.325424
vt 0.508822 0.329570
vt 0.509937 0.328011
vt 0.511052 0.326452
vt 0.510366 0.330598
vt 0.511496 0.329126
vt 0.512524 0.327582
vt 0.517762 0.301469
vt 0.517762 0.305289
vt 0.515898 0.304853
vt 0.516021 0.301757
vt 0.516520 0.308506
vt 0.514721 0.307219
vt 0.513876 0.310721
vt 0.512862 0.309097
vt 0.510261 0.311954
vt 0.509972 0.310213
vt 0.514358 0.304397
vt 0.514714 0.301974
vt 0.513425 0.306292
vt 0.511933 0.307787
vt 0.509755 0.308906
vt 0.512704 0.303836
vt 0.513322 0.302205
vt 0.511885 0.305190
vt 0.510868 0.306403
vt 0.509524 0.307514
vt 0.506441 0.311954
vt 0.506876 0.310090
vt 0.503223 0.310712
vt 0.504511 0.308913
vt 0.501009 0.308068
vt 0.502632 0.307054
vt 0.499775 0.304453
vt 0.501516 0.304164
vt 0.507333 0.308550
vt 0.505437 0.307617
vt 0.503943 0.306125
vt 0.502824 0.303947
vt 0.507893 0.306896
vt 0.506539 0.306077
vt 0.505327 0.305060
vt 0.504216 0.303716
vt 0.499775 0.300633
vt 0.501639 0.301068
vt 0.501017 0.297415
vt 0.502817 0.298703
vt 0.503661 0.295201
vt 0.504675 0.296825
vt 0.507277 0.293967
vt 0.507565 0.295708
vt 0.503180 0.301525
vt 0.504112 0.299629
vt 0.505605 0.298135
vt 0.507782 0.297016
vt 0.504833 0.302085
vt 0.505652 0.300731
vt 0.506669 0.299519
vt 0.508013 0.298408
vt 0.511097 0.293967
vt 0.510661 0.295831
vt 0.514314 0.295209
vt 0.513027 0.297009
vt 0.516528 0.297853
vt 0.514905 0.298867
vt 0.510205 0.297372
vt 0.512100 0.298304
vt 0.513595 0.299797
vt 0.509644 0.299025
vt 0.510998 0.299844
vt 0.512210 0.300861
vt 0.511231 0.302552
vt 0.510252 0.304022
vt 0.509177 0.305423
vt 0.509830 0.301477
vt 0.508769 0.302961
vt 0.507707 0.304445
vt 0.508360 0.300498
vt 0.507285 0.301899
vt 0.506306 0.303369
s 1
f 98/1/1 94/2/2 16/3/2 20/4/1
f 99/5/3 98/1/1 20/4/1 21/6/4
f 100/7/5 95/8/6 13/9/6 14/10/5
f 101/11/7 100/7/5 14/10/5 15/12/7
f 94/2/2 101/11/7 15/12/7 16/3/2
f 95/8/6 105/13/8 17/14/8 13/9/6
f 15/12/7 14/10/5 50/15/9 51/16/10
f 4/17/11 3/18/11 8/19/11 9/20/11
f 14/10/5 13/9/6 49/21/12 50/15/9
f 5/22/11 4/17/11 9/20/11 10/23/11
f 469/24/13 465/25/14 178/26/15 189/27/16
f 22/28/17 21/6/4 56/29/18 57/30/19
f 2/31/11 1/32/11 6/33/11 7/34/11
f 3/18/11 2/31/11 7/34/11 8/19/11
f 140/35/20 142/36/21 85/37/22 23/38/23
f 141/39/24 143/40/25 96/41/26 24/42/26
f 128/43/27 126/44/28 35/45/29 27/46/30
f 27/46/30 35/45/29 34/47/31 28/48/32
f 28/48/32 34/47/31 33/49/33 29/50/34
f 127/51/35 125/52/36 32/53/37 25/54/38
f 25/54/38 32/53/37 31/55/39 26/56/40
f 131/57/41 128/58/42 27/59/43 102/60/44
f 102/60/44 27/59/43 28/61/45 103/62/46
f 103/62/46 28/61/45 29/63/47 104/64/48
f 39/65/49 70/66/50 58/67/51 147/68/51
f 124/69/52 63/70/53 58/71/54 70/72/55
f 114/73/56 117/74/57 118/75/58 115/76/59
f 113/77/60 116/78/61 117/74/57 114/73/56
f 136/79/62 134/80/63 116/78/61 113/77/60
f 42/81/64 43/82/65 152/83/66 151/84/64
f 149/85/67 150/86/67 158/87/67 315/88/67
f 41/89/68 42/81/64 151/84/64 150/86/69
f 153/90/67 149/85/67 315/88/67 314/91/67
f 156/92/67 153/90/67 314/91/67 313/93/67
f 40/94/70 41/89/68 150/86/69 149/85/71
f 47/95/72 48/96/73 157/97/73 155/98/74
f 16/3/2 15/12/7 51/16/10 52/99/75
f 13/9/6 17/14/8 53/100/76 49/21/12
f 20/4/1 16/3/2 52/99/75 55/101/77
f 21/6/4 20/4/1 55/101/77 56/29/18
f 63/70/78 62/102/79 59/103/80 58/71/80
f 106/104/81 97/105/82 62/102/79 63/70/78
f 133/106/83 136/79/62 113/77/60 119/107/84
f 118/75/58 112/108/85 61/109/86 90/110/87
f 112/111/88 107/112/89 148/113/90 61/114/90
f 121/115/91 115/76/59 78/116/92 106/104/93
f 90/110/94 93/117/95 79/118/96 78/116/97
f 123/119/98 120/120/99 121/115/91 124/69/52
f 87/121/100 75/122/101 76/123/102 88/124/103
f 86/125/104 74/126/105 75/122/101 87/121/100
f 130/127/106 129/128/107 74/126/105 86/125/104
f 23/38/23 85/37/22 72/129/108 73/130/108
f 122/131/109 119/107/84 120/120/99 123/119/98
f 92/132/6 89/133/8 77/134/8 68/135/6
f 91/136/2 83/137/7 69/138/7 65/139/2
f 83/137/7 82/140/5 67/141/5 69/138/7
f 168/142/110 169/143/111 72/144/112 85/145/113
f 82/140/5 92/132/6 68/135/6 67/141/5
f 81/146/3 80/147/1 64/148/1 66/149/3
f 80/147/1 91/136/2 65/139/2 64/148/1
f 10/150/114 9/151/2 91/136/2 80/147/1
f 11/152/115 10/150/114 80/147/1 81/146/3
f 7/153/5 6/154/116 92/132/6 82/140/5
f 8/155/7 7/153/5 82/140/5 83/137/7
f 9/151/2 8/155/7 83/137/7 91/136/2
f 6/154/116 37/156/117 89/133/8 92/132/6
f 125/157/118 130/127/106 86/125/104 32/158/119
f 32/158/119 86/125/104 87/121/100 31/159/120
f 31/159/120 87/121/100 88/124/103 30/160/121
f 132/161/122 133/106/83 119/107/84 122/131/109
f 61/109/123 60/162/123 93/117/95 90/110/94
f 115/76/59 118/75/58 90/110/87 78/116/92
f 124/69/52 121/115/91 106/104/93 63/70/53
f 78/116/97 79/118/96 97/105/82 106/104/81
f 75/122/101 103/62/46 104/64/48 76/123/102
f 74/126/105 102/60/44 103/62/46 75/122/101
f 129/128/107 131/57/41 102/60/44 74/126/105
f 73/163/124 72/164/124 24/42/124 96/41/124
f 68/135/6 77/134/8 105/13/8 95/8/6
f 65/139/2 69/138/7 101/11/7 94/2/2
f 69/138/7 67/141/5 100/7/5 101/11/7
f 169/143/111 170/165/125 24/166/126 72/144/112
f 67/141/5 68/135/6 95/8/6 100/7/5
f 66/149/3 64/148/1 98/1/1 99/5/3
f 64/148/1 65/139/2 94/2/2 98/1/1
f 119/107/84 113/77/60 114/73/56 120/120/99
f 120/120/99 114/73/56 115/76/59 121/115/91
f 138/167/127 137/168/128 109/169/129 110/170/130
f 110/170/130 109/169/129 108/171/131 111/172/132
f 111/172/132 108/171/131 107/112/89 112/111/88
f 134/80/63 138/173/133 110/174/134 116/78/61
f 116/78/61 110/174/134 111/175/135 117/74/57
f 117/74/57 111/175/135 112/108/85 118/75/58
f 132/161/122 122/131/109 84/176/136 139/177/137
f 122/131/109 123/119/98 71/178/138 84/176/136
f 123/119/98 124/69/52 70/72/55 71/178/138
f 135/179/139 139/180/140 84/181/141 18/182/142
f 18/182/142 84/181/141 71/183/143 19/184/144
f 19/184/144 71/183/143 70/66/50 39/65/49
f 66/185/145 99/186/146 131/57/41 129/128/107
f 11/187/147 81/188/148 130/127/106 125/157/118
f 81/188/148 66/185/145 129/128/107 130/127/106
f 99/186/146 21/189/149 128/58/42 131/57/41
f 12/190/150 11/191/151 125/52/36 127/51/35
f 21/192/152 22/193/153 126/44/28 128/43/27
f 54/194/154 53/195/155 139/180/140 135/179/139
f 17/196/156 132/161/122 139/177/137 53/197/157
f 89/198/158 37/199/159 138/173/133 134/80/63
f 37/200/160 36/201/161 137/168/128 138/167/127
f 17/196/156 105/202/162 133/106/83 132/161/122
f 105/202/162 77/203/163 136/79/62 133/106/83
f 77/203/163 89/198/158 134/80/63 136/79/62
f 76/123/102 104/64/48 146/204/164 144/205/165
f 30/160/121 88/124/103 145/206/166 142/207/167
f 88/124/103 76/123/102 144/205/165 145/206/166
f 29/50/34 33/49/33 143/40/25 141/39/24
f 104/64/48 29/63/47 141/208/168 146/204/164
f 147/68/169 58/67/169 59/209/169
f 61/114/170 148/113/170 60/210/170
f 315/88/171 158/87/172 50/211/9 49/212/12
f 314/91/173 315/88/171 49/212/12 53/213/76
f 313/93/174 314/91/173 53/213/76 54/214/174
f 312/215/175 313/93/174 54/214/174 227/216/176
f 311/217/177 312/215/175 227/216/176 223/218/178
f 310/219/179 311/217/177 223/218/178 224/220/180
f 309/221/181 310/219/179 224/220/180 225/222/182
f 166/223/183 309/221/181 225/222/182 226/224/184
f 306/225/67 156/92/67 313/93/67 312/215/67
f 44/226/185 40/94/70 149/85/71 153/90/186
f 302/227/67 306/225/67 312/215/67 311/217/67
f 43/82/65 46/228/187 154/229/188 152/83/66
f 303/230/67 302/227/67 311/217/67 310/219/67
f 46/228/187 47/95/72 155/98/74 154/229/188
f 304/231/67 303/230/67 310/219/67 309/221/67
f 45/232/189 44/226/185 153/90/186 156/92/189
f 305/233/67 304/231/67 309/221/67 166/223/67
f 142/207/167 145/206/166 168/142/110 85/145/113
f 146/204/164 141/208/168 24/166/126 170/165/125
f 145/206/166 144/205/165 169/143/111 168/142/110
f 144/205/165 146/204/164 170/165/125 169/143/111
f 470/234/190 466/235/190 181/236/191 188/237/192
f 483/238/193 485/239/193 186/240/194 183/241/195
f 171/242/196 173/243/197 180/244/197 179/245/198
f 174/246/199 184/247/200 175/248/201 177/249/199
f 465/25/14 470/250/202 188/251/203 178/26/15
f 479/252/204 481/253/205 172/254/206 176/255/207
f 485/256/208 479/252/204 176/255/207 186/257/209
f 188/237/192 181/236/191 182/258/210 190/259/211
f 190/259/211 182/258/210 171/242/196 179/245/198
f 175/248/201 184/247/200 185/260/212 187/261/213
f 187/261/213 185/260/212 183/241/195 186/240/194
f 189/27/16 178/26/15 179/262/214 180/263/215
f 178/26/15 188/251/203 190/264/216 179/262/214
f 186/257/209 176/255/207 175/265/217 187/266/218
f 176/255/207 172/254/206 177/267/219 175/265/217
f 262/268/220 206/269/220 204/270/221 260/271/221
f 263/272/222 207/273/223 206/269/220 262/268/220
f 264/274/224 202/275/224 201/276/225 261/277/225
f 265/278/226 203/279/226 202/275/224 264/274/224
f 260/271/221 204/270/221 203/279/226 265/278/226
f 261/277/225 201/276/225 205/280/227 269/281/227
f 203/279/226 225/282/182 224/283/180 202/275/224
f 193/284/11 198/285/11 197/286/11 192/287/11
f 202/275/224 224/283/180 223/288/178 201/276/225
f 194/289/11 199/290/11 198/285/11 193/284/11
f 469/24/13 189/27/16 322/291/228 473/292/229
f 22/293/17 57/294/19 229/295/230 207/273/223
f 191/296/11 196/297/11 195/298/11 167/299/11
f 192/287/11 197/286/11 196/297/11 191/296/11
f 140/35/20 23/38/23 252/300/231 298/301/232
f 297/302/24 208/303/26 96/41/26 143/40/25
f 287/304/233 209/305/30 35/45/29 126/44/28
f 209/305/30 210/306/32 34/47/31 35/45/29
f 210/306/32 211/307/34 33/49/33 34/47/31
f 127/51/35 25/54/38 214/308/37 286/309/234
f 25/54/38 26/56/40 213/310/39 214/308/37
f 26/56/40 463/311/235 212/312/236 213/310/39
f 290/313/237 266/314/238 209/315/239 287/316/240
f 266/314/238 267/317/241 210/318/242 209/315/239
f 267/317/241 268/319/243 211/320/244 210/318/242
f 39/65/49 147/68/51 230/321/51 239/322/50
f 285/323/245 239/324/246 230/325/247 232/326/248
f 275/327/249 276/328/250 279/329/251 278/330/252
f 274/331/253 275/327/249 278/330/252 277/332/254
f 294/333/255 274/331/253 277/332/254 293/334/256
f 218/335/257 304/231/257 305/233/258 219/336/259
f 307/337/67 305/233/67 166/223/67 165/338/67
f 217/339/260 303/230/261 304/231/257 218/335/257
f 308/340/262 307/337/67 165/338/67 164/341/262
f 157/97/262 308/340/262 164/341/262 163/342/262
f 216/343/263 302/227/264 303/230/261 217/339/260
f 222/344/265 308/340/266 157/97/73 48/96/73
f 204/270/221 226/345/184 225/282/182 203/279/226
f 201/276/225 223/288/178 227/346/176 205/280/227
f 206/269/220 228/347/267 226/345/184 204/270/221
f 207/273/223 229/295/230 228/347/267 206/269/220
f 232/326/268 230/325/269 59/348/269 62/349/270
f 270/350/271 232/326/268 62/349/270 97/351/272
f 292/352/273 280/353/274 274/331/253 294/333/255
f 279/329/251 257/354/275 231/355/276 273/356/277
f 273/357/88 231/358/90 148/113/90 107/112/89
f 282/359/278 270/350/279 246/360/280 276/328/250
f 257/354/281 246/360/282 79/361/283 93/362/284
f 284/363/285 285/323/245 282/359/278 281/364/286
f 254/365/287 255/366/288 244/367/289 243/368/290
f 253/369/291 254/365/287 243/368/290 242/370/292
f 289/371/293 253/369/291 242/370/292 288/372/294
f 23/38/23 73/130/108 241/373/108 252/300/231
f 283/374/295 284/363/285 281/364/286 280/353/274
f 259/375/225 237/376/225 245/377/227 256/378/227
f 258/379/221 234/380/221 238/381/226 250/382/226
f 250/382/226 238/381/226 236/383/224 249/384/224
f 316/385/296 252/386/297 241/387/298 317/388/299
f 249/384/224 236/383/224 237/376/225 259/375/225
f 248/389/222 235/390/222 233/391/220 247/392/220
f 247/392/220 233/391/220 234/380/221 258/379/221
f 199/393/300 247/392/220 258/379/221 198/394/221
f 200/395/301 248/389/222 247/392/220 199/393/300
f 196/396/224 249/384/224 259/375/225 195/397/302
f 197/398/226 250/382/226 249/384/224 196/396/224
f 198/394/221 258/379/221 250/382/226 197/398/226
f 195/397/302 259/375/225 256/378/227 215/399/303
f 286/400/304 214/401/305 253/369/291 289/371/293
f 214/401/305 213/402/306 254/365/287 253/369/291
f 213/402/306 212/403/307 255/366/288 254/365/287
f 291/404/308 283/374/295 280/353/274 292/352/273
f 231/355/309 257/354/281 93/362/284 60/405/309
f 276/328/250 246/360/280 257/354/275 279/329/251
f 285/323/245 232/326/248 270/350/279 282/359/278
f 246/360/282 270/350/271 97/351/272 79/361/283
f 243/368/290 244/367/289 268/319/243 267/317/241
f 242/370/292 243/368/290 267/317/241 266/314/238
f 288/372/294 242/370/292 266/314/238 290/313/237
f 73/163/124 96/41/124 208/303/310 241/406/310
f 237/376/225 261/277/225 269/281/227 245/377/227
f 234/380/221 260/271/221 265/278/226 238/381/226
f 238/381/226 265/278/226 264/274/224 236/383/224
f 317/388/299 241/387/298 208/407/311 318/408/312
f 236/383/224 264/274/224 261/277/225 237/376/225
f 235/390/222 263/272/222 262/268/220 233/391/220
f 233/391/220 262/268/220 260/271/221 234/380/221
f 280/353/274 281/364/286 275/327/249 274/331/253
f 281/364/286 282/359/278 276/328/250 275/327/249
f 295/409/313 271/410/130 109/169/129 137/168/128
f 271/410/130 272/411/132 108/171/131 109/169/129
f 272/411/132 273/357/88 107/112/89 108/171/131
f 293/334/256 277/332/254 271/412/314 295/413/315
f 277/332/254 278/330/252 272/414/316 271/412/314
f 278/330/252 279/329/251 273/356/277 272/414/316
f 291/404/308 296/415/317 251/416/318 283/374/295
f 283/374/295 251/416/318 240/417/319 284/363/285
f 284/363/285 240/417/319 239/324/246 285/323/245
f 135/179/139 18/182/142 251/418/320 296/419/321
f 18/182/142 19/184/144 240/420/143 251/418/320
f 19/184/144 39/65/49 239/322/50 240/420/143
f 235/421/322 288/372/294 290/313/237 263/422/323
f 200/423/324 286/400/304 289/371/293 248/424/325
f 248/424/325 289/371/293 288/372/294 235/421/322
f 263/422/323 290/313/237 287/316/240 207/425/326
f 12/190/150 127/51/35 286/309/234 200/426/327
f 207/427/328 287/304/233 126/44/28 22/193/153
f 54/194/154 135/179/139 296/419/321 227/428/329
f 205/429/330 227/430/331 296/415/317 291/404/308
f 256/431/332 293/334/256 295/413/315 215/432/333
f 215/433/334 295/409/313 137/168/128 36/201/161
f 205/429/330 291/404/308 292/352/273 269/434/335
f 269/434/335 292/352/273 294/333/255 245/435/336
f 245/435/336 294/333/255 293/334/256 256/431/332
f 244/367/289 299/436/337 301/437/338 268/319/243
f 212/403/307 298/438/339 300/439/340 255/366/288
f 255/366/288 300/439/340 299/436/337 244/367/289
f 211/307/34 297/302/24 143/40/25 33/49/33
f 463/311/235 140/35/20 298/301/232 212/312/236
f 268/319/243 301/437/338 297/440/341 211/320/244
f 147/68/169 59/209/169 230/321/169
f 231/358/170 60/210/170 148/113/170
f 165/338/342 166/223/183 226/224/184 228/441/267
f 164/341/343 165/338/342 228/441/267 229/442/230
f 163/342/344 164/341/343 229/442/230 57/443/19
f 162/444/345 163/342/344 57/443/19 56/445/18
f 161/446/346 162/444/345 56/445/18 55/447/77
f 160/448/347 161/446/346 55/447/77 52/449/75
f 159/450/348 160/448/347 52/449/75 51/451/10
f 158/87/172 159/450/348 51/451/10 50/211/9
f 155/98/262 157/97/262 163/342/262 162/444/262
f 220/452/349 306/225/350 302/227/264 216/343/263
f 154/229/67 155/98/262 162/444/262 161/446/67
f 219/336/259 305/233/258 307/337/351 221/453/352
f 152/83/67 154/229/67 161/446/67 160/448/67
f 221/453/352 307/337/351 308/340/266 222/344/265
f 151/84/67 152/83/67 160/448/67 159/450/67
f 45/232/189 156/92/189 306/225/350 220/452/349
f 150/86/67 151/84/67 159/450/67 158/87/67
f 298/438/339 252/386/297 316/385/296 300/439/340
f 301/437/338 318/408/312 208/407/311 297/440/341
f 300/439/340 316/385/296 317/388/299 299/436/337
f 299/436/337 317/388/299 318/408/312 301/437/338
f 476/454/353 331/455/354 324/456/355 474/457/353
f 489/458/356 326/459/357 329/460/358 491/461/356
f 319/462/359 323/463/360 180/244/361 173/243/361
f 174/246/362 177/249/362 320/464/363 327/465/364
f 473/292/229 322/291/228 331/466/365 476/467/366
f 487/468/367 321/469/368 172/254/206 481/253/205
f 491/470/369 329/471/370 321/469/368 487/468/367
f 331/455/354 332/472/371 325/473/372 324/456/355
f 332/472/371 323/463/360 319/462/359 325/473/372
f 320/464/363 330/474/373 328/475/374 327/465/364
f 330/474/373 329/460/358 326/459/357 328/475/374
f 189/27/16 180/263/215 323/476/375 322/291/228
f 322/291/228 323/476/375 332/477/376 331/466/365
f 329/471/370 330/478/377 320/479/378 321/469/368
f 321/469/368 320/479/378 177/267/219 172/254/206
f 333/480/379 334/481/380 336/482/381 335/483/382
f 334/481/380 341/484/383 345/485/384 336/482/381
f 335/483/382 336/482/381 338/486/385 337/487/386
f 336/482/381 345/485/384 349/488/387 338/486/385
f 337/487/386 338/486/385 340/489/388 339/490/389
f 338/486/385 349/488/387 353/491/390 340/489/388
f 339/490/389 340/489/388 376/492/391 375/493/392
f 340/489/388 353/491/390 377/494/393 376/492/391
f 341/484/383 342/495/394 346/496/395 345/485/384
f 342/495/394 343/497/396 347/498/397 346/496/395
f 343/497/396 344/499/398 348/500/399 347/498/397
f 344/499/398 357/501/400 360/502/401 348/500/399
f 345/485/384 346/496/395 350/503/402 349/488/387
f 346/496/395 347/498/397 351/504/403 350/503/402
f 347/498/397 348/500/399 352/505/404 351/504/403
f 348/500/399 360/502/401 363/506/405 352/505/404
f 349/488/387 350/503/402 354/507/406 353/491/390
f 350/503/402 351/504/403 355/508/407 354/507/406
f 351/504/403 352/505/404 356/509/408 355/508/407
f 352/505/404 363/506/405 366/510/409 356/509/408
f 353/491/390 354/507/406 380/511/410 377/494/393
f 354/507/406 355/508/407 383/512/411 380/511/410
f 355/508/407 356/509/408 386/513/412 383/512/411
f 356/509/408 366/510/409 389/514/413 386/513/412
f 357/501/400 358/515/414 361/516/415 360/502/401
f 358/515/414 359/517/416 362/518/417 361/516/415
f 360/502/401 361/516/415 364/519/418 363/506/405
f 361/516/415 362/518/417 365/520/419 364/519/418
f 363/506/405 364/519/418 367/521/420 366/510/409
f 364/519/418 365/520/419 368/522/421 367/521/420
f 366/510/409 367/521/420 388/523/422 389/514/413
f 367/521/420 368/522/421 387/524/423 388/523/422
f 359/517/416 358/515/414 370/525/424 369/526/425
f 358/515/414 357/501/400 344/499/398 370/525/424
f 369/526/425 370/525/424 372/527/426 371/528/427
f 370/525/424 344/499/398 343/497/396 372/527/426
f 371/528/427 372/527/426 374/529/428 373/530/429
f 372/527/426 343/497/396 342/495/394 374/529/428
f 373/530/429 374/529/428 334/481/380 333/480/379
f 374/529/428 342/495/394 341/484/383 334/481/380
f 375/493/392 376/492/391 379/531/430 378/532/431
f 376/492/391 377/494/393 380/511/410 379/531/430
f 378/532/431 379/531/430 382/533/432 381/534/433
f 379/531/430 380/511/410 383/512/411 382/533/432
f 381/534/433 382/533/432 385/535/434 384/536/435
f 382/533/432 383/512/411 386/513/412 385/535/434
f 384/536/435 385/535/434 388/523/422 387/524/423
f 385/535/434 386/513/412 389/514/413 388/523/422
f 406/537/436 407/538/437 398/539/438 394/540/439
f 408/541/440 406/537/436 394/540/439 395/542/441
f 409/543/442 410/544/443 404/545/444 403/546/445
f 411/547/446 409/548/442 403/549/445 402/550/447
f 412/551/448 413/552/449 392/553/450 391/554/451
f 407/538/437 414/555/452 399/556/453 398/539/438
f 415/557/454 416/558/455 397/559/456 405/560/457
f 414/555/452 417/561/458 400/562/459 399/556/453
f 410/544/443 415/557/454 405/560/457 404/545/444
f 418/563/460 408/541/440 395/542/441 396/564/461
f 413/552/449 419/565/462 393/566/463 392/553/450
f 417/561/458 420/567/464 390/568/465 400/562/459
f 419/565/462 421/569/466 401/570/467 393/566/463
f 421/569/466 411/547/446 402/550/447 401/570/467
f 416/558/455 418/563/460 396/564/461 397/559/456
f 420/567/464 412/551/448 391/554/451 390/568/465
f 335/571/382 412/551/448 420/567/464 333/572/379
f 365/573/419 418/563/460 416/558/455 368/574/421
f 378/575/431 411/547/446 421/569/466 375/576/392
f 375/576/392 421/569/466 419/565/462 339/577/389
f 333/572/379 420/567/464 417/561/458 373/578/429
f 339/577/389 419/565/462 413/552/449 337/579/386
f 362/580/417 408/541/440 418/563/460 365/573/419
f 387/581/423 415/557/454 410/544/443 384/582/435
f 373/578/429 417/561/458 414/555/452 371/583/427
f 368/574/421 416/558/455 415/557/454 387/581/423
f 371/583/427 414/555/452 407/538/437 369/584/425
f 337/579/386 413/552/449 412/551/448 335/571/382
f 381/585/433 409/548/442 411/547/446 378/575/431
f 384/582/435 410/544/443 409/543/442 381/586/433
f 359/587/416 406/537/436 408/541/440 362/580/417
f 369/584/425 407/538/437 406/537/436 359/587/416
f 430/588/67 441/589/468 440/590/469 448/591/470
f 438/592/471 422/593/67 423/594/67 436/595/472
f 427/596/67 430/588/67 448/591/470 449/597/473
f 454/598/474 455/599/475 422/593/67 438/592/471
f 429/600/67 443/601/476 441/589/468 430/588/67
f 458/602/477 459/603/478 428/604/67 425/605/67
f 428/604/67 445/606/479 443/601/476 429/600/67
f 424/607/67 427/596/67 449/597/473 452/608/480
f 459/603/478 461/609/481 445/606/479 428/604/67
f 455/599/475 458/602/477 425/605/67 422/593/67
f 395/542/441 394/540/439 439/610/482 442/611/483
f 404/545/444 405/560/457 462/612/484 460/613/485
f 401/570/467 402/550/447 456/614/486 453/615/487
f 436/595/472 423/594/67 424/607/67 434/616/488
f 390/568/465 391/554/451 433/617/489 432/618/490
f 393/566/463 401/570/467 453/615/487 437/619/491
f 402/550/447 403/549/445 457/620/492 456/614/486
f 403/546/445 404/545/444 460/613/485 457/621/492
f 405/560/457 397/559/456 446/622/493 462/612/484
f 392/553/450 393/566/463 437/619/491 435/623/494
f 422/593/67 425/605/67 426/624/67 423/594/67
f 425/605/67 428/604/67 429/600/67 426/624/67
f 397/559/456 396/564/461 444/625/495 446/622/493
f 391/554/451 392/553/450 435/623/494 433/617/489
f 423/594/67 426/624/67 427/596/67 424/607/67
f 426/624/67 429/600/67 430/588/67 427/596/67
f 396/564/461 395/542/441 442/611/483 444/625/495
f 400/562/459 390/568/465 432/618/490 451/626/496
f 399/556/453 400/562/459 451/626/496 450/627/497
f 398/539/438 399/556/453 450/627/497 447/628/498
f 394/540/439 398/539/438 447/628/498 439/610/482
f 432/629/499 433/630/500 434/616/488 431/631/501
f 433/630/500 435/632/502 436/595/472 434/616/488
f 435/632/502 437/633/503 438/592/471 436/595/472
f 440/590/469 441/589/468 442/634/504 439/635/505
f 441/589/468 443/601/476 444/636/506 442/634/504
f 443/601/476 445/606/479 446/637/507 444/636/506
f 439/635/505 447/638/508 448/591/470 440/590/469
f 450/639/509 451/640/510 452/608/480 449/597/473
f 437/633/503 453/641/511 454/598/474 438/592/471
f 445/606/479 461/609/481 462/642/512 446/637/507
f 460/643/513 462/642/512 461/609/481 459/603/478
f 456/644/514 457/645/515 458/602/477 455/599/475
f 447/638/508 450/639/509 449/597/473 448/591/470
f 453/641/511 456/644/514 455/599/475 454/598/474
f 457/645/515 460/643/513 459/603/478 458/602/477
f 431/631/501 452/608/480 451/640/510 432/629/499
f 434/616/488 424/607/67 452/608/480 431/631/501
f 30/646/516 142/36/21 140/35/20 463/311/235
f 31/55/39 30/646/516 463/311/235 26/56/40
f 215/647/303 472/648/517 477/649/518 195/650/302
f 472/648/517 473/292/229 476/467/366 477/649/518
f 195/651/353 477/652/353 475/653/353 167/654/353
f 477/652/353 476/454/353 474/457/353 475/653/353
f 36/655/13 468/656/13 472/648/517 215/647/303
f 468/656/13 469/24/13 473/292/229 472/648/517
f 37/657/117 6/658/116 471/659/519 464/660/520
f 464/660/520 471/659/519 470/250/202 465/25/14
f 6/661/190 1/662/190 467/663/190 471/664/190
f 471/664/190 467/663/190 466/235/190 470/234/190
f 36/655/13 37/657/117 464/660/520 468/656/13
f 468/656/13 464/660/520 465/25/14 469/24/13
f 199/665/300 490/666/521 486/667/522 200/668/301
f 490/666/521 491/470/369 487/468/367 486/667/522
f 200/668/301 486/667/522 480/669/205 12/670/205
f 486/667/522 487/468/367 481/253/205 480/669/205
f 194/671/356 488/672/356 490/673/356 199/674/356
f 488/672/356 489/458/356 491/461/356 490/673/356
f 10/675/114 11/676/115 478/677/523 484/678/524
f 484/678/524 478/677/523 479/252/204 485/256/208
f 11/676/115 12/670/205 480/669/205 478/677/523
f 478/677/523 480/669/205 481/253/205 479/252/204
f 5/679/193 10/680/193 484/681/193 482/682/193
f 482/682/193 484/681/193 485/239/193 483/238/193
f 492/683/525 493/684/526 497/685/527 496/686/528
f 493/684/526 494/687/529 498/688/530 497/685/527
f 494/687/529 495/689/531 499/690/532 498/688/530
f 495/689/531 508/691/533 512/692/534 499/690/532
f 496/686/528 497/685/527 501/693/535 500/694/536
f 497/685/527 498/688/530 502/695/226 501/693/535
f 498/688/530 499/690/532 503/696/537 502/695/226
f 499/690/532 512/692/534 516/697/538 503/696/537
f 500/694/536 501/693/535 505/698/539 504/699/540
f 501/693/535 502/695/226 506/700/541 505/698/539
f 502/695/226 503/696/537 507/701/542 506/700/541
f 503/696/537 516/697/538 520/702/543 507/701/542
f 508/691/533 509/703/544 513/704/545 512/692/534
f 509/703/544 510/705/546 514/706/547 513/704/545
f 510/705/546 511/707/548 515/708/549 514/706/547
f 511/707/548 524/709/550 528/710/551 515/708/549
f 512/692/534 513/704/545 517/711/552 516/697/538
f 513/704/545 514/706/547 518/712/11 517/711/552
f 514/706/547 515/708/549 519/713/553 518/712/11
f 515/708/549 528/710/551 532/714/554 519/713/553
f 516/697/538 517/711/552 521/715/555 520/702/543
f 517/711/552 518/712/11 522/716/556 521/715/555
f 518/712/11 519/713/553 523/717/557 522/716/556
f 519/713/553 532/714/554 536/718/558 523/717/557
f 524/709/550 525/719/559 529/720/560 528/710/551
f 525/719/559 526/721/561 530/722/562 529/720/560
f 526/721/561 527/723/563 531/724/564 530/722/562
f 527/723/563 540/725/565 544/726/566 531/724/564
f 528/710/551 529/720/560 533/727/567 532/714/554
f 529/720/560 530/722/562 534/728/7 533/727/567
f 530/722/562 531/724/564 535/729/568 534/728/7
f 531/724/564 544/726/566 548/730/569 535/729/568
f 532/714/554 533/727/567 537/731/570 536/718/558
f 533/727/567 534/728/7 538/732/571 537/731/570
f 534/728/7 535/729/568 539/733/572 538/732/571
f 535/729/568 548/730/569 552/734/573 539/733/572
f 540/725/565 541/735/574 545/736/575 544/726/566
f 541/735/574 542/737/576 546/738/577 545/736/575
f 542/737/576 543/739/578 547/740/579 546/738/577
f 543/739/578 492/683/525 496/686/528 547/740/579
f 544/726/566 545/736/575 549/741/580 548/730/569
f 545/736/575 546/738/577 550/742/67 549/741/580
f 546/738/577 547/740/579 551/743/581 550/742/67
f 547/740/579 496/686/528 500/694/536 551/743/581
f 548/730/569 549/741/580 553/744/582 552/734/573
f 549/741/580 550/742/67 554/745/583 553/744/582
f 550/742/67 551/743/581 555/746/584 554/745/583
f 551/743/581 500/694/536 504/699/540 555/746/584
f 540/725/565 527/723/563 556/747/585 541/735/574
f 527/723/563 526/721/561 557/748/586 556/747/585
f 526/721/561 525/719/559 558/749/587 557/748/586
f 525/719/559 524/709/550 511/707/548 558/749/587
f 541/735/574 556/747/585 559/750/588 542/737/576
f 556/747/585 557/748/586 560/751/215 559/750/588
f 557/748/586 558/749/587 561/752/589 560/751/215
f 558/749/587 511/707/548 510/705/546 561/752/589
f 542/737/576 559/750/588 562/753/590 543/739/578
f 559/750/588 560/751/215 563/754/591 562/753/590
f 560/751/215 561/752/589 564/755/592 563/754/591
f 561/752/589 510/705/546 509/703/544 564/755/592
f 543/739/578 562/753/590 493/684/526 492/683/525
f 562/753/590 563/754/591 494/687/529 493/684/526
f 563/754/591 564/755/592 495/689/531 494/687/529
f 564/755/592 509/703/544 508/691/533 495/689/531
f 565/756/525 566/757/526 570/758/527 569/759/528
f 566/757/526 567/760/529 571/761/593 570/758/527
f 567/760/529 568/762/531 572/763/532 571/761/593
f 568/762/531 581/764/533 585/765/594 572/763/532
f 569/759/528 570/758/527 574/766/595 573/767/536
f 570/758/527 571/761/593 575/768/226 574/766/595
f 571/761/593 572/763/532 576/769/596 575/768/226
f 572/763/532 585/765/594 589/770/538 576/769/596
f 573/767/536 574/766/595 578/771/539 577/772/540
f 574/766/595 575/768/226 579/773/541 578/771/539
f 575/768/226 576/769/596 580/774/542 579/773/541
f 576/769/596 589/770/538 593/775/543 580/774/542
f 581/764/533 582/776/544 586/777/545 585/765/594
f 582/776/544 583/778/597 587/779/547 586/777/545
f 583/778/597 584/780/548 588/781/549 587/779/547
f 584/780/548 597/782/550 601/783/598 588/781/549
f 585/765/594 586/777/545 590/784/552 589/770/538
f 586/777/545 587/779/547 591/785/11 590/784/552
f 587/779/547 588/781/549 592/786/553 591/785/11
f 588/781/549 601/783/598 605/787/554 592/786/553
f 589/770/538 590/784/552 594/788/555 593/775/543
f 590/784/552 591/785/11 595/789/556 594/788/555
f 591/785/11 592/786/553 596/790/599 595/789/556
f 592/786/553 605/787/554 609/791/558 596/790/599
f 597/782/550 598/792/559 602/793/560 601/783/598
f 598/792/559 599/794/561 603/795/562 602/793/560
f 599/794/561 600/796/563 604/797/564 603/795/562
f 600/796/563 613/798/565 617/799/566 604/797/564
f 601/783/598 602/793/560 606/800/600 605/787/554
f 602/793/560 603/795/562 607/801/7 606/800/600
f 603/795/562 604/797/564 608/802/601 607/801/7
f 604/797/564 617/799/566 621/803/569 608/802/601
f 605/787/554 606/800/600 610/804/570 609/791/558
f 606/800/600 607/801/7 611/805/571 610/804/570
f 607/801/7 608/802/601 612/806/572 611/805/571
f 608/802/601 621/803/569 625/807/573 612/806/572
f 613/798/565 614/808/574 618/809/575 617/799/566
f 614/808/574 615/810/602 619/811/603 618/809/575
f 615/810/602 616/812/578 620/813/579 619/811/603
f 616/812/578 565/756/525 569/759/528 620/813/579
f 617/799/566 618/809/575 622/814/580 621/803/569
f 618/809/575 619/811/603 623/815/67 622/814/580
f 619/811/603 620/813/579 624/816/581 623/815/67
f 620/813/579 569/759/528 573/767/536 624/816/581
f 621/803/569 622/814/580 626/817/604 625/807/573
f 622/814/580 623/815/67 627/818/583 626/817/604
f 623/815/67 624/816/581 628/819/584 627/818/583
f 624/816/581 573/767/536 577/772/540 628/819/584
f 613/798/565 600/796/563 629/820/585 614/808/574
f 600/796/563 599/794/561 630/821/586 629/820/585
f 599/794/561 598/792/559 631/822/587 630/821/586
f 598/792/559 597/782/550 584/780/548 631/822/587
f 614/808/574 629/820/585 632/823/588 615/810/602
f 629/820/585 630/821/586 633/824/215 632/823/588
f 630/821/586 631/822/587 634/825/605 633/824/215
f 631/822/587 584/780/548 583/778/597 634/825/605
f 615/810/602 632/823/588 635/826/590 616/812/578
f 632/823/588 633/824/215 636/827/591 635/826/590
f 633/824/215 634/825/605 637/828/592 636/827/591
f 634/825/605 583/778/597 582/776/544 637/828/592
f 616/812/578 635/826/590 566/757/526 565/756/525
f 635/826/590 636/827/591 567/760/529 566/757/526
f 636/827/591 637/828/592 568/762/531 567/760/529
f 637/828/592 582/776/544 581/764/533 568/762/531
f 638/829/606 639/830/607 643/831/595 642/832/536
f 639/830/607 640/833/608 644/834/226 643/831/595
f 640/833/608 641/835/609 645/836/537 644/834/226
f 641/835/609 650/837/610 654/838/538 645/836/537
f 642/832/536 643/831/595 647/839/611 646/840/612
f 643/831/595 644/834/226 648/841/613 647/839/611
f 644/834/226 645/836/537 649/842/614 648/841/613
f 645/836/537 654/838/538 658/843/615 649/842/614
f 646/840/612 647/839/611 687/844/616 686/845/617
f 647/839/611 648/841/613 688/846/618 687/844/616
f 648/841/613 649/842/614 689/847/619 688/846/618
f 649/842/614 658/843/615 690/848/620 689/847/619
f 650/837/610 651/849/621 655/850/552 654/838/538
f 651/849/621 652/851/622 656/852/11 655/850/552
f 652/851/622 653/853/623 657/854/553 656/852/11
f 653/853/623 662/855/624 666/856/554 657/854/553
f 654/838/538 655/850/552 659/857/625 658/843/615
f 655/850/552 656/852/11 660/858/626 659/857/625
f 656/852/11 657/854/553 661/859/627 660/858/626
f 657/854/553 666/856/554 670/860/628 661/859/627
f 658/843/615 659/857/625 695/861/629 690/848/620
f 659/857/625 660/858/626 700/862/630 695/861/629
f 660/858/626 661/859/627 705/863/631 700/862/630
f 661/859/627 670/860/628 710/864/632 705/863/631
f 662/855/624 663/865/633 667/866/567 666/856/554
f 663/865/633 664/867/634 668/868/7 667/866/567
f 664/867/634 665/869/635 669/870/601 668/868/7
f 665/869/635 674/871/636 678/872/569 669/870/601
f 666/856/554 667/866/567 671/873/637 670/860/628
f 667/866/567 668/868/7 672/874/638 671/873/637
f 668/868/7 669/870/601 673/875/639 672/874/638
f 669/870/601 678/872/569 682/876/640 673/875/639
f 670/860/628 671/873/637 709/877/641 710/864/632
f 671/873/637 672/874/638 708/878/642 709/877/641
f 672/874/638 673/875/639 707/879/643 708/878/642
f 673/875/639 682/876/640 706/880/644 707/879/643
f 674/871/636 675/881/645 679/882/580 678/872/569
f 675/881/645 676/883/646 680/884/67 679/882/580
f 676/883/646 677/885/647 681/886/581 680/884/67
f 677/885/647 638/829/606 642/832/536 681/886/581
f 678/872/569 679/882/580 683/887/648 682/876/640
f 679/882/580 680/884/67 684/888/649 683/887/648
f 680/884/67 681/886/581 685/889/650 684/888/649
f 681/886/581 642/832/536 646/840/612 685/889/650
f 682/876/640 683/887/648 701/890/651 706/880/644
f 683/887/648 684/888/649 696/891/652 701/890/651
f 684/888/649 685/889/650 691/892/653 696/891/652
f 685/889/650 646/840/612 686/845/617 691/892/653
f 686/845/617 687/844/616 692/893/654 691/892/653
f 687/844/616 688/846/618 693/894/655 692/893/654
f 688/846/618 689/847/619 694/895/656 693/894/655
f 689/847/619 690/848/620 695/861/629 694/895/656
f 691/892/653 692/893/654 697/896/657 696/891/652
f 692/893/654 693/894/655 698/897/17 697/896/657
f 693/894/655 694/895/656 699/898/658 698/897/17
f 694/895/656 695/861/629 700/862/630 699/898/658
f 696/891/652 697/896/657 702/899/659 701/890/651
f 697/896/657 698/897/17 703/900/660 702/899/659
f 698/897/17 699/898/658 704/901/661 703/900/660
f 699/898/658 700/862/630 705/863/631 704/901/661
f 701/890/651 702/899/659 707/879/643 706/880/644
f 702/899/659 703/900/660 708/878/642 707/879/643
f 703/900/660 704/901/661 709/877/641 708/878/642
f 704/901/661 705/863/631 710/864/632 709/877/641
f 711/902/606 712/903/607 716/904/595 715/905/536
f 712/903/607 713/906/608 717/907/226 716/904/595
f 713/906/608 714/908/609 718/909/596 717/907/226
f 714/908/609 723/910/610 727/911/538 718/909/596
f 715/905/536 716/904/595 720/912/611 719/913/662
f 716/904/595 717/907/226 721/914/613 720/912/611
f 717/907/226 718/909/596 722/915/614 721/914/613
f 718/909/596 727/911/538 731/916/615 722/915/614
f 719/913/662 720/912/611 760/917/616 759/918/617
f 720/912/611 721/914/613 761/919/618 760/917/616
f 721/914/613 722/915/614 762/920/619 761/919/618
f 722/915/614 731/916/615 763/921/620 762/920/619
f 723/910/610 724/922/621 728/923/552 727/911/538
f 724/922/621 725/924/622 729/925/11 728/923/552
f 725/924/622 726/926/663 730/927/553 729/925/11
f 726/926/663 735/928/624 739/929/554 730/927/553
f 727/911/538 728/923/552 732/930/625 731/916/615
f 728/923/552 729/925/11 733/931/626 732/930/625
f 729/925/11 730/927/553 734/932/627 733/931/626
f 730/927/553 739/929/554 743/933/628 734/932/627
f 731/916/615 732/930/625 768/934/629 763/921/620
f 732/930/625 733/931/626 773/935/630 768/934/629
f 733/931/626 734/932/627 778/936/631 773/935/630
f 734/932/627 743/933/628 783/937/632 778/936/631
f 735/928/624 736/938/664 740/939/600 739/929/554
f 736/938/664 737/940/634 741/941/7 740/939/600
f 737/940/634 738/942/635 742/943/601 741/941/7
f 738/942/635 747/944/636 751/945/569 742/943/601
f 739/929/554 740/939/600 744/946/637 743/933/628
f 740/939/600 741/941/7 745/947/638 744/946/637
f 741/941/7 742/943/601 746/948/639 745/947/638
f 742/943/601 751/945/569 755/949/665 746/948/639
f 743/933/628 744/946/637 782/950/641 783/937/632
f 744/946/637 745/947/638 781/951/642 782/950/641
f 745/947/638 746/948/639 780/952/643 781/951/642
f 746/948/639 755/949/665 779/953/644 780/952/643
f 747/944/636 748/954/666 752/955/580 751/945/569
f 748/954/666 749/956/646 753/957/67 752/955/580
f 749/956/646 750/958/667 754/959/581 753/957/67
f 750/958/667 711/902/606 715/905/536 754/959/581
f 751/945/569 752/955/580 756/960/648 755/949/665
f 752/955/580 753/957/67 757/961/649 756/960/648
f 753/957/67 754/959/581 758/962/650 757/961/649
f 754/959/581 715/905/536 719/913/662 758/962/650
f 755/949/665 756/960/648 774/963/651 779/953/644
f 756/960/648 757/961/649 769/964/652 774/963/651
f 757/961/649 758/962/650 764/965/653 769/964/652
f 758/962/650 719/913/662 759/918/617 764/965/653
f 759/918/617 760/917/616 765/966/654 764/965/653
f 760/917/616 761/919/618 766/967/655 765/966/654
f 761/919/618 762/920/619 767/968/656 766/967/655
f 762/920/619 763/921/620 768/934/629 767/968/656
f 764/965/653 765/966/654 770/969/657 769/964/652
f 765/966/654 766/967/655 771/970/17 770/969/657
f 766/967/655 767/968/656 772/971/658 771/970/17
f 767/968/656 768/934/629 773/935/630 772/971/658
f 769/964/652 770/969/657 775/972/659 774/963/651
f 770/969/657 771/970/17 776/973/660 775/972/659
f 771/970/17 772/971/658 777/974/661 776/973/660
f 772/971/658 773/935/630 778/936/631 777/974/661
f 774/963/651 775/972/659 780/952/643 779/953/644
f 775/972/659 776/973/660 781/951/642 780/952/643
f 776/973/660 777/974/661 782/950/641 781/951/642
f 777/974/661 778/936/631 783/937/632 782/950/641
l 17 38
l 205 38
