# Blender 4.0.2
# www.blender.org
o finger_post_sign_01
v -0.176024 0.374539 0.029063
v -0.176024 0.500319 0.029063
v -0.176024 0.374539 0.010937
v -0.176024 0.500319 0.010937
v 0.134323 0.374539 0.029063
v 0.134323 0.500319 0.029063
v 0.134323 0.374539 0.010937
v 0.134323 0.500319 0.010937
v -0.176024 0.437429 0.029063
v -0.176024 0.437429 0.010937
v 0.208458 0.437429 0.010937
v 0.208458 0.437429 0.029063
v -0.025436 -0.000000 0.010937
v -0.025436 0.498002 0.010937
v -0.025436 -0.000000 -0.010937
v -0.025436 0.498002 -0.010937
v 0.025436 -0.000000 0.010937
v 0.025436 0.498002 0.010937
v 0.025436 -0.000000 -0.010937
v 0.025436 0.498002 -0.010937
vn -1.0000 -0.0000 -0.0000
vn -0.0000 -0.0000 -1.0000
vn 0.6469 0.7626 -0.0000
vn -0.0000 -0.0000 1.0000
vn -0.0000 -1.0000 -0.0000
vn -0.0000 1.0000 -0.0000
vn 0.6469 -0.7626 -0.0000
vn 1.0000 -0.0000 -0.0000
vt 0.221766 0.679995
vt 0.221766 0.794895
vt 0.188649 0.794895
vt 0.188649 0.679995
vt 0.186780 0.119802
vt 0.186780 0.234719
vt 0.753865 0.234719
vt 0.889330 0.119803
vt 0.407321 0.567726
vt 0.584979 0.567726
vt 0.584979 0.600850
vt 0.407321 0.600850
vt 0.888167 0.357803
vt 0.752696 0.472724
vt 0.185588 0.472724
vt 0.185588 0.357803
vt 0.185588 0.480879
vt 0.752722 0.480879
vt 0.752722 0.514003
vt 0.185588 0.514004
vt 0.752723 0.556000
vt 0.185597 0.556000
vt 0.185597 0.522875
vt 0.752723 0.522875
vt 0.752696 0.242882
vt 0.185588 0.242881
vt 0.229663 0.567726
vt 0.229663 0.600850
vt 0.186780 0.004886
vt 0.753865 0.004886
vt 0.221766 0.565095
vt 0.188649 0.565095
vt 0.177783 0.044856
vt 0.177781 0.954848
vt 0.137812 0.954848
vt 0.137812 0.044856
vt 0.044854 0.954848
vt 0.044854 0.044856
vt 0.004885 0.954848
vt 0.004884 0.044856
vt 0.990124 0.004878
vt 0.990124 0.914897
vt 0.897163 0.914897
vt 0.897163 0.004878
vt 0.044854 0.004887
vt 0.137812 0.004887
vt 0.137812 0.994817
vt 0.044854 0.994817
s 0
f 9/1/1 2/2/1 4/3/1 10/4/1
f 10/5/2 4/6/2 8/7/2 11/8/2
f 11/9/3 8/10/3 6/11/3 12/12/3
f 12/13/4 6/14/4 2/15/4 9/16/4
f 3/17/5 7/18/5 5/19/5 1/20/5
f 8/21/6 4/22/6 2/23/6 6/24/6
f 5/25/4 12/13/4 9/16/4 1/26/4
f 7/27/7 11/9/7 12/12/7 5/28/7
f 3/29/2 10/5/2 11/8/2 7/30/2
f 1/31/1 9/1/1 10/4/1 3/32/1
f 13/33/1 14/34/1 16/35/1 15/36/1
f 15/36/2 16/35/2 20/37/2 19/38/2
f 19/38/8 20/37/8 18/39/8 17/40/8
f 17/41/4 18/42/4 14/43/4 13/44/4
f 15/36/5 19/38/5 17/45/5 13/46/5
f 20/37/6 16/35/6 14/47/6 18/48/6
