# Blender 4.0.2
# www.blender.org
o hexagon_paving_tile
v 0.021040 0.000000 -0.036442
v 0.042080 0.000000 0.000000
v -0.021040 0.000000 0.036442
v -0.042080 0.000000 -0.000000
v -0.021040 0.000000 -0.036442
v 0.087315 0.000000 0.001822
v 0.108355 0.000000 0.038264
v 0.087315 0.000000 0.074706
v 0.045236 0.000000 0.074706
v 0.045236 0.000000 0.001822
v 0.042080 0.000000 0.076443
v 0.021040 0.000000 0.112885
v -0.021040 0.000000 0.112885
v -0.042080 0.000000 0.076443
v -0.021040 0.000000 0.040001
v 0.021040 0.023946 0.040001
v 0.042080 0.023946 0.076443
v 0.021040 0.023946 0.112885
v -0.021040 0.023946 0.112885
v -0.042080 0.023946 0.076443
v -0.021040 0.023946 0.040001
v 0.021040 0.023946 -0.036442
v 0.042080 0.023946 0.000000
v 0.021040 0.023946 0.036442
v -0.021040 0.023946 0.036442
v -0.042080 0.023946 -0.000000
v -0.021040 0.023946 -0.036442
v 0.087315 0.023946 0.001822
v 0.108355 0.023946 0.038264
v 0.087315 0.023946 0.074706
v 0.045236 0.023946 0.074706
v 0.024196 0.023946 0.038264
v 0.045236 0.023946 0.001822
v 0.019358 0.028979 -0.033529
v 0.021040 0.026066 -0.036442
v 0.038716 0.028979 0.000000
v 0.042080 0.026066 0.000000
v 0.019358 0.028979 0.033529
v 0.021040 0.026066 0.036442
v -0.019358 0.028979 0.033529
v -0.021040 0.026066 0.036442
v -0.038716 0.028979 -0.000000
v -0.042080 0.026066 -0.000000
v -0.019358 0.028979 -0.033529
v -0.021040 0.026066 -0.036442
v 0.085633 0.028979 0.004735
v 0.087315 0.026066 0.001822
v 0.104991 0.028979 0.038264
v 0.108355 0.026066 0.038264
v 0.085633 0.028979 0.071793
v 0.087315 0.026066 0.074706
v 0.046918 0.028979 0.071793
v 0.045236 0.026066 0.074706
v 0.027560 0.028979 0.038264
v 0.024196 0.026066 0.038264
v 0.046918 0.028979 0.004735
v 0.045236 0.026066 0.001822
v 0.019358 0.028979 0.042914
v 0.021040 0.026066 0.040001
v 0.038716 0.028979 0.076443
v 0.042080 0.026066 0.076443
v 0.019358 0.028979 0.109972
v 0.021040 0.026066 0.112885
v -0.019358 0.028979 0.109972
v -0.021040 0.026066 0.112885
v -0.038716 0.028979 0.076443
v -0.042080 0.026066 0.076443
v -0.019358 0.028979 0.042914
v -0.021040 0.026066 0.040001
vn -0.0000 -0.0000 -1.0000
vn -0.0000 -0.0000 1.0000
vn -0.8660 -0.0000 0.5000
vn -0.8660 -0.0000 -0.5000
vn 0.8660 -0.0000 -0.5000
vn -0.0000 1.0000 -0.0000
vn 0.8660 -0.0000 0.5000
vn -1.0000 -0.0000 -0.0000
vn 0.5000 -0.0000 -0.8660
vn 0.4822 -0.0000 0.8761
vn 0.6124 0.7071 -0.3536
vn 0.6124 0.7071 0.3536
vn -0.0000 0.7071 0.7071
vn -0.6124 0.7071 0.3536
vn -0.6124 0.7071 -0.3536
vn -0.0000 0.7071 -0.7071
vt 0.949972 0.333732
vt 0.941733 0.333732
vt 0.941733 0.170223
vt 0.949972 0.170223
vt 0.949972 0.824282
vt 0.941733 0.824282
vt 0.941733 0.660763
vt 0.949971 0.660763
vt 0.941733 0.497244
vt 0.949971 0.497244
vt 0.941734 0.006710
vt 0.949972 0.006710
vt 0.304576 0.287767
vt 0.434475 0.362986
vt 0.434166 0.511955
vt 0.302687 0.583669
vt 0.172154 0.510249
vt 0.173754 0.361309
vt 0.949972 0.987800
vt 0.941733 0.987800
vt 0.963392 0.333741
vt 0.971631 0.333741
vt 0.971631 0.497253
vt 0.963392 0.497253
vt 0.963392 0.824283
vt 0.971631 0.824283
vt 0.971631 0.987797
vt 0.963392 0.987797
vt 0.963392 0.006710
vt 0.971631 0.006710
vt 0.971631 0.170225
vt 0.963392 0.170225
vt 0.971631 0.660769
vt 0.963392 0.660769
vt 0.592287 0.249946
vt 0.460807 0.321659
vt 0.330274 0.248239
vt 0.331874 0.099299
vt 0.462696 0.025758
vt 0.592596 0.100976
vt 0.993290 0.333747
vt 0.985051 0.333747
vt 0.985051 0.170231
vt 0.993290 0.170231
vt 0.993290 0.824286
vt 0.985051 0.824286
vt 0.985051 0.660774
vt 0.993290 0.660775
vt 0.985051 0.497263
vt 0.993290 0.497263
vt 0.985051 0.006710
vt 0.993290 0.006710
vt 0.993290 0.987796
vt 0.985052 0.987796
vt 0.932963 0.674599
vt 0.839915 0.674599
vt 0.839915 0.660769
vt 0.932963 0.660769
vt 0.826495 0.170225
vt 0.733446 0.170225
vt 0.733446 0.006710
vt 0.826495 0.006710
vt 0.826495 0.333739
vt 0.733446 0.333739
vt 0.826495 0.497254
vt 0.733446 0.497254
vt 0.826495 0.660769
vt 0.733446 0.660769
vt 0.626978 0.660769
vt 0.720026 0.660769
vt 0.720026 0.674930
vt 0.626978 0.674930
vt 0.932963 0.333739
vt 0.839915 0.333739
vt 0.839915 0.170225
vt 0.932963 0.170225
vt 0.932963 0.497254
vt 0.839915 0.497254
vt 0.471469 0.543177
vt 0.464467 0.531250
vt 0.478460 0.530862
vt 0.839915 0.006710
vt 0.932963 0.006710
vt 0.626978 0.497254
vt 0.720026 0.497254
vt 0.720026 0.170225
vt 0.626978 0.170225
vt 0.626978 0.006710
vt 0.720026 0.006710
vt 0.720026 0.333739
vt 0.626978 0.333739
vt 0.323456 0.614034
vt 0.330458 0.625961
vt 0.620657 0.611588
vt 0.613666 0.623903
vt 0.463280 0.367740
vt 0.477272 0.367352
vt 0.826495 0.674767
vt 0.733446 0.674767
vt 0.156246 0.343963
vt 0.010169 0.259626
vt 0.026324 0.249707
vt 0.155697 0.324837
vt 0.300509 0.256678
vt 0.283842 0.247647
vt 0.300509 0.088003
vt 0.284220 0.098042
vt 0.152787 0.006710
vt 0.153299 0.025660
vt 0.006710 0.091047
vt 0.023549 0.100135
vt 0.304328 0.268720
vt 0.450787 0.353145
vt 0.157190 0.351915
vt 0.155810 0.520162
vt 0.302913 0.602570
vt 0.450787 0.521396
vt 0.608907 0.259386
vt 0.461034 0.340560
vt 0.608907 0.091135
vt 0.462448 0.006710
vt 0.315310 0.089905
vt 0.313930 0.258153
s 0
f 27/1/1 45/2/1 35/3/1 22/4/1
f 24/5/2 39/6/2 41/7/2 25/8/2
f 25/8/3 41/7/3 43/9/3 26/10/3
f 26/10/4 43/9/4 45/2/4 27/1/4
f 22/4/5 35/3/5 37/11/5 23/12/5
f 48/13/6 46/14/6 56/15/6 54/16/6 52/17/6 50/18/6
f 23/19/7 37/20/7 39/6/7 24/5/7
f 33/21/1 57/22/1 47/23/1 28/24/1
f 30/25/2 51/26/2 53/27/2 31/28/2
f 31/29/3 53/30/3 55/31/3 32/32/3
f 32/32/4 55/31/4 57/22/4 33/21/4
f 28/24/5 47/23/5 49/33/5 29/34/5
f 60/35/6 58/36/6 68/37/6 66/38/6 64/39/6 62/40/6
f 29/34/7 49/33/7 51/26/7 30/25/7
f 21/41/1 69/42/1 59/43/1 16/44/1
f 18/45/2 63/46/2 65/47/2 19/48/2
f 19/48/3 65/47/3 67/49/3 20/50/3
f 20/50/4 67/49/4 69/42/4 21/41/4
f 16/44/5 59/43/5 61/51/5 17/52/5
f 17/53/7 61/54/7 63/46/7 18/45/7
f 15/55/8 21/56/8 25/57/8 3/58/8
f 14/59/4 20/60/4 21/61/4 15/62/4
f 13/63/3 19/64/3 20/60/3 14/59/3
f 12/65/2 18/66/2 19/64/2 13/63/2
f 11/67/7 17/68/7 18/66/7 12/65/7
f 33/69/9 10/70/9 2/71/9 23/72/9
f 5/73/1 27/74/1 22/75/1 1/76/1
f 4/77/4 26/78/4 27/74/4 5/73/4
f 3/58/3 25/57/3 26/78/3 4/77/3
f 24/79/6 16/80/6 32/81/6
f 1/76/5 22/75/5 23/82/5 2/83/5
f 10/70/1 33/69/1 28/84/1 6/85/1
f 8/86/2 30/87/2 31/88/2 9/89/2
f 7/90/7 29/91/7 30/87/7 8/86/7
f 6/85/5 28/84/5 29/91/5 7/90/5
f 21/92/6 16/80/6 24/79/6 25/93/6
f 32/81/6 33/94/6 23/95/6 24/79/6
f 16/80/6 17/96/6 31/97/6 32/81/6
f 17/68/10 11/67/10 9/98/10 31/99/10
f 37/100/11 35/101/11 34/102/11 36/103/11
f 39/104/12 37/100/12 36/103/12 38/105/12
f 41/106/13 39/104/13 38/105/13 40/107/13
f 43/108/14 41/106/14 40/107/14 42/109/14
f 45/110/15 43/108/15 42/109/15 44/111/15
f 35/101/16 45/110/16 44/111/16 34/102/16
f 49/112/11 47/113/11 46/14/11 48/13/11
f 51/114/12 49/112/12 48/13/12 50/18/12
f 53/115/13 51/114/13 50/18/13 52/17/13
f 55/116/14 53/115/14 52/17/14 54/16/14
f 57/117/15 55/116/15 54/16/15 56/15/15
f 47/113/16 57/117/16 56/15/16 46/14/16
f 61/118/11 59/119/11 58/36/11 60/35/11
f 63/120/12 61/118/12 60/35/12 62/40/12
f 65/121/13 63/120/13 62/40/13 64/39/13
f 67/122/14 65/121/14 64/39/14 66/38/14
f 69/123/15 67/122/15 66/38/15 68/37/15
f 59/119/16 69/123/16 68/37/16 58/36/16
f 36/103/6 34/102/6 44/111/6 42/109/6 40/107/6 38/105/6
