# Blender 4.0.2
# www.blender.org
o axe
v 0.000000 0.111086 0.019987
v 0.000000 0.111086 -0.028088
v 0.006156 0.111086 -0.024722
v 0.010194 0.111086 -0.011639
v 0.009184 0.111086 -0.019470
v 0.007510 0.111086 0.010180
v 0.004553 0.111086 0.018274
v 0.009467 0.111086 -0.001263
v -0.000000 -0.084262 0.009533
v -0.000000 -0.084262 -0.019438
v 0.009193 -0.084262 -0.002148
v 0.005516 -0.084262 -0.017964
v 0.009728 -0.084262 -0.008376
v 0.003407 -0.084262 0.008095
v 0.007053 -0.084262 0.003512
v 0.008788 -0.084262 -0.013881
v 0.010350 0.083488 -0.019470
v 0.005834 0.083488 -0.024729
v -0.006156 0.111086 -0.024722
v -0.010194 0.111086 -0.011639
v 0.010827 0.083488 -0.001263
v 0.000000 0.083488 -0.027376
v -0.009184 0.111086 -0.019470
v 0.007882 0.083488 0.010893
v -0.007510 0.111086 0.010180
v -0.004553 0.111086 0.018274
v 0.003838 0.083488 0.018274
v 0.000000 0.083488 0.019689
v 0.011456 0.083488 -0.011639
v 0.010350 0.041818 -0.010249
v 0.007882 0.041818 0.010628
v 0.003837 0.041818 0.017441
v 0.011456 0.041818 -0.004111
v 0.006497 0.041818 -0.014802
v 0.010827 0.041818 0.002833
v 0.000000 0.041818 -0.016445
v -0.009467 0.111086 -0.001263
v 0.000000 0.041818 0.018798
v 0.008786 -0.013939 -0.008914
v 0.007051 -0.013939 0.007413
v 0.003406 -0.013939 0.011598
v 0.009725 -0.013939 -0.003724
v 0.005515 -0.013939 -0.012763
v 0.009190 -0.013939 0.002146
v -0.000000 -0.013939 -0.014153
v -0.000000 -0.013939 0.012950
v 0.010793 -0.151323 -0.007408
v 0.009751 -0.151323 -0.013390
v 0.006121 -0.151323 -0.017827
v 0.007826 -0.151323 0.006702
v 0.010200 -0.151323 -0.000641
v -0.000000 -0.151323 0.015576
v 0.004160 -0.151323 0.014262
v -0.000000 -0.151323 -0.019429
v -0.009193 -0.084262 -0.002148
v -0.005517 -0.084262 -0.017964
v -0.009728 -0.084262 -0.008376
v -0.003407 -0.084262 0.008095
v 0.005516 -0.117792 -0.018125
v 0.007053 -0.117792 0.003513
v 0.009193 -0.117792 -0.001808
v 0.003407 -0.117792 0.008568
v -0.007053 -0.084262 0.003512
v -0.008788 -0.084262 -0.013881
v 0.009728 -0.117792 -0.008233
v -0.010350 0.083488 -0.019470
v 0.008788 -0.117792 -0.013912
v -0.000000 -0.117792 0.009801
v -0.000000 -0.117792 -0.019645
v -0.005834 0.083488 -0.024729
v 0.003407 -0.049101 0.009302
v -0.000000 -0.049101 0.010643
v 0.007053 -0.049101 0.005170
v 0.009193 -0.049101 0.000317
v 0.009728 -0.049101 -0.005507
v -0.000000 -0.049101 -0.015850
v -0.010827 0.083488 -0.001263
v 0.008788 -0.049101 -0.010654
v 0.005516 -0.049101 -0.014472
v -0.007882 0.083488 0.010893
v -0.003837 0.083488 0.018274
v 0.010490 -0.181728 -0.005815
v 0.009477 -0.183094 -0.012699
v -0.000000 -0.176140 0.022040
v -0.000000 -0.184474 -0.019649
v -0.011456 0.083488 -0.011639
v 0.005949 -0.184108 -0.017806
v 0.008617 -0.177994 0.013001
v 0.010671 -0.179825 0.003774
v 0.004678 -0.176509 0.020482
v -0.010350 0.041818 -0.010249
v -0.007882 0.041818 0.010628
v -0.003837 0.041818 0.017441
v -0.011456 0.041818 -0.004111
v -0.006497 0.041818 -0.014802
v -0.010827 0.041818 0.002833
v -0.008786 -0.013939 -0.008914
v -0.007051 -0.013939 0.007413
v -0.003406 -0.013939 0.011598
v -0.009725 -0.013939 -0.003724
v -0.005515 -0.013939 -0.012763
v -0.009191 -0.013939 0.002146
v -0.010793 -0.151323 -0.007408
v -0.009751 -0.151323 -0.013390
v -0.006121 -0.151323 -0.017827
v -0.007826 -0.151323 0.006702
v -0.010200 -0.151323 -0.000641
v -0.004160 -0.151323 0.014262
v -0.005517 -0.117792 -0.018125
v -0.007053 -0.117792 0.003513
v -0.009193 -0.117792 -0.001808
v -0.003407 -0.117792 0.008568
v -0.009728 -0.117792 -0.008233
v -0.008788 -0.117792 -0.013912
v -0.003407 -0.049101 0.009302
v -0.007053 -0.049101 0.005170
v -0.009193 -0.049101 0.000317
v -0.009728 -0.049101 -0.005507
v -0.008788 -0.049101 -0.010654
v -0.005516 -0.049101 -0.014472
v -0.010491 -0.181728 -0.005815
v -0.009478 -0.183094 -0.012699
v -0.005949 -0.184108 -0.017806
v -0.008617 -0.177994 0.013001
v -0.010671 -0.179825 0.003774
v -0.004678 -0.176509 0.020482
v -0.007225 0.013939 0.009718
v -0.009671 0.013939 0.003048
v 0.005804 0.013939 -0.012194
v 0.009671 0.013939 0.003048
v 0.000000 0.013939 -0.013615
v 0.000000 0.013939 0.015786
v 0.009246 0.013939 -0.008259
v 0.007225 0.013939 0.009718
v 0.003504 0.013939 0.014402
v 0.010234 0.013939 -0.002954
v -0.009246 0.013939 -0.008259
v -0.010234 0.013939 -0.002954
v -0.003504 0.013939 0.014402
v -0.005804 0.013939 -0.012194
v -0.000000 -0.218384 -0.008661
v -0.000000 -0.218384 -0.001520
v -0.000000 -0.206710 0.019093
v -0.000000 -0.215112 0.009561
v 0.010756 -0.213868 -0.001917
v 0.006090 -0.218384 -0.001520
v 0.009405 -0.217062 -0.001636
v 0.002795 -0.218384 -0.012705
v 0.006098 -0.213918 -0.016016
v 0.005140 -0.217076 -0.015002
v -0.000000 -0.218384 -0.013715
v -0.000000 -0.213923 -0.018181
v -0.000000 -0.217078 -0.016848
v -0.006091 -0.218384 -0.001520
v -0.010756 -0.213868 -0.001917
v -0.009405 -0.217062 -0.001636
v -0.002796 -0.218384 -0.012705
v -0.006098 -0.213918 -0.016016
v -0.005140 -0.217076 -0.015002
v 0.005191 -0.218384 -0.008661
v 0.009716 -0.213900 -0.010015
v 0.008405 -0.217071 -0.009521
v -0.005191 -0.218384 -0.008661
v -0.009716 -0.213900 -0.010015
v -0.008405 -0.217071 -0.009521
v 0.006212 -0.215112 0.009561
v 0.010889 -0.210608 0.008960
v 0.009532 -0.213793 0.009385
v -0.004045 -0.206710 0.019093
v -0.008742 -0.202294 0.018321
v -0.007375 -0.205416 0.018867
v -0.010889 -0.210608 0.008960
v -0.006212 -0.215112 0.009561
v -0.009533 -0.213793 0.009385
v 0.008741 -0.202294 0.018321
v 0.004045 -0.206710 0.019093
v 0.007375 -0.205416 0.018867
v -0.000000 -0.193791 0.027606
v -0.000000 -0.201128 0.025425
v -0.000000 -0.197683 0.027622
v -0.001128 -0.201488 0.025017
v -0.004738 -0.195295 0.026213
v -0.003686 -0.198856 0.026296
v 0.001128 -0.201488 0.025017
v 0.004738 -0.195295 0.026213
v 0.003686 -0.198856 0.026296
v -0.011456 0.062653 -0.006264
v -0.006165 0.062653 -0.018155
v 0.006165 0.062653 -0.018155
v 0.010827 0.062653 0.000785
v 0.000000 0.062653 -0.020300
v 0.000000 0.062653 0.019442
v -0.010350 0.062653 -0.013249
v 0.010350 0.062653 -0.013249
v 0.007882 0.062653 0.010760
v 0.003837 0.062653 0.017858
v 0.011456 0.062653 -0.006264
v -0.003837 0.062653 0.017858
v -0.010827 0.062653 0.000785
v -0.007882 0.062653 0.010760
v -0.000624 0.090862 0.085249
v 0.000624 0.090862 0.085249
v -0.000624 0.181678 0.087484
v 0.000624 0.181678 0.087484
v 0.000000 0.090535 0.086764
v 0.000000 0.111086 -0.047898
v 0.000000 0.181856 0.089045
v 0.000000 0.172960 -0.047898
v -0.014637 0.111086 -0.012712
v 0.014637 0.111086 -0.012712
v 0.014637 0.172960 -0.012712
v -0.014637 0.172960 -0.012712
v 0.000000 0.111086 -0.012712
v 0.004673 0.107685 0.038789
v 0.004673 0.173271 0.038789
v -0.004673 0.173271 0.038789
v 0.000000 0.173271 0.038789
v 0.000000 0.107685 0.038789
v -0.004673 0.107685 0.038789
v -0.012898 0.111086 0.002322
v 0.012899 0.111086 0.002322
v 0.012899 0.172960 0.002322
v -0.012898 0.172960 0.002322
v 0.000000 0.111086 0.002322
v 0.008113 0.110464 0.022318
v 0.008113 0.172960 0.022318
v -0.008113 0.172960 0.022318
v 0.000000 0.172960 0.022318
v 0.000000 0.110464 0.022318
v -0.008113 0.110464 0.022318
v -0.013921 0.111086 -0.026706
v -0.012706 0.111086 -0.035794
v 0.013921 0.111086 -0.026706
v 0.012706 0.111086 -0.035794
v 0.013921 0.172960 -0.026706
v 0.012706 0.172960 -0.035794
v -0.013921 0.172960 -0.026706
v -0.012706 0.172960 -0.035794
v 0.000000 0.172960 -0.035794
v 0.000000 0.111086 -0.035794
v 0.000000 0.111086 -0.026704
v -0.012353 0.111086 -0.043074
v 0.000000 0.111086 -0.043074
v -0.012353 0.172960 -0.043074
v 0.012353 0.111086 -0.043074
v 0.012353 0.172960 -0.043074
v 0.000000 0.172960 -0.043074
v 0.000000 0.172960 -0.012712
v 0.000000 0.172960 0.002322
v -0.000624 0.103526 0.090024
v -0.000624 0.119339 0.093276
v -0.000624 0.135152 0.094800
v -0.000624 0.150966 0.094190
v -0.000624 0.166779 0.092260
v 0.000624 0.103526 0.090024
v 0.000624 0.119339 0.093276
v 0.000624 0.135152 0.094800
v 0.000624 0.150966 0.094190
v 0.000624 0.166779 0.092260
v 0.000000 0.103232 0.091637
v 0.000000 0.119143 0.094955
v 0.000000 0.135055 0.096511
v 0.000000 0.150966 0.095889
v 0.000000 0.166878 0.093918
v -0.014637 0.121398 -0.012712
v -0.014637 0.131711 -0.012712
v -0.014637 0.142023 -0.012712
v -0.014637 0.152335 -0.012712
v -0.014637 0.162648 -0.012712
v 0.008113 0.120880 0.022318
v 0.008113 0.131296 0.022318
v 0.008113 0.141712 0.022318
v 0.008113 0.152128 0.022318
v 0.008113 0.162544 0.022318
v -0.008113 0.162544 0.022318
v -0.008113 0.152128 0.022318
v -0.008113 0.141712 0.022318
v -0.008113 0.131296 0.022318
v -0.008113 0.120880 0.022318
v 0.012706 0.121398 -0.035794
v 0.012706 0.131711 -0.035794
v 0.012706 0.142023 -0.035794
v 0.012706 0.152335 -0.035794
v 0.012706 0.162648 -0.035794
v 0.012353 0.121398 -0.043074
v 0.012353 0.131711 -0.043074
v 0.012353 0.142023 -0.043074
v 0.012353 0.152335 -0.043074
v 0.012353 0.162648 -0.043074
v 0.000000 0.111086 -0.044808
v 0.000000 0.172960 -0.044808
v 0.014637 0.121398 -0.012712
v 0.014637 0.131711 -0.012712
v 0.014637 0.142023 -0.012712
v 0.014637 0.152335 -0.012712
v 0.014637 0.162648 -0.012712
v 0.004673 0.117873 0.038789
v 0.004673 0.129338 0.038789
v 0.004673 0.141102 0.038789
v 0.004673 0.151970 0.038789
v 0.004673 0.162689 0.038789
v -0.004673 0.162689 0.038789
v -0.004673 0.151970 0.038789
v -0.004673 0.141102 0.038789
v -0.004673 0.129338 0.038789
v -0.004673 0.117873 0.038789
v -0.012898 0.121398 0.002322
v -0.012898 0.131711 0.002322
v -0.012898 0.142023 0.002322
v -0.012898 0.152335 0.002322
v -0.012898 0.162648 0.002322
v -0.013921 0.121398 -0.026706
v -0.013921 0.131711 -0.026706
v -0.013921 0.142023 -0.026706
v -0.013921 0.152335 -0.026706
v -0.013921 0.162648 -0.026706
v -0.012706 0.121398 -0.035794
v -0.012706 0.131711 -0.035794
v -0.012706 0.142023 -0.035794
v -0.012706 0.152335 -0.035794
v -0.012706 0.162648 -0.035794
v 0.013921 0.121398 -0.026706
v 0.013921 0.131711 -0.026706
v 0.013921 0.142023 -0.026706
v 0.013921 0.152335 -0.026706
v 0.013921 0.162648 -0.026706
v 0.012899 0.121398 0.002322
v 0.012899 0.131711 0.002322
v 0.012899 0.142023 0.002322
v 0.012899 0.152335 0.002322
v 0.012899 0.162648 0.002322
v 0.000000 0.121398 -0.047898
v 0.000000 0.131711 -0.047898
v 0.000000 0.142023 -0.047898
v 0.000000 0.152335 -0.047898
v 0.000000 0.162648 -0.047898
v -0.012353 0.121398 -0.043074
v -0.012353 0.131711 -0.043074
v -0.012353 0.142023 -0.043074
v -0.012353 0.152335 -0.043074
v -0.012353 0.162648 -0.043074
v 0.002107 0.097541 0.070937
v 0.002888 0.103080 0.056626
v 0.002107 0.178253 0.072427
v 0.002888 0.175658 0.057371
v -0.002106 0.178253 0.072427
v -0.002888 0.175658 0.057371
v 0.000000 0.178253 0.072454
v 0.000000 0.175658 0.057356
v 0.000000 0.097541 0.070824
v 0.000000 0.103080 0.056754
v -0.002107 0.097541 0.070937
v -0.002888 0.103080 0.056626
v -0.002888 0.163555 0.058963
v -0.002106 0.165167 0.075611
v -0.002888 0.151386 0.059606
v -0.002106 0.150952 0.076898
v -0.002888 0.139368 0.059809
v -0.002106 0.136737 0.077305
v -0.002888 0.125706 0.059301
v -0.002106 0.122523 0.076289
v -0.002888 0.113090 0.058217
v -0.002107 0.108308 0.074121
v 0.002888 0.113090 0.058217
v 0.002107 0.108308 0.074121
v 0.002888 0.125706 0.059301
v 0.002107 0.122523 0.076289
v 0.002888 0.139368 0.059809
v 0.002107 0.136737 0.077305
v 0.002888 0.151386 0.059606
v 0.002107 0.150952 0.076898
v 0.002888 0.163555 0.058963
v 0.002107 0.165167 0.075611
v 0.000000 0.172960 -0.026706
v -0.012656 0.111086 -0.044808
v -0.011147 0.111086 -0.046672
v 0.011147 0.111086 -0.046672
v 0.012656 0.111086 -0.044808
v -0.011147 0.172960 -0.046672
v -0.012656 0.172960 -0.044808
v 0.012656 0.172960 -0.044808
v 0.011147 0.172960 -0.046672
v -0.012656 0.121398 -0.044808
v -0.011147 0.121398 -0.046672
v -0.012656 0.131711 -0.044808
v -0.011147 0.131711 -0.046672
v -0.012656 0.142023 -0.044808
v -0.011147 0.142023 -0.046672
v -0.012656 0.152335 -0.044808
v -0.011147 0.152335 -0.046672
v -0.011147 0.162648 -0.046672
v -0.012656 0.162648 -0.044808
v 0.011147 0.121398 -0.046672
v 0.012656 0.121398 -0.044808
v 0.011147 0.131711 -0.046672
v 0.012656 0.131711 -0.044808
v 0.011147 0.142023 -0.046672
v 0.012656 0.142023 -0.044808
v 0.011147 0.152335 -0.046672
v 0.012656 0.152335 -0.044808
v 0.012656 0.162648 -0.044808
v 0.011147 0.162648 -0.046672
v 0.000000 0.090862 0.085313
v 0.000000 0.181678 0.087487
vn -0.6526 -0.0137 0.7576
vn -0.6296 -0.0496 0.7753
vn -0.0000 -0.0673 0.9977
vn -0.0000 -0.0207 0.9998
vn -0.9104 -0.0852 -0.4048
vn -0.9059 -0.0614 -0.4190
vn -0.9989 -0.0255 -0.0391
vn -0.9994 -0.0083 -0.0337
vn -0.6447 0.1653 0.7464
vn -0.6661 0.2026 0.7178
vn -0.0000 0.2731 0.9620
vn -0.0000 0.2124 0.9772
vn -0.9990 -0.0073 -0.0436
vn -0.9991 0.0031 -0.0424
vn -0.9707 -0.0142 0.2399
vn -0.9714 -0.0201 0.2365
vn -0.0000 0.0336 -0.9994
vn -0.0000 0.0746 -0.9972
vn -0.5331 0.0622 -0.8437
vn -0.5258 0.0266 -0.8502
vn 0.9756 0.0208 0.2184
vn 0.8913 0.0346 0.4521
vn 0.9218 0.0820 0.3789
vn 0.9845 0.0379 0.1711
vn 0.6242 0.0695 0.7781
vn -0.0000 0.0942 0.9956
vn 0.6447 0.1653 0.7464
vn -0.8660 -0.0106 0.5000
vn -0.8913 0.0346 0.4521
vn -0.6242 0.0695 0.7781
vn -0.5986 -0.0109 0.8010
vn -0.9218 0.0820 0.3789
vn -0.6858 -0.0053 0.7277
vn -0.6670 -0.0084 0.7450
vn -0.0000 -0.0130 0.9999
vn -0.0000 -0.0102 0.9999
vn -0.8522 -0.0285 0.5225
vn -0.8549 -0.0401 0.5172
vn -0.8741 -0.0465 0.4835
vn -0.5816 -0.0669 0.8107
vn -0.6021 -0.0816 0.7942
vn 0.5884 -0.0254 -0.8082
vn 0.9279 -0.0169 -0.3724
vn 0.9224 -0.2104 -0.3238
vn 0.6139 -0.2202 -0.7580
vn -0.9764 -0.0129 0.2156
vn -0.9829 0.0120 0.1838
vn 0.1819 -0.8588 0.4789
vn -0.0000 -0.8753 0.4836
vn -0.0000 -0.9897 0.1431
vn 0.1929 -0.9730 0.1267
vn -0.0000 0.0525 -0.9986
vn -0.0000 0.0001 -1.0000
vn -0.5477 0.0033 -0.8367
vn -0.5393 0.0434 -0.8410
vn -0.0000 -0.0267 -0.9996
vn -0.0000 -0.2183 -0.9759
vn -0.6139 -0.2202 -0.7580
vn -0.5884 -0.0254 -0.8082
vn -0.9003 -0.0205 0.4347
vn -0.9195 0.0033 0.3932
vn -0.6502 -0.0007 -0.7598
vn -0.6014 -0.1258 -0.7890
vn -0.9104 -0.0512 -0.4105
vn -0.9280 0.0288 -0.3714
vn 0.1370 -0.6587 0.7398
vn -0.0000 -0.6202 0.7845
vn -0.0000 -0.7502 0.6613
vn 0.1619 -0.7101 0.6852
vn -0.1929 -0.9730 0.1267
vn -0.1989 -0.9775 -0.0703
vn -0.0000 -1.0000 -0.0000
vn -0.4483 -0.0140 -0.8938
vn -0.0000 -0.1602 -0.9871
vn -0.9739 -0.0065 0.2271
vn -0.9081 0.0205 -0.4183
vn -0.9126 0.0099 -0.4088
vn -0.9990 0.0151 -0.0421
vn -0.9990 0.0025 -0.0456
vn -0.1409 -0.9733 -0.1812
vn -0.0000 -0.9715 -0.2370
vn 0.5834 -0.0411 0.8112
vn -0.0000 -0.0493 0.9988
vn -0.0000 -0.0109 0.9999
vn 0.5986 -0.0109 0.8010
vn 0.9930 0.0312 0.1141
vn 0.9414 0.0884 0.3256
vn 0.9060 -0.0919 0.4132
vn 0.9610 -0.1820 0.2082
vn 0.9707 -0.0142 0.2399
vn 0.8522 -0.0285 0.5225
vn 0.8660 -0.0106 0.5000
vn 0.9739 -0.0065 0.2271
vn 0.5331 0.0622 -0.8437
vn 0.5393 0.0434 -0.8410
vn -0.1619 -0.7101 0.6852
vn -0.1819 -0.8588 0.4789
vn -0.9756 0.0208 0.2184
vn 0.9065 0.0298 -0.4211
vn 0.9991 0.0030 -0.0424
vn 0.9990 0.0025 -0.0456
vn 0.9081 0.0205 -0.4183
vn -0.9224 -0.2104 -0.3238
vn -0.9279 -0.0169 -0.3724
vn -0.5834 -0.0411 0.8112
vn -0.0000 -0.0837 0.9965
vn 0.9512 0.0168 0.3082
vn 0.6858 -0.0053 0.7277
vn 0.6670 -0.0084 0.7450
vn 0.9391 0.0095 0.3436
vn -0.0000 -0.0015 -1.0000
vn -0.5595 -0.0011 -0.8288
vn 0.9984 0.0457 -0.0345
vn 0.9901 0.0404 0.1348
vn 0.9888 0.0264 0.1469
vn 0.9989 0.0136 -0.0450
vn 0.9280 0.0288 -0.3714
vn 0.9104 -0.0512 -0.4105
vn -0.5278 -0.0405 -0.8484
vn -0.9032 0.0084 -0.4291
vn -0.9043 -0.0357 -0.4254
vn -0.9414 0.0884 0.3256
vn 0.4483 -0.0140 -0.8938
vn 0.6502 -0.0007 -0.7598
vn 0.6014 -0.1258 -0.7890
vn -0.9845 0.0379 0.1711
vn 0.6661 0.2026 0.7178
vn -0.0000 0.1604 0.9871
vn 0.6469 0.0560 0.7605
vn -0.9986 -0.0314 -0.0417
vn -0.9734 -0.0321 0.2267
vn 0.9195 0.0033 0.3932
vn 0.6526 -0.0137 0.7576
vn 0.6296 -0.0497 0.7753
vn 0.9003 -0.0205 0.4347
vn -0.0000 -0.1058 0.9944
vn 0.9994 -0.0083 -0.0337
vn 0.9829 0.0120 0.1838
vn 0.9764 -0.0129 0.2156
vn 0.9989 -0.0255 -0.0391
vn 0.9104 -0.0852 -0.4048
vn 0.9059 -0.0614 -0.4190
vn -0.0000 -0.2417 -0.9703
vn 0.5601 -0.1900 -0.8063
vn 0.5385 -0.1116 -0.8352
vn -0.0000 -0.1348 -0.9909
vn -0.5385 -0.1116 -0.8352
vn -0.5601 -0.1900 -0.8063
vn 0.8741 -0.0465 0.4835
vn 0.6021 -0.0816 0.7942
vn 0.5816 -0.0669 0.8107
vn 0.8549 -0.0401 0.5172
vn 0.9986 -0.0314 -0.0417
vn 0.9734 -0.0321 0.2267
vn 0.9714 -0.0201 0.2365
vn 0.9990 -0.0073 -0.0436
vn 0.9043 -0.0357 -0.4254
vn 0.9032 0.0084 -0.4291
vn -0.9989 0.0136 -0.0450
vn -0.9984 0.0457 -0.0345
vn -0.0000 -0.0412 -0.9992
vn 0.5278 -0.0405 -0.8484
vn 0.5258 0.0266 -0.8502
vn 0.5477 0.0033 -0.8367
vn 0.9126 0.0099 -0.4088
vn 0.9173 0.0027 -0.3981
vn 0.5595 -0.0011 -0.8288
vn -0.9984 0.0125 -0.0543
vn -0.9973 -0.0029 -0.0738
vn -0.9930 0.0312 0.1141
vn 0.9990 0.0151 -0.0421
vn 0.9984 0.0125 -0.0543
vn -0.9512 0.0168 0.3082
vn -0.9391 0.0095 0.3436
vn -0.9065 0.0298 -0.4211
vn -0.9173 0.0027 -0.3981
vn -0.9901 0.0404 0.1348
vn -0.9888 0.0264 0.1469
vn -0.9610 -0.1820 0.2082
vn -0.9060 -0.0919 0.4132
vn 0.9973 -0.0029 -0.0738
vn -0.9760 -0.2146 -0.0369
vn 0.9760 -0.2146 -0.0369
vn -0.1370 -0.6587 0.7398
vn -0.6469 0.0560 0.7605
vn 0.1989 -0.9775 -0.0703
vn 0.1409 -0.9733 -0.1812
vn 0.6794 -0.6961 -0.2319
vn 0.6911 -0.7203 0.0588
vn 0.4643 -0.6806 -0.5667
vn -0.0000 -0.6713 -0.7412
vn -0.4643 -0.6806 -0.5667
vn -0.6794 -0.6961 -0.2319
vn -0.6911 -0.7203 0.0588
vn 0.6075 -0.4831 0.6305
vn 0.6619 -0.6344 0.3994
vn -0.6075 -0.4831 0.6305
vn -0.6619 -0.6344 0.3994
vn -0.0000 -0.2364 0.9717
vn 0.4611 -0.3426 0.8185
vn -0.4611 -0.3426 0.8185
vn -0.0000 1.0000 -0.0000
vn 0.9995 -0.0000 0.0320
vn 0.9958 -0.0000 -0.0919
vn -0.9342 0.0745 0.3490
vn -0.9296 0.1133 0.3507
vn -0.9754 0.0661 0.2105
vn -0.9722 0.0513 0.2283
vn 0.9981 -0.0000 0.0623
vn 0.9680 -0.0000 -0.2509
vn -0.0000 -0.0000 -1.0000
vn -0.4794 -0.0000 -0.8776
vn 0.9722 0.0512 0.2283
vn 0.9754 0.0661 0.2105
vn 0.9296 0.1133 0.3507
vn 0.9342 0.0745 0.3490
vn -0.9995 -0.0000 0.0320
vn -0.9958 -0.0000 -0.0919
vn -0.0000 -0.9999 -0.0137
vn -0.0000 -0.9999 -0.0155
vn -0.9847 -0.0000 0.1741
vn -0.9846 -0.0000 0.1747
vn 0.9847 -0.0000 0.1741
vn -0.9981 -0.0000 0.0623
vn -0.9680 -0.0000 -0.2509
vn 0.4794 -0.0000 -0.8776
vn -0.0000 -0.9512 -0.3086
vn -0.0000 -0.9781 -0.2080
vn -0.0019 -0.9789 -0.2042
vn -0.0028 -0.9530 -0.3029
vn 0.9977 0.0053 0.0674
vn 0.9891 0.0022 0.1469
vn 0.9893 0.0033 0.1455
vn 0.9976 0.0078 0.0694
vn -0.0000 0.9889 -0.1485
vn -0.0000 0.9973 -0.0733
vn -0.0001 0.9977 -0.0683
vn 0.0001 0.9890 -0.1477
vn -0.9976 -0.0069 0.0685
vn -0.9890 -0.0027 0.1477
vn -0.9898 -0.0042 0.1421
vn -0.9976 -0.0094 0.0686
vn -0.0001 0.9890 -0.1477
vn 0.0001 0.9977 -0.0683
vn 0.0028 -0.9530 -0.3029
vn 0.0019 -0.9789 -0.2042
vn -0.0000 -0.9951 -0.0990
vn -0.0000 -0.9960 -0.0896
vn 0.9758 -0.0000 0.2186
vn 0.9758 -0.0000 0.2185
vn -0.0000 1.0000 -0.0081
vn -0.0000 1.0000 -0.0094
vn -0.9758 -0.0000 0.2186
vn -0.9760 -0.0000 0.2178
vn -0.9959 -0.0000 -0.0906
vn 0.9959 -0.0000 -0.0906
vn 0.9898 -0.0042 0.1421
vn 0.9760 -0.0000 0.2178
vn 0.9890 -0.0027 0.1477
vn 0.9893 -0.0014 0.1458
vn 0.9894 -0.0002 0.1451
vn 0.9894 0.0008 0.1455
vn -0.9893 0.0034 0.1455
vn -0.9758 -0.0000 0.2185
vn -0.9891 0.0022 0.1469
vn -0.9894 0.0008 0.1455
vn -0.9894 -0.0002 0.1451
vn -0.9893 -0.0014 0.1458
vn 0.9846 -0.0000 0.1747
vn -0.9976 0.0078 0.0694
vn -0.9977 0.0053 0.0674
vn -0.9979 0.0019 0.0654
vn -0.9979 -0.0005 0.0648
vn -0.9978 -0.0034 0.0659
vn 0.9976 -0.0094 0.0686
vn 0.9976 -0.0069 0.0685
vn 0.9978 -0.0034 0.0659
vn 0.9979 -0.0005 0.0648
vn 0.9979 0.0019 0.0654
vn 0.9733 -0.0801 0.2152
vn 0.9724 -0.0654 0.2240
vn 0.9334 -0.0993 0.3448
vn 0.9294 -0.1312 0.3449
vn 0.9748 -0.0330 0.2208
vn 0.9377 -0.0519 0.3437
vn 0.9751 -0.0062 0.2216
vn 0.9391 -0.0104 0.3436
vn 0.9751 0.0178 0.2211
vn 0.9380 0.0273 0.3456
vn -0.9294 -0.1312 0.3449
vn -0.9334 -0.0993 0.3448
vn -0.9724 -0.0654 0.2240
vn -0.9733 -0.0801 0.2152
vn -0.9377 -0.0519 0.3437
vn -0.9748 -0.0330 0.2208
vn -0.9391 -0.0104 0.3436
vn -0.9751 -0.0062 0.2216
vn -0.9380 0.0273 0.3456
vn -0.9751 0.0178 0.2211
vn 0.9978 0.0042 0.0660
vn 0.9976 0.0121 0.0684
vn 0.9978 -0.0014 0.0655
vn 0.9978 -0.0077 0.0659
vn 0.9976 -0.0156 0.0675
vn 0.9974 -0.0209 0.0686
vn -0.9978 -0.0077 0.0659
vn -0.9976 -0.0156 0.0675
vn -0.9978 -0.0014 0.0655
vn -0.9978 0.0042 0.0660
vn -0.9976 0.0121 0.0684
vn -0.9975 0.0170 0.0680
vn 0.0041 -0.9383 -0.3458
vn -0.0031 -0.9201 -0.3918
vn -0.0000 -0.9203 -0.3913
vn -0.0000 -0.9488 -0.3159
vn -0.0016 0.9842 -0.1773
vn -0.0013 0.9809 -0.1945
vn -0.0000 0.9806 -0.1961
vn -0.0000 0.9858 -0.1680
vn -0.9974 -0.0209 0.0686
vn 0.0013 0.9809 -0.1945
vn 0.0016 0.9842 -0.1773
vn 0.9975 0.0170 0.0680
vn 0.0031 -0.9201 -0.3918
vn -0.0041 -0.9383 -0.3458
vn -0.0000 -0.9754 -0.2202
vn -0.0000 0.9935 -0.1138
vt 0.187415 0.149430
vt 0.186946 0.209544
vt 0.175934 0.209544
vt 0.175934 0.149430
vt 0.284237 0.149430
vt 0.272539 0.209544
vt 0.253999 0.209544
vt 0.262947 0.149430
vt 0.188970 0.799202
vt 0.190198 0.895442
vt 0.175935 0.895442
vt 0.175935 0.799202
vt 0.239048 0.379026
vt 0.237701 0.489316
vt 0.219649 0.489316
vt 0.220869 0.379026
vt 0.286232 0.379026
vt 0.284915 0.489316
vt 0.268692 0.489316
vt 0.270115 0.379026
vt 0.126018 0.700107
vt 0.144462 0.700107
vt 0.137027 0.799202
vt 0.113394 0.799202
vt 0.164645 0.700107
vt 0.175935 0.700107
vt 0.162899 0.799202
vt 0.204958 0.600290
vt 0.207407 0.700107
vt 0.187224 0.700107
vt 0.186956 0.600264
vt 0.214842 0.799202
vt 0.189688 0.005396
vt 0.187359 0.087972
vt 0.175934 0.087972
vt 0.175934 0.005396
vt 0.203358 0.489316
vt 0.203420 0.379026
vt 0.204385 0.292398
vt 0.186661 0.379026
vt 0.186702 0.292398
vt 0.038458 0.895442
vt 0.056668 0.895442
vt 0.042735 0.988983
vt 0.022930 0.984381
vt 0.233424 0.209544
vt 0.241798 0.149430
vt 0.877819 0.107241
vt 0.860976 0.107803
vt 0.860248 0.074477
vt 0.876484 0.074123
vt 0.291705 0.599369
vt 0.296527 0.700107
vt 0.280342 0.700107
vt 0.275592 0.600021
vt 0.330530 0.895442
vt 0.346473 0.980798
vt 0.328939 0.984381
vt 0.313412 0.895442
vt 0.209280 0.209544
vt 0.211120 0.149430
vt 0.323904 0.005396
vt 0.321868 0.087972
vt 0.302281 0.087972
vt 0.305870 0.005396
vt 0.021339 0.895442
vt 0.005396 0.980798
vt 0.865652 0.171597
vt 0.862408 0.173367
vt 0.861831 0.146955
vt 0.873926 0.146707
vt 0.844012 0.074832
vt 0.846003 0.054262
vt 0.859804 0.054139
vt 0.343771 0.005396
vt 0.339808 0.087972
vt 0.223752 0.600303
vt 0.260181 0.600214
vt 0.264322 0.700107
vt 0.246390 0.700107
vt 0.243110 0.600279
vt 0.852378 0.042963
vt 0.859499 0.040194
vt 0.165176 0.489316
vt 0.175935 0.489316
vt 0.175935 0.600235
vt 0.164913 0.600264
vt 0.107065 0.895442
vt 0.135957 0.895442
vt 0.132360 0.976179
vt 0.099290 0.992985
vt 0.132220 0.489316
vt 0.148512 0.489316
vt 0.146911 0.600290
vt 0.128117 0.600303
vt 0.066954 0.489316
vt 0.083177 0.489316
vt 0.076277 0.600021
vt 0.060164 0.599369
vt 0.849737 0.147235
vt 0.844125 0.107977
vt 0.225851 0.700107
vt 0.098126 0.489316
vt 0.114168 0.489316
vt 0.108759 0.600279
vt 0.091688 0.600214
vt 0.309134 0.988983
vt 0.295202 0.895442
vt 0.186693 0.489316
vt 0.175934 0.379026
vt 0.136353 0.005396
vt 0.162181 0.005396
vt 0.164509 0.087972
vt 0.139927 0.087972
vt 0.311044 0.799202
vt 0.293616 0.799202
vt 0.069917 0.005396
vt 0.101292 0.005396
vt 0.103108 0.087972
vt 0.072560 0.087972
vt 0.045999 0.005396
vt 0.049588 0.087972
vt 0.276161 0.292398
vt 0.255182 0.379026
vt 0.260698 0.292398
vt 0.215912 0.895442
vt 0.008098 0.005396
vt 0.027965 0.005396
vt 0.030001 0.087972
vt 0.012061 0.087972
vt 0.238475 0.799202
vt 0.161672 0.895442
vt 0.175935 0.959524
vt 0.161981 0.962620
vt 0.244239 0.292398
vt 0.225848 0.292398
vt 0.140748 0.149430
vt 0.164454 0.149430
vt 0.164922 0.209544
vt 0.142589 0.209544
vt 0.175934 0.292398
vt 0.088922 0.149430
vt 0.110071 0.149430
vt 0.118445 0.209544
vt 0.097870 0.209544
vt 0.067632 0.149430
vt 0.079330 0.209544
vt 0.030088 0.149430
vt 0.048580 0.149430
vt 0.062019 0.209544
vt 0.043345 0.209544
vt 0.321780 0.149430
vt 0.308524 0.209544
vt 0.289850 0.209544
vt 0.303289 0.149430
vt 0.147484 0.292398
vt 0.165167 0.292398
vt 0.165208 0.379026
vt 0.148449 0.379026
vt 0.107630 0.292398
vt 0.126020 0.292398
vt 0.131000 0.379026
vt 0.112821 0.379026
vt 0.091171 0.292398
vt 0.096687 0.379026
vt 0.279309 0.087972
vt 0.281952 0.005396
vt 0.058931 0.292398
vt 0.075708 0.292398
vt 0.081754 0.379026
vt 0.065637 0.379026
vt 0.071527 0.700107
vt 0.087547 0.700107
vt 0.074775 0.799202
vt 0.058253 0.799202
vt 0.055342 0.700107
vt 0.040825 0.799202
vt 0.258990 0.799202
vt 0.274080 0.895442
vt 0.244804 0.895442
vt 0.105479 0.700107
vt 0.092879 0.799202
vt 0.215516 0.005396
vt 0.211942 0.087972
vt 0.253743 0.489316
vt 0.277094 0.799202
vt 0.250577 0.005396
vt 0.248761 0.087972
vt 0.252579 0.992985
vt 0.219509 0.976179
vt 0.292938 0.292398
vt 0.077789 0.895442
vt 0.285817 0.994604
vt 0.066052 0.994604
vt 0.859090 0.171740
vt 0.189888 0.962620
vt 0.873597 0.053659
vt 0.866735 0.042649
vt 0.883006 0.050228
vt 0.886556 0.073919
vt 0.893467 0.045223
vt 0.898300 0.073603
vt 0.872788 0.035304
vt 0.878818 0.026004
vt 0.859296 0.030906
vt 0.859067 0.020427
vt 0.825784 0.046701
vt 0.839579 0.026861
vt 0.846009 0.035889
vt 0.836453 0.051244
vt 0.822194 0.075266
vt 0.833941 0.075068
vt 0.898300 0.112110
vt 0.894608 0.155541
vt 0.884940 0.148804
vt 0.887918 0.108292
vt 0.838825 0.149812
vt 0.834081 0.109468
vt 0.829460 0.156964
vt 0.823875 0.113735
vt 0.879757 0.191667
vt 0.862977 0.199418
vt 0.862685 0.186031
vt 0.873343 0.180321
vt 0.851787 0.180791
vt 0.845875 0.192407
vt 0.735962 0.088287
vt 0.735962 0.059932
vt 0.772877 0.059932
vt 0.776406 0.088287
vt 0.414476 0.354144
vt 0.414475 0.396472
vt 0.383318 0.396472
vt 0.383318 0.354143
vt 0.668153 0.341110
vt 0.668153 0.384764
vt 0.627710 0.384771
vt 0.625629 0.341110
vt 0.401790 0.951401
vt 0.356535 0.936938
vt 0.357148 0.931915
vt 0.402141 0.946103
vt 0.570265 0.446159
vt 0.570265 0.451469
vt 0.539106 0.451469
vt 0.539106 0.446159
vt 0.383316 0.490102
vt 0.414474 0.490102
vt 0.414473 0.521679
vt 0.383315 0.521678
vt 0.402164 0.034099
vt 0.357170 0.048284
vt 0.356558 0.043261
vt 0.401813 0.028801
vt 0.539097 0.626066
vt 0.539100 0.583736
vt 0.570258 0.583738
vt 0.570256 0.626069
vt 0.705626 0.294204
vt 0.710677 0.341110
vt 0.668153 0.294204
vt 0.735962 0.178856
vt 0.698488 0.178856
vt 0.693437 0.131949
vt 0.735962 0.131949
vt 0.539093 0.671752
vt 0.570252 0.671756
vt 0.778487 0.131949
vt 0.773436 0.178856
vt 0.414476 0.308459
vt 0.383320 0.308458
vt 0.630680 0.294204
vt 0.539107 0.490103
vt 0.570265 0.490102
vt 0.570262 0.521688
vt 0.539104 0.521686
vt 0.507949 0.490103
vt 0.507946 0.521685
vt 0.708596 0.384771
vt 0.383315 0.534040
vt 0.383315 0.528731
vt 0.414473 0.528732
vt 0.414472 0.534042
vt 0.539106 0.458522
vt 0.570265 0.458522
vt 0.699192 0.031808
vt 0.703576 0.025992
vt 0.735962 0.022168
vt 0.735962 0.031808
vt 0.668153 0.121814
vt 0.668153 0.179671
vt 0.654576 0.179671
vt 0.659764 0.122195
vt 0.411762 0.134741
vt 0.414360 0.195877
vt 0.382394 0.195869
vt 0.375204 0.139506
vt 0.735962 0.351053
vt 0.735962 0.292644
vt 0.749539 0.292644
vt 0.744352 0.351099
vt 0.564122 0.843271
vt 0.549717 0.784348
vt 0.580501 0.784365
vt 0.594381 0.838515
vt 0.727572 0.351099
vt 0.722385 0.292644
vt 0.676542 0.122195
vt 0.681730 0.179671
vt 0.668153 0.231786
vt 0.644582 0.231786
vt 0.414792 0.246565
vt 0.383324 0.246562
vt 0.759533 0.241245
vt 0.735962 0.241245
vt 0.540649 0.733650
vt 0.572122 0.733658
vt 0.712391 0.241245
vt 0.691724 0.231786
vt 0.705067 0.413125
vt 0.668153 0.413126
vt 0.539102 0.556066
vt 0.570260 0.556068
vt 0.414475 0.424142
vt 0.383317 0.424142
vt 0.631239 0.413125
vt 0.539104 0.534049
vt 0.539104 0.528739
vt 0.570262 0.528741
vt 0.570262 0.534051
vt 0.704040 0.435837
vt 0.668153 0.435838
vt 0.414475 0.446159
vt 0.383317 0.446159
vt 0.632266 0.435837
vt 0.735962 0.037219
vt 0.771850 0.037220
vt 0.699047 0.059932
vt 0.700074 0.037220
vt 0.383314 0.556057
vt 0.414471 0.556059
vt 0.445630 0.534044
vt 0.445629 0.556060
vt 0.476788 0.534045
vt 0.476787 0.556062
vt 0.507946 0.534047
vt 0.507944 0.556064
vt 0.570265 0.424142
vt 0.539106 0.424142
vt 0.507948 0.446159
vt 0.507948 0.424142
vt 0.476790 0.446160
vt 0.476790 0.424143
vt 0.445632 0.446160
vt 0.445633 0.424143
vt 0.539106 0.396472
vt 0.570264 0.396471
vt 0.507948 0.396472
vt 0.476790 0.396473
vt 0.445633 0.396473
vt 0.414470 0.583729
vt 0.383312 0.583727
vt 0.445627 0.583730
vt 0.476785 0.583732
vt 0.507943 0.583734
vt 0.580516 0.195845
vt 0.572134 0.246551
vt 0.540662 0.246557
vt 0.549732 0.195860
vt 0.509192 0.246563
vt 0.515095 0.195873
vt 0.477725 0.246566
vt 0.479562 0.195881
vt 0.446259 0.246567
vt 0.446736 0.195882
vt 0.382378 0.784331
vt 0.383311 0.733638
vt 0.414780 0.733636
vt 0.414344 0.784324
vt 0.446246 0.733636
vt 0.446720 0.784321
vt 0.477712 0.733638
vt 0.479546 0.784324
vt 0.509180 0.733643
vt 0.515080 0.784333
vt 0.383310 0.671743
vt 0.414467 0.671743
vt 0.445623 0.671744
vt 0.476779 0.671746
vt 0.507935 0.671749
vt 0.570261 0.308453
vt 0.539103 0.308455
vt 0.507945 0.308457
vt 0.476789 0.308459
vt 0.445632 0.308459
vt 0.375186 0.840694
vt 0.411744 0.845461
vt 0.448485 0.847385
vt 0.484767 0.848000
vt 0.526014 0.846495
vt 0.594398 0.141696
vt 0.564139 0.136938
vt 0.526032 0.133712
vt 0.484786 0.132205
vt 0.448503 0.132819
vt 0.668153 0.441249
vt 0.668153 0.450889
vt 0.635767 0.447065
vt 0.631384 0.441249
vt 0.476790 0.458522
vt 0.507948 0.458522
vt 0.476790 0.490103
vt 0.445632 0.458522
vt 0.445632 0.490103
vt 0.414475 0.458522
vt 0.383317 0.458522
vt 0.445631 0.521681
vt 0.476789 0.521683
vt 0.570263 0.354141
vt 0.539105 0.354142
vt 0.507947 0.354143
vt 0.476790 0.354144
vt 0.445633 0.354144
vt 0.383311 0.626057
vt 0.414468 0.626058
vt 0.445625 0.626059
vt 0.476782 0.626061
vt 0.507940 0.626063
vt 0.631094 0.054818
vt 0.592799 0.040652
vt 0.593746 0.035489
vt 0.632166 0.049932
vt 0.545105 0.030978
vt 0.545727 0.025621
vt 0.497455 0.026466
vt 0.497752 0.021021
vt 0.449812 0.028292
vt 0.449788 0.022880
vt 0.414475 0.451469
vt 0.383317 0.451469
vt 0.445633 0.451469
vt 0.476790 0.451470
vt 0.507948 0.451469
vt 0.768348 0.025992
vt 0.772732 0.031808
vt 0.445630 0.528734
vt 0.476788 0.528735
vt 0.507946 0.528737
vt 0.632144 0.930281
vt 0.593724 0.944722
vt 0.592777 0.939559
vt 0.631073 0.925395
vt 0.545703 0.954587
vt 0.545082 0.949230
vt 0.497729 0.959185
vt 0.497431 0.953740
vt 0.449764 0.957324
vt 0.449789 0.951911
vt 0.449830 0.080593
vt 0.406942 0.084442
vt 0.492698 0.079364
vt 0.535579 0.082381
vt 0.578490 0.088831
vt 0.611050 0.098344
vt 0.535558 0.897827
vt 0.578470 0.891379
vt 0.492678 0.900842
vt 0.449809 0.899610
vt 0.406921 0.895760
vt 0.367404 0.886234
vt 0.669969 0.025019
vt 0.674278 0.074314
vt 0.668153 0.074638
vt 0.668153 0.024828
vt 0.734148 0.446947
vt 0.729842 0.398769
vt 0.735962 0.398850
vt 0.735962 0.446954
vt 0.611031 0.881868
vt 0.742082 0.398769
vt 0.737776 0.446947
vt 0.367424 0.093966
vt 0.662028 0.074314
vt 0.666337 0.025019
vt 0.695518 0.088287
vt 0.704922 0.441249
vt 0.700539 0.447065
vt 0.668153 0.020182
vt 0.735962 0.451848
s 1
f 198/1/1 93/2/2 38/3/3 192/4/4
f 193/5/5 91/6/6 94/7/7 187/8/8
f 108/9/9 126/10/10 84/11/11 52/12/12
f 100/13/13 118/14/14 117/15/15 102/16/16
f 45/17/17 76/18/18 120/19/19 101/20/20
f 61/21/21 60/22/22 50/23/23 51/24/24
f 62/25/25 68/26/26 52/12/12 53/27/27
f 63/28/28 110/29/29 112/30/30 58/31/31
f 110/29/29 106/32/32 108/9/9 112/30/30
f 26/33/33 81/34/34 28/35/35 1/36/36
f 102/16/16 117/15/15 116/37/37 98/38/38
f 127/39/39 98/38/38 99/40/40 139/41/41
f 87/42/42 83/43/43 161/44/44 149/45/45
f 187/8/8 94/7/7 96/46/46 199/47/47
f 166/48/48 144/49/49 142/50/50 146/51/51
f 10/52/52 69/53/53 109/54/54 56/55/55
f 85/56/56 152/57/57 158/58/58 123/59/59
f 199/47/47 96/46/46 92/60/60 200/61/61
f 19/62/62 70/63/63 66/64/64 23/65/65
f 85/66/56 87/42/42 149/45/45 152/67/57
f 184/68/66 179/69/67 143/70/68 176/71/69
f 176/71/69 143/70/68 144/49/49 166/48/48
f 142/50/50 154/72/70 163/73/71 141/74/72
f 2/75/73 22/76/74 70/63/63 19/62/62
f 117/15/15 55/77/75 63/28/28 116/37/37
f 64/78/76 114/79/77 113/80/78 57/81/79
f 141/74/72 163/73/71 157/82/80 151/83/81
f 71/84/82 72/85/83 9/86/84 14/87/85
f 89/88/86 88/89/87 175/90/88 167/91/89
f 74/92/90 73/93/91 15/94/92 11/95/93
f 73/93/91 71/84/82 14/87/85 15/94/92
f 76/96/18 79/97/94 12/98/95 10/99/52
f 143/70/68 169/100/96 173/101/97 144/49/49
f 76/18/18 10/52/52 56/55/55 120/19/19
f 55/77/75 111/102/98 110/29/29 63/28/28
f 78/103/99 75/104/100 13/105/101 16/106/102
f 75/104/100 74/92/90 11/95/93 13/105/101
f 79/97/94 78/103/99 16/106/102 12/98/95
f 123/59/59 158/58/58 164/107/103 122/108/104
f 99/40/40 115/109/105 72/85/83 46/110/106
f 6/111/107 7/112/108 27/113/109 24/114/110
f 7/112/108 1/36/36 28/35/35 27/113/109
f 69/53/53 54/115/111 105/116/112 109/54/54
f 4/117/113 8/118/114 21/119/115 29/120/116
f 5/121/117 4/117/113 29/120/116 17/122/118
f 140/123/119 101/20/20 97/124/120 137/125/121
f 106/32/32 124/126/122 126/10/10 108/9/9
f 2/127/123 3/128/124 18/129/125 22/130/74
f 8/118/114 6/111/107 24/114/110 21/119/115
f 111/102/98 107/131/126 106/32/32 110/29/29
f 90/132/127 84/11/11 178/133/128 185/134/129
f 3/128/124 5/121/117 17/122/118 18/129/125
f 138/135/130 100/13/13 102/16/16 128/136/131
f 195/137/132 196/138/133 32/139/134 31/140/135
f 196/138/133 192/4/4 38/3/3 32/139/134
f 139/41/41 99/40/40 46/110/106 132/141/136
f 58/31/31 112/30/30 68/26/26 9/86/84
f 197/142/137 190/143/138 35/144/139 33/145/140
f 194/146/141 197/142/137 33/145/140 30/147/142
f 137/125/121 97/124/120 100/13/13 138/135/130
f 200/61/61 92/60/60 93/2/2 198/1/1
f 191/148/143 189/149/144 34/150/145 36/151/146
f 190/143/138 195/137/132 31/140/135 35/144/139
f 191/152/143 36/153/146 95/154/147 188/155/148
f 57/81/79 113/80/78 111/102/98 55/77/75
f 189/149/144 194/146/141 30/147/142 34/150/145
f 134/156/149 135/157/150 41/158/151 40/159/152
f 135/157/150 132/141/136 46/110/106 41/158/151
f 136/160/153 130/161/154 44/162/155 42/163/156
f 133/164/157 136/160/153 42/163/156 39/165/158
f 23/65/65 66/64/64 86/166/159 20/167/160
f 188/155/148 95/154/147 91/6/6 193/5/5
f 131/168/161 129/169/162 43/170/163 45/171/17
f 130/161/154 134/156/149 40/159/152 44/162/155
f 129/169/162 133/164/157 39/165/158 43/170/163
f 60/22/22 62/25/25 53/27/27 50/23/23
f 59/172/164 67/173/165 48/174/166 49/175/167
f 98/38/38 116/37/37 115/109/105 99/40/40
f 69/176/53 59/172/164 49/175/167 54/177/111
f 103/178/168 121/179/169 125/180/170 107/131/126
f 67/173/165 65/181/171 47/182/172 48/174/166
f 25/183/173 80/184/174 81/34/34 26/33/33
f 97/124/120 119/185/175 118/14/14 100/13/13
f 65/181/171 61/21/21 51/24/24 47/182/172
f 114/79/77 104/186/176 103/178/168 113/80/78
f 109/54/54 105/116/112 104/186/176 114/79/77
f 101/20/20 120/19/19 119/185/175 97/124/120
f 13/105/101 11/95/93 61/21/21 65/181/171
f 37/187/177 77/188/178 80/184/174 25/183/173
f 16/106/102 13/105/101 65/181/171 67/173/165
f 10/99/52 12/98/95 59/172/164 69/176/53
f 113/80/78 103/178/168 107/131/126 111/102/98
f 54/115/111 85/56/56 123/59/59 105/116/112
f 12/98/95 16/106/102 67/173/165 59/172/164
f 15/94/92 14/87/85 62/25/25 60/22/22
f 107/131/126 125/180/170 124/126/122 106/32/32
f 14/87/85 9/86/84 68/26/26 62/25/25
f 11/95/93 15/94/92 60/22/22 61/21/21
f 125/180/170 172/189/179 170/190/180 124/126/122
f 43/170/163 39/165/158 78/103/99 79/97/94
f 112/30/30 108/9/9 52/12/12 68/26/26
f 42/163/156 44/162/155 74/92/90 75/104/100
f 39/165/158 42/163/156 75/104/100 78/103/99
f 173/101/97 154/72/70 142/50/50 144/49/49
f 56/55/55 109/54/54 114/79/77 64/78/76
f 45/171/17 43/170/163 79/97/94 76/96/18
f 40/159/152 41/158/151 71/84/82 73/93/91
f 44/162/155 40/159/152 73/93/91 74/92/90
f 118/14/14 57/81/79 55/77/75 117/15/15
f 41/158/151 46/110/106 72/85/83 71/84/82
f 120/19/19 56/55/55 64/78/76 119/185/175
f 119/185/175 64/78/76 57/81/79 118/14/14
f 116/37/37 63/28/28 58/31/31 115/109/105
f 105/116/112 123/59/59 122/108/104 104/186/176
f 53/27/27 52/12/12 84/11/11 90/132/127
f 51/24/24 50/23/23 88/89/87 89/88/86
f 50/23/23 53/27/27 90/132/127 88/89/87
f 49/175/167 48/174/166 83/43/43 87/42/42
f 131/191/161 45/17/17 101/20/20 140/123/119
f 115/109/105 58/31/31 9/86/84 72/85/83
f 54/177/111 49/175/167 87/42/42 85/66/56
f 48/174/166 47/182/172 82/192/181 83/43/43
f 128/136/131 102/16/16 98/38/38 127/39/39
f 47/182/172 51/24/24 89/88/86 82/192/181
f 104/186/176 122/108/104 121/179/169 103/178/168
f 20/167/160 86/166/159 77/188/178 37/187/177
f 96/46/46 128/136/131 127/39/39 92/60/60
f 36/153/146 131/191/161 140/123/119 95/154/147
f 34/150/145 30/147/142 133/164/157 129/169/162
f 35/144/139 31/140/135 134/156/149 130/161/154
f 36/151/146 34/150/145 129/169/162 131/168/161
f 30/147/142 33/145/140 136/160/153 133/164/157
f 33/145/140 35/144/139 130/161/154 136/160/153
f 32/139/134 38/3/3 132/141/136 135/157/150
f 31/140/135 32/139/134 135/157/150 134/156/149
f 91/6/6 137/125/121 138/135/130 94/7/7
f 93/2/2 139/41/41 132/141/136 38/3/3
f 94/7/7 138/135/130 128/136/131 96/46/46
f 95/154/147 140/123/119 137/125/121 91/6/6
f 92/60/60 127/39/39 139/41/41 93/2/2
f 121/179/169 155/193/182 172/189/179 125/180/170
f 82/192/181 89/88/86 167/91/89 145/194/183
f 169/100/96 143/70/68 179/69/67 181/195/184
f 126/10/10 182/196/185 178/133/128 84/11/11
f 124/126/122 170/190/180 182/196/185 126/10/10
f 160/197/186 141/74/72 151/83/81 148/198/187
f 122/108/104 164/107/103 155/193/182 121/179/169
f 88/89/87 90/132/127 185/134/129 175/90/88
f 146/51/51 160/197/186 162/199/188 147/200/189
f 147/200/189 162/199/188 161/201/44 145/202/183
f 160/197/186 148/198/187 150/203/190 162/199/188
f 162/199/188 150/203/190 149/204/45 161/201/44
f 148/198/187 151/83/81 153/205/191 150/203/190
f 150/203/190 153/205/191 152/206/57 149/204/45
f 164/207/103 158/208/58 159/209/192 165/210/193
f 165/210/193 159/209/192 157/82/80 163/73/71
f 155/211/182 164/207/103 165/210/193 156/212/194
f 156/212/194 165/210/193 163/73/71 154/72/70
f 158/208/58 152/206/57 153/205/191 159/209/192
f 159/209/192 153/205/191 151/83/81 157/82/80
f 167/213/89 175/214/88 177/215/195 168/216/196
f 168/216/196 177/215/195 176/71/69 166/48/48
f 173/101/97 169/100/96 171/217/197 174/218/198
f 174/218/198 171/217/197 170/219/180 172/220/179
f 185/221/129 178/222/128 180/223/199 186/224/200
f 186/224/200 180/223/199 179/69/67 184/68/66
f 181/195/184 179/69/67 180/223/199 183/225/201
f 183/225/201 180/223/199 178/222/128 182/226/185
f 175/214/88 185/221/129 186/224/200 177/215/195
f 177/215/195 186/224/200 184/68/66 176/71/69
f 169/100/96 181/195/184 183/225/201 171/217/197
f 171/217/197 183/225/201 182/226/185 170/219/180
f 145/202/183 167/213/89 168/216/196 147/200/189
f 147/200/189 168/216/196 166/48/48 146/51/51
f 154/72/70 173/101/97 174/218/198 156/212/194
f 156/212/194 174/218/198 172/220/179 155/211/182
f 83/43/43 82/192/181 145/194/183 161/44/44
f 146/51/51 142/50/50 141/74/72 160/197/186
f 70/63/63 188/155/148 193/5/5 66/64/64
f 18/129/125 17/122/118 194/146/141 189/149/144
f 22/76/74 191/152/143 188/155/148 70/63/63
f 21/119/115 24/114/110 195/137/132 190/143/138
f 22/130/74 18/129/125 189/149/144 191/148/143
f 80/184/174 200/61/61 198/1/1 81/34/34
f 17/122/118 29/120/116 197/142/137 194/146/141
f 29/120/116 21/119/115 190/143/138 197/142/137
f 27/113/109 28/35/35 192/4/4 196/138/133
f 24/114/110 27/113/109 196/138/133 195/137/132
f 77/188/178 199/47/47 200/61/61 80/184/174
f 86/166/159 187/8/8 199/47/47 77/188/178
f 66/64/64 193/5/5 187/8/8 86/166/159
f 81/34/34 198/1/1 192/4/4 28/35/35
f 374/227/202 239/228/202 238/229/202 237/230/202
f 296/231/203 326/232/204 235/233/204 211/234/203
f 213/235/72 241/236/72 233/237/72 210/238/72
f 264/239/205 207/240/206 203/241/207 254/242/208
f 245/243/209 378/244/210 394/245/210 285/246/209
f 208/247/211 336/248/211 391/249/212 379/250/212
f 259/251/213 204/252/214 207/253/215 264/254/216
f 265/255/217 312/256/218 231/257/218 209/258/217
f 220/259/219 209/260/72 213/235/72 224/261/220
f 249/262/202 222/263/202 211/264/202 248/265/202
f 307/266/221 265/255/217 209/258/217 220/267/222
f 212/268/202 223/269/202 249/262/202 248/265/202
f 331/270/223 296/231/203 211/234/203 222/271/223
f 224/261/220 213/235/72 210/238/72 221/272/219
f 332/273/211 206/274/211 376/275/212 384/276/212
f 333/277/211 332/273/211 384/276/212 386/278/212
f 209/260/72 231/279/72 241/236/72 213/235/72
f 244/280/224 380/281/225 392/282/225 341/283/224
f 393/284/226 377/285/226 206/274/211 332/273/211
f 381/286/202 382/287/202 208/288/202 291/289/202
f 351/290/227 218/291/228 214/292/229 343/293/230
f 372/294/231 301/295/232 215/296/233 345/297/234
f 349/298/235 217/299/236 216/300/237 347/301/238
f 362/302/239 306/303/240 219/304/241 353/305/242
f 345/306/243 215/307/244 217/299/236 349/298/235
f 353/308/245 219/309/246 218/291/228 351/290/227
f 229/310/247 224/261/220 221/272/219 225/311/248
f 274/312/249 331/270/223 222/271/223 226/313/250
f 249/262/202 223/269/202 227/314/251 228/315/252
f 279/316/253 307/266/221 220/267/222 230/317/254
f 228/315/252 226/318/251 222/263/202 249/262/202
f 230/319/248 220/259/219 224/261/220 229/310/247
f 219/309/246 230/319/248 229/310/247 218/291/228
f 215/307/244 226/318/251 228/315/252 217/299/236
f 306/303/240 279/316/253 230/317/254 219/304/241
f 217/299/236 228/315/252 227/314/251 216/300/237
f 301/295/232 274/312/249 226/313/250 215/296/233
f 218/291/228 229/310/247 225/311/248 214/292/229
f 232/320/72 240/321/72 241/236/72 231/279/72
f 317/322/255 232/323/255 231/257/218 312/256/218
f 284/324/256 236/325/256 235/233/204 326/232/204
f 240/321/72 234/326/72 233/237/72 241/236/72
f 337/327/224 383/328/225 375/329/225 242/330/224
f 232/320/72 242/331/72 243/332/72 240/321/72
f 284/324/256 289/333/209 246/334/209 236/325/256
f 240/321/72 243/332/72 245/335/72 234/326/72
f 239/228/202 247/336/202 244/337/202 238/229/202
f 236/338/202 246/339/202 247/336/202 239/228/202
f 317/322/255 337/327/224 242/330/224 232/323/255
f 248/265/202 374/227/202 237/230/202 212/268/202
f 238/340/255 244/280/224 341/283/224 321/341/255
f 321/341/255 341/283/224 340/342/224 320/343/255
f 320/343/255 340/342/224 339/344/224 319/345/255
f 319/345/255 339/344/224 338/346/224 318/347/255
f 318/347/255 338/346/224 337/327/224 317/322/255
f 234/348/256 245/243/209 285/246/209 280/349/256
f 280/349/256 285/246/209 286/350/209 281/351/256
f 281/351/256 286/350/209 287/352/209 282/353/256
f 282/353/256 287/352/209 288/354/209 283/355/256
f 283/355/256 288/354/209 289/333/209 284/324/256
f 234/348/256 280/349/256 322/356/204 233/357/204
f 280/349/256 281/351/256 323/358/204 322/356/204
f 281/351/256 282/353/256 324/359/204 323/358/204
f 282/353/256 283/355/256 325/360/204 324/359/204
f 283/355/256 284/324/256 326/232/204 325/360/204
f 238/340/255 321/341/255 316/361/218 237/362/218
f 321/341/255 320/343/255 315/363/218 316/361/218
f 320/343/255 319/345/255 314/364/218 315/363/218
f 319/345/255 318/347/255 313/365/218 314/364/218
f 318/347/255 317/322/255 312/256/218 313/365/218
f 214/366/257 225/367/258 270/368/249 297/369/259
f 297/369/259 270/368/249 271/370/249 298/371/260
f 298/371/260 271/370/249 272/372/249 299/373/261
f 299/373/261 272/372/249 273/374/249 300/375/262
f 300/375/262 273/374/249 274/312/249 301/295/232
f 216/376/263 227/377/264 275/378/253 302/379/265
f 302/379/265 275/378/253 276/380/253 303/381/266
f 303/381/266 276/380/253 277/382/253 304/383/267
f 304/383/267 277/382/253 278/384/253 305/385/268
f 305/385/268 278/384/253 279/316/253 306/303/240
f 227/377/264 223/386/221 311/387/221 275/378/253
f 275/378/253 311/387/221 310/388/221 276/380/253
f 276/380/253 310/388/221 309/389/221 277/382/253
f 277/382/253 309/389/221 308/390/221 278/384/253
f 278/384/253 308/390/221 307/266/221 279/316/253
f 225/367/258 221/391/269 327/392/223 270/368/249
f 270/368/249 327/392/223 328/393/223 271/370/249
f 271/370/249 328/393/223 329/394/223 272/372/249
f 272/372/249 329/394/223 330/395/223 273/374/249
f 273/374/249 330/395/223 331/270/223 274/312/249
f 347/396/270 216/376/263 302/379/265 354/397/271
f 354/397/271 302/379/265 303/381/266 356/398/272
f 356/398/272 303/381/266 304/383/267 358/399/273
f 358/399/273 304/383/267 305/385/268 360/400/274
f 360/400/274 305/385/268 306/303/240 362/302/239
f 343/401/275 214/366/257 297/369/259 364/402/276
f 364/402/276 297/369/259 298/371/260 366/403/277
f 366/403/277 298/371/260 299/373/261 368/404/278
f 368/404/278 299/373/261 300/375/262 370/405/279
f 370/405/279 300/375/262 301/295/232 372/294/231
f 290/406/72 206/407/72 377/408/72 378/409/72
f 397/410/226 395/411/226 333/277/211 334/412/211
f 399/413/226 397/410/226 334/412/211 335/414/211
f 402/415/226 399/413/226 335/414/211 336/248/211
f 246/339/202 381/286/202 291/289/202 247/336/202
f 382/416/226 402/415/226 336/248/211 208/247/211
f 395/411/226 393/284/226 332/273/211 333/277/211
f 336/248/211 335/414/211 390/417/212 391/249/212
f 335/414/211 334/412/211 388/418/212 390/417/212
f 334/412/211 333/277/211 386/278/212 388/418/212
f 221/391/269 210/419/203 292/420/203 327/392/223
f 327/392/223 292/420/203 293/421/203 328/393/223
f 328/393/223 293/421/203 294/422/203 329/394/223
f 329/394/223 294/422/203 295/423/203 330/395/223
f 330/395/223 295/423/203 296/231/203 331/270/223
f 223/386/221 212/424/217 269/425/217 311/387/221
f 311/387/221 269/425/217 268/426/217 310/388/221
f 310/388/221 268/426/217 267/427/217 309/389/221
f 309/389/221 267/427/217 266/428/217 308/390/221
f 308/390/221 266/428/217 265/255/217 307/266/221
f 212/424/217 237/362/218 316/361/218 269/425/217
f 269/425/217 316/361/218 315/363/218 268/426/217
f 268/426/217 315/363/218 314/364/218 267/427/217
f 267/427/217 314/364/218 313/365/218 266/428/217
f 266/428/217 313/365/218 312/256/218 265/255/217
f 202/429/280 255/430/281 260/431/282 205/432/283
f 255/430/281 256/433/284 261/434/285 260/431/282
f 256/433/284 257/435/286 262/436/287 261/434/285
f 257/435/286 258/437/288 263/438/289 262/436/287
f 258/437/288 259/251/213 264/254/216 263/438/289
f 289/333/209 401/439/210 381/440/210 246/334/209
f 288/354/209 400/441/210 401/439/210 289/333/209
f 287/352/209 398/442/210 400/441/210 288/354/209
f 286/350/209 396/443/210 398/442/210 287/352/209
f 285/246/209 394/245/210 396/443/210 286/350/209
f 291/289/202 208/288/202 379/444/202 380/445/202
f 341/283/224 392/282/225 389/446/225 340/342/224
f 340/342/224 389/446/225 387/447/225 339/344/224
f 339/344/224 387/447/225 385/448/225 338/346/224
f 338/346/224 385/448/225 383/328/225 337/327/224
f 205/449/290 260/450/291 250/451/292 201/452/293
f 260/450/291 261/453/294 251/454/295 250/451/292
f 261/453/294 262/455/296 252/456/297 251/454/295
f 262/455/296 263/457/298 253/458/299 252/456/297
f 263/457/298 264/239/205 254/242/208 253/458/299
f 210/419/203 233/357/204 322/356/204 292/420/203
f 292/420/203 322/356/204 323/358/204 293/421/203
f 293/421/203 323/358/204 324/359/204 294/422/203
f 294/422/203 324/359/204 325/360/204 295/423/203
f 295/423/203 325/360/204 326/232/204 296/231/203
f 258/437/288 371/459/300 373/460/301 259/251/213
f 371/459/300 370/405/279 372/294/231 373/460/301
f 257/435/286 369/461/302 371/459/300 258/437/288
f 369/461/302 368/404/278 370/405/279 371/459/300
f 256/433/284 367/462/303 369/461/302 257/435/286
f 367/462/303 366/403/277 368/404/278 369/461/302
f 255/430/281 365/463/304 367/462/303 256/433/284
f 365/463/304 364/402/276 366/403/277 367/462/303
f 202/429/280 342/464/305 365/463/304 255/430/281
f 342/464/305 343/401/275 364/402/276 365/463/304
f 251/454/295 361/465/306 363/466/307 250/451/292
f 361/465/306 360/400/274 362/302/239 363/466/307
f 252/456/297 359/467/308 361/465/306 251/454/295
f 359/467/308 358/399/273 360/400/274 361/465/306
f 253/458/299 357/468/309 359/467/308 252/456/297
f 357/468/309 356/398/272 358/399/273 359/467/308
f 254/242/208 355/469/310 357/468/309 253/458/299
f 355/469/310 354/397/271 356/398/272 357/468/309
f 203/241/207 346/470/311 355/469/310 254/242/208
f 346/470/311 347/396/270 354/397/271 355/469/310
f 201/471/312 352/472/313 350/473/314 403/474/315
f 352/472/313 353/308/245 351/290/227 350/473/314
f 204/475/316 344/476/317 348/477/318 404/478/319
f 344/476/317 345/306/243 349/298/235 348/477/318
f 250/451/292 363/466/307 352/479/320 201/452/293
f 363/466/307 362/302/239 353/305/242 352/479/320
f 404/478/319 348/477/318 346/480/321 203/481/322
f 348/477/318 349/298/235 347/301/238 346/480/321
f 259/251/213 373/460/301 344/482/323 204/252/214
f 373/460/301 372/294/231 345/297/234 344/482/323
f 403/474/315 350/473/314 342/483/324 202/484/325
f 350/473/314 351/290/227 343/293/230 342/483/324
f 211/264/202 235/485/202 374/227/202 248/265/202
f 235/485/202 236/338/202 239/228/202 374/227/202
f 392/282/225 380/281/225 379/250/212 391/249/212
f 402/415/226 382/416/226 381/440/210 401/439/210
f 375/329/225 383/328/225 384/276/212 376/275/212
f 383/328/225 385/448/225 386/278/212 384/276/212
f 385/448/225 387/447/225 388/418/212 386/278/212
f 387/447/225 389/446/225 390/417/212 388/418/212
f 389/446/225 392/282/225 391/249/212 390/417/212
f 377/285/226 393/284/226 394/245/210 378/244/210
f 393/284/226 395/411/226 396/443/210 394/245/210
f 395/411/226 397/410/226 398/442/210 396/443/210
f 397/410/226 399/413/226 400/441/210 398/442/210
f 399/413/226 402/415/226 401/439/210 400/441/210
f 375/486/72 376/487/72 206/407/72 290/406/72
f 247/336/202 291/289/202 380/445/202 244/337/202
f 243/332/72 290/406/72 378/409/72 245/335/72
f 242/331/72 375/486/72 290/406/72 243/332/72
f 205/488/326 403/474/315 202/484/325
f 205/488/326 201/471/312 403/474/315
f 207/489/327 204/475/316 404/478/319
f 207/489/327 404/478/319 203/481/322
