# Blender 4.0.2
# www.blender.org
o headstone_02
v -0.500000 0.000000 0.225000
v -0.500000 0.100000 0.225000
v -0.500000 0.000000 -0.225000
v -0.500000 0.100000 -0.225000
v 0.500000 0.000000 0.225000
v 0.500000 0.100000 0.225000
v 0.500000 0.000000 -0.225000
v 0.500000 0.100000 -0.225000
v -0.388379 0.873606 -0.067082
v -0.388379 0.983737 -0.067082
v -0.430000 0.100000 -0.134568
v -0.430000 1.017464 -0.134568
v 0.388379 0.873606 -0.067082
v 0.388379 0.983737 -0.067082
v 0.430000 0.100000 -0.134568
v 0.430000 1.017464 -0.134568
v 0.000000 0.100000 -0.134568
v 0.000000 1.108560 -0.134568
v 0.000000 0.866212 -0.058568
v 0.000000 1.073573 -0.058568
v -0.430000 0.100000 -0.058568
v -0.430000 1.017464 -0.058568
v 0.430000 1.017464 -0.058568
v 0.430000 0.100000 -0.058568
v 0.000000 0.100000 -0.058568
v 0.000000 1.108560 -0.058568
v -0.395773 0.866212 -0.058568
v -0.395773 0.989728 -0.058568
v 0.395773 0.989728 -0.058568
v 0.395773 0.866212 -0.058568
v 0.000000 0.873606 -0.067082
v 0.000000 1.066015 -0.067082
v -0.430000 0.866212 -0.058568
v -0.430000 0.866212 -0.134568
v 0.430000 0.866212 -0.134568
v 0.430000 0.866212 -0.058568
v 0.000000 0.911760 -0.134568
v -0.395773 0.100000 -0.058568
v 0.395773 0.100000 -0.058568
vn -1.0000 -0.0000 -0.0000
vn -0.0000 -0.0000 -1.0000
vn 1.0000 -0.0000 -0.0000
vn -0.0000 -0.0000 1.0000
vn -0.0000 1.0000 -0.0000
vn -0.2073 0.9783 -0.0000
vn 0.2073 0.9783 -0.0000
vn 0.7550 -0.0000 0.6557
vn -0.7550 -0.0000 0.6557
vn -0.0000 0.7550 0.6557
vn 0.1565 -0.7386 0.6557
vn -0.1565 -0.7386 0.6557
vt 0.014028 0.606722
vt 0.066381 0.606722
vt 0.066381 0.842309
vt 0.014028 0.842309
vt 0.066381 0.894661
vt 0.589908 0.842308
vt 0.589908 0.894661
vt 0.642261 0.842308
vt 0.589908 0.606721
vt 0.642260 0.606721
vt 0.589908 0.554369
vt 0.066381 0.554369
vt 0.045049 0.410249
vt 0.044706 0.490706
vt 0.004380 0.490424
vt 0.004942 0.410169
vt 0.769982 0.434388
vt 0.769982 0.537419
vt 0.544863 0.489727
vt 0.544863 0.410542
vt 0.535930 0.410263
vt 0.536458 0.490540
vt 0.496121 0.490806
vt 0.495814 0.410327
vt 0.270417 0.415644
vt 0.270391 0.515859
vt 0.067998 0.472243
vt 0.068112 0.415053
vt 0.300071 0.945651
vt 0.069951 0.945651
vt 0.069951 0.905861
vt 0.300071 0.905861
vt 0.530192 0.945651
vt 0.530192 0.905861
vt 0.472742 0.415125
vt 0.472831 0.472327
vt 0.995100 0.410542
vt 0.995100 0.489727
vt 0.063174 0.410174
vt 0.062889 0.476240
vt 0.063045 0.008537
vt 0.045108 0.008509
vt 0.270384 0.521826
vt 0.270374 0.540218
vt 0.477933 0.008569
vt 0.477685 0.410245
vt 0.270422 0.409916
vt 0.270481 0.008501
vt 0.477939 0.476328
vt 0.995100 0.009406
vt 0.769982 0.009406
vt 0.535744 0.008477
vt 0.495882 0.008521
vt 0.544863 0.009406
vt 0.005265 0.008477
s 0
f 1/1/1 2/2/1 4/3/1 3/4/1
f 3/5/2 4/3/2 8/6/2 7/7/2
f 7/8/3 8/6/3 6/9/3 5/10/3
f 5/11/4 6/9/4 2/2/4 1/12/4
f 8/6/5 4/3/5 2/2/5 6/9/5
f 33/13/1 22/14/1 12/15/1 34/16/1
f 37/17/2 18/18/2 16/19/2 35/20/2
f 35/21/3 16/22/3 23/23/3 36/24/3
f 31/25/4 32/26/4 10/27/4 9/28/4
f 18/29/6 12/30/6 22/31/6 26/32/6
f 16/33/7 18/29/7 26/32/7 23/34/7
f 13/35/4 14/36/4 32/26/4 31/25/4
f 34/37/2 12/38/2 18/18/2 37/17/2
f 27/39/4 28/40/4 22/14/4 33/13/4
f 38/41/4 27/39/4 33/13/4 21/42/4
f 28/40/4 20/43/4 26/44/4 22/14/4
f 39/45/4 30/46/4 19/47/4 25/48/4
f 20/43/4 29/49/4 23/23/4 26/44/4
f 9/28/8 10/27/8 28/40/8 27/39/8
f 14/36/9 13/35/9 30/46/9 29/49/9
f 13/35/10 31/25/10 19/47/10 30/46/10
f 10/27/11 32/26/11 20/43/11 28/40/11
f 31/25/10 9/28/10 27/39/10 19/47/10
f 32/26/12 14/36/12 29/49/12 20/43/12
f 11/50/2 34/37/2 37/17/2 17/51/2
f 15/52/3 35/21/3 36/24/3 24/53/3
f 17/51/2 37/17/2 35/20/2 15/54/2
f 21/42/1 33/13/1 34/16/1 11/55/1
f 29/49/4 30/46/4 36/24/4 23/23/4
f 30/46/4 39/45/4 24/53/4 36/24/4
f 19/47/4 27/39/4 38/41/4 25/48/4
