# Blender 4.1.1
# www.blender.org
o hip_flask_01
v -0.035186 0.112414 -0.003967
v -0.036000 0.114389 -0.004044
v -0.037966 0.115207 -0.004230
v -0.039932 0.114389 -0.004416
v -0.040535 0.113483 -0.004473
v -0.040747 0.112414 -0.004494
v -0.040535 0.111345 -0.004473
v -0.039932 0.110439 -0.004416
v -0.039030 0.109834 -0.004331
v -0.039030 0.114995 -0.004331
v -0.036902 0.114995 -0.004129
v -0.035397 0.113483 -0.003987
v -0.035397 0.111345 -0.003987
v -0.036609 0.108159 -0.004102
v -0.039030 0.108159 -0.004331
v -0.037546 0.113434 -0.004190
v -0.037189 0.113195 -0.004157
v -0.036951 0.112837 -0.004134
v -0.036867 0.112414 -0.004126
v -0.036951 0.111992 -0.004134
v -0.037546 0.111394 -0.004190
v -0.037189 0.111634 -0.004157
v -0.038387 0.111394 -0.004270
v -0.038743 0.111634 -0.004304
v -0.038982 0.111992 -0.004326
v -0.039065 0.112414 -0.004334
v -0.038982 0.112837 -0.004326
v -0.038387 0.113434 -0.004270
v -0.038743 0.113195 -0.004304
v -0.037966 0.113518 -0.004230
v -0.037966 0.111310 -0.004230
v -0.037228 0.113434 -0.007546
v -0.036871 0.113195 -0.007512
v -0.036633 0.112837 -0.007489
v -0.036549 0.112414 -0.007482
v -0.036633 0.111992 -0.007489
v -0.037228 0.111394 -0.007546
v -0.036871 0.111634 -0.007512
v -0.038069 0.111394 -0.007625
v -0.038426 0.111634 -0.007659
v -0.038664 0.111992 -0.007682
v -0.038748 0.112414 -0.007690
v -0.038664 0.112837 -0.007682
v -0.038069 0.113434 -0.007625
v -0.038426 0.113195 -0.007659
v -0.037648 0.113518 -0.007586
v -0.037648 0.111310 -0.007586
v -0.037648 0.112414 -0.007586
v -0.035397 0.108159 -0.003987
v -0.035593 0.112414 0.000336
v -0.036407 0.114389 0.000259
v -0.038374 0.115207 0.000073
v -0.040340 0.114389 -0.000113
v -0.040943 0.113483 -0.000171
v -0.041154 0.112414 -0.000191
v -0.040943 0.111345 -0.000171
v -0.040340 0.110439 -0.000113
v -0.039438 0.109834 -0.000028
v -0.039438 0.114995 -0.000028
v -0.037310 0.114995 0.000174
v -0.035805 0.113483 0.000316
v -0.035805 0.111345 0.000316
v -0.037110 0.108159 0.000192
v -0.039438 0.108159 -0.000028
v -0.037953 0.113434 0.000113
v -0.037597 0.113195 0.000146
v -0.037358 0.112837 0.000169
v -0.037275 0.112414 0.000177
v -0.037358 0.111992 0.000169
v -0.037953 0.111394 0.000113
v -0.037597 0.111634 0.000146
v -0.038794 0.111394 0.000033
v -0.039151 0.111634 -0.000001
v -0.039389 0.111992 -0.000023
v -0.039473 0.112414 -0.000031
v -0.039389 0.112837 -0.000023
v -0.038794 0.113434 0.000033
v -0.039151 0.113195 -0.000001
v -0.038374 0.113518 0.000073
v -0.038374 0.111310 0.000073
v -0.038271 0.113434 0.003468
v -0.037914 0.113195 0.003502
v -0.037676 0.112837 0.003524
v -0.037592 0.112414 0.003532
v -0.037676 0.111992 0.003524
v -0.038271 0.111394 0.003468
v -0.037914 0.111634 0.003502
v -0.039112 0.111394 0.003388
v -0.039469 0.111634 0.003355
v -0.039707 0.111992 0.003332
v -0.039790 0.112414 0.003324
v -0.039707 0.112837 0.003332
v -0.039112 0.113434 0.003388
v -0.039469 0.113195 0.003355
v -0.038691 0.113518 0.003428
v -0.038691 0.111310 0.003428
v -0.038691 0.112414 0.003428
v -0.035805 0.108159 0.000316
v -0.000000 0.109067 -0.009334
v 0.000000 0.002000 -0.009334
v 0.000000 0.002000 0.012525
v -0.000000 0.109067 0.012525
v -0.016679 0.109067 -0.010033
v -0.016679 0.002000 -0.010033
v -0.018602 0.002000 0.011746
v -0.018602 0.109067 0.011746
v -0.033272 0.109067 -0.012128
v -0.033272 0.002000 -0.012128
v -0.037135 0.002000 0.009415
v -0.037135 0.109067 0.009415
v -0.052616 0.109067 -0.005232
v -0.052616 0.002000 -0.005232
v -0.035247 0.002000 -0.001359
v -0.017662 0.002000 0.000856
v 0.000000 0.002000 0.001596
v -0.000000 0.109067 0.001596
v -0.017662 0.109067 0.000856
v -0.035247 0.109067 -0.001359
v -0.044687 0.002000 0.007752
v -0.049654 0.002000 0.005200
v -0.052611 0.002000 0.000497
v -0.052611 0.109067 0.000497
v -0.049654 0.109067 0.005200
v -0.044687 0.109067 0.007752
v -0.039145 0.109067 -0.013425
v -0.044841 0.109067 -0.013231
v -0.049712 0.109067 -0.010384
v -0.049712 0.002000 -0.010384
v -0.044841 0.002000 -0.013231
v -0.039145 0.002000 -0.013425
v 0.016679 0.109067 -0.010033
v 0.016679 0.002000 -0.010033
v 0.018602 0.002000 0.011746
v 0.018602 0.109067 0.011746
v 0.033272 0.109067 -0.012128
v 0.033272 0.002000 -0.012128
v 0.037135 0.002000 0.009415
v 0.037135 0.109067 0.009415
v 0.052616 0.109067 -0.005232
v 0.052616 0.002000 -0.005232
v 0.035247 0.002000 -0.001359
v 0.017662 0.002000 0.000856
v 0.017662 0.109067 0.000856
v 0.035247 0.109067 -0.001359
v 0.044687 0.002000 0.007752
v 0.049654 0.002000 0.005200
v 0.052611 0.002000 0.000497
v 0.052611 0.109067 0.000497
v 0.049654 0.109067 0.005200
v 0.044687 0.109067 0.007752
v 0.039145 0.109067 -0.013425
v 0.044841 0.109067 -0.013231
v 0.049712 0.109067 -0.010384
v 0.049712 0.002000 -0.010384
v 0.044841 0.002000 -0.013231
v 0.039145 0.002000 -0.013425
v 0.000000 0.005580 -0.009334
v -0.000000 0.105487 -0.009334
v -0.016679 0.105487 -0.010033
v -0.016679 0.005580 -0.010033
v -0.033272 0.105487 -0.012128
v -0.033272 0.005580 -0.012128
v -0.039145 0.105487 -0.013425
v -0.039145 0.005580 -0.013425
v -0.044841 0.105487 -0.013231
v -0.044841 0.005580 -0.013231
v -0.049712 0.105487 -0.010384
v -0.049712 0.005580 -0.010384
v -0.052616 0.105487 -0.005232
v -0.052616 0.005580 -0.005232
v -0.052611 0.105487 0.000497
v -0.052611 0.005580 0.000497
v -0.049654 0.105487 0.005200
v -0.049654 0.005580 0.005200
v -0.044687 0.105487 0.007752
v -0.044687 0.005580 0.007752
v -0.037135 0.105487 0.009415
v -0.037135 0.005580 0.009415
v -0.018602 0.105487 0.011746
v -0.018602 0.005580 0.011746
v -0.000000 0.105487 0.012525
v 0.000000 0.005580 0.012525
v 0.018602 0.105487 0.011746
v 0.018602 0.005580 0.011746
v 0.037135 0.105487 0.009415
v 0.037135 0.005580 0.009415
v 0.044687 0.105487 0.007752
v 0.044687 0.005580 0.007752
v 0.049654 0.105487 0.005200
v 0.049654 0.005580 0.005200
v 0.052611 0.105487 0.000497
v 0.052611 0.005580 0.000497
v 0.052616 0.105487 -0.005232
v 0.052616 0.005580 -0.005232
v 0.049712 0.105487 -0.010384
v 0.049712 0.005580 -0.010384
v 0.044841 0.105487 -0.013231
v 0.044841 0.005580 -0.013231
v 0.039145 0.105487 -0.013425
v 0.039145 0.005580 -0.013425
v 0.033272 0.105487 -0.012128
v 0.033272 0.005580 -0.012128
v 0.016679 0.105487 -0.010033
v 0.016679 0.005580 -0.010033
v -0.045109 0.108047 0.008901
v -0.045109 0.106507 0.008901
v -0.037339 0.106507 0.010610
v -0.037339 0.108047 0.010610
v -0.039017 0.106507 -0.014639
v -0.033048 0.106507 -0.013322
v -0.039017 0.108047 -0.014639
v -0.033048 0.108047 -0.013322
v -0.016567 0.108047 -0.011241
v -0.000000 0.108047 -0.010546
v -0.000000 0.106507 -0.010546
v -0.016567 0.106507 -0.011241
v -0.018703 0.108047 0.012954
v -0.018703 0.106507 0.012954
v 0.000000 0.106507 0.013737
v 0.000000 0.108047 0.013737
v -0.053848 0.106507 0.000848
v -0.053866 0.106507 -0.005531
v -0.053848 0.108047 0.000848
v -0.053866 0.108047 -0.005531
v -0.050521 0.106507 0.006122
v -0.050521 0.108047 0.006122
v -0.050655 0.108047 -0.011244
v -0.050655 0.106507 -0.011244
v -0.045210 0.108047 -0.014428
v -0.045210 0.106507 -0.014428
v 0.045109 0.108047 0.008901
v 0.037339 0.108047 0.010610
v 0.037339 0.106507 0.010610
v 0.045109 0.106507 0.008901
v 0.033048 0.106507 -0.013322
v 0.039017 0.106507 -0.014639
v 0.033048 0.108047 -0.013322
v 0.039017 0.108047 -0.014639
v 0.016567 0.108047 -0.011241
v 0.016567 0.106507 -0.011241
v 0.018703 0.108047 0.012954
v 0.018703 0.106507 0.012954
v 0.053866 0.106507 -0.005531
v 0.053848 0.106507 0.000848
v 0.053866 0.108047 -0.005531
v 0.053848 0.108047 0.000848
v 0.050521 0.106507 0.006122
v 0.050521 0.108047 0.006122
v 0.050655 0.106507 -0.011244
v 0.050655 0.108047 -0.011244
v 0.045210 0.106507 -0.014428
v 0.045210 0.108047 -0.014428
v 0.000000 0.004560 -0.010546
v -0.016567 0.004560 -0.011241
v 0.000000 0.003020 -0.010546
v -0.016567 0.003020 -0.011241
v -0.033048 0.004560 -0.013322
v -0.033048 0.003020 -0.013322
v -0.039017 0.003020 -0.014639
v -0.039017 0.004560 -0.014639
v -0.045210 0.004560 -0.014428
v -0.045210 0.003020 -0.014428
v -0.050655 0.004560 -0.011244
v -0.050655 0.003020 -0.011244
v -0.053866 0.004560 -0.005531
v -0.053866 0.003020 -0.005531
v -0.053848 0.003020 0.000848
v -0.053848 0.004560 0.000848
v -0.050521 0.003020 0.006122
v -0.050521 0.004560 0.006122
v -0.045109 0.003020 0.008901
v -0.045109 0.004560 0.008901
v -0.037339 0.004560 0.010610
v -0.037339 0.003020 0.010610
v -0.018703 0.004560 0.012954
v -0.018703 0.003020 0.012954
v -0.000000 0.004560 0.013737
v -0.000000 0.003020 0.013737
v 0.018703 0.004560 0.012954
v 0.018703 0.003020 0.012954
v 0.037339 0.004560 0.010610
v 0.037339 0.003020 0.010610
v 0.045109 0.004560 0.008901
v 0.045109 0.003020 0.008901
v 0.050521 0.003020 0.006122
v 0.050521 0.004560 0.006122
v 0.053848 0.003020 0.000848
v 0.053848 0.004560 0.000848
v 0.053866 0.003020 -0.005531
v 0.053866 0.004560 -0.005531
v 0.050655 0.004560 -0.011244
v 0.050655 0.003020 -0.011244
v 0.045210 0.004560 -0.014428
v 0.045210 0.003020 -0.014428
v 0.039017 0.004560 -0.014639
v 0.039017 0.003020 -0.014639
v 0.033048 0.003020 -0.013322
v 0.033048 0.004560 -0.013322
v 0.016567 0.004560 -0.011241
v 0.016567 0.003020 -0.011241
v 0.008519 0.106880 -0.001933
v 0.006520 0.106880 -0.004924
v 0.003529 0.106880 -0.006923
v 0.000000 0.106880 -0.007625
v -0.003529 0.106880 -0.006923
v -0.006520 0.106880 -0.004924
v -0.008519 0.106880 -0.001933
v -0.009221 0.106880 0.001596
v -0.008519 0.106880 0.005124
v -0.006520 0.106880 0.008116
v -0.003529 0.106880 0.010114
v -0.000000 0.106880 0.010816
v 0.003529 0.106880 0.010114
v 0.006520 0.106880 0.008116
v 0.008519 0.106880 0.005124
v 0.009221 0.106880 0.001596
v -0.038325 0.109834 0.000077
v 0.006613 0.121780 -0.005018
v 0.003579 0.121780 -0.007045
v 0.000000 0.121780 -0.007757
v -0.003579 0.121780 -0.007045
v -0.006613 0.121780 -0.005018
v -0.008641 0.121780 -0.001984
v -0.009353 0.121780 0.001596
v -0.008641 0.121780 0.005175
v -0.006613 0.121780 0.008209
v -0.003579 0.121780 0.010237
v -0.000000 0.121780 0.010948
v 0.003579 0.121780 0.010237
v 0.006613 0.121780 0.008209
v 0.008641 0.121780 0.005175
v 0.009353 0.121780 0.001596
v 0.008641 0.121780 -0.001984
v 0.008948 0.121780 -0.007352
v 0.004842 0.121780 -0.010095
v 0.000000 0.121780 -0.011058
v -0.004842 0.121780 -0.010095
v -0.008948 0.121780 -0.007352
v -0.011690 0.121780 -0.003247
v -0.012654 0.121780 0.001596
v -0.011690 0.121780 0.006438
v -0.008948 0.121780 0.010543
v -0.004842 0.121780 0.013286
v -0.000000 0.121780 0.014249
v 0.004842 0.121780 0.013286
v 0.008948 0.121780 0.010543
v 0.011690 0.121780 0.006438
v 0.012654 0.121780 0.001596
v 0.011690 0.121780 -0.003247
v 0.008948 0.125625 -0.007352
v 0.004842 0.125625 -0.010095
v 0.000000 0.125625 -0.011058
v -0.004842 0.125625 -0.010095
v -0.008948 0.125625 -0.007352
v -0.011690 0.125625 -0.003247
v -0.012654 0.125625 0.001596
v -0.011690 0.125625 0.006438
v -0.008948 0.125625 0.010543
v -0.004842 0.125625 0.013286
v -0.000000 0.125625 0.014249
v 0.004842 0.125625 0.013286
v 0.008948 0.125625 0.010543
v 0.011690 0.125625 0.006438
v 0.012654 0.125625 0.001596
v 0.011690 0.125625 -0.003247
v 0.000000 0.126912 -0.001768
v -0.000000 0.127033 0.001596
v -0.003330 0.126799 -0.001734
v -0.003363 0.126912 0.001596
v -0.003330 0.126799 0.004925
v 0.000000 0.126912 0.004959
v 0.008813 0.126393 0.001596
v 0.003363 0.126912 0.001596
v 0.003330 0.126799 0.004925
v 0.008142 0.126393 0.004968
v 0.008142 0.126393 -0.001777
v 0.003330 0.126799 -0.001734
v -0.006232 0.126393 -0.004636
v -0.008142 0.126393 -0.001777
v -0.003373 0.126393 -0.006546
v -0.008813 0.126393 0.001596
v -0.008142 0.126393 0.004968
v -0.006232 0.126393 0.007827
v -0.003373 0.126393 0.009738
v -0.000000 0.126393 0.010408
v 0.003373 0.126393 0.009738
v 0.006232 0.126393 0.007827
v 0.006232 0.126393 -0.004636
v 0.003373 0.126393 -0.006546
v -0.000000 0.126393 -0.007217
v -0.040186 0.111345 -0.008128
v -0.038640 0.111989 -0.007982
v -0.038400 0.111628 -0.007959
v -0.039583 0.110439 -0.008071
v -0.038041 0.111387 -0.007925
v -0.038681 0.109834 -0.007986
v -0.037617 0.111303 -0.007885
v -0.037617 0.109621 -0.007885
v -0.040398 0.112414 -0.008148
v -0.038724 0.112414 -0.007990
v -0.039914 0.110439 -0.004582
v -0.040517 0.111345 -0.004639
v -0.039012 0.109834 -0.004497
v -0.037194 0.111387 -0.007845
v -0.036553 0.109834 -0.007784
v -0.040186 0.113483 -0.008128
v -0.038640 0.112840 -0.007982
v -0.037948 0.109621 -0.004396
v -0.040728 0.112414 -0.004659
v -0.036835 0.111628 -0.007811
v -0.035651 0.110439 -0.007699
v -0.039583 0.114389 -0.008071
v -0.038400 0.113201 -0.007959
v -0.036883 0.109834 -0.004295
v -0.040517 0.113483 -0.004639
v -0.038730 0.111628 -0.004470
v -0.038970 0.111989 -0.004493
v -0.038371 0.111387 -0.004436
v -0.037948 0.111303 -0.004396
v -0.039054 0.112414 -0.004501
v -0.036595 0.111989 -0.007788
v -0.035048 0.111345 -0.007642
v -0.038681 0.114995 -0.007986
v -0.038041 0.113442 -0.007925
v -0.037524 0.111387 -0.004356
v -0.038970 0.112840 -0.004493
v -0.035981 0.110439 -0.004210
v -0.039914 0.114389 -0.004582
v -0.037165 0.111628 -0.004322
v -0.038730 0.113201 -0.004470
v -0.036510 0.112414 -0.007780
v -0.034837 0.112414 -0.007622
v -0.037617 0.115207 -0.007885
v -0.037617 0.113526 -0.007885
v -0.036925 0.111989 -0.004299
v -0.038371 0.113442 -0.004436
v -0.035379 0.111345 -0.004153
v -0.039012 0.114995 -0.004497
v -0.036841 0.112414 -0.004291
v -0.037948 0.113526 -0.004396
v -0.035167 0.112414 -0.004133
v -0.037948 0.115207 -0.004396
v -0.033194 0.115207 -0.007466
v -0.033194 0.113554 -0.007466
v -0.033524 0.113554 -0.003977
v -0.033524 0.115207 -0.003977
v -0.029224 0.115207 -0.007090
v -0.029224 0.113554 -0.007090
v -0.008088 0.115058 -0.008103
v -0.010362 0.115207 -0.005304
v -0.007913 0.119093 -0.008089
v -0.029554 0.113554 -0.003601
v -0.010615 0.119213 -0.004274
v -0.033422 0.113554 -0.002815
v -0.033422 0.115207 -0.002815
v -0.029554 0.115207 -0.003601
v -0.030621 0.113554 -0.002550
v -0.033414 0.113554 -0.001628
v -0.033414 0.115207 -0.001628
v -0.030732 0.113554 -0.001374
v -0.030621 0.115207 -0.002550
v -0.029774 0.113554 -0.001284
v -0.030732 0.115207 -0.001374
v -0.011026 0.113563 0.000492
v -0.029774 0.115207 -0.001284
v -0.003876 0.113208 -0.010424
v -0.008158 0.113451 -0.008110
v -0.003802 0.114879 -0.010417
v 0.000964 0.112918 -0.010921
v 0.001043 0.114667 -0.010914
v -0.003625 0.118914 -0.010404
v -0.012406 0.115207 0.000361
v 0.001220 0.118703 -0.010900
v -0.012238 0.119255 0.000377
v 0.005624 0.112626 -0.009525
v 0.005708 0.114456 -0.009517
v -0.010479 0.113571 -0.005315
v 0.005886 0.118492 -0.009502
v 0.009395 0.112376 -0.006448
v 0.009483 0.114276 -0.006439
v 0.009662 0.118313 -0.006423
v 0.011703 0.112206 -0.002158
v 0.011794 0.114156 -0.002149
v 0.012197 0.112141 0.002690
v 0.011973 0.118193 -0.002132
v 0.012289 0.114114 0.002700
v 0.012468 0.118151 0.002717
v -0.014776 0.113554 0.000137
v -0.014556 0.113554 -0.002181
v -0.014548 0.115207 -0.002180
v -0.014785 0.115207 0.000136
v 0.000057 0.112885 0.001541
v 0.000520 0.112899 -0.004413
v 0.005732 0.112537 0.002078
v 0.005889 0.112567 -0.003503
v -0.004809 0.113224 -0.004786
v -0.005424 0.113220 0.001022
v 0.006082 0.118458 -0.003460
v 0.005898 0.118443 0.002094
v 0.000041 0.118703 0.001540
v 0.000597 0.118703 -0.004323
v -0.004953 0.118948 -0.004507
v -0.005816 0.118963 0.000985
v -0.041286 0.111345 0.003485
v -0.039740 0.111989 0.003631
v -0.039500 0.111628 0.003654
v -0.040683 0.110439 0.003542
v -0.039140 0.111387 0.003688
v -0.039781 0.109834 0.003627
v -0.038717 0.111303 0.003728
v -0.038717 0.109621 0.003728
v -0.041498 0.112414 0.003465
v -0.039824 0.112414 0.003623
v -0.040353 0.110439 0.000053
v -0.040955 0.111345 -0.000004
v -0.039451 0.109834 0.000138
v -0.038293 0.111387 0.003768
v -0.037653 0.109834 0.003829
v -0.041286 0.113483 0.003485
v -0.039740 0.112840 0.003631
v -0.038387 0.109621 0.000239
v -0.041167 0.112414 -0.000024
v -0.037934 0.111628 0.003802
v -0.036751 0.110439 0.003914
v -0.040683 0.114389 0.003542
v -0.039500 0.113201 0.003654
v -0.037322 0.109834 0.000340
v -0.040955 0.113483 -0.000004
v -0.039169 0.111628 0.000165
v -0.039409 0.111989 0.000142
v -0.038810 0.111387 0.000199
v -0.038387 0.111303 0.000239
v -0.039493 0.112414 0.000134
v -0.037694 0.111989 0.003825
v -0.036148 0.111345 0.003971
v -0.039781 0.114995 0.003627
v -0.039140 0.113442 0.003688
v -0.037963 0.111387 0.000279
v -0.039409 0.112840 0.000142
v -0.036420 0.110439 0.000425
v -0.040353 0.114389 0.000053
v -0.037604 0.111628 0.000313
v -0.039169 0.113201 0.000165
v -0.037610 0.112414 0.003833
v -0.035936 0.112414 0.003991
v -0.038717 0.115207 0.003728
v -0.038717 0.113526 0.003728
v -0.037364 0.111989 0.000336
v -0.038810 0.113442 0.000199
v -0.035818 0.111345 0.000482
v -0.039451 0.114995 0.000138
v -0.037280 0.112414 0.000344
v -0.038387 0.113526 0.000239
v -0.035606 0.112414 0.000502
v -0.038386 0.115207 0.000239
v -0.034294 0.115207 0.004147
v -0.034294 0.113554 0.004147
v -0.033963 0.113554 0.000658
v -0.033963 0.115207 0.000658
v -0.030324 0.115207 0.004523
v -0.030324 0.113554 0.004523
v -0.009753 0.115058 0.009485
v -0.011462 0.115207 0.006309
v -0.009579 0.119093 0.009505
v -0.029993 0.113554 0.001034
v -0.011517 0.119213 0.005250
v -0.033644 0.113554 -0.000464
v -0.033644 0.115207 -0.000464
v -0.029993 0.115207 0.001034
v -0.030843 0.113554 -0.000199
v -0.030843 0.115207 -0.000199
v -0.006054 0.113176 0.012556
v -0.009825 0.113426 0.009478
v -0.005978 0.114879 0.012563
v -0.001394 0.112884 0.013952
v -0.001313 0.114667 0.013960
v -0.005802 0.118914 0.012583
v -0.001136 0.118703 0.013979
v 0.003446 0.112595 0.013455
v 0.003531 0.114456 0.013463
v -0.011580 0.113555 0.006298
v 0.003710 0.118492 0.013482
v 0.007728 0.112352 0.011140
v 0.007817 0.114276 0.011149
v 0.007996 0.118313 0.011167
v 0.010801 0.112193 0.007360
v 0.010893 0.114156 0.007369
v 0.011072 0.118193 0.007386
v -0.014995 0.113554 0.002454
v -0.014987 0.115207 0.002455
v -0.000607 0.112883 0.007476
v 0.004838 0.112552 0.007590
v -0.005911 0.113208 0.006842
v 0.005036 0.118458 0.007585
v -0.000514 0.118703 0.007402
v -0.006000 0.118948 0.006541
v -0.047243 0.109067 -0.004034
v 0.041914 0.109067 -0.002846
v 0.047243 0.109067 -0.004034
v -0.041914 0.109067 -0.002846
v -0.041914 0.002000 -0.002846
v -0.047243 0.002000 -0.004034
v 0.041914 0.002000 -0.002846
v 0.047243 0.002000 -0.004034
v -0.038266 0.108159 0.000083
v -0.035397 0.109834 -0.003987
v -0.037138 0.109834 0.000190
v -0.036584 0.109834 -0.004099
v -0.037979 0.108159 -0.004231
v -0.035805 0.109834 0.000316
v -0.037952 0.109834 -0.004229
vn 0.0943 -0.0000 -0.9955
vn 0.3810 0.9239 0.0361
vn 0.7040 0.7071 0.0667
vn 0.7039 0.7071 0.0667
vn 0.9198 0.3827 0.0871
vn 0.9955 -0.0000 0.0943
vn 0.9198 -0.3827 0.0871
vn 0.7040 -0.7071 0.0667
vn 0.3810 -0.9239 0.0361
vn -0.3810 -0.9239 -0.0361
vn -0.7040 -0.7071 -0.0667
vn -0.9198 -0.3827 -0.0871
vn -0.9955 -0.0000 -0.0943
vn -0.9198 0.3827 -0.0871
vn -0.7039 0.7071 -0.0667
vn -0.3810 0.9239 -0.0361
vn -0.0000 1.0000 -0.0000
vn -0.0000 -1.0000 -0.0000
vn -0.7040 0.7071 -0.0667
vn -0.5531 -0.8315 -0.0524
vn 0.9922 -0.0821 0.0940
vn -0.0943 -0.0000 0.9955
vn -0.0000 -0.9963 0.0859
vn -0.0064 -0.9963 0.0857
vn -0.0072 0.9963 0.0856
vn -0.0000 0.9963 0.0859
vn -0.0140 -0.9962 0.0857
vn -0.0132 0.9962 0.0859
vn 0.0121 -0.9967 -0.0798
vn 0.0051 -0.9967 -0.0811
vn -0.0000 -0.9967 -0.0814
vn 0.0051 0.9967 -0.0811
vn -0.0000 0.9967 -0.0814
vn 0.0112 0.9967 -0.0800
vn 0.0291 -0.9959 0.0858
vn 0.0140 -0.9962 0.0857
vn -0.1373 0.9899 -0.0364
vn -0.0311 0.9937 -0.1074
vn -0.1690 0.9718 -0.1643
vn -0.2215 0.9731 0.0633
vn -0.0740 0.9940 0.0805
vn -0.0740 -0.9940 0.0805
vn -0.2215 -0.9731 0.0632
vn -0.1373 -0.9899 -0.0364
vn 0.0080 0.9963 -0.0858
vn -0.0291 0.9959 0.0858
vn -0.0121 -0.9967 -0.0799
vn -0.0080 -0.9963 -0.0858
vn -0.0291 -0.9959 0.0858
vn 0.0072 -0.9963 0.0856
vn 0.0064 0.9963 0.0857
vn 0.0140 0.9962 0.0857
vn -0.0068 -0.9967 -0.0810
vn -0.0068 0.9967 -0.0810
vn -0.0121 0.9967 -0.0798
vn 0.0311 -0.9937 -0.1074
vn 0.1690 -0.9718 -0.1643
vn 0.1373 -0.9899 -0.0364
vn 0.1689 0.9718 -0.1643
vn 0.0311 0.9937 -0.1074
vn 0.1373 0.9899 -0.0364
vn -0.0080 0.9963 -0.0858
vn 0.0080 -0.9963 -0.0858
vn -0.0311 -0.9937 -0.1074
vn -0.0000 -0.0000 -1.0000
vn -0.0836 -0.0000 -0.9965
vn 0.0836 -0.0000 -0.9965
vn 0.1493 -0.0000 -0.9888
vn 0.0949 -0.0000 -0.9955
vn -0.2765 -0.0000 -0.9610
vn -0.7170 -0.0000 -0.6970
vn -0.9663 -0.0000 -0.2575
vn -0.9620 -0.0000 0.2731
vn -0.6753 -0.0000 0.7375
vn -0.3191 -0.0000 0.9477
vn -0.1514 -0.0000 0.9885
vn -0.0834 -0.0000 0.9965
vn -0.0000 -0.0000 1.0000
vn 0.0834 -0.0000 0.9965
vn 0.1514 -0.0000 0.9885
vn 0.3191 -0.0000 0.9477
vn 0.6753 -0.0000 0.7375
vn 0.9620 -0.0000 0.2731
vn 0.9663 -0.0000 -0.2575
vn 0.7170 -0.0000 -0.6970
vn 0.2765 -0.0000 -0.9610
vn -0.0949 -0.0000 -0.9955
vn -0.1493 -0.0000 -0.9888
vn -0.2911 0.4256 0.8568
vn -0.2911 -0.4256 0.8568
vn -0.1371 -0.4267 0.8939
vn -0.1371 0.4267 0.8939
vn 0.1352 -0.4284 -0.8934
vn 0.0827 -0.4253 -0.9013
vn 0.0827 0.4253 -0.9013
vn 0.1352 0.4284 -0.8934
vn 0.0756 0.4288 -0.9002
vn -0.0000 0.4285 -0.9035
vn -0.0000 -0.4286 -0.9035
vn 0.0756 -0.4288 -0.9002
vn -0.0755 0.4273 0.9010
vn -0.0755 -0.4273 0.9010
vn -0.0000 -0.4273 0.9041
vn -0.0000 0.4273 0.9041
vn -0.8695 -0.4372 -0.2300
vn -0.8645 -0.4373 0.2477
vn -0.8645 0.4373 0.2477
vn -0.8695 0.4372 -0.2300
vn -0.6104 -0.4331 0.6632
vn -0.6104 0.4331 0.6632
vn -0.6457 0.4342 -0.6281
vn -0.6457 -0.4342 -0.6281
vn -0.2524 0.4291 -0.8673
vn -0.2524 -0.4291 -0.8673
vn 0.2911 0.4256 0.8568
vn 0.1371 0.4267 0.8939
vn 0.1371 -0.4267 0.8939
vn 0.2911 -0.4256 0.8568
vn -0.0827 -0.4253 -0.9013
vn -0.1352 -0.4284 -0.8934
vn -0.1352 0.4284 -0.8934
vn -0.0827 0.4253 -0.9013
vn -0.0756 0.4288 -0.9002
vn -0.0756 -0.4288 -0.9002
vn 0.0755 0.4273 0.9010
vn 0.0755 -0.4273 0.9010
vn 0.8645 -0.4373 0.2477
vn 0.8695 -0.4372 -0.2300
vn 0.8695 0.4372 -0.2300
vn 0.8645 0.4373 0.2477
vn 0.6104 -0.4331 0.6632
vn 0.6104 0.4331 0.6632
vn 0.6457 -0.4342 -0.6281
vn 0.6457 0.4342 -0.6281
vn 0.2524 -0.4291 -0.8673
vn 0.2524 0.4291 -0.8673
vn -0.0000 0.4286 -0.9035
vn -0.2054 -0.7680 0.6066
vn -0.0976 -0.7652 0.6364
vn 0.0962 -0.7655 -0.6362
vn 0.0595 -0.7674 -0.6383
vn -0.0000 -0.7651 -0.6439
vn 0.0540 -0.7653 -0.6414
vn -0.0537 -0.7651 0.6416
vn -0.0000 -0.7651 0.6439
vn -0.6013 -0.7830 -0.1594
vn -0.5973 -0.7837 0.1706
vn -0.4242 -0.7790 0.4617
vn -0.4481 -0.7806 -0.4358
vn -0.1758 -0.7753 -0.6067
vn 0.0291 0.9959 0.0858
vn 0.0976 -0.7652 0.6364
vn 0.2054 -0.7680 0.6066
vn -0.0595 -0.7674 -0.6383
vn -0.0962 -0.7655 -0.6362
vn -0.0540 -0.7653 -0.6414
vn 0.0537 -0.7651 0.6416
vn 0.5973 -0.7837 0.1706
vn 0.6013 -0.7830 -0.1594
vn 0.2215 0.9731 0.0632
vn 0.4242 -0.7790 0.4617
vn 0.0740 0.9940 0.0805
vn 0.4481 -0.7806 -0.4358
vn 0.1758 -0.7753 -0.6067
vn 0.0540 0.7653 -0.6414
vn -0.0000 0.7651 -0.6439
vn 0.0962 0.7655 -0.6362
vn 0.0593 0.7674 -0.6384
vn -0.1758 0.7753 -0.6067
vn -0.4481 0.7806 -0.4358
vn -0.1689 -0.9718 -0.1643
vn -0.6013 0.7830 -0.1595
vn -0.5973 0.7837 0.1706
vn -0.4242 0.7790 0.4617
vn -0.2054 0.7680 0.6066
vn -0.0976 0.7652 0.6364
vn -0.0537 0.7651 0.6416
vn -0.0000 0.7651 0.6439
vn 0.0537 0.7651 0.6416
vn 0.0976 0.7652 0.6364
vn 0.2054 0.7680 0.6066
vn 0.4242 0.7790 0.4617
vn 0.0740 -0.9940 0.0805
vn 0.5973 0.7837 0.1706
vn 0.2215 -0.9731 0.0632
vn 0.6013 0.7830 -0.1595
vn 0.4481 0.7806 -0.4358
vn 0.1759 0.7753 -0.6066
vn -0.0593 0.7674 -0.6384
vn -0.0962 0.7655 -0.6362
vn -0.0540 0.7653 -0.6414
vn 0.9238 -0.0089 -0.3827
vn 0.7071 -0.0089 -0.7071
vn 0.3827 -0.0089 -0.9238
vn -0.0000 -0.0089 -1.0000
vn -0.3827 -0.0089 -0.9238
vn -0.7071 -0.0089 -0.7071
vn -0.9238 -0.0089 -0.3827
vn -1.0000 -0.0089 -0.0000
vn -0.9238 -0.0089 0.3827
vn -0.7071 -0.0089 0.7071
vn -0.3827 -0.0089 0.9238
vn -0.0000 -0.0089 1.0000
vn 0.3827 -0.0089 0.9238
vn 0.7071 -0.0089 0.7071
vn 0.9238 -0.0089 0.3827
vn 1.0000 -0.0089 -0.0000
vn -0.0000 0.9977 -0.0683
vn -0.0564 0.9968 -0.0564
vn -0.0682 0.9977 -0.0000
vn -0.0564 0.9968 0.0564
vn -0.0000 0.9977 0.0683
vn 0.1412 0.9900 -0.0000
vn 0.0683 0.9977 -0.0000
vn 0.0564 0.9968 0.0564
vn 0.1319 0.9894 0.0606
vn 0.1319 0.9894 -0.0605
vn 0.0564 0.9968 -0.0564
vn 0.7071 -0.0000 -0.7071
vn 0.3827 -0.0000 -0.9239
vn -0.3827 -0.0000 -0.9239
vn -0.7071 -0.0000 -0.7071
vn -0.9239 -0.0000 -0.3827
vn -1.0000 -0.0000 -0.0000
vn -0.9239 -0.0000 0.3827
vn -0.7071 -0.0000 0.7071
vn -0.3827 -0.0000 0.9239
vn 0.3827 -0.0000 0.9239
vn 0.7071 -0.0000 0.7071
vn 0.9239 -0.0000 0.3827
vn 1.0000 -0.0000 -0.0000
vn 0.9239 -0.0000 -0.3827
vn -0.1179 0.9860 -0.1179
vn -0.1319 0.9894 -0.0605
vn -0.0606 0.9894 -0.1319
vn -0.1412 0.9900 -0.0000
vn -0.1319 0.9894 0.0605
vn -0.1179 0.9860 0.1179
vn -0.0605 0.9894 0.1319
vn -0.0000 0.9900 0.1412
vn 0.0605 0.9894 0.1319
vn 0.1179 0.9860 0.1179
vn 0.1179 0.9860 -0.1179
vn 0.0605 0.9894 -0.1319
vn -0.0000 0.9900 -0.1412
vn 0.1810 0.9806 0.0750
vn 0.1960 0.9806 -0.0000
vn 0.1810 0.9806 -0.0750
vn -0.1386 0.9806 -0.1386
vn -0.1810 0.9806 -0.0750
vn -0.0750 0.9806 -0.1810
vn -0.1960 0.9806 -0.0000
vn -0.1810 0.9806 0.0750
vn -0.1386 0.9806 0.1386
vn -0.0750 0.9806 0.1810
vn -0.0000 0.9806 0.1960
vn 0.0750 0.9806 0.1810
vn 0.1386 0.9806 0.1386
vn 0.1386 0.9806 -0.1386
vn 0.0750 0.9806 -0.1810
vn -0.0000 0.9806 -0.1960
vn 0.7039 -0.7071 0.0667
vn -0.9764 0.1951 -0.0925
vn 0.0229 -0.9997 0.0022
vn 0.9764 -0.1951 0.0925
vn -0.0384 0.9993 -0.0036
vn 0.0031 -1.0000 0.0003
vn 0.0029 -1.0000 0.0003
vn -0.6360 0.0461 -0.7703
vn -0.6291 0.0431 -0.7761
vn -0.8757 0.0499 -0.4802
vn -0.8892 0.0500 -0.4548
vn 0.0006 -1.0000 -0.0017
vn 0.0004 -1.0000 -0.0012
vn -0.9961 -0.0000 0.0878
vn -0.9989 -0.0000 0.0469
vn -0.0243 -0.9997 -0.0041
vn -0.0404 -0.9992 -0.0050
vn 0.0007 -1.0000 -0.0002
vn 0.0009 -1.0000 -0.0013
vn -0.2895 0.0168 -0.9570
vn -0.6111 0.0351 -0.7908
vn -0.2924 0.0163 -0.9562
vn 0.0987 -0.0002 -0.9951
vn 0.0957 -0.0006 -0.9954
vn -0.2935 0.0160 -0.9558
vn 0.0943 -0.0007 -0.9955
vn 0.4713 -0.0177 -0.8818
vn 0.4689 -0.0175 -0.8831
vn 0.4677 -0.0174 -0.8837
vn 0.7719 -0.0328 -0.6349
vn 0.7706 -0.0320 -0.6365
vn 0.7700 -0.0316 -0.6373
vn 0.9554 -0.0432 -0.2922
vn 0.9551 -0.0418 -0.2934
vn 0.9550 -0.0411 -0.2939
vn 0.9944 -0.0469 0.0947
vn 0.9945 -0.0457 0.0942
vn 0.9946 -0.0445 0.0942
vn -0.7706 0.0479 -0.6355
vn -0.0604 -0.9981 -0.0071
vn 0.0440 0.9990 0.0042
vn 0.0446 0.9990 0.0036
vn 0.0448 0.9990 0.0041
vn 0.0450 0.9990 0.0043
vn 0.0453 0.9990 0.0030
vn 0.0457 0.9989 0.0048
vn 0.0459 0.9989 0.0044
vn -0.7693 0.0461 0.6373
vn -0.9588 0.0500 0.2798
vn -0.9502 0.0499 0.3075
vn -0.7635 0.0430 0.6444
vn -0.0000 -1.0000 0.0001
vn -0.9619 -0.0000 -0.2733
vn -0.9723 -0.0000 -0.2336
vn -0.0247 -0.9997 -0.0029
vn 0.0005 -1.0000 -0.0001
vn -0.4638 0.0169 0.8858
vn -0.4665 0.0163 0.8844
vn -0.7483 0.0351 0.6624
vn -0.0898 -0.0004 0.9960
vn -0.0929 -0.0006 0.9957
vn -0.4677 0.0160 0.8837
vn -0.0942 -0.0007 0.9955
vn 0.2971 -0.0180 0.9547
vn 0.2947 -0.0176 0.9554
vn 0.2935 -0.0174 0.9558
vn 0.6386 -0.0332 0.7688
vn 0.6373 -0.0321 0.7699
vn 0.6366 -0.0316 0.7705
vn 0.8832 -0.0434 0.4669
vn 0.8830 -0.0418 0.4676
vn 0.8828 -0.0411 0.4679
vn -0.8762 0.0479 0.4795
vn 0.0445 0.9990 0.0049
vn 0.0447 0.9990 0.0040
vn 0.0451 0.9990 0.0055
vn 0.0458 0.9989 0.0039
vn -0.9949 0.0347 -0.0942
vt 0.918417 0.586667
vt 0.918005 0.584599
vt 0.925646 0.579867
vt 0.925646 0.586599
vt 0.925646 0.591901
vt 0.918005 0.588736
vt 0.900378 0.581434
vt 0.903342 0.576997
vt 0.909190 0.582845
vt 0.908019 0.584599
vt 0.907779 0.574033
vt 0.910944 0.581674
vt 0.913012 0.572992
vt 0.913012 0.581262
vt 0.918245 0.574033
vt 0.915081 0.581674
vt 0.922682 0.596337
vt 0.916834 0.590489
vt 0.918245 0.599301
vt 0.915081 0.591661
vt 0.913012 0.600342
vt 0.913012 0.592072
vt 0.907779 0.599301
vt 0.910944 0.591661
vt 0.903342 0.596337
vt 0.900378 0.591901
vt 0.908019 0.588736
vt 0.909190 0.590489
vt 0.899337 0.586667
vt 0.907607 0.586667
vt 0.417536 0.689872
vt 0.417536 0.691981
vt 0.401030 0.691981
vt 0.401030 0.689872
vt 0.417536 0.694091
vt 0.401030 0.694091
vt 0.417536 0.696200
vt 0.401030 0.696200
vt 0.417536 0.698310
vt 0.401030 0.698310
vt 0.417536 0.700419
vt 0.417536 0.702528
vt 0.401030 0.702528
vt 0.401030 0.700419
vt 0.417536 0.672996
vt 0.417536 0.675106
vt 0.401030 0.675106
vt 0.401030 0.672996
vt 0.417536 0.677215
vt 0.401030 0.677215
vt 0.417536 0.679325
vt 0.401030 0.679325
vt 0.417536 0.681434
vt 0.401030 0.681434
vt 0.417536 0.683543
vt 0.417536 0.685653
vt 0.401030 0.685653
vt 0.401030 0.683543
vt 0.417536 0.687762
vt 0.401030 0.687762
vt 0.417536 0.704638
vt 0.401030 0.704638
vt 0.417536 0.670887
vt 0.401030 0.670887
vt 0.396282 0.722183
vt 0.393279 0.726677
vt 0.391787 0.725186
vt 0.390980 0.723237
vt 0.390980 0.721128
vt 0.391787 0.719179
vt 0.393279 0.717688
vt 0.395228 0.716881
vt 0.399285 0.717688
vt 0.400777 0.719179
vt 0.401584 0.721128
vt 0.401584 0.723237
vt 0.400777 0.725186
vt 0.399285 0.726677
vt 0.397337 0.727484
vt 0.395228 0.727484
vt 0.397337 0.716881
vt 0.025820 0.622886
vt 0.031155 0.622886
vt 0.031155 0.644045
vt 0.025820 0.644045
vt 0.036490 0.622886
vt 0.036490 0.644045
vt 0.041825 0.622886
vt 0.041825 0.644045
vt 0.047161 0.622886
vt 0.047161 0.644045
vt 0.052496 0.622886
vt 0.052496 0.644046
vt 0.057832 0.622886
vt 0.057832 0.644046
vt 0.063167 0.622886
vt 0.063167 0.644046
vt 0.068502 0.622886
vt 0.068502 0.644046
vt 0.073837 0.622886
vt 0.073837 0.644046
vt 0.079172 0.622886
vt 0.079172 0.644046
vt 0.084508 0.622886
vt 0.084508 0.644046
vt 0.092707 0.622886
vt 0.092707 0.644046
vt 0.020484 0.622886
vt 0.020484 0.644045
vt 0.916834 0.582845
vt 0.925646 0.574033
vt 0.004885 0.644045
vt 0.004885 0.622886
vt 0.013084 0.622886
vt 0.013084 0.644045
vt 0.402880 0.638315
vt 0.403120 0.631085
vt 0.408955 0.631085
vt 0.404948 0.638726
vt 0.408113 0.656355
vt 0.404948 0.648714
vt 0.406702 0.647542
vt 0.412550 0.653391
vt 0.407874 0.645789
vt 0.415515 0.648954
vt 0.408285 0.643720
vt 0.416556 0.643720
vt 0.407874 0.641652
vt 0.415515 0.638487
vt 0.397646 0.631085
vt 0.400811 0.638726
vt 0.399058 0.639898
vt 0.393209 0.634050
vt 0.397886 0.641652
vt 0.390245 0.638487
vt 0.397474 0.643720
vt 0.389203 0.643720
vt 0.397886 0.645789
vt 0.390245 0.648954
vt 0.393209 0.653391
vt 0.399058 0.647542
vt 0.400811 0.648714
vt 0.397646 0.656355
vt 0.402880 0.649125
vt 0.402880 0.657396
vt 0.960328 0.572886
vt 0.960328 0.589389
vt 0.958219 0.589389
vt 0.958219 0.572886
vt 0.956110 0.589389
vt 0.956110 0.572886
vt 0.954001 0.589389
vt 0.954001 0.572886
vt 0.951892 0.589389
vt 0.951892 0.572886
vt 0.949783 0.572886
vt 0.949783 0.589389
vt 0.947674 0.589389
vt 0.947674 0.572886
vt 0.977201 0.572886
vt 0.977201 0.589389
vt 0.975092 0.589389
vt 0.975092 0.572886
vt 0.972983 0.589389
vt 0.972983 0.572886
vt 0.970874 0.589389
vt 0.970874 0.572886
vt 0.968765 0.589389
vt 0.968765 0.572886
vt 0.966655 0.572886
vt 0.966655 0.589389
vt 0.964547 0.589389
vt 0.964547 0.572886
vt 0.962437 0.589389
vt 0.962437 0.572886
vt 0.945565 0.589389
vt 0.945565 0.572886
vt 0.979310 0.572886
vt 0.979310 0.589389
vt 0.453512 0.628187
vt 0.458815 0.627133
vt 0.458815 0.629242
vt 0.458008 0.631191
vt 0.456516 0.623692
vt 0.458008 0.625184
vt 0.452457 0.622885
vt 0.454567 0.622885
vt 0.448210 0.629242
vt 0.448210 0.627133
vt 0.449017 0.625184
vt 0.450509 0.632682
vt 0.449017 0.631191
vt 0.454567 0.633490
vt 0.452457 0.633490
vt 0.456516 0.632682
vt 0.450509 0.623692
vt 0.415515 0.631085
vt 0.406702 0.639898
vt 0.567583 0.800955
vt 0.661809 0.803027
vt 0.659041 0.859704
vt 0.567601 0.858312
vt 0.719856 0.680264
vt 0.628551 0.681907
vt 0.625657 0.625181
vt 0.719848 0.622931
vt 0.753279 0.812145
vt 0.745485 0.863634
vt 0.542213 0.686578
vt 0.533852 0.634843
vt 0.745700 0.917358
vt 0.658042 0.918283
vt 0.567600 0.917497
vt 0.629670 0.740292
vt 0.719851 0.739356
vt 0.542666 0.739942
vt 0.348193 0.822332
vt 0.381538 0.812801
vt 0.389840 0.864398
vt 0.359237 0.868215
vt 0.468310 0.696502
vt 0.489312 0.693539
vt 0.492944 0.730096
vt 0.476887 0.716359
vt 0.469775 0.675078
vt 0.481041 0.656928
vt 0.798513 0.869399
vt 0.805621 0.833157
vt 0.817334 0.850535
vt 0.819497 0.871575
vt 0.511574 0.690588
vt 0.514960 0.737648
vt 0.500211 0.644737
vt 0.390144 0.917935
vt 0.362348 0.915542
vt 0.776198 0.867067
vt 0.786547 0.821435
vt 0.476192 0.859925
vt 0.473291 0.803217
vt 0.813995 0.625072
vt 0.811185 0.681760
vt 0.905549 0.634309
vt 0.897557 0.686042
vt 0.477294 0.918393
vt 0.810123 0.740216
vt 0.897543 0.739646
vt 0.340251 0.907818
vt 0.324216 0.893803
vt 0.315903 0.873582
vt 0.336952 0.870939
vt 0.963423 0.715156
vt 0.947441 0.729281
vt 0.950552 0.692324
vt 0.971653 0.694864
vt 0.925373 0.737190
vt 0.928215 0.689717
vt 0.773758 0.914497
vt 0.795968 0.906246
vt 0.505811 0.282462
vt 0.995022 0.282462
vt 0.995022 0.364204
vt 0.505811 0.364204
vt 0.505811 0.200720
vt 0.995022 0.200720
vt 0.505811 0.118822
vt 0.995022 0.118822
vt 0.505811 0.089372
vt 0.995022 0.089372
vt 0.505811 0.061465
vt 0.995022 0.061465
vt 0.505811 0.033838
vt 0.995022 0.033838
vt 0.505811 0.004879
vt 0.995022 0.004879
vt 0.004879 0.004878
vt 0.494090 0.004878
vt 0.494090 0.032934
vt 0.004879 0.032934
vt 0.494090 0.060135
vt 0.004879 0.060134
vt 0.494090 0.087480
vt 0.004879 0.087480
vt 0.494090 0.125345
vt 0.004879 0.125345
vt 0.494090 0.216813
vt 0.004879 0.216813
vt 0.494090 0.307980
vt 0.004879 0.307980
vt 0.494090 0.399147
vt 0.004879 0.399146
vt 0.494090 0.490615
vt 0.004879 0.490615
vt 0.494090 0.528480
vt 0.004879 0.528479
vt 0.494090 0.555825
vt 0.004879 0.555825
vt 0.494090 0.583025
vt 0.004879 0.583025
vt 0.494090 0.611081
vt 0.004879 0.611081
vt 0.995022 0.560045
vt 0.505811 0.560045
vt 0.505811 0.531086
vt 0.995022 0.531086
vt 0.505811 0.503459
vt 0.995022 0.503459
vt 0.505811 0.475552
vt 0.995022 0.475552
vt 0.505811 0.446103
vt 0.995022 0.446103
vt 0.497119 0.638376
vt 0.493779 0.631720
vt 0.530645 0.619676
vt 0.532300 0.627260
vt 0.541591 0.755996
vt 0.511661 0.751400
vt 0.513414 0.744459
vt 0.542285 0.748006
vt 0.629747 0.748711
vt 0.719852 0.747880
vt 0.719854 0.756194
vt 0.629747 0.756912
vt 0.625135 0.617180
vt 0.624619 0.609328
vt 0.719841 0.606973
vt 0.719844 0.614874
vt 0.455351 0.698644
vt 0.456971 0.671040
vt 0.463590 0.673131
vt 0.461970 0.697379
vt 0.471293 0.647898
vt 0.476204 0.652488
vt 0.471700 0.719848
vt 0.466476 0.723813
vt 0.489595 0.735522
vt 0.486254 0.741223
vt 0.941987 0.637375
vt 0.907029 0.626768
vt 0.908619 0.619237
vt 0.945143 0.630823
vt 0.928902 0.750933
vt 0.898639 0.755831
vt 0.897959 0.747747
vt 0.926999 0.744045
vt 0.810056 0.748660
vt 0.810065 0.756885
vt 0.814496 0.617086
vt 0.814993 0.609253
vt 0.982410 0.668983
vt 0.984878 0.696656
vt 0.978015 0.695642
vt 0.976035 0.671315
vt 0.967613 0.646362
vt 0.962857 0.651175
vt 0.974120 0.722488
vt 0.968747 0.718566
vt 0.954368 0.740407
vt 0.950908 0.734702
vt 0.658002 0.935000
vt 0.567597 0.934363
vt 0.567602 0.926036
vt 0.657993 0.926752
vt 0.746983 0.933610
vt 0.746193 0.925526
vt 0.775481 0.921378
vt 0.777493 0.928512
vt 0.803318 0.917229
vt 0.799530 0.911653
vt 0.822605 0.898653
vt 0.817059 0.895091
vt 0.832440 0.872982
vt 0.825808 0.872232
vt 0.823375 0.848383
vt 0.829591 0.846019
vt 0.810213 0.828687
vt 0.814867 0.823914
vt 0.789513 0.815122
vt 0.792623 0.808625
vt 0.756319 0.797128
vt 0.754741 0.804630
vt 0.662796 0.787210
vt 0.662304 0.795043
vt 0.567564 0.784978
vt 0.567576 0.792891
vt 0.472243 0.787372
vt 0.472770 0.795217
vt 0.378399 0.797718
vt 0.380032 0.805266
vt 0.341920 0.809578
vt 0.345139 0.815999
vt 0.324445 0.829944
vt 0.319671 0.825186
vt 0.311417 0.850106
vt 0.305046 0.847813
vt 0.309555 0.874390
vt 0.302708 0.875435
vt 0.313568 0.901183
vt 0.318915 0.897237
vt 0.333405 0.918987
vt 0.336824 0.913257
vt 0.358972 0.929364
vt 0.360763 0.922384
vt 0.389744 0.926024
vt 0.389034 0.934041
vt 0.477359 0.935041
vt 0.477365 0.926826
vt 0.489983 0.624480
vt 0.528843 0.611722
vt 0.540717 0.764282
vt 0.509401 0.758925
vt 0.719854 0.764688
vt 0.629686 0.765372
vt 0.624076 0.601216
vt 0.719839 0.598882
vt 0.447104 0.700118
vt 0.448209 0.668204
vt 0.465205 0.642312
vt 0.460044 0.728614
vt 0.482118 0.747798
vt 0.938973 0.643730
vt 0.910359 0.611345
vt 0.948782 0.623634
vt 0.931251 0.758509
vt 0.899564 0.764187
vt 0.810132 0.765372
vt 0.815521 0.601161
vt 0.991068 0.665901
vt 0.993262 0.697909
vt 0.969857 0.673399
vt 0.973506 0.640700
vt 0.958166 0.655662
vt 0.980744 0.727241
vt 0.958634 0.747000
vt 0.658086 0.943516
vt 0.567598 0.942873
vt 0.747945 0.942033
vt 0.779992 0.936196
vt 0.807824 0.923789
vt 0.829332 0.903157
vt 0.811714 0.891775
vt 0.840662 0.874016
vt 0.838014 0.842904
vt 0.820639 0.818317
vt 0.796220 0.801504
vt 0.758053 0.789266
vt 0.663320 0.779119
vt 0.567558 0.776880
vt 0.471696 0.779262
vt 0.376610 0.789821
vt 0.338240 0.802431
vt 0.313769 0.819583
vt 0.329155 0.834384
vt 0.296400 0.844782
vt 0.317591 0.852151
vt 0.294344 0.876722
vt 0.306971 0.905964
vt 0.329179 0.925609
vt 0.356675 0.936936
vt 0.388147 0.942356
vt 0.477293 0.943515
vt 0.164562 0.831842
vt 0.164562 0.758885
vt 0.182305 0.758885
vt 0.182305 0.831842
vt 0.200047 0.758885
vt 0.200047 0.831842
vt 0.217789 0.758885
vt 0.217789 0.831842
vt 0.235531 0.758885
vt 0.235531 0.831842
vt 0.253273 0.758885
vt 0.253273 0.831842
vt 0.271015 0.758885
vt 0.271015 0.831842
vt 0.288758 0.758885
vt 0.288758 0.831842
vt 0.004883 0.831842
vt 0.004883 0.758885
vt 0.022625 0.758885
vt 0.022625 0.831842
vt 0.040367 0.758885
vt 0.040367 0.831842
vt 0.058110 0.758885
vt 0.058110 0.831842
vt 0.075852 0.758885
vt 0.075852 0.831842
vt 0.093594 0.758885
vt 0.093594 0.831842
vt 0.111336 0.758885
vt 0.111336 0.831842
vt 0.129078 0.758885
vt 0.129078 0.831842
vt 0.146820 0.758885
vt 0.146820 0.831842
vt 0.409095 0.622885
vt 0.415515 0.622885
vt 0.326891 0.685323
vt 0.343289 0.685322
vt 0.343141 0.701573
vt 0.326891 0.701721
vt 0.310644 0.701569
vt 0.310498 0.685322
vt 0.326891 0.642210
vt 0.326891 0.668927
vt 0.310648 0.669077
vt 0.310394 0.645496
vt 0.343389 0.645479
vt 0.343138 0.669073
vt 0.933846 0.579990
vt 0.933846 0.586729
vt 0.403411 0.622885
vt 0.933846 0.591901
vt 0.933846 0.574033
vt 0.982729 0.836100
vt 0.982729 0.820897
vt 0.994418 0.820897
vt 0.994418 0.836100
vt 0.982729 0.805694
vt 0.994418 0.805694
vt 0.982730 0.790491
vt 0.994418 0.790491
vt 0.982730 0.775288
vt 0.994418 0.775288
vt 0.982730 0.760085
vt 0.994418 0.760085
vt 0.982730 0.744881
vt 0.994418 0.744881
vt 0.982730 0.972928
vt 0.994418 0.972928
vt 0.982730 0.957725
vt 0.994418 0.957725
vt 0.982730 0.942522
vt 0.994418 0.942522
vt 0.982730 0.927319
vt 0.994418 0.927319
vt 0.982730 0.912116
vt 0.994418 0.912116
vt 0.982730 0.896913
vt 0.994418 0.896913
vt 0.982730 0.881710
vt 0.994418 0.881710
vt 0.982730 0.866507
vt 0.994418 0.866507
vt 0.982729 0.851303
vt 0.994418 0.851303
vt 0.542442 0.975717
vt 0.518266 0.975717
vt 0.518266 0.956887
vt 0.542442 0.956887
vt 0.494089 0.975717
vt 0.494089 0.956887
vt 0.469912 0.975717
vt 0.469912 0.956887
vt 0.445736 0.975717
vt 0.445736 0.956887
vt 0.421560 0.975717
vt 0.421560 0.956887
vt 0.397383 0.975717
vt 0.397383 0.956887
vt 0.784207 0.975717
vt 0.760031 0.975717
vt 0.760031 0.956887
vt 0.784207 0.956887
vt 0.735854 0.975717
vt 0.735854 0.956887
vt 0.711678 0.975717
vt 0.711678 0.956887
vt 0.687501 0.975717
vt 0.687501 0.956887
vt 0.663325 0.975717
vt 0.663325 0.956887
vt 0.639148 0.975717
vt 0.639148 0.956887
vt 0.614972 0.975717
vt 0.614972 0.956887
vt 0.590795 0.975717
vt 0.590795 0.956887
vt 0.566619 0.975717
vt 0.566619 0.956887
vt 0.357389 0.715821
vt 0.343394 0.725170
vt 0.366736 0.701824
vt 0.326891 0.728449
vt 0.310385 0.725159
vt 0.296397 0.715808
vt 0.287057 0.701816
vt 0.283794 0.685318
vt 0.287065 0.668823
vt 0.296409 0.654838
vt 0.357377 0.654828
vt 0.366727 0.668816
vt 0.370015 0.685318
vt 0.303064 0.627737
vt 0.326891 0.623001
vt 0.350728 0.627733
vt 0.371014 0.729405
vt 0.350773 0.742939
vt 0.384522 0.709155
vt 0.326891 0.747682
vt 0.303043 0.742929
vt 0.282818 0.729421
vt 0.269293 0.709195
vt 0.264543 0.685313
vt 0.269308 0.661436
vt 0.282842 0.641225
vt 0.370945 0.641218
vt 0.384477 0.661426
vt 0.389247 0.685282
vt 0.720715 0.572882
vt 0.720715 0.581022
vt 0.717014 0.581022
vt 0.717014 0.572882
vt 0.713312 0.581022
vt 0.713312 0.572882
vt 0.709610 0.581022
vt 0.709610 0.572882
vt 0.724417 0.572882
vt 0.724417 0.581022
vt 0.172673 0.862041
vt 0.167336 0.862041
vt 0.167336 0.844878
vt 0.172673 0.844878
vt 0.178011 0.862041
vt 0.178010 0.844878
vt 0.705908 0.581023
vt 0.705908 0.572882
vt 0.728120 0.572882
vt 0.728120 0.581022
vt 0.183347 0.844878
vt 0.183347 0.862041
vt 0.161999 0.862041
vt 0.161999 0.844878
vt 0.702206 0.581023
vt 0.702206 0.572882
vt 0.731821 0.572882
vt 0.731821 0.581022
vt 0.188684 0.844878
vt 0.188684 0.862041
vt 0.156662 0.862041
vt 0.156662 0.844878
vt 0.979734 0.602878
vt 0.979734 0.620041
vt 0.977609 0.620041
vt 0.977609 0.602878
vt 0.981858 0.602878
vt 0.981858 0.620041
vt 0.983982 0.602878
vt 0.983982 0.620041
vt 0.975484 0.620041
vt 0.975484 0.602878
vt 0.698504 0.581023
vt 0.698504 0.572882
vt 0.735523 0.572882
vt 0.735523 0.581022
vt 0.244467 0.888693
vt 0.236304 0.888693
vt 0.236304 0.884990
vt 0.244467 0.884990
vt 0.244467 0.892396
vt 0.236304 0.892396
vt 0.986106 0.602878
vt 0.986106 0.620041
vt 0.973360 0.620041
vt 0.973360 0.602878
vt 0.194021 0.862041
vt 0.194021 0.844878
vt 0.151325 0.862041
vt 0.151325 0.844878
vt 0.244467 0.896098
vt 0.236304 0.896098
vt 0.236304 0.881287
vt 0.244467 0.881287
vt 0.988231 0.602878
vt 0.988231 0.620041
vt 0.971236 0.620041
vt 0.971236 0.602878
vt 0.694802 0.581023
vt 0.694802 0.572882
vt 0.739225 0.572882
vt 0.739225 0.581022
vt 0.244467 0.899802
vt 0.236304 0.899802
vt 0.236304 0.877584
vt 0.244467 0.877584
vt 0.990355 0.602878
vt 0.990355 0.620041
vt 0.969111 0.620041
vt 0.969111 0.602878
vt 0.199358 0.862041
vt 0.199358 0.844878
vt 0.145988 0.862041
vt 0.145988 0.844878
vt 0.992480 0.602878
vt 0.992480 0.620041
vt 0.966987 0.620041
vt 0.966987 0.602878
vt 0.244467 0.903504
vt 0.236304 0.903504
vt 0.236304 0.873881
vt 0.244467 0.873881
vt 0.428256 0.648054
vt 0.428256 0.630882
vt 0.436494 0.630882
vt 0.436493 0.648054
vt 0.204695 0.862041
vt 0.204695 0.844878
vt 0.140651 0.862041
vt 0.140651 0.844878
vt 0.244467 0.907207
vt 0.236304 0.907207
vt 0.236304 0.870178
vt 0.244467 0.870178
vt 0.760816 0.572882
vt 0.760816 0.581022
vt 0.244467 0.910910
vt 0.236304 0.910910
vt 0.236304 0.866475
vt 0.244467 0.866475
vt 0.004885 0.655606
vt 0.026642 0.655607
vt 0.026642 0.672768
vt 0.004885 0.672768
vt 0.118892 0.862041
vt 0.118892 0.844878
vt 0.236304 0.844878
vt 0.244467 0.844878
vt 0.780194 0.572882
vt 0.780194 0.581022
vt 0.338505 0.978184
vt 0.338472 0.958407
vt 0.356146 0.958671
vt 0.361408 0.978266
vt 0.046167 0.655607
vt 0.046167 0.672768
vt 0.528855 0.600982
vt 0.523143 0.600982
vt 0.523143 0.592885
vt 0.528855 0.592885
vt 0.099364 0.862041
vt 0.099364 0.844878
vt 0.041454 0.678386
vt 0.027678 0.678386
vt 0.517334 0.600982
vt 0.517334 0.592885
vt 0.041454 0.684166
vt 0.028264 0.684166
vt 0.117856 0.867660
vt 0.104079 0.867660
vt 0.046168 0.684166
vt 0.117270 0.873441
vt 0.104079 0.873441
vt 0.099364 0.873441
vt 0.138364 0.655606
vt 0.138380 0.684166
vt 0.119935 0.684166
vt 0.119935 0.672768
vt 0.314591 0.950253
vt 0.338457 0.950528
vt 0.314602 0.958444
vt 0.290728 0.949904
vt 0.290731 0.958476
vt 0.314632 0.978223
vt 0.290759 0.978257
vt 0.266866 0.949539
vt 0.266863 0.958505
vt 0.266886 0.978288
vt 0.243004 0.949217
vt 0.242997 0.958529
vt 0.871974 0.581023
vt 0.871974 0.572882
vt 0.243014 0.978314
vt 0.219141 0.948989
vt 0.219136 0.958548
vt 0.219142 0.978331
vt 0.195281 0.948889
vt 0.195279 0.958555
vt 0.195280 0.978337
vt 0.013930 0.873441
vt 0.006582 0.844878
vt 0.025544 0.862041
vt 0.025631 0.873441
vt 0.356253 0.950641
vt 0.168247 0.627653
vt 0.166301 0.655569
vt 0.148405 0.640913
vt 0.248158 0.660757
vt 0.219141 0.656886
vt 0.215058 0.627653
vt 0.234900 0.640912
vt 0.252813 0.684166
vt 0.220958 0.684166
vt 0.165984 0.684166
vt 0.192992 0.684166
vt 0.192496 0.654927
vt 0.191653 0.622997
vt 0.886392 0.892041
vt 0.882638 0.862678
vt 0.909802 0.864345
vt 0.909802 0.896697
vt 0.853275 0.858926
vt 0.866539 0.878778
vt 0.853275 0.812097
vt 0.882634 0.808345
vt 0.880967 0.835510
vt 0.848617 0.835510
vt 0.909802 0.835510
vt 0.909802 0.806674
vt 0.866536 0.792249
vt 0.886383 0.780825
vt 0.909802 0.775057
vt 0.531741 0.581034
vt 0.528037 0.581034
vt 0.528037 0.572884
vt 0.531741 0.572884
vt 0.524333 0.581034
vt 0.524333 0.572884
vt 0.520629 0.581034
vt 0.520629 0.572884
vt 0.535445 0.581034
vt 0.535445 0.572884
vt 0.172673 0.884841
vt 0.172673 0.902004
vt 0.167336 0.902004
vt 0.167336 0.884841
vt 0.178011 0.884841
vt 0.178011 0.902004
vt 0.516925 0.581034
vt 0.516925 0.572884
vt 0.539149 0.581034
vt 0.539149 0.572884
vt 0.183348 0.884841
vt 0.183347 0.902004
vt 0.161999 0.902004
vt 0.161999 0.884841
vt 0.513221 0.581034
vt 0.513221 0.572884
vt 0.542853 0.581034
vt 0.542853 0.572884
vt 0.188684 0.884841
vt 0.188684 0.902004
vt 0.156662 0.902004
vt 0.156662 0.884841
vt 0.117176 0.622886
vt 0.119299 0.622886
vt 0.119300 0.640043
vt 0.117176 0.640044
vt 0.115052 0.622886
vt 0.115052 0.640043
vt 0.112929 0.622886
vt 0.112929 0.640043
vt 0.121423 0.622886
vt 0.121423 0.640043
vt 0.509517 0.581034
vt 0.509517 0.572884
vt 0.546557 0.581034
vt 0.546557 0.572884
vt 0.216420 0.888698
vt 0.216420 0.884995
vt 0.224582 0.884995
vt 0.224582 0.888698
vt 0.216420 0.892401
vt 0.224582 0.892401
vt 0.110805 0.622886
vt 0.110805 0.640043
vt 0.123547 0.622886
vt 0.123547 0.640043
vt 0.194021 0.884841
vt 0.194021 0.902004
vt 0.151325 0.902004
vt 0.151325 0.884841
vt 0.216420 0.896103
vt 0.224582 0.896103
vt 0.216420 0.881292
vt 0.224582 0.881292
vt 0.108681 0.622886
vt 0.108681 0.640043
vt 0.125671 0.622886
vt 0.125671 0.640043
vt 0.505813 0.581034
vt 0.505813 0.572884
vt 0.550261 0.581034
vt 0.550261 0.572884
vt 0.216420 0.899806
vt 0.224582 0.899806
vt 0.216420 0.877589
vt 0.224582 0.877589
vt 0.106557 0.622886
vt 0.106557 0.640043
vt 0.127794 0.622886
vt 0.127794 0.640043
vt 0.199358 0.884841
vt 0.199358 0.902004
vt 0.145988 0.902004
vt 0.145988 0.884841
vt 0.104434 0.622886
vt 0.104434 0.640043
vt 0.129918 0.622886
vt 0.129918 0.640043
vt 0.216420 0.903509
vt 0.224582 0.903509
vt 0.216420 0.873886
vt 0.224582 0.873886
vt 0.263715 0.626884
vt 0.263715 0.635113
vt 0.246561 0.635113
vt 0.246561 0.626884
vt 0.204695 0.884841
vt 0.204695 0.902004
vt 0.140651 0.902004
vt 0.140651 0.884841
vt 0.216420 0.907212
vt 0.224582 0.907212
vt 0.216420 0.870183
vt 0.224582 0.870183
vt 0.571864 0.572884
vt 0.571864 0.581034
vt 0.216420 0.910915
vt 0.224582 0.910915
vt 0.216420 0.866480
vt 0.224582 0.866480
vt 0.004885 0.712726
vt 0.004885 0.695564
vt 0.026642 0.695565
vt 0.026642 0.712726
vt 0.118892 0.902004
vt 0.118892 0.884841
vt 0.216420 0.844883
vt 0.224582 0.844883
vt 0.591252 0.572884
vt 0.591252 0.581034
vt 0.052053 0.978185
vt 0.029150 0.978267
vt 0.034412 0.958672
vt 0.052087 0.958408
vt 0.046167 0.695565
vt 0.046167 0.712726
vt 0.505813 0.600982
vt 0.505813 0.592885
vt 0.511525 0.592885
vt 0.511525 0.600982
vt 0.099364 0.902004
vt 0.099364 0.884841
vt 0.041454 0.689946
vt 0.027678 0.689946
vt 0.104079 0.879222
vt 0.117856 0.879221
vt 0.138361 0.712725
vt 0.119936 0.695565
vt 0.075967 0.950099
vt 0.075958 0.958446
vt 0.052102 0.950409
vt 0.099830 0.949738
vt 0.099829 0.958480
vt 0.075927 0.978225
vt 0.099801 0.978261
vt 0.123693 0.949387
vt 0.123698 0.958510
vt 0.123674 0.978293
vt 0.147557 0.949102
vt 0.147563 0.958534
vt 0.683082 0.572884
vt 0.683082 0.581034
vt 0.147547 0.978319
vt 0.171420 0.948927
vt 0.171423 0.958550
vt 0.171419 0.978334
vt 0.025544 0.884841
vt 0.006582 0.902004
vt 0.034304 0.950562
vt 0.168244 0.740681
vt 0.148402 0.727421
vt 0.166299 0.712764
vt 0.248157 0.707575
vt 0.234899 0.727420
vt 0.215056 0.740680
vt 0.219140 0.711447
vt 0.192495 0.713406
vt 0.191650 0.745337
vt 0.933212 0.892041
vt 0.936967 0.862678
vt 0.966330 0.858926
vt 0.953066 0.878778
vt 0.966330 0.812097
vt 0.970988 0.835510
vt 0.938638 0.835510
vt 0.936971 0.808345
vt 0.953068 0.792249
vt 0.933221 0.780825
vt 0.385637 0.958526
vt 0.385529 0.978362
vt 0.004921 0.958526
vt 0.005028 0.978362
vt 0.397646 0.622885
s 1
f 31/1/1 21/2/1 608/3/1 611/4/1
f 9/5/1 23/6/1 31/1/1 611/4/1
f 11/7/1 2/8/1 17/9/1 16/10/1
f 2/8/1 12/11/1 18/12/1 17/9/1
f 12/11/1 1/13/1 19/14/1 18/12/1
f 1/13/1 13/15/1 20/16/1 19/14/1
f 9/5/1 8/17/1 24/18/1 23/6/1
f 8/17/1 7/19/1 25/20/1 24/18/1
f 7/19/1 6/21/1 26/22/1 25/20/1
f 6/21/1 5/23/1 27/24/1 26/22/1
f 4/25/1 10/26/1 28/27/1 29/28/1
f 5/23/1 4/25/1 29/28/1 27/24/1
f 10/26/1 3/29/1 30/30/1 28/27/1
f 3/29/1 11/7/1 16/10/1 30/30/1
f 16/31/2 17/32/3 33/33/4 32/34/2
f 17/32/3 18/35/5 34/36/5 33/33/4
f 18/35/5 19/37/6 35/38/6 34/36/5
f 19/37/6 20/39/7 36/40/7 35/38/6
f 22/41/8 21/42/9 37/43/9 38/44/8
f 20/39/7 22/41/8 38/44/8 36/40/7
f 23/45/10 24/46/11 40/47/11 39/48/10
f 24/46/11 25/49/12 41/50/12 40/47/11
f 25/49/12 26/51/13 42/52/13 41/50/12
f 26/51/13 27/53/14 43/54/14 42/52/13
f 29/55/15 28/56/16 44/57/16 45/58/15
f 27/53/14 29/55/15 45/58/15 43/54/14
f 28/56/16 30/59/17 46/60/17 44/57/16
f 30/59/17 16/31/2 32/34/2 46/60/17
f 21/42/9 31/61/18 47/62/18 37/43/9
f 31/63/18 23/45/10 39/48/10 47/64/18
f 48/65/1 33/66/1 34/67/1 35/68/1
f 48/65/1 35/68/1 36/69/1 38/70/1
f 48/65/1 38/70/1 37/71/1 47/72/1
f 48/65/1 40/73/1 41/74/1 42/75/1
f 48/65/1 42/75/1 43/76/1 45/77/1
f 48/65/1 45/77/1 44/78/1 46/79/1
f 48/65/1 46/79/1 32/80/1 33/66/1
f 48/65/1 47/72/1 39/81/1 40/73/1
f 1/82/6 12/83/5 61/84/5 50/85/6
f 12/83/5 2/86/3 51/87/3 61/84/5
f 2/86/3 11/88/2 60/89/2 51/87/3
f 11/88/2 3/90/17 52/91/17 60/89/2
f 3/90/17 10/92/16 59/93/16 52/91/17
f 10/92/16 4/94/19 53/95/19 59/93/16
f 4/94/19 5/96/14 54/97/14 53/95/19
f 5/96/14 6/98/13 55/99/13 54/97/14
f 6/98/13 7/100/12 56/101/12 55/99/13
f 7/100/12 8/102/11 57/103/11 56/101/12
f 8/102/11 9/104/20 58/105/20 57/103/11
f 9/104/13 15/106/13 64/107/13 58/105/13
f 13/108/21 1/82/6 50/85/6 62/109/21
f 21/2/1 22/110/1 606/111/1 608/3/1
f 98/112/6 49/113/6 606/114/6 610/115/6
f 13/15/1 606/111/1 22/110/1 20/16/1
f 80/116/22 317/117/22 607/118/22 70/119/22
f 60/120/22 65/121/22 66/122/22 51/123/22
f 51/123/22 66/122/22 67/124/22 61/125/22
f 61/125/22 67/124/22 68/126/22 50/127/22
f 50/127/22 68/126/22 69/128/22 62/129/22
f 58/130/22 72/131/22 73/132/22 57/133/22
f 57/133/22 73/132/22 74/134/22 56/135/22
f 56/135/22 74/134/22 75/136/22 55/137/22
f 55/137/22 75/136/22 76/138/22 54/139/22
f 53/140/22 78/141/22 77/142/22 59/143/22
f 54/139/22 76/138/22 78/141/22 53/140/22
f 59/143/22 77/142/22 79/144/22 52/145/22
f 52/145/22 79/144/22 65/121/22 60/120/22
f 65/146/2 81/147/2 82/148/4 66/149/4
f 66/149/4 82/148/4 83/150/5 67/151/5
f 67/151/5 83/150/5 84/152/6 68/153/6
f 68/153/6 84/152/6 85/154/7 69/155/7
f 71/156/8 87/157/8 86/158/9 70/159/9
f 69/155/7 85/154/7 87/157/8 71/156/8
f 72/160/10 88/161/10 89/162/11 73/163/11
f 73/163/11 89/162/11 90/164/12 74/165/12
f 74/165/12 90/164/12 91/166/13 75/167/13
f 75/167/13 91/166/13 92/168/14 76/169/14
f 78/170/15 94/171/15 93/172/16 77/173/16
f 76/169/14 92/168/14 94/171/15 78/170/15
f 77/173/16 93/172/16 95/174/17 79/175/17
f 79/175/17 95/174/17 81/147/2 65/146/2
f 70/159/9 86/158/9 96/176/18 80/177/18
f 80/178/18 96/179/18 88/161/10 72/160/10
f 97/180/22 84/181/22 83/182/22 82/183/22
f 97/180/22 87/184/22 85/185/22 84/181/22
f 97/180/22 96/186/22 86/187/22 87/184/22
f 97/180/22 91/188/22 90/189/22 89/190/22
f 97/180/22 94/191/22 92/192/22 91/188/22
f 97/180/22 95/193/22 93/194/22 94/191/22
f 97/180/22 82/183/22 81/195/22 95/193/22
f 97/180/22 89/190/22 88/196/22 96/186/22
f 70/119/22 607/118/22 610/197/22 71/198/22
f 62/129/22 69/128/22 71/198/22 610/197/22
f 101/199/23 105/200/24 114/201/18 115/202/18
f 116/203/17 117/204/17 106/205/25 102/206/26
f 105/200/24 109/207/27 113/208/18 114/201/18
f 117/204/17 118/209/17 110/210/28 106/205/25
f 114/201/18 113/208/18 108/211/29 104/212/30
f 115/202/18 114/201/18 104/212/30 100/213/31
f 103/214/32 117/204/17 116/203/17 99/215/33
f 107/216/34 118/209/17 117/204/17 103/214/32
f 145/217/35 137/218/36 141/219/18 603/220/18
f 111/221/37 597/222/17 126/223/38 127/224/39
f 597/222/17 111/221/37 122/225/40 123/226/41
f 602/227/18 120/228/42 121/229/43 112/230/44
f 597/222/17 600/231/17 125/232/45 126/223/38
f 600/231/17 597/222/17 123/226/41 124/233/46
f 136/234/47 156/235/48 603/220/18 141/219/18
f 601/236/18 119/237/49 120/228/42 602/227/18
f 101/199/23 115/202/18 142/238/18 133/239/50
f 116/203/17 102/206/26 134/240/51 143/241/17
f 133/239/50 142/238/18 141/219/18 137/218/36
f 143/241/17 134/240/51 138/242/52 144/243/17
f 142/238/18 132/244/53 136/234/47 141/219/18
f 115/202/18 100/213/31 132/244/53 142/238/18
f 131/245/54 99/215/33 116/203/17 143/241/17
f 135/246/55 131/245/54 143/241/17 144/243/17
f 155/247/56 154/248/57 140/249/58 604/250/18
f 153/251/59 152/252/60 599/253/17 139/254/61
f 151/255/62 135/246/55 144/243/17 598/256/17
f 108/211/29 113/208/18 601/236/18 130/257/63
f 118/209/17 600/231/17 124/233/46 110/210/28
f 152/252/60 151/255/62 598/256/17 599/253/17
f 113/208/18 109/207/27 119/237/49 601/236/18
f 130/257/63 601/236/18 602/227/18 129/258/64
f 157/259/65 158/260/65 203/261/66 204/262/66
f 158/260/65 157/259/65 160/263/67 159/264/67
f 159/264/67 160/263/67 162/265/68 161/266/68
f 161/266/68 162/265/68 164/267/69 163/268/69
f 163/268/69 164/267/69 166/269/70 165/270/70
f 165/270/70 166/269/70 168/271/71 167/272/71
f 167/272/71 168/271/71 170/273/72 169/274/72
f 169/275/72 170/276/72 172/277/73 171/278/73
f 171/278/73 172/277/73 174/279/74 173/280/74
f 173/280/74 174/279/74 176/281/75 175/282/75
f 175/282/75 176/281/75 178/283/76 177/284/76
f 177/284/76 178/283/76 180/285/77 179/286/77
f 179/286/77 180/285/77 182/287/78 181/288/78
f 181/288/78 182/287/78 184/289/79 183/290/79
f 183/290/79 184/289/79 186/291/80 185/292/80
f 185/292/80 186/291/80 188/293/81 187/294/81
f 187/294/81 188/293/81 190/295/82 189/296/82
f 189/296/82 190/295/82 192/297/83 191/298/83
f 191/298/83 192/297/83 194/299/84 193/300/84
f 193/301/84 194/302/84 196/303/85 195/304/85
f 195/304/85 196/303/85 198/305/86 197/306/86
f 197/306/86 198/305/86 200/307/87 199/308/87
f 199/308/87 200/307/87 202/309/88 201/310/88
f 201/310/88 202/309/88 204/262/66 203/261/66
f 205/311/89 206/312/90 207/313/91 208/314/92
f 210/315/93 209/316/94 211/317/95 212/318/96
f 213/319/97 214/320/98 215/321/99 216/322/100
f 217/323/101 218/324/102 219/325/103 220/326/104
f 212/318/96 213/319/97 216/322/100 210/315/93
f 208/314/92 207/313/91 218/324/102 217/323/101
f 222/327/105 221/328/106 223/329/107 224/330/108
f 221/328/106 225/331/109 226/332/110 223/329/107
f 225/331/109 206/312/90 205/311/89 226/332/110
f 224/330/108 227/333/111 228/334/112 222/327/105
f 227/333/111 229/335/113 230/336/114 228/334/112
f 229/335/113 211/317/95 209/316/94 230/336/114
f 231/337/115 232/338/116 233/339/117 234/340/118
f 236/341/119 235/342/120 237/343/121 238/344/122
f 239/345/123 240/346/124 215/321/99 214/320/98
f 241/347/125 220/326/104 219/325/103 242/348/126
f 237/343/121 235/342/120 240/346/124 239/345/123
f 232/338/116 241/347/125 242/348/126 233/339/117
f 244/349/127 243/350/128 245/351/129 246/352/130
f 247/353/131 244/349/127 246/352/130 248/354/132
f 234/340/118 247/353/131 248/354/132 231/337/115
f 245/351/129 243/350/128 249/355/133 250/356/134
f 250/356/134 249/355/133 251/357/135 252/358/136
f 252/358/136 251/357/135 236/341/119 238/344/122
f 254/359/97 253/360/137 255/361/99 256/362/100
f 257/363/96 254/359/97 256/362/100 258/364/93
f 259/365/94 260/366/95 257/363/96 258/364/93
f 261/367/113 260/366/95 259/365/94 262/368/114
f 263/369/111 261/367/113 262/368/114 264/370/112
f 265/371/108 263/369/111 264/370/112 266/372/105
f 266/372/105 267/373/106 268/374/107 265/371/108
f 267/373/106 269/375/109 270/376/110 268/374/107
f 269/375/109 271/377/90 272/378/89 270/376/110
f 273/379/92 272/378/89 271/377/90 274/380/91
f 275/381/101 273/379/92 274/380/91 276/382/102
f 277/383/104 275/381/101 276/382/102 278/384/103
f 279/385/125 277/383/104 278/384/103 280/386/126
f 281/387/116 279/385/125 280/386/126 282/388/117
f 283/389/115 281/387/116 282/388/117 284/390/118
f 285/391/131 286/392/132 283/389/115 284/390/118
f 287/393/127 288/394/130 286/392/132 285/391/131
f 289/395/128 290/396/129 288/394/130 287/393/127
f 291/397/134 290/396/129 289/395/128 292/398/133
f 293/399/136 291/397/134 292/398/133 294/400/135
f 295/401/122 293/399/136 294/400/135 296/402/119
f 296/402/119 297/403/120 298/404/121 295/401/122
f 299/405/123 298/404/121 297/403/120 300/406/124
f 253/360/137 299/405/123 300/406/124 255/361/99
f 175/407/138 177/408/139 207/313/91 206/312/90
f 110/210/28 124/233/46 205/311/89 208/314/92
f 161/409/140 163/410/141 209/316/94 210/315/93
f 125/232/45 107/216/34 212/318/96 211/317/95
f 103/214/32 99/215/33 214/320/98 213/319/97
f 158/411/142 159/412/143 216/322/100 215/321/99
f 179/413/144 181/414/145 219/325/103 218/324/102
f 102/206/26 106/205/25 217/323/101 220/326/104
f 107/216/34 103/214/32 213/319/97 212/318/96
f 159/412/143 161/409/140 210/315/93 216/322/100
f 177/408/139 179/413/144 218/324/102 207/313/91
f 106/205/25 110/210/28 208/314/92 217/323/101
f 169/415/146 171/416/147 221/328/106 222/327/105
f 122/225/40 111/221/37 224/330/108 223/329/107
f 171/416/147 173/417/148 225/331/109 221/328/106
f 123/226/41 122/225/40 223/329/107 226/332/110
f 173/417/148 175/407/138 206/312/90 225/331/109
f 124/233/46 123/226/41 226/332/110 205/311/89
f 111/221/37 127/224/39 227/333/111 224/330/108
f 167/418/149 169/415/146 222/327/105 228/334/112
f 127/224/39 126/223/38 229/335/113 227/333/111
f 165/419/150 167/418/149 228/334/112 230/336/114
f 126/223/38 125/232/45 211/317/95 229/335/113
f 163/410/141 165/419/150 230/336/114 209/316/94
f 150/420/151 138/242/52 232/338/116 231/337/115
f 185/421/152 187/422/153 234/340/118 233/339/117
f 199/423/154 201/424/155 235/342/120 236/341/119
f 135/246/55 151/255/62 238/344/122 237/343/121
f 203/425/156 158/411/142 215/321/99 240/346/124
f 99/215/33 131/245/54 239/345/123 214/320/98
f 134/240/51 102/206/26 220/326/104 241/347/125
f 181/414/145 183/426/157 242/348/126 219/325/103
f 201/424/155 203/425/156 240/346/124 235/342/120
f 131/245/54 135/246/55 237/343/121 239/345/123
f 138/242/52 134/240/51 241/347/125 232/338/116
f 183/426/157 185/421/152 233/339/117 242/348/126
f 191/427/158 193/428/159 243/350/128 244/349/127
f 139/254/61 148/429/160 246/352/130 245/351/129
f 189/430/161 191/427/158 244/349/127 247/353/131
f 148/429/160 149/431/162 248/354/132 246/352/130
f 187/422/153 189/430/161 247/353/131 234/340/118
f 149/431/162 150/420/151 231/337/115 248/354/132
f 193/428/159 195/432/163 249/355/133 243/350/128
f 153/251/59 139/254/61 245/351/129 250/356/134
f 195/432/163 197/433/164 251/357/135 249/355/133
f 152/252/60 153/251/59 250/356/134 252/358/136
f 197/433/164 199/423/154 236/341/119 251/357/135
f 151/255/62 152/252/60 252/358/136 238/344/122
f 160/434/165 157/435/166 253/360/137 254/359/97
f 100/213/31 104/212/30 256/362/100 255/361/99
f 162/436/167 160/434/165 254/359/97 257/363/96
f 104/212/30 108/211/29 258/364/93 256/362/100
f 164/437/168 162/436/167 257/363/96 260/366/95
f 108/211/29 130/257/63 259/365/94 258/364/93
f 166/438/169 164/437/168 260/366/95 261/367/113
f 130/257/63 129/258/64 262/368/114 259/365/94
f 168/439/170 166/438/169 261/367/113 263/369/111
f 129/258/64 128/440/171 264/370/112 262/368/114
f 170/441/172 168/439/170 263/369/111 265/371/108
f 128/440/171 112/230/44 266/372/105 264/370/112
f 112/230/44 121/229/43 267/373/106 266/372/105
f 172/442/173 170/441/172 265/371/108 268/374/107
f 121/229/43 120/228/42 269/375/109 267/373/106
f 174/443/174 172/442/173 268/374/107 270/376/110
f 120/228/42 119/237/49 271/377/90 269/375/109
f 176/444/175 174/443/174 270/376/110 272/378/89
f 178/445/176 176/444/175 272/378/89 273/379/92
f 119/237/49 109/207/27 274/380/91 271/377/90
f 180/446/177 178/445/176 273/379/92 275/381/101
f 109/207/27 105/200/24 276/382/102 274/380/91
f 182/447/178 180/446/177 275/381/101 277/383/104
f 105/200/24 101/199/23 278/384/103 276/382/102
f 184/448/179 182/447/178 277/383/104 279/385/125
f 101/199/23 133/239/50 280/386/126 278/384/103
f 186/449/180 184/448/179 279/385/125 281/387/116
f 133/239/50 137/218/36 282/388/117 280/386/126
f 188/450/181 186/449/180 281/387/116 283/389/115
f 137/218/36 145/217/35 284/390/118 282/388/117
f 190/451/182 188/450/181 283/389/115 286/392/132
f 145/217/35 146/452/183 285/391/131 284/390/118
f 192/453/184 190/451/182 286/392/132 288/394/130
f 146/452/183 147/454/185 287/393/127 285/391/131
f 194/455/186 192/453/184 288/394/130 290/396/129
f 147/454/185 140/249/58 289/395/128 287/393/127
f 196/456/187 194/455/186 290/396/129 291/397/134
f 140/249/58 154/248/57 292/398/133 289/395/128
f 198/457/188 196/456/187 291/397/134 293/399/136
f 154/248/57 155/247/56 294/400/135 292/398/133
f 200/458/189 198/457/188 293/399/136 295/401/122
f 155/247/56 156/235/48 296/402/119 294/400/135
f 156/235/48 136/234/47 297/403/120 296/402/119
f 202/459/190 200/458/189 295/401/122 298/404/121
f 204/460/191 202/459/190 298/404/121 299/405/123
f 136/234/47 132/244/53 300/406/124 297/403/120
f 157/435/166 204/460/191 299/405/123 253/360/137
f 132/244/53 100/213/31 255/361/99 300/406/124
f 333/461/192 301/462/192 302/463/193 318/464/193
f 318/464/193 302/463/193 303/465/194 319/466/194
f 319/466/194 303/465/194 304/467/195 320/468/195
f 320/468/195 304/467/195 305/469/196 321/470/196
f 321/470/196 305/469/196 306/471/197 322/472/197
f 322/472/197 306/471/197 307/473/198 323/474/198
f 323/474/198 307/473/198 308/475/199 324/476/199
f 324/477/199 308/478/199 309/479/200 325/480/200
f 325/480/200 309/479/200 310/481/201 326/482/201
f 326/482/201 310/481/201 311/483/202 327/484/202
f 327/484/202 311/483/202 312/485/203 328/486/203
f 328/486/203 312/485/203 313/487/204 329/488/204
f 329/488/204 313/487/204 314/489/205 330/490/205
f 330/490/205 314/489/205 315/491/206 331/492/206
f 331/492/206 315/491/206 316/493/207 332/494/207
f 332/494/207 316/493/207 301/462/192 333/461/192
f 610/197/22 607/118/22 63/495/22 98/496/22
f 367/497/17 366/498/208 368/499/209 369/500/210
f 367/497/17 369/500/210 370/501/211 371/502/212
f 372/503/213 373/504/214 374/505/215 375/506/216
f 376/507/217 377/508/218 373/504/214 372/503/213
f 611/4/1 608/3/1 14/509/1 609/510/1
f 607/118/22 317/117/22 605/511/22 63/495/22
f 317/117/22 80/116/22 72/131/22 58/130/22
f 609/510/1 15/512/1 9/5/1 611/4/1
f 610/115/6 606/114/6 13/108/21 62/109/21
f 608/3/1 606/111/1 49/513/1 14/509/1
f 318/514/18 319/515/18 335/516/18 334/517/18
f 319/515/18 320/518/18 336/519/18 335/516/18
f 320/518/18 321/520/18 337/521/18 336/519/18
f 321/520/18 322/522/18 338/523/18 337/521/18
f 322/522/18 323/524/18 339/525/18 338/523/18
f 323/524/18 324/526/18 340/527/18 339/525/18
f 324/526/18 325/528/18 341/529/18 340/527/18
f 325/528/18 326/530/18 342/531/18 341/529/18
f 326/530/18 327/532/18 343/533/18 342/531/18
f 327/532/18 328/534/18 344/535/18 343/533/18
f 328/534/18 329/536/18 345/537/18 344/535/18
f 329/536/18 330/538/18 346/539/18 345/537/18
f 330/538/18 331/540/18 347/541/18 346/539/18
f 331/540/18 332/542/18 348/543/18 347/541/18
f 332/542/18 333/544/18 349/545/18 348/543/18
f 333/544/18 318/514/18 334/517/18 349/545/18
f 334/546/219 335/547/220 351/548/220 350/549/219
f 335/547/220 336/550/65 352/551/65 351/548/220
f 336/550/65 337/552/221 353/553/221 352/551/65
f 337/552/221 338/554/222 354/555/222 353/553/221
f 338/554/222 339/556/223 355/557/223 354/555/222
f 339/556/223 340/558/224 356/559/224 355/557/223
f 340/560/224 341/561/225 357/562/225 356/563/224
f 341/561/225 342/564/226 358/565/226 357/562/225
f 342/564/226 343/566/227 359/567/227 358/565/226
f 343/566/227 344/568/78 360/569/78 359/567/227
f 344/568/78 345/570/228 361/571/228 360/569/78
f 345/570/228 346/572/229 362/573/229 361/571/228
f 346/572/229 347/574/230 363/575/230 362/573/229
f 347/574/230 348/576/231 364/577/231 363/575/230
f 348/576/231 349/578/232 365/579/232 364/577/231
f 349/578/232 334/546/219 350/549/219 365/579/232
f 378/580/233 379/581/234 368/499/209 380/582/235
f 381/583/236 369/500/210 368/499/209 379/581/234
f 382/584/237 370/501/211 369/500/210 381/583/236
f 367/497/17 373/504/214 377/508/218 366/498/208
f 367/497/17 371/502/212 374/505/215 373/504/214
f 383/585/238 384/586/239 370/501/211 382/584/237
f 385/587/240 371/502/212 370/501/211 384/586/239
f 386/588/241 374/505/215 371/502/212 385/587/240
f 387/589/242 375/506/216 374/505/215 386/588/241
f 388/590/243 389/591/244 377/508/218 376/507/217
f 390/592/245 366/498/208 377/508/218 389/591/244
f 380/582/235 368/499/209 366/498/208 390/592/245
f 363/593/246 364/594/247 372/503/213 375/506/216
f 364/594/247 365/595/248 376/507/217 372/503/213
f 354/596/249 355/597/250 379/581/234 378/580/233
f 353/598/251 354/596/249 378/580/233 380/582/235
f 355/597/250 356/599/252 381/583/236 379/581/234
f 356/599/252 357/600/253 382/584/237 381/583/236
f 358/601/254 359/602/255 384/586/239 383/585/238
f 357/600/253 358/601/254 383/585/238 382/584/237
f 359/602/255 360/603/256 385/587/240 384/586/239
f 360/603/256 361/604/257 386/588/241 385/587/240
f 362/605/258 363/593/246 375/506/216 387/589/242
f 361/604/257 362/605/258 387/589/242 386/588/241
f 350/606/259 351/607/260 389/591/244 388/590/243
f 365/595/248 350/606/259 388/590/243 376/507/217
f 351/607/260 352/608/261 390/592/245 389/591/244
f 352/608/261 353/598/251 380/582/235 390/592/245
f 391/609/1 392/610/1 393/611/1 394/612/1
f 394/612/1 393/611/1 395/613/1 396/614/1
f 396/614/1 395/613/1 397/615/1 398/616/1
f 399/617/1 400/618/1 392/610/1 391/609/1
f 401/619/11 402/620/12 391/621/12 394/622/11
f 403/623/10 401/619/11 394/622/11 396/624/10
f 398/616/1 397/615/1 404/625/1 405/626/1
f 406/627/1 407/628/1 400/618/1 399/617/1
f 403/623/10 396/624/10 398/629/18 408/630/18
f 402/620/12 409/631/13 399/632/13 391/621/12
f 405/626/1 404/625/1 410/633/1 411/634/1
f 412/635/1 413/636/1 407/628/1 406/627/1
f 408/630/18 398/629/18 405/637/9 414/638/9
f 409/631/13 415/639/14 406/640/14 399/632/13
f 416/641/4 393/642/4 392/643/5 417/644/5
f 418/645/2 395/646/2 393/642/4 416/641/4
f 419/647/17 397/648/17 395/646/2 418/645/2
f 417/644/5 392/643/5 400/649/6 420/650/6
f 411/634/1 410/633/1 421/651/1 422/652/1
f 423/653/1 424/654/1 413/636/1 412/635/1
f 401/655/22 416/656/22 417/657/22 402/658/22
f 403/659/22 418/660/22 416/656/22 401/655/22
f 425/661/16 404/662/16 397/648/17 419/647/17
f 420/650/6 400/649/6 407/663/7 426/664/7
f 427/665/8 414/638/9 405/637/9 411/666/8
f 415/639/14 428/667/19 412/668/19 406/640/14
f 408/669/22 419/670/22 418/660/22 403/659/22
f 402/658/22 417/657/22 420/671/22 409/672/22
f 429/673/15 410/674/15 404/662/16 425/661/16
f 426/664/7 407/663/7 413/675/262 430/676/262
f 422/652/1 421/651/1 431/677/1 432/678/1
f 433/679/1 434/680/1 424/654/1 423/653/1
f 414/681/22 425/682/22 419/670/22 408/669/22
f 409/672/22 420/671/22 426/683/22 415/684/22
f 435/685/14 421/686/14 410/674/15 429/673/15
f 430/676/262 413/675/262 424/687/9 436/688/9
f 437/689/7 427/665/8 411/666/8 422/690/7
f 428/667/19 438/691/16 423/692/16 412/668/19
f 439/693/263 431/694/263 421/686/14 435/685/14
f 436/688/9 424/687/9 434/695/264 440/696/264
f 427/697/22 429/698/22 425/682/22 414/681/22
f 415/684/22 426/683/22 430/699/22 428/700/22
f 441/701/17 432/702/17 431/703/17 439/704/17
f 441/705/265 437/689/7 422/690/7 432/706/265
f 438/691/16 442/707/266 433/708/266 423/692/16
f 437/709/22 435/710/22 429/698/22 427/697/22
f 428/700/22 430/699/22 436/711/22 438/712/22
f 433/679/1 443/713/1 444/714/1 434/680/1
f 441/715/22 439/716/22 435/710/22 437/709/22
f 438/712/22 436/711/22 440/717/22 442/718/22
f 434/719/264 444/720/267 445/721/268 440/722/264
f 442/707/266 446/723/17 443/724/17 433/708/266
f 440/717/22 445/725/22 446/726/22 442/718/22
f 443/713/1 447/727/1 448/728/1 444/714/1
f 451/729/269 449/730/270 450/731/271 453/732/272
f 444/720/267 448/733/273 452/734/274 445/721/268
f 445/735/275 454/736/276 455/737/276 446/738/275
f 446/723/17 456/739/17 447/740/17 443/724/17
f 457/741/18 454/742/18 445/721/268 452/734/274
f 454/736/276 458/743/13 459/744/13 455/737/276
f 460/745/18 458/746/18 454/742/18 457/741/18
f 446/723/17 455/747/17 461/748/17 456/739/17
f 462/749/18 460/745/18 457/741/18 452/734/274
f 455/747/17 459/750/17 463/751/17 461/748/17
f 461/748/17 463/751/17 465/752/17 456/739/17
f 477/753/277 464/754/278 488/755/279 489/756/280
f 466/757/281 467/758/282 449/730/270 468/759/283
f 469/760/284 466/757/281 468/759/283 470/761/285
f 468/759/283 449/730/270 451/729/269 471/762/286
f 470/761/285 468/759/283 471/762/286 473/763/287
f 475/764/288 469/760/284 470/761/285 476/765/289
f 476/765/289 470/761/285 473/763/287 478/766/290
f 479/767/291 475/764/288 476/765/289 480/768/292
f 477/769/1 448/728/1 447/727/1 450/770/1
f 480/768/292 476/765/289 478/766/290 481/771/293
f 482/772/294 479/767/291 480/768/292 483/773/295
f 483/773/295 480/768/292 481/771/293 485/774/296
f 484/775/297 482/772/294 483/773/295 486/776/298
f 486/776/298 483/773/295 485/774/296 487/777/299
f 472/778/17 450/779/17 490/780/17 491/781/17
f 467/758/282 477/782/300 450/731/271 449/730/270
f 466/783/301 496/784/301 477/753/277 467/785/301
f 462/749/18 452/734/274 489/756/280 488/755/279
f 477/753/277 489/756/280 452/734/274 448/733/273
f 456/739/17 490/780/17 450/779/17 447/740/17
f 491/781/17 490/780/17 456/739/17 465/752/17
f 482/786/301 495/787/301 475/788/301 479/789/301
f 484/790/301 494/791/301 495/787/301 482/786/301
f 477/753/277 496/784/301 497/792/301 464/754/278
f 495/787/301 494/791/301 492/793/301 493/794/301
f 475/788/301 495/787/301 493/794/301 469/795/301
f 469/795/301 493/794/301 496/784/301 466/783/301
f 497/792/301 496/784/301 493/794/301 492/793/301
f 485/796/302 498/797/302 499/798/302 487/799/302
f 478/800/302 498/797/302 485/796/302 481/801/302
f 471/802/303 502/803/304 501/804/302 473/805/302
f 500/806/302 501/804/302 502/803/304 503/807/305
f 499/798/302 498/797/302 501/804/302 500/806/302
f 473/805/302 501/804/302 498/797/302 478/800/302
f 451/808/306 453/809/307 502/803/304 471/802/303
f 503/807/305 502/803/304 453/809/307 474/810/308
f 504/811/22 507/812/22 506/813/22 505/814/22
f 507/812/22 509/815/22 508/816/22 506/813/22
f 509/815/22 511/817/22 510/818/22 508/816/22
f 512/819/22 504/811/22 505/814/22 513/820/22
f 514/821/11 507/822/11 504/823/12 515/824/12
f 516/825/10 509/826/10 507/822/11 514/821/11
f 511/817/22 518/827/22 517/828/22 510/818/22
f 519/829/22 512/819/22 513/820/22 520/830/22
f 516/825/10 521/831/18 511/832/18 509/826/10
f 515/824/12 504/823/12 512/833/13 522/834/13
f 518/827/22 524/835/22 523/836/22 517/828/22
f 525/837/22 519/829/22 520/830/22 526/838/22
f 521/831/18 527/839/9 518/840/9 511/832/18
f 522/834/13 512/833/13 519/841/14 528/842/14
f 529/843/3 530/844/5 505/845/5 506/846/3
f 531/847/2 529/843/3 506/846/3 508/848/2
f 532/849/17 531/847/2 508/848/2 510/850/17
f 530/844/5 533/851/6 513/852/6 505/845/5
f 524/835/22 535/853/22 534/854/22 523/836/22
f 536/855/22 525/837/22 526/838/22 537/856/22
f 514/857/1 515/858/1 530/859/1 529/860/1
f 516/861/1 514/857/1 529/860/1 531/862/1
f 538/863/16 532/849/17 510/850/17 517/864/16
f 533/851/6 539/865/7 520/866/7 513/852/6
f 540/867/8 524/868/8 518/840/9 527/839/9
f 528/842/14 519/841/14 525/869/19 541/870/19
f 521/871/1 516/861/1 531/862/1 532/872/1
f 515/858/1 522/873/1 533/874/1 530/859/1
f 542/875/19 538/863/16 517/864/16 523/876/19
f 539/865/7 543/877/262 526/878/262 520/866/7
f 535/853/22 545/879/22 544/880/22 534/854/22
f 546/881/22 536/855/22 537/856/22 547/882/22
f 527/883/1 521/871/1 532/872/1 538/884/1
f 522/873/1 528/885/1 539/886/1 533/874/1
f 548/887/14 542/875/19 523/876/19 534/888/14
f 543/877/262 549/889/9 537/890/9 526/878/262
f 550/891/7 535/892/7 524/868/8 540/867/8
f 541/870/19 525/869/19 536/893/16 551/894/16
f 552/895/263 548/887/14 534/888/14 544/896/263
f 549/889/9 553/897/264 547/898/264 537/890/9
f 540/899/1 527/883/1 538/884/1 542/900/1
f 528/885/1 541/901/1 543/902/1 539/886/1
f 554/903/17 552/904/17 544/905/17 545/906/17
f 554/907/265 545/908/265 535/892/7 550/891/7
f 551/894/16 536/893/16 546/909/266 555/910/266
f 550/911/1 540/899/1 542/900/1 548/912/1
f 541/901/1 551/913/1 549/914/1 543/902/1
f 546/881/22 547/882/22 557/915/22 556/916/22
f 554/917/1 550/911/1 548/912/1 552/918/1
f 551/913/1 555/919/1 553/920/1 549/914/1
f 547/921/264 553/922/264 558/923/268 557/924/267
f 555/910/266 546/909/266 556/925/17 559/926/17
f 553/920/1 555/919/1 559/927/1 558/928/1
f 556/916/22 557/915/22 561/929/22 560/930/22
f 564/931/309 566/932/310 563/933/311 562/934/312
f 557/924/267 558/923/268 565/935/313 561/936/313
f 558/937/314 559/938/314 568/939/315 567/940/315
f 559/926/17 556/925/17 560/941/17 569/942/17
f 570/943/18 565/935/313 558/923/268 567/944/18
f 567/940/315 568/939/315 459/744/13 458/743/13
f 460/745/18 570/943/18 567/944/18 458/746/18
f 559/926/17 569/942/17 571/945/17 568/946/17
f 462/749/18 565/935/313 570/943/18 460/745/18
f 568/946/17 571/945/17 463/751/17 459/750/17
f 571/945/17 569/942/17 465/752/17 463/751/17
f 581/947/316 589/948/317 488/755/279 464/754/278
f 572/949/318 574/950/319 562/934/312 573/951/320
f 575/952/321 576/953/322 574/950/319 572/949/318
f 574/950/319 577/954/323 564/931/309 562/934/312
f 576/953/322 578/955/324 577/954/323 574/950/319
f 579/956/325 580/957/326 576/953/322 575/952/321
f 580/957/326 582/958/327 578/955/324 576/953/322
f 583/959/328 584/960/329 580/957/326 579/956/325
f 581/961/22 563/962/22 560/930/22 561/929/22
f 584/960/329 585/963/330 582/958/327 580/957/326
f 586/964/331 587/965/332 584/960/329 583/959/328
f 587/965/332 588/966/333 585/963/330 584/960/329
f 484/775/297 486/776/298 587/965/332 586/964/331
f 486/776/298 487/777/299 588/966/333 587/965/332
f 472/778/17 491/781/17 590/967/17 563/968/17
f 573/951/320 562/934/312 563/933/311 581/969/334
f 572/970/301 573/971/301 581/947/316 593/972/301
f 462/749/18 488/755/279 589/948/317 565/935/313
f 581/947/316 561/936/313 565/935/313 589/948/317
f 569/942/17 560/941/17 563/968/17 590/967/17
f 491/781/17 465/752/17 569/942/17 590/967/17
f 586/973/301 583/974/301 579/975/301 592/976/301
f 484/790/301 586/973/301 592/976/301 494/791/301
f 581/947/316 464/754/278 497/792/301 593/972/301
f 592/976/301 591/977/301 492/793/301 494/791/301
f 579/975/301 575/978/301 591/977/301 592/976/301
f 575/978/301 572/970/301 593/972/301 591/977/301
f 497/792/301 492/793/301 591/977/301 593/972/301
f 588/979/302 487/799/302 499/798/302 594/980/302
f 582/981/302 585/982/302 588/979/302 594/980/302
f 577/983/335 578/984/302 595/985/302 596/986/336
f 500/806/302 503/807/305 596/986/336 595/985/302
f 499/798/302 500/806/302 595/985/302 594/980/302
f 578/984/302 582/981/302 594/980/302 595/985/302
f 564/987/337 577/983/335 596/986/336 566/988/338
f 503/807/305 474/810/308 566/988/338 596/986/336
f 450/731/271 472/989/339 474/990/339 453/732/272
f 472/991/339 563/933/311 566/932/310 474/992/339
f 150/420/151 149/431/162 599/253/17 598/256/17
f 149/431/162 148/429/160 139/254/61 599/253/17
f 600/231/17 118/209/17 107/216/34 125/232/45
f 138/242/52 150/420/151 598/256/17 144/243/17
f 129/258/64 602/227/18 112/230/44 128/440/171
f 146/452/183 145/217/35 603/220/18 604/250/18
f 156/235/48 155/247/56 604/250/18 603/220/18
f 147/454/185 146/452/183 604/250/18 140/249/58
f 605/511/22 317/117/22 58/130/22 64/993/22
