# Blender 4.0.2
# www.blender.org
o ice_lolly
v -0.000000 0.093000 -0.000750
v -0.000000 0.093000 0.000750
v 0.001913 0.092612 -0.000750
v 0.001913 0.092612 0.000750
v 0.003536 0.091507 -0.000750
v 0.003536 0.091507 0.000750
v 0.004619 0.089852 -0.000750
v 0.004619 0.089852 0.000750
v 0.005000 0.087901 0.000750
v -0.005000 0.087901 0.000750
v -0.004619 0.089852 -0.000750
v -0.004619 0.089852 0.000750
v -0.003536 0.091507 -0.000750
v -0.003536 0.091507 0.000750
v -0.001913 0.092612 -0.000750
v -0.001913 0.092612 0.000750
v 0.005000 0.087901 -0.000750
v -0.005000 0.087901 -0.000750
v -0.000000 0.087901 0.000750
v -0.000000 0.087901 -0.000750
v -0.001913 0.087901 -0.000750
v -0.003536 0.087901 -0.000750
v 0.001913 0.087901 -0.000750
v 0.003536 0.087901 -0.000750
v -0.001913 0.087901 0.000750
v 0.001913 0.087901 0.000750
v 0.003536 0.087901 0.000750
v -0.003536 0.087901 0.000750
v -0.005000 0.046500 -0.000750
v 0.005000 0.046500 -0.000750
v -0.000000 0.046500 0.000750
v -0.000000 0.046500 -0.000750
v -0.001913 0.046500 -0.000750
v -0.003536 0.046500 -0.000750
v 0.001913 0.046500 -0.000750
v 0.003536 0.046500 -0.000750
v -0.001913 0.046500 0.000750
v -0.005000 0.046500 0.000750
v 0.005000 0.046500 0.000750
v 0.001913 0.046500 0.000750
v 0.003536 0.046500 0.000750
v -0.003536 0.046500 0.000750
v -0.000000 0.000000 -0.000750
v -0.000000 0.000000 0.000750
v 0.001913 0.000388 -0.000750
v 0.001913 0.000388 0.000750
v 0.003536 0.001493 -0.000750
v 0.003536 0.001493 0.000750
v 0.004619 0.003148 -0.000750
v 0.004619 0.003148 0.000750
v 0.005000 0.005099 0.000750
v -0.005000 0.005099 0.000750
v -0.004619 0.003148 -0.000750
v -0.004619 0.003148 0.000750
v -0.003536 0.001493 -0.000750
v -0.003536 0.001493 0.000750
v -0.001913 0.000388 -0.000750
v -0.001913 0.000388 0.000750
v 0.005000 0.005099 -0.000750
v -0.005000 0.005099 -0.000750
v -0.000000 0.005099 0.000750
v -0.000000 0.005099 -0.000750
v -0.001913 0.005099 -0.000750
v -0.003536 0.005099 -0.000750
v 0.001913 0.005099 -0.000750
v 0.003536 0.005099 -0.000750
v -0.001913 0.005099 0.000750
v 0.001913 0.005099 0.000750
v 0.003536 0.005099 0.000750
v -0.003536 0.005099 0.000750
v 0.000000 0.097858 0.005837
v 0.000000 0.101711 0.002030
v 0.000000 0.100583 0.004387
v -0.017065 0.079276 0.005837
v -0.020872 0.079576 0.002030
v -0.019757 0.079488 0.004387
v -0.005259 0.097025 0.005837
v -0.006450 0.100690 0.002030
v -0.006101 0.099616 0.004387
v -0.010003 0.094608 0.005837
v -0.012268 0.097725 0.002030
v -0.011605 0.096812 0.004387
v -0.013768 0.090843 0.005837
v -0.016886 0.093108 0.002030
v -0.015972 0.092444 0.004387
v -0.016185 0.086099 0.005837
v -0.019850 0.087289 0.002030
v -0.018777 0.086941 0.004387
v -0.019757 0.035076 0.004387
v -0.020872 0.035076 0.002030
v -0.016423 0.033014 0.005837
v -0.019336 0.030101 0.002030
v -0.018483 0.030954 0.004387
v 0.000000 0.029802 0.004387
v 0.000000 0.028687 0.002030
v 0.000000 0.032493 0.005837
v 0.000000 0.079276 0.005837
v 0.000000 0.084717 0.005837
v 0.000000 0.088986 0.005837
v -0.014108 0.035076 0.005837
v -0.004604 0.094216 0.005837
v -0.008570 0.092374 0.005837
v 0.000000 0.094948 0.005837
v -0.014108 0.028687 0.002030
v -0.014108 0.029732 0.004387
v -0.014108 0.032493 0.005837
v -0.017065 0.035076 0.005837
v 0.000000 0.035076 0.005837
v -0.020872 0.066465 0.002030
v -0.019757 0.066465 0.004387
v -0.017065 0.066465 0.005837
v 0.000000 0.066465 0.005837
v -0.011640 0.089302 0.005837
v -0.013968 0.066465 0.005837
v -0.013831 0.079276 0.005837
v -0.013327 0.085149 0.005837
v -0.007054 0.035076 0.005837
v -0.007054 0.032493 0.005837
v -0.007054 0.029767 0.004387
v -0.007054 0.028687 0.002030
v -0.005951 0.088986 0.005837
v -0.006984 0.066465 0.005837
v -0.006915 0.079276 0.005837
v -0.006900 0.084717 0.005837
v 0.000000 0.097858 -0.005837
v 0.000000 0.101711 -0.002030
v 0.000000 0.100583 -0.004387
v -0.017065 0.079276 -0.005837
v -0.020872 0.079576 -0.002030
v -0.019757 0.079488 -0.004387
v -0.005259 0.097025 -0.005837
v -0.006450 0.100690 -0.002030
v -0.006101 0.099616 -0.004387
v -0.010003 0.094608 -0.005837
v -0.012268 0.097725 -0.002030
v -0.011605 0.096812 -0.004387
v -0.013768 0.090843 -0.005837
v -0.016886 0.093108 -0.002030
v -0.015972 0.092444 -0.004387
v -0.016185 0.086099 -0.005837
v -0.019850 0.087289 -0.002030
v -0.018777 0.086941 -0.004387
v -0.019757 0.035076 -0.004387
v -0.020872 0.035076 -0.002030
v -0.016423 0.033014 -0.005837
v -0.019336 0.030101 -0.002030
v -0.018483 0.030954 -0.004387
v 0.000000 0.029802 -0.004387
v 0.000000 0.028687 -0.002030
v 0.000000 0.032493 -0.005837
v 0.000000 0.079276 -0.005837
v 0.000000 0.084717 -0.005837
v 0.000000 0.088986 -0.005837
v -0.014108 0.035076 -0.005837
v -0.004604 0.094216 -0.005837
v -0.008570 0.092374 -0.005837
v 0.000000 0.094948 -0.005837
v -0.014108 0.028687 -0.002030
v -0.014108 0.029732 -0.004387
v -0.014108 0.032493 -0.005837
v -0.017065 0.035076 -0.005837
v 0.000000 0.035076 -0.005837
v -0.020872 0.066465 -0.002030
v -0.019757 0.066465 -0.004387
v -0.017065 0.066465 -0.005837
v 0.000000 0.066465 -0.005837
v -0.011640 0.089302 -0.005837
v -0.013968 0.066465 -0.005837
v -0.013831 0.079276 -0.005837
v -0.013327 0.085149 -0.005837
v -0.007054 0.035076 -0.005837
v -0.007054 0.032493 -0.005837
v -0.007054 0.029767 -0.004387
v -0.007054 0.028687 -0.002030
v -0.005951 0.088986 -0.005837
v -0.006984 0.066465 -0.005837
v -0.006915 0.079276 -0.005837
v -0.006900 0.084717 -0.005837
v -0.020872 0.050770 0.002030
v -0.019757 0.050770 0.004387
v -0.017065 0.050770 0.005837
v 0.000000 0.050770 0.005837
v -0.014038 0.050770 0.005837
v -0.007019 0.050770 0.005837
v -0.020872 0.050770 -0.002030
v -0.019757 0.050770 -0.004387
v -0.017065 0.050770 -0.005837
v 0.000000 0.050770 -0.005837
v -0.014038 0.050770 -0.005837
v -0.007019 0.050770 -0.005837
v 0.017065 0.079276 0.005837
v 0.020872 0.079576 0.002030
v 0.019757 0.079488 0.004387
v 0.005259 0.097025 0.005837
v 0.006450 0.100690 0.002030
v 0.006101 0.099616 0.004387
v 0.010003 0.094608 0.005837
v 0.012268 0.097725 0.002030
v 0.011605 0.096812 0.004387
v 0.013768 0.090843 0.005837
v 0.016886 0.093108 0.002030
v 0.015972 0.092444 0.004387
v 0.016185 0.086099 0.005837
v 0.019850 0.087289 0.002030
v 0.018777 0.086941 0.004387
v 0.019757 0.035076 0.004387
v 0.020872 0.035076 0.002030
v 0.016423 0.033014 0.005837
v 0.019336 0.030101 0.002030
v 0.018483 0.030954 0.004387
v 0.014108 0.035076 0.005837
v 0.004604 0.094216 0.005837
v 0.008570 0.092374 0.005837
v 0.014108 0.028687 0.002030
v 0.014108 0.029732 0.004387
v 0.014108 0.032493 0.005837
v 0.017065 0.035076 0.005837
v 0.020872 0.066465 0.002030
v 0.019757 0.066465 0.004387
v 0.017065 0.066465 0.005837
v 0.011640 0.089302 0.005837
v 0.013968 0.066465 0.005837
v 0.013831 0.079276 0.005837
v 0.013327 0.085149 0.005837
v 0.007054 0.035076 0.005837
v 0.007054 0.032493 0.005837
v 0.007054 0.029767 0.004387
v 0.007054 0.028687 0.002030
v 0.005951 0.088986 0.005837
v 0.006984 0.066465 0.005837
v 0.006915 0.079276 0.005837
v 0.006900 0.084717 0.005837
v 0.017065 0.079276 -0.005837
v 0.020872 0.079576 -0.002030
v 0.019757 0.079488 -0.004387
v 0.005259 0.097025 -0.005837
v 0.006450 0.100690 -0.002030
v 0.006101 0.099616 -0.004387
v 0.010003 0.094608 -0.005837
v 0.012268 0.097725 -0.002030
v 0.011605 0.096812 -0.004387
v 0.013768 0.090843 -0.005837
v 0.016886 0.093108 -0.002030
v 0.015972 0.092444 -0.004387
v 0.016185 0.086099 -0.005837
v 0.019850 0.087289 -0.002030
v 0.018777 0.086941 -0.004387
v 0.019757 0.035076 -0.004387
v 0.020872 0.035076 -0.002030
v 0.016423 0.033014 -0.005837
v 0.019336 0.030101 -0.002030
v 0.018483 0.030954 -0.004387
v 0.014108 0.035076 -0.005837
v 0.004604 0.094216 -0.005837
v 0.008570 0.092374 -0.005837
v 0.014108 0.028687 -0.002030
v 0.014108 0.029732 -0.004387
v 0.014108 0.032493 -0.005837
v 0.017065 0.035076 -0.005837
v 0.020872 0.066465 -0.002030
v 0.019757 0.066465 -0.004387
v 0.017065 0.066465 -0.005837
v 0.011640 0.089302 -0.005837
v 0.013968 0.066465 -0.005837
v 0.013831 0.079276 -0.005837
v 0.013327 0.085149 -0.005837
v 0.007054 0.035076 -0.005837
v 0.007054 0.032493 -0.005837
v 0.007054 0.029767 -0.004387
v 0.007054 0.028687 -0.002030
v 0.005951 0.088986 -0.005837
v 0.006984 0.066465 -0.005837
v 0.006915 0.079276 -0.005837
v 0.006900 0.084717 -0.005837
v 0.020872 0.050770 0.002030
v 0.019757 0.050770 0.004387
v 0.017065 0.050770 0.005837
v 0.014038 0.050770 0.005837
v 0.007019 0.050770 0.005837
v 0.020872 0.050770 -0.002030
v 0.019757 0.050770 -0.004387
v 0.017065 0.050770 -0.005837
v 0.014038 0.050770 -0.005837
v 0.007019 0.050770 -0.005837
vn -0.0000 1.0000 -0.0000
vn 0.3886 0.9214 -0.0000
vn 0.7135 0.7007 -0.0000
vn 0.9263 0.3768 -0.0000
vn 0.9954 0.0962 -0.0000
vn -0.9954 0.0962 -0.0000
vn -0.9263 0.3768 -0.0000
vn -0.7135 0.7007 -0.0000
vn -0.3886 0.9214 -0.0000
vn -0.0000 -0.0000 1.0000
vn -0.0000 -0.0000 -1.0000
vn 1.0000 -0.0000 -0.0000
vn -1.0000 -0.0000 -0.0000
vn -0.0000 -1.0000 -0.0000
vn 0.3886 -0.9214 -0.0000
vn 0.7135 -0.7007 -0.0000
vn 0.9263 -0.3768 -0.0000
vn 0.9954 -0.0962 -0.0000
vn -0.9954 -0.0962 -0.0000
vn -0.9263 -0.3768 -0.0000
vn -0.7135 -0.7007 -0.0000
vn -0.3886 -0.9214 -0.0000
vn -0.0817 0.2516 0.9644
vn -0.0000 0.2645 0.9644
vn -0.0000 0.7362 0.6768
vn -0.2275 0.7001 0.6768
vn -0.0000 0.9762 0.2169
vn -0.3017 0.9284 0.2169
vn -0.1555 0.2140 0.9644
vn -0.4327 0.5956 0.6768
vn -0.5738 0.7898 0.2169
vn -0.2140 0.1555 0.9644
vn -0.5956 0.4327 0.6768
vn -0.7898 0.5738 0.2169
vn -0.2544 0.0784 0.9639
vn -0.7038 0.2184 0.6760
vn -0.9322 0.2900 0.2168
vn -0.2530 0.0163 0.9673
vn -0.7294 0.0478 0.6824
vn -0.9740 0.0642 0.2175
vn 0.0006 -0.2419 0.9703
vn -0.0000 -0.2432 0.9700
vn -0.0356 -0.2587 0.9653
vn -0.2018 -0.2147 0.9556
vn -0.5179 -0.5372 0.6658
vn -0.0977 -0.7386 0.6670
vn -0.7332 -0.1114 0.6709
vn -0.2655 -0.0441 0.9631
vn -0.9665 -0.1432 0.2130
vn -0.6788 -0.7013 0.2176
vn -0.6788 -0.7013 -0.2176
vn -0.9665 -0.1432 -0.2130
vn 0.0018 -0.7277 0.6859
vn -0.1272 -0.9704 0.2055
vn 0.0012 -0.9770 0.2132
vn -0.0000 0.9762 -0.2169
vn -0.3017 0.9284 -0.2169
vn -0.7253 -0.0000 0.6884
vn -0.2445 -0.0000 0.9696
vn -0.9757 -0.0000 0.2191
vn -0.9757 -0.0000 -0.2191
vn -0.0000 -0.7260 0.6877
vn -0.0000 -0.9764 0.2162
vn -0.1272 -0.9704 -0.2055
vn 0.0012 -0.9770 -0.2132
vn -0.5738 0.7898 -0.2169
vn -0.9740 0.0642 -0.2175
vn -0.7898 0.5738 -0.2169
vn -0.9322 0.2900 -0.2168
vn -0.0817 0.2516 -0.9644
vn -0.2275 0.7001 -0.6768
vn -0.0000 0.7362 -0.6768
vn -0.0000 0.2645 -0.9644
vn -0.1555 0.2140 -0.9644
vn -0.4327 0.5956 -0.6768
vn -0.2140 0.1555 -0.9644
vn -0.5956 0.4327 -0.6768
vn -0.2544 0.0784 -0.9639
vn -0.7038 0.2184 -0.6760
vn -0.2530 0.0163 -0.9673
vn -0.7294 0.0478 -0.6824
vn 0.0006 -0.2419 -0.9703
vn -0.0000 -0.2432 -0.9700
vn -0.0356 -0.2587 -0.9653
vn -0.0977 -0.7386 -0.6670
vn -0.5179 -0.5372 -0.6658
vn -0.2018 -0.2147 -0.9556
vn -0.7332 -0.1114 -0.6709
vn -0.2655 -0.0441 -0.9631
vn 0.0018 -0.7277 -0.6859
vn -0.7253 -0.0000 -0.6884
vn -0.2445 -0.0000 -0.9696
vn -0.0000 -0.7260 -0.6877
vn -0.0000 -0.9764 -0.2162
vn 0.0817 0.2516 0.9644
vn 0.2275 0.7001 0.6768
vn 0.3017 0.9284 0.2169
vn 0.1555 0.2140 0.9644
vn 0.4327 0.5956 0.6768
vn 0.5738 0.7898 0.2169
vn 0.2140 0.1555 0.9644
vn 0.5956 0.4327 0.6768
vn 0.7898 0.5738 0.2169
vn 0.2544 0.0784 0.9639
vn 0.7038 0.2184 0.6760
vn 0.9322 0.2900 0.2168
vn 0.2530 0.0163 0.9673
vn 0.7294 0.0478 0.6824
vn 0.9740 0.0642 0.2175
vn -0.0006 -0.2419 0.9703
vn 0.0356 -0.2587 0.9653
vn 0.0977 -0.7386 0.6670
vn 0.5179 -0.5372 0.6658
vn 0.2018 -0.2147 0.9556
vn 0.7332 -0.1114 0.6709
vn 0.2655 -0.0441 0.9631
vn 0.9665 -0.1432 0.2130
vn 0.6788 -0.7013 0.2176
vn 0.6788 -0.7013 -0.2176
vn 0.9665 -0.1432 -0.2130
vn -0.0018 -0.7277 0.6859
vn -0.0012 -0.9770 0.2132
vn 0.1272 -0.9704 0.2055
vn 0.3017 0.9284 -0.2169
vn 0.7253 -0.0000 0.6884
vn 0.2445 -0.0000 0.9696
vn 0.9757 -0.0000 0.2191
vn 0.9757 -0.0000 -0.2191
vn -0.0012 -0.9770 -0.2132
vn 0.1272 -0.9704 -0.2055
vn 0.5738 0.7898 -0.2169
vn 0.9740 0.0642 -0.2175
vn 0.7898 0.5738 -0.2169
vn 0.9322 0.2900 -0.2168
vn 0.0817 0.2516 -0.9644
vn 0.2275 0.7001 -0.6768
vn 0.1555 0.2140 -0.9644
vn 0.4327 0.5956 -0.6768
vn 0.2140 0.1555 -0.9644
vn 0.5956 0.4327 -0.6768
vn 0.2544 0.0784 -0.9639
vn 0.7038 0.2184 -0.6760
vn 0.2530 0.0163 -0.9673
vn 0.7294 0.0478 -0.6824
vn -0.0006 -0.2419 -0.9703
vn 0.0356 -0.2587 -0.9653
vn 0.2018 -0.2147 -0.9556
vn 0.5179 -0.5372 -0.6658
vn 0.0977 -0.7386 -0.6670
vn 0.7332 -0.1114 -0.6709
vn 0.2655 -0.0441 -0.9631
vn -0.0018 -0.7277 -0.6859
vn 0.7253 -0.0000 -0.6884
vn 0.2445 -0.0000 -0.9696
vt 0.080127 0.943459
vt 0.080127 0.957276
vt 0.063154 0.957276
vt 0.063154 0.943459
vt 0.046090 0.957276
vt 0.046090 0.943459
vt 0.028897 0.957276
vt 0.028897 0.943459
vt 0.011615 0.957276
vt 0.011615 0.943459
vt 0.148639 0.943459
vt 0.148639 0.957276
vt 0.131356 0.957276
vt 0.131356 0.943459
vt 0.114164 0.957276
vt 0.114164 0.943459
vt 0.097099 0.957276
vt 0.097099 0.943459
vt 0.024054 0.727820
vt 0.038856 0.718120
vt 0.056318 0.714714
vt 0.056318 0.727820
vt 0.024054 0.839714
vt 0.038857 0.830015
vt 0.056318 0.826609
vt 0.056318 0.839714
vt 0.014163 0.776580
vt 0.010690 0.759458
vt 0.056318 0.759458
vt 0.056318 0.776580
vt 0.014163 0.888475
vt 0.010690 0.871352
vt 0.056318 0.871352
vt 0.056318 0.888475
vt 0.024054 0.902991
vt 0.056318 0.902991
vt 0.038857 0.912690
vt 0.056318 0.916097
vt 0.014163 0.854230
vt 0.056318 0.854230
vt 0.014163 0.742335
vt 0.056318 0.742335
vt 0.024054 0.791096
vt 0.056318 0.791096
vt 0.038857 0.800795
vt 0.056318 0.804201
vt 0.426801 0.727819
vt 0.426801 0.742334
vt 0.426801 0.791095
vt 0.426801 0.804201
vt 0.426801 0.776580
vt 0.426801 0.759457
vt 0.426806 0.839714
vt 0.426806 0.854230
vt 0.426806 0.871353
vt 0.426806 0.902991
vt 0.426806 0.916096
vt 0.426806 0.888475
vt 0.868464 0.971933
vt 0.868464 0.985751
vt 0.508549 0.985751
vt 0.508549 0.971933
vt 0.426801 0.714713
vt 0.426806 0.826609
vt 0.508552 0.943459
vt 0.508552 0.957276
vt 0.080126 0.971933
vt 0.097099 0.971933
vt 0.097099 0.985751
vt 0.080126 0.985751
vt 0.114163 0.971933
vt 0.114163 0.985751
vt 0.131355 0.971933
vt 0.131355 0.985751
vt 0.148637 0.971933
vt 0.148637 0.985751
vt 0.011615 0.971933
vt 0.028897 0.971933
vt 0.028897 0.985751
vt 0.011615 0.985751
vt 0.046089 0.971933
vt 0.046089 0.985751
vt 0.063153 0.971933
vt 0.063153 0.985751
vt 0.829553 0.727818
vt 0.797288 0.727818
vt 0.797288 0.714713
vt 0.814750 0.718119
vt 0.829556 0.839715
vt 0.797292 0.839715
vt 0.797292 0.826610
vt 0.814753 0.830015
vt 0.839445 0.776580
vt 0.797289 0.776580
vt 0.797288 0.759457
vt 0.842918 0.759457
vt 0.839447 0.888476
vt 0.797292 0.888476
vt 0.797292 0.871353
vt 0.842920 0.871353
vt 0.829556 0.902991
vt 0.797292 0.902991
vt 0.814753 0.912691
vt 0.797292 0.916097
vt 0.797292 0.854230
vt 0.839447 0.854230
vt 0.797289 0.742334
vt 0.839445 0.742334
vt 0.829553 0.791095
vt 0.797289 0.791095
vt 0.814750 0.800795
vt 0.797289 0.804201
vt 0.868464 0.957276
vt 0.868464 0.943459
vt 0.172082 0.638202
vt 0.216425 0.645312
vt 0.216314 0.671851
vt 0.164276 0.663410
vt 0.216218 0.694765
vt 0.157447 0.685796
vt 0.131780 0.618225
vt 0.116763 0.640062
vt 0.103498 0.659568
vt 0.099122 0.586959
vt 0.078151 0.603431
vt 0.059574 0.618191
vt 0.077111 0.547068
vt 0.052065 0.556681
vt 0.029771 0.565365
vt 0.066523 0.487849
vt 0.039200 0.491304
vt 0.015223 0.494404
vt 0.153690 0.063691
vt 0.218859 0.062575
vt 0.218759 0.086446
vt 0.154455 0.087160
vt 0.091235 0.067320
vt 0.072212 0.072702
vt 0.053234 0.054467
vt 0.088350 0.040708
vt 0.040657 0.087981
vt 0.066721 0.089751
vt 0.016632 0.083497
vt 0.036471 0.038150
vt 0.944157 0.188709
vt 0.980496 0.188709
vt 0.980496 0.235299
vt 0.944157 0.235299
vt 0.177494 0.614382
vt 0.216528 0.620603
vt 0.101462 0.537970
vt 0.116966 0.573326
vt 0.156282 0.485548
vt 0.217093 0.485316
vt 0.216895 0.532873
vt 0.157053 0.533085
vt 0.152330 0.035064
vt 0.083171 0.017136
vt 0.150852 0.010200
vt 0.944157 0.936892
vt 0.944157 0.878456
vt 0.980497 0.878456
vt 0.980497 0.936892
vt 0.143651 0.599065
vt 0.154518 0.371160
vt 0.217570 0.371109
vt 0.165655 0.569834
vt 0.216741 0.569736
vt 0.092162 0.089679
vt 0.034665 0.228137
vt 0.062820 0.228597
vt 0.010690 0.227660
vt 0.010690 0.373049
vt 0.034852 0.372603
vt 0.062914 0.372145
vt 0.154274 0.229038
vt 0.218163 0.229200
vt 0.944157 0.375746
vt 0.980496 0.375746
vt 0.980497 0.516193
vt 0.944157 0.516193
vt 0.095269 0.486839
vt 0.091141 0.371734
vt 0.090301 0.228875
vt 0.218979 0.033746
vt 0.219084 0.008642
vt 0.980496 0.140240
vt 0.944157 0.140240
vt 0.944157 0.077117
vt 0.980497 0.077117
vt 0.944157 0.820020
vt 0.980497 0.820020
vt 0.980497 0.633516
vt 0.944157 0.633516
vt 0.944157 0.761583
vt 0.944157 0.703147
vt 0.980497 0.703147
vt 0.980497 0.761583
vt 0.701609 0.638202
vt 0.709416 0.663410
vt 0.657377 0.671851
vt 0.657266 0.645312
vt 0.716244 0.685796
vt 0.657473 0.694765
vt 0.741911 0.618225
vt 0.756928 0.640062
vt 0.770193 0.659568
vt 0.774569 0.586959
vt 0.795540 0.603431
vt 0.814117 0.618191
vt 0.796580 0.547068
vt 0.821626 0.556681
vt 0.843920 0.565365
vt 0.807168 0.487848
vt 0.834491 0.491304
vt 0.858468 0.494404
vt 0.720001 0.063691
vt 0.719237 0.087160
vt 0.654933 0.086446
vt 0.654833 0.062575
vt 0.782456 0.067321
vt 0.785342 0.040708
vt 0.820459 0.054467
vt 0.801480 0.072703
vt 0.833035 0.087982
vt 0.806970 0.089752
vt 0.857059 0.083498
vt 0.837221 0.038150
vt 0.657163 0.620603
vt 0.696197 0.614382
vt 0.756726 0.573326
vt 0.772229 0.537970
vt 0.717410 0.485547
vt 0.716639 0.533084
vt 0.656797 0.532873
vt 0.656598 0.485315
vt 0.721362 0.035064
vt 0.722840 0.010200
vt 0.790521 0.017136
vt 0.730041 0.599064
vt 0.719174 0.371160
vt 0.656121 0.371108
vt 0.708036 0.569833
vt 0.656951 0.569736
vt 0.781530 0.089680
vt 0.839027 0.228137
vt 0.810871 0.228597
vt 0.863002 0.227660
vt 0.838840 0.372603
vt 0.863002 0.373049
vt 0.810777 0.372145
vt 0.719418 0.229038
vt 0.655529 0.229199
vt 0.778423 0.486839
vt 0.782550 0.371734
vt 0.783390 0.228876
vt 0.654713 0.033747
vt 0.654608 0.008642
vt 0.944157 0.013994
vt 0.980497 0.013994
vt 0.260826 0.638573
vt 0.268421 0.663845
vt 0.275063 0.686288
vt 0.301293 0.618933
vt 0.316127 0.640895
vt 0.329228 0.660512
vt 0.334210 0.587941
vt 0.355043 0.604588
vt 0.373497 0.619503
vt 0.356555 0.548236
vt 0.381520 0.558057
vt 0.403740 0.566927
vt 0.367637 0.489106
vt 0.394930 0.492790
vt 0.418881 0.496091
vt 0.284016 0.064235
vt 0.283056 0.087697
vt 0.346438 0.068386
vt 0.349546 0.041798
vt 0.384546 0.055851
vt 0.365416 0.073927
vt 0.396843 0.089469
vt 0.370764 0.091021
vt 0.420904 0.085186
vt 0.401445 0.039674
vt 0.921749 0.188710
vt 0.921749 0.235300
vt 0.885410 0.235300
vt 0.885410 0.188710
vt 0.255612 0.614709
vt 0.316482 0.574159
vt 0.332281 0.538934
vt 0.277901 0.486056
vt 0.276733 0.533585
vt 0.285615 0.035621
vt 0.287301 0.010770
vt 0.354922 0.018270
vt 0.921749 0.936892
vt 0.885410 0.936892
vt 0.885410 0.878456
vt 0.921749 0.878456
vt 0.289583 0.599674
vt 0.280620 0.371687
vt 0.267824 0.570261
vt 0.345325 0.090736
vt 0.401664 0.229670
vt 0.373506 0.229894
vt 0.425642 0.229393
vt 0.400270 0.374129
vt 0.424428 0.374777
vt 0.372212 0.373437
vt 0.282051 0.229572
vt 0.921749 0.375747
vt 0.921749 0.516194
vt 0.885410 0.516194
vt 0.885410 0.375747
vt 0.338901 0.487857
vt 0.343990 0.372790
vt 0.346023 0.229944
vt 0.885410 0.140240
vt 0.885410 0.077117
vt 0.921749 0.077117
vt 0.921749 0.140240
vt 0.885410 0.820020
vt 0.921749 0.820020
vt 0.921749 0.633516
vt 0.885410 0.633516
vt 0.921749 0.761584
vt 0.885410 0.761584
vt 0.885410 0.703148
vt 0.921749 0.703148
vt 0.612866 0.638572
vt 0.605270 0.663845
vt 0.598629 0.686287
vt 0.572398 0.618933
vt 0.557564 0.640895
vt 0.544463 0.660511
vt 0.539481 0.587940
vt 0.518648 0.604587
vt 0.500194 0.619502
vt 0.517137 0.548235
vt 0.492172 0.558057
vt 0.469951 0.566927
vt 0.506055 0.489106
vt 0.478761 0.492789
vt 0.454811 0.496090
vt 0.589677 0.064235
vt 0.590637 0.087697
vt 0.527254 0.068386
vt 0.508276 0.073927
vt 0.489146 0.055850
vt 0.524146 0.041798
vt 0.476849 0.089468
vt 0.502928 0.091021
vt 0.452788 0.085185
vt 0.472247 0.039673
vt 0.618079 0.614708
vt 0.541411 0.538934
vt 0.557209 0.574159
vt 0.595790 0.486055
vt 0.596959 0.533584
vt 0.588077 0.035620
vt 0.518770 0.018270
vt 0.586391 0.010769
vt 0.584108 0.599674
vt 0.593071 0.371686
vt 0.605868 0.570260
vt 0.528367 0.090736
vt 0.472028 0.229669
vt 0.500186 0.229894
vt 0.448050 0.229392
vt 0.449264 0.374776
vt 0.473422 0.374129
vt 0.501479 0.373436
vt 0.591641 0.229572
vt 0.534791 0.487856
vt 0.529702 0.372790
vt 0.527669 0.229943
vt 0.885410 0.013994
vt 0.921749 0.013994
s 1
f 1/1/1 2/2/1 4/3/2 3/4/2
f 3/4/2 4/3/2 6/5/3 5/6/3
f 5/6/3 6/5/3 8/7/4 7/8/4
f 7/8/4 8/7/4 9/9/5 17/10/5
f 18/11/6 10/12/6 12/13/7 11/14/7
f 11/14/7 12/13/7 14/15/8 13/16/8
f 13/16/8 14/15/8 16/17/9 15/18/9
f 15/18/9 16/17/9 2/2/1 1/1/1
f 14/19/10 12/20/10 10/21/10 28/22/10
f 5/23/11 7/24/11 17/25/11 24/26/11
f 4/27/10 2/28/10 19/29/10 26/30/10
f 15/31/11 1/32/11 20/33/11 21/34/11
f 13/35/11 15/31/11 21/34/11 22/36/11
f 11/37/11 13/35/11 22/36/11 18/38/11
f 1/32/11 3/39/11 23/40/11 20/33/11
f 3/39/11 5/23/11 24/26/11 23/40/11
f 2/28/10 16/41/10 25/42/10 19/29/10
f 6/43/10 4/27/10 26/30/10 27/44/10
f 8/45/10 6/43/10 27/44/10 9/46/10
f 16/41/10 14/19/10 28/22/10 25/42/10
f 25/42/10 28/22/10 42/47/10 37/48/10
f 9/46/10 27/44/10 41/49/10 39/50/10
f 27/44/10 26/30/10 40/51/10 41/49/10
f 19/29/10 25/42/10 37/48/10 31/52/10
f 23/40/11 24/26/11 36/53/11 35/54/11
f 20/33/11 23/40/11 35/54/11 32/55/11
f 18/38/11 22/36/11 34/56/11 29/57/11
f 22/36/11 21/34/11 33/58/11 34/56/11
f 21/34/11 20/33/11 32/55/11 33/58/11
f 26/30/10 19/29/10 31/52/10 40/51/10
f 17/59/5 9/60/5 39/61/12 30/62/12
f 28/22/10 10/21/10 38/63/10 42/47/10
f 24/26/11 17/25/11 30/64/11 36/53/11
f 10/12/6 18/11/6 29/65/13 38/66/13
f 43/67/14 45/68/15 46/69/15 44/70/14
f 45/68/15 47/71/16 48/72/16 46/69/15
f 47/71/16 49/73/17 50/74/17 48/72/16
f 49/73/17 59/75/18 51/76/18 50/74/17
f 60/77/19 53/78/20 54/79/20 52/80/19
f 53/78/20 55/81/21 56/82/21 54/79/20
f 55/81/21 57/83/22 58/84/22 56/82/21
f 57/83/22 43/67/14 44/70/14 58/84/22
f 56/85/10 70/86/10 52/87/10 54/88/10
f 47/89/11 66/90/11 59/91/11 49/92/11
f 46/93/10 68/94/10 61/95/10 44/96/10
f 57/97/11 63/98/11 62/99/11 43/100/11
f 55/101/11 64/102/11 63/98/11 57/97/11
f 53/103/11 60/104/11 64/102/11 55/101/11
f 43/100/11 62/99/11 65/105/11 45/106/11
f 45/106/11 65/105/11 66/90/11 47/89/11
f 44/96/10 61/95/10 67/107/10 58/108/10
f 48/109/10 69/110/10 68/94/10 46/93/10
f 50/111/10 51/112/10 69/110/10 48/109/10
f 58/108/10 67/107/10 70/86/10 56/85/10
f 67/107/10 37/48/10 42/47/10 70/86/10
f 51/112/10 39/50/10 41/49/10 69/110/10
f 69/110/10 41/49/10 40/51/10 68/94/10
f 61/95/10 31/52/10 37/48/10 67/107/10
f 65/105/11 35/54/11 36/53/11 66/90/11
f 62/99/11 32/55/11 35/54/11 65/105/11
f 60/104/11 29/57/11 34/56/11 64/102/11
f 64/102/11 34/56/11 33/58/11 63/98/11
f 63/98/11 33/58/11 32/55/11 62/99/11
f 68/94/10 40/51/10 31/52/10 61/95/10
f 59/75/18 30/62/12 39/61/12 51/76/18
f 70/86/10 42/47/10 38/63/10 52/87/10
f 66/90/11 36/53/11 30/64/11 59/91/11
f 52/113/19 38/66/13 29/65/13 60/114/19
f 77/115/23 71/116/24 73/117/25 79/118/26
f 79/118/26 73/117/25 72/119/27 78/120/28
f 80/121/29 77/115/23 79/118/26 82/122/30
f 82/122/30 79/118/26 78/120/28 81/123/31
f 83/124/32 80/121/29 82/122/30 85/125/33
f 85/125/33 82/122/30 81/123/31 84/126/34
f 86/127/35 83/124/32 85/125/33 88/128/36
f 88/128/36 85/125/33 84/126/34 87/129/37
f 74/130/38 86/127/35 88/128/36 76/131/39
f 76/131/39 88/128/36 87/129/37 75/132/40
f 118/133/41 96/134/42 108/135/10 117/136/10
f 106/137/43 91/138/44 93/139/45 105/140/46
f 89/141/47 93/139/45 91/138/44 107/142/48
f 90/143/49 92/144/50 93/139/45 89/141/47
f 146/145/51 92/146/50 90/147/49 144/148/52
f 77/115/23 101/149/10 103/150/10 71/116/24
f 86/127/35 116/151/10 113/152/10 83/124/32
f 123/153/10 97/154/10 98/155/10 124/156/10
f 119/157/53 105/140/46 104/158/54 120/159/55
f 105/140/46 93/139/45 92/144/50 104/158/54
f 118/133/41 106/137/43 105/140/46 119/157/53
f 126/160/56 132/161/57 78/162/28 72/163/27
f 80/121/29 102/164/10 101/149/10 77/115/23
f 122/165/10 112/166/10 97/154/10 123/153/10
f 83/124/32 113/152/10 102/164/10 80/121/29
f 121/167/10 124/156/10 98/155/10 99/168/10
f 91/138/44 106/137/43 100/169/10 107/142/48
f 180/170/58 89/141/47 107/142/48 181/171/59
f 179/172/60 90/143/49 89/141/47 180/170/58
f 75/132/40 109/173/60 110/174/58 76/131/39
f 76/131/39 110/174/58 111/175/59 74/130/38
f 184/176/10 182/177/10 112/166/10 122/165/10
f 185/178/61 179/179/60 109/180/60 163/181/61
f 74/130/38 115/182/10 116/151/10 86/127/35
f 111/175/59 114/183/10 115/182/10 74/130/38
f 181/171/59 183/184/10 114/183/10 111/175/59
f 183/184/10 184/176/10 122/165/10 114/183/10
f 101/149/10 102/164/10 113/152/10 121/167/10
f 113/152/10 116/151/10 124/156/10 121/167/10
f 114/183/10 122/165/10 123/153/10 115/182/10
f 96/134/42 118/133/41 119/157/53 94/185/62
f 94/185/62 119/157/53 120/159/55 95/186/63
f 115/182/10 123/153/10 124/156/10 116/151/10
f 106/137/43 118/133/41 117/136/10 100/169/10
f 103/150/10 101/149/10 121/167/10 99/168/10
f 104/187/54 158/188/64 174/189/65 120/190/55
f 92/146/50 146/145/51 158/188/64 104/187/54
f 132/161/57 135/191/66 81/192/31 78/162/28
f 163/181/61 109/180/60 75/193/40 129/194/67
f 138/195/68 141/196/69 87/197/37 84/198/34
f 135/191/66 138/195/68 84/198/34 81/192/31
f 141/196/69 129/194/67 75/193/40 87/197/37
f 131/199/70 133/200/71 127/201/72 125/202/73
f 133/200/71 132/203/57 126/204/56 127/201/72
f 134/205/74 136/206/75 133/200/71 131/199/70
f 136/206/75 135/207/66 132/203/57 133/200/71
f 137/208/76 139/209/77 136/206/75 134/205/74
f 139/209/77 138/210/68 135/207/66 136/206/75
f 140/211/78 142/212/79 139/209/77 137/208/76
f 142/212/79 141/213/69 138/210/68 139/209/77
f 128/214/80 130/215/81 142/212/79 140/211/78
f 130/215/81 129/216/67 141/213/69 142/212/79
f 172/217/82 171/218/11 162/219/11 150/220/83
f 160/221/84 159/222/85 147/223/86 145/224/87
f 143/225/88 161/226/89 145/224/87 147/223/86
f 144/227/52 143/225/88 147/223/86 146/228/51
f 131/199/70 125/202/73 157/229/11 155/230/11
f 140/211/78 137/208/76 167/231/11 170/232/11
f 177/233/11 178/234/11 152/235/11 151/236/11
f 173/237/90 174/238/65 158/239/64 159/222/85
f 159/222/85 158/239/64 146/228/51 147/223/86
f 172/217/82 173/237/90 159/222/85 160/221/84
f 134/205/74 131/199/70 155/230/11 156/240/11
f 176/241/11 177/233/11 151/236/11 166/242/11
f 137/208/76 134/205/74 156/240/11 167/231/11
f 175/243/11 153/244/11 152/235/11 178/234/11
f 145/224/87 161/226/89 154/245/11 160/221/84
f 186/246/91 187/247/92 161/226/89 143/225/88
f 185/248/61 186/246/91 143/225/88 144/227/52
f 129/216/67 130/215/81 164/249/91 163/250/61
f 130/215/81 128/214/80 165/251/92 164/249/91
f 190/252/11 176/241/11 166/242/11 188/253/11
f 128/214/80 140/211/78 170/232/11 169/254/11
f 165/251/92 128/214/80 169/254/11 168/255/11
f 187/247/92 165/251/92 168/255/11 189/256/11
f 189/256/11 168/255/11 176/241/11 190/252/11
f 155/230/11 175/243/11 167/231/11 156/240/11
f 167/231/11 175/243/11 178/234/11 170/232/11
f 168/255/11 169/254/11 177/233/11 176/241/11
f 150/220/83 148/257/93 173/237/90 172/217/82
f 148/257/93 149/258/94 174/238/65 173/237/90
f 169/254/11 170/232/11 178/234/11 177/233/11
f 160/221/84 154/245/11 171/218/11 172/217/82
f 157/229/11 153/244/11 175/243/11 155/230/11
f 120/190/55 174/189/65 149/259/94 95/260/63
f 154/245/11 189/256/11 190/252/11 171/218/11
f 161/226/89 187/247/92 189/256/11 154/245/11
f 171/218/11 190/252/11 188/253/11 162/219/11
f 163/250/61 164/249/91 186/246/91 185/248/61
f 164/249/91 165/251/92 187/247/92 186/246/91
f 100/169/10 117/136/10 184/176/10 183/184/10
f 107/142/48 100/169/10 183/184/10 181/171/59
f 144/148/52 90/147/49 179/179/60 185/178/61
f 117/136/10 108/135/10 182/177/10 184/176/10
f 109/173/60 179/172/60 180/170/58 110/174/58
f 110/174/58 180/170/58 181/171/59 111/175/59
f 194/261/95 196/262/96 73/117/25 71/116/24
f 196/262/96 195/263/97 72/119/27 73/117/25
f 197/264/98 199/265/99 196/262/96 194/261/95
f 199/265/99 198/266/100 195/263/97 196/262/96
f 200/267/101 202/268/102 199/265/99 197/264/98
f 202/268/102 201/269/103 198/266/100 199/265/99
f 203/270/104 205/271/105 202/268/102 200/267/101
f 205/271/105 204/272/106 201/269/103 202/268/102
f 191/273/107 193/274/108 205/271/105 203/270/104
f 193/274/108 192/275/109 204/272/106 205/271/105
f 226/276/110 225/277/10 108/135/10 96/134/42
f 216/278/111 215/279/112 210/280/113 208/281/114
f 206/282/115 217/283/116 208/281/114 210/280/113
f 207/284/117 206/282/115 210/280/113 209/285/118
f 251/286/119 249/287/120 207/288/117 209/289/118
f 194/261/95 71/116/24 103/150/10 212/290/10
f 203/270/104 200/267/101 221/291/10 224/292/10
f 231/293/10 232/294/10 98/155/10 97/154/10
f 227/295/121 228/296/122 214/297/123 215/279/112
f 215/279/112 214/297/123 209/285/118 210/280/113
f 226/276/110 227/295/121 215/279/112 216/278/111
f 126/298/56 72/299/27 195/300/97 237/301/124
f 197/264/98 194/261/95 212/290/10 213/302/10
f 230/303/10 231/293/10 97/154/10 112/166/10
f 200/267/101 197/264/98 213/302/10 221/291/10
f 229/304/10 99/168/10 98/155/10 232/294/10
f 208/281/114 217/283/116 211/305/10 216/278/111
f 276/306/125 277/307/126 217/283/116 206/282/115
f 275/308/127 276/306/125 206/282/115 207/284/117
f 192/275/109 193/274/108 219/309/125 218/310/127
f 193/274/108 191/273/107 220/311/126 219/309/125
f 279/312/10 230/303/10 112/166/10 182/177/10
f 280/313/128 260/314/128 218/315/127 275/316/127
f 191/273/107 203/270/104 224/292/10 223/317/10
f 220/311/126 191/273/107 223/317/10 222/318/10
f 277/307/126 220/311/126 222/318/10 278/319/10
f 278/319/10 222/318/10 230/303/10 279/312/10
f 212/290/10 229/304/10 221/291/10 213/302/10
f 221/291/10 229/304/10 232/294/10 224/292/10
f 222/318/10 223/317/10 231/293/10 230/303/10
f 96/134/42 94/185/62 227/295/121 226/276/110
f 94/185/62 95/186/63 228/296/122 227/295/121
f 223/317/10 224/292/10 232/294/10 231/293/10
f 216/278/111 211/305/10 225/277/10 226/276/110
f 103/150/10 99/168/10 229/304/10 212/290/10
f 214/320/123 228/321/122 270/322/129 256/323/130
f 209/289/118 214/320/123 256/323/130 251/286/119
f 237/301/124 195/300/97 198/324/100 240/325/131
f 260/314/128 234/326/132 192/327/109 218/315/127
f 243/328/133 201/329/103 204/330/106 246/331/134
f 240/325/131 198/324/100 201/329/103 243/328/133
f 246/331/134 204/330/106 192/327/109 234/326/132
f 236/332/135 125/202/73 127/201/72 238/333/136
f 238/333/136 127/201/72 126/204/56 237/334/124
f 239/335/137 236/332/135 238/333/136 241/336/138
f 241/336/138 238/333/136 237/334/124 240/337/131
f 242/338/139 239/335/137 241/336/138 244/339/140
f 244/339/140 241/336/138 240/337/131 243/340/133
f 245/341/141 242/338/139 244/339/140 247/342/142
f 247/342/142 244/339/140 243/340/133 246/343/134
f 233/344/143 245/341/141 247/342/142 235/345/144
f 235/345/144 247/342/142 246/343/134 234/346/132
f 268/347/145 150/220/83 162/219/11 267/348/11
f 258/349/146 250/350/147 252/351/148 257/352/149
f 248/353/150 252/351/148 250/350/147 259/354/151
f 249/355/120 251/356/119 252/351/148 248/353/150
f 236/332/135 254/357/11 157/229/11 125/202/73
f 245/341/141 266/358/11 263/359/11 242/338/139
f 273/360/11 151/236/11 152/235/11 274/361/11
f 269/362/152 257/352/149 256/363/130 270/364/129
f 257/352/149 252/351/148 251/356/119 256/363/130
f 268/347/145 258/349/146 257/352/149 269/362/152
f 239/335/137 255/365/11 254/357/11 236/332/135
f 272/366/11 166/242/11 151/236/11 273/360/11
f 242/338/139 263/359/11 255/365/11 239/335/137
f 271/367/11 274/361/11 152/235/11 153/244/11
f 250/350/147 258/349/146 253/368/11 259/354/151
f 281/369/153 248/353/150 259/354/151 282/370/154
f 280/371/128 249/355/120 248/353/150 281/369/153
f 234/346/132 260/372/128 261/373/153 235/345/144
f 235/345/144 261/373/153 262/374/154 233/344/143
f 284/375/11 188/253/11 166/242/11 272/366/11
f 233/344/143 265/376/11 266/358/11 245/341/141
f 262/374/154 264/377/11 265/376/11 233/344/143
f 282/370/154 283/378/11 264/377/11 262/374/154
f 283/378/11 284/375/11 272/366/11 264/377/11
f 254/357/11 255/365/11 263/359/11 271/367/11
f 263/359/11 266/358/11 274/361/11 271/367/11
f 264/377/11 272/366/11 273/360/11 265/376/11
f 150/220/83 268/347/145 269/362/152 148/257/93
f 148/257/93 269/362/152 270/364/129 149/258/94
f 265/376/11 273/360/11 274/361/11 266/358/11
f 258/349/146 268/347/145 267/348/11 253/368/11
f 157/229/11 254/357/11 271/367/11 153/244/11
f 228/321/122 95/379/63 149/380/94 270/322/129
f 253/368/11 267/348/11 284/375/11 283/378/11
f 259/354/151 253/368/11 283/378/11 282/370/154
f 267/348/11 162/219/11 188/253/11 284/375/11
f 260/372/128 280/371/128 281/369/153 261/373/153
f 261/373/153 281/369/153 282/370/154 262/374/154
f 211/305/10 278/319/10 279/312/10 225/277/10
f 217/283/116 277/307/126 278/319/10 211/305/10
f 249/287/120 280/313/128 275/316/127 207/288/117
f 225/277/10 279/312/10 182/177/10 108/135/10
f 218/310/127 219/309/125 276/306/125 275/308/127
f 219/309/125 220/311/126 277/307/126 276/306/125
