# Blender 4.0.2
# www.blender.org
o birdhouse
v -0.000000 0.037381 0.086209
v 0.000000 0.037381 0.127534
v -0.002206 0.037820 0.086209
v -0.002206 0.037820 0.127534
v -0.004077 0.039070 0.086209
v -0.004077 0.039070 0.127534
v -0.005327 0.040940 0.086209
v -0.005327 0.040940 0.127534
v -0.005766 0.043147 0.086209
v -0.005766 0.043147 0.127534
v -0.005327 0.045353 0.086209
v -0.005327 0.045353 0.127534
v -0.004077 0.047224 0.086209
v -0.004077 0.047224 0.127534
v -0.002206 0.048473 0.086209
v -0.002206 0.048473 0.127534
v -0.000000 0.048912 0.086209
v 0.000000 0.048912 0.127534
v 0.002206 0.048473 0.086209
v 0.002206 0.048473 0.127534
v 0.004077 0.047224 0.086209
v 0.004077 0.047224 0.127534
v 0.005327 0.045353 0.086209
v 0.005327 0.045353 0.127534
v 0.005766 0.043147 0.086209
v 0.005766 0.043147 0.127534
v 0.005327 0.040940 0.086209
v 0.005327 0.040940 0.127534
v 0.004077 0.039070 0.086209
v 0.004077 0.039070 0.127534
v 0.002206 0.037820 0.086209
v 0.002206 0.037820 0.127534
v -0.087887 0.000000 0.086647
v 0.000000 0.063280 0.086647
v -0.087887 0.041990 0.086647
v -0.087887 0.075128 0.086647
v -0.087887 0.104788 0.086647
v -0.087887 0.126586 0.086647
v -0.087887 0.157417 0.086647
v -0.043944 0.194915 0.086647
v 0.000000 0.232414 0.086647
v 0.000000 0.114570 0.086647
v -0.009814 0.112617 0.086647
v -0.018134 0.107058 0.086647
v -0.023693 0.098739 0.086647
v -0.025645 0.088925 0.086647
v -0.023693 0.079111 0.086647
v 0.000000 0.000000 0.086647
v -0.018134 0.070791 0.086647
v -0.009814 0.065232 0.086647
v 0.087887 0.000000 0.086647
v 0.087887 0.041990 0.086647
v 0.087887 0.075128 0.086647
v 0.087887 0.104788 0.086647
v 0.087887 0.126586 0.086647
v 0.087887 0.157417 0.086647
v 0.043944 0.194915 0.086647
v 0.009814 0.112617 0.086647
v 0.018134 0.107058 0.086647
v 0.023693 0.098739 0.086647
v 0.025645 0.088925 0.086647
v -0.087887 0.000000 -0.084198
v -0.087887 0.041990 -0.084198
v -0.087887 0.075128 -0.084198
v -0.087887 0.104788 -0.084198
v -0.087887 0.126586 -0.084198
v -0.087887 0.157417 -0.084198
v 0.000000 0.232414 -0.084198
v 0.000000 0.000000 -0.084198
v 0.000000 0.182378 -0.084198
v 0.000000 0.129963 -0.084198
v 0.000000 0.090787 -0.084198
v 0.000000 0.041990 -0.084198
v 0.000000 0.063280 0.055019
v 0.000000 0.114570 0.055019
v -0.009814 0.112617 0.055019
v -0.018134 0.107058 0.055019
v -0.023693 0.098739 0.055019
v -0.025645 0.088925 0.055019
v -0.023693 0.079111 0.055019
v -0.018134 0.070791 0.055019
v -0.009814 0.065232 0.055019
v 0.023693 0.079111 0.086647
v 0.018134 0.070791 0.086647
v 0.009814 0.065232 0.086647
v 0.087887 0.000000 -0.084198
v 0.087887 0.041990 -0.084198
v 0.087887 0.075128 -0.084198
v 0.087887 0.104788 -0.084198
v 0.087887 0.126586 -0.084198
v 0.087887 0.157417 -0.084198
v 0.009814 0.112617 0.055019
v 0.018134 0.107058 0.055019
v 0.023693 0.098739 0.055019
v 0.025645 0.088925 0.055019
v 0.023693 0.079111 0.055019
v 0.018134 0.070791 0.055019
v 0.009814 0.065232 0.055019
v -0.104306 0.143406 -0.100122
v 0.000000 0.232414 -0.100122
v -0.104306 0.143406 0.103230
v 0.000000 0.232414 0.103230
v -0.115900 0.156993 -0.100122
v 0.000000 0.255895 -0.100122
v -0.115900 0.156993 0.103230
v 0.000000 0.255895 0.103230
v 0.104306 0.143406 -0.100122
v 0.104306 0.143406 0.103230
v 0.115900 0.156993 -0.100122
v 0.115900 0.156993 0.103230
v 0.000000 0.043147 0.127534
v 0.000000 0.088925 0.055019
vn -0.0000 -1.0000 -0.0000
vn -0.3827 -0.9239 -0.0000
vn -0.7071 -0.7071 -0.0000
vn -0.9239 -0.3827 -0.0000
vn -1.0000 -0.0000 -0.0000
vn -0.9239 0.3827 -0.0000
vn -0.7071 0.7071 -0.0000
vn -0.3827 0.9239 -0.0000
vn -0.0000 1.0000 -0.0000
vn 0.3827 0.9239 -0.0000
vn 0.7071 0.7071 -0.0000
vn 0.9239 0.3827 -0.0000
vn 1.0000 -0.0000 -0.0000
vn 0.9239 -0.3827 -0.0000
vn 0.7071 -0.7071 -0.0000
vn -0.0000 -0.0000 1.0000
vn 0.3827 -0.9239 -0.0000
vn -0.0000 -0.0000 -1.0000
vn -0.6491 0.7607 -0.0000
vn -0.6491 -0.7607 -0.0000
vn -0.7607 -0.6491 -0.0000
vn 0.6491 0.7607 -0.0000
vn 0.7607 -0.6491 -0.0000
vn 0.6491 -0.7607 -0.0000
vt 0.374836 0.800473
vt 0.434160 0.800474
vt 0.434160 0.803703
vt 0.374836 0.803703
vt 0.434160 0.806933
vt 0.374836 0.806932
vt 0.434160 0.810162
vt 0.374836 0.810162
vt 0.434160 0.813392
vt 0.374836 0.813391
vt 0.434160 0.816621
vt 0.374836 0.816621
vt 0.434160 0.819851
vt 0.374836 0.819851
vt 0.434160 0.823080
vt 0.374836 0.823080
vt 0.434160 0.826310
vt 0.374836 0.826310
vt 0.434160 0.829539
vt 0.374836 0.829539
vt 0.434160 0.832768
vt 0.374836 0.832768
vt 0.434160 0.835998
vt 0.374836 0.835998
vt 0.434160 0.839227
vt 0.374836 0.839228
vt 0.434160 0.842457
vt 0.374836 0.842457
vt 0.434160 0.845686
vt 0.374836 0.845687
vt 0.654255 0.323114
vt 0.654255 0.319884
vt 0.655491 0.316901
vt 0.662373 0.321499
vt 0.434160 0.848916
vt 0.374836 0.848916
vt 0.434160 0.852145
vt 0.374836 0.852146
vt 0.702032 0.134748
vt 0.704835 0.148837
vt 0.612680 0.188813
vt 0.612680 0.157521
vt 0.712815 0.108716
vt 0.704835 0.120660
vt 0.612680 0.114943
vt 0.612680 0.067370
vt 0.738847 0.097934
vt 0.724759 0.100736
vt 0.612680 0.007092
vt 0.738847 0.007092
vt 0.712815 0.160781
vt 0.612680 0.233072
vt 0.724759 0.168761
vt 0.738847 0.171563
vt 0.738847 0.340736
vt 0.675763 0.286904
vt 0.772859 0.148837
vt 0.865014 0.188813
vt 0.865014 0.233073
vt 0.764879 0.160781
vt 0.752935 0.100736
vt 0.865014 0.007092
vt 0.865014 0.067370
vt 0.764879 0.108716
vt 0.752936 0.168761
vt 0.801931 0.286904
vt 0.865014 0.007092
vt 0.752936 0.100736
vt 0.772859 0.120660
vt 0.865014 0.114943
vt 0.865014 0.157521
vt 0.775662 0.134749
vt 0.313199 0.082643
vt 0.313199 0.051352
vt 0.558457 0.051352
vt 0.558457 0.082643
vt 0.313199 0.125222
vt 0.558457 0.125222
vt 0.313199 0.359240
vt 0.313199 0.233073
vt 0.558457 0.233072
vt 0.558457 0.359240
vt 0.738995 0.617069
vt 0.738995 0.688898
vt 0.612828 0.581235
vt 0.612828 0.536975
vt 0.313199 0.007092
vt 0.558457 0.007092
vt 0.313199 0.172794
vt 0.558457 0.172794
vt 0.313372 0.681312
vt 0.558630 0.681312
vt 0.558630 0.725571
vt 0.313372 0.725571
vt 0.865162 0.536975
vt 0.865162 0.581235
vt 0.865162 0.355254
vt 0.865162 0.415533
vt 0.738995 0.415533
vt 0.738995 0.355254
vt 0.738995 0.541824
vt 0.865162 0.505683
vt 0.738995 0.485584
vt 0.865162 0.463105
vt 0.361258 0.741922
vt 0.361258 0.756286
vt 0.315854 0.756286
vt 0.315854 0.741922
vt 0.313372 0.559869
vt 0.558630 0.559869
vt 0.558630 0.607442
vt 0.313372 0.607442
vt 0.313372 0.499591
vt 0.558630 0.499591
vt 0.361258 0.785015
vt 0.361258 0.799380
vt 0.315854 0.799380
vt 0.315854 0.785015
vt 0.558630 0.650020
vt 0.313372 0.650020
vt 0.612828 0.355254
vt 0.612828 0.415533
vt 0.361258 0.813744
vt 0.315854 0.813744
vt 0.361258 0.770651
vt 0.315854 0.770651
vt 0.361258 0.828108
vt 0.315854 0.828108
vt 0.361258 0.842473
vt 0.315854 0.842473
vt 0.558457 0.485407
vt 0.313199 0.485407
vt 0.361258 0.856837
vt 0.315854 0.856837
vt 0.612828 0.505683
vt 0.612828 0.463105
vt 0.374836 0.786289
vt 0.374836 0.740885
vt 0.389200 0.740885
vt 0.389200 0.786289
vt 0.417929 0.786289
vt 0.417929 0.740885
vt 0.432294 0.740885
vt 0.432294 0.786289
vt 0.446658 0.740885
vt 0.446658 0.786289
vt 0.403565 0.740885
vt 0.403565 0.786289
vt 0.461023 0.740885
vt 0.461023 0.786289
vt 0.475387 0.740885
vt 0.475387 0.786289
vt 0.361258 0.871202
vt 0.315854 0.871202
vt 0.299015 0.032733
vt 0.299015 0.251459
vt 0.007092 0.251459
vt 0.007092 0.032733
vt 0.736615 0.713347
vt 0.886352 0.585570
vt 0.902997 0.605075
vt 0.736615 0.747055
vt 0.586902 0.640937
vt 0.736639 0.768714
vt 0.736639 0.802422
vt 0.570258 0.660442
vt 0.301011 0.506064
vt 0.301011 0.702910
vt 0.009088 0.702910
vt 0.009088 0.506064
vt 0.007092 0.007092
vt 0.299015 0.007092
vt 0.007092 0.470185
vt 0.299015 0.470185
vt 0.570234 0.605075
vt 0.586879 0.585570
vt 0.903021 0.660442
vt 0.886377 0.640937
vt 0.007092 0.495826
vt 0.299015 0.495826
vt 0.738520 0.134491
vt 0.724020 0.112790
vt 0.733428 0.108893
vt 0.743612 0.108893
vt 0.009088 0.899755
vt 0.301011 0.899755
vt 0.657775 0.314617
vt 0.660758 0.313381
vt 0.663988 0.313381
vt 0.666972 0.314617
vt 0.669255 0.316901
vt 0.670491 0.319884
vt 0.670491 0.323114
vt 0.669255 0.326097
vt 0.666972 0.328381
vt 0.663988 0.329617
vt 0.660758 0.329617
vt 0.657775 0.328381
vt 0.655491 0.326097
vt 0.716819 0.148990
vt 0.712922 0.139582
vt 0.712922 0.129399
vt 0.760220 0.119991
vt 0.764117 0.129399
vt 0.764117 0.139582
vt 0.733428 0.160088
vt 0.724020 0.156191
vt 0.743612 0.160088
vt 0.753020 0.156191
vt 0.753020 0.112790
vt 0.716819 0.119991
vt 0.760220 0.148990
s 1
f 1/1/1 2/2/1 4/3/2 3/4/2
f 3/4/2 4/3/2 6/5/3 5/6/3
f 5/6/3 6/5/3 8/7/4 7/8/4
f 7/8/4 8/7/4 10/9/5 9/10/5
f 9/10/5 10/9/5 12/11/6 11/12/6
f 11/12/6 12/11/6 14/13/7 13/14/7
f 13/14/7 14/13/7 16/15/8 15/16/8
f 15/16/8 16/15/8 18/17/9 17/18/9
f 17/18/9 18/17/9 20/19/10 19/20/10
f 19/20/10 20/19/10 22/21/11 21/22/11
f 21/22/11 22/21/11 24/23/12 23/24/12
f 23/24/12 24/23/12 26/25/13 25/26/13
f 25/26/13 26/25/13 28/27/14 27/28/14
f 27/28/14 28/27/14 30/29/15 29/30/15
f 6/31/16 4/32/16 2/33/16 111/34/16
f 29/30/15 30/29/15 32/35/17 31/36/17
f 31/36/17 32/35/17 2/37/1 1/38/1
f 46/39/16 45/40/16 38/41/16 37/42/16
f 49/43/16 47/44/16 36/45/16 35/46/16
f 34/47/16 50/48/16 33/49/16 48/50/16
f 45/40/16 44/51/16 39/52/16 38/41/16
f 47/44/16 46/39/16 37/42/16 36/45/16
f 50/48/16 49/43/16 35/46/16 33/49/16
f 43/53/16 42/54/16 41/55/16 40/56/16
f 44/51/16 43/53/16 40/56/16 39/52/16
f 60/57/16 55/58/16 56/59/16 59/60/16
f 85/61/16 51/62/16 52/63/16 84/64/16
f 58/65/16 57/66/16 41/55/16 42/54/16
f 34/47/16 48/50/16 51/67/16 85/68/16
f 83/69/16 53/70/16 54/71/16 61/72/16
f 59/60/16 56/59/16 57/66/16 58/65/16
f 61/72/16 54/71/16 55/58/16 60/57/16
f 84/64/16 52/63/16 53/70/16 83/69/16
f 37/73/5 38/74/5 66/75/5 65/76/5
f 36/77/5 37/73/5 65/76/5 64/78/5
f 48/79/1 33/80/1 62/81/1 69/82/1
f 70/83/18 68/84/18 91/85/18 90/86/18
f 38/74/5 39/87/5 67/88/5 66/75/5
f 35/89/5 36/77/5 64/78/5 63/90/5
f 33/80/5 35/89/5 63/90/5 62/81/5
f 55/91/13 90/92/13 91/93/13 56/94/13
f 70/83/18 66/95/18 67/96/18 68/84/18
f 62/97/18 63/98/18 73/99/18 69/100/18
f 71/101/18 65/102/18 66/95/18 70/83/18
f 72/103/18 64/104/18 65/102/18 71/101/18
f 73/99/18 63/98/18 64/104/18 72/103/18
f 42/105/1 43/106/17 76/107/17 75/108/1
f 52/109/13 87/110/13 88/111/13 53/112/13
f 51/113/13 86/114/13 87/110/13 52/109/13
f 45/115/14 46/116/13 79/117/13 78/118/14
f 53/112/13 88/111/13 89/119/13 54/120/13
f 86/121/18 69/100/18 73/99/18 87/122/18
f 46/116/13 47/123/12 80/124/12 79/117/13
f 43/106/17 44/125/15 77/126/15 76/107/17
f 47/123/12 49/127/11 81/128/11 80/124/12
f 49/127/11 50/129/10 82/130/10 81/128/11
f 48/79/1 69/82/1 86/131/1 51/132/1
f 54/120/13 89/119/13 90/92/13 55/91/13
f 50/129/10 34/133/9 74/134/9 82/130/10
f 44/125/15 45/115/14 78/118/14 77/126/15
f 71/101/18 70/83/18 90/86/18 89/135/18
f 72/103/18 71/101/18 89/135/18 88/136/18
f 73/99/18 72/103/18 88/136/18 87/122/18
f 42/137/1 75/138/1 92/139/2 58/140/2
f 60/141/4 94/142/4 95/143/5 61/144/5
f 61/144/5 95/143/5 96/145/6 83/146/6
f 58/140/2 92/139/2 93/147/3 59/148/3
f 83/146/6 96/145/6 97/149/7 84/150/7
f 84/150/7 97/149/7 98/151/8 85/152/8
f 85/153/8 98/154/8 74/134/9 34/133/9
f 59/148/3 93/147/3 94/142/4 60/141/4
f 105/155/19 106/156/19 104/157/19 103/158/19
f 100/159/18 99/160/18 103/161/18 104/162/18
f 101/163/16 102/164/16 106/165/16 105/166/16
f 108/167/20 102/168/20 100/169/20 107/170/20
f 99/171/21 101/172/21 105/155/21 103/158/21
f 109/173/22 104/157/22 106/156/22 110/174/22
f 100/159/18 104/162/18 109/175/18 107/176/18
f 110/177/16 106/165/16 102/164/16 108/178/16
f 107/179/23 109/173/23 110/174/23 108/180/23
f 112/181/16 74/182/16 98/183/16 97/184/16
f 99/185/24 100/169/24 102/168/24 101/186/24
f 32/187/16 30/188/16 111/34/16 2/33/16
f 28/189/16 26/190/16 111/34/16 30/188/16
f 24/191/16 22/192/16 111/34/16 26/190/16
f 20/193/16 18/194/16 111/34/16 22/192/16
f 16/195/16 14/196/16 111/34/16 18/194/16
f 12/197/16 10/198/16 111/34/16 14/196/16
f 8/199/16 6/31/16 111/34/16 10/198/16
f 112/181/16 79/200/16 80/201/16 81/202/16
f 112/181/16 95/203/16 94/204/16 93/205/16
f 77/206/16 78/207/16 79/200/16 112/181/16
f 76/208/16 77/206/16 112/181/16 75/209/16
f 95/203/16 112/181/16 97/184/16 96/210/16
f 74/182/16 112/181/16 81/202/16 82/211/16
f 75/209/16 112/181/16 93/205/16 92/212/16
