# Blender 4.1.1
# www.blender.org
o grind_box_01
v 0.900000 0.184394 0.161973
v -0.900000 0.184394 0.161973
v 0.900000 0.192798 0.163645
v -0.900000 0.192798 0.163645
v 0.900000 0.199922 0.168405
v -0.900000 0.199922 0.168405
v 0.900000 0.204683 0.175530
v -0.900000 0.204683 0.175530
v 0.900000 0.206355 0.183934
v -0.900000 0.206355 0.183934
v 0.900000 0.204683 0.192338
v -0.900000 0.204683 0.192338
v 0.900000 0.199922 0.199463
v -0.900000 0.199922 0.199463
v 0.900000 0.192798 0.204223
v -0.900000 0.192798 0.204223
v 0.900000 0.184394 0.205895
v -0.900000 0.184394 0.205895
v 0.900000 0.175989 0.204223
v -0.900000 0.175989 0.204223
v 0.900000 0.168865 0.199463
v -0.900000 0.168865 0.199463
v 0.900000 0.164104 0.192338
v -0.900000 0.164104 0.192338
v 0.900000 0.162433 0.183934
v -0.900000 0.162433 0.183934
v 0.900000 0.164104 0.175530
v -0.900000 0.164104 0.175530
v 0.900000 0.168865 0.168405
v -0.900000 0.168865 0.168405
v 0.900000 0.175989 0.163645
v -0.900000 0.175989 0.163645
v 0.900000 0.184394 0.158934
v 0.900000 0.193961 0.160837
v -0.900000 0.193961 0.160837
v -0.900000 0.184394 0.158934
v 0.900000 0.202071 0.166256
v -0.900000 0.202071 0.166256
v 0.900000 0.207491 0.174367
v -0.900000 0.207491 0.174367
v 0.900000 0.209394 0.183934
v -0.900000 0.209394 0.183934
v 0.900000 0.207491 0.193501
v -0.900000 0.207491 0.193501
v 0.900000 0.202071 0.201612
v -0.900000 0.202071 0.201612
v 0.900000 0.193961 0.207031
v -0.900000 0.193961 0.207031
v 0.900000 0.184394 0.208934
v -0.900000 0.184394 0.208934
v 0.900000 0.174826 0.207031
v -0.900000 0.174826 0.207031
v 0.900000 0.166716 0.201612
v -0.900000 0.166716 0.201612
v 0.900000 0.161297 0.193501
v -0.900000 0.161297 0.193501
v 0.900000 0.159394 0.183934
v -0.900000 0.159394 0.183934
v 0.900000 0.161297 0.174367
v -0.900000 0.161297 0.174367
v 0.900000 0.166716 0.166256
v -0.900000 0.166716 0.166256
v 0.900000 0.174826 0.160837
v -0.900000 0.174826 0.160837
v 0.900000 0.184394 -0.161973
v -0.900000 0.184394 -0.161973
v 0.900000 0.192798 -0.163645
v -0.900000 0.192798 -0.163645
v 0.900000 0.199922 -0.168405
v -0.900000 0.199922 -0.168405
v 0.900000 0.204683 -0.175530
v -0.900000 0.204683 -0.175530
v 0.900000 0.206355 -0.183934
v -0.900000 0.206355 -0.183934
v 0.900000 0.204683 -0.192338
v -0.900000 0.204683 -0.192338
v 0.900000 0.199922 -0.199463
v -0.900000 0.199922 -0.199463
v 0.900000 0.192798 -0.204223
v -0.900000 0.192798 -0.204223
v 0.900000 0.184394 -0.205895
v -0.900000 0.184394 -0.205895
v 0.900000 0.175989 -0.204223
v -0.900000 0.175989 -0.204223
v 0.900000 0.168865 -0.199463
v -0.900000 0.168865 -0.199463
v 0.900000 0.164104 -0.192338
v -0.900000 0.164104 -0.192338
v 0.900000 0.162433 -0.183934
v -0.900000 0.162433 -0.183934
v 0.900000 0.164104 -0.175530
v -0.900000 0.164104 -0.175530
v 0.900000 0.168865 -0.168405
v -0.900000 0.168865 -0.168405
v 0.900000 0.175989 -0.163645
v -0.900000 0.175989 -0.163645
v 0.900000 0.184394 -0.158934
v 0.900000 0.193961 -0.160837
v -0.900000 0.193961 -0.160837
v -0.900000 0.184394 -0.158934
v 0.900000 0.202071 -0.166256
v -0.900000 0.202071 -0.166256
v 0.900000 0.207491 -0.174367
v -0.900000 0.207491 -0.174367
v 0.900000 0.209394 -0.183934
v -0.900000 0.209394 -0.183934
v 0.900000 0.207491 -0.193501
v -0.900000 0.207491 -0.193501
v 0.900000 0.202071 -0.201612
v -0.900000 0.202071 -0.201612
v 0.900000 0.193961 -0.207031
v -0.900000 0.193961 -0.207031
v 0.900000 0.184394 -0.208934
v -0.900000 0.184394 -0.208934
v 0.900000 0.174826 -0.207031
v -0.900000 0.174826 -0.207031
v 0.900000 0.166716 -0.201612
v -0.900000 0.166716 -0.201612
v 0.900000 0.161297 -0.193501
v -0.900000 0.161297 -0.193501
v 0.900000 0.159394 -0.183934
v -0.900000 0.159394 -0.183934
v 0.900000 0.161297 -0.174367
v -0.900000 0.161297 -0.174367
v 0.900000 0.166716 -0.166256
v -0.900000 0.166716 -0.166256
v 0.900000 0.174826 -0.160837
v -0.900000 0.174826 -0.160837
v -0.900000 -0.000000 0.193501
v -0.900000 -0.000000 -0.193501
v 0.900000 -0.000000 0.193501
v 0.900000 -0.000000 -0.193501
v -0.900000 0.200000 -0.162423
v -0.900000 0.161297 -0.193501
v -0.900000 0.200000 0.162423
v -0.900000 0.161297 0.193501
v -0.900000 0.184394 0.158934
v -0.900000 0.174826 0.160837
v -0.900000 0.166716 0.166256
v -0.900000 0.161297 0.174367
v -0.900000 0.159394 0.183934
v 0.900000 0.200000 -0.162423
v 0.900000 0.161297 -0.193501
v 0.900000 0.200000 0.162423
v 0.900000 0.161297 0.193501
v 0.900000 0.184394 0.158934
v 0.900000 0.174826 0.160837
v 0.900000 0.166716 0.166256
v -0.900000 -0.000000 0.000000
v 0.900000 0.161297 0.174367
v -0.900000 0.200000 0.000000
v 0.900000 0.159394 0.183934
v -0.900000 0.184394 -0.158934
v -0.900000 0.174826 -0.160837
v -0.900000 0.106119 0.000000
v 0.900000 -0.000000 0.000000
v -0.900000 0.106119 0.193501
v 0.900000 0.200000 0.000000
v -0.900000 0.000000 0.094381
v 0.900000 0.184394 -0.158934
v -0.900000 0.200000 0.094381
v 0.900000 0.174826 -0.160837
v 0.900000 0.106119 0.000000
v -0.900000 0.106119 0.094381
v -0.900000 0.166716 -0.166256
v -0.900000 0.161297 -0.174367
v -0.900000 0.159394 -0.183934
v 0.900000 0.106119 0.193501
v 0.900000 0.000000 0.094381
v 0.900000 0.200000 0.094381
v -0.900000 0.184748 0.000000
v -0.900000 0.148508 0.000000
v -0.900000 0.148508 0.094381
v -0.900000 0.184748 0.094381
v 0.900000 0.106119 0.094381
v 0.900000 0.166716 -0.166256
v -0.900000 -0.000000 0.184390
v -0.900000 -0.000000 0.147528
v 0.900000 0.161297 -0.174367
v 0.900000 0.159394 -0.183934
v 0.900000 0.184748 0.000000
v 0.900000 0.148508 0.000000
v -0.900000 0.106119 0.184390
v -0.900000 0.106119 0.147528
v 0.900000 0.148508 0.094381
v 0.900000 0.184748 0.094381
v 0.000000 -0.000000 0.193501
v 0.000000 0.200000 0.162423
v 0.000000 0.184394 0.158934
v 0.000000 0.174826 0.160837
v 0.000000 0.166716 0.166256
v 0.000000 0.161297 0.174367
v 0.000000 0.159394 0.183934
v 0.000000 0.161088 0.193501
v 0.000000 -0.000000 0.000000
v 0.000000 0.200000 0.000000
v 0.900000 -0.000000 0.184390
v 0.000000 0.106119 0.193501
v 0.000000 0.000000 0.094381
v 0.000000 0.200000 0.094381
v 0.900000 -0.000000 0.147528
v 0.900000 0.106119 0.184390
v 0.000000 -0.000000 0.147528
v 0.000000 -0.000000 0.184390
v 0.900000 0.106119 0.147528
v -0.900000 0.106119 -0.193501
v -0.900000 0.000000 -0.094381
v -0.900000 0.200000 -0.094381
v -0.900000 0.106119 -0.094381
v -0.900000 0.148508 -0.094381
v -0.900000 0.184748 -0.094381
v -0.900000 -0.000000 -0.184390
v -0.900000 -0.000000 -0.147528
v -0.900000 0.106119 -0.184390
v -0.900000 0.106119 -0.147528
v 0.000000 -0.000000 -0.193501
v 0.000000 0.200000 -0.162423
v 0.000000 0.184394 -0.158934
v 0.000000 0.174826 -0.160837
v 0.000000 0.166716 -0.166256
v 0.000000 0.161297 -0.174367
v 0.000000 0.159394 -0.183934
v 0.000000 0.161088 -0.193501
v 0.000000 0.106119 -0.193501
v 0.000000 0.000000 -0.094381
v 0.000000 0.200000 -0.094381
v 0.000000 -0.000000 -0.147528
v 0.000000 -0.000000 -0.184390
v 0.900000 0.106119 -0.193501
v 0.900000 0.000000 -0.094381
v 0.900000 0.200000 -0.094381
v 0.900000 0.106119 -0.094381
v 0.900000 0.148508 -0.094381
v 0.900000 0.184748 -0.094381
v 0.900000 -0.000000 -0.184390
v 0.900000 -0.000000 -0.147528
v 0.900000 0.106119 -0.184390
v 0.900000 0.106119 -0.147528
vn -0.0000 -0.0000 -1.0000
vn -0.0000 0.3827 -0.9239
vn -0.0000 0.7071 -0.7071
vn -0.0000 0.9239 -0.3827
vn -0.0000 1.0000 -0.0000
vn -0.0000 0.9239 0.3827
vn -0.0000 0.7071 0.7071
vn -0.0000 0.3827 0.9239
vn -0.0000 -0.0000 1.0000
vn -0.0000 -0.3827 0.9239
vn -0.0000 -0.7071 0.7071
vn -0.0000 -0.9239 0.3827
vn -0.0000 -1.0000 -0.0000
vn -0.0000 -0.9239 -0.3827
vn -0.0000 -0.7071 -0.7071
vn -0.0000 -0.3827 -0.9239
vn 1.0000 -0.0000 -0.0000
vn -1.0000 -0.0000 -0.0000
vn -0.0000 -0.2182 -0.9759
vn -0.0000 -0.0118 -0.9999
vn -0.0000 -0.0118 0.9999
vn 0.0001 1.0000 0.0053
vn -0.0000 1.0000 0.0053
vn -0.0001 1.0000 0.0053
vn 0.0001 0.9828 -0.1848
vn -0.0000 0.9828 -0.1848
vn -0.0000 -0.2182 0.9759
vn -0.0001 1.0000 -0.0053
vn -0.0001 0.9828 0.1848
vn -0.0000 0.9828 0.1848
vn -0.0000 1.0000 -0.0053
vn 0.0001 1.0000 -0.0053
vn 0.0001 0.9828 0.1848
vn -0.0001 0.9828 -0.1848
vt 0.619607 0.004883
vt 0.619607 0.916929
vt 0.614665 0.916929
vt 0.614664 0.004883
vt 0.609722 0.916929
vt 0.609722 0.004883
vt 0.604780 0.916929
vt 0.604779 0.004883
vt 0.599837 0.916929
vt 0.599837 0.004883
vt 0.594894 0.916929
vt 0.594894 0.004883
vt 0.589952 0.916929
vt 0.589952 0.004883
vt 0.585009 0.916929
vt 0.585009 0.004883
vt 0.580067 0.916929
vt 0.580067 0.004883
vt 0.575124 0.916929
vt 0.575124 0.004883
vt 0.570182 0.916929
vt 0.570182 0.004883
vt 0.565239 0.916929
vt 0.565239 0.004883
vt 0.560297 0.916929
vt 0.560297 0.004883
vt 0.639377 0.004883
vt 0.639377 0.916929
vt 0.634435 0.916929
vt 0.634435 0.004883
vt 0.629492 0.916929
vt 0.629492 0.004883
vt 0.624550 0.916929
vt 0.624550 0.004883
vt 0.920330 0.435846
vt 0.916974 0.435846
vt 0.916974 0.434733
vt 0.920330 0.434733
vt 0.903241 0.415964
vt 0.906596 0.415964
vt 0.906596 0.417077
vt 0.903241 0.417077
vt 0.923685 0.435846
vt 0.923685 0.434733
vt 0.909951 0.415964
vt 0.909951 0.417077
vt 0.927040 0.435846
vt 0.927040 0.434733
vt 0.913306 0.415964
vt 0.913306 0.417077
vt 0.930396 0.435846
vt 0.930396 0.434733
vt 0.916661 0.415964
vt 0.916661 0.417077
vt 0.933751 0.435846
vt 0.933751 0.434733
vt 0.920017 0.415964
vt 0.920017 0.417077
vt 0.937107 0.435846
vt 0.937107 0.434733
vt 0.923372 0.415964
vt 0.923372 0.417077
vt 0.940462 0.435846
vt 0.940462 0.434733
vt 0.926727 0.415964
vt 0.926727 0.417077
vt 0.890130 0.435846
vt 0.890130 0.434733
vt 0.930081 0.415964
vt 0.930081 0.417077
vt 0.893486 0.435846
vt 0.893486 0.434733
vt 0.933437 0.415964
vt 0.933437 0.417077
vt 0.896841 0.435846
vt 0.896841 0.434733
vt 0.936792 0.415964
vt 0.936792 0.417077
vt 0.900197 0.435846
vt 0.900197 0.434733
vt 0.940147 0.415964
vt 0.940147 0.417077
vt 0.903552 0.435846
vt 0.903552 0.434733
vt 0.889821 0.415964
vt 0.889821 0.417077
vt 0.906908 0.435846
vt 0.906908 0.434733
vt 0.893176 0.415964
vt 0.893176 0.417077
vt 0.910263 0.435846
vt 0.910263 0.434733
vt 0.896531 0.415964
vt 0.896531 0.417077
vt 0.913619 0.435846
vt 0.913619 0.434733
vt 0.899886 0.415964
vt 0.899886 0.417077
vt 0.751445 0.916968
vt 0.747103 0.916968
vt 0.747103 0.004883
vt 0.751445 0.004883
vt 0.742761 0.916968
vt 0.742761 0.004883
vt 0.738419 0.916968
vt 0.738419 0.004883
vt 0.734077 0.916968
vt 0.734077 0.004883
vt 0.803548 0.916968
vt 0.799206 0.916968
vt 0.799206 0.004883
vt 0.803548 0.004883
vt 0.794864 0.916968
vt 0.794864 0.004883
vt 0.790522 0.916968
vt 0.790522 0.004883
vt 0.786180 0.916968
vt 0.786180 0.004883
vt 0.781838 0.916968
vt 0.781839 0.004883
vt 0.777497 0.916968
vt 0.777497 0.004883
vt 0.773155 0.916968
vt 0.773155 0.004883
vt 0.768813 0.916968
vt 0.768813 0.004883
vt 0.764471 0.916968
vt 0.764471 0.004883
vt 0.760129 0.916968
vt 0.760129 0.004883
vt 0.755787 0.916968
vt 0.755787 0.004883
vt 0.706499 0.916991
vt 0.701557 0.916991
vt 0.701557 0.004884
vt 0.706500 0.004884
vt 0.696614 0.916991
vt 0.696614 0.004884
vt 0.691671 0.916991
vt 0.691671 0.004884
vt 0.686728 0.916991
vt 0.686728 0.004884
vt 0.681785 0.916991
vt 0.681785 0.004884
vt 0.676842 0.916991
vt 0.676843 0.004884
vt 0.671900 0.916991
vt 0.671900 0.004884
vt 0.666957 0.916991
vt 0.666957 0.004884
vt 0.662014 0.916991
vt 0.662014 0.004884
vt 0.657071 0.916991
vt 0.657071 0.004884
vt 0.652128 0.916991
vt 0.652128 0.004884
vt 0.647185 0.916991
vt 0.647185 0.004884
vt 0.726271 0.916991
vt 0.721328 0.916991
vt 0.721328 0.004884
vt 0.726271 0.004884
vt 0.716385 0.916991
vt 0.716386 0.004884
vt 0.711442 0.916991
vt 0.711443 0.004884
vt 0.910268 0.425846
vt 0.910268 0.424733
vt 0.913623 0.424733
vt 0.913623 0.425846
vt 0.903550 0.443527
vt 0.903550 0.442414
vt 0.906905 0.442414
vt 0.906905 0.443527
vt 0.906913 0.425846
vt 0.906913 0.424733
vt 0.910260 0.442414
vt 0.910260 0.443527
vt 0.903558 0.425846
vt 0.903558 0.424733
vt 0.913615 0.442414
vt 0.913615 0.443527
vt 0.900203 0.425846
vt 0.900203 0.424733
vt 0.916970 0.442414
vt 0.916970 0.443527
vt 0.896848 0.425846
vt 0.896848 0.424733
vt 0.920325 0.442414
vt 0.920325 0.443527
vt 0.893492 0.425846
vt 0.893492 0.424733
vt 0.923680 0.442414
vt 0.923680 0.443527
vt 0.890138 0.425846
vt 0.890138 0.424733
vt 0.927035 0.442414
vt 0.927035 0.443527
vt 0.940463 0.425846
vt 0.940463 0.424733
vt 0.930391 0.442414
vt 0.930391 0.443527
vt 0.937108 0.425846
vt 0.937108 0.424733
vt 0.933746 0.442414
vt 0.933746 0.443527
vt 0.933753 0.425846
vt 0.933753 0.424733
vt 0.937101 0.442414
vt 0.937101 0.443527
vt 0.930398 0.425846
vt 0.930398 0.424733
vt 0.940456 0.442414
vt 0.940456 0.443527
vt 0.927043 0.425846
vt 0.927043 0.424733
vt 0.890129 0.442414
vt 0.890129 0.443527
vt 0.923688 0.425846
vt 0.923688 0.424733
vt 0.893484 0.442414
vt 0.893484 0.443527
vt 0.920333 0.425846
vt 0.920333 0.424733
vt 0.896839 0.442414
vt 0.896839 0.443527
vt 0.916978 0.425846
vt 0.916978 0.424733
vt 0.900195 0.442414
vt 0.900195 0.443527
vt 0.004888 0.976982
vt 0.916902 0.976982
vt 0.916902 0.981324
vt 0.004888 0.981324
vt 0.916902 0.985666
vt 0.004888 0.985666
vt 0.916902 0.990007
vt 0.004888 0.990007
vt 0.916902 0.994349
vt 0.004888 0.994349
vt 0.004888 0.924884
vt 0.916902 0.924883
vt 0.916902 0.929225
vt 0.004888 0.929225
vt 0.916902 0.933567
vt 0.004888 0.933567
vt 0.916902 0.937908
vt 0.004888 0.937908
vt 0.916902 0.942250
vt 0.004888 0.942250
vt 0.916902 0.946591
vt 0.004888 0.946591
vt 0.916902 0.950933
vt 0.004888 0.950933
vt 0.916902 0.955274
vt 0.004888 0.955274
vt 0.916902 0.959616
vt 0.004888 0.959616
vt 0.916902 0.963958
vt 0.004888 0.963958
vt 0.916902 0.968299
vt 0.004888 0.968299
vt 0.916902 0.972641
vt 0.004888 0.972641
vt 0.938619 0.150745
vt 0.917141 0.150745
vt 0.917141 0.102923
vt 0.938619 0.102923
vt 0.992388 0.028172
vt 0.938619 0.028172
vt 0.938619 0.009494
vt 0.992388 0.009494
vt 0.102929 0.460908
vt 0.102929 0.916932
vt 0.055107 0.916932
vt 0.055107 0.460908
vt 0.938617 0.208885
vt 0.938617 0.213502
vt 0.911622 0.213732
vt 0.910658 0.208885
vt 0.992387 0.400363
vt 0.992387 0.404980
vt 0.938617 0.404979
vt 0.938617 0.400363
vt 0.898779 0.150745
vt 0.891051 0.150745
vt 0.891051 0.102923
vt 0.898779 0.102923
vt 0.938617 0.381685
vt 0.910658 0.395284
vt 0.907912 0.391174
vt 0.938617 0.354755
vt 0.850387 0.916940
vt 0.850387 0.460911
vt 0.858490 0.460911
vt 0.858490 0.916940
vt 0.992388 0.196351
vt 0.992388 0.200967
vt 0.938619 0.200967
vt 0.938619 0.196351
vt 0.196358 0.460908
vt 0.200975 0.460908
vt 0.200975 0.916932
vt 0.196358 0.916932
vt 0.898775 0.354755
vt 0.891047 0.354755
vt 0.891047 0.306932
vt 0.898775 0.306932
vt 0.150752 0.460908
vt 0.150752 0.916932
vt 0.291091 0.004883
vt 0.338913 0.004883
vt 0.338913 0.460905
vt 0.291091 0.460905
vt 0.868375 0.916940
vt 0.868375 0.460911
vt 0.873317 0.460911
vt 0.873317 0.916940
vt 0.903806 0.184417
vt 0.898958 0.183453
vt 0.498713 0.460896
vt 0.498713 0.916908
vt 0.470756 0.916908
vt 0.470862 0.460896
vt 0.836075 0.004883
vt 0.836075 0.460892
vt 0.831133 0.460892
vt 0.831133 0.004883
vt 0.831133 0.916901
vt 0.826190 0.916901
vt 0.826190 0.460892
vt 0.907916 0.187163
vt 0.102929 0.004883
vt 0.150752 0.004883
vt 0.992388 0.177673
vt 0.938619 0.177673
vt 0.863432 0.460911
vt 0.863432 0.916940
vt 0.903806 0.021428
vt 0.917141 0.055101
vt 0.898779 0.055101
vt 0.898958 0.022393
vt 0.917138 0.259109
vt 0.917138 0.306932
vt 0.898775 0.259109
vt 0.836075 0.916901
vt 0.826190 0.004883
vt 0.868375 0.004883
vt 0.873317 0.004883
vt 0.910661 0.200967
vt 0.911626 0.196120
vt 0.910661 0.191272
vt 0.028178 0.916932
vt 0.028178 0.460908
vt 0.938619 0.004878
vt 0.992388 0.004878
vt 0.177681 0.460908
vt 0.177681 0.916932
vt 0.992388 0.150745
vt 0.938617 0.259109
vt 0.903802 0.225436
vt 0.907912 0.222690
vt 0.858490 0.004883
vt 0.863432 0.004883
vt 0.903802 0.388429
vt 0.898955 0.387464
vt 0.917138 0.354755
vt 0.992387 0.232180
vt 0.938617 0.232180
vt 0.992387 0.213502
vt 0.910658 0.218580
vt 0.821248 0.916901
vt 0.816306 0.916901
vt 0.816306 0.460892
vt 0.821248 0.460892
vt 0.821248 0.004883
vt 0.816306 0.004883
vt 0.177681 0.004883
vt 0.028178 0.004883
vt 0.055107 0.004883
vt 0.196358 0.004883
vt 0.992387 0.259109
vt 0.291091 0.916926
vt 0.243268 0.916926
vt 0.243268 0.460905
vt 0.009500 0.916932
vt 0.009500 0.460908
vt 0.004883 0.460908
vt 0.004883 0.004883
vt 0.009500 0.004883
vt 0.938619 0.055101
vt 0.470756 0.004883
vt 0.498713 0.004883
vt 0.938617 0.306932
vt 0.992388 0.102923
vt 0.850387 0.004883
vt 0.992387 0.208885
vt 0.891047 0.259109
vt 0.992387 0.381685
vt 0.898955 0.226400
vt 0.811363 0.916901
vt 0.811383 0.460892
vt 0.200975 0.004883
vt 0.992387 0.306932
vt 0.992388 0.055101
vt 0.891051 0.185220
vt 0.434976 0.460896
vt 0.462828 0.460896
vt 0.462933 0.916908
vt 0.434976 0.916908
vt 0.208792 0.916926
vt 0.208792 0.460905
vt 0.844178 0.916901
vt 0.844178 0.460892
vt 0.381208 0.916908
vt 0.381208 0.460896
vt 0.891051 0.055101
vt 0.338913 0.916926
vt 0.373389 0.460905
vt 0.373389 0.916926
vt 0.891047 0.224632
vt 0.907916 0.018682
vt 0.910661 0.014573
vt 0.992387 0.354755
vt 0.911626 0.009725
vt 0.910661 0.004878
vt 0.891047 0.389232
vt 0.878260 0.004883
vt 0.883203 0.004883
vt 0.883183 0.460911
vt 0.878260 0.460911
vt 0.434976 0.004884
vt 0.462933 0.004884
vt 0.891051 0.020625
vt 0.552481 0.916908
vt 0.552481 0.460896
vt 0.381208 0.004884
vt 0.243268 0.004883
vt 0.911622 0.400132
vt 0.552481 0.004883
vt 0.878260 0.916940
vt 0.883203 0.916940
vt 0.373389 0.004883
vt 0.811363 0.004883
vt 0.004883 0.916932
vt 0.844178 0.004883
vt 0.910658 0.404979
vt 0.208792 0.004883
s 1
f 33/1/1 36/2/1 35/3/2 34/4/2
f 34/4/2 35/3/2 38/5/3 37/6/3
f 37/6/3 38/5/3 40/7/4 39/8/4
f 39/8/4 40/7/4 42/9/5 41/10/5
f 41/10/5 42/9/5 44/11/6 43/12/6
f 43/12/6 44/11/6 46/13/7 45/14/7
f 45/14/7 46/13/7 48/15/8 47/16/8
f 47/16/8 48/15/8 50/17/9 49/18/9
f 49/18/9 50/17/9 52/19/10 51/20/10
f 51/20/10 52/19/10 54/21/11 53/22/11
f 53/22/11 54/21/11 56/23/12 55/24/12
f 55/24/12 56/23/12 58/25/13 57/26/13
f 57/27/13 58/28/13 60/29/14 59/30/14
f 59/30/14 60/29/14 62/31/15 61/32/15
f 61/32/15 62/31/15 64/33/16 63/34/16
f 63/34/16 64/33/16 36/2/1 33/1/1
f 3/35/17 1/36/17 33/37/17 34/38/17
f 2/39/18 4/40/18 35/41/18 36/42/18
f 5/43/17 3/35/17 34/38/17 37/44/17
f 4/40/18 6/45/18 38/46/18 35/41/18
f 7/47/17 5/43/17 37/44/17 39/48/17
f 6/45/18 8/49/18 40/50/18 38/46/18
f 9/51/17 7/47/17 39/48/17 41/52/17
f 8/49/18 10/53/18 42/54/18 40/50/18
f 11/55/17 9/51/17 41/52/17 43/56/17
f 10/53/18 12/57/18 44/58/18 42/54/18
f 13/59/17 11/55/17 43/56/17 45/60/17
f 12/57/18 14/61/18 46/62/18 44/58/18
f 15/63/17 13/59/17 45/60/17 47/64/17
f 14/61/18 16/65/18 48/66/18 46/62/18
f 17/67/17 15/63/17 47/64/17 49/68/17
f 16/65/18 18/69/18 50/70/18 48/66/18
f 19/71/17 17/67/17 49/68/17 51/72/17
f 18/69/18 20/73/18 52/74/18 50/70/18
f 21/75/17 19/71/17 51/72/17 53/76/17
f 20/73/18 22/77/18 54/78/18 52/74/18
f 23/79/17 21/75/17 53/76/17 55/80/17
f 22/77/18 24/81/18 56/82/18 54/78/18
f 25/83/17 23/79/17 55/80/17 57/84/17
f 24/81/18 26/85/18 58/86/18 56/82/18
f 27/87/17 25/83/17 57/84/17 59/88/17
f 26/85/18 28/89/18 60/90/18 58/86/18
f 29/91/17 27/87/17 59/88/17 61/92/17
f 28/89/18 30/93/18 62/94/18 60/90/18
f 31/95/17 29/91/17 61/92/17 63/96/17
f 30/93/18 32/97/18 64/98/18 62/94/18
f 1/36/17 31/95/17 63/96/17 33/37/17
f 32/97/18 2/39/18 36/42/18 64/98/18
f 2/99/9 32/100/8 31/101/8 1/102/9
f 32/100/8 30/103/7 29/104/7 31/101/8
f 30/103/7 28/105/6 27/106/6 29/104/7
f 28/105/6 26/107/5 25/108/5 27/106/6
f 26/109/5 24/110/4 23/111/4 25/112/5
f 24/110/4 22/113/3 21/114/3 23/111/4
f 22/113/3 20/115/2 19/116/2 21/114/3
f 20/115/2 18/117/1 17/118/1 19/116/2
f 18/117/1 16/119/16 15/120/16 17/118/1
f 16/119/16 14/121/15 13/122/15 15/120/16
f 14/121/15 12/123/14 11/124/14 13/122/15
f 12/123/14 10/125/13 9/126/13 11/124/14
f 10/125/13 8/127/12 7/128/12 9/126/13
f 8/127/12 6/129/11 5/130/11 7/128/12
f 6/129/11 4/131/10 3/132/10 5/130/11
f 4/131/10 2/99/9 1/102/9 3/132/10
f 97/133/9 98/134/8 99/135/8 100/136/9
f 98/134/8 101/137/7 102/138/7 99/135/8
f 101/137/7 103/139/6 104/140/6 102/138/7
f 103/139/6 105/141/5 106/142/5 104/140/6
f 105/141/5 107/143/4 108/144/4 106/142/5
f 107/143/4 109/145/3 110/146/3 108/144/4
f 109/145/3 111/147/2 112/148/2 110/146/3
f 111/147/2 113/149/1 114/150/1 112/148/2
f 113/149/1 115/151/16 116/152/16 114/150/1
f 115/151/16 117/153/15 118/154/15 116/152/16
f 117/153/15 119/155/14 120/156/14 118/154/15
f 119/155/14 121/157/13 122/158/13 120/156/14
f 121/159/13 123/160/12 124/161/12 122/162/13
f 123/160/12 125/163/11 126/164/11 124/161/12
f 125/163/11 127/165/10 128/166/10 126/164/11
f 127/165/10 97/133/9 100/136/9 128/166/10
f 67/167/17 98/168/17 97/169/17 65/170/17
f 66/171/18 100/172/18 99/173/18 68/174/18
f 69/175/17 101/176/17 98/168/17 67/167/17
f 68/174/18 99/173/18 102/177/18 70/178/18
f 71/179/17 103/180/17 101/176/17 69/175/17
f 70/178/18 102/177/18 104/181/18 72/182/18
f 73/183/17 105/184/17 103/180/17 71/179/17
f 72/182/18 104/181/18 106/185/18 74/186/18
f 75/187/17 107/188/17 105/184/17 73/183/17
f 74/186/18 106/185/18 108/189/18 76/190/18
f 77/191/17 109/192/17 107/188/17 75/187/17
f 76/190/18 108/189/18 110/193/18 78/194/18
f 79/195/17 111/196/17 109/192/17 77/191/17
f 78/194/18 110/193/18 112/197/18 80/198/18
f 81/199/17 113/200/17 111/196/17 79/195/17
f 80/198/18 112/197/18 114/201/18 82/202/18
f 83/203/17 115/204/17 113/200/17 81/199/17
f 82/202/18 114/201/18 116/205/18 84/206/18
f 85/207/17 117/208/17 115/204/17 83/203/17
f 84/206/18 116/205/18 118/209/18 86/210/18
f 87/211/17 119/212/17 117/208/17 85/207/17
f 86/210/18 118/209/18 120/213/18 88/214/18
f 89/215/17 121/216/17 119/212/17 87/211/17
f 88/214/18 120/213/18 122/217/18 90/218/18
f 91/219/17 123/220/17 121/216/17 89/215/17
f 90/218/18 122/217/18 124/221/18 92/222/18
f 93/223/17 125/224/17 123/220/17 91/219/17
f 92/222/18 124/221/18 126/225/18 94/226/18
f 95/227/17 127/228/17 125/224/17 93/223/17
f 94/226/18 126/225/18 128/229/18 96/230/18
f 65/170/17 97/169/17 127/228/17 95/227/17
f 96/230/18 128/229/18 100/172/18 66/171/18
f 66/231/1 65/232/1 95/233/2 96/234/2
f 96/234/2 95/233/2 93/235/3 94/236/3
f 94/236/3 93/235/3 91/237/4 92/238/4
f 92/238/4 91/237/4 89/239/5 90/240/5
f 90/241/5 89/242/5 87/243/6 88/244/6
f 88/244/6 87/243/6 85/245/7 86/246/7
f 86/246/7 85/245/7 83/247/8 84/248/8
f 84/248/8 83/247/8 81/249/9 82/250/9
f 82/250/9 81/249/9 79/251/10 80/252/10
f 80/252/10 79/251/10 77/253/11 78/254/11
f 78/254/11 77/253/11 75/255/12 76/256/12
f 76/256/12 75/255/12 73/257/13 74/258/13
f 74/258/13 73/257/13 71/259/14 72/260/14
f 72/260/14 71/259/14 69/261/15 70/262/15
f 70/262/15 69/261/15 67/263/16 68/264/16
f 68/264/16 67/263/16 65/232/1 66/231/1
f 164/265/18 173/266/18 172/267/18 155/268/18
f 213/269/18 215/270/18 214/271/18 212/272/18
f 195/273/13 149/274/13 207/275/13 225/276/13
f 168/277/17 202/278/17 152/279/17 145/280/17
f 235/281/17 132/282/17 229/283/17 237/284/17
f 174/285/18 161/286/18 151/287/18 171/288/18
f 238/289/17 179/290/17 176/291/17 232/292/17
f 133/293/19 217/294/19 218/295/20 153/296/20
f 177/297/18 129/298/18 157/299/18 183/300/18
f 204/301/13 187/302/13 129/303/13 177/304/13
f 234/305/17 231/306/17 158/307/17 181/308/17
f 195/273/13 199/309/13 159/310/13 149/274/13
f 158/311/5 231/312/5 226/313/5 196/314/5
f 165/315/3 220/316/3 221/317/4 166/318/4
f 138/319/18 137/320/18 174/285/18 173/266/18
f 224/321/1 206/322/1 134/323/1 223/324/1
f 146/325/21 189/326/21 190/327/8 147/328/8
f 138/329/8 139/330/7 191/331/7 190/327/8
f 164/265/18 139/332/18 138/319/18 173/266/18
f 195/273/13 156/333/13 169/334/13 199/309/13
f 178/335/18 177/297/18 183/300/18 184/336/18
f 153/296/20 218/295/20 219/337/2 154/338/2
f 154/339/18 210/340/18 211/341/18 153/342/18
f 185/343/17 182/344/17 181/308/17 186/345/17
f 137/346/21 138/329/8 190/327/8 189/326/21
f 147/328/8 190/327/8 191/331/7 148/347/7
f 176/348/3 179/349/4 221/317/4 220/316/3
f 173/266/18 174/285/18 171/288/18 172/267/18
f 157/299/18 136/350/18 141/351/18 183/300/18
f 183/300/18 141/351/18 140/352/18 184/336/18
f 225/276/13 207/275/13 213/353/13 227/354/13
f 212/272/18 214/271/18 206/355/18 130/356/18
f 203/357/13 204/301/13 177/304/13 178/358/13
f 199/309/13 203/357/13 178/358/13 159/310/13
f 159/359/18 178/335/18 184/336/18 164/265/18
f 184/336/18 140/352/18 139/332/18 164/265/18
f 175/360/17 185/343/17 147/361/17 148/362/17
f 160/363/20 162/364/2 219/337/2 218/295/20
f 162/365/17 160/366/17 234/305/17 233/367/17
f 201/368/17 205/369/17 202/278/17 197/370/17
f 205/369/17 175/360/17 148/362/17 150/371/17
f 140/372/6 141/373/22 193/374/23 192/375/6
f 139/330/7 140/372/6 192/375/6 191/331/7
f 150/376/6 192/375/6 193/374/23 152/377/24
f 199/309/13 169/334/13 201/378/13 203/357/13
f 225/276/13 227/354/13 236/379/13 230/380/13
f 202/278/17 205/369/17 150/371/17 152/279/17
f 203/357/13 201/378/13 197/381/13 204/301/13
f 169/382/17 175/360/17 205/369/17 201/368/17
f 151/383/5 161/384/5 200/385/5 196/314/5
f 227/354/13 213/353/13 212/386/13 228/387/13
f 228/387/13 216/388/13 132/389/13 235/390/13
f 209/391/18 155/268/18 172/267/18 210/340/18
f 224/321/1 223/324/1 143/392/1 229/393/1
f 232/292/17 233/367/17 182/344/17 163/394/17
f 149/395/18 159/359/18 164/265/18 155/268/18
f 142/396/19 160/363/20 218/295/20 217/294/19
f 197/370/17 202/278/17 168/277/17 131/397/17
f 186/345/17 181/308/17 158/307/17 170/398/17
f 195/273/13 225/276/13 230/380/13 156/333/13
f 236/399/17 235/281/17 237/284/17 238/289/17
f 147/361/17 185/343/17 186/345/17 146/400/17
f 175/360/17 163/394/17 182/344/17 185/343/17
f 141/373/22 136/401/25 194/402/26 193/374/23
f 204/301/13 197/381/13 131/403/13 187/302/13
f 156/404/17 163/394/17 175/360/17 169/382/17
f 207/405/18 209/391/18 215/270/18 213/269/18
f 137/320/18 135/406/18 161/286/18 174/285/18
f 198/407/9 194/408/9 136/409/9 157/410/9
f 161/384/5 135/411/5 188/412/5 200/385/5
f 135/413/27 137/346/21 189/326/21 188/414/27
f 129/415/9 187/416/9 198/407/9 157/410/9
f 211/341/18 171/288/18 151/287/18 208/417/18
f 227/354/13 228/387/13 235/390/13 236/379/13
f 208/418/5 226/313/5 217/419/5 133/420/5
f 146/400/17 186/345/17 170/398/17 144/421/17
f 162/364/2 176/348/3 220/316/3 219/337/2
f 215/270/18 209/391/18 165/422/18 166/423/18
f 232/292/17 176/291/17 162/365/17 233/367/17
f 209/391/18 210/340/18 154/339/18 165/422/18
f 230/424/17 236/399/17 238/289/17 232/292/17
f 154/338/2 219/337/2 220/316/3 165/315/3
f 206/355/18 214/271/18 167/425/18 134/426/18
f 160/366/17 142/427/17 231/306/17 234/305/17
f 180/428/28 143/429/29 223/430/30 222/431/31
f 214/271/18 215/270/18 166/423/18 167/425/18
f 198/407/9 168/432/9 145/433/9 194/408/9
f 153/342/18 211/341/18 208/417/18 133/434/18
f 130/435/1 206/322/1 224/321/1 216/436/1
f 131/437/9 168/432/9 198/407/9 187/416/9
f 210/340/18 172/267/18 171/288/18 211/341/18
f 158/311/5 196/314/5 200/385/5 170/438/5
f 148/347/7 191/331/7 192/375/6 150/376/6
f 237/284/17 180/439/17 179/290/17 238/289/17
f 151/383/5 196/314/5 226/313/5 208/418/5
f 233/367/17 234/305/17 181/308/17 182/344/17
f 132/440/1 216/436/1 224/321/1 229/393/1
f 156/404/17 230/424/17 232/292/17 163/394/17
f 166/318/4 221/317/4 222/431/31 167/441/32
f 167/441/32 222/431/31 223/430/30 134/442/33
f 231/312/5 142/443/5 217/419/5 226/313/5
f 179/349/4 180/428/28 222/431/31 221/317/4
f 152/377/24 193/374/23 194/402/26 145/444/34
f 228/387/13 212/386/13 130/445/13 216/388/13
f 149/395/18 155/268/18 209/391/18 207/405/18
f 144/446/27 188/414/27 189/326/21 146/325/21
f 229/283/17 143/447/17 180/439/17 237/284/17
f 170/438/5 200/385/5 188/412/5 144/448/5
