# Blender 4.0.2
# www.blender.org
o candy_cane
v -0.000000 0.081179 -0.004412
v -0.003110 0.081155 -0.003130
v -0.004413 0.081095 -0.000021
v -0.003131 0.081032 0.003109
v -0.000000 0.081005 0.004411
v 0.003131 0.081032 0.003109
v 0.004413 0.081095 -0.000021
v 0.003110 0.081155 -0.003130
v 0.003121 0.002450 -0.003121
v 0.004414 0.002450 0.000000
v 0.003121 0.002450 0.003121
v 0.000000 0.002450 0.004414
v -0.003121 0.002450 0.003121
v -0.004414 0.002450 -0.000000
v -0.003121 0.002450 -0.003121
v 0.000000 0.002450 -0.004414
v 0.003105 0.071393 0.032630
v 0.004391 0.071256 0.029528
v 0.003105 0.071120 0.026426
v -0.000000 0.071063 0.025142
v -0.003105 0.071120 0.026426
v -0.004391 0.071256 0.029528
v -0.003105 0.071393 0.032630
v -0.000000 0.071449 0.033915
v -0.000000 0.081365 0.033500
v -0.003110 0.081285 0.032220
v -0.004413 0.081088 0.029118
v -0.003132 0.080885 0.025994
v -0.000000 0.080798 0.024693
v 0.003132 0.080885 0.025994
v 0.004413 0.081088 0.029118
v 0.003110 0.081285 0.032220
v -0.000000 0.084817 0.033004
v -0.003104 0.084558 0.031754
v -0.004413 0.083926 0.028715
v -0.003136 0.083283 0.025644
v -0.000000 0.083013 0.024364
v 0.003136 0.083283 0.025644
v 0.004413 0.083926 0.028715
v 0.003104 0.084558 0.031754
v -0.000000 0.088324 0.031937
v -0.003100 0.087837 0.030761
v -0.004413 0.086651 0.027898
v -0.003142 0.085449 0.024996
v -0.000000 0.084946 0.023782
v 0.003142 0.085449 0.024996
v 0.004413 0.086651 0.027898
v 0.003100 0.087837 0.030761
v -0.000000 0.091590 0.030191
v -0.003100 0.090884 0.029133
v -0.004413 0.089162 0.026556
v -0.003142 0.087417 0.023944
v -0.000000 0.086686 0.022851
v 0.003142 0.087417 0.023944
v 0.004413 0.089162 0.026556
v 0.003100 0.090884 0.029133
v -0.000000 0.094454 0.027841
v -0.003100 0.093554 0.026941
v -0.004413 0.091363 0.024750
v -0.003142 0.089141 0.022529
v -0.000000 0.088212 0.021599
v 0.003142 0.089141 0.022529
v 0.004413 0.091363 0.024750
v 0.003100 0.093554 0.026941
v -0.000000 0.096803 0.024978
v -0.003100 0.095746 0.024271
v -0.004413 0.093169 0.022549
v -0.003142 0.090557 0.020804
v -0.000000 0.089464 0.020074
v 0.003142 0.090557 0.020804
v 0.004413 0.093169 0.022549
v 0.003100 0.095746 0.024271
v -0.000000 0.098549 0.021711
v -0.003100 0.097374 0.021224
v -0.004413 0.094511 0.020038
v -0.003142 0.091609 0.018836
v -0.000000 0.090394 0.018333
v 0.003142 0.091609 0.018836
v 0.004413 0.094511 0.020038
v 0.003100 0.097374 0.021224
v -0.000000 0.099625 0.018167
v -0.003100 0.098377 0.017919
v -0.004413 0.095337 0.017314
v -0.003142 0.092256 0.016701
v -0.000000 0.090967 0.016445
v 0.003142 0.092256 0.016701
v 0.004413 0.095337 0.017314
v 0.003100 0.098377 0.017919
v -0.000000 0.099988 0.014481
v -0.003100 0.098715 0.014481
v -0.004413 0.095616 0.014481
v -0.003142 0.092475 0.014481
v -0.000000 0.091160 0.014481
v 0.003142 0.092475 0.014481
v 0.004413 0.095616 0.014481
v 0.003100 0.098715 0.014481
v -0.000000 0.099625 0.010795
v -0.003100 0.098377 0.011043
v -0.004413 0.095337 0.011647
v -0.003142 0.092256 0.012260
v -0.000000 0.090967 0.012517
v 0.003142 0.092256 0.012260
v 0.004413 0.095337 0.011647
v 0.003100 0.098377 0.011043
v -0.000000 0.098549 0.007250
v -0.003100 0.097374 0.007737
v -0.004413 0.094511 0.008923
v -0.003142 0.091609 0.010125
v -0.000000 0.090394 0.010628
v 0.003142 0.091609 0.010125
v 0.004413 0.094511 0.008923
v 0.003100 0.097374 0.007737
v -0.000000 0.096803 0.003984
v -0.003100 0.095746 0.004690
v -0.004413 0.093169 0.006412
v -0.003142 0.090557 0.008157
v -0.000000 0.089464 0.008888
v 0.003142 0.090557 0.008157
v 0.004413 0.093169 0.006412
v 0.003100 0.095746 0.004690
v -0.000000 0.094454 0.001120
v -0.003100 0.093554 0.002020
v -0.004413 0.091363 0.004211
v -0.003142 0.089141 0.006433
v -0.000000 0.088212 0.007362
v 0.003142 0.089141 0.006433
v 0.004413 0.091363 0.004211
v 0.003100 0.093554 0.002020
v -0.000000 0.091590 -0.001229
v -0.003100 0.090884 -0.000171
v -0.004413 0.089162 0.002405
v -0.003142 0.087417 0.005017
v -0.000000 0.086686 0.006110
v 0.003142 0.087417 0.005017
v 0.004413 0.089162 0.002405
v 0.003100 0.090884 -0.000171
v -0.000000 0.088324 -0.002975
v -0.003100 0.087837 -0.001800
v -0.004413 0.086651 0.001063
v -0.003142 0.085449 0.003965
v -0.000000 0.084946 0.005180
v 0.003142 0.085449 0.003965
v 0.004413 0.086651 0.001063
v 0.003100 0.087837 -0.001800
v -0.000000 0.084779 -0.004051
v -0.003100 0.084531 -0.002803
v -0.004413 0.083927 0.000237
v -0.003142 0.083314 0.003318
v -0.000000 0.083057 0.004607
v 0.003142 0.083314 0.003318
v 0.004413 0.083927 0.000237
v 0.003100 0.084531 -0.002803
v 0.002505 0.069031 0.032134
v 0.003543 0.068921 0.029631
v 0.002505 0.068811 0.027128
v -0.000000 0.068766 0.026092
v -0.002505 0.068811 0.027128
v -0.003543 0.068921 0.029631
v -0.002505 0.069031 0.032134
v -0.000000 0.069077 0.033170
v 0.001195 0.067596 0.030885
v 0.001663 0.067531 0.029692
v 0.001195 0.067491 0.028498
v -0.000000 0.067458 0.028031
v -0.001195 0.067491 0.028498
v -0.001663 0.067531 0.029692
v -0.001195 0.067596 0.030885
v -0.000000 0.067604 0.031353
v -0.000000 0.067239 0.029705
v 0.000000 0.000000 0.000000
v 0.003617 0.000763 0.000000
v 0.002356 0.000000 0.000000
v 0.001666 0.000000 -0.001666
v 0.002558 0.000763 -0.002558
v 0.002558 0.000763 0.002558
v 0.001666 0.000000 0.001666
v 0.000000 0.000763 0.003617
v -0.000000 0.000000 0.002356
v -0.002558 0.000763 0.002558
v -0.001666 0.000000 0.001666
v -0.003617 0.000763 -0.000000
v -0.002356 0.000000 -0.000000
v -0.002558 0.000763 -0.002558
v -0.001666 0.000000 -0.001666
v 0.000000 0.000000 -0.002356
v 0.000000 0.000763 -0.003617
vn -0.6992 0.0353 -0.7141
vn -0.0000 0.0491 -0.9988
vn -0.0000 -0.2081 -0.9781
vn -0.6911 -0.2081 -0.6922
vn 0.9999 0.0013 -0.0152
vn 0.7142 -0.0331 0.6991
vn 0.6921 -0.2081 0.6911
vn 0.9781 -0.2081 -0.0011
vn -0.0000 -0.0473 0.9989
vn -0.0000 -0.2081 0.9781
vn -0.7142 -0.0331 0.6991
vn -0.9999 0.0013 -0.0152
vn -0.9781 -0.2081 -0.0011
vn -0.6921 -0.2081 0.6911
vn 0.6992 0.0353 -0.7141
vn 0.6911 -0.2081 -0.6922
vn -0.0000 0.0915 0.9958
vn -0.6994 0.0655 0.7118
vn -0.6967 -0.1368 0.7042
vn -0.0000 -0.1241 0.9923
vn -0.9999 0.0006 0.0157
vn -0.9859 -0.1674 0.0082
vn 0.7151 -0.0673 -0.6957
vn 0.9999 0.0006 0.0157
vn 0.9859 -0.1674 0.0082
vn 0.6975 -0.1979 -0.6887
vn -0.0000 -0.0964 -0.9953
vn -0.0000 -0.2105 -0.9776
vn -0.7151 -0.0673 -0.6957
vn -0.6975 -0.1979 -0.6887
vn 0.6994 0.0655 0.7118
vn 0.6967 -0.1368 0.7042
vn -0.0000 0.2167 0.9762
vn -0.6947 0.1561 0.7022
vn -0.9997 0.0055 0.0239
vn -0.7190 -0.1512 -0.6784
vn -0.0000 -0.2179 -0.9760
vn 0.7190 -0.1512 -0.6784
vn 0.9997 0.0055 0.0239
vn 0.6947 0.1561 0.7022
vn -0.0000 0.3829 0.9238
vn -0.6916 0.2765 0.6673
vn -0.9995 0.0123 0.0296
vn -0.7237 -0.2635 -0.6378
vn -0.0000 -0.3816 -0.9243
vn 0.7237 -0.2635 -0.6378
vn 0.9995 0.0123 0.0296
vn 0.6916 0.2765 0.6673
vn -0.0000 0.5556 0.8315
vn -0.6914 0.4014 0.6007
vn -0.9995 0.0178 0.0267
vn -0.7235 -0.3835 -0.5740
vn -0.0000 -0.5556 -0.8315
vn 0.7235 -0.3835 -0.5740
vn 0.9995 0.0178 0.0267
vn 0.6914 0.4014 0.6007
vn -0.0000 0.7071 0.7071
vn -0.6914 0.5109 0.5109
vn -0.9995 0.0227 0.0227
vn -0.7235 -0.4881 -0.4881
vn -0.0000 -0.7071 -0.7071
vn 0.7235 -0.4881 -0.4881
vn 0.9995 0.0227 0.0227
vn 0.6914 0.5109 0.5109
vn -0.0000 0.8315 0.5556
vn -0.6914 0.6007 0.4014
vn -0.9995 0.0267 0.0178
vn -0.7235 -0.5740 -0.3835
vn -0.0000 -0.8315 -0.5556
vn 0.7235 -0.5740 -0.3835
vn 0.9995 0.0267 0.0178
vn 0.6914 0.6007 0.4014
vn -0.0000 0.9239 0.3827
vn -0.6914 0.6675 0.2765
vn -0.9995 0.0296 0.0123
vn -0.7235 -0.6378 -0.2642
vn -0.0000 -0.9239 -0.3827
vn 0.7235 -0.6378 -0.2642
vn 0.9995 0.0296 0.0123
vn 0.6914 0.6675 0.2765
vn -0.0000 0.9808 0.1951
vn -0.6914 0.7086 0.1409
vn -0.9995 0.0315 0.0063
vn -0.7235 -0.6771 -0.1347
vn -0.0000 -0.9808 -0.1951
vn 0.7235 -0.6771 -0.1347
vn 0.9995 0.0315 0.0063
vn 0.6914 0.7086 0.1409
vn -0.0000 1.0000 -0.0000
vn -0.6914 0.7225 -0.0000
vn -0.9995 0.0321 -0.0000
vn -0.7235 -0.6903 -0.0000
vn -0.0000 -1.0000 -0.0000
vn 0.7235 -0.6903 -0.0000
vn 0.9995 0.0321 -0.0000
vn 0.6914 0.7225 -0.0000
vn -0.0000 0.9808 -0.1951
vn -0.6914 0.7086 -0.1409
vn -0.9995 0.0315 -0.0063
vn -0.7235 -0.6771 0.1347
vn -0.0000 -0.9808 0.1951
vn 0.7235 -0.6771 0.1347
vn 0.9995 0.0315 -0.0063
vn 0.6914 0.7086 -0.1409
vn -0.0000 0.9239 -0.3827
vn -0.6914 0.6675 -0.2765
vn -0.9995 0.0296 -0.0123
vn -0.7235 -0.6378 0.2642
vn -0.0000 -0.9239 0.3827
vn 0.7235 -0.6378 0.2642
vn 0.9995 0.0296 -0.0123
vn 0.6914 0.6675 -0.2765
vn -0.0000 0.8315 -0.5556
vn -0.6914 0.6007 -0.4014
vn -0.9995 0.0267 -0.0178
vn -0.7235 -0.5740 0.3835
vn -0.0000 -0.8315 0.5556
vn 0.7235 -0.5740 0.3835
vn 0.9995 0.0267 -0.0178
vn 0.6914 0.6007 -0.4014
vn -0.0000 0.7071 -0.7071
vn -0.6914 0.5109 -0.5109
vn -0.9995 0.0227 -0.0227
vn -0.7235 -0.4881 0.4881
vn -0.0000 -0.7071 0.7071
vn 0.7235 -0.4881 0.4881
vn 0.9995 0.0227 -0.0227
vn 0.6914 0.5109 -0.5109
vn -0.0000 0.5556 -0.8315
vn -0.6914 0.4014 -0.6007
vn -0.9995 0.0178 -0.0267
vn -0.7235 -0.3835 0.5740
vn -0.0000 -0.5556 0.8315
vn 0.7235 -0.3835 0.5740
vn 0.9995 0.0178 -0.0267
vn 0.6914 0.4014 -0.6007
vn -0.0000 0.3827 -0.9239
vn -0.6914 0.2765 -0.6675
vn -0.9995 0.0123 -0.0296
vn -0.7235 -0.2642 0.6378
vn -0.0000 -0.3827 0.9239
vn 0.7235 -0.2642 0.6378
vn 0.9995 0.0123 -0.0296
vn 0.6914 0.2765 -0.6675
vn -0.0000 0.1955 -0.9807
vn -0.6917 0.1411 -0.7083
vn -0.9995 0.0064 -0.0313
vn -0.7238 -0.1335 0.6770
vn -0.0000 -0.1930 0.9812
vn 0.7238 -0.1335 0.6770
vn 0.9995 0.0064 -0.0313
vn 0.6917 0.1411 -0.7083
vn -0.5830 -0.5909 -0.5576
vn -0.8247 -0.5650 0.0248
vn 0.5830 -0.5909 -0.5576
vn -0.0000 -0.6012 -0.7991
vn 0.5830 -0.5397 0.6073
vn 0.8247 -0.5650 0.0248
vn -0.5830 -0.5397 0.6073
vn -0.0000 -0.5287 0.8488
vn 0.3150 -0.9083 -0.2753
vn -0.0000 -0.9240 -0.3823
vn 0.3150 -0.8806 0.3540
vn 0.4225 -0.9055 0.0398
vn -0.3150 -0.8806 0.3540
vn -0.0000 -0.8869 0.4620
vn -0.4225 -0.9055 0.0398
vn -0.3150 -0.9083 -0.2753
vn -0.0000 -0.9990 0.0439
vn -0.7714 -0.6363 -0.0000
vn -0.5455 -0.6363 0.5455
vn -0.0000 -0.6363 0.7714
vn 0.5455 -0.6363 -0.5455
vn -0.0000 -0.6363 -0.7714
vn -0.5455 -0.6363 -0.5455
vn -0.0000 -0.9445 -0.3285
vn -0.3285 -0.9445 -0.0000
vn -0.2323 -0.9445 -0.2323
vn -0.0000 -0.9445 0.3285
vn -0.2323 -0.9445 0.2323
vn 0.3285 -0.9445 -0.0000
vn 0.2323 -0.9445 0.2323
vn 0.5455 -0.6363 0.5455
vn 0.7714 -0.6363 -0.0000
vn 0.2323 -0.9445 -0.2323
vt 0.415156 0.129815
vt 0.415156 0.105105
vt 0.994399 0.105105
vt 0.994399 0.129815
vt 0.415156 0.055592
vt 0.415156 0.030650
vt 0.994399 0.030650
vt 0.994399 0.055592
vt 0.415156 0.005601
vt 0.994399 0.005601
vt 0.415156 0.179559
vt 0.415156 0.154617
vt 0.994399 0.154617
vt 0.994399 0.179559
vt 0.415156 0.080394
vt 0.994399 0.080394
vt 0.415156 0.204608
vt 0.994399 0.204608
vt 0.078071 0.105105
vt 0.078071 0.129815
vt 0.005601 0.129815
vt 0.005601 0.105105
vt 0.078071 0.154617
vt 0.005601 0.154617
vt 0.078071 0.030650
vt 0.078071 0.055592
vt 0.005601 0.055592
vt 0.005601 0.030650
vt 0.078071 0.005601
vt 0.005601 0.005601
vt 0.078071 0.179559
vt 0.078071 0.204608
vt 0.005601 0.204608
vt 0.005601 0.179559
vt 0.078071 0.080394
vt 0.005601 0.080394
vt 0.099535 0.105105
vt 0.099535 0.129815
vt 0.099535 0.154617
vt 0.099535 0.179559
vt 0.099535 0.204608
vt 0.099535 0.005601
vt 0.099535 0.030650
vt 0.099535 0.055592
vt 0.099535 0.080394
vt 0.120958 0.105105
vt 0.120958 0.129815
vt 0.120958 0.154617
vt 0.120958 0.179559
vt 0.120958 0.204608
vt 0.120958 0.005601
vt 0.120958 0.030650
vt 0.120958 0.055592
vt 0.120958 0.080394
vt 0.142400 0.105105
vt 0.142400 0.129815
vt 0.142400 0.154617
vt 0.142400 0.179559
vt 0.142400 0.204608
vt 0.142400 0.005601
vt 0.142400 0.030650
vt 0.142400 0.055592
vt 0.142400 0.080394
vt 0.163843 0.105105
vt 0.163843 0.129815
vt 0.163843 0.154617
vt 0.163843 0.179559
vt 0.163843 0.204608
vt 0.163843 0.005601
vt 0.163843 0.030650
vt 0.163843 0.055592
vt 0.163843 0.080394
vt 0.185285 0.105105
vt 0.185285 0.129815
vt 0.185285 0.154617
vt 0.185285 0.179559
vt 0.185285 0.204608
vt 0.185285 0.005601
vt 0.185285 0.030650
vt 0.185285 0.055592
vt 0.185285 0.080394
vt 0.206727 0.105105
vt 0.206727 0.129815
vt 0.206727 0.154617
vt 0.206727 0.179559
vt 0.206727 0.204608
vt 0.206727 0.005601
vt 0.206727 0.030650
vt 0.206727 0.055592
vt 0.206727 0.080394
vt 0.227168 0.105105
vt 0.227168 0.129815
vt 0.227168 0.154617
vt 0.227168 0.179559
vt 0.227168 0.204608
vt 0.227168 0.005601
vt 0.227168 0.030650
vt 0.227168 0.055592
vt 0.227168 0.080394
vt 0.247609 0.105105
vt 0.247609 0.129815
vt 0.247609 0.154617
vt 0.247609 0.179559
vt 0.247609 0.204608
vt 0.247609 0.005601
vt 0.247609 0.030650
vt 0.247609 0.055592
vt 0.247609 0.080394
vt 0.268554 0.105105
vt 0.268554 0.129815
vt 0.268554 0.154617
vt 0.268554 0.179559
vt 0.268554 0.204608
vt 0.268554 0.005601
vt 0.268554 0.030650
vt 0.268554 0.055592
vt 0.268554 0.080394
vt 0.289499 0.105105
vt 0.289499 0.129815
vt 0.289499 0.154617
vt 0.289499 0.179559
vt 0.289499 0.204608
vt 0.289499 0.005601
vt 0.289499 0.030650
vt 0.289499 0.055592
vt 0.289499 0.080394
vt 0.310444 0.105105
vt 0.310444 0.129815
vt 0.310444 0.154617
vt 0.310444 0.179559
vt 0.310444 0.204608
vt 0.310444 0.005601
vt 0.310444 0.030650
vt 0.310444 0.055592
vt 0.310444 0.080394
vt 0.331389 0.105105
vt 0.331389 0.129815
vt 0.331389 0.154617
vt 0.331389 0.179559
vt 0.331389 0.204608
vt 0.331389 0.005601
vt 0.331389 0.030650
vt 0.331389 0.055592
vt 0.331389 0.080394
vt 0.352334 0.105105
vt 0.352334 0.129815
vt 0.352334 0.154617
vt 0.352334 0.179559
vt 0.352334 0.204608
vt 0.352334 0.005601
vt 0.352334 0.030650
vt 0.352334 0.055592
vt 0.352334 0.080394
vt 0.373279 0.105105
vt 0.373279 0.129815
vt 0.373279 0.154617
vt 0.373279 0.179559
vt 0.373279 0.204608
vt 0.373279 0.005601
vt 0.373279 0.030650
vt 0.373279 0.055592
vt 0.373279 0.080394
vt 0.394224 0.105105
vt 0.394224 0.129815
vt 0.394224 0.154617
vt 0.394224 0.179559
vt 0.394224 0.204608
vt 0.394224 0.005601
vt 0.394224 0.030650
vt 0.394224 0.055592
vt 0.394224 0.080394
vt 0.034196 0.215810
vt 0.066756 0.218937
vt 0.058162 0.236715
vt 0.040175 0.236533
vt 0.088529 0.242381
vt 0.088529 0.275388
vt 0.068765 0.268144
vt 0.069559 0.250578
vt 0.064577 0.299257
vt 0.030273 0.299539
vt 0.037761 0.279048
vt 0.055501 0.279736
vt 0.005601 0.274488
vt 0.006362 0.238107
vt 0.027609 0.248317
vt 0.026231 0.265530
vt 0.056618 0.262266
vt 0.056628 0.255039
vt 0.043738 0.266770
vt 0.050966 0.266762
vt 0.039320 0.253935
vt 0.039278 0.261098
vt 0.044886 0.249418
vt 0.052133 0.249343
vt 0.047946 0.258079
vt 0.153015 0.215810
vt 0.175085 0.237881
vt 0.160743 0.244592
vt 0.147619 0.230697
vt 0.121802 0.215810
vt 0.128513 0.230152
vt 0.153015 0.291164
vt 0.121802 0.291164
vt 0.127198 0.276277
vt 0.146304 0.276822
vt 0.175085 0.269093
vt 0.160199 0.263697
vt 0.142528 0.267612
vt 0.137408 0.253487
vt 0.151533 0.248367
vt 0.151016 0.259854
vt 0.132289 0.239363
vt 0.143776 0.239879
vt 0.123284 0.258607
vt 0.123801 0.247120
vt 0.099731 0.237881
vt 0.114618 0.243277
vt 0.099731 0.269093
vt 0.114074 0.262383
vt 0.131041 0.267095
s 1
f 2/1/1 1/2/2 16/3/3 15/4/4
f 7/5/5 6/6/6 11/7/7 10/8/8
f 6/6/6 5/9/9 12/10/10 11/7/7
f 4/11/11 3/12/12 14/13/13 13/14/14
f 8/15/15 7/5/5 10/8/8 9/16/16
f 1/2/2 8/15/15 9/16/16 16/3/3
f 5/17/9 4/11/11 13/14/14 12/18/10
f 3/12/12 2/1/1 15/4/4 14/13/13
f 25/19/17 26/20/18 23/21/19 24/22/20
f 26/20/18 27/23/21 22/24/22 23/21/19
f 30/25/23 31/26/24 18/27/25 19/28/26
f 29/29/27 30/25/23 19/28/26 20/30/28
f 28/31/29 29/32/27 20/33/28 21/34/30
f 27/23/21 28/31/29 21/34/30 22/24/22
f 32/35/31 25/19/17 24/22/20 17/36/32
f 31/26/24 32/35/31 17/36/32 18/27/25
f 25/19/17 33/37/33 34/38/34 26/20/18
f 26/20/18 34/38/34 35/39/35 27/23/21
f 27/23/21 35/39/35 36/40/36 28/31/29
f 28/31/29 36/40/36 37/41/37 29/32/27
f 29/29/27 37/42/37 38/43/38 30/25/23
f 30/25/23 38/43/38 39/44/39 31/26/24
f 31/26/24 39/44/39 40/45/40 32/35/31
f 32/35/31 40/45/40 33/37/33 25/19/17
f 33/37/33 41/46/41 42/47/42 34/38/34
f 34/38/34 42/47/42 43/48/43 35/39/35
f 35/39/35 43/48/43 44/49/44 36/40/36
f 36/40/36 44/49/44 45/50/45 37/41/37
f 37/42/37 45/51/45 46/52/46 38/43/38
f 38/43/38 46/52/46 47/53/47 39/44/39
f 39/44/39 47/53/47 48/54/48 40/45/40
f 40/45/40 48/54/48 41/46/41 33/37/33
f 41/46/41 49/55/49 50/56/50 42/47/42
f 42/47/42 50/56/50 51/57/51 43/48/43
f 43/48/43 51/57/51 52/58/52 44/49/44
f 44/49/44 52/58/52 53/59/53 45/50/45
f 45/51/45 53/60/53 54/61/54 46/52/46
f 46/52/46 54/61/54 55/62/55 47/53/47
f 47/53/47 55/62/55 56/63/56 48/54/48
f 48/54/48 56/63/56 49/55/49 41/46/41
f 49/55/49 57/64/57 58/65/58 50/56/50
f 50/56/50 58/65/58 59/66/59 51/57/51
f 51/57/51 59/66/59 60/67/60 52/58/52
f 52/58/52 60/67/60 61/68/61 53/59/53
f 53/60/53 61/69/61 62/70/62 54/61/54
f 54/61/54 62/70/62 63/71/63 55/62/55
f 55/62/55 63/71/63 64/72/64 56/63/56
f 56/63/56 64/72/64 57/64/57 49/55/49
f 57/64/57 65/73/65 66/74/66 58/65/58
f 58/65/58 66/74/66 67/75/67 59/66/59
f 59/66/59 67/75/67 68/76/68 60/67/60
f 60/67/60 68/76/68 69/77/69 61/68/61
f 61/69/61 69/78/69 70/79/70 62/70/62
f 62/70/62 70/79/70 71/80/71 63/71/63
f 63/71/63 71/80/71 72/81/72 64/72/64
f 64/72/64 72/81/72 65/73/65 57/64/57
f 65/73/65 73/82/73 74/83/74 66/74/66
f 66/74/66 74/83/74 75/84/75 67/75/67
f 67/75/67 75/84/75 76/85/76 68/76/68
f 68/76/68 76/85/76 77/86/77 69/77/69
f 69/78/69 77/87/77 78/88/78 70/79/70
f 70/79/70 78/88/78 79/89/79 71/80/71
f 71/80/71 79/89/79 80/90/80 72/81/72
f 72/81/72 80/90/80 73/82/73 65/73/65
f 73/82/73 81/91/81 82/92/82 74/83/74
f 74/83/74 82/92/82 83/93/83 75/84/75
f 75/84/75 83/93/83 84/94/84 76/85/76
f 76/85/76 84/94/84 85/95/85 77/86/77
f 77/87/77 85/96/85 86/97/86 78/88/78
f 78/88/78 86/97/86 87/98/87 79/89/79
f 79/89/79 87/98/87 88/99/88 80/90/80
f 80/90/80 88/99/88 81/91/81 73/82/73
f 81/91/81 89/100/89 90/101/90 82/92/82
f 82/92/82 90/101/90 91/102/91 83/93/83
f 83/93/83 91/102/91 92/103/92 84/94/84
f 84/94/84 92/103/92 93/104/93 85/95/85
f 85/96/85 93/105/93 94/106/94 86/97/86
f 86/97/86 94/106/94 95/107/95 87/98/87
f 87/98/87 95/107/95 96/108/96 88/99/88
f 88/99/88 96/108/96 89/100/89 81/91/81
f 89/100/89 97/109/97 98/110/98 90/101/90
f 90/101/90 98/110/98 99/111/99 91/102/91
f 91/102/91 99/111/99 100/112/100 92/103/92
f 92/103/92 100/112/100 101/113/101 93/104/93
f 93/105/93 101/114/101 102/115/102 94/106/94
f 94/106/94 102/115/102 103/116/103 95/107/95
f 95/107/95 103/116/103 104/117/104 96/108/96
f 96/108/96 104/117/104 97/109/97 89/100/89
f 97/109/97 105/118/105 106/119/106 98/110/98
f 98/110/98 106/119/106 107/120/107 99/111/99
f 99/111/99 107/120/107 108/121/108 100/112/100
f 100/112/100 108/121/108 109/122/109 101/113/101
f 101/114/101 109/123/109 110/124/110 102/115/102
f 102/115/102 110/124/110 111/125/111 103/116/103
f 103/116/103 111/125/111 112/126/112 104/117/104
f 104/117/104 112/126/112 105/118/105 97/109/97
f 105/118/105 113/127/113 114/128/114 106/119/106
f 106/119/106 114/128/114 115/129/115 107/120/107
f 107/120/107 115/129/115 116/130/116 108/121/108
f 108/121/108 116/130/116 117/131/117 109/122/109
f 109/123/109 117/132/117 118/133/118 110/124/110
f 110/124/110 118/133/118 119/134/119 111/125/111
f 111/125/111 119/134/119 120/135/120 112/126/112
f 112/126/112 120/135/120 113/127/113 105/118/105
f 113/127/113 121/136/121 122/137/122 114/128/114
f 114/128/114 122/137/122 123/138/123 115/129/115
f 115/129/115 123/138/123 124/139/124 116/130/116
f 116/130/116 124/139/124 125/140/125 117/131/117
f 117/132/117 125/141/125 126/142/126 118/133/118
f 118/133/118 126/142/126 127/143/127 119/134/119
f 119/134/119 127/143/127 128/144/128 120/135/120
f 120/135/120 128/144/128 121/136/121 113/127/113
f 121/136/121 129/145/129 130/146/130 122/137/122
f 122/137/122 130/146/130 131/147/131 123/138/123
f 123/138/123 131/147/131 132/148/132 124/139/124
f 124/139/124 132/148/132 133/149/133 125/140/125
f 125/141/125 133/150/133 134/151/134 126/142/126
f 126/142/126 134/151/134 135/152/135 127/143/127
f 127/143/127 135/152/135 136/153/136 128/144/128
f 128/144/128 136/153/136 129/145/129 121/136/121
f 129/145/129 137/154/137 138/155/138 130/146/130
f 130/146/130 138/155/138 139/156/139 131/147/131
f 131/147/131 139/156/139 140/157/140 132/148/132
f 132/148/132 140/157/140 141/158/141 133/149/133
f 133/150/133 141/159/141 142/160/142 134/151/134
f 134/151/134 142/160/142 143/161/143 135/152/135
f 135/152/135 143/161/143 144/162/144 136/153/136
f 136/153/136 144/162/144 137/154/137 129/145/129
f 137/154/137 145/163/145 146/164/146 138/155/138
f 138/155/138 146/164/146 147/165/147 139/156/139
f 139/156/139 147/165/147 148/166/148 140/157/140
f 140/157/140 148/166/148 149/167/149 141/158/141
f 141/159/141 149/168/149 150/169/150 142/160/142
f 142/160/142 150/169/150 151/170/151 143/161/143
f 143/161/143 151/170/151 152/171/152 144/162/144
f 144/162/144 152/171/152 145/163/145 137/154/137
f 145/163/145 1/2/2 2/1/1 146/164/146
f 146/164/146 2/1/1 3/12/12 147/165/147
f 147/165/147 3/12/12 4/11/11 148/166/148
f 148/166/148 4/11/11 5/17/9 149/167/149
f 149/168/149 5/9/9 6/6/6 150/169/150
f 150/169/150 6/6/6 7/5/5 151/170/151
f 151/170/151 7/5/5 8/15/15 152/171/152
f 152/171/152 8/15/15 1/2/2 145/163/145
f 22/172/22 21/173/30 157/174/153 158/175/154
f 20/176/28 19/177/26 155/178/155 156/179/156
f 18/180/25 17/181/32 153/182/157 154/183/158
f 24/184/20 23/185/19 159/186/159 160/187/160
f 23/185/19 22/172/22 158/175/154 159/186/159
f 21/173/30 20/176/28 156/179/156 157/174/153
f 19/177/26 18/180/25 154/183/158 155/178/155
f 17/181/32 24/184/20 160/187/160 153/182/157
f 156/179/156 155/178/155 163/188/161 164/189/162
f 154/183/158 153/182/157 161/190/163 162/191/164
f 160/187/160 159/186/159 167/192/165 168/193/166
f 159/186/159 158/175/154 166/194/167 167/192/165
f 157/174/153 156/179/156 164/189/162 165/195/168
f 155/178/155 154/183/158 162/191/164 163/188/161
f 153/182/157 160/187/160 168/193/166 161/190/163
f 158/175/154 157/174/153 165/195/168 166/194/167
f 169/196/169 168/193/166 167/192/165 166/194/167
f 164/189/162 169/196/169 166/194/167 165/195/168
f 162/191/164 161/190/163 168/193/166 169/196/169
f 163/188/161 162/191/164 169/196/169 164/189/162
f 13/197/14 14/198/13 181/199/170 179/200/171
f 12/201/10 13/197/14 179/200/171 177/202/172
f 16/203/3 9/204/16 174/205/173 186/206/174
f 15/207/4 16/203/3 186/206/174 183/208/175
f 185/209/176 170/210/93 182/211/177 184/212/178
f 170/210/93 178/213/179 180/214/180 182/211/177
f 172/215/181 176/216/182 178/213/179 170/210/93
f 11/217/7 12/201/10 177/202/172 175/218/183
f 14/198/13 15/207/4 183/208/175 181/199/170
f 9/204/16 10/219/8 171/220/184 174/205/173
f 10/219/8 11/217/7 175/218/183 171/220/184
f 172/215/181 173/221/185 174/205/173 171/220/184
f 176/216/182 172/215/181 171/220/184 175/218/183
f 178/213/179 176/216/182 175/218/183 177/202/172
f 180/214/180 178/213/179 177/202/172 179/200/171
f 182/211/177 180/214/180 179/200/171 181/199/170
f 184/212/178 182/211/177 181/199/170 183/208/175
f 186/206/174 174/205/173 173/221/185 185/209/176
f 185/209/176 184/212/178 183/208/175 186/206/174
f 173/221/185 172/215/181 170/210/93 185/209/176
