# Blender 4.0.2
# www.blender.org
o crayon
v -0.003633 0.004173 -0.008772
v -0.000000 0.099538 -0.009326
v -0.006714 0.004173 -0.006714
v 0.003569 0.099538 -0.008616
v -0.008772 0.004173 -0.003633
v 0.006595 0.099538 -0.006595
v -0.009495 0.004173 -0.000000
v 0.008616 0.099538 -0.003569
v -0.008772 0.004173 0.003633
v 0.009326 0.099538 0.000000
v -0.006714 0.004173 0.006714
v 0.008616 0.099538 0.003569
v -0.003633 0.004173 0.008772
v 0.006595 0.099538 0.006595
v -0.000000 0.004173 0.009495
v 0.003569 0.099538 0.008616
v 0.003633 0.004173 0.008772
v -0.000000 0.099538 0.009326
v 0.006714 0.004173 0.006714
v -0.003569 0.099538 0.008616
v 0.008772 0.004173 0.003633
v -0.006595 0.099538 0.006595
v 0.009495 0.004173 0.000000
v -0.008616 0.099538 0.003569
v 0.008772 0.004173 -0.003633
v -0.009326 0.099538 -0.000000
v 0.006714 0.004173 -0.006714
v -0.008616 0.099538 -0.003569
v 0.003633 0.004173 -0.008772
v -0.006595 0.099538 -0.006595
v -0.000000 0.004173 -0.009495
v -0.003569 0.099538 -0.008616
v 0.003827 0.098937 -0.009239
v -0.000000 0.098937 -0.010000
v 0.007071 0.098937 -0.007071
v 0.009239 0.098937 -0.003827
v 0.010000 0.098937 0.000000
v 0.009239 0.098937 0.003827
v 0.007071 0.098937 0.007071
v 0.003827 0.098937 0.009239
v -0.000000 0.098937 0.010000
v -0.003827 0.098937 0.009239
v -0.007071 0.098937 0.007071
v -0.009239 0.098937 0.003827
v -0.010000 0.098937 -0.000000
v -0.009239 0.098937 -0.003827
v -0.007071 0.098937 -0.007071
v -0.003827 0.098937 -0.009239
v 0.002807 0.102934 -0.006777
v -0.000000 0.102934 -0.007335
v 0.005187 0.102934 -0.005187
v 0.006777 0.102934 -0.002807
v 0.007335 0.102934 0.000000
v 0.006777 0.102934 0.002807
v 0.005187 0.102934 0.005187
v 0.002807 0.102934 0.006777
v -0.000000 0.102934 0.007335
v -0.002807 0.102934 0.006777
v -0.005187 0.102934 0.005187
v -0.006777 0.102934 0.002807
v -0.007335 0.102934 0.000000
v -0.006777 0.102934 -0.002807
v -0.005187 0.102934 -0.005187
v -0.002807 0.102934 -0.006777
v 0.003569 0.102934 -0.008616
v -0.000000 0.102934 -0.009326
v 0.006595 0.102934 -0.006595
v 0.008616 0.102934 -0.003569
v 0.009326 0.102934 0.000000
v 0.008616 0.102934 0.003569
v 0.006595 0.102934 0.006595
v 0.003569 0.102934 0.008616
v -0.000000 0.102934 0.009326
v -0.003569 0.102934 0.008616
v -0.006595 0.102934 0.006595
v -0.008616 0.102934 0.003569
v -0.009326 0.102934 -0.000000
v -0.008616 0.102934 -0.003569
v -0.006595 0.102934 -0.006595
v -0.003569 0.102934 -0.008616
v 0.000917 0.123927 -0.002214
v -0.000000 0.123927 -0.002397
v 0.001695 0.123927 -0.001695
v 0.002214 0.123927 -0.000917
v 0.002397 0.123927 0.000000
v 0.002214 0.123927 0.000917
v 0.001695 0.123927 0.001695
v 0.000917 0.123927 0.002214
v -0.000000 0.123927 0.002397
v -0.000917 0.123927 0.002214
v -0.001695 0.123927 0.001695
v -0.002214 0.123927 0.000917
v -0.002397 0.123927 0.000000
v -0.002214 0.123927 -0.000917
v -0.001695 0.123927 -0.001695
v -0.000917 0.123927 -0.002214
v -0.000000 0.004544 -0.010000
v 0.003827 0.004544 -0.009239
v 0.007071 0.004544 -0.007071
v 0.009239 0.004544 -0.003827
v 0.010000 0.004544 0.000000
v 0.009239 0.004544 0.003827
v 0.007071 0.004544 0.007071
v 0.003827 0.004544 0.009239
v -0.000000 0.004544 0.010000
v -0.003827 0.004544 0.009239
v -0.007071 0.004544 0.007071
v -0.009239 0.004544 0.003827
v -0.010000 0.004544 -0.000000
v -0.009239 0.004544 -0.003827
v -0.007071 0.004544 -0.007071
v -0.003827 0.004544 -0.009239
v -0.003633 -0.000000 -0.008772
v -0.006714 -0.000000 -0.006714
v -0.008772 -0.000000 -0.003633
v -0.009495 -0.000000 -0.000000
v -0.008772 -0.000000 0.003633
v -0.006714 -0.000000 0.006714
v -0.003633 -0.000000 0.008772
v -0.000000 -0.000000 0.009495
v 0.003633 -0.000000 0.008772
v 0.006714 -0.000000 0.006714
v 0.008772 -0.000000 0.003633
v 0.009495 -0.000000 0.000000
v 0.008772 -0.000000 -0.003633
v 0.006714 -0.000000 -0.006714
v 0.003633 -0.000000 -0.008772
v -0.000000 -0.000000 -0.009495
v 0.003633 -0.000000 0.000000
v -0.000000 -0.000000 0.000000
v -0.003633 -0.000000 0.000000
v -0.006714 -0.000000 0.000000
v 0.006714 -0.000000 0.000000
v -0.000000 0.123927 0.000000
vn -0.0000 -0.0000 -1.0000
vn 0.3827 -0.0000 -0.9239
vn 0.7071 -0.0000 -0.7071
vn 0.9239 -0.0000 -0.3827
vn 1.0000 -0.0000 -0.0000
vn 0.9239 -0.0000 0.3827
vn 0.7071 -0.0000 0.7071
vn 0.3827 -0.0000 0.9239
vn -0.0000 -0.0000 1.0000
vn -0.3827 -0.0000 0.9239
vn -0.7071 -0.0000 0.7071
vn -0.9239 -0.0000 0.3827
vn -1.0000 -0.0000 -0.0000
vn -0.9239 -0.0000 -0.3827
vn -0.7071 -0.0000 -0.7071
vn -0.3827 -0.0000 -0.9239
vn -0.0000 0.7464 -0.6655
vn 0.2547 0.7464 -0.6149
vn 0.4706 0.7464 -0.4706
vn 0.6148 0.7464 -0.2547
vn 0.6655 0.7464 -0.0000
vn 0.6149 0.7464 0.2547
vn 0.4706 0.7464 0.4706
vn 0.2547 0.7464 0.6149
vn -0.0000 0.7464 0.6655
vn -0.2547 0.7464 0.6149
vn -0.4706 0.7464 0.4706
vn -0.6148 0.7464 0.2547
vn -0.6655 0.7464 -0.0000
vn -0.6149 0.7464 -0.2547
vn -0.4706 0.7464 -0.4706
vn -0.2547 0.7464 -0.6149
vn -0.8993 0.2290 -0.3725
vn -0.9734 0.2290 -0.0000
vn -0.0000 1.0000 -0.0000
vn 0.6883 0.2290 0.6883
vn 0.8993 0.2290 0.3725
vn -0.6883 0.2290 -0.6883
vn 0.3725 0.2290 0.8993
vn -0.3725 0.2290 -0.8993
vn -0.0000 0.2290 0.9734
vn 0.3725 0.2290 -0.8993
vn -0.0000 0.2290 -0.9734
vn -0.3725 0.2290 0.8993
vn 0.6883 0.2290 -0.6883
vn -0.6883 0.2290 0.6883
vn 0.8993 0.2290 -0.3725
vn -0.8993 0.2290 0.3725
vn 0.9734 0.2290 -0.0000
vn 0.2264 -0.8062 -0.5467
vn 0.4184 -0.8062 -0.4184
vn -0.2264 -0.8062 0.5467
vn -0.4184 -0.8062 0.4184
vn 0.5467 -0.8062 -0.2264
vn -0.5467 -0.8062 0.2264
vn 0.5917 -0.8062 -0.0000
vn -0.5917 -0.8062 -0.0000
vn 0.5467 -0.8062 0.2264
vn -0.5467 -0.8062 -0.2264
vn 0.4184 -0.8062 0.4184
vn -0.4184 -0.8062 -0.4184
vn 0.2264 -0.8062 0.5467
vn -0.2264 -0.8062 -0.5467
vn -0.0000 -0.8062 0.5917
vn -0.0000 -0.8062 -0.5917
vn -0.0000 -1.0000 -0.0000
vt 0.011311 0.469490
vt 0.985513 0.469490
vt 0.985513 0.508208
vt 0.011311 0.508208
vt 0.985513 0.546926
vt 0.011311 0.546926
vt 0.985513 0.585644
vt 0.011311 0.585644
vt 0.985513 0.624361
vt 0.011311 0.624361
vt 0.011311 0.004878
vt 0.985513 0.004878
vt 0.985513 0.043596
vt 0.011311 0.043596
vt 0.985513 0.082314
vt 0.011311 0.082314
vt 0.985513 0.121031
vt 0.011311 0.121031
vt 0.985513 0.159749
vt 0.011311 0.159749
vt 0.985513 0.198467
vt 0.011311 0.198467
vt 0.985513 0.237184
vt 0.011311 0.237184
vt 0.985513 0.275902
vt 0.011311 0.275902
vt 0.985513 0.314620
vt 0.011311 0.314620
vt 0.985513 0.353337
vt 0.011311 0.353337
vt 0.985513 0.392055
vt 0.011311 0.392055
vt 0.339883 0.665638
vt 0.303215 0.665638
vt 0.303215 0.631095
vt 0.339884 0.631095
vt 0.985513 0.430773
vt 0.011311 0.430773
vt 0.677770 0.715544
vt 0.640445 0.715544
vt 0.640445 0.673102
vt 0.677770 0.673102
vt 0.994782 0.469490
vt 0.994782 0.508208
vt 0.994782 0.546926
vt 0.994782 0.585644
vt 0.994782 0.624361
vt 0.994782 0.004878
vt 0.994782 0.043596
vt 0.994782 0.082314
vt 0.994782 0.121031
vt 0.994782 0.159749
vt 0.994782 0.198467
vt 0.994782 0.237184
vt 0.994782 0.275902
vt 0.994782 0.314620
vt 0.994782 0.353337
vt 0.994782 0.392055
vt 0.994782 0.430773
vt 0.004886 0.802965
vt 0.004886 0.783845
vt 0.224012 0.783845
vt 0.224012 0.802965
vt 0.633230 0.665638
vt 0.596562 0.665638
vt 0.596562 0.631095
vt 0.633230 0.631095
vt 0.376552 0.665638
vt 0.376552 0.631095
vt 0.706567 0.665638
vt 0.669899 0.665638
vt 0.669899 0.631095
vt 0.706567 0.631095
vt 0.413220 0.665638
vt 0.413220 0.631095
vt 0.743235 0.665638
vt 0.743235 0.631095
vt 0.449888 0.665638
vt 0.449889 0.631095
vt 0.779904 0.665638
vt 0.779904 0.631095
vt 0.486557 0.665638
vt 0.486557 0.631095
vt 0.816572 0.665638
vt 0.816572 0.631095
vt 0.523225 0.665638
vt 0.523225 0.631095
vt 0.266547 0.665638
vt 0.229879 0.665638
vt 0.229879 0.631095
vt 0.266547 0.631095
vt 0.559894 0.665638
vt 0.559894 0.631095
vt 0.599303 0.816392
vt 0.593678 0.788109
vt 0.612212 0.780432
vt 0.619365 0.816392
vt 0.577656 0.764131
vt 0.591842 0.749946
vt 0.553679 0.748110
vt 0.561356 0.729576
vt 0.525395 0.742484
vt 0.525395 0.722423
vt 0.497112 0.748110
vt 0.489435 0.729576
vt 0.473134 0.764131
vt 0.458949 0.749946
vt 0.457113 0.788109
vt 0.438579 0.780432
vt 0.451487 0.816392
vt 0.431426 0.816392
vt 0.457113 0.844676
vt 0.438579 0.852353
vt 0.473134 0.868653
vt 0.458949 0.882839
vt 0.497112 0.884674
vt 0.489435 0.903209
vt 0.525395 0.890300
vt 0.525395 0.910362
vt 0.553679 0.884674
vt 0.561356 0.903209
vt 0.577656 0.868653
vt 0.591842 0.882839
vt 0.593678 0.844676
vt 0.612212 0.852353
vt 0.625297 0.746056
vt 0.605219 0.759472
vt 0.601613 0.750767
vt 0.601613 0.741345
vt 0.004886 0.669125
vt 0.004886 0.650005
vt 0.224012 0.650005
vt 0.224012 0.669125
vt 0.004886 0.822085
vt 0.224012 0.822085
vt 0.004886 0.688245
vt 0.224012 0.688245
vt 0.004886 0.841205
vt 0.224012 0.841205
vt 0.004886 0.707365
vt 0.224012 0.707365
vt 0.004886 0.879445
vt 0.004886 0.860325
vt 0.224012 0.860325
vt 0.224012 0.879446
vt 0.004886 0.726485
vt 0.224012 0.726485
vt 0.004886 0.898566
vt 0.224012 0.898566
vt 0.004886 0.745605
vt 0.224012 0.745605
vt 0.004886 0.917686
vt 0.224012 0.917686
vt 0.004886 0.764725
vt 0.224012 0.764725
vt 0.004886 0.936806
vt 0.224012 0.936806
vt 0.004886 0.630885
vt 0.224012 0.630885
vt 0.004881 0.546926
vt 0.004881 0.508208
vt 0.004881 0.237184
vt 0.004881 0.198467
vt 0.004881 0.585644
vt 0.004881 0.275902
vt 0.004881 0.624361
vt 0.004881 0.314620
vt 0.004881 0.043596
vt 0.004881 0.004878
vt 0.004881 0.353337
vt 0.004881 0.082314
vt 0.004881 0.392055
vt 0.004881 0.121031
vt 0.004881 0.430773
vt 0.004881 0.159749
vt 0.004881 0.469490
vt 0.267195 0.715544
vt 0.229870 0.715544
vt 0.229870 0.673102
vt 0.267195 0.673102
vt 0.491145 0.715544
vt 0.453820 0.715544
vt 0.453820 0.673102
vt 0.491145 0.673102
vt 0.827070 0.715544
vt 0.789745 0.715544
vt 0.789745 0.673102
vt 0.827070 0.673102
vt 0.416495 0.715544
vt 0.416495 0.673102
vt 0.603120 0.715544
vt 0.603120 0.673102
vt 0.379170 0.715544
vt 0.341845 0.715544
vt 0.341845 0.673102
vt 0.379170 0.673102
vt 0.565795 0.715544
vt 0.565795 0.673102
vt 0.752420 0.715544
vt 0.752420 0.673102
vt 0.715095 0.715544
vt 0.715095 0.673102
vt 0.304520 0.715544
vt 0.304520 0.673102
vt 0.528470 0.715544
vt 0.528470 0.673102
vt 0.397777 0.818092
vt 0.425797 0.818092
vt 0.418515 0.854703
vt 0.397776 0.885740
vt 0.293519 0.818092
vt 0.330129 0.818092
vt 0.330129 0.913760
vt 0.293519 0.906478
vt 0.366740 0.818092
vt 0.366740 0.906478
vt 0.262482 0.818092
vt 0.262482 0.885740
vt 0.234462 0.818092
vt 0.241744 0.854703
vt 0.262482 0.750445
vt 0.293519 0.729707
vt 0.330129 0.722425
vt 0.366740 0.729707
vt 0.397777 0.750445
vt 0.418515 0.781482
vt 0.241744 0.781482
vt 0.611881 0.725978
vt 0.620586 0.722373
vt 0.630008 0.722373
vt 0.620586 0.769740
vt 0.611881 0.766135
vt 0.648981 0.750767
vt 0.645375 0.732641
vt 0.648981 0.741345
vt 0.605219 0.732641
vt 0.638713 0.725978
vt 0.645375 0.759472
vt 0.638712 0.766135
vt 0.630008 0.769740
s 1
f 97/1/1 34/2/1 33/3/2 98/4/2
f 98/4/2 33/3/2 35/5/3 99/6/3
f 99/6/3 35/5/3 36/7/4 100/8/4
f 100/8/4 36/7/4 37/9/5 101/10/5
f 101/11/5 37/12/5 38/13/6 102/14/6
f 102/14/6 38/13/6 39/15/7 103/16/7
f 103/16/7 39/15/7 40/17/8 104/18/8
f 104/18/8 40/17/8 41/19/9 105/20/9
f 105/20/9 41/19/9 42/21/10 106/22/10
f 106/22/10 42/21/10 43/23/11 107/24/11
f 107/24/11 43/23/11 44/25/12 108/26/12
f 108/26/12 44/25/12 45/27/13 109/28/13
f 109/28/13 45/27/13 46/29/14 110/30/14
f 110/30/14 46/29/14 47/31/15 111/32/15
f 16/33/8 14/34/7 71/35/7 72/36/8
f 111/32/15 47/31/15 48/37/16 112/38/16
f 112/38/16 48/37/16 34/2/1 97/1/1
f 15/39/9 13/40/10 119/41/10 120/42/9
f 2/43/17 4/44/18 33/3/18 34/2/17
f 4/44/18 6/45/19 35/5/19 33/3/18
f 6/45/19 8/46/20 36/7/20 35/5/19
f 8/46/20 10/47/21 37/9/21 36/7/20
f 10/48/21 12/49/22 38/13/22 37/12/21
f 12/49/22 14/50/23 39/15/23 38/13/22
f 14/50/23 16/51/24 40/17/24 39/15/23
f 16/51/24 18/52/25 41/19/25 40/17/24
f 18/52/25 20/53/26 42/21/26 41/19/25
f 20/53/26 22/54/27 43/23/27 42/21/26
f 22/54/27 24/55/28 44/25/28 43/23/27
f 24/55/28 26/56/29 45/27/29 44/25/28
f 26/56/29 28/57/30 46/29/30 45/27/29
f 28/57/30 30/58/31 47/31/31 46/29/30
f 30/58/31 32/59/32 48/37/32 47/31/31
f 32/59/32 2/43/17 34/2/17 48/37/32
f 62/60/33 61/61/34 93/62/34 94/63/33
f 32/64/16 30/65/15 79/66/15 80/67/16
f 18/68/9 16/33/8 72/36/8 73/69/9
f 4/70/2 2/71/1 66/72/1 65/73/2
f 2/71/1 32/64/16 80/67/16 66/72/1
f 20/74/10 18/68/9 73/69/9 74/75/10
f 6/76/3 4/70/2 65/73/2 67/77/3
f 22/78/11 20/74/10 74/75/10 75/79/11
f 8/80/4 6/76/3 67/77/3 68/81/4
f 24/82/12 22/78/11 75/79/11 76/83/12
f 10/84/5 8/80/4 68/81/4 69/85/5
f 26/86/13 24/82/12 76/83/12 77/87/13
f 12/88/6 10/89/5 69/90/5 70/91/6
f 28/92/14 26/86/13 77/87/13 78/93/14
f 14/34/7 12/88/6 70/91/6 71/35/7
f 30/65/15 28/92/14 78/93/14 79/66/15
f 50/94/35 49/95/35 65/96/35 66/97/35
f 49/95/35 51/98/35 67/99/35 65/96/35
f 51/98/35 52/100/35 68/101/35 67/99/35
f 52/100/35 53/102/35 69/103/35 68/101/35
f 53/102/35 54/104/35 70/105/35 69/103/35
f 54/104/35 55/106/35 71/107/35 70/105/35
f 55/106/35 56/108/35 72/109/35 71/107/35
f 56/108/35 57/110/35 73/111/35 72/109/35
f 57/110/35 58/112/35 74/113/35 73/111/35
f 58/112/35 59/114/35 75/115/35 74/113/35
f 59/114/35 60/116/35 76/117/35 75/115/35
f 60/116/35 61/118/35 77/119/35 76/117/35
f 61/118/35 62/120/35 78/121/35 77/119/35
f 62/120/35 63/122/35 79/123/35 78/121/35
f 63/122/35 64/124/35 80/125/35 79/123/35
f 64/124/35 50/94/35 66/97/35 80/125/35
f 134/126/35 93/127/35 92/128/35 91/129/35
f 55/130/36 54/131/37 86/132/37 87/133/36
f 63/134/38 62/60/33 94/63/33 95/135/38
f 56/136/39 55/130/36 87/133/36 88/137/39
f 64/138/40 63/134/38 95/135/38 96/139/40
f 57/140/41 56/136/39 88/137/39 89/141/41
f 49/142/42 50/143/43 82/144/43 81/145/42
f 50/143/43 64/138/40 96/139/40 82/144/43
f 58/146/44 57/140/41 89/141/41 90/147/44
f 51/148/45 49/142/42 81/145/42 83/149/45
f 59/150/46 58/146/44 90/147/44 91/151/46
f 52/152/47 51/148/45 83/149/45 84/153/47
f 60/154/48 59/150/46 91/151/46 92/155/48
f 53/156/49 52/152/47 84/153/47 85/157/49
f 61/61/34 60/154/48 92/155/48 93/62/34
f 54/131/37 53/158/49 85/159/49 86/132/37
f 98/4/50 99/6/51 27/160/51 29/161/50
f 106/22/52 107/24/53 11/162/53 13/163/52
f 99/6/51 100/8/54 25/164/54 27/160/51
f 107/24/53 108/26/55 9/165/55 11/162/53
f 100/8/54 101/10/56 23/166/56 25/164/54
f 108/26/55 109/28/57 7/167/57 9/165/55
f 101/11/56 102/14/58 21/168/58 23/169/56
f 109/28/57 110/30/59 5/170/59 7/167/57
f 102/14/58 103/16/60 19/171/60 21/168/58
f 110/30/59 111/32/61 3/172/61 5/170/59
f 103/16/60 104/18/62 17/173/62 19/171/60
f 111/32/61 112/38/63 1/174/63 3/172/61
f 104/18/62 105/20/64 15/175/64 17/173/62
f 97/1/65 98/4/50 29/161/50 31/176/65
f 112/38/63 97/1/65 31/176/65 1/174/63
f 105/20/64 106/22/52 13/163/52 15/175/64
f 25/177/4 23/178/5 124/179/5 125/180/4
f 5/181/14 3/182/15 114/183/15 115/184/14
f 23/185/5 21/186/6 123/187/6 124/188/5
f 3/182/15 1/189/16 113/190/16 114/183/15
f 13/40/10 11/191/11 118/192/11 119/41/10
f 31/193/1 29/194/2 127/195/2 128/196/1
f 11/191/11 9/197/12 117/198/12 118/192/11
f 21/186/6 19/199/7 122/200/7 123/187/6
f 19/199/7 17/201/8 121/202/8 122/200/7
f 29/194/2 27/203/3 126/204/3 127/195/2
f 9/197/12 7/205/13 116/206/13 117/198/12
f 1/189/16 31/193/1 128/196/1 113/190/16
f 27/203/3 25/177/4 125/180/4 126/204/3
f 7/205/13 5/181/14 115/184/14 116/206/13
f 17/201/8 15/39/9 120/42/9 121/202/8
f 133/207/66 124/208/66 123/209/66 122/210/66
f 131/211/66 130/212/66 120/213/66 119/214/66
f 130/212/66 129/215/66 121/216/66 120/213/66
f 132/217/66 131/211/66 119/214/66 118/218/66
f 116/219/66 132/217/66 118/218/66 117/220/66
f 114/221/66 113/222/66 131/211/66 132/217/66
f 113/222/66 128/223/66 130/212/66 131/211/66
f 128/223/66 127/224/66 129/215/66 130/212/66
f 126/225/66 125/226/66 124/208/66 133/207/66
f 115/227/66 114/221/66 132/217/66 116/219/66
f 127/224/66 126/225/66 133/207/66 129/215/66
f 129/215/66 133/207/66 122/210/66 121/216/66
f 134/126/35 89/228/35 88/229/35 87/230/35
f 134/126/35 95/231/35 94/232/35 93/127/35
f 83/233/35 134/126/35 85/234/35 84/235/35
f 89/228/35 134/126/35 91/129/35 90/236/35
f 85/234/35 134/126/35 87/230/35 86/237/35
f 81/238/35 82/239/35 134/126/35 83/233/35
f 82/239/35 96/240/35 95/231/35 134/126/35
