# Blender 4.1.1
# www.blender.org
o kicker_02
v 0.624999 -0.000000 1.081428
v -0.625001 -0.000000 1.081428
v -0.625001 0.600000 -0.918572
v 0.624999 0.600000 -0.918572
v -0.625001 0.498415 -0.742910
v -0.625001 0.406242 -0.554007
v -0.625001 0.323204 -0.353988
v -0.625001 0.246999 -0.146857
v -0.625001 0.180980 0.068485
v -0.625001 0.078341 0.519633
v 0.624999 0.078341 0.519634
v 0.624999 0.180980 0.068485
v 0.624999 0.246999 -0.146858
v 0.624999 0.323204 -0.353988
v 0.624999 0.406242 -0.554007
v 0.624999 0.498415 -0.742910
v -0.625001 0.042114 0.754242
v 0.624999 0.042114 0.754242
v -0.625001 -0.000000 -0.918572
v 0.624999 -0.000000 -0.918572
v -0.625001 -0.000000 -0.742910
v -0.625001 -0.000000 -0.554007
v -0.625001 -0.000000 -0.353988
v -0.625001 -0.000000 -0.146857
v -0.625001 -0.000000 0.068485
v -0.625001 -0.000000 0.519634
v 0.624999 -0.000000 0.519634
v 0.624999 -0.000000 0.068485
v 0.624999 -0.000000 -0.146857
v 0.624999 -0.000000 -0.353989
v 0.624999 -0.000000 -0.554007
v 0.624999 -0.000000 -0.742910
v -0.625001 -0.000000 0.754243
v 0.624999 0.000000 0.754242
v -0.625001 0.124523 0.292560
v 0.624999 0.124523 0.292560
v -0.625001 -0.000000 0.292560
v 0.624999 -0.000000 0.292560
v -0.625001 0.300000 -0.918572
v 0.624999 0.300000 -0.918572
v 0.624999 0.249207 -0.742910
v 0.624999 0.039171 0.519634
v 0.624999 0.021057 0.754242
v 0.624999 0.090490 0.068485
v -0.625001 0.249207 -0.742910
v 0.624999 0.123500 -0.146857
v -0.625001 0.203121 -0.554007
v 0.624999 0.161602 -0.353989
v -0.625001 0.161602 -0.353988
v 0.624999 0.203121 -0.554007
v -0.625001 0.123500 -0.146857
v -0.625001 0.021057 0.754242
v -0.625001 0.039171 0.519634
v -0.625001 0.090490 0.068485
v -0.625001 0.062262 0.292560
v 0.624999 0.062262 0.292560
vn -0.0000 0.8827 0.4699
vn -0.0000 0.8657 0.5006
vn -0.0000 0.9901 0.1401
vn -0.0000 0.9844 0.1760
vn -0.0000 0.9751 0.2219
vn -0.0000 0.9632 0.2688
vn -0.0000 0.9476 0.3193
vn -0.0000 0.9312 0.3644
vn -0.0000 0.9116 0.4112
vn -0.0000 0.9918 0.1277
vn 1.0000 -0.0000 -0.0000
vn -1.0000 -0.0000 -0.0000
vn -0.0000 -1.0000 -0.0000
vn -0.0000 -0.0000 -1.0000
vt 0.407375 0.617567
vt 0.407375 0.682907
vt 0.004881 0.682907
vt 0.004881 0.617567
vt 0.407375 0.111103
vt 0.407375 0.187541
vt 0.004881 0.187541
vt 0.004881 0.111103
vt 0.407375 0.262153
vt 0.407375 0.336559
vt 0.004880 0.336559
vt 0.004881 0.262153
vt 0.407375 0.409084
vt 0.004881 0.409084
vt 0.407375 0.480152
vt 0.004881 0.480152
vt 0.407375 0.549887
vt 0.004881 0.549887
vt 0.407375 0.004880
vt 0.004881 0.004880
vt 0.994904 0.847475
vt 0.938343 0.831120
vt 0.938343 0.750879
vt 0.994904 0.750879
vt 0.531819 0.763491
vt 0.456278 0.757659
vt 0.456278 0.750879
vt 0.531819 0.750879
vt 0.604933 0.770927
vt 0.604933 0.750879
vt 0.061445 0.771123
vt 0.004883 0.787479
vt 0.004883 0.690882
vt 0.061445 0.690881
vt 0.746420 0.790645
vt 0.677082 0.780014
vt 0.677082 0.750879
vt 0.746420 0.750879
vt 0.122270 0.756284
vt 0.122270 0.690881
vt 0.813114 0.802913
vt 0.813114 0.750879
vt 0.186675 0.742917
vt 0.186675 0.690881
vt 0.877518 0.816281
vt 0.877518 0.750879
vt 0.253369 0.730647
vt 0.253369 0.690881
vt 0.543516 0.697661
vt 0.467974 0.703494
vt 0.467975 0.690882
vt 0.543516 0.690881
vt 0.322708 0.720018
vt 0.322708 0.690881
vt 0.394857 0.710929
vt 0.394857 0.690882
vt 0.456278 0.764439
vt 0.350927 0.750879
vt 0.543516 0.704442
vt 0.648868 0.690882
vt 0.415186 0.061445
vt 0.415186 0.004883
vt 0.817679 0.004883
vt 0.817679 0.061445
vt 0.415186 0.122272
vt 0.817679 0.122271
vt 0.415186 0.186676
vt 0.817679 0.186676
vt 0.415186 0.253371
vt 0.817679 0.253371
vt 0.415186 0.322711
vt 0.817679 0.322711
vt 0.415186 0.394862
vt 0.817679 0.394862
vt 0.415186 0.543521
vt 0.415186 0.467979
vt 0.817679 0.467979
vt 0.817679 0.543521
vt 0.415186 0.648874
vt 0.817679 0.648875
vt 0.598824 0.897480
vt 0.598824 0.994079
vt 0.196330 0.994079
vt 0.196330 0.897480
vt 0.598824 0.800882
vt 0.196330 0.800882
vt 0.677082 0.809153
vt 0.604933 0.790974
vt 0.467974 0.716107
vt 0.394857 0.730977
vt 0.322708 0.749155
vt 0.253369 0.770413
vt 0.938343 0.911363
vt 0.877518 0.881685
vt 0.186675 0.794950
vt 0.813114 0.854947
vt 0.122270 0.821688
vt 0.746420 0.830410
vt 0.061445 0.851367
vt 0.004883 0.884076
vt 0.531819 0.776104
vt 0.994903 0.944072
s 1
f 16/1/1 4/2/2 3/3/2 5/4/1
f 18/5/3 11/6/4 10/7/4 17/8/3
f 36/9/5 12/10/6 9/11/6 35/12/5
f 12/10/6 13/13/7 8/14/7 9/11/6
f 13/13/7 14/15/8 7/16/8 8/14/7
f 14/15/8 15/17/9 6/18/9 7/16/8
f 15/17/9 16/1/1 5/4/1 6/18/9
f 1/19/10 18/5/3 17/8/3 2/20/10
f 40/21/11 41/22/11 32/23/11 20/24/11
f 42/25/11 43/26/11 34/27/11 27/28/11
f 56/29/11 42/25/11 27/28/11 38/30/11
f 45/31/12 39/32/12 19/33/12 21/34/12
f 46/35/11 44/36/11 28/37/11 29/38/11
f 47/39/12 45/31/12 21/34/12 22/40/12
f 48/41/11 46/35/11 29/38/11 30/42/11
f 49/43/12 47/39/12 22/40/12 23/44/12
f 50/45/11 48/41/11 30/42/11 31/46/11
f 51/47/12 49/43/12 23/44/12 24/48/12
f 52/49/12 53/50/12 26/51/12 33/52/12
f 41/22/11 50/45/11 31/46/11 32/23/11
f 54/53/12 51/47/12 24/48/12 25/54/12
f 55/55/12 54/53/12 25/54/12 37/56/12
f 18/57/11 1/58/11 34/27/11 43/26/11
f 17/59/12 52/49/12 33/52/12 2/60/12
f 21/61/13 19/62/13 20/63/13 32/64/13
f 22/65/13 21/61/13 32/64/13 31/66/13
f 23/67/13 22/65/13 31/66/13 30/68/13
f 24/69/13 23/67/13 30/68/13 29/70/13
f 25/71/13 24/69/13 29/70/13 28/72/13
f 37/73/13 25/71/13 28/72/13 38/74/13
f 33/75/13 26/76/13 27/77/13 34/78/13
f 2/79/13 33/75/13 34/78/13 1/80/13
f 26/76/13 37/73/13 38/74/13 27/77/13
f 53/50/12 55/55/12 37/56/12 26/51/12
f 44/36/11 56/29/11 38/30/11 28/37/11
f 11/6/4 36/9/5 35/12/5 10/7/4
f 39/81/14 3/82/14 4/83/14 40/84/14
f 19/85/14 39/81/14 40/84/14 20/86/14
f 12/87/11 36/88/11 56/29/11 44/36/11
f 10/89/12 35/90/12 55/55/12 53/50/12
f 35/90/12 9/91/12 54/53/12 55/55/12
f 9/91/12 8/92/12 51/47/12 54/53/12
f 16/93/11 15/94/11 50/45/11 41/22/11
f 17/59/12 10/89/12 53/50/12 52/49/12
f 8/92/12 7/95/12 49/43/12 51/47/12
f 15/94/11 14/96/11 48/41/11 50/45/11
f 7/95/12 6/97/12 47/39/12 49/43/12
f 14/96/11 13/98/11 46/35/11 48/41/11
f 6/97/12 5/99/12 45/31/12 47/39/12
f 13/98/11 12/87/11 44/36/11 46/35/11
f 5/99/12 3/100/12 39/32/12 45/31/12
f 36/88/11 11/101/11 42/25/11 56/29/11
f 11/101/11 18/57/11 43/26/11 42/25/11
f 4/102/11 16/93/11 41/22/11 40/21/11
