# Blender 4.1.1
# www.blender.org
o kennel_01
v 0.000000 0.909480 0.498594
v 0.000000 0.909480 -0.501406
v -0.017669 0.901178 0.498594
v -0.017669 0.901178 -0.501406
v 0.000000 0.918135 -0.501406
v 0.000000 0.918135 0.498594
v -0.021000 0.908268 -0.501406
v 0.017669 0.901178 0.498594
v 0.017669 0.901178 -0.501406
v -0.021000 0.908268 0.498594
v 0.021000 0.908268 -0.501406
v 0.021000 0.908268 0.498594
v 0.325203 0.026696 0.381577
v 0.325203 0.729391 0.381577
v -0.325203 0.026696 0.381577
v -0.325203 0.729391 0.381577
v 0.325203 0.026696 -0.381577
v 0.325203 0.729391 -0.381577
v -0.325203 0.026696 -0.381577
v -0.325203 0.729391 -0.381577
v -0.000000 0.882189 0.381577
v 0.000000 0.026696 -0.381577
v 0.000000 0.882189 -0.381577
v 0.325203 0.522250 0.381577
v -0.325203 0.522250 0.381577
v -0.325203 0.522250 -0.381577
v 0.325203 0.522250 -0.381577
v 0.000000 0.522250 -0.381577
v 0.325203 0.620978 0.381577
v -0.325203 0.620978 0.381577
v -0.325203 0.620978 -0.381577
v 0.325203 0.620978 -0.381577
v 0.000000 0.620978 -0.381577
v 0.325203 0.719095 0.381577
v -0.325203 0.719095 0.381577
v -0.325203 0.719095 -0.381577
v 0.325203 0.719095 -0.381577
v 0.000000 0.719095 -0.381577
v -0.325203 0.423857 0.381577
v -0.325203 0.325285 0.381577
v -0.325203 0.227011 0.381577
v -0.325203 0.128917 0.381577
v -0.325203 0.423857 -0.381577
v -0.325203 0.325285 -0.381577
v -0.325203 0.227011 -0.381577
v -0.325203 0.128917 -0.381577
v 0.325203 0.423857 -0.381577
v 0.325203 0.325285 -0.381577
v 0.325203 0.227011 -0.381577
v 0.325203 0.128917 -0.381577
v 0.000000 0.423857 -0.381577
v 0.000000 0.325285 -0.381577
v 0.000000 0.227011 -0.381577
v 0.000000 0.128917 -0.381577
v 0.325203 0.128917 0.381577
v 0.325203 0.227011 0.381577
v 0.325203 0.325285 0.381577
v 0.325203 0.423857 0.381577
v 0.071192 0.026696 0.381577
v -0.225744 0.026696 0.381577
v 0.071192 0.522250 0.381577
v -0.225744 0.522250 0.381577
v -0.225744 0.128917 0.381577
v -0.225744 0.227011 0.381577
v -0.225744 0.325285 0.381577
v -0.225744 0.423857 0.381577
v 0.071192 0.128917 0.381577
v 0.071192 0.227011 0.381577
v 0.071192 0.325285 0.381577
v 0.071192 0.423857 0.381577
v -0.077276 0.522250 0.381577
v -0.040159 0.522250 0.381577
v -0.077276 0.465699 0.381577
v -0.151510 0.456380 0.381577
v -0.040159 0.462818 0.381577
v 0.034075 0.443816 0.381577
v 0.034075 0.522250 0.381577
v -0.151510 0.522250 0.381577
v -0.188627 0.522250 0.381577
v -0.003042 0.522250 0.381577
v -0.003042 0.456380 0.381577
v -0.188627 0.443816 0.381577
v -0.114393 0.462818 0.381577
v -0.114393 0.522250 0.381577
v -0.225809 0.776092 0.381577
v -0.225809 0.620978 0.381577
v -0.225809 0.719095 0.381577
v -0.077072 0.845976 0.381577
v -0.113944 0.828652 0.381577
v -0.040155 0.620978 0.381577
v -0.077072 0.620978 0.381577
v -0.113944 0.620978 0.381577
v -0.077072 0.719095 0.381577
v -0.113944 0.719095 0.381577
v -0.040155 0.863322 0.381577
v 0.071254 0.620978 0.381577
v 0.071254 0.719095 0.381577
v -0.040155 0.719095 0.381577
v -0.001259 0.580116 0.381577
v -0.151426 0.580116 0.381577
v -0.187703 0.580116 0.381577
v 0.033942 0.580116 0.381577
v 0.285203 0.026696 0.340876
v 0.285203 0.729391 0.340876
v -0.285203 0.026696 0.340876
v -0.285203 0.729391 0.340876
v 0.285203 0.026696 -0.340876
v 0.285203 0.729391 -0.340876
v -0.285203 0.026696 -0.340876
v -0.285203 0.729391 -0.340876
v -0.000000 0.882189 0.340876
v 0.000000 0.026696 -0.340876
v 0.000000 0.882189 -0.340876
v 0.285203 0.522250 0.340876
v -0.285203 0.522250 0.340876
v -0.285203 0.522250 -0.340876
v 0.285203 0.522250 -0.340876
v 0.000000 0.522250 -0.340876
v 0.285203 0.620978 0.340876
v -0.285203 0.620978 0.340876
v -0.285203 0.620978 -0.340876
v 0.285203 0.620978 -0.340876
v 0.000000 0.620978 -0.340876
v 0.285203 0.719095 0.340876
v -0.285203 0.719095 0.340876
v -0.285203 0.719095 -0.340876
v 0.285203 0.719095 -0.340876
v 0.000000 0.719095 -0.340876
v -0.285203 0.423857 0.340876
v -0.285203 0.325285 0.340876
v -0.285203 0.227011 0.340876
v -0.285203 0.128917 0.340876
v -0.285203 0.423857 -0.340876
v -0.285203 0.325285 -0.340876
v -0.285203 0.227011 -0.340876
v -0.285203 0.128917 -0.340876
v 0.285203 0.423857 -0.340876
v 0.285203 0.325285 -0.340876
v 0.285203 0.227011 -0.340876
v 0.285203 0.128917 -0.340876
v 0.000000 0.423857 -0.340876
v 0.000000 0.325285 -0.340876
v 0.000000 0.227011 -0.340876
v 0.000000 0.128917 -0.340876
v 0.285203 0.128917 0.340876
v 0.285203 0.227011 0.340876
v 0.285203 0.325285 0.340876
v 0.285203 0.423857 0.340876
v 0.071192 0.026696 0.340876
v -0.225744 0.026696 0.340876
v 0.071192 0.522250 0.340876
v -0.225744 0.522250 0.340876
v -0.225744 0.128917 0.340876
v -0.225744 0.227011 0.340876
v -0.225744 0.325285 0.340876
v -0.225744 0.423857 0.340876
v 0.071192 0.128917 0.340876
v 0.071192 0.227011 0.340876
v 0.071192 0.325285 0.340876
v 0.071192 0.423857 0.340876
v -0.077276 0.522250 0.340876
v -0.040159 0.522250 0.340876
v -0.077276 0.465699 0.340876
v -0.151510 0.456380 0.340876
v -0.040159 0.462818 0.340876
v 0.034075 0.443816 0.340876
v 0.034075 0.522250 0.340876
v -0.151510 0.522250 0.340876
v -0.188627 0.522250 0.340876
v -0.003042 0.522250 0.340876
v -0.003042 0.456380 0.340876
v -0.188627 0.443816 0.340876
v -0.114393 0.462818 0.340876
v -0.114393 0.522250 0.340876
v -0.225809 0.776092 0.340876
v -0.225809 0.620978 0.340876
v -0.225809 0.719095 0.340876
v -0.077072 0.845976 0.340876
v -0.113944 0.828652 0.340876
v -0.040155 0.620978 0.340876
v -0.077072 0.620978 0.340876
v -0.113944 0.620978 0.340876
v -0.077072 0.719095 0.340876
v -0.113944 0.719095 0.340876
v -0.040155 0.863322 0.340876
v 0.071254 0.620978 0.340876
v 0.071254 0.719095 0.340876
v -0.040155 0.719095 0.340876
v -0.001259 0.580116 0.340876
v -0.151426 0.580116 0.340876
v -0.187703 0.580116 0.340876
v 0.033942 0.580116 0.340876
v 0.000000 0.882189 0.498594
v -0.099263 0.862841 -0.501406
v -0.355285 0.715257 0.498594
v -0.088678 0.840523 0.498594
v 0.000000 0.882189 -0.501406
v -0.088678 0.840523 -0.501406
v -0.099263 0.862841 0.498594
v -0.355285 0.715257 -0.501406
v -0.188358 0.820979 0.498594
v -0.177355 0.798858 0.498594
v 0.099263 0.862841 -0.501406
v 0.000000 0.909480 0.498594
v -0.365789 0.737613 0.498594
v 0.000000 0.909480 -0.501406
v -0.365788 0.737613 -0.501406
v 0.355285 0.715257 0.498594
v 0.088678 0.840523 0.498594
v -0.266259 0.757086 0.498594
v -0.188358 0.820979 -0.501406
v -0.266259 0.757086 -0.501406
v -0.177355 0.798858 -0.501406
v -0.277143 0.779263 0.498594
v -0.277143 0.779263 -0.501406
v -0.185899 0.816035 -0.501406
v -0.185899 0.816035 0.498594
v -0.096897 0.857852 0.498594
v -0.096897 0.857852 -0.501406
v 0.000000 0.903380 0.498594
v -0.363441 0.732616 0.498594
v -0.363441 0.732616 -0.501406
v 0.000000 0.903380 -0.501406
v 0.088678 0.840523 -0.501406
v -0.274710 0.774306 -0.501406
v -0.274710 0.774306 0.498594
v 0.099263 0.862841 0.498594
v 0.355285 0.715257 -0.501406
v 0.188358 0.820979 0.498594
v 0.177355 0.798858 0.498594
v 0.365789 0.737613 0.498594
v 0.365788 0.737613 -0.501406
v 0.266259 0.757086 0.498594
v 0.188358 0.820979 -0.501406
v 0.266259 0.757086 -0.501406
v 0.177355 0.798858 -0.501406
v 0.277143 0.779263 0.498594
v 0.277143 0.779263 -0.501406
v 0.185899 0.816035 -0.501406
v 0.185899 0.816035 0.498594
v 0.096897 0.857852 0.498594
v 0.096897 0.857852 -0.501406
v 0.363441 0.732616 0.498594
v 0.363441 0.732616 -0.501406
v 0.274710 0.774306 -0.501406
v 0.274710 0.774306 0.498594
v 0.375000 0.000000 0.474427
v 0.375000 0.026696 0.474427
v -0.375000 0.000000 0.474427
v -0.375000 0.026696 0.474427
v 0.375000 0.000000 -0.474427
v 0.375000 0.026696 -0.474427
v -0.375000 0.000000 -0.474427
v -0.375000 0.026696 -0.474427
vn 0.4253 0.9051 -0.0000
vn -0.0000 -0.0000 -1.0000
vn 0.9051 -0.4253 -0.0000
vn -0.4253 0.9051 -0.0000
vn -0.0000 -0.0000 1.0000
vn -0.9051 -0.4253 -0.0000
vn -1.0000 -0.0000 -0.0000
vn 1.0000 -0.0000 -0.0000
vn -0.0000 -1.0000 -0.0000
vn 0.1243 -0.9922 -0.0000
vn 0.2465 -0.9691 -0.0000
vn -0.4736 -0.8807 -0.0000
vn -0.3985 -0.9172 -0.0000
vn 0.3985 -0.9172 -0.0000
vn 0.4736 -0.8807 -0.0000
vn -0.2465 -0.9691 -0.0000
vn -0.1243 -0.9922 -0.0000
vn 0.4253 -0.9051 -0.0000
vn -0.4253 -0.9051 -0.0000
vn -0.0000 1.0000 -0.0000
vt 0.985410 0.359521
vt 0.977183 0.359521
vt 0.977183 0.004887
vt 0.985411 0.004887
vt 0.307415 0.278879
vt 0.314878 0.278879
vt 0.314878 0.281711
vt 0.307415 0.281711
vt 0.552625 0.991660
vt 0.552625 0.988879
vt 0.907695 0.988879
vt 0.907695 0.991660
vt 0.928893 0.284879
vt 0.928893 0.639507
vt 0.920665 0.639507
vt 0.920665 0.284879
vt 0.901457 0.004882
vt 0.904285 0.004882
vt 0.904285 0.012332
vt 0.901457 0.012332
vt 0.908328 0.639274
vt 0.908328 0.284887
vt 0.911104 0.284887
vt 0.911104 0.639274
vt 0.901457 0.019783
vt 0.904285 0.019783
vt 0.299953 0.281711
vt 0.299953 0.278879
vt 0.343539 0.314140
vt 0.323320 0.314140
vt 0.339886 0.278880
vt 0.343539 0.278880
vt 0.889988 0.004879
vt 0.893640 0.004879
vt 0.893640 0.275601
vt 0.889988 0.275601
vt 0.842596 0.400241
vt 0.900452 0.400241
vt 0.846248 0.515603
vt 0.842596 0.515603
vt 0.008538 0.639604
vt 0.004886 0.639604
vt 0.004886 0.368885
vt 0.008538 0.368885
vt 0.842596 0.284880
vt 0.846248 0.284880
vt 0.378346 0.509610
vt 0.378346 0.419521
vt 0.413369 0.419500
vt 0.413368 0.509610
vt 0.285682 0.394245
vt 0.292375 0.380000
vt 0.343539 0.380000
vt 0.343539 0.419521
vt 0.772768 0.515603
vt 0.737864 0.515603
vt 0.737864 0.400241
vt 0.772768 0.400241
vt 0.113271 0.639604
vt 0.078367 0.639604
vt 0.078367 0.368885
vt 0.113270 0.368885
vt 0.785255 0.004879
vt 0.820158 0.004879
vt 0.820159 0.275601
vt 0.785255 0.275601
vt 0.441193 0.406333
vt 0.448274 0.419500
vt 0.413369 0.406333
vt 0.772768 0.284880
vt 0.807790 0.284880
vt 0.807790 0.400241
vt 0.043345 0.639604
vt 0.043345 0.368885
vt 0.807790 0.515603
vt 0.855181 0.004878
vt 0.855181 0.275601
vt 0.378346 0.314139
vt 0.378346 0.278880
vt 0.589165 0.314163
vt 0.552902 0.314163
vt 0.552902 0.278880
vt 0.589165 0.278880
vt 0.518104 0.314163
vt 0.518104 0.278880
vt 0.483242 0.314163
vt 0.483242 0.278880
vt 0.448273 0.314162
vt 0.448274 0.278880
vt 0.644365 0.004879
vt 0.680627 0.004879
vt 0.680627 0.275601
vt 0.644365 0.275601
vt 0.715425 0.004879
vt 0.715426 0.275601
vt 0.750287 0.004879
vt 0.750287 0.275601
vt 0.254159 0.639604
vt 0.217897 0.639604
vt 0.217896 0.368885
vt 0.254159 0.368885
vt 0.183100 0.639604
vt 0.183099 0.368885
vt 0.148238 0.639604
vt 0.148238 0.368885
vt 0.413369 0.314162
vt 0.413369 0.278880
vt 0.633238 0.284880
vt 0.633238 0.400241
vt 0.596976 0.400241
vt 0.596976 0.284880
vt 0.668036 0.284880
vt 0.668036 0.400241
vt 0.702897 0.284880
vt 0.702897 0.400241
vt 0.483242 0.509610
vt 0.448273 0.509610
vt 0.483242 0.419500
vt 0.518104 0.509610
vt 0.518104 0.419500
vt 0.552902 0.509610
vt 0.552902 0.419500
vt 0.589165 0.509610
vt 0.589165 0.419500
vt 0.737864 0.284880
vt 0.441193 0.327330
vt 0.413369 0.327330
vt 0.434452 0.353664
vt 0.413369 0.353664
vt 0.413369 0.340497
vt 0.436736 0.340497
vt 0.433430 0.366831
vt 0.413369 0.366832
vt 0.434452 0.379998
vt 0.413369 0.379998
vt 0.436736 0.393165
vt 0.413369 0.393165
vt 0.633238 0.515603
vt 0.596976 0.515602
vt 0.668036 0.515603
vt 0.702897 0.515603
vt 0.378346 0.353824
vt 0.343539 0.353824
vt 0.304674 0.353824
vt 0.378346 0.366904
vt 0.343539 0.366904
vt 0.378346 0.379999
vt 0.298528 0.366904
vt 0.392841 0.393798
vt 0.392841 0.406286
vt 0.392841 0.327658
vt 0.392841 0.340527
vt 0.343539 0.509610
vt 0.339886 0.509610
vt 0.942555 0.770498
vt 0.963624 0.770498
vt 0.963624 0.774150
vt 0.942555 0.790716
vt 0.261964 0.764510
vt 0.503809 0.764510
vt 0.503809 0.768161
vt 0.261964 0.768161
vt 0.106053 0.894506
vt 0.207225 0.894505
vt 0.207225 0.898158
vt 0.106053 0.952361
vt 0.511623 0.770510
vt 0.753468 0.770510
vt 0.753468 0.774162
vt 0.511623 0.774162
vt 0.004878 0.894506
vt 0.004878 0.898158
vt 0.761283 0.735693
vt 0.761283 0.700671
vt 0.837199 0.700671
vt 0.837177 0.735693
vt 0.862453 0.828352
vt 0.837177 0.770498
vt 0.876697 0.770498
vt 0.876697 0.821660
vt 0.207225 0.824677
vt 0.106052 0.824677
vt 0.106052 0.789772
vt 0.207225 0.789772
vt 0.511623 0.665776
vt 0.753468 0.665776
vt 0.753468 0.700681
vt 0.511623 0.700681
vt 0.261964 0.659777
vt 0.503809 0.659777
vt 0.503809 0.694680
vt 0.261964 0.694680
vt 0.850365 0.672848
vt 0.850365 0.700671
vt 0.837199 0.665767
vt 0.004878 0.824677
vt 0.106053 0.859699
vt 0.004878 0.859699
vt 0.753468 0.735703
vt 0.511623 0.735703
vt 0.207225 0.859699
vt 0.261964 0.729703
vt 0.503809 0.729703
vt 0.942555 0.735692
vt 0.963624 0.735692
vt 0.942531 0.524881
vt 0.963623 0.524881
vt 0.963623 0.561143
vt 0.942531 0.561143
vt 0.963623 0.595940
vt 0.942531 0.595940
vt 0.963623 0.630800
vt 0.942531 0.630800
vt 0.963624 0.665767
vt 0.942532 0.665767
vt 0.261964 0.518887
vt 0.503809 0.518887
vt 0.503809 0.555149
vt 0.261964 0.555149
vt 0.503809 0.589947
vt 0.261964 0.589947
vt 0.503809 0.624808
vt 0.261964 0.624808
vt 0.511623 0.524887
vt 0.753468 0.524887
vt 0.753468 0.561149
vt 0.511623 0.561149
vt 0.753468 0.595947
vt 0.511623 0.595948
vt 0.753468 0.630809
vt 0.511623 0.630809
vt 0.963624 0.700671
vt 0.942532 0.700670
vt 0.004878 0.685145
vt 0.004878 0.648882
vt 0.106053 0.648883
vt 0.106053 0.685145
vt 0.004878 0.719943
vt 0.106053 0.719943
vt 0.004878 0.754804
vt 0.106052 0.754804
vt 0.761282 0.630801
vt 0.837199 0.630801
vt 0.761283 0.665768
vt 0.761282 0.595941
vt 0.837199 0.595940
vt 0.761282 0.561143
vt 0.837199 0.561143
vt 0.761282 0.524882
vt 0.837199 0.524882
vt 0.004878 0.789772
vt 0.929365 0.672847
vt 0.929365 0.700670
vt 0.903031 0.679588
vt 0.916198 0.677305
vt 0.916198 0.700671
vt 0.903031 0.700671
vt 0.889865 0.680610
vt 0.889865 0.700670
vt 0.876699 0.700671
vt 0.876698 0.679588
vt 0.863532 0.677305
vt 0.863532 0.700671
vt 0.207225 0.685144
vt 0.207225 0.648882
vt 0.207226 0.719942
vt 0.207225 0.754804
vt 0.902873 0.735693
vt 0.902873 0.770498
vt 0.902873 0.809361
vt 0.889793 0.735693
vt 0.889793 0.770498
vt 0.876697 0.735693
vt 0.889793 0.815506
vt 0.862899 0.721197
vt 0.850413 0.721198
vt 0.929037 0.721197
vt 0.916169 0.721197
vt 0.761283 0.770498
vt 0.761283 0.774150
vt 0.261969 0.458984
vt 0.261969 0.368882
vt 0.276407 0.368882
vt 0.276407 0.444795
vt 0.955178 0.276315
vt 0.955178 0.005585
vt 0.969368 0.020024
vt 0.969368 0.261876
vt 0.915895 0.276300
vt 0.915895 0.005585
vt 0.930085 0.020023
vt 0.930085 0.261862
vt 0.862982 0.284884
vt 0.898265 0.284884
vt 0.884075 0.299323
vt 0.862982 0.299323
vt 0.951147 0.456807
vt 0.951147 0.491776
vt 0.936708 0.491776
vt 0.936708 0.456807
vt 0.951147 0.421945
vt 0.936708 0.421945
vt 0.951147 0.387146
vt 0.936708 0.387146
vt 0.951147 0.350883
vt 0.936708 0.350883
vt 0.447987 0.334885
vt 0.482952 0.334884
vt 0.482952 0.349322
vt 0.447987 0.349322
vt 0.517811 0.334884
vt 0.517811 0.349322
vt 0.552607 0.334884
vt 0.552607 0.349322
vt 0.588867 0.334884
vt 0.588867 0.349322
vt 0.484389 0.373321
vt 0.471025 0.373321
vt 0.471025 0.358883
vt 0.484389 0.358882
vt 0.553018 0.373321
vt 0.538068 0.373321
vt 0.538068 0.358882
vt 0.553018 0.358882
vt 0.457124 0.373321
vt 0.442174 0.373321
vt 0.442174 0.358883
vt 0.457124 0.358883
vt 0.915895 0.045580
vt 0.915895 0.160940
vt 0.901457 0.160941
vt 0.901457 0.059769
vt 0.524167 0.373321
vt 0.524167 0.358882
vt 0.497596 0.373321
vt 0.497596 0.358882
vt 0.510803 0.373321
vt 0.510803 0.358882
vt 0.915895 0.276300
vt 0.901457 0.262111
vt 0.978271 0.509633
vt 0.980240 0.509633
vt 0.980240 0.546598
vt 0.978271 0.546598
vt 0.971440 0.940229
vt 0.971440 0.905674
vt 0.978273 0.905674
vt 0.978273 0.940229
vt 0.978271 0.438046
vt 0.978271 0.403461
vt 0.980240 0.403461
vt 0.980240 0.438046
vt 0.978271 0.615806
vt 0.980240 0.615806
vt 0.980240 0.650379
vt 0.978272 0.650379
vt 0.978272 0.368888
vt 0.980240 0.368888
vt 0.215040 0.821791
vt 0.569776 0.821790
vt 0.569776 0.856710
vt 0.215040 0.856710
vt 0.257252 0.004884
vt 0.292145 0.004884
vt 0.292145 0.359624
vt 0.257252 0.359624
vt 0.978273 0.836504
vt 0.978273 0.799558
vt 0.980241 0.799558
vt 0.980240 0.836504
vt 0.978271 0.472668
vt 0.980240 0.472668
vt 0.971440 0.658888
vt 0.978273 0.658888
vt 0.978272 0.693442
vt 0.971440 0.693442
vt 0.215040 0.891509
vt 0.569776 0.891509
vt 0.569776 0.926253
vt 0.215040 0.926253
vt 0.978271 0.581220
vt 0.980240 0.581220
vt 0.187650 0.004884
vt 0.222406 0.004884
vt 0.222407 0.359624
vt 0.187650 0.359624
vt 0.215040 0.782885
vt 0.569776 0.782885
vt 0.152893 0.004884
vt 0.152893 0.359624
vt 0.932317 0.945510
vt 0.932317 0.980254
vt 0.577585 0.980254
vt 0.577585 0.945510
vt 0.978273 0.871106
vt 0.980240 0.871106
vt 0.359467 0.971688
vt 0.359467 0.973644
vt 0.004883 0.973645
vt 0.004883 0.971688
vt 0.980240 0.905674
vt 0.980240 0.940228
vt 0.971440 0.871106
vt 0.359467 0.964887
vt 0.004883 0.964887
vt 0.971440 0.836504
vt 0.048534 0.004884
vt 0.048534 0.359624
vt 0.013641 0.359624
vt 0.013641 0.004884
vt 0.971434 0.472668
vt 0.971434 0.438046
vt 0.971434 0.509633
vt 0.971440 0.799558
vt 0.971434 0.403461
vt 0.971434 0.368888
vt 0.932317 0.875793
vt 0.932317 0.910712
vt 0.577585 0.910712
vt 0.577585 0.875793
vt 0.978273 0.762612
vt 0.980241 0.762612
vt 0.118136 0.004884
vt 0.118136 0.359624
vt 0.083379 0.359624
vt 0.083379 0.004884
vt 0.932317 0.836888
vt 0.577585 0.836888
vt 0.978273 0.728009
vt 0.980240 0.728009
vt 0.006837 0.004884
vt 0.006837 0.359624
vt 0.004878 0.359624
vt 0.004878 0.004884
vt 0.980240 0.693442
vt 0.980240 0.658888
vt 0.971440 0.728009
vt 0.013641 0.359624
vt 0.971440 0.762612
vt 0.971434 0.546598
vt 0.971434 0.581220
vt 0.971434 0.615806
vt 0.971434 0.650379
vt 0.270876 0.982886
vt 0.270876 0.992354
vt 0.004884 0.992354
vt 0.004884 0.982886
vt 0.947367 0.341582
vt 0.937895 0.341582
vt 0.937896 0.004886
vt 0.947368 0.004886
vt 0.278698 0.992352
vt 0.278698 0.982880
vt 0.544812 0.982880
vt 0.544811 0.992352
vt 0.158110 0.944353
vt 0.158110 0.934887
vt 0.494581 0.934887
vt 0.494581 0.944354
vt 0.636553 0.270939
vt 0.299955 0.270939
vt 0.299955 0.004883
vt 0.636553 0.004883
s 1
f 6/1/1 12/2/1 11/3/1 5/4/1
f 2/5/2 4/6/2 7/7/2 5/8/2
f 9/9/3 11/10/3 12/11/3 8/12/3
f 6/13/4 5/14/4 7/15/4 10/16/4
f 8/17/5 12/18/5 6/19/5 1/20/5
f 4/21/6 3/22/6 10/23/6 7/24/6
f 3/25/5 1/20/5 6/19/5 10/26/5
f 2/5/2 5/8/2 11/27/2 9/28/2
f 87/29/5 85/30/5 16/31/5 35/32/5
f 35/33/7 16/34/7 20/35/7 36/36/7
f 38/37/2 23/38/2 18/39/2 37/40/2
f 37/41/8 18/42/8 14/43/8 34/44/8
f 36/45/2 20/46/2 23/38/2 38/37/2
f 29/47/5 96/48/5 61/49/5 24/50/5
f 21/51/5 95/52/5 98/53/5 97/54/5
f 27/55/2 47/56/2 51/57/2 28/58/2
f 47/59/8 27/60/8 24/61/8 58/62/8
f 39/63/7 25/64/7 26/65/7 43/66/7
f 76/67/5 70/68/5 61/49/5 77/69/5
f 26/70/2 31/71/2 33/72/2 28/58/2
f 27/60/8 32/73/8 29/74/8 24/61/8
f 28/58/2 33/72/2 32/75/2 27/55/2
f 31/71/2 36/45/2 38/37/2 33/72/2
f 32/73/8 37/41/8 34/44/8 29/74/8
f 33/72/2 38/37/2 37/40/2 32/75/2
f 30/76/7 35/33/7 36/36/7 31/77/7
f 86/78/5 87/29/5 35/32/5 30/79/5
f 60/80/5 63/81/5 42/82/5 15/83/5
f 63/81/5 64/84/5 41/85/5 42/82/5
f 64/84/5 65/86/5 40/87/5 41/85/5
f 65/86/5 66/88/5 39/89/5 40/87/5
f 15/90/7 42/91/7 46/92/7 19/93/7
f 42/91/7 41/94/7 45/95/7 46/92/7
f 41/94/7 40/96/7 44/97/7 45/95/7
f 40/96/7 39/63/7 43/66/7 44/97/7
f 17/98/8 50/99/8 55/100/8 13/101/8
f 50/99/8 49/102/8 56/103/8 55/100/8
f 49/102/8 48/104/8 57/105/8 56/103/8
f 48/104/8 47/59/8 58/62/8 57/105/8
f 66/88/5 62/106/5 25/107/5 39/89/5
f 46/108/2 54/109/2 22/110/2 19/111/2
f 45/112/2 53/113/2 54/109/2 46/108/2
f 44/114/2 52/115/2 53/113/2 45/112/2
f 57/116/5 58/117/5 70/68/5 69/118/5
f 56/119/5 57/116/5 69/118/5 68/120/5
f 55/121/5 56/119/5 68/120/5 67/122/5
f 13/123/5 55/121/5 67/122/5 59/124/5
f 43/125/2 51/57/2 52/115/2 44/114/2
f 26/70/2 28/58/2 51/57/2 43/125/2
f 58/117/5 24/50/5 61/49/5 70/68/5
f 82/126/5 79/127/5 62/106/5 66/88/5
f 83/128/5 84/129/5 78/130/5 74/131/5
f 74/131/5 78/130/5 79/127/5 82/126/5
f 73/132/5 71/133/5 84/129/5 83/128/5
f 73/132/5 75/134/5 72/135/5 71/133/5
f 81/136/5 76/67/5 77/69/5 80/137/5
f 75/134/5 81/136/5 80/137/5 72/135/5
f 50/138/2 17/139/2 22/110/2 54/109/2
f 49/140/2 50/138/2 54/109/2 53/113/2
f 48/141/2 49/140/2 53/113/2 52/115/2
f 47/56/2 48/141/2 52/115/2 51/57/2
f 92/142/5 94/143/5 87/29/5 86/78/5
f 89/144/5 85/30/5 87/29/5 94/143/5
f 91/145/5 93/146/5 94/143/5 92/142/5
f 98/53/5 90/147/5 96/48/5 97/54/5
f 93/146/5 88/148/5 89/144/5 94/143/5
f 72/135/5 80/137/5 99/149/5 90/147/5
f 96/48/5 102/150/5 77/69/5 61/49/5
f 84/129/5 71/133/5 91/145/5 92/142/5
f 101/151/5 100/152/5 92/142/5 86/78/5
f 78/130/5 84/129/5 92/142/5 100/152/5
f 62/106/5 79/127/5 101/151/5 86/78/5
f 34/153/5 14/154/5 21/51/5 97/54/5
f 29/47/5 34/153/5 97/54/5 96/48/5
f 102/150/5 99/149/5 80/137/5 77/69/5
f 71/133/5 72/135/5 90/147/5 91/145/5
f 98/53/5 95/52/5 88/148/5 93/146/5
f 98/53/5 93/146/5 91/145/5 90/147/5
f 96/48/5 90/147/5 99/149/5 102/150/5
f 79/127/5 78/130/5 100/152/5 101/151/5
f 25/107/5 62/106/5 86/78/5 30/79/5
f 25/64/7 30/76/7 31/77/7 26/65/7
f 177/155/2 125/156/2 106/157/2 175/158/2
f 125/159/8 126/160/8 110/161/8 106/162/8
f 128/163/5 127/164/5 108/165/5 113/166/5
f 127/167/7 124/168/7 104/169/7 108/170/7
f 126/171/5 128/163/5 113/166/5 110/172/5
f 119/173/2 114/174/2 151/175/2 186/176/2
f 111/177/2 187/178/2 188/179/2 185/180/2
f 117/181/5 118/182/5 141/183/5 137/184/5
f 137/185/7 148/186/7 114/187/7 117/188/7
f 129/189/8 133/190/8 116/191/8 115/192/8
f 166/193/2 167/194/2 151/175/2 160/195/2
f 116/196/5 118/182/5 123/197/5 121/198/5
f 117/188/7 114/187/7 119/199/7 122/200/7
f 118/182/5 117/181/5 122/201/5 123/197/5
f 121/198/5 123/197/5 128/163/5 126/171/5
f 122/200/7 119/199/7 124/168/7 127/167/7
f 123/197/5 122/201/5 127/164/5 128/163/5
f 120/202/8 121/203/8 126/160/8 125/159/8
f 176/204/2 120/205/2 125/156/2 177/155/2
f 150/206/2 105/207/2 132/208/2 153/209/2
f 153/209/2 132/208/2 131/210/2 154/211/2
f 154/211/2 131/210/2 130/212/2 155/213/2
f 155/213/2 130/212/2 129/214/2 156/215/2
f 105/216/8 109/217/8 136/218/8 132/219/8
f 132/219/8 136/218/8 135/220/8 131/221/8
f 131/221/8 135/220/8 134/222/8 130/223/8
f 130/223/8 134/222/8 133/190/8 129/189/8
f 107/224/7 103/225/7 145/226/7 140/227/7
f 140/227/7 145/226/7 146/228/7 139/229/7
f 139/229/7 146/228/7 147/230/7 138/231/7
f 138/231/7 147/230/7 148/186/7 137/185/7
f 156/215/2 129/214/2 115/232/2 152/233/2
f 136/234/5 109/235/5 112/236/5 144/237/5
f 135/238/5 136/234/5 144/237/5 143/239/5
f 134/240/5 135/238/5 143/239/5 142/241/5
f 147/242/2 159/243/2 160/195/2 148/244/2
f 146/245/2 158/246/2 159/243/2 147/242/2
f 145/247/2 157/248/2 158/246/2 146/245/2
f 103/249/2 149/250/2 157/248/2 145/247/2
f 133/251/5 134/240/5 142/241/5 141/183/5
f 116/196/5 133/251/5 141/183/5 118/182/5
f 148/244/2 160/195/2 151/175/2 114/174/2
f 172/252/2 156/215/2 152/233/2 169/253/2
f 173/254/2 164/255/2 168/256/2 174/257/2
f 164/255/2 172/252/2 169/253/2 168/256/2
f 163/258/2 173/254/2 174/257/2 161/259/2
f 163/258/2 161/259/2 162/260/2 165/261/2
f 171/262/2 170/263/2 167/194/2 166/193/2
f 165/261/2 162/260/2 170/263/2 171/262/2
f 140/264/5 144/237/5 112/236/5 107/265/5
f 139/266/5 143/239/5 144/237/5 140/264/5
f 138/267/5 142/241/5 143/239/5 139/266/5
f 137/184/5 141/183/5 142/241/5 138/267/5
f 182/268/2 176/204/2 177/155/2 184/269/2
f 179/270/2 184/269/2 177/155/2 175/158/2
f 181/271/2 182/268/2 184/269/2 183/272/2
f 188/179/2 187/178/2 186/176/2 180/273/2
f 183/272/2 184/269/2 179/270/2 178/274/2
f 162/260/2 180/273/2 189/275/2 170/263/2
f 186/176/2 151/175/2 167/194/2 192/276/2
f 174/257/2 182/268/2 181/271/2 161/259/2
f 191/277/2 176/204/2 182/268/2 190/278/2
f 168/256/2 190/278/2 182/268/2 174/257/2
f 152/233/2 176/204/2 191/277/2 169/253/2
f 124/279/2 187/178/2 111/177/2 104/280/2
f 119/173/2 186/176/2 187/178/2 124/279/2
f 192/276/2 167/194/2 170/263/2 189/275/2
f 161/259/2 181/271/2 180/273/2 162/260/2
f 188/179/2 183/272/2 178/274/2 185/180/2
f 188/179/2 180/273/2 181/271/2 183/272/2
f 186/176/2 192/276/2 189/275/2 180/273/2
f 169/253/2 191/277/2 190/278/2 168/256/2
f 115/232/2 120/205/2 176/204/2 152/233/2
f 115/192/8 116/191/8 121/203/8 120/202/8
f 13/281/9 59/282/9 149/283/9 103/284/9
f 15/285/9 19/286/9 109/287/9 105/288/9
f 17/289/9 13/290/9 103/291/9 107/292/9
f 60/293/9 15/294/9 105/295/9 150/296/9
f 69/297/7 70/298/7 160/299/7 159/300/7
f 68/301/7 69/297/7 159/300/7 158/302/7
f 67/303/7 68/301/7 158/302/7 157/304/7
f 59/305/7 67/303/7 157/304/7 149/306/7
f 66/307/8 65/308/8 155/309/8 156/310/8
f 65/308/8 64/311/8 154/312/8 155/309/8
f 64/311/8 63/313/8 153/314/8 154/312/8
f 63/313/8 60/315/8 150/316/8 153/314/8
f 83/317/10 74/318/11 164/319/11 173/320/10
f 70/321/12 76/322/13 166/323/13 160/324/12
f 82/325/14 66/326/15 156/327/15 172/328/14
f 19/329/9 22/330/9 112/331/9 109/332/9
f 74/318/11 82/325/14 172/328/14 164/319/11
f 76/322/13 81/333/16 171/334/16 166/323/13
f 73/335/9 83/317/10 173/320/10 163/336/9
f 81/333/16 75/337/17 165/338/17 171/334/16
f 75/337/17 73/335/9 163/336/9 165/338/17
f 22/330/9 17/339/9 107/340/9 112/331/9
f 223/341/2 206/342/2 203/343/2 242/344/2
f 195/345/5 210/346/5 226/347/5 221/348/5
f 216/349/2 225/350/2 215/351/2 211/352/2
f 245/353/2 238/354/2 232/355/2 244/356/2
f 225/350/2 222/357/2 207/358/2 215/351/2
f 199/359/4 194/360/4 211/361/4 201/362/4
f 210/363/18 195/364/18 200/365/18 212/366/18
f 218/367/5 220/368/5 204/369/5 199/370/5
f 223/341/2 219/371/2 194/372/2 206/342/2
f 208/373/5 243/374/5 246/375/5 233/376/5
f 214/377/4 215/378/4 207/379/4 205/380/4
f 239/381/2 234/382/2 238/354/2 245/353/2
f 196/383/18 202/384/18 213/385/18 198/386/18
f 204/387/4 206/388/4 194/360/4 199/359/4
f 193/389/18 196/383/18 198/386/18 197/390/18
f 219/371/2 216/349/2 211/352/2 194/372/2
f 237/391/1 231/392/1 232/393/1 238/394/1
f 201/362/4 211/361/4 215/378/4 214/377/4
f 202/384/18 210/363/18 212/366/18 213/385/18
f 217/395/5 218/367/5 199/370/5 201/396/5
f 221/397/6 205/398/6 207/399/6 222/400/6
f 226/347/5 217/395/5 201/396/5 214/401/5
f 221/348/5 226/347/5 214/401/5 205/402/5
f 210/346/5 202/403/5 217/395/5 226/347/5
f 195/404/6 221/397/6 222/400/6 200/405/6
f 202/403/5 196/406/5 218/367/5 217/395/5
f 233/407/19 235/408/19 228/409/19 208/410/19
f 198/411/2 213/412/2 216/349/2 219/371/2
f 197/413/2 198/411/2 219/371/2 223/341/2
f 196/406/5 193/414/5 220/368/5 218/367/5
f 212/415/2 200/416/2 222/357/2 225/350/2
f 227/417/1 229/418/1 234/419/1 203/420/1
f 213/412/2 212/415/2 225/350/2 216/349/2
f 241/421/5 227/422/5 204/369/5 220/368/5
f 209/423/19 224/424/19 236/425/19 230/426/19
f 204/427/1 227/417/1 203/420/1 206/428/1
f 193/389/19 197/390/19 224/424/19 209/423/19
f 242/344/2 203/343/2 234/382/2 239/381/2
f 229/418/1 237/391/1 238/394/1 234/419/1
f 230/426/19 236/425/19 235/408/19 233/407/19
f 240/429/5 229/430/5 227/422/5 241/421/5
f 243/431/3 244/432/3 232/433/3 231/434/3
f 246/375/5 237/435/5 229/430/5 240/429/5
f 243/374/5 231/436/5 237/435/5 246/375/5
f 233/376/5 246/375/5 240/429/5 230/437/5
f 208/410/3 228/438/3 244/432/3 243/431/3
f 230/437/5 240/429/5 241/421/5 209/439/5
f 224/440/2 242/344/2 239/381/2 236/441/2
f 197/413/2 223/341/2 242/344/2 224/440/2
f 209/439/5 241/421/5 220/368/5 193/414/5
f 235/442/2 245/353/2 244/356/2 228/443/2
f 236/441/2 239/381/2 245/353/2 235/442/2
f 247/444/5 248/445/5 250/446/5 249/447/5
f 249/448/7 250/449/7 254/450/7 253/451/7
f 253/452/2 254/453/2 252/454/2 251/455/2
f 251/456/8 252/457/8 248/458/8 247/459/8
f 254/460/20 250/461/20 248/462/20 252/463/20
