# Blender 4.1.1
# www.blender.org
o glue_bottle_01
v 0.000000 0.061101 -0.014819
v 0.005671 0.061101 -0.013691
v 0.010479 0.061101 -0.010479
v 0.013691 0.061101 -0.005671
v 0.014819 0.061101 0.000000
v 0.013691 0.061101 0.005671
v 0.010479 0.061101 0.010479
v 0.005671 0.061101 0.013691
v 0.000000 0.061101 0.014819
v -0.005671 0.061101 0.013691
v -0.010479 0.061101 0.010479
v -0.013691 0.061101 0.005671
v -0.014819 0.061101 0.000000
v -0.013691 0.061101 -0.005671
v -0.010479 0.061101 -0.010479
v -0.005671 0.061101 -0.013691
v 0.002626 0.078537 -0.006339
v 0.000000 0.078537 -0.006862
v 0.004852 0.078537 -0.004852
v 0.006339 0.078537 -0.002626
v 0.006862 0.078537 -0.000000
v 0.006339 0.078537 0.002626
v 0.004852 0.078537 0.004852
v 0.002626 0.078537 0.006339
v 0.000000 0.078537 0.006862
v -0.002626 0.078537 0.006339
v -0.004852 0.078537 0.004852
v -0.006339 0.078537 0.002626
v -0.006862 0.078537 -0.000000
v -0.006339 0.078537 -0.002626
v -0.004852 0.078537 -0.004852
v -0.002626 0.078537 -0.006339
v 0.002215 0.081449 -0.005348
v 0.000000 0.081449 -0.005789
v 0.004093 0.081449 -0.004093
v 0.005348 0.081449 -0.002215
v 0.005789 0.081449 -0.000000
v 0.005348 0.081449 0.002215
v 0.004093 0.081449 0.004093
v 0.002215 0.081449 0.005348
v 0.000000 0.081449 0.005789
v -0.002215 0.081449 0.005348
v -0.004093 0.081449 0.004093
v -0.005348 0.081449 0.002215
v -0.005789 0.081449 -0.000000
v -0.005348 0.081449 -0.002215
v -0.004093 0.081449 -0.004093
v -0.002215 0.081449 -0.005348
v 0.002626 0.081449 -0.006339
v 0.000000 0.081449 -0.006862
v 0.004852 0.081449 -0.004852
v 0.006339 0.081449 -0.002626
v 0.006862 0.081449 -0.000000
v 0.006339 0.081449 0.002626
v 0.004852 0.081449 0.004852
v 0.002626 0.081449 0.006339
v 0.000000 0.081449 0.006862
v -0.002626 0.081449 0.006339
v -0.004852 0.081449 0.004852
v -0.006339 0.081449 0.002626
v -0.006862 0.081449 -0.000000
v -0.006339 0.081449 -0.002626
v -0.004852 0.081449 -0.004852
v -0.002626 0.081449 -0.006339
v 0.001336 0.092730 -0.003226
v 0.000000 0.092730 -0.003492
v 0.002469 0.092730 -0.002469
v 0.003226 0.092730 -0.001336
v 0.003492 0.092730 -0.000000
v 0.003226 0.092730 0.001336
v 0.002469 0.092730 0.002469
v 0.001336 0.092730 0.003226
v 0.000000 0.092730 0.003492
v -0.001336 0.092730 0.003226
v -0.002469 0.092730 0.002469
v -0.003226 0.092730 0.001336
v -0.003492 0.092730 -0.000000
v -0.003226 0.092730 -0.001336
v -0.002469 0.092730 -0.002469
v -0.001336 0.092730 -0.003226
v 0.000503 0.100181 -0.001214
v 0.000000 0.100181 -0.001314
v 0.000929 0.100181 -0.000929
v 0.001214 0.100181 -0.000503
v 0.001314 0.100181 -0.000000
v 0.001214 0.100181 0.000503
v 0.000929 0.100181 0.000929
v 0.000503 0.100181 0.001214
v 0.000000 0.100181 0.001314
v -0.000503 0.100181 0.001214
v -0.000929 0.100181 0.000929
v -0.001214 0.100181 0.000503
v -0.001314 0.100181 -0.000000
v -0.001214 0.100181 -0.000503
v -0.000929 0.100181 -0.000929
v -0.000503 0.100181 -0.001214
v 0.009223 0.066549 0.000000
v 0.008521 0.066549 0.003529
v -0.003529 0.066549 0.008521
v -0.006522 0.066549 0.006522
v -0.006522 0.066549 -0.006522
v -0.003529 0.066549 -0.008521
v 0.006522 0.066549 -0.006522
v 0.008521 0.066549 -0.003529
v 0.003529 0.066549 0.008521
v 0.000000 0.066549 0.009223
v 0.000000 0.066549 -0.009223
v 0.003529 0.066549 -0.008521
v -0.009223 0.066549 0.000000
v -0.008521 0.066549 -0.003529
v 0.006522 0.066549 0.006522
v -0.008521 0.066549 0.003529
v 0.008520 0.063351 0.003529
v -0.006521 0.063351 0.006521
v -0.003529 0.063351 -0.008520
v 0.008520 0.063351 -0.003529
v 0.000000 0.063351 0.009222
v 0.003529 0.063351 -0.008520
v -0.008520 0.063351 -0.003529
v 0.006521 0.063351 0.006521
v -0.008520 0.063351 0.003529
v 0.009222 0.063351 0.000000
v -0.003529 0.063351 0.008520
v -0.006521 0.063351 -0.006521
v 0.006521 0.063351 -0.006521
v 0.003529 0.063351 0.008520
v 0.000000 0.063351 -0.009222
v -0.009222 0.063351 0.000000
v 0.012812 0.062213 0.005307
v -0.009806 0.062213 0.009806
v -0.005307 0.062213 -0.012812
v 0.012812 0.062213 -0.005307
v 0.000000 0.062213 0.013868
v 0.005307 0.062213 -0.012812
v -0.012812 0.062213 -0.005307
v 0.009806 0.062213 0.009806
v -0.012812 0.062213 0.005307
v 0.013868 0.062213 0.000000
v -0.005307 0.062213 0.012812
v -0.009806 0.062213 -0.009806
v 0.009806 0.062213 -0.009806
v 0.005307 0.062213 0.012812
v 0.000000 0.062213 -0.013868
v -0.013868 0.062213 0.000000
v 0.011750 0.063017 0.000000
v -0.004496 0.063017 0.010855
v -0.008308 0.063017 -0.008308
v 0.008308 0.063017 -0.008308
v 0.004496 0.063017 0.010855
v 0.000000 0.063017 -0.011750
v -0.011750 0.063017 0.000000
v 0.010855 0.063017 0.004496
v -0.008308 0.063017 0.008308
v -0.004496 0.063017 -0.010855
v 0.010855 0.063017 -0.004496
v 0.000000 0.063017 0.011750
v 0.004496 0.063017 -0.010855
v -0.010855 0.063017 -0.004496
v 0.008308 0.063017 0.008308
v -0.010855 0.063017 0.004496
v 0.000000 0.000424 -0.008405
v 0.000000 0.003022 -0.014819
v 0.000000 0.000885 -0.013917
v 0.003216 0.000424 -0.007765
v 0.005671 0.003022 -0.013691
v 0.005326 0.000885 -0.012858
v 0.005943 0.000424 -0.005943
v 0.010479 0.003022 -0.010479
v 0.009841 0.000885 -0.009841
v 0.007765 0.000424 -0.003216
v 0.013691 0.003022 -0.005671
v 0.012858 0.000885 -0.005326
v 0.008405 0.000424 -0.000000
v 0.014819 0.003022 0.000000
v 0.013917 0.000885 -0.000000
v 0.007765 0.000424 0.003216
v 0.013691 0.003022 0.005671
v 0.012858 0.000885 0.005326
v 0.005943 0.000424 0.005943
v 0.010479 0.003022 0.010479
v 0.009841 0.000885 0.009841
v 0.003216 0.000424 0.007765
v 0.005671 0.003022 0.013691
v 0.005326 0.000885 0.012858
v 0.000000 0.000424 0.008405
v 0.000000 0.003022 0.014819
v 0.000000 0.000885 0.013917
v -0.003216 0.000424 0.007765
v -0.005671 0.003022 0.013691
v -0.005326 0.000885 0.012858
v -0.005943 0.000424 0.005943
v -0.010479 0.003022 0.010479
v -0.009841 0.000885 0.009841
v -0.007765 0.000424 0.003216
v -0.013691 0.003022 0.005671
v -0.012858 0.000885 0.005326
v -0.008405 0.000424 0.000000
v -0.014819 0.003022 0.000000
v -0.013917 0.000885 0.000000
v -0.007765 0.000424 -0.003216
v -0.013691 0.003022 -0.005671
v -0.012858 0.000885 -0.005326
v -0.005943 0.000424 -0.005943
v -0.010479 0.003022 -0.010479
v -0.009841 0.000885 -0.009841
v -0.003216 0.000424 -0.007765
v -0.005671 0.003022 -0.013691
v -0.005326 0.000885 -0.012858
v 0.001684 0.092486 -0.004065
v 0.001887 0.091857 -0.004556
v 0.001821 0.092247 -0.004397
v 0.000000 0.091857 -0.004932
v 0.000000 0.092486 -0.004400
v 0.000000 0.092247 -0.004759
v 0.003112 0.092486 -0.003112
v 0.003487 0.091857 -0.003487
v 0.003365 0.092247 -0.003365
v 0.004065 0.092486 -0.001684
v 0.004556 0.091857 -0.001887
v 0.004397 0.092247 -0.001821
v 0.004400 0.092486 -0.000000
v 0.004932 0.091857 -0.000000
v 0.004759 0.092247 -0.000000
v 0.004065 0.092486 0.001684
v 0.004556 0.091857 0.001887
v 0.004397 0.092247 0.001821
v 0.003112 0.092486 0.003112
v 0.003487 0.091857 0.003487
v 0.003365 0.092247 0.003365
v 0.001684 0.092486 0.004065
v 0.001887 0.091857 0.004556
v 0.001821 0.092247 0.004397
v 0.000000 0.092486 0.004400
v 0.000000 0.091857 0.004932
v 0.000000 0.092247 0.004759
v -0.001684 0.092486 0.004065
v -0.001887 0.091857 0.004556
v -0.001821 0.092247 0.004397
v -0.003112 0.092486 0.003112
v -0.003487 0.091857 0.003487
v -0.003365 0.092247 0.003365
v -0.004065 0.092486 0.001684
v -0.004556 0.091857 0.001887
v -0.004397 0.092247 0.001821
v -0.004400 0.092486 -0.000000
v -0.004932 0.091857 -0.000000
v -0.004759 0.092247 -0.000000
v -0.004065 0.092486 -0.001684
v -0.004556 0.091857 -0.001887
v -0.004397 0.092247 -0.001821
v -0.003112 0.092486 -0.003112
v -0.003487 0.091857 -0.003487
v -0.003365 0.092247 -0.003365
v -0.001684 0.092486 -0.004065
v -0.001887 0.091857 -0.004556
v -0.001821 0.092247 -0.004397
v 0.004492 0.000000 -0.010845
v 0.000000 0.000000 -0.011738
v 0.008300 0.000000 -0.008300
v 0.010845 0.000000 -0.004492
v 0.011738 0.000000 -0.000000
v 0.010845 0.000000 0.004492
v 0.008300 0.000000 0.008300
v 0.004492 0.000000 0.010845
v 0.000000 0.000000 0.011738
v -0.004492 0.000000 0.010845
v -0.008300 0.000000 0.008300
v -0.010845 0.000000 0.004492
v -0.011738 0.000000 0.000000
v -0.010845 0.000000 -0.004492
v -0.008300 0.000000 -0.008300
v -0.004492 0.000000 -0.010845
v 0.000000 0.000424 -0.000000
v 0.000769 0.100181 -0.001856
v 0.000997 0.099666 -0.002406
v 0.000919 0.100030 -0.002220
v 0.000000 0.099666 -0.002604
v 0.000000 0.100181 -0.002009
v 0.000000 0.100030 -0.002403
v 0.001421 0.100181 -0.001421
v 0.001842 0.099666 -0.001842
v 0.001699 0.100030 -0.001699
v 0.001856 0.100181 -0.000769
v 0.002406 0.099666 -0.000997
v 0.002220 0.100030 -0.000919
v 0.002009 0.100181 -0.000000
v 0.002604 0.099666 -0.000000
v 0.002403 0.100030 -0.000000
v 0.001856 0.100181 0.000769
v 0.002406 0.099666 0.000997
v 0.002220 0.100030 0.000919
v 0.001421 0.100181 0.001421
v 0.001842 0.099666 0.001842
v 0.001699 0.100030 0.001699
v 0.000769 0.100181 0.001856
v 0.000997 0.099666 0.002406
v 0.000919 0.100030 0.002220
v 0.000000 0.100181 0.002009
v 0.000000 0.099666 0.002604
v 0.000000 0.100030 0.002403
v -0.000769 0.100181 0.001856
v -0.000997 0.099666 0.002406
v -0.000919 0.100030 0.002220
v -0.001421 0.100181 0.001421
v -0.001842 0.099666 0.001842
v -0.001699 0.100030 0.001699
v -0.001856 0.100181 0.000769
v -0.002406 0.099666 0.000997
v -0.002220 0.100030 0.000919
v -0.002009 0.100181 -0.000000
v -0.002604 0.099666 -0.000000
v -0.002403 0.100030 -0.000000
v -0.001856 0.100181 -0.000769
v -0.002406 0.099666 -0.000997
v -0.002220 0.100030 -0.000919
v -0.001421 0.100181 -0.001421
v -0.001842 0.099666 -0.001842
v -0.001699 0.100030 -0.001699
v -0.000769 0.100181 -0.001856
v -0.000997 0.099666 -0.002406
v -0.000919 0.100030 -0.002220
v 0.004309 0.067658 -0.010403
v 0.003981 0.066701 -0.009611
v 0.000000 0.066701 -0.010403
v 0.000000 0.067658 -0.011260
v 0.007962 0.067658 -0.007962
v 0.007356 0.066701 -0.007356
v 0.010403 0.067658 -0.004309
v 0.009611 0.066701 -0.003981
v 0.011260 0.067658 0.000000
v 0.010403 0.066701 0.000000
v 0.010403 0.067658 0.004309
v 0.009611 0.066701 0.003981
v 0.007962 0.067658 0.007962
v 0.007356 0.066701 0.007356
v 0.004309 0.067658 0.010403
v 0.003981 0.066701 0.009611
v 0.000000 0.067658 0.011260
v 0.000000 0.066701 0.010403
v -0.004309 0.067658 0.010403
v -0.003981 0.066701 0.009611
v -0.007962 0.067658 0.007962
v -0.007356 0.066701 0.007356
v -0.010403 0.067658 0.004309
v -0.009611 0.066701 0.003981
v -0.011260 0.067658 0.000000
v -0.010403 0.066701 0.000000
v -0.010403 0.067658 -0.004309
v -0.009611 0.066701 -0.003981
v -0.007962 0.067658 -0.007962
v -0.007356 0.066701 -0.007356
v -0.004309 0.067658 -0.010403
v -0.003981 0.066701 -0.009611
v 0.003978 0.078537 -0.009604
v 0.004309 0.077690 -0.010403
v 0.000000 0.077690 -0.011260
v 0.000000 0.078537 -0.010395
v 0.007351 0.078537 -0.007351
v 0.007962 0.077690 -0.007962
v 0.009604 0.078537 -0.003978
v 0.010403 0.077690 -0.004309
v 0.010395 0.078537 0.000000
v 0.011260 0.077690 0.000000
v 0.009604 0.078537 0.003978
v 0.010403 0.077690 0.004309
v 0.007351 0.078537 0.007351
v 0.007962 0.077690 0.007962
v 0.003978 0.078537 0.009604
v 0.004309 0.077690 0.010403
v 0.000000 0.078537 0.010395
v 0.000000 0.077690 0.011260
v -0.003978 0.078537 0.009604
v -0.004309 0.077690 0.010403
v -0.007351 0.078537 0.007351
v -0.007962 0.077690 0.007962
v -0.009604 0.078537 0.003978
v -0.010403 0.077690 0.004309
v -0.010395 0.078537 0.000000
v -0.011260 0.077690 0.000000
v -0.009604 0.078537 -0.003978
v -0.010403 0.077690 -0.004309
v -0.007351 0.078537 -0.007351
v -0.007962 0.077690 -0.007962
v -0.003978 0.078537 -0.009604
v -0.004309 0.077690 -0.010403
v 0.000000 0.100181 0.000000
vn -0.3826 -0.0146 -0.9238
vn -0.3826 0.0156 -0.9238
vn -0.0000 0.0156 -0.9999
vn -0.0000 -0.0146 -0.9999
vn 0.7070 -0.0146 -0.7070
vn 0.7070 0.0156 -0.7070
vn 0.9238 0.0156 -0.3826
vn 0.9238 -0.0146 -0.3826
vn 0.9999 0.0156 -0.0000
vn 0.9999 -0.0146 -0.0000
vn 0.9238 0.0156 0.3826
vn 0.9238 -0.0146 0.3827
vn 0.7070 0.0156 0.7070
vn 0.7070 -0.0146 0.7070
vn 0.3826 0.0156 0.9238
vn 0.3826 -0.0146 0.9238
vn -0.0000 0.0156 0.9999
vn -0.0000 -0.0146 0.9999
vn -0.3826 0.0156 0.9238
vn -0.3827 -0.0146 0.9238
vn -0.7070 0.0156 0.7070
vn -0.7070 -0.0146 0.7070
vn -0.9238 0.0156 0.3826
vn -0.9238 -0.0146 0.3826
vn -0.9999 0.0156 -0.0000
vn -0.9999 -0.0146 -0.0000
vn -0.9238 0.0156 -0.3826
vn -0.9238 -0.0146 -0.3827
vn -0.7070 0.0156 -0.7070
vn -0.7070 -0.0146 -0.7070
vn 0.7071 -0.0000 0.7071
vn 0.9239 -0.0000 0.3827
vn 0.3826 -0.0146 -0.9238
vn 0.3826 0.0156 -0.9238
vn -0.7071 -0.0000 -0.7071
vn -0.9239 -0.0000 -0.3827
vn -0.9239 -0.0000 0.3827
vn -0.7071 -0.0000 0.7071
vn -0.0000 1.0000 -0.0000
vn 1.0000 -0.0000 -0.0000
vn 0.9239 -0.0000 -0.3827
vn -0.3827 -0.0000 0.9239
vn -0.0000 -0.0000 1.0000
vn -0.0000 -0.0000 -1.0000
vn -0.3827 -0.0000 -0.9239
vn -1.0000 -0.0000 -0.0000
vn 0.3827 -0.0000 0.9239
vn 0.7071 -0.0000 -0.7071
vn 0.3827 -0.0000 -0.9239
vn -0.1175 -0.9919 -0.0487
vn -0.1272 -0.9919 -0.0000
vn 0.0899 -0.9919 0.0899
vn 0.1175 -0.9919 0.0487
vn -0.0899 -0.9919 -0.0899
vn 0.0487 -0.9919 0.1175
vn -0.0487 -0.9919 -0.1175
vn -0.0000 -0.9919 0.1272
vn 0.0899 -0.9919 -0.0899
vn 0.0487 -0.9919 -0.1175
vn -0.0000 -0.9919 -0.1272
vn -0.0487 -0.9919 0.1175
vn -0.0899 -0.9919 0.0899
vn 0.1175 -0.9919 -0.0487
vn -0.1175 -0.9919 0.0487
vn 0.1272 -0.9919 -0.0000
vn -0.3386 0.9304 0.1402
vn -0.2591 0.9304 0.2591
vn -0.1838 0.9656 0.1838
vn -0.2401 0.9656 0.0995
vn 0.3665 0.9304 -0.0000
vn 0.3386 0.9304 -0.1402
vn 0.2401 0.9656 -0.0995
vn 0.2599 0.9656 -0.0000
vn -0.3665 0.9304 -0.0000
vn -0.2599 0.9656 -0.0000
vn 0.3386 0.9304 0.1402
vn 0.2401 0.9656 0.0995
vn -0.3386 0.9304 -0.1402
vn -0.2401 0.9656 -0.0995
vn 0.2591 0.9304 0.2591
vn 0.1838 0.9656 0.1838
vn -0.2591 0.9304 -0.2591
vn -0.1838 0.9656 -0.1838
vn 0.1402 0.9304 0.3386
vn 0.0995 0.9656 0.2401
vn -0.3814 0.0821 -0.9208
vn -0.7047 0.0821 -0.7047
vn -0.7040 0.0938 -0.7040
vn -0.3810 0.0938 -0.9198
vn -0.0000 0.9304 0.3665
vn -0.0000 0.9656 0.2599
vn -0.1402 0.9304 -0.3386
vn -0.0995 0.9656 -0.2401
vn -0.1402 0.9304 0.3386
vn -0.0995 0.9656 0.2401
vn 0.2591 0.9304 -0.2591
vn 0.1402 0.9304 -0.3386
vn 0.0995 0.9656 -0.2401
vn 0.1838 0.9656 -0.1838
vn 0.3814 0.0821 -0.9208
vn -0.0000 0.0821 -0.9966
vn -0.0000 0.0938 -0.9956
vn 0.3810 0.0938 -0.9198
vn 0.1148 0.9867 0.1148
vn 0.1500 0.9867 0.0621
vn -0.0000 0.0821 0.9966
vn 0.3814 0.0821 0.9208
vn 0.3810 0.0938 0.9198
vn -0.0000 0.0938 0.9956
vn 0.7047 0.0821 -0.7047
vn 0.7040 0.0938 -0.7040
vn -0.3814 0.0821 0.9208
vn -0.3810 0.0938 0.9198
vn -0.0000 0.9304 -0.3665
vn -0.0000 0.9656 -0.2599
vn -0.7047 0.0821 0.7047
vn -0.7040 0.0938 0.7040
vn 0.9208 0.0821 -0.3814
vn 0.9198 0.0938 -0.3810
vn -0.9208 0.0821 0.3814
vn -0.9198 0.0938 0.3810
vn 0.9966 0.0821 -0.0000
vn 0.9956 0.0938 -0.0000
vn -0.9966 0.0821 -0.0000
vn -0.9956 0.0938 -0.0000
vn 0.9208 0.0821 0.3814
vn 0.9198 0.0938 0.3810
vn -0.9208 0.0821 -0.3814
vn -0.9198 0.0938 -0.3810
vn 0.7047 0.0821 0.7047
vn 0.7040 0.0938 0.7040
vn -0.1148 0.9867 -0.1148
vn -0.1500 0.9867 -0.0621
vn 0.0621 0.9867 0.1500
vn -0.0621 0.9867 -0.1500
vn -0.0000 0.9867 0.1624
vn -0.0621 0.9867 0.1500
vn 0.1148 0.9867 -0.1148
vn 0.0621 0.9867 -0.1500
vn 0.1500 0.9867 -0.0621
vn -0.1148 0.9867 0.1148
vn 0.3796 0.1269 -0.9164
vn -0.0000 0.1269 -0.9919
vn -0.0000 0.1441 -0.9896
vn 0.3787 0.1441 -0.9142
vn -0.1500 0.9867 0.0621
vn 0.1624 0.9867 -0.0000
vn -0.1624 0.9867 -0.0000
vn -1.0000 -0.0003 -0.0000
vn -0.9239 -0.0003 0.3827
vn 0.3827 -0.0003 0.9239
vn 0.7071 -0.0003 0.7071
vn 0.7071 -0.0003 -0.7071
vn 0.3827 -0.0003 -0.9239
vn -0.7071 -0.0003 -0.7071
vn -0.9239 -0.0003 -0.3827
vn -0.3827 -0.0003 0.9239
vn -0.0000 -0.0003 1.0000
vn 1.0000 -0.0003 -0.0000
vn 0.9239 -0.0003 -0.3827
vn -0.0000 -0.0003 -1.0000
vn -0.3827 -0.0003 -0.9239
vn -0.7071 -0.0003 0.7071
vn 0.9239 -0.0003 0.3827
vn 0.2302 0.9685 0.0954
vn 0.2492 0.9685 -0.0000
vn 0.1313 0.9913 -0.0000
vn 0.1213 0.9913 0.0503
vn -0.1762 0.9685 0.1762
vn -0.0954 0.9685 0.2302
vn -0.0503 0.9913 0.1213
vn -0.0929 0.9913 0.0929
vn -0.0954 0.9685 -0.2302
vn -0.1762 0.9685 -0.1762
vn -0.0929 0.9913 -0.0929
vn -0.0503 0.9913 -0.1213
vn 0.2302 0.9685 -0.0954
vn 0.1762 0.9685 -0.1762
vn 0.0929 0.9913 -0.0929
vn 0.1213 0.9913 -0.0503
vn -0.0000 0.9685 0.2492
vn 0.0954 0.9685 0.2302
vn 0.0503 0.9913 0.1213
vn -0.0000 0.9913 0.1313
vn 0.0954 0.9685 -0.2302
vn -0.0000 0.9685 -0.2492
vn -0.0000 0.9913 -0.1313
vn 0.0503 0.9913 -0.1213
vn -0.2302 0.9685 -0.0954
vn -0.2492 0.9685 -0.0000
vn -0.1313 0.9913 -0.0000
vn -0.1213 0.9913 -0.0503
vn 0.1762 0.9685 0.1762
vn 0.0929 0.9913 0.0929
vn -0.2302 0.9685 0.0954
vn -0.1213 0.9913 0.0503
vn -0.5000 0.8409 0.2071
vn -0.5412 0.8409 -0.0000
vn 0.3827 0.8409 0.3827
vn 0.2071 0.8409 0.5000
vn 0.2071 0.8409 -0.5000
vn 0.3827 0.8409 -0.3827
vn -0.5000 0.8409 -0.2071
vn -0.3827 0.8409 -0.3827
vn -0.0000 0.8409 0.5412
vn -0.2071 0.8409 0.5000
vn 0.5000 0.8409 -0.2071
vn 0.5412 0.8409 -0.0000
vn -0.2071 0.8409 -0.5000
vn -0.0000 0.8409 -0.5412
vn -0.3827 0.8409 0.3827
vn 0.5000 0.8409 0.2071
vn 0.2743 -0.6973 -0.6622
vn -0.0000 -0.6973 -0.7168
vn 0.0438 -0.9934 -0.1056
vn -0.0000 -0.9934 -0.1143
vn 0.5068 -0.6973 -0.5068
vn 0.0808 -0.9934 -0.0808
vn 0.6622 -0.6973 -0.2743
vn 0.1056 -0.9934 -0.0438
vn 0.7168 -0.6973 -0.0000
vn 0.1143 -0.9934 -0.0000
vn 0.6622 -0.6973 0.2743
vn 0.1056 -0.9934 0.0438
vn 0.5068 -0.6973 0.5068
vn 0.0808 -0.9934 0.0808
vn 0.2743 -0.6973 0.6622
vn 0.0438 -0.9934 0.1056
vn -0.0000 -0.6973 0.7168
vn -0.0000 -0.9934 0.1143
vn -0.2743 -0.6973 0.6622
vn -0.0438 -0.9934 0.1056
vn -0.5068 -0.6973 0.5068
vn -0.0808 -0.9934 0.0808
vn -0.6622 -0.6973 0.2743
vn -0.1056 -0.9934 0.0438
vn -0.7168 -0.6973 -0.0000
vn -0.1143 -0.9934 -0.0000
vn -0.6622 -0.6973 -0.2743
vn -0.1056 -0.9934 -0.0438
vn -0.5068 -0.6973 -0.5068
vn -0.0808 -0.9934 -0.0808
vn -0.2743 -0.6973 -0.6622
vn -0.0438 -0.9934 -0.1056
vn -0.0000 0.6389 -0.7693
vn 0.2944 0.6389 -0.7107
vn 0.5439 0.6389 -0.5439
vn 0.7107 0.6389 -0.2944
vn 0.7693 0.6389 -0.0000
vn 0.7107 0.6389 0.2944
vn 0.5439 0.6389 0.5439
vn 0.2944 0.6389 0.7107
vn -0.0000 0.6389 0.7693
vn -0.2944 0.6389 0.7107
vn -0.5439 0.6389 0.5439
vn -0.7107 0.6389 0.2944
vn -0.7693 0.6389 -0.0000
vn -0.7107 0.6389 -0.2944
vn -0.5439 0.6389 -0.5439
vn -0.2944 0.6389 -0.7107
vn -0.0237 -0.9981 0.0572
vn -0.0000 -0.9992 0.0410
vn -0.0290 -0.9992 0.0290
vn -0.0572 -0.9981 0.0237
vn -0.0410 -0.9992 -0.0000
vn -0.0572 -0.9981 -0.0237
vn -0.0290 -0.9992 -0.0290
vn -0.0237 -0.9981 -0.0572
vn -0.0000 -0.9992 -0.0410
vn 0.0237 -0.9981 -0.0572
vn 0.0290 -0.9992 -0.0290
vn 0.0572 -0.9981 -0.0237
vn 0.0410 -0.9992 -0.0000
vn 0.0572 -0.9981 0.0237
vn 0.0290 -0.9992 0.0290
vn 0.0237 -0.9981 0.0572
vn -0.0000 -1.0000 -0.0000
vn 0.7014 0.1269 -0.7014
vn 0.6997 0.1441 -0.6997
vn -0.0000 0.9867 -0.1624
vn 0.9164 0.1269 -0.3796
vn 0.9142 0.1441 -0.3787
vn 0.9919 0.1269 -0.0000
vn 0.9896 0.1441 -0.0000
vn 0.9164 0.1269 0.3796
vn 0.9142 0.1441 0.3787
vn 0.7014 0.1269 0.7014
vn 0.6997 0.1441 0.6997
vn 0.3796 0.1269 0.9164
vn 0.3787 0.1441 0.9142
vn -0.0000 0.1269 0.9919
vn -0.0000 0.1441 0.9896
vn -0.3796 0.1269 0.9164
vn -0.3787 0.1441 0.9142
vn -0.7014 0.1269 0.7014
vn -0.6997 0.1441 0.6997
vn -0.9164 0.1269 0.3796
vn -0.9142 0.1441 0.3787
vn -0.9919 0.1269 -0.0000
vn -0.9896 0.1441 -0.0000
vn -0.9164 0.1269 -0.3796
vn -0.9142 0.1441 -0.3787
vn -0.7014 0.1269 -0.7014
vn -0.6997 0.1441 -0.6997
vn -0.3796 0.1269 -0.9164
vn -0.3787 0.1441 -0.9142
vn -0.0000 0.7409 -0.6716
vn 0.2570 0.7409 -0.6205
vn 0.4749 0.7409 -0.4749
vn 0.6205 0.7409 -0.2570
vn 0.6716 0.7409 -0.0000
vn 0.6205 0.7409 0.2570
vn 0.4749 0.7409 0.4749
vn 0.2570 0.7409 0.6205
vn -0.0000 0.7409 0.6716
vn -0.2570 0.7409 0.6205
vn -0.4749 0.7409 0.4749
vn -0.6205 0.7409 0.2570
vn -0.6716 0.7409 -0.0000
vn -0.6205 0.7409 -0.2570
vn -0.4749 0.7409 -0.4749
vn -0.2570 0.7409 -0.6205
vn 0.2852 -0.6669 -0.6884
vn -0.0000 -0.6669 -0.7452
vn 0.5269 -0.6669 -0.5269
vn 0.6884 -0.6669 -0.2852
vn 0.7452 -0.6669 -0.0000
vn 0.6884 -0.6669 0.2852
vn 0.5269 -0.6669 0.5269
vn 0.2852 -0.6669 0.6884
vn -0.0000 -0.6669 0.7452
vn -0.2852 -0.6669 0.6884
vn -0.5269 -0.6669 0.5269
vn -0.6884 -0.6669 0.2852
vn -0.7452 -0.6669 -0.0000
vn -0.6884 -0.6669 -0.2852
vn -0.5269 -0.6669 -0.5269
vn -0.2852 -0.6669 -0.6884
vn 0.2680 0.7139 -0.6469
vn -0.0000 0.7139 -0.7002
vn 0.4951 0.7139 -0.4951
vn 0.6469 0.7139 -0.2680
vn 0.7002 0.7139 -0.0000
vn 0.6469 0.7139 0.2680
vn 0.4951 0.7139 0.4951
vn 0.2680 0.7139 0.6469
vn -0.0000 0.7139 0.7002
vn -0.2680 0.7139 0.6469
vn -0.4951 0.7139 0.4951
vn -0.6469 0.7139 0.2680
vn -0.7002 0.7139 -0.0000
vn -0.6469 0.7139 -0.2680
vn -0.4951 0.7139 -0.4951
vn -0.2680 0.7139 -0.6469
vt 0.057039 0.004879
vt 0.057039 0.606919
vt 0.004882 0.606919
vt 0.004882 0.004879
vt 0.735081 0.004879
vt 0.735081 0.606918
vt 0.682924 0.606918
vt 0.682924 0.004879
vt 0.630767 0.606918
vt 0.630767 0.004879
vt 0.578610 0.606918
vt 0.578610 0.004879
vt 0.526453 0.606918
vt 0.526453 0.004879
vt 0.474296 0.606918
vt 0.474296 0.004879
vt 0.422139 0.606918
vt 0.422139 0.004879
vt 0.369981 0.606918
vt 0.369981 0.004879
vt 0.317824 0.606919
vt 0.317824 0.004879
vt 0.265667 0.606919
vt 0.265667 0.004879
vt 0.213510 0.606919
vt 0.213510 0.004879
vt 0.161353 0.606919
vt 0.161353 0.004879
vt 0.109196 0.606919
vt 0.109196 0.004879
vt 0.945107 0.433645
vt 0.945107 0.476521
vt 0.847206 0.476521
vt 0.847206 0.433645
vt 0.787238 0.004879
vt 0.787238 0.606918
vt 0.839395 0.004879
vt 0.839395 0.606918
vt 0.945107 0.090638
vt 0.945107 0.133514
vt 0.847206 0.133514
vt 0.847206 0.090638
vt 0.945107 0.219266
vt 0.945107 0.262141
vt 0.847206 0.262141
vt 0.847206 0.219266
vt 0.334609 0.732511
vt 0.299312 0.732511
vt 0.299313 0.698882
vt 0.334609 0.698882
vt 0.945107 0.519397
vt 0.945107 0.562273
vt 0.847206 0.562273
vt 0.847206 0.519397
vt 0.945107 0.305017
vt 0.945107 0.347893
vt 0.847206 0.347893
vt 0.847206 0.305017
vt 0.945107 0.004886
vt 0.945107 0.047762
vt 0.847206 0.047762
vt 0.847206 0.004886
vt 0.945107 0.176390
vt 0.847206 0.176390
vt 0.945107 0.390769
vt 0.847206 0.390769
vt 0.945107 0.605149
vt 0.847206 0.605149
vt 0.945107 0.648025
vt 0.847206 0.648025
vt 0.831873 0.886930
vt 0.792842 0.886930
vt 0.792842 0.875373
vt 0.831873 0.875373
vt 0.440499 0.732511
vt 0.405202 0.732511
vt 0.405202 0.698882
vt 0.440499 0.698882
vt 0.558657 0.886930
vt 0.519626 0.886930
vt 0.519626 0.875373
vt 0.558657 0.875373
vt 0.870904 0.886930
vt 0.870904 0.875373
vt 0.597688 0.886930
vt 0.597688 0.875373
vt 0.909935 0.886930
vt 0.909935 0.875373
vt 0.636719 0.886930
vt 0.636719 0.875373
vt 0.402534 0.886930
vt 0.363503 0.886930
vt 0.363503 0.875373
vt 0.402534 0.875373
vt 0.948965 0.886930
vt 0.948965 0.875373
vt 0.675749 0.886930
vt 0.675749 0.875373
vt 0.324472 0.886930
vt 0.324472 0.875373
vt 0.714780 0.886930
vt 0.714780 0.875373
vt 0.441564 0.886930
vt 0.441564 0.875373
vt 0.753811 0.886930
vt 0.753811 0.875373
vt 0.480595 0.886930
vt 0.480595 0.875373
vt 0.956781 0.783917
vt 0.956781 0.757787
vt 0.985198 0.757787
vt 0.985198 0.783917
vt 0.722873 0.732511
vt 0.687576 0.732511
vt 0.687576 0.698882
vt 0.722873 0.698882
vt 0.475796 0.732511
vt 0.475796 0.698882
vt 0.758169 0.732511
vt 0.758169 0.698882
vt 0.511092 0.732511
vt 0.511092 0.698882
vt 0.793466 0.732511
vt 0.793466 0.698882
vt 0.546389 0.732511
vt 0.546389 0.698882
vt 0.828762 0.732511
vt 0.828762 0.698882
vt 0.581686 0.732511
vt 0.581686 0.698882
vt 0.616983 0.732511
vt 0.616983 0.698882
vt 0.369906 0.732511
vt 0.369906 0.698882
vt 0.652279 0.732511
vt 0.652279 0.698882
vt 0.864059 0.732511
vt 0.864059 0.698882
vt 0.741194 0.839114
vt 0.757665 0.839114
vt 0.757665 0.848150
vt 0.741194 0.848150
vt 0.956781 0.601011
vt 0.956781 0.574881
vt 0.985197 0.574881
vt 0.985197 0.601011
vt 0.956781 0.992952
vt 0.956781 0.966822
vt 0.985198 0.966822
vt 0.985198 0.992952
vt 0.956781 0.810046
vt 0.985198 0.810046
vt 0.956781 0.627140
vt 0.985197 0.627140
vt 0.956781 0.836175
vt 0.985198 0.836175
vt 0.956781 0.653270
vt 0.985197 0.653270
vt 0.956781 0.862305
vt 0.985198 0.862305
vt 0.956781 0.679399
vt 0.985197 0.679399
vt 0.956781 0.888434
vt 0.985198 0.888434
vt 0.956781 0.705529
vt 0.985197 0.705529
vt 0.956781 0.914563
vt 0.985198 0.914563
vt 0.956781 0.731658
vt 0.985198 0.731658
vt 0.956781 0.940693
vt 0.985198 0.940693
vt 0.697486 0.905249
vt 0.673633 0.905249
vt 0.673633 0.894879
vt 0.697486 0.894879
vt 0.649780 0.905249
vt 0.649780 0.894879
vt 0.625926 0.905249
vt 0.625926 0.894879
vt 0.602073 0.905249
vt 0.602073 0.894879
vt 0.578219 0.905249
vt 0.578219 0.894879
vt 0.554366 0.905249
vt 0.554366 0.894879
vt 0.530513 0.905249
vt 0.530513 0.894879
vt 0.506659 0.905249
vt 0.506659 0.894879
vt 0.482806 0.905249
vt 0.482806 0.894879
vt 0.458952 0.905249
vt 0.458952 0.894879
vt 0.435099 0.905249
vt 0.435099 0.894879
vt 0.411246 0.905249
vt 0.411246 0.894879
vt 0.387392 0.905249
vt 0.387392 0.894879
vt 0.363539 0.905249
vt 0.363539 0.894879
vt 0.339685 0.905249
vt 0.339685 0.894879
vt 0.315832 0.905249
vt 0.315832 0.894879
vt 0.856495 0.839114
vt 0.872967 0.839114
vt 0.872967 0.848150
vt 0.856495 0.848150
vt 0.724722 0.839114
vt 0.724722 0.848150
vt 0.840023 0.839114
vt 0.840023 0.848150
vt 0.708251 0.839114
vt 0.708251 0.848150
vt 0.823552 0.839114
vt 0.823552 0.848150
vt 0.691779 0.839114
vt 0.691779 0.848150
vt 0.807080 0.839114
vt 0.807080 0.848150
vt 0.630617 0.854801
vt 0.610207 0.854801
vt 0.610207 0.752888
vt 0.630617 0.752888
vt 0.790609 0.839114
vt 0.790609 0.848150
vt 0.675307 0.839114
vt 0.675307 0.848150
vt 0.774137 0.839114
vt 0.774137 0.848150
vt 0.889438 0.839114
vt 0.905910 0.839114
vt 0.905910 0.848150
vt 0.889438 0.848150
vt 0.344878 0.854801
vt 0.324468 0.854801
vt 0.324468 0.752888
vt 0.344878 0.752888
vt 0.901427 0.713815
vt 0.896496 0.713771
vt 0.895237 0.707211
vt 0.902782 0.707290
vt 0.487747 0.854801
vt 0.467338 0.854801
vt 0.467338 0.752888
vt 0.487747 0.752888
vt 0.365288 0.854801
vt 0.365287 0.752888
vt 0.651027 0.854801
vt 0.651027 0.752888
vt 0.508157 0.854801
vt 0.508157 0.752888
vt 0.658835 0.839114
vt 0.658835 0.848150
vt 0.528567 0.854801
vt 0.528567 0.752888
vt 0.385697 0.854801
vt 0.385697 0.752888
vt 0.548977 0.854801
vt 0.548977 0.752888
vt 0.406108 0.854801
vt 0.406107 0.752888
vt 0.569387 0.854801
vt 0.569387 0.752888
vt 0.426517 0.854801
vt 0.426517 0.752888
vt 0.589797 0.854801
vt 0.589797 0.752888
vt 0.446927 0.854801
vt 0.446927 0.752888
vt 0.911238 0.723858
vt 0.911151 0.728785
vt 0.909191 0.733301
vt 0.898836 0.726153
vt 0.896220 0.738415
vt 0.901097 0.738496
vt 0.902264 0.745000
vt 0.894823 0.744857
vt 0.891935 0.715627
vt 0.888262 0.710067
vt 0.905651 0.736707
vt 0.909220 0.742290
vt 0.888441 0.719082
vt 0.882924 0.715375
vt 0.886545 0.723602
vt 0.880073 0.722289
vt 0.917835 0.722644
vt 0.917655 0.730196
vt 0.909413 0.719276
vt 0.915005 0.715636
vt 0.886514 0.728486
vt 0.880039 0.729740
vt 0.832914 0.752885
vt 0.844519 0.752885
vt 0.844519 0.821112
vt 0.832914 0.821112
vt 0.888342 0.733004
vt 0.882834 0.736625
vt 0.905969 0.715741
vt 0.909759 0.710197
vt 0.891751 0.736480
vt 0.888041 0.741884
vt 0.953002 0.426326
vt 0.953014 0.391209
vt 0.984224 0.391218
vt 0.984211 0.426339
vt 0.953028 0.250738
vt 0.953023 0.215621
vt 0.984233 0.215614
vt 0.984238 0.250735
vt 0.952966 0.075150
vt 0.952943 0.040033
vt 0.984152 0.040011
vt 0.984176 0.075132
vt 0.952966 0.496561
vt 0.952985 0.461444
vt 0.984195 0.461459
vt 0.984175 0.496580
vt 0.953028 0.320973
vt 0.953030 0.285856
vt 0.984240 0.285856
vt 0.984238 0.320977
vt 0.953002 0.145386
vt 0.952985 0.110268
vt 0.984195 0.110252
vt 0.984211 0.145373
vt 0.952916 0.566796
vt 0.952943 0.531679
vt 0.984152 0.531701
vt 0.984126 0.566821
vt 0.953023 0.356091
vt 0.984233 0.356097
vt 0.953014 0.180503
vt 0.984224 0.180493
vt 0.952916 0.004915
vt 0.984125 0.004890
vt 0.578610 0.645573
vt 0.630767 0.645573
vt 0.630767 0.672004
vt 0.578610 0.672004
vt 0.317824 0.645573
vt 0.369981 0.645573
vt 0.369981 0.672004
vt 0.317824 0.672004
vt 0.057039 0.645573
vt 0.109196 0.645573
vt 0.109196 0.672004
vt 0.057039 0.672004
vt 0.682924 0.645573
vt 0.735081 0.645573
vt 0.735081 0.672004
vt 0.682924 0.672004
vt 0.422139 0.645573
vt 0.474296 0.645573
vt 0.474296 0.672004
vt 0.422139 0.672004
vt 0.787238 0.645573
vt 0.839395 0.645573
vt 0.839395 0.672004
vt 0.787238 0.672004
vt 0.161353 0.645573
vt 0.213510 0.645573
vt 0.213510 0.672004
vt 0.161353 0.672004
vt 0.526453 0.645573
vt 0.526453 0.672004
vt 0.265667 0.645573
vt 0.265667 0.672004
vt 0.004882 0.645573
vt 0.004882 0.672004
vt 0.265667 0.622093
vt 0.213510 0.622093
vt 0.526453 0.622093
vt 0.474296 0.622093
vt 0.787238 0.622093
vt 0.735081 0.622093
vt 0.161353 0.622093
vt 0.109196 0.622093
vt 0.422139 0.622094
vt 0.369981 0.622094
vt 0.682924 0.622093
vt 0.630767 0.622093
vt 0.057039 0.622093
vt 0.004882 0.622094
vt 0.317824 0.622094
vt 0.578610 0.622093
vt 0.839395 0.622093
vt 0.251769 0.705663
vt 0.294170 0.751416
vt 0.274266 0.764046
vt 0.237376 0.726377
vt 0.255046 0.776637
vt 0.224526 0.745297
vt 0.316657 0.808221
vt 0.293141 0.812968
vt 0.270957 0.817093
vt 0.316657 0.869756
vt 0.292978 0.865272
vt 0.270546 0.860623
vt 0.292588 0.926792
vt 0.272293 0.913516
vt 0.253494 0.900762
vt 0.248833 0.970802
vt 0.235104 0.950762
vt 0.222382 0.931506
vt 0.191088 0.994366
vt 0.186177 0.970507
vt 0.181715 0.947988
vt 0.128728 0.993936
vt 0.133348 0.969997
vt 0.137874 0.947502
vt 0.071217 0.969655
vt 0.084721 0.949156
vt 0.097628 0.930291
vt 0.026657 0.925039
vt 0.047755 0.911358
vt 0.067015 0.898858
vt 0.004883 0.866659
vt 0.028141 0.862465
vt 0.050642 0.858276
vt 0.005214 0.805398
vt 0.028791 0.809972
vt 0.051228 0.814700
vt 0.029355 0.748505
vt 0.049601 0.761798
vt 0.068369 0.774572
vt 0.073109 0.704582
vt 0.086815 0.724616
vt 0.099501 0.743862
vt 0.130818 0.681041
vt 0.135820 0.704960
vt 0.140107 0.727414
vt 0.193421 0.680885
vt 0.188815 0.705043
vt 0.184060 0.727783
vt 0.905910 0.830878
vt 0.922382 0.830878
vt 0.922382 0.834975
vt 0.905910 0.834975
vt 0.922382 0.839114
vt 0.889438 0.830878
vt 0.889438 0.834975
vt 0.872967 0.830878
vt 0.872967 0.834975
vt 0.856495 0.830878
vt 0.856495 0.834975
vt 0.840023 0.830878
vt 0.840023 0.834975
vt 0.823552 0.830878
vt 0.823552 0.834975
vt 0.807080 0.830878
vt 0.807080 0.834975
vt 0.790608 0.830878
vt 0.790609 0.834975
vt 0.774137 0.830878
vt 0.774137 0.834975
vt 0.757665 0.830878
vt 0.757665 0.834975
vt 0.741193 0.830878
vt 0.741194 0.834975
vt 0.724722 0.830878
vt 0.724722 0.834975
vt 0.708251 0.830878
vt 0.708251 0.834975
vt 0.691779 0.830878
vt 0.691779 0.834975
vt 0.675307 0.830878
vt 0.675307 0.834975
vt 0.658835 0.830878
vt 0.658835 0.834975
vt 0.922382 0.848150
vt 0.228094 0.794075
vt 0.206283 0.771674
vt 0.239612 0.822989
vt 0.239260 0.854130
vt 0.227039 0.882816
vt 0.204764 0.904690
vt 0.175765 0.916421
vt 0.144492 0.916070
vt 0.115729 0.903801
vt 0.093864 0.881389
vt 0.082198 0.852413
vt 0.082559 0.821237
vt 0.094811 0.792549
vt 0.117102 0.770689
vt 0.146108 0.758976
vt 0.177435 0.759327
vt 0.160945 0.837703
vt 0.821310 0.752885
vt 0.821310 0.821112
vt 0.914657 0.737117
vt 0.809705 0.752885
vt 0.809705 0.821112
vt 0.798101 0.752885
vt 0.798101 0.821112
vt 0.786496 0.752885
vt 0.786496 0.821112
vt 0.774891 0.752885
vt 0.774891 0.821112
vt 0.763287 0.752885
vt 0.763287 0.821112
vt 0.751682 0.752885
vt 0.751682 0.821112
vt 0.740077 0.752885
vt 0.740077 0.821112
vt 0.728473 0.752885
vt 0.728473 0.821112
vt 0.716868 0.752885
vt 0.716868 0.821112
vt 0.705264 0.752885
vt 0.705264 0.821112
vt 0.693659 0.752885
vt 0.693659 0.821112
vt 0.682055 0.752885
vt 0.682055 0.821112
vt 0.670450 0.752885
vt 0.670450 0.821112
vt 0.658845 0.752885
vt 0.658845 0.821112
vt 0.926027 0.732038
vt 0.921558 0.742059
vt 0.918043 0.739494
vt 0.921654 0.731074
vt 0.926152 0.721125
vt 0.921948 0.721894
vt 0.922176 0.710983
vt 0.918437 0.713409
vt 0.914533 0.703216
vt 0.912119 0.706744
vt 0.904504 0.698885
vt 0.903606 0.703278
vt 0.893520 0.698885
vt 0.894423 0.703162
vt 0.883490 0.703078
vt 0.885953 0.706651
vt 0.875868 0.710764
vt 0.879496 0.713091
vt 0.871872 0.720726
vt 0.876090 0.721494
vt 0.871886 0.731396
vt 0.876035 0.730518
vt 0.875955 0.741130
vt 0.879422 0.738842
vt 0.883326 0.748746
vt 0.885783 0.745172
vt 0.893079 0.752903
vt 0.893976 0.748842
vt 0.903641 0.753225
vt 0.902974 0.749026
vt 0.913645 0.749411
vt 0.911403 0.745731
vt 0.324472 0.862887
vt 0.363503 0.862887
vt 0.402534 0.862887
vt 0.441564 0.862887
vt 0.480595 0.862887
vt 0.519626 0.862887
vt 0.558657 0.862887
vt 0.597688 0.862887
vt 0.636719 0.862887
vt 0.675749 0.862887
vt 0.714780 0.862887
vt 0.753811 0.862887
vt 0.792842 0.862887
vt 0.831873 0.862887
vt 0.870904 0.862887
vt 0.909935 0.862887
vt 0.948965 0.862887
vt 0.334609 0.744032
vt 0.299312 0.744032
vt 0.369906 0.744032
vt 0.405202 0.744032
vt 0.440499 0.744032
vt 0.475796 0.744032
vt 0.511092 0.744032
vt 0.546389 0.744032
vt 0.581686 0.744032
vt 0.616983 0.744032
vt 0.652279 0.744032
vt 0.687576 0.744032
vt 0.722873 0.744032
vt 0.758169 0.744032
vt 0.793466 0.744032
vt 0.828762 0.744032
vt 0.864059 0.744032
vt 0.945107 0.690901
vt 0.847206 0.690901
s 1
f 207/1/1 16/2/2 1/3/3 162/4/4
f 168/5/5 3/6/6 4/7/7 171/8/8
f 171/8/8 4/7/7 5/9/9 174/10/10
f 174/10/10 5/9/9 6/11/11 177/12/12
f 177/12/12 6/11/11 7/13/13 180/14/14
f 180/14/14 7/13/13 8/15/15 183/16/16
f 183/16/16 8/15/15 9/17/17 186/18/18
f 186/18/18 9/17/17 10/19/19 189/20/20
f 189/20/20 10/19/19 11/21/21 192/22/22
f 192/22/22 11/21/21 12/23/23 195/24/24
f 195/24/24 12/23/23 13/25/25 198/26/26
f 198/26/26 13/25/25 14/27/27 201/28/28
f 201/28/28 14/27/27 15/29/29 204/30/30
f 204/30/30 15/29/29 16/2/2 207/1/1
f 334/31/31 332/32/32 365/33/32 367/34/31
f 165/35/33 2/36/34 3/6/6 168/5/5
f 162/37/4 1/38/3 2/36/34 165/35/33
f 350/39/35 348/40/36 381/41/36 383/42/35
f 344/43/37 342/44/38 375/45/38 377/46/37
f 354/47/39 357/48/39 18/49/39 17/50/39
f 330/51/40 328/52/41 361/53/41 363/54/40
f 340/55/42 338/56/43 371/57/43 373/58/42
f 325/59/44 352/60/45 385/61/45 356/62/44
f 348/40/36 346/63/46 379/64/46 381/41/36
f 336/65/47 334/31/31 367/34/31 369/66/47
f 346/63/46 344/43/37 377/46/37 379/64/46
f 328/52/41 326/67/48 359/68/48 361/53/41
f 332/32/32 330/51/40 363/54/40 365/33/32
f 342/44/38 340/55/42 373/58/42 375/45/38
f 352/60/45 350/39/35 383/42/35 385/61/45
f 326/67/48 322/69/49 355/70/49 359/68/48
f 338/56/43 336/65/47 369/66/47 371/57/43
f 110/71/50 109/72/51 347/73/51 349/74/50
f 362/75/39 360/76/39 20/77/39 21/78/39
f 111/79/52 98/80/53 333/81/53 335/82/52
f 101/83/54 110/71/50 349/74/50 351/84/54
f 105/85/55 111/79/52 335/82/52 337/86/55
f 102/87/56 101/83/54 351/84/54 353/88/56
f 106/89/57 105/85/55 337/86/55 339/90/57
f 103/91/58 108/92/59 323/93/59 327/94/58
f 107/95/60 102/87/56 353/88/56 324/96/60
f 99/97/61 106/89/57 339/90/57 341/98/61
f 108/92/59 107/99/60 324/100/60 323/93/59
f 100/101/62 99/97/61 341/98/61 343/102/62
f 104/103/63 103/91/58 327/94/58 329/104/63
f 112/105/64 100/101/62 343/102/62 345/106/64
f 97/107/65 104/103/63 329/104/63 331/108/65
f 109/72/51 112/105/64 345/106/64 347/73/51
f 98/80/53 97/107/65 331/108/65 333/81/53
f 25/109/43 24/110/47 56/111/47 57/112/43
f 378/113/39 376/114/39 28/115/39 29/116/39
f 364/117/39 362/75/39 21/78/39 22/118/39
f 380/119/39 378/113/39 29/116/39 30/120/39
f 366/121/39 364/117/39 22/118/39 23/122/39
f 382/123/39 380/119/39 30/120/39 31/124/39
f 368/125/39 366/121/39 23/122/39 24/126/39
f 384/127/39 382/123/39 31/124/39 32/128/39
f 370/129/39 368/125/39 24/126/39 25/130/39
f 372/131/39 370/129/39 25/130/39 26/132/39
f 358/133/39 354/47/39 17/50/39 19/134/39
f 360/76/39 358/133/39 19/134/39 20/77/39
f 374/135/39 372/131/39 26/132/39 27/136/39
f 357/137/39 384/127/39 32/128/39 18/138/39
f 376/114/39 374/135/39 27/136/39 28/115/39
f 242/139/66 239/140/67 75/141/68 76/142/69
f 17/143/49 18/144/44 50/145/44 49/146/49
f 18/147/44 32/148/45 64/149/45 50/150/44
f 26/151/42 25/109/43 57/112/43 58/152/42
f 19/153/48 17/143/49 49/146/49 51/154/48
f 27/155/38 26/151/42 58/152/42 59/156/38
f 20/157/41 19/153/48 51/154/48 52/158/41
f 28/159/37 27/155/38 59/156/38 60/160/37
f 21/161/40 20/157/41 52/158/41 53/162/40
f 29/163/46 28/159/37 60/160/37 61/164/46
f 22/165/32 21/161/40 53/162/40 54/166/32
f 30/167/36 29/163/46 61/164/46 62/168/36
f 23/169/31 22/165/32 54/166/32 55/170/31
f 31/171/35 30/167/36 62/168/36 63/172/35
f 24/110/47 23/169/31 55/170/31 56/111/47
f 32/148/45 31/171/35 63/172/35 64/149/45
f 34/173/39 33/174/39 49/175/39 50/176/39
f 33/174/39 35/177/39 51/178/39 49/175/39
f 35/177/39 36/179/39 52/180/39 51/178/39
f 36/179/39 37/181/39 53/182/39 52/180/39
f 37/181/39 38/183/39 54/184/39 53/182/39
f 38/183/39 39/185/39 55/186/39 54/184/39
f 39/185/39 40/187/39 56/188/39 55/186/39
f 40/187/39 41/189/39 57/190/39 56/188/39
f 41/189/39 42/191/39 58/192/39 57/190/39
f 42/191/39 43/193/39 59/194/39 58/192/39
f 43/193/39 44/195/39 60/196/39 59/194/39
f 44/195/39 45/197/39 61/198/39 60/196/39
f 45/197/39 46/199/39 62/200/39 61/198/39
f 46/199/39 47/201/39 63/202/39 62/200/39
f 47/201/39 48/203/39 64/204/39 63/202/39
f 48/203/39 34/205/39 50/206/39 64/204/39
f 221/207/70 218/208/71 68/209/72 69/210/73
f 245/211/74 242/139/66 76/142/69 77/212/75
f 224/213/76 221/207/70 69/210/73 70/214/77
f 248/215/78 245/211/74 77/212/75 78/216/79
f 227/217/80 224/213/76 70/214/77 71/218/81
f 251/219/82 248/215/78 78/216/79 79/220/83
f 230/221/84 227/217/80 71/218/81 72/222/85
f 48/223/86 47/224/87 252/225/88 255/226/89
f 233/227/90 230/221/84 72/222/85 73/228/91
f 254/229/92 251/219/82 79/220/83 80/230/93
f 236/231/94 233/227/90 73/228/91 74/232/95
f 215/233/96 209/234/97 65/235/98 67/236/99
f 218/208/71 215/233/96 67/236/99 68/209/72
f 239/140/67 236/231/94 74/232/95 75/141/68
f 33/237/100 34/238/101 212/239/102 210/240/103
f 86/241/39 87/242/39 292/243/104 289/244/105
f 41/245/106 40/246/107 231/247/108 234/248/109
f 35/249/110 33/237/100 210/240/103 216/250/111
f 34/251/101 48/223/86 255/226/89 212/252/102
f 42/253/112 41/245/106 234/248/109 237/254/113
f 213/255/114 254/229/92 80/230/93 66/256/115
f 43/257/116 42/253/112 237/254/113 240/258/117
f 36/259/118 35/249/110 216/250/111 219/260/119
f 44/261/120 43/257/116 240/258/117 243/262/121
f 37/263/122 36/259/118 219/260/119 222/264/123
f 45/265/124 44/261/120 243/262/121 246/266/125
f 38/267/126 37/263/122 222/264/123 225/268/127
f 46/269/128 45/265/124 246/266/125 249/270/129
f 39/271/130 38/267/126 225/268/127 228/272/131
f 47/224/87 46/269/128 249/270/129 252/225/88
f 40/246/107 39/271/130 228/272/131 231/247/108
f 83/273/39 81/274/39 82/275/39 386/276/39
f 94/277/39 95/278/39 316/279/132 313/280/133
f 87/242/39 88/281/39 295/282/134 292/243/104
f 95/278/39 96/283/39 319/284/135 316/279/132
f 88/281/39 89/285/39 298/286/136 295/282/134
f 89/285/39 90/287/39 301/288/137 298/286/136
f 81/274/39 83/273/39 280/289/138 274/290/139
f 83/273/39 84/291/39 283/292/140 280/289/138
f 90/287/39 91/293/39 304/294/141 301/288/137
f 65/295/142 66/296/143 277/297/144 275/298/145
f 91/293/39 92/299/39 307/300/146 304/294/141
f 84/291/39 85/301/39 286/302/147 283/292/140
f 92/299/39 93/303/39 310/304/148 307/300/146
f 85/301/39 86/241/39 289/244/105 286/302/147
f 93/303/39 94/277/39 313/280/133 310/304/148
f 128/305/149 121/306/150 112/307/150 109/308/149
f 126/309/151 120/310/152 111/311/152 105/312/151
f 125/313/153 118/314/154 108/315/154 103/316/153
f 124/317/155 119/318/156 110/319/156 101/320/155
f 123/321/157 117/322/158 106/323/158 99/324/157
f 122/325/159 116/326/160 104/327/160 97/328/159
f 127/329/161 115/330/162 102/331/162 107/332/161
f 121/306/150 114/333/163 100/334/163 112/307/150
f 120/310/152 113/335/164 98/336/164 111/311/152
f 119/318/156 128/305/149 109/308/149 110/319/156
f 118/314/154 127/337/161 107/338/161 108/315/154
f 117/322/158 126/309/151 105/312/151 106/323/158
f 116/326/160 125/313/153 103/316/153 104/327/160
f 115/330/162 124/317/155 101/320/155 102/331/162
f 114/333/163 123/321/157 99/324/157 100/334/163
f 113/335/164 122/325/159 97/328/159 98/336/164
f 152/339/165 145/340/166 122/341/167 113/342/168
f 153/343/169 146/344/170 123/345/171 114/346/172
f 154/347/173 147/348/174 124/349/175 115/350/176
f 155/351/177 148/352/178 125/353/179 116/354/180
f 156/355/181 149/356/182 126/357/183 117/358/184
f 157/359/185 150/360/186 127/361/187 118/362/188
f 158/363/189 151/364/190 128/365/191 119/366/192
f 159/367/193 152/339/165 113/342/168 120/368/194
f 160/369/195 153/343/169 114/346/172 121/370/196
f 150/371/186 154/347/173 115/350/176 127/372/187
f 145/340/166 155/351/177 116/354/180 122/341/167
f 146/344/170 156/355/181 117/358/184 123/345/171
f 147/348/174 158/363/189 119/366/192 124/349/175
f 148/352/178 157/359/185 118/362/188 125/353/179
f 149/356/182 159/367/193 120/368/194 126/357/183
f 151/364/190 160/369/195 121/370/196 128/365/191
f 13/25/25 12/23/23 137/373/197 144/374/198
f 8/15/15 7/13/13 136/375/199 142/376/200
f 3/6/6 2/36/34 134/377/201 141/378/202
f 15/29/29 14/27/27 135/379/203 140/380/204
f 10/19/19 9/17/17 133/381/205 139/382/206
f 5/9/9 4/7/7 132/383/207 138/384/208
f 1/3/3 16/2/2 131/385/209 143/386/210
f 12/23/23 11/21/21 130/387/211 137/373/197
f 7/13/13 6/11/11 129/388/212 136/375/199
f 14/27/27 13/25/25 144/374/198 135/379/203
f 2/36/34 1/38/3 143/389/210 134/377/201
f 9/17/17 8/15/15 142/376/200 133/381/205
f 4/7/7 3/6/6 141/378/202 132/383/207
f 16/2/2 15/29/29 140/380/204 131/385/209
f 11/21/21 10/19/19 139/382/206 130/387/211
f 6/11/11 5/9/9 138/384/208 129/388/212
f 144/374/198 137/373/197 160/369/195 151/364/190
f 142/376/200 136/375/199 159/367/193 149/356/182
f 141/378/202 134/377/201 157/359/185 148/352/178
f 140/380/204 135/379/203 158/363/189 147/348/174
f 139/382/206 133/381/205 156/355/181 146/344/170
f 138/384/208 132/383/207 155/351/177 145/340/166
f 143/386/210 131/385/209 154/347/173 150/371/186
f 137/373/197 130/387/211 153/343/169 160/369/195
f 136/375/199 129/388/212 152/339/165 159/367/193
f 135/379/203 144/374/198 151/364/190 158/363/189
f 134/377/201 143/389/210 150/360/186 157/359/185
f 133/381/205 142/376/200 149/356/182 156/355/181
f 132/383/207 141/378/202 148/352/178 155/351/177
f 131/385/209 140/380/204 147/348/174 154/347/173
f 130/387/211 139/382/206 146/344/170 153/343/169
f 129/388/212 138/384/208 145/340/166 152/339/165
f 162/390/4 165/391/33 166/392/213 163/393/214
f 163/393/214 166/392/213 257/394/215 258/395/216
f 165/391/33 168/396/5 169/397/217 166/392/213
f 166/392/213 169/397/217 259/398/218 257/394/215
f 168/396/5 171/399/8 172/400/219 169/397/217
f 169/397/217 172/400/219 260/401/220 259/398/218
f 171/399/8 174/402/10 175/403/221 172/400/219
f 172/400/219 175/403/221 261/404/222 260/401/220
f 174/402/10 177/405/12 178/406/223 175/403/221
f 175/403/221 178/406/223 262/407/224 261/404/222
f 177/405/12 180/408/14 181/409/225 178/406/223
f 178/406/223 181/409/225 263/410/226 262/407/224
f 180/408/14 183/411/16 184/412/227 181/409/225
f 181/409/225 184/412/227 264/413/228 263/410/226
f 183/411/16 186/414/18 187/415/229 184/412/227
f 184/412/227 187/415/229 265/416/230 264/413/228
f 186/414/18 189/417/20 190/418/231 187/415/229
f 187/415/229 190/418/231 266/419/232 265/416/230
f 189/417/20 192/420/22 193/421/233 190/418/231
f 190/418/231 193/421/233 267/422/234 266/419/232
f 192/420/22 195/423/24 196/424/235 193/421/233
f 193/421/233 196/424/235 268/425/236 267/422/234
f 195/423/24 198/426/26 199/427/237 196/424/235
f 196/424/235 199/427/237 269/428/238 268/425/236
f 198/426/26 201/429/28 202/430/239 199/427/237
f 199/427/237 202/430/239 270/431/240 269/428/238
f 201/429/28 204/432/30 205/433/241 202/430/239
f 202/430/239 205/433/241 271/434/242 270/431/240
f 204/432/30 207/435/1 208/436/243 205/433/241
f 205/433/241 208/436/243 272/437/244 271/434/242
f 207/435/1 162/390/4 163/393/214 208/436/243
f 208/436/243 163/393/214 258/395/216 272/437/244
f 210/438/103 212/439/102 214/440/245 211/441/246
f 211/441/246 214/440/245 213/442/114 209/234/97
f 216/443/111 210/438/103 211/441/246 217/444/247
f 217/444/247 211/441/246 209/234/97 215/233/96
f 219/445/119 216/443/111 217/444/247 220/446/248
f 220/446/248 217/444/247 215/233/96 218/208/71
f 222/447/123 219/445/119 220/446/248 223/448/249
f 223/448/249 220/446/248 218/208/71 221/207/70
f 225/449/127 222/447/123 223/448/249 226/450/250
f 226/450/250 223/448/249 221/207/70 224/213/76
f 228/451/131 225/449/127 226/450/250 229/452/251
f 229/452/251 226/450/250 224/213/76 227/217/80
f 231/453/108 228/451/131 229/452/251 232/454/252
f 232/454/252 229/452/251 227/217/80 230/221/84
f 234/455/109 231/453/108 232/454/252 235/456/253
f 235/456/253 232/454/252 230/221/84 233/227/90
f 237/457/113 234/455/109 235/456/253 238/458/254
f 238/458/254 235/456/253 233/227/90 236/231/94
f 240/459/117 237/457/113 238/458/254 241/460/255
f 241/460/255 238/458/254 236/231/94 239/140/67
f 243/461/121 240/459/117 241/460/255 244/462/256
f 244/462/256 241/460/255 239/140/67 242/139/66
f 246/463/125 243/461/121 244/462/256 247/464/257
f 247/464/257 244/462/256 242/139/66 245/211/74
f 249/465/129 246/463/125 247/464/257 250/466/258
f 250/466/258 247/464/257 245/211/74 248/215/78
f 252/467/88 249/465/129 250/466/258 253/468/259
f 253/468/259 250/466/258 248/215/78 251/219/82
f 255/469/89 252/467/88 253/468/259 256/470/260
f 256/470/260 253/468/259 251/219/82 254/229/92
f 212/471/102 255/469/89 256/470/260 214/472/245
f 214/472/245 256/470/260 254/229/92 213/255/114
f 209/234/97 213/442/114 66/473/115 65/235/98
f 164/474/261 161/475/262 258/395/216 257/394/215
f 167/476/263 164/474/261 257/394/215 259/398/218
f 170/477/264 167/476/263 259/398/218 260/401/220
f 173/478/265 170/477/264 260/401/220 261/404/222
f 176/479/266 173/478/265 261/404/222 262/407/224
f 179/480/267 176/479/266 262/407/224 263/410/226
f 182/481/268 179/480/267 263/410/226 264/413/228
f 185/482/269 182/481/268 264/413/228 265/416/230
f 188/483/270 185/482/269 265/416/230 266/419/232
f 191/484/271 188/483/270 266/419/232 267/422/234
f 194/485/272 191/484/271 267/422/234 268/425/236
f 197/486/273 194/485/272 268/425/236 269/428/238
f 200/487/274 197/486/273 269/428/238 270/431/240
f 203/488/275 200/487/274 270/431/240 271/434/242
f 206/489/276 203/488/275 271/434/242 272/437/244
f 161/475/262 206/489/276 272/437/244 258/395/216
f 170/477/264 173/478/265 273/490/277 167/476/263
f 176/479/266 179/480/267 273/490/277 173/478/265
f 182/481/268 185/482/269 273/490/277 179/480/267
f 188/483/270 191/484/271 273/490/277 185/482/269
f 194/485/272 197/486/273 273/490/277 191/484/271
f 200/487/274 203/488/275 273/490/277 197/486/273
f 206/489/276 161/475/262 273/490/277 203/488/275
f 164/474/261 167/476/263 273/490/277 161/475/262
f 67/491/278 65/295/142 275/298/145 281/492/279
f 96/283/39 82/275/39 278/493/280 319/284/135
f 68/494/281 67/491/278 281/492/279 284/495/282
f 69/496/283 68/494/281 284/495/282 287/497/284
f 70/498/285 69/496/283 287/497/284 290/499/286
f 71/500/287 70/498/285 290/499/286 293/501/288
f 72/502/289 71/500/287 293/501/288 296/503/290
f 73/504/291 72/502/289 296/503/290 299/505/292
f 74/506/293 73/504/291 299/505/292 302/507/294
f 75/508/295 74/506/293 302/507/294 305/509/296
f 76/510/297 75/508/295 305/509/296 308/511/298
f 77/512/299 76/510/297 308/511/298 311/513/300
f 78/514/301 77/512/299 311/513/300 314/515/302
f 79/516/303 78/514/301 314/515/302 317/517/304
f 80/518/305 79/516/303 317/517/304 320/519/306
f 66/520/143 80/518/305 320/519/306 277/521/144
f 275/522/145 277/523/144 279/524/307 276/525/308
f 276/525/308 279/524/307 278/493/280 274/290/139
f 281/526/279 275/522/145 276/525/308 282/527/309
f 282/527/309 276/525/308 274/290/139 280/289/138
f 284/528/282 281/526/279 282/527/309 285/529/310
f 285/529/310 282/527/309 280/289/138 283/292/140
f 287/530/284 284/528/282 285/529/310 288/531/311
f 288/531/311 285/529/310 283/292/140 286/302/147
f 290/532/286 287/530/284 288/531/311 291/533/312
f 291/533/312 288/531/311 286/302/147 289/244/105
f 293/534/288 290/532/286 291/533/312 294/535/313
f 294/535/313 291/533/312 289/244/105 292/243/104
f 296/536/290 293/534/288 294/535/313 297/537/314
f 297/537/314 294/535/313 292/243/104 295/282/134
f 299/538/292 296/536/290 297/537/314 300/539/315
f 300/539/315 297/537/314 295/282/134 298/286/136
f 302/540/294 299/538/292 300/539/315 303/541/316
f 303/541/316 300/539/315 298/286/136 301/288/137
f 305/542/296 302/540/294 303/541/316 306/543/317
f 306/543/317 303/541/316 301/288/137 304/294/141
f 308/544/298 305/542/296 306/543/317 309/545/318
f 309/545/318 306/543/317 304/294/141 307/300/146
f 311/546/300 308/544/298 309/545/318 312/547/319
f 312/547/319 309/545/318 307/300/146 310/304/148
f 314/548/302 311/546/300 312/547/319 315/549/320
f 315/549/320 312/547/319 310/304/148 313/280/133
f 317/550/304 314/548/302 315/549/320 318/551/321
f 318/551/321 315/549/320 313/280/133 316/279/132
f 320/552/306 317/550/304 318/551/321 321/553/322
f 321/553/322 318/551/321 316/279/132 319/284/135
f 277/523/144 320/552/306 321/553/322 279/524/307
f 279/524/307 321/553/322 319/284/135 278/493/280
f 82/275/39 81/274/39 274/290/139 278/493/280
f 323/93/323 324/100/324 325/554/324 322/555/323
f 327/94/325 323/93/323 322/555/323 326/556/325
f 329/104/326 327/94/325 326/556/325 328/557/326
f 331/108/327 329/104/326 328/557/326 330/558/327
f 333/81/328 331/108/327 330/558/327 332/559/328
f 335/82/329 333/81/328 332/559/328 334/560/329
f 337/86/330 335/82/329 334/560/329 336/561/330
f 339/90/331 337/86/330 336/561/330 338/562/331
f 341/98/332 339/90/331 338/562/331 340/563/332
f 343/102/333 341/98/332 340/563/332 342/564/333
f 345/106/334 343/102/333 342/564/333 344/565/334
f 347/73/335 345/106/334 344/565/334 346/566/335
f 349/74/336 347/73/335 346/566/335 348/567/336
f 351/84/337 349/74/336 348/567/336 350/568/337
f 353/88/338 351/84/337 350/568/337 352/569/338
f 324/96/324 353/88/338 352/569/338 325/570/324
f 355/571/339 356/572/340 357/48/340 354/47/339
f 359/573/341 355/571/339 354/47/339 358/133/341
f 361/574/342 359/573/341 358/133/341 360/76/342
f 363/575/343 361/574/342 360/76/342 362/75/343
f 365/576/344 363/575/343 362/75/343 364/117/344
f 367/577/345 365/576/344 364/117/344 366/121/345
f 369/578/346 367/577/345 366/121/345 368/125/346
f 371/579/347 369/578/346 368/125/346 370/129/347
f 373/580/348 371/579/347 370/129/347 372/131/348
f 375/581/349 373/580/348 372/131/348 374/135/349
f 377/582/350 375/581/349 374/135/349 376/114/350
f 379/583/351 377/582/350 376/114/350 378/113/351
f 381/584/352 379/583/351 378/113/351 380/119/352
f 383/585/353 381/584/352 380/119/352 382/123/353
f 385/586/354 383/585/353 382/123/353 384/127/354
f 356/587/340 385/586/354 384/127/354 357/137/340
f 322/69/49 325/588/44 356/589/44 355/70/49
f 96/283/39 95/278/39 386/276/39 82/275/39
f 94/277/39 93/303/39 386/276/39 95/278/39
f 92/299/39 91/293/39 386/276/39 93/303/39
f 90/287/39 89/285/39 386/276/39 91/293/39
f 88/281/39 87/242/39 386/276/39 89/285/39
f 86/241/39 85/301/39 386/276/39 87/242/39
f 84/291/39 83/273/39 386/276/39 85/301/39
