# Blender 4.0.2
# www.blender.org
o foam_finger
v -0.081488 -0.000000 0.002846
v 0.090258 -0.000000 0.002846
v -0.094095 0.075230 0.020000
v 0.102866 0.075230 0.020000
v 0.014548 -0.000000 0.007426
v 0.014548 0.075230 0.020000
v 0.036628 0.075230 0.020000
v 0.058707 0.075230 0.020000
v 0.017975 0.352371 0.020000
v 0.115962 0.352371 0.020000
v 0.016731 0.254795 0.020000
v 0.115962 0.254795 0.020000
v -0.044472 0.330095 0.020000
v -0.045144 0.254398 0.020000
v -0.101633 0.297368 0.020000
v -0.101466 0.238532 0.020000
v -0.154505 0.253052 0.020000
v -0.146064 0.206624 0.020000
v -0.022492 0.075230 0.020000
v -0.059533 0.075230 0.020000
v -0.059533 -0.000000 0.006719
v -0.022492 -0.000000 0.007426
v 0.016186 0.211986 0.020000
v 0.015180 0.133091 0.020000
v 0.130367 0.133091 0.020000
v 0.141636 0.172177 0.019964
v 0.143504 0.211986 0.020000
v -0.071663 0.128387 0.020000
v -0.082101 0.163761 0.019964
v -0.091772 0.201498 0.020000
v -0.112671 0.113638 0.020000
v -0.128284 0.144592 0.019967
v -0.138812 0.178759 0.020000
v -0.039481 0.211688 0.020000
v -0.029045 0.132976 0.020000
v 0.112702 0.211986 0.020000
v 0.109138 0.172177 0.019964
v 0.107096 0.133091 0.020000
v 0.132195 0.237000 0.020000
v 0.014811 0.172177 0.019964
v -0.035082 0.171972 0.019964
v -0.001119 0.355657 0.020000
v -0.031116 0.346702 0.020000
v -0.059838 0.330532 0.020000
v -0.091761 0.315163 0.020000
v -0.120818 0.296368 0.020000
v -0.149374 0.272797 0.020000
v 0.115962 0.450939 0.020000
v 0.066969 0.499932 0.020000
v 0.112232 0.469687 0.020000
v 0.101612 0.485582 0.020000
v 0.085717 0.496202 0.020000
v 0.017975 0.450939 0.020000
v 0.058707 -0.000000 0.006719
v 0.021705 0.469687 0.020000
v 0.032325 0.485582 0.020000
v 0.048220 0.496202 0.020000
v 0.066969 0.352371 0.020000
v 0.066347 0.254795 0.020000
v 0.061133 0.133091 0.020000
v 0.061940 0.172177 0.019964
v 0.064513 0.211986 0.020000
v 0.066969 0.469687 0.020000
v 0.066969 0.450939 0.020000
v -0.063760 0.265574 0.020000
v -0.031116 0.272350 0.020000
v -0.084750 0.260009 0.020000
v -0.001119 0.273042 0.020000
v -0.136155 0.232407 0.020000
v -0.117407 0.244308 0.020000
v -0.003972 -0.000000 0.007426
v -0.003972 0.075230 0.020000
v -0.006932 0.133034 0.020000
v -0.011648 0.211837 0.020000
v -0.010135 0.172075 0.019964
v -0.014206 0.254596 0.020000
v -0.016117 0.353934 0.020000
v -0.014591 0.272696 0.020000
v -0.041013 0.075230 0.020000
v -0.041013 -0.000000 0.007426
v -0.065977 0.208499 0.020000
v -0.058614 0.168524 0.019964
v -0.050357 0.130778 0.020000
v -0.073305 0.246465 0.020000
v -0.078278 0.324913 0.020000
v -0.074255 0.262792 0.020000
v -0.137300 0.287612 0.020000
v -0.126781 0.238357 0.020000
v -0.076814 0.075230 0.020000
v -0.076814 -0.000000 0.004720
v -0.092731 0.122208 0.020000
v -0.115134 0.192851 0.020000
v -0.105453 0.156058 0.019964
v -0.123765 0.222578 0.020000
v -0.044497 0.095458 0.020000
v -0.064117 0.095006 0.020000
v -0.005092 0.096367 0.020000
v -0.098518 0.090113 0.020000
v -0.024907 0.095910 0.020000
v -0.083539 0.094558 0.020000
v 0.059723 0.097861 0.020000
v 0.014794 0.096825 0.020000
v 0.098861 0.098899 0.020000
v 0.036628 -0.000000 0.007426
v 0.042472 0.352371 0.020000
v 0.041539 0.254795 0.020000
v 0.038156 0.133091 0.020000
v 0.038376 0.172177 0.019964
v 0.040349 0.211986 0.020000
v 0.044337 0.469687 0.020000
v 0.042472 0.450939 0.020000
v 0.037258 0.097343 0.020000
v 0.080786 -0.000000 0.004720
v 0.080786 0.075230 0.020000
v 0.091465 0.352371 0.020000
v 0.091154 0.254795 0.020000
v 0.084109 0.133091 0.020000
v 0.085505 0.172177 0.019964
v 0.088676 0.211986 0.020000
v 0.089600 0.469687 0.020000
v 0.091465 0.450939 0.020000
v 0.082231 0.098380 0.020000
v 0.115962 0.303583 0.020000
v 0.017353 0.303583 0.020000
v -0.044808 0.292246 0.020000
v -0.101550 0.267950 0.020000
v 0.066658 0.303583 0.020000
v -0.061799 0.298053 0.020000
v -0.031116 0.309526 0.020000
v -0.088255 0.287586 0.020000
v -0.001119 0.314350 0.020000
v -0.142765 0.252602 0.020000
v -0.119112 0.270338 0.020000
v -0.152365 0.230258 0.020000
v -0.015354 0.313315 0.020000
v -0.076266 0.293853 0.020000
v -0.132040 0.262985 0.020000
v 0.042005 0.303583 0.020000
v 0.091310 0.303583 0.020000
v -0.081488 -0.000000 -0.002846
v 0.090258 -0.000000 -0.002846
v -0.094095 0.075230 -0.020000
v 0.102866 0.075230 -0.020000
v 0.014548 -0.000000 -0.007426
v 0.014548 0.075230 -0.020000
v 0.036628 0.075230 -0.020000
v 0.058707 0.075230 -0.020000
v 0.017975 0.352371 -0.020000
v 0.115962 0.352371 -0.020000
v 0.016731 0.254795 -0.020000
v 0.115962 0.254795 -0.020000
v -0.044472 0.330095 -0.020000
v -0.045144 0.254398 -0.020000
v -0.101633 0.297368 -0.020000
v -0.101466 0.238532 -0.020000
v -0.154505 0.253052 -0.020000
v -0.146064 0.206624 -0.020000
v -0.022492 0.075230 -0.020000
v -0.059533 0.075230 -0.020000
v -0.059533 -0.000000 -0.006719
v -0.022492 -0.000000 -0.007426
v 0.016186 0.211986 -0.020000
v 0.015180 0.133091 -0.020000
v 0.130367 0.133091 -0.020000
v 0.141636 0.172177 -0.020036
v 0.143504 0.211986 -0.020000
v -0.071663 0.128387 -0.020000
v -0.082101 0.163761 -0.020036
v -0.091772 0.201498 -0.020000
v -0.112671 0.113638 -0.020000
v -0.128284 0.144592 -0.020033
v -0.138812 0.178759 -0.020000
v -0.039481 0.211688 -0.020000
v -0.029045 0.132976 -0.020000
v 0.112839 0.211986 -0.020000
v 0.109069 0.172177 -0.020036
v 0.107085 0.133091 -0.020000
v 0.132195 0.237000 -0.020000
v 0.014811 0.172177 -0.020036
v -0.035082 0.171972 -0.020036
v -0.001119 0.355657 -0.020000
v -0.031116 0.346702 -0.020000
v -0.059838 0.330532 -0.020000
v -0.091761 0.315163 -0.020000
v -0.120818 0.296368 -0.020000
v -0.149374 0.272797 -0.020000
v 0.115962 0.450939 -0.020000
v 0.066969 0.499932 -0.020000
v 0.112232 0.469687 -0.020000
v 0.101612 0.485582 -0.020000
v 0.085717 0.496202 -0.020000
v 0.017975 0.450939 -0.020000
v 0.058707 -0.000000 -0.006719
v 0.021705 0.469687 -0.020000
v 0.032325 0.485582 -0.020000
v 0.048220 0.496202 -0.020000
v 0.066969 0.352371 -0.020000
v 0.066347 0.254795 -0.020000
v 0.061133 0.133091 -0.020000
v 0.061940 0.172177 -0.020036
v 0.064513 0.211986 -0.020000
v 0.066969 0.469687 -0.020000
v 0.066969 0.450939 -0.020000
v -0.063760 0.265574 -0.020000
v -0.031116 0.272350 -0.020000
v -0.084750 0.260009 -0.020000
v -0.001119 0.273042 -0.020000
v -0.136155 0.232407 -0.020000
v -0.117407 0.244308 -0.020000
v -0.003972 -0.000000 -0.007426
v -0.003972 0.075230 -0.020000
v -0.006932 0.133034 -0.020000
v -0.011648 0.211837 -0.020000
v -0.010135 0.172075 -0.020036
v -0.014206 0.254596 -0.020000
v -0.016117 0.353934 -0.020000
v -0.014591 0.272696 -0.020000
v -0.041013 0.075230 -0.020000
v -0.041013 -0.000000 -0.007426
v -0.065977 0.208499 -0.020000
v -0.058614 0.168524 -0.020036
v -0.050357 0.130778 -0.020000
v -0.073305 0.246465 -0.020000
v -0.078278 0.324913 -0.020000
v -0.074255 0.262792 -0.020000
v -0.137300 0.287612 -0.020000
v -0.126781 0.238357 -0.020000
v -0.076814 0.075230 -0.020000
v -0.076814 -0.000000 -0.004720
v -0.092731 0.122208 -0.020000
v -0.115134 0.192851 -0.020000
v -0.105453 0.156058 -0.020036
v -0.123765 0.222578 -0.020000
v -0.044497 0.095458 -0.020000
v -0.064117 0.095006 -0.020000
v -0.005092 0.096367 -0.020000
v -0.098518 0.090113 -0.020000
v -0.024907 0.095910 -0.020000
v -0.083539 0.094558 -0.020000
v 0.059723 0.097861 -0.020000
v 0.014794 0.096825 -0.020000
v 0.098861 0.098899 -0.020000
v 0.036628 -0.000000 -0.007426
v 0.042472 0.352371 -0.020000
v 0.041539 0.254795 -0.020000
v 0.038156 0.133091 -0.020000
v 0.038376 0.172177 -0.020036
v 0.040349 0.211986 -0.020000
v 0.044337 0.469687 -0.020000
v 0.042472 0.450939 -0.020000
v 0.037258 0.097343 -0.020000
v 0.080786 -0.000000 -0.004720
v 0.080786 0.075230 -0.020000
v 0.091465 0.352371 -0.020000
v 0.091154 0.254795 -0.020000
v 0.084109 0.133091 -0.020000
v 0.085505 0.172177 -0.020036
v 0.088676 0.211986 -0.020000
v 0.089600 0.469687 -0.020000
v 0.091465 0.450939 -0.020000
v 0.082231 0.098380 -0.020000
v 0.115962 0.303583 -0.020000
v 0.017353 0.303583 -0.020000
v -0.044808 0.292246 -0.020000
v -0.101550 0.267950 -0.020000
v 0.066658 0.303583 -0.020000
v -0.061799 0.298053 -0.020000
v -0.031116 0.309526 -0.020000
v -0.088255 0.287586 -0.020000
v -0.001119 0.314350 -0.020000
v -0.142765 0.252602 -0.020000
v -0.119112 0.270338 -0.020000
v -0.152365 0.230258 -0.020000
v -0.015354 0.313315 -0.020000
v -0.076266 0.293853 -0.020000
v -0.132040 0.262985 -0.020000
v 0.042005 0.303583 -0.020000
v 0.091310 0.303583 -0.020000
v 0.080786 0.000000 0.020000
v 0.102866 0.000000 0.020000
v -0.003972 0.000000 0.020000
v 0.014548 0.000000 0.020000
v 0.036628 0.000000 0.020000
v 0.058707 0.000000 0.020000
v -0.076814 0.000000 0.020000
v -0.059533 0.000000 0.020000
v -0.041013 0.000000 0.020000
v -0.022492 0.000000 0.020000
v -0.094095 0.000000 0.020000
v 0.080786 -0.000000 -0.020000
v 0.102866 -0.000000 -0.020000
v -0.003972 -0.000000 -0.020000
v 0.014548 -0.000000 -0.020000
v 0.036628 -0.000000 -0.020000
v 0.058707 -0.000000 -0.020000
v -0.076814 -0.000000 -0.020000
v -0.059533 -0.000000 -0.020000
v -0.041013 -0.000000 -0.020000
v -0.022492 -0.000000 -0.020000
v -0.094095 -0.000000 -0.020000
v -0.094095 -0.000000 0.000000
v 0.102866 -0.000000 0.000000
v -0.094095 0.075230 -0.000000
v 0.102866 0.075230 -0.000000
v 0.017975 0.352371 -0.000000
v 0.115962 0.352371 -0.000000
v 0.115962 0.254795 -0.000000
v -0.044472 0.330095 -0.000000
v -0.101633 0.297368 -0.000000
v -0.154505 0.253052 -0.000000
v -0.146064 0.206624 -0.000000
v 0.130367 0.133091 -0.000000
v 0.141636 0.172177 -0.000036
v 0.143504 0.211986 -0.000000
v -0.112671 0.113638 -0.000000
v -0.138812 0.178759 -0.000000
v 0.132195 0.237000 -0.000000
v -0.128284 0.144592 -0.000033
v -0.001119 0.355657 -0.000000
v -0.031116 0.346702 -0.000000
v -0.059838 0.330532 -0.000000
v -0.091761 0.315163 -0.000000
v -0.120818 0.296368 -0.000000
v -0.149374 0.272797 -0.000000
v 0.115962 0.450939 -0.000000
v 0.066969 0.499932 -0.000000
v 0.112232 0.469687 -0.000000
v 0.101612 0.485582 -0.000000
v 0.085717 0.496202 -0.000000
v 0.017975 0.450939 -0.000000
v 0.021705 0.469687 -0.000000
v 0.032325 0.485582 -0.000000
v 0.048220 0.496202 -0.000000
v -0.016117 0.353934 -0.000000
v -0.078278 0.324913 -0.000000
v -0.137300 0.287612 -0.000000
v -0.098518 0.090113 -0.000000
v 0.115962 0.303583 -0.000000
v -0.152365 0.230258 -0.000000
v -0.084852 -0.000000 0.000000
v 0.093622 -0.000000 0.000000
v 0.014548 0.019212 -0.000000
v 0.014548 0.019212 -0.007426
v -0.059533 0.019212 -0.000000
v -0.059533 0.019212 -0.006719
v -0.022492 0.019212 -0.000000
v -0.022492 0.019212 -0.007426
v 0.058707 0.019212 -0.000000
v 0.058707 0.019212 -0.006719
v -0.003972 0.019212 -0.000000
v -0.003972 0.019212 -0.007426
v -0.041013 0.019212 -0.000000
v -0.041013 0.019212 -0.007426
v -0.076814 0.019212 -0.000000
v -0.076814 0.019212 -0.004720
v 0.036628 0.019212 -0.000000
v 0.036628 0.019212 -0.007426
v 0.080786 0.019212 -0.000000
v 0.080786 0.019212 -0.004720
v 0.080786 0.019212 0.004720
v 0.090258 0.019212 0.002846
v -0.003972 0.019212 0.007426
v 0.014548 0.019212 0.007426
v 0.036628 0.019212 0.007426
v 0.058707 0.019212 0.006719
v -0.076814 0.019212 0.004720
v -0.059533 0.019212 0.006719
v -0.041013 0.019212 0.007426
v -0.022492 0.019212 0.007426
v -0.081488 0.019212 0.002846
v 0.090258 0.019212 -0.002846
v -0.081488 0.019212 -0.002846
v -0.084852 0.019212 -0.000000
v 0.093622 0.019212 -0.000000
vn -0.0000 -0.0000 1.0000
vn -0.0000 -0.0005 1.0000
vn 0.0002 -0.0004 1.0000
vn 0.0003 -0.0005 1.0000
vn -0.0001 0.0005 1.0000
vn -0.0000 0.0005 1.0000
vn -0.0000 -0.0004 1.0000
vn 0.0001 -0.0004 1.0000
vn -0.0002 0.0005 1.0000
vn 0.0001 -0.0000 1.0000
vn 0.0001 0.0001 1.0000
vn 0.9351 -0.3544 -0.0000
vn 0.9755 -0.2200 -0.0000
vn 0.9351 -0.3543 -0.0000
vn -0.0000 0.0006 1.0000
vn -0.0000 -0.0001 1.0000
vn -0.0000 -0.0000 -1.0000
vn -0.0000 0.0005 -1.0000
vn -0.0002 0.0004 -1.0000
vn -0.0003 0.0005 -1.0000
vn 0.0001 -0.0005 -1.0000
vn -0.0000 -0.0005 -1.0000
vn -0.0000 0.0004 -1.0000
vn -0.0001 0.0004 -1.0000
vn 0.0002 -0.0005 -1.0000
vn -0.0001 -0.0001 -1.0000
vn -0.0001 -0.0000 -1.0000
vn -0.0000 0.0001 -1.0000
vn -0.0000 -0.0006 -1.0000
vn -1.0000 -0.0000 -0.0000
vn -0.9896 -0.1439 -0.0000
vn 1.0000 -0.0000 -0.0000
vn -0.0160 -0.0000 0.9999
vn 0.6459 -0.0000 0.7634
vn 0.5156 -0.0000 0.8568
vn 0.0191 -0.0000 -0.9998
vn -0.3827 0.9239 -0.0000
vn -0.0000 1.0000 -0.0000
vn 0.7388 0.6740 -0.0000
vn 0.8353 0.5498 -0.0000
vn -0.7793 0.6267 -0.0000
vn -0.6221 0.7830 -0.0000
vn -0.8744 0.4851 -0.0000
vn -0.7481 0.6636 -0.0000
vn -0.9968 0.0802 -0.0000
vn -0.8920 0.4520 -0.0000
vn -0.0611 -0.0000 0.9981
vn -0.1423 -0.0000 0.9898
vn -0.9619 -0.2732 -0.0000
vn -0.9670 -0.2547 -0.0000
vn 0.9866 -0.1631 -0.0000
vn 0.9822 0.1877 -0.0000
vn -0.9150 -0.4034 -0.0000
vn -0.8755 -0.4833 -0.0000
vn -0.9275 -0.3737 -0.0000
vn 0.0280 0.9996 -0.0000
vn 0.1696 0.9855 -0.0000
vn -0.2781 0.9605 -0.0000
vn -0.1333 0.9911 -0.0000
vn 0.0285 0.9996 -0.0000
vn -0.4448 0.8956 -0.0000
vn -0.2669 0.9637 -0.0000
vn -0.0520 0.9986 -0.0000
vn -0.6347 0.7728 -0.0000
vn -0.9952 0.0980 -0.0000
vn 0.9952 0.0980 -0.0000
vn 0.9239 0.3827 -0.0000
vn 0.7071 0.7071 -0.0000
vn 0.3827 0.9239 -0.0000
vn -0.7071 0.7071 -0.0000
vn -0.9239 0.3827 -0.0000
vn -0.9844 -0.1762 -0.0000
vn 0.0766 -0.0000 -0.9971
vn 0.2457 -0.0000 -0.9693
vn 0.2457 -0.0000 0.9693
vn -0.0160 -0.0000 -0.9999
vn -0.0000 -1.0000 -0.0000
vn -0.4338 -0.0000 0.9010
vn 0.0766 -0.0000 0.9971
vn 0.0191 -0.0000 0.9998
vn -0.0611 -0.0000 -0.9981
vn -0.1423 -0.0000 -0.9898
vn 0.9822 0.1878 -0.0000
vn -0.9620 -0.2732 -0.0000
vn -0.6459 -0.0000 -0.7634
vn -0.4338 -0.0000 -0.9010
vn 0.5156 -0.0000 -0.8568
vn -0.6459 -0.0000 0.7634
vn 0.6459 -0.0000 -0.7634
vt 0.332483 0.152045
vt 0.362880 0.152160
vt 0.362490 0.255728
vt 0.332092 0.255532
vt 0.216082 0.151829
vt 0.241324 0.151845
vt 0.241324 0.254897
vt 0.215885 0.254699
vt 0.341749 0.636077
vt 0.375316 0.636583
vt 0.373280 0.771636
vt 0.339715 0.771130
vt 0.342538 0.569221
vt 0.376324 0.569727
vt 0.373913 0.444048
vt 0.416019 0.444663
vt 0.399977 0.478773
vt 0.377332 0.502850
vt 0.116849 0.151465
vt 0.140385 0.151575
vt 0.139901 0.254141
vt 0.116340 0.253966
vt 0.165613 0.151682
vt 0.190845 0.151770
vt 0.190512 0.254512
vt 0.165186 0.254327
vt 0.063357 0.405921
vt 0.049795 0.454110
vt 0.019668 0.431875
vt 0.030129 0.393984
vt 0.151702 0.329931
vt 0.160188 0.283201
vt 0.186961 0.284241
vt 0.180790 0.333376
vt 0.203246 0.441540
vt 0.198960 0.500022
vt 0.156631 0.499150
vt 0.165182 0.440833
vt 0.214079 0.285293
vt 0.211041 0.333771
vt 0.207197 0.387162
vt 0.173084 0.386611
vt 0.118273 0.487750
vt 0.130089 0.432227
vt 0.141024 0.380607
vt 0.106950 0.281112
vt 0.086639 0.273956
vt 0.092814 0.253799
vt 0.094041 0.317535
vt 0.077736 0.360727
vt 0.046221 0.347615
vt 0.067010 0.305665
vt 0.198306 0.135801
vt 0.110426 0.135801
vt 0.110426 0.108339
vt 0.198306 0.108339
vt 0.367475 0.335530
vt 0.399516 0.335948
vt 0.415451 0.389945
vt 0.370691 0.389319
vt 0.335883 0.335162
vt 0.338322 0.388895
vt 0.340749 0.443580
vt 0.343312 0.502345
vt 0.364768 0.291176
vt 0.333794 0.289944
vt 0.198083 0.524791
vt 0.175473 0.523990
vt 0.116651 0.510055
vt 0.102358 0.506040
vt 0.079940 0.476351
vt 0.045357 0.475602
vt 0.032674 0.467284
vt 0.274755 0.795846
vt 0.279528 0.832255
vt 0.257970 0.817375
vt 0.243747 0.795378
vt 0.367782 0.797248
vt 0.336773 0.796780
vt 0.241061 0.634563
vt 0.274621 0.635069
vt 0.272588 0.770119
vt 0.239024 0.769613
vt 0.241324 0.286351
vt 0.272079 0.287542
vt 0.272807 0.334487
vt 0.241324 0.334162
vt 0.306152 0.770625
vt 0.305764 0.796313
vt 0.271496 0.255118
vt 0.301759 0.255327
vt 0.302880 0.288737
vt 0.274456 0.442683
vt 0.307597 0.443127
vt 0.309301 0.501853
vt 0.275303 0.501369
vt 0.273642 0.388096
vt 0.305973 0.388489
vt 0.304327 0.334818
vt 0.274978 0.568220
vt 0.308755 0.568719
vt 0.308184 0.635573
vt 0.271704 0.151871
vt 0.302091 0.151944
vt 0.196222 0.580384
vt 0.215693 0.582093
vt 0.214839 0.638665
vt 0.194334 0.635989
vt 0.156337 0.550942
vt 0.174722 0.574873
vt 0.173948 0.625769
vt 0.156011 0.602749
vt 0.132971 0.558540
vt 0.134974 0.603022
vt 0.079231 0.516555
vt 0.097001 0.543674
vt 0.091625 0.581317
vt 0.078503 0.556768
vt 0.113266 0.552494
vt 0.109862 0.594943
vt 0.241210 0.567723
vt 0.037665 0.509142
vt 0.055179 0.519457
vt 0.052304 0.554997
vt 0.029963 0.542685
vt 0.010580 0.464017
vt 0.023228 0.494734
vt 0.013776 0.522187
vt 0.007181 0.495104
vt 0.241324 0.500889
vt 0.216522 0.525531
vt 0.241324 0.387708
vt 0.241324 0.442243
vt 0.130948 0.514071
vt 0.095018 0.423619
vt 0.108989 0.374598
vt 0.122646 0.326480
vt 0.133413 0.282155
vt 0.093315 0.151350
vt 0.058042 0.483922
vt 0.352902 0.818807
vt 0.330905 0.833030
vt 0.305139 0.837752
vt 0.515263 0.149637
vt 0.515654 0.253123
vt 0.485256 0.253320
vt 0.484867 0.149751
vt 0.631665 0.149420
vt 0.631861 0.252290
vt 0.606422 0.252488
vt 0.606422 0.149436
vt 0.505997 0.633669
vt 0.508031 0.768722
vt 0.474467 0.769228
vt 0.472431 0.634174
vt 0.505209 0.566812
vt 0.471422 0.567319
vt 0.473833 0.441639
vt 0.470414 0.500441
vt 0.447769 0.476364
vt 0.431727 0.442254
vt 0.730897 0.149056
vt 0.731407 0.251557
vt 0.707846 0.251732
vt 0.707362 0.149167
vt 0.682133 0.149274
vt 0.682560 0.251918
vt 0.657235 0.252104
vt 0.656901 0.149361
vt 0.784389 0.403512
vt 0.817618 0.391576
vt 0.828079 0.429467
vt 0.797952 0.451701
vt 0.696045 0.327522
vt 0.666957 0.330967
vt 0.660786 0.281832
vt 0.687558 0.280792
vt 0.644500 0.439131
vt 0.682565 0.438424
vt 0.691115 0.496742
vt 0.648786 0.497613
vt 0.633668 0.282885
vt 0.636706 0.331362
vt 0.674663 0.384202
vt 0.640550 0.384753
vt 0.729474 0.485342
vt 0.717658 0.429819
vt 0.706722 0.378199
vt 0.754933 0.251391
vt 0.761107 0.271548
vt 0.740796 0.278703
vt 0.753705 0.315126
vt 0.780737 0.303257
vt 0.801526 0.345207
vt 0.770010 0.358318
vt 0.480271 0.333121
vt 0.477056 0.386910
vt 0.432295 0.387537
vt 0.448230 0.333539
vt 0.511863 0.332753
vt 0.509424 0.386487
vt 0.506997 0.441172
vt 0.504435 0.499936
vt 0.513953 0.287536
vt 0.482978 0.288767
vt 0.672274 0.521581
vt 0.649664 0.522382
vt 0.731095 0.507647
vt 0.767806 0.473942
vt 0.745389 0.503632
vt 0.815073 0.464875
vt 0.802390 0.473194
vt 0.572991 0.793437
vt 0.604000 0.792969
vt 0.589777 0.814966
vt 0.568219 0.829846
vt 0.510973 0.794372
vt 0.479964 0.794839
vt 0.606686 0.632154
vt 0.608722 0.767204
vt 0.575159 0.767710
vt 0.573125 0.632660
vt 0.606422 0.283943
vt 0.606422 0.331753
vt 0.574939 0.332078
vt 0.575668 0.285134
vt 0.541982 0.793904
vt 0.541595 0.768216
vt 0.576250 0.252709
vt 0.544866 0.286328
vt 0.545987 0.252918
vt 0.573290 0.440275
vt 0.572444 0.498960
vt 0.538446 0.499444
vt 0.540149 0.440718
vt 0.574104 0.385687
vt 0.541773 0.386081
vt 0.543420 0.332409
vt 0.572768 0.565812
vt 0.539562 0.633164
vt 0.538992 0.566310
vt 0.576043 0.149462
vt 0.545656 0.149535
vt 0.651524 0.577976
vt 0.653412 0.633580
vt 0.632907 0.636256
vt 0.632053 0.579684
vt 0.691409 0.548534
vt 0.691735 0.600340
vt 0.673799 0.623361
vt 0.673024 0.572464
vt 0.714776 0.556131
vt 0.712772 0.600613
vt 0.768515 0.514146
vt 0.769243 0.554359
vt 0.756121 0.578908
vt 0.750746 0.541265
vt 0.734480 0.550085
vt 0.737884 0.592534
vt 0.606537 0.565315
vt 0.810081 0.506733
vt 0.817783 0.540276
vt 0.795443 0.552588
vt 0.792568 0.517049
vt 0.837166 0.461608
vt 0.840565 0.492696
vt 0.833971 0.519778
vt 0.824518 0.492325
vt 0.606422 0.498481
vt 0.631225 0.523122
vt 0.606422 0.385300
vt 0.606422 0.439835
vt 0.716799 0.511662
vt 0.752729 0.421210
vt 0.738757 0.372189
vt 0.725101 0.324072
vt 0.714333 0.279747
vt 0.754431 0.148941
vt 0.789704 0.481513
vt 0.516842 0.830621
vt 0.494844 0.816398
vt 0.542607 0.835343
vt 0.673394 0.039053
vt 0.570377 0.039053
vt 0.570376 0.011591
vt 0.673394 0.011591
vt 0.823225 0.040206
vt 0.848587 0.040206
vt 0.848587 0.066514
vt 0.823225 0.066514
vt 0.007408 0.108339
vt 0.007408 0.080877
vt 0.110426 0.080877
vt 0.418328 0.663248
vt 0.418328 0.693483
vt 0.392020 0.693483
vt 0.392020 0.663249
vt 0.418328 0.525023
vt 0.418328 0.531064
vt 0.392020 0.531064
vt 0.392020 0.525023
vt 0.873948 0.040206
vt 0.873948 0.066514
vt 0.779539 0.108340
vt 0.753362 0.108340
vt 0.753362 0.080878
vt 0.779539 0.080878
vt 0.513678 0.108339
vt 0.446868 0.108339
vt 0.446868 0.080878
vt 0.513678 0.080878
vt 0.380059 0.108339
vt 0.347075 0.108339
vt 0.347075 0.080878
vt 0.380059 0.080878
vt 0.106598 0.039053
vt 0.077415 0.039053
vt 0.077415 0.011591
vt 0.106598 0.011591
vt 0.204699 0.039053
vt 0.176832 0.039053
vt 0.176832 0.011591
vt 0.204699 0.011591
vt 0.310670 0.039053
vt 0.282734 0.039053
vt 0.282734 0.011591
vt 0.310670 0.011591
vt 0.418328 0.723733
vt 0.392020 0.723734
vt 0.418328 0.754093
vt 0.392020 0.754093
vt 0.414944 0.039053
vt 0.375515 0.039053
vt 0.375515 0.011591
vt 0.414944 0.011591
vt 0.254489 0.108339
vt 0.198306 0.080877
vt 0.254489 0.080877
vt 0.309483 0.108339
vt 0.309483 0.080878
vt 0.549115 0.039053
vt 0.511465 0.039053
vt 0.511465 0.011591
vt 0.549115 0.011591
vt 0.464250 0.039053
vt 0.464250 0.011591
vt 0.033940 0.039053
vt 0.007408 0.039053
vt 0.007408 0.011591
vt 0.033940 0.011591
vt 0.054614 0.039053
vt 0.054614 0.011591
vt 0.127649 0.039053
vt 0.127649 0.011591
vt 0.154047 0.039053
vt 0.154047 0.011591
vt 0.231005 0.039053
vt 0.231005 0.011591
vt 0.256561 0.039053
vt 0.256561 0.011591
vt 0.993045 0.108339
vt 0.858070 0.108339
vt 0.858070 0.080878
vt 0.993045 0.080877
vt 0.648653 0.108340
vt 0.648653 0.080878
vt 0.674830 0.108340
vt 0.674830 0.080878
vt 0.701007 0.108340
vt 0.701007 0.080878
vt 0.727184 0.108340
vt 0.727184 0.080878
vt 0.805716 0.108340
vt 0.805716 0.080878
vt 0.831893 0.108339
vt 0.831893 0.080878
vt 0.342021 0.039053
vt 0.342021 0.011591
vt 0.899328 0.040206
vt 0.923151 0.040206
vt 0.923151 0.066514
vt 0.899328 0.066514
vt 0.418328 0.637887
vt 0.392020 0.637887
vt 0.418328 0.537961
vt 0.392020 0.537961
vt 0.767629 0.040206
vt 0.797864 0.040206
vt 0.797864 0.066514
vt 0.767629 0.066514
vt 0.874010 0.198282
vt 0.871437 0.185312
vt 0.894991 0.168047
vt 0.894991 0.198282
vt 0.877726 0.314347
vt 0.877726 0.288986
vt 0.894991 0.288986
vt 0.894991 0.314347
vt 0.877726 0.258751
vt 0.876755 0.228517
vt 0.894991 0.228517
vt 0.894991 0.258751
vt 0.874010 0.414096
vt 0.876755 0.390432
vt 0.894991 0.390432
vt 0.894991 0.414096
vt 0.877726 0.365070
vt 0.877726 0.339709
vt 0.894991 0.339709
vt 0.894991 0.365070
vt 0.871437 0.420495
vt 0.894991 0.437760
vt 0.863621 0.185312
vt 0.861049 0.198282
vt 0.840068 0.198282
vt 0.840068 0.168047
vt 0.857332 0.288986
vt 0.857333 0.314347
vt 0.840068 0.314347
vt 0.840068 0.288986
vt 0.858303 0.228517
vt 0.857332 0.258751
vt 0.840068 0.258751
vt 0.840068 0.228517
vt 0.858303 0.390432
vt 0.861049 0.414096
vt 0.840068 0.414096
vt 0.840068 0.390432
vt 0.857333 0.339709
vt 0.857333 0.365070
vt 0.840068 0.365070
vt 0.840068 0.339709
vt 0.863622 0.420495
vt 0.840068 0.437760
vt 0.867529 0.425102
vt 0.867529 0.437760
vt 0.867529 0.180705
vt 0.867529 0.168047
vt 0.342021 0.066514
vt 0.310670 0.066514
vt 0.446868 0.135801
vt 0.380059 0.135801
vt 0.418328 0.767315
vt 0.392020 0.767315
vt 0.570376 0.066514
vt 0.549115 0.066514
vt 0.418328 0.561784
vt 0.418328 0.587164
vt 0.392020 0.587164
vt 0.392020 0.561784
vt 0.256561 0.066514
vt 0.231005 0.066514
vt 0.154047 0.066514
vt 0.127649 0.066514
vt 0.737379 0.040206
vt 0.737379 0.066514
vt 0.054614 0.066514
vt 0.033940 0.066514
vt 0.707020 0.040206
vt 0.707020 0.066514
vt 0.375515 0.066514
vt 0.858070 0.135801
vt 0.831893 0.135801
vt 0.805716 0.135801
vt 0.779539 0.135801
vt 0.753362 0.135801
vt 0.727184 0.135801
vt 0.701007 0.135801
vt 0.674830 0.135801
vt 0.648653 0.135801
vt 0.513677 0.135801
vt 0.993045 0.135800
vt 0.282734 0.066514
vt 0.204699 0.066514
vt 0.176832 0.066514
vt 0.106598 0.066514
vt 0.077415 0.066514
vt 0.007408 0.066514
vt 0.347075 0.135801
vt 0.309483 0.135801
vt 0.464250 0.066514
vt 0.414944 0.066514
vt 0.511465 0.066514
vt 0.254489 0.135801
vt 0.418328 0.612526
vt 0.392020 0.612526
vt 0.687756 0.040206
vt 0.693797 0.040206
vt 0.693797 0.066514
vt 0.687756 0.066514
vt 0.930048 0.040206
vt 0.930048 0.066514
vt 0.007408 0.135800
vt 0.673394 0.066514
vt 0.442888 0.525023
vt 0.442888 0.542600
vt 0.436407 0.542600
vt 0.438980 0.529630
vt 0.442888 0.633304
vt 0.442888 0.658666
vt 0.432691 0.658666
vt 0.432691 0.633304
vt 0.442888 0.572835
vt 0.442888 0.603070
vt 0.432691 0.603069
vt 0.433662 0.572835
vt 0.442888 0.734750
vt 0.442888 0.758414
vt 0.436407 0.758414
vt 0.433662 0.734750
vt 0.442888 0.684027
vt 0.442888 0.709388
vt 0.432691 0.709388
vt 0.432691 0.684027
vt 0.442888 0.769420
vt 0.438980 0.764813
vt 0.449368 0.542600
vt 0.452114 0.572835
vt 0.449368 0.758414
vt 0.446796 0.764813
vt 0.453085 0.709388
vt 0.452114 0.734750
vt 0.453085 0.658666
vt 0.453085 0.684027
vt 0.453085 0.603069
vt 0.453085 0.633304
vt 0.446796 0.529630
vt 0.418328 0.773356
vt 0.392020 0.773356
vt 0.936089 0.040206
vt 0.936089 0.066514
s 1
f 279/1/1 280/2/1 4/3/1 114/4/1
f 281/5/1 282/6/1 6/7/1 72/8/1
f 115/9/1 10/10/1 48/11/1 121/12/1
f 139/13/1 123/14/1 10/10/1 115/9/1
f 36/15/2 27/16/2 39/17/1 12/18/1
f 285/19/1 286/20/1 20/21/1 89/22/1
f 287/23/1 288/24/1 19/25/1 79/26/1
f 92/27/3 94/28/1 18/29/1 33/30/4
f 83/31/5 95/32/1 99/33/1 35/34/6
f 74/35/2 76/36/1 14/37/1 34/38/7
f 72/8/1 97/39/1 99/33/1 19/25/1
f 73/40/6 75/41/1 41/42/1 35/34/6
f 75/41/1 74/35/2 34/38/7 41/42/1
f 84/43/1 81/44/8 34/38/7 14/37/1
f 82/45/1 83/31/5 35/34/6 41/42/1
f 89/22/1 100/46/1 98/47/1 3/48/1
f 91/49/9 93/50/10 32/51/11 31/52/9
f 93/50/10 92/27/3 33/30/4 32/51/11
f 25/53/12 4/54/13 304/55/13 312/56/14
f 38/57/6 25/58/15 26/59/16 37/60/1
f 37/60/1 26/59/16 27/16/2 36/15/2
f 117/61/6 38/57/6 37/60/1 118/62/1
f 118/62/1 37/60/1 36/15/2 119/63/2
f 119/63/2 36/15/2 12/18/1 116/64/1
f 114/4/1 4/3/1 103/65/1 122/66/1
f 81/44/8 82/45/1 41/42/1 34/38/7
f 76/36/1 78/67/1 66/68/1 14/37/1
f 86/69/1 67/70/1 16/71/1 84/43/1
f 94/28/1 88/72/1 69/73/1 18/29/1
f 110/74/1 57/75/1 56/76/1 55/77/1
f 121/12/1 48/11/1 50/78/1 120/79/1
f 9/80/1 105/81/1 111/82/1 53/83/1
f 102/84/1 112/85/1 107/86/6 24/87/6
f 111/82/1 64/88/1 63/89/1 110/74/1
f 7/90/1 8/91/1 101/92/1 112/85/1
f 109/93/2 62/94/2 59/95/1 106/96/1
f 108/97/1 61/98/1 62/94/2 109/93/2
f 107/86/6 60/99/6 61/98/1 108/97/1
f 138/100/1 127/101/1 58/102/1 105/81/1
f 105/81/1 58/102/1 64/88/1 111/82/1
f 283/103/1 284/104/1 8/91/1 7/90/1
f 282/6/1 283/103/1 7/90/1 6/7/1
f 135/105/1 131/106/1 42/107/1 77/108/1
f 125/109/1 129/110/1 43/111/1 13/112/1
f 128/113/1 125/109/1 13/112/1 44/114/1
f 126/115/1 130/116/1 45/117/1 15/118/1
f 136/119/1 128/113/1 44/114/1 85/120/1
f 131/106/1 124/121/1 9/80/1 42/107/1
f 137/122/1 133/123/1 46/124/1 87/125/1
f 134/126/1 132/127/1 47/128/1 17/129/1
f 133/123/1 126/115/1 15/118/1 46/124/1
f 129/110/1 135/105/1 77/108/1 43/111/1
f 11/130/1 68/131/1 78/67/1 76/36/1
f 40/132/1 23/133/2 74/35/2 75/41/1
f 24/87/6 40/132/1 75/41/1 73/40/6
f 6/7/1 102/84/1 97/39/1 72/8/1
f 23/133/2 11/130/1 76/36/1 74/35/2
f 288/24/1 281/5/1 72/8/1 19/25/1
f 130/116/1 136/119/1 85/120/1 45/117/1
f 65/134/1 86/69/1 84/43/1 14/37/1
f 30/135/8 29/136/1 82/45/1 81/44/8
f 29/136/1 28/137/5 83/31/5 82/45/1
f 16/71/1 30/135/8 81/44/8 84/43/1
f 28/137/5 96/138/1 95/32/1 83/31/5
f 286/20/1 287/23/1 79/26/1 20/21/1
f 132/127/1 137/122/1 87/125/1 47/128/1
f 29/136/1 30/135/8 92/27/3 93/50/10
f 28/137/5 29/136/1 93/50/10 91/49/9
f 20/21/1 96/138/1 100/46/1 89/22/1
f 30/135/8 16/71/1 94/28/1 92/27/3
f 289/139/1 285/19/1 89/22/1 3/48/1
f 16/71/1 70/140/1 88/72/1 94/28/1
f 97/39/1 102/84/1 24/87/6 73/40/6
f 99/33/1 95/32/1 79/26/1 19/25/1
f 122/66/1 103/65/1 38/57/6 117/61/6
f 100/46/1 96/138/1 28/137/5 91/49/9
f 98/47/1 100/46/1 91/49/9 31/52/9
f 112/85/1 101/92/1 60/99/6 107/86/6
f 95/32/1 96/138/1 20/21/1 79/26/1
f 99/33/1 97/39/1 73/40/6 35/34/6
f 120/79/1 50/78/1 51/141/1 52/142/1
f 124/121/1 138/100/1 105/81/1 9/80/1
f 24/87/6 107/86/6 108/97/1 40/132/1
f 40/132/1 108/97/1 109/93/2 23/133/2
f 23/133/2 109/93/2 106/96/1 11/130/1
f 6/7/1 7/90/1 112/85/1 102/84/1
f 53/83/1 111/82/1 110/74/1 55/77/1
f 101/92/1 122/66/1 117/61/6 60/99/6
f 64/88/1 121/12/1 120/79/1 63/89/1
f 8/91/1 114/4/1 122/66/1 101/92/1
f 62/94/2 119/63/2 116/64/1 59/95/1
f 61/98/1 118/62/1 119/63/2 62/94/2
f 60/99/6 117/61/6 118/62/1 61/98/1
f 127/101/1 139/13/1 115/9/1 58/102/1
f 58/102/1 115/9/1 121/12/1 64/88/1
f 284/104/1 279/1/1 114/4/1 8/91/1
f 63/89/1 49/143/1 57/75/1 110/74/1
f 63/89/1 120/79/1 52/142/1 49/143/1
f 59/95/1 116/64/1 139/13/1 127/101/1
f 11/130/1 106/96/1 138/100/1 124/121/1
f 69/73/1 88/72/1 137/122/1 132/127/1
f 67/70/1 86/69/1 136/119/1 130/116/1
f 66/68/1 78/67/1 135/105/1 129/110/1
f 70/140/1 16/71/1 126/115/1 133/123/1
f 18/29/1 69/73/1 132/127/1 134/126/1
f 88/72/1 70/140/1 133/123/1 137/122/1
f 68/131/1 11/130/1 124/121/1 131/106/1
f 86/69/1 65/134/1 128/113/1 136/119/1
f 16/71/1 67/70/1 130/116/1 126/115/1
f 65/134/1 14/37/1 125/109/1 128/113/1
f 14/37/1 66/68/1 129/110/1 125/109/1
f 78/67/1 68/131/1 131/106/1 135/105/1
f 106/96/1 59/95/1 127/101/1 138/100/1
f 116/64/1 12/18/1 123/14/1 139/13/1
f 290/144/17 253/145/17 143/146/17 291/147/17
f 292/148/17 211/149/17 145/150/17 293/151/17
f 254/152/17 260/153/17 187/154/17 149/155/17
f 278/156/17 254/152/17 149/155/17 262/157/17
f 175/158/18 151/159/17 178/160/17 166/161/18
f 296/162/17 228/163/17 159/164/17 297/165/17
f 298/166/17 218/167/17 158/168/17 299/169/17
f 231/170/19 172/171/20 157/172/17 233/173/17
f 222/174/21 174/175/22 238/176/17 234/177/17
f 213/178/18 173/179/23 153/180/17 215/181/17
f 211/149/17 158/168/17 238/176/17 236/182/17
f 212/183/22 174/175/22 180/184/17 214/185/17
f 214/185/17 180/184/17 173/179/23 213/178/18
f 223/186/17 153/180/17 173/179/23 220/187/24
f 221/188/17 180/184/17 174/175/22 222/174/21
f 228/163/17 142/189/17 237/190/17 239/191/17
f 230/192/25 170/193/25 171/194/26 232/195/27
f 232/195/27 171/194/26 172/171/20 231/170/19
f 25/58/15 38/57/6 103/65/1 4/3/1
f 177/196/22 176/197/17 165/198/28 164/199/29
f 176/197/17 175/158/18 166/161/18 165/198/28
f 256/200/22 257/201/17 176/197/17 177/196/22
f 257/201/17 258/202/18 175/158/18 176/197/17
f 258/202/18 255/203/17 151/159/17 175/158/18
f 253/145/17 261/204/17 242/205/17 143/146/17
f 220/187/24 173/179/23 180/184/17 221/188/17
f 215/181/17 153/180/17 205/206/17 217/207/17
f 225/208/17 223/186/17 155/209/17 206/210/17
f 233/173/17 157/172/17 208/211/17 227/212/17
f 249/213/17 194/214/17 195/215/17 196/216/17
f 260/153/17 259/217/17 189/218/17 187/154/17
f 148/219/17 192/220/17 250/221/17 244/222/17
f 241/223/17 163/224/22 246/225/22 251/226/17
f 250/221/17 249/213/17 202/227/17 203/228/17
f 146/229/17 251/226/17 240/230/17 147/231/17
f 248/232/18 245/233/17 198/234/17 201/235/18
f 247/236/17 248/232/18 201/235/18 200/237/17
f 246/225/22 247/236/17 200/237/17 199/238/22
f 277/239/17 244/222/17 197/240/17 266/241/17
f 244/222/17 250/221/17 203/228/17 197/240/17
f 294/242/17 146/229/17 147/231/17 295/243/17
f 293/151/17 145/150/17 146/229/17 294/242/17
f 274/244/17 216/245/17 181/246/17 270/247/17
f 264/248/17 152/249/17 182/250/17 268/251/17
f 267/252/17 183/253/17 152/249/17 264/248/17
f 265/254/17 154/255/17 184/256/17 269/257/17
f 275/258/17 224/259/17 183/253/17 267/252/17
f 270/247/17 181/246/17 148/219/17 263/260/17
f 276/261/17 226/262/17 185/263/17 272/264/17
f 273/265/17 156/266/17 186/267/17 271/268/17
f 272/264/17 185/263/17 154/255/17 265/254/17
f 268/251/17 182/250/17 216/245/17 274/244/17
f 150/269/17 215/181/17 217/207/17 207/270/17
f 179/271/17 214/185/17 213/178/18 162/272/18
f 163/224/22 212/183/22 214/185/17 179/271/17
f 145/150/17 211/149/17 236/182/17 241/223/17
f 162/272/18 213/178/18 215/181/17 150/269/17
f 299/169/17 158/168/17 211/149/17 292/148/17
f 269/257/17 184/256/17 224/259/17 275/258/17
f 204/273/17 153/180/17 223/186/17 225/208/17
f 169/274/24 220/187/24 221/188/17 168/275/17
f 168/275/17 221/188/17 222/174/21 167/276/21
f 155/209/17 223/186/17 220/187/24 169/274/24
f 167/276/21 222/174/21 234/177/17 235/277/17
f 297/165/17 159/164/17 218/167/17 298/166/17
f 271/268/17 186/267/17 226/262/17 276/261/17
f 168/275/17 232/195/27 231/170/19 169/274/24
f 167/276/21 230/192/25 232/195/27 168/275/17
f 159/164/17 228/163/17 239/191/17 235/277/17
f 169/274/24 231/170/19 233/173/17 155/209/17
f 300/278/17 142/189/17 228/163/17 296/162/17
f 155/209/17 233/173/17 227/212/17 209/279/17
f 236/182/17 212/183/22 163/224/22 241/223/17
f 238/176/17 158/168/17 218/167/17 234/177/17
f 261/204/17 256/200/22 177/196/22 242/205/17
f 239/191/17 230/192/25 167/276/21 235/277/17
f 237/190/17 170/193/25 230/192/25 239/191/17
f 251/226/17 246/225/22 199/238/22 240/230/17
f 234/177/17 218/167/17 159/164/17 235/277/17
f 238/176/17 174/175/22 212/183/22 236/182/17
f 259/217/17 191/280/17 190/281/17 189/218/17
f 263/260/17 148/219/17 244/222/17 277/239/17
f 163/224/22 179/271/17 247/236/17 246/225/22
f 179/271/17 162/272/18 248/232/18 247/236/17
f 162/272/18 150/269/17 245/233/17 248/232/18
f 145/150/17 241/223/17 251/226/17 146/229/17
f 192/220/17 194/214/17 249/213/17 250/221/17
f 240/230/17 199/238/22 256/200/22 261/204/17
f 203/228/17 202/227/17 259/217/17 260/153/17
f 147/231/17 240/230/17 261/204/17 253/145/17
f 201/235/18 198/234/17 255/203/17 258/202/18
f 200/237/17 201/235/18 258/202/18 257/201/17
f 199/238/22 200/237/17 257/201/17 256/200/22
f 266/241/17 197/240/17 254/152/17 278/156/17
f 197/240/17 203/228/17 260/153/17 254/152/17
f 295/243/17 147/231/17 253/145/17 290/144/17
f 202/227/17 249/213/17 196/216/17 188/282/17
f 202/227/17 188/282/17 191/280/17 259/217/17
f 198/234/17 266/241/17 278/156/17 255/203/17
f 150/269/17 263/260/17 277/239/17 245/233/17
f 208/211/17 271/268/17 276/261/17 227/212/17
f 206/210/17 269/257/17 275/258/17 225/208/17
f 205/206/17 268/251/17 274/244/17 217/207/17
f 209/279/17 272/264/17 265/254/17 155/209/17
f 157/172/17 273/265/17 271/268/17 208/211/17
f 227/212/17 276/261/17 272/264/17 209/279/17
f 207/270/17 270/247/17 263/260/17 150/269/17
f 225/208/17 275/258/17 267/252/17 204/273/17
f 155/209/17 265/254/17 269/257/17 206/210/17
f 204/273/17 267/252/17 264/248/17 153/180/17
f 153/180/17 264/248/17 268/251/17 205/206/17
f 217/207/17 274/244/17 270/247/17 207/270/17
f 245/233/17 277/239/17 266/241/17 198/234/17
f 255/203/17 278/156/17 262/157/17 151/159/17
f 301/283/30 303/284/31 142/285/31 300/286/30
f 71/287/17 22/288/17 369/289/17 362/290/17
f 304/55/13 302/291/32 291/292/32 143/293/13
f 144/294/1 243/295/33 357/296/33 343/297/1
f 340/298/34 140/299/35 372/300/35 373/301/34
f 22/288/17 80/302/36 368/303/36 369/289/17
f 333/304/37 326/305/38 188/306/38 196/307/37
f 306/308/32 338/309/32 262/310/32 149/311/32
f 307/312/39 317/313/40 178/314/40 151/315/39
f 308/316/41 320/317/42 182/318/42 152/319/41
f 309/320/43 322/321/44 184/322/44 154/323/43
f 310/324/45 324/325/46 186/326/46 156/327/45
f 243/295/33 193/328/47 349/329/47 357/296/33
f 193/328/47 252/330/48 359/331/48 349/329/47
f 316/332/49 311/333/50 157/334/50 172/335/49
f 313/336/51 312/56/14 164/337/14 165/338/51
f 314/339/52 313/336/51 165/338/51 166/340/52
f 337/341/53 315/342/54 170/343/54 237/344/53
f 315/342/54 318/345/55 171/346/55 170/343/54
f 318/345/55 316/332/49 172/335/49 171/346/55
f 317/313/40 314/339/52 166/340/52 178/314/40
f 319/347/56 305/348/57 148/349/57 181/350/56
f 320/317/42 334/351/58 216/352/58 182/318/42
f 321/353/59 308/316/60 152/319/60 183/354/59
f 322/321/44 335/355/61 224/356/61 184/322/44
f 323/357/62 309/320/63 154/323/63 185/358/62
f 324/325/46 336/359/64 226/360/64 186/326/46
f 305/361/30 330/362/65 192/363/65 148/364/30
f 325/365/66 306/308/32 149/311/32 187/366/66
f 327/367/67 325/365/66 187/366/66 189/368/67
f 328/369/68 327/367/67 189/368/67 190/370/68
f 329/371/69 328/369/68 190/370/68 191/372/69
f 326/305/38 329/371/69 191/372/69 188/306/38
f 332/373/70 333/304/37 196/307/37 195/374/70
f 331/375/71 332/373/70 195/374/70 194/376/71
f 330/362/65 331/375/71 194/376/71 192/363/65
f 311/333/50 339/377/72 273/378/72 157/334/50
f 21/379/73 90/380/74 366/381/74 367/382/73
f 334/351/58 319/347/56 181/350/56 216/352/58
f 210/383/1 144/294/1 343/297/1 351/384/1
f 335/355/61 321/353/59 183/354/59 224/356/61
f 336/359/64 323/357/62 185/358/62 226/360/64
f 140/299/35 229/385/75 355/386/75 372/300/35
f 303/284/31 337/341/53 237/344/53 142/285/31
f 104/387/76 5/388/17 363/389/17 364/390/76
f 338/309/32 307/312/32 151/315/32 262/310/32
f 339/377/72 310/324/45 156/327/45 273/378/72
f 113/391/77 2/392/77 280/393/77 279/394/77
f 71/395/77 5/396/77 282/397/77 281/398/77
f 104/399/77 54/400/77 284/401/77 283/402/77
f 5/396/77 104/399/77 283/402/77 282/397/77
f 90/403/77 21/404/77 286/405/77 285/406/77
f 80/407/77 22/408/77 288/409/77 287/410/77
f 22/408/77 71/395/77 281/398/77 288/409/77
f 21/404/77 80/407/77 287/410/77 286/405/77
f 1/411/77 90/403/77 285/406/77 289/412/77
f 54/400/77 113/391/77 279/394/77 284/401/77
f 141/413/77 252/414/77 290/415/77 291/416/77
f 144/417/77 210/418/77 292/419/77 293/420/77
f 193/421/77 243/422/77 294/423/77 295/424/77
f 243/422/77 144/417/77 293/420/77 294/423/77
f 160/425/77 229/426/77 296/427/77 297/428/77
f 161/429/77 219/430/77 298/431/77 299/432/77
f 210/418/77 161/429/77 299/432/77 292/419/77
f 219/430/77 160/425/77 297/428/77 298/431/77
f 229/426/77 140/433/77 300/434/77 296/427/77
f 252/414/77 193/421/77 295/424/77 290/415/77
f 340/435/77 1/411/77 289/412/77 301/436/77
f 341/437/77 141/413/77 291/416/77 302/438/77
f 2/392/77 341/437/77 302/438/77 280/393/77
f 140/433/77 340/435/77 301/436/77 300/434/77
f 134/439/72 17/440/45 310/324/45 339/377/72
f 123/441/32 12/442/32 307/312/32 338/309/32
f 252/330/48 141/443/78 371/444/78 359/331/48
f 3/445/31 98/446/53 337/341/53 303/284/31
f 160/447/79 219/448/80 353/449/80 345/450/79
f 87/451/64 46/452/62 323/357/62 336/359/64
f 85/453/61 44/454/59 321/353/59 335/355/61
f 54/455/81 104/387/76 364/390/76 365/456/81
f 77/457/58 42/458/56 319/347/56 334/351/58
f 113/459/82 54/455/81 365/456/81 360/460/82
f 18/461/50 134/439/72 339/377/72 311/333/50
f 53/462/65 55/463/71 331/375/71 330/362/65
f 55/463/71 56/464/70 332/373/70 331/375/71
f 56/464/70 57/465/37 333/304/37 332/373/70
f 49/466/38 52/467/69 329/371/69 326/305/38
f 52/467/69 51/468/68 328/369/68 329/371/69
f 51/468/68 50/469/67 327/367/67 328/369/68
f 50/469/67 48/470/66 325/365/66 327/367/67
f 48/470/66 10/471/32 306/308/32 325/365/66
f 9/472/30 53/462/65 330/362/65 305/361/30
f 47/473/46 87/451/64 336/359/64 324/325/46
f 46/452/62 15/474/63 309/320/63 323/357/62
f 45/475/44 85/453/61 335/355/61 322/321/44
f 44/454/59 13/476/60 308/316/60 321/353/59
f 43/477/42 77/457/58 334/351/58 320/317/42
f 42/458/56 9/478/57 305/348/57 319/347/56
f 304/55/13 143/293/13 164/337/14 312/56/14
f 39/479/40 27/480/83 314/339/52 317/313/40
f 32/481/55 33/482/84 316/332/49 318/345/55
f 31/483/54 32/481/55 318/345/55 315/342/54
f 98/446/53 31/483/54 315/342/54 337/341/53
f 27/480/83 26/484/51 313/336/51 314/339/52
f 26/484/51 25/53/12 312/56/14 313/336/51
f 33/482/84 18/461/50 311/333/50 316/332/49
f 161/485/1 210/383/1 351/384/1 347/486/1
f 5/388/17 71/287/17 362/290/17 363/389/17
f 17/440/45 47/473/46 324/325/46 310/324/45
f 15/474/43 45/475/44 322/321/44 309/320/43
f 13/476/41 43/477/42 320/317/42 308/316/41
f 12/442/39 39/479/40 317/313/40 307/312/39
f 10/471/32 123/441/32 338/309/32 306/308/32
f 57/465/37 49/466/38 326/305/38 333/304/37
f 341/487/85 2/488/86 361/489/86 374/490/85
f 90/380/74 1/491/87 370/492/87 366/381/74
f 219/448/80 161/485/1 347/486/1 353/449/80
f 4/54/13 280/493/32 302/291/32 304/55/13
f 2/488/86 113/459/82 360/460/82 361/489/86
f 289/494/30 3/445/31 303/284/31 301/283/30
f 374/495/77 358/496/77 359/497/77 371/498/77
f 342/499/77 350/500/77 351/501/77 343/502/77
f 348/503/77 356/504/77 357/505/77 349/506/77
f 356/504/77 342/499/77 343/502/77 357/505/77
f 344/507/77 354/508/77 355/509/77 345/510/77
f 346/511/77 352/512/77 353/513/77 347/514/77
f 350/500/77 346/511/77 347/514/77 351/501/77
f 352/512/77 344/507/77 345/510/77 353/513/77
f 354/508/77 373/515/77 372/516/77 355/509/77
f 358/496/77 348/503/77 349/506/77 359/497/77
f 360/517/77 365/518/77 348/503/77 358/496/77
f 366/519/77 370/520/77 373/515/77 354/508/77
f 368/521/77 367/522/77 344/507/77 352/512/77
f 362/523/77 369/524/77 346/511/77 350/500/77
f 369/524/77 368/521/77 352/512/77 346/511/77
f 367/522/77 366/519/77 354/508/77 344/507/77
f 364/525/77 363/526/77 342/499/77 356/504/77
f 365/518/77 364/525/77 356/504/77 348/503/77
f 363/526/77 362/523/77 350/500/77 342/499/77
f 361/527/77 360/517/77 358/496/77 374/495/77
f 141/443/78 341/528/88 374/529/88 371/444/78
f 229/385/75 160/447/79 345/450/79 355/386/75
f 80/302/36 21/379/73 367/382/73 368/303/36
f 1/491/87 340/530/89 373/531/89 370/492/87
f 242/205/17 177/196/22 164/199/29 143/146/17
