# Blender 4.0.2
# www.blender.org
o headstone_04
v -0.500000 0.000000 0.225000
v -0.500000 0.100000 0.225000
v -0.500000 0.000000 -0.225000
v -0.500000 0.100000 -0.225000
v 0.500000 0.000000 0.225000
v 0.500000 0.100000 0.225000
v 0.500000 0.000000 -0.225000
v 0.500000 0.100000 -0.225000
v -0.430000 0.100000 -0.058568
v -0.430000 0.100000 -0.134568
v 0.430000 0.100000 -0.058568
v 0.430000 0.100000 -0.134568
v -0.430000 0.678560 -0.058568
v -0.111292 1.093908 -0.058568
v -0.215000 1.050951 -0.058568
v -0.304056 0.982616 -0.058568
v -0.372391 0.893560 -0.058568
v -0.415348 0.789852 -0.058568
v -0.430000 0.678560 -0.134568
v -0.415348 0.789852 -0.134568
v -0.372391 0.893560 -0.134568
v -0.304056 0.982616 -0.134568
v -0.215000 1.050951 -0.134568
v -0.111292 1.093908 -0.134568
v 0.430000 0.678560 -0.058568
v -0.000000 1.108560 -0.058568
v 0.415348 0.789852 -0.058568
v 0.372391 0.893560 -0.058568
v 0.304056 0.982616 -0.058568
v 0.215000 1.050951 -0.058568
v 0.111292 1.093908 -0.058568
v -0.000000 1.108560 -0.134568
v 0.430000 0.678560 -0.134568
v 0.111292 1.093908 -0.134568
v 0.215000 1.050951 -0.134568
v 0.304056 0.982616 -0.134568
v 0.372391 0.893560 -0.134568
v 0.415348 0.789852 -0.134568
v -0.000000 0.100000 -0.134568
v -0.000000 0.100000 -0.058568
v -0.000000 0.678560 -0.058568
v -0.000000 0.789852 -0.058568
v -0.000000 0.893560 -0.058568
v -0.000000 0.982616 -0.058568
v -0.000000 1.050951 -0.058568
v -0.000000 0.678560 -0.134568
v -0.000000 0.789852 -0.134568
v -0.000000 0.893560 -0.134568
v -0.000000 0.982616 -0.134568
v -0.000000 1.050951 -0.134568
vn -1.0000 -0.0000 -0.0000
vn -0.0000 -0.0000 -1.0000
vn 1.0000 -0.0000 -0.0000
vn -0.0000 -0.0000 1.0000
vn -0.0000 1.0000 -0.0000
vn 0.9979 0.0654 -0.0000
vn -0.9979 0.0654 -0.0000
vn -0.2588 0.9659 -0.0000
vn -0.5000 0.8660 -0.0000
vn -0.7071 0.7071 -0.0000
vn -0.8660 0.5000 -0.0000
vn -0.9659 0.2588 -0.0000
vn 0.2588 0.9659 -0.0000
vn 0.5000 0.8660 -0.0000
vn 0.7071 0.7071 -0.0000
vn 0.8660 0.5000 -0.0000
vn 0.9659 0.2588 -0.0000
vt 0.652151 0.849092
vt 0.598114 0.849092
vt 0.598114 0.605924
vt 0.652151 0.605924
vt 0.598114 0.551888
vt 0.057741 0.605924
vt 0.057741 0.551887
vt 0.003704 0.605924
vt 0.057741 0.849092
vt 0.003704 0.849092
vt 0.057741 0.903129
vt 0.598114 0.903130
vt 0.681694 0.995488
vt 0.369079 0.995488
vt 0.369079 0.954423
vt 0.681694 0.954423
vt 0.681477 0.947969
vt 0.368838 0.947968
vt 0.368838 0.906900
vt 0.681477 0.906900
vt 0.468628 0.003909
vt 0.468628 0.316546
vt 0.236269 0.316546
vt 0.236269 0.003909
vt 0.236269 0.517775
vt 0.236268 0.548905
vt 0.176129 0.540988
vt 0.120089 0.517775
vt 0.004887 0.947968
vt 0.004887 0.906900
vt 0.065546 0.906900
vt 0.065546 0.947968
vt 0.126204 0.906900
vt 0.126204 0.947968
vt 0.186863 0.906900
vt 0.186863 0.947968
vt 0.247521 0.906900
vt 0.247521 0.947968
vt 0.308180 0.906900
vt 0.308180 0.947968
vt 0.005157 0.995488
vt 0.005157 0.954422
vt 0.065811 0.954422
vt 0.065811 0.995488
vt 0.126465 0.954423
vt 0.126465 0.995488
vt 0.187118 0.954423
vt 0.187118 0.995488
vt 0.247772 0.954423
vt 0.247772 0.995488
vt 0.308426 0.954423
vt 0.308426 0.995488
vt 0.706359 0.517810
vt 0.706359 0.548940
vt 0.646220 0.541023
vt 0.590179 0.517810
vt 0.706359 0.003944
vt 0.706359 0.316581
vt 0.473999 0.316581
vt 0.474000 0.003944
vt 0.706359 0.376720
vt 0.481917 0.376720
vt 0.706359 0.432761
vt 0.505130 0.432760
vt 0.706359 0.480884
vt 0.542056 0.480884
vt 0.870661 0.480884
vt 0.822538 0.517810
vt 0.907588 0.432761
vt 0.930801 0.376720
vt 0.938718 0.316581
vt 0.938718 0.003944
vt 0.003909 0.316546
vt 0.003909 0.003909
vt 0.352448 0.517775
vt 0.296407 0.540988
vt 0.236269 0.376685
vt 0.011827 0.376685
vt 0.460710 0.376685
vt 0.236269 0.432725
vt 0.035039 0.432725
vt 0.437498 0.432726
vt 0.236269 0.480849
vt 0.071966 0.480849
vt 0.400572 0.480849
vt 0.766498 0.541023
s 0
f 1/1/1 2/2/1 4/3/1 3/4/1
f 3/5/2 4/3/2 8/6/2 7/7/2
f 7/8/3 8/6/3 6/9/3 5/10/3
f 5/11/4 6/9/4 2/2/4 1/12/4
f 8/6/5 4/3/5 2/2/5 6/9/5
s 1
f 12/13/3 33/14/6 25/15/6 11/16/3
f 9/17/1 13/18/7 19/19/7 10/20/1
f 10/21/2 19/22/2 46/23/2 39/24/2
f 50/25/2 32/26/2 34/27/2 35/28/2
f 26/29/5 32/30/5 24/31/8 14/32/8
f 14/32/8 24/31/8 23/33/9 15/34/9
f 15/34/9 23/33/9 22/35/10 16/36/10
f 16/36/10 22/35/10 21/37/11 17/38/11
f 17/38/11 21/37/11 20/39/12 18/40/12
f 18/40/12 20/39/12 19/19/7 13/18/7
f 32/41/5 26/42/5 31/43/13 34/44/13
f 34/44/13 31/43/13 30/45/14 35/46/14
f 35/46/14 30/45/14 29/47/15 36/48/15
f 36/48/15 29/47/15 28/49/16 37/50/16
f 37/50/16 28/49/16 27/51/17 38/52/17
f 38/52/17 27/51/17 25/15/6 33/14/6
f 45/53/4 26/54/4 14/55/4 15/56/4
f 40/57/4 41/58/4 13/59/4 9/60/4
f 41/58/4 42/61/4 18/62/4 13/59/4
f 42/61/4 43/63/4 17/64/4 18/62/4
f 43/63/4 44/65/4 16/66/4 17/64/4
f 44/65/4 45/53/4 15/56/4 16/66/4
f 29/67/4 30/68/4 45/53/4 44/65/4
f 28/69/4 29/67/4 44/65/4 43/63/4
f 27/70/4 28/69/4 43/63/4 42/61/4
f 25/71/4 27/70/4 42/61/4 41/58/4
f 11/72/4 25/71/4 41/58/4 40/57/4
f 39/24/2 46/23/2 33/73/2 12/74/2
f 23/75/2 24/76/2 32/26/2 50/25/2
f 46/23/2 47/77/2 38/78/2 33/73/2
f 19/22/2 20/79/2 47/77/2 46/23/2
f 47/77/2 48/80/2 37/81/2 38/78/2
f 20/79/2 21/82/2 48/80/2 47/77/2
f 48/80/2 49/83/2 36/84/2 37/81/2
f 21/82/2 22/85/2 49/83/2 48/80/2
f 49/83/2 50/25/2 35/28/2 36/84/2
f 22/85/2 23/75/2 50/25/2 49/83/2
f 30/68/4 31/86/4 26/54/4 45/53/4
