# Blender 4.0.2
# www.blender.org
o jersey_barrier
v -0.750000 0.000000 -0.305000
v -0.750000 0.810000 -0.076250
v 0.750000 0.000000 -0.305000
v 0.750000 0.810000 -0.076250
v -0.750000 0.076662 -0.305000
v 0.750000 0.076662 -0.305000
v -0.750000 0.319776 -0.120060
v 0.750000 0.319776 -0.120060
v -0.750000 0.000000 0.305000
v -0.750000 0.810000 0.076250
v 0.750000 0.000000 0.305000
v 0.750000 0.810000 0.076250
v -0.750000 0.076662 0.305000
v 0.750000 0.076662 0.305000
v -0.750000 0.319776 0.120060
v 0.750000 0.319776 0.120060
v -0.000000 0.810000 -0.076250
v -0.000000 0.319776 -0.120060
v 0.000000 0.810000 0.076250
v -0.000000 0.000000 -0.305000
v 0.000000 0.000000 0.305000
v 0.000000 0.076662 0.305000
v 0.000000 0.319776 0.120060
v -0.000000 0.076662 -0.305000
v -0.190000 0.000000 -0.305000
v -0.420000 0.000000 -0.305000
v -0.230000 0.040000 -0.305000
v -0.380000 0.040000 -0.305000
v -0.190000 0.000000 0.305000
v -0.420000 0.000000 0.305000
v -0.230000 0.040000 0.305000
v -0.380000 0.040000 0.305000
v 0.190000 0.000000 -0.305000
v 0.420000 0.000000 -0.305000
v 0.230000 0.040000 -0.305000
v 0.380000 0.040000 -0.305000
v 0.190000 0.000000 0.305000
v 0.420000 0.000000 0.305000
v 0.230000 0.040000 0.305000
v 0.380000 0.040000 0.305000
vn 1.0000 -0.0000 -0.0000
vn -0.0000 -1.0000 -0.0000
vn -0.0000 0.0890 0.9960
vn -0.0000 0.6054 0.7959
vn -0.7071 -0.7071 -0.0000
vn -0.0000 1.0000 -0.0000
vn -1.0000 -0.0000 -0.0000
vn -0.0000 0.6054 -0.7959
vn 0.7071 -0.7071 -0.0000
vn -0.0000 -0.0000 -1.0000
vn -0.0000 0.0890 -0.9960
vn -0.0000 -0.0000 1.0000
vt 0.648070 0.004887
vt 0.907243 0.004888
vt 0.907243 0.037460
vt 0.648070 0.037459
vt 0.828667 0.140752
vt 0.726646 0.140752
vt 0.264065 0.841610
vt 0.004881 0.841610
vt 0.004882 0.760880
vt 0.264065 0.760880
vt 0.323548 0.167237
vt 0.642212 0.167237
vt 0.642212 0.376356
vt 0.323548 0.376356
vt 0.323548 0.037450
vt 0.642212 0.037451
vt 0.269915 0.760881
vt 0.529098 0.760881
vt 0.529098 0.784916
vt 0.269915 0.784916
vt 0.977904 0.323539
vt 0.913110 0.323539
vt 0.913110 0.004881
vt 0.977904 0.004881
vt 0.907249 0.389455
vt 0.828672 0.492749
vt 0.726650 0.492749
vt 0.648072 0.389455
vt 0.323541 0.415454
vt 0.642200 0.415454
vt 0.642200 0.545238
vt 0.323541 0.545238
vt 0.004881 0.545238
vt 0.004881 0.415454
vt 0.648152 0.851949
vt 0.907334 0.851949
vt 0.907334 0.992163
vt 0.648152 0.992163
vt 0.269917 0.990685
vt 0.269917 0.966650
vt 0.529100 0.966649
vt 0.529100 0.990685
vt 0.004881 0.382882
vt 0.145091 0.382882
vt 0.162086 0.399877
vt 0.529098 0.872685
vt 0.269915 0.872685
vt 0.269915 0.848650
vt 0.529098 0.848650
vt 0.648072 0.356883
vt 0.907249 0.356883
vt 0.810053 0.349036
vt 0.745259 0.349036
vt 0.810058 0.701035
vt 0.745264 0.701035
vt 0.323541 0.754354
vt 0.004881 0.754354
vt 0.421272 0.021873
vt 0.323548 0.004877
vt 0.404277 0.004877
vt 0.642200 0.754354
vt 0.004884 0.376356
vt 0.004884 0.167237
vt 0.004884 0.037450
vt 0.484995 0.399877
vt 0.501991 0.382882
vt 0.642200 0.382882
vt 0.529100 0.878881
vt 0.529100 0.902916
vt 0.269917 0.902916
vt 0.269917 0.878881
vt 0.225824 0.021873
vt 0.242820 0.004878
vt 0.913110 0.642197
vt 0.977904 0.642197
vt 0.323541 0.382881
vt 0.404269 0.382881
vt 0.421264 0.399877
vt 0.145096 0.004878
vt 0.162091 0.021873
vt 0.004884 0.004878
vt 0.225818 0.399877
vt 0.242813 0.382881
vt 0.502000 0.004878
vt 0.642212 0.004878
vt 0.485005 0.021873
vt 0.907244 0.706879
vt 0.907244 0.847096
vt 0.648057 0.847096
vt 0.648057 0.706879
vt 0.264065 0.922339
vt 0.004881 0.922339
s 0
f 11/1/1 3/2/1 6/3/1 14/4/1
f 6/3/1 8/5/1 16/6/1 14/4/1
f 21/7/2 20/8/2 33/9/2 37/10/2
f 23/11/3 16/12/3 12/13/3 19/14/3
f 22/15/4 14/16/4 16/12/4 23/11/4
f 34/17/5 38/18/5 40/19/5 36/20/5
f 19/21/6 17/22/6 2/23/6 10/24/6
f 13/25/7 15/26/7 7/27/7 5/28/7
f 24/29/8 5/30/8 7/31/8 18/32/8
f 24/29/8 18/32/8 8/33/8 6/34/8
f 26/35/2 30/36/2 9/37/2 1/38/2
f 26/39/9 28/40/9 32/41/9 30/42/9
f 6/34/10 3/43/10 34/44/10 36/45/10
f 37/46/9 33/47/9 35/48/9 39/49/9
f 1/50/7 9/51/7 13/25/7 5/28/7
f 16/6/1 8/5/1 4/52/1 12/53/1
f 15/26/7 10/54/7 2/55/7 7/27/7
f 18/32/11 17/56/11 4/57/11 8/33/11
f 36/20/2 40/19/2 39/49/2 35/48/2
f 39/58/12 22/15/12 21/59/12 37/60/12
f 18/32/11 7/31/11 2/61/11 17/56/11
f 23/11/3 19/14/3 10/62/3 15/63/3
f 22/15/4 23/11/4 15/63/4 13/64/4
f 5/30/10 28/65/10 26/66/10 1/67/10
f 29/68/5 31/69/5 27/70/5 25/71/5
f 28/40/2 27/70/2 31/69/2 32/41/2
f 31/72/12 29/73/12 21/59/12 22/15/12
f 4/74/6 17/22/6 19/21/6 12/75/6
f 20/76/10 25/77/10 27/78/10 24/29/10
f 24/29/10 27/78/10 28/65/10 5/30/10
f 30/79/12 32/80/12 13/64/12 9/81/12
f 32/80/12 31/72/12 22/15/12 13/64/12
f 20/76/10 24/29/10 35/82/10 33/83/10
f 24/29/10 6/34/10 36/45/10 35/82/10
f 38/84/12 11/85/12 14/16/12 40/86/12
f 40/86/12 14/16/12 22/15/12 39/58/12
f 11/87/2 38/88/2 34/89/2 3/90/2
f 21/7/2 29/91/2 25/92/2 20/8/2
