# Blender 4.0.2
# www.blender.org
o magnifying_glass
v 0.000000 0.000000 -0.005008
v 0.000000 0.065944 -0.005008
v 0.001916 0.000000 -0.004627
v -0.004627 0.065944 0.001916
v 0.003541 0.000000 -0.003541
v 0.003541 0.065944 0.003541
v 0.004627 0.000000 -0.001916
v 0.001916 0.065944 -0.004627
v 0.005008 0.000000 0.000000
v -0.004627 0.065944 -0.001916
v 0.004627 0.000000 0.001916
v -0.000000 0.065944 0.005008
v 0.003541 0.000000 0.003541
v 0.004627 0.065944 -0.001916
v 0.001916 0.000000 0.004627
v -0.001916 0.065944 -0.004627
v -0.000000 0.000000 0.005008
v -0.003541 0.065944 0.003541
v -0.001916 0.000000 0.004627
v 0.004627 0.065944 0.001916
v -0.003541 0.000000 0.003541
v -0.005008 0.065944 -0.000000
v -0.004627 0.000000 0.001916
v 0.001916 0.065944 0.004627
v -0.005008 0.000000 -0.000000
v 0.003541 0.065944 -0.003541
v -0.004627 0.000000 -0.001916
v -0.003541 0.065944 -0.003541
v -0.003541 0.000000 -0.003541
v -0.001916 0.065944 0.004627
v -0.001916 0.000000 -0.004627
v 0.005008 0.065944 0.000000
v 0.001916 0.058188 -0.004627
v 0.000000 0.058188 -0.005008
v 0.003541 0.058188 -0.003541
v 0.004627 0.058188 -0.001916
v 0.005008 0.058188 0.000000
v 0.004627 0.058188 0.001916
v 0.003541 0.058188 0.003541
v 0.001916 0.058188 0.004627
v -0.000000 0.058188 0.005008
v -0.001916 0.058188 0.004627
v -0.003541 0.058188 0.003541
v -0.004627 0.058188 0.001916
v -0.005008 0.058188 -0.000000
v -0.004627 0.058188 -0.001916
v -0.003541 0.058188 -0.003541
v -0.001916 0.058188 -0.004627
v 0.005008 0.058904 0.000000
v -0.001916 0.058904 0.004627
v -0.003541 0.058904 -0.003541
v 0.003541 0.058904 -0.003541
v 0.001916 0.058904 0.004627
v -0.005008 0.058904 -0.000000
v 0.004627 0.058904 0.001916
v -0.003541 0.058904 0.003541
v -0.001916 0.058904 -0.004627
v 0.000000 0.058904 -0.005008
v -0.004627 0.058904 0.001916
v 0.003541 0.058904 0.003541
v 0.001916 0.058904 -0.004627
v -0.004627 0.058904 -0.001916
v -0.000000 0.058904 0.005008
v 0.004627 0.058904 -0.001916
v 0.003842 0.071342 0.000000
v 0.003549 0.071342 -0.001470
v -0.001470 0.071342 0.003549
v -0.000000 0.071342 0.003842
v -0.002717 0.071342 -0.002717
v -0.003549 0.071342 -0.001470
v 0.002717 0.071342 -0.002717
v 0.001470 0.071342 -0.003549
v 0.001470 0.071342 0.003549
v 0.002717 0.071342 0.002717
v -0.003842 0.071342 -0.000000
v -0.003549 0.071342 0.001470
v 0.003549 0.071342 0.001470
v -0.002717 0.071342 0.002717
v -0.001470 0.071342 -0.003549
v 0.000000 0.071342 -0.003842
v -0.001345 0.072399 -0.003246
v -0.002485 0.072399 -0.002485
v -0.003246 0.072399 -0.001345
v -0.003514 0.072399 -0.000000
v -0.003246 0.072399 0.001345
v -0.002485 0.072399 0.002485
v -0.001345 0.072399 0.003246
v -0.000000 0.072399 0.003514
v 0.001345 0.072399 0.003246
v 0.002485 0.072399 0.002485
v 0.003246 0.072399 0.001345
v 0.003514 0.072399 0.000000
v 0.003246 0.072399 -0.001345
v 0.002485 0.072399 -0.002485
v 0.000000 0.072399 -0.003514
v 0.001345 0.072399 -0.003246
v -0.001916 0.067726 -0.004627
v -0.003541 0.067726 0.003541
v 0.004627 0.067726 0.001916
v -0.005008 0.067726 -0.000000
v 0.001916 0.067726 0.004627
v 0.003541 0.067726 -0.003541
v -0.003541 0.067726 -0.003541
v -0.001916 0.067726 0.004627
v 0.005008 0.067726 0.000000
v 0.004627 0.067726 -0.001916
v -0.000000 0.067726 0.005008
v -0.004627 0.067726 -0.001916
v 0.001916 0.067726 -0.004627
v 0.003541 0.067726 0.003541
v -0.004627 0.067726 0.001916
v 0.000000 0.067726 -0.005008
v 0.004627 0.070315 -0.001916
v -0.000000 0.070315 0.005008
v -0.004627 0.070315 -0.001916
v 0.001916 0.070315 -0.004627
v 0.003541 0.070315 0.003541
v -0.004627 0.070315 0.001916
v 0.000000 0.070315 -0.005008
v -0.001916 0.070315 -0.004627
v -0.003541 0.070315 0.003541
v 0.004627 0.070315 0.001916
v -0.005008 0.070315 -0.000000
v 0.001916 0.070315 0.004627
v 0.003541 0.070315 -0.003541
v -0.003541 0.070315 -0.003541
v -0.001916 0.070315 0.004627
v 0.005008 0.070315 0.000000
v -0.001295 0.066323 -0.003126
v -0.000000 0.066323 -0.003384
v -0.002393 0.066323 0.002393
v -0.003126 0.066323 0.001295
v 0.003126 0.066323 0.001295
v 0.002393 0.066323 0.002393
v -0.003384 0.066323 0.000000
v -0.003126 0.066323 -0.001295
v 0.001295 0.066323 -0.003126
v 0.001295 0.066323 0.003126
v -0.000000 0.066323 0.003384
v 0.002393 0.066323 -0.002393
v 0.003126 0.066323 -0.001295
v -0.002393 0.066323 -0.002393
v -0.001295 0.066323 0.003126
v 0.003384 0.066323 0.000000
v -0.001295 0.067347 -0.003126
v -0.002393 0.067347 0.002393
v 0.003126 0.067347 0.001295
v -0.003384 0.067347 0.000000
v 0.001295 0.067347 0.003126
v 0.002393 0.067347 -0.002393
v -0.002393 0.067347 -0.002393
v -0.001295 0.067347 0.003126
v 0.003384 0.067347 0.000000
v 0.003126 0.067347 -0.001295
v -0.000000 0.067347 0.003384
v -0.003126 0.067347 -0.001295
v 0.001295 0.067347 -0.003126
v 0.002393 0.067347 0.002393
v -0.003126 0.067347 0.001295
v -0.000000 0.067347 -0.003384
v 0.001344 0.058407 -0.003244
v -0.000000 0.058407 -0.003511
v 0.002483 0.058407 -0.002483
v 0.003244 0.058407 -0.001344
v 0.003511 0.058407 0.000000
v 0.003244 0.058407 0.001344
v 0.002483 0.058407 0.002483
v 0.001344 0.058407 0.003244
v -0.000000 0.058407 0.003511
v -0.001344 0.058407 0.003244
v -0.002483 0.058407 0.002483
v -0.003244 0.058407 0.001344
v -0.003511 0.058407 0.000000
v -0.003244 0.058407 -0.001344
v -0.002483 0.058407 -0.002483
v -0.001344 0.058407 -0.003244
v -0.001344 0.058685 -0.003244
v -0.000000 0.058685 -0.003511
v -0.002483 0.058685 0.002483
v -0.003244 0.058685 0.001344
v 0.003244 0.058685 0.001344
v 0.002483 0.058685 0.002483
v -0.003511 0.058685 0.000000
v -0.003244 0.058685 -0.001344
v 0.001344 0.058685 -0.003244
v 0.001344 0.058685 0.003244
v -0.000000 0.058685 0.003511
v 0.002483 0.058685 -0.002483
v 0.003244 0.058685 -0.001344
v -0.002483 0.058685 -0.002483
v -0.001344 0.058685 0.003244
v 0.003511 0.058685 0.000000
v 0.000000 0.000000 -0.000000
v 0.000000 0.139792 -0.006418
v 0.000000 0.074746 -0.006418
v -0.008418 0.075855 -0.006418
v -0.016261 0.079104 -0.006418
v -0.022997 0.084272 -0.006418
v -0.028166 0.091008 -0.006418
v -0.031415 0.098852 -0.006418
v -0.032523 0.107269 -0.006418
v -0.031415 0.115687 -0.006418
v -0.028166 0.123531 -0.006418
v -0.022997 0.130266 -0.006418
v -0.016261 0.135435 -0.006418
v -0.008417 0.138684 -0.006418
v 0.000000 0.139792 0.000000
v -0.005236 0.074703 0.000000
v -0.016261 0.079104 0.000000
v -0.022997 0.084272 0.000000
v -0.028166 0.091008 0.000000
v -0.031415 0.098852 0.000000
v -0.032523 0.107269 0.000000
v -0.031415 0.115687 0.000000
v -0.028166 0.123531 0.000000
v -0.022997 0.130266 0.000000
v -0.016261 0.135435 0.000000
v -0.008417 0.138684 0.000000
v 0.000000 0.074703 -0.005236
v -0.003702 0.074703 -0.003702
v -0.002073 0.074951 -0.005369
v 0.000000 0.074716 -0.005856
v -0.008418 0.075855 0.000000
v -0.004505 0.073684 0.000000
v 0.000000 0.073684 -0.004469
v -0.003195 0.073684 -0.003159
v 0.000000 0.072399 0.000000
v -0.004369 0.072399 0.000000
v 0.000000 0.072399 -0.004369
v -0.003089 0.072399 -0.003089
v -0.002004 0.074703 -0.004837
v -0.001745 0.073684 -0.004129
v -0.002042 0.072399 0.000000
v -0.001672 0.072399 -0.004036
v 0.000000 0.139792 -0.002861
v -0.008418 0.075855 -0.002861
v -0.016261 0.079104 -0.002861
v -0.022997 0.084272 -0.002861
v -0.028166 0.091008 -0.002861
v -0.031415 0.098852 -0.002861
v -0.032523 0.107269 -0.002861
v -0.031415 0.115687 -0.002861
v -0.028166 0.123531 -0.002861
v -0.022997 0.130266 -0.002861
v -0.016261 0.135435 -0.002861
v -0.008417 0.138684 -0.002861
v -0.004837 0.074703 -0.002004
v -0.004165 0.073684 -0.001709
v 0.000000 0.072399 -0.002026
v -0.004036 0.072399 -0.001672
v -0.001938 0.072399 -0.001938
v 0.008418 0.075855 -0.006418
v 0.016261 0.079104 -0.006418
v 0.022997 0.084272 -0.006418
v 0.028166 0.091008 -0.006418
v 0.031415 0.098852 -0.006418
v 0.032523 0.107269 -0.006418
v 0.031415 0.115687 -0.006418
v 0.028166 0.123531 -0.006418
v 0.022997 0.130266 -0.006418
v 0.016261 0.135435 -0.006418
v 0.008417 0.138684 -0.006418
v 0.005236 0.074703 0.000000
v 0.016261 0.079104 0.000000
v 0.022997 0.084272 0.000000
v 0.028166 0.091008 0.000000
v 0.031415 0.098852 0.000000
v 0.032523 0.107269 0.000000
v 0.031415 0.115687 0.000000
v 0.028166 0.123531 0.000000
v 0.022997 0.130266 0.000000
v 0.016261 0.135435 0.000000
v 0.008417 0.138684 0.000000
v 0.003702 0.074703 -0.003702
v 0.002073 0.074951 -0.005369
v 0.008418 0.075855 0.000000
v 0.004505 0.073684 0.000000
v 0.003195 0.073684 -0.003159
v 0.004369 0.072399 0.000000
v 0.003089 0.072399 -0.003089
v 0.002004 0.074703 -0.004837
v 0.001745 0.073684 -0.004129
v 0.002042 0.072399 0.000000
v 0.001672 0.072399 -0.004036
v 0.008418 0.075855 -0.002861
v 0.016261 0.079104 -0.002861
v 0.022997 0.084272 -0.002861
v 0.028166 0.091008 -0.002861
v 0.031415 0.098852 -0.002861
v 0.032523 0.107269 -0.002861
v 0.031415 0.115687 -0.002861
v 0.028166 0.123531 -0.002861
v 0.022997 0.130266 -0.002861
v 0.016261 0.135435 -0.002861
v 0.008417 0.138684 -0.002861
v 0.004837 0.074703 -0.002004
v 0.004165 0.073684 -0.001709
v 0.004036 0.072399 -0.001672
v 0.001938 0.072399 -0.001938
v 0.000000 0.139792 0.006418
v 0.000000 0.074746 0.006418
v -0.008418 0.075855 0.006418
v -0.016261 0.079104 0.006418
v -0.022997 0.084272 0.006418
v -0.028166 0.091008 0.006418
v -0.031415 0.098852 0.006418
v -0.032523 0.107269 0.006418
v -0.031415 0.115687 0.006418
v -0.028166 0.123531 0.006418
v -0.022997 0.130266 0.006418
v -0.016261 0.135435 0.006418
v -0.008417 0.138684 0.006418
v 0.000000 0.074703 0.005236
v -0.003702 0.074703 0.003702
v -0.002073 0.074951 0.005369
v 0.000000 0.074716 0.005856
v 0.000000 0.073684 0.004469
v -0.003195 0.073684 0.003159
v 0.000000 0.072399 0.004369
v -0.003089 0.072399 0.003089
v -0.002004 0.074703 0.004837
v -0.001745 0.073684 0.004129
v -0.001672 0.072399 0.004036
v 0.000000 0.139792 0.002861
v -0.008418 0.075855 0.002861
v -0.016261 0.079104 0.002861
v -0.022997 0.084272 0.002861
v -0.028166 0.091008 0.002861
v -0.031415 0.098852 0.002861
v -0.032523 0.107269 0.002861
v -0.031415 0.115687 0.002861
v -0.028166 0.123531 0.002861
v -0.022997 0.130266 0.002861
v -0.016261 0.135435 0.002861
v -0.008417 0.138684 0.002861
v -0.004837 0.074703 0.002004
v -0.004165 0.073684 0.001709
v 0.000000 0.072399 0.002026
v -0.004036 0.072399 0.001672
v -0.001938 0.072399 0.001938
v 0.008418 0.075855 0.006418
v 0.016261 0.079104 0.006418
v 0.022997 0.084272 0.006418
v 0.028166 0.091008 0.006418
v 0.031415 0.098852 0.006418
v 0.032523 0.107269 0.006418
v 0.031415 0.115687 0.006418
v 0.028166 0.123531 0.006418
v 0.022997 0.130266 0.006418
v 0.016261 0.135435 0.006418
v 0.008417 0.138684 0.006418
v 0.003702 0.074703 0.003702
v 0.002073 0.074951 0.005369
v 0.003195 0.073684 0.003159
v 0.003089 0.072399 0.003089
v 0.002004 0.074703 0.004837
v 0.001745 0.073684 0.004129
v 0.001672 0.072399 0.004036
v 0.008418 0.075855 0.002861
v 0.016261 0.079104 0.002861
v 0.022997 0.084272 0.002861
v 0.028166 0.091008 0.002861
v 0.031415 0.098852 0.002861
v 0.032523 0.107269 0.002861
v 0.031415 0.115687 0.002861
v 0.028166 0.123531 0.002861
v 0.022997 0.130266 0.002861
v 0.016261 0.135435 0.002861
v 0.008417 0.138684 0.002861
v 0.004837 0.074703 0.002004
v 0.004165 0.073684 0.001709
v 0.004036 0.072399 0.001672
v 0.001938 0.072399 0.001938
v 0.000000 0.138846 -0.006232
v 0.000000 0.075692 -0.006232
v -0.008173 0.076768 -0.006232
v -0.015788 0.079923 -0.006232
v -0.022328 0.084941 -0.006232
v -0.027346 0.091481 -0.006232
v -0.030501 0.099097 -0.006232
v -0.031577 0.107269 -0.006232
v -0.030501 0.115442 -0.006232
v -0.027346 0.123058 -0.006232
v -0.022328 0.129598 -0.006232
v -0.015788 0.134616 -0.006232
v -0.008173 0.137770 -0.006232
v 0.008173 0.076768 -0.006232
v 0.015788 0.079923 -0.006232
v 0.022328 0.084941 -0.006232
v 0.027346 0.091481 -0.006232
v 0.030501 0.099097 -0.006232
v 0.031577 0.107269 -0.006232
v 0.030501 0.115442 -0.006232
v 0.027346 0.123058 -0.006232
v 0.022328 0.129598 -0.006232
v 0.015788 0.134616 -0.006232
v 0.008173 0.137770 -0.006232
v 0.000000 0.138846 0.006232
v 0.000000 0.075692 0.006232
v -0.008173 0.076768 0.006232
v -0.015788 0.079923 0.006232
v -0.022328 0.084941 0.006232
v -0.027346 0.091481 0.006232
v -0.030501 0.099097 0.006232
v -0.031577 0.107269 0.006232
v -0.030501 0.115442 0.006232
v -0.027346 0.123058 0.006232
v -0.022328 0.129598 0.006232
v -0.015788 0.134616 0.006232
v -0.008173 0.137770 0.006232
v 0.008173 0.076768 0.006232
v 0.015788 0.079923 0.006232
v 0.022328 0.084941 0.006232
v 0.027346 0.091481 0.006232
v 0.030501 0.099097 0.006232
v 0.031577 0.107269 0.006232
v 0.030501 0.115442 0.006232
v 0.027346 0.123058 0.006232
v 0.022328 0.129598 0.006232
v 0.015788 0.134616 0.006232
v 0.008173 0.137770 0.006232
v 0.000000 0.138846 -0.001619
v 0.000000 0.075692 -0.001619
v -0.008173 0.076768 -0.001619
v -0.015788 0.079923 -0.001619
v -0.022328 0.084941 -0.001619
v -0.027346 0.091481 -0.001619
v -0.030501 0.099097 -0.001619
v -0.031577 0.107269 -0.001619
v -0.030501 0.115442 -0.001619
v -0.027346 0.123058 -0.001619
v -0.022328 0.129598 -0.001619
v -0.015788 0.134616 -0.001619
v -0.008173 0.137770 -0.001619
v 0.008173 0.076768 -0.001619
v 0.015788 0.079923 -0.001619
v 0.022328 0.084941 -0.001619
v 0.027346 0.091481 -0.001619
v 0.030501 0.099097 -0.001619
v 0.031577 0.107269 -0.001619
v 0.030501 0.115442 -0.001619
v 0.027346 0.123058 -0.001619
v 0.022328 0.129598 -0.001619
v 0.015788 0.134616 -0.001619
v 0.008173 0.137770 -0.001619
v 0.000000 0.138846 0.001619
v 0.000000 0.075692 0.001619
v -0.008173 0.076768 0.001619
v -0.015788 0.079923 0.001619
v -0.022328 0.084941 0.001619
v -0.027346 0.091481 0.001619
v -0.030501 0.099097 0.001619
v -0.031577 0.107269 0.001619
v -0.030501 0.115442 0.001619
v -0.027346 0.123058 0.001619
v -0.022328 0.129598 0.001619
v -0.015788 0.134616 0.001619
v -0.008173 0.137770 0.001619
v 0.008173 0.076768 0.001619
v 0.015788 0.079923 0.001619
v 0.022328 0.084941 0.001619
v 0.027346 0.091481 0.001619
v 0.030501 0.099097 0.001619
v 0.031577 0.107269 0.001619
v 0.030501 0.115442 0.001619
v 0.027346 0.123058 0.001619
v 0.022328 0.129598 0.001619
v 0.015788 0.134616 0.001619
v 0.008173 0.137770 0.001619
v 0.027346 0.107269 0.001619
v 0.022328 0.107269 0.001619
v 0.015788 0.107269 0.001619
v 0.008173 0.107269 0.001619
v 0.000000 0.107269 0.001619
v -0.008173 0.107269 0.001619
v -0.015788 0.107269 0.001619
v -0.022328 0.107269 0.001619
v -0.027346 0.107269 0.001619
v 0.027346 0.107269 -0.001619
v 0.022328 0.107269 -0.001619
v 0.015788 0.107269 -0.001619
v 0.008173 0.107269 -0.001619
v 0.000000 0.107269 -0.001619
v -0.008173 0.107269 -0.001619
v -0.015788 0.107269 -0.001619
v -0.022328 0.107269 -0.001619
v -0.027346 0.107269 -0.001619
vn -0.0000 -0.0000 -1.0000
vn 0.3827 -0.0000 -0.9239
vn 0.7071 -0.0000 -0.7071
vn 0.9239 -0.0000 -0.3827
vn 1.0000 -0.0000 -0.0000
vn 0.9239 -0.0000 0.3827
vn 0.7071 -0.0000 0.7071
vn 0.3827 -0.0000 0.9239
vn -0.0000 -0.0000 1.0000
vn -0.3827 -0.0000 0.9239
vn -0.7071 -0.0000 0.7071
vn -0.9239 -0.0000 0.3827
vn -1.0000 -0.0000 -0.0000
vn -0.9239 -0.0000 -0.3827
vn -0.7071 -0.0000 -0.7071
vn 0.2099 -0.9738 -0.0870
vn 0.2272 -0.9738 -0.0000
vn -0.3827 -0.0000 -0.9239
vn -0.1448 -0.9895 -0.0000
vn -0.1338 -0.9895 -0.0554
vn -0.1024 0.9895 0.1024
vn -0.0554 0.9895 0.1338
vn 0.1338 -0.9895 0.0554
vn 0.1024 -0.9895 0.1024
vn 0.1338 -0.9895 -0.0554
vn 0.1448 -0.9895 -0.0000
vn 0.0554 0.9895 -0.1338
vn -0.0000 0.9895 -0.1448
vn -0.1024 0.9895 -0.1024
vn -0.1338 0.9895 -0.0554
vn 0.1338 0.9895 0.0554
vn 0.1448 0.9895 -0.0000
vn -0.1024 -0.9895 0.1024
vn -0.1338 -0.9895 0.0554
vn -0.0000 -0.9895 0.1448
vn -0.0554 -0.9895 0.1338
vn -0.0554 -0.9895 -0.1338
vn -0.0000 -0.9895 -0.1448
vn -0.0000 0.9895 0.1448
vn -0.1024 -0.9895 -0.1024
vn 0.0554 -0.9895 -0.1338
vn 0.1024 -0.9895 -0.1024
vn -0.1448 0.9895 -0.0000
vn 0.1338 0.9895 -0.0554
vn 0.0554 -0.9895 0.1338
vn -0.0000 0.7504 -0.6610
vn -0.2530 0.7504 -0.6107
vn -0.3172 0.5595 -0.7658
vn -0.0000 0.5595 -0.8288
vn -0.6107 0.7504 0.2530
vn -0.4674 0.7504 0.4674
vn -0.5861 0.5595 0.5861
vn -0.7658 0.5595 0.3172
vn 0.4674 0.7504 0.4674
vn 0.6107 0.7504 0.2530
vn 0.7658 0.5595 0.3172
vn 0.5861 0.5595 0.5861
vn -0.6107 0.7504 -0.2530
vn -0.6610 0.7504 -0.0000
vn -0.8288 0.5595 -0.0000
vn -0.7658 0.5595 -0.3172
vn 0.2530 0.7504 -0.6107
vn 0.3172 0.5595 -0.7658
vn -0.0000 0.7504 0.6610
vn 0.2530 0.7504 0.6107
vn 0.3172 0.5595 0.7658
vn -0.0000 0.5595 0.8288
vn 0.6107 0.7504 -0.2530
vn 0.4674 0.7504 -0.4674
vn 0.5861 0.5595 -0.5861
vn 0.7658 0.5595 -0.3172
vn -0.4674 0.7504 -0.4674
vn -0.5861 0.5595 -0.5861
vn -0.2530 0.7504 0.6107
vn -0.3172 0.5595 0.7658
vn 0.6610 0.7504 -0.0000
vn 0.8288 0.5595 -0.0000
vn -0.3655 0.2962 -0.8824
vn -0.0000 0.2962 -0.9551
vn -0.6754 0.2962 0.6754
vn -0.8824 0.2962 0.3655
vn 0.8824 0.2962 0.3655
vn 0.6754 0.2962 0.6754
vn -0.9551 0.2962 -0.0000
vn -0.8824 0.2962 -0.3655
vn 0.3655 0.2962 -0.8824
vn 0.3655 0.2962 0.8824
vn -0.0000 0.2962 0.9551
vn 0.6754 0.2962 -0.6754
vn 0.8824 0.2962 -0.3655
vn -0.6754 0.2962 -0.6754
vn -0.3655 0.2962 0.8824
vn 0.9551 0.2962 -0.0000
vn 0.2099 -0.9738 0.0870
vn 0.1607 -0.9738 0.1607
vn 0.2100 0.9738 0.0870
vn 0.2273 0.9738 -0.0000
vn -0.2272 -0.9738 -0.0000
vn -0.2099 -0.9738 -0.0870
vn -0.1607 0.9738 0.1607
vn -0.0870 0.9738 0.2100
vn -0.0000 -0.9738 -0.2272
vn 0.0870 -0.9738 -0.2099
vn -0.0870 0.9738 -0.2100
vn -0.1607 0.9738 -0.1607
vn 0.0870 -0.9738 0.2099
vn -0.0000 -0.9738 0.2272
vn 0.2100 0.9738 -0.0870
vn 0.1607 0.9738 -0.1607
vn 0.1607 -0.9738 -0.1607
vn -0.0000 0.9738 0.2272
vn 0.0870 0.9738 0.2100
vn -0.1607 -0.9738 -0.1607
vn -0.0870 -0.9738 -0.2099
vn 0.0870 0.9738 -0.2100
vn -0.0000 0.9738 -0.2272
vn -0.0870 -0.9738 0.2099
vn -0.1607 -0.9738 0.1607
vn -0.2100 0.9738 -0.0870
vn -0.2273 0.9738 -0.0000
vn -0.2099 0.9738 0.0870
vn -0.2099 -0.9738 0.0870
vn 0.1607 0.9738 0.1607
vn 0.1024 0.9895 0.1024
vn -0.0554 0.9895 -0.1338
vn 0.1024 0.9895 -0.1024
vn -0.1338 0.9895 0.0554
vn 0.0554 0.9895 0.1338
vn -0.0000 -1.0000 -0.0000
vn -0.2950 -0.9542 -0.0502
vn -0.3308 -0.9435 -0.0208
vn -0.5000 -0.8660 -0.0000
vn -0.1174 -0.9801 -0.1599
vn -0.1072 -0.9659 -0.2357
vn -0.1697 -0.9711 -0.1679
vn -0.2588 0.9659 -0.0000
vn -0.0000 1.0000 -0.0000
vn -0.5000 0.8660 -0.0000
vn -0.7071 0.7071 -0.0000
vn -0.8660 0.5000 -0.0000
vn -0.9659 0.2588 -0.0000
vn -0.9659 -0.2588 -0.0000
vn -0.8660 -0.5000 -0.0000
vn -0.7071 -0.7071 -0.0000
vn -0.3513 -0.9363 -0.0000
vn -0.7492 -0.5844 -0.3116
vn -0.5703 -0.5887 -0.5729
vn -0.6596 -0.3665 -0.6562
vn -0.8600 -0.3667 -0.3548
vn -0.3048 -0.5955 -0.7433
vn -0.0000 -0.5993 -0.8005
vn -0.0000 -0.3654 -0.9309
vn -0.3581 -0.3662 -0.8589
vn -0.2798 -0.9592 -0.0408
vn -0.3195 -0.9476 -0.0000
vn -0.7021 -0.0964 -0.7056
vn -0.9184 -0.1028 -0.3821
vn -0.0000 -0.0803 -0.9968
vn -0.3775 -0.0864 -0.9220
vn -0.9303 -0.3668 -0.0000
vn -0.9945 -0.1052 -0.0000
vn -0.8126 -0.5828 -0.0000
vn -0.0000 -0.9916 -0.1293
vn -0.0000 -0.9980 -0.0636
vn -0.0000 -0.9764 -0.2159
vn 0.2950 -0.9542 -0.0502
vn 0.5000 -0.8660 -0.0000
vn 0.3308 -0.9435 -0.0208
vn 0.1174 -0.9801 -0.1599
vn 0.1697 -0.9711 -0.1679
vn 0.1072 -0.9659 -0.2357
vn 0.2588 0.9659 -0.0000
vn 0.5000 0.8660 -0.0000
vn 0.7071 0.7071 -0.0000
vn 0.8660 0.5000 -0.0000
vn 0.9659 0.2588 -0.0000
vn 0.9659 -0.2588 -0.0000
vn 0.8660 -0.5000 -0.0000
vn 0.7071 -0.7071 -0.0000
vn 0.3513 -0.9363 -0.0000
vn 0.7492 -0.5844 -0.3116
vn 0.8600 -0.3667 -0.3548
vn 0.6596 -0.3665 -0.6562
vn 0.5703 -0.5887 -0.5729
vn 0.3048 -0.5955 -0.7433
vn 0.3581 -0.3662 -0.8589
vn 0.2798 -0.9592 -0.0408
vn 0.3195 -0.9476 -0.0000
vn 0.9184 -0.1028 -0.3821
vn 0.7021 -0.0964 -0.7056
vn 0.3775 -0.0864 -0.9220
vn 0.9303 -0.3668 -0.0000
vn 0.9945 -0.1052 -0.0000
vn 0.8126 -0.5828 -0.0000
vn -0.2950 -0.9542 0.0502
vn -0.3308 -0.9435 0.0208
vn -0.1174 -0.9801 0.1599
vn -0.1697 -0.9711 0.1679
vn -0.1072 -0.9659 0.2357
vn -0.7492 -0.5844 0.3116
vn -0.8600 -0.3667 0.3548
vn -0.6596 -0.3665 0.6562
vn -0.5703 -0.5887 0.5729
vn -0.3048 -0.5955 0.7433
vn -0.3581 -0.3662 0.8589
vn -0.0000 -0.3654 0.9309
vn -0.0000 -0.5993 0.8005
vn -0.2798 -0.9592 0.0408
vn -0.9184 -0.1028 0.3821
vn -0.7021 -0.0964 0.7056
vn -0.3775 -0.0864 0.9220
vn -0.0000 -0.0803 0.9968
vn -0.0000 -0.9916 0.1293
vn -0.0000 -0.9980 0.0636
vn -0.0000 -0.9764 0.2159
vn 0.2950 -0.9542 0.0502
vn 0.3308 -0.9435 0.0208
vn 0.1174 -0.9801 0.1599
vn 0.1072 -0.9659 0.2357
vn 0.1697 -0.9711 0.1679
vn 0.7492 -0.5844 0.3116
vn 0.5703 -0.5887 0.5729
vn 0.6596 -0.3665 0.6562
vn 0.8600 -0.3667 0.3548
vn 0.3048 -0.5955 0.7433
vn 0.3581 -0.3662 0.8589
vn 0.2798 -0.9592 0.0408
vn 0.7021 -0.0964 0.7056
vn 0.9184 -0.1028 0.3821
vn 0.3775 -0.0864 0.9220
vn -0.1870 -0.0501 -0.9811
vn -0.1936 -0.0000 -0.9811
vn 0.0968 0.1677 0.9811
vn 0.0501 0.1870 0.9811
vn 0.1677 -0.0968 -0.9811
vn 0.1369 -0.1369 -0.9811
vn -0.1677 -0.0968 -0.9811
vn -0.0000 -0.1936 0.9811
vn 0.0501 -0.1870 0.9811
vn -0.1870 0.0501 0.9811
vn -0.1936 -0.0000 0.9811
vn 0.1369 0.1369 0.9811
vn 0.0968 -0.1677 -0.9811
vn -0.1369 -0.1369 -0.9811
vn 0.1677 0.0968 0.9811
vn 0.0501 -0.1870 -0.9811
vn -0.0968 -0.1677 -0.9811
vn -0.1870 -0.0501 0.9811
vn 0.1870 0.0501 0.9811
vn -0.0000 0.1936 -0.9811
vn 0.0501 0.1870 -0.9811
vn -0.0501 -0.1870 -0.9811
vn 0.0968 0.1677 -0.9811
vn -0.1677 -0.0968 0.9811
vn -0.0000 -0.1936 -0.9811
vn 0.1369 0.1369 -0.9811
vn -0.1369 -0.1369 0.9811
vn 0.1936 -0.0000 0.9811
vn 0.1677 0.0968 -0.9811
vn -0.0501 -0.1870 0.9811
vn -0.0968 0.1677 -0.9811
vn -0.0501 0.1870 -0.9811
vn -0.0968 -0.1677 0.9811
vn 0.1870 0.0501 -0.9811
vn -0.0000 0.1936 0.9811
vn -0.0501 0.1870 0.9811
vn -0.1369 0.1369 -0.9811
vn 0.1870 -0.0501 0.9811
vn -0.1677 0.0968 -0.9811
vn 0.1936 -0.0000 -0.9811
vn -0.1870 0.0501 -0.9811
vn 0.1677 -0.0968 0.9811
vn -0.0968 0.1677 0.9811
vn 0.1369 -0.1369 0.9811
vn -0.1369 0.1369 0.9811
vn 0.1870 -0.0501 -0.9811
vn 0.0968 -0.1677 0.9811
vn -0.1677 0.0968 0.9811
vn -0.2588 -0.9659 -0.0000
vn 0.2588 -0.9659 -0.0000
vt 0.004881 0.114922
vt 0.307102 0.114922
vt 0.307102 0.123567
vt 0.004881 0.123567
vt 0.307102 0.132212
vt 0.004881 0.132212
vt 0.307102 0.140858
vt 0.004881 0.140858
vt 0.307102 0.149503
vt 0.004881 0.149503
vt 0.307102 0.158148
vt 0.004881 0.158148
vt 0.307102 0.166793
vt 0.004881 0.166793
vt 0.307102 0.175438
vt 0.004881 0.175438
vt 0.307102 0.184084
vt 0.004881 0.184084
vt 0.307102 0.192729
vt 0.004881 0.192729
vt 0.307102 0.201374
vt 0.004881 0.201374
vt 0.307102 0.210019
vt 0.004881 0.210019
vt 0.307102 0.218665
vt 0.004881 0.218665
vt 0.004881 0.080341
vt 0.307102 0.080341
vt 0.307102 0.088986
vt 0.004881 0.088986
vt 0.307102 0.097631
vt 0.004881 0.097631
vt 0.383462 0.140858
vt 0.383462 0.149503
vt 0.374802 0.149503
vt 0.374802 0.140858
vt 0.307102 0.106277
vt 0.004881 0.106277
vt 0.324256 0.114922
vt 0.324256 0.106277
vt 0.360820 0.106277
vt 0.360820 0.114922
vt 0.324256 0.210019
vt 0.324256 0.201374
vt 0.360820 0.201374
vt 0.360820 0.210019
vt 0.324256 0.166793
vt 0.324256 0.158148
vt 0.360820 0.158148
vt 0.360820 0.166793
vt 0.324256 0.088986
vt 0.324256 0.080341
vt 0.360820 0.080341
vt 0.360820 0.088986
vt 0.324256 0.123567
vt 0.360820 0.123567
vt 0.324256 0.184084
vt 0.324256 0.175438
vt 0.360820 0.175438
vt 0.360820 0.184084
vt 0.324256 0.140858
vt 0.324256 0.132212
vt 0.360820 0.132212
vt 0.360820 0.140858
vt 0.324256 0.097631
vt 0.360820 0.097631
vt 0.324256 0.192729
vt 0.360820 0.192729
vt 0.324256 0.149503
vt 0.360820 0.149503
vt 0.324256 0.218665
vt 0.360820 0.218665
vt 0.316400 0.088986
vt 0.316400 0.080341
vt 0.314958 0.192729
vt 0.314958 0.201374
vt 0.316400 0.166793
vt 0.316400 0.158148
vt 0.316400 0.149503
vt 0.316400 0.140858
vt 0.314958 0.114922
vt 0.314958 0.123567
vt 0.314958 0.088986
vt 0.314958 0.097631
vt 0.314958 0.149503
vt 0.314958 0.158148
vt 0.316400 0.210019
vt 0.316400 0.201374
vt 0.316400 0.192729
vt 0.316400 0.184084
vt 0.316400 0.114922
vt 0.316400 0.106277
vt 0.314958 0.184084
vt 0.316400 0.097631
vt 0.316400 0.132212
vt 0.316400 0.123567
vt 0.314958 0.080341
vt 0.314958 0.140858
vt 0.316400 0.175438
vt 0.396907 0.114922
vt 0.396907 0.106277
vt 0.404976 0.106277
vt 0.404976 0.114922
vt 0.396907 0.210019
vt 0.396907 0.201374
vt 0.404976 0.201374
vt 0.404976 0.210019
vt 0.396907 0.166793
vt 0.396907 0.158148
vt 0.404976 0.158148
vt 0.404976 0.166793
vt 0.396907 0.088986
vt 0.396907 0.080341
vt 0.404976 0.080341
vt 0.404976 0.088986
vt 0.396907 0.123567
vt 0.404976 0.123567
vt 0.396907 0.184084
vt 0.396907 0.175438
vt 0.404976 0.175438
vt 0.404976 0.184084
vt 0.396907 0.140858
vt 0.396907 0.132212
vt 0.404976 0.132212
vt 0.404976 0.140858
vt 0.396907 0.097631
vt 0.404976 0.097631
vt 0.396907 0.192729
vt 0.404976 0.192729
vt 0.396907 0.149503
vt 0.404976 0.149503
vt 0.396907 0.218665
vt 0.404976 0.218665
vt 0.410726 0.106277
vt 0.410726 0.114922
vt 0.410726 0.201374
vt 0.410726 0.210019
vt 0.410726 0.158148
vt 0.410726 0.166793
vt 0.410726 0.080341
vt 0.410726 0.088986
vt 0.410726 0.123567
vt 0.410726 0.175438
vt 0.410726 0.184084
vt 0.410726 0.132212
vt 0.410726 0.140858
vt 0.410726 0.097631
vt 0.410726 0.192729
vt 0.410726 0.149503
vt 0.410726 0.218665
vt 0.383462 0.158148
vt 0.383462 0.166793
vt 0.374802 0.166793
vt 0.374802 0.158148
vt 0.369481 0.149503
vt 0.369481 0.158148
vt 0.383462 0.080341
vt 0.383462 0.088986
vt 0.374802 0.088986
vt 0.374802 0.080341
vt 0.369481 0.192729
vt 0.369481 0.201374
vt 0.383462 0.114922
vt 0.383462 0.123567
vt 0.374802 0.123567
vt 0.374802 0.114922
vt 0.369481 0.097631
vt 0.369481 0.106277
vt 0.383462 0.175438
vt 0.383462 0.184084
vt 0.374802 0.184084
vt 0.374802 0.175438
vt 0.369481 0.132212
vt 0.369481 0.140858
vt 0.383462 0.132212
vt 0.374802 0.132212
vt 0.369481 0.175438
vt 0.369481 0.184084
vt 0.383462 0.097631
vt 0.383462 0.106277
vt 0.374802 0.106277
vt 0.374802 0.097631
vt 0.369481 0.114922
vt 0.369481 0.123567
vt 0.383462 0.192729
vt 0.383462 0.201374
vt 0.374802 0.201374
vt 0.374802 0.192729
vt 0.369481 0.080341
vt 0.369481 0.088986
vt 0.383462 0.218665
vt 0.383462 0.210019
vt 0.369481 0.166793
vt 0.369481 0.218665
vt 0.369481 0.210019
vt 0.374802 0.210019
vt 0.374802 0.218665
vt 0.314958 0.106277
vt 0.314958 0.210019
vt 0.314958 0.166793
vt 0.314958 0.175438
vt 0.314958 0.132212
vt 0.314958 0.218665
vt 0.316400 0.218665
vt 0.457736 0.190421
vt 0.448428 0.192273
vt 0.448429 0.167952
vt 0.465626 0.185149
vt 0.439121 0.190421
vt 0.431231 0.185149
vt 0.425959 0.177259
vt 0.424108 0.167952
vt 0.425959 0.158645
vt 0.431231 0.150755
vt 0.439122 0.145483
vt 0.448429 0.143632
vt 0.457736 0.145483
vt 0.465626 0.150755
vt 0.470898 0.158645
vt 0.472749 0.167952
vt 0.953276 0.009106
vt 0.953335 0.026401
vt 0.912052 0.026427
vt 0.912042 0.009154
vt 0.984530 0.013693
vt 0.985069 0.016526
vt 0.976905 0.022183
vt 0.541055 0.026434
vt 0.541055 0.040324
vt 0.499834 0.040324
vt 0.499834 0.026434
vt 0.582276 0.026434
vt 0.582276 0.040324
vt 0.623497 0.026434
vt 0.623497 0.040324
vt 0.664718 0.026434
vt 0.664718 0.040324
vt 0.705939 0.026434
vt 0.705939 0.040324
vt 0.747160 0.026434
vt 0.747160 0.040324
vt 0.788381 0.026434
vt 0.788381 0.040324
vt 0.829602 0.026434
vt 0.829602 0.040324
vt 0.870824 0.026433
vt 0.870824 0.040324
vt 0.912054 0.040324
vt 0.953341 0.040324
vt 0.548291 0.131507
vt 0.539465 0.131507
vt 0.539465 0.125425
vt 0.548291 0.125425
vt 0.530640 0.131507
vt 0.521762 0.131507
vt 0.521762 0.125425
vt 0.530640 0.125425
vt 0.870823 0.009161
vt 0.829602 0.009161
vt 0.788381 0.009161
vt 0.747160 0.009161
vt 0.705939 0.009161
vt 0.664718 0.009161
vt 0.623497 0.009161
vt 0.582276 0.009161
vt 0.541055 0.009161
vt 0.499834 0.009161
vt 0.971619 0.030574
vt 0.969795 0.040324
vt 0.539465 0.119204
vt 0.548291 0.119204
vt 0.521762 0.119204
vt 0.530640 0.119204
vt 0.038057 0.344893
vt 0.028643 0.344390
vt 0.028643 0.333089
vt 0.036763 0.334704
vt 0.038484 0.354307
vt 0.028643 0.354307
vt 0.049861 0.354307
vt 0.048246 0.346187
vt 0.043647 0.339304
vt 0.557112 0.125425
vt 0.557112 0.119204
vt 0.557112 0.131507
vt 0.994640 0.011128
vt 0.994571 0.008398
vt 0.994708 0.014138
vt 0.046392 0.009106
vt 0.087626 0.009154
vt 0.087616 0.026427
vt 0.046333 0.026401
vt 0.015138 0.013693
vt 0.022763 0.022183
vt 0.014599 0.016526
vt 0.458613 0.026434
vt 0.458613 0.040324
vt 0.417392 0.026434
vt 0.417392 0.040324
vt 0.376171 0.026434
vt 0.376171 0.040324
vt 0.334950 0.026434
vt 0.334950 0.040324
vt 0.293730 0.026434
vt 0.293730 0.040324
vt 0.252508 0.026434
vt 0.252508 0.040324
vt 0.211287 0.026434
vt 0.211287 0.040324
vt 0.170066 0.026434
vt 0.170066 0.040324
vt 0.128844 0.026433
vt 0.128844 0.040324
vt 0.087614 0.040324
vt 0.046327 0.040324
vt 0.495234 0.131507
vt 0.495234 0.125425
vt 0.504060 0.125425
vt 0.504060 0.131507
vt 0.512885 0.131507
vt 0.512885 0.125425
vt 0.128845 0.009160
vt 0.170066 0.009161
vt 0.211287 0.009161
vt 0.252508 0.009161
vt 0.293729 0.009161
vt 0.334950 0.009161
vt 0.376171 0.009161
vt 0.417392 0.009161
vt 0.458613 0.009161
vt 0.028049 0.030574
vt 0.029874 0.040324
vt 0.495234 0.119204
vt 0.504060 0.119204
vt 0.512885 0.119204
vt 0.038057 0.363721
vt 0.036763 0.373910
vt 0.028643 0.375525
vt 0.028643 0.364224
vt 0.048246 0.362427
vt 0.043647 0.369311
vt 0.486413 0.125425
vt 0.486413 0.119204
vt 0.486413 0.131507
vt 0.005028 0.011128
vt 0.005097 0.008397
vt 0.004960 0.014138
vt 0.953276 0.071543
vt 0.912042 0.071494
vt 0.912052 0.054221
vt 0.953335 0.054247
vt 0.984530 0.066956
vt 0.976905 0.058465
vt 0.985069 0.064123
vt 0.541055 0.054214
vt 0.499834 0.054214
vt 0.582276 0.054214
vt 0.623497 0.054214
vt 0.664718 0.054214
vt 0.705939 0.054214
vt 0.747160 0.054214
vt 0.788381 0.054214
vt 0.829602 0.054214
vt 0.870824 0.054215
vt 0.424536 0.131507
vt 0.424536 0.125425
vt 0.433361 0.125425
vt 0.433361 0.131507
vt 0.442186 0.131507
vt 0.442187 0.125425
vt 0.451064 0.125425
vt 0.451064 0.131507
vt 0.870822 0.071488
vt 0.829602 0.071487
vt 0.788381 0.071487
vt 0.747160 0.071487
vt 0.705939 0.071487
vt 0.664718 0.071487
vt 0.623497 0.071487
vt 0.582276 0.071487
vt 0.541055 0.071486
vt 0.499834 0.071486
vt 0.971619 0.050075
vt 0.424536 0.119204
vt 0.433361 0.119204
vt 0.442186 0.119204
vt 0.451064 0.119204
vt 0.019230 0.344893
vt 0.020523 0.334704
vt 0.018802 0.354307
vt 0.007425 0.354307
vt 0.009040 0.346187
vt 0.013640 0.339304
vt 0.415715 0.125425
vt 0.415715 0.119204
vt 0.415715 0.131507
vt 0.994640 0.069521
vt 0.994571 0.072251
vt 0.994708 0.066511
vt 0.046392 0.071543
vt 0.046334 0.054247
vt 0.087616 0.054221
vt 0.087626 0.071494
vt 0.015138 0.066956
vt 0.014600 0.064123
vt 0.022763 0.058465
vt 0.458613 0.054214
vt 0.417392 0.054214
vt 0.376171 0.054214
vt 0.334950 0.054213
vt 0.293730 0.054214
vt 0.252508 0.054214
vt 0.211288 0.054214
vt 0.170066 0.054214
vt 0.128844 0.054215
vt 0.477592 0.131507
vt 0.468767 0.131507
vt 0.468767 0.125425
vt 0.477592 0.125425
vt 0.459942 0.131507
vt 0.459942 0.125425
vt 0.128846 0.071488
vt 0.170067 0.071487
vt 0.211288 0.071487
vt 0.252508 0.071486
vt 0.293730 0.071486
vt 0.334950 0.071486
vt 0.376171 0.071486
vt 0.417392 0.071486
vt 0.458613 0.071486
vt 0.028049 0.050075
vt 0.468767 0.119204
vt 0.477592 0.119204
vt 0.459942 0.119204
vt 0.019230 0.363721
vt 0.020523 0.373910
vt 0.009040 0.362427
vt 0.013640 0.369311
vt 0.005028 0.069521
vt 0.005097 0.072251
vt 0.004961 0.066511
vt 0.288231 0.316998
vt 0.247753 0.316998
vt 0.247753 0.312334
vt 0.288231 0.312334
vt 0.085840 0.302997
vt 0.045362 0.302997
vt 0.045362 0.298333
vt 0.085840 0.298333
vt 0.652531 0.316998
vt 0.612054 0.316998
vt 0.612054 0.312334
vt 0.652531 0.312334
vt 0.328709 0.316998
vt 0.328709 0.312334
vt 0.490622 0.302997
vt 0.450144 0.302997
vt 0.450144 0.298333
vt 0.490622 0.298333
vt 0.773970 0.302997
vt 0.733492 0.302997
vt 0.733492 0.298333
vt 0.773970 0.298333
vt 0.126318 0.302997
vt 0.126318 0.298333
vt 0.571576 0.316998
vt 0.571576 0.312334
vt 0.369187 0.316998
vt 0.369187 0.312334
vt 0.166797 0.302997
vt 0.166797 0.298333
vt 0.531098 0.316998
vt 0.531098 0.312334
vt 0.409665 0.316998
vt 0.409665 0.312334
vt 0.693014 0.302997
vt 0.693014 0.298333
vt 0.207275 0.302997
vt 0.207275 0.298333
vt 0.976354 0.316998
vt 0.935876 0.316998
vt 0.935876 0.312334
vt 0.976354 0.312334
vt 0.450142 0.316998
vt 0.450142 0.312334
vt 0.895398 0.316998
vt 0.895398 0.312334
vt 0.652535 0.302997
vt 0.652535 0.298333
vt 0.490620 0.316998
vt 0.490620 0.312334
vt 0.854920 0.316998
vt 0.854920 0.312334
vt 0.612057 0.302997
vt 0.612057 0.298333
vt 0.247753 0.302997
vt 0.247753 0.298333
vt 0.814443 0.316998
vt 0.814443 0.312334
vt 0.531101 0.302997
vt 0.531101 0.298333
vt 0.085842 0.316998
vt 0.045364 0.316998
vt 0.045364 0.312334
vt 0.085842 0.312334
vt 0.571579 0.302997
vt 0.571579 0.298333
vt 0.004887 0.316998
vt 0.004887 0.312334
vt 0.773965 0.316998
vt 0.773965 0.312334
vt 0.976361 0.302997
vt 0.935883 0.302997
vt 0.935883 0.298333
vt 0.976361 0.298333
vt 0.126320 0.316998
vt 0.126320 0.312334
vt 0.288231 0.302997
vt 0.288231 0.298333
vt 0.166798 0.316998
vt 0.166798 0.312334
vt 0.733487 0.316998
vt 0.733487 0.312334
vt 0.207276 0.316998
vt 0.207276 0.312334
vt 0.328710 0.302997
vt 0.328710 0.298333
vt 0.895405 0.302997
vt 0.895405 0.298333
vt 0.369188 0.302997
vt 0.369188 0.298333
vt 0.004884 0.302997
vt 0.004884 0.298333
vt 0.854927 0.302997
vt 0.854927 0.298333
vt 0.693009 0.316998
vt 0.693009 0.312334
vt 0.409666 0.302997
vt 0.409666 0.298333
vt 0.814448 0.302997
vt 0.814448 0.298333
vt 0.525317 0.288865
vt 0.485284 0.288865
vt 0.485284 0.228335
vt 0.525317 0.228335
vt 0.445251 0.288865
vt 0.445251 0.228336
vt 0.405218 0.288865
vt 0.405218 0.228336
vt 0.365185 0.288865
vt 0.365185 0.228336
vt 0.325152 0.288865
vt 0.325152 0.228336
vt 0.285119 0.288865
vt 0.285119 0.228335
vt 0.245086 0.288865
vt 0.245086 0.228335
vt 0.205053 0.288865
vt 0.205053 0.228335
vt 0.165019 0.288865
vt 0.165020 0.228335
vt 0.124987 0.288865
vt 0.124987 0.228335
vt 0.084954 0.288865
vt 0.084954 0.228335
vt 0.044920 0.288865
vt 0.044920 0.228335
vt 0.004887 0.288865
vt 0.004887 0.228335
vt 0.965680 0.288864
vt 0.925647 0.288865
vt 0.925647 0.228335
vt 0.965680 0.228335
vt 0.885614 0.288865
vt 0.885614 0.228335
vt 0.845581 0.288865
vt 0.845581 0.228335
vt 0.805548 0.288865
vt 0.805548 0.228335
vt 0.765515 0.288865
vt 0.765515 0.228335
vt 0.725482 0.288865
vt 0.725482 0.228335
vt 0.685449 0.288865
vt 0.685449 0.228336
vt 0.645416 0.288865
vt 0.645416 0.228336
vt 0.605383 0.288865
vt 0.605383 0.228335
vt 0.565350 0.288865
vt 0.565350 0.228336
vt 0.470898 0.177259
vt 0.293541 0.486400
vt 0.293541 0.563076
vt 0.308861 0.526091
vt 0.314087 0.486400
vt 0.160733 0.486400
vt 0.121042 0.486400
vt 0.121042 0.634528
vt 0.160733 0.639753
vt 0.027925 0.409723
vt 0.012605 0.446709
vt 0.007380 0.486400
vt 0.027925 0.486400
vt 0.084056 0.486400
vt 0.084056 0.619208
vt 0.121042 0.338272
vt 0.084056 0.353592
vt 0.052296 0.486400
vt 0.052296 0.594837
vt 0.052296 0.377962
vt 0.027925 0.563076
vt 0.745035 0.111193
vt 0.745035 0.080339
vt 0.724629 0.080339
vt 0.724629 0.111193
vt 0.765441 0.111193
vt 0.765441 0.080339
vt 0.806252 0.111193
vt 0.806252 0.080339
vt 0.785846 0.080339
vt 0.785846 0.111193
vt 0.293541 0.409723
vt 0.308861 0.446709
vt 0.160733 0.333046
vt 0.269170 0.377962
vt 0.269170 0.486400
vt 0.237410 0.353592
vt 0.237410 0.486400
vt 0.200424 0.338272
vt 0.200424 0.486400
vt 0.269170 0.594837
vt 0.237410 0.619208
vt 0.200424 0.634528
vt 0.012605 0.526090
vt 0.607933 0.486399
vt 0.628478 0.486399
vt 0.623253 0.446708
vt 0.607933 0.409723
vt 0.826658 0.080339
vt 0.826658 0.111193
vt 0.342317 0.486399
vt 0.342317 0.409723
vt 0.326997 0.446709
vt 0.321772 0.486399
vt 0.475125 0.486399
vt 0.514816 0.486399
vt 0.514816 0.338271
vt 0.475125 0.333046
vt 0.551802 0.486399
vt 0.551801 0.353591
vt 0.583562 0.486399
vt 0.583562 0.377962
vt 0.475125 0.639752
vt 0.514816 0.634527
vt 0.551802 0.619207
vt 0.583562 0.594836
vt 0.607933 0.563076
vt 0.623253 0.526090
vt 0.435434 0.634527
vt 0.435434 0.486399
vt 0.435434 0.338271
vt 0.342317 0.563076
vt 0.326997 0.526090
vt 0.398448 0.353592
vt 0.398448 0.486399
vt 0.398448 0.619207
vt 0.366688 0.377962
vt 0.366688 0.486399
vt 0.366688 0.594836
vt 0.847064 0.080339
vt 0.847064 0.111193
vt 0.867470 0.080339
vt 0.867470 0.111193
vt 0.887876 0.080339
vt 0.887876 0.111193
vt 0.908282 0.080339
vt 0.908282 0.111193
vt 0.438947 0.080339
vt 0.418541 0.080339
vt 0.418541 0.111193
vt 0.438947 0.111193
vt 0.459353 0.080339
vt 0.459353 0.111193
vt 0.479759 0.080339
vt 0.479759 0.111193
vt 0.500165 0.080339
vt 0.500165 0.111193
vt 0.520571 0.080339
vt 0.520571 0.111193
vt 0.540977 0.080339
vt 0.540976 0.111193
vt 0.561382 0.080339
vt 0.561382 0.111193
vt 0.581788 0.080339
vt 0.581788 0.111193
vt 0.602194 0.080339
vt 0.602194 0.111193
vt 0.622600 0.080339
vt 0.622600 0.111193
vt 0.643006 0.080339
vt 0.643006 0.111193
vt 0.663411 0.080339
vt 0.663411 0.111193
vt 0.683817 0.080339
vt 0.683817 0.111193
vt 0.704223 0.080339
vt 0.704223 0.111193
s 1
f 1/1/1 34/2/1 33/3/2 3/4/2
f 3/4/2 33/3/2 35/5/3 5/6/3
f 5/6/3 35/5/3 36/7/4 7/8/4
f 7/8/4 36/7/4 37/9/5 9/10/5
f 9/10/5 37/9/5 38/11/6 11/12/6
f 11/12/6 38/11/6 39/13/7 13/14/7
f 13/14/7 39/13/7 40/15/8 15/16/8
f 15/16/8 40/15/8 41/17/9 17/18/9
f 17/18/9 41/17/9 42/19/10 19/20/10
f 19/20/10 42/19/10 43/21/11 21/22/11
f 21/22/11 43/21/11 44/23/12 23/24/12
f 23/24/12 44/23/12 45/25/13 25/26/13
f 25/27/13 45/28/13 46/29/14 27/30/14
f 27/30/14 46/29/14 47/31/15 29/32/15
f 106/33/16 105/34/17 153/35/17 154/36/16
f 29/32/15 47/31/15 48/37/18 31/38/18
f 31/38/18 48/37/18 34/2/1 1/1/1
f 58/39/1 57/40/18 16/41/18 2/42/1
f 59/43/12 56/44/11 18/45/11 4/46/12
f 60/47/7 55/48/6 20/49/6 6/50/7
f 62/51/14 54/52/13 22/53/13 10/54/14
f 61/55/2 58/39/1 2/42/1 8/56/2
f 63/57/9 53/58/8 24/59/8 12/60/9
f 64/61/4 52/62/3 26/63/3 14/64/4
f 57/40/18 51/65/15 28/66/15 16/41/18
f 56/44/11 50/67/10 30/68/10 18/45/11
f 55/48/6 49/69/5 32/70/5 20/49/6
f 54/71/13 59/43/12 4/46/12 22/72/13
f 53/58/8 60/47/7 6/50/7 24/59/8
f 52/62/3 61/55/2 8/56/2 26/63/3
f 51/65/15 62/51/14 10/54/14 28/66/15
f 50/67/10 63/57/9 12/60/9 30/68/10
f 49/69/5 64/61/4 14/64/4 32/70/5
f 54/52/19 62/51/20 184/73/20 183/74/19
f 43/21/21 42/19/22 170/75/22 171/76/21
f 55/48/23 60/47/24 182/77/24 181/78/23
f 64/61/25 49/69/26 192/79/26 189/80/25
f 33/3/27 34/2/28 162/81/28 161/82/27
f 47/31/29 46/29/30 174/83/30 175/84/29
f 38/11/31 37/9/32 165/85/32 166/86/31
f 56/44/33 59/43/34 180/87/34 179/88/33
f 63/57/35 50/67/36 191/89/36 187/90/35
f 57/40/37 58/39/38 178/91/38 177/92/37
f 42/19/22 41/17/39 169/93/39 170/75/22
f 62/51/20 51/65/40 190/94/40 184/73/20
f 61/55/41 52/62/42 188/95/42 185/96/41
f 46/29/30 45/28/43 173/97/43 174/83/30
f 37/9/32 36/7/44 164/98/44 165/85/32
f 60/47/24 53/58/45 186/99/45 182/77/24
f 119/100/46 120/101/47 79/102/48 80/103/49
f 118/104/50 121/105/51 78/106/52 76/107/53
f 117/108/54 122/109/55 77/110/56 74/111/57
f 115/112/58 123/113/59 75/114/60 70/115/61
f 116/116/62 119/100/46 80/103/49 72/117/63
f 114/118/64 124/119/65 73/120/66 68/121/67
f 113/122/68 125/123/69 71/124/70 66/125/71
f 120/101/47 126/126/72 69/127/73 79/102/48
f 121/105/51 127/128/74 67/129/75 78/106/52
f 122/109/55 128/130/76 65/131/77 77/110/56
f 123/132/59 118/104/50 76/107/53 75/133/60
f 124/119/65 117/108/54 74/111/57 73/120/66
f 125/123/69 116/116/62 72/117/63 71/124/70
f 126/126/72 115/112/58 70/115/61 69/127/73
f 127/128/74 114/118/64 68/121/67 67/129/75
f 128/130/76 113/122/68 66/125/71 65/131/77
f 80/103/49 79/102/48 81/134/78 95/135/79
f 76/107/53 78/106/52 86/136/80 85/137/81
f 74/111/57 77/110/56 91/138/82 90/139/83
f 70/115/61 75/114/60 84/140/84 83/141/85
f 72/117/63 80/103/49 95/135/79 96/142/86
f 68/121/67 73/120/66 89/143/87 88/144/88
f 66/125/71 71/124/70 94/145/89 93/146/90
f 79/102/48 69/127/73 82/147/91 81/134/78
f 78/106/52 67/129/75 87/148/92 86/136/80
f 77/110/56 65/131/77 92/149/93 91/138/82
f 75/133/60 76/107/53 85/137/81 84/150/84
f 73/120/66 74/111/57 90/139/83 89/143/87
f 71/124/70 72/117/63 96/142/86 94/145/89
f 69/127/73 70/115/61 83/141/85 82/147/91
f 67/129/75 68/121/67 88/144/88 87/148/92
f 65/131/77 66/125/71 93/146/90 92/149/93
f 99/151/94 110/152/95 158/153/95 147/154/94
f 20/49/96 32/70/97 144/155/97 133/156/96
f 100/157/98 108/158/99 156/159/99 148/160/98
f 18/45/100 30/68/101 143/161/101 131/162/100
f 112/163/102 109/164/103 157/165/103 160/166/102
f 16/41/104 28/66/105 142/167/105 129/168/104
f 101/169/106 107/170/107 155/171/107 149/172/106
f 14/64/108 26/63/109 140/173/109 141/174/108
f 102/175/110 106/33/16 154/36/16 150/176/110
f 12/60/111 24/59/112 138/177/112 139/178/111
f 103/179/113 97/180/114 145/181/114 151/182/113
f 8/56/115 2/42/116 130/183/116 137/184/115
f 104/185/117 98/186/118 146/187/118 152/188/117
f 10/54/119 22/53/120 135/189/120 136/190/119
f 105/34/17 99/151/94 147/154/94 153/35/17
f 105/34/5 106/33/4 113/122/4 128/130/5
f 104/185/10 107/170/9 114/118/9 127/128/10
f 103/179/15 108/158/14 115/112/14 126/126/15
f 102/175/3 109/164/2 116/116/2 125/123/3
f 101/169/8 110/152/7 117/108/7 124/119/8
f 100/191/13 111/192/12 118/104/12 123/132/13
f 99/151/6 105/34/5 128/130/5 122/109/6
f 98/186/11 104/185/10 127/128/10 121/105/11
f 97/180/18 103/179/15 126/126/15 120/101/18
f 106/33/4 102/175/3 125/123/3 113/122/4
f 107/170/9 101/169/8 124/119/8 114/118/9
f 109/164/2 112/163/1 119/100/1 116/116/2
f 108/158/14 100/157/13 123/113/13 115/112/14
f 110/152/7 99/151/6 122/109/6 117/108/7
f 111/192/12 98/186/11 121/105/11 118/104/12
f 112/163/1 97/180/18 120/101/18 119/100/1
f 144/155/5 141/174/4 154/36/4 153/35/5
f 143/161/10 139/178/9 155/171/9 152/188/10
f 142/167/15 136/190/14 156/159/14 151/182/15
f 140/173/3 137/184/2 157/165/2 150/176/3
f 138/177/8 134/193/7 158/153/7 149/172/8
f 135/194/13 132/195/12 159/196/12 148/197/13
f 133/156/6 144/155/5 153/35/5 147/154/6
f 131/162/11 143/161/10 152/188/10 146/187/11
f 129/168/18 142/167/15 151/182/15 145/181/18
f 141/174/4 140/173/3 150/176/3 154/36/4
f 139/178/9 138/177/8 149/172/8 155/171/9
f 137/184/2 130/183/1 160/166/1 157/165/2
f 136/190/14 135/189/13 148/160/13 156/159/14
f 134/193/7 133/156/6 147/154/6 158/153/7
f 132/195/12 131/162/11 146/187/11 159/196/12
f 130/183/1 129/168/18 145/181/18 160/166/1
f 22/72/120 4/46/121 132/195/121 135/194/120
f 98/186/118 111/192/122 159/196/122 146/187/118
f 107/170/107 104/185/117 152/188/117 155/171/107
f 24/59/112 6/50/123 134/193/123 138/177/112
f 97/180/114 112/163/102 160/166/102 145/181/114
f 108/158/99 103/179/113 151/182/113 156/159/99
f 26/63/109 8/56/115 137/184/115 140/173/109
f 109/164/103 102/175/110 150/176/110 157/165/103
f 28/66/105 10/54/119 136/190/119 142/167/105
f 2/42/116 16/41/104 129/168/104 130/183/116
f 30/68/101 12/60/111 139/178/111 143/161/101
f 110/152/95 101/169/106 149/172/106 158/153/95
f 4/46/121 18/45/100 131/162/100 132/195/121
f 111/192/122 100/191/98 148/197/98 159/196/122
f 32/70/97 14/64/108 141/174/108 144/155/97
f 6/50/123 20/49/96 133/156/96 134/193/123
f 162/81/1 176/198/18 177/92/18 178/91/1
f 172/199/12 171/76/11 179/88/11 180/87/12
f 167/200/7 166/86/6 181/78/6 182/77/7
f 174/83/14 173/97/13 183/74/13 184/73/14
f 161/82/2 162/81/1 178/91/1 185/96/2
f 169/93/9 168/201/8 186/99/8 187/90/9
f 164/98/4 163/202/3 188/95/3 189/80/4
f 176/198/18 175/84/15 190/94/15 177/92/18
f 171/76/11 170/75/10 191/89/10 179/88/11
f 166/86/6 165/85/5 192/79/5 181/78/6
f 173/203/13 172/199/12 180/87/12 183/204/13
f 168/201/8 167/200/7 182/77/7 186/99/8
f 163/202/3 161/82/2 185/96/2 188/95/3
f 175/84/15 174/83/14 184/73/14 190/94/15
f 170/75/10 169/93/9 187/90/9 191/89/10
f 165/85/5 164/98/4 189/80/4 192/79/5
f 58/39/38 61/55/41 185/96/41 178/91/38
f 39/13/124 38/11/31 166/86/31 167/200/124
f 48/37/125 47/31/29 175/84/29 176/198/125
f 53/58/45 63/57/35 187/90/35 186/99/45
f 35/5/126 33/3/27 161/82/27 163/202/126
f 44/23/127 43/21/21 171/76/21 172/199/127
f 52/62/42 64/61/25 189/80/25 188/95/42
f 51/65/40 57/40/37 177/92/37 190/94/40
f 40/15/128 39/13/124 167/200/124 168/201/128
f 34/2/28 48/37/125 176/198/125 162/81/28
f 50/67/36 56/44/33 179/88/33 191/89/36
f 36/7/44 35/5/126 163/202/126 164/98/44
f 45/25/43 44/23/127 172/199/127 173/203/43
f 49/69/26 55/48/23 181/78/23 192/79/26
f 59/43/34 54/71/19 183/204/19 180/87/34
f 41/17/39 40/15/128 168/201/128 169/93/39
f 7/205/129 9/206/129 193/207/129 5/208/129
f 11/209/129 13/210/129 193/207/129 9/206/129
f 15/211/129 17/212/129 193/207/129 13/210/129
f 19/213/129 21/214/129 193/207/129 17/212/129
f 23/215/129 25/216/129 193/207/129 21/214/129
f 27/217/129 29/218/129 193/207/129 25/216/129
f 31/219/129 1/220/129 193/207/129 29/218/129
f 196/221/130 236/222/131 237/223/132 197/224/132
f 221/225/133 231/226/134 220/227/135 196/221/130
f 246/228/136 218/229/136 207/230/137 235/231/137
f 245/232/138 217/233/138 218/229/136 246/228/136
f 244/234/139 216/235/139 217/233/138 245/232/138
f 243/236/140 215/237/140 216/235/139 244/234/139
f 242/238/141 214/239/141 215/237/140 243/236/140
f 241/240/13 213/241/13 214/239/141 242/238/141
f 240/242/142 212/243/142 213/241/13 241/240/13
f 239/244/143 211/245/143 212/243/142 240/242/142
f 238/246/144 210/247/144 211/245/143 239/244/143
f 237/223/132 209/248/132 210/247/144 238/246/144
f 236/222/131 223/249/145 209/248/132 237/223/132
f 247/250/146 220/251/147 226/252/148 248/253/149
f 231/254/150 219/255/151 225/256/152 232/257/153
f 197/224/132 237/223/132 238/246/144 198/258/144
f 198/258/144 238/246/144 239/244/143 199/259/143
f 199/259/143 239/244/143 240/242/142 200/260/142
f 200/260/142 240/242/142 241/240/13 201/261/13
f 201/261/13 241/240/13 242/238/141 202/262/141
f 202/262/141 242/238/141 243/236/140 203/263/140
f 203/263/140 243/236/140 244/234/139 204/264/139
f 204/264/139 244/234/139 245/232/138 205/265/138
f 205/265/138 245/232/138 246/228/136 206/266/136
f 206/266/136 246/228/136 235/231/137 194/267/137
f 247/268/154 208/269/155 223/249/145 236/222/131
f 248/253/149 226/252/148 230/270/156 250/271/157
f 232/257/153 225/256/152 229/272/158 234/273/159
f 251/274/129 233/275/129 228/276/129 250/277/129
f 249/278/129 227/279/129 233/275/129 251/274/129
f 226/252/148 232/257/153 234/273/159 230/270/156
f 220/251/147 231/254/150 232/257/153 226/252/148
f 229/280/129 249/278/129 251/274/129 234/281/129
f 234/281/129 251/274/129 250/277/129 230/282/129
f 224/283/160 248/253/149 250/271/157 228/284/161
f 220/227/135 247/268/154 236/222/131 196/221/130
f 208/285/162 247/250/146 248/253/149 224/283/160
f 222/286/163 221/225/133 196/221/130 195/287/164
f 219/288/165 231/226/134 221/225/133 222/286/163
f 252/289/166 253/290/167 286/291/167 285/292/168
f 275/293/169 252/289/166 274/294/170 281/295/171
f 295/296/172 235/231/137 207/230/137 273/297/172
f 294/298/173 295/296/172 273/297/172 272/299/173
f 293/300/174 294/298/173 272/299/173 271/301/174
f 292/302/175 293/300/174 271/301/174 270/303/175
f 291/304/176 292/302/175 270/303/175 269/305/176
f 290/306/5 291/304/176 269/305/176 268/307/5
f 289/308/177 290/306/5 268/307/5 267/309/177
f 288/310/178 289/308/177 267/309/177 266/311/178
f 287/312/179 288/310/178 266/311/178 265/313/179
f 286/291/167 287/312/179 265/313/179 264/314/167
f 285/292/168 286/291/167 264/314/167 276/315/180
f 296/316/181 297/317/182 278/318/183 274/319/184
f 281/320/185 282/321/186 225/256/152 219/255/151
f 253/290/167 254/322/179 287/312/179 286/291/167
f 254/322/179 255/323/178 288/310/178 287/312/179
f 255/323/178 256/324/177 289/308/177 288/310/178
f 256/324/177 257/325/5 290/306/5 289/308/177
f 257/325/5 258/326/176 291/304/176 290/306/5
f 258/326/176 259/327/175 292/302/175 291/304/176
f 259/327/175 260/328/174 293/300/174 292/302/175
f 260/328/174 261/329/173 294/298/173 293/300/174
f 261/329/173 262/330/172 295/296/172 294/298/173
f 262/330/172 194/267/137 235/231/137 295/296/172
f 296/331/187 285/292/168 276/315/180 263/332/188
f 297/317/182 298/333/189 280/334/190 278/318/183
f 282/321/186 284/335/191 229/272/158 225/256/152
f 299/336/129 298/337/129 279/338/129 283/339/129
f 249/278/129 299/336/129 283/339/129 227/279/129
f 278/318/183 280/334/190 284/335/191 282/321/186
f 274/319/184 278/318/183 282/321/186 281/320/185
f 229/280/129 284/340/129 299/336/129 249/278/129
f 284/340/129 280/341/129 298/337/129 299/336/129
f 277/342/192 279/343/193 298/333/189 297/317/182
f 274/294/170 252/289/166 285/292/168 296/331/187
f 263/344/194 277/342/192 297/317/182 296/316/181
f 222/345/163 195/346/164 252/289/166 275/293/169
f 219/347/165 222/345/163 275/293/169 281/295/171
f 302/348/195 303/349/132 326/350/132 325/351/196
f 315/352/197 302/348/195 314/353/198 321/354/199
f 335/355/136 324/356/137 207/230/137 218/229/136
f 334/357/138 335/355/136 218/229/136 217/233/138
f 333/358/139 334/357/138 217/233/138 216/235/139
f 332/359/140 333/358/139 216/235/139 215/237/140
f 331/360/141 332/359/140 215/237/140 214/239/141
f 330/361/13 331/360/141 214/239/141 213/241/13
f 329/362/142 330/361/13 213/241/13 212/243/142
f 328/363/143 329/362/142 212/243/142 211/245/143
f 327/364/144 328/363/143 211/245/143 210/247/144
f 326/350/132 327/364/144 210/247/144 209/248/132
f 325/351/196 326/350/132 209/248/132 223/249/145
f 336/365/200 337/366/201 318/367/202 314/368/203
f 321/369/204 322/370/205 317/371/206 313/372/207
f 303/349/132 304/373/144 327/364/144 326/350/132
f 304/373/144 305/374/143 328/363/143 327/364/144
f 305/374/143 306/375/142 329/362/142 328/363/143
f 306/375/142 307/376/13 330/361/13 329/362/142
f 307/376/13 308/377/141 331/360/141 330/361/13
f 308/377/141 309/378/140 332/359/140 331/360/141
f 309/378/140 310/379/139 333/358/139 332/359/140
f 310/379/139 311/380/138 334/357/138 333/358/139
f 311/380/138 312/381/136 335/355/136 334/357/138
f 312/381/136 300/382/137 324/356/137 335/355/136
f 336/383/208 325/351/196 223/249/145 208/269/155
f 337/366/201 339/384/209 320/385/210 318/367/202
f 322/370/205 323/386/211 319/387/212 317/371/206
f 340/388/129 339/389/129 228/276/129 233/275/129
f 338/390/129 340/388/129 233/275/129 227/279/129
f 318/367/202 320/385/210 323/386/211 322/370/205
f 314/368/203 318/367/202 322/370/205 321/369/204
f 319/391/129 323/392/129 340/388/129 338/390/129
f 323/392/129 320/393/129 339/389/129 340/388/129
f 224/394/160 228/395/161 339/384/209 337/366/201
f 314/353/198 302/348/195 325/351/196 336/383/208
f 208/396/162 224/394/160 337/366/201 336/365/200
f 316/397/213 301/398/214 302/348/195 315/352/197
f 313/399/215 316/397/213 315/352/197 321/354/199
f 341/400/216 359/401/217 360/402/167 342/403/167
f 353/404/218 356/405/219 352/406/220 341/400/216
f 369/407/172 273/297/172 207/230/137 324/356/137
f 368/408/173 272/299/173 273/297/172 369/407/172
f 367/409/174 271/301/174 272/299/173 368/408/173
f 366/410/175 270/303/175 271/301/174 367/409/174
f 365/411/176 269/305/176 270/303/175 366/410/175
f 364/412/5 268/307/5 269/305/176 365/411/176
f 363/413/177 267/309/177 268/307/5 364/412/5
f 362/414/178 266/311/178 267/309/177 363/413/177
f 361/415/179 265/313/179 266/311/178 362/414/178
f 360/402/167 264/314/167 265/313/179 361/415/179
f 359/401/217 276/315/180 264/314/167 360/402/167
f 370/416/221 352/417/222 354/418/223 371/419/224
f 356/420/225 313/372/207 317/371/206 357/421/226
f 342/403/167 360/402/167 361/415/179 343/422/179
f 343/422/179 361/415/179 362/414/178 344/423/178
f 344/423/178 362/414/178 363/413/177 345/424/177
f 345/424/177 363/413/177 364/412/5 346/425/5
f 346/425/5 364/412/5 365/411/176 347/426/176
f 347/426/176 365/411/176 366/410/175 348/427/175
f 348/427/175 366/410/175 367/409/174 349/428/174
f 349/428/174 367/409/174 368/408/173 350/429/173
f 350/429/173 368/408/173 369/407/172 351/430/172
f 351/430/172 369/407/172 324/356/137 300/382/137
f 370/431/227 263/332/188 276/315/180 359/401/217
f 371/419/224 354/418/223 355/432/228 372/433/229
f 357/421/226 317/371/206 319/387/212 358/434/230
f 373/435/129 283/339/129 279/338/129 372/436/129
f 338/390/129 227/279/129 283/339/129 373/435/129
f 354/418/223 357/421/226 358/434/230 355/432/228
f 352/417/222 356/420/225 357/421/226 354/418/223
f 319/391/129 338/390/129 373/435/129 358/437/129
f 358/437/129 373/435/129 372/436/129 355/438/129
f 277/342/192 371/419/224 372/433/229 279/343/193
f 352/406/220 370/431/227 359/401/217 341/400/216
f 263/344/194 370/416/221 371/419/224 277/342/192
f 316/439/213 353/404/218 341/400/216 301/440/214
f 313/441/215 356/405/219 353/404/218 316/439/213
f 258/442/231 257/443/232 392/444/232 393/445/231
f 303/446/233 302/447/234 400/448/234 401/449/233
f 203/450/235 204/451/236 384/452/236 383/453/235
f 259/454/237 258/442/231 393/445/231 394/455/237
f 300/456/238 312/457/239 410/458/239 398/459/238
f 345/460/240 346/461/241 416/462/241 415/463/240
f 304/464/242 303/446/233 401/449/233 402/465/242
f 204/451/236 205/466/243 385/467/243 384/452/236
f 260/468/244 259/454/237 394/455/237 395/469/244
f 305/470/245 304/464/242 402/465/242 403/471/245
f 205/466/243 206/472/246 386/473/246 385/467/243
f 261/474/247 260/468/244 395/469/244 396/475/247
f 346/461/241 347/476/248 417/477/248 416/462/241
f 306/478/249 305/470/245 403/471/245 404/479/249
f 195/480/250 196/481/251 376/482/251 375/483/250
f 262/484/252 261/474/247 396/475/247 397/485/252
f 196/481/251 197/486/253 377/487/253 376/482/251
f 347/476/248 348/488/254 418/489/254 417/477/248
f 206/472/246 194/490/255 374/491/255 386/473/246
f 194/490/255 262/484/252 397/485/252 374/491/255
f 197/486/253 198/492/256 378/493/256 377/487/253
f 348/488/254 349/494/257 419/495/257 418/489/254
f 307/496/258 306/478/249 404/479/249 405/497/258
f 198/492/256 199/498/259 379/499/259 378/493/256
f 351/500/260 300/456/238 398/459/238 421/501/260
f 253/502/261 252/503/262 387/504/262 388/505/261
f 349/494/257 350/506/263 420/507/263 419/495/257
f 252/503/262 195/508/250 375/509/250 387/504/262
f 199/498/259 200/510/264 380/511/264 379/499/259
f 301/512/265 341/513/266 411/514/266 399/515/265
f 254/516/267 253/502/261 388/505/261 389/517/267
f 350/506/263 351/500/260 421/501/260 420/507/263
f 308/518/268 307/496/258 405/497/258 406/519/268
f 255/520/269 254/516/267 389/517/267 390/521/269
f 200/510/264 201/522/270 381/523/270 380/511/264
f 256/524/271 255/520/269 390/521/269 391/525/271
f 309/526/272 308/518/268 406/519/268 407/527/272
f 341/513/266 342/528/273 412/529/273 411/514/266
f 310/530/274 309/526/272 407/527/272 408/531/274
f 302/447/234 301/532/265 399/533/265 400/448/234
f 342/528/273 343/534/275 413/535/275 412/529/273
f 201/522/270 202/536/276 382/537/276 381/523/270
f 257/443/232 256/524/271 391/525/271 392/444/232
f 311/538/277 310/530/274 408/531/274 409/539/277
f 343/534/275 344/540/278 414/541/278 413/535/275
f 312/457/239 311/538/277 409/539/277 410/458/239
f 344/540/278 345/460/240 415/463/240 414/541/278
f 202/536/276 203/450/235 383/453/235 382/537/276
f 400/542/172 399/543/137 375/544/137 376/545/172
f 399/543/137 411/546/136 387/547/136 375/544/137
f 411/546/136 412/548/138 388/549/138 387/547/136
f 412/548/138 413/550/139 389/551/139 388/549/138
f 413/550/139 414/552/140 390/553/140 389/551/139
f 414/552/140 415/554/141 391/555/141 390/553/140
f 415/554/141 416/556/13 392/557/13 391/555/141
f 416/556/13 417/558/142 393/559/142 392/557/13
f 417/558/142 418/560/143 394/561/143 393/559/142
f 418/560/143 419/562/144 395/563/144 394/561/143
f 419/562/144 420/564/132 396/565/132 395/563/144
f 420/564/132 421/566/279 397/567/279 396/565/132
f 421/566/279 398/568/129 374/569/129 397/567/279
f 398/570/129 410/571/280 386/572/280 374/573/129
f 410/571/280 409/574/167 385/575/167 386/572/280
f 409/574/167 408/576/179 384/577/179 385/575/167
f 408/576/179 407/578/178 383/579/178 384/577/179
f 407/578/178 406/580/177 382/581/177 383/579/178
f 406/580/177 405/582/5 381/583/5 382/581/177
f 405/582/5 404/584/176 380/585/176 381/583/5
f 404/584/176 403/586/175 379/587/175 380/585/176
f 403/586/175 402/588/174 378/589/174 379/587/175
f 402/588/174 401/590/173 377/591/173 378/589/174
f 401/590/173 400/542/172 376/545/172 377/591/173
f 3/592/129 5/208/129 193/207/129 1/220/129
f 479/593/1 442/594/1 441/595/1 440/596/1
f 483/597/1 484/598/1 434/599/1 422/600/1
f 427/601/1 428/602/1 429/603/1 487/604/1
f 484/598/1 485/605/1 433/606/1 434/599/1
f 424/607/1 425/608/1 485/605/1 484/598/1
f 485/605/1 486/609/1 432/610/1 433/606/1
f 425/608/1 426/611/1 486/609/1 485/605/1
f 486/609/1 487/604/1 431/612/1 432/610/1
f 426/611/1 427/601/1 487/604/1 486/609/1
f 451/613/143 427/614/143 426/615/144 450/616/144
f 452/617/142 428/618/142 427/614/143 451/613/143
f 454/619/141 430/620/141 429/621/13 453/622/13
f 453/622/13 429/621/13 428/618/142 452/617/142
f 438/623/1 479/593/1 440/596/1 439/624/1
f 424/607/1 484/598/1 483/597/1 423/625/1
f 437/626/1 480/627/1 479/593/1 438/623/1
f 436/628/1 481/629/1 480/627/1 437/626/1
f 435/630/1 482/631/1 481/629/1 436/628/1
f 423/625/1 483/597/1 482/631/1 435/630/1
f 480/627/1 443/632/1 442/594/1 479/593/1
f 481/629/1 444/633/1 443/632/1 480/627/1
f 482/631/1 445/634/1 444/633/1 481/629/1
f 483/597/1 422/600/1 445/634/1 482/631/1
f 487/604/1 429/603/1 430/635/1 431/612/1
f 470/636/9 464/637/9 465/638/9 466/639/9
f 431/640/140 430/620/141 454/619/141 455/641/140
f 478/642/9 455/643/9 454/644/9 453/645/9
f 474/646/9 473/647/9 469/648/9 446/649/9
f 473/647/9 472/650/9 468/651/9 469/648/9
f 472/650/9 471/652/9 467/653/9 468/651/9
f 471/652/9 470/636/9 466/639/9 467/653/9
f 447/654/9 459/655/9 473/647/9 474/646/9
f 459/655/9 460/656/9 472/650/9 473/647/9
f 460/656/9 461/657/9 471/652/9 472/650/9
f 461/657/9 462/658/9 470/636/9 471/652/9
f 462/658/9 463/659/9 464/637/9 470/636/9
f 448/660/9 447/654/9 474/646/9 475/661/9
f 474/646/9 446/649/9 458/662/9 475/661/9
f 451/663/9 478/642/9 453/645/9 452/664/9
f 475/661/9 458/662/9 457/665/9 476/666/9
f 448/660/9 475/661/9 476/666/9 449/667/9
f 476/666/9 457/665/9 456/668/9 477/669/9
f 449/667/9 476/666/9 477/669/9 450/670/9
f 477/669/9 456/668/9 455/643/9 478/642/9
f 450/670/9 477/669/9 478/642/9 451/663/9
f 432/671/139 431/640/140 455/641/140 456/672/139
f 433/673/138 432/671/139 456/672/139 457/674/138
f 434/675/136 433/673/138 457/674/138 458/676/136
f 422/677/137 434/675/136 458/676/136 446/678/137
f 445/679/172 422/680/137 446/681/137 469/682/172
f 444/683/173 445/679/172 469/682/172 468/684/173
f 443/685/174 444/683/173 468/684/173 467/686/174
f 442/687/175 443/685/174 467/686/174 466/688/175
f 441/689/176 442/687/175 466/688/175 465/690/176
f 440/691/5 441/689/176 465/690/176 464/692/5
f 439/693/177 440/691/5 464/692/5 463/694/177
f 438/695/178 439/693/177 463/694/177 462/696/178
f 437/697/179 438/695/178 462/696/178 461/698/179
f 436/699/167 437/697/179 461/698/179 460/700/167
f 435/701/280 436/699/167 460/700/167 459/702/280
f 423/703/129 435/701/280 459/702/280 447/704/129
f 424/705/279 423/703/129 447/704/129 448/706/279
f 425/707/132 424/705/279 448/706/279 449/708/132
f 450/616/144 426/615/144 425/707/132 449/708/132
