# Blender 4.0.2
# www.blender.org
o incense_holder
v -0.030261 0.015569 -0.000000
v -0.022180 0.010723 -0.000000
v -0.011090 0.007302 -0.000000
v -0.000000 0.006230 0.000000
v -0.025349 0.020133 0.123294
v -0.018751 0.018046 0.126101
v -0.009376 0.016167 0.128021
v -0.000000 0.015569 0.128636
v -0.030261 0.015569 0.095726
v -0.029695 0.016167 0.105922
v -0.027930 0.018046 0.116119
v -0.022180 0.010723 0.095726
v -0.011090 0.007302 0.095726
v -0.000000 0.006230 0.095726
v -0.021766 0.011577 0.106858
v -0.010883 0.008323 0.107561
v -0.000000 0.007302 0.107787
v -0.020472 0.014285 0.117990
v -0.010236 0.011577 0.119397
v -0.000000 0.010723 0.119848
v -0.036905 0.022684 0.106275
v -0.033204 0.022684 0.116426
v -0.009700 0.022684 0.135862
v -0.000000 0.022684 0.137207
v -0.027346 0.022684 0.125466
v -0.019034 0.022684 0.131838
v -0.038141 0.022684 -0.000000
v -0.038141 0.022684 0.095726
v 0.030261 0.015569 0.000000
v 0.022180 0.010723 0.000000
v 0.011090 0.007302 0.000000
v 0.025349 0.020133 0.123294
v 0.018751 0.018046 0.126101
v 0.009376 0.016167 0.128021
v 0.030261 0.015569 0.095726
v 0.029695 0.016167 0.105922
v 0.027930 0.018046 0.116119
v 0.022180 0.010723 0.095726
v 0.011090 0.007302 0.095726
v 0.021766 0.011577 0.106858
v 0.010883 0.008323 0.107561
v 0.020472 0.014285 0.117990
v 0.010236 0.011577 0.119397
v 0.036905 0.022684 0.106275
v 0.033204 0.022684 0.116426
v 0.009700 0.022684 0.135862
v 0.027346 0.022684 0.125466
v 0.019034 0.022684 0.131838
v 0.038141 0.022684 0.000000
v 0.038141 0.022684 0.095726
v -0.025349 0.020133 -0.123294
v -0.018751 0.018046 -0.126101
v -0.009376 0.016167 -0.128021
v 0.000000 0.015569 -0.128636
v -0.030261 0.015569 -0.095726
v -0.029695 0.016167 -0.105922
v -0.027930 0.018046 -0.116119
v -0.022180 0.010723 -0.095726
v -0.011090 0.007302 -0.095726
v 0.000000 0.006230 -0.095726
v -0.021766 0.011577 -0.106858
v -0.010883 0.008323 -0.107561
v 0.000000 0.007302 -0.107787
v -0.020472 0.014285 -0.117990
v -0.010236 0.011577 -0.119397
v 0.000000 0.010723 -0.119848
v -0.036905 0.022684 -0.106275
v -0.033204 0.022684 -0.116426
v -0.009700 0.022684 -0.135862
v 0.000000 0.022684 -0.137207
v -0.027346 0.022684 -0.125466
v -0.019034 0.022684 -0.131838
v -0.038141 0.022684 -0.095726
v 0.025349 0.020133 -0.123294
v 0.018751 0.018046 -0.126101
v 0.009376 0.016167 -0.128021
v 0.030261 0.015569 -0.095726
v 0.029695 0.016167 -0.105922
v 0.027930 0.018046 -0.116119
v 0.022180 0.010723 -0.095726
v 0.011090 0.007302 -0.095726
v 0.021766 0.011577 -0.106858
v 0.010883 0.008323 -0.107561
v 0.020472 0.014285 -0.117990
v 0.010236 0.011577 -0.119397
v 0.036905 0.022684 -0.106275
v 0.033204 0.022684 -0.116426
v 0.009700 0.022684 -0.135862
v 0.027346 0.022684 -0.125466
v 0.019034 0.022684 -0.131838
v 0.038141 0.022684 -0.095726
v -0.049443 0.000000 0.109403
v -0.045501 0.000000 0.121482
v -0.012738 0.000000 0.148523
v -0.000000 0.000000 0.149992
v -0.036352 0.000000 0.134752
v -0.025680 0.000000 0.143147
v -0.050258 0.000000 -0.000000
v -0.050258 0.000000 0.096497
v 0.049443 0.000000 0.109403
v 0.045501 0.000000 0.121482
v 0.012738 0.000000 0.148523
v 0.036352 0.000000 0.134752
v 0.025680 0.000000 0.143147
v 0.050258 0.000000 0.096497
v -0.049443 0.000000 -0.109403
v -0.045501 0.000000 -0.121482
v -0.012738 0.000000 -0.148523
v 0.000000 0.000000 -0.149992
v -0.036352 0.000000 -0.134752
v -0.025680 0.000000 -0.143147
v -0.050258 0.000000 -0.096497
v 0.049443 0.000000 -0.109403
v 0.045501 0.000000 -0.121482
v 0.012738 0.000000 -0.148523
v 0.036352 0.000000 -0.134752
v 0.025680 0.000000 -0.143147
v 0.050258 0.000000 0.000000
v 0.050258 0.000000 -0.096497
v -0.049443 0.019844 0.109403
v -0.046653 0.022684 0.108707
v -0.042842 0.022684 0.120389
v -0.045501 0.019844 0.121482
v -0.012738 0.019844 0.148523
v -0.012066 0.022684 0.145722
v -0.000000 0.019844 0.149992
v -0.000000 0.022684 0.147115
v -0.036352 0.019844 0.134752
v -0.034358 0.022684 0.132696
v -0.024225 0.022684 0.140670
v -0.025680 0.019844 0.143147
v -0.047434 0.022684 -0.000000
v -0.050258 0.019844 -0.000000
v -0.047434 0.022684 0.096317
v -0.050258 0.019844 0.096497
v 0.046653 0.022684 0.108707
v 0.049443 0.019844 0.109403
v 0.045501 0.019844 0.121482
v 0.042842 0.022684 0.120389
v 0.012066 0.022684 0.145722
v 0.012738 0.019844 0.148523
v 0.034358 0.022684 0.132696
v 0.036352 0.019844 0.134752
v 0.025680 0.019844 0.143147
v 0.024225 0.022684 0.140670
v 0.050258 0.019844 0.096497
v 0.047434 0.022684 0.096317
v -0.046653 0.022684 -0.108707
v -0.049443 0.019844 -0.109403
v -0.045501 0.019844 -0.121482
v -0.042842 0.022684 -0.120389
v -0.012066 0.022684 -0.145722
v -0.012738 0.019844 -0.148523
v 0.000000 0.022684 -0.147115
v 0.000000 0.019844 -0.149992
v -0.034358 0.022684 -0.132696
v -0.036352 0.019844 -0.134752
v -0.025680 0.019844 -0.143147
v -0.024225 0.022684 -0.140670
v -0.050258 0.019844 -0.096497
v -0.047434 0.022684 -0.096317
v 0.049443 0.019844 -0.109403
v 0.046653 0.022684 -0.108707
v 0.042842 0.022684 -0.120389
v 0.045501 0.019844 -0.121482
v 0.012738 0.019844 -0.148523
v 0.012066 0.022684 -0.145722
v 0.036352 0.019844 -0.134752
v 0.034358 0.022684 -0.132696
v 0.024225 0.022684 -0.140670
v 0.025680 0.019844 -0.143147
v 0.047434 0.022684 0.000000
v 0.050258 0.019844 0.000000
v 0.047434 0.022684 -0.096317
v 0.050258 0.019844 -0.096497
v 0.000000 0.000000 -0.143147
v 0.000000 0.000000 -0.134752
v 0.000000 0.000000 -0.121482
v 0.000000 0.000000 -0.109403
v 0.000000 0.000000 -0.096497
v -0.000000 0.000000 0.000000
v -0.000000 0.000000 0.096497
v -0.000000 0.000000 0.109403
v -0.000000 0.000000 0.121482
v -0.000000 0.000000 0.134752
v -0.000000 0.000000 0.143147
v 0.000000 0.008910 -0.133958
v -0.000637 0.009029 -0.134002
v -0.001176 0.009367 -0.134128
v -0.001537 0.009873 -0.134316
v -0.001664 0.010470 -0.134537
v -0.001537 0.011067 -0.134759
v -0.001176 0.011573 -0.134947
v -0.000637 0.011911 -0.135073
v 0.000000 0.012029 -0.135117
v 0.000637 0.011911 -0.135073
v 0.001176 0.011573 -0.134947
v 0.001537 0.011067 -0.134759
v 0.001664 0.010470 -0.134537
v 0.001537 0.009873 -0.134316
v 0.001176 0.009367 -0.134128
v 0.000637 0.009029 -0.134002
v -0.000000 0.093700 0.092515
v -0.000000 0.092505 0.091032
v -0.000406 0.093775 0.092487
v -0.000637 0.092623 0.090988
v -0.000750 0.093991 0.092407
v -0.001176 0.092962 0.090862
v -0.000980 0.094313 0.092287
v -0.001537 0.093468 0.090674
v -0.001060 0.094693 0.092145
v -0.001664 0.094064 0.090452
v -0.000980 0.095074 0.092004
v -0.001537 0.094661 0.090231
v -0.000750 0.095396 0.091884
v -0.001176 0.095167 0.090043
v -0.000406 0.095612 0.091804
v -0.000637 0.095505 0.089917
v -0.000000 0.095687 0.091776
v -0.000000 0.095624 0.089873
v 0.000406 0.095612 0.091804
v 0.000637 0.095505 0.089917
v 0.000750 0.095396 0.091884
v 0.001176 0.095167 0.090043
v 0.000980 0.095074 0.092004
v 0.001537 0.094661 0.090231
v 0.001060 0.094693 0.092145
v 0.001664 0.094064 0.090452
v 0.000980 0.094313 0.092287
v 0.001537 0.093468 0.090674
v 0.000750 0.093991 0.092407
v 0.001176 0.092962 0.090862
v 0.000406 0.093775 0.092487
v 0.000637 0.092623 0.090988
v 0.000750 0.094693 0.092145
v 0.000406 0.094693 0.092145
v -0.000000 0.094693 0.092145
v -0.000406 0.094693 0.092145
v -0.000750 0.094693 0.092145
vn 0.3303 0.7440 -0.5808
vn 0.3527 0.7814 -0.5148
vn 0.4933 0.7432 -0.4520
vn 0.5031 0.7257 -0.4693
vn 0.1684 0.7628 -0.6243
vn 0.1777 0.8153 -0.5511
vn -0.0000 0.7701 -0.6379
vn -0.0000 0.8269 -0.5624
vn 0.5838 0.7961 -0.1593
vn 0.5939 0.8035 -0.0404
vn 0.6693 0.7420 -0.0386
vn 0.6570 0.7383 -0.1525
vn 0.5513 0.7707 -0.3196
vn 0.6163 0.7276 -0.3013
vn 0.4005 0.9000 -0.1719
vn 0.4061 0.9129 -0.0421
vn 0.1936 0.9647 -0.1785
vn 0.1958 0.9797 -0.0435
vn -0.0000 0.9835 -0.1807
vn -0.0000 0.9990 -0.0440
vn 0.3842 0.8525 -0.3543
vn 0.1883 0.9085 -0.3730
vn -0.0000 0.9255 -0.3787
vn -0.0000 1.0000 -0.0000
vn 0.1965 0.9805 -0.0000
vn 0.4075 0.9132 -0.0000
vn 0.5950 0.8037 -0.0000
vn 0.6702 0.7422 -0.0000
vn -0.2515 -0.0000 0.9679
vn -0.5056 -0.0000 0.8627
vn -0.9995 -0.0000 0.0316
vn -1.0000 -0.0000 -0.0000
vn -0.8963 -0.0000 0.4435
vn -0.9821 -0.0000 0.1881
vn -0.0000 -0.0000 1.0000
vn -0.3303 0.7440 -0.5808
vn -0.5031 0.7257 -0.4693
vn -0.4933 0.7432 -0.4520
vn -0.3527 0.7814 -0.5148
vn -0.1684 0.7628 -0.6243
vn -0.1777 0.8153 -0.5511
vn -0.5838 0.7961 -0.1593
vn -0.6570 0.7383 -0.1525
vn -0.6693 0.7420 -0.0386
vn -0.5939 0.8035 -0.0404
vn -0.5513 0.7707 -0.3196
vn -0.6163 0.7276 -0.3013
vn -0.4061 0.9129 -0.0421
vn -0.4005 0.9000 -0.1719
vn -0.1958 0.9797 -0.0435
vn -0.1936 0.9647 -0.1785
vn -0.3842 0.8525 -0.3543
vn -0.1883 0.9085 -0.3730
vn -0.1965 0.9805 -0.0000
vn -0.4075 0.9132 -0.0000
vn -0.5950 0.8037 -0.0000
vn -0.6702 0.7422 -0.0000
vn 1.0000 -0.0000 -0.0000
vn 0.9995 -0.0000 0.0316
vn 0.2515 -0.0000 0.9679
vn 0.5056 -0.0000 0.8627
vn 0.8963 -0.0000 0.4435
vn 0.7290 -0.0000 0.6845
vn 0.9821 -0.0000 0.1881
vn 0.3303 0.7440 0.5808
vn 0.5031 0.7257 0.4693
vn 0.4933 0.7432 0.4520
vn 0.3527 0.7814 0.5148
vn 0.1684 0.7628 0.6243
vn 0.1777 0.8153 0.5511
vn -0.0000 0.7701 0.6379
vn -0.0000 0.8269 0.5624
vn 0.5838 0.7961 0.1593
vn 0.6570 0.7383 0.1525
vn 0.6693 0.7420 0.0386
vn 0.5939 0.8035 0.0404
vn 0.5513 0.7707 0.3196
vn 0.6163 0.7276 0.3013
vn 0.4061 0.9129 0.0421
vn 0.4005 0.9000 0.1719
vn 0.1958 0.9797 0.0435
vn 0.1936 0.9647 0.1785
vn -0.0000 0.9990 0.0440
vn -0.0000 0.9835 0.1807
vn 0.3842 0.8525 0.3543
vn 0.1883 0.9085 0.3730
vn -0.0000 0.9255 0.3787
vn -0.9995 -0.0000 -0.0316
vn -0.5056 -0.0000 -0.8627
vn -0.2515 -0.0000 -0.9679
vn -0.8963 -0.0000 -0.4435
vn -0.7290 -0.0000 -0.6845
vn 0.9821 -0.0000 -0.1881
vn 0.9995 -0.0000 -0.0316
vn -0.9821 -0.0000 -0.1881
vn -0.0000 -0.0000 -1.0000
vn -0.3303 0.7440 0.5808
vn -0.3527 0.7814 0.5148
vn -0.4933 0.7432 0.4520
vn -0.5031 0.7257 0.4693
vn -0.1684 0.7628 0.6243
vn -0.1777 0.8153 0.5511
vn -0.5838 0.7961 0.1593
vn -0.5939 0.8035 0.0404
vn -0.6693 0.7420 0.0386
vn -0.6570 0.7383 0.1525
vn -0.5513 0.7707 0.3196
vn -0.6163 0.7276 0.3013
vn -0.4005 0.9000 0.1719
vn -0.4061 0.9129 0.0421
vn -0.1936 0.9647 0.1785
vn -0.1958 0.9797 0.0435
vn -0.3842 0.8525 0.3543
vn -0.1883 0.9085 0.3730
vn 0.2515 -0.0000 -0.9679
vn 0.5056 -0.0000 -0.8627
vn 0.8963 -0.0000 -0.4435
vn 0.7290 -0.0000 -0.6845
vn -0.7290 -0.0000 0.6845
vn -0.0000 -1.0000 -0.0000
vn -0.1775 0.7119 0.6794
vn -0.3555 0.7111 0.6066
vn -0.3556 0.7111 0.6065
vn -0.1759 0.7120 0.6798
vn -0.0000 0.7117 0.7025
vn -0.6912 0.7108 0.1299
vn -0.7083 0.7056 0.0220
vn -0.7083 0.7056 0.0227
vn -0.6903 0.7110 0.1343
vn -0.7091 0.7051 -0.0000
vn -0.6319 0.7106 0.3094
vn -0.5122 0.7097 0.4837
vn -0.5154 0.7096 0.4805
vn -0.6292 0.7104 0.3153
vn 0.1759 0.7120 0.6798
vn 0.3556 0.7111 0.6065
vn 0.3555 0.7111 0.6066
vn 0.1775 0.7119 0.6794
vn 0.6903 0.7110 0.1343
vn 0.7083 0.7056 0.0227
vn 0.7083 0.7056 0.0220
vn 0.6912 0.7108 0.1299
vn 0.6292 0.7104 0.3153
vn 0.5154 0.7096 0.4805
vn 0.5122 0.7097 0.4837
vn 0.6319 0.7106 0.3094
vn -0.1759 0.7120 -0.6798
vn -0.3556 0.7111 -0.6065
vn -0.3555 0.7111 -0.6066
vn -0.1775 0.7119 -0.6794
vn -0.0000 0.7117 -0.7025
vn -0.6903 0.7110 -0.1343
vn -0.7083 0.7056 -0.0227
vn -0.7083 0.7056 -0.0220
vn -0.6912 0.7108 -0.1299
vn -0.6292 0.7104 -0.3153
vn -0.5154 0.7096 -0.4805
vn -0.5122 0.7097 -0.4837
vn -0.6319 0.7106 -0.3094
vn 0.1775 0.7119 -0.6794
vn 0.3555 0.7111 -0.6066
vn 0.3556 0.7111 -0.6065
vn 0.1759 0.7120 -0.6798
vn 0.6912 0.7108 -0.1299
vn 0.7083 0.7056 -0.0220
vn 0.7083 0.7056 -0.0227
vn 0.6903 0.7110 -0.1343
vn 0.7091 0.7051 -0.0000
vn 0.6319 0.7106 -0.3094
vn 0.5122 0.7097 -0.4837
vn 0.5154 0.7096 -0.4805
vn 0.6292 0.7104 -0.3153
vn 0.3827 -0.8660 0.3218
vn 0.3779 -0.8004 0.4654
vn -0.0000 -0.8708 0.4916
vn -0.0000 -0.9374 0.3483
vn -0.7071 -0.6628 0.2463
vn -0.6983 -0.5997 0.3908
vn -0.9124 -0.2994 0.2792
vn -0.9239 -0.3587 0.1333
vn -0.9875 0.0548 0.1476
vn -0.9124 0.4091 0.0160
vn -0.9239 0.3587 -0.1333
vn -0.6983 0.7094 -0.0956
vn -0.7071 0.6628 -0.2463
vn -0.3779 0.9101 -0.1701
vn -0.3827 0.8660 -0.3218
vn -0.0000 0.9805 -0.1963
vn -0.0000 0.9374 -0.3483
vn 0.3779 0.9101 -0.1701
vn 0.3827 0.8660 -0.3218
vn 0.6983 0.7094 -0.0956
vn 0.7071 0.6628 -0.2463
vn 0.9124 0.4091 0.0160
vn 0.9239 0.3587 -0.1333
vn 0.9875 0.0548 0.1476
vn 0.9124 -0.2994 0.2792
vn 0.9239 -0.3587 0.1333
vn 0.6983 -0.5997 0.3908
vn 0.7071 -0.6628 0.2463
vn -0.3779 -0.8004 0.4654
vn -0.3827 -0.8660 0.3218
vn -0.0000 -0.7787 0.6274
vn -0.3630 -0.7110 0.6023
vn -0.6707 -0.5183 0.5307
vn -0.8763 -0.2299 0.4235
vn -0.9485 0.1104 0.2971
vn -0.8763 0.4506 0.1707
vn -0.6707 0.7390 0.0635
vn -0.3630 0.9318 -0.0081
vn -0.0000 0.9994 -0.0333
vn 0.3630 0.9318 -0.0081
vn 0.6707 0.7390 0.0635
vn 0.8763 0.4506 0.1707
vn 0.9485 0.1104 0.2971
vn 0.8763 -0.2298 0.4235
vn 0.6707 -0.5183 0.5307
vn 0.3630 -0.7110 0.6023
vn -0.0000 0.3483 0.9374
vt 0.061716 0.217281
vt 0.082680 0.214198
vt 0.088339 0.234593
vt 0.079843 0.242182
vt 0.050467 0.189595
vt 0.079438 0.187245
vt 0.047037 0.160989
vt 0.078532 0.161317
vt 0.138494 0.245659
vt 0.166392 0.248532
vt 0.164060 0.277935
vt 0.134229 0.272577
vt 0.109775 0.240959
vt 0.105460 0.260517
vt 0.138358 0.220709
vt 0.168116 0.222929
vt 0.138294 0.190584
vt 0.169568 0.191889
vt 0.138394 0.161941
vt 0.170217 0.162273
vt 0.107595 0.217475
vt 0.105956 0.188858
vt 0.105542 0.161599
vt 0.431952 0.165002
vt 0.431629 0.195972
vt 0.431292 0.228299
vt 0.431018 0.254535
vt 0.430711 0.284018
vt 0.697431 0.283495
vt 0.699832 0.309716
vt 0.430441 0.309904
vt 0.035578 0.231859
vt 0.021402 0.196094
vt 0.804177 0.615739
vt 0.843093 0.615739
vt 0.843093 0.670843
vt 0.804177 0.670843
vt 0.161113 0.304101
vt 0.125907 0.300083
vt 0.996748 0.733679
vt 0.728790 0.733679
vt 0.728790 0.678575
vt 0.996748 0.678575
vt 0.925556 0.615739
vt 0.960838 0.615739
vt 0.960838 0.670843
vt 0.925556 0.670843
vt 0.768571 0.615739
vt 0.768571 0.670843
vt 0.062887 0.105015
vt 0.081528 0.080498
vt 0.089864 0.088262
vt 0.083782 0.108534
vt 0.051062 0.132460
vt 0.079978 0.135414
vt 0.140240 0.078245
vt 0.136537 0.051243
vt 0.166472 0.046508
vt 0.168191 0.075954
vt 0.111429 0.082345
vt 0.107522 0.062701
vt 0.169381 0.101587
vt 0.139583 0.103186
vt 0.170186 0.132650
vt 0.138891 0.133303
vt 0.108760 0.105778
vt 0.106524 0.134354
vt 0.432275 0.134031
vt 0.432612 0.101705
vt 0.432885 0.075468
vt 0.433192 0.045985
vt 0.272437 0.615739
vt 0.540395 0.615739
vt 0.540395 0.670843
vt 0.272437 0.670843
vt 0.732966 0.615739
vt 0.732966 0.670843
vt 0.694050 0.615739
vt 0.694050 0.670843
vt 0.611587 0.615739
vt 0.656346 0.615739
vt 0.656346 0.670843
vt 0.611587 0.670843
vt 0.164071 0.020287
vt 0.433462 0.020099
vt 0.576305 0.615739
vt 0.576305 0.670843
vt 0.801016 0.224988
vt 0.782375 0.249506
vt 0.774039 0.241741
vt 0.780122 0.221469
vt 0.812841 0.197543
vt 0.783925 0.194589
vt 0.816867 0.169014
vt 0.785371 0.168686
vt 0.723664 0.251759
vt 0.727367 0.278760
vt 0.695713 0.254049
vt 0.752474 0.247659
vt 0.756381 0.267302
vt 0.694523 0.228416
vt 0.724321 0.226818
vt 0.693718 0.197353
vt 0.725013 0.196700
vt 0.693687 0.167730
vt 0.725510 0.168062
vt 0.755144 0.224225
vt 0.757380 0.195649
vt 0.758361 0.168404
vt 0.460832 0.733679
vt 0.460832 0.678575
vt 0.813437 0.140408
vt 0.842502 0.133909
vt 0.846129 0.169320
vt 0.307178 0.733679
vt 0.268262 0.733679
vt 0.268262 0.678575
vt 0.307178 0.678575
vt 0.389641 0.733679
vt 0.344882 0.733679
vt 0.344882 0.678575
vt 0.389641 0.678575
vt 0.040389 0.733679
vt 0.004479 0.733679
vt 0.004480 0.678575
vt 0.040389 0.678575
vt 0.424923 0.733679
vt 0.424923 0.678575
vt 0.232656 0.733679
vt 0.232656 0.678575
vt 0.802187 0.112723
vt 0.781224 0.115805
vt 0.775565 0.095410
vt 0.784061 0.087821
vt 0.784466 0.142758
vt 0.725409 0.084345
vt 0.697512 0.081472
vt 0.699844 0.052068
vt 0.729674 0.057426
vt 0.754128 0.089044
vt 0.758444 0.069486
vt 0.725546 0.109294
vt 0.695788 0.107074
vt 0.725610 0.139419
vt 0.694335 0.138114
vt 0.756308 0.112529
vt 0.757948 0.141145
vt 0.197050 0.733679
vt 0.197050 0.678575
vt 0.158134 0.733679
vt 0.158134 0.678575
vt 0.702790 0.025902
vt 0.737997 0.029920
vt 0.004480 0.615739
vt 0.004480 0.670843
vt 0.075671 0.733679
vt 0.075671 0.678575
vt 0.120430 0.733679
vt 0.120430 0.678575
vt 0.128790 0.023570
vt 0.841764 0.204647
vt 0.826845 0.240108
vt 0.060340 0.060316
vt 0.095561 0.035297
vt 0.828325 0.098144
vt 0.770974 0.042337
vt 0.735114 0.306433
vt 0.880797 0.615739
vt 0.880797 0.670843
vt 0.017774 0.160684
vt 0.037059 0.089895
vt 0.803564 0.269687
vt 0.768342 0.294707
vt 0.022140 0.125357
vt 0.805666 0.068086
vt 0.092930 0.287666
vt 0.058238 0.261917
vt 0.839301 0.468447
vt 0.839301 0.397137
vt 0.854229 0.433076
vt 0.858308 0.468447
vt 0.025060 0.237700
vt 0.009745 0.198793
vt 0.005595 0.160557
vt 0.160034 0.315520
vt 0.122671 0.311381
vt 0.430324 0.321155
vt 0.087839 0.298268
vt 0.049462 0.270202
vt 0.010542 0.122415
vt 0.026665 0.083836
vt 0.125791 0.012207
vt 0.163231 0.008848
vt 0.051739 0.051850
vt 0.090692 0.024591
vt 0.853362 0.207588
vt 0.837239 0.246167
vt 0.858309 0.169447
vt 0.738113 0.317796
vt 0.700673 0.321155
vt 0.812164 0.278153
vt 0.773211 0.305412
vt 0.838843 0.092303
vt 0.854159 0.131211
vt 0.703870 0.014483
vt 0.741232 0.018622
vt 0.433580 0.008848
vt 0.776065 0.031736
vt 0.814441 0.059801
vt 0.996748 0.615739
vt 0.996748 0.670843
vt 0.441803 0.468447
vt 0.441803 0.328887
vt 0.709761 0.328887
vt 0.709760 0.468447
vt 0.745598 0.331152
vt 0.745598 0.468447
vt 0.779140 0.342097
vt 0.779140 0.468447
vt 0.815989 0.367503
vt 0.815989 0.468447
vt 0.173845 0.468447
vt 0.173845 0.328887
vt 0.138007 0.468447
vt 0.138007 0.331152
vt 0.104466 0.468447
vt 0.104466 0.342097
vt 0.067616 0.468447
vt 0.067616 0.367503
vt 0.044304 0.468447
vt 0.067616 0.569391
vt 0.044304 0.539757
vt 0.025297 0.468447
vt 0.029376 0.503818
vt 0.044304 0.397137
vt 0.104466 0.594798
vt 0.138007 0.605742
vt 0.173845 0.608007
vt 0.441803 0.608007
vt 0.709760 0.608007
vt 0.745598 0.605742
vt 0.779140 0.594798
vt 0.815989 0.569391
vt 0.839301 0.539758
vt 0.854229 0.503818
vt 0.029376 0.433076
vt 0.739596 0.743100
vt 0.029252 0.743100
vt 0.029252 0.741411
vt 0.739596 0.741411
vt 0.739596 0.765056
vt 0.029252 0.765056
vt 0.029252 0.763367
vt 0.739596 0.763367
vt 0.029252 0.761678
vt 0.739596 0.761678
vt 0.029252 0.759989
vt 0.739596 0.759989
vt 0.029252 0.758300
vt 0.739596 0.758300
vt 0.029252 0.756611
vt 0.739596 0.756611
vt 0.029252 0.754922
vt 0.739596 0.754922
vt 0.029252 0.753233
vt 0.739596 0.753233
vt 0.029252 0.751544
vt 0.739596 0.751544
vt 0.029252 0.749855
vt 0.739596 0.749856
vt 0.029252 0.748166
vt 0.739596 0.748166
vt 0.029252 0.746477
vt 0.739596 0.746477
vt 0.029252 0.744789
vt 0.739596 0.744789
vt 0.739596 0.768434
vt 0.029252 0.768434
vt 0.029252 0.766745
vt 0.739596 0.766745
vt 0.023616 0.768434
vt 0.023616 0.766745
vt 0.023616 0.765056
vt 0.023616 0.763367
vt 0.023616 0.761678
vt 0.023616 0.759989
vt 0.023616 0.758300
vt 0.023616 0.756611
vt 0.023616 0.754922
vt 0.023616 0.753233
vt 0.023616 0.751544
vt 0.023616 0.749855
vt 0.023616 0.748166
vt 0.023616 0.746477
vt 0.023616 0.744789
vt 0.023616 0.743100
vt 0.023616 0.741411
vt 0.010954 0.744704
vt 0.010109 0.744872
vt 0.010109 0.743724
vt 0.010548 0.742662
vt 0.014101 0.744078
vt 0.012996 0.744298
vt 0.012422 0.741411
vt 0.013571 0.741411
vt 0.015038 0.743892
vt 0.014632 0.741850
vt 0.011891 0.744518
vt 0.011361 0.741850
vt 0.015884 0.743724
vt 0.015444 0.742662
vt 0.015444 0.745934
vt 0.014632 0.746746
vt 0.013571 0.747186
vt 0.012422 0.747186
vt 0.011361 0.746746
vt 0.010548 0.745934
vt 0.015884 0.744873
s 1
f 26/1/1 6/2/2 5/3/3 25/4/4
f 23/5/5 7/6/6 6/2/2 26/1/1
f 24/7/7 8/8/8 7/6/6 23/5/5
f 10/9/9 9/10/10 28/11/11 21/12/12
f 11/13/13 10/9/9 21/12/12 22/14/14
f 5/3/3 11/13/13 22/14/14 25/4/4
f 9/10/10 10/9/9 15/15/15 12/16/16
f 12/16/16 15/15/15 16/17/17 13/18/18
f 13/18/18 16/17/17 17/19/19 14/20/20
f 10/9/9 11/13/13 18/21/21 15/15/15
f 15/15/15 18/21/21 19/22/22 16/17/17
f 16/17/17 19/22/22 20/23/23 17/19/19
f 11/13/13 5/3/3 6/2/2 18/21/21
f 18/21/21 6/2/2 7/6/6 19/22/22
f 19/22/22 7/6/6 8/8/8 20/23/23
f 14/20/20 4/24/24 3/25/25 13/18/18
f 13/18/18 3/25/25 2/26/26 12/16/16
f 12/16/16 2/26/26 1/27/27 9/10/10
f 9/10/10 1/27/27 27/28/28 28/11/11
f 73/29/24 161/30/24 132/31/24 27/28/24
f 23/5/24 26/1/24 130/32/24 125/33/24
f 124/34/29 131/35/30 97/36/30 94/37/29
f 21/12/24 28/11/24 134/38/24 121/39/24
f 135/40/31 133/41/32 98/42/32 99/43/31
f 123/44/33 120/45/34 92/46/34 93/47/33
f 126/48/35 124/34/29 94/37/29 95/49/35
f 48/50/36 47/51/37 32/52/38 33/53/39
f 46/54/40 48/50/36 33/53/39 34/55/41
f 24/7/7 46/54/40 34/55/41 8/8/8
f 36/56/42 44/57/43 50/58/44 35/59/45
f 37/60/46 45/61/47 44/57/43 36/56/42
f 32/52/38 47/51/37 45/61/47 37/60/46
f 35/59/45 38/62/48 40/63/49 36/56/42
f 38/62/48 39/64/50 41/65/51 40/63/49
f 39/64/50 14/20/20 17/19/19 41/65/51
f 36/56/42 40/63/49 42/66/52 37/60/46
f 40/63/49 41/65/51 43/67/53 42/66/52
f 41/65/51 17/19/19 20/23/23 43/67/53
f 37/60/46 42/66/52 33/53/39 32/52/38
f 42/66/52 43/67/53 34/55/41 33/53/39
f 43/67/53 20/23/23 8/8/8 34/55/41
f 14/20/20 39/64/50 31/68/54 4/24/24
f 39/64/50 38/62/48 30/69/55 31/68/54
f 38/62/48 35/59/45 29/70/56 30/69/55
f 35/59/45 50/58/44 49/71/57 29/70/56
f 173/72/58 146/73/59 105/74/59 118/75/58
f 141/76/60 126/48/35 95/49/35 102/77/60
f 144/78/61 141/76/60 102/77/60 104/79/61
f 138/80/62 143/81/63 103/82/63 101/83/62
f 50/58/24 147/84/24 172/85/24 49/71/24
f 137/86/64 138/80/62 101/83/62 100/87/64
f 143/81/63 144/78/61 104/79/61 103/82/63
f 72/88/65 71/89/66 51/90/67 52/91/68
f 69/92/69 72/88/65 52/91/68 53/93/70
f 70/94/71 69/92/69 53/93/70 54/95/72
f 56/96/73 67/97/74 73/29/75 55/98/76
f 57/99/77 68/100/78 67/97/74 56/96/73
f 51/90/67 71/89/66 68/100/78 57/99/77
f 55/98/76 58/101/79 61/102/80 56/96/73
f 58/101/79 59/103/81 62/104/82 61/102/80
f 59/103/81 60/105/83 63/106/84 62/104/82
f 56/96/73 61/102/80 64/107/85 57/99/77
f 61/102/80 62/104/82 65/108/86 64/107/85
f 62/104/82 63/106/84 66/109/87 65/108/86
f 57/99/77 64/107/85 52/91/68 51/90/67
f 64/107/85 65/108/86 53/93/70 52/91/68
f 65/108/86 66/109/87 54/95/72 53/93/70
f 60/105/83 59/103/81 3/25/25 4/24/24
f 59/103/81 58/101/79 2/26/26 3/25/25
f 58/101/79 55/98/76 1/27/27 2/26/26
f 55/98/76 73/29/75 27/28/28 1/27/27
f 133/41/32 160/110/88 112/111/88 98/42/32
f 70/94/24 88/112/24 167/113/24 154/114/24
f 158/115/89 153/116/90 108/117/90 111/118/89
f 150/119/91 157/120/92 110/121/92 107/122/91
f 162/123/93 175/124/94 119/125/94 113/126/93
f 149/127/95 150/119/91 107/122/91 106/128/95
f 153/116/90 155/129/96 109/130/96 108/117/90
f 90/131/97 75/132/98 74/133/99 89/134/100
f 88/112/101 76/135/102 75/132/98 90/131/97
f 70/94/71 54/95/72 76/135/102 88/112/101
f 78/136/103 77/137/104 91/138/105 86/139/106
f 79/140/107 78/136/103 86/139/106 87/141/108
f 74/133/99 79/140/107 87/141/108 89/134/100
f 77/137/104 78/136/103 82/142/109 80/143/110
f 80/143/110 82/142/109 83/144/111 81/145/112
f 81/145/112 83/144/111 63/106/84 60/105/83
f 78/136/103 79/140/107 84/146/113 82/142/109
f 82/142/109 84/146/113 85/147/114 83/144/111
f 83/144/111 85/147/114 66/109/87 63/106/84
f 79/140/107 74/133/99 75/132/98 84/146/113
f 84/146/113 75/132/98 76/135/102 85/147/114
f 85/147/114 76/135/102 54/95/72 66/109/87
f 60/105/83 4/24/24 31/68/54 81/145/112
f 81/145/112 31/68/54 30/69/55 80/143/110
f 80/143/110 30/69/55 29/70/56 77/137/104
f 77/137/104 29/70/56 49/71/57 91/138/105
f 155/129/96 166/148/115 115/149/115 109/130/96
f 166/148/115 171/150/116 117/151/116 115/149/115
f 86/139/24 91/138/24 174/152/24 163/153/24
f 175/154/94 173/72/58 118/75/58 119/155/94
f 165/156/117 162/123/93 113/126/93 114/157/117
f 171/150/116 168/158/118 116/159/118 117/151/116
f 44/57/24 136/160/24 147/84/24 50/58/24
f 69/92/24 152/161/24 159/162/24 72/88/24
f 47/51/24 142/163/24 139/164/24 45/61/24
f 88/112/24 90/131/24 170/165/24 167/113/24
f 70/94/24 154/114/24 152/161/24 69/92/24
f 45/61/24 139/164/24 136/160/24 44/57/24
f 87/141/24 86/139/24 163/153/24 164/166/24
f 160/110/88 149/127/95 106/128/95 112/111/88
f 67/97/24 148/167/24 161/30/24 73/29/24
f 131/35/30 128/168/119 96/169/119 97/36/30
f 24/7/24 23/5/24 125/33/24 127/170/24
f 48/50/24 145/171/24 142/163/24 47/51/24
f 91/138/24 49/71/24 172/85/24 174/152/24
f 146/73/59 137/86/64 100/87/64 105/74/59
f 71/89/24 156/172/24 151/173/24 68/100/24
f 24/7/24 127/170/24 140/174/24 46/54/24
f 89/134/24 87/141/24 164/166/24 169/175/24
f 68/100/24 151/173/24 148/167/24 67/97/24
f 22/14/24 21/12/24 121/39/24 122/176/24
f 157/120/92 158/115/89 111/118/89 110/121/92
f 168/158/118 165/156/117 114/157/117 116/159/118
f 72/88/24 159/162/24 156/172/24 71/89/24
f 28/11/24 27/28/24 132/31/24 134/38/24
f 90/131/24 89/134/24 169/175/24 170/165/24
f 25/4/24 22/14/24 122/176/24 129/177/24
f 128/168/119 123/44/33 93/47/33 96/169/119
f 26/1/24 25/4/24 129/177/24 130/32/24
f 46/54/24 140/174/24 145/171/24 48/50/24
f 176/178/120 111/179/120 108/180/120 109/181/120
f 125/33/121 130/32/122 131/182/123 124/183/124
f 124/183/124 126/184/125 127/170/125 125/33/121
f 121/39/126 134/38/127 135/185/128 120/186/129
f 133/187/130 135/185/128 134/38/127 132/31/130
f 123/188/131 128/189/132 129/177/133 122/176/134
f 120/186/129 123/188/131 122/176/134 121/39/126
f 128/189/132 131/182/123 130/32/122 129/177/133
f 141/190/135 144/191/136 145/171/137 140/174/138
f 137/192/139 146/193/140 147/84/141 136/160/142
f 139/164/143 142/163/144 143/194/145 138/195/146
f 136/160/142 139/164/143 138/195/146 137/192/139
f 142/163/144 145/171/137 144/191/136 143/194/145
f 140/174/138 127/170/125 126/184/125 141/190/135
f 153/196/147 158/197/148 159/162/149 152/161/150
f 152/161/150 154/114/151 155/198/151 153/196/147
f 149/199/152 160/200/153 161/30/154 148/167/155
f 151/173/156 156/172/157 157/201/158 150/202/159
f 148/167/155 151/173/156 150/202/159 149/199/152
f 156/172/157 159/162/149 158/197/148 157/201/158
f 167/113/160 170/165/161 171/203/162 166/204/163
f 163/153/164 174/152/165 175/205/166 162/206/167
f 173/207/168 175/205/166 174/152/165 172/85/168
f 165/208/169 168/209/170 169/175/171 164/166/172
f 162/206/167 165/208/169 164/166/172 163/153/164
f 168/209/170 171/203/162 170/165/161 169/175/171
f 166/204/163 155/198/151 154/114/151 167/113/160
f 172/85/168 147/84/141 146/193/140 173/207/168
f 132/31/130 161/30/154 160/200/153 133/187/130
f 120/45/34 135/210/31 99/211/31 92/46/34
f 181/212/120 98/213/120 112/214/120 180/215/120
f 180/215/120 112/214/120 106/216/120 179/217/120
f 179/217/120 106/216/120 107/218/120 178/219/120
f 178/219/120 107/218/120 110/220/120 177/221/120
f 177/221/120 110/220/120 111/179/120 176/178/120
f 182/222/120 99/223/120 98/213/120 181/212/120
f 183/224/120 92/225/120 99/223/120 182/222/120
f 184/226/120 93/227/120 92/225/120 183/224/120
f 185/228/120 96/229/120 93/227/120 184/226/120
f 186/230/120 185/228/120 103/231/120 104/232/120
f 95/233/120 186/230/120 104/232/120 102/234/120
f 97/235/120 96/229/120 185/228/120 186/230/120
f 103/231/120 185/228/120 184/226/120 101/236/120
f 101/236/120 184/226/120 183/224/120 100/237/120
f 100/237/120 183/224/120 182/222/120 105/238/120
f 105/238/120 182/222/120 181/212/120 118/239/120
f 118/239/120 181/212/120 180/215/120 119/240/120
f 119/240/120 180/215/120 179/217/120 113/241/120
f 113/241/120 179/217/120 178/219/120 114/242/120
f 114/242/120 178/219/120 177/221/120 116/243/120
f 116/243/120 177/221/120 176/178/120 117/244/120
f 117/244/120 176/178/120 109/181/120 115/245/120
f 94/246/120 97/235/120 186/230/120 95/233/120
f 202/247/173 234/248/174 204/249/175 187/250/176
f 189/251/177 208/252/178 210/253/179 190/254/180
f 190/254/180 210/253/179 212/255/181 191/256/32
f 191/256/32 212/255/181 214/257/182 192/258/183
f 192/258/183 214/257/182 216/259/184 193/260/185
f 193/260/185 216/259/184 218/261/186 194/262/187
f 194/262/187 218/261/186 220/263/188 195/264/189
f 195/264/189 220/263/188 222/265/190 196/266/191
f 196/266/191 222/265/190 224/267/192 197/268/193
f 197/268/193 224/267/192 226/269/194 198/270/195
f 198/270/195 226/269/194 228/271/196 199/272/58
f 199/272/58 228/271/196 230/273/197 200/274/198
f 200/274/198 230/273/197 232/275/199 201/276/200
f 201/276/200 232/275/199 234/248/174 202/247/173
f 187/277/176 204/278/175 206/279/201 188/280/202
f 188/280/202 206/279/201 208/252/178 189/251/177
f 206/279/201 204/278/175 203/281/203 205/282/204
f 208/252/178 206/279/201 205/282/204 207/283/205
f 210/253/179 208/252/178 207/283/205 209/284/206
f 212/255/181 210/253/179 209/284/206 211/285/207
f 214/257/182 212/255/181 211/285/207 213/286/208
f 216/259/184 214/257/182 213/286/208 215/287/209
f 218/261/186 216/259/184 215/287/209 217/288/210
f 220/263/188 218/261/186 217/288/210 219/289/211
f 222/265/190 220/263/188 219/289/211 221/290/212
f 224/267/192 222/265/190 221/290/212 223/291/213
f 226/269/194 224/267/192 223/291/213 225/292/214
f 228/271/196 226/269/194 225/292/214 227/293/215
f 230/273/197 228/271/196 227/293/215 229/294/216
f 232/275/199 230/273/197 229/294/216 231/295/217
f 234/248/174 232/275/199 231/295/217 233/296/218
f 204/249/175 234/248/174 233/296/218 203/297/203
f 235/298/219 227/299/219 225/300/219 223/301/219
f 238/302/219 237/303/219 219/304/219 217/305/219
f 239/306/219 238/302/219 217/305/219 215/307/219
f 237/303/219 236/308/219 221/309/219 219/304/219
f 236/308/219 235/298/219 223/301/219 221/309/219
f 211/310/219 239/306/219 215/307/219 213/311/219
f 207/312/219 205/313/219 238/302/219 239/306/219
f 205/313/219 203/314/219 237/303/219 238/302/219
f 203/314/219 233/315/219 236/308/219 237/303/219
f 233/315/219 231/316/219 235/298/219 236/308/219
f 231/316/219 229/317/219 227/299/219 235/298/219
f 209/318/219 207/312/219 239/306/219 211/310/219
