# Blender 4.0.2
# www.blender.org
o ivy_leaf
v -0.030523 0.013342 0.006291
v 0.000000 -0.036009 0.000059
v -0.032032 0.002945 0.007937
v -0.033736 0.005727 0.008477
v -0.032416 0.009653 0.007519
v 0.000000 0.003117 0.001396
v -0.023050 0.029453 0.000844
v -0.025896 0.026506 0.002369
v -0.016068 0.029403 -0.000855
v 0.000000 0.016010 -0.000000
v -0.029484 0.000912 0.007030
v -0.025701 -0.001048 0.005778
v -0.018291 -0.004729 0.003853
v -0.016031 -0.008485 0.003438
v -0.013393 -0.015045 0.002894
v -0.006410 -0.029365 0.001116
v -0.025565 0.019872 0.003505
v -0.026541 0.017180 0.004264
v -0.015590 0.023763 0.000212
v 0.000000 -0.012276 0.001868
v -0.005080 0.023916 -0.001158
v 0.000000 -0.003588 0.001760
v -0.025585 0.023191 0.002922
v -0.028627 0.006344 0.006314
v -0.024555 0.006504 0.004897
v -0.031851 0.006119 0.007618
v -0.020598 0.004361 0.003939
v -0.020545 0.011668 0.003204
v -0.002252 0.020476 -0.000669
v -0.021793 -0.002517 0.004660
v -0.009821 -0.023106 0.001995
v 0.000000 -0.022065 0.001496
v 0.000000 0.009587 0.000810
v -0.003344 -0.033708 0.000435
v -0.015110 0.017119 0.001248
v -0.015001 0.009812 0.002177
v -0.015652 0.001666 0.003005
v -0.012659 -0.006399 0.002816
v -0.010150 0.027544 -0.001409
v -0.021342 0.018294 0.002496
v -0.022137 0.024099 0.001699
v -0.008695 0.022327 -0.000559
v -0.005043 -0.012794 0.002014
v -0.008014 0.016135 0.000377
v -0.007516 0.009647 0.001151
v -0.006929 0.002718 0.001718
v -0.003670 -0.021934 0.001584
v -0.006472 -0.004678 0.002051
v -0.002271 -0.029470 0.000908
v -0.007333 -0.022338 0.001796
v -0.010166 -0.013770 0.002466
v 0.000000 -0.030423 0.000764
v -0.004755 -0.027297 0.001268
v 0.030523 0.013342 0.006291
v 0.032032 0.002945 0.007937
v 0.033736 0.005727 0.008477
v 0.032416 0.009653 0.007519
v 0.023050 0.029453 0.000844
v 0.025896 0.026506 0.002369
v 0.016068 0.029403 -0.000855
v 0.029484 0.000912 0.007030
v 0.025701 -0.001048 0.005778
v 0.018291 -0.004729 0.003853
v 0.016031 -0.008485 0.003438
v 0.013393 -0.015045 0.002894
v 0.006410 -0.029365 0.001116
v 0.025565 0.019872 0.003505
v 0.026541 0.017180 0.004264
v 0.015590 0.023763 0.000212
v 0.005080 0.023916 -0.001158
v 0.025585 0.023191 0.002922
v 0.028627 0.006344 0.006314
v 0.024555 0.006504 0.004897
v 0.031851 0.006119 0.007618
v 0.020598 0.004361 0.003939
v 0.020545 0.011668 0.003204
v 0.002252 0.020476 -0.000669
v 0.021793 -0.002517 0.004660
v 0.009821 -0.023106 0.001995
v 0.003344 -0.033708 0.000435
v 0.015110 0.017119 0.001248
v 0.015001 0.009812 0.002177
v 0.015652 0.001666 0.003005
v 0.012659 -0.006399 0.002816
v 0.010150 0.027544 -0.001409
v 0.021342 0.018294 0.002496
v 0.022137 0.024099 0.001699
v 0.008695 0.022327 -0.000559
v 0.005043 -0.012794 0.002014
v 0.008014 0.016135 0.000377
v 0.007516 0.009647 0.001151
v 0.006929 0.002718 0.001718
v 0.003670 -0.021934 0.001584
v 0.006472 -0.004678 0.002051
v 0.002271 -0.029470 0.000908
v 0.007333 -0.022338 0.001796
v 0.010166 -0.013770 0.002466
v 0.004755 -0.027297 0.001268
vn 0.1808 0.1456 0.9727
vn 0.1876 0.1814 0.9653
vn 0.2588 0.1819 0.9486
vn 0.2567 0.1510 0.9546
vn 0.3556 0.0854 0.9307
vn 0.3497 0.0649 0.9346
vn 0.3037 0.0622 0.9507
vn 0.3043 0.0876 0.9486
vn 0.2475 0.1124 0.9624
vn 0.1773 0.1069 0.9783
vn -0.0000 0.0313 0.9995
vn -0.0000 0.0699 0.9976
vn 0.0871 0.0674 0.9939
vn 0.0803 0.0249 0.9965
vn 0.3026 0.1264 0.9447
vn 0.2492 0.0747 0.9656
vn 0.2059 0.0403 0.9777
vn 0.1815 0.0614 0.9815
vn 0.2508 0.0540 0.9665
vn 0.2900 0.1568 0.9441
vn 0.3875 0.0813 0.9183
vn 0.3824 0.0975 0.9188
vn 0.3998 0.0782 0.9132
vn 0.1427 -0.0246 0.9895
vn 0.1191 -0.0213 0.9927
vn 0.1477 0.0193 0.9888
vn 0.1745 0.0141 0.9845
vn 0.3813 0.0668 0.9220
vn 0.0915 0.1074 0.9900
vn 0.0955 0.1439 0.9850
vn 0.3538 0.1071 0.9292
vn 0.1062 0.1786 0.9782
vn -0.0000 -0.0149 0.9999
vn 0.0635 -0.0177 0.9978
vn 0.0517 -0.0593 0.9969
vn -0.0000 -0.0638 0.9980
vn 0.2898 0.1789 0.9402
vn 0.1009 -0.0639 0.9928
vn 0.0561 -0.1064 0.9927
vn 0.0653 -0.0885 0.9939
vn 0.0874 -0.0614 0.9943
vn 0.0292 -0.1205 0.9923
vn 0.0356 -0.1034 0.9940
vn -0.0000 0.1401 0.9901
vn 0.0603 0.1692 0.9837
vn 0.2540 0.1948 0.9474
vn 0.2909 0.1932 0.9371
vn 0.1964 0.1968 0.9606
vn 0.0785 0.1902 0.9786
vn 0.1334 0.1961 0.9715
vn -0.0000 -0.1083 0.9941
vn -0.0000 0.1056 0.9944
vn -0.0000 -0.1214 0.9926
vn -0.1808 0.1456 0.9727
vn -0.2567 0.1510 0.9546
vn -0.2588 0.1819 0.9486
vn -0.1876 0.1814 0.9653
vn -0.3556 0.0854 0.9307
vn -0.3043 0.0876 0.9486
vn -0.3037 0.0622 0.9507
vn -0.3497 0.0649 0.9346
vn -0.1773 0.1069 0.9783
vn -0.2475 0.1124 0.9624
vn -0.0803 0.0249 0.9965
vn -0.0871 0.0674 0.9939
vn -0.2492 0.0747 0.9656
vn -0.3026 0.1264 0.9447
vn -0.2059 0.0403 0.9777
vn -0.2508 0.0540 0.9665
vn -0.1815 0.0614 0.9815
vn -0.2900 0.1568 0.9441
vn -0.3875 0.0813 0.9183
vn -0.3998 0.0782 0.9132
vn -0.3824 0.0975 0.9188
vn -0.1427 -0.0246 0.9895
vn -0.1745 0.0141 0.9845
vn -0.1477 0.0193 0.9888
vn -0.1191 -0.0213 0.9927
vn -0.3813 0.0668 0.9220
vn -0.0955 0.1439 0.9850
vn -0.0915 0.1074 0.9900
vn -0.3538 0.1071 0.9292
vn -0.1062 0.1786 0.9782
vn -0.0517 -0.0593 0.9969
vn -0.0635 -0.0177 0.9978
vn -0.2898 0.1789 0.9402
vn -0.1009 -0.0639 0.9928
vn -0.0874 -0.0614 0.9943
vn -0.0653 -0.0885 0.9939
vn -0.0561 -0.1064 0.9927
vn -0.0356 -0.1034 0.9940
vn -0.0292 -0.1205 0.9923
vn -0.0603 0.1692 0.9837
vn -0.2909 0.1932 0.9371
vn -0.2540 0.1948 0.9474
vn -0.1964 0.1968 0.9606
vn -0.0785 0.1902 0.9786
vn -0.1334 0.1961 0.9715
vt 0.284988 0.778962
vt 0.279506 0.874636
vt 0.184139 0.877278
vt 0.194327 0.793970
vt 0.084135 0.619915
vt 0.071497 0.542318
vt 0.128659 0.516092
vt 0.145280 0.623924
vt 0.204964 0.699161
vt 0.285676 0.674049
vt 0.500677 0.483597
vt 0.500677 0.579536
vt 0.401652 0.573556
vt 0.408199 0.467900
vt 0.117025 0.775681
vt 0.203801 0.594678
vt 0.238041 0.465999
vt 0.276015 0.557425
vt 0.186675 0.496561
vt 0.132214 0.814777
vt 0.034914 0.615134
vt 0.026365 0.665140
vt 0.005774 0.608524
vt 0.309332 0.320150
vt 0.355562 0.338241
vt 0.319493 0.442962
vt 0.270992 0.413061
vt 0.032320 0.569922
vt 0.393413 0.672772
vt 0.386855 0.765887
vt 0.055946 0.718805
vt 0.378147 0.854983
vt 0.500677 0.359564
vt 0.428753 0.352160
vt 0.448468 0.221948
vt 0.500677 0.220032
vt 0.132789 0.862492
vt 0.360884 0.205561
vt 0.409660 0.116189
vt 0.433068 0.145629
vt 0.396322 0.216333
vt 0.453269 0.054001
vt 0.468438 0.114496
vt 0.500677 0.764134
vt 0.469332 0.828298
vt 0.172618 0.954360
vt 0.129256 0.910168
vt 0.274376 0.956149
vt 0.429898 0.877968
vt 0.358638 0.930213
vt 0.500677 0.100852
vt 0.500677 0.672227
vt 0.500677 0.021001
vt 0.716365 0.778962
vt 0.807026 0.793970
vt 0.817214 0.877279
vt 0.721848 0.874636
vt 0.917218 0.619915
vt 0.856073 0.623924
vt 0.872694 0.516092
vt 0.929856 0.542318
vt 0.715677 0.674049
vt 0.796389 0.699161
vt 0.593154 0.467900
vt 0.599701 0.573556
vt 0.797552 0.594678
vt 0.884328 0.775681
vt 0.763312 0.465999
vt 0.814678 0.496561
vt 0.725338 0.557425
vt 0.869139 0.814777
vt 0.966440 0.615134
vt 0.995580 0.608524
vt 0.974989 0.665140
vt 0.692021 0.320150
vt 0.730362 0.413061
vt 0.681861 0.442962
vt 0.645791 0.338241
vt 0.969034 0.569922
vt 0.614498 0.765887
vt 0.607940 0.672771
vt 0.945408 0.718805
vt 0.623206 0.854983
vt 0.552885 0.221948
vt 0.572601 0.352160
vt 0.868565 0.862492
vt 0.640470 0.205560
vt 0.605031 0.216333
vt 0.568285 0.145629
vt 0.591693 0.116189
vt 0.532915 0.114496
vt 0.548085 0.054002
vt 0.532021 0.828298
vt 0.872098 0.910168
vt 0.828735 0.954360
vt 0.726977 0.956150
vt 0.571455 0.877968
vt 0.642715 0.930213
s 1
f 35/1/1 19/2/2 41/3/3 40/4/4
f 24/5/5 11/6/6 12/7/7 25/8/8
f 35/1/1 40/4/4 28/9/9 36/10/10
f 22/11/11 6/12/12 46/13/13 48/14/14
f 28/9/9 18/15/15 25/8/8 27/16/16
f 13/17/17 37/18/18 27/16/16 30/19/19
f 40/4/4 17/20/20 18/15/15 28/9/9
f 26/21/21 5/22/22 4/23/23
f 15/24/24 51/25/25 38/26/26 14/27/27
f 26/21/21 3/28/28 11/6/6 24/5/5
f 26/21/21 4/23/23 3/28/28
f 35/1/1 36/10/10 45/29/29 44/30/30
f 25/8/8 18/15/15 1/31/31 24/5/5
f 19/2/2 35/1/1 44/30/30 42/32/32
f 20/33/33 43/34/34 47/35/35 32/36/36
f 25/8/8 12/7/7 30/19/19 27/16/16
f 28/9/9 27/16/16 37/18/18 36/10/10
f 40/4/4 41/3/3 23/37/37 17/20/20
f 31/38/38 16/39/39 53/40/40 50/41/41
f 36/10/10 37/18/18 46/13/13 45/29/29
f 24/5/5 1/31/31 5/22/22 26/21/21
f 16/39/39 34/42/42 49/43/43 53/40/40
f 13/17/17 14/27/27 38/26/26 37/18/18
f 42/32/32 44/30/30 10/44/44 29/45/45
f 41/3/3 7/46/46 8/47/47 23/37/37
f 19/2/2 9/48/48 7/46/46 41/3/3
f 21/49/49 39/50/50 42/32/32 29/45/45
f 48/14/14 46/13/13 37/18/18 38/26/26
f 47/35/35 43/34/34 51/25/25 50/41/41
f 47/35/35 49/43/43 52/51/51 32/36/36
f 44/30/30 45/29/29 33/52/52 10/44/44
f 48/14/14 43/34/34 20/33/33 22/11/11
f 45/29/29 46/13/13 6/12/12 33/52/52
f 42/32/32 39/50/50 9/48/48 19/2/2
f 50/41/41 53/40/40 49/43/43 47/35/35
f 50/41/41 51/25/25 15/24/24 31/38/38
f 38/26/26 51/25/25 43/34/34 48/14/14
f 52/51/51 49/43/43 34/42/42 2/53/53
f 81/54/54 86/55/55 87/56/56 69/57/57
f 72/58/58 73/59/59 62/60/60 61/61/61
f 81/54/54 82/62/62 76/63/63 86/55/55
f 22/11/11 94/64/64 92/65/65 6/12/12
f 76/63/63 75/66/66 73/59/59 68/67/67
f 63/68/68 78/69/69 75/66/66 83/70/70
f 86/55/55 76/63/63 68/67/67 67/71/71
f 74/72/72 56/73/73 57/74/74
f 65/75/75 64/76/76 84/77/77 97/78/78
f 74/72/72 72/58/58 61/61/61 55/79/79
f 74/72/72 55/79/79 56/73/73
f 81/54/54 90/80/80 91/81/81 82/62/62
f 73/59/59 72/58/58 54/82/82 68/67/67
f 69/57/57 88/83/83 90/80/80 81/54/54
f 20/33/33 32/36/36 93/84/84 89/85/85
f 73/59/59 75/66/66 78/69/69 62/60/60
f 76/63/63 82/62/62 83/70/70 75/66/66
f 86/55/55 67/71/71 71/86/86 87/56/56
f 79/87/87 96/88/88 98/89/89 66/90/90
f 82/62/62 91/81/81 92/65/65 83/70/70
f 72/58/58 74/72/72 57/74/74 54/82/82
f 66/90/90 98/89/89 95/91/91 80/92/92
f 63/68/68 83/70/70 84/77/77 64/76/76
f 88/83/83 77/93/93 10/44/44 90/80/80
f 87/56/56 71/86/86 59/94/94 58/95/95
f 69/57/57 87/56/56 58/95/95 60/96/96
f 70/97/97 77/93/93 88/83/83 85/98/98
f 94/64/64 84/77/77 83/70/70 92/65/65
f 93/84/84 96/88/88 97/78/78 89/85/85
f 93/84/84 32/36/36 52/51/51 95/91/91
f 90/80/80 10/44/44 33/52/52 91/81/81
f 94/64/64 22/11/11 20/33/33 89/85/85
f 91/81/81 33/52/52 6/12/12 92/65/65
f 88/83/83 69/57/57 60/96/96 85/98/98
f 96/88/88 93/84/84 95/91/91 98/89/89
f 96/88/88 79/87/87 65/75/75 97/78/78
f 84/77/77 94/64/64 89/85/85 97/78/78
f 52/51/51 2/53/53 80/92/92 95/91/91
