# Blender 4.0.2
# www.blender.org
o cheeseburger
v -0.048412 0.024528 0.048412
v 0.048412 0.024528 0.048412
v -0.048412 0.024528 -0.048412
v 0.048412 0.024528 -0.048412
v -0.027556 0.035702 0.054991
v 0.000000 0.036944 0.054798
v 0.027556 0.035702 0.054991
v 0.027556 0.035702 -0.054991
v 0.000000 0.036944 -0.054798
v -0.027556 0.035702 -0.054991
v -0.054991 0.035702 -0.027556
v -0.054798 0.036944 0.000000
v -0.054991 0.035702 0.027556
v 0.054991 0.035702 0.027556
v 0.054798 0.036944 0.000000
v 0.054991 0.035702 -0.027556
v -0.046698 0.032216 0.046698
v -0.043147 0.037327 0.043147
v 0.046640 0.032299 0.046640
v 0.043147 0.037327 0.043147
v 0.000000 0.037861 0.000000
v 0.046468 0.032547 -0.046468
v 0.043147 0.037327 -0.043147
v -0.043147 0.037327 -0.043147
v -0.046570 0.032400 -0.046570
v 0.052526 0.031567 -0.039460
v 0.039460 0.031567 -0.052526
v -0.039460 0.031567 -0.052526
v -0.052526 0.031567 -0.039460
v -0.052526 0.031567 0.039460
v -0.039460 0.031567 0.052526
v 0.039460 0.031567 0.052526
v 0.052526 0.031567 0.039460
v -0.047259 0.023803 0.047259
v 0.047259 0.023803 0.047259
v -0.047259 0.023803 -0.047259
v 0.047259 0.023803 -0.047259
v -0.027379 0.033725 0.054757
v 0.000000 0.035109 0.054757
v 0.027379 0.033725 0.054757
v 0.027379 0.033725 -0.054757
v 0.000000 0.035109 -0.054757
v -0.027379 0.033725 -0.054757
v -0.054757 0.033725 -0.027379
v -0.054757 0.035109 0.000000
v -0.054757 0.033725 0.027379
v 0.054757 0.033725 0.027379
v 0.054757 0.035109 0.000000
v 0.054757 0.033725 -0.027379
v -0.046324 0.030051 0.046324
v -0.042712 0.035514 0.042712
v 0.046324 0.030051 0.046324
v 0.042712 0.035514 0.042712
v 0.000000 0.036025 0.000000
v 0.046324 0.030051 -0.046324
v 0.042712 0.035514 -0.042712
v -0.042712 0.035514 -0.042712
v -0.046324 0.030051 -0.046324
v 0.051553 0.030051 -0.038665
v 0.038665 0.030051 -0.051553
v -0.038665 0.030051 -0.051553
v -0.051553 0.030051 -0.038665
v -0.051553 0.030051 0.038665
v -0.038665 0.030051 0.051553
v 0.038665 0.030051 0.051553
v 0.051553 0.030051 0.038665
v -0.028243 0.037512 -0.028243
v 0.028211 0.037512 -0.028211
v 0.028211 0.037512 0.028211
v -0.028181 0.037512 0.028181
v -0.026559 0.035708 -0.026559
v 0.026600 0.035707 -0.026600
v 0.026600 0.035707 0.026600
v -0.026638 0.035707 0.026638
v -0.000000 -0.000000 -0.039028
v 0.000000 0.010078 -0.059940
v 0.000000 0.003855 -0.056198
v 0.014935 -0.000000 -0.036057
v 0.022938 0.010078 -0.055377
v 0.021506 0.003855 -0.051920
v 0.027597 -0.000000 -0.027597
v 0.042384 0.010078 -0.042384
v 0.039738 0.003855 -0.039738
v 0.036057 -0.000000 -0.014935
v 0.055377 0.010078 -0.022938
v 0.051920 0.003855 -0.021506
v 0.039028 -0.000000 0.000000
v 0.059940 0.010078 0.000000
v 0.056198 0.003855 0.000000
v 0.036057 -0.000000 0.014935
v 0.055377 0.010078 0.022938
v 0.051920 0.003855 0.021506
v 0.027597 -0.000000 0.027597
v 0.042384 0.010078 0.042384
v 0.039738 0.003855 0.039738
v 0.014935 -0.000000 0.036057
v 0.022938 0.010078 0.055377
v 0.021506 0.003855 0.051920
v -0.000000 -0.000000 0.039028
v -0.000000 0.010078 0.059940
v -0.000000 0.003855 0.056198
v -0.014935 -0.000000 0.036057
v -0.022938 0.010078 0.055377
v -0.021506 0.003855 0.051920
v -0.027597 -0.000000 0.027597
v -0.042384 0.010078 0.042384
v -0.039738 0.003855 0.039738
v -0.036057 -0.000000 0.014935
v -0.055377 0.010078 0.022938
v -0.051920 0.003855 0.021506
v -0.039028 -0.000000 0.000000
v -0.059940 0.010078 0.000000
v -0.056198 0.003855 0.000000
v -0.036057 -0.000000 -0.014935
v -0.055377 0.010078 -0.022938
v -0.051920 0.003855 -0.021506
v -0.027597 -0.000000 -0.027597
v -0.042384 0.010078 -0.042384
v -0.039738 0.003855 -0.039738
v -0.014935 -0.000000 -0.036057
v -0.022938 0.010078 -0.055377
v -0.021506 0.003855 -0.051920
v 0.019100 -0.000000 -0.046111
v -0.000000 -0.000000 -0.049910
v 0.035291 -0.000000 -0.035291
v 0.046111 -0.000000 -0.019100
v 0.049910 -0.000000 0.000000
v 0.046111 -0.000000 0.019100
v 0.035291 -0.000000 0.035291
v 0.019100 -0.000000 0.046111
v -0.000000 -0.000000 0.049910
v -0.019100 -0.000000 0.046111
v -0.035291 -0.000000 0.035291
v -0.046111 -0.000000 0.019100
v -0.049910 -0.000000 0.000000
v -0.046111 -0.000000 -0.019100
v -0.035291 -0.000000 -0.035291
v -0.019100 -0.000000 -0.046111
v -0.014935 0.001472 0.000000
v -0.000000 0.001472 0.000000
v 0.014935 0.001472 0.000000
v -0.014935 0.001472 0.014935
v -0.000000 0.001472 0.014935
v 0.014935 0.001472 0.014935
v -0.014935 0.001472 -0.014935
v -0.000000 0.001472 -0.014935
v 0.014935 0.001472 -0.014935
v 0.000000 0.016691 -0.060135
v 0.000000 0.020058 -0.057812
v 0.022124 0.020058 -0.053411
v 0.023013 0.016691 -0.055558
v 0.040879 0.020058 -0.040879
v 0.042522 0.016691 -0.042522
v 0.053411 0.020058 -0.022124
v 0.055558 0.016691 -0.023013
v 0.057812 0.020058 0.000000
v 0.060135 0.016691 0.000000
v 0.053411 0.020058 0.022124
v 0.055558 0.016691 0.023013
v 0.040879 0.020058 0.040879
v 0.042522 0.016691 0.042522
v 0.022124 0.020058 0.053411
v 0.023013 0.016691 0.055558
v -0.000000 0.020058 0.057812
v -0.000000 0.016691 0.060135
v -0.022124 0.020058 0.053411
v -0.023013 0.016691 0.055558
v -0.040879 0.020058 0.040879
v -0.042522 0.016691 0.042522
v -0.053411 0.020058 0.022124
v -0.055558 0.016691 0.023013
v -0.057812 0.020058 0.000000
v -0.060135 0.016691 0.000000
v -0.053411 0.020058 -0.022124
v -0.055558 0.016691 -0.023013
v -0.040879 0.020058 -0.040879
v -0.042522 0.016691 -0.042522
v -0.022124 0.020058 -0.053411
v -0.023013 0.016691 -0.055558
v 0.024415 0.020058 0.024415
v 0.025999 0.020058 0.000000
v 0.024415 0.020058 -0.024415
v -0.000000 0.020058 0.025999
v -0.000000 0.020058 0.000000
v 0.000000 0.020058 -0.025999
v -0.024414 0.020058 0.024415
v -0.025999 0.020058 0.000000
v -0.024414 0.020058 -0.024415
v 0.040947 0.050576 -0.040947
v 0.021997 0.050690 -0.053461
v 0.000000 0.050724 -0.057779
v -0.021997 0.050690 -0.053461
v 0.038330 0.057255 -0.038330
v 0.019249 0.058277 -0.049728
v 0.000000 0.058585 -0.053027
v -0.019249 0.058277 -0.049728
v -0.040947 0.050576 -0.040947
v -0.053461 0.050690 -0.021997
v -0.057779 0.050724 -0.000000
v -0.053461 0.050690 0.021997
v -0.038330 0.057255 -0.038330
v -0.049728 0.058277 -0.019249
v -0.053027 0.058585 0.000000
v -0.049728 0.058277 0.019249
v -0.040947 0.050576 0.040947
v -0.021997 0.050690 0.053461
v 0.000000 0.050724 0.057779
v 0.021997 0.050690 0.053461
v -0.038330 0.057255 0.038330
v -0.019249 0.058277 0.049728
v 0.000000 0.058585 0.053027
v 0.019249 0.058277 0.049728
v 0.053570 0.037006 -0.022189
v 0.057984 0.037006 0.000000
v 0.053570 0.037006 0.022189
v 0.041001 0.037006 0.041001
v 0.022189 0.037006 0.053570
v 0.000000 0.037006 0.057984
v -0.022189 0.037006 0.053570
v 0.040947 0.050576 0.040947
v 0.053461 0.050690 0.021997
v 0.057779 0.050724 0.000000
v 0.053461 0.050690 -0.021997
v 0.038330 0.057255 0.038330
v 0.049728 0.058277 0.019249
v 0.053027 0.058585 0.000000
v 0.049728 0.058277 -0.019249
v -0.041001 0.037006 0.041001
v -0.053570 0.037006 0.022189
v -0.057984 0.037006 -0.000000
v -0.053570 0.037006 -0.022189
v -0.041001 0.037006 -0.041001
v -0.022189 0.037006 -0.053570
v 0.000000 0.037006 -0.057984
v 0.022189 0.037006 -0.053570
v 0.041001 0.037006 -0.041001
v 0.030705 0.064575 -0.030705
v 0.016617 0.064575 -0.040118
v 0.000000 0.064575 -0.043423
v -0.016617 0.064575 -0.040118
v -0.030705 0.064575 -0.030705
v 0.040118 0.064575 -0.016617
v 0.019628 0.069168 -0.019628
v 0.000000 0.070441 -0.020500
v -0.019628 0.069168 -0.019628
v -0.040118 0.064575 -0.016617
v 0.043423 0.064575 0.000000
v 0.020500 0.070441 0.000000
v 0.000000 0.071874 0.000000
v -0.020500 0.070441 0.000000
v -0.043423 0.064575 -0.000000
v 0.040118 0.064575 0.016617
v 0.019628 0.069168 0.019628
v 0.000000 0.070441 0.020500
v -0.019628 0.069168 0.019628
v -0.040118 0.064575 0.016617
v 0.030705 0.064575 0.030705
v 0.016617 0.064575 0.040118
v -0.000000 0.064575 0.043423
v -0.016617 0.064575 0.040118
v -0.030705 0.064575 0.030705
v 0.000000 0.043308 -0.059294
v 0.054781 0.043308 -0.022691
v 0.041928 0.043308 -0.041928
v 0.022691 0.043308 -0.054781
v -0.054781 0.043308 -0.022691
v -0.022691 0.043308 0.054781
v 0.000000 0.043308 0.059294
v 0.054781 0.043308 0.022691
v 0.059294 0.043308 0.000000
v -0.022691 0.043308 -0.054781
v -0.041928 0.043308 -0.041928
v -0.041928 0.043308 0.041928
v 0.022691 0.043308 0.054781
v 0.041928 0.043308 0.041928
v -0.059294 0.043308 -0.000000
v -0.054781 0.043308 0.022691
v 0.024487 0.037006 0.024487
v -0.000000 0.037006 0.026076
v -0.024487 0.037006 0.024487
v 0.026076 0.037006 0.000000
v 0.000000 0.037006 -0.000000
v -0.026076 0.037006 -0.000000
v 0.024487 0.037006 -0.024487
v 0.000000 0.037006 -0.026076
v -0.024487 0.037006 -0.024487
v 0.000000 0.019562 -0.051871
v 0.000000 0.024835 -0.056290
v 0.000000 0.021096 -0.055557
v 0.000000 0.035238 -0.051871
v 0.000000 0.029965 -0.056290
v 0.000000 0.033704 -0.055557
v 0.019850 0.019562 -0.047922
v 0.021541 0.024835 -0.052006
v 0.021261 0.021096 -0.051328
v 0.019850 0.035238 -0.047922
v 0.021541 0.029965 -0.052006
v 0.021261 0.033704 -0.051328
v 0.036678 0.019562 -0.036678
v 0.039803 0.024835 -0.039803
v 0.039284 0.021096 -0.039284
v 0.036678 0.035238 -0.036678
v 0.039803 0.029965 -0.039803
v 0.039284 0.033704 -0.039284
v 0.047922 0.019562 -0.019850
v 0.052006 0.024835 -0.021541
v 0.051328 0.021096 -0.021261
v 0.047922 0.035238 -0.019850
v 0.052006 0.029965 -0.021541
v 0.051328 0.033704 -0.021261
v 0.051871 0.019562 0.000000
v 0.056290 0.024835 0.000000
v 0.055557 0.021096 0.000000
v 0.051871 0.035238 0.000000
v 0.056290 0.029965 0.000000
v 0.055557 0.033704 0.000000
v 0.047922 0.019562 0.019850
v 0.052006 0.024835 0.021541
v 0.051328 0.021096 0.021261
v 0.047922 0.035238 0.019850
v 0.052006 0.029965 0.021541
v 0.051328 0.033704 0.021261
v 0.036678 0.019562 0.036678
v 0.039803 0.024835 0.039803
v 0.039284 0.021096 0.039284
v 0.036678 0.035238 0.036678
v 0.039803 0.029965 0.039803
v 0.039284 0.033704 0.039284
v 0.019850 0.019562 0.047922
v 0.021541 0.024835 0.052006
v 0.021261 0.021096 0.051328
v 0.019850 0.035238 0.047922
v 0.021541 0.029965 0.052006
v 0.021261 0.033704 0.051328
v -0.000000 0.019562 0.051871
v -0.000000 0.024835 0.056290
v -0.000000 0.021096 0.055557
v -0.000000 0.035238 0.051871
v -0.000000 0.029965 0.056290
v -0.000000 0.033704 0.055557
v -0.019850 0.019562 0.047922
v -0.021541 0.024835 0.052006
v -0.021261 0.021096 0.051328
v -0.019850 0.035238 0.047922
v -0.021541 0.029965 0.052006
v -0.021261 0.033704 0.051328
v -0.036678 0.019562 0.036678
v -0.039803 0.024835 0.039803
v -0.039284 0.021096 0.039284
v -0.036678 0.035238 0.036678
v -0.039803 0.029965 0.039803
v -0.039284 0.033704 0.039284
v -0.047922 0.019562 0.019850
v -0.052006 0.024835 0.021541
v -0.051328 0.021096 0.021261
v -0.047922 0.035238 0.019850
v -0.052006 0.029965 0.021541
v -0.051328 0.033704 0.021261
v -0.051871 0.019562 0.000000
v -0.056290 0.024835 0.000000
v -0.055557 0.021096 0.000000
v -0.051871 0.035238 0.000000
v -0.056290 0.029965 0.000000
v -0.055557 0.033704 0.000000
v -0.047922 0.019562 -0.019850
v -0.052006 0.024835 -0.021541
v -0.051328 0.021096 -0.021261
v -0.047922 0.035238 -0.019850
v -0.052006 0.029965 -0.021541
v -0.051328 0.033704 -0.021261
v -0.036678 0.019562 -0.036678
v -0.039803 0.024835 -0.039803
v -0.039284 0.021096 -0.039284
v -0.036678 0.035238 -0.036678
v -0.039803 0.029965 -0.039803
v -0.039284 0.033704 -0.039284
v -0.019850 0.019562 -0.047922
v -0.021541 0.024835 -0.052006
v -0.021261 0.021096 -0.051328
v -0.019850 0.035238 -0.047922
v -0.021541 0.029965 -0.052006
v -0.021261 0.033704 -0.051328
v 0.021906 0.035238 0.021906
v 0.023327 0.035238 0.000000
v 0.021906 0.035238 -0.021906
v 0.000000 0.035238 0.023327
v -0.000000 0.035238 0.000000
v 0.000000 0.035238 -0.023327
v -0.021906 0.035238 0.021906
v -0.023327 0.035238 0.000000
v -0.021906 0.035238 -0.021906
v 0.021906 0.019562 -0.021906
v 0.023327 0.019562 0.000000
v 0.021906 0.019562 0.021906
v -0.000000 0.019562 -0.023327
v -0.000000 0.019562 0.000000
v -0.000000 0.019562 0.023327
v -0.021906 0.019562 -0.021906
v -0.023327 0.019562 0.000000
v -0.021906 0.019562 0.021906
vn 0.6689 0.3243 -0.6689
vn 0.4423 0.6320 -0.6364
vn 0.5938 0.5429 -0.5938
vn -0.0238 0.9994 -0.0238
vn -0.2950 0.9088 -0.2950
vn -0.1765 0.9805 -0.0861
vn -0.0414 0.9991 -0.0000
vn -0.0861 0.9806 0.1763
vn -0.0000 0.9991 0.0414
vn -0.0237 0.9994 0.0237
vn -0.2951 0.9088 0.2951
vn -0.6376 0.6321 -0.4403
vn -0.5970 0.5358 -0.5970
vn -0.0000 -0.9990 -0.0443
vn 0.0857 -0.9807 -0.1756
vn 0.3058 -0.9017 -0.3058
vn 0.0240 -0.9994 -0.0240
vn 0.6730 0.3069 0.6730
vn 0.6384 0.6323 0.4389
vn 0.5993 0.5307 0.5993
vn 0.1764 0.9806 -0.0860
vn 0.6364 0.6320 -0.4423
vn 0.2949 0.9089 -0.2949
vn -0.4378 0.6324 0.6391
vn -0.6012 0.5264 0.6012
vn -0.0861 0.9805 -0.1765
vn -0.4403 0.6321 -0.6376
vn -0.1763 0.9806 0.0861
vn -0.6391 0.6324 0.4378
vn 0.0860 0.9806 -0.1764
vn -0.6713 0.3142 -0.6713
vn -0.6744 0.3007 0.6744
vn 0.2951 0.9088 0.2951
vn 0.1764 0.9805 0.0861
vn 0.0861 0.9805 0.1764
vn 0.4389 0.6323 0.6384
vn 0.0414 0.9991 -0.0000
vn 0.0238 0.9994 -0.0238
vn -0.0000 1.0000 -0.0000
vn 0.0238 0.9994 0.0238
vn -0.0000 0.9991 -0.0414
vn -0.6918 -0.2069 0.6918
vn -0.6299 -0.4543 0.6299
vn -0.4395 -0.6115 0.6580
vn 0.0443 -0.9990 -0.0000
vn 0.1754 -0.9808 0.0857
vn 0.3057 -0.9017 0.3057
vn 0.0239 -0.9994 0.0239
vn 0.6580 -0.6115 0.4395
vn 0.6299 -0.4543 0.6299
vn -0.6918 -0.2069 -0.6918
vn -0.6299 -0.4543 -0.6299
vn -0.6580 -0.6115 -0.4395
vn -0.1755 -0.9807 0.0857
vn -0.3058 -0.9017 0.3058
vn -0.6580 -0.6115 0.4395
vn 0.4395 -0.6115 -0.6580
vn 0.6299 -0.4543 -0.6299
vn 0.4395 -0.6115 0.6580
vn 0.0857 -0.9808 0.1754
vn 0.6580 -0.6115 -0.4395
vn 0.1756 -0.9807 -0.0857
vn -0.0857 -0.9807 0.1755
vn 0.6918 -0.2069 0.6918
vn 0.6918 -0.2069 -0.6918
vn -0.3058 -0.9017 -0.3058
vn -0.1755 -0.9807 -0.0857
vn -0.0857 -0.9807 -0.1755
vn -0.4395 -0.6115 -0.6580
vn -0.0443 -0.9990 -0.0000
vn -0.0240 -0.9994 -0.0240
vn -0.0000 -0.9990 0.0443
vn -0.7672 -0.6318 -0.1108
vn -0.8737 -0.4864 0.0107
vn -0.8580 -0.5135 -0.0105
vn -0.1108 -0.6318 0.7672
vn 0.0107 -0.4864 0.8737
vn -0.0105 -0.5135 0.8580
vn 0.7672 -0.6318 0.1108
vn 0.8737 -0.4864 -0.0107
vn 0.8580 -0.5135 0.0105
vn 0.1108 -0.6318 -0.7672
vn -0.0107 -0.4864 -0.8737
vn 0.0105 -0.5135 -0.8580
vn -0.0471 -0.2034 0.9780
vn -0.0107 -0.4864 0.8737
vn 0.0105 -0.5135 0.8580
vn -0.0552 -0.2229 0.9733
vn -0.0000 -0.0717 0.9974
vn 0.0471 -0.2034 0.9780
vn 0.0552 -0.2229 0.9733
vn 0.0471 -0.2034 -0.9780
vn 0.0107 -0.4864 -0.8737
vn -0.0105 -0.5135 -0.8580
vn 0.0552 -0.2229 -0.9733
vn -0.0000 -0.0717 -0.9974
vn -0.0471 -0.2034 -0.9780
vn -0.0552 -0.2229 -0.9733
vn -0.9780 -0.2034 -0.0471
vn -0.8737 -0.4864 -0.0107
vn -0.8580 -0.5135 0.0105
vn -0.9733 -0.2229 -0.0552
vn -0.9974 -0.0717 -0.0000
vn -0.9780 -0.2034 0.0471
vn -0.9733 -0.2229 0.0552
vn 0.9780 -0.2034 0.0471
vn 0.8737 -0.4864 0.0107
vn 0.8580 -0.5135 -0.0105
vn 0.9733 -0.2229 0.0552
vn 0.9974 -0.0717 -0.0000
vn 0.9780 -0.2034 -0.0471
vn 0.9733 -0.2229 -0.0552
vn -0.1108 -0.6318 -0.7672
vn -0.7672 -0.6318 0.1108
vn 0.1108 -0.6318 0.7672
vn 0.7672 -0.6318 -0.1108
vn -0.0000 -1.0000 -0.0000
vn -0.0240 -0.9994 0.0240
vn 0.3681 -0.2735 -0.8887
vn 0.3681 0.2733 -0.8887
vn 0.6802 0.2733 -0.6802
vn 0.6802 -0.2735 -0.6802
vn 0.8887 -0.2735 -0.3681
vn 0.8887 0.2733 -0.3681
vn 0.9619 0.2733 -0.0000
vn 0.9619 -0.2735 -0.0000
vn 0.8887 0.2733 0.3681
vn 0.8887 -0.2735 0.3681
vn 0.6802 0.2733 0.6802
vn 0.6802 -0.2735 0.6802
vn 0.3681 0.2733 0.8887
vn 0.3681 -0.2735 0.8887
vn -0.0000 0.2733 0.9619
vn -0.0000 -0.2735 0.9619
vn -0.3681 0.2733 0.8887
vn -0.3681 -0.2735 0.8887
vn -0.6802 0.2733 0.6802
vn -0.6802 -0.2735 0.6802
vn -0.8887 0.2733 0.3681
vn -0.8887 -0.2735 0.3681
vn -0.9619 0.2733 -0.0000
vn -0.9619 -0.2735 -0.0000
vn -0.8887 0.2733 -0.3681
vn -0.8887 -0.2735 -0.3681
vn -0.6802 0.2733 -0.6802
vn -0.6802 -0.2735 -0.6802
vn -0.3681 0.2733 -0.8887
vn -0.3681 -0.2735 -0.8887
vn -0.0000 0.2733 -0.9619
vn -0.0000 -0.2735 -0.9619
vn 0.2771 -0.6896 -0.6691
vn -0.0000 -0.6896 -0.7242
vn 0.1157 -0.9532 -0.2793
vn -0.0000 -0.9532 -0.3023
vn 0.5121 -0.6896 -0.5121
vn 0.2138 -0.9532 -0.2138
vn 0.6691 -0.6896 -0.2771
vn 0.2793 -0.9532 -0.1157
vn 0.7242 -0.6896 -0.0000
vn 0.3023 -0.9532 -0.0000
vn 0.6691 -0.6896 0.2771
vn 0.2793 -0.9532 0.1157
vn 0.5121 -0.6896 0.5121
vn 0.2138 -0.9532 0.2138
vn 0.2771 -0.6896 0.6691
vn 0.1157 -0.9532 0.2793
vn -0.0000 -0.6896 0.7242
vn -0.0000 -0.9532 0.3023
vn -0.2771 -0.6896 0.6691
vn -0.1157 -0.9532 0.2793
vn -0.5121 -0.6896 0.5121
vn -0.2138 -0.9532 0.2138
vn -0.6691 -0.6896 0.2771
vn -0.2793 -0.9532 0.1157
vn -0.7242 -0.6896 -0.0000
vn -0.3023 -0.9532 -0.0000
vn -0.6691 -0.6896 -0.2771
vn -0.2793 -0.9532 -0.1157
vn -0.5121 -0.6896 -0.5121
vn -0.2138 -0.9532 -0.2138
vn -0.2771 -0.6896 -0.6691
vn -0.1157 -0.9532 -0.2793
vn -0.0324 -0.9990 -0.0324
vn -0.0274 -0.9996 -0.0109
vn -0.0254 -0.9994 -0.0254
vn -0.0109 -0.9996 -0.0274
vn -0.0109 -0.9996 0.0274
vn -0.0000 -0.9996 0.0285
vn -0.0254 -0.9994 0.0254
vn -0.0274 -0.9996 0.0109
vn -0.0285 -0.9996 -0.0000
vn -0.0000 -0.9996 -0.0285
vn 0.0109 -0.9996 -0.0274
vn 0.0254 -0.9994 -0.0254
vn 0.0274 -0.9996 -0.0109
vn 0.0285 -0.9996 -0.0000
vn 0.0274 -0.9996 0.0109
vn 0.0254 -0.9994 0.0254
vn 0.0109 -0.9996 0.0274
vn 0.0324 -0.9990 -0.0324
vn -0.0000 -0.9995 -0.0325
vn -0.0000 -0.9995 0.0325
vn -0.0324 -0.9990 0.0324
vn -0.0325 -0.9995 -0.0000
vn 0.0324 -0.9990 0.0324
vn 0.0325 -0.9995 -0.0000
vn -0.0000 0.5680 -0.8230
vn 0.3150 0.5680 -0.7604
vn 0.5820 0.5680 -0.5820
vn 0.7604 0.5680 -0.3150
vn 0.8230 0.5680 -0.0000
vn 0.7604 0.5680 0.3150
vn 0.5820 0.5680 0.5820
vn 0.3150 0.5680 0.7604
vn -0.0000 0.5680 0.8230
vn -0.3150 0.5680 0.7604
vn -0.5820 0.5680 0.5820
vn -0.7604 0.5680 0.3150
vn -0.8230 0.5680 -0.0000
vn -0.7604 0.5680 -0.3150
vn -0.5820 0.5680 -0.5820
vn -0.3150 0.5680 -0.7604
vn 0.6626 0.3493 -0.6626
vn 0.3588 0.3492 -0.8656
vn 0.2669 0.6802 -0.6827
vn 0.5269 0.6669 -0.5269
vn -0.0000 0.3487 -0.9372
vn -0.0000 0.6853 -0.7283
vn -0.3588 0.3492 -0.8656
vn -0.2669 0.6802 -0.6827
vn -0.6626 0.3493 -0.6626
vn -0.5269 0.6669 -0.5269
vn 0.1699 0.9087 -0.3813
vn 0.3104 0.8985 -0.3104
vn -0.0000 0.9144 -0.4047
vn -0.1699 0.9087 -0.3813
vn -0.3104 0.8985 -0.3104
vn -0.8656 0.3492 -0.3588
vn -0.6827 0.6802 -0.2669
vn -0.9372 0.3487 -0.0000
vn -0.7283 0.6853 -0.0000
vn -0.8656 0.3492 0.3588
vn -0.6827 0.6802 0.2669
vn -0.6626 0.3493 0.6626
vn -0.5269 0.6669 0.5269
vn -0.3813 0.9087 -0.1699
vn -0.4047 0.9144 -0.0000
vn -0.3813 0.9087 0.1699
vn -0.3104 0.8985 0.3104
vn -0.3588 0.3492 0.8656
vn -0.2669 0.6802 0.6827
vn -0.0000 0.3487 0.9372
vn -0.0000 0.6853 0.7283
vn 0.3588 0.3492 0.8656
vn 0.2669 0.6802 0.6827
vn 0.6626 0.3493 0.6626
vn 0.5269 0.6669 0.5269
vn -0.1699 0.9087 0.3813
vn -0.0000 0.9144 0.4047
vn 0.1699 0.9087 0.3813
vn 0.3104 0.8985 0.3104
vn 0.8656 0.3492 0.3588
vn 0.6827 0.6802 0.2669
vn 0.9372 0.3487 -0.0000
vn 0.7283 0.6853 -0.0000
vn 0.8656 0.3492 -0.3588
vn 0.6827 0.6802 -0.2669
vn 0.3813 0.9087 0.1699
vn 0.4047 0.9144 -0.0000
vn 0.3813 0.9087 -0.1699
vn -0.3830 -0.0041 -0.9237
vn -0.0000 -0.0034 -1.0000
vn -0.0000 -0.2037 -0.9790
vn -0.3747 -0.2037 -0.9045
vn 0.3830 -0.0041 0.9237
vn -0.0000 -0.0034 1.0000
vn -0.0000 -0.2037 0.9790
vn 0.3747 -0.2037 0.9045
vn 0.7071 -0.0047 -0.7071
vn 0.9237 -0.0041 -0.3830
vn 0.9045 -0.2037 -0.3747
vn 0.6923 -0.2037 -0.6923
vn 0.3830 -0.0041 -0.9237
vn 0.3747 -0.2037 -0.9045
vn 1.0000 -0.0034 -0.0000
vn 0.9790 -0.2037 -0.0000
vn -0.9237 -0.0041 -0.3830
vn -0.7071 -0.0047 -0.7071
vn -0.6923 -0.2037 -0.6923
vn -0.9045 -0.2037 -0.3747
vn -0.3830 -0.0041 0.9237
vn -0.7071 -0.0047 0.7071
vn -0.6923 -0.2037 0.6923
vn -0.3747 -0.2037 0.9045
vn -1.0000 -0.0034 -0.0000
vn -0.9790 -0.2037 -0.0000
vn 0.9237 -0.0041 0.3830
vn 0.7071 -0.0047 0.7071
vn 0.6923 -0.2037 0.6923
vn 0.9045 -0.2037 0.3747
vn -0.9237 -0.0041 0.3830
vn -0.9045 -0.2037 0.3747
vn 0.1432 0.9793 -0.1432
vn -0.0000 0.9878 -0.1559
vn -0.1432 0.9793 -0.1432
vn 0.1559 0.9878 -0.0000
vn -0.1559 0.9878 -0.0000
vn 0.1432 0.9793 0.1432
vn -0.0000 0.9878 0.1559
vn -0.1432 0.9793 0.1432
vn -0.3809 -0.0956 -0.9196
vn -0.3809 0.0956 -0.9196
vn -0.0000 0.0956 -0.9954
vn -0.0000 -0.0956 -0.9954
vn 0.7039 -0.0956 -0.7039
vn 0.7039 0.0956 -0.7039
vn 0.9196 0.0956 -0.3809
vn 0.9196 -0.0956 -0.3809
vn 0.9954 0.0956 -0.0000
vn 0.9954 -0.0956 -0.0000
vn 0.9196 0.0956 0.3809
vn 0.9196 -0.0956 0.3809
vn 0.7039 0.0956 0.7039
vn 0.7039 -0.0956 0.7039
vn 0.3809 0.0956 0.9196
vn 0.3809 -0.0956 0.9196
vn -0.0000 0.0956 0.9954
vn -0.0000 -0.0956 0.9954
vn -0.3809 0.0956 0.9196
vn -0.3809 -0.0956 0.9196
vn -0.7039 0.0956 0.7039
vn -0.7039 -0.0956 0.7039
vn -0.9196 0.0956 0.3809
vn -0.9196 -0.0956 0.3809
vn -0.9954 0.0956 -0.0000
vn -0.9954 -0.0956 -0.0000
vn -0.9196 0.0956 -0.3809
vn -0.9196 -0.0956 -0.3809
vn -0.7039 0.0956 -0.7039
vn -0.7039 -0.0956 -0.7039
vn 0.3809 -0.0956 -0.9196
vn 0.3809 0.0956 -0.9196
vn 0.3046 -0.6054 -0.7353
vn -0.0000 -0.6054 -0.7959
vn 0.0839 -0.9757 -0.2025
vn -0.0000 -0.9757 -0.2192
vn -0.0000 0.6054 -0.7959
vn 0.3046 0.6054 -0.7353
vn -0.0000 0.9757 -0.2192
vn 0.0839 0.9757 -0.2025
vn 0.5628 -0.6054 -0.5628
vn 0.1550 -0.9757 -0.1550
vn 0.5628 0.6054 -0.5628
vn 0.1550 0.9757 -0.1550
vn 0.7353 -0.6054 -0.3046
vn 0.2025 -0.9757 -0.0839
vn 0.7353 0.6054 -0.3046
vn 0.2025 0.9757 -0.0839
vn 0.7959 -0.6054 -0.0000
vn 0.2192 -0.9757 -0.0000
vn 0.7959 0.6054 -0.0000
vn 0.2192 0.9757 -0.0000
vn 0.7353 -0.6054 0.3046
vn 0.2025 -0.9757 0.0839
vn 0.7353 0.6054 0.3046
vn 0.2025 0.9757 0.0839
vn 0.5628 -0.6054 0.5628
vn 0.1550 -0.9757 0.1550
vn 0.5628 0.6054 0.5628
vn 0.1550 0.9757 0.1550
vn 0.3046 -0.6054 0.7353
vn 0.0839 -0.9757 0.2025
vn 0.3046 0.6054 0.7353
vn 0.0839 0.9757 0.2025
vn -0.0000 -0.6054 0.7959
vn -0.0000 -0.9757 0.2192
vn -0.0000 0.6054 0.7959
vn -0.0000 0.9757 0.2192
vn -0.3046 -0.6054 0.7353
vn -0.0839 -0.9757 0.2025
vn -0.3046 0.6054 0.7353
vn -0.0839 0.9757 0.2025
vn -0.5628 -0.6054 0.5628
vn -0.1550 -0.9757 0.1550
vn -0.5628 0.6054 0.5628
vn -0.1550 0.9757 0.1550
vn -0.7353 -0.6054 0.3046
vn -0.2025 -0.9757 0.0839
vn -0.7353 0.6054 0.3046
vn -0.2025 0.9757 0.0839
vn -0.7959 -0.6054 -0.0000
vn -0.2192 -0.9757 -0.0000
vn -0.7959 0.6054 -0.0000
vn -0.2192 0.9757 -0.0000
vn -0.7353 -0.6054 -0.3046
vn -0.2025 -0.9757 -0.0839
vn -0.7353 0.6054 -0.3046
vn -0.2025 0.9757 -0.0839
vn -0.5628 -0.6054 -0.5628
vn -0.1550 -0.9757 -0.1550
vn -0.5628 0.6054 -0.5628
vn -0.1550 0.9757 -0.1550
vn -0.3046 -0.6054 -0.7353
vn -0.0839 -0.9757 -0.2025
vn -0.3046 0.6054 -0.7353
vn -0.0839 0.9757 -0.2025
vt 0.993079 0.006206
vt 0.976981 0.053305
vt 0.958228 0.041056
vt 0.907445 0.217986
vt 0.938872 0.249412
vt 0.907962 0.279342
vt 0.844373 0.279094
vt 0.719928 0.218499
vt 0.720186 0.154910
vt 0.781424 0.217858
vt 0.749859 0.249423
vt 0.945973 0.287532
vt 0.958861 0.269399
vt 0.724101 0.823114
vt 0.723921 0.759832
vt 0.754586 0.729583
vt 0.788441 0.763436
vt 0.695665 0.006200
vt 0.742774 0.022275
vt 0.729440 0.039977
vt 0.907962 0.030483
vt 0.945979 0.022303
vt 0.938864 0.060419
vt 0.711725 0.256509
vt 0.729079 0.270204
vt 0.968801 0.218499
vt 0.976994 0.256510
vt 0.780784 0.279354
vt 0.742774 0.287557
vt 0.968799 0.091322
vt 0.993079 0.303615
vt 0.695663 0.303621
vt 0.749865 0.060403
vt 0.780784 0.030474
vt 0.719933 0.091321
vt 0.711737 0.053310
vt 0.844373 0.030731
vt 0.907375 0.091907
vt 0.844367 0.154912
vt 0.781361 0.091901
vt 0.968549 0.154911
vt 0.990721 0.965715
vt 0.963699 0.938693
vt 0.978088 0.922354
vt 0.848116 0.699091
vt 0.911400 0.698907
vt 0.941653 0.729580
vt 0.907629 0.763605
vt 0.947357 0.693144
vt 0.963698 0.707533
vt 0.705523 0.965711
vt 0.732545 0.938690
vt 0.748884 0.953079
vt 0.911405 0.947318
vt 0.941656 0.916649
vt 0.947360 0.953081
vt 0.718157 0.723881
vt 0.732544 0.707543
vt 0.978088 0.723872
vt 0.972328 0.759830
vt 0.748881 0.693155
vt 0.784833 0.698916
vt 0.972326 0.886399
vt 0.990721 0.680508
vt 0.705523 0.680524
vt 0.754589 0.916647
vt 0.784839 0.947317
vt 0.723920 0.886397
vt 0.718157 0.922351
vt 0.848122 0.947138
vt 0.788526 0.882711
vt 0.972148 0.823115
vt 0.280902 0.049632
vt 0.237617 0.049631
vt 0.237617 0.040792
vt 0.280902 0.040792
vt 0.005147 0.023960
vt 0.048432 0.023960
vt 0.048432 0.032799
vt 0.005147 0.032799
vt 0.005803 0.005738
vt 0.049089 0.005738
vt 0.049089 0.014577
vt 0.005803 0.014577
vt 0.280599 0.066182
vt 0.237314 0.066182
vt 0.237314 0.057342
vt 0.280599 0.057343
vt 0.202927 0.023960
vt 0.237087 0.023960
vt 0.237087 0.032799
vt 0.202927 0.032799
vt 0.142759 0.023960
vt 0.142759 0.032799
vt 0.082592 0.023960
vt 0.082592 0.032799
vt 0.082815 0.066181
vt 0.048654 0.066182
vt 0.048654 0.057342
vt 0.082815 0.057342
vt 0.142984 0.066181
vt 0.142984 0.057343
vt 0.203153 0.066181
vt 0.203153 0.057342
vt 0.083118 0.049631
vt 0.048958 0.049631
vt 0.048958 0.040792
vt 0.083118 0.040792
vt 0.143287 0.049632
vt 0.143287 0.040792
vt 0.203456 0.049631
vt 0.203456 0.040792
vt 0.203587 0.005738
vt 0.237748 0.005738
vt 0.237748 0.014577
vt 0.203587 0.014577
vt 0.143418 0.005738
vt 0.143418 0.014577
vt 0.083249 0.005738
vt 0.083249 0.014577
vt 0.005369 0.066182
vt 0.005369 0.057343
vt 0.005672 0.049631
vt 0.005672 0.040792
vt 0.280372 0.023960
vt 0.280372 0.032799
vt 0.281033 0.005738
vt 0.281033 0.014577
vt 0.848122 0.823115
vt 0.907719 0.882711
vt 0.064628 0.425834
vt 0.025493 0.425834
vt 0.025493 0.375680
vt 0.064628 0.375680
vt 0.064628 0.325526
vt 0.025493 0.325526
vt 0.025493 0.275372
vt 0.064628 0.275372
vt 0.025493 0.225218
vt 0.064628 0.225218
vt 0.025493 0.175063
vt 0.064628 0.175063
vt 0.025493 0.124909
vt 0.064628 0.124909
vt 0.025493 0.074755
vt 0.064628 0.074755
vt 0.064628 0.877221
vt 0.025493 0.877221
vt 0.025493 0.827067
vt 0.064628 0.827067
vt 0.025493 0.776913
vt 0.064628 0.776913
vt 0.025493 0.726759
vt 0.064628 0.726759
vt 0.025493 0.676605
vt 0.064628 0.676605
vt 0.025493 0.626451
vt 0.064628 0.626451
vt 0.025493 0.576297
vt 0.064628 0.576297
vt 0.025493 0.526143
vt 0.064628 0.526143
vt 0.025493 0.475989
vt 0.064628 0.475989
vt 0.102414 0.425834
vt 0.102414 0.475989
vt 0.129298 0.425834
vt 0.129298 0.475989
vt 0.102414 0.375680
vt 0.129298 0.375680
vt 0.102414 0.325526
vt 0.129298 0.325526
vt 0.102414 0.275372
vt 0.129298 0.275372
vt 0.102414 0.225218
vt 0.129298 0.225218
vt 0.102414 0.175063
vt 0.129298 0.175063
vt 0.102414 0.124909
vt 0.129298 0.124909
vt 0.102414 0.074755
vt 0.129298 0.074755
vt 0.102414 0.827067
vt 0.102414 0.877221
vt 0.129298 0.827067
vt 0.129298 0.877221
vt 0.102414 0.776913
vt 0.129298 0.776913
vt 0.102414 0.726759
vt 0.129298 0.726759
vt 0.102414 0.676605
vt 0.129298 0.676605
vt 0.102414 0.626451
vt 0.129298 0.626451
vt 0.102414 0.576297
vt 0.129298 0.576297
vt 0.102414 0.526143
vt 0.129298 0.526143
vt 0.632153 0.234658
vt 0.680213 0.235032
vt 0.661113 0.263617
vt 0.632528 0.282718
vt 0.632518 0.120028
vt 0.598864 0.113332
vt 0.598864 0.088808
vt 0.641920 0.097361
vt 0.661101 0.139133
vt 0.678467 0.121781
vt 0.680206 0.167715
vt 0.702872 0.158330
vt 0.686902 0.201373
vt 0.711426 0.201378
vt 0.702881 0.244431
vt 0.678464 0.280982
vt 0.641911 0.305385
vt 0.598864 0.289407
vt 0.598864 0.313932
vt 0.565211 0.282711
vt 0.555809 0.305379
vt 0.536628 0.263606
vt 0.519262 0.280958
vt 0.517523 0.235024
vt 0.494856 0.244409
vt 0.510827 0.201366
vt 0.486302 0.201362
vt 0.517515 0.167707
vt 0.494848 0.158308
vt 0.536616 0.139122
vt 0.519264 0.121757
vt 0.565201 0.120021
vt 0.555818 0.097354
vt 0.565602 0.234633
vt 0.598864 0.234721
vt 0.598864 0.168018
vt 0.632127 0.168107
vt 0.632215 0.201370
vt 0.598864 0.201370
vt 0.565576 0.168082
vt 0.565513 0.201370
vt 0.004887 0.475989
vt 0.004887 0.425834
vt 0.004887 0.375680
vt 0.004887 0.325526
vt 0.004887 0.275372
vt 0.004887 0.225218
vt 0.004887 0.175063
vt 0.004887 0.124909
vt 0.004887 0.074755
vt 0.004887 0.877221
vt 0.004887 0.827067
vt 0.004887 0.776913
vt 0.004887 0.726759
vt 0.004887 0.676605
vt 0.004887 0.626451
vt 0.004887 0.576297
vt 0.004887 0.526143
vt 0.774653 0.394867
vt 0.709526 0.389721
vt 0.704380 0.324594
vt 0.746506 0.352741
vt 0.654690 0.386162
vt 0.654690 0.314710
vt 0.599854 0.389721
vt 0.605000 0.324594
vt 0.534727 0.394866
vt 0.562874 0.352741
vt 0.784537 0.444557
vt 0.713085 0.444557
vt 0.654690 0.444557
vt 0.596295 0.444557
vt 0.524843 0.444557
vt 0.774653 0.494247
vt 0.709526 0.499393
vt 0.654690 0.502952
vt 0.599854 0.499393
vt 0.534727 0.494247
vt 0.746506 0.536372
vt 0.704380 0.564520
vt 0.654690 0.574403
vt 0.605000 0.564520
vt 0.562874 0.536372
vt 0.387945 0.673627
vt 0.428992 0.647397
vt 0.445230 0.682245
vt 0.412118 0.697810
vt 0.475976 0.638902
vt 0.475976 0.678602
vt 0.522982 0.647404
vt 0.506736 0.682252
vt 0.564040 0.673656
vt 0.539855 0.697832
vt 0.454310 0.709066
vt 0.435295 0.720995
vt 0.475976 0.704401
vt 0.497647 0.709076
vt 0.516668 0.721010
vt 0.590271 0.714706
vt 0.555421 0.730946
vt 0.598763 0.761696
vt 0.559064 0.761697
vt 0.590258 0.808696
vt 0.555412 0.792453
vt 0.564006 0.849752
vt 0.539833 0.825568
vt 0.528598 0.740027
vt 0.533264 0.761693
vt 0.528590 0.783363
vt 0.516656 0.802383
vt 0.522960 0.875981
vt 0.506721 0.841133
vt 0.475976 0.884476
vt 0.475976 0.844777
vt 0.428970 0.875975
vt 0.445215 0.841126
vt 0.387911 0.849722
vt 0.412097 0.825547
vt 0.497641 0.814312
vt 0.475976 0.818978
vt 0.454304 0.814303
vt 0.435283 0.802368
vt 0.361680 0.808672
vt 0.396530 0.792432
vt 0.353188 0.761682
vt 0.392888 0.761681
vt 0.361693 0.714682
vt 0.396539 0.730926
vt 0.423352 0.783352
vt 0.418687 0.761685
vt 0.423361 0.740015
vt 0.542564 0.601617
vt 0.475976 0.587367
vt 0.475976 0.528603
vt 0.565551 0.547647
vt 0.409387 0.921761
vt 0.475976 0.936011
vt 0.475976 0.994775
vt 0.386400 0.975731
vt 0.354131 0.639781
vt 0.315911 0.695102
vt 0.261952 0.672109
vt 0.312849 0.598321
vt 0.409410 0.601601
vt 0.386581 0.547661
vt 0.301652 0.761702
vt 0.242888 0.761664
vt 0.636071 0.695121
vt 0.597889 0.639838
vt 0.639356 0.598549
vt 0.690022 0.672297
vt 0.542541 0.921777
vt 0.597820 0.883597
vt 0.639102 0.925057
vt 0.565370 0.975717
vt 0.650299 0.761677
vt 0.709063 0.761714
vt 0.315881 0.828257
vt 0.354062 0.883540
vt 0.312595 0.924829
vt 0.261930 0.851081
vt 0.636041 0.828276
vt 0.689999 0.851269
vt 0.452885 0.738592
vt 0.475976 0.738135
vt 0.499071 0.738601
vt 0.452421 0.761685
vt 0.475976 0.761689
vt 0.499530 0.761694
vt 0.452880 0.784778
vt 0.475976 0.785243
vt 0.499066 0.784786
vt 0.332103 0.288582
vt 0.326942 0.353903
vt 0.261621 0.359064
vt 0.289852 0.316813
vt 0.323372 0.408903
vt 0.251707 0.408903
vt 0.326942 0.463902
vt 0.261621 0.458741
vt 0.332103 0.529224
vt 0.289852 0.500992
vt 0.381941 0.278669
vt 0.381941 0.350334
vt 0.381941 0.408903
vt 0.381941 0.467472
vt 0.381941 0.539137
vt 0.431779 0.288582
vt 0.436941 0.353903
vt 0.440511 0.408903
vt 0.436941 0.463902
vt 0.431780 0.529224
vt 0.474031 0.316813
vt 0.502262 0.359064
vt 0.512175 0.408903
vt 0.502262 0.458741
vt 0.474031 0.500992
vt 0.170815 0.411959
vt 0.201163 0.411959
vt 0.201163 0.460133
vt 0.170815 0.460133
vt 0.170815 0.556479
vt 0.201163 0.556479
vt 0.201163 0.604653
vt 0.170815 0.604653
vt 0.201163 0.652826
vt 0.170815 0.652826
vt 0.201163 0.700999
vt 0.170815 0.700999
vt 0.201163 0.749173
vt 0.170815 0.749173
vt 0.201163 0.797346
vt 0.170815 0.797346
vt 0.201163 0.845519
vt 0.170815 0.845519
vt 0.170815 0.074746
vt 0.201163 0.074746
vt 0.201163 0.122920
vt 0.170815 0.122920
vt 0.201163 0.171093
vt 0.170815 0.171093
vt 0.201163 0.219266
vt 0.170815 0.219266
vt 0.201163 0.267440
vt 0.170815 0.267440
vt 0.201163 0.315613
vt 0.170815 0.315613
vt 0.201163 0.363786
vt 0.170815 0.363786
vt 0.170815 0.508306
vt 0.201163 0.508306
vt 0.148634 0.508306
vt 0.148634 0.460133
vt 0.136311 0.508306
vt 0.136311 0.460133
vt 0.223344 0.460133
vt 0.223344 0.508306
vt 0.235667 0.460133
vt 0.235667 0.508306
vt 0.148634 0.556479
vt 0.136311 0.556479
vt 0.223344 0.556479
vt 0.235667 0.556479
vt 0.148634 0.604653
vt 0.136311 0.604653
vt 0.223344 0.604653
vt 0.235667 0.604653
vt 0.148634 0.652826
vt 0.136311 0.652826
vt 0.223344 0.652826
vt 0.235667 0.652826
vt 0.148634 0.700999
vt 0.136311 0.700999
vt 0.223344 0.700999
vt 0.235667 0.700999
vt 0.148634 0.749173
vt 0.136311 0.749173
vt 0.223344 0.749173
vt 0.235667 0.749173
vt 0.148634 0.797346
vt 0.136311 0.797346
vt 0.223344 0.797346
vt 0.235667 0.797346
vt 0.148634 0.845519
vt 0.136311 0.845519
vt 0.223344 0.845519
vt 0.235667 0.845519
vt 0.148634 0.122920
vt 0.148634 0.074746
vt 0.136311 0.122920
vt 0.136311 0.074746
vt 0.223344 0.074746
vt 0.223344 0.122920
vt 0.235667 0.074746
vt 0.235667 0.122920
vt 0.148634 0.171093
vt 0.136311 0.171093
vt 0.223344 0.171093
vt 0.235667 0.171093
vt 0.148634 0.219266
vt 0.136311 0.219266
vt 0.223344 0.219266
vt 0.235667 0.219266
vt 0.148634 0.267440
vt 0.136311 0.267440
vt 0.223344 0.267440
vt 0.235667 0.267440
vt 0.148634 0.315613
vt 0.136311 0.315613
vt 0.223344 0.315613
vt 0.235667 0.315613
vt 0.148634 0.363786
vt 0.136311 0.363786
vt 0.223344 0.363786
vt 0.235667 0.363786
vt 0.148634 0.411959
vt 0.136311 0.411959
vt 0.223344 0.411959
vt 0.235667 0.411959
vt 0.828653 0.467074
vt 0.824036 0.525510
vt 0.765599 0.530127
vt 0.790855 0.492330
vt 0.820842 0.574712
vt 0.756731 0.574712
vt 0.824035 0.623915
vt 0.765599 0.619298
vt 0.828653 0.682351
vt 0.790855 0.657095
vt 0.873238 0.458206
vt 0.873238 0.522317
vt 0.873238 0.574712
vt 0.873238 0.627108
vt 0.873238 0.691219
vt 0.917823 0.467074
vt 0.922440 0.525510
vt 0.925633 0.574712
vt 0.922440 0.623915
vt 0.917823 0.682351
vt 0.955620 0.492330
vt 0.980876 0.530127
vt 0.989744 0.574712
vt 0.980876 0.619298
vt 0.955620 0.657095
vt 0.413778 0.262294
vt 0.418395 0.203859
vt 0.476831 0.199242
vt 0.451575 0.237039
vt 0.421589 0.154657
vt 0.485699 0.154657
vt 0.418395 0.105456
vt 0.476831 0.110072
vt 0.413779 0.047020
vt 0.451575 0.072276
vt 0.369194 0.271163
vt 0.369194 0.207052
vt 0.369194 0.154657
vt 0.369194 0.102262
vt 0.369194 0.038152
vt 0.324609 0.262294
vt 0.319992 0.203859
vt 0.316798 0.154657
vt 0.319992 0.105456
vt 0.324609 0.047020
vt 0.286812 0.237039
vt 0.261557 0.199242
vt 0.252688 0.154657
vt 0.261557 0.110072
vt 0.286812 0.072275
s 1
f 4/1/1 27/2/2 22/3/3
f 67/4/4 24/5/5 11/6/6 12/7/7
f 5/8/8 6/9/9 70/10/10 18/11/11
f 29/12/12 11/6/6 24/5/5 25/13/13
f 39/14/14 38/15/15 51/16/16 74/17/17
f 2/18/18 33/19/19 19/20/20
f 16/21/21 26/22/22 22/3/3 23/23/23
f 31/24/24 5/8/8 18/11/11 17/25/25
f 25/13/13 24/5/5 10/26/26 28/27/27
f 17/25/25 18/11/11 13/28/28 30/29/29
f 23/23/23 22/3/3 27/2/2 8/30/30
f 3/31/31 29/12/12 25/13/13
f 1/32/32 31/24/24 17/25/25
f 20/33/33 19/20/20 33/19/19 14/34/34
f 7/35/35 32/36/36 19/20/20 20/33/33
f 32/36/36 2/18/18 19/20/20
f 30/29/29 1/32/32 17/25/25
f 28/27/27 3/31/31 25/13/13
f 26/22/22 4/1/1 22/3/3
f 15/37/37 68/38/38 21/39/39 69/40/40
f 9/41/41 10/26/26 24/5/5 67/4/4
f 7/35/35 20/33/33 69/40/40 6/9/9
f 21/39/39 67/4/4 12/7/7 70/10/10
f 37/42/42 55/43/43 60/44/44
f 45/45/45 44/46/46 57/47/47 71/48/48
f 8/30/30 9/41/41 68/38/38 23/23/23
f 62/49/49 58/50/50 57/47/47 44/46/46
f 70/10/10 12/7/7 13/28/28 18/11/11
f 35/51/51 52/52/52 66/53/53
f 49/54/54 56/55/55 55/43/43 59/56/56
f 64/57/57 50/58/58 51/16/16 38/15/15
f 58/50/50 61/59/59 43/60/60 57/47/47
f 50/58/58 63/61/61 46/62/62 51/16/16
f 56/55/55 41/63/63 60/44/44 55/43/43
f 36/64/64 58/50/50 62/49/49
f 34/65/65 50/58/58 64/57/57
f 53/66/66 47/67/67 66/53/53 52/52/52
f 40/68/68 53/66/66 52/52/52 65/69/69
f 65/69/69 52/52/52 35/51/51
f 63/61/61 50/58/58 34/65/65
f 61/59/59 58/50/50 36/64/64
f 59/56/56 55/43/43 37/42/42
f 48/70/70 47/67/67 53/66/66 73/71/71
f 71/48/48 57/47/47 43/60/60 42/72/72
f 14/34/34 15/37/37 69/40/40 20/33/33
f 9/41/41 67/4/4 21/39/39 68/38/38
f 16/21/21 23/23/23 68/38/38 15/37/37
f 1/73/73 30/74/74 63/75/75 34/76/73
f 2/77/76 32/78/77 65/79/78 35/80/76
f 4/81/79 26/82/80 59/83/81 37/84/79
f 3/85/82 28/86/83 61/87/84 36/88/82
f 5/89/85 31/90/86 64/91/87 38/92/88
f 6/93/89 5/89/85 38/92/88 39/94/89
f 7/95/90 6/93/89 39/94/89 40/96/91
f 8/97/92 27/98/93 60/99/94 41/100/95
f 9/101/96 8/97/92 41/100/95 42/102/96
f 10/103/97 9/101/96 42/102/96 43/104/98
f 11/105/99 29/106/100 62/107/101 44/108/102
f 12/109/103 11/105/99 44/108/102 45/110/103
f 13/111/104 12/109/103 45/110/103 46/112/105
f 14/113/106 33/114/107 66/115/108 47/116/109
f 15/117/110 14/113/106 47/116/109 48/118/110
f 16/119/111 15/117/110 48/118/110 49/120/112
f 26/82/80 16/119/111 49/120/112 59/83/81
f 27/98/93 4/121/113 37/122/113 60/99/94
f 28/86/83 10/103/97 43/104/98 61/87/84
f 29/106/100 3/123/114 36/124/114 62/107/101
f 30/74/74 13/111/104 46/112/105 63/75/75
f 31/90/86 1/125/115 34/126/115 64/91/87
f 32/78/77 7/95/90 40/96/91 65/79/78
f 33/114/107 2/127/116 35/128/116 66/115/108
f 6/9/9 69/40/40 21/39/39 70/10/10
f 45/45/45 71/48/48 54/129/117 74/17/17
f 72/130/118 42/72/72 41/63/63 56/55/55
f 49/54/54 48/70/70 72/130/118 56/55/55
f 54/129/117 71/48/48 42/72/72 72/130/118
f 72/130/118 48/70/70 73/71/71 54/129/117
f 40/68/68 39/14/14 73/71/71 53/66/66
f 46/62/62 45/45/45 74/17/17 51/16/16
f 73/71/71 39/14/14 74/17/17 54/129/117
f 79/131/119 151/132/120 153/133/121 82/134/122
f 85/135/123 155/136/124 157/137/125 88/138/126
f 88/138/126 157/137/125 159/139/127 91/140/128
f 91/140/128 159/139/127 161/141/129 94/142/130
f 94/142/130 161/141/129 163/143/131 97/144/132
f 97/144/132 163/143/131 165/145/133 100/146/134
f 100/147/134 165/148/133 167/149/135 103/150/136
f 103/150/136 167/149/135 169/151/137 106/152/138
f 106/152/138 169/151/137 171/153/139 109/154/140
f 109/154/140 171/153/139 173/155/141 112/156/142
f 112/156/142 173/155/141 175/157/143 115/158/144
f 115/158/144 175/157/143 177/159/145 118/160/146
f 118/160/146 177/159/145 179/161/147 121/162/148
f 121/162/148 179/161/147 148/163/149 76/164/150
f 82/134/122 153/133/121 155/136/124 85/135/123
f 76/164/150 79/131/119 80/165/151 77/166/152
f 77/166/152 80/165/151 123/167/153 124/168/154
f 79/131/119 82/134/122 83/169/155 80/165/151
f 80/165/151 83/169/155 125/170/156 123/167/153
f 82/134/122 85/135/123 86/171/157 83/169/155
f 83/169/155 86/171/157 126/172/158 125/170/156
f 85/135/123 88/138/126 89/173/159 86/171/157
f 86/171/157 89/173/159 127/174/160 126/172/158
f 88/138/126 91/140/128 92/175/161 89/173/159
f 89/173/159 92/175/161 128/176/162 127/174/160
f 91/140/128 94/142/130 95/177/163 92/175/161
f 92/175/161 95/177/163 129/178/164 128/176/162
f 94/142/130 97/144/132 98/179/165 95/177/163
f 95/177/163 98/179/165 130/180/166 129/178/164
f 97/144/132 100/146/134 101/181/167 98/179/165
f 98/179/165 101/181/167 131/182/168 130/180/166
f 100/147/134 103/150/136 104/183/169 101/184/167
f 101/184/167 104/183/169 132/185/170 131/186/168
f 103/150/136 106/152/138 107/187/171 104/183/169
f 104/183/169 107/187/171 133/188/172 132/185/170
f 106/152/138 109/154/140 110/189/173 107/187/171
f 107/187/171 110/189/173 134/190/174 133/188/172
f 109/154/140 112/156/142 113/191/175 110/189/173
f 110/189/173 113/191/175 135/192/176 134/190/174
f 112/156/142 115/158/144 116/193/177 113/191/175
f 113/191/175 116/193/177 136/194/178 135/192/176
f 115/158/144 118/160/146 119/195/179 116/193/177
f 116/193/177 119/195/179 137/196/180 136/194/178
f 118/160/146 121/162/148 122/197/181 119/195/179
f 119/195/179 122/197/181 138/198/182 137/196/180
f 121/162/148 76/164/150 77/166/152 122/197/181
f 122/197/181 77/166/152 124/168/154 138/198/182
f 144/199/183 90/200/184 93/201/185 96/202/186
f 78/203/187 75/204/188 124/205/154 123/206/153
f 81/207/189 78/203/187 123/206/153 125/208/156
f 84/209/190 81/207/189 125/208/156 126/210/158
f 87/211/191 84/209/190 126/210/158 127/212/160
f 90/200/184 87/211/191 127/212/160 128/213/162
f 93/201/185 90/200/184 128/213/162 129/214/164
f 96/202/186 93/201/185 129/214/164 130/215/166
f 99/216/192 96/202/186 130/215/166 131/217/168
f 102/218/193 99/216/192 131/217/168 132/219/170
f 105/220/194 102/218/193 132/219/170 133/221/172
f 108/222/195 105/220/194 133/221/172 134/223/174
f 111/224/196 108/222/195 134/223/174 135/225/176
f 114/226/197 111/224/196 135/225/176 136/227/178
f 117/228/198 114/226/197 136/227/178 137/229/180
f 120/230/199 117/228/198 137/229/180 138/231/182
f 75/204/188 120/230/199 138/231/182 124/205/154
f 142/232/200 143/233/201 99/216/192 102/218/193
f 143/233/201 144/199/183 96/202/186 99/216/192
f 108/222/195 142/232/200 102/218/193 105/220/194
f 146/234/202 147/235/203 141/236/204 140/237/117
f 145/238/205 146/234/202 140/237/117 139/239/206
f 114/226/197 145/238/205 139/239/206 111/224/196
f 147/235/203 84/209/190 87/211/191 141/236/204
f 140/237/117 141/236/204 144/199/183 143/233/201
f 139/239/206 140/237/117 143/233/201 142/232/200
f 111/224/196 139/239/206 142/232/200 108/222/195
f 141/236/204 87/211/191 90/200/184 144/199/183
f 75/204/188 78/203/187 147/235/203 146/234/202
f 120/230/199 75/204/188 146/234/202 145/238/205
f 117/228/198 120/230/199 145/238/205 114/226/197
f 78/203/187 81/207/189 84/209/190 147/235/203
f 151/132/120 148/163/149 149/240/207 150/241/208
f 153/133/121 151/132/120 150/241/208 152/242/209
f 155/136/124 153/133/121 152/242/209 154/243/210
f 157/137/125 155/136/124 154/243/210 156/244/211
f 159/139/127 157/137/125 156/244/211 158/245/212
f 161/141/129 159/139/127 158/245/212 160/246/213
f 163/143/131 161/141/129 160/246/213 162/247/214
f 165/145/133 163/143/131 162/247/214 164/248/215
f 167/149/135 165/148/133 164/249/215 166/250/216
f 169/151/137 167/149/135 166/250/216 168/251/217
f 171/153/139 169/151/137 168/251/217 170/252/218
f 173/155/141 171/153/139 170/252/218 172/253/219
f 175/157/143 173/155/141 172/253/219 174/254/220
f 177/159/145 175/157/143 174/254/220 176/255/221
f 179/161/147 177/159/145 176/255/221 178/256/222
f 148/163/149 179/161/147 178/256/222 149/240/207
f 76/164/150 148/163/149 151/132/120 79/131/119
f 158/257/39 180/258/39 162/259/39 160/260/39
f 180/258/39 183/261/39 164/262/39 162/259/39
f 183/261/39 186/263/39 166/264/39 164/262/39
f 186/263/39 170/265/39 168/266/39 166/264/39
f 156/267/39 181/268/39 180/258/39 158/257/39
f 181/268/39 184/269/39 183/261/39 180/258/39
f 184/269/39 187/270/39 186/263/39 183/261/39
f 187/270/39 172/271/39 170/265/39 186/263/39
f 154/272/39 182/273/39 181/268/39 156/267/39
f 182/273/39 185/274/39 184/269/39 181/268/39
f 185/274/39 188/275/39 187/270/39 184/269/39
f 188/275/39 174/276/39 172/271/39 187/270/39
f 152/277/39 150/278/39 182/273/39 154/272/39
f 150/278/39 149/279/39 185/274/39 182/273/39
f 149/279/39 178/280/39 188/275/39 185/274/39
f 178/280/39 176/281/39 174/276/39 188/275/39
f 189/282/223 190/283/224 194/284/225 193/285/226
f 190/283/224 191/286/227 195/287/228 194/284/225
f 191/286/227 192/288/229 196/289/230 195/287/228
f 192/288/229 197/290/231 201/291/232 196/289/230
f 193/285/226 194/284/225 238/292/233 237/293/234
f 194/284/225 195/287/228 239/294/235 238/292/233
f 195/287/228 196/289/230 240/295/236 239/294/235
f 196/289/230 201/291/232 241/296/237 240/295/236
f 197/290/231 198/297/238 202/298/239 201/291/232
f 198/297/238 199/299/240 203/300/241 202/298/239
f 199/299/240 200/301/242 204/302/243 203/300/241
f 200/301/242 205/303/244 209/304/245 204/302/243
f 201/291/232 202/298/239 246/305/246 241/296/237
f 202/298/239 203/300/241 251/306/247 246/305/246
f 203/300/241 204/302/243 256/307/248 251/306/247
f 204/302/243 209/304/245 261/308/249 256/307/248
f 205/303/244 206/309/250 210/310/251 209/304/245
f 206/309/250 207/311/252 211/312/253 210/310/251
f 207/311/252 208/313/254 212/314/255 211/312/253
f 208/313/254 220/315/256 224/316/257 212/314/255
f 209/304/245 210/310/251 260/317/258 261/308/249
f 210/310/251 211/312/253 259/318/259 260/317/258
f 211/312/253 212/314/255 258/319/260 259/318/259
f 212/314/255 224/316/257 257/320/261 258/319/260
f 220/315/256 221/321/262 225/322/263 224/316/257
f 221/321/262 222/323/264 226/324/265 225/322/263
f 222/323/264 223/325/266 227/326/267 226/324/265
f 223/325/266 189/282/223 193/285/226 227/326/267
f 224/316/257 225/322/263 252/327/268 257/320/261
f 225/322/263 226/324/265 247/328/269 252/327/268
f 226/324/265 227/326/267 242/329/270 247/328/269
f 227/326/267 193/285/226 237/293/234 242/329/270
f 271/330/271 262/331/272 234/332/273 233/333/274
f 274/334/275 268/335/276 218/336/277 217/337/278
f 264/338/279 263/339/280 213/340/281 236/341/282
f 262/331/272 265/342/283 235/343/284 234/332/273
f 263/339/280 270/344/285 214/345/286 213/340/281
f 266/346/287 272/347/288 232/348/289 231/349/290
f 265/342/283 264/338/279 236/341/282 235/343/284
f 267/350/291 273/351/292 228/352/293 219/353/294
f 276/354/295 266/346/287 231/349/290 230/355/296
f 269/356/297 275/357/298 216/358/299 215/359/300
f 268/335/276 267/350/291 219/353/294 218/336/277
f 270/344/285 269/356/297 215/359/300 214/345/286
f 272/347/288 271/330/271 233/333/274 232/348/289
f 273/351/292 277/360/301 229/361/302 228/352/293
f 275/357/298 274/334/275 217/337/278 216/358/299
f 277/360/301 276/354/295 230/355/296 229/361/302
f 237/293/234 238/292/233 243/362/303 242/329/270
f 238/292/233 239/294/235 244/363/304 243/362/303
f 239/294/235 240/295/236 245/364/305 244/363/304
f 240/295/236 241/296/237 246/305/246 245/364/305
f 242/329/270 243/362/303 248/365/306 247/328/269
f 243/362/303 244/363/304 249/366/39 248/365/306
f 244/363/304 245/364/305 250/367/307 249/366/39
f 245/364/305 246/305/246 251/306/247 250/367/307
f 247/328/269 248/365/306 253/368/308 252/327/268
f 248/365/306 249/366/39 254/369/309 253/368/308
f 249/366/39 250/367/307 255/370/310 254/369/309
f 250/367/307 251/306/247 256/307/248 255/370/310
f 252/327/268 253/368/308 258/319/260 257/320/261
f 253/368/308 254/369/309 259/318/259 258/319/260
f 254/369/309 255/370/310 260/317/258 259/318/259
f 255/370/310 256/307/248 261/308/249 260/317/258
f 200/301/242 199/299/240 276/354/295 277/360/301
f 220/315/256 208/313/254 274/334/275 275/357/298
f 205/303/244 200/301/242 277/360/301 273/351/292
f 197/290/231 192/288/229 271/330/271 272/347/288
f 222/323/264 221/321/262 269/356/297 270/344/285
f 207/311/252 206/309/250 267/350/291 268/335/276
f 221/321/262 220/315/256 275/357/298 269/356/297
f 199/299/240 198/297/238 266/346/287 276/354/295
f 206/309/250 205/303/244 273/351/292 267/350/291
f 190/283/224 189/282/223 264/338/279 265/342/283
f 198/297/238 197/290/231 272/347/288 266/346/287
f 223/325/266 222/323/264 270/344/285 263/339/280
f 191/286/227 190/283/224 265/342/283 262/331/272
f 189/282/223 223/325/266 263/339/280 264/338/279
f 208/313/254 207/311/252 268/335/276 274/334/275
f 192/288/229 191/286/227 262/331/272 271/330/271
f 217/371/117 278/372/117 215/373/117 216/374/117
f 278/372/117 281/375/117 214/376/117 215/373/117
f 281/375/117 284/377/117 213/378/117 214/376/117
f 284/377/117 235/379/117 236/380/117 213/378/117
f 218/381/117 279/382/117 278/372/117 217/371/117
f 279/382/117 282/383/117 281/375/117 278/372/117
f 282/383/117 285/384/117 284/377/117 281/375/117
f 285/384/117 234/385/117 235/379/117 284/377/117
f 219/386/117 280/387/117 279/382/117 218/381/117
f 280/387/117 283/388/117 282/383/117 279/382/117
f 283/388/117 286/389/117 285/384/117 282/383/117
f 286/389/117 233/390/117 234/385/117 285/384/117
f 228/391/117 229/392/117 280/387/117 219/386/117
f 229/392/117 230/393/117 283/388/117 280/387/117
f 230/393/117 231/394/117 286/389/117 283/388/117
f 231/394/117 232/395/117 233/390/117 286/389/117
f 378/396/311 381/397/312 291/398/313 288/399/314
f 300/400/315 303/401/316 309/402/317 306/403/318
f 306/403/318 309/402/317 315/404/319 312/405/320
f 312/405/320 315/404/319 321/406/321 318/407/322
f 318/407/322 321/406/321 327/408/323 324/409/324
f 324/409/324 327/408/323 333/410/325 330/411/326
f 330/411/326 333/410/325 339/412/327 336/413/328
f 336/414/328 339/415/327 345/416/329 342/417/330
f 342/417/330 345/416/329 351/418/331 348/419/332
f 348/419/332 351/418/331 357/420/333 354/421/334
f 354/421/334 357/420/333 363/422/335 360/423/336
f 360/423/336 363/422/335 369/424/337 366/425/338
f 366/425/338 369/424/337 375/426/339 372/427/340
f 372/427/340 375/426/339 381/397/312 378/396/311
f 294/428/341 297/429/342 303/401/316 300/400/315
f 288/399/314 291/398/313 297/429/342 294/428/341
f 288/399/314 294/428/341 295/430/343 289/431/344
f 289/431/344 295/430/343 293/432/345 287/433/346
f 297/429/342 291/398/313 292/434/347 298/435/348
f 298/435/348 292/434/347 290/436/349 296/437/350
f 294/428/341 300/400/315 301/438/351 295/430/343
f 295/430/343 301/438/351 299/439/352 293/432/345
f 303/401/316 297/429/342 298/435/348 304/440/353
f 304/440/353 298/435/348 296/437/350 302/441/354
f 300/400/315 306/403/318 307/442/355 301/438/351
f 301/438/351 307/442/355 305/443/356 299/439/352
f 309/402/317 303/401/316 304/440/353 310/444/357
f 310/444/357 304/440/353 302/441/354 308/445/358
f 306/403/318 312/405/320 313/446/359 307/442/355
f 307/442/355 313/446/359 311/447/360 305/443/356
f 315/404/319 309/402/317 310/444/357 316/448/361
f 316/448/361 310/444/357 308/445/358 314/449/362
f 312/405/320 318/407/322 319/450/363 313/446/359
f 313/446/359 319/450/363 317/451/364 311/447/360
f 321/406/321 315/404/319 316/448/361 322/452/365
f 322/452/365 316/448/361 314/449/362 320/453/366
f 318/407/322 324/409/324 325/454/367 319/450/363
f 319/450/363 325/454/367 323/455/368 317/451/364
f 327/408/323 321/406/321 322/452/365 328/456/369
f 328/456/369 322/452/365 320/453/366 326/457/370
f 324/409/324 330/411/326 331/458/371 325/454/367
f 325/454/367 331/458/371 329/459/372 323/455/368
f 333/410/325 327/408/323 328/456/369 334/460/373
f 334/460/373 328/456/369 326/457/370 332/461/374
f 330/411/326 336/413/328 337/462/375 331/458/371
f 331/458/371 337/462/375 335/463/376 329/459/372
f 339/412/327 333/410/325 334/460/373 340/464/377
f 340/464/377 334/460/373 332/461/374 338/465/378
f 336/414/328 342/417/330 343/466/379 337/467/375
f 337/467/375 343/466/379 341/468/380 335/469/376
f 345/416/329 339/415/327 340/470/377 346/471/381
f 346/471/381 340/470/377 338/472/378 344/473/382
f 342/417/330 348/419/332 349/474/383 343/466/379
f 343/466/379 349/474/383 347/475/384 341/468/380
f 351/418/331 345/416/329 346/471/381 352/476/385
f 352/476/385 346/471/381 344/473/382 350/477/386
f 348/419/332 354/421/334 355/478/387 349/474/383
f 349/474/383 355/478/387 353/479/388 347/475/384
f 357/420/333 351/418/331 352/476/385 358/480/389
f 358/480/389 352/476/385 350/477/386 356/481/390
f 354/421/334 360/423/336 361/482/391 355/478/387
f 355/478/387 361/482/391 359/483/392 353/479/388
f 363/422/335 357/420/333 358/480/389 364/484/393
f 364/484/393 358/480/389 356/481/390 362/485/394
f 360/423/336 366/425/338 367/486/395 361/482/391
f 361/482/391 367/486/395 365/487/396 359/483/392
f 369/424/337 363/422/335 364/484/393 370/488/397
f 370/488/397 364/484/393 362/485/394 368/489/398
f 366/425/338 372/427/340 373/490/399 367/486/395
f 367/486/395 373/490/399 371/491/400 365/487/396
f 375/426/339 369/424/337 370/488/397 376/492/401
f 376/492/401 370/488/397 368/489/398 374/493/402
f 372/427/340 378/396/311 379/494/403 373/490/399
f 373/490/399 379/494/403 377/495/404 371/491/400
f 381/397/312 375/426/339 376/492/401 382/496/405
f 382/496/405 376/492/401 374/493/402 380/497/406
f 378/396/311 288/399/314 289/431/344 379/494/403
f 379/494/403 289/431/344 287/433/346 377/495/404
f 291/398/313 381/397/312 382/496/405 292/434/347
f 292/434/347 382/496/405 380/497/406 290/436/349
f 320/498/366 383/499/39 332/500/374 326/501/370
f 383/499/39 386/502/39 338/503/378 332/500/374
f 386/502/39 389/504/39 344/505/382 338/503/378
f 389/504/39 356/506/390 350/507/386 344/505/382
f 314/508/362 384/509/39 383/499/39 320/498/366
f 384/509/39 387/510/39 386/502/39 383/499/39
f 387/510/39 390/511/39 389/504/39 386/502/39
f 390/511/39 362/512/394 356/506/390 389/504/39
f 308/513/358 385/514/39 384/509/39 314/508/362
f 385/514/39 388/515/39 387/510/39 384/509/39
f 388/515/39 391/516/39 390/511/39 387/510/39
f 391/516/39 368/517/398 362/512/394 390/511/39
f 302/518/354 296/519/350 385/514/39 308/513/358
f 296/519/350 290/520/349 388/515/39 385/514/39
f 290/520/349 380/521/406 391/516/39 388/515/39
f 380/521/406 374/522/402 368/517/398 391/516/39
f 305/523/356 392/524/117 293/525/345 299/526/352
f 392/524/117 395/527/117 287/528/346 293/525/345
f 395/527/117 398/529/117 377/530/404 287/528/346
f 398/529/117 365/531/396 371/532/400 377/530/404
f 311/533/360 393/534/117 392/524/117 305/523/356
f 393/534/117 396/535/117 395/527/117 392/524/117
f 396/535/117 399/536/117 398/529/117 395/527/117
f 399/536/117 359/537/392 365/531/396 398/529/117
f 317/538/364 394/539/117 393/534/117 311/533/360
f 394/539/117 397/540/117 396/535/117 393/534/117
f 397/540/117 400/541/117 399/536/117 396/535/117
f 400/541/117 353/542/388 359/537/392 399/536/117
f 323/543/368 329/544/372 394/539/117 317/538/364
f 329/544/372 335/545/376 397/540/117 394/539/117
f 335/545/376 341/546/380 400/541/117 397/540/117
f 341/546/380 347/547/384 353/542/388 400/541/117
