# Blender 4.0.2
# www.blender.org
o standing_floor_chalkboard_02
v -0.250000 0.006162 0.175041
v -0.250000 0.857124 0.040262
v -0.220000 0.006162 0.175041
v -0.220000 0.857124 0.040262
v -0.250000 0.850963 0.001360
v -0.250000 0.000000 0.136139
v -0.220000 0.850963 0.001360
v -0.220000 0.000000 0.136139
v -0.220000 0.854823 0.025731
v -0.220000 0.853259 0.015854
v -0.220000 0.002296 0.150633
v -0.220000 0.003860 0.160510
v -0.232491 0.003860 0.160510
v -0.232491 0.002296 0.150633
v -0.232491 0.854823 0.025731
v -0.232491 0.853259 0.015854
v -0.246772 0.850973 0.001422
v -0.246772 0.829550 0.004815
v -0.223228 0.850973 0.001422
v -0.223228 0.829550 0.004815
v -0.246772 0.850628 -0.000752
v -0.246772 0.829206 0.002641
v -0.223228 0.829206 0.002641
v -0.223228 0.850628 -0.000752
v 0.250000 0.006162 0.175041
v 0.250000 0.857124 0.040262
v 0.220000 0.006162 0.175041
v 0.220000 0.857124 0.040262
v 0.250000 0.850963 0.001360
v 0.250000 0.000000 0.136139
v 0.220000 0.850963 0.001360
v 0.220000 0.000000 0.136139
v 0.220000 0.854823 0.025731
v 0.220000 0.853259 0.015854
v 0.220000 0.002296 0.150633
v 0.220000 0.003860 0.160510
v 0.232491 0.003860 0.160510
v 0.232491 0.002296 0.150633
v 0.232491 0.854823 0.025731
v 0.232491 0.853259 0.015854
v 0.246772 0.850973 0.001422
v 0.246772 0.829550 0.004815
v 0.223228 0.850973 0.001422
v 0.223228 0.829550 0.004815
v 0.246772 0.850628 -0.000752
v 0.246772 0.829206 0.002641
v 0.223228 0.829206 0.002641
v 0.223228 0.850628 -0.000752
v -0.000000 0.955205 0.009832
v -0.045357 0.952809 0.010212
v -0.088970 0.945712 0.011336
v -0.129165 0.934188 0.013161
v -0.164396 0.918678 0.015617
v -0.193309 0.899779 0.018611
v -0.214794 0.878218 0.022026
v -0.228024 0.854823 0.025731
v -0.232491 0.830493 0.029585
v -0.000000 0.945712 0.011336
v -0.000000 0.934187 0.013161
v -0.000000 0.918678 0.015617
v -0.000000 0.899779 0.018611
v -0.000000 0.878218 0.022026
v -0.000000 0.854823 0.025731
v -0.000000 0.830493 0.029585
v -0.232491 0.219125 0.126416
v -0.000000 0.219125 0.126416
v 0.045357 0.952809 0.010212
v 0.088970 0.945712 0.011336
v 0.129165 0.934188 0.013161
v 0.164396 0.918678 0.015617
v 0.193309 0.899779 0.018611
v 0.214793 0.878218 0.022026
v 0.228024 0.854823 0.025731
v 0.232491 0.830493 0.029585
v 0.232491 0.219125 0.126416
v -0.045357 0.951245 0.000335
v -0.000000 0.953641 -0.000045
v -0.088970 0.944148 0.001459
v -0.129165 0.932623 0.003284
v -0.164396 0.917114 0.005740
v -0.193309 0.898215 0.008734
v -0.214794 0.876654 0.012149
v -0.228024 0.853259 0.015854
v -0.232491 0.828928 0.019708
v -0.000000 0.828928 0.019708
v -0.000000 0.944148 0.001459
v -0.000000 0.932623 0.003284
v -0.000000 0.917114 0.005740
v -0.000000 0.898215 0.008734
v -0.000000 0.876654 0.012149
v -0.000000 0.853259 0.015854
v -0.000000 0.217560 0.116539
v -0.232491 0.217560 0.116539
v 0.088970 0.944148 0.001459
v 0.045357 0.951245 0.000335
v 0.129165 0.932623 0.003284
v 0.164396 0.917114 0.005740
v 0.193309 0.898215 0.008734
v 0.214793 0.876654 0.012149
v 0.228024 0.853259 0.015854
v 0.232491 0.828928 0.019708
v 0.232491 0.217560 0.116539
v -0.249697 0.852126 -0.003700
v -0.220303 0.852126 -0.003700
v -0.249697 0.850276 -0.003204
v -0.220303 0.850276 -0.003204
v -0.249697 0.848922 -0.001850
v -0.220303 0.848922 -0.001850
v -0.249697 0.848426 -0.000000
v -0.220303 0.848426 -0.000000
v -0.249697 0.848922 0.001850
v -0.220303 0.848922 0.001850
v -0.249697 0.850276 0.003204
v -0.220303 0.850276 0.003204
v -0.249697 0.852126 0.003700
v -0.220303 0.852126 0.003700
v -0.249697 0.853976 0.003204
v -0.220303 0.853976 0.003204
v -0.249697 0.855331 0.001850
v -0.220303 0.855331 0.001850
v -0.249697 0.855826 -0.000000
v -0.220303 0.855826 -0.000000
v -0.249697 0.855331 -0.001850
v -0.220303 0.855331 -0.001850
v -0.249697 0.853976 -0.003204
v -0.220303 0.853976 -0.003204
v -0.249697 0.853976 -0.000000
v -0.249697 0.852126 -0.000000
v -0.249697 0.850276 -0.000000
v -0.220303 0.853976 -0.000000
v -0.220303 0.852126 -0.000000
v -0.220303 0.850276 -0.000000
v 0.249697 0.852126 -0.003700
v 0.220303 0.852126 -0.003700
v 0.249697 0.850276 -0.003204
v 0.220303 0.850276 -0.003204
v 0.249697 0.848922 -0.001850
v 0.220303 0.848922 -0.001850
v 0.249697 0.848426 -0.000000
v 0.220303 0.848426 -0.000000
v 0.249697 0.848922 0.001850
v 0.220303 0.848922 0.001850
v 0.249697 0.850276 0.003204
v 0.220303 0.850276 0.003204
v 0.249697 0.852126 0.003700
v 0.220303 0.852126 0.003700
v 0.249697 0.853976 0.003204
v 0.220303 0.853976 0.003204
v 0.249697 0.855331 0.001850
v 0.220303 0.855331 0.001850
v 0.249697 0.855826 -0.000000
v 0.220303 0.855826 -0.000000
v 0.249697 0.855331 -0.001850
v 0.220303 0.855331 -0.001850
v 0.249697 0.853976 -0.003204
v 0.220303 0.853976 -0.003204
v 0.249697 0.853976 -0.000000
v 0.249697 0.852126 -0.000000
v 0.249697 0.850276 -0.000000
v 0.220303 0.853976 -0.000000
v 0.220303 0.852126 -0.000000
v 0.220303 0.850276 -0.000000
v 0.250000 0.006162 -0.175041
v 0.250000 0.857124 -0.040262
v 0.220000 0.006162 -0.175041
v 0.220000 0.857124 -0.040262
v 0.250000 0.850963 -0.001359
v 0.250000 0.000000 -0.136139
v 0.220000 0.850963 -0.001359
v 0.220000 0.000000 -0.136139
v 0.220000 0.854823 -0.025731
v 0.220000 0.853259 -0.015854
v 0.220000 0.002296 -0.150633
v 0.220000 0.003860 -0.160510
v 0.232491 0.003860 -0.160510
v 0.232491 0.002296 -0.150633
v 0.232491 0.854823 -0.025731
v 0.232491 0.853259 -0.015854
v 0.246772 0.850973 -0.001422
v 0.246772 0.829550 -0.004815
v 0.223228 0.850973 -0.001422
v 0.223228 0.829550 -0.004815
v 0.246772 0.850628 0.000752
v 0.246772 0.829206 -0.002641
v 0.223228 0.829206 -0.002641
v 0.223228 0.850628 0.000752
v -0.250000 0.006162 -0.175041
v -0.250000 0.857124 -0.040262
v -0.220000 0.006162 -0.175041
v -0.220000 0.857124 -0.040262
v -0.250000 0.850963 -0.001360
v -0.250000 0.000000 -0.136139
v -0.220000 0.850963 -0.001360
v -0.220000 0.000000 -0.136139
v -0.220000 0.854823 -0.025731
v -0.220000 0.853259 -0.015854
v -0.220000 0.002296 -0.150633
v -0.220000 0.003860 -0.160510
v -0.232491 0.003860 -0.160510
v -0.232491 0.002296 -0.150633
v -0.232491 0.854823 -0.025731
v -0.232491 0.853259 -0.015854
v -0.246772 0.850973 -0.001422
v -0.246772 0.829550 -0.004815
v -0.223228 0.850973 -0.001422
v -0.223228 0.829550 -0.004815
v -0.246772 0.850628 0.000752
v -0.246772 0.829206 -0.002641
v -0.223228 0.829206 -0.002641
v -0.223228 0.850628 0.000752
v -0.000000 0.955205 -0.009832
v 0.045357 0.952809 -0.010212
v 0.088970 0.945712 -0.011336
v 0.129165 0.934188 -0.013161
v 0.164396 0.918678 -0.015617
v 0.193309 0.899779 -0.018611
v 0.214793 0.878218 -0.022026
v 0.228024 0.854823 -0.025731
v 0.232491 0.830493 -0.029584
v -0.000000 0.945712 -0.011336
v -0.000000 0.934187 -0.013161
v -0.000000 0.918678 -0.015617
v -0.000000 0.899779 -0.018611
v -0.000000 0.878218 -0.022026
v -0.000000 0.854823 -0.025731
v -0.000000 0.830493 -0.029585
v 0.232491 0.219125 -0.126416
v 0.000000 0.219125 -0.126416
v -0.045357 0.952809 -0.010212
v -0.088970 0.945712 -0.011336
v -0.129165 0.934188 -0.013161
v -0.164396 0.918678 -0.015617
v -0.193309 0.899779 -0.018611
v -0.214793 0.878218 -0.022026
v -0.228024 0.854823 -0.025731
v -0.232491 0.830493 -0.029585
v -0.232491 0.219125 -0.126416
v 0.045357 0.951245 -0.000335
v -0.000000 0.953641 0.000045
v 0.088970 0.944148 -0.001459
v 0.129165 0.932623 -0.003284
v 0.164396 0.917114 -0.005740
v 0.193309 0.898215 -0.008734
v 0.214793 0.876654 -0.012149
v 0.228024 0.853259 -0.015854
v 0.232491 0.828928 -0.019708
v -0.000000 0.828928 -0.019708
v -0.000000 0.944148 -0.001459
v -0.000000 0.932623 -0.003284
v -0.000000 0.917114 -0.005740
v -0.000000 0.898215 -0.008734
v -0.000000 0.876654 -0.012149
v -0.000000 0.853259 -0.015854
v 0.000000 0.217560 -0.116539
v 0.232491 0.217560 -0.116539
v -0.088970 0.944148 -0.001459
v -0.045357 0.951245 -0.000335
v -0.129165 0.932623 -0.003284
v -0.164396 0.917114 -0.005741
v -0.193309 0.898215 -0.008734
v -0.214793 0.876654 -0.012149
v -0.228024 0.853259 -0.015854
v -0.232491 0.828928 -0.019708
v -0.232491 0.217560 -0.116539
v 0.254919 0.714044 -0.051903
v 0.253872 0.713488 -0.052459
v 0.252825 0.713320 -0.052627
v 0.255281 0.715655 -0.052459
v 0.254053 0.715377 -0.053581
v 0.252825 0.715293 -0.053901
v 0.255390 0.717266 -0.052627
v 0.254108 0.717266 -0.053901
v 0.252825 0.717266 -0.054262
v 0.255281 0.718877 -0.052459
v 0.254053 0.719155 -0.053581
v 0.252825 0.719239 -0.053901
v 0.252825 0.713320 -0.044736
v 0.253872 0.713488 -0.044904
v 0.252825 0.715293 -0.043462
v 0.254053 0.715377 -0.043783
v 0.252825 0.717266 -0.043102
v 0.254108 0.717266 -0.043462
v 0.252825 0.719239 -0.043462
v 0.254053 0.719155 -0.043783
v 0.254919 0.714044 -0.045460
v 0.255281 0.713488 -0.047071
v 0.255390 0.713320 -0.048682
v 0.255281 0.713488 -0.050293
v 0.255281 0.715655 -0.044904
v 0.256010 0.715377 -0.046793
v 0.256218 0.715293 -0.048682
v 0.256010 0.715377 -0.050571
v 0.255390 0.717266 -0.044736
v 0.256218 0.717266 -0.046709
v 0.256452 0.717266 -0.048682
v 0.256218 0.717266 -0.050655
v 0.255281 0.718877 -0.044904
v 0.256010 0.719155 -0.046793
v 0.256218 0.719239 -0.048682
v 0.256010 0.719155 -0.050571
v 0.254053 0.712367 -0.046793
v 0.252825 0.712046 -0.046709
v 0.254108 0.712046 -0.048682
v 0.252825 0.711686 -0.048682
v 0.254053 0.712367 -0.050571
v 0.252825 0.712046 -0.050655
v 0.254919 0.720488 -0.051903
v 0.253872 0.721044 -0.052459
v 0.252825 0.721212 -0.052627
v 0.255281 0.721044 -0.050293
v 0.254053 0.722165 -0.050571
v 0.252825 0.722486 -0.050655
v 0.255390 0.721212 -0.048682
v 0.254108 0.722486 -0.048682
v 0.252825 0.722846 -0.048682
v 0.255281 0.721044 -0.047071
v 0.254053 0.722165 -0.046793
v 0.252825 0.722486 -0.046709
v 0.254919 0.720488 -0.045460
v 0.253872 0.721044 -0.044904
v 0.252825 0.721212 -0.044736
v 0.250000 0.725491 -0.009657
v 0.250000 0.709464 -0.009657
v 0.250000 0.725491 0.052437
v 0.250000 0.722710 0.055075
v 0.250000 0.709464 0.052437
v 0.250000 0.717477 0.056418
v 0.250000 0.712244 0.055075
v 0.252825 0.709464 -0.009657
v 0.252825 0.725491 -0.009657
v 0.252825 0.725491 0.052437
v 0.252825 0.722710 0.055075
v 0.252825 0.717477 0.056418
v 0.252825 0.712244 0.055075
v 0.252825 0.709464 0.052437
v 0.250000 0.717477 -0.009657
v 0.250000 0.717477 0.052437
v 0.252825 0.717477 -0.009657
v 0.252825 0.717477 0.052437
v 0.252639 0.709464 0.012348
v 0.252639 0.725491 0.012348
v 0.250000 0.709464 -0.053680
v 0.250000 0.712244 -0.056318
v 0.250000 0.725491 -0.053680
v 0.250000 0.717477 -0.057662
v 0.250000 0.722710 -0.056318
v 0.255465 0.725491 0.012348
v 0.255465 0.709464 0.012348
v 0.252825 0.709464 -0.053680
v 0.252825 0.712244 -0.056318
v 0.252825 0.717477 -0.057662
v 0.252825 0.722710 -0.056318
v 0.252825 0.725491 -0.053680
v 0.252639 0.709464 -0.016229
v 0.250000 0.709464 -0.031357
v 0.250000 0.725491 -0.031357
v 0.252639 0.725491 -0.016229
v 0.255465 0.709464 -0.016229
v 0.252825 0.709464 -0.031357
v 0.252825 0.725491 -0.031357
v 0.255465 0.725491 -0.016229
v 0.252639 0.722451 0.014638
v 0.252639 0.717477 0.015559
v 0.252639 0.712504 0.014638
v 0.255465 0.722451 0.014638
v 0.255465 0.717477 0.015559
v 0.255465 0.712504 0.014638
v 0.252825 0.717477 -0.053680
v 0.255465 0.717477 -0.016229
v 0.252825 0.717477 -0.031357
v 0.250000 0.717477 -0.053680
v 0.252639 0.717477 -0.016229
v 0.250000 0.717477 -0.031357
v 0.255465 0.717477 0.012348
v 0.252639 0.717477 0.012348
v 0.254919 0.714044 0.043121
v 0.253872 0.713488 0.042564
v 0.252825 0.713320 0.042396
v 0.255281 0.715655 0.042564
v 0.254053 0.715377 0.041443
v 0.252825 0.715293 0.041123
v 0.255390 0.717266 0.042396
v 0.254108 0.717266 0.041123
v 0.252825 0.717266 0.040762
v 0.255281 0.718877 0.042564
v 0.254053 0.719155 0.041443
v 0.252825 0.719239 0.041123
v 0.252825 0.713320 0.050288
v 0.253872 0.713488 0.050120
v 0.252825 0.715293 0.051562
v 0.254053 0.715377 0.051241
v 0.252825 0.717266 0.051922
v 0.254108 0.717266 0.051562
v 0.252825 0.719239 0.051562
v 0.254053 0.719155 0.051241
v 0.254919 0.714044 0.049564
v 0.255281 0.713488 0.047953
v 0.255390 0.713320 0.046342
v 0.255281 0.713488 0.044731
v 0.255281 0.715655 0.050120
v 0.256010 0.715377 0.048231
v 0.256218 0.715293 0.046342
v 0.256010 0.715377 0.044453
v 0.255390 0.717266 0.050288
v 0.256218 0.717266 0.048315
v 0.256452 0.717266 0.046342
v 0.256218 0.717266 0.044369
v 0.255281 0.718877 0.050120
v 0.256010 0.719155 0.048231
v 0.256218 0.719239 0.046342
v 0.256010 0.719155 0.044453
v 0.254053 0.712367 0.048231
v 0.252825 0.712047 0.048315
v 0.254108 0.712047 0.046342
v 0.252825 0.711686 0.046342
v 0.254053 0.712367 0.044453
v 0.252825 0.712047 0.044369
v 0.254919 0.720488 0.043121
v 0.253872 0.721044 0.042564
v 0.252825 0.721212 0.042396
v 0.255281 0.721044 0.044731
v 0.254053 0.722165 0.044453
v 0.252825 0.722486 0.044369
v 0.255390 0.721212 0.046342
v 0.254108 0.722486 0.046342
v 0.252825 0.722846 0.046342
v 0.255281 0.721044 0.047953
v 0.254053 0.722165 0.048231
v 0.252825 0.722486 0.048315
v 0.254919 0.720488 0.049564
v 0.253872 0.721044 0.050120
v 0.252825 0.721212 0.050288
v 0.257559 0.714044 -0.003222
v 0.256512 0.713488 -0.003778
v 0.255465 0.713320 -0.003946
v 0.257920 0.715655 -0.003778
v 0.256692 0.715377 -0.004899
v 0.255465 0.715293 -0.005220
v 0.258029 0.717266 -0.003946
v 0.256747 0.717266 -0.005220
v 0.255465 0.717266 -0.005580
v 0.257920 0.718877 -0.003778
v 0.256692 0.719155 -0.004899
v 0.255465 0.719239 -0.005220
v 0.255465 0.713320 0.003946
v 0.256512 0.713488 0.003778
v 0.255465 0.715293 0.005220
v 0.256692 0.715377 0.004899
v 0.255465 0.717266 0.005580
v 0.256747 0.717266 0.005220
v 0.255465 0.719239 0.005220
v 0.256692 0.719155 0.004899
v 0.257559 0.714044 0.003222
v 0.257920 0.713488 0.001611
v 0.258029 0.713320 -0.000000
v 0.257920 0.713488 -0.001611
v 0.257920 0.715655 0.003778
v 0.258649 0.715377 0.001889
v 0.258857 0.715293 -0.000000
v 0.258649 0.715377 -0.001889
v 0.258029 0.717266 0.003946
v 0.258857 0.717266 0.001973
v 0.259091 0.717266 -0.000000
v 0.258857 0.717266 -0.001973
v 0.257920 0.718877 0.003778
v 0.258649 0.719155 0.001889
v 0.258857 0.719239 -0.000000
v 0.258649 0.719155 -0.001889
v 0.256692 0.712367 0.001889
v 0.255465 0.712047 0.001973
v 0.256747 0.712047 -0.000000
v 0.255465 0.711686 -0.000000
v 0.256692 0.712367 -0.001889
v 0.255465 0.712047 -0.001973
v 0.257559 0.720488 -0.003222
v 0.256512 0.721044 -0.003778
v 0.255465 0.721212 -0.003946
v 0.257920 0.721044 -0.001611
v 0.256692 0.722165 -0.001889
v 0.255465 0.722486 -0.001973
v 0.258029 0.721212 -0.000000
v 0.256747 0.722486 -0.000000
v 0.255465 0.722846 -0.000000
v 0.257920 0.721044 0.001611
v 0.256692 0.722165 0.001889
v 0.255465 0.722486 0.001973
v 0.257559 0.720488 0.003222
v 0.256512 0.721044 0.003778
v 0.255465 0.721212 0.003946
v -0.254919 0.714044 -0.051903
v -0.253872 0.713488 -0.052459
v -0.252825 0.713320 -0.052627
v -0.255281 0.715655 -0.052459
v -0.254053 0.715377 -0.053581
v -0.252825 0.715293 -0.053901
v -0.255390 0.717266 -0.052627
v -0.254108 0.717266 -0.053901
v -0.252825 0.717266 -0.054262
v -0.255281 0.718877 -0.052459
v -0.254053 0.719155 -0.053581
v -0.252825 0.719239 -0.053901
v -0.252825 0.713320 -0.044736
v -0.253872 0.713488 -0.044904
v -0.252825 0.715293 -0.043462
v -0.254053 0.715377 -0.043783
v -0.252825 0.717266 -0.043102
v -0.254108 0.717266 -0.043462
v -0.252825 0.719239 -0.043462
v -0.254053 0.719155 -0.043783
v -0.254919 0.714044 -0.045460
v -0.255281 0.713488 -0.047071
v -0.255390 0.713320 -0.048682
v -0.255281 0.713488 -0.050293
v -0.255281 0.715655 -0.044904
v -0.256010 0.715377 -0.046793
v -0.256218 0.715293 -0.048682
v -0.256010 0.715377 -0.050571
v -0.255390 0.717266 -0.044736
v -0.256218 0.717266 -0.046709
v -0.256452 0.717266 -0.048682
v -0.256218 0.717266 -0.050655
v -0.255281 0.718877 -0.044904
v -0.256010 0.719155 -0.046793
v -0.256218 0.719239 -0.048682
v -0.256010 0.719155 -0.050571
v -0.254053 0.712367 -0.046793
v -0.252825 0.712046 -0.046709
v -0.254108 0.712046 -0.048682
v -0.252825 0.711686 -0.048682
v -0.254053 0.712367 -0.050571
v -0.252825 0.712046 -0.050655
v -0.254919 0.720488 -0.051903
v -0.253872 0.721044 -0.052459
v -0.252825 0.721212 -0.052627
v -0.255281 0.721044 -0.050293
v -0.254053 0.722165 -0.050571
v -0.252825 0.722486 -0.050655
v -0.255390 0.721212 -0.048682
v -0.254108 0.722486 -0.048682
v -0.252825 0.722846 -0.048682
v -0.255281 0.721044 -0.047071
v -0.254053 0.722165 -0.046793
v -0.252825 0.722486 -0.046709
v -0.254919 0.720488 -0.045460
v -0.253872 0.721044 -0.044904
v -0.252825 0.721212 -0.044736
v -0.250000 0.725491 -0.009657
v -0.250000 0.709464 -0.009657
v -0.250000 0.725491 0.052437
v -0.250000 0.722710 0.055075
v -0.250000 0.709464 0.052437
v -0.250000 0.717477 0.056418
v -0.250000 0.712244 0.055075
v -0.252825 0.709464 -0.009657
v -0.252825 0.725491 -0.009657
v -0.252825 0.725491 0.052437
v -0.252825 0.722710 0.055075
v -0.252825 0.717477 0.056418
v -0.252825 0.712244 0.055075
v -0.252825 0.709464 0.052437
v -0.250000 0.717477 -0.009657
v -0.250000 0.717477 0.052437
v -0.252825 0.717477 -0.009657
v -0.252825 0.717477 0.052437
v -0.252639 0.709464 0.012348
v -0.252639 0.725491 0.012348
v -0.250000 0.709464 -0.053680
v -0.250000 0.712244 -0.056318
v -0.250000 0.725491 -0.053680
v -0.250000 0.717477 -0.057662
v -0.250000 0.722710 -0.056318
v -0.255465 0.725491 0.012348
v -0.255465 0.709464 0.012348
v -0.252825 0.709464 -0.053680
v -0.252825 0.712244 -0.056318
v -0.252825 0.717477 -0.057662
v -0.252825 0.722710 -0.056318
v -0.252825 0.725491 -0.053680
v -0.252639 0.709464 -0.016229
v -0.250000 0.709464 -0.031357
v -0.250000 0.725491 -0.031357
v -0.252639 0.725491 -0.016229
v -0.255465 0.709464 -0.016229
v -0.252825 0.709464 -0.031357
v -0.252825 0.725491 -0.031357
v -0.255465 0.725491 -0.016229
v -0.252639 0.722451 0.014638
v -0.252639 0.717477 0.015559
v -0.252639 0.712504 0.014638
v -0.255465 0.722451 0.014638
v -0.255465 0.717477 0.015559
v -0.255465 0.712504 0.014638
v -0.252825 0.717477 -0.053680
v -0.255465 0.717477 -0.016229
v -0.252825 0.717477 -0.031357
v -0.250000 0.717477 -0.053680
v -0.252639 0.717477 -0.016229
v -0.250000 0.717477 -0.031357
v -0.255465 0.717477 0.012348
v -0.252639 0.717477 0.012348
v -0.254919 0.714044 0.043121
v -0.253872 0.713488 0.042564
v -0.252825 0.713320 0.042396
v -0.255281 0.715655 0.042564
v -0.254053 0.715377 0.041443
v -0.252825 0.715293 0.041123
v -0.255390 0.717266 0.042396
v -0.254108 0.717266 0.041123
v -0.252825 0.717266 0.040762
v -0.255281 0.718877 0.042564
v -0.254053 0.719155 0.041443
v -0.252825 0.719239 0.041123
v -0.252825 0.713320 0.050288
v -0.253872 0.713488 0.050120
v -0.252825 0.715293 0.051562
v -0.254053 0.715377 0.051241
v -0.252825 0.717266 0.051922
v -0.254108 0.717266 0.051562
v -0.252825 0.719239 0.051562
v -0.254053 0.719155 0.051241
v -0.254919 0.714044 0.049564
v -0.255281 0.713488 0.047953
v -0.255390 0.713320 0.046342
v -0.255281 0.713488 0.044731
v -0.255281 0.715655 0.050120
v -0.256010 0.715377 0.048231
v -0.256218 0.715293 0.046342
v -0.256010 0.715377 0.044453
v -0.255390 0.717266 0.050288
v -0.256218 0.717266 0.048315
v -0.256452 0.717266 0.046342
v -0.256218 0.717266 0.044369
v -0.255281 0.718877 0.050120
v -0.256010 0.719155 0.048231
v -0.256218 0.719239 0.046342
v -0.256010 0.719155 0.044453
v -0.254053 0.712367 0.048231
v -0.252825 0.712047 0.048315
v -0.254108 0.712047 0.046342
v -0.252825 0.711686 0.046342
v -0.254053 0.712367 0.044453
v -0.252825 0.712047 0.044369
v -0.254919 0.720488 0.043121
v -0.253872 0.721044 0.042564
v -0.252825 0.721212 0.042396
v -0.255281 0.721044 0.044731
v -0.254053 0.722165 0.044453
v -0.252825 0.722486 0.044369
v -0.255390 0.721212 0.046342
v -0.254108 0.722486 0.046342
v -0.252825 0.722846 0.046342
v -0.255281 0.721044 0.047953
v -0.254053 0.722165 0.048231
v -0.252825 0.722486 0.048315
v -0.254919 0.720488 0.049564
v -0.253872 0.721044 0.050120
v -0.252825 0.721212 0.050288
v -0.257559 0.714044 -0.003222
v -0.256512 0.713488 -0.003778
v -0.255465 0.713320 -0.003946
v -0.257920 0.715655 -0.003778
v -0.256692 0.715377 -0.004899
v -0.255465 0.715293 -0.005220
v -0.258029 0.717266 -0.003946
v -0.256747 0.717266 -0.005220
v -0.255465 0.717266 -0.005580
v -0.257920 0.718877 -0.003778
v -0.256692 0.719155 -0.004899
v -0.255465 0.719239 -0.005220
v -0.255465 0.713320 0.003946
v -0.256512 0.713488 0.003778
v -0.255465 0.715293 0.005220
v -0.256692 0.715377 0.004899
v -0.255465 0.717266 0.005580
v -0.256747 0.717266 0.005220
v -0.255465 0.719239 0.005220
v -0.256692 0.719155 0.004899
v -0.257559 0.714044 0.003222
v -0.257920 0.713488 0.001611
v -0.258029 0.713320 -0.000000
v -0.257920 0.713488 -0.001611
v -0.257920 0.715655 0.003778
v -0.258649 0.715377 0.001889
v -0.258857 0.715293 -0.000000
v -0.258649 0.715377 -0.001889
v -0.258029 0.717266 0.003946
v -0.258857 0.717266 0.001973
v -0.259091 0.717266 -0.000000
v -0.258857 0.717266 -0.001973
v -0.257920 0.718877 0.003778
v -0.258649 0.719155 0.001889
v -0.258857 0.719239 -0.000000
v -0.258649 0.719155 -0.001889
v -0.256692 0.712367 0.001889
v -0.255465 0.712047 0.001973
v -0.256747 0.712047 -0.000000
v -0.255465 0.711686 -0.000000
v -0.256692 0.712367 -0.001889
v -0.255465 0.712047 -0.001973
v -0.257559 0.720488 -0.003222
v -0.256512 0.721044 -0.003778
v -0.255465 0.721212 -0.003946
v -0.257920 0.721044 -0.001611
v -0.256692 0.722165 -0.001889
v -0.255465 0.722486 -0.001973
v -0.258029 0.721212 -0.000000
v -0.256747 0.722486 -0.000000
v -0.255465 0.722846 -0.000000
v -0.257920 0.721044 0.001611
v -0.256692 0.722165 0.001889
v -0.255465 0.722486 0.001973
v -0.257559 0.720488 0.003222
v -0.256512 0.721044 0.003778
v -0.255465 0.721212 0.003946
vn -0.0000 0.1564 0.9877
vn -0.0000 -0.1564 -0.9877
vn 1.0000 -0.0000 -0.0000
vn -0.0000 -0.9877 0.1564
vn -1.0000 -0.0000 -0.0000
vn -0.0000 0.9877 -0.1564
vn -0.0000 -0.9877 0.1565
vn -0.1081 0.9819 -0.1555
vn -0.2211 0.9633 -0.1526
vn 0.9960 0.0885 -0.0140
vn 0.9413 0.3335 -0.0528
vn -0.9960 0.0885 -0.0140
vn -0.3438 0.9275 -0.1469
vn 0.2211 0.9633 -0.1526
vn 0.1081 0.9819 -0.1555
vn -0.4811 0.8659 -0.1371
vn 0.3438 0.9275 -0.1469
vn -0.6358 0.7624 -0.1207
vn 0.4811 0.8659 -0.1371
vn -0.8001 0.5925 -0.0938
vn 0.6358 0.7624 -0.1208
vn -0.9413 0.3335 -0.0528
vn 0.8001 0.5925 -0.0938
vn -0.0000 -0.0000 -1.0000
vn -0.0000 -0.5000 -0.8660
vn -0.0000 -0.8660 -0.5000
vn -0.0000 -1.0000 -0.0000
vn -0.0000 -0.8660 0.5000
vn -0.0000 -0.5000 0.8660
vn -0.0000 -0.0000 1.0000
vn -0.0000 0.5000 0.8660
vn -0.0000 0.8660 0.5000
vn -0.0000 1.0000 -0.0000
vn -0.0000 0.8660 -0.5000
vn -0.0000 0.5000 -0.8660
vn -0.0000 0.1564 -0.9877
vn -0.0000 -0.1564 0.9877
vn -0.0000 -0.9877 -0.1564
vn -0.0000 0.9877 0.1564
vn -0.0000 -0.9877 -0.1565
vn 0.1081 0.9819 0.1555
vn 0.2211 0.9633 0.1526
vn -0.9960 0.0885 0.0140
vn -0.9413 0.3335 0.0528
vn 0.9960 0.0885 0.0140
vn 0.3437 0.9275 0.1469
vn -0.2211 0.9633 0.1526
vn -0.1081 0.9819 0.1555
vn 0.4811 0.8659 0.1371
vn -0.3438 0.9275 0.1469
vn 0.6358 0.7624 0.1208
vn -0.4811 0.8659 0.1371
vn 0.8001 0.5925 0.0938
vn -0.6358 0.7624 0.1208
vn 0.9413 0.3335 0.0528
vn -0.8001 0.5925 0.0938
vn 0.7317 -0.4820 -0.4820
vn 0.4302 -0.6383 -0.6383
vn 0.4675 -0.3207 -0.8238
vn 0.8007 -0.2433 -0.5474
vn 0.2395 -0.6865 -0.6865
vn 0.2534 -0.3483 -0.9025
vn 0.4905 -0.0000 -0.8714
vn 0.8251 -0.0000 -0.5650
vn 0.2672 -0.0000 -0.9636
vn 0.4675 0.3207 -0.8238
vn 0.8007 0.2433 -0.5474
vn 0.2534 0.3483 -0.9025
vn 0.4302 0.6383 -0.6383
vn 0.7317 0.4820 -0.4820
vn 0.2395 0.6865 -0.6865
vn 0.2395 -0.6865 0.6865
vn 0.4302 -0.6383 0.6383
vn 0.4675 -0.3207 0.8238
vn 0.2534 -0.3483 0.9025
vn 0.7317 -0.4820 0.4820
vn 0.8007 -0.2433 0.5474
vn 0.4905 -0.0000 0.8714
vn 0.2672 -0.0000 0.9636
vn 0.8251 -0.0000 0.5650
vn 0.4675 0.3207 0.8238
vn 0.2534 0.3483 0.9025
vn 0.8007 0.2433 0.5474
vn 0.4302 0.6383 0.6383
vn 0.2395 0.6865 0.6865
vn 0.7317 0.4820 0.4820
vn 0.8007 -0.5474 0.2433
vn 0.9384 -0.2444 0.2444
vn 0.8251 -0.5650 -0.0000
vn 0.9677 -0.2522 -0.0000
vn 0.8007 -0.5474 -0.2433
vn 0.9384 -0.2444 -0.2444
vn 0.9677 -0.0000 0.2522
vn 0.9677 -0.0000 -0.2522
vn 0.9384 0.2444 0.2444
vn 0.9677 0.2522 -0.0000
vn 0.9384 0.2444 -0.2444
vn 0.8007 0.5474 0.2433
vn 0.8251 0.5650 -0.0000
vn 0.8007 0.5474 -0.2433
vn 0.4675 -0.8238 0.3207
vn 0.2534 -0.9025 0.3483
vn 0.4905 -0.8714 -0.0000
vn 0.2672 -0.9636 -0.0000
vn 0.4675 -0.8238 -0.3207
vn 0.2534 -0.9025 -0.3483
vn 0.4675 0.8238 -0.3207
vn 0.2534 0.9025 -0.3483
vn 0.4905 0.8714 -0.0000
vn 0.2672 0.9636 -0.0000
vn 0.4675 0.8238 0.3207
vn 0.2534 0.9025 0.3483
vn -0.0000 0.4840 0.8751
vn -0.0000 -0.4840 0.8751
vn -0.0000 -0.6883 0.7254
vn -0.0000 0.6883 0.7254
vn -0.0000 -0.4840 -0.8751
vn -0.0000 0.4840 -0.8751
vn -0.0000 0.6883 -0.7254
vn -0.0000 -0.6883 -0.7254
vn -0.0000 -0.4026 0.9154
vn -0.0000 -0.6017 0.7987
vn 0.9851 -0.0000 -0.1719
vn -0.9851 -0.0000 0.1719
vn -0.0000 0.6017 0.7987
vn -0.0000 0.4026 0.9154
vn 0.2672 -0.9637 -0.0000
vn 0.2533 -0.9025 -0.3483
vn -0.7317 -0.4820 -0.4820
vn -0.8007 -0.2433 -0.5474
vn -0.4675 -0.3207 -0.8238
vn -0.4302 -0.6383 -0.6383
vn -0.2534 -0.3483 -0.9025
vn -0.2395 -0.6865 -0.6865
vn -0.8251 -0.0000 -0.5650
vn -0.4905 -0.0000 -0.8714
vn -0.2672 -0.0000 -0.9636
vn -0.8007 0.2433 -0.5474
vn -0.4675 0.3207 -0.8238
vn -0.2534 0.3483 -0.9025
vn -0.7317 0.4820 -0.4820
vn -0.4302 0.6383 -0.6383
vn -0.2395 0.6865 -0.6865
vn -0.2395 -0.6865 0.6865
vn -0.2534 -0.3483 0.9025
vn -0.4675 -0.3207 0.8238
vn -0.4302 -0.6383 0.6383
vn -0.8007 -0.2433 0.5474
vn -0.7317 -0.4820 0.4820
vn -0.2672 -0.0000 0.9636
vn -0.4905 -0.0000 0.8714
vn -0.8251 -0.0000 0.5650
vn -0.2534 0.3483 0.9025
vn -0.4675 0.3207 0.8238
vn -0.8007 0.2433 0.5474
vn -0.2395 0.6865 0.6865
vn -0.4302 0.6383 0.6383
vn -0.7317 0.4820 0.4820
vn -0.9384 -0.2444 0.2444
vn -0.8007 -0.5474 0.2433
vn -0.9677 -0.2522 -0.0000
vn -0.8251 -0.5650 -0.0000
vn -0.9384 -0.2444 -0.2444
vn -0.8007 -0.5474 -0.2433
vn -0.9677 -0.0000 0.2522
vn -0.9677 -0.0000 -0.2522
vn -0.9384 0.2444 0.2444
vn -0.9677 0.2522 -0.0000
vn -0.9384 0.2444 -0.2444
vn -0.8007 0.5474 0.2433
vn -0.8251 0.5650 -0.0000
vn -0.8007 0.5474 -0.2433
vn -0.4675 -0.8238 0.3207
vn -0.2534 -0.9025 0.3483
vn -0.4905 -0.8714 -0.0000
vn -0.2672 -0.9636 -0.0000
vn -0.4675 -0.8238 -0.3207
vn -0.2534 -0.9025 -0.3483
vn -0.4675 0.8238 -0.3207
vn -0.2534 0.9025 -0.3483
vn -0.4905 0.8714 -0.0000
vn -0.2672 0.9636 -0.0000
vn -0.4675 0.8238 0.3207
vn -0.2534 0.9025 0.3483
vn -0.9851 -0.0000 -0.1719
vn 0.9851 -0.0000 0.1719
vn -0.2672 -0.9637 -0.0000
vt 0.951923 0.555442
vt 0.932754 0.555442
vt 0.932753 0.004943
vt 0.951922 0.004944
vt 0.977088 0.555442
vt 0.977089 0.004943
vt 0.996257 0.004943
vt 0.996257 0.555442
vt 0.915472 0.005588
vt 0.924848 0.005588
vt 0.924847 0.556043
vt 0.915472 0.556043
vt 0.640326 0.701309
vt 0.651517 0.710689
vt 0.632342 0.710689
vt 0.632342 0.701309
vt 0.651517 0.685514
vt 0.640326 0.694917
vt 0.632342 0.694917
vt 0.632342 0.685514
vt 0.907489 0.556043
vt 0.907491 0.005588
vt 0.670838 0.694905
vt 0.670838 0.701292
vt 0.659655 0.710665
vt 0.659655 0.685509
vt 0.883720 0.005588
vt 0.893119 0.005588
vt 0.893119 0.556043
vt 0.883723 0.556043
vt 0.901100 0.556043
vt 0.901102 0.005588
vt 0.678815 0.685509
vt 0.678815 0.694905
vt 0.678815 0.701292
vt 0.678815 0.710665
vt 0.615457 0.811988
vt 0.615457 0.825841
vt 0.600418 0.825841
vt 0.600418 0.811988
vt 0.600418 0.810582
vt 0.615457 0.810582
vt 0.616863 0.811988
vt 0.616863 0.825841
vt 0.599012 0.825841
vt 0.599012 0.811988
vt 0.863024 0.904966
vt 0.312525 0.904966
vt 0.312525 0.885797
vt 0.863024 0.885797
vt 0.597311 0.004582
vt 0.597312 0.555079
vt 0.587935 0.555079
vt 0.587935 0.004582
vt 0.670836 0.734649
vt 0.678817 0.734649
vt 0.678817 0.744026
vt 0.659649 0.744026
vt 0.643525 0.734633
vt 0.632336 0.744035
vt 0.632336 0.718863
vt 0.643525 0.728242
vt 0.863024 0.930133
vt 0.863024 0.949301
vt 0.312525 0.949300
vt 0.312525 0.930131
vt 0.659649 0.718860
vt 0.678817 0.718860
vt 0.678817 0.728260
vt 0.670836 0.728260
vt 0.611682 0.555079
vt 0.611684 0.004582
vt 0.619665 0.004581
vt 0.619666 0.555079
vt 0.651508 0.728242
vt 0.651508 0.718863
vt 0.605293 0.555079
vt 0.605295 0.004582
vt 0.629063 0.004581
vt 0.629066 0.555080
vt 0.651508 0.744035
vt 0.651508 0.734633
vt 0.713223 0.816829
vt 0.713223 0.818235
vt 0.699365 0.818235
vt 0.699365 0.816829
vt 0.714629 0.833279
vt 0.713223 0.833279
vt 0.714629 0.818235
vt 0.699365 0.833279
vt 0.699365 0.834685
vt 0.713223 0.834685
vt 0.123729 0.961096
vt 0.095863 0.956505
vt 0.152710 0.956505
vt 0.152710 0.962646
vt 0.152710 0.897708
vt 0.007016 0.897708
vt 0.004162 0.881969
vt 0.152710 0.881969
vt 0.152710 0.912843
vt 0.015469 0.912843
vt 0.152710 0.926791
vt 0.029197 0.926790
vt 0.152710 0.939016
vt 0.047671 0.939016
vt 0.152710 0.949049
vt 0.070181 0.949049
vt 0.004162 0.486471
vt 0.152710 0.486472
vt 0.181690 0.961096
vt 0.209557 0.956505
vt 0.301258 0.881969
vt 0.298404 0.897708
vt 0.289950 0.912843
vt 0.276223 0.926791
vt 0.257749 0.939016
vt 0.235239 0.949050
vt 0.301258 0.486471
vt 0.471925 0.874403
vt 0.445724 0.875805
vt 0.445724 0.870253
vt 0.497119 0.870253
vt 0.445724 0.817094
vt 0.445724 0.802864
vt 0.580027 0.802864
vt 0.577446 0.817094
vt 0.445724 0.830777
vt 0.569803 0.830778
vt 0.445724 0.843388
vt 0.557393 0.843388
vt 0.445724 0.854441
vt 0.540690 0.854441
vt 0.445724 0.863512
vt 0.520339 0.863512
vt 0.445724 0.445294
vt 0.580027 0.445294
vt 0.419523 0.874403
vt 0.394329 0.870253
vt 0.314002 0.817094
vt 0.311421 0.802864
vt 0.321644 0.830777
vt 0.334055 0.843388
vt 0.350758 0.854441
vt 0.371109 0.863512
vt 0.311421 0.445294
vt 0.803101 0.615957
vt 0.803101 0.609571
vt 0.831328 0.609572
vt 0.831328 0.615957
vt 0.590488 0.615957
vt 0.590488 0.609571
vt 0.606476 0.609572
vt 0.606476 0.615957
vt 0.589480 0.599401
vt 0.589480 0.593008
vt 0.985176 0.593010
vt 0.985176 0.599401
vt 0.858056 0.609571
vt 0.858056 0.615957
vt 0.588200 0.569719
vt 0.588200 0.563326
vt 0.983899 0.563327
vt 0.983899 0.569719
vt 0.716862 0.615957
vt 0.716862 0.609571
vt 0.745089 0.609571
vt 0.745089 0.615957
vt 0.882688 0.609571
vt 0.882688 0.615957
vt 0.774095 0.609571
vt 0.774095 0.615957
vt 0.690134 0.615957
vt 0.690134 0.609571
vt 0.743076 0.654181
vt 0.743076 0.660567
vt 0.594607 0.660567
vt 0.594607 0.654181
vt 0.904829 0.609571
vt 0.904829 0.615957
vt 0.665502 0.615957
vt 0.665502 0.609571
vt 0.924389 0.609571
vt 0.924389 0.615957
vt 0.643361 0.615957
vt 0.643361 0.609571
vt 0.941715 0.609571
vt 0.941715 0.615957
vt 0.623802 0.615957
vt 0.623802 0.609571
vt 0.957703 0.609571
vt 0.957703 0.615957
vt 0.891545 0.654181
vt 0.891545 0.660567
vt 0.672442 0.811175
vt 0.691230 0.811175
vt 0.691230 0.812399
vt 0.672442 0.812399
vt 0.691230 0.813623
vt 0.672442 0.813624
vt 0.691230 0.814848
vt 0.672442 0.814848
vt 0.672442 0.800157
vt 0.691230 0.800157
vt 0.691230 0.801381
vt 0.672442 0.801381
vt 0.691230 0.802605
vt 0.672442 0.802605
vt 0.691230 0.803829
vt 0.672442 0.803829
vt 0.691230 0.805054
vt 0.672442 0.805054
vt 0.691230 0.806278
vt 0.672442 0.806278
vt 0.691230 0.807502
vt 0.672442 0.807502
vt 0.691230 0.808726
vt 0.672442 0.808726
vt 0.758410 0.838994
vt 0.758410 0.837811
vt 0.759592 0.838128
vt 0.760458 0.838994
vt 0.672442 0.809951
vt 0.691230 0.809951
vt 0.673695 0.773489
vt 0.672513 0.773489
vt 0.672830 0.772307
vt 0.673695 0.771441
vt 0.676060 0.773489
vt 0.674877 0.773489
vt 0.674878 0.771124
vt 0.676060 0.771441
vt 0.677242 0.773489
vt 0.676925 0.772307
vt 0.674877 0.775853
vt 0.673695 0.775536
vt 0.676060 0.775536
vt 0.676925 0.774671
vt 0.672830 0.774671
vt 0.758410 0.841358
vt 0.758410 0.840176
vt 0.760774 0.840176
vt 0.760458 0.841358
vt 0.758410 0.842541
vt 0.759592 0.842224
vt 0.756362 0.841358
vt 0.756045 0.840176
vt 0.756362 0.838994
vt 0.757228 0.838128
vt 0.757227 0.842224
vt 0.732195 0.804912
vt 0.732195 0.806136
vt 0.713415 0.806136
vt 0.713415 0.804912
vt 0.732195 0.807360
vt 0.713415 0.807360
vt 0.732195 0.808583
vt 0.713415 0.808583
vt 0.732195 0.793899
vt 0.732195 0.795122
vt 0.713415 0.795122
vt 0.713415 0.793899
vt 0.732195 0.796346
vt 0.713415 0.796346
vt 0.732195 0.797570
vt 0.713415 0.797570
vt 0.732195 0.798793
vt 0.713415 0.798793
vt 0.732195 0.800017
vt 0.713415 0.800017
vt 0.732195 0.801241
vt 0.713415 0.801241
vt 0.732195 0.802465
vt 0.713415 0.802465
vt 0.674878 0.789248
vt 0.672830 0.789248
vt 0.672513 0.788066
vt 0.674878 0.788066
vt 0.732195 0.803688
vt 0.713415 0.803688
vt 0.674878 0.786884
vt 0.672830 0.786884
vt 0.673695 0.786019
vt 0.674877 0.785702
vt 0.703835 0.803855
vt 0.701787 0.803855
vt 0.701787 0.802673
vt 0.704152 0.802673
vt 0.701787 0.805038
vt 0.700605 0.804721
vt 0.699739 0.803855
vt 0.701787 0.801491
vt 0.699739 0.801491
vt 0.700605 0.800625
vt 0.701787 0.800308
vt 0.702970 0.804721
vt 0.699422 0.802673
vt 0.703835 0.801490
vt 0.676925 0.786884
vt 0.676060 0.786018
vt 0.674878 0.790431
vt 0.673696 0.790114
vt 0.676060 0.790114
vt 0.676925 0.789248
vt 0.677242 0.788066
vt 0.702970 0.800625
vt 0.757749 0.555089
vt 0.738580 0.555089
vt 0.738579 0.004582
vt 0.757748 0.004582
vt 0.782915 0.555089
vt 0.782915 0.004582
vt 0.802084 0.004582
vt 0.802083 0.555089
vt 0.647349 0.555034
vt 0.637973 0.555034
vt 0.637975 0.004579
vt 0.647351 0.004579
vt 0.614816 0.725883
vt 0.624195 0.714693
vt 0.624195 0.733866
vt 0.614816 0.733866
vt 0.599022 0.714693
vt 0.608425 0.725883
vt 0.608425 0.733866
vt 0.599022 0.733866
vt 0.655334 0.004579
vt 0.655330 0.555034
vt 0.697286 0.776195
vt 0.697286 0.782582
vt 0.686104 0.791954
vt 0.686104 0.766799
vt 0.679101 0.555034
vt 0.669701 0.555034
vt 0.669703 0.004579
vt 0.679100 0.004580
vt 0.661723 0.004579
vt 0.661719 0.555034
vt 0.705264 0.766799
vt 0.705264 0.776195
vt 0.705264 0.782582
vt 0.705264 0.791954
vt 0.703708 0.743193
vt 0.703708 0.757052
vt 0.688664 0.757052
vt 0.688664 0.743193
vt 0.688664 0.741787
vt 0.703708 0.741787
vt 0.705115 0.743193
vt 0.705115 0.757052
vt 0.687258 0.757052
vt 0.687258 0.743193
vt 0.855872 0.555087
vt 0.855872 0.004586
vt 0.875040 0.004586
vt 0.875041 0.555087
vt 0.697367 0.004585
vt 0.697366 0.555126
vt 0.687989 0.555126
vt 0.687990 0.004585
vt 0.608393 0.755060
vt 0.608393 0.763040
vt 0.599017 0.763040
vt 0.599017 0.743872
vt 0.608423 0.696700
vt 0.599021 0.685510
vt 0.624193 0.685510
vt 0.614814 0.696700
vt 0.830705 0.555087
vt 0.811537 0.555087
vt 0.811538 0.004586
vt 0.830706 0.004586
vt 0.624182 0.743872
vt 0.624182 0.763040
vt 0.614783 0.763040
vt 0.614783 0.755060
vt 0.711738 0.555126
vt 0.711741 0.004585
vt 0.719723 0.004585
vt 0.719722 0.555126
vt 0.614814 0.704682
vt 0.624193 0.704682
vt 0.705348 0.555126
vt 0.705351 0.004585
vt 0.729121 0.004585
vt 0.729123 0.555126
vt 0.599021 0.704682
vt 0.608423 0.704682
vt 0.642860 0.824432
vt 0.641453 0.824432
vt 0.641453 0.810573
vt 0.642860 0.810573
vt 0.626409 0.825839
vt 0.626409 0.824432
vt 0.641453 0.825839
vt 0.626409 0.810573
vt 0.625003 0.810573
vt 0.625003 0.824432
vt 0.123731 0.476798
vt 0.095864 0.472207
vt 0.152713 0.472207
vt 0.152713 0.478348
vt 0.152712 0.413409
vt 0.007015 0.413408
vt 0.004160 0.397669
vt 0.152713 0.397669
vt 0.152712 0.428544
vt 0.015468 0.428543
vt 0.152713 0.442492
vt 0.029196 0.442492
vt 0.152713 0.454718
vt 0.047670 0.454718
vt 0.152713 0.464751
vt 0.070181 0.464751
vt 0.004161 0.002160
vt 0.152713 0.002160
vt 0.181693 0.476798
vt 0.209561 0.472207
vt 0.301264 0.397669
vt 0.298410 0.413409
vt 0.289956 0.428544
vt 0.276229 0.442492
vt 0.257754 0.454718
vt 0.235243 0.464751
vt 0.301264 0.002160
vt 0.471915 0.433413
vt 0.445714 0.434814
vt 0.445714 0.429262
vt 0.497109 0.429262
vt 0.445714 0.376104
vt 0.445714 0.361874
vt 0.580017 0.361874
vt 0.577436 0.376104
vt 0.445714 0.389787
vt 0.569793 0.389787
vt 0.445714 0.402397
vt 0.557382 0.402398
vt 0.445714 0.413451
vt 0.540680 0.413451
vt 0.445714 0.422522
vt 0.520329 0.422522
vt 0.445715 0.004304
vt 0.580017 0.004304
vt 0.419513 0.433413
vt 0.394319 0.429262
vt 0.313992 0.376104
vt 0.311412 0.361874
vt 0.321635 0.389787
vt 0.334046 0.402397
vt 0.350748 0.413450
vt 0.371100 0.422521
vt 0.311412 0.004304
vt 0.748140 0.640665
vt 0.748140 0.647051
vt 0.719913 0.647051
vt 0.719912 0.640665
vt 0.960751 0.640665
vt 0.960751 0.647051
vt 0.944764 0.647051
vt 0.944764 0.640665
vt 0.588196 0.584311
vt 0.588196 0.577925
vt 0.983496 0.577925
vt 0.983496 0.584309
vt 0.693185 0.647051
vt 0.693185 0.640665
vt 0.312384 0.967519
vt 0.312384 0.961126
vt 0.708082 0.961128
vt 0.708082 0.967519
vt 0.834378 0.640665
vt 0.834378 0.647051
vt 0.806151 0.647051
vt 0.806151 0.640665
vt 0.668553 0.647051
vt 0.668553 0.640665
vt 0.777145 0.647051
vt 0.777145 0.640665
vt 0.861106 0.640665
vt 0.861106 0.647051
vt 0.740018 0.625119
vt 0.740018 0.631505
vt 0.591549 0.631505
vt 0.591549 0.625119
vt 0.646412 0.647051
vt 0.646412 0.640665
vt 0.885738 0.640665
vt 0.885738 0.647051
vt 0.626852 0.647051
vt 0.626852 0.640665
vt 0.907878 0.640665
vt 0.907878 0.647051
vt 0.609527 0.647051
vt 0.609527 0.640665
vt 0.927438 0.640665
vt 0.927438 0.647051
vt 0.593539 0.647051
vt 0.593539 0.640665
vt 0.888487 0.625119
vt 0.888487 0.631505
vt 0.746499 0.807309
vt 0.746365 0.808143
vt 0.745013 0.807490
vt 0.745680 0.806643
vt 0.746249 0.808907
vt 0.744492 0.808264
vt 0.744099 0.806567
vt 0.745052 0.805901
vt 0.743269 0.807148
vt 0.743546 0.805392
vt 0.744571 0.805057
vt 0.742640 0.805616
vt 0.743398 0.803898
vt 0.744228 0.804059
vt 0.742640 0.803745
vt 0.751320 0.805363
vt 0.750562 0.805210
vt 0.750414 0.803716
vt 0.751320 0.803491
vt 0.749733 0.805049
vt 0.749389 0.804051
vt 0.749861 0.802540
vt 0.750691 0.801960
vt 0.748909 0.803206
vt 0.748947 0.801617
vt 0.749469 0.800843
vt 0.748281 0.802464
vt 0.747595 0.800964
vt 0.747712 0.800200
vt 0.747461 0.801799
vt 0.749050 0.805847
vt 0.748472 0.804816
vt 0.748311 0.806458
vt 0.747611 0.805457
vt 0.747484 0.806942
vt 0.746714 0.806045
vt 0.747890 0.803918
vt 0.746980 0.804554
vt 0.746071 0.805189
vt 0.747247 0.803062
vt 0.746349 0.803651
vt 0.745488 0.804291
vt 0.746477 0.802166
vt 0.745650 0.802650
vt 0.744911 0.803260
vt 0.749861 0.806512
vt 0.750586 0.807042
vt 0.748949 0.807370
vt 0.749485 0.808137
vt 0.747830 0.807932
vt 0.748078 0.808795
vt 0.744100 0.802595
vt 0.743374 0.802066
vt 0.745012 0.801738
vt 0.744476 0.800970
vt 0.746131 0.801176
vt 0.745883 0.800313
vt 0.728850 0.688180
vt 0.723729 0.688180
vt 0.725506 0.686494
vt 0.728850 0.685636
vt 0.728849 0.727855
vt 0.723729 0.727855
vt 0.659184 0.810646
vt 0.659184 0.813190
vt 0.655840 0.812332
vt 0.654064 0.810646
vt 0.659184 0.770970
vt 0.654064 0.770970
vt 0.752057 0.734685
vt 0.752057 0.731223
vt 0.753868 0.731223
vt 0.753868 0.734685
vt 0.752057 0.727760
vt 0.752057 0.725304
vt 0.753868 0.725304
vt 0.753868 0.727760
vt 0.752057 0.737141
vt 0.753868 0.737141
vt 0.656120 0.824886
vt 0.651003 0.824886
vt 0.651003 0.823082
vt 0.656120 0.823082
vt 0.752057 0.685512
vt 0.753868 0.685512
vt 0.752057 0.776934
vt 0.753868 0.776934
vt 0.661237 0.824886
vt 0.661237 0.823082
vt 0.664304 0.770970
vt 0.664304 0.810646
vt 0.733969 0.727855
vt 0.733970 0.688180
vt 0.662528 0.812332
vt 0.732193 0.686494
vt 0.634791 0.757336
vt 0.634791 0.762459
vt 0.633105 0.760681
vt 0.632246 0.757336
vt 0.649062 0.757336
vt 0.649062 0.762459
vt 0.643464 0.778179
vt 0.646007 0.778179
vt 0.645149 0.781522
vt 0.643464 0.783298
vt 0.629202 0.778179
vt 0.629202 0.783298
vt 0.649514 0.846012
vt 0.652970 0.846012
vt 0.652970 0.847819
vt 0.649514 0.847819
vt 0.656426 0.846012
vt 0.658877 0.846012
vt 0.658877 0.847819
vt 0.656426 0.847819
vt 0.647063 0.846012
vt 0.647063 0.847819
vt 0.602250 0.846012
vt 0.604684 0.846012
vt 0.604684 0.847819
vt 0.602250 0.847819
vt 0.682978 0.846012
vt 0.701256 0.846012
vt 0.701256 0.847819
vt 0.682978 0.847819
vt 0.632785 0.846012
vt 0.632785 0.847819
vt 0.622962 0.846012
vt 0.622962 0.847819
vt 0.673155 0.846012
vt 0.673155 0.847819
vt 0.601134 0.778179
vt 0.619391 0.778179
vt 0.619391 0.783298
vt 0.601134 0.783298
vt 0.677149 0.757336
vt 0.679202 0.757336
vt 0.678613 0.760515
vt 0.677149 0.762459
vt 0.658880 0.757336
vt 0.658880 0.762459
vt 0.703691 0.846012
vt 0.703691 0.847819
vt 0.706926 0.846012
vt 0.706926 0.847819
vt 0.599014 0.846012
vt 0.599014 0.847819
vt 0.619391 0.773059
vt 0.629202 0.773059
vt 0.643463 0.773059
vt 0.645149 0.774835
vt 0.658880 0.752213
vt 0.649062 0.752213
vt 0.634791 0.752213
vt 0.633105 0.753990
vt 0.677149 0.752213
vt 0.678613 0.754156
vt 0.601134 0.773059
vt 0.599671 0.775001
vt 0.599082 0.778179
vt 0.599671 0.781356
vt 0.729856 0.833240
vt 0.730686 0.833079
vt 0.730538 0.834573
vt 0.729513 0.834239
vt 0.731444 0.832927
vt 0.731444 0.834797
vt 0.729985 0.835749
vt 0.729032 0.835083
vt 0.730815 0.836329
vt 0.729071 0.836672
vt 0.728404 0.835825
vt 0.729593 0.837446
vt 0.727719 0.837325
vt 0.727585 0.836490
vt 0.727836 0.838089
vt 0.726372 0.829382
vt 0.726489 0.830146
vt 0.725137 0.830799
vt 0.724615 0.830025
vt 0.726623 0.830981
vt 0.725804 0.831646
vt 0.724223 0.831722
vt 0.723393 0.831142
vt 0.725176 0.832388
vt 0.723670 0.832898
vt 0.722764 0.832673
vt 0.724695 0.833232
vt 0.723522 0.834391
vt 0.722764 0.834544
vt 0.724351 0.834230
vt 0.727607 0.831348
vt 0.726838 0.832244
vt 0.728435 0.831831
vt 0.727735 0.832833
vt 0.729173 0.832442
vt 0.728596 0.833473
vt 0.726195 0.833100
vt 0.727104 0.833735
vt 0.728013 0.834371
vt 0.725612 0.833998
vt 0.726473 0.834638
vt 0.727370 0.835227
vt 0.725034 0.835029
vt 0.725773 0.835639
vt 0.726601 0.836123
vt 0.727954 0.830357
vt 0.728201 0.829494
vt 0.729072 0.830920
vt 0.729608 0.830152
vt 0.729984 0.831777
vt 0.730710 0.831248
vt 0.726254 0.837113
vt 0.726006 0.837977
vt 0.725136 0.836551
vt 0.724599 0.837319
vt 0.724223 0.835694
vt 0.723498 0.836224
vt 0.757457 0.785114
vt 0.757591 0.784280
vt 0.758943 0.784932
vt 0.758277 0.785780
vt 0.757708 0.783516
vt 0.759465 0.784158
vt 0.759857 0.785856
vt 0.758904 0.786522
vt 0.760688 0.785275
vt 0.760410 0.787032
vt 0.759385 0.787366
vt 0.761316 0.786807
vt 0.760559 0.788526
vt 0.759729 0.788365
vt 0.761316 0.788679
vt 0.752636 0.787060
vt 0.753394 0.787213
vt 0.753542 0.788707
vt 0.752636 0.788932
vt 0.754223 0.787374
vt 0.754567 0.788373
vt 0.754095 0.789883
vt 0.753264 0.790464
vt 0.755048 0.789217
vt 0.755009 0.790807
vt 0.754487 0.791581
vt 0.755675 0.789959
vt 0.756361 0.791459
vt 0.756244 0.792224
vt 0.756495 0.790625
vt 0.754906 0.786576
vt 0.755484 0.787607
vt 0.755645 0.785965
vt 0.756345 0.786967
vt 0.756473 0.785481
vt 0.757242 0.786378
vt 0.756067 0.788505
vt 0.756976 0.787870
vt 0.757886 0.787234
vt 0.756710 0.789361
vt 0.757607 0.788772
vt 0.758468 0.788132
vt 0.757479 0.790258
vt 0.758307 0.789774
vt 0.759046 0.789163
vt 0.754095 0.785911
vt 0.753370 0.785381
vt 0.755008 0.785053
vt 0.754471 0.784286
vt 0.756126 0.784491
vt 0.755878 0.783628
vt 0.759857 0.789828
vt 0.760582 0.790358
vt 0.758944 0.790686
vt 0.759481 0.791453
vt 0.757826 0.791248
vt 0.758074 0.792111
vt 0.754318 0.816391
vt 0.753498 0.817056
vt 0.752832 0.816209
vt 0.754184 0.815557
vt 0.752310 0.815435
vt 0.754067 0.814792
vt 0.752871 0.817798
vt 0.751918 0.817132
vt 0.751088 0.816552
vt 0.752390 0.818642
vt 0.751365 0.818308
vt 0.750459 0.818083
vt 0.752046 0.819640
vt 0.751217 0.819801
vt 0.750459 0.819954
vt 0.759138 0.818336
vt 0.759138 0.820207
vt 0.758232 0.819983
vt 0.758380 0.818489
vt 0.757207 0.819648
vt 0.757551 0.818650
vt 0.758510 0.821739
vt 0.757679 0.821158
vt 0.756727 0.820493
vt 0.757287 0.822855
vt 0.756765 0.822082
vt 0.756099 0.821234
vt 0.755530 0.823498
vt 0.755413 0.822734
vt 0.755280 0.821900
vt 0.756290 0.818883
vt 0.756868 0.817852
vt 0.755430 0.818242
vt 0.756129 0.817242
vt 0.754532 0.817654
vt 0.755302 0.816757
vt 0.755708 0.819781
vt 0.754798 0.819145
vt 0.753889 0.818510
vt 0.755065 0.820637
vt 0.754168 0.820048
vt 0.753307 0.819408
vt 0.754295 0.821533
vt 0.753468 0.821049
vt 0.752729 0.820438
vt 0.757678 0.817187
vt 0.758404 0.816657
vt 0.756766 0.816330
vt 0.757303 0.815562
vt 0.755648 0.815768
vt 0.755896 0.814904
vt 0.751919 0.821104
vt 0.751193 0.821633
vt 0.752831 0.821961
vt 0.752294 0.822728
vt 0.753949 0.822523
vt 0.753701 0.823386
vt 0.718529 0.781463
vt 0.718529 0.784007
vt 0.715186 0.783149
vt 0.713409 0.781463
vt 0.718529 0.741787
vt 0.713409 0.741787
vt 0.638693 0.796937
vt 0.638693 0.791817
vt 0.640378 0.793594
vt 0.641237 0.796937
vt 0.599017 0.796937
vt 0.599017 0.791817
vt 0.648195 0.835592
vt 0.648195 0.837403
vt 0.644733 0.837403
vt 0.644733 0.835592
vt 0.641270 0.835592
vt 0.641270 0.837403
vt 0.638814 0.837403
vt 0.638814 0.835592
vt 0.650651 0.835592
vt 0.650651 0.837403
vt 0.674496 0.824885
vt 0.674496 0.823081
vt 0.679613 0.823081
vt 0.679613 0.824885
vt 0.599022 0.837403
vt 0.599022 0.835592
vt 0.690445 0.835592
vt 0.690445 0.837403
vt 0.669379 0.824885
vt 0.669379 0.823081
vt 0.599017 0.802058
vt 0.638693 0.802058
vt 0.723650 0.741787
vt 0.723650 0.781463
vt 0.640379 0.800281
vt 0.721873 0.783149
vt 0.692083 0.729965
vt 0.692083 0.732509
vt 0.688739 0.731651
vt 0.686962 0.729965
vt 0.692083 0.715700
vt 0.686962 0.715700
vt 0.710471 0.688184
vt 0.705351 0.688184
vt 0.707127 0.686498
vt 0.710471 0.685640
vt 0.710471 0.702446
vt 0.705351 0.702446
vt 0.742109 0.736010
vt 0.743916 0.736010
vt 0.743916 0.739465
vt 0.742109 0.739465
vt 0.742109 0.742921
vt 0.743916 0.742921
vt 0.743916 0.745373
vt 0.742109 0.745373
vt 0.742109 0.733558
vt 0.743916 0.733558
vt 0.742109 0.688745
vt 0.743916 0.688745
vt 0.743916 0.691179
vt 0.742109 0.691179
vt 0.742109 0.769473
vt 0.743916 0.769473
vt 0.743916 0.787751
vt 0.742109 0.787751
vt 0.742109 0.719280
vt 0.743916 0.719280
vt 0.743916 0.709457
vt 0.742109 0.709457
vt 0.743916 0.759651
vt 0.742109 0.759651
vt 0.710471 0.730516
vt 0.705351 0.730516
vt 0.705351 0.712258
vt 0.710471 0.712258
vt 0.692083 0.687626
vt 0.686962 0.687626
vt 0.688905 0.686162
vt 0.692083 0.685574
vt 0.692083 0.705887
vt 0.686962 0.705887
vt 0.743916 0.790186
vt 0.742109 0.790186
vt 0.743916 0.793421
vt 0.742109 0.793421
vt 0.742109 0.685510
vt 0.743916 0.685510
vt 0.715591 0.712258
vt 0.715591 0.702446
vt 0.715591 0.688184
vt 0.713814 0.686498
vt 0.697204 0.705887
vt 0.697204 0.715700
vt 0.697204 0.729965
vt 0.695427 0.731651
vt 0.697204 0.687626
vt 0.695261 0.686162
vt 0.715591 0.730516
vt 0.713648 0.731979
vt 0.710471 0.732568
vt 0.707293 0.731979
vt 0.747866 0.834230
vt 0.747522 0.833233
vt 0.748547 0.832898
vt 0.748695 0.834391
vt 0.749453 0.832674
vt 0.749453 0.834544
vt 0.747042 0.832388
vt 0.747994 0.831723
vt 0.748824 0.831142
vt 0.746414 0.831647
vt 0.747080 0.830799
vt 0.747602 0.830026
vt 0.745595 0.830981
vt 0.745729 0.830147
vt 0.745846 0.829383
vt 0.744382 0.838088
vt 0.742626 0.837446
vt 0.743148 0.836672
vt 0.744499 0.837324
vt 0.743814 0.835824
vt 0.744633 0.836490
vt 0.741404 0.836329
vt 0.742234 0.835749
vt 0.743186 0.835083
vt 0.740775 0.834798
vt 0.741681 0.834573
vt 0.742706 0.834239
vt 0.740775 0.832927
vt 0.741533 0.833080
vt 0.742362 0.833241
vt 0.744848 0.835227
vt 0.745617 0.836123
vt 0.745745 0.834638
vt 0.746444 0.835639
vt 0.746606 0.833998
vt 0.747183 0.835029
vt 0.744205 0.834371
vt 0.745114 0.833736
vt 0.746023 0.833100
vt 0.743622 0.833473
vt 0.744483 0.832833
vt 0.745380 0.832244
vt 0.743045 0.832443
vt 0.743784 0.831832
vt 0.744611 0.831348
vt 0.745963 0.837113
vt 0.746211 0.837976
vt 0.747082 0.836551
vt 0.747618 0.837318
vt 0.747994 0.835694
vt 0.748719 0.836223
vt 0.744265 0.830358
vt 0.744017 0.829495
vt 0.743146 0.830920
vt 0.742610 0.830153
vt 0.742234 0.831777
vt 0.741509 0.831248
vt 0.738139 0.821892
vt 0.738958 0.821226
vt 0.739625 0.822073
vt 0.738272 0.822726
vt 0.740146 0.822847
vt 0.738389 0.823490
vt 0.739586 0.820484
vt 0.740538 0.821150
vt 0.741369 0.821730
vt 0.740066 0.819640
vt 0.741091 0.819975
vt 0.741997 0.820199
vt 0.740410 0.818642
vt 0.741240 0.818481
vt 0.741997 0.818328
vt 0.733318 0.819946
vt 0.733318 0.818075
vt 0.734224 0.818299
vt 0.734076 0.819793
vt 0.735249 0.818633
vt 0.734905 0.819632
vt 0.733946 0.816543
vt 0.734777 0.817123
vt 0.735730 0.817789
vt 0.735169 0.815426
vt 0.735691 0.816200
vt 0.736357 0.817047
vt 0.736926 0.814783
vt 0.737043 0.815547
vt 0.737177 0.816382
vt 0.736165 0.819399
vt 0.735588 0.820430
vt 0.737027 0.820040
vt 0.736327 0.821041
vt 0.737924 0.820628
vt 0.737154 0.821525
vt 0.736748 0.818501
vt 0.737657 0.819137
vt 0.738567 0.819772
vt 0.737391 0.817645
vt 0.738288 0.818234
vt 0.739150 0.818874
vt 0.738161 0.816749
vt 0.738988 0.817233
vt 0.739727 0.817843
vt 0.734777 0.821095
vt 0.734052 0.821625
vt 0.735690 0.821953
vt 0.735153 0.822720
vt 0.736808 0.822515
vt 0.736560 0.823378
vt 0.740538 0.817178
vt 0.741263 0.816649
vt 0.739626 0.816321
vt 0.740162 0.815553
vt 0.738507 0.815759
vt 0.738755 0.814896
s 0
f 1/1/1 3/2/1 4/3/1 2/4/1
f 6/5/2 5/6/2 7/7/2 8/8/2
f 11/9/3 8/10/3 7/11/3 10/12/3
f 14/13/4 6/14/4 8/15/4 11/16/4
f 2/4/5 5/6/5 6/5/5 1/1/5
f 1/17/4 13/18/4 12/19/4 3/20/4
f 16/21/1 14/22/1 11/9/1 10/12/1
f 15/23/6 16/24/6 5/25/6 2/26/6
f 3/27/3 12/28/3 9/29/3 4/30/3
f 16/21/3 15/31/3 13/32/3 14/22/3
f 15/31/2 9/29/2 12/28/2 13/32/2
f 4/33/6 9/34/6 15/23/6 2/26/6
f 1/17/4 6/14/4 14/13/4 13/18/4
f 10/35/6 7/36/6 5/25/6 16/24/6
f 22/37/2 21/38/2 24/39/2 23/40/2
f 20/41/7 18/42/7 22/37/7 23/40/7
f 18/43/5 17/44/5 21/38/5 22/37/5
f 19/45/3 20/46/3 23/40/3 24/39/3
f 25/47/1 26/48/1 28/49/1 27/50/1
f 35/51/5 34/52/5 31/53/5 32/54/5
f 38/55/4 35/56/4 32/57/4 30/58/4
f 39/59/6 26/60/6 29/61/6 40/62/6
f 30/63/2 32/64/2 31/65/2 29/66/2
f 25/67/4 27/68/4 36/69/4 37/70/4
f 25/67/4 37/70/4 38/55/4 30/58/4
f 39/71/2 37/72/2 36/73/2 33/74/2
f 26/48/3 25/47/3 30/63/3 29/66/3
f 34/75/6 40/62/6 29/61/6 31/76/6
f 40/77/5 38/78/5 37/72/5 39/71/5
f 27/79/5 28/80/5 33/74/5 36/73/5
f 40/77/1 34/52/1 35/51/1 38/78/1
f 28/81/6 26/60/6 39/59/6 33/82/6
f 42/83/3 46/84/3 45/85/3 41/86/3
f 44/87/7 47/88/7 46/84/7 42/89/7
f 46/84/2 47/88/2 48/90/2 45/85/2
f 43/91/5 48/90/5 47/88/5 44/92/5
s 1
f 50/93/1 51/94/1 58/95/1 49/96/1
f 63/97/1 56/98/1 57/99/1 64/100/1
f 62/101/1 55/102/1 56/98/1 63/97/1
f 61/103/1 54/104/1 55/102/1 62/101/1
f 60/105/1 53/106/1 54/104/1 61/103/1
f 59/107/1 52/108/1 53/106/1 60/105/1
f 58/95/1 51/94/1 52/108/1 59/107/1
f 64/100/1 57/99/1 65/109/1 66/110/1
f 67/111/1 49/96/1 58/95/1 68/112/1
f 63/97/1 64/100/1 74/113/1 73/114/1
f 62/101/1 63/97/1 73/114/1 72/115/1
f 61/103/1 62/101/1 72/115/1 71/116/1
f 60/105/1 61/103/1 71/116/1 70/117/1
f 59/107/1 60/105/1 70/117/1 69/118/1
f 58/95/1 59/107/1 69/118/1 68/112/1
f 64/100/1 66/110/1 75/119/1 74/113/1
f 76/120/2 77/121/2 86/122/2 78/123/2
f 91/124/2 85/125/2 84/126/2 83/127/2
f 90/128/2 91/124/2 83/127/2 82/129/2
f 89/130/2 90/128/2 82/129/2 81/131/2
f 88/132/2 89/130/2 81/131/2 80/133/2
f 87/134/2 88/132/2 80/133/2 79/135/2
f 86/122/2 87/134/2 79/135/2 78/123/2
f 85/125/2 92/136/2 93/137/2 84/126/2
f 95/138/2 94/139/2 86/122/2 77/121/2
f 91/124/2 100/140/2 101/141/2 85/125/2
f 90/128/2 99/142/2 100/140/2 91/124/2
f 89/130/2 98/143/2 99/142/2 90/128/2
f 88/132/2 97/144/2 98/143/2 89/130/2
f 87/134/2 96/145/2 97/144/2 88/132/2
f 86/122/2 94/139/2 96/145/2 87/134/2
f 85/125/2 101/141/2 102/146/2 92/136/2
f 50/147/8 76/148/8 78/149/9 51/150/9
f 74/151/10 101/152/10 100/153/11 73/154/11
f 57/155/12 84/156/12 93/157/5 65/158/5
f 51/150/9 78/149/9 79/159/13 52/160/13
f 75/161/3 102/162/3 101/163/10 74/164/10
f 68/165/14 94/166/14 95/167/15 67/168/15
f 52/160/13 79/159/13 80/169/16 53/170/16
f 67/168/15 95/167/15 77/171/6 49/172/6
f 69/173/17 96/174/17 94/166/14 68/165/14
f 66/175/4 92/176/4 102/177/4 75/178/4
f 53/170/16 80/169/16 81/179/18 54/180/18
f 70/181/19 97/182/19 96/174/17 69/173/17
f 54/180/18 81/179/18 82/183/20 55/184/20
f 71/185/21 98/186/21 97/182/19 70/181/19
f 55/184/20 82/183/20 83/187/22 56/188/22
f 72/189/23 99/190/23 98/186/21 71/185/21
f 56/188/22 83/187/22 84/191/12 57/192/12
f 65/193/4 93/194/4 92/176/4 66/175/4
f 49/172/6 77/171/6 76/148/8 50/147/8
f 73/154/11 100/153/11 99/190/23 72/189/23
f 103/195/24 104/196/24 106/197/25 105/198/25
f 105/198/25 106/197/25 108/199/26 107/200/26
f 107/200/26 108/199/26 110/201/27 109/202/27
f 109/203/27 110/204/27 112/205/28 111/206/28
f 111/206/28 112/205/28 114/207/29 113/208/29
f 113/208/29 114/207/29 116/209/30 115/210/30
f 115/210/30 116/209/30 118/211/31 117/212/31
f 117/212/31 118/211/31 120/213/32 119/214/32
f 119/214/32 120/213/32 122/215/33 121/216/33
f 121/216/33 122/215/33 124/217/34 123/218/34
f 130/219/3 122/220/3 120/221/3 118/222/3
f 125/223/35 126/224/35 104/196/24 103/195/24
f 129/225/5 109/226/5 111/227/5 113/228/5
f 127/229/5 128/230/5 115/231/5 117/232/5
f 121/233/5 127/229/5 117/232/5 119/234/5
f 128/230/5 129/225/5 113/228/5 115/231/5
f 103/235/5 105/236/5 129/225/5 128/230/5
f 125/237/5 103/235/5 128/230/5 127/229/5
f 123/238/5 125/237/5 127/229/5 121/233/5
f 105/236/5 107/239/5 109/226/5 129/225/5
f 132/240/3 131/241/3 116/242/3 114/243/3
f 131/241/3 130/219/3 118/222/3 116/242/3
f 110/244/3 132/240/3 114/243/3 112/245/3
f 106/246/3 104/247/3 131/241/3 132/240/3
f 104/247/3 126/248/3 130/219/3 131/241/3
f 126/248/3 124/249/3 122/220/3 130/219/3
f 108/250/3 106/246/3 132/240/3 110/244/3
f 123/218/34 124/217/34 126/224/35 125/223/35
f 133/251/24 135/252/25 136/253/25 134/254/24
f 135/252/25 137/255/26 138/256/26 136/253/25
f 137/255/26 139/257/27 140/258/27 138/256/26
f 139/259/27 141/260/28 142/261/28 140/262/27
f 141/260/28 143/263/29 144/264/29 142/261/28
f 143/263/29 145/265/30 146/266/30 144/264/29
f 145/265/30 147/267/31 148/268/31 146/266/30
f 147/267/31 149/269/32 150/270/32 148/268/31
f 149/269/32 151/271/33 152/272/33 150/270/32
f 151/271/33 153/273/34 154/274/34 152/272/33
f 162/275/5 144/276/5 146/277/5 161/278/5
f 153/273/34 155/279/35 156/280/35 154/274/34
f 160/281/5 148/282/5 150/283/5 152/284/5
f 155/285/3 157/286/3 158/287/3 133/288/3
f 151/289/3 149/290/3 147/291/3 157/286/3
f 159/292/3 143/293/3 141/294/3 139/295/3
f 153/296/3 151/289/3 157/286/3 155/285/3
f 158/287/3 145/297/3 143/293/3 159/292/3
f 157/286/3 147/291/3 145/297/3 158/287/3
f 155/279/35 133/251/24 134/254/24 156/280/35
f 133/288/3 158/287/3 159/292/3 135/298/3
f 156/299/5 160/281/5 152/284/5 154/300/5
f 140/301/5 142/302/5 144/276/5 162/275/5
f 138/303/5 140/301/5 162/275/5 136/304/5
f 136/304/5 162/275/5 161/278/5 134/305/5
f 161/278/5 146/277/5 148/282/5 160/281/5
f 135/298/3 159/292/3 139/295/3 137/306/3
f 134/305/5 161/278/5 160/281/5 156/299/5
s 0
f 163/307/36 165/308/36 166/309/36 164/310/36
f 168/311/37 167/312/37 169/313/37 170/314/37
f 173/315/5 170/316/5 169/317/5 172/318/5
f 176/319/38 168/320/38 170/321/38 173/322/38
f 164/310/3 167/312/3 168/311/3 163/307/3
f 163/323/38 175/324/38 174/325/38 165/326/38
f 178/327/36 176/328/36 173/315/36 172/318/36
f 177/329/39 178/330/39 167/331/39 164/332/39
f 165/333/5 174/334/5 171/335/5 166/336/5
f 178/327/5 177/337/5 175/338/5 176/328/5
f 177/337/37 171/335/37 174/334/37 175/338/37
f 166/339/39 171/340/39 177/329/39 164/332/39
f 163/323/38 168/320/38 176/319/38 175/324/38
f 172/341/39 169/342/39 167/331/39 178/330/39
f 184/343/37 183/344/37 186/345/37 185/346/37
f 182/347/40 180/348/40 184/343/40 185/346/40
f 180/349/3 179/350/3 183/344/3 184/343/3
f 181/351/5 182/352/5 185/346/5 186/345/5
f 187/353/36 188/354/36 190/355/36 189/356/36
f 197/357/3 196/358/3 193/359/3 194/360/3
f 200/361/38 197/362/38 194/363/38 192/364/38
f 201/365/39 188/366/39 191/367/39 202/368/39
f 192/369/37 194/370/37 193/371/37 191/372/37
f 187/373/38 189/374/38 198/375/38 199/376/38
f 187/373/38 199/376/38 200/361/38 192/364/38
f 201/377/37 199/378/37 198/379/37 195/380/37
f 188/354/5 187/353/5 192/369/5 191/372/5
f 196/381/39 202/368/39 191/367/39 193/382/39
f 202/383/3 200/384/3 199/378/3 201/377/3
f 189/385/3 190/386/3 195/380/3 198/379/3
f 202/383/36 196/358/36 197/357/36 200/384/36
f 190/387/39 188/366/39 201/365/39 195/388/39
f 204/389/5 208/390/5 207/391/5 203/392/5
f 206/393/40 209/394/40 208/390/40 204/395/40
f 208/390/37 209/394/37 210/396/37 207/391/37
f 205/397/3 210/396/3 209/394/3 206/398/3
s 1
f 212/399/36 213/400/36 220/401/36 211/402/36
f 225/403/36 218/404/36 219/405/36 226/406/36
f 224/407/36 217/408/36 218/404/36 225/403/36
f 223/409/36 216/410/36 217/408/36 224/407/36
f 222/411/36 215/412/36 216/410/36 223/409/36
f 221/413/36 214/414/36 215/412/36 222/411/36
f 220/401/36 213/400/36 214/414/36 221/413/36
f 226/406/36 219/405/36 227/415/36 228/416/36
f 229/417/36 211/402/36 220/401/36 230/418/36
f 225/403/36 226/406/36 236/419/36 235/420/36
f 224/407/36 225/403/36 235/420/36 234/421/36
f 223/409/36 224/407/36 234/421/36 233/422/36
f 222/411/36 223/409/36 233/422/36 232/423/36
f 221/413/36 222/411/36 232/423/36 231/424/36
f 220/401/36 221/413/36 231/424/36 230/418/36
f 226/406/36 228/416/36 237/425/36 236/419/36
f 238/426/37 239/427/37 248/428/37 240/429/37
f 253/430/37 247/431/37 246/432/37 245/433/37
f 252/434/37 253/430/37 245/433/37 244/435/37
f 251/436/37 252/434/37 244/435/37 243/437/37
f 250/438/37 251/436/37 243/437/37 242/439/37
f 249/440/37 250/438/37 242/439/37 241/441/37
f 248/428/37 249/440/37 241/441/37 240/429/37
f 247/431/37 254/442/37 255/443/37 246/432/37
f 257/444/37 256/445/37 248/428/37 239/427/37
f 253/430/37 262/446/37 263/447/37 247/431/37
f 252/434/37 261/448/37 262/446/37 253/430/37
f 251/436/37 260/449/37 261/448/37 252/434/37
f 250/438/37 259/450/37 260/449/37 251/436/37
f 249/440/37 258/451/37 259/450/37 250/438/37
f 248/428/37 256/445/37 258/451/37 249/440/37
f 247/431/37 263/447/37 264/452/37 254/442/37
f 212/453/41 238/454/41 240/455/42 213/456/42
f 236/457/43 263/458/43 262/459/44 235/460/44
f 219/461/45 246/462/45 255/463/3 227/464/3
f 213/456/42 240/455/42 241/465/46 214/466/46
f 237/467/5 264/468/5 263/469/43 236/470/43
f 230/471/47 256/472/47 257/473/48 229/474/48
f 214/466/46 241/465/46 242/475/49 215/476/49
f 229/474/48 257/473/48 239/477/39 211/478/39
f 231/479/50 258/480/50 256/472/47 230/471/47
f 228/481/38 254/482/38 264/483/38 237/484/38
f 215/476/49 242/475/49 243/485/51 216/486/51
f 232/487/52 259/488/52 258/480/50 231/479/50
f 216/486/51 243/485/51 244/489/53 217/490/53
f 233/491/54 260/492/54 259/488/52 232/487/52
f 217/490/53 244/489/53 245/493/55 218/494/55
f 234/495/56 261/496/56 260/492/54 233/491/54
f 218/494/55 245/493/55 246/497/45 219/498/45
f 227/499/38 255/500/38 254/482/38 228/481/38
f 211/478/39 239/477/39 238/454/41 212/453/41
f 235/460/44 262/459/44 261/496/56 234/495/56
f 265/501/57 266/502/58 269/503/59 268/504/60
f 266/502/58 267/505/61 270/506/62 269/503/59
f 268/504/60 269/503/59 272/507/63 271/508/64
f 269/503/59 270/506/62 273/509/65 272/507/63
f 271/508/64 272/507/63 275/510/66 274/511/67
f 272/507/63 273/509/65 276/512/68 275/510/66
f 274/511/67 275/510/66 308/513/69 307/514/70
f 275/510/66 276/512/68 309/515/71 308/513/69
f 277/516/72 278/517/73 280/518/74 279/519/75
f 278/517/73 285/520/76 289/521/77 280/518/74
f 279/519/75 280/518/74 282/522/78 281/523/79
f 280/518/74 289/521/77 293/524/80 282/522/78
f 281/523/79 282/522/78 284/525/81 283/526/82
f 282/522/78 293/524/80 297/527/83 284/525/81
f 283/526/82 284/525/81 320/528/84 321/529/85
f 284/525/81 297/527/83 319/530/86 320/528/84
f 285/520/76 286/531/87 290/532/88 289/521/77
f 286/531/87 287/533/89 291/534/90 290/532/88
f 287/533/89 288/535/91 292/536/92 291/534/90
f 288/535/91 265/501/57 268/504/60 292/536/92
f 289/521/77 290/532/88 294/537/93 293/524/80
f 290/532/88 291/534/90 295/538/3 294/537/93
f 291/534/90 292/536/92 296/539/94 295/538/3
f 292/536/92 268/504/60 271/508/64 296/539/94
f 293/524/80 294/537/93 298/540/95 297/527/83
f 294/537/93 295/538/3 299/541/96 298/540/95
f 295/538/3 296/539/94 300/542/97 299/541/96
f 296/539/94 271/508/64 274/511/67 300/542/97
f 297/527/83 298/540/95 316/543/98 319/530/86
f 298/540/95 299/541/96 313/544/99 316/543/98
f 299/541/96 300/542/97 310/545/100 313/544/99
f 300/542/97 274/511/67 307/514/70 310/545/100
f 285/520/76 278/517/73 301/546/101 286/531/87
f 278/517/73 277/516/72 302/547/102 301/546/101
f 286/531/87 301/546/101 303/548/103 287/533/89
f 301/546/101 302/547/102 304/549/104 303/548/103
f 287/533/89 303/548/103 305/550/105 288/535/91
f 303/548/103 304/549/104 306/551/106 305/550/105
f 288/535/91 305/550/105 266/502/58 265/501/57
f 305/550/105 306/551/106 267/505/61 266/502/58
f 307/514/70 308/513/69 311/552/107 310/545/100
f 308/513/69 309/515/71 312/553/108 311/552/107
f 310/545/100 311/552/107 314/554/109 313/544/99
f 311/552/107 312/553/108 315/555/110 314/554/109
f 313/544/99 314/554/109 317/556/111 316/543/98
f 314/554/109 315/555/110 318/557/112 317/556/111
f 316/543/98 317/556/111 320/528/84 319/530/86
f 317/556/111 318/557/112 321/529/85 320/528/84
f 337/558/5 326/559/5 328/560/5 327/561/5
f 336/562/5 323/563/5 326/559/5 337/558/5
f 339/564/3 333/565/3 334/566/3 335/567/3
f 338/568/3 339/564/3 335/567/3 329/569/3
f 325/570/113 327/571/30 333/572/30 332/573/113
f 328/574/114 326/575/115 335/576/115 334/577/114
f 324/578/116 325/570/113 332/573/113 331/579/116
f 336/580/24 322/581/24 330/582/24 338/583/24
f 326/575/27 323/584/27 329/585/27 335/576/27
f 327/571/30 328/574/114 334/577/114 333/572/30
f 322/586/33 324/578/33 331/579/33 330/587/33
f 323/588/24 336/580/24 338/583/24 329/589/24
f 330/590/3 331/591/3 339/564/3 338/568/3
f 322/592/5 336/562/5 337/558/5 324/593/5
f 331/591/3 332/594/3 333/565/3 339/564/3
f 324/593/5 337/558/5 327/561/5 325/595/5
f 371/596/5 344/597/5 346/598/5 345/599/5
f 373/600/5 356/601/5 344/597/5 371/596/5
f 368/602/3 351/603/3 352/604/3 353/605/3
f 370/606/3 368/602/3 353/605/3 360/607/3
f 343/608/117 345/609/24 351/610/24 350/611/117
f 346/612/118 344/613/119 353/614/119 352/615/118
f 342/616/120 343/608/117 350/611/117 349/617/120
f 364/618/121 340/619/122 348/620/122 367/621/121
f 357/622/33 341/623/33 347/624/33 361/625/33
f 345/609/24 346/612/118 352/615/118 351/610/24
f 355/626/27 342/616/27 349/617/27 359/627/27
f 340/619/27 354/628/27 358/629/27 348/620/27
f 354/628/27 355/626/27 359/627/27 358/629/27
f 344/613/33 356/630/33 360/631/33 353/614/33
f 356/630/33 357/622/33 361/625/33 360/631/33
f 374/632/3 369/633/3 361/634/3 347/635/3
f 369/633/123 370/606/123 360/607/123 361/634/123
f 375/636/5 363/637/5 362/638/5 341/639/5
f 372/640/124 357/641/124 356/601/124 373/600/124
f 341/623/125 362/642/126 365/643/126 347/624/125
f 362/642/126 363/644/30 366/645/30 365/643/126
f 363/646/30 364/618/121 367/621/121 366/647/30
f 358/648/123 359/649/123 370/606/123 369/633/123
f 359/649/3 349/650/3 368/602/3 370/606/3
f 349/650/3 350/651/3 351/603/3 368/602/3
f 354/652/124 372/640/124 373/600/124 355/653/124
f 355/653/5 373/600/5 371/596/5 342/654/5
f 342/654/5 371/596/5 345/599/5 343/655/5
f 340/656/5 364/657/5 363/637/5 375/636/5
f 348/658/3 358/648/3 369/633/3 374/632/3
f 367/659/3 348/658/3 374/632/3 366/660/3
f 366/660/3 374/632/3 347/635/3 365/661/3
f 372/640/5 375/636/5 341/639/5 357/641/5
f 354/652/5 340/656/5 375/636/5 372/640/5
f 376/662/57 377/663/58 380/664/59 379/665/60
f 377/663/58 378/666/61 381/667/62 380/664/59
f 379/665/60 380/664/59 383/668/63 382/669/64
f 380/664/59 381/667/62 384/670/65 383/668/63
f 382/669/64 383/668/63 386/671/66 385/672/67
f 383/668/63 384/670/65 387/673/68 386/671/66
f 385/672/67 386/671/66 419/674/69 418/675/70
f 386/671/66 387/673/68 420/676/71 419/674/69
f 388/677/72 389/678/73 391/679/74 390/680/75
f 389/678/73 396/681/76 400/682/77 391/679/74
f 390/680/75 391/679/74 393/683/78 392/684/79
f 391/679/74 400/682/77 404/685/80 393/683/78
f 392/684/79 393/683/78 395/686/81 394/687/82
f 393/683/78 404/685/80 408/688/83 395/686/81
f 394/687/82 395/686/81 431/689/84 432/690/85
f 395/686/81 408/688/83 430/691/86 431/689/84
f 396/681/76 397/692/87 401/693/88 400/682/77
f 397/692/87 398/694/89 402/695/90 401/693/88
f 398/694/89 399/696/91 403/697/92 402/695/90
f 399/696/91 376/662/57 379/665/60 403/697/92
f 400/682/77 401/693/88 405/698/93 404/685/80
f 401/693/88 402/695/90 406/699/3 405/698/93
f 402/695/90 403/697/92 407/700/94 406/699/3
f 403/697/92 379/665/60 382/669/64 407/700/94
f 404/685/80 405/698/93 409/701/95 408/688/83
f 405/698/93 406/699/3 410/702/96 409/701/95
f 406/699/3 407/700/94 411/703/97 410/702/96
f 407/700/94 382/669/64 385/672/67 411/703/97
f 408/688/83 409/701/95 427/704/98 430/691/86
f 409/701/95 410/702/96 424/705/99 427/704/98
f 410/702/96 411/703/97 421/706/100 424/705/99
f 411/703/97 385/672/67 418/675/70 421/706/100
f 396/681/76 389/678/73 412/707/101 397/692/87
f 389/678/73 388/677/72 413/708/102 412/707/101
f 397/692/87 412/707/101 414/709/103 398/694/89
f 412/707/101 413/708/102 415/710/127 414/709/103
f 398/694/89 414/709/103 416/711/105 399/696/91
f 414/709/103 415/710/127 417/712/128 416/711/105
f 399/696/91 416/711/105 377/663/58 376/662/57
f 416/711/105 417/712/128 378/666/61 377/663/58
f 418/675/70 419/674/69 422/713/107 421/706/100
f 419/674/69 420/676/71 423/714/108 422/713/107
f 421/706/100 422/713/107 425/715/109 424/705/99
f 422/713/107 423/714/108 426/716/110 425/715/109
f 424/705/99 425/715/109 428/717/111 427/704/98
f 425/715/109 426/716/110 429/718/112 428/717/111
f 427/704/98 428/717/111 431/689/84 430/691/86
f 428/717/111 429/718/112 432/690/85 431/689/84
f 433/719/57 434/720/58 437/721/59 436/722/60
f 434/720/58 435/723/61 438/724/62 437/721/59
f 436/722/60 437/721/59 440/725/63 439/726/64
f 437/721/59 438/724/62 441/727/65 440/725/63
f 439/726/64 440/725/63 443/728/66 442/729/67
f 440/725/63 441/727/65 444/730/68 443/728/66
f 442/729/67 443/728/66 476/731/69 475/732/70
f 443/728/66 444/730/68 477/733/71 476/731/69
f 445/734/72 446/735/73 448/736/74 447/737/75
f 446/735/73 453/738/76 457/739/77 448/736/74
f 447/737/75 448/736/74 450/740/78 449/741/79
f 448/736/74 457/739/77 461/742/80 450/740/78
f 449/741/79 450/740/78 452/743/81 451/744/82
f 450/740/78 461/742/80 465/745/83 452/743/81
f 451/744/82 452/743/81 488/746/84 489/747/85
f 452/743/81 465/745/83 487/748/86 488/746/84
f 453/738/76 454/749/87 458/750/88 457/739/77
f 454/749/87 455/751/89 459/752/90 458/750/88
f 455/751/89 456/753/91 460/754/92 459/752/90
f 456/753/91 433/719/57 436/722/60 460/754/92
f 457/739/77 458/750/88 462/755/93 461/742/80
f 458/750/88 459/752/90 463/756/3 462/755/93
f 459/752/90 460/754/92 464/757/94 463/756/3
f 460/754/92 436/722/60 439/726/64 464/757/94
f 461/742/80 462/755/93 466/758/95 465/745/83
f 462/755/93 463/756/3 467/759/96 466/758/95
f 463/756/3 464/757/94 468/760/97 467/759/96
f 464/757/94 439/726/64 442/729/67 468/760/97
f 465/745/83 466/758/95 484/761/98 487/748/86
f 466/758/95 467/759/96 481/762/99 484/761/98
f 467/759/96 468/760/97 478/763/100 481/762/99
f 468/760/97 442/729/67 475/732/70 478/763/100
f 453/738/76 446/735/73 469/764/101 454/749/87
f 446/735/73 445/734/72 470/765/102 469/764/101
f 454/749/87 469/764/101 471/766/103 455/751/89
f 469/764/101 470/765/102 472/767/104 471/766/103
f 455/751/89 471/766/103 473/768/105 456/753/91
f 471/766/103 472/767/104 474/769/106 473/768/105
f 456/753/91 473/768/105 434/720/58 433/719/57
f 473/768/105 474/769/106 435/723/61 434/720/58
f 475/732/70 476/731/69 479/770/107 478/763/100
f 476/731/69 477/733/71 480/771/108 479/770/107
f 478/763/100 479/770/107 482/772/109 481/762/99
f 479/770/107 480/771/108 483/773/110 482/772/109
f 481/762/99 482/772/109 485/774/111 484/761/98
f 482/772/109 483/773/110 486/775/112 485/774/111
f 484/761/98 485/774/111 488/746/84 487/748/86
f 485/774/111 486/775/112 489/747/85 488/746/84
f 490/776/129 493/777/130 494/778/131 491/779/132
f 491/779/132 494/778/131 495/780/133 492/781/134
f 493/777/130 496/782/135 497/783/136 494/778/131
f 494/778/131 497/783/136 498/784/137 495/780/133
f 496/782/135 499/785/138 500/786/139 497/783/136
f 497/783/136 500/786/139 501/787/140 498/784/137
f 499/785/138 532/788/141 533/789/142 500/786/139
f 500/786/139 533/789/142 534/790/143 501/787/140
f 502/791/144 504/792/145 505/793/146 503/794/147
f 503/794/147 505/793/146 514/795/148 510/796/149
f 504/792/145 506/797/150 507/798/151 505/793/146
f 505/793/146 507/798/151 518/799/152 514/795/148
f 506/797/150 508/800/153 509/801/154 507/798/151
f 507/798/151 509/801/154 522/802/155 518/799/152
f 508/800/153 546/803/156 545/804/157 509/801/154
f 509/801/154 545/804/157 544/805/158 522/802/155
f 510/796/149 514/795/148 515/806/159 511/807/160
f 511/807/160 515/806/159 516/808/161 512/809/162
f 512/809/162 516/808/161 517/810/163 513/811/164
f 513/811/164 517/810/163 493/777/130 490/776/129
f 514/795/148 518/799/152 519/812/165 515/806/159
f 515/806/159 519/812/165 520/813/5 516/808/161
f 516/808/161 520/813/5 521/814/166 517/810/163
f 517/810/163 521/814/166 496/782/135 493/777/130
f 518/799/152 522/802/155 523/815/167 519/812/165
f 519/812/165 523/815/167 524/816/168 520/813/5
f 520/813/5 524/816/168 525/817/169 521/814/166
f 521/814/166 525/817/169 499/785/138 496/782/135
f 522/802/155 544/805/158 541/818/170 523/815/167
f 523/815/167 541/818/170 538/819/171 524/816/168
f 524/816/168 538/819/171 535/820/172 525/817/169
f 525/817/169 535/820/172 532/788/141 499/785/138
f 510/796/149 511/807/160 526/821/173 503/794/147
f 503/794/147 526/821/173 527/822/174 502/791/144
f 511/807/160 512/809/162 528/823/175 526/821/173
f 526/821/173 528/823/175 529/824/176 527/822/174
f 512/809/162 513/811/164 530/825/177 528/823/175
f 528/823/175 530/825/177 531/826/178 529/824/176
f 513/811/164 490/776/129 491/779/132 530/825/177
f 530/825/177 491/779/132 492/781/134 531/826/178
f 532/788/141 535/820/172 536/827/179 533/789/142
f 533/789/142 536/827/179 537/828/180 534/790/143
f 535/820/172 538/819/171 539/829/181 536/827/179
f 536/827/179 539/829/181 540/830/182 537/828/180
f 538/819/171 541/818/170 542/831/183 539/829/181
f 539/829/181 542/831/183 543/832/184 540/830/182
f 541/818/170 544/805/158 545/804/157 542/831/183
f 542/831/183 545/804/157 546/803/156 543/832/184
f 562/833/3 552/834/3 553/835/3 551/836/3
f 561/837/3 562/833/3 551/836/3 548/838/3
f 564/839/5 560/840/5 559/841/5 558/842/5
f 563/843/5 554/844/5 560/840/5 564/839/5
f 550/845/113 557/846/113 558/847/30 552/848/30
f 553/849/114 559/850/114 560/851/115 551/852/115
f 549/853/116 556/854/116 557/846/113 550/845/113
f 561/855/24 563/856/24 555/857/24 547/858/24
f 551/852/27 560/851/27 554/859/27 548/860/27
f 552/848/30 558/847/30 559/850/114 553/849/114
f 547/861/33 555/862/33 556/854/33 549/853/33
f 548/863/24 554/864/24 563/856/24 561/855/24
f 555/865/5 563/843/5 564/839/5 556/866/5
f 547/867/3 549/868/3 562/833/3 561/837/3
f 556/866/5 564/839/5 558/842/5 557/869/5
f 549/868/3 550/870/3 552/834/3 562/833/3
f 596/871/3 570/872/3 571/873/3 569/874/3
f 598/875/3 596/871/3 569/874/3 581/876/3
f 593/877/5 578/878/5 577/879/5 576/880/5
f 595/881/5 585/882/5 578/878/5 593/877/5
f 568/883/117 575/884/117 576/885/24 570/886/24
f 571/887/118 577/888/118 578/889/119 569/890/119
f 567/891/120 574/892/120 575/884/117 568/883/117
f 589/893/121 592/894/121 573/895/122 565/896/122
f 582/897/33 586/898/33 572/899/33 566/900/33
f 570/886/24 576/885/24 577/888/118 571/887/118
f 580/901/27 584/902/27 574/892/27 567/891/27
f 565/896/27 573/895/27 583/903/27 579/904/27
f 579/904/27 583/903/27 584/902/27 580/901/27
f 569/890/33 578/889/33 585/905/33 581/906/33
f 581/906/33 585/905/33 586/898/33 582/897/33
f 599/907/5 572/908/5 586/909/5 594/910/5
f 594/910/185 586/909/185 585/882/185 595/881/185
f 600/911/3 566/912/3 587/913/3 588/914/3
f 597/915/186 598/875/186 581/876/186 582/916/186
f 566/900/125 572/899/125 590/917/126 587/918/126
f 587/918/126 590/917/126 591/919/30 588/920/30
f 588/921/30 591/922/30 592/894/121 589/893/121
f 583/923/185 594/910/185 595/881/185 584/924/185
f 584/924/5 595/881/5 593/877/5 574/925/5
f 574/925/5 593/877/5 576/880/5 575/926/5
f 579/927/186 580/928/186 598/875/186 597/915/186
f 580/928/3 567/929/3 596/871/3 598/875/3
f 567/929/3 568/930/3 570/872/3 596/871/3
f 565/931/3 600/911/3 588/914/3 589/932/3
f 573/933/5 599/907/5 594/910/5 583/923/5
f 592/934/5 591/935/5 599/907/5 573/933/5
f 591/935/5 590/936/5 572/908/5 599/907/5
f 597/915/3 582/916/3 566/912/3 600/911/3
f 579/927/3 597/915/3 600/911/3 565/931/3
f 601/937/129 604/938/130 605/939/131 602/940/132
f 602/940/132 605/939/131 606/941/133 603/942/134
f 604/938/130 607/943/135 608/944/136 605/939/131
f 605/939/131 608/944/136 609/945/137 606/941/133
f 607/943/135 610/946/138 611/947/139 608/944/136
f 608/944/136 611/947/139 612/948/140 609/945/137
f 610/946/138 643/949/141 644/950/142 611/947/139
f 611/947/139 644/950/142 645/951/143 612/948/140
f 613/952/144 615/953/145 616/954/146 614/955/147
f 614/955/147 616/954/146 625/956/148 621/957/149
f 615/953/145 617/958/150 618/959/151 616/954/146
f 616/954/146 618/959/151 629/960/152 625/956/148
f 617/958/150 619/961/153 620/962/154 618/959/151
f 618/959/151 620/962/154 633/963/155 629/960/152
f 619/961/153 657/964/156 656/965/157 620/962/154
f 620/962/154 656/965/157 655/966/158 633/963/155
f 621/957/149 625/956/148 626/967/159 622/968/160
f 622/968/160 626/967/159 627/969/161 623/970/162
f 623/970/162 627/969/161 628/971/163 624/972/164
f 624/972/164 628/971/163 604/938/130 601/937/129
f 625/956/148 629/960/152 630/973/165 626/967/159
f 626/967/159 630/973/165 631/974/5 627/969/161
f 627/969/161 631/974/5 632/975/166 628/971/163
f 628/971/163 632/975/166 607/943/135 604/938/130
f 629/960/152 633/963/155 634/976/167 630/973/165
f 630/973/165 634/976/167 635/977/168 631/974/5
f 631/974/5 635/977/168 636/978/169 632/975/166
f 632/975/166 636/978/169 610/946/138 607/943/135
f 633/963/155 655/966/158 652/979/170 634/976/167
f 634/976/167 652/979/170 649/980/171 635/977/168
f 635/977/168 649/980/171 646/981/172 636/978/169
f 636/978/169 646/981/172 643/949/141 610/946/138
f 621/957/149 622/968/160 637/982/173 614/955/147
f 614/955/147 637/982/173 638/983/174 613/952/144
f 622/968/160 623/970/162 639/984/175 637/982/173
f 637/982/173 639/984/175 640/985/187 638/983/174
f 623/970/162 624/972/164 641/986/177 639/984/175
f 639/984/175 641/986/177 642/987/178 640/985/187
f 624/972/164 601/937/129 602/940/132 641/986/177
f 641/986/177 602/940/132 603/942/134 642/987/178
f 643/949/141 646/981/172 647/988/179 644/950/142
f 644/950/142 647/988/179 648/989/180 645/951/143
f 646/981/172 649/980/171 650/990/181 647/988/179
f 647/988/179 650/990/181 651/991/182 648/989/180
f 649/980/171 652/979/170 653/992/183 650/990/181
f 650/990/181 653/992/183 654/993/184 651/991/182
f 652/979/170 655/966/158 656/965/157 653/992/183
f 653/992/183 656/965/157 657/964/156 654/993/184
f 658/994/129 661/995/130 662/996/131 659/997/132
f 659/997/132 662/996/131 663/998/133 660/999/134
f 661/995/130 664/1000/135 665/1001/136 662/996/131
f 662/996/131 665/1001/136 666/1002/137 663/998/133
f 664/1000/135 667/1003/138 668/1004/139 665/1001/136
f 665/1001/136 668/1004/139 669/1005/140 666/1002/137
f 667/1003/138 700/1006/141 701/1007/142 668/1004/139
f 668/1004/139 701/1007/142 702/1008/143 669/1005/140
f 670/1009/144 672/1010/145 673/1011/146 671/1012/147
f 671/1012/147 673/1011/146 682/1013/148 678/1014/149
f 672/1010/145 674/1015/150 675/1016/151 673/1011/146
f 673/1011/146 675/1016/151 686/1017/152 682/1013/148
f 674/1015/150 676/1018/153 677/1019/154 675/1016/151
f 675/1016/151 677/1019/154 690/1020/155 686/1017/152
f 676/1018/153 714/1021/156 713/1022/157 677/1019/154
f 677/1019/154 713/1022/157 712/1023/158 690/1020/155
f 678/1014/149 682/1013/148 683/1024/159 679/1025/160
f 679/1025/160 683/1024/159 684/1026/161 680/1027/162
f 680/1027/162 684/1026/161 685/1028/163 681/1029/164
f 681/1029/164 685/1028/163 661/995/130 658/994/129
f 682/1013/148 686/1017/152 687/1030/165 683/1024/159
f 683/1024/159 687/1030/165 688/1031/5 684/1026/161
f 684/1026/161 688/1031/5 689/1032/166 685/1028/163
f 685/1028/163 689/1032/166 664/1000/135 661/995/130
f 686/1017/152 690/1020/155 691/1033/167 687/1030/165
f 687/1030/165 691/1033/167 692/1034/168 688/1031/5
f 688/1031/5 692/1034/168 693/1035/169 689/1032/166
f 689/1032/166 693/1035/169 667/1003/138 664/1000/135
f 690/1020/155 712/1023/158 709/1036/170 691/1033/167
f 691/1033/167 709/1036/170 706/1037/171 692/1034/168
f 692/1034/168 706/1037/171 703/1038/172 693/1035/169
f 693/1035/169 703/1038/172 700/1006/141 667/1003/138
f 678/1014/149 679/1025/160 694/1039/173 671/1012/147
f 671/1012/147 694/1039/173 695/1040/174 670/1009/144
f 679/1025/160 680/1027/162 696/1041/175 694/1039/173
f 694/1039/173 696/1041/175 697/1042/187 695/1040/174
f 680/1027/162 681/1029/164 698/1043/177 696/1041/175
f 696/1041/175 698/1043/177 699/1044/178 697/1042/187
f 681/1029/164 658/994/129 659/997/132 698/1043/177
f 698/1043/177 659/997/132 660/999/134 699/1044/178
f 700/1006/141 703/1038/172 704/1045/179 701/1007/142
f 701/1007/142 704/1045/179 705/1046/180 702/1008/143
f 703/1038/172 706/1037/171 707/1047/181 704/1045/179
f 704/1045/179 707/1047/181 708/1048/182 705/1046/180
f 706/1037/171 709/1036/170 710/1049/183 707/1047/181
f 707/1047/181 710/1049/183 711/1050/184 708/1048/182
f 709/1036/170 712/1023/158 713/1022/157 710/1049/183
f 710/1049/183 713/1022/157 714/1021/156 711/1050/184
