# Blender 4.0.2
# www.blender.org
o cocktail_glass
v -0.054914 0.149328 -0.000000
v -0.012170 0.096247 -0.000000
v -0.007211 0.087622 -0.000000
v -0.004732 0.080629 -0.000000
v -0.003007 0.072745 -0.000000
v -0.002468 0.051939 -0.000000
v -0.002538 0.030486 -0.000000
v -0.003223 0.019490 -0.000000
v -0.005445 0.013363 -0.000000
v -0.009999 0.008884 -0.000000
v -0.020006 0.005677 -0.000000
v -0.030766 0.003369 -0.000000
v -0.031867 0.001863 -0.000000
v -0.032046 -0.000000 -0.000000
v -0.054413 0.150010 -0.000000
v -0.049888 0.148784 -0.000000
v -0.010520 0.103735 -0.000000
v -0.005970 0.100561 -0.000000
v 0.000000 0.099912 -0.000000
v 0.000000 0.000000 0.000000
v -0.050734 0.149328 0.021015
v -0.011244 0.096247 0.004657
v -0.006663 0.087622 0.002760
v -0.004372 0.080629 0.001811
v -0.002778 0.072745 0.001151
v -0.002280 0.051939 0.000944
v -0.002345 0.030486 0.000971
v -0.002977 0.019490 0.001233
v -0.005030 0.013363 0.002084
v -0.009238 0.008884 0.003826
v -0.018483 0.005677 0.007656
v -0.028424 0.003369 0.011773
v -0.029441 0.001863 0.012195
v -0.029607 -0.000000 0.012264
v -0.050271 0.150010 0.020823
v -0.046091 0.148784 0.019091
v -0.009719 0.103735 0.004026
v -0.005516 0.100561 0.002285
v -0.038830 0.149328 0.038830
v -0.008606 0.096247 0.008606
v -0.005099 0.087622 0.005099
v -0.003346 0.080629 0.003346
v -0.002126 0.072745 0.002126
v -0.001745 0.051939 0.001745
v -0.001795 0.030486 0.001795
v -0.002279 0.019490 0.002279
v -0.003850 0.013363 0.003850
v -0.007070 0.008884 0.007070
v -0.014146 0.005677 0.014146
v -0.021755 0.003369 0.021755
v -0.022533 0.001863 0.022533
v -0.022660 -0.000000 0.022660
v -0.038476 0.150010 0.038476
v -0.035276 0.148784 0.035276
v -0.007438 0.103735 0.007438
v -0.004222 0.100561 0.004222
v -0.021015 0.149328 0.050734
v -0.004657 0.096247 0.011244
v -0.002760 0.087622 0.006663
v -0.001811 0.080629 0.004372
v -0.001151 0.072745 0.002778
v -0.000945 0.051939 0.002280
v -0.000971 0.030486 0.002345
v -0.001233 0.019490 0.002977
v -0.002084 0.013363 0.005030
v -0.003826 0.008884 0.009238
v -0.007656 0.005677 0.018483
v -0.011774 0.003369 0.028424
v -0.012195 0.001863 0.029441
v -0.012264 -0.000000 0.029607
v -0.020823 0.150010 0.050271
v -0.019091 0.148784 0.046091
v -0.004026 0.103735 0.009719
v -0.002285 0.100561 0.005516
v -0.000000 0.149328 0.054914
v -0.000000 0.096247 0.012170
v -0.000000 0.087622 0.007211
v -0.000000 0.080629 0.004732
v -0.000000 0.072745 0.003007
v -0.000000 0.051939 0.002468
v -0.000000 0.030486 0.002538
v -0.000000 0.019490 0.003223
v -0.000000 0.013363 0.005445
v -0.000000 0.008884 0.009999
v -0.000000 0.005677 0.020006
v -0.000000 0.003369 0.030766
v -0.000000 0.001863 0.031867
v -0.000000 -0.000000 0.032046
v -0.000000 0.150010 0.054413
v -0.000000 0.148784 0.049888
v -0.000000 0.103735 0.010520
v -0.000000 0.100561 0.005970
v 0.021015 0.149328 0.050734
v 0.004657 0.096247 0.011244
v 0.002760 0.087622 0.006663
v 0.001811 0.080629 0.004372
v 0.001151 0.072745 0.002778
v 0.000944 0.051939 0.002280
v 0.000971 0.030486 0.002345
v 0.001233 0.019490 0.002977
v 0.002084 0.013363 0.005030
v 0.003826 0.008884 0.009238
v 0.007656 0.005677 0.018483
v 0.011773 0.003369 0.028424
v 0.012195 0.001863 0.029441
v 0.012264 -0.000000 0.029607
v 0.020823 0.150010 0.050271
v 0.019091 0.148784 0.046091
v 0.004026 0.103735 0.009719
v 0.002285 0.100561 0.005516
v 0.038830 0.149328 0.038830
v 0.008606 0.096247 0.008606
v 0.005099 0.087622 0.005099
v 0.003346 0.080629 0.003346
v 0.002126 0.072745 0.002126
v 0.001745 0.051939 0.001745
v 0.001795 0.030486 0.001795
v 0.002279 0.019490 0.002279
v 0.003850 0.013363 0.003850
v 0.007070 0.008884 0.007070
v 0.014146 0.005677 0.014146
v 0.021755 0.003369 0.021755
v 0.022533 0.001863 0.022533
v 0.022660 -0.000000 0.022660
v 0.038476 0.150010 0.038476
v 0.035276 0.148784 0.035276
v 0.007438 0.103735 0.007438
v 0.004222 0.100561 0.004222
v 0.050734 0.149328 0.021015
v 0.011244 0.096247 0.004657
v 0.006663 0.087622 0.002760
v 0.004372 0.080629 0.001811
v 0.002778 0.072745 0.001151
v 0.002280 0.051939 0.000945
v 0.002345 0.030486 0.000971
v 0.002977 0.019490 0.001233
v 0.005030 0.013363 0.002084
v 0.009238 0.008884 0.003826
v 0.018483 0.005677 0.007656
v 0.028424 0.003369 0.011774
v 0.029441 0.001863 0.012195
v 0.029607 -0.000000 0.012264
v 0.050271 0.150010 0.020823
v 0.046091 0.148784 0.019091
v 0.009719 0.103735 0.004026
v 0.005516 0.100561 0.002285
v 0.054914 0.149328 -0.000000
v 0.012170 0.096247 0.000000
v 0.007211 0.087622 0.000000
v 0.004732 0.080629 0.000000
v 0.003007 0.072745 0.000000
v 0.002468 0.051939 0.000000
v 0.002538 0.030486 0.000000
v 0.003223 0.019490 0.000000
v 0.005445 0.013363 0.000000
v 0.009999 0.008884 0.000000
v 0.020006 0.005677 0.000000
v 0.030766 0.003369 0.000000
v 0.031867 0.001863 0.000000
v 0.032046 -0.000000 0.000000
v 0.054413 0.150010 -0.000000
v 0.049888 0.148784 -0.000000
v 0.010520 0.103735 0.000000
v 0.005970 0.100561 0.000000
v 0.050734 0.149328 -0.021015
v 0.011244 0.096247 -0.004657
v 0.006663 0.087622 -0.002760
v 0.004372 0.080629 -0.001811
v 0.002778 0.072745 -0.001151
v 0.002280 0.051939 -0.000944
v 0.002345 0.030486 -0.000971
v 0.002977 0.019490 -0.001233
v 0.005030 0.013363 -0.002084
v 0.009238 0.008884 -0.003826
v 0.018483 0.005677 -0.007656
v 0.028424 0.003369 -0.011773
v 0.029441 0.001863 -0.012195
v 0.029607 -0.000000 -0.012264
v 0.050271 0.150010 -0.020823
v 0.046091 0.148784 -0.019091
v 0.009719 0.103735 -0.004026
v 0.005516 0.100561 -0.002285
v 0.038830 0.149328 -0.038830
v 0.008606 0.096247 -0.008606
v 0.005099 0.087622 -0.005099
v 0.003346 0.080629 -0.003346
v 0.002126 0.072745 -0.002126
v 0.001745 0.051939 -0.001745
v 0.001795 0.030486 -0.001795
v 0.002279 0.019490 -0.002279
v 0.003850 0.013363 -0.003850
v 0.007070 0.008884 -0.007070
v 0.014146 0.005677 -0.014146
v 0.021755 0.003369 -0.021755
v 0.022533 0.001863 -0.022533
v 0.022660 -0.000000 -0.022660
v 0.038476 0.150010 -0.038476
v 0.035276 0.148784 -0.035276
v 0.007438 0.103735 -0.007438
v 0.004222 0.100561 -0.004222
v 0.021015 0.149328 -0.050734
v 0.004657 0.096247 -0.011244
v 0.002760 0.087622 -0.006663
v 0.001811 0.080629 -0.004372
v 0.001151 0.072745 -0.002778
v 0.000945 0.051939 -0.002280
v 0.000971 0.030486 -0.002345
v 0.001233 0.019490 -0.002977
v 0.002084 0.013363 -0.005030
v 0.003826 0.008884 -0.009238
v 0.007656 0.005677 -0.018483
v 0.011774 0.003369 -0.028424
v 0.012195 0.001863 -0.029441
v 0.012264 -0.000000 -0.029607
v 0.020823 0.150010 -0.050271
v 0.019091 0.148784 -0.046091
v 0.004026 0.103735 -0.009719
v 0.002285 0.100561 -0.005516
v 0.000000 0.149328 -0.054914
v 0.000000 0.096247 -0.012170
v 0.000000 0.087622 -0.007211
v 0.000000 0.080629 -0.004732
v 0.000000 0.072745 -0.003007
v 0.000000 0.051939 -0.002468
v 0.000000 0.030486 -0.002538
v 0.000000 0.019490 -0.003223
v 0.000000 0.013363 -0.005445
v 0.000000 0.008884 -0.009999
v 0.000000 0.005677 -0.020006
v 0.000000 0.003369 -0.030766
v 0.000000 0.001863 -0.031867
v 0.000000 -0.000000 -0.032046
v 0.000000 0.150010 -0.054413
v 0.000000 0.148784 -0.049888
v 0.000000 0.103735 -0.010520
v 0.000000 0.100561 -0.005970
v -0.021015 0.149328 -0.050734
v -0.004657 0.096247 -0.011244
v -0.002760 0.087622 -0.006663
v -0.001811 0.080629 -0.004372
v -0.001151 0.072745 -0.002778
v -0.000944 0.051939 -0.002280
v -0.000971 0.030486 -0.002345
v -0.001233 0.019490 -0.002977
v -0.002084 0.013363 -0.005030
v -0.003826 0.008884 -0.009238
v -0.007656 0.005677 -0.018483
v -0.011773 0.003369 -0.028424
v -0.012195 0.001863 -0.029441
v -0.012264 -0.000000 -0.029607
v -0.020823 0.150010 -0.050271
v -0.019091 0.148784 -0.046091
v -0.004026 0.103735 -0.009719
v -0.002285 0.100561 -0.005516
v -0.038830 0.149328 -0.038830
v -0.008606 0.096247 -0.008606
v -0.005099 0.087622 -0.005099
v -0.003346 0.080629 -0.003346
v -0.002126 0.072745 -0.002126
v -0.001745 0.051939 -0.001745
v -0.001795 0.030486 -0.001795
v -0.002279 0.019490 -0.002279
v -0.003850 0.013363 -0.003850
v -0.007070 0.008884 -0.007070
v -0.014146 0.005677 -0.014146
v -0.021755 0.003369 -0.021755
v -0.022533 0.001863 -0.022533
v -0.022660 -0.000000 -0.022660
v -0.038476 0.150010 -0.038476
v -0.035276 0.148784 -0.035276
v -0.007438 0.103735 -0.007438
v -0.004222 0.100561 -0.004222
v -0.050734 0.149328 -0.021015
v -0.011244 0.096247 -0.004657
v -0.006663 0.087622 -0.002760
v -0.004372 0.080629 -0.001811
v -0.002778 0.072745 -0.001151
v -0.002280 0.051939 -0.000945
v -0.002345 0.030486 -0.000971
v -0.002977 0.019490 -0.001233
v -0.005030 0.013363 -0.002084
v -0.009238 0.008884 -0.003826
v -0.018483 0.005677 -0.007656
v -0.028424 0.003369 -0.011774
v -0.029441 0.001863 -0.012195
v -0.029607 -0.000000 -0.012264
v -0.050271 0.150010 -0.020823
v -0.046091 0.148784 -0.019091
v -0.009719 0.103735 -0.004026
v -0.005516 0.100561 -0.002285
v -0.033542 0.122787 -0.000000
v -0.030989 0.122787 0.012836
v -0.023718 0.122787 0.023718
v -0.012836 0.122787 0.030989
v -0.000000 0.122787 0.033542
v 0.012836 0.122787 0.030989
v 0.023718 0.122787 0.023718
v 0.030989 0.122787 0.012836
v 0.033542 0.122787 0.000000
v 0.030989 0.122787 -0.012836
v 0.023718 0.122787 -0.023718
v 0.012836 0.122787 -0.030989
v 0.000000 0.122787 -0.033542
v -0.012836 0.122787 -0.030989
v -0.023718 0.122787 -0.023718
v -0.030989 0.122787 -0.012836
v -0.030920 0.127407 -0.000000
v -0.028566 0.127407 0.011832
v -0.021863 0.127407 0.021863
v -0.011832 0.127407 0.028566
v -0.000000 0.127407 0.030920
v 0.011832 0.127407 0.028566
v 0.021863 0.127407 0.021863
v 0.028566 0.127407 0.011832
v 0.030920 0.127407 0.000000
v 0.028566 0.127407 -0.011832
v 0.021863 0.127407 -0.021863
v 0.011832 0.127407 -0.028566
v 0.000000 0.127407 -0.030920
v -0.011832 0.127407 -0.028566
v -0.021863 0.127407 -0.021863
v -0.028566 0.127407 -0.011832
v -0.052315 0.145578 -0.000000
v -0.048333 0.145578 0.020020
v -0.036992 0.145578 0.036992
v -0.020020 0.145578 0.048333
v -0.000000 0.145578 0.052315
v 0.020020 0.145578 0.048333
v 0.036992 0.145578 0.036992
v 0.048333 0.145578 0.020020
v 0.052315 0.145578 -0.000000
v 0.048333 0.145578 -0.020020
v 0.036992 0.145578 -0.036992
v 0.020020 0.145578 -0.048333
v 0.000000 0.145578 -0.052315
v -0.020020 0.145578 -0.048333
v -0.036992 0.145578 -0.036992
v -0.048333 0.145578 -0.020020
vn -0.7751 -0.6318 -0.0000
vn -0.8223 -0.5691 -0.0000
vn -0.7597 -0.5691 0.3147
vn -0.7161 -0.6318 0.2966
vn -0.5814 -0.5691 0.5814
vn -0.5481 -0.6318 0.5481
vn -0.3147 -0.5691 0.7597
vn -0.2966 -0.6318 0.7161
vn -0.0000 -0.5691 0.8223
vn -0.0000 -0.6318 0.7751
vn 0.3147 -0.5691 0.7597
vn 0.2966 -0.6318 0.7161
vn 0.5814 -0.5691 0.5814
vn 0.5481 -0.6318 0.5481
vn 0.7597 -0.5691 0.3147
vn 0.7161 -0.6318 0.2966
vn 0.8223 -0.5691 -0.0000
vn 0.7751 -0.6318 -0.0000
vn 0.7597 -0.5691 -0.3147
vn 0.7161 -0.6318 -0.2966
vn 0.5814 -0.5691 -0.5814
vn 0.5481 -0.6318 -0.5481
vn 0.3147 -0.5691 -0.7597
vn 0.2966 -0.6318 -0.7161
vn -0.0000 -0.5691 -0.8223
vn -0.0000 -0.6318 -0.7751
vn -0.3147 -0.5691 -0.7597
vn -0.2966 -0.6318 -0.7161
vn -0.5814 -0.5691 -0.5814
vn -0.5481 -0.6318 -0.5481
vn -0.7597 -0.5691 -0.3147
vn -0.7161 -0.6318 -0.2966
vn -0.9064 -0.4224 -0.0000
vn -0.8374 -0.4224 0.3469
vn -0.6409 -0.4224 0.6409
vn -0.3469 -0.4224 0.8374
vn -0.0000 -0.4224 0.9064
vn 0.3469 -0.4224 0.8374
vn 0.6409 -0.4224 0.6409
vn 0.8374 -0.4224 0.3469
vn 0.9064 -0.4224 -0.0000
vn 0.8374 -0.4224 -0.3469
vn 0.6409 -0.4224 -0.6409
vn 0.3469 -0.4224 -0.8374
vn -0.0000 -0.4224 -0.9064
vn -0.3469 -0.4224 -0.8374
vn -0.6409 -0.4224 -0.6409
vn -0.8374 -0.4224 -0.3469
vn -0.9610 -0.2766 -0.0000
vn -0.8878 -0.2766 0.3678
vn -0.6795 -0.2766 0.6795
vn -0.3678 -0.2766 0.8878
vn -0.0000 -0.2766 0.9610
vn 0.3678 -0.2766 0.8878
vn 0.6795 -0.2766 0.6795
vn 0.8878 -0.2766 0.3678
vn 0.9610 -0.2766 -0.0000
vn 0.8878 -0.2766 -0.3678
vn 0.6795 -0.2766 -0.6795
vn 0.3678 -0.2766 -0.8878
vn -0.0000 -0.2766 -0.9610
vn -0.3678 -0.2766 -0.8878
vn -0.6795 -0.2766 -0.6795
vn -0.8878 -0.2766 -0.3678
vn -0.9926 -0.1218 -0.0000
vn -0.9170 -0.1218 0.3798
vn -0.7018 -0.1218 0.7018
vn -0.3798 -0.1218 0.9170
vn -0.0000 -0.1218 0.9926
vn 0.3798 -0.1218 0.9170
vn 0.7018 -0.1218 0.7018
vn 0.9170 -0.1218 0.3798
vn 0.9926 -0.1218 -0.0000
vn 0.9170 -0.1218 -0.3798
vn 0.7018 -0.1218 -0.7018
vn 0.3798 -0.1218 -0.9170
vn -0.0000 -0.1218 -0.9926
vn -0.3798 -0.1218 -0.9170
vn -0.7018 -0.1218 -0.7018
vn -0.9170 -0.1218 -0.3798
vn -0.9999 -0.0113 -0.0000
vn -0.9238 -0.0113 0.3826
vn -0.7071 -0.0113 0.7071
vn -0.3827 -0.0113 0.9238
vn -0.0000 -0.0113 0.9999
vn 0.3826 -0.0113 0.9238
vn 0.7071 -0.0113 0.7071
vn 0.9238 -0.0113 0.3827
vn 0.9999 -0.0113 -0.0000
vn 0.9238 -0.0113 -0.3826
vn 0.7071 -0.0113 -0.7071
vn 0.3827 -0.0113 -0.9238
vn -0.0000 -0.0113 -0.9999
vn -0.3826 -0.0113 -0.9238
vn -0.7071 -0.0113 -0.7071
vn -0.9238 -0.0113 -0.3827
vn -0.9995 0.0328 -0.0000
vn -0.9234 0.0328 0.3825
vn -0.7067 0.0328 0.7067
vn -0.3825 0.0328 0.9234
vn -0.0000 0.0328 0.9995
vn 0.3825 0.0328 0.9234
vn 0.7067 0.0328 0.7067
vn 0.9234 0.0328 0.3825
vn 0.9995 0.0328 -0.0000
vn 0.9234 0.0328 -0.3825
vn 0.7067 0.0328 -0.7067
vn 0.3825 0.0328 -0.9234
vn -0.0000 0.0328 -0.9995
vn -0.3825 0.0328 -0.9234
vn -0.7067 0.0328 -0.7067
vn -0.9234 0.0328 -0.3825
vn -0.9783 0.2072 -0.0000
vn -0.9038 0.2072 0.3744
vn -0.6918 0.2072 0.6918
vn -0.3744 0.2072 0.9038
vn -0.0000 0.2072 0.9783
vn 0.3744 0.2072 0.9038
vn 0.6918 0.2072 0.6918
vn 0.9038 0.2072 0.3744
vn 0.9783 0.2072 -0.0000
vn 0.9038 0.2072 -0.3744
vn 0.6918 0.2072 -0.6918
vn 0.3744 0.2072 -0.9038
vn -0.0000 0.2072 -0.9783
vn -0.3744 0.2072 -0.9038
vn -0.6918 0.2072 -0.6918
vn -0.9038 0.2072 -0.3744
vn -0.8331 0.5532 -0.0000
vn -0.7696 0.5532 0.3188
vn -0.5891 0.5532 0.5891
vn -0.3188 0.5532 0.7696
vn -0.0000 0.5532 0.8331
vn 0.3188 0.5532 0.7696
vn 0.5891 0.5532 0.5891
vn 0.7696 0.5532 0.3188
vn 0.8331 0.5532 -0.0000
vn 0.7696 0.5532 -0.3188
vn 0.5891 0.5532 -0.5891
vn 0.3188 0.5532 -0.7696
vn -0.0000 0.5532 -0.8331
vn -0.3188 0.5532 -0.7696
vn -0.5891 0.5532 -0.5891
vn -0.7696 0.5532 -0.3188
vn -0.4955 0.8686 -0.0000
vn -0.4577 0.8686 0.1896
vn -0.3503 0.8686 0.3503
vn -0.1896 0.8686 0.4577
vn -0.0000 0.8686 0.4955
vn 0.1896 0.8686 0.4577
vn 0.3503 0.8686 0.3503
vn 0.4577 0.8686 0.1896
vn 0.4955 0.8686 -0.0000
vn 0.4577 0.8686 -0.1896
vn 0.3503 0.8686 -0.3503
vn 0.1896 0.8686 -0.4577
vn -0.0000 0.8686 -0.4955
vn -0.1896 0.8686 -0.4577
vn -0.3503 0.8686 -0.3503
vn -0.4577 0.8686 -0.1896
vn -0.2520 0.9677 -0.0000
vn -0.2328 0.9677 0.0964
vn -0.1782 0.9677 0.1782
vn -0.0964 0.9677 0.2328
vn -0.0000 0.9677 0.2520
vn 0.0964 0.9677 0.2328
vn 0.1782 0.9677 0.1782
vn 0.2328 0.9677 0.0964
vn 0.2520 0.9677 -0.0000
vn 0.2328 0.9677 -0.0964
vn 0.1782 0.9677 -0.1782
vn 0.0964 0.9677 -0.2328
vn -0.0000 0.9677 -0.2520
vn -0.0964 0.9677 -0.2328
vn -0.1782 0.9677 -0.1782
vn -0.2328 0.9677 -0.0964
vn -0.5740 0.8189 -0.0000
vn -0.5303 0.8189 0.2197
vn -0.4059 0.8189 0.4059
vn -0.2197 0.8189 0.5303
vn -0.0000 0.8189 0.5740
vn 0.2197 0.8189 0.5303
vn 0.4059 0.8189 0.4059
vn 0.5303 0.8189 0.2197
vn 0.5740 0.8189 -0.0000
vn 0.5303 0.8189 -0.2197
vn 0.4059 0.8189 -0.4059
vn 0.2197 0.8189 -0.5303
vn -0.0000 0.8189 -0.5740
vn -0.2197 0.8189 -0.5303
vn -0.4059 0.8189 -0.4059
vn -0.5303 0.8189 -0.2197
vn -0.9385 0.3453 -0.0000
vn -0.8670 0.3453 0.3591
vn -0.6636 0.3453 0.6636
vn -0.3591 0.3453 0.8670
vn -0.0000 0.3453 0.9385
vn 0.3591 0.3453 0.8670
vn 0.6636 0.3453 0.6636
vn 0.8670 0.3453 0.3591
vn 0.9385 0.3453 -0.0000
vn 0.8670 0.3453 -0.3591
vn 0.6636 0.3453 -0.6636
vn 0.3591 0.3453 -0.8670
vn -0.0000 0.3453 -0.9385
vn -0.3591 0.3453 -0.8670
vn -0.6636 0.3453 -0.6636
vn -0.8670 0.3453 -0.3591
vn -0.9954 0.0961 -0.0000
vn -0.9196 0.0961 0.3809
vn -0.7038 0.0961 0.7038
vn -0.3809 0.0961 0.9196
vn -0.0000 0.0961 0.9954
vn 0.3809 0.0961 0.9196
vn 0.7038 0.0961 0.7038
vn 0.9196 0.0961 0.3809
vn 0.9954 0.0961 -0.0000
vn 0.9196 0.0961 -0.3809
vn 0.7038 0.0961 -0.7038
vn 0.3809 0.0961 -0.9196
vn -0.0000 0.0961 -0.9954
vn -0.3809 0.0961 -0.9196
vn -0.7038 0.0961 -0.7038
vn -0.9196 0.0961 -0.3809
vn -0.8061 0.5918 -0.0000
vn -0.7447 0.5918 0.3085
vn -0.5700 0.5918 0.5700
vn -0.3085 0.5918 0.7447
vn -0.0000 0.5918 0.8061
vn 0.3085 0.5918 0.7447
vn 0.5700 0.5918 0.5700
vn 0.7447 0.5918 0.3085
vn 0.8061 0.5918 -0.0000
vn 0.7447 0.5918 -0.3085
vn 0.5700 0.5918 -0.5700
vn 0.3085 0.5918 -0.7447
vn -0.0000 0.5918 -0.8061
vn -0.3085 0.5918 -0.7447
vn -0.5700 0.5918 -0.5700
vn -0.7447 0.5918 -0.3085
vn 0.4999 0.8661 -0.0000
vn 0.2613 0.9652 -0.0000
vn 0.2414 0.9652 -0.1000
vn 0.4619 0.8661 -0.1913
vn 0.1848 0.9652 -0.1848
vn 0.3535 0.8661 -0.3535
vn 0.1000 0.9652 -0.2414
vn 0.1913 0.8661 -0.4619
vn -0.0000 0.9652 -0.2613
vn -0.0000 0.8661 -0.4999
vn -0.1000 0.9652 -0.2414
vn -0.1913 0.8661 -0.4619
vn -0.1848 0.9652 -0.1848
vn -0.3535 0.8661 -0.3535
vn -0.2415 0.9652 -0.1000
vn -0.4619 0.8661 -0.1913
vn -0.2613 0.9652 -0.0000
vn -0.4999 0.8661 -0.0000
vn -0.2415 0.9652 0.1000
vn -0.4619 0.8661 0.1913
vn -0.1848 0.9652 0.1848
vn -0.3535 0.8661 0.3535
vn -0.1000 0.9652 0.2414
vn -0.1913 0.8661 0.4619
vn -0.0000 0.9652 0.2613
vn -0.0000 0.8661 0.4999
vn 0.1000 0.9652 0.2414
vn 0.1913 0.8661 0.4619
vn 0.1848 0.9652 0.1848
vn 0.3535 0.8661 0.3535
vn 0.2415 0.9652 0.1000
vn 0.4619 0.8661 0.1913
vn 0.7524 0.6587 -0.0000
vn 0.6951 0.6587 -0.2879
vn 0.5320 0.6587 -0.5320
vn 0.2879 0.6587 -0.6951
vn -0.0000 0.6587 -0.7524
vn -0.2879 0.6587 -0.6951
vn -0.5320 0.6587 -0.5320
vn -0.6951 0.6587 -0.2879
vn -0.7524 0.6587 -0.0000
vn -0.6951 0.6587 0.2879
vn -0.5320 0.6587 0.5320
vn -0.2879 0.6587 0.6951
vn -0.0000 0.6587 0.7524
vn 0.2879 0.6587 0.6951
vn 0.5320 0.6587 0.5320
vn 0.6951 0.6587 0.2879
vn 0.3776 0.9260 -0.0000
vn 0.6785 0.7346 -0.0000
vn 0.6269 0.7346 -0.2597
vn 0.3489 0.9260 -0.1445
vn 0.4798 0.7346 -0.4798
vn 0.2670 0.9260 -0.2670
vn 0.2597 0.7346 -0.6269
vn 0.1445 0.9260 -0.3489
vn -0.0000 0.7346 -0.6785
vn -0.0000 0.9260 -0.3776
vn -0.2597 0.7346 -0.6269
vn -0.1445 0.9260 -0.3489
vn -0.4798 0.7346 -0.4798
vn -0.2670 0.9260 -0.2670
vn -0.6269 0.7346 -0.2597
vn -0.3489 0.9260 -0.1445
vn -0.6785 0.7346 -0.0000
vn -0.3776 0.9260 -0.0000
vn -0.6269 0.7346 0.2597
vn -0.3489 0.9260 0.1445
vn -0.4798 0.7346 0.4798
vn -0.2670 0.9260 0.2670
vn -0.2597 0.7346 0.6269
vn -0.1445 0.9260 0.3489
vn -0.0000 0.7346 0.6785
vn -0.0000 0.9260 0.3776
vn 0.2597 0.7346 0.6269
vn 0.1445 0.9260 0.3489
vn 0.4798 0.7346 0.4798
vn 0.2670 0.9260 0.2670
vn 0.6269 0.7346 0.2597
vn 0.3489 0.9260 0.1445
vn -0.0000 1.0000 -0.0000
vn -0.0000 -1.0000 -0.0000
vn -0.7386 -0.6008 -0.3059
vn -0.7994 -0.6008 -0.0000
vn -0.5653 -0.6008 -0.5653
vn -0.3059 -0.6008 -0.7386
vn -0.0000 -0.6008 -0.7994
vn 0.3059 -0.6008 -0.7386
vn 0.5653 -0.6008 -0.5653
vn 0.7386 -0.6008 -0.3059
vn 0.7994 -0.6008 -0.0000
vn 0.7386 -0.6008 0.3059
vn 0.5653 -0.6008 0.5653
vn 0.3059 -0.6008 0.7386
vn -0.0000 -0.6008 0.7994
vn -0.3059 -0.6008 0.7386
vn -0.5653 -0.6008 0.5653
vn -0.7386 -0.6008 0.3059
vn -0.8219 -0.5697 -0.0000
vn -0.7593 -0.5697 0.3145
vn -0.5811 -0.5697 0.5811
vn -0.3145 -0.5697 0.7593
vn -0.0000 -0.5697 0.8219
vn 0.3145 -0.5697 0.7593
vn 0.5811 -0.5697 0.5811
vn 0.7593 -0.5697 0.3145
vn 0.8219 -0.5697 -0.0000
vn 0.7593 -0.5697 -0.3145
vn 0.5811 -0.5697 -0.5811
vn 0.3145 -0.5697 -0.7593
vn -0.0000 -0.5697 -0.8219
vn -0.3145 -0.5697 -0.7593
vn -0.5811 -0.5697 -0.5811
vn -0.7593 -0.5697 -0.3145
vt 0.674029 0.009277
vt 0.810093 0.009277
vt 0.810093 0.052092
vt 0.674029 0.052092
vt 0.810093 0.094907
vt 0.674029 0.094907
vt 0.810093 0.137721
vt 0.674029 0.137721
vt 0.810093 0.180536
vt 0.674029 0.180536
vt 0.810093 0.223351
vt 0.674029 0.223351
vt 0.810093 0.266165
vt 0.674029 0.266165
vt 0.810093 0.308980
vt 0.674029 0.308980
vt 0.810093 0.351795
vt 0.674029 0.351795
vt 0.810093 0.394610
vt 0.674029 0.394610
vt 0.810093 0.437424
vt 0.674029 0.437424
vt 0.810093 0.480239
vt 0.674029 0.480239
vt 0.810093 0.523054
vt 0.674029 0.523054
vt 0.810093 0.565868
vt 0.674029 0.565868
vt 0.810093 0.608683
vt 0.674029 0.608683
vt 0.810093 0.651498
vt 0.674029 0.651498
vt 0.810093 0.694313
vt 0.674029 0.694313
vt 0.849816 0.009277
vt 0.849816 0.052092
vt 0.849816 0.094907
vt 0.849816 0.137721
vt 0.849816 0.180536
vt 0.849816 0.223351
vt 0.849816 0.266165
vt 0.849816 0.308980
vt 0.849816 0.351795
vt 0.849816 0.394610
vt 0.849816 0.437424
vt 0.849816 0.480239
vt 0.849816 0.523054
vt 0.849816 0.565868
vt 0.849816 0.608683
vt 0.849816 0.651498
vt 0.849816 0.694313
vt 0.879444 0.009277
vt 0.879444 0.052092
vt 0.879444 0.094907
vt 0.879444 0.137721
vt 0.879444 0.180536
vt 0.879444 0.223351
vt 0.879444 0.266165
vt 0.879444 0.308980
vt 0.879444 0.351795
vt 0.879444 0.394610
vt 0.879444 0.437424
vt 0.879444 0.480239
vt 0.879444 0.523054
vt 0.879444 0.565868
vt 0.879444 0.608683
vt 0.879444 0.651498
vt 0.879444 0.694313
vt 0.538566 0.705816
vt 0.566143 0.705816
vt 0.566143 0.711799
vt 0.538566 0.711799
vt 0.566143 0.717782
vt 0.538566 0.717782
vt 0.566143 0.723765
vt 0.538566 0.723765
vt 0.566143 0.729748
vt 0.538566 0.729748
vt 0.566143 0.735731
vt 0.538566 0.735731
vt 0.566143 0.741714
vt 0.538566 0.741714
vt 0.566143 0.747697
vt 0.538566 0.747697
vt 0.566143 0.753680
vt 0.538566 0.753680
vt 0.566143 0.759663
vt 0.538566 0.759663
vt 0.566143 0.765646
vt 0.538566 0.765646
vt 0.566143 0.771630
vt 0.538566 0.771630
vt 0.566143 0.777613
vt 0.538566 0.777613
vt 0.566143 0.783596
vt 0.538566 0.783596
vt 0.566143 0.789579
vt 0.538566 0.789579
vt 0.566143 0.795562
vt 0.538566 0.795562
vt 0.566143 0.801545
vt 0.538566 0.801545
vt 0.637264 0.705816
vt 0.637264 0.711799
vt 0.637264 0.717782
vt 0.637264 0.723765
vt 0.637264 0.729748
vt 0.637264 0.735731
vt 0.637264 0.741714
vt 0.637264 0.747697
vt 0.637264 0.753680
vt 0.637264 0.759663
vt 0.637264 0.765646
vt 0.637264 0.771630
vt 0.637264 0.777613
vt 0.637264 0.783596
vt 0.637264 0.789579
vt 0.637264 0.795562
vt 0.637264 0.801545
vt 0.710573 0.705816
vt 0.710573 0.711799
vt 0.710573 0.717782
vt 0.710573 0.723765
vt 0.710573 0.729748
vt 0.710573 0.735731
vt 0.710573 0.741714
vt 0.710573 0.747697
vt 0.710573 0.753680
vt 0.710573 0.759663
vt 0.710573 0.765646
vt 0.710573 0.771629
vt 0.710573 0.777613
vt 0.710573 0.783596
vt 0.710573 0.789579
vt 0.710573 0.795562
vt 0.710573 0.801545
vt 0.748220 0.705816
vt 0.748220 0.711799
vt 0.748220 0.717782
vt 0.748220 0.723765
vt 0.748220 0.729748
vt 0.748220 0.735731
vt 0.748220 0.741714
vt 0.748220 0.747697
vt 0.748220 0.753680
vt 0.748220 0.759663
vt 0.748220 0.765646
vt 0.748220 0.771630
vt 0.748220 0.777613
vt 0.748220 0.783596
vt 0.748220 0.789579
vt 0.748220 0.795562
vt 0.748220 0.801545
vt 0.770491 0.705816
vt 0.770491 0.711799
vt 0.770491 0.717782
vt 0.770491 0.723765
vt 0.770491 0.729748
vt 0.770491 0.735731
vt 0.770491 0.741714
vt 0.770491 0.747697
vt 0.770491 0.753680
vt 0.770491 0.759663
vt 0.770491 0.765646
vt 0.770491 0.771630
vt 0.770491 0.777613
vt 0.770491 0.783596
vt 0.770491 0.789579
vt 0.770491 0.795562
vt 0.770491 0.801545
vt 0.792319 0.705816
vt 0.792319 0.711799
vt 0.792319 0.717782
vt 0.792319 0.723765
vt 0.792319 0.729748
vt 0.792319 0.735731
vt 0.792319 0.741714
vt 0.792319 0.747697
vt 0.792319 0.753680
vt 0.792319 0.759663
vt 0.792319 0.765646
vt 0.792319 0.771630
vt 0.792319 0.777613
vt 0.792319 0.783596
vt 0.792319 0.789579
vt 0.792319 0.795562
vt 0.792319 0.801545
vt 0.897998 0.009277
vt 0.936587 0.009277
vt 0.936587 0.045008
vt 0.897998 0.045008
vt 0.936587 0.080739
vt 0.897998 0.080739
vt 0.936587 0.116470
vt 0.897998 0.116470
vt 0.936587 0.152201
vt 0.897998 0.152201
vt 0.936587 0.187931
vt 0.897998 0.187931
vt 0.936587 0.223662
vt 0.897998 0.223662
vt 0.936587 0.259393
vt 0.897998 0.259393
vt 0.936587 0.295124
vt 0.897998 0.295124
vt 0.936587 0.330855
vt 0.897998 0.330855
vt 0.936587 0.366586
vt 0.897998 0.366586
vt 0.936587 0.402317
vt 0.897998 0.402317
vt 0.936587 0.438048
vt 0.897998 0.438048
vt 0.936587 0.473778
vt 0.897998 0.473778
vt 0.936587 0.509509
vt 0.897998 0.509509
vt 0.936587 0.545240
vt 0.897998 0.545240
vt 0.936587 0.580971
vt 0.897998 0.580971
vt 0.976999 0.009277
vt 0.976999 0.045008
vt 0.976999 0.080739
vt 0.976999 0.116470
vt 0.976999 0.152201
vt 0.976999 0.187931
vt 0.976999 0.223662
vt 0.976999 0.259393
vt 0.976999 0.295124
vt 0.976999 0.330855
vt 0.976999 0.366586
vt 0.976999 0.402317
vt 0.976999 0.438048
vt 0.976999 0.473778
vt 0.976999 0.509509
vt 0.976999 0.545240
vt 0.976999 0.580971
vt 0.983850 0.009277
vt 0.983850 0.045008
vt 0.983850 0.080739
vt 0.983850 0.116470
vt 0.983850 0.152201
vt 0.983850 0.187931
vt 0.983850 0.223662
vt 0.983850 0.259393
vt 0.983850 0.295124
vt 0.983850 0.330855
vt 0.983850 0.366586
vt 0.983850 0.402317
vt 0.983850 0.438048
vt 0.983850 0.473778
vt 0.983850 0.509509
vt 0.983850 0.545240
vt 0.983850 0.580971
vt 0.990723 0.009277
vt 0.990723 0.045008
vt 0.990723 0.080739
vt 0.990723 0.116470
vt 0.990723 0.152201
vt 0.990723 0.187931
vt 0.990723 0.223662
vt 0.990723 0.259393
vt 0.990723 0.295124
vt 0.990723 0.330855
vt 0.990723 0.366586
vt 0.990723 0.402317
vt 0.990723 0.438048
vt 0.990723 0.473778
vt 0.990723 0.509509
vt 0.990723 0.545240
vt 0.990723 0.580971
vt 0.406524 0.477130
vt 0.408787 0.480535
vt 0.315046 0.519361
vt 0.314259 0.515350
vt 0.213585 0.519360
vt 0.214392 0.515352
vt 0.119848 0.480531
vt 0.122128 0.477138
vt 0.048104 0.408786
vt 0.051509 0.406524
vt 0.009277 0.315047
vt 0.013288 0.314260
vt 0.009277 0.213588
vt 0.013285 0.214395
vt 0.048104 0.119849
vt 0.051498 0.122128
vt 0.119850 0.048102
vt 0.122113 0.051507
vt 0.213591 0.009277
vt 0.214379 0.013289
vt 0.315053 0.009280
vt 0.314245 0.013288
vt 0.408789 0.048109
vt 0.406509 0.051503
vt 0.480531 0.119855
vt 0.477126 0.122117
vt 0.519357 0.213591
vt 0.515345 0.214378
vt 0.519357 0.315051
vt 0.515349 0.314244
vt 0.480531 0.408789
vt 0.477137 0.406509
vt 0.394225 0.458794
vt 0.309914 0.493703
vt 0.218661 0.493691
vt 0.134361 0.458759
vt 0.069844 0.394225
vt 0.034934 0.309915
vt 0.034946 0.218664
vt 0.069877 0.134362
vt 0.134411 0.069844
vt 0.218724 0.034935
vt 0.309976 0.034949
vt 0.394275 0.069881
vt 0.458791 0.134415
vt 0.493700 0.218724
vt 0.493688 0.309975
vt 0.458758 0.394276
vt 0.329584 0.359503
vt 0.288190 0.377234
vt 0.243163 0.377774
vt 0.201356 0.361042
vt 0.169134 0.329585
vt 0.151404 0.288192
vt 0.150863 0.243164
vt 0.167595 0.201357
vt 0.199052 0.169135
vt 0.240446 0.151405
vt 0.285473 0.150865
vt 0.327280 0.167597
vt 0.359501 0.199054
vt 0.377232 0.240447
vt 0.377772 0.285475
vt 0.361041 0.327281
vt 0.272671 0.274964
vt 0.280491 0.285439
vt 0.271178 0.290020
vt 0.267962 0.277351
vt 0.260820 0.290689
vt 0.262698 0.277753
vt 0.250995 0.287344
vt 0.257680 0.276110
vt 0.243199 0.280492
vt 0.253673 0.272673
vt 0.238617 0.271179
vt 0.251287 0.267963
vt 0.237948 0.260822
vt 0.250884 0.262699
vt 0.241294 0.250997
vt 0.252527 0.257682
vt 0.248145 0.243200
vt 0.255965 0.253675
vt 0.257458 0.238618
vt 0.260674 0.251288
vt 0.267815 0.237950
vt 0.265938 0.250886
vt 0.277640 0.241295
vt 0.270956 0.252528
vt 0.285437 0.248146
vt 0.274963 0.255966
vt 0.290019 0.257460
vt 0.277349 0.260676
vt 0.290688 0.267817
vt 0.277751 0.265940
vt 0.287342 0.277642
vt 0.276109 0.270957
vt 0.264318 0.264319
vt 0.413610 0.520337
vt 0.388977 0.644178
vt 0.364343 0.520337
vt 0.318827 0.539191
vt 0.283990 0.574028
vt 0.265137 0.619544
vt 0.265136 0.668811
vt 0.283990 0.714328
vt 0.318827 0.749165
vt 0.364343 0.768018
vt 0.413610 0.768018
vt 0.459127 0.749165
vt 0.493963 0.714328
vt 0.512817 0.668811
vt 0.512817 0.619545
vt 0.493963 0.574028
vt 0.459127 0.539191
vt 0.556128 0.651498
vt 0.556128 0.694313
vt 0.556128 0.608683
vt 0.556128 0.565868
vt 0.556128 0.523054
vt 0.556128 0.480239
vt 0.556128 0.437424
vt 0.556128 0.394610
vt 0.556128 0.351795
vt 0.556128 0.308980
vt 0.556128 0.266165
vt 0.556128 0.223351
vt 0.556128 0.180536
vt 0.556128 0.137721
vt 0.556128 0.094907
vt 0.556128 0.052092
vt 0.556128 0.009277
vt 0.537911 0.009277
vt 0.537911 0.052092
vt 0.537911 0.094907
vt 0.537911 0.137721
vt 0.537911 0.180536
vt 0.537911 0.223351
vt 0.537911 0.266165
vt 0.537911 0.308980
vt 0.537911 0.351795
vt 0.537911 0.394610
vt 0.537911 0.437424
vt 0.537911 0.480239
vt 0.537911 0.523054
vt 0.537911 0.565868
vt 0.537911 0.608683
vt 0.537911 0.651498
vt 0.537911 0.694313
s 1
f 291/1/1 2/2/2 22/3/3 292/4/4
f 292/4/4 22/3/3 40/5/5 293/6/6
f 293/6/6 40/5/5 58/7/7 294/8/8
f 294/8/8 58/7/7 76/9/9 295/10/10
f 295/10/10 76/9/9 94/11/11 296/12/12
f 296/12/12 94/11/11 112/13/13 297/14/14
f 297/14/14 112/13/13 130/15/15 298/16/16
f 298/16/16 130/15/15 148/17/17 299/18/18
f 299/18/18 148/17/17 166/19/19 300/20/20
f 300/20/20 166/19/19 184/21/21 301/22/22
f 301/22/22 184/21/21 202/23/23 302/24/24
f 302/24/24 202/23/23 220/25/25 303/26/26
f 303/26/26 220/25/25 238/27/27 304/28/28
f 304/28/28 238/27/27 256/29/29 305/30/30
f 305/30/30 256/29/29 274/31/31 306/32/32
f 306/32/32 274/31/31 2/33/2 291/34/1
f 2/2/2 3/35/33 23/36/34 22/3/3
f 22/3/3 23/36/34 41/37/35 40/5/5
f 40/5/5 41/37/35 59/38/36 58/7/7
f 58/7/7 59/38/36 77/39/37 76/9/9
f 76/9/9 77/39/37 95/40/38 94/11/11
f 94/11/11 95/40/38 113/41/39 112/13/13
f 112/13/13 113/41/39 131/42/40 130/15/15
f 130/15/15 131/42/40 149/43/41 148/17/17
f 148/17/17 149/43/41 167/44/42 166/19/19
f 166/19/19 167/44/42 185/45/43 184/21/21
f 184/21/21 185/45/43 203/46/44 202/23/23
f 202/23/23 203/46/44 221/47/45 220/25/25
f 220/25/25 221/47/45 239/48/46 238/27/27
f 238/27/27 239/48/46 257/49/47 256/29/29
f 256/29/29 257/49/47 275/50/48 274/31/31
f 274/31/31 275/50/48 3/51/33 2/33/2
f 3/35/33 4/52/49 24/53/50 23/36/34
f 23/36/34 24/53/50 42/54/51 41/37/35
f 41/37/35 42/54/51 60/55/52 59/38/36
f 59/38/36 60/55/52 78/56/53 77/39/37
f 77/39/37 78/56/53 96/57/54 95/40/38
f 95/40/38 96/57/54 114/58/55 113/41/39
f 113/41/39 114/58/55 132/59/56 131/42/40
f 131/42/40 132/59/56 150/60/57 149/43/41
f 149/43/41 150/60/57 168/61/58 167/44/42
f 167/44/42 168/61/58 186/62/59 185/45/43
f 185/45/43 186/62/59 204/63/60 203/46/44
f 203/46/44 204/63/60 222/64/61 221/47/45
f 221/47/45 222/64/61 240/65/62 239/48/46
f 239/48/46 240/65/62 258/66/63 257/49/47
f 257/49/47 258/66/63 276/67/64 275/50/48
f 275/50/48 276/67/64 4/68/49 3/51/33
f 4/69/49 5/70/65 25/71/66 24/72/50
f 24/72/50 25/71/66 43/73/67 42/74/51
f 42/74/51 43/73/67 61/75/68 60/76/52
f 60/76/52 61/75/68 79/77/69 78/78/53
f 78/78/53 79/77/69 97/79/70 96/80/54
f 96/80/54 97/79/70 115/81/71 114/82/55
f 114/82/55 115/81/71 133/83/72 132/84/56
f 132/84/56 133/83/72 151/85/73 150/86/57
f 150/86/57 151/85/73 169/87/74 168/88/58
f 168/88/58 169/87/74 187/89/75 186/90/59
f 186/90/59 187/89/75 205/91/76 204/92/60
f 204/92/60 205/91/76 223/93/77 222/94/61
f 222/94/61 223/93/77 241/95/78 240/96/62
f 240/96/62 241/95/78 259/97/79 258/98/63
f 258/98/63 259/97/79 277/99/80 276/100/64
f 276/100/64 277/99/80 5/101/65 4/102/49
f 5/70/65 6/103/81 26/104/82 25/71/66
f 25/71/66 26/104/82 44/105/83 43/73/67
f 43/73/67 44/105/83 62/106/84 61/75/68
f 61/75/68 62/106/84 80/107/85 79/77/69
f 79/77/69 80/107/85 98/108/86 97/79/70
f 97/79/70 98/108/86 116/109/87 115/81/71
f 115/81/71 116/109/87 134/110/88 133/83/72
f 133/83/72 134/110/88 152/111/89 151/85/73
f 151/85/73 152/111/89 170/112/90 169/87/74
f 169/87/74 170/112/90 188/113/91 187/89/75
f 187/89/75 188/113/91 206/114/92 205/91/76
f 205/91/76 206/114/92 224/115/93 223/93/77
f 223/93/77 224/115/93 242/116/94 241/95/78
f 241/95/78 242/116/94 260/117/95 259/97/79
f 259/97/79 260/117/95 278/118/96 277/99/80
f 277/99/80 278/118/96 6/119/81 5/101/65
f 6/103/81 7/120/97 27/121/98 26/104/82
f 26/104/82 27/121/98 45/122/99 44/105/83
f 44/105/83 45/122/99 63/123/100 62/106/84
f 62/106/84 63/123/100 81/124/101 80/107/85
f 80/107/85 81/124/101 99/125/102 98/108/86
f 98/108/86 99/125/102 117/126/103 116/109/87
f 116/109/87 117/126/103 135/127/104 134/110/88
f 134/110/88 135/127/104 153/128/105 152/111/89
f 152/111/89 153/128/105 171/129/106 170/112/90
f 170/112/90 171/129/106 189/130/107 188/113/91
f 188/113/91 189/130/107 207/131/108 206/114/92
f 206/114/92 207/131/108 225/132/109 224/115/93
f 224/115/93 225/132/109 243/133/110 242/116/94
f 242/116/94 243/133/110 261/134/111 260/117/95
f 260/117/95 261/134/111 279/135/112 278/118/96
f 278/118/96 279/135/112 7/136/97 6/119/81
f 7/120/97 8/137/113 28/138/114 27/121/98
f 27/121/98 28/138/114 46/139/115 45/122/99
f 45/122/99 46/139/115 64/140/116 63/123/100
f 63/123/100 64/140/116 82/141/117 81/124/101
f 81/124/101 82/141/117 100/142/118 99/125/102
f 99/125/102 100/142/118 118/143/119 117/126/103
f 117/126/103 118/143/119 136/144/120 135/127/104
f 135/127/104 136/144/120 154/145/121 153/128/105
f 153/128/105 154/145/121 172/146/122 171/129/106
f 171/129/106 172/146/122 190/147/123 189/130/107
f 189/130/107 190/147/123 208/148/124 207/131/108
f 207/131/108 208/148/124 226/149/125 225/132/109
f 225/132/109 226/149/125 244/150/126 243/133/110
f 243/133/110 244/150/126 262/151/127 261/134/111
f 261/134/111 262/151/127 280/152/128 279/135/112
f 279/135/112 280/152/128 8/153/113 7/136/97
f 8/137/113 9/154/129 29/155/130 28/138/114
f 28/138/114 29/155/130 47/156/131 46/139/115
f 46/139/115 47/156/131 65/157/132 64/140/116
f 64/140/116 65/157/132 83/158/133 82/141/117
f 82/141/117 83/158/133 101/159/134 100/142/118
f 100/142/118 101/159/134 119/160/135 118/143/119
f 118/143/119 119/160/135 137/161/136 136/144/120
f 136/144/120 137/161/136 155/162/137 154/145/121
f 154/145/121 155/162/137 173/163/138 172/146/122
f 172/146/122 173/163/138 191/164/139 190/147/123
f 190/147/123 191/164/139 209/165/140 208/148/124
f 208/148/124 209/165/140 227/166/141 226/149/125
f 226/149/125 227/166/141 245/167/142 244/150/126
f 244/150/126 245/167/142 263/168/143 262/151/127
f 262/151/127 263/168/143 281/169/144 280/152/128
f 280/152/128 281/169/144 9/170/129 8/153/113
f 9/154/129 10/171/145 30/172/146 29/155/130
f 29/155/130 30/172/146 48/173/147 47/156/131
f 47/156/131 48/173/147 66/174/148 65/157/132
f 65/157/132 66/174/148 84/175/149 83/158/133
f 83/158/133 84/175/149 102/176/150 101/159/134
f 101/159/134 102/176/150 120/177/151 119/160/135
f 119/160/135 120/177/151 138/178/152 137/161/136
f 137/161/136 138/178/152 156/179/153 155/162/137
f 155/162/137 156/179/153 174/180/154 173/163/138
f 173/163/138 174/180/154 192/181/155 191/164/139
f 191/164/139 192/181/155 210/182/156 209/165/140
f 209/165/140 210/182/156 228/183/157 227/166/141
f 227/166/141 228/183/157 246/184/158 245/167/142
f 245/167/142 246/184/158 264/185/159 263/168/143
f 263/168/143 264/185/159 282/186/160 281/169/144
f 281/169/144 282/186/160 10/187/145 9/170/129
f 10/188/145 11/189/161 31/190/162 30/191/146
f 30/191/146 31/190/162 49/192/163 48/193/147
f 48/193/147 49/192/163 67/194/164 66/195/148
f 66/195/148 67/194/164 85/196/165 84/197/149
f 84/197/149 85/196/165 103/198/166 102/199/150
f 102/199/150 103/198/166 121/200/167 120/201/151
f 120/201/151 121/200/167 139/202/168 138/203/152
f 138/203/152 139/202/168 157/204/169 156/205/153
f 156/205/153 157/204/169 175/206/170 174/207/154
f 174/207/154 175/206/170 193/208/171 192/209/155
f 192/209/155 193/208/171 211/210/172 210/211/156
f 210/211/156 211/210/172 229/212/173 228/213/157
f 228/213/157 229/212/173 247/214/174 246/215/158
f 246/215/158 247/214/174 265/216/175 264/217/159
f 264/217/159 265/216/175 283/218/176 282/219/160
f 282/219/160 283/218/176 11/220/161 10/221/145
f 11/189/161 12/222/177 32/223/178 31/190/162
f 31/190/162 32/223/178 50/224/179 49/192/163
f 49/192/163 50/224/179 68/225/180 67/194/164
f 67/194/164 68/225/180 86/226/181 85/196/165
f 85/196/165 86/226/181 104/227/182 103/198/166
f 103/198/166 104/227/182 122/228/183 121/200/167
f 121/200/167 122/228/183 140/229/184 139/202/168
f 139/202/168 140/229/184 158/230/185 157/204/169
f 157/204/169 158/230/185 176/231/186 175/206/170
f 175/206/170 176/231/186 194/232/187 193/208/171
f 193/208/171 194/232/187 212/233/188 211/210/172
f 211/210/172 212/233/188 230/234/189 229/212/173
f 229/212/173 230/234/189 248/235/190 247/214/174
f 247/214/174 248/235/190 266/236/191 265/216/175
f 265/216/175 266/236/191 284/237/192 283/218/176
f 283/218/176 284/237/192 12/238/177 11/220/161
f 12/222/177 13/239/193 33/240/194 32/223/178
f 32/223/178 33/240/194 51/241/195 50/224/179
f 50/224/179 51/241/195 69/242/196 68/225/180
f 68/225/180 69/242/196 87/243/197 86/226/181
f 86/226/181 87/243/197 105/244/198 104/227/182
f 104/227/182 105/244/198 123/245/199 122/228/183
f 122/228/183 123/245/199 141/246/200 140/229/184
f 140/229/184 141/246/200 159/247/201 158/230/185
f 158/230/185 159/247/201 177/248/202 176/231/186
f 176/231/186 177/248/202 195/249/203 194/232/187
f 194/232/187 195/249/203 213/250/204 212/233/188
f 212/233/188 213/250/204 231/251/205 230/234/189
f 230/234/189 231/251/205 249/252/206 248/235/190
f 248/235/190 249/252/206 267/253/207 266/236/191
f 266/236/191 267/253/207 285/254/208 284/237/192
f 284/237/192 285/254/208 13/255/193 12/238/177
f 13/239/193 14/256/209 34/257/210 33/240/194
f 33/240/194 34/257/210 52/258/211 51/241/195
f 51/241/195 52/258/211 70/259/212 69/242/196
f 69/242/196 70/259/212 88/260/213 87/243/197
f 87/243/197 88/260/213 106/261/214 105/244/198
f 105/244/198 106/261/214 124/262/215 123/245/199
f 123/245/199 124/262/215 142/263/216 141/246/200
f 141/246/200 142/263/216 160/264/217 159/247/201
f 159/247/201 160/264/217 178/265/218 177/248/202
f 177/248/202 178/265/218 196/266/219 195/249/203
f 195/249/203 196/266/219 214/267/220 213/250/204
f 213/250/204 214/267/220 232/268/221 231/251/205
f 231/251/205 232/268/221 250/269/222 249/252/206
f 249/252/206 250/269/222 268/270/223 267/253/207
f 267/253/207 268/270/223 286/271/224 285/254/208
f 285/254/208 286/271/224 14/272/209 13/255/193
f 15/273/225 1/274/225 21/275/226 35/276/226
f 35/276/226 21/275/226 39/277/227 53/278/227
f 53/278/227 39/277/227 57/279/228 71/280/228
f 71/280/228 57/279/228 75/281/229 89/282/229
f 89/282/229 75/281/229 93/283/230 107/284/230
f 107/284/230 93/283/230 111/285/231 125/286/231
f 125/286/231 111/285/231 129/287/232 143/288/232
f 143/288/232 129/287/232 147/289/233 161/290/233
f 161/290/233 147/289/233 165/291/234 179/292/234
f 179/292/234 165/291/234 183/293/235 197/294/235
f 197/294/235 183/293/235 201/295/236 215/296/236
f 215/296/236 201/295/236 219/297/237 233/298/237
f 233/298/237 219/297/237 237/299/238 251/300/238
f 251/300/238 237/299/238 255/301/239 269/302/239
f 269/302/239 255/301/239 273/303/240 287/304/240
f 287/304/240 273/303/240 1/274/225 15/273/225
f 16/305/241 15/273/242 35/276/243 36/306/244
f 36/306/244 35/276/243 53/278/245 54/307/246
f 54/307/246 53/278/245 71/280/247 72/308/248
f 72/308/248 71/280/247 89/282/249 90/309/250
f 90/309/250 89/282/249 107/284/251 108/310/252
f 108/310/252 107/284/251 125/286/253 126/311/254
f 126/311/254 125/286/253 143/288/255 144/312/256
f 144/312/256 143/288/255 161/290/257 162/313/258
f 162/313/258 161/290/257 179/292/259 180/314/260
f 180/314/260 179/292/259 197/294/261 198/315/262
f 198/315/262 197/294/261 215/296/263 216/316/264
f 216/316/264 215/296/263 233/298/265 234/317/266
f 234/317/266 233/298/265 251/300/267 252/318/268
f 252/318/268 251/300/267 269/302/269 270/319/270
f 270/319/270 269/302/269 287/304/271 288/320/272
f 288/320/272 287/304/271 15/273/242 16/305/241
f 307/321/273 16/305/241 36/306/244 308/322/274
f 308/322/274 36/306/244 54/307/246 309/323/275
f 309/323/275 54/307/246 72/308/248 310/324/276
f 310/324/276 72/308/248 90/309/250 311/325/277
f 311/325/277 90/309/250 108/310/252 312/326/278
f 312/326/278 108/310/252 126/311/254 313/327/279
f 313/327/279 126/311/254 144/312/256 314/328/280
f 314/328/280 144/312/256 162/313/258 315/329/281
f 315/329/281 162/313/258 180/314/260 316/330/282
f 316/330/282 180/314/260 198/315/262 317/331/283
f 317/331/283 198/315/262 216/316/264 318/332/284
f 318/332/284 216/316/264 234/317/266 319/333/285
f 319/333/285 234/317/266 252/318/268 320/334/286
f 320/334/286 252/318/268 270/319/270 321/335/287
f 321/335/287 270/319/270 288/320/272 322/336/288
f 322/336/288 288/320/272 16/305/241 307/321/273
f 18/337/289 17/338/290 37/339/291 38/340/292
f 38/340/292 37/339/291 55/341/293 56/342/294
f 56/342/294 55/341/293 73/343/295 74/344/296
f 74/344/296 73/343/295 91/345/297 92/346/298
f 92/346/298 91/345/297 109/347/299 110/348/300
f 110/348/300 109/347/299 127/349/301 128/350/302
f 128/350/302 127/349/301 145/351/303 146/352/304
f 146/352/304 145/351/303 163/353/305 164/354/306
f 164/354/306 163/353/305 181/355/307 182/356/308
f 182/356/308 181/355/307 199/357/309 200/358/310
f 200/358/310 199/357/309 217/359/311 218/360/312
f 218/360/312 217/359/311 235/361/313 236/362/314
f 236/362/314 235/361/313 253/363/315 254/364/316
f 254/364/316 253/363/315 271/365/317 272/366/318
f 272/366/318 271/365/317 289/367/319 290/368/320
f 290/368/320 289/367/319 17/338/290 18/337/289
f 19/369/321 18/337/289 38/340/292
f 19/369/321 38/340/292 56/342/294
f 19/369/321 56/342/294 74/344/296
f 19/369/321 74/344/296 92/346/298
f 19/369/321 92/346/298 110/348/300
f 19/369/321 110/348/300 128/350/302
f 19/369/321 128/350/302 146/352/304
f 19/369/321 146/352/304 164/354/306
f 19/369/321 164/354/306 182/356/308
f 19/369/321 182/356/308 200/358/310
f 19/369/321 200/358/310 218/360/312
f 19/369/321 218/360/312 236/362/314
f 19/369/321 236/362/314 254/364/316
f 19/369/321 254/364/316 272/366/318
f 19/369/321 272/366/318 290/368/320
f 19/369/321 290/368/320 18/337/289
f 14/370/322 20/371/322 34/372/322
f 34/372/322 20/371/322 52/373/322
f 52/373/322 20/371/322 70/374/322
f 70/374/322 20/371/322 88/375/322
f 88/375/322 20/371/322 106/376/322
f 106/376/322 20/371/322 124/377/322
f 124/377/322 20/371/322 142/378/322
f 142/378/322 20/371/322 160/379/322
f 160/379/322 20/371/322 178/380/322
f 178/380/322 20/371/322 196/381/322
f 196/381/322 20/371/322 214/382/322
f 214/382/322 20/371/322 232/383/322
f 232/383/322 20/371/322 250/384/322
f 250/384/322 20/371/322 268/385/322
f 268/385/322 20/371/322 286/386/322
f 286/386/322 20/371/322 14/370/322
f 338/387/323 306/32/32 291/34/1 323/388/324
f 337/389/325 305/30/30 306/32/32 338/387/323
f 336/390/326 304/28/28 305/30/30 337/389/325
f 335/391/327 303/26/26 304/28/28 336/390/326
f 334/392/328 302/24/24 303/26/26 335/391/327
f 333/393/329 301/22/22 302/24/24 334/392/328
f 332/394/330 300/20/20 301/22/22 333/393/329
f 331/395/331 299/18/18 300/20/20 332/394/330
f 330/396/332 298/16/16 299/18/18 331/395/331
f 329/397/333 297/14/14 298/16/16 330/396/332
f 328/398/334 296/12/12 297/14/14 329/397/333
f 327/399/335 295/10/10 296/12/12 328/398/334
f 326/400/336 294/8/8 295/10/10 327/399/335
f 325/401/337 293/6/6 294/8/8 326/400/336
f 324/402/338 292/4/4 293/6/6 325/401/337
f 323/403/324 291/1/1 292/4/4 324/402/338
f 289/367/319 322/336/288 307/321/273 17/338/290
f 271/365/317 321/335/287 322/336/288 289/367/319
f 253/363/315 320/334/286 321/335/287 271/365/317
f 235/361/313 319/333/285 320/334/286 253/363/315
f 217/359/311 318/332/284 319/333/285 235/361/313
f 199/357/309 317/331/283 318/332/284 217/359/311
f 181/355/307 316/330/282 317/331/283 199/357/309
f 163/353/305 315/329/281 316/330/282 181/355/307
f 145/351/303 314/328/280 315/329/281 163/353/305
f 127/349/301 313/327/279 314/328/280 145/351/303
f 109/347/299 312/326/278 313/327/279 127/349/301
f 91/345/297 311/325/277 312/326/278 109/347/299
f 73/343/295 310/324/276 311/325/277 91/345/297
f 55/341/293 309/323/275 310/324/276 73/343/295
f 37/339/291 308/322/274 309/323/275 55/341/293
f 17/338/290 307/321/273 308/322/274 37/339/291
f 1/404/339 323/403/324 324/402/338 21/405/340
f 21/405/340 324/402/338 325/401/337 39/406/341
f 39/406/341 325/401/337 326/400/336 57/407/342
f 57/407/342 326/400/336 327/399/335 75/408/343
f 75/408/343 327/399/335 328/398/334 93/409/344
f 93/409/344 328/398/334 329/397/333 111/410/345
f 111/410/345 329/397/333 330/396/332 129/411/346
f 129/411/346 330/396/332 331/395/331 147/412/347
f 147/412/347 331/395/331 332/394/330 165/413/348
f 165/413/348 332/394/330 333/393/329 183/414/349
f 183/414/349 333/393/329 334/392/328 201/415/350
f 201/415/350 334/392/328 335/391/327 219/416/351
f 219/416/351 335/391/327 336/390/326 237/417/352
f 237/417/352 336/390/326 337/389/325 255/418/353
f 255/418/353 337/389/325 338/387/323 273/419/354
f 273/419/354 338/387/323 323/388/324 1/420/339
