# Blender 4.0.2
# www.blender.org
o breastplate_armor_02
v 0.000000 0.204879 0.036884
v 0.021581 0.205693 0.035349
v 0.022899 0.186715 0.040506
v 0.000000 0.185192 0.043803
v 0.025918 0.138075 0.053862
v 0.000000 0.136291 0.060053
v 0.029348 0.083323 0.064457
v 0.000000 0.080231 0.071422
v 0.030162 0.052999 0.067421
v 0.000000 0.050595 0.074904
v 0.030657 0.022144 0.068323
v 0.000000 0.019531 0.076485
v 0.030202 -0.009865 0.067294
v 0.000000 -0.012233 0.076496
v 0.028614 -0.041656 0.064323
v 0.000000 -0.043458 0.073351
v 0.026448 -0.074945 0.057748
v 0.000000 -0.077272 0.066031
v 0.023177 -0.110393 0.047148
v 0.000000 -0.113359 0.050887
v 0.030618 -0.133324 0.057678
v 0.000000 -0.123169 0.056205
v 0.052338 -0.105566 0.036573
v 0.060033 -0.131197 0.050498
v 0.079348 -0.099970 0.022880
v 0.089603 -0.126241 0.038289
v 0.144954 -0.080799 -0.030737
v 0.163659 -0.102665 -0.016905
v 0.159280 -0.076694 -0.056859
v 0.179923 -0.097735 -0.044361
v 0.169187 -0.074724 -0.085711
v 0.189859 -0.095391 -0.076054
v 0.163697 -0.023803 -0.061892
v 0.169771 -0.023164 -0.094091
v 0.055293 -0.070420 0.044258
v 0.081969 -0.066230 0.028930
v 0.147189 -0.054853 -0.031567
v 0.169493 -0.050873 -0.089864
v 0.161269 -0.052348 -0.059742
v 0.058268 -0.037422 0.050278
v 0.085630 -0.033652 0.034944
v 0.150472 -0.025760 -0.031115
v 0.060013 -0.006448 0.053803
v 0.088151 -0.003083 0.037555
v 0.154311 0.002007 -0.030234
v 0.165474 0.002854 -0.062965
v 0.171166 0.003632 -0.095598
v 0.060793 0.026905 0.055871
v 0.090166 0.032297 0.039597
v 0.156809 0.028884 -0.030471
v 0.167569 0.028354 -0.063698
v 0.172572 0.029423 -0.096735
v 0.060211 0.058114 0.055528
v 0.090368 0.064419 0.040507
v 0.159572 0.055064 -0.031742
v 0.169692 0.053097 -0.062561
v 0.174002 0.055744 -0.096334
v 0.057803 0.087806 0.054532
v 0.051903 0.142686 0.045941
v 0.045238 0.192300 0.033267
v 0.076581 0.149787 0.035963
v 0.085691 0.095558 0.041751
v 0.067874 0.199269 0.023608
v 0.041663 0.209860 0.028317
v 0.059402 0.217810 0.018634
v 0.073543 0.228561 0.005979
v 0.092754 0.211114 0.008977
v 0.083525 0.240431 -0.009478
v 0.102497 0.233882 -0.010323
v 0.105884 0.249464 -0.028371
v 0.088813 0.251812 -0.026239
v 0.120751 0.229426 -0.012105
v 0.122133 0.245792 -0.029352
v 0.120275 0.208769 0.003214
v 0.097142 0.183029 0.020237
v 0.120378 0.187256 0.012643
v 0.163541 0.076412 -0.032093
v 0.172014 0.073239 -0.060432
v 0.175438 0.074562 -0.086503
v 0.141108 0.100379 0.007808
v 0.122209 0.073365 0.020305
v 0.132533 0.119659 0.016369
v 0.111845 0.105831 0.028380
v 0.123007 0.164860 0.017873
v 0.100711 0.157758 0.026680
v 0.126479 0.141388 0.019676
v 0.105066 0.132496 0.029228
v 0.024279 0.164337 0.046536
v 0.000000 0.161962 0.051901
v 0.048614 0.168928 0.039515
v 0.072277 0.174666 0.030794
v 0.000000 0.109052 0.067115
v 0.027440 0.111664 0.060259
v 0.054805 0.115969 0.050806
v 0.080828 0.123576 0.040186
v 0.141882 -0.110474 0.004589
v 0.128599 -0.086745 -0.009278
v 0.130758 -0.057530 -0.008698
v 0.134251 -0.027026 -0.006815
v 0.137298 0.002152 -0.004511
v 0.139962 0.032315 -0.004203
v 0.144110 0.061794 -0.006588
v 0.150453 0.086347 -0.008689
v 0.116753 -0.119163 0.022889
v 0.108782 -0.061896 0.011825
v 0.105738 -0.093664 0.008386
v 0.111472 -0.030153 0.016387
v 0.115056 0.000475 0.019788
v 0.118252 0.035079 0.020473
v -0.021581 0.205693 0.035349
v -0.022899 0.186715 0.040506
v -0.025918 0.138075 0.053862
v -0.029348 0.083323 0.064457
v -0.030162 0.052999 0.067421
v -0.030657 0.022144 0.068323
v -0.030202 -0.009865 0.067294
v -0.028614 -0.041656 0.064323
v -0.026448 -0.074945 0.057748
v -0.023177 -0.110393 0.047148
v -0.030618 -0.133324 0.057678
v -0.052338 -0.105566 0.036573
v -0.060033 -0.131197 0.050498
v -0.079348 -0.099970 0.022880
v -0.089603 -0.126241 0.038289
v -0.144954 -0.080799 -0.030737
v -0.163659 -0.102665 -0.016905
v -0.159280 -0.076694 -0.056859
v -0.179923 -0.097735 -0.044361
v -0.169187 -0.074724 -0.085711
v -0.189859 -0.095391 -0.076054
v -0.163697 -0.023803 -0.061892
v -0.169771 -0.023164 -0.094091
v -0.055293 -0.070420 0.044258
v -0.081969 -0.066230 0.028930
v -0.147189 -0.054853 -0.031567
v -0.169493 -0.050873 -0.089864
v -0.161269 -0.052348 -0.059742
v -0.058268 -0.037422 0.050278
v -0.085630 -0.033652 0.034944
v -0.150472 -0.025760 -0.031115
v -0.060013 -0.006448 0.053803
v -0.088151 -0.003083 0.037555
v -0.154311 0.002007 -0.030234
v -0.165474 0.002854 -0.062965
v -0.171166 0.003632 -0.095598
v -0.060793 0.026905 0.055871
v -0.090166 0.032297 0.039597
v -0.156809 0.028884 -0.030471
v -0.167569 0.028354 -0.063698
v -0.172572 0.029423 -0.096735
v -0.060211 0.058114 0.055528
v -0.090368 0.064419 0.040507
v -0.159572 0.055064 -0.031742
v -0.169692 0.053097 -0.062561
v -0.174002 0.055744 -0.096334
v -0.057803 0.087806 0.054532
v -0.051903 0.142686 0.045941
v -0.045238 0.192300 0.033267
v -0.076581 0.149787 0.035963
v -0.085691 0.095558 0.041751
v -0.067874 0.199269 0.023608
v -0.041663 0.209860 0.028317
v -0.059402 0.217810 0.018634
v -0.073543 0.228561 0.005979
v -0.092754 0.211114 0.008977
v -0.083525 0.240431 -0.009478
v -0.102497 0.233882 -0.010323
v -0.105884 0.249464 -0.028371
v -0.088813 0.251812 -0.026239
v -0.120751 0.229426 -0.012105
v -0.122133 0.245792 -0.029352
v -0.120275 0.208769 0.003214
v -0.097142 0.183029 0.020237
v -0.120378 0.187256 0.012643
v -0.163541 0.076412 -0.032093
v -0.172014 0.073239 -0.060432
v -0.175438 0.074562 -0.086503
v -0.141108 0.100379 0.007808
v -0.122209 0.073365 0.020305
v -0.132533 0.119659 0.016369
v -0.111845 0.105831 0.028380
v -0.123007 0.164860 0.017873
v -0.100711 0.157758 0.026680
v -0.126479 0.141388 0.019676
v -0.105066 0.132496 0.029228
v -0.024279 0.164337 0.046536
v -0.048614 0.168928 0.039515
v -0.072277 0.174666 0.030794
v -0.027440 0.111664 0.060259
v -0.054805 0.115969 0.050806
v -0.080828 0.123576 0.040186
v -0.141882 -0.110474 0.004589
v -0.128599 -0.086745 -0.009278
v -0.130758 -0.057530 -0.008698
v -0.134251 -0.027026 -0.006815
v -0.137298 0.002152 -0.004511
v -0.139962 0.032315 -0.004203
v -0.144110 0.061794 -0.006588
v -0.150453 0.086347 -0.008689
v -0.116753 -0.119163 0.022889
v -0.108782 -0.061896 0.011825
v -0.105738 -0.093664 0.008386
v -0.111472 -0.030153 0.016387
v -0.115056 0.000475 0.019788
v -0.118252 0.035079 0.020473
v 0.000000 0.203822 0.033533
v 0.020979 0.204657 0.032048
v 0.022282 0.185698 0.037207
v 0.000000 0.184133 0.040440
v 0.025125 0.137187 0.050568
v 0.000000 0.135331 0.056610
v 0.028393 0.082892 0.061111
v -0.000000 0.079762 0.067862
v 0.029123 0.052778 0.064077
v -0.000000 0.050329 0.071311
v 0.029514 0.022148 0.065005
v -0.000000 0.019490 0.072858
v 0.028958 -0.009615 0.064020
v 0.000000 -0.011996 0.072844
v 0.027311 -0.041110 0.061107
v 0.000000 -0.042872 0.069718
v 0.025203 -0.074062 0.054580
v -0.000000 -0.076241 0.062521
v 0.022199 -0.110761 0.043471
v -0.000000 -0.113733 0.046993
v 0.030048 -0.134994 0.054647
v -0.000000 -0.124765 0.053071
v 0.050936 -0.106167 0.033084
v 0.059220 -0.133007 0.047609
v 0.077727 -0.100737 0.019529
v 0.088636 -0.128177 0.035538
v 0.142103 -0.082199 -0.032961
v 0.161976 -0.105151 -0.018743
v 0.156074 -0.078240 -0.058406
v 0.177929 -0.100357 -0.045592
v 0.165788 -0.076122 -0.086879
v 0.187704 -0.098001 -0.076946
v 0.160337 -0.023588 -0.062919
v 0.166341 -0.023035 -0.094785
v 0.053672 -0.069655 0.041247
v 0.080134 -0.065559 0.026024
v 0.144170 -0.054591 -0.033345
v 0.166106 -0.050826 -0.090753
v 0.157972 -0.052220 -0.060970
v 0.056618 -0.036860 0.047236
v 0.083743 -0.033085 0.032046
v 0.147391 -0.025390 -0.032773
v 0.058405 -0.006135 0.050705
v 0.086275 -0.002729 0.034616
v 0.151170 0.002342 -0.031802
v 0.162081 0.003103 -0.063848
v 0.167721 0.003828 -0.096184
v 0.059263 0.026996 0.052716
v 0.088342 0.032461 0.036609
v 0.153641 0.029161 -0.032002
v 0.164159 0.028619 -0.064502
v 0.169117 0.029658 -0.097245
v 0.058805 0.057987 0.052318
v 0.088650 0.064430 0.037450
v 0.156409 0.055477 -0.033257
v 0.166282 0.053489 -0.063328
v 0.170546 0.056089 -0.096779
v 0.056549 0.087443 0.051277
v 0.050933 0.141864 0.042678
v 0.044317 0.191243 0.030056
v 0.075508 0.149012 0.032720
v 0.084197 0.095323 0.038583
v 0.066811 0.198000 0.020516
v 0.040697 0.208738 0.025142
v 0.058290 0.216414 0.015616
v 0.072401 0.226774 0.003181
v 0.091775 0.209457 0.006024
v 0.082527 0.238136 -0.011957
v 0.101627 0.231589 -0.012848
v 0.105088 0.246932 -0.030655
v 0.087992 0.249224 -0.028448
v 0.119983 0.227170 -0.014687
v 0.121361 0.243313 -0.031700
v 0.119503 0.207045 0.000244
v 0.096188 0.181904 0.017053
v 0.119528 0.186076 0.009449
v 0.160416 0.076969 -0.033638
v 0.168621 0.073749 -0.061208
v 0.171993 0.075021 -0.086918
v 0.138795 0.100785 0.005164
v 0.119976 0.073611 0.017569
v 0.130772 0.119680 0.013328
v 0.110149 0.105773 0.025303
v 0.121952 0.164128 0.014606
v 0.099633 0.157028 0.023424
v 0.125125 0.141061 0.016455
v 0.103738 0.132099 0.026005
v 0.023583 0.163353 0.043248
v 0.000000 0.160914 0.048507
v 0.047715 0.167973 0.036268
v 0.071264 0.173648 0.027598
v -0.000000 0.108342 0.063598
v 0.026561 0.110987 0.056935
v 0.053707 0.115343 0.047538
v 0.079588 0.123041 0.036952
v 0.140511 -0.112684 0.002226
v 0.126260 -0.087923 -0.012078
v 0.128105 -0.057154 -0.010982
v 0.131535 -0.026557 -0.008994
v 0.134544 0.002527 -0.006659
v 0.137182 0.032567 -0.006329
v 0.141325 0.062205 -0.008690
v 0.147716 0.086950 -0.010800
v 0.115640 -0.121187 0.020255
v 0.106607 -0.061367 0.009115
v 0.103878 -0.094597 0.005208
v 0.109204 -0.029616 0.013754
v 0.112754 0.000856 0.017148
v 0.115934 0.035305 0.017822
v -0.020979 0.204657 0.032048
v -0.022282 0.185698 0.037207
v -0.025125 0.137187 0.050568
v -0.028393 0.082892 0.061111
v -0.029123 0.052778 0.064077
v -0.029514 0.022148 0.065005
v -0.028958 -0.009615 0.064020
v -0.027311 -0.041110 0.061107
v -0.025203 -0.074062 0.054580
v -0.022199 -0.110761 0.043471
v -0.030048 -0.134994 0.054647
v -0.050936 -0.106167 0.033084
v -0.059220 -0.133007 0.047609
v -0.077727 -0.100737 0.019529
v -0.088636 -0.128177 0.035538
v -0.142103 -0.082199 -0.032961
v -0.161976 -0.105151 -0.018743
v -0.156074 -0.078240 -0.058406
v -0.177929 -0.100357 -0.045592
v -0.165788 -0.076122 -0.086879
v -0.187704 -0.098001 -0.076946
v -0.160337 -0.023588 -0.062919
v -0.166341 -0.023035 -0.094785
v -0.053672 -0.069655 0.041247
v -0.080134 -0.065559 0.026024
v -0.144170 -0.054591 -0.033345
v -0.166106 -0.050826 -0.090753
v -0.157972 -0.052220 -0.060970
v -0.056618 -0.036860 0.047236
v -0.083743 -0.033085 0.032046
v -0.147391 -0.025390 -0.032773
v -0.058405 -0.006135 0.050705
v -0.086275 -0.002729 0.034616
v -0.151170 0.002342 -0.031802
v -0.162081 0.003103 -0.063848
v -0.167721 0.003828 -0.096184
v -0.059263 0.026996 0.052716
v -0.088342 0.032461 0.036609
v -0.153641 0.029161 -0.032002
v -0.164159 0.028619 -0.064502
v -0.169117 0.029658 -0.097245
v -0.058805 0.057987 0.052318
v -0.088650 0.064430 0.037450
v -0.156409 0.055477 -0.033257
v -0.166282 0.053489 -0.063328
v -0.170546 0.056089 -0.096779
v -0.056549 0.087443 0.051277
v -0.050933 0.141864 0.042678
v -0.044317 0.191243 0.030056
v -0.075508 0.149012 0.032720
v -0.084197 0.095323 0.038583
v -0.066811 0.198000 0.020516
v -0.040697 0.208738 0.025142
v -0.058290 0.216414 0.015616
v -0.072401 0.226774 0.003181
v -0.091775 0.209457 0.006024
v -0.082527 0.238136 -0.011957
v -0.101627 0.231589 -0.012848
v -0.105088 0.246932 -0.030655
v -0.087992 0.249224 -0.028448
v -0.119983 0.227170 -0.014687
v -0.121361 0.243313 -0.031700
v -0.119503 0.207045 0.000244
v -0.096188 0.181904 0.017053
v -0.119528 0.186076 0.009449
v -0.160416 0.076969 -0.033638
v -0.168621 0.073749 -0.061208
v -0.171993 0.075021 -0.086918
v -0.138795 0.100785 0.005164
v -0.119976 0.073611 0.017569
v -0.130772 0.119680 0.013328
v -0.110149 0.105773 0.025303
v -0.121952 0.164128 0.014606
v -0.099633 0.157028 0.023424
v -0.125125 0.141061 0.016455
v -0.103738 0.132099 0.026005
v -0.023583 0.163353 0.043248
v -0.047715 0.167973 0.036268
v -0.071264 0.173648 0.027598
v -0.026561 0.110987 0.056935
v -0.053707 0.115343 0.047538
v -0.079588 0.123041 0.036952
v -0.140511 -0.112684 0.002226
v -0.126260 -0.087923 -0.012078
v -0.128105 -0.057154 -0.010982
v -0.131535 -0.026557 -0.008994
v -0.134544 0.002527 -0.006659
v -0.137182 0.032567 -0.006329
v -0.141325 0.062205 -0.008690
v -0.147716 0.086950 -0.010800
v -0.115640 -0.121187 0.020255
v -0.106607 -0.061367 0.009115
v -0.103878 -0.094597 0.005208
v -0.109204 -0.029616 0.013754
v -0.112754 0.000856 0.017148
v -0.115934 0.035305 0.017822
vn 0.0874 0.2997 0.9500
vn 0.1202 0.2982 0.9469
vn 0.1761 0.2899 0.9407
vn 0.1714 0.2949 0.9400
vn 0.1986 0.2810 0.9389
vn 0.1728 0.2908 0.9410
vn 0.2028 0.2630 0.9433
vn 0.2264 0.2536 0.9404
vn 0.2160 0.1932 0.9571
vn 0.2226 0.1271 0.9666
vn 0.2724 0.1230 0.9543
vn 0.2509 0.1933 0.9485
vn 0.2363 0.0720 0.9690
vn 0.2960 0.0628 0.9531
vn 0.2617 0.0101 0.9651
vn 0.3253 -0.0016 0.9456
vn 0.2891 -0.0601 0.9554
vn 0.3537 -0.0711 0.9327
vn 0.3047 -0.1517 0.9403
vn 0.3710 -0.1555 0.9155
vn 0.2824 -0.2704 0.9204
vn 0.3539 -0.2513 0.9009
vn 0.2555 -0.3377 0.9059
vn 0.3247 -0.3047 0.8954
vn 0.1471 0.4707 0.8699
vn -0.0000 0.4537 0.8912
vn 0.1623 0.4764 0.8641
vn 0.2320 0.5166 0.8242
vn 0.2338 0.5180 0.8228
vn 0.2764 0.5533 0.7858
vn 0.2778 0.5546 0.7843
vn 0.3901 0.6290 0.6724
vn 0.4783 0.7061 0.5221
vn 0.4864 0.7125 0.5058
vn 0.3996 0.6378 0.6584
vn 0.5670 0.7456 0.3501
vn 0.5768 0.7463 0.3322
vn 0.6158 0.7455 0.2549
vn 0.9366 -0.0362 0.3486
vn 0.9672 -0.0134 0.2538
vn 0.9795 -0.0369 0.1983
vn 0.9546 -0.0610 0.2916
vn 0.4462 -0.2384 0.8626
vn 0.4626 -0.2182 0.8593
vn 0.5094 -0.1897 0.8394
vn 0.5240 -0.1916 0.8299
vn 0.7536 -0.1067 0.6486
vn 0.7262 -0.0877 0.6819
vn 0.8440 -0.0529 0.5338
vn 0.8593 -0.0745 0.5060
vn 0.9203 -0.0246 0.3905
vn 0.9559 -0.0026 0.2937
vn 0.4705 -0.1603 0.8677
vn 0.5384 -0.1617 0.8270
vn 0.8758 -0.1051 0.4712
vn 0.7730 -0.1335 0.6202
vn 0.4589 -0.0895 0.8840
vn 0.5353 -0.1011 0.8386
vn 0.8906 -0.0951 0.4447
vn 0.7840 -0.1068 0.6115
vn 0.9653 -0.0707 0.2513
vn 0.9843 -0.0559 0.1676
vn 0.4361 -0.0257 0.8996
vn 0.5205 -0.0469 0.8526
vn 0.8976 -0.0785 0.4337
vn 0.7922 -0.0720 0.6060
vn 0.9706 -0.0754 0.2287
vn 0.9870 -0.0673 0.1458
vn 0.4011 0.0360 0.9153
vn 0.4898 -0.0032 0.8718
vn 0.7927 -0.1170 0.5983
vn 0.8956 -0.1169 0.4292
vn 0.9696 -0.1116 0.2178
vn 0.9870 -0.0986 0.1271
vn 0.3576 0.1037 0.9281
vn 0.3135 0.1786 0.9326
vn 0.2566 0.2725 0.9273
vn 0.2627 0.3015 0.9166
vn 0.3539 0.1527 0.9227
vn 0.3062 0.2213 0.9259
vn 0.2769 0.2348 0.9318
vn 0.4256 0.0668 0.9025
vn 0.2890 0.2904 0.9122
vn 0.3031 0.3620 0.8815
vn 0.2755 0.3202 0.9064
vn 0.3170 0.3982 0.8608
vn 0.2779 0.4699 0.8378
vn 0.3254 0.5091 0.7969
vn 0.2472 0.6512 0.7175
vn 0.2832 0.6516 0.7037
vn 0.2272 0.7230 0.6524
vn 0.2346 0.7393 0.6311
vn 0.2188 0.6420 0.7348
vn 0.2205 0.7081 0.6708
vn 0.2192 0.4897 0.8439
vn 0.2718 0.3206 0.9074
vn 0.2422 0.3361 0.9102
vn 0.9645 -0.1449 0.2207
vn 0.8852 -0.1576 0.4377
vn 0.9842 -0.1313 0.1185
vn 0.7800 -0.1720 0.6017
vn 0.6539 -0.1148 0.7478
vn 0.6308 -0.0696 0.7728
vn 0.5012 -0.0059 0.8653
vn 0.4827 0.0166 0.8756
vn 0.3786 0.1130 0.9186
vn 0.3859 0.0933 0.9178
vn 0.3004 0.2087 0.9307
vn 0.3074 0.2081 0.9286
vn 0.6568 -0.0641 0.7513
vn 0.6534 -0.1080 0.7493
vn 0.6450 -0.1526 0.7488
vn 0.6187 -0.1505 0.7711
vn 0.5860 -0.1410 0.7980
vn 0.3177 0.5776 0.7520
vn 0.3235 0.5801 0.7476
vn -0.0874 0.2997 0.9500
vn -0.1714 0.2949 0.9400
vn -0.1761 0.2899 0.9407
vn -0.1202 0.2982 0.9469
vn -0.1986 0.2810 0.9389
vn -0.2264 0.2536 0.9404
vn -0.2028 0.2630 0.9433
vn -0.1728 0.2908 0.9410
vn -0.2160 0.1932 0.9571
vn -0.2509 0.1933 0.9485
vn -0.2724 0.1230 0.9543
vn -0.2226 0.1271 0.9666
vn -0.2960 0.0628 0.9531
vn -0.2363 0.0720 0.9690
vn -0.3253 -0.0016 0.9456
vn -0.2617 0.0101 0.9651
vn -0.3537 -0.0711 0.9327
vn -0.2891 -0.0601 0.9554
vn -0.3710 -0.1555 0.9155
vn -0.3047 -0.1517 0.9403
vn -0.3539 -0.2513 0.9009
vn -0.2824 -0.2704 0.9204
vn -0.3247 -0.3047 0.8954
vn -0.2555 -0.3377 0.9059
vn -0.1471 0.4707 0.8699
vn -0.1623 0.4764 0.8641
vn -0.2338 0.5180 0.8228
vn -0.2320 0.5166 0.8242
vn -0.2778 0.5546 0.7843
vn -0.2764 0.5533 0.7858
vn -0.3901 0.6290 0.6724
vn -0.3996 0.6378 0.6584
vn -0.4864 0.7125 0.5058
vn -0.4783 0.7061 0.5221
vn -0.5768 0.7463 0.3322
vn -0.5670 0.7456 0.3501
vn -0.6158 0.7455 0.2549
vn -0.9366 -0.0362 0.3486
vn -0.9546 -0.0610 0.2916
vn -0.9795 -0.0369 0.1983
vn -0.9672 -0.0134 0.2538
vn -0.4626 -0.2182 0.8593
vn -0.4462 -0.2384 0.8626
vn -0.5240 -0.1916 0.8299
vn -0.5094 -0.1897 0.8394
vn -0.7536 -0.1067 0.6486
vn -0.8593 -0.0745 0.5060
vn -0.8440 -0.0529 0.5338
vn -0.7262 -0.0877 0.6819
vn -0.9203 -0.0246 0.3905
vn -0.9559 -0.0026 0.2937
vn -0.4705 -0.1603 0.8677
vn -0.5384 -0.1617 0.8270
vn -0.7730 -0.1335 0.6202
vn -0.8758 -0.1051 0.4712
vn -0.4589 -0.0895 0.8840
vn -0.5353 -0.1011 0.8386
vn -0.7840 -0.1068 0.6115
vn -0.8906 -0.0951 0.4447
vn -0.9653 -0.0707 0.2513
vn -0.9843 -0.0559 0.1676
vn -0.4361 -0.0257 0.8996
vn -0.5205 -0.0469 0.8526
vn -0.7922 -0.0720 0.6060
vn -0.8976 -0.0785 0.4337
vn -0.9706 -0.0754 0.2287
vn -0.9870 -0.0673 0.1458
vn -0.4011 0.0360 0.9153
vn -0.4898 -0.0032 0.8718
vn -0.7927 -0.1170 0.5983
vn -0.8956 -0.1169 0.4292
vn -0.9696 -0.1116 0.2178
vn -0.9870 -0.0986 0.1271
vn -0.3576 0.1037 0.9281
vn -0.3135 0.1786 0.9326
vn -0.2627 0.3015 0.9166
vn -0.2566 0.2725 0.9273
vn -0.2769 0.2348 0.9318
vn -0.3062 0.2213 0.9259
vn -0.3539 0.1527 0.9227
vn -0.4256 0.0668 0.9025
vn -0.3031 0.3620 0.8815
vn -0.2890 0.2904 0.9122
vn -0.2755 0.3202 0.9064
vn -0.3170 0.3982 0.8608
vn -0.3254 0.5091 0.7969
vn -0.2779 0.4699 0.8378
vn -0.2832 0.6516 0.7037
vn -0.2472 0.6512 0.7175
vn -0.2346 0.7393 0.6311
vn -0.2272 0.7230 0.6524
vn -0.2205 0.7081 0.6708
vn -0.2188 0.6420 0.7348
vn -0.2192 0.4897 0.8439
vn -0.2422 0.3361 0.9102
vn -0.2718 0.3206 0.9074
vn -0.8852 -0.1576 0.4377
vn -0.9645 -0.1449 0.2207
vn -0.9842 -0.1313 0.1185
vn -0.7800 -0.1720 0.6017
vn -0.6308 -0.0696 0.7728
vn -0.6539 -0.1148 0.7478
vn -0.4827 0.0166 0.8756
vn -0.5012 -0.0059 0.8653
vn -0.3786 0.1130 0.9186
vn -0.3074 0.2081 0.9286
vn -0.3004 0.2087 0.9307
vn -0.3859 0.0933 0.9178
vn -0.6568 -0.0641 0.7513
vn -0.6534 -0.1080 0.7493
vn -0.6450 -0.1526 0.7488
vn -0.6187 -0.1505 0.7711
vn -0.5860 -0.1410 0.7980
vn -0.3177 0.5776 0.7520
vn -0.3235 0.5801 0.7476
vn -0.0870 -0.2996 -0.9501
vn -0.1713 -0.2948 -0.9401
vn -0.1760 -0.2898 -0.9408
vn -0.1202 -0.2980 -0.9470
vn -0.1986 -0.2808 -0.9390
vn -0.2265 -0.2535 -0.9404
vn -0.2029 -0.2627 -0.9433
vn -0.1731 -0.2905 -0.9411
vn -0.2161 -0.1930 -0.9571
vn -0.2509 -0.1933 -0.9485
vn -0.2724 -0.1229 -0.9543
vn -0.2226 -0.1270 -0.9666
vn -0.2960 -0.0627 -0.9531
vn -0.2362 -0.0717 -0.9691
vn -0.3253 0.0018 -0.9456
vn -0.2617 -0.0097 -0.9651
vn -0.3537 0.0712 -0.9326
vn -0.2892 0.0604 -0.9554
vn -0.3711 0.1555 -0.9155
vn -0.3051 0.1516 -0.9402
vn -0.3537 0.2508 -0.9011
vn -0.2829 0.2692 -0.9206
vn -0.3248 0.3033 -0.8958
vn -0.2557 0.3358 -0.9065
vn -0.1466 -0.4726 -0.8690
vn -0.1622 -0.4779 -0.8633
vn -0.0000 -0.4568 -0.8896
vn -0.2340 -0.5181 -0.8227
vn -0.2327 -0.5170 -0.8237
vn -0.2782 -0.5546 -0.7842
vn -0.2769 -0.5534 -0.7855
vn -0.3908 -0.6299 -0.6711
vn -0.3994 -0.6379 -0.6584
vn -0.4866 -0.7120 -0.5063
vn -0.4793 -0.7063 -0.5210
vn -0.5768 -0.7457 -0.3334
vn -0.5676 -0.7451 -0.3502
vn -0.6157 -0.7451 -0.2563
vn -0.9365 0.0367 -0.3487
vn -0.9546 0.0609 -0.2917
vn -0.9794 0.0366 -0.1984
vn -0.9672 0.0140 -0.2537
vn -0.4621 0.2182 -0.8596
vn -0.4457 0.2380 -0.8630
vn -0.5237 0.1917 -0.8301
vn -0.5088 0.1894 -0.8398
vn -0.7534 0.1068 -0.6489
vn -0.8592 0.0744 -0.5062
vn -0.8448 0.0525 -0.5325
vn -0.7275 0.0872 -0.6805
vn -0.9208 0.0250 -0.3892
vn -0.9562 0.0046 -0.2927
vn -0.4705 0.1603 -0.8677
vn -0.5384 0.1617 -0.8270
vn -0.7730 0.1335 -0.6202
vn -0.8758 0.1051 -0.4711
vn -0.4589 0.0895 -0.8840
vn -0.5354 0.1011 -0.8386
vn -0.7840 0.1068 -0.6115
vn -0.8906 0.0951 -0.4446
vn -0.9653 0.0706 -0.2514
vn -0.9843 0.0558 -0.1676
vn -0.4361 0.0257 -0.8995
vn -0.5205 0.0468 -0.8526
vn -0.7923 0.0720 -0.6059
vn -0.8977 0.0785 -0.4337
vn -0.9706 0.0753 -0.2287
vn -0.9870 0.0672 -0.1459
vn -0.4011 -0.0360 -0.9153
vn -0.4899 0.0031 -0.8718
vn -0.7928 0.1170 -0.5981
vn -0.8956 0.1169 -0.4293
vn -0.9696 0.1115 -0.2179
vn -0.9870 0.0985 -0.1270
vn -0.3576 -0.1037 -0.9281
vn -0.3135 -0.1786 -0.9326
vn -0.2628 -0.3015 -0.9165
vn -0.2566 -0.2725 -0.9273
vn -0.2768 -0.2348 -0.9318
vn -0.3062 -0.2213 -0.9259
vn -0.3539 -0.1527 -0.9227
vn -0.4257 -0.0668 -0.9024
vn -0.3033 -0.3622 -0.8814
vn -0.2890 -0.2906 -0.9122
vn -0.2755 -0.3201 -0.9064
vn -0.3172 -0.3978 -0.8609
vn -0.3256 -0.5082 -0.7973
vn -0.2781 -0.4702 -0.8376
vn -0.2836 -0.6509 -0.7042
vn -0.2469 -0.6513 -0.7175
vn -0.2346 -0.7395 -0.6309
vn -0.2270 -0.7230 -0.6525
vn -0.2202 -0.7081 -0.6709
vn -0.2187 -0.6422 -0.7347
vn -0.2193 -0.4898 -0.8438
vn -0.2422 -0.3362 -0.9101
vn -0.2717 -0.3207 -0.9074
vn -0.8851 0.1575 -0.4380
vn -0.9645 0.1449 -0.2207
vn -0.9842 0.1313 -0.1184
vn -0.7801 0.1720 -0.6016
vn -0.6312 0.0697 -0.7725
vn -0.6533 0.1144 -0.7484
vn -0.4829 -0.0164 -0.8755
vn -0.5007 0.0059 -0.8656
vn -0.3787 -0.1129 -0.9186
vn -0.3074 -0.2081 -0.9286
vn -0.3003 -0.2089 -0.9307
vn -0.3855 -0.0935 -0.9180
vn -0.6568 0.0640 -0.7513
vn -0.6534 0.1079 -0.7493
vn -0.6451 0.1527 -0.7487
vn -0.6183 0.1506 -0.7714
vn -0.5864 0.1406 -0.7978
vn -0.3182 -0.5781 -0.7513
vn -0.3235 -0.5805 -0.7472
vn 0.0870 -0.2996 -0.9501
vn 0.1202 -0.2980 -0.9470
vn 0.1760 -0.2898 -0.9408
vn 0.1713 -0.2948 -0.9401
vn 0.1986 -0.2808 -0.9390
vn 0.1731 -0.2905 -0.9411
vn 0.2029 -0.2627 -0.9433
vn 0.2265 -0.2535 -0.9404
vn 0.2161 -0.1930 -0.9571
vn 0.2226 -0.1270 -0.9666
vn 0.2724 -0.1229 -0.9543
vn 0.2509 -0.1933 -0.9485
vn 0.2362 -0.0717 -0.9691
vn 0.2960 -0.0627 -0.9531
vn 0.2617 -0.0097 -0.9651
vn 0.3253 0.0018 -0.9456
vn 0.2892 0.0604 -0.9554
vn 0.3537 0.0712 -0.9326
vn 0.3051 0.1516 -0.9402
vn 0.3711 0.1555 -0.9155
vn 0.2829 0.2692 -0.9206
vn 0.3537 0.2508 -0.9011
vn 0.2557 0.3358 -0.9065
vn 0.3248 0.3033 -0.8958
vn 0.1466 -0.4726 -0.8690
vn 0.1622 -0.4779 -0.8633
vn 0.2327 -0.5170 -0.8237
vn 0.2340 -0.5181 -0.8227
vn 0.2769 -0.5534 -0.7855
vn 0.2782 -0.5546 -0.7842
vn 0.3908 -0.6299 -0.6711
vn 0.4793 -0.7063 -0.5210
vn 0.4866 -0.7120 -0.5063
vn 0.3994 -0.6379 -0.6584
vn 0.5676 -0.7451 -0.3502
vn 0.5768 -0.7457 -0.3334
vn 0.6157 -0.7451 -0.2563
vn 0.9365 0.0367 -0.3487
vn 0.9672 0.0140 -0.2537
vn 0.9794 0.0366 -0.1984
vn 0.9546 0.0609 -0.2917
vn 0.4457 0.2380 -0.8630
vn 0.4621 0.2182 -0.8596
vn 0.5088 0.1894 -0.8398
vn 0.5237 0.1917 -0.8301
vn 0.7534 0.1068 -0.6489
vn 0.7275 0.0872 -0.6805
vn 0.8448 0.0525 -0.5325
vn 0.8592 0.0744 -0.5062
vn 0.9208 0.0250 -0.3892
vn 0.9562 0.0046 -0.2927
vn 0.4705 0.1603 -0.8677
vn 0.5384 0.1617 -0.8270
vn 0.8758 0.1051 -0.4711
vn 0.7730 0.1335 -0.6202
vn 0.4589 0.0895 -0.8840
vn 0.5354 0.1011 -0.8386
vn 0.8906 0.0951 -0.4446
vn 0.7840 0.1068 -0.6115
vn 0.9653 0.0706 -0.2514
vn 0.9843 0.0558 -0.1676
vn 0.4361 0.0257 -0.8995
vn 0.5205 0.0468 -0.8526
vn 0.8977 0.0785 -0.4337
vn 0.7923 0.0720 -0.6059
vn 0.9706 0.0753 -0.2287
vn 0.9870 0.0672 -0.1459
vn 0.4011 -0.0360 -0.9153
vn 0.4899 0.0031 -0.8718
vn 0.7928 0.1170 -0.5981
vn 0.8956 0.1169 -0.4293
vn 0.9696 0.1115 -0.2179
vn 0.9870 0.0985 -0.1270
vn 0.3576 -0.1037 -0.9281
vn 0.3135 -0.1786 -0.9326
vn 0.2566 -0.2725 -0.9273
vn 0.2628 -0.3015 -0.9165
vn 0.3539 -0.1527 -0.9227
vn 0.3062 -0.2213 -0.9259
vn 0.2768 -0.2348 -0.9318
vn 0.4257 -0.0668 -0.9024
vn 0.2890 -0.2906 -0.9122
vn 0.3033 -0.3622 -0.8814
vn 0.2755 -0.3201 -0.9064
vn 0.3172 -0.3978 -0.8609
vn 0.2781 -0.4702 -0.8376
vn 0.3256 -0.5082 -0.7973
vn 0.2469 -0.6513 -0.7175
vn 0.2836 -0.6509 -0.7042
vn 0.2270 -0.7230 -0.6525
vn 0.2346 -0.7395 -0.6309
vn 0.2187 -0.6422 -0.7347
vn 0.2202 -0.7081 -0.6709
vn 0.2193 -0.4898 -0.8438
vn 0.2717 -0.3207 -0.9074
vn 0.2422 -0.3362 -0.9101
vn 0.9645 0.1449 -0.2207
vn 0.8851 0.1575 -0.4380
vn 0.9842 0.1313 -0.1184
vn 0.7801 0.1720 -0.6016
vn 0.6533 0.1144 -0.7484
vn 0.6312 0.0697 -0.7725
vn 0.5007 0.0059 -0.8656
vn 0.4829 -0.0164 -0.8755
vn 0.3787 -0.1129 -0.9186
vn 0.3855 -0.0935 -0.9180
vn 0.3003 -0.2089 -0.9307
vn 0.3074 -0.2081 -0.9286
vn 0.6568 0.0640 -0.7513
vn 0.6534 0.1079 -0.7493
vn 0.6451 0.1527 -0.7487
vn 0.6183 0.1506 -0.7714
vn 0.5864 0.1406 -0.7978
vn 0.3182 -0.5781 -0.7513
vn 0.3235 -0.5805 -0.7472
vn -0.0000 0.9554 -0.2953
vn -0.1698 0.9477 -0.2702
vn -0.1679 0.9479 -0.2706
vn -0.0636 -0.8737 0.4822
vn -0.3025 -0.8304 0.4679
vn -0.0682 -0.8734 0.4822
vn 0.2509 -0.8513 0.4608
vn 0.2487 -0.8518 0.4611
vn 0.3837 -0.8154 0.4334
vn 0.3830 -0.8156 0.4336
vn 0.4886 -0.7775 0.3959
vn 0.4882 -0.7777 0.3960
vn 0.7113 -0.6625 0.2348
vn 0.6472 -0.6907 0.3226
vn 0.6457 -0.6915 0.3238
vn 0.7115 -0.6624 0.2345
vn 0.7336 -0.6551 0.1805
vn 0.3481 -0.1007 -0.9321
vn 0.3776 -0.0479 -0.9247
vn 0.3452 -0.1056 -0.9326
vn 0.2006 -0.1048 -0.9740
vn 0.2692 -0.1516 -0.9511
vn 0.2667 -0.1513 -0.9518
vn 0.1999 -0.1034 -0.9743
vn 0.1669 -0.0565 -0.9843
vn 0.1667 -0.0564 -0.9844
vn 0.1458 -0.0211 -0.9891
vn 0.1457 -0.0205 -0.9891
vn 0.1536 0.2335 -0.9602
vn 0.1537 0.2342 -0.9600
vn -0.3802 0.8992 -0.2165
vn -0.3827 0.8983 -0.2158
vn -0.5765 0.8002 -0.1653
vn -0.5812 0.7970 -0.1641
vn -0.7445 0.6559 -0.1249
vn -0.7511 0.6485 -0.1234
vn -0.8729 0.4821 -0.0756
vn -0.8781 0.4730 -0.0723
vn -0.9231 0.3824 -0.0401
vn -0.0056 0.6606 -0.7507
vn 0.0490 0.6603 -0.7494
vn 0.0466 0.6604 -0.7495
vn 0.9733 -0.2004 -0.1117
vn 0.9750 -0.1733 -0.1389
vn 0.9750 -0.1733 -0.1390
vn 0.1011 0.6581 -0.7461
vn 0.9747 -0.1184 -0.1897
vn 0.9747 -0.1183 -0.1897
vn 0.9670 -0.0261 -0.2536
vn 0.9668 -0.0246 -0.2545
vn 0.2528 0.9572 -0.1408
vn 0.1555 0.9878 0.0037
vn 0.1552 0.9879 0.0045
vn 0.2507 0.9581 -0.1384
vn 0.1287 0.9895 0.0665
vn 0.1617 0.4467 -0.8800
vn 0.6256 0.6488 -0.4333
vn 0.4215 0.8546 -0.3035
vn 0.4162 0.8587 -0.2991
vn 0.6165 0.6602 -0.4291
vn 0.7910 0.4056 -0.4580
vn 0.7858 0.4142 -0.4594
vn 0.9423 0.0716 -0.3271
vn 0.8946 0.1983 -0.4004
vn 0.8925 0.2037 -0.4025
vn 0.9418 0.0726 -0.3281
vn 0.5700 -0.7351 0.3670
vn 0.5687 -0.7360 0.3674
vn 0.1698 0.9477 -0.2702
vn 0.1679 0.9479 -0.2706
vn 0.3025 -0.8304 0.4679
vn 0.0636 -0.8737 0.4822
vn 0.0682 -0.8734 0.4822
vn -0.2509 -0.8513 0.4608
vn -0.2487 -0.8518 0.4611
vn -0.3837 -0.8154 0.4334
vn -0.3830 -0.8156 0.4336
vn -0.4886 -0.7775 0.3959
vn -0.4882 -0.7777 0.3960
vn -0.6472 -0.6907 0.3226
vn -0.7113 -0.6625 0.2348
vn -0.7115 -0.6624 0.2345
vn -0.6457 -0.6915 0.3238
vn -0.7336 -0.6551 0.1805
vn -0.3776 -0.0479 -0.9247
vn -0.3481 -0.1007 -0.9321
vn -0.3452 -0.1056 -0.9326
vn -0.2692 -0.1516 -0.9511
vn -0.2006 -0.1048 -0.9740
vn -0.1999 -0.1034 -0.9743
vn -0.2667 -0.1513 -0.9518
vn -0.1669 -0.0565 -0.9843
vn -0.1667 -0.0564 -0.9844
vn -0.1458 -0.0211 -0.9891
vn -0.1457 -0.0205 -0.9891
vn -0.1536 0.2335 -0.9602
vn -0.1537 0.2342 -0.9600
vn 0.3802 0.8992 -0.2165
vn 0.3827 0.8983 -0.2158
vn 0.5765 0.8002 -0.1653
vn 0.5812 0.7970 -0.1641
vn 0.7445 0.6559 -0.1249
vn 0.7511 0.6485 -0.1234
vn 0.8729 0.4821 -0.0756
vn 0.8781 0.4730 -0.0723
vn 0.9231 0.3824 -0.0401
vn -0.0490 0.6603 -0.7494
vn 0.0056 0.6606 -0.7507
vn -0.0466 0.6604 -0.7495
vn -0.9750 -0.1733 -0.1389
vn -0.9733 -0.2004 -0.1117
vn -0.9750 -0.1733 -0.1390
vn -0.1011 0.6581 -0.7461
vn -0.9747 -0.1184 -0.1897
vn -0.9747 -0.1183 -0.1897
vn -0.9670 -0.0261 -0.2536
vn -0.9668 -0.0246 -0.2545
vn -0.1555 0.9878 0.0037
vn -0.2528 0.9572 -0.1408
vn -0.2507 0.9581 -0.1384
vn -0.1552 0.9879 0.0045
vn -0.1287 0.9895 0.0665
vn -0.1617 0.4467 -0.8800
vn -0.4215 0.8546 -0.3035
vn -0.6256 0.6488 -0.4333
vn -0.6165 0.6602 -0.4291
vn -0.4162 0.8587 -0.2991
vn -0.7910 0.4056 -0.4580
vn -0.7858 0.4142 -0.4594
vn -0.8946 0.1983 -0.4004
vn -0.9423 0.0716 -0.3271
vn -0.9418 0.0726 -0.3281
vn -0.8925 0.2037 -0.4025
vn -0.5700 -0.7351 0.3670
vn -0.5687 -0.7360 0.3674
vt 0.367074 0.438236
vt 0.367074 0.404528
vt 0.403847 0.407892
vt 0.402640 0.439681
vt 0.405051 0.371563
vt 0.367074 0.366242
vt 0.367074 0.326033
vt 0.406207 0.330318
vt 0.367074 0.285830
vt 0.367074 0.245724
vt 0.408509 0.250533
vt 0.407008 0.290782
vt 0.367074 0.205932
vt 0.408369 0.209261
vt 0.367074 0.165941
vt 0.408037 0.168882
vt 0.367074 0.126611
vt 0.406690 0.128403
vt 0.367074 0.089137
vt 0.404125 0.089297
vt 0.367074 0.049035
vt 0.401384 0.048696
vt 0.367074 0.004883
vt 0.397357 0.004883
vt 0.820405 0.382313
vt 0.820405 0.347786
vt 0.834744 0.347786
vt 0.856404 0.383612
vt 0.862422 0.424236
vt 0.820405 0.428120
vt 0.864768 0.468422
vt 0.820405 0.473053
vt 0.862334 0.553625
vt 0.864144 0.594916
vt 0.820405 0.601598
vt 0.820405 0.561285
vt 0.865157 0.638632
vt 0.820405 0.645480
vt 0.863220 0.685122
vt 0.820405 0.690084
vt 0.639944 0.035822
vt 0.678106 0.030112
vt 0.692613 0.061041
vt 0.652253 0.071205
vt 0.437674 0.004883
vt 0.441836 0.048909
vt 0.477273 0.004883
vt 0.481642 0.047940
vt 0.562913 0.044013
vt 0.555046 0.004883
vt 0.590520 0.004883
vt 0.599545 0.040068
vt 0.629094 0.004883
vt 0.668260 0.004883
vt 0.445750 0.090525
vt 0.486381 0.090341
vt 0.609130 0.078553
vt 0.571095 0.084809
vt 0.448754 0.129915
vt 0.491445 0.130025
vt 0.618677 0.115190
vt 0.578326 0.123949
vt 0.663486 0.104777
vt 0.705420 0.093163
vt 0.451063 0.173301
vt 0.496541 0.177157
vt 0.628863 0.150748
vt 0.587673 0.164483
vt 0.674636 0.137542
vt 0.718007 0.125297
vt 0.452287 0.215191
vt 0.499452 0.221483
vt 0.601710 0.204635
vt 0.640868 0.185819
vt 0.683702 0.170645
vt 0.729149 0.159481
vt 0.450731 0.256537
vt 0.448811 0.297477
vt 0.444129 0.379527
vt 0.441040 0.417939
vt 0.490570 0.308249
vt 0.487245 0.349007
vt 0.446727 0.337933
vt 0.495068 0.266386
vt 0.483501 0.389000
vt 0.480122 0.430250
vt 0.437191 0.447675
vt 0.469262 0.462311
vt 0.525613 0.451638
vt 0.497617 0.483219
vt 0.550530 0.496009
vt 0.521020 0.509696
vt 0.565204 0.532133
vt 0.538021 0.538903
vt 0.579447 0.486148
vt 0.590581 0.522996
vt 0.570784 0.445560
vt 0.526330 0.402412
vt 0.565711 0.408065
vt 0.690159 0.198315
vt 0.651590 0.215106
vt 0.725029 0.188376
vt 0.616745 0.238894
vt 0.592500 0.265701
vt 0.554352 0.229415
vt 0.577385 0.297709
vt 0.539289 0.279196
vt 0.531456 0.320561
vt 0.568792 0.332813
vt 0.566090 0.370837
vt 0.527723 0.360637
vt 0.543279 0.175765
vt 0.534445 0.129346
vt 0.528132 0.088567
vt 0.523295 0.046272
vt 0.516849 0.004883
vt 0.863595 0.511460
vt 0.820405 0.517938
vt 0.331508 0.439681
vt 0.330301 0.407892
vt 0.329097 0.371564
vt 0.327941 0.330318
vt 0.327140 0.290782
vt 0.325639 0.250533
vt 0.325779 0.209261
vt 0.326111 0.168882
vt 0.327458 0.128403
vt 0.330023 0.089297
vt 0.332764 0.048696
vt 0.336792 0.004883
vt 0.820405 0.313258
vt 0.856404 0.311960
vt 0.820405 0.267452
vt 0.862422 0.271335
vt 0.820405 0.222518
vt 0.864768 0.227150
vt 0.862334 0.141946
vt 0.820405 0.134286
vt 0.820405 0.093973
vt 0.864145 0.100655
vt 0.820405 0.050091
vt 0.865158 0.056939
vt 0.820405 0.005487
vt 0.863220 0.010450
vt 0.094204 0.035821
vt 0.081895 0.071205
vt 0.041534 0.061040
vt 0.056042 0.030112
vt 0.292312 0.048909
vt 0.296474 0.004883
vt 0.252506 0.047940
vt 0.256875 0.004883
vt 0.171235 0.044012
vt 0.134603 0.040067
vt 0.143627 0.004883
vt 0.179102 0.004883
vt 0.105053 0.004883
vt 0.065887 0.004883
vt 0.288398 0.090525
vt 0.247767 0.090341
vt 0.163053 0.084809
vt 0.125018 0.078553
vt 0.285394 0.129915
vt 0.242703 0.130024
vt 0.155821 0.123949
vt 0.115471 0.115190
vt 0.070661 0.104777
vt 0.028728 0.093162
vt 0.283085 0.173301
vt 0.237607 0.177157
vt 0.146475 0.164483
vt 0.105285 0.150747
vt 0.059512 0.137542
vt 0.016141 0.125296
vt 0.281861 0.215190
vt 0.234696 0.221482
vt 0.132438 0.204635
vt 0.093280 0.185819
vt 0.050446 0.170644
vt 0.004999 0.159481
vt 0.283417 0.256537
vt 0.285337 0.297477
vt 0.293108 0.417939
vt 0.290019 0.379527
vt 0.287421 0.337932
vt 0.246903 0.349007
vt 0.243578 0.308249
vt 0.239080 0.266386
vt 0.254025 0.430250
vt 0.250647 0.389000
vt 0.296957 0.447675
vt 0.264886 0.462311
vt 0.236530 0.483219
vt 0.208535 0.451638
vt 0.213128 0.509696
vt 0.183618 0.496008
vt 0.196126 0.538903
vt 0.168944 0.532132
vt 0.143567 0.522995
vt 0.154700 0.486148
vt 0.163363 0.445560
vt 0.168437 0.408065
vt 0.207817 0.402411
vt 0.082558 0.215106
vt 0.043989 0.198314
vt 0.009119 0.188375
vt 0.117403 0.238894
vt 0.179796 0.229414
vt 0.141648 0.265701
vt 0.194858 0.279196
vt 0.156763 0.297709
vt 0.202691 0.320561
vt 0.206424 0.360637
vt 0.168058 0.370836
vt 0.165356 0.332813
vt 0.190869 0.175765
vt 0.199702 0.129346
vt 0.206015 0.088567
vt 0.210852 0.046271
vt 0.217299 0.004883
vt 0.863595 0.184111
vt 0.820405 0.177633
vt 0.532775 0.549124
vt 0.567093 0.547633
vt 0.568322 0.579174
vt 0.532775 0.582595
vt 0.569460 0.615236
vt 0.570539 0.656127
vt 0.532775 0.660491
vt 0.532775 0.620624
vt 0.532774 0.700177
vt 0.571293 0.695194
vt 0.572766 0.734979
vt 0.532774 0.739850
vt 0.572594 0.775902
vt 0.532775 0.779326
vt 0.572196 0.815975
vt 0.532774 0.819033
vt 0.570781 0.856181
vt 0.532774 0.858083
vt 0.568187 0.895011
vt 0.532775 0.895262
vt 0.565560 0.935372
vt 0.532775 0.935044
vt 0.561884 0.981062
vt 0.532775 0.981062
vt 0.763543 0.308968
vt 0.801426 0.307441
vt 0.779861 0.342180
vt 0.763543 0.342180
vt 0.763543 0.263702
vt 0.807566 0.267332
vt 0.763543 0.219006
vt 0.809954 0.223485
vt 0.807614 0.139246
vt 0.763543 0.131848
vt 0.763543 0.092544
vt 0.809587 0.098940
vt 0.763543 0.049626
vt 0.810644 0.056301
vt 0.763543 0.005447
vt 0.808725 0.010414
vt 0.801158 0.947741
vt 0.813221 0.911852
vt 0.853675 0.921966
vt 0.839268 0.953635
vt 0.605538 0.935076
vt 0.601703 0.981062
vt 0.645116 0.935928
vt 0.641090 0.981063
vt 0.725303 0.939566
vt 0.761311 0.943405
vt 0.752550 0.981063
vt 0.717944 0.981063
vt 0.790301 0.981063
vt 0.829121 0.981063
vt 0.609362 0.893574
vt 0.649702 0.893525
vt 0.733241 0.898511
vt 0.770656 0.904589
vt 0.612343 0.854421
vt 0.654671 0.854033
vt 0.740215 0.859351
vt 0.779894 0.867744
vt 0.824156 0.877804
vt 0.866261 0.889155
vt 0.614645 0.811292
vt 0.659659 0.807099
vt 0.749229 0.818806
vt 0.789762 0.831991
vt 0.834992 0.844595
vt 0.878549 0.856418
vt 0.615907 0.769712
vt 0.662520 0.762995
vt 0.762928 0.778206
vt 0.801484 0.796420
vt 0.843752 0.810921
vt 0.889342 0.821566
vt 0.614429 0.728772
vt 0.612598 0.688337
vt 0.604751 0.569175
vt 0.607978 0.607179
vt 0.610582 0.648347
vt 0.650711 0.637104
vt 0.653949 0.677300
vt 0.658254 0.718556
vt 0.643268 0.557166
vt 0.646903 0.597727
vt 0.600752 0.539765
vt 0.632250 0.525586
vt 0.660169 0.505400
vt 0.688437 0.536398
vt 0.683373 0.479982
vt 0.712962 0.493457
vt 0.700276 0.451587
vt 0.727383 0.458069
vt 0.752699 0.466922
vt 0.741913 0.503069
vt 0.733664 0.542384
vt 0.728778 0.578703
vt 0.689506 0.584395
vt 0.811995 0.766649
vt 0.849972 0.782773
vt 0.884819 0.792264
vt 0.777699 0.743430
vt 0.716493 0.754287
vt 0.754127 0.717410
vt 0.701976 0.705225
vt 0.739706 0.686336
vt 0.694487 0.664602
vt 0.690934 0.625276
vt 0.729072 0.614942
vt 0.731538 0.652058
vt 0.705631 0.808037
vt 0.697065 0.854359
vt 0.690954 0.895035
vt 0.686374 0.937473
vt 0.680419 0.981063
vt 0.808776 0.180784
vt 0.763543 0.174413
vt 0.497228 0.579174
vt 0.498457 0.547633
vt 0.496090 0.615235
vt 0.495010 0.656127
vt 0.492784 0.734979
vt 0.494257 0.695193
vt 0.492956 0.775902
vt 0.493353 0.815975
vt 0.494768 0.856181
vt 0.497362 0.895011
vt 0.499990 0.935372
vt 0.503666 0.981062
vt 0.763543 0.375392
vt 0.801426 0.376919
vt 0.807566 0.417028
vt 0.763543 0.420658
vt 0.809953 0.460875
vt 0.763543 0.465354
vt 0.807613 0.545114
vt 0.809587 0.585420
vt 0.763543 0.591816
vt 0.763543 0.552512
vt 0.810644 0.628059
vt 0.763543 0.634733
vt 0.808725 0.673946
vt 0.763543 0.678913
vt 0.264392 0.947741
vt 0.226282 0.953635
vt 0.211875 0.921966
vt 0.252328 0.911851
vt 0.463847 0.981062
vt 0.460012 0.935076
vt 0.424460 0.981062
vt 0.420434 0.935927
vt 0.340247 0.939565
vt 0.347606 0.981062
vt 0.313000 0.981062
vt 0.304239 0.943405
vt 0.275249 0.981062
vt 0.236429 0.981062
vt 0.456188 0.893574
vt 0.415847 0.893525
vt 0.294893 0.904589
vt 0.332308 0.898511
vt 0.453206 0.854421
vt 0.410878 0.854033
vt 0.285655 0.867743
vt 0.325334 0.859351
vt 0.241393 0.877804
vt 0.199289 0.889154
vt 0.450904 0.811292
vt 0.405891 0.807099
vt 0.275787 0.831990
vt 0.316320 0.818806
vt 0.230558 0.844595
vt 0.187000 0.856418
vt 0.449642 0.769712
vt 0.403030 0.762995
vt 0.302622 0.778206
vt 0.264066 0.796420
vt 0.221798 0.810921
vt 0.176207 0.821565
vt 0.451121 0.728772
vt 0.452952 0.688337
vt 0.457571 0.607179
vt 0.460799 0.569175
vt 0.411601 0.677300
vt 0.414838 0.637104
vt 0.454967 0.648347
vt 0.407296 0.718556
vt 0.418647 0.597727
vt 0.422282 0.557166
vt 0.464798 0.539764
vt 0.433300 0.525586
vt 0.377113 0.536398
vt 0.405381 0.505400
vt 0.352587 0.493457
vt 0.382177 0.479982
vt 0.338166 0.458069
vt 0.365275 0.451587
vt 0.323636 0.503069
vt 0.312851 0.466922
vt 0.331885 0.542383
vt 0.376043 0.584395
vt 0.336771 0.578703
vt 0.215577 0.782773
vt 0.253555 0.766649
vt 0.180731 0.792264
vt 0.287850 0.743430
vt 0.311422 0.717410
vt 0.349057 0.754287
vt 0.325844 0.686336
vt 0.363573 0.705225
vt 0.371062 0.664602
vt 0.334012 0.652058
vt 0.336477 0.614941
vt 0.374615 0.625275
vt 0.359919 0.808036
vt 0.368484 0.854359
vt 0.374595 0.895035
vt 0.379176 0.937473
vt 0.385131 0.981062
vt 0.808776 0.503577
vt 0.763543 0.509947
vt 0.907393 0.187606
vt 0.907393 0.157861
vt 0.912283 0.157861
vt 0.912283 0.187606
vt 0.926945 0.319113
vt 0.926945 0.363770
vt 0.922053 0.363770
vt 0.922053 0.319113
vt 0.926945 0.276996
vt 0.922053 0.276996
vt 0.926945 0.232019
vt 0.922053 0.232019
vt 0.926945 0.187544
vt 0.922053 0.187544
vt 0.926945 0.054732
vt 0.926945 0.099259
vt 0.922053 0.099259
vt 0.922053 0.054732
vt 0.926945 0.008576
vt 0.922053 0.008576
vt 0.964746 0.051557
vt 0.964746 0.007649
vt 0.969664 0.007649
vt 0.969664 0.051557
vt 0.964746 0.125020
vt 0.964746 0.086101
vt 0.969664 0.086101
vt 0.969664 0.125020
vt 0.964746 0.162341
vt 0.969664 0.162341
vt 0.964746 0.198229
vt 0.969664 0.198229
vt 0.964746 0.234876
vt 0.969664 0.234876
vt 0.907393 0.127928
vt 0.912283 0.127928
vt 0.907393 0.097872
vt 0.912283 0.097872
vt 0.907394 0.067720
vt 0.912283 0.067720
vt 0.907394 0.037513
vt 0.912283 0.037513
vt 0.907394 0.008570
vt 0.912283 0.008570
vt 0.951638 0.330698
vt 0.951379 0.306472
vt 0.956262 0.306642
vt 0.956517 0.330906
vt 0.897633 0.008574
vt 0.897633 0.041540
vt 0.892735 0.041540
vt 0.892735 0.008574
vt 0.951635 0.283188
vt 0.956517 0.283337
vt 0.897633 0.076928
vt 0.892735 0.076928
vt 0.897633 0.109254
vt 0.892735 0.109254
vt 0.897632 0.308586
vt 0.897632 0.349483
vt 0.892735 0.349483
vt 0.892735 0.308586
vt 0.897632 0.385920
vt 0.892735 0.385920
vt 0.964746 0.264474
vt 0.969664 0.264474
vt 0.897633 0.236752
vt 0.897633 0.269168
vt 0.892735 0.269168
vt 0.892735 0.236752
vt 0.897633 0.205490
vt 0.892735 0.205490
vt 0.897633 0.141184
vt 0.897633 0.174042
vt 0.892735 0.174042
vt 0.892735 0.141184
vt 0.926945 0.142832
vt 0.922053 0.142832
vt 0.907393 0.217350
vt 0.912283 0.217350
vt 0.941602 0.008572
vt 0.941602 0.053193
vt 0.936714 0.053193
vt 0.936714 0.008572
vt 0.941602 0.095276
vt 0.936714 0.095276
vt 0.941602 0.140218
vt 0.936714 0.140218
vt 0.941602 0.184658
vt 0.936714 0.184658
vt 0.941602 0.272872
vt 0.941601 0.317364
vt 0.936714 0.317364
vt 0.936714 0.272872
vt 0.941601 0.363483
vt 0.936714 0.363483
vt 0.951364 0.265528
vt 0.951364 0.221598
vt 0.956284 0.221598
vt 0.956284 0.265528
vt 0.951364 0.187036
vt 0.951364 0.148098
vt 0.956284 0.148098
vt 0.956284 0.187036
vt 0.951364 0.110757
vt 0.956284 0.110757
vt 0.951364 0.074851
vt 0.956284 0.074851
vt 0.951364 0.038186
vt 0.956284 0.038186
vt 0.907393 0.247283
vt 0.912283 0.247283
vt 0.907393 0.277339
vt 0.912283 0.277339
vt 0.907393 0.307491
vt 0.912283 0.307491
vt 0.907393 0.337698
vt 0.912283 0.337698
vt 0.907393 0.366641
vt 0.912283 0.366641
vt 0.966049 0.307699
vt 0.966307 0.283469
vt 0.971187 0.283261
vt 0.970932 0.307529
vt 0.882203 0.352604
vt 0.882203 0.385538
vt 0.877311 0.385538
vt 0.877311 0.352604
vt 0.966305 0.330987
vt 0.971187 0.330838
vt 0.882203 0.317252
vt 0.877311 0.317252
vt 0.882203 0.284959
vt 0.877311 0.284959
vt 0.882203 0.044970
vt 0.882203 0.085827
vt 0.877311 0.085827
vt 0.877311 0.044971
vt 0.882203 0.008570
vt 0.877311 0.008570
vt 0.951364 0.008573
vt 0.956284 0.008573
vt 0.882203 0.125206
vt 0.882203 0.157588
vt 0.877311 0.157588
vt 0.877311 0.125206
vt 0.882203 0.188819
vt 0.877311 0.188819
vt 0.882203 0.220236
vt 0.882203 0.253060
vt 0.877311 0.253060
vt 0.877311 0.220236
vt 0.941602 0.229334
vt 0.936714 0.229334
s 1
f 1/1/1 4/2/2 3/3/3 2/4/4
f 88/5/5 89/6/6 6/7/7 5/8/8
f 92/9/9 8/10/10 7/11/11 93/12/12
f 7/11/11 8/10/10 10/13/13 9/14/14
f 10/13/13 12/15/15 11/16/16 9/14/14
f 11/16/16 12/15/15 14/17/17 13/18/18
f 14/17/17 16/19/19 15/20/20 13/18/18
f 15/20/20 16/19/19 18/21/21 17/22/22
f 18/21/21 20/23/23 19/24/24 17/22/22
f 19/25/25 20/26/26 22/27/26 21/28/27
f 21/28/27 24/29/28 23/30/29 19/25/25
f 23/30/29 24/29/28 26/31/30 25/32/31
f 96/33/32 28/34/33 27/35/34 97/36/35
f 27/35/34 28/34/33 30/37/36 29/38/37
f 30/37/36 32/39/38 31/40/38 29/38/37
f 39/41/39 38/42/40 34/43/41 33/44/42
f 17/22/22 19/24/24 23/45/43 35/46/44
f 23/45/43 25/47/45 36/48/46 35/46/44
f 98/49/47 97/50/48 27/51/49 37/52/50
f 29/53/51 31/54/52 38/42/40 39/41/39
f 27/51/49 29/53/51 39/41/39 37/52/50
f 17/22/22 35/46/44 40/55/53 15/20/20
f 40/55/53 35/46/44 36/48/46 41/56/54
f 98/49/47 37/52/50 42/57/55 99/58/56
f 42/57/55 37/52/50 39/41/39 33/44/42
f 13/18/18 15/20/20 40/55/53 43/59/57
f 43/59/57 40/55/53 41/56/54 44/60/58
f 99/58/56 42/57/55 45/61/59 100/62/60
f 45/61/59 42/57/55 33/44/42 46/63/61
f 33/44/42 34/43/41 47/64/62 46/63/61
f 13/18/18 43/59/57 48/65/63 11/16/16
f 48/65/63 43/59/57 44/60/58 49/66/64
f 100/62/60 45/61/59 50/67/65 101/68/66
f 50/67/65 45/61/59 46/63/61 51/69/67
f 46/63/61 47/64/62 52/70/68 51/69/67
f 9/14/14 11/16/16 48/65/63 53/71/69
f 48/65/63 49/66/64 54/72/70 53/71/69
f 102/73/71 101/68/66 50/67/65 55/74/72
f 50/67/65 51/69/67 56/75/73 55/74/72
f 56/75/73 51/69/67 52/70/68 57/76/74
f 9/14/14 53/71/69 58/77/75 7/11/11
f 93/12/12 7/11/11 58/77/75 94/78/76
f 88/5/5 90/79/77 60/80/78 3/3/3
f 94/78/76 95/81/79 61/82/80 59/83/81
f 62/84/82 58/77/75 53/71/69 54/72/70
f 90/79/77 91/85/83 63/86/84 60/80/78
f 2/4/4 3/3/3 60/80/78 64/87/85
f 60/80/78 63/86/84 65/88/86 64/87/85
f 65/88/86 63/86/84 67/89/87 66/90/88
f 67/89/87 69/91/89 68/92/90 66/90/88
f 68/92/90 69/91/89 70/93/91 71/94/92
f 69/91/89 72/95/93 73/96/94 70/93/91
f 72/95/93 69/91/89 67/89/87 74/97/95
f 67/89/87 75/98/96 76/99/97 74/97/95
f 55/74/72 56/75/73 78/100/98 77/101/99
f 56/75/73 57/76/74 79/102/100 78/100/98
f 103/103/101 80/104/102 81/105/103 102/73/71
f 80/104/102 82/106/104 83/107/105 81/105/103
f 87/108/106 86/109/107 84/110/108 85/111/109
f 84/110/108 76/99/97 75/98/96 85/111/109
f 83/107/105 82/106/104 86/109/107 87/108/106
f 59/83/81 61/82/80 91/85/83 90/79/77
f 5/8/8 59/83/81 90/79/77 88/5/5
f 3/3/3 4/2/2 89/6/6 88/5/5
f 63/86/84 91/85/83 75/98/96 67/89/87
f 85/111/109 75/98/96 91/85/83 61/82/80
f 58/77/75 62/84/82 95/81/79 94/78/76
f 5/8/8 93/12/12 94/78/76 59/83/81
f 6/7/7 92/9/9 93/12/12 5/8/8
f 87/108/106 85/111/109 61/82/80 95/81/79
f 83/107/105 87/108/106 95/81/79 62/84/82
f 81/105/103 109/112/110 101/68/66 102/73/71
f 108/113/111 100/62/60 101/68/66 109/112/110
f 107/114/112 99/58/56 100/62/60 108/113/111
f 105/115/113 98/49/47 99/58/56 107/114/112
f 105/115/113 106/116/114 97/50/48 98/49/47
f 104/117/115 96/33/32 97/36/35 106/118/116
f 77/101/99 103/103/101 102/73/71 55/74/72
f 26/31/30 104/117/115 106/118/116 25/32/31
f 36/48/46 25/47/45 106/116/114 105/115/113
f 36/48/46 105/115/113 107/114/112 41/56/54
f 41/56/54 107/114/112 108/113/111 44/60/58
f 44/60/58 108/113/111 109/112/110 49/66/64
f 54/72/70 49/66/64 109/112/110 81/105/103
f 62/84/82 54/72/70 81/105/103 83/107/105
f 1/1/117 110/119/118 111/120/119 4/2/120
f 186/121/121 112/122/122 6/7/123 89/6/124
f 92/9/125 189/123/126 113/124/127 8/10/128
f 113/124/127 114/125/129 10/13/130 8/10/128
f 10/13/130 114/125/129 115/126/131 12/15/132
f 115/126/131 116/127/133 14/17/134 12/15/132
f 14/17/134 116/127/133 117/128/135 16/19/136
f 117/128/135 118/129/137 18/21/138 16/19/136
f 18/21/138 118/129/137 119/130/139 20/23/140
f 119/131/141 120/132/142 22/27/26 20/26/26
f 120/132/142 119/131/141 121/133/143 122/134/144
f 121/133/143 123/135/145 124/136/146 122/134/144
f 192/137/147 193/138/148 125/139/149 126/140/150
f 125/139/149 127/141/151 128/142/152 126/140/150
f 128/142/152 127/141/151 129/143/153 130/144/153
f 137/145/154 131/146/155 132/147/156 136/148/157
f 118/129/137 133/149/158 121/150/159 119/130/139
f 121/150/159 133/149/158 134/151/160 123/152/161
f 194/153/162 135/154/163 125/155/164 193/156/165
f 127/157/166 137/145/154 136/148/157 129/158/167
f 125/155/164 135/154/163 137/145/154 127/157/166
f 118/129/137 117/128/135 138/159/168 133/149/158
f 138/159/168 139/160/169 134/151/160 133/149/158
f 194/153/162 195/161/170 140/162/171 135/154/163
f 140/162/171 131/146/155 137/145/154 135/154/163
f 116/127/133 141/163/172 138/159/168 117/128/135
f 141/163/172 142/164/173 139/160/169 138/159/168
f 195/161/170 196/165/174 143/166/175 140/162/171
f 143/166/175 144/167/176 131/146/155 140/162/171
f 131/146/155 144/167/176 145/168/177 132/147/156
f 116/127/133 115/126/131 146/169/178 141/163/172
f 146/169/178 147/170/179 142/164/173 141/163/172
f 196/165/174 197/171/180 148/172/181 143/166/175
f 148/172/181 149/173/182 144/167/176 143/166/175
f 144/167/176 149/173/182 150/174/183 145/168/177
f 114/125/129 151/175/184 146/169/178 115/126/131
f 146/169/178 151/175/184 152/176/185 147/170/179
f 198/177/186 153/178/187 148/172/181 197/171/180
f 148/172/181 153/178/187 154/179/188 149/173/182
f 154/179/188 155/180/189 150/174/183 149/173/182
f 114/125/129 113/124/127 156/181/190 151/175/184
f 189/123/126 190/182/191 156/181/190 113/124/127
f 186/121/121 111/120/119 158/183/192 187/184/193
f 190/182/191 157/185/194 159/186/195 191/187/196
f 160/188/197 152/176/185 151/175/184 156/181/190
f 187/184/193 158/183/192 161/189/198 188/190/199
f 110/119/118 162/191/200 158/183/192 111/120/119
f 158/183/192 162/191/200 163/192/201 161/189/198
f 163/192/201 164/193/202 165/194/203 161/189/198
f 165/194/203 164/193/202 166/195/204 167/196/205
f 166/195/204 169/197/206 168/198/207 167/196/205
f 167/196/205 168/198/207 171/199/208 170/200/209
f 170/200/209 172/201/210 165/194/203 167/196/205
f 165/194/203 172/201/210 174/202/211 173/203/212
f 153/178/187 175/204/213 176/205/214 154/179/188
f 154/179/188 176/205/214 177/206/215 155/180/189
f 199/207/216 198/177/186 179/208/217 178/209/218
f 178/209/218 179/208/217 181/210/219 180/211/220
f 185/212/221 183/213/222 182/214/223 184/215/224
f 182/214/223 183/213/222 173/203/212 174/202/211
f 181/210/219 185/212/221 184/215/224 180/211/220
f 157/185/194 187/184/193 188/190/199 159/186/195
f 112/122/122 186/121/121 187/184/193 157/185/194
f 111/120/119 186/121/121 89/6/124 4/2/120
f 161/189/198 165/194/203 173/203/212 188/190/199
f 183/213/222 159/186/195 188/190/199 173/203/212
f 156/181/190 190/182/191 191/187/196 160/188/197
f 112/122/122 157/185/194 190/182/191 189/123/126
f 6/7/123 112/122/122 189/123/126 92/9/125
f 185/212/221 191/187/196 159/186/195 183/213/222
f 181/210/219 160/188/197 191/187/196 185/212/221
f 179/208/217 198/177/186 197/171/180 205/216/225
f 204/217/226 205/216/225 197/171/180 196/165/174
f 203/218/227 204/217/226 196/165/174 195/161/170
f 201/219/228 203/218/227 195/161/170 194/153/162
f 201/219/228 194/153/162 193/156/165 202/220/229
f 200/221/230 202/222/231 193/138/148 192/137/147
f 175/204/213 153/178/187 198/177/186 199/207/216
f 124/136/146 123/135/145 202/222/231 200/221/230
f 134/151/160 201/219/228 202/220/229 123/152/161
f 134/151/160 139/160/169 203/218/227 201/219/228
f 139/160/169 142/164/173 204/217/226 203/218/227
f 142/164/173 147/170/179 205/216/225 204/217/226
f 152/176/185 179/208/217 205/216/225 147/170/179
f 160/188/197 181/210/219 179/208/217 152/176/185
f 206/223/232 207/224/233 208/225/234 209/226/235
f 293/227/236 210/228/237 211/229/238 294/230/239
f 297/231/240 298/232/241 212/233/242 213/234/243
f 212/233/242 214/235/244 215/236/245 213/234/243
f 215/236/245 214/235/244 216/237/246 217/238/247
f 216/237/246 218/239/248 219/240/249 217/238/247
f 219/240/249 218/239/248 220/241/250 221/242/251
f 220/241/250 222/243/252 223/244/253 221/242/251
f 223/244/253 222/243/252 224/245/254 225/246/255
f 224/247/256 226/248/257 227/249/258 225/250/258
f 226/248/257 224/247/256 228/251/259 229/252/260
f 228/251/259 230/253/261 231/254/262 229/252/260
f 301/255/263 302/256/264 232/257/265 233/258/266
f 232/257/265 234/259/267 235/260/268 233/258/266
f 235/260/268 234/259/267 236/261/269 237/262/269
f 244/263/270 238/264/271 239/265/272 243/266/273
f 222/243/252 240/267/274 228/268/275 224/245/254
f 228/268/275 240/267/274 241/269/276 230/270/277
f 303/271/278 242/272/279 232/273/280 302/274/281
f 234/275/282 244/263/270 243/266/273 236/276/283
f 232/273/280 242/272/279 244/263/270 234/275/282
f 222/243/252 220/241/250 245/277/284 240/267/274
f 245/277/284 246/278/285 241/269/276 240/267/274
f 303/271/278 304/279/286 247/280/287 242/272/279
f 247/280/287 238/264/271 244/263/270 242/272/279
f 218/239/248 248/281/288 245/277/284 220/241/250
f 248/281/288 249/282/289 246/278/285 245/277/284
f 304/279/286 305/283/290 250/284/291 247/280/287
f 250/284/291 251/285/292 238/264/271 247/280/287
f 238/264/271 251/285/292 252/286/293 239/265/272
f 218/239/248 216/237/246 253/287/294 248/281/288
f 253/287/294 254/288/295 249/282/289 248/281/288
f 305/283/290 306/289/296 255/290/297 250/284/291
f 255/290/297 256/291/298 251/285/292 250/284/291
f 251/285/292 256/291/298 257/292/299 252/286/293
f 214/235/244 258/293/300 253/287/294 216/237/246
f 253/287/294 258/293/300 259/294/301 254/288/295
f 307/295/302 260/296/303 255/290/297 306/289/296
f 255/290/297 260/296/303 261/297/304 256/291/298
f 261/297/304 262/298/305 257/292/299 256/291/298
f 214/235/244 212/233/242 263/299/306 258/293/300
f 298/232/241 299/300/307 263/299/306 212/233/242
f 293/227/236 208/225/234 265/301/308 295/302/309
f 299/300/307 264/303/310 266/304/311 300/305/312
f 267/306/313 259/294/301 258/293/300 263/299/306
f 295/302/309 265/301/308 268/307/314 296/308/315
f 207/224/233 269/309/316 265/301/308 208/225/234
f 265/301/308 269/309/316 270/310/317 268/307/314
f 270/310/317 271/311/318 272/312/319 268/307/314
f 272/312/319 271/311/318 273/313/320 274/314/321
f 273/313/320 276/315/322 275/316/323 274/314/321
f 274/314/321 275/316/323 278/317/324 277/318/325
f 277/318/325 279/319/326 272/312/319 274/314/321
f 272/312/319 279/319/326 281/320/327 280/321/328
f 260/296/303 282/322/329 283/323/330 261/297/304
f 261/297/304 283/323/330 284/324/331 262/298/305
f 308/325/332 307/295/302 286/326/333 285/327/334
f 285/327/334 286/326/333 288/328/335 287/329/336
f 292/330/337 290/331/338 289/332/339 291/333/340
f 289/332/339 290/331/338 280/321/328 281/320/327
f 288/328/335 292/330/337 291/333/340 287/329/336
f 264/303/310 295/302/309 296/308/315 266/304/311
f 210/228/237 293/227/236 295/302/309 264/303/310
f 208/225/234 293/227/236 294/230/239 209/226/235
f 268/307/314 272/312/319 280/321/328 296/308/315
f 290/331/338 266/304/311 296/308/315 280/321/328
f 263/299/306 299/300/307 300/305/312 267/306/313
f 210/228/237 264/303/310 299/300/307 298/232/241
f 211/229/238 210/228/237 298/232/241 297/231/240
f 292/330/337 300/305/312 266/304/311 290/331/338
f 288/328/335 267/306/313 300/305/312 292/330/337
f 286/326/333 307/295/302 306/289/296 314/334/341
f 313/335/342 314/334/341 306/289/296 305/283/290
f 312/336/343 313/335/342 305/283/290 304/279/286
f 310/337/344 312/336/343 304/279/286 303/271/278
f 310/337/344 303/271/278 302/274/281 311/338/345
f 309/339/346 311/340/347 302/256/264 301/255/263
f 282/322/329 260/296/303 307/295/302 308/325/332
f 231/254/262 230/253/261 311/340/347 309/339/346
f 241/269/276 310/337/344 311/338/345 230/270/277
f 241/269/276 246/278/285 312/336/343 310/337/344
f 246/278/285 249/282/289 313/335/342 312/336/343
f 249/282/289 254/288/295 314/334/341 313/335/342
f 259/294/301 286/326/333 314/334/341 254/288/295
f 267/306/313 288/328/335 286/326/333 259/294/301
f 206/223/348 209/226/349 316/341/350 315/342/351
f 391/343/352 294/230/353 211/229/354 317/344/355
f 297/231/356 213/234/357 318/345/358 394/346/359
f 318/345/358 213/234/357 215/236/360 319/347/361
f 215/236/360 217/238/362 320/348/363 319/347/361
f 320/348/363 217/238/362 219/240/364 321/349/365
f 219/240/364 221/242/366 322/350/367 321/349/365
f 322/350/367 221/242/366 223/244/368 323/351/369
f 223/244/368 225/246/370 324/352/371 323/351/369
f 324/353/372 225/250/258 227/249/258 325/354/373
f 325/354/373 327/355/374 326/356/375 324/353/372
f 326/356/375 327/355/374 329/357/376 328/358/377
f 397/359/378 331/360/379 330/361/380 398/362/381
f 330/361/380 331/360/379 333/363/382 332/364/383
f 333/363/382 335/365/384 334/366/384 332/364/383
f 342/367/385 341/368/386 337/369/387 336/370/388
f 323/351/369 324/352/371 326/371/389 338/372/390
f 326/371/389 328/373/391 339/374/392 338/372/390
f 399/375/393 398/376/394 330/377/395 340/378/396
f 332/379/397 334/380/398 341/368/386 342/367/385
f 330/377/395 332/379/397 342/367/385 340/378/396
f 323/351/369 338/372/390 343/381/399 322/350/367
f 343/381/399 338/372/390 339/374/392 344/382/400
f 399/375/393 340/378/396 345/383/401 400/384/402
f 345/383/401 340/378/396 342/367/385 336/370/388
f 321/349/365 322/350/367 343/381/399 346/385/403
f 346/385/403 343/381/399 344/382/400 347/386/404
f 400/384/402 345/383/401 348/387/405 401/388/406
f 348/387/405 345/383/401 336/370/388 349/389/407
f 336/370/388 337/369/387 350/390/408 349/389/407
f 321/349/365 346/385/403 351/391/409 320/348/363
f 351/391/409 346/385/403 347/386/404 352/392/410
f 401/388/406 348/387/405 353/393/411 402/394/412
f 353/393/411 348/387/405 349/389/407 354/395/413
f 349/389/407 350/390/408 355/396/414 354/395/413
f 319/347/361 320/348/363 351/391/409 356/397/415
f 351/391/409 352/392/410 357/398/416 356/397/415
f 403/399/417 402/394/412 353/393/411 358/400/418
f 353/393/411 354/395/413 359/401/419 358/400/418
f 359/401/419 354/395/413 355/396/414 360/402/420
f 319/347/361 356/397/415 361/403/421 318/345/358
f 394/346/359 318/345/358 361/403/421 395/404/422
f 391/343/352 392/405/423 363/406/424 316/341/350
f 395/404/422 396/407/425 364/408/426 362/409/427
f 365/410/428 361/403/421 356/397/415 357/398/416
f 392/405/423 393/411/429 366/412/430 363/406/424
f 315/342/351 316/341/350 363/406/424 367/413/431
f 363/406/424 366/412/430 368/414/432 367/413/431
f 368/414/432 366/412/430 370/415/433 369/416/434
f 370/415/433 372/417/435 371/418/436 369/416/434
f 371/418/436 372/417/435 373/419/437 374/420/438
f 372/417/435 375/421/439 376/422/440 373/419/437
f 375/421/439 372/417/435 370/415/433 377/423/441
f 370/415/433 378/424/442 379/425/443 377/423/441
f 358/400/418 359/401/419 381/426/444 380/427/445
f 359/401/419 360/402/420 382/428/446 381/426/444
f 404/429/447 383/430/448 384/431/449 403/399/417
f 383/430/448 385/432/450 386/433/451 384/431/449
f 390/434/452 389/435/453 387/436/454 388/437/455
f 387/436/454 379/425/443 378/424/442 388/437/455
f 386/433/451 385/432/450 389/435/453 390/434/452
f 362/409/427 364/408/426 393/411/429 392/405/423
f 317/344/355 362/409/427 392/405/423 391/343/352
f 316/341/350 209/226/349 294/230/353 391/343/352
f 366/412/430 393/411/429 378/424/442 370/415/433
f 388/437/455 378/424/442 393/411/429 364/408/426
f 361/403/421 365/410/428 396/407/425 395/404/422
f 317/344/355 394/346/359 395/404/422 362/409/427
f 211/229/354 297/231/356 394/346/359 317/344/355
f 390/434/452 388/437/455 364/408/426 396/407/425
f 386/433/451 390/434/452 396/407/425 365/410/428
f 384/431/449 410/438/456 402/394/412 403/399/417
f 409/439/457 401/388/406 402/394/412 410/438/456
f 408/440/458 400/384/402 401/388/406 409/439/457
f 406/441/459 399/375/393 400/384/402 408/440/458
f 406/441/459 407/442/460 398/376/394 399/375/393
f 405/443/461 397/359/378 398/362/381 407/444/462
f 380/427/445 404/429/447 403/399/417 358/400/418
f 329/357/376 405/443/461 407/444/462 328/358/377
f 339/374/392 328/373/391 407/442/460 406/441/459
f 339/374/392 406/441/459 408/440/458 344/382/400
f 344/382/400 408/440/458 409/439/457 347/386/404
f 347/386/404 409/439/457 410/438/456 352/392/410
f 357/398/416 352/392/410 410/438/456 384/431/449
f 365/410/428 357/398/416 384/431/449 386/433/451
f 1/445/463 2/446/464 207/447/465 206/448/463
f 21/449/466 22/450/467 227/451/467 226/452/468
f 24/453/469 21/449/466 226/452/468 229/454/470
f 26/455/471 24/453/469 229/454/470 231/456/472
f 104/457/473 26/455/471 231/456/472 309/458/474
f 30/459/475 28/460/476 233/461/477 235/462/478
f 32/463/479 30/459/475 235/462/478 237/464/479
f 31/465/480 32/466/481 237/467/481 236/468/482
f 34/469/483 38/470/484 243/471/485 239/472/486
f 38/470/484 31/465/480 236/468/482 243/471/485
f 47/473/487 34/469/483 239/472/486 252/474/488
f 52/475/489 47/473/487 252/474/488 257/476/490
f 57/477/491 52/475/489 257/476/490 262/478/492
f 2/446/464 64/479/493 269/480/494 207/447/465
f 64/479/493 65/481/495 270/482/496 269/480/494
f 65/481/495 66/483/497 271/484/498 270/482/496
f 66/483/497 68/485/499 273/486/500 271/484/498
f 68/485/499 71/487/501 276/488/501 273/486/500
f 71/489/502 70/490/503 275/491/504 276/492/502
f 73/493/505 72/494/506 277/495/507 278/496/505
f 70/490/503 73/497/508 278/498/508 275/491/504
f 72/494/506 74/499/509 279/500/510 277/495/507
f 74/499/509 76/501/511 281/502/512 279/500/510
f 77/503/513 78/504/514 283/505/515 282/506/516
f 78/504/514 79/507/517 284/508/517 283/505/515
f 79/509/518 57/477/491 262/478/492 284/510/518
f 80/511/519 103/512/520 308/513/521 285/514/522
f 82/515/523 80/511/519 285/514/522 287/516/524
f 84/517/525 86/518/526 291/519/527 289/520/528
f 76/501/511 84/517/525 289/520/528 281/502/512
f 86/518/526 82/515/523 287/516/524 291/519/527
f 28/460/476 96/521/529 301/522/530 233/461/477
f 103/512/520 77/503/513 282/506/516 308/513/521
f 96/521/529 104/457/473 309/458/474 301/522/530
f 110/523/531 1/445/463 206/448/463 315/524/532
f 22/525/533 120/526/534 325/527/535 227/528/533
f 120/526/534 122/529/536 327/530/537 325/527/535
f 122/529/536 124/531/538 329/532/539 327/530/537
f 124/531/538 200/533/540 405/534/541 329/532/539
f 126/535/542 128/536/543 333/537/544 331/538/545
f 128/536/543 130/539/546 335/540/546 333/537/544
f 130/541/547 129/542/548 334/543/549 335/544/547
f 136/545/550 132/546/551 337/547/552 341/548/553
f 129/542/548 136/545/550 341/548/553 334/543/549
f 132/546/551 145/549/554 350/550/555 337/547/552
f 145/549/554 150/551/556 355/552/557 350/550/555
f 150/551/556 155/553/558 360/554/559 355/552/557
f 162/555/560 110/523/531 315/524/532 367/556/561
f 163/557/562 162/555/560 367/556/561 368/558/563
f 164/559/564 163/557/562 368/558/563 369/560/565
f 166/561/566 164/559/564 369/560/565 371/562/567
f 169/563/568 166/561/566 371/562/567 374/564/568
f 168/565/569 169/566/570 374/567/570 373/568/571
f 170/569/572 171/570/573 376/571/573 375/572/574
f 171/573/575 168/565/569 373/568/571 376/574/575
f 172/575/576 170/569/572 375/572/574 377/576/577
f 174/577/578 172/575/576 377/576/577 379/578/579
f 176/579/580 175/580/581 380/581/582 381/582/583
f 177/583/584 176/579/580 381/582/583 382/584/584
f 155/553/558 177/585/585 382/586/585 360/554/559
f 199/587/586 178/588/587 383/589/588 404/590/589
f 178/588/587 180/591/590 385/592/591 383/589/588
f 184/593/592 182/594/593 387/595/594 389/596/595
f 182/594/593 174/577/578 379/578/579 387/595/594
f 180/591/590 184/593/592 389/596/595 385/592/591
f 192/597/596 126/535/542 331/538/545 397/598/597
f 175/580/581 199/587/586 404/590/589 380/581/582
f 200/533/540 192/597/596 397/598/597 405/534/541
