# Blender 4.0.2
# www.blender.org
o mezzaluna_chopper
v 0.000000 0.037729 0.000834
v 0.064519 0.055053 0.000834
v 0.049385 0.047573 0.000834
v 0.033402 0.042136 0.000834
v -0.064519 0.055053 0.000834
v -0.049385 0.047573 0.000834
v -0.033402 0.042136 0.000834
v 0.016846 0.038836 0.000834
v 0.074261 0.055053 0.000834
v 0.074261 0.051488 0.000834
v -0.016846 0.038836 0.000834
v -0.074261 0.055053 0.000834
v -0.074261 0.051488 0.000834
v 0.000000 0.037729 -0.000834
v 0.059677 0.052660 0.000834
v 0.064519 0.055053 -0.000834
v 0.049385 0.047573 -0.000834
v -0.059677 0.052660 0.000834
v -0.064519 0.055053 -0.000834
v -0.049385 0.047573 -0.000834
v 0.033402 0.042136 -0.000834
v 0.016846 0.038836 -0.000834
v 0.074261 0.055053 -0.000834
v -0.033402 0.042136 -0.000834
v -0.016846 0.038836 -0.000834
v -0.074261 0.055053 -0.000834
v 0.000000 0.000000 0.000000
v 0.000000 0.037729 0.000000
v 0.074261 0.051488 -0.000834
v 0.059677 0.052660 -0.000834
v -0.074261 0.051488 -0.000834
v -0.059677 0.052660 -0.000834
v -0.021780 0.001430 0.000000
v 0.064519 0.055053 0.000000
v 0.049385 0.047573 0.000000
v 0.033402 0.042136 0.000000
v 0.016846 0.038836 0.000000
v -0.064519 0.055053 0.000000
v -0.049385 0.047573 0.000000
v -0.033402 0.042136 0.000000
v -0.016846 0.038836 0.000000
v 0.000000 0.001670 0.000834
v 0.074261 0.055053 0.000000
v 0.074261 0.051488 0.000000
v 0.059677 0.052660 0.000000
v 0.021562 0.003086 0.000834
v -0.074261 0.055053 0.000000
v -0.074261 0.051488 0.000000
v -0.059677 0.052660 0.000000
v -0.021562 0.003086 0.000834
v 0.042753 0.007310 0.000834
v -0.043186 0.005697 0.000000
v -0.042753 0.007310 0.000834
v 0.063210 0.014269 0.000834
v -0.063850 0.012727 0.000000
v -0.063210 0.014269 0.000834
v -0.083418 0.022398 0.000000
v -0.082367 0.023737 0.000834
v 0.082367 0.023737 0.000834
v -0.089300 0.027798 0.000834
v 0.000000 0.001670 -0.000834
v 0.089300 0.027798 0.000834
v 0.021780 0.001430 0.000000
v 0.043186 0.005697 0.000000
v -0.090035 0.026640 0.000000
v -0.021562 0.003086 -0.000834
v -0.042753 0.007310 -0.000834
v -0.063210 0.014269 -0.000834
v -0.082367 0.023737 -0.000834
v -0.089300 0.027798 -0.000834
v 0.063850 0.012727 0.000000
v 0.083418 0.022398 0.000000
v 0.090035 0.026640 0.000000
v 0.021562 0.003086 -0.000834
v 0.042753 0.007310 -0.000834
v 0.063210 0.014269 -0.000834
v 0.082367 0.023737 -0.000834
v 0.089300 0.027798 -0.000834
v 0.073592 0.073338 -0.011541
v 0.077645 0.073338 -0.008833
v 0.079570 0.087760 -0.010758
v 0.080763 0.103007 -0.011951
v 0.059978 0.073338 -0.008833
v 0.058054 0.087760 -0.010758
v 0.056861 0.103007 -0.011951
v 0.084426 0.103007 -0.006468
v 0.080964 0.116124 -0.012152
v 0.075388 0.116124 -0.015878
v 0.068812 0.116124 -0.017186
v 0.062235 0.116124 -0.015878
v 0.080270 0.122390 -0.011459
v 0.074541 0.123324 -0.014860
v 0.068812 0.123607 -0.015832
v 0.063082 0.123324 -0.014860
v 0.082868 0.087760 -0.005822
v 0.080353 0.073338 -0.004781
v 0.081304 0.073338 -0.000000
v 0.084026 0.087760 -0.000000
v 0.085713 0.103007 -0.000000
v 0.068812 0.103007 -0.016901
v 0.068812 0.087760 -0.015214
v 0.068812 0.073338 -0.012492
v 0.056659 0.116124 -0.012152
v 0.052934 0.116124 -0.006577
v 0.051626 0.116124 -0.000000
v 0.052934 0.116124 0.006577
v 0.057353 0.122390 -0.011459
v 0.053952 0.123324 -0.005729
v 0.052979 0.123607 -0.000000
v 0.053952 0.123324 0.005729
v 0.075279 0.103007 0.015615
v 0.074634 0.087760 0.014056
v 0.073592 0.073338 0.011541
v 0.062344 0.103007 -0.015615
v 0.062990 0.087760 -0.014056
v 0.064031 0.073338 -0.011541
v 0.053197 0.103007 0.006468
v 0.054756 0.087760 0.005822
v 0.056659 0.116124 0.012152
v 0.062235 0.116124 0.015878
v 0.068812 0.116124 0.017186
v 0.075388 0.116124 0.015878
v 0.057353 0.122390 0.011459
v 0.063082 0.123324 0.014860
v 0.068812 0.123607 0.015832
v 0.074541 0.123324 0.014860
v 0.057270 0.073338 0.004781
v 0.077392 0.061101 -0.003554
v 0.078099 0.061101 -0.000000
v 0.077392 0.061101 0.003554
v 0.075379 0.061101 0.006567
v 0.072366 0.061101 0.008580
v 0.068812 0.061101 0.009287
v 0.065258 0.061101 0.008580
v 0.080964 0.116124 0.012152
v 0.084689 0.116124 0.006577
v 0.085997 0.116124 -0.000000
v 0.084689 0.116124 -0.006577
v 0.080270 0.122390 0.011459
v 0.083672 0.123324 0.005729
v 0.084644 0.123607 -0.000000
v 0.083672 0.123324 -0.005729
v 0.062245 0.061101 0.006567
v 0.060232 0.061101 0.003554
v 0.059525 0.061101 -0.000000
v 0.060232 0.061101 -0.003554
v 0.062245 0.061101 -0.006567
v 0.065258 0.061101 -0.008580
v 0.068812 0.061101 -0.009287
v 0.072366 0.061101 -0.008580
v 0.075379 0.061101 -0.006567
v 0.078734 0.127804 -0.009922
v 0.073773 0.129673 -0.011635
v 0.068812 0.130237 -0.012152
v 0.063851 0.129673 -0.011635
v 0.058889 0.127804 -0.009922
v 0.080447 0.129673 -0.004961
v 0.074629 0.133442 -0.005817
v 0.068812 0.134519 -0.006076
v 0.062994 0.133442 -0.005817
v 0.057177 0.129673 -0.004961
v 0.080964 0.130237 -0.000000
v 0.074888 0.134519 -0.000000
v 0.068812 0.135730 -0.000000
v 0.062736 0.134519 -0.000000
v 0.056659 0.130237 -0.000000
v 0.080447 0.129673 0.004961
v 0.074629 0.133442 0.005817
v 0.068812 0.134519 0.006076
v 0.062994 0.133442 0.005817
v 0.057177 0.129673 0.004961
v 0.078734 0.127804 0.009922
v 0.073773 0.129673 0.011635
v 0.068812 0.130237 0.012152
v 0.063851 0.129673 0.011635
v 0.058889 0.127804 0.009922
v 0.074634 0.087760 -0.014056
v 0.075279 0.103007 -0.015615
v 0.056861 0.103007 0.011951
v 0.058054 0.087760 0.010758
v 0.059978 0.073338 0.008833
v 0.053197 0.103007 -0.006468
v 0.054756 0.087760 -0.005822
v 0.057270 0.073338 -0.004781
v 0.056319 0.073338 -0.000000
v 0.053598 0.087760 -0.000000
v 0.051910 0.103007 -0.000000
v 0.080763 0.103007 0.011951
v 0.079570 0.087760 0.010758
v 0.077645 0.073338 0.008833
v 0.080353 0.073338 0.004781
v 0.082868 0.087760 0.005822
v 0.084426 0.103007 0.006468
v 0.062344 0.103007 0.015615
v 0.062990 0.087760 0.014056
v 0.064031 0.073338 0.011541
v 0.068812 0.073338 0.012492
v 0.068812 0.087760 0.015214
v 0.068812 0.103007 0.016901
v 0.077392 0.052623 -0.003554
v 0.078099 0.052623 -0.000000
v 0.077392 0.052623 0.003554
v 0.075379 0.052623 0.006567
v 0.072366 0.052623 0.008580
v 0.068812 0.052623 0.009287
v 0.065258 0.052623 0.008580
v 0.062245 0.052623 0.006567
v 0.060232 0.052623 0.003554
v 0.059525 0.052623 -0.000000
v 0.060232 0.052623 -0.003554
v 0.062245 0.052623 -0.006567
v 0.065258 0.052623 -0.008580
v 0.068812 0.052623 -0.009287
v 0.072366 0.052623 -0.008580
v 0.075379 0.052623 -0.006567
v 0.068812 0.052623 -0.000000
v -0.073592 0.073338 -0.011541
v -0.077645 0.073338 -0.008833
v -0.079570 0.087760 -0.010758
v -0.080763 0.103007 -0.011951
v -0.059978 0.073338 -0.008833
v -0.058054 0.087760 -0.010758
v -0.056861 0.103007 -0.011951
v -0.084426 0.103007 -0.006468
v -0.080964 0.116124 -0.012152
v -0.075388 0.116124 -0.015878
v -0.068812 0.116124 -0.017186
v -0.062235 0.116124 -0.015878
v -0.080270 0.122390 -0.011459
v -0.074541 0.123324 -0.014860
v -0.068812 0.123607 -0.015832
v -0.063082 0.123324 -0.014860
v -0.082868 0.087760 -0.005822
v -0.080353 0.073338 -0.004781
v -0.081304 0.073338 -0.000000
v -0.084026 0.087760 -0.000000
v -0.085713 0.103007 -0.000000
v -0.068812 0.103007 -0.016901
v -0.068812 0.087760 -0.015214
v -0.068812 0.073338 -0.012492
v -0.056659 0.116124 -0.012152
v -0.052934 0.116124 -0.006577
v -0.051626 0.116124 -0.000000
v -0.052934 0.116124 0.006577
v -0.057353 0.122390 -0.011459
v -0.053952 0.123324 -0.005729
v -0.052979 0.123607 -0.000000
v -0.053952 0.123324 0.005729
v -0.075279 0.103007 0.015615
v -0.074634 0.087760 0.014056
v -0.073592 0.073338 0.011541
v -0.062344 0.103007 -0.015615
v -0.062990 0.087760 -0.014056
v -0.064031 0.073338 -0.011541
v -0.053197 0.103007 0.006468
v -0.054756 0.087760 0.005822
v -0.056659 0.116124 0.012152
v -0.062235 0.116124 0.015878
v -0.068812 0.116124 0.017186
v -0.075388 0.116124 0.015878
v -0.057353 0.122390 0.011459
v -0.063082 0.123324 0.014860
v -0.068812 0.123607 0.015832
v -0.074541 0.123324 0.014860
v -0.057270 0.073338 0.004781
v -0.077392 0.061101 -0.003554
v -0.078099 0.061101 -0.000000
v -0.077392 0.061101 0.003554
v -0.075379 0.061101 0.006567
v -0.072366 0.061101 0.008580
v -0.068812 0.061101 0.009287
v -0.065258 0.061101 0.008580
v -0.080964 0.116124 0.012152
v -0.084689 0.116124 0.006577
v -0.085997 0.116124 -0.000000
v -0.084689 0.116124 -0.006577
v -0.080270 0.122390 0.011459
v -0.083672 0.123324 0.005729
v -0.084644 0.123607 -0.000000
v -0.083672 0.123324 -0.005729
v -0.062245 0.061101 0.006567
v -0.060232 0.061101 0.003554
v -0.059525 0.061101 -0.000000
v -0.060232 0.061101 -0.003554
v -0.062245 0.061101 -0.006567
v -0.065258 0.061101 -0.008580
v -0.068812 0.061101 -0.009287
v -0.072366 0.061101 -0.008580
v -0.075379 0.061101 -0.006567
v -0.078734 0.127804 -0.009922
v -0.073773 0.129673 -0.011635
v -0.068812 0.130237 -0.012152
v -0.063851 0.129673 -0.011635
v -0.058889 0.127804 -0.009922
v -0.080447 0.129673 -0.004961
v -0.074629 0.133442 -0.005817
v -0.068812 0.134519 -0.006076
v -0.062994 0.133442 -0.005817
v -0.057177 0.129673 -0.004961
v -0.080964 0.130237 -0.000000
v -0.074888 0.134519 -0.000000
v -0.068812 0.135730 -0.000000
v -0.062736 0.134519 -0.000000
v -0.056659 0.130237 -0.000000
v -0.080447 0.129673 0.004961
v -0.074629 0.133442 0.005817
v -0.068812 0.134519 0.006076
v -0.062994 0.133442 0.005817
v -0.057177 0.129673 0.004961
v -0.078734 0.127804 0.009922
v -0.073773 0.129673 0.011635
v -0.068812 0.130237 0.012152
v -0.063851 0.129673 0.011635
v -0.058889 0.127804 0.009922
v -0.074634 0.087760 -0.014056
v -0.075279 0.103007 -0.015615
v -0.056861 0.103007 0.011951
v -0.058054 0.087760 0.010758
v -0.059978 0.073338 0.008833
v -0.053197 0.103007 -0.006468
v -0.054756 0.087760 -0.005822
v -0.057270 0.073338 -0.004781
v -0.056319 0.073338 -0.000000
v -0.053598 0.087760 -0.000000
v -0.051910 0.103007 -0.000000
v -0.080763 0.103007 0.011951
v -0.079570 0.087760 0.010758
v -0.077645 0.073338 0.008833
v -0.080353 0.073338 0.004781
v -0.082868 0.087760 0.005822
v -0.084426 0.103007 0.006468
v -0.062344 0.103007 0.015615
v -0.062990 0.087760 0.014056
v -0.064031 0.073338 0.011541
v -0.068812 0.073338 0.012492
v -0.068812 0.087760 0.015214
v -0.068812 0.103007 0.016901
v -0.077392 0.052623 -0.003554
v -0.078099 0.052623 -0.000000
v -0.077392 0.052623 0.003554
v -0.075379 0.052623 0.006567
v -0.072366 0.052623 0.008580
v -0.068812 0.052623 0.009287
v -0.065258 0.052623 0.008580
v -0.062245 0.052623 0.006567
v -0.060232 0.052623 0.003554
v -0.059525 0.052623 -0.000000
v -0.060232 0.052623 -0.003554
v -0.062245 0.052623 -0.006567
v -0.065258 0.052623 -0.008580
v -0.068812 0.052623 -0.009287
v -0.072366 0.052623 -0.008580
v -0.075379 0.052623 -0.006567
v -0.068812 0.052623 -0.000000
vn -0.0000 -0.0000 1.0000
vn 1.0000 -0.0000 -0.0000
vn 0.9603 0.2791 -0.0000
vn -0.2593 0.9658 -0.0000
vn -0.3834 0.9236 -0.0000
vn 0.8442 0.5360 -0.0000
vn -0.1158 -0.4315 0.8947
vn -0.1713 -0.4126 0.8946
vn -0.0000 -0.4467 0.8947
vn -0.0584 -0.4429 0.8947
vn 0.2275 0.9738 -0.0000
vn -0.0000 1.0000 -0.0000
vn -0.1308 0.9914 -0.0000
vn -0.0000 -0.0000 -1.0000
vn 0.2593 0.9658 -0.0000
vn 0.3834 0.9236 -0.0000
vn 0.1308 0.9914 -0.0000
vn 0.4431 0.8965 -0.0000
vn 0.0584 -0.4429 0.8947
vn 0.1158 -0.4315 0.8947
vn 0.1713 -0.4126 0.8946
vn -0.0000 -0.4467 -0.8947
vn -0.0584 -0.4429 -0.8947
vn -0.9603 0.2791 -0.0000
vn -0.8442 0.5360 -0.0000
vn -1.0000 -0.0000 -0.0000
vn -0.2217 -0.4043 0.8873
vn -0.2264 -0.4049 0.8859
vn -0.4431 0.8965 -0.0000
vn -0.2275 0.9738 -0.0000
vn -0.2498 -0.4078 0.8782
vn 0.0584 -0.4429 -0.8947
vn 0.2264 -0.4049 0.8859
vn 0.2217 -0.4043 0.8873
vn 0.2498 -0.4078 0.8782
vn -0.2264 -0.4049 -0.8859
vn -0.2498 -0.4078 -0.8782
vn -0.2217 -0.4043 -0.8873
vn -0.1158 -0.4315 -0.8947
vn -0.1713 -0.4126 -0.8946
vn 0.1158 -0.4315 -0.8947
vn 0.1713 -0.4126 -0.8946
vn 0.2264 -0.4049 -0.8859
vn 0.2217 -0.4043 -0.8873
vn 0.2498 -0.4078 -0.8782
vn -0.3819 -0.0655 -0.9219
vn -0.0000 -0.0655 -0.9978
vn -0.0000 -0.1471 -0.9891
vn -0.3785 -0.1471 -0.9138
vn -0.3793 0.0736 -0.9224
vn -0.0000 0.0736 -0.9973
vn 0.3785 -0.1471 0.9138
vn -0.0000 -0.1471 0.9891
vn -0.0000 -0.2186 0.9758
vn 0.3734 -0.2186 0.9015
vn 0.3819 -0.0655 0.9219
vn -0.0000 -0.0655 0.9978
vn 0.3793 0.0736 0.9224
vn -0.0000 0.0736 0.9973
vn 0.6994 -0.1471 -0.6994
vn 0.9138 -0.1471 -0.3785
vn 0.9015 -0.2186 -0.3734
vn 0.6900 -0.2186 -0.6900
vn 0.7056 -0.0655 -0.7056
vn 0.9219 -0.0655 -0.3819
vn 0.7052 0.0737 -0.7052
vn 0.9224 0.0736 -0.3793
vn 0.3793 0.0736 -0.9224
vn 0.3412 0.3099 -0.8874
vn 0.6788 0.2803 -0.6788
vn -0.0000 0.3271 -0.9450
vn -0.3412 0.3099 -0.8874
vn -0.7052 0.0737 -0.7052
vn -0.6788 0.2803 -0.6788
vn 0.3163 0.6334 -0.7062
vn 0.6014 0.5260 -0.6014
vn -0.0000 0.6696 -0.7427
vn -0.3163 0.6334 -0.7062
vn -0.6014 0.5260 -0.6014
vn 0.3785 -0.1471 -0.9138
vn 0.3734 -0.2186 -0.9015
vn -0.0000 -0.2186 -0.9758
vn 0.3819 -0.0655 -0.9219
vn 0.9891 -0.1471 -0.0000
vn 0.9758 -0.2186 -0.0000
vn 0.9978 -0.0655 -0.0000
vn 0.9973 0.0736 -0.0000
vn -0.9138 -0.1471 -0.3785
vn -0.6994 -0.1471 -0.6994
vn -0.6900 -0.2186 -0.6900
vn -0.9015 -0.2186 -0.3734
vn -0.9219 -0.0655 -0.3819
vn -0.7056 -0.0655 -0.7056
vn -0.9224 0.0736 -0.3793
vn -0.8874 0.3099 -0.3412
vn -0.9973 0.0736 -0.0000
vn -0.9450 0.3271 -0.0000
vn -0.9224 0.0736 0.3793
vn -0.8874 0.3099 0.3412
vn -0.7052 0.0737 0.7052
vn -0.6788 0.2803 0.6788
vn -0.7062 0.6334 -0.3163
vn -0.7427 0.6696 -0.0000
vn -0.7062 0.6334 0.3163
vn -0.6014 0.5260 0.6014
vn -0.3785 -0.1471 0.9138
vn -0.6994 -0.1471 0.6994
vn -0.6900 -0.2186 0.6900
vn -0.3734 -0.2186 0.9015
vn -0.3819 -0.0655 0.9219
vn -0.7056 -0.0655 0.7056
vn -0.3793 0.0736 0.9224
vn -0.9891 -0.1471 -0.0000
vn -0.9758 -0.2186 -0.0000
vn -0.3412 0.3099 0.8874
vn -0.0000 0.3271 0.9450
vn 0.3412 0.3099 0.8874
vn 0.7052 0.0737 0.7052
vn 0.6788 0.2803 0.6788
vn -0.3163 0.6334 0.7062
vn -0.0000 0.6696 0.7427
vn 0.3163 0.6334 0.7062
vn 0.6014 0.5260 0.6014
vn -0.9978 -0.0655 -0.0000
vn 0.9138 -0.1471 0.3785
vn 0.6994 -0.1471 0.6994
vn 0.6900 -0.2186 0.6900
vn 0.9015 -0.2186 0.3734
vn 0.9219 -0.0655 0.3819
vn 0.7056 -0.0655 0.7056
vn 0.9224 0.0736 0.3793
vn 0.8874 0.3099 0.3412
vn 0.9450 0.3271 -0.0000
vn 0.8874 0.3099 -0.3412
vn 0.7062 0.6334 0.3163
vn 0.7427 0.6696 -0.0000
vn 0.7062 0.6334 -0.3163
vn 0.8937 -0.2534 0.3702
vn 0.9674 -0.2534 -0.0000
vn -0.3734 -0.2186 -0.9015
vn -0.3702 -0.2534 -0.8937
vn -0.6840 -0.2534 -0.6840
vn -0.9015 -0.2186 0.3734
vn -0.8937 -0.2534 0.3702
vn -0.6840 -0.2534 0.6840
vn 0.3702 -0.2534 0.8937
vn 0.6840 -0.2534 0.6840
vn -0.9674 -0.2534 -0.0000
vn -0.0000 -0.2534 -0.9674
vn -0.0000 -0.2534 0.9674
vn 0.8937 -0.2534 -0.3702
vn 0.6840 -0.2534 -0.6840
vn 0.3702 -0.2534 -0.8937
vn -0.8937 -0.2534 -0.3702
vn -0.3702 -0.2534 0.8937
vn 0.3611 0.8597 -0.3611
vn -0.0000 0.9227 -0.3856
vn -0.3611 0.8597 -0.3611
vn 0.3856 0.9227 -0.0000
vn -0.3856 0.9227 -0.0000
vn 0.3611 0.8597 0.3611
vn -0.0000 0.9227 0.3856
vn -0.3611 0.8597 0.3611
vn -0.9219 -0.0655 0.3819
vn -0.9138 -0.1471 0.3785
vn -0.3827 -0.0000 0.9239
vn -0.7071 -0.0000 0.7071
vn -0.3827 -0.0000 -0.9239
vn -0.9239 -0.0000 -0.3827
vn 0.3827 -0.0000 -0.9239
vn 0.7071 -0.0000 -0.7071
vn -0.7071 -0.0000 -0.7071
vn -0.9239 -0.0000 0.3827
vn 0.9239 -0.0000 -0.3827
vn 0.9239 -0.0000 0.3827
vn 0.7071 -0.0000 0.7071
vn 0.3827 -0.0000 0.9239
vn -0.0000 -1.0000 -0.0000
vt 0.045967 0.731993
vt 0.102537 0.920256
vt 0.030891 0.885248
vt 0.004960 0.733222
vt 0.980276 0.205509
vt 0.976562 0.205509
vt 0.976562 0.183834
vt 0.980276 0.183834
vt 0.463916 0.728269
vt 0.568105 0.727900
vt 0.564640 0.913640
vt 0.463916 0.914195
vt 0.953704 0.269390
vt 0.953704 0.166748
vt 0.957418 0.166748
vt 0.957418 0.269390
vt 0.976562 0.004883
vt 0.980276 0.013227
vt 0.254285 0.720885
vt 0.255712 0.727837
vt 0.151430 0.728452
vt 0.149464 0.720884
vt 0.463916 0.720885
vt 0.359727 0.727900
vt 0.359121 0.720885
vt 0.263952 0.913412
vt 0.167658 0.915456
vt 0.953704 0.885241
vt 0.957418 0.885241
vt 0.957418 0.944469
vt 0.953704 0.944469
vt 0.881865 0.731993
vt 0.922873 0.733222
vt 0.896941 0.885248
vt 0.825295 0.920256
vt 0.953704 0.474673
vt 0.953704 0.372031
vt 0.957418 0.372031
vt 0.957418 0.474673
vt 0.776403 0.728452
vt 0.760175 0.915456
vt 0.045967 0.697735
vt 0.004959 0.696505
vt 0.030891 0.544480
vt 0.102537 0.509472
vt 0.961132 0.885241
vt 0.961132 0.944469
vt 0.463917 0.701459
vt 0.359727 0.701828
vt 0.363193 0.516088
vt 0.463917 0.515533
vt 0.961132 0.679957
vt 0.961132 0.782599
vt 0.957418 0.782599
vt 0.957418 0.679957
vt 0.961132 0.577315
vt 0.957418 0.577315
vt 0.961132 0.852402
vt 0.957418 0.852402
vt 0.568711 0.720885
vt 0.673548 0.720885
vt 0.672120 0.727837
vt 0.953704 0.782599
vt 0.953704 0.852402
vt 0.778369 0.720884
vt 0.023786 0.526395
vt 0.073205 0.506980
vt 0.961132 0.372031
vt 0.961132 0.269390
vt 0.463917 0.708844
vt 0.359122 0.708844
vt 0.972978 0.399998
vt 0.972978 0.229388
vt 0.976692 0.221045
vt 0.976692 0.399998
vt 0.255713 0.701892
vt 0.263952 0.516316
vt 0.825298 0.509472
vt 0.854630 0.506981
vt 0.904048 0.526395
vt 0.896943 0.544480
vt 0.972978 0.421673
vt 0.976692 0.421674
vt 0.044609 0.720884
vt 0.961132 0.096945
vt 0.957418 0.096945
vt 0.957418 0.064106
vt 0.961132 0.064106
vt 0.363193 0.913640
vt 0.980406 0.421673
vt 0.980406 0.399998
vt 0.006813 0.720884
vt 0.953704 0.679957
vt 0.953704 0.577315
vt 0.568107 0.701829
vt 0.568713 0.708844
vt 0.881868 0.697735
vt 0.922875 0.696506
vt 0.663880 0.913412
vt 0.961132 0.166748
vt 0.972848 0.205509
vt 0.972848 0.183834
vt 0.883223 0.720884
vt 0.957418 0.004878
vt 0.961132 0.004878
vt 0.564641 0.516088
vt 0.663882 0.516316
vt 0.672122 0.701892
vt 0.921020 0.720884
vt 0.044609 0.708844
vt 0.006812 0.708844
vt 0.760177 0.514272
vt 0.776405 0.701276
vt 0.254285 0.708844
vt 0.149464 0.708844
vt 0.151430 0.701276
vt 0.073205 0.922747
vt 0.023787 0.903333
vt 0.953704 0.096945
vt 0.961132 0.474673
vt 0.953704 0.064106
vt 0.673550 0.708844
vt 0.778371 0.708844
vt 0.953704 0.004878
vt 0.883226 0.708844
vt 0.921023 0.708844
vt 0.904046 0.903333
vt 0.854627 0.922747
vt 0.980406 0.229388
vt 0.167658 0.514271
vt 0.972848 0.013227
vt 0.645549 0.104912
vt 0.645563 0.135775
vt 0.571539 0.137861
vt 0.570200 0.107557
vt 0.706500 0.106547
vt 0.705218 0.136994
vt 0.573372 0.343109
vt 0.572565 0.372564
vt 0.494634 0.368505
vt 0.495292 0.340546
vt 0.645698 0.343992
vt 0.645809 0.374303
vt 0.704310 0.343178
vt 0.705382 0.373022
vt 0.573134 0.197259
vt 0.573552 0.226556
vt 0.495105 0.228345
vt 0.494256 0.200087
vt 0.645439 0.196123
vt 0.645447 0.225767
vt 0.703411 0.196383
vt 0.703222 0.225732
vt 0.704164 0.166838
vt 0.737494 0.165785
vt 0.732297 0.196913
vt 0.739983 0.138651
vt 0.740485 0.111102
vt 0.708579 0.075376
vt 0.739235 0.078351
vt 0.774363 0.168158
vt 0.762982 0.197644
vt 0.778278 0.140900
vt 0.777684 0.113325
vt 0.770170 0.082631
vt 0.572485 0.167729
vt 0.493376 0.171756
vt 0.491961 0.143202
vt 0.645483 0.166187
vt 0.573754 0.255710
vt 0.495530 0.256465
vt 0.645474 0.255239
vt 0.703218 0.254980
vt 0.565550 0.045488
vt 0.568277 0.076923
vt 0.488123 0.085992
vt 0.485154 0.057433
vt 0.645277 0.039518
vt 0.645490 0.072620
vt 0.711714 0.042483
vt 0.749007 0.045757
vt 0.716071 0.006710
vt 0.757510 0.015787
vt 0.715407 0.503761
vt 0.711340 0.467741
vt 0.748845 0.464731
vt 0.757183 0.494944
vt 0.708426 0.434719
vt 0.739232 0.431916
vt 0.786207 0.055604
vt 0.796882 0.030028
vt 0.786335 0.455070
vt 0.796903 0.480882
vt 0.770366 0.427764
vt 0.571276 0.402317
vt 0.569300 0.432470
vt 0.491745 0.424204
vt 0.493503 0.396414
vt 0.645686 0.405113
vt 0.645406 0.436842
vt 0.706608 0.403413
vt 0.561638 0.013332
vt 0.480900 0.028887
vt 0.740642 0.399020
vt 0.740190 0.371400
vt 0.737701 0.344205
vt 0.703556 0.313583
vt 0.732456 0.313018
vt 0.778015 0.396887
vt 0.778629 0.369169
vt 0.774692 0.341799
vt 0.763211 0.312218
vt 0.644492 0.004887
vt 0.573906 0.284803
vt 0.573846 0.313886
vt 0.495583 0.312556
vt 0.495665 0.284521
vt 0.645499 0.284650
vt 0.645687 0.314229
vt 0.703274 0.284238
vt 0.736185 0.281794
vt 0.737238 0.254936
vt 0.736106 0.228093
vt 0.772964 0.282148
vt 0.775170 0.254866
vt 0.772846 0.227616
vt 0.410880 0.284682
vt 0.410303 0.257937
vt 0.490333 0.114622
vt 0.407391 0.122883
vt 0.406801 0.095524
vt 0.489150 0.451719
vt 0.414311 0.443805
vt 0.413739 0.417297
vt 0.412027 0.337874
vt 0.411454 0.311319
vt 0.485473 0.478614
vt 0.414882 0.470317
vt 0.407976 0.150042
vt 0.412598 0.364369
vt 0.409723 0.231048
vt 0.409142 0.204119
vt 0.408560 0.177135
vt 0.406207 0.067977
vt 0.413168 0.390832
vt 0.405608 0.040232
vt 0.817739 0.133806
vt 0.811175 0.102410
vt 0.848427 0.103119
vt 0.849135 0.140370
vt 0.809575 0.074333
vt 0.847898 0.074333
vt 0.811175 0.046256
vt 0.848427 0.045547
vt 0.817739 0.014859
vt 0.849135 0.008295
vt 0.877213 0.103647
vt 0.877213 0.141970
vt 0.877213 0.074333
vt 0.877213 0.045019
vt 0.877213 0.006695
vt 0.905998 0.103119
vt 0.905290 0.140370
vt 0.906527 0.074333
vt 0.905998 0.045547
vt 0.905290 0.008295
vt 0.943250 0.102410
vt 0.936686 0.133806
vt 0.944850 0.074333
vt 0.943250 0.046256
vt 0.936686 0.014859
vt 0.643405 0.504804
vt 0.644777 0.469941
vt 0.561957 0.494276
vt 0.566329 0.463119
vt 0.242895 0.971004
vt 0.224035 0.971004
vt 0.224035 0.926882
vt 0.242895 0.926882
vt 0.431486 0.971004
vt 0.412626 0.971004
vt 0.412626 0.926882
vt 0.431486 0.926882
vt 0.488063 0.971004
vt 0.469204 0.971004
vt 0.469204 0.926882
vt 0.488063 0.926882
vt 0.393767 0.971004
vt 0.374908 0.971004
vt 0.374908 0.926882
vt 0.393767 0.926882
vt 0.450345 0.971004
vt 0.450345 0.926882
vt 0.261753 0.971004
vt 0.261753 0.926882
vt 0.205176 0.971004
vt 0.186317 0.971004
vt 0.186317 0.926882
vt 0.205176 0.926882
vt 0.356049 0.971004
vt 0.337190 0.971004
vt 0.337190 0.926882
vt 0.356049 0.926882
vt 0.318331 0.971004
vt 0.318331 0.926882
vt 0.299472 0.971004
vt 0.299472 0.926882
vt 0.280613 0.971004
vt 0.280613 0.926882
vt 0.789171 0.340861
vt 0.796388 0.323438
vt 0.836575 0.350290
vt 0.809723 0.310103
vt 0.827146 0.302886
vt 0.846004 0.302886
vt 0.863428 0.310103
vt 0.876763 0.323438
vt 0.883980 0.340861
vt 0.883980 0.359720
vt 0.876763 0.377143
vt 0.863428 0.390478
vt 0.846004 0.397695
vt 0.827146 0.397695
vt 0.809723 0.390478
vt 0.796388 0.377143
vt 0.789171 0.359720
vt 0.244930 0.104912
vt 0.169581 0.107557
vt 0.170921 0.137861
vt 0.244944 0.135775
vt 0.305881 0.106547
vt 0.304600 0.136995
vt 0.172753 0.343109
vt 0.094673 0.340546
vt 0.094015 0.368505
vt 0.171946 0.372564
vt 0.245080 0.343992
vt 0.245190 0.374303
vt 0.303692 0.343178
vt 0.304763 0.373022
vt 0.172515 0.197259
vt 0.093638 0.200087
vt 0.094486 0.228345
vt 0.172933 0.226556
vt 0.244820 0.196123
vt 0.244828 0.225767
vt 0.302792 0.196383
vt 0.302603 0.225732
vt 0.331678 0.196913
vt 0.336875 0.165785
vt 0.303545 0.166838
vt 0.339364 0.138651
vt 0.339866 0.111102
vt 0.338616 0.078351
vt 0.307960 0.075377
vt 0.362364 0.197645
vt 0.373744 0.168158
vt 0.377659 0.140900
vt 0.377065 0.113325
vt 0.369551 0.082631
vt 0.091342 0.143202
vt 0.092757 0.171756
vt 0.171866 0.167729
vt 0.244864 0.166187
vt 0.094912 0.256465
vt 0.173135 0.255710
vt 0.244855 0.255239
vt 0.302599 0.254980
vt 0.164931 0.045488
vt 0.084535 0.057432
vt 0.087504 0.085992
vt 0.167658 0.076923
vt 0.244658 0.039518
vt 0.244871 0.072620
vt 0.348389 0.045757
vt 0.311095 0.042483
vt 0.356891 0.015787
vt 0.315452 0.006710
vt 0.314788 0.503761
vt 0.356564 0.494944
vt 0.348226 0.464731
vt 0.310722 0.467741
vt 0.338613 0.431916
vt 0.307807 0.434719
vt 0.385588 0.055604
vt 0.396263 0.030028
vt 0.396284 0.480882
vt 0.385716 0.455070
vt 0.369747 0.427764
vt 0.170657 0.402317
vt 0.092884 0.396414
vt 0.091127 0.424204
vt 0.168682 0.432470
vt 0.245067 0.405113
vt 0.244787 0.436842
vt 0.305989 0.403413
vt 0.161019 0.013333
vt 0.080281 0.028887
vt 0.340023 0.399020
vt 0.339572 0.371400
vt 0.337082 0.344205
vt 0.331837 0.313018
vt 0.302937 0.313583
vt 0.377396 0.396887
vt 0.378010 0.369169
vt 0.374073 0.341799
vt 0.362592 0.312218
vt 0.243873 0.004887
vt 0.173288 0.284803
vt 0.095046 0.284521
vt 0.094964 0.312556
vt 0.173228 0.313886
vt 0.244880 0.284650
vt 0.245068 0.314229
vt 0.302655 0.284238
vt 0.335566 0.281794
vt 0.336619 0.254936
vt 0.335487 0.228093
vt 0.372345 0.282148
vt 0.374552 0.254866
vt 0.372227 0.227616
vt 0.009684 0.257937
vt 0.010261 0.284682
vt 0.006182 0.095524
vt 0.006772 0.122883
vt 0.089715 0.114622
vt 0.013120 0.417297
vt 0.013692 0.443805
vt 0.088531 0.451719
vt 0.010835 0.311319
vt 0.011408 0.337874
vt 0.014264 0.470317
vt 0.084855 0.478614
vt 0.007357 0.150042
vt 0.011979 0.364369
vt 0.008524 0.204119
vt 0.009104 0.231048
vt 0.007942 0.177134
vt 0.005588 0.067977
vt 0.012550 0.390832
vt 0.004989 0.040232
vt 0.914244 0.281807
vt 0.882848 0.288371
vt 0.883556 0.251119
vt 0.920808 0.250410
vt 0.884085 0.222333
vt 0.922408 0.222333
vt 0.883556 0.193547
vt 0.920808 0.194256
vt 0.882848 0.156295
vt 0.914244 0.162859
vt 0.854770 0.289970
vt 0.854770 0.251647
vt 0.854771 0.222333
vt 0.854770 0.193019
vt 0.854770 0.154695
vt 0.826693 0.288371
vt 0.825985 0.251119
vt 0.825456 0.222333
vt 0.825985 0.193547
vt 0.826693 0.156295
vt 0.795297 0.281807
vt 0.788733 0.250410
vt 0.787133 0.222333
vt 0.788733 0.194256
vt 0.795297 0.162859
vt 0.244158 0.469941
vt 0.242787 0.504804
vt 0.165710 0.463118
vt 0.161338 0.494276
vt 0.556360 0.975004
vt 0.556360 0.930882
vt 0.537501 0.930882
vt 0.537501 0.975004
vt 0.744951 0.975004
vt 0.744951 0.930882
vt 0.726092 0.930882
vt 0.726092 0.975004
vt 0.801528 0.975003
vt 0.801528 0.930882
vt 0.782669 0.930882
vt 0.782669 0.975004
vt 0.707233 0.975004
vt 0.707233 0.930882
vt 0.688373 0.930882
vt 0.688373 0.975004
vt 0.763810 0.975003
vt 0.763810 0.930882
vt 0.575219 0.975004
vt 0.575219 0.930882
vt 0.518641 0.975004
vt 0.518641 0.930882
vt 0.499782 0.930882
vt 0.499782 0.975004
vt 0.669514 0.975004
vt 0.669514 0.930882
vt 0.650655 0.930882
vt 0.650655 0.975004
vt 0.631796 0.930882
vt 0.631796 0.975004
vt 0.612937 0.930882
vt 0.612937 0.975004
vt 0.594078 0.975004
vt 0.594078 0.930882
vt 0.826126 0.440861
vt 0.873529 0.450291
vt 0.833342 0.423438
vt 0.846678 0.410103
vt 0.864100 0.402886
vt 0.882959 0.402886
vt 0.900382 0.410103
vt 0.913717 0.423438
vt 0.920934 0.440861
vt 0.920934 0.459720
vt 0.913717 0.477143
vt 0.900382 0.490478
vt 0.882959 0.497695
vt 0.864101 0.497695
vt 0.846678 0.490478
vt 0.833342 0.477143
vt 0.826126 0.459720
s 1
f 58/1/1 18/2/1 13/3/1 60/4/1
f 23/5/2 43/6/2 44/7/3 29/8/3
f 42/9/1 46/10/1 8/11/1 1/12/1
f 4/13/4 3/14/5 35/15/5 36/16/4
f 29/8/3 44/7/3 73/17/6 78/18/6
f 52/19/7 53/20/7 56/21/8 55/22/8
f 27/23/9 42/9/9 50/24/10 33/25/10
f 53/20/1 7/26/1 6/27/1 56/21/1
f 5/28/11 38/29/11 47/30/12 12/31/12
f 59/32/1 62/33/1 10/34/1 15/35/1
f 1/36/12 8/37/13 37/38/13 28/39/12
f 54/40/1 59/32/1 15/35/1 3/41/1
f 8/37/13 4/13/4 36/16/4 37/38/13
f 69/42/14 70/43/14 31/44/14 32/45/14
f 19/46/11 26/47/12 47/30/12 38/29/11
f 61/48/14 66/49/14 25/50/14 14/51/14
f 24/52/15 20/53/16 39/54/16 40/55/15
f 25/56/17 24/52/15 40/55/15 41/57/17
f 32/58/18 19/46/11 38/29/11 49/59/18
f 63/60/19 64/61/20 51/62/20 46/10/19
f 6/63/16 39/54/16 49/59/18 18/64/18
f 64/61/20 71/65/21 54/40/21 51/62/20
f 32/45/14 31/44/14 26/66/14 19/67/14
f 22/68/13 37/38/13 36/16/4 21/69/4
f 27/70/22 33/71/23 66/49/23 61/48/22
f 31/72/24 70/73/25 65/74/25 48/75/24
f 66/49/14 67/76/14 24/77/14 25/50/14
f 30/78/14 16/79/14 23/80/14 29/81/14
f 26/82/26 31/72/24 48/75/24 47/83/26
f 55/22/8 56/21/8 58/1/27 57/84/28
f 30/85/29 45/86/29 34/87/30 16/88/30
f 42/9/1 1/12/1 11/89/1 50/24/1
f 12/90/26 47/83/26 48/75/24 13/91/24
f 57/84/28 58/1/27 60/4/31 65/92/31
f 50/24/1 11/89/1 7/26/1 53/20/1
f 7/93/15 40/55/15 39/54/16 6/63/16
f 1/36/12 28/39/12 41/57/17 11/94/17
f 27/70/22 61/48/22 74/95/32 63/96/32
f 77/97/14 30/78/14 29/81/14 78/98/14
f 51/62/1 54/40/1 3/41/1 4/99/1
f 21/69/4 36/16/4 35/15/5 17/100/5
f 9/101/2 10/102/3 44/7/3 43/6/2
f 71/65/21 72/103/33 59/32/34 54/40/21
f 16/88/30 34/87/30 43/104/12 23/105/12
f 74/95/14 22/106/14 21/107/14 75/108/14
f 72/103/33 73/109/35 62/33/35 59/32/34
f 33/25/10 50/24/10 53/20/7 52/19/7
f 56/21/1 6/27/1 18/2/1 58/1/1
f 20/53/16 32/58/18 49/59/18 39/54/16
f 46/10/1 51/62/1 4/99/1 8/11/1
f 11/94/17 41/57/17 40/55/15 7/93/15
f 57/110/36 65/111/37 70/43/37 69/42/38
f 75/108/14 21/107/14 17/112/14 76/113/14
f 52/114/39 55/115/40 68/116/40 67/76/39
f 18/2/1 5/117/1 12/118/1 13/3/1
f 18/64/18 49/59/18 38/29/11 5/28/11
f 3/14/5 15/119/29 45/86/29 35/15/5
f 27/23/9 63/60/19 46/10/19 42/9/9
f 61/48/14 14/51/14 22/106/14 74/95/14
f 14/120/12 28/39/12 37/38/13 22/68/13
f 15/119/29 2/121/30 34/87/30 45/86/29
f 64/122/41 75/108/41 76/113/42 71/123/42
f 2/121/30 9/124/12 43/104/12 34/87/30
f 72/125/43 77/97/44 78/98/45 73/126/45
f 15/35/1 10/34/1 9/127/1 2/128/1
f 71/123/42 76/113/42 77/97/44 72/125/43
f 63/96/32 74/95/32 75/108/41 64/122/41
f 55/115/40 57/110/36 69/42/38 68/116/40
f 14/120/12 25/56/17 41/57/17 28/39/12
f 33/71/23 52/114/39 67/76/39 66/49/23
f 13/91/24 48/75/24 65/74/25 60/129/25
f 68/116/14 69/42/14 32/45/14 20/130/14
f 67/76/14 68/116/14 20/130/14 24/77/14
f 76/113/14 17/112/14 30/78/14 77/97/14
f 17/100/5 35/15/5 45/86/29 30/85/29
f 10/102/3 62/131/6 73/17/6 44/7/3
f 114/132/46 100/133/47 101/134/48 115/135/49
f 90/136/50 89/137/51 100/133/47 114/132/46
f 112/138/52 198/139/53 197/140/54 113/141/55
f 111/142/56 199/143/57 198/139/53 112/138/52
f 122/144/58 121/145/59 199/143/57 111/142/56
f 81/146/60 95/147/61 96/148/62 80/149/63
f 82/150/64 86/151/65 95/147/61 81/146/60
f 87/152/66 138/153/67 86/151/65 82/150/64
f 87/152/66 88/154/68 92/155/69 91/156/70
f 88/154/68 89/137/51 93/157/71 92/155/69
f 89/137/51 90/136/50 94/158/72 93/157/71
f 90/136/50 103/159/73 107/160/74 94/158/72
f 91/156/70 92/155/69 153/161/75 152/162/76
f 92/155/69 93/157/71 154/163/77 153/161/75
f 93/157/71 94/158/72 155/164/78 154/163/77
f 94/158/72 107/160/74 156/165/79 155/164/78
f 101/134/48 177/166/80 79/167/81 102/168/82
f 100/133/47 178/169/83 177/166/80 101/134/48
f 89/137/51 88/154/68 178/169/83 100/133/47
f 95/147/61 98/170/84 97/171/85 96/148/62
f 86/151/65 99/172/86 98/170/84 95/147/61
f 138/153/67 137/173/87 99/172/86 86/151/65
f 183/174/88 84/175/89 83/176/90 184/177/91
f 182/178/92 85/179/93 84/175/89 183/174/88
f 103/159/73 104/180/94 108/181/95 107/160/74
f 104/180/94 105/182/96 109/183/97 108/181/95
f 105/184/96 106/185/98 110/186/99 109/187/97
f 106/185/98 119/188/100 123/189/101 110/186/99
f 107/160/74 108/181/95 161/190/102 156/165/79
f 108/181/95 109/183/97 166/191/103 161/190/102
f 109/187/97 110/186/99 171/192/104 166/193/103
f 110/186/99 123/189/101 176/194/105 171/192/104
f 104/180/94 103/159/73 85/179/93 182/178/92
f 177/166/80 81/146/60 80/149/63 79/167/81
f 178/169/83 82/150/64 81/146/60 177/166/80
f 88/154/68 87/152/66 82/150/64 178/169/83
f 195/195/106 180/196/107 181/197/108 196/198/109
f 194/199/110 179/200/111 180/196/107 195/195/106
f 120/201/112 119/188/100 179/200/111 194/199/110
f 186/202/113 183/174/88 184/177/91 185/203/114
f 119/188/100 120/201/112 124/204/115 123/189/101
f 120/201/112 121/145/59 125/205/116 124/204/115
f 121/145/59 122/144/58 126/206/117 125/205/116
f 122/144/58 135/207/118 139/208/119 126/206/117
f 123/189/101 124/204/115 175/209/120 176/194/105
f 124/204/115 125/205/116 174/210/121 175/209/120
f 125/205/116 126/206/117 173/211/122 174/210/121
f 126/206/117 139/208/119 172/212/123 173/211/122
f 187/213/124 182/178/92 183/174/88 186/202/113
f 105/182/96 104/180/94 182/178/92 187/213/124
f 192/214/125 189/215/126 190/216/127 191/217/128
f 193/218/129 188/219/130 189/215/126 192/214/125
f 136/220/131 135/207/118 188/219/130 193/218/129
f 198/139/53 195/195/106 196/198/109 197/140/54
f 199/143/57 194/199/110 195/195/106 198/139/53
f 121/145/59 120/201/112 194/199/110 199/143/57
f 135/207/118 136/220/131 140/221/132 139/208/119
f 136/220/131 137/173/87 141/222/133 140/221/132
f 137/173/87 138/153/67 142/223/134 141/222/133
f 138/153/67 87/152/66 91/156/70 142/223/134
f 139/208/119 140/221/132 167/224/135 172/212/123
f 140/221/132 141/222/133 162/225/136 167/224/135
f 141/222/133 142/223/134 157/226/137 162/225/136
f 142/223/134 91/156/70 152/162/76 157/226/137
f 97/171/85 191/217/128 130/227/138 129/228/139
f 83/176/90 116/229/140 148/230/141 147/231/142
f 181/197/108 127/232/143 144/233/144 143/234/145
f 190/216/127 113/141/55 132/235/146 131/236/147
f 127/232/143 185/237/114 145/238/148 144/233/144
f 116/229/140 102/168/82 149/239/149 148/230/141
f 113/141/55 197/140/54 133/240/150 132/235/146
f 80/149/63 96/148/62 128/241/151 151/242/152
f 102/168/82 79/167/81 150/243/153 149/239/149
f 96/148/62 97/171/85 129/228/139 128/241/151
f 184/177/91 83/176/90 147/231/142 146/244/154
f 79/167/81 80/149/63 151/242/152 150/243/153
f 196/198/109 181/197/108 143/234/145 134/245/155
f 185/203/114 184/177/91 146/244/154 145/246/148
f 191/217/128 190/216/127 131/236/147 130/227/138
f 197/140/54 196/198/109 134/245/155 133/240/150
f 152/247/76 153/248/75 158/249/156 157/250/137
f 153/248/75 154/251/77 159/252/157 158/249/156
f 154/251/77 155/253/78 160/254/158 159/252/157
f 155/253/78 156/255/79 161/256/102 160/254/158
f 157/250/137 158/249/156 163/257/159 162/258/136
f 158/249/156 159/252/157 164/259/12 163/257/159
f 159/252/157 160/254/158 165/260/160 164/259/12
f 160/254/158 161/256/102 166/261/103 165/260/160
f 162/258/136 163/257/159 168/262/161 167/263/135
f 163/257/159 164/259/12 169/264/162 168/262/161
f 164/259/12 165/260/160 170/265/163 169/264/162
f 165/260/160 166/261/103 171/266/104 170/265/163
f 167/263/135 168/262/161 173/267/122 172/268/123
f 168/262/161 169/264/162 174/269/121 173/267/122
f 169/264/162 170/265/163 175/270/120 174/269/121
f 170/265/163 171/266/104 176/271/105 175/270/120
f 115/135/49 101/134/48 102/168/82 116/229/140
f 106/185/98 105/184/96 187/272/124 117/273/164
f 117/273/164 187/272/124 186/274/113 118/275/165
f 118/275/165 186/274/113 185/237/114 127/232/143
f 135/207/118 122/144/58 111/142/56 188/219/130
f 188/219/130 111/142/56 112/138/52 189/215/126
f 189/215/126 112/138/52 113/141/55 190/216/127
f 119/188/100 106/185/98 117/273/164 179/200/111
f 179/200/111 117/273/164 118/275/165 180/196/107
f 180/196/107 118/275/165 127/232/143 181/197/108
f 103/159/73 90/136/50 114/132/46 85/179/93
f 85/179/93 114/132/46 115/135/49 84/175/89
f 84/175/89 115/135/49 116/229/140 83/176/90
f 137/173/87 136/220/131 193/218/129 99/172/86
f 99/172/86 193/218/129 192/214/125 98/170/84
f 98/170/84 192/214/125 191/217/128 97/171/85
f 134/276/166 143/277/167 207/278/167 206/279/166
f 148/280/168 149/281/14 213/282/14 212/283/168
f 145/284/26 146/285/169 210/286/169 209/287/26
f 150/288/170 151/289/171 215/290/171 214/291/170
f 147/292/172 148/280/168 212/283/168 211/293/172
f 133/294/1 134/276/166 206/279/166 205/295/1
f 149/281/14 150/288/170 214/291/170 213/282/14
f 146/285/169 147/292/172 211/293/172 210/286/169
f 144/296/173 145/297/26 209/298/26 208/299/173
f 128/300/174 129/301/2 201/302/2 200/303/174
f 151/289/171 128/300/174 200/303/174 215/290/171
f 129/301/2 130/304/175 202/305/175 201/302/2
f 130/304/175 131/306/176 203/307/176 202/305/175
f 132/308/177 133/294/1 205/295/1 204/309/177
f 143/277/167 144/296/173 208/299/173 207/278/167
f 131/306/176 132/308/177 204/309/177 203/307/176
f 200/310/178 201/311/178 216/312/178
f 201/311/178 202/313/178 216/312/178
f 202/313/178 203/314/178 216/312/178
f 203/314/178 204/315/178 216/312/178
f 204/315/178 205/316/178 216/312/178
f 205/316/178 206/317/178 216/312/178
f 206/317/178 207/318/178 216/312/178
f 207/318/178 208/319/178 216/312/178
f 208/319/178 209/320/178 216/312/178
f 209/320/178 210/321/178 216/312/178
f 210/321/178 211/322/178 216/312/178
f 211/322/178 212/323/178 216/312/178
f 212/323/178 213/324/178 216/312/178
f 213/324/178 214/325/178 216/312/178
f 214/325/178 215/326/178 216/312/178
f 215/326/178 200/310/178 216/312/178
f 252/327/83 253/328/80 239/329/48 238/330/47
f 228/331/68 252/327/83 238/330/47 227/332/51
f 250/333/106 251/334/109 335/335/54 336/336/53
f 249/337/110 250/333/106 336/336/53 337/338/57
f 260/339/112 249/337/110 337/338/57 259/340/59
f 219/341/89 218/342/90 234/343/91 233/344/88
f 220/345/93 219/341/89 233/344/88 224/346/92
f 225/347/73 220/345/93 224/346/92 276/348/94
f 225/347/73 229/349/74 230/350/72 226/351/50
f 226/351/50 230/350/72 231/352/71 227/332/51
f 227/332/51 231/352/71 232/353/69 228/331/68
f 228/331/68 232/353/69 245/354/70 241/355/66
f 229/349/74 290/356/79 291/357/78 230/350/72
f 230/350/72 291/357/78 292/358/77 231/352/71
f 231/352/71 292/358/77 293/359/75 232/353/69
f 232/353/69 293/359/75 294/360/76 245/354/70
f 239/329/48 240/361/82 217/362/140 315/363/49
f 238/330/47 239/329/48 315/363/49 316/364/46
f 227/332/51 238/330/47 316/364/46 226/351/50
f 233/344/88 234/343/91 235/365/114 236/366/113
f 224/346/92 233/344/88 236/366/113 237/367/124
f 276/348/94 224/346/92 237/367/124 275/368/96
f 321/369/61 322/370/62 221/371/63 222/372/60
f 320/373/65 321/369/61 222/372/60 223/374/64
f 241/355/66 245/354/70 246/375/134 242/376/67
f 242/376/67 246/375/134 247/377/133 243/378/87
f 243/379/87 247/380/133 248/381/132 244/382/131
f 244/382/131 248/381/132 261/383/119 257/384/118
f 245/354/70 294/360/76 299/385/137 246/375/134
f 246/375/134 299/385/137 304/386/136 247/377/133
f 247/380/133 304/387/136 309/388/135 248/381/132
f 248/381/132 309/388/135 314/389/123 261/383/119
f 242/376/67 320/373/65 223/374/64 241/355/66
f 315/363/49 217/362/140 218/342/90 219/341/89
f 316/364/46 315/363/49 219/341/89 220/345/93
f 226/351/50 316/364/46 220/345/93 225/347/73
f 333/390/52 334/391/55 319/392/127 318/393/126
f 332/394/56 333/390/52 318/393/126 317/395/130
f 258/396/58 332/394/56 317/395/130 257/384/118
f 324/397/84 323/398/85 322/370/62 321/369/61
f 257/384/118 261/383/119 262/399/117 258/396/58
f 258/396/58 262/399/117 263/400/116 259/340/59
f 259/340/59 263/400/116 264/401/115 260/339/112
f 260/339/112 264/401/115 277/402/101 273/403/100
f 261/383/119 314/389/123 313/404/122 262/399/117
f 262/399/117 313/404/122 312/405/121 263/400/116
f 263/400/116 312/405/121 311/406/120 264/401/115
f 264/401/115 311/406/120 310/407/105 277/402/101
f 325/408/86 324/397/84 321/369/61 320/373/65
f 243/378/87 325/408/86 320/373/65 242/376/67
f 330/409/165 329/410/143 328/411/108 327/412/107
f 331/413/164 330/409/165 327/412/107 326/414/111
f 274/415/98 331/413/164 326/414/111 273/403/100
f 336/336/53 335/335/54 334/391/55 333/390/52
f 337/338/57 336/336/53 333/390/52 332/394/56
f 259/340/59 337/338/57 332/394/56 258/396/58
f 273/403/100 277/402/101 278/416/99 274/415/98
f 274/415/98 278/416/99 279/417/97 275/368/96
f 275/368/96 279/417/97 280/418/95 276/348/94
f 276/348/94 280/418/95 229/349/74 225/347/73
f 277/402/101 310/407/105 305/419/104 278/416/99
f 278/416/99 305/419/104 300/420/103 279/417/97
f 279/417/97 300/420/103 295/421/102 280/418/95
f 280/418/95 295/421/102 290/356/79 229/349/74
f 235/365/114 267/422/148 268/423/144 329/410/143
f 221/371/63 285/424/152 286/425/153 254/426/81
f 319/392/127 281/427/147 282/428/138 265/429/128
f 328/411/108 269/430/145 270/431/155 251/334/109
f 265/429/128 282/428/138 283/432/139 323/433/85
f 254/426/81 286/425/153 287/434/149 240/361/82
f 251/334/109 270/431/155 271/435/150 335/335/54
f 218/342/90 289/436/142 266/437/154 234/343/91
f 240/361/82 287/434/149 288/438/141 217/362/140
f 234/343/91 266/437/154 267/422/148 235/365/114
f 322/370/62 284/439/151 285/424/152 221/371/63
f 217/362/140 288/438/141 289/436/142 218/342/90
f 334/391/55 272/440/146 281/427/147 319/392/127
f 323/398/85 283/441/139 284/439/151 322/370/62
f 329/410/143 268/423/144 269/430/145 328/411/108
f 335/335/54 271/435/150 272/440/146 334/391/55
f 290/442/79 295/443/102 296/444/158 291/445/78
f 291/445/78 296/444/158 297/446/157 292/447/77
f 292/447/77 297/446/157 298/448/156 293/449/75
f 293/449/75 298/448/156 299/450/137 294/451/76
f 295/443/102 300/452/103 301/453/160 296/444/158
f 296/444/158 301/453/160 302/454/12 297/446/157
f 297/446/157 302/454/12 303/455/159 298/448/156
f 298/448/156 303/455/159 304/456/136 299/450/137
f 300/452/103 305/457/104 306/458/163 301/453/160
f 301/453/160 306/458/163 307/459/162 302/454/12
f 302/454/12 307/459/162 308/460/161 303/455/159
f 303/455/159 308/460/161 309/461/135 304/456/136
f 305/457/104 310/462/105 311/463/120 306/458/163
f 306/458/163 311/463/120 312/464/121 307/459/162
f 307/459/162 312/464/121 313/465/122 308/460/161
f 308/460/161 313/465/122 314/466/123 309/461/135
f 253/328/80 254/426/81 240/361/82 239/329/48
f 244/382/131 255/467/129 325/468/86 243/379/87
f 255/467/129 256/469/125 324/470/84 325/468/86
f 256/469/125 265/429/128 323/433/85 324/470/84
f 273/403/100 326/414/111 249/337/110 260/339/112
f 326/414/111 327/412/107 250/333/106 249/337/110
f 327/412/107 328/411/108 251/334/109 250/333/106
f 257/384/118 317/395/130 255/467/129 244/382/131
f 317/395/130 318/393/126 256/469/125 255/467/129
f 318/393/126 319/392/127 265/429/128 256/469/125
f 241/355/66 223/374/64 252/327/83 228/331/68
f 223/374/64 222/372/60 253/328/80 252/327/83
f 222/372/60 221/371/63 254/426/81 253/328/80
f 275/368/96 237/367/124 331/413/164 274/415/98
f 237/367/124 236/366/113 330/409/165 331/413/164
f 236/366/113 235/365/114 329/410/143 330/409/165
f 272/471/177 344/472/177 345/473/176 281/474/176
f 286/475/170 350/476/170 351/477/14 287/478/14
f 283/479/2 347/480/2 348/481/174 284/482/174
f 288/483/168 352/484/168 353/485/172 289/486/172
f 285/487/171 349/488/171 350/476/170 286/475/170
f 271/489/1 343/490/1 344/472/177 272/471/177
f 287/478/14 351/477/14 352/484/168 288/483/168
f 284/482/174 348/481/174 349/488/171 285/487/171
f 282/491/175 346/492/175 347/493/2 283/494/2
f 266/495/169 338/496/169 339/497/26 267/498/26
f 289/486/172 353/485/172 338/496/169 266/495/169
f 267/498/26 339/497/26 340/499/173 268/500/173
f 268/500/173 340/499/173 341/501/167 269/502/167
f 270/503/166 342/504/166 343/490/1 271/489/1
f 281/474/176 345/473/176 346/492/175 282/491/175
f 269/502/167 341/501/167 342/504/166 270/503/166
f 338/505/178 354/506/178 339/507/178
f 339/507/178 354/506/178 340/508/178
f 340/508/178 354/506/178 341/509/178
f 341/509/178 354/506/178 342/510/178
f 342/510/178 354/506/178 343/511/178
f 343/511/178 354/506/178 344/512/178
f 344/512/178 354/506/178 345/513/178
f 345/513/178 354/506/178 346/514/178
f 346/514/178 354/506/178 347/515/178
f 347/515/178 354/506/178 348/516/178
f 348/516/178 354/506/178 349/517/178
f 349/517/178 354/506/178 350/518/178
f 350/518/178 354/506/178 351/519/178
f 351/519/178 354/506/178 352/520/178
f 352/520/178 354/506/178 353/521/178
f 353/521/178 354/506/178 338/505/178
