# Blender 4.0.2
# www.blender.org
o hex_dumbbell
v 0.157500 -0.000000 -0.054448
v 0.133850 -0.000000 -0.070151
v 0.062500 -0.000000 -0.054448
v 0.086150 -0.000000 -0.070151
v 0.157500 0.047154 -0.027224
v 0.124431 0.058815 -0.024830
v 0.062500 0.047154 -0.027224
v 0.095569 0.058815 -0.024830
v 0.157500 0.047154 0.027224
v 0.124431 0.058815 0.024830
v 0.062500 0.047154 0.027224
v 0.095569 0.058815 0.024830
v 0.157500 -0.000000 0.054448
v 0.133850 -0.000000 0.070151
v 0.062500 -0.000000 0.054448
v 0.086150 -0.000000 0.070151
v 0.157500 -0.047154 -0.027224
v 0.124431 -0.058815 -0.024830
v 0.062500 -0.047154 -0.027224
v 0.095569 -0.058815 -0.024830
v 0.133850 0.060753 -0.035075
v 0.133850 0.060753 0.035075
v 0.086150 0.060753 0.035075
v 0.086150 0.060753 -0.035075
v 0.126694 0.060753 -0.027305
v 0.126694 0.060753 0.027305
v 0.093306 0.060753 0.027305
v 0.093306 0.060753 -0.027305
v 0.157500 -0.047154 0.027224
v 0.124431 -0.058815 0.024830
v 0.062500 -0.047154 0.027224
v 0.095569 -0.058815 0.024830
v 0.133850 -0.060753 -0.035075
v 0.133850 -0.060753 0.035075
v 0.086150 -0.060753 0.035075
v 0.086150 -0.060753 -0.035075
v 0.126694 -0.060753 -0.027305
v 0.126694 -0.060753 0.027305
v 0.093306 -0.060753 0.027305
v 0.093306 -0.060753 -0.027305
v -0.062500 -0.000000 -0.054448
v -0.086150 -0.000000 -0.070151
v -0.157500 -0.000000 -0.054448
v -0.133850 -0.000000 -0.070151
v -0.062500 0.047154 -0.027224
v -0.095569 0.058815 -0.024830
v -0.157500 0.047154 -0.027224
v -0.124431 0.058815 -0.024830
v -0.062500 0.047154 0.027224
v -0.095569 0.058815 0.024830
v -0.157500 0.047154 0.027224
v -0.124431 0.058815 0.024830
v -0.062500 -0.000000 0.054448
v -0.086150 -0.000000 0.070151
v -0.157500 -0.000000 0.054448
v -0.133850 -0.000000 0.070151
v -0.062500 -0.047154 -0.027224
v -0.095569 -0.058815 -0.024830
v -0.157500 -0.047154 -0.027224
v -0.124431 -0.058815 -0.024830
v -0.086150 0.060753 -0.035075
v -0.086150 0.060753 0.035075
v -0.133850 0.060753 0.035075
v -0.133850 0.060753 -0.035075
v -0.093306 0.060753 -0.027305
v -0.093306 0.060753 0.027305
v -0.126694 0.060753 0.027305
v -0.126694 0.060753 -0.027305
v -0.062500 -0.047154 0.027224
v -0.095569 -0.058815 0.024830
v -0.157500 -0.047154 0.027224
v -0.124431 -0.058815 0.024830
v -0.086150 -0.060753 -0.035075
v -0.086150 -0.060753 0.035075
v -0.133850 -0.060753 0.035075
v -0.133850 -0.060753 -0.035075
v -0.093306 -0.060753 -0.027305
v -0.093306 -0.060753 0.027305
v -0.126694 -0.060753 0.027305
v -0.126694 -0.060753 -0.027305
v -0.062500 -0.000000 -0.015000
v -0.062500 -0.005740 0.013858
v -0.062500 -0.010607 0.010607
v -0.062500 -0.013858 0.005740
v -0.062500 -0.015000 -0.000000
v -0.062500 -0.013858 -0.005740
v -0.062500 -0.000000 0.015000
v -0.062500 0.005740 0.013858
v -0.062500 0.010607 0.010607
v -0.062500 0.013858 0.005740
v -0.062500 0.015000 -0.000000
v -0.062500 0.013858 -0.005740
v -0.062500 0.010607 -0.010607
v -0.062500 0.005740 -0.013858
v 0.000000 0.000000 -0.015000
v -0.062500 -0.010607 -0.010607
v -0.062500 -0.005740 -0.013858
v 0.000000 -0.005740 0.013858
v 0.000000 -0.010607 0.010607
v 0.000000 -0.013858 0.005740
v 0.000000 0.000000 0.015000
v 0.000000 0.005740 0.013858
v 0.000000 0.010607 0.010607
v 0.000000 0.013858 0.005740
v 0.000000 0.015000 -0.000000
v 0.000000 0.013858 -0.005740
v 0.000000 0.010607 -0.010607
v 0.000000 0.005740 -0.013858
v 0.000000 -0.015000 -0.000000
v 0.000000 -0.013858 -0.005740
v 0.000000 -0.010607 -0.010607
v 0.000000 -0.005740 -0.013858
v -0.054436 -0.005740 0.013858
v -0.054436 -0.010607 0.010607
v -0.054436 -0.000000 0.015000
v -0.054436 0.005740 0.013858
v -0.054436 0.010607 0.010607
v -0.054436 0.013858 0.005740
v -0.054436 0.015000 -0.000000
v -0.054436 0.013858 -0.005740
v -0.054436 0.010607 -0.010607
v -0.054436 0.005740 -0.013858
v -0.054436 -0.000000 -0.015000
v -0.046900 -0.000000 -0.010828
v -0.054436 -0.013858 0.005740
v -0.054436 -0.015000 -0.000000
v -0.054436 -0.013858 -0.005740
v -0.054436 -0.010607 -0.010607
v -0.054436 -0.005740 -0.013858
v -0.046900 -0.000000 0.010828
v -0.046900 0.004144 0.010004
v -0.046900 0.007657 0.007657
v -0.046900 0.010004 0.004144
v -0.046900 0.010828 -0.000000
v -0.046900 0.010004 -0.004144
v -0.046900 0.007657 -0.007657
v -0.046900 0.004144 -0.010004
v -0.023812 -0.000000 -0.013907
v -0.046900 -0.004144 0.010004
v -0.046900 -0.007657 0.007657
v -0.046900 -0.010004 0.004144
v -0.046900 -0.010828 -0.000000
v -0.046900 -0.010004 -0.004144
v -0.046900 -0.007657 -0.007657
v -0.023812 -0.000000 0.013907
v -0.023812 0.005322 0.012848
v -0.023812 0.009833 0.009833
v -0.023812 0.012848 0.005322
v -0.023812 0.013907 -0.000000
v -0.023812 0.012848 -0.005322
v -0.023812 0.009833 -0.009833
v -0.023812 0.005322 -0.012848
v -0.046900 -0.004144 -0.010004
v -0.023812 -0.005322 0.012848
v -0.023812 -0.009833 0.009833
v -0.023812 -0.012848 0.005322
v -0.023812 -0.013907 -0.000000
v -0.023812 -0.012848 -0.005322
v -0.023812 -0.009833 -0.009833
v -0.023812 -0.005322 -0.012848
v 0.062500 -0.000000 -0.015000
v 0.062500 -0.005740 0.013858
v 0.062500 -0.010607 0.010607
v 0.062500 -0.013858 0.005740
v 0.062500 -0.015000 -0.000000
v 0.062500 -0.013858 -0.005740
v 0.062500 -0.000000 0.015000
v 0.062500 0.005740 0.013858
v 0.062500 0.010607 0.010607
v 0.062500 0.013858 0.005740
v 0.062500 0.015000 -0.000000
v 0.062500 0.013858 -0.005740
v 0.062500 0.010607 -0.010607
v 0.062500 0.005740 -0.013858
v 0.062500 -0.010607 -0.010607
v 0.062500 -0.005740 -0.013858
v 0.054436 -0.005740 0.013858
v 0.054436 -0.010607 0.010607
v 0.054436 -0.000000 0.015000
v 0.054436 0.005740 0.013858
v 0.054436 0.010607 0.010607
v 0.054436 0.013858 0.005740
v 0.054436 0.015000 -0.000000
v 0.054436 0.013858 -0.005740
v 0.054436 0.010607 -0.010607
v 0.054436 0.005740 -0.013858
v 0.054436 -0.000000 -0.015000
v 0.046900 -0.000000 -0.010828
v 0.054436 -0.013858 0.005740
v 0.054436 -0.015000 -0.000000
v 0.054436 -0.013858 -0.005740
v 0.054436 -0.010607 -0.010607
v 0.054436 -0.005740 -0.013858
v 0.046900 -0.000000 0.010828
v 0.046900 0.004144 0.010004
v 0.046900 0.007657 0.007657
v 0.046900 0.010004 0.004144
v 0.046900 0.010828 -0.000000
v 0.046900 0.010004 -0.004144
v 0.046900 0.007657 -0.007657
v 0.046900 0.004144 -0.010004
v 0.023812 -0.000000 -0.013907
v 0.046900 -0.004144 0.010004
v 0.046900 -0.007657 0.007657
v 0.046900 -0.010004 0.004144
v 0.046900 -0.010828 -0.000000
v 0.046900 -0.010004 -0.004144
v 0.046900 -0.007657 -0.007657
v 0.023812 -0.000000 0.013907
v 0.023812 0.005322 0.012848
v 0.023812 0.009833 0.009833
v 0.023812 0.012848 0.005322
v 0.023812 0.013907 -0.000000
v 0.023812 0.012848 -0.005322
v 0.023812 0.009833 -0.009833
v 0.023812 0.005322 -0.012848
v 0.046900 -0.004144 -0.010004
v 0.023812 -0.005322 0.012848
v 0.023812 -0.009833 0.009833
v 0.023812 -0.012848 0.005322
v 0.023812 -0.013907 -0.000000
v 0.023812 -0.012848 -0.005322
v 0.023812 -0.009833 -0.009833
v 0.023812 -0.005322 -0.012848
vn 0.4985 -0.4334 0.7508
vn -0.0000 0.5000 0.8660
vn -0.0000 -1.0000 -0.0000
vn -0.4985 -0.4334 0.7508
vn -0.0000 1.0000 -0.0000
vn -0.4985 -0.8669 -0.0000
vn -0.0000 0.5000 -0.8660
vn 0.4985 0.4334 -0.7508
vn -0.4985 0.4334 -0.7508
vn 0.4985 0.8669 -0.0000
vn -0.4985 0.8669 -0.0000
vn 0.4985 0.4334 0.7508
vn -0.4985 0.4334 0.7508
vn -0.0000 -0.5000 0.8660
vn -0.0000 -0.5000 -0.8660
vn 0.4985 -0.8669 -0.0000
vn 1.0000 -0.0000 -0.0000
vn -0.4985 -0.4334 -0.7508
vn -0.6505 0.7595 -0.0000
vn 0.6505 0.7595 -0.0000
vn -0.0000 0.7874 0.6164
vn -0.0000 0.7874 -0.6164
vn -1.0000 -0.0000 -0.0000
vn 0.4985 -0.4334 -0.7508
vn -0.6505 -0.7595 -0.0000
vn 0.6505 -0.7595 -0.0000
vn -0.0000 -0.7874 0.6164
vn -0.0000 -0.7874 -0.6164
vn -0.0886 0.7043 -0.7043
vn -0.0000 0.7071 -0.7071
vn -0.0000 0.3827 -0.9239
vn -0.0886 0.3812 -0.9202
vn -0.0000 -0.0000 -1.0000
vn -0.0886 -0.0000 -0.9961
vn -0.0886 0.9202 -0.3812
vn -0.0000 0.9239 -0.3827
vn -0.0886 0.9961 -0.0000
vn -0.0886 0.9202 0.3812
vn -0.0000 0.9239 0.3827
vn -0.0886 0.7043 0.7043
vn -0.0000 0.7071 0.7071
vn -0.0886 0.3812 0.9202
vn -0.0000 0.3827 0.9239
vn -0.0886 -0.0000 0.9961
vn -0.0000 -0.0000 1.0000
vn -0.1322 -0.9912 -0.0000
vn -0.1322 -0.9158 -0.3793
vn -0.0886 -0.9202 -0.3812
vn -0.0886 -0.9961 -0.0000
vn -0.1322 -0.7009 -0.7009
vn -0.0886 -0.7043 -0.7043
vn -0.1322 -0.7009 0.7009
vn -0.1322 -0.9158 0.3793
vn -0.0886 -0.9202 0.3812
vn -0.0886 -0.7043 0.7043
vn -0.1322 -0.0000 0.9912
vn -0.1322 -0.3793 0.9158
vn -0.0886 -0.3812 0.9202
vn 0.4844 -0.3348 -0.8083
vn 0.4844 -0.0000 -0.8749
vn 0.4844 -0.8749 -0.0000
vn 0.4844 -0.8083 -0.3348
vn 0.4844 -0.6186 0.6186
vn 0.4844 -0.8083 0.3348
vn 0.4844 -0.0000 0.8749
vn 0.4844 -0.3348 0.8083
vn -0.0886 -0.3812 -0.9202
vn -0.0000 -0.3827 -0.9239
vn -0.0000 -0.7071 -0.7071
vn -0.0000 -0.9239 -0.3827
vn -0.0000 -0.9239 0.3827
vn -0.0000 -0.7071 0.7071
vn -0.0000 -0.3827 0.9239
vn 0.4844 0.3348 0.8083
vn 0.4844 0.6186 0.6186
vn 0.4844 0.8083 0.3348
vn 0.4844 0.8749 -0.0000
vn 0.4844 0.8083 -0.3348
vn 0.4844 0.6186 -0.6186
vn 0.4844 0.3348 -0.8083
vn 0.4844 -0.6186 -0.6186
vn -0.1322 -0.3793 -0.9158
vn -0.1322 -0.0000 -0.9912
vn -0.1322 0.3793 0.9158
vn -0.1322 0.7009 0.7009
vn -0.1322 0.9158 0.3793
vn -0.1322 0.9912 -0.0000
vn -0.1322 0.9158 -0.3793
vn -0.1322 0.7009 -0.7009
vn -0.1322 0.3793 -0.9158
vn 0.0886 0.7043 -0.7043
vn 0.0886 0.3812 -0.9202
vn 0.0886 -0.0000 -0.9961
vn 0.0886 0.9202 -0.3812
vn 0.0886 0.9961 -0.0000
vn 0.0886 0.9202 0.3812
vn 0.0886 0.7043 0.7043
vn 0.0886 0.3812 0.9202
vn 0.0886 -0.0000 0.9961
vn 0.1322 -0.9912 -0.0000
vn 0.0886 -0.9961 -0.0000
vn 0.0886 -0.9202 -0.3812
vn 0.1322 -0.9158 -0.3793
vn 0.0886 -0.7043 -0.7043
vn 0.1322 -0.7009 -0.7009
vn 0.1322 -0.7009 0.7009
vn 0.0886 -0.7043 0.7043
vn 0.0886 -0.9202 0.3812
vn 0.1322 -0.9158 0.3793
vn 0.1322 -0.0000 0.9912
vn 0.0886 -0.3812 0.9202
vn 0.1322 -0.3793 0.9158
vn -0.4844 -0.3348 -0.8083
vn -0.4844 -0.0000 -0.8749
vn -0.4844 -0.8749 -0.0000
vn -0.4844 -0.8083 -0.3348
vn -0.4844 -0.6186 0.6186
vn -0.4844 -0.8083 0.3348
vn -0.4844 -0.0000 0.8749
vn -0.4844 -0.3348 0.8083
vn 0.0886 -0.3812 -0.9202
vn -0.4844 0.3348 0.8083
vn -0.4844 0.6186 0.6186
vn -0.4844 0.8083 0.3348
vn -0.4844 0.8749 -0.0000
vn -0.4844 0.8083 -0.3348
vn -0.4844 0.6186 -0.6186
vn -0.4844 0.3348 -0.8083
vn -0.4844 -0.6186 -0.6186
vn 0.1322 -0.3793 -0.9158
vn 0.1322 -0.0000 -0.9912
vn 0.1322 0.3793 0.9158
vn 0.1322 0.7009 0.7009
vn 0.1322 0.9158 0.3793
vn 0.1322 0.9912 -0.0000
vn 0.1322 0.9158 -0.3793
vn 0.1322 0.7009 -0.7009
vn 0.1322 0.3793 -0.9158
vt 0.709059 0.470885
vt 0.709059 0.535060
vt 0.568223 0.535060
vt 0.568223 0.470885
vt 0.491116 0.005152
vt 0.491249 0.115837
vt 0.328512 0.116005
vt 0.328339 0.005434
vt 0.029242 0.028574
vt 0.141576 0.028364
vt 0.141669 0.093664
vt 0.029335 0.093779
vt 0.568232 0.461054
vt 0.568232 0.396879
vt 0.709068 0.396879
vt 0.709068 0.461054
vt 0.628806 0.027559
vt 0.628818 0.093294
vt 0.515699 0.093303
vt 0.515644 0.027663
vt 0.849903 0.396879
vt 0.849903 0.461054
vt 0.816827 0.004949
vt 0.816741 0.116090
vt 0.653291 0.115963
vt 0.653338 0.004881
vt 0.145716 0.470885
vt 0.286552 0.470885
vt 0.286552 0.535060
vt 0.145716 0.535060
vt 0.286561 0.461054
vt 0.145725 0.461054
vt 0.145725 0.396879
vt 0.286560 0.396879
vt 0.427387 0.470885
vt 0.427388 0.535060
vt 0.427396 0.461054
vt 0.427396 0.396879
vt 0.165856 0.005775
vt 0.166029 0.116172
vt 0.980276 0.005076
vt 0.980190 0.116217
vt 0.849895 0.470885
vt 0.849895 0.535060
vt 0.856932 0.881779
vt 0.605810 0.881779
vt 0.668590 0.773040
vt 0.794151 0.773040
vt 0.004889 0.461054
vt 0.004889 0.396879
vt 0.022813 0.022634
vt 0.004896 0.006217
vt 0.147982 0.022339
vt 0.794151 0.990518
vt 0.668590 0.990518
vt 0.635289 0.021521
vt 0.509166 0.021680
vt 0.509245 0.099285
vt 0.635274 0.099335
vt 0.597062 0.660129
vt 0.659842 0.768866
vt 0.408724 0.768866
vt 0.471504 0.660129
vt 0.004880 0.535060
vt 0.004880 0.470885
vt 0.148100 0.099661
vt 0.005068 0.116217
vt 0.022933 0.099747
vt 0.597063 0.877603
vt 0.471504 0.877603
vt 0.709063 0.322884
vt 0.709063 0.387059
vt 0.568227 0.387059
vt 0.568227 0.322884
vt 0.491207 0.127028
vt 0.491232 0.237711
vt 0.328465 0.237689
vt 0.328465 0.127114
vt 0.029321 0.149787
vt 0.141660 0.149753
vt 0.141651 0.215055
vt 0.029313 0.214995
vt 0.286556 0.248881
vt 0.286556 0.313056
vt 0.145721 0.313056
vt 0.145721 0.248881
vt 0.628825 0.149431
vt 0.628855 0.215164
vt 0.515722 0.215178
vt 0.515693 0.149540
vt 0.004885 0.313055
vt 0.004885 0.248881
vt 0.816808 0.126684
vt 0.816808 0.237828
vt 0.653353 0.237828
vt 0.653329 0.126747
vt 0.145716 0.322884
vt 0.286553 0.322884
vt 0.286553 0.387059
vt 0.145716 0.387059
vt 0.568228 0.248881
vt 0.709064 0.248881
vt 0.709064 0.313055
vt 0.568228 0.313055
vt 0.427390 0.322884
vt 0.427390 0.387059
vt 0.427392 0.248881
vt 0.427392 0.313055
vt 0.165976 0.127201
vt 0.165976 0.237602
vt 0.980263 0.126684
vt 0.980263 0.237828
vt 0.849900 0.322884
vt 0.849900 0.387059
vt 0.858084 0.654296
vt 0.606970 0.654296
vt 0.669749 0.545560
vt 0.795306 0.545560
vt 0.849900 0.248881
vt 0.849900 0.313055
vt 0.022903 0.143837
vt 0.005011 0.127391
vt 0.148075 0.143738
vt 0.795306 0.763032
vt 0.669749 0.763032
vt 0.635298 0.143392
vt 0.509231 0.143558
vt 0.509252 0.221161
vt 0.635321 0.221204
vt 0.274976 0.762355
vt 0.212195 0.653616
vt 0.463317 0.653616
vt 0.400537 0.762355
vt 0.004880 0.387059
vt 0.004880 0.322884
vt 0.148073 0.221062
vt 0.005011 0.237395
vt 0.022902 0.220952
vt 0.274976 0.544877
vt 0.400537 0.544877
vt 0.082639 0.636101
vt 0.082639 0.690499
vt 0.070325 0.690499
vt 0.070325 0.636101
vt 0.058011 0.690499
vt 0.058011 0.636101
vt 0.094953 0.636101
vt 0.094953 0.690499
vt 0.107267 0.636102
vt 0.107267 0.690499
vt 0.119582 0.636102
vt 0.119582 0.690499
vt 0.131896 0.636102
vt 0.131896 0.690499
vt 0.144210 0.636102
vt 0.144210 0.690499
vt 0.156524 0.636102
vt 0.156524 0.690499
vt 0.008754 0.582947
vt 0.021068 0.582947
vt 0.021068 0.636101
vt 0.008754 0.636101
vt 0.033382 0.582947
vt 0.033382 0.636101
vt 0.181152 0.582947
vt 0.193467 0.582947
vt 0.193467 0.636101
vt 0.181152 0.636101
vt 0.156524 0.582947
vt 0.168838 0.582947
vt 0.168838 0.636101
vt 0.045696 0.563292
vt 0.058011 0.563292
vt 0.058011 0.582947
vt 0.045696 0.582947
vt 0.008754 0.563292
vt 0.021068 0.563292
vt 0.181152 0.563292
vt 0.193467 0.563292
vt 0.156524 0.563292
vt 0.168838 0.563292
vt 0.045696 0.636101
vt 0.045696 0.690499
vt 0.033382 0.690499
vt 0.021068 0.690499
vt 0.008754 0.690499
vt 0.205781 0.636101
vt 0.205781 0.690499
vt 0.193467 0.690499
vt 0.181152 0.690499
vt 0.168838 0.690499
vt 0.156524 0.544889
vt 0.144210 0.563292
vt 0.144210 0.544889
vt 0.131896 0.563292
vt 0.131896 0.544889
vt 0.119582 0.563292
vt 0.119582 0.544889
vt 0.107267 0.563292
vt 0.107267 0.544889
vt 0.094953 0.563292
vt 0.094953 0.544889
vt 0.082639 0.563292
vt 0.082639 0.544889
vt 0.070325 0.544889
vt 0.070325 0.563292
vt 0.058011 0.544889
vt 0.168838 0.544889
vt 0.181152 0.544889
vt 0.193467 0.544889
vt 0.205781 0.544889
vt 0.205781 0.563292
vt 0.008754 0.544889
vt 0.021068 0.544889
vt 0.033382 0.544889
vt 0.033382 0.563292
vt 0.045696 0.544889
vt 0.144210 0.582947
vt 0.131896 0.582947
vt 0.119582 0.582947
vt 0.107267 0.582947
vt 0.094953 0.582947
vt 0.082639 0.582947
vt 0.070325 0.582947
vt 0.205781 0.582947
vt 0.082639 0.744896
vt 0.070325 0.744896
vt 0.058011 0.744896
vt 0.094953 0.744896
vt 0.107267 0.744896
vt 0.119582 0.744896
vt 0.131896 0.744896
vt 0.144210 0.744896
vt 0.156524 0.744896
vt 0.008754 0.798051
vt 0.008754 0.744896
vt 0.021068 0.744896
vt 0.021068 0.798051
vt 0.033382 0.744896
vt 0.033382 0.798051
vt 0.181152 0.798051
vt 0.181152 0.744896
vt 0.193467 0.744896
vt 0.193467 0.798051
vt 0.156524 0.798051
vt 0.168838 0.744896
vt 0.168838 0.798051
vt 0.045696 0.817706
vt 0.045696 0.798051
vt 0.058011 0.798051
vt 0.058011 0.817706
vt 0.008754 0.817706
vt 0.021068 0.817706
vt 0.181152 0.817706
vt 0.193467 0.817706
vt 0.156524 0.817706
vt 0.168838 0.817706
vt 0.045696 0.744896
vt 0.205781 0.744896
vt 0.156524 0.836109
vt 0.144210 0.836109
vt 0.144210 0.817706
vt 0.131896 0.836109
vt 0.131896 0.817706
vt 0.119582 0.836109
vt 0.119582 0.817706
vt 0.107267 0.836109
vt 0.107267 0.817706
vt 0.094953 0.836109
vt 0.094953 0.817706
vt 0.082639 0.836109
vt 0.082639 0.817706
vt 0.070325 0.836109
vt 0.058011 0.836109
vt 0.070325 0.817706
vt 0.168838 0.836109
vt 0.181152 0.836109
vt 0.193467 0.836109
vt 0.205781 0.817706
vt 0.205781 0.836109
vt 0.008754 0.836109
vt 0.021068 0.836109
vt 0.033382 0.817706
vt 0.033382 0.836109
vt 0.045696 0.836109
vt 0.144210 0.798051
vt 0.131896 0.798051
vt 0.119582 0.798051
vt 0.107267 0.798051
vt 0.094953 0.798051
vt 0.082639 0.798051
vt 0.070325 0.798051
vt 0.205781 0.798051
s 1
f 34/1/1 29/2/1 13/3/1 14/4/1
f 22/5/2 23/6/2 16/7/2 14/8/2
f 18/9/3 30/10/3 32/11/3 20/12/3
f 16/13/4 15/14/4 31/15/4 35/16/4
f 6/17/5 8/18/5 12/19/5 10/20/5
f 35/16/6 31/15/6 19/21/6 36/22/6
f 2/23/7 4/24/7 24/25/7 21/26/7
f 2/27/8 21/28/8 5/29/8 1/30/8
f 24/31/9 4/32/9 3/33/9 7/34/9
f 21/28/10 22/35/10 9/36/10 5/29/10
f 23/37/11 24/31/11 7/34/11 11/38/11
f 22/35/12 14/4/12 13/3/12 9/36/12
f 16/13/13 23/37/13 11/38/13 15/14/13
f 34/39/14 14/8/14 16/7/14 35/40/14
f 2/23/15 33/41/15 36/42/15 4/24/15
f 33/43/16 17/44/16 29/2/16 34/1/16
f 1/45/17 13/46/17 29/47/17 17/48/17
f 36/49/18 19/50/18 3/33/18 4/32/18
f 37/51/3 33/52/3 34/39/3 38/53/3
f 1/45/17 5/54/17 9/55/17 13/46/17
f 25/56/5 26/57/5 22/5/5 21/26/5
f 27/58/5 28/59/5 24/25/5 23/6/5
f 28/59/5 25/56/5 21/26/5 24/25/5
f 26/57/5 27/58/5 23/6/5 22/5/5
f 6/17/19 10/20/19 26/57/19 25/56/19
f 12/19/20 8/18/20 28/59/20 27/58/20
f 8/18/21 6/17/21 25/56/21 28/59/21
f 10/20/22 12/19/22 27/58/22 26/57/22
f 7/60/23 3/61/23 15/62/23 11/63/23
f 2/27/24 1/30/24 17/64/24 33/65/24
f 39/66/3 35/40/3 36/67/3 40/68/3
f 40/68/3 36/67/3 33/52/3 37/51/3
f 38/53/3 34/39/3 35/40/3 39/66/3
f 18/9/25 37/51/25 38/53/25 30/10/25
f 32/11/26 39/66/26 40/68/26 20/12/26
f 20/12/27 40/68/27 37/51/27 18/9/27
f 30/10/28 38/53/28 39/66/28 32/11/28
f 19/69/23 31/70/23 15/62/23 3/61/23
f 74/71/1 69/72/1 53/73/1 54/74/1
f 62/75/2 63/76/2 56/77/2 54/78/2
f 58/79/3 70/80/3 72/81/3 60/82/3
f 56/83/4 55/84/4 71/85/4 75/86/4
f 46/87/5 48/88/5 52/89/5 50/90/5
f 75/86/6 71/85/6 59/91/6 76/92/6
f 42/93/7 44/94/7 64/95/7 61/96/7
f 42/97/8 61/98/8 45/99/8 41/100/8
f 64/101/9 44/102/9 43/103/9 47/104/9
f 61/98/10 62/105/10 49/106/10 45/99/10
f 63/107/11 64/101/11 47/104/11 51/108/11
f 62/105/12 54/74/12 53/73/12 49/106/12
f 56/83/13 63/107/13 51/108/13 55/84/13
f 74/109/14 54/78/14 56/77/14 75/110/14
f 42/93/15 73/111/15 76/112/15 44/94/15
f 73/113/16 57/114/16 69/72/16 74/71/16
f 41/115/17 53/116/17 69/117/17 57/118/17
f 76/119/18 59/120/18 43/103/18 44/102/18
f 77/121/3 73/122/3 74/109/3 78/123/3
f 41/115/17 45/124/17 49/125/17 53/116/17
f 65/126/5 66/127/5 62/75/5 61/96/5
f 67/128/5 68/129/5 64/95/5 63/76/5
f 68/129/5 65/126/5 61/96/5 64/95/5
f 66/127/5 67/128/5 63/76/5 62/75/5
f 46/87/19 50/90/19 66/127/19 65/126/19
f 52/89/20 48/88/20 68/129/20 67/128/20
f 48/88/21 46/87/21 65/126/21 68/129/21
f 50/90/22 52/89/22 67/128/22 66/127/22
f 47/130/23 43/131/23 55/132/23 51/133/23
f 42/97/24 41/100/24 57/134/24 73/135/24
f 79/136/3 75/110/3 76/137/3 80/138/3
f 80/138/3 76/137/3 73/122/3 77/121/3
f 78/123/3 74/109/3 75/110/3 79/136/3
f 58/79/25 77/121/25 78/123/25 70/80/25
f 72/81/26 79/136/26 80/138/26 60/82/26
f 60/82/27 80/138/27 77/121/27 58/79/27
f 70/80/28 78/123/28 79/136/28 72/81/28
f 59/139/23 71/140/23 55/132/23 43/131/23
f 151/141/29 107/142/30 108/143/31 152/144/32
f 152/144/32 108/143/31 95/145/33 138/146/34
f 150/147/35 106/148/36 107/142/30 151/141/29
f 149/149/37 105/150/5 106/148/36 150/147/35
f 148/151/38 104/152/39 105/150/5 149/149/37
f 147/153/40 103/154/41 104/152/39 148/151/38
f 146/155/42 102/156/43 103/154/41 147/153/40
f 145/157/44 101/158/45 102/156/43 146/155/42
f 142/159/46 143/160/47 158/161/48 157/162/49
f 143/160/47 144/163/50 159/164/51 158/161/48
f 140/165/52 141/166/53 156/167/54 155/168/55
f 130/169/56 139/170/57 154/171/58 145/157/44
f 129/172/59 123/173/60 124/174/60 153/175/59
f 126/176/61 127/177/62 143/160/62 142/159/61
f 114/178/63 125/179/64 141/166/64 140/165/63
f 115/180/65 113/181/66 139/170/66 130/169/65
f 159/164/51 160/182/67 112/183/68 111/184/69
f 160/182/67 138/146/34 95/145/33 112/183/68
f 158/161/48 159/164/51 111/184/69 110/185/70
f 157/162/49 158/161/48 110/185/70 109/186/3
f 156/167/54 157/187/49 109/188/3 100/189/71
f 155/168/55 156/167/54 100/189/71 99/190/72
f 154/171/58 155/168/55 99/190/72 98/191/73
f 145/157/44 154/171/58 98/191/73 101/158/45
f 87/192/45 115/180/45 116/193/43 88/194/43
f 88/194/43 116/193/43 117/195/41 89/196/41
f 89/196/41 117/195/41 118/197/39 90/198/39
f 90/198/39 118/197/39 119/199/5 91/200/5
f 91/200/5 119/199/5 120/201/36 92/202/36
f 92/202/36 120/201/36 121/203/30 93/204/30
f 94/205/31 122/206/31 123/173/33 81/207/33
f 93/204/30 121/203/30 122/206/31 94/205/31
f 87/192/45 82/208/73 113/181/73 115/180/45
f 82/208/73 83/209/72 114/178/72 113/181/73
f 83/209/72 84/210/71 125/179/71 114/178/72
f 84/210/71 85/211/3 126/212/3 125/179/71
f 85/213/3 86/214/70 127/177/70 126/176/3
f 86/214/70 96/215/69 128/216/69 127/177/70
f 97/217/68 81/207/33 123/173/33 129/172/68
f 96/215/69 97/217/68 129/172/68 128/216/69
f 115/180/65 130/169/65 131/218/74 116/193/74
f 116/193/74 131/218/74 132/219/75 117/195/75
f 117/195/75 132/219/75 133/220/76 118/197/76
f 118/197/76 133/220/76 134/221/77 119/199/77
f 119/199/77 134/221/77 135/222/78 120/201/78
f 120/201/78 135/222/78 136/223/79 121/203/79
f 122/206/80 137/224/80 124/174/60 123/173/60
f 121/203/79 136/223/79 137/224/80 122/206/80
f 113/181/66 114/178/63 140/165/63 139/170/66
f 125/179/64 126/212/61 142/225/61 141/166/64
f 127/177/62 128/216/81 144/163/81 143/160/62
f 128/216/81 129/172/59 153/175/59 144/163/81
f 139/170/57 140/165/52 155/168/55 154/171/58
f 141/166/53 142/225/46 157/187/49 156/167/54
f 153/175/82 124/174/83 138/146/34 160/182/67
f 144/163/50 153/175/82 160/182/67 159/164/51
f 130/169/56 145/157/44 146/155/42 131/218/84
f 131/218/84 146/155/42 147/153/40 132/219/85
f 132/219/85 147/153/40 148/151/38 133/220/86
f 133/220/86 148/151/38 149/149/37 134/221/87
f 134/221/87 149/149/37 150/147/35 135/222/88
f 135/222/88 150/147/35 151/141/29 136/223/89
f 137/224/90 152/144/32 138/146/34 124/174/83
f 136/223/89 151/141/29 152/144/32 137/224/90
f 215/226/91 216/227/92 108/143/31 107/142/30
f 216/227/92 202/228/93 95/145/33 108/143/31
f 214/229/94 215/226/91 107/142/30 106/148/36
f 213/230/95 214/229/94 106/148/36 105/150/5
f 212/231/96 213/230/95 105/150/5 104/152/39
f 211/232/97 212/231/96 104/152/39 103/154/41
f 210/233/98 211/232/97 103/154/41 102/156/43
f 209/234/99 210/233/98 102/156/43 101/158/45
f 206/235/100 221/236/101 222/237/102 207/238/103
f 207/238/103 222/237/102 223/239/104 208/240/105
f 204/241/106 219/242/107 220/243/108 205/244/109
f 194/245/110 209/234/99 218/246/111 203/247/112
f 193/248/113 217/249/113 188/250/114 187/251/114
f 190/252/115 206/235/115 207/238/116 191/253/116
f 178/254/117 204/241/117 205/244/118 189/255/118
f 179/256/119 194/245/119 203/247/120 177/257/120
f 223/239/104 111/184/69 112/183/68 224/258/121
f 224/258/121 112/183/68 95/145/33 202/228/93
f 222/237/102 110/185/70 111/184/69 223/239/104
f 221/236/101 109/186/3 110/185/70 222/237/102
f 220/243/108 100/189/71 109/188/3 221/259/101
f 219/242/107 99/190/72 100/189/71 220/243/108
f 218/246/111 98/191/73 99/190/72 219/242/107
f 209/234/99 101/158/45 98/191/73 218/246/111
f 167/260/45 168/261/43 180/262/43 179/256/45
f 168/261/43 169/263/41 181/264/41 180/262/43
f 169/263/41 170/265/39 182/266/39 181/264/41
f 170/265/39 171/267/5 183/268/5 182/266/39
f 171/267/5 172/269/36 184/270/36 183/268/5
f 172/269/36 173/271/30 185/272/30 184/270/36
f 174/273/31 161/274/33 187/251/33 186/275/31
f 173/271/30 174/273/31 186/275/31 185/272/30
f 167/260/45 179/256/45 177/257/73 162/276/73
f 162/276/73 177/257/73 178/254/72 163/277/72
f 163/277/72 178/254/72 189/255/71 164/278/71
f 164/278/71 189/255/71 190/279/3 165/280/3
f 165/281/3 190/252/3 191/253/70 166/282/70
f 166/282/70 191/253/70 192/283/69 175/284/69
f 176/285/68 193/248/68 187/251/33 161/274/33
f 175/284/69 192/283/69 193/248/68 176/285/68
f 179/256/119 180/262/122 195/286/122 194/245/119
f 180/262/122 181/264/123 196/287/123 195/286/122
f 181/264/123 182/266/124 197/288/124 196/287/123
f 182/266/124 183/268/125 198/289/125 197/288/124
f 183/268/125 184/270/126 199/290/126 198/289/125
f 184/270/126 185/272/127 200/291/127 199/290/126
f 186/275/128 187/251/114 188/250/114 201/292/128
f 185/272/127 186/275/128 201/292/128 200/291/127
f 177/257/120 203/247/120 204/241/117 178/254/117
f 189/255/118 205/244/118 206/293/115 190/279/115
f 191/253/116 207/238/116 208/240/129 192/283/129
f 192/283/129 208/240/129 217/249/113 193/248/113
f 203/247/112 218/246/111 219/242/107 204/241/106
f 205/244/109 220/243/108 221/259/101 206/293/100
f 217/249/130 224/258/121 202/228/93 188/250/131
f 208/240/105 223/239/104 224/258/121 217/249/130
f 194/245/110 195/286/132 210/233/98 209/234/99
f 195/286/132 196/287/133 211/232/97 210/233/98
f 196/287/133 197/288/134 212/231/96 211/232/97
f 197/288/134 198/289/135 213/230/95 212/231/96
f 198/289/135 199/290/136 214/229/94 213/230/95
f 199/290/136 200/291/137 215/226/91 214/229/94
f 201/292/138 188/250/131 202/228/93 216/227/92
f 200/291/137 201/292/138 216/227/92 215/226/91
