# Blender 4.0.2
# www.blender.org
o lily_pad_02
v -0.022031 0.002728 0.069671
v -0.043861 0.006035 0.088439
v -0.064239 0.006035 0.083419
v -0.078265 0.006035 0.071475
v -0.088850 0.006035 0.055983
v -0.095839 0.006035 0.041478
v -0.099604 0.006035 0.022975
v -0.100961 0.006035 0.004439
v -0.099463 0.006035 -0.016015
v -0.093656 0.006035 -0.035693
v -0.084369 0.006035 -0.053100
v -0.069542 0.006035 -0.071246
v -0.052559 0.006035 -0.085763
v -0.035560 0.006035 -0.094849
v -0.018081 0.006035 -0.097545
v -0.000018 0.006035 -0.091531
v 0.019857 0.006035 -0.093659
v 0.038820 0.006035 -0.088299
v 0.054326 0.006035 -0.078774
v 0.067192 0.006035 -0.065948
v 0.079235 0.006035 -0.050994
v 0.088321 0.006035 -0.033995
v 0.093868 0.006035 -0.015551
v 0.096153 0.006035 0.003456
v 0.095117 0.006035 0.022398
v 0.090081 0.006035 0.040919
v 0.082557 0.006035 0.058994
v 0.071762 0.006035 0.074533
v 0.057923 0.006035 0.086457
v 0.040589 0.006035 0.091114
v 0.017177 0.002728 0.067343
v 0.027329 0.004212 0.084323
v -0.031101 0.004212 0.082942
v -0.008242 0.002728 0.040788
v 0.006449 0.002728 0.040875
v 0.002540 0.002728 0.027698
v -0.000253 0.002728 0.018513
v -0.003465 0.002728 0.027012
v 0.011190 0.002728 0.053338
v -0.014502 0.002728 0.055355
v -0.000177 0.003504 -0.013740
v -0.000140 0.003504 -0.027878
v -0.000103 0.003504 -0.044318
v -0.000067 0.003504 -0.057997
v -0.000685 0.003504 -0.072178
v 0.044637 0.003504 0.068296
v 0.047978 0.003504 0.037577
v 0.048332 0.003504 0.022224
v 0.047704 0.003504 0.005531
v 0.047066 0.003504 0.052699
v 0.045156 0.003504 -0.011297
v 0.041666 0.003504 -0.027495
v 0.036639 0.003504 -0.043549
v 0.031671 0.003504 -0.056751
v 0.024855 0.003504 -0.070790
v -0.052039 0.003504 0.038110
v -0.051334 0.003504 0.022871
v -0.050021 0.003504 0.006446
v -0.051304 0.003504 0.051627
v -0.049005 0.003451 0.066512
v -0.047506 0.003504 -0.012137
v -0.044138 0.003504 -0.028282
v -0.039156 0.003504 -0.044524
v -0.032265 0.003504 -0.059245
v -0.025458 0.003504 -0.074284
v 0.001054 0.002728 0.019789
v -0.001776 0.002728 0.019561
v -0.000213 0.003504 0.000000
v -0.035762 0.003504 0.077094
v -0.028094 0.003504 0.067558
v -0.060806 0.003504 0.076337
v -0.046337 0.003504 0.079839
v -0.071535 0.003504 0.065477
v -0.081062 0.003504 0.051534
v -0.087272 0.003504 0.038646
v -0.090699 0.003504 0.021801
v -0.091966 0.003504 0.004493
v -0.090586 0.003504 -0.014347
v -0.085311 0.003504 -0.032225
v -0.076867 0.003504 -0.048051
v -0.063103 0.003504 -0.064896
v -0.047470 0.003504 -0.078258
v -0.032680 0.003504 -0.086164
v -0.018856 0.003504 -0.088296
v -0.001001 0.003504 -0.082351
v 0.019088 0.003504 -0.084502
v 0.035185 0.003504 -0.079952
v 0.048737 0.003504 -0.071627
v 0.060514 0.003504 -0.059888
v 0.071721 0.003504 -0.045970
v 0.079989 0.003504 -0.030503
v 0.085055 0.003504 -0.013657
v 0.087154 0.003504 0.003801
v 0.086213 0.003504 0.021014
v 0.081012 0.003504 0.039418
v 0.073754 0.003504 0.055997
v 0.065045 0.003504 0.068533
v 0.054184 0.003504 0.078943
v 0.042606 0.003504 0.082021
v 0.031510 0.003504 0.078318
v 0.017912 0.003504 0.052422
v 0.024005 0.003504 0.065992
v -0.021408 0.003504 0.054183
v -0.014843 0.003504 0.040005
v 0.013272 0.003504 0.040102
v 0.008884 0.003504 0.026806
v 0.007235 0.003504 0.016015
v 0.000735 0.003504 0.011962
v -0.007721 0.003504 0.015259
v -0.010124 0.003504 0.026371
v -0.021943 0.000005 0.069887
v -0.043941 0.003511 0.089667
v -0.064839 0.003557 0.084624
v -0.079205 0.003537 0.072348
v -0.089896 0.003522 0.056641
v -0.096979 0.003520 0.041915
v -0.100802 0.003523 0.023193
v -0.102169 0.003522 0.004492
v -0.100649 0.003521 -0.016178
v -0.094772 0.003521 -0.036097
v -0.085373 0.003522 -0.053716
v -0.070405 0.003522 -0.072037
v -0.053238 0.003521 -0.086706
v -0.035938 0.003518 -0.095931
v -0.017981 0.003512 -0.098670
v 0.000110 0.003514 -0.092659
v 0.019958 0.003516 -0.094795
v 0.039304 0.003520 -0.089347
v 0.055072 0.003521 -0.079667
v 0.068093 0.003523 -0.066705
v 0.080243 0.003522 -0.051607
v 0.089437 0.003521 -0.034403
v 0.095051 0.003522 -0.015745
v 0.097361 0.003522 0.003469
v 0.096303 0.003519 0.022645
v 0.091213 0.003517 0.041360
v 0.083611 0.003518 0.059616
v 0.072685 0.003530 0.075401
v 0.058513 0.003537 0.087613
v 0.040653 0.003490 0.092282
v 0.017076 0.000004 0.067530
v 0.027122 0.001561 0.085078
v -0.030947 0.001563 0.083720
v -0.008241 -0.000000 0.040841
v 0.006449 -0.000000 0.040928
v 0.002541 -0.000000 0.027751
v -0.000252 -0.000000 0.018566
v -0.003464 -0.000000 0.027066
v 0.011191 -0.000000 0.053391
v -0.014501 -0.000000 0.055408
v -0.000177 0.000000 -0.013740
v -0.000140 0.000000 -0.027878
v -0.000103 0.000000 -0.044318
v -0.000067 0.000000 -0.057997
v -0.000685 0.000000 -0.072178
v 0.044637 0.000000 0.068296
v 0.047978 0.000000 0.037577
v 0.048332 0.000000 0.022224
v 0.047704 0.000000 0.005531
v 0.047066 0.000000 0.052699
v 0.045156 0.000000 -0.011297
v 0.041666 0.000000 -0.027495
v 0.036639 0.000000 -0.043549
v 0.031671 0.000000 -0.056751
v 0.024855 0.000000 -0.070790
v -0.052039 0.000000 0.038110
v -0.051334 0.000000 0.022871
v -0.050021 0.000000 0.006446
v -0.051304 0.000000 0.051624
v -0.049005 -0.000054 0.066515
v -0.047506 0.000000 -0.012137
v -0.044138 0.000000 -0.028282
v -0.039156 0.000000 -0.044524
v -0.032265 0.000000 -0.059245
v -0.025458 0.000000 -0.074284
v 0.001055 -0.000000 0.019842
v -0.001775 -0.000000 0.019615
v -0.000213 0.000000 0.000000
v -0.035667 0.000030 0.077539
v -0.028031 0.000002 0.067671
v -0.061174 0.000087 0.077021
v -0.046418 0.000074 0.080552
v -0.072042 0.000065 0.065914
v -0.081619 0.000059 0.051854
v -0.087895 0.000062 0.038856
v -0.091332 0.000059 0.021888
v -0.092608 0.000059 0.004492
v -0.091228 0.000061 -0.014463
v -0.085913 0.000061 -0.032471
v -0.077408 0.000061 -0.048411
v -0.063565 0.000060 -0.065348
v -0.047838 0.000061 -0.078797
v -0.032892 0.000065 -0.086800
v -0.018799 0.000068 -0.088981
v -0.000945 0.000039 -0.082870
v 0.019145 0.000066 -0.085176
v 0.035451 0.000063 -0.080559
v 0.049143 0.000062 -0.072142
v 0.060986 0.000058 -0.060313
v 0.072262 0.000061 -0.046328
v 0.080590 0.000061 -0.030751
v 0.085687 0.000060 -0.013789
v 0.087800 0.000060 0.003780
v 0.086855 0.000061 0.021119
v 0.081608 0.000058 0.039631
v 0.074315 0.000060 0.056315
v 0.065543 0.000063 0.068972
v 0.054537 0.000077 0.079586
v 0.042669 0.000067 0.082700
v 0.031379 0.000025 0.078715
v 0.017912 0.000000 0.052422
v 0.023930 0.000002 0.066091
v -0.021407 0.000000 0.054182
v -0.014843 0.000000 0.040005
v 0.013272 0.000000 0.040102
v 0.008884 -0.000000 0.026806
v 0.007235 -0.000000 0.016015
v 0.000735 0.000000 0.011962
v -0.007721 -0.000000 0.015259
v -0.010124 -0.000000 0.026371
vn -0.0000 1.0000 -0.0000
vn -0.0315 0.9995 -0.0002
vn -0.0048 0.9975 -0.0711
vn -0.0209 0.9888 -0.1476
vn -0.1432 0.9894 -0.0235
vn -0.1439 0.9896 0.0046
vn -0.0000 1.0000 0.0008
vn 0.1391 0.9892 -0.0469
vn 0.1243 0.9897 -0.0716
vn -0.0548 0.9982 0.0226
vn -0.0603 0.9981 0.0147
vn -0.0561 0.9982 0.0196
vn 0.1410 0.9898 -0.0195
vn -0.0900 0.9894 0.1142
vn -0.0589 0.9892 0.1344
vn -0.0126 0.9887 0.1493
vn 0.1429 0.9897 -0.0000
vn -0.0000 1.0000 -0.0007
vn 0.1137 0.9887 -0.0980
vn 0.0243 0.9874 -0.1564
vn 0.0829 0.9846 -0.1542
vn -0.1407 0.9896 0.0293
vn -0.0124 0.9933 0.1148
vn -0.0128 0.9883 0.1517
vn -0.1336 0.9895 0.0551
vn -0.1201 0.9896 0.0794
vn -0.1048 0.9900 0.0943
vn -0.1328 0.9900 -0.0475
vn -0.1252 0.9896 -0.0712
vn -0.1114 0.9889 -0.0982
vn 0.0291 0.9993 0.0235
vn -0.0042 0.9992 0.0387
vn 0.1026 0.9896 0.1003
vn 0.0817 0.9895 0.1196
vn 0.1201 0.9895 0.0799
vn 0.1339 0.9895 0.0548
vn 0.1429 0.9894 0.0259
vn 0.0344 0.9994 0.0007
vn 0.0534 0.9982 0.0264
vn 0.0585 0.9981 0.0170
vn 0.0565 0.9981 0.0228
vn 0.0091 0.9966 -0.0817
vn -0.0790 0.9864 -0.1442
vn 0.0471 0.9889 0.1410
vn -0.0340 0.9992 0.0215
vn 0.0170 0.9912 -0.1311
vn 0.0753 0.9971 0.0140
vn 0.1357 0.9559 -0.2603
vn 0.0314 0.9665 -0.2548
vn 0.2119 0.9597 -0.1846
vn 0.2351 0.9624 -0.1358
vn 0.2559 0.9629 -0.0861
vn 0.2686 0.9625 -0.0369
vn 0.2708 0.9626 0.0001
vn 0.2654 0.9629 0.0484
vn 0.2495 0.9630 0.1022
vn 0.2242 0.9630 0.1494
vn 0.1926 0.9630 0.1884
vn 0.1515 0.9632 0.2220
vn 0.0843 0.9638 0.2528
vn -0.0221 0.9648 0.2621
vn -0.0284 0.9644 0.2628
vn -0.0224 0.9641 0.2645
vn -0.1075 0.9635 0.2452
vn -0.1662 0.9632 0.2110
vn -0.2008 0.9628 0.1807
vn -0.2248 0.9630 0.1488
vn -0.2492 0.9629 0.1030
vn -0.2645 0.9628 0.0553
vn -0.2703 0.9627 0.0089
vn -0.2655 0.9631 -0.0433
vn -0.2537 0.9634 -0.0868
vn -0.2364 0.9633 -0.1274
vn -0.2075 0.9609 -0.1833
vn -0.1327 0.9595 -0.2485
vn -0.0272 0.9701 -0.2410
vn -0.0045 0.9916 -0.1292
vn -0.1077 0.9932 0.0434
vn -0.0747 0.9971 0.0140
vn 0.1065 0.9930 0.0504
vn 0.1101 0.9930 0.0426
vn -0.1144 0.9931 0.0269
vn -0.1110 0.9931 0.0378
vn -0.0071 0.9939 0.1103
vn -0.0934 0.9939 0.0592
vn 0.1125 0.9932 0.0310
vn 0.0828 0.9940 0.0710
vn 0.0014 -1.0000 0.0023
vn 0.0177 -0.9809 0.1935
vn -0.0374 -0.9929 0.1128
vn -0.0216 -0.9993 0.0289
vn 0.0008 -1.0000 -0.0000
vn 0.1826 -0.9832 -0.0060
vn 0.1817 -0.9829 0.0297
vn 0.0008 -1.0000 0.0001
vn -0.0011 -1.0000 -0.0003
vn -0.1577 -0.9833 0.0906
vn -0.1765 -0.9825 0.0593
vn -0.0009 -1.0000 0.0002
vn 0.0011 -1.0000 0.0004
vn -0.0000 -1.0000 0.0001
vn 0.0009 -1.0000 0.0002
vn -0.0000 -1.0000 -0.0000
vn -0.1788 -0.9836 0.0246
vn -0.0008 -1.0000 0.0001
vn 0.0010 -1.0000 -0.0024
vn 0.0162 -0.9812 -0.1921
vn 0.0757 -0.9820 -0.1729
vn 0.1152 -0.9825 -0.1461
vn -0.1813 -0.9834 -0.0001
vn -0.0007 -1.0000 -0.0001
vn -0.0015 -1.0000 0.0032
vn -0.1440 -0.9818 0.1241
vn -0.0229 -0.9789 0.2031
vn -0.1048 -0.9752 0.1948
vn 0.0008 -1.0000 -0.0002
vn 0.1788 -0.9832 -0.0373
vn -0.0008 -1.0000 -0.0024
vn 0.0164 -0.9806 -0.1951
vn 0.0158 -0.9889 -0.1476
vn 0.0002 -1.0000 -0.0021
vn 0.0008 -1.0000 -0.0003
vn 0.1700 -0.9829 -0.0701
vn -0.0007 -1.0000 -0.0003
vn 0.0008 -1.0000 -0.0004
vn 0.1531 -0.9830 -0.1011
vn -0.0008 -1.0000 -0.0004
vn 0.0010 -1.0000 -0.0007
vn 0.1338 -0.9837 -0.1201
vn -0.0009 -1.0000 -0.0007
vn 0.1685 -0.9839 0.0600
vn 0.1590 -0.9832 0.0899
vn 0.1413 -0.9821 0.1244
vn -0.1311 -0.9831 -0.1280
vn -0.1045 -0.9827 -0.1530
vn -0.1530 -0.9830 -0.1018
vn -0.1704 -0.9829 -0.0697
vn -0.1815 -0.9828 -0.0330
vn 0.0179 -0.9993 0.0327
vn 0.0003 -1.0000 -0.0002
vn 0.0271 -0.9916 0.1263
vn 0.1004 -0.9779 0.1832
vn -0.0603 -0.9816 -0.1814
vn 0.0257 -0.9985 0.0476
vn 0.0440 -0.9771 0.2081
vn -0.0235 -0.9431 0.3317
vn -0.1693 -0.9307 0.3241
vn -0.2652 -0.9361 0.2311
vn -0.2950 -0.9402 0.1705
vn -0.3214 -0.9407 0.1083
vn -0.3376 -0.9401 0.0465
vn -0.3406 -0.9402 -0.0000
vn -0.3343 -0.9405 -0.0608
vn -0.3146 -0.9404 -0.1288
vn -0.2830 -0.9404 -0.1885
vn -0.2433 -0.9403 -0.2379
vn -0.1916 -0.9405 -0.2807
vn -0.1067 -0.9413 -0.3203
vn 0.0283 -0.9429 -0.3319
vn 0.0358 -0.9425 -0.3322
vn 0.0280 -0.9419 -0.3348
vn 0.1360 -0.9408 -0.3104
vn 0.2101 -0.9406 -0.2667
vn 0.2535 -0.9401 -0.2280
vn 0.2837 -0.9404 -0.1876
vn 0.3143 -0.9404 -0.1297
vn 0.3331 -0.9403 -0.0696
vn 0.3401 -0.9403 -0.0111
vn 0.3338 -0.9411 0.0546
vn 0.3187 -0.9415 0.1093
vn 0.2967 -0.9414 0.1603
vn 0.2599 -0.9379 0.2297
vn 0.1660 -0.9360 0.3106
vn 0.0186 -0.9489 0.3151
vn -0.0592 -0.9778 0.2011
vn -0.0300 -0.9988 0.0393
vn 0.8610 0.0873 0.5010
vn 0.6548 0.2428 0.7157
vn 0.6482 0.2460 0.7206
vn 0.8609 0.0876 0.5012
vn 0.1125 0.4138 0.9034
vn -0.4029 0.4655 0.7880
vn -0.4017 0.4655 0.7887
vn 0.1112 0.4140 0.9035
vn -0.6627 0.4569 0.5933
vn -0.6620 0.4570 0.5941
vn -0.7768 0.4432 0.4474
vn -0.7760 0.4433 0.4486
vn -0.8521 0.4385 0.2856
vn -0.8513 0.4385 0.2880
vn -0.8922 0.4348 0.1224
vn -0.8920 0.4348 0.1237
vn -0.9014 0.4331 -0.0010
vn -0.9013 0.4331 0.0006
vn -0.8879 0.4303 -0.1629
vn -0.8883 0.4303 -0.1606
vn -0.8366 0.4267 -0.3436
vn -0.8374 0.4267 -0.3416
vn -0.7532 0.4242 -0.5027
vn -0.7542 0.4242 -0.5013
vn -0.6477 0.4217 -0.6346
vn -0.6487 0.4217 -0.6335
vn -0.5113 0.4183 -0.7507
vn -0.5124 0.4184 -0.7500
vn -0.2866 0.4135 -0.8642
vn -0.2877 0.4136 -0.8638
vn 0.0768 0.4122 -0.9079
vn 0.0773 0.4122 -0.9078
vn 0.0979 0.4106 -0.9066
vn 0.0973 0.4106 -0.9066
vn 0.0760 0.4131 -0.9075
vn 0.0764 0.4131 -0.9075
vn 0.3641 0.4159 -0.8334
vn 0.3653 0.4159 -0.8328
vn 0.5606 0.4205 -0.7134
vn 0.5619 0.4206 -0.7123
vn 0.6736 0.4224 -0.6065
vn 0.6742 0.4225 -0.6058
vn 0.7545 0.4251 -0.5000
vn 0.7554 0.4251 -0.4986
vn 0.8352 0.4275 -0.3459
vn 0.8360 0.4275 -0.3441
vn 0.8835 0.4302 -0.1855
vn 0.8838 0.4302 -0.1837
vn 0.9012 0.4323 -0.0301
vn 0.9013 0.4323 -0.0282
vn 0.8895 0.4342 0.1425
vn 0.8891 0.4342 0.1449
vn 0.8524 0.4343 0.2913
vn 0.8519 0.4343 0.2925
vn 0.7884 0.4400 0.4299
vn 0.7876 0.4401 0.4314
vn 0.6649 0.4488 0.5971
vn 0.6639 0.4488 0.5981
vn 0.4160 0.4502 0.7901
vn 0.4145 0.4501 0.7909
vn -0.1316 0.4007 0.9067
vn -0.1282 0.4013 0.9069
vn -0.6967 0.2332 0.6784
vn -0.6881 0.2372 0.6857
vn -0.8935 0.0849 0.4410
vn -0.9280 0.0203 0.3719
vn -0.9279 0.0206 0.3723
vn -0.8932 0.0853 0.4415
vn 0.9325 0.0073 0.3611
vn 0.9036 0.0224 0.4279
vn 0.9032 0.0227 0.4286
vn 0.9322 0.0073 0.3618
vn -0.9475 0.0060 0.3198
vn -0.9722 0.0043 0.2342
vn -0.9719 0.0043 0.2354
vn -0.9472 0.0060 0.3206
vn -0.8800 0.0090 0.4749
vn -0.6985 0.0138 0.7155
vn -0.8831 0.0089 0.4691
vn 0.8258 0.0112 0.5638
vn 0.9617 0.0056 0.2742
vn 0.9613 0.0056 0.2754
vn 0.8300 0.0111 0.5577
vn 0.5671 0.0162 0.8235
vt 0.117375 0.444464
vt 0.168168 0.449971
vt 0.142846 0.474317
vt 0.115920 0.476841
vt 0.136129 0.283929
vt 0.128549 0.327411
vt 0.031257 0.311981
vt 0.033619 0.267868
vt 0.434906 0.407876
vt 0.431978 0.373298
vt 0.521748 0.365302
vt 0.509274 0.399356
vt 0.118567 0.405685
vt 0.191409 0.420044
vt 0.232964 0.359939
vt 0.210950 0.391525
vt 0.122921 0.367285
vt 0.425085 0.333852
vt 0.527014 0.321702
vt 0.210093 0.083348
vt 0.147740 0.078982
vt 0.183769 0.058657
vt 0.225825 0.047555
vt 0.417154 0.290990
vt 0.526856 0.276981
vt 0.434884 0.445286
vt 0.489096 0.436258
vt 0.433814 0.477528
vt 0.466238 0.465065
vt 0.043367 0.223600
vt 0.147484 0.239469
vt 0.344487 0.076299
vt 0.278286 0.080533
vt 0.279758 0.053014
vt 0.327998 0.039453
vt 0.060069 0.181235
vt 0.160175 0.196686
vt 0.406854 0.241415
vt 0.274197 0.242082
vt 0.274818 0.201873
vt 0.395820 0.198308
vt 0.084256 0.142570
vt 0.176128 0.154496
vt 0.275495 0.156192
vt 0.381271 0.155095
vt 0.115442 0.107913
vt 0.190888 0.119922
vt 0.276000 0.118897
vt 0.362439 0.116053
vt 0.273505 0.282396
vt 0.038601 0.360225
vt 0.051487 0.403941
vt 0.068627 0.437471
vt 0.297977 0.329636
vt 0.269268 0.319047
vt 0.443389 0.099847
vt 0.401864 0.065718
vt 0.480392 0.142838
vt 0.503846 0.183135
vt 0.519885 0.228647
vt 0.384145 0.457298
vt 0.360424 0.426886
vt 0.313728 0.360145
vt 0.335883 0.393617
vt 0.408075 0.475999
vt 0.090601 0.465638
vt 0.363427 0.045550
vt 0.247238 0.330777
vt 0.400405 0.492320
vt 0.370017 0.466193
vt 0.476695 0.481785
vt 0.431577 0.498453
vt 0.507643 0.450030
vt 0.530751 0.409074
vt 0.544969 0.370828
vt 0.551025 0.323000
vt 0.550977 0.275021
vt 0.543402 0.222659
vt 0.525933 0.172728
vt 0.500301 0.128464
vt 0.460554 0.082080
vt 0.415267 0.045082
vt 0.370973 0.022451
vt 0.327098 0.015038
vt 0.277505 0.026286
vt 0.223655 0.023039
vt 0.174737 0.035916
vt 0.133622 0.058952
vt 0.098170 0.090418
vt 0.064684 0.127699
vt 0.038389 0.170104
vt 0.020223 0.216367
vt 0.009835 0.264504
vt 0.007220 0.312915
vt 0.014204 0.361413
vt 0.027861 0.408958
vt 0.049785 0.450325
vt 0.078896 0.482757
vt 0.116158 0.498499
vt 0.148644 0.490370
vt 0.207826 0.426621
vt 0.184029 0.457729
vt 0.343302 0.433548
vt 0.319171 0.399797
vt 0.248459 0.368539
vt 0.227754 0.398353
vt 0.272669 0.346105
vt 0.266077 0.349532
vt 0.296643 0.367871
vt 0.279471 0.349591
vt 0.408108 0.924134
vt 0.404485 0.962170
vt 0.374355 0.953025
vt 0.353224 0.920503
vt 0.410487 0.758138
vt 0.516167 0.750098
vt 0.515171 0.795910
vt 0.413590 0.802199
vt 0.151762 0.887806
vt 0.071853 0.890542
vt 0.054333 0.856698
vt 0.148902 0.852173
vt 0.413004 0.882802
vt 0.335870 0.884894
vt 0.414025 0.842791
vt 0.322398 0.852668
vt 0.309571 0.817804
vt 0.044003 0.812154
vt 0.149681 0.811847
vt 0.343851 0.558383
vt 0.327723 0.520869
vt 0.371000 0.531782
vt 0.407766 0.552849
vt 0.039346 0.766286
vt 0.151951 0.768346
vt 0.158750 0.926895
vt 0.098168 0.926922
vt 0.166241 0.963630
vt 0.127528 0.955179
vt 0.402331 0.713880
vt 0.509079 0.703903
vt 0.210604 0.553180
vt 0.226870 0.513899
vt 0.274670 0.528268
vt 0.276252 0.556636
vt 0.391764 0.671364
vt 0.494247 0.659549
vt 0.157211 0.719042
vt 0.164881 0.676124
vt 0.281223 0.673761
vt 0.282253 0.711164
vt 0.377161 0.629360
vt 0.470984 0.619120
vt 0.176789 0.632826
vt 0.280013 0.630278
vt 0.362964 0.594896
vt 0.440055 0.583084
vt 0.193839 0.593409
vt 0.279020 0.594106
vt 0.283255 0.747539
vt 0.502977 0.845217
vt 0.485172 0.889878
vt 0.463105 0.923970
vt 0.286724 0.779137
vt 0.264575 0.788537
vt 0.110774 0.579732
vt 0.151279 0.543023
vt 0.075519 0.625544
vt 0.054313 0.668273
vt 0.041622 0.716165
vt 0.214206 0.928831
vt 0.230984 0.892686
vt 0.259027 0.818168
vt 0.247467 0.854658
vt 0.194462 0.955339
vt 0.435171 0.952751
vt 0.190026 0.520823
vt 0.304272 0.789348
vt 0.230476 0.934397
vt 0.207389 0.971900
vt 0.173227 0.989210
vt 0.117643 0.977147
vt 0.078518 0.945669
vt 0.048843 0.904706
vt 0.029008 0.866025
vt 0.017369 0.816593
vt 0.012402 0.766997
vt 0.015013 0.712073
vt 0.029070 0.658814
vt 0.052605 0.611285
vt 0.090903 0.561390
vt 0.135467 0.521131
vt 0.180777 0.495401
vt 0.228157 0.486703
vt 0.276785 0.500544
vt 0.329325 0.493828
vt 0.381041 0.506720
vt 0.423762 0.531078
vt 0.459568 0.564383
vt 0.493039 0.603580
vt 0.518813 0.648500
vt 0.535318 0.697546
vt 0.543062 0.748381
vt 0.541864 0.799317
vt 0.530092 0.849413
vt 0.511489 0.898535
vt 0.483843 0.941447
vt 0.447204 0.975068
vt 0.400388 0.989210
vt 0.363695 0.970790
vt 0.335199 0.925080
vt 0.318131 0.888127
vt 0.265043 0.856426
vt 0.249386 0.895511
vt 0.304374 0.855486
vt 0.292827 0.820866
vt 0.288202 0.800008
vt 0.284633 0.796728
vt 0.280678 0.799630
vt 0.276745 0.819528
vt 0.397546 0.498889
vt 0.364855 0.471329
vt 0.480374 0.487520
vt 0.432241 0.505305
vt 0.513292 0.454382
vt 0.537237 0.412235
vt 0.551956 0.372706
vt 0.558299 0.323606
vt 0.558258 0.274643
vt 0.550518 0.221073
vt 0.532645 0.169804
vt 0.506371 0.124326
vt 0.465788 0.076888
vt 0.419413 0.038861
vt 0.373271 0.015482
vt 0.326892 0.007812
vt 0.276861 0.018541
vt 0.222918 0.015762
vt 0.171888 0.029015
vt 0.129284 0.053049
vt 0.092904 0.085281
vt 0.058735 0.123405
vt 0.031795 0.166962
vt 0.013206 0.214404
vt 0.002606 0.263690
vt 0.000000 0.313395
vt 0.007169 0.363067
vt 0.021278 0.411746
vt 0.044064 0.454454
vt 0.075029 0.488275
vt 0.115455 0.505305
vt 0.151684 0.496743
vt 0.213467 0.430931
vt 0.189239 0.462572
vt 0.337693 0.438004
vt 0.313370 0.404122
vt 0.254174 0.373320
vt 0.233494 0.402574
vt 0.272683 0.356110
vt 0.269028 0.357201
vt 0.290871 0.372770
vt 0.276440 0.357307
s 1
f 46/1/1 102/2/2 100/3/3 99/4/4
f 49/5/1 48/6/1 94/7/5 93/8/6
f 59/9/7 56/10/1 75/11/8 74/12/9
f 50/13/1 101/14/10 102/2/2 46/1/1
f 48/6/1 106/15/11 105/16/12 47/17/1
f 56/10/1 57/18/1 76/19/13 75/11/8
f 55/20/1 88/21/14 87/22/15 86/23/16
f 57/18/1 58/24/1 77/25/17 76/19/13
f 47/17/1 105/16/12 101/14/10 50/13/1
f 60/26/18 59/9/7 74/12/9 73/27/19
f 72/28/20 60/26/18 73/27/19 71/29/21
f 49/5/1 93/8/6 92/30/22 51/31/1
f 65/32/1 45/33/1 85/34/23 84/35/24
f 51/31/1 92/30/22 91/36/25 52/37/1
f 61/38/1 41/39/1 42/40/1 62/41/1
f 52/37/1 91/36/25 90/42/26 53/43/1
f 62/41/1 42/40/1 43/44/1 63/45/1
f 53/43/1 90/42/26 89/46/27 54/47/1
f 63/45/1 43/44/1 44/48/1 64/49/1
f 54/47/1 89/46/27 88/21/14 55/20/1
f 64/49/1 44/48/1 45/33/1 65/32/1
f 44/48/1 54/47/1 55/20/1 45/33/1
f 43/44/1 53/43/1 54/47/1 44/48/1
f 42/40/1 52/37/1 53/43/1 43/44/1
f 41/39/1 51/31/1 52/37/1 42/40/1
f 58/24/1 68/50/1 41/39/1 61/38/1
f 95/51/28 47/17/1 50/13/1 96/52/29
f 94/7/5 48/6/1 47/17/1 95/51/28
f 96/52/29 50/13/1 46/1/1 97/53/30
f 68/50/1 58/24/1 109/54/31 108/55/32
f 81/56/33 64/49/1 65/32/1 82/57/34
f 80/58/35 63/45/1 64/49/1 81/56/33
f 79/59/36 62/41/1 63/45/1 80/58/35
f 78/60/37 61/38/1 62/41/1 79/59/36
f 77/25/17 58/24/1 61/38/1 78/60/37
f 70/61/38 103/62/39 59/9/7 60/26/18
f 110/63/40 109/54/31 58/24/1 57/18/1
f 104/64/41 110/63/40 57/18/1 56/10/1
f 103/62/39 104/64/41 56/10/1 59/9/7
f 69/65/42 70/61/38 60/26/18 72/28/20
f 97/53/30 46/1/1 99/4/4 98/66/43
f 45/33/1 55/20/1 86/23/16 85/34/23
f 82/57/34 65/32/1 84/35/24 83/67/44
f 108/55/32 107/68/45 49/5/1 68/50/1
f 49/5/1 107/68/45 106/15/11 48/6/1
f 68/50/1 49/5/1 51/31/1 41/39/1
f 70/61/38 69/65/42 33/69/46 1/70/47
f 72/28/20 71/29/21 3/71/48 2/72/49
f 71/29/21 73/27/19 4/73/50 3/71/48
f 73/27/19 74/12/9 5/74/51 4/73/50
f 74/12/9 75/11/8 6/75/52 5/74/51
f 75/11/8 76/19/13 7/76/53 6/75/52
f 76/19/13 77/25/17 8/77/54 7/76/53
f 77/25/17 78/60/37 9/78/55 8/77/54
f 78/60/37 79/59/36 10/79/56 9/78/55
f 79/59/36 80/58/35 11/80/57 10/79/56
f 80/58/35 81/56/33 12/81/58 11/80/57
f 81/56/33 82/57/34 13/82/59 12/81/58
f 82/57/34 83/67/44 14/83/60 13/82/59
f 83/67/44 84/35/24 15/84/61 14/83/60
f 84/35/24 85/34/23 16/85/62 15/84/61
f 85/34/23 86/23/16 17/86/63 16/85/62
f 86/23/16 87/22/15 18/87/64 17/86/63
f 87/22/15 88/21/14 19/88/65 18/87/64
f 88/21/14 89/46/27 20/89/66 19/88/65
f 89/46/27 90/42/26 21/90/67 20/89/66
f 90/42/26 91/36/25 22/91/68 21/90/67
f 91/36/25 92/30/22 23/92/69 22/91/68
f 92/30/22 93/8/6 24/93/70 23/92/69
f 93/8/6 94/7/5 25/94/71 24/93/70
f 94/7/5 95/51/28 26/95/72 25/94/71
f 95/51/28 96/52/29 27/96/73 26/95/72
f 96/52/29 97/53/30 28/97/74 27/96/73
f 97/53/30 98/66/43 29/98/75 28/97/74
f 98/66/43 99/4/4 30/99/76 29/98/75
f 99/4/4 100/3/3 32/100/77 30/99/76
f 102/2/2 101/14/10 39/101/78 31/102/79
f 100/3/3 102/2/2 31/102/79 32/100/77
f 69/65/42 72/28/20 2/72/49 33/69/46
f 104/64/41 103/62/39 40/103/80 34/104/81
f 105/16/12 106/15/11 36/105/82 35/106/83
f 107/68/45 108/55/32 37/107/84 66/108/85
f 109/54/31 110/63/40 38/109/86 67/110/87
f 110/63/40 104/64/41 34/104/81 38/109/86
f 101/14/10 105/16/12 35/106/83 39/101/78
f 103/62/39 70/61/38 1/70/47 40/103/80
f 106/15/11 107/68/45 66/108/85 36/105/82
f 108/55/32 109/54/31 67/110/87 37/107/84
f 156/111/88 209/112/89 210/113/90 212/114/91
f 159/115/92 203/116/93 204/117/94 158/118/95
f 169/119/96 184/120/97 185/121/98 166/122/99
f 160/123/100 156/111/88 212/114/91 211/124/101
f 158/118/95 157/125/102 215/126/103 216/127/103
f 166/122/99 185/121/98 186/128/104 167/129/105
f 165/130/106 196/131/107 197/132/108 198/133/109
f 167/129/105 186/128/104 187/134/110 168/135/111
f 157/125/102 160/123/100 211/124/101 215/126/103
f 170/136/112 183/137/113 184/120/97 169/119/96
f 182/138/114 181/139/115 183/137/113 170/136/112
f 159/115/92 161/140/116 202/141/117 203/116/93
f 175/142/118 194/143/119 195/144/120 155/145/121
f 161/140/116 162/146/122 201/147/123 202/141/117
f 171/148/111 172/149/124 152/150/103 151/151/103
f 162/146/122 163/152/125 200/153/126 201/147/123
f 172/149/124 173/154/127 153/155/103 152/150/103
f 163/152/125 164/156/128 199/157/129 200/153/126
f 173/154/127 174/158/130 154/159/103 153/155/103
f 164/156/128 165/130/106 198/133/109 199/157/129
f 174/158/130 175/142/118 155/145/121 154/159/103
f 154/159/103 155/145/121 165/130/106 164/156/128
f 153/155/103 154/159/103 164/156/128 163/152/125
f 152/150/103 153/155/103 163/152/125 162/146/122
f 151/151/103 152/150/103 162/146/122 161/140/116
f 168/135/111 171/148/111 151/151/103 178/160/103
f 205/161/131 206/162/132 160/123/100 157/125/102
f 204/117/94 205/161/131 157/125/102 158/118/95
f 206/162/132 207/163/133 156/111/88 160/123/100
f 178/160/103 218/164/103 219/165/103 168/135/111
f 191/166/134 192/167/135 175/142/118 174/158/130
f 190/168/136 191/166/134 174/158/130 173/154/127
f 189/169/137 190/168/136 173/154/127 172/149/124
f 188/170/138 189/169/137 172/149/124 171/148/111
f 187/134/110 188/170/138 171/148/111 168/135/111
f 180/171/139 170/136/112 169/119/96 213/172/140
f 220/173/103 167/129/105 168/135/111 219/165/103
f 214/174/103 166/122/99 167/129/105 220/173/103
f 213/172/140 169/119/96 166/122/99 214/174/103
f 179/175/141 182/138/114 170/136/112 180/171/139
f 207/163/133 208/176/142 209/112/89 156/111/88
f 155/145/121 195/144/120 196/131/107 165/130/106
f 192/167/135 193/177/143 194/143/119 175/142/118
f 218/164/103 178/160/103 159/115/92 217/178/103
f 159/115/92 158/118/95 216/127/103 217/178/103
f 178/160/103 151/151/103 161/140/116 159/115/92
f 180/171/139 111/179/144 143/180/145 179/175/141
f 182/138/114 112/181/146 113/182/147 181/139/115
f 181/139/115 113/182/147 114/183/148 183/137/113
f 183/137/113 114/183/148 115/184/149 184/120/97
f 184/120/97 115/184/149 116/185/150 185/121/98
f 185/121/98 116/185/150 117/186/151 186/128/104
f 186/128/104 117/186/151 118/187/152 187/134/110
f 187/134/110 118/187/152 119/188/153 188/170/138
f 188/170/138 119/188/153 120/189/154 189/169/137
f 189/169/137 120/189/154 121/190/155 190/168/136
f 190/168/136 121/190/155 122/191/156 191/166/134
f 191/166/134 122/191/156 123/192/157 192/167/135
f 192/167/135 123/192/157 124/193/158 193/177/143
f 193/177/143 124/193/158 125/194/159 194/143/119
f 194/143/119 125/194/159 126/195/160 195/144/120
f 195/144/120 126/195/160 127/196/161 196/131/107
f 196/131/107 127/196/161 128/197/162 197/132/108
f 197/132/108 128/197/162 129/198/163 198/133/109
f 198/133/109 129/198/163 130/199/164 199/157/129
f 199/157/129 130/199/164 131/200/165 200/153/126
f 200/153/126 131/200/165 132/201/166 201/147/123
f 201/147/123 132/201/166 133/202/167 202/141/117
f 202/141/117 133/202/167 134/203/168 203/116/93
f 203/116/93 134/203/168 135/204/169 204/117/94
f 204/117/94 135/204/169 136/205/170 205/161/131
f 205/161/131 136/205/170 137/206/171 206/162/132
f 206/162/132 137/206/171 138/207/172 207/163/133
f 207/163/133 138/207/172 139/208/173 208/176/142
f 208/176/142 139/208/173 140/209/174 209/112/89
f 209/112/89 140/209/174 142/210/175 210/113/90
f 212/114/91 141/211/176 149/212/101 211/124/101
f 210/113/90 142/210/175 141/211/176 212/114/91
f 179/175/141 143/180/145 112/181/146 182/138/114
f 214/174/103 144/213/103 150/214/101 213/172/140
f 215/126/103 145/215/103 146/216/103 216/127/103
f 217/178/103 176/217/103 147/218/103 218/164/103
f 219/165/103 177/219/103 148/220/103 220/173/103
f 220/173/103 148/220/103 144/213/103 214/174/103
f 211/124/101 149/212/101 145/215/103 215/126/103
f 213/172/140 150/214/101 111/179/144 180/171/139
f 216/127/103 146/216/103 176/217/103 217/178/103
f 218/164/103 147/218/103 177/219/103 219/165/103
f 1/70/177 33/69/178 143/221/179 111/222/180
f 2/72/181 3/71/182 113/223/183 112/224/184
f 3/71/182 4/73/185 114/225/186 113/223/183
f 4/73/185 5/74/187 115/226/188 114/225/186
f 5/74/187 6/75/189 116/227/190 115/226/188
f 6/75/189 7/76/191 117/228/192 116/227/190
f 7/76/191 8/77/193 118/229/194 117/228/192
f 8/77/193 9/78/195 119/230/196 118/229/194
f 9/78/195 10/79/197 120/231/198 119/230/196
f 10/79/197 11/80/199 121/232/200 120/231/198
f 11/80/199 12/81/201 122/233/202 121/232/200
f 12/81/201 13/82/203 123/234/204 122/233/202
f 13/82/203 14/83/205 124/235/206 123/234/204
f 14/83/205 15/84/207 125/236/208 124/235/206
f 15/84/207 16/85/209 126/237/210 125/236/208
f 16/85/209 17/86/211 127/238/212 126/237/210
f 17/86/211 18/87/213 128/239/214 127/238/212
f 18/87/213 19/88/215 129/240/216 128/239/214
f 19/88/215 20/89/217 130/241/218 129/240/216
f 20/89/217 21/90/219 131/242/220 130/241/218
f 21/90/219 22/91/221 132/243/222 131/242/220
f 22/91/221 23/92/223 133/244/224 132/243/222
f 23/92/223 24/93/225 134/245/226 133/244/224
f 24/93/225 25/94/227 135/246/228 134/245/226
f 25/94/227 26/95/229 136/247/230 135/246/228
f 26/95/229 27/96/231 137/248/232 136/247/230
f 27/96/231 28/97/233 138/249/234 137/248/232
f 28/97/233 29/98/235 139/250/236 138/249/234
f 29/98/235 30/99/237 140/251/238 139/250/236
f 30/99/237 32/100/239 142/252/240 140/251/238
f 31/102/241 39/101/242 149/253/243 141/254/244
f 32/100/239 31/102/241 141/254/244 142/252/240
f 33/69/178 2/72/181 112/224/184 143/221/179
f 34/104/245 40/103/246 150/255/247 144/256/248
f 35/106/249 36/105/250 146/257/251 145/258/252
f 66/108/253 37/107/254 147/259/254 176/260/255
f 67/110/256 38/109/257 148/261/258 177/262/259
f 38/109/257 34/104/245 144/256/248 148/261/258
f 39/101/242 35/106/249 145/258/252 149/253/243
f 40/103/246 1/70/177 111/222/180 150/255/247
f 36/105/250 66/108/253 176/260/255 146/257/251
f 37/107/260 67/110/256 177/262/259 147/259/260
