# Blender 4.0.2
# www.blender.org
o forked_tongue
v 0.000000 0.000000 0.001166
v 0.001339 0.000000 0.002020
v 0.002905 0.000000 0.002332
v 0.004071 -0.000000 0.002020
v 0.004925 -0.000000 0.001166
v 0.004925 -0.000000 -0.001166
v 0.004071 -0.000000 -0.002020
v 0.002905 0.000000 -0.002332
v 0.001339 0.000000 -0.002020
v 0.000000 0.000000 -0.001166
v 0.000000 0.014949 0.001166
v 0.001339 0.014946 0.002020
v 0.002905 0.014943 0.002332
v 0.004071 0.014940 0.002020
v 0.004925 0.014937 0.001166
v 0.005238 0.014936 0.000000
v 0.004925 0.014937 -0.001166
v 0.004072 0.014940 -0.002020
v 0.002905 0.014943 -0.002332
v 0.001339 0.014946 -0.002020
v 0.000000 0.014948 -0.001166
v 0.000000 0.029884 0.001118
v 0.001454 0.029885 0.001936
v 0.002988 0.029886 0.002236
v 0.004106 0.029886 0.001936
v 0.004925 0.029887 0.001118
v 0.005224 0.029887 0.000000
v 0.004925 0.029887 -0.001118
v 0.004106 0.029886 -0.001936
v 0.002989 0.029886 -0.002236
v 0.001454 0.029885 -0.001936
v 0.000000 0.029884 -0.001118
v 0.000000 0.044821 0.001065
v 0.001445 0.044824 0.001845
v 0.002886 0.044829 0.002130
v 0.003951 0.044833 0.001845
v 0.004731 0.044836 0.001065
v 0.005016 0.044838 0.000000
v 0.004731 0.044836 -0.001065
v 0.003951 0.044833 -0.001845
v 0.002886 0.044829 -0.002130
v 0.001446 0.044824 -0.001845
v 0.000000 0.044821 -0.001065
v 0.000000 0.060170 0.001065
v 0.001385 0.060074 0.001845
v 0.002860 0.059771 0.002130
v 0.003924 0.059718 0.001845
v 0.004703 0.059678 0.001065
v 0.004988 0.059664 0.000000
v 0.004703 0.059678 -0.001065
v 0.003924 0.059718 -0.001845
v 0.002860 0.059771 -0.002130
v 0.001385 0.060074 -0.001845
v 0.000000 0.060170 -0.001065
v 0.001013 0.066783 0.001056
v 0.002098 0.066635 0.001829
v 0.003385 0.066501 0.002112
v 0.004430 0.066366 0.001829
v 0.005195 0.066268 0.001056
v 0.005475 0.066232 0.000000
v 0.005195 0.066268 -0.001056
v 0.004430 0.066366 -0.001829
v 0.003385 0.066501 -0.002112
v 0.002098 0.066635 -0.001829
v 0.001014 0.066783 -0.001056
v 0.000882 0.067154 -0.000000
v 0.003975 0.077669 0.000873
v 0.004646 0.077527 0.001513
v 0.005535 0.077344 0.001747
v 0.006388 0.077161 0.001513
v 0.007013 0.077027 0.000873
v 0.007241 0.076977 0.000000
v 0.007013 0.077027 -0.000873
v 0.006388 0.077161 -0.001513
v 0.005535 0.077344 -0.001747
v 0.004646 0.077527 -0.001513
v 0.003975 0.077669 -0.000873
v 0.003768 0.077768 -0.000000
v 0.007668 0.088938 0.000501
v 0.008022 0.088842 0.000868
v 0.008506 0.088712 0.001002
v 0.008989 0.088582 0.000868
v 0.009343 0.088486 0.000501
v 0.009473 0.088451 0.000000
v 0.009343 0.088486 -0.000501
v 0.008989 0.088582 -0.000868
v 0.008506 0.088712 -0.001002
v 0.008022 0.088842 -0.000868
v 0.007668 0.088938 -0.000501
v 0.007538 0.088973 -0.000000
v 0.012731 0.100038 -0.000131
v 0.012800 0.100008 -0.000151
v 0.012869 0.099977 -0.000131
v 0.012920 0.099954 -0.000076
v 0.000000 0.063950 0.001072
v 0.000000 0.065033 -0.000000
v 0.001469 0.063252 0.001857
v 0.002925 0.063011 0.002145
v 0.003992 0.062674 0.001857
v 0.004773 0.062607 0.001072
v 0.005059 0.062582 0.000000
v 0.004773 0.062607 -0.001072
v 0.003992 0.062674 -0.001857
v 0.002925 0.063011 -0.002145
v 0.001469 0.063252 -0.001857
v 0.000000 0.063950 -0.001072
v 0.012938 0.099946 0.000000
v 0.012920 0.099954 0.000076
v 0.012869 0.099977 0.000131
v 0.012800 0.100008 0.000151
v 0.012731 0.100038 0.000131
v 0.012681 0.100061 0.000076
v 0.000000 0.000000 -0.000000
v 0.001339 0.000000 -0.000000
v 0.002905 0.000000 -0.000000
v 0.004071 -0.000000 0.000000
v 0.005237 -0.000000 0.000000
v 0.012662 0.100069 0.000000
v 0.012681 0.100061 -0.000076
v 0.012579 0.099996 -0.000114
v 0.012551 0.100008 0.000000
v 0.012655 0.099962 -0.000197
v 0.012759 0.099915 -0.000227
v 0.012862 0.099869 -0.000197
v 0.012938 0.099834 -0.000114
v 0.012966 0.099822 0.000000
v 0.012938 0.099834 0.000114
v 0.012862 0.099869 0.000197
v 0.012759 0.099915 0.000227
v 0.012655 0.099962 0.000197
v 0.012579 0.099996 0.000114
v 0.012815 0.100040 0.000000
v 0.012811 0.100032 -0.000076
v 0.012811 0.100032 0.000076
v -0.001339 0.000000 0.002020
v -0.002905 0.000000 0.002332
v -0.004071 -0.000000 0.002020
v -0.004925 -0.000000 0.001166
v -0.004925 -0.000000 -0.001166
v -0.004071 -0.000000 -0.002020
v -0.002905 0.000000 -0.002332
v -0.001339 0.000000 -0.002020
v -0.001339 0.014946 0.002020
v -0.002905 0.014943 0.002332
v -0.004071 0.014940 0.002020
v -0.004925 0.014937 0.001166
v -0.005238 0.014936 0.000000
v -0.004925 0.014937 -0.001166
v -0.004072 0.014940 -0.002020
v -0.002905 0.014943 -0.002332
v -0.001339 0.014946 -0.002020
v -0.001454 0.029885 0.001936
v -0.002988 0.029886 0.002236
v -0.004106 0.029886 0.001936
v -0.004925 0.029887 0.001118
v -0.005224 0.029887 0.000000
v -0.004925 0.029887 -0.001118
v -0.004106 0.029886 -0.001936
v -0.002989 0.029886 -0.002236
v -0.001454 0.029885 -0.001936
v -0.001445 0.044824 0.001845
v -0.002886 0.044829 0.002130
v -0.003951 0.044833 0.001845
v -0.004731 0.044836 0.001065
v -0.005016 0.044838 0.000000
v -0.004731 0.044836 -0.001065
v -0.003951 0.044833 -0.001845
v -0.002886 0.044829 -0.002130
v -0.001446 0.044824 -0.001845
v -0.001385 0.060074 0.001845
v -0.002860 0.059771 0.002130
v -0.003924 0.059718 0.001845
v -0.004703 0.059678 0.001065
v -0.004988 0.059664 0.000000
v -0.004703 0.059678 -0.001065
v -0.003924 0.059718 -0.001845
v -0.002860 0.059771 -0.002130
v -0.001385 0.060074 -0.001845
v -0.001013 0.066783 0.001056
v -0.002098 0.066635 0.001829
v -0.003385 0.066501 0.002112
v -0.004430 0.066366 0.001829
v -0.005195 0.066268 0.001056
v -0.005475 0.066232 0.000000
v -0.005195 0.066268 -0.001056
v -0.004430 0.066366 -0.001829
v -0.003385 0.066501 -0.002112
v -0.002098 0.066635 -0.001829
v -0.001014 0.066783 -0.001056
v -0.000882 0.067154 -0.000000
v -0.003975 0.077669 0.000873
v -0.004646 0.077527 0.001513
v -0.005535 0.077344 0.001747
v -0.006388 0.077161 0.001513
v -0.007013 0.077027 0.000873
v -0.007241 0.076977 0.000000
v -0.007013 0.077027 -0.000873
v -0.006388 0.077161 -0.001513
v -0.005535 0.077344 -0.001747
v -0.004646 0.077527 -0.001513
v -0.003975 0.077669 -0.000873
v -0.003768 0.077768 -0.000000
v -0.007668 0.088938 0.000501
v -0.008022 0.088842 0.000868
v -0.008506 0.088712 0.001002
v -0.008989 0.088582 0.000868
v -0.009343 0.088486 0.000501
v -0.009473 0.088451 0.000000
v -0.009343 0.088486 -0.000501
v -0.008989 0.088582 -0.000868
v -0.008506 0.088712 -0.001002
v -0.008022 0.088842 -0.000868
v -0.007668 0.088938 -0.000501
v -0.007538 0.088973 -0.000000
v -0.012731 0.100038 -0.000131
v -0.012800 0.100008 -0.000151
v -0.012869 0.099977 -0.000131
v -0.012920 0.099954 -0.000076
v -0.001469 0.063252 0.001857
v -0.002925 0.063011 0.002145
v -0.003992 0.062674 0.001857
v -0.004773 0.062607 0.001072
v -0.005059 0.062582 0.000000
v -0.004773 0.062607 -0.001072
v -0.003992 0.062674 -0.001857
v -0.002925 0.063011 -0.002145
v -0.001469 0.063252 -0.001857
v -0.012938 0.099946 0.000000
v -0.012920 0.099954 0.000076
v -0.012869 0.099977 0.000131
v -0.012800 0.100008 0.000151
v -0.012731 0.100038 0.000131
v -0.012681 0.100061 0.000076
v -0.001339 0.000000 -0.000000
v -0.002905 0.000000 -0.000000
v -0.004071 -0.000000 0.000000
v -0.005237 -0.000000 0.000000
v -0.012662 0.100069 0.000000
v -0.012681 0.100061 -0.000076
v -0.012579 0.099996 -0.000114
v -0.012551 0.100008 0.000000
v -0.012655 0.099962 -0.000197
v -0.012759 0.099915 -0.000227
v -0.012862 0.099869 -0.000197
v -0.012938 0.099834 -0.000114
v -0.012966 0.099822 0.000000
v -0.012938 0.099834 0.000114
v -0.012862 0.099869 0.000197
v -0.012759 0.099915 0.000227
v -0.012655 0.099962 0.000197
v -0.012579 0.099996 0.000114
v -0.012815 0.100040 0.000000
v -0.012811 0.100032 -0.000076
v -0.012811 0.100032 0.000076
vn -0.3730 -0.0000 0.9278
vn -0.3662 0.0033 0.9305
vn -0.5256 0.0029 0.8507
vn -0.5375 -0.0000 0.8432
vn 0.0324 -0.0000 0.9995
vn 0.0325 0.0031 0.9995
vn 0.5000 -0.0000 0.8660
vn 0.4996 0.0018 0.8662
vn 0.8660 -0.0000 0.5000
vn 0.8659 0.0008 0.5002
vn 1.0000 -0.0000 -0.0000
vn 1.0000 0.0004 -0.0000
vn 0.8660 -0.0000 -0.5000
vn 0.8659 0.0008 -0.5002
vn 0.5000 -0.0000 -0.8660
vn 0.4997 0.0018 -0.8662
vn 0.0324 -0.0000 -0.9995
vn 0.0325 0.0031 -0.9995
vn -0.3730 -0.0000 -0.9278
vn -0.3662 0.0033 -0.9305
vn -0.5375 -0.0000 -0.8433
vn -0.5256 0.0029 -0.8507
vn -0.3500 0.0058 0.9367
vn -0.4982 0.0049 0.8670
vn 0.0345 0.0067 0.9994
vn 0.5007 0.0071 0.8656
vn 0.8662 0.0073 0.4996
vn 1.0000 0.0074 -0.0000
vn 0.8663 0.0073 -0.4995
vn 0.5008 0.0071 -0.8656
vn 0.0345 0.0067 -0.9994
vn -0.3500 0.0058 -0.9367
vn -0.4982 0.0049 -0.8670
vn -0.3417 0.0021 0.9398
vn -0.4827 0.0016 0.8758
vn 0.0337 0.0036 0.9994
vn 0.4998 0.0057 0.8661
vn 0.8660 0.0073 0.5001
vn 1.0000 0.0079 -0.0000
vn 0.8660 0.0073 -0.5000
vn 0.4998 0.0057 -0.8661
vn 0.0337 0.0036 -0.9994
vn -0.3417 0.0021 -0.9398
vn -0.4827 0.0016 -0.8758
vn -0.3421 0.0006 0.9397
vn -0.4813 0.0013 0.8765
vn 0.0326 -0.0025 0.9995
vn 0.4987 -0.0070 0.8668
vn 0.8657 -0.0101 0.5004
vn 0.9999 -0.0112 -0.0000
vn 0.8657 -0.0101 -0.5004
vn 0.4987 -0.0070 -0.8668
vn 0.0326 -0.0025 -0.9995
vn -0.3421 0.0006 -0.9397
vn -0.4813 0.0013 -0.8765
vn -0.6080 0.1475 0.7801
vn -0.7716 0.2438 0.5876
vn -0.9530 0.3030 -0.0000
vn -0.9336 0.3583 -0.0000
vn -0.3494 0.0401 0.9361
vn -0.3854 0.1078 0.9164
vn 0.0238 0.0014 0.9997
vn 0.0200 0.0206 0.9996
vn 0.4921 -0.0328 0.8699
vn 0.4923 -0.0579 0.8685
vn 0.8620 -0.0594 0.5034
vn 0.8570 -0.1163 0.5020
vn 0.9976 -0.0688 -0.0000
vn 0.9905 -0.1378 -0.0000
vn 0.8620 -0.0594 -0.5034
vn 0.8570 -0.1163 -0.5020
vn 0.4921 -0.0328 -0.8699
vn 0.4923 -0.0579 -0.8685
vn 0.0238 0.0014 -0.9997
vn 0.0201 0.0206 -0.9996
vn -0.3494 0.0401 -0.9361
vn -0.3854 0.1078 -0.9164
vn -0.6080 0.1475 -0.7801
vn -0.7716 0.2438 -0.5876
vn -0.8159 0.2542 0.5193
vn -0.9563 0.2924 -0.0000
vn -0.4408 0.1569 0.8838
vn 0.0144 0.0468 0.9988
vn 0.4939 -0.0639 0.8672
vn 0.8528 -0.1463 0.5014
vn 0.9843 -0.1765 -0.0000
vn 0.8528 -0.1463 -0.5013
vn 0.4939 -0.0639 -0.8672
vn 0.0144 0.0468 -0.9988
vn -0.4408 0.1569 -0.8838
vn -0.8159 0.2542 -0.5194
vn -0.8038 0.3254 0.4980
vn -0.9306 0.3659 -0.0000
vn -0.4581 0.2142 0.8627
vn 0.0099 0.0645 0.9979
vn 0.4869 -0.0878 0.8690
vn 0.8403 -0.2009 0.5036
vn 0.9702 -0.2425 -0.0000
vn 0.8403 -0.2009 -0.5036
vn 0.4870 -0.0878 -0.8690
vn 0.0099 0.0644 -0.9979
vn -0.4581 0.2142 -0.8627
vn -0.8038 0.3254 -0.4980
vn -0.1949 0.9808 -0.0000
vn -0.1282 0.9444 0.3029
vn 0.4036 0.8988 0.1712
vn 0.4096 0.9123 -0.0000
vn -0.3096 0.4869 0.8168
vn -0.6285 0.6188 0.4712
vn 0.8822 -0.0054 -0.4709
vn 0.9986 -0.0535 -0.0000
vn 0.8822 -0.0054 0.4709
vn 0.5634 0.1262 0.8165
vn -0.3095 0.4869 -0.8168
vn 0.1270 0.3064 -0.9434
vn 0.1269 0.3064 0.9434
vn -0.7451 0.6670 -0.0000
vn -0.6285 0.6188 -0.4712
vn 0.5634 0.1262 -0.8165
vn -0.0000 -1.0000 -0.0000
vn -0.1282 0.9444 -0.3029
vn 0.0473 0.8484 -0.5272
vn 0.3290 0.7328 -0.5956
vn 0.6027 0.5991 -0.5272
vn 0.7909 0.5317 -0.3029
vn 0.8625 0.5060 -0.0000
vn 0.7909 0.5317 0.3029
vn 0.6026 0.5991 0.5272
vn 0.3290 0.7328 0.5956
vn 0.0473 0.8484 0.5272
vn 0.4036 0.8988 -0.1712
vn 0.3730 -0.0000 0.9278
vn 0.5375 -0.0000 0.8432
vn 0.5256 0.0029 0.8507
vn 0.3662 0.0033 0.9305
vn -0.0324 -0.0000 0.9995
vn -0.0325 0.0031 0.9995
vn -0.5000 -0.0000 0.8660
vn -0.4996 0.0018 0.8662
vn -0.8660 -0.0000 0.5000
vn -0.8659 0.0008 0.5002
vn -1.0000 -0.0000 -0.0000
vn -1.0000 0.0004 -0.0000
vn -0.8660 -0.0000 -0.5000
vn -0.8659 0.0008 -0.5002
vn -0.5000 -0.0000 -0.8660
vn -0.4997 0.0018 -0.8662
vn -0.0324 -0.0000 -0.9995
vn -0.0325 0.0031 -0.9995
vn 0.3730 -0.0000 -0.9278
vn 0.3662 0.0033 -0.9305
vn 0.5375 -0.0000 -0.8433
vn 0.5256 0.0029 -0.8507
vn 0.4982 0.0049 0.8670
vn 0.3500 0.0058 0.9367
vn -0.0345 0.0067 0.9994
vn -0.5007 0.0071 0.8656
vn -0.8662 0.0073 0.4996
vn -1.0000 0.0074 -0.0000
vn -0.8663 0.0073 -0.4995
vn -0.5008 0.0071 -0.8656
vn -0.0345 0.0067 -0.9994
vn 0.3500 0.0058 -0.9367
vn 0.4982 0.0049 -0.8670
vn 0.4827 0.0016 0.8758
vn 0.3417 0.0021 0.9398
vn -0.0337 0.0036 0.9994
vn -0.4998 0.0057 0.8661
vn -0.8660 0.0073 0.5001
vn -1.0000 0.0079 -0.0000
vn -0.8660 0.0073 -0.5000
vn -0.4998 0.0057 -0.8661
vn -0.0337 0.0036 -0.9994
vn 0.3417 0.0021 -0.9398
vn 0.4827 0.0016 -0.8758
vn 0.4813 0.0013 0.8765
vn 0.3421 0.0006 0.9397
vn -0.0326 -0.0025 0.9995
vn -0.4987 -0.0070 0.8668
vn -0.8657 -0.0101 0.5004
vn -0.9999 -0.0112 -0.0000
vn -0.8657 -0.0101 -0.5004
vn -0.4987 -0.0070 -0.8668
vn -0.0326 -0.0025 -0.9995
vn 0.3421 0.0006 -0.9397
vn 0.4813 0.0013 -0.8765
vn 0.6080 0.1475 0.7801
vn 0.9336 0.3583 -0.0000
vn 0.9530 0.3030 -0.0000
vn 0.7716 0.2438 0.5876
vn 0.3494 0.0401 0.9361
vn 0.3854 0.1078 0.9164
vn -0.0238 0.0014 0.9997
vn -0.0200 0.0206 0.9996
vn -0.4921 -0.0328 0.8699
vn -0.4923 -0.0579 0.8685
vn -0.8620 -0.0594 0.5034
vn -0.8570 -0.1163 0.5020
vn -0.9976 -0.0688 -0.0000
vn -0.9905 -0.1378 -0.0000
vn -0.8620 -0.0594 -0.5034
vn -0.8570 -0.1163 -0.5020
vn -0.4921 -0.0328 -0.8699
vn -0.4923 -0.0579 -0.8685
vn -0.0238 0.0014 -0.9997
vn -0.0201 0.0206 -0.9996
vn 0.3494 0.0401 -0.9361
vn 0.3854 0.1078 -0.9164
vn 0.6080 0.1475 -0.7801
vn 0.7716 0.2438 -0.5876
vn 0.9563 0.2924 -0.0000
vn 0.8159 0.2542 0.5193
vn 0.4408 0.1569 0.8838
vn -0.0144 0.0468 0.9988
vn -0.4939 -0.0639 0.8672
vn -0.8528 -0.1463 0.5014
vn -0.9843 -0.1765 -0.0000
vn -0.8528 -0.1463 -0.5013
vn -0.4939 -0.0639 -0.8672
vn -0.0144 0.0468 -0.9988
vn 0.4408 0.1569 -0.8838
vn 0.8159 0.2542 -0.5194
vn 0.9306 0.3659 -0.0000
vn 0.8038 0.3254 0.4980
vn 0.4581 0.2142 0.8627
vn -0.0099 0.0645 0.9979
vn -0.4869 -0.0878 0.8690
vn -0.8403 -0.2009 0.5036
vn -0.9702 -0.2425 -0.0000
vn -0.8403 -0.2009 -0.5036
vn -0.4870 -0.0878 -0.8690
vn -0.0099 0.0644 -0.9979
vn 0.4581 0.2142 -0.8627
vn 0.8038 0.3254 -0.4980
vn 0.1950 0.9808 -0.0000
vn -0.4096 0.9123 -0.0000
vn -0.4036 0.8988 0.1712
vn 0.1282 0.9444 0.3029
vn 0.6285 0.6188 0.4712
vn 0.3096 0.4869 0.8168
vn -0.9986 -0.0535 -0.0000
vn -0.8822 -0.0054 -0.4709
vn -0.5634 0.1262 0.8165
vn -0.8822 -0.0054 0.4709
vn -0.1270 0.3064 -0.9434
vn 0.3095 0.4869 -0.8168
vn -0.1270 0.3064 0.9434
vn 0.6285 0.6188 -0.4712
vn 0.7451 0.6670 -0.0000
vn -0.5634 0.1262 -0.8165
vn 0.1282 0.9444 -0.3029
vn -0.0473 0.8484 -0.5272
vn -0.3290 0.7328 -0.5956
vn -0.6026 0.5991 -0.5272
vn -0.7909 0.5317 -0.3029
vn -0.8625 0.5060 -0.0000
vn -0.7909 0.5317 0.3029
vn -0.6026 0.5991 0.5272
vn -0.3290 0.7328 0.5956
vn -0.0473 0.8484 0.5272
vn -0.4036 0.8988 -0.1712
vt 0.994472 0.213878
vt 0.842887 0.213848
vt 0.842849 0.197754
vt 0.994474 0.197755
vt 0.994467 0.230093
vt 0.842910 0.230033
vt 0.994462 0.242347
vt 0.842918 0.242272
vt 0.994456 0.254600
vt 0.842904 0.254518
vt 0.994450 0.266851
vt 0.842870 0.266772
vt 0.994491 0.534936
vt 0.842936 0.535016
vt 0.842901 0.522762
vt 0.994485 0.522685
vt 0.994497 0.547189
vt 0.842949 0.547262
vt 0.994502 0.559443
vt 0.842941 0.559502
vt 0.994507 0.575659
vt 0.842918 0.575687
vt 0.994508 0.591783
vt 0.842880 0.591782
vt 0.691438 0.214677
vt 0.691413 0.197752
vt 0.691429 0.230537
vt 0.691387 0.242273
vt 0.691306 0.254007
vt 0.691184 0.265748
vt 0.691335 0.535525
vt 0.691213 0.523784
vt 0.691416 0.547259
vt 0.691458 0.558996
vt 0.691467 0.574856
vt 0.691442 0.591782
vt 0.539520 0.214489
vt 0.539524 0.197750
vt 0.539510 0.229444
vt 0.539482 0.240673
vt 0.539439 0.251890
vt 0.539378 0.263103
vt 0.539464 0.537641
vt 0.539404 0.526428
vt 0.539508 0.548857
vt 0.539535 0.560086
vt 0.539545 0.575042
vt 0.539549 0.591782
vt 0.382231 0.214542
vt 0.380848 0.197749
vt 0.386012 0.230179
vt 0.387076 0.241533
vt 0.388043 0.252741
vt 0.388770 0.263818
vt 0.388065 0.536788
vt 0.388791 0.525710
vt 0.387098 0.547996
vt 0.386033 0.559350
vt 0.382252 0.574987
vt 0.380869 0.591781
vt 0.336459 0.197748
vt 0.307542 0.218251
vt 0.299187 0.210619
vt 0.317213 0.197748
vt 0.347402 0.217069
vt 0.312480 0.230471
vt 0.351798 0.233060
vt 0.316298 0.243433
vt 0.356525 0.244362
vt 0.319458 0.253996
vt 0.358538 0.255589
vt 0.322440 0.264513
vt 0.360380 0.266443
vt 0.325392 0.274931
vt 0.358559 0.533939
vt 0.322460 0.525015
vt 0.325412 0.514597
vt 0.360401 0.523085
vt 0.356546 0.545166
vt 0.319478 0.535532
vt 0.351819 0.556469
vt 0.316317 0.546095
vt 0.347422 0.572460
vt 0.312500 0.559057
vt 0.336479 0.591781
vt 0.307561 0.571278
vt 0.207234 0.267280
vt 0.202685 0.259629
vt 0.211071 0.275698
vt 0.214595 0.284222
vt 0.217840 0.292473
vt 0.220898 0.300781
vt 0.223801 0.309155
vt 0.220916 0.488745
vt 0.223818 0.480370
vt 0.217857 0.497053
vt 0.214612 0.505304
vt 0.211088 0.513828
vt 0.207251 0.522246
vt 0.299206 0.578910
vt 0.202701 0.529898
vt 0.104433 0.322336
vt 0.101944 0.318003
vt 0.106755 0.326926
vt 0.108884 0.331610
vt 0.110873 0.336352
vt 0.112776 0.341119
vt 0.114626 0.345894
vt 0.112787 0.448403
vt 0.114640 0.443628
vt 0.110883 0.453170
vt 0.108894 0.457912
vt 0.106766 0.462597
vt 0.104444 0.467189
vt 0.101956 0.471522
vt 0.005035 0.383534
vt 0.006774 0.383916
vt 0.007573 0.386345
vt 0.006033 0.387258
vt 0.009414 0.383179
vt 0.007884 0.381826
vt 0.011619 0.401430
vt 0.011638 0.399110
vt 0.317232 0.591781
vt 0.011626 0.388240
vt 0.011225 0.386287
vt 0.009394 0.406406
vt 0.010464 0.404953
vt 0.010495 0.384637
vt 0.005938 0.409016
vt 0.007871 0.407753
vt 0.011179 0.403306
vt 0.011740 0.390443
vt 0.005951 0.380558
vt 0.416248 0.053463
vt 0.416248 0.065301
vt 0.402654 0.073966
vt 0.402655 0.053463
vt 0.386756 0.053463
vt 0.386755 0.077138
vt 0.374918 0.053463
vt 0.374918 0.073966
vt 0.363081 0.053463
vt 0.366252 0.065300
vt 0.366253 0.041625
vt 0.374918 0.032960
vt 0.386756 0.029788
vt 0.402655 0.032960
vt 0.416248 0.041626
vt 0.005041 0.406043
vt 0.006773 0.405671
vt 0.008002 0.404978
vt 0.008812 0.404002
vt 0.009264 0.402834
vt 0.009291 0.401430
vt 0.008821 0.399878
vt 0.008810 0.389845
vt 0.009303 0.388189
vt 0.009289 0.386795
vt 0.008827 0.385607
vt 0.008010 0.384618
vt 0.007575 0.403268
vt 0.006065 0.402357
vt 0.994473 0.181632
vt 0.842887 0.181659
vt 0.994468 0.165417
vt 0.842911 0.165474
vt 0.994463 0.153163
vt 0.842918 0.153235
vt 0.994458 0.140910
vt 0.842905 0.140989
vt 0.994451 0.128659
vt 0.842871 0.128735
vt 0.994491 0.648629
vt 0.994485 0.660881
vt 0.842901 0.660802
vt 0.842936 0.648548
vt 0.994497 0.636376
vt 0.842949 0.636302
vt 0.994502 0.624122
vt 0.842941 0.624063
vt 0.994506 0.607907
vt 0.842918 0.607877
vt 0.691438 0.180827
vt 0.691430 0.164967
vt 0.691388 0.153230
vt 0.691307 0.141496
vt 0.691185 0.129756
vt 0.691213 0.659780
vt 0.691334 0.648039
vt 0.691416 0.636305
vt 0.691458 0.624568
vt 0.691467 0.608708
vt 0.539520 0.181012
vt 0.539510 0.166056
vt 0.539483 0.154828
vt 0.539440 0.143611
vt 0.539379 0.132398
vt 0.539403 0.657136
vt 0.539464 0.645923
vt 0.539507 0.634706
vt 0.539535 0.623477
vt 0.539545 0.608521
vt 0.382231 0.180955
vt 0.386012 0.165319
vt 0.387077 0.153965
vt 0.388045 0.142757
vt 0.388771 0.131680
vt 0.388791 0.657852
vt 0.388065 0.646775
vt 0.387098 0.635567
vt 0.386033 0.624213
vt 0.382252 0.608576
vt 0.299187 0.184877
vt 0.307542 0.177245
vt 0.347402 0.178427
vt 0.312481 0.165025
vt 0.351799 0.162437
vt 0.316299 0.152063
vt 0.356527 0.151135
vt 0.319459 0.141500
vt 0.358539 0.139908
vt 0.322441 0.130984
vt 0.360381 0.129054
vt 0.325394 0.120566
vt 0.358559 0.649624
vt 0.360400 0.660478
vt 0.325412 0.668966
vt 0.322460 0.658548
vt 0.356546 0.638397
vt 0.319478 0.648031
vt 0.351818 0.627094
vt 0.316317 0.637468
vt 0.347422 0.611103
vt 0.312500 0.624505
vt 0.307561 0.612285
vt 0.202686 0.135865
vt 0.207236 0.128213
vt 0.211073 0.119796
vt 0.214596 0.111272
vt 0.217841 0.103021
vt 0.220900 0.094713
vt 0.223803 0.086339
vt 0.223818 0.703192
vt 0.220915 0.694818
vt 0.217857 0.686510
vt 0.214612 0.678259
vt 0.211088 0.669734
vt 0.207251 0.661316
vt 0.299206 0.604653
vt 0.202701 0.653664
vt 0.101946 0.077489
vt 0.104435 0.073156
vt 0.106758 0.068566
vt 0.108887 0.063882
vt 0.110876 0.059140
vt 0.112779 0.054373
vt 0.114629 0.049598
vt 0.114641 0.739934
vt 0.112787 0.735159
vt 0.110884 0.730392
vt 0.108895 0.725650
vt 0.106767 0.720964
vt 0.104445 0.716374
vt 0.101957 0.712040
vt 0.005035 0.011955
vt 0.006033 0.008230
vt 0.007573 0.009143
vt 0.006774 0.011572
vt 0.007884 0.013662
vt 0.009414 0.012309
vt 0.011638 0.784452
vt 0.011619 0.782132
vt 0.011226 0.009201
vt 0.011627 0.007249
vt 0.010464 0.778609
vt 0.009394 0.777156
vt 0.010495 0.010852
vt 0.007871 0.775809
vt 0.005938 0.774547
vt 0.011179 0.780256
vt 0.011740 0.005045
vt 0.005951 0.014930
vt 0.429841 0.053463
vt 0.429842 0.073966
vt 0.445740 0.053463
vt 0.445741 0.077138
vt 0.457578 0.053463
vt 0.457578 0.073966
vt 0.469415 0.053463
vt 0.466244 0.065300
vt 0.466243 0.041625
vt 0.457577 0.032960
vt 0.445740 0.029788
vt 0.429841 0.032960
vt 0.005041 0.777519
vt 0.006772 0.777892
vt 0.008002 0.778584
vt 0.008812 0.779560
vt 0.009264 0.780728
vt 0.009291 0.782133
vt 0.008821 0.783684
vt 0.008810 0.005643
vt 0.009303 0.007299
vt 0.009289 0.008693
vt 0.008827 0.009882
vt 0.008010 0.010870
vt 0.007575 0.780294
vt 0.006065 0.781205
s 1
f 2/1/1 12/2/2 11/3/3 1/4/4
f 3/5/5 13/6/6 12/2/2 2/1/1
f 4/7/7 14/8/8 13/6/6 3/5/5
f 5/9/9 15/10/10 14/8/8 4/7/7
f 117/11/11 16/12/12 15/10/10 5/9/9
f 6/13/13 17/14/14 16/15/12 117/16/11
f 7/17/15 18/18/16 17/14/14 6/13/13
f 8/19/17 19/20/18 18/18/16 7/17/15
f 9/21/19 20/22/20 19/20/18 8/19/17
f 10/23/21 21/24/22 20/22/20 9/21/19
f 12/2/2 23/25/23 22/26/24 11/3/3
f 13/6/6 24/27/25 23/25/23 12/2/2
f 14/8/8 25/28/26 24/27/25 13/6/6
f 15/10/10 26/29/27 25/28/26 14/8/8
f 16/12/12 27/30/28 26/29/27 15/10/10
f 17/14/14 28/31/29 27/32/28 16/15/12
f 18/18/16 29/33/30 28/31/29 17/14/14
f 19/20/18 30/34/31 29/33/30 18/18/16
f 20/22/20 31/35/32 30/34/31 19/20/18
f 21/24/22 32/36/33 31/35/32 20/22/20
f 23/25/23 34/37/34 33/38/35 22/26/24
f 24/27/25 35/39/36 34/37/34 23/25/23
f 25/28/26 36/40/37 35/39/36 24/27/25
f 26/29/27 37/41/38 36/40/37 25/28/26
f 27/30/28 38/42/39 37/41/38 26/29/27
f 28/31/29 39/43/40 38/44/39 27/32/28
f 29/33/30 40/45/41 39/43/40 28/31/29
f 30/34/31 41/46/42 40/45/41 29/33/30
f 31/35/32 42/47/43 41/46/42 30/34/31
f 32/36/33 43/48/44 42/47/43 31/35/32
f 34/37/34 45/49/45 44/50/46 33/38/35
f 35/39/36 46/51/47 45/49/45 34/37/34
f 36/40/37 47/52/48 46/51/47 35/39/36
f 37/41/38 48/53/49 47/52/48 36/40/37
f 38/42/39 49/54/50 48/53/49 37/41/38
f 39/43/40 50/55/51 49/56/50 38/44/39
f 40/45/41 51/57/52 50/55/51 39/43/40
f 41/46/42 52/58/53 51/57/52 40/45/41
f 42/47/43 53/59/54 52/58/53 41/46/42
f 43/48/44 54/60/55 53/59/54 42/47/43
f 95/61/56 55/62/57 66/63/58 96/64/59
f 97/65/60 56/66/61 55/62/57 95/61/56
f 98/67/62 57/68/63 56/66/61 97/65/60
f 99/69/64 58/70/65 57/68/63 98/67/62
f 100/71/66 59/72/67 58/70/65 99/69/64
f 101/73/68 60/74/69 59/72/67 100/71/66
f 102/75/70 61/76/71 60/77/69 101/78/68
f 103/79/72 62/80/73 61/76/71 102/75/70
f 104/81/74 63/82/75 62/80/73 103/79/72
f 105/83/76 64/84/77 63/82/75 104/81/74
f 106/85/78 65/86/79 64/84/77 105/83/76
f 55/62/57 67/87/80 78/88/81 66/63/58
f 56/66/61 68/89/82 67/87/80 55/62/57
f 57/68/63 69/90/83 68/89/82 56/66/61
f 58/70/65 70/91/84 69/90/83 57/68/63
f 59/72/67 71/92/85 70/91/84 58/70/65
f 60/74/69 72/93/86 71/92/85 59/72/67
f 61/76/71 73/94/87 72/95/86 60/77/69
f 62/80/73 74/96/88 73/94/87 61/76/71
f 63/82/75 75/97/89 74/96/88 62/80/73
f 64/84/77 76/98/90 75/97/89 63/82/75
f 65/86/79 77/99/91 76/98/90 64/84/77
f 66/100/58 78/101/81 77/99/91 65/86/79
f 67/87/80 79/102/92 90/103/93 78/88/81
f 68/89/82 80/104/94 79/102/92 67/87/80
f 69/90/83 81/105/95 80/104/94 68/89/82
f 70/91/84 82/106/96 81/105/95 69/90/83
f 71/92/85 83/107/97 82/106/96 70/91/84
f 72/93/86 84/108/98 83/107/97 71/92/85
f 73/94/87 85/109/99 84/110/98 72/95/86
f 74/96/88 86/111/100 85/109/99 73/94/87
f 75/97/89 87/112/101 86/111/100 74/96/88
f 76/98/90 88/113/102 87/112/101 75/97/89
f 77/99/91 89/114/103 88/113/102 76/98/90
f 78/101/81 90/115/93 89/114/103 77/99/91
f 118/116/104 112/117/105 134/118/106 132/119/107
f 79/102/92 80/104/94 130/120/108 131/121/109
f 84/110/98 85/109/99 125/122/110 126/123/111
f 96/124/59 66/100/58 65/86/79 106/85/78
f 54/60/55 106/85/78 105/83/76 53/59/54
f 53/59/54 105/83/76 104/81/74 52/58/53
f 52/58/53 104/81/74 103/79/72 51/57/52
f 51/57/52 103/79/72 102/75/70 50/55/51
f 50/55/51 102/75/70 101/78/68 49/56/50
f 49/54/50 101/73/68 100/71/66 48/53/49
f 48/53/49 100/71/66 99/69/64 47/52/48
f 47/52/48 99/69/64 98/67/62 46/51/47
f 46/51/47 98/67/62 97/65/60 45/49/45
f 45/49/45 97/65/60 95/61/56 44/50/46
f 82/106/96 83/107/97 127/125/112 128/126/113
f 87/112/101 88/113/102 122/127/114 123/128/115
f 80/104/94 81/105/95 129/129/116 130/120/108
f 89/114/103 90/115/93 121/130/117 120/131/118
f 85/109/99 86/111/100 124/132/119 125/122/110
f 83/107/97 84/108/98 126/133/111 127/125/112
f 88/113/102 89/114/103 120/131/118 122/127/114
f 81/105/95 82/106/96 128/126/113 129/129/116
f 86/111/100 87/112/101 123/128/115 124/132/119
f 90/103/93 79/102/92 131/121/109 121/134/117
f 113/135/120 10/136/120 9/137/120 114/138/120
f 115/139/120 114/138/120 9/137/120 8/140/120
f 116/141/120 115/139/120 8/140/120 7/142/120
f 117/143/120 116/141/120 7/142/120 6/144/120
f 5/145/120 4/146/120 116/141/120 117/143/120
f 4/146/120 3/147/120 115/139/120 116/141/120
f 3/147/120 2/148/120 114/138/120 115/139/120
f 1/149/120 113/135/120 114/138/120 2/148/120
f 118/150/104 119/151/121 120/131/118 121/130/117
f 119/151/121 91/152/122 122/127/114 120/131/118
f 91/152/122 92/153/123 123/128/115 122/127/114
f 92/153/123 93/154/124 124/132/119 123/128/115
f 93/154/124 94/155/125 125/122/110 124/132/119
f 94/155/125 107/156/126 126/123/111 125/122/110
f 107/157/126 108/158/127 127/125/112 126/133/111
f 108/158/127 109/159/128 128/126/113 127/125/112
f 109/159/128 110/160/129 129/129/116 128/126/113
f 110/160/129 111/161/130 130/120/108 129/129/116
f 111/161/130 112/117/105 131/121/109 130/120/108
f 112/117/105 118/116/104 121/134/117 131/121/109
f 119/151/121 133/162/131 92/153/123 91/152/122
f 92/153/123 133/162/131 94/155/125 93/154/124
f 132/119/107 134/118/106 108/158/127 107/157/126
f 94/155/125 133/162/131 132/163/107 107/156/126
f 133/162/131 119/151/121 118/150/104 132/163/107
f 134/118/106 112/117/105 111/161/130 110/160/129
f 108/158/127 134/118/106 110/160/129 109/159/128
f 135/164/132 1/4/133 11/3/134 143/165/135
f 136/166/136 135/164/132 143/165/135 144/167/137
f 137/168/138 136/166/136 144/167/137 145/169/139
f 138/170/140 137/168/138 145/169/139 146/171/141
f 237/172/142 138/170/140 146/171/141 147/173/143
f 139/174/144 237/175/142 147/176/143 148/177/145
f 140/178/146 139/174/144 148/177/145 149/179/147
f 141/180/148 140/178/146 149/179/147 150/181/149
f 142/182/150 141/180/148 150/181/149 151/183/151
f 10/23/152 142/182/150 151/183/151 21/24/153
f 143/165/135 11/3/134 22/26/154 152/184/155
f 144/167/137 143/165/135 152/184/155 153/185/156
f 145/169/139 144/167/137 153/185/156 154/186/157
f 146/171/141 145/169/139 154/186/157 155/187/158
f 147/173/143 146/171/141 155/187/158 156/188/159
f 148/177/145 147/176/143 156/189/159 157/190/160
f 149/179/147 148/177/145 157/190/160 158/191/161
f 150/181/149 149/179/147 158/191/161 159/192/162
f 151/183/151 150/181/149 159/192/162 160/193/163
f 21/24/153 151/183/151 160/193/163 32/36/164
f 152/184/155 22/26/154 33/38/165 161/194/166
f 153/185/156 152/184/155 161/194/166 162/195/167
f 154/186/157 153/185/156 162/195/167 163/196/168
f 155/187/158 154/186/157 163/196/168 164/197/169
f 156/188/159 155/187/158 164/197/169 165/198/170
f 157/190/160 156/189/159 165/199/170 166/200/171
f 158/191/161 157/190/160 166/200/171 167/201/172
f 159/192/162 158/191/161 167/201/172 168/202/173
f 160/193/163 159/192/162 168/202/173 169/203/174
f 32/36/164 160/193/163 169/203/174 43/48/175
f 161/194/166 33/38/165 44/50/176 170/204/177
f 162/195/167 161/194/166 170/204/177 171/205/178
f 163/196/168 162/195/167 171/205/178 172/206/179
f 164/197/169 163/196/168 172/206/179 173/207/180
f 165/198/170 164/197/169 173/207/180 174/208/181
f 166/200/171 165/199/170 174/209/181 175/210/182
f 167/201/172 166/200/171 175/210/182 176/211/183
f 168/202/173 167/201/172 176/211/183 177/212/184
f 169/203/174 168/202/173 177/212/184 178/213/185
f 43/48/175 169/203/174 178/213/185 54/60/186
f 95/61/187 96/64/188 190/214/189 179/215/190
f 219/216/191 95/61/187 179/215/190 180/217/192
f 220/218/193 219/216/191 180/217/192 181/219/194
f 221/220/195 220/218/193 181/219/194 182/221/196
f 222/222/197 221/220/195 182/221/196 183/223/198
f 223/224/199 222/222/197 183/223/198 184/225/200
f 224/226/201 223/227/199 184/228/200 185/229/202
f 225/230/203 224/226/201 185/229/202 186/231/204
f 226/232/205 225/230/203 186/231/204 187/233/206
f 227/234/207 226/232/205 187/233/206 188/235/208
f 106/85/209 227/234/207 188/235/208 189/236/210
f 179/215/190 190/214/189 202/237/211 191/238/212
f 180/217/192 179/215/190 191/238/212 192/239/213
f 181/219/194 180/217/192 192/239/213 193/240/214
f 182/221/196 181/219/194 193/240/214 194/241/215
f 183/223/198 182/221/196 194/241/215 195/242/216
f 184/225/200 183/223/198 195/242/216 196/243/217
f 185/229/202 184/228/200 196/244/217 197/245/218
f 186/231/204 185/229/202 197/245/218 198/246/219
f 187/233/206 186/231/204 198/246/219 199/247/220
f 188/235/208 187/233/206 199/247/220 200/248/221
f 189/236/210 188/235/208 200/248/221 201/249/222
f 190/250/189 189/236/210 201/249/222 202/251/211
f 191/238/212 202/237/211 214/252/223 203/253/224
f 192/239/213 191/238/212 203/253/224 204/254/225
f 193/240/214 192/239/213 204/254/225 205/255/226
f 194/241/215 193/240/214 205/255/226 206/256/227
f 195/242/216 194/241/215 206/256/227 207/257/228
f 196/243/217 195/242/216 207/257/228 208/258/229
f 197/245/218 196/244/217 208/259/229 209/260/230
f 198/246/219 197/245/218 209/260/230 210/261/231
f 199/247/220 198/246/219 210/261/231 211/262/232
f 200/248/221 199/247/220 211/262/232 212/263/233
f 201/249/222 200/248/221 212/263/233 213/264/234
f 202/251/211 201/249/222 213/264/234 214/265/223
f 238/266/235 252/267/236 254/268/237 233/269/238
f 203/253/224 251/270/239 250/271/240 204/254/225
f 208/259/229 246/272/241 245/273/242 209/260/230
f 96/124/188 106/85/209 189/236/210 190/250/189
f 54/60/186 178/213/185 227/234/207 106/85/209
f 178/213/185 177/212/184 226/232/205 227/234/207
f 177/212/184 176/211/183 225/230/203 226/232/205
f 176/211/183 175/210/182 224/226/201 225/230/203
f 175/210/182 174/209/181 223/227/199 224/226/201
f 174/208/181 173/207/180 222/222/197 223/224/199
f 173/207/180 172/206/179 221/220/195 222/222/197
f 172/206/179 171/205/178 220/218/193 221/220/195
f 171/205/178 170/204/177 219/216/191 220/218/193
f 170/204/177 44/50/176 95/61/187 219/216/191
f 206/256/227 248/274/243 247/275/244 207/257/228
f 211/262/232 243/276/245 242/277/246 212/263/233
f 204/254/225 250/271/240 249/278/247 205/255/226
f 213/264/234 240/279/248 241/280/249 214/265/223
f 209/260/230 245/273/242 244/281/250 210/261/231
f 207/257/228 247/275/244 246/282/241 208/258/229
f 212/263/233 242/277/246 240/279/248 213/264/234
f 205/255/226 249/278/247 248/274/243 206/256/227
f 210/261/231 244/281/250 243/276/245 211/262/232
f 214/252/223 241/283/249 251/270/239 203/253/224
f 113/135/120 234/284/120 142/285/120 10/136/120
f 235/286/120 141/287/120 142/285/120 234/284/120
f 236/288/120 140/289/120 141/287/120 235/286/120
f 237/290/120 139/291/120 140/289/120 236/288/120
f 138/292/120 237/290/120 236/288/120 137/293/120
f 137/293/120 236/288/120 235/286/120 136/294/120
f 136/294/120 235/286/120 234/284/120 135/295/120
f 1/149/120 135/295/120 234/284/120 113/135/120
f 238/296/235 241/280/249 240/279/248 239/297/251
f 239/297/251 240/279/248 242/277/246 215/298/252
f 215/298/252 242/277/246 243/276/245 216/299/253
f 216/299/253 243/276/245 244/281/250 217/300/254
f 217/300/254 244/281/250 245/273/242 218/301/255
f 218/301/255 245/273/242 246/272/241 228/302/256
f 228/303/256 246/282/241 247/275/244 229/304/257
f 229/304/257 247/275/244 248/274/243 230/305/258
f 230/305/258 248/274/243 249/278/247 231/306/259
f 231/306/259 249/278/247 250/271/240 232/307/260
f 232/307/260 250/271/240 251/270/239 233/269/238
f 233/269/238 251/270/239 241/283/249 238/266/235
f 239/297/251 215/298/252 216/299/253 253/308/261
f 216/299/253 217/300/254 218/301/255 253/308/261
f 252/267/236 228/303/256 229/304/257 254/268/237
f 218/301/255 228/302/256 252/309/236 253/308/261
f 253/308/261 252/309/236 238/296/235 239/297/251
f 254/268/237 231/306/259 232/307/260 233/269/238
f 229/304/257 230/305/258 231/306/259 254/268/237
