# Blender 4.0.2
# www.blender.org
o goblet_01
v -0.041227 0.000000 0.000000
v -0.040815 0.005070 -0.000000
v -0.016053 0.011174 -0.000000
v -0.015924 0.012978 -0.000000
v -0.009927 0.014617 -0.000000
v -0.008579 0.016303 -0.000000
v -0.008277 0.018006 -0.000000
v -0.009428 0.020041 -0.000000
v -0.011617 0.021378 -0.000000
v -0.014727 0.024526 -0.000000
v -0.014235 0.026442 -0.000000
v -0.012546 0.027880 -0.000000
v -0.009436 0.028389 -0.000000
v -0.009436 0.030584 -0.000000
v -0.008789 0.032031 -0.000000
v -0.009138 0.033379 -0.000000
v -0.011227 0.033977 -0.000000
v -0.013416 0.034177 -0.000000
v -0.014660 0.034975 -0.000000
v -0.015357 0.036372 -0.000000
v -0.021825 0.037620 -0.000000
v -0.029238 0.041262 -0.000000
v -0.034711 0.046651 -0.000000
v -0.038161 0.054227 -0.000000
v -0.038991 0.075323 -0.000000
v -0.039228 0.087497 -0.000000
v -0.040883 0.103709 -0.000000
v -0.044816 0.121261 -0.000000
v -0.049648 0.135195 -0.000000
v -0.055838 0.147362 -0.000000
v -0.055547 0.149008 -0.000000
v 0.000000 0.000000 0.000000
v -0.014001 0.022744 -0.000000
v -0.009357 0.015737 -0.000000
v -0.039032 0.064490 -0.000000
v -0.052915 0.150000 -0.000000
v -0.049950 0.149369 -0.000000
v -0.048115 0.147909 -0.000000
v -0.042495 0.135195 -0.000000
v -0.037818 0.121261 -0.000000
v -0.034379 0.103734 -0.000000
v -0.032573 0.087497 -0.000000
v -0.032070 0.075323 -0.000000
v -0.031765 0.063429 -0.000000
v -0.028275 0.058295 -0.000000
v -0.021018 0.055881 -0.000000
v 0.000000 0.055881 0.000000
v -0.038089 0.000000 0.015777
v -0.037708 0.005070 0.015619
v -0.014831 0.011174 0.006143
v -0.014711 0.012978 0.006094
v -0.009171 0.014617 0.003799
v -0.007926 0.016303 0.003283
v -0.007647 0.018006 0.003167
v -0.008710 0.020041 0.003608
v -0.010733 0.021378 0.004446
v -0.013606 0.024526 0.005636
v -0.013151 0.026442 0.005447
v -0.011591 0.027880 0.004801
v -0.008718 0.028389 0.003611
v -0.008718 0.030584 0.003611
v -0.008120 0.032031 0.003364
v -0.008442 0.033379 0.003497
v -0.010373 0.033977 0.004296
v -0.012395 0.034177 0.005134
v -0.013544 0.034975 0.005610
v -0.014188 0.036372 0.005877
v -0.020164 0.037620 0.008352
v -0.027013 0.041262 0.011189
v -0.032069 0.046651 0.013284
v -0.035256 0.054227 0.014604
v -0.036023 0.075323 0.014921
v -0.036242 0.087497 0.015012
v -0.037771 0.103709 0.015645
v -0.041405 0.121261 0.017150
v -0.045869 0.135195 0.019000
v -0.051588 0.147362 0.021368
v -0.051318 0.149008 0.021257
v -0.012935 0.022744 0.005358
v -0.008644 0.015737 0.003581
v -0.036061 0.064490 0.014937
v -0.048887 0.150000 0.020250
v -0.046148 0.149369 0.019115
v -0.044452 0.147909 0.018413
v -0.039260 0.135195 0.016262
v -0.034939 0.121261 0.014472
v -0.031762 0.103734 0.013156
v -0.030094 0.087497 0.012465
v -0.029629 0.075323 0.012273
v -0.029347 0.063429 0.012156
v -0.026122 0.058295 0.010820
v -0.019418 0.055881 0.008043
v -0.029152 0.000000 0.029152
v -0.028860 0.005070 0.028860
v -0.011352 0.011174 0.011352
v -0.011260 0.012978 0.011260
v -0.007019 0.014617 0.007019
v -0.006066 0.016303 0.006066
v -0.005852 0.018006 0.005852
v -0.006666 0.020041 0.006666
v -0.008214 0.021378 0.008214
v -0.010413 0.024526 0.010413
v -0.010065 0.026442 0.010065
v -0.008871 0.027880 0.008871
v -0.006672 0.028389 0.006672
v -0.006672 0.030584 0.006672
v -0.006215 0.032031 0.006215
v -0.006461 0.033379 0.006461
v -0.007939 0.033977 0.007939
v -0.009487 0.034177 0.009487
v -0.010366 0.034975 0.010366
v -0.010859 0.036372 0.010859
v -0.015433 0.037620 0.015433
v -0.020675 0.041262 0.020675
v -0.024545 0.046651 0.024545
v -0.026984 0.054227 0.026984
v -0.027571 0.075323 0.027571
v -0.027738 0.087497 0.027738
v -0.028909 0.103709 0.028909
v -0.031690 0.121261 0.031690
v -0.035107 0.135195 0.035107
v -0.039484 0.147362 0.039484
v -0.039277 0.149008 0.039277
v -0.009900 0.022744 0.009900
v -0.006616 0.015737 0.006616
v -0.027600 0.064490 0.027600
v -0.037417 0.150000 0.037417
v -0.035320 0.149369 0.035320
v -0.034022 0.147909 0.034022
v -0.030048 0.135195 0.030048
v -0.026741 0.121261 0.026741
v -0.024309 0.103734 0.024309
v -0.023033 0.087497 0.023033
v -0.022677 0.075323 0.022677
v -0.022461 0.063429 0.022461
v -0.019993 0.058295 0.019993
v -0.014862 0.055881 0.014862
v -0.015777 0.000000 0.038089
v -0.015619 0.005070 0.037708
v -0.006143 0.011174 0.014831
v -0.006094 0.012978 0.014711
v -0.003799 0.014617 0.009171
v -0.003283 0.016303 0.007926
v -0.003167 0.018006 0.007647
v -0.003608 0.020041 0.008710
v -0.004446 0.021378 0.010733
v -0.005636 0.024526 0.013606
v -0.005447 0.026442 0.013151
v -0.004801 0.027880 0.011591
v -0.003611 0.028389 0.008718
v -0.003611 0.030584 0.008718
v -0.003364 0.032031 0.008120
v -0.003497 0.033379 0.008442
v -0.004296 0.033977 0.010373
v -0.005134 0.034177 0.012395
v -0.005610 0.034975 0.013544
v -0.005877 0.036372 0.014188
v -0.008352 0.037620 0.020164
v -0.011189 0.041262 0.027013
v -0.013284 0.046651 0.032069
v -0.014604 0.054227 0.035256
v -0.014921 0.075323 0.036023
v -0.015012 0.087497 0.036242
v -0.015645 0.103709 0.037771
v -0.017150 0.121261 0.041405
v -0.019000 0.135195 0.045869
v -0.021368 0.147362 0.051588
v -0.021257 0.149008 0.051318
v -0.005358 0.022744 0.012935
v -0.003581 0.015737 0.008644
v -0.014937 0.064490 0.036061
v -0.020250 0.150000 0.048887
v -0.019115 0.149369 0.046148
v -0.018413 0.147909 0.044452
v -0.016262 0.135195 0.039260
v -0.014472 0.121261 0.034939
v -0.013156 0.103734 0.031762
v -0.012465 0.087497 0.030094
v -0.012273 0.075323 0.029629
v -0.012156 0.063429 0.029347
v -0.010820 0.058295 0.026122
v -0.008043 0.055881 0.019418
v 0.000000 0.000000 0.041227
v 0.000000 0.005070 0.040815
v 0.000000 0.011174 0.016053
v 0.000000 0.012978 0.015924
v -0.000000 0.014617 0.009927
v -0.000000 0.016303 0.008579
v -0.000000 0.018006 0.008277
v -0.000000 0.020041 0.009428
v -0.000000 0.021378 0.011617
v -0.000000 0.024526 0.014727
v -0.000000 0.026442 0.014235
v -0.000000 0.027880 0.012546
v -0.000000 0.028389 0.009436
v -0.000000 0.030584 0.009436
v -0.000000 0.032031 0.008789
v -0.000000 0.033379 0.009138
v -0.000000 0.033977 0.011227
v -0.000000 0.034177 0.013416
v -0.000000 0.034975 0.014660
v -0.000000 0.036372 0.015357
v -0.000000 0.037620 0.021825
v -0.000000 0.041262 0.029238
v -0.000000 0.046651 0.034711
v -0.000000 0.054227 0.038161
v -0.000000 0.075323 0.038991
v -0.000000 0.087497 0.039228
v -0.000000 0.103709 0.040883
v -0.000000 0.121261 0.044816
v -0.000000 0.135195 0.049648
v -0.000000 0.147362 0.055838
v -0.000000 0.149008 0.055547
v -0.000000 0.022744 0.014001
v -0.000000 0.015737 0.009357
v -0.000000 0.064490 0.039032
v -0.000000 0.150000 0.052915
v -0.000000 0.149369 0.049950
v -0.000000 0.147909 0.048115
v -0.000000 0.135195 0.042495
v -0.000000 0.121261 0.037818
v -0.000000 0.103734 0.034379
v -0.000000 0.087497 0.032573
v -0.000000 0.075323 0.032070
v -0.000000 0.063429 0.031765
v -0.000000 0.058295 0.028275
v -0.000000 0.055881 0.021018
v 0.015777 0.000000 0.038089
v 0.015619 0.005070 0.037708
v 0.006143 0.011174 0.014831
v 0.006094 0.012978 0.014711
v 0.003799 0.014617 0.009171
v 0.003283 0.016303 0.007926
v 0.003167 0.018006 0.007647
v 0.003608 0.020041 0.008710
v 0.004446 0.021378 0.010733
v 0.005636 0.024526 0.013606
v 0.005447 0.026442 0.013151
v 0.004801 0.027880 0.011591
v 0.003611 0.028389 0.008718
v 0.003611 0.030584 0.008718
v 0.003364 0.032031 0.008120
v 0.003497 0.033379 0.008442
v 0.004296 0.033977 0.010373
v 0.005134 0.034177 0.012395
v 0.005610 0.034975 0.013544
v 0.005877 0.036372 0.014188
v 0.008352 0.037620 0.020164
v 0.011189 0.041262 0.027013
v 0.013284 0.046651 0.032069
v 0.014604 0.054227 0.035256
v 0.014921 0.075323 0.036023
v 0.015012 0.087497 0.036242
v 0.015645 0.103709 0.037771
v 0.017150 0.121261 0.041405
v 0.019000 0.135195 0.045869
v 0.021368 0.147362 0.051588
v 0.021257 0.149008 0.051318
v 0.005358 0.022744 0.012935
v 0.003581 0.015737 0.008644
v 0.014937 0.064490 0.036061
v 0.020250 0.150000 0.048887
v 0.019115 0.149369 0.046148
v 0.018413 0.147909 0.044452
v 0.016262 0.135195 0.039260
v 0.014472 0.121261 0.034939
v 0.013156 0.103734 0.031762
v 0.012465 0.087497 0.030094
v 0.012273 0.075323 0.029629
v 0.012156 0.063429 0.029347
v 0.010820 0.058295 0.026122
v 0.008043 0.055881 0.019418
v 0.029152 0.000000 0.029152
v 0.028860 0.005070 0.028860
v 0.011352 0.011174 0.011352
v 0.011260 0.012978 0.011260
v 0.007019 0.014617 0.007019
v 0.006066 0.016303 0.006066
v 0.005852 0.018006 0.005852
v 0.006666 0.020041 0.006666
v 0.008214 0.021378 0.008214
v 0.010413 0.024526 0.010413
v 0.010065 0.026442 0.010065
v 0.008871 0.027880 0.008871
v 0.006672 0.028389 0.006672
v 0.006672 0.030584 0.006672
v 0.006215 0.032031 0.006215
v 0.006461 0.033379 0.006461
v 0.007939 0.033977 0.007939
v 0.009487 0.034177 0.009487
v 0.010366 0.034975 0.010366
v 0.010859 0.036372 0.010859
v 0.015433 0.037620 0.015433
v 0.020675 0.041262 0.020675
v 0.024545 0.046651 0.024545
v 0.026984 0.054227 0.026984
v 0.027571 0.075323 0.027571
v 0.027738 0.087497 0.027738
v 0.028909 0.103709 0.028909
v 0.031690 0.121261 0.031690
v 0.035107 0.135195 0.035107
v 0.039484 0.147362 0.039484
v 0.039277 0.149008 0.039277
v 0.009900 0.022744 0.009900
v 0.006616 0.015737 0.006616
v 0.027600 0.064490 0.027600
v 0.037417 0.150000 0.037417
v 0.035320 0.149369 0.035320
v 0.034022 0.147909 0.034022
v 0.030048 0.135195 0.030048
v 0.026741 0.121261 0.026741
v 0.024309 0.103734 0.024309
v 0.023033 0.087497 0.023033
v 0.022677 0.075323 0.022677
v 0.022461 0.063429 0.022461
v 0.019993 0.058295 0.019993
v 0.014862 0.055881 0.014862
v 0.038089 0.000000 0.015777
v 0.037708 0.005070 0.015619
v 0.014831 0.011174 0.006143
v 0.014711 0.012978 0.006094
v 0.009171 0.014617 0.003799
v 0.007926 0.016303 0.003283
v 0.007647 0.018006 0.003167
v 0.008710 0.020041 0.003608
v 0.010733 0.021378 0.004446
v 0.013606 0.024526 0.005636
v 0.013151 0.026442 0.005447
v 0.011591 0.027880 0.004801
v 0.008718 0.028389 0.003611
v 0.008718 0.030584 0.003611
v 0.008120 0.032031 0.003364
v 0.008442 0.033379 0.003497
v 0.010373 0.033977 0.004296
v 0.012395 0.034177 0.005134
v 0.013544 0.034975 0.005610
v 0.014188 0.036372 0.005877
v 0.020164 0.037620 0.008352
v 0.027013 0.041262 0.011189
v 0.032069 0.046651 0.013283
v 0.035256 0.054227 0.014604
v 0.036023 0.075323 0.014921
v 0.036242 0.087497 0.015012
v 0.037771 0.103709 0.015645
v 0.041405 0.121261 0.017150
v 0.045869 0.135195 0.019000
v 0.051588 0.147362 0.021368
v 0.051318 0.149008 0.021257
v 0.012935 0.022744 0.005358
v 0.008644 0.015737 0.003581
v 0.036061 0.064490 0.014937
v 0.048887 0.150000 0.020250
v 0.046148 0.149369 0.019115
v 0.044452 0.147909 0.018413
v 0.039260 0.135195 0.016262
v 0.034939 0.121261 0.014472
v 0.031762 0.103734 0.013156
v 0.030094 0.087497 0.012465
v 0.029629 0.075323 0.012273
v 0.029347 0.063429 0.012156
v 0.026122 0.058295 0.010820
v 0.019418 0.055881 0.008043
v 0.041227 0.000000 -0.000000
v 0.040815 0.005070 -0.000000
v 0.016053 0.011174 -0.000000
v 0.015924 0.012978 -0.000000
v 0.009927 0.014617 -0.000000
v 0.008579 0.016303 -0.000000
v 0.008277 0.018006 -0.000000
v 0.009428 0.020041 -0.000000
v 0.011617 0.021378 -0.000000
v 0.014727 0.024526 -0.000000
v 0.014235 0.026442 -0.000000
v 0.012546 0.027880 -0.000000
v 0.009436 0.028389 0.000000
v 0.009436 0.030584 0.000000
v 0.008789 0.032031 0.000000
v 0.009138 0.033379 0.000000
v 0.011227 0.033977 0.000000
v 0.013416 0.034177 -0.000000
v 0.014660 0.034975 -0.000000
v 0.015357 0.036372 -0.000000
v 0.021825 0.037620 -0.000000
v 0.029238 0.041262 -0.000000
v 0.034711 0.046651 -0.000000
v 0.038161 0.054227 -0.000000
v 0.038991 0.075323 -0.000000
v 0.039228 0.087497 -0.000000
v 0.040883 0.103709 0.000000
v 0.044816 0.121261 0.000000
v 0.049648 0.135195 0.000000
v 0.055838 0.147362 0.000000
v 0.055547 0.149008 0.000000
v 0.014001 0.022744 -0.000000
v 0.009357 0.015737 -0.000000
v 0.039032 0.064490 -0.000000
v 0.052915 0.150000 0.000000
v 0.049950 0.149369 0.000000
v 0.048115 0.147909 0.000000
v 0.042495 0.135195 0.000000
v 0.037818 0.121261 0.000000
v 0.034379 0.103734 0.000000
v 0.032573 0.087497 0.000000
v 0.032070 0.075323 -0.000000
v 0.031765 0.063429 -0.000000
v 0.028275 0.058295 -0.000000
v 0.021018 0.055881 0.000000
v 0.038089 0.000000 -0.015777
v 0.037708 0.005070 -0.015619
v 0.014831 0.011174 -0.006143
v 0.014711 0.012978 -0.006094
v 0.009171 0.014617 -0.003799
v 0.007926 0.016303 -0.003283
v 0.007647 0.018006 -0.003167
v 0.008710 0.020041 -0.003608
v 0.010733 0.021378 -0.004446
v 0.013606 0.024526 -0.005636
v 0.013151 0.026442 -0.005447
v 0.011591 0.027880 -0.004801
v 0.008718 0.028389 -0.003611
v 0.008718 0.030584 -0.003611
v 0.008120 0.032031 -0.003364
v 0.008442 0.033379 -0.003497
v 0.010373 0.033977 -0.004296
v 0.012395 0.034177 -0.005134
v 0.013544 0.034975 -0.005610
v 0.014188 0.036372 -0.005877
v 0.020164 0.037620 -0.008352
v 0.027013 0.041262 -0.011189
v 0.032069 0.046651 -0.013284
v 0.035256 0.054227 -0.014604
v 0.036023 0.075323 -0.014921
v 0.036242 0.087497 -0.015012
v 0.037771 0.103709 -0.015645
v 0.041405 0.121261 -0.017150
v 0.045869 0.135195 -0.019000
v 0.051588 0.147362 -0.021368
v 0.051318 0.149008 -0.021257
v 0.012935 0.022744 -0.005358
v 0.008644 0.015737 -0.003581
v 0.036061 0.064490 -0.014937
v 0.048887 0.150000 -0.020250
v 0.046148 0.149369 -0.019115
v 0.044452 0.147909 -0.018413
v 0.039260 0.135195 -0.016262
v 0.034939 0.121261 -0.014472
v 0.031762 0.103734 -0.013156
v 0.030094 0.087497 -0.012465
v 0.029629 0.075323 -0.012273
v 0.029347 0.063429 -0.012156
v 0.026122 0.058295 -0.010820
v 0.019418 0.055881 -0.008043
v 0.029152 0.000000 -0.029152
v 0.028860 0.005070 -0.028860
v 0.011352 0.011174 -0.011352
v 0.011260 0.012978 -0.011260
v 0.007019 0.014617 -0.007019
v 0.006066 0.016303 -0.006066
v 0.005852 0.018006 -0.005852
v 0.006666 0.020041 -0.006666
v 0.008214 0.021378 -0.008214
v 0.010413 0.024526 -0.010413
v 0.010065 0.026442 -0.010065
v 0.008871 0.027880 -0.008871
v 0.006672 0.028389 -0.006672
v 0.006672 0.030584 -0.006672
v 0.006215 0.032031 -0.006215
v 0.006461 0.033379 -0.006461
v 0.007939 0.033977 -0.007939
v 0.009487 0.034177 -0.009487
v 0.010366 0.034975 -0.010366
v 0.010859 0.036372 -0.010859
v 0.015433 0.037620 -0.015433
v 0.020675 0.041262 -0.020675
v 0.024545 0.046651 -0.024545
v 0.026984 0.054227 -0.026984
v 0.027571 0.075323 -0.027571
v 0.027738 0.087497 -0.027738
v 0.028909 0.103709 -0.028909
v 0.031690 0.121261 -0.031690
v 0.035107 0.135195 -0.035107
v 0.039484 0.147362 -0.039484
v 0.039277 0.149008 -0.039277
v 0.009900 0.022744 -0.009900
v 0.006616 0.015737 -0.006616
v 0.027600 0.064490 -0.027600
v 0.037417 0.150000 -0.037417
v 0.035320 0.149369 -0.035320
v 0.034022 0.147909 -0.034022
v 0.030048 0.135195 -0.030048
v 0.026741 0.121261 -0.026741
v 0.024309 0.103734 -0.024309
v 0.023033 0.087497 -0.023033
v 0.022677 0.075323 -0.022677
v 0.022461 0.063429 -0.022461
v 0.019993 0.058295 -0.019993
v 0.014862 0.055881 -0.014862
v 0.015777 0.000000 -0.038089
v 0.015619 0.005070 -0.037708
v 0.006143 0.011174 -0.014831
v 0.006094 0.012978 -0.014711
v 0.003799 0.014617 -0.009171
v 0.003283 0.016303 -0.007926
v 0.003167 0.018006 -0.007647
v 0.003608 0.020041 -0.008710
v 0.004446 0.021378 -0.010733
v 0.005636 0.024526 -0.013606
v 0.005447 0.026442 -0.013151
v 0.004801 0.027880 -0.011591
v 0.003611 0.028389 -0.008718
v 0.003611 0.030584 -0.008718
v 0.003364 0.032031 -0.008120
v 0.003497 0.033379 -0.008442
v 0.004296 0.033977 -0.010373
v 0.005134 0.034177 -0.012395
v 0.005610 0.034975 -0.013544
v 0.005877 0.036372 -0.014188
v 0.008352 0.037620 -0.020164
v 0.011189 0.041262 -0.027013
v 0.013283 0.046651 -0.032069
v 0.014604 0.054227 -0.035256
v 0.014921 0.075323 -0.036023
v 0.015012 0.087497 -0.036242
v 0.015645 0.103709 -0.037771
v 0.017150 0.121261 -0.041405
v 0.019000 0.135195 -0.045869
v 0.021368 0.147362 -0.051588
v 0.021257 0.149008 -0.051318
v 0.005358 0.022744 -0.012935
v 0.003581 0.015737 -0.008644
v 0.014937 0.064490 -0.036061
v 0.020250 0.150000 -0.048887
v 0.019115 0.149369 -0.046148
v 0.018413 0.147909 -0.044452
v 0.016262 0.135195 -0.039260
v 0.014472 0.121261 -0.034939
v 0.013156 0.103734 -0.031762
v 0.012465 0.087497 -0.030094
v 0.012273 0.075323 -0.029629
v 0.012156 0.063429 -0.029347
v 0.010820 0.058295 -0.026122
v 0.008043 0.055881 -0.019418
v -0.000000 0.000000 -0.041227
v -0.000000 0.005070 -0.040815
v 0.000000 0.011174 -0.016053
v 0.000000 0.012978 -0.015924
v 0.000000 0.014617 -0.009927
v 0.000000 0.016303 -0.008579
v 0.000000 0.018006 -0.008277
v 0.000000 0.020041 -0.009428
v 0.000000 0.021378 -0.011617
v 0.000000 0.024526 -0.014727
v 0.000000 0.026442 -0.014235
v 0.000000 0.027880 -0.012546
v 0.000000 0.028389 -0.009436
v 0.000000 0.030584 -0.009436
v 0.000000 0.032031 -0.008789
v 0.000000 0.033379 -0.009138
v 0.000000 0.033977 -0.011227
v 0.000000 0.034177 -0.013416
v 0.000000 0.034975 -0.014660
v 0.000000 0.036372 -0.015357
v 0.000000 0.037620 -0.021825
v 0.000000 0.041262 -0.029238
v 0.000000 0.046651 -0.034711
v 0.000000 0.054227 -0.038161
v 0.000000 0.075323 -0.038991
v 0.000000 0.087497 -0.039228
v 0.000000 0.103709 -0.040883
v 0.000000 0.121261 -0.044816
v 0.000000 0.135195 -0.049648
v 0.000000 0.147362 -0.055838
v 0.000000 0.149008 -0.055547
v 0.000000 0.022744 -0.014001
v 0.000000 0.015737 -0.009357
v 0.000000 0.064490 -0.039032
v 0.000000 0.150000 -0.052915
v 0.000000 0.149369 -0.049950
v 0.000000 0.147909 -0.048115
v 0.000000 0.135195 -0.042495
v 0.000000 0.121261 -0.037818
v 0.000000 0.103734 -0.034379
v 0.000000 0.087497 -0.032573
v 0.000000 0.075323 -0.032070
v 0.000000 0.063429 -0.031765
v 0.000000 0.058295 -0.028275
v 0.000000 0.055881 -0.021018
v -0.015777 0.000000 -0.038089
v -0.015619 0.005070 -0.037708
v -0.006143 0.011174 -0.014831
v -0.006094 0.012978 -0.014711
v -0.003799 0.014617 -0.009171
v -0.003283 0.016303 -0.007926
v -0.003167 0.018006 -0.007647
v -0.003608 0.020041 -0.008710
v -0.004446 0.021378 -0.010733
v -0.005636 0.024526 -0.013606
v -0.005447 0.026442 -0.013151
v -0.004801 0.027880 -0.011591
v -0.003611 0.028389 -0.008718
v -0.003611 0.030584 -0.008718
v -0.003364 0.032031 -0.008120
v -0.003497 0.033379 -0.008442
v -0.004296 0.033977 -0.010373
v -0.005134 0.034177 -0.012395
v -0.005610 0.034975 -0.013544
v -0.005877 0.036372 -0.014188
v -0.008352 0.037620 -0.020164
v -0.011189 0.041262 -0.027013
v -0.013284 0.046651 -0.032069
v -0.014604 0.054227 -0.035256
v -0.014921 0.075323 -0.036023
v -0.015012 0.087497 -0.036242
v -0.015645 0.103709 -0.037771
v -0.017150 0.121261 -0.041405
v -0.019000 0.135195 -0.045869
v -0.021368 0.147362 -0.051588
v -0.021257 0.149008 -0.051318
v -0.005358 0.022744 -0.012935
v -0.003581 0.015737 -0.008644
v -0.014937 0.064490 -0.036061
v -0.020250 0.150000 -0.048887
v -0.019115 0.149369 -0.046148
v -0.018413 0.147909 -0.044452
v -0.016262 0.135195 -0.039260
v -0.014472 0.121261 -0.034939
v -0.013156 0.103734 -0.031762
v -0.012465 0.087497 -0.030094
v -0.012273 0.075323 -0.029629
v -0.012156 0.063429 -0.029347
v -0.010820 0.058295 -0.026122
v -0.008043 0.055881 -0.019418
v -0.029152 0.000000 -0.029152
v -0.028860 0.005070 -0.028860
v -0.011352 0.011174 -0.011352
v -0.011260 0.012978 -0.011260
v -0.007019 0.014617 -0.007019
v -0.006066 0.016303 -0.006066
v -0.005852 0.018006 -0.005852
v -0.006666 0.020041 -0.006666
v -0.008214 0.021378 -0.008214
v -0.010413 0.024526 -0.010413
v -0.010065 0.026442 -0.010065
v -0.008871 0.027880 -0.008871
v -0.006672 0.028389 -0.006672
v -0.006672 0.030584 -0.006672
v -0.006215 0.032031 -0.006215
v -0.006461 0.033379 -0.006461
v -0.007939 0.033977 -0.007939
v -0.009487 0.034177 -0.009487
v -0.010366 0.034975 -0.010366
v -0.010859 0.036372 -0.010859
v -0.015433 0.037620 -0.015433
v -0.020675 0.041262 -0.020675
v -0.024545 0.046651 -0.024545
v -0.026984 0.054227 -0.026984
v -0.027571 0.075323 -0.027571
v -0.027738 0.087497 -0.027738
v -0.028909 0.103709 -0.028909
v -0.031690 0.121261 -0.031690
v -0.035107 0.135195 -0.035107
v -0.039484 0.147362 -0.039484
v -0.039277 0.149008 -0.039277
v -0.009900 0.022744 -0.009900
v -0.006616 0.015737 -0.006616
v -0.027600 0.064490 -0.027600
v -0.037417 0.150000 -0.037417
v -0.035320 0.149369 -0.035320
v -0.034022 0.147909 -0.034022
v -0.030048 0.135195 -0.030048
v -0.026741 0.121261 -0.026741
v -0.024309 0.103734 -0.024309
v -0.023033 0.087497 -0.023033
v -0.022677 0.075323 -0.022677
v -0.022461 0.063429 -0.022461
v -0.019993 0.058295 -0.019993
v -0.014862 0.055881 -0.014862
v -0.038089 0.000000 -0.015777
v -0.037708 0.005070 -0.015619
v -0.014831 0.011174 -0.006143
v -0.014711 0.012978 -0.006094
v -0.009171 0.014617 -0.003799
v -0.007926 0.016303 -0.003283
v -0.007647 0.018006 -0.003167
v -0.008710 0.020041 -0.003608
v -0.010733 0.021378 -0.004446
v -0.013606 0.024526 -0.005636
v -0.013151 0.026442 -0.005447
v -0.011591 0.027880 -0.004801
v -0.008718 0.028389 -0.003611
v -0.008718 0.030584 -0.003611
v -0.008120 0.032031 -0.003364
v -0.008442 0.033379 -0.003497
v -0.010373 0.033977 -0.004296
v -0.012395 0.034177 -0.005134
v -0.013544 0.034975 -0.005610
v -0.014188 0.036372 -0.005877
v -0.020164 0.037620 -0.008352
v -0.027013 0.041262 -0.011189
v -0.032069 0.046651 -0.013284
v -0.035256 0.054227 -0.014604
v -0.036023 0.075323 -0.014921
v -0.036242 0.087497 -0.015012
v -0.037771 0.103709 -0.015645
v -0.041405 0.121261 -0.017150
v -0.045869 0.135195 -0.019000
v -0.051588 0.147362 -0.021368
v -0.051318 0.149008 -0.021257
v -0.012935 0.022744 -0.005358
v -0.008644 0.015737 -0.003581
v -0.036061 0.064490 -0.014937
v -0.048887 0.150000 -0.020250
v -0.046148 0.149369 -0.019115
v -0.044452 0.147909 -0.018413
v -0.039260 0.135195 -0.016262
v -0.034939 0.121261 -0.014472
v -0.031762 0.103734 -0.013156
v -0.030094 0.087497 -0.012465
v -0.029629 0.075323 -0.012273
v -0.029347 0.063429 -0.012156
v -0.026122 0.058295 -0.010820
v -0.019418 0.055881 -0.008043
vn -0.9967 0.0811 -0.0000
vn -0.9208 0.0811 0.3814
vn -0.7048 0.0811 0.7048
vn -0.3814 0.0811 0.9208
vn -0.0000 0.0811 0.9967
vn 0.3814 0.0811 0.9208
vn 0.7048 0.0811 0.7048
vn 0.9208 0.0811 0.3814
vn 0.9967 0.0811 -0.0000
vn 0.9208 0.0811 -0.3814
vn 0.7048 0.0811 -0.7048
vn 0.3814 0.0811 -0.9208
vn -0.0000 0.0811 -0.9967
vn -0.3814 0.0811 -0.9208
vn -0.7048 0.0811 -0.7048
vn -0.9208 0.0811 -0.3814
vn -0.2394 0.9709 -0.0000
vn -0.2211 0.9709 0.0916
vn -0.1693 0.9709 0.1693
vn -0.0916 0.9709 0.2211
vn -0.0000 0.9709 0.2394
vn 0.0916 0.9709 0.2211
vn 0.1693 0.9709 0.1693
vn 0.2211 0.9709 0.0916
vn 0.2394 0.9709 -0.0000
vn 0.2211 0.9709 -0.0916
vn 0.1693 0.9709 -0.1693
vn 0.0916 0.9709 -0.2211
vn -0.0000 0.9709 -0.2394
vn -0.0916 0.9709 -0.2211
vn -0.1693 0.9709 -0.1693
vn -0.2211 0.9709 -0.0916
vn -0.9974 0.0719 -0.0000
vn -0.9215 0.0719 0.3817
vn -0.7053 0.0719 0.7053
vn -0.3817 0.0719 0.9215
vn -0.0000 0.0719 0.9974
vn 0.3817 0.0719 0.9215
vn 0.7053 0.0719 0.7053
vn 0.9215 0.0719 0.3817
vn 0.9974 0.0719 -0.0000
vn 0.9215 0.0719 -0.3817
vn 0.7053 0.0719 -0.7053
vn 0.3817 0.0719 -0.9215
vn -0.0000 0.0719 -0.9974
vn -0.3817 0.0719 -0.9215
vn -0.7053 0.0719 -0.7053
vn -0.9215 0.0719 -0.3817
vn -0.2637 0.9646 -0.0000
vn -0.2437 0.9646 0.1009
vn -0.1865 0.9646 0.1865
vn -0.1009 0.9646 0.2437
vn -0.0000 0.9646 0.2637
vn 0.1009 0.9646 0.2437
vn 0.1865 0.9646 0.1865
vn 0.2437 0.9646 0.1009
vn 0.2637 0.9646 -0.0000
vn 0.2437 0.9646 -0.1009
vn 0.1865 0.9646 -0.1865
vn 0.1009 0.9646 -0.2437
vn -0.0000 0.9646 -0.2637
vn -0.1009 0.9646 -0.2437
vn -0.1865 0.9646 -0.1865
vn -0.2437 0.9646 -0.1009
vn -0.7724 0.6351 -0.0000
vn -0.7136 0.6351 0.2956
vn -0.7702 0.5522 0.3190
vn -0.8337 0.5522 -0.0000
vn -0.5462 0.6351 0.5462
vn -0.5895 0.5522 0.5895
vn -0.2956 0.6351 0.7136
vn -0.3190 0.5522 0.7702
vn -0.0000 0.6351 0.7724
vn -0.0000 0.5522 0.8337
vn 0.2956 0.6351 0.7136
vn 0.3190 0.5522 0.7702
vn 0.5462 0.6351 0.5462
vn 0.5895 0.5522 0.5895
vn 0.7136 0.6351 0.2956
vn 0.7702 0.5522 0.3190
vn 0.7724 0.6351 -0.0000
vn 0.8337 0.5522 -0.0000
vn 0.7136 0.6351 -0.2956
vn 0.7702 0.5522 -0.3190
vn 0.5462 0.6351 -0.5462
vn 0.5895 0.5522 -0.5895
vn 0.2956 0.6351 -0.7136
vn 0.3190 0.5522 -0.7702
vn -0.0000 0.6351 -0.7724
vn -0.0000 0.5522 -0.8337
vn -0.2956 0.6351 -0.7136
vn -0.3190 0.5522 -0.7702
vn -0.5462 0.6351 -0.5462
vn -0.5895 0.5522 -0.5895
vn -0.7136 0.6351 -0.2956
vn -0.7702 0.5522 -0.3190
vn -0.9094 -0.1762 0.3767
vn -0.9844 -0.1762 -0.0000
vn -0.6960 -0.1762 0.6960
vn -0.3767 -0.1762 0.9094
vn -0.0000 -0.1762 0.9844
vn 0.3767 -0.1762 0.9094
vn 0.6960 -0.1762 0.6960
vn 0.9094 -0.1762 0.3767
vn 0.9844 -0.1762 -0.0000
vn 0.9094 -0.1762 -0.3767
vn 0.6960 -0.1762 -0.6960
vn 0.3767 -0.1762 -0.9094
vn -0.0000 -0.1762 -0.9844
vn -0.3767 -0.1762 -0.9094
vn -0.6960 -0.1762 -0.6960
vn -0.9094 -0.1762 -0.3767
vn -0.6495 -0.7111 0.2690
vn -0.7031 -0.7111 -0.0000
vn -0.4971 -0.7111 0.4971
vn -0.2690 -0.7111 0.6495
vn -0.0000 -0.7111 0.7031
vn 0.2690 -0.7111 0.6495
vn 0.4971 -0.7111 0.4971
vn 0.6495 -0.7111 0.2690
vn 0.7031 -0.7111 -0.0000
vn 0.6495 -0.7111 -0.2690
vn 0.4971 -0.7111 -0.4971
vn 0.2690 -0.7111 -0.6495
vn -0.0000 -0.7111 -0.7031
vn -0.2690 -0.7111 -0.6495
vn -0.4971 -0.7111 -0.4971
vn -0.6495 -0.7111 -0.2690
vn -0.4693 -0.8614 0.1944
vn -0.5080 -0.8614 -0.0000
vn -0.3592 -0.8614 0.3592
vn -0.1944 -0.8614 0.4693
vn -0.0000 -0.8614 0.5080
vn 0.1944 -0.8614 0.4693
vn 0.3592 -0.8614 0.3592
vn 0.4693 -0.8614 0.1944
vn 0.5080 -0.8614 -0.0000
vn 0.4693 -0.8614 -0.1944
vn 0.3592 -0.8614 -0.3592
vn 0.1944 -0.8614 -0.4693
vn -0.0000 -0.8614 -0.5080
vn -0.1944 -0.8614 -0.4693
vn -0.3592 -0.8614 -0.3592
vn -0.4693 -0.8614 -0.1944
vn -0.7693 -0.6389 -0.0000
vn -0.7107 -0.6389 0.2944
vn -0.9219 -0.0651 0.3819
vn -0.9979 -0.0651 -0.0000
vn -0.5440 -0.6389 0.5440
vn -0.7056 -0.0651 0.7056
vn -0.2944 -0.6389 0.7107
vn -0.3819 -0.0651 0.9219
vn -0.0000 -0.6389 0.7693
vn -0.0000 -0.0651 0.9979
vn 0.2944 -0.6389 0.7107
vn 0.3819 -0.0651 0.9219
vn 0.5440 -0.6389 0.5440
vn 0.7056 -0.0651 0.7056
vn 0.7107 -0.6389 0.2944
vn 0.9219 -0.0651 0.3819
vn 0.7693 -0.6389 -0.0000
vn 0.9979 -0.0651 -0.0000
vn 0.7107 -0.6389 -0.2944
vn 0.9219 -0.0651 -0.3819
vn 0.5440 -0.6389 -0.5440
vn 0.7056 -0.0651 -0.7056
vn 0.2944 -0.6389 -0.7107
vn 0.3819 -0.0651 -0.9219
vn -0.0000 -0.6389 -0.7693
vn -0.0000 -0.0651 -0.9979
vn -0.2944 -0.6389 -0.7107
vn -0.3819 -0.0651 -0.9219
vn -0.5440 -0.6389 -0.5440
vn -0.7056 -0.0651 -0.7056
vn -0.7107 -0.6389 -0.2944
vn -0.9219 -0.0651 -0.3819
vn -0.7927 0.5135 0.3284
vn -0.8581 0.5135 -0.0000
vn -0.6067 0.5135 0.6067
vn -0.3284 0.5135 0.7927
vn -0.0000 0.5135 0.8581
vn 0.3284 0.5135 0.7927
vn 0.6067 0.5135 0.6067
vn 0.7927 0.5135 0.3284
vn 0.8581 0.5135 -0.0000
vn 0.7927 0.5135 -0.3284
vn 0.6067 0.5135 -0.6067
vn 0.3284 0.5135 -0.7927
vn -0.0000 0.5135 -0.8581
vn -0.3284 0.5135 -0.7927
vn -0.6067 0.5135 -0.6067
vn -0.7927 0.5135 -0.3284
vn -0.4132 0.8944 0.1711
vn -0.4472 0.8944 -0.0000
vn -0.3162 0.8944 0.3162
vn -0.1711 0.8944 0.4132
vn -0.0000 0.8944 0.4472
vn 0.1711 0.8944 0.4132
vn 0.3162 0.8944 0.3162
vn 0.4132 0.8944 0.1711
vn 0.4472 0.8944 -0.0000
vn 0.4132 0.8944 -0.1711
vn 0.3162 0.8944 -0.3162
vn 0.1711 0.8944 -0.4132
vn -0.0000 0.8944 -0.4472
vn -0.1711 0.8944 -0.4132
vn -0.3162 0.8944 -0.3162
vn -0.4132 0.8944 -0.1711
vn -0.1491 0.9869 0.0618
vn -0.1614 0.9869 -0.0000
vn -0.1141 0.9869 0.1141
vn -0.0618 0.9869 0.1491
vn -0.0000 0.9869 0.1614
vn 0.0618 0.9869 0.1491
vn 0.1141 0.9869 0.1141
vn 0.1491 0.9869 0.0618
vn 0.1614 0.9869 -0.0000
vn 0.1491 0.9869 -0.0618
vn 0.1141 0.9869 -0.1141
vn 0.0618 0.9869 -0.1491
vn -0.0000 0.9869 -0.1614
vn -0.0618 0.9869 -0.1491
vn -0.1141 0.9869 -0.1141
vn -0.1491 0.9869 -0.0618
vn -1.0000 -0.0000 -0.0000
vn -0.9239 -0.0000 0.3827
vn -0.9045 0.2035 0.3747
vn -0.9791 0.2035 -0.0000
vn -0.7071 -0.0000 0.7071
vn -0.6923 0.2035 0.6923
vn -0.3827 -0.0000 0.9239
vn -0.3747 0.2035 0.9045
vn -0.0000 -0.0000 1.0000
vn -0.0000 0.2035 0.9791
vn 0.3827 -0.0000 0.9239
vn 0.3747 0.2035 0.9045
vn 0.7071 -0.0000 0.7071
vn 0.6923 0.2035 0.6923
vn 0.9239 -0.0000 0.3827
vn 0.9045 0.2035 0.3747
vn 1.0000 -0.0000 -0.0000
vn 0.9791 0.2035 -0.0000
vn 0.9239 -0.0000 -0.3827
vn 0.9045 0.2035 -0.3747
vn 0.7071 -0.0000 -0.7071
vn 0.6923 0.2035 -0.6923
vn 0.3827 -0.0000 -0.9239
vn 0.3747 0.2035 -0.9045
vn -0.0000 -0.0000 -1.0000
vn -0.0000 0.2035 -0.9791
vn -0.3827 -0.0000 -0.9239
vn -0.3747 0.2035 -0.9045
vn -0.7071 -0.0000 -0.7071
vn -0.6923 0.2035 -0.6923
vn -0.9239 -0.0000 -0.3827
vn -0.9045 0.2035 -0.3747
vn -0.9204 0.0872 0.3812
vn -0.9962 0.0872 -0.0000
vn -0.7044 0.0872 0.7044
vn -0.3812 0.0872 0.9204
vn -0.0000 0.0872 0.9962
vn 0.3812 0.0872 0.9204
vn 0.7044 0.0872 0.7044
vn 0.9204 0.0872 0.3812
vn 0.9962 0.0872 -0.0000
vn 0.9204 0.0872 -0.3812
vn 0.7044 0.0872 -0.7044
vn 0.3812 0.0872 -0.9204
vn -0.0000 0.0872 -0.9962
vn -0.3812 0.0872 -0.9204
vn -0.7044 0.0872 -0.7044
vn -0.9204 0.0872 -0.3812
vn -0.8945 -0.2503 0.3705
vn -0.9682 -0.2503 -0.0000
vn -0.6846 -0.2503 0.6846
vn -0.3705 -0.2503 0.8945
vn -0.0000 -0.2503 0.9682
vn 0.3705 -0.2503 0.8945
vn 0.6846 -0.2503 0.6846
vn 0.8945 -0.2503 0.3705
vn 0.9682 -0.2503 -0.0000
vn 0.8945 -0.2503 -0.3705
vn 0.6846 -0.2503 -0.6846
vn 0.3705 -0.2503 -0.8945
vn -0.0000 -0.2503 -0.9682
vn -0.3705 -0.2503 -0.8945
vn -0.6846 -0.2503 -0.6846
vn -0.8945 -0.2503 -0.3705
vn -0.2754 -0.9613 -0.0000
vn -0.2545 -0.9613 0.1054
vn -0.1594 -0.9850 0.0660
vn -0.1725 -0.9850 -0.0000
vn -0.1948 -0.9613 0.1948
vn -0.1220 -0.9850 0.1220
vn -0.1054 -0.9613 0.2545
vn -0.0660 -0.9850 0.1594
vn -0.0000 -0.9613 0.2754
vn -0.0000 -0.9850 0.1725
vn 0.1054 -0.9613 0.2545
vn 0.0660 -0.9850 0.1594
vn 0.1948 -0.9613 0.1948
vn 0.1220 -0.9850 0.1220
vn 0.2545 -0.9613 0.1054
vn 0.1594 -0.9850 0.0660
vn 0.2754 -0.9613 -0.0000
vn 0.1725 -0.9850 -0.0000
vn 0.2545 -0.9613 -0.1054
vn 0.1594 -0.9850 -0.0660
vn 0.1948 -0.9613 -0.1948
vn 0.1220 -0.9850 -0.1220
vn 0.1054 -0.9613 -0.2545
vn 0.0660 -0.9850 -0.1594
vn -0.0000 -0.9613 -0.2754
vn -0.0000 -0.9850 -0.1725
vn -0.1054 -0.9613 -0.2545
vn -0.0660 -0.9850 -0.1594
vn -0.1948 -0.9613 -0.1948
vn -0.1220 -0.9850 -0.1220
vn -0.2545 -0.9613 -0.1054
vn -0.1594 -0.9850 -0.0660
vn -0.3241 -0.9365 0.1342
vn -0.3508 -0.9365 -0.0000
vn -0.2481 -0.9365 0.2480
vn -0.1342 -0.9365 0.3241
vn -0.0000 -0.9365 0.3508
vn 0.1342 -0.9365 0.3241
vn 0.2481 -0.9365 0.2480
vn 0.3241 -0.9365 0.1342
vn 0.3508 -0.9365 -0.0000
vn 0.3241 -0.9365 -0.1342
vn 0.2481 -0.9365 -0.2480
vn 0.1342 -0.9365 -0.3241
vn -0.0000 -0.9365 -0.3508
vn -0.1342 -0.9365 -0.3241
vn -0.2481 -0.9365 -0.2481
vn -0.3241 -0.9365 -0.1342
vn -0.7006 -0.6519 0.2902
vn -0.7583 -0.6519 -0.0000
vn -0.5362 -0.6519 0.5362
vn -0.2902 -0.6519 0.7006
vn -0.0000 -0.6519 0.7583
vn 0.2902 -0.6519 0.7006
vn 0.5362 -0.6519 0.5362
vn 0.7006 -0.6519 0.2902
vn 0.7583 -0.6519 -0.0000
vn 0.7006 -0.6519 -0.2902
vn 0.5362 -0.6519 -0.5362
vn 0.2902 -0.6519 -0.7006
vn -0.0000 -0.6519 -0.7583
vn -0.2902 -0.6519 -0.7006
vn -0.5362 -0.6519 -0.5362
vn -0.7006 -0.6519 -0.2902
vn -0.8268 -0.4462 0.3425
vn -0.8949 -0.4462 -0.0000
vn -0.6328 -0.4462 0.6328
vn -0.3425 -0.4462 0.8268
vn -0.0000 -0.4462 0.8949
vn 0.3425 -0.4462 0.8268
vn 0.6328 -0.4462 0.6328
vn 0.8268 -0.4462 0.3425
vn 0.8949 -0.4462 -0.0000
vn 0.8268 -0.4462 -0.3425
vn 0.6328 -0.4462 -0.6328
vn 0.3425 -0.4462 -0.8268
vn -0.0000 -0.4462 -0.8949
vn -0.3425 -0.4462 -0.8268
vn -0.6328 -0.4462 -0.6328
vn -0.8268 -0.4462 -0.3425
vn -0.1894 -0.9819 -0.0000
vn -0.1750 -0.9819 0.0725
vn -0.3074 -0.9430 0.1273
vn -0.3327 -0.9430 -0.0000
vn -0.1339 -0.9819 0.1339
vn -0.2353 -0.9430 0.2353
vn -0.0725 -0.9819 0.1750
vn -0.1273 -0.9430 0.3074
vn -0.0000 -0.9819 0.1894
vn -0.0000 -0.9430 0.3327
vn 0.0725 -0.9819 0.1750
vn 0.1273 -0.9430 0.3074
vn 0.1339 -0.9819 0.1339
vn 0.2353 -0.9430 0.2353
vn 0.1750 -0.9819 0.0725
vn 0.3074 -0.9430 0.1273
vn 0.1894 -0.9819 -0.0000
vn 0.3327 -0.9430 -0.0000
vn 0.1750 -0.9819 -0.0725
vn 0.3074 -0.9430 -0.1273
vn 0.1339 -0.9819 -0.1339
vn 0.2353 -0.9430 -0.2353
vn 0.0725 -0.9819 -0.1750
vn 0.1273 -0.9430 -0.3074
vn -0.0000 -0.9819 -0.1894
vn -0.0000 -0.9430 -0.3327
vn -0.0725 -0.9819 -0.1750
vn -0.1273 -0.9430 -0.3074
vn -0.1339 -0.9819 -0.1339
vn -0.2353 -0.9430 -0.2353
vn -0.1750 -0.9819 -0.0725
vn -0.3074 -0.9430 -0.1273
vn -0.5466 -0.8062 0.2264
vn -0.5917 -0.8062 -0.0000
vn -0.4184 -0.8062 0.4184
vn -0.2264 -0.8062 0.5466
vn -0.0000 -0.8062 0.5917
vn 0.2264 -0.8062 0.5466
vn 0.4184 -0.8062 0.4184
vn 0.5466 -0.8062 0.2264
vn 0.5917 -0.8062 -0.0000
vn 0.5466 -0.8062 -0.2264
vn 0.4184 -0.8062 -0.4184
vn 0.2264 -0.8062 -0.5466
vn -0.0000 -0.8062 -0.5917
vn -0.2264 -0.8062 -0.5466
vn -0.4184 -0.8062 -0.4184
vn -0.5466 -0.8062 -0.2264
vn -0.7638 -0.5627 0.3164
vn -0.8267 -0.5627 -0.0000
vn -0.5846 -0.5627 0.5846
vn -0.3164 -0.5627 0.7638
vn -0.0000 -0.5627 0.8267
vn 0.3164 -0.5627 0.7638
vn 0.5846 -0.5627 0.5846
vn 0.7638 -0.5627 0.3164
vn 0.8267 -0.5627 -0.0000
vn 0.7638 -0.5627 -0.3164
vn 0.5846 -0.5627 -0.5846
vn 0.3164 -0.5627 -0.7638
vn -0.0000 -0.5627 -0.8267
vn -0.3164 -0.5627 -0.7638
vn -0.5846 -0.5627 -0.5846
vn -0.7638 -0.5627 -0.3164
vn -0.8950 -0.2482 0.3707
vn -0.9687 -0.2482 -0.0000
vn -0.6850 -0.2482 0.6850
vn -0.3707 -0.2482 0.8950
vn -0.0000 -0.2482 0.9687
vn 0.3707 -0.2482 0.8950
vn 0.6850 -0.2482 0.6850
vn 0.8950 -0.2482 0.3707
vn 0.9687 -0.2482 -0.0000
vn 0.8950 -0.2482 -0.3707
vn 0.6850 -0.2482 -0.6850
vn 0.3707 -0.2482 -0.8950
vn -0.0000 -0.2482 -0.9687
vn -0.3707 -0.2482 -0.8950
vn -0.6850 -0.2482 -0.6850
vn -0.8950 -0.2482 -0.3707
vn -0.9992 -0.0402 -0.0000
vn -0.9231 -0.0402 0.3824
vn -0.9239 -0.0078 0.3827
vn -1.0000 -0.0078 -0.0000
vn -0.7065 -0.0402 0.7065
vn -0.7071 -0.0078 0.7071
vn -0.3824 -0.0402 0.9231
vn -0.3827 -0.0078 0.9239
vn -0.0000 -0.0402 0.9992
vn -0.0000 -0.0078 1.0000
vn 0.3824 -0.0402 0.9231
vn 0.3827 -0.0078 0.9239
vn 0.7065 -0.0402 0.7065
vn 0.7071 -0.0078 0.7071
vn 0.9231 -0.0402 0.3824
vn 0.9239 -0.0078 0.3827
vn 0.9992 -0.0402 -0.0000
vn 1.0000 -0.0078 -0.0000
vn 0.9231 -0.0402 -0.3824
vn 0.9239 -0.0078 -0.3827
vn 0.7065 -0.0402 -0.7065
vn 0.7071 -0.0078 -0.7071
vn 0.3824 -0.0402 -0.9231
vn 0.3827 -0.0078 -0.9239
vn -0.0000 -0.0402 -0.9992
vn -0.0000 -0.0078 -1.0000
vn -0.3824 -0.0402 -0.9231
vn -0.3827 -0.0078 -0.9239
vn -0.7065 -0.0402 -0.7065
vn -0.7071 -0.0078 -0.7071
vn -0.9231 -0.0402 -0.3824
vn -0.9239 -0.0078 -0.3827
vn -0.9222 -0.0609 0.3820
vn -0.9981 -0.0609 -0.0000
vn -0.7058 -0.0609 0.7058
vn -0.3820 -0.0609 0.9222
vn -0.0000 -0.0609 0.9981
vn 0.3820 -0.0609 0.9222
vn 0.7058 -0.0609 0.7058
vn 0.9222 -0.0609 0.3820
vn 0.9981 -0.0609 -0.0000
vn 0.9222 -0.0609 -0.3820
vn 0.7058 -0.0609 -0.7058
vn 0.3820 -0.0609 -0.9222
vn -0.0000 -0.0609 -0.9981
vn -0.3820 -0.0609 -0.9222
vn -0.7058 -0.0609 -0.7058
vn -0.9222 -0.0609 -0.3820
vn -0.9117 -0.1616 0.3777
vn -0.9869 -0.1616 -0.0000
vn -0.6978 -0.1616 0.6978
vn -0.3777 -0.1616 0.9117
vn -0.0000 -0.1616 0.9869
vn 0.3777 -0.1616 0.9117
vn 0.6978 -0.1616 0.6978
vn 0.9117 -0.1616 0.3777
vn 0.9869 -0.1616 -0.0000
vn 0.9117 -0.1616 -0.3777
vn 0.6978 -0.1616 -0.6978
vn 0.3777 -0.1616 -0.9117
vn -0.0000 -0.1616 -0.9869
vn -0.3777 -0.1616 -0.9117
vn -0.6978 -0.1616 -0.6978
vn -0.9117 -0.1616 -0.3777
vn -0.8881 -0.2755 0.3679
vn -0.9613 -0.2755 -0.0000
vn -0.6798 -0.2755 0.6798
vn -0.3679 -0.2755 0.8881
vn -0.0000 -0.2755 0.9613
vn 0.3679 -0.2755 0.8881
vn 0.6798 -0.2755 0.6798
vn 0.8881 -0.2755 0.3679
vn 0.9613 -0.2755 -0.0000
vn 0.8881 -0.2755 -0.3679
vn 0.6798 -0.2755 -0.6798
vn 0.3679 -0.2755 -0.8881
vn -0.0000 -0.2755 -0.9613
vn -0.3679 -0.2755 -0.8881
vn -0.6798 -0.2755 -0.6798
vn -0.8881 -0.2755 -0.3679
vn -0.8489 -0.3945 0.3516
vn -0.9189 -0.3945 -0.0000
vn -0.6497 -0.3945 0.6497
vn -0.3516 -0.3945 0.8489
vn -0.0000 -0.3945 0.9189
vn 0.3516 -0.3945 0.8489
vn 0.6497 -0.3945 0.6497
vn 0.8489 -0.3945 0.3516
vn 0.9189 -0.3945 -0.0000
vn 0.8489 -0.3945 -0.3516
vn 0.6497 -0.3945 -0.6497
vn 0.3516 -0.3945 -0.8489
vn -0.0000 -0.3945 -0.9189
vn -0.3516 -0.3945 -0.8489
vn -0.6497 -0.3945 -0.6497
vn -0.8489 -0.3945 -0.3516
vn -0.9146 -0.1416 0.3788
vn -0.9899 -0.1416 -0.0000
vn -0.7000 -0.1416 0.7000
vn -0.3788 -0.1416 0.9146
vn -0.0000 -0.1416 0.9899
vn 0.3788 -0.1416 0.9146
vn 0.7000 -0.1416 0.7000
vn 0.9146 -0.1416 0.3788
vn 0.9899 -0.1416 -0.0000
vn 0.9146 -0.1416 -0.3788
vn 0.7000 -0.1416 -0.7000
vn 0.3788 -0.1416 -0.9146
vn -0.0000 -0.1416 -0.9899
vn -0.3788 -0.1416 -0.9146
vn -0.7000 -0.1416 -0.7000
vn -0.9146 -0.1416 -0.3788
vn -0.9097 0.1747 0.3768
vn -0.9846 0.1747 -0.0000
vn -0.6962 0.1747 0.6962
vn -0.3768 0.1747 0.9097
vn -0.0000 0.1747 0.9846
vn 0.3768 0.1747 0.9097
vn 0.6962 0.1747 0.6962
vn 0.9097 0.1747 0.3768
vn 0.9846 0.1747 -0.0000
vn 0.9097 0.1747 -0.3768
vn 0.6962 0.1747 -0.6962
vn 0.3768 0.1747 -0.9097
vn -0.0000 0.1747 -0.9846
vn -0.3768 0.1747 -0.9097
vn -0.6962 0.1747 -0.6962
vn -0.9097 0.1747 -0.3768
vn -0.0000 -1.0000 -0.0000
vn -0.8912 0.4537 -0.0000
vn -0.8233 0.4537 0.3410
vn -0.6302 0.4537 0.6302
vn -0.3410 0.4537 0.8233
vn -0.0000 0.4537 0.8912
vn 0.3410 0.4537 0.8233
vn 0.6302 0.4537 0.6302
vn 0.8233 0.4537 0.3410
vn 0.8912 0.4537 -0.0000
vn 0.8233 0.4537 -0.3410
vn 0.6302 0.4537 -0.6302
vn 0.3410 0.4537 -0.8233
vn -0.0000 0.4537 -0.8912
vn -0.3410 0.4537 -0.8233
vn -0.6302 0.4537 -0.6302
vn -0.8233 0.4537 -0.3410
vn -0.3529 0.9357 -0.0000
vn -0.3260 0.9357 0.1350
vn -0.1017 0.9939 0.0421
vn -0.1101 0.9939 -0.0000
vn -0.2495 0.9357 0.2495
vn -0.0779 0.9939 0.0779
vn -0.1350 0.9357 0.3260
vn -0.0421 0.9939 0.1017
vn -0.0000 0.9357 0.3529
vn -0.0000 0.9939 0.1101
vn 0.1350 0.9357 0.3260
vn 0.0421 0.9939 0.1017
vn 0.2495 0.9357 0.2495
vn 0.0779 0.9939 0.0779
vn 0.3260 0.9357 0.1350
vn 0.1017 0.9939 0.0421
vn 0.3529 0.9357 -0.0000
vn 0.1101 0.9939 -0.0000
vn 0.3260 0.9357 -0.1350
vn 0.1017 0.9939 -0.0421
vn 0.2495 0.9357 -0.2495
vn 0.0779 0.9939 -0.0779
vn 0.1350 0.9357 -0.3260
vn 0.0421 0.9939 -0.1017
vn -0.0000 0.9357 -0.3529
vn -0.0000 0.9939 -0.1101
vn -0.1350 0.9357 -0.3260
vn -0.0421 0.9939 -0.1017
vn -0.2495 0.9357 -0.2495
vn -0.0778 0.9939 -0.0779
vn -0.3260 0.9357 -0.1350
vn -0.1017 0.9939 -0.0421
vn 0.3721 0.9153 -0.1541
vn 0.4028 0.9153 -0.0000
vn 0.2848 0.9153 -0.2848
vn 0.1541 0.9153 -0.3721
vn -0.0000 0.9153 -0.4028
vn -0.1541 0.9153 -0.3721
vn -0.2848 0.9153 -0.2848
vn -0.3721 0.9153 -0.1541
vn -0.4028 0.9153 -0.0000
vn -0.3721 0.9153 0.1541
vn -0.2848 0.9153 0.2848
vn -0.1541 0.9153 0.3721
vn -0.0000 0.9153 0.4028
vn 0.1541 0.9153 0.3721
vn 0.2848 0.9153 0.2848
vn 0.3721 0.9153 0.1541
vn 0.7205 0.6259 -0.2984
vn 0.7799 0.6259 -0.0000
vn 0.5514 0.6259 -0.5514
vn 0.2984 0.6259 -0.7205
vn -0.0000 0.6259 -0.7799
vn -0.2984 0.6259 -0.7205
vn -0.5514 0.6259 -0.5514
vn -0.7205 0.6259 -0.2984
vn -0.7799 0.6259 -0.0000
vn -0.7205 0.6259 0.2984
vn -0.5514 0.6259 0.5514
vn -0.2984 0.6259 0.7205
vn -0.0000 0.6259 0.7799
vn 0.2984 0.6259 0.7205
vn 0.5514 0.6259 0.5514
vn 0.7205 0.6259 0.2984
vn 0.8606 0.3636 -0.3565
vn 0.9316 0.3636 -0.0000
vn 0.6587 0.3636 -0.6587
vn 0.3565 0.3636 -0.8606
vn -0.0000 0.3636 -0.9316
vn -0.3565 0.3636 -0.8606
vn -0.6587 0.3636 -0.6587
vn -0.8606 0.3636 -0.3565
vn -0.9316 0.3636 -0.0000
vn -0.8606 0.3636 0.3565
vn -0.6587 0.3636 0.6587
vn -0.3565 0.3636 0.8606
vn -0.0000 0.3636 0.9316
vn 0.3565 0.3636 0.8606
vn 0.6587 0.3636 0.6587
vn 0.8606 0.3636 0.3565
vn 0.8926 0.2579 -0.3697
vn 0.9662 0.2579 -0.0000
vn 0.6832 0.2579 -0.6832
vn 0.3697 0.2579 -0.8926
vn -0.0000 0.2579 -0.9662
vn -0.3697 0.2579 -0.8926
vn -0.6832 0.2579 -0.6832
vn -0.8926 0.2579 -0.3697
vn -0.9662 0.2579 -0.0000
vn -0.8926 0.2579 0.3697
vn -0.6832 0.2579 0.6832
vn -0.3697 0.2579 0.8926
vn -0.0000 0.2579 0.9662
vn 0.3697 0.2579 0.8926
vn 0.6832 0.2579 0.6832
vn 0.8926 0.2579 0.3697
vn 0.9131 0.1524 -0.3782
vn 0.9883 0.1524 -0.0000
vn 0.6988 0.1524 -0.6988
vn 0.3782 0.1524 -0.9131
vn -0.0000 0.1524 -0.9883
vn -0.3782 0.1524 -0.9131
vn -0.6988 0.1524 -0.6988
vn -0.9131 0.1524 -0.3782
vn -0.9883 0.1524 -0.0000
vn -0.9131 0.1524 0.3782
vn -0.6988 0.1524 0.6988
vn -0.3782 0.1524 0.9131
vn -0.0000 0.1524 0.9883
vn 0.3782 0.1524 0.9131
vn 0.6988 0.1524 0.6988
vn 0.9131 0.1524 0.3782
vn 0.9212 0.0763 -0.3816
vn 0.9971 0.0763 -0.0000
vn 0.7050 0.0763 -0.7050
vn 0.3816 0.0763 -0.9212
vn -0.0000 0.0763 -0.9971
vn -0.3816 0.0763 -0.9212
vn -0.7050 0.0763 -0.7050
vn -0.9212 0.0763 -0.3816
vn -0.9971 0.0763 -0.0000
vn -0.9212 0.0763 0.3816
vn -0.7050 0.0763 0.7050
vn -0.3816 0.0763 0.9212
vn -0.0000 0.0763 0.9971
vn 0.3816 0.0763 0.9212
vn 0.7050 0.0763 0.7050
vn 0.9212 0.0763 0.3816
vn 0.9234 0.0335 -0.3825
vn 0.9994 0.0335 -0.0000
vn 0.7067 0.0335 -0.7067
vn 0.3825 0.0335 -0.9234
vn -0.0000 0.0335 -0.9994
vn -0.3825 0.0335 -0.9234
vn -0.7067 0.0335 -0.7067
vn -0.9234 0.0335 -0.3825
vn -0.9994 0.0335 -0.0000
vn -0.9234 0.0335 0.3825
vn -0.7067 0.0335 0.7067
vn -0.3825 0.0335 0.9234
vn -0.0000 0.0335 0.9994
vn 0.3825 0.0335 0.9234
vn 0.7067 0.0335 0.7067
vn 0.9234 0.0335 0.3825
vn 0.8823 0.2966 -0.3655
vn 0.9550 0.2966 -0.0000
vn 0.6753 0.2966 -0.6753
vn 0.3655 0.2966 -0.8823
vn -0.0000 0.2966 -0.9550
vn -0.3655 0.2966 -0.8823
vn -0.6753 0.2966 -0.6753
vn -0.8823 0.2966 -0.3655
vn -0.9550 0.2966 -0.0000
vn -0.8823 0.2966 0.3655
vn -0.6753 0.2966 0.6753
vn -0.3655 0.2966 0.8823
vn -0.0000 0.2966 0.9550
vn 0.3655 0.2966 0.8823
vn 0.6753 0.2966 0.6753
vn 0.8823 0.2966 0.3655
vn 0.5796 0.7787 -0.2401
vn 0.6274 0.7787 -0.0000
vn 0.4436 0.7787 -0.4436
vn 0.2401 0.7787 -0.5796
vn -0.0000 0.7787 -0.6274
vn -0.2401 0.7787 -0.5796
vn -0.4436 0.7787 -0.4436
vn -0.5796 0.7787 -0.2401
vn -0.6274 0.7787 -0.0000
vn -0.5796 0.7787 0.2401
vn -0.4436 0.7787 0.4436
vn -0.2401 0.7787 0.5796
vn -0.0000 0.7787 0.6274
vn 0.2401 0.7787 0.5796
vn 0.4436 0.7787 0.4436
vn 0.5796 0.7787 0.2401
vn 0.1656 0.9838 -0.0686
vn 0.1792 0.9838 -0.0000
vn 0.1267 0.9838 -0.1267
vn 0.0686 0.9838 -0.1656
vn -0.0000 0.9838 -0.1792
vn -0.0686 0.9838 -0.1656
vn -0.1267 0.9838 -0.1267
vn -0.1656 0.9838 -0.0686
vn -0.1792 0.9838 -0.0000
vn -0.1656 0.9838 0.0686
vn -0.1267 0.9838 0.1267
vn -0.0686 0.9838 0.1656
vn -0.0000 0.9838 0.1792
vn 0.0686 0.9838 0.1656
vn 0.1267 0.9838 0.1267
vn 0.1656 0.9838 0.0686
vn -0.0000 1.0000 -0.0000
vt 0.126987 0.852753
vt 0.096461 0.852753
vt 0.096461 0.836699
vt 0.126987 0.836699
vt 0.065934 0.852753
vt 0.065934 0.836699
vt 0.035407 0.852753
vt 0.035407 0.836699
vt 0.004881 0.852753
vt 0.004881 0.836699
vt 0.493308 0.852753
vt 0.462781 0.852753
vt 0.462781 0.836699
vt 0.493308 0.836699
vt 0.432254 0.852753
vt 0.432254 0.836699
vt 0.401728 0.852753
vt 0.401728 0.836699
vt 0.371201 0.852753
vt 0.371201 0.836699
vt 0.340674 0.852753
vt 0.340674 0.836699
vt 0.310147 0.852753
vt 0.310147 0.836699
vt 0.279621 0.852753
vt 0.279621 0.836699
vt 0.249094 0.852753
vt 0.249094 0.836699
vt 0.218567 0.852753
vt 0.218567 0.836699
vt 0.188041 0.852753
vt 0.188041 0.836699
vt 0.157514 0.852753
vt 0.157514 0.836699
vt 0.096461 0.756210
vt 0.126987 0.756210
vt 0.065934 0.756210
vt 0.035407 0.756210
vt 0.004881 0.756210
vt 0.462781 0.756210
vt 0.493307 0.756210
vt 0.432254 0.756210
vt 0.401727 0.756210
vt 0.371201 0.756210
vt 0.340674 0.756210
vt 0.310147 0.756210
vt 0.279621 0.756210
vt 0.249094 0.756210
vt 0.218567 0.756210
vt 0.188041 0.756210
vt 0.157514 0.756210
vt 0.096461 0.750504
vt 0.126987 0.750504
vt 0.065934 0.750504
vt 0.035407 0.750504
vt 0.004881 0.750504
vt 0.462781 0.750504
vt 0.493307 0.750504
vt 0.432254 0.750504
vt 0.401727 0.750504
vt 0.371201 0.750504
vt 0.340674 0.750504
vt 0.310147 0.750504
vt 0.279621 0.750504
vt 0.249094 0.750504
vt 0.218567 0.750504
vt 0.188041 0.750504
vt 0.157514 0.750504
vt 0.096461 0.730883
vt 0.126987 0.730883
vt 0.065934 0.730883
vt 0.035407 0.730883
vt 0.004881 0.730883
vt 0.462781 0.730883
vt 0.493308 0.730883
vt 0.432254 0.730883
vt 0.401727 0.730883
vt 0.371201 0.730883
vt 0.340674 0.730883
vt 0.310147 0.730883
vt 0.279621 0.730883
vt 0.249094 0.730883
vt 0.218567 0.730883
vt 0.188041 0.730883
vt 0.157514 0.730883
vt 0.555110 0.846709
vt 0.541781 0.846709
vt 0.541781 0.843752
vt 0.555110 0.843752
vt 0.528453 0.846709
vt 0.528453 0.843752
vt 0.515124 0.846709
vt 0.515124 0.843752
vt 0.501795 0.846709
vt 0.501795 0.843752
vt 0.715055 0.846709
vt 0.701726 0.846709
vt 0.701726 0.843752
vt 0.715055 0.843752
vt 0.688397 0.846709
vt 0.688397 0.843752
vt 0.675068 0.846709
vt 0.675068 0.843752
vt 0.661740 0.846709
vt 0.661740 0.843752
vt 0.648411 0.846709
vt 0.648411 0.843752
vt 0.635082 0.846709
vt 0.635082 0.843752
vt 0.621753 0.846709
vt 0.621753 0.843752
vt 0.608425 0.846709
vt 0.608425 0.843752
vt 0.595096 0.846709
vt 0.595096 0.843752
vt 0.581767 0.846709
vt 0.581767 0.843752
vt 0.568439 0.846709
vt 0.568439 0.843752
vt 0.541781 0.838428
vt 0.555110 0.838428
vt 0.528453 0.838428
vt 0.515124 0.838428
vt 0.501795 0.838428
vt 0.701726 0.838428
vt 0.715055 0.838428
vt 0.688397 0.838428
vt 0.675068 0.838428
vt 0.661740 0.838428
vt 0.648411 0.838428
vt 0.635082 0.838428
vt 0.621753 0.838428
vt 0.608425 0.838428
vt 0.595096 0.838428
vt 0.581767 0.838428
vt 0.568439 0.838428
vt 0.541781 0.831235
vt 0.555110 0.831235
vt 0.528453 0.831235
vt 0.515124 0.831235
vt 0.501795 0.831235
vt 0.701726 0.831235
vt 0.715055 0.831235
vt 0.688397 0.831235
vt 0.675068 0.831235
vt 0.661739 0.831235
vt 0.648411 0.831235
vt 0.635082 0.831235
vt 0.621753 0.831235
vt 0.608425 0.831235
vt 0.595096 0.831235
vt 0.581767 0.831235
vt 0.568439 0.831235
vt 0.541781 0.823342
vt 0.555110 0.823342
vt 0.528453 0.823342
vt 0.515124 0.823342
vt 0.501795 0.823342
vt 0.701726 0.823342
vt 0.715055 0.823342
vt 0.688397 0.823342
vt 0.675068 0.823342
vt 0.661740 0.823342
vt 0.648411 0.823342
vt 0.635082 0.823342
vt 0.621753 0.823342
vt 0.608425 0.823342
vt 0.595096 0.823342
vt 0.581767 0.823342
vt 0.568439 0.823342
vt 0.555110 0.814888
vt 0.541781 0.814888
vt 0.541781 0.808969
vt 0.555110 0.808969
vt 0.528453 0.814888
vt 0.528453 0.808969
vt 0.515124 0.814888
vt 0.515124 0.808969
vt 0.501795 0.814888
vt 0.501795 0.808969
vt 0.715055 0.814888
vt 0.701726 0.814888
vt 0.701726 0.808969
vt 0.715055 0.808969
vt 0.688397 0.814888
vt 0.688397 0.808969
vt 0.675068 0.814888
vt 0.675068 0.808969
vt 0.661740 0.814888
vt 0.661740 0.808969
vt 0.648411 0.814888
vt 0.648411 0.808969
vt 0.635082 0.814888
vt 0.635082 0.808969
vt 0.621753 0.814888
vt 0.621753 0.808969
vt 0.608425 0.814888
vt 0.608425 0.808969
vt 0.595096 0.814888
vt 0.595096 0.808969
vt 0.581767 0.814888
vt 0.581767 0.808969
vt 0.568439 0.814888
vt 0.568439 0.808969
vt 0.541781 0.802884
vt 0.555110 0.802884
vt 0.528453 0.802884
vt 0.515124 0.802884
vt 0.501795 0.802884
vt 0.701726 0.802884
vt 0.715055 0.802884
vt 0.688397 0.802884
vt 0.675068 0.802884
vt 0.661740 0.802884
vt 0.648411 0.802884
vt 0.635082 0.802884
vt 0.621753 0.802884
vt 0.608425 0.802884
vt 0.595096 0.802884
vt 0.581767 0.802884
vt 0.568439 0.802884
vt 0.541781 0.796058
vt 0.555110 0.796058
vt 0.528452 0.796058
vt 0.515124 0.796058
vt 0.501795 0.796058
vt 0.701726 0.796058
vt 0.715055 0.796058
vt 0.688397 0.796058
vt 0.675068 0.796058
vt 0.661739 0.796058
vt 0.648411 0.796058
vt 0.635082 0.796058
vt 0.621753 0.796058
vt 0.608425 0.796058
vt 0.595096 0.796058
vt 0.581767 0.796058
vt 0.568439 0.796058
vt 0.541781 0.786363
vt 0.555110 0.786363
vt 0.528453 0.786363
vt 0.515124 0.786363
vt 0.501795 0.786363
vt 0.701726 0.786363
vt 0.715055 0.786363
vt 0.688397 0.786363
vt 0.675068 0.786363
vt 0.661739 0.786363
vt 0.648411 0.786363
vt 0.635082 0.786363
vt 0.621753 0.786363
vt 0.608425 0.786363
vt 0.595096 0.786363
vt 0.581767 0.786363
vt 0.568439 0.786363
vt 0.632812 0.763719
vt 0.643741 0.763719
vt 0.643741 0.770403
vt 0.632812 0.770403
vt 0.654669 0.763719
vt 0.654669 0.770403
vt 0.665598 0.763719
vt 0.665598 0.770403
vt 0.676526 0.763719
vt 0.676526 0.770403
vt 0.501671 0.763719
vt 0.512600 0.763719
vt 0.512600 0.770403
vt 0.501671 0.770403
vt 0.523528 0.763719
vt 0.523528 0.770403
vt 0.534456 0.763719
vt 0.534456 0.770403
vt 0.545385 0.763719
vt 0.545385 0.770403
vt 0.556313 0.763719
vt 0.556313 0.770403
vt 0.567242 0.763719
vt 0.567242 0.770403
vt 0.578170 0.763719
vt 0.578170 0.770403
vt 0.589099 0.763719
vt 0.589099 0.770403
vt 0.600027 0.763719
vt 0.600027 0.770403
vt 0.610955 0.763719
vt 0.610955 0.770403
vt 0.621884 0.763719
vt 0.621884 0.770403
vt 0.643741 0.775229
vt 0.632812 0.775229
vt 0.654669 0.775229
vt 0.665598 0.775229
vt 0.676526 0.775229
vt 0.512600 0.775229
vt 0.501671 0.775229
vt 0.523528 0.775229
vt 0.534456 0.775229
vt 0.545385 0.775229
vt 0.556313 0.775229
vt 0.567242 0.775229
vt 0.578170 0.775229
vt 0.589099 0.775229
vt 0.600027 0.775229
vt 0.610955 0.775229
vt 0.621884 0.775229
vt 0.643741 0.779465
vt 0.632812 0.779465
vt 0.654669 0.779465
vt 0.665598 0.779465
vt 0.676526 0.779465
vt 0.512600 0.779465
vt 0.501671 0.779465
vt 0.523528 0.779465
vt 0.534456 0.779465
vt 0.545385 0.779465
vt 0.556313 0.779465
vt 0.567242 0.779465
vt 0.578170 0.779465
vt 0.589099 0.779465
vt 0.600027 0.779465
vt 0.610955 0.779465
vt 0.621884 0.779465
vt 0.681236 0.731716
vt 0.696200 0.731716
vt 0.696200 0.738250
vt 0.681236 0.738250
vt 0.711163 0.731716
vt 0.711163 0.738250
vt 0.726127 0.731716
vt 0.726127 0.738250
vt 0.741091 0.731716
vt 0.741091 0.738250
vt 0.501671 0.731716
vt 0.516635 0.731716
vt 0.516635 0.738250
vt 0.501671 0.738250
vt 0.531599 0.731716
vt 0.531599 0.738250
vt 0.546563 0.731716
vt 0.546563 0.738250
vt 0.561526 0.731716
vt 0.561526 0.738250
vt 0.576490 0.731716
vt 0.576490 0.738250
vt 0.591454 0.731716
vt 0.591454 0.738250
vt 0.606417 0.731716
vt 0.606417 0.738250
vt 0.621381 0.731716
vt 0.621381 0.738250
vt 0.636345 0.731716
vt 0.636345 0.738250
vt 0.651308 0.731716
vt 0.651308 0.738250
vt 0.666272 0.731716
vt 0.666272 0.738250
vt 0.696200 0.744857
vt 0.681236 0.744857
vt 0.711163 0.744857
vt 0.726127 0.744857
vt 0.741091 0.744857
vt 0.516635 0.744857
vt 0.501671 0.744857
vt 0.531599 0.744857
vt 0.546563 0.744857
vt 0.561526 0.744857
vt 0.576490 0.744857
vt 0.591454 0.744857
vt 0.606417 0.744857
vt 0.621381 0.744857
vt 0.636345 0.744857
vt 0.651308 0.744857
vt 0.666272 0.744857
vt 0.696200 0.749299
vt 0.681236 0.749299
vt 0.711163 0.749299
vt 0.726127 0.749299
vt 0.741091 0.749300
vt 0.516635 0.749299
vt 0.501671 0.749299
vt 0.531599 0.749299
vt 0.546563 0.749299
vt 0.561526 0.749299
vt 0.576490 0.749299
vt 0.591454 0.749299
vt 0.606418 0.749299
vt 0.621381 0.749299
vt 0.636345 0.749299
vt 0.651309 0.749299
vt 0.666272 0.749299
vt 0.696200 0.753992
vt 0.681236 0.753992
vt 0.711163 0.753992
vt 0.726127 0.753992
vt 0.741091 0.753992
vt 0.516635 0.753992
vt 0.501671 0.753992
vt 0.531599 0.753992
vt 0.546563 0.753992
vt 0.561526 0.753992
vt 0.576490 0.753992
vt 0.591454 0.753992
vt 0.606417 0.753992
vt 0.621381 0.753992
vt 0.636345 0.753992
vt 0.651308 0.753992
vt 0.666272 0.753992
vt 0.551882 0.004883
vt 0.597465 0.004883
vt 0.597465 0.025509
vt 0.551882 0.025509
vt 0.643048 0.004883
vt 0.643048 0.025509
vt 0.688631 0.004884
vt 0.688631 0.025509
vt 0.734214 0.004884
vt 0.734214 0.025509
vt 0.004888 0.004882
vt 0.050471 0.004882
vt 0.050471 0.025508
vt 0.004888 0.025507
vt 0.096053 0.004882
vt 0.096053 0.025508
vt 0.141636 0.004882
vt 0.141636 0.025508
vt 0.187219 0.004882
vt 0.187219 0.025508
vt 0.232802 0.004882
vt 0.232802 0.025508
vt 0.278385 0.004882
vt 0.278385 0.025508
vt 0.323968 0.004883
vt 0.323968 0.025508
vt 0.369551 0.004883
vt 0.369551 0.025508
vt 0.415134 0.004883
vt 0.415134 0.025508
vt 0.460717 0.004883
vt 0.460717 0.025509
vt 0.506299 0.004883
vt 0.506299 0.025509
vt 0.597465 0.051372
vt 0.551882 0.051372
vt 0.643048 0.051372
vt 0.688631 0.051372
vt 0.734214 0.051372
vt 0.050471 0.051370
vt 0.004888 0.051370
vt 0.096053 0.051371
vt 0.141636 0.051371
vt 0.187219 0.051371
vt 0.232802 0.051371
vt 0.278385 0.051371
vt 0.323968 0.051371
vt 0.369551 0.051371
vt 0.415134 0.051371
vt 0.460717 0.051372
vt 0.506299 0.051372
vt 0.597465 0.075421
vt 0.551882 0.075421
vt 0.643048 0.075422
vt 0.688631 0.075422
vt 0.734214 0.075422
vt 0.050470 0.075420
vt 0.004888 0.075420
vt 0.096053 0.075420
vt 0.141636 0.075420
vt 0.187219 0.075420
vt 0.232802 0.075420
vt 0.278385 0.075421
vt 0.323968 0.075421
vt 0.369551 0.075421
vt 0.415134 0.075421
vt 0.460716 0.075421
vt 0.506299 0.075421
vt 0.597465 0.101485
vt 0.551882 0.101485
vt 0.643048 0.101485
vt 0.688631 0.101485
vt 0.734214 0.101485
vt 0.050470 0.101483
vt 0.004888 0.101483
vt 0.096053 0.101484
vt 0.141636 0.101484
vt 0.187219 0.101484
vt 0.232802 0.101484
vt 0.278385 0.101484
vt 0.323968 0.101484
vt 0.369551 0.101484
vt 0.415133 0.101484
vt 0.460716 0.101485
vt 0.506299 0.101485
vt 0.551882 0.133736
vt 0.597465 0.133736
vt 0.597465 0.167655
vt 0.551882 0.167655
vt 0.643048 0.133737
vt 0.643048 0.167655
vt 0.688631 0.133737
vt 0.688631 0.167655
vt 0.734213 0.133737
vt 0.734213 0.167655
vt 0.004887 0.133735
vt 0.050470 0.133735
vt 0.050470 0.167653
vt 0.004887 0.167653
vt 0.096053 0.133735
vt 0.096053 0.167654
vt 0.141636 0.133735
vt 0.141636 0.167654
vt 0.187219 0.133735
vt 0.187219 0.167654
vt 0.232802 0.133735
vt 0.232802 0.167654
vt 0.278385 0.133736
vt 0.278385 0.167654
vt 0.323968 0.133736
vt 0.323968 0.167654
vt 0.369550 0.133736
vt 0.369550 0.167654
vt 0.415133 0.133736
vt 0.415133 0.167654
vt 0.460716 0.133736
vt 0.460716 0.167655
vt 0.506299 0.133736
vt 0.506299 0.167655
vt 0.597465 0.205780
vt 0.551882 0.205780
vt 0.643048 0.205780
vt 0.688631 0.205780
vt 0.734213 0.205780
vt 0.050470 0.205778
vt 0.004887 0.205778
vt 0.096053 0.205778
vt 0.141636 0.205779
vt 0.187219 0.205779
vt 0.232802 0.205779
vt 0.278385 0.205779
vt 0.323967 0.205779
vt 0.369550 0.205779
vt 0.415133 0.205779
vt 0.460716 0.205779
vt 0.506299 0.205780
vt 0.597465 0.256807
vt 0.551882 0.256807
vt 0.643047 0.256807
vt 0.688631 0.256807
vt 0.734213 0.256807
vt 0.050470 0.256805
vt 0.004887 0.256805
vt 0.096053 0.256806
vt 0.141636 0.256806
vt 0.187219 0.256806
vt 0.232801 0.256806
vt 0.278384 0.256806
vt 0.323967 0.256806
vt 0.369550 0.256806
vt 0.415133 0.256806
vt 0.460716 0.256806
vt 0.506299 0.256807
vt 0.597464 0.313128
vt 0.551882 0.313128
vt 0.643047 0.313128
vt 0.688630 0.313128
vt 0.734213 0.313128
vt 0.050470 0.313127
vt 0.004887 0.313126
vt 0.096053 0.313127
vt 0.141636 0.313127
vt 0.187218 0.313127
vt 0.232801 0.313127
vt 0.278384 0.313127
vt 0.323967 0.313127
vt 0.369550 0.313127
vt 0.415133 0.313127
vt 0.460716 0.313128
vt 0.506299 0.313128
vt 0.597464 0.359304
vt 0.551881 0.359304
vt 0.643047 0.359305
vt 0.688630 0.359305
vt 0.734213 0.359305
vt 0.050470 0.359303
vt 0.004887 0.359303
vt 0.096052 0.359303
vt 0.141635 0.359303
vt 0.187218 0.359303
vt 0.232801 0.359303
vt 0.278384 0.359304
vt 0.323967 0.359304
vt 0.369550 0.359304
vt 0.415133 0.359304
vt 0.460716 0.359304
vt 0.506298 0.359304
vt 0.597464 0.402050
vt 0.551881 0.402050
vt 0.643047 0.402050
vt 0.688630 0.402050
vt 0.734213 0.402050
vt 0.050470 0.402048
vt 0.004887 0.402048
vt 0.096052 0.402049
vt 0.141635 0.402049
vt 0.187218 0.402049
vt 0.232801 0.402049
vt 0.278384 0.402049
vt 0.323967 0.402049
vt 0.369550 0.402049
vt 0.415133 0.402049
vt 0.460716 0.402050
vt 0.506298 0.402050
vt 0.747388 0.860883
vt 0.809264 0.860883
vt 0.809264 0.865933
vt 0.747388 0.865933
vt 0.871139 0.860883
vt 0.871139 0.865933
vt 0.933015 0.860883
vt 0.933015 0.865933
vt 0.994891 0.860883
vt 0.994891 0.865933
vt 0.004880 0.860883
vt 0.066756 0.860883
vt 0.066756 0.865933
vt 0.004880 0.865933
vt 0.128632 0.860883
vt 0.128632 0.865933
vt 0.190507 0.860883
vt 0.190507 0.865933
vt 0.252383 0.860883
vt 0.252383 0.865933
vt 0.314259 0.860883
vt 0.314259 0.865933
vt 0.376134 0.860883
vt 0.376134 0.865933
vt 0.438010 0.860883
vt 0.438010 0.865933
vt 0.499886 0.860883
vt 0.499886 0.865933
vt 0.561761 0.860883
vt 0.561761 0.865933
vt 0.623637 0.860883
vt 0.623637 0.865933
vt 0.685513 0.860883
vt 0.685513 0.865933
vt 0.915563 0.014512
vt 0.956288 0.041724
vt 0.867525 0.130487
vt 0.867525 0.004957
vt 0.819487 0.014512
vt 0.778762 0.041724
vt 0.751551 0.082449
vt 0.741995 0.130487
vt 0.751551 0.178525
vt 0.778762 0.219250
vt 0.819487 0.246461
vt 0.867525 0.256017
vt 0.915563 0.246461
vt 0.956288 0.219250
vt 0.983500 0.178525
vt 0.993055 0.130487
vt 0.555110 0.850576
vt 0.541781 0.850576
vt 0.528453 0.850576
vt 0.515124 0.850576
vt 0.501795 0.850576
vt 0.715055 0.850576
vt 0.701726 0.850576
vt 0.688397 0.850576
vt 0.675068 0.850576
vt 0.661740 0.850576
vt 0.648411 0.850576
vt 0.635082 0.850576
vt 0.621753 0.850576
vt 0.608425 0.850576
vt 0.595096 0.850576
vt 0.581767 0.850576
vt 0.568439 0.850576
vt 0.809264 0.874432
vt 0.747388 0.874432
vt 0.871139 0.874432
vt 0.933015 0.874432
vt 0.994891 0.874432
vt 0.066756 0.874432
vt 0.004880 0.874432
vt 0.128632 0.874432
vt 0.190507 0.874432
vt 0.252383 0.874432
vt 0.314259 0.874432
vt 0.376134 0.874432
vt 0.438010 0.874432
vt 0.499886 0.874432
vt 0.561761 0.874432
vt 0.623637 0.874432
vt 0.685513 0.874432
vt 0.809264 0.883594
vt 0.747388 0.883594
vt 0.871139 0.883594
vt 0.933015 0.883594
vt 0.994891 0.883594
vt 0.066756 0.883594
vt 0.004880 0.883594
vt 0.128632 0.883594
vt 0.190507 0.883594
vt 0.252383 0.883594
vt 0.314259 0.883594
vt 0.376134 0.883594
vt 0.438010 0.883594
vt 0.499886 0.883594
vt 0.561761 0.883594
vt 0.623637 0.883594
vt 0.685513 0.883594
vt 0.809264 0.890682
vt 0.747388 0.890682
vt 0.871139 0.890682
vt 0.933015 0.890682
vt 0.994891 0.890682
vt 0.066756 0.890682
vt 0.004880 0.890682
vt 0.128632 0.890682
vt 0.190507 0.890682
vt 0.252383 0.890682
vt 0.314259 0.890682
vt 0.376134 0.890682
vt 0.438010 0.890682
vt 0.499886 0.890682
vt 0.561761 0.890682
vt 0.623637 0.890682
vt 0.685513 0.890682
vt 0.500522 0.410885
vt 0.541826 0.410885
vt 0.541826 0.453812
vt 0.500522 0.453812
vt 0.583129 0.410885
vt 0.583129 0.453812
vt 0.624433 0.410885
vt 0.624433 0.453812
vt 0.665736 0.410885
vt 0.665736 0.453812
vt 0.004881 0.410885
vt 0.046185 0.410885
vt 0.046185 0.453812
vt 0.004881 0.453812
vt 0.087488 0.410885
vt 0.087488 0.453812
vt 0.128791 0.410885
vt 0.128791 0.453812
vt 0.170095 0.410885
vt 0.170095 0.453812
vt 0.211398 0.410885
vt 0.211398 0.453812
vt 0.252702 0.410885
vt 0.252702 0.453812
vt 0.294005 0.410885
vt 0.294005 0.453812
vt 0.335309 0.410885
vt 0.335309 0.453812
vt 0.376612 0.410885
vt 0.376612 0.453812
vt 0.417916 0.410885
vt 0.417916 0.453812
vt 0.459219 0.410885
vt 0.459219 0.453812
vt 0.541826 0.499200
vt 0.500522 0.499200
vt 0.583129 0.499200
vt 0.624433 0.499200
vt 0.665736 0.499200
vt 0.046185 0.499200
vt 0.004881 0.499200
vt 0.087488 0.499200
vt 0.128792 0.499200
vt 0.170095 0.499200
vt 0.211398 0.499200
vt 0.252702 0.499200
vt 0.294005 0.499200
vt 0.335309 0.499200
vt 0.376612 0.499200
vt 0.417916 0.499200
vt 0.459219 0.499200
vt 0.541826 0.554359
vt 0.500522 0.554359
vt 0.583129 0.554359
vt 0.624433 0.554359
vt 0.665736 0.554359
vt 0.046185 0.554359
vt 0.004881 0.554359
vt 0.087488 0.554359
vt 0.128792 0.554359
vt 0.170095 0.554359
vt 0.211398 0.554359
vt 0.252702 0.554359
vt 0.294005 0.554359
vt 0.335309 0.554359
vt 0.376612 0.554359
vt 0.417916 0.554359
vt 0.459219 0.554359
vt 0.541826 0.604811
vt 0.500522 0.604811
vt 0.583129 0.604811
vt 0.624433 0.604811
vt 0.665736 0.604811
vt 0.046185 0.604811
vt 0.004881 0.604811
vt 0.087488 0.604811
vt 0.128792 0.604811
vt 0.170095 0.604811
vt 0.211398 0.604811
vt 0.252702 0.604811
vt 0.294005 0.604811
vt 0.335309 0.604811
vt 0.376612 0.604811
vt 0.417916 0.604811
vt 0.459219 0.604811
vt 0.541826 0.642438
vt 0.500522 0.642438
vt 0.583129 0.642438
vt 0.624433 0.642438
vt 0.665736 0.642438
vt 0.046185 0.642438
vt 0.004881 0.642438
vt 0.087488 0.642438
vt 0.128792 0.642438
vt 0.170095 0.642438
vt 0.211398 0.642438
vt 0.252702 0.642438
vt 0.294005 0.642438
vt 0.335309 0.642438
vt 0.376612 0.642438
vt 0.417916 0.642438
vt 0.459219 0.642438
vt 0.541826 0.679181
vt 0.500522 0.679181
vt 0.583129 0.679181
vt 0.624433 0.679181
vt 0.665736 0.679181
vt 0.046185 0.679181
vt 0.004881 0.679181
vt 0.087488 0.679181
vt 0.128792 0.679181
vt 0.170095 0.679181
vt 0.211398 0.679181
vt 0.252702 0.679181
vt 0.294005 0.679181
vt 0.335309 0.679181
vt 0.376612 0.679181
vt 0.417916 0.679181
vt 0.459219 0.679181
vt 0.541826 0.698352
vt 0.500522 0.698352
vt 0.583129 0.698352
vt 0.624433 0.698352
vt 0.665736 0.698352
vt 0.046185 0.698352
vt 0.004881 0.698352
vt 0.087488 0.698352
vt 0.128792 0.698352
vt 0.170095 0.698352
vt 0.211398 0.698352
vt 0.252702 0.698352
vt 0.294005 0.698352
vt 0.335309 0.698352
vt 0.376612 0.698352
vt 0.417916 0.698352
vt 0.459219 0.698352
vt 0.541826 0.721969
vt 0.500522 0.721969
vt 0.583129 0.721969
vt 0.624433 0.721969
vt 0.665736 0.721969
vt 0.046185 0.721969
vt 0.004881 0.721969
vt 0.087488 0.721969
vt 0.128792 0.721969
vt 0.170095 0.721969
vt 0.211398 0.721969
vt 0.252702 0.721969
vt 0.294005 0.721969
vt 0.335309 0.721969
vt 0.376612 0.721969
vt 0.417916 0.721969
vt 0.459219 0.721969
vt 0.807653 0.323896
vt 0.762401 0.278643
vt 0.783163 0.264771
vt 0.807653 0.259899
vt 0.832144 0.264771
vt 0.852906 0.278644
vt 0.866778 0.299406
vt 0.871650 0.323896
vt 0.866778 0.348386
vt 0.852906 0.369148
vt 0.832144 0.383021
vt 0.807653 0.387892
vt 0.783163 0.383021
vt 0.762401 0.369148
vt 0.748528 0.348386
vt 0.743657 0.323896
vt 0.983500 0.082448
vt 0.748528 0.299406
s 1
f 1/1/1 48/2/2 49/3/2 2/4/1
f 48/2/2 93/5/3 94/6/3 49/3/2
f 93/5/3 138/7/4 139/8/4 94/6/3
f 138/7/4 183/9/5 184/10/5 139/8/4
f 183/11/5 228/12/6 229/13/6 184/14/5
f 228/12/6 273/15/7 274/16/7 229/13/6
f 273/15/7 318/17/8 319/18/8 274/16/7
f 318/17/8 363/19/9 364/20/9 319/18/8
f 363/19/9 408/21/10 409/22/10 364/20/9
f 408/21/10 453/23/11 454/24/11 409/22/10
f 453/23/11 498/25/12 499/26/12 454/24/11
f 498/25/12 543/27/13 544/28/13 499/26/12
f 543/27/13 588/29/14 589/30/14 544/28/13
f 588/29/14 633/31/15 634/32/15 589/30/14
f 633/31/15 678/33/16 679/34/16 634/32/15
f 678/33/16 1/1/1 2/4/1 679/34/16
f 2/4/17 49/3/18 50/35/18 3/36/17
f 49/3/18 94/6/19 95/37/19 50/35/18
f 94/6/19 139/8/20 140/38/20 95/37/19
f 139/8/20 184/10/21 185/39/21 140/38/20
f 184/14/21 229/13/22 230/40/22 185/41/21
f 229/13/22 274/16/23 275/42/23 230/40/22
f 274/16/23 319/18/24 320/43/24 275/42/23
f 319/18/24 364/20/25 365/44/25 320/43/24
f 364/20/25 409/22/26 410/45/26 365/44/25
f 409/22/26 454/24/27 455/46/27 410/45/26
f 454/24/27 499/26/28 500/47/28 455/46/27
f 499/26/28 544/28/29 545/48/29 500/47/28
f 544/28/29 589/30/30 590/49/30 545/48/29
f 589/30/30 634/32/31 635/50/31 590/49/30
f 634/32/31 679/34/32 680/51/32 635/50/31
f 679/34/32 2/4/17 3/36/17 680/51/32
f 3/36/33 50/35/34 51/52/34 4/53/33
f 50/35/34 95/37/35 96/54/35 51/52/34
f 95/37/35 140/38/36 141/55/36 96/54/35
f 140/38/36 185/39/37 186/56/37 141/55/36
f 185/41/37 230/40/38 231/57/38 186/58/37
f 230/40/38 275/42/39 276/59/39 231/57/38
f 275/42/39 320/43/40 321/60/40 276/59/39
f 320/43/40 365/44/41 366/61/41 321/60/40
f 365/44/41 410/45/42 411/62/42 366/61/41
f 410/45/42 455/46/43 456/63/43 411/62/42
f 455/46/43 500/47/44 501/64/44 456/63/43
f 500/47/44 545/48/45 546/65/45 501/64/44
f 545/48/45 590/49/46 591/66/46 546/65/45
f 590/49/46 635/50/47 636/67/47 591/66/46
f 635/50/47 680/51/48 681/68/48 636/67/47
f 680/51/48 3/36/33 4/53/33 681/68/48
f 4/53/49 51/52/50 52/69/50 5/70/49
f 51/52/50 96/54/51 97/71/51 52/69/50
f 96/54/51 141/55/52 142/72/52 97/71/51
f 141/55/52 186/56/53 187/73/53 142/72/52
f 186/58/53 231/57/54 232/74/54 187/75/53
f 231/57/54 276/59/55 277/76/55 232/74/54
f 276/59/55 321/60/56 322/77/56 277/76/55
f 321/60/56 366/61/57 367/78/57 322/77/56
f 366/61/57 411/62/58 412/79/58 367/78/57
f 411/62/58 456/63/59 457/80/59 412/79/58
f 456/63/59 501/64/60 502/81/60 457/80/59
f 501/64/60 546/65/61 547/82/61 502/81/60
f 546/65/61 591/66/62 592/83/62 547/82/61
f 591/66/62 636/67/63 637/84/63 592/83/62
f 636/67/63 681/68/64 682/85/64 637/84/63
f 681/68/64 4/53/49 5/70/49 682/85/64
f 34/86/65 80/87/66 53/88/67 6/89/68
f 80/87/66 125/90/69 98/91/70 53/88/67
f 125/90/69 170/92/71 143/93/72 98/91/70
f 170/92/71 215/94/73 188/95/74 143/93/72
f 215/96/73 260/97/75 233/98/76 188/99/74
f 260/97/75 305/100/77 278/101/78 233/98/76
f 305/100/77 350/102/79 323/103/80 278/101/78
f 350/102/79 395/104/81 368/105/82 323/103/80
f 395/104/81 440/106/83 413/107/84 368/105/82
f 440/106/83 485/108/85 458/109/86 413/107/84
f 485/108/85 530/110/87 503/111/88 458/109/86
f 530/110/87 575/112/89 548/113/90 503/111/88
f 575/112/89 620/114/91 593/115/92 548/113/90
f 620/114/91 665/116/93 638/117/94 593/115/92
f 665/116/93 710/118/95 683/119/96 638/117/94
f 710/118/95 34/86/65 6/89/68 683/119/96
f 6/89/68 53/88/67 54/120/97 7/121/98
f 53/88/67 98/91/70 99/122/99 54/120/97
f 98/91/70 143/93/72 144/123/100 99/122/99
f 143/93/72 188/95/74 189/124/101 144/123/100
f 188/99/74 233/98/76 234/125/102 189/126/101
f 233/98/76 278/101/78 279/127/103 234/125/102
f 278/101/78 323/103/80 324/128/104 279/127/103
f 323/103/80 368/105/82 369/129/105 324/128/104
f 368/105/82 413/107/84 414/130/106 369/129/105
f 413/107/84 458/109/86 459/131/107 414/130/106
f 458/109/86 503/111/88 504/132/108 459/131/107
f 503/111/88 548/113/90 549/133/109 504/132/108
f 548/113/90 593/115/92 594/134/110 549/133/109
f 593/115/92 638/117/94 639/135/111 594/134/110
f 638/117/94 683/119/96 684/136/112 639/135/111
f 683/119/96 6/89/68 7/121/98 684/136/112
f 7/121/98 54/120/97 55/137/113 8/138/114
f 54/120/97 99/122/99 100/139/115 55/137/113
f 99/122/99 144/123/100 145/140/116 100/139/115
f 144/123/100 189/124/101 190/141/117 145/140/116
f 189/126/101 234/125/102 235/142/118 190/143/117
f 234/125/102 279/127/103 280/144/119 235/142/118
f 279/127/103 324/128/104 325/145/120 280/144/119
f 324/128/104 369/129/105 370/146/121 325/145/120
f 369/129/105 414/130/106 415/147/122 370/146/121
f 414/130/106 459/131/107 460/148/123 415/147/122
f 459/131/107 504/132/108 505/149/124 460/148/123
f 504/132/108 549/133/109 550/150/125 505/149/124
f 549/133/109 594/134/110 595/151/126 550/150/125
f 594/134/110 639/135/111 640/152/127 595/151/126
f 639/135/111 684/136/112 685/153/128 640/152/127
f 684/136/112 7/121/98 8/138/114 685/153/128
f 8/138/114 55/137/113 56/154/129 9/155/130
f 55/137/113 100/139/115 101/156/131 56/154/129
f 100/139/115 145/140/116 146/157/132 101/156/131
f 145/140/116 190/141/117 191/158/133 146/157/132
f 190/143/117 235/142/118 236/159/134 191/160/133
f 235/142/118 280/144/119 281/161/135 236/159/134
f 280/144/119 325/145/120 326/162/136 281/161/135
f 325/145/120 370/146/121 371/163/137 326/162/136
f 370/146/121 415/147/122 416/164/138 371/163/137
f 415/147/122 460/148/123 461/165/139 416/164/138
f 460/148/123 505/149/124 506/166/140 461/165/139
f 505/149/124 550/150/125 551/167/141 506/166/140
f 550/150/125 595/151/126 596/168/142 551/167/141
f 595/151/126 640/152/127 641/169/143 596/168/142
f 640/152/127 685/153/128 686/170/144 641/169/143
f 685/153/128 8/138/114 9/155/130 686/170/144
f 33/171/145 79/172/146 57/173/147 10/174/148
f 79/172/146 124/175/149 102/176/150 57/173/147
f 124/175/149 169/177/151 147/178/152 102/176/150
f 169/177/151 214/179/153 192/180/154 147/178/152
f 214/181/153 259/182/155 237/183/156 192/184/154
f 259/182/155 304/185/157 282/186/158 237/183/156
f 304/185/157 349/187/159 327/188/160 282/186/158
f 349/187/159 394/189/161 372/190/162 327/188/160
f 394/189/161 439/191/163 417/192/164 372/190/162
f 439/191/163 484/193/165 462/194/166 417/192/164
f 484/193/165 529/195/167 507/196/168 462/194/166
f 529/195/167 574/197/169 552/198/170 507/196/168
f 574/197/169 619/199/171 597/200/172 552/198/170
f 619/199/171 664/201/173 642/202/174 597/200/172
f 664/201/173 709/203/175 687/204/176 642/202/174
f 709/203/175 33/171/145 10/174/148 687/204/176
f 10/174/148 57/173/147 58/205/177 11/206/178
f 57/173/147 102/176/150 103/207/179 58/205/177
f 102/176/150 147/178/152 148/208/180 103/207/179
f 147/178/152 192/180/154 193/209/181 148/208/180
f 192/184/154 237/183/156 238/210/182 193/211/181
f 237/183/156 282/186/158 283/212/183 238/210/182
f 282/186/158 327/188/160 328/213/184 283/212/183
f 327/188/160 372/190/162 373/214/185 328/213/184
f 372/190/162 417/192/164 418/215/186 373/214/185
f 417/192/164 462/194/166 463/216/187 418/215/186
f 462/194/166 507/196/168 508/217/188 463/216/187
f 507/196/168 552/198/170 553/218/189 508/217/188
f 552/198/170 597/200/172 598/219/190 553/218/189
f 597/200/172 642/202/174 643/220/191 598/219/190
f 642/202/174 687/204/176 688/221/192 643/220/191
f 687/204/176 10/174/148 11/206/178 688/221/192
f 11/206/178 58/205/177 59/222/193 12/223/194
f 58/205/177 103/207/179 104/224/195 59/222/193
f 103/207/179 148/208/180 149/225/196 104/224/195
f 148/208/180 193/209/181 194/226/197 149/225/196
f 193/211/181 238/210/182 239/227/198 194/228/197
f 238/210/182 283/212/183 284/229/199 239/227/198
f 283/212/183 328/213/184 329/230/200 284/229/199
f 328/213/184 373/214/185 374/231/201 329/230/200
f 373/214/185 418/215/186 419/232/202 374/231/201
f 418/215/186 463/216/187 464/233/203 419/232/202
f 463/216/187 508/217/188 509/234/204 464/233/203
f 508/217/188 553/218/189 554/235/205 509/234/204
f 553/218/189 598/219/190 599/236/206 554/235/205
f 598/219/190 643/220/191 644/237/207 599/236/206
f 643/220/191 688/221/192 689/238/208 644/237/207
f 688/221/192 11/206/178 12/223/194 689/238/208
f 12/223/194 59/222/193 60/239/209 13/240/210
f 59/222/193 104/224/195 105/241/211 60/239/209
f 104/224/195 149/225/196 150/242/212 105/241/211
f 149/225/196 194/226/197 195/243/213 150/242/212
f 194/228/197 239/227/198 240/244/214 195/245/213
f 239/227/198 284/229/199 285/246/215 240/244/214
f 284/229/199 329/230/200 330/247/216 285/246/215
f 329/230/200 374/231/201 375/248/217 330/247/216
f 374/231/201 419/232/202 420/249/218 375/248/217
f 419/232/202 464/233/203 465/250/219 420/249/218
f 464/233/203 509/234/204 510/251/220 465/250/219
f 509/234/204 554/235/205 555/252/221 510/251/220
f 554/235/205 599/236/206 600/253/222 555/252/221
f 599/236/206 644/237/207 645/254/223 600/253/222
f 644/237/207 689/238/208 690/255/224 645/254/223
f 689/238/208 12/223/194 13/240/210 690/255/224
f 13/256/225 60/257/226 61/258/227 14/259/228
f 60/257/226 105/260/229 106/261/230 61/258/227
f 105/260/229 150/262/231 151/263/232 106/261/230
f 150/262/231 195/264/233 196/265/234 151/263/232
f 195/266/233 240/267/235 241/268/236 196/269/234
f 240/267/235 285/270/237 286/271/238 241/268/236
f 285/270/237 330/272/239 331/273/240 286/271/238
f 330/272/239 375/274/241 376/275/242 331/273/240
f 375/274/241 420/276/243 421/277/244 376/275/242
f 420/276/243 465/278/245 466/279/246 421/277/244
f 465/278/245 510/280/247 511/281/248 466/279/246
f 510/280/247 555/282/249 556/283/250 511/281/248
f 555/282/249 600/284/251 601/285/252 556/283/250
f 600/284/251 645/286/253 646/287/254 601/285/252
f 645/286/253 690/288/255 691/289/256 646/287/254
f 690/288/255 13/256/225 14/259/228 691/289/256
f 14/259/228 61/258/227 62/290/257 15/291/258
f 61/258/227 106/261/230 107/292/259 62/290/257
f 106/261/230 151/263/232 152/293/260 107/292/259
f 151/263/232 196/265/234 197/294/261 152/293/260
f 196/269/234 241/268/236 242/295/262 197/296/261
f 241/268/236 286/271/238 287/297/263 242/295/262
f 286/271/238 331/273/240 332/298/264 287/297/263
f 331/273/240 376/275/242 377/299/265 332/298/264
f 376/275/242 421/277/244 422/300/266 377/299/265
f 421/277/244 466/279/246 467/301/267 422/300/266
f 466/279/246 511/281/248 512/302/268 467/301/267
f 511/281/248 556/283/250 557/303/269 512/302/268
f 556/283/250 601/285/252 602/304/270 557/303/269
f 601/285/252 646/287/254 647/305/271 602/304/270
f 646/287/254 691/289/256 692/306/272 647/305/271
f 691/289/256 14/259/228 15/291/258 692/306/272
f 15/291/258 62/290/257 63/307/273 16/308/274
f 62/290/257 107/292/259 108/309/275 63/307/273
f 107/292/259 152/293/260 153/310/276 108/309/275
f 152/293/260 197/294/261 198/311/277 153/310/276
f 197/296/261 242/295/262 243/312/278 198/313/277
f 242/295/262 287/297/263 288/314/279 243/312/278
f 287/297/263 332/298/264 333/315/280 288/314/279
f 332/298/264 377/299/265 378/316/281 333/315/280
f 377/299/265 422/300/266 423/317/282 378/316/281
f 422/300/266 467/301/267 468/318/283 423/317/282
f 467/301/267 512/302/268 513/319/284 468/318/283
f 512/302/268 557/303/269 558/320/285 513/319/284
f 557/303/269 602/304/270 603/321/286 558/320/285
f 602/304/270 647/305/271 648/322/287 603/321/286
f 647/305/271 692/306/272 693/323/288 648/322/287
f 692/306/272 15/291/258 16/308/274 693/323/288
f 16/324/289 63/325/290 64/326/291 17/327/292
f 63/325/290 108/328/293 109/329/294 64/326/291
f 108/328/293 153/330/295 154/331/296 109/329/294
f 153/330/295 198/332/297 199/333/298 154/331/296
f 198/334/297 243/335/299 244/336/300 199/337/298
f 243/335/299 288/338/301 289/339/302 244/336/300
f 288/338/301 333/340/303 334/341/304 289/339/302
f 333/340/303 378/342/305 379/343/306 334/341/304
f 378/342/305 423/344/307 424/345/308 379/343/306
f 423/344/307 468/346/309 469/347/310 424/345/308
f 468/346/309 513/348/311 514/349/312 469/347/310
f 513/348/311 558/350/313 559/351/314 514/349/312
f 558/350/313 603/352/315 604/353/316 559/351/314
f 603/352/315 648/354/317 649/355/318 604/353/316
f 648/354/317 693/356/319 694/357/320 649/355/318
f 693/356/319 16/324/289 17/327/292 694/357/320
f 17/327/292 64/326/291 65/358/321 18/359/322
f 64/326/291 109/329/294 110/360/323 65/358/321
f 109/329/294 154/331/296 155/361/324 110/360/323
f 154/331/296 199/333/298 200/362/325 155/361/324
f 199/337/298 244/336/300 245/363/326 200/364/325
f 244/336/300 289/339/302 290/365/327 245/363/326
f 289/339/302 334/341/304 335/366/328 290/365/327
f 334/341/304 379/343/306 380/367/329 335/366/328
f 379/343/306 424/345/308 425/368/330 380/367/329
f 424/345/308 469/347/310 470/369/331 425/368/330
f 469/347/310 514/349/312 515/370/332 470/369/331
f 514/349/312 559/351/314 560/371/333 515/370/332
f 559/351/314 604/353/316 605/372/334 560/371/333
f 604/353/316 649/355/318 650/373/335 605/372/334
f 649/355/318 694/357/320 695/374/336 650/373/335
f 694/357/320 17/327/292 18/359/322 695/374/336
f 18/359/322 65/358/321 66/375/337 19/376/338
f 65/358/321 110/360/323 111/377/339 66/375/337
f 110/360/323 155/361/324 156/378/340 111/377/339
f 155/361/324 200/362/325 201/379/341 156/378/340
f 200/364/325 245/363/326 246/380/342 201/381/341
f 245/363/326 290/365/327 291/382/343 246/380/342
f 290/365/327 335/366/328 336/383/344 291/382/343
f 335/366/328 380/367/329 381/384/345 336/383/344
f 380/367/329 425/368/330 426/385/346 381/384/345
f 425/368/330 470/369/331 471/386/347 426/385/346
f 470/369/331 515/370/332 516/387/348 471/386/347
f 515/370/332 560/371/333 561/388/349 516/387/348
f 560/371/333 605/372/334 606/389/350 561/388/349
f 605/372/334 650/373/335 651/390/351 606/389/350
f 650/373/335 695/374/336 696/391/352 651/390/351
f 695/374/336 18/359/322 19/376/338 696/391/352
f 19/376/338 66/375/337 67/392/353 20/393/354
f 66/375/337 111/377/339 112/394/355 67/392/353
f 111/377/339 156/378/340 157/395/356 112/394/355
f 156/378/340 201/379/341 202/396/357 157/395/356
f 201/381/341 246/380/342 247/397/358 202/398/357
f 246/380/342 291/382/343 292/399/359 247/397/358
f 291/382/343 336/383/344 337/400/360 292/399/359
f 336/383/344 381/384/345 382/401/361 337/400/360
f 381/384/345 426/385/346 427/402/362 382/401/361
f 426/385/346 471/386/347 472/403/363 427/402/362
f 471/386/347 516/387/348 517/404/364 472/403/363
f 516/387/348 561/388/349 562/405/365 517/404/364
f 561/388/349 606/389/350 607/406/366 562/405/365
f 606/389/350 651/390/351 652/407/367 607/406/366
f 651/390/351 696/391/352 697/408/368 652/407/367
f 696/391/352 19/376/338 20/393/354 697/408/368
f 20/409/369 67/410/370 68/411/371 21/412/372
f 67/410/370 112/413/373 113/414/374 68/411/371
f 112/413/373 157/415/375 158/416/376 113/414/374
f 157/415/375 202/417/377 203/418/378 158/416/376
f 202/419/377 247/420/379 248/421/380 203/422/378
f 247/420/379 292/423/381 293/424/382 248/421/380
f 292/423/381 337/425/383 338/426/384 293/424/382
f 337/425/383 382/427/385 383/428/386 338/426/384
f 382/427/385 427/429/387 428/430/388 383/428/386
f 427/429/387 472/431/389 473/432/390 428/430/388
f 472/431/389 517/433/391 518/434/392 473/432/390
f 517/433/391 562/435/393 563/436/394 518/434/392
f 562/435/393 607/437/395 608/438/396 563/436/394
f 607/437/395 652/439/397 653/440/398 608/438/396
f 652/439/397 697/441/399 698/442/400 653/440/398
f 697/441/399 20/409/369 21/412/372 698/442/400
f 21/412/372 68/411/371 69/443/401 22/444/402
f 68/411/371 113/414/374 114/445/403 69/443/401
f 113/414/374 158/416/376 159/446/404 114/445/403
f 158/416/376 203/418/378 204/447/405 159/446/404
f 203/422/378 248/421/380 249/448/406 204/449/405
f 248/421/380 293/424/382 294/450/407 249/448/406
f 293/424/382 338/426/384 339/451/408 294/450/407
f 338/426/384 383/428/386 384/452/409 339/451/408
f 383/428/386 428/430/388 429/453/410 384/452/409
f 428/430/388 473/432/390 474/454/411 429/453/410
f 473/432/390 518/434/392 519/455/412 474/454/411
f 518/434/392 563/436/394 564/456/413 519/455/412
f 563/436/394 608/438/396 609/457/414 564/456/413
f 608/438/396 653/440/398 654/458/415 609/457/414
f 653/440/398 698/442/400 699/459/416 654/458/415
f 698/442/400 21/412/372 22/444/402 699/459/416
f 22/444/402 69/443/401 70/460/417 23/461/418
f 69/443/401 114/445/403 115/462/419 70/460/417
f 114/445/403 159/446/404 160/463/420 115/462/419
f 159/446/404 204/447/405 205/464/421 160/463/420
f 204/449/405 249/448/406 250/465/422 205/466/421
f 249/448/406 294/450/407 295/467/423 250/465/422
f 294/450/407 339/451/408 340/468/424 295/467/423
f 339/451/408 384/452/409 385/469/425 340/468/424
f 384/452/409 429/453/410 430/470/426 385/469/425
f 429/453/410 474/454/411 475/471/427 430/470/426
f 474/454/411 519/455/412 520/472/428 475/471/427
f 519/455/412 564/456/413 565/473/429 520/472/428
f 564/456/413 609/457/414 610/474/430 565/473/429
f 609/457/414 654/458/415 655/475/431 610/474/430
f 654/458/415 699/459/416 700/476/432 655/475/431
f 699/459/416 22/444/402 23/461/418 700/476/432
f 23/461/418 70/460/417 71/477/433 24/478/434
f 70/460/417 115/462/419 116/479/435 71/477/433
f 115/462/419 160/463/420 161/480/436 116/479/435
f 160/463/420 205/464/421 206/481/437 161/480/436
f 205/466/421 250/465/422 251/482/438 206/483/437
f 250/465/422 295/467/423 296/484/439 251/482/438
f 295/467/423 340/468/424 341/485/440 296/484/439
f 340/468/424 385/469/425 386/486/441 341/485/440
f 385/469/425 430/470/426 431/487/442 386/486/441
f 430/470/426 475/471/427 476/488/443 431/487/442
f 475/471/427 520/472/428 521/489/444 476/488/443
f 520/472/428 565/473/429 566/490/445 521/489/444
f 565/473/429 610/474/430 611/491/446 566/490/445
f 610/474/430 655/475/431 656/492/447 611/491/446
f 655/475/431 700/476/432 701/493/448 656/492/447
f 700/476/432 23/461/418 24/478/434 701/493/448
f 35/494/449 81/495/450 72/496/451 25/497/452
f 81/495/450 126/498/453 117/499/454 72/496/451
f 126/498/453 171/500/455 162/501/456 117/499/454
f 171/500/455 216/502/457 207/503/458 162/501/456
f 216/504/457 261/505/459 252/506/460 207/507/458
f 261/505/459 306/508/461 297/509/462 252/506/460
f 306/508/461 351/510/463 342/511/464 297/509/462
f 351/510/463 396/512/465 387/513/466 342/511/464
f 396/512/465 441/514/467 432/515/468 387/513/466
f 441/514/467 486/516/469 477/517/470 432/515/468
f 486/516/469 531/518/471 522/519/472 477/517/470
f 531/518/471 576/520/473 567/521/474 522/519/472
f 576/520/473 621/522/475 612/523/476 567/521/474
f 621/522/475 666/524/477 657/525/478 612/523/476
f 666/524/477 711/526/479 702/527/480 657/525/478
f 711/526/479 35/494/449 25/497/452 702/527/480
f 25/497/452 72/496/451 73/528/481 26/529/482
f 72/496/451 117/499/454 118/530/483 73/528/481
f 117/499/454 162/501/456 163/531/484 118/530/483
f 162/501/456 207/503/458 208/532/485 163/531/484
f 207/507/458 252/506/460 253/533/486 208/534/485
f 252/506/460 297/509/462 298/535/487 253/533/486
f 297/509/462 342/511/464 343/536/488 298/535/487
f 342/511/464 387/513/466 388/537/489 343/536/488
f 387/513/466 432/515/468 433/538/490 388/537/489
f 432/515/468 477/517/470 478/539/491 433/538/490
f 477/517/470 522/519/472 523/540/492 478/539/491
f 522/519/472 567/521/474 568/541/493 523/540/492
f 567/521/474 612/523/476 613/542/494 568/541/493
f 612/523/476 657/525/478 658/543/495 613/542/494
f 657/525/478 702/527/480 703/544/496 658/543/495
f 702/527/480 25/497/452 26/529/482 703/544/496
f 26/529/482 73/528/481 74/545/497 27/546/498
f 73/528/481 118/530/483 119/547/499 74/545/497
f 118/530/483 163/531/484 164/548/500 119/547/499
f 163/531/484 208/532/485 209/549/501 164/548/500
f 208/534/485 253/533/486 254/550/502 209/551/501
f 253/533/486 298/535/487 299/552/503 254/550/502
f 298/535/487 343/536/488 344/553/504 299/552/503
f 343/536/488 388/537/489 389/554/505 344/553/504
f 388/537/489 433/538/490 434/555/506 389/554/505
f 433/538/490 478/539/491 479/556/507 434/555/506
f 478/539/491 523/540/492 524/557/508 479/556/507
f 523/540/492 568/541/493 569/558/509 524/557/508
f 568/541/493 613/542/494 614/559/510 569/558/509
f 613/542/494 658/543/495 659/560/511 614/559/510
f 658/543/495 703/544/496 704/561/512 659/560/511
f 703/544/496 26/529/482 27/546/498 704/561/512
f 27/546/498 74/545/497 75/562/513 28/563/514
f 74/545/497 119/547/499 120/564/515 75/562/513
f 119/547/499 164/548/500 165/565/516 120/564/515
f 164/548/500 209/549/501 210/566/517 165/565/516
f 209/551/501 254/550/502 255/567/518 210/568/517
f 254/550/502 299/552/503 300/569/519 255/567/518
f 299/552/503 344/553/504 345/570/520 300/569/519
f 344/553/504 389/554/505 390/571/521 345/570/520
f 389/554/505 434/555/506 435/572/522 390/571/521
f 434/555/506 479/556/507 480/573/523 435/572/522
f 479/556/507 524/557/508 525/574/524 480/573/523
f 524/557/508 569/558/509 570/575/525 525/574/524
f 569/558/509 614/559/510 615/576/526 570/575/525
f 614/559/510 659/560/511 660/577/527 615/576/526
f 659/560/511 704/561/512 705/578/528 660/577/527
f 704/561/512 27/546/498 28/563/514 705/578/528
f 28/563/514 75/562/513 76/579/529 29/580/530
f 75/562/513 120/564/515 121/581/531 76/579/529
f 120/564/515 165/565/516 166/582/532 121/581/531
f 165/565/516 210/566/517 211/583/533 166/582/532
f 210/568/517 255/567/518 256/584/534 211/585/533
f 255/567/518 300/569/519 301/586/535 256/584/534
f 300/569/519 345/570/520 346/587/536 301/586/535
f 345/570/520 390/571/521 391/588/537 346/587/536
f 390/571/521 435/572/522 436/589/538 391/588/537
f 435/572/522 480/573/523 481/590/539 436/589/538
f 480/573/523 525/574/524 526/591/540 481/590/539
f 525/574/524 570/575/525 571/592/541 526/591/540
f 570/575/525 615/576/526 616/593/542 571/592/541
f 615/576/526 660/577/527 661/594/543 616/593/542
f 660/577/527 705/578/528 706/595/544 661/594/543
f 705/578/528 28/563/514 29/580/530 706/595/544
f 29/580/530 76/579/529 77/596/545 30/597/546
f 76/579/529 121/581/531 122/598/547 77/596/545
f 121/581/531 166/582/532 167/599/548 122/598/547
f 166/582/532 211/583/533 212/600/549 167/599/548
f 211/585/533 256/584/534 257/601/550 212/602/549
f 256/584/534 301/586/535 302/603/551 257/601/550
f 301/586/535 346/587/536 347/604/552 302/603/551
f 346/587/536 391/588/537 392/605/553 347/604/552
f 391/588/537 436/589/538 437/606/554 392/605/553
f 436/589/538 481/590/539 482/607/555 437/606/554
f 481/590/539 526/591/540 527/608/556 482/607/555
f 526/591/540 571/592/541 572/609/557 527/608/556
f 571/592/541 616/593/542 617/610/558 572/609/557
f 616/593/542 661/594/543 662/611/559 617/610/558
f 661/594/543 706/595/544 707/612/560 662/611/559
f 706/595/544 29/580/530 30/597/546 707/612/560
f 30/613/546 77/614/545 78/615/561 31/616/562
f 77/614/545 122/617/547 123/618/563 78/615/561
f 122/617/547 167/619/548 168/620/564 123/618/563
f 167/619/548 212/621/549 213/622/565 168/620/564
f 212/623/549 257/624/550 258/625/566 213/626/565
f 257/624/550 302/627/551 303/628/567 258/625/566
f 302/627/551 347/629/552 348/630/568 303/628/567
f 347/629/552 392/631/553 393/632/569 348/630/568
f 392/631/553 437/633/554 438/634/570 393/632/569
f 437/633/554 482/635/555 483/636/571 438/634/570
f 482/635/555 527/637/556 528/638/572 483/636/571
f 527/637/556 572/639/557 573/640/573 528/638/572
f 572/639/557 617/641/558 618/642/574 573/640/573
f 617/641/558 662/643/559 663/644/575 618/642/574
f 662/643/559 707/645/560 708/646/576 663/644/575
f 707/645/560 30/613/546 31/616/562 708/646/576
f 138/647/577 93/648/577 32/649/577 183/650/577
f 228/651/577 183/650/577 32/649/577 273/652/577
f 318/653/577 273/652/577 32/649/577 363/654/577
f 408/655/577 363/654/577 32/649/577 453/656/577
f 498/657/577 453/656/577 32/649/577 543/658/577
f 588/659/577 543/658/577 32/649/577 633/660/577
f 678/661/577 633/660/577 32/649/577 1/662/577
f 9/155/130 56/154/129 79/172/146 33/171/145
f 56/154/129 101/156/131 124/175/149 79/172/146
f 101/156/131 146/157/132 169/177/151 124/175/149
f 146/157/132 191/158/133 214/179/153 169/177/151
f 191/160/133 236/159/134 259/182/155 214/181/153
f 236/159/134 281/161/135 304/185/157 259/182/155
f 281/161/135 326/162/136 349/187/159 304/185/157
f 326/162/136 371/163/137 394/189/161 349/187/159
f 371/163/137 416/164/138 439/191/163 394/189/161
f 416/164/138 461/165/139 484/193/165 439/191/163
f 461/165/139 506/166/140 529/195/167 484/193/165
f 506/166/140 551/167/141 574/197/169 529/195/167
f 551/167/141 596/168/142 619/199/171 574/197/169
f 596/168/142 641/169/143 664/201/173 619/199/171
f 641/169/143 686/170/144 709/203/175 664/201/173
f 686/170/144 9/155/130 33/171/145 709/203/175
f 5/663/578 52/664/579 80/87/66 34/86/65
f 52/664/579 97/665/580 125/90/69 80/87/66
f 97/665/580 142/666/581 170/92/71 125/90/69
f 142/666/581 187/667/582 215/94/73 170/92/71
f 187/668/582 232/669/583 260/97/75 215/96/73
f 232/669/583 277/670/584 305/100/77 260/97/75
f 277/670/584 322/671/585 350/102/79 305/100/77
f 322/671/585 367/672/586 395/104/81 350/102/79
f 367/672/586 412/673/587 440/106/83 395/104/81
f 412/673/587 457/674/588 485/108/85 440/106/83
f 457/674/588 502/675/589 530/110/87 485/108/85
f 502/675/589 547/676/590 575/112/89 530/110/87
f 547/676/590 592/677/591 620/114/91 575/112/89
f 592/677/591 637/678/592 665/116/93 620/114/91
f 637/678/592 682/679/593 710/118/95 665/116/93
f 682/679/593 5/663/578 34/86/65 710/118/95
f 24/478/434 71/477/433 81/495/450 35/494/449
f 71/477/433 116/479/435 126/498/453 81/495/450
f 116/479/435 161/480/436 171/500/455 126/498/453
f 161/480/436 206/481/437 216/502/457 171/500/455
f 206/483/437 251/482/438 261/505/459 216/504/457
f 251/482/438 296/484/439 306/508/461 261/505/459
f 296/484/439 341/485/440 351/510/463 306/508/461
f 341/485/440 386/486/441 396/512/465 351/510/463
f 386/486/441 431/487/442 441/514/467 396/512/465
f 431/487/442 476/488/443 486/516/469 441/514/467
f 476/488/443 521/489/444 531/518/471 486/516/469
f 521/489/444 566/490/445 576/520/473 531/518/471
f 566/490/445 611/491/446 621/522/475 576/520/473
f 611/491/446 656/492/447 666/524/477 621/522/475
f 656/492/447 701/493/448 711/526/479 666/524/477
f 701/493/448 24/478/434 35/494/449 711/526/479
f 31/616/594 78/615/595 82/680/596 36/681/597
f 78/615/595 123/618/598 127/682/599 82/680/596
f 123/618/598 168/620/600 172/683/601 127/682/599
f 168/620/600 213/622/602 217/684/603 172/683/601
f 213/626/602 258/625/604 262/685/605 217/686/603
f 258/625/604 303/628/606 307/687/607 262/685/605
f 303/628/606 348/630/608 352/688/609 307/687/607
f 348/630/608 393/632/610 397/689/611 352/688/609
f 393/632/610 438/634/612 442/690/613 397/689/611
f 438/634/612 483/636/614 487/691/615 442/690/613
f 483/636/614 528/638/616 532/692/617 487/691/615
f 528/638/616 573/640/618 577/693/619 532/692/617
f 573/640/618 618/642/620 622/694/621 577/693/619
f 618/642/620 663/644/622 667/695/623 622/694/621
f 663/644/622 708/646/624 712/696/625 667/695/623
f 708/646/624 31/616/594 36/681/597 712/696/625
f 36/681/597 82/680/596 83/697/626 37/698/627
f 82/680/596 127/682/599 128/699/628 83/697/626
f 127/682/599 172/683/601 173/700/629 128/699/628
f 172/683/601 217/684/603 218/701/630 173/700/629
f 217/686/603 262/685/605 263/702/631 218/703/630
f 262/685/605 307/687/607 308/704/632 263/702/631
f 307/687/607 352/688/609 353/705/633 308/704/632
f 352/688/609 397/689/611 398/706/634 353/705/633
f 397/689/611 442/690/613 443/707/635 398/706/634
f 442/690/613 487/691/615 488/708/636 443/707/635
f 487/691/615 532/692/617 533/709/637 488/708/636
f 532/692/617 577/693/619 578/710/638 533/709/637
f 577/693/619 622/694/621 623/711/639 578/710/638
f 622/694/621 667/695/623 668/712/640 623/711/639
f 667/695/623 712/696/625 713/713/641 668/712/640
f 712/696/625 36/681/597 37/698/627 713/713/641
f 37/698/627 83/697/626 84/714/642 38/715/643
f 83/697/626 128/699/628 129/716/644 84/714/642
f 128/699/628 173/700/629 174/717/645 129/716/644
f 173/700/629 218/701/630 219/718/646 174/717/645
f 218/703/630 263/702/631 264/719/647 219/720/646
f 263/702/631 308/704/632 309/721/648 264/719/647
f 308/704/632 353/705/633 354/722/649 309/721/648
f 353/705/633 398/706/634 399/723/650 354/722/649
f 398/706/634 443/707/635 444/724/651 399/723/650
f 443/707/635 488/708/636 489/725/652 444/724/651
f 488/708/636 533/709/637 534/726/653 489/725/652
f 533/709/637 578/710/638 579/727/654 534/726/653
f 578/710/638 623/711/639 624/728/655 579/727/654
f 623/711/639 668/712/640 669/729/656 624/728/655
f 668/712/640 713/713/641 714/730/657 669/729/656
f 713/713/641 37/698/627 38/715/643 714/730/657
f 38/731/643 84/732/642 85/733/658 39/734/659
f 84/732/642 129/735/644 130/736/660 85/733/658
f 129/735/644 174/737/645 175/738/661 130/736/660
f 174/737/645 219/739/646 220/740/662 175/738/661
f 219/741/646 264/742/647 265/743/663 220/744/662
f 264/742/647 309/745/648 310/746/664 265/743/663
f 309/745/648 354/747/649 355/748/665 310/746/664
f 354/747/649 399/749/650 400/750/666 355/748/665
f 399/749/650 444/751/651 445/752/667 400/750/666
f 444/751/651 489/753/652 490/754/668 445/752/667
f 489/753/652 534/755/653 535/756/669 490/754/668
f 534/755/653 579/757/654 580/758/670 535/756/669
f 579/757/654 624/759/655 625/760/671 580/758/670
f 624/759/655 669/761/656 670/762/672 625/760/671
f 669/761/656 714/763/657 715/764/673 670/762/672
f 714/763/657 38/731/643 39/734/659 715/764/673
f 39/734/659 85/733/658 86/765/674 40/766/675
f 85/733/658 130/736/660 131/767/676 86/765/674
f 130/736/660 175/738/661 176/768/677 131/767/676
f 175/738/661 220/740/662 221/769/678 176/768/677
f 220/744/662 265/743/663 266/770/679 221/771/678
f 265/743/663 310/746/664 311/772/680 266/770/679
f 310/746/664 355/748/665 356/773/681 311/772/680
f 355/748/665 400/750/666 401/774/682 356/773/681
f 400/750/666 445/752/667 446/775/683 401/774/682
f 445/752/667 490/754/668 491/776/684 446/775/683
f 490/754/668 535/756/669 536/777/685 491/776/684
f 535/756/669 580/758/670 581/778/686 536/777/685
f 580/758/670 625/760/671 626/779/687 581/778/686
f 625/760/671 670/762/672 671/780/688 626/779/687
f 670/762/672 715/764/673 716/781/689 671/780/688
f 715/764/673 39/734/659 40/766/675 716/781/689
f 40/766/675 86/765/674 87/782/690 41/783/691
f 86/765/674 131/767/676 132/784/692 87/782/690
f 131/767/676 176/768/677 177/785/693 132/784/692
f 176/768/677 221/769/678 222/786/694 177/785/693
f 221/771/678 266/770/679 267/787/695 222/788/694
f 266/770/679 311/772/680 312/789/696 267/787/695
f 311/772/680 356/773/681 357/790/697 312/789/696
f 356/773/681 401/774/682 402/791/698 357/790/697
f 401/774/682 446/775/683 447/792/699 402/791/698
f 446/775/683 491/776/684 492/793/700 447/792/699
f 491/776/684 536/777/685 537/794/701 492/793/700
f 536/777/685 581/778/686 582/795/702 537/794/701
f 581/778/686 626/779/687 627/796/703 582/795/702
f 626/779/687 671/780/688 672/797/704 627/796/703
f 671/780/688 716/781/689 717/798/705 672/797/704
f 716/781/689 40/766/675 41/783/691 717/798/705
f 41/783/691 87/782/690 88/799/706 42/800/707
f 87/782/690 132/784/692 133/801/708 88/799/706
f 132/784/692 177/785/693 178/802/709 133/801/708
f 177/785/693 222/786/694 223/803/710 178/802/709
f 222/788/694 267/787/695 268/804/711 223/805/710
f 267/787/695 312/789/696 313/806/712 268/804/711
f 312/789/696 357/790/697 358/807/713 313/806/712
f 357/790/697 402/791/698 403/808/714 358/807/713
f 402/791/698 447/792/699 448/809/715 403/808/714
f 447/792/699 492/793/700 493/810/716 448/809/715
f 492/793/700 537/794/701 538/811/717 493/810/716
f 537/794/701 582/795/702 583/812/718 538/811/717
f 582/795/702 627/796/703 628/813/719 583/812/718
f 627/796/703 672/797/704 673/814/720 628/813/719
f 672/797/704 717/798/705 718/815/721 673/814/720
f 717/798/705 41/783/691 42/800/707 718/815/721
f 42/800/707 88/799/706 89/816/722 43/817/723
f 88/799/706 133/801/708 134/818/724 89/816/722
f 133/801/708 178/802/709 179/819/725 134/818/724
f 178/802/709 223/803/710 224/820/726 179/819/725
f 223/805/710 268/804/711 269/821/727 224/822/726
f 268/804/711 313/806/712 314/823/728 269/821/727
f 313/806/712 358/807/713 359/824/729 314/823/728
f 358/807/713 403/808/714 404/825/730 359/824/729
f 403/808/714 448/809/715 449/826/731 404/825/730
f 448/809/715 493/810/716 494/827/732 449/826/731
f 493/810/716 538/811/717 539/828/733 494/827/732
f 538/811/717 583/812/718 584/829/734 539/828/733
f 583/812/718 628/813/719 629/830/735 584/829/734
f 628/813/719 673/814/720 674/831/736 629/830/735
f 673/814/720 718/815/721 719/832/737 674/831/736
f 718/815/721 42/800/707 43/817/723 719/832/737
f 43/817/723 89/816/722 90/833/738 44/834/739
f 89/816/722 134/818/724 135/835/740 90/833/738
f 134/818/724 179/819/725 180/836/741 135/835/740
f 179/819/725 224/820/726 225/837/742 180/836/741
f 224/822/726 269/821/727 270/838/743 225/839/742
f 269/821/727 314/823/728 315/840/744 270/838/743
f 314/823/728 359/824/729 360/841/745 315/840/744
f 359/824/729 404/825/730 405/842/746 360/841/745
f 404/825/730 449/826/731 450/843/747 405/842/746
f 449/826/731 494/827/732 495/844/748 450/843/747
f 494/827/732 539/828/733 540/845/749 495/844/748
f 539/828/733 584/829/734 585/846/750 540/845/749
f 584/829/734 629/830/735 630/847/751 585/846/750
f 629/830/735 674/831/736 675/848/752 630/847/751
f 674/831/736 719/832/737 720/849/753 675/848/752
f 719/832/737 43/817/723 44/834/739 720/849/753
f 44/834/739 90/833/738 91/850/754 45/851/755
f 90/833/738 135/835/740 136/852/756 91/850/754
f 135/835/740 180/836/741 181/853/757 136/852/756
f 180/836/741 225/837/742 226/854/758 181/853/757
f 225/839/742 270/838/743 271/855/759 226/856/758
f 270/838/743 315/840/744 316/857/760 271/855/759
f 315/840/744 360/841/745 361/858/761 316/857/760
f 360/841/745 405/842/746 406/859/762 361/858/761
f 405/842/746 450/843/747 451/860/763 406/859/762
f 450/843/747 495/844/748 496/861/764 451/860/763
f 495/844/748 540/845/749 541/862/765 496/861/764
f 540/845/749 585/846/750 586/863/766 541/862/765
f 585/846/750 630/847/751 631/864/767 586/863/766
f 630/847/751 675/848/752 676/865/768 631/864/767
f 675/848/752 720/849/753 721/866/769 676/865/768
f 720/849/753 44/834/739 45/851/755 721/866/769
f 45/851/755 91/850/754 92/867/770 46/868/771
f 91/850/754 136/852/756 137/869/772 92/867/770
f 136/852/756 181/853/757 182/870/773 137/869/772
f 181/853/757 226/854/758 227/871/774 182/870/773
f 226/856/758 271/855/759 272/872/775 227/873/774
f 271/855/759 316/857/760 317/874/776 272/872/775
f 316/857/760 361/858/761 362/875/777 317/874/776
f 361/858/761 406/859/762 407/876/778 362/875/777
f 406/859/762 451/860/763 452/877/779 407/876/778
f 451/860/763 496/861/764 497/878/780 452/877/779
f 496/861/764 541/862/765 542/879/781 497/878/780
f 541/862/765 586/863/766 587/880/782 542/879/781
f 586/863/766 631/864/767 632/881/783 587/880/782
f 631/864/767 676/865/768 677/882/784 632/881/783
f 676/865/768 721/866/769 722/883/785 677/882/784
f 721/866/769 45/851/755 46/868/771 722/883/785
f 47/884/786 137/885/772 182/886/773 227/887/774
f 47/884/786 227/887/774 272/888/775 317/889/776
f 47/884/786 317/889/776 362/890/777 407/891/778
f 47/884/786 407/891/778 452/892/779 497/893/780
f 47/884/786 497/893/780 542/894/781 587/895/782
f 47/884/786 587/895/782 632/896/783 677/897/784
f 47/884/786 677/897/784 722/898/785 46/899/771
f 48/900/577 1/662/577 32/649/577 93/648/577
f 47/884/786 46/899/771 92/901/770 137/885/772
