# Blender 4.0.2
# www.blender.org
o cartwheel
v -0.000000 0.050000 -0.450000
v 0.087791 0.050000 -0.441353
v 0.172208 0.050000 -0.415746
v 0.250007 0.050000 -0.374161
v 0.318198 0.050000 -0.318198
v 0.374161 0.050000 -0.250007
v 0.415746 0.050000 -0.172208
v 0.441353 0.050000 -0.087791
v 0.450000 0.050000 0.000000
v 0.441353 0.050000 0.087791
v 0.415746 0.050000 0.172208
v 0.374161 0.050000 0.250007
v 0.318198 0.050000 0.318198
v 0.250007 0.050000 0.374161
v 0.172208 0.050000 0.415746
v 0.087791 0.050000 0.441353
v -0.000000 0.050000 0.450000
v -0.087791 0.050000 0.441353
v -0.172208 0.050000 0.415746
v -0.250007 0.050000 0.374161
v -0.318198 0.050000 0.318198
v -0.374161 0.050000 0.250007
v -0.415746 0.050000 0.172208
v -0.441353 0.050000 0.087791
v -0.450000 0.050000 -0.000000
v -0.441353 0.050000 -0.087791
v -0.415746 0.050000 -0.172208
v -0.374161 0.050000 -0.250007
v -0.318198 0.050000 -0.318198
v -0.250007 0.050000 -0.374161
v -0.172208 0.050000 -0.415746
v -0.087791 0.050000 -0.441353
v 0.076440 0.050000 -0.384288
v -0.000000 0.050000 -0.391817
v 0.149942 0.050000 -0.361991
v 0.217682 0.050000 -0.325784
v 0.277056 0.050000 -0.277056
v 0.325784 0.050000 -0.217682
v 0.361991 0.050000 -0.149942
v 0.384288 0.050000 -0.076440
v 0.391817 0.050000 0.000000
v 0.384288 0.050000 0.076440
v 0.361991 0.050000 0.149942
v 0.325784 0.050000 0.217682
v 0.277056 0.050000 0.277056
v 0.217682 0.050000 0.325784
v 0.149942 0.050000 0.361991
v 0.076440 0.050000 0.384288
v -0.000000 0.050000 0.391817
v -0.076440 0.050000 0.384288
v -0.149942 0.050000 0.361991
v -0.217682 0.050000 0.325784
v -0.277056 0.050000 0.277056
v -0.325784 0.050000 0.217682
v -0.361991 0.050000 0.149942
v -0.384288 0.050000 0.076440
v -0.391817 0.050000 -0.000000
v -0.384288 0.050000 -0.076440
v -0.361991 0.050000 -0.149942
v -0.325784 0.050000 -0.217682
v -0.277056 0.050000 -0.277056
v -0.217682 0.050000 -0.325784
v -0.149942 0.050000 -0.361991
v -0.076440 0.050000 -0.384288
v 0.076440 -0.000000 -0.384288
v -0.000000 -0.000000 -0.391817
v 0.149942 -0.000000 -0.361991
v 0.217682 -0.000000 -0.325784
v 0.277056 -0.000000 -0.277056
v 0.325784 -0.000000 -0.217682
v 0.361991 -0.000000 -0.149942
v 0.384288 -0.000000 -0.076440
v 0.391817 -0.000000 0.000000
v 0.384288 -0.000000 0.076440
v 0.361991 -0.000000 0.149942
v 0.325784 -0.000000 0.217682
v 0.277056 -0.000000 0.277056
v 0.217682 -0.000000 0.325784
v 0.149942 -0.000000 0.361991
v 0.076440 -0.000000 0.384288
v -0.000000 -0.000000 0.391817
v -0.076440 -0.000000 0.384288
v -0.149942 -0.000000 0.361991
v -0.217682 -0.000000 0.325784
v -0.277056 -0.000000 0.277056
v -0.325784 -0.000000 0.217682
v -0.361991 -0.000000 0.149942
v -0.384288 -0.000000 0.076440
v -0.391817 -0.000000 -0.000000
v -0.384288 -0.000000 -0.076440
v -0.361991 -0.000000 -0.149942
v -0.325784 -0.000000 -0.217682
v -0.277056 -0.000000 -0.277056
v -0.217682 -0.000000 -0.325784
v -0.149942 -0.000000 -0.361991
v -0.076440 -0.000000 -0.384288
v 0.087791 -0.000000 -0.441353
v -0.000000 -0.000000 -0.450000
v 0.172208 -0.000000 -0.415746
v 0.250007 -0.000000 -0.374161
v 0.318198 -0.000000 -0.318198
v 0.374161 -0.000000 -0.250007
v 0.415746 -0.000000 -0.172208
v 0.441353 -0.000000 -0.087791
v 0.450000 -0.000000 0.000000
v 0.441353 -0.000000 0.087791
v 0.415746 -0.000000 0.172208
v 0.374161 -0.000000 0.250007
v 0.318198 -0.000000 0.318198
v 0.250007 -0.000000 0.374161
v 0.172208 -0.000000 0.415746
v 0.087791 -0.000000 0.441353
v -0.000000 -0.000000 0.450000
v -0.087791 -0.000000 0.441353
v -0.172208 -0.000000 0.415746
v -0.250007 -0.000000 0.374161
v -0.318198 -0.000000 0.318198
v -0.374161 -0.000000 0.250007
v -0.415746 -0.000000 0.172208
v -0.441353 -0.000000 0.087791
v -0.450000 -0.000000 -0.000000
v -0.441353 -0.000000 -0.087791
v -0.415746 -0.000000 -0.172208
v -0.374161 -0.000000 -0.250007
v -0.318198 -0.000000 -0.318198
v -0.250007 -0.000000 -0.374161
v -0.172208 -0.000000 -0.415746
v -0.087791 -0.000000 -0.441353
v -0.000000 0.043866 -0.072527
v 0.027755 0.043866 -0.067006
v 0.051285 0.043866 -0.051284
v 0.067006 0.043866 -0.027755
v 0.072527 0.043866 0.000000
v 0.067006 0.043866 0.027755
v 0.051285 0.043866 0.051285
v 0.027755 0.043866 0.067006
v -0.000000 0.043866 0.072527
v -0.027755 0.043866 0.067006
v -0.051285 0.043866 0.051285
v -0.067006 0.043866 0.027755
v -0.072527 0.043866 0.000000
v -0.067006 0.043866 -0.027755
v -0.051285 0.043866 -0.051284
v -0.027755 0.043866 -0.067006
v 0.005696 0.043866 -0.013751
v -0.000000 0.043866 -0.014884
v 0.010525 0.043866 -0.010525
v 0.013751 0.043866 -0.005696
v 0.014884 0.043866 0.000000
v 0.013751 0.043866 0.005696
v 0.010525 0.043866 0.010525
v 0.005696 0.043866 0.013751
v -0.000000 0.043866 0.014884
v -0.005696 0.043866 0.013751
v -0.010525 0.043866 0.010525
v -0.013751 0.043866 0.005696
v -0.014884 0.043866 0.000000
v -0.013751 0.043866 -0.005696
v -0.010525 0.043866 -0.010525
v -0.005696 0.043866 -0.013751
v 0.005696 0.006134 -0.013751
v -0.000000 0.006134 -0.014884
v 0.010525 0.006134 -0.010525
v 0.013751 0.006134 -0.005696
v 0.014884 0.006134 0.000000
v 0.013751 0.006134 0.005696
v 0.010525 0.006134 0.010525
v 0.005696 0.006134 0.013751
v -0.000000 0.006134 0.014884
v -0.005696 0.006134 0.013751
v -0.010525 0.006134 0.010525
v -0.013751 0.006134 0.005696
v -0.014884 0.006134 0.000000
v -0.013751 0.006134 -0.005696
v -0.010525 0.006134 -0.010525
v -0.005696 0.006134 -0.013751
v 0.027755 0.006134 -0.067006
v -0.000000 0.006134 -0.072527
v 0.051285 0.006134 -0.051285
v 0.067006 0.006134 -0.027755
v 0.072527 0.006134 0.000000
v 0.067006 0.006134 0.027755
v 0.051285 0.006134 0.051285
v 0.027755 0.006134 0.067006
v -0.000000 0.006134 0.072527
v -0.027755 0.006134 0.067006
v -0.051285 0.006134 0.051285
v -0.067006 0.006134 0.027755
v -0.072527 0.006134 0.000000
v -0.067006 0.006134 -0.027755
v -0.051285 0.006134 -0.051285
v -0.027755 0.006134 -0.067006
v -0.000000 0.014965 -0.068632
v -0.000000 0.014965 -0.394813
v 0.005018 0.016310 -0.068632
v 0.005018 0.016310 -0.394813
v 0.008691 0.019983 -0.068632
v 0.008691 0.019983 -0.394813
v 0.010035 0.025000 -0.068632
v 0.010035 0.025000 -0.394813
v 0.008691 0.030018 -0.068632
v 0.008691 0.030018 -0.394813
v 0.005018 0.033691 -0.068632
v 0.005018 0.033691 -0.394813
v -0.000000 0.035035 -0.068632
v -0.000000 0.035035 -0.394813
v -0.005018 0.033691 -0.068632
v -0.005018 0.033691 -0.394813
v -0.008691 0.030018 -0.068632
v -0.008691 0.030018 -0.394813
v -0.010035 0.025000 -0.068632
v -0.010035 0.025000 -0.394813
v -0.008691 0.019983 -0.068632
v -0.008691 0.019983 -0.394813
v -0.005018 0.016310 -0.068632
v -0.005018 0.016310 -0.394813
v 0.034316 0.014965 -0.059437
v 0.197407 0.014965 -0.341918
v 0.038661 0.016309 -0.056928
v 0.201752 0.016310 -0.339409
v 0.041842 0.019983 -0.055092
v 0.204933 0.019983 -0.337573
v 0.043007 0.025000 -0.054419
v 0.206097 0.025000 -0.336901
v 0.041842 0.030018 -0.055092
v 0.204933 0.030018 -0.337573
v 0.038661 0.033691 -0.056928
v 0.201752 0.033691 -0.339409
v 0.034316 0.035035 -0.059437
v 0.197407 0.035035 -0.341918
v 0.029971 0.033691 -0.061946
v 0.193061 0.033691 -0.344427
v 0.026790 0.030018 -0.063782
v 0.189880 0.030018 -0.346263
v 0.025625 0.025000 -0.064454
v 0.188716 0.025000 -0.346936
v 0.026790 0.019983 -0.063782
v 0.189880 0.019983 -0.346263
v 0.029971 0.016310 -0.061946
v 0.193061 0.016310 -0.344427
v 0.059437 0.014965 -0.034316
v 0.341918 0.014965 -0.197406
v 0.061946 0.016309 -0.029971
v 0.344427 0.016310 -0.193061
v 0.063782 0.019983 -0.026790
v 0.346263 0.019983 -0.189880
v 0.064454 0.025000 -0.025625
v 0.346936 0.025000 -0.188716
v 0.063782 0.030018 -0.026790
v 0.346263 0.030018 -0.189880
v 0.061946 0.033691 -0.029971
v 0.344427 0.033691 -0.193061
v 0.059437 0.035035 -0.034316
v 0.341918 0.035035 -0.197406
v 0.056928 0.033691 -0.038661
v 0.339409 0.033691 -0.201752
v 0.055092 0.030018 -0.041842
v 0.337573 0.030018 -0.204933
v 0.054419 0.025000 -0.043007
v 0.336901 0.025000 -0.206097
v 0.055092 0.019983 -0.041842
v 0.337573 0.019983 -0.204933
v 0.056928 0.016309 -0.038661
v 0.339409 0.016310 -0.201752
v 0.068632 0.014965 0.000000
v 0.394813 0.014965 0.000000
v 0.068632 0.016309 0.005018
v 0.394813 0.016309 0.005018
v 0.068632 0.019983 0.008691
v 0.394813 0.019983 0.008691
v 0.068632 0.025000 0.010035
v 0.394813 0.025000 0.010035
v 0.068632 0.030018 0.008691
v 0.394813 0.030018 0.008691
v 0.068632 0.033691 0.005018
v 0.394813 0.033691 0.005018
v 0.068632 0.035035 0.000000
v 0.394813 0.035035 0.000000
v 0.068632 0.033691 -0.005018
v 0.394813 0.033691 -0.005018
v 0.068632 0.030018 -0.008691
v 0.394813 0.030018 -0.008691
v 0.068632 0.025000 -0.010035
v 0.394813 0.025000 -0.010035
v 0.068632 0.019983 -0.008691
v 0.394813 0.019983 -0.008691
v 0.068632 0.016309 -0.005018
v 0.394813 0.016309 -0.005018
v 0.059437 0.014965 0.034316
v 0.341918 0.014965 0.197407
v 0.056928 0.016309 0.038661
v 0.339409 0.016309 0.201752
v 0.055092 0.019983 0.041842
v 0.337573 0.019983 0.204933
v 0.054419 0.025000 0.043007
v 0.336901 0.025000 0.206097
v 0.055092 0.030018 0.041842
v 0.337573 0.030018 0.204933
v 0.056928 0.033691 0.038661
v 0.339409 0.033691 0.201752
v 0.059437 0.035035 0.034316
v 0.341918 0.035035 0.197407
v 0.061946 0.033691 0.029971
v 0.344427 0.033691 0.193061
v 0.063782 0.030018 0.026790
v 0.346263 0.030018 0.189880
v 0.064454 0.025000 0.025625
v 0.346936 0.025000 0.188716
v 0.063782 0.019983 0.026790
v 0.346263 0.019983 0.189880
v 0.061946 0.016309 0.029971
v 0.344427 0.016309 0.193061
v 0.034316 0.014965 0.059437
v 0.197407 0.014965 0.341918
v 0.029971 0.016309 0.061946
v 0.193061 0.016309 0.344427
v 0.026790 0.019983 0.063782
v 0.189880 0.019983 0.346263
v 0.025625 0.025000 0.064455
v 0.188716 0.025000 0.346936
v 0.026790 0.030018 0.063782
v 0.189880 0.030018 0.346263
v 0.029971 0.033691 0.061946
v 0.193061 0.033691 0.344427
v 0.034316 0.035035 0.059437
v 0.197407 0.035035 0.341918
v 0.038661 0.033691 0.056928
v 0.201752 0.033691 0.339409
v 0.041842 0.030018 0.055092
v 0.204933 0.030018 0.337573
v 0.043007 0.025000 0.054419
v 0.206097 0.025000 0.336901
v 0.041842 0.019983 0.055092
v 0.204933 0.019983 0.337573
v 0.038661 0.016309 0.056928
v 0.201752 0.016309 0.339409
v -0.000000 0.014965 0.068632
v -0.000000 0.014965 0.394813
v -0.005018 0.016309 0.068632
v -0.005018 0.016309 0.394813
v -0.008691 0.019983 0.068632
v -0.008691 0.019983 0.394813
v -0.010035 0.025000 0.068632
v -0.010035 0.025000 0.394813
v -0.008691 0.030018 0.068632
v -0.008691 0.030018 0.394813
v -0.005018 0.033691 0.068632
v -0.005018 0.033691 0.394813
v -0.000000 0.035035 0.068632
v -0.000000 0.035035 0.394813
v 0.005018 0.033691 0.068632
v 0.005018 0.033691 0.394813
v 0.008691 0.030018 0.068632
v 0.008691 0.030018 0.394813
v 0.010035 0.025000 0.068632
v 0.010035 0.025000 0.394813
v 0.008691 0.019983 0.068632
v 0.008691 0.019983 0.394813
v 0.005018 0.016309 0.068632
v 0.005018 0.016309 0.394813
v -0.034316 0.014965 0.059437
v -0.197407 0.014965 0.341918
v -0.038661 0.016309 0.056928
v -0.201752 0.016309 0.339409
v -0.041842 0.019983 0.055092
v -0.204933 0.019983 0.337573
v -0.043007 0.025000 0.054419
v -0.206097 0.025000 0.336901
v -0.041842 0.030018 0.055092
v -0.204933 0.030018 0.337573
v -0.038661 0.033691 0.056928
v -0.201752 0.033691 0.339409
v -0.034316 0.035035 0.059437
v -0.197407 0.035035 0.341918
v -0.029971 0.033691 0.061946
v -0.193061 0.033691 0.344427
v -0.026790 0.030018 0.063782
v -0.189880 0.030018 0.346263
v -0.025625 0.025000 0.064455
v -0.188716 0.025000 0.346936
v -0.026790 0.019983 0.063782
v -0.189880 0.019983 0.346263
v -0.029971 0.016309 0.061946
v -0.193061 0.016309 0.344427
v -0.059437 0.014965 0.034316
v -0.341918 0.014965 0.197407
v -0.061946 0.016309 0.029971
v -0.344427 0.016309 0.193061
v -0.063782 0.019983 0.026790
v -0.346263 0.019983 0.189880
v -0.064454 0.025000 0.025625
v -0.346936 0.025000 0.188716
v -0.063782 0.030018 0.026790
v -0.346263 0.030018 0.189880
v -0.061946 0.033691 0.029971
v -0.344427 0.033691 0.193061
v -0.059437 0.035035 0.034316
v -0.341918 0.035035 0.197407
v -0.056928 0.033691 0.038661
v -0.339409 0.033691 0.201752
v -0.055092 0.030018 0.041842
v -0.337573 0.030018 0.204933
v -0.054419 0.025000 0.043007
v -0.336901 0.025000 0.206097
v -0.055092 0.019983 0.041842
v -0.337573 0.019983 0.204933
v -0.056928 0.016309 0.038661
v -0.339409 0.016309 0.201752
v -0.068632 0.014965 0.000000
v -0.394813 0.014965 0.000000
v -0.068632 0.016309 -0.005018
v -0.394813 0.016309 -0.005018
v -0.068632 0.019983 -0.008691
v -0.394813 0.019983 -0.008691
v -0.068632 0.025000 -0.010035
v -0.394813 0.025000 -0.010035
v -0.068632 0.030018 -0.008691
v -0.394813 0.030018 -0.008691
v -0.068632 0.033691 -0.005018
v -0.394813 0.033691 -0.005018
v -0.068632 0.035035 0.000000
v -0.394813 0.035035 0.000000
v -0.068632 0.033691 0.005018
v -0.394813 0.033691 0.005018
v -0.068632 0.030018 0.008691
v -0.394813 0.030018 0.008691
v -0.068632 0.025000 0.010035
v -0.394813 0.025000 0.010035
v -0.068632 0.019983 0.008691
v -0.394813 0.019983 0.008691
v -0.068632 0.016309 0.005018
v -0.394813 0.016309 0.005018
v -0.059437 0.014965 -0.034316
v -0.341918 0.014965 -0.197406
v -0.056928 0.016309 -0.038661
v -0.339409 0.016310 -0.201752
v -0.055092 0.019983 -0.041842
v -0.337573 0.019983 -0.204933
v -0.054419 0.025000 -0.043007
v -0.336901 0.025000 -0.206097
v -0.055092 0.030018 -0.041842
v -0.337573 0.030018 -0.204933
v -0.056928 0.033691 -0.038661
v -0.339409 0.033691 -0.201752
v -0.059437 0.035035 -0.034316
v -0.341918 0.035035 -0.197406
v -0.061946 0.033691 -0.029971
v -0.344427 0.033691 -0.193061
v -0.063782 0.030018 -0.026790
v -0.346263 0.030018 -0.189880
v -0.064454 0.025000 -0.025625
v -0.346936 0.025000 -0.188716
v -0.063782 0.019983 -0.026790
v -0.346263 0.019983 -0.189880
v -0.061946 0.016309 -0.029971
v -0.344427 0.016310 -0.193061
v -0.034316 0.014965 -0.059437
v -0.197407 0.014965 -0.341918
v -0.029971 0.016310 -0.061946
v -0.193061 0.016310 -0.344427
v -0.026790 0.019983 -0.063782
v -0.189880 0.019983 -0.346263
v -0.025625 0.025000 -0.064454
v -0.188716 0.025000 -0.346936
v -0.026790 0.030018 -0.063782
v -0.189880 0.030018 -0.346263
v -0.029971 0.033691 -0.061946
v -0.193061 0.033691 -0.344427
v -0.034316 0.035035 -0.059437
v -0.197407 0.035035 -0.341918
v -0.038661 0.033691 -0.056928
v -0.201752 0.033691 -0.339409
v -0.041842 0.030018 -0.055092
v -0.204933 0.030018 -0.337573
v -0.043007 0.025000 -0.054419
v -0.206097 0.025000 -0.336901
v -0.041842 0.019983 -0.055092
v -0.204933 0.019983 -0.337573
v -0.038661 0.016309 -0.056928
v -0.201752 0.016310 -0.339409
vn -0.0000 -1.0000 -0.0000
vn -0.0000 1.0000 -0.0000
vn 0.5556 -0.0000 0.8315
vn 0.7071 -0.0000 0.7071
vn 0.3827 -0.0000 -0.9239
vn 0.5556 -0.0000 -0.8315
vn 0.3827 -0.0000 0.9239
vn 0.7071 -0.0000 -0.7071
vn 0.1951 -0.0000 0.9808
vn 0.8315 -0.0000 -0.5556
vn -0.0000 -0.0000 1.0000
vn 0.9239 -0.0000 -0.3827
vn -0.1951 -0.0000 0.9808
vn 0.9808 -0.0000 -0.1951
vn -0.3827 -0.0000 0.9239
vn 1.0000 -0.0000 -0.0000
vn -0.5556 -0.0000 0.8315
vn 0.9808 -0.0000 0.1951
vn -0.7071 -0.0000 0.7071
vn 0.9239 -0.0000 0.3827
vn -0.8315 -0.0000 0.5556
vn 0.8315 -0.0000 0.5556
vn -0.9239 -0.0000 0.3827
vn -0.9808 -0.0000 0.1951
vn -1.0000 -0.0000 -0.0000
vn -0.9808 -0.0000 -0.1951
vn -0.9239 -0.0000 -0.3827
vn -0.8315 -0.0000 -0.5556
vn 0.1951 -0.0000 -0.9808
vn -0.0000 -0.0000 -1.0000
vn -0.7071 -0.0000 -0.7071
vn -0.5556 -0.0000 -0.8315
vn -0.3827 -0.0000 -0.9239
vn -0.1951 -0.0000 -0.9808
vn 0.5000 -0.8660 -0.0000
vn 0.8660 -0.5000 -0.0000
vn 0.8660 0.5000 -0.0000
vn 0.5000 0.8660 -0.0000
vn -0.5000 0.8660 -0.0000
vn -0.8660 0.5000 -0.0000
vn -0.8660 -0.5000 -0.0000
vn -0.5000 -0.8660 -0.0000
vn 0.4330 -0.8660 0.2500
vn 0.7500 -0.5000 0.4330
vn 0.8660 -0.0000 0.5000
vn 0.7500 0.5000 0.4330
vn 0.4330 0.8660 0.2500
vn -0.4330 0.8660 -0.2500
vn -0.7500 0.5000 -0.4330
vn -0.8660 -0.0000 -0.5000
vn -0.7500 -0.5000 -0.4330
vn -0.4330 -0.8660 -0.2500
vn 0.2500 -0.8660 0.4330
vn 0.4330 -0.5000 0.7500
vn 0.5000 -0.0000 0.8660
vn 0.4330 0.5000 0.7500
vn 0.2500 0.8660 0.4330
vn -0.2500 0.8660 -0.4330
vn -0.4330 0.5000 -0.7500
vn -0.5000 -0.0000 -0.8660
vn -0.4330 -0.5000 -0.7500
vn -0.2500 -0.8660 -0.4330
vn -0.0000 -0.8660 0.5000
vn -0.0000 -0.5000 0.8660
vn -0.0000 0.5000 0.8660
vn -0.0000 0.8660 0.5000
vn -0.0000 0.8660 -0.5000
vn -0.0000 0.5000 -0.8660
vn -0.0000 -0.5000 -0.8660
vn -0.0000 -0.8660 -0.5000
vn -0.2500 -0.8660 0.4330
vn -0.4330 -0.5000 0.7500
vn -0.5000 -0.0000 0.8660
vn -0.4330 0.5000 0.7500
vn -0.2500 0.8660 0.4330
vn 0.2500 0.8660 -0.4330
vn 0.4330 0.5000 -0.7500
vn 0.5000 -0.0000 -0.8660
vn 0.4330 -0.5000 -0.7500
vn 0.2500 -0.8660 -0.4330
vn -0.4330 -0.8660 0.2500
vn -0.7500 -0.5000 0.4330
vn -0.8660 -0.0000 0.5000
vn -0.7500 0.5000 0.4330
vn -0.4330 0.8660 0.2500
vn 0.4330 0.8660 -0.2500
vn 0.7500 0.5000 -0.4330
vn 0.8660 -0.0000 -0.5000
vn 0.7500 -0.5000 -0.4330
vn 0.4330 -0.8660 -0.2500
vt 0.004881 0.120449
vt 0.004881 0.076815
vt 0.066760 0.076815
vt 0.066760 0.120449
vt 0.004881 0.004885
vt 0.066760 0.004885
vt 0.066760 0.048519
vt 0.004881 0.048519
vt 0.128638 0.004885
vt 0.128638 0.048519
vt 0.190517 0.004885
vt 0.190517 0.048519
vt 0.252396 0.004885
vt 0.252396 0.048519
vt 0.314274 0.004885
vt 0.314274 0.048519
vt 0.376153 0.004885
vt 0.376153 0.048519
vt 0.438031 0.004885
vt 0.438031 0.048519
vt 0.499910 0.004885
vt 0.499910 0.048519
vt 0.561788 0.004885
vt 0.561788 0.048519
vt 0.623667 0.004885
vt 0.623667 0.048519
vt 0.685545 0.004885
vt 0.685545 0.048519
vt 0.747424 0.004885
vt 0.747424 0.048519
vt 0.809303 0.004885
vt 0.809303 0.048519
vt 0.871181 0.004885
vt 0.871181 0.048519
vt 0.933060 0.004885
vt 0.933060 0.048519
vt 0.994938 0.004885
vt 0.994938 0.048519
vt 0.004881 0.128883
vt 0.066762 0.128883
vt 0.066762 0.172518
vt 0.004881 0.172518
vt 0.128643 0.128883
vt 0.128643 0.172518
vt 0.190525 0.128883
vt 0.190525 0.172518
vt 0.252406 0.128883
vt 0.252406 0.172518
vt 0.314287 0.128883
vt 0.314287 0.172518
vt 0.376169 0.128883
vt 0.376169 0.172518
vt 0.438050 0.128883
vt 0.438050 0.172518
vt 0.499931 0.128883
vt 0.499931 0.172518
vt 0.561813 0.128883
vt 0.561813 0.172518
vt 0.623694 0.128883
vt 0.623694 0.172518
vt 0.685575 0.128883
vt 0.685575 0.172518
vt 0.747456 0.128883
vt 0.747456 0.172518
vt 0.809338 0.128883
vt 0.809338 0.172518
vt 0.871219 0.128883
vt 0.871219 0.172518
vt 0.933100 0.128883
vt 0.933100 0.172518
vt 0.994982 0.128883
vt 0.994982 0.172518
vt 0.128638 0.076815
vt 0.128638 0.120449
vt 0.190517 0.076815
vt 0.190517 0.120449
vt 0.252396 0.076815
vt 0.252396 0.120449
vt 0.314274 0.076815
vt 0.314274 0.120449
vt 0.376153 0.076815
vt 0.376153 0.120449
vt 0.438031 0.076816
vt 0.438031 0.120449
vt 0.499910 0.076816
vt 0.499910 0.120449
vt 0.561788 0.076816
vt 0.561788 0.120449
vt 0.623667 0.076816
vt 0.623667 0.120449
vt 0.685545 0.076816
vt 0.685545 0.120449
vt 0.747424 0.076816
vt 0.747424 0.120449
vt 0.809303 0.076816
vt 0.809303 0.120449
vt 0.871181 0.076816
vt 0.871181 0.120449
vt 0.933060 0.076816
vt 0.933060 0.120449
vt 0.994938 0.076816
vt 0.994938 0.120449
vt 0.004881 0.244451
vt 0.004881 0.200816
vt 0.066762 0.200816
vt 0.066762 0.244451
vt 0.128644 0.200816
vt 0.128644 0.244451
vt 0.190525 0.200816
vt 0.190525 0.244451
vt 0.252406 0.200816
vt 0.252406 0.244451
vt 0.314287 0.200816
vt 0.314287 0.244451
vt 0.376169 0.200816
vt 0.376169 0.244451
vt 0.438050 0.200816
vt 0.438050 0.244451
vt 0.499931 0.200816
vt 0.499931 0.244451
vt 0.561813 0.200816
vt 0.561813 0.244451
vt 0.623694 0.200816
vt 0.623694 0.244451
vt 0.685575 0.200816
vt 0.685575 0.244451
vt 0.747456 0.200816
vt 0.747456 0.244451
vt 0.809338 0.200816
vt 0.809338 0.244451
vt 0.871219 0.200816
vt 0.871219 0.244451
vt 0.933100 0.200816
vt 0.933100 0.244451
vt 0.994982 0.200816
vt 0.994982 0.244451
vt 0.805998 0.288883
vt 0.805998 0.316993
vt 0.748776 0.316993
vt 0.748776 0.288883
vt 0.691554 0.316993
vt 0.691554 0.288883
vt 0.634331 0.316993
vt 0.634331 0.288883
vt 0.577109 0.316993
vt 0.577109 0.288883
vt 0.519887 0.316993
vt 0.519887 0.288883
vt 0.462664 0.316993
vt 0.462664 0.288883
vt 0.405442 0.316993
vt 0.405442 0.288883
vt 0.348219 0.316993
vt 0.348219 0.288883
vt 0.290997 0.316993
vt 0.290997 0.288883
vt 0.920437 0.252887
vt 0.920437 0.280998
vt 0.863215 0.280998
vt 0.863215 0.252887
vt 0.233775 0.316993
vt 0.233775 0.288883
vt 0.805993 0.280998
vt 0.805993 0.252887
vt 0.176552 0.316993
vt 0.176552 0.288883
vt 0.748771 0.280998
vt 0.748771 0.252887
vt 0.119330 0.316993
vt 0.119330 0.288883
vt 0.691548 0.280998
vt 0.691548 0.252887
vt 0.062108 0.316993
vt 0.062108 0.288883
vt 0.634326 0.280998
vt 0.634326 0.252887
vt 0.004885 0.316993
vt 0.004885 0.288883
vt 0.577103 0.280998
vt 0.577103 0.252887
vt 0.519881 0.280998
vt 0.519881 0.252887
vt 0.462659 0.280998
vt 0.462659 0.252887
vt 0.405436 0.280998
vt 0.405436 0.252887
vt 0.348214 0.280998
vt 0.348214 0.252887
vt 0.290992 0.280998
vt 0.290992 0.252887
vt 0.233769 0.280998
vt 0.233769 0.252887
vt 0.176547 0.280998
vt 0.176547 0.252887
vt 0.119324 0.280998
vt 0.119324 0.252887
vt 0.062102 0.280998
vt 0.062102 0.252887
vt 0.004880 0.280998
vt 0.004880 0.252887
vt 0.920443 0.288883
vt 0.920443 0.316993
vt 0.863221 0.316993
vt 0.863221 0.288883
vt 0.926797 0.494458
vt 0.931041 0.493614
vt 0.947475 0.533290
vt 0.926797 0.537403
vt 0.934639 0.491211
vt 0.965005 0.521577
vt 0.937042 0.487613
vt 0.976718 0.504047
vt 0.937886 0.483369
vt 0.980831 0.483369
vt 0.937042 0.479126
vt 0.976719 0.462691
vt 0.934639 0.475528
vt 0.965005 0.445161
vt 0.931041 0.473124
vt 0.947475 0.433448
vt 0.926797 0.472280
vt 0.926797 0.429335
vt 0.922554 0.473124
vt 0.906119 0.433448
vt 0.918956 0.475528
vt 0.888590 0.445161
vt 0.916552 0.479126
vt 0.876876 0.462691
vt 0.915708 0.483369
vt 0.872763 0.483369
vt 0.916553 0.487613
vt 0.876876 0.504047
vt 0.918956 0.491210
vt 0.888589 0.521577
vt 0.922554 0.493614
vt 0.906119 0.533290
vt 0.815292 0.543520
vt 0.815292 0.586464
vt 0.794614 0.582351
vt 0.811049 0.542675
vt 0.777085 0.570638
vt 0.807451 0.540272
vt 0.765372 0.553108
vt 0.805047 0.536674
vt 0.761259 0.532431
vt 0.804203 0.532431
vt 0.765372 0.511753
vt 0.805047 0.528187
vt 0.777085 0.494223
vt 0.807451 0.524590
vt 0.794615 0.482510
vt 0.811049 0.522186
vt 0.815292 0.478397
vt 0.815292 0.521342
vt 0.835970 0.482510
vt 0.819536 0.522186
vt 0.853500 0.494223
vt 0.823133 0.524590
vt 0.865213 0.511753
vt 0.825537 0.528187
vt 0.869326 0.532431
vt 0.826381 0.532431
vt 0.865213 0.553109
vt 0.825537 0.536674
vt 0.853499 0.570638
vt 0.823133 0.540272
vt 0.835970 0.582351
vt 0.819536 0.542675
vt 0.983084 0.254767
vt 0.983084 0.275983
vt 0.978757 0.275983
vt 0.978757 0.254767
vt 0.856318 0.434595
vt 0.870202 0.448479
vt 0.847011 0.462471
vt 0.839497 0.444330
vt 0.870587 0.381120
vt 0.888728 0.373606
vt 0.892779 0.400386
vt 0.873144 0.400386
vt 0.974430 0.275983
vt 0.974430 0.254767
vt 0.868133 0.419164
vt 0.886274 0.426678
vt 0.860852 0.364299
vt 0.874736 0.350414
vt 0.970103 0.275983
vt 0.970103 0.254767
vt 0.845421 0.352484
vt 0.852935 0.334343
vt 0.965776 0.275983
vt 0.965776 0.254767
vt 0.826643 0.347473
vt 0.826643 0.327838
vt 0.961449 0.275983
vt 0.961449 0.254767
vt 0.807377 0.350030
vt 0.799863 0.331889
vt 0.957122 0.275983
vt 0.957122 0.254767
vt 0.790556 0.359765
vt 0.776671 0.345881
vt 0.952795 0.275983
vt 0.952795 0.254767
vt 0.778740 0.375196
vt 0.760600 0.367682
vt 0.948468 0.275983
vt 0.948468 0.254767
vt 0.773730 0.393974
vt 0.754095 0.393974
vt 0.944141 0.275983
vt 0.944141 0.254767
vt 0.776287 0.413240
vt 0.758146 0.420755
vt 0.939814 0.275983
vt 0.939814 0.254767
vt 0.786022 0.430061
vt 0.772138 0.443946
vt 0.935487 0.275983
vt 0.935487 0.254767
vt 0.996065 0.254767
vt 0.996065 0.275983
vt 0.991738 0.275983
vt 0.991738 0.254767
vt 0.801453 0.441877
vt 0.793939 0.460017
vt 0.931160 0.275983
vt 0.931160 0.254767
vt 0.987411 0.275983
vt 0.987411 0.254767
vt 0.820231 0.446887
vt 0.820231 0.466522
vt 0.926833 0.275983
vt 0.926833 0.254767
vt 0.498733 0.415827
vt 0.255720 0.415827
vt 0.255719 0.412013
vt 0.498733 0.412013
vt 0.255719 0.408585
vt 0.498733 0.408585
vt 0.255719 0.405591
vt 0.498733 0.405591
vt 0.255720 0.402597
vt 0.498733 0.402598
vt 0.255719 0.399169
vt 0.498733 0.399169
vt 0.255720 0.395355
vt 0.498733 0.395355
vt 0.255720 0.391541
vt 0.498733 0.391541
vt 0.255720 0.388113
vt 0.498733 0.388113
vt 0.255720 0.385119
vt 0.498733 0.385120
vt 0.255720 0.382126
vt 0.498733 0.382126
vt 0.255720 0.378697
vt 0.498734 0.378698
vt 0.255720 0.374884
vt 0.498733 0.374884
vt 0.749335 0.415421
vt 0.506334 0.415421
vt 0.506335 0.411607
vt 0.749335 0.411607
vt 0.506335 0.408179
vt 0.749334 0.408179
vt 0.506335 0.405186
vt 0.749335 0.405186
vt 0.506335 0.402192
vt 0.749335 0.402192
vt 0.506335 0.398764
vt 0.749334 0.398764
vt 0.506335 0.394951
vt 0.749334 0.394950
vt 0.506335 0.391137
vt 0.749335 0.391137
vt 0.506335 0.387709
vt 0.749335 0.387709
vt 0.506335 0.384715
vt 0.749334 0.384715
vt 0.506335 0.381722
vt 0.749334 0.381722
vt 0.506334 0.378294
vt 0.749335 0.378294
vt 0.506335 0.374480
vt 0.749335 0.374480
vt 0.255725 0.424883
vt 0.498739 0.424883
vt 0.498739 0.428697
vt 0.255725 0.428697
vt 0.498738 0.432126
vt 0.255725 0.432126
vt 0.498738 0.435119
vt 0.255726 0.435119
vt 0.498738 0.438113
vt 0.255725 0.438113
vt 0.498739 0.441541
vt 0.255725 0.441541
vt 0.498739 0.445355
vt 0.255725 0.445355
vt 0.498738 0.449169
vt 0.255725 0.449169
vt 0.498739 0.452597
vt 0.255725 0.452597
vt 0.498738 0.455591
vt 0.255725 0.455591
vt 0.498738 0.458584
vt 0.255726 0.458584
vt 0.498739 0.462013
vt 0.255725 0.462013
vt 0.498738 0.465827
vt 0.255725 0.465827
vt 0.247899 0.415822
vt 0.004886 0.415822
vt 0.004885 0.412008
vt 0.247899 0.412008
vt 0.004885 0.408579
vt 0.247899 0.408579
vt 0.004885 0.405586
vt 0.247899 0.405586
vt 0.004886 0.402592
vt 0.247899 0.402592
vt 0.004885 0.399164
vt 0.247899 0.399164
vt 0.004886 0.395350
vt 0.247899 0.395350
vt 0.004886 0.391536
vt 0.247899 0.391536
vt 0.004886 0.388108
vt 0.247899 0.388108
vt 0.004886 0.385114
vt 0.247899 0.385114
vt 0.004886 0.382120
vt 0.247899 0.382120
vt 0.004886 0.378692
vt 0.247899 0.378692
vt 0.004886 0.374878
vt 0.247899 0.374878
vt 0.247916 0.465826
vt 0.004886 0.465826
vt 0.004886 0.462012
vt 0.247916 0.462012
vt 0.004887 0.458583
vt 0.247917 0.458583
vt 0.004887 0.455589
vt 0.247916 0.455589
vt 0.004886 0.452595
vt 0.247916 0.452595
vt 0.004886 0.449167
vt 0.247916 0.449167
vt 0.004886 0.445353
vt 0.247916 0.445353
vt 0.004886 0.441538
vt 0.247916 0.441539
vt 0.004887 0.438110
vt 0.247917 0.438110
vt 0.004887 0.435116
vt 0.247916 0.435116
vt 0.004886 0.432122
vt 0.247916 0.432122
vt 0.004886 0.428694
vt 0.247916 0.428694
vt 0.004886 0.424880
vt 0.247916 0.424880
vt 0.006046 0.472060
vt 0.249061 0.472060
vt 0.249061 0.475874
vt 0.006046 0.475874
vt 0.249060 0.479302
vt 0.006046 0.479303
vt 0.249060 0.482296
vt 0.006045 0.482296
vt 0.249060 0.485290
vt 0.006046 0.485290
vt 0.249060 0.488718
vt 0.006046 0.488718
vt 0.249061 0.492532
vt 0.006046 0.492532
vt 0.249061 0.496346
vt 0.006046 0.496346
vt 0.249061 0.499774
vt 0.006046 0.499774
vt 0.249061 0.502768
vt 0.006046 0.502768
vt 0.249060 0.505762
vt 0.006046 0.505762
vt 0.249060 0.509190
vt 0.006046 0.509190
vt 0.249060 0.513004
vt 0.006045 0.513004
vt 0.506521 0.324883
vt 0.749529 0.324886
vt 0.749529 0.328699
vt 0.506521 0.328697
vt 0.749528 0.332128
vt 0.506521 0.332125
vt 0.749529 0.335121
vt 0.506522 0.335119
vt 0.749529 0.338115
vt 0.506521 0.338112
vt 0.749529 0.341543
vt 0.506521 0.341541
vt 0.749529 0.345357
vt 0.506521 0.345354
vt 0.749529 0.349171
vt 0.506521 0.349168
vt 0.749529 0.352599
vt 0.506521 0.352596
vt 0.749528 0.355592
vt 0.506521 0.355590
vt 0.749529 0.358586
vt 0.506521 0.358584
vt 0.749529 0.362014
vt 0.506521 0.362012
vt 0.749529 0.365828
vt 0.506521 0.365826
vt 0.506330 0.471991
vt 0.749347 0.471991
vt 0.749346 0.475805
vt 0.506330 0.475805
vt 0.749346 0.479234
vt 0.506330 0.479234
vt 0.749346 0.482227
vt 0.506330 0.482227
vt 0.749347 0.485221
vt 0.506330 0.485221
vt 0.749347 0.488649
vt 0.506330 0.488650
vt 0.749347 0.492463
vt 0.506330 0.492463
vt 0.749346 0.496277
vt 0.506330 0.496277
vt 0.749346 0.499706
vt 0.506329 0.499706
vt 0.749346 0.502699
vt 0.506330 0.502699
vt 0.749347 0.505693
vt 0.506330 0.505693
vt 0.749347 0.509121
vt 0.506330 0.509121
vt 0.749347 0.512935
vt 0.506330 0.512935
vt 0.004885 0.324887
vt 0.247885 0.324887
vt 0.247885 0.328701
vt 0.004886 0.328701
vt 0.247884 0.332129
vt 0.004886 0.332129
vt 0.247884 0.335122
vt 0.004885 0.335122
vt 0.247884 0.338116
vt 0.004885 0.338116
vt 0.247884 0.341544
vt 0.004885 0.341544
vt 0.247884 0.345358
vt 0.004885 0.345357
vt 0.247885 0.349171
vt 0.004885 0.349171
vt 0.247885 0.352600
vt 0.004885 0.352599
vt 0.247885 0.355593
vt 0.004886 0.355593
vt 0.247885 0.358586
vt 0.004886 0.358586
vt 0.247884 0.362015
vt 0.004885 0.362015
vt 0.247884 0.365828
vt 0.004885 0.365828
vt 0.498921 0.513256
vt 0.255918 0.513256
vt 0.255917 0.509442
vt 0.498921 0.509442
vt 0.255919 0.506014
vt 0.498921 0.506014
vt 0.255918 0.503020
vt 0.498921 0.503021
vt 0.255918 0.500027
vt 0.498921 0.500027
vt 0.255918 0.496599
vt 0.498921 0.496599
vt 0.255918 0.492785
vt 0.498921 0.492785
vt 0.255918 0.488971
vt 0.498921 0.488971
vt 0.255918 0.485543
vt 0.498921 0.485543
vt 0.255918 0.482549
vt 0.498921 0.482550
vt 0.255918 0.479556
vt 0.498921 0.479556
vt 0.255918 0.476128
vt 0.498921 0.476128
vt 0.255918 0.472314
vt 0.498921 0.472314
vt 0.255710 0.324886
vt 0.498712 0.324886
vt 0.498711 0.328699
vt 0.255711 0.328699
vt 0.498711 0.332128
vt 0.255711 0.332128
vt 0.498711 0.335121
vt 0.255710 0.335121
vt 0.498711 0.338115
vt 0.255711 0.338115
vt 0.498711 0.341543
vt 0.255711 0.341543
vt 0.498711 0.345356
vt 0.255710 0.345356
vt 0.498711 0.349170
vt 0.255711 0.349170
vt 0.498711 0.352598
vt 0.255711 0.352598
vt 0.498711 0.355592
vt 0.255710 0.355592
vt 0.498711 0.358585
vt 0.255711 0.358585
vt 0.498711 0.362013
vt 0.255711 0.362013
vt 0.498711 0.365827
vt 0.255710 0.365827
vt 0.749332 0.464180
vt 0.506333 0.464180
vt 0.506334 0.460366
vt 0.749332 0.460366
vt 0.506334 0.456938
vt 0.749332 0.456938
vt 0.506334 0.453944
vt 0.749333 0.453944
vt 0.506334 0.450950
vt 0.749333 0.450951
vt 0.506334 0.447522
vt 0.749332 0.447523
vt 0.506334 0.443709
vt 0.749332 0.443709
vt 0.506334 0.439895
vt 0.749332 0.439896
vt 0.506333 0.436467
vt 0.749332 0.436467
vt 0.506333 0.433474
vt 0.749332 0.433474
vt 0.506334 0.430480
vt 0.749332 0.430481
vt 0.506334 0.427052
vt 0.749332 0.427052
vt 0.506334 0.423239
vt 0.749333 0.423239
s 1
f 66/1/1 98/2/1 97/3/1 65/4/1
f 34/5/2 33/6/2 2/7/2 1/8/2
f 33/6/2 35/9/2 3/10/2 2/7/2
f 35/9/2 36/11/2 4/12/2 3/10/2
f 36/11/2 37/13/2 5/14/2 4/12/2
f 37/13/2 38/15/2 6/16/2 5/14/2
f 38/15/2 39/17/2 7/18/2 6/16/2
f 39/17/2 40/19/2 8/20/2 7/18/2
f 40/19/2 41/21/2 9/22/2 8/20/2
f 41/21/2 42/23/2 10/24/2 9/22/2
f 42/23/2 43/25/2 11/26/2 10/24/2
f 43/25/2 44/27/2 12/28/2 11/26/2
f 44/27/2 45/29/2 13/30/2 12/28/2
f 45/29/2 46/31/2 14/32/2 13/30/2
f 46/31/2 47/33/2 15/34/2 14/32/2
f 47/33/2 48/35/2 16/36/2 15/34/2
f 48/35/2 49/37/2 17/38/2 16/36/2
f 49/39/2 50/40/2 18/41/2 17/42/2
f 50/40/2 51/43/2 19/44/2 18/41/2
f 51/43/2 52/45/2 20/46/2 19/44/2
f 52/45/2 53/47/2 21/48/2 20/46/2
f 53/47/2 54/49/2 22/50/2 21/48/2
f 54/49/2 55/51/2 23/52/2 22/50/2
f 55/51/2 56/53/2 24/54/2 23/52/2
f 56/53/2 57/55/2 25/56/2 24/54/2
f 57/55/2 58/57/2 26/58/2 25/56/2
f 58/57/2 59/59/2 27/60/2 26/58/2
f 59/59/2 60/61/2 28/62/2 27/60/2
f 60/61/2 61/63/2 29/64/2 28/62/2
f 61/63/2 62/65/2 30/66/2 29/64/2
f 62/65/2 63/67/2 31/68/2 30/66/2
f 63/67/2 64/69/2 32/70/2 31/68/2
f 64/69/2 34/71/2 1/72/2 32/70/2
f 65/4/1 97/3/1 99/73/1 67/74/1
f 67/74/1 99/73/1 100/75/1 68/76/1
f 68/76/1 100/75/1 101/77/1 69/78/1
f 69/78/1 101/77/1 102/79/1 70/80/1
f 70/80/1 102/79/1 103/81/1 71/82/1
f 71/82/1 103/81/1 104/83/1 72/84/1
f 72/84/1 104/83/1 105/85/1 73/86/1
f 73/86/1 105/85/1 106/87/1 74/88/1
f 74/88/1 106/87/1 107/89/1 75/90/1
f 75/90/1 107/89/1 108/91/1 76/92/1
f 76/92/1 108/91/1 109/93/1 77/94/1
f 77/94/1 109/93/1 110/95/1 78/96/1
f 78/96/1 110/95/1 111/97/1 79/98/1
f 79/98/1 111/97/1 112/99/1 80/100/1
f 80/100/1 112/99/1 113/101/1 81/102/1
f 81/103/1 113/104/1 114/105/1 82/106/1
f 82/106/1 114/105/1 115/107/1 83/108/1
f 83/108/1 115/107/1 116/109/1 84/110/1
f 84/110/1 116/109/1 117/111/1 85/112/1
f 85/112/1 117/111/1 118/113/1 86/114/1
f 86/114/1 118/113/1 119/115/1 87/116/1
f 87/116/1 119/115/1 120/117/1 88/118/1
f 88/118/1 120/117/1 121/119/1 89/120/1
f 89/120/1 121/119/1 122/121/1 90/122/1
f 90/122/1 122/121/1 123/123/1 91/124/1
f 91/124/1 123/123/1 124/125/1 92/126/1
f 92/126/1 124/125/1 125/127/1 93/128/1
f 93/128/1 125/127/1 126/129/1 94/130/1
f 94/130/1 126/129/1 127/131/1 95/132/1
f 95/132/1 127/131/1 128/133/1 96/134/1
f 96/134/1 128/133/1 98/135/1 66/136/1
f 14/32/3 110/95/3 109/93/4 13/30/4
f 51/137/5 83/138/5 84/139/6 52/140/6
f 15/34/7 111/97/7 110/95/3 14/32/3
f 52/140/6 84/139/6 85/141/8 53/142/8
f 16/36/9 112/99/9 111/97/7 15/34/7
f 53/142/8 85/141/8 86/143/10 54/144/10
f 17/38/11 113/101/11 112/99/9 16/36/9
f 54/144/10 86/143/10 87/145/12 55/146/12
f 18/41/13 114/105/13 113/104/11 17/42/11
f 55/146/12 87/145/12 88/147/14 56/148/14
f 19/44/15 115/107/15 114/105/13 18/41/13
f 56/148/14 88/147/14 89/149/16 57/150/16
f 20/46/17 116/109/17 115/107/15 19/44/15
f 57/150/16 89/149/16 90/151/18 58/152/18
f 21/48/19 117/111/19 116/109/17 20/46/17
f 58/152/18 90/151/18 91/153/20 59/154/20
f 22/50/21 118/113/21 117/111/19 21/48/19
f 59/154/20 91/153/20 92/155/22 60/156/22
f 34/157/11 66/158/11 65/159/13 33/160/13
f 23/52/23 119/115/23 118/113/21 22/50/21
f 60/156/22 92/155/22 93/161/4 61/162/4
f 33/160/13 65/159/13 67/163/15 35/164/15
f 24/54/24 120/117/24 119/115/23 23/52/23
f 61/162/4 93/161/4 94/165/3 62/166/3
f 35/164/15 67/163/15 68/167/17 36/168/17
f 25/56/25 121/119/25 120/117/24 24/54/24
f 62/166/3 94/165/3 95/169/7 63/170/7
f 36/168/17 68/167/17 69/171/19 37/172/19
f 26/58/26 122/121/26 121/119/25 25/56/25
f 63/170/7 95/169/7 96/173/9 64/174/9
f 37/172/19 69/171/19 70/175/21 38/176/21
f 27/60/27 123/123/27 122/121/26 26/58/26
f 64/174/9 96/173/9 66/177/11 34/178/11
f 38/176/21 70/175/21 71/179/23 39/180/23
f 28/62/28 124/125/28 123/123/27 27/60/27
f 2/7/29 97/3/29 98/2/30 1/8/30
f 39/180/23 71/179/23 72/181/24 40/182/24
f 29/64/31 125/127/31 124/125/28 28/62/28
f 3/10/5 99/73/5 97/3/29 2/7/29
f 40/182/24 72/181/24 73/183/25 41/184/25
f 30/66/32 126/129/32 125/127/31 29/64/31
f 4/12/6 100/75/6 99/73/5 3/10/5
f 41/184/25 73/183/25 74/185/26 42/186/26
f 31/68/33 127/131/33 126/129/32 30/66/32
f 5/14/8 101/77/8 100/75/6 4/12/6
f 42/186/26 74/185/26 75/187/27 43/188/27
f 32/70/34 128/133/34 127/131/33 31/68/33
f 6/16/10 102/79/10 101/77/8 5/14/8
f 43/188/27 75/187/27 76/189/28 44/190/28
f 1/72/30 98/135/30 128/133/34 32/70/34
f 7/18/12 103/81/12 102/79/10 6/16/10
f 44/190/28 76/189/28 77/191/31 45/192/31
f 8/20/14 104/83/14 103/81/12 7/18/12
f 45/192/31 77/191/31 78/193/32 46/194/32
f 9/22/16 105/85/16 104/83/14 8/20/14
f 46/194/32 78/193/32 79/195/33 47/196/33
f 10/24/18 106/87/18 105/85/16 9/22/16
f 47/196/33 79/195/33 80/197/34 48/198/34
f 11/26/20 107/89/20 106/87/18 10/24/18
f 48/198/34 80/197/34 81/199/30 49/200/30
f 12/28/22 108/91/22 107/89/20 11/26/20
f 49/201/30 81/202/30 82/203/29 50/204/29
f 13/30/4 109/93/4 108/91/22 12/28/22
f 50/204/29 82/203/29 83/138/5 51/137/5
f 146/205/2 145/206/2 130/207/2 129/208/2
f 145/206/2 147/209/2 131/210/2 130/207/2
f 147/209/2 148/211/2 132/212/2 131/210/2
f 148/211/2 149/213/2 133/214/2 132/212/2
f 149/213/2 150/215/2 134/216/2 133/214/2
f 150/215/2 151/217/2 135/218/2 134/216/2
f 151/217/2 152/219/2 136/220/2 135/218/2
f 152/219/2 153/221/2 137/222/2 136/220/2
f 153/221/2 154/223/2 138/224/2 137/222/2
f 154/223/2 155/225/2 139/226/2 138/224/2
f 155/225/2 156/227/2 140/228/2 139/226/2
f 156/227/2 157/229/2 141/230/2 140/228/2
f 157/229/2 158/231/2 142/232/2 141/230/2
f 158/231/2 159/233/2 143/234/2 142/232/2
f 159/233/2 160/235/2 144/236/2 143/234/2
f 160/235/2 146/205/2 129/208/2 144/236/2
f 162/237/1 178/238/1 177/239/1 161/240/1
f 161/240/1 177/239/1 179/241/1 163/242/1
f 163/242/1 179/241/1 180/243/1 164/244/1
f 164/244/1 180/243/1 181/245/1 165/246/1
f 165/246/1 181/245/1 182/247/1 166/248/1
f 166/248/1 182/247/1 183/249/1 167/250/1
f 167/250/1 183/249/1 184/251/1 168/252/1
f 168/252/1 184/251/1 185/253/1 169/254/1
f 169/254/1 185/253/1 186/255/1 170/256/1
f 170/256/1 186/255/1 187/257/1 171/258/1
f 171/258/1 187/257/1 188/259/1 172/260/1
f 172/260/1 188/259/1 189/261/1 173/262/1
f 173/262/1 189/261/1 190/263/1 174/264/1
f 174/264/1 190/263/1 191/265/1 175/266/1
f 175/266/1 191/265/1 192/267/1 176/268/1
f 176/268/1 192/267/1 178/238/1 162/237/1
f 148/269/23 164/270/23 165/271/25 149/272/25
f 144/273/33 192/274/33 191/275/31 143/276/31
f 131/277/8 179/278/8 177/279/5 130/280/5
f 149/272/25 165/271/25 166/281/27 150/282/27
f 129/283/30 178/284/30 192/274/33 144/273/33
f 132/285/12 180/286/12 179/278/8 131/277/8
f 150/282/27 166/281/27 167/287/31 151/288/31
f 133/289/16 181/290/16 180/286/12 132/285/12
f 151/288/31 167/287/31 168/291/33 152/292/33
f 134/293/20 182/294/20 181/290/16 133/289/16
f 152/292/33 168/291/33 169/295/30 153/296/30
f 135/297/4 183/298/4 182/294/20 134/293/20
f 153/296/30 169/295/30 170/299/5 154/300/5
f 136/301/7 184/302/7 183/298/4 135/297/4
f 154/300/5 170/299/5 171/303/8 155/304/8
f 137/305/11 185/306/11 184/302/7 136/301/7
f 155/304/8 171/303/8 172/307/12 156/308/12
f 138/309/15 186/310/15 185/306/11 137/305/11
f 156/308/12 172/307/12 173/311/16 157/312/16
f 139/313/19 187/314/19 186/310/15 138/309/15
f 157/312/16 173/311/16 174/315/20 158/316/20
f 140/317/23 188/318/23 187/314/19 139/313/19
f 158/316/20 174/315/20 175/319/4 159/320/4
f 146/321/11 162/322/11 161/323/15 145/324/15
f 141/325/25 189/326/25 188/318/23 140/317/23
f 159/320/4 175/319/4 176/327/7 160/328/7
f 145/324/15 161/323/15 163/329/19 147/330/19
f 142/331/27 190/332/27 189/326/25 141/325/25
f 160/328/7 176/327/7 162/333/11 146/334/11
f 147/330/19 163/329/19 164/270/23 148/269/23
f 143/276/31 191/275/31 190/332/27 142/331/27
f 130/280/5 177/279/5 178/284/30 129/283/30
f 193/335/1 194/336/1 196/337/35 195/338/35
f 195/338/35 196/337/35 198/339/36 197/340/36
f 197/340/36 198/339/36 200/341/16 199/342/16
f 199/342/16 200/341/16 202/343/37 201/344/37
f 201/344/37 202/343/37 204/345/38 203/346/38
f 203/346/38 204/345/38 206/347/2 205/348/2
f 205/348/2 206/347/2 208/349/39 207/350/39
f 207/350/39 208/349/39 210/351/40 209/352/40
f 209/352/40 210/351/40 212/353/25 211/354/25
f 211/354/25 212/353/25 214/355/41 213/356/41
f 213/356/41 214/355/41 216/357/42 215/358/42
f 215/358/42 216/357/42 194/359/1 193/360/1
f 217/361/1 218/362/1 220/363/43 219/364/43
f 219/364/43 220/363/43 222/365/44 221/366/44
f 221/366/44 222/365/44 224/367/45 223/368/45
f 223/368/45 224/367/45 226/369/46 225/370/46
f 225/370/46 226/369/46 228/371/47 227/372/47
f 227/372/47 228/371/47 230/373/2 229/374/2
f 229/374/2 230/373/2 232/375/48 231/376/48
f 231/376/48 232/375/48 234/377/49 233/378/49
f 233/378/49 234/377/49 236/379/50 235/380/50
f 235/380/50 236/379/50 238/381/51 237/382/51
f 237/382/51 238/381/51 240/383/52 239/384/52
f 239/384/52 240/383/52 218/385/1 217/386/1
f 241/387/1 242/388/1 244/389/53 243/390/53
f 243/390/53 244/389/53 246/391/54 245/392/54
f 245/392/54 246/391/54 248/393/55 247/394/55
f 247/394/55 248/393/55 250/395/56 249/396/56
f 249/396/56 250/395/56 252/397/57 251/398/57
f 251/398/57 252/397/57 254/399/2 253/400/2
f 253/400/2 254/399/2 256/401/58 255/402/58
f 255/402/58 256/401/58 258/403/59 257/404/59
f 257/404/59 258/403/59 260/405/60 259/406/60
f 259/406/60 260/405/60 262/407/61 261/408/61
f 261/408/61 262/407/61 264/409/62 263/410/62
f 263/410/62 264/409/62 242/411/1 241/412/1
f 265/413/1 266/414/1 268/415/63 267/416/63
f 267/416/63 268/415/63 270/417/64 269/418/64
f 269/418/64 270/417/64 272/419/11 271/420/11
f 271/420/11 272/419/11 274/421/65 273/422/65
f 273/422/65 274/421/65 276/423/66 275/424/66
f 275/424/66 276/423/66 278/425/2 277/426/2
f 277/426/2 278/425/2 280/427/67 279/428/67
f 279/428/67 280/427/67 282/429/68 281/430/68
f 281/430/68 282/429/68 284/431/30 283/432/30
f 283/432/30 284/431/30 286/433/69 285/434/69
f 285/434/69 286/433/69 288/435/70 287/436/70
f 287/436/70 288/435/70 266/437/1 265/438/1
f 289/439/1 290/440/1 292/441/71 291/442/71
f 291/442/71 292/441/71 294/443/72 293/444/72
f 293/444/72 294/443/72 296/445/73 295/446/73
f 295/446/73 296/445/73 298/447/74 297/448/74
f 297/448/74 298/447/74 300/449/75 299/450/75
f 299/450/75 300/449/75 302/451/2 301/452/2
f 301/452/2 302/451/2 304/453/76 303/454/76
f 303/454/76 304/453/76 306/455/77 305/456/77
f 305/456/77 306/455/77 308/457/78 307/458/78
f 307/458/78 308/457/78 310/459/79 309/460/79
f 309/460/79 310/459/79 312/461/80 311/462/80
f 311/462/80 312/461/80 290/463/1 289/464/1
f 313/465/1 314/466/1 316/467/81 315/468/81
f 315/468/81 316/467/81 318/469/82 317/470/82
f 317/470/82 318/469/82 320/471/83 319/472/83
f 319/472/83 320/471/83 322/473/84 321/474/84
f 321/474/84 322/473/84 324/475/85 323/476/85
f 323/476/85 324/475/85 326/477/2 325/478/2
f 325/478/2 326/477/2 328/479/86 327/480/86
f 327/480/86 328/479/86 330/481/87 329/482/87
f 329/482/87 330/481/87 332/483/88 331/484/88
f 331/484/88 332/483/88 334/485/89 333/486/89
f 333/486/89 334/485/89 336/487/90 335/488/90
f 335/488/90 336/487/90 314/489/1 313/490/1
f 337/491/1 338/492/1 340/493/42 339/494/42
f 339/494/42 340/493/42 342/495/41 341/496/41
f 341/496/41 342/495/41 344/497/25 343/498/25
f 343/498/25 344/497/25 346/499/40 345/500/40
f 345/500/40 346/499/40 348/501/39 347/502/39
f 347/502/39 348/501/39 350/503/2 349/504/2
f 349/504/2 350/503/2 352/505/38 351/506/38
f 351/506/38 352/505/38 354/507/37 353/508/37
f 353/508/37 354/507/37 356/509/16 355/510/16
f 355/510/16 356/509/16 358/511/36 357/512/36
f 357/512/36 358/511/36 360/513/35 359/514/35
f 359/514/35 360/513/35 338/515/1 337/516/1
f 361/517/1 362/518/1 364/519/52 363/520/52
f 363/520/52 364/519/52 366/521/51 365/522/51
f 365/522/51 366/521/51 368/523/50 367/524/50
f 367/524/50 368/523/50 370/525/49 369/526/49
f 369/526/49 370/525/49 372/527/48 371/528/48
f 371/528/48 372/527/48 374/529/2 373/530/2
f 373/530/2 374/529/2 376/531/47 375/532/47
f 375/532/47 376/531/47 378/533/46 377/534/46
f 377/534/46 378/533/46 380/535/45 379/536/45
f 379/536/45 380/535/45 382/537/44 381/538/44
f 381/538/44 382/537/44 384/539/43 383/540/43
f 383/540/43 384/539/43 362/541/1 361/542/1
f 385/543/1 386/544/1 388/545/62 387/546/62
f 387/546/62 388/545/62 390/547/61 389/548/61
f 389/548/61 390/547/61 392/549/60 391/550/60
f 391/550/60 392/549/60 394/551/59 393/552/59
f 393/552/59 394/551/59 396/553/58 395/554/58
f 395/554/58 396/553/58 398/555/2 397/556/2
f 397/556/2 398/555/2 400/557/57 399/558/57
f 399/558/57 400/557/57 402/559/56 401/560/56
f 401/560/56 402/559/56 404/561/55 403/562/55
f 403/562/55 404/561/55 406/563/54 405/564/54
f 405/564/54 406/563/54 408/565/53 407/566/53
f 407/566/53 408/565/53 386/567/1 385/568/1
f 409/569/1 410/570/1 412/571/70 411/572/70
f 411/572/70 412/571/70 414/573/69 413/574/69
f 413/574/69 414/573/69 416/575/30 415/576/30
f 415/576/30 416/575/30 418/577/68 417/578/68
f 417/578/68 418/577/68 420/579/67 419/580/67
f 419/580/67 420/579/67 422/581/2 421/582/2
f 421/582/2 422/581/2 424/583/66 423/584/66
f 423/584/66 424/583/66 426/585/65 425/586/65
f 425/586/65 426/585/65 428/587/11 427/588/11
f 427/588/11 428/587/11 430/589/64 429/590/64
f 429/590/64 430/589/64 432/591/63 431/592/63
f 431/592/63 432/591/63 410/593/1 409/594/1
f 433/595/1 434/596/1 436/597/80 435/598/80
f 435/598/80 436/597/80 438/599/79 437/600/79
f 437/600/79 438/599/79 440/601/78 439/602/78
f 439/602/78 440/601/78 442/603/77 441/604/77
f 441/604/77 442/603/77 444/605/76 443/606/76
f 443/606/76 444/605/76 446/607/2 445/608/2
f 445/608/2 446/607/2 448/609/75 447/610/75
f 447/610/75 448/609/75 450/611/74 449/612/74
f 449/612/74 450/611/74 452/613/73 451/614/73
f 451/614/73 452/613/73 454/615/72 453/616/72
f 453/616/72 454/615/72 456/617/71 455/618/71
f 455/618/71 456/617/71 434/619/1 433/620/1
f 457/621/1 458/622/1 460/623/90 459/624/90
f 459/624/90 460/623/90 462/625/89 461/626/89
f 461/626/89 462/625/89 464/627/88 463/628/88
f 463/628/88 464/627/88 466/629/87 465/630/87
f 465/630/87 466/629/87 468/631/86 467/632/86
f 467/632/86 468/631/86 470/633/2 469/634/2
f 469/634/2 470/633/2 472/635/85 471/636/85
f 471/636/85 472/635/85 474/637/84 473/638/84
f 473/638/84 474/637/84 476/639/83 475/640/83
f 475/640/83 476/639/83 478/641/82 477/642/82
f 477/642/82 478/641/82 480/643/81 479/644/81
f 479/644/81 480/643/81 458/645/1 457/646/1
