# Blender 4.0.2
# www.blender.org
o butternut_squash
v 0.000274 0.033754 -0.052345
v 0.000326 0.063919 -0.047864
v 0.011926 0.033706 -0.050858
v 0.011029 0.063919 -0.047361
v 0.022753 0.033767 -0.045940
v 0.020890 0.063915 -0.042969
v 0.031932 0.033913 -0.038863
v 0.029280 0.063910 -0.036297
v 0.039830 0.034061 -0.029779
v 0.035587 0.063903 -0.027717
v 0.044056 0.034240 -0.018664
v 0.039171 0.063895 -0.017777
v 0.045617 0.034445 -0.006476
v 0.040707 0.063886 -0.007290
v 0.043078 0.034681 0.005152
v 0.038816 0.063878 0.003152
v 0.039381 0.034897 0.016255
v 0.035128 0.063869 0.013035
v 0.032275 0.035067 0.026116
v 0.028522 0.063863 0.021478
v 0.023426 0.035173 0.033876
v 0.020791 0.063857 0.028841
v 0.012192 0.035216 0.039229
v 0.010853 0.063853 0.033532
v 0.000138 0.035202 0.041875
v 0.000048 0.063851 0.036123
v -0.012649 0.035160 0.040930
v -0.011230 0.063851 0.035350
v -0.024814 0.035090 0.035780
v -0.021982 0.063855 0.030929
v -0.035451 0.034984 0.028183
v -0.031341 0.063860 0.024219
v -0.043318 0.034871 0.018066
v -0.038181 0.063868 0.015031
v -0.047150 0.034735 0.006260
v -0.041582 0.063877 0.004249
v -0.049222 0.034567 -0.006399
v -0.042588 0.063886 -0.006934
v -0.046900 0.034401 -0.018905
v -0.039851 0.063895 -0.017708
v -0.042556 0.034198 -0.030867
v -0.035934 0.063903 -0.027856
v -0.034361 0.034033 -0.040761
v -0.029070 0.063910 -0.036317
v -0.023515 0.033920 -0.047597
v -0.020178 0.063915 -0.042635
v -0.012068 0.033807 -0.052405
v -0.010322 0.063918 -0.046824
v 0.010176 0.093916 -0.044224
v 0.000295 0.093916 -0.044435
v 0.019512 0.093913 -0.040570
v 0.027386 0.093907 -0.034388
v 0.033382 0.093901 -0.026374
v 0.036534 0.093893 -0.017023
v 0.037075 0.093885 -0.007302
v 0.035105 0.093878 0.002072
v 0.031298 0.093871 0.010756
v 0.025570 0.093864 0.018300
v 0.018251 0.093859 0.024360
v 0.009510 0.093856 0.028304
v 0.000049 0.093854 0.030437
v -0.009752 0.093855 0.029823
v -0.018960 0.093858 0.025958
v -0.026904 0.093863 0.019947
v -0.032660 0.093870 0.011860
v -0.035519 0.093877 0.002481
v -0.036216 0.093885 -0.007112
v -0.034363 0.093893 -0.016411
v -0.030644 0.093900 -0.024996
v -0.024988 0.093906 -0.032429
v -0.017642 0.093911 -0.038267
v -0.009094 0.093914 -0.042269
v 0.009982 0.109103 -0.043820
v 0.000208 0.109103 -0.043999
v 0.019354 0.109100 -0.040381
v 0.027365 0.109095 -0.034425
v 0.033589 0.109089 -0.026483
v 0.036872 0.109081 -0.017038
v 0.037551 0.109073 -0.007175
v 0.035351 0.109065 0.002222
v 0.031366 0.109058 0.010827
v 0.025574 0.109052 0.018263
v 0.018188 0.109047 0.024075
v 0.009476 0.109044 0.027748
v 0.000153 0.109043 0.029464
v -0.009337 0.109044 0.028443
v -0.018021 0.109047 0.024367
v -0.025352 0.109052 0.018364
v -0.031100 0.109058 0.010881
v -0.033749 0.109065 0.001939
v -0.034382 0.109073 -0.007169
v -0.032805 0.109080 -0.016042
v -0.029395 0.109087 -0.024284
v -0.024094 0.109093 -0.031537
v -0.017106 0.109097 -0.037326
v -0.009010 0.109101 -0.041673
v 0.009361 0.124963 -0.041871
v 0.000089 0.124963 -0.042087
v 0.018359 0.124961 -0.038801
v 0.026115 0.124956 -0.033243
v 0.032188 0.124950 -0.025705
v 0.035595 0.124943 -0.016619
v 0.036359 0.124935 -0.007050
v 0.034290 0.124927 0.002070
v 0.030463 0.124920 0.010371
v 0.024743 0.124915 0.017424
v 0.017572 0.124910 0.022898
v 0.009212 0.124907 0.026406
v 0.000226 0.124906 0.027776
v -0.008839 0.124907 0.026644
v -0.017081 0.124910 0.022716
v -0.024007 0.124915 0.016948
v -0.029026 0.124921 0.009613
v -0.031400 0.124928 0.001236
v -0.031877 0.124935 -0.007219
v -0.030410 0.124942 -0.015423
v -0.027371 0.124948 -0.023089
v -0.022638 0.124954 -0.030032
v -0.016148 0.124958 -0.035542
v -0.008606 0.124962 -0.039783
v 0.007030 0.150243 -0.031128
v 0.000453 0.150243 -0.031351
v 0.013318 0.150241 -0.028964
v 0.018741 0.150238 -0.025134
v 0.022980 0.150233 -0.020003
v 0.025699 0.150228 -0.013494
v 0.026422 0.150223 -0.006788
v 0.025146 0.150217 -0.000238
v 0.022350 0.150212 0.005580
v 0.018088 0.150208 0.010624
v 0.012930 0.150205 0.014305
v 0.007218 0.150203 0.016709
v 0.000801 0.150203 0.017654
v -0.005637 0.150203 0.016848
v -0.011541 0.150205 0.014170
v -0.016261 0.150209 0.010303
v -0.019773 0.150213 0.005292
v -0.021861 0.150217 -0.000497
v -0.022377 0.150222 -0.006563
v -0.021374 0.150227 -0.012437
v -0.019260 0.150232 -0.017943
v -0.015886 0.150236 -0.022923
v -0.011208 0.150239 -0.026828
v -0.005758 0.150241 -0.029764
v -0.000088 0.019197 -0.049265
v 0.011131 0.019237 -0.048268
v 0.021316 0.019447 -0.043352
v 0.030305 0.019615 -0.036875
v 0.037693 0.019871 -0.027976
v 0.041720 0.020262 -0.017374
v 0.043288 0.020680 -0.005751
v 0.040842 0.021162 0.005315
v 0.037422 0.021520 0.015856
v 0.030306 0.021870 0.024883
v 0.021883 0.022100 0.032185
v 0.011395 0.022242 0.037391
v -0.000110 0.022294 0.039908
v -0.012226 0.022255 0.038643
v -0.023718 0.022077 0.033950
v -0.033613 0.021778 0.026685
v -0.041026 0.021428 0.017125
v -0.044859 0.021071 0.006103
v -0.046573 0.020627 -0.005759
v -0.044427 0.020305 -0.017594
v -0.040665 0.019803 -0.028923
v -0.032942 0.019472 -0.038290
v -0.022650 0.019295 -0.044583
v -0.011828 0.019094 -0.049274
v -0.002755 0.000426 -0.011992
v -0.000339 0.000493 -0.011671
v 0.001952 0.000382 -0.010690
v 0.003925 0.000558 -0.009068
v 0.005452 0.000739 -0.006929
v 0.006394 0.001038 -0.004420
v 0.006695 0.001316 -0.001727
v 0.006326 0.001588 0.000947
v 0.005294 0.002013 0.003371
v 0.003736 0.002321 0.005399
v 0.001769 0.002626 0.006876
v -0.000439 0.002791 0.007761
v -0.002749 0.002889 0.008014
v -0.005032 0.002926 0.007643
v -0.007165 0.002920 0.006668
v -0.009035 0.002803 0.005150
v -0.010511 0.002622 0.003148
v -0.011485 0.002342 0.000784
v -0.011870 0.001984 -0.001790
v -0.011645 0.001455 -0.004391
v -0.010729 0.001281 -0.006846
v -0.009293 0.000897 -0.008960
v -0.007397 0.000554 -0.010594
v -0.005161 0.000450 -0.011624
v 0.032827 0.008917 -0.024507
v 0.026507 0.008668 -0.032643
v -0.039484 0.009963 -0.015392
v -0.040463 0.010158 -0.005030
v -0.000603 0.013229 0.034939
v 0.009428 0.013267 0.032767
v 0.036507 0.009529 -0.015210
v -0.035920 0.008171 -0.025191
v -0.011161 0.013230 0.033764
v 0.037917 0.010160 -0.004836
v -0.029182 0.007278 -0.033369
v -0.021001 0.012903 0.029674
v 0.035783 0.011551 0.004922
v -0.020224 0.007392 -0.038793
v -0.029473 0.012243 0.023211
v 0.032841 0.012047 0.014244
v -0.010653 0.007131 -0.042673
v 0.009336 0.008044 -0.042467
v -0.000564 0.007946 -0.043185
v -0.035684 0.011507 0.014728
v 0.026533 0.012782 0.022253
v 0.018554 0.008800 -0.038436
v -0.038881 0.011139 0.005131
v 0.018742 0.013116 0.028305
v 0.023005 0.139515 -0.030128
v 0.028436 0.139509 -0.023508
v -0.028270 0.139496 -0.007253
v -0.026763 0.139502 -0.014447
v 0.008331 0.139472 0.022844
v 0.000282 0.139470 0.024099
v 0.031618 0.139503 -0.015494
v -0.024219 0.139508 -0.021207
v -0.007845 0.139471 0.023013
v 0.032457 0.139496 -0.006997
v -0.020128 0.139513 -0.027441
v -0.015244 0.139474 0.019544
v 0.030725 0.139489 0.001204
v -0.014347 0.139517 -0.032304
v -0.021427 0.139478 0.014340
v 0.027302 0.139483 0.008585
v -0.007665 0.139520 -0.036020
v 0.000030 0.139521 -0.038027
v 0.008226 0.139521 -0.037719
v -0.025782 0.139484 0.007709
v 0.022190 0.139478 0.014890
v 0.016151 0.139519 -0.035012
v -0.027912 0.139490 0.000270
v 0.015767 0.139474 0.019711
v 0.019767 0.078321 -0.041034
v 0.027641 0.078316 -0.034671
v 0.035959 0.078285 0.002318
v 0.032290 0.078278 0.011365
v 0.000341 0.078324 -0.045250
v 0.010392 0.078324 -0.044916
v 0.000002 0.078261 0.032623
v -0.010342 0.078261 0.031891
v -0.038001 0.078285 0.003239
v -0.038733 0.078293 -0.006999
v -0.018541 0.078320 -0.039769
v -0.009438 0.078323 -0.043610
v 0.036717 0.078301 -0.017140
v 0.037584 0.078293 -0.007345
v 0.018916 0.078266 0.025725
v 0.009908 0.078263 0.030167
v -0.028774 0.078270 0.021774
v -0.034848 0.078277 0.013163
v -0.032507 0.078309 -0.026012
v -0.026492 0.078315 -0.033871
v 0.033500 0.078309 -0.026534
v 0.026259 0.078272 0.019104
v -0.020134 0.078265 0.027900
v -0.036467 0.078301 -0.016858
v 0.000352 0.048557 -0.051360
v 0.011891 0.048554 -0.050438
v 0.022502 0.048638 -0.045603
v 0.031474 0.048777 -0.038478
v 0.038727 0.048941 -0.029407
v 0.042834 0.049124 -0.018704
v 0.044244 0.049332 -0.007073
v 0.041911 0.049541 0.004246
v 0.038460 0.049747 0.015173
v 0.031338 0.049912 0.024557
v 0.022754 0.050038 0.032210
v 0.011860 0.050111 0.037337
v 0.000159 0.050158 0.040112
v -0.012205 0.050142 0.039227
v -0.024040 0.050056 0.034280
v -0.034133 0.049932 0.026840
v -0.041883 0.049778 0.017093
v -0.045571 0.049589 0.005509
v -0.046993 0.049390 -0.006762
v -0.044769 0.049185 -0.018889
v -0.040541 0.048993 -0.030243
v -0.032774 0.048814 -0.039866
v -0.022454 0.048677 -0.046695
v -0.011395 0.048588 -0.050848
v 0.017382 -0.001131 -0.013794
v 0.025656 0.001695 -0.019354
v 0.020483 0.001442 -0.025814
v 0.013770 -0.001399 -0.018369
v -0.022865 0.000869 -0.008496
v -0.032024 0.003250 -0.012175
v -0.032281 0.003754 -0.003955
v -0.023057 0.001401 -0.002850
v -0.001857 0.003199 0.018015
v -0.001270 0.006120 0.027058
v 0.006688 0.006248 0.025797
v 0.003566 0.003014 0.017415
v 0.019599 -0.000598 -0.008480
v 0.028603 0.002407 -0.011991
v -0.020867 -0.001017 -0.013686
v -0.028560 0.001239 -0.019534
v -0.007225 0.003438 0.017138
v -0.009344 0.006419 0.025918
v 0.020295 -0.000043 -0.002738
v 0.029771 0.003071 -0.003788
v -0.017504 -0.001688 -0.018336
v -0.023524 0.000533 -0.026010
v -0.012218 0.003306 0.015044
v -0.016859 0.006227 0.022833
v 0.019229 0.001243 0.002818
v 0.028187 0.004361 0.003919
v -0.012931 -0.001884 -0.021896
v -0.016824 0.000616 -0.030714
v -0.016540 0.003032 0.011784
v -0.023378 0.005549 0.018002
v 0.017068 0.001332 0.008110
v 0.025557 0.004831 0.011468
v -0.007602 -0.002188 -0.024201
v -0.009281 0.000284 -0.033817
v 0.003907 -0.001880 -0.024112
v 0.006681 0.000994 -0.033627
v -0.001220 0.000853 -0.034620
v -0.001826 -0.002083 -0.024946
v -0.019947 0.002559 0.007561
v -0.028288 0.005020 0.011512
v 0.013442 0.001875 0.012469
v 0.020545 0.005493 0.017931
v 0.009150 -0.001304 -0.021780
v 0.014079 0.001511 -0.030446
v -0.022076 0.002271 0.002527
v -0.031043 0.004905 0.003950
v 0.008759 0.002623 0.015535
v 0.014122 0.006211 0.022531
v 0.003770 0.160495 -0.012289
v 0.001785 0.160495 -0.012406
v 0.005645 0.160494 -0.011575
v 0.007244 0.160494 -0.010362
v 0.008471 0.160492 -0.008769
v 0.009240 0.160491 -0.006911
v 0.009472 0.160489 -0.004913
v 0.009131 0.160487 -0.002945
v 0.008309 0.160486 -0.001157
v 0.007077 0.160485 0.000351
v 0.005535 0.160484 0.001521
v 0.003756 0.160483 0.002302
v 0.001818 0.160483 0.002616
v -0.000153 0.160483 0.002410
v -0.001967 0.160484 0.001607
v -0.003475 0.160485 0.000343
v -0.004557 0.160486 -0.001268
v -0.005190 0.160488 -0.003073
v -0.005322 0.160489 -0.004947
v -0.004997 0.160491 -0.006759
v -0.004305 0.160492 -0.008445
v -0.003234 0.160493 -0.009947
v -0.001787 0.160494 -0.011112
v -0.000108 0.160495 -0.011968
v 0.016790 0.157294 -0.010198
v 0.015211 0.157297 -0.014008
v -0.010988 0.157296 -0.013344
v -0.012409 0.157294 -0.009885
v -0.002474 0.157278 0.008918
v 0.001568 0.157278 0.009341
v 0.017266 0.157290 -0.006100
v -0.008793 0.157299 -0.016424
v -0.006195 0.157280 0.007270
v 0.016566 0.157287 -0.002064
v -0.005824 0.157301 -0.018814
v -0.009286 0.157282 0.004678
v 0.014879 0.157284 0.001602
v -0.002381 0.157302 -0.020570
v 0.005571 0.157303 -0.021227
v 0.001501 0.157303 -0.021466
v -0.011506 0.157284 0.001375
v 0.012355 0.157282 0.004696
v 0.009417 0.157302 -0.019762
v -0.012805 0.157287 -0.002327
v 0.009191 0.157280 0.007095
v 0.012697 0.157300 -0.017276
v -0.013075 0.157291 -0.006169
v 0.005542 0.157278 0.008696
v -0.002736 0.002677 0.006214
v -0.002711 0.002461 0.004505
v -0.002686 0.002227 0.002582
v -0.002668 0.001934 0.000430
v -0.002670 0.001654 -0.001874
v -0.002690 0.001330 -0.004193
v -0.002701 0.001094 -0.006400
v -0.002727 0.000844 -0.008390
v -0.002746 0.000618 -0.010164
v 0.004875 0.170116 -0.009144
v 0.003071 0.170313 -0.008750
v 0.001544 0.170820 -0.009259
v -0.001161 0.170861 -0.008918
v 0.000043 0.170915 -0.009517
v -0.005815 0.168475 -0.003446
v -0.006739 0.168297 -0.002108
v -0.006758 0.168085 -0.000708
v -0.005727 0.167954 0.000801
v -0.003530 0.168074 0.001571
v -0.002312 0.168051 0.002849
v -0.001395 0.168439 0.004139
v -0.000032 0.168630 0.004765
v 0.001680 0.168636 0.004367
v 0.003429 0.168836 0.003005
v 0.006528 0.169115 0.001012
v 0.008923 0.169119 -0.000115
v 0.010307 0.169421 -0.001583
v 0.010319 0.169300 -0.003407
v 0.009534 0.169107 -0.005232
v 0.009984 0.169462 -0.008197
v 0.009452 0.169779 -0.009994
v 0.008110 0.170144 -0.010904
v 0.006453 0.170442 -0.010592
v -0.001659 0.170294 -0.007678
v -0.003435 0.168994 -0.004447
v -0.001767 0.169450 -0.005920
v 0.004857 0.169046 0.001792
v 0.004934 0.159379 -0.013042
v 0.003553 0.159536 -0.013018
v 0.001604 0.159468 -0.013289
v -0.002521 0.159568 -0.012545
v -0.000061 0.159433 -0.013560
v -0.007269 0.158926 -0.003961
v -0.008386 0.158759 -0.001918
v -0.007451 0.158489 -0.000146
v -0.005476 0.158481 0.001750
v -0.003711 0.158673 0.003613
v -0.002529 0.158517 0.005353
v -0.000569 0.158268 0.005973
v 0.001001 0.158231 0.005828
v 0.002385 0.158054 0.005947
v 0.003672 0.157912 0.006205
v 0.007502 0.157968 0.003586
v 0.009598 0.158012 0.001220
v 0.011918 0.157999 -0.000459
v 0.012780 0.158116 -0.003733
v 0.011989 0.158665 -0.006393
v 0.011234 0.158546 -0.010059
v 0.010547 0.158876 -0.012178
v 0.008693 0.159167 -0.013515
v 0.006882 0.159213 -0.013389
v -0.003555 0.159403 -0.010410
v -0.005922 0.159168 -0.006103
v -0.004761 0.159323 -0.008422
v 0.005495 0.157858 0.006385
v 0.004991 0.167620 -0.011829
v 0.005122 0.165070 -0.013966
v 0.003325 0.165196 -0.013795
v 0.003109 0.167400 -0.011306
v 0.001393 0.165549 -0.014086
v 0.001434 0.168119 -0.011763
v -0.003355 0.165651 -0.012649
v -0.002300 0.168287 -0.010904
v -0.000984 0.165738 -0.013925
v -0.000507 0.168495 -0.011908
v -0.007551 0.166582 -0.004170
v -0.008740 0.164149 -0.004544
v -0.009652 0.163996 -0.001964
v -0.008575 0.166484 -0.002078
v -0.009045 0.163769 0.000711
v -0.008235 0.166377 0.000180
v -0.007255 0.163580 0.002665
v -0.006705 0.166118 0.002063
v -0.005568 0.163566 0.004285
v -0.004892 0.166033 0.003354
v -0.003981 0.163605 0.005906
v -0.003501 0.166220 0.004757
v -0.002088 0.163653 0.007110
v -0.001929 0.166409 0.005902
v -0.000036 0.163787 0.007717
v -0.000080 0.166576 0.006474
v 0.002067 0.163990 0.007895
v 0.001877 0.166729 0.006352
v 0.004351 0.164274 0.007896
v 0.003857 0.167155 0.005914
v 0.008183 0.166902 0.002862
v 0.009540 0.164161 0.004608
v 0.011395 0.164033 0.002360
v 0.010214 0.166891 0.001169
v 0.013677 0.164221 0.000051
v 0.012268 0.167429 -0.000649
v 0.014038 0.164288 -0.003546
v 0.012465 0.167252 -0.003480
v 0.013321 0.164248 -0.006625
v 0.011714 0.166861 -0.006113
v 0.012760 0.164336 -0.009642
v 0.011509 0.167105 -0.008846
v 0.011752 0.164728 -0.012268
v 0.010819 0.167554 -0.011226
v 0.009667 0.164986 -0.014052
v 0.009050 0.167674 -0.012797
v 0.007204 0.165055 -0.014363
v 0.006876 0.167812 -0.012785
v -0.003191 0.167658 -0.009154
v -0.004721 0.165242 -0.010551
v -0.007168 0.164520 -0.006574
v -0.005514 0.166809 -0.005618
v -0.005790 0.164859 -0.008465
v -0.003981 0.167047 -0.007266
v 0.007185 0.164365 0.007171
v 0.006275 0.167408 0.005091
v 0.006690 0.160528 0.007671
v 0.009532 0.160540 0.004953
v 0.011400 0.160561 0.002649
v 0.013722 0.160415 0.000313
v 0.014427 0.160780 -0.003636
v 0.013577 0.161069 -0.006902
v 0.012808 0.160984 -0.010289
v 0.011531 0.161448 -0.012826
v 0.009469 0.161707 -0.014363
v 0.007196 0.161730 -0.014792
v 0.005128 0.161922 -0.014540
v 0.003411 0.162088 -0.014506
v 0.001487 0.162105 -0.014824
v -0.000969 0.162238 -0.014678
v -0.003484 0.162229 -0.013424
v -0.005125 0.162114 -0.011242
v -0.006326 0.161918 -0.009064
v -0.007550 0.161689 -0.006901
v -0.008930 0.161319 -0.004622
v -0.009564 0.160992 -0.001910
v -0.008704 0.160810 0.000679
v -0.006954 0.160822 0.002673
v -0.005265 0.160878 0.004462
v -0.003580 0.160768 0.006104
v -0.001596 0.160615 0.007196
v 0.000319 0.160604 0.007661
v 0.002140 0.160648 0.007987
v 0.004166 0.160645 0.008172
v 0.007925 0.169757 -0.008508
v 0.006286 0.169978 -0.008323
v 0.004447 0.169876 -0.007429
v 0.002732 0.170009 -0.007239
v 0.001246 0.170286 -0.007641
v -0.000232 0.170342 -0.007842
v 0.007672 0.169355 -0.005853
v 0.005895 0.169544 -0.005872
v 0.004026 0.169493 -0.005332
v 0.002377 0.169562 -0.005321
v 0.000952 0.169690 -0.005762
v -0.000462 0.169664 -0.006020
v 0.007613 0.169363 -0.003762
v 0.005701 0.169414 -0.003762
v 0.003598 0.169324 -0.003401
v 0.001808 0.169317 -0.003526
v 0.000220 0.169332 -0.004050
v -0.001476 0.169257 -0.004415
v 0.007146 0.169326 -0.002201
v 0.004803 0.169269 -0.002083
v 0.002734 0.169142 -0.001789
v 0.000807 0.169062 -0.002016
v -0.000959 0.168969 -0.002653
v -0.003008 0.168838 -0.003180
v 0.006148 0.169084 -0.000564
v 0.003746 0.169018 -0.000296
v 0.001752 0.168924 -0.000009
v -0.000077 0.168827 -0.000321
v -0.001737 0.168687 -0.001074
v -0.003754 0.168591 -0.001738
v 0.004603 0.169017 0.000768
v 0.002516 0.168866 0.001479
v 0.000735 0.168786 0.001866
v -0.000851 0.168647 0.001483
v -0.002205 0.168421 0.000575
v -0.003936 0.168356 -0.000267
vn 0.0205 0.1461 -0.9891
vn -0.0230 0.2069 -0.9781
vn 0.2272 0.1897 -0.9552
vn 0.2505 0.1218 -0.9604
vn 0.5088 0.1800 -0.8418
vn 0.5156 0.1148 -0.8491
vn 0.7054 0.1834 -0.6847
vn 0.6978 0.1260 -0.7051
vn 0.8621 0.1975 -0.4667
vn 0.8582 0.1473 -0.4918
vn 0.9501 0.2107 -0.2300
vn 0.9572 0.1599 -0.2414
vn 0.9754 0.2188 0.0264
vn 0.9862 0.1624 0.0324
vn 0.9408 0.2226 0.2554
vn 0.9537 0.1632 0.2527
vn 0.8505 0.2407 0.4677
vn 0.8722 0.1785 0.4554
vn 0.7140 0.2520 0.6533
vn 0.7248 0.1933 0.6613
vn 0.5425 0.2573 0.7996
vn 0.5445 0.1976 0.8152
vn 0.3234 0.2558 0.9110
vn 0.3230 0.1977 0.9255
vn 0.0805 0.2587 0.9626
vn 0.0771 0.1986 0.9770
vn -0.2208 0.2599 0.9401
vn -0.2275 0.1968 0.9537
vn -0.4703 0.2558 0.8446
vn -0.4820 0.1937 0.8545
vn -0.6770 0.2592 0.6888
vn -0.6830 0.1959 0.7036
vn -0.8575 0.2672 0.4396
vn -0.8677 0.1992 0.4554
vn -0.9444 0.2686 0.1896
vn -0.9570 0.2030 0.2075
vn -0.9593 0.2747 -0.0653
vn -0.9755 0.2166 -0.0391
vn -0.9164 0.2809 -0.2850
vn -0.9358 0.2274 -0.2693
vn -0.8278 0.2895 -0.4807
vn -0.8432 0.2290 -0.4864
vn -0.6570 0.2791 -0.7003
vn -0.6544 0.2136 -0.7254
vn -0.4637 0.2598 -0.8470
vn -0.4534 0.1946 -0.8698
vn 0.7192 0.0919 -0.6887
vn 0.5070 0.0979 -0.8564
vn 0.4948 0.0250 -0.8686
vn 0.7140 0.0118 -0.7001
vn -0.2344 0.2375 -0.9427
vn -0.2048 0.1762 -0.9628
vn 0.9689 -0.0496 -0.2422
vn 0.9983 -0.0382 0.0429
vn 0.9492 -0.3097 0.0552
vn 0.9206 -0.3216 -0.2215
vn 0.3156 0.0784 0.9456
vn 0.5317 0.0568 0.8450
vn 0.5111 0.0497 0.8581
vn 0.2899 0.0637 0.9549
vn 0.8577 0.1443 0.4935
vn 0.9518 0.1331 0.2762
vn 0.9531 0.0181 0.3020
vn 0.8607 0.0304 0.5082
vn 0.2113 0.1087 -0.9714
vn -0.0641 0.1244 -0.9902
vn -0.0960 0.0451 -0.9944
vn 0.1969 0.0352 -0.9798
vn -0.2231 0.1907 0.9560
vn 0.0825 0.1865 0.9790
vn 0.0708 0.0993 0.9925
vn -0.2360 0.1170 0.9647
vn -0.9764 0.2035 -0.0729
vn -0.9605 0.2079 0.1851
vn -0.9733 0.1406 0.1813
vn -0.9888 0.1353 -0.0636
vn -0.2790 0.1501 -0.9485
vn -0.4941 0.1701 -0.8526
vn -0.5245 0.0884 -0.8468
vn -0.3223 0.0645 -0.9444
vn 0.9921 0.1181 0.0422
vn 0.9723 0.0998 -0.2112
vn 0.9805 -0.0026 -0.1966
vn 0.9977 0.0038 0.0676
vn 0.3287 0.1786 0.9274
vn 0.5469 0.1675 0.8203
vn -0.8749 0.2084 0.4371
vn -0.6932 0.2031 0.6915
vn -0.7072 0.1464 0.6917
vn -0.8858 0.1454 0.4407
vn -0.6880 0.1854 -0.7017
vn -0.8470 0.1930 -0.4953
vn -0.8593 0.1143 -0.4985
vn -0.7106 0.1055 -0.6957
vn 0.8824 0.0912 -0.4616
vn 0.8843 0.0010 -0.4669
vn 0.7233 0.1522 0.6736
vn 0.7208 0.0398 0.6920
vn -0.4769 0.1937 0.8573
vn -0.4981 0.1339 0.8567
vn -0.9339 0.1939 -0.3004
vn -0.9475 0.1231 -0.2952
vn -0.7168 0.1307 0.6849
vn -0.5220 0.1197 0.8445
vn -0.5284 0.1817 0.8293
vn -0.7227 0.1865 0.6655
vn 0.6988 0.0539 -0.7132
vn 0.8767 0.0426 -0.4792
vn -0.9893 0.1347 -0.0566
vn -0.9511 0.1285 -0.2810
vn 0.0424 0.0838 0.9956
vn 0.9789 0.0316 -0.2019
vn -0.8662 0.1188 -0.4854
vn -0.2599 0.1045 0.9600
vn 0.9968 0.0242 0.0768
vn -0.7241 0.1079 -0.6813
vn 0.9473 0.0240 0.3193
vn -0.5507 0.0952 -0.8292
vn 0.8544 0.0294 0.5188
vn -0.3545 0.0819 -0.9315
vn -0.1112 0.0754 -0.9909
vn 0.1847 0.0738 -0.9800
vn -0.8878 0.1356 0.4399
vn 0.7087 0.0384 0.7044
vn 0.4757 0.0660 -0.8771
vn -0.9752 0.1355 0.1748
vn 0.7907 0.3989 -0.4643
vn 0.6242 0.4046 -0.6683
vn 0.5060 0.6728 -0.5397
vn 0.6402 0.6664 -0.3821
vn 0.9354 0.1561 0.3173
vn 0.8401 0.1535 0.5203
vn -0.5571 0.1849 -0.8096
vn -0.3644 0.1872 -0.9122
vn -0.1120 0.1936 -0.9747
vn 0.1757 0.2009 -0.9637
vn -0.8851 0.1948 0.4227
vn 0.6906 0.1568 0.7061
vn 0.4529 0.2017 -0.8685
vn -0.9665 0.1962 0.1652
vn 0.4955 0.1616 0.8534
vn 0.6755 0.1977 -0.7104
vn -0.9784 0.1977 -0.0612
vn 0.2716 0.1663 0.9479
vn 0.8535 0.1909 -0.4849
vn -0.9419 0.1982 -0.2712
vn 0.0190 0.1744 0.9845
vn 0.9604 0.1788 -0.2137
vn -0.8655 0.1937 -0.4620
vn -0.2732 0.1809 0.9448
vn 0.9837 0.1660 0.0691
vn -0.7271 0.1875 -0.6604
vn -0.8963 0.3614 -0.2569
vn -0.9299 0.3625 -0.0631
vn -0.7623 0.6459 -0.0415
vn -0.7358 0.6450 -0.2064
vn 0.0095 0.3790 0.9254
vn 0.2509 0.3728 0.8934
vn 0.2120 0.6309 0.7464
vn 0.0105 0.6385 0.7696
vn 0.8964 0.3872 -0.2157
vn 0.7317 0.6562 -0.1844
vn -0.8270 0.3636 -0.4288
vn -0.6751 0.6494 -0.3500
vn -0.2594 0.3832 0.8865
vn -0.2090 0.6454 0.7347
vn 0.9266 0.3724 0.0528
vn 0.7649 0.6432 0.0345
vn -0.6921 0.3696 -0.6200
vn -0.5606 0.6572 -0.5038
vn -0.4969 0.3823 0.7791
vn -0.4045 0.6505 0.6428
vn 0.8845 0.3606 0.2959
vn 0.7368 0.6312 0.2422
vn -0.5252 0.3772 -0.7628
vn -0.4199 0.6646 -0.6180
vn -0.6875 0.3816 0.6178
vn -0.5586 0.6547 0.5092
vn 0.7904 0.3581 0.4970
vn 0.6589 0.6251 0.4184
vn -0.3429 0.3869 -0.8560
vn -0.2710 0.6709 -0.6903
vn 0.1635 0.4048 -0.8997
vn -0.1027 0.3973 -0.9119
vn -0.0783 0.6764 -0.7324
vn 0.1360 0.6781 -0.7223
vn -0.8376 0.3783 0.3940
vn -0.6761 0.6554 0.3367
vn 0.6443 0.3617 0.6738
vn 0.5355 0.6241 0.5690
vn 0.4161 0.4068 -0.8132
vn 0.3386 0.6766 -0.6540
vn -0.9155 0.3691 0.1601
vn -0.7446 0.6506 0.1493
vn 0.4615 0.3670 0.8076
vn 0.3848 0.6265 0.6779
vn 0.6875 -0.6272 -0.3660
vn 0.7713 -0.6154 -0.1625
vn 0.4980 -0.8652 -0.0592
vn 0.4398 -0.8766 -0.1955
vn 0.5508 -0.0224 0.8343
vn 0.3271 -0.0168 0.9448
vn 0.3094 -0.3204 0.8953
vn 0.5143 -0.3198 0.7958
vn -0.6940 -0.0264 0.7195
vn -0.8815 -0.0284 0.4714
vn -0.8241 -0.3413 0.4521
vn -0.6519 -0.3323 0.6816
vn -0.8696 -0.0249 -0.4932
vn -0.6623 -0.0390 -0.7482
vn -0.6272 -0.3249 -0.7079
vn -0.8352 -0.3181 -0.4487
vn 0.6891 -0.0709 -0.7212
vn 0.8606 -0.0592 -0.5059
vn 0.8202 -0.3282 -0.4686
vn 0.6516 -0.3280 -0.6840
vn 0.8871 -0.0281 0.4608
vn 0.7339 -0.0256 0.6788
vn 0.6828 -0.3082 0.6624
vn 0.8384 -0.3026 0.4534
vn -0.2354 -0.0250 0.9716
vn -0.4889 -0.0256 0.8719
vn -0.4573 -0.3252 0.8277
vn -0.2262 -0.3237 0.9187
vn -0.9996 -0.0223 -0.0177
vn -0.9657 -0.0222 -0.2588
vn -0.9204 -0.3247 -0.2177
vn -0.9407 -0.3392 0.0064
vn -0.1979 -0.0575 -0.9785
vn 0.0490 -0.0677 -0.9965
vn 0.0464 -0.3410 -0.9389
vn -0.1901 -0.3454 -0.9190
vn 0.2654 -0.0792 -0.9609
vn 0.5153 -0.0805 -0.8532
vn 0.4866 -0.3304 -0.8087
vn 0.2539 -0.3358 -0.9071
vn 0.9646 -0.0308 0.2620
vn 0.9154 -0.3025 0.2655
vn 0.0697 -0.0192 0.9974
vn 0.0566 -0.3206 0.9455
vn -0.9727 -0.0245 0.2307
vn -0.9097 -0.3421 0.2354
vn -0.4600 -0.0509 -0.8865
vn -0.4358 -0.3344 -0.8356
vn 0.2510 -0.6089 0.7525
vn 0.4103 -0.5977 0.6888
vn -0.7798 -0.6131 -0.1265
vn -0.7077 -0.6279 -0.3238
vn -0.4529 -0.8863 -0.0966
vn -0.5071 -0.8617 0.0157
vn 0.0348 -0.6157 0.7872
vn -0.1909 -0.6206 0.7606
vn -0.1319 -0.8620 0.4894
vn 0.0002 -0.8578 0.5141
vn 0.5396 -0.6313 -0.5571
vn 0.3309 -0.8838 -0.3306
vn -0.7649 -0.6419 0.0536
vn -0.4607 -0.8811 0.1074
vn 0.1493 -0.8436 0.5158
vn 0.7932 -0.6031 0.0846
vn 0.5130 -0.8495 0.1232
vn -0.5220 -0.6409 -0.5629
vn -0.3241 -0.9002 -0.2909
vn -0.3634 -0.6249 0.6910
vn -0.2095 -0.8670 0.4522
vn 0.7653 -0.5891 0.2593
vn 0.4972 -0.8359 0.2323
vn -0.3589 -0.6374 -0.6819
vn -0.2264 -0.8929 -0.3891
vn -0.5219 -0.6314 0.5735
vn -0.2966 -0.8740 0.3850
vn 0.6969 -0.5894 0.4086
vn 0.4545 -0.8351 0.3100
vn -0.1541 -0.6446 -0.7488
vn -0.0975 -0.8917 -0.4421
vn 0.2145 -0.6387 -0.7389
vn 0.4044 -0.6289 -0.6640
vn 0.2575 -0.8820 -0.3947
vn 0.1568 -0.8846 -0.4393
vn -0.6615 -0.6456 0.3817
vn -0.3925 -0.8818 0.2616
vn 0.5535 -0.5834 0.5944
vn 0.3428 -0.8226 0.4537
vn 0.0402 -0.6350 -0.7715
vn 0.0413 -0.8814 -0.4705
vn -0.7309 -0.6461 0.2198
vn -0.4448 -0.8759 0.1872
vn 0.2425 -0.8272 0.5068
vn 0.1351 -0.9890 0.0609
vn 0.1391 -0.9796 0.1453
vn -0.0597 -0.9897 0.1298
vn -0.0607 -0.9908 0.1212
vn -0.0304 -0.9813 0.1901
vn -0.0604 -0.9809 0.1848
vn -0.0300 -0.9968 0.0738
vn -0.0363 -0.9968 0.0715
vn -0.1640 -0.9754 0.1474
vn -0.1431 -0.9808 0.1327
vn 0.0076 -0.9845 0.1753
vn -0.0051 -0.9865 0.1636
vn 0.0639 -0.9723 0.2248
vn 0.0300 -0.9725 0.2312
vn -0.0584 -0.9937 0.0952
vn -0.0691 -0.9929 0.0967
vn -0.0971 -0.9870 0.1279
vn -0.1211 -0.9834 0.1352
vn -0.0015 -0.9931 0.1173
vn -0.0010 -0.9952 0.0974
vn 0.0655 -0.9962 -0.0569
vn 0.0699 -0.9959 -0.0575
vn -0.0368 -0.9907 0.1307
vn -0.0116 -0.9929 0.1184
vn -0.0201 -0.9988 -0.0438
vn 0.0309 -0.9976 -0.0626
vn 0.0078 -0.9901 0.1405
vn 0.0213 -0.9876 0.1558
vn 0.1241 -0.9800 0.1555
vn -0.0579 -0.9941 0.0922
vn -0.0641 -0.9842 0.1650
vn -0.0035 -0.9958 0.0915
vn -0.0553 -0.9983 -0.0205
vn 0.0251 -0.9846 0.1731
vn 0.1415 -0.9766 0.1622
vn -0.0522 -0.9922 0.1131
vn -0.0553 -0.9821 0.1800
vn -0.0141 -0.9963 0.0853
vn -0.0779 -0.9967 0.0233
vn 0.0299 -0.9840 0.1759
vn 0.0186 -0.9789 0.2033
vn -0.0371 -0.9965 0.0747
vn -0.1271 -0.9826 0.1352
vn 0.0008 -0.9895 0.1445
vn 0.0720 -0.9964 -0.0458
vn -0.0570 -0.9910 0.1211
vn 0.1140 -0.9934 0.0140
vn -0.0577 -0.9904 0.1257
vn 0.4804 0.8684 -0.1228
vn 0.4182 0.8751 -0.2435
vn 0.3089 0.9352 -0.1729
vn 0.3564 0.9303 -0.0863
vn -0.4327 0.8706 -0.2342
vn -0.4793 0.8669 -0.1370
vn -0.3580 0.9283 -0.1005
vn -0.3197 0.9318 -0.1717
vn -0.1411 0.8388 0.5258
vn 0.0138 0.8336 0.5521
vn 0.0146 0.9024 0.4307
vn -0.1051 0.9065 0.4089
vn 0.5104 0.8598 0.0187
vn 0.3820 0.9240 0.0181
vn -0.3554 0.8742 -0.3308
vn -0.2592 0.9358 -0.2390
vn -0.2812 0.8449 0.4550
vn -0.2161 0.9101 0.3536
vn 0.5016 0.8500 0.1608
vn 0.3797 0.9166 0.1253
vn -0.2634 0.8775 -0.4007
vn -0.1903 0.9382 -0.2892
vn -0.3877 0.8511 0.3539
vn -0.2991 0.9139 0.2743
vn 0.4567 0.8412 0.2895
vn 0.3489 0.9098 0.2248
vn -0.1661 0.8802 -0.4447
vn -0.1187 0.9407 -0.3178
vn 0.0942 0.8835 -0.4588
vn -0.0433 0.8827 -0.4680
vn -0.0298 0.9431 -0.3313
vn 0.0699 0.9438 -0.3230
vn -0.4601 0.8565 0.2338
vn -0.3537 0.9176 0.1817
vn 0.3796 0.8345 0.3994
vn 0.2935 0.9042 0.3102
vn 0.2242 0.8824 -0.4137
vn 0.1649 0.9423 -0.2915
vn -0.4986 0.8604 0.1050
vn -0.3792 0.9216 0.0829
vn 0.2789 0.8307 0.4818
vn 0.2180 0.9010 0.3750
vn 0.3318 0.8796 -0.3410
vn 0.2448 0.9392 -0.2408
vn -0.5032 0.8638 -0.0254
vn -0.3791 0.9252 -0.0164
vn 0.1560 0.8306 0.5346
vn 0.1234 0.9005 0.4169
vn -0.0369 -0.9917 0.1231
vn -0.0395 -0.9912 0.1261
vn -0.0410 -0.9906 0.1305
vn -0.0406 -0.9908 0.1294
vn -0.0343 -0.9906 0.1327
vn -0.0282 -0.9919 0.1238
vn -0.0283 -0.9929 0.1152
vn -0.0263 -0.9901 0.1378
vn -0.0159 -0.9933 0.1143
vn -0.6844 -0.3222 0.6540
vn -0.6108 -0.5802 0.5388
vn -0.5104 -0.5402 0.6691
vn -0.5960 -0.2958 0.7466
vn -0.8513 -0.1796 -0.4931
vn -0.8415 -0.1609 -0.5157
vn -0.7175 -0.5201 -0.4633
vn -0.7098 -0.5531 -0.4361
vn -0.2023 -0.5472 0.8122
vn -0.3280 -0.2936 0.8979
vn 0.0565 -0.1496 -0.9871
vn 0.0271 -0.5018 -0.8645
vn 0.0805 -0.4673 -0.8804
vn 0.0742 -0.1346 -0.9881
vn -0.1126 -0.6000 0.7920
vn -0.1556 -0.3203 0.9345
vn -0.8197 -0.2147 -0.5311
vn -0.6815 -0.5726 -0.4557
vn -0.1324 -0.6076 0.7831
vn -0.1158 -0.3042 0.9455
vn -0.0549 -0.5649 0.8233
vn 0.0271 -0.2487 0.9682
vn -0.1049 0.7028 -0.7036
vn -0.1457 0.6660 -0.7316
vn -0.6254 0.6239 -0.4686
vn -0.6448 0.6408 -0.4165
vn 0.3113 -0.6030 0.7345
vn 0.4427 -0.2808 0.8515
vn -0.9584 -0.2846 -0.0192
vn -0.8446 -0.5352 -0.0126
vn -0.7151 -0.5389 0.4452
vn -0.8214 -0.3141 0.4761
vn 0.7118 -0.3240 0.6232
vn 0.5804 -0.6501 0.4904
vn 0.5349 -0.6568 0.5314
vn 0.6886 -0.3205 0.6505
vn -0.0226 -0.1703 -0.9851
vn -0.0647 -0.4527 -0.8893
vn -0.1190 -0.4916 -0.8626
vn -0.1155 -0.1705 -0.9786
vn 0.6679 -0.6267 0.4014
vn 0.8442 -0.2953 0.4473
vn -0.1557 -0.4422 -0.8833
vn -0.2449 -0.1120 -0.9630
vn 0.8211 -0.5661 -0.0727
vn 0.9678 -0.2434 -0.0645
vn -0.5684 -0.4759 -0.6711
vn -0.6492 -0.1361 -0.7483
vn 0.8060 -0.5444 -0.2324
vn 0.9442 -0.2312 -0.2347
vn 0.8052 -0.5180 -0.2885
vn 0.9169 -0.2516 -0.3098
vn -0.8627 -0.2544 -0.4370
vn -0.7190 -0.5570 -0.4157
vn 0.6696 -0.4485 -0.5920
vn 0.7518 -0.1886 -0.6319
vn -0.5781 -0.5820 0.5720
vn -0.6785 -0.3378 0.6524
vn 0.2772 -0.4197 -0.8643
vn 0.3670 -0.1584 -0.9166
vn -0.5159 0.7206 -0.4633
vn -0.7215 0.6731 -0.1622
vn -0.6928 0.6771 -0.2482
vn -0.5565 0.6684 -0.4935
vn -0.1303 0.6742 0.7269
vn -0.1555 0.5467 0.8227
vn 0.0367 0.6197 0.7839
vn 0.1135 0.7584 0.6419
vn 0.1226 0.7205 0.6825
vn 0.1309 0.8643 0.4857
vn -0.5268 0.6942 -0.4905
vn -0.6693 0.5870 -0.4555
vn 0.3667 0.7467 0.5549
vn 0.2915 0.8660 0.4062
vn -0.3201 0.6439 -0.6949
vn -0.3051 0.6234 -0.7199
vn 0.1146 0.6888 -0.7158
vn 0.1618 0.6702 -0.7244
vn 0.5210 0.6770 0.5199
vn 0.4079 0.7762 0.4807
vn 0.5063 0.5929 0.6261
vn 0.4100 0.6739 0.6146
vn 0.2586 0.6479 -0.7165
vn 0.3119 0.6390 -0.7032
vn 0.7108 0.6003 0.3667
vn 0.6099 0.7301 0.3081
vn 0.7908 0.5989 -0.1259
vn 0.6751 0.7179 -0.1698
vn -0.7923 0.5897 -0.1565
vn -0.8235 0.5630 -0.0701
vn 0.8024 0.5818 -0.1330
vn 0.7216 0.6793 -0.1341
vn -0.8306 0.5504 -0.0848
vn -0.6916 0.7087 -0.1392
vn 0.8490 0.5203 -0.0923
vn 0.8068 0.5907 -0.0135
vn -0.7577 0.5271 0.3848
vn -0.6513 0.7024 0.2872
vn 0.7411 0.5311 -0.4107
vn 0.6918 0.6225 -0.3658
vn -0.5600 0.5203 0.6447
vn -0.4438 0.6936 0.5674
vn 0.3310 0.5600 -0.7595
vn 0.2362 0.6567 -0.7162
vn -0.5369 0.5702 0.6218
vn -0.4231 0.7303 0.5363
vn -0.1779 0.5667 -0.8045
vn -0.3405 0.6042 -0.7204
vn -0.5879 0.5645 0.5794
vn -0.5390 0.7183 0.4400
vn -0.4484 0.5337 0.7170
vn -0.4754 0.6716 0.5683
vn -0.1662 0.4014 -0.9007
vn 0.0788 0.4737 -0.8772
vn 0.1381 0.4512 -0.8817
vn -0.2250 0.4261 -0.8762
vn -0.6501 0.4086 -0.6407
vn -0.8558 0.2687 -0.4420
vn -0.9818 0.1865 -0.0347
vn -0.8746 0.1348 0.4657
vn -0.7023 0.1357 0.6988
vn -0.6863 0.1725 0.7065
vn -0.6258 0.1824 0.7584
vn -0.4146 0.1791 0.8922
vn -0.1889 0.2028 0.9608
vn -0.0579 0.2626 0.9632
vn 0.1025 0.3274 0.9393
vn 0.4934 0.3364 0.8021
vn 0.7140 0.3196 0.6230
vn 0.6857 0.2896 0.6678
vn 0.8625 0.2672 0.4297
vn 0.9567 0.2829 -0.0685
vn 0.9342 0.2966 -0.1981
vn 0.9380 0.2530 -0.2371
vn 0.8038 0.2516 -0.5391
vn 0.4015 0.2813 -0.8716
vn -0.0448 0.3204 -0.9462
vn -0.8248 0.4185 -0.3802
vn -0.7938 0.4610 -0.3966
vn -0.7527 0.3983 -0.5243
vn 0.1607 0.9716 0.1738
vn 0.1376 0.9764 0.1664
vn 0.1154 0.9821 0.1486
vn 0.1349 0.9790 0.1531
vn 0.0952 0.9920 0.0827
vn 0.0898 0.9959 0.0140
vn 0.0379 0.9993 -0.0047
vn 0.0303 0.9987 -0.0408
vn -0.0169 0.9971 0.0744
vn -0.0206 0.9988 0.0439
vn -0.0275 0.9970 0.0720
vn -0.0423 0.9936 0.1052
vn -0.0573 0.9982 0.0182
vn -0.0383 0.9992 -0.0118
vn -0.0647 0.9967 0.0487
vn -0.0930 0.9957 -0.0052
vn 0.1266 0.9744 0.1855
vn 0.0802 0.9805 0.1795
vn 0.0517 0.9913 0.1207
vn 0.0039 0.9983 0.0582
vn -0.0244 0.9949 0.0979
vn -0.0355 0.9963 0.0783
vn -0.0405 0.9976 0.0556
vn -0.0217 0.9978 0.0622
vn 0.0350 0.9830 0.1801
vn 0.0620 0.9796 0.1912
vn 0.0219 0.9899 0.1403
vn -0.0201 0.9954 0.0940
vn -0.0416 0.9936 0.1049
vn -0.0523 0.9958 0.0748
vn -0.0615 0.9968 0.0514
vn -0.0741 0.9961 0.0481
vn 0.1406 0.9614 0.2367
vn 0.0986 0.9649 0.2436
vn 0.0311 0.9819 0.1866
vn -0.0258 0.9903 0.1369
vn -0.0713 0.9905 0.1179
vn -0.1029 0.9917 0.0772
vn -0.1835 0.9814 0.0564
vn -0.1894 0.9808 0.0466
vn 0.0732 0.9498 0.3042
vn 0.0452 0.9527 0.3006
vn -0.0117 0.9708 0.2395
vn -0.0616 0.9830 0.1728
vn -0.0955 0.9848 0.1449
vn -0.1126 0.9875 0.1105
vn -0.1648 0.9796 0.1150
vn -0.2742 0.9571 0.0934
vn 0.0280 0.9390 0.3426
vn 0.0005 0.9360 0.3521
vn -0.0676 0.9589 0.2757
vn -0.1116 0.9784 0.1741
vn -0.1162 0.9830 0.1421
vn -0.1081 0.9870 0.1188
vn -0.1133 0.9816 0.1538
vn -0.1279 0.9777 0.1665
vn 0.0746 0.9218 0.3803
vn -0.0025 0.9230 0.3849
vn -0.1095 0.9653 0.2371
vn -0.1390 0.9767 0.1638
vn -0.1242 0.9877 0.0953
vn -0.1180 0.9861 0.1170
vn -0.1165 0.9812 0.1537
vn -0.1176 0.9782 0.1711
vt 0.749788 0.245590
vt 0.749770 0.315557
vt 0.708928 0.315557
vt 0.708939 0.245571
vt 0.667557 0.315557
vt 0.667557 0.245548
vt 0.626588 0.315557
vt 0.626575 0.245524
vt 0.584894 0.315557
vt 0.584877 0.245502
vt 0.543553 0.315557
vt 0.543496 0.245471
vt 0.501857 0.315557
vt 0.501798 0.245432
vt 0.461028 0.315557
vt 0.460991 0.245391
vt 0.420843 0.315557
vt 0.420819 0.245361
vt 0.379997 0.315557
vt 0.379983 0.245337
vt 0.339832 0.315557
vt 0.339812 0.245306
vt 0.298668 0.315557
vt 0.298673 0.245287
vt 0.257276 0.315557
vt 0.257280 0.245270
vt 0.215074 0.315557
vt 0.215079 0.245268
vt 0.172281 0.315557
vt 0.172302 0.245286
vt 0.129954 0.315557
vt 0.129986 0.245313
vt 0.088015 0.315557
vt 0.088031 0.245354
vt 0.046932 0.315557
vt 0.046929 0.245401
vt 0.005861 0.315557
vt 0.005959 0.245448
vt 0.994013 0.245461
vt 0.994066 0.315557
vt 0.953299 0.315557
vt 0.953343 0.245512
vt 0.912834 0.315557
vt 0.912876 0.245553
vt 0.872026 0.315557
vt 0.872056 0.245582
vt 0.831163 0.315557
vt 0.831208 0.245595
vt 0.626588 0.384113
vt 0.667561 0.384115
vt 0.667566 0.456916
vt 0.626604 0.456916
vt 0.790656 0.315557
vt 0.790670 0.245608
vt 0.543553 0.176018
vt 0.501857 0.176018
vt 0.501857 0.110946
vt 0.543553 0.110946
vt 0.298653 0.456890
vt 0.339816 0.456897
vt 0.339829 0.527587
vt 0.298666 0.527588
vt 0.420837 0.384095
vt 0.461027 0.384091
vt 0.461015 0.456906
vt 0.420831 0.456904
vt 0.708925 0.384114
vt 0.749772 0.384103
vt 0.749778 0.456912
vt 0.708937 0.456916
vt 0.215073 0.384107
vt 0.257273 0.384110
vt 0.257268 0.456892
vt 0.215071 0.456900
vt 0.005912 0.384110
vt 0.046933 0.384110
vt 0.046940 0.456900
vt 0.005931 0.456900
vt 0.790661 0.384105
vt 0.831167 0.384103
vt 0.831172 0.456906
vt 0.790670 0.456907
vt 0.501853 0.384091
vt 0.543547 0.384093
vt 0.543555 0.456916
vt 0.501846 0.456912
vt 0.298671 0.384101
vt 0.339828 0.384091
vt 0.088015 0.384112
vt 0.129948 0.384116
vt 0.129948 0.456912
vt 0.088015 0.456898
vt 0.872034 0.384104
vt 0.912838 0.384101
vt 0.912844 0.456903
vt 0.872035 0.456903
vt 0.584892 0.384105
vt 0.584906 0.456917
vt 0.379992 0.384083
vt 0.379982 0.456901
vt 0.172278 0.384110
vt 0.172274 0.456907
vt 0.953303 0.384099
vt 0.994024 0.384113
vt 0.994026 0.456908
vt 0.953313 0.456903
vt 0.129952 0.527582
vt 0.172273 0.527583
vt 0.172270 0.601738
vt 0.129944 0.601737
vt 0.626593 0.527584
vt 0.584894 0.527582
vt 0.994018 0.527594
vt 0.953300 0.527594
vt 0.257273 0.527589
vt 0.543543 0.527580
vt 0.912840 0.527593
vt 0.215067 0.527587
vt 0.501842 0.527580
vt 0.872034 0.527592
vt 0.461013 0.527582
vt 0.831176 0.527591
vt 0.420836 0.527584
vt 0.790676 0.527590
vt 0.749790 0.527589
vt 0.708942 0.527589
vt 0.088013 0.527589
vt 0.379993 0.527586
vt 0.667563 0.527587
vt 0.046926 0.527592
vt 0.005905 0.527593
vt 0.584894 0.671696
vt 0.626588 0.671696
vt 0.626588 0.729419
vt 0.584894 0.729419
vt 0.461003 0.601728
vt 0.420833 0.601728
vt 0.831189 0.601739
vt 0.790695 0.601740
vt 0.749806 0.601743
vt 0.708950 0.601748
vt 0.087998 0.601740
vt 0.379990 0.601730
vt 0.667568 0.601748
vt 0.046913 0.601736
vt 0.339830 0.601732
vt 0.626591 0.601747
vt 0.005943 0.601737
vt 0.298674 0.601734
vt 0.584886 0.601744
vt 0.993960 0.601734
vt 0.953298 0.601740
vt 0.257281 0.601737
vt 0.543532 0.601738
vt 0.912851 0.601738
vt 0.215067 0.601739
vt 0.501833 0.601732
vt 0.872044 0.601736
vt 0.953299 0.671696
vt 0.994066 0.671696
vt 0.994066 0.729419
vt 0.953299 0.729419
vt 0.257276 0.671696
vt 0.298668 0.671696
vt 0.298668 0.729419
vt 0.257276 0.729419
vt 0.543553 0.671696
vt 0.543553 0.729419
vt 0.912834 0.671696
vt 0.912834 0.729419
vt 0.215074 0.671696
vt 0.215074 0.729419
vt 0.501857 0.671696
vt 0.501857 0.729419
vt 0.872026 0.671696
vt 0.872026 0.729419
vt 0.172281 0.671696
vt 0.172281 0.729419
vt 0.461028 0.671696
vt 0.461028 0.729419
vt 0.831163 0.671696
vt 0.831163 0.729419
vt 0.129954 0.671696
vt 0.129954 0.729419
vt 0.420843 0.671696
vt 0.420843 0.729419
vt 0.790656 0.671696
vt 0.790656 0.729419
vt 0.708928 0.671696
vt 0.749770 0.671696
vt 0.749770 0.729419
vt 0.708928 0.729419
vt 0.088015 0.671696
vt 0.088015 0.729419
vt 0.379997 0.671696
vt 0.379997 0.729419
vt 0.667557 0.671696
vt 0.667557 0.729419
vt 0.046932 0.671696
vt 0.046932 0.729419
vt 0.339832 0.671696
vt 0.339832 0.729419
vt 0.005861 0.671696
vt 0.005861 0.729419
vt 0.584894 0.056342
vt 0.543553 0.056342
vt 0.543553 0.005860
vt 0.584894 0.005860
vt 0.339832 0.176018
vt 0.298668 0.176018
vt 0.298668 0.110946
vt 0.339832 0.110946
vt 0.129954 0.176018
vt 0.088015 0.176018
vt 0.088015 0.110946
vt 0.129954 0.110946
vt 0.912834 0.176018
vt 0.872026 0.176018
vt 0.872026 0.110946
vt 0.912834 0.110946
vt 0.626588 0.176018
vt 0.584894 0.176018
vt 0.584894 0.110946
vt 0.626588 0.110946
vt 0.420843 0.176018
vt 0.379997 0.176018
vt 0.379997 0.110946
vt 0.420843 0.110946
vt 0.215074 0.176018
vt 0.172281 0.176018
vt 0.172281 0.110946
vt 0.215074 0.110946
vt 0.994066 0.176018
vt 0.953299 0.176018
vt 0.953299 0.110946
vt 0.994066 0.110946
vt 0.790657 0.176018
vt 0.749770 0.176018
vt 0.749770 0.110946
vt 0.790656 0.110946
vt 0.708928 0.176018
vt 0.667557 0.176018
vt 0.667557 0.110946
vt 0.708928 0.110946
vt 0.461028 0.176018
vt 0.461028 0.110946
vt 0.257276 0.176018
vt 0.257276 0.110946
vt 0.046932 0.176018
vt 0.046932 0.110946
vt 0.831163 0.176018
vt 0.831163 0.110946
vt 0.005861 0.176018
vt 0.005861 0.110946
vt 0.298668 0.056342
vt 0.339832 0.056342
vt 0.953299 0.056342
vt 0.912834 0.056342
vt 0.912834 0.005860
vt 0.953299 0.005860
vt 0.257276 0.056342
vt 0.215074 0.056342
vt 0.215074 0.005860
vt 0.257276 0.005860
vt 0.626588 0.056342
vt 0.626588 0.005860
vt 0.994066 0.056342
vt 0.994066 0.005860
vt 0.298668 0.005860
vt 0.501857 0.056342
vt 0.501857 0.005860
vt 0.872026 0.056342
vt 0.872026 0.005860
vt 0.172281 0.056342
vt 0.172281 0.005860
vt 0.461028 0.056342
vt 0.461028 0.005860
vt 0.831163 0.056342
vt 0.831163 0.005860
vt 0.129954 0.056342
vt 0.129954 0.005860
vt 0.420843 0.056342
vt 0.420843 0.005860
vt 0.790656 0.056342
vt 0.790656 0.005860
vt 0.708928 0.056342
vt 0.667557 0.056342
vt 0.667557 0.005860
vt 0.708928 0.005860
vt 0.088015 0.056342
vt 0.088015 0.005860
vt 0.379997 0.056342
vt 0.379997 0.005860
vt 0.749770 0.056342
vt 0.749770 0.005860
vt 0.046932 0.056342
vt 0.046932 0.005860
vt 0.339832 0.005860
vt 0.005861 0.056342
vt 0.005861 0.005860
vt 0.317060 0.883528
vt 0.292139 0.883528
vt 0.292139 0.829859
vt 0.317060 0.829859
vt 0.148194 0.883528
vt 0.124648 0.883528
vt 0.124648 0.829859
vt 0.148194 0.829859
vt 0.560760 0.883528
vt 0.535794 0.883528
vt 0.535794 0.829859
vt 0.560760 0.829859
vt 0.219120 0.883528
vt 0.195363 0.883528
vt 0.195363 0.829859
vt 0.219120 0.829859
vt 0.053701 0.883528
vt 0.029894 0.883528
vt 0.029894 0.829859
vt 0.053701 0.829859
vt 0.414297 0.883528
vt 0.390139 0.883528
vt 0.390139 0.829859
vt 0.414297 0.829859
vt 0.462493 0.883528
vt 0.438263 0.883528
vt 0.438263 0.829859
vt 0.462493 0.829859
vt 0.243496 0.883528
vt 0.243496 0.829859
vt 0.077514 0.883528
vt 0.077514 0.829859
vt 0.486817 0.883528
vt 0.486817 0.829859
vt 0.267746 0.883528
vt 0.267746 0.829859
vt 0.101145 0.883528
vt 0.101145 0.829859
vt 0.511243 0.883528
vt 0.511243 0.829859
vt 0.171633 0.883528
vt 0.171633 0.829859
vt 0.005861 0.883528
vt 0.005861 0.829859
vt 0.366162 0.883528
vt 0.366162 0.829859
vt 0.585285 0.883528
vt 0.585285 0.829859
vt 0.341384 0.883528
vt 0.341384 0.829859
vt 0.195363 0.927366
vt 0.171633 0.927366
vt 0.029894 0.927366
vt 0.005861 0.927366
vt 0.390139 0.927366
vt 0.366162 0.927366
vt 0.219120 0.927366
vt 0.053701 0.927366
vt 0.414297 0.927366
vt 0.462493 0.927366
vt 0.438263 0.927366
vt 0.243496 0.927366
vt 0.077514 0.927366
vt 0.486817 0.927366
vt 0.267746 0.927366
vt 0.101145 0.927366
vt 0.511243 0.927366
vt 0.292139 0.927366
vt 0.124648 0.927366
vt 0.535794 0.927366
vt 0.317060 0.927366
vt 0.148194 0.927366
vt 0.560760 0.927366
vt 0.341384 0.927366
vt 0.585285 0.927366
vt 0.543553 0.783303
vt 0.584894 0.783303
vt 0.584894 0.822897
vt 0.543553 0.822897
vt 0.912834 0.783303
vt 0.953299 0.783303
vt 0.953299 0.822897
vt 0.912834 0.822897
vt 0.215074 0.783303
vt 0.257276 0.783303
vt 0.257276 0.822897
vt 0.215074 0.822897
vt 0.501857 0.783303
vt 0.501857 0.822897
vt 0.872026 0.783303
vt 0.872026 0.822897
vt 0.172281 0.783303
vt 0.172281 0.822897
vt 0.461028 0.783303
vt 0.461028 0.822897
vt 0.831163 0.783303
vt 0.831163 0.822897
vt 0.129954 0.783303
vt 0.129954 0.822897
vt 0.420843 0.783303
vt 0.420843 0.822897
vt 0.790656 0.783303
vt 0.790656 0.822897
vt 0.708928 0.783303
vt 0.749770 0.783303
vt 0.749770 0.822897
vt 0.708928 0.822897
vt 0.088015 0.783303
vt 0.088015 0.822897
vt 0.379997 0.783303
vt 0.379997 0.822897
vt 0.667557 0.783303
vt 0.667557 0.822897
vt 0.046932 0.783303
vt 0.046932 0.822897
vt 0.339832 0.783303
vt 0.339832 0.822897
vt 0.626588 0.783303
vt 0.626588 0.822897
vt 0.005861 0.783303
vt 0.005861 0.822897
vt 0.298668 0.783303
vt 0.298668 0.822897
vt 0.994066 0.783303
vt 0.994066 0.822897
vt 0.701922 0.934989
vt 0.702886 0.945421
vt 0.694727 0.945192
vt 0.698086 0.924962
vt 0.701033 0.955671
vt 0.696471 0.965198
vt 0.686973 0.944916
vt 0.691503 0.915947
vt 0.689449 0.973479
vt 0.678248 0.944621
vt 0.682418 0.908734
vt 0.680266 0.979944
vt 0.668470 0.944328
vt 0.671448 0.903835
vt 0.669459 0.984107
vt 0.658016 0.944122
vt 0.659379 0.901929
vt 0.657721 0.985590
vt 0.647465 0.943986
vt 0.647164 0.903031
vt 0.645794 0.984300
vt 0.637467 0.943824
vt 0.635701 0.907030
vt 0.634800 0.979952
vt 0.628428 0.943744
vt 0.625890 0.913703
vt 0.625277 0.973268
vt 0.620370 0.943655
vt 0.618353 0.922427
vt 0.617954 0.964560
vt 0.612085 0.943528
vt 0.613766 0.932675
vt 0.613513 0.954391
vt 0.778176 0.873287
vt 0.778176 0.887002
vt 0.768671 0.887002
vt 0.768671 0.873287
vt 0.843690 0.873287
vt 0.853921 0.873287
vt 0.853921 0.887002
vt 0.843690 0.887002
vt 0.759453 0.887002
vt 0.759453 0.873287
vt 0.892234 0.873287
vt 0.892234 0.887002
vt 0.883647 0.887002
vt 0.883647 0.873287
vt 0.751163 0.887002
vt 0.751163 0.873287
vt 0.832818 0.873287
vt 0.832818 0.887002
vt 0.742918 0.887002
vt 0.742918 0.873287
vt 0.733894 0.887002
vt 0.733894 0.873287
vt 0.874537 0.829859
vt 0.874537 0.844090
vt 0.864038 0.844090
vt 0.864038 0.829859
vt 0.723209 0.887002
vt 0.723209 0.873287
vt 0.810324 0.873287
vt 0.810324 0.887002
vt 0.800161 0.887002
vt 0.800161 0.873287
vt 0.708989 0.873287
vt 0.708989 0.887002
vt 0.695992 0.887002
vt 0.695992 0.873287
vt 0.610127 0.873287
vt 0.610127 0.887002
vt 0.600622 0.887002
vt 0.600622 0.873287
vt 0.683075 0.887002
vt 0.683075 0.873287
vt 0.874537 0.887002
vt 0.874537 0.873287
vt 0.668840 0.887002
vt 0.668840 0.873287
vt 0.864038 0.887002
vt 0.864038 0.873287
vt 0.656023 0.887002
vt 0.656023 0.873287
vt 0.641465 0.887002
vt 0.641465 0.873287
vt 0.821062 0.873287
vt 0.821062 0.887002
vt 0.630235 0.887002
vt 0.630235 0.873287
vt 0.788993 0.887002
vt 0.788993 0.873287
vt 0.619649 0.887002
vt 0.619649 0.873287
vt 0.832818 0.829859
vt 0.843690 0.829859
vt 0.843690 0.844090
vt 0.832818 0.844090
vt 0.751163 0.829859
vt 0.751163 0.844090
vt 0.742918 0.844090
vt 0.742918 0.829859
vt 0.733894 0.844090
vt 0.733894 0.829859
vt 0.821062 0.829859
vt 0.821062 0.844090
vt 0.723209 0.844090
vt 0.723209 0.829859
vt 0.600622 0.829859
vt 0.600622 0.844090
vt 0.592693 0.844090
vt 0.592693 0.829859
vt 0.708989 0.844090
vt 0.708989 0.829859
vt 0.695992 0.844090
vt 0.695992 0.829859
vt 0.892234 0.829859
vt 0.892234 0.844090
vt 0.883647 0.844090
vt 0.883647 0.829859
vt 0.683075 0.844090
vt 0.683075 0.829859
vt 0.668840 0.844090
vt 0.668840 0.829859
vt 0.853921 0.844090
vt 0.853921 0.829859
vt 0.656023 0.844090
vt 0.656023 0.829859
vt 0.810324 0.844090
vt 0.810324 0.829859
vt 0.641465 0.844090
vt 0.641465 0.829859
vt 0.800161 0.844090
vt 0.800161 0.829859
vt 0.630235 0.844090
vt 0.630235 0.829859
vt 0.788993 0.844090
vt 0.788993 0.829859
vt 0.619649 0.844090
vt 0.619649 0.829859
vt 0.778176 0.844090
vt 0.778176 0.829859
vt 0.610127 0.844090
vt 0.610127 0.829859
vt 0.768671 0.844090
vt 0.768671 0.829859
vt 0.759453 0.844090
vt 0.759453 0.829859
vt 0.600622 0.858405
vt 0.592693 0.858405
vt 0.892234 0.858405
vt 0.883647 0.858405
vt 0.874537 0.858405
vt 0.864038 0.858405
vt 0.821062 0.858405
vt 0.810324 0.858405
vt 0.800161 0.858405
vt 0.788993 0.858405
vt 0.778176 0.858405
vt 0.768671 0.858405
vt 0.759453 0.858405
vt 0.751163 0.858405
vt 0.742918 0.858405
vt 0.733894 0.858405
vt 0.723209 0.858405
vt 0.708989 0.858405
vt 0.695992 0.858405
vt 0.683075 0.858405
vt 0.668840 0.858405
vt 0.656023 0.858405
vt 0.641465 0.858405
vt 0.630235 0.858405
vt 0.619649 0.858405
vt 0.610127 0.858405
vt 0.853921 0.858405
vt 0.843690 0.858405
vt 0.832818 0.858405
vt 0.592693 0.887002
vt 0.592693 0.873287
vt 0.979946 0.874039
vt 0.973485 0.865244
vt 0.980541 0.858989
vt 0.982841 0.867181
vt 0.966144 0.855578
vt 0.971768 0.848700
vt 0.960869 0.847757
vt 0.970289 0.839895
vt 0.955333 0.842923
vt 0.965878 0.832993
vt 0.947555 0.839016
vt 0.957037 0.830686
vt 0.938481 0.837596
vt 0.945261 0.832109
vt 0.928691 0.831816
vt 0.937048 0.833077
vt 0.972906 0.877074
vt 0.966811 0.868624
vt 0.959392 0.859999
vt 0.953562 0.852366
vt 0.946084 0.848075
vt 0.937724 0.843701
vt 0.928785 0.839800
vt 0.918787 0.830686
vt 0.963404 0.875135
vt 0.957643 0.869568
vt 0.950923 0.862414
vt 0.944619 0.856013
vt 0.937419 0.851858
vt 0.929375 0.847321
vt 0.921030 0.842500
vt 0.911315 0.833151
vt 0.955656 0.878132
vt 0.950669 0.873091
vt 0.944584 0.866377
vt 0.938042 0.860782
vt 0.930523 0.857301
vt 0.923046 0.852832
vt 0.915775 0.847683
vt 0.907474 0.838723
vt 0.951233 0.884259
vt 0.946054 0.878442
vt 0.940191 0.871569
vt 0.933179 0.866585
vt 0.925189 0.863909
vt 0.918373 0.859639
vt 0.912572 0.854389
vt 0.906553 0.845950
vt 0.946175 0.888859
vt 0.940904 0.882785
vt 0.935318 0.875907
vt 0.927478 0.871973
vt 0.918512 0.870735
vt 0.912182 0.866938
vt 0.907930 0.861707
vt 0.904993 0.853698
vt 0.940195 0.889544
vt 0.935069 0.885552
vt 0.929913 0.878474
vt 0.919907 0.876613
vt 0.908228 0.878286
vt 0.901531 0.875318
vt 0.898087 0.869992
vt 0.898404 0.861791
s 1
f 265/1/1 2/2/2 4/3/3 266/4/4
f 266/4/4 4/3/3 6/5/5 267/6/6
f 267/6/6 6/5/5 8/7/7 268/8/8
f 268/8/8 8/7/7 10/9/9 269/10/10
f 269/10/10 10/9/9 12/11/11 270/12/12
f 270/12/12 12/11/11 14/13/13 271/14/14
f 271/14/14 14/13/13 16/15/15 272/16/16
f 272/16/16 16/15/15 18/17/17 273/18/18
f 273/18/18 18/17/17 20/19/19 274/20/20
f 274/20/20 20/19/19 22/21/21 275/22/22
f 275/22/22 22/21/21 24/23/23 276/24/24
f 276/24/24 24/23/23 26/25/25 277/26/26
f 277/26/26 26/25/25 28/27/27 278/28/28
f 278/28/28 28/27/27 30/29/29 279/30/30
f 279/30/30 30/29/29 32/31/31 280/32/32
f 280/32/32 32/31/31 34/33/33 281/34/34
f 281/34/34 34/33/33 36/35/35 282/36/36
f 282/36/36 36/35/35 38/37/37 283/38/38
f 283/39/38 38/40/37 40/41/39 284/42/40
f 284/42/40 40/41/39 42/43/41 285/44/42
f 285/44/42 42/43/41 44/45/43 286/46/44
f 286/46/44 44/45/43 46/47/45 287/48/46
f 242/49/47 241/50/48 51/51/49 52/52/50
f 287/48/46 46/47/45 48/53/51 288/54/52
f 288/54/52 48/53/51 2/2/2 265/1/1
f 11/55/53 13/56/54 151/57/55 150/58/56
f 60/59/57 59/60/58 83/61/59 84/62/60
f 244/63/61 243/64/62 56/65/63 57/66/64
f 246/67/65 245/68/66 50/69/67 49/70/68
f 248/71/69 247/72/70 61/73/71 62/74/72
f 250/75/73 249/76/74 66/77/75 67/78/76
f 252/79/77 251/80/78 71/81/79 72/82/80
f 254/83/81 253/84/82 54/85/83 55/86/84
f 256/87/85 255/88/86 59/60/58 60/59/57
f 258/89/87 257/90/88 64/91/89 65/92/90
f 260/93/91 259/94/92 69/95/93 70/96/94
f 261/97/95 242/49/47 52/52/50 53/98/96
f 262/99/97 244/63/61 57/66/64 58/100/98
f 263/101/99 248/71/69 62/74/72 63/102/100
f 264/103/101 250/104/73 67/105/76 68/106/102
f 245/68/66 252/79/77 72/82/80 50/69/67
f 241/50/48 246/67/65 49/70/68 51/51/49
f 243/64/62 254/83/81 55/86/84 56/65/63
f 247/72/70 256/87/85 60/59/57 61/73/71
f 249/76/74 258/89/87 65/92/90 66/77/75
f 251/80/78 260/93/91 70/96/94 71/81/79
f 253/84/82 261/97/95 53/98/96 54/85/83
f 255/88/86 262/99/97 58/100/98 59/60/58
f 257/90/88 263/101/99 63/102/100 64/91/89
f 259/94/92 264/103/101 68/106/102 69/95/93
f 88/107/103 87/108/104 111/109/105 112/110/106
f 53/98/96 52/52/50 76/111/107 77/112/108
f 68/106/102 67/105/76 91/113/109 92/114/110
f 61/73/71 60/59/57 84/62/60 85/115/111
f 54/85/83 53/98/96 77/112/108 78/116/112
f 69/95/93 68/106/102 92/114/110 93/117/113
f 62/74/72 61/73/71 85/115/111 86/118/114
f 55/86/84 54/85/83 78/116/112 79/119/115
f 70/96/94 69/95/93 93/117/113 94/120/116
f 63/102/100 62/74/72 86/118/114 87/108/104
f 56/65/63 55/86/84 79/119/115 80/121/117
f 71/81/79 70/96/94 94/120/116 95/122/118
f 64/91/89 63/102/100 87/108/104 88/107/103
f 57/66/64 56/65/63 80/121/117 81/123/119
f 72/82/80 71/81/79 95/122/118 96/124/120
f 49/70/68 50/69/67 74/125/121 73/126/122
f 65/92/90 64/91/89 88/107/103 89/127/123
f 58/100/98 57/66/64 81/123/119 82/128/124
f 50/69/67 72/82/80 96/124/120 74/125/121
f 51/51/49 49/70/68 73/126/122 75/129/125
f 66/77/75 65/92/90 89/127/123 90/130/126
f 59/60/58 58/100/98 82/128/124 83/61/59
f 52/52/50 51/51/49 75/129/125 76/111/107
f 67/78/76 66/77/75 90/130/126 91/131/109
f 218/132/127 217/133/128 124/134/129 125/135/130
f 81/123/119 80/121/117 104/136/131 105/137/132
f 96/124/120 95/122/118 119/138/133 120/139/134
f 73/126/122 74/125/121 98/140/135 97/141/136
f 89/127/123 88/107/103 112/110/106 113/142/137
f 82/128/124 81/123/119 105/137/132 106/143/138
f 74/125/121 96/124/120 120/139/134 98/140/135
f 75/129/125 73/126/122 97/141/136 99/144/139
f 90/130/126 89/127/123 113/142/137 114/145/140
f 83/61/59 82/128/124 106/143/138 107/146/141
f 76/111/107 75/129/125 99/144/139 100/147/142
f 91/131/109 90/130/126 114/145/140 115/148/143
f 84/62/60 83/61/59 107/146/141 108/149/144
f 77/112/108 76/111/107 100/147/142 101/150/145
f 92/114/110 91/113/109 115/151/143 116/152/146
f 85/115/111 84/62/60 108/149/144 109/153/147
f 78/116/112 77/112/108 101/150/145 102/154/148
f 93/117/113 92/114/110 116/152/146 117/155/149
f 86/118/114 85/115/111 109/153/147 110/156/150
f 79/119/115 78/116/112 102/154/148 103/157/151
f 94/120/116 93/117/113 117/155/149 118/158/152
f 87/108/104 86/118/114 110/156/150 111/109/105
f 80/121/117 79/119/115 103/157/151 104/136/131
f 95/122/118 94/120/116 118/158/152 119/138/133
f 220/159/153 219/160/154 139/161/155 140/162/156
f 222/163/157 221/164/158 132/165/159 133/166/160
f 223/167/161 218/132/127 125/135/130 126/168/162
f 224/169/163 220/159/153 140/162/156 141/170/164
f 225/171/165 222/163/157 133/166/160 134/172/166
f 226/173/167 223/167/161 126/168/162 127/174/168
f 227/175/169 224/169/163 141/170/164 142/176/170
f 228/177/171 225/171/165 134/172/166 135/178/172
f 229/179/173 226/173/167 127/174/168 128/180/174
f 230/181/175 227/175/169 142/176/170 143/182/176
f 231/183/177 228/177/171 135/178/172 136/184/178
f 232/185/179 229/179/173 128/180/174 129/186/180
f 233/187/181 230/181/175 143/182/176 144/188/182
f 235/189/183 234/190/184 122/191/185 121/192/186
f 236/193/187 231/183/177 136/184/178 137/194/188
f 237/195/189 232/185/179 129/186/180 130/196/190
f 234/190/184 233/187/181 144/188/182 122/191/185
f 238/197/191 235/189/183 121/192/186 123/198/192
f 239/199/193 236/193/187 137/194/188 138/200/194
f 240/201/195 237/195/189 130/196/190 131/202/196
f 217/133/128 238/197/191 123/198/192 124/134/129
f 219/203/154 239/199/193 138/200/194 139/204/155
f 221/164/158 240/201/195 131/202/196 132/165/159
f 193/205/197 199/206/198 302/207/199 290/208/200
f 21/209/201 23/210/202 156/211/203 155/212/204
f 31/213/205 33/214/206 161/215/207 160/216/208
f 41/217/209 43/218/210 166/219/211 165/220/212
f 7/221/213 9/222/214 149/223/215 148/224/216
f 17/225/217 19/226/218 154/227/219 153/228/220
f 27/229/221 29/230/222 159/231/223 158/232/224
f 37/233/225 39/234/226 164/235/227 163/236/228
f 47/237/229 1/238/230 145/239/231 168/240/232
f 3/241/233 5/242/234 147/243/235 146/244/236
f 13/56/54 15/245/237 152/246/238 151/57/55
f 23/210/202 25/247/239 157/248/240 156/211/203
f 33/214/206 35/249/241 162/250/242 161/215/207
f 43/218/210 45/251/243 167/252/244 166/219/211
f 9/222/214 11/55/53 150/58/56 149/223/215
f 19/226/218 21/209/201 155/212/204 154/227/219
f 29/230/222 31/213/205 160/216/208 159/231/223
f 39/234/226 41/217/209 165/220/212 164/235/227
f 5/242/234 7/221/213 148/224/216 147/243/235
f 15/245/237 17/225/217 153/228/220 152/246/238
f 25/247/239 27/229/221 158/232/224 157/248/240
f 1/238/230 3/241/233 146/244/236 145/239/231
f 35/249/241 37/253/225 163/254/228 162/250/242
f 45/251/243 47/237/229 168/240/232 167/252/244
f 155/212/204 156/211/203 198/255/245 216/256/246
f 195/257/247 200/258/248 304/259/249 294/260/250
f 197/261/251 201/262/252 306/263/253 298/264/254
f 194/265/255 193/205/197 290/208/200 291/266/256
f 196/267/257 195/257/247 294/260/250 295/268/258
f 198/255/245 197/261/251 298/264/254 299/269/259
f 199/206/198 202/270/260 308/271/261 302/207/199
f 200/258/248 203/272/262 310/273/263 304/259/249
f 201/262/252 204/274/264 312/275/265 306/263/253
f 202/270/260 205/276/266 314/277/267 308/271/261
f 203/272/262 206/278/268 316/279/269 310/273/263
f 204/274/264 207/280/270 318/281/271 312/275/265
f 205/276/266 208/282/272 320/283/273 314/277/267
f 206/278/268 209/284/274 322/285/275 316/279/269
f 210/286/276 214/287/277 332/288/278 324/289/279
f 207/280/270 212/290/280 328/291/281 318/281/271
f 208/282/272 213/292/282 330/293/283 320/283/273
f 209/284/274 211/294/284 325/295/285 322/285/275
f 211/294/284 210/286/276 324/289/279 325/295/285
f 212/290/280 215/296/286 334/297/287 328/291/281
f 213/292/282 216/256/246 336/298/288 330/293/283
f 214/287/277 194/265/255 291/266/256 332/288/278
f 215/296/286 196/299/257 295/300/258 334/297/287
f 216/256/246 198/255/245 299/269/259 336/298/288
f 301/301/289 307/302/290 175/303/291 174/304/292
f 162/250/242 163/254/228 196/299/257 215/296/286
f 297/305/293 305/306/294 182/307/295 181/308/296
f 147/243/235 148/224/216 194/265/255 214/287/277
f 293/309/297 303/310/298 189/311/299 188/312/300
f 154/227/219 155/212/204 216/256/246 213/292/282
f 161/215/207 162/250/242 215/296/286 212/290/280
f 329/313/301 335/314/302 179/315/303 178/316/304
f 146/244/236 147/243/235 214/287/277 210/286/276
f 327/317/305 333/318/306 186/319/307 185/320/308
f 168/240/232 145/239/231 211/294/284 209/284/274
f 323/321/309 331/322/310 171/323/311 170/324/312
f 153/228/220 154/227/219 213/292/282 208/282/272
f 321/325/313 326/326/314 169/327/315 192/328/316
f 160/216/208 161/215/207 212/290/280 207/280/270
f 319/329/317 329/313/301 178/316/304 177/330/318
f 145/239/231 146/244/236 210/286/276 211/294/284
f 326/326/314 323/321/309 170/324/312 169/327/315
f 167/252/244 168/240/232 209/284/274 206/278/268
f 317/331/319 327/317/305 185/320/308 184/332/320
f 152/246/238 153/228/220 208/282/272 205/276/266
f 315/333/321 321/325/313 192/328/316 191/334/322
f 159/231/223 160/216/208 207/280/270 204/274/264
f 313/335/323 319/329/317 177/330/318 176/336/324
f 166/219/211 167/252/244 206/278/268 203/272/262
f 311/337/325 317/331/319 184/332/320 183/338/326
f 151/57/55 152/246/238 205/276/266 202/270/260
f 309/339/327 315/333/321 191/334/322 190/340/328
f 158/232/224 159/231/223 204/274/264 201/262/252
f 307/302/290 313/335/323 176/336/324 175/303/291
f 165/220/212 166/219/211 203/272/262 200/258/248
f 305/306/294 311/337/325 183/338/326 182/307/295
f 150/58/56 151/57/55 202/270/260 199/206/198
f 303/310/298 309/339/327 190/340/328 189/311/299
f 157/248/240 158/232/224 201/262/252 197/261/251
f 335/314/302 300/341/329 180/342/330 179/315/303
f 164/235/227 165/220/212 200/258/248 195/257/247
f 333/318/306 296/343/331 187/344/332 186/319/307
f 149/223/215 150/58/56 199/206/198 193/205/197
f 331/322/310 292/345/333 172/346/334 171/323/311
f 156/211/203 157/248/240 197/261/251 198/255/245
f 300/341/329 297/305/293 181/308/296 180/342/330
f 163/236/228 164/235/227 195/257/247 196/267/257
f 296/347/331 293/309/297 188/312/300 187/348/332
f 148/224/216 149/223/215 193/205/197 194/265/255
f 292/345/333 289/349/335 173/350/336 172/346/334
f 108/149/144 107/146/141 240/201/195 221/164/158
f 115/148/143 114/145/140 239/199/193 219/203/154
f 100/147/142 99/144/139 238/197/191 217/133/128
f 107/146/141 106/143/138 237/195/189 240/201/195
f 114/145/140 113/142/137 236/193/187 239/199/193
f 99/144/139 97/141/136 235/189/183 238/197/191
f 98/140/135 120/139/134 233/187/181 234/190/184
f 106/143/138 105/137/132 232/185/179 237/195/189
f 113/142/137 112/110/106 231/183/177 236/193/187
f 97/141/136 98/140/135 234/190/184 235/189/183
f 120/139/134 119/138/133 230/181/175 233/187/181
f 105/137/132 104/136/131 229/179/173 232/185/179
f 112/110/106 111/109/105 228/177/171 231/183/177
f 119/138/133 118/158/152 227/175/169 230/181/175
f 104/136/131 103/157/151 226/173/167 229/179/173
f 111/109/105 110/156/150 225/171/165 228/177/171
f 118/158/152 117/155/149 224/169/163 227/175/169
f 103/157/151 102/154/148 223/167/161 226/173/167
f 110/156/150 109/153/147 222/163/157 225/171/165
f 117/155/149 116/152/146 220/159/153 224/169/163
f 102/154/148 101/150/145 218/132/127 223/167/161
f 109/153/147 108/149/144 221/164/158 222/163/157
f 116/152/146 115/151/143 219/160/154 220/159/153
f 101/150/145 100/147/142 217/133/128 218/132/127
f 42/43/41 40/41/39 264/103/101 259/94/92
f 32/31/31 30/29/29 263/101/99 257/90/88
f 22/21/21 20/19/19 262/99/97 255/88/86
f 12/11/11 10/9/9 261/97/95 253/84/82
f 46/47/45 44/45/43 260/93/91 251/80/78
f 36/35/35 34/33/33 258/89/87 249/76/74
f 26/25/25 24/23/23 256/87/85 247/72/70
f 16/15/15 14/13/13 254/83/81 243/64/62
f 6/5/5 4/3/3 246/67/65 241/50/48
f 2/2/2 48/53/51 252/79/77 245/68/66
f 40/41/39 38/40/37 250/104/73 264/103/101
f 30/29/29 28/27/27 248/71/69 263/101/99
f 20/19/19 18/17/17 244/63/61 262/99/97
f 10/9/9 8/7/7 242/49/47 261/97/95
f 44/45/43 42/43/41 259/94/92 260/93/91
f 34/33/33 32/31/31 257/90/88 258/89/87
f 24/23/23 22/21/21 255/88/86 256/87/85
f 14/13/13 12/11/11 253/84/82 254/83/81
f 48/53/51 46/47/45 251/80/78 252/79/77
f 38/37/37 36/35/35 249/76/74 250/75/73
f 28/27/27 26/25/25 247/72/70 248/71/69
f 4/3/3 2/2/2 245/68/66 246/67/65
f 18/17/17 16/15/15 243/64/62 244/63/61
f 8/7/7 6/5/5 241/50/48 242/49/47
f 47/237/229 288/54/52 265/1/1 1/238/230
f 45/251/243 287/48/46 288/54/52 47/237/229
f 43/218/210 286/46/44 287/48/46 45/251/243
f 41/217/209 285/44/42 286/46/44 43/218/210
f 39/234/226 284/42/40 285/44/42 41/217/209
f 37/233/225 283/39/38 284/42/40 39/234/226
f 35/249/241 282/36/36 283/38/38 37/253/225
f 33/214/206 281/34/34 282/36/36 35/249/241
f 31/213/205 280/32/32 281/34/34 33/214/206
f 29/230/222 279/30/30 280/32/32 31/213/205
f 27/229/221 278/28/28 279/30/30 29/230/222
f 25/247/239 277/26/26 278/28/28 27/229/221
f 23/210/202 276/24/24 277/26/26 25/247/239
f 21/209/201 275/22/22 276/24/24 23/210/202
f 19/226/218 274/20/20 275/22/22 21/209/201
f 17/225/217 273/18/18 274/20/20 19/226/218
f 15/245/237 272/16/16 273/18/18 17/225/217
f 13/56/54 271/14/14 272/16/16 15/245/237
f 11/55/53 270/12/12 271/14/14 13/56/54
f 9/222/214 269/10/10 270/12/12 11/55/53
f 7/221/213 268/8/8 269/10/10 9/222/214
f 5/242/234 267/6/6 268/8/8 7/221/213
f 3/241/233 266/4/4 267/6/6 5/242/234
f 1/238/230 265/1/1 266/4/4 3/241/233
f 300/341/329 335/314/302 336/351/288 299/352/259
f 296/343/331 333/318/306 334/353/287 295/354/258
f 292/345/333 331/322/310 332/355/278 291/356/256
f 335/314/302 329/313/301 330/357/283 336/351/288
f 333/318/306 327/317/305 328/358/281 334/353/287
f 331/322/310 323/321/309 324/359/279 332/355/278
f 326/326/314 321/325/313 322/360/275 325/361/285
f 329/313/301 319/329/317 320/362/273 330/357/283
f 327/317/305 317/331/319 318/363/271 328/358/281
f 323/321/309 326/326/314 325/361/285 324/359/279
f 321/325/313 315/333/321 316/364/269 322/360/275
f 319/329/317 313/335/323 314/365/267 320/362/273
f 317/331/319 311/337/325 312/366/265 318/363/271
f 315/333/321 309/339/327 310/367/263 316/364/269
f 313/335/323 307/302/290 308/368/261 314/365/267
f 311/337/325 305/306/294 306/369/253 312/366/265
f 309/339/327 303/310/298 304/370/249 310/367/263
f 307/302/290 301/301/289 302/371/199 308/368/261
f 305/306/294 297/305/293 298/372/254 306/369/253
f 303/310/298 293/309/297 294/373/250 304/370/249
f 301/301/289 289/349/335 290/374/200 302/371/199
f 297/305/293 300/341/329 299/352/259 298/372/254
f 293/309/297 296/347/331 295/375/258 294/373/250
f 289/349/335 292/345/333 291/356/256 290/374/200
f 289/349/335 301/301/289 174/304/292 173/350/336
f 361/376/337 362/377/338 341/378/339 342/379/340
f 363/380/341 364/381/342 356/382/343 357/383/344
f 365/384/345 366/385/346 349/386/347 350/387/348
f 367/388/349 361/376/337 342/379/340 343/389/350
f 368/390/351 363/380/341 357/383/344 358/391/352
f 369/392/353 365/384/345 350/387/348 351/393/354
f 370/394/355 367/388/349 343/389/350 344/395/356
f 371/396/357 368/390/351 358/391/352 359/397/358
f 372/398/359 369/392/353 351/393/354 352/399/360
f 373/400/361 370/394/355 344/395/356 345/401/362
f 374/402/363 371/396/357 359/397/358 360/403/364
f 375/404/365 376/405/366 338/406/367 337/407/368
f 377/408/369 372/398/359 352/399/360 353/409/370
f 378/410/371 373/400/361 345/401/362 346/411/372
f 376/405/366 374/402/363 360/403/364 338/406/367
f 379/412/373 375/404/365 337/407/368 339/413/374
f 380/414/375 377/408/369 353/409/370 354/415/376
f 381/416/377 378/410/371 346/411/372 347/417/378
f 382/418/379 379/412/373 339/413/374 340/419/380
f 383/420/381 380/414/375 354/415/376 355/421/382
f 384/422/383 381/416/377 347/417/378 348/423/384
f 362/377/338 382/418/379 340/419/380 341/378/339
f 364/381/342 383/424/381 355/425/382 356/382/343
f 366/385/346 384/422/383 348/423/384 349/386/347
f 133/166/160 132/165/159 384/422/383 366/385/346
f 140/162/156 139/161/155 383/424/381 364/381/342
f 125/135/130 124/134/129 382/418/379 362/377/338
f 132/165/159 131/202/196 381/416/377 384/422/383
f 139/204/155 138/200/194 380/414/375 383/420/381
f 124/134/129 123/198/192 379/412/373 382/418/379
f 131/202/196 130/196/190 378/410/371 381/416/377
f 138/200/194 137/194/188 377/408/369 380/414/375
f 123/198/192 121/192/186 375/404/365 379/412/373
f 122/191/185 144/188/182 374/402/363 376/405/366
f 130/196/190 129/186/180 373/400/361 378/410/371
f 137/194/188 136/184/178 372/398/359 377/408/369
f 121/192/186 122/191/185 376/405/366 375/404/365
f 144/188/182 143/182/176 371/396/357 374/402/363
f 129/186/180 128/180/174 370/394/355 373/400/361
f 136/184/178 135/178/172 369/392/353 372/398/359
f 143/182/176 142/176/170 368/390/351 371/396/357
f 128/180/174 127/174/168 367/388/349 370/394/355
f 135/178/172 134/172/166 365/384/345 369/392/353
f 142/176/170 141/170/164 363/380/341 368/390/351
f 127/174/168 126/168/162 361/376/337 367/388/349
f 134/172/166 133/166/160 366/385/346 365/384/345
f 141/170/164 140/162/156 364/381/342 363/380/341
f 126/168/162 125/135/130 362/377/338 361/376/337
f 180/426/330 181/427/296 385/428/385 179/429/303
f 181/427/296 182/430/295 183/431/326 385/428/385
f 179/429/303 385/428/385 386/432/386 178/433/304
f 385/428/385 183/431/326 184/434/320 386/432/386
f 178/433/304 386/432/386 387/435/387 177/436/318
f 386/432/386 184/434/320 185/437/308 387/435/387
f 177/436/318 387/435/387 388/438/388 176/439/324
f 387/435/387 185/437/308 186/440/307 388/438/388
f 176/439/324 388/438/388 389/441/389 175/442/291
f 388/438/388 186/440/307 187/443/332 389/441/389
f 175/442/291 389/441/389 390/444/390 174/445/292
f 389/441/389 187/443/332 188/446/300 390/444/390
f 174/445/292 390/444/390 391/447/391 173/448/336
f 390/444/390 188/446/300 189/449/299 391/447/391
f 173/448/336 391/447/391 392/450/392 172/451/334
f 391/447/391 189/449/299 190/452/328 392/450/392
f 172/451/334 392/450/392 393/453/393 171/454/311
f 392/450/392 190/452/328 191/455/322 393/453/393
f 171/454/311 393/453/393 169/456/315 170/457/312
f 393/453/393 191/455/322 192/458/316 169/456/315
f 528/459/394 431/460/395 432/461/396 529/462/397
f 522/463/398 521/464/399 446/465/400 448/466/401
f 529/462/397 432/461/396 433/467/402 530/468/403
f 517/469/404 423/470/405 424/471/406 518/472/407
f 530/468/403 433/467/402 434/473/408 531/474/409
f 523/475/410 522/463/398 448/466/401 447/476/411
f 531/474/409 434/473/408 435/477/412 532/478/413
f 532/478/413 435/477/412 436/479/414 533/480/415
f 398/481/416 459/482/417 457/483/418 397/484/419
f 533/480/415 436/479/414 449/485/420 506/486/421
f 525/487/422 428/488/423 429/489/424 526/490/425
f 507/491/426 437/492/427 438/493/428 508/494/429
f 515/495/430 445/496/431 422/497/432 516/498/433
f 508/494/429 438/493/428 439/499/434 509/500/435
f 506/486/421 449/485/420 437/492/427 507/491/426
f 518/472/407 424/471/406 426/501/436 519/502/437
f 509/500/435 439/499/434 440/503/438 510/504/439
f 519/502/437 426/501/436 425/505/440 520/506/441
f 510/504/439 440/503/438 441/507/442 511/508/443
f 520/506/441 425/505/440 446/465/400 521/464/399
f 511/508/443 441/507/442 442/509/444 512/510/445
f 524/511/446 523/475/410 447/476/411 427/512/447
f 512/510/445 442/509/444 443/513/448 513/514/449
f 526/490/425 429/489/424 430/515/450 527/516/451
f 513/514/449 443/513/448 444/517/452 514/518/453
f 527/516/451 430/515/450 431/460/395 528/459/394
f 514/518/453 444/517/452 445/496/431 515/495/430
f 419/519/454 420/520/455 503/521/456 501/522/457
f 406/523/458 475/524/459 477/525/460 407/526/461
f 524/511/446 427/512/447 428/488/423 525/487/422
f 407/526/461 477/525/460 479/527/462 408/528/463
f 399/529/464 419/519/454 501/522/457 460/530/465
f 408/528/463 479/527/462 505/531/466 421/532/467
f 394/533/468 450/534/469 453/535/470 395/536/471
f 421/532/467 505/531/466 480/537/472 409/538/473
f 409/538/473 480/537/472 483/539/474 410/540/475
f 395/541/471 453/542/470 455/543/476 396/544/477
f 410/540/475 483/539/474 485/545/478 411/546/479
f 396/544/477 455/543/476 459/482/417 398/481/416
f 411/546/479 485/545/478 487/547/480 412/548/481
f 397/484/419 457/483/418 498/549/482 418/550/483
f 412/548/481 487/547/480 489/551/484 413/552/485
f 399/529/464 460/530/465 463/553/486 400/554/487
f 413/552/485 489/551/484 491/555/488 414/556/489
f 400/554/487 463/553/486 465/557/490 401/558/491
f 414/556/489 491/555/488 493/559/492 415/560/493
f 401/558/491 465/557/490 467/561/494 402/562/495
f 415/560/493 493/559/492 495/563/496 416/564/497
f 402/562/495 467/561/494 469/565/498 403/566/499
f 416/564/497 495/563/496 497/567/500 417/568/501
f 403/566/499 469/565/498 471/569/502 404/570/503
f 417/568/501 497/567/500 450/534/469 394/533/468
f 404/570/503 471/569/502 473/571/504 405/572/505
f 420/520/455 418/550/483 498/549/482 503/521/456
f 405/572/505 473/571/504 475/524/459 406/523/458
f 453/535/470 450/534/469 451/573/506 452/574/507
f 455/543/476 453/542/470 452/575/507 454/576/508
f 459/482/417 455/543/476 454/576/508 458/577/509
f 457/483/418 459/482/417 458/577/509 456/578/510
f 463/553/486 460/530/465 461/579/511 462/580/512
f 465/557/490 463/553/486 462/580/512 464/581/513
f 467/561/494 465/557/490 464/581/513 466/582/514
f 469/565/498 467/561/494 466/582/514 468/583/515
f 471/569/502 469/565/498 468/583/515 470/584/516
f 473/571/504 471/569/502 470/584/516 472/585/517
f 475/524/459 473/571/504 472/585/517 474/586/518
f 477/525/460 475/524/459 474/586/518 476/587/519
f 479/527/462 477/525/460 476/587/519 478/588/520
f 505/531/466 479/527/462 478/588/520 504/589/521
f 483/539/474 480/537/472 481/590/522 482/591/523
f 485/545/478 483/539/474 482/591/523 484/592/524
f 487/547/480 485/545/478 484/592/524 486/593/525
f 489/551/484 487/547/480 486/593/525 488/594/526
f 491/555/488 489/551/484 488/594/526 490/595/527
f 493/559/492 491/555/488 490/595/527 492/596/528
f 495/563/496 493/559/492 492/596/528 494/597/529
f 497/567/500 495/563/496 494/597/529 496/598/530
f 450/534/469 497/567/500 496/598/530 451/573/506
f 499/599/531 502/600/532 503/521/456 498/549/482
f 502/600/532 500/601/533 501/522/457 503/521/456
f 498/549/482 457/483/418 456/578/510 499/599/531
f 500/601/533 461/579/511 460/530/465 501/522/457
f 480/537/472 505/531/466 504/589/521 481/590/522
f 516/498/433 422/497/432 423/602/405 517/603/404
f 504/589/521 506/486/421 507/491/426 481/590/522
f 481/590/522 507/491/426 508/494/429 482/591/523
f 482/591/523 508/494/429 509/500/435 484/592/524
f 484/592/524 509/500/435 510/504/439 486/593/525
f 486/593/525 510/504/439 511/508/443 488/594/526
f 488/594/526 511/508/443 512/510/445 490/595/527
f 490/595/527 512/510/445 513/514/449 492/596/528
f 492/596/528 513/514/449 514/518/453 494/597/529
f 494/597/529 514/518/453 515/495/430 496/598/530
f 496/598/530 515/495/430 516/498/433 451/573/506
f 451/573/506 516/498/433 517/603/404 452/574/507
f 452/575/507 517/469/404 518/472/407 454/576/508
f 454/576/508 518/472/407 519/502/437 458/577/509
f 458/577/509 519/502/437 520/506/441 456/578/510
f 456/578/510 520/506/441 521/464/399 499/599/531
f 502/600/532 499/599/531 521/464/399 522/463/398
f 500/601/533 502/600/532 522/463/398 523/475/410
f 461/579/511 500/601/533 523/475/410 524/511/446
f 461/579/511 524/511/446 525/487/422 462/580/512
f 462/580/512 525/487/422 526/490/425 464/581/513
f 464/581/513 526/490/425 527/516/451 466/582/514
f 466/582/514 527/516/451 528/459/394 468/583/515
f 468/583/515 528/459/394 529/462/397 470/584/516
f 470/584/516 529/462/397 530/468/403 472/585/517
f 472/585/517 530/468/403 531/474/409 474/586/518
f 474/586/518 531/474/409 532/478/413 476/587/519
f 476/587/519 532/478/413 533/480/415 478/588/520
f 478/588/520 533/480/415 506/486/421 504/589/521
f 416/604/534 534/605/535 414/606/536 415/607/537
f 534/605/535 540/608/538 413/609/539 414/606/536
f 540/608/538 546/610/540 412/611/541 413/609/539
f 546/610/540 552/612/542 411/613/543 412/611/541
f 552/612/542 558/614/544 410/615/545 411/613/543
f 558/614/544 564/616/546 409/617/547 410/615/545
f 564/616/546 408/618/548 421/619/549 409/617/547
f 417/620/550 535/621/551 534/605/535 416/604/534
f 535/621/551 541/622/552 540/608/538 534/605/535
f 541/622/552 547/623/553 546/610/540 540/608/538
f 547/623/553 553/624/554 552/612/542 546/610/540
f 553/624/554 559/625/555 558/614/544 552/612/542
f 559/625/555 565/626/556 564/616/546 558/614/544
f 565/626/556 407/627/557 408/618/548 564/616/546
f 394/628/558 536/629/559 535/621/551 417/620/550
f 536/629/559 542/630/560 541/622/552 535/621/551
f 542/630/560 548/631/561 547/623/553 541/622/552
f 548/631/561 554/632/562 553/624/554 547/623/553
f 554/632/562 560/633/563 559/625/555 553/624/554
f 560/633/563 566/634/564 565/626/556 559/625/555
f 566/634/564 406/635/565 407/627/557 565/626/556
f 395/636/566 537/637/567 536/629/559 394/628/558
f 537/637/567 543/638/568 542/630/560 536/629/559
f 543/638/568 549/639/569 548/631/561 542/630/560
f 549/639/569 555/640/570 554/632/562 548/631/561
f 555/640/570 561/641/571 560/633/563 554/632/562
f 561/641/571 567/642/572 566/634/564 560/633/563
f 567/642/572 405/643/573 406/635/565 566/634/564
f 396/644/574 538/645/575 537/637/567 395/636/566
f 538/645/575 544/646/576 543/638/568 537/637/567
f 544/646/576 550/647/577 549/639/569 543/638/568
f 550/647/577 556/648/578 555/640/570 549/639/569
f 556/648/578 562/649/579 561/641/571 555/640/570
f 562/649/579 568/650/580 567/642/572 561/641/571
f 568/650/580 404/651/581 405/643/573 567/642/572
f 398/652/582 539/653/583 538/645/575 396/644/574
f 539/653/583 545/654/584 544/646/576 538/645/575
f 545/654/584 551/655/585 550/647/577 544/646/576
f 551/655/585 557/656/586 556/648/578 550/647/577
f 557/656/586 563/657/587 562/649/579 556/648/578
f 563/657/587 569/658/588 568/650/580 562/649/579
f 569/658/588 403/659/589 404/651/581 568/650/580
f 397/660/590 418/661/591 539/653/583 398/652/582
f 418/661/591 420/662/592 545/654/584 539/653/583
f 420/662/592 419/663/593 551/655/585 545/654/584
f 419/663/593 399/664/594 557/656/586 551/655/585
f 399/664/594 400/665/595 563/657/587 557/656/586
f 400/665/595 401/666/596 569/658/588 563/657/587
f 401/666/596 402/667/597 403/659/589 569/658/588
