# Blender 4.0.2
# www.blender.org
o library_stool
v 0.000000 0.370000 -0.072062
v 0.000000 0.370000 -0.098744
v 0.000000 0.370000 -0.120235
v 0.000000 0.370000 -0.139511
v -0.064603 0.370000 0.039826
v 0.000000 0.370000 0.003246
v -0.123008 0.370000 0.073546
v -0.106315 0.370000 0.063908
v -0.087703 0.370000 0.053163
v 0.064603 0.370000 0.039826
v 0.123008 0.370000 0.073546
v 0.106315 0.370000 0.063908
v 0.087703 0.370000 0.053163
v 0.000000 0.346805 0.129014
v -0.142775 0.346805 0.084958
v -0.122759 0.346805 0.110790
v -0.109541 0.346805 -0.060716
v -0.096928 0.346805 0.129889
v -0.067946 0.346805 0.140148
v -0.038650 0.346805 0.140565
v -0.011908 0.346805 0.131097
v -0.064603 0.346805 0.039826
v 0.000000 0.346805 -0.162335
v -0.032379 0.346805 -0.157917
v -0.061834 0.346805 -0.145096
v -0.085211 0.346805 -0.125126
v -0.100219 0.346805 -0.099963
v -0.105391 0.346805 -0.072070
v -0.117298 0.346805 -0.051445
v -0.138869 0.346805 -0.033020
v -0.153156 0.346805 -0.007441
v -0.158762 0.346805 0.022788
v -0.155138 0.346805 0.054708
v 0.000000 0.346805 -0.145096
v 0.000000 0.346805 0.003246
v 0.000000 0.346805 -0.072062
v -0.127845 0.346805 0.076339
v -0.110551 0.346805 0.066354
v -0.088759 0.346805 0.053772
v 0.000000 0.346805 -0.099963
v 0.000000 0.346805 -0.125126
v 0.142775 0.346805 0.084958
v 0.122759 0.346805 0.110790
v 0.109541 0.346805 -0.060716
v 0.096928 0.346805 0.129889
v 0.067946 0.346805 0.140148
v 0.038650 0.346805 0.140565
v 0.011908 0.346805 0.131097
v 0.064603 0.346805 0.039826
v 0.032379 0.346805 -0.157917
v 0.061834 0.346805 -0.145096
v 0.085211 0.346805 -0.125126
v 0.100219 0.346805 -0.099963
v 0.105391 0.346805 -0.072070
v 0.117298 0.346805 -0.051445
v 0.138869 0.346805 -0.033020
v 0.153156 0.346805 -0.007441
v 0.158762 0.346805 0.022788
v 0.155138 0.346805 0.054708
v 0.127845 0.346805 0.076339
v 0.110551 0.346805 0.066354
v 0.088759 0.346805 0.053772
v 0.000000 0.370000 0.121056
v 0.000000 0.361465 0.129014
v 0.000000 0.367500 0.126683
v -0.102649 0.370000 -0.056737
v -0.109541 0.361465 -0.060716
v -0.107522 0.367500 -0.059551
v -0.117298 0.361465 -0.051445
v -0.111708 0.370000 -0.045911
v -0.115661 0.367500 -0.049824
v -0.142775 0.361465 0.084958
v -0.135923 0.370000 0.081002
v -0.140768 0.367500 0.083800
v -0.132710 0.370000 -0.027971
v -0.138869 0.361465 -0.033020
v -0.137065 0.367500 -0.031541
v -0.145684 0.370000 -0.004744
v -0.153156 0.361465 -0.007441
v -0.150968 0.367500 -0.006651
v -0.150842 0.370000 0.023067
v -0.158762 0.361465 0.022788
v -0.156442 0.367500 0.022870
v -0.147472 0.370000 0.052747
v -0.155138 0.361465 0.054708
v -0.152893 0.367500 0.054134
v -0.097803 0.370000 -0.069996
v -0.105391 0.361465 -0.072070
v -0.103168 0.367500 -0.071462
v 0.000000 0.361465 -0.162335
v 0.000000 0.370000 -0.154423
v 0.000000 0.367500 -0.160018
v -0.092767 0.370000 -0.097154
v -0.100219 0.361465 -0.099963
v -0.098037 0.367500 -0.099140
v -0.079139 0.370000 -0.120004
v -0.085211 0.361465 -0.125126
v -0.083432 0.367500 -0.123626
v -0.057633 0.370000 -0.138375
v -0.061834 0.361465 -0.145096
v -0.060604 0.367500 -0.143127
v -0.030244 0.370000 -0.150297
v -0.032379 0.361465 -0.157917
v -0.031754 0.367500 -0.155685
v -0.013905 0.370000 0.123488
v -0.011908 0.361465 0.131097
v -0.012493 0.367500 0.128868
v -0.039943 0.370000 0.132707
v -0.038650 0.361465 0.140565
v -0.039028 0.367500 0.138263
v -0.066545 0.370000 0.132329
v -0.067946 0.361465 0.140148
v -0.067536 0.367500 0.137858
v -0.093209 0.370000 0.122890
v -0.096928 0.361465 0.129889
v -0.095839 0.367500 0.127839
v -0.117227 0.370000 0.105132
v -0.122759 0.361465 0.110790
v -0.121139 0.367500 0.109133
v 0.097803 0.370000 -0.069987
v 0.105390 0.361465 -0.072065
v 0.103168 0.367500 -0.071455
v 0.109541 0.361465 -0.060716
v 0.102649 0.370000 -0.056736
v 0.107522 0.367500 -0.059551
v 0.111708 0.370000 -0.045911
v 0.117298 0.361465 -0.051445
v 0.115661 0.367500 -0.049824
v 0.135923 0.370000 0.081002
v 0.142775 0.361465 0.084958
v 0.140768 0.367500 0.083800
v 0.138869 0.361465 -0.033020
v 0.132710 0.370000 -0.027971
v 0.137065 0.367500 -0.031541
v 0.153156 0.361465 -0.007441
v 0.145684 0.370000 -0.004744
v 0.150968 0.367500 -0.006651
v 0.158762 0.361465 0.022788
v 0.150842 0.370000 0.023067
v 0.156442 0.367500 0.022870
v 0.155138 0.361465 0.054708
v 0.147472 0.370000 0.052747
v 0.152893 0.367500 0.054134
v 0.100219 0.361465 -0.099963
v 0.092767 0.370000 -0.097154
v 0.098037 0.367500 -0.099141
v 0.085211 0.361465 -0.125126
v 0.079139 0.370000 -0.120004
v 0.083432 0.367500 -0.123626
v 0.061834 0.361465 -0.145096
v 0.057633 0.370000 -0.138375
v 0.060604 0.367500 -0.143127
v 0.030244 0.370000 -0.150297
v 0.032379 0.361465 -0.157917
v 0.031754 0.367500 -0.155685
v 0.011908 0.361465 0.131097
v 0.013905 0.370000 0.123488
v 0.012493 0.367500 0.128868
v 0.038650 0.361465 0.140565
v 0.039943 0.370000 0.132707
v 0.039028 0.367500 0.138263
v 0.067946 0.361465 0.140148
v 0.066545 0.370000 0.132329
v 0.067536 0.367500 0.137858
v 0.096928 0.361465 0.129889
v 0.093209 0.370000 0.122890
v 0.095839 0.367500 0.127839
v 0.122759 0.361465 0.110790
v 0.117227 0.370000 0.105132
v 0.121139 0.367500 0.109133
v -0.000000 0.016393 -0.170333
v 0.033230 0.016393 -0.167061
v 0.065184 0.016393 -0.157368
v 0.094632 0.016393 -0.141627
v 0.120444 0.016393 -0.120444
v 0.141627 0.016393 -0.094632
v 0.157368 0.016393 -0.065184
v 0.167061 0.016393 -0.033230
v 0.170333 0.016393 0.000000
v 0.167061 0.016393 0.033230
v 0.157368 0.016393 0.065184
v 0.141627 0.016393 0.094632
v 0.120444 0.016393 0.120444
v 0.094632 0.016393 0.141627
v 0.065184 0.016393 0.157368
v 0.033230 0.016393 0.167061
v -0.000000 0.016393 0.170333
v -0.033230 0.016393 0.167061
v -0.065184 0.016393 0.157368
v -0.094632 0.016393 0.141627
v -0.120444 0.016393 0.120444
v -0.141627 0.016393 0.094632
v -0.157368 0.016393 0.065184
v -0.167061 0.016393 0.033230
v -0.170333 0.016393 -0.000000
v -0.167061 0.016393 -0.033230
v -0.157368 0.016393 -0.065184
v -0.141627 0.016393 -0.094632
v -0.120444 0.016393 -0.120444
v -0.094632 0.016393 -0.141627
v -0.065184 0.016393 -0.157368
v -0.033230 0.016393 -0.167061
v -0.000000 0.160416 -0.184493
v 0.035993 0.160416 -0.180948
v 0.070603 0.160416 -0.170449
v 0.102499 0.160416 -0.153400
v 0.130457 0.160416 -0.130456
v 0.153401 0.160416 -0.102498
v 0.170450 0.160416 -0.070602
v 0.180949 0.160416 -0.035992
v 0.184494 0.160416 0.000001
v 0.180949 0.160416 0.035994
v 0.170450 0.160416 0.070604
v 0.153401 0.160416 0.102500
v 0.130457 0.160416 0.130458
v 0.102499 0.160416 0.153402
v 0.070603 0.160416 0.170451
v 0.035993 0.160416 0.180950
v -0.000000 0.160416 0.184495
v -0.035993 0.160416 0.180950
v -0.070603 0.160416 0.170451
v -0.102499 0.160416 0.153402
v -0.130457 0.160416 0.130458
v -0.153401 0.160416 0.102500
v -0.170450 0.160416 0.070604
v -0.180949 0.160416 0.035994
v -0.184494 0.160416 0.000001
v -0.180949 0.160416 -0.035992
v -0.170450 0.160416 -0.070602
v -0.153401 0.160416 -0.102498
v -0.130457 0.160416 -0.130456
v -0.102499 0.160416 -0.153400
v -0.070603 0.160416 -0.170449
v -0.035993 0.160416 -0.180948
v 0.039398 0.021829 -0.198068
v 0.077282 0.021829 -0.186576
v 0.112196 0.021829 -0.167914
v 0.142799 0.021829 -0.142799
v 0.167914 0.021829 -0.112196
v 0.186576 0.021829 -0.077282
v 0.198068 0.021829 -0.039398
v 0.201948 0.021829 0.000000
v 0.198068 0.021829 0.039398
v 0.186576 0.021829 0.077282
v 0.167914 0.021829 0.112196
v 0.142799 0.021829 0.142799
v 0.112196 0.021829 0.167914
v 0.077282 0.021829 0.186576
v 0.039398 0.021829 0.198068
v -0.000000 0.021829 0.201948
v -0.039398 0.021829 0.198068
v -0.077282 0.021829 0.186576
v -0.112196 0.021829 0.167914
v -0.142799 0.021829 0.142799
v -0.167914 0.021829 0.112196
v -0.186576 0.021829 0.077282
v -0.198068 0.021829 0.039398
v -0.201948 0.021829 -0.000000
v -0.198068 0.021829 -0.039398
v -0.186576 0.021829 -0.077282
v -0.167914 0.021829 -0.112196
v -0.142799 0.021829 -0.142799
v -0.112196 0.021829 -0.167914
v -0.077282 0.021829 -0.186576
v -0.039398 0.021829 -0.198068
v 0.000000 0.021829 -0.201948
v 0.000000 0.023089 -0.194083
v 0.037864 0.023089 -0.190354
v 0.074273 0.023089 -0.179310
v 0.107827 0.023089 -0.161374
v 0.137238 0.023089 -0.137238
v 0.161374 0.023089 -0.107827
v 0.179310 0.023089 -0.074272
v 0.190354 0.023089 -0.037864
v 0.194083 0.023089 0.000000
v 0.190354 0.023089 0.037864
v 0.179310 0.023089 0.074272
v 0.161374 0.023089 0.107827
v 0.137238 0.023089 0.137238
v 0.107827 0.023089 0.161374
v 0.074273 0.023089 0.179310
v 0.037864 0.023089 0.190354
v -0.000000 0.023089 0.194083
v -0.037864 0.023089 0.190354
v -0.074272 0.023089 0.179310
v -0.107827 0.023089 0.161374
v -0.137238 0.023089 0.137238
v -0.161374 0.023089 0.107827
v -0.179310 0.023089 0.074273
v -0.190354 0.023089 0.037864
v -0.194083 0.023089 -0.000000
v -0.190354 0.023089 -0.037864
v -0.179310 0.023089 -0.074273
v -0.161374 0.023089 -0.107827
v -0.137238 0.023089 -0.137238
v -0.107827 0.023089 -0.161374
v -0.074272 0.023089 -0.179310
v -0.037864 0.023089 -0.190354
v -0.000000 0.156744 -0.179335
v 0.034987 0.156744 -0.175889
v 0.068629 0.156744 -0.165684
v 0.099634 0.156744 -0.149112
v 0.126810 0.156744 -0.126809
v 0.149113 0.156744 -0.099633
v 0.165685 0.156744 -0.068628
v 0.175890 0.156744 -0.034986
v 0.179336 0.156744 0.000001
v 0.175890 0.156744 0.034988
v 0.165685 0.156744 0.068630
v 0.149113 0.156744 0.099635
v 0.126810 0.156744 0.126811
v 0.099634 0.156744 0.149114
v 0.068629 0.156744 0.165686
v 0.034987 0.156744 0.175892
v -0.000000 0.156744 0.179337
v -0.034987 0.156744 0.175892
v -0.068629 0.156744 0.165686
v -0.099634 0.156744 0.149114
v -0.126810 0.156744 0.126811
v -0.149113 0.156744 0.099635
v -0.165685 0.156744 0.068630
v -0.175891 0.156744 0.034988
v -0.179336 0.156744 0.000001
v -0.175891 0.156744 -0.034986
v -0.165685 0.156744 -0.068628
v -0.149113 0.156744 -0.099633
v -0.126810 0.156744 -0.126809
v -0.099634 0.156744 -0.149112
v -0.068629 0.156744 -0.165684
v -0.034987 0.156744 -0.175889
v -0.000000 0.177565 -0.176875
v -0.000000 0.172257 -0.182841
v -0.000000 0.176010 -0.180787
v 0.034507 0.177565 -0.173477
v 0.035671 0.172257 -0.179328
v 0.035270 0.176010 -0.177313
v 0.067688 0.177565 -0.163411
v 0.069971 0.172257 -0.168923
v 0.069185 0.176010 -0.167025
v 0.098267 0.177565 -0.147066
v 0.101582 0.172257 -0.152027
v 0.100440 0.176010 -0.150319
v 0.125070 0.177565 -0.125069
v 0.129289 0.172257 -0.129288
v 0.127836 0.176010 -0.127835
v 0.147067 0.177565 -0.098266
v 0.152028 0.172257 -0.101581
v 0.150320 0.176010 -0.100439
v 0.163412 0.177565 -0.067687
v 0.168924 0.172257 -0.069970
v 0.167026 0.176010 -0.069183
v 0.173478 0.177565 -0.034506
v 0.179329 0.172257 -0.035670
v 0.177314 0.176010 -0.035269
v 0.176876 0.177565 0.000001
v 0.182842 0.172257 0.000001
v 0.180788 0.176010 0.000001
v 0.173478 0.177565 0.034508
v 0.179329 0.172257 0.035672
v 0.177314 0.176010 0.035271
v 0.163412 0.177565 0.067689
v 0.168924 0.172257 0.069972
v 0.167026 0.176010 0.069186
v 0.147067 0.177565 0.098268
v 0.152028 0.172257 0.101583
v 0.150320 0.176010 0.100442
v 0.125070 0.177565 0.125072
v 0.129289 0.172257 0.129290
v 0.127836 0.176010 0.127838
v 0.098267 0.177565 0.147068
v 0.101582 0.172257 0.152029
v 0.100440 0.176010 0.150321
v 0.067688 0.177565 0.163413
v 0.069971 0.172257 0.168925
v 0.069185 0.176010 0.167027
v 0.034507 0.177565 0.173479
v 0.035671 0.172257 0.179330
v 0.035270 0.176010 0.177315
v -0.000000 0.177565 0.176877
v -0.000000 0.172257 0.182843
v -0.000000 0.176010 0.180789
v -0.034507 0.177565 0.173479
v -0.035671 0.172257 0.179330
v -0.035270 0.176010 0.177315
v -0.067688 0.177565 0.163413
v -0.069971 0.172257 0.168925
v -0.069185 0.176010 0.167027
v -0.098267 0.177565 0.147068
v -0.101582 0.172257 0.152029
v -0.100441 0.176010 0.150321
v -0.125070 0.177565 0.125072
v -0.129289 0.172257 0.129290
v -0.127836 0.176010 0.127838
v -0.147067 0.177565 0.098268
v -0.152028 0.172257 0.101583
v -0.150320 0.176010 0.100442
v -0.163412 0.177565 0.067689
v -0.168924 0.172257 0.069972
v -0.167026 0.176010 0.069186
v -0.173478 0.177565 0.034508
v -0.179329 0.172257 0.035672
v -0.177314 0.176010 0.035271
v -0.176876 0.177565 0.000001
v -0.182842 0.172257 0.000001
v -0.180788 0.176010 0.000001
v -0.173478 0.177565 -0.034506
v -0.179329 0.172257 -0.035670
v -0.177314 0.176010 -0.035269
v -0.163412 0.177565 -0.067687
v -0.168924 0.172257 -0.069970
v -0.167026 0.176010 -0.069184
v -0.147067 0.177565 -0.098266
v -0.152028 0.172257 -0.101581
v -0.150320 0.176010 -0.100439
v -0.125070 0.177565 -0.125069
v -0.129289 0.172257 -0.129288
v -0.127836 0.176010 -0.127835
v -0.098267 0.177565 -0.147066
v -0.101582 0.172257 -0.152027
v -0.100441 0.176010 -0.150319
v -0.067688 0.177565 -0.163411
v -0.069971 0.172257 -0.168923
v -0.069185 0.176010 -0.167025
v -0.034507 0.177565 -0.173477
v -0.035671 0.172257 -0.179328
v -0.035270 0.176010 -0.177313
v 0.000000 -0.000000 -0.205000
v 0.039994 -0.000000 -0.201061
v 0.078450 -0.000000 -0.189395
v 0.113892 -0.000000 -0.170451
v 0.144957 -0.000000 -0.144957
v 0.170451 -0.000000 -0.113892
v 0.189395 -0.000000 -0.078450
v 0.201061 -0.000000 -0.039994
v 0.205000 -0.000000 0.000000
v 0.201061 -0.000000 0.039994
v 0.189395 -0.000000 0.078450
v 0.170451 -0.000000 0.113892
v 0.144957 -0.000000 0.144957
v 0.113892 -0.000000 0.170451
v 0.078450 -0.000000 0.189395
v 0.039994 -0.000000 0.201061
v -0.000000 -0.000000 0.205000
v -0.039994 -0.000000 0.201061
v -0.078450 -0.000000 0.189395
v -0.113892 -0.000000 0.170451
v -0.144957 -0.000000 0.144957
v -0.170451 -0.000000 0.113892
v -0.189395 -0.000000 0.078450
v -0.201061 -0.000000 0.039994
v -0.205000 -0.000000 -0.000000
v -0.201061 -0.000000 -0.039994
v -0.189395 -0.000000 -0.078450
v -0.170451 -0.000000 -0.113892
v -0.144957 -0.000000 -0.144957
v -0.113892 -0.000000 -0.170451
v -0.078450 -0.000000 -0.189395
v -0.039993 -0.000000 -0.201061
v -0.000000 -0.000000 -0.187954
v 0.036668 -0.000000 -0.184343
v 0.071927 -0.000000 -0.173647
v 0.104422 -0.000000 -0.156278
v 0.132904 -0.000000 -0.132904
v 0.156278 -0.000000 -0.104422
v 0.173647 -0.000000 -0.071927
v 0.184343 -0.000000 -0.036668
v 0.187954 -0.000000 0.000000
v 0.184343 -0.000000 0.036668
v 0.173647 -0.000000 0.071927
v 0.156278 -0.000000 0.104422
v 0.132904 -0.000000 0.132904
v 0.104422 -0.000000 0.156278
v 0.071927 -0.000000 0.173647
v 0.036668 -0.000000 0.184343
v -0.000000 -0.000000 0.187954
v -0.036668 -0.000000 0.184343
v -0.071927 -0.000000 0.173647
v -0.104422 -0.000000 0.156278
v -0.132904 -0.000000 0.132904
v -0.156278 -0.000000 0.104422
v -0.173647 -0.000000 0.071927
v -0.184343 -0.000000 0.036668
v -0.187954 -0.000000 -0.000000
v -0.184343 -0.000000 -0.036668
v -0.173647 -0.000000 -0.071927
v -0.156278 -0.000000 -0.104422
v -0.132904 -0.000000 -0.132904
v -0.104422 -0.000000 -0.156278
v -0.071927 -0.000000 -0.173647
v -0.036668 -0.000000 -0.184343
v -0.000000 0.011765 -0.182517
v 0.035607 0.011765 -0.179010
v 0.069846 0.011765 -0.168624
v 0.101401 0.011765 -0.151758
v 0.129059 0.011765 -0.129059
v 0.151758 0.011765 -0.101401
v 0.168624 0.011765 -0.069846
v 0.179010 0.011765 -0.035607
v 0.182517 0.011765 0.000000
v 0.179010 0.011765 0.035607
v 0.168624 0.011765 0.069846
v 0.151758 0.011765 0.101401
v 0.129059 0.011765 0.129059
v 0.101401 0.011765 0.151758
v 0.069846 0.011765 0.168624
v 0.035607 0.011765 0.179010
v -0.000000 0.011765 0.182517
v -0.035607 0.011765 0.179010
v -0.069846 0.011765 0.168624
v -0.101401 0.011765 0.151758
v -0.129059 0.011765 0.129059
v -0.151758 0.011765 0.101401
v -0.168624 0.011765 0.069846
v -0.179010 0.011765 0.035607
v -0.182517 0.011765 -0.000000
v -0.179010 0.011765 -0.035607
v -0.168624 0.011765 -0.069846
v -0.151758 0.011765 -0.101401
v -0.129059 0.011765 -0.129059
v -0.101401 0.011765 -0.151758
v -0.069846 0.011765 -0.168624
v -0.035607 0.011765 -0.179010
v -0.000000 0.102355 -0.163006
v 0.031801 0.102355 -0.159874
v 0.062380 0.102355 -0.150598
v 0.090561 0.102355 -0.135535
v 0.115263 0.102355 -0.115263
v 0.135535 0.102355 -0.090561
v 0.150598 0.102355 -0.062380
v 0.159874 0.102355 -0.031801
v 0.163006 0.102355 0.000000
v 0.159874 0.102355 0.031801
v 0.150598 0.102355 0.062380
v 0.135535 0.102355 0.090561
v 0.115263 0.102355 0.115263
v 0.090561 0.102355 0.135535
v 0.062380 0.102355 0.150598
v 0.031801 0.102355 0.159874
v -0.000000 0.102355 0.163006
v -0.031801 0.102355 0.159874
v -0.062380 0.102355 0.150598
v -0.090561 0.102355 0.135535
v -0.115263 0.102355 0.115263
v -0.135535 0.102355 0.090561
v -0.150598 0.102355 0.062380
v -0.159874 0.102355 0.031801
v -0.163006 0.102355 -0.000000
v -0.159874 0.102355 -0.031801
v -0.150598 0.102355 -0.062380
v -0.135535 0.102355 -0.090561
v -0.115263 0.102355 -0.115263
v -0.090561 0.102355 -0.135535
v -0.062380 0.102355 -0.150598
v -0.031801 0.102355 -0.159874
v 0.104284 0.177565 0.104285
v 0.113610 0.177565 0.069843
v 0.119977 0.177565 0.035227
v 0.122191 0.177565 0.000001
v 0.119977 0.177565 -0.035225
v 0.113610 0.177565 -0.069840
v 0.104284 0.177565 -0.104283
v 0.069841 0.177565 0.113611
v 0.074697 0.177565 0.074698
v 0.078272 0.177565 0.037328
v 0.079545 0.177565 0.000001
v 0.078272 0.177565 -0.037326
v 0.074697 0.177565 -0.074696
v 0.069841 0.177565 -0.113608
v 0.035226 0.177565 0.119978
v 0.037327 0.177565 0.078273
v 0.038938 0.177565 0.038939
v 0.039520 0.177565 0.000001
v 0.038938 0.177565 -0.038937
v 0.037327 0.177565 -0.078271
v 0.035226 0.177565 -0.119976
v -0.000000 0.177565 0.122192
v -0.000000 0.177565 0.079546
v -0.000000 0.177565 0.039521
v -0.000000 0.177565 0.000001
v -0.000000 0.177565 -0.039519
v -0.000000 0.177565 -0.079544
v -0.000000 0.177565 -0.122190
v -0.035226 0.177565 0.119978
v -0.037327 0.177565 0.078273
v -0.038938 0.177565 0.038939
v -0.039520 0.177565 0.000001
v -0.038938 0.177565 -0.038937
v -0.037327 0.177565 -0.078271
v -0.035226 0.177565 -0.119976
v -0.069841 0.177565 0.113611
v -0.074697 0.177565 0.074698
v -0.078272 0.177565 0.037328
v -0.079545 0.177565 0.000001
v -0.078272 0.177565 -0.037326
v -0.074697 0.177565 -0.074696
v -0.069841 0.177565 -0.113608
v -0.104284 0.177565 0.104285
v -0.113610 0.177565 0.069843
v -0.119977 0.177565 0.035227
v -0.122191 0.177565 0.000001
v -0.119977 0.177565 -0.035225
v -0.113610 0.177565 -0.069840
v -0.104284 0.177565 -0.104283
v 0.096106 0.102355 -0.096106
v 0.064365 0.102355 -0.104701
v 0.032464 0.102355 -0.110569
v -0.000000 0.102355 -0.112609
v -0.032464 0.102355 -0.110569
v -0.064365 0.102355 -0.104701
v -0.096106 0.102355 -0.096106
v 0.104701 0.102355 -0.064365
v 0.068839 0.102355 -0.068839
v 0.034400 0.102355 -0.072134
v -0.000000 0.102355 -0.073307
v -0.034400 0.102355 -0.072134
v -0.068839 0.102355 -0.068839
v -0.104701 0.102355 -0.064365
v 0.110569 0.102355 -0.032464
v 0.072134 0.102355 -0.034400
v 0.035885 0.102355 -0.035885
v -0.000000 0.102355 -0.036421
v -0.035885 0.102355 -0.035885
v -0.072134 0.102355 -0.034400
v -0.110569 0.102355 -0.032464
v 0.112609 0.102355 0.000000
v 0.073307 0.102355 0.000000
v 0.036421 0.102355 0.000000
v -0.000000 0.102355 0.000000
v -0.036421 0.102355 -0.000000
v -0.073307 0.102355 -0.000000
v -0.112609 0.102355 -0.000000
v 0.110569 0.102355 0.032464
v 0.072134 0.102355 0.034400
v 0.035885 0.102355 0.035885
v -0.000000 0.102355 0.036421
v -0.035885 0.102355 0.035885
v -0.072134 0.102355 0.034400
v -0.110569 0.102355 0.032464
v 0.104701 0.102355 0.064365
v 0.068839 0.102355 0.068839
v 0.034400 0.102355 0.072134
v -0.000000 0.102355 0.073307
v -0.034400 0.102355 0.072134
v -0.068839 0.102355 0.068839
v -0.104701 0.102355 0.064365
v 0.096106 0.102355 0.096106
v 0.064365 0.102355 0.104701
v 0.032464 0.102355 0.110569
v -0.000000 0.102355 0.112609
v -0.032464 0.102355 0.110569
v -0.064365 0.102355 0.104701
v -0.096106 0.102355 0.096106
v 0.151800 0.177565 0.090154
v 0.124514 0.177565 0.124731
v 0.168102 0.177565 0.049234
v 0.137343 0.346805 0.081786
v 0.117611 0.346805 0.107251
v 0.149530 0.346805 0.051966
v 0.139304 0.177565 0.107904
v 0.128615 0.346805 0.094976
v 0.161099 0.177565 0.070156
v 0.144575 0.346805 0.067334
v 0.137229 0.177565 0.081727
v 0.111925 0.177565 0.113560
v 0.152114 0.177565 0.043976
v 0.122884 0.346805 0.073425
v 0.105121 0.346805 0.096166
v 0.133666 0.346805 0.046749
v 0.126051 0.177565 0.097528
v 0.115448 0.346805 0.084703
v 0.145479 0.177565 0.063885
v 0.129087 0.346805 0.061084
v -0.000042 0.177527 -0.176526
v 0.043546 0.177527 -0.170184
v -0.043631 0.177527 -0.170184
v -0.000074 0.346767 -0.158813
v 0.031845 0.346767 -0.154458
v -0.031993 0.346767 -0.154458
v 0.021578 0.177527 -0.174579
v 0.015713 0.346767 -0.157850
v -0.022010 0.177527 -0.174579
v -0.016206 0.346767 -0.157850
v -0.000054 0.177527 -0.159693
v 0.040165 0.177527 -0.153696
v -0.040190 0.177527 -0.153708
v -0.000085 0.346767 -0.142111
v 0.028491 0.346767 -0.138098
v -0.028578 0.346767 -0.138110
v 0.019218 0.177527 -0.157913
v 0.013400 0.346767 -0.141310
v -0.019631 0.177527 -0.157916
v -0.013874 0.346767 -0.141312
v -0.151800 0.177493 0.090398
v -0.168101 0.177493 0.049479
v -0.124513 0.177493 0.124976
v -0.137311 0.346733 0.082086
v -0.149499 0.346733 0.052266
v -0.117580 0.346733 0.107551
v -0.160924 0.177493 0.070701
v -0.144370 0.346733 0.067933
v -0.139130 0.177493 0.108450
v -0.128411 0.346733 0.095575
v -0.137216 0.177493 0.081992
v -0.152132 0.177493 0.044162
v -0.111965 0.177493 0.113758
v -0.122841 0.346733 0.074755
v -0.133653 0.346733 0.046991
v -0.105129 0.346733 0.097430
v -0.145311 0.177493 0.064412
v -0.128890 0.346733 0.062676
v -0.125889 0.177493 0.098058
v -0.115255 0.346733 0.086297
vn -0.1791 0.1107 0.9776
vn -0.1802 -0.0000 0.9836
vn 0.1595 -0.0000 0.9872
vn 0.1587 0.1113 0.9810
vn -0.4693 0.1106 0.8761
vn -0.4721 -0.0000 0.8815
vn -0.0000 0.1105 -0.9939
vn -0.0000 -0.0000 -1.0000
vn -0.2685 -0.0000 -0.9633
vn -0.2669 0.1105 -0.9574
vn -0.5241 0.1106 -0.8445
vn -0.5274 -0.0000 -0.8496
vn -0.7618 -0.0000 -0.6479
vn -0.7570 0.1107 -0.6439
vn -0.8604 0.1138 -0.4968
vn -0.8660 -0.0000 -0.5000
vn -0.6866 -0.0000 -0.7271
vn -0.6826 0.1109 -0.7224
vn -0.1180 0.9857 0.1204
vn -0.0322 0.9977 0.0601
vn -0.0000 1.0000 -0.0000
vn -0.0918 0.9944 0.0530
vn -0.9934 0.1106 -0.0316
vn -0.9995 -0.0000 -0.0318
vn -0.9685 -0.0000 0.2491
vn -0.9626 0.1105 0.2475
vn -0.9362 0.1107 -0.3337
vn -0.9420 -0.0000 -0.3357
vn -0.0000 0.1138 0.9935
vn -0.0000 -0.0000 1.0000
vn -0.2863 -0.0000 0.9581
vn -0.2843 0.1109 0.9523
vn 0.0359 0.9977 -0.0579
vn 0.0452 0.9857 -0.1624
vn -0.0000 0.9944 -0.1060
vn -0.6957 0.1105 0.7098
vn -0.7000 -0.0000 0.7141
vn -0.8660 -0.0000 0.5000
vn -0.8607 0.1105 0.4969
vn -0.9669 0.1109 -0.2299
vn -0.9729 -0.0000 -0.2311
vn -0.1587 0.1113 0.9810
vn -0.1595 -0.0000 0.9872
vn 0.1802 -0.0000 0.9836
vn 0.1791 0.1107 0.9776
vn 0.4721 -0.0000 0.8815
vn 0.4693 0.1106 0.8761
vn 0.0063 1.0000 -0.0036
vn 0.0137 0.9999 -0.0033
vn 0.7570 0.1107 -0.6439
vn 0.7617 -0.0000 -0.6479
vn 0.5274 -0.0000 -0.8496
vn 0.5241 0.1106 -0.8445
vn 0.0098 0.9999 -0.0103
vn 0.9362 0.1107 -0.3337
vn 0.9420 -0.0000 -0.3357
vn 0.7752 -0.0000 -0.6317
vn 0.7702 0.1113 -0.6280
vn 0.9626 0.1105 0.2475
vn 0.9685 -0.0000 0.2491
vn 0.9995 -0.0000 -0.0318
vn 0.9934 0.1106 -0.0316
vn 0.2843 0.1109 0.9523
vn 0.2863 -0.0000 0.9581
vn 0.2685 -0.0000 -0.9633
vn 0.2669 0.1105 -0.9574
vn 0.6998 -0.0000 0.7143
vn 0.6957 0.1105 0.7098
vn 0.8607 0.1105 0.4969
vn 0.8660 -0.0000 0.5000
vn 0.6826 0.1109 -0.7224
vn 0.6866 -0.0000 -0.7271
vn 0.8660 -0.0000 -0.5000
vn 0.8604 0.1138 -0.4968
vn -0.0000 -1.0000 -0.0000
vn 0.0268 0.9996 -0.0101
vn 0.0304 0.9992 -0.0259
vn -0.7752 -0.0000 -0.6317
vn -0.7702 0.1113 -0.6280
vn -0.0098 0.9999 -0.0103
vn -0.0221 0.9996 -0.0181
vn 0.9729 -0.0000 -0.2311
vn 0.9669 0.1110 -0.2299
vn -0.0377 0.9992 -0.0134
vn 0.1180 0.9857 0.1204
vn 0.0918 0.9944 0.0530
vn 0.0322 0.9977 0.0601
vn -0.0072 0.9992 0.0393
vn -0.0681 0.9977 -0.0021
vn 0.9347 -0.0000 -0.3555
vn 0.9290 0.1114 -0.3530
vn 0.0047 0.9996 0.0282
vn 0.0221 0.9996 -0.0181
vn -0.9290 0.1113 -0.3531
vn -0.9347 -0.0000 -0.3555
vn 0.0040 0.9999 0.0136
vn 0.0377 0.9992 -0.0134
vn 0.0681 0.9977 -0.0021
vn 0.0072 0.9992 0.0393
vn -0.0063 1.0000 -0.0036
vn -0.0047 0.9996 0.0282
vn -0.0359 0.9977 -0.0579
vn -0.0452 0.9857 -0.1624
vn 0.1633 0.9857 0.0420
vn -0.0040 0.9999 0.0136
vn -0.0304 0.9992 -0.0259
vn -0.0268 0.9996 -0.0101
vn -0.0000 1.0000 0.0073
vn -0.0137 0.9999 -0.0033
vn -0.1633 0.9857 0.0420
vn -0.6392 0.6747 0.3690
vn -0.5167 0.6746 0.5271
vn -0.3487 0.6746 0.6506
vn -0.1332 0.6746 0.7260
vn 0.1185 0.6776 0.7258
vn 0.2086 0.6799 0.7030
vn -0.0000 0.6747 -0.7381
vn -0.1982 0.6746 -0.7111
vn -0.3891 0.6746 -0.6273
vn -0.5622 0.6746 -0.4784
vn -0.6878 0.6776 -0.2602
vn -0.7131 0.6799 -0.1708
vn -0.5045 0.6799 -0.5321
vn -0.5693 0.6776 -0.4656
vn -0.6954 0.6746 -0.2476
vn -0.7378 0.6746 -0.0234
vn -0.7149 0.6746 0.1839
vn 0.6392 0.6747 0.3690
vn 0.5167 0.6746 0.5271
vn 0.7131 0.6799 -0.1709
vn 0.6237 0.6938 -0.3602
vn 0.3487 0.6746 0.6506
vn 0.1332 0.6746 0.7261
vn -0.1185 0.6776 0.7258
vn -0.2086 0.6799 0.7030
vn 0.1982 0.6746 -0.7111
vn 0.3891 0.6746 -0.6273
vn 0.5622 0.6746 -0.4784
vn 0.6878 0.6776 -0.2602
vn 0.5045 0.6799 -0.5321
vn 0.5693 0.6776 -0.4656
vn 0.6954 0.6746 -0.2476
vn 0.7378 0.6746 -0.0234
vn 0.7149 0.6746 0.1839
vn -0.0000 0.6938 0.7202
vn -0.6237 0.6938 -0.3601
vn -0.1932 0.1382 -0.9714
vn -0.1899 0.2303 -0.9544
vn -0.0000 0.2302 -0.9731
vn -0.0000 0.1382 -0.9904
vn 0.3790 0.1382 -0.9150
vn 0.3724 0.2302 -0.8991
vn 0.5406 0.2302 -0.8091
vn 0.5502 0.1382 -0.8235
vn 0.6881 0.2302 -0.6881
vn 0.7003 0.1382 -0.7003
vn 0.8091 0.2303 -0.5406
vn 0.8235 0.1382 -0.5502
vn 0.8991 0.2302 -0.3724
vn 0.9150 0.1382 -0.3790
vn 0.9544 0.2302 -0.1899
vn 0.9714 0.1382 -0.1932
vn 0.9731 0.2302 -0.0000
vn 0.9904 0.1382 -0.0000
vn 0.9544 0.2303 0.1898
vn 0.9714 0.1382 0.1932
vn 0.8991 0.2302 0.3724
vn 0.9150 0.1382 0.3790
vn 0.8091 0.2302 0.5406
vn 0.8235 0.1382 0.5502
vn 0.6881 0.2302 0.6881
vn 0.7003 0.1382 0.7003
vn 0.5406 0.2302 0.8091
vn 0.5502 0.1382 0.8235
vn 0.3724 0.2302 0.8991
vn 0.3790 0.1382 0.9150
vn 0.1899 0.2302 0.9544
vn 0.1932 0.1382 0.9714
vn -0.0000 0.2302 0.9731
vn -0.0000 0.1382 0.9904
vn -0.1899 0.2302 0.9544
vn -0.1932 0.1382 0.9714
vn -0.3724 0.2302 0.8991
vn -0.3790 0.1382 0.9150
vn -0.5406 0.2302 0.8091
vn -0.5502 0.1382 0.8235
vn -0.6881 0.2302 0.6881
vn -0.7003 0.1382 0.7003
vn -0.8091 0.2302 0.5406
vn -0.8235 0.1382 0.5502
vn -0.8991 0.2303 0.3724
vn -0.9150 0.1382 0.3790
vn -0.9544 0.2302 0.1899
vn -0.9714 0.1382 0.1932
vn -0.9731 0.2302 -0.0000
vn -0.9904 0.1382 -0.0000
vn -0.9544 0.2302 -0.1899
vn -0.9714 0.1382 -0.1932
vn -0.8991 0.2302 -0.3724
vn -0.9150 0.1382 -0.3790
vn -0.8091 0.2302 -0.5406
vn -0.8235 0.1382 -0.5502
vn -0.6881 0.2303 -0.6881
vn -0.7003 0.1382 -0.7003
vn -0.5406 0.2302 -0.8091
vn -0.5502 0.1382 -0.8235
vn -0.3724 0.2302 -0.8991
vn -0.3790 0.1382 -0.9150
vn 0.1898 0.2303 -0.9544
vn 0.1932 0.1382 -0.9714
vn 0.5536 -0.0849 0.8285
vn 0.3813 -0.0849 0.9205
vn -0.1132 -0.8146 -0.5689
vn -0.0000 -0.8146 -0.5801
vn -0.2220 -0.8146 -0.5359
vn -0.3223 -0.8146 -0.4823
vn -0.4102 -0.8146 -0.4102
vn -0.4823 -0.8146 -0.3223
vn -0.5359 -0.8146 -0.2220
vn -0.5689 -0.8146 -0.1132
vn -0.5801 -0.8146 -0.0000
vn -0.5689 -0.8146 0.1132
vn -0.5359 -0.8146 0.2220
vn -0.4823 -0.8146 0.3223
vn -0.4102 -0.8146 0.4102
vn -0.3223 -0.8146 0.4823
vn -0.2220 -0.8146 0.5359
vn -0.1132 -0.8146 0.5689
vn -0.0000 -0.8146 0.5801
vn 0.1132 -0.8146 0.5689
vn 0.2220 -0.8146 0.5359
vn 0.3223 -0.8146 0.4823
vn 0.4102 -0.8146 0.4102
vn 0.4823 -0.8146 0.3223
vn 0.5359 -0.8146 0.2220
vn 0.5689 -0.8146 0.1132
vn 0.5801 -0.8146 -0.0000
vn 0.5689 -0.8146 -0.1132
vn 0.5359 -0.8146 -0.2220
vn 0.4823 -0.8146 -0.3223
vn 0.4102 -0.8146 -0.4102
vn 0.3223 -0.8146 -0.4823
vn 0.2220 -0.8146 -0.5359
vn 0.1132 -0.8146 -0.5689
vn -0.0000 0.1385 -0.9904
vn 0.1932 0.1385 -0.9713
vn 0.3790 0.1385 -0.9150
vn 0.5502 0.1385 -0.8235
vn 0.7003 0.1385 -0.7003
vn 0.8235 0.1385 -0.5502
vn 0.9150 0.1385 -0.3790
vn 0.9713 0.1385 -0.1932
vn 0.9904 0.1385 -0.0000
vn 0.9713 0.1385 0.1932
vn 0.9150 0.1385 0.3790
vn 0.8235 0.1385 0.5502
vn 0.7003 0.1385 0.7003
vn 0.5502 0.1385 0.8235
vn 0.3790 0.1385 0.9150
vn 0.1932 0.1385 0.9713
vn -0.0000 0.1385 0.9904
vn -0.1932 0.1385 0.9713
vn -0.3790 0.1385 0.9150
vn -0.5502 0.1385 0.8235
vn -0.7003 0.1385 0.7003
vn -0.8235 0.1385 0.5502
vn -0.9150 0.1385 0.3790
vn -0.9713 0.1385 0.1932
vn -0.9904 0.1385 -0.0000
vn -0.9713 0.1385 -0.1932
vn -0.9150 0.1385 -0.3790
vn -0.8235 0.1385 -0.5502
vn -0.7003 0.1385 -0.7003
vn -0.5502 0.1385 -0.8235
vn -0.3790 0.1385 -0.9150
vn -0.1932 0.1385 -0.9713
vn -0.0000 0.9874 -0.1582
vn 0.0309 0.9874 -0.1552
vn 0.0605 0.9874 -0.1462
vn 0.0879 0.9874 -0.1315
vn 0.1119 0.9874 -0.1119
vn 0.1315 0.9874 -0.0879
vn 0.1462 0.9874 -0.0605
vn 0.1552 0.9874 -0.0309
vn 0.1582 0.9874 -0.0000
vn 0.1552 0.9874 0.0309
vn 0.1462 0.9874 0.0605
vn 0.1315 0.9874 0.0879
vn 0.1119 0.9874 0.1119
vn 0.0879 0.9874 0.1315
vn 0.0605 0.9874 0.1462
vn 0.0309 0.9874 0.1552
vn -0.0000 0.9874 0.1582
vn -0.0309 0.9874 0.1552
vn -0.0605 0.9874 0.1462
vn -0.0879 0.9874 0.1315
vn -0.1119 0.9874 0.1119
vn -0.1315 0.9874 0.0879
vn -0.1462 0.9874 0.0605
vn -0.1552 0.9874 0.0309
vn -0.1582 0.9874 -0.0000
vn -0.1552 0.9874 -0.0309
vn -0.1462 0.9874 -0.0605
vn -0.1315 0.9874 -0.0879
vn -0.1119 0.9874 -0.1119
vn -0.0879 0.9874 -0.1315
vn -0.0605 0.9874 -0.1462
vn -0.0309 0.9874 -0.1552
vn -0.0000 0.1097 -0.9940
vn 0.1939 0.1097 -0.9749
vn 0.3804 0.1097 -0.9183
vn 0.5522 0.1097 -0.8265
vn 0.7028 0.1097 -0.7028
vn 0.8265 0.1097 -0.5522
vn 0.9183 0.1097 -0.3804
vn 0.9749 0.1097 -0.1939
vn 0.9940 0.1097 -0.0000
vn 0.9749 0.1097 0.1939
vn 0.9183 0.1097 0.3804
vn 0.8265 0.1097 0.5522
vn 0.7028 0.1097 0.7028
vn 0.5522 0.1097 0.8265
vn 0.3804 0.1097 0.9183
vn 0.1939 0.1097 0.9749
vn -0.0000 0.1097 0.9940
vn -0.1939 0.1097 0.9749
vn -0.3804 0.1097 0.9183
vn -0.5522 0.1097 0.8265
vn -0.7028 0.1097 0.7028
vn -0.8265 0.1097 0.5522
vn -0.9183 0.1097 0.3804
vn -0.9749 0.1097 0.1939
vn -0.9940 0.1097 -0.0000
vn -0.9749 0.1097 -0.1939
vn -0.9183 0.1097 -0.3804
vn -0.8265 0.1097 -0.5522
vn -0.7028 0.1097 -0.7028
vn -0.5522 0.1097 -0.8265
vn -0.3804 0.1097 -0.9183
vn -0.1939 0.1097 -0.9749
vn -0.0000 0.7457 -0.6663
vn 0.1300 0.7457 -0.6535
vn -0.0000 0.9996 -0.0277
vn 0.0056 0.9996 -0.0282
vn 0.2550 0.7457 -0.6156
vn 0.0123 0.9995 -0.0297
vn 0.3702 0.7456 -0.5541
vn 0.0225 0.9992 -0.0336
vn 0.4712 0.7457 -0.4712
vn 0.0598 0.9964 -0.0598
vn 0.5540 0.7457 -0.3702
vn 0.0336 0.9992 -0.0224
vn 0.6156 0.7457 -0.2550
vn 0.0298 0.9995 -0.0123
vn 0.6535 0.7457 -0.1300
vn 0.0282 0.9996 -0.0056
vn 0.6663 0.7457 -0.0000
vn 0.0277 0.9996 -0.0000
vn 0.6535 0.7457 0.1300
vn 0.0282 0.9996 0.0056
vn 0.6156 0.7457 0.2550
vn 0.0297 0.9995 0.0123
vn 0.5540 0.7457 0.3702
vn 0.0337 0.9992 0.0224
vn 0.4712 0.7457 0.4712
vn 0.0598 0.9964 0.0598
vn 0.3702 0.7457 0.5540
vn 0.0224 0.9992 0.0336
vn 0.2550 0.7456 0.6156
vn 0.0123 0.9995 0.0298
vn 0.1300 0.7457 0.6535
vn 0.0056 0.9996 0.0282
vn -0.0000 0.7456 0.6664
vn -0.0000 0.9996 0.0277
vn -0.1300 0.7456 0.6536
vn -0.0057 0.9996 0.0282
vn -0.2550 0.7457 0.6156
vn -0.0123 0.9995 0.0297
vn -0.3702 0.7457 0.5540
vn -0.0225 0.9992 0.0336
vn -0.4712 0.7457 0.4712
vn -0.0598 0.9964 0.0598
vn -0.5540 0.7457 0.3702
vn -0.0336 0.9992 0.0224
vn -0.6156 0.7457 0.2550
vn -0.0298 0.9995 0.0122
vn -0.6535 0.7457 0.1300
vn -0.0282 0.9996 0.0056
vn -0.6663 0.7457 -0.0000
vn -0.0277 0.9996 -0.0000
vn -0.6536 0.7456 -0.1300
vn -0.0282 0.9996 -0.0056
vn -0.6156 0.7457 -0.2550
vn -0.0297 0.9995 -0.0123
vn -0.5540 0.7457 -0.3702
vn -0.0336 0.9992 -0.0225
vn -0.4712 0.7457 -0.4712
vn -0.0598 0.9964 -0.0598
vn -0.3702 0.7457 -0.5540
vn -0.0224 0.9992 -0.0336
vn -0.2550 0.7457 -0.6156
vn -0.0123 0.9995 -0.0298
vn -0.1300 0.7457 -0.6535
vn -0.0056 0.9996 -0.0282
vn -0.1343 -0.7253 0.6752
vn -0.0000 -0.7253 0.6884
vn -0.0000 -0.4195 0.9078
vn -0.1771 -0.4195 0.8903
vn -0.2634 -0.7253 0.6360
vn -0.3474 -0.4195 0.8387
vn -0.3825 -0.7253 0.5724
vn -0.5043 -0.4195 0.7548
vn -0.4868 -0.7253 0.4868
vn -0.6419 -0.4195 0.6419
vn -0.5724 -0.7253 0.3825
vn -0.7548 -0.4195 0.5043
vn -0.6360 -0.7253 0.2634
vn -0.8387 -0.4195 0.3474
vn -0.6751 -0.7254 0.1343
vn -0.8903 -0.4195 0.1771
vn -0.6884 -0.7254 -0.0000
vn -0.9078 -0.4195 -0.0000
vn -0.6752 -0.7253 -0.1343
vn -0.8903 -0.4195 -0.1771
vn -0.6360 -0.7253 -0.2634
vn -0.8387 -0.4195 -0.3474
vn -0.5724 -0.7253 -0.3825
vn -0.7548 -0.4195 -0.5043
vn -0.4868 -0.7253 -0.4868
vn -0.6419 -0.4195 -0.6419
vn -0.3824 -0.7254 -0.5724
vn -0.5043 -0.4195 -0.7548
vn -0.2634 -0.7253 -0.6360
vn -0.3474 -0.4195 -0.8387
vn -0.1343 -0.7253 -0.6752
vn -0.1771 -0.4195 -0.8903
vn -0.0000 -0.7254 -0.6884
vn -0.0000 -0.4195 -0.9078
vn 0.1343 -0.7253 -0.6752
vn 0.1771 -0.4195 -0.8903
vn 0.2634 -0.7253 -0.6360
vn 0.3474 -0.4195 -0.8387
vn 0.3824 -0.7254 -0.5724
vn 0.5043 -0.4195 -0.7548
vn 0.4867 -0.7254 -0.4867
vn 0.6419 -0.4195 -0.6419
vn 0.5724 -0.7254 -0.3824
vn 0.7548 -0.4195 -0.5043
vn 0.6360 -0.7253 -0.2634
vn 0.8387 -0.4195 -0.3474
vn 0.6752 -0.7253 -0.1343
vn 0.8903 -0.4195 -0.1771
vn 0.6884 -0.7253 -0.0000
vn 0.9078 -0.4195 -0.0000
vn 0.6752 -0.7253 0.1343
vn 0.8903 -0.4195 0.1771
vn 0.6360 -0.7253 0.2634
vn 0.8387 -0.4195 0.3474
vn 0.5724 -0.7254 0.3824
vn 0.7548 -0.4195 0.5043
vn 0.4868 -0.7253 0.4868
vn 0.6419 -0.4195 0.6419
vn 0.3825 -0.7253 0.5724
vn 0.5043 -0.4195 0.7548
vn 0.2634 -0.7253 0.6360
vn 0.3474 -0.4195 0.8387
vn 0.1343 -0.7253 0.6752
vn 0.1771 -0.4195 0.8903
vn -0.0693 -0.9348 0.3483
vn -0.0000 -0.9348 0.3551
vn -0.1359 -0.9348 0.3280
vn -0.1973 -0.9348 0.2952
vn -0.2511 -0.9348 0.2511
vn -0.2952 -0.9348 0.1973
vn -0.3280 -0.9348 0.1359
vn -0.3483 -0.9348 0.0693
vn -0.3551 -0.9348 -0.0000
vn -0.3483 -0.9348 -0.0693
vn -0.3280 -0.9348 -0.1359
vn -0.2952 -0.9348 -0.1973
vn -0.2511 -0.9348 -0.2511
vn -0.1973 -0.9348 -0.2952
vn -0.1359 -0.9348 -0.3280
vn -0.0693 -0.9348 -0.3483
vn -0.0000 -0.9348 -0.3551
vn 0.0693 -0.9348 -0.3483
vn 0.1359 -0.9348 -0.3280
vn 0.1973 -0.9348 -0.2952
vn 0.2511 -0.9348 -0.2511
vn 0.2952 -0.9348 -0.1973
vn 0.3280 -0.9348 -0.1359
vn 0.3483 -0.9348 -0.0693
vn 0.3551 -0.9348 -0.0000
vn 0.3483 -0.9348 0.0693
vn 0.3280 -0.9348 0.1359
vn 0.2952 -0.9348 0.1973
vn 0.2511 -0.9348 0.2511
vn 0.1973 -0.9348 0.2952
vn 0.1359 -0.9348 0.3280
vn 0.0693 -0.9348 0.3483
vn -0.0000 -0.0849 -0.9964
vn 0.1944 -0.0849 -0.9772
vn -0.5536 -0.0849 0.8285
vn -0.7046 -0.0849 0.7046
vn 0.1944 -0.0849 0.9772
vn 0.3813 -0.0849 -0.9205
vn -0.8285 -0.0849 0.5536
vn -0.0000 -0.0849 0.9964
vn 0.5536 -0.0849 -0.8285
vn -0.9205 -0.0849 0.3813
vn 0.7046 -0.0849 -0.7046
vn -0.9772 -0.0849 0.1944
vn 0.8285 -0.0849 -0.5536
vn -0.9964 -0.0849 -0.0000
vn 0.9205 -0.0849 -0.3813
vn -0.9772 -0.0849 -0.1944
vn 0.9772 -0.0849 -0.1944
vn -0.9205 -0.0849 -0.3813
vn 0.9964 -0.0849 -0.0000
vn -0.8285 -0.0849 -0.5536
vn 0.9772 -0.0849 0.1944
vn -0.7046 -0.0849 -0.7046
vn 0.9205 -0.0849 0.3813
vn -0.5536 -0.0849 -0.8285
vn 0.8285 -0.0849 0.5536
vn -0.3813 -0.0849 -0.9205
vn -0.1944 -0.0849 0.9772
vn 0.7046 -0.0849 0.7046
vn -0.1944 -0.0849 -0.9772
vn -0.3813 -0.0849 0.9205
vn 0.9232 0.0974 0.3718
vn 0.9452 0.0981 0.3115
vn 0.9232 0.0974 0.3719
vn 0.7838 0.0974 0.6134
vn 0.8620 0.0967 0.4976
vn 0.8620 0.0967 0.4975
vn 0.7836 0.0974 0.6135
vn 0.7447 0.0980 0.6601
vn -0.9247 -0.0967 -0.3683
vn -0.9246 -0.0967 -0.3684
vn -0.9458 -0.0974 -0.3097
vn -0.7813 -0.0967 -0.6166
vn -0.7814 -0.0967 -0.6165
vn -0.8620 -0.0959 -0.4977
vn -0.8619 -0.0959 -0.4979
vn -0.7437 -0.0973 -0.6614
vn 0.3120 0.0496 -0.9488
vn -0.6629 0.0501 0.7470
vn -0.1395 0.1032 -0.9848
vn -0.2027 0.1038 -0.9737
vn 0.1397 0.1032 -0.9848
vn 0.0002 0.1025 -0.9947
vn 0.0001 0.1025 -0.9947
vn 0.1395 0.1032 -0.9848
vn 0.1992 0.1038 -0.9745
vn 0.1433 -0.1025 0.9844
vn 0.1431 -0.1025 0.9844
vn 0.2046 -0.1031 0.9734
vn -0.1433 -0.1025 0.9844
vn -0.1431 -0.1025 0.9844
vn -0.0002 -0.1018 0.9948
vn -0.2008 -0.1031 0.9742
vn -0.9777 0.0483 0.2042
vn 0.9784 0.0490 0.2006
vn -0.7836 0.0974 0.6136
vn -0.7423 0.0980 0.6628
vn -0.7838 0.0974 0.6134
vn -0.9233 0.0974 0.3716
vn -0.8619 0.0967 0.4977
vn -0.9232 0.0974 0.3719
vn -0.9440 0.0980 0.3149
vn 0.7815 -0.0930 -0.6169
vn 0.7816 -0.0931 -0.6167
vn 0.7414 -0.0934 -0.6645
vn 0.9268 -0.0952 -0.3634
vn 0.9267 -0.0952 -0.3636
vn 0.8622 -0.0930 -0.4979
vn 0.9473 -0.0967 -0.3054
vn 0.6484 0.0494 0.7597
vn -0.3155 0.0503 -0.9476
vt 0.673900 0.298762
vt 0.677104 0.287256
vt 0.700120 0.296893
vt 0.694502 0.307251
vt 0.650846 0.295650
vt 0.650922 0.283615
vt 0.605449 0.534212
vt 0.599418 0.544716
vt 0.576915 0.527736
vt 0.585438 0.519169
vt 0.570455 0.499879
vt 0.559997 0.505832
vt 0.550058 0.481340
vt 0.561623 0.478361
vt 0.561100 0.422372
vt 0.548150 0.422788
vt 0.547472 0.412480
vt 0.560374 0.411529
vt 0.629161 0.308173
vt 0.650820 0.305128
vt 0.614138 0.326746
vt 0.608465 0.317073
vt 0.568908 0.343636
vt 0.558381 0.337652
vt 0.575192 0.315533
vt 0.583753 0.324083
vt 0.560221 0.365506
vt 0.548458 0.362462
vt 0.722654 0.326312
vt 0.728771 0.314886
vt 0.738037 0.319455
vt 0.732409 0.331105
vt 0.652830 0.537290
vt 0.631032 0.534510
vt 0.610196 0.525869
vt 0.615736 0.516120
vt 0.626647 0.298980
vt 0.623489 0.287315
vt 0.597531 0.298315
vt 0.603613 0.308790
vt 0.560744 0.433175
vt 0.548202 0.432896
vt 0.754117 0.340447
vt 0.760465 0.329938
vt 0.780864 0.345323
vt 0.772346 0.353988
vt 0.797389 0.366323
vt 0.786942 0.372448
vt 0.719268 0.504529
vt 0.709576 0.511600
vt 0.641377 0.470836
vt 0.669877 0.420500
vt 0.676259 0.543437
vt 0.679502 0.555146
vt 0.653055 0.558955
vt 0.652975 0.546847
vt 0.730069 0.499433
vt 0.726926 0.420500
vt 0.773304 0.485810
vt 0.781666 0.494337
vt 0.761811 0.509449
vt 0.755652 0.499405
vt 0.796743 0.444781
vt 0.808424 0.447879
vt 0.797910 0.473485
vt 0.787526 0.467402
vt 0.713476 0.320599
vt 0.719991 0.309876
vt 0.625496 0.555453
vt 0.628621 0.543764
vt 0.808139 0.391943
vt 0.796453 0.395082
vt 0.799766 0.419928
vt 0.811879 0.419899
vt 0.734606 0.509159
vt 0.740633 0.520162
vt 0.731905 0.525259
vt 0.725071 0.514250
vt 0.705939 0.644558
vt 0.664576 0.572916
vt 0.685567 0.565484
vt 0.724900 0.633611
vt 0.708563 0.565811
vt 0.742006 0.623735
vt 0.737955 0.732390
vt 0.733895 0.754284
vt 0.655230 0.754284
vt 0.655230 0.732383
vt 0.722115 0.774036
vt 0.655230 0.774036
vt 0.741212 0.723478
vt 0.655230 0.673271
vt 0.767299 0.609132
vt 0.777004 0.632876
vt 0.779848 0.657932
vt 0.755580 0.615898
vt 0.775448 0.681660
vt 0.764233 0.701738
vt 0.655230 0.574551
vt 0.703766 0.789710
vt 0.655230 0.789710
vt 0.680645 0.799774
vt 0.655230 0.803242
vt 0.731312 0.573864
vt 0.751588 0.588856
vt 0.747302 0.716200
vt 0.604520 0.644558
vt 0.585559 0.633611
vt 0.624892 0.565484
vt 0.645883 0.572916
vt 0.601896 0.565811
vt 0.568454 0.623735
vt 0.572504 0.732390
vt 0.576564 0.754284
vt 0.588345 0.774036
vt 0.569247 0.723477
vt 0.543160 0.609132
vt 0.554879 0.615898
vt 0.530611 0.657932
vt 0.533456 0.632876
vt 0.535011 0.681660
vt 0.546226 0.701738
vt 0.606693 0.789710
vt 0.629814 0.799774
vt 0.579147 0.573864
vt 0.558871 0.588856
vt 0.563158 0.716200
vt 0.692055 0.525910
vt 0.673545 0.534176
vt 0.622959 0.503394
vt 0.631089 0.489045
vt 0.545336 0.387818
vt 0.557610 0.388061
vt 0.571138 0.410270
vt 0.567505 0.387950
vt 0.629908 0.353578
vt 0.640529 0.371585
vt 0.723315 0.530998
vt 0.716046 0.520296
vt 0.621547 0.339364
vt 0.569599 0.367785
vt 0.787231 0.397621
vt 0.790166 0.419988
vt 0.778953 0.420065
vt 0.778738 0.377354
vt 0.671368 0.307925
vt 0.577258 0.348287
vt 0.703024 0.545175
vt 0.697098 0.534424
vt 0.689727 0.315725
vt 0.747831 0.420306
vt 0.750701 0.491032
vt 0.558672 0.456278
vt 0.546895 0.456592
vt 0.707322 0.329394
vt 0.764321 0.420172
vt 0.766636 0.479035
vt 0.779332 0.462640
vt 0.765682 0.360970
vt 0.572420 0.422204
vt 0.749265 0.349073
vt 0.578676 0.495163
vt 0.592141 0.512396
vt 0.787525 0.442361
vt 0.728116 0.341058
vt 0.570824 0.475973
vt 0.568398 0.456175
vt 0.717138 0.336199
vt 0.571435 0.434106
vt 0.590563 0.330799
vt 0.606162 0.313142
vt 0.627945 0.303775
vt 0.650821 0.300589
vt 0.672578 0.303521
vt 0.692086 0.311611
vt 0.710319 0.325242
vt 0.607943 0.529828
vt 0.588941 0.515648
vt 0.574744 0.497432
vt 0.566405 0.477126
vt 0.563656 0.456190
vt 0.566342 0.433586
vt 0.566014 0.410935
vt 0.562687 0.388039
vt 0.565097 0.366688
vt 0.573265 0.346052
vt 0.587311 0.327575
vt 0.794722 0.419959
vt 0.791649 0.396417
vt 0.712714 0.515706
vt 0.722066 0.509230
vt 0.782672 0.375013
vt 0.768884 0.357620
vt 0.751597 0.344856
vt 0.730102 0.336287
vt 0.629866 0.538938
vt 0.652890 0.541866
vt 0.674844 0.538624
vt 0.694541 0.530038
vt 0.732164 0.504104
vt 0.753085 0.495132
vt 0.769844 0.482285
vt 0.783262 0.464911
vt 0.791941 0.443507
vt 0.719810 0.331425
vt 0.566951 0.422279
vt 0.646861 0.053118
vt 0.646861 0.043707
vt 0.674773 0.043707
vt 0.674773 0.053118
vt 0.730598 0.053118
vt 0.730598 0.043707
vt 0.758510 0.043707
vt 0.758510 0.053118
vt 0.786422 0.043707
vt 0.786422 0.053118
vt 0.814334 0.043707
vt 0.814334 0.053118
vt 0.842246 0.043707
vt 0.842246 0.053118
vt 0.870158 0.043707
vt 0.870158 0.053118
vt 0.898071 0.043707
vt 0.898071 0.053118
vt 0.004881 0.053118
vt 0.004881 0.043707
vt 0.032793 0.043707
vt 0.032793 0.053118
vt 0.060705 0.043707
vt 0.060705 0.053118
vt 0.088618 0.043707
vt 0.088618 0.053118
vt 0.116530 0.043707
vt 0.116530 0.053118
vt 0.144442 0.043707
vt 0.144442 0.053118
vt 0.172354 0.043707
vt 0.172354 0.053118
vt 0.200266 0.043707
vt 0.200266 0.053118
vt 0.228178 0.043707
vt 0.228178 0.053118
vt 0.256091 0.043707
vt 0.256091 0.053118
vt 0.284003 0.043707
vt 0.284003 0.053118
vt 0.311915 0.043707
vt 0.311915 0.053118
vt 0.339827 0.043707
vt 0.339827 0.053118
vt 0.367739 0.043707
vt 0.367739 0.053118
vt 0.395652 0.043707
vt 0.395652 0.053118
vt 0.423564 0.043707
vt 0.423564 0.053118
vt 0.451476 0.043707
vt 0.451476 0.053118
vt 0.479388 0.043707
vt 0.479388 0.053118
vt 0.507301 0.043707
vt 0.507301 0.053118
vt 0.535212 0.043707
vt 0.535212 0.053118
vt 0.563124 0.043707
vt 0.563124 0.053118
vt 0.591037 0.043707
vt 0.591037 0.053118
vt 0.618949 0.043707
vt 0.618949 0.053118
vt 0.702686 0.043707
vt 0.702686 0.053118
vt 0.306050 0.131373
vt 0.278746 0.131373
vt 0.278746 0.065264
vt 0.306050 0.065264
vt 0.646861 0.058103
vt 0.674773 0.058103
vt 0.618949 0.058103
vt 0.591037 0.058103
vt 0.563124 0.058103
vt 0.535212 0.058103
vt 0.507300 0.058103
vt 0.479388 0.058103
vt 0.451476 0.058103
vt 0.423564 0.058103
vt 0.395652 0.058103
vt 0.367739 0.058103
vt 0.339827 0.058103
vt 0.311915 0.058103
vt 0.284003 0.058103
vt 0.256091 0.058103
vt 0.228178 0.058103
vt 0.200266 0.058103
vt 0.172354 0.058103
vt 0.144442 0.058103
vt 0.116530 0.058103
vt 0.088618 0.058103
vt 0.060705 0.058103
vt 0.032793 0.058103
vt 0.004881 0.058103
vt 0.870158 0.058102
vt 0.898071 0.058103
vt 0.842246 0.058103
vt 0.814334 0.058102
vt 0.786422 0.058103
vt 0.758510 0.058103
vt 0.730598 0.058103
vt 0.702686 0.058103
vt 0.252387 0.006970
vt 0.252387 0.024334
vt 0.221450 0.024334
vt 0.221450 0.006970
vt 0.190513 0.024334
vt 0.190513 0.006970
vt 0.159575 0.024334
vt 0.159575 0.006970
vt 0.128638 0.024334
vt 0.128638 0.006970
vt 0.097700 0.024334
vt 0.097700 0.006970
vt 0.066762 0.024334
vt 0.066762 0.006970
vt 0.035824 0.024334
vt 0.035824 0.006970
vt 0.004887 0.024334
vt 0.004887 0.006970
vt 0.994889 0.006970
vt 0.994889 0.024334
vt 0.963951 0.024334
vt 0.963951 0.006970
vt 0.933014 0.024334
vt 0.933014 0.006970
vt 0.902076 0.024334
vt 0.902076 0.006970
vt 0.871139 0.024334
vt 0.871139 0.006970
vt 0.840201 0.024334
vt 0.840201 0.006970
vt 0.809264 0.024334
vt 0.809264 0.006970
vt 0.778326 0.024334
vt 0.778326 0.006970
vt 0.747388 0.024334
vt 0.747388 0.006970
vt 0.716451 0.024334
vt 0.716451 0.006970
vt 0.685513 0.024334
vt 0.685513 0.006970
vt 0.654576 0.024334
vt 0.654576 0.006970
vt 0.623638 0.024334
vt 0.623638 0.006970
vt 0.592701 0.024334
vt 0.592701 0.006970
vt 0.561763 0.024334
vt 0.561763 0.006970
vt 0.530826 0.024334
vt 0.530825 0.006970
vt 0.499888 0.024334
vt 0.499888 0.006970
vt 0.468950 0.024334
vt 0.468950 0.006970
vt 0.438013 0.024334
vt 0.438013 0.006970
vt 0.407075 0.024334
vt 0.407075 0.006970
vt 0.376138 0.024334
vt 0.376138 0.006970
vt 0.345200 0.024334
vt 0.345200 0.006970
vt 0.314263 0.024334
vt 0.314263 0.006970
vt 0.283325 0.024334
vt 0.283325 0.006970
vt 0.252387 0.030608
vt 0.221450 0.030608
vt 0.190513 0.030608
vt 0.159575 0.030608
vt 0.128638 0.030608
vt 0.097700 0.030608
vt 0.066762 0.030608
vt 0.035824 0.030608
vt 0.004887 0.030608
vt 0.994889 0.030607
vt 0.963951 0.030607
vt 0.933014 0.030607
vt 0.902076 0.030607
vt 0.871139 0.030607
vt 0.840201 0.030607
vt 0.809264 0.030607
vt 0.778326 0.030607
vt 0.747388 0.030608
vt 0.716451 0.030608
vt 0.685513 0.030608
vt 0.654576 0.030608
vt 0.623638 0.030608
vt 0.592701 0.030608
vt 0.561763 0.030608
vt 0.530825 0.030608
vt 0.499888 0.030608
vt 0.468950 0.030608
vt 0.438013 0.030608
vt 0.407075 0.030608
vt 0.376138 0.030608
vt 0.345200 0.030608
vt 0.314263 0.030608
vt 0.283325 0.030608
vt 0.234664 0.172569
vt 0.234664 0.278117
vt 0.205934 0.278117
vt 0.205934 0.172569
vt 0.177203 0.278117
vt 0.177203 0.172569
vt 0.148473 0.278117
vt 0.148473 0.172569
vt 0.119742 0.278117
vt 0.119742 0.172569
vt 0.091012 0.278117
vt 0.091012 0.172569
vt 0.062281 0.278117
vt 0.062281 0.172569
vt 0.033551 0.278117
vt 0.033551 0.172569
vt 0.004820 0.273196
vt 0.004820 0.167647
vt 0.924193 0.172568
vt 0.924193 0.278117
vt 0.895463 0.278117
vt 0.895463 0.172568
vt 0.866733 0.278117
vt 0.866733 0.172568
vt 0.838002 0.278117
vt 0.838002 0.172568
vt 0.809272 0.278117
vt 0.809272 0.172568
vt 0.780541 0.278117
vt 0.780541 0.172568
vt 0.751811 0.278117
vt 0.751811 0.172568
vt 0.723081 0.278117
vt 0.723081 0.172568
vt 0.694350 0.278117
vt 0.694350 0.172568
vt 0.665620 0.278117
vt 0.665620 0.172568
vt 0.636889 0.278117
vt 0.636889 0.172568
vt 0.608159 0.278117
vt 0.608159 0.172569
vt 0.579428 0.278117
vt 0.579428 0.172569
vt 0.550698 0.278117
vt 0.550698 0.172568
vt 0.521968 0.278117
vt 0.521968 0.172568
vt 0.493237 0.278117
vt 0.493237 0.172568
vt 0.464507 0.278117
vt 0.464507 0.172568
vt 0.435777 0.278117
vt 0.435777 0.172568
vt 0.407046 0.278117
vt 0.407046 0.172568
vt 0.378316 0.278117
vt 0.378316 0.172568
vt 0.349585 0.278117
vt 0.349585 0.172568
vt 0.320855 0.278117
vt 0.320855 0.172568
vt 0.292125 0.278117
vt 0.292125 0.172568
vt 0.263394 0.278117
vt 0.263394 0.172569
vt 0.674773 0.040339
vt 0.702686 0.040339
vt 0.674773 0.037025
vt 0.702686 0.037025
vt 0.730598 0.040339
vt 0.730598 0.037025
vt 0.758510 0.040339
vt 0.758510 0.037025
vt 0.786422 0.040339
vt 0.786422 0.037025
vt 0.814334 0.040339
vt 0.814334 0.037025
vt 0.842246 0.040339
vt 0.842246 0.037025
vt 0.870158 0.040339
vt 0.870158 0.037025
vt 0.898071 0.040339
vt 0.898071 0.037025
vt 0.004881 0.040339
vt 0.032793 0.040339
vt 0.004881 0.037025
vt 0.032793 0.037025
vt 0.060705 0.040339
vt 0.060705 0.037025
vt 0.088618 0.040339
vt 0.088618 0.037025
vt 0.116530 0.040339
vt 0.116530 0.037025
vt 0.144442 0.040339
vt 0.144442 0.037025
vt 0.172354 0.040339
vt 0.172354 0.037025
vt 0.200266 0.040339
vt 0.200266 0.037025
vt 0.228178 0.040339
vt 0.228178 0.037025
vt 0.256091 0.040339
vt 0.256091 0.037025
vt 0.284003 0.040339
vt 0.284003 0.037025
vt 0.311915 0.040339
vt 0.311915 0.037025
vt 0.339827 0.040339
vt 0.339827 0.037025
vt 0.367739 0.040339
vt 0.367739 0.037025
vt 0.395652 0.040339
vt 0.395652 0.037025
vt 0.423564 0.040339
vt 0.423564 0.037025
vt 0.451476 0.040339
vt 0.451476 0.037025
vt 0.479388 0.040339
vt 0.479388 0.037025
vt 0.507301 0.040339
vt 0.507300 0.037025
vt 0.535212 0.040339
vt 0.535212 0.037025
vt 0.563124 0.040339
vt 0.563124 0.037025
vt 0.591037 0.040339
vt 0.591037 0.037025
vt 0.618949 0.040339
vt 0.618949 0.037025
vt 0.646861 0.040339
vt 0.646861 0.037025
vt 0.196835 0.151292
vt 0.224138 0.151292
vt 0.224138 0.164353
vt 0.196835 0.164353
vt 0.169531 0.151292
vt 0.169531 0.164353
vt 0.142227 0.151292
vt 0.142227 0.164353
vt 0.114924 0.151292
vt 0.114924 0.164353
vt 0.087620 0.151292
vt 0.087620 0.164353
vt 0.060316 0.151292
vt 0.060316 0.164353
vt 0.033013 0.151292
vt 0.033013 0.164353
vt 0.005709 0.151292
vt 0.005709 0.164353
vt 0.852123 0.151292
vt 0.879427 0.151292
vt 0.879427 0.164353
vt 0.852123 0.164353
vt 0.824819 0.151292
vt 0.824819 0.164353
vt 0.797516 0.151292
vt 0.797516 0.164353
vt 0.770212 0.151292
vt 0.770212 0.164353
vt 0.742908 0.151292
vt 0.742908 0.164353
vt 0.715605 0.151292
vt 0.715605 0.164353
vt 0.688301 0.151292
vt 0.688301 0.164353
vt 0.660997 0.151292
vt 0.660997 0.164353
vt 0.633694 0.151292
vt 0.633694 0.164353
vt 0.606390 0.151292
vt 0.606390 0.164353
vt 0.579086 0.151292
vt 0.579086 0.164353
vt 0.551783 0.151292
vt 0.551783 0.164353
vt 0.524479 0.151292
vt 0.524479 0.164353
vt 0.497175 0.151292
vt 0.497175 0.164353
vt 0.469871 0.151292
vt 0.469871 0.164353
vt 0.442568 0.151292
vt 0.442568 0.164353
vt 0.415264 0.151292
vt 0.415264 0.164353
vt 0.387960 0.151292
vt 0.387960 0.164353
vt 0.360657 0.151292
vt 0.360657 0.164353
vt 0.333353 0.151292
vt 0.333353 0.164353
vt 0.306050 0.151292
vt 0.306050 0.164353
vt 0.278746 0.151292
vt 0.278746 0.164353
vt 0.251442 0.151292
vt 0.251442 0.164353
vt 0.196835 0.141360
vt 0.224138 0.141360
vt 0.169531 0.141360
vt 0.142227 0.141360
vt 0.114924 0.141360
vt 0.087620 0.141360
vt 0.060316 0.141360
vt 0.033013 0.141360
vt 0.005709 0.141360
vt 0.852123 0.141360
vt 0.879427 0.141360
vt 0.824819 0.141360
vt 0.797516 0.141360
vt 0.770212 0.141360
vt 0.742908 0.141360
vt 0.715605 0.141360
vt 0.688301 0.141360
vt 0.660997 0.141360
vt 0.633694 0.141360
vt 0.606390 0.141360
vt 0.579086 0.141360
vt 0.551783 0.141360
vt 0.524479 0.141360
vt 0.497175 0.141360
vt 0.469871 0.141360
vt 0.442568 0.141360
vt 0.415264 0.141360
vt 0.387960 0.141360
vt 0.360657 0.141360
vt 0.333353 0.141360
vt 0.306050 0.141360
vt 0.278746 0.141360
vt 0.251442 0.141360
vt 0.196835 0.131373
vt 0.224138 0.131373
vt 0.169531 0.131373
vt 0.142227 0.131373
vt 0.114924 0.131373
vt 0.087620 0.131373
vt 0.060316 0.131373
vt 0.033013 0.131373
vt 0.005709 0.131373
vt 0.852123 0.131373
vt 0.879427 0.131373
vt 0.824819 0.131373
vt 0.797516 0.131373
vt 0.770212 0.131373
vt 0.742908 0.131373
vt 0.715605 0.131373
vt 0.688301 0.131373
vt 0.660997 0.131373
vt 0.633694 0.131373
vt 0.606390 0.131373
vt 0.579086 0.131373
vt 0.551783 0.131373
vt 0.524479 0.131373
vt 0.497175 0.131373
vt 0.469871 0.131373
vt 0.442568 0.131373
vt 0.415264 0.131373
vt 0.387960 0.131373
vt 0.360657 0.131373
vt 0.333353 0.131373
vt 0.251442 0.131373
vt 0.633694 0.065264
vt 0.660997 0.065264
vt 0.114924 0.065264
vt 0.142227 0.065264
vt 0.251442 0.065264
vt 0.606390 0.065264
vt 0.087620 0.065264
vt 0.224138 0.065264
vt 0.579086 0.065264
vt 0.060316 0.065264
vt 0.551783 0.065264
vt 0.033013 0.065264
vt 0.524479 0.065264
vt 0.005709 0.065264
vt 0.497175 0.065264
vt 0.852123 0.065264
vt 0.879427 0.065264
vt 0.469871 0.065264
vt 0.824819 0.065264
vt 0.442568 0.065264
vt 0.797516 0.065264
vt 0.415264 0.065264
vt 0.770212 0.065264
vt 0.387960 0.065264
vt 0.742908 0.065264
vt 0.360657 0.065264
vt 0.715605 0.065264
vt 0.196835 0.065264
vt 0.333353 0.065264
vt 0.688301 0.065264
vt 0.169531 0.065264
vt 0.220058 0.539096
vt 0.224781 0.505513
vt 0.258363 0.500790
vt 0.241097 0.521829
vt 0.232101 0.478478
vt 0.271193 0.476787
vt 0.237099 0.451307
vt 0.279094 0.450742
vt 0.238836 0.423656
vt 0.281762 0.423656
vt 0.237099 0.396006
vt 0.279094 0.396571
vt 0.232101 0.368835
vt 0.271193 0.370526
vt 0.224781 0.341800
vt 0.258363 0.346522
vt 0.220058 0.308217
vt 0.241097 0.325483
vt 0.196055 0.551926
vt 0.197746 0.512833
vt 0.201557 0.482289
vt 0.204363 0.452956
vt 0.205363 0.423656
vt 0.204363 0.394357
vt 0.201557 0.365024
vt 0.197746 0.334479
vt 0.196055 0.295387
vt 0.170010 0.559826
vt 0.170574 0.517831
vt 0.172224 0.485095
vt 0.173488 0.454221
vt 0.173945 0.423656
vt 0.173488 0.393092
vt 0.172224 0.362218
vt 0.170574 0.329481
vt 0.170010 0.287487
vt 0.142924 0.562494
vt 0.142924 0.519569
vt 0.142924 0.486095
vt 0.142924 0.454677
vt 0.142924 0.423656
vt 0.142924 0.392636
vt 0.142924 0.361218
vt 0.142924 0.327744
vt 0.142924 0.284819
vt 0.115838 0.559826
vt 0.115274 0.517831
vt 0.113624 0.485095
vt 0.112360 0.454221
vt 0.111904 0.423656
vt 0.112360 0.393092
vt 0.113624 0.362218
vt 0.115274 0.329481
vt 0.115838 0.287487
vt 0.089793 0.551926
vt 0.088103 0.512833
vt 0.084292 0.482289
vt 0.081486 0.452956
vt 0.080486 0.423656
vt 0.081486 0.394357
vt 0.084292 0.365024
vt 0.088103 0.334479
vt 0.089793 0.295387
vt 0.065790 0.539096
vt 0.061067 0.505513
vt 0.053747 0.478478
vt 0.048749 0.451307
vt 0.047012 0.423656
vt 0.048749 0.396006
vt 0.053747 0.368835
vt 0.061067 0.341800
vt 0.065790 0.308217
vt 0.044751 0.521829
vt 0.027485 0.500790
vt 0.014655 0.476787
vt 0.006754 0.450742
vt 0.004087 0.423656
vt 0.006754 0.396571
vt 0.014655 0.370526
vt 0.027485 0.346522
vt 0.044751 0.325483
vt 0.323252 0.332515
vt 0.342642 0.316603
vt 0.338289 0.347552
vt 0.307340 0.351904
vt 0.364763 0.304779
vt 0.363205 0.340806
vt 0.388765 0.297498
vt 0.388245 0.336199
vt 0.413727 0.295039
vt 0.413727 0.334598
vt 0.438689 0.297498
vt 0.439209 0.336199
vt 0.462691 0.304779
vt 0.464249 0.340806
vt 0.484812 0.316603
vt 0.489165 0.347552
vt 0.504201 0.332515
vt 0.520113 0.351904
vt 0.331543 0.372467
vt 0.295516 0.374025
vt 0.359692 0.368954
vt 0.386725 0.366369
vt 0.413727 0.365447
vt 0.440729 0.366369
vt 0.467762 0.368954
vt 0.495911 0.372467
vt 0.531937 0.374025
vt 0.326937 0.397507
vt 0.288235 0.398028
vt 0.357106 0.395987
vt 0.385560 0.394822
vt 0.413727 0.394401
vt 0.441894 0.394822
vt 0.470348 0.395987
vt 0.500517 0.397507
vt 0.539218 0.398028
vt 0.325336 0.422989
vt 0.285777 0.422989
vt 0.356185 0.422989
vt 0.385139 0.422989
vt 0.413727 0.422989
vt 0.442315 0.422989
vt 0.471269 0.422989
vt 0.502118 0.422989
vt 0.541677 0.422989
vt 0.326937 0.448471
vt 0.288235 0.447951
vt 0.357106 0.449991
vt 0.385560 0.451156
vt 0.413727 0.451577
vt 0.441894 0.451156
vt 0.470348 0.449991
vt 0.500517 0.448471
vt 0.539218 0.447951
vt 0.331543 0.473511
vt 0.295517 0.471954
vt 0.359692 0.477024
vt 0.386725 0.479610
vt 0.413727 0.480531
vt 0.440729 0.479610
vt 0.467762 0.477024
vt 0.495911 0.473511
vt 0.531937 0.471954
vt 0.338289 0.498427
vt 0.307340 0.494074
vt 0.363205 0.505173
vt 0.388245 0.509779
vt 0.413727 0.511380
vt 0.439209 0.509779
vt 0.464249 0.505173
vt 0.489164 0.498427
vt 0.520113 0.494074
vt 0.342642 0.529376
vt 0.323252 0.513464
vt 0.364763 0.541199
vt 0.388765 0.548480
vt 0.413727 0.550939
vt 0.438689 0.548480
vt 0.462691 0.541199
vt 0.484812 0.529375
vt 0.504201 0.513464
vt 0.045234 0.704914
vt 0.027880 0.704914
vt 0.037157 0.571294
vt 0.049858 0.571294
vt 0.079660 0.704914
vt 0.062583 0.704914
vt 0.062571 0.571294
vt 0.075013 0.571294
vt 0.097282 0.704914
vt 0.087979 0.571294
vt 0.439775 0.704932
vt 0.435195 0.571528
vt 0.447012 0.571528
vt 0.456252 0.704932
vt 0.409136 0.704932
vt 0.413738 0.571528
vt 0.424347 0.571528
vt 0.424336 0.704932
vt 0.392358 0.704932
vt 0.401622 0.571528
vt 0.014826 0.704914
vt 0.024204 0.571294
vt 0.100933 0.571294
vt 0.110336 0.704914
vt 0.249552 0.704231
vt 0.232446 0.704231
vt 0.240820 0.572898
vt 0.253728 0.572898
vt 0.283493 0.704231
vt 0.266659 0.704231
vt 0.266646 0.572898
vt 0.279289 0.572898
vt 0.300867 0.704231
vt 0.292466 0.572898
vt 0.509804 0.704560
vt 0.505240 0.570916
vt 0.517041 0.570916
vt 0.526260 0.704221
vt 0.479205 0.704560
vt 0.483811 0.570916
vt 0.494407 0.570916
vt 0.494385 0.704704
vt 0.462448 0.704222
vt 0.471711 0.570916
vt 0.219627 0.704231
vt 0.227471 0.572898
vt 0.305816 0.572898
vt 0.313686 0.704231
vt 0.148029 0.704744
vt 0.130929 0.704744
vt 0.139676 0.571125
vt 0.152552 0.571125
vt 0.181962 0.704744
vt 0.165131 0.704744
vt 0.165439 0.571125
vt 0.178051 0.571125
vt 0.199335 0.704744
vt 0.191196 0.571125
vt 0.371688 0.705522
vt 0.367666 0.572111
vt 0.379498 0.572111
vt 0.388132 0.705199
vt 0.341100 0.705565
vt 0.346184 0.572111
vt 0.356806 0.572111
vt 0.356275 0.705672
vt 0.324352 0.705287
vt 0.333295 0.572111
vt 0.118103 0.704744
vt 0.126881 0.571125
vt 0.204513 0.571125
vt 0.212171 0.704744
s 1
f 112/1/1 19/2/2 20/3/3 109/4/4
f 115/5/5 18/6/6 19/2/2 112/1/1
f 90/7/7 23/8/8 24/9/9 103/10/10
f 100/11/11 25/12/12 26/13/13 97/14/14
f 67/15/15 17/16/16 29/17/17 69/18/18
f 117/19/19 114/20/20 7/21/21 73/22/22
f 82/23/23 32/24/24 33/25/25 85/26/26
f 79/27/27 31/28/28 32/24/24 82/23/23
f 64/29/29 14/30/30 48/31/31 156/32/32
f 103/10/10 24/9/9 25/12/12 100/11/11
f 151/33/33 153/34/34 91/35/35 4/36/21
f 118/37/36 16/38/37 18/6/6 115/5/5
f 85/26/26 33/25/25 15/39/38 72/40/39
f 72/40/39 15/39/38 16/38/37 118/37/36
f 88/41/40 28/42/41 17/16/16 67/15/15
f 159/43/42 47/44/43 46/45/44 162/46/45
f 162/46/45 46/45/44 45/47/46 165/48/47
f 124/49/48 120/50/49 1/51/21 6/52/21
f 147/53/50 52/54/51 51/55/52 150/56/53
f 126/57/54 124/49/48 6/52/21 10/58/21
f 135/59/55 57/60/56 56/61/57 132/62/58
f 141/63/59 59/64/60 58/65/61 138/66/62
f 138/66/62 58/65/61 57/60/56 135/59/55
f 106/67/63 21/68/64 14/30/30 64/29/29
f 150/56/53 51/55/52 50/69/65 154/70/66
f 154/70/66 50/69/65 23/8/8 90/7/7
f 165/48/47 45/47/46 43/71/67 168/72/68
f 130/73/69 42/74/70 59/64/60 141/63/59
f 168/72/68 43/71/67 42/74/70 130/73/69
f 127/75/71 55/76/72 44/77/73 123/78/74
f 22/79/75 21/80/75 20/81/75 39/82/75
f 19/83/75 38/84/75 39/82/75 20/81/75
f 28/85/75 27/86/75 40/87/75 36/88/75
f 27/86/75 26/89/75 41/90/75 40/87/75
f 17/91/75 28/85/75 36/88/75 35/92/75
f 15/93/75 33/94/75 32/95/75 37/96/75
f 37/96/75 32/95/75 31/97/75 38/84/75
f 38/84/75 31/97/75 30/98/75 39/82/75
f 35/92/75 14/99/75 21/80/75 22/79/75
f 26/89/75 25/100/75 34/101/75 41/90/75
f 25/100/75 24/102/75 23/103/75 34/101/75
f 18/104/75 37/96/75 38/84/75 19/83/75
f 16/105/75 15/93/75 37/96/75 18/104/75
f 29/106/75 22/79/75 39/82/75 30/98/75
f 29/106/75 17/91/75 35/92/75 22/79/75
f 49/107/75 62/108/75 47/109/75 48/110/75
f 46/111/75 47/109/75 62/108/75 61/112/75
f 54/113/75 36/88/75 40/87/75 53/114/75
f 53/114/75 40/87/75 41/90/75 52/115/75
f 44/116/75 35/92/75 36/88/75 54/113/75
f 42/117/75 60/118/75 58/119/75 59/120/75
f 60/118/75 61/112/75 57/121/75 58/119/75
f 61/112/75 62/108/75 56/122/75 57/121/75
f 35/92/75 49/107/75 48/110/75 14/99/75
f 52/115/75 41/90/75 34/101/75 51/123/75
f 51/123/75 34/101/75 23/103/75 50/124/75
f 45/125/75 46/111/75 61/112/75 60/118/75
f 43/126/75 45/125/75 60/118/75 42/117/75
f 55/127/75 56/122/75 62/108/75 49/107/75
f 55/127/75 49/107/75 35/92/75 44/116/75
f 145/128/76 148/129/77 3/130/21 2/131/21
f 69/18/18 29/17/17 30/132/78 76/133/79
f 120/50/49 145/128/76 2/131/21 1/51/21
f 70/134/80 75/135/81 9/136/21 5/137/21
f 123/78/74 44/77/73 54/138/82 121/139/83
f 8/140/21 9/136/21 75/135/81 78/141/84
f 169/142/85 129/143/86 11/144/21 166/145/87
f 114/20/20 111/146/88 8/140/21 7/21/21
f 7/21/21 8/140/21 78/141/84 81/147/89
f 121/139/83 54/138/82 53/148/90 144/149/91
f 111/146/88 108/150/92 9/136/21 8/140/21
f 126/57/54 10/58/21 13/151/21 133/152/93
f 94/153/94 27/154/95 28/42/41 88/41/40
f 132/62/58 56/61/57 55/76/72 127/75/71
f 5/137/21 9/136/21 108/150/92 105/155/96
f 12/156/21 136/157/97 133/152/93 13/151/21
f 76/133/79 30/132/78 31/28/28 79/27/27
f 11/144/21 139/158/98 136/157/97 12/156/21
f 166/145/87 11/144/21 12/156/21 163/159/99
f 70/134/80 5/137/21 6/52/21 66/160/100
f 144/149/91 53/148/90 52/54/51 147/53/50
f 163/159/99 12/156/21 13/151/21 160/161/101
f 97/14/14 26/13/13 27/154/95 94/153/94
f 99/162/102 4/36/21 91/35/35 102/163/103
f 129/143/86 142/164/104 139/158/98 11/144/21
f 10/58/21 157/165/105 160/161/101 13/151/21
f 109/4/4 20/3/3 21/68/64 106/67/63
f 96/166/106 3/130/21 4/36/21 99/162/102
f 93/167/107 2/131/21 3/130/21 96/166/106
f 6/52/21 5/137/21 105/155/96 63/168/108
f 156/32/32 48/31/31 47/44/43 159/43/42
f 87/169/109 1/51/21 2/131/21 93/167/107
f 73/22/22 7/21/21 81/147/89 84/170/110
f 148/129/77 151/33/33 4/36/21 3/130/21
f 66/160/100 6/52/21 1/51/21 87/169/109
f 73/22/22 74/171/111 119/172/112 117/19/19
f 74/171/111 72/40/39 118/37/36 119/172/112
f 117/19/19 119/172/112 116/173/113 114/20/20
f 119/172/112 118/37/36 115/5/5 116/173/113
f 114/20/20 116/173/113 113/174/114 111/146/88
f 116/173/113 115/5/5 112/1/1 113/174/114
f 111/146/88 113/174/114 110/175/115 108/150/92
f 113/174/114 112/1/1 109/4/4 110/175/115
f 108/150/92 110/175/115 107/176/116 105/155/96
f 110/175/115 109/4/4 106/67/63 107/176/116
f 91/35/35 92/177/117 104/178/118 102/163/103
f 92/177/117 90/7/7 103/10/10 104/178/118
f 102/163/103 104/178/118 101/179/119 99/162/102
f 104/178/118 103/10/10 100/11/11 101/179/119
f 99/162/102 101/179/119 98/180/120 96/166/106
f 101/179/119 100/11/11 97/14/14 98/180/120
f 96/166/106 98/180/120 95/181/121 93/167/107
f 98/180/120 97/14/14 94/153/94 95/181/121
f 93/167/107 95/181/121 89/182/122 87/169/109
f 95/181/121 94/153/94 88/41/40 89/182/122
f 70/134/80 71/183/123 77/184/124 75/135/81
f 71/183/123 69/18/18 76/133/79 77/184/124
f 75/135/81 77/184/124 80/185/125 78/141/84
f 77/184/124 76/133/79 79/27/27 80/185/125
f 78/141/84 80/185/125 83/186/126 81/147/89
f 80/185/125 79/27/27 82/23/23 83/186/126
f 81/147/89 83/186/126 86/187/127 84/170/110
f 83/186/126 82/23/23 85/26/26 86/187/127
f 84/170/110 86/187/127 74/171/111 73/22/22
f 86/187/127 85/26/26 72/40/39 74/171/111
f 130/73/69 131/188/128 170/189/129 168/72/68
f 131/188/128 129/143/86 169/142/85 170/189/129
f 121/139/83 122/190/130 125/191/131 123/78/74
f 122/190/130 120/50/49 124/49/48 125/191/131
f 168/72/68 170/189/129 167/192/132 165/48/47
f 170/189/129 169/142/85 166/145/87 167/192/132
f 165/48/47 167/192/132 164/193/133 162/46/45
f 167/192/132 166/145/87 163/159/99 164/193/133
f 162/46/45 164/193/133 161/194/134 159/43/42
f 164/193/133 163/159/99 160/161/101 161/194/134
f 159/43/42 161/194/134 158/195/135 156/32/32
f 161/194/134 160/161/101 157/165/105 158/195/135
f 154/70/66 155/196/136 152/197/137 150/56/53
f 155/196/136 153/34/34 151/33/33 152/197/137
f 150/56/53 152/197/137 149/198/138 147/53/50
f 152/197/137 151/33/33 148/129/77 149/198/138
f 147/53/50 149/198/138 146/199/139 144/149/91
f 149/198/138 148/129/77 145/128/76 146/199/139
f 127/75/71 128/200/140 134/201/141 132/62/58
f 128/200/140 126/57/54 133/152/93 134/201/141
f 132/62/58 134/201/141 137/202/142 135/59/55
f 134/201/141 133/152/93 136/157/97 137/202/142
f 135/59/55 137/202/142 140/203/143 138/66/62
f 137/202/142 136/157/97 139/158/98 140/203/143
f 138/66/62 140/203/143 143/204/144 141/63/59
f 140/203/143 139/158/98 142/164/104 143/204/144
f 141/63/59 143/204/144 131/188/128 130/73/69
f 143/204/144 142/164/104 129/143/86 131/188/128
f 90/7/7 92/177/117 155/196/136 154/70/66
f 92/177/117 91/35/35 153/34/34 155/196/136
f 105/155/96 107/176/116 65/205/145 63/168/108
f 107/176/116 106/67/63 64/29/29 65/205/145
f 87/169/109 89/182/122 68/206/146 66/160/100
f 89/182/122 88/41/40 67/15/15 68/206/146
f 66/160/100 68/206/146 71/183/123 70/134/80
f 68/206/146 67/15/15 69/18/18 71/183/123
f 123/78/74 125/191/131 128/200/140 127/75/71
f 125/191/131 124/49/48 126/57/54 128/200/140
f 144/149/91 146/199/139 122/190/130 121/139/83
f 146/199/139 145/128/76 120/50/49 122/190/130
f 156/32/32 158/195/135 65/205/145 64/29/29
f 158/195/135 157/165/105 63/168/108 65/205/145
f 6/52/21 63/168/108 157/165/105 10/58/21
f 234/207/147 425/208/148 332/209/149 203/210/150
f 205/211/151 338/212/152 341/213/153 206/214/154
f 206/214/154 341/213/153 344/215/155 207/216/156
f 207/216/156 344/215/155 347/217/157 208/218/158
f 208/218/158 347/217/157 350/219/159 209/220/160
f 209/220/160 350/219/159 353/221/161 210/222/162
f 210/222/162 353/221/161 356/223/163 211/224/164
f 211/225/164 356/226/163 359/227/165 212/228/166
f 212/228/166 359/227/165 362/229/167 213/230/168
f 213/230/168 362/229/167 365/231/169 214/232/170
f 214/232/170 365/231/169 368/233/171 215/234/172
f 215/234/172 368/233/171 371/235/173 216/236/174
f 216/236/174 371/235/173 374/237/175 217/238/176
f 217/238/176 374/237/175 377/239/177 218/240/178
f 218/240/178 377/239/177 380/241/179 219/242/180
f 219/242/180 380/241/179 383/243/181 220/244/182
f 220/244/182 383/243/181 386/245/183 221/246/184
f 221/246/184 386/245/183 389/247/185 222/248/186
f 222/248/186 389/247/185 392/249/187 223/250/188
f 223/250/188 392/249/187 395/251/189 224/252/190
f 224/252/190 395/251/189 398/253/191 225/254/192
f 225/254/192 398/253/191 401/255/193 226/256/194
f 226/256/194 401/255/193 404/257/195 227/258/196
f 227/258/196 404/257/195 407/259/197 228/260/198
f 228/260/198 407/259/197 410/261/199 229/262/200
f 229/262/200 410/261/199 413/263/201 230/264/202
f 230/264/202 413/263/201 416/265/203 231/266/204
f 231/266/204 416/265/203 419/267/205 232/268/206
f 232/268/206 419/267/205 422/269/207 233/270/208
f 233/270/208 422/269/207 425/208/148 234/207/147
f 203/210/150 332/209/149 335/271/209 204/272/210
f 204/272/210 335/271/209 338/212/152 205/211/151
f 200/273/211 201/274/212 553/275/212 552/276/211
f 330/277/213 234/207/213 203/210/214 299/278/214
f 329/279/215 233/270/215 234/207/213 330/277/213
f 328/280/216 232/268/216 233/270/215 329/279/215
f 327/281/217 231/266/217 232/268/216 328/280/216
f 326/282/218 230/264/218 231/266/217 327/281/217
f 325/283/219 229/262/219 230/264/218 326/282/218
f 324/284/220 228/260/220 229/262/219 325/283/219
f 323/285/221 227/258/221 228/260/220 324/284/220
f 322/286/222 226/256/222 227/258/221 323/285/221
f 321/287/223 225/254/223 226/256/222 322/286/222
f 320/288/224 224/252/224 225/254/223 321/287/223
f 319/289/225 223/250/225 224/252/224 320/288/224
f 318/290/226 222/248/226 223/250/225 319/289/225
f 317/291/227 221/246/227 222/248/226 318/290/226
f 316/292/228 220/244/228 221/246/227 317/291/227
f 315/293/229 219/242/229 220/244/228 316/292/228
f 314/294/230 218/240/230 219/242/229 315/293/229
f 313/295/231 217/238/231 218/240/230 314/294/230
f 312/296/232 216/236/232 217/238/231 313/295/231
f 311/297/233 215/234/233 216/236/232 312/296/232
f 310/298/234 214/232/234 215/234/233 311/297/233
f 309/299/235 213/230/235 214/232/234 310/298/234
f 308/300/236 212/228/236 213/230/235 309/299/235
f 307/301/237 211/225/237 212/228/236 308/300/236
f 306/302/238 210/222/238 211/224/237 307/303/237
f 305/304/239 209/220/239 210/222/238 306/302/238
f 304/305/240 208/218/240 209/220/239 305/304/239
f 303/306/241 207/216/241 208/218/240 304/305/240
f 302/307/242 206/214/242 207/216/241 303/306/241
f 301/308/243 205/211/243 206/214/242 302/307/242
f 300/309/244 204/272/244 205/211/243 301/308/243
f 299/278/214 203/210/214 204/272/244 300/309/244
f 427/310/245 266/311/245 235/312/246 428/313/246
f 428/313/246 235/312/246 236/314/247 429/315/247
f 429/315/247 236/314/247 237/316/248 430/317/248
f 430/317/248 237/316/248 238/318/249 431/319/249
f 431/319/249 238/318/249 239/320/250 432/321/250
f 432/321/250 239/320/250 240/322/251 433/323/251
f 433/323/251 240/322/251 241/324/252 434/325/252
f 434/325/252 241/324/252 242/326/253 435/327/253
f 435/328/253 242/329/253 243/330/254 436/331/254
f 436/331/254 243/330/254 244/332/255 437/333/255
f 437/333/255 244/332/255 245/334/256 438/335/256
f 438/335/256 245/334/256 246/336/257 439/337/257
f 439/337/257 246/336/257 247/338/258 440/339/258
f 440/339/258 247/338/258 248/340/259 441/341/259
f 441/341/259 248/340/259 249/342/260 442/343/260
f 442/343/260 249/342/260 250/344/261 443/345/261
f 443/345/261 250/344/261 251/346/262 444/347/262
f 444/347/262 251/346/262 252/348/263 445/349/263
f 445/349/263 252/348/263 253/350/264 446/351/264
f 446/351/264 253/350/264 254/352/265 447/353/265
f 447/353/265 254/352/265 255/354/266 448/355/266
f 448/355/266 255/354/266 256/356/267 449/357/267
f 449/357/267 256/356/267 257/358/268 450/359/268
f 450/359/268 257/358/268 258/360/269 451/361/269
f 451/361/269 258/360/269 259/362/270 452/363/270
f 452/363/270 259/362/270 260/364/271 453/365/271
f 453/365/271 260/364/271 261/366/272 454/367/272
f 454/367/272 261/366/272 262/368/273 455/369/273
f 455/369/273 262/368/273 263/370/274 456/371/274
f 456/371/274 263/370/274 264/372/275 457/373/275
f 457/373/275 264/372/275 265/374/276 458/375/276
f 458/375/276 265/374/276 266/311/245 427/310/245
f 266/311/277 267/376/277 268/377/278 235/312/278
f 235/312/278 268/377/278 269/378/279 236/314/279
f 236/314/279 269/378/279 270/379/280 237/316/280
f 237/316/280 270/379/280 271/380/281 238/318/281
f 238/318/281 271/380/281 272/381/282 239/320/282
f 239/320/282 272/381/282 273/382/283 240/322/283
f 240/322/283 273/382/283 274/383/284 241/324/284
f 241/324/284 274/383/284 275/384/285 242/326/285
f 242/329/285 275/385/285 276/386/286 243/330/286
f 243/330/286 276/386/286 277/387/287 244/332/287
f 244/332/287 277/387/287 278/388/288 245/334/288
f 245/334/288 278/388/288 279/389/289 246/336/289
f 246/336/289 279/389/289 280/390/290 247/338/290
f 247/338/290 280/390/290 281/391/291 248/340/291
f 248/340/291 281/391/291 282/392/292 249/342/292
f 249/342/292 282/392/292 283/393/293 250/344/293
f 250/344/293 283/393/293 284/394/294 251/346/294
f 251/346/294 284/394/294 285/395/295 252/348/295
f 252/348/295 285/395/295 286/396/296 253/350/296
f 253/350/296 286/396/296 287/397/297 254/352/297
f 254/352/297 287/397/297 288/398/298 255/354/298
f 255/354/298 288/398/298 289/399/299 256/356/299
f 256/356/299 289/399/299 290/400/300 257/358/300
f 257/358/300 290/400/300 291/401/301 258/360/301
f 258/360/301 291/401/301 292/402/302 259/362/302
f 259/362/302 292/402/302 293/403/303 260/364/303
f 260/364/303 293/403/303 294/404/304 261/366/304
f 261/366/304 294/404/304 295/405/305 262/368/305
f 262/368/305 295/405/305 296/406/306 263/370/306
f 263/370/306 296/406/306 297/407/307 264/372/307
f 264/372/307 297/407/307 298/408/308 265/374/308
f 265/374/308 298/408/308 267/376/277 266/311/277
f 267/409/309 299/410/309 300/411/310 268/412/310
f 268/412/310 300/411/310 301/413/311 269/414/311
f 269/414/311 301/413/311 302/415/312 270/416/312
f 270/416/312 302/415/312 303/417/313 271/418/313
f 271/418/313 303/417/313 304/419/314 272/420/314
f 272/420/314 304/419/314 305/421/315 273/422/315
f 273/422/315 305/421/315 306/423/316 274/424/316
f 274/424/316 306/423/316 307/425/317 275/426/317
f 275/427/317 307/428/317 308/429/318 276/430/318
f 276/430/318 308/429/318 309/431/319 277/432/319
f 277/432/319 309/431/319 310/433/320 278/434/320
f 278/434/320 310/433/320 311/435/321 279/436/321
f 279/436/321 311/435/321 312/437/322 280/438/322
f 280/438/322 312/437/322 313/439/323 281/440/323
f 281/440/323 313/439/323 314/441/324 282/442/324
f 282/442/324 314/441/324 315/443/325 283/444/325
f 283/444/325 315/443/325 316/445/326 284/446/326
f 284/446/326 316/445/326 317/447/327 285/448/327
f 285/448/327 317/447/327 318/449/328 286/450/328
f 286/450/328 318/449/328 319/451/329 287/452/329
f 287/452/329 319/451/329 320/453/330 288/454/330
f 288/454/330 320/453/330 321/455/331 289/456/331
f 289/456/331 321/455/331 322/457/332 290/458/332
f 290/458/332 322/457/332 323/459/333 291/460/333
f 291/460/333 323/459/333 324/461/334 292/462/334
f 292/462/334 324/461/334 325/463/335 293/464/335
f 293/464/335 325/463/335 326/465/336 294/466/336
f 294/466/336 326/465/336 327/467/337 295/468/337
f 295/468/337 327/467/337 328/469/338 296/470/338
f 296/470/338 328/469/338 329/471/339 297/472/339
f 297/472/339 329/471/339 330/473/340 298/474/340
f 298/474/340 330/473/340 299/410/309 267/409/309
f 335/271/209 332/209/149 333/475/341 336/476/342
f 336/476/342 333/475/341 331/477/343 334/478/344
f 338/212/152 335/271/209 336/476/342 339/479/345
f 339/479/345 336/476/342 334/478/344 337/480/346
f 341/213/153 338/212/152 339/479/345 342/481/347
f 342/481/347 339/479/345 337/480/346 340/482/348
f 344/215/155 341/213/153 342/481/347 345/483/349
f 345/483/349 342/481/347 340/482/348 343/484/350
f 347/217/157 344/215/155 345/483/349 348/485/351
f 348/485/351 345/483/349 343/484/350 346/486/352
f 350/219/159 347/217/157 348/485/351 351/487/353
f 351/487/353 348/485/351 346/486/352 349/488/354
f 353/221/161 350/219/159 351/487/353 354/489/355
f 354/489/355 351/487/353 349/488/354 352/490/356
f 356/223/163 353/221/161 354/489/355 357/491/357
f 357/491/357 354/489/355 352/490/356 355/492/358
f 359/227/165 356/226/163 357/493/357 360/494/359
f 360/494/359 357/493/357 355/495/358 358/496/360
f 362/229/167 359/227/165 360/494/359 363/497/361
f 363/497/361 360/494/359 358/496/360 361/498/362
f 365/231/169 362/229/167 363/497/361 366/499/363
f 366/499/363 363/497/361 361/498/362 364/500/364
f 368/233/171 365/231/169 366/499/363 369/501/365
f 369/501/365 366/499/363 364/500/364 367/502/366
f 371/235/173 368/233/171 369/501/365 372/503/367
f 372/503/367 369/501/365 367/502/366 370/504/368
f 374/237/175 371/235/173 372/503/367 375/505/369
f 375/505/369 372/503/367 370/504/368 373/506/370
f 377/239/177 374/237/175 375/505/369 378/507/371
f 378/507/371 375/505/369 373/506/370 376/508/372
f 380/241/179 377/239/177 378/507/371 381/509/373
f 381/509/373 378/507/371 376/508/372 379/510/374
f 383/243/181 380/241/179 381/509/373 384/511/375
f 384/511/375 381/509/373 379/510/374 382/512/376
f 386/245/183 383/243/181 384/511/375 387/513/377
f 387/513/377 384/511/375 382/512/376 385/514/378
f 389/247/185 386/245/183 387/513/377 390/515/379
f 390/515/379 387/513/377 385/514/378 388/516/380
f 392/249/187 389/247/185 390/515/379 393/517/381
f 393/517/381 390/515/379 388/516/380 391/518/382
f 395/251/189 392/249/187 393/517/381 396/519/383
f 396/519/383 393/517/381 391/518/382 394/520/384
f 398/253/191 395/251/189 396/519/383 399/521/385
f 399/521/385 396/519/383 394/520/384 397/522/386
f 401/255/193 398/253/191 399/521/385 402/523/387
f 402/523/387 399/521/385 397/522/386 400/524/388
f 404/257/195 401/255/193 402/523/387 405/525/389
f 405/525/389 402/523/387 400/524/388 403/526/390
f 407/259/197 404/257/195 405/525/389 408/527/391
f 408/527/391 405/525/389 403/526/390 406/528/392
f 410/261/199 407/259/197 408/527/391 411/529/393
f 411/529/393 408/527/391 406/528/392 409/530/394
f 413/263/201 410/261/199 411/529/393 414/531/395
f 414/531/395 411/529/393 409/530/394 412/532/396
f 416/265/203 413/263/201 414/531/395 417/533/397
f 417/533/397 414/531/395 412/532/396 415/534/398
f 419/267/205 416/265/203 417/533/397 420/535/399
f 420/535/399 417/533/397 415/534/398 418/536/400
f 422/269/207 419/267/205 420/535/399 423/537/401
f 423/537/401 420/535/399 418/536/400 421/538/402
f 425/208/148 422/269/207 423/537/401 426/539/403
f 426/539/403 423/537/401 421/538/402 424/540/404
f 332/209/149 425/208/148 426/539/403 333/475/341
f 333/475/341 426/539/403 424/540/404 331/477/343
f 460/541/75 459/542/75 427/543/75 428/544/75
f 461/545/75 460/541/75 428/544/75 429/546/75
f 462/547/75 461/545/75 429/546/75 430/548/75
f 463/549/75 462/547/75 430/548/75 431/550/75
f 464/551/75 463/549/75 431/550/75 432/552/75
f 465/553/75 464/551/75 432/552/75 433/554/75
f 466/555/75 465/553/75 433/554/75 434/556/75
f 467/557/75 466/555/75 434/556/75 435/558/75
f 468/559/75 467/560/75 435/561/75 436/562/75
f 469/563/75 468/559/75 436/562/75 437/564/75
f 470/565/75 469/563/75 437/564/75 438/566/75
f 471/567/75 470/565/75 438/566/75 439/568/75
f 472/569/75 471/567/75 439/568/75 440/570/75
f 473/571/75 472/569/75 440/570/75 441/572/75
f 474/573/75 473/571/75 441/572/75 442/574/75
f 475/575/75 474/573/75 442/574/75 443/576/75
f 476/577/75 475/575/75 443/576/75 444/578/75
f 477/579/75 476/577/75 444/578/75 445/580/75
f 478/581/75 477/579/75 445/580/75 446/582/75
f 479/583/75 478/581/75 446/582/75 447/584/75
f 480/585/75 479/583/75 447/584/75 448/586/75
f 481/587/75 480/585/75 448/586/75 449/588/75
f 482/589/75 481/587/75 449/588/75 450/590/75
f 483/591/75 482/589/75 450/590/75 451/592/75
f 484/593/75 483/591/75 451/592/75 452/594/75
f 485/595/75 484/593/75 452/594/75 453/596/75
f 486/597/75 485/595/75 453/596/75 454/598/75
f 487/599/75 486/597/75 454/598/75 455/600/75
f 488/601/75 487/599/75 455/600/75 456/602/75
f 489/603/75 488/601/75 456/602/75 457/604/75
f 490/605/75 489/603/75 457/604/75 458/606/75
f 459/542/75 490/605/75 458/606/75 427/543/75
f 492/607/405 491/608/406 459/542/407 460/541/408
f 493/609/409 492/607/405 460/541/408 461/545/410
f 494/610/411 493/609/409 461/545/410 462/547/412
f 495/611/413 494/610/411 462/547/412 463/549/414
f 496/612/415 495/611/413 463/549/414 464/551/416
f 497/613/417 496/612/415 464/551/416 465/553/418
f 498/614/419 497/613/417 465/553/418 466/555/420
f 499/615/421 498/614/419 466/555/420 467/557/422
f 500/616/423 499/617/421 467/560/422 468/559/424
f 501/618/425 500/616/423 468/559/424 469/563/426
f 502/619/427 501/618/425 469/563/426 470/565/428
f 503/620/429 502/619/427 470/565/428 471/567/430
f 504/621/431 503/620/429 471/567/430 472/569/432
f 505/622/433 504/621/431 472/569/432 473/571/434
f 506/623/435 505/622/433 473/571/434 474/573/436
f 507/624/437 506/623/435 474/573/436 475/575/438
f 508/625/439 507/624/437 475/575/438 476/577/440
f 509/626/441 508/625/439 476/577/440 477/579/442
f 510/627/443 509/626/441 477/579/442 478/581/444
f 511/628/445 510/627/443 478/581/444 479/583/446
f 512/629/447 511/628/445 479/583/446 480/585/448
f 513/630/449 512/629/447 480/585/448 481/587/450
f 514/631/451 513/630/449 481/587/450 482/589/452
f 515/632/453 514/631/451 482/589/452 483/591/454
f 516/633/455 515/632/453 483/591/454 484/593/456
f 517/634/457 516/633/455 484/593/456 485/595/458
f 518/635/459 517/634/457 485/595/458 486/597/460
f 519/636/461 518/635/459 486/597/460 487/599/462
f 520/637/463 519/636/461 487/599/462 488/601/464
f 521/638/465 520/637/463 488/601/464 489/603/466
f 522/639/467 521/638/465 489/603/466 490/605/468
f 491/608/406 522/639/467 490/605/468 459/542/407
f 172/640/469 171/641/470 491/608/406 492/607/405
f 173/642/471 172/640/469 492/607/405 493/609/409
f 174/643/472 173/642/471 493/609/409 494/610/411
f 175/644/473 174/643/472 494/610/411 495/611/413
f 176/645/474 175/644/473 495/611/413 496/612/415
f 177/646/475 176/645/474 496/612/415 497/613/417
f 178/647/476 177/646/475 497/613/417 498/614/419
f 179/648/477 178/647/476 498/614/419 499/615/421
f 180/649/478 179/650/477 499/617/421 500/616/423
f 181/651/479 180/649/478 500/616/423 501/618/425
f 182/652/480 181/651/479 501/618/425 502/619/427
f 183/653/481 182/652/480 502/619/427 503/620/429
f 184/654/482 183/653/481 503/620/429 504/621/431
f 185/655/483 184/654/482 504/621/431 505/622/433
f 186/656/484 185/655/483 505/622/433 506/623/435
f 187/657/485 186/656/484 506/623/435 507/624/437
f 188/658/486 187/657/485 507/624/437 508/625/439
f 189/659/487 188/658/486 508/625/439 509/626/441
f 190/660/488 189/659/487 509/626/441 510/627/443
f 191/661/489 190/660/488 510/627/443 511/628/445
f 192/662/490 191/661/489 511/628/445 512/629/447
f 193/663/491 192/662/490 512/629/447 513/630/449
f 194/664/492 193/663/491 513/630/449 514/631/451
f 195/665/493 194/664/492 514/631/451 515/632/453
f 196/666/494 195/665/493 515/632/453 516/633/455
f 197/667/495 196/666/494 516/633/455 517/634/457
f 198/668/496 197/667/495 517/634/457 518/635/459
f 199/669/497 198/668/496 518/635/459 519/636/461
f 200/273/498 199/669/497 519/636/461 520/637/463
f 201/274/499 200/273/498 520/637/463 521/638/465
f 202/670/500 201/274/499 521/638/465 522/639/467
f 171/641/470 202/670/500 522/639/467 491/608/406
f 187/657/501 188/658/502 540/671/502 539/672/501
f 174/643/503 175/644/504 527/673/504 526/674/503
f 201/274/212 202/670/505 554/675/505 553/275/212
f 188/658/502 189/659/506 541/676/506 540/671/502
f 175/644/504 176/645/507 528/677/507 527/673/504
f 202/670/505 171/641/508 523/678/508 554/675/505
f 189/659/506 190/660/509 542/679/509 541/676/506
f 176/645/507 177/646/510 529/680/510 528/677/507
f 190/660/509 191/661/511 543/681/511 542/679/509
f 177/646/510 178/647/512 530/682/512 529/680/510
f 191/661/511 192/662/513 544/683/513 543/681/511
f 178/647/512 179/648/514 531/684/514 530/682/512
f 192/662/513 193/663/515 545/685/515 544/683/513
f 179/650/514 180/649/516 532/686/516 531/687/514
f 193/663/515 194/664/517 546/688/517 545/685/515
f 180/649/516 181/651/518 533/689/518 532/686/516
f 194/664/517 195/665/519 547/690/519 546/688/517
f 181/651/518 182/652/520 534/691/520 533/689/518
f 195/665/519 196/666/521 548/692/521 547/690/519
f 182/652/520 183/653/522 535/693/522 534/691/520
f 196/666/521 197/667/523 549/694/523 548/692/521
f 183/653/522 184/654/524 536/695/524 535/693/522
f 197/667/523 198/668/525 550/696/525 549/694/523
f 184/654/524 185/655/526 537/697/526 536/695/524
f 171/641/508 172/640/527 524/698/527 523/678/508
f 198/668/525 199/669/528 551/699/528 550/696/525
f 185/655/526 186/656/529 538/700/529 537/697/526
f 172/640/527 173/642/530 525/701/530 524/698/527
f 199/669/528 200/273/211 552/276/211 551/699/528
f 186/656/529 187/657/501 539/672/501 538/700/529
f 173/642/530 174/643/503 526/674/503 525/701/530
f 364/702/364 555/703/21 370/704/368 367/705/366
f 555/703/21 562/706/21 373/707/370 370/704/368
f 562/706/21 569/708/21 376/709/372 373/707/370
f 569/708/21 576/710/21 379/711/374 376/709/372
f 576/710/21 583/712/21 382/713/376 379/711/374
f 583/712/21 590/714/21 385/715/378 382/713/376
f 590/714/21 597/716/21 388/717/380 385/715/378
f 597/716/21 394/718/384 391/719/382 388/717/380
f 361/720/362 556/721/21 555/703/21 364/702/364
f 556/721/21 563/722/21 562/706/21 555/703/21
f 563/722/21 570/723/21 569/708/21 562/706/21
f 570/723/21 577/724/21 576/710/21 569/708/21
f 577/724/21 584/725/21 583/712/21 576/710/21
f 584/725/21 591/726/21 590/714/21 583/712/21
f 591/726/21 598/727/21 597/716/21 590/714/21
f 598/727/21 397/728/386 394/718/384 597/716/21
f 358/729/360 557/730/21 556/721/21 361/720/362
f 557/730/21 564/731/21 563/722/21 556/721/21
f 564/731/21 571/732/21 570/723/21 563/722/21
f 571/732/21 578/733/21 577/724/21 570/723/21
f 578/733/21 585/734/21 584/725/21 577/724/21
f 585/734/21 592/735/21 591/726/21 584/725/21
f 592/735/21 599/736/21 598/727/21 591/726/21
f 599/736/21 400/737/388 397/728/386 598/727/21
f 355/738/358 558/739/21 557/730/21 358/729/360
f 558/739/21 565/740/21 564/731/21 557/730/21
f 565/740/21 572/741/21 571/732/21 564/731/21
f 572/741/21 579/742/21 578/733/21 571/732/21
f 579/742/21 586/743/21 585/734/21 578/733/21
f 586/743/21 593/744/21 592/735/21 585/734/21
f 593/744/21 600/745/21 599/736/21 592/735/21
f 600/745/21 403/746/390 400/737/388 599/736/21
f 352/747/356 559/748/21 558/739/21 355/738/358
f 559/748/21 566/749/21 565/740/21 558/739/21
f 566/749/21 573/750/21 572/741/21 565/740/21
f 573/750/21 580/751/21 579/742/21 572/741/21
f 580/751/21 587/752/21 586/743/21 579/742/21
f 587/752/21 594/753/21 593/744/21 586/743/21
f 594/753/21 601/754/21 600/745/21 593/744/21
f 601/754/21 406/755/392 403/746/390 600/745/21
f 349/756/354 560/757/21 559/748/21 352/747/356
f 560/757/21 567/758/21 566/749/21 559/748/21
f 567/758/21 574/759/21 573/750/21 566/749/21
f 574/759/21 581/760/21 580/751/21 573/750/21
f 581/760/21 588/761/21 587/752/21 580/751/21
f 588/761/21 595/762/21 594/753/21 587/752/21
f 595/762/21 602/763/21 601/754/21 594/753/21
f 602/763/21 409/764/394 406/755/392 601/754/21
f 346/765/352 561/766/21 560/757/21 349/756/354
f 561/766/21 568/767/21 567/758/21 560/757/21
f 568/767/21 575/768/21 574/759/21 567/758/21
f 575/768/21 582/769/21 581/760/21 574/759/21
f 582/769/21 589/770/21 588/761/21 581/760/21
f 589/770/21 596/771/21 595/762/21 588/761/21
f 596/771/21 603/772/21 602/763/21 595/762/21
f 603/772/21 412/773/396 409/764/394 602/763/21
f 343/774/350 340/775/348 561/766/21 346/765/352
f 340/775/348 337/776/346 568/767/21 561/766/21
f 337/776/346 334/777/344 575/768/21 568/767/21
f 334/777/344 331/778/343 582/769/21 575/768/21
f 331/778/343 424/779/404 589/770/21 582/769/21
f 424/779/404 421/780/402 596/771/21 589/770/21
f 421/780/402 418/781/400 603/772/21 596/771/21
f 418/781/400 415/782/398 412/773/396 603/772/21
f 527/783/75 528/784/75 604/785/75 526/786/75
f 528/784/75 529/787/75 611/788/75 604/785/75
f 529/787/75 530/789/75 618/790/75 611/788/75
f 530/789/75 531/791/75 625/792/75 618/790/75
f 531/791/75 532/793/75 632/794/75 625/792/75
f 532/793/75 533/795/75 639/796/75 632/794/75
f 533/795/75 534/797/75 646/798/75 639/796/75
f 534/797/75 535/799/75 536/800/75 646/798/75
f 526/786/75 604/785/75 605/801/75 525/802/75
f 604/785/75 611/788/75 612/803/75 605/801/75
f 611/788/75 618/790/75 619/804/75 612/803/75
f 618/790/75 625/792/75 626/805/75 619/804/75
f 625/792/75 632/794/75 633/806/75 626/805/75
f 632/794/75 639/796/75 640/807/75 633/806/75
f 639/796/75 646/798/75 647/808/75 640/807/75
f 646/798/75 536/800/75 537/809/75 647/808/75
f 525/802/75 605/801/75 606/810/75 524/811/75
f 605/801/75 612/803/75 613/812/75 606/810/75
f 612/803/75 619/804/75 620/813/75 613/812/75
f 619/804/75 626/805/75 627/814/75 620/813/75
f 626/805/75 633/806/75 634/815/75 627/814/75
f 633/806/75 640/807/75 641/816/75 634/815/75
f 640/807/75 647/808/75 648/817/75 641/816/75
f 647/808/75 537/809/75 538/818/75 648/817/75
f 524/811/75 606/810/75 607/819/75 523/820/75
f 606/810/75 613/812/75 614/821/75 607/819/75
f 613/812/75 620/813/75 621/822/75 614/821/75
f 620/813/75 627/814/75 628/823/75 621/822/75
f 627/814/75 634/815/75 635/824/75 628/823/75
f 634/815/75 641/816/75 642/825/75 635/824/75
f 641/816/75 648/817/75 649/826/75 642/825/75
f 648/817/75 538/818/75 539/827/75 649/826/75
f 523/820/75 607/819/75 608/828/75 554/829/75
f 607/819/75 614/821/75 615/830/75 608/828/75
f 614/821/75 621/822/75 622/831/75 615/830/75
f 621/822/75 628/823/75 629/832/75 622/831/75
f 628/823/75 635/824/75 636/833/75 629/832/75
f 635/824/75 642/825/75 643/834/75 636/833/75
f 642/825/75 649/826/75 650/835/75 643/834/75
f 649/826/75 539/827/75 540/836/75 650/835/75
f 554/829/75 608/828/75 609/837/75 553/838/75
f 608/828/75 615/830/75 616/839/75 609/837/75
f 615/830/75 622/831/75 623/840/75 616/839/75
f 622/831/75 629/832/75 630/841/75 623/840/75
f 629/832/75 636/833/75 637/842/75 630/841/75
f 636/833/75 643/834/75 644/843/75 637/842/75
f 643/834/75 650/835/75 651/844/75 644/843/75
f 650/835/75 540/836/75 541/845/75 651/844/75
f 553/838/75 609/837/75 610/846/75 552/847/75
f 609/837/75 616/839/75 617/848/75 610/846/75
f 616/839/75 623/840/75 624/849/75 617/848/75
f 623/840/75 630/841/75 631/850/75 624/849/75
f 630/841/75 637/842/75 638/851/75 631/850/75
f 637/842/75 644/843/75 645/852/75 638/851/75
f 644/843/75 651/844/75 652/853/75 645/852/75
f 651/844/75 541/845/75 542/854/75 652/853/75
f 552/847/75 610/846/75 550/855/75 551/856/75
f 610/846/75 617/848/75 549/857/75 550/855/75
f 617/848/75 624/849/75 548/858/75 549/857/75
f 624/849/75 631/850/75 547/859/75 548/858/75
f 631/850/75 638/851/75 546/860/75 547/859/75
f 638/851/75 645/852/75 545/861/75 546/860/75
f 645/852/75 652/853/75 544/862/75 545/861/75
f 652/853/75 542/854/75 543/863/75 544/862/75
f 661/864/531 655/865/532 658/866/532 662/867/533
f 659/868/534 653/869/535 656/870/536 660/871/537
f 654/872/538 659/868/534 660/871/537 657/873/538
f 653/869/535 661/864/531 662/867/533 656/870/536
f 671/874/539 672/875/540 668/876/541 665/877/541
f 669/878/542 670/879/543 666/880/544 663/881/545
f 664/882/546 667/883/546 670/879/543 669/878/542
f 663/881/545 666/880/544 672/875/540 671/874/539
f 658/866/547 655/865/547 665/884/547 668/885/547
f 654/872/548 657/873/548 667/886/548 664/887/548
f 681/888/549 675/889/550 678/890/550 682/891/549
f 679/892/551 673/893/552 676/894/553 680/895/554
f 674/896/555 679/892/551 680/895/554 677/897/555
f 673/893/552 681/888/549 682/891/549 676/894/553
f 691/898/556 692/899/557 688/900/558 685/901/558
f 689/902/559 690/903/560 686/904/561 683/905/561
f 684/906/562 687/907/562 690/903/560 689/902/559
f 683/905/561 686/904/561 692/899/557 691/898/556
f 678/890/563 675/889/563 685/908/563 688/909/563
f 674/896/564 677/897/564 687/910/564 684/911/564
f 701/912/565 695/913/566 698/914/566 702/915/567
f 699/916/568 693/917/569 696/918/569 700/919/570
f 694/920/571 699/916/568 700/919/570 697/921/571
f 693/917/569 701/912/565 702/915/567 696/918/569
f 711/922/572 712/923/573 708/924/574 705/925/574
f 709/926/575 710/927/576 706/928/577 703/929/577
f 704/930/578 707/931/578 710/927/576 709/926/575
f 703/929/577 706/928/577 712/923/573 711/922/572
f 698/914/579 695/913/579 705/932/579 708/933/579
f 694/920/580 697/921/580 707/934/580 704/935/580
