# Blender 4.0.2
# www.blender.org
o estate_sign_02
v -0.330818 0.855990 0.032194
v -0.330818 0.855990 -0.032194
v -0.266430 0.855990 0.032194
v -0.266430 0.855990 -0.032194
v -0.308632 0.883769 0.010007
v -0.308632 0.883769 -0.010007
v -0.288617 0.883769 -0.010007
v -0.288617 0.883769 0.010007
v 0.330818 0.855990 0.032194
v 0.330818 0.855990 -0.032194
v 0.266430 0.855990 0.032194
v 0.266430 0.855990 -0.032194
v 0.308632 0.883769 0.010007
v 0.308632 0.883769 -0.010007
v 0.288617 0.883769 -0.010007
v 0.288617 0.883769 0.010007
v -0.330818 0.016662 0.032194
v -0.330818 0.016662 -0.032194
v -0.266430 0.016662 -0.032194
v -0.266430 0.016662 0.032194
v -0.334260 0.014886 -0.035636
v -0.262989 0.014886 -0.035636
v -0.262989 0.014886 0.035636
v -0.334260 0.014886 0.035636
v -0.334260 0.003926 -0.035636
v -0.262989 0.003926 -0.035636
v -0.262989 0.003926 0.035636
v -0.334260 0.003926 0.035636
v -0.354349 -0.000000 -0.055725
v -0.354349 -0.000000 0.055725
v -0.354349 0.003926 -0.055725
v -0.242899 -0.000000 -0.055725
v -0.242899 0.003926 -0.055725
v -0.242899 -0.000000 0.055725
v -0.242899 0.003926 0.055725
v -0.354349 0.003926 0.055725
v 0.330818 0.016662 0.032194
v 0.330818 0.016662 -0.032194
v 0.266430 0.016662 -0.032194
v 0.266430 0.016662 0.032194
v 0.334260 0.014886 -0.035636
v 0.262989 0.014886 -0.035636
v 0.262989 0.014886 0.035636
v 0.334260 0.014886 0.035636
v 0.334260 0.003926 -0.035636
v 0.262989 0.003926 -0.035636
v 0.262989 0.003926 0.035636
v 0.334260 0.003926 0.035636
v 0.354349 -0.000000 -0.055725
v 0.354349 -0.000000 0.055725
v 0.354349 0.003926 -0.055725
v 0.242899 -0.000000 -0.055725
v 0.242899 0.003926 -0.055725
v 0.242899 -0.000000 0.055725
v 0.242899 0.003926 0.055725
v 0.354349 0.003926 0.055725
v -0.266430 0.615268 0.010000
v -0.266430 0.815268 0.010000
v -0.266430 0.615268 -0.010000
v -0.266430 0.815268 -0.010000
v 0.266430 0.615268 0.010000
v 0.266430 0.815268 0.010000
v 0.266430 0.615268 -0.010000
v 0.266430 0.815268 -0.010000
v -0.266430 0.491074 0.010000
v -0.266430 0.576074 0.010000
v -0.266430 0.491074 -0.010000
v -0.266430 0.576074 -0.010000
v 0.266430 0.491074 0.010000
v 0.266430 0.576074 0.010000
v 0.266430 0.491074 -0.010000
v 0.266430 0.576074 -0.010000
vn -1.0000 -0.0000 -0.0000
vn -0.0000 -0.0000 -1.0000
vn 1.0000 -0.0000 -0.0000
vn -0.0000 -0.0000 1.0000
vn -0.0000 0.6241 -0.7814
vn -0.0000 1.0000 -0.0000
vn 0.7814 0.6241 -0.0000
vn -0.7814 0.6241 -0.0000
vn -0.0000 0.6241 0.7814
vn -0.0000 0.8887 0.4585
vn -0.0000 0.8887 -0.4585
vn -0.4585 0.8887 -0.0000
vn 0.4585 0.8887 -0.0000
vn -0.0000 -1.0000 -0.0000
vt 0.369644 0.004316
vt 0.369644 0.791601
vt 0.309249 0.791601
vt 0.309250 0.004317
vt 0.248854 0.791601
vt 0.248855 0.004317
vt 0.490434 0.004317
vt 0.490435 0.791601
vt 0.430039 0.791601
vt 0.430039 0.004316
vt 0.755333 0.720256
vt 0.755333 0.659862
vt 0.788679 0.680672
vt 0.788679 0.699446
vt 0.807452 0.680672
vt 0.807452 0.699446
vt 0.828263 0.732792
vt 0.767868 0.732792
vt 0.767868 0.647326
vt 0.828263 0.647326
vt 0.840799 0.659862
vt 0.840799 0.720256
vt 0.123489 0.004318
vt 0.183884 0.004318
vt 0.183884 0.791601
vt 0.123490 0.791601
vt 0.063094 0.004318
vt 0.063095 0.791601
vt 0.244279 0.004318
vt 0.244279 0.791601
vt 0.002699 0.004318
vt 0.002700 0.791601
vt 0.880004 0.680668
vt 0.898777 0.680668
vt 0.898777 0.699441
vt 0.880004 0.699441
vt 0.859194 0.732787
vt 0.919587 0.732787
vt 0.932123 0.720251
vt 0.932123 0.659858
vt 0.846659 0.659858
vt 0.846659 0.720251
vt 0.919587 0.647323
vt 0.859194 0.647323
vt 0.561182 0.667666
vt 0.623824 0.667666
vt 0.623824 0.672372
vt 0.561182 0.672372
vt 0.686466 0.667666
vt 0.749109 0.667666
vt 0.749109 0.672372
vt 0.686466 0.672372
vt 0.561182 0.682326
vt 0.623824 0.682326
vt 0.498539 0.682326
vt 0.498539 0.672372
vt 0.686466 0.682326
vt 0.749109 0.682326
vt 0.498539 0.667666
vt 0.630644 0.774785
vt 0.697496 0.774785
vt 0.716340 0.793629
vt 0.611801 0.793629
vt 0.697496 0.707934
vt 0.716340 0.689090
vt 0.630644 0.707934
vt 0.611801 0.689091
vt 0.706325 0.640786
vt 0.706325 0.637103
vt 0.810898 0.637102
vt 0.810898 0.640786
vt 0.915475 0.637102
vt 0.915475 0.640786
vt 0.497184 0.640785
vt 0.497184 0.637102
vt 0.601752 0.637102
vt 0.601752 0.640786
vt 0.561177 0.661808
vt 0.561177 0.657103
vt 0.623819 0.657103
vt 0.623819 0.661808
vt 0.686462 0.661808
vt 0.686462 0.657103
vt 0.749104 0.657103
vt 0.749104 0.661808
vt 0.561177 0.647149
vt 0.623819 0.647149
vt 0.498534 0.647149
vt 0.498534 0.657103
vt 0.686462 0.647149
vt 0.749104 0.647149
vt 0.498534 0.661808
vt 0.585252 0.707934
vt 0.604095 0.689091
vt 0.604095 0.793630
vt 0.585252 0.774786
vt 0.499556 0.793630
vt 0.518400 0.774786
vt 0.518400 0.707934
vt 0.499556 0.689091
vt 0.706190 0.626647
vt 0.810620 0.626647
vt 0.810620 0.630325
vt 0.706190 0.630326
vt 0.915050 0.626647
vt 0.915050 0.630325
vt 0.497322 0.626647
vt 0.601756 0.626647
vt 0.601756 0.630326
vt 0.497322 0.630326
vt 0.495516 0.230089
vt 0.995329 0.230089
vt 0.995329 0.417685
vt 0.495516 0.417685
vt 0.495516 0.211329
vt 0.995329 0.211329
vt 0.495516 0.023734
vt 0.995329 0.023734
vt 0.495516 0.004974
vt 0.995329 0.004974
vt 0.495837 0.540382
vt 0.995653 0.540382
vt 0.995653 0.620111
vt 0.495837 0.620111
vt 0.495837 0.521622
vt 0.995653 0.521622
vt 0.495837 0.441893
vt 0.995653 0.441893
vt 0.495837 0.423134
vt 0.995653 0.423134
s 0
f 17/1/1 1/2/1 2/3/1 18/4/1
f 18/4/2 2/3/2 4/5/2 19/6/2
f 19/7/3 4/8/3 3/9/3 20/10/3
f 20/10/4 3/9/4 1/2/4 17/1/4
f 4/11/5 2/12/5 6/13/5 7/14/5
f 7/14/6 6/13/6 5/15/6 8/16/6
f 3/17/7 4/18/7 7/14/7 8/16/7
f 2/19/8 1/20/8 5/15/8 6/13/8
f 1/21/9 3/22/9 8/16/9 5/15/9
f 37/23/3 38/24/3 10/25/3 9/26/3
f 40/27/4 37/23/4 9/26/4 11/28/4
f 38/24/2 39/29/2 12/30/2 10/25/2
f 39/31/1 40/27/1 11/28/1 12/32/1
f 15/33/6 16/34/6 13/35/6 14/36/6
f 10/37/7 14/36/7 13/35/7 9/38/7
f 9/39/9 13/35/9 16/34/9 11/40/9
f 12/41/5 15/33/5 14/36/5 10/42/5
f 11/43/8 16/34/8 15/33/8 12/44/8
f 20/45/10 17/46/10 24/47/10 23/48/10
f 18/49/11 19/50/11 22/51/11 21/52/11
f 27/53/4 23/48/4 24/47/4 28/54/4
f 26/55/3 22/56/3 23/48/3 27/53/3
f 25/57/2 21/52/2 22/51/2 26/58/2
f 28/54/1 24/47/1 21/52/1 25/57/1
f 17/46/12 18/49/12 21/52/12 24/47/12
f 19/59/13 20/45/13 23/48/13 22/56/13
f 27/60/6 28/61/6 36/62/6 35/63/6
f 28/61/6 25/64/6 31/65/6 36/62/6
f 26/66/6 27/60/6 35/63/6 33/67/6
f 30/68/1 36/69/1 31/70/1 29/71/1
f 29/71/2 31/70/2 33/72/2 32/73/2
f 32/74/3 33/75/3 35/76/3 34/77/3
f 34/77/4 35/76/4 36/69/4 30/68/4
f 25/64/6 26/66/6 33/67/6 31/65/6
f 40/78/10 43/79/10 44/80/10 37/81/10
f 38/82/11 41/83/11 42/84/11 39/85/11
f 47/86/4 48/87/4 44/80/4 43/79/4
f 46/88/1 47/86/1 43/79/1 42/89/1
f 45/90/2 46/91/2 42/84/2 41/83/2
f 48/87/3 45/90/3 41/83/3 44/80/3
f 37/81/13 44/80/13 41/83/13 38/82/13
f 39/92/12 42/89/12 43/79/12 40/78/12
f 47/93/6 55/94/6 56/95/6 48/96/6
f 48/96/6 56/95/6 51/97/6 45/98/6
f 46/99/6 53/100/6 55/94/6 47/93/6
f 50/101/3 49/102/3 51/103/3 56/104/3
f 49/102/2 52/105/2 53/106/2 51/103/2
f 52/107/1 54/108/1 55/109/1 53/110/1
f 54/108/4 50/101/4 56/104/4 55/109/4
f 45/98/6 51/97/6 53/100/6 46/99/6
f 63/111/2 59/112/2 60/113/2 64/114/2
f 63/111/14 61/115/14 57/116/14 59/112/14
f 57/116/4 61/115/4 62/117/4 58/118/4
f 58/118/6 62/117/6 64/119/6 60/120/6
f 71/121/2 67/122/2 68/123/2 72/124/2
f 71/121/14 69/125/14 65/126/14 67/122/14
f 65/126/4 69/125/4 70/127/4 66/128/4
f 66/128/6 70/127/6 72/129/6 68/130/6
