# Blender 4.0.2
# www.blender.org
o key_01
v -0.000000 0.047532 0.001194
v -0.000000 0.045032 0.003743
v -0.000000 0.047342 0.002169
v -0.000000 0.046800 0.002996
v -0.000000 0.045989 0.003549
v 0.000457 0.047532 0.001103
v 0.001432 0.045032 0.003458
v 0.000830 0.047342 0.002004
v 0.001147 0.046800 0.002768
v 0.001358 0.045989 0.003279
v 0.000844 0.047532 0.000844
v 0.002647 0.045032 0.002647
v 0.001534 0.047342 0.001534
v 0.002119 0.046800 0.002119
v 0.002510 0.045989 0.002510
v 0.001103 0.047532 0.000457
v 0.003458 0.045032 0.001432
v 0.002004 0.047342 0.000830
v 0.002768 0.046800 0.001147
v 0.003279 0.045989 0.001358
v 0.001194 0.047532 0.000000
v 0.003743 0.045032 0.000000
v 0.002169 0.047342 0.000000
v 0.002996 0.046800 0.000000
v 0.003549 0.045989 0.000000
v 0.001103 0.047532 -0.000457
v 0.003458 0.045032 -0.001432
v 0.002004 0.047342 -0.000830
v 0.002768 0.046800 -0.001147
v 0.003279 0.045989 -0.001358
v 0.000844 0.047532 -0.000844
v 0.002647 0.045032 -0.002647
v 0.001534 0.047342 -0.001534
v 0.002119 0.046800 -0.002119
v 0.002510 0.045989 -0.002510
v 0.000457 0.047532 -0.001103
v 0.001432 0.045032 -0.003458
v 0.000830 0.047342 -0.002004
v 0.001147 0.046800 -0.002768
v 0.001358 0.045989 -0.003279
v -0.000000 0.047532 -0.001194
v -0.000000 0.045032 -0.003743
v -0.000000 0.047342 -0.002169
v -0.000000 0.046800 -0.002996
v -0.000000 0.045989 -0.003549
v -0.000457 0.047532 -0.001103
v -0.001432 0.045032 -0.003458
v -0.000830 0.047342 -0.002004
v -0.001147 0.046800 -0.002768
v -0.001358 0.045989 -0.003279
v -0.000844 0.047532 -0.000844
v -0.002647 0.045032 -0.002647
v -0.001534 0.047342 -0.001534
v -0.002119 0.046800 -0.002119
v -0.002510 0.045989 -0.002510
v -0.001103 0.047532 -0.000457
v -0.003458 0.045032 -0.001432
v -0.002004 0.047342 -0.000830
v -0.002768 0.046800 -0.001147
v -0.003279 0.045989 -0.001358
v -0.001194 0.047532 0.000000
v -0.003743 0.045032 0.000000
v -0.002169 0.047342 0.000000
v -0.002996 0.046800 0.000000
v -0.003549 0.045989 0.000000
v -0.001103 0.047532 0.000457
v -0.003458 0.045032 0.001432
v -0.002004 0.047342 0.000830
v -0.002768 0.046800 0.001147
v -0.003279 0.045989 0.001358
v -0.000844 0.047532 0.000844
v -0.002647 0.045032 0.002647
v -0.001534 0.047342 0.001534
v -0.002119 0.046800 0.002119
v -0.002510 0.045989 0.002510
v -0.000457 0.047532 0.001103
v -0.001432 0.045032 0.003458
v -0.000830 0.047342 0.002004
v -0.001147 0.046800 0.002768
v -0.001358 0.045989 0.003279
v -0.000000 0.022378 0.003743
v 0.001432 0.022378 0.003458
v -0.001432 0.022378 0.003458
v 0.002647 0.022378 0.002647
v 0.003458 0.022378 0.001432
v 0.003743 0.022378 0.000000
v 0.003458 0.022378 -0.001432
v 0.002647 0.022378 -0.002647
v 0.001432 0.022378 -0.003458
v -0.000000 0.022378 -0.003743
v -0.001432 0.022378 -0.003458
v -0.002647 0.022378 -0.002647
v -0.003458 0.022378 -0.001432
v -0.003743 0.022378 0.000000
v -0.003458 0.022378 0.001432
v -0.002647 0.022378 0.002647
v -0.000000 0.012298 0.003743
v -0.001432 0.012298 0.003458
v 0.001432 0.012298 0.003458
v 0.002647 0.012298 0.002647
v 0.003458 0.012298 0.001432
v 0.003743 0.012298 0.000000
v 0.003458 0.012298 -0.001432
v 0.002647 0.012298 -0.002647
v 0.001432 0.012298 -0.003458
v -0.000000 0.012298 -0.003743
v -0.001432 0.012298 -0.003458
v -0.002647 0.012298 -0.002647
v -0.003458 0.012298 -0.001432
v -0.003743 0.012298 0.000000
v -0.003458 0.012298 0.001432
v -0.002647 0.012298 0.002647
v 0.001432 0.017428 0.003458
v 0.002647 0.017428 0.002647
v 0.003458 0.017428 0.001432
v 0.003743 0.017428 0.000000
v 0.003458 0.017428 -0.001432
v 0.002647 0.017428 -0.002647
v 0.001432 0.017428 -0.003458
v -0.000000 0.017428 -0.003743
v -0.001432 0.017428 -0.003458
v -0.002647 0.017428 -0.002647
v -0.003458 0.017428 -0.001432
v -0.003743 0.017428 0.000000
v -0.003458 0.017428 0.001432
v -0.002647 0.017428 0.002647
v -0.000000 0.017428 0.003743
v -0.001432 0.017428 0.003458
v -0.000000 0.016322 0.003743
v -0.001432 0.016322 0.003458
v 0.001432 0.016322 0.003458
v 0.002647 0.016322 0.002647
v 0.003458 0.016322 0.001432
v 0.003743 0.016322 0.000000
v 0.003458 0.016322 -0.001432
v 0.002647 0.016322 -0.002647
v 0.001432 0.016322 -0.003458
v -0.000000 0.016322 -0.003743
v -0.001432 0.016322 -0.003458
v -0.002647 0.016322 -0.002647
v -0.003458 0.016322 -0.001432
v -0.003743 0.016322 0.000000
v -0.003458 0.016322 0.001432
v -0.002647 0.016322 0.002647
v 0.001914 0.018166 0.004620
v 0.001914 0.021641 0.004620
v 0.003536 0.018166 0.003536
v 0.003536 0.021641 0.003536
v 0.004620 0.018166 0.001914
v 0.004620 0.021641 0.001914
v 0.005001 0.018166 0.000000
v 0.005001 0.021641 0.000000
v 0.004620 0.018166 -0.001914
v 0.004620 0.021641 -0.001914
v 0.003536 0.018166 -0.003536
v 0.003536 0.021641 -0.003536
v 0.001914 0.018166 -0.004620
v 0.001914 0.021641 -0.004620
v -0.000000 0.018166 -0.005001
v -0.000000 0.021641 -0.005001
v -0.001914 0.018166 -0.004620
v -0.001914 0.021641 -0.004620
v -0.003536 0.018166 -0.003536
v -0.003536 0.021641 -0.003536
v -0.004620 0.018166 -0.001914
v -0.004620 0.021641 -0.001914
v -0.005001 0.018166 0.000000
v -0.005001 0.021641 0.000000
v -0.004620 0.018166 0.001914
v -0.004620 0.021641 0.001914
v -0.003536 0.018166 0.003536
v -0.003536 0.021641 0.003536
v -0.000000 0.021641 0.005001
v -0.001914 0.021641 0.004620
v -0.000000 0.015587 0.005001
v -0.000000 0.013033 0.005001
v -0.001914 0.015587 0.004620
v -0.001914 0.013033 0.004620
v 0.001914 0.013033 0.004620
v 0.003536 0.013033 0.003536
v -0.003536 0.013033 0.003536
v -0.004620 0.013033 0.001914
v -0.005001 0.013033 0.000000
v -0.004620 0.013033 -0.001914
v -0.003536 0.013033 -0.003536
v -0.001914 0.013033 -0.004620
v -0.000000 0.013033 -0.005001
v 0.001914 0.013033 -0.004620
v 0.003536 0.013033 -0.003536
v 0.004620 0.013033 -0.001914
v 0.005001 0.013033 0.000000
v 0.004620 0.013033 0.001914
v -0.000000 0.018166 0.005001
v -0.001914 0.018166 0.004620
v 0.001914 0.015587 0.004620
v 0.003536 0.015587 0.003536
v 0.004620 0.015587 0.001914
v 0.005001 0.015587 0.000000
v 0.004620 0.015587 -0.001914
v 0.003536 0.015587 -0.003536
v 0.001914 0.015587 -0.004620
v -0.000000 0.015587 -0.005001
v -0.001914 0.015587 -0.004620
v -0.003536 0.015587 -0.003536
v -0.004620 0.015587 -0.001914
v -0.005001 0.015587 0.000000
v -0.004620 0.015587 0.001914
v -0.003536 0.015587 0.003536
v -0.000000 0.047532 -0.000844
v -0.000000 0.047532 -0.000457
v -0.000000 0.047532 0.000000
v -0.000000 0.047532 0.000457
v -0.000000 0.047532 0.000844
v 0.000000 -0.026028 -0.000000
v -0.000000 -0.025058 0.003743
v -0.000000 -0.026028 0.002754
v 0.001054 -0.026028 0.002545
v 0.001432 -0.025058 0.003458
v 0.001947 -0.026028 0.001947
v 0.002647 -0.025058 0.002647
v 0.002545 -0.026028 0.001054
v 0.003458 -0.025058 0.001432
v 0.002754 -0.026028 -0.000000
v 0.003743 -0.025058 -0.000000
v 0.002545 -0.026028 -0.001054
v 0.003458 -0.025058 -0.001432
v 0.001947 -0.026028 -0.001947
v 0.002647 -0.025058 -0.002647
v 0.001054 -0.026028 -0.002545
v 0.001432 -0.025058 -0.003458
v 0.000000 -0.026028 -0.002754
v -0.000000 -0.025058 -0.003743
v -0.001054 -0.026028 -0.002545
v -0.001432 -0.025058 -0.003458
v -0.001947 -0.026028 -0.001947
v -0.002647 -0.025058 -0.002647
v -0.002545 -0.026028 -0.001054
v -0.003458 -0.025058 -0.001432
v -0.002754 -0.026028 -0.000000
v -0.003743 -0.025058 -0.000000
v -0.002545 -0.026028 0.001054
v -0.003458 -0.025058 0.001432
v -0.001947 -0.026028 0.001947
v -0.002647 -0.025058 0.002647
v -0.001054 -0.026028 0.002545
v -0.001432 -0.025058 0.003458
v 0.018275 0.042250 -0.001292
v 0.002784 0.042250 -0.001292
v 0.018275 0.042250 0.001292
v 0.002784 0.042250 0.001292
v 0.018275 0.027927 -0.001292
v 0.002784 0.027927 -0.001292
v 0.018275 0.027927 0.001292
v 0.002784 0.027927 0.001292
v 0.002784 0.037455 0.001292
v 0.002784 0.032723 0.001292
v 0.002784 0.032723 -0.001292
v 0.002784 0.037455 -0.001292
v 0.011883 0.042250 -0.001292
v 0.011883 0.042250 0.001292
v 0.011883 0.027927 0.001292
v 0.011883 0.027927 -0.001292
v 0.011883 0.032723 -0.001292
v 0.011883 0.037455 -0.001292
v 0.011883 0.037455 0.001292
v 0.011883 0.032723 0.001292
v 0.014651 0.042250 -0.001292
v 0.014651 0.027927 0.001292
v 0.014651 0.032723 -0.001292
v 0.014651 0.032723 0.001292
v 0.014651 0.027927 -0.001292
v 0.014651 0.037455 0.001292
v 0.014651 0.042250 0.001292
v 0.014651 0.037455 -0.001292
v 0.018275 0.039853 0.001292
v 0.002784 0.039853 -0.001292
v 0.002784 0.039853 0.001292
v 0.018275 0.039853 -0.001292
v 0.011883 0.039853 0.001292
v 0.011883 0.039853 -0.001292
v 0.014651 0.039853 0.001292
v 0.014651 0.039853 -0.001292
v 0.002784 0.030325 0.001292
v 0.018275 0.030325 -0.001292
v 0.018275 0.030325 0.001292
v 0.002784 0.030325 -0.001292
v 0.011883 0.030325 -0.001292
v 0.011883 0.030325 0.001292
v 0.014651 0.030325 0.001292
v 0.014651 0.030325 -0.001292
v -0.010085 -0.040068 0.001919
v -0.010085 -0.040068 -0.001919
v -0.009317 -0.043105 0.001919
v -0.009317 -0.043105 -0.001919
v -0.007131 -0.045680 0.001919
v -0.007131 -0.045680 -0.001919
v -0.003859 -0.047401 0.001919
v -0.003859 -0.047401 -0.001919
v 0.000000 -0.048005 0.001919
v 0.000000 -0.048005 -0.001919
v 0.003859 -0.047401 0.001919
v 0.003859 -0.047401 -0.001919
v 0.007131 -0.045680 0.001919
v 0.007131 -0.045680 -0.001919
v 0.009317 -0.043105 0.001919
v 0.009317 -0.043105 -0.001919
v 0.010085 -0.040068 0.001919
v 0.010085 -0.040068 -0.001919
v 0.009317 -0.037031 0.001919
v 0.009317 -0.037031 -0.001919
v 0.007131 -0.034456 0.001919
v 0.007131 -0.034456 -0.001919
v 0.003859 -0.032736 0.001919
v 0.003859 -0.032736 -0.001919
v 0.000000 -0.032131 0.001919
v 0.000000 -0.032131 -0.001919
v -0.003859 -0.032736 0.001919
v -0.003859 -0.032736 -0.001919
v -0.007131 -0.034456 0.001919
v -0.007131 -0.034456 -0.001919
v -0.009317 -0.037031 0.001919
v -0.009317 -0.037031 -0.001919
v -0.016015 -0.040068 0.001919
v -0.014796 -0.044891 0.001919
v -0.014796 -0.044891 -0.001919
v -0.016015 -0.040068 -0.001919
v -0.011324 -0.048980 0.001919
v -0.011324 -0.048980 -0.001919
v -0.006129 -0.051712 0.001919
v -0.006129 -0.051712 -0.001919
v 0.000000 -0.052672 0.001919
v 0.000000 -0.052672 -0.001919
v 0.006129 -0.051712 0.001919
v 0.006129 -0.051712 -0.001919
v 0.011324 -0.048980 0.001919
v 0.011324 -0.048980 -0.001919
v 0.014796 -0.044891 0.001919
v 0.014796 -0.044891 -0.001919
v 0.016015 -0.040068 0.001919
v 0.016015 -0.040068 -0.001919
v 0.014796 -0.035245 0.001919
v 0.014796 -0.035245 -0.001919
v 0.011324 -0.031156 0.001919
v 0.011324 -0.031156 -0.001919
v 0.006129 -0.028424 0.001919
v 0.006129 -0.028424 -0.001919
v 0.000000 -0.028424 0.001919
v 0.000000 -0.028424 -0.001919
v -0.006129 -0.028424 0.001919
v -0.006129 -0.028424 -0.001919
v -0.011324 -0.031156 0.001919
v -0.011324 -0.031156 -0.001919
v -0.014796 -0.035245 0.001919
v -0.014796 -0.035245 -0.001919
v 0.002744 -0.021598 -0.001919
v 0.002744 -0.021598 0.001919
v 0.000000 -0.021132 0.001919
v 0.000000 -0.021132 -0.001919
v -0.002744 -0.021598 0.001919
v -0.002744 -0.021598 -0.001919
v -0.004971 -0.027436 -0.001919
v 0.000000 -0.027436 -0.001919
v 0.004971 -0.027436 0.001919
v 0.000000 -0.027436 0.001919
v -0.004971 -0.027436 0.001919
v 0.004971 -0.027436 -0.001919
v -0.004874 -0.024613 -0.001919
v 0.004874 -0.024613 0.001919
v -0.004874 -0.024613 0.001919
v 0.000000 -0.024613 -0.001919
v 0.000000 -0.024613 0.001919
v 0.004874 -0.024613 -0.001919
v -0.004276 -0.023012 -0.001919
v 0.004276 -0.023012 0.001919
v -0.004276 -0.023012 0.001919
v 0.000000 -0.022727 -0.001919
v 0.000000 -0.022727 0.001919
v 0.004276 -0.023012 -0.001919
v 0.000000 -0.026215 -0.001919
v 0.000000 -0.026215 0.001919
v 0.004683 -0.026215 -0.001919
v -0.004683 -0.026215 -0.001919
v 0.004683 -0.026215 0.001919
v -0.004683 -0.026215 0.001919
vn -0.0000 -1.0000 -0.0000
vn 0.9239 -0.0000 0.3827
vn 1.0000 -0.0000 -0.0000
vn 0.9239 -0.0000 -0.3827
vn 0.7071 -0.0000 -0.7071
vn 0.3827 -0.0000 -0.9239
vn -0.0000 -0.0000 -1.0000
vn -0.3827 -0.0000 -0.9239
vn -0.7071 -0.0000 -0.7071
vn -0.9239 -0.0000 -0.3827
vn -1.0000 -0.0000 -0.0000
vn -0.9239 -0.0000 0.3827
vn -0.7071 -0.0000 0.7071
vn -0.3827 -0.0000 0.9239
vn 0.3827 -0.0000 0.9239
vn 0.7071 -0.0000 0.7071
vn -0.0000 0.0987 0.9951
vn 0.3808 0.0987 0.9194
vn 0.3540 0.3800 0.8546
vn -0.0000 0.3800 0.9250
vn 0.2727 0.7015 0.6585
vn -0.0000 0.7015 0.7127
vn 0.1520 0.9178 0.3669
vn -0.0000 0.9178 0.3971
vn 0.0414 0.9941 0.0998
vn -0.0000 0.9941 0.1081
vn 0.7037 0.0987 0.7037
vn 0.6541 0.3800 0.6541
vn 0.5040 0.7015 0.5040
vn 0.2808 0.9178 0.2808
vn 0.0764 0.9941 0.0764
vn 0.9194 0.0987 0.3808
vn 0.8546 0.3800 0.3540
vn 0.6585 0.7015 0.2727
vn 0.3669 0.9178 0.1520
vn 0.0998 0.9941 0.0414
vn 0.9951 0.0987 -0.0000
vn 0.9250 0.3800 -0.0000
vn 0.7127 0.7015 -0.0000
vn 0.3971 0.9178 -0.0000
vn 0.1081 0.9941 -0.0000
vn 0.9194 0.0987 -0.3808
vn 0.8546 0.3800 -0.3540
vn 0.6585 0.7015 -0.2727
vn 0.3669 0.9178 -0.1520
vn 0.0998 0.9941 -0.0414
vn 0.7037 0.0987 -0.7037
vn 0.6541 0.3800 -0.6541
vn 0.5040 0.7015 -0.5040
vn 0.2808 0.9178 -0.2808
vn 0.0764 0.9941 -0.0764
vn 0.3808 0.0987 -0.9194
vn 0.3540 0.3800 -0.8546
vn 0.2727 0.7015 -0.6585
vn 0.1520 0.9178 -0.3669
vn 0.0414 0.9941 -0.0998
vn -0.0000 0.0987 -0.9951
vn -0.0000 0.3800 -0.9250
vn -0.0000 0.7015 -0.7127
vn -0.0000 0.9178 -0.3971
vn -0.0000 0.9941 -0.1081
vn -0.3808 0.0987 -0.9194
vn -0.3540 0.3800 -0.8546
vn -0.2727 0.7015 -0.6585
vn -0.1520 0.9178 -0.3669
vn -0.0414 0.9941 -0.0998
vn -0.7037 0.0987 -0.7037
vn -0.6541 0.3800 -0.6541
vn -0.5040 0.7015 -0.5040
vn -0.2808 0.9178 -0.2808
vn -0.0764 0.9941 -0.0764
vn -0.9194 0.0987 -0.3808
vn -0.8546 0.3800 -0.3540
vn -0.6585 0.7015 -0.2727
vn -0.3669 0.9178 -0.1520
vn -0.0998 0.9941 -0.0414
vn -0.9951 0.0987 -0.0000
vn -0.9250 0.3800 -0.0000
vn -0.7127 0.7015 -0.0000
vn -0.3971 0.9178 -0.0000
vn -0.1081 0.9941 -0.0000
vn -0.9194 0.0987 0.3808
vn -0.8546 0.3800 0.3540
vn -0.6585 0.7015 0.2727
vn -0.3669 0.9178 0.1520
vn -0.0998 0.9941 0.0414
vn -0.7037 0.0987 0.7037
vn -0.6541 0.3800 0.6541
vn -0.5040 0.7015 0.5040
vn -0.2808 0.9178 0.2808
vn -0.0764 0.9941 0.0764
vn -0.3808 0.0987 0.9194
vn -0.3540 0.3800 0.8546
vn -0.2727 0.7015 0.6585
vn -0.1520 0.9178 0.3669
vn -0.0414 0.9941 0.0998
vn -0.0000 1.0000 -0.0000
vn -0.0000 -0.0000 1.0000
vn 0.5060 0.8625 -0.0000
vn 0.4675 0.8625 0.1937
vn -0.1931 -0.8633 -0.4663
vn -0.3569 -0.8633 -0.3569
vn 0.3578 -0.8625 0.3578
vn 0.4675 -0.8625 0.1937
vn 0.4675 0.8625 -0.1937
vn -0.4663 -0.8633 -0.1931
vn -0.1937 -0.8625 0.4675
vn -0.0000 -0.8625 0.5060
vn 0.3578 0.8625 -0.3578
vn -0.5047 -0.8633 -0.0000
vn 0.1937 0.8625 -0.4675
vn -0.4663 -0.8633 0.1931
vn -0.0000 0.8625 -0.5060
vn -0.3569 -0.8633 0.3569
vn -0.1937 0.8625 -0.4675
vn -0.1931 -0.8633 0.4663
vn -0.3578 0.8625 -0.3578
vn 0.1931 -0.8633 0.4663
vn 0.3569 -0.8633 0.3569
vn 0.1931 0.8633 0.4663
vn -0.0000 0.8633 0.5047
vn -0.4675 0.8625 -0.1937
vn -0.0000 -0.8633 0.5047
vn 0.3569 0.8633 0.3569
vn -0.5060 0.8625 -0.0000
vn -0.1931 0.8633 0.4663
vn -0.3569 0.8633 0.3569
vn -0.4675 0.8625 0.1937
vn -0.4663 0.8633 0.1931
vn -0.3578 0.8625 0.3578
vn -0.5047 0.8633 -0.0000
vn -0.1937 0.8625 0.4675
vn -0.4663 0.8633 -0.1931
vn 0.3578 0.8625 0.3578
vn 0.1937 0.8625 0.4675
vn 0.1937 -0.8625 0.4675
vn -0.3569 0.8633 -0.3569
vn -0.0000 0.8625 0.5060
vn 0.5060 -0.8625 -0.0000
vn -0.0000 -0.8633 -0.5047
vn 0.4675 -0.8625 -0.1937
vn 0.1931 -0.8633 -0.4663
vn 0.3578 -0.8625 -0.3578
vn 0.3569 -0.8633 -0.3569
vn 0.1937 -0.8625 -0.4675
vn 0.4663 -0.8633 -0.1931
vn -0.0000 -0.8625 -0.5060
vn 0.5047 -0.8633 -0.0000
vn 0.4663 0.8633 0.1931
vn -0.1937 -0.8625 -0.4675
vn 0.4663 -0.8633 0.1931
vn 0.5047 0.8633 -0.0000
vn -0.3578 -0.8625 -0.3578
vn 0.4663 0.8633 -0.1931
vn -0.4675 -0.8625 -0.1937
vn 0.3569 0.8633 -0.3569
vn -0.5060 -0.8625 -0.0000
vn 0.1931 0.8633 -0.4663
vn -0.4675 -0.8625 0.1937
vn -0.0000 0.8633 -0.5047
vn -0.3578 -0.8625 0.3578
vn -0.1931 0.8633 -0.4663
vn 0.2680 -0.7139 0.6469
vn -0.0000 -0.7139 0.7002
vn 0.4951 -0.7139 0.4951
vn 0.6469 -0.7139 0.2680
vn 0.7002 -0.7139 -0.0000
vn 0.6469 -0.7139 -0.2680
vn 0.4951 -0.7139 -0.4951
vn 0.2680 -0.7139 -0.6469
vn -0.0000 -0.7139 -0.7002
vn -0.2680 -0.7139 -0.6469
vn -0.4951 -0.7139 -0.4951
vn -0.6469 -0.7139 -0.2680
vn -0.7002 -0.7139 -0.0000
vn -0.6469 -0.7139 0.2680
vn -0.4951 -0.7139 0.4951
vn -0.2680 -0.7139 0.6469
vn -0.8890 -0.4580 -0.0000
vn -0.6253 -0.7804 -0.0000
vn -0.3143 -0.9493 -0.0000
vn 0.3143 -0.9493 -0.0000
vn 0.6253 -0.7804 -0.0000
vn 0.8890 -0.4580 -0.0000
vn 0.8890 0.4580 -0.0000
vn 0.6253 0.7804 -0.0000
vn 0.5608 0.8280 -0.0000
vn -0.5608 0.8280 -0.0000
vn -0.6253 0.7804 -0.0000
vn -0.8890 0.4580 -0.0000
vn -0.3143 0.9493 -0.0000
vn 0.3143 0.9493 -0.0000
vn -0.8303 0.5573 -0.0000
vn -0.6784 0.7347 -0.0000
vn 0.8303 0.5573 -0.0000
vn 0.6784 0.7347 -0.0000
vn 0.6492 0.7606 -0.0000
vn -0.6492 0.7606 -0.0000
vn 0.9984 0.0566 -0.0000
vn 0.9929 0.1191 -0.0000
vn -0.9984 0.0566 -0.0000
vn -0.9929 0.1191 -0.0000
vn -0.9733 0.2296 -0.0000
vn 0.9733 0.2296 -0.0000
vt 0.515855 0.596973
vt 0.511602 0.607119
vt 0.503746 0.614811
vt 0.488269 0.591275
vt 0.384642 0.070318
vt 0.006096 0.070318
vt 0.006096 0.053530
vt 0.384642 0.053530
vt 0.504113 0.567942
vt 0.511805 0.575798
vt 0.493967 0.563689
vt 0.384642 0.305357
vt 0.006096 0.305357
vt 0.006096 0.288568
vt 0.384642 0.288568
vt 0.482973 0.563573
vt 0.472792 0.567739
vt 0.384642 0.271780
vt 0.006096 0.271780
vt 0.006096 0.254991
vt 0.384642 0.254991
vt 0.464936 0.575431
vt 0.460683 0.585577
vt 0.384642 0.238203
vt 0.006096 0.238203
vt 0.006096 0.221414
vt 0.384642 0.221414
vt 0.460567 0.596571
vt 0.464733 0.606752
vt 0.384642 0.204626
vt 0.006096 0.204626
vt 0.006096 0.187837
vt 0.384642 0.187837
vt 0.472425 0.614608
vt 0.482571 0.618861
vt 0.384642 0.171049
vt 0.006096 0.171049
vt 0.006096 0.154261
vt 0.384642 0.154261
vt 0.006096 0.137472
vt 0.384642 0.137472
vt 0.384642 0.103895
vt 0.006096 0.103895
vt 0.006096 0.087107
vt 0.384642 0.087107
vt 0.515971 0.585979
vt 0.493565 0.618977
vt 0.140374 0.530272
vt 0.160149 0.533834
vt 0.155779 0.545357
vt 0.140746 0.542591
vt 0.152178 0.554943
vt 0.141088 0.552825
vt 0.148809 0.563551
vt 0.141270 0.562067
vt 0.145423 0.571833
vt 0.141312 0.571015
vt 0.177056 0.544692
vt 0.168609 0.553665
vt 0.161614 0.561144
vt 0.155207 0.567807
vt 0.148907 0.574163
vt 0.188520 0.561193
vt 0.177283 0.566251
vt 0.167958 0.570483
vt 0.159489 0.574188
vt 0.151236 0.577650
vt 0.192797 0.580825
vt 0.180480 0.581197
vt 0.170246 0.581539
vt 0.161003 0.581721
vt 0.152054 0.581762
vt 0.189237 0.600599
vt 0.177715 0.596230
vt 0.168128 0.592630
vt 0.159520 0.589261
vt 0.151235 0.585874
vt 0.178382 0.617506
vt 0.169408 0.609060
vt 0.161929 0.602065
vt 0.155265 0.595659
vt 0.148907 0.589361
vt 0.161882 0.628972
vt 0.156823 0.617735
vt 0.152590 0.608411
vt 0.148885 0.599942
vt 0.145422 0.591691
vt 0.142250 0.633252
vt 0.141877 0.620934
vt 0.141534 0.610699
vt 0.141352 0.601457
vt 0.141311 0.592510
vt 0.122473 0.629693
vt 0.126843 0.618169
vt 0.130443 0.608582
vt 0.133812 0.599974
vt 0.137199 0.591691
vt 0.105564 0.618835
vt 0.114011 0.609861
vt 0.121007 0.602381
vt 0.127414 0.595717
vt 0.133714 0.589361
vt 0.094098 0.602333
vt 0.105336 0.597274
vt 0.114662 0.593041
vt 0.123131 0.589337
vt 0.131384 0.585874
vt 0.089820 0.582699
vt 0.102139 0.582327
vt 0.112374 0.581985
vt 0.121616 0.581803
vt 0.130563 0.581762
vt 0.093381 0.562923
vt 0.104904 0.567293
vt 0.114491 0.570894
vt 0.123100 0.574263
vt 0.131384 0.577650
vt 0.104239 0.546016
vt 0.113213 0.554463
vt 0.120692 0.561458
vt 0.127356 0.567865
vt 0.133714 0.574163
vt 0.120740 0.534550
vt 0.125799 0.545788
vt 0.130031 0.555113
vt 0.133736 0.563582
vt 0.137200 0.571833
vt 0.141312 0.589362
vt 0.745556 0.120684
vt 0.516004 0.120684
vt 0.516004 0.103895
vt 0.745556 0.103895
vt 0.516004 0.087107
vt 0.745556 0.087107
vt 0.745556 0.154261
vt 0.516004 0.154261
vt 0.516004 0.137472
vt 0.745556 0.137472
vt 0.745556 0.171049
vt 0.516004 0.171049
vt 0.745556 0.187837
vt 0.516004 0.187837
vt 0.745556 0.204626
vt 0.516004 0.204626
vt 0.745556 0.221414
vt 0.516004 0.221414
vt 0.745556 0.238203
vt 0.516004 0.238203
vt 0.745556 0.254991
vt 0.516004 0.254991
vt 0.745556 0.271780
vt 0.516004 0.271780
vt 0.745556 0.288568
vt 0.516004 0.288568
vt 0.745556 0.305357
vt 0.516004 0.305357
vt 0.745556 0.322145
vt 0.516004 0.322145
vt 0.745556 0.070318
vt 0.516004 0.070318
vt 0.516004 0.053530
vt 0.745556 0.053530
vt 0.501231 0.070318
vt 0.501231 0.053530
vt 0.399402 0.221414
vt 0.399402 0.238203
vt 0.451248 0.087107
vt 0.451248 0.070318
vt 0.466021 0.070318
vt 0.466021 0.087107
vt 0.501231 0.322145
vt 0.501231 0.305357
vt 0.399402 0.204626
vt 0.451248 0.137472
vt 0.451248 0.120684
vt 0.466021 0.120684
vt 0.466021 0.137472
vt 0.501231 0.288568
vt 0.399402 0.187837
vt 0.501231 0.271780
vt 0.399402 0.171049
vt 0.501231 0.254991
vt 0.399402 0.154261
vt 0.501231 0.238203
vt 0.399402 0.137472
vt 0.501231 0.221414
vt 0.399402 0.087107
vt 0.399402 0.103895
vt 0.440037 0.103895
vt 0.440037 0.120684
vt 0.425276 0.120684
vt 0.425276 0.103895
vt 0.501231 0.204626
vt 0.384642 0.120684
vt 0.399402 0.120684
vt 0.440037 0.087107
vt 0.425276 0.087107
vt 0.501231 0.187837
vt 0.440037 0.137472
vt 0.440037 0.154261
vt 0.425276 0.154261
vt 0.425276 0.137472
vt 0.501231 0.171049
vt 0.440037 0.171049
vt 0.425276 0.171049
vt 0.501231 0.154261
vt 0.440037 0.187837
vt 0.425276 0.187837
vt 0.501231 0.137472
vt 0.440037 0.204626
vt 0.425276 0.204626
vt 0.501231 0.103895
vt 0.501231 0.087107
vt 0.451248 0.103895
vt 0.466021 0.103895
vt 0.440037 0.221414
vt 0.425276 0.221414
vt 0.501231 0.120684
vt 0.440037 0.070318
vt 0.440037 0.053530
vt 0.451248 0.053530
vt 0.451248 0.322145
vt 0.440037 0.322145
vt 0.440037 0.305357
vt 0.451248 0.305357
vt 0.440037 0.288568
vt 0.451248 0.288568
vt 0.440037 0.271780
vt 0.451248 0.271780
vt 0.440037 0.254991
vt 0.451248 0.254991
vt 0.440037 0.238203
vt 0.451248 0.238203
vt 0.451248 0.221414
vt 0.451248 0.204626
vt 0.451248 0.187837
vt 0.451248 0.171049
vt 0.451248 0.154261
vt 0.425276 0.238203
vt 0.425276 0.254991
vt 0.399402 0.254991
vt 0.425276 0.271780
vt 0.399402 0.271780
vt 0.425276 0.288568
vt 0.399402 0.288568
vt 0.425276 0.305357
vt 0.399402 0.305357
vt 0.425276 0.322145
vt 0.399402 0.322145
vt 0.425276 0.070318
vt 0.399402 0.070318
vt 0.399402 0.053530
vt 0.425276 0.053530
vt 0.466021 0.053530
vt 0.466021 0.322145
vt 0.466021 0.305357
vt 0.466021 0.288568
vt 0.466021 0.271780
vt 0.466021 0.254991
vt 0.466021 0.238203
vt 0.466021 0.221414
vt 0.466021 0.204626
vt 0.466021 0.187837
vt 0.466021 0.171049
vt 0.466021 0.154261
vt 0.384642 0.322145
vt 0.141313 0.577649
vt 0.141316 0.581762
vt 0.141313 0.585875
vt 0.141312 0.574162
vt 0.006096 0.120684
vt 0.006096 0.322145
vt 0.524222 0.615265
vt 0.512293 0.627194
vt 0.530655 0.599686
vt 0.530655 0.582816
vt 0.524187 0.567251
vt 0.512259 0.555322
vt 0.496679 0.548889
vt 0.479810 0.548889
vt 0.464245 0.555357
vt 0.452316 0.567286
vt 0.445883 0.582865
vt 0.445883 0.599734
vt 0.452350 0.615299
vt 0.464279 0.627228
vt 0.479858 0.633661
vt 0.496728 0.633661
vt 0.402146 0.407190
vt 0.305837 0.407190
vt 0.305837 0.379841
vt 0.402146 0.379841
vt 0.880151 0.327723
vt 0.880151 0.231415
vt 0.905529 0.231415
vt 0.905529 0.327723
vt 0.577442 0.407647
vt 0.481134 0.407647
vt 0.481134 0.380299
vt 0.577442 0.380299
vt 0.879520 0.149728
vt 0.879520 0.053420
vt 0.904899 0.053420
vt 0.904899 0.149728
vt 0.268813 0.379459
vt 0.294192 0.379459
vt 0.294192 0.406807
vt 0.268813 0.406807
vt 0.778682 0.149728
vt 0.778682 0.053420
vt 0.804060 0.053420
vt 0.804061 0.149728
vt 0.854142 0.053420
vt 0.854142 0.149728
vt 0.779313 0.327723
vt 0.779313 0.231415
vt 0.804691 0.231415
vt 0.804691 0.327723
vt 0.854773 0.231415
vt 0.854773 0.327723
vt 0.879520 0.217373
vt 0.879520 0.179022
vt 0.904899 0.179022
vt 0.904899 0.217373
vt 0.645087 0.407647
vt 0.606736 0.407647
vt 0.606736 0.380299
vt 0.645087 0.380299
vt 0.880151 0.395368
vt 0.880151 0.357017
vt 0.905529 0.357017
vt 0.905529 0.395368
vt 0.469790 0.407189
vt 0.431440 0.407190
vt 0.431440 0.379841
vt 0.469790 0.379841
vt 0.125708 0.379459
vt 0.175790 0.379459
vt 0.175790 0.406807
vt 0.125708 0.406807
vt 0.779313 0.357018
vt 0.753935 0.357018
vt 0.753935 0.327723
vt 0.854773 0.357017
vt 0.778682 0.179022
vt 0.753304 0.179022
vt 0.753304 0.149728
vt 0.205084 0.379459
vt 0.205084 0.406807
vt 0.854142 0.179022
vt 0.096414 0.406807
vt 0.096414 0.379459
vt 0.804691 0.357017
vt 0.753935 0.395368
vt 0.779313 0.395368
vt 0.753935 0.231415
vt 0.007307 0.379459
vt 0.032685 0.379459
vt 0.032685 0.406807
vt 0.007307 0.406807
vt 0.804061 0.179022
vt 0.753304 0.217373
vt 0.778682 0.217373
vt 0.753304 0.053420
vt 0.071036 0.406807
vt 0.071036 0.379459
vt 0.230463 0.379459
vt 0.230463 0.406807
vt 0.737776 0.005998
vt 0.737776 0.046624
vt 0.685122 0.046624
vt 0.685122 0.005998
vt 0.628350 0.046624
vt 0.628350 0.005998
vt 0.566220 0.046624
vt 0.566220 0.005998
vt 0.500565 0.046624
vt 0.500565 0.005998
vt 0.434909 0.046624
vt 0.434909 0.005998
vt 0.372779 0.046624
vt 0.372779 0.005998
vt 0.316007 0.046624
vt 0.316007 0.005998
vt 0.263353 0.046624
vt 0.263353 0.005998
vt 0.210699 0.046624
vt 0.210699 0.005998
vt 0.153927 0.046624
vt 0.153927 0.005998
vt 0.091797 0.046624
vt 0.091797 0.005998
vt 0.668281 0.584239
vt 0.665256 0.538977
vt 0.680229 0.555191
vt 0.685155 0.584239
vt 0.325226 0.584239
vt 0.322201 0.538978
vt 0.337174 0.555192
vt 0.342099 0.584239
vt 0.909332 0.005998
vt 0.909332 0.046624
vt 0.847202 0.046624
vt 0.847202 0.005998
vt 0.122910 0.371163
vt 0.087160 0.371163
vt 0.087160 0.330537
vt 0.122910 0.330537
vt 0.790430 0.046624
vt 0.790430 0.005998
vt 0.156067 0.371163
vt 0.156067 0.330537
vt 0.452592 0.682851
vt 0.484738 0.690976
vt 0.484738 0.753741
vt 0.433689 0.740838
vt 0.141683 0.477501
vt 0.109537 0.485626
vt 0.090634 0.427639
vt 0.141683 0.414737
vt 0.425340 0.659714
vt 0.390412 0.704094
vt 0.082284 0.508763
vt 0.047357 0.464382
vt 0.407130 0.625085
vt 0.361495 0.649104
vt 0.064075 0.543392
vt 0.018440 0.519373
vt 0.400736 0.584239
vt 0.351341 0.584239
vt 0.057681 0.584239
vt 0.008286 0.584238
vt 0.407130 0.543392
vt 0.361495 0.519373
vt 0.064075 0.625085
vt 0.018440 0.649104
vt 0.425340 0.508764
vt 0.390412 0.464383
vt 0.082284 0.659714
vt 0.047357 0.704094
vt 0.452592 0.485626
vt 0.433689 0.427639
vt 0.109537 0.682851
vt 0.090634 0.740838
vt 0.484738 0.477501
vt 0.484738 0.414737
vt 0.141683 0.690976
vt 0.141683 0.753741
vt 0.516884 0.485626
vt 0.535787 0.427639
vt 0.173829 0.682851
vt 0.192731 0.740838
vt 0.544137 0.508764
vt 0.579064 0.464383
vt 0.201081 0.659714
vt 0.236009 0.704095
vt 0.562346 0.543392
vt 0.607981 0.519373
vt 0.219290 0.625085
vt 0.264925 0.649104
vt 0.568740 0.584239
vt 0.607981 0.584239
vt 0.225685 0.584239
vt 0.264925 0.584239
vt 0.562346 0.625085
vt 0.607981 0.649104
vt 0.219290 0.543392
vt 0.264926 0.519373
vt 0.544136 0.659714
vt 0.579064 0.704095
vt 0.201081 0.508764
vt 0.236009 0.464383
vt 0.516884 0.682851
vt 0.535787 0.740838
vt 0.173829 0.485626
vt 0.192732 0.427639
vt 0.048036 0.371163
vt 0.048036 0.330537
vt 0.006692 0.371163
vt 0.006692 0.330537
vt 0.604193 0.371163
vt 0.562849 0.371163
vt 0.562849 0.330537
vt 0.604193 0.330537
vt 0.523725 0.371163
vt 0.523725 0.330537
vt 0.487975 0.371163
vt 0.487975 0.330537
vt 0.454818 0.371163
vt 0.454818 0.330537
vt 0.421661 0.371163
vt 0.421661 0.330537
vt 0.385911 0.371163
vt 0.385911 0.330537
vt 0.346787 0.371163
vt 0.346787 0.330537
vt 0.305443 0.371163
vt 0.305443 0.330537
vt 0.264098 0.371163
vt 0.264098 0.330537
vt 0.224974 0.371163
vt 0.224974 0.330537
vt 0.189224 0.371163
vt 0.189224 0.330537
vt 0.973874 0.046624
vt 0.973874 0.005998
vt 0.995943 0.005998
vt 0.995943 0.046624
vt 0.665256 0.629500
vt 0.680229 0.613286
vt 0.322201 0.629500
vt 0.337173 0.613286
vt 0.027255 0.005998
vt 0.027255 0.046624
vt 0.005185 0.046624
vt 0.005185 0.005998
vt 0.075689 0.046624
vt 0.075689 0.005998
vt 0.275382 0.584239
vt 0.275382 0.636852
vt 0.618438 0.584239
vt 0.618438 0.636851
vt 0.925440 0.005998
vt 0.925440 0.046624
vt 0.275382 0.531626
vt 0.618438 0.531626
vt 0.062413 0.005998
vt 0.062413 0.046624
vt 0.045336 0.046624
vt 0.045336 0.005998
vt 0.288304 0.633804
vt 0.288304 0.584239
vt 0.305261 0.584239
vt 0.305261 0.635821
vt 0.631359 0.633804
vt 0.631359 0.584239
vt 0.648316 0.584239
vt 0.648316 0.635821
vt 0.938716 0.046624
vt 0.938716 0.005998
vt 0.955793 0.005998
vt 0.955793 0.046624
vt 0.288304 0.534674
vt 0.305261 0.532656
vt 0.631359 0.534674
vt 0.648316 0.532656
s 1
f 219/1/1 217/2/1 216/3/1 214/4/1
f 101/5/2 222/6/2 224/7/3 102/8/3
f 225/9/1 223/10/1 214/4/1 227/11/1
f 103/12/4 226/13/4 228/14/5 104/15/5
f 229/16/1 227/11/1 214/4/1 231/17/1
f 105/18/6 230/19/6 232/20/7 106/21/7
f 233/22/1 231/17/1 214/4/1 235/23/1
f 107/24/8 234/25/8 236/26/9 108/27/9
f 237/28/1 235/23/1 214/4/1 239/29/1
f 109/30/10 238/31/10 240/32/11 110/33/11
f 241/34/1 239/29/1 214/4/1 243/35/1
f 111/36/12 242/37/12 244/38/13 112/39/13
f 112/39/13 244/38/13 246/40/14 98/41/14
f 99/42/15 218/43/15 220/44/16 100/45/16
f 221/46/1 219/1/1 214/4/1 223/10/1
f 245/47/1 243/35/1 214/4/1 216/3/1
f 2/48/17 7/49/18 10/50/19 5/51/20
f 5/51/20 10/50/19 9/52/21 4/53/22
f 4/53/22 9/52/21 8/54/23 3/55/24
f 3/55/24 8/54/23 6/56/25 1/57/26
f 7/49/18 12/58/27 15/59/28 10/50/19
f 10/50/19 15/59/28 14/60/29 9/52/21
f 9/52/21 14/60/29 13/61/30 8/54/23
f 8/54/23 13/61/30 11/62/31 6/56/25
f 12/58/27 17/63/32 20/64/33 15/59/28
f 15/59/28 20/64/33 19/65/34 14/60/29
f 14/60/29 19/65/34 18/66/35 13/61/30
f 13/61/30 18/66/35 16/67/36 11/62/31
f 17/63/32 22/68/37 25/69/38 20/64/33
f 20/64/33 25/69/38 24/70/39 19/65/34
f 19/65/34 24/70/39 23/71/40 18/66/35
f 18/66/35 23/71/40 21/72/41 16/67/36
f 22/68/37 27/73/42 30/74/43 25/69/38
f 25/69/38 30/74/43 29/75/44 24/70/39
f 24/70/39 29/75/44 28/76/45 23/71/40
f 23/71/40 28/76/45 26/77/46 21/72/41
f 27/73/42 32/78/47 35/79/48 30/74/43
f 30/74/43 35/79/48 34/80/49 29/75/44
f 29/75/44 34/80/49 33/81/50 28/76/45
f 28/76/45 33/81/50 31/82/51 26/77/46
f 32/78/47 37/83/52 40/84/53 35/79/48
f 35/79/48 40/84/53 39/85/54 34/80/49
f 34/80/49 39/85/54 38/86/55 33/81/50
f 33/81/50 38/86/55 36/87/56 31/82/51
f 37/83/52 42/88/57 45/89/58 40/84/53
f 40/84/53 45/89/58 44/90/59 39/85/54
f 39/85/54 44/90/59 43/91/60 38/86/55
f 38/86/55 43/91/60 41/92/61 36/87/56
f 42/88/57 47/93/62 50/94/63 45/89/58
f 45/89/58 50/94/63 49/95/64 44/90/59
f 44/90/59 49/95/64 48/96/65 43/91/60
f 43/91/60 48/96/65 46/97/66 41/92/61
f 47/93/62 52/98/67 55/99/68 50/94/63
f 50/94/63 55/99/68 54/100/69 49/95/64
f 49/95/64 54/100/69 53/101/70 48/96/65
f 48/96/65 53/101/70 51/102/71 46/97/66
f 52/98/67 57/103/72 60/104/73 55/99/68
f 55/99/68 60/104/73 59/105/74 54/100/69
f 54/100/69 59/105/74 58/106/75 53/101/70
f 53/101/70 58/106/75 56/107/76 51/102/71
f 57/103/72 62/108/77 65/109/78 60/104/73
f 60/104/73 65/109/78 64/110/79 59/105/74
f 59/105/74 64/110/79 63/111/80 58/106/75
f 58/106/75 63/111/80 61/112/81 56/107/76
f 62/108/77 67/113/82 70/114/83 65/109/78
f 65/109/78 70/114/83 69/115/84 64/110/79
f 64/110/79 69/115/84 68/116/85 63/111/80
f 63/111/80 68/116/85 66/117/86 61/112/81
f 67/113/82 72/118/87 75/119/88 70/114/83
f 70/114/83 75/119/88 74/120/89 69/115/84
f 69/115/84 74/120/89 73/121/90 68/116/85
f 68/116/85 73/121/90 71/122/91 66/117/86
f 72/118/87 77/123/92 80/124/93 75/119/88
f 75/119/88 80/124/93 79/125/94 74/120/89
f 74/120/89 79/125/94 78/126/95 73/121/90
f 73/121/90 78/126/95 76/127/96 71/122/91
f 77/123/92 2/48/17 5/51/20 80/124/93
f 80/124/93 5/51/20 4/53/22 79/125/94
f 79/125/94 4/53/22 3/55/24 78/126/95
f 78/126/95 3/55/24 1/57/26 76/127/96
f 209/128/97 31/82/51 36/87/56 41/92/61
f 2/129/17 81/130/98 82/131/15 7/132/18
f 7/132/18 82/131/15 84/133/16 12/134/27
f 72/135/87 96/136/13 83/137/14 77/138/92
f 67/139/82 95/140/12 96/136/13 72/135/87
f 62/141/77 94/142/11 95/140/12 67/139/82
f 57/143/72 93/144/10 94/142/11 62/141/77
f 52/145/67 92/146/9 93/144/10 57/143/72
f 47/147/62 91/148/8 92/146/9 52/145/67
f 42/149/57 90/150/7 91/148/8 47/147/62
f 37/151/52 89/152/6 90/150/7 42/149/57
f 32/153/47 88/154/5 89/152/6 37/151/52
f 27/155/42 87/156/4 88/154/5 32/153/47
f 22/157/37 86/158/3 87/156/4 27/155/42
f 17/159/32 85/160/2 86/161/3 22/162/37
f 12/134/27 84/133/16 85/160/2 17/159/32
f 77/138/92 83/137/14 81/130/98 2/129/17
f 86/161/99 85/160/100 150/163/100 152/164/99
f 107/24/101 108/27/102 185/165/102 186/166/101
f 114/167/103 115/168/104 149/169/104 147/170/103
f 87/156/105 86/158/99 152/171/99 154/172/105
f 108/27/102 109/30/106 184/173/106 185/165/102
f 128/174/107 127/175/108 193/176/108 194/177/107
f 88/154/109 87/156/105 154/172/105 156/178/109
f 109/30/106 110/33/110 183/179/110 184/173/106
f 89/152/111 88/154/109 156/178/109 158/180/111
f 110/33/110 111/36/112 182/181/112 183/179/110
f 90/150/113 89/152/111 158/180/111 160/182/113
f 111/36/112 112/39/114 181/183/114 182/181/112
f 91/148/115 90/150/113 160/182/113 162/184/115
f 112/39/114 98/41/116 178/185/116 181/183/114
f 92/146/117 91/148/115 162/184/115 164/186/117
f 99/42/118 100/45/119 180/187/119 179/188/118
f 131/189/120 129/190/121 175/191/121 195/192/120
f 93/144/122 92/146/117 164/186/117 166/193/122
f 97/194/123 99/42/118 179/188/118 176/195/123
f 132/196/124 131/189/120 195/192/120 196/197/124
f 94/142/125 93/144/122 166/193/122 168/198/125
f 130/199/126 144/200/127 208/201/127 177/202/126
f 95/140/128 94/142/125 168/198/125 170/203/128
f 144/200/127 143/204/129 207/205/129 208/201/127
f 96/136/130 95/140/128 170/203/128 172/206/130
f 143/204/129 142/207/131 206/208/131 207/205/129
f 83/137/132 96/136/130 172/206/130 174/209/132
f 142/207/131 141/210/133 205/211/133 206/208/131
f 84/133/134 82/131/135 146/212/135 148/213/134
f 127/175/108 113/214/136 145/215/136 193/176/108
f 141/210/133 140/216/137 204/217/137 205/211/133
f 82/131/135 81/130/138 173/218/138 146/212/135
f 128/174/14 130/199/14 129/190/98 127/175/98
f 114/167/16 132/196/16 133/219/2 115/168/2
f 115/168/2 133/219/2 134/220/3 116/221/3
f 116/222/3 134/223/3 135/224/4 117/225/4
f 117/225/4 135/224/4 136/226/5 118/227/5
f 118/227/5 136/226/5 137/228/6 119/229/6
f 119/229/6 137/228/6 138/230/7 120/231/7
f 120/231/7 138/230/7 139/232/8 121/233/8
f 121/233/8 139/232/8 140/216/9 122/234/9
f 122/234/9 140/216/9 141/210/10 123/235/10
f 123/235/10 141/210/10 142/207/11 124/236/11
f 124/236/11 142/207/11 143/204/12 125/237/12
f 125/237/12 143/204/12 144/200/13 126/238/13
f 126/238/13 144/200/13 130/199/14 128/174/14
f 113/214/15 131/189/15 132/196/16 114/167/16
f 127/175/98 129/190/98 131/189/15 113/214/15
f 175/191/98 176/195/98 179/188/15 195/192/15
f 195/192/15 179/188/15 180/187/16 196/197/16
f 208/201/13 181/183/13 178/185/14 177/202/14
f 207/205/12 182/181/12 181/183/13 208/201/13
f 206/208/11 183/179/11 182/181/12 207/205/12
f 205/211/10 184/173/10 183/179/11 206/208/11
f 204/217/9 185/165/9 184/173/10 205/211/10
f 203/239/8 186/166/8 185/165/9 204/217/9
f 202/240/7 187/241/7 186/166/8 203/239/8
f 201/242/6 188/243/6 187/241/7 202/240/7
f 200/244/5 189/245/5 188/243/6 201/242/6
f 199/246/4 190/247/4 189/245/5 200/244/5
f 198/248/3 191/249/3 190/247/4 199/246/4
f 197/250/2 192/251/2 191/252/3 198/253/3
f 196/197/16 180/187/16 192/251/2 197/250/2
f 177/202/14 178/185/14 176/195/98 175/191/98
f 174/209/14 194/177/14 193/176/98 173/218/98
f 148/213/16 147/170/16 149/169/2 150/163/2
f 150/163/2 149/169/2 151/254/3 152/164/3
f 152/171/3 151/255/3 153/256/4 154/172/4
f 154/172/4 153/256/4 155/257/5 156/178/5
f 156/178/5 155/257/5 157/258/6 158/180/6
f 158/180/6 157/258/6 159/259/7 160/182/7
f 160/182/7 159/259/7 161/260/8 162/184/8
f 162/184/8 161/260/8 163/261/9 164/186/9
f 164/186/9 163/261/9 165/262/10 166/193/10
f 166/193/10 165/262/10 167/263/11 168/198/11
f 168/198/11 167/263/11 169/264/12 170/203/12
f 170/203/12 169/264/12 171/265/13 172/206/13
f 172/206/13 171/265/13 194/177/14 174/209/14
f 146/212/15 145/215/15 147/170/16 148/213/16
f 173/218/98 193/176/98 145/215/15 146/212/15
f 115/168/104 116/221/139 151/254/139 149/169/104
f 106/21/140 107/24/101 186/166/101 187/241/140
f 85/160/100 84/133/134 148/213/134 150/163/100
f 116/222/139 117/225/141 153/256/141 151/255/139
f 105/18/142 106/21/140 187/241/140 188/243/142
f 81/130/138 83/137/132 174/209/132 173/218/138
f 117/225/141 118/227/143 155/257/143 153/256/141
f 104/15/144 105/18/142 188/243/142 189/245/144
f 118/227/143 119/229/145 157/258/145 155/257/143
f 103/12/146 104/15/144 189/245/144 190/247/146
f 129/190/121 130/199/126 177/202/126 175/191/121
f 119/229/145 120/231/147 159/259/147 157/258/145
f 102/266/148 103/12/146 190/247/146 191/249/148
f 133/219/149 132/196/124 196/197/124 197/250/149
f 120/231/147 121/233/150 161/260/150 159/259/147
f 101/5/151 102/8/148 191/252/148 192/251/151
f 134/220/152 133/219/149 197/250/149 198/253/152
f 121/233/150 122/234/153 163/261/153 161/260/150
f 100/45/119 101/5/151 192/251/151 180/187/119
f 135/224/154 134/223/152 198/248/152 199/246/154
f 122/234/153 123/235/155 165/262/155 163/261/153
f 98/41/116 97/194/123 176/195/123 178/185/116
f 136/226/156 135/224/154 199/246/154 200/244/156
f 123/235/155 124/236/157 167/263/157 165/262/155
f 137/228/158 136/226/156 200/244/156 201/242/158
f 124/236/157 125/237/159 169/264/159 167/263/157
f 138/230/160 137/228/158 201/242/158 202/240/160
f 125/237/159 126/238/161 171/265/161 169/264/159
f 139/232/162 138/230/160 202/240/160 203/239/162
f 126/238/161 128/174/107 194/177/107 171/265/161
f 140/216/137 139/232/162 203/239/162 204/217/137
f 113/214/136 114/167/103 147/170/103 145/215/136
f 212/267/97 16/67/36 21/72/41 211/268/97
f 211/268/97 21/72/41 26/77/46 210/269/97
f 210/269/97 26/77/46 31/82/51 209/128/97
f 61/112/81 211/268/97 210/269/97 56/107/76
f 56/107/76 210/269/97 209/128/97 51/102/71
f 51/102/71 209/128/97 41/92/61 46/97/66
f 66/117/86 212/267/97 211/268/97 61/112/81
f 71/122/91 213/270/97 212/267/97 66/117/86
f 213/270/97 11/62/31 16/67/36 212/267/97
f 76/127/96 1/57/26 213/270/97 71/122/91
f 1/57/26 6/56/25 11/62/31 213/270/97
f 98/41/14 246/40/14 215/271/98 97/194/98
f 110/33/11 240/32/11 242/37/12 111/36/12
f 108/27/9 236/26/9 238/31/10 109/30/10
f 106/21/7 232/20/7 234/25/8 107/24/8
f 104/15/5 228/14/5 230/19/6 105/18/6
f 102/266/3 224/272/3 226/13/4 103/12/4
f 100/45/16 220/44/16 222/6/2 101/5/2
f 218/273/163 215/274/164 216/3/164 217/2/163
f 220/275/165 218/273/163 217/2/163 219/1/165
f 222/276/166 220/275/165 219/1/165 221/46/166
f 224/277/167 222/276/166 221/46/166 223/10/167
f 226/278/168 224/277/167 223/10/167 225/9/168
f 228/279/169 226/278/168 225/9/168 227/11/169
f 230/280/170 228/279/169 227/11/169 229/16/170
f 232/281/171 230/280/170 229/16/170 231/17/171
f 234/282/172 232/281/171 231/17/171 233/22/172
f 236/283/173 234/282/172 233/22/172 235/23/173
f 238/284/174 236/283/173 235/23/173 237/28/174
f 240/285/175 238/284/174 237/28/174 239/29/175
f 242/286/176 240/285/175 239/29/175 241/34/176
f 244/287/177 242/286/176 241/34/176 243/35/177
f 246/288/178 244/287/177 243/35/177 245/47/178
f 215/274/164 246/288/178 245/47/178 216/3/164
f 97/194/98 215/271/98 218/43/15 99/42/15
s 0
f 259/289/97 248/290/97 250/291/97 260/292/97
f 288/293/98 283/294/98 254/295/98 261/296/98
f 261/297/1 254/298/1 252/299/1 262/300/1
f 280/301/7 276/302/7 248/303/7 259/304/7
f 285/305/3 253/306/3 251/307/3 284/308/3
f 287/309/7 286/310/7 257/311/7 263/312/7
f 263/312/7 257/311/7 258/313/7 264/314/7
f 279/315/98 277/316/98 255/317/98 265/318/98
f 265/318/98 255/317/98 256/319/98 266/320/98
f 278/321/7 282/322/7 267/323/7 247/324/7
f 253/325/1 268/326/1 271/327/1 251/328/1
f 285/329/98 289/330/98 268/331/98 253/332/98
f 247/333/97 267/334/97 273/335/97 249/336/97
f 265/337/3 266/338/3 263/339/3 264/340/3
f 267/323/7 282/322/7 280/301/7 259/304/7
f 271/327/1 268/326/1 261/297/1 262/300/1
f 281/341/98 273/342/98 260/343/98 279/315/98
f 289/330/98 270/344/98 266/320/98 288/293/98
f 290/345/7 271/346/7 262/347/7 287/309/7
f 270/348/97 269/349/97 263/339/97 266/338/97
f 273/335/97 267/334/97 259/289/97 260/292/97
f 282/322/7 274/350/7 264/314/7 280/301/7
f 274/351/1 272/352/1 265/337/1 264/340/1
f 272/353/98 281/341/98 279/315/98 265/318/98
f 249/354/98 273/342/98 281/341/98 275/355/98
f 260/343/98 250/356/98 277/316/98 279/315/98
f 249/357/3 275/358/3 278/359/3 247/360/3
f 264/314/7 258/313/7 276/302/7 280/301/7
f 269/361/7 290/345/7 287/309/7 263/312/7
f 268/331/98 289/330/98 288/293/98 261/296/98
f 251/362/7 271/346/7 290/345/7 284/363/7
f 262/347/7 252/364/7 286/310/7 287/309/7
f 266/320/98 256/319/98 283/294/98 288/293/98
f 272/352/3 274/351/3 282/365/3 281/366/3
f 278/359/1 275/358/1 281/366/1 282/365/1
f 269/349/3 270/348/3 289/367/3 290/368/3
f 285/305/97 284/308/97 290/368/97 289/367/97
s 1
f 323/369/11 326/370/11 325/371/179 324/372/179
f 324/372/179 325/371/179 328/373/180 327/374/180
f 327/374/180 328/373/180 330/375/181 329/376/181
f 329/376/181 330/375/181 332/377/1 331/378/1
f 331/378/1 332/377/1 334/379/182 333/380/182
f 333/380/182 334/379/182 336/381/183 335/382/183
f 335/382/183 336/381/183 338/383/184 337/384/184
f 337/384/184 338/383/184 340/385/3 339/386/3
f 339/386/3 340/385/3 342/387/185 341/388/185
f 341/388/185 342/387/185 344/389/186 343/390/186
f 343/390/186 344/389/186 346/391/187 345/392/187
f 377/393/98 374/394/98 356/395/98 357/396/98
f 376/397/7 373/398/7 360/399/7 358/400/7
f 349/401/188 350/402/188 352/403/189 351/404/189
f 322/405/184 320/406/183 319/407/183 321/408/184
f 351/404/189 352/403/189 354/409/190 353/410/190
f 353/410/190 354/409/190 326/370/11 323/369/11
f 292/411/3 322/405/184 321/408/184 291/412/3
f 293/413/98 291/414/98 323/415/98 324/416/98
f 292/417/7 294/418/7 325/419/7 326/420/7
f 295/421/98 293/413/98 324/416/98 327/422/98
f 294/418/7 296/423/7 328/424/7 325/419/7
f 297/425/98 295/421/98 327/422/98 329/426/98
f 296/423/7 298/427/7 330/428/7 328/424/7
f 299/429/98 297/425/98 329/426/98 331/430/98
f 298/427/7 300/431/7 332/432/7 330/428/7
f 301/433/98 299/429/98 331/430/98 333/434/98
f 300/431/7 302/435/7 334/436/7 332/432/7
f 303/437/98 301/433/98 333/434/98 335/438/98
f 302/435/7 304/439/7 336/440/7 334/436/7
f 305/441/98 303/437/98 335/438/98 337/442/98
f 304/439/7 306/443/7 338/444/7 336/440/7
f 307/445/98 305/441/98 337/442/98 339/446/98
f 306/443/7 308/447/7 340/448/7 338/444/7
f 309/449/98 307/445/98 339/446/98 341/450/98
f 308/447/7 310/451/7 342/452/7 340/448/7
f 311/453/98 309/449/98 341/450/98 343/454/98
f 310/451/7 312/455/7 344/456/7 342/452/7
f 313/457/98 311/453/98 343/454/98 345/458/98
f 312/455/7 314/459/7 346/460/7 344/456/7
f 315/461/98 313/457/98 345/458/98 347/462/98
f 314/459/7 316/463/7 348/464/7 346/460/7
f 317/465/98 315/461/98 347/462/98 349/466/98
f 316/463/7 318/467/7 350/468/7 348/464/7
f 319/469/98 317/465/98 349/466/98 351/470/98
f 318/467/7 320/471/7 352/472/7 350/468/7
f 321/473/98 319/469/98 351/470/98 353/474/98
f 320/471/7 322/475/7 354/476/7 352/472/7
f 291/414/98 321/473/98 353/474/98 323/415/98
f 322/475/7 292/417/7 326/420/7 354/476/7
f 320/406/183 318/477/182 317/478/182 319/407/183
f 318/477/182 316/479/1 315/480/1 317/478/182
f 316/481/1 314/482/181 313/483/181 315/484/1
f 314/482/181 312/485/180 311/486/180 313/483/181
f 312/485/180 310/487/179 309/488/179 311/486/180
f 310/487/179 308/489/11 307/490/11 309/488/179
f 308/489/11 306/491/190 305/492/190 307/490/11
f 306/491/190 304/493/189 303/494/189 305/492/190
f 304/493/189 302/495/191 301/496/191 303/494/189
f 302/495/191 300/497/97 299/498/97 301/496/191
f 300/497/97 298/499/192 297/500/192 299/498/97
f 298/499/192 296/501/186 295/502/186 297/500/192
f 296/501/186 294/503/185 293/504/185 295/502/186
f 294/503/185 292/411/3 291/412/3 293/504/185
f 373/505/193 375/506/193 359/507/194 360/508/194
f 375/509/98 377/393/98 357/396/98 359/510/98
f 378/511/7 376/397/7 358/400/7 355/512/7
f 374/513/195 378/514/195 355/515/196 356/516/196
f 345/392/187 346/391/187 366/517/197 363/518/197
f 346/460/7 348/464/7 362/519/7 366/520/7
f 349/466/98 347/462/98 364/521/98 365/522/98
f 350/402/188 349/401/188 365/523/198 361/524/198
f 348/464/7 350/468/7 361/525/7 362/519/7
f 347/462/98 345/458/98 363/526/98 364/521/98
f 383/527/199 381/528/199 372/529/200 368/530/200
f 381/531/7 379/532/7 370/533/7 372/534/7
f 384/535/98 380/536/98 371/537/98 369/538/98
f 382/539/201 384/540/201 369/541/202 367/542/202
f 379/532/7 382/543/7 367/544/7 370/533/7
f 380/536/98 383/545/98 368/546/98 371/537/98
f 368/530/200 372/529/200 378/514/195 374/513/195
f 372/534/7 370/533/7 376/397/7 378/511/7
f 369/538/98 371/537/98 377/393/98 375/509/98
f 367/542/202 369/541/202 375/506/193 373/505/193
f 370/533/7 367/544/7 373/398/7 376/397/7
f 371/537/98 368/546/98 374/394/98 377/393/98
f 364/521/98 363/526/98 383/545/98 380/536/98
f 362/519/7 361/525/7 382/543/7 379/532/7
f 361/524/203 365/523/203 384/540/201 382/539/201
f 365/522/98 364/521/98 380/536/98 384/535/98
f 366/520/7 362/519/7 379/532/7 381/531/7
f 363/518/204 366/517/204 381/528/199 383/527/199
