# Blender 4.1.1
# www.blender.org
o grind_rail_04
v 0.020000 0.260000 0.040000
v 0.020000 0.300000 0.040000
v 0.020000 0.260000 -0.040000
v 0.020000 0.300000 -0.040000
v 1.430000 0.008192 0.040000
v 1.430000 0.000000 0.040000
v 1.500000 0.000000 -0.040000
v 1.500000 0.000000 0.040000
v 1.460000 0.230234 0.040000
v 1.429469 0.260000 0.040000
v 1.429469 0.260000 -0.040000
v 1.460000 0.230234 -0.040000
v 1.448142 0.300000 0.040000
v 1.500000 0.248267 0.040000
v 1.500000 0.248142 -0.040000
v 1.448142 0.300000 -0.040000
v 0.020000 0.008192 0.040000
v 0.020000 0.008192 -0.040000
v 1.460000 0.008192 0.040000
v 1.460000 0.008192 -0.040000
v 1.500000 0.008192 0.040000
v 1.500000 0.008192 -0.040000
v 0.050000 0.000000 -0.100000
v 0.050000 0.000000 0.100000
v 0.050000 0.008192 -0.100000
v 0.050000 0.008192 0.100000
v 1.430000 0.000000 -0.100000
v 1.430000 0.000000 0.100000
v 1.500000 0.000000 -0.100000
v 1.500000 0.000000 0.100000
v 1.430000 0.008192 -0.100000
v 1.500000 0.008192 -0.100000
v 1.430000 0.008192 0.100000
v 1.500000 0.008192 0.100000
v -0.020000 0.260000 0.040000
v -0.020000 0.300000 0.040000
v -0.020000 0.260000 -0.040000
v -0.020000 0.300000 -0.040000
v -1.430000 0.008192 0.040000
v -1.430000 0.000000 0.040000
v -1.500000 0.000000 -0.040000
v -1.500000 0.000000 0.040000
v -1.460000 0.230234 0.040000
v -1.429469 0.260000 0.040000
v -1.429469 0.260000 -0.040000
v -1.460000 0.230234 -0.040000
v -1.448142 0.300000 0.040000
v -1.500000 0.248267 0.040000
v -1.500000 0.248142 -0.040000
v -1.448142 0.300000 -0.040000
v -0.020000 0.008192 0.040000
v -0.020000 0.008192 -0.040000
v -1.460000 0.008192 0.040000
v -1.460000 0.008192 -0.040000
v -1.500000 0.008192 0.040000
v -1.500000 0.008192 -0.040000
v -0.050000 0.000000 -0.100000
v -0.050000 0.000000 0.100000
v -0.050000 0.008192 -0.100000
v -0.050000 0.008192 0.100000
v -1.430000 0.000000 -0.100000
v -1.430000 0.000000 0.100000
v -1.500000 0.000000 -0.100000
v -1.500000 0.000000 0.100000
v -1.430000 0.008192 -0.100000
v -1.500000 0.008192 -0.100000
v -1.430000 0.008192 0.100000
v -1.500000 0.008192 0.100000
v 1.430000 0.008192 -0.040000
v 1.430000 0.000000 -0.040000
v 1.460000 0.000000 0.100000
v 1.460000 0.008192 0.100000
v 1.460000 0.000000 -0.100000
v 1.460000 0.008192 -0.100000
v 1.460000 0.000000 -0.040000
v 1.460000 0.000000 0.040000
v -1.430000 0.008192 -0.040000
v -1.430000 0.000000 -0.040000
v -1.460000 0.000000 0.100000
v -1.460000 0.008192 0.100000
v -1.460000 0.000000 -0.100000
v -1.460000 0.008192 -0.100000
v -1.460000 0.000000 -0.040000
v -1.460000 0.000000 0.040000
vn -0.0000 1.0000 -0.0000
vn -0.0000 -0.0000 -1.0000
vn -0.0000 -0.0000 1.0000
vn 1.0000 -0.0000 -0.0000
vn -0.0000 -1.0000 -0.0000
vn -0.6981 -0.7160 -0.0000
vn 0.7067 0.7075 -0.0006
vn -1.0000 -0.0000 -0.0000
vn 0.6981 -0.7160 -0.0000
vn -0.7067 0.7075 -0.0006
vt 0.449881 0.048458
vt 0.461093 0.048458
vt 0.461093 0.065277
vt 0.449881 0.065277
vt 0.431035 0.165479
vt 0.431035 0.176693
vt 0.419821 0.176693
vt 0.419821 0.165479
vt 0.826214 0.075485
vt 0.831449 0.086699
vt 0.431044 0.086699
vt 0.431044 0.075485
vt 0.019424 0.176693
vt 0.024659 0.165479
vt 0.198916 0.034596
vt 0.190513 0.034596
vt 0.190513 0.032301
vt 0.198916 0.032301
vt 0.197721 0.104488
vt 0.197721 0.102188
vt 0.214565 0.102188
vt 0.214565 0.104488
vt 0.079086 0.207308
vt 0.079086 0.184881
vt 0.474210 0.184881
vt 0.474210 0.207308
vt 0.175264 0.104488
vt 0.175264 0.102188
vt 0.092722 0.239338
vt 0.092722 0.216911
vt 0.493086 0.216911
vt 0.493086 0.239338
vt 0.067133 0.207308
vt 0.067133 0.184881
vt 0.072187 0.239338
vt 0.072162 0.216911
vt 0.834774 0.067139
vt 0.845988 0.072195
vt 0.004885 0.162154
vt 0.016099 0.157133
vt 0.449881 0.026033
vt 0.441471 0.048458
vt 0.441471 0.026033
vt 0.023905 0.027309
vt 0.023905 0.004879
vt 0.094507 0.004879
vt 0.094507 0.027309
vt 0.081285 0.061778
vt 0.025218 0.061778
vt 0.025218 0.033745
vt 0.081285 0.033745
vt 0.004886 0.207308
vt 0.004886 0.184881
vt 0.004884 0.239307
vt 0.004895 0.216880
vt 0.834774 0.004886
vt 0.845988 0.004886
vt 0.004885 0.094881
vt 0.016099 0.094881
vt 0.488531 0.026035
vt 0.477317 0.026035
vt 0.468907 0.009215
vt 0.496941 0.009215
vt 0.152247 0.112343
vt 0.096225 0.112343
vt 0.096225 0.110048
vt 0.152247 0.110048
vt 0.249701 0.110725
vt 0.247407 0.110725
vt 0.247407 0.102322
vt 0.249701 0.102322
vt 0.488531 0.048461
vt 0.496941 0.065281
vt 0.228815 0.113394
vt 0.226520 0.113394
vt 0.226520 0.102190
vt 0.228815 0.102190
vt 0.179309 0.034596
vt 0.179309 0.032301
vt 0.236631 0.110593
vt 0.236631 0.102190
vt 0.238925 0.102190
vt 0.238925 0.110593
vt 0.071097 0.109717
vt 0.087940 0.109717
vt 0.087940 0.112017
vt 0.071097 0.112017
vt 0.236631 0.121797
vt 0.238925 0.121797
vt 0.048639 0.109717
vt 0.048639 0.112017
vt 0.158421 0.104488
vt 0.158421 0.102188
vt 0.513167 0.026038
vt 0.513167 0.009216
vt 0.524382 0.009216
vt 0.524382 0.026038
vt 0.031796 0.109717
vt 0.031796 0.112017
vt 0.087952 0.102192
vt 0.087952 0.104486
vt 0.031930 0.104486
vt 0.031930 0.102192
vt 0.419829 0.086699
vt 0.419829 0.075485
vt 0.259324 0.014529
vt 0.259324 0.006118
vt 0.281753 0.006118
vt 0.281753 0.014529
vt 0.024660 0.075485
vt 0.019424 0.086700
vt 0.504300 0.216911
vt 0.504300 0.239338
vt 0.217865 0.017335
vt 0.234682 0.017335
vt 0.234682 0.025743
vt 0.217865 0.025743
vt 0.477317 0.048461
vt 0.468907 0.065281
vt 0.556219 0.184886
vt 0.951301 0.184886
vt 0.951301 0.207311
vt 0.556219 0.207311
vt 0.904664 0.239338
vt 0.904664 0.216911
vt 0.831432 0.176693
vt 0.826197 0.165479
vt 0.419829 0.004886
vt 0.431044 0.004886
vt 0.228815 0.121797
vt 0.226520 0.121797
vt 0.834757 0.157134
vt 0.834757 0.094881
vt 0.845971 0.094881
vt 0.845971 0.162154
vt 0.544267 0.184886
vt 0.544267 0.207311
vt 0.135061 0.102190
vt 0.151904 0.102190
vt 0.151904 0.104490
vt 0.135061 0.104490
vt 0.925224 0.216911
vt 0.925199 0.239338
vt 0.112603 0.104490
vt 0.112603 0.102190
vt 0.016100 0.067140
vt 0.004885 0.072195
vt 0.217865 0.006123
vt 0.234682 0.006123
vt 0.100641 0.004886
vt 0.171227 0.004886
vt 0.171227 0.027312
vt 0.100641 0.027312
vt 0.992491 0.216880
vt 0.992501 0.239307
vt 0.482028 0.207311
vt 0.482028 0.184886
vt 0.004885 0.004886
vt 0.016100 0.004886
vt 0.249701 0.121929
vt 0.247407 0.121929
vt 0.095760 0.104490
vt 0.095760 0.102190
vt 0.298576 0.006118
vt 0.298576 0.014529
vt 0.195442 0.025743
vt 0.195442 0.017335
vt 0.259324 0.025744
vt 0.242502 0.025744
vt 0.242502 0.014529
vt 0.242502 0.006118
vt 0.195442 0.006123
vt 0.146058 0.035803
vt 0.146058 0.038103
vt 0.129215 0.038103
vt 0.129215 0.035803
vt 0.441471 0.065277
vt 0.441471 0.009214
vt 0.449881 0.009214
vt 0.461093 0.026033
vt 0.461093 0.009214
vt 0.504756 0.026038
vt 0.504756 0.009216
vt 0.504756 0.048469
vt 0.513167 0.048469
vt 0.524382 0.048469
vt 0.513167 0.065291
vt 0.524382 0.065291
vt 0.504756 0.065291
vt 0.431035 0.094881
vt 0.419821 0.094881
vt 0.204855 0.032602
vt 0.232927 0.032602
vt 0.232927 0.034902
vt 0.204855 0.034902
vt 0.106758 0.035803
vt 0.106758 0.038103
vt 0.089915 0.038103
vt 0.089915 0.035803
vt 0.298576 0.025744
vt 0.281753 0.025744
vt 0.178625 0.017335
vt 0.178625 0.006123
vt 0.178625 0.025743
vt 0.159541 0.113000
vt 0.159541 0.110700
vt 0.187613 0.110700
vt 0.187613 0.113000
s 1
f 20/1/1 22/2/1 32/3/1 74/4/1
f 37/5/2 38/6/2 4/7/2 3/8/2
f 10/9/3 13/10/3 2/11/3 1/12/3
f 16/13/2 11/14/2 3/8/2 4/7/2
f 31/15/2 74/16/2 73/17/2 27/18/2
f 22/19/4 7/20/4 29/21/4 32/22/4
f 11/23/5 10/24/5 1/25/5 3/26/5
f 22/19/4 21/27/4 8/28/4 7/20/4
f 13/29/1 16/30/1 4/31/1 2/32/1
f 12/33/6 9/34/6 10/24/6 11/23/6
f 16/30/7 13/29/7 14/35/7 15/36/7
f 9/37/3 14/38/3 13/10/3 10/9/3
f 15/39/2 12/40/2 11/14/2 16/13/2
f 19/41/1 20/1/1 69/42/1 5/43/1
f 3/44/4 1/45/4 17/46/4 18/47/4
f 23/48/5 24/49/5 58/50/5 57/51/5
f 9/34/8 12/33/8 20/52/8 19/53/8
f 15/36/4 14/35/4 21/54/4 22/55/4
f 14/38/3 9/37/3 19/56/3 21/57/3
f 12/40/2 15/39/2 22/58/2 20/59/2
f 17/60/1 51/61/1 60/62/1 26/63/1
f 25/64/4 26/65/4 24/66/4 23/67/4
f 80/68/3 79/69/3 62/70/3 67/71/3
f 18/72/1 17/60/1 26/63/1 25/73/1
f 82/74/2 81/75/2 63/76/2 66/77/2
f 74/16/2 32/78/2 29/79/2 73/17/2
f 72/80/3 33/81/3 28/82/3 71/83/3
f 69/84/8 31/85/8 27/86/8 70/87/8
f 34/88/3 72/80/3 71/83/3 30/89/3
f 5/90/8 69/84/8 70/87/8 6/91/8
f 8/28/4 21/27/4 34/92/4 30/93/4
f 75/94/5 73/95/5 29/96/5 7/97/5
f 33/98/8 5/90/8 6/91/8 28/99/8
f 59/100/8 57/101/8 58/102/8 60/103/8
f 2/11/3 36/104/3 35/105/3 1/12/3
f 53/106/1 39/107/1 77/108/1 54/109/1
f 44/110/3 35/105/3 36/104/3 47/111/3
f 4/31/1 38/112/1 36/113/1 2/32/1
f 83/114/5 81/115/5 61/116/5 78/117/5
f 52/118/1 59/119/1 60/62/1 51/61/1
f 45/120/5 37/121/5 35/122/5 44/123/5
f 47/124/1 36/113/1 38/112/1 50/125/1
f 50/126/2 38/6/2 37/5/2 45/127/2
f 1/12/3 35/105/3 51/128/3 17/129/3
f 65/130/2 61/131/2 81/75/2 82/74/2
f 46/132/2 54/133/2 56/134/2 49/135/2
f 46/136/9 45/120/9 44/123/9 43/137/9
f 56/138/8 66/139/8 63/140/8 41/141/8
f 50/125/10 49/142/10 48/143/10 47/124/10
f 56/138/8 41/141/8 42/144/8 55/145/8
f 43/146/3 44/110/3 47/111/3 48/147/3
f 83/114/5 41/148/5 63/149/5 81/115/5
f 37/150/8 52/151/8 51/152/8 35/153/8
f 49/142/8 56/154/8 55/155/8 48/143/8
f 43/137/4 53/156/4 54/157/4 46/136/4
f 48/147/3 55/158/3 53/159/3 43/146/3
f 68/160/3 64/161/3 79/69/3 80/68/3
f 42/144/8 64/162/8 68/163/8 55/145/8
f 54/109/1 77/108/1 65/164/1 82/165/1
f 40/166/5 84/167/5 83/114/5 78/117/5
f 55/168/1 68/169/1 80/170/1 53/106/1
f 53/106/1 80/170/1 67/171/1 39/107/1
f 84/167/5 42/172/5 41/148/5 83/114/5
f 67/173/4 62/174/4 40/175/4 39/176/4
f 20/1/1 74/4/1 31/177/1 69/42/1
f 19/41/1 5/43/1 33/178/1 72/179/1
f 21/180/1 19/41/1 72/179/1 34/181/1
f 75/94/5 70/182/5 27/183/5 73/95/5
f 6/184/5 70/182/5 75/94/5 76/185/5
f 76/185/5 75/94/5 7/97/5 8/186/5
f 71/187/5 76/185/5 8/186/5 30/188/5
f 28/189/5 6/184/5 76/185/5 71/187/5
f 59/119/1 52/118/1 18/72/1 25/73/1
f 52/190/2 37/5/2 3/8/2 18/191/2
f 26/192/3 60/193/3 58/194/3 24/195/3
f 77/196/4 78/197/4 61/198/4 65/199/4
f 39/176/4 40/175/4 78/197/4 77/196/4
f 49/135/2 50/126/2 45/127/2 46/132/2
f 54/109/1 82/165/1 66/200/1 56/201/1
f 79/202/5 64/203/5 42/172/5 84/167/5
f 62/204/5 79/202/5 84/167/5 40/166/5
f 57/205/2 59/206/2 25/207/2 23/208/2
