# Blender 4.0.2
# www.blender.org
o hand_dryer
v 0.034884 -0.028848 0.170658
v 0.036628 -0.020498 0.173321
v 0.041593 -0.013418 0.175579
v 0.049024 -0.008688 0.177088
v 0.057790 -0.007026 0.177618
v 0.066555 -0.008688 0.177088
v 0.073986 -0.013418 0.175579
v 0.078951 -0.020498 0.173321
v 0.080695 -0.028848 0.170658
v 0.078951 -0.037199 0.167994
v 0.073986 -0.044279 0.165736
v 0.066555 -0.049009 0.164227
v 0.057790 -0.050670 0.163698
v 0.049024 -0.049009 0.164227
v 0.041593 -0.044279 0.165736
v 0.036628 -0.037199 0.167994
v 0.034885 -0.026230 0.162448
v 0.036628 -0.017879 0.165112
v 0.041593 -0.010800 0.167370
v 0.049024 -0.006069 0.168878
v 0.057790 -0.004408 0.169408
v 0.066555 -0.006069 0.168878
v 0.073986 -0.010800 0.167370
v 0.078951 -0.017879 0.165112
v 0.080695 -0.026230 0.162448
v 0.078951 -0.034581 0.159785
v 0.073986 -0.041661 0.157527
v 0.066555 -0.046391 0.156018
v 0.057790 -0.048052 0.155488
v 0.049024 -0.046391 0.156018
v 0.041593 -0.041661 0.157527
v 0.036628 -0.034581 0.159785
v 0.039570 -0.023935 0.155253
v 0.040956 -0.017292 0.157372
v 0.040956 -0.019587 0.164567
v 0.044906 -0.011661 0.159168
v 0.044906 -0.013956 0.166363
v 0.050817 -0.007898 0.160368
v 0.050817 -0.010193 0.167563
v 0.057790 -0.006577 0.160789
v 0.057790 -0.008872 0.167985
v 0.064762 -0.007898 0.160368
v 0.064762 -0.010193 0.167563
v 0.070673 -0.011661 0.159168
v 0.070673 -0.013956 0.166363
v 0.074623 -0.017292 0.157372
v 0.074623 -0.019587 0.164567
v 0.076010 -0.023935 0.155253
v 0.076010 -0.026230 0.162448
v 0.074623 -0.030578 0.153134
v 0.074623 -0.032873 0.160330
v 0.070673 -0.036210 0.151338
v 0.070673 -0.038505 0.158533
v 0.064762 -0.039973 0.150138
v 0.064762 -0.042267 0.157333
v 0.057790 -0.041294 0.149717
v 0.057790 -0.043589 0.156912
v 0.050817 -0.039973 0.150138
v 0.050817 -0.042267 0.157333
v 0.044906 -0.036210 0.151338
v 0.044906 -0.038505 0.158533
v 0.040956 -0.030578 0.153134
v 0.040956 -0.032873 0.160329
v 0.039569 -0.026230 0.162448
v 0.057790 -0.028848 0.170658
v -0.055331 0.000612 0.164406
v -0.035077 -0.003719 0.161604
v -0.020182 -0.015554 0.154010
v -0.014702 -0.031188 0.144194
v -0.075586 -0.003719 0.161604
v -0.090481 -0.015554 0.154010
v -0.055331 -0.041415 0.190987
v -0.035982 -0.042932 0.186151
v -0.022011 -0.047079 0.173105
v -0.016621 -0.051532 0.155856
v -0.095961 -0.031188 0.144194
v -0.074681 -0.042932 0.186151
v -0.088652 -0.047079 0.173105
v -0.094041 -0.051532 0.155856
v -0.055331 0.009540 0.148042
v -0.055331 -0.016000 0.180705
v -0.055331 -0.069395 0.192826
v -0.035000 0.004537 0.146480
v -0.035240 -0.019140 0.176684
v -0.037431 -0.069637 0.187890
v -0.075663 0.004537 0.146480
v -0.020100 -0.009120 0.142215
v -0.075422 -0.019140 0.176684
v -0.020593 -0.027719 0.165763
v -0.073232 -0.069637 0.187890
v -0.024367 -0.070299 0.174451
v -0.090562 -0.009120 0.142215
v -0.014396 -0.026982 0.136638
v -0.090070 -0.027719 0.165763
v -0.015283 -0.038870 0.151686
v -0.019128 -0.070795 0.156935
v -0.086296 -0.070299 0.174451
v -0.096266 -0.026982 0.136638
v -0.095379 -0.038870 0.151686
v -0.091535 -0.070795 0.156935
v -0.016871 -0.071193 0.122907
v -0.015301 -0.052532 0.128690
v -0.015748 -0.052420 0.140095
v -0.017849 -0.070946 0.137966
v -0.093791 -0.071193 0.122907
v -0.095362 -0.052532 0.128690
v -0.094915 -0.052420 0.140095
v -0.092813 -0.070946 0.137966
v -0.055331 -0.092469 0.191891
v -0.038691 -0.092469 0.187064
v -0.026510 -0.092469 0.173546
v -0.021506 -0.092469 0.155842
v -0.071972 -0.092469 0.187064
v -0.084153 -0.092469 0.173546
v -0.089157 -0.092469 0.155842
v -0.019938 -0.092469 0.116051
v -0.019938 -0.092469 0.135899
v -0.090724 -0.092469 0.116051
v -0.090724 -0.092469 0.135899
v -0.055331 -0.004003 0.160851
v -0.037832 -0.007767 0.158451
v -0.025070 -0.017974 0.151999
v -0.020308 -0.031684 0.143481
v -0.072831 -0.007767 0.158451
v -0.085593 -0.017974 0.151999
v -0.055331 -0.042696 0.185275
v -0.038799 -0.043935 0.181129
v -0.026893 -0.047359 0.169974
v -0.022157 -0.051175 0.154769
v -0.090355 -0.031684 0.143481
v -0.071863 -0.043935 0.181129
v -0.083770 -0.047359 0.169974
v -0.088506 -0.051175 0.154769
v -0.055331 0.004529 0.145177
v -0.055331 -0.019220 0.175779
v -0.055331 -0.069433 0.187017
v -0.037693 0.000103 0.143925
v -0.038023 -0.021913 0.172315
v -0.040349 -0.069525 0.182874
v -0.072970 0.000103 0.143925
v -0.024924 -0.011873 0.140551
v -0.072640 -0.021913 0.172315
v -0.025491 -0.029244 0.162972
v -0.070313 -0.069525 0.182874
v -0.029287 -0.069872 0.171479
v -0.085739 -0.011873 0.140551
v -0.019997 -0.027668 0.136016
v -0.085172 -0.029244 0.162972
v -0.020856 -0.039023 0.150689
v -0.024629 -0.070183 0.155893
v -0.081376 -0.069872 0.171479
v -0.090666 -0.027668 0.136015
v -0.089807 -0.039023 0.150689
v -0.086034 -0.070183 0.155893
v -0.022423 -0.070524 0.122677
v -0.020873 -0.052051 0.128426
v -0.021318 -0.051927 0.139820
v -0.023399 -0.070296 0.137646
v -0.088240 -0.070524 0.122677
v -0.089790 -0.052051 0.128426
v -0.089345 -0.051927 0.139820
v -0.087264 -0.070296 0.137646
v -0.055331 -0.092201 0.186083
v -0.041676 -0.092093 0.182096
v -0.031474 -0.091901 0.170695
v -0.027011 -0.091850 0.154858
v -0.068987 -0.092093 0.182096
v -0.079189 -0.091901 0.170695
v -0.083652 -0.091850 0.154858
v -0.025487 -0.091766 0.115884
v -0.025490 -0.091812 0.135618
v -0.085176 -0.091766 0.115884
v -0.085173 -0.091812 0.135618
v -0.006385 -0.098964 0.114978
v 0.012074 -0.092999 0.126803
v -0.006385 -0.098964 -0.000000
v 0.020828 -0.079698 0.137520
v -0.018739 -0.024828 0.137804
v -0.040609 -0.003626 0.144334
v -0.021673 -0.017512 0.140057
v -0.026513 -0.011070 0.142041
v -0.032756 -0.005921 0.143627
v -0.024453 0.034169 0.173168
v 0.004203 0.000124 0.162509
v -0.013441 0.031492 0.172330
v -0.005914 0.025164 0.170348
v 0.000200 0.014269 0.166938
v -0.006767 -0.011484 0.146932
v -0.010252 -0.000332 0.149979
v -0.015568 0.007890 0.152262
v -0.022897 0.014044 0.153973
v -0.032143 0.016639 0.154696
v 0.041016 -0.079508 0.137529
v 0.042908 -0.098975 0.114978
v 0.042908 -0.092988 0.126777
v 0.042908 -0.098964 -0.000000
v 0.024567 0.005058 0.164500
v 0.020264 0.023720 0.170741
v -0.022963 0.043704 0.175364
v -0.022963 0.057230 0.172695
v -0.006145 0.043704 0.175360
v -0.003924 0.057230 0.172690
v 0.017078 0.057230 0.172696
v 0.016913 0.041428 0.174960
v -0.004533 0.118503 0.000000
v -0.022963 0.118503 0.000000
v 0.016969 0.118503 0.000000
v 0.112502 0.056773 0.000000
v 0.112502 0.007624 -0.000000
v -0.004533 0.118503 0.121334
v -0.004403 0.105423 0.144244
v -0.004495 0.114672 0.134336
v -0.022963 0.105423 0.144245
v -0.022963 0.118503 0.121334
v -0.022963 0.114672 0.134336
v 0.016992 0.105423 0.144245
v 0.016969 0.118503 0.121334
v 0.016976 0.114672 0.134336
v 0.112502 0.007852 0.114432
v 0.112502 0.056441 0.116884
v -0.112502 -0.002573 -0.000000
v -0.112502 0.017468 0.000000
v -0.112502 0.035067 -0.000000
v -0.112502 -0.085964 0.105380
v -0.099502 -0.098964 0.114978
v -0.108694 -0.095156 0.112167
v -0.099502 -0.098964 -0.000000
v -0.112502 -0.085964 -0.000000
v -0.108694 -0.095156 0.000000
v 0.099501 -0.079546 0.137557
v 0.112502 -0.073945 0.125701
v 0.108694 -0.077909 0.134085
v 0.099501 -0.099010 0.114977
v 0.112502 -0.086012 0.111181
v 0.108694 -0.095204 0.114303
v 0.112502 -0.085964 -0.000000
v 0.099501 -0.098964 0.000000
v 0.108694 -0.095156 0.000000
v -0.112502 -0.002573 0.131067
v -0.099502 -0.003041 0.144525
v -0.108694 -0.002955 0.140568
v -0.099502 0.034169 0.173168
v -0.112502 0.035067 0.154777
v -0.108694 0.034169 0.167253
v 0.112502 -0.081369 0.119825
v 0.108694 -0.089959 0.124432
v -0.099502 0.016713 0.154719
v -0.112502 0.017468 0.140817
v -0.108694 0.017206 0.150799
v 0.099501 -0.092953 0.126787
v 0.112502 0.007624 0.151682
v 0.099514 0.005056 0.164500
v 0.108694 0.006221 0.160876
v 0.112502 0.025524 0.157640
v 0.099501 0.023720 0.170741
v 0.108694 0.024767 0.167077
v -0.112502 0.044036 0.161983
v -0.099502 0.043704 0.175364
v -0.108694 0.043823 0.171431
v -0.112502 0.054710 0.159087
v -0.099502 0.057230 0.172695
v -0.108694 0.056786 0.168535
v 0.099501 0.041428 0.174960
v 0.112502 0.042035 0.161741
v 0.108694 0.041606 0.171088
v 0.112502 0.056441 0.158067
v 0.099501 0.057230 0.172698
v 0.108694 0.057158 0.168319
v -0.112502 0.105503 -0.000000
v -0.099502 0.118503 0.000000
v -0.108694 0.114696 0.000000
v 0.099501 0.118503 0.000000
v 0.112502 0.105503 0.000000
v 0.108694 0.114696 0.000000
v -0.112502 0.097200 0.134003
v -0.099502 0.105423 0.144245
v -0.108694 0.103015 0.141245
v -0.112502 0.105503 0.119459
v -0.099502 0.118503 0.121334
v -0.108694 0.114696 0.120785
v -0.112502 0.103071 0.127713
v -0.099502 0.114672 0.134336
v -0.108694 0.111274 0.132396
v 0.112502 0.105503 0.119459
v 0.099501 0.118503 0.121334
v 0.108694 0.114696 0.120785
v 0.112502 0.097200 0.134004
v 0.099501 0.105424 0.144245
v 0.108694 0.103015 0.141245
v 0.112502 0.103071 0.127713
v 0.099501 0.114672 0.134336
v 0.108694 0.111274 0.132396
v 0.112502 -0.072137 -0.000000
v 0.112502 -0.072132 0.110415
v 0.112502 0.094254 0.118880
v 0.112502 0.094227 -0.000000
v -0.112502 0.053602 -0.000000
v -0.112502 0.053599 0.144152
v -0.112502 0.094468 0.121827
v -0.112502 0.094546 -0.000000
v -0.041791 -0.024827 0.137555
v -0.099502 -0.024827 0.137555
v -0.108694 -0.024827 0.132603
v -0.112502 -0.024827 0.123538
v -0.112502 -0.024827 -0.000000
v -0.040877 -0.098964 0.114979
v -0.042706 -0.098964 0.000000
v 0.112502 0.025634 0.134928
v 0.112502 0.042126 0.135612
v 0.042908 -0.085964 0.000000
v -0.006385 -0.085964 0.000000
v -0.042706 -0.085964 -0.000000
v -0.099502 -0.085964 0.000000
v 0.016969 0.105503 0.000000
v -0.004644 0.105503 -0.000000
v -0.022963 0.105503 0.000000
v -0.099502 0.105503 0.000000
v 0.099501 0.105503 0.000000
v 0.099501 -0.085964 0.000000
v -0.099502 0.052388 0.000000
v -0.099502 -0.002573 -0.000000
v -0.099502 0.020329 0.000000
v -0.099502 0.035067 0.000000
v 0.099501 0.056441 -0.000000
v -0.099502 -0.024827 0.000000
v 0.099501 0.007624 -0.000000
v 0.099501 0.094227 0.000000
v -0.099502 0.094546 0.000000
v 0.099501 -0.072137 0.000000
vn -1.0000 -0.0000 -0.0000
vn -0.9239 0.3646 0.1163
vn -0.7071 0.6737 0.2149
vn -0.3827 0.8802 0.2807
vn -0.0000 0.9527 0.3039
vn 0.3827 0.8802 0.2807
vn 0.7071 0.6737 0.2149
vn 0.9239 0.3646 0.1163
vn 1.0000 -0.0000 -0.0000
vn 0.9239 -0.3646 -0.1163
vn 0.7071 -0.6737 -0.2149
vn 0.3827 -0.8802 -0.2807
vn -0.0000 -0.9527 -0.3039
vn -0.3827 -0.8802 -0.2807
vn -0.7071 -0.6737 -0.2149
vn -0.9239 -0.3646 -0.1163
vn -0.0000 0.3039 -0.9527
vn -0.0000 -0.3039 0.9527
vn 0.4613 0.6952 0.5513
vn 0.8212 0.4389 0.3647
vn 0.8221 0.4951 0.2813
vn 0.4611 0.7780 0.4268
vn 0.9888 0.0844 0.1235
vn 0.9920 0.0907 0.0882
vn 0.9945 -0.0926 0.0499
vn 0.9959 -0.0805 0.0424
vn -0.4611 0.7780 0.4268
vn -0.4612 0.6952 0.5513
vn -0.0000 0.7863 0.6178
vn -0.0000 0.8775 0.4795
vn -0.8221 0.4951 0.2813
vn -0.8213 0.4383 0.3652
vn -0.0000 0.2182 0.9759
vn 0.4765 0.1700 0.8626
vn 0.4661 0.4606 0.7553
vn -0.0000 0.5325 0.8464
vn -0.4661 0.4606 0.7553
vn -0.4765 0.1700 0.8626
vn -0.8249 0.2637 0.5001
vn -0.8320 0.0484 0.5526
vn 0.8320 0.0483 0.5526
vn 0.8249 0.2637 0.5001
vn 0.9774 -0.0664 0.2009
vn 0.9746 0.0545 0.2171
vn -0.9920 0.0907 0.0882
vn -0.9888 0.0844 0.1232
vn -0.9959 -0.0805 0.0424
vn -0.9945 -0.0926 0.0499
vn -0.9746 0.0545 0.2171
vn -0.9774 -0.0664 0.2009
vn -0.0000 0.0127 0.9999
vn 0.4996 -0.0151 0.8661
vn 0.8495 -0.0724 0.5226
vn 0.9769 -0.1084 0.1844
vn 0.9917 -0.1162 0.0559
vn -0.9769 -0.1084 0.1844
vn -0.8495 -0.0724 0.5226
vn -0.4996 -0.0151 0.8661
vn -0.0000 -0.0461 0.9989
vn 0.5192 -0.0652 0.8522
vn -0.9917 -0.1159 0.0559
vn 0.9921 -0.1191 0.0392
vn -0.9921 -0.1194 0.0388
vn -0.9784 -0.1100 0.1750
vn -0.8620 -0.0986 0.4973
vn -0.5192 -0.0652 0.8522
vn -0.9919 -0.1160 0.0525
vn 0.9785 -0.1100 0.1744
vn 0.9919 -0.1160 0.0525
vn -0.9917 -0.1255 0.0287
vn 0.8620 -0.0986 0.4973
vn 0.9917 -0.1255 0.0287
vn -0.4617 -0.6973 -0.5482
vn -0.4624 -0.7781 -0.4253
vn -0.8255 -0.4909 -0.2785
vn -0.8246 -0.4356 -0.3608
vn -0.9931 -0.0814 -0.0847
vn -0.9900 -0.0767 -0.1181
vn -0.9958 0.0814 -0.0430
vn -0.9944 0.0931 -0.0501
vn 0.4624 -0.7781 -0.4253
vn -0.0000 -0.8783 -0.4782
vn -0.0000 -0.7888 -0.6146
vn 0.4617 -0.6973 -0.5482
vn 0.8255 -0.4909 -0.2785
vn 0.8246 -0.4361 -0.3604
vn -0.0000 -0.2172 -0.9761
vn -0.0000 -0.5326 -0.8464
vn -0.4661 -0.4606 -0.7554
vn -0.4777 -0.1683 -0.8622
vn 0.4661 -0.4606 -0.7554
vn 0.4777 -0.1684 -0.8622
vn 0.8359 -0.0445 -0.5471
vn 0.8279 -0.2604 -0.4967
vn -0.8279 -0.2604 -0.4967
vn -0.8359 -0.0445 -0.5471
vn -0.9758 -0.0504 -0.2128
vn -0.9784 0.0693 -0.1948
vn 0.9931 -0.0814 -0.0847
vn 0.9900 -0.0764 -0.1187
vn 0.9944 0.0931 -0.0501
vn 0.9958 0.0814 -0.0430
vn 0.9784 0.0693 -0.1948
vn 0.9758 -0.0504 -0.2128
vn -0.0000 -0.0126 -0.9999
vn -0.5029 0.0155 -0.8642
vn -0.8541 0.0739 -0.5148
vn -0.9778 0.1089 -0.1790
vn -0.9916 0.1166 -0.0554
vn 0.8542 0.0742 -0.5146
vn 0.9778 0.1089 -0.1789
vn 0.5029 0.0156 -0.8642
vn -0.5236 0.0654 -0.8495
vn -0.0000 0.0460 -0.9989
vn 0.9917 0.1161 -0.0557
vn -0.9921 0.1191 -0.0392
vn 0.9921 0.1191 -0.0392
vn 0.8665 0.0992 -0.4892
vn 0.9793 0.1101 -0.1699
vn 0.5236 0.0654 -0.8495
vn 0.9919 0.1161 -0.0522
vn -0.9919 0.1161 -0.0522
vn -0.9793 0.1101 -0.1699
vn 0.9917 0.1255 -0.0286
vn -0.8665 0.0992 -0.4892
vn -0.9917 0.1255 -0.0286
vn -0.0363 -0.9976 -0.0584
vn -0.0000 -0.9984 -0.0562
vn -0.0361 -0.9976 -0.0584
vn -0.0808 -0.9957 -0.0450
vn -0.0805 -0.9957 -0.0452
vn 0.0366 -0.9976 -0.0584
vn 0.0805 -0.9957 -0.0452
vn 0.0361 -0.9976 -0.0584
vn -0.1076 -0.9940 -0.0201
vn -0.1079 -0.9940 -0.0195
vn 0.1078 -0.9940 -0.0198
vn 0.1080 -0.9940 -0.0194
vn -0.1216 -0.9926 -0.0012
vn -0.1175 -0.9931 -0.0056
vn -0.1176 -0.9930 -0.0055
vn 0.1175 -0.9931 -0.0056
vn 0.1216 -0.9926 -0.0012
vn 0.1176 -0.9930 -0.0055
vn -0.0002 -0.9991 0.0434
vn -0.0001 -0.9997 0.0234
vn -0.0001 -1.0000 -0.0000
vn -0.0002 -1.0000 -0.0001
vn -0.0014 -0.2944 0.9557
vn -0.0042 -0.3843 0.9232
vn -0.0572 -0.3849 0.9212
vn -0.0621 -0.2938 0.9539
vn 0.0486 -0.3060 0.9508
vn -0.0028 -0.3061 0.9520
vn -0.0018 -0.3569 0.9341
vn 0.0506 -0.3527 0.9344
vn -0.4802 -0.3274 0.8138
vn -0.4797 -0.3340 0.8114
vn -0.1646 -0.3106 0.9362
vn -0.1667 -0.3089 0.9364
vn -0.0013 -0.0749 0.9972
vn -0.0158 -0.2642 0.9643
vn -0.0266 -0.2908 0.9564
vn -0.0054 -0.2785 0.9604
vn -0.9998 -0.0136 0.0172
vn 0.0012 -0.2266 0.9740
vn 0.0005 0.0220 0.9998
vn -0.0515 0.0173 0.9985
vn -0.0568 -0.2343 0.9705
vn 0.0575 -0.9972 0.0468
vn 0.0573 -0.9984 -0.0004
vn -0.9996 -0.0167 0.0248
vn -0.5734 -0.3351 0.7476
vn -0.5775 -0.3433 0.7407
vn 0.0035 -0.2522 0.9677
vn 0.0073 -0.0126 0.9999
vn -0.0130 -0.6127 0.7902
vn -0.0630 -0.3911 0.9182
vn -0.1618 -0.5565 0.8150
vn -0.0852 -0.3563 0.9305
vn -0.2936 -0.4914 0.8200
vn -0.1568 -0.3505 0.9233
vn -0.4153 -0.4206 0.8066
vn -0.0169 -0.7218 0.6919
vn -0.2188 -0.6493 0.7284
vn -0.3981 -0.5503 0.7340
vn -0.5380 -0.4431 0.7171
vn 0.9939 -0.0337 0.1048
vn 0.9931 -0.0407 0.1104
vn -0.0114 -0.3050 0.9523
vn -0.0065 -0.3702 0.9289
vn -0.0000 0.9996 0.0285
vn -0.0000 1.0000 -0.0000
vn 0.0007 0.4339 0.9009
vn -0.0000 0.5555 0.8315
vn 0.0008 0.5553 0.8317
vn 0.0021 0.4451 0.8955
vn 0.0427 -0.2753 0.9604
vn 0.0434 -0.0556 0.9975
vn 0.0541 -0.7548 0.6537
vn 0.0004 -0.7683 0.6401
vn 0.0014 -0.7896 0.6136
vn -0.9996 -0.0113 0.0269
vn 0.0001 0.4507 0.8927
vn -0.0000 0.5552 0.8317
vn -0.0436 0.5547 0.8309
vn -0.0444 0.4500 0.8919
vn 0.0419 0.4325 0.9007
vn 0.0406 0.5548 0.8310
vn 0.9829 0.1842 0.0041
vn 0.9670 0.2213 0.1264
vn 0.9918 0.0703 0.1068
vn 0.9830 0.1838 -0.0000
vn -0.0000 0.8684 0.4958
vn -0.0434 0.8676 0.4953
vn 0.0413 0.9987 0.0284
vn 0.0405 0.8677 0.4954
vn -0.0442 0.9986 0.0283
vn 0.0414 0.9991 -0.0000
vn -0.0443 0.9990 -0.0000
vn -0.0000 -1.0000 -0.0000
vn -0.0562 -0.9984 -0.0000
vn -0.0476 -0.6132 0.7885
vn -0.0438 -0.7236 0.6888
vn 0.7071 -0.7065 0.0306
vn 0.6826 -0.5527 0.4780
vn 0.9864 -0.1640 0.0066
vn 0.9692 -0.1871 0.1601
vn -0.7008 -0.7134 -0.0000
vn -0.9980 -0.0565 0.0290
vn -0.9987 -0.0517 0.0001
vn 0.7046 -0.7096 -0.0003
vn 0.9864 -0.1647 -0.0001
vn -0.6918 -0.4233 0.5850
vn -0.7030 -0.2767 0.6552
vn -0.7015 -0.2098 0.6811
vn -0.9995 -0.0097 0.0314
vn -0.6821 -0.5104 0.5236
vn 0.7012 -0.2523 0.6669
vn 0.7043 -0.2171 0.6758
vn 0.7043 -0.1969 0.6821
vn 0.9942 -0.0301 0.1035
vn 0.9949 -0.0026 0.1006
vn 0.9938 0.0492 0.0996
vn 0.7048 0.3101 0.6380
vn 0.7190 -0.0293 0.6944
vn -0.7413 -0.0332 0.6704
vn -0.7522 -0.2511 0.6092
vn -0.9814 -0.0252 0.1901
vn -0.9854 0.0783 0.1512
vn -0.7016 0.3238 0.6348
vn -0.9825 0.1862 0.0042
vn -0.9638 0.2316 0.1322
vn -0.6851 0.6326 0.3612
vn -0.7045 0.7095 0.0184
vn -0.9833 0.0998 0.1521
vn -0.6961 0.3968 0.5983
vn 0.7045 0.7095 0.0184
vn 0.6851 0.6326 0.3612
vn 0.6936 0.3984 0.6002
vn -0.9828 0.1849 -0.0000
vn -0.7059 0.7083 -0.0000
vn 0.7059 0.7083 -0.0000
vn -0.6986 -0.2035 0.6860
vn -0.0617 -0.2882 0.9556
vn -0.0015 -0.2920 0.9564
vn -0.0000 -0.0000 -1.0000
vt 0.975377 0.075292
vt 0.991384 0.075292
vt 0.991384 0.091893
vt 0.975377 0.091893
vt 0.991384 0.108496
vt 0.975377 0.108496
vt 0.991384 0.125097
vt 0.975377 0.125097
vt 0.991384 0.141700
vt 0.975377 0.141700
vt 0.991384 0.158302
vt 0.975377 0.158302
vt 0.991384 0.174904
vt 0.975377 0.174904
vt 0.991384 0.191506
vt 0.975377 0.191506
vt 0.991384 0.208108
vt 0.975377 0.208108
vt 0.991384 0.224710
vt 0.975377 0.224710
vt 0.991384 0.241312
vt 0.975377 0.241312
vt 0.991384 0.257914
vt 0.975377 0.257914
vt 0.991384 0.274516
vt 0.975377 0.274516
vt 0.975377 0.008883
vt 0.991384 0.008883
vt 0.991384 0.025485
vt 0.975377 0.025485
vt 0.991384 0.042087
vt 0.975377 0.042087
vt 0.991384 0.058689
vt 0.975377 0.058689
vt 0.826854 0.278882
vt 0.843459 0.278882
vt 0.841761 0.287419
vt 0.828552 0.287419
vt 0.870541 0.296977
vt 0.876895 0.312318
vt 0.868358 0.314016
vt 0.863303 0.301813
vt 0.858799 0.285236
vt 0.853963 0.292473
vt 0.876895 0.328923
vt 0.868358 0.327225
vt 0.870541 0.344263
vt 0.863303 0.339427
vt 0.858799 0.356005
vt 0.853963 0.348767
vt 0.843459 0.362359
vt 0.841761 0.353822
vt 0.826854 0.362359
vt 0.828552 0.353822
vt 0.040748 0.528511
vt 0.054781 0.528511
vt 0.054781 0.541720
vt 0.040748 0.541720
vt 0.040748 0.515302
vt 0.054781 0.515302
vt 0.040748 0.502093
vt 0.054781 0.502093
vt 0.040748 0.488884
vt 0.054781 0.488884
vt 0.040748 0.687020
vt 0.054781 0.687020
vt 0.054781 0.700229
vt 0.040748 0.700229
vt 0.040748 0.673811
vt 0.054781 0.673811
vt 0.040748 0.660602
vt 0.054781 0.660602
vt 0.040748 0.647393
vt 0.054781 0.647393
vt 0.040748 0.634184
vt 0.054781 0.634184
vt 0.040748 0.620975
vt 0.054781 0.620975
vt 0.040748 0.607766
vt 0.054781 0.607766
vt 0.040748 0.594557
vt 0.054781 0.594557
vt 0.040748 0.581347
vt 0.054781 0.581347
vt 0.040748 0.568138
vt 0.054781 0.568138
vt 0.040748 0.554929
vt 0.054781 0.554929
vt 0.811513 0.285236
vt 0.816349 0.292473
vt 0.799772 0.296977
vt 0.807009 0.301813
vt 0.793418 0.312318
vt 0.801955 0.314016
vt 0.793418 0.328923
vt 0.801955 0.327225
vt 0.799772 0.344263
vt 0.807009 0.339428
vt 0.811513 0.356005
vt 0.816349 0.348767
vt 0.362811 0.783234
vt 0.378150 0.776880
vt 0.386451 0.818613
vt 0.351072 0.794973
vt 0.394752 0.776880
vt 0.410090 0.783234
vt 0.421830 0.794973
vt 0.428183 0.810311
vt 0.428183 0.826913
vt 0.421830 0.842252
vt 0.410090 0.853991
vt 0.394752 0.860345
vt 0.378150 0.860345
vt 0.362811 0.853991
vt 0.351072 0.842252
vt 0.344718 0.826913
vt 0.344718 0.810311
vt 0.170526 0.804537
vt 0.134693 0.814696
vt 0.123899 0.789671
vt 0.164397 0.771577
vt 0.101406 0.831804
vt 0.091301 0.816887
vt 0.078392 0.868082
vt 0.055962 0.860437
vt 0.250816 0.774417
vt 0.242537 0.806904
vt 0.206664 0.801691
vt 0.207806 0.766932
vt 0.290039 0.795131
vt 0.277625 0.819393
vt 0.204063 0.880851
vt 0.172959 0.880027
vt 0.173639 0.840091
vt 0.205436 0.839054
vt 0.237097 0.842176
vt 0.235153 0.882071
vt 0.269219 0.848207
vt 0.267002 0.882943
vt 0.141121 0.878807
vt 0.141189 0.844001
vt 0.108146 0.876211
vt 0.108694 0.851377
vt 0.320779 0.824428
vt 0.309717 0.838649
vt 0.353182 0.870203
vt 0.330299 0.876360
vt 0.301160 0.857702
vt 0.300076 0.882518
vt 0.202507 0.928203
vt 0.169236 0.925328
vt 0.135186 0.919865
vt 0.100744 0.912651
vt 0.063631 0.903101
vt 0.305070 0.919364
vt 0.270229 0.924302
vt 0.235894 0.927518
vt 0.201060 0.972252
vt 0.165093 0.969886
vt 0.342729 0.912271
vt 0.033273 0.895105
vt 0.373546 0.906285
vt 0.313680 0.962990
vt 0.275380 0.968941
vt 0.237104 0.972252
vt 0.354986 0.955550
vt 0.089289 0.955619
vt 0.048560 0.945484
vt 0.395890 0.947967
vt 0.127116 0.964070
vt 0.008241 0.935231
vt 0.837369 0.806656
vt 0.845166 0.775464
vt 0.879259 0.793677
vt 0.867345 0.817177
vt 0.906323 0.819833
vt 0.895386 0.833770
vt 0.937392 0.863698
vt 0.914464 0.869711
vt 0.769595 0.773173
vt 0.807544 0.768941
vt 0.806533 0.802262
vt 0.775488 0.804780
vt 0.734461 0.789286
vt 0.744930 0.813465
vt 0.804339 0.874644
vt 0.805504 0.836214
vt 0.832487 0.838749
vt 0.830617 0.875088
vt 0.778417 0.837109
vt 0.778081 0.873495
vt 0.751357 0.872600
vt 0.750972 0.840440
vt 0.859680 0.843736
vt 0.857346 0.875814
vt 0.887252 0.851931
vt 0.886020 0.875478
vt 0.705862 0.813755
vt 0.715935 0.828329
vt 0.694715 0.863048
vt 0.672192 0.855656
vt 0.722757 0.870528
vt 0.722953 0.846950
vt 0.803001 0.918765
vt 0.830750 0.918355
vt 0.859529 0.915593
vt 0.890286 0.911544
vt 0.926431 0.905306
vt 0.746768 0.912174
vt 0.716313 0.906269
vt 0.775326 0.916675
vt 0.831213 0.962307
vt 0.801680 0.962307
vt 0.680613 0.897852
vt 0.957155 0.899809
vt 0.650278 0.890504
vt 0.740211 0.956050
vt 0.706236 0.949363
vt 0.772202 0.960518
vt 0.666697 0.940540
vt 0.937735 0.948758
vt 0.897734 0.955169
vt 0.626358 0.931225
vt 0.863415 0.959786
vt 0.978564 0.941905
vt 0.749787 0.352164
vt 0.740828 0.321248
vt 0.751629 0.321248
vt 0.759040 0.346616
vt 0.774864 0.374833
vt 0.780212 0.365581
vt 0.749787 0.290332
vt 0.774864 0.267662
vt 0.780212 0.276915
vt 0.759040 0.295879
vt 0.807714 0.384262
vt 0.809602 0.373981
vt 0.807714 0.258234
vt 0.809602 0.268515
vt 0.881618 0.387584
vt 0.844747 0.387369
vt 0.845330 0.376988
vt 0.881989 0.377195
vt 0.844748 0.255127
vt 0.881618 0.254912
vt 0.881989 0.265301
vt 0.845330 0.265508
vt 0.749814 0.222491
vt 0.658241 0.222491
vt 0.658243 0.008891
vt 0.749816 0.008892
vt 0.564820 0.670816
vt 0.561567 0.629977
vt 0.672890 0.624454
vt 0.672678 0.668401
vt 0.478657 0.434323
vt 0.491382 0.289238
vt 0.664164 0.340063
vt 0.645884 0.450143
vt 0.461750 0.796021
vt 0.499308 0.643193
vt 0.522551 0.671435
vt 0.499770 0.813694
vt 0.418526 0.270854
vt 0.452064 0.225955
vt 0.475253 0.239061
vt 0.453460 0.278507
vt 0.707475 0.531736
vt 0.727213 0.497307
vt 0.995011 0.497303
vt 0.995011 0.531736
vt 0.430130 0.190242
vt 0.411840 0.194631
vt 0.396428 0.058980
vt 0.413779 0.053905
vt 0.854949 0.222491
vt 0.854951 0.008893
vt 0.995011 0.564431
vt 0.733410 0.564430
vt 0.442627 0.766258
vt 0.472198 0.612654
vt 0.437718 0.211233
vt 0.413737 0.226555
vt 0.544269 0.589356
vt 0.547367 0.634848
vt 0.527805 0.595075
vt 0.536261 0.644955
vt 0.515004 0.606970
vt 0.527702 0.657397
vt 0.505687 0.622420
vt 0.525371 0.544028
vt 0.505247 0.550938
vt 0.491640 0.563841
vt 0.480253 0.585175
vt 0.261173 0.695467
vt 0.260748 0.764666
vt 0.109215 0.716401
vt 0.112583 0.688004
vt 0.505032 0.249190
vt 0.670143 0.300060
vt 0.235004 0.199301
vt 0.235215 0.232052
vt 0.006867 0.229250
vt 0.009172 0.194063
vt 0.388462 0.270722
vt 0.283610 0.270623
vt 0.283956 0.231790
vt 0.387752 0.231534
vt 0.441672 0.428729
vt 0.409052 0.423127
vt 0.723529 0.353700
vt 0.702026 0.464508
vt 0.676960 0.456723
vt 0.697506 0.349156
vt 0.739531 0.255527
vt 0.707157 0.287987
vt 0.995011 0.601661
vt 0.751522 0.601661
vt 0.386063 0.196353
vt 0.283995 0.198597
vt 0.280412 0.071714
vt 0.373530 0.062611
vt 0.381315 0.421343
vt 0.282535 0.417317
vt 0.442582 0.704804
vt 0.438064 0.720139
vt 0.427157 0.731826
vt 0.421683 0.703729
vt 0.442582 0.482882
vt 0.421634 0.482882
vt 0.235778 0.271044
vt 0.004892 0.271043
vt 0.259459 0.198490
vt 0.259459 0.073521
vt 0.260748 0.482882
vt 0.352054 0.482882
vt 0.351438 0.700021
vt 0.235684 0.416961
vt 0.259459 0.269486
vt 0.259459 0.416823
vt 0.237808 0.071140
vt 0.259459 0.231240
vt 0.012836 0.439977
vt 0.018550 0.042662
vt 0.594164 0.222491
vt 0.485254 0.222490
vt 0.485256 0.008889
vt 0.590769 0.008891
vt 0.671434 0.580878
vt 0.664887 0.532942
vt 0.692792 0.483558
vt 0.671560 0.474662
vt 0.680139 0.502475
vt 0.661132 0.492823
vt 0.466770 0.217267
vt 0.466772 0.008889
vt 0.448286 0.204658
vt 0.448288 0.008889
vt 0.873437 0.008890
vt 0.873434 0.221236
vt 0.891921 0.008884
vt 0.891916 0.215429
vt 0.690985 0.582796
vt 0.691970 0.626971
vt 0.709447 0.591712
vt 0.710314 0.633126
vt 0.692077 0.671373
vt 0.709731 0.676733
vt 0.684214 0.538106
vt 0.705137 0.549645
vt 0.643640 0.468641
vt 0.476128 0.453757
vt 0.641991 0.487811
vt 0.476594 0.473854
vt 0.438383 0.447551
vt 0.438396 0.467975
vt 0.403421 0.460811
vt 0.371803 0.459172
vt 0.378232 0.439364
vt 0.406692 0.440890
vt 0.391944 0.042620
vt 0.408464 0.032748
vt 0.386410 0.024592
vt 0.401761 0.007610
vt 0.364865 0.027843
vt 0.369647 0.045832
vt 0.243552 0.037345
vt 0.259459 0.040005
vt 0.259459 0.058042
vt 0.240129 0.054865
vt 0.275834 0.038360
vt 0.278524 0.055598
vt 0.259459 0.455206
vt 0.240123 0.455247
vt 0.237459 0.435674
vt 0.259459 0.433892
vt 0.279243 0.455221
vt 0.281178 0.435637
vt 0.023841 0.005659
vt 0.021202 0.023959
vt 0.016558 0.477601
vt 0.014696 0.458981
vt 0.765510 0.643003
vt 0.995011 0.643003
vt 0.995011 0.756580
vt 0.799242 0.756579
vt 0.699469 0.495245
vt 0.746068 0.416310
vt 0.768688 0.421385
vt 0.324844 0.734814
vt 0.294206 0.733541
vt 0.112573 0.482882
vt 0.095424 0.705485
vt 0.086799 0.689427
vt 0.086887 0.482882
vt 0.351438 0.776529
vt 0.995011 0.421240
vt 0.694090 0.515074
vt 0.757754 0.405402
vt 0.773088 0.400884
vt 0.995011 0.400884
vt 0.690503 0.808110
vt 0.708911 0.795458
vt 0.671975 0.813275
vt 0.563590 0.813694
vt 0.294002 0.775735
vt 0.324675 0.783354
vt 0.714456 0.991034
vt 0.714456 0.966881
vt 0.731535 0.973955
vt 0.738609 0.991034
vt 0.903641 0.225218
vt 0.903641 0.185074
vt 0.927788 0.185280
vt 0.927788 0.225218
vt 0.903641 0.151048
vt 0.927788 0.151048
vt 0.903641 0.378514
vt 0.927788 0.378514
vt 0.939506 0.181875
vt 0.939506 0.114399
vt 0.963658 0.114399
vt 0.963658 0.181875
vt 0.939506 0.273452
vt 0.963658 0.273452
vt 0.939506 0.378592
vt 0.963658 0.378592
vt 0.334562 0.991034
vt 0.341636 0.973955
vt 0.358716 0.966881
vt 0.358716 0.991034
vt 0.903641 0.008883
vt 0.927788 0.008883
vt 0.939506 0.008882
vt 0.963658 0.008882
vt 0.472306 0.991035
vt 0.472306 0.966881
vt 0.513653 0.966881
vt 0.513653 0.991035
vt 0.615769 0.991035
vt 0.618024 0.966881
vt 0.694097 0.966881
vt 0.693549 0.991034
vt 0.029034 0.602477
vt 0.004878 0.603093
vt 0.004878 0.532888
vt 0.029034 0.532889
vt 0.029034 0.511938
vt 0.004878 0.511938
vt 0.004878 0.487785
vt 0.021960 0.494859
vt 0.021960 0.884752
vt 0.004878 0.891826
vt 0.004878 0.867673
vt 0.029034 0.867673
vt 0.550889 0.966881
vt 0.556205 0.991035
vt 0.583587 0.966881
vt 0.583587 0.991035
vt 0.004878 0.842167
vt 0.029034 0.841984
vt 0.029034 0.693793
vt 0.004878 0.693793
s 1
f 17/1/1 1/2/1 2/3/2 18/4/2
f 18/4/2 2/3/2 3/5/3 19/6/3
f 19/6/3 3/5/3 4/7/4 20/8/4
f 20/8/4 4/7/4 5/9/5 21/10/5
f 21/10/5 5/9/5 6/11/6 22/12/6
f 22/12/6 6/11/6 7/13/7 23/14/7
f 23/14/7 7/13/7 8/15/8 24/16/8
f 24/16/8 8/15/8 9/17/9 25/18/9
f 25/18/9 9/17/9 10/19/10 26/20/10
f 26/20/10 10/19/10 11/21/11 27/22/11
f 27/22/11 11/21/11 12/23/12 28/24/12
f 28/24/12 12/23/12 13/25/13 29/26/13
f 29/27/13 13/28/13 14/29/14 30/30/14
f 30/30/14 14/29/14 15/31/15 31/32/15
f 31/32/15 15/31/15 16/33/16 32/34/16
f 32/34/16 16/33/16 1/2/1 17/1/1
f 30/35/17 31/36/17 61/37/17 59/38/17
f 17/39/17 18/40/17 35/41/17 64/42/17
f 31/36/17 32/43/17 63/44/17 61/37/17
f 18/40/17 19/45/17 37/46/17 35/41/17
f 32/43/17 17/39/17 64/42/17 63/44/17
f 19/45/17 20/47/17 39/48/17 37/46/17
f 20/47/17 21/49/17 41/50/17 39/48/17
f 21/49/17 22/51/17 43/52/17 41/50/17
f 22/51/17 23/53/17 45/54/17 43/52/17
f 62/55/16 63/56/16 64/57/1 33/58/1
f 60/59/15 61/60/15 63/56/16 62/55/16
f 58/61/14 59/62/14 61/60/15 60/59/15
f 56/63/13 57/64/13 59/62/14 58/61/14
f 54/65/12 55/66/12 57/67/13 56/68/13
f 52/69/11 53/70/11 55/66/12 54/65/12
f 50/71/10 51/72/10 53/70/11 52/69/11
f 48/73/9 49/74/9 51/72/10 50/71/10
f 46/75/8 47/76/8 49/74/9 48/73/9
f 44/77/7 45/78/7 47/76/8 46/75/8
f 42/79/6 43/80/6 45/78/7 44/77/7
f 40/81/5 41/82/5 43/80/6 42/79/6
f 38/83/4 39/84/4 41/82/5 40/81/5
f 36/85/3 37/86/3 39/84/4 38/83/4
f 34/87/2 35/88/2 37/86/3 36/85/3
f 33/58/1 64/57/1 35/88/2 34/87/2
f 29/89/17 30/35/17 59/38/17 57/90/17
f 28/91/17 29/89/17 57/90/17 55/92/17
f 27/93/17 28/91/17 55/92/17 53/94/17
f 26/95/17 27/93/17 53/94/17 51/96/17
f 25/97/17 26/95/17 51/96/17 49/98/17
f 24/99/17 25/97/17 49/98/17 47/100/17
f 23/53/17 24/99/17 47/100/17 45/54/17
f 16/101/18 15/102/18 65/103/18 1/104/18
f 14/105/18 13/106/18 65/103/18 15/102/18
f 12/107/18 11/108/18 65/103/18 13/106/18
f 10/109/18 9/110/18 65/103/18 11/108/18
f 8/111/18 7/112/18 65/103/18 9/110/18
f 6/113/18 5/114/18 65/103/18 7/112/18
f 4/115/18 3/116/18 65/103/18 5/114/18
f 3/116/18 2/117/18 1/104/18 65/103/18
f 67/118/19 68/119/20 87/120/21 83/121/22
f 68/119/20 69/122/23 93/123/24 87/120/21
f 69/122/23 103/124/25 102/125/26 93/123/24
f 86/126/27 70/127/28 66/128/29 80/129/30
f 92/130/31 71/131/32 70/127/28 86/126/27
f 72/132/33 73/133/34 84/134/35 81/135/36
f 88/136/37 77/137/38 72/132/33 81/135/36
f 88/136/37 94/138/39 78/139/40 77/137/38
f 73/133/34 74/140/41 89/141/42 84/134/35
f 81/135/36 84/134/35 67/118/19 66/128/29
f 74/140/41 75/142/43 95/143/44 89/141/42
f 84/134/35 89/141/42 68/119/20 67/118/19
f 89/141/42 95/143/44 69/122/23 68/119/20
f 98/144/45 76/145/46 71/131/32 92/130/31
f 95/143/44 75/142/43 103/124/25 69/122/23
f 98/144/45 106/146/47 107/147/48 76/145/46
f 94/138/39 99/148/49 79/149/50 78/139/40
f 70/127/28 88/136/37 81/135/36 66/128/29
f 70/127/28 71/131/32 94/138/39 88/136/37
f 76/145/46 107/147/48 79/149/50 99/148/49
f 82/150/51 85/151/52 73/133/34 72/132/33
f 85/151/52 91/152/53 74/140/41 73/133/34
f 91/152/53 96/153/54 75/142/43 74/140/41
f 71/131/32 76/145/46 99/148/49 94/138/39
f 96/153/54 104/154/55 103/124/25 75/142/43
f 78/139/40 79/149/50 100/155/56 97/156/57
f 77/137/38 90/157/58 82/150/51 72/132/33
f 77/137/38 78/139/40 97/156/57 90/157/58
f 85/151/52 82/150/51 109/158/59 110/159/60
f 79/149/50 107/147/48 108/160/61 100/155/56
f 103/124/25 104/154/55 101/161/62 102/125/26
f 107/147/48 106/146/47 105/162/63 108/160/61
f 100/155/56 115/163/64 114/164/65 97/156/57
f 97/156/57 114/164/65 113/165/66 90/157/58
f 82/150/51 90/157/58 113/165/66 109/158/59
f 100/155/56 108/160/61 119/166/67 115/163/64
f 104/154/55 96/153/54 112/167/68 117/168/69
f 108/160/61 105/162/63 118/169/70 119/166/67
f 96/153/54 91/152/53 111/170/71 112/167/68
f 91/152/53 85/151/52 110/159/60 111/170/71
f 101/161/62 104/154/55 117/168/69 116/171/72
f 66/128/29 67/118/19 83/121/22 80/129/30
f 121/172/73 137/173/74 141/174/75 122/175/76
f 122/175/76 141/174/75 147/176/77 123/177/78
f 123/177/78 147/176/77 156/178/79 157/179/80
f 140/180/81 134/181/82 120/182/83 124/183/84
f 146/184/85 140/180/81 124/183/84 125/185/86
f 126/186/87 135/187/88 138/188/89 127/189/90
f 142/190/91 135/187/88 126/186/87 131/191/92
f 142/190/91 131/191/92 132/192/93 148/193/94
f 127/189/90 138/188/89 143/194/95 128/195/96
f 135/187/88 120/182/83 121/172/73 138/188/89
f 128/195/96 143/194/95 149/196/97 129/197/98
f 138/188/89 121/172/73 122/175/76 143/194/95
f 143/194/95 122/175/76 123/177/78 149/196/97
f 152/198/99 146/184/85 125/185/86 130/199/100
f 149/196/97 123/177/78 157/179/80 129/197/98
f 152/198/99 130/199/100 161/200/101 160/201/102
f 148/193/94 132/192/93 133/202/103 153/203/104
f 124/183/84 120/182/83 135/187/88 142/190/91
f 124/183/84 142/190/91 148/193/94 125/185/86
f 130/199/100 153/203/104 133/202/103 161/200/101
f 136/204/105 126/186/87 127/189/90 139/205/106
f 139/205/106 127/189/90 128/195/96 145/206/107
f 145/206/107 128/195/96 129/197/98 150/207/108
f 125/185/86 148/193/94 153/203/104 130/199/100
f 150/207/108 129/197/98 157/179/80 158/208/109
f 132/192/93 151/209/110 154/210/111 133/202/103
f 131/191/92 126/186/87 136/204/105 144/211/112
f 131/191/92 144/211/112 151/209/110 132/192/93
f 139/205/106 164/212/113 163/213/114 136/204/105
f 133/202/103 154/210/111 162/214/115 161/200/101
f 157/179/80 156/178/79 155/215/116 158/208/109
f 161/200/101 162/214/115 159/216/117 160/201/102
f 154/210/111 151/209/110 168/217/118 169/218/119
f 151/209/110 144/211/112 167/219/120 168/217/118
f 136/204/105 163/213/114 167/219/120 144/211/112
f 154/210/111 169/218/119 173/220/121 162/214/115
f 158/208/109 171/221/122 166/222/123 150/207/108
f 162/214/115 173/220/121 172/223/124 159/216/117
f 150/207/108 166/222/123 165/224/125 145/206/107
f 145/206/107 165/224/125 164/212/113 139/205/106
f 155/215/116 170/225/126 171/221/122 158/208/109
f 120/182/83 134/181/82 137/173/74 121/172/73
f 110/226/127 109/227/128 163/228/128 164/229/129
f 111/230/130 110/226/127 164/229/129 165/231/131
f 113/232/132 114/233/133 168/234/133 167/235/134
f 112/236/135 111/230/130 165/231/131 166/237/136
f 114/233/133 115/238/137 169/239/138 168/234/133
f 116/240/139 117/241/140 171/242/141 170/243/139
f 117/241/140 112/236/135 166/237/136 171/242/141
f 119/244/142 118/245/143 172/246/143 173/247/144
f 115/238/137 119/244/142 173/247/144 169/239/138
f 109/227/128 113/232/132 167/235/134 163/228/128
f 194/248/145 174/249/146 176/250/147 196/251/148
f 301/252/149 179/253/150 240/254/151 302/255/152
f 252/256/153 197/257/154 193/258/155 230/259/156
f 175/260/157 188/261/158 178/262/159 174/263/160
f 204/264/161 186/265/162 187/266/163 198/267/164
f 243/268/165 298/269/1 297/270/1 223/271/1
f 183/272/166 199/273/167 258/274/168 242/275/169
f 233/276/170 194/248/145 196/251/148 237/277/171
f 222/278/1 248/279/172 243/268/165 223/271/1
f 177/280/173 184/281/174 188/261/158 175/260/157
f 199/273/167 183/272/166 185/282/175 201/283/176
f 192/284/177 179/253/150 182/285/178 191/286/179
f 191/286/179 182/285/178 181/287/180 190/288/181
f 190/288/181 181/287/180 180/289/182 189/290/183
f 189/290/183 180/289/182 178/262/159 188/261/158
f 183/291/184 192/284/177 191/286/179 185/292/185
f 185/292/185 191/286/179 190/288/181 186/293/186
f 186/293/186 190/288/181 189/290/183 187/294/187
f 187/294/187 189/290/183 188/261/158 184/281/174
f 219/295/9 251/296/188 231/297/189 294/298/9
f 197/257/154 184/299/190 177/300/191 193/258/155
f 214/301/192 210/302/192 205/303/193 206/304/193
f 203/305/194 216/306/195 211/307/196 202/308/197
f 198/267/164 187/266/163 184/299/190 197/257/154
f 201/283/176 185/282/175 186/265/162 204/264/161
f 204/264/161 198/267/164 255/309/198 263/310/199
f 194/311/145 233/312/170 250/313/200 195/314/201
f 174/315/146 194/311/145 195/314/201 175/316/202
f 175/316/202 195/314/201 193/258/155 177/300/191
f 222/278/1 221/317/1 239/318/203 248/279/172
f 200/319/204 213/320/205 276/321/206 261/322/207
f 199/273/167 201/283/176 202/308/197 200/319/204
f 203/305/194 267/323/208 288/324/209 216/306/195
f 201/283/176 204/264/161 203/305/194 202/308/197
f 284/325/210 290/326/211 287/327/212 295/328/9
f 273/329/213 284/325/210 295/328/9 296/330/9
f 213/320/205 200/319/204 202/308/197 211/307/196
f 210/302/192 217/331/192 207/332/193 205/303/193
f 215/333/214 282/334/215 276/321/206 213/320/205
f 209/335/9 208/336/9 220/337/9 219/295/9
f 285/338/216 217/331/192 218/339/214 291/340/217
f 214/301/192 279/341/218 282/334/215 215/333/214
f 217/331/192 210/302/192 212/342/214 218/339/214
f 218/339/214 212/342/214 211/307/196 216/306/195
f 210/302/192 214/301/192 215/333/214 212/342/214
f 212/342/214 215/333/214 213/320/205 211/307/196
f 291/340/217 218/339/214 216/306/195 288/324/209
f 217/331/192 285/338/216 272/343/219 207/332/193
f 255/309/198 198/267/164 197/257/154 252/256/153
f 200/319/204 261/322/207 258/274/168 199/273/167
f 267/323/208 203/305/194 204/264/161 263/310/199
f 279/341/218 214/301/192 206/304/193 270/344/220
f 195/314/201 250/313/200 230/259/156 193/258/155
f 306/345/221 225/346/222 227/347/222 307/348/221
f 192/284/177 247/349/223 240/254/151 179/253/150
f 183/291/184 242/350/224 247/349/223 192/284/177
f 250/313/200 233/312/170 235/351/225 246/352/226
f 246/352/226 235/351/225 234/353/227 245/354/228
f 227/347/222 225/346/222 226/355/229 229/356/229
f 229/356/229 226/355/229 224/357/230 228/358/231
f 233/276/170 237/277/171 238/359/232 235/360/225
f 235/360/225 238/359/232 236/361/233 234/362/227
f 240/254/151 247/349/223 249/363/234 241/364/235
f 241/364/235 249/363/234 248/365/172 239/366/203
f 302/255/152 240/254/151 241/364/235 303/367/236
f 303/367/236 241/364/235 239/366/203 304/368/237
f 247/349/223 242/350/224 244/369/238 249/363/234
f 249/363/234 244/369/238 243/370/165 248/365/172
f 252/256/153 230/259/156 232/371/239 253/372/240
f 253/372/240 232/371/239 231/373/189 251/374/188
f 230/259/156 250/313/200 246/352/226 232/371/239
f 232/371/239 246/352/226 245/354/228 231/373/189
f 255/309/198 252/256/153 253/372/240 256/375/241
f 256/375/241 253/372/240 251/374/188 254/376/242
f 264/377/243 266/378/244 268/379/245 265/380/246
f 265/380/246 268/379/245 267/323/208 263/310/199
f 242/275/169 258/274/168 259/381/247 244/382/248
f 244/382/248 259/381/247 257/383/249 243/384/165
f 263/310/199 255/309/198 256/375/241 265/380/246
f 265/380/246 256/375/241 254/376/242 264/377/243
f 260/385/250 257/383/249 259/381/247 262/386/251
f 262/386/251 259/381/247 258/274/168 261/322/207
f 278/387/252 281/388/253 283/389/254 280/390/255
f 280/390/255 283/389/254 282/334/215 279/341/218
f 281/388/253 275/391/256 277/392/257 283/389/254
f 283/389/254 277/392/257 276/321/206 282/334/215
f 290/393/211 284/394/210 286/395/258 292/396/259
f 292/396/259 286/395/258 285/338/216 291/340/217
f 287/397/212 290/393/211 292/396/259 289/398/260
f 289/398/260 292/396/259 291/340/217 288/324/209
f 269/399/261 278/387/252 280/390/255 271/400/262
f 271/400/262 280/390/255 279/341/218 270/344/220
f 275/391/256 260/385/250 262/386/251 277/392/257
f 277/392/257 262/386/251 261/322/207 276/321/206
f 284/394/210 273/401/213 274/402/263 286/395/258
f 286/395/258 274/402/263 272/343/219 285/338/216
f 266/378/244 287/397/212 289/398/260 268/379/245
f 268/379/245 289/398/260 288/324/209 267/323/208
f 304/403/237 305/404/1 228/405/231 224/406/230
f 260/407/250 275/408/256 299/409/1 298/269/1
f 220/337/9 309/410/9 308/411/9 219/295/9
f 209/335/9 219/295/9 294/298/9 293/412/9
f 294/298/9 231/297/189 245/413/228 234/414/227
f 293/412/9 294/298/9 234/414/227 236/415/233
f 295/328/9 287/327/212 266/416/244 220/337/9
f 296/330/9 295/328/9 220/337/9 208/336/9
f 297/270/1 298/269/1 299/409/1 300/417/1
f 298/269/1 243/268/165 257/418/249 260/407/250
f 299/409/1 275/408/256 281/419/253 278/420/252
f 300/417/1 299/409/1 278/420/252 269/421/261
f 179/253/150 301/252/149 181/287/180 182/285/178
f 301/252/149 178/262/159 180/289/182 181/287/180
f 239/318/203 221/317/1 305/404/1 304/403/237
f 226/422/264 303/367/236 304/368/237 224/423/230
f 225/424/265 302/255/152 303/367/236 226/422/264
f 174/249/146 306/345/221 307/348/221 176/250/147
f 174/263/160 178/262/159 301/252/149 306/425/266
f 306/425/266 301/252/149 302/255/152 225/424/265
f 308/411/9 254/426/242 251/296/188 219/295/9
f 309/410/9 220/337/9 266/416/244 264/427/243
f 308/411/9 309/410/9 264/427/243 254/426/242
f 317/428/267 269/429/267 271/430/267 270/431/267
f 314/432/267 315/433/267 205/434/267 207/435/267
f 315/433/267 316/436/267 206/437/267 205/434/267
f 318/438/267 314/432/267 207/435/267 272/439/267
f 176/440/267 307/441/267 312/442/267 311/443/267
f 196/444/267 176/440/267 311/443/267 310/445/267
f 237/446/267 196/444/267 310/445/267 319/447/267
f 227/448/267 229/449/267 228/450/267 313/451/267
f 316/436/267 317/452/267 270/453/267 206/437/267
f 307/441/267 227/454/267 313/455/267 312/442/267
f 325/456/267 305/457/267 221/458/267 321/459/267
f 320/460/267 297/461/267 300/462/267 328/463/267
f 208/464/267 324/465/267 327/466/267 296/467/267
f 273/468/267 318/469/267 272/470/267 274/471/267
f 238/472/267 237/473/267 319/474/267 236/475/267
f 321/459/267 221/458/267 222/476/267 322/477/267
f 322/477/267 222/476/267 223/478/267 323/479/267
f 323/479/267 223/478/267 297/461/267 320/460/267
f 313/451/267 228/450/267 305/457/267 325/456/267
f 236/475/267 319/474/267 329/480/267 293/481/267
f 209/482/267 326/483/267 324/465/267 208/464/267
f 296/467/267 327/466/267 318/469/267 273/468/267
f 328/463/267 300/462/267 269/429/267 317/428/267
f 293/481/267 329/480/267 326/483/267 209/482/267
