# Blender 4.0.2
# www.blender.org
o lipstick
v 0.000000 -0.000000 -0.006978
v -0.000000 0.032127 -0.006151
v 0.002670 -0.000000 -0.006447
v 0.002354 0.032127 -0.005683
v 0.004934 -0.000000 -0.004934
v 0.004349 0.032127 -0.004349
v 0.006447 -0.000000 -0.002670
v 0.005683 0.032127 -0.002354
v 0.006978 -0.000000 0.000000
v 0.006151 0.032127 0.000000
v 0.006447 -0.000000 0.002670
v 0.005683 0.032127 0.002354
v 0.004934 -0.000000 0.004934
v 0.004349 0.032127 0.004349
v 0.002670 -0.000000 0.006447
v 0.002354 0.032127 0.005683
v -0.000000 -0.000000 0.006978
v -0.000000 0.032127 0.006151
v -0.002670 -0.000000 0.006447
v -0.002354 0.032127 0.005683
v -0.004934 -0.000000 0.004934
v -0.004349 0.032127 0.004349
v -0.006447 -0.000000 0.002670
v -0.005683 0.032127 0.002354
v -0.006978 -0.000000 -0.000000
v -0.006151 0.032127 -0.000000
v -0.006447 -0.000000 -0.002670
v -0.005683 0.032127 -0.002354
v -0.004934 -0.000000 -0.004934
v -0.004349 0.032127 -0.004349
v -0.002670 -0.000000 -0.006447
v -0.002354 0.032127 -0.005683
v 0.002670 0.032127 -0.006447
v 0.000000 0.032127 -0.006978
v 0.004934 0.032127 -0.004934
v 0.006447 0.032127 -0.002670
v 0.006978 0.032127 0.000000
v 0.006447 0.032127 0.002670
v 0.004934 0.032127 0.004934
v 0.002670 0.032127 0.006447
v -0.000000 0.032127 0.006978
v -0.002670 0.032127 0.006447
v -0.004934 0.032127 0.004934
v -0.006447 0.032127 0.002670
v -0.006978 0.032127 -0.000000
v -0.006447 0.032127 -0.002670
v -0.004934 0.032127 -0.004934
v -0.002670 0.032127 -0.006447
v 0.001775 0.053063 -0.004285
v 0.000000 0.053063 -0.004638
v 0.003280 0.053063 -0.003280
v 0.004285 0.053063 -0.001775
v 0.004638 0.053063 0.000000
v 0.004285 0.053063 0.001775
v 0.003280 0.053063 0.003280
v 0.001775 0.053063 0.004285
v 0.000000 0.053063 0.004638
v -0.001775 0.053063 0.004285
v -0.003280 0.053063 0.003280
v -0.004285 0.053063 0.001775
v -0.004638 0.053063 0.000000
v -0.004285 0.053063 -0.001775
v -0.003280 0.053063 -0.003280
v -0.001775 0.053063 -0.004285
v 0.002354 0.053063 -0.005683
v 0.000000 0.053063 -0.006151
v 0.004349 0.053063 -0.004349
v 0.005683 0.053063 -0.002354
v 0.006151 0.053063 0.000000
v 0.005683 0.053063 0.002354
v 0.004349 0.053063 0.004349
v 0.002354 0.053063 0.005683
v 0.000000 0.053063 0.006151
v -0.002354 0.053063 0.005683
v -0.004349 0.053063 0.004349
v -0.005683 0.053063 0.002354
v -0.006151 0.053063 -0.000000
v -0.005683 0.053063 -0.002354
v -0.004349 0.053063 -0.004349
v -0.002354 0.053063 -0.005683
v 0.000000 -0.000000 -0.000000
v 0.001775 0.045367 -0.004285
v 0.000000 0.045367 -0.004638
v 0.003280 0.045367 -0.003280
v 0.004285 0.045367 -0.001775
v 0.004638 0.045367 0.000000
v 0.004285 0.045367 0.001775
v 0.003280 0.045367 0.003280
v 0.001775 0.045367 0.004285
v 0.000000 0.045367 0.004638
v -0.001775 0.045367 0.004285
v -0.003280 0.045367 0.003280
v -0.004285 0.045367 0.001775
v -0.004638 0.045367 0.000000
v -0.004285 0.045367 -0.001775
v -0.003280 0.045367 -0.003280
v -0.001775 0.045367 -0.004285
v 0.000000 0.045367 -0.000000
vn -0.0000 -0.0000 -1.0000
vn 0.3827 -0.0000 -0.9239
vn 0.7071 -0.0000 -0.7071
vn 0.9239 -0.0000 -0.3827
vn 1.0000 -0.0000 -0.0000
vn 0.9239 -0.0000 0.3827
vn 0.7071 -0.0000 0.7071
vn 0.3827 -0.0000 0.9239
vn -0.0000 -0.0000 1.0000
vn -0.3827 -0.0000 0.9239
vn -0.7071 -0.0000 0.7071
vn -0.9239 -0.0000 0.3827
vn -1.0000 -0.0000 -0.0000
vn -0.9239 -0.0000 -0.3827
vn -0.7071 -0.0000 -0.7071
vn -0.3827 -0.0000 -0.9239
vn -0.0000 -1.0000 -0.0000
vn -0.0000 1.0000 -0.0000
vt 0.004878 0.502886
vt 0.366406 0.502888
vt 0.366406 0.533528
vt 0.004878 0.533526
vt 0.366406 0.564168
vt 0.004878 0.564167
vt 0.366406 0.594808
vt 0.004878 0.594807
vt 0.366406 0.625448
vt 0.004878 0.625448
vt 0.366406 0.656089
vt 0.004878 0.656088
vt 0.366406 0.686728
vt 0.004878 0.686728
vt 0.366406 0.717368
vt 0.004878 0.717368
vt 0.366406 0.748009
vt 0.004878 0.748008
vt 0.366406 0.778649
vt 0.004878 0.778649
vt 0.366406 0.809289
vt 0.004878 0.809289
vt 0.366406 0.839929
vt 0.004878 0.839929
vt 0.366406 0.870569
vt 0.004878 0.870570
vt 0.366406 0.901209
vt 0.004878 0.901210
vt 0.366406 0.931849
vt 0.004878 0.931850
vt 0.974865 0.058903
vt 0.974865 0.085912
vt 0.739260 0.085911
vt 0.739260 0.058903
vt 0.366406 0.962489
vt 0.004878 0.962490
vt 0.366406 0.993130
vt 0.004878 0.993132
vt 0.427545 0.990618
vt 0.402069 0.973594
vt 0.457597 0.918065
vt 0.457597 0.996595
vt 0.862543 0.821250
vt 0.833991 0.821250
vt 0.833991 0.812031
vt 0.862543 0.812031
vt 0.805439 0.821250
vt 0.805439 0.812031
vt 0.776888 0.821250
vt 0.776888 0.812031
vt 0.748337 0.821250
vt 0.748337 0.812031
vt 0.719785 0.821250
vt 0.719785 0.812031
vt 0.691234 0.821250
vt 0.691234 0.812031
vt 0.662682 0.821250
vt 0.662682 0.812031
vt 0.634130 0.821250
vt 0.634130 0.812031
vt 0.605579 0.821250
vt 0.605579 0.812031
vt 0.577027 0.821250
vt 0.577027 0.812031
vt 0.548476 0.821250
vt 0.548476 0.812031
vt 0.519924 0.821250
vt 0.519924 0.812031
vt 0.491373 0.821250
vt 0.491373 0.812031
vt 0.462822 0.821250
vt 0.462822 0.812031
vt 0.434270 0.821250
vt 0.434270 0.812031
vt 0.405719 0.821250
vt 0.405719 0.812031
vt 0.974865 0.247961
vt 0.974865 0.274970
vt 0.739260 0.274970
vt 0.739260 0.247962
vt 0.974865 0.031895
vt 0.739260 0.031895
vt 0.974865 0.220953
vt 0.739260 0.220953
vt 0.974865 0.410012
vt 0.974865 0.437021
vt 0.739260 0.437021
vt 0.739260 0.410013
vt 0.974865 0.004887
vt 0.739260 0.004887
vt 0.974865 0.193945
vt 0.739260 0.193945
vt 0.974865 0.383004
vt 0.739260 0.383004
vt 0.974865 0.166936
vt 0.739260 0.166936
vt 0.974865 0.355995
vt 0.739260 0.355995
vt 0.974865 0.139928
vt 0.739260 0.139928
vt 0.974865 0.328987
vt 0.739260 0.328987
vt 0.974865 0.112920
vt 0.739260 0.112920
vt 0.974865 0.301979
vt 0.739260 0.301979
vt 0.404916 0.790009
vt 0.428371 0.790009
vt 0.428371 0.806868
vt 0.404916 0.806868
vt 0.451826 0.790009
vt 0.451826 0.806868
vt 0.475281 0.790009
vt 0.475281 0.806868
vt 0.498736 0.790009
vt 0.498736 0.806868
vt 0.522192 0.790009
vt 0.522192 0.806868
vt 0.545647 0.790009
vt 0.545647 0.806868
vt 0.569101 0.790009
vt 0.569101 0.806868
vt 0.592556 0.790009
vt 0.592556 0.806868
vt 0.616011 0.790009
vt 0.616011 0.806868
vt 0.639467 0.790009
vt 0.639467 0.806868
vt 0.662922 0.790009
vt 0.662922 0.806868
vt 0.686377 0.790009
vt 0.686377 0.806868
vt 0.709832 0.790009
vt 0.709832 0.806868
vt 0.733287 0.790009
vt 0.733287 0.806868
vt 0.756742 0.790009
vt 0.756742 0.806868
vt 0.780197 0.790009
vt 0.780197 0.806868
vt 0.385045 0.948118
vt 0.379067 0.918065
vt 0.385045 0.888013
vt 0.402069 0.862536
vt 0.427545 0.845514
vt 0.457597 0.839536
vt 0.487649 0.845514
vt 0.513126 0.862536
vt 0.530149 0.888013
vt 0.536126 0.918065
vt 0.530149 0.948118
vt 0.513127 0.973594
vt 0.487650 0.990618
vt 0.824458 0.483618
vt 0.824458 0.503983
vt 0.737854 0.503983
vt 0.737854 0.483618
vt 0.824458 0.626175
vt 0.824458 0.646540
vt 0.737854 0.646540
vt 0.737854 0.626175
vt 0.824458 0.463253
vt 0.737854 0.463253
vt 0.824458 0.605810
vt 0.737854 0.605810
vt 0.824458 0.748365
vt 0.824458 0.768730
vt 0.737854 0.768731
vt 0.737854 0.748365
vt 0.824458 0.442888
vt 0.737854 0.442888
vt 0.824458 0.585444
vt 0.737854 0.585444
vt 0.824458 0.728001
vt 0.737854 0.728001
vt 0.824458 0.565079
vt 0.737854 0.565079
vt 0.824458 0.707635
vt 0.737854 0.707635
vt 0.824458 0.544714
vt 0.737854 0.544714
vt 0.824458 0.687270
vt 0.737854 0.687270
vt 0.824458 0.524349
vt 0.737854 0.524349
vt 0.824458 0.666905
vt 0.737854 0.666905
vt 0.789909 0.934138
vt 0.772976 0.945453
vt 0.753002 0.949426
vt 0.753002 0.897231
vt 0.733028 0.945453
vt 0.716095 0.934138
vt 0.704781 0.917205
vt 0.700808 0.897231
vt 0.704781 0.877257
vt 0.716095 0.860324
vt 0.733028 0.849010
vt 0.753002 0.845037
vt 0.772976 0.849010
vt 0.789909 0.860324
vt 0.801223 0.877257
vt 0.805197 0.897231
vt 0.801223 0.917205
s 1
f 1/1/1 34/2/1 33/3/2 3/4/2
f 3/4/2 33/3/2 35/5/3 5/6/3
f 5/6/3 35/5/3 36/7/4 7/8/4
f 7/8/4 36/7/4 37/9/5 9/10/5
f 9/10/5 37/9/5 38/11/6 11/12/6
f 11/12/6 38/11/6 39/13/7 13/14/7
f 13/14/7 39/13/7 40/15/8 15/16/8
f 15/16/8 40/15/8 41/17/9 17/18/9
f 17/18/9 41/17/9 42/19/10 19/20/10
f 19/20/10 42/19/10 43/21/11 21/22/11
f 21/22/11 43/21/11 44/23/12 23/24/12
f 23/24/12 44/23/12 45/25/13 25/26/13
f 25/26/13 45/25/13 46/27/14 27/28/14
f 27/28/14 46/27/14 47/29/15 29/30/15
f 30/31/15 28/32/14 78/33/14 79/34/15
f 29/30/15 47/29/15 48/35/16 31/36/16
f 31/36/16 48/35/16 34/37/1 1/38/1
f 3/39/17 5/40/17 81/41/17 1/42/17
f 2/43/18 4/44/18 33/45/18 34/46/18
f 4/44/18 6/47/18 35/48/18 33/45/18
f 6/47/18 8/49/18 36/50/18 35/48/18
f 8/49/18 10/51/18 37/52/18 36/50/18
f 10/51/18 12/53/18 38/54/18 37/52/18
f 12/53/18 14/55/18 39/56/18 38/54/18
f 14/55/18 16/57/18 40/58/18 39/56/18
f 16/57/18 18/59/18 41/60/18 40/58/18
f 18/59/18 20/61/18 42/62/18 41/60/18
f 20/61/18 22/63/18 43/64/18 42/62/18
f 22/63/18 24/65/18 44/66/18 43/64/18
f 24/65/18 26/67/18 45/68/18 44/66/18
f 26/67/18 28/69/18 46/70/18 45/68/18
f 28/69/18 30/71/18 47/72/18 46/70/18
f 30/71/18 32/73/18 48/74/18 47/72/18
f 32/73/18 2/75/18 34/76/18 48/74/18
f 16/77/8 14/78/7 71/79/7 72/80/8
f 32/81/16 30/31/15 79/34/15 80/82/16
f 18/83/9 16/77/8 72/80/8 73/84/9
f 4/85/2 2/86/1 66/87/1 65/88/2
f 2/89/1 32/81/16 80/82/16 66/90/1
f 20/91/10 18/83/9 73/84/9 74/92/10
f 6/93/3 4/85/2 65/88/2 67/94/3
f 22/95/11 20/91/10 74/92/10 75/96/11
f 8/97/4 6/93/3 67/94/3 68/98/4
f 24/99/12 22/95/11 75/96/11 76/100/12
f 10/101/5 8/97/4 68/98/4 69/102/5
f 26/103/13 24/99/12 76/100/12 77/104/13
f 12/105/6 10/101/5 69/102/5 70/106/6
f 28/32/14 26/103/13 77/104/13 78/33/14
f 14/78/7 12/105/6 70/106/6 71/79/7
f 50/107/18 49/108/18 65/109/18 66/110/18
f 49/108/18 51/111/18 67/112/18 65/109/18
f 51/111/18 52/113/18 68/114/18 67/112/18
f 52/113/18 53/115/18 69/116/18 68/114/18
f 53/115/18 54/117/18 70/118/18 69/116/18
f 54/117/18 55/119/18 71/120/18 70/118/18
f 55/119/18 56/121/18 72/122/18 71/120/18
f 56/121/18 57/123/18 73/124/18 72/122/18
f 57/123/18 58/125/18 74/126/18 73/124/18
f 58/125/18 59/127/18 75/128/18 74/126/18
f 59/127/18 60/129/18 76/130/18 75/128/18
f 60/129/18 61/131/18 77/132/18 76/130/18
f 61/131/18 62/133/18 78/134/18 77/132/18
f 62/133/18 63/135/18 79/136/18 78/134/18
f 63/135/18 64/137/18 80/138/18 79/136/18
f 64/137/18 50/139/18 66/140/18 80/138/18
f 7/141/17 9/142/17 81/41/17 5/40/17
f 11/143/17 13/144/17 81/41/17 9/142/17
f 15/145/17 17/146/17 81/41/17 13/144/17
f 19/147/17 21/148/17 81/41/17 17/146/17
f 23/149/17 25/150/17 81/41/17 21/148/17
f 27/151/17 29/152/17 81/41/17 25/150/17
f 31/153/17 1/42/17 81/41/17 29/152/17
f 63/154/7 62/155/6 95/156/6 96/157/7
f 56/158/16 55/159/15 88/160/15 89/161/16
f 64/162/8 63/154/7 96/157/7 97/163/8
f 57/164/1 56/158/16 89/161/16 90/165/1
f 49/166/10 50/167/9 83/168/9 82/169/10
f 50/170/9 64/162/8 97/163/8 83/171/9
f 58/172/2 57/164/1 90/165/1 91/173/2
f 51/174/11 49/166/10 82/169/10 84/175/11
f 59/176/3 58/172/2 91/173/2 92/177/3
f 52/178/12 51/174/11 84/175/11 85/179/12
f 60/180/4 59/176/3 92/177/3 93/181/4
f 53/182/13 52/178/12 85/179/12 86/183/13
f 61/184/5 60/180/4 93/181/4 94/185/5
f 54/186/14 53/182/13 86/183/13 87/187/14
f 62/155/6 61/184/5 94/185/5 95/156/6
f 55/159/15 54/186/14 87/187/14 88/160/15
f 84/188/18 82/189/18 83/190/18 98/191/18
f 97/192/18 96/193/18 98/191/18 83/190/18
f 95/194/18 94/195/18 98/191/18 96/193/18
f 93/196/18 92/197/18 98/191/18 94/195/18
f 91/198/18 90/199/18 98/191/18 92/197/18
f 89/200/18 88/201/18 98/191/18 90/199/18
f 87/202/18 86/203/18 98/191/18 88/201/18
f 85/204/18 84/188/18 98/191/18 86/203/18
o lipstick_lid
v 0.021536 0.029078 -0.006151
v 0.023890 0.029078 -0.005683
v 0.025885 0.029078 -0.004349
v 0.027218 0.029078 -0.002354
v 0.027687 0.029078 0.000000
v 0.027218 0.029078 0.002354
v 0.025885 0.029078 0.004349
v 0.023890 0.029078 0.005683
v 0.021536 0.029078 0.006151
v 0.019182 0.029078 0.005683
v 0.017186 0.029078 0.004349
v 0.015853 0.029078 0.002354
v 0.015385 0.029078 -0.000000
v 0.015853 0.029078 -0.002354
v 0.017186 0.029078 -0.004349
v 0.019182 0.029078 -0.005683
v 0.024206 0.034898 -0.006447
v 0.021536 0.035116 -0.006978
v 0.026470 0.034278 -0.004934
v 0.027983 0.033350 -0.002670
v 0.028514 0.032255 0.000000
v 0.027983 0.031160 0.002670
v 0.026470 0.030232 0.004934
v 0.024206 0.029612 0.006447
v 0.021536 0.029394 0.006978
v 0.018865 0.029612 0.006447
v 0.016601 0.030232 0.004934
v 0.015089 0.031160 0.002670
v 0.014557 0.032255 -0.000000
v 0.015089 0.033350 -0.002670
v 0.016601 0.034278 -0.004934
v 0.018865 0.034898 -0.006447
v 0.024206 -0.000000 -0.006447
v 0.021536 -0.000000 -0.006978
v 0.026470 -0.000000 -0.004934
v 0.027983 -0.000000 -0.002670
v 0.028514 -0.000000 0.000000
v 0.027983 -0.000000 0.002670
v 0.026470 -0.000000 0.004934
v 0.024206 -0.000000 0.006447
v 0.021536 -0.000000 0.006978
v 0.018865 -0.000000 0.006447
v 0.016601 -0.000000 0.004934
v 0.015089 -0.000000 0.002670
v 0.014557 -0.000000 -0.000000
v 0.015089 -0.000000 -0.002670
v 0.016601 -0.000000 -0.004934
v 0.018865 -0.000000 -0.006447
v 0.023890 -0.000000 -0.005683
v 0.021536 -0.000000 -0.006151
v 0.025885 -0.000000 -0.004349
v 0.027218 -0.000000 -0.002354
v 0.027687 -0.000000 0.000000
v 0.027218 -0.000000 0.002354
v 0.025885 -0.000000 0.004349
v 0.023890 -0.000000 0.005683
v 0.021536 -0.000000 0.006151
v 0.019182 -0.000000 0.005683
v 0.017186 -0.000000 0.004349
v 0.015853 -0.000000 0.002354
v 0.015385 -0.000000 -0.000000
v 0.015853 -0.000000 -0.002354
v 0.017186 -0.000000 -0.004349
v 0.019182 -0.000000 -0.005683
v 0.021536 0.029078 -0.000000
v 0.018865 0.033350 -0.002670
v 0.021536 0.033350 -0.002670
v 0.018865 0.032255 0.000000
v 0.021536 0.032255 0.000000
v 0.018865 0.031160 0.002670
v 0.021536 0.031160 0.002670
v 0.024206 0.031160 0.002670
v 0.024206 0.032255 0.000000
v 0.024206 0.033350 -0.002670
vn -0.0000 -1.0000 -0.0000
vn -0.0000 0.9253 0.3793
vn -0.3827 -0.0000 0.9239
vn -0.7071 -0.0000 0.7071
vn 0.9399 -0.0000 0.3415
vn 0.9239 -0.0000 0.3827
vn 1.0000 -0.0000 -0.0000
vn 0.9988 -0.0000 -0.0484
vn 0.3827 -0.0000 0.9239
vn -0.0000 -0.0000 1.0000
vn -0.9239 -0.0000 0.3827
vn 0.7306 -0.0000 0.6828
vn 0.7071 -0.0000 0.7071
vn -1.0000 -0.0000 -0.0000
vn 0.3996 -0.0000 0.9167
vn -0.9239 -0.0000 -0.3827
vn -0.7071 -0.0000 -0.7071
vn -0.3996 -0.0000 0.9167
vn -0.3827 -0.0000 -0.9239
vn -0.7306 -0.0000 0.6828
vn -0.0000 -0.0000 -1.0000
vn -0.9399 -0.0000 0.3415
vn 0.3827 -0.0000 -0.9239
vn -0.9988 -0.0000 -0.0484
vn 0.7071 -0.0000 -0.7071
vn -0.9054 -0.0000 -0.4245
vn 0.9239 -0.0000 -0.3827
vn -0.6811 -0.0000 -0.7322
vn 0.3640 -0.0000 -0.9314
vn -0.3640 -0.0000 -0.9314
vn 0.6811 -0.0000 -0.7322
vn 0.9054 -0.0000 -0.4245
vt 0.676428 0.887085
vt 0.661422 0.864628
vt 0.612476 0.913575
vt 0.681697 0.913575
vt 0.638965 0.849623
vt 0.612476 0.844354
vt 0.585986 0.849623
vt 0.563529 0.864628
vt 0.548524 0.887085
vt 0.543255 0.913575
vt 0.548524 0.940065
vt 0.563529 0.962522
vt 0.585986 0.977527
vt 0.612476 0.982796
vt 0.661422 0.962522
vt 0.638966 0.977527
vt 0.945069 0.878204
vt 0.990906 0.878204
vt 0.972546 0.850671
vt 0.945069 0.832273
vt 0.676428 0.940065
vt 0.862963 0.835749
vt 0.862963 0.826534
vt 0.834427 0.826534
vt 0.834427 0.835749
vt 0.805890 0.826534
vt 0.805890 0.835749
vt 0.777355 0.826534
vt 0.777355 0.835749
vt 0.748818 0.826534
vt 0.748818 0.835749
vt 0.720282 0.826534
vt 0.720282 0.835749
vt 0.691745 0.826534
vt 0.691745 0.835749
vt 0.663209 0.826534
vt 0.663209 0.835749
vt 0.634673 0.826534
vt 0.634673 0.835749
vt 0.606137 0.826534
vt 0.606137 0.835749
vt 0.577600 0.826534
vt 0.577600 0.835749
vt 0.549064 0.826534
vt 0.549064 0.835749
vt 0.520528 0.826534
vt 0.520528 0.835749
vt 0.491991 0.826534
vt 0.491991 0.835749
vt 0.463455 0.826534
vt 0.463455 0.835749
vt 0.434918 0.826534
vt 0.434918 0.835749
vt 0.406382 0.826534
vt 0.406382 0.835749
vt 0.406164 0.410006
vt 0.733395 0.410004
vt 0.733395 0.382995
vt 0.406164 0.382997
vt 0.355543 0.341931
vt 0.004886 0.341932
vt 0.004886 0.372573
vt 0.367862 0.372572
vt 0.406164 0.031887
vt 0.733395 0.031888
vt 0.733395 0.004880
vt 0.406164 0.004878
vt 0.733395 0.355987
vt 0.406164 0.355989
vt 0.345099 0.311291
vt 0.004886 0.311291
vt 0.733395 0.328979
vt 0.406164 0.328980
vt 0.338120 0.280650
vt 0.004886 0.280651
vt 0.733395 0.301970
vt 0.406164 0.301972
vt 0.335670 0.250010
vt 0.004885 0.250010
vt 0.733395 0.274963
vt 0.406164 0.274963
vt 0.338120 0.219370
vt 0.004885 0.219370
vt 0.733395 0.247954
vt 0.406164 0.247955
vt 0.345099 0.188729
vt 0.004885 0.188729
vt 0.733395 0.220945
vt 0.406164 0.220946
vt 0.355543 0.158089
vt 0.004886 0.158088
vt 0.733395 0.193937
vt 0.406164 0.193937
vt 0.367862 0.127449
vt 0.004886 0.127448
vt 0.733395 0.166929
vt 0.406164 0.166929
vt 0.380181 0.096808
vt 0.004886 0.096807
vt 0.733395 0.139921
vt 0.406164 0.139920
vt 0.390626 0.066168
vt 0.004886 0.066166
vt 0.397604 0.464493
vt 0.004886 0.464495
vt 0.004886 0.495135
vt 0.400055 0.495133
vt 0.733395 0.112913
vt 0.406164 0.112912
vt 0.397604 0.035527
vt 0.004886 0.035526
vt 0.390625 0.433853
vt 0.004886 0.433854
vt 0.733395 0.085904
vt 0.406164 0.085903
vt 0.400055 0.004887
vt 0.004886 0.004886
vt 0.380181 0.403212
vt 0.004886 0.403213
vt 0.733395 0.058897
vt 0.406164 0.058895
vt 0.406164 0.437014
vt 0.733395 0.437012
vt 0.880245 0.878204
vt 0.880245 0.832273
vt 0.852768 0.850671
vt 0.834408 0.878204
vt 0.912656 0.878204
vt 0.912656 0.825813
vt 0.912656 0.995552
vt 0.945069 0.989092
vt 0.945069 0.943160
vt 0.912656 0.943160
vt 0.972546 0.970695
vt 0.990906 0.943160
vt 0.880245 0.989092
vt 0.880245 0.943160
vt 0.834408 0.943160
vt 0.852768 0.970695
vt 0.945068 0.910683
vt 0.912656 0.910683
vt 0.997352 0.910683
vt 0.880245 0.910683
vt 0.827960 0.910683
s 1
f 104/205/19 105/206/19 163/207/19 103/208/19
f 106/209/19 107/210/19 163/207/19 105/206/19
f 108/211/19 109/212/19 163/207/19 107/210/19
f 110/213/19 111/214/19 163/207/19 109/212/19
f 112/215/19 113/216/19 163/207/19 111/214/19
f 114/217/19 99/218/19 163/207/19 113/216/19
f 101/219/19 163/207/19 99/218/19 100/220/19
f 168/221/20 126/222/20 125/223/20 124/224/20
f 102/225/19 103/208/19 163/207/19 101/219/19
f 148/226/19 132/227/19 131/228/19 147/229/19
f 147/229/19 131/228/19 133/230/19 149/231/19
f 149/231/19 133/230/19 134/232/19 150/233/19
f 150/233/19 134/232/19 135/234/19 151/235/19
f 151/235/19 135/234/19 136/236/19 152/237/19
f 152/237/19 136/236/19 137/238/19 153/239/19
f 153/239/19 137/238/19 138/240/19 154/241/19
f 154/241/19 138/240/19 139/242/19 155/243/19
f 155/243/19 139/242/19 140/244/19 156/245/19
f 156/245/19 140/244/19 141/246/19 157/247/19
f 157/247/19 141/246/19 142/248/19 158/249/19
f 158/249/19 142/248/19 143/250/19 159/251/19
f 159/251/19 143/250/19 144/252/19 160/253/19
f 160/253/19 144/252/19 145/254/19 161/255/19
f 161/255/19 145/254/19 146/256/19 162/257/19
f 162/257/19 146/256/19 132/258/19 148/259/19
f 100/260/21 147/261/21 149/262/22 101/263/22
f 120/264/23 136/265/24 135/266/25 119/267/26
f 114/268/27 162/269/27 148/270/28 99/271/28
f 101/263/22 149/262/22 150/272/29 102/273/29
f 121/274/30 137/275/31 136/265/24 120/264/23
f 102/273/29 150/272/29 151/276/32 103/277/32
f 122/278/33 138/279/27 137/275/31 121/274/30
f 103/277/32 151/276/32 152/280/34 104/281/34
f 123/282/28 139/283/28 138/279/27 122/278/33
f 104/281/34 152/280/34 153/284/35 105/285/35
f 124/286/36 140/287/21 139/283/28 123/282/28
f 105/285/35 153/284/35 154/288/37 106/289/37
f 125/290/38 141/291/22 140/287/21 124/286/36
f 106/289/37 154/288/37 155/292/39 107/293/39
f 126/294/40 142/295/29 141/291/22 125/290/38
f 107/293/39 155/292/39 156/296/41 108/297/41
f 127/298/42 143/299/32 142/295/29 126/294/40
f 108/297/41 156/296/41 157/300/43 109/301/43
f 128/302/44 144/303/34 143/299/32 127/298/42
f 109/301/43 157/300/43 158/304/45 110/305/45
f 129/306/46 145/307/35 144/303/34 128/302/44
f 115/308/47 131/309/41 132/310/39 116/311/39
f 110/305/45 158/304/45 159/312/25 111/313/25
f 130/314/48 146/315/37 145/307/35 129/306/46
f 117/316/49 133/317/43 131/309/41 115/308/47
f 111/313/25 159/312/25 160/318/24 112/319/24
f 116/320/39 132/321/39 146/315/37 130/314/48
f 118/322/50 134/323/45 133/317/43 117/316/49
f 112/319/24 160/318/24 161/324/31 113/325/31
f 99/326/28 148/327/28 147/261/21 100/260/21
f 119/267/26 135/266/25 134/323/45 118/322/50
f 113/325/31 161/324/31 162/269/27 114/268/27
f 170/328/20 122/329/20 121/330/20 120/331/20
f 169/332/20 168/221/20 124/224/20 123/333/20
f 116/334/20 130/335/20 164/336/20 165/337/20
f 130/335/20 129/338/20 128/339/20 164/336/20
f 115/340/20 172/341/20 118/342/20 117/343/20
f 165/337/20 164/336/20 166/344/20 167/345/20
f 164/336/20 128/339/20 127/346/20 166/344/20
f 172/341/20 171/347/20 119/348/20 118/342/20
f 167/345/20 166/344/20 168/221/20 169/332/20
f 166/344/20 127/346/20 126/222/20 168/221/20
f 171/347/20 170/328/20 120/331/20 119/348/20
f 165/337/20 167/345/20 171/347/20 172/341/20
f 167/345/20 169/332/20 170/328/20 171/347/20
f 169/332/20 123/333/20 122/329/20 170/328/20
f 116/334/20 165/337/20 172/341/20 115/340/20
o lipstick_wax
v -0.004285 0.032127 0.001775
v -0.003280 0.032127 0.003280
v -0.001775 0.032127 0.004285
v -0.000000 0.032127 0.004638
v -0.004638 0.032127 -0.000000
v -0.004285 0.032127 -0.001775
v -0.003280 0.032127 -0.003280
v -0.001775 0.032127 -0.004285
v 0.000000 0.032127 -0.004638
v -0.004285 0.062297 0.001775
v -0.003280 0.062297 0.003280
v -0.001775 0.062297 0.004285
v -0.004638 0.062297 -0.000000
v -0.004285 0.062297 -0.001775
v -0.003280 0.062297 -0.003280
v -0.001775 0.062297 -0.004285
v 0.000000 0.062297 -0.004638
v -0.000000 0.062297 0.004638
v -0.002957 0.067452 0.001223
v -0.003199 0.067452 0.000000
v -0.002956 0.067452 -0.001224
v -0.002262 0.067452 -0.002262
v -0.001224 0.067452 -0.002956
v 0.000000 0.067452 -0.003199
v -0.000858 0.071143 -0.000087
v -0.000765 0.071143 -0.000414
v -0.000624 0.071143 -0.000624
v -0.000338 0.071143 -0.000816
v 0.000000 0.071143 -0.000883
v 0.000000 0.071632 -0.000089
v 0.000000 0.071496 -0.000405
v -0.000799 0.071138 0.000329
v -0.000281 0.071424 -0.000390
v -0.000268 0.071561 -0.000085
v -0.002123 0.069484 -0.000000
v -0.001961 0.069484 -0.000812
v -0.001501 0.069484 -0.001501
v -0.000812 0.069484 -0.001961
v 0.000000 0.069484 -0.002122
v -0.000000 0.071602 0.000207
v -0.000260 0.071516 0.000213
v -0.001957 0.069481 0.000802
v -0.001606 0.064646 -0.003878
v 0.000000 0.064646 -0.004198
v -0.004198 0.064646 -0.000000
v -0.003878 0.064646 -0.001606
v -0.002968 0.064646 -0.002968
v -0.003878 0.064646 0.001606
v -0.003093 0.064686 0.002853
v -0.000000 0.069549 0.001358
v -0.000000 0.066394 0.003019
v -0.000000 0.071473 0.000419
v -0.002111 0.067480 0.002437
v -0.000604 0.071101 0.000584
v -0.001464 0.069549 0.001358
v -0.002180 0.066394 0.003019
v -0.000233 0.071378 0.000459
v -0.001173 0.064736 0.003950
v -0.000000 0.064326 0.004225
v -0.003689 0.066267 0.000000
v -0.002609 0.066267 -0.002609
v -0.002868 0.066265 0.002328
v 0.000000 0.066267 -0.003689
v -0.001412 0.066267 -0.003408
v -0.003408 0.066267 -0.001412
v -0.003405 0.066265 0.001409
v -0.002694 0.068476 0.000000
v 0.000000 0.068476 -0.002693
v -0.002494 0.068478 0.001030
v -0.001905 0.068476 -0.001905
v -0.001031 0.068476 -0.002489
v -0.002489 0.068476 -0.001031
v -0.001864 0.068510 0.001899
v -0.000000 0.071121 0.000604
v -0.000000 0.067480 0.002437
v -0.000000 0.068510 0.001899
v -0.002634 0.067469 0.001774
v -0.002339 0.068459 0.001336
v -0.001808 0.065380 0.003577
v -0.001520 0.064018 0.004093
v -0.000000 0.063657 0.004454
v -0.000000 0.065380 0.003577
v 0.004285 0.032127 0.001775
v 0.003280 0.032127 0.003280
v 0.001775 0.032127 0.004285
v 0.004638 0.032127 0.000000
v 0.004285 0.032127 -0.001775
v 0.003280 0.032127 -0.003280
v 0.001775 0.032127 -0.004285
v 0.004285 0.062297 0.001775
v 0.003280 0.062297 0.003280
v 0.001775 0.062297 0.004285
v 0.004638 0.062297 0.000000
v 0.004285 0.062297 -0.001775
v 0.003280 0.062297 -0.003280
v 0.001775 0.062297 -0.004285
v 0.002956 0.067451 0.001223
v 0.003199 0.067452 0.000000
v 0.002956 0.067452 -0.001224
v 0.002262 0.067452 -0.002262
v 0.001224 0.067452 -0.002956
v 0.000858 0.071143 -0.000087
v 0.000765 0.071143 -0.000414
v 0.000624 0.071143 -0.000624
v 0.000338 0.071143 -0.000816
v 0.000799 0.071138 0.000329
v 0.000281 0.071424 -0.000390
v 0.000268 0.071561 -0.000085
v 0.002123 0.069484 -0.000000
v 0.001961 0.069484 -0.000812
v 0.001501 0.069484 -0.001501
v 0.000812 0.069484 -0.001961
v 0.000260 0.071516 0.000213
v 0.001957 0.069481 0.000802
v 0.001606 0.064646 -0.003878
v 0.004198 0.064646 0.000000
v 0.003878 0.064646 -0.001606
v 0.002968 0.064646 -0.002968
v 0.003878 0.064646 0.001606
v 0.002880 0.064686 0.002853
v 0.002111 0.067480 0.002437
v 0.000604 0.071101 0.000584
v 0.001464 0.069549 0.001358
v 0.002180 0.066394 0.003019
v 0.000233 0.071378 0.000459
v 0.001173 0.064736 0.003950
v 0.003689 0.066267 0.000000
v 0.002609 0.066267 -0.002609
v 0.002763 0.066264 0.002329
v 0.001412 0.066267 -0.003408
v 0.003408 0.066267 -0.001412
v 0.003404 0.066265 0.001410
v 0.002694 0.068476 0.000000
v 0.002494 0.068478 0.001030
v 0.001905 0.068476 -0.001905
v 0.001031 0.068476 -0.002489
v 0.002489 0.068476 -0.001031
v 0.001864 0.068510 0.001899
v 0.002624 0.067468 0.001776
v 0.002339 0.068459 0.001336
v 0.001808 0.065380 0.003577
v 0.001520 0.064018 0.004093
v -0.001336 0.070445 -0.000603
v -0.000564 0.070443 -0.001361
v -0.001352 0.070438 0.000535
v -0.001462 0.070445 -0.000044
v -0.001041 0.070443 -0.001041
v 0.000000 0.070443 -0.001473
v -0.000996 0.070447 0.000927
v -0.000000 0.070474 0.000910
v 0.001336 0.070445 -0.000603
v 0.000564 0.070443 -0.001361
v 0.001352 0.070438 0.000535
v 0.001462 0.070445 -0.000044
v 0.001041 0.070443 -0.001041
v 0.000996 0.070447 0.000927
vn -0.0000 -0.0000 1.0000
vn -0.0000 0.0683 0.9977
vn -0.3890 0.0809 0.9177
vn -0.3827 -0.0000 0.9239
vn -0.9239 -0.0000 -0.3827
vn -1.0000 -0.0000 -0.0000
vn -0.9958 0.0915 -0.0000
vn -0.9200 0.0915 -0.3811
vn -0.7071 -0.0000 -0.7071
vn -0.7041 0.0915 -0.7041
vn -0.3827 -0.0000 -0.9239
vn -0.3811 0.0915 -0.9200
vn -0.9239 -0.0000 0.3827
vn -0.9215 0.0889 0.3780
vn -0.0000 -0.0000 -1.0000
vn -0.0000 0.0915 -0.9958
vn -0.7071 -0.0000 0.7071
vn -0.7052 0.0894 0.7033
vn -0.7325 0.6027 -0.3166
vn -0.7936 0.6084 -0.0120
vn -0.6716 0.7395 -0.0458
vn -0.5989 0.7355 -0.3168
vn -0.0000 0.3392 -0.9407
vn -0.3600 0.3392 -0.8691
vn -0.3488 0.4109 -0.8423
vn -0.0000 0.4110 -0.9116
vn -0.8793 0.3363 0.3373
vn -0.8561 0.4064 0.3192
vn -0.9121 0.4099 -0.0001
vn -0.9407 0.3392 0.0007
vn -0.7157 0.6083 0.3430
vn -0.6120 0.7272 0.3109
vn -0.8691 0.3392 -0.3600
vn -0.8423 0.4108 -0.3489
vn -0.6652 0.3392 -0.6652
vn -0.6447 0.4108 -0.6447
vn -0.3394 0.8486 -0.4058
vn -0.2828 0.7325 -0.6192
vn -0.4764 0.7310 -0.4886
vn -0.5648 0.6003 -0.5663
vn -0.3063 0.6005 -0.7386
vn -0.0000 0.9906 -0.1366
vn -0.4084 0.9069 -0.1039
vn -0.3989 0.8685 0.2942
vn -0.0000 0.9493 0.3145
vn -0.0000 0.6004 -0.7997
vn -0.0000 0.7323 -0.6810
vn -0.6107 0.5937 0.5240
vn -0.7640 0.5431 0.3484
vn -0.6532 0.5467 0.5239
vn -0.7073 0.2288 0.6689
vn -0.3678 0.2075 0.9065
vn -0.3354 0.2540 0.9072
vn -0.5527 0.2395 0.7982
vn -0.3660 0.7980 0.4787
vn -0.5113 0.7023 0.4953
vn -0.0000 0.8765 -0.4815
vn -0.6873 0.4883 0.5377
vn -0.7326 0.4780 0.4845
vn -0.7536 0.4128 0.5115
vn -0.7052 0.4153 0.5747
vn -0.8299 0.4685 0.3030
vn -0.8480 0.5299 0.0010
vn -0.8842 0.4671 -0.0005
vn -0.0000 0.8565 0.5162
vn -0.0000 0.4666 -0.8845
vn -0.3382 0.4666 -0.8172
vn -0.3255 0.5252 -0.7862
vn -0.0000 0.5250 -0.8511
vn -0.6254 0.4666 -0.6254
vn -0.6016 0.5251 -0.6020
vn -0.8171 0.4666 -0.3385
vn -0.7854 0.5261 -0.3260
vn -0.6863 0.2406 -0.6863
vn -0.3714 0.2406 -0.8968
vn -0.8968 0.2406 -0.3714
vn -0.0000 0.2021 0.9794
vn -0.0000 0.2920 0.9564
vn -0.9706 0.2409 0.0003
vn -0.9028 0.2364 0.3593
vn -0.0000 0.2406 -0.9706
vn -0.0041 0.4394 0.8983
vn -0.0000 0.4423 0.8969
vn -0.0000 0.4561 0.8900
vn -0.0215 0.4531 0.8912
vn -0.0000 0.4767 0.8791
vn -0.0000 0.4772 0.8788
vn -0.0000 0.4678 0.8838
vn -0.0000 0.4682 0.8836
vn -0.0000 0.5130 0.8584
vn -0.0000 0.4977 0.8673
vn -0.0027 0.4920 0.8706
vn -0.0085 0.5130 0.8584
vn -0.7469 0.3301 0.5771
vn -0.0000 0.4614 0.8872
vn -0.0422 0.4610 0.8864
vn -0.0000 0.4626 0.8866
vn -0.0000 0.4628 0.8865
vn -0.0000 0.4477 0.8942
vn 0.0005 0.4512 0.8924
vn -0.6660 0.3181 0.6748
vn 0.3827 -0.0000 0.9239
vn 0.3950 0.0888 0.9144
vn 0.9239 -0.0000 -0.3827
vn 0.9200 0.0915 -0.3811
vn 0.9958 0.0915 -0.0000
vn 1.0000 -0.0000 -0.0000
vn 0.7071 -0.0000 -0.7071
vn 0.7041 0.0915 -0.7041
vn 0.3827 -0.0000 -0.9239
vn 0.3811 0.0915 -0.9200
vn 0.9239 -0.0000 0.3827
vn 0.9160 0.0983 0.3891
vn 0.7071 -0.0000 0.7071
vn 0.7026 0.1050 0.7037
vn 0.7325 0.6027 -0.3166
vn 0.5989 0.7355 -0.3168
vn 0.6716 0.7395 -0.0459
vn 0.7936 0.6084 -0.0121
vn 0.3488 0.4109 -0.8423
vn 0.3600 0.3392 -0.8691
vn 0.8674 0.3281 0.3740
vn 0.9407 0.3392 0.0008
vn 0.9122 0.4098 -0.0000
vn 0.8526 0.4011 0.3350
vn 0.7157 0.6083 0.3430
vn 0.6120 0.7272 0.3109
vn 0.8691 0.3392 -0.3600
vn 0.8423 0.4108 -0.3489
vn 0.6652 0.3392 -0.6652
vn 0.6447 0.4108 -0.6447
vn 0.3394 0.8486 -0.4058
vn 0.4764 0.7310 -0.4886
vn 0.2828 0.7325 -0.6192
vn 0.5648 0.6003 -0.5663
vn 0.3063 0.6005 -0.7386
vn 0.3989 0.8685 0.2942
vn 0.4084 0.9069 -0.1039
vn 0.6107 0.5937 0.5240
vn 0.6532 0.5467 0.5239
vn 0.7640 0.5431 0.3484
vn 0.6973 0.2255 0.6804
vn 0.6080 0.2080 0.7662
vn 0.3624 0.2452 0.8992
vn 0.3860 0.2125 0.8977
vn 0.3660 0.7980 0.4787
vn 0.5113 0.7023 0.4953
vn 0.6893 0.4867 0.5367
vn 0.7298 0.3919 0.5602
vn 0.7560 0.3965 0.5208
vn 0.7327 0.4765 0.4859
vn 0.8295 0.4681 0.3048
vn 0.8842 0.4671 -0.0005
vn 0.8480 0.5299 0.0010
vn 0.3255 0.5252 -0.7862
vn 0.3382 0.4666 -0.8172
vn 0.6016 0.5251 -0.6020
vn 0.6254 0.4666 -0.6254
vn 0.7854 0.5261 -0.3260
vn 0.8171 0.4666 -0.3385
vn 0.3714 0.2406 -0.8967
vn 0.6863 0.2406 -0.6863
vn 0.8968 0.2406 -0.3714
vn 0.9706 0.2409 0.0003
vn 0.8874 0.2428 0.3918
vn 0.0041 0.4394 0.8983
vn 0.0215 0.4531 0.8912
vn 0.0085 0.5130 0.8584
vn 0.0027 0.4920 0.8706
vn 0.7505 0.2972 0.5903
vn 0.0422 0.4610 0.8864
vn -0.0005 0.4512 0.8924
vn 0.7180 0.2724 0.6405
vt 0.569076 0.782406
vt 0.569076 0.442887
vt 0.589441 0.442887
vt 0.589441 0.782406
vt 0.670902 0.782406
vt 0.650537 0.782406
vt 0.650537 0.442887
vt 0.670903 0.442887
vt 0.691267 0.782406
vt 0.691267 0.442887
vt 0.711632 0.782406
vt 0.711632 0.442887
vt 0.630171 0.782406
vt 0.630171 0.442887
vt 0.731997 0.782406
vt 0.731997 0.442887
vt 0.609806 0.782406
vt 0.609807 0.442887
vt 0.948325 0.636746
vt 0.943246 0.631858
vt 0.952465 0.624789
vt 0.956110 0.627736
vt 0.949208 0.704692
vt 0.934306 0.695663
vt 0.942621 0.682818
vt 0.956306 0.689951
vt 0.893383 0.648886
vt 0.905531 0.643148
vt 0.912125 0.654446
vt 0.900734 0.662046
vt 0.939156 0.626007
vt 0.948917 0.620274
vt 0.910066 0.674307
vt 0.920533 0.664933
vt 0.921273 0.685532
vt 0.930701 0.674434
vt 0.962839 0.622557
vt 0.964104 0.630671
vt 0.959228 0.629394
vt 0.953916 0.640449
vt 0.961037 0.643376
vt 0.964732 0.614343
vt 0.960566 0.617529
vt 0.956705 0.614108
vt 0.959961 0.610006
vt 0.969183 0.644951
vt 0.969469 0.630807
vt 0.937339 0.619929
vt 0.927503 0.632046
vt 0.925481 0.624027
vt 0.871741 0.641258
vt 0.859821 0.621909
vt 0.867842 0.617961
vt 0.875694 0.624688
vt 0.952501 0.611890
vt 0.947134 0.616288
vt 0.967484 0.620548
vt 0.912499 0.627161
vt 0.914670 0.634606
vt 0.903122 0.637038
vt 0.900236 0.628826
vt 0.916368 0.637780
vt 0.932432 0.639767
vt 0.922226 0.647357
vt 0.954915 0.607942
vt 0.961878 0.676088
vt 0.949542 0.670708
vt 0.955856 0.657596
vt 0.966480 0.661042
vt 0.938823 0.663993
vt 0.946626 0.652732
vt 0.929714 0.656156
vt 0.938826 0.646732
vt 0.904971 0.733439
vt 0.888943 0.719117
vt 0.908345 0.699549
vt 0.922635 0.711672
vt 0.874657 0.703278
vt 0.895874 0.686277
vt 0.855231 0.604773
vt 0.863046 0.605184
vt 0.862404 0.685960
vt 0.885359 0.671840
vt 0.852496 0.667261
vt 0.877007 0.656325
vt 0.845175 0.647374
vt 0.922402 0.746316
vt 0.938683 0.722748
vt 0.938748 0.607976
vt 0.948215 0.608067
vt 0.887587 0.628818
vt 0.888460 0.606371
vt 0.901387 0.606890
vt 0.876293 0.605833
vt 0.889266 0.638712
vt 0.913756 0.607326
vt 0.926667 0.607710
vt 0.840099 0.626185
vt 0.839413 0.603877
vt 0.548711 0.782406
vt 0.548711 0.442887
vt 0.467250 0.782406
vt 0.467250 0.442887
vt 0.487615 0.442887
vt 0.487615 0.782406
vt 0.446885 0.782406
vt 0.446885 0.442887
vt 0.426519 0.782406
vt 0.426519 0.442887
vt 0.507980 0.782406
vt 0.507980 0.442887
vt 0.406154 0.782406
vt 0.406154 0.442887
vt 0.528345 0.782406
vt 0.528345 0.442887
vt 0.949163 0.580486
vt 0.956039 0.589469
vt 0.952498 0.592077
vt 0.944043 0.584885
vt 0.955024 0.515423
vt 0.960649 0.530148
vt 0.946953 0.535915
vt 0.939970 0.522907
vt 0.896712 0.564993
vt 0.904911 0.552752
vt 0.915393 0.560999
vt 0.908139 0.571511
vt 0.939823 0.590325
vt 0.949017 0.596240
vt 0.914913 0.541598
vt 0.924316 0.551465
vt 0.926616 0.531635
vt 0.934843 0.543063
vt 0.961985 0.594589
vt 0.959036 0.588074
vt 0.963659 0.587176
vt 0.954706 0.577297
vt 0.961652 0.574994
vt 0.963180 0.601982
vt 0.959239 0.605762
vt 0.956230 0.602152
vt 0.959702 0.599074
vt 0.969469 0.574093
vt 0.968659 0.587421
vt 0.937796 0.596145
vt 0.926380 0.591530
vt 0.928822 0.583818
vt 0.874880 0.571928
vt 0.877465 0.587089
vt 0.869110 0.593003
vt 0.861663 0.588340
vt 0.952378 0.604271
vt 0.947243 0.600010
vt 0.966063 0.596696
vt 0.913826 0.587643
vt 0.901904 0.585133
vt 0.905325 0.577385
vt 0.916456 0.580499
vt 0.918333 0.577514
vt 0.924687 0.568600
vt 0.934072 0.576625
vt 0.964890 0.543870
vt 0.968114 0.558596
vt 0.957730 0.561088
vt 0.952665 0.548072
vt 0.948565 0.565080
vt 0.941878 0.553718
vt 0.940682 0.570314
vt 0.932545 0.560610
vt 0.914789 0.484125
vt 0.930024 0.506549
vt 0.915268 0.517077
vt 0.898163 0.496604
vt 0.902150 0.528885
vt 0.883070 0.510690
vt 0.890789 0.542005
vt 0.869771 0.526370
vt 0.858554 0.543584
vt 0.881367 0.556391
vt 0.849521 0.562144
vt 0.932635 0.473156
vt 0.946378 0.497193
vt 0.889516 0.584144
vt 0.891799 0.575434
vt 0.842893 0.582228
s 1
f 176/349/51 190/350/52 184/351/53 175/352/54
f 178/353/55 177/354/56 185/355/57 186/356/58
f 179/357/59 178/353/55 186/356/58 187/358/60
f 180/359/61 179/357/59 187/358/60 188/360/62
f 173/361/63 182/362/64 185/355/57 177/354/56
f 181/363/65 180/359/61 188/360/62 189/364/66
f 174/365/67 183/366/68 182/362/64 173/361/63
f 175/352/54 184/351/53 183/366/68 174/365/67
f 315/367/69 318/368/70 197/369/71 198/370/72
f 235/371/73 236/372/74 195/373/75 196/374/76
f 238/375/77 191/376/78 192/377/79 232/378/80
f 317/379/81 204/380/82 197/369/71 318/368/70
f 237/381/83 232/378/80 192/377/79 193/382/84
f 233/383/85 237/381/83 193/382/84 194/384/86
f 236/372/74 233/383/85 194/384/86 195/373/75
f 205/385/87 200/386/88 199/387/89 198/370/72
f 319/388/90 315/367/69 198/370/72 199/387/89
f 316/389/91 319/388/90 199/387/89 200/386/88
f 202/390/92 206/391/93 213/392/94 212/393/95
f 320/394/96 316/389/91 200/386/88 201/395/97
f 321/396/98 317/379/81 214/397/99 227/398/100
f 206/391/93 205/385/87 198/370/72 197/369/71
f 221/399/101 252/400/102 230/401/103 251/402/104
f 229/403/105 213/392/94 204/380/82 226/404/106
f 202/390/92 203/405/107 205/385/87 206/391/93
f 203/405/107 201/395/97 200/386/88 205/385/87
f 245/406/108 250/407/109 249/408/110 225/409/111
f 241/410/112 214/397/99 207/411/113 239/412/114
f 224/413/115 212/393/95 213/392/94 229/403/105
f 240/414/116 243/415/117 210/416/118 211/417/119
f 243/415/117 242/418/120 209/419/121 210/416/118
f 206/391/93 197/369/71 204/380/82 213/392/94
f 242/418/120 244/420/122 208/421/123 209/419/121
f 188/422/62 187/423/60 219/424/124 215/425/125
f 187/423/60 186/426/58 218/427/126 219/424/124
f 230/401/103 252/400/102 253/428/127 231/429/128
f 186/426/58 185/430/57 217/431/129 218/427/126
f 182/432/64 220/433/130 217/431/129 185/430/57
f 183/434/68 221/399/101 220/433/130 182/432/64
f 189/435/66 188/422/62 215/425/125 216/436/131
f 321/396/132 322/437/133 246/438/134 226/404/135
f 228/439/136 223/440/137 247/441/138 225/409/139
f 231/429/140 254/442/141 251/402/142 230/401/143
f 215/425/125 219/424/124 233/383/85 236/372/74
f 219/424/124 218/427/126 237/381/83 233/383/85
f 218/427/126 217/431/129 232/378/80 237/381/83
f 220/433/130 238/375/77 232/378/80 217/431/129
f 221/399/101 234/443/144 238/375/77 220/433/130
f 216/436/131 215/425/125 236/372/74 235/371/73
f 193/382/84 192/377/79 239/412/114 244/420/122
f 194/384/86 193/382/84 244/420/122 242/418/120
f 195/373/75 194/384/86 242/418/120 243/415/117
f 196/374/76 195/373/75 243/415/117 240/414/116
f 191/376/78 241/410/112 239/412/114 192/377/79
f 227/398/100 214/397/99 250/407/109 245/406/108
f 226/404/135 246/438/134 224/413/145 229/403/146
f 225/409/139 247/441/138 248/444/147 245/406/148
f 245/406/148 248/444/147 222/445/149 227/398/150
f 225/409/111 249/408/110 234/443/144 228/439/151
f 249/408/110 191/376/78 238/375/77 234/443/144
f 250/407/109 214/397/99 241/410/112
f 249/408/110 250/407/109 241/410/112 191/376/78
f 234/443/144 221/399/101 251/402/104 228/439/151
f 253/428/127 252/400/102 184/446/53 190/447/52
f 252/400/102 221/399/101 183/434/68 184/446/53
f 251/402/142 254/442/141 223/440/137 228/439/136
f 244/420/122 239/412/114 207/411/113 208/421/123
f 176/349/51 257/448/152 264/449/153 190/350/52
f 259/450/154 266/451/155 265/452/156 258/453/157
f 260/454/158 267/455/159 266/451/155 259/450/154
f 261/456/160 268/457/161 267/455/159 260/454/158
f 255/458/162 258/453/157 265/452/156 262/459/163
f 181/460/65 189/461/66 268/457/161 261/456/160
f 256/462/164 255/458/162 262/459/163 263/463/165
f 257/448/152 256/462/164 263/463/165 264/449/153
f 323/464/166 275/465/167 274/466/168 326/467/169
f 235/468/73 196/469/76 273/470/170 302/471/171
f 304/472/172 299/473/173 270/474/174 269/475/175
f 325/476/176 326/467/169 274/466/168 278/477/177
f 303/478/178 271/479/179 270/474/174 299/473/173
f 300/480/180 272/481/181 271/479/179 303/478/178
f 302/471/171 273/470/170 272/481/181 300/480/180
f 279/482/182 275/465/167 276/483/183 277/484/184
f 327/485/185 276/483/183 275/465/167 323/464/166
f 324/486/186 277/484/184 276/483/183 327/485/185
f 202/487/92 212/488/95 285/489/187 280/490/188
f 320/491/96 201/492/97 277/484/184 324/486/186
f 328/493/189 295/494/190 286/495/191 325/476/176
f 280/490/188 274/466/168 275/465/167 279/482/182
f 292/496/192 313/497/193 298/498/194 314/499/195
f 297/500/196 294/501/197 278/477/177 285/489/187
f 202/487/92 280/490/188 279/482/182 203/502/107
f 203/502/107 279/482/182 277/484/184 201/492/97
f 310/503/198 293/504/199 311/505/200 312/506/201
f 306/507/202 305/508/203 281/509/204 286/495/191
f 224/413/115 297/500/196 285/489/187 212/488/95
f 240/510/116 211/511/119 284/512/205 308/513/206
f 308/513/206 284/512/205 283/514/207 307/515/208
f 280/490/188 285/489/187 278/477/177 274/466/168
f 307/515/208 283/514/207 282/516/209 309/517/210
f 268/518/161 287/519/211 290/520/212 267/521/159
f 267/521/159 290/520/212 289/522/213 266/523/155
f 298/498/194 231/429/128 253/428/127 314/499/195
f 266/523/155 289/522/213 288/524/214 265/525/156
f 262/526/163 265/525/156 288/524/214 291/527/215
f 263/528/165 262/526/163 291/527/215 292/496/192
f 189/529/66 216/530/131 287/519/211 268/518/161
f 328/493/216 294/501/217 246/438/134 322/437/133
f 296/531/136 293/504/139 247/441/138 223/440/137
f 231/429/140 298/498/218 313/497/219 254/442/141
f 287/519/211 302/471/171 300/480/180 290/520/212
f 290/520/212 300/480/180 303/478/178 289/522/213
f 289/522/213 303/478/178 299/473/173 288/524/214
f 291/527/215 288/524/214 299/473/173 304/472/172
f 292/496/192 291/527/215 304/472/172 301/532/220
f 216/530/131 235/468/73 302/471/171 287/519/211
f 271/479/179 309/517/210 305/508/203 270/474/174
f 272/481/181 307/515/208 309/517/210 271/479/179
f 273/470/170 308/513/206 307/515/208 272/481/181
f 196/469/76 240/510/116 308/513/206 273/470/170
f 269/475/175 270/474/174 305/508/203 306/507/202
f 295/494/190 310/503/198 312/506/201 286/495/191
f 294/501/217 297/500/221 224/413/145 246/438/134
f 293/504/139 310/503/148 248/444/147 247/441/138
f 310/503/148 295/494/222 222/445/149 248/444/147
f 293/504/199 296/531/223 301/532/220 311/505/200
f 311/505/200 301/532/220 304/472/172 269/475/175
f 312/506/201 306/507/202 286/495/191
f 311/505/200 269/475/175 306/507/202 312/506/201
f 301/532/220 296/531/223 313/497/193 292/496/192
f 253/428/127 190/447/52 264/533/153 314/499/195
f 314/499/195 264/533/153 263/528/165 292/496/192
f 313/497/219 296/531/136 223/440/137 254/442/141
f 309/517/210 282/516/209 281/509/204 305/508/203
f 295/494/222 328/493/216 322/437/133 222/445/149
f 294/501/197 328/493/189 325/476/176 278/477/177
f 211/511/119 320/491/96 324/486/186 284/512/205
f 284/512/205 324/486/186 327/485/185 283/514/207
f 283/514/207 327/485/185 323/464/166 282/516/209
f 286/495/191 281/509/204 326/467/169 325/476/176
f 282/516/209 323/464/166 326/467/169 281/509/204
f 227/398/150 222/445/149 322/437/133 321/396/132
f 226/404/106 204/380/82 317/379/81 321/396/98
f 211/417/119 210/416/118 316/389/91 320/394/96
f 210/416/118 209/419/121 319/388/90 316/389/91
f 209/419/121 208/421/123 315/367/69 319/388/90
f 214/397/99 317/379/81 318/368/70 207/411/113
f 208/421/123 207/411/113 318/368/70 315/367/69
