# Blender 4.0.2
# www.blender.org
o adhesive_bottle
v 0.000000 0.021506 0.021556
v 0.000000 0.043012 0.021738
v 0.000000 0.064518 0.020909
v 0.000000 0.021506 -0.013148
v 0.000000 0.043012 -0.013815
v 0.000000 0.064518 -0.016186
v -0.012855 0.021506 0.020210
v -0.011911 0.043012 0.020468
v -0.010256 0.064518 0.020085
v -0.011555 0.021506 -0.013984
v -0.010707 0.043012 -0.014284
v -0.009219 0.064518 -0.016314
v -0.023563 -0.000000 0.007524
v -0.023104 -0.000000 -0.006205
v -0.011820 -0.000000 -0.005504
v 0.000000 -0.000000 -0.004949
v -0.025472 0.021506 0.016990
v -0.031525 0.021506 0.008394
v -0.029752 0.021506 0.013882
v -0.023176 0.043012 0.017756
v -0.029210 0.043012 0.009060
v -0.027443 0.043012 0.014024
v -0.025152 0.064518 0.010237
v -0.018992 0.064518 0.018310
v -0.023348 0.064518 0.015364
v -0.018827 0.064518 -0.017000
v -0.025152 0.064518 -0.011046
v -0.023299 0.064518 -0.015370
v -0.022913 0.043012 -0.015604
v -0.029210 0.043012 -0.009870
v -0.027366 0.043012 -0.014128
v -0.031525 0.021506 -0.009204
v -0.025235 0.021506 -0.014974
v -0.029683 0.021506 -0.013472
v -0.012350 -0.000000 0.008964
v 0.000000 -0.000000 0.009628
v 0.012855 0.021506 0.020210
v 0.011911 0.043012 0.020468
v 0.010256 0.064518 0.020085
v 0.011555 0.021506 -0.013984
v 0.010707 0.043012 -0.014284
v 0.009219 0.064518 -0.016314
v 0.023563 -0.000000 0.007524
v 0.000000 0.078376 0.019873
v 0.000000 0.078264 -0.018352
v -0.007631 0.078264 -0.018496
v -0.008475 0.078376 0.019313
v 0.023104 -0.000000 -0.006205
v 0.011820 -0.000000 -0.005504
v -0.014521 0.078376 0.018233
v -0.014480 0.078264 -0.018646
v 0.025472 0.021506 0.016990
v 0.031525 0.021506 0.008394
v 0.029752 0.021506 0.013882
v 0.023176 0.043012 0.017756
v 0.029210 0.043012 0.009060
v 0.027443 0.043012 0.014024
v 0.025152 0.064518 0.010237
v 0.018992 0.064518 0.018310
v 0.023348 0.064518 0.015364
v 0.000000 0.086023 -0.017278
v 0.000000 0.083556 -0.019408
v 0.000000 0.085210 -0.018671
v 0.000000 0.083540 0.019243
v 0.000000 0.086023 0.016519
v 0.000000 0.085205 0.018082
v -0.007438 0.086023 0.016251
v -0.007812 0.083533 0.018881
v -0.007446 0.085203 0.017788
v -0.007021 0.083549 -0.019231
v -0.006789 0.086023 -0.017054
v -0.006722 0.085208 -0.018461
v -0.015879 0.086023 0.012034
v -0.019132 0.083617 0.012280
v -0.017572 0.085228 0.012134
v -0.016841 0.083565 0.017041
v -0.014726 0.086023 0.014778
v -0.015825 0.085213 0.016090
v -0.019132 0.083617 -0.013089
v -0.015879 0.086023 -0.012842
v -0.017572 0.085228 -0.012941
v -0.014726 0.086023 -0.015573
v -0.016917 0.083583 -0.017612
v -0.015844 0.085218 -0.016825
v 0.018827 0.064518 -0.017000
v 0.025152 0.064518 -0.011046
v 0.023299 0.064518 -0.015370
v 0.022913 0.043012 -0.015604
v 0.029210 0.043012 -0.009870
v 0.027366 0.043012 -0.014128
v 0.031525 0.021506 -0.009204
v 0.025235 0.021506 -0.014974
v 0.029683 0.021506 -0.013472
v 0.012350 -0.000000 0.008964
v 0.007631 0.078264 -0.018496
v 0.008475 0.078376 0.019313
v 0.014521 0.078376 0.018233
v 0.014480 0.078264 -0.018646
v 0.007438 0.086023 0.016251
v 0.007812 0.083533 0.018881
v 0.000000 0.004948 -0.013618
v 0.000000 -0.000000 -0.008801
v 0.000000 0.001449 -0.012265
v 0.000000 -0.000000 0.015428
v 0.000000 0.004949 0.020568
v 0.000000 0.001449 0.019008
v -0.011767 -0.000000 -0.009425
v -0.011555 0.004949 -0.014282
v -0.011617 0.001450 -0.012896
v -0.012855 0.004950 0.019398
v -0.012641 -0.000000 0.014329
v -0.012793 0.001450 0.017882
v -0.023282 -0.000000 0.011803
v -0.025452 0.004950 0.016359
v -0.024814 0.001450 0.015015
v -0.026575 -0.000000 0.007524
v -0.031525 0.004950 0.008395
v -0.030075 0.001450 0.008140
v -0.025621 -0.000000 0.010151
v -0.029747 0.004950 0.013306
v -0.028538 0.001450 0.012379
v -0.026575 -0.000000 -0.007264
v -0.031525 0.004950 -0.009204
v -0.030075 0.001450 -0.008907
v -0.023733 -0.000000 -0.010059
v -0.025232 0.004950 -0.015067
v -0.025018 0.001450 -0.013624
v -0.025983 -0.000000 -0.009571
v -0.029682 0.004950 -0.013500
v -0.028598 0.001450 -0.012353
v 0.007446 0.085203 0.017788
v 0.007021 0.083549 -0.019231
v 0.006789 0.086023 -0.017054
v 0.006722 0.085208 -0.018461
v 0.015879 0.086023 0.012034
v 0.019132 0.083617 0.012280
v 0.017572 0.085228 0.012134
v 0.016841 0.083565 0.017041
v 0.014726 0.086023 0.014778
v 0.015825 0.085213 0.016090
v 0.019132 0.083617 -0.013089
v 0.015879 0.086023 -0.012842
v 0.017572 0.085228 -0.012941
v 0.014726 0.086023 -0.015573
v 0.016917 0.083583 -0.017612
v 0.015844 0.085218 -0.016825
v 0.011767 -0.000000 -0.009425
v 0.011555 0.004949 -0.014282
v 0.011617 0.001450 -0.012896
v 0.000000 0.086023 0.012034
v -0.007356 0.086023 0.012034
v 0.012855 0.004950 0.019398
v 0.000000 0.086023 -0.012842
v -0.006871 0.086023 -0.012842
v 0.012641 -0.000000 0.014329
v 0.012793 0.001450 0.017882
v 0.023282 -0.000000 0.011803
v 0.025452 0.004950 0.016359
v 0.024814 0.001450 0.015015
v 0.026575 -0.000000 0.007524
v 0.031525 0.004950 0.008395
v 0.030075 0.001450 0.008140
v 0.025621 -0.000000 0.010151
v 0.029747 0.004950 0.013306
v 0.028538 0.001450 0.012379
v 0.026575 -0.000000 -0.007264
v 0.031525 0.004950 -0.009204
v 0.030075 0.001450 -0.008907
v 0.023733 -0.000000 -0.010059
v 0.025232 0.004950 -0.015067
v 0.025018 0.001450 -0.013624
v 0.025983 -0.000000 -0.009571
v 0.029682 0.004950 -0.013500
v 0.028598 0.001450 -0.012353
v 0.007356 0.086023 0.012034
v 0.006871 0.086023 -0.012842
v 0.000000 0.106176 -0.009311
v 0.000000 0.106176 0.009311
v -0.003563 0.106176 0.008602
v -0.006584 0.106176 0.006584
v -0.008602 0.106176 0.003563
v -0.009311 0.106176 0.000000
v -0.008602 0.106176 -0.003563
v -0.006584 0.106176 -0.006584
v -0.003563 0.106176 -0.008602
v 0.000000 0.104118 -0.013582
v 0.000000 0.104118 0.013582
v -0.005198 0.104118 0.012548
v -0.009604 0.104118 0.009604
v -0.012548 0.104118 0.005198
v -0.013582 0.104118 -0.000000
v -0.012548 0.104118 -0.005198
v -0.009604 0.104118 -0.009604
v -0.005198 0.104118 -0.012548
v 0.000000 0.109004 -0.007075
v 0.003563 0.106176 0.008602
v 0.006584 0.106176 0.006584
v 0.008602 0.106176 0.003563
v 0.000000 0.109004 0.007075
v -0.002707 0.109004 0.006536
v -0.005003 0.109004 0.005003
v -0.006536 0.109004 0.002707
v -0.007075 0.109004 0.000000
v -0.006536 0.109004 -0.002707
v -0.005003 0.109004 -0.005003
v -0.002707 0.109004 -0.006536
v 0.009311 0.106176 0.000000
v 0.000000 0.111661 -0.006204
v 0.008602 0.106176 -0.003563
v 0.006584 0.106176 -0.006584
v 0.003563 0.106176 -0.008602
v 0.005198 0.104118 0.012548
v 0.000000 0.111661 0.006204
v -0.002374 0.111661 0.005731
v -0.004387 0.111661 0.004387
v -0.005731 0.111661 0.002374
v -0.006204 0.111661 0.000000
v -0.005731 0.111661 -0.002374
v -0.004387 0.111661 -0.004387
v -0.002374 0.111661 -0.005731
v 0.009604 0.104118 0.009604
v 0.000000 0.111661 -0.006748
v 0.012548 0.104118 0.005198
v 0.013582 0.104118 -0.000000
v 0.012548 0.104118 -0.005198
v 0.009604 0.104118 -0.009604
v 0.005198 0.104118 -0.012548
v 0.000000 0.111661 0.006748
v -0.002582 0.111661 0.006234
v -0.004771 0.111661 0.004771
v -0.006234 0.111661 0.002582
v -0.006748 0.111661 0.000000
v -0.006234 0.111661 -0.002582
v -0.004771 0.111661 -0.004771
v -0.002582 0.111661 -0.006234
v 0.000000 0.122175 -0.004017
v 0.002707 0.109004 0.006536
v 0.005003 0.109004 0.005003
v 0.006536 0.109004 0.002707
v 0.007075 0.109004 0.000000
v 0.006536 0.109004 -0.002707
v 0.005003 0.109004 -0.005003
v 0.000000 0.122175 0.004017
v -0.001537 0.122175 0.003711
v -0.002840 0.122175 0.002840
v -0.003711 0.122175 0.001537
v -0.004017 0.122175 0.000000
v -0.003711 0.122175 -0.001537
v -0.002840 0.122175 -0.002840
v -0.001537 0.122175 -0.003711
v 0.002707 0.109004 -0.006536
v 0.000000 0.122175 -0.005481
v 0.002374 0.111661 0.005731
v 0.004387 0.111661 0.004387
v 0.005731 0.111661 0.002374
v 0.006204 0.111661 0.000000
v 0.000000 0.122175 0.005481
v -0.002098 0.122175 0.005064
v -0.003876 0.122175 0.003876
v -0.005064 0.122175 0.002098
v -0.005481 0.122175 0.000000
v -0.005064 0.122175 -0.002098
v -0.003876 0.122175 -0.003876
v -0.002098 0.122175 -0.005064
v 0.005731 0.111661 -0.002374
v 0.000000 0.129946 -0.001541
v 0.004387 0.111661 -0.004387
v 0.002374 0.111661 -0.005731
v 0.002582 0.111661 0.006234
v 0.004771 0.111661 0.004771
v 0.000000 0.129946 0.001541
v -0.000590 0.129946 0.001423
v -0.001089 0.129946 0.001089
v -0.001423 0.129946 0.000590
v -0.001541 0.129946 0.000000
v -0.001423 0.129946 -0.000590
v -0.001089 0.129946 -0.001089
v -0.000590 0.129946 -0.001423
v 0.006234 0.111661 0.002582
v 0.000000 0.129946 -0.002645
v 0.006748 0.111661 0.000000
v 0.006234 0.111661 -0.002582
v 0.004771 0.111661 -0.004771
v 0.002582 0.111661 -0.006234
v 0.000000 0.129946 0.002645
v -0.001012 0.129946 0.002443
v -0.001870 0.129946 0.001870
v -0.002443 0.129946 0.001012
v -0.002645 0.129946 0.000000
v -0.002443 0.129946 -0.001012
v -0.001870 0.129946 -0.001870
v -0.001012 0.129946 -0.002443
v 0.001537 0.122175 0.003711
v 0.000000 0.124799 -0.001541
v 0.002840 0.122175 0.002840
v 0.003711 0.122175 0.001537
v 0.004017 0.122175 0.000000
v 0.003711 0.122175 -0.001537
v 0.002840 0.122175 -0.002840
v 0.001537 0.122175 -0.003711
v 0.000000 0.124799 0.001541
v -0.000590 0.124799 0.001423
v -0.001089 0.124799 0.001089
v -0.001423 0.124799 0.000590
v -0.001541 0.124799 0.000000
v -0.001423 0.124799 -0.000590
v -0.001089 0.124799 -0.001089
v -0.000590 0.124799 -0.001423
v -0.003251 0.128271 0.001346
v -0.003518 0.128271 0.000000
v -0.003251 0.128271 -0.001346
v 0.002098 0.122175 0.005064
v -0.002488 0.128271 -0.002488
v 0.003876 0.122175 0.003876
v -0.001346 0.128271 -0.003251
v 0.000000 0.128271 0.003518
v 0.000000 0.128271 -0.003518
v 0.005064 0.122175 0.002098
v -0.001346 0.128271 0.003251
v 0.005481 0.122175 0.000000
v -0.002488 0.128271 0.002488
v 0.005064 0.122175 -0.002098
v -0.002869 0.129250 0.001188
v 0.003876 0.122175 -0.003876
v 0.000000 0.129250 -0.003105
v -0.003105 0.129250 0.000000
v 0.002098 0.122175 -0.005064
v -0.002869 0.129250 -0.001188
v -0.002195 0.129250 -0.002195
v -0.001188 0.129250 -0.002869
v 0.000000 0.129250 0.003105
v 0.000590 0.129946 0.001423
v -0.001188 0.129250 0.002869
v 0.001089 0.129946 0.001089
v -0.002195 0.129250 0.002195
v 0.001423 0.129946 0.000590
v 0.000000 0.087493 -0.014813
v 0.001541 0.129946 0.000000
v 0.001423 0.129946 -0.000590
v 0.001089 0.129946 -0.001089
v 0.000590 0.129946 -0.001423
v 0.001012 0.129946 0.002443
v 0.000000 0.087493 0.014813
v -0.005669 0.087493 0.013685
v -0.010474 0.087493 0.010474
v -0.013685 0.087493 0.005669
v -0.014813 0.087493 -0.000000
v -0.013685 0.087493 -0.005669
v -0.010474 0.087493 -0.010474
v -0.005669 0.087493 -0.013685
v 0.000000 0.085971 -0.014219
v 0.001870 0.129946 0.001870
v 0.002443 0.129946 0.001012
v 0.002645 0.129946 0.000000
v 0.002443 0.129946 -0.001012
v 0.001870 0.129946 -0.001870
v 0.001012 0.129946 -0.002443
v 0.000590 0.124799 0.001423
v 0.001089 0.124799 0.001089
v 0.001423 0.124799 0.000590
v 0.001541 0.124799 0.000000
v 0.001423 0.124799 -0.000590
v 0.001089 0.124799 -0.001089
v 0.000000 0.085971 0.014219
v 0.000000 0.087441 0.014110
v -0.005441 0.085971 0.013136
v -0.005400 0.087441 0.013036
v -0.010054 0.085971 0.010054
v -0.009977 0.087441 0.009977
v -0.013136 0.085971 0.005441
v -0.013036 0.087441 0.005400
v -0.014219 0.085971 -0.000000
v -0.014110 0.087441 -0.000000
v -0.013136 0.085971 -0.005441
v -0.013036 0.087441 -0.005400
v -0.010054 0.085971 -0.010054
v -0.009977 0.087441 -0.009977
v -0.005441 0.085971 -0.013136
v -0.005400 0.087441 -0.013036
v 0.000000 0.087441 -0.014110
v 0.000590 0.124799 -0.001423
v 0.003251 0.128271 0.001346
v 0.003518 0.128271 0.000000
v 0.003251 0.128271 -0.001346
v 0.002488 0.128271 -0.002488
v 0.001346 0.128271 -0.003251
v 0.001346 0.128271 0.003251
v 0.002488 0.128271 0.002488
v 0.002869 0.129250 0.001188
v 0.003105 0.129250 0.000000
v 0.002869 0.129250 -0.001188
v 0.002195 0.129250 -0.002195
v 0.001188 0.129250 -0.002869
v 0.001188 0.129250 0.002869
v 0.002195 0.129250 0.002195
v 0.005669 0.087493 0.013685
v 0.010474 0.087493 0.010474
v 0.013685 0.087493 0.005669
v 0.014813 0.087493 -0.000000
v 0.013685 0.087493 -0.005669
v 0.010474 0.087493 -0.010474
v 0.005669 0.087493 -0.013685
v 0.005441 0.085971 0.013136
v 0.005400 0.087441 0.013036
v 0.010054 0.085971 0.010054
v 0.009977 0.087441 0.009977
v 0.013136 0.085971 0.005441
v 0.013036 0.087441 0.005400
v 0.014219 0.085971 -0.000000
v 0.014110 0.087441 -0.000000
v 0.013136 0.085971 -0.005441
v 0.013036 0.087441 -0.005400
v 0.010054 0.085971 -0.010054
v 0.009977 0.087441 -0.009977
v 0.005441 0.085971 -0.013136
v 0.005400 0.087441 -0.013036
v 0.000000 0.124799 0.000000
vn -0.1274 0.0931 0.9875
vn -0.1145 0.3458 0.9313
vn -0.5648 0.4129 0.7145
vn -0.2949 0.1042 0.9498
vn 0.6874 0.0274 -0.7258
vn 0.9788 0.0493 -0.1988
vn 0.9609 -0.1938 -0.1977
vn 0.6682 -0.1988 -0.7169
vn 0.0772 0.7391 0.6691
vn 0.1145 0.3458 0.9313
vn 0.5648 0.4129 0.7145
vn 0.3817 0.7662 0.5169
vn -0.9580 0.2284 0.1734
vn -0.8555 0.4828 0.1873
vn -0.8550 0.4788 -0.1993
vn -0.9541 0.2237 -0.1990
vn 0.1724 0.9602 0.2197
vn 0.5926 0.7943 0.1339
vn 0.2432 0.9683 0.0566
vn -0.1609 -0.2239 0.9612
vn -0.1723 -0.0274 0.9847
vn -0.4375 -0.0059 0.8992
vn -0.4084 -0.2138 0.8874
vn -0.1503 -0.0390 -0.9879
vn -0.5391 0.3589 -0.7620
vn -0.0691 0.1866 -0.9800
vn -0.0080 -0.1122 -0.9936
vn -0.9770 0.1380 0.1626
vn -0.9708 0.1346 -0.1985
vn -0.1250 -0.0255 -0.9918
vn -0.1469 -0.0540 -0.9877
vn 0.0468 -0.1248 -0.9911
vn 0.0676 -0.0612 -0.9958
vn 0.8555 0.4828 0.1873
vn -0.0105 -0.9805 -0.1961
vn -0.0000 -1.0000 -0.0000
vn -0.0000 -0.9818 -0.1901
vn -0.0334 -0.9793 0.1995
vn -0.0879 -0.9767 0.1957
vn -0.0000 0.1299 -0.9915
vn -0.0000 -0.1620 -0.9868
vn 0.0189 -0.9785 -0.2055
vn 0.1024 -0.6873 -0.7192
vn 0.4971 -0.6870 -0.5300
vn 0.1575 -0.9735 -0.1657
vn -0.8125 0.0289 0.5822
vn -0.7842 -0.2060 0.5854
vn -0.1656 0.0111 0.9861
vn -0.4386 0.0400 0.8978
vn -0.1449 0.0501 0.9882
vn -0.3774 0.0741 0.9231
vn -0.0000 -0.1300 -0.9915
vn -0.0000 -0.0632 -0.9980
vn 0.0694 -0.0042 -0.9976
vn -0.0000 -0.0002 -1.0000
vn 0.0315 0.9671 0.2526
vn 0.1609 -0.2239 0.9612
vn 0.4084 -0.2138 0.8874
vn 0.4375 -0.0059 0.8992
vn 0.1723 -0.0274 0.9847
vn 0.1449 0.0501 0.9882
vn 0.3774 0.0741 0.9231
vn 0.2949 0.1042 0.9498
vn 0.1274 0.0931 0.9875
vn 0.0594 -0.1792 -0.9820
vn -0.0000 -0.1755 -0.9845
vn 0.7733 0.1631 0.6127
vn 0.9580 0.2284 0.1734
vn 0.7842 -0.2060 0.5854
vn 0.8125 0.0289 0.5822
vn 0.9770 0.1380 0.1626
vn 0.9708 0.1346 -0.1985
vn 0.9541 0.2237 -0.1990
vn -0.6874 0.0274 -0.7258
vn -0.6682 -0.1988 -0.7169
vn -0.9609 -0.1938 -0.1977
vn -0.9788 0.0493 -0.1988
vn -0.7733 0.1631 0.6127
vn -0.0000 0.0878 0.9961
vn -0.0000 0.3424 0.9396
vn -0.1322 -0.0012 -0.9912
vn -0.0000 0.0119 0.9999
vn -0.0000 0.0508 0.9987
vn -0.0000 -0.0311 0.9995
vn 0.6849 0.1161 -0.7193
vn 0.6829 0.0699 -0.7272
vn 0.1250 -0.0255 -0.9918
vn -0.0676 -0.0612 -0.9958
vn -0.0468 -0.1248 -0.9911
vn 0.1469 -0.0540 -0.9877
vn -0.9858 0.0497 0.1606
vn 0.1656 0.0111 0.9861
vn 0.9858 0.0497 0.1606
vn 0.5927 0.7941 -0.1347
vn 0.2431 0.9683 -0.0568
vn 0.1147 -0.7045 0.7004
vn 0.0334 -0.9793 0.1995
vn 0.0879 -0.9767 0.1957
vn 0.2988 -0.6906 0.6586
vn -0.1347 -0.1869 -0.9731
vn 0.1503 -0.0390 -0.9879
vn 0.0080 -0.1122 -0.9936
vn 0.0691 0.1866 -0.9800
vn 0.5391 0.3589 -0.7620
vn 0.8147 0.1015 0.5709
vn -0.9668 -0.1950 0.1649
vn -0.8147 0.1015 0.5709
vn 0.1322 -0.0012 -0.9912
vn -0.0694 -0.0042 -0.9976
vn -0.6829 0.0699 -0.7272
vn -0.6849 0.1161 -0.7193
vn 0.8550 0.4788 -0.1993
vn 0.1347 -0.1869 -0.9731
vn -0.0393 -0.7009 -0.7122
vn -0.0594 -0.1792 -0.9820
vn -0.0000 -0.7060 -0.7082
vn 0.4386 0.0400 0.8978
vn -0.0000 1.0000 -0.0000
vn -0.2432 0.9683 0.0566
vn -0.1724 0.9602 0.2197
vn -0.0315 0.9671 0.2526
vn -0.0000 -0.2301 0.9732
vn -0.0000 -0.9795 0.2016
vn 0.9668 -0.1950 0.1649
vn 0.2096 -0.9771 0.0369
vn 0.2026 -0.9788 -0.0285
vn 0.5801 -0.6845 0.4416
vn -0.0303 0.9626 -0.2691
vn -0.0000 0.9641 -0.2656
vn -0.0000 0.6686 -0.7436
vn -0.0696 0.6768 -0.7328
vn -0.0000 0.9693 0.2459
vn -0.0772 0.7391 0.6691
vn -0.0000 0.7423 0.6700
vn -0.5926 0.7943 0.1339
vn -0.3817 0.7662 0.5169
vn -0.2431 0.9683 -0.0568
vn -0.1697 0.9579 -0.2315
vn -0.3763 0.7396 -0.5580
vn -0.5927 0.7941 -0.1347
vn 0.7125 -0.6904 0.1252
vn 0.7091 -0.6901 -0.1448
vn 0.0696 0.6768 -0.7328
vn 0.0303 0.9626 -0.2691
vn 0.1697 0.9579 -0.2315
vn 0.3763 0.7396 -0.5580
vn 0.1760 -0.9752 0.1342
vn -0.0000 -0.7070 0.7072
vn -0.1147 -0.7045 0.7004
vn 0.0105 -0.9805 -0.1961
vn 0.0393 -0.7009 -0.7122
vn -0.0189 -0.9785 -0.2055
vn -0.1575 -0.9735 -0.1657
vn -0.4971 -0.6870 -0.5300
vn -0.1024 -0.6873 -0.7192
vn -0.2026 -0.9788 -0.0285
vn -0.7091 -0.6901 -0.1448
vn -0.1760 -0.9752 0.1342
vn -0.2988 -0.6906 0.6586
vn -0.5801 -0.6845 0.4416
vn -0.2096 -0.9771 0.0369
vn -0.7125 -0.6904 0.1252
vn 0.3816 0.0739 0.9214
vn 0.7052 0.0739 0.7052
vn 0.9214 0.0739 0.3816
vn 0.0283 -0.9973 -0.0682
vn -0.0000 -0.9973 -0.0738
vn -0.3827 -0.0000 -0.9239
vn -0.0000 -0.0000 -1.0000
vn 0.9208 0.0815 0.3814
vn 0.8983 0.2339 0.3721
vn 0.6875 0.2339 0.6875
vn 0.7048 0.0815 0.7048
vn 0.3721 0.2339 0.8983
vn 0.3814 0.0815 0.9208
vn -0.0000 0.2339 0.9723
vn -0.0000 0.0815 0.9967
vn -0.0000 0.0815 -0.9967
vn -0.0000 0.2339 -0.9723
vn 0.3721 0.2339 -0.8983
vn 0.3814 0.0815 -0.9208
vn 0.6875 0.2339 -0.6875
vn 0.7048 0.0815 -0.7048
vn 0.8983 0.2339 -0.3721
vn 0.9208 0.0815 -0.3814
vn 0.9723 0.2339 -0.0000
vn 0.9967 0.0815 -0.0000
vn -0.0000 0.0739 0.9973
vn -0.3816 0.0739 0.9214
vn -0.7052 0.0739 0.7052
vn -0.9214 0.0739 0.3816
vn -0.9973 0.0739 -0.0000
vn -0.9214 0.0739 -0.3816
vn -0.7052 0.0739 -0.7052
vn -0.3816 0.0739 -0.9214
vn -0.0000 0.0739 -0.9973
vn -0.0000 0.9009 0.4340
vn -0.1661 0.9009 0.4010
vn -0.3069 0.9009 0.3069
vn -0.4010 0.9009 0.1661
vn -0.4340 0.9009 -0.0000
vn -0.4010 0.9009 -0.1661
vn -0.3069 0.9009 -0.3069
vn -0.1661 0.9009 -0.4010
vn -0.0000 0.9009 -0.4340
vn 0.5546 0.6203 -0.5546
vn 0.6487 0.3979 -0.6487
vn 0.8476 0.3979 -0.3511
vn 0.7247 0.6203 -0.3002
vn -0.7247 0.6203 0.3002
vn -0.5547 0.6203 0.5546
vn -0.6487 0.3979 0.6487
vn -0.8476 0.3979 0.3511
vn -0.7844 0.6203 -0.0000
vn -0.9174 0.3979 -0.0000
vn 0.9973 0.0739 -0.0000
vn -0.7247 0.6203 -0.3002
vn -0.8476 0.3979 -0.3511
vn 0.9214 0.0739 -0.3816
vn -0.5546 0.6203 -0.5546
vn -0.6487 0.3979 -0.6487
vn 0.7052 0.0739 -0.7052
vn 0.3816 0.0739 -0.9214
vn -0.3002 0.6203 -0.7247
vn -0.3511 0.3979 -0.8476
vn -0.0000 0.6203 -0.7844
vn -0.0000 0.3979 -0.9174
vn -0.3002 0.6203 0.7247
vn -0.0000 0.6203 0.7844
vn -0.0000 0.3979 0.9174
vn -0.3511 0.3979 0.8476
vn -0.9217 0.0685 -0.3818
vn -0.9976 0.0685 -0.0000
vn -0.3798 0.1221 -0.9170
vn -0.0000 0.1221 -0.9925
vn -0.0000 0.1221 0.9925
vn -0.3798 0.1221 0.9170
vn 0.1661 0.9009 0.4010
vn 0.3069 0.9009 0.3069
vn -0.7018 0.1221 0.7018
vn 0.4010 0.9009 0.1661
vn 0.4340 0.9009 -0.0000
vn -0.9170 0.1221 0.3798
vn 0.4010 0.9009 -0.1661
vn 0.3069 0.9009 -0.3069
vn -0.9925 0.1221 -0.0000
vn 0.1661 0.9009 -0.4010
vn -0.9170 0.1221 -0.3798
vn 0.7844 0.6203 -0.0000
vn 0.9174 0.3979 -0.0000
vn 0.8476 0.3979 0.3511
vn 0.7247 0.6203 0.3002
vn -0.7018 0.1221 -0.7018
vn 0.3511 0.3979 -0.8476
vn 0.3002 0.6203 -0.7247
vn 0.6487 0.3979 0.6487
vn 0.5547 0.6203 0.5546
vn 0.3002 0.6203 0.7247
vn 0.3511 0.3979 0.8476
vn -0.8840 0.4676 -0.0000
vn -0.8167 0.4676 0.3383
vn -0.7708 0.5514 0.3193
vn -0.8343 0.5514 -0.0000
vn -0.7054 0.0685 -0.7054
vn -0.3818 0.0685 -0.9217
vn -0.0000 0.0685 -0.9976
vn -0.3818 0.0685 0.9217
vn -0.0000 0.0685 0.9976
vn 0.3798 0.1221 -0.9170
vn -0.7054 0.0685 0.7054
vn 0.7018 0.1221 0.7018
vn 0.3798 0.1221 0.9170
vn -0.9217 0.0685 0.3818
vn 0.9925 0.1221 -0.0000
vn 0.9170 0.1221 0.3798
vn 0.7018 0.1221 -0.7018
vn 0.9170 0.1221 -0.3798
vn 0.9217 0.0685 -0.3818
vn 0.9976 0.0685 -0.0000
vn 0.9217 0.0685 0.3818
vn -0.8167 0.4676 -0.3383
vn -0.7708 0.5514 -0.3193
vn -0.6251 0.4676 -0.6251
vn -0.5899 0.5514 -0.5899
vn -0.3383 0.4676 -0.8167
vn -0.3193 0.5514 -0.7708
vn -0.0000 0.4676 -0.8840
vn -0.0000 0.5514 -0.8343
vn -0.3383 0.4676 0.8167
vn -0.0000 0.4676 0.8840
vn -0.0000 0.5514 0.8343
vn -0.3193 0.5514 0.7708
vn -0.9239 -0.0000 -0.3827
vn -0.7071 -0.0000 -0.7071
vn -0.6251 0.4676 0.6251
vn -0.5899 0.5514 0.5899
vn -0.9239 -0.0000 0.3827
vn -1.0000 -0.0000 -0.0000
vn -0.7071 -0.0000 0.7071
vn 0.8840 0.4676 -0.0000
vn 0.8343 0.5514 -0.0000
vn 0.7708 0.5514 0.3193
vn 0.8167 0.4676 0.3383
vn 0.7054 0.0685 -0.7054
vn 0.3818 0.0685 -0.9217
vn 0.7054 0.0685 0.7054
vn 0.3818 0.0685 0.9217
vn 0.7071 -0.0000 -0.7071
vn 0.3827 -0.0000 -0.9239
vn 0.9239 -0.0000 -0.3827
vn 1.0000 -0.0000 -0.0000
vn 0.9239 -0.0000 0.3827
vn 0.7071 -0.0000 0.7071
vn 0.3827 -0.0000 0.9239
vn -0.0000 -0.0000 1.0000
vn 0.6251 0.4676 0.6251
vn 0.5899 0.5514 0.5899
vn 0.3193 0.5514 0.7708
vn 0.3383 0.4676 0.8167
vn -0.9208 0.0815 0.3814
vn -0.7048 0.0815 0.7048
vn -0.6875 0.2339 0.6875
vn -0.8983 0.2339 0.3721
vn -0.3814 0.0815 0.9208
vn -0.3721 0.2339 0.8983
vn -0.3814 0.0815 -0.9208
vn -0.3721 0.2339 -0.8983
vn 0.3193 0.5514 -0.7708
vn 0.3383 0.4676 -0.8167
vn 0.6251 0.4676 -0.6251
vn 0.5899 0.5514 -0.5899
vn 0.7708 0.5514 -0.3193
vn 0.8167 0.4676 -0.3383
vn -0.7048 0.0815 -0.7048
vn -0.6875 0.2339 -0.6875
vn -0.9208 0.0815 -0.3814
vn -0.8983 0.2339 -0.3721
vn -0.9967 0.0815 -0.0000
vn -0.9723 0.2339 -0.0000
vn -0.3827 -0.0000 0.9239
vn -0.0283 -0.9973 0.0682
vn -0.0522 -0.9973 0.0522
vn -0.0682 -0.9973 0.0283
vn -0.0738 -0.9973 -0.0000
vn -0.0682 -0.9973 -0.0283
vn -0.0522 -0.9973 -0.0522
vn -0.0283 -0.9973 -0.0682
vn 0.0522 -0.9973 -0.0522
vn 0.0682 -0.9973 0.0283
vn 0.0738 -0.9973 -0.0000
vn 0.0283 -0.9973 0.0682
vn 0.0522 -0.9973 0.0522
vn -0.0000 -0.9973 0.0738
vn 0.0682 -0.9973 -0.0283
vt 0.328822 0.881796
vt 0.331733 0.915687
vt 0.273545 0.911569
vt 0.290103 0.880461
vt 0.755194 0.536025
vt 0.723604 0.534415
vt 0.723694 0.426327
vt 0.753751 0.424870
vt 0.434382 0.928272
vt 0.435086 0.914795
vt 0.492976 0.909704
vt 0.491263 0.923056
vt 0.198015 0.800229
vt 0.241691 0.917634
vt 0.083168 0.962713
vt 0.063108 0.829884
vt 0.975657 0.027564
vt 0.983407 0.018303
vt 0.995017 0.043935
vt 0.983051 0.044876
vt 0.298586 0.424678
vt 0.300893 0.528825
vt 0.219996 0.529453
vt 0.215265 0.426550
vt 0.498526 0.103838
vt 0.532383 0.086910
vt 0.532613 0.151122
vt 0.498525 0.147368
vt 0.167906 0.666081
vt 0.045072 0.682642
vt 0.272898 0.049643
vt 0.410425 0.075867
vt 0.409869 0.137283
vt 0.272394 0.127861
vt 0.524746 0.915232
vt 0.519984 0.929435
vt 0.577944 0.122939
vt 0.602980 0.122702
vt 0.606412 0.198134
vt 0.581775 0.198134
vt 0.685978 0.348148
vt 0.695144 0.276851
vt 0.729344 0.278754
vt 0.713063 0.346438
vt 0.532955 0.196056
vt 0.498442 0.196033
vt 0.574477 0.046769
vt 0.550101 0.037952
vt 0.558861 0.014848
vt 0.577770 0.032793
vt 0.186988 0.529631
vt 0.181577 0.427479
vt 0.308021 0.661887
vt 0.236376 0.662469
vt 0.318956 0.794493
vt 0.264119 0.794471
vt 0.409773 0.195996
vt 0.272192 0.195968
vt 0.135533 0.122241
vt 0.135447 0.195957
vt 0.929385 0.017979
vt 0.929646 0.006827
vt 0.464109 0.424640
vt 0.546667 0.426380
vt 0.542319 0.528664
vt 0.461902 0.528447
vt 0.446066 0.793679
vt 0.500738 0.792962
vt 0.476013 0.879005
vt 0.437433 0.880940
vt 0.030071 0.122008
vt 0.029847 0.195956
vt 0.532945 0.793762
vt 0.566619 0.797854
vt 0.579921 0.427260
vt 0.575023 0.528661
vt 0.595048 0.664082
vt 0.717098 0.679189
vt 0.701047 0.825624
vt 0.004880 0.538516
vt 0.005172 0.425562
vt 0.035809 0.426870
vt 0.036855 0.536548
vt 0.231795 0.795686
vt 0.383166 0.882300
vt 0.383449 0.916523
vt 0.135660 0.034872
vt 0.381860 0.661571
vt 0.382548 0.794417
vt 0.381493 0.528780
vt 0.731927 0.834984
vt 0.748269 0.684695
vt 0.272861 0.342276
vt 0.272374 0.264071
vt 0.409832 0.254703
vt 0.410356 0.316098
vt 0.150585 0.530566
vt 0.455596 0.661224
vt 0.409970 0.346494
vt 0.272654 0.372187
vt 0.611067 0.529377
vt 0.995017 0.204250
vt 0.983051 0.203304
vt 0.753873 0.116221
vt 0.729346 0.117525
vt 0.713074 0.049847
vt 0.735210 0.039169
vt 0.030500 0.035036
vt 0.029611 0.005147
vt 0.135562 0.004884
vt 0.498427 0.288194
vt 0.498470 0.244688
vt 0.532545 0.240978
vt 0.532239 0.305137
vt 0.562112 0.661782
vt 0.148673 0.426376
vt 0.201038 0.663440
vt 0.135643 0.357028
vt 0.135525 0.269670
vt 0.272696 0.019724
vt 0.410051 0.045456
vt 0.032152 0.839717
vt 0.013707 0.688582
vt 0.685994 0.048131
vt 0.695148 0.119426
vt 0.598790 0.050913
vt 0.682896 0.957897
vt 0.030497 0.356859
vt 0.006488 0.356155
vt 0.006021 0.269942
vt 0.030072 0.269898
vt 0.005850 0.195958
vt 0.526968 0.661151
vt 0.835034 0.044852
vt 0.780773 0.044874
vt 0.788167 0.027562
vt 0.834439 0.017979
vt 0.135543 0.387011
vt 0.381553 0.424952
vt 0.699377 0.198137
vt 0.736370 0.198138
vt 0.557757 0.198134
vt 0.553884 0.123865
vt 0.052224 0.977431
vt 0.612380 0.426163
vt 0.686078 0.029058
vt 0.592125 0.028961
vt 0.580437 0.400881
vt 0.547558 0.400880
vt 0.838569 0.230177
vt 0.881910 0.231680
vt 0.881910 0.242022
vt 0.838795 0.240604
vt 0.544416 0.152500
vt 0.544625 0.196065
vt 0.881912 0.016192
vt 0.834179 0.006826
vt 0.881912 0.004890
vt 0.383569 0.930129
vt 0.332674 0.929184
vt 0.029607 0.386744
vt 0.768807 0.043933
vt 0.780418 0.018301
vt 0.275490 0.924955
vt 0.246695 0.931849
vt 0.780770 0.203303
vt 0.788164 0.220527
vt 0.780304 0.229423
vt 0.768804 0.204248
vt 0.087175 0.977427
vt 0.060156 0.989865
vt 0.690466 0.004882
vt 0.581160 0.004942
vt 0.925026 0.240605
vt 0.925251 0.230178
vt 0.975657 0.220529
vt 0.983516 0.229424
vt 0.544614 0.092807
vt 0.544343 0.239618
vt 0.544448 0.299257
vt 0.928789 0.044853
vt 0.881912 0.044824
vt 0.713843 0.972103
vt 0.702566 0.035194
vt 0.761057 0.198138
vt 0.753872 0.280058
vt 0.296810 0.400880
vt 0.381737 0.400881
vt 0.577945 0.273324
vt 0.553888 0.272397
vt 0.006017 0.121964
vt 0.574470 0.349477
vt 0.577758 0.363449
vt 0.558853 0.381382
vt 0.550101 0.358288
vt 0.006488 0.035739
vt 0.005063 0.010659
vt 0.592109 0.367284
vt 0.581138 0.391288
vt 0.011588 0.400880
vt 0.036757 0.400880
vt 0.679113 0.972572
vt 0.706130 0.984567
vt 0.612782 0.400880
vt 0.717906 0.015133
vt 0.702552 0.361093
vt 0.735203 0.357120
vt 0.717892 0.381163
vt 0.180994 0.400880
vt 0.214341 0.400880
vt 0.686058 0.367228
vt 0.690440 0.391414
vt 0.148132 0.400880
vt 0.465982 0.400881
vt 0.005063 0.381232
vt 0.598777 0.345341
vt 0.602978 0.273562
vt 0.747321 0.400881
vt 0.722522 0.400881
vt 0.881911 0.203358
vt 0.838119 0.203329
vt 0.925702 0.203329
vt 0.764603 0.497744
vt 0.764603 0.462477
vt 0.773995 0.462477
vt 0.773995 0.497744
vt 0.764603 0.427211
vt 0.773995 0.427211
vt 0.778488 0.286145
vt 0.773995 0.286145
vt 0.773995 0.250878
vt 0.778488 0.250878
vt 0.943274 0.615154
vt 0.943274 0.647945
vt 0.939444 0.647946
vt 0.939444 0.615154
vt 0.835963 0.824885
vt 0.835963 0.865514
vt 0.827355 0.865514
vt 0.827355 0.824885
vt 0.818747 0.865514
vt 0.818747 0.824885
vt 0.810140 0.865514
vt 0.810139 0.824885
vt 0.879003 0.824884
vt 0.879003 0.865514
vt 0.870395 0.865514
vt 0.870395 0.824884
vt 0.861787 0.865514
vt 0.861787 0.824884
vt 0.853179 0.865514
vt 0.853179 0.824884
vt 0.844571 0.865514
vt 0.844571 0.824885
vt 0.778488 0.533010
vt 0.884743 0.533010
vt 0.884743 0.568277
vt 0.778488 0.568277
vt 0.884743 0.603543
vt 0.778488 0.603543
vt 0.884743 0.638810
vt 0.778488 0.638810
vt 0.884743 0.674077
vt 0.778488 0.674077
vt 0.884743 0.709343
vt 0.778488 0.709343
vt 0.884743 0.744609
vt 0.778488 0.744609
vt 0.778488 0.497744
vt 0.778488 0.462477
vt 0.884743 0.462477
vt 0.884743 0.497744
vt 0.884743 0.779876
vt 0.778488 0.779876
vt 0.884743 0.815142
vt 0.778488 0.815142
vt 0.937217 0.426174
vt 0.937217 0.404262
vt 0.968230 0.404262
vt 0.968230 0.426174
vt 0.937217 0.382351
vt 0.968230 0.382351
vt 0.937217 0.360440
vt 0.968230 0.360440
vt 0.937217 0.338528
vt 0.968230 0.338528
vt 0.937217 0.316617
vt 0.968230 0.316617
vt 0.937217 0.294706
vt 0.968230 0.294706
vt 0.937217 0.272795
vt 0.968230 0.272795
vt 0.937217 0.250884
vt 0.968230 0.250884
vt 0.937217 0.557640
vt 0.913628 0.557640
vt 0.913628 0.535729
vt 0.937217 0.535729
vt 0.913628 0.382351
vt 0.913628 0.360440
vt 0.778488 0.427211
vt 0.884743 0.427211
vt 0.913628 0.338528
vt 0.778488 0.391944
vt 0.884743 0.391944
vt 0.913628 0.316617
vt 0.778488 0.356677
vt 0.884743 0.356677
vt 0.913628 0.294706
vt 0.778488 0.321411
vt 0.884743 0.286145
vt 0.884743 0.321411
vt 0.913628 0.272795
vt 0.913628 0.250884
vt 0.913628 0.426174
vt 0.913628 0.404262
vt 0.777004 0.886887
vt 0.791527 0.886887
vt 0.791527 0.954022
vt 0.777004 0.954022
vt 0.884743 0.250878
vt 0.896114 0.272795
vt 0.896114 0.250884
vt 0.896114 0.426174
vt 0.896114 0.404262
vt 0.937217 0.448085
vt 0.968230 0.448085
vt 0.968230 0.469996
vt 0.937217 0.469996
vt 0.896114 0.382351
vt 0.937217 0.491907
vt 0.968230 0.491907
vt 0.968230 0.513818
vt 0.937217 0.513818
vt 0.896114 0.360440
vt 0.968230 0.535729
vt 0.968230 0.557640
vt 0.896114 0.338528
vt 0.937217 0.579552
vt 0.968230 0.579552
vt 0.968230 0.601463
vt 0.937217 0.601463
vt 0.896114 0.316617
vt 0.913628 0.513818
vt 0.913628 0.491907
vt 0.896114 0.294706
vt 0.913628 0.601463
vt 0.913628 0.579552
vt 0.913628 0.469996
vt 0.913628 0.448085
vt 0.892553 0.426174
vt 0.892553 0.404262
vt 0.892553 0.382351
vt 0.892553 0.360440
vt 0.892553 0.338528
vt 0.892553 0.316617
vt 0.892553 0.294706
vt 0.892553 0.272795
vt 0.892553 0.250884
vt 0.775708 0.872572
vt 0.784315 0.872572
vt 0.784315 0.878116
vt 0.775708 0.878116
vt 0.896114 0.448085
vt 0.892553 0.448085
vt 0.762482 0.886887
vt 0.762482 0.954022
vt 0.892553 0.513818
vt 0.896114 0.513818
vt 0.896114 0.535729
vt 0.892553 0.535729
vt 0.747960 0.886887
vt 0.747960 0.954022
vt 0.892553 0.469996
vt 0.896114 0.469996
vt 0.896114 0.491907
vt 0.892553 0.491907
vt 0.733437 0.886887
vt 0.733437 0.954022
vt 0.835094 0.886887
vt 0.849617 0.886887
vt 0.849617 0.954022
vt 0.835094 0.954022
vt 0.896114 0.601463
vt 0.896114 0.579552
vt 0.820572 0.886887
vt 0.820572 0.954022
vt 0.806049 0.886887
vt 0.806049 0.954022
vt 0.896114 0.557640
vt 0.922229 0.886887
vt 0.922229 0.954022
vt 0.907706 0.954022
vt 0.907706 0.886887
vt 0.892553 0.557640
vt 0.901402 0.706175
vt 0.901402 0.717868
vt 0.892159 0.717868
vt 0.892159 0.706175
vt 0.901402 0.729560
vt 0.892159 0.729560
vt 0.901402 0.741253
vt 0.892159 0.741253
vt 0.901402 0.752946
vt 0.892159 0.752946
vt 0.901402 0.764638
vt 0.892159 0.764638
vt 0.901402 0.776331
vt 0.892159 0.776331
vt 0.901402 0.788023
vt 0.892159 0.788023
vt 0.901402 0.799716
vt 0.892159 0.799716
vt 0.893184 0.954022
vt 0.893184 0.886887
vt 0.945658 0.687685
vt 0.951507 0.691593
vt 0.946858 0.696242
vt 0.942950 0.690393
vt 0.767100 0.872572
vt 0.767100 0.878116
vt 0.939412 0.691859
vt 0.940784 0.698758
vt 0.934209 0.698758
vt 0.935581 0.691859
vt 0.758492 0.872572
vt 0.758492 0.878116
vt 0.932043 0.690393
vt 0.928135 0.696242
vt 0.923486 0.691593
vt 0.929335 0.687685
vt 0.749884 0.872572
vt 0.749884 0.878116
vt 0.920970 0.685519
vt 0.927869 0.684146
vt 0.939226 0.727396
vt 0.948854 0.729311
vt 0.947388 0.732850
vt 0.944680 0.735558
vt 0.741276 0.872572
vt 0.741276 0.878116
vt 0.801531 0.872572
vt 0.810140 0.872572
vt 0.810140 0.878116
vt 0.801531 0.878116
vt 0.950934 0.615154
vt 0.950934 0.647945
vt 0.947104 0.647945
vt 0.947104 0.615154
vt 0.792924 0.872572
vt 0.792924 0.878116
vt 0.958594 0.615154
vt 0.958594 0.647945
vt 0.954764 0.647945
vt 0.954764 0.615154
vt 0.962424 0.615154
vt 0.962424 0.647945
vt 0.892553 0.579552
vt 0.892553 0.601463
vt 0.844571 0.872572
vt 0.844571 0.878116
vt 0.835963 0.878116
vt 0.835963 0.872572
vt 0.936751 0.886887
vt 0.936751 0.954022
vt 0.951274 0.886887
vt 0.951274 0.954022
vt 0.965796 0.886887
vt 0.965796 0.954022
vt 0.878661 0.886887
vt 0.878661 0.954022
vt 0.864139 0.954022
vt 0.864139 0.886887
vt 0.947124 0.684146
vt 0.954023 0.685519
vt 0.947124 0.680316
vt 0.954023 0.678944
vt 0.945658 0.676778
vt 0.951507 0.672870
vt 0.942950 0.674069
vt 0.946858 0.668221
vt 0.939412 0.672604
vt 0.940784 0.665704
vt 0.935581 0.672604
vt 0.934209 0.665704
vt 0.932043 0.674069
vt 0.928135 0.668221
vt 0.929335 0.676778
vt 0.923486 0.672870
vt 0.941141 0.717768
vt 0.944680 0.719234
vt 0.947388 0.721943
vt 0.931783 0.615154
vt 0.935613 0.615154
vt 0.935613 0.647945
vt 0.931783 0.647946
vt 0.892159 0.694483
vt 0.901402 0.694483
vt 0.927953 0.615154
vt 0.927953 0.647946
vt 0.892159 0.682790
vt 0.901402 0.682790
vt 0.924123 0.615154
vt 0.924123 0.647946
vt 0.892159 0.671098
vt 0.901402 0.671098
vt 0.920293 0.615154
vt 0.920293 0.647946
vt 0.892159 0.659405
vt 0.901402 0.659405
vt 0.916463 0.615154
vt 0.916463 0.647946
vt 0.901402 0.636020
vt 0.892159 0.636020
vt 0.892159 0.624327
vt 0.901402 0.624327
vt 0.912633 0.615154
vt 0.912633 0.647946
vt 0.892159 0.647712
vt 0.901402 0.647713
vt 0.908803 0.615154
vt 0.908803 0.647946
vt 0.827355 0.872572
vt 0.827355 0.878116
vt 0.818747 0.878116
vt 0.818747 0.872572
vt 0.784315 0.824884
vt 0.792924 0.824885
vt 0.792924 0.865514
vt 0.784315 0.865514
vt 0.801531 0.824885
vt 0.801531 0.865514
vt 0.741276 0.824884
vt 0.749884 0.824884
vt 0.749884 0.865514
vt 0.741276 0.865514
vt 0.879003 0.872572
vt 0.879003 0.878116
vt 0.870395 0.878116
vt 0.870395 0.872572
vt 0.861787 0.872572
vt 0.861787 0.878116
vt 0.853179 0.878116
vt 0.853179 0.872572
vt 0.758492 0.824884
vt 0.758492 0.865514
vt 0.767100 0.824884
vt 0.767100 0.865514
vt 0.775708 0.824884
vt 0.775708 0.865514
vt 0.892159 0.612635
vt 0.901402 0.612635
vt 0.966254 0.615154
vt 0.966254 0.647945
vt 0.970085 0.615154
vt 0.970085 0.647945
vt 0.920970 0.678944
vt 0.927869 0.680316
vt 0.773995 0.603543
vt 0.773995 0.568277
vt 0.773995 0.638810
vt 0.773995 0.674077
vt 0.773994 0.709343
vt 0.773994 0.744609
vt 0.773994 0.779876
vt 0.764603 0.779876
vt 0.773994 0.815142
vt 0.764603 0.815142
vt 0.764603 0.744609
vt 0.764603 0.709343
vt 0.764603 0.674077
vt 0.764603 0.638810
vt 0.764603 0.603543
vt 0.764603 0.568277
vt 0.764603 0.533010
vt 0.773995 0.533010
vt 0.773995 0.321411
vt 0.764603 0.286145
vt 0.764603 0.250878
vt 0.773995 0.391944
vt 0.773995 0.356677
vt 0.764603 0.391944
vt 0.764603 0.356677
vt 0.764603 0.321411
vt 0.937311 0.737023
vt 0.933772 0.735558
vt 0.931065 0.732849
vt 0.933773 0.719234
vt 0.937311 0.717769
vt 0.948854 0.725481
vt 0.941141 0.737023
vt 0.929599 0.725481
vt 0.929599 0.729311
vt 0.931065 0.721942
s 1
f 47/1/1 68/2/2 76/3/3 50/4/4
f 93/5/5 91/6/6 167/7/7 173/8/8
f 131/9/9 100/10/10 138/11/11 140/12/12
f 23/13/13 74/14/14 79/15/15 27/16/16
f 139/17/17 140/18/12 137/19/18 135/20/19
f 110/21/20 7/22/21 17/23/22 114/24/23
f 51/25/24 83/26/25 70/27/26 46/28/27
f 21/29/28 23/13/13 27/16/16 30/30/29
f 29/31/30 26/32/31 12/33/32 11/34/33
f 140/12/12 138/11/11 136/35/34 137/36/18
f 147/37/35 49/38/36 16/39/36 102/40/37
f 13/41/36 35/42/36 111/43/38 113/44/39
f 46/28/27 70/27/26 62/45/40 45/46/41
f 169/47/42 171/48/43 174/49/44 172/50/45
f 114/24/23 17/23/22 19/51/46 120/52/47
f 7/22/21 8/53/48 20/54/49 17/23/22
f 8/53/48 9/55/50 24/56/51 20/54/49
f 11/34/33 12/33/32 6/57/52 5/58/53
f 10/59/54 11/34/33 5/58/53 4/60/55
f 99/61/56 131/62/9 140/18/12 139/17/17
f 152/63/57 158/64/58 52/65/59 37/66/60
f 39/67/61 59/68/62 97/69/63 96/70/64
f 108/71/65 10/59/54 4/60/55 101/72/66
f 60/73/67 58/74/68 136/35/34 138/11/11
f 158/64/58 164/75/69 54/76/70 52/65/59
f 56/77/71 89/78/72 86/79/73 58/74/68
f 34/80/74 129/81/75 123/82/76 32/83/77
f 25/84/78 76/3/3 74/14/14 23/13/13
f 44/85/79 64/86/80 68/2/2 47/1/1
f 33/87/81 29/31/30 11/34/33 10/59/54
f 2/88/82 3/89/83 9/55/50 8/53/48
f 1/90/84 2/88/82 8/53/48 7/22/21
f 87/91/85 86/79/73 89/78/72 90/92/86
f 88/93/87 41/94/88 42/95/89 85/96/90
f 18/97/91 21/29/28 30/30/29 32/83/77
f 2/88/82 38/98/92 39/67/61 3/89/83
f 85/96/90 87/99/85 90/100/86 88/93/87
f 41/94/88 5/58/53 6/57/52 42/95/89
f 44/85/79 96/70/64 100/10/10 64/86/80
f 59/68/62 60/73/67 138/11/11 97/69/63
f 53/101/93 91/6/6 89/78/72 56/77/71
f 135/20/19 137/19/18 143/102/94 142/103/95
f 156/104/96 155/105/97 157/106/98 159/107/99
f 33/87/81 126/108/100 129/109/75 34/110/74
f 98/111/101 95/112/102 132/113/103 145/114/104
f 57/115/105 56/77/71 58/74/68 60/73/67
f 120/52/47 19/51/46 18/97/91 117/116/106
f 117/116/106 18/97/91 32/83/77 123/82/76
f 17/23/22 20/54/49 22/117/107 19/51/46
f 19/51/46 22/117/107 21/29/28 18/97/91
f 20/54/49 24/56/51 25/84/78 22/117/107
f 22/117/107 25/84/78 23/13/13 21/29/28
f 92/118/108 40/119/109 41/94/88 88/93/87
f 24/56/51 50/4/4 76/3/3 25/84/78
f 26/32/31 29/31/30 31/120/110 28/121/111
f 28/122/111 31/123/110 30/30/29 27/16/16
f 29/31/30 33/87/81 34/110/74 31/120/110
f 31/123/110 34/80/74 32/83/77 30/30/29
f 42/95/89 6/57/52 45/46/41 95/112/102
f 43/124/36 94/125/36 49/38/36 48/126/36
f 58/74/68 86/79/73 141/127/112 136/35/34
f 170/128/113 171/129/43 149/130/114 148/131/115
f 95/112/102 45/46/41 62/45/40 132/113/103
f 103/132/116 101/72/66 148/131/115 149/130/114
f 52/65/59 54/76/70 57/115/105 55/133/117
f 151/134/118 73/135/119 77/136/120 67/137/121
f 88/93/87 90/100/86 93/138/5 92/118/108
f 98/111/101 145/114/104 87/99/85 85/96/90
f 105/139/122 1/90/84 7/22/21 110/21/20
f 35/42/36 36/140/36 104/141/123 111/43/38
f 102/40/37 103/142/116 149/143/114 147/37/35
f 126/108/100 33/87/81 10/59/54 108/71/65
f 48/126/36 49/38/36 147/37/35 169/47/42
f 96/70/64 97/69/63 138/11/11 100/10/10
f 51/25/24 26/32/31 28/121/111 83/26/25
f 79/15/15 83/144/25 28/122/111 27/16/16
f 90/92/86 89/78/72 91/6/6 93/5/5
f 164/75/69 161/145/124 53/101/93 54/76/70
f 3/89/83 44/85/79 47/1/1 9/55/50
f 26/32/31 51/25/24 46/28/27 12/33/32
f 12/33/32 46/28/27 45/46/41 6/57/52
f 160/146/125 43/124/36 48/126/36 166/147/126
f 9/55/50 47/1/1 50/4/4 24/56/51
f 165/148/127 164/75/69 158/64/58 159/149/99
f 71/150/128 61/151/129 63/152/130 72/153/131
f 72/154/131 63/155/130 62/45/40 70/27/26
f 65/156/132 67/137/121 69/157/133 66/158/134
f 66/159/134 69/160/133 68/2/2 64/86/80
f 161/145/124 167/7/7 91/6/6 53/101/93
f 92/118/108 93/138/5 173/161/8 170/128/113
f 77/136/120 73/135/119 75/162/135 78/163/136
f 78/164/136 75/165/135 74/14/14 76/3/3
f 80/166/137 82/167/138 84/168/139 81/169/140
f 81/170/140 84/171/139 83/144/25 79/15/15
f 94/125/36 155/105/97 104/141/123 36/140/36
f 55/133/117 57/115/105 60/73/67 59/68/62
f 162/172/141 160/146/125 166/147/126 168/173/142
f 134/174/143 133/175/144 144/176/145 146/177/146
f 70/27/26 83/26/25 84/178/139 72/154/131
f 72/153/131 84/168/139 82/167/138 71/150/128
f 73/135/119 80/166/137 81/169/140 75/162/135
f 75/165/135 81/170/140 79/15/15 74/14/14
f 85/96/90 42/95/89 95/112/102 98/111/101
f 132/113/103 134/179/143 146/180/146 145/114/104
f 67/137/121 77/136/120 78/163/136 69/157/133
f 69/160/133 78/164/136 76/3/3 68/2/2
f 54/76/70 53/101/93 56/77/71 57/115/105
f 175/181/118 99/61/56 139/17/17 135/20/19
f 37/66/60 52/65/59 55/133/117 38/98/92
f 43/124/36 157/106/98 155/105/97 94/125/36
f 40/119/109 4/60/55 5/58/53 41/94/88
f 148/131/115 101/72/66 4/60/55 40/119/109
f 150/182/118 151/134/118 67/137/121 65/156/132
f 65/156/132 66/158/134 131/62/9 99/61/56
f 66/159/134 64/86/80 100/10/10 131/9/9
f 134/179/143 132/113/103 62/45/40 63/155/130
f 133/175/144 134/174/143 63/152/130 61/151/129
f 141/127/112 86/79/73 87/91/85 145/183/104
f 3/89/83 39/67/61 96/70/64 44/85/79
f 105/139/122 152/63/57 37/66/60 1/90/84
f 170/128/113 148/131/115 40/119/109 92/118/108
f 160/146/125 163/184/147 157/106/98 43/124/36
f 111/43/38 104/141/123 106/185/148 112/186/149
f 112/187/149 106/188/148 105/139/122 110/21/20
f 102/40/37 107/189/150 109/190/151 103/142/116
f 103/132/116 109/191/151 108/71/65 101/72/66
f 125/192/152 128/193/153 130/194/154 127/195/155
f 127/196/155 130/197/154 129/109/75 126/108/100
f 128/193/153 122/198/156 124/199/157 130/194/154
f 130/200/154 124/201/157 123/82/76 129/81/75
f 143/202/94 141/127/112 145/183/104 146/203/146
f 137/36/18 136/35/34 141/127/112 143/202/94
f 155/105/97 156/104/96 106/185/148 104/141/123
f 150/182/118 65/156/132 99/61/56 175/181/118
f 162/204/141 161/145/124 164/75/69 165/148/127
f 160/146/125 162/172/141 165/205/127 163/184/147
f 119/206/158 113/44/39 115/207/159 121/208/160
f 121/209/160 115/210/159 114/24/23 120/52/47
f 116/211/161 119/206/158 121/208/160 118/212/162
f 118/213/162 121/209/160 120/52/47 117/116/106
f 163/184/147 165/205/127 159/107/99 157/106/98
f 152/63/57 156/214/96 159/149/99 158/64/58
f 172/50/45 174/49/44 168/173/142 166/147/126
f 49/38/36 94/125/36 36/140/36 16/39/36
f 117/116/106 123/82/76 124/201/157 118/213/162
f 118/212/162 124/199/157 122/198/156 116/211/161
f 126/108/100 108/71/65 109/191/151 127/196/155
f 127/195/155 109/190/151 107/189/150 125/192/152
f 110/21/20 114/24/23 115/210/159 112/187/149
f 112/186/149 115/207/159 113/44/39 111/43/38
f 171/129/43 170/128/113 173/161/8 174/215/44
f 166/147/126 48/126/36 169/47/42 172/50/45
f 156/214/96 152/63/57 105/139/122 106/188/148
f 1/90/84 37/66/60 38/98/92 2/88/82
f 38/98/92 55/133/117 59/68/62 39/67/61
f 14/216/36 125/192/152 107/189/150 15/217/36
f 15/217/36 16/39/36 36/140/36 35/42/36
f 174/218/44 173/8/8 167/7/7 168/219/142
f 142/103/95 143/102/94 146/177/146 144/176/145
f 161/145/124 162/204/141 168/219/142 167/7/7
f 171/48/43 169/47/42 147/37/35 149/143/114
f 107/189/150 102/40/37 16/39/36 15/217/36
f 13/41/36 14/216/36 15/217/36 35/42/36
f 122/198/156 128/193/153 125/192/152 14/216/36
f 116/211/161 122/198/156 14/216/36 13/41/36
f 116/211/161 13/41/36 113/44/39 119/206/158
f 153/220/118 154/221/118 151/134/118 150/182/118
f 61/151/129 153/220/118 176/222/118 133/175/144
f 133/175/144 176/222/118 142/103/95 144/176/145
f 154/221/118 80/166/137 73/135/119 151/134/118
f 61/151/129 71/150/128 154/221/118 153/220/118
f 153/220/118 150/182/118 175/181/118 176/222/118
f 176/222/118 175/181/118 135/20/19 142/103/95
f 71/150/128 82/167/138 80/166/137 154/221/118
f 403/223/163 405/224/164 406/225/164 404/226/163
f 405/224/164 407/227/165 408/228/165 406/225/164
f 402/229/166 416/230/166 380/231/167 337/232/167
f 332/233/168 358/234/168 301/235/169 271/236/169
f 296/237/170 382/238/171 388/239/172 295/240/173
f 295/240/173 388/239/172 387/241/174 293/242/175
f 293/242/175 387/241/174 316/243/176 243/244/177
f 236/245/178 317/246/179 386/247/180 300/248/181
f 300/248/181 386/247/180 385/249/182 299/250/183
f 299/250/183 385/249/182 384/251/184 298/252/185
f 298/252/185 384/251/184 383/253/186 297/254/187
f 343/255/188 187/256/188 188/257/189 344/258/189
f 344/258/189 188/257/189 189/259/190 345/260/190
f 345/260/190 189/259/190 190/261/191 346/262/191
f 346/262/191 190/261/191 191/263/192 347/264/192
f 347/264/192 191/263/192 192/265/193 348/266/193
f 348/266/193 192/265/193 193/267/194 349/268/194
f 396/269/163 397/270/164 221/271/164 212/272/163
f 349/268/194 193/267/194 194/273/195 350/274/195
f 350/274/195 194/273/195 186/275/196 337/276/196
f 178/277/197 179/278/198 188/279/198 187/280/197
f 179/278/198 180/281/199 189/282/199 188/279/198
f 180/281/199 181/283/200 190/284/200 189/282/199
f 181/283/200 182/285/201 191/286/201 190/284/200
f 182/285/201 183/287/202 192/288/202 191/286/201
f 183/287/202 184/289/203 193/290/203 192/288/202
f 184/289/203 185/291/204 194/292/204 193/290/203
f 185/291/204 177/293/205 186/294/205 194/292/204
f 210/295/206 242/296/207 241/297/208 209/298/209
f 181/283/210 180/281/211 201/299/212 202/300/213
f 397/270/164 398/301/165 223/302/165 221/271/164
f 182/285/214 181/283/210 202/300/213 203/303/215
f 398/301/165 399/304/216 224/305/216 223/302/165
f 183/287/217 182/285/214 203/303/215 204/306/218
f 399/304/216 400/307/219 225/308/219 224/305/216
f 184/289/220 183/287/217 204/306/218 205/309/221
f 401/310/222 402/229/223 227/311/223 226/312/222
f 185/291/224 184/289/220 205/309/221 206/313/225
f 400/307/219 401/310/222 226/312/222 225/308/219
f 177/293/226 185/291/224 206/313/225 195/314/227
f 179/278/228 178/277/229 199/315/230 200/316/231
f 343/255/188 396/269/163 212/272/163 187/256/188
f 180/281/211 179/278/228 200/316/231 201/299/212
f 218/317/232 217/318/233 261/319/233 262/320/232
f 402/229/223 337/232/196 186/321/196 227/311/223
f 195/314/227 206/313/225 235/322/234 222/323/235
f 200/316/231 199/315/230 228/324/236 229/325/237
f 196/326/238 212/327/238 221/328/239 197/329/239
f 201/299/212 200/316/231 229/325/237 230/330/240
f 198/331/241 223/332/241 224/333/242 207/334/242
f 202/300/213 201/299/212 230/330/240 231/335/243
f 209/298/244 225/336/244 226/337/245 210/295/245
f 203/303/215 202/300/213 231/335/243 232/338/246
f 211/339/247 227/340/247 186/341/205 177/342/205
f 204/306/218 203/303/215 232/338/246 233/343/248
f 207/334/249 240/344/250 239/345/251 198/331/252
f 205/309/221 204/306/218 233/343/248 234/346/253
f 177/342/226 195/347/227 251/348/254 211/339/255
f 206/313/225 205/309/221 234/346/253 235/322/234
f 178/277/197 187/280/197 212/327/238 196/326/238
f 197/329/239 221/328/239 223/332/241 198/331/241
f 207/334/242 224/333/242 225/336/244 209/298/244
f 210/295/245 226/337/245 227/340/247 211/339/247
f 198/331/252 239/345/251 238/349/256 197/329/257
f 209/298/209 241/297/208 240/344/250 207/334/249
f 196/326/258 237/350/259 199/315/230 178/277/229
f 211/339/255 251/348/254 242/296/207 210/295/206
f 213/351/118 214/352/118 229/325/118 228/324/118
f 214/352/118 215/353/118 230/330/118 229/325/118
f 215/353/118 216/354/118 231/335/118 230/330/118
f 216/354/118 217/355/118 232/338/118 231/335/118
f 217/355/118 218/356/118 233/343/118 232/338/118
f 218/356/118 219/357/118 234/346/118 233/343/118
f 219/357/118 220/358/118 235/322/118 234/346/118
f 220/358/118 208/359/118 222/323/118 235/322/118
f 326/360/260 323/361/261 288/362/262 289/363/263
f 213/351/118 228/324/118 269/364/118 253/365/118
f 219/366/264 218/317/232 262/320/232 263/367/264
f 256/368/118 281/369/118 282/370/118 265/371/118
f 220/372/265 219/366/264 263/367/264 264/373/265
f 254/374/118 270/375/118 279/376/118 255/377/118
f 197/329/257 238/349/256 237/350/259 196/326/258
f 208/378/266 220/372/265 264/373/265 252/379/266
f 214/380/267 213/381/268 257/382/268 258/383/267
f 195/347/227 222/384/235 284/385/269 251/348/254
f 215/386/270 214/380/267 258/383/267 259/387/270
f 238/349/256 270/375/271 269/364/272 237/350/259
f 216/388/273 215/386/270 259/387/270 260/389/273
f 240/344/250 281/369/274 279/376/275 239/345/251
f 217/318/233 216/388/273 260/389/273 261/319/233
f 242/296/207 283/390/276 282/370/277 241/297/208
f 265/391/278 322/392/278 320/393/279 256/394/279
f 237/350/259 269/364/272 228/324/236 199/315/230
f 239/345/251 279/376/275 270/375/271 238/349/256
f 241/297/208 282/370/277 281/369/274 240/344/250
f 251/348/254 284/385/269 283/390/276 242/296/207
f 253/365/118 269/364/118 270/375/118 254/374/118
f 265/371/118 282/370/118 283/390/118 267/395/118
f 255/377/118 279/376/118 281/369/118 256/368/118
f 243/396/118 244/397/118 258/398/118 257/399/118
f 244/397/118 245/400/118 259/401/118 258/398/118
f 245/400/118 246/402/118 260/403/118 259/401/118
f 246/402/118 247/404/118 261/405/118 260/403/118
f 247/404/118 248/406/118 262/407/118 261/405/118
f 248/406/118 249/408/118 263/409/118 262/407/118
f 249/408/118 250/410/118 264/411/118 263/409/118
f 250/410/118 236/412/118 252/413/118 264/411/118
f 256/394/279 320/393/279 318/414/280 255/415/280
f 271/416/118 285/417/118 342/418/118 332/419/118
f 328/420/281 326/360/260 289/363/263 290/421/282
f 334/422/118 352/423/118 353/424/118 336/425/118
f 329/426/283 328/420/281 290/421/282 291/427/284
f 338/428/118 354/429/118 355/430/118 339/431/118
f 330/432/285 329/426/283 291/427/284 292/433/286
f 339/431/118 355/430/118 356/434/118 340/435/118
f 417/436/118 301/437/118 358/438/118 359/439/118
f 325/440/287 330/432/285 292/433/286 280/441/288
f 333/442/289 331/443/290 285/444/291 286/445/292
f 336/446/293 360/447/293 359/448/294 334/449/294
f 335/450/295 333/442/289 286/445/292 287/451/296
f 339/452/297 362/453/297 361/454/298 338/455/298
f 323/361/261 335/450/295 287/451/296 288/362/262
f 340/456/299 363/457/299 362/453/297 339/452/297
f 267/395/118 283/390/118 284/385/118 268/458/118
f 268/458/118 284/385/118 222/384/118 208/459/118
f 390/460/300 354/461/301 353/462/302 389/463/303
f 267/464/304 324/465/304 322/392/278 265/391/278
f 268/466/305 327/467/305 324/465/304 267/464/304
f 208/468/266 252/469/266 327/467/305 268/466/305
f 254/470/306 314/471/306 312/472/307 253/473/307
f 253/473/307 312/472/307 257/382/268 213/381/268
f 271/416/118 272/474/118 286/475/118 285/417/118
f 272/474/118 273/476/118 287/477/118 286/475/118
f 273/476/118 274/478/118 288/479/118 287/477/118
f 274/478/118 275/480/118 289/481/118 288/479/118
f 275/480/118 276/482/118 290/483/118 289/481/118
f 276/482/118 277/484/118 291/485/118 290/483/118
f 277/484/118 278/486/118 292/487/118 291/485/118
f 278/486/118 266/488/118 280/489/118 292/487/118
f 417/436/118 305/490/118 304/491/118 303/492/118
f 273/493/308 272/494/309 302/495/309 303/496/308
f 243/396/118 257/399/118 312/497/118 293/498/118
f 274/499/310 273/493/308 303/496/308 304/500/310
f 293/498/118 312/497/118 314/501/118 295/502/118
f 275/503/311 274/499/310 304/500/310 305/504/311
f 295/502/118 314/501/118 318/505/118 296/506/118
f 276/507/312 275/503/311 305/504/311 306/508/312
f 296/506/118 318/505/118 320/509/118 297/510/118
f 277/511/313 276/507/312 306/508/312 307/512/313
f 299/513/118 324/514/118 327/515/118 300/516/118
f 278/517/314 277/511/313 307/512/313 308/518/314
f 297/510/118 320/509/118 322/519/118 298/520/118
f 255/415/280 318/414/280 314/471/306 254/470/306
f 266/521/315 278/517/314 308/518/314 294/522/315
f 272/494/309 271/236/169 301/235/169 302/495/309
f 395/523/316 352/524/317 342/525/318 394/526/319
f 246/527/320 245/528/321 321/529/322 309/530/323
f 389/463/303 353/462/302 352/524/317 395/523/316
f 245/528/321 244/531/324 319/532/325 321/529/322
f 394/526/319 342/525/318 285/444/291 331/443/290
f 244/531/324 243/244/177 316/243/176 319/532/325
f 236/533/178 250/534/326 315/535/327 317/536/179
f 325/537/287 280/538/288 357/539/328 393/540/329
f 392/541/330 356/542/331 355/543/332 391/544/333
f 250/534/326 249/545/334 313/546/335 315/535/327
f 393/540/329 357/539/328 356/542/331 392/541/330
f 249/545/334 248/547/336 311/548/337 313/546/335
f 391/544/333 355/543/332 354/461/301 390/460/300
f 248/547/336 247/549/338 310/550/339 311/548/337
f 300/516/118 327/515/118 252/551/118 236/552/118
f 247/549/338 246/527/320 309/530/323 310/550/339
f 341/553/340 381/554/340 363/457/299 340/456/299
f 309/530/323 321/529/322 335/450/295 323/361/261
f 266/555/315 294/556/315 381/554/340 341/553/340
f 321/529/322 319/532/325 333/442/289 335/450/295
f 338/455/298 361/454/298 360/447/293 336/446/293
f 319/532/325 316/243/176 331/443/290 333/442/289
f 317/536/179 315/535/327 330/432/285 325/440/287
f 334/449/294 359/448/294 358/234/168 332/233/168
f 340/435/118 356/434/118 357/557/118 341/558/118
f 315/535/327 313/546/335 329/426/283 330/432/285
f 341/558/118 357/557/118 280/489/118 266/488/118
f 313/546/335 311/548/337 328/420/281 329/426/283
f 336/425/118 353/424/118 354/429/118 338/428/118
f 311/548/337 310/550/339 326/360/260 328/420/281
f 332/419/118 342/418/118 352/423/118 334/422/118
f 310/550/339 309/530/323 323/361/261 326/360/260
f 344/258/341 345/260/342 369/559/342 367/560/341
f 345/260/342 346/262/343 371/561/343 369/559/342
f 346/262/343 347/264/344 373/562/344 371/561/343
f 347/264/344 348/266/345 375/563/345 373/562/344
f 348/266/345 349/268/346 377/564/346 375/563/345
f 382/238/171 389/463/303 395/523/316 388/239/172
f 349/268/346 350/274/347 379/565/347 377/564/346
f 387/241/174 394/526/319 331/443/290 316/243/176
f 378/566/195 379/565/195 380/567/196 351/568/196
f 376/569/194 377/564/194 379/565/195 378/566/195
f 374/570/193 375/563/193 377/564/194 376/569/194
f 372/571/192 373/562/192 375/563/193 374/570/193
f 370/572/191 371/561/191 373/562/192 372/571/192
f 368/573/190 369/559/190 371/561/191 370/572/191
f 366/574/189 367/560/189 369/559/190 368/573/190
f 364/575/188 365/576/188 367/560/189 366/574/189
f 401/310/348 414/577/348 416/230/166 402/229/166
f 415/578/223 351/579/196 380/231/196 416/230/223
f 398/301/349 408/228/349 410/580/350 399/304/350
f 396/269/351 404/226/351 406/225/352 397/270/352
f 384/251/184 391/544/333 390/460/300 383/253/186
f 386/247/180 393/540/329 392/541/330 385/249/182
f 388/239/172 395/523/316 394/526/319 387/241/174
f 297/254/187 383/253/186 382/238/171 296/237/170
f 343/255/353 344/258/341 367/560/341 365/576/353
f 400/307/354 412/581/354 414/577/348 401/310/348
f 399/304/350 410/580/350 412/581/354 400/307/354
f 397/270/352 406/225/352 408/228/349 398/301/349
f 383/253/186 390/460/300 389/463/303 382/238/171
f 385/249/182 392/541/330 391/544/333 384/251/184
f 317/246/179 325/537/287 393/540/329 386/247/180
f 350/274/347 337/276/167 380/567/167 379/565/347
f 409/582/216 411/583/219 412/581/219 410/580/216
f 407/227/165 409/582/216 410/580/216 408/228/165
f 364/575/188 403/223/163 404/226/163 365/576/188
f 343/255/353 365/576/353 404/226/351 396/269/351
f 411/583/219 413/584/222 414/577/222 412/581/219
f 413/584/222 415/578/223 416/230/223 414/577/222
f 298/520/118 322/519/118 324/514/118 299/513/118
f 417/436/118 361/585/118 362/586/118 363/587/118
f 417/436/118 307/588/118 306/589/118 305/490/118
f 301/437/118 417/436/118 303/492/118 302/590/118
f 361/585/118 417/436/118 359/439/118 360/591/118
f 294/592/118 417/436/118 363/587/118 381/593/118
f 294/592/118 308/594/118 307/588/118 417/436/118
