# Blender 4.0.2
# www.blender.org
o banner_01
v -0.084044 -0.132129 -0.005312
v -0.084677 -0.131654 -0.004520
v -0.084909 -0.131480 -0.003438
v -0.084677 -0.131654 -0.002356
v -0.084044 -0.132129 -0.001565
v -0.083178 -0.132778 -0.001275
v -0.082313 -0.133427 -0.001565
v -0.081680 -0.133902 -0.002356
v -0.081448 -0.134076 -0.003438
v -0.081680 -0.133902 -0.004520
v -0.082313 -0.133427 -0.005312
v -0.083178 -0.132778 -0.005601
v -0.080703 -0.128468 -0.004506
v -0.081109 -0.128271 -0.004055
v -0.081258 -0.128198 -0.003438
v -0.081109 -0.128271 -0.002821
v -0.080703 -0.128468 -0.002370
v -0.080149 -0.128738 -0.002205
v -0.079594 -0.129007 -0.002370
v -0.079188 -0.129205 -0.002821
v -0.079039 -0.129277 -0.003438
v -0.079188 -0.129205 -0.004055
v -0.079594 -0.129007 -0.004506
v -0.080149 -0.128738 -0.004672
v -0.079628 -0.114310 0.000601
v -0.080056 -0.114275 0.001074
v -0.080212 -0.114369 0.001686
v -0.080056 -0.114567 0.002273
v -0.079628 -0.114814 0.002677
v -0.079044 -0.115046 0.002791
v -0.078460 -0.115200 0.002584
v -0.078033 -0.115234 0.002111
v -0.077876 -0.115141 0.001499
v -0.078033 -0.114943 0.000912
v -0.078460 -0.114696 0.000508
v -0.079044 -0.114464 0.000394
v -0.005131 0.001169 -0.001068
v -0.005481 0.001454 -0.000617
v -0.005609 0.001558 -0.000000
v -0.005481 0.001454 0.000617
v -0.005131 0.001169 0.001068
v -0.004653 0.000779 0.001233
v -0.004174 0.000390 0.001068
v -0.003824 0.000104 0.000617
v -0.003696 0.000000 0.000000
v -0.003824 0.000104 -0.000617
v -0.004174 0.000390 -0.001068
v -0.004653 0.000779 -0.001233
v -0.002830 0.003408 -0.001068
v -0.003058 0.003797 -0.000617
v -0.003142 0.003940 -0.000000
v -0.003058 0.003797 0.000617
v -0.002830 0.003408 0.001068
v -0.002518 0.002876 0.001233
v -0.002206 0.002344 0.001068
v -0.001978 0.001954 0.000617
v -0.001894 0.001812 0.000000
v -0.001978 0.001954 -0.000617
v -0.002206 0.002344 -0.001068
v -0.002518 0.002876 -0.001233
v 0.000000 0.004229 -0.001068
v 0.000000 0.004680 -0.000617
v 0.000000 0.004845 -0.000000
v 0.000000 0.004680 0.000617
v 0.000000 0.004229 0.001068
v 0.000000 0.003612 0.001233
v 0.000000 0.002995 0.001068
v 0.000000 0.002544 0.000617
v 0.000000 0.002378 0.000000
v 0.000000 0.002544 -0.000617
v 0.000000 0.002995 -0.001068
v 0.000000 0.003612 -0.001233
v 0.084044 -0.132129 -0.005312
v 0.084677 -0.131654 -0.004520
v 0.084909 -0.131480 -0.003438
v 0.084677 -0.131654 -0.002356
v 0.084044 -0.132129 -0.001565
v 0.083178 -0.132778 -0.001275
v 0.082313 -0.133427 -0.001565
v 0.081680 -0.133902 -0.002356
v 0.081448 -0.134076 -0.003438
v 0.081680 -0.133902 -0.004520
v 0.082313 -0.133427 -0.005312
v 0.083178 -0.132778 -0.005601
v 0.080703 -0.128468 -0.004506
v 0.081109 -0.128271 -0.004055
v 0.081258 -0.128198 -0.003438
v 0.081109 -0.128271 -0.002821
v 0.080703 -0.128468 -0.002370
v 0.080149 -0.128738 -0.002205
v 0.079594 -0.129007 -0.002370
v 0.079188 -0.129205 -0.002821
v 0.079039 -0.129277 -0.003438
v 0.079188 -0.129205 -0.004055
v 0.079594 -0.129007 -0.004506
v 0.080149 -0.128738 -0.004672
v 0.079628 -0.114310 0.000601
v 0.080056 -0.114275 0.001074
v 0.080212 -0.114369 0.001686
v 0.080056 -0.114567 0.002273
v 0.079628 -0.114814 0.002677
v 0.079044 -0.115046 0.002791
v 0.078460 -0.115200 0.002584
v 0.078033 -0.115234 0.002111
v 0.077876 -0.115141 0.001499
v 0.078033 -0.114943 0.000912
v 0.078460 -0.114696 0.000508
v 0.079044 -0.114464 0.000394
v 0.005131 0.001169 -0.001068
v 0.005481 0.001454 -0.000617
v 0.005609 0.001558 -0.000000
v 0.005481 0.001454 0.000617
v 0.005131 0.001169 0.001068
v 0.004653 0.000779 0.001233
v 0.004174 0.000390 0.001068
v 0.003824 0.000104 0.000617
v 0.003696 0.000000 0.000000
v 0.003824 0.000104 -0.000617
v 0.004174 0.000390 -0.001068
v 0.004653 0.000779 -0.001233
v 0.002830 0.003408 -0.001068
v 0.003058 0.003797 -0.000617
v 0.003142 0.003940 -0.000000
v 0.003058 0.003797 0.000617
v 0.002830 0.003408 0.001068
v 0.002518 0.002876 0.001233
v 0.002206 0.002344 0.001068
v 0.001978 0.001954 0.000617
v 0.001894 0.001812 0.000000
v 0.001978 0.001954 -0.000617
v 0.002206 0.002344 -0.001068
v 0.002518 0.002876 -0.001233
v -0.083178 -0.132778 -0.003438
v -0.079981 -0.119943 -0.001775
v -0.079406 -0.120080 -0.002016
v -0.080401 -0.119975 -0.001297
v -0.080555 -0.120167 -0.000708
v -0.080401 -0.120469 -0.000166
v -0.079981 -0.120798 0.000183
v -0.079406 -0.121067 0.000245
v -0.078832 -0.121205 0.000005
v -0.078411 -0.121173 -0.000473
v -0.078257 -0.120980 -0.001063
v -0.078411 -0.120679 -0.001604
v -0.078832 -0.120350 -0.001953
v 0.083178 -0.132778 -0.003438
v -0.078340 -0.112110 0.000717
v -0.077758 -0.112312 0.000551
v -0.078766 -0.111962 0.001168
v -0.078922 -0.111908 0.001785
v -0.078766 -0.111962 0.002402
v -0.078340 -0.112110 0.002853
v -0.077758 -0.112312 0.003018
v -0.077176 -0.112514 0.002853
v -0.076750 -0.112662 0.002402
v -0.076594 -0.112716 0.001785
v -0.076750 -0.112662 0.001168
v -0.077176 -0.112514 0.000717
v 0.079981 -0.119943 -0.001775
v 0.079406 -0.120080 -0.002016
v 0.080401 -0.119975 -0.001297
v 0.080555 -0.120167 -0.000708
v 0.080401 -0.120469 -0.000166
v 0.079981 -0.120798 0.000183
v 0.079406 -0.121067 0.000245
v 0.078832 -0.121205 0.000005
v 0.078411 -0.121173 -0.000473
v 0.078257 -0.120980 -0.001063
v 0.078411 -0.120679 -0.001604
v 0.078832 -0.120350 -0.001953
v 0.078340 -0.112110 0.000717
v 0.077758 -0.112312 0.000551
v 0.078766 -0.111962 0.001168
v 0.078922 -0.111908 0.001785
v 0.078766 -0.111962 0.002402
v 0.078340 -0.112110 0.002853
v 0.077758 -0.112312 0.003018
v 0.077176 -0.112514 0.002853
v 0.076750 -0.112662 0.002402
v 0.076594 -0.112716 0.001785
v 0.076750 -0.112662 0.001168
v 0.077176 -0.112514 0.000717
v 0.071827 -0.120462 -0.004953
v -0.071827 -0.120462 -0.004953
v 0.071827 -0.116989 -0.004576
v -0.071827 -0.116989 -0.004576
v 0.071827 -0.114045 -0.003502
v -0.071827 -0.114045 -0.003502
v 0.071827 -0.112077 -0.001895
v -0.071827 -0.112077 -0.001895
v 0.071827 -0.111386 0.000000
v -0.071827 -0.111386 0.000000
v 0.071827 -0.112077 0.001895
v -0.071827 -0.112077 0.001895
v 0.071827 -0.114045 0.003502
v -0.071827 -0.114045 0.003502
v 0.071827 -0.116989 0.004576
v -0.071827 -0.116989 0.004576
v 0.071827 -0.120462 0.004953
v -0.071827 -0.120462 0.004953
v 0.071827 -0.122595 0.004571
v -0.071827 -0.122595 0.004571
v 0.071827 -0.124554 0.004012
v -0.071827 -0.124554 0.004012
v 0.071827 -0.126243 0.001961
v -0.071827 -0.126243 0.001961
v 0.071827 -0.126958 0.000000
v -0.071827 -0.126958 0.000000
v 0.071827 -0.126267 -0.001895
v -0.071827 -0.126267 -0.001895
v 0.071827 -0.124533 -0.003502
v -0.071827 -0.124533 -0.003502
v 0.071827 -0.122347 -0.004598
v -0.071827 -0.122347 -0.004598
v 0.000000 -0.120462 -0.006094
v 0.000000 -0.116189 -0.005630
v 0.000000 -0.112566 -0.004309
v 0.000000 -0.110145 -0.002332
v 0.000000 -0.109295 0.000000
v 0.000000 -0.110145 0.002332
v 0.000000 -0.112566 0.004309
v 0.000000 -0.116189 0.005630
v -0.000000 -0.120462 0.006094
v -0.000000 -0.123148 0.005657
v -0.000000 -0.125486 0.004914
v -0.000000 -0.127674 0.002332
v -0.000000 -0.128524 -0.000000
v -0.000000 -0.127674 -0.002332
v -0.000000 -0.125486 -0.004309
v -0.000000 -0.123148 -0.005657
v 0.000000 -0.295543 0.006157
v 0.000000 -0.295646 0.004182
v -0.066472 -0.249625 0.003744
v -0.071827 -0.242195 0.003375
v -0.070258 -0.245917 0.003555
v 0.066472 -0.249625 0.003744
v 0.071827 -0.242195 0.003375
v 0.070258 -0.245917 0.003555
v 0.066472 -0.249729 0.001769
v 0.071827 -0.242300 0.001379
v 0.070258 -0.246021 0.001574
v -0.071827 -0.242300 0.001379
v -0.066472 -0.249729 0.001769
v -0.070258 -0.246021 0.001574
v -0.000000 -0.242195 0.003375
v 0.000000 -0.249626 0.003744
v -0.000000 -0.245910 0.003559
v 0.000000 -0.249730 0.001769
v -0.000000 -0.242300 0.001379
v -0.000000 -0.246015 0.001574
v 0.071827 -0.120462 -0.006094
v 0.071827 -0.116189 -0.005630
v -0.071827 -0.116189 -0.005630
v -0.071827 -0.120462 -0.006094
v 0.071827 -0.112566 -0.004309
v -0.071827 -0.112566 -0.004309
v 0.071827 -0.110145 -0.002332
v -0.071827 -0.110145 -0.002332
v 0.071827 -0.109295 0.000000
v -0.071827 -0.109295 0.000000
v 0.071827 -0.110145 0.002332
v -0.071827 -0.110145 0.002332
v 0.071827 -0.112566 0.004309
v -0.071827 -0.112566 0.004309
v 0.071827 -0.116189 0.005630
v -0.071827 -0.116189 0.005630
v 0.071827 -0.120462 0.006094
v -0.071827 -0.120462 0.006094
v 0.071827 -0.123148 0.005657
v -0.071827 -0.123148 0.005657
v 0.071827 -0.125486 0.004914
v -0.071827 -0.125486 0.004914
v 0.071827 -0.127674 0.002332
v -0.071827 -0.127674 0.002332
v 0.071827 -0.128524 -0.000000
v -0.071827 -0.128524 -0.000000
v 0.071827 -0.127674 -0.002332
v -0.071827 -0.127674 -0.002332
v 0.071827 -0.125486 -0.004309
v -0.071827 -0.125486 -0.004309
v 0.071827 -0.123148 -0.005657
v -0.071827 -0.123148 -0.005657
v 0.067387 -0.120307 -0.004147
v 0.067387 -0.117395 -0.003831
v -0.067387 -0.117279 -0.004044
v -0.067387 -0.120351 -0.004377
v 0.067387 -0.114926 -0.002931
v -0.067387 -0.114675 -0.003094
v 0.067387 -0.113276 -0.001584
v -0.067387 -0.112935 -0.001673
v 0.067387 -0.112697 0.000006
v -0.067387 -0.112323 0.000004
v 0.067387 -0.113276 0.001595
v -0.067387 -0.112935 0.001680
v 0.067387 -0.114926 0.002942
v -0.067387 -0.114675 0.003102
v 0.067387 -0.117395 0.003842
v -0.067387 -0.117279 0.004051
v 0.067387 -0.120307 0.004159
v -0.067387 -0.120351 0.004385
v 0.067387 -0.122096 0.003838
v -0.067387 -0.122238 0.004047
v 0.067387 -0.123738 0.003370
v -0.067387 -0.123970 0.003553
v 0.067387 -0.125154 0.001650
v -0.067387 -0.125465 0.001739
v 0.067387 -0.125754 0.000006
v -0.067387 -0.126097 0.000004
v 0.067387 -0.125174 -0.001584
v -0.067387 -0.125486 -0.001673
v 0.067387 -0.123721 -0.002931
v -0.067387 -0.123952 -0.003094
v 0.067387 -0.121888 -0.003850
v -0.067387 -0.122019 -0.004063
v -0.067387 -0.120534 0.000044
v 0.067387 -0.120534 0.000044
v -0.071827 -0.131180 0.004406
v -0.071827 -0.131180 0.001847
v -0.000000 -0.131180 0.004406
v 0.071827 -0.131180 0.004406
v 0.071827 -0.131180 0.001847
v -0.000000 -0.131180 0.001847
v -0.071827 -0.187233 0.000826
v -0.071827 -0.186183 0.003105
v -0.000000 -0.186183 0.003105
v 0.071827 -0.186183 0.003105
v 0.071827 -0.187233 0.000826
v -0.000000 -0.187233 0.000826
v -0.087589 -0.126506 0.001608
v -0.087589 -0.118211 0.004540
v -0.087589 -0.120213 -0.004540
v -0.087589 -0.111918 -0.001608
v 0.087589 -0.126506 0.001608
v 0.087589 -0.118211 0.004540
v 0.087589 -0.120213 -0.004540
v 0.087589 -0.111918 -0.001608
v -0.079727 -0.122081 -0.003587
v -0.079727 -0.122908 -0.005610
v -0.079727 -0.125072 -0.005921
v -0.079727 -0.126271 -0.005329
v -0.079018 -0.122480 -0.002130
v -0.078416 -0.122298 -0.003310
v -0.078014 -0.122555 -0.004394
v -0.077873 -0.123214 -0.005218
v -0.078014 -0.124174 -0.005657
v -0.078416 -0.125288 -0.005643
v -0.079018 -0.126388 -0.005180
v -0.078498 -0.122800 -0.001721
v -0.077456 -0.122888 -0.002553
v -0.076759 -0.123327 -0.003405
v -0.076515 -0.124049 -0.004148
v -0.076759 -0.124945 -0.004668
v -0.077456 -0.125879 -0.004887
v -0.078498 -0.126707 -0.004770
v -0.078308 -0.123237 -0.001161
v -0.077104 -0.123695 -0.001519
v -0.076300 -0.124381 -0.002054
v -0.076018 -0.125190 -0.002686
v -0.076300 -0.126000 -0.003317
v -0.077104 -0.126686 -0.003853
v -0.078308 -0.127144 -0.004210
v -0.078498 -0.123674 -0.000602
v -0.077456 -0.124502 -0.000485
v -0.076759 -0.125436 -0.000703
v -0.076515 -0.126332 -0.001223
v -0.076759 -0.127054 -0.001966
v -0.077456 -0.127493 -0.002819
v -0.078498 -0.127581 -0.003651
v -0.079018 -0.123993 -0.000192
v -0.078416 -0.125093 0.000272
v -0.078014 -0.126207 0.000286
v -0.077873 -0.127167 -0.000153
v -0.078014 -0.127826 -0.000977
v -0.078416 -0.128083 -0.002062
v -0.079018 -0.127900 -0.003241
v -0.079727 -0.123076 -0.001035
v -0.079727 -0.124110 -0.000042
v -0.079727 -0.125309 0.000549
v -0.079727 -0.126490 0.000648
v -0.079727 -0.127473 0.000239
v -0.079727 -0.128108 -0.000615
v -0.079727 -0.128300 -0.001785
v -0.079727 -0.128017 -0.003091
v -0.080437 -0.123993 -0.000192
v -0.081039 -0.125093 0.000272
v -0.081441 -0.126207 0.000286
v -0.081582 -0.127167 -0.000153
v -0.081441 -0.127826 -0.000977
v -0.081039 -0.128083 -0.002062
v -0.080437 -0.127900 -0.003241
v -0.079727 -0.127305 -0.004336
v -0.080957 -0.123674 -0.000602
v -0.081999 -0.124502 -0.000485
v -0.082696 -0.125436 -0.000703
v -0.082940 -0.126332 -0.001223
v -0.082696 -0.127054 -0.001966
v -0.081999 -0.127493 -0.002819
v -0.080957 -0.127581 -0.003651
v -0.081147 -0.123237 -0.001161
v -0.082351 -0.123695 -0.001519
v -0.083155 -0.124381 -0.002054
v -0.083437 -0.125190 -0.002686
v -0.083155 -0.126000 -0.003317
v -0.082351 -0.126686 -0.003853
v -0.081147 -0.127144 -0.004210
v -0.080957 -0.122800 -0.001721
v -0.081999 -0.122888 -0.002553
v -0.082696 -0.123327 -0.003405
v -0.082940 -0.124049 -0.004148
v -0.082696 -0.124945 -0.004668
v -0.081999 -0.125879 -0.004887
v -0.080957 -0.126707 -0.004770
v -0.080437 -0.122480 -0.002130
v -0.081039 -0.122298 -0.003310
v -0.081441 -0.122555 -0.004394
v -0.081582 -0.123214 -0.005218
v -0.081441 -0.124174 -0.005657
v -0.081039 -0.125288 -0.005643
v -0.080437 -0.126388 -0.005180
v -0.079727 -0.122363 -0.002280
v -0.079727 -0.122273 -0.004756
v -0.079727 -0.123891 -0.006019
v 0.079727 -0.122081 -0.003587
v 0.079727 -0.122908 -0.005610
v 0.079727 -0.125072 -0.005921
v 0.079727 -0.126271 -0.005329
v 0.079018 -0.122480 -0.002130
v 0.078416 -0.122298 -0.003310
v 0.078014 -0.122555 -0.004394
v 0.077873 -0.123214 -0.005218
v 0.078014 -0.124174 -0.005657
v 0.078416 -0.125288 -0.005643
v 0.079018 -0.126388 -0.005180
v 0.078498 -0.122800 -0.001721
v 0.077456 -0.122888 -0.002553
v 0.076759 -0.123327 -0.003405
v 0.076515 -0.124049 -0.004148
v 0.076759 -0.124945 -0.004668
v 0.077456 -0.125879 -0.004887
v 0.078498 -0.126707 -0.004770
v 0.078308 -0.123237 -0.001161
v 0.077104 -0.123695 -0.001519
v 0.076300 -0.124381 -0.002054
v 0.076018 -0.125190 -0.002686
v 0.076300 -0.126000 -0.003317
v 0.077104 -0.126686 -0.003853
v 0.078308 -0.127144 -0.004210
v 0.078498 -0.123674 -0.000602
v 0.077456 -0.124502 -0.000485
v 0.076759 -0.125436 -0.000703
v 0.076515 -0.126332 -0.001223
v 0.076759 -0.127054 -0.001966
v 0.077456 -0.127493 -0.002819
v 0.078498 -0.127581 -0.003651
v 0.079018 -0.123993 -0.000192
v 0.078416 -0.125093 0.000272
v 0.078014 -0.126207 0.000286
v 0.077873 -0.127167 -0.000153
v 0.078014 -0.127826 -0.000977
v 0.078416 -0.128083 -0.002062
v 0.079018 -0.127900 -0.003241
v 0.079727 -0.123076 -0.001035
v 0.079727 -0.124110 -0.000042
v 0.079727 -0.125309 0.000549
v 0.079727 -0.126490 0.000648
v 0.079727 -0.127473 0.000239
v 0.079727 -0.128108 -0.000615
v 0.079727 -0.128300 -0.001785
v 0.079727 -0.128017 -0.003091
v 0.080437 -0.123993 -0.000192
v 0.081039 -0.125093 0.000272
v 0.081441 -0.126207 0.000286
v 0.081582 -0.127167 -0.000153
v 0.081441 -0.127826 -0.000977
v 0.081039 -0.128083 -0.002062
v 0.080437 -0.127900 -0.003241
v 0.079727 -0.127305 -0.004336
v 0.080957 -0.123674 -0.000602
v 0.081999 -0.124502 -0.000485
v 0.082696 -0.125436 -0.000703
v 0.082940 -0.126332 -0.001223
v 0.082696 -0.127054 -0.001966
v 0.081999 -0.127493 -0.002819
v 0.080957 -0.127581 -0.003651
v 0.081147 -0.123237 -0.001161
v 0.082351 -0.123695 -0.001519
v 0.083155 -0.124381 -0.002054
v 0.083437 -0.125190 -0.002686
v 0.083155 -0.126000 -0.003317
v 0.082351 -0.126686 -0.003853
v 0.081147 -0.127144 -0.004210
v 0.080957 -0.122800 -0.001721
v 0.081999 -0.122888 -0.002553
v 0.082696 -0.123327 -0.003405
v 0.082940 -0.124049 -0.004148
v 0.082696 -0.124945 -0.004668
v 0.081999 -0.125879 -0.004887
v 0.080957 -0.126707 -0.004770
v 0.080437 -0.122480 -0.002130
v 0.081039 -0.122298 -0.003310
v 0.081441 -0.122555 -0.004394
v 0.081582 -0.123214 -0.005218
v 0.081441 -0.124174 -0.005657
v 0.081039 -0.125288 -0.005643
v 0.080437 -0.126388 -0.005180
v 0.079727 -0.122363 -0.002280
v 0.079727 -0.122273 -0.004756
v 0.079727 -0.123891 -0.006019
vn -0.2903 0.4504 -0.8443
vn -0.3369 0.3760 -0.8632
vn 0.1150 0.2057 -0.9718
vn 0.0996 0.1522 -0.9833
vn -0.5691 0.6653 -0.4832
vn -0.7101 0.4690 -0.5252
vn -0.6693 0.7430 -0.0000
vn -0.5691 0.6653 0.4832
vn -0.5634 0.6609 0.4958
vn -0.2903 0.4504 0.8443
vn -0.2729 0.4369 0.8571
vn 0.0996 0.1522 0.9833
vn 0.0664 -0.0892 0.9938
vn 0.4958 -0.1485 0.8557
vn 0.5290 -0.2278 0.8175
vn 0.7873 -0.3682 0.4946
vn 0.8474 -0.2911 0.4441
vn 0.8939 -0.4483 -0.0000
vn 0.9617 -0.2724 -0.0306
vn 0.7873 -0.3682 -0.4946
vn 0.8514 -0.1674 -0.4971
vn 0.4958 -0.1485 -0.8557
vn 0.5436 0.0065 -0.8393
vn -0.4806 0.3375 -0.8094
vn -0.5137 0.3400 -0.7877
vn -0.0316 0.2491 -0.9680
vn 0.0368 0.3431 -0.9386
vn -0.8596 0.2333 -0.4546
vn -0.8458 0.3410 -0.4103
vn -0.9976 0.0682 0.0105
vn -0.9639 0.2585 0.0638
vn -0.8793 -0.1104 0.4633
vn -0.8439 0.1095 0.5251
vn -0.5347 -0.2611 0.8037
vn -0.5083 -0.0713 0.8582
vn -0.0324 -0.3442 0.9383
vn -0.0389 -0.2344 0.9714
vn 0.4916 -0.3313 0.8053
vn 0.4412 -0.3348 0.8326
vn 0.8677 -0.2280 0.4418
vn 0.8078 -0.3477 0.4759
vn 0.9971 -0.0709 -0.0273
vn 0.9629 -0.2693 -0.0156
vn 0.8732 0.1009 -0.4768
vn 0.8482 -0.1127 -0.5175
vn 0.5307 0.2521 -0.8092
vn 0.4776 0.0817 -0.8748
vn -0.4462 0.2910 -0.8463
vn -0.4027 0.3231 -0.8564
vn -0.0173 0.0061 -0.9998
vn -0.0118 0.0378 -0.9992
vn -0.7564 0.4592 -0.4658
vn -0.6758 0.5511 -0.4894
vn -0.8646 0.5014 0.0324
vn -0.7725 0.6350 -0.0011
vn -0.7474 0.4139 0.5197
vn -0.6728 0.5567 0.4873
vn -0.4332 0.2208 0.8738
vn -0.3976 0.3331 0.8550
vn -0.0006 -0.0308 0.9995
vn -0.0107 0.0176 0.9998
vn 0.4340 -0.2767 0.8574
vn 0.3845 -0.3042 0.8716
vn 0.7500 -0.4504 0.4844
vn 0.6745 -0.5405 0.5029
vn 0.8629 -0.5050 -0.0170
vn 0.7783 -0.6279 -0.0010
vn 0.7451 -0.4246 -0.5142
vn 0.6697 -0.5455 -0.5040
vn 0.4259 -0.2265 -0.8759
vn 0.3776 -0.3136 -0.8713
vn -0.2646 0.4568 -0.8493
vn -0.0199 0.0351 -0.9992
vn -0.4382 0.7571 -0.4845
vn -0.5009 0.8655 -0.0000
vn -0.4382 0.7571 0.4845
vn -0.2646 0.4568 0.8493
vn -0.0199 0.0351 0.9992
vn 0.2375 -0.4023 0.8842
vn 0.4371 -0.7341 0.5197
vn 0.5131 -0.8583 -0.0000
vn 0.4371 -0.7341 -0.5197
vn 0.2375 -0.4023 -0.8842
vn -0.0000 0.5317 -0.8469
vn -0.0000 0.0466 -0.9989
vn -0.0000 0.8759 -0.4825
vn -0.0000 1.0000 -0.0000
vn -0.0000 0.8759 0.4825
vn -0.0000 0.5317 0.8469
vn -0.0000 0.0466 0.9989
vn -0.0000 -0.4611 0.8874
vn -0.0000 -0.8519 0.5238
vn -0.0000 -1.0000 -0.0000
vn -0.0000 -0.8519 -0.5238
vn -0.0000 -0.4611 -0.8874
vn -0.4958 -0.1485 -0.8557
vn -0.7873 -0.3682 -0.4946
vn -0.8514 -0.1674 -0.4971
vn -0.5436 0.0065 -0.8393
vn -0.0996 0.1522 -0.9833
vn -0.1150 0.2057 -0.9718
vn 0.2903 0.4504 -0.8443
vn 0.3369 0.3760 -0.8632
vn 0.5691 0.6653 -0.4832
vn 0.7101 0.4690 -0.5252
vn 0.6693 0.7430 -0.0000
vn 0.5691 0.6653 0.4832
vn 0.5634 0.6609 0.4958
vn 0.2903 0.4504 0.8443
vn 0.2729 0.4369 0.8571
vn -0.0996 0.1522 0.9833
vn -0.0664 -0.0892 0.9938
vn -0.4958 -0.1485 0.8557
vn -0.5290 -0.2278 0.8175
vn -0.7873 -0.3682 0.4946
vn -0.8474 -0.2911 0.4441
vn -0.8939 -0.4483 -0.0000
vn -0.9617 -0.2724 -0.0306
vn 0.4806 0.3375 -0.8094
vn 0.8596 0.2333 -0.4546
vn 0.5999 -0.8000 -0.0000
vn 0.6000 -0.8000 -0.0000
vn 0.5999 -0.8001 -0.0000
vn -0.8732 0.1009 -0.4768
vn -0.5307 0.2521 -0.8092
vn -0.8677 -0.2280 0.4418
vn -0.9971 -0.0709 -0.0273
vn 0.0324 -0.3442 0.9383
vn -0.4916 -0.3313 0.8053
vn 0.5249 -0.2222 0.8216
vn 0.8864 -0.0741 0.4570
vn 0.8793 -0.1104 0.4633
vn 0.5347 -0.2611 0.8037
vn -0.0368 0.3431 -0.9386
vn -0.8482 -0.1127 -0.5175
vn -0.4776 0.0817 -0.8748
vn 0.0316 0.2491 -0.9680
vn 0.5137 0.3400 -0.7877
vn 0.8458 0.3410 -0.4103
vn 0.9976 0.0682 0.0105
vn 0.9639 0.2585 0.0638
vn 0.8439 0.1095 0.5251
vn 0.5083 -0.0713 0.8582
vn 0.0389 -0.2344 0.9714
vn -0.4412 -0.3348 0.8326
vn -0.8078 -0.3477 0.4759
vn -0.9629 -0.2693 -0.0156
vn -0.3776 -0.3136 -0.8713
vn -0.6697 -0.5455 -0.5040
vn -0.4371 -0.7341 -0.5197
vn -0.2375 -0.4023 -0.8842
vn 0.0173 0.0061 -0.9998
vn 0.0199 0.0351 -0.9992
vn 0.4462 0.2910 -0.8463
vn 0.0118 0.0378 -0.9992
vn 0.4027 0.3231 -0.8564
vn 0.8646 0.5014 0.0324
vn 0.7564 0.4592 -0.4658
vn 0.6758 0.5511 -0.4894
vn 0.7725 0.6350 -0.0011
vn 0.4332 0.2208 0.8738
vn 0.7474 0.4139 0.5197
vn 0.6728 0.5567 0.4873
vn 0.3976 0.3331 0.8550
vn -0.4340 -0.2767 0.8574
vn 0.0006 -0.0308 0.9995
vn 0.0107 0.0176 0.9998
vn -0.3845 -0.3042 0.8716
vn -0.7451 -0.4246 -0.5142
vn -0.8629 -0.5050 -0.0170
vn -0.7783 -0.6279 -0.0010
vn -0.4259 -0.2265 -0.8759
vn 0.2646 0.4568 -0.8493
vn 0.4382 0.7571 -0.4845
vn 0.5009 0.8655 -0.0000
vn 0.4382 0.7571 0.4845
vn 0.2646 0.4568 0.8493
vn 0.0199 0.0351 0.9992
vn -0.2375 -0.4023 0.8842
vn -0.6745 -0.5405 0.5029
vn -0.4371 -0.7341 0.5197
vn -0.5131 -0.8583 -0.0000
vn -0.7500 -0.4504 0.4844
vn -0.6000 -0.8000 -0.0000
vn -0.5999 -0.8000 -0.0000
vn -0.5999 -0.8001 -0.0000
vn -0.5249 -0.2222 0.8216
vn -0.8864 -0.0741 0.4570
vn -0.9947 0.0977 -0.0328
vn 0.9947 0.0977 -0.0328
vn -0.0000 -0.0266 -0.9996
vn -0.0000 0.2269 -0.9739
vn -0.0000 0.4945 -0.8692
vn -0.0000 0.8152 -0.5792
vn -0.0000 0.9395 -0.3424
vn -0.0000 0.9395 0.3424
vn -0.0000 0.8152 0.5792
vn -0.0000 0.4945 0.8692
vn -0.0000 0.2269 0.9739
vn -0.0000 -0.0266 0.9996
vn -0.0000 -0.2322 0.9727
vn -0.0000 -0.1969 0.9804
vn -0.0000 0.0041 -1.0000
vn -0.0000 -0.0313 -0.9995
vn -0.0000 -0.0282 -0.9996
vn -0.0000 -0.9395 0.3424
vn -0.0000 -0.9395 -0.3424
vn -0.0000 -0.8295 -0.5586
vn -0.0000 -0.5883 -0.8087
vn 0.2473 0.9104 0.3318
vn 0.2376 0.8148 0.5289
vn 0.2360 0.8029 0.5474
vn -0.0000 -0.3354 -0.9421
vn 0.2525 -0.7974 -0.5481
vn 0.2046 -0.4934 -0.8454
vn 0.2022 -0.4742 -0.8569
vn 0.2494 -0.7795 -0.5747
vn -0.0000 -0.0525 -0.9986
vn -0.0000 -0.0094 1.0000
vn -0.0000 0.0237 0.9997
vn -0.0000 0.0269 0.9996
vn -0.0000 0.0513 0.9987
vn -0.0000 0.0507 0.9987
vn -0.0000 0.0525 0.9986
vn 1.0000 -0.0000 -0.0000
vn 0.9809 -0.1944 0.0102
vn 0.9797 -0.2003 0.0105
vn -1.0000 -0.0000 -0.0000
vn -0.9797 -0.2003 0.0105
vn -0.9809 -0.1944 0.0102
vn 0.6369 -0.7699 0.0405
vn 0.5689 -0.8213 0.0432
vn -0.0000 0.0493 0.9988
vn -0.0000 0.0496 0.9988
vn 0.8272 -0.5612 0.0295
vn 0.8273 -0.5609 0.0295
vn -0.6369 -0.7699 0.0404
vn -0.8273 -0.5609 0.0295
vn -0.8272 -0.5612 0.0295
vn -0.5689 -0.8213 0.0431
vn -0.1476 -0.4960 -0.8557
vn -0.1831 -0.8079 -0.5602
vn -0.1815 -0.7945 -0.5796
vn -0.1463 -0.4819 -0.8639
vn -0.1722 0.8247 0.5387
vn -0.1795 0.9243 0.3369
vn -0.1713 0.8159 0.5522
vn 0.1789 -0.2269 -0.9573
vn 0.1785 -0.2195 -0.9591
vn 0.2060 0.5626 0.8006
vn 0.2050 0.5519 0.8083
vn -0.1289 -0.2277 -0.9652
vn -0.1287 -0.2223 -0.9665
vn 0.1797 0.0408 0.9829
vn 0.1812 -0.2268 0.9569
vn 0.1808 -0.2194 0.9587
vn 0.1796 0.0358 0.9831
vn -0.1487 0.5671 0.8101
vn -0.1482 0.5592 0.8157
vn 0.1772 0.0365 -0.9835
vn 0.1771 0.0314 -0.9837
vn -0.1306 -0.2276 0.9650
vn -0.1295 0.0405 0.9907
vn -0.1295 0.0368 0.9909
vn -0.1304 -0.2223 0.9662
vn 0.1894 0.3174 0.9292
vn 0.1891 0.3103 0.9317
vn -0.1277 0.0361 -0.9912
vn -0.1276 0.0324 -0.9913
vn 0.2066 -0.4931 0.8451
vn 0.2043 -0.4741 0.8564
vn -0.1366 0.3192 0.9378
vn -0.1364 0.3141 0.9395
vn 0.1832 0.2239 -0.9572
vn 0.1828 0.2196 -0.9583
vn -0.1491 -0.4958 0.8555
vn -0.1478 -0.4819 0.8637
vn -0.1320 0.2252 -0.9653
vn -0.1319 0.2220 -0.9661
vn 0.2537 -0.7970 0.5482
vn 0.2508 -0.7794 0.5742
vn 0.2174 0.5453 -0.8095
vn 0.2154 0.5230 -0.8246
vn -0.1841 -0.8076 0.5602
vn -0.1825 -0.7944 0.5793
vn -0.1571 0.5489 -0.8210
vn -0.1560 0.5326 -0.8319
vn 0.2677 -0.9053 0.3299
vn 0.2408 0.8456 -0.4765
vn 0.2400 0.8396 -0.4873
vn -0.1948 -0.9215 0.3359
vn -0.1746 0.8570 -0.4848
vn -0.1742 0.8526 -0.4927
vn 0.2669 -0.9055 -0.3300
vn 0.2465 0.9105 -0.3319
vn -0.1942 -0.9216 -0.3359
vn -0.1790 0.9244 -0.3369
vn -0.0000 -0.0563 0.9984
vn -0.0000 0.1369 -0.9906
vn -0.0000 0.0777 -0.9970
vn -0.0000 0.3333 -0.9428
vn -0.0000 -0.3333 0.9428
vn -0.0000 -0.6988 -0.7153
vn -0.0000 0.6988 0.7153
vn -0.0000 1.0000 0.0011
vn -0.0000 0.9420 0.3355
vn 0.1575 0.9161 0.3688
vn 0.3072 0.9494 0.0660
vn -0.0000 -0.5544 -0.8323
vn -0.0000 -0.2440 -0.9698
vn 0.3072 -0.2947 -0.9049
vn 0.1575 -0.5803 -0.7990
vn -0.0000 0.1726 -0.9850
vn -0.0000 0.6152 -0.7884
vn 0.5000 0.5328 -0.6827
vn 0.4414 0.0999 -0.8918
vn -0.0000 0.9135 -0.4068
vn 0.4414 0.8408 -0.3136
vn -0.0000 0.7883 0.6152
vn -0.0000 -0.7884 -0.6152
vn 0.8660 0.3076 -0.3942
vn 0.7645 -0.0989 -0.6370
vn 0.5321 0.8110 0.2432
vn 0.7645 0.6420 -0.0589
vn 0.2729 0.8451 0.4597
vn 0.2729 -0.6513 -0.7081
vn 0.5321 -0.4330 -0.7276
vn 0.3151 -0.7482 -0.5839
vn 0.8827 -0.3704 -0.2891
vn 0.6144 -0.6220 -0.4854
vn 0.8827 0.3704 0.2891
vn 0.3151 0.7482 0.5839
vn 0.6144 0.6220 0.4854
vn 0.7645 0.0989 0.6370
vn 0.8660 -0.3076 0.3942
vn 0.2729 0.6513 0.7081
vn 0.5321 0.4330 0.7276
vn 0.5321 -0.8110 -0.2432
vn 0.2729 -0.8451 -0.4597
vn 0.7645 -0.6420 0.0589
vn 0.3072 -0.9494 -0.0660
vn 0.1575 -0.9161 -0.3688
vn 0.5000 -0.5328 0.6827
vn 0.4414 -0.8407 0.3136
vn 0.3072 0.2947 0.9049
vn 0.4414 -0.0999 0.8918
vn 0.1575 0.5803 0.7990
vn -0.0000 0.2440 0.9698
vn -0.0000 -0.1726 0.9850
vn -0.0000 0.5544 0.8323
vn -0.0000 -0.9420 -0.3355
vn -0.0000 -0.9135 0.4068
vn -0.0000 -1.0000 -0.0011
vn -0.0000 -0.6152 0.7883
vn -0.1575 -0.9161 -0.3688
vn -0.4414 -0.8407 0.3136
vn -0.3072 -0.9494 -0.0660
vn -0.4414 -0.0999 0.8918
vn -0.5000 -0.5328 0.6827
vn -0.1575 0.5803 0.7990
vn -0.3072 0.2947 0.9049
vn -0.2729 0.6513 0.7081
vn -0.5321 0.4330 0.7276
vn -0.5321 -0.8110 -0.2432
vn -0.2729 -0.8451 -0.4597
vn -0.8660 -0.3076 0.3942
vn -0.7645 -0.6420 0.0589
vn -0.7645 0.0989 0.6370
vn -0.6144 -0.6220 -0.4854
vn -0.3151 -0.7482 -0.5839
vn -0.8827 -0.3704 -0.2891
vn -0.6144 0.6220 0.4854
vn -0.8827 0.3704 0.2891
vn -0.3151 0.7482 0.5839
vn -0.2729 0.8451 0.4597
vn -0.2729 -0.6513 -0.7081
vn -0.7645 -0.0989 -0.6370
vn -0.5321 -0.4330 -0.7276
vn -0.7645 0.6420 -0.0589
vn -0.8660 0.3076 -0.3942
vn -0.5321 0.8110 0.2432
vn -0.4414 0.0999 -0.8918
vn -0.3072 -0.2947 -0.9049
vn -0.4414 0.8408 -0.3136
vn -0.5000 0.5328 -0.6827
vn -0.1575 0.9161 0.3688
vn -0.3072 0.9494 0.0660
vn -0.1575 -0.5803 -0.7990
vn -0.0000 -0.5543 -0.8323
vn -0.0000 0.5543 0.8323
vt 0.006471 0.725584
vt 0.021975 0.725584
vt 0.021975 0.727710
vt 0.006471 0.727710
vt 0.006471 0.723457
vt 0.021975 0.723457
vt 0.006471 0.721330
vt 0.021975 0.721330
vt 0.006471 0.719203
vt 0.021975 0.719203
vt 0.006471 0.717076
vt 0.021975 0.717076
vt 0.006471 0.714949
vt 0.021975 0.714949
vt 0.006471 0.712823
vt 0.021975 0.712823
vt 0.006471 0.710696
vt 0.021975 0.710696
vt 0.006471 0.708569
vt 0.021975 0.708569
vt 0.006471 0.731963
vt 0.021975 0.731963
vt 0.021975 0.734091
vt 0.006471 0.734091
vt 0.006471 0.729837
vt 0.021975 0.729837
vt 0.048087 0.725584
vt 0.067229 0.725584
vt 0.067229 0.727710
vt 0.048087 0.727710
vt 0.048087 0.723457
vt 0.067229 0.723457
vt 0.048087 0.721330
vt 0.067229 0.721330
vt 0.048087 0.719203
vt 0.067229 0.719203
vt 0.048087 0.717076
vt 0.067229 0.717076
vt 0.048087 0.714949
vt 0.067229 0.714949
vt 0.048087 0.712823
vt 0.067229 0.712823
vt 0.048087 0.710696
vt 0.067229 0.710696
vt 0.048087 0.708569
vt 0.067229 0.708569
vt 0.048087 0.731963
vt 0.067229 0.731963
vt 0.067229 0.734091
vt 0.048087 0.734091
vt 0.048087 0.729837
vt 0.067229 0.729837
vt 0.075554 0.725584
vt 0.483331 0.725584
vt 0.483331 0.727710
vt 0.075554 0.727710
vt 0.075554 0.723457
vt 0.483331 0.723457
vt 0.075554 0.721330
vt 0.483331 0.721330
vt 0.075554 0.719203
vt 0.483331 0.719203
vt 0.075554 0.717076
vt 0.483331 0.717076
vt 0.075554 0.714949
vt 0.483331 0.714949
vt 0.075554 0.712823
vt 0.483331 0.712823
vt 0.075554 0.710696
vt 0.483331 0.710696
vt 0.075554 0.708569
vt 0.483331 0.708569
vt 0.075554 0.731963
vt 0.483331 0.731963
vt 0.483331 0.734091
vt 0.075554 0.734091
vt 0.075554 0.729837
vt 0.483331 0.729837
vt 0.492476 0.725584
vt 0.492476 0.727710
vt 0.492476 0.723457
vt 0.492476 0.721330
vt 0.492476 0.719203
vt 0.492476 0.717076
vt 0.492476 0.714949
vt 0.492476 0.712823
vt 0.492476 0.710696
vt 0.492476 0.708569
vt 0.492476 0.731963
vt 0.492476 0.734091
vt 0.492476 0.729837
vt 0.500548 0.725584
vt 0.500548 0.727710
vt 0.500548 0.723457
vt 0.500548 0.721330
vt 0.500548 0.719203
vt 0.500548 0.717076
vt 0.500548 0.714949
vt 0.500548 0.712823
vt 0.500548 0.710696
vt 0.500548 0.708569
vt 0.500548 0.731963
vt 0.500548 0.734091
vt 0.500548 0.729837
vt 0.994418 0.729837
vt 0.994418 0.731963
vt 0.978841 0.731963
vt 0.978841 0.729837
vt 0.994418 0.727710
vt 0.978841 0.727710
vt 0.994418 0.725584
vt 0.978841 0.725584
vt 0.994418 0.723457
vt 0.978841 0.723457
vt 0.994418 0.721330
vt 0.978841 0.721330
vt 0.994418 0.719203
vt 0.978841 0.719203
vt 0.994418 0.717076
vt 0.978841 0.717076
vt 0.994418 0.714949
vt 0.978841 0.714949
vt 0.994418 0.712823
vt 0.978841 0.712823
vt 0.994418 0.710696
vt 0.978841 0.710696
vt 0.994418 0.708569
vt 0.978841 0.708569
vt 0.994418 0.734091
vt 0.978841 0.734091
vt 0.952735 0.725584
vt 0.952735 0.723457
vt 0.522248 0.660989
vt 0.528883 0.662767
vt 0.522248 0.664545
vt 0.524026 0.667624
vt 0.527105 0.669402
vt 0.530661 0.669402
vt 0.533740 0.667624
vt 0.535518 0.664545
vt 0.535518 0.660989
vt 0.533740 0.657910
vt 0.530661 0.656133
vt 0.527105 0.656133
vt 0.524026 0.657910
vt 0.952735 0.731963
vt 0.952735 0.729837
vt 0.952735 0.710696
vt 0.952735 0.708569
vt 0.952735 0.714949
vt 0.952735 0.712823
vt 0.952735 0.719203
vt 0.952735 0.717076
vt 0.952735 0.727710
vt 0.933570 0.731963
vt 0.933570 0.729837
vt 0.933570 0.727710
vt 0.933570 0.725584
vt 0.933570 0.723457
vt 0.952735 0.721330
vt 0.933570 0.721330
vt 0.933570 0.719203
vt 0.933570 0.717076
vt 0.933570 0.714949
vt 0.933570 0.712823
vt 0.933570 0.710696
vt 0.933570 0.708569
vt 0.952735 0.734091
vt 0.933570 0.734091
vt 0.517505 0.729837
vt 0.517505 0.731963
vt 0.508359 0.731963
vt 0.508359 0.729837
vt 0.517505 0.727710
vt 0.508359 0.727710
vt 0.925245 0.725584
vt 0.925245 0.727710
vt 0.517505 0.725584
vt 0.925245 0.721330
vt 0.925245 0.723457
vt 0.517505 0.723457
vt 0.517505 0.721330
vt 0.925245 0.717076
vt 0.925245 0.719203
vt 0.517505 0.719203
vt 0.517505 0.717076
vt 0.925245 0.712823
vt 0.925245 0.714949
vt 0.517505 0.714949
vt 0.517505 0.712823
vt 0.925245 0.731963
vt 0.925245 0.734091
vt 0.517505 0.734091
vt 0.925245 0.729837
vt 0.508359 0.725584
vt 0.508359 0.723457
vt 0.508359 0.721330
vt 0.508359 0.719203
vt 0.508359 0.717076
vt 0.508359 0.714949
vt 0.508359 0.712823
vt 0.517505 0.708569
vt 0.517505 0.710696
vt 0.508359 0.710696
vt 0.508359 0.708569
vt 0.508359 0.734091
vt 0.925245 0.710696
vt 0.925245 0.708569
vt 0.533740 0.639138
vt 0.530661 0.640916
vt 0.528883 0.634282
vt 0.527105 0.640916
vt 0.524026 0.639139
vt 0.522248 0.636060
vt 0.522248 0.632504
vt 0.524026 0.629425
vt 0.527105 0.627647
vt 0.530661 0.627647
vt 0.533740 0.629425
vt 0.535518 0.632504
vt 0.535518 0.636059
vt 0.234525 0.651017
vt 0.006471 0.651016
vt 0.006471 0.637368
vt 0.234525 0.637370
vt 0.006471 0.625125
vt 0.234525 0.625127
vt 0.006471 0.615202
vt 0.234525 0.615203
vt 0.006471 0.607321
vt 0.234525 0.607322
vt 0.006471 0.599440
vt 0.234525 0.599441
vt 0.006471 0.589517
vt 0.234525 0.589518
vt 0.006471 0.577274
vt 0.234525 0.577274
vt 0.006471 0.563626
vt 0.234525 0.563627
vt 0.006471 0.554987
vt 0.234525 0.554987
vt 0.006471 0.547196
vt 0.234525 0.547196
vt 0.933908 0.351365
vt 0.705854 0.351365
vt 0.705853 0.176515
vt 0.933908 0.176515
vt 0.234524 0.693351
vt 0.006471 0.693349
vt 0.006471 0.685468
vt 0.234524 0.685470
vt 0.006471 0.677587
vt 0.234524 0.677589
vt 0.006471 0.668226
vt 0.234525 0.668228
vt 0.606086 0.567520
vt 0.609276 0.575526
vt 0.594879 0.579065
vt 0.593865 0.575172
vt 0.006471 0.659656
vt 0.234525 0.659657
vt 0.551727 0.592788
vt 0.551781 0.581616
vt 0.567052 0.583697
vt 0.565936 0.588725
vt 0.477798 0.351365
vt 0.477798 0.176514
vt 0.705853 0.152890
vt 0.494799 0.152894
vt 0.705854 0.006901
vt 0.234525 0.354360
vt 0.006471 0.354360
vt 0.006471 0.176515
vt 0.234525 0.176515
vt 0.234525 0.152891
vt 0.023471 0.152895
vt 0.234525 0.006901
vt 0.462581 0.354360
vt 0.462581 0.176514
vt 0.470694 0.868779
vt 0.474095 0.875984
vt 0.296167 0.875984
vt 0.295998 0.869643
vt 0.253636 0.929881
vt 0.257037 0.922677
vt 0.431737 0.923541
vt 0.431568 0.929881
vt 0.266480 0.869709
vt 0.266480 0.875984
vt 0.009743 0.875984
vt 0.009743 0.869702
vt 0.462581 0.659658
vt 0.462581 0.651018
vt 0.462581 0.668229
vt 0.462581 0.677590
vt 0.462581 0.685471
vt 0.462581 0.693353
vt 0.916907 0.152894
vt 0.462581 0.554987
vt 0.462581 0.547196
vt 0.462581 0.563628
vt 0.462581 0.577275
vt 0.462581 0.589518
vt 0.462581 0.599442
vt 0.462581 0.607323
vt 0.462581 0.615204
vt 0.462581 0.625128
vt 0.462581 0.637371
vt 0.445580 0.152894
vt 0.457602 0.164683
vt 0.234525 0.164702
vt 0.283296 0.869715
vt 0.283325 0.875984
vt 0.461256 0.923607
vt 0.461256 0.929881
vt 0.444410 0.929881
vt 0.444439 0.923612
vt 0.482777 0.164683
vt 0.705853 0.164703
vt 0.011450 0.164684
vt 0.928929 0.164684
vt 0.718000 0.923602
vt 0.718000 0.929882
vt 0.693222 0.846411
vt 0.682172 0.845476
vt 0.682086 0.841854
vt 0.695683 0.843005
vt 0.045554 0.899373
vt 0.034504 0.900308
vt 0.032043 0.896902
vt 0.045640 0.895751
vt 0.702647 0.849598
vt 0.707279 0.846926
vt 0.025079 0.903495
vt 0.020446 0.900823
vt 0.709011 0.854550
vt 0.715109 0.853018
vt 0.018714 0.908446
vt 0.012616 0.906915
vt 0.711346 0.860513
vt 0.717982 0.860356
vt 0.016379 0.914410
vt 0.009743 0.914253
vt 0.709296 0.866580
vt 0.715460 0.867821
vt 0.018430 0.920477
vt 0.012266 0.921718
vt 0.703173 0.871827
vt 0.707926 0.874277
vt 0.024553 0.925724
vt 0.019799 0.928174
vt 0.693910 0.875455
vt 0.696528 0.878741
vt 0.033816 0.929353
vt 0.031197 0.932639
vt 0.682916 0.876913
vt 0.683002 0.880534
vt 0.044810 0.930810
vt 0.044725 0.934432
vt 0.676116 0.875860
vt 0.674445 0.879349
vt 0.051610 0.929758
vt 0.053282 0.933247
vt 0.669859 0.874234
vt 0.666967 0.877168
vt 0.057868 0.928132
vt 0.060760 0.931066
vt 0.664344 0.867852
vt 0.659832 0.869137
vt 0.063383 0.921749
vt 0.067895 0.923035
vt 0.661928 0.861682
vt 0.656959 0.861799
vt 0.065799 0.915579
vt 0.070768 0.915697
vt 0.663978 0.855615
vt 0.659482 0.854334
vt 0.063749 0.909512
vt 0.068246 0.908232
vt 0.669360 0.850385
vt 0.666274 0.847896
vt 0.058366 0.904282
vt 0.061453 0.901793
vt 0.676214 0.846745
vt 0.673595 0.843443
vt 0.051512 0.900642
vt 0.054131 0.897340
vt 0.588586 0.591289
vt 0.581879 0.595058
vt 0.583141 0.582035
vt 0.536510 0.581878
vt 0.536510 0.593244
vt 0.522417 0.589549
vt 0.521260 0.584361
vt 0.477826 0.576689
vt 0.481057 0.568555
vt 0.493200 0.575883
vt 0.492194 0.579909
vt 0.557768 0.568693
vt 0.570817 0.578100
vt 0.609276 0.586050
vt 0.594034 0.583759
vt 0.530363 0.568689
vt 0.517298 0.578529
vt 0.599848 0.603234
vt 0.585343 0.610739
vt 0.477797 0.587418
vt 0.493088 0.584775
vt 0.570371 0.558317
vt 0.577009 0.573416
vt 0.502642 0.612431
vt 0.487566 0.605045
vt 0.498875 0.592621
vt 0.505997 0.596458
vt 0.605301 0.596440
vt 0.591584 0.588302
vt 0.517311 0.558135
vt 0.510715 0.573688
vt 0.571095 0.611093
vt 0.575261 0.596257
vt 0.481901 0.598061
vt 0.495684 0.589513
vt 0.579903 0.555823
vt 0.581459 0.571655
vt 0.517200 0.612373
vt 0.512943 0.597527
vt 0.507418 0.555823
vt 0.505991 0.571934
vt 0.560827 0.606683
vt 0.570211 0.595260
vt 0.589227 0.555852
vt 0.585643 0.570864
vt 0.527478 0.607514
vt 0.518122 0.596342
vt 0.497851 0.556199
vt 0.501601 0.571236
vt 0.554987 0.600580
vt 0.567031 0.592674
vt 0.599990 0.560955
vt 0.590647 0.572540
vt 0.533200 0.601143
vt 0.521328 0.593614
vt 0.487032 0.561693
vt 0.496459 0.573095
vt 0.504562 0.582912
vt 0.079060 0.921760
vt 0.078868 0.929881
vt 0.648859 0.875984
vt 0.648667 0.867862
vt 0.234525 0.529046
vt 0.462581 0.529047
vt 0.006471 0.529046
vt 0.705855 0.540606
vt 0.477797 0.540607
vt 0.477797 0.529368
vt 0.705855 0.529367
vt 0.933908 0.540605
vt 0.933908 0.529366
vt 0.649554 0.611305
vt 0.649554 0.639237
vt 0.624492 0.651570
vt 0.624492 0.623638
vt 0.007765 0.856480
vt 0.007765 0.828549
vt 0.563963 0.828548
vt 0.563963 0.856480
vt 0.624492 0.583755
vt 0.624492 0.555823
vt 0.649554 0.568157
vt 0.649554 0.596089
vt 0.563963 0.772683
vt 0.563963 0.800615
vt 0.007765 0.800617
vt 0.007764 0.772684
vt 0.007764 0.744752
vt 0.563963 0.744752
vt 0.499809 0.640509
vt 0.496248 0.641371
vt 0.495283 0.639670
vt 0.497874 0.637219
vt 0.682840 0.624889
vt 0.686403 0.623817
vt 0.686430 0.627717
vt 0.682874 0.626890
vt 0.689877 0.622783
vt 0.694061 0.621522
vt 0.694061 0.629734
vt 0.690057 0.628603
vt 0.503320 0.639627
vt 0.500436 0.634737
vt 0.492568 0.642310
vt 0.679152 0.625988
vt 0.507032 0.638695
vt 0.503390 0.631887
vt 0.690067 0.636658
vt 0.687254 0.633720
vt 0.494650 0.635178
vt 0.495630 0.631657
vt 0.493604 0.638671
vt 0.681909 0.628629
vt 0.684614 0.631178
vt 0.496727 0.628020
vt 0.680211 0.629622
vt 0.682287 0.636649
vt 0.681207 0.633151
vt 0.489942 0.631512
vt 0.489175 0.627647
vt 0.491636 0.638600
vt 0.490774 0.635012
vt 0.683234 0.640564
vt 0.484916 0.634235
vt 0.482214 0.631176
vt 0.489916 0.639579
vt 0.487388 0.636930
vt 0.677325 0.633186
vt 0.678256 0.629676
vt 0.675414 0.640562
vt 0.676535 0.636725
vt 0.673992 0.631295
vt 0.676539 0.628735
vt 0.668689 0.636677
vt 0.671553 0.633939
vt 0.485450 0.640269
vt 0.481938 0.639228
vt 0.488926 0.641275
vt 0.477815 0.637991
vt 0.485260 0.644151
vt 0.481656 0.645058
vt 0.488864 0.643244
vt 0.675520 0.627066
vt 0.668636 0.629047
vt 0.672093 0.628037
vt 0.477797 0.646029
vt 0.664849 0.630013
vt 0.675451 0.625108
vt 0.668438 0.623358
vt 0.671927 0.624289
vt 0.484664 0.650060
vt 0.481618 0.653098
vt 0.489852 0.644948
vt 0.487265 0.647480
vt 0.664770 0.622476
vt 0.491528 0.645974
vt 0.490553 0.649505
vt 0.673726 0.620948
vt 0.676390 0.623382
vt 0.668262 0.615665
vt 0.671229 0.618460
vt 0.489649 0.653049
vt 0.488714 0.657019
vt 0.676951 0.618889
vt 0.678060 0.622352
vt 0.674858 0.611742
vt 0.675980 0.615372
vt 0.494444 0.649596
vt 0.495363 0.653073
vt 0.493510 0.646022
vt 0.496510 0.656839
vt 0.495217 0.645026
vt 0.680014 0.622302
vt 0.681713 0.615205
vt 0.680814 0.618735
vt 0.500305 0.650265
vt 0.502984 0.652951
vt 0.497785 0.647622
vt 0.682445 0.611305
vt 0.686840 0.617872
vt 0.684280 0.620515
vt 0.503087 0.645293
vt 0.507032 0.646411
vt 0.496233 0.643341
vt 0.499664 0.644316
vt 0.681766 0.623203
vt 0.689506 0.614745
vt 0.686784 0.568657
vt 0.686630 0.572470
vt 0.683190 0.571531
vt 0.683240 0.569578
vt 0.569700 0.641991
vt 0.569745 0.639985
vt 0.573315 0.639169
vt 0.573276 0.643083
vt 0.576767 0.644133
vt 0.576956 0.638289
vt 0.580977 0.637157
vt 0.580977 0.645411
vt 0.690297 0.567778
vt 0.690060 0.573451
vt 0.679552 0.570481
vt 0.566014 0.640865
vt 0.694010 0.566847
vt 0.694010 0.574572
vt 0.574152 0.633156
vt 0.576972 0.630216
vt 0.687273 0.578435
vt 0.684749 0.575790
vt 0.682180 0.573202
vt 0.568786 0.638238
vt 0.571504 0.635696
vt 0.689955 0.581126
vt 0.567092 0.637237
vt 0.568101 0.633714
vt 0.569187 0.630221
vt 0.683469 0.585014
vt 0.682325 0.581243
vt 0.681409 0.577764
vt 0.680477 0.574193
vt 0.570137 0.626310
vt 0.675667 0.585183
vt 0.676608 0.581211
vt 0.677517 0.577668
vt 0.678498 0.574140
vt 0.565139 0.637176
vt 0.564223 0.633669
vt 0.563445 0.630138
vt 0.562331 0.626311
vt 0.563421 0.638106
vt 0.560895 0.635543
vt 0.558477 0.632905
vt 0.555635 0.630178
vt 0.671627 0.578213
vt 0.674233 0.575637
vt 0.676825 0.573110
vt 0.668577 0.581246
vt 0.668628 0.573207
vt 0.672233 0.572304
vt 0.675841 0.571400
vt 0.562395 0.639764
vt 0.558989 0.638777
vt 0.555564 0.637757
vt 0.664770 0.574172
vt 0.551820 0.636788
vt 0.562311 0.641714
vt 0.558798 0.642505
vt 0.555330 0.643396
vt 0.664799 0.566142
vt 0.668916 0.567381
vt 0.672425 0.568422
vt 0.675906 0.569425
vt 0.551727 0.644227
vt 0.674353 0.565094
vt 0.676904 0.567718
vt 0.563233 0.643440
vt 0.560554 0.645854
vt 0.558004 0.648343
vt 0.555067 0.650862
vt 0.671893 0.562398
vt 0.669198 0.559340
vt 0.564888 0.644469
vt 0.563781 0.647929
vt 0.562774 0.651402
vt 0.561416 0.655131
vt 0.676920 0.559686
vt 0.677750 0.563193
vt 0.678651 0.566776
vt 0.676153 0.555823
vt 0.680613 0.566846
vt 0.566844 0.644580
vt 0.567647 0.648153
vt 0.568514 0.651711
vt 0.683701 0.556188
vt 0.682610 0.559824
vt 0.681640 0.563347
vt 0.569202 0.655700
vt 0.571130 0.646392
vt 0.573696 0.649065
vt 0.690365 0.560041
vt 0.687415 0.562892
vt 0.684859 0.565371
vt 0.682300 0.567848
vt 0.568612 0.643680
vt 0.576377 0.652240
s 1
f 1/1/1 13/2/2 24/3/3 12/4/4
f 2/5/5 14/6/6 13/2/2 1/1/1
f 3/7/7 15/8/7 14/6/6 2/5/5
f 4/9/8 16/10/9 15/8/7 3/7/7
f 5/11/10 17/12/11 16/10/9 4/9/8
f 6/13/12 18/14/13 17/12/11 5/11/10
f 7/15/14 19/16/15 18/14/13 6/13/12
f 8/17/16 20/18/17 19/16/15 7/15/14
f 9/19/18 21/20/19 20/18/17 8/17/16
f 10/21/20 22/22/21 21/23/19 9/24/18
f 11/25/22 23/26/23 22/22/21 10/21/20
f 12/4/4 24/3/3 23/26/23 11/25/22
f 134/27/24 25/28/25 36/29/26 135/30/27
f 136/31/28 26/32/29 25/28/25 134/27/24
f 137/33/30 27/34/31 26/32/29 136/31/28
f 138/35/32 28/36/33 27/34/31 137/33/30
f 139/37/34 29/38/35 28/36/33 138/35/32
f 140/39/36 30/40/37 29/38/35 139/37/34
f 141/41/38 31/42/39 30/40/37 140/39/36
f 142/43/40 32/44/41 31/42/39 141/41/38
f 143/45/42 33/46/43 32/44/41 142/43/40
f 144/47/44 34/48/45 33/49/43 143/50/42
f 145/51/46 35/52/47 34/48/45 144/47/44
f 135/30/27 36/29/26 35/52/47 145/51/46
f 147/53/48 37/54/49 48/55/50 148/56/51
f 149/57/52 38/58/53 37/54/49 147/53/48
f 150/59/54 39/60/55 38/58/53 149/57/52
f 151/61/56 40/62/57 39/60/55 150/59/54
f 152/63/58 41/64/59 40/62/57 151/61/56
f 153/65/60 42/66/61 41/64/59 152/63/58
f 154/67/62 43/68/63 42/66/61 153/65/60
f 155/69/64 44/70/65 43/68/63 154/67/62
f 156/71/66 45/72/67 44/70/65 155/69/64
f 157/73/68 46/74/69 45/75/67 156/76/66
f 158/77/70 47/78/71 46/74/69 157/73/68
f 148/56/51 48/55/50 47/78/71 158/77/70
f 37/54/49 49/79/72 60/80/73 48/55/50
f 38/58/53 50/81/74 49/79/72 37/54/49
f 39/60/55 51/82/75 50/81/74 38/58/53
f 40/62/57 52/83/76 51/82/75 39/60/55
f 41/64/59 53/84/77 52/83/76 40/62/57
f 42/66/61 54/85/78 53/84/77 41/64/59
f 43/68/63 55/86/79 54/85/78 42/66/61
f 44/70/65 56/87/80 55/86/79 43/68/63
f 45/72/67 57/88/81 56/87/80 44/70/65
f 46/74/69 58/89/82 57/90/81 45/75/67
f 47/78/71 59/91/83 58/89/82 46/74/69
f 48/55/50 60/80/73 59/91/83 47/78/71
f 49/79/72 61/92/84 72/93/85 60/80/73
f 50/81/74 62/94/86 61/92/84 49/79/72
f 51/82/75 63/95/87 62/94/86 50/81/74
f 52/83/76 64/96/88 63/95/87 51/82/75
f 53/84/77 65/97/89 64/96/88 52/83/76
f 54/85/78 66/98/90 65/97/89 53/84/77
f 55/86/79 67/99/91 66/98/90 54/85/78
f 56/87/80 68/100/92 67/99/91 55/86/79
f 57/88/81 69/101/93 68/100/92 56/87/80
f 58/89/82 70/102/94 69/103/93 57/90/81
f 59/91/83 71/104/95 70/102/94 58/89/82
f 60/80/73 72/93/85 71/104/95 59/91/83
f 83/105/96 82/106/97 94/107/98 95/108/99
f 84/109/100 83/105/96 95/108/99 96/110/101
f 73/111/102 84/109/100 96/110/101 85/112/103
f 74/113/104 73/111/102 85/112/103 86/114/105
f 75/115/106 74/113/104 86/114/105 87/116/106
f 76/117/107 75/115/106 87/116/106 88/118/108
f 77/119/109 76/117/107 88/118/108 89/120/110
f 78/121/111 77/119/109 89/120/110 90/122/112
f 79/123/113 78/121/111 90/122/112 91/124/114
f 80/125/115 79/123/113 91/124/114 92/126/116
f 81/127/117 80/125/115 92/126/116 93/128/118
f 82/106/97 81/129/117 93/130/118 94/107/98
f 86/114/105 85/112/103 159/131/119 161/132/120
f 83/133/121 146/134/122 82/135/123
f 81/136/123 146/134/122 80/137/121
f 79/138/121 146/134/122 78/139/123
f 77/140/122 146/134/122 76/141/122
f 75/142/122 146/134/122 74/143/122
f 73/144/122 146/134/122 84/145/122
f 95/108/99 94/107/98 169/146/124 170/147/125
f 93/128/118 92/126/116 167/148/126 168/149/127
f 91/124/114 90/122/112 165/150/128 166/151/129
f 89/120/130 88/118/131 163/152/132 164/153/133
f 85/112/103 96/110/101 160/154/134 159/131/119
f 170/147/125 169/146/124 106/155/135 107/156/136
f 160/154/134 170/147/125 107/156/136 108/157/137
f 159/131/119 160/154/134 108/157/137 97/158/138
f 161/132/120 159/131/119 97/158/138 98/159/139
f 162/160/140 161/132/120 98/159/139 99/161/141
f 163/152/132 162/160/140 99/161/141 100/162/142
f 164/153/133 163/152/132 100/162/142 101/163/143
f 165/150/128 164/153/133 101/163/143 102/164/144
f 166/151/129 165/150/128 102/164/144 103/165/145
f 167/148/126 166/151/129 103/165/145 104/166/146
f 168/149/127 167/148/126 104/166/146 105/167/147
f 169/146/124 168/168/127 105/169/147 106/155/135
f 119/170/148 118/171/149 130/172/150 131/173/151
f 120/174/152 119/170/148 131/173/151 132/175/153
f 171/176/154 172/177/155 120/174/152 109/178/156
f 174/179/157 173/180/158 110/181/159 111/182/160
f 176/183/161 175/184/162 112/185/163 113/186/164
f 178/187/165 177/188/166 114/189/167 115/190/168
f 181/191/169 180/192/170 117/193/171 118/171/149
f 182/194/172 181/191/169 118/171/149 119/170/148
f 109/178/156 120/174/152 132/175/153 121/195/173
f 111/182/160 110/181/159 122/196/174 123/197/175
f 113/186/164 112/185/163 124/198/176 125/199/177
f 115/190/168 114/189/167 126/200/178 127/201/179
f 117/202/171 116/203/180 128/204/181 129/205/182
f 118/171/149 117/193/171 129/206/182 130/172/150
f 173/180/158 171/176/154 109/178/156 110/181/159
f 175/184/162 174/179/157 111/182/160 112/185/163
f 177/188/166 176/183/161 113/186/164 114/189/167
f 179/207/183 178/187/165 115/190/168 116/203/180
f 180/208/170 179/207/183 116/203/180 117/202/171
f 172/177/155 182/194/172 119/170/148 120/174/152
f 110/181/159 109/178/156 121/195/173 122/196/174
f 112/185/163 111/182/160 123/197/175 124/198/176
f 114/189/167 113/186/164 125/199/177 126/200/178
f 116/203/180 115/190/168 127/201/179 128/204/181
f 121/195/173 132/175/153 72/93/85 61/92/84
f 122/196/174 121/195/173 61/92/84 62/94/86
f 123/197/175 122/196/174 62/94/86 63/95/87
f 124/198/176 123/197/175 63/95/87 64/96/88
f 125/199/177 124/198/176 64/96/88 65/97/89
f 126/200/178 125/199/177 65/97/89 66/98/90
f 127/201/179 126/200/178 66/98/90 67/99/91
f 128/204/181 127/201/179 67/99/91 68/100/92
f 129/205/182 128/204/181 68/100/92 69/101/93
f 130/172/150 129/206/182 69/103/93 70/102/94
f 131/173/151 130/172/150 70/102/94 71/104/95
f 132/175/153 131/173/151 71/104/95 72/93/85
f 12/209/184 11/210/185 133/211/184
f 11/210/185 10/212/186 133/211/184
f 10/212/186 9/213/186 133/211/184
f 9/213/186 8/214/185 133/211/184
f 8/214/185 7/215/185 133/211/184
f 7/215/185 6/216/186 133/211/184
f 6/216/186 5/217/184 133/211/184
f 5/217/184 4/218/184 133/211/184
f 4/218/184 3/219/184 133/211/184
f 3/219/184 2/220/184 133/211/184
f 2/220/184 1/221/184 133/211/184
f 1/221/184 12/209/184 133/211/184
f 24/3/3 135/30/27 145/51/46 23/26/23
f 23/26/23 145/51/46 144/47/44 22/22/21
f 22/22/21 144/47/44 143/50/42 21/23/19
f 21/20/19 143/45/42 142/43/40 20/18/17
f 20/18/17 142/43/40 141/41/38 19/16/15
f 19/16/15 141/41/38 140/39/36 18/14/13
f 18/14/13 140/39/36 139/37/34 17/12/187
f 17/12/187 139/37/34 138/35/32 16/10/188
f 16/10/188 138/35/32 137/33/30 15/8/189
f 15/8/189 137/33/30 136/31/28 14/6/6
f 14/6/6 136/31/28 134/27/24 13/2/2
f 13/2/2 134/27/24 135/30/27 24/3/3
f 88/118/131 87/116/190 162/160/140 163/152/132
f 87/116/190 86/114/105 161/132/120 162/160/140
f 90/122/112 89/120/130 164/153/133 165/150/128
f 92/126/116 91/124/114 166/151/129 167/148/126
f 94/107/98 93/130/118 168/168/127 169/146/124
f 96/110/101 95/108/99 170/147/125 160/154/134
f 74/143/122 146/134/122 73/144/122
f 76/141/122 146/134/122 75/142/122
f 78/139/123 146/134/122 77/140/122
f 80/137/121 146/134/122 79/138/121
f 82/135/123 146/134/122 81/136/123
f 84/145/122 146/134/122 83/133/121
f 36/29/26 148/56/51 158/77/70 35/52/47
f 35/52/47 158/77/70 157/73/68 34/48/45
f 34/48/45 157/73/68 156/76/66 33/49/43
f 33/46/43 156/71/66 155/69/64 32/44/41
f 32/44/41 155/69/64 154/67/62 31/42/39
f 31/42/39 154/67/62 153/65/60 30/40/37
f 30/40/37 153/65/60 152/63/58 29/38/35
f 29/38/35 152/63/58 151/61/56 28/36/33
f 28/36/33 151/61/56 150/59/54 27/34/31
f 27/34/31 150/59/54 149/57/52 26/32/29
f 26/32/29 149/57/52 147/53/48 25/28/25
f 25/28/25 147/53/48 148/56/51 36/29/26
f 108/157/137 107/156/136 182/194/172 172/177/155
f 107/156/136 106/155/135 181/191/169 182/194/172
f 106/155/135 105/169/147 180/192/170 181/191/169
f 105/167/147 104/166/146 179/207/183 180/208/170
f 104/166/146 103/165/145 178/187/165 179/207/183
f 103/165/145 102/164/144 177/188/166 178/187/165
f 102/164/144 101/163/143 176/183/161 177/188/166
f 101/163/143 100/162/142 175/184/162 176/183/161
f 100/162/142 99/161/141 174/179/157 175/184/162
f 99/161/141 98/159/139 173/180/158 174/179/157
f 98/159/139 97/158/138 171/176/154 173/180/158
f 97/158/138 108/157/137 172/177/155 171/176/154
f 215/222/191 254/223/191 253/224/192 216/225/192
f 216/225/192 253/224/192 256/226/193 217/227/193
f 217/227/193 256/226/193 258/228/194 218/229/194
f 218/229/194 258/228/194 260/230/195 219/231/195
f 219/231/196 260/230/196 262/232/197 220/233/197
f 220/233/197 262/232/197 264/234/198 221/235/198
f 221/235/198 264/234/198 266/236/199 222/237/199
f 222/237/199 266/236/199 268/238/200 223/239/200
f 223/239/200 268/238/200 270/240/201 224/241/201
f 224/241/201 270/240/201 272/242/202 225/243/202
f 323/244/203 328/245/203 249/246/204 242/247/205
f 226/248/206 274/249/206 276/250/206 227/251/206
f 227/251/207 276/250/207 278/252/208 228/253/208
f 228/253/208 278/252/208 280/254/209 229/255/209
f 207/256/210 209/257/211 309/258/212 307/259/210
f 229/255/209 280/254/209 282/260/213 230/261/213
f 230/261/213 282/260/213 254/223/191 215/222/191
f 193/262/214 195/263/215 295/264/216 293/265/217
f 328/245/203 327/266/203 240/267/205 249/246/204
f 248/268/218 239/269/218 232/270/218
f 325/271/219 324/272/219 234/273/220 245/274/221
f 246/275/222 233/276/223 231/277/224
f 326/278/219 325/271/219 245/274/221 237/279/220
f 327/280/225 326/281/225 237/282/226 240/283/227
f 324/284/228 323/285/228 242/286/229 234/287/230
f 239/288/231 236/289/231 231/290/232 232/291/232
f 281/292/213 230/261/213 215/222/191 251/293/191
f 279/294/209 229/255/209 230/261/213 281/292/213
f 277/295/208 228/253/208 229/255/209 279/294/209
f 275/296/207 227/251/207 228/253/208 277/295/208
f 273/297/206 226/248/206 227/251/206 275/296/206
f 243/298/218 248/268/218 232/270/218
f 269/299/201 224/241/201 225/243/202 271/300/202
f 267/301/200 223/239/200 224/241/201 269/299/201
f 265/302/199 222/237/199 223/239/200 267/301/200
f 263/303/198 221/235/198 222/237/199 265/302/199
f 261/304/197 220/233/197 221/235/198 263/303/198
f 259/305/196 219/231/196 220/233/197 261/304/197
f 257/306/194 218/229/194 219/231/195 259/305/195
f 255/307/193 217/227/193 218/229/194 257/306/194
f 252/308/192 216/225/192 217/227/193 255/307/193
f 251/293/191 215/222/191 216/225/192 252/308/192
f 236/309/223 246/275/222 231/277/224
f 246/275/222 236/309/223 238/310/233 247/311/234
f 247/311/234 238/310/233 237/279/220 245/274/221
f 236/289/231 239/288/231 241/312/235 238/313/236
f 238/313/236 241/312/235 240/283/227 237/282/226
f 243/314/237 233/315/237 235/316/238 244/317/239
f 244/317/239 235/316/238 234/287/230 242/286/229
f 249/246/204 240/267/205 241/318/218 250/319/218
f 250/319/218 241/318/218 239/269/218 248/268/218
f 233/276/223 246/275/222 247/311/234 235/320/233
f 235/320/233 247/311/234 245/274/221 234/273/220
f 242/247/205 249/246/204 250/319/218 244/321/218
f 244/321/218 250/319/218 248/268/218 243/298/218
f 233/315/237 243/314/237 232/322/240 231/323/240
f 185/324/225 183/325/225 251/326/225 252/327/225
f 184/328/228 186/329/228 253/330/228 254/331/228
f 187/332/225 185/324/225 252/327/225 255/333/225
f 186/329/228 188/334/228 256/335/228 253/330/228
f 189/336/225 187/332/225 255/333/225 257/337/225
f 188/334/228 190/338/228 258/339/228 256/335/228
f 191/340/225 189/336/225 257/337/225 259/341/225
f 190/338/228 192/342/228 260/343/228 258/339/228
f 193/344/225 191/340/225 259/341/225 261/345/225
f 192/342/228 194/346/228 262/347/228 260/343/228
f 195/348/225 193/344/225 261/345/225 263/349/225
f 194/346/228 196/350/228 264/351/228 262/347/228
f 197/352/225 195/348/225 263/349/225 265/353/225
f 196/350/228 198/354/228 266/355/228 264/351/228
f 199/356/225 197/352/225 265/353/225 267/357/225
f 198/354/228 200/358/228 268/359/228 266/355/228
f 201/360/225 199/356/225 267/357/225 269/361/225
f 200/358/228 202/362/228 270/363/228 268/359/228
f 203/364/225 201/360/225 269/361/225 271/365/225
f 202/362/228 204/366/228 272/367/228 270/363/228
f 205/368/225 203/364/225 271/365/225 273/369/225
f 204/366/228 206/370/228 274/371/228 272/367/228
f 207/372/225 205/368/225 273/369/225 275/373/225
f 206/370/228 208/374/228 276/375/228 274/371/228
f 209/376/225 207/372/225 275/373/225 277/377/225
f 208/374/228 210/378/228 278/379/228 276/375/228
f 211/380/225 209/376/225 277/377/225 279/381/225
f 210/378/228 212/382/228 280/383/228 278/379/228
f 213/384/225 211/380/225 279/381/225 281/385/225
f 212/382/228 214/386/228 282/387/228 280/383/228
f 183/325/225 213/384/225 281/385/225 251/326/225
f 214/386/228 184/328/228 254/331/228 282/387/228
f 283/388/225 284/389/225 316/390/225
f 196/391/241 194/392/242 294/393/243 296/394/244
f 210/395/245 208/396/246 308/397/246 310/398/247
f 195/263/215 197/399/248 297/400/249 295/264/216
f 209/257/211 211/401/250 311/402/251 309/258/212
f 198/403/252 196/391/241 296/394/244 298/404/253
f 183/405/254 185/406/255 284/389/256 283/388/257
f 212/407/258 210/395/245 310/398/247 312/408/259
f 197/399/248 199/409/260 299/410/261 297/400/249
f 186/411/262 184/412/263 286/413/264 285/414/265
f 211/401/250 213/415/266 313/416/267 311/402/251
f 200/417/268 198/403/252 298/404/253 300/418/269
f 185/406/255 187/419/270 287/420/271 284/389/256
f 214/421/272 212/407/258 312/408/259 314/422/273
f 199/409/260 201/423/274 301/424/275 299/410/261
f 188/425/276 186/411/262 285/414/265 288/426/277
f 213/415/266 183/405/254 283/388/257 313/416/267
f 202/427/278 200/417/268 300/418/269 302/428/279
f 187/419/270 189/429/280 289/430/281 287/420/271
f 184/412/263 214/421/272 314/422/273 286/413/264
f 201/423/274 203/431/282 303/432/283 301/424/275
f 190/433/284 188/425/276 288/426/277 290/434/285
f 204/435/286 202/427/278 302/428/279 304/436/287
f 189/429/280 191/437/288 291/438/288 289/430/281
f 203/431/282 205/439/289 305/440/290 303/432/283
f 192/441/291 190/433/284 290/434/285 292/442/291
f 206/443/292 204/435/286 304/436/287 306/444/293
f 191/437/294 193/262/214 293/265/217 291/438/294
f 205/439/289 207/256/295 307/259/295 305/440/290
f 194/392/242 192/441/296 292/442/296 294/393/243
f 208/396/297 206/443/292 306/444/293 308/397/297
f 285/414/228 286/413/228 315/445/228
f 286/413/228 314/422/228 315/445/228
f 314/422/228 312/408/228 315/445/228
f 312/408/228 310/398/228 315/445/228
f 310/398/228 308/397/228 315/445/228
f 308/397/228 306/444/228 315/445/228
f 306/444/228 304/436/228 315/445/228
f 304/436/228 302/428/228 315/445/228
f 302/428/228 300/418/228 315/445/228
f 300/418/228 298/404/228 315/445/228
f 298/404/228 296/394/228 315/445/228
f 296/394/228 294/393/228 315/445/228
f 294/393/228 292/442/228 315/445/228
f 292/442/228 290/434/228 315/445/228
f 290/434/228 288/426/228 315/445/228
f 288/426/228 285/414/228 315/445/228
f 284/389/225 287/420/225 316/390/225
f 287/420/225 289/430/225 316/390/225
f 289/430/225 291/438/225 316/390/225
f 291/438/225 293/265/225 316/390/225
f 293/265/225 295/264/225 316/390/225
f 295/264/225 297/400/225 316/390/225
f 297/400/225 299/410/225 316/390/225
f 299/410/225 301/424/225 316/390/225
f 301/424/225 303/432/225 316/390/225
f 303/432/225 305/440/225 316/390/225
f 305/440/225 307/259/225 316/390/225
f 307/259/225 309/258/225 316/390/225
f 309/258/225 311/402/225 316/390/225
f 311/402/225 313/416/225 316/390/225
f 313/416/225 283/388/225 316/390/225
f 272/367/228 274/371/228 318/446/228 317/447/228
f 273/369/225 271/365/225 320/448/225 321/449/225
f 271/300/202 225/243/202 319/450/298 320/451/298
f 225/243/202 272/242/202 317/452/298 319/450/298
f 226/453/299 273/454/299 321/455/300 322/456/300
f 274/457/299 226/453/299 322/456/300 318/458/300
f 317/447/228 318/446/228 323/285/228 324/284/228
f 321/449/225 320/448/225 326/281/225 327/280/225
f 320/451/298 319/450/298 325/271/219 326/278/219
f 319/450/298 317/452/298 324/272/219 325/271/219
f 322/456/300 321/455/300 327/266/203 328/245/203
f 318/458/300 322/456/300 328/245/203 323/244/203
s 0
f 329/459/228 330/460/228 332/461/228 331/462/228
f 331/463/301 332/464/301 336/465/301 335/466/301
f 335/467/225 336/468/225 334/469/225 333/470/225
f 333/471/302 334/472/302 330/473/302 329/474/302
f 331/475/303 335/476/303 333/471/303 329/474/303
f 336/465/304 332/464/304 330/473/304 334/472/304
s 1
f 337/477/305 420/478/306 341/479/307 342/480/308
f 340/481/309 339/482/310 346/483/311 347/484/312
f 422/485/313 338/486/314 344/487/315 345/488/316
f 421/489/317 337/477/305 342/480/308 343/490/318
f 420/478/306 376/491/319 341/479/307
f 391/492/320 340/481/309 347/484/312
f 339/482/310 422/485/313 345/488/316 346/483/311
f 338/493/314 421/489/317 343/490/318 344/494/315
f 345/488/316 344/487/315 351/495/321 352/496/322
f 343/490/318 342/480/308 349/497/323 350/498/324
f 341/479/307 376/491/319 348/499/325
f 391/492/320 347/484/312 354/500/326
f 346/483/311 345/488/316 352/496/322 353/501/327
f 344/494/315 343/490/318 350/498/324 351/502/321
f 342/480/308 341/479/307 348/499/325 349/497/323
f 347/484/312 346/483/311 353/501/327 354/500/326
f 391/492/320 354/500/326 361/503/328
f 353/501/327 352/496/322 359/504/329 360/505/330
f 351/502/321 350/498/324 357/506/331 358/507/225
f 349/497/323 348/499/325 355/508/332 356/509/333
f 354/500/326 353/501/327 360/505/330 361/503/328
f 352/496/322 351/495/321 358/510/225 359/504/329
f 350/498/324 349/497/323 356/509/333 357/506/331
f 348/499/325 376/491/319 355/508/332
f 358/507/225 357/506/331 364/511/334 365/512/335
f 356/509/333 355/508/332 362/513/336 363/514/337
f 361/503/328 360/505/330 367/515/338 368/516/339
f 359/504/329 358/510/225 365/517/335 366/518/340
f 357/506/331 356/509/333 363/514/337 364/511/334
f 355/508/332 376/491/319 362/513/336
f 391/492/320 361/503/328 368/516/339
f 360/505/330 359/504/329 366/518/340 367/515/338
f 368/516/339 367/515/338 374/519/341 375/520/342
f 366/518/340 365/517/335 372/521/343 373/522/344
f 364/511/334 363/514/337 370/523/345 371/524/346
f 362/513/336 376/491/319 369/525/347
f 391/492/320 368/516/339 375/520/342
f 367/515/338 366/518/340 373/522/344 374/519/341
f 365/512/335 364/511/334 371/524/346 372/526/343
f 363/514/337 362/513/336 369/525/347 370/523/345
f 371/524/346 370/523/345 378/527/348 379/528/349
f 369/525/347 376/491/319 377/529/350
f 391/492/320 375/520/342 383/530/351
f 374/519/341 373/522/344 381/531/352 382/532/353
f 372/526/343 371/524/346 379/528/349 380/533/354
f 370/523/345 369/525/347 377/529/350 378/527/348
f 375/520/342 374/519/341 382/532/353 383/530/351
f 373/522/344 372/521/343 380/534/354 381/531/352
f 391/492/320 383/530/351 390/535/355
f 382/532/353 381/531/352 388/536/356 389/537/357
f 380/533/354 379/528/349 386/538/358 387/539/359
f 378/527/348 377/529/350 384/540/360 385/541/361
f 383/530/351 382/532/353 389/537/357 390/535/355
f 381/531/352 380/534/354 387/542/359 388/536/356
f 379/528/349 378/527/348 385/541/361 386/538/358
f 377/529/350 376/491/319 384/540/360
f 385/541/361 384/540/360 392/543/362 393/544/363
f 390/535/355 389/537/357 397/545/364 398/546/365
f 388/536/356 387/542/359 395/547/366 396/548/367
f 386/538/358 385/541/361 393/544/363 394/549/368
f 384/540/360 376/491/319 392/543/362
f 391/492/320 390/535/355 398/546/365
f 389/537/357 388/536/356 396/548/367 397/545/364
f 387/539/359 386/538/358 394/549/368 395/550/366
f 398/546/365 397/545/364 404/551/369 405/552/370
f 396/548/367 395/547/366 402/553/228 403/554/371
f 394/549/368 393/544/363 400/555/372 401/556/373
f 392/543/362 376/491/319 399/557/374
f 391/492/320 398/546/365 405/552/370
f 397/545/364 396/548/367 403/554/371 404/551/369
f 395/550/366 394/549/368 401/556/373 402/558/228
f 393/544/363 392/543/362 399/557/374 400/555/372
f 399/557/374 376/491/319 406/559/375
f 391/492/320 405/552/370 412/560/376
f 404/551/369 403/554/371 410/561/377 411/562/378
f 402/558/228 401/556/373 408/563/379 409/564/380
f 400/555/372 399/557/374 406/559/375 407/565/381
f 405/552/370 404/551/369 411/562/378 412/560/376
f 403/554/371 402/553/228 409/566/380 410/561/377
f 401/556/373 400/555/372 407/565/381 408/563/379
f 411/562/378 410/561/377 417/567/382 418/568/383
f 409/564/380 408/563/379 415/569/384 416/570/385
f 407/565/381 406/559/375 413/571/386 414/572/387
f 412/560/376 411/562/378 418/568/383 419/573/388
f 410/561/377 409/566/380 416/574/385 417/567/382
f 408/563/379 407/565/381 414/572/387 415/569/384
f 406/559/375 376/491/319 413/571/386
f 391/492/320 412/560/376 419/573/388
f 419/573/388 418/568/383 339/482/310 340/481/309
f 417/567/382 416/574/385 338/486/314 422/485/313
f 415/569/384 414/572/387 337/477/305 421/489/317
f 413/571/386 376/491/319 420/478/306
f 391/492/320 419/573/388 340/481/309
f 418/568/383 417/567/382 422/485/313 339/482/310
f 416/570/385 415/569/384 421/489/317 338/493/314
f 414/572/387 413/571/386 420/478/306 337/477/305
f 423/575/305 428/576/387 427/577/386 506/578/306
f 426/579/389 433/580/388 432/581/383 425/582/310
f 508/583/313 431/584/382 430/585/385 424/586/314
f 507/587/317 429/588/384 428/576/387 423/575/305
f 506/578/306 427/577/386 462/589/319
f 477/590/320 433/580/388 426/579/389
f 425/582/310 432/581/383 431/584/382 508/583/313
f 424/591/314 430/592/385 429/588/384 507/587/317
f 431/584/382 438/593/377 437/594/380 430/585/385
f 429/588/384 436/595/379 435/596/381 428/576/387
f 427/577/386 434/597/375 462/589/319
f 477/590/320 440/598/376 433/580/388
f 432/581/383 439/599/378 438/593/377 431/584/382
f 430/592/385 437/600/380 436/595/379 429/588/384
f 428/576/387 435/596/381 434/597/375 427/577/386
f 433/580/388 440/598/376 439/599/378 432/581/383
f 477/590/320 447/601/370 440/598/376
f 439/599/378 446/602/369 445/603/371 438/593/377
f 437/600/380 444/604/228 443/605/373 436/595/379
f 435/596/381 442/606/372 441/607/374 434/597/375
f 440/598/376 447/601/370 446/602/369 439/599/378
f 438/593/377 445/603/371 444/608/228 437/594/380
f 436/595/379 443/605/373 442/606/372 435/596/381
f 434/597/375 441/607/374 462/589/319
f 444/604/228 451/609/366 450/610/368 443/605/373
f 442/606/372 449/611/363 448/612/362 441/607/374
f 447/601/370 454/613/365 453/614/364 446/602/369
f 445/603/371 452/615/367 451/616/366 444/608/228
f 443/605/373 450/610/368 449/611/363 442/606/372
f 441/607/374 448/612/362 462/589/319
f 477/590/320 454/613/365 447/601/370
f 446/602/369 453/614/364 452/615/367 445/603/371
f 454/613/365 461/617/355 460/618/357 453/614/364
f 452/615/367 459/619/356 458/620/359 451/616/366
f 450/610/368 457/621/358 456/622/361 449/611/363
f 448/612/362 455/623/360 462/589/319
f 477/590/320 461/617/355 454/613/365
f 453/614/364 460/618/357 459/619/356 452/615/367
f 451/609/366 458/624/359 457/621/358 450/610/368
f 449/611/363 456/622/361 455/623/360 448/612/362
f 457/621/358 465/625/349 464/626/348 456/622/361
f 455/623/360 463/627/390 462/589/319
f 477/590/320 469/628/351 461/617/355
f 460/618/357 468/629/353 467/630/352 459/619/356
f 458/624/359 466/631/354 465/625/349 457/621/358
f 456/622/361 464/626/348 463/627/390 455/623/360
f 461/617/355 469/628/351 468/629/353 460/618/357
f 459/619/356 467/630/352 466/632/354 458/620/359
f 477/590/320 476/633/342 469/628/351
f 468/629/353 475/634/341 474/635/344 467/630/352
f 466/631/354 473/636/343 472/637/346 465/625/349
f 464/626/348 471/638/345 470/639/347 463/627/390
f 469/628/351 476/633/342 475/634/341 468/629/353
f 467/630/352 474/635/344 473/640/343 466/632/354
f 465/625/349 472/637/346 471/638/345 464/626/348
f 463/627/390 470/639/347 462/589/319
f 471/638/345 479/641/337 478/642/336 470/639/347
f 476/633/342 484/643/339 483/644/338 475/634/341
f 474/635/344 482/645/340 481/646/335 473/640/343
f 472/637/346 480/647/334 479/641/337 471/638/345
f 470/639/347 478/642/336 462/589/319
f 477/590/320 484/643/339 476/633/342
f 475/634/341 483/644/338 482/645/340 474/635/344
f 473/636/343 481/648/335 480/647/334 472/637/346
f 484/643/339 491/649/328 490/650/330 483/644/338
f 482/645/340 489/651/329 488/652/225 481/646/335
f 480/647/334 487/653/331 486/654/333 479/641/337
f 478/642/336 485/655/332 462/589/319
f 477/590/320 491/649/328 484/643/339
f 483/644/338 490/650/330 489/651/329 482/645/340
f 481/648/335 488/656/225 487/653/331 480/647/334
f 479/641/337 486/654/333 485/655/332 478/642/336
f 485/655/332 492/657/325 462/589/319
f 477/590/320 498/658/326 491/649/328
f 490/650/330 497/659/327 496/660/322 489/651/329
f 488/656/225 495/661/321 494/662/324 487/653/331
f 486/654/333 493/663/323 492/657/325 485/655/332
f 491/649/328 498/658/326 497/659/327 490/650/330
f 489/651/329 496/660/322 495/664/321 488/652/225
f 487/653/331 494/662/324 493/663/323 486/654/333
f 497/659/327 504/665/311 503/666/316 496/660/322
f 495/661/321 502/667/315 501/668/318 494/662/324
f 493/663/323 500/669/308 499/670/307 492/657/325
f 498/658/326 505/671/312 504/665/311 497/659/327
f 496/660/322 503/666/316 502/672/315 495/664/321
f 494/662/324 501/668/318 500/669/308 493/663/323
f 492/657/325 499/670/307 462/589/319
f 477/590/320 505/671/312 498/658/326
f 505/671/312 426/579/389 425/582/310 504/665/311
f 503/666/316 508/583/313 424/586/314 502/672/315
f 501/668/318 507/587/317 423/575/305 500/669/308
f 499/670/307 506/578/306 462/589/319
f 477/590/320 426/579/389 505/671/312
f 504/665/311 425/582/310 508/583/313 503/666/316
f 502/667/315 424/591/314 507/587/317 501/668/318
f 500/669/308 423/575/305 506/578/306 499/670/307
