# Blender 4.0.2
# www.blender.org
o metal_twist_02
v 0.008351 0.000000 -0.005791
v 0.005791 0.000000 -0.008351
v 0.008351 0.000000 0.005791
v 0.005791 0.000000 0.008351
v -0.008351 0.000000 -0.005791
v -0.005791 0.000000 -0.008351
v -0.008351 -0.000000 0.005791
v -0.005791 -0.000000 0.008351
v -0.002657 0.000000 -0.006353
v 0.002657 0.000000 -0.006353
v -0.000000 0.000000 -0.005764
v 0.006353 0.000000 -0.002657
v 0.006353 0.000000 0.002657
v 0.005764 0.000000 -0.000000
v -0.006353 -0.000000 0.002657
v -0.006353 -0.000000 -0.002657
v -0.005764 -0.000000 0.000000
v 0.002657 -0.000000 0.006353
v -0.002657 -0.000000 0.006353
v 0.000000 -0.000000 0.005764
v 0.005499 0.006250 -0.008546
v 0.002155 0.006250 -0.009931
v 0.009931 0.006250 0.002155
v 0.008546 0.006250 0.005499
v -0.009931 0.006250 -0.002155
v -0.008546 0.006250 -0.005499
v -0.005499 0.006250 0.008546
v -0.002155 0.006250 0.009931
v -0.004886 0.006250 -0.004853
v 0.000024 0.006250 -0.006887
v -0.002206 0.006250 -0.005325
v 0.004853 0.006250 -0.004886
v 0.006887 0.006250 0.000024
v 0.005325 0.006250 -0.002206
v -0.004853 0.006250 0.004886
v -0.006887 0.006250 -0.000024
v -0.005325 0.006250 0.002206
v 0.004886 0.006250 0.004853
v -0.000024 0.006250 0.006887
v 0.002206 0.006250 0.005325
v 0.001810 0.012500 -0.010000
v -0.001810 0.012500 -0.010000
v 0.010000 0.012500 -0.001810
v 0.010000 0.012500 0.001810
v -0.010000 0.012500 0.001810
v -0.010000 0.012500 -0.001810
v -0.001810 0.012500 0.010000
v 0.001810 0.012500 0.010000
v -0.006372 0.012500 -0.002613
v -0.002613 0.012500 -0.006372
v -0.004076 0.012500 -0.004076
v 0.002613 0.012500 -0.006372
v 0.006372 0.012500 -0.002613
v 0.004076 0.012500 -0.004076
v -0.002613 0.012500 0.006372
v -0.006372 0.012500 0.002613
v -0.004076 0.012500 0.004076
v 0.006372 0.012500 0.002613
v 0.002613 0.012500 0.006372
v 0.004076 0.012500 0.004076
v -0.002155 0.018750 -0.009931
v -0.005499 0.018750 -0.008546
v 0.008546 0.018750 -0.005499
v 0.009931 0.018750 -0.002155
v -0.008546 0.018750 0.005499
v -0.009931 0.018750 0.002155
v 0.002155 0.018750 0.009931
v 0.005499 0.018750 0.008546
v -0.006887 0.018750 0.000024
v -0.004853 0.018750 -0.004886
v -0.005325 0.018750 -0.002206
v -0.000024 0.018750 -0.006887
v 0.004886 0.018750 -0.004853
v 0.002206 0.018750 -0.005325
v 0.000024 0.018750 0.006887
v -0.004886 0.018750 0.004853
v -0.002206 0.018750 0.005325
v 0.006887 0.018750 -0.000024
v 0.004853 0.018750 0.004886
v 0.005325 0.018750 0.002206
v -0.005791 0.025000 -0.008351
v -0.008351 0.025000 -0.005791
v 0.005791 0.025000 -0.008351
v 0.008351 0.025000 -0.005791
v -0.005791 0.025000 0.008351
v -0.008351 0.025000 0.005791
v 0.005791 0.025000 0.008351
v 0.008351 0.025000 0.005791
v -0.006353 0.025000 0.002657
v -0.006353 0.025000 -0.002657
v -0.005764 0.025000 0.000000
v -0.002657 0.025000 -0.006353
v 0.002657 0.025000 -0.006353
v -0.000000 0.025000 -0.005764
v 0.002657 0.025000 0.006353
v -0.002657 0.025000 0.006353
v 0.000000 0.025000 0.005764
v 0.006353 0.025000 -0.002657
v 0.006353 0.025000 0.002657
v 0.005764 0.025000 -0.000000
v -0.008546 0.031250 -0.005499
v -0.009931 0.031250 -0.002155
v 0.002155 0.031250 -0.009931
v 0.005499 0.031250 -0.008546
v -0.002155 0.031250 0.009931
v -0.005499 0.031250 0.008546
v 0.008546 0.031250 0.005499
v 0.009931 0.031250 0.002155
v -0.004853 0.031250 0.004886
v -0.006887 0.031250 -0.000024
v -0.005325 0.031250 0.002206
v -0.004886 0.031250 -0.004853
v 0.000024 0.031250 -0.006887
v -0.002206 0.031250 -0.005325
v 0.004886 0.031250 0.004853
v -0.000024 0.031250 0.006887
v 0.002206 0.031250 0.005325
v 0.004853 0.031250 -0.004886
v 0.006887 0.031250 0.000024
v 0.005325 0.031250 -0.002206
v -0.010000 0.037500 -0.001810
v -0.010000 0.037500 0.001810
v -0.001810 0.037500 -0.010000
v 0.001810 0.037500 -0.010000
v 0.001810 0.037500 0.010000
v -0.001810 0.037500 0.010000
v 0.010000 0.037500 0.001810
v 0.010000 0.037500 -0.001810
v -0.002613 0.037500 0.006372
v -0.006372 0.037500 0.002613
v -0.004076 0.037500 0.004076
v -0.006372 0.037500 -0.002613
v -0.002613 0.037500 -0.006372
v -0.004076 0.037500 -0.004076
v 0.006372 0.037500 0.002613
v 0.002613 0.037500 0.006372
v 0.004076 0.037500 0.004076
v 0.002613 0.037500 -0.006372
v 0.006372 0.037500 -0.002613
v 0.004076 0.037500 -0.004076
v -0.009931 0.043750 0.002155
v -0.008546 0.043750 0.005499
v -0.005499 0.043750 -0.008546
v -0.002155 0.043750 -0.009931
v 0.005499 0.043750 0.008546
v 0.002155 0.043750 0.009931
v 0.009931 0.043750 -0.002155
v 0.008546 0.043750 -0.005499
v 0.000024 0.043750 0.006887
v -0.004886 0.043750 0.004853
v -0.002206 0.043750 0.005325
v -0.006887 0.043750 0.000024
v -0.004853 0.043750 -0.004886
v -0.005325 0.043750 -0.002206
v 0.006887 0.043750 -0.000024
v 0.004853 0.043750 0.004886
v 0.005325 0.043750 0.002206
v -0.000024 0.043750 -0.006887
v 0.004886 0.043750 -0.004853
v 0.002206 0.043750 -0.005325
v -0.008351 0.050000 0.005791
v -0.005791 0.050000 0.008351
v -0.008351 0.050000 -0.005791
v -0.005791 0.050000 -0.008351
v 0.008351 0.050000 0.005791
v 0.005791 0.050000 0.008351
v 0.008351 0.050000 -0.005791
v 0.005791 0.050000 -0.008351
v 0.002657 0.050000 0.006353
v -0.002657 0.050000 0.006353
v 0.000000 0.050000 0.005764
v -0.006353 0.050000 0.002657
v -0.006353 0.050000 -0.002657
v -0.005764 0.050000 0.000000
v 0.006353 0.050000 -0.002657
v 0.006353 0.050000 0.002657
v 0.005764 0.050000 -0.000000
v -0.002657 0.050000 -0.006353
v 0.002657 0.050000 -0.006353
v -0.000000 0.050000 -0.005764
v -0.005499 0.056250 0.008546
v -0.002155 0.056250 0.009931
v -0.009931 0.056250 -0.002155
v -0.008546 0.056250 -0.005499
v 0.009931 0.056250 0.002155
v 0.008546 0.056250 0.005499
v 0.005499 0.056250 -0.008546
v 0.002155 0.056250 -0.009931
v 0.004886 0.056250 0.004853
v -0.000024 0.056250 0.006887
v 0.002206 0.056250 0.005325
v -0.004853 0.056250 0.004886
v -0.006887 0.056250 -0.000024
v -0.005325 0.056250 0.002206
v 0.004853 0.056250 -0.004886
v 0.006887 0.056250 0.000024
v 0.005325 0.056250 -0.002206
v -0.004886 0.056250 -0.004853
v 0.000024 0.056250 -0.006887
v -0.002206 0.056250 -0.005325
v -0.001810 0.062500 0.010000
v 0.001810 0.062500 0.010000
v -0.010000 0.062500 0.001810
v -0.010000 0.062500 -0.001810
v 0.010000 0.062500 -0.001810
v 0.010000 0.062500 0.001810
v 0.001810 0.062500 -0.010000
v -0.001810 0.062500 -0.010000
v 0.006372 0.062500 0.002613
v 0.002613 0.062500 0.006372
v 0.004076 0.062500 0.004076
v -0.002613 0.062500 0.006372
v -0.006372 0.062500 0.002613
v -0.004076 0.062500 0.004076
v 0.002613 0.062500 -0.006372
v 0.006372 0.062500 -0.002613
v 0.004076 0.062500 -0.004076
v -0.006372 0.062500 -0.002613
v -0.002613 0.062500 -0.006372
v -0.004076 0.062500 -0.004076
v 0.002155 0.068750 0.009931
v 0.005499 0.068750 0.008546
v -0.008546 0.068750 0.005499
v -0.009931 0.068750 0.002155
v 0.008546 0.068750 -0.005499
v 0.009931 0.068750 -0.002155
v -0.002155 0.068750 -0.009931
v -0.005499 0.068750 -0.008546
v 0.006887 0.068750 -0.000024
v 0.004853 0.068750 0.004886
v 0.005325 0.068750 0.002206
v 0.000024 0.068750 0.006887
v -0.004886 0.068750 0.004853
v -0.002206 0.068750 0.005325
v -0.000024 0.068750 -0.006887
v 0.004886 0.068750 -0.004853
v 0.002206 0.068750 -0.005325
v -0.006887 0.068750 0.000024
v -0.004853 0.068750 -0.004886
v -0.005325 0.068750 -0.002206
v 0.005791 0.075000 0.008351
v 0.008351 0.075000 0.005791
v -0.005791 0.075000 0.008351
v -0.008351 0.075000 0.005791
v 0.005791 0.075000 -0.008351
v 0.008351 0.075000 -0.005791
v -0.005791 0.075000 -0.008351
v -0.008351 0.075000 -0.005791
v 0.006353 0.075000 -0.002657
v 0.006353 0.075000 0.002657
v 0.005764 0.075000 -0.000000
v 0.002657 0.075000 0.006353
v -0.002657 0.075000 0.006353
v 0.000000 0.075000 0.005764
v -0.002657 0.075000 -0.006353
v 0.002657 0.075000 -0.006353
v -0.000000 0.075000 -0.005764
v -0.006353 0.075000 0.002657
v -0.006353 0.075000 -0.002657
v -0.005764 0.075000 0.000000
v 0.008546 0.081250 0.005499
v 0.009931 0.081250 0.002155
v -0.002155 0.081250 0.009931
v -0.005499 0.081250 0.008546
v 0.002155 0.081250 -0.009931
v 0.005499 0.081250 -0.008546
v -0.008546 0.081250 -0.005499
v -0.009931 0.081250 -0.002155
v 0.004853 0.081250 -0.004886
v 0.006887 0.081250 0.000024
v 0.005325 0.081250 -0.002206
v 0.004886 0.081250 0.004853
v -0.000024 0.081250 0.006887
v 0.002206 0.081250 0.005325
v -0.004886 0.081250 -0.004853
v 0.000024 0.081250 -0.006887
v -0.002206 0.081250 -0.005325
v -0.004853 0.081250 0.004886
v -0.006887 0.081250 -0.000024
v -0.005325 0.081250 0.002206
v 0.010000 0.087500 0.001810
v 0.010000 0.087500 -0.001810
v 0.001810 0.087500 0.010000
v -0.001810 0.087500 0.010000
v -0.001810 0.087500 -0.010000
v 0.001810 0.087500 -0.010000
v -0.010000 0.087500 -0.001810
v -0.010000 0.087500 0.001810
v 0.002613 0.087500 -0.006372
v 0.006372 0.087500 -0.002613
v 0.004076 0.087500 -0.004076
v 0.006372 0.087500 0.002613
v 0.002613 0.087500 0.006372
v 0.004076 0.087500 0.004076
v -0.006372 0.087500 -0.002613
v -0.002613 0.087500 -0.006372
v -0.004076 0.087500 -0.004076
v -0.002613 0.087500 0.006372
v -0.006372 0.087500 0.002613
v -0.004076 0.087500 0.004076
v 0.009931 0.093750 -0.002155
v 0.008546 0.093750 -0.005499
v 0.005499 0.093750 0.008546
v 0.002155 0.093750 0.009931
v -0.005499 0.093750 -0.008546
v -0.002155 0.093750 -0.009931
v -0.009931 0.093750 0.002155
v -0.008546 0.093750 0.005499
v -0.000024 0.093750 -0.006887
v 0.004886 0.093750 -0.004853
v 0.002206 0.093750 -0.005325
v 0.006887 0.093750 -0.000024
v 0.004853 0.093750 0.004886
v 0.005325 0.093750 0.002206
v -0.006887 0.093750 0.000024
v -0.004853 0.093750 -0.004886
v -0.005325 0.093750 -0.002206
v 0.000024 0.093750 0.006887
v -0.004886 0.093750 0.004853
v -0.002206 0.093750 0.005325
v 0.008351 0.100000 -0.005791
v 0.005791 0.100000 -0.008351
v 0.008351 0.100000 0.005791
v 0.005791 0.100000 0.008351
v -0.008351 0.100000 -0.005791
v -0.005791 0.100000 -0.008351
v -0.008351 0.100000 0.005791
v -0.005791 0.100000 0.008351
v -0.002657 0.100000 -0.006353
v 0.002657 0.100000 -0.006353
v -0.000000 0.100000 -0.005764
v 0.006353 0.100000 -0.002657
v 0.006353 0.100000 0.002657
v 0.005764 0.100000 -0.000000
v -0.006353 0.100000 0.002657
v -0.006353 0.100000 -0.002657
v -0.005764 0.100000 0.000000
v 0.002657 0.100000 0.006353
v -0.002657 0.100000 0.006353
v 0.000000 0.100000 0.005764
vn 0.5556 -0.0000 -0.8315
vn 0.3174 -0.0000 -0.9483
vn 0.4461 -0.0000 -0.8950
vn -0.0696 -0.0000 -0.9976
vn 0.0696 -0.0000 -0.9976
vn -0.4461 -0.0000 -0.8950
vn -0.3174 -0.0000 -0.9483
vn -0.7546 -0.0000 -0.6562
vn -0.6562 -0.0000 -0.7546
vn -0.9483 -0.0000 -0.3174
vn -0.8950 -0.0000 -0.4461
vn -0.9976 -0.0000 0.0696
vn -0.9976 -0.0000 -0.0696
vn -0.8950 -0.0000 0.4461
vn -0.9483 -0.0000 0.3174
vn -0.6562 -0.0000 0.7546
vn -0.7546 -0.0000 0.6562
vn -0.3174 -0.0000 0.9483
vn -0.4461 -0.0000 0.8950
vn 0.0696 -0.0000 0.9976
vn -0.0696 -0.0000 0.9976
vn 0.4461 -0.0000 0.8950
vn 0.3174 -0.0000 0.9483
vn 0.7546 -0.0000 0.6562
vn 0.6562 -0.0000 0.7546
vn 0.9483 -0.0000 0.3174
vn 0.8950 -0.0000 0.4461
vn 0.9976 -0.0000 -0.0696
vn 0.9976 -0.0000 0.0696
vn 0.8950 -0.0000 -0.4461
vn 0.9483 -0.0000 -0.3174
vn 0.8315 -0.0000 -0.5556
vn 0.8315 -0.0000 0.5556
vn 0.6562 -0.0000 -0.7546
vn 0.7546 -0.0000 -0.6562
vn 0.5556 -0.0000 0.8315
vn -0.8315 -0.0000 -0.5556
vn -0.5556 -0.0000 -0.8315
vn -0.5556 -0.0000 0.8315
vn -0.8315 -0.0000 0.5556
vn -0.2400 -0.0347 -0.9702
vn 0.1581 0.2816 -0.9464
vn -0.0086 0.3116 -0.9502
vn -0.3827 -0.0000 -0.9239
vn -0.3715 0.3116 -0.8746
vn -0.7071 -0.0000 -0.7071
vn -0.6779 0.3116 -0.6658
vn -0.9239 -0.0000 -0.3827
vn -0.8811 0.3116 -0.3557
vn -1.0000 -0.0000 -0.0000
vn -0.9502 0.3116 0.0086
vn -0.9239 -0.0000 0.3827
vn -0.8746 0.3116 0.3715
vn -0.7071 -0.0000 0.7071
vn -0.6658 0.3116 0.6779
vn -0.3827 -0.0000 0.9239
vn -0.3557 0.3116 0.8811
vn -0.0000 -0.0000 1.0000
vn 0.0086 0.3116 0.9502
vn 0.3827 -0.0000 0.9239
vn 0.3715 0.3116 0.8746
vn 0.7071 -0.0000 0.7071
vn 0.6779 0.3116 0.6658
vn 0.9239 -0.0000 0.3827
vn 0.8811 0.3116 0.3557
vn 1.0000 -0.0000 -0.0000
vn 0.9502 0.3116 -0.0086
vn 0.9239 -0.0000 -0.3827
vn 0.8746 0.3116 -0.3715
vn 0.7071 -0.0000 -0.7071
vn 0.6658 0.3116 -0.6779
vn 0.3827 -0.0000 -0.9239
vn 0.5486 0.3284 -0.7689
vn 0.2400 0.0347 -0.9702
vn -0.5486 -0.3284 -0.7689
vn -0.6658 -0.3116 -0.6779
vn -0.8746 -0.3116 -0.3715
vn -0.9502 -0.3116 -0.0086
vn -0.8811 -0.3116 0.3557
vn -0.6779 -0.3116 0.6658
vn -0.3715 -0.3116 0.8746
vn -0.0086 -0.3116 0.9502
vn 0.3557 -0.3116 0.8811
vn 0.6658 -0.3116 0.6779
vn 0.8746 -0.3116 0.3715
vn 0.9502 -0.3116 0.0086
vn 0.8811 -0.3116 -0.3557
vn 0.6779 -0.3116 -0.6658
vn 0.3715 -0.3116 -0.8746
vn 0.0086 -0.3116 -0.9502
vn -0.1581 -0.2816 -0.9464
vn 0.9702 -0.0347 -0.2400
vn 0.9464 0.2816 0.1581
vn 0.3557 0.3116 -0.8811
vn -0.0000 -0.0000 -1.0000
vn 0.7689 0.3284 0.5486
vn 0.9702 0.0347 0.2400
vn 0.7689 -0.3284 -0.5486
vn -0.3557 -0.3116 -0.8811
vn 0.9464 -0.2816 -0.1581
vn -0.9702 -0.0347 0.2400
vn -0.9464 0.2816 -0.1581
vn -0.7689 0.3284 -0.5486
vn -0.9702 0.0347 -0.2400
vn -0.7689 -0.3284 0.5486
vn -0.9464 -0.2816 0.1581
vn 0.2400 -0.0347 0.9702
vn -0.1581 0.2816 0.9464
vn -0.5486 0.3284 0.7689
vn -0.2400 0.0347 0.9702
vn 0.5486 -0.3284 0.7689
vn 0.1581 -0.2816 0.9464
vn 0.3283 0.4247 -0.8437
vn 0.1321 0.4313 -0.8925
vn -0.2195 0.4313 -0.8751
vn -0.5377 0.4313 -0.7245
vn -0.7740 0.4313 -0.4636
vn -0.8925 0.4313 -0.1321
vn -0.8751 0.4313 0.2195
vn -0.7245 0.4313 0.5377
vn -0.4636 0.4313 0.7740
vn -0.1321 0.4313 0.8925
vn 0.2195 0.4313 0.8751
vn 0.5377 0.4313 0.7245
vn 0.7740 0.4313 0.4636
vn 0.8925 0.4313 0.1321
vn 0.8751 0.4313 -0.2195
vn 0.7245 0.4313 -0.5377
vn 0.6262 0.4247 -0.6539
vn -0.6262 -0.4247 -0.6539
vn -0.7245 -0.4313 -0.5377
vn -0.8751 -0.4313 -0.2195
vn -0.8925 -0.4313 0.1321
vn -0.7740 -0.4313 0.4636
vn -0.5377 -0.4313 0.7245
vn -0.2195 -0.4313 0.8751
vn 0.1321 -0.4313 0.8925
vn 0.4636 -0.4313 0.7740
vn 0.7245 -0.4313 0.5377
vn 0.8751 -0.4313 0.2195
vn 0.8925 -0.4313 -0.1321
vn 0.7740 -0.4313 -0.4636
vn 0.5377 -0.4313 -0.7245
vn 0.2195 -0.4313 -0.8751
vn -0.1321 -0.4313 -0.8925
vn -0.3283 -0.4247 -0.8437
vn 0.8437 0.4247 0.3283
vn 0.4636 0.4313 -0.7740
vn 0.6539 0.4247 0.6262
vn 0.6539 -0.4247 -0.6262
vn -0.4636 -0.4313 -0.7740
vn 0.8437 -0.4247 -0.3283
vn -0.8437 0.4247 -0.3283
vn -0.6539 0.4247 -0.6262
vn -0.6539 -0.4247 0.6262
vn -0.8437 -0.4247 0.3283
vn -0.3283 0.4247 0.8437
vn -0.6262 0.4247 0.6539
vn 0.6262 -0.4247 0.6539
vn 0.3283 -0.4247 0.8437
vt 0.555376 0.009769
vt 0.587039 0.009769
vt 0.587039 0.071014
vt 0.555376 0.071014
vt 0.587039 0.132508
vt 0.555376 0.132508
vt 0.587039 0.193753
vt 0.555376 0.193753
vt 0.587039 0.254998
vt 0.555376 0.254998
vt 0.587039 0.316243
vt 0.555376 0.316243
vt 0.587039 0.377488
vt 0.555376 0.377488
vt 0.587039 0.438733
vt 0.555376 0.438733
vt 0.587039 0.499978
vt 0.555376 0.499978
vt 0.587039 0.561223
vt 0.555376 0.561223
vt 0.587039 0.622468
vt 0.555376 0.622468
vt 0.587039 0.683713
vt 0.555376 0.683713
vt 0.587039 0.744958
vt 0.555376 0.744958
vt 0.587039 0.806204
vt 0.555376 0.806204
vt 0.587039 0.867449
vt 0.555376 0.867449
vt 0.587039 0.928694
vt 0.555376 0.928694
vt 0.587039 0.989939
vt 0.555376 0.989939
vt 0.411059 0.009769
vt 0.442722 0.009769
vt 0.442722 0.071014
vt 0.411059 0.071014
vt 0.442722 0.132508
vt 0.411059 0.132508
vt 0.442722 0.193753
vt 0.411059 0.193753
vt 0.442722 0.254998
vt 0.411059 0.254998
vt 0.442722 0.316243
vt 0.411059 0.316243
vt 0.442722 0.377488
vt 0.411059 0.377488
vt 0.442722 0.438733
vt 0.411059 0.438733
vt 0.442722 0.499978
vt 0.411059 0.499978
vt 0.442722 0.561223
vt 0.411059 0.561223
vt 0.442722 0.622468
vt 0.411059 0.622468
vt 0.442722 0.683713
vt 0.411059 0.683713
vt 0.442722 0.744958
vt 0.411059 0.744958
vt 0.442722 0.806204
vt 0.411059 0.806204
vt 0.442722 0.867449
vt 0.411059 0.867449
vt 0.442722 0.928694
vt 0.411059 0.928694
vt 0.442722 0.989939
vt 0.411059 0.989939
vt 0.122423 0.009769
vt 0.154086 0.009769
vt 0.154086 0.071014
vt 0.122423 0.071014
vt 0.154086 0.132508
vt 0.122423 0.132508
vt 0.154086 0.193753
vt 0.122423 0.193753
vt 0.154086 0.254998
vt 0.122423 0.254998
vt 0.154086 0.316243
vt 0.122423 0.316243
vt 0.154086 0.377488
vt 0.122423 0.377488
vt 0.154086 0.438733
vt 0.122423 0.438733
vt 0.154086 0.499978
vt 0.122423 0.499978
vt 0.154086 0.561223
vt 0.122423 0.561223
vt 0.154086 0.622468
vt 0.122423 0.622468
vt 0.154086 0.683713
vt 0.122423 0.683713
vt 0.154086 0.744958
vt 0.122423 0.744958
vt 0.154086 0.806204
vt 0.122423 0.806204
vt 0.154086 0.867449
vt 0.122423 0.867449
vt 0.154086 0.928694
vt 0.122423 0.928694
vt 0.154086 0.989939
vt 0.122423 0.989939
vt 0.266741 0.009769
vt 0.298404 0.009769
vt 0.298404 0.071014
vt 0.266741 0.071014
vt 0.298404 0.132508
vt 0.266741 0.132508
vt 0.298404 0.193753
vt 0.266741 0.193753
vt 0.298404 0.254998
vt 0.266741 0.254998
vt 0.298404 0.316243
vt 0.266741 0.316243
vt 0.298404 0.377488
vt 0.266741 0.377488
vt 0.298404 0.438733
vt 0.266741 0.438733
vt 0.298404 0.499978
vt 0.266741 0.499978
vt 0.298404 0.561223
vt 0.266741 0.561223
vt 0.298404 0.622468
vt 0.266741 0.622468
vt 0.298404 0.683713
vt 0.266741 0.683713
vt 0.298404 0.744958
vt 0.266741 0.744958
vt 0.298404 0.806204
vt 0.266741 0.806204
vt 0.298404 0.867449
vt 0.266741 0.867449
vt 0.298404 0.928694
vt 0.266741 0.928694
vt 0.298404 0.989939
vt 0.266741 0.989939
vt 0.066096 0.009769
vt 0.089910 0.009769
vt 0.089910 0.071014
vt 0.066096 0.071014
vt 0.089910 0.132508
vt 0.066096 0.132508
vt 0.089910 0.193753
vt 0.066096 0.193753
vt 0.089910 0.254998
vt 0.066096 0.254998
vt 0.089910 0.316243
vt 0.066096 0.316243
vt 0.089910 0.377488
vt 0.066096 0.377488
vt 0.089910 0.438733
vt 0.066096 0.438733
vt 0.089910 0.499978
vt 0.066096 0.499978
vt 0.089910 0.561223
vt 0.066096 0.561223
vt 0.089910 0.622468
vt 0.066096 0.622468
vt 0.089910 0.683713
vt 0.066096 0.683713
vt 0.089910 0.744958
vt 0.066096 0.744958
vt 0.089910 0.806204
vt 0.066096 0.806204
vt 0.089910 0.867449
vt 0.066096 0.867449
vt 0.089910 0.928694
vt 0.066096 0.928694
vt 0.089910 0.989939
vt 0.066096 0.989939
vt 0.042282 0.009769
vt 0.042282 0.071014
vt 0.042282 0.132508
vt 0.042282 0.193753
vt 0.042282 0.254998
vt 0.042282 0.316243
vt 0.042282 0.377488
vt 0.042282 0.438733
vt 0.042282 0.499978
vt 0.042282 0.561223
vt 0.042282 0.622468
vt 0.042282 0.683713
vt 0.042282 0.744958
vt 0.042282 0.806204
vt 0.042282 0.867449
vt 0.042282 0.928694
vt 0.042282 0.989939
vt 0.499049 0.009769
vt 0.522863 0.009769
vt 0.522863 0.071014
vt 0.499049 0.071014
vt 0.522863 0.132508
vt 0.499049 0.132508
vt 0.522863 0.193753
vt 0.499049 0.193753
vt 0.522863 0.254998
vt 0.499049 0.254998
vt 0.522863 0.316243
vt 0.499049 0.316243
vt 0.522863 0.377488
vt 0.499049 0.377488
vt 0.522863 0.438733
vt 0.499049 0.438733
vt 0.522863 0.499978
vt 0.499049 0.499978
vt 0.522863 0.561223
vt 0.499049 0.561223
vt 0.522863 0.622468
vt 0.499049 0.622468
vt 0.522863 0.683713
vt 0.499049 0.683713
vt 0.522863 0.744958
vt 0.499049 0.744958
vt 0.522863 0.806204
vt 0.499049 0.806204
vt 0.522863 0.867449
vt 0.499049 0.867449
vt 0.522863 0.928694
vt 0.499049 0.928694
vt 0.522863 0.989939
vt 0.499049 0.989939
vt 0.475235 0.009769
vt 0.475235 0.071014
vt 0.475235 0.132508
vt 0.475235 0.193753
vt 0.475235 0.254998
vt 0.475235 0.316243
vt 0.475235 0.377488
vt 0.475235 0.438733
vt 0.475235 0.499978
vt 0.475235 0.561223
vt 0.475235 0.622468
vt 0.475235 0.683713
vt 0.475235 0.744958
vt 0.475235 0.806204
vt 0.475235 0.867449
vt 0.475235 0.928694
vt 0.475235 0.989939
vt 0.210414 0.009769
vt 0.234228 0.009769
vt 0.234228 0.071014
vt 0.210414 0.071014
vt 0.234228 0.132508
vt 0.210414 0.132508
vt 0.234228 0.193753
vt 0.210414 0.193753
vt 0.234228 0.254998
vt 0.210414 0.254998
vt 0.234228 0.316243
vt 0.210414 0.316243
vt 0.234228 0.377488
vt 0.210414 0.377488
vt 0.234228 0.438733
vt 0.210414 0.438733
vt 0.234228 0.499978
vt 0.210414 0.499978
vt 0.234228 0.561223
vt 0.210414 0.561223
vt 0.234228 0.622468
vt 0.210414 0.622468
vt 0.234228 0.683713
vt 0.210414 0.683713
vt 0.234228 0.744958
vt 0.210414 0.744958
vt 0.234228 0.806204
vt 0.210414 0.806204
vt 0.234228 0.867449
vt 0.210414 0.867449
vt 0.234228 0.928694
vt 0.210414 0.928694
vt 0.234228 0.989939
vt 0.210414 0.989939
vt 0.186600 0.009769
vt 0.186600 0.071014
vt 0.186600 0.132508
vt 0.186600 0.193753
vt 0.186600 0.254998
vt 0.186600 0.316243
vt 0.186600 0.377488
vt 0.186600 0.438733
vt 0.186600 0.499978
vt 0.186600 0.561223
vt 0.186600 0.622468
vt 0.186600 0.683713
vt 0.186600 0.744958
vt 0.186600 0.806204
vt 0.186600 0.867449
vt 0.186600 0.928694
vt 0.186600 0.989939
vt 0.354731 0.009769
vt 0.378545 0.009769
vt 0.378545 0.071014
vt 0.354731 0.071014
vt 0.378545 0.132508
vt 0.354731 0.132508
vt 0.378545 0.193753
vt 0.354731 0.193753
vt 0.378545 0.254998
vt 0.354731 0.254998
vt 0.378545 0.316243
vt 0.354731 0.316243
vt 0.378545 0.377488
vt 0.354731 0.377488
vt 0.378545 0.438733
vt 0.354731 0.438733
vt 0.378545 0.499978
vt 0.354731 0.499978
vt 0.378545 0.561223
vt 0.354731 0.561223
vt 0.378545 0.622468
vt 0.354731 0.622468
vt 0.378545 0.683713
vt 0.354731 0.683713
vt 0.378545 0.744958
vt 0.354731 0.744958
vt 0.378545 0.806204
vt 0.354731 0.806204
vt 0.378545 0.867449
vt 0.354731 0.867449
vt 0.378545 0.928694
vt 0.354731 0.928694
vt 0.378545 0.989939
vt 0.354731 0.989939
vt 0.330917 0.009769
vt 0.330917 0.071014
vt 0.330917 0.132508
vt 0.330917 0.193753
vt 0.330917 0.254998
vt 0.330917 0.316243
vt 0.330917 0.377488
vt 0.330917 0.438733
vt 0.330917 0.499978
vt 0.330917 0.561223
vt 0.330917 0.622468
vt 0.330917 0.683713
vt 0.330917 0.744958
vt 0.330917 0.806204
vt 0.330917 0.867449
vt 0.330917 0.928694
vt 0.330917 0.989939
vt 0.009769 0.009769
vt 0.009769 0.071014
vt 0.009769 0.132508
vt 0.009769 0.193753
vt 0.009769 0.254998
vt 0.009769 0.316243
vt 0.009769 0.377488
vt 0.009769 0.438733
vt 0.009769 0.499978
vt 0.009769 0.561223
vt 0.009769 0.622468
vt 0.009769 0.683713
vt 0.009769 0.744958
vt 0.009769 0.806204
vt 0.009769 0.867449
vt 0.009769 0.928694
vt 0.009769 0.989939
s 1
f 1/1/1 2/2/1 22/3/2 21/4/3
f 21/4/3 22/3/2 42/5/4 41/6/5
f 41/6/5 42/5/4 62/7/6 61/8/7
f 61/8/7 62/7/6 82/9/8 81/10/9
f 81/10/9 82/9/8 102/11/10 101/12/11
f 101/12/11 102/11/10 122/13/12 121/14/13
f 121/14/13 122/13/12 142/15/14 141/16/15
f 141/16/15 142/15/14 162/17/16 161/18/17
f 161/18/17 162/17/16 182/19/18 181/20/19
f 181/20/19 182/19/18 202/21/20 201/22/21
f 201/22/21 202/21/20 222/23/22 221/24/23
f 221/24/23 222/23/22 242/25/24 241/26/25
f 241/26/25 242/25/24 262/27/26 261/28/27
f 261/28/27 262/27/26 282/29/28 281/30/29
f 281/30/29 282/29/28 302/31/30 301/32/31
f 301/32/31 302/31/30 322/33/32 321/34/32
f 4/35/33 3/36/33 23/37/26 24/38/27
f 24/38/27 23/37/26 43/39/28 44/40/29
f 44/40/29 43/39/28 63/41/30 64/42/31
f 64/42/31 63/41/30 83/43/34 84/44/35
f 84/44/35 83/43/34 103/45/2 104/46/3
f 104/46/3 103/45/2 123/47/4 124/48/5
f 124/48/5 123/47/4 143/49/6 144/50/7
f 144/50/7 143/49/6 163/51/8 164/52/9
f 164/52/9 163/51/8 183/53/10 184/54/11
f 184/54/11 183/53/10 203/55/12 204/56/13
f 204/56/13 203/55/12 223/57/14 224/58/15
f 224/58/15 223/57/14 243/59/16 244/60/17
f 244/60/17 243/59/16 263/61/18 264/62/19
f 264/62/19 263/61/18 283/63/20 284/64/21
f 284/64/21 283/63/20 303/65/22 304/66/23
f 304/66/23 303/65/22 323/67/36 324/68/36
f 6/69/37 5/70/37 25/71/10 26/72/11
f 26/72/11 25/71/10 45/73/12 46/74/13
f 46/74/13 45/73/12 65/75/14 66/76/15
f 66/76/15 65/75/14 85/77/16 86/78/17
f 86/78/17 85/77/16 105/79/18 106/80/19
f 106/80/19 105/79/18 125/81/20 126/82/21
f 126/82/21 125/81/20 145/83/22 146/84/23
f 146/84/23 145/83/22 165/85/24 166/86/25
f 166/86/25 165/85/24 185/87/26 186/88/27
f 186/88/27 185/87/26 205/89/28 206/90/29
f 206/90/29 205/89/28 225/91/30 226/92/31
f 226/92/31 225/91/30 245/93/34 246/94/35
f 246/94/35 245/93/34 265/95/2 266/96/3
f 266/96/3 265/95/2 285/97/4 286/98/5
f 286/98/5 285/97/4 305/99/6 306/100/7
f 306/100/7 305/99/6 325/101/38 326/102/38
f 7/103/39 8/104/39 28/105/18 27/106/19
f 27/106/19 28/105/18 48/107/20 47/108/21
f 47/108/21 48/107/20 68/109/22 67/110/23
f 67/110/23 68/109/22 88/111/24 87/112/25
f 87/112/25 88/111/24 108/113/26 107/114/27
f 107/114/27 108/113/26 128/115/28 127/116/29
f 127/116/29 128/115/28 148/117/30 147/118/31
f 147/118/31 148/117/30 168/119/34 167/120/35
f 167/120/35 168/119/34 188/121/2 187/122/3
f 187/122/3 188/121/2 208/123/4 207/124/5
f 207/124/5 208/123/4 228/125/6 227/126/7
f 227/126/7 228/125/6 248/127/8 247/128/9
f 247/128/9 248/127/8 268/129/10 267/130/11
f 267/130/11 268/129/10 288/131/12 287/132/13
f 287/132/13 288/131/12 308/133/14 307/134/15
f 307/134/15 308/133/14 328/135/40 327/136/40
f 11/137/41 9/138/42 29/139/43 31/140/44
f 31/140/44 29/139/43 49/141/45 51/142/46
f 51/142/46 49/141/45 69/143/47 71/144/48
f 71/144/48 69/143/47 89/145/49 91/146/50
f 91/146/50 89/145/49 109/147/51 111/148/52
f 111/148/52 109/147/51 129/149/53 131/150/54
f 131/150/54 129/149/53 149/151/55 151/152/56
f 151/152/56 149/151/55 169/153/57 171/154/58
f 171/154/58 169/153/57 189/155/59 191/156/60
f 191/156/60 189/155/59 209/157/61 211/158/62
f 211/158/62 209/157/61 229/159/63 231/160/64
f 231/160/64 229/159/63 249/161/65 251/162/66
f 251/162/66 249/161/65 269/163/67 271/164/68
f 271/164/68 269/163/67 289/165/69 291/166/70
f 291/166/70 289/165/69 309/167/71 311/168/72
f 311/168/72 309/167/71 329/169/73 331/170/74
f 10/171/75 11/137/41 31/140/44 30/172/76
f 30/172/76 31/140/44 51/142/46 50/173/77
f 50/173/77 51/142/46 71/144/48 70/174/78
f 70/174/78 71/144/48 91/146/50 90/175/79
f 90/175/79 91/146/50 111/148/52 110/176/80
f 110/176/80 111/148/52 131/150/54 130/177/81
f 130/177/81 131/150/54 151/152/56 150/178/82
f 150/178/82 151/152/56 171/154/58 170/179/83
f 170/179/83 171/154/58 191/156/60 190/180/84
f 190/180/84 191/156/60 211/158/62 210/181/85
f 210/181/85 211/158/62 231/160/64 230/182/86
f 230/182/86 231/160/64 251/162/66 250/183/87
f 250/183/87 251/162/66 271/164/68 270/184/88
f 270/184/88 271/164/68 291/166/70 290/185/89
f 290/185/89 291/166/70 311/168/72 310/186/90
f 310/186/90 311/168/72 331/170/74 330/187/91
f 14/188/92 12/189/93 32/190/67 34/191/68
f 34/191/68 32/190/67 52/192/69 54/193/70
f 54/193/70 52/192/69 72/194/71 74/195/72
f 74/195/72 72/194/71 92/196/94 94/197/95
f 94/197/95 92/196/94 112/198/43 114/199/44
f 114/199/44 112/198/43 132/200/45 134/201/46
f 134/201/46 132/200/45 152/202/47 154/203/48
f 154/203/48 152/202/47 172/204/49 174/205/50
f 174/205/50 172/204/49 192/206/51 194/207/52
f 194/207/52 192/206/51 212/208/53 214/209/54
f 214/209/54 212/208/53 232/210/55 234/211/56
f 234/211/56 232/210/55 252/212/57 254/213/58
f 254/213/58 252/212/57 272/214/59 274/215/60
f 274/215/60 272/214/59 292/216/61 294/217/62
f 294/217/62 292/216/61 312/218/63 314/219/64
f 314/219/64 312/218/63 332/220/96 334/221/97
f 13/222/98 14/188/92 34/191/68 33/223/88
f 33/223/88 34/191/68 54/193/70 53/224/89
f 53/224/89 54/193/70 74/195/72 73/225/90
f 73/225/90 74/195/72 94/197/95 93/226/99
f 93/226/99 94/197/95 114/199/44 113/227/76
f 113/227/76 114/199/44 134/201/46 133/228/77
f 133/228/77 134/201/46 154/203/48 153/229/78
f 153/229/78 154/203/48 174/205/50 173/230/79
f 173/230/79 174/205/50 194/207/52 193/231/80
f 193/231/80 194/207/52 214/209/54 213/232/81
f 213/232/81 214/209/54 234/211/56 233/233/82
f 233/233/82 234/211/56 254/213/58 253/234/83
f 253/234/83 254/213/58 274/215/60 273/235/84
f 273/235/84 274/215/60 294/217/62 293/236/85
f 293/236/85 294/217/62 314/219/64 313/237/86
f 313/237/86 314/219/64 334/221/97 333/238/100
f 17/239/101 15/240/102 35/241/51 37/242/52
f 37/242/52 35/241/51 55/243/53 57/244/54
f 57/244/54 55/243/53 75/245/55 77/246/56
f 77/246/56 75/245/55 95/247/57 97/248/58
f 97/248/58 95/247/57 115/249/59 117/250/60
f 117/250/60 115/249/59 135/251/61 137/252/62
f 137/252/62 135/251/61 155/253/63 157/254/64
f 157/254/64 155/253/63 175/255/65 177/256/66
f 177/256/66 175/255/65 195/257/67 197/258/68
f 197/258/68 195/257/67 215/259/69 217/260/70
f 217/260/70 215/259/69 235/261/71 237/262/72
f 237/262/72 235/261/71 255/263/94 257/264/95
f 257/264/95 255/263/94 275/265/43 277/266/44
f 277/266/44 275/265/43 295/267/45 297/268/46
f 297/268/46 295/267/45 315/269/47 317/270/48
f 317/270/48 315/269/47 335/271/103 337/272/104
f 16/273/105 17/239/101 37/242/52 36/274/80
f 36/274/80 37/242/52 57/244/54 56/275/81
f 56/275/81 57/244/54 77/246/56 76/276/82
f 76/276/82 77/246/56 97/248/58 96/277/83
f 96/277/83 97/248/58 117/250/60 116/278/84
f 116/278/84 117/250/60 137/252/62 136/279/85
f 136/279/85 137/252/62 157/254/64 156/280/86
f 156/280/86 157/254/64 177/256/66 176/281/87
f 176/281/87 177/256/66 197/258/68 196/282/88
f 196/282/88 197/258/68 217/260/70 216/283/89
f 216/283/89 217/260/70 237/262/72 236/284/90
f 236/284/90 237/262/72 257/264/95 256/285/99
f 256/285/99 257/264/95 277/266/44 276/286/76
f 276/286/76 277/266/44 297/268/46 296/287/77
f 296/287/77 297/268/46 317/270/48 316/288/78
f 316/288/78 317/270/48 337/272/104 336/289/106
f 20/290/107 18/291/108 38/292/59 40/293/60
f 40/293/60 38/292/59 58/294/61 60/295/62
f 60/295/62 58/294/61 78/296/63 80/297/64
f 80/297/64 78/296/63 98/298/65 100/299/66
f 100/299/66 98/298/65 118/300/67 120/301/68
f 120/301/68 118/300/67 138/302/69 140/303/70
f 140/303/70 138/302/69 158/304/71 160/305/72
f 160/305/72 158/304/71 178/306/94 180/307/95
f 180/307/95 178/306/94 198/308/43 200/309/44
f 200/309/44 198/308/43 218/310/45 220/311/46
f 220/311/46 218/310/45 238/312/47 240/313/48
f 240/313/48 238/312/47 258/314/49 260/315/50
f 260/315/50 258/314/49 278/316/51 280/317/52
f 280/317/52 278/316/51 298/318/53 300/319/54
f 300/319/54 298/318/53 318/320/55 320/321/56
f 320/321/56 318/320/55 338/322/109 340/323/110
f 19/324/111 20/290/107 40/293/60 39/325/84
f 39/325/84 40/293/60 60/295/62 59/326/85
f 59/326/85 60/295/62 80/297/64 79/327/86
f 79/327/86 80/297/64 100/299/66 99/328/87
f 99/328/87 100/299/66 120/301/68 119/329/88
f 119/329/88 120/301/68 140/303/70 139/330/89
f 139/330/89 140/303/70 160/305/72 159/331/90
f 159/331/90 160/305/72 180/307/95 179/332/99
f 179/332/99 180/307/95 200/309/44 199/333/76
f 199/333/76 200/309/44 220/311/46 219/334/77
f 219/334/77 220/311/46 240/313/48 239/335/78
f 239/335/78 240/313/48 260/315/50 259/336/79
f 259/336/79 260/315/50 280/317/52 279/337/80
f 279/337/80 280/317/52 300/319/54 299/338/81
f 299/338/81 300/319/54 320/321/56 319/339/82
f 319/339/82 320/321/56 340/323/110 339/340/112
f 9/138/42 6/69/113 26/72/114 29/139/43
f 29/139/43 26/72/114 46/74/115 49/141/45
f 49/141/45 46/74/115 66/76/116 69/143/47
f 69/143/47 66/76/116 86/78/117 89/145/49
f 89/145/49 86/78/117 106/80/118 109/147/51
f 109/147/51 106/80/118 126/82/119 129/149/53
f 129/149/53 126/82/119 146/84/120 149/151/55
f 149/151/55 146/84/120 166/86/121 169/153/57
f 169/153/57 166/86/121 186/88/122 189/155/59
f 189/155/59 186/88/122 206/90/123 209/157/61
f 209/157/61 206/90/123 226/92/124 229/159/63
f 229/159/63 226/92/124 246/94/125 249/161/65
f 249/161/65 246/94/125 266/96/126 269/163/67
f 269/163/67 266/96/126 286/98/127 289/165/69
f 289/165/69 286/98/127 306/100/128 309/167/71
f 309/167/71 306/100/128 326/102/129 329/169/73
f 2/341/130 10/171/75 30/172/76 22/342/131
f 22/342/131 30/172/76 50/173/77 42/343/132
f 42/343/132 50/173/77 70/174/78 62/344/133
f 62/344/133 70/174/78 90/175/79 82/345/134
f 82/345/134 90/175/79 110/176/80 102/346/135
f 102/346/135 110/176/80 130/177/81 122/347/136
f 122/347/136 130/177/81 150/178/82 142/348/137
f 142/348/137 150/178/82 170/179/83 162/349/138
f 162/349/138 170/179/83 190/180/84 182/350/139
f 182/350/139 190/180/84 210/181/85 202/351/140
f 202/351/140 210/181/85 230/182/86 222/352/141
f 222/352/141 230/182/86 250/183/87 242/353/142
f 242/353/142 250/183/87 270/184/88 262/354/143
f 262/354/143 270/184/88 290/185/89 282/355/144
f 282/355/144 290/185/89 310/186/90 302/356/145
f 302/356/145 310/186/90 330/187/91 322/357/146
f 12/189/93 1/1/147 21/4/126 32/190/67
f 32/190/67 21/4/126 41/6/127 52/192/69
f 52/192/69 41/6/127 61/8/128 72/194/71
f 72/194/71 61/8/128 81/10/148 92/196/94
f 92/196/94 81/10/148 101/12/114 112/198/43
f 112/198/43 101/12/114 121/14/115 132/200/45
f 132/200/45 121/14/115 141/16/116 152/202/47
f 152/202/47 141/16/116 161/18/117 172/204/49
f 172/204/49 161/18/117 181/20/118 192/206/51
f 192/206/51 181/20/118 201/22/119 212/208/53
f 212/208/53 201/22/119 221/24/120 232/210/55
f 232/210/55 221/24/120 241/26/121 252/212/57
f 252/212/57 241/26/121 261/28/122 272/214/59
f 272/214/59 261/28/122 281/30/123 292/216/61
f 292/216/61 281/30/123 301/32/124 312/218/63
f 312/218/63 301/32/124 321/34/149 332/220/96
f 3/36/150 13/222/98 33/223/88 23/37/143
f 23/37/143 33/223/88 53/224/89 43/39/144
f 43/39/144 53/224/89 73/225/90 63/41/145
f 63/41/145 73/225/90 93/226/99 83/43/151
f 83/43/151 93/226/99 113/227/76 103/45/131
f 103/45/131 113/227/76 133/228/77 123/47/132
f 123/47/132 133/228/77 153/229/78 143/49/133
f 143/49/133 153/229/78 173/230/79 163/51/134
f 163/51/134 173/230/79 193/231/80 183/53/135
f 183/53/135 193/231/80 213/232/81 203/55/136
f 203/55/136 213/232/81 233/233/82 223/57/137
f 223/57/137 233/233/82 253/234/83 243/59/138
f 243/59/138 253/234/83 273/235/84 263/61/139
f 263/61/139 273/235/84 293/236/85 283/63/140
f 283/63/140 293/236/85 313/237/86 303/65/141
f 303/65/141 313/237/86 333/238/100 323/67/152
f 15/240/102 7/103/153 27/106/118 35/241/51
f 35/241/51 27/106/118 47/108/119 55/243/53
f 55/243/53 47/108/119 67/110/120 75/245/55
f 75/245/55 67/110/120 87/112/121 95/247/57
f 95/247/57 87/112/121 107/114/122 115/249/59
f 115/249/59 107/114/122 127/116/123 135/251/61
f 135/251/61 127/116/123 147/118/124 155/253/63
f 155/253/63 147/118/124 167/120/125 175/255/65
f 175/255/65 167/120/125 187/122/126 195/257/67
f 195/257/67 187/122/126 207/124/127 215/259/69
f 215/259/69 207/124/127 227/126/128 235/261/71
f 235/261/71 227/126/128 247/128/148 255/263/94
f 255/263/94 247/128/148 267/130/114 275/265/43
f 275/265/43 267/130/114 287/132/115 295/267/45
f 295/267/45 287/132/115 307/134/116 315/269/47
f 315/269/47 307/134/116 327/136/154 335/271/103
f 5/70/155 16/273/105 36/274/80 25/71/135
f 25/71/135 36/274/80 56/275/81 45/73/136
f 45/73/136 56/275/81 76/276/82 65/75/137
f 65/75/137 76/276/82 96/277/83 85/77/138
f 85/77/138 96/277/83 116/278/84 105/79/139
f 105/79/139 116/278/84 136/279/85 125/81/140
f 125/81/140 136/279/85 156/280/86 145/83/141
f 145/83/141 156/280/86 176/281/87 165/85/142
f 165/85/142 176/281/87 196/282/88 185/87/143
f 185/87/143 196/282/88 216/283/89 205/89/144
f 205/89/144 216/283/89 236/284/90 225/91/145
f 225/91/145 236/284/90 256/285/99 245/93/151
f 245/93/151 256/285/99 276/286/76 265/95/131
f 265/95/131 276/286/76 296/287/77 285/97/132
f 285/97/132 296/287/77 316/288/78 305/99/133
f 305/99/133 316/288/78 336/289/106 325/101/156
f 18/291/108 4/35/157 24/38/122 38/292/59
f 38/292/59 24/38/122 44/40/123 58/294/61
f 58/294/61 44/40/123 64/42/124 78/296/63
f 78/296/63 64/42/124 84/44/125 98/298/65
f 98/298/65 84/44/125 104/46/126 118/300/67
f 118/300/67 104/46/126 124/48/127 138/302/69
f 138/302/69 124/48/127 144/50/128 158/304/71
f 158/304/71 144/50/128 164/52/148 178/306/94
f 178/306/94 164/52/148 184/54/114 198/308/43
f 198/308/43 184/54/114 204/56/115 218/310/45
f 218/310/45 204/56/115 224/58/116 238/312/47
f 238/312/47 224/58/116 244/60/117 258/314/49
f 258/314/49 244/60/117 264/62/118 278/316/51
f 278/316/51 264/62/118 284/64/119 298/318/53
f 298/318/53 284/64/119 304/66/120 318/320/55
f 318/320/55 304/66/120 324/68/158 338/322/109
f 8/104/159 19/324/111 39/325/84 28/105/139
f 28/105/139 39/325/84 59/326/85 48/107/140
f 48/107/140 59/326/85 79/327/86 68/109/141
f 68/109/141 79/327/86 99/328/87 88/111/142
f 88/111/142 99/328/87 119/329/88 108/113/143
f 108/113/143 119/329/88 139/330/89 128/115/144
f 128/115/144 139/330/89 159/331/90 148/117/145
f 148/117/145 159/331/90 179/332/99 168/119/151
f 168/119/151 179/332/99 199/333/76 188/121/131
f 188/121/131 199/333/76 219/334/77 208/123/132
f 208/123/132 219/334/77 239/335/78 228/125/133
f 228/125/133 239/335/78 259/336/79 248/127/134
f 248/127/134 259/336/79 279/337/80 268/129/135
f 268/129/135 279/337/80 299/338/81 288/131/136
f 288/131/136 299/338/81 319/339/82 308/133/137
f 308/133/137 319/339/82 339/340/112 328/135/160
